<?xml version="1.0" encoding="utf-8" standalone="no"?>
<!DOCTYPE svg PUBLIC "-//W3C//DTD SVG 1.1//EN"
  "http://www.w3.org/Graphics/SVG/1.1/DTD/svg11.dtd">
<svg xmlns:xlink="http://www.w3.org/1999/xlink" width="1443.5625pt" height="323.436915pt" viewBox="0 0 1443.5625 323.436915" xmlns="http://www.w3.org/2000/svg" version="1.1">
 <metadata>
  <rdf:RDF xmlns:dc="http://purl.org/dc/elements/1.1/" xmlns:cc="http://creativecommons.org/ns#" xmlns:rdf="http://www.w3.org/1999/02/22-rdf-syntax-ns#">
   <cc:Work>
    <dc:type rdf:resource="http://purl.org/dc/dcmitype/StillImage"/>
    <dc:date>2025-12-27T14:01:53.281630</dc:date>
    <dc:format>image/svg+xml</dc:format>
    <dc:creator>
     <cc:Agent>
      <dc:title>Matplotlib v3.8.0, https://matplotlib.org/</dc:title>
     </cc:Agent>
    </dc:creator>
   </cc:Work>
  </rdf:RDF>
 </metadata>
 <defs>
  <style type="text/css">*{stroke-linejoin: round; stroke-linecap: butt}</style>
 </defs>
 <g id="figure_1">
  <g id="patch_1">
   <path d="M 0 323.436915 
L 1443.5625 323.436915 
L 1443.5625 0 
L 0 0 
z
" style="fill: #ffffff"/>
  </g>
  <g id="axes_1">
   <g id="patch_2">
    <path d="M 41.3625 210.24 
L 211.484451 210.24 
L 211.484451 43.92 
L 41.3625 43.92 
z
" style="fill: #ffffff"/>
   </g>
   <g id="patch_3">
    <path d="M 0 0 
z
" clip-path="url(#pcda389212d)" style="fill: #ff00ff"/>
   </g>
   <g id="patch_4">
    <path d="M 0 0 
z
" clip-path="url(#pcda389212d)" style="fill: #ff00ff"/>
   </g>
   <g id="patch_5">
    <path d="M 0 0 
z
" clip-path="url(#pcda389212d)" style="fill: #ff00ff"/>
   </g>
   <g id="patch_6">
    <path d="M 141.889108 210.24 
L 152.199529 210.24 
L 152.199529 106.559598 
L 141.889108 106.559598 
z
" clip-path="url(#pcda389212d)" style="fill: #ff00ff"/>
   </g>
   <g id="patch_7">
    <path d="M 167.665161 210.24 
L 177.975582 210.24 
L 177.975582 70.558247 
L 167.665161 70.558247 
z
" clip-path="url(#pcda389212d)" style="fill: #ff00ff"/>
   </g>
   <g id="patch_8">
    <path d="M 193.441214 210.24 
L 203.751635 210.24 
L 203.751635 65.710138 
L 193.441214 65.710138 
z
" clip-path="url(#pcda389212d)" style="fill: #ff00ff"/>
   </g>
   <g id="patch_9">
    <path d="M 49.095316 210.24 
L 59.405737 210.24 
L 59.405737 144.802208 
L 49.095316 144.802208 
z
" clip-path="url(#pcda389212d)" style="fill: #00ffff"/>
   </g>
   <g id="patch_10">
    <path d="M 74.871369 210.24 
L 85.18179 210.24 
L 85.18179 145.118412 
L 74.871369 145.118412 
z
" clip-path="url(#pcda389212d)" style="fill: #00ffff"/>
   </g>
   <g id="patch_11">
    <path d="M 100.647422 210.24 
L 110.957844 210.24 
L 110.957844 136.450612 
L 100.647422 136.450612 
z
" clip-path="url(#pcda389212d)" style="fill: #00ffff"/>
   </g>
   <g id="patch_12">
    <path d="M 0 0 
z
" clip-path="url(#pcda389212d)" style="fill: #00ffff"/>
   </g>
   <g id="patch_13">
    <path d="M 0 0 
z
" clip-path="url(#pcda389212d)" style="fill: #00ffff"/>
   </g>
   <g id="patch_14">
    <path d="M 0 0 
z
" clip-path="url(#pcda389212d)" style="fill: #00ffff"/>
   </g>
   <g id="matplotlib.axis_1">
    <g id="xtick_1">
     <g id="line2d_1">
      <defs>
       <path id="mc4463c0df0" d="M 0 0 
L 0 3.5 
" style="stroke: #000000; stroke-width: 0.8"/>
      </defs>
      <g>
       <use xlink:href="#mc4463c0df0" x="49.095316" y="210.24" style="stroke: #000000; stroke-width: 0.8"/>
      </g>
     </g>
     <g id="text_1">
      <text style="font: 10px 'Arial', sans-serif; text-anchor: middle" x="49.095316" y="224.397813" transform="rotate(-0 49.095316 224.397813)">−3</text>
     </g>
    </g>
    <g id="xtick_2">
     <g id="line2d_2">
      <g>
       <use xlink:href="#mc4463c0df0" x="74.871369" y="210.24" style="stroke: #000000; stroke-width: 0.8"/>
      </g>
     </g>
     <g id="text_2">
      <text style="font: 10px 'Arial', sans-serif; text-anchor: middle" x="74.871369" y="224.397813" transform="rotate(-0 74.871369 224.397813)">−2</text>
     </g>
    </g>
    <g id="xtick_3">
     <g id="line2d_3">
      <g>
       <use xlink:href="#mc4463c0df0" x="100.647422" y="210.24" style="stroke: #000000; stroke-width: 0.8"/>
      </g>
     </g>
     <g id="text_3">
      <text style="font: 10px 'Arial', sans-serif; text-anchor: middle" x="100.647422" y="224.397813" transform="rotate(-0 100.647422 224.397813)">−1</text>
     </g>
    </g>
    <g id="xtick_4">
     <g id="line2d_4">
      <g>
       <use xlink:href="#mc4463c0df0" x="152.199529" y="210.24" style="stroke: #000000; stroke-width: 0.8"/>
      </g>
     </g>
     <g id="text_4">
      <text style="font: 10px 'Arial', sans-serif; text-anchor: middle" x="152.199529" y="224.397813" transform="rotate(-0 152.199529 224.397813)">1</text>
     </g>
    </g>
    <g id="xtick_5">
     <g id="line2d_5">
      <g>
       <use xlink:href="#mc4463c0df0" x="177.975582" y="210.24" style="stroke: #000000; stroke-width: 0.8"/>
      </g>
     </g>
     <g id="text_5">
      <text style="font: 10px 'Arial', sans-serif; text-anchor: middle" x="177.975582" y="224.397813" transform="rotate(-0 177.975582 224.397813)">2</text>
     </g>
    </g>
    <g id="xtick_6">
     <g id="line2d_6">
      <g>
       <use xlink:href="#mc4463c0df0" x="203.751635" y="210.24" style="stroke: #000000; stroke-width: 0.8"/>
      </g>
     </g>
     <g id="text_6">
      <text style="font: 10px 'Arial', sans-serif; text-anchor: middle" x="203.751635" y="224.397813" transform="rotate(-0 203.751635 224.397813)">3</text>
     </g>
    </g>
    <g id="text_7">
     <text style="font: 10px 'Arial', sans-serif; text-anchor: middle" x="126.423476" y="237.543125" transform="rotate(-0 126.423476 237.543125)">PrevOutcomeCount</text>
    </g>
   </g>
   <g id="matplotlib.axis_2">
    <g id="ytick_1">
     <g id="line2d_7">
      <defs>
       <path id="m45562a9d27" d="M 0 0 
L -3.5 0 
" style="stroke: #000000; stroke-width: 0.8"/>
      </defs>
      <g>
       <use xlink:href="#m45562a9d27" x="41.3625" y="210.24" style="stroke: #000000; stroke-width: 0.8"/>
      </g>
     </g>
     <g id="text_8">
      <text style="font: 10px 'Arial', sans-serif; text-anchor: end" x="34.3625" y="213.818906" transform="rotate(-0 34.3625 213.818906)">0.0</text>
     </g>
    </g>
    <g id="ytick_2">
     <g id="line2d_8">
      <g>
       <use xlink:href="#m45562a9d27" x="41.3625" y="172.280797" style="stroke: #000000; stroke-width: 0.8"/>
      </g>
     </g>
     <g id="text_9">
      <text style="font: 10px 'Arial', sans-serif; text-anchor: end" x="34.3625" y="175.859703" transform="rotate(-0 34.3625 175.859703)">0.5</text>
     </g>
    </g>
    <g id="ytick_3">
     <g id="line2d_9">
      <g>
       <use xlink:href="#m45562a9d27" x="41.3625" y="134.321593" style="stroke: #000000; stroke-width: 0.8"/>
      </g>
     </g>
     <g id="text_10">
      <text style="font: 10px 'Arial', sans-serif; text-anchor: end" x="34.3625" y="137.900499" transform="rotate(-0 34.3625 137.900499)">1.0</text>
     </g>
    </g>
    <g id="ytick_4">
     <g id="line2d_10">
      <g>
       <use xlink:href="#m45562a9d27" x="41.3625" y="96.36239" style="stroke: #000000; stroke-width: 0.8"/>
      </g>
     </g>
     <g id="text_11">
      <text style="font: 10px 'Arial', sans-serif; text-anchor: end" x="34.3625" y="99.941296" transform="rotate(-0 34.3625 99.941296)">1.5</text>
     </g>
    </g>
    <g id="ytick_5">
     <g id="line2d_11">
      <g>
       <use xlink:href="#m45562a9d27" x="41.3625" y="58.403186" style="stroke: #000000; stroke-width: 0.8"/>
      </g>
     </g>
     <g id="text_12">
      <text style="font: 10px 'Arial', sans-serif; text-anchor: end" x="34.3625" y="61.982093" transform="rotate(-0 34.3625 61.982093)">2.0</text>
     </g>
    </g>
    <g id="text_13">
     <text style="font: 10px 'Arial', sans-serif; text-anchor: middle" x="14.357813" y="127.08" transform="rotate(-90 14.357813 127.08)">Max Activity</text>
    </g>
   </g>
   <g id="LineCollection_1">
    <path clip-path="url(#pcda389212d)" style="fill: none; stroke: #000000; stroke-width: 1.5"/>
    <path clip-path="url(#pcda389212d)" style="fill: none; stroke: #000000; stroke-width: 1.5"/>
    <path clip-path="url(#pcda389212d)" style="fill: none; stroke: #000000; stroke-width: 1.5"/>
    <path d="M 147.044318 118.41254 
L 147.044318 94.706656 
" clip-path="url(#pcda389212d)" style="fill: none; stroke: #000000; stroke-width: 1.5"/>
    <path d="M 172.820371 89.276494 
L 172.820371 51.84 
" clip-path="url(#pcda389212d)" style="fill: none; stroke: #000000; stroke-width: 1.5"/>
    <path d="M 198.596425 77.967128 
L 198.596425 53.453149 
" clip-path="url(#pcda389212d)" style="fill: none; stroke: #000000; stroke-width: 1.5"/>
   </g>
   <g id="LineCollection_2">
    <path d="M 54.250527 153.740207 
L 54.250527 135.864209 
" clip-path="url(#pcda389212d)" style="fill: none; stroke: #000000; stroke-width: 1.5"/>
    <path d="M 80.02658 157.238265 
L 80.02658 132.998559 
" clip-path="url(#pcda389212d)" style="fill: none; stroke: #000000; stroke-width: 1.5"/>
    <path d="M 105.802633 141.357683 
L 105.802633 131.543541 
" clip-path="url(#pcda389212d)" style="fill: none; stroke: #000000; stroke-width: 1.5"/>
    <path clip-path="url(#pcda389212d)" style="fill: none; stroke: #000000; stroke-width: 1.5"/>
    <path clip-path="url(#pcda389212d)" style="fill: none; stroke: #000000; stroke-width: 1.5"/>
    <path clip-path="url(#pcda389212d)" style="fill: none; stroke: #000000; stroke-width: 1.5"/>
   </g>
   <g id="line2d_12">
    <path d="M 41.3625 210.24 
L 211.484451 210.24 
" clip-path="url(#pcda389212d)" style="fill: none; stroke-dasharray: 5.55,2.4; stroke-dashoffset: 0; stroke: #808080; stroke-width: 1.5"/>
   </g>
   <g id="legend_1">
    <g id="patch_15">
     <path d="M 90.417226 80.210625 
L 162.429726 80.210625 
Q 164.429726 80.210625 164.429726 78.210625 
L 164.429726 50.92 
Q 164.429726 48.92 162.429726 48.92 
L 90.417226 48.92 
Q 88.417226 48.92 88.417226 50.92 
L 88.417226 78.210625 
Q 88.417226 80.210625 90.417226 80.210625 
z
" style="fill: #ffffff; opacity: 0.8; stroke: #cccccc; stroke-linejoin: miter"/>
    </g>
    <g id="patch_16">
     <path d="M 92.417226 60.077812 
L 112.417226 60.077812 
L 112.417226 53.077812 
L 92.417226 53.077812 
z
" style="fill: #ff00ff"/>
    </g>
    <g id="text_14">
     <text style="font: 10px 'Arial', sans-serif; text-anchor: start" x="120.417226" y="60.077812" transform="rotate(-0 120.417226 60.077812)">Pref</text>
    </g>
    <g id="patch_17">
     <path d="M 92.417226 74.223125 
L 112.417226 74.223125 
L 112.417226 67.223125 
L 92.417226 67.223125 
z
" style="fill: #00ffff"/>
    </g>
    <g id="text_15">
     <text style="font: 10px 'Arial', sans-serif; text-anchor: start" x="120.417226" y="74.223125" transform="rotate(-0 120.417226 74.223125)">Non-Pref</text>
    </g>
   </g>
  </g>
  <g id="axes_2">
   <g id="patch_18">
    <path d="M 245.508841 210.24 
L 415.630793 210.24 
L 415.630793 43.92 
L 245.508841 43.92 
z
" style="fill: #ffffff"/>
   </g>
   <g id="PolyCollection_1">
    <defs>
     <path id="m4aaffc553d" d="M 253.241657 -137.653808 
L 253.241657 -119.111134 
L 258.074667 -127.250236 
L 262.907677 -142.006175 
L 267.740687 -134.490553 
L 272.573697 -139.566727 
L 277.406707 -150.285809 
L 282.239717 -163.367889 
L 287.072727 -159.77989 
L 291.905737 -152.543282 
L 296.738747 -153.04642 
L 301.571757 -154.372798 
L 306.404767 -152.997673 
L 311.237777 -140.729776 
L 316.070787 -144.235793 
L 320.903797 -144.327622 
L 325.736807 -146.213932 
L 330.569817 -149.495323 
L 335.402827 -154.822905 
L 340.235837 -141.522438 
L 345.068847 -123.596628 
L 349.901857 -127.39708 
L 354.734867 -140.598814 
L 359.567877 -144.147068 
L 364.400887 -145.784229 
L 369.233897 -152.880109 
L 374.066907 -157.314192 
L 378.899917 -165.456898 
L 383.732927 -163.157013 
L 388.565937 -160.65559 
L 393.398947 -172.664489 
L 398.231957 -145.852083 
L 403.064967 -146.547654 
L 407.897977 -158.610316 
L 407.897977 -192.023909 
L 407.897977 -192.023909 
L 403.064967 -174.591807 
L 398.231957 -169.170369 
L 393.398947 -192.292178 
L 388.565937 -194.642339 
L 383.732927 -198.699269 
L 378.899917 -191.02141 
L 374.066907 -185.18901 
L 369.233897 -184.964961 
L 364.400887 -188.481405 
L 359.567877 -192.565752 
L 354.734867 -187.993204 
L 349.901857 -175.083484 
L 345.068847 -169.981432 
L 340.235837 -184.051471 
L 335.402827 -199.714214 
L 330.569817 -195.35062 
L 325.736807 -192.493448 
L 320.903797 -181.328623 
L 316.070787 -171.837152 
L 311.237777 -171.138629 
L 306.404767 -178.137872 
L 301.571757 -173.755978 
L 296.738747 -165.844475 
L 291.905737 -166.386151 
L 287.072727 -184.287579 
L 282.239717 -204.391298 
L 277.406707 -203.828074 
L 272.573697 -193.699192 
L 267.740687 -179.969943 
L 262.907677 -182.821324 
L 258.074667 -155.154494 
L 253.241657 -137.653808 
z
" style="stroke: #00ffff; stroke-opacity: 0.1"/>
    </defs>
    <g clip-path="url(#pa4f10b30d8)">
     <use xlink:href="#m4aaffc553d" x="0" y="323.436915" style="fill: #00ffff; fill-opacity: 0.1; stroke: #00ffff; stroke-opacity: 0.1"/>
    </g>
   </g>
   <g id="matplotlib.axis_3">
    <g id="xtick_7">
     <g id="line2d_13">
      <g>
       <use xlink:href="#mc4463c0df0" x="262.907677" y="210.24" style="stroke: #000000; stroke-width: 0.8"/>
      </g>
     </g>
     <g id="text_16">
      <text style="font: 10px 'Arial', sans-serif" transform="translate(231.941925 251.86503) rotate(-45)">Sampling</text>
     </g>
    </g>
    <g id="xtick_8">
     <g id="line2d_14">
      <g>
       <use xlink:href="#mc4463c0df0" x="393.398947" y="210.24" style="stroke: #000000; stroke-width: 0.8"/>
      </g>
     </g>
     <g id="text_17">
      <text style="font: 10px 'Arial', sans-serif" transform="translate(312.608682 301.686227) rotate(-45)">Movement to Lateral Port</text>
     </g>
    </g>
    <g id="text_18">
     <text style="font: 10px 'Arial', sans-serif; text-anchor: middle" x="330.569817" y="314.249415" transform="rotate(-0 330.569817 314.249415)">Normalized Time</text>
    </g>
   </g>
   <g id="matplotlib.axis_4">
    <g id="ytick_6">
     <g id="line2d_15">
      <g>
       <use xlink:href="#m45562a9d27" x="245.508841" y="183.704196" style="stroke: #000000; stroke-width: 0.8"/>
      </g>
     </g>
     <g id="text_19">
      <text style="font: 10px 'Arial', sans-serif; text-anchor: end" x="238.508841" y="187.283102" transform="rotate(-0 238.508841 187.283102)">−0.5</text>
     </g>
    </g>
    <g id="ytick_7">
     <g id="line2d_16">
      <g>
       <use xlink:href="#m45562a9d27" x="245.508841" y="145.183586" style="stroke: #000000; stroke-width: 0.8"/>
      </g>
     </g>
     <g id="text_20">
      <text style="font: 10px 'Arial', sans-serif; text-anchor: end" x="238.508841" y="148.762492" transform="rotate(-0 238.508841 148.762492)">0.0</text>
     </g>
    </g>
    <g id="ytick_8">
     <g id="line2d_17">
      <g>
       <use xlink:href="#m45562a9d27" x="245.508841" y="106.662976" style="stroke: #000000; stroke-width: 0.8"/>
      </g>
     </g>
     <g id="text_21">
      <text style="font: 10px 'Arial', sans-serif; text-anchor: end" x="238.508841" y="110.241882" transform="rotate(-0 238.508841 110.241882)">0.5</text>
     </g>
    </g>
    <g id="ytick_9">
     <g id="line2d_18">
      <g>
       <use xlink:href="#m45562a9d27" x="245.508841" y="68.142366" style="stroke: #000000; stroke-width: 0.8"/>
      </g>
     </g>
     <g id="text_22">
      <text style="font: 10px 'Arial', sans-serif; text-anchor: end" x="238.508841" y="71.721272" transform="rotate(-0 238.508841 71.721272)">1.0</text>
     </g>
    </g>
    <g id="text_23">
     <text style="font: 10px 'Arial', sans-serif; text-anchor: middle" x="212.663529" y="127.08" transform="rotate(-90 212.663529 127.08)">Mean Activity</text>
    </g>
   </g>
   <g id="line2d_19">
    <path d="M 253.241657 195.054443 
L 258.074667 182.234549 
L 262.907677 161.023165 
L 267.740687 166.206667 
L 272.573697 156.803957 
L 277.406707 146.379973 
L 282.239717 139.557322 
L 287.072727 151.40318 
L 291.905737 163.972198 
L 296.738747 163.991467 
L 301.571757 159.372526 
L 306.404767 157.869142 
L 311.237777 167.502712 
L 316.070787 165.400442 
L 320.903797 160.608793 
L 325.736807 154.083225 
L 330.569817 151.013943 
L 335.402827 146.168354 
L 340.235837 160.64996 
L 345.068847 176.647884 
L 349.901857 172.196633 
L 354.734867 159.140905 
L 359.567877 155.080505 
L 364.400887 156.304097 
L 369.233897 154.51438 
L 374.066907 152.185314 
L 378.899917 145.19776 
L 383.732927 142.508773 
L 388.565937 145.78795 
L 393.398947 140.958581 
L 398.231957 165.925688 
L 403.064967 162.867185 
L 407.897977 148.119802 
" clip-path="url(#pa4f10b30d8)" style="fill: none; stroke: #00ffff; stroke-width: 1.5; stroke-linecap: square"/>
   </g>
   <g id="line2d_20">
    <path d="M 262.907677 210.24 
L 262.907677 43.92 
" clip-path="url(#pa4f10b30d8)" style="fill: none; stroke-dasharray: 5.55,2.4; stroke-dashoffset: 0; stroke: #808080; stroke-opacity: 0.7; stroke-width: 1.5"/>
   </g>
   <g id="line2d_21">
    <path d="M 393.398947 210.24 
L 393.398947 43.92 
" clip-path="url(#pa4f10b30d8)" style="fill: none; stroke-dasharray: 5.55,2.4; stroke-dashoffset: 0; stroke: #808080; stroke-opacity: 0.7; stroke-width: 1.5"/>
   </g>
   <g id="text_24">
    <text style="font: 12px 'Arial', sans-serif; text-anchor: middle" x="330.569817" y="37.92" transform="rotate(-0 330.569817 37.92)">3 Incorrect Trials</text>
   </g>
   <g id="legend_2">
    <g id="patch_19">
     <path d="M 273.307169 207.345 
L 387.832465 207.345 
Q 388.990465 207.345 388.990465 206.187 
L 388.990465 198.575864 
Q 388.990465 197.417864 387.832465 197.417864 
L 273.307169 197.417864 
Q 272.149169 197.417864 272.149169 198.575864 
L 272.149169 206.187 
Q 272.149169 207.345 273.307169 207.345 
z
" style="fill: #ffffff; opacity: 0.8; stroke: #cccccc; stroke-linejoin: miter"/>
    </g>
    <g id="line2d_22">
     <path d="M 274.465169 201.851738 
L 280.255169 201.851738 
L 286.045169 201.851738 
" style="fill: none; stroke: #00ffff; stroke-width: 1.5; stroke-linecap: square"/>
    </g>
    <g id="text_25">
     <text style="font: 5.79px 'Arial', sans-serif; text-anchor: start" x="290.677169" y="203.878238" transform="rotate(-0 290.677169 203.878238)">NonPref - PrevCount=-3 - #Trials=7.0</text>
    </g>
   </g>
  </g>
  <g id="axes_3">
   <g id="patch_20">
    <path d="M 449.655183 210.24 
L 619.777134 210.24 
L 619.777134 43.92 
L 449.655183 43.92 
z
" style="fill: #ffffff"/>
   </g>
   <g id="PolyCollection_2">
    <defs>
     <path id="m8e1efcffbd" d="M 457.387999 -181.77823 
L 457.387999 -156.894473 
L 462.221009 -154.723169 
L 467.054019 -155.589955 
L 471.887029 -149.483738 
L 476.720039 -134.698254 
L 481.553049 -139.614245 
L 486.386059 -140.729647 
L 491.219069 -142.162262 
L 496.052079 -151.664382 
L 500.885089 -151.005348 
L 505.718099 -143.400012 
L 510.551109 -135.230891 
L 515.384119 -132.115457 
L 520.217129 -128.473292 
L 525.050139 -127.769056 
L 529.883149 -129.399483 
L 534.716159 -132.002866 
L 539.549169 -129.3353 
L 544.382178 -136.038719 
L 549.215188 -140.189969 
L 554.048198 -134.838283 
L 558.881208 -132.648903 
L 563.714218 -138.926398 
L 568.547228 -134.513261 
L 573.380238 -119.560316 
L 578.213248 -119.8999 
L 583.046258 -127.611963 
L 587.879268 -137.265333 
L 592.712278 -140.624642 
L 597.545288 -147.71915 
L 602.378298 -145.521343 
L 607.211308 -145.254231 
L 612.044318 -145.596147 
L 612.044318 -167.555257 
L 612.044318 -167.555257 
L 607.211308 -171.299379 
L 602.378298 -178.689994 
L 597.545288 -174.358218 
L 592.712278 -167.889457 
L 587.879268 -161.792092 
L 583.046258 -150.474456 
L 578.213248 -144.562241 
L 573.380238 -144.523572 
L 568.547228 -163.865981 
L 563.714218 -172.188399 
L 558.881208 -166.775413 
L 554.048198 -161.616054 
L 549.215188 -162.874324 
L 544.382178 -155.374273 
L 539.549169 -151.706755 
L 534.716159 -157.138759 
L 529.883149 -157.129913 
L 525.050139 -160.209128 
L 520.217129 -160.534504 
L 515.384119 -160.870113 
L 510.551109 -162.320268 
L 505.718099 -168.801827 
L 500.885089 -177.986737 
L 496.052079 -178.261041 
L 491.219069 -167.966806 
L 486.386059 -164.980774 
L 481.553049 -164.850903 
L 476.720039 -169.957113 
L 471.887029 -184.463059 
L 467.054019 -183.795246 
L 462.221009 -182.365333 
L 457.387999 -181.77823 
z
" style="stroke: #00ffff; stroke-opacity: 0.1"/>
    </defs>
    <g clip-path="url(#pf757bf42f9)">
     <use xlink:href="#m8e1efcffbd" x="0" y="323.436915" style="fill: #00ffff; fill-opacity: 0.1; stroke: #00ffff; stroke-opacity: 0.1"/>
    </g>
   </g>
   <g id="matplotlib.axis_5">
    <g id="xtick_9">
     <g id="line2d_23">
      <g>
       <use xlink:href="#mc4463c0df0" x="467.054019" y="210.24" style="stroke: #000000; stroke-width: 0.8"/>
      </g>
     </g>
     <g id="text_26">
      <text style="font: 10px 'Arial', sans-serif" transform="translate(436.088266 251.86503) rotate(-45)">Sampling</text>
     </g>
    </g>
    <g id="xtick_10">
     <g id="line2d_24">
      <g>
       <use xlink:href="#mc4463c0df0" x="597.545288" y="210.24" style="stroke: #000000; stroke-width: 0.8"/>
      </g>
     </g>
     <g id="text_27">
      <text style="font: 10px 'Arial', sans-serif" transform="translate(516.755024 301.686227) rotate(-45)">Movement to Lateral Port</text>
     </g>
    </g>
    <g id="text_28">
     <text style="font: 10px 'Arial', sans-serif; text-anchor: middle" x="534.716159" y="314.249415" transform="rotate(-0 534.716159 314.249415)">Normalized Time</text>
    </g>
   </g>
   <g id="matplotlib.axis_6">
    <g id="ytick_10">
     <g id="line2d_25">
      <g>
       <use xlink:href="#m45562a9d27" x="449.655183" y="183.704196" style="stroke: #000000; stroke-width: 0.8"/>
      </g>
     </g>
     <g id="text_29">
      <text style="font: 10px 'Arial', sans-serif; text-anchor: end" x="442.655183" y="187.283102" transform="rotate(-0 442.655183 187.283102)">−0.5</text>
     </g>
    </g>
    <g id="ytick_11">
     <g id="line2d_26">
      <g>
       <use xlink:href="#m45562a9d27" x="449.655183" y="145.183586" style="stroke: #000000; stroke-width: 0.8"/>
      </g>
     </g>
     <g id="text_30">
      <text style="font: 10px 'Arial', sans-serif; text-anchor: end" x="442.655183" y="148.762492" transform="rotate(-0 442.655183 148.762492)">0.0</text>
     </g>
    </g>
    <g id="ytick_12">
     <g id="line2d_27">
      <g>
       <use xlink:href="#m45562a9d27" x="449.655183" y="106.662976" style="stroke: #000000; stroke-width: 0.8"/>
      </g>
     </g>
     <g id="text_31">
      <text style="font: 10px 'Arial', sans-serif; text-anchor: end" x="442.655183" y="110.241882" transform="rotate(-0 442.655183 110.241882)">0.5</text>
     </g>
    </g>
    <g id="ytick_13">
     <g id="line2d_28">
      <g>
       <use xlink:href="#m45562a9d27" x="449.655183" y="68.142366" style="stroke: #000000; stroke-width: 0.8"/>
      </g>
     </g>
     <g id="text_32">
      <text style="font: 10px 'Arial', sans-serif; text-anchor: end" x="442.655183" y="71.721272" transform="rotate(-0 442.655183 71.721272)">1.0</text>
     </g>
    </g>
    <g id="text_33">
     <text style="font: 10px 'Arial', sans-serif; text-anchor: middle" x="416.80987" y="127.08" transform="rotate(-90 416.80987 127.08)">Mean Activity</text>
    </g>
   </g>
   <g id="line2d_29">
    <path d="M 457.387999 154.100563 
L 462.221009 154.892664 
L 467.054019 153.744314 
L 471.887029 156.463516 
L 476.720039 171.10923 
L 481.553049 171.204342 
L 486.386059 170.581704 
L 491.219069 168.37238 
L 496.052079 158.474203 
L 500.885089 158.940872 
L 505.718099 167.335994 
L 510.551109 174.661334 
L 515.384119 176.944128 
L 520.217129 178.933017 
L 525.050139 179.447823 
L 529.883149 180.172218 
L 534.716159 178.866102 
L 539.549169 182.915887 
L 544.382178 177.730419 
L 549.215188 171.904769 
L 554.048198 175.209747 
L 558.881208 173.724756 
L 563.714218 167.879517 
L 568.547228 174.247293 
L 573.380238 191.394971 
L 578.213248 191.205844 
L 583.046258 184.393705 
L 587.879268 173.908203 
L 592.712278 169.179865 
L 597.545288 162.39823 
L 602.378298 161.331247 
L 607.211308 165.16011 
L 612.044318 166.861212 
" clip-path="url(#pf757bf42f9)" style="fill: none; stroke: #00ffff; stroke-width: 1.5; stroke-linecap: square"/>
   </g>
   <g id="line2d_30">
    <path d="M 467.054019 210.24 
L 467.054019 43.92 
" clip-path="url(#pf757bf42f9)" style="fill: none; stroke-dasharray: 5.55,2.4; stroke-dashoffset: 0; stroke: #808080; stroke-opacity: 0.7; stroke-width: 1.5"/>
   </g>
   <g id="line2d_31">
    <path d="M 597.545288 210.24 
L 597.545288 43.92 
" clip-path="url(#pf757bf42f9)" style="fill: none; stroke-dasharray: 5.55,2.4; stroke-dashoffset: 0; stroke: #808080; stroke-opacity: 0.7; stroke-width: 1.5"/>
   </g>
   <g id="text_34">
    <text style="font: 12px 'Arial', sans-serif; text-anchor: middle" x="534.716159" y="37.92" transform="rotate(-0 534.716159 37.92)">2 Incorrect Trials</text>
   </g>
   <g id="legend_3">
    <g id="patch_21">
     <path d="M 475.843619 207.345 
L 593.588698 207.345 
Q 594.746698 207.345 594.746698 206.187 
L 594.746698 198.575864 
Q 594.746698 197.417864 593.588698 197.417864 
L 475.843619 197.417864 
Q 474.685619 197.417864 474.685619 198.575864 
L 474.685619 206.187 
Q 474.685619 207.345 475.843619 207.345 
z
" style="fill: #ffffff; opacity: 0.8; stroke: #cccccc; stroke-linejoin: miter"/>
    </g>
    <g id="line2d_32">
     <path d="M 477.001619 201.851738 
L 482.791619 201.851738 
L 488.581619 201.851738 
" style="fill: none; stroke: #00ffff; stroke-width: 1.5; stroke-linecap: square"/>
    </g>
    <g id="text_35">
     <text style="font: 5.79px 'Arial', sans-serif; text-anchor: start" x="493.213619" y="203.878238" transform="rotate(-0 493.213619 203.878238)">NonPref - PrevCount=-2 - #Trials=15.0</text>
    </g>
   </g>
  </g>
  <g id="axes_4">
   <g id="patch_22">
    <path d="M 653.801524 210.24 
L 823.923476 210.24 
L 823.923476 43.92 
L 653.801524 43.92 
z
" style="fill: #ffffff"/>
   </g>
   <g id="PolyCollection_3">
    <defs>
     <path id="m4daa25d13f" d="M 661.53434 -172.843612 
L 661.53434 -157.180581 
L 666.36735 -157.900533 
L 671.20036 -166.072454 
L 676.03337 -172.52768 
L 680.86638 -167.335019 
L 685.69939 -162.253306 
L 690.5324 -163.049143 
L 695.36541 -164.024783 
L 700.19842 -163.432291 
L 705.03143 -164.354332 
L 709.86444 -163.733392 
L 714.69745 -159.132864 
L 719.53046 -153.519953 
L 724.36347 -150.145435 
L 729.19648 -143.453697 
L 734.02949 -135.40857 
L 738.8625 -133.17551 
L 743.69551 -136.090264 
L 748.52852 -142.433119 
L 753.36153 -148.472601 
L 758.19454 -147.187163 
L 763.02755 -141.83346 
L 767.86056 -143.586955 
L 772.69357 -152.990838 
L 777.52658 -155.791526 
L 782.35959 -156.159645 
L 787.1926 -156.489255 
L 792.02561 -157.937655 
L 796.85862 -161.238477 
L 801.69163 -164.745781 
L 806.52464 -167.509221 
L 811.35765 -168.895976 
L 816.19066 -168.115304 
L 816.19066 -182.894988 
L 816.19066 -182.894988 
L 811.35765 -184.082586 
L 806.52464 -183.421222 
L 801.69163 -180.009529 
L 796.85862 -176.800804 
L 792.02561 -173.038807 
L 787.1926 -171.164191 
L 782.35959 -171.582495 
L 777.52658 -171.618275 
L 772.69357 -168.094168 
L 767.86056 -160.158755 
L 763.02755 -159.620293 
L 758.19454 -164.342769 
L 753.36153 -164.38795 
L 748.52852 -159.254257 
L 743.69551 -155.068236 
L 738.8625 -151.967726 
L 734.02949 -152.393491 
L 729.19648 -159.240129 
L 724.36347 -164.538931 
L 719.53046 -166.983591 
L 714.69745 -172.868617 
L 709.86444 -177.795137 
L 705.03143 -179.54746 
L 700.19842 -179.576173 
L 695.36541 -181.353356 
L 690.5324 -180.31803 
L 685.69939 -178.359192 
L 680.86638 -184.412768 
L 676.03337 -189.125598 
L 671.20036 -183.811845 
L 666.36735 -174.936193 
L 661.53434 -172.843612 
z
" style="stroke: #00ffff; stroke-opacity: 0.1"/>
    </defs>
    <g clip-path="url(#p741f7ef202)">
     <use xlink:href="#m4daa25d13f" x="0" y="323.436915" style="fill: #00ffff; fill-opacity: 0.1; stroke: #00ffff; stroke-opacity: 0.1"/>
    </g>
   </g>
   <g id="matplotlib.axis_7">
    <g id="xtick_11">
     <g id="line2d_33">
      <g>
       <use xlink:href="#mc4463c0df0" x="671.20036" y="210.24" style="stroke: #000000; stroke-width: 0.8"/>
      </g>
     </g>
     <g id="text_36">
      <text style="font: 10px 'Arial', sans-serif" transform="translate(640.234608 251.86503) rotate(-45)">Sampling</text>
     </g>
    </g>
    <g id="xtick_12">
     <g id="line2d_34">
      <g>
       <use xlink:href="#mc4463c0df0" x="801.69163" y="210.24" style="stroke: #000000; stroke-width: 0.8"/>
      </g>
     </g>
     <g id="text_37">
      <text style="font: 10px 'Arial', sans-serif" transform="translate(720.901365 301.686227) rotate(-45)">Movement to Lateral Port</text>
     </g>
    </g>
    <g id="text_38">
     <text style="font: 10px 'Arial', sans-serif; text-anchor: middle" x="738.8625" y="314.249415" transform="rotate(-0 738.8625 314.249415)">Normalized Time</text>
    </g>
   </g>
   <g id="matplotlib.axis_8">
    <g id="ytick_14">
     <g id="line2d_35">
      <g>
       <use xlink:href="#m45562a9d27" x="653.801524" y="183.704196" style="stroke: #000000; stroke-width: 0.8"/>
      </g>
     </g>
     <g id="text_39">
      <text style="font: 10px 'Arial', sans-serif; text-anchor: end" x="646.801524" y="187.283102" transform="rotate(-0 646.801524 187.283102)">−0.5</text>
     </g>
    </g>
    <g id="ytick_15">
     <g id="line2d_36">
      <g>
       <use xlink:href="#m45562a9d27" x="653.801524" y="145.183586" style="stroke: #000000; stroke-width: 0.8"/>
      </g>
     </g>
     <g id="text_40">
      <text style="font: 10px 'Arial', sans-serif; text-anchor: end" x="646.801524" y="148.762492" transform="rotate(-0 646.801524 148.762492)">0.0</text>
     </g>
    </g>
    <g id="ytick_16">
     <g id="line2d_37">
      <g>
       <use xlink:href="#m45562a9d27" x="653.801524" y="106.662976" style="stroke: #000000; stroke-width: 0.8"/>
      </g>
     </g>
     <g id="text_41">
      <text style="font: 10px 'Arial', sans-serif; text-anchor: end" x="646.801524" y="110.241882" transform="rotate(-0 646.801524 110.241882)">0.5</text>
     </g>
    </g>
    <g id="ytick_17">
     <g id="line2d_38">
      <g>
       <use xlink:href="#m45562a9d27" x="653.801524" y="68.142366" style="stroke: #000000; stroke-width: 0.8"/>
      </g>
     </g>
     <g id="text_42">
      <text style="font: 10px 'Arial', sans-serif; text-anchor: end" x="646.801524" y="71.721272" transform="rotate(-0 646.801524 71.721272)">1.0</text>
     </g>
    </g>
    <g id="text_43">
     <text style="font: 10px 'Arial', sans-serif; text-anchor: middle" x="620.956212" y="127.08" transform="rotate(-90 620.956212 127.08)">Mean Activity</text>
    </g>
   </g>
   <g id="line2d_39">
    <path d="M 661.53434 158.424818 
L 666.36735 157.018552 
L 671.20036 148.494764 
L 676.03337 142.610276 
L 680.86638 147.563021 
L 685.69939 153.130666 
L 690.5324 151.753328 
L 695.36541 150.747845 
L 700.19842 151.932683 
L 705.03143 151.486019 
L 709.86444 152.67265 
L 714.69745 157.436174 
L 719.53046 163.185143 
L 724.36347 166.094732 
L 729.19648 172.090001 
L 734.02949 179.535884 
L 738.8625 180.865298 
L 743.69551 177.857666 
L 748.52852 172.593227 
L 753.36153 167.006639 
L 758.19454 167.671949 
L 763.02755 172.710038 
L 767.86056 171.56406 
L 772.69357 162.894411 
L 777.52658 159.732014 
L 782.35959 159.565844 
L 787.1926 159.610192 
L 792.02561 157.948684 
L 796.85862 154.417274 
L 801.69163 151.05926 
L 806.52464 147.971693 
L 811.35765 146.947634 
L 816.19066 147.931769 
" clip-path="url(#p741f7ef202)" style="fill: none; stroke: #00ffff; stroke-width: 1.5; stroke-linecap: square"/>
   </g>
   <g id="line2d_40">
    <path d="M 671.20036 210.24 
L 671.20036 43.92 
" clip-path="url(#p741f7ef202)" style="fill: none; stroke-dasharray: 5.55,2.4; stroke-dashoffset: 0; stroke: #808080; stroke-opacity: 0.7; stroke-width: 1.5"/>
   </g>
   <g id="line2d_41">
    <path d="M 801.69163 210.24 
L 801.69163 43.92 
" clip-path="url(#p741f7ef202)" style="fill: none; stroke-dasharray: 5.55,2.4; stroke-dashoffset: 0; stroke: #808080; stroke-opacity: 0.7; stroke-width: 1.5"/>
   </g>
   <g id="text_44">
    <text style="font: 12px 'Arial', sans-serif; text-anchor: middle" x="738.8625" y="37.92" transform="rotate(-0 738.8625 37.92)">1 Incorrect Trials</text>
   </g>
   <g id="legend_4">
    <g id="patch_23">
     <path d="M 679.989961 207.345 
L 797.735039 207.345 
Q 798.893039 207.345 798.893039 206.187 
L 798.893039 198.575864 
Q 798.893039 197.417864 797.735039 197.417864 
L 679.989961 197.417864 
Q 678.831961 197.417864 678.831961 198.575864 
L 678.831961 206.187 
Q 678.831961 207.345 679.989961 207.345 
z
" style="fill: #ffffff; opacity: 0.8; stroke: #cccccc; stroke-linejoin: miter"/>
    </g>
    <g id="line2d_42">
     <path d="M 681.147961 201.851738 
L 686.937961 201.851738 
L 692.727961 201.851738 
" style="fill: none; stroke: #00ffff; stroke-width: 1.5; stroke-linecap: square"/>
    </g>
    <g id="text_45">
     <text style="font: 5.79px 'Arial', sans-serif; text-anchor: start" x="697.359961" y="203.878238" transform="rotate(-0 697.359961 203.878238)">NonPref - PrevCount=-1 - #Trials=43.0</text>
    </g>
   </g>
  </g>
  <g id="axes_5">
   <g id="patch_24">
    <path d="M 857.947866 210.24 
L 1028.069817 210.24 
L 1028.069817 43.92 
L 857.947866 43.92 
z
" style="fill: #ffffff"/>
   </g>
   <g id="PolyCollection_4">
    <defs>
     <path id="m8584acf4fb" d="M 865.680682 -226.804708 
L 865.680682 -203.67155 
L 870.513692 -209.348787 
L 875.346702 -206.491711 
L 880.179712 -203.543321 
L 885.012722 -204.69517 
L 889.845732 -205.698018 
L 894.678742 -201.460475 
L 899.511752 -191.626138 
L 904.344762 -185.068061 
L 909.177772 -183.855868 
L 914.010782 -177.592704 
L 918.843792 -172.041316 
L 923.676802 -167.88698 
L 928.509812 -166.250472 
L 933.342822 -163.05263 
L 938.175831 -163.522745 
L 943.008841 -164.411543 
L 947.841851 -164.065337 
L 952.674861 -165.643175 
L 957.507871 -167.321035 
L 962.340881 -160.10264 
L 967.173891 -152.172684 
L 972.006901 -152.640238 
L 976.839911 -152.359556 
L 981.672921 -153.439625 
L 986.505931 -154.94652 
L 991.338941 -155.077463 
L 996.171951 -158.081405 
L 1001.004961 -162.993837 
L 1005.837971 -164.629105 
L 1010.670981 -164.960643 
L 1015.503991 -166.517331 
L 1020.337001 -175.645527 
L 1020.337001 -192.542541 
L 1020.337001 -192.542541 
L 1015.503991 -186.598973 
L 1010.670981 -186.555549 
L 1005.837971 -184.718526 
L 1001.004961 -181.137841 
L 996.171951 -175.306357 
L 991.338941 -173.12739 
L 986.505931 -173.865984 
L 981.672921 -172.44187 
L 976.839911 -170.726465 
L 972.006901 -170.287095 
L 967.173891 -169.170556 
L 962.340881 -177.355362 
L 957.507871 -185.748036 
L 952.674861 -185.687364 
L 947.841851 -184.588253 
L 943.008841 -185.60969 
L 938.175831 -185.924521 
L 933.342822 -186.982084 
L 928.509812 -189.333213 
L 923.676802 -190.51426 
L 918.843792 -195.939505 
L 914.010782 -205.060642 
L 909.177772 -213.228623 
L 904.344762 -216.118975 
L 899.511752 -223.189566 
L 894.678742 -229.255966 
L 889.845732 -229.889145 
L 885.012722 -229.982721 
L 880.179712 -231.212559 
L 875.346702 -234.742436 
L 870.513692 -235.513307 
L 865.680682 -226.804708 
z
" style="stroke: #ff00ff; stroke-opacity: 0.1"/>
    </defs>
    <g clip-path="url(#pe164320991)">
     <use xlink:href="#m8584acf4fb" x="0" y="323.436915" style="fill: #ff00ff; fill-opacity: 0.1; stroke: #ff00ff; stroke-opacity: 0.1"/>
    </g>
   </g>
   <g id="matplotlib.axis_9">
    <g id="xtick_13">
     <g id="line2d_43">
      <g>
       <use xlink:href="#mc4463c0df0" x="875.346702" y="210.24" style="stroke: #000000; stroke-width: 0.8"/>
      </g>
     </g>
     <g id="text_46">
      <text style="font: 10px 'Arial', sans-serif" transform="translate(844.380949 251.86503) rotate(-45)">Sampling</text>
     </g>
    </g>
    <g id="xtick_14">
     <g id="line2d_44">
      <g>
       <use xlink:href="#mc4463c0df0" x="1005.837971" y="210.24" style="stroke: #000000; stroke-width: 0.8"/>
      </g>
     </g>
     <g id="text_47">
      <text style="font: 10px 'Arial', sans-serif" transform="translate(925.047707 301.686227) rotate(-45)">Movement to Lateral Port</text>
     </g>
    </g>
    <g id="text_48">
     <text style="font: 10px 'Arial', sans-serif; text-anchor: middle" x="943.008841" y="314.249415" transform="rotate(-0 943.008841 314.249415)">Normalized Time</text>
    </g>
   </g>
   <g id="matplotlib.axis_10">
    <g id="ytick_18">
     <g id="line2d_45">
      <g>
       <use xlink:href="#m45562a9d27" x="857.947866" y="183.704196" style="stroke: #000000; stroke-width: 0.8"/>
      </g>
     </g>
     <g id="text_49">
      <text style="font: 10px 'Arial', sans-serif; text-anchor: end" x="850.947866" y="187.283102" transform="rotate(-0 850.947866 187.283102)">−0.5</text>
     </g>
    </g>
    <g id="ytick_19">
     <g id="line2d_46">
      <g>
       <use xlink:href="#m45562a9d27" x="857.947866" y="145.183586" style="stroke: #000000; stroke-width: 0.8"/>
      </g>
     </g>
     <g id="text_50">
      <text style="font: 10px 'Arial', sans-serif; text-anchor: end" x="850.947866" y="148.762492" transform="rotate(-0 850.947866 148.762492)">0.0</text>
     </g>
    </g>
    <g id="ytick_20">
     <g id="line2d_47">
      <g>
       <use xlink:href="#m45562a9d27" x="857.947866" y="106.662976" style="stroke: #000000; stroke-width: 0.8"/>
      </g>
     </g>
     <g id="text_51">
      <text style="font: 10px 'Arial', sans-serif; text-anchor: end" x="850.947866" y="110.241882" transform="rotate(-0 850.947866 110.241882)">0.5</text>
     </g>
    </g>
    <g id="ytick_21">
     <g id="line2d_48">
      <g>
       <use xlink:href="#m45562a9d27" x="857.947866" y="68.142366" style="stroke: #000000; stroke-width: 0.8"/>
      </g>
     </g>
     <g id="text_52">
      <text style="font: 10px 'Arial', sans-serif; text-anchor: end" x="850.947866" y="71.721272" transform="rotate(-0 850.947866 71.721272)">1.0</text>
     </g>
    </g>
    <g id="text_53">
     <text style="font: 10px 'Arial', sans-serif; text-anchor: middle" x="825.102553" y="127.08" transform="rotate(-90 825.102553 127.08)">Mean Activity</text>
    </g>
   </g>
   <g id="line2d_49">
    <path d="M 865.680682 108.198784 
L 870.513692 101.005867 
L 875.346702 102.819841 
L 880.179712 106.058975 
L 885.012722 106.09797 
L 889.845732 105.643333 
L 894.678742 108.078694 
L 899.511752 116.029062 
L 904.344762 122.843396 
L 909.177772 124.89467 
L 914.010782 132.110241 
L 918.843792 139.446504 
L 923.676802 144.236295 
L 928.509812 145.645072 
L 933.342822 148.419558 
L 938.175831 148.713282 
L 943.008841 148.426298 
L 947.841851 149.11012 
L 952.674861 147.771646 
L 957.507871 146.902379 
L 962.340881 154.707913 
L 967.173891 162.765295 
L 972.006901 161.973248 
L 976.839911 161.893904 
L 981.672921 160.496167 
L 986.505931 159.030662 
L 991.338941 159.334488 
L 996.171951 156.743033 
L 1001.004961 151.371076 
L 1005.837971 148.763099 
L 1010.670981 147.678819 
L 1015.503991 146.878763 
L 1020.337001 139.34288 
" clip-path="url(#pe164320991)" style="fill: none; stroke: #ff00ff; stroke-width: 1.5; stroke-linecap: square"/>
   </g>
   <g id="line2d_50">
    <path d="M 875.346702 210.24 
L 875.346702 43.92 
" clip-path="url(#pe164320991)" style="fill: none; stroke-dasharray: 5.55,2.4; stroke-dashoffset: 0; stroke: #808080; stroke-opacity: 0.7; stroke-width: 1.5"/>
   </g>
   <g id="line2d_51">
    <path d="M 1005.837971 210.24 
L 1005.837971 43.92 
" clip-path="url(#pe164320991)" style="fill: none; stroke-dasharray: 5.55,2.4; stroke-dashoffset: 0; stroke: #808080; stroke-opacity: 0.7; stroke-width: 1.5"/>
   </g>
   <g id="text_54">
    <text style="font: 12px 'Arial', sans-serif; text-anchor: middle" x="943.008841" y="37.92" transform="rotate(-0 943.008841 37.92)">1 Correct Trials</text>
   </g>
   <g id="legend_5">
    <g id="patch_25">
     <path d="M 890.410763 207.345 
L 995.60692 207.345 
Q 996.76492 207.345 996.76492 206.187 
L 996.76492 198.575864 
Q 996.76492 197.417864 995.60692 197.417864 
L 890.410763 197.417864 
Q 889.252763 197.417864 889.252763 198.575864 
L 889.252763 206.187 
Q 889.252763 207.345 890.410763 207.345 
z
" style="fill: #ffffff; opacity: 0.8; stroke: #cccccc; stroke-linejoin: miter"/>
    </g>
    <g id="line2d_52">
     <path d="M 891.568763 201.851738 
L 897.358763 201.851738 
L 903.148763 201.851738 
" style="fill: none; stroke: #ff00ff; stroke-width: 1.5; stroke-linecap: square"/>
    </g>
    <g id="text_55">
     <text style="font: 5.79px 'Arial', sans-serif; text-anchor: start" x="907.780763" y="203.878238" transform="rotate(-0 907.780763 203.878238)">Pref - PrevCount=1 - #Trials=48.0</text>
    </g>
   </g>
  </g>
  <g id="axes_6">
   <g id="patch_26">
    <path d="M 1062.094207 210.24 
L 1232.216159 210.24 
L 1232.216159 43.92 
L 1062.094207 43.92 
z
" style="fill: #ffffff"/>
   </g>
   <g id="PolyCollection_5">
    <defs>
     <path id="m1382cd6484" d="M 1069.827023 -268.791673 
L 1069.827023 -229.596317 
L 1074.660033 -220.558346 
L 1079.493043 -218.530458 
L 1084.326053 -217.158033 
L 1089.159063 -217.861686 
L 1093.992073 -220.765997 
L 1098.825083 -222.128003 
L 1103.658093 -223.731529 
L 1108.491103 -224.238874 
L 1113.324113 -216.502831 
L 1118.157123 -204.462102 
L 1122.990133 -196.909917 
L 1127.823143 -193.254482 
L 1132.656153 -190.912284 
L 1137.489163 -184.337798 
L 1142.322173 -177.551328 
L 1147.155183 -173.132672 
L 1151.988193 -170.989225 
L 1156.821203 -171.424168 
L 1161.654213 -170.355549 
L 1166.487223 -166.428858 
L 1171.320233 -168.801938 
L 1176.153243 -170.740031 
L 1180.986253 -171.27674 
L 1185.819263 -172.001124 
L 1190.652273 -168.108207 
L 1195.485283 -162.429745 
L 1200.318293 -159.93948 
L 1205.151303 -158.660112 
L 1209.984313 -158.344815 
L 1214.817323 -165.471427 
L 1219.650333 -178.72806 
L 1224.483343 -192.635817 
L 1224.483343 -215.137055 
L 1224.483343 -215.137055 
L 1219.650333 -201.511012 
L 1214.817323 -190.437586 
L 1209.984313 -182.891626 
L 1205.151303 -181.553494 
L 1200.318293 -180.970824 
L 1195.485283 -183.918405 
L 1190.652273 -191.973708 
L 1185.819263 -196.090706 
L 1180.986253 -192.642683 
L 1176.153243 -190.867517 
L 1171.320233 -190.450468 
L 1166.487223 -190.386137 
L 1161.654213 -195.606736 
L 1156.821203 -198.568879 
L 1151.988193 -199.386432 
L 1147.155183 -202.698863 
L 1142.322173 -208.449287 
L 1137.489163 -218.428529 
L 1132.656153 -228.337155 
L 1127.823143 -231.526713 
L 1122.990133 -235.759168 
L 1118.157123 -243.990689 
L 1113.324113 -255.249267 
L 1108.491103 -261.274499 
L 1103.658093 -260.805765 
L 1098.825083 -261.556183 
L 1093.992073 -261.070476 
L 1089.159063 -259.660094 
L 1084.326053 -259.313737 
L 1079.493043 -258.798641 
L 1074.660033 -260.005432 
L 1069.827023 -268.791673 
z
" style="stroke: #ff00ff; stroke-opacity: 0.1"/>
    </defs>
    <g clip-path="url(#p91e5f688eb)">
     <use xlink:href="#m1382cd6484" x="0" y="323.436915" style="fill: #ff00ff; fill-opacity: 0.1; stroke: #ff00ff; stroke-opacity: 0.1"/>
    </g>
   </g>
   <g id="matplotlib.axis_11">
    <g id="xtick_15">
     <g id="line2d_53">
      <g>
       <use xlink:href="#mc4463c0df0" x="1079.493043" y="210.24" style="stroke: #000000; stroke-width: 0.8"/>
      </g>
     </g>
     <g id="text_56">
      <text style="font: 10px 'Arial', sans-serif" transform="translate(1048.52729 251.86503) rotate(-45)">Sampling</text>
     </g>
    </g>
    <g id="xtick_16">
     <g id="line2d_54">
      <g>
       <use xlink:href="#mc4463c0df0" x="1209.984313" y="210.24" style="stroke: #000000; stroke-width: 0.8"/>
      </g>
     </g>
     <g id="text_57">
      <text style="font: 10px 'Arial', sans-serif" transform="translate(1129.194048 301.686227) rotate(-45)">Movement to Lateral Port</text>
     </g>
    </g>
    <g id="text_58">
     <text style="font: 10px 'Arial', sans-serif; text-anchor: middle" x="1147.155183" y="314.249415" transform="rotate(-0 1147.155183 314.249415)">Normalized Time</text>
    </g>
   </g>
   <g id="matplotlib.axis_12">
    <g id="ytick_22">
     <g id="line2d_55">
      <g>
       <use xlink:href="#m45562a9d27" x="1062.094207" y="183.704196" style="stroke: #000000; stroke-width: 0.8"/>
      </g>
     </g>
     <g id="text_59">
      <text style="font: 10px 'Arial', sans-serif; text-anchor: end" x="1055.094207" y="187.283102" transform="rotate(-0 1055.094207 187.283102)">−0.5</text>
     </g>
    </g>
    <g id="ytick_23">
     <g id="line2d_56">
      <g>
       <use xlink:href="#m45562a9d27" x="1062.094207" y="145.183586" style="stroke: #000000; stroke-width: 0.8"/>
      </g>
     </g>
     <g id="text_60">
      <text style="font: 10px 'Arial', sans-serif; text-anchor: end" x="1055.094207" y="148.762492" transform="rotate(-0 1055.094207 148.762492)">0.0</text>
     </g>
    </g>
    <g id="ytick_24">
     <g id="line2d_57">
      <g>
       <use xlink:href="#m45562a9d27" x="1062.094207" y="106.662976" style="stroke: #000000; stroke-width: 0.8"/>
      </g>
     </g>
     <g id="text_61">
      <text style="font: 10px 'Arial', sans-serif; text-anchor: end" x="1055.094207" y="110.241882" transform="rotate(-0 1055.094207 110.241882)">0.5</text>
     </g>
    </g>
    <g id="ytick_25">
     <g id="line2d_58">
      <g>
       <use xlink:href="#m45562a9d27" x="1062.094207" y="68.142366" style="stroke: #000000; stroke-width: 0.8"/>
      </g>
     </g>
     <g id="text_62">
      <text style="font: 10px 'Arial', sans-serif; text-anchor: end" x="1055.094207" y="71.721272" transform="rotate(-0 1055.094207 71.721272)">1.0</text>
     </g>
    </g>
    <g id="text_63">
     <text style="font: 10px 'Arial', sans-serif; text-anchor: middle" x="1029.248895" y="127.08" transform="rotate(-90 1029.248895 127.08)">Mean Activity</text>
    </g>
   </g>
   <g id="line2d_59">
    <path d="M 1069.827023 74.242922 
L 1074.660033 83.155025 
L 1079.493043 84.772365 
L 1084.326053 85.20103 
L 1089.159063 84.676025 
L 1093.992073 82.518678 
L 1098.825083 81.594824 
L 1103.658093 81.168267 
L 1108.491103 80.680228 
L 1113.324113 87.560866 
L 1118.157123 99.210518 
L 1122.990133 107.102372 
L 1127.823143 111.046318 
L 1132.656153 113.812196 
L 1137.489163 122.053751 
L 1142.322173 130.436607 
L 1147.155183 135.521147 
L 1151.988193 138.249086 
L 1156.821203 138.440392 
L 1161.654213 140.455771 
L 1166.487223 145.029417 
L 1171.320233 143.810712 
L 1176.153243 142.633141 
L 1180.986253 141.477203 
L 1185.819263 139.390999 
L 1190.652273 143.395957 
L 1195.485283 150.26284 
L 1200.318293 152.981762 
L 1205.151303 153.330112 
L 1209.984313 152.818695 
L 1214.817323 145.482408 
L 1219.650333 133.317378 
L 1224.483343 119.550479 
" clip-path="url(#p91e5f688eb)" style="fill: none; stroke: #ff00ff; stroke-width: 1.5; stroke-linecap: square"/>
   </g>
   <g id="line2d_60">
    <path d="M 1079.493043 210.24 
L 1079.493043 43.92 
" clip-path="url(#p91e5f688eb)" style="fill: none; stroke-dasharray: 5.55,2.4; stroke-dashoffset: 0; stroke: #808080; stroke-opacity: 0.7; stroke-width: 1.5"/>
   </g>
   <g id="line2d_61">
    <path d="M 1209.984313 210.24 
L 1209.984313 43.92 
" clip-path="url(#p91e5f688eb)" style="fill: none; stroke-dasharray: 5.55,2.4; stroke-dashoffset: 0; stroke: #808080; stroke-opacity: 0.7; stroke-width: 1.5"/>
   </g>
   <g id="text_64">
    <text style="font: 12px 'Arial', sans-serif; text-anchor: middle" x="1147.155183" y="37.92" transform="rotate(-0 1147.155183 37.92)">2 Correct Trials</text>
   </g>
   <g id="legend_6">
    <g id="patch_27">
     <path d="M 1094.557104 207.345 
L 1199.753262 207.345 
Q 1200.911262 207.345 1200.911262 206.187 
L 1200.911262 198.575864 
Q 1200.911262 197.417864 1199.753262 197.417864 
L 1094.557104 197.417864 
Q 1093.399104 197.417864 1093.399104 198.575864 
L 1093.399104 206.187 
Q 1093.399104 207.345 1094.557104 207.345 
z
" style="fill: #ffffff; opacity: 0.8; stroke: #cccccc; stroke-linejoin: miter"/>
    </g>
    <g id="line2d_62">
     <path d="M 1095.715104 201.851738 
L 1101.505104 201.851738 
L 1107.295104 201.851738 
" style="fill: none; stroke: #ff00ff; stroke-width: 1.5; stroke-linecap: square"/>
    </g>
    <g id="text_65">
     <text style="font: 5.79px 'Arial', sans-serif; text-anchor: start" x="1111.927104" y="203.878238" transform="rotate(-0 1111.927104 203.878238)">Pref - PrevCount=2 - #Trials=42.0</text>
    </g>
   </g>
  </g>
  <g id="axes_7">
   <g id="patch_28">
    <path d="M 1266.240549 210.24 
L 1436.3625 210.24 
L 1436.3625 43.92 
L 1266.240549 43.92 
z
" style="fill: #ffffff"/>
   </g>
   <g id="PolyCollection_6">
    <defs>
     <path id="m18dc4e0191" d="M 1273.973365 -246.233562 
L 1273.973365 -225.737969 
L 1278.806375 -230.513471 
L 1283.639385 -237.601021 
L 1288.472395 -243.652662 
L 1293.305405 -243.474042 
L 1298.138415 -242.481152 
L 1302.971425 -240.619793 
L 1307.804435 -235.745865 
L 1312.637445 -223.923623 
L 1317.470455 -213.564674 
L 1322.303465 -208.661789 
L 1327.136475 -204.996179 
L 1331.969484 -200.215825 
L 1336.802494 -196.648479 
L 1341.635504 -195.818998 
L 1346.468514 -194.86948 
L 1351.301524 -194.423509 
L 1356.134534 -194.102432 
L 1360.967544 -190.162165 
L 1365.800554 -184.306855 
L 1370.633564 -179.687109 
L 1375.466574 -170.741835 
L 1380.299584 -166.422375 
L 1385.132594 -170.072799 
L 1389.965604 -174.388558 
L 1394.798614 -177.007738 
L 1399.631624 -176.334559 
L 1404.464634 -171.854572 
L 1409.297644 -169.784175 
L 1414.130654 -171.052602 
L 1418.963664 -175.903975 
L 1423.796674 -183.028664 
L 1428.629684 -189.034302 
L 1428.629684 -203.475017 
L 1428.629684 -203.475017 
L 1423.796674 -196.320744 
L 1418.963664 -188.642181 
L 1414.130654 -183.661332 
L 1409.297644 -182.334712 
L 1404.464634 -184.442446 
L 1399.631624 -189.600245 
L 1394.798614 -191.706419 
L 1389.965604 -190.061221 
L 1385.132594 -185.157367 
L 1380.299584 -180.90077 
L 1375.466574 -185.149404 
L 1370.633564 -194.477665 
L 1365.800554 -199.273154 
L 1360.967544 -205.260649 
L 1356.134534 -210.371995 
L 1351.301524 -211.98964 
L 1346.468514 -212.800351 
L 1341.635504 -213.825333 
L 1336.802494 -215.305261 
L 1331.969484 -219.388687 
L 1327.136475 -225.264541 
L 1322.303465 -230.112115 
L 1317.470455 -236.593202 
L 1312.637445 -248.874416 
L 1307.804435 -262.238271 
L 1302.971425 -267.869863 
L 1298.138415 -269.843704 
L 1293.305405 -270.311134 
L 1288.472395 -269.558622 
L 1283.639385 -261.994665 
L 1278.806375 -252.958219 
L 1273.973365 -246.233562 
z
" style="stroke: #ff00ff; stroke-opacity: 0.1"/>
    </defs>
    <g clip-path="url(#p38619362e1)">
     <use xlink:href="#m18dc4e0191" x="0" y="323.436915" style="fill: #ff00ff; fill-opacity: 0.1; stroke: #ff00ff; stroke-opacity: 0.1"/>
    </g>
   </g>
   <g id="matplotlib.axis_13">
    <g id="xtick_17">
     <g id="line2d_63">
      <g>
       <use xlink:href="#mc4463c0df0" x="1283.639385" y="210.24" style="stroke: #000000; stroke-width: 0.8"/>
      </g>
     </g>
     <g id="text_66">
      <text style="font: 10px 'Arial', sans-serif" transform="translate(1252.673632 251.86503) rotate(-45)">Sampling</text>
     </g>
    </g>
    <g id="xtick_18">
     <g id="line2d_64">
      <g>
       <use xlink:href="#mc4463c0df0" x="1414.130654" y="210.24" style="stroke: #000000; stroke-width: 0.8"/>
      </g>
     </g>
     <g id="text_67">
      <text style="font: 10px 'Arial', sans-serif" transform="translate(1333.34039 301.686227) rotate(-45)">Movement to Lateral Port</text>
     </g>
    </g>
    <g id="text_68">
     <text style="font: 10px 'Arial', sans-serif; text-anchor: middle" x="1351.301524" y="314.249415" transform="rotate(-0 1351.301524 314.249415)">Normalized Time</text>
    </g>
   </g>
   <g id="matplotlib.axis_14">
    <g id="ytick_26">
     <g id="line2d_65">
      <g>
       <use xlink:href="#m45562a9d27" x="1266.240549" y="183.704196" style="stroke: #000000; stroke-width: 0.8"/>
      </g>
     </g>
     <g id="text_69">
      <text style="font: 10px 'Arial', sans-serif; text-anchor: end" x="1259.240549" y="187.283102" transform="rotate(-0 1259.240549 187.283102)">−0.5</text>
     </g>
    </g>
    <g id="ytick_27">
     <g id="line2d_66">
      <g>
       <use xlink:href="#m45562a9d27" x="1266.240549" y="145.183586" style="stroke: #000000; stroke-width: 0.8"/>
      </g>
     </g>
     <g id="text_70">
      <text style="font: 10px 'Arial', sans-serif; text-anchor: end" x="1259.240549" y="148.762492" transform="rotate(-0 1259.240549 148.762492)">0.0</text>
     </g>
    </g>
    <g id="ytick_28">
     <g id="line2d_67">
      <g>
       <use xlink:href="#m45562a9d27" x="1266.240549" y="106.662976" style="stroke: #000000; stroke-width: 0.8"/>
      </g>
     </g>
     <g id="text_71">
      <text style="font: 10px 'Arial', sans-serif; text-anchor: end" x="1259.240549" y="110.241882" transform="rotate(-0 1259.240549 110.241882)">0.5</text>
     </g>
    </g>
    <g id="ytick_29">
     <g id="line2d_68">
      <g>
       <use xlink:href="#m45562a9d27" x="1266.240549" y="68.142366" style="stroke: #000000; stroke-width: 0.8"/>
      </g>
     </g>
     <g id="text_72">
      <text style="font: 10px 'Arial', sans-serif; text-anchor: end" x="1259.240549" y="71.721272" transform="rotate(-0 1259.240549 71.721272)">1.0</text>
     </g>
    </g>
    <g id="text_73">
     <text style="font: 10px 'Arial', sans-serif; text-anchor: middle" x="1233.395236" y="127.08" transform="rotate(-90 1233.395236 127.08)">Mean Activity</text>
    </g>
   </g>
   <g id="line2d_69">
    <path d="M 1273.973365 87.451149 
L 1278.806375 81.70107 
L 1283.639385 73.639072 
L 1288.472395 66.831272 
L 1293.305405 66.544327 
L 1298.138415 67.274485 
L 1302.971425 69.192087 
L 1307.804435 74.444846 
L 1312.637445 87.037895 
L 1317.470455 98.357978 
L 1322.303465 104.049964 
L 1327.136475 108.306554 
L 1331.969484 113.63466 
L 1336.802494 117.460044 
L 1341.635504 118.61475 
L 1346.468514 119.601999 
L 1351.301524 120.23034 
L 1356.134534 121.199701 
L 1360.967544 125.725507 
L 1365.800554 131.64691 
L 1370.633564 136.354528 
L 1375.466574 145.491295 
L 1380.299584 149.775342 
L 1385.132594 145.821831 
L 1389.965604 141.212025 
L 1394.798614 139.079836 
L 1399.631624 140.469512 
L 1404.464634 145.288406 
L 1409.297644 147.377472 
L 1414.130654 146.079948 
L 1418.963664 141.163836 
L 1423.796674 133.76221 
L 1428.629684 127.182255 
" clip-path="url(#p38619362e1)" style="fill: none; stroke: #ff00ff; stroke-width: 1.5; stroke-linecap: square"/>
   </g>
   <g id="line2d_70">
    <path d="M 1283.639385 210.24 
L 1283.639385 43.92 
" clip-path="url(#p38619362e1)" style="fill: none; stroke-dasharray: 5.55,2.4; stroke-dashoffset: 0; stroke: #808080; stroke-opacity: 0.7; stroke-width: 1.5"/>
   </g>
   <g id="line2d_71">
    <path d="M 1414.130654 210.24 
L 1414.130654 43.92 
" clip-path="url(#p38619362e1)" style="fill: none; stroke-dasharray: 5.55,2.4; stroke-dashoffset: 0; stroke: #808080; stroke-opacity: 0.7; stroke-width: 1.5"/>
   </g>
   <g id="text_74">
    <text style="font: 12px 'Arial', sans-serif; text-anchor: middle" x="1351.301524" y="37.92" transform="rotate(-0 1351.301524 37.92)">3 Correct Trials</text>
   </g>
   <g id="legend_7">
    <g id="patch_29">
     <path d="M 1297.30706 207.345 
L 1405.295988 207.345 
Q 1406.453988 207.345 1406.453988 206.187 
L 1406.453988 198.575864 
Q 1406.453988 197.417864 1405.295988 197.417864 
L 1297.30706 197.417864 
Q 1296.14906 197.417864 1296.14906 198.575864 
L 1296.14906 206.187 
Q 1296.14906 207.345 1297.30706 207.345 
z
" style="fill: #ffffff; opacity: 0.8; stroke: #cccccc; stroke-linejoin: miter"/>
    </g>
    <g id="line2d_72">
     <path d="M 1298.46506 201.851738 
L 1304.25506 201.851738 
L 1310.04506 201.851738 
" style="fill: none; stroke: #ff00ff; stroke-width: 1.5; stroke-linecap: square"/>
    </g>
    <g id="text_75">
     <text style="font: 5.79px 'Arial', sans-serif; text-anchor: start" x="1314.67706" y="203.878238" transform="rotate(-0 1314.67706 203.878238)">Pref - PrevCount=3 - #Trials=116.0</text>
    </g>
   </g>
  </g>
  <g id="text_76">
   <text style="font: 12px 'Arial', sans-serif; text-anchor: middle" x="716.3625" y="15.935625" transform="rotate(-0 716.3625 15.935625)">Balance Change - ALM - GP4_23_s8_L50_D250_ALM_213 - PrevChoiceCorrect</text>
  </g>
 </g>
 <defs>
  <clipPath id="pcda389212d">
   <rect x="41.3625" y="43.92" width="170.121951" height="166.32"/>
  </clipPath>
  <clipPath id="pa4f10b30d8">
   <rect x="245.508841" y="43.92" width="170.121951" height="166.32"/>
  </clipPath>
  <clipPath id="pf757bf42f9">
   <rect x="449.655183" y="43.92" width="170.121951" height="166.32"/>
  </clipPath>
  <clipPath id="p741f7ef202">
   <rect x="653.801524" y="43.92" width="170.121951" height="166.32"/>
  </clipPath>
  <clipPath id="pe164320991">
   <rect x="857.947866" y="43.92" width="170.121951" height="166.32"/>
  </clipPath>
  <clipPath id="p91e5f688eb">
   <rect x="1062.094207" y="43.92" width="170.121951" height="166.32"/>
  </clipPath>
  <clipPath id="p38619362e1">
   <rect x="1266.240549" y="43.92" width="170.121951" height="166.32"/>
  </clipPath>
 </defs>
</svg>
