<?xml version="1.0" encoding="utf-8" standalone="no"?>
<!DOCTYPE svg PUBLIC "-//W3C//DTD SVG 1.1//EN"
  "http://www.w3.org/Graphics/SVG/1.1/DTD/svg11.dtd">
<svg xmlns:xlink="http://www.w3.org/1999/xlink" width="1443.5625pt" height="323.436915pt" viewBox="0 0 1443.5625 323.436915" xmlns="http://www.w3.org/2000/svg" version="1.1">
 <metadata>
  <rdf:RDF xmlns:dc="http://purl.org/dc/elements/1.1/" xmlns:cc="http://creativecommons.org/ns#" xmlns:rdf="http://www.w3.org/1999/02/22-rdf-syntax-ns#">
   <cc:Work>
    <dc:type rdf:resource="http://purl.org/dc/dcmitype/StillImage"/>
    <dc:date>2025-12-27T14:02:51.103617</dc:date>
    <dc:format>image/svg+xml</dc:format>
    <dc:creator>
     <cc:Agent>
      <dc:title>Matplotlib v3.8.0, https://matplotlib.org/</dc:title>
     </cc:Agent>
    </dc:creator>
   </cc:Work>
  </rdf:RDF>
 </metadata>
 <defs>
  <style type="text/css">*{stroke-linejoin: round; stroke-linecap: butt}</style>
 </defs>
 <g id="figure_1">
  <g id="patch_1">
   <path d="M 0 323.436915 
L 1443.5625 323.436915 
L 1443.5625 0 
L 0 0 
z
" style="fill: #ffffff"/>
  </g>
  <g id="axes_1">
   <g id="patch_2">
    <path d="M 41.3625 210.24 
L 211.484451 210.24 
L 211.484451 43.92 
L 41.3625 43.92 
z
" style="fill: #ffffff"/>
   </g>
   <g id="patch_3">
    <path d="M 49.095316 200.280591 
L 58.192747 200.280591 
L 58.192747 196.986024 
L 49.095316 196.986024 
z
" clip-path="url(#p50a79c86e6)" style="fill: #808080"/>
   </g>
   <g id="patch_4">
    <path d="M 0 0 
z
" clip-path="url(#p50a79c86e6)" style="fill: #808080"/>
   </g>
   <g id="patch_5">
    <path d="M 94.582469 200.280591 
L 103.679899 200.280591 
L 103.679899 179.507177 
L 94.582469 179.507177 
z
" clip-path="url(#p50a79c86e6)" style="fill: #808080"/>
   </g>
   <g id="patch_6">
    <path d="M 140.069621 200.280591 
L 149.167052 200.280591 
L 149.167052 129.599513 
L 140.069621 129.599513 
z
" clip-path="url(#p50a79c86e6)" style="fill: #808080"/>
   </g>
   <g id="patch_7">
    <path d="M 162.813198 200.280591 
L 171.910628 200.280591 
L 171.910628 80.725455 
L 162.813198 80.725455 
z
" clip-path="url(#p50a79c86e6)" style="fill: #808080"/>
   </g>
   <g id="patch_8">
    <path d="M 185.556774 200.280591 
L 194.654205 200.280591 
L 194.654205 72.92372 
L 185.556774 72.92372 
z
" clip-path="url(#p50a79c86e6)" style="fill: #808080"/>
   </g>
   <g id="patch_9">
    <path d="M 58.192747 200.280591 
L 67.290177 200.280591 
L 67.290177 178.065045 
L 58.192747 178.065045 
z
" clip-path="url(#p50a79c86e6)" style="fill: #a9a9a9"/>
   </g>
   <g id="patch_10">
    <path d="M 80.936323 200.280591 
L 90.033753 200.280591 
L 90.033753 165.871781 
L 80.936323 165.871781 
z
" clip-path="url(#p50a79c86e6)" style="fill: #a9a9a9"/>
   </g>
   <g id="patch_11">
    <path d="M 103.679899 200.280591 
L 112.77733 200.280591 
L 112.77733 161.451039 
L 103.679899 161.451039 
z
" clip-path="url(#p50a79c86e6)" style="fill: #a9a9a9"/>
   </g>
   <g id="patch_12">
    <path d="M 149.167052 200.280591 
L 158.264483 200.280591 
L 158.264483 79.883789 
L 149.167052 79.883789 
z
" clip-path="url(#p50a79c86e6)" style="fill: #a9a9a9"/>
   </g>
   <g id="patch_13">
    <path d="M 171.910628 200.280591 
L 181.008059 200.280591 
L 181.008059 110.915578 
L 171.910628 110.915578 
z
" clip-path="url(#p50a79c86e6)" style="fill: #a9a9a9"/>
   </g>
   <g id="patch_14">
    <path d="M 194.654205 200.280591 
L 203.751635 200.280591 
L 203.751635 113.546865 
L 194.654205 113.546865 
z
" clip-path="url(#p50a79c86e6)" style="fill: #a9a9a9"/>
   </g>
   <g id="matplotlib.axis_1">
    <g id="xtick_1">
     <g id="line2d_1">
      <defs>
       <path id="m7065d7f73e" d="M 0 0 
L 0 3.5 
" style="stroke: #000000; stroke-width: 0.8"/>
      </defs>
      <g>
       <use xlink:href="#m7065d7f73e" x="58.192747" y="210.24" style="stroke: #000000; stroke-width: 0.8"/>
      </g>
     </g>
     <g id="text_1">
      <text style="font: 10px 'Arial', sans-serif; text-anchor: middle" x="58.192747" y="224.397813" transform="rotate(-0 58.192747 224.397813)">−3</text>
     </g>
    </g>
    <g id="xtick_2">
     <g id="line2d_2">
      <g>
       <use xlink:href="#m7065d7f73e" x="80.936323" y="210.24" style="stroke: #000000; stroke-width: 0.8"/>
      </g>
     </g>
     <g id="text_2">
      <text style="font: 10px 'Arial', sans-serif; text-anchor: middle" x="80.936323" y="224.397813" transform="rotate(-0 80.936323 224.397813)">−2</text>
     </g>
    </g>
    <g id="xtick_3">
     <g id="line2d_3">
      <g>
       <use xlink:href="#m7065d7f73e" x="103.679899" y="210.24" style="stroke: #000000; stroke-width: 0.8"/>
      </g>
     </g>
     <g id="text_3">
      <text style="font: 10px 'Arial', sans-serif; text-anchor: middle" x="103.679899" y="224.397813" transform="rotate(-0 103.679899 224.397813)">−1</text>
     </g>
    </g>
    <g id="xtick_4">
     <g id="line2d_4">
      <g>
       <use xlink:href="#m7065d7f73e" x="149.167052" y="210.24" style="stroke: #000000; stroke-width: 0.8"/>
      </g>
     </g>
     <g id="text_4">
      <text style="font: 10px 'Arial', sans-serif; text-anchor: middle" x="149.167052" y="224.397813" transform="rotate(-0 149.167052 224.397813)">1</text>
     </g>
    </g>
    <g id="xtick_5">
     <g id="line2d_5">
      <g>
       <use xlink:href="#m7065d7f73e" x="171.910628" y="210.24" style="stroke: #000000; stroke-width: 0.8"/>
      </g>
     </g>
     <g id="text_5">
      <text style="font: 10px 'Arial', sans-serif; text-anchor: middle" x="171.910628" y="224.397813" transform="rotate(-0 171.910628 224.397813)">2</text>
     </g>
    </g>
    <g id="xtick_6">
     <g id="line2d_6">
      <g>
       <use xlink:href="#m7065d7f73e" x="194.654205" y="210.24" style="stroke: #000000; stroke-width: 0.8"/>
      </g>
     </g>
     <g id="text_6">
      <text style="font: 10px 'Arial', sans-serif; text-anchor: middle" x="194.654205" y="224.397813" transform="rotate(-0 194.654205 224.397813)">3</text>
     </g>
    </g>
    <g id="text_7">
     <text style="font: 10px 'Arial', sans-serif; text-anchor: middle" x="126.423476" y="237.543125" transform="rotate(-0 126.423476 237.543125)">PrevOutcomeCount</text>
    </g>
   </g>
   <g id="matplotlib.axis_2">
    <g id="ytick_1">
     <g id="line2d_7">
      <defs>
       <path id="m8483367656" d="M 0 0 
L -3.5 0 
" style="stroke: #000000; stroke-width: 0.8"/>
      </defs>
      <g>
       <use xlink:href="#m8483367656" x="41.3625" y="200.280591" style="stroke: #000000; stroke-width: 0.8"/>
      </g>
     </g>
     <g id="text_8">
      <text style="font: 10px 'Arial', sans-serif; text-anchor: end" x="34.3625" y="203.859497" transform="rotate(-0 34.3625 203.859497)">0.0</text>
     </g>
    </g>
    <g id="ytick_2">
     <g id="line2d_8">
      <g>
       <use xlink:href="#m8483367656" x="41.3625" y="171.995501" style="stroke: #000000; stroke-width: 0.8"/>
      </g>
     </g>
     <g id="text_9">
      <text style="font: 10px 'Arial', sans-serif; text-anchor: end" x="34.3625" y="175.574407" transform="rotate(-0 34.3625 175.574407)">0.5</text>
     </g>
    </g>
    <g id="ytick_3">
     <g id="line2d_9">
      <g>
       <use xlink:href="#m8483367656" x="41.3625" y="143.71041" style="stroke: #000000; stroke-width: 0.8"/>
      </g>
     </g>
     <g id="text_10">
      <text style="font: 10px 'Arial', sans-serif; text-anchor: end" x="34.3625" y="147.289317" transform="rotate(-0 34.3625 147.289317)">1.0</text>
     </g>
    </g>
    <g id="ytick_4">
     <g id="line2d_10">
      <g>
       <use xlink:href="#m8483367656" x="41.3625" y="115.42532" style="stroke: #000000; stroke-width: 0.8"/>
      </g>
     </g>
     <g id="text_11">
      <text style="font: 10px 'Arial', sans-serif; text-anchor: end" x="34.3625" y="119.004226" transform="rotate(-0 34.3625 119.004226)">1.5</text>
     </g>
    </g>
    <g id="ytick_5">
     <g id="line2d_11">
      <g>
       <use xlink:href="#m8483367656" x="41.3625" y="87.14023" style="stroke: #000000; stroke-width: 0.8"/>
      </g>
     </g>
     <g id="text_12">
      <text style="font: 10px 'Arial', sans-serif; text-anchor: end" x="34.3625" y="90.719136" transform="rotate(-0 34.3625 90.719136)">2.0</text>
     </g>
    </g>
    <g id="ytick_6">
     <g id="line2d_12">
      <g>
       <use xlink:href="#m8483367656" x="41.3625" y="58.855139" style="stroke: #000000; stroke-width: 0.8"/>
      </g>
     </g>
     <g id="text_13">
      <text style="font: 10px 'Arial', sans-serif; text-anchor: end" x="34.3625" y="62.434046" transform="rotate(-0 34.3625 62.434046)">2.5</text>
     </g>
    </g>
    <g id="text_14">
     <text style="font: 10px 'Arial', sans-serif; text-anchor: middle" x="14.357813" y="127.08" transform="rotate(-90 14.357813 127.08)">Max Activity</text>
    </g>
   </g>
   <g id="LineCollection_1">
    <path d="M 53.644031 202.68 
L 53.644031 191.292048 
" clip-path="url(#p50a79c86e6)" style="fill: none; stroke: #000000; stroke-width: 1.5"/>
    <path clip-path="url(#p50a79c86e6)" style="fill: none; stroke: #000000; stroke-width: 1.5"/>
    <path d="M 99.131184 189.322661 
L 99.131184 169.691693 
" clip-path="url(#p50a79c86e6)" style="fill: none; stroke: #000000; stroke-width: 1.5"/>
    <path d="M 144.618337 151.850143 
L 144.618337 107.348884 
" clip-path="url(#p50a79c86e6)" style="fill: none; stroke: #000000; stroke-width: 1.5"/>
    <path d="M 167.361913 99.912259 
L 167.361913 61.538652 
" clip-path="url(#p50a79c86e6)" style="fill: none; stroke: #000000; stroke-width: 1.5"/>
    <path d="M 190.105489 92.165431 
L 190.105489 53.682008 
" clip-path="url(#p50a79c86e6)" style="fill: none; stroke: #000000; stroke-width: 1.5"/>
   </g>
   <g id="LineCollection_2">
    <path d="M 62.741462 181.429952 
L 62.741462 174.700138 
" clip-path="url(#p50a79c86e6)" style="fill: none; stroke: #000000; stroke-width: 1.5"/>
    <path d="M 85.485038 179.030425 
L 85.485038 152.713137 
" clip-path="url(#p50a79c86e6)" style="fill: none; stroke: #000000; stroke-width: 1.5"/>
    <path d="M 108.228615 176.286257 
L 108.228615 146.61582 
" clip-path="url(#p50a79c86e6)" style="fill: none; stroke: #000000; stroke-width: 1.5"/>
    <path d="M 153.715767 108.287578 
L 153.715767 51.48 
" clip-path="url(#p50a79c86e6)" style="fill: none; stroke: #000000; stroke-width: 1.5"/>
    <path d="M 176.459344 133.224262 
L 176.459344 88.606894 
" clip-path="url(#p50a79c86e6)" style="fill: none; stroke: #000000; stroke-width: 1.5"/>
    <path d="M 199.20292 125.570307 
L 199.20292 101.523423 
" clip-path="url(#p50a79c86e6)" style="fill: none; stroke: #000000; stroke-width: 1.5"/>
   </g>
   <g id="line2d_13">
    <path d="M 41.3625 200.280591 
L 211.484451 200.280591 
" clip-path="url(#p50a79c86e6)" style="fill: none; stroke-dasharray: 5.55,2.4; stroke-dashoffset: 0; stroke: #808080; stroke-width: 1.5"/>
   </g>
   <g id="legend_1">
    <g id="patch_15">
     <path d="M 48.3625 80.210625 
L 120.375 80.210625 
Q 122.375 80.210625 122.375 78.210625 
L 122.375 50.92 
Q 122.375 48.92 120.375 48.92 
L 48.3625 48.92 
Q 46.3625 48.92 46.3625 50.92 
L 46.3625 78.210625 
Q 46.3625 80.210625 48.3625 80.210625 
z
" style="fill: #ffffff; opacity: 0.8; stroke: #cccccc; stroke-linejoin: miter"/>
    </g>
    <g id="patch_16">
     <path d="M 50.3625 60.077812 
L 70.3625 60.077812 
L 70.3625 53.077812 
L 50.3625 53.077812 
z
" style="fill: #808080"/>
    </g>
    <g id="text_15">
     <text style="font: 10px 'Arial', sans-serif; text-anchor: start" x="78.3625" y="60.077812" transform="rotate(-0 78.3625 60.077812)">Pref</text>
    </g>
    <g id="patch_17">
     <path d="M 50.3625 74.223125 
L 70.3625 74.223125 
L 70.3625 67.223125 
L 50.3625 67.223125 
z
" style="fill: #a9a9a9"/>
    </g>
    <g id="text_16">
     <text style="font: 10px 'Arial', sans-serif; text-anchor: start" x="78.3625" y="74.223125" transform="rotate(-0 78.3625 74.223125)">Non-Pref</text>
    </g>
   </g>
  </g>
  <g id="axes_2">
   <g id="patch_18">
    <path d="M 245.508841 210.24 
L 415.630793 210.24 
L 415.630793 43.92 
L 245.508841 43.92 
z
" style="fill: #ffffff"/>
   </g>
   <g id="PolyCollection_1">
    <defs>
     <path id="m9aeff08e35" d="M 253.241657 -150.400363 
L 253.241657 -145.481063 
L 258.074667 -146.229694 
L 262.907677 -140.704941 
L 267.740687 -141.400347 
L 272.573697 -140.092465 
L 277.406707 -137.044016 
L 282.239717 -135.42027 
L 287.072727 -138.760016 
L 291.905737 -124.798191 
L 296.738747 -128.903407 
L 301.571757 -138.246273 
L 306.404767 -127.120232 
L 311.237777 -127.232044 
L 316.070787 -127.232714 
L 320.903797 -124.623855 
L 325.736807 -117.590914 
L 330.569817 -122.487023 
L 335.402827 -120.517356 
L 340.235837 -117.737611 
L 345.068847 -122.990355 
L 349.901857 -130.697811 
L 354.734867 -133.860762 
L 359.567877 -133.874993 
L 364.400887 -133.071418 
L 369.233897 -130.559065 
L 374.066907 -128.28176 
L 378.899917 -132.032679 
L 383.732927 -135.277062 
L 388.565937 -125.995244 
L 393.398947 -132.961441 
L 398.231957 -143.215086 
L 403.064967 -142.917371 
L 407.897977 -145.146437 
L 407.897977 -145.201193 
L 407.897977 -145.201193 
L 403.064967 -143.41031 
L 398.231957 -152.15526 
L 393.398947 -159.616948 
L 388.565937 -152.88891 
L 383.732927 -141.957047 
L 378.899917 -168.700898 
L 374.066907 -168.460504 
L 369.233897 -152.033791 
L 364.400887 -156.06855 
L 359.567877 -160.527784 
L 354.734867 -160.277253 
L 349.901857 -159.744084 
L 345.068847 -140.462604 
L 340.235837 -135.370644 
L 335.402827 -141.58408 
L 330.569817 -128.530508 
L 325.736807 -130.024853 
L 320.903797 -135.811349 
L 316.070787 -151.696456 
L 311.237777 -151.329197 
L 306.404767 -146.050336 
L 301.571757 -141.756564 
L 296.738747 -151.48141 
L 291.905737 -151.463823 
L 287.072727 -141.303338 
L 282.239717 -152.124323 
L 277.406707 -152.7364 
L 272.573697 -149.864196 
L 267.740687 -146.985643 
L 262.907677 -145.988059 
L 258.074667 -152.473552 
L 253.241657 -150.400363 
z
" style="stroke: #808080; stroke-opacity: 0.1"/>
    </defs>
    <g clip-path="url(#pc36a6141a4)">
     <use xlink:href="#m9aeff08e35" x="0" y="323.436915" style="fill: #808080; fill-opacity: 0.1; stroke: #808080; stroke-opacity: 0.1"/>
    </g>
   </g>
   <g id="PolyCollection_2">
    <defs>
     <path id="m99870958ab" d="M 253.241657 -157.358004 
L 253.241657 -143.786611 
L 258.074667 -147.31858 
L 262.907677 -146.750239 
L 267.740687 -147.548653 
L 272.573697 -147.707408 
L 277.406707 -149.929991 
L 282.239717 -150.492363 
L 287.072727 -147.25243 
L 291.905737 -144.89146 
L 296.738747 -148.636293 
L 301.571757 -147.303453 
L 306.404767 -143.820977 
L 311.237777 -141.640149 
L 316.070787 -139.742288 
L 320.903797 -143.5115 
L 325.736807 -137.966686 
L 330.569817 -132.030094 
L 335.402827 -130.87216 
L 340.235837 -129.841279 
L 345.068847 -128.991902 
L 349.901857 -129.078928 
L 354.734867 -131.960268 
L 359.567877 -143.270991 
L 364.400887 -157.498496 
L 369.233897 -154.857057 
L 374.066907 -152.233654 
L 378.899917 -152.628761 
L 383.732927 -154.357902 
L 388.565937 -146.765499 
L 393.398947 -141.466861 
L 398.231957 -132.760056 
L 403.064967 -134.423559 
L 407.897977 -138.796337 
L 407.897977 -181.93594 
L 407.897977 -181.93594 
L 403.064967 -176.060962 
L 398.231957 -166.985854 
L 393.398947 -158.419503 
L 388.565937 -158.14873 
L 383.732927 -159.641103 
L 378.899917 -172.572803 
L 374.066907 -176.567698 
L 369.233897 -172.618765 
L 364.400887 -158.91028 
L 359.567877 -164.032252 
L 354.734867 -169.510473 
L 349.901857 -169.717738 
L 345.068847 -168.779139 
L 340.235837 -165.176795 
L 335.402827 -161.254798 
L 330.569817 -154.646596 
L 325.736807 -148.018472 
L 320.903797 -143.538724 
L 316.070787 -148.496635 
L 311.237777 -152.460599 
L 306.404767 -154.729243 
L 301.571757 -152.199277 
L 296.738747 -150.382063 
L 291.905737 -152.249072 
L 287.072727 -153.063835 
L 282.239717 -151.657185 
L 277.406707 -154.721131 
L 272.573697 -157.086596 
L 267.740687 -157.958312 
L 262.907677 -156.936537 
L 258.074667 -149.74218 
L 253.241657 -157.358004 
z
" style="stroke: #a9a9a9; stroke-opacity: 0.1"/>
    </defs>
    <g clip-path="url(#pc36a6141a4)">
     <use xlink:href="#m99870958ab" x="0" y="323.436915" style="fill: #a9a9a9; fill-opacity: 0.1; stroke: #a9a9a9; stroke-opacity: 0.1"/>
    </g>
   </g>
   <g id="matplotlib.axis_3">
    <g id="xtick_7">
     <g id="line2d_14">
      <g>
       <use xlink:href="#m7065d7f73e" x="262.907677" y="210.24" style="stroke: #000000; stroke-width: 0.8"/>
      </g>
     </g>
     <g id="text_17">
      <text style="font: 10px 'Arial', sans-serif" transform="translate(231.941925 251.86503) rotate(-45)">Sampling</text>
     </g>
    </g>
    <g id="xtick_8">
     <g id="line2d_15">
      <g>
       <use xlink:href="#m7065d7f73e" x="393.398947" y="210.24" style="stroke: #000000; stroke-width: 0.8"/>
      </g>
     </g>
     <g id="text_18">
      <text style="font: 10px 'Arial', sans-serif" transform="translate(312.608682 301.686227) rotate(-45)">Movement to Lateral Port</text>
     </g>
    </g>
    <g id="text_19">
     <text style="font: 10px 'Arial', sans-serif; text-anchor: middle" x="330.569817" y="314.249415" transform="rotate(-0 330.569817 314.249415)">Normalized Time</text>
    </g>
   </g>
   <g id="matplotlib.axis_4">
    <g id="ytick_7">
     <g id="line2d_16">
      <g>
       <use xlink:href="#m8483367656" x="245.508841" y="207.030939" style="stroke: #000000; stroke-width: 0.8"/>
      </g>
     </g>
     <g id="text_20">
      <text style="font: 10px 'Arial', sans-serif; text-anchor: end" x="238.508841" y="210.609845" transform="rotate(-0 238.508841 210.609845)">−1.0</text>
     </g>
    </g>
    <g id="ytick_8">
     <g id="line2d_17">
      <g>
       <use xlink:href="#m8483367656" x="245.508841" y="184.468472" style="stroke: #000000; stroke-width: 0.8"/>
      </g>
     </g>
     <g id="text_21">
      <text style="font: 10px 'Arial', sans-serif; text-anchor: end" x="238.508841" y="188.047378" transform="rotate(-0 238.508841 188.047378)">−0.5</text>
     </g>
    </g>
    <g id="ytick_9">
     <g id="line2d_18">
      <g>
       <use xlink:href="#m8483367656" x="245.508841" y="161.906005" style="stroke: #000000; stroke-width: 0.8"/>
      </g>
     </g>
     <g id="text_22">
      <text style="font: 10px 'Arial', sans-serif; text-anchor: end" x="238.508841" y="165.484911" transform="rotate(-0 238.508841 165.484911)">0.0</text>
     </g>
    </g>
    <g id="ytick_10">
     <g id="line2d_19">
      <g>
       <use xlink:href="#m8483367656" x="245.508841" y="139.343538" style="stroke: #000000; stroke-width: 0.8"/>
      </g>
     </g>
     <g id="text_23">
      <text style="font: 10px 'Arial', sans-serif; text-anchor: end" x="238.508841" y="142.922444" transform="rotate(-0 238.508841 142.922444)">0.5</text>
     </g>
    </g>
    <g id="ytick_11">
     <g id="line2d_20">
      <g>
       <use xlink:href="#m8483367656" x="245.508841" y="116.78107" style="stroke: #000000; stroke-width: 0.8"/>
      </g>
     </g>
     <g id="text_24">
      <text style="font: 10px 'Arial', sans-serif; text-anchor: end" x="238.508841" y="120.359977" transform="rotate(-0 238.508841 120.359977)">1.0</text>
     </g>
    </g>
    <g id="ytick_12">
     <g id="line2d_21">
      <g>
       <use xlink:href="#m8483367656" x="245.508841" y="94.218603" style="stroke: #000000; stroke-width: 0.8"/>
      </g>
     </g>
     <g id="text_25">
      <text style="font: 10px 'Arial', sans-serif; text-anchor: end" x="238.508841" y="97.797509" transform="rotate(-0 238.508841 97.797509)">1.5</text>
     </g>
    </g>
    <g id="ytick_13">
     <g id="line2d_22">
      <g>
       <use xlink:href="#m8483367656" x="245.508841" y="71.656136" style="stroke: #000000; stroke-width: 0.8"/>
      </g>
     </g>
     <g id="text_26">
      <text style="font: 10px 'Arial', sans-serif; text-anchor: end" x="238.508841" y="75.235042" transform="rotate(-0 238.508841 75.235042)">2.0</text>
     </g>
    </g>
    <g id="ytick_14">
     <g id="line2d_23">
      <g>
       <use xlink:href="#m8483367656" x="245.508841" y="49.093669" style="stroke: #000000; stroke-width: 0.8"/>
      </g>
     </g>
     <g id="text_27">
      <text style="font: 10px 'Arial', sans-serif; text-anchor: end" x="238.508841" y="52.672575" transform="rotate(-0 238.508841 52.672575)">2.5</text>
     </g>
    </g>
    <g id="text_28">
     <text style="font: 10px 'Arial', sans-serif; text-anchor: middle" x="212.663529" y="127.08" transform="rotate(-90 212.663529 127.08)">Mean Activity</text>
    </g>
   </g>
   <g id="line2d_24">
    <path d="M 253.241657 175.496201 
L 258.074667 174.085291 
L 262.907677 180.090414 
L 267.740687 179.243919 
L 272.573697 178.458584 
L 277.406707 178.546707 
L 282.239717 179.664618 
L 287.072727 183.405237 
L 291.905737 185.305907 
L 296.738747 183.244506 
L 301.571757 183.435496 
L 306.404767 186.85163 
L 311.237777 184.156294 
L 316.070787 183.97233 
L 320.903797 193.219312 
L 325.736807 199.629031 
L 330.569817 197.928149 
L 335.402827 192.386197 
L 340.235837 196.882787 
L 345.068847 191.710434 
L 349.901857 178.215968 
L 354.734867 176.367907 
L 359.567877 176.235526 
L 364.400887 178.86693 
L 369.233897 182.140486 
L 374.066907 175.065783 
L 378.899917 173.070126 
L 383.732927 184.819859 
L 388.565937 183.994838 
L 393.398947 177.14772 
L 398.231957 175.751742 
L 403.064967 180.273074 
L 407.897977 178.2631 
" clip-path="url(#pc36a6141a4)" style="fill: none; stroke: #808080; stroke-width: 1.5; stroke-linecap: square"/>
   </g>
   <g id="line2d_25">
    <path d="M 253.241657 172.864607 
L 258.074667 174.906535 
L 262.907677 171.593526 
L 267.740687 170.683432 
L 272.573697 171.039913 
L 277.406707 171.111354 
L 282.239717 172.362141 
L 287.072727 173.278782 
L 291.905737 174.866649 
L 296.738747 173.927737 
L 301.571757 173.685549 
L 306.404767 174.161804 
L 311.237777 176.386541 
L 316.070787 179.317453 
L 320.903797 179.911802 
L 325.736807 180.444335 
L 330.569817 180.098569 
L 335.402827 177.373436 
L 340.235837 175.927878 
L 345.068847 174.551394 
L 349.901857 174.038582 
L 354.734867 172.701544 
L 359.567877 169.785293 
L 364.400887 165.232526 
L 369.233897 159.699004 
L 374.066907 159.036239 
L 378.899917 160.836132 
L 383.732927 166.437412 
L 388.565937 170.9798 
L 393.398947 173.493733 
L 398.231957 173.56396 
L 403.064967 168.194654 
L 407.897977 163.070776 
" clip-path="url(#pc36a6141a4)" style="fill: none; stroke: #a9a9a9; stroke-width: 1.5; stroke-linecap: square"/>
   </g>
   <g id="line2d_26">
    <path d="M 262.907677 210.24 
L 262.907677 43.92 
" clip-path="url(#pc36a6141a4)" style="fill: none; stroke-dasharray: 5.55,2.4; stroke-dashoffset: 0; stroke: #808080; stroke-opacity: 0.7; stroke-width: 1.5"/>
   </g>
   <g id="line2d_27">
    <path d="M 393.398947 210.24 
L 393.398947 43.92 
" clip-path="url(#pc36a6141a4)" style="fill: none; stroke-dasharray: 5.55,2.4; stroke-dashoffset: 0; stroke: #808080; stroke-opacity: 0.7; stroke-width: 1.5"/>
   </g>
   <g id="text_29">
    <text style="font: 12px 'Arial', sans-serif; text-anchor: middle" x="330.569817" y="37.92" transform="rotate(-0 330.569817 37.92)">3 Incorrect Trials</text>
   </g>
   <g id="legend_2">
    <g id="patch_19">
     <path d="M 273.307169 64.932272 
L 387.832465 64.932272 
Q 388.990465 64.932272 388.990465 63.774272 
L 388.990465 47.973 
Q 388.990465 46.815 387.832465 46.815 
L 273.307169 46.815 
Q 272.149169 46.815 272.149169 47.973 
L 272.149169 63.774272 
Q 272.149169 64.932272 273.307169 64.932272 
z
" style="fill: #ffffff; opacity: 0.8; stroke: #cccccc; stroke-linejoin: miter"/>
    </g>
    <g id="line2d_28">
     <path d="M 274.465169 51.248873 
L 280.255169 51.248873 
L 286.045169 51.248873 
" style="fill: none; stroke: #808080; stroke-width: 1.5; stroke-linecap: square"/>
    </g>
    <g id="text_30">
     <text style="font: 5.79px 'Arial', sans-serif; text-anchor: start" x="290.677169" y="53.275373" transform="rotate(-0 290.677169 53.275373)">Pref - PrevCount=-3 - #Trials=2.0</text>
    </g>
    <g id="line2d_29">
     <path d="M 274.465169 59.439009 
L 280.255169 59.439009 
L 286.045169 59.439009 
" style="fill: none; stroke: #a9a9a9; stroke-width: 1.5; stroke-linecap: square"/>
    </g>
    <g id="text_31">
     <text style="font: 5.79px 'Arial', sans-serif; text-anchor: start" x="290.677169" y="61.465509" transform="rotate(-0 290.677169 61.465509)">NonPref - PrevCount=-3 - #Trials=2.0</text>
    </g>
   </g>
  </g>
  <g id="axes_3">
   <g id="patch_20">
    <path d="M 449.655183 210.24 
L 619.777134 210.24 
L 619.777134 43.92 
L 449.655183 43.92 
z
" style="fill: #ffffff"/>
   </g>
   <g id="PolyCollection_3">
    <defs>
     <path id="m2954a2ee33" d="M 457.387999 -167.460892 
L 457.387999 -151.968899 
L 462.221009 -152.712943 
L 467.054019 -156.800698 
L 471.887029 -155.55224 
L 476.720039 -149.309147 
L 481.553049 -144.886 
L 486.386059 -143.711216 
L 491.219069 -140.397774 
L 496.052079 -141.014001 
L 500.885089 -141.26811 
L 505.718099 -145.313903 
L 510.551109 -147.953987 
L 515.384119 -145.045314 
L 520.217129 -140.77465 
L 525.050139 -139.990802 
L 529.883149 -138.457102 
L 534.716159 -139.483318 
L 539.549169 -145.460072 
L 544.382178 -145.629869 
L 549.215188 -146.149876 
L 554.048198 -145.349941 
L 558.881208 -146.926002 
L 563.714218 -145.926464 
L 568.547228 -145.761822 
L 573.380238 -147.680859 
L 578.213248 -144.288557 
L 583.046258 -146.643838 
L 587.879268 -145.91049 
L 592.712278 -144.515828 
L 597.545288 -145.32855 
L 602.378298 -144.899271 
L 607.211308 -143.720739 
L 612.044318 -146.344567 
L 612.044318 -163.353898 
L 612.044318 -163.353898 
L 607.211308 -161.867461 
L 602.378298 -164.401407 
L 597.545288 -164.914571 
L 592.712278 -162.587594 
L 587.879268 -162.257497 
L 583.046258 -162.692788 
L 578.213248 -162.302606 
L 573.380238 -166.744359 
L 568.547228 -164.214874 
L 563.714218 -162.378748 
L 558.881208 -160.769866 
L 554.048198 -160.29594 
L 549.215188 -161.331643 
L 544.382178 -158.82175 
L 539.549169 -156.87859 
L 534.716159 -148.104391 
L 529.883149 -147.972762 
L 525.050139 -147.831272 
L 520.217129 -148.695689 
L 515.384119 -157.437286 
L 510.551109 -158.745027 
L 505.718099 -154.575127 
L 500.885089 -151.226765 
L 496.052079 -152.697245 
L 491.219069 -152.549561 
L 486.386059 -156.398607 
L 481.553049 -157.2342 
L 476.720039 -163.501058 
L 471.887029 -173.52829 
L 467.054019 -173.8167 
L 462.221009 -169.855234 
L 457.387999 -167.460892 
z
" style="stroke: #a9a9a9; stroke-opacity: 0.1"/>
    </defs>
    <g clip-path="url(#pe1bd1902a0)">
     <use xlink:href="#m2954a2ee33" x="0" y="323.436915" style="fill: #a9a9a9; fill-opacity: 0.1; stroke: #a9a9a9; stroke-opacity: 0.1"/>
    </g>
   </g>
   <g id="matplotlib.axis_5">
    <g id="xtick_9">
     <g id="line2d_30">
      <g>
       <use xlink:href="#m7065d7f73e" x="467.054019" y="210.24" style="stroke: #000000; stroke-width: 0.8"/>
      </g>
     </g>
     <g id="text_32">
      <text style="font: 10px 'Arial', sans-serif" transform="translate(436.088266 251.86503) rotate(-45)">Sampling</text>
     </g>
    </g>
    <g id="xtick_10">
     <g id="line2d_31">
      <g>
       <use xlink:href="#m7065d7f73e" x="597.545288" y="210.24" style="stroke: #000000; stroke-width: 0.8"/>
      </g>
     </g>
     <g id="text_33">
      <text style="font: 10px 'Arial', sans-serif" transform="translate(516.755024 301.686227) rotate(-45)">Movement to Lateral Port</text>
     </g>
    </g>
    <g id="text_34">
     <text style="font: 10px 'Arial', sans-serif; text-anchor: middle" x="534.716159" y="314.249415" transform="rotate(-0 534.716159 314.249415)">Normalized Time</text>
    </g>
   </g>
   <g id="matplotlib.axis_6">
    <g id="ytick_15">
     <g id="line2d_32">
      <g>
       <use xlink:href="#m8483367656" x="449.655183" y="207.030939" style="stroke: #000000; stroke-width: 0.8"/>
      </g>
     </g>
     <g id="text_35">
      <text style="font: 10px 'Arial', sans-serif; text-anchor: end" x="442.655183" y="210.609845" transform="rotate(-0 442.655183 210.609845)">−1.0</text>
     </g>
    </g>
    <g id="ytick_16">
     <g id="line2d_33">
      <g>
       <use xlink:href="#m8483367656" x="449.655183" y="184.468472" style="stroke: #000000; stroke-width: 0.8"/>
      </g>
     </g>
     <g id="text_36">
      <text style="font: 10px 'Arial', sans-serif; text-anchor: end" x="442.655183" y="188.047378" transform="rotate(-0 442.655183 188.047378)">−0.5</text>
     </g>
    </g>
    <g id="ytick_17">
     <g id="line2d_34">
      <g>
       <use xlink:href="#m8483367656" x="449.655183" y="161.906005" style="stroke: #000000; stroke-width: 0.8"/>
      </g>
     </g>
     <g id="text_37">
      <text style="font: 10px 'Arial', sans-serif; text-anchor: end" x="442.655183" y="165.484911" transform="rotate(-0 442.655183 165.484911)">0.0</text>
     </g>
    </g>
    <g id="ytick_18">
     <g id="line2d_35">
      <g>
       <use xlink:href="#m8483367656" x="449.655183" y="139.343538" style="stroke: #000000; stroke-width: 0.8"/>
      </g>
     </g>
     <g id="text_38">
      <text style="font: 10px 'Arial', sans-serif; text-anchor: end" x="442.655183" y="142.922444" transform="rotate(-0 442.655183 142.922444)">0.5</text>
     </g>
    </g>
    <g id="ytick_19">
     <g id="line2d_36">
      <g>
       <use xlink:href="#m8483367656" x="449.655183" y="116.78107" style="stroke: #000000; stroke-width: 0.8"/>
      </g>
     </g>
     <g id="text_39">
      <text style="font: 10px 'Arial', sans-serif; text-anchor: end" x="442.655183" y="120.359977" transform="rotate(-0 442.655183 120.359977)">1.0</text>
     </g>
    </g>
    <g id="ytick_20">
     <g id="line2d_37">
      <g>
       <use xlink:href="#m8483367656" x="449.655183" y="94.218603" style="stroke: #000000; stroke-width: 0.8"/>
      </g>
     </g>
     <g id="text_40">
      <text style="font: 10px 'Arial', sans-serif; text-anchor: end" x="442.655183" y="97.797509" transform="rotate(-0 442.655183 97.797509)">1.5</text>
     </g>
    </g>
    <g id="ytick_21">
     <g id="line2d_38">
      <g>
       <use xlink:href="#m8483367656" x="449.655183" y="71.656136" style="stroke: #000000; stroke-width: 0.8"/>
      </g>
     </g>
     <g id="text_41">
      <text style="font: 10px 'Arial', sans-serif; text-anchor: end" x="442.655183" y="75.235042" transform="rotate(-0 442.655183 75.235042)">2.0</text>
     </g>
    </g>
    <g id="ytick_22">
     <g id="line2d_39">
      <g>
       <use xlink:href="#m8483367656" x="449.655183" y="49.093669" style="stroke: #000000; stroke-width: 0.8"/>
      </g>
     </g>
     <g id="text_42">
      <text style="font: 10px 'Arial', sans-serif; text-anchor: end" x="442.655183" y="52.672575" transform="rotate(-0 442.655183 52.672575)">2.5</text>
     </g>
    </g>
    <g id="text_43">
     <text style="font: 10px 'Arial', sans-serif; text-anchor: middle" x="416.80987" y="127.08" transform="rotate(-90 416.80987 127.08)">Mean Activity</text>
    </g>
   </g>
   <g id="line2d_40">
    <path d="M 457.387999 163.722019 
L 462.221009 162.152827 
L 467.054019 158.128216 
L 471.887029 158.89665 
L 476.720039 167.031813 
L 481.553049 172.376815 
L 486.386059 173.382003 
L 491.219069 176.963247 
L 496.052079 176.581292 
L 500.885089 177.189477 
L 505.718099 173.4924 
L 510.551109 170.087407 
L 515.384119 172.195615 
L 520.217129 178.701745 
L 525.050139 179.525877 
L 529.883149 180.221983 
L 534.716159 179.64306 
L 539.549169 172.267584 
L 544.382178 171.211105 
L 549.215188 169.696155 
L 554.048198 170.613973 
L 558.881208 169.588981 
L 563.714218 169.284308 
L 568.547228 168.448567 
L 573.380238 166.224306 
L 578.213248 170.141332 
L 583.046258 168.768601 
L 587.879268 169.352921 
L 592.712278 169.885203 
L 597.545288 168.315354 
L 602.378298 168.786576 
L 607.211308 170.642815 
L 612.044318 168.587682 
" clip-path="url(#pe1bd1902a0)" style="fill: none; stroke: #a9a9a9; stroke-width: 1.5; stroke-linecap: square"/>
   </g>
   <g id="line2d_41">
    <path d="M 467.054019 210.24 
L 467.054019 43.92 
" clip-path="url(#pe1bd1902a0)" style="fill: none; stroke-dasharray: 5.55,2.4; stroke-dashoffset: 0; stroke: #808080; stroke-opacity: 0.7; stroke-width: 1.5"/>
   </g>
   <g id="line2d_42">
    <path d="M 597.545288 210.24 
L 597.545288 43.92 
" clip-path="url(#pe1bd1902a0)" style="fill: none; stroke-dasharray: 5.55,2.4; stroke-dashoffset: 0; stroke: #808080; stroke-opacity: 0.7; stroke-width: 1.5"/>
   </g>
   <g id="text_44">
    <text style="font: 12px 'Arial', sans-serif; text-anchor: middle" x="534.716159" y="37.92" transform="rotate(-0 534.716159 37.92)">2 Incorrect Trials</text>
   </g>
   <g id="legend_3">
    <g id="patch_21">
     <path d="M 475.843619 207.345 
L 593.588698 207.345 
Q 594.746698 207.345 594.746698 206.187 
L 594.746698 198.575864 
Q 594.746698 197.417864 593.588698 197.417864 
L 475.843619 197.417864 
Q 474.685619 197.417864 474.685619 198.575864 
L 474.685619 206.187 
Q 474.685619 207.345 475.843619 207.345 
z
" style="fill: #ffffff; opacity: 0.8; stroke: #cccccc; stroke-linejoin: miter"/>
    </g>
    <g id="line2d_43">
     <path d="M 477.001619 201.851738 
L 482.791619 201.851738 
L 488.581619 201.851738 
" style="fill: none; stroke: #a9a9a9; stroke-width: 1.5; stroke-linecap: square"/>
    </g>
    <g id="text_45">
     <text style="font: 5.79px 'Arial', sans-serif; text-anchor: start" x="493.213619" y="203.878238" transform="rotate(-0 493.213619 203.878238)">NonPref - PrevCount=-2 - #Trials=15.0</text>
    </g>
   </g>
  </g>
  <g id="axes_4">
   <g id="patch_22">
    <path d="M 653.801524 210.24 
L 823.923476 210.24 
L 823.923476 43.92 
L 653.801524 43.92 
z
" style="fill: #ffffff"/>
   </g>
   <g id="PolyCollection_4">
    <defs>
     <path id="me1cdcc07eb" d="M 661.53434 -151.875052 
L 661.53434 -132.08631 
L 666.36735 -135.555875 
L 671.20036 -137.872715 
L 676.03337 -144.260241 
L 680.86638 -147.644535 
L 685.69939 -155.241588 
L 690.5324 -143.510077 
L 695.36541 -141.50586 
L 700.19842 -140.160684 
L 705.03143 -137.456749 
L 709.86444 -139.279362 
L 714.69745 -128.461913 
L 719.53046 -137.758281 
L 724.36347 -144.837374 
L 729.19648 -140.157774 
L 734.02949 -141.996417 
L 738.8625 -149.54181 
L 743.69551 -145.397644 
L 748.52852 -134.738548 
L 753.36153 -139.007605 
L 758.19454 -150.613977 
L 763.02755 -166.156525 
L 767.86056 -159.671856 
L 772.69357 -138.054213 
L 777.52658 -154.377621 
L 782.35959 -148.353734 
L 787.1926 -141.309481 
L 792.02561 -143.361549 
L 796.85862 -148.377991 
L 801.69163 -138.379053 
L 806.52464 -133.85084 
L 811.35765 -136.801473 
L 816.19066 -139.191072 
L 816.19066 -149.387769 
L 816.19066 -149.387769 
L 811.35765 -149.277325 
L 806.52464 -156.541576 
L 801.69163 -152.18799 
L 796.85862 -159.658059 
L 792.02561 -164.616162 
L 787.1926 -167.17186 
L 782.35959 -176.735981 
L 777.52658 -173.518638 
L 772.69357 -162.227107 
L 767.86056 -178.813627 
L 763.02755 -185.841266 
L 758.19454 -171.325413 
L 753.36153 -149.637821 
L 748.52852 -148.593951 
L 743.69551 -156.312365 
L 738.8625 -159.65905 
L 734.02949 -162.821943 
L 729.19648 -164.565788 
L 724.36347 -161.893153 
L 719.53046 -150.004092 
L 714.69745 -143.295483 
L 709.86444 -156.097553 
L 705.03143 -159.14028 
L 700.19842 -160.793611 
L 695.36541 -165.480867 
L 690.5324 -161.843492 
L 685.69939 -157.460987 
L 680.86638 -157.444001 
L 676.03337 -159.394518 
L 671.20036 -144.641491 
L 666.36735 -150.38664 
L 661.53434 -151.875052 
z
" style="stroke: #808080; stroke-opacity: 0.1"/>
    </defs>
    <g clip-path="url(#pc28859f7a7)">
     <use xlink:href="#me1cdcc07eb" x="0" y="323.436915" style="fill: #808080; fill-opacity: 0.1; stroke: #808080; stroke-opacity: 0.1"/>
    </g>
   </g>
   <g id="PolyCollection_5">
    <defs>
     <path id="me716d0c212" d="M 661.53434 -176.9631 
L 661.53434 -157.821624 
L 666.36735 -157.988596 
L 671.20036 -157.062149 
L 676.03337 -157.014671 
L 680.86638 -156.631653 
L 685.69939 -153.204566 
L 690.5324 -150.764866 
L 695.36541 -146.985499 
L 700.19842 -146.413442 
L 705.03143 -149.561077 
L 709.86444 -150.8585 
L 714.69745 -149.292275 
L 719.53046 -147.58194 
L 724.36347 -150.911516 
L 729.19648 -150.178306 
L 734.02949 -148.000059 
L 738.8625 -147.32871 
L 743.69551 -144.925085 
L 748.52852 -146.717126 
L 753.36153 -147.327738 
L 758.19454 -143.155525 
L 763.02755 -144.771166 
L 767.86056 -144.645151 
L 772.69357 -143.5511 
L 777.52658 -145.247702 
L 782.35959 -145.03884 
L 787.1926 -145.741598 
L 792.02561 -145.232792 
L 796.85862 -145.505487 
L 801.69163 -145.062923 
L 806.52464 -147.368833 
L 811.35765 -150.802555 
L 816.19066 -152.573797 
L 816.19066 -170.215641 
L 816.19066 -170.215641 
L 811.35765 -168.198078 
L 806.52464 -163.508447 
L 801.69163 -158.687507 
L 796.85862 -157.202777 
L 792.02561 -154.848532 
L 787.1926 -153.218245 
L 782.35959 -152.176018 
L 777.52658 -151.552583 
L 772.69357 -149.634533 
L 767.86056 -149.82075 
L 763.02755 -150.86435 
L 758.19454 -149.581664 
L 753.36153 -153.008783 
L 748.52852 -153.142632 
L 743.69551 -151.924459 
L 738.8625 -154.787555 
L 734.02949 -156.821864 
L 729.19648 -159.55664 
L 724.36347 -161.353562 
L 719.53046 -159.313484 
L 714.69745 -161.572493 
L 709.86444 -164.165534 
L 705.03143 -163.938779 
L 700.19842 -163.228465 
L 695.36541 -165.012677 
L 690.5324 -168.709426 
L 685.69939 -172.942744 
L 680.86638 -177.330571 
L 676.03337 -177.144116 
L 671.20036 -177.278282 
L 666.36735 -177.28785 
L 661.53434 -176.9631 
z
" style="stroke: #a9a9a9; stroke-opacity: 0.1"/>
    </defs>
    <g clip-path="url(#pc28859f7a7)">
     <use xlink:href="#me716d0c212" x="0" y="323.436915" style="fill: #a9a9a9; fill-opacity: 0.1; stroke: #a9a9a9; stroke-opacity: 0.1"/>
    </g>
   </g>
   <g id="matplotlib.axis_7">
    <g id="xtick_11">
     <g id="line2d_44">
      <g>
       <use xlink:href="#m7065d7f73e" x="671.20036" y="210.24" style="stroke: #000000; stroke-width: 0.8"/>
      </g>
     </g>
     <g id="text_46">
      <text style="font: 10px 'Arial', sans-serif" transform="translate(640.234608 251.86503) rotate(-45)">Sampling</text>
     </g>
    </g>
    <g id="xtick_12">
     <g id="line2d_45">
      <g>
       <use xlink:href="#m7065d7f73e" x="801.69163" y="210.24" style="stroke: #000000; stroke-width: 0.8"/>
      </g>
     </g>
     <g id="text_47">
      <text style="font: 10px 'Arial', sans-serif" transform="translate(720.901365 301.686227) rotate(-45)">Movement to Lateral Port</text>
     </g>
    </g>
    <g id="text_48">
     <text style="font: 10px 'Arial', sans-serif; text-anchor: middle" x="738.8625" y="314.249415" transform="rotate(-0 738.8625 314.249415)">Normalized Time</text>
    </g>
   </g>
   <g id="matplotlib.axis_8">
    <g id="ytick_23">
     <g id="line2d_46">
      <g>
       <use xlink:href="#m8483367656" x="653.801524" y="207.030939" style="stroke: #000000; stroke-width: 0.8"/>
      </g>
     </g>
     <g id="text_49">
      <text style="font: 10px 'Arial', sans-serif; text-anchor: end" x="646.801524" y="210.609845" transform="rotate(-0 646.801524 210.609845)">−1.0</text>
     </g>
    </g>
    <g id="ytick_24">
     <g id="line2d_47">
      <g>
       <use xlink:href="#m8483367656" x="653.801524" y="184.468472" style="stroke: #000000; stroke-width: 0.8"/>
      </g>
     </g>
     <g id="text_50">
      <text style="font: 10px 'Arial', sans-serif; text-anchor: end" x="646.801524" y="188.047378" transform="rotate(-0 646.801524 188.047378)">−0.5</text>
     </g>
    </g>
    <g id="ytick_25">
     <g id="line2d_48">
      <g>
       <use xlink:href="#m8483367656" x="653.801524" y="161.906005" style="stroke: #000000; stroke-width: 0.8"/>
      </g>
     </g>
     <g id="text_51">
      <text style="font: 10px 'Arial', sans-serif; text-anchor: end" x="646.801524" y="165.484911" transform="rotate(-0 646.801524 165.484911)">0.0</text>
     </g>
    </g>
    <g id="ytick_26">
     <g id="line2d_49">
      <g>
       <use xlink:href="#m8483367656" x="653.801524" y="139.343538" style="stroke: #000000; stroke-width: 0.8"/>
      </g>
     </g>
     <g id="text_52">
      <text style="font: 10px 'Arial', sans-serif; text-anchor: end" x="646.801524" y="142.922444" transform="rotate(-0 646.801524 142.922444)">0.5</text>
     </g>
    </g>
    <g id="ytick_27">
     <g id="line2d_50">
      <g>
       <use xlink:href="#m8483367656" x="653.801524" y="116.78107" style="stroke: #000000; stroke-width: 0.8"/>
      </g>
     </g>
     <g id="text_53">
      <text style="font: 10px 'Arial', sans-serif; text-anchor: end" x="646.801524" y="120.359977" transform="rotate(-0 646.801524 120.359977)">1.0</text>
     </g>
    </g>
    <g id="ytick_28">
     <g id="line2d_51">
      <g>
       <use xlink:href="#m8483367656" x="653.801524" y="94.218603" style="stroke: #000000; stroke-width: 0.8"/>
      </g>
     </g>
     <g id="text_54">
      <text style="font: 10px 'Arial', sans-serif; text-anchor: end" x="646.801524" y="97.797509" transform="rotate(-0 646.801524 97.797509)">1.5</text>
     </g>
    </g>
    <g id="ytick_29">
     <g id="line2d_52">
      <g>
       <use xlink:href="#m8483367656" x="653.801524" y="71.656136" style="stroke: #000000; stroke-width: 0.8"/>
      </g>
     </g>
     <g id="text_55">
      <text style="font: 10px 'Arial', sans-serif; text-anchor: end" x="646.801524" y="75.235042" transform="rotate(-0 646.801524 75.235042)">2.0</text>
     </g>
    </g>
    <g id="ytick_30">
     <g id="line2d_53">
      <g>
       <use xlink:href="#m8483367656" x="653.801524" y="49.093669" style="stroke: #000000; stroke-width: 0.8"/>
      </g>
     </g>
     <g id="text_56">
      <text style="font: 10px 'Arial', sans-serif; text-anchor: end" x="646.801524" y="52.672575" transform="rotate(-0 646.801524 52.672575)">2.5</text>
     </g>
    </g>
    <g id="text_57">
     <text style="font: 10px 'Arial', sans-serif; text-anchor: middle" x="620.956212" y="127.08" transform="rotate(-90 620.956212 127.08)">Mean Activity</text>
    </g>
   </g>
   <g id="line2d_54">
    <path d="M 661.53434 181.456234 
L 666.36735 180.465658 
L 671.20036 182.179812 
L 676.03337 171.609535 
L 680.86638 170.892647 
L 685.69939 167.085627 
L 690.5324 170.76013 
L 695.36541 169.943551 
L 700.19842 172.959767 
L 705.03143 175.138401 
L 709.86444 175.748458 
L 714.69745 187.558216 
L 719.53046 179.555728 
L 724.36347 170.071651 
L 729.19648 171.075134 
L 734.02949 171.027735 
L 738.8625 168.836484 
L 743.69551 172.58191 
L 748.52852 181.770665 
L 753.36153 179.114201 
L 758.19454 162.46722 
L 763.02755 147.438019 
L 767.86056 154.194173 
L 772.69357 173.296254 
L 777.52658 159.488785 
L 782.35959 160.892057 
L 787.1926 169.196244 
L 792.02561 169.448059 
L 796.85862 169.41889 
L 801.69163 178.153393 
L 806.52464 178.240707 
L 811.35765 180.397515 
L 816.19066 179.147494 
" clip-path="url(#pc28859f7a7)" style="fill: none; stroke: #808080; stroke-width: 1.5; stroke-linecap: square"/>
   </g>
   <g id="line2d_55">
    <path d="M 661.53434 156.044553 
L 666.36735 155.798692 
L 671.20036 156.266699 
L 676.03337 156.357521 
L 680.86638 156.455802 
L 685.69939 160.36326 
L 690.5324 163.699768 
L 695.36541 167.437826 
L 700.19842 168.615961 
L 705.03143 166.686986 
L 709.86444 165.924898 
L 714.69745 168.004531 
L 719.53046 169.989203 
L 724.36347 167.304376 
L 729.19648 168.569442 
L 734.02949 171.025953 
L 738.8625 172.378782 
L 743.69551 175.012143 
L 748.52852 173.507036 
L 753.36153 173.268654 
L 758.19454 177.06832 
L 763.02755 175.619156 
L 767.86056 176.203964 
L 772.69357 176.844098 
L 777.52658 175.036772 
L 782.35959 174.829486 
L 787.1926 173.956994 
L 792.02561 173.396253 
L 796.85862 172.082783 
L 801.69163 171.5617 
L 806.52464 167.998275 
L 811.35765 163.936598 
L 816.19066 162.042195 
" clip-path="url(#pc28859f7a7)" style="fill: none; stroke: #a9a9a9; stroke-width: 1.5; stroke-linecap: square"/>
   </g>
   <g id="line2d_56">
    <path d="M 671.20036 210.24 
L 671.20036 43.92 
" clip-path="url(#pc28859f7a7)" style="fill: none; stroke-dasharray: 5.55,2.4; stroke-dashoffset: 0; stroke: #808080; stroke-opacity: 0.7; stroke-width: 1.5"/>
   </g>
   <g id="line2d_57">
    <path d="M 801.69163 210.24 
L 801.69163 43.92 
" clip-path="url(#pc28859f7a7)" style="fill: none; stroke-dasharray: 5.55,2.4; stroke-dashoffset: 0; stroke: #808080; stroke-opacity: 0.7; stroke-width: 1.5"/>
   </g>
   <g id="text_58">
    <text style="font: 12px 'Arial', sans-serif; text-anchor: middle" x="738.8625" y="37.92" transform="rotate(-0 738.8625 37.92)">1 Incorrect Trials</text>
   </g>
   <g id="legend_4">
    <g id="patch_23">
     <path d="M 679.989961 207.345 
L 797.735039 207.345 
Q 798.893039 207.345 798.893039 206.187 
L 798.893039 190.385728 
Q 798.893039 189.227728 797.735039 189.227728 
L 679.989961 189.227728 
Q 678.831961 189.227728 678.831961 190.385728 
L 678.831961 206.187 
Q 678.831961 207.345 679.989961 207.345 
z
" style="fill: #ffffff; opacity: 0.8; stroke: #cccccc; stroke-linejoin: miter"/>
    </g>
    <g id="line2d_58">
     <path d="M 681.147961 193.661602 
L 686.937961 193.661602 
L 692.727961 193.661602 
" style="fill: none; stroke: #808080; stroke-width: 1.5; stroke-linecap: square"/>
    </g>
    <g id="text_59">
     <text style="font: 5.79px 'Arial', sans-serif; text-anchor: start" x="697.359961" y="195.688102" transform="rotate(-0 697.359961 195.688102)">Pref - PrevCount=-1 - #Trials=3.0</text>
    </g>
    <g id="line2d_59">
     <path d="M 681.147961 201.851738 
L 686.937961 201.851738 
L 692.727961 201.851738 
" style="fill: none; stroke: #a9a9a9; stroke-width: 1.5; stroke-linecap: square"/>
    </g>
    <g id="text_60">
     <text style="font: 5.79px 'Arial', sans-serif; text-anchor: start" x="697.359961" y="203.878238" transform="rotate(-0 697.359961 203.878238)">NonPref - PrevCount=-1 - #Trials=33.0</text>
    </g>
   </g>
  </g>
  <g id="axes_5">
   <g id="patch_24">
    <path d="M 857.947866 210.24 
L 1028.069817 210.24 
L 1028.069817 43.92 
L 857.947866 43.92 
z
" style="fill: #ffffff"/>
   </g>
   <g id="PolyCollection_6">
    <defs>
     <path id="meb9deb737d" d="M 865.680682 -214.942087 
L 865.680682 -181.159997 
L 870.513692 -181.713259 
L 875.346702 -182.036548 
L 880.179712 -176.67826 
L 885.012722 -167.4227 
L 889.845732 -163.461239 
L 894.678742 -158.433482 
L 899.511752 -157.981656 
L 904.344762 -160.180553 
L 909.177772 -161.814972 
L 914.010782 -154.382833 
L 918.843792 -149.774736 
L 923.676802 -150.073224 
L 928.509812 -147.265334 
L 933.342822 -149.234173 
L 938.175831 -148.514075 
L 943.008841 -146.144678 
L 947.841851 -141.180052 
L 952.674861 -146.016438 
L 957.507871 -146.29106 
L 962.340881 -141.087558 
L 967.173891 -147.076404 
L 972.006901 -143.02626 
L 976.839911 -142.705639 
L 981.672921 -144.52992 
L 986.505931 -144.088485 
L 991.338941 -145.283195 
L 996.171951 -145.284007 
L 1001.004961 -144.739623 
L 1005.837971 -150.004715 
L 1010.670981 -149.145981 
L 1015.503991 -148.216356 
L 1020.337001 -149.868614 
L 1020.337001 -159.940855 
L 1020.337001 -159.940855 
L 1015.503991 -157.884429 
L 1010.670981 -158.862226 
L 1005.837971 -160.123818 
L 1001.004961 -153.712457 
L 996.171951 -154.464638 
L 991.338941 -155.13275 
L 986.505931 -154.058627 
L 981.672921 -155.348896 
L 976.839911 -153.486561 
L 972.006901 -154.288435 
L 967.173891 -159.223834 
L 962.340881 -155.641003 
L 957.507871 -161.346525 
L 952.674861 -161.842326 
L 947.841851 -157.351269 
L 943.008841 -163.1689 
L 938.175831 -166.369514 
L 933.342822 -165.115152 
L 928.509812 -163.614136 
L 923.676802 -168.709644 
L 918.843792 -169.963073 
L 914.010782 -177.859064 
L 909.177772 -188.075808 
L 904.344762 -188.600734 
L 899.511752 -188.610998 
L 894.678742 -188.084767 
L 889.845732 -193.551137 
L 885.012722 -196.605295 
L 880.179712 -211.609453 
L 875.346702 -222.02317 
L 870.513692 -219.634143 
L 865.680682 -214.942087 
z
" style="stroke: #808080; stroke-opacity: 0.1"/>
    </defs>
    <g clip-path="url(#pfa2dfa5463)">
     <use xlink:href="#meb9deb737d" x="0" y="323.436915" style="fill: #808080; fill-opacity: 0.1; stroke: #808080; stroke-opacity: 0.1"/>
    </g>
   </g>
   <g id="PolyCollection_7">
    <defs>
     <path id="mffd4cf7d4a" d="M 865.680682 -266.705075 
L 865.680682 -222.067528 
L 870.513692 -222.571677 
L 875.346702 -217.824946 
L 880.179712 -209.412096 
L 885.012722 -204.538714 
L 889.845732 -197.000612 
L 894.678742 -189.883727 
L 899.511752 -187.530111 
L 904.344762 -182.317102 
L 909.177772 -178.25199 
L 914.010782 -175.481976 
L 918.843792 -175.425178 
L 923.676802 -175.627265 
L 928.509812 -178.245467 
L 933.342822 -177.010692 
L 938.175831 -174.071797 
L 943.008841 -175.915067 
L 947.841851 -168.614774 
L 952.674861 -165.794048 
L 957.507871 -165.317379 
L 962.340881 -164.022821 
L 967.173891 -163.187353 
L 972.006901 -162.470588 
L 976.839911 -160.045085 
L 981.672921 -157.245585 
L 986.505931 -153.959538 
L 991.338941 -156.274385 
L 996.171951 -155.903681 
L 1001.004961 -158.117124 
L 1005.837971 -159.387527 
L 1010.670981 -160.492212 
L 1015.503991 -159.596292 
L 1020.337001 -160.512795 
L 1020.337001 -183.546078 
L 1020.337001 -183.546078 
L 1015.503991 -180.025641 
L 1010.670981 -179.980155 
L 1005.837971 -177.98029 
L 1001.004961 -176.850916 
L 996.171951 -177.765341 
L 991.338941 -179.796195 
L 986.505931 -178.182765 
L 981.672921 -181.78624 
L 976.839911 -185.410951 
L 972.006901 -187.583835 
L 967.173891 -189.876226 
L 962.340881 -193.039 
L 957.507871 -196.437304 
L 952.674861 -197.507615 
L 947.841851 -200.824154 
L 943.008841 -209.078783 
L 938.175831 -209.866007 
L 933.342822 -213.753098 
L 928.509812 -215.355304 
L 923.676802 -214.89831 
L 918.843792 -214.050902 
L 914.010782 -214.645353 
L 909.177772 -221.312348 
L 904.344762 -226.521152 
L 899.511752 -230.992677 
L 894.678742 -233.47588 
L 889.845732 -241.792893 
L 885.012722 -249.712869 
L 880.179712 -254.961684 
L 875.346702 -263.152363 
L 870.513692 -268.790914 
L 865.680682 -266.705075 
z
" style="stroke: #a9a9a9; stroke-opacity: 0.1"/>
    </defs>
    <g clip-path="url(#pfa2dfa5463)">
     <use xlink:href="#mffd4cf7d4a" x="0" y="323.436915" style="fill: #a9a9a9; fill-opacity: 0.1; stroke: #a9a9a9; stroke-opacity: 0.1"/>
    </g>
   </g>
   <g id="matplotlib.axis_9">
    <g id="xtick_13">
     <g id="line2d_60">
      <g>
       <use xlink:href="#m7065d7f73e" x="875.346702" y="210.24" style="stroke: #000000; stroke-width: 0.8"/>
      </g>
     </g>
     <g id="text_61">
      <text style="font: 10px 'Arial', sans-serif" transform="translate(844.380949 251.86503) rotate(-45)">Sampling</text>
     </g>
    </g>
    <g id="xtick_14">
     <g id="line2d_61">
      <g>
       <use xlink:href="#m7065d7f73e" x="1005.837971" y="210.24" style="stroke: #000000; stroke-width: 0.8"/>
      </g>
     </g>
     <g id="text_62">
      <text style="font: 10px 'Arial', sans-serif" transform="translate(925.047707 301.686227) rotate(-45)">Movement to Lateral Port</text>
     </g>
    </g>
    <g id="text_63">
     <text style="font: 10px 'Arial', sans-serif; text-anchor: middle" x="943.008841" y="314.249415" transform="rotate(-0 943.008841 314.249415)">Normalized Time</text>
    </g>
   </g>
   <g id="matplotlib.axis_10">
    <g id="ytick_31">
     <g id="line2d_62">
      <g>
       <use xlink:href="#m8483367656" x="857.947866" y="207.030939" style="stroke: #000000; stroke-width: 0.8"/>
      </g>
     </g>
     <g id="text_64">
      <text style="font: 10px 'Arial', sans-serif; text-anchor: end" x="850.947866" y="210.609845" transform="rotate(-0 850.947866 210.609845)">−1.0</text>
     </g>
    </g>
    <g id="ytick_32">
     <g id="line2d_63">
      <g>
       <use xlink:href="#m8483367656" x="857.947866" y="184.468472" style="stroke: #000000; stroke-width: 0.8"/>
      </g>
     </g>
     <g id="text_65">
      <text style="font: 10px 'Arial', sans-serif; text-anchor: end" x="850.947866" y="188.047378" transform="rotate(-0 850.947866 188.047378)">−0.5</text>
     </g>
    </g>
    <g id="ytick_33">
     <g id="line2d_64">
      <g>
       <use xlink:href="#m8483367656" x="857.947866" y="161.906005" style="stroke: #000000; stroke-width: 0.8"/>
      </g>
     </g>
     <g id="text_66">
      <text style="font: 10px 'Arial', sans-serif; text-anchor: end" x="850.947866" y="165.484911" transform="rotate(-0 850.947866 165.484911)">0.0</text>
     </g>
    </g>
    <g id="ytick_34">
     <g id="line2d_65">
      <g>
       <use xlink:href="#m8483367656" x="857.947866" y="139.343538" style="stroke: #000000; stroke-width: 0.8"/>
      </g>
     </g>
     <g id="text_67">
      <text style="font: 10px 'Arial', sans-serif; text-anchor: end" x="850.947866" y="142.922444" transform="rotate(-0 850.947866 142.922444)">0.5</text>
     </g>
    </g>
    <g id="ytick_35">
     <g id="line2d_66">
      <g>
       <use xlink:href="#m8483367656" x="857.947866" y="116.78107" style="stroke: #000000; stroke-width: 0.8"/>
      </g>
     </g>
     <g id="text_68">
      <text style="font: 10px 'Arial', sans-serif; text-anchor: end" x="850.947866" y="120.359977" transform="rotate(-0 850.947866 120.359977)">1.0</text>
     </g>
    </g>
    <g id="ytick_36">
     <g id="line2d_67">
      <g>
       <use xlink:href="#m8483367656" x="857.947866" y="94.218603" style="stroke: #000000; stroke-width: 0.8"/>
      </g>
     </g>
     <g id="text_69">
      <text style="font: 10px 'Arial', sans-serif; text-anchor: end" x="850.947866" y="97.797509" transform="rotate(-0 850.947866 97.797509)">1.5</text>
     </g>
    </g>
    <g id="ytick_37">
     <g id="line2d_68">
      <g>
       <use xlink:href="#m8483367656" x="857.947866" y="71.656136" style="stroke: #000000; stroke-width: 0.8"/>
      </g>
     </g>
     <g id="text_70">
      <text style="font: 10px 'Arial', sans-serif; text-anchor: end" x="850.947866" y="75.235042" transform="rotate(-0 850.947866 75.235042)">2.0</text>
     </g>
    </g>
    <g id="ytick_38">
     <g id="line2d_69">
      <g>
       <use xlink:href="#m8483367656" x="857.947866" y="49.093669" style="stroke: #000000; stroke-width: 0.8"/>
      </g>
     </g>
     <g id="text_71">
      <text style="font: 10px 'Arial', sans-serif; text-anchor: end" x="850.947866" y="52.672575" transform="rotate(-0 850.947866 52.672575)">2.5</text>
     </g>
    </g>
    <g id="text_72">
     <text style="font: 10px 'Arial', sans-serif; text-anchor: middle" x="825.102553" y="127.08" transform="rotate(-90 825.102553 127.08)">Mean Activity</text>
    </g>
   </g>
   <g id="line2d_70">
    <path d="M 865.680682 125.385873 
L 870.513692 122.763214 
L 875.346702 121.407055 
L 880.179712 129.293058 
L 885.012722 141.422917 
L 889.845732 144.930727 
L 894.678742 150.177789 
L 899.511752 150.140587 
L 904.344762 149.04627 
L 909.177772 148.491524 
L 914.010782 157.315965 
L 918.843792 163.56801 
L 923.676802 164.045481 
L 928.509812 167.99718 
L 933.342822 166.262252 
L 938.175831 165.99512 
L 943.008841 168.780125 
L 947.841851 174.171254 
L 952.674861 169.507533 
L 957.507871 169.618122 
L 962.340881 175.072634 
L 967.173891 170.286796 
L 972.006901 174.779567 
L 976.839911 175.340815 
L 981.672921 173.497506 
L 986.505931 174.363359 
L 991.338941 173.228943 
L 996.171951 173.562592 
L 1001.004961 174.210874 
L 1005.837971 168.372648 
L 1010.670981 169.432811 
L 1015.503991 170.386522 
L 1020.337001 168.53218 
" clip-path="url(#pfa2dfa5463)" style="fill: none; stroke: #808080; stroke-width: 1.5; stroke-linecap: square"/>
   </g>
   <g id="line2d_71">
    <path d="M 865.680682 79.050613 
L 870.513692 77.755619 
L 875.346702 82.948257 
L 880.179712 91.250025 
L 885.012722 96.311123 
L 889.845732 104.040161 
L 894.678742 111.757111 
L 899.511752 114.17552 
L 904.344762 119.017788 
L 909.177772 123.654746 
L 914.010782 128.37325 
L 918.843792 128.698876 
L 923.676802 128.174126 
L 928.509812 126.636528 
L 933.342822 128.05502 
L 938.175831 131.468013 
L 943.008841 130.939991 
L 947.841851 138.71745 
L 952.674861 141.786082 
L 957.507871 142.559574 
L 962.340881 144.906004 
L 967.173891 146.905125 
L 972.006901 148.409702 
L 976.839911 150.708897 
L 981.672921 153.921002 
L 986.505931 157.365763 
L 991.338941 155.401624 
L 996.171951 156.602403 
L 1001.004961 155.952895 
L 1005.837971 154.753006 
L 1010.670981 153.200731 
L 1015.503991 153.625948 
L 1020.337001 151.407478 
" clip-path="url(#pfa2dfa5463)" style="fill: none; stroke: #a9a9a9; stroke-width: 1.5; stroke-linecap: square"/>
   </g>
   <g id="line2d_72">
    <path d="M 875.346702 210.24 
L 875.346702 43.92 
" clip-path="url(#pfa2dfa5463)" style="fill: none; stroke-dasharray: 5.55,2.4; stroke-dashoffset: 0; stroke: #808080; stroke-opacity: 0.7; stroke-width: 1.5"/>
   </g>
   <g id="line2d_73">
    <path d="M 1005.837971 210.24 
L 1005.837971 43.92 
" clip-path="url(#pfa2dfa5463)" style="fill: none; stroke-dasharray: 5.55,2.4; stroke-dashoffset: 0; stroke: #808080; stroke-opacity: 0.7; stroke-width: 1.5"/>
   </g>
   <g id="text_73">
    <text style="font: 12px 'Arial', sans-serif; text-anchor: middle" x="943.008841" y="37.92" transform="rotate(-0 943.008841 37.92)">1 Correct Trials</text>
   </g>
   <g id="legend_5">
    <g id="patch_25">
     <path d="M 885.100247 207.345 
L 1000.917436 207.345 
Q 1002.075436 207.345 1002.075436 206.187 
L 1002.075436 190.385728 
Q 1002.075436 189.227728 1000.917436 189.227728 
L 885.100247 189.227728 
Q 883.942247 189.227728 883.942247 190.385728 
L 883.942247 206.187 
Q 883.942247 207.345 885.100247 207.345 
z
" style="fill: #ffffff; opacity: 0.8; stroke: #cccccc; stroke-linejoin: miter"/>
    </g>
    <g id="line2d_74">
     <path d="M 886.258247 193.661602 
L 892.048247 193.661602 
L 897.838247 193.661602 
" style="fill: none; stroke: #808080; stroke-width: 1.5; stroke-linecap: square"/>
    </g>
    <g id="text_74">
     <text style="font: 5.79px 'Arial', sans-serif; text-anchor: start" x="902.470247" y="195.688102" transform="rotate(-0 902.470247 195.688102)">Pref - PrevCount=1 - #Trials=17.0</text>
    </g>
    <g id="line2d_75">
     <path d="M 886.258247 201.851738 
L 892.048247 201.851738 
L 897.838247 201.851738 
" style="fill: none; stroke: #a9a9a9; stroke-width: 1.5; stroke-linecap: square"/>
    </g>
    <g id="text_75">
     <text style="font: 5.79px 'Arial', sans-serif; text-anchor: start" x="902.470247" y="203.878238" transform="rotate(-0 902.470247 203.878238)">NonPref - PrevCount=1 - #Trials=20.0</text>
    </g>
   </g>
  </g>
  <g id="axes_6">
   <g id="patch_26">
    <path d="M 1062.094207 210.24 
L 1232.216159 210.24 
L 1232.216159 43.92 
L 1062.094207 43.92 
z
" style="fill: #ffffff"/>
   </g>
   <g id="PolyCollection_8">
    <defs>
     <path id="mfc77920b48" d="M 1069.827023 -240.969428 
L 1069.827023 -207.537287 
L 1074.660033 -210.649208 
L 1079.493043 -213.000392 
L 1084.326053 -205.74999 
L 1089.159063 -200.304671 
L 1093.992073 -197.810476 
L 1098.825083 -195.697692 
L 1103.658093 -192.703003 
L 1108.491103 -189.824358 
L 1113.324113 -183.610843 
L 1118.157123 -178.030065 
L 1122.990133 -176.313175 
L 1127.823143 -171.502362 
L 1132.656153 -171.571391 
L 1137.489163 -168.771886 
L 1142.322173 -163.547542 
L 1147.155183 -160.790581 
L 1151.988193 -160.855356 
L 1156.821203 -163.40728 
L 1161.654213 -163.837045 
L 1166.487223 -163.138931 
L 1171.320233 -159.401493 
L 1176.153243 -157.898315 
L 1180.986253 -157.490538 
L 1185.819263 -161.389499 
L 1190.652273 -165.65625 
L 1195.485283 -161.781444 
L 1200.318293 -159.254555 
L 1205.151303 -157.681032 
L 1209.984313 -157.837002 
L 1214.817323 -161.474282 
L 1219.650333 -166.588718 
L 1224.483343 -171.184724 
L 1224.483343 -195.688208 
L 1224.483343 -195.688208 
L 1219.650333 -184.731194 
L 1214.817323 -174.553647 
L 1209.984313 -168.511217 
L 1205.151303 -169.932323 
L 1200.318293 -172.223857 
L 1195.485283 -174.544104 
L 1190.652273 -178.671324 
L 1185.819263 -175.38749 
L 1180.986253 -169.672502 
L 1176.153243 -169.994174 
L 1171.320233 -174.855779 
L 1166.487223 -179.157429 
L 1161.654213 -181.09926 
L 1156.821203 -183.0267 
L 1151.988193 -181.730617 
L 1147.155183 -183.548621 
L 1142.322173 -185.28724 
L 1137.489163 -189.815802 
L 1132.656153 -194.00336 
L 1127.823143 -194.303453 
L 1122.990133 -199.796539 
L 1118.157123 -204.035469 
L 1113.324113 -210.765643 
L 1108.491103 -220.36517 
L 1103.658093 -225.767919 
L 1098.825083 -229.003591 
L 1093.992073 -231.311794 
L 1089.159063 -232.238666 
L 1084.326053 -236.025712 
L 1079.493043 -243.661865 
L 1074.660033 -242.417657 
L 1069.827023 -240.969428 
z
" style="stroke: #808080; stroke-opacity: 0.1"/>
    </defs>
    <g clip-path="url(#pdabcd80e2a)">
     <use xlink:href="#mfc77920b48" x="0" y="323.436915" style="fill: #808080; fill-opacity: 0.1; stroke: #808080; stroke-opacity: 0.1"/>
    </g>
   </g>
   <g id="PolyCollection_9">
    <defs>
     <path id="mad5b9d9c2e" d="M 1069.827023 -233.858441 
L 1069.827023 -197.132688 
L 1074.660033 -197.9665 
L 1079.493043 -197.07557 
L 1084.326053 -196.453432 
L 1089.159063 -195.170633 
L 1093.992073 -186.407083 
L 1098.825083 -185.078996 
L 1103.658093 -184.673409 
L 1108.491103 -174.642868 
L 1113.324113 -160.495786 
L 1118.157123 -157.644608 
L 1122.990133 -156.151865 
L 1127.823143 -154.981259 
L 1132.656153 -155.294899 
L 1137.489163 -156.920032 
L 1142.322173 -152.657295 
L 1147.155183 -156.887044 
L 1151.988193 -155.483847 
L 1156.821203 -156.200694 
L 1161.654213 -159.449525 
L 1166.487223 -155.454921 
L 1171.320233 -152.97989 
L 1176.153243 -157.252725 
L 1180.986253 -153.959182 
L 1185.819263 -159.448252 
L 1190.652273 -160.786517 
L 1195.485283 -155.726633 
L 1200.318293 -155.294908 
L 1205.151303 -155.241923 
L 1209.984313 -152.446492 
L 1214.817323 -154.341682 
L 1219.650333 -153.859069 
L 1224.483343 -155.363872 
L 1224.483343 -168.706377 
L 1224.483343 -168.706377 
L 1219.650333 -167.581471 
L 1214.817323 -169.48466 
L 1209.984313 -167.572928 
L 1205.151303 -168.358275 
L 1200.318293 -167.641572 
L 1195.485283 -170.782485 
L 1190.652273 -176.738995 
L 1185.819263 -174.674618 
L 1180.986253 -170.02028 
L 1176.153243 -173.617144 
L 1171.320233 -172.088654 
L 1166.487223 -177.112672 
L 1161.654213 -182.993545 
L 1156.821203 -181.14933 
L 1151.988193 -178.560482 
L 1147.155183 -177.316279 
L 1142.322173 -173.970729 
L 1137.489163 -179.401895 
L 1132.656153 -182.007466 
L 1127.823143 -185.652312 
L 1122.990133 -187.655334 
L 1118.157123 -188.013198 
L 1113.324113 -190.35461 
L 1108.491103 -203.082335 
L 1103.658093 -215.022319 
L 1098.825083 -220.809851 
L 1093.992073 -225.854434 
L 1089.159063 -230.39957 
L 1084.326053 -230.451605 
L 1079.493043 -235.747515 
L 1074.660033 -236.879559 
L 1069.827023 -233.858441 
z
" style="stroke: #a9a9a9; stroke-opacity: 0.1"/>
    </defs>
    <g clip-path="url(#pdabcd80e2a)">
     <use xlink:href="#mad5b9d9c2e" x="0" y="323.436915" style="fill: #a9a9a9; fill-opacity: 0.1; stroke: #a9a9a9; stroke-opacity: 0.1"/>
    </g>
   </g>
   <g id="matplotlib.axis_11">
    <g id="xtick_15">
     <g id="line2d_76">
      <g>
       <use xlink:href="#m7065d7f73e" x="1079.493043" y="210.24" style="stroke: #000000; stroke-width: 0.8"/>
      </g>
     </g>
     <g id="text_76">
      <text style="font: 10px 'Arial', sans-serif" transform="translate(1048.52729 251.86503) rotate(-45)">Sampling</text>
     </g>
    </g>
    <g id="xtick_16">
     <g id="line2d_77">
      <g>
       <use xlink:href="#m7065d7f73e" x="1209.984313" y="210.24" style="stroke: #000000; stroke-width: 0.8"/>
      </g>
     </g>
     <g id="text_77">
      <text style="font: 10px 'Arial', sans-serif" transform="translate(1129.194048 301.686227) rotate(-45)">Movement to Lateral Port</text>
     </g>
    </g>
    <g id="text_78">
     <text style="font: 10px 'Arial', sans-serif; text-anchor: middle" x="1147.155183" y="314.249415" transform="rotate(-0 1147.155183 314.249415)">Normalized Time</text>
    </g>
   </g>
   <g id="matplotlib.axis_12">
    <g id="ytick_39">
     <g id="line2d_78">
      <g>
       <use xlink:href="#m8483367656" x="1062.094207" y="207.030939" style="stroke: #000000; stroke-width: 0.8"/>
      </g>
     </g>
     <g id="text_79">
      <text style="font: 10px 'Arial', sans-serif; text-anchor: end" x="1055.094207" y="210.609845" transform="rotate(-0 1055.094207 210.609845)">−1.0</text>
     </g>
    </g>
    <g id="ytick_40">
     <g id="line2d_79">
      <g>
       <use xlink:href="#m8483367656" x="1062.094207" y="184.468472" style="stroke: #000000; stroke-width: 0.8"/>
      </g>
     </g>
     <g id="text_80">
      <text style="font: 10px 'Arial', sans-serif; text-anchor: end" x="1055.094207" y="188.047378" transform="rotate(-0 1055.094207 188.047378)">−0.5</text>
     </g>
    </g>
    <g id="ytick_41">
     <g id="line2d_80">
      <g>
       <use xlink:href="#m8483367656" x="1062.094207" y="161.906005" style="stroke: #000000; stroke-width: 0.8"/>
      </g>
     </g>
     <g id="text_81">
      <text style="font: 10px 'Arial', sans-serif; text-anchor: end" x="1055.094207" y="165.484911" transform="rotate(-0 1055.094207 165.484911)">0.0</text>
     </g>
    </g>
    <g id="ytick_42">
     <g id="line2d_81">
      <g>
       <use xlink:href="#m8483367656" x="1062.094207" y="139.343538" style="stroke: #000000; stroke-width: 0.8"/>
      </g>
     </g>
     <g id="text_82">
      <text style="font: 10px 'Arial', sans-serif; text-anchor: end" x="1055.094207" y="142.922444" transform="rotate(-0 1055.094207 142.922444)">0.5</text>
     </g>
    </g>
    <g id="ytick_43">
     <g id="line2d_82">
      <g>
       <use xlink:href="#m8483367656" x="1062.094207" y="116.78107" style="stroke: #000000; stroke-width: 0.8"/>
      </g>
     </g>
     <g id="text_83">
      <text style="font: 10px 'Arial', sans-serif; text-anchor: end" x="1055.094207" y="120.359977" transform="rotate(-0 1055.094207 120.359977)">1.0</text>
     </g>
    </g>
    <g id="ytick_44">
     <g id="line2d_83">
      <g>
       <use xlink:href="#m8483367656" x="1062.094207" y="94.218603" style="stroke: #000000; stroke-width: 0.8"/>
      </g>
     </g>
     <g id="text_84">
      <text style="font: 10px 'Arial', sans-serif; text-anchor: end" x="1055.094207" y="97.797509" transform="rotate(-0 1055.094207 97.797509)">1.5</text>
     </g>
    </g>
    <g id="ytick_45">
     <g id="line2d_84">
      <g>
       <use xlink:href="#m8483367656" x="1062.094207" y="71.656136" style="stroke: #000000; stroke-width: 0.8"/>
      </g>
     </g>
     <g id="text_85">
      <text style="font: 10px 'Arial', sans-serif; text-anchor: end" x="1055.094207" y="75.235042" transform="rotate(-0 1055.094207 75.235042)">2.0</text>
     </g>
    </g>
    <g id="ytick_46">
     <g id="line2d_85">
      <g>
       <use xlink:href="#m8483367656" x="1062.094207" y="49.093669" style="stroke: #000000; stroke-width: 0.8"/>
      </g>
     </g>
     <g id="text_86">
      <text style="font: 10px 'Arial', sans-serif; text-anchor: end" x="1055.094207" y="52.672575" transform="rotate(-0 1055.094207 52.672575)">2.5</text>
     </g>
    </g>
    <g id="text_87">
     <text style="font: 10px 'Arial', sans-serif; text-anchor: middle" x="1029.248895" y="127.08" transform="rotate(-90 1029.248895 127.08)">Mean Activity</text>
    </g>
   </g>
   <g id="line2d_86">
    <path d="M 1069.827023 99.183557 
L 1074.660033 96.903482 
L 1079.493043 95.105786 
L 1084.326053 102.549064 
L 1089.159063 107.165245 
L 1093.992073 108.87578 
L 1098.825083 111.086273 
L 1103.658093 114.201454 
L 1108.491103 118.342149 
L 1113.324113 126.248672 
L 1118.157123 132.404148 
L 1122.990133 135.382057 
L 1127.823143 140.534007 
L 1132.656153 140.649539 
L 1137.489163 144.143071 
L 1142.322173 149.019524 
L 1147.155183 151.267314 
L 1151.988193 152.143928 
L 1156.821203 150.219924 
L 1161.654213 150.968762 
L 1166.487223 152.288735 
L 1171.320233 156.308278 
L 1176.153243 159.49067 
L 1180.986253 159.855395 
L 1185.819263 155.04842 
L 1190.652273 151.273127 
L 1195.485283 155.27414 
L 1200.318293 157.697709 
L 1205.151303 159.630237 
L 1209.984313 160.262805 
L 1214.817323 155.42295 
L 1219.650333 147.776958 
L 1224.483343 140.000448 
" clip-path="url(#pdabcd80e2a)" style="fill: none; stroke: #808080; stroke-width: 1.5; stroke-linecap: square"/>
   </g>
   <g id="line2d_87">
    <path d="M 1069.827023 107.94135 
L 1074.660033 106.013884 
L 1079.493043 107.025372 
L 1084.326053 109.984397 
L 1089.159063 110.651813 
L 1093.992073 117.306156 
L 1098.825083 120.492491 
L 1103.658093 123.589049 
L 1108.491103 134.574313 
L 1113.324113 148.011715 
L 1118.157123 150.608012 
L 1122.990133 151.533315 
L 1127.823143 153.120129 
L 1132.656153 154.785732 
L 1137.489163 155.275951 
L 1142.322173 160.122902 
L 1147.155183 156.335253 
L 1151.988193 156.41475 
L 1156.821203 154.761903 
L 1161.654213 152.21538 
L 1166.487223 157.153118 
L 1171.320233 160.902643 
L 1176.153243 158.00198 
L 1180.986253 161.447184 
L 1185.819263 156.375479 
L 1190.652273 154.674159 
L 1195.485283 160.182356 
L 1200.318293 161.968674 
L 1205.151303 161.636815 
L 1209.984313 163.427205 
L 1214.817323 161.523743 
L 1219.650333 162.716645 
L 1224.483343 161.40179 
" clip-path="url(#pdabcd80e2a)" style="fill: none; stroke: #a9a9a9; stroke-width: 1.5; stroke-linecap: square"/>
   </g>
   <g id="line2d_88">
    <path d="M 1079.493043 210.24 
L 1079.493043 43.92 
" clip-path="url(#pdabcd80e2a)" style="fill: none; stroke-dasharray: 5.55,2.4; stroke-dashoffset: 0; stroke: #808080; stroke-opacity: 0.7; stroke-width: 1.5"/>
   </g>
   <g id="line2d_89">
    <path d="M 1209.984313 210.24 
L 1209.984313 43.92 
" clip-path="url(#pdabcd80e2a)" style="fill: none; stroke-dasharray: 5.55,2.4; stroke-dashoffset: 0; stroke: #808080; stroke-opacity: 0.7; stroke-width: 1.5"/>
   </g>
   <g id="text_88">
    <text style="font: 12px 'Arial', sans-serif; text-anchor: middle" x="1147.155183" y="37.92" transform="rotate(-0 1147.155183 37.92)">2 Correct Trials</text>
   </g>
   <g id="legend_6">
    <g id="patch_27">
     <path d="M 1089.246588 207.345 
L 1205.063777 207.345 
Q 1206.221777 207.345 1206.221777 206.187 
L 1206.221777 190.385728 
Q 1206.221777 189.227728 1205.063777 189.227728 
L 1089.246588 189.227728 
Q 1088.088588 189.227728 1088.088588 190.385728 
L 1088.088588 206.187 
Q 1088.088588 207.345 1089.246588 207.345 
z
" style="fill: #ffffff; opacity: 0.8; stroke: #cccccc; stroke-linejoin: miter"/>
    </g>
    <g id="line2d_90">
     <path d="M 1090.404588 193.661602 
L 1096.194588 193.661602 
L 1101.984588 193.661602 
" style="fill: none; stroke: #808080; stroke-width: 1.5; stroke-linecap: square"/>
    </g>
    <g id="text_89">
     <text style="font: 5.79px 'Arial', sans-serif; text-anchor: start" x="1106.616588" y="195.688102" transform="rotate(-0 1106.616588 195.688102)">Pref - PrevCount=2 - #Trials=19.0</text>
    </g>
    <g id="line2d_91">
     <path d="M 1090.404588 201.851738 
L 1096.194588 201.851738 
L 1101.984588 201.851738 
" style="fill: none; stroke: #a9a9a9; stroke-width: 1.5; stroke-linecap: square"/>
    </g>
    <g id="text_90">
     <text style="font: 5.79px 'Arial', sans-serif; text-anchor: start" x="1106.616588" y="203.878238" transform="rotate(-0 1106.616588 203.878238)">NonPref - PrevCount=2 - #Trials=12.0</text>
    </g>
   </g>
  </g>
  <g id="axes_7">
   <g id="patch_28">
    <path d="M 1266.240549 210.24 
L 1436.3625 210.24 
L 1436.3625 43.92 
L 1266.240549 43.92 
z
" style="fill: #ffffff"/>
   </g>
   <g id="PolyCollection_10">
    <defs>
     <path id="m91b54bef94" d="M 1273.973365 -257.198014 
L 1273.973365 -225.751797 
L 1278.806375 -226.864411 
L 1283.639385 -225.985813 
L 1288.472395 -220.891094 
L 1293.305405 -212.211188 
L 1298.138415 -207.005548 
L 1302.971425 -201.776871 
L 1307.804435 -196.942987 
L 1312.637445 -189.687522 
L 1317.470455 -188.506615 
L 1322.303465 -189.181006 
L 1327.136475 -188.380559 
L 1331.969484 -185.24742 
L 1336.802494 -185.555269 
L 1341.635504 -184.158784 
L 1346.468514 -180.392762 
L 1351.301524 -180.429009 
L 1356.134534 -178.011861 
L 1360.967544 -174.960492 
L 1365.800554 -173.768182 
L 1370.633564 -172.386844 
L 1375.466574 -171.976722 
L 1380.299584 -171.001477 
L 1385.132594 -170.616138 
L 1389.965604 -170.199811 
L 1394.798614 -167.51491 
L 1399.631624 -167.029702 
L 1404.464634 -167.385496 
L 1409.297644 -170.76603 
L 1414.130654 -171.113645 
L 1418.963664 -169.911765 
L 1423.796674 -169.266889 
L 1428.629684 -170.79576 
L 1428.629684 -182.921101 
L 1428.629684 -182.921101 
L 1423.796674 -180.695659 
L 1418.963664 -181.730782 
L 1414.130654 -183.542019 
L 1409.297644 -183.406649 
L 1404.464634 -180.187343 
L 1399.631624 -180.07523 
L 1394.798614 -181.405768 
L 1389.965604 -184.278716 
L 1385.132594 -185.55471 
L 1380.299584 -186.279209 
L 1375.466574 -188.045089 
L 1370.633564 -189.631927 
L 1365.800554 -190.925549 
L 1360.967544 -192.285009 
L 1356.134534 -196.264144 
L 1351.301524 -199.001436 
L 1346.468514 -199.961055 
L 1341.635504 -204.519096 
L 1336.802494 -206.10716 
L 1331.969484 -206.719955 
L 1327.136475 -210.77964 
L 1322.303465 -212.789539 
L 1317.470455 -212.554528 
L 1312.637445 -214.287274 
L 1307.804435 -223.183461 
L 1302.971425 -229.604277 
L 1298.138415 -235.30688 
L 1293.305405 -241.602723 
L 1288.472395 -251.506918 
L 1283.639385 -256.502544 
L 1278.806375 -257.73715 
L 1273.973365 -257.198014 
z
" style="stroke: #808080; stroke-opacity: 0.1"/>
    </defs>
    <g clip-path="url(#pb6cfdfc5da)">
     <use xlink:href="#m91b54bef94" x="0" y="323.436915" style="fill: #808080; fill-opacity: 0.1; stroke: #808080; stroke-opacity: 0.1"/>
    </g>
   </g>
   <g id="PolyCollection_11">
    <defs>
     <path id="m0421221929" d="M 1273.973365 -221.606597 
L 1273.973365 -202.673656 
L 1278.806375 -203.912549 
L 1283.639385 -202.289721 
L 1288.472395 -198.706492 
L 1293.305405 -191.381413 
L 1298.138415 -185.414635 
L 1302.971425 -183.127686 
L 1307.804435 -178.956453 
L 1312.637445 -175.446667 
L 1317.470455 -173.902601 
L 1322.303465 -172.739837 
L 1327.136475 -170.157141 
L 1331.969484 -169.918325 
L 1336.802494 -168.763397 
L 1341.635504 -166.511976 
L 1346.468514 -164.004758 
L 1351.301524 -163.741945 
L 1356.134534 -162.177204 
L 1360.967544 -160.732258 
L 1365.800554 -156.939643 
L 1370.633564 -158.978094 
L 1375.466574 -160.301342 
L 1380.299584 -159.34927 
L 1385.132594 -158.982973 
L 1389.965604 -158.193997 
L 1394.798614 -156.705425 
L 1399.631624 -153.496814 
L 1404.464634 -153.107814 
L 1409.297644 -154.115028 
L 1414.130654 -156.023963 
L 1418.963664 -159.773658 
L 1423.796674 -159.625588 
L 1428.629684 -159.469394 
L 1428.629684 -166.811035 
L 1428.629684 -166.811035 
L 1423.796674 -166.970104 
L 1418.963664 -167.350158 
L 1414.130654 -163.498713 
L 1409.297644 -161.513399 
L 1404.464634 -160.732073 
L 1399.631624 -161.640762 
L 1394.798614 -165.695369 
L 1389.965604 -167.608121 
L 1385.132594 -168.136209 
L 1380.299584 -168.619992 
L 1375.466574 -169.906478 
L 1370.633564 -168.981045 
L 1365.800554 -167.286026 
L 1360.967544 -171.617004 
L 1356.134534 -173.420811 
L 1351.301524 -175.475368 
L 1346.468514 -175.954472 
L 1341.635504 -178.867688 
L 1336.802494 -181.269655 
L 1331.969484 -183.27609 
L 1327.136475 -184.662707 
L 1322.303465 -187.603302 
L 1317.470455 -188.158797 
L 1312.637445 -189.831913 
L 1307.804435 -193.988497 
L 1302.971425 -199.326186 
L 1298.138415 -202.945817 
L 1293.305405 -210.148082 
L 1288.472395 -218.834078 
L 1283.639385 -222.721561 
L 1278.806375 -223.821915 
L 1273.973365 -221.606597 
z
" style="stroke: #a9a9a9; stroke-opacity: 0.1"/>
    </defs>
    <g clip-path="url(#pb6cfdfc5da)">
     <use xlink:href="#m0421221929" x="0" y="323.436915" style="fill: #a9a9a9; fill-opacity: 0.1; stroke: #a9a9a9; stroke-opacity: 0.1"/>
    </g>
   </g>
   <g id="matplotlib.axis_13">
    <g id="xtick_17">
     <g id="line2d_92">
      <g>
       <use xlink:href="#m7065d7f73e" x="1283.639385" y="210.24" style="stroke: #000000; stroke-width: 0.8"/>
      </g>
     </g>
     <g id="text_91">
      <text style="font: 10px 'Arial', sans-serif" transform="translate(1252.673632 251.86503) rotate(-45)">Sampling</text>
     </g>
    </g>
    <g id="xtick_18">
     <g id="line2d_93">
      <g>
       <use xlink:href="#m7065d7f73e" x="1414.130654" y="210.24" style="stroke: #000000; stroke-width: 0.8"/>
      </g>
     </g>
     <g id="text_92">
      <text style="font: 10px 'Arial', sans-serif" transform="translate(1333.34039 301.686227) rotate(-45)">Movement to Lateral Port</text>
     </g>
    </g>
    <g id="text_93">
     <text style="font: 10px 'Arial', sans-serif; text-anchor: middle" x="1351.301524" y="314.249415" transform="rotate(-0 1351.301524 314.249415)">Normalized Time</text>
    </g>
   </g>
   <g id="matplotlib.axis_14">
    <g id="ytick_47">
     <g id="line2d_94">
      <g>
       <use xlink:href="#m8483367656" x="1266.240549" y="207.030939" style="stroke: #000000; stroke-width: 0.8"/>
      </g>
     </g>
     <g id="text_94">
      <text style="font: 10px 'Arial', sans-serif; text-anchor: end" x="1259.240549" y="210.609845" transform="rotate(-0 1259.240549 210.609845)">−1.0</text>
     </g>
    </g>
    <g id="ytick_48">
     <g id="line2d_95">
      <g>
       <use xlink:href="#m8483367656" x="1266.240549" y="184.468472" style="stroke: #000000; stroke-width: 0.8"/>
      </g>
     </g>
     <g id="text_95">
      <text style="font: 10px 'Arial', sans-serif; text-anchor: end" x="1259.240549" y="188.047378" transform="rotate(-0 1259.240549 188.047378)">−0.5</text>
     </g>
    </g>
    <g id="ytick_49">
     <g id="line2d_96">
      <g>
       <use xlink:href="#m8483367656" x="1266.240549" y="161.906005" style="stroke: #000000; stroke-width: 0.8"/>
      </g>
     </g>
     <g id="text_96">
      <text style="font: 10px 'Arial', sans-serif; text-anchor: end" x="1259.240549" y="165.484911" transform="rotate(-0 1259.240549 165.484911)">0.0</text>
     </g>
    </g>
    <g id="ytick_50">
     <g id="line2d_97">
      <g>
       <use xlink:href="#m8483367656" x="1266.240549" y="139.343538" style="stroke: #000000; stroke-width: 0.8"/>
      </g>
     </g>
     <g id="text_97">
      <text style="font: 10px 'Arial', sans-serif; text-anchor: end" x="1259.240549" y="142.922444" transform="rotate(-0 1259.240549 142.922444)">0.5</text>
     </g>
    </g>
    <g id="ytick_51">
     <g id="line2d_98">
      <g>
       <use xlink:href="#m8483367656" x="1266.240549" y="116.78107" style="stroke: #000000; stroke-width: 0.8"/>
      </g>
     </g>
     <g id="text_98">
      <text style="font: 10px 'Arial', sans-serif; text-anchor: end" x="1259.240549" y="120.359977" transform="rotate(-0 1259.240549 120.359977)">1.0</text>
     </g>
    </g>
    <g id="ytick_52">
     <g id="line2d_99">
      <g>
       <use xlink:href="#m8483367656" x="1266.240549" y="94.218603" style="stroke: #000000; stroke-width: 0.8"/>
      </g>
     </g>
     <g id="text_99">
      <text style="font: 10px 'Arial', sans-serif; text-anchor: end" x="1259.240549" y="97.797509" transform="rotate(-0 1259.240549 97.797509)">1.5</text>
     </g>
    </g>
    <g id="ytick_53">
     <g id="line2d_100">
      <g>
       <use xlink:href="#m8483367656" x="1266.240549" y="71.656136" style="stroke: #000000; stroke-width: 0.8"/>
      </g>
     </g>
     <g id="text_100">
      <text style="font: 10px 'Arial', sans-serif; text-anchor: end" x="1259.240549" y="75.235042" transform="rotate(-0 1259.240549 75.235042)">2.0</text>
     </g>
    </g>
    <g id="ytick_54">
     <g id="line2d_101">
      <g>
       <use xlink:href="#m8483367656" x="1266.240549" y="49.093669" style="stroke: #000000; stroke-width: 0.8"/>
      </g>
     </g>
     <g id="text_101">
      <text style="font: 10px 'Arial', sans-serif; text-anchor: end" x="1259.240549" y="52.672575" transform="rotate(-0 1259.240549 52.672575)">2.5</text>
     </g>
    </g>
    <g id="text_102">
     <text style="font: 10px 'Arial', sans-serif; text-anchor: middle" x="1233.395236" y="127.08" transform="rotate(-90 1233.395236 127.08)">Mean Activity</text>
    </g>
   </g>
   <g id="line2d_102">
    <path d="M 1273.973365 81.962009 
L 1278.806375 81.136134 
L 1283.639385 82.192738 
L 1288.472395 87.237909 
L 1293.305405 96.529959 
L 1298.138415 102.280701 
L 1302.971425 107.746339 
L 1307.804435 113.373691 
L 1312.637445 121.449516 
L 1317.470455 122.906342 
L 1322.303465 122.451642 
L 1327.136475 123.856815 
L 1331.969484 127.453229 
L 1336.802494 127.6057 
L 1341.635504 129.097975 
L 1346.468514 133.260007 
L 1351.301524 133.721692 
L 1356.134534 136.298912 
L 1360.967544 139.814164 
L 1365.800554 141.090049 
L 1370.633564 142.427529 
L 1375.466574 143.42601 
L 1380.299584 144.796571 
L 1385.132594 145.351491 
L 1389.965604 146.197652 
L 1394.798614 148.976576 
L 1399.631624 149.884449 
L 1404.464634 149.650494 
L 1409.297644 146.350575 
L 1414.130654 146.109083 
L 1418.963664 147.615641 
L 1423.796674 148.45564 
L 1428.629684 146.578484 
" clip-path="url(#pb6cfdfc5da)" style="fill: none; stroke: #808080; stroke-width: 1.5; stroke-linecap: square"/>
   </g>
   <g id="line2d_103">
    <path d="M 1273.973365 111.296787 
L 1278.806375 109.569684 
L 1283.639385 110.931274 
L 1288.472395 114.66663 
L 1293.305405 122.672167 
L 1298.138415 129.256689 
L 1302.971425 132.209979 
L 1307.804435 136.96444 
L 1312.637445 140.797625 
L 1317.470455 142.406216 
L 1322.303465 143.265345 
L 1327.136475 146.02699 
L 1331.969484 146.839707 
L 1336.802494 148.420388 
L 1341.635504 150.747083 
L 1346.468514 153.457299 
L 1351.301524 153.828258 
L 1356.134534 155.637907 
L 1360.967544 157.262284 
L 1365.800554 161.32408 
L 1370.633564 159.457345 
L 1375.466574 158.333005 
L 1380.299584 159.452284 
L 1385.132594 159.877324 
L 1389.965604 160.535855 
L 1394.798614 162.236518 
L 1399.631624 165.868126 
L 1404.464634 166.516971 
L 1409.297644 165.622701 
L 1414.130654 163.675577 
L 1418.963664 159.875007 
L 1423.796674 160.139068 
L 1428.629684 160.2967 
" clip-path="url(#pb6cfdfc5da)" style="fill: none; stroke: #a9a9a9; stroke-width: 1.5; stroke-linecap: square"/>
   </g>
   <g id="line2d_104">
    <path d="M 1283.639385 210.24 
L 1283.639385 43.92 
" clip-path="url(#pb6cfdfc5da)" style="fill: none; stroke-dasharray: 5.55,2.4; stroke-dashoffset: 0; stroke: #808080; stroke-opacity: 0.7; stroke-width: 1.5"/>
   </g>
   <g id="line2d_105">
    <path d="M 1414.130654 210.24 
L 1414.130654 43.92 
" clip-path="url(#pb6cfdfc5da)" style="fill: none; stroke-dasharray: 5.55,2.4; stroke-dashoffset: 0; stroke: #808080; stroke-opacity: 0.7; stroke-width: 1.5"/>
   </g>
   <g id="text_103">
    <text style="font: 12px 'Arial', sans-serif; text-anchor: middle" x="1351.301524" y="37.92" transform="rotate(-0 1351.301524 37.92)">3 Correct Trials</text>
   </g>
   <g id="legend_7">
    <g id="patch_29">
     <path d="M 1293.39293 207.345 
L 1409.210119 207.345 
Q 1410.368119 207.345 1410.368119 206.187 
L 1410.368119 190.385728 
Q 1410.368119 189.227728 1409.210119 189.227728 
L 1293.39293 189.227728 
Q 1292.23493 189.227728 1292.23493 190.385728 
L 1292.23493 206.187 
Q 1292.23493 207.345 1293.39293 207.345 
z
" style="fill: #ffffff; opacity: 0.8; stroke: #cccccc; stroke-linejoin: miter"/>
    </g>
    <g id="line2d_106">
     <path d="M 1294.55093 193.661602 
L 1300.34093 193.661602 
L 1306.13093 193.661602 
" style="fill: none; stroke: #808080; stroke-width: 1.5; stroke-linecap: square"/>
    </g>
    <g id="text_104">
     <text style="font: 5.79px 'Arial', sans-serif; text-anchor: start" x="1310.76293" y="195.688102" transform="rotate(-0 1310.76293 195.688102)">Pref - PrevCount=3 - #Trials=48.0</text>
    </g>
    <g id="line2d_107">
     <path d="M 1294.55093 201.851738 
L 1300.34093 201.851738 
L 1306.13093 201.851738 
" style="fill: none; stroke: #a9a9a9; stroke-width: 1.5; stroke-linecap: square"/>
    </g>
    <g id="text_105">
     <text style="font: 5.79px 'Arial', sans-serif; text-anchor: start" x="1310.76293" y="203.878238" transform="rotate(-0 1310.76293 203.878238)">NonPref - PrevCount=3 - #Trials=69.0</text>
    </g>
   </g>
  </g>
  <g id="text_106">
   <text style="font: 12px 'Arial', sans-serif; text-anchor: middle" x="716.3625" y="15.935625" transform="rotate(-0 716.3625 15.935625)">Balance Change - ALM - GP4_85_s9_L70_D250_ALM_9 - PrevIsEasy</text>
  </g>
 </g>
 <defs>
  <clipPath id="p50a79c86e6">
   <rect x="41.3625" y="43.92" width="170.121951" height="166.32"/>
  </clipPath>
  <clipPath id="pc36a6141a4">
   <rect x="245.508841" y="43.92" width="170.121951" height="166.32"/>
  </clipPath>
  <clipPath id="pe1bd1902a0">
   <rect x="449.655183" y="43.92" width="170.121951" height="166.32"/>
  </clipPath>
  <clipPath id="pc28859f7a7">
   <rect x="653.801524" y="43.92" width="170.121951" height="166.32"/>
  </clipPath>
  <clipPath id="pfa2dfa5463">
   <rect x="857.947866" y="43.92" width="170.121951" height="166.32"/>
  </clipPath>
  <clipPath id="pdabcd80e2a">
   <rect x="1062.094207" y="43.92" width="170.121951" height="166.32"/>
  </clipPath>
  <clipPath id="pb6cfdfc5da">
   <rect x="1266.240549" y="43.92" width="170.121951" height="166.32"/>
  </clipPath>
 </defs>
</svg>
