<?xml version="1.0" encoding="utf-8" standalone="no"?>
<!DOCTYPE svg PUBLIC "-//W3C//DTD SVG 1.1//EN"
  "http://www.w3.org/Graphics/SVG/1.1/DTD/svg11.dtd">
<svg xmlns:xlink="http://www.w3.org/1999/xlink" width="1443.5625pt" height="323.436915pt" viewBox="0 0 1443.5625 323.436915" xmlns="http://www.w3.org/2000/svg" version="1.1">
 <metadata>
  <rdf:RDF xmlns:dc="http://purl.org/dc/elements/1.1/" xmlns:cc="http://creativecommons.org/ns#" xmlns:rdf="http://www.w3.org/1999/02/22-rdf-syntax-ns#">
   <cc:Work>
    <dc:type rdf:resource="http://purl.org/dc/dcmitype/StillImage"/>
    <dc:date>2025-12-27T14:02:29.119156</dc:date>
    <dc:format>image/svg+xml</dc:format>
    <dc:creator>
     <cc:Agent>
      <dc:title>Matplotlib v3.8.0, https://matplotlib.org/</dc:title>
     </cc:Agent>
    </dc:creator>
   </cc:Work>
  </rdf:RDF>
 </metadata>
 <defs>
  <style type="text/css">*{stroke-linejoin: round; stroke-linecap: butt}</style>
 </defs>
 <g id="figure_1">
  <g id="patch_1">
   <path d="M 0 323.436915 
L 1443.5625 323.436915 
L 1443.5625 0 
L 0 0 
z
" style="fill: #ffffff"/>
  </g>
  <g id="axes_1">
   <g id="patch_2">
    <path d="M 41.3625 210.24 
L 211.484451 210.24 
L 211.484451 43.92 
L 41.3625 43.92 
z
" style="fill: #ffffff"/>
   </g>
   <g id="patch_3">
    <path d="M 49.095316 210.24 
L 58.192747 210.24 
L 58.192747 118.244582 
L 49.095316 118.244582 
z
" clip-path="url(#pbb78e5ab01)" style="fill: #ff00ff"/>
   </g>
   <g id="patch_4">
    <path d="M 71.838892 210.24 
L 80.936323 210.24 
L 80.936323 92.36532 
L 71.838892 92.36532 
z
" clip-path="url(#pbb78e5ab01)" style="fill: #ff00ff"/>
   </g>
   <g id="patch_5">
    <path d="M 94.582469 210.24 
L 103.679899 210.24 
L 103.679899 64.755424 
L 94.582469 64.755424 
z
" clip-path="url(#pbb78e5ab01)" style="fill: #ff00ff"/>
   </g>
   <g id="patch_6">
    <path d="M 0 0 
z
" clip-path="url(#pbb78e5ab01)" style="fill: #ff00ff"/>
   </g>
   <g id="patch_7">
    <path d="M 0 0 
z
" clip-path="url(#pbb78e5ab01)" style="fill: #ff00ff"/>
   </g>
   <g id="patch_8">
    <path d="M 0 0 
z
" clip-path="url(#pbb78e5ab01)" style="fill: #ff00ff"/>
   </g>
   <g id="patch_9">
    <path d="M 0 0 
z
" clip-path="url(#pbb78e5ab01)" style="fill: #00ffff"/>
   </g>
   <g id="patch_10">
    <path d="M 0 0 
z
" clip-path="url(#pbb78e5ab01)" style="fill: #00ffff"/>
   </g>
   <g id="patch_11">
    <path d="M 0 0 
z
" clip-path="url(#pbb78e5ab01)" style="fill: #00ffff"/>
   </g>
   <g id="patch_12">
    <path d="M 149.167052 210.24 
L 158.264483 210.24 
L 158.264483 154.177751 
L 149.167052 154.177751 
z
" clip-path="url(#pbb78e5ab01)" style="fill: #00ffff"/>
   </g>
   <g id="patch_13">
    <path d="M 171.910628 210.24 
L 181.008059 210.24 
L 181.008059 200.628285 
L 171.910628 200.628285 
z
" clip-path="url(#pbb78e5ab01)" style="fill: #00ffff"/>
   </g>
   <g id="patch_14">
    <path d="M 194.654205 210.24 
L 203.751635 210.24 
L 203.751635 206.43232 
L 194.654205 206.43232 
z
" clip-path="url(#pbb78e5ab01)" style="fill: #00ffff"/>
   </g>
   <g id="matplotlib.axis_1">
    <g id="xtick_1">
     <g id="line2d_1">
      <defs>
       <path id="m3061924d08" d="M 0 0 
L 0 3.5 
" style="stroke: #000000; stroke-width: 0.8"/>
      </defs>
      <g>
       <use xlink:href="#m3061924d08" x="58.192747" y="210.24" style="stroke: #000000; stroke-width: 0.8"/>
      </g>
     </g>
     <g id="text_1">
      <text style="font: 10px 'Arial', sans-serif; text-anchor: middle" x="58.192747" y="224.397813" transform="rotate(-0 58.192747 224.397813)">−3</text>
     </g>
    </g>
    <g id="xtick_2">
     <g id="line2d_2">
      <g>
       <use xlink:href="#m3061924d08" x="80.936323" y="210.24" style="stroke: #000000; stroke-width: 0.8"/>
      </g>
     </g>
     <g id="text_2">
      <text style="font: 10px 'Arial', sans-serif; text-anchor: middle" x="80.936323" y="224.397813" transform="rotate(-0 80.936323 224.397813)">−2</text>
     </g>
    </g>
    <g id="xtick_3">
     <g id="line2d_3">
      <g>
       <use xlink:href="#m3061924d08" x="103.679899" y="210.24" style="stroke: #000000; stroke-width: 0.8"/>
      </g>
     </g>
     <g id="text_3">
      <text style="font: 10px 'Arial', sans-serif; text-anchor: middle" x="103.679899" y="224.397813" transform="rotate(-0 103.679899 224.397813)">−1</text>
     </g>
    </g>
    <g id="xtick_4">
     <g id="line2d_4">
      <g>
       <use xlink:href="#m3061924d08" x="149.167052" y="210.24" style="stroke: #000000; stroke-width: 0.8"/>
      </g>
     </g>
     <g id="text_4">
      <text style="font: 10px 'Arial', sans-serif; text-anchor: middle" x="149.167052" y="224.397813" transform="rotate(-0 149.167052 224.397813)">1</text>
     </g>
    </g>
    <g id="xtick_5">
     <g id="line2d_5">
      <g>
       <use xlink:href="#m3061924d08" x="171.910628" y="210.24" style="stroke: #000000; stroke-width: 0.8"/>
      </g>
     </g>
     <g id="text_5">
      <text style="font: 10px 'Arial', sans-serif; text-anchor: middle" x="171.910628" y="224.397813" transform="rotate(-0 171.910628 224.397813)">2</text>
     </g>
    </g>
    <g id="xtick_6">
     <g id="line2d_6">
      <g>
       <use xlink:href="#m3061924d08" x="194.654205" y="210.24" style="stroke: #000000; stroke-width: 0.8"/>
      </g>
     </g>
     <g id="text_6">
      <text style="font: 10px 'Arial', sans-serif; text-anchor: middle" x="194.654205" y="224.397813" transform="rotate(-0 194.654205 224.397813)">3</text>
     </g>
    </g>
    <g id="text_7">
     <text style="font: 10px 'Arial', sans-serif; text-anchor: middle" x="126.423476" y="237.543125" transform="rotate(-0 126.423476 237.543125)">PrevOutcomeCount</text>
    </g>
   </g>
   <g id="matplotlib.axis_2">
    <g id="ytick_1">
     <g id="line2d_7">
      <defs>
       <path id="maa02f5a10c" d="M 0 0 
L -3.5 0 
" style="stroke: #000000; stroke-width: 0.8"/>
      </defs>
      <g>
       <use xlink:href="#maa02f5a10c" x="41.3625" y="210.24" style="stroke: #000000; stroke-width: 0.8"/>
      </g>
     </g>
     <g id="text_8">
      <text style="font: 10px 'Arial', sans-serif; text-anchor: end" x="34.3625" y="213.818906" transform="rotate(-0 34.3625 213.818906)">0.0</text>
     </g>
    </g>
    <g id="ytick_2">
     <g id="line2d_8">
      <g>
       <use xlink:href="#maa02f5a10c" x="41.3625" y="171.694536" style="stroke: #000000; stroke-width: 0.8"/>
      </g>
     </g>
     <g id="text_9">
      <text style="font: 10px 'Arial', sans-serif; text-anchor: end" x="34.3625" y="175.273442" transform="rotate(-0 34.3625 175.273442)">0.5</text>
     </g>
    </g>
    <g id="ytick_3">
     <g id="line2d_9">
      <g>
       <use xlink:href="#maa02f5a10c" x="41.3625" y="133.149072" style="stroke: #000000; stroke-width: 0.8"/>
      </g>
     </g>
     <g id="text_10">
      <text style="font: 10px 'Arial', sans-serif; text-anchor: end" x="34.3625" y="136.727978" transform="rotate(-0 34.3625 136.727978)">1.0</text>
     </g>
    </g>
    <g id="ytick_4">
     <g id="line2d_10">
      <g>
       <use xlink:href="#maa02f5a10c" x="41.3625" y="94.603607" style="stroke: #000000; stroke-width: 0.8"/>
      </g>
     </g>
     <g id="text_11">
      <text style="font: 10px 'Arial', sans-serif; text-anchor: end" x="34.3625" y="98.182514" transform="rotate(-0 34.3625 98.182514)">1.5</text>
     </g>
    </g>
    <g id="ytick_5">
     <g id="line2d_11">
      <g>
       <use xlink:href="#maa02f5a10c" x="41.3625" y="56.058143" style="stroke: #000000; stroke-width: 0.8"/>
      </g>
     </g>
     <g id="text_12">
      <text style="font: 10px 'Arial', sans-serif; text-anchor: end" x="34.3625" y="59.637049" transform="rotate(-0 34.3625 59.637049)">2.0</text>
     </g>
    </g>
    <g id="text_13">
     <text style="font: 10px 'Arial', sans-serif; text-anchor: middle" x="14.357813" y="127.08" transform="rotate(-90 14.357813 127.08)">Max Activity</text>
    </g>
   </g>
   <g id="LineCollection_1">
    <path d="M 53.644031 169.629044 
L 53.644031 66.860121 
" clip-path="url(#pbb78e5ab01)" style="fill: none; stroke: #000000; stroke-width: 1.5"/>
    <path d="M 76.387608 110.890164 
L 76.387608 73.840477 
" clip-path="url(#pbb78e5ab01)" style="fill: none; stroke: #000000; stroke-width: 1.5"/>
    <path d="M 99.131184 77.670849 
L 99.131184 51.84 
" clip-path="url(#pbb78e5ab01)" style="fill: none; stroke: #000000; stroke-width: 1.5"/>
    <path clip-path="url(#pbb78e5ab01)" style="fill: none; stroke: #000000; stroke-width: 1.5"/>
    <path clip-path="url(#pbb78e5ab01)" style="fill: none; stroke: #000000; stroke-width: 1.5"/>
    <path clip-path="url(#pbb78e5ab01)" style="fill: none; stroke: #000000; stroke-width: 1.5"/>
   </g>
   <g id="LineCollection_2">
    <path clip-path="url(#pbb78e5ab01)" style="fill: none; stroke: #000000; stroke-width: 1.5"/>
    <path clip-path="url(#pbb78e5ab01)" style="fill: none; stroke: #000000; stroke-width: 1.5"/>
    <path clip-path="url(#pbb78e5ab01)" style="fill: none; stroke: #000000; stroke-width: 1.5"/>
    <path d="M 153.715767 163.261588 
L 153.715767 145.093914 
" clip-path="url(#pbb78e5ab01)" style="fill: none; stroke: #000000; stroke-width: 1.5"/>
    <path d="M 176.459344 207.10876 
L 176.459344 194.147809 
" clip-path="url(#pbb78e5ab01)" style="fill: none; stroke: #000000; stroke-width: 1.5"/>
    <path d="M 199.20292 210.182191 
L 199.20292 202.68245 
" clip-path="url(#pbb78e5ab01)" style="fill: none; stroke: #000000; stroke-width: 1.5"/>
   </g>
   <g id="line2d_12">
    <path d="M 41.3625 210.24 
L 211.484451 210.24 
" clip-path="url(#pbb78e5ab01)" style="fill: none; stroke-dasharray: 5.55,2.4; stroke-dashoffset: 0; stroke: #808080; stroke-width: 1.5"/>
   </g>
   <g id="legend_1">
    <g id="patch_15">
     <path d="M 132.471951 80.210625 
L 204.484451 80.210625 
Q 206.484451 80.210625 206.484451 78.210625 
L 206.484451 50.92 
Q 206.484451 48.92 204.484451 48.92 
L 132.471951 48.92 
Q 130.471951 48.92 130.471951 50.92 
L 130.471951 78.210625 
Q 130.471951 80.210625 132.471951 80.210625 
z
" style="fill: #ffffff; opacity: 0.8; stroke: #cccccc; stroke-linejoin: miter"/>
    </g>
    <g id="patch_16">
     <path d="M 134.471951 60.077812 
L 154.471951 60.077812 
L 154.471951 53.077812 
L 134.471951 53.077812 
z
" style="fill: #ff00ff"/>
    </g>
    <g id="text_14">
     <text style="font: 10px 'Arial', sans-serif; text-anchor: start" x="162.471951" y="60.077812" transform="rotate(-0 162.471951 60.077812)">Pref</text>
    </g>
    <g id="patch_17">
     <path d="M 134.471951 74.223125 
L 154.471951 74.223125 
L 154.471951 67.223125 
L 134.471951 67.223125 
z
" style="fill: #00ffff"/>
    </g>
    <g id="text_15">
     <text style="font: 10px 'Arial', sans-serif; text-anchor: start" x="162.471951" y="74.223125" transform="rotate(-0 162.471951 74.223125)">Non-Pref</text>
    </g>
   </g>
  </g>
  <g id="axes_2">
   <g id="patch_18">
    <path d="M 245.508841 210.24 
L 415.630793 210.24 
L 415.630793 43.92 
L 245.508841 43.92 
z
" style="fill: #ffffff"/>
   </g>
   <g id="PolyCollection_1">
    <defs>
     <path id="m9bc5339e32" d="M 253.241657 -177.528036 
L 253.241657 -139.300656 
L 258.074667 -144.282878 
L 262.907677 -152.315378 
L 267.740687 -163.201417 
L 272.573697 -167.783079 
L 277.406707 -156.993981 
L 282.239717 -149.078197 
L 287.072727 -140.859354 
L 291.905737 -145.21833 
L 296.738747 -155.441169 
L 301.571757 -156.347009 
L 306.404767 -155.3451 
L 311.237777 -154.204774 
L 316.070787 -145.388321 
L 320.903797 -135.887333 
L 325.736807 -130.956677 
L 330.569817 -129.761174 
L 335.402827 -132.814145 
L 340.235837 -131.936062 
L 345.068847 -121.473699 
L 349.901857 -117.21714 
L 354.734867 -127.190134 
L 359.567877 -144.225334 
L 364.400887 -153.937028 
L 369.233897 -146.765224 
L 374.066907 -141.07785 
L 378.899917 -142.363084 
L 383.732927 -146.179964 
L 388.565937 -149.827812 
L 393.398947 -149.157484 
L 398.231957 -142.753971 
L 403.064967 -142.151572 
L 407.897977 -150.15891 
L 407.897977 -246.82038 
L 407.897977 -246.82038 
L 403.064967 -268.41714 
L 398.231957 -250.967608 
L 393.398947 -211.267096 
L 388.565937 -173.378565 
L 383.732927 -148.254759 
L 378.899917 -146.14387 
L 374.066907 -154.93858 
L 369.233897 -158.104131 
L 364.400887 -155.089937 
L 359.567877 -152.339723 
L 354.734867 -144.301858 
L 349.901857 -141.98517 
L 345.068847 -146.048982 
L 340.235837 -145.221927 
L 335.402827 -139.055036 
L 330.569817 -137.308813 
L 325.736807 -148.672116 
L 320.903797 -159.516825 
L 316.070787 -159.661664 
L 311.237777 -156.179373 
L 306.404767 -159.771464 
L 301.571757 -161.34699 
L 296.738747 -156.382368 
L 291.905737 -153.598737 
L 287.072727 -149.309457 
L 282.239717 -150.41303 
L 277.406707 -165.391107 
L 272.573697 -168.392651 
L 267.740687 -176.125605 
L 262.907677 -186.284509 
L 258.074667 -188.858431 
L 253.241657 -177.528036 
z
" style="stroke: #ff00ff; stroke-opacity: 0.1"/>
    </defs>
    <g clip-path="url(#pee024da4e0)">
     <use xlink:href="#m9bc5339e32" x="0" y="323.436915" style="fill: #ff00ff; fill-opacity: 0.1; stroke: #ff00ff; stroke-opacity: 0.1"/>
    </g>
   </g>
   <g id="matplotlib.axis_3">
    <g id="xtick_7">
     <g id="line2d_13">
      <g>
       <use xlink:href="#m3061924d08" x="262.907677" y="210.24" style="stroke: #000000; stroke-width: 0.8"/>
      </g>
     </g>
     <g id="text_16">
      <text style="font: 10px 'Arial', sans-serif" transform="translate(231.941925 251.86503) rotate(-45)">Sampling</text>
     </g>
    </g>
    <g id="xtick_8">
     <g id="line2d_14">
      <g>
       <use xlink:href="#m3061924d08" x="393.398947" y="210.24" style="stroke: #000000; stroke-width: 0.8"/>
      </g>
     </g>
     <g id="text_17">
      <text style="font: 10px 'Arial', sans-serif" transform="translate(312.608682 301.686227) rotate(-45)">Movement to Lateral Port</text>
     </g>
    </g>
    <g id="text_18">
     <text style="font: 10px 'Arial', sans-serif; text-anchor: middle" x="330.569817" y="314.249415" transform="rotate(-0 330.569817 314.249415)">Normalized Time</text>
    </g>
   </g>
   <g id="matplotlib.axis_4">
    <g id="ytick_6">
     <g id="line2d_15">
      <g>
       <use xlink:href="#maa02f5a10c" x="245.508841" y="195.857551" style="stroke: #000000; stroke-width: 0.8"/>
      </g>
     </g>
     <g id="text_19">
      <text style="font: 10px 'Arial', sans-serif; text-anchor: end" x="238.508841" y="199.436457" transform="rotate(-0 238.508841 199.436457)">−0.5</text>
     </g>
    </g>
    <g id="ytick_7">
     <g id="line2d_16">
      <g>
       <use xlink:href="#maa02f5a10c" x="245.508841" y="166.017521" style="stroke: #000000; stroke-width: 0.8"/>
      </g>
     </g>
     <g id="text_20">
      <text style="font: 10px 'Arial', sans-serif; text-anchor: end" x="238.508841" y="169.596428" transform="rotate(-0 238.508841 169.596428)">0.0</text>
     </g>
    </g>
    <g id="ytick_8">
     <g id="line2d_17">
      <g>
       <use xlink:href="#maa02f5a10c" x="245.508841" y="136.177492" style="stroke: #000000; stroke-width: 0.8"/>
      </g>
     </g>
     <g id="text_21">
      <text style="font: 10px 'Arial', sans-serif; text-anchor: end" x="238.508841" y="139.756398" transform="rotate(-0 238.508841 139.756398)">0.5</text>
     </g>
    </g>
    <g id="ytick_9">
     <g id="line2d_18">
      <g>
       <use xlink:href="#maa02f5a10c" x="245.508841" y="106.337462" style="stroke: #000000; stroke-width: 0.8"/>
      </g>
     </g>
     <g id="text_22">
      <text style="font: 10px 'Arial', sans-serif; text-anchor: end" x="238.508841" y="109.916368" transform="rotate(-0 238.508841 109.916368)">1.0</text>
     </g>
    </g>
    <g id="ytick_10">
     <g id="line2d_19">
      <g>
       <use xlink:href="#maa02f5a10c" x="245.508841" y="76.497433" style="stroke: #000000; stroke-width: 0.8"/>
      </g>
     </g>
     <g id="text_23">
      <text style="font: 10px 'Arial', sans-serif; text-anchor: end" x="238.508841" y="80.076339" transform="rotate(-0 238.508841 80.076339)">1.5</text>
     </g>
    </g>
    <g id="ytick_11">
     <g id="line2d_20">
      <g>
       <use xlink:href="#maa02f5a10c" x="245.508841" y="46.657403" style="stroke: #000000; stroke-width: 0.8"/>
      </g>
     </g>
     <g id="text_24">
      <text style="font: 10px 'Arial', sans-serif; text-anchor: end" x="238.508841" y="50.236309" transform="rotate(-0 238.508841 50.236309)">2.0</text>
     </g>
    </g>
    <g id="text_25">
     <text style="font: 10px 'Arial', sans-serif; text-anchor: middle" x="212.663529" y="127.08" transform="rotate(-90 212.663529 127.08)">Mean Activity</text>
    </g>
   </g>
   <g id="line2d_21">
    <path d="M 253.241657 165.022568 
L 258.074667 156.86626 
L 262.907677 154.136972 
L 267.740687 153.773403 
L 272.573697 155.34905 
L 277.406707 162.24437 
L 282.239717 173.691301 
L 287.072727 178.352509 
L 291.905737 174.028381 
L 296.738747 167.525146 
L 301.571757 164.589915 
L 306.404767 165.878633 
L 311.237777 168.244841 
L 316.070787 170.911922 
L 320.903797 175.734836 
L 325.736807 183.622517 
L 330.569817 189.901921 
L 335.402827 187.502324 
L 340.235837 184.85792 
L 345.068847 189.675574 
L 349.901857 193.83576 
L 354.734867 187.690918 
L 359.567877 175.154386 
L 364.400887 168.923432 
L 369.233897 171.002238 
L 374.066907 175.4287 
L 378.899917 179.183437 
L 383.732927 176.219553 
L 388.565937 161.833726 
L 393.398947 143.224625 
L 398.231957 126.576127 
L 403.064967 118.152557 
L 407.897977 124.94727 
" clip-path="url(#pee024da4e0)" style="fill: none; stroke: #ff00ff; stroke-width: 1.5; stroke-linecap: square"/>
   </g>
   <g id="line2d_22">
    <path d="M 262.907677 210.24 
L 262.907677 43.92 
" clip-path="url(#pee024da4e0)" style="fill: none; stroke-dasharray: 5.55,2.4; stroke-dashoffset: 0; stroke: #808080; stroke-opacity: 0.7; stroke-width: 1.5"/>
   </g>
   <g id="line2d_23">
    <path d="M 393.398947 210.24 
L 393.398947 43.92 
" clip-path="url(#pee024da4e0)" style="fill: none; stroke-dasharray: 5.55,2.4; stroke-dashoffset: 0; stroke: #808080; stroke-opacity: 0.7; stroke-width: 1.5"/>
   </g>
   <g id="text_26">
    <text style="font: 12px 'Arial', sans-serif; text-anchor: middle" x="330.569817" y="37.92" transform="rotate(-0 330.569817 37.92)">3 Incorrect Trials</text>
   </g>
   <g id="legend_2">
    <g id="patch_19">
     <path d="M 278.617685 207.345 
L 382.521949 207.345 
Q 383.679949 207.345 383.679949 206.187 
L 383.679949 198.575864 
Q 383.679949 197.417864 382.521949 197.417864 
L 278.617685 197.417864 
Q 277.459685 197.417864 277.459685 198.575864 
L 277.459685 206.187 
Q 277.459685 207.345 278.617685 207.345 
z
" style="fill: #ffffff; opacity: 0.8; stroke: #cccccc; stroke-linejoin: miter"/>
    </g>
    <g id="line2d_24">
     <path d="M 279.775685 201.851738 
L 285.565685 201.851738 
L 291.355685 201.851738 
" style="fill: none; stroke: #ff00ff; stroke-width: 1.5; stroke-linecap: square"/>
    </g>
    <g id="text_27">
     <text style="font: 5.79px 'Arial', sans-serif; text-anchor: start" x="295.987685" y="203.878238" transform="rotate(-0 295.987685 203.878238)">Pref - PrevCount=-3 - #Trials=2.0</text>
    </g>
   </g>
  </g>
  <g id="axes_3">
   <g id="patch_20">
    <path d="M 449.655183 210.24 
L 619.777134 210.24 
L 619.777134 43.92 
L 449.655183 43.92 
z
" style="fill: #ffffff"/>
   </g>
   <g id="PolyCollection_2">
    <defs>
     <path id="m8460808227" d="M 457.387999 -207.122336 
L 457.387999 -167.619719 
L 462.221009 -167.228617 
L 467.054019 -168.832929 
L 471.887029 -171.762238 
L 476.720039 -172.326446 
L 481.553049 -171.441698 
L 486.386059 -172.373029 
L 491.219069 -178.00822 
L 496.052079 -174.388508 
L 500.885089 -164.713224 
L 505.718099 -158.801707 
L 510.551109 -157.457276 
L 515.384119 -157.750516 
L 520.217129 -150.003122 
L 525.050139 -145.838792 
L 529.883149 -145.333839 
L 534.716159 -149.292429 
L 539.549169 -148.275769 
L 544.382178 -146.967872 
L 549.215188 -150.104161 
L 554.048198 -152.882754 
L 558.881208 -153.184304 
L 563.714218 -152.334217 
L 568.547228 -146.062809 
L 573.380238 -142.396337 
L 578.213248 -144.672441 
L 583.046258 -145.772983 
L 587.879268 -148.206594 
L 592.712278 -161.32814 
L 597.545288 -178.253006 
L 602.378298 -201.288058 
L 607.211308 -208.667982 
L 612.044318 -204.057985 
L 612.044318 -230.031322 
L 612.044318 -230.031322 
L 607.211308 -233.807847 
L 602.378298 -223.299034 
L 597.545288 -197.832785 
L 592.712278 -176.860382 
L 587.879268 -160.305047 
L 583.046258 -155.161858 
L 578.213248 -155.746272 
L 573.380238 -156.973185 
L 568.547228 -158.948808 
L 563.714218 -166.532563 
L 558.881208 -170.628766 
L 554.048198 -169.367731 
L 549.215188 -170.810493 
L 544.382178 -168.894861 
L 539.549169 -168.426501 
L 534.716159 -166.41842 
L 529.883149 -165.093849 
L 525.050139 -168.317756 
L 520.217129 -180.0078 
L 515.384119 -191.690261 
L 510.551109 -195.480652 
L 505.718099 -196.471946 
L 500.885089 -202.77394 
L 496.052079 -215.269375 
L 491.219069 -218.087866 
L 486.386059 -213.881587 
L 481.553049 -213.700262 
L 476.720039 -210.391254 
L 471.887029 -207.252871 
L 467.054019 -204.819552 
L 462.221009 -202.511823 
L 457.387999 -207.122336 
z
" style="stroke: #ff00ff; stroke-opacity: 0.1"/>
    </defs>
    <g clip-path="url(#p2042bae649)">
     <use xlink:href="#m8460808227" x="0" y="323.436915" style="fill: #ff00ff; fill-opacity: 0.1; stroke: #ff00ff; stroke-opacity: 0.1"/>
    </g>
   </g>
   <g id="matplotlib.axis_5">
    <g id="xtick_9">
     <g id="line2d_25">
      <g>
       <use xlink:href="#m3061924d08" x="467.054019" y="210.24" style="stroke: #000000; stroke-width: 0.8"/>
      </g>
     </g>
     <g id="text_28">
      <text style="font: 10px 'Arial', sans-serif" transform="translate(436.088266 251.86503) rotate(-45)">Sampling</text>
     </g>
    </g>
    <g id="xtick_10">
     <g id="line2d_26">
      <g>
       <use xlink:href="#m3061924d08" x="597.545288" y="210.24" style="stroke: #000000; stroke-width: 0.8"/>
      </g>
     </g>
     <g id="text_29">
      <text style="font: 10px 'Arial', sans-serif" transform="translate(516.755024 301.686227) rotate(-45)">Movement to Lateral Port</text>
     </g>
    </g>
    <g id="text_30">
     <text style="font: 10px 'Arial', sans-serif; text-anchor: middle" x="534.716159" y="314.249415" transform="rotate(-0 534.716159 314.249415)">Normalized Time</text>
    </g>
   </g>
   <g id="matplotlib.axis_6">
    <g id="ytick_12">
     <g id="line2d_27">
      <g>
       <use xlink:href="#maa02f5a10c" x="449.655183" y="195.857551" style="stroke: #000000; stroke-width: 0.8"/>
      </g>
     </g>
     <g id="text_31">
      <text style="font: 10px 'Arial', sans-serif; text-anchor: end" x="442.655183" y="199.436457" transform="rotate(-0 442.655183 199.436457)">−0.5</text>
     </g>
    </g>
    <g id="ytick_13">
     <g id="line2d_28">
      <g>
       <use xlink:href="#maa02f5a10c" x="449.655183" y="166.017521" style="stroke: #000000; stroke-width: 0.8"/>
      </g>
     </g>
     <g id="text_32">
      <text style="font: 10px 'Arial', sans-serif; text-anchor: end" x="442.655183" y="169.596428" transform="rotate(-0 442.655183 169.596428)">0.0</text>
     </g>
    </g>
    <g id="ytick_14">
     <g id="line2d_29">
      <g>
       <use xlink:href="#maa02f5a10c" x="449.655183" y="136.177492" style="stroke: #000000; stroke-width: 0.8"/>
      </g>
     </g>
     <g id="text_33">
      <text style="font: 10px 'Arial', sans-serif; text-anchor: end" x="442.655183" y="139.756398" transform="rotate(-0 442.655183 139.756398)">0.5</text>
     </g>
    </g>
    <g id="ytick_15">
     <g id="line2d_30">
      <g>
       <use xlink:href="#maa02f5a10c" x="449.655183" y="106.337462" style="stroke: #000000; stroke-width: 0.8"/>
      </g>
     </g>
     <g id="text_34">
      <text style="font: 10px 'Arial', sans-serif; text-anchor: end" x="442.655183" y="109.916368" transform="rotate(-0 442.655183 109.916368)">1.0</text>
     </g>
    </g>
    <g id="ytick_16">
     <g id="line2d_31">
      <g>
       <use xlink:href="#maa02f5a10c" x="449.655183" y="76.497433" style="stroke: #000000; stroke-width: 0.8"/>
      </g>
     </g>
     <g id="text_35">
      <text style="font: 10px 'Arial', sans-serif; text-anchor: end" x="442.655183" y="80.076339" transform="rotate(-0 442.655183 80.076339)">1.5</text>
     </g>
    </g>
    <g id="ytick_17">
     <g id="line2d_32">
      <g>
       <use xlink:href="#maa02f5a10c" x="449.655183" y="46.657403" style="stroke: #000000; stroke-width: 0.8"/>
      </g>
     </g>
     <g id="text_36">
      <text style="font: 10px 'Arial', sans-serif; text-anchor: end" x="442.655183" y="50.236309" transform="rotate(-0 442.655183 50.236309)">2.0</text>
     </g>
    </g>
    <g id="text_37">
     <text style="font: 10px 'Arial', sans-serif; text-anchor: middle" x="416.80987" y="127.08" transform="rotate(-90 416.80987 127.08)">Mean Activity</text>
    </g>
   </g>
   <g id="line2d_33">
    <path d="M 457.387999 136.065888 
L 462.221009 138.566695 
L 467.054019 136.610674 
L 471.887029 133.929361 
L 476.720039 132.078065 
L 481.553049 130.865935 
L 486.386059 130.309606 
L 491.219069 125.388873 
L 496.052079 128.607972 
L 500.885089 139.693334 
L 505.718099 145.800088 
L 510.551109 146.96795 
L 515.384119 148.716526 
L 520.217129 158.431454 
L 525.050139 166.358641 
L 529.883149 168.223071 
L 534.716159 165.58149 
L 539.549169 165.08578 
L 544.382178 165.505548 
L 549.215188 162.979588 
L 554.048198 162.311672 
L 558.881208 161.53038 
L 563.714218 164.003525 
L 568.547228 170.931106 
L 573.380238 173.752153 
L 578.213248 173.227558 
L 583.046258 172.969494 
L 587.879268 169.181094 
L 592.712278 154.342654 
L 597.545288 135.39402 
L 602.378298 111.143369 
L 607.211308 102.198998 
L 612.044318 106.392261 
" clip-path="url(#p2042bae649)" style="fill: none; stroke: #ff00ff; stroke-width: 1.5; stroke-linecap: square"/>
   </g>
   <g id="line2d_34">
    <path d="M 467.054019 210.24 
L 467.054019 43.92 
" clip-path="url(#p2042bae649)" style="fill: none; stroke-dasharray: 5.55,2.4; stroke-dashoffset: 0; stroke: #808080; stroke-opacity: 0.7; stroke-width: 1.5"/>
   </g>
   <g id="line2d_35">
    <path d="M 597.545288 210.24 
L 597.545288 43.92 
" clip-path="url(#p2042bae649)" style="fill: none; stroke-dasharray: 5.55,2.4; stroke-dashoffset: 0; stroke: #808080; stroke-opacity: 0.7; stroke-width: 1.5"/>
   </g>
   <g id="text_38">
    <text style="font: 12px 'Arial', sans-serif; text-anchor: middle" x="534.716159" y="37.92" transform="rotate(-0 534.716159 37.92)">2 Incorrect Trials</text>
   </g>
   <g id="legend_3">
    <g id="patch_21">
     <path d="M 481.367641 207.345 
L 588.064676 207.345 
Q 589.222676 207.345 589.222676 206.187 
L 589.222676 198.575864 
Q 589.222676 197.417864 588.064676 197.417864 
L 481.367641 197.417864 
Q 480.209641 197.417864 480.209641 198.575864 
L 480.209641 206.187 
Q 480.209641 207.345 481.367641 207.345 
z
" style="fill: #ffffff; opacity: 0.8; stroke: #cccccc; stroke-linejoin: miter"/>
    </g>
    <g id="line2d_36">
     <path d="M 482.525641 201.851738 
L 488.315641 201.851738 
L 494.105641 201.851738 
" style="fill: none; stroke: #ff00ff; stroke-width: 1.5; stroke-linecap: square"/>
    </g>
    <g id="text_39">
     <text style="font: 5.79px 'Arial', sans-serif; text-anchor: start" x="498.737641" y="203.878238" transform="rotate(-0 498.737641 203.878238)">Pref - PrevCount=-2 - #Trials=11.0</text>
    </g>
   </g>
  </g>
  <g id="axes_4">
   <g id="patch_22">
    <path d="M 653.801524 210.24 
L 823.923476 210.24 
L 823.923476 43.92 
L 653.801524 43.92 
z
" style="fill: #ffffff"/>
   </g>
   <g id="PolyCollection_3">
    <defs>
     <path id="mc9e627359c" d="M 661.53434 -163.442402 
L 661.53434 -142.902332 
L 666.36735 -147.42729 
L 671.20036 -151.587776 
L 676.03337 -156.992091 
L 680.86638 -159.998014 
L 685.69939 -160.654258 
L 690.5324 -160.380368 
L 695.36541 -165.807701 
L 700.19842 -168.756498 
L 705.03143 -166.866517 
L 709.86444 -170.523317 
L 714.69745 -169.938404 
L 719.53046 -160.536034 
L 724.36347 -160.514841 
L 729.19648 -162.467429 
L 734.02949 -164.670015 
L 738.8625 -167.146873 
L 743.69551 -165.671455 
L 748.52852 -161.510219 
L 753.36153 -157.910606 
L 758.19454 -161.444282 
L 763.02755 -159.181254 
L 767.86056 -157.117093 
L 772.69357 -156.86496 
L 777.52658 -157.39141 
L 782.35959 -160.425184 
L 787.1926 -162.555188 
L 792.02561 -175.765758 
L 796.85862 -199.645222 
L 801.69163 -226.517027 
L 806.52464 -245.422418 
L 811.35765 -244.069256 
L 816.19066 -234.850109 
L 816.19066 -256.187599 
L 816.19066 -256.187599 
L 811.35765 -266.817278 
L 806.52464 -266.905881 
L 801.69163 -242.652953 
L 796.85862 -212.199664 
L 792.02561 -187.479895 
L 787.1926 -170.788705 
L 782.35959 -168.436471 
L 777.52658 -166.33129 
L 772.69357 -166.674638 
L 767.86056 -169.247645 
L 763.02755 -173.416244 
L 758.19454 -178.861595 
L 753.36153 -176.05649 
L 748.52852 -177.440333 
L 743.69551 -181.341988 
L 738.8625 -182.523359 
L 734.02949 -179.188148 
L 729.19648 -177.139932 
L 724.36347 -173.423752 
L 719.53046 -173.298088 
L 714.69745 -184.053725 
L 709.86444 -185.464092 
L 705.03143 -182.835155 
L 700.19842 -184.951086 
L 695.36541 -183.199499 
L 690.5324 -178.838375 
L 685.69939 -179.415888 
L 680.86638 -179.066995 
L 676.03337 -176.201784 
L 671.20036 -172.141022 
L 666.36735 -168.620183 
L 661.53434 -163.442402 
z
" style="stroke: #ff00ff; stroke-opacity: 0.1"/>
    </defs>
    <g clip-path="url(#p514d2da34e)">
     <use xlink:href="#mc9e627359c" x="0" y="323.436915" style="fill: #ff00ff; fill-opacity: 0.1; stroke: #ff00ff; stroke-opacity: 0.1"/>
    </g>
   </g>
   <g id="matplotlib.axis_7">
    <g id="xtick_11">
     <g id="line2d_37">
      <g>
       <use xlink:href="#m3061924d08" x="671.20036" y="210.24" style="stroke: #000000; stroke-width: 0.8"/>
      </g>
     </g>
     <g id="text_40">
      <text style="font: 10px 'Arial', sans-serif" transform="translate(640.234608 251.86503) rotate(-45)">Sampling</text>
     </g>
    </g>
    <g id="xtick_12">
     <g id="line2d_38">
      <g>
       <use xlink:href="#m3061924d08" x="801.69163" y="210.24" style="stroke: #000000; stroke-width: 0.8"/>
      </g>
     </g>
     <g id="text_41">
      <text style="font: 10px 'Arial', sans-serif" transform="translate(720.901365 301.686227) rotate(-45)">Movement to Lateral Port</text>
     </g>
    </g>
    <g id="text_42">
     <text style="font: 10px 'Arial', sans-serif; text-anchor: middle" x="738.8625" y="314.249415" transform="rotate(-0 738.8625 314.249415)">Normalized Time</text>
    </g>
   </g>
   <g id="matplotlib.axis_8">
    <g id="ytick_18">
     <g id="line2d_39">
      <g>
       <use xlink:href="#maa02f5a10c" x="653.801524" y="195.857551" style="stroke: #000000; stroke-width: 0.8"/>
      </g>
     </g>
     <g id="text_43">
      <text style="font: 10px 'Arial', sans-serif; text-anchor: end" x="646.801524" y="199.436457" transform="rotate(-0 646.801524 199.436457)">−0.5</text>
     </g>
    </g>
    <g id="ytick_19">
     <g id="line2d_40">
      <g>
       <use xlink:href="#maa02f5a10c" x="653.801524" y="166.017521" style="stroke: #000000; stroke-width: 0.8"/>
      </g>
     </g>
     <g id="text_44">
      <text style="font: 10px 'Arial', sans-serif; text-anchor: end" x="646.801524" y="169.596428" transform="rotate(-0 646.801524 169.596428)">0.0</text>
     </g>
    </g>
    <g id="ytick_20">
     <g id="line2d_41">
      <g>
       <use xlink:href="#maa02f5a10c" x="653.801524" y="136.177492" style="stroke: #000000; stroke-width: 0.8"/>
      </g>
     </g>
     <g id="text_45">
      <text style="font: 10px 'Arial', sans-serif; text-anchor: end" x="646.801524" y="139.756398" transform="rotate(-0 646.801524 139.756398)">0.5</text>
     </g>
    </g>
    <g id="ytick_21">
     <g id="line2d_42">
      <g>
       <use xlink:href="#maa02f5a10c" x="653.801524" y="106.337462" style="stroke: #000000; stroke-width: 0.8"/>
      </g>
     </g>
     <g id="text_46">
      <text style="font: 10px 'Arial', sans-serif; text-anchor: end" x="646.801524" y="109.916368" transform="rotate(-0 646.801524 109.916368)">1.0</text>
     </g>
    </g>
    <g id="ytick_22">
     <g id="line2d_43">
      <g>
       <use xlink:href="#maa02f5a10c" x="653.801524" y="76.497433" style="stroke: #000000; stroke-width: 0.8"/>
      </g>
     </g>
     <g id="text_47">
      <text style="font: 10px 'Arial', sans-serif; text-anchor: end" x="646.801524" y="80.076339" transform="rotate(-0 646.801524 80.076339)">1.5</text>
     </g>
    </g>
    <g id="ytick_23">
     <g id="line2d_44">
      <g>
       <use xlink:href="#maa02f5a10c" x="653.801524" y="46.657403" style="stroke: #000000; stroke-width: 0.8"/>
      </g>
     </g>
     <g id="text_48">
      <text style="font: 10px 'Arial', sans-serif; text-anchor: end" x="646.801524" y="50.236309" transform="rotate(-0 646.801524 50.236309)">2.0</text>
     </g>
    </g>
    <g id="text_49">
     <text style="font: 10px 'Arial', sans-serif; text-anchor: middle" x="620.956212" y="127.08" transform="rotate(-90 620.956212 127.08)">Mean Activity</text>
    </g>
   </g>
   <g id="line2d_45">
    <path d="M 661.53434 170.264548 
L 666.36735 165.413178 
L 671.20036 161.572515 
L 676.03337 156.839977 
L 680.86638 153.90441 
L 685.69939 153.401841 
L 690.5324 153.827542 
L 695.36541 148.933315 
L 700.19842 146.583122 
L 705.03143 148.586078 
L 709.86444 145.443209 
L 714.69745 146.44085 
L 719.53046 156.519853 
L 724.36347 156.467618 
L 729.19648 153.633234 
L 734.02949 151.507832 
L 738.8625 148.601799 
L 743.69551 149.930193 
L 748.52852 153.961639 
L 753.36153 156.453366 
L 758.19454 153.283976 
L 763.02755 157.138165 
L 767.86056 160.254546 
L 772.69357 161.667115 
L 777.52658 161.575565 
L 782.35959 159.006087 
L 787.1926 156.764968 
L 792.02561 141.814088 
L 796.85862 117.514472 
L 801.69163 88.851924 
L 806.52464 67.272765 
L 811.35765 67.993648 
L 816.19066 77.918061 
" clip-path="url(#p514d2da34e)" style="fill: none; stroke: #ff00ff; stroke-width: 1.5; stroke-linecap: square"/>
   </g>
   <g id="line2d_46">
    <path d="M 671.20036 210.24 
L 671.20036 43.92 
" clip-path="url(#p514d2da34e)" style="fill: none; stroke-dasharray: 5.55,2.4; stroke-dashoffset: 0; stroke: #808080; stroke-opacity: 0.7; stroke-width: 1.5"/>
   </g>
   <g id="line2d_47">
    <path d="M 801.69163 210.24 
L 801.69163 43.92 
" clip-path="url(#p514d2da34e)" style="fill: none; stroke-dasharray: 5.55,2.4; stroke-dashoffset: 0; stroke: #808080; stroke-opacity: 0.7; stroke-width: 1.5"/>
   </g>
   <g id="text_50">
    <text style="font: 12px 'Arial', sans-serif; text-anchor: middle" x="738.8625" y="37.92" transform="rotate(-0 738.8625 37.92)">1 Incorrect Trials</text>
   </g>
   <g id="legend_4">
    <g id="patch_23">
     <path d="M 685.300477 207.345 
L 792.424523 207.345 
Q 793.582523 207.345 793.582523 206.187 
L 793.582523 198.575864 
Q 793.582523 197.417864 792.424523 197.417864 
L 685.300477 197.417864 
Q 684.142477 197.417864 684.142477 198.575864 
L 684.142477 206.187 
Q 684.142477 207.345 685.300477 207.345 
z
" style="fill: #ffffff; opacity: 0.8; stroke: #cccccc; stroke-linejoin: miter"/>
    </g>
    <g id="line2d_48">
     <path d="M 686.458477 201.851738 
L 692.248477 201.851738 
L 698.038477 201.851738 
" style="fill: none; stroke: #ff00ff; stroke-width: 1.5; stroke-linecap: square"/>
    </g>
    <g id="text_51">
     <text style="font: 5.79px 'Arial', sans-serif; text-anchor: start" x="702.670477" y="203.878238" transform="rotate(-0 702.670477 203.878238)">Pref - PrevCount=-1 - #Trials=23.0</text>
    </g>
   </g>
  </g>
  <g id="axes_5">
   <g id="patch_24">
    <path d="M 857.947866 210.24 
L 1028.069817 210.24 
L 1028.069817 43.92 
L 857.947866 43.92 
z
" style="fill: #ffffff"/>
   </g>
   <g id="PolyCollection_4">
    <defs>
     <path id="md93fce1baa" d="M 865.680682 -150.84211 
L 865.680682 -139.40016 
L 870.513692 -140.30314 
L 875.346702 -139.784072 
L 880.179712 -138.893459 
L 885.012722 -138.359341 
L 889.845732 -137.734202 
L 894.678742 -138.998738 
L 899.511752 -141.730703 
L 904.344762 -142.914514 
L 909.177772 -142.855105 
L 914.010782 -141.276648 
L 918.843792 -141.89688 
L 923.676802 -140.751955 
L 928.509812 -138.289888 
L 933.342822 -136.322773 
L 938.175831 -136.04348 
L 943.008841 -137.628067 
L 947.841851 -139.419798 
L 952.674861 -138.720669 
L 957.507871 -136.681606 
L 962.340881 -134.475402 
L 967.173891 -135.630213 
L 972.006901 -135.899613 
L 976.839911 -136.23393 
L 981.672921 -136.628392 
L 986.505931 -135.061548 
L 991.338941 -137.24325 
L 996.171951 -144.791243 
L 1001.004961 -156.491451 
L 1005.837971 -167.327975 
L 1010.670981 -172.859837 
L 1015.503991 -174.716102 
L 1020.337001 -178.744554 
L 1020.337001 -193.9712 
L 1020.337001 -193.9712 
L 1015.503991 -189.529605 
L 1010.670981 -186.73972 
L 1005.837971 -179.684747 
L 1001.004961 -167.440445 
L 996.171951 -154.533095 
L 991.338941 -144.799203 
L 986.505931 -140.865206 
L 981.672921 -143.107716 
L 976.839911 -143.592898 
L 972.006901 -142.756943 
L 967.173891 -142.573112 
L 962.340881 -141.253916 
L 957.507871 -144.063119 
L 952.674861 -146.16505 
L 947.841851 -147.279701 
L 943.008841 -145.92276 
L 938.175831 -144.169721 
L 933.342822 -144.091315 
L 928.509812 -146.704511 
L 923.676802 -150.714868 
L 918.843792 -149.204194 
L 914.010782 -148.097494 
L 909.177772 -151.79249 
L 904.344762 -152.818955 
L 899.511752 -152.220819 
L 894.678742 -149.633601 
L 889.845732 -149.928207 
L 885.012722 -150.858213 
L 880.179712 -151.014172 
L 875.346702 -149.944808 
L 870.513692 -150.812464 
L 865.680682 -150.84211 
z
" style="stroke: #00ffff; stroke-opacity: 0.1"/>
    </defs>
    <g clip-path="url(#p827cde3eba)">
     <use xlink:href="#md93fce1baa" x="0" y="323.436915" style="fill: #00ffff; fill-opacity: 0.1; stroke: #00ffff; stroke-opacity: 0.1"/>
    </g>
   </g>
   <g id="matplotlib.axis_9">
    <g id="xtick_13">
     <g id="line2d_49">
      <g>
       <use xlink:href="#m3061924d08" x="875.346702" y="210.24" style="stroke: #000000; stroke-width: 0.8"/>
      </g>
     </g>
     <g id="text_52">
      <text style="font: 10px 'Arial', sans-serif" transform="translate(844.380949 251.86503) rotate(-45)">Sampling</text>
     </g>
    </g>
    <g id="xtick_14">
     <g id="line2d_50">
      <g>
       <use xlink:href="#m3061924d08" x="1005.837971" y="210.24" style="stroke: #000000; stroke-width: 0.8"/>
      </g>
     </g>
     <g id="text_53">
      <text style="font: 10px 'Arial', sans-serif" transform="translate(925.047707 301.686227) rotate(-45)">Movement to Lateral Port</text>
     </g>
    </g>
    <g id="text_54">
     <text style="font: 10px 'Arial', sans-serif; text-anchor: middle" x="943.008841" y="314.249415" transform="rotate(-0 943.008841 314.249415)">Normalized Time</text>
    </g>
   </g>
   <g id="matplotlib.axis_10">
    <g id="ytick_24">
     <g id="line2d_51">
      <g>
       <use xlink:href="#maa02f5a10c" x="857.947866" y="195.857551" style="stroke: #000000; stroke-width: 0.8"/>
      </g>
     </g>
     <g id="text_55">
      <text style="font: 10px 'Arial', sans-serif; text-anchor: end" x="850.947866" y="199.436457" transform="rotate(-0 850.947866 199.436457)">−0.5</text>
     </g>
    </g>
    <g id="ytick_25">
     <g id="line2d_52">
      <g>
       <use xlink:href="#maa02f5a10c" x="857.947866" y="166.017521" style="stroke: #000000; stroke-width: 0.8"/>
      </g>
     </g>
     <g id="text_56">
      <text style="font: 10px 'Arial', sans-serif; text-anchor: end" x="850.947866" y="169.596428" transform="rotate(-0 850.947866 169.596428)">0.0</text>
     </g>
    </g>
    <g id="ytick_26">
     <g id="line2d_53">
      <g>
       <use xlink:href="#maa02f5a10c" x="857.947866" y="136.177492" style="stroke: #000000; stroke-width: 0.8"/>
      </g>
     </g>
     <g id="text_57">
      <text style="font: 10px 'Arial', sans-serif; text-anchor: end" x="850.947866" y="139.756398" transform="rotate(-0 850.947866 139.756398)">0.5</text>
     </g>
    </g>
    <g id="ytick_27">
     <g id="line2d_54">
      <g>
       <use xlink:href="#maa02f5a10c" x="857.947866" y="106.337462" style="stroke: #000000; stroke-width: 0.8"/>
      </g>
     </g>
     <g id="text_58">
      <text style="font: 10px 'Arial', sans-serif; text-anchor: end" x="850.947866" y="109.916368" transform="rotate(-0 850.947866 109.916368)">1.0</text>
     </g>
    </g>
    <g id="ytick_28">
     <g id="line2d_55">
      <g>
       <use xlink:href="#maa02f5a10c" x="857.947866" y="76.497433" style="stroke: #000000; stroke-width: 0.8"/>
      </g>
     </g>
     <g id="text_59">
      <text style="font: 10px 'Arial', sans-serif; text-anchor: end" x="850.947866" y="80.076339" transform="rotate(-0 850.947866 80.076339)">1.5</text>
     </g>
    </g>
    <g id="ytick_29">
     <g id="line2d_56">
      <g>
       <use xlink:href="#maa02f5a10c" x="857.947866" y="46.657403" style="stroke: #000000; stroke-width: 0.8"/>
      </g>
     </g>
     <g id="text_60">
      <text style="font: 10px 'Arial', sans-serif; text-anchor: end" x="850.947866" y="50.236309" transform="rotate(-0 850.947866 50.236309)">2.0</text>
     </g>
    </g>
    <g id="text_61">
     <text style="font: 10px 'Arial', sans-serif; text-anchor: middle" x="825.102553" y="127.08" transform="rotate(-90 825.102553 127.08)">Mean Activity</text>
    </g>
   </g>
   <g id="line2d_57">
    <path d="M 865.680682 178.31578 
L 870.513692 177.879113 
L 875.346702 178.572474 
L 880.179712 178.483099 
L 885.012722 178.828138 
L 889.845732 179.60571 
L 894.678742 179.120745 
L 899.511752 176.461154 
L 904.344762 175.57018 
L 909.177772 176.113117 
L 914.010782 178.749844 
L 918.843792 177.886378 
L 923.676802 177.703503 
L 928.509812 180.939715 
L 933.342822 183.229871 
L 938.175831 183.330314 
L 943.008841 181.661501 
L 947.841851 180.087165 
L 952.674861 180.994055 
L 957.507871 183.064551 
L 962.340881 185.572255 
L 967.173891 184.335252 
L 972.006901 184.108637 
L 976.839911 183.523501 
L 981.672921 183.56886 
L 986.505931 185.473538 
L 991.338941 182.415688 
L 996.171951 173.774746 
L 1001.004961 161.470967 
L 1005.837971 149.930554 
L 1010.670981 143.637136 
L 1015.503991 141.31406 
L 1020.337001 137.079038 
" clip-path="url(#p827cde3eba)" style="fill: none; stroke: #00ffff; stroke-width: 1.5; stroke-linecap: square"/>
   </g>
   <g id="line2d_58">
    <path d="M 875.346702 210.24 
L 875.346702 43.92 
" clip-path="url(#p827cde3eba)" style="fill: none; stroke-dasharray: 5.55,2.4; stroke-dashoffset: 0; stroke: #808080; stroke-opacity: 0.7; stroke-width: 1.5"/>
   </g>
   <g id="line2d_59">
    <path d="M 1005.837971 210.24 
L 1005.837971 43.92 
" clip-path="url(#p827cde3eba)" style="fill: none; stroke-dasharray: 5.55,2.4; stroke-dashoffset: 0; stroke: #808080; stroke-opacity: 0.7; stroke-width: 1.5"/>
   </g>
   <g id="text_62">
    <text style="font: 12px 'Arial', sans-serif; text-anchor: middle" x="943.008841" y="37.92" transform="rotate(-0 943.008841 37.92)">1 Correct Trials</text>
   </g>
   <g id="legend_5">
    <g id="patch_25">
     <path d="M 885.100247 207.345 
L 1000.917436 207.345 
Q 1002.075436 207.345 1002.075436 206.187 
L 1002.075436 198.575864 
Q 1002.075436 197.417864 1000.917436 197.417864 
L 885.100247 197.417864 
Q 883.942247 197.417864 883.942247 198.575864 
L 883.942247 206.187 
Q 883.942247 207.345 885.100247 207.345 
z
" style="fill: #ffffff; opacity: 0.8; stroke: #cccccc; stroke-linejoin: miter"/>
    </g>
    <g id="line2d_60">
     <path d="M 886.258247 201.851738 
L 892.048247 201.851738 
L 897.838247 201.851738 
" style="fill: none; stroke: #00ffff; stroke-width: 1.5; stroke-linecap: square"/>
    </g>
    <g id="text_63">
     <text style="font: 5.79px 'Arial', sans-serif; text-anchor: start" x="902.470247" y="203.878238" transform="rotate(-0 902.470247 203.878238)">NonPref - PrevCount=1 - #Trials=29.0</text>
    </g>
   </g>
  </g>
  <g id="axes_6">
   <g id="patch_26">
    <path d="M 1062.094207 210.24 
L 1232.216159 210.24 
L 1232.216159 43.92 
L 1062.094207 43.92 
z
" style="fill: #ffffff"/>
   </g>
   <g id="PolyCollection_5">
    <defs>
     <path id="m452dd8c1d3" d="M 1069.827023 -131.010722 
L 1069.827023 -121.200858 
L 1074.660033 -121.573131 
L 1079.493043 -121.570029 
L 1084.326053 -122.369451 
L 1089.159063 -126.005356 
L 1093.992073 -126.867271 
L 1098.825083 -126.991346 
L 1103.658093 -130.890294 
L 1108.491103 -133.162723 
L 1113.324113 -130.779791 
L 1118.157123 -127.970712 
L 1122.990133 -126.742993 
L 1127.823143 -125.347927 
L 1132.656153 -125.375993 
L 1137.489163 -127.215867 
L 1142.322173 -131.929296 
L 1147.155183 -132.746129 
L 1151.988193 -133.601577 
L 1156.821203 -133.983586 
L 1161.654213 -131.954609 
L 1166.487223 -130.199285 
L 1171.320233 -131.316599 
L 1176.153243 -132.244223 
L 1180.986253 -131.117748 
L 1185.819263 -128.92494 
L 1190.652273 -126.775705 
L 1195.485283 -124.489039 
L 1200.318293 -126.623844 
L 1205.151303 -131.333556 
L 1209.984313 -136.465493 
L 1214.817323 -138.808461 
L 1219.650333 -141.92088 
L 1224.483343 -145.328018 
L 1224.483343 -156.13182 
L 1224.483343 -156.13182 
L 1219.650333 -152.399707 
L 1214.817323 -149.363653 
L 1209.984313 -145.941047 
L 1205.151303 -139.53739 
L 1200.318293 -134.502053 
L 1195.485283 -131.294466 
L 1190.652273 -133.080084 
L 1185.819263 -134.964703 
L 1180.986253 -136.792239 
L 1176.153243 -137.168574 
L 1171.320233 -136.64448 
L 1166.487223 -136.187138 
L 1161.654213 -138.429487 
L 1156.821203 -140.720779 
L 1151.988193 -139.402403 
L 1147.155183 -138.394863 
L 1142.322173 -136.68542 
L 1137.489163 -131.663167 
L 1132.656153 -129.443531 
L 1127.823143 -130.630259 
L 1122.990133 -132.534698 
L 1118.157123 -132.356117 
L 1113.324113 -134.938037 
L 1108.491103 -138.109818 
L 1103.658093 -138.898557 
L 1098.825083 -138.233981 
L 1093.992073 -138.104831 
L 1089.159063 -136.076175 
L 1084.326053 -130.375639 
L 1079.493043 -130.359918 
L 1074.660033 -131.032332 
L 1069.827023 -131.010722 
z
" style="stroke: #00ffff; stroke-opacity: 0.1"/>
    </defs>
    <g clip-path="url(#p273936c4c6)">
     <use xlink:href="#m452dd8c1d3" x="0" y="323.436915" style="fill: #00ffff; fill-opacity: 0.1; stroke: #00ffff; stroke-opacity: 0.1"/>
    </g>
   </g>
   <g id="matplotlib.axis_11">
    <g id="xtick_15">
     <g id="line2d_61">
      <g>
       <use xlink:href="#m3061924d08" x="1079.493043" y="210.24" style="stroke: #000000; stroke-width: 0.8"/>
      </g>
     </g>
     <g id="text_64">
      <text style="font: 10px 'Arial', sans-serif" transform="translate(1048.52729 251.86503) rotate(-45)">Sampling</text>
     </g>
    </g>
    <g id="xtick_16">
     <g id="line2d_62">
      <g>
       <use xlink:href="#m3061924d08" x="1209.984313" y="210.24" style="stroke: #000000; stroke-width: 0.8"/>
      </g>
     </g>
     <g id="text_65">
      <text style="font: 10px 'Arial', sans-serif" transform="translate(1129.194048 301.686227) rotate(-45)">Movement to Lateral Port</text>
     </g>
    </g>
    <g id="text_66">
     <text style="font: 10px 'Arial', sans-serif; text-anchor: middle" x="1147.155183" y="314.249415" transform="rotate(-0 1147.155183 314.249415)">Normalized Time</text>
    </g>
   </g>
   <g id="matplotlib.axis_12">
    <g id="ytick_30">
     <g id="line2d_63">
      <g>
       <use xlink:href="#maa02f5a10c" x="1062.094207" y="195.857551" style="stroke: #000000; stroke-width: 0.8"/>
      </g>
     </g>
     <g id="text_67">
      <text style="font: 10px 'Arial', sans-serif; text-anchor: end" x="1055.094207" y="199.436457" transform="rotate(-0 1055.094207 199.436457)">−0.5</text>
     </g>
    </g>
    <g id="ytick_31">
     <g id="line2d_64">
      <g>
       <use xlink:href="#maa02f5a10c" x="1062.094207" y="166.017521" style="stroke: #000000; stroke-width: 0.8"/>
      </g>
     </g>
     <g id="text_68">
      <text style="font: 10px 'Arial', sans-serif; text-anchor: end" x="1055.094207" y="169.596428" transform="rotate(-0 1055.094207 169.596428)">0.0</text>
     </g>
    </g>
    <g id="ytick_32">
     <g id="line2d_65">
      <g>
       <use xlink:href="#maa02f5a10c" x="1062.094207" y="136.177492" style="stroke: #000000; stroke-width: 0.8"/>
      </g>
     </g>
     <g id="text_69">
      <text style="font: 10px 'Arial', sans-serif; text-anchor: end" x="1055.094207" y="139.756398" transform="rotate(-0 1055.094207 139.756398)">0.5</text>
     </g>
    </g>
    <g id="ytick_33">
     <g id="line2d_66">
      <g>
       <use xlink:href="#maa02f5a10c" x="1062.094207" y="106.337462" style="stroke: #000000; stroke-width: 0.8"/>
      </g>
     </g>
     <g id="text_70">
      <text style="font: 10px 'Arial', sans-serif; text-anchor: end" x="1055.094207" y="109.916368" transform="rotate(-0 1055.094207 109.916368)">1.0</text>
     </g>
    </g>
    <g id="ytick_34">
     <g id="line2d_67">
      <g>
       <use xlink:href="#maa02f5a10c" x="1062.094207" y="76.497433" style="stroke: #000000; stroke-width: 0.8"/>
      </g>
     </g>
     <g id="text_71">
      <text style="font: 10px 'Arial', sans-serif; text-anchor: end" x="1055.094207" y="80.076339" transform="rotate(-0 1055.094207 80.076339)">1.5</text>
     </g>
    </g>
    <g id="ytick_35">
     <g id="line2d_68">
      <g>
       <use xlink:href="#maa02f5a10c" x="1062.094207" y="46.657403" style="stroke: #000000; stroke-width: 0.8"/>
      </g>
     </g>
     <g id="text_72">
      <text style="font: 10px 'Arial', sans-serif; text-anchor: end" x="1055.094207" y="50.236309" transform="rotate(-0 1055.094207 50.236309)">2.0</text>
     </g>
    </g>
    <g id="text_73">
     <text style="font: 10px 'Arial', sans-serif; text-anchor: middle" x="1029.248895" y="127.08" transform="rotate(-90 1029.248895 127.08)">Mean Activity</text>
    </g>
   </g>
   <g id="line2d_69">
    <path d="M 1069.827023 197.331125 
L 1074.660033 197.134183 
L 1079.493043 197.47194 
L 1084.326053 197.06437 
L 1089.159063 192.39615 
L 1093.992073 190.950864 
L 1098.825083 190.824252 
L 1103.658093 188.542489 
L 1108.491103 187.800644 
L 1113.324113 190.578 
L 1118.157123 193.2735 
L 1122.990133 193.798069 
L 1127.823143 195.447823 
L 1132.656153 196.027152 
L 1137.489163 193.997398 
L 1142.322173 189.129557 
L 1147.155183 187.866418 
L 1151.988193 186.934924 
L 1156.821203 186.084732 
L 1161.654213 188.244866 
L 1166.487223 190.243703 
L 1171.320233 189.456375 
L 1176.153243 188.730516 
L 1180.986253 189.481921 
L 1185.819263 191.492093 
L 1190.652273 193.509021 
L 1195.485283 195.545162 
L 1200.318293 192.873967 
L 1205.151303 188.001441 
L 1209.984313 182.233644 
L 1214.817323 179.350857 
L 1219.650333 176.276621 
L 1224.483343 172.706996 
" clip-path="url(#p273936c4c6)" style="fill: none; stroke: #00ffff; stroke-width: 1.5; stroke-linecap: square"/>
   </g>
   <g id="line2d_70">
    <path d="M 1079.493043 210.24 
L 1079.493043 43.92 
" clip-path="url(#p273936c4c6)" style="fill: none; stroke-dasharray: 5.55,2.4; stroke-dashoffset: 0; stroke: #808080; stroke-opacity: 0.7; stroke-width: 1.5"/>
   </g>
   <g id="line2d_71">
    <path d="M 1209.984313 210.24 
L 1209.984313 43.92 
" clip-path="url(#p273936c4c6)" style="fill: none; stroke-dasharray: 5.55,2.4; stroke-dashoffset: 0; stroke: #808080; stroke-opacity: 0.7; stroke-width: 1.5"/>
   </g>
   <g id="text_74">
    <text style="font: 12px 'Arial', sans-serif; text-anchor: middle" x="1147.155183" y="37.92" transform="rotate(-0 1147.155183 37.92)">2 Correct Trials</text>
   </g>
   <g id="legend_6">
    <g id="patch_27">
     <path d="M 1089.246588 207.345 
L 1205.063777 207.345 
Q 1206.221777 207.345 1206.221777 206.187 
L 1206.221777 198.575864 
Q 1206.221777 197.417864 1205.063777 197.417864 
L 1089.246588 197.417864 
Q 1088.088588 197.417864 1088.088588 198.575864 
L 1088.088588 206.187 
Q 1088.088588 207.345 1089.246588 207.345 
z
" style="fill: #ffffff; opacity: 0.8; stroke: #cccccc; stroke-linejoin: miter"/>
    </g>
    <g id="line2d_72">
     <path d="M 1090.404588 201.851738 
L 1096.194588 201.851738 
L 1101.984588 201.851738 
" style="fill: none; stroke: #00ffff; stroke-width: 1.5; stroke-linecap: square"/>
    </g>
    <g id="text_75">
     <text style="font: 5.79px 'Arial', sans-serif; text-anchor: start" x="1106.616588" y="203.878238" transform="rotate(-0 1106.616588 203.878238)">NonPref - PrevCount=2 - #Trials=21.0</text>
    </g>
   </g>
  </g>
  <g id="axes_7">
   <g id="patch_28">
    <path d="M 1266.240549 210.24 
L 1436.3625 210.24 
L 1436.3625 43.92 
L 1266.240549 43.92 
z
" style="fill: #ffffff"/>
   </g>
   <g id="PolyCollection_6">
    <defs>
     <path id="mad935a538d" d="M 1273.973365 -129.478214 
L 1273.973365 -125.065808 
L 1278.806375 -125.756422 
L 1283.639385 -124.675529 
L 1288.472395 -123.69815 
L 1293.305405 -124.049592 
L 1298.138415 -125.136582 
L 1302.971425 -126.441608 
L 1307.804435 -126.201212 
L 1312.637445 -127.384998 
L 1317.470455 -127.110509 
L 1322.303465 -128.307789 
L 1327.136475 -129.870909 
L 1331.969484 -128.437843 
L 1336.802494 -127.697129 
L 1341.635504 -127.718052 
L 1346.468514 -128.116925 
L 1351.301524 -128.78085 
L 1356.134534 -129.389063 
L 1360.967544 -130.220847 
L 1365.800554 -130.444807 
L 1370.633564 -129.225042 
L 1375.466574 -129.458712 
L 1380.299584 -128.729308 
L 1385.132594 -128.228099 
L 1389.965604 -127.160225 
L 1394.798614 -127.009751 
L 1399.631624 -128.446809 
L 1404.464634 -130.599734 
L 1409.297644 -133.767335 
L 1414.130654 -137.876553 
L 1418.963664 -140.502216 
L 1423.796674 -141.99616 
L 1428.629684 -144.222638 
L 1428.629684 -150.5195 
L 1428.629684 -150.5195 
L 1423.796674 -147.835474 
L 1418.963664 -145.994759 
L 1414.130654 -142.934442 
L 1409.297644 -138.139695 
L 1404.464634 -134.391427 
L 1399.631624 -132.192403 
L 1394.798614 -130.417061 
L 1389.965604 -130.473263 
L 1385.132594 -131.69954 
L 1380.299584 -132.371047 
L 1375.466574 -133.186307 
L 1370.633564 -132.575947 
L 1365.800554 -133.635979 
L 1360.967544 -133.653429 
L 1356.134534 -132.883406 
L 1351.301524 -132.302348 
L 1346.468514 -131.362939 
L 1341.635504 -130.505082 
L 1336.802494 -130.290231 
L 1331.969484 -131.329718 
L 1327.136475 -133.158164 
L 1322.303465 -131.813984 
L 1317.470455 -130.7695 
L 1312.637445 -131.32983 
L 1307.804435 -130.054459 
L 1302.971425 -129.886936 
L 1298.138415 -128.459447 
L 1293.305405 -127.26412 
L 1288.472395 -126.944857 
L 1283.639385 -128.161197 
L 1278.806375 -129.692182 
L 1273.973365 -129.478214 
z
" style="stroke: #00ffff; stroke-opacity: 0.1"/>
    </defs>
    <g clip-path="url(#p7f7db0f4d5)">
     <use xlink:href="#mad935a538d" x="0" y="323.436915" style="fill: #00ffff; fill-opacity: 0.1; stroke: #00ffff; stroke-opacity: 0.1"/>
    </g>
   </g>
   <g id="matplotlib.axis_13">
    <g id="xtick_17">
     <g id="line2d_73">
      <g>
       <use xlink:href="#m3061924d08" x="1283.639385" y="210.24" style="stroke: #000000; stroke-width: 0.8"/>
      </g>
     </g>
     <g id="text_76">
      <text style="font: 10px 'Arial', sans-serif" transform="translate(1252.673632 251.86503) rotate(-45)">Sampling</text>
     </g>
    </g>
    <g id="xtick_18">
     <g id="line2d_74">
      <g>
       <use xlink:href="#m3061924d08" x="1414.130654" y="210.24" style="stroke: #000000; stroke-width: 0.8"/>
      </g>
     </g>
     <g id="text_77">
      <text style="font: 10px 'Arial', sans-serif" transform="translate(1333.34039 301.686227) rotate(-45)">Movement to Lateral Port</text>
     </g>
    </g>
    <g id="text_78">
     <text style="font: 10px 'Arial', sans-serif; text-anchor: middle" x="1351.301524" y="314.249415" transform="rotate(-0 1351.301524 314.249415)">Normalized Time</text>
    </g>
   </g>
   <g id="matplotlib.axis_14">
    <g id="ytick_36">
     <g id="line2d_75">
      <g>
       <use xlink:href="#maa02f5a10c" x="1266.240549" y="195.857551" style="stroke: #000000; stroke-width: 0.8"/>
      </g>
     </g>
     <g id="text_79">
      <text style="font: 10px 'Arial', sans-serif; text-anchor: end" x="1259.240549" y="199.436457" transform="rotate(-0 1259.240549 199.436457)">−0.5</text>
     </g>
    </g>
    <g id="ytick_37">
     <g id="line2d_76">
      <g>
       <use xlink:href="#maa02f5a10c" x="1266.240549" y="166.017521" style="stroke: #000000; stroke-width: 0.8"/>
      </g>
     </g>
     <g id="text_80">
      <text style="font: 10px 'Arial', sans-serif; text-anchor: end" x="1259.240549" y="169.596428" transform="rotate(-0 1259.240549 169.596428)">0.0</text>
     </g>
    </g>
    <g id="ytick_38">
     <g id="line2d_77">
      <g>
       <use xlink:href="#maa02f5a10c" x="1266.240549" y="136.177492" style="stroke: #000000; stroke-width: 0.8"/>
      </g>
     </g>
     <g id="text_81">
      <text style="font: 10px 'Arial', sans-serif; text-anchor: end" x="1259.240549" y="139.756398" transform="rotate(-0 1259.240549 139.756398)">0.5</text>
     </g>
    </g>
    <g id="ytick_39">
     <g id="line2d_78">
      <g>
       <use xlink:href="#maa02f5a10c" x="1266.240549" y="106.337462" style="stroke: #000000; stroke-width: 0.8"/>
      </g>
     </g>
     <g id="text_82">
      <text style="font: 10px 'Arial', sans-serif; text-anchor: end" x="1259.240549" y="109.916368" transform="rotate(-0 1259.240549 109.916368)">1.0</text>
     </g>
    </g>
    <g id="ytick_40">
     <g id="line2d_79">
      <g>
       <use xlink:href="#maa02f5a10c" x="1266.240549" y="76.497433" style="stroke: #000000; stroke-width: 0.8"/>
      </g>
     </g>
     <g id="text_83">
      <text style="font: 10px 'Arial', sans-serif; text-anchor: end" x="1259.240549" y="80.076339" transform="rotate(-0 1259.240549 80.076339)">1.5</text>
     </g>
    </g>
    <g id="ytick_41">
     <g id="line2d_80">
      <g>
       <use xlink:href="#maa02f5a10c" x="1266.240549" y="46.657403" style="stroke: #000000; stroke-width: 0.8"/>
      </g>
     </g>
     <g id="text_84">
      <text style="font: 10px 'Arial', sans-serif; text-anchor: end" x="1259.240549" y="50.236309" transform="rotate(-0 1259.240549 50.236309)">2.0</text>
     </g>
    </g>
    <g id="text_85">
     <text style="font: 10px 'Arial', sans-serif; text-anchor: middle" x="1233.395236" y="127.08" transform="rotate(-90 1233.395236 127.08)">Mean Activity</text>
    </g>
   </g>
   <g id="line2d_81">
    <path d="M 1273.973365 196.164904 
L 1278.806375 195.712612 
L 1283.639385 197.018553 
L 1288.472395 198.115411 
L 1293.305405 197.780059 
L 1298.138415 196.638899 
L 1302.971425 195.272643 
L 1307.804435 195.309079 
L 1312.637445 194.079502 
L 1317.470455 194.49691 
L 1322.303465 193.376028 
L 1327.136475 191.922378 
L 1331.969484 193.553134 
L 1336.802494 194.443235 
L 1341.635504 194.325347 
L 1346.468514 193.696982 
L 1351.301524 192.895316 
L 1356.134534 192.30068 
L 1360.967544 191.499776 
L 1365.800554 191.396521 
L 1370.633564 192.53642 
L 1375.466574 192.114405 
L 1380.299584 192.886737 
L 1385.132594 193.473095 
L 1389.965604 194.620171 
L 1394.798614 194.723509 
L 1399.631624 193.117309 
L 1404.464634 190.941334 
L 1409.297644 187.4834 
L 1414.130654 183.031418 
L 1418.963664 180.188427 
L 1423.796674 178.521098 
L 1428.629684 176.065845 
" clip-path="url(#p7f7db0f4d5)" style="fill: none; stroke: #00ffff; stroke-width: 1.5; stroke-linecap: square"/>
   </g>
   <g id="line2d_82">
    <path d="M 1283.639385 210.24 
L 1283.639385 43.92 
" clip-path="url(#p7f7db0f4d5)" style="fill: none; stroke-dasharray: 5.55,2.4; stroke-dashoffset: 0; stroke: #808080; stroke-opacity: 0.7; stroke-width: 1.5"/>
   </g>
   <g id="line2d_83">
    <path d="M 1414.130654 210.24 
L 1414.130654 43.92 
" clip-path="url(#p7f7db0f4d5)" style="fill: none; stroke-dasharray: 5.55,2.4; stroke-dashoffset: 0; stroke: #808080; stroke-opacity: 0.7; stroke-width: 1.5"/>
   </g>
   <g id="text_86">
    <text style="font: 12px 'Arial', sans-serif; text-anchor: middle" x="1351.301524" y="37.92" transform="rotate(-0 1351.301524 37.92)">3 Correct Trials</text>
   </g>
   <g id="legend_7">
    <g id="patch_29">
     <path d="M 1293.39293 56.742136 
L 1409.210119 56.742136 
Q 1410.368119 56.742136 1410.368119 55.584136 
L 1410.368119 47.973 
Q 1410.368119 46.815 1409.210119 46.815 
L 1293.39293 46.815 
Q 1292.23493 46.815 1292.23493 47.973 
L 1292.23493 55.584136 
Q 1292.23493 56.742136 1293.39293 56.742136 
z
" style="fill: #ffffff; opacity: 0.8; stroke: #cccccc; stroke-linejoin: miter"/>
    </g>
    <g id="line2d_84">
     <path d="M 1294.55093 51.248873 
L 1300.34093 51.248873 
L 1306.13093 51.248873 
" style="fill: none; stroke: #00ffff; stroke-width: 1.5; stroke-linecap: square"/>
    </g>
    <g id="text_87">
     <text style="font: 5.79px 'Arial', sans-serif; text-anchor: start" x="1310.76293" y="53.275373" transform="rotate(-0 1310.76293 53.275373)">NonPref - PrevCount=3 - #Trials=95.0</text>
    </g>
   </g>
  </g>
  <g id="text_88">
   <text style="font: 12px 'Arial', sans-serif; text-anchor: middle" x="716.3625" y="15.935625" transform="rotate(-0 716.3625 15.935625)">Balance Change - ALM - gp4_81_S5_L50_D250_ALM_12 - PrevChoiceCorrect</text>
  </g>
 </g>
 <defs>
  <clipPath id="pbb78e5ab01">
   <rect x="41.3625" y="43.92" width="170.121951" height="166.32"/>
  </clipPath>
  <clipPath id="pee024da4e0">
   <rect x="245.508841" y="43.92" width="170.121951" height="166.32"/>
  </clipPath>
  <clipPath id="p2042bae649">
   <rect x="449.655183" y="43.92" width="170.121951" height="166.32"/>
  </clipPath>
  <clipPath id="p514d2da34e">
   <rect x="653.801524" y="43.92" width="170.121951" height="166.32"/>
  </clipPath>
  <clipPath id="p827cde3eba">
   <rect x="857.947866" y="43.92" width="170.121951" height="166.32"/>
  </clipPath>
  <clipPath id="p273936c4c6">
   <rect x="1062.094207" y="43.92" width="170.121951" height="166.32"/>
  </clipPath>
  <clipPath id="p7f7db0f4d5">
   <rect x="1266.240549" y="43.92" width="170.121951" height="166.32"/>
  </clipPath>
 </defs>
</svg>
