<?xml version="1.0" encoding="utf-8" standalone="no"?>
<!DOCTYPE svg PUBLIC "-//W3C//DTD SVG 1.1//EN"
  "http://www.w3.org/Graphics/SVG/1.1/DTD/svg11.dtd">
<svg xmlns:xlink="http://www.w3.org/1999/xlink" width="1435.223438pt" height="323.436915pt" viewBox="0 0 1435.223438 323.436915" xmlns="http://www.w3.org/2000/svg" version="1.1">
 <metadata>
  <rdf:RDF xmlns:dc="http://purl.org/dc/elements/1.1/" xmlns:cc="http://creativecommons.org/ns#" xmlns:rdf="http://www.w3.org/1999/02/22-rdf-syntax-ns#">
   <cc:Work>
    <dc:type rdf:resource="http://purl.org/dc/dcmitype/StillImage"/>
    <dc:date>2025-12-27T14:02:44.503132</dc:date>
    <dc:format>image/svg+xml</dc:format>
    <dc:creator>
     <cc:Agent>
      <dc:title>Matplotlib v3.8.0, https://matplotlib.org/</dc:title>
     </cc:Agent>
    </dc:creator>
   </cc:Work>
  </rdf:RDF>
 </metadata>
 <defs>
  <style type="text/css">*{stroke-linejoin: round; stroke-linecap: butt}</style>
 </defs>
 <g id="figure_1">
  <g id="patch_1">
   <path d="M 0 323.436915 
L 1435.223438 323.436915 
L 1435.223438 0 
L 0 0 
z
" style="fill: #ffffff"/>
  </g>
  <g id="axes_1">
   <g id="patch_2">
    <path d="M 33.023438 210.24 
L 203.145389 210.24 
L 203.145389 43.92 
L 33.023438 43.92 
z
" style="fill: #ffffff"/>
   </g>
   <g id="patch_3">
    <path d="M 40.756253 210.24 
L 49.853684 210.24 
L 49.853684 171.318861 
L 40.756253 171.318861 
z
" clip-path="url(#p30e4ef74da)" style="fill: #ffff00"/>
   </g>
   <g id="patch_4">
    <path d="M 0 0 
z
" clip-path="url(#p30e4ef74da)" style="fill: #ffff00"/>
   </g>
   <g id="patch_5">
    <path d="M 86.243406 210.24 
L 95.340837 210.24 
L 95.340837 183.472495 
L 86.243406 183.472495 
z
" clip-path="url(#p30e4ef74da)" style="fill: #ffff00"/>
   </g>
   <g id="patch_6">
    <path d="M 131.730559 210.24 
L 140.827989 210.24 
L 140.827989 177.872483 
L 131.730559 177.872483 
z
" clip-path="url(#p30e4ef74da)" style="fill: #ffff00"/>
   </g>
   <g id="patch_7">
    <path d="M 154.474135 210.24 
L 163.571566 210.24 
L 163.571566 170.834649 
L 154.474135 170.834649 
z
" clip-path="url(#p30e4ef74da)" style="fill: #ffff00"/>
   </g>
   <g id="patch_8">
    <path d="M 177.217712 210.24 
L 186.315142 210.24 
L 186.315142 154.219427 
L 177.217712 154.219427 
z
" clip-path="url(#p30e4ef74da)" style="fill: #ffff00"/>
   </g>
   <g id="patch_9">
    <path d="M 49.853684 210.24 
L 58.951115 210.24 
L 58.951115 177.164429 
L 49.853684 177.164429 
z
" clip-path="url(#p30e4ef74da)" style="fill: #800080"/>
   </g>
   <g id="patch_10">
    <path d="M 72.59726 210.24 
L 81.694691 210.24 
L 81.694691 168.769128 
L 72.59726 168.769128 
z
" clip-path="url(#p30e4ef74da)" style="fill: #800080"/>
   </g>
   <g id="patch_11">
    <path d="M 95.340837 210.24 
L 104.438267 210.24 
L 104.438267 102.91597 
L 95.340837 102.91597 
z
" clip-path="url(#p30e4ef74da)" style="fill: #800080"/>
   </g>
   <g id="patch_12">
    <path d="M 140.827989 210.24 
L 149.92542 210.24 
L 149.92542 191.371606 
L 140.827989 191.371606 
z
" clip-path="url(#p30e4ef74da)" style="fill: #800080"/>
   </g>
   <g id="patch_13">
    <path d="M 163.571566 210.24 
L 172.668996 210.24 
L 172.668996 189.316247 
L 163.571566 189.316247 
z
" clip-path="url(#p30e4ef74da)" style="fill: #800080"/>
   </g>
   <g id="patch_14">
    <path d="M 186.315142 210.24 
L 195.412573 210.24 
L 195.412573 193.972994 
L 186.315142 193.972994 
z
" clip-path="url(#p30e4ef74da)" style="fill: #800080"/>
   </g>
   <g id="matplotlib.axis_1">
    <g id="xtick_1">
     <g id="line2d_1">
      <defs>
       <path id="m2c2acfd77f" d="M 0 0 
L 0 3.5 
" style="stroke: #000000; stroke-width: 0.8"/>
      </defs>
      <g>
       <use xlink:href="#m2c2acfd77f" x="49.853684" y="210.24" style="stroke: #000000; stroke-width: 0.8"/>
      </g>
     </g>
     <g id="text_1">
      <text style="font: 10px 'Arial', sans-serif; text-anchor: middle" x="49.853684" y="224.397813" transform="rotate(-0 49.853684 224.397813)">−3</text>
     </g>
    </g>
    <g id="xtick_2">
     <g id="line2d_2">
      <g>
       <use xlink:href="#m2c2acfd77f" x="72.59726" y="210.24" style="stroke: #000000; stroke-width: 0.8"/>
      </g>
     </g>
     <g id="text_2">
      <text style="font: 10px 'Arial', sans-serif; text-anchor: middle" x="72.59726" y="224.397813" transform="rotate(-0 72.59726 224.397813)">−2</text>
     </g>
    </g>
    <g id="xtick_3">
     <g id="line2d_3">
      <g>
       <use xlink:href="#m2c2acfd77f" x="95.340837" y="210.24" style="stroke: #000000; stroke-width: 0.8"/>
      </g>
     </g>
     <g id="text_3">
      <text style="font: 10px 'Arial', sans-serif; text-anchor: middle" x="95.340837" y="224.397813" transform="rotate(-0 95.340837 224.397813)">−1</text>
     </g>
    </g>
    <g id="xtick_4">
     <g id="line2d_4">
      <g>
       <use xlink:href="#m2c2acfd77f" x="140.827989" y="210.24" style="stroke: #000000; stroke-width: 0.8"/>
      </g>
     </g>
     <g id="text_4">
      <text style="font: 10px 'Arial', sans-serif; text-anchor: middle" x="140.827989" y="224.397813" transform="rotate(-0 140.827989 224.397813)">1</text>
     </g>
    </g>
    <g id="xtick_5">
     <g id="line2d_5">
      <g>
       <use xlink:href="#m2c2acfd77f" x="163.571566" y="210.24" style="stroke: #000000; stroke-width: 0.8"/>
      </g>
     </g>
     <g id="text_5">
      <text style="font: 10px 'Arial', sans-serif; text-anchor: middle" x="163.571566" y="224.397813" transform="rotate(-0 163.571566 224.397813)">2</text>
     </g>
    </g>
    <g id="xtick_6">
     <g id="line2d_6">
      <g>
       <use xlink:href="#m2c2acfd77f" x="186.315142" y="210.24" style="stroke: #000000; stroke-width: 0.8"/>
      </g>
     </g>
     <g id="text_6">
      <text style="font: 10px 'Arial', sans-serif; text-anchor: middle" x="186.315142" y="224.397813" transform="rotate(-0 186.315142 224.397813)">3</text>
     </g>
    </g>
    <g id="text_7">
     <text style="font: 10px 'Arial', sans-serif; text-anchor: middle" x="118.084413" y="237.543125" transform="rotate(-0 118.084413 237.543125)">PrevOutcomeCount</text>
    </g>
   </g>
   <g id="matplotlib.axis_2">
    <g id="ytick_1">
     <g id="line2d_7">
      <defs>
       <path id="ma35ae333df" d="M 0 0 
L -3.5 0 
" style="stroke: #000000; stroke-width: 0.8"/>
      </defs>
      <g>
       <use xlink:href="#ma35ae333df" x="33.023438" y="210.24" style="stroke: #000000; stroke-width: 0.8"/>
      </g>
     </g>
     <g id="text_8">
      <text style="font: 10px 'Arial', sans-serif; text-anchor: end" x="26.023438" y="213.818906" transform="rotate(-0 26.023438 213.818906)">0</text>
     </g>
    </g>
    <g id="ytick_2">
     <g id="line2d_8">
      <g>
       <use xlink:href="#ma35ae333df" x="33.023438" y="178.433437" style="stroke: #000000; stroke-width: 0.8"/>
      </g>
     </g>
     <g id="text_9">
      <text style="font: 10px 'Arial', sans-serif; text-anchor: end" x="26.023438" y="182.012343" transform="rotate(-0 26.023438 182.012343)">1</text>
     </g>
    </g>
    <g id="ytick_3">
     <g id="line2d_9">
      <g>
       <use xlink:href="#ma35ae333df" x="33.023438" y="146.626873" style="stroke: #000000; stroke-width: 0.8"/>
      </g>
     </g>
     <g id="text_10">
      <text style="font: 10px 'Arial', sans-serif; text-anchor: end" x="26.023438" y="150.20578" transform="rotate(-0 26.023438 150.20578)">2</text>
     </g>
    </g>
    <g id="ytick_4">
     <g id="line2d_10">
      <g>
       <use xlink:href="#ma35ae333df" x="33.023438" y="114.82031" style="stroke: #000000; stroke-width: 0.8"/>
      </g>
     </g>
     <g id="text_11">
      <text style="font: 10px 'Arial', sans-serif; text-anchor: end" x="26.023438" y="118.399216" transform="rotate(-0 26.023438 118.399216)">3</text>
     </g>
    </g>
    <g id="ytick_5">
     <g id="line2d_11">
      <g>
       <use xlink:href="#ma35ae333df" x="33.023438" y="83.013747" style="stroke: #000000; stroke-width: 0.8"/>
      </g>
     </g>
     <g id="text_12">
      <text style="font: 10px 'Arial', sans-serif; text-anchor: end" x="26.023438" y="86.592653" transform="rotate(-0 26.023438 86.592653)">4</text>
     </g>
    </g>
    <g id="ytick_6">
     <g id="line2d_12">
      <g>
       <use xlink:href="#ma35ae333df" x="33.023438" y="51.207183" style="stroke: #000000; stroke-width: 0.8"/>
      </g>
     </g>
     <g id="text_13">
      <text style="font: 10px 'Arial', sans-serif; text-anchor: end" x="26.023438" y="54.78609" transform="rotate(-0 26.023438 54.78609)">5</text>
     </g>
    </g>
    <g id="text_14">
     <text style="font: 10px 'Arial', sans-serif; text-anchor: middle" x="14.357813" y="127.08" transform="rotate(-90 14.357813 127.08)">Max Activity</text>
    </g>
   </g>
   <g id="LineCollection_1">
    <path d="M 45.304969 178.061294 
L 45.304969 164.576427 
" clip-path="url(#p30e4ef74da)" style="fill: none; stroke: #000000; stroke-width: 1.5"/>
    <path clip-path="url(#p30e4ef74da)" style="fill: none; stroke: #000000; stroke-width: 1.5"/>
    <path d="M 90.792121 187.385068 
L 90.792121 179.559922 
" clip-path="url(#p30e4ef74da)" style="fill: none; stroke: #000000; stroke-width: 1.5"/>
    <path d="M 136.279274 185.30615 
L 136.279274 170.438815 
" clip-path="url(#p30e4ef74da)" style="fill: none; stroke: #000000; stroke-width: 1.5"/>
    <path d="M 159.022851 181.694443 
L 159.022851 159.974856 
" clip-path="url(#p30e4ef74da)" style="fill: none; stroke: #000000; stroke-width: 1.5"/>
    <path d="M 181.766427 162.603341 
L 181.766427 145.835514 
" clip-path="url(#p30e4ef74da)" style="fill: none; stroke: #000000; stroke-width: 1.5"/>
   </g>
   <g id="LineCollection_2">
    <path d="M 54.402399 180.771755 
L 54.402399 173.557102 
" clip-path="url(#p30e4ef74da)" style="fill: none; stroke: #000000; stroke-width: 1.5"/>
    <path d="M 77.145976 189.882963 
L 77.145976 147.655294 
" clip-path="url(#p30e4ef74da)" style="fill: none; stroke: #000000; stroke-width: 1.5"/>
    <path d="M 99.889552 153.99194 
L 99.889552 51.84 
" clip-path="url(#p30e4ef74da)" style="fill: none; stroke: #000000; stroke-width: 1.5"/>
    <path d="M 145.376705 194.252081 
L 145.376705 188.491132 
" clip-path="url(#p30e4ef74da)" style="fill: none; stroke: #000000; stroke-width: 1.5"/>
    <path d="M 168.120281 192.722658 
L 168.120281 185.909836 
" clip-path="url(#p30e4ef74da)" style="fill: none; stroke: #000000; stroke-width: 1.5"/>
    <path d="M 190.863857 195.643772 
L 190.863857 192.302216 
" clip-path="url(#p30e4ef74da)" style="fill: none; stroke: #000000; stroke-width: 1.5"/>
   </g>
   <g id="line2d_13">
    <path d="M 33.023438 210.24 
L 203.145389 210.24 
" clip-path="url(#p30e4ef74da)" style="fill: none; stroke-dasharray: 5.55,2.4; stroke-dashoffset: 0; stroke: #808080; stroke-width: 1.5"/>
   </g>
   <g id="legend_1">
    <g id="patch_15">
     <path d="M 124.132889 80.210625 
L 196.145389 80.210625 
Q 198.145389 80.210625 198.145389 78.210625 
L 198.145389 50.92 
Q 198.145389 48.92 196.145389 48.92 
L 124.132889 48.92 
Q 122.132889 48.92 122.132889 50.92 
L 122.132889 78.210625 
Q 122.132889 80.210625 124.132889 80.210625 
z
" style="fill: #ffffff; opacity: 0.8; stroke: #cccccc; stroke-linejoin: miter"/>
    </g>
    <g id="patch_16">
     <path d="M 126.132889 60.077812 
L 146.132889 60.077812 
L 146.132889 53.077812 
L 126.132889 53.077812 
z
" style="fill: #ffff00"/>
    </g>
    <g id="text_15">
     <text style="font: 10px 'Arial', sans-serif; text-anchor: start" x="154.132889" y="60.077812" transform="rotate(-0 154.132889 60.077812)">Pref</text>
    </g>
    <g id="patch_17">
     <path d="M 126.132889 74.223125 
L 146.132889 74.223125 
L 146.132889 67.223125 
L 126.132889 67.223125 
z
" style="fill: #800080"/>
    </g>
    <g id="text_16">
     <text style="font: 10px 'Arial', sans-serif; text-anchor: start" x="154.132889" y="74.223125" transform="rotate(-0 154.132889 74.223125)">Non-Pref</text>
    </g>
   </g>
  </g>
  <g id="axes_2">
   <g id="patch_18">
    <path d="M 237.169779 210.24 
L 407.29173 210.24 
L 407.29173 43.92 
L 237.169779 43.92 
z
" style="fill: #ffffff"/>
   </g>
   <g id="PolyCollection_1">
    <defs>
     <path id="m8c8f9538b2" d="M 244.902595 -175.681025 
L 244.902595 -148.437638 
L 249.735605 -146.761861 
L 254.568615 -145.419939 
L 259.401625 -146.431473 
L 264.234635 -147.367156 
L 269.067645 -149.095122 
L 273.900655 -146.574509 
L 278.733665 -141.551829 
L 283.566675 -134.092074 
L 288.399685 -130.098421 
L 293.232695 -131.065133 
L 298.065705 -132.415955 
L 302.898715 -132.036233 
L 307.731725 -131.052015 
L 312.564735 -132.110066 
L 317.397745 -138.387917 
L 322.230755 -146.546888 
L 327.063765 -158.637307 
L 331.896775 -166.875483 
L 336.729785 -160.945823 
L 341.562794 -155.114018 
L 346.395804 -148.838684 
L 351.228814 -147.825852 
L 356.061824 -145.55815 
L 360.894834 -145.792496 
L 365.727844 -145.36121 
L 370.560854 -144.65614 
L 375.393864 -145.025004 
L 380.226874 -141.28264 
L 385.059884 -137.309009 
L 389.892894 -137.232461 
L 394.725904 -141.957981 
L 399.558914 -146.442693 
L 399.558914 -154.487734 
L 399.558914 -154.487734 
L 394.725904 -166.378781 
L 389.892894 -173.759094 
L 385.059884 -162.822138 
L 380.226874 -158.733236 
L 375.393864 -154.472822 
L 370.560854 -157.344242 
L 365.727844 -160.809842 
L 360.894834 -165.871392 
L 356.061824 -169.274831 
L 351.228814 -172.546524 
L 346.395804 -173.108149 
L 341.562794 -174.410942 
L 336.729785 -172.626227 
L 331.896775 -169.38243 
L 327.063765 -166.525913 
L 322.230755 -162.61696 
L 317.397745 -158.160985 
L 312.564735 -161.471426 
L 307.731725 -166.281163 
L 302.898715 -167.315957 
L 298.065705 -165.606809 
L 293.232695 -164.520969 
L 288.399685 -161.461963 
L 283.566675 -158.494796 
L 278.733665 -156.712039 
L 273.900655 -158.281816 
L 269.067645 -161.6298 
L 264.234635 -165.079581 
L 259.401625 -167.406329 
L 254.568615 -173.411494 
L 249.735605 -178.132707 
L 244.902595 -175.681025 
z
" style="stroke: #ffff00; stroke-opacity: 0.1"/>
    </defs>
    <g clip-path="url(#p9473bc6c9a)">
     <use xlink:href="#m8c8f9538b2" x="0" y="323.436915" style="fill: #ffff00; fill-opacity: 0.1; stroke: #ffff00; stroke-opacity: 0.1"/>
    </g>
   </g>
   <g id="PolyCollection_2">
    <defs>
     <path id="md0c19fa103" d="M 244.902595 -173.842031 
L 244.902595 -167.943688 
L 249.735605 -161.056161 
L 254.568615 -153.661779 
L 259.401625 -148.049348 
L 264.234635 -142.76438 
L 269.067645 -140.742544 
L 273.900655 -146.408316 
L 278.733665 -152.816443 
L 283.566675 -155.269426 
L 288.399685 -149.294939 
L 293.232695 -139.271348 
L 298.065705 -137.848399 
L 302.898715 -133.684163 
L 307.731725 -130.997979 
L 312.564735 -135.860226 
L 317.397745 -136.319073 
L 322.230755 -139.393184 
L 327.063765 -143.814253 
L 331.896775 -143.92917 
L 336.729785 -139.728796 
L 341.562794 -133.617434 
L 346.395804 -126.36832 
L 351.228814 -122.616081 
L 356.061824 -129.785468 
L 360.894834 -137.063804 
L 365.727844 -142.487507 
L 370.560854 -148.005356 
L 375.393864 -145.44061 
L 380.226874 -134.678399 
L 385.059884 -122.589799 
L 389.892894 -126.654938 
L 394.725904 -135.716417 
L 399.558914 -145.95767 
L 399.558914 -160.612717 
L 399.558914 -160.612717 
L 394.725904 -158.171273 
L 389.892894 -160.193457 
L 385.059884 -154.451572 
L 380.226874 -161.890033 
L 375.393864 -162.883707 
L 370.560854 -161.861033 
L 365.727844 -156.345782 
L 360.894834 -151.632109 
L 356.061824 -146.21013 
L 351.228814 -142.690266 
L 346.395804 -144.795358 
L 341.562794 -147.959266 
L 336.729785 -151.277946 
L 331.896775 -152.855774 
L 327.063765 -153.309684 
L 322.230755 -153.65046 
L 317.397745 -152.312652 
L 312.564735 -152.597737 
L 307.731725 -153.632673 
L 302.898715 -155.757971 
L 298.065705 -158.924542 
L 293.232695 -162.11054 
L 288.399685 -162.772378 
L 283.566675 -164.011665 
L 278.733665 -164.364509 
L 273.900655 -163.120554 
L 269.067645 -160.885708 
L 264.234635 -159.902924 
L 259.401625 -160.981395 
L 254.568615 -173.963082 
L 249.735605 -179.512922 
L 244.902595 -173.842031 
z
" style="stroke: #800080; stroke-opacity: 0.1"/>
    </defs>
    <g clip-path="url(#p9473bc6c9a)">
     <use xlink:href="#md0c19fa103" x="0" y="323.436915" style="fill: #800080; fill-opacity: 0.1; stroke: #800080; stroke-opacity: 0.1"/>
    </g>
   </g>
   <g id="matplotlib.axis_3">
    <g id="xtick_7">
     <g id="line2d_14">
      <g>
       <use xlink:href="#m2c2acfd77f" x="254.568615" y="210.24" style="stroke: #000000; stroke-width: 0.8"/>
      </g>
     </g>
     <g id="text_17">
      <text style="font: 10px 'Arial', sans-serif" transform="translate(223.602862 251.86503) rotate(-45)">Sampling</text>
     </g>
    </g>
    <g id="xtick_8">
     <g id="line2d_15">
      <g>
       <use xlink:href="#m2c2acfd77f" x="385.059884" y="210.24" style="stroke: #000000; stroke-width: 0.8"/>
      </g>
     </g>
     <g id="text_18">
      <text style="font: 10px 'Arial', sans-serif" transform="translate(304.26962 301.686227) rotate(-45)">Movement to Lateral Port</text>
     </g>
    </g>
    <g id="text_19">
     <text style="font: 10px 'Arial', sans-serif; text-anchor: middle" x="322.230755" y="314.249415" transform="rotate(-0 322.230755 314.249415)">Normalized Time</text>
    </g>
   </g>
   <g id="matplotlib.axis_4">
    <g id="ytick_7">
     <g id="line2d_16">
      <g>
       <use xlink:href="#ma35ae333df" x="237.169779" y="181.387705" style="stroke: #000000; stroke-width: 0.8"/>
      </g>
     </g>
     <g id="text_20">
      <text style="font: 10px 'Arial', sans-serif; text-anchor: end" x="230.169779" y="184.966611" transform="rotate(-0 230.169779 184.966611)">0</text>
     </g>
    </g>
    <g id="ytick_8">
     <g id="line2d_17">
      <g>
       <use xlink:href="#ma35ae333df" x="237.169779" y="144.267283" style="stroke: #000000; stroke-width: 0.8"/>
      </g>
     </g>
     <g id="text_21">
      <text style="font: 10px 'Arial', sans-serif; text-anchor: end" x="230.169779" y="147.846189" transform="rotate(-0 230.169779 147.846189)">1</text>
     </g>
    </g>
    <g id="ytick_9">
     <g id="line2d_18">
      <g>
       <use xlink:href="#ma35ae333df" x="237.169779" y="107.146861" style="stroke: #000000; stroke-width: 0.8"/>
      </g>
     </g>
     <g id="text_22">
      <text style="font: 10px 'Arial', sans-serif; text-anchor: end" x="230.169779" y="110.725767" transform="rotate(-0 230.169779 110.725767)">2</text>
     </g>
    </g>
    <g id="ytick_10">
     <g id="line2d_19">
      <g>
       <use xlink:href="#ma35ae333df" x="237.169779" y="70.026439" style="stroke: #000000; stroke-width: 0.8"/>
      </g>
     </g>
     <g id="text_23">
      <text style="font: 10px 'Arial', sans-serif; text-anchor: end" x="230.169779" y="73.605345" transform="rotate(-0 230.169779 73.605345)">3</text>
     </g>
    </g>
    <g id="text_24">
     <text style="font: 10px 'Arial', sans-serif; text-anchor: middle" x="218.504154" y="127.08" transform="rotate(-90 218.504154 127.08)">Mean Activity</text>
    </g>
   </g>
   <g id="line2d_20">
    <path d="M 244.902595 161.377584 
L 249.735605 160.989631 
L 254.568615 164.021198 
L 259.401625 166.518014 
L 264.234635 167.213546 
L 269.067645 168.074453 
L 273.900655 171.008752 
L 278.733665 174.304981 
L 283.566675 177.143479 
L 288.399685 177.656723 
L 293.232695 175.643864 
L 298.065705 174.425533 
L 302.898715 173.76082 
L 307.731725 174.770325 
L 312.564735 176.646169 
L 317.397745 175.162464 
L 322.230755 168.85499 
L 327.063765 160.855305 
L 331.896775 155.307958 
L 336.729785 156.65089 
L 341.562794 158.674434 
L 346.395804 162.463498 
L 351.228814 163.250726 
L 356.061824 166.020424 
L 360.894834 167.60497 
L 365.727844 170.351388 
L 370.560854 172.436724 
L 375.393864 173.688001 
L 380.226874 173.428976 
L 385.059884 173.37134 
L 389.892894 167.941137 
L 394.725904 169.268534 
L 399.558914 172.971701 
" clip-path="url(#p9473bc6c9a)" style="fill: none; stroke: #ffff00; stroke-width: 1.5; stroke-linecap: square"/>
   </g>
   <g id="line2d_21">
    <path d="M 244.902595 152.544055 
L 249.735605 153.152373 
L 254.568615 159.624483 
L 259.401625 168.921543 
L 264.234635 172.103263 
L 269.067645 172.622788 
L 273.900655 168.67248 
L 278.733665 164.846439 
L 283.566675 163.796369 
L 288.399685 167.403255 
L 293.232695 172.74597 
L 298.065705 175.050444 
L 302.898715 178.715848 
L 307.731725 181.121589 
L 312.564735 179.207933 
L 317.397745 179.121052 
L 322.230755 176.915092 
L 327.063765 174.874946 
L 331.896775 175.044443 
L 336.729785 177.933543 
L 341.562794 182.648564 
L 346.395804 187.855075 
L 351.228814 190.78374 
L 356.061824 185.439116 
L 360.894834 179.088958 
L 365.727844 174.02027 
L 370.560854 168.50372 
L 375.393864 169.274756 
L 380.226874 175.152698 
L 385.059884 184.916229 
L 389.892894 180.012717 
L 394.725904 176.49307 
L 399.558914 170.151721 
" clip-path="url(#p9473bc6c9a)" style="fill: none; stroke: #800080; stroke-width: 1.5; stroke-linecap: square"/>
   </g>
   <g id="line2d_22">
    <path d="M 254.568615 210.24 
L 254.568615 43.92 
" clip-path="url(#p9473bc6c9a)" style="fill: none; stroke-dasharray: 5.55,2.4; stroke-dashoffset: 0; stroke: #808080; stroke-opacity: 0.7; stroke-width: 1.5"/>
   </g>
   <g id="line2d_23">
    <path d="M 385.059884 210.24 
L 385.059884 43.92 
" clip-path="url(#p9473bc6c9a)" style="fill: none; stroke-dasharray: 5.55,2.4; stroke-dashoffset: 0; stroke: #808080; stroke-opacity: 0.7; stroke-width: 1.5"/>
   </g>
   <g id="text_25">
    <text style="font: 12px 'Arial', sans-serif; text-anchor: middle" x="322.230755" y="37.92" transform="rotate(-0 322.230755 37.92)">3 Incorrect Trials</text>
   </g>
   <g id="legend_2">
    <g id="patch_19">
     <path d="M 264.968107 64.932272 
L 379.493402 64.932272 
Q 380.651402 64.932272 380.651402 63.774272 
L 380.651402 47.973 
Q 380.651402 46.815 379.493402 46.815 
L 264.968107 46.815 
Q 263.810107 46.815 263.810107 47.973 
L 263.810107 63.774272 
Q 263.810107 64.932272 264.968107 64.932272 
z
" style="fill: #ffffff; opacity: 0.8; stroke: #cccccc; stroke-linejoin: miter"/>
    </g>
    <g id="line2d_24">
     <path d="M 266.126107 51.248873 
L 271.916107 51.248873 
L 277.706107 51.248873 
" style="fill: none; stroke: #ffff00; stroke-width: 1.5; stroke-linecap: square"/>
    </g>
    <g id="text_26">
     <text style="font: 5.79px 'Arial', sans-serif; text-anchor: start" x="282.338107" y="53.275373" transform="rotate(-0 282.338107 53.275373)">Pref - PrevCount=-3 - #Trials=4.0</text>
    </g>
    <g id="line2d_25">
     <path d="M 266.126107 59.439009 
L 271.916107 59.439009 
L 277.706107 59.439009 
" style="fill: none; stroke: #800080; stroke-width: 1.5; stroke-linecap: square"/>
    </g>
    <g id="text_27">
     <text style="font: 5.79px 'Arial', sans-serif; text-anchor: start" x="282.338107" y="61.465509" transform="rotate(-0 282.338107 61.465509)">NonPref - PrevCount=-3 - #Trials=4.0</text>
    </g>
   </g>
  </g>
  <g id="axes_3">
   <g id="patch_20">
    <path d="M 441.31612 210.24 
L 611.438072 210.24 
L 611.438072 43.92 
L 441.31612 43.92 
z
" style="fill: #ffffff"/>
   </g>
   <g id="PolyCollection_3">
    <defs>
     <path id="m79cb93da7d" d="M 449.048936 -163.533672 
L 449.048936 -138.397115 
L 453.881946 -134.558915 
L 458.714956 -134.63279 
L 463.547966 -137.70815 
L 468.380976 -138.862834 
L 473.213986 -135.074694 
L 478.046996 -129.72056 
L 482.880006 -126.823372 
L 487.713016 -124.654064 
L 492.546026 -125.272504 
L 497.379036 -126.4433 
L 502.212046 -132.791976 
L 507.045056 -139.207693 
L 511.878066 -138.144394 
L 516.711076 -129.461076 
L 521.544086 -119.759839 
L 526.377096 -119.862601 
L 531.210106 -127.425026 
L 536.043116 -132.72409 
L 540.876126 -133.777247 
L 545.709136 -136.830281 
L 550.542146 -139.976619 
L 555.375156 -140.182889 
L 560.208166 -138.540376 
L 565.041176 -138.484684 
L 569.874186 -138.714966 
L 574.707196 -138.258882 
L 579.540206 -133.79989 
L 584.373216 -128.252372 
L 589.206226 -124.363851 
L 594.039236 -124.208318 
L 598.872246 -129.273639 
L 603.705256 -132.935695 
L 603.705256 -155.921954 
L 603.705256 -155.921954 
L 598.872246 -157.813951 
L 594.039236 -161.830237 
L 589.206226 -173.177521 
L 584.373216 -178.154211 
L 579.540206 -185.58453 
L 574.707196 -186.043775 
L 569.874186 -182.6095 
L 565.041176 -178.738204 
L 560.208166 -176.068066 
L 555.375156 -174.390056 
L 550.542146 -170.029848 
L 545.709136 -162.295067 
L 540.876126 -155.510561 
L 536.043116 -151.055022 
L 531.210106 -143.46334 
L 526.377096 -136.802553 
L 521.544086 -137.142227 
L 516.711076 -146.874787 
L 511.878066 -158.978599 
L 507.045056 -166.529513 
L 502.212046 -166.822105 
L 497.379036 -166.369187 
L 492.546026 -164.499601 
L 487.713016 -161.613905 
L 482.880006 -160.780225 
L 478.046996 -163.066105 
L 473.213986 -168.170501 
L 468.380976 -173.733942 
L 463.547966 -174.11464 
L 458.714956 -172.496208 
L 453.881946 -163.773955 
L 449.048936 -163.533672 
z
" style="stroke: #800080; stroke-opacity: 0.1"/>
    </defs>
    <g clip-path="url(#pb0eb5d6154)">
     <use xlink:href="#m79cb93da7d" x="0" y="323.436915" style="fill: #800080; fill-opacity: 0.1; stroke: #800080; stroke-opacity: 0.1"/>
    </g>
   </g>
   <g id="matplotlib.axis_5">
    <g id="xtick_9">
     <g id="line2d_26">
      <g>
       <use xlink:href="#m2c2acfd77f" x="458.714956" y="210.24" style="stroke: #000000; stroke-width: 0.8"/>
      </g>
     </g>
     <g id="text_28">
      <text style="font: 10px 'Arial', sans-serif" transform="translate(427.749204 251.86503) rotate(-45)">Sampling</text>
     </g>
    </g>
    <g id="xtick_10">
     <g id="line2d_27">
      <g>
       <use xlink:href="#m2c2acfd77f" x="589.206226" y="210.24" style="stroke: #000000; stroke-width: 0.8"/>
      </g>
     </g>
     <g id="text_29">
      <text style="font: 10px 'Arial', sans-serif" transform="translate(508.415961 301.686227) rotate(-45)">Movement to Lateral Port</text>
     </g>
    </g>
    <g id="text_30">
     <text style="font: 10px 'Arial', sans-serif; text-anchor: middle" x="526.377096" y="314.249415" transform="rotate(-0 526.377096 314.249415)">Normalized Time</text>
    </g>
   </g>
   <g id="matplotlib.axis_6">
    <g id="ytick_11">
     <g id="line2d_28">
      <g>
       <use xlink:href="#ma35ae333df" x="441.31612" y="181.387705" style="stroke: #000000; stroke-width: 0.8"/>
      </g>
     </g>
     <g id="text_31">
      <text style="font: 10px 'Arial', sans-serif; text-anchor: end" x="434.31612" y="184.966611" transform="rotate(-0 434.31612 184.966611)">0</text>
     </g>
    </g>
    <g id="ytick_12">
     <g id="line2d_29">
      <g>
       <use xlink:href="#ma35ae333df" x="441.31612" y="144.267283" style="stroke: #000000; stroke-width: 0.8"/>
      </g>
     </g>
     <g id="text_32">
      <text style="font: 10px 'Arial', sans-serif; text-anchor: end" x="434.31612" y="147.846189" transform="rotate(-0 434.31612 147.846189)">1</text>
     </g>
    </g>
    <g id="ytick_13">
     <g id="line2d_30">
      <g>
       <use xlink:href="#ma35ae333df" x="441.31612" y="107.146861" style="stroke: #000000; stroke-width: 0.8"/>
      </g>
     </g>
     <g id="text_33">
      <text style="font: 10px 'Arial', sans-serif; text-anchor: end" x="434.31612" y="110.725767" transform="rotate(-0 434.31612 110.725767)">2</text>
     </g>
    </g>
    <g id="ytick_14">
     <g id="line2d_31">
      <g>
       <use xlink:href="#ma35ae333df" x="441.31612" y="70.026439" style="stroke: #000000; stroke-width: 0.8"/>
      </g>
     </g>
     <g id="text_34">
      <text style="font: 10px 'Arial', sans-serif; text-anchor: end" x="434.31612" y="73.605345" transform="rotate(-0 434.31612 73.605345)">3</text>
     </g>
    </g>
    <g id="text_35">
     <text style="font: 10px 'Arial', sans-serif; text-anchor: middle" x="422.650495" y="127.08" transform="rotate(-90 422.650495 127.08)">Mean Activity</text>
    </g>
   </g>
   <g id="line2d_32">
    <path d="M 449.048936 172.471521 
L 453.881946 174.270479 
L 458.714956 169.872415 
L 463.547966 167.52552 
L 468.380976 167.138527 
L 473.213986 171.814317 
L 478.046996 177.043582 
L 482.880006 179.635116 
L 487.713016 180.302929 
L 492.546026 178.550862 
L 497.379036 177.030672 
L 502.212046 173.629873 
L 507.045056 170.568312 
L 511.878066 174.875418 
L 516.711076 185.268983 
L 521.544086 194.985882 
L 526.377096 195.104337 
L 531.210106 187.992732 
L 536.043116 181.547359 
L 540.876126 178.79301 
L 545.709136 173.87424 
L 550.542146 168.433681 
L 555.375156 166.150442 
L 560.208166 166.132693 
L 565.041176 164.82547 
L 569.874186 162.77468 
L 574.707196 161.285586 
L 579.540206 163.744705 
L 584.373216 170.233623 
L 589.206226 174.666228 
L 594.039236 180.417637 
L 598.872246 179.89312 
L 603.705256 179.00809 
" clip-path="url(#pb0eb5d6154)" style="fill: none; stroke: #800080; stroke-width: 1.5; stroke-linecap: square"/>
   </g>
   <g id="line2d_33">
    <path d="M 458.714956 210.24 
L 458.714956 43.92 
" clip-path="url(#pb0eb5d6154)" style="fill: none; stroke-dasharray: 5.55,2.4; stroke-dashoffset: 0; stroke: #808080; stroke-opacity: 0.7; stroke-width: 1.5"/>
   </g>
   <g id="line2d_34">
    <path d="M 589.206226 210.24 
L 589.206226 43.92 
" clip-path="url(#pb0eb5d6154)" style="fill: none; stroke-dasharray: 5.55,2.4; stroke-dashoffset: 0; stroke: #808080; stroke-opacity: 0.7; stroke-width: 1.5"/>
   </g>
   <g id="text_36">
    <text style="font: 12px 'Arial', sans-serif; text-anchor: middle" x="526.377096" y="37.92" transform="rotate(-0 526.377096 37.92)">2 Incorrect Trials</text>
   </g>
   <g id="legend_3">
    <g id="patch_21">
     <path d="M 469.114448 207.345 
L 583.639744 207.345 
Q 584.797744 207.345 584.797744 206.187 
L 584.797744 198.575864 
Q 584.797744 197.417864 583.639744 197.417864 
L 469.114448 197.417864 
Q 467.956448 197.417864 467.956448 198.575864 
L 467.956448 206.187 
Q 467.956448 207.345 469.114448 207.345 
z
" style="fill: #ffffff; opacity: 0.8; stroke: #cccccc; stroke-linejoin: miter"/>
    </g>
    <g id="line2d_35">
     <path d="M 470.272448 201.851738 
L 476.062448 201.851738 
L 481.852448 201.851738 
" style="fill: none; stroke: #800080; stroke-width: 1.5; stroke-linecap: square"/>
    </g>
    <g id="text_37">
     <text style="font: 5.79px 'Arial', sans-serif; text-anchor: start" x="486.484448" y="203.878238" transform="rotate(-0 486.484448 203.878238)">NonPref - PrevCount=-2 - #Trials=8.0</text>
    </g>
   </g>
  </g>
  <g id="axes_4">
   <g id="patch_22">
    <path d="M 645.462462 210.24 
L 815.584413 210.24 
L 815.584413 43.92 
L 645.462462 43.92 
z
" style="fill: #ffffff"/>
   </g>
   <g id="PolyCollection_4">
    <defs>
     <path id="md8a1dd5494" d="M 653.195278 -141.36533 
L 653.195278 -133.350657 
L 658.028288 -135.496265 
L 662.861298 -130.103281 
L 667.694308 -126.902817 
L 672.527318 -127.427585 
L 677.360328 -126.959425 
L 682.193338 -126.583417 
L 687.026348 -125.02839 
L 691.859358 -121.546654 
L 696.692368 -119.841982 
L 701.525378 -117.220821 
L 706.358388 -119.983225 
L 711.191398 -125.334325 
L 716.024408 -126.61221 
L 720.857418 -123.279382 
L 725.690428 -121.008596 
L 730.523438 -119.415474 
L 735.356447 -120.483524 
L 740.189457 -122.162487 
L 745.022467 -125.196495 
L 749.855477 -128.490298 
L 754.688487 -130.024877 
L 759.521497 -131.167546 
L 764.354507 -130.864327 
L 769.187517 -131.515315 
L 774.020527 -133.349217 
L 778.853537 -136.209474 
L 783.686547 -137.007851 
L 788.519557 -137.038336 
L 793.352567 -135.128115 
L 798.185577 -138.472808 
L 803.018587 -142.081421 
L 807.851597 -144.638154 
L 807.851597 -158.763046 
L 807.851597 -158.763046 
L 803.018587 -154.141986 
L 798.185577 -150.37038 
L 793.352567 -147.081084 
L 788.519557 -148.691736 
L 783.686547 -146.945504 
L 778.853537 -146.151997 
L 774.020527 -145.523964 
L 769.187517 -144.196164 
L 764.354507 -142.296031 
L 759.521497 -141.673335 
L 754.688487 -140.044853 
L 749.855477 -138.480198 
L 745.022467 -134.371128 
L 740.189457 -131.802711 
L 735.356447 -131.542494 
L 730.523438 -129.366454 
L 725.690428 -129.62806 
L 720.857418 -131.560125 
L 716.024408 -135.844505 
L 711.191398 -135.275561 
L 706.358388 -130.007019 
L 701.525378 -127.099545 
L 696.692368 -128.98605 
L 691.859358 -129.511352 
L 687.026348 -131.94955 
L 682.193338 -135.238343 
L 677.360328 -136.522221 
L 672.527318 -135.41091 
L 667.694308 -135.283103 
L 662.861298 -143.106963 
L 658.028288 -146.838242 
L 653.195278 -141.36533 
z
" style="stroke: #ffff00; stroke-opacity: 0.1"/>
    </defs>
    <g clip-path="url(#pad0434c26e)">
     <use xlink:href="#md8a1dd5494" x="0" y="323.436915" style="fill: #ffff00; fill-opacity: 0.1; stroke: #ffff00; stroke-opacity: 0.1"/>
    </g>
   </g>
   <g id="PolyCollection_5">
    <defs>
     <path id="ma8825b37c0" d="M 653.195278 -227.088862 
L 653.195278 -164.073103 
L 658.028288 -158.269543 
L 662.861298 -157.464308 
L 667.694308 -166.527973 
L 672.527318 -162.013483 
L 677.360328 -157.744567 
L 682.193338 -157.233008 
L 687.026348 -151.060039 
L 691.859358 -150.962689 
L 696.692368 -157.521995 
L 701.525378 -153.772813 
L 706.358388 -152.841566 
L 711.191398 -150.848177 
L 716.024408 -149.23917 
L 720.857418 -151.508744 
L 725.690428 -152.95234 
L 730.523438 -156.133128 
L 735.356447 -154.570399 
L 740.189457 -145.826828 
L 745.022467 -140.893599 
L 749.855477 -134.915516 
L 754.688487 -136.718244 
L 759.521497 -142.832284 
L 764.354507 -144.003214 
L 769.187517 -142.706695 
L 774.020527 -149.352415 
L 778.853537 -151.383332 
L 783.686547 -152.808135 
L 788.519557 -149.959318 
L 793.352567 -150.983432 
L 798.185577 -143.355902 
L 803.018587 -129.270672 
L 807.851597 -131.194696 
L 807.851597 -213.865064 
L 807.851597 -213.865064 
L 803.018587 -225.893767 
L 798.185577 -236.384925 
L 793.352567 -238.740007 
L 788.519557 -237.527839 
L 783.686547 -236.00233 
L 778.853537 -232.076152 
L 774.020527 -236.397421 
L 769.187517 -242.271669 
L 764.354507 -244.751052 
L 759.521497 -239.661834 
L 754.688487 -231.373677 
L 749.855477 -237.6787 
L 745.022467 -255.608777 
L 740.189457 -262.40087 
L 735.356447 -260.858369 
L 730.523438 -264.444372 
L 725.690428 -267.01985 
L 720.857418 -248.050566 
L 716.024408 -210.424629 
L 711.191398 -184.55442 
L 706.358388 -176.740297 
L 701.525378 -180.065626 
L 696.692368 -190.774892 
L 691.859358 -197.830239 
L 687.026348 -206.52967 
L 682.193338 -223.742983 
L 677.360328 -231.701258 
L 672.527318 -246.187192 
L 667.694308 -254.539115 
L 662.861298 -234.713467 
L 658.028288 -226.208082 
L 653.195278 -227.088862 
z
" style="stroke: #800080; stroke-opacity: 0.1"/>
    </defs>
    <g clip-path="url(#pad0434c26e)">
     <use xlink:href="#ma8825b37c0" x="0" y="323.436915" style="fill: #800080; fill-opacity: 0.1; stroke: #800080; stroke-opacity: 0.1"/>
    </g>
   </g>
   <g id="matplotlib.axis_7">
    <g id="xtick_11">
     <g id="line2d_36">
      <g>
       <use xlink:href="#m2c2acfd77f" x="662.861298" y="210.24" style="stroke: #000000; stroke-width: 0.8"/>
      </g>
     </g>
     <g id="text_38">
      <text style="font: 10px 'Arial', sans-serif" transform="translate(631.895545 251.86503) rotate(-45)">Sampling</text>
     </g>
    </g>
    <g id="xtick_12">
     <g id="line2d_37">
      <g>
       <use xlink:href="#m2c2acfd77f" x="793.352567" y="210.24" style="stroke: #000000; stroke-width: 0.8"/>
      </g>
     </g>
     <g id="text_39">
      <text style="font: 10px 'Arial', sans-serif" transform="translate(712.562303 301.686227) rotate(-45)">Movement to Lateral Port</text>
     </g>
    </g>
    <g id="text_40">
     <text style="font: 10px 'Arial', sans-serif; text-anchor: middle" x="730.523438" y="314.249415" transform="rotate(-0 730.523438 314.249415)">Normalized Time</text>
    </g>
   </g>
   <g id="matplotlib.axis_8">
    <g id="ytick_15">
     <g id="line2d_38">
      <g>
       <use xlink:href="#ma35ae333df" x="645.462462" y="181.387705" style="stroke: #000000; stroke-width: 0.8"/>
      </g>
     </g>
     <g id="text_41">
      <text style="font: 10px 'Arial', sans-serif; text-anchor: end" x="638.462462" y="184.966611" transform="rotate(-0 638.462462 184.966611)">0</text>
     </g>
    </g>
    <g id="ytick_16">
     <g id="line2d_39">
      <g>
       <use xlink:href="#ma35ae333df" x="645.462462" y="144.267283" style="stroke: #000000; stroke-width: 0.8"/>
      </g>
     </g>
     <g id="text_42">
      <text style="font: 10px 'Arial', sans-serif; text-anchor: end" x="638.462462" y="147.846189" transform="rotate(-0 638.462462 147.846189)">1</text>
     </g>
    </g>
    <g id="ytick_17">
     <g id="line2d_40">
      <g>
       <use xlink:href="#ma35ae333df" x="645.462462" y="107.146861" style="stroke: #000000; stroke-width: 0.8"/>
      </g>
     </g>
     <g id="text_43">
      <text style="font: 10px 'Arial', sans-serif; text-anchor: end" x="638.462462" y="110.725767" transform="rotate(-0 638.462462 110.725767)">2</text>
     </g>
    </g>
    <g id="ytick_18">
     <g id="line2d_41">
      <g>
       <use xlink:href="#ma35ae333df" x="645.462462" y="70.026439" style="stroke: #000000; stroke-width: 0.8"/>
      </g>
     </g>
     <g id="text_44">
      <text style="font: 10px 'Arial', sans-serif; text-anchor: end" x="638.462462" y="73.605345" transform="rotate(-0 638.462462 73.605345)">3</text>
     </g>
    </g>
    <g id="text_45">
     <text style="font: 10px 'Arial', sans-serif; text-anchor: middle" x="626.796837" y="127.08" transform="rotate(-90 626.796837 127.08)">Mean Activity</text>
    </g>
   </g>
   <g id="line2d_42">
    <path d="M 653.195278 186.078921 
L 658.028288 182.269661 
L 662.861298 186.831793 
L 667.694308 192.343955 
L 672.527318 192.017667 
L 677.360328 191.696092 
L 682.193338 192.526035 
L 687.026348 194.947944 
L 691.859358 197.907912 
L 696.692368 199.022899 
L 701.525378 201.276731 
L 706.358388 198.441792 
L 711.191398 193.131972 
L 716.024408 192.208557 
L 720.857418 196.017161 
L 725.690428 198.118587 
L 730.523438 199.04595 
L 735.356447 197.423905 
L 740.189457 196.454316 
L 745.022467 193.653103 
L 749.855477 189.951667 
L 754.688487 188.40205 
L 759.521497 187.016474 
L 764.354507 186.856735 
L 769.187517 185.581175 
L 774.020527 184.000324 
L 778.853537 182.256179 
L 783.686547 181.460237 
L 788.519557 180.571879 
L 793.352567 182.332315 
L 798.185577 179.015321 
L 803.018587 175.325212 
L 807.851597 171.736315 
" clip-path="url(#pad0434c26e)" style="fill: none; stroke: #ffff00; stroke-width: 1.5; stroke-linecap: square"/>
   </g>
   <g id="line2d_43">
    <path d="M 653.195278 127.855931 
L 658.028288 131.198102 
L 662.861298 127.348027 
L 667.694308 112.903371 
L 672.527318 119.33658 
L 677.360328 128.714002 
L 682.193338 132.948919 
L 687.026348 144.64206 
L 691.859358 149.040451 
L 696.692368 149.288472 
L 701.525378 156.517694 
L 706.358388 158.645983 
L 711.191398 155.735615 
L 716.024408 143.605014 
L 720.857418 123.65726 
L 725.690428 113.450822 
L 730.523438 113.148163 
L 735.356447 115.72253 
L 740.189457 119.323065 
L 745.022467 125.185724 
L 749.855477 137.139807 
L 754.688487 139.390952 
L 759.521497 132.189855 
L 764.354507 129.059779 
L 769.187517 130.947734 
L 774.020527 130.561994 
L 778.853537 131.70717 
L 783.686547 129.031684 
L 788.519557 129.693338 
L 793.352567 128.575195 
L 798.185577 133.566499 
L 803.018587 145.854696 
L 807.851597 150.907036 
" clip-path="url(#pad0434c26e)" style="fill: none; stroke: #800080; stroke-width: 1.5; stroke-linecap: square"/>
   </g>
   <g id="line2d_44">
    <path d="M 662.861298 210.24 
L 662.861298 43.92 
" clip-path="url(#pad0434c26e)" style="fill: none; stroke-dasharray: 5.55,2.4; stroke-dashoffset: 0; stroke: #808080; stroke-opacity: 0.7; stroke-width: 1.5"/>
   </g>
   <g id="line2d_45">
    <path d="M 793.352567 210.24 
L 793.352567 43.92 
" clip-path="url(#pad0434c26e)" style="fill: none; stroke-dasharray: 5.55,2.4; stroke-dashoffset: 0; stroke: #808080; stroke-opacity: 0.7; stroke-width: 1.5"/>
   </g>
   <g id="text_46">
    <text style="font: 12px 'Arial', sans-serif; text-anchor: middle" x="730.523438" y="37.92" transform="rotate(-0 730.523438 37.92)">1 Incorrect Trials</text>
   </g>
   <g id="legend_4">
    <g id="patch_23">
     <path d="M 673.26079 64.932272 
L 787.786085 64.932272 
Q 788.944085 64.932272 788.944085 63.774272 
L 788.944085 47.973 
Q 788.944085 46.815 787.786085 46.815 
L 673.26079 46.815 
Q 672.10279 46.815 672.10279 47.973 
L 672.10279 63.774272 
Q 672.10279 64.932272 673.26079 64.932272 
z
" style="fill: #ffffff; opacity: 0.8; stroke: #cccccc; stroke-linejoin: miter"/>
    </g>
    <g id="line2d_46">
     <path d="M 674.41879 51.248873 
L 680.20879 51.248873 
L 685.99879 51.248873 
" style="fill: none; stroke: #ffff00; stroke-width: 1.5; stroke-linecap: square"/>
    </g>
    <g id="text_47">
     <text style="font: 5.79px 'Arial', sans-serif; text-anchor: start" x="690.63079" y="53.275373" transform="rotate(-0 690.63079 53.275373)">Pref - PrevCount=-1 - #Trials=14.0</text>
    </g>
    <g id="line2d_47">
     <path d="M 674.41879 59.439009 
L 680.20879 59.439009 
L 685.99879 59.439009 
" style="fill: none; stroke: #800080; stroke-width: 1.5; stroke-linecap: square"/>
    </g>
    <g id="text_48">
     <text style="font: 5.79px 'Arial', sans-serif; text-anchor: start" x="690.63079" y="61.465509" transform="rotate(-0 690.63079 61.465509)">NonPref - PrevCount=-1 - #Trials=6.0</text>
    </g>
   </g>
  </g>
  <g id="axes_5">
   <g id="patch_24">
    <path d="M 849.608803 210.24 
L 1019.730755 210.24 
L 1019.730755 43.92 
L 849.608803 43.92 
z
" style="fill: #ffffff"/>
   </g>
   <g id="PolyCollection_6">
    <defs>
     <path id="m8d369dd591" d="M 857.341619 -151.392804 
L 857.341619 -141.056168 
L 862.174629 -139.207949 
L 867.007639 -136.602972 
L 871.840649 -136.134213 
L 876.673659 -136.419643 
L 881.506669 -133.700297 
L 886.339679 -132.390429 
L 891.172689 -129.254715 
L 896.005699 -126.892387 
L 900.838709 -122.426862 
L 905.671719 -122.594691 
L 910.504729 -124.774328 
L 915.337739 -129.444974 
L 920.170749 -127.917021 
L 925.003759 -129.473346 
L 929.836769 -131.977653 
L 934.669779 -134.530007 
L 939.502789 -135.38346 
L 944.335799 -133.599564 
L 949.168809 -133.144501 
L 954.001819 -135.153924 
L 958.834829 -135.568826 
L 963.667839 -134.365912 
L 968.500849 -135.66543 
L 973.333859 -134.601263 
L 978.166869 -136.285815 
L 982.999879 -136.025665 
L 987.832889 -136.335961 
L 992.665899 -134.68708 
L 997.498909 -136.660712 
L 1002.331919 -140.041391 
L 1007.164929 -142.961431 
L 1011.997939 -142.04516 
L 1011.997939 -151.47489 
L 1011.997939 -151.47489 
L 1007.164929 -154.50434 
L 1002.331919 -152.869244 
L 997.498909 -149.744464 
L 992.665899 -149.566615 
L 987.832889 -152.610646 
L 982.999879 -152.756854 
L 978.166869 -152.34087 
L 973.333859 -151.535235 
L 968.500849 -153.384118 
L 963.667839 -156.134668 
L 958.834829 -159.548504 
L 954.001819 -157.043086 
L 949.168809 -152.925971 
L 944.335799 -150.739897 
L 939.502789 -149.515254 
L 934.669779 -146.972382 
L 929.836769 -145.060253 
L 925.003759 -143.139887 
L 920.170749 -139.560406 
L 915.337739 -138.425512 
L 910.504729 -135.276352 
L 905.671719 -134.377701 
L 900.838709 -135.243186 
L 896.005699 -138.425806 
L 891.172689 -139.879508 
L 886.339679 -142.320381 
L 881.506669 -144.261387 
L 876.673659 -146.994802 
L 871.840649 -149.035464 
L 867.007639 -149.496428 
L 862.174629 -151.460809 
L 857.341619 -151.392804 
z
" style="stroke: #ffff00; stroke-opacity: 0.1"/>
    </defs>
    <g clip-path="url(#pd31db111b1)">
     <use xlink:href="#m8d369dd591" x="0" y="323.436915" style="fill: #ffff00; fill-opacity: 0.1; stroke: #ffff00; stroke-opacity: 0.1"/>
    </g>
   </g>
   <g id="PolyCollection_7">
    <defs>
     <path id="m028678b7f6" d="M 857.341619 -146.935368 
L 857.341619 -130.177794 
L 862.174629 -130.930341 
L 867.007639 -129.234822 
L 871.840649 -124.676407 
L 876.673659 -124.506375 
L 881.506669 -125.406029 
L 886.339679 -128.961098 
L 891.172689 -133.190044 
L 896.005699 -131.952286 
L 900.838709 -130.258905 
L 905.671719 -127.933584 
L 910.504729 -128.585963 
L 915.337739 -131.231241 
L 920.170749 -128.918808 
L 925.003759 -125.273548 
L 929.836769 -127.062662 
L 934.669779 -128.607035 
L 939.502789 -128.999245 
L 944.335799 -130.489652 
L 949.168809 -133.240097 
L 954.001819 -131.984574 
L 958.834829 -124.265053 
L 963.667839 -119.370625 
L 968.500849 -121.266727 
L 973.333859 -123.218784 
L 978.166869 -124.598557 
L 982.999879 -129.055882 
L 987.832889 -128.058402 
L 992.665899 -122.820178 
L 997.498909 -117.414413 
L 1002.331919 -118.156232 
L 1007.164929 -121.342297 
L 1011.997939 -126.832579 
L 1011.997939 -138.857817 
L 1011.997939 -138.857817 
L 1007.164929 -133.760703 
L 1002.331919 -129.457715 
L 997.498909 -128.656788 
L 992.665899 -133.065506 
L 987.832889 -136.36033 
L 982.999879 -139.440016 
L 978.166869 -137.116023 
L 973.333859 -134.662526 
L 968.500849 -131.094005 
L 963.667839 -129.487072 
L 958.834829 -133.823731 
L 954.001819 -140.942958 
L 949.168809 -139.78958 
L 944.335799 -139.345397 
L 939.502789 -137.952866 
L 934.669779 -137.923749 
L 929.836769 -137.751873 
L 925.003759 -136.309034 
L 920.170749 -139.809611 
L 915.337739 -142.902297 
L 910.504729 -141.876722 
L 905.671719 -139.095065 
L 900.838709 -140.4644 
L 896.005699 -144.830154 
L 891.172689 -145.998198 
L 886.339679 -139.964408 
L 881.506669 -136.906716 
L 876.673659 -134.30371 
L 871.840649 -133.579956 
L 867.007639 -137.468431 
L 862.174629 -145.118016 
L 857.341619 -146.935368 
z
" style="stroke: #800080; stroke-opacity: 0.1"/>
    </defs>
    <g clip-path="url(#pd31db111b1)">
     <use xlink:href="#m028678b7f6" x="0" y="323.436915" style="fill: #800080; fill-opacity: 0.1; stroke: #800080; stroke-opacity: 0.1"/>
    </g>
   </g>
   <g id="matplotlib.axis_9">
    <g id="xtick_13">
     <g id="line2d_48">
      <g>
       <use xlink:href="#m2c2acfd77f" x="867.007639" y="210.24" style="stroke: #000000; stroke-width: 0.8"/>
      </g>
     </g>
     <g id="text_49">
      <text style="font: 10px 'Arial', sans-serif" transform="translate(836.041887 251.86503) rotate(-45)">Sampling</text>
     </g>
    </g>
    <g id="xtick_14">
     <g id="line2d_49">
      <g>
       <use xlink:href="#m2c2acfd77f" x="997.498909" y="210.24" style="stroke: #000000; stroke-width: 0.8"/>
      </g>
     </g>
     <g id="text_50">
      <text style="font: 10px 'Arial', sans-serif" transform="translate(916.708644 301.686227) rotate(-45)">Movement to Lateral Port</text>
     </g>
    </g>
    <g id="text_51">
     <text style="font: 10px 'Arial', sans-serif; text-anchor: middle" x="934.669779" y="314.249415" transform="rotate(-0 934.669779 314.249415)">Normalized Time</text>
    </g>
   </g>
   <g id="matplotlib.axis_10">
    <g id="ytick_19">
     <g id="line2d_50">
      <g>
       <use xlink:href="#ma35ae333df" x="849.608803" y="181.387705" style="stroke: #000000; stroke-width: 0.8"/>
      </g>
     </g>
     <g id="text_52">
      <text style="font: 10px 'Arial', sans-serif; text-anchor: end" x="842.608803" y="184.966611" transform="rotate(-0 842.608803 184.966611)">0</text>
     </g>
    </g>
    <g id="ytick_20">
     <g id="line2d_51">
      <g>
       <use xlink:href="#ma35ae333df" x="849.608803" y="144.267283" style="stroke: #000000; stroke-width: 0.8"/>
      </g>
     </g>
     <g id="text_53">
      <text style="font: 10px 'Arial', sans-serif; text-anchor: end" x="842.608803" y="147.846189" transform="rotate(-0 842.608803 147.846189)">1</text>
     </g>
    </g>
    <g id="ytick_21">
     <g id="line2d_52">
      <g>
       <use xlink:href="#ma35ae333df" x="849.608803" y="107.146861" style="stroke: #000000; stroke-width: 0.8"/>
      </g>
     </g>
     <g id="text_54">
      <text style="font: 10px 'Arial', sans-serif; text-anchor: end" x="842.608803" y="110.725767" transform="rotate(-0 842.608803 110.725767)">2</text>
     </g>
    </g>
    <g id="ytick_22">
     <g id="line2d_53">
      <g>
       <use xlink:href="#ma35ae333df" x="849.608803" y="70.026439" style="stroke: #000000; stroke-width: 0.8"/>
      </g>
     </g>
     <g id="text_55">
      <text style="font: 10px 'Arial', sans-serif; text-anchor: end" x="842.608803" y="73.605345" transform="rotate(-0 842.608803 73.605345)">3</text>
     </g>
    </g>
    <g id="text_56">
     <text style="font: 10px 'Arial', sans-serif; text-anchor: middle" x="830.943178" y="127.08" transform="rotate(-90 830.943178 127.08)">Mean Activity</text>
    </g>
   </g>
   <g id="line2d_54">
    <path d="M 857.341619 177.212429 
L 862.174629 178.102535 
L 867.007639 180.387215 
L 871.840649 180.852076 
L 876.673659 181.729692 
L 881.506669 184.456073 
L 886.339679 186.08151 
L 891.172689 188.869804 
L 896.005699 190.777818 
L 900.838709 194.601891 
L 905.671719 194.950719 
L 910.504729 193.411574 
L 915.337739 189.501671 
L 920.170749 189.698201 
L 925.003759 187.130298 
L 929.836769 184.917962 
L 934.669779 182.68572 
L 939.502789 180.987558 
L 944.335799 181.267184 
L 949.168809 180.401679 
L 954.001819 177.338409 
L 958.834829 175.87825 
L 963.667839 178.186624 
L 968.500849 178.91214 
L 973.333859 180.368665 
L 978.166869 179.123572 
L 982.999879 179.045655 
L 987.832889 178.963612 
L 992.665899 181.310067 
L 997.498909 180.234326 
L 1002.331919 176.981597 
L 1007.164929 174.704029 
L 1011.997939 176.67689 
" clip-path="url(#pd31db111b1)" style="fill: none; stroke: #ffff00; stroke-width: 1.5; stroke-linecap: square"/>
   </g>
   <g id="line2d_55">
    <path d="M 857.341619 184.880334 
L 862.174629 185.412736 
L 867.007639 190.085289 
L 871.840649 194.308733 
L 876.673659 194.031871 
L 881.506669 192.280542 
L 886.339679 188.974161 
L 891.172689 183.842794 
L 896.005699 185.045695 
L 900.838709 188.075262 
L 905.671719 189.92259 
L 910.504729 188.205572 
L 915.337739 186.370146 
L 920.170749 189.072705 
L 925.003759 192.645624 
L 929.836769 191.029647 
L 934.669779 190.171522 
L 939.502789 189.960859 
L 944.335799 188.51939 
L 949.168809 186.922076 
L 954.001819 186.973149 
L 958.834829 194.392523 
L 963.667839 199.008066 
L 968.500849 197.256548 
L 973.333859 194.496259 
L 978.166869 192.579625 
L 982.999879 189.188966 
L 987.832889 191.227548 
L 992.665899 195.494072 
L 997.498909 200.401314 
L 1002.331919 199.62994 
L 1007.164929 195.885415 
L 1011.997939 190.591716 
" clip-path="url(#pd31db111b1)" style="fill: none; stroke: #800080; stroke-width: 1.5; stroke-linecap: square"/>
   </g>
   <g id="line2d_56">
    <path d="M 867.007639 210.24 
L 867.007639 43.92 
" clip-path="url(#pd31db111b1)" style="fill: none; stroke-dasharray: 5.55,2.4; stroke-dashoffset: 0; stroke: #808080; stroke-opacity: 0.7; stroke-width: 1.5"/>
   </g>
   <g id="line2d_57">
    <path d="M 997.498909 210.24 
L 997.498909 43.92 
" clip-path="url(#pd31db111b1)" style="fill: none; stroke-dasharray: 5.55,2.4; stroke-dashoffset: 0; stroke: #808080; stroke-opacity: 0.7; stroke-width: 1.5"/>
   </g>
   <g id="text_57">
    <text style="font: 12px 'Arial', sans-serif; text-anchor: middle" x="934.669779" y="37.92" transform="rotate(-0 934.669779 37.92)">1 Correct Trials</text>
   </g>
   <g id="legend_5">
    <g id="patch_25">
     <path d="M 876.761184 64.932272 
L 992.578373 64.932272 
Q 993.736373 64.932272 993.736373 63.774272 
L 993.736373 47.973 
Q 993.736373 46.815 992.578373 46.815 
L 876.761184 46.815 
Q 875.603184 46.815 875.603184 47.973 
L 875.603184 63.774272 
Q 875.603184 64.932272 876.761184 64.932272 
z
" style="fill: #ffffff; opacity: 0.8; stroke: #cccccc; stroke-linejoin: miter"/>
    </g>
    <g id="line2d_58">
     <path d="M 877.919184 51.248873 
L 883.709184 51.248873 
L 889.499184 51.248873 
" style="fill: none; stroke: #ffff00; stroke-width: 1.5; stroke-linecap: square"/>
    </g>
    <g id="text_58">
     <text style="font: 5.79px 'Arial', sans-serif; text-anchor: start" x="894.131184" y="53.275373" transform="rotate(-0 894.131184 53.275373)">Pref - PrevCount=1 - #Trials=14.0</text>
    </g>
    <g id="line2d_59">
     <path d="M 877.919184 59.439009 
L 883.709184 59.439009 
L 889.499184 59.439009 
" style="fill: none; stroke: #800080; stroke-width: 1.5; stroke-linecap: square"/>
    </g>
    <g id="text_59">
     <text style="font: 5.79px 'Arial', sans-serif; text-anchor: start" x="894.131184" y="61.465509" transform="rotate(-0 894.131184 61.465509)">NonPref - PrevCount=1 - #Trials=12.0</text>
    </g>
   </g>
  </g>
  <g id="axes_6">
   <g id="patch_26">
    <path d="M 1053.755145 210.24 
L 1223.877096 210.24 
L 1223.877096 43.92 
L 1053.755145 43.92 
z
" style="fill: #ffffff"/>
   </g>
   <g id="PolyCollection_8">
    <defs>
     <path id="ma3afa1b29d" d="M 1061.487961 -166.921234 
L 1061.487961 -143.571375 
L 1066.320971 -140.364145 
L 1071.153981 -137.651045 
L 1075.986991 -138.127315 
L 1080.820001 -138.435011 
L 1085.653011 -133.52385 
L 1090.486021 -130.297694 
L 1095.319031 -126.278507 
L 1100.152041 -121.873413 
L 1104.985051 -122.81004 
L 1109.818061 -130.378 
L 1114.651071 -134.845834 
L 1119.484081 -133.724861 
L 1124.31709 -131.696404 
L 1129.1501 -133.511809 
L 1133.98311 -135.105398 
L 1138.81612 -134.061248 
L 1143.64913 -133.034015 
L 1148.48214 -136.280789 
L 1153.31515 -141.217944 
L 1158.14816 -139.676325 
L 1162.98117 -134.546715 
L 1167.81418 -136.618396 
L 1172.64719 -144.339478 
L 1177.4802 -147.437466 
L 1182.31321 -146.470056 
L 1187.14622 -141.099708 
L 1191.97923 -138.463532 
L 1196.81224 -138.793302 
L 1201.64525 -136.135055 
L 1206.47826 -136.234173 
L 1211.31127 -139.017389 
L 1216.14428 -139.42092 
L 1216.14428 -159.610532 
L 1216.14428 -159.610532 
L 1211.31127 -159.771077 
L 1206.47826 -156.005044 
L 1201.64525 -150.766179 
L 1196.81224 -148.811824 
L 1191.97923 -145.40619 
L 1187.14622 -148.132683 
L 1182.31321 -153.040779 
L 1177.4802 -156.999675 
L 1172.64719 -155.102075 
L 1167.81418 -149.341803 
L 1162.98117 -147.13536 
L 1158.14816 -150.558457 
L 1153.31515 -154.888757 
L 1148.48214 -154.662917 
L 1143.64913 -152.545434 
L 1138.81612 -152.187988 
L 1133.98311 -154.172545 
L 1129.1501 -155.213033 
L 1124.31709 -149.909334 
L 1119.484081 -151.267339 
L 1114.651071 -150.888654 
L 1109.818061 -140.090924 
L 1104.985051 -133.778374 
L 1100.152041 -135.797342 
L 1095.319031 -141.811049 
L 1090.486021 -147.404358 
L 1085.653011 -153.649714 
L 1080.820001 -161.169437 
L 1075.986991 -164.484283 
L 1071.153981 -169.478275 
L 1066.320971 -168.936225 
L 1061.487961 -166.921234 
z
" style="stroke: #ffff00; stroke-opacity: 0.1"/>
    </defs>
    <g clip-path="url(#pcee2261a20)">
     <use xlink:href="#ma3afa1b29d" x="0" y="323.436915" style="fill: #ffff00; fill-opacity: 0.1; stroke: #ffff00; stroke-opacity: 0.1"/>
    </g>
   </g>
   <g id="PolyCollection_9">
    <defs>
     <path id="m44b8bdfb35" d="M 1061.487961 -137.013344 
L 1061.487961 -128.949183 
L 1066.320971 -120.187782 
L 1071.153981 -119.750761 
L 1075.986991 -128.566623 
L 1080.820001 -128.196888 
L 1085.653011 -122.161626 
L 1090.486021 -118.109733 
L 1095.319031 -115.81985 
L 1100.152041 -118.67111 
L 1104.985051 -125.163916 
L 1109.818061 -128.387869 
L 1114.651071 -129.964099 
L 1119.484081 -129.368931 
L 1124.31709 -125.23986 
L 1129.1501 -124.014442 
L 1133.98311 -124.944733 
L 1138.81612 -130.096425 
L 1143.64913 -130.348627 
L 1148.48214 -127.699238 
L 1153.31515 -127.60575 
L 1158.14816 -125.969088 
L 1162.98117 -129.972027 
L 1167.81418 -132.45593 
L 1172.64719 -130.682091 
L 1177.4802 -130.933586 
L 1182.31321 -127.167228 
L 1187.14622 -125.776405 
L 1191.97923 -126.514083 
L 1196.81224 -131.957774 
L 1201.64525 -136.279766 
L 1206.47826 -140.181698 
L 1211.31127 -135.279111 
L 1216.14428 -127.836311 
L 1216.14428 -143.522928 
L 1216.14428 -143.522928 
L 1211.31127 -147.822419 
L 1206.47826 -152.566055 
L 1201.64525 -148.445878 
L 1196.81224 -141.406858 
L 1191.97923 -135.072919 
L 1187.14622 -136.319707 
L 1182.31321 -139.904862 
L 1177.4802 -141.33603 
L 1172.64719 -140.050661 
L 1167.81418 -140.383622 
L 1162.98117 -137.696827 
L 1158.14816 -136.06357 
L 1153.31515 -138.751582 
L 1148.48214 -139.558103 
L 1143.64913 -141.040168 
L 1138.81612 -138.433933 
L 1133.98311 -133.510062 
L 1129.1501 -131.956143 
L 1124.31709 -135.224158 
L 1119.484081 -140.408309 
L 1114.651071 -141.518169 
L 1109.818061 -138.191215 
L 1104.985051 -136.061695 
L 1100.152041 -128.408491 
L 1095.319031 -128.555972 
L 1090.486021 -131.48419 
L 1085.653011 -129.032095 
L 1080.820001 -134.862581 
L 1075.986991 -136.026633 
L 1071.153981 -128.545447 
L 1066.320971 -127.847289 
L 1061.487961 -137.013344 
z
" style="stroke: #800080; stroke-opacity: 0.1"/>
    </defs>
    <g clip-path="url(#pcee2261a20)">
     <use xlink:href="#m44b8bdfb35" x="0" y="323.436915" style="fill: #800080; fill-opacity: 0.1; stroke: #800080; stroke-opacity: 0.1"/>
    </g>
   </g>
   <g id="matplotlib.axis_11">
    <g id="xtick_15">
     <g id="line2d_60">
      <g>
       <use xlink:href="#m2c2acfd77f" x="1071.153981" y="210.24" style="stroke: #000000; stroke-width: 0.8"/>
      </g>
     </g>
     <g id="text_60">
      <text style="font: 10px 'Arial', sans-serif" transform="translate(1040.188228 251.86503) rotate(-45)">Sampling</text>
     </g>
    </g>
    <g id="xtick_16">
     <g id="line2d_61">
      <g>
       <use xlink:href="#m2c2acfd77f" x="1201.64525" y="210.24" style="stroke: #000000; stroke-width: 0.8"/>
      </g>
     </g>
     <g id="text_61">
      <text style="font: 10px 'Arial', sans-serif" transform="translate(1120.854986 301.686227) rotate(-45)">Movement to Lateral Port</text>
     </g>
    </g>
    <g id="text_62">
     <text style="font: 10px 'Arial', sans-serif; text-anchor: middle" x="1138.81612" y="314.249415" transform="rotate(-0 1138.81612 314.249415)">Normalized Time</text>
    </g>
   </g>
   <g id="matplotlib.axis_12">
    <g id="ytick_23">
     <g id="line2d_62">
      <g>
       <use xlink:href="#ma35ae333df" x="1053.755145" y="181.387705" style="stroke: #000000; stroke-width: 0.8"/>
      </g>
     </g>
     <g id="text_63">
      <text style="font: 10px 'Arial', sans-serif; text-anchor: end" x="1046.755145" y="184.966611" transform="rotate(-0 1046.755145 184.966611)">0</text>
     </g>
    </g>
    <g id="ytick_24">
     <g id="line2d_63">
      <g>
       <use xlink:href="#ma35ae333df" x="1053.755145" y="144.267283" style="stroke: #000000; stroke-width: 0.8"/>
      </g>
     </g>
     <g id="text_64">
      <text style="font: 10px 'Arial', sans-serif; text-anchor: end" x="1046.755145" y="147.846189" transform="rotate(-0 1046.755145 147.846189)">1</text>
     </g>
    </g>
    <g id="ytick_25">
     <g id="line2d_64">
      <g>
       <use xlink:href="#ma35ae333df" x="1053.755145" y="107.146861" style="stroke: #000000; stroke-width: 0.8"/>
      </g>
     </g>
     <g id="text_65">
      <text style="font: 10px 'Arial', sans-serif; text-anchor: end" x="1046.755145" y="110.725767" transform="rotate(-0 1046.755145 110.725767)">2</text>
     </g>
    </g>
    <g id="ytick_26">
     <g id="line2d_65">
      <g>
       <use xlink:href="#ma35ae333df" x="1053.755145" y="70.026439" style="stroke: #000000; stroke-width: 0.8"/>
      </g>
     </g>
     <g id="text_66">
      <text style="font: 10px 'Arial', sans-serif; text-anchor: end" x="1046.755145" y="73.605345" transform="rotate(-0 1046.755145 73.605345)">3</text>
     </g>
    </g>
    <g id="text_67">
     <text style="font: 10px 'Arial', sans-serif; text-anchor: middle" x="1035.08952" y="127.08" transform="rotate(-90 1035.08952 127.08)">Mean Activity</text>
    </g>
   </g>
   <g id="line2d_66">
    <path d="M 1061.487961 168.19061 
L 1066.320971 168.78673 
L 1071.153981 169.872254 
L 1075.986991 172.131115 
L 1080.820001 173.634691 
L 1085.653011 179.850133 
L 1090.486021 184.585888 
L 1095.319031 189.392137 
L 1100.152041 194.601538 
L 1104.985051 195.142707 
L 1109.818061 188.202453 
L 1114.651071 180.56967 
L 1119.484081 180.940814 
L 1124.31709 182.634046 
L 1129.1501 179.074493 
L 1133.98311 178.797943 
L 1138.81612 180.312296 
L 1143.64913 180.64719 
L 1148.48214 177.965061 
L 1153.31515 175.383564 
L 1158.14816 178.319524 
L 1162.98117 182.595877 
L 1167.81418 180.456815 
L 1172.64719 173.716138 
L 1177.4802 171.218344 
L 1182.31321 173.681497 
L 1187.14622 178.820719 
L 1191.97923 181.502054 
L 1196.81224 179.634351 
L 1201.64525 179.986298 
L 1206.47826 177.317306 
L 1211.31127 174.042681 
L 1216.14428 173.921188 
" clip-path="url(#pcee2261a20)" style="fill: none; stroke: #ffff00; stroke-width: 1.5; stroke-linecap: square"/>
   </g>
   <g id="line2d_67">
    <path d="M 1061.487961 190.455651 
L 1066.320971 199.419379 
L 1071.153981 199.288811 
L 1075.986991 191.140287 
L 1080.820001 191.90718 
L 1085.653011 197.840054 
L 1090.486021 198.639953 
L 1095.319031 201.249003 
L 1100.152041 199.897115 
L 1104.985051 192.824109 
L 1109.818061 190.147372 
L 1114.651071 187.695781 
L 1119.484081 188.548294 
L 1124.31709 193.204906 
L 1129.1501 195.451622 
L 1133.98311 194.209517 
L 1138.81612 189.171735 
L 1143.64913 187.742517 
L 1148.48214 189.808244 
L 1153.31515 190.258248 
L 1158.14816 192.420586 
L 1162.98117 189.602488 
L 1167.81418 187.017138 
L 1172.64719 188.070538 
L 1177.4802 187.302106 
L 1182.31321 189.900869 
L 1187.14622 192.388859 
L 1191.97923 192.643414 
L 1196.81224 186.754598 
L 1201.64525 181.074092 
L 1206.47826 177.063038 
L 1211.31127 181.88615 
L 1216.14428 187.757295 
" clip-path="url(#pcee2261a20)" style="fill: none; stroke: #800080; stroke-width: 1.5; stroke-linecap: square"/>
   </g>
   <g id="line2d_68">
    <path d="M 1071.153981 210.24 
L 1071.153981 43.92 
" clip-path="url(#pcee2261a20)" style="fill: none; stroke-dasharray: 5.55,2.4; stroke-dashoffset: 0; stroke: #808080; stroke-opacity: 0.7; stroke-width: 1.5"/>
   </g>
   <g id="line2d_69">
    <path d="M 1201.64525 210.24 
L 1201.64525 43.92 
" clip-path="url(#pcee2261a20)" style="fill: none; stroke-dasharray: 5.55,2.4; stroke-dashoffset: 0; stroke: #808080; stroke-opacity: 0.7; stroke-width: 1.5"/>
   </g>
   <g id="text_68">
    <text style="font: 12px 'Arial', sans-serif; text-anchor: middle" x="1138.81612" y="37.92" transform="rotate(-0 1138.81612 37.92)">2 Correct Trials</text>
   </g>
   <g id="legend_6">
    <g id="patch_27">
     <path d="M 1080.907526 64.932272 
L 1196.724715 64.932272 
Q 1197.882715 64.932272 1197.882715 63.774272 
L 1197.882715 47.973 
Q 1197.882715 46.815 1196.724715 46.815 
L 1080.907526 46.815 
Q 1079.749526 46.815 1079.749526 47.973 
L 1079.749526 63.774272 
Q 1079.749526 64.932272 1080.907526 64.932272 
z
" style="fill: #ffffff; opacity: 0.8; stroke: #cccccc; stroke-linejoin: miter"/>
    </g>
    <g id="line2d_70">
     <path d="M 1082.065526 51.248873 
L 1087.855526 51.248873 
L 1093.645526 51.248873 
" style="fill: none; stroke: #ffff00; stroke-width: 1.5; stroke-linecap: square"/>
    </g>
    <g id="text_69">
     <text style="font: 5.79px 'Arial', sans-serif; text-anchor: start" x="1098.277526" y="53.275373" transform="rotate(-0 1098.277526 53.275373)">Pref - PrevCount=2 - #Trials=9.0</text>
    </g>
    <g id="line2d_71">
     <path d="M 1082.065526 59.439009 
L 1087.855526 59.439009 
L 1093.645526 59.439009 
" style="fill: none; stroke: #800080; stroke-width: 1.5; stroke-linecap: square"/>
    </g>
    <g id="text_70">
     <text style="font: 5.79px 'Arial', sans-serif; text-anchor: start" x="1098.277526" y="61.465509" transform="rotate(-0 1098.277526 61.465509)">NonPref - PrevCount=2 - #Trials=12.0</text>
    </g>
   </g>
  </g>
  <g id="axes_7">
   <g id="patch_28">
    <path d="M 1257.901486 210.24 
L 1428.023438 210.24 
L 1428.023438 43.92 
L 1257.901486 43.92 
z
" style="fill: #ffffff"/>
   </g>
   <g id="PolyCollection_10">
    <defs>
     <path id="mcab59cada9" d="M 1265.634302 -155.389223 
L 1265.634302 -144.767232 
L 1270.467312 -142.661394 
L 1275.300322 -141.519675 
L 1280.133332 -143.200565 
L 1284.966342 -142.391842 
L 1289.799352 -140.627366 
L 1294.632362 -139.747114 
L 1299.465372 -137.935068 
L 1304.298382 -137.948651 
L 1309.131392 -140.419496 
L 1313.964402 -144.313278 
L 1318.797412 -147.471436 
L 1323.630422 -146.277021 
L 1328.463432 -145.322714 
L 1333.296442 -145.900594 
L 1338.129452 -146.097736 
L 1342.962462 -146.39443 
L 1347.795472 -147.030148 
L 1352.628482 -147.604316 
L 1357.461492 -150.110751 
L 1362.294502 -152.674216 
L 1367.127512 -152.918658 
L 1371.960522 -152.654699 
L 1376.793532 -153.434014 
L 1381.626542 -154.279625 
L 1386.459552 -154.0898 
L 1391.292562 -152.639481 
L 1396.125572 -152.026386 
L 1400.958582 -152.391774 
L 1405.791592 -154.685806 
L 1410.624602 -154.385905 
L 1415.457612 -152.145026 
L 1420.290622 -152.405817 
L 1420.290622 -162.013863 
L 1420.290622 -162.013863 
L 1415.457612 -163.306815 
L 1410.624602 -167.613472 
L 1405.791592 -169.118718 
L 1400.958582 -167.163032 
L 1396.125572 -166.659222 
L 1391.292562 -166.951818 
L 1386.459552 -168.616299 
L 1381.626542 -169.543541 
L 1376.793532 -169.201695 
L 1371.960522 -168.777486 
L 1367.127512 -168.668913 
L 1362.294502 -167.98451 
L 1357.461492 -165.295804 
L 1352.628482 -162.757707 
L 1347.795472 -160.97531 
L 1342.962462 -158.832996 
L 1338.129452 -157.281126 
L 1333.296442 -156.337483 
L 1328.463432 -156.533061 
L 1323.630422 -157.731747 
L 1318.797412 -158.140605 
L 1313.964402 -154.623266 
L 1309.131392 -152.173454 
L 1304.298382 -150.296945 
L 1299.465372 -148.418828 
L 1294.632362 -149.420512 
L 1289.799352 -150.912133 
L 1284.966342 -154.191526 
L 1280.133332 -155.384414 
L 1275.300322 -154.46714 
L 1270.467312 -154.737314 
L 1265.634302 -155.389223 
z
" style="stroke: #ffff00; stroke-opacity: 0.1"/>
    </defs>
    <g clip-path="url(#pd0eff334d8)">
     <use xlink:href="#mcab59cada9" x="0" y="323.436915" style="fill: #ffff00; fill-opacity: 0.1; stroke: #ffff00; stroke-opacity: 0.1"/>
    </g>
   </g>
   <g id="PolyCollection_11">
    <defs>
     <path id="m3ca23d25b3" d="M 1265.634302 -129.669355 
L 1265.634302 -125.42742 
L 1270.467312 -123.347072 
L 1275.300322 -125.667974 
L 1280.133332 -128.677163 
L 1284.966342 -128.48971 
L 1289.799352 -128.100027 
L 1294.632362 -126.781722 
L 1299.465372 -126.747759 
L 1304.298382 -130.726218 
L 1309.131392 -130.004616 
L 1313.964402 -128.957014 
L 1318.797412 -128.140048 
L 1323.630422 -127.62587 
L 1328.463432 -126.972286 
L 1333.296442 -127.863309 
L 1338.129452 -129.331266 
L 1342.962462 -128.574278 
L 1347.795472 -127.761469 
L 1352.628482 -128.229293 
L 1357.461492 -130.047289 
L 1362.294502 -130.310903 
L 1367.127512 -130.997279 
L 1371.960522 -131.628263 
L 1376.793532 -132.256607 
L 1381.626542 -130.987036 
L 1386.459552 -128.28056 
L 1391.292562 -127.087771 
L 1396.125572 -128.527129 
L 1400.958582 -130.964091 
L 1405.791592 -133.252274 
L 1410.624602 -134.184609 
L 1415.457612 -133.406351 
L 1420.290622 -132.26731 
L 1420.290622 -137.49929 
L 1420.290622 -137.49929 
L 1415.457612 -138.643049 
L 1410.624602 -139.383866 
L 1405.791592 -137.802577 
L 1400.958582 -135.057308 
L 1396.125572 -132.576276 
L 1391.292562 -131.335287 
L 1386.459552 -132.838662 
L 1381.626542 -135.389667 
L 1376.793532 -135.981609 
L 1371.960522 -135.547528 
L 1367.127512 -135.1226 
L 1362.294502 -133.974998 
L 1357.461492 -133.917019 
L 1352.628482 -132.424867 
L 1347.795472 -131.79314 
L 1342.962462 -132.461686 
L 1338.129452 -133.969701 
L 1333.296442 -132.79856 
L 1328.463432 -131.643153 
L 1323.630422 -132.368899 
L 1318.797412 -132.843968 
L 1313.964402 -133.675665 
L 1309.131392 -134.421152 
L 1304.298382 -134.797664 
L 1299.465372 -130.689748 
L 1294.632362 -130.512122 
L 1289.799352 -131.863047 
L 1284.966342 -132.454878 
L 1280.133332 -132.879171 
L 1275.300322 -129.37345 
L 1270.467312 -127.208418 
L 1265.634302 -129.669355 
z
" style="stroke: #800080; stroke-opacity: 0.1"/>
    </defs>
    <g clip-path="url(#pd0eff334d8)">
     <use xlink:href="#m3ca23d25b3" x="0" y="323.436915" style="fill: #800080; fill-opacity: 0.1; stroke: #800080; stroke-opacity: 0.1"/>
    </g>
   </g>
   <g id="matplotlib.axis_13">
    <g id="xtick_17">
     <g id="line2d_72">
      <g>
       <use xlink:href="#m2c2acfd77f" x="1275.300322" y="210.24" style="stroke: #000000; stroke-width: 0.8"/>
      </g>
     </g>
     <g id="text_71">
      <text style="font: 10px 'Arial', sans-serif" transform="translate(1244.334569 251.86503) rotate(-45)">Sampling</text>
     </g>
    </g>
    <g id="xtick_18">
     <g id="line2d_73">
      <g>
       <use xlink:href="#m2c2acfd77f" x="1405.791592" y="210.24" style="stroke: #000000; stroke-width: 0.8"/>
      </g>
     </g>
     <g id="text_72">
      <text style="font: 10px 'Arial', sans-serif" transform="translate(1325.001327 301.686227) rotate(-45)">Movement to Lateral Port</text>
     </g>
    </g>
    <g id="text_73">
     <text style="font: 10px 'Arial', sans-serif; text-anchor: middle" x="1342.962462" y="314.249415" transform="rotate(-0 1342.962462 314.249415)">Normalized Time</text>
    </g>
   </g>
   <g id="matplotlib.axis_14">
    <g id="ytick_27">
     <g id="line2d_74">
      <g>
       <use xlink:href="#ma35ae333df" x="1257.901486" y="181.387705" style="stroke: #000000; stroke-width: 0.8"/>
      </g>
     </g>
     <g id="text_74">
      <text style="font: 10px 'Arial', sans-serif; text-anchor: end" x="1250.901486" y="184.966611" transform="rotate(-0 1250.901486 184.966611)">0</text>
     </g>
    </g>
    <g id="ytick_28">
     <g id="line2d_75">
      <g>
       <use xlink:href="#ma35ae333df" x="1257.901486" y="144.267283" style="stroke: #000000; stroke-width: 0.8"/>
      </g>
     </g>
     <g id="text_75">
      <text style="font: 10px 'Arial', sans-serif; text-anchor: end" x="1250.901486" y="147.846189" transform="rotate(-0 1250.901486 147.846189)">1</text>
     </g>
    </g>
    <g id="ytick_29">
     <g id="line2d_76">
      <g>
       <use xlink:href="#ma35ae333df" x="1257.901486" y="107.146861" style="stroke: #000000; stroke-width: 0.8"/>
      </g>
     </g>
     <g id="text_76">
      <text style="font: 10px 'Arial', sans-serif; text-anchor: end" x="1250.901486" y="110.725767" transform="rotate(-0 1250.901486 110.725767)">2</text>
     </g>
    </g>
    <g id="ytick_30">
     <g id="line2d_77">
      <g>
       <use xlink:href="#ma35ae333df" x="1257.901486" y="70.026439" style="stroke: #000000; stroke-width: 0.8"/>
      </g>
     </g>
     <g id="text_77">
      <text style="font: 10px 'Arial', sans-serif; text-anchor: end" x="1250.901486" y="73.605345" transform="rotate(-0 1250.901486 73.605345)">3</text>
     </g>
    </g>
    <g id="text_78">
     <text style="font: 10px 'Arial', sans-serif; text-anchor: middle" x="1239.235861" y="127.08" transform="rotate(-90 1239.235861 127.08)">Mean Activity</text>
    </g>
   </g>
   <g id="line2d_78">
    <path d="M 1265.634302 173.358687 
L 1270.467312 174.737561 
L 1275.300322 175.443507 
L 1280.133332 174.144426 
L 1284.966342 175.145231 
L 1289.799352 177.667165 
L 1294.632362 178.853101 
L 1299.465372 180.259967 
L 1304.298382 179.314117 
L 1309.131392 177.14044 
L 1313.964402 173.968642 
L 1318.797412 170.630894 
L 1323.630422 171.432531 
L 1328.463432 172.509027 
L 1333.296442 172.317876 
L 1338.129452 171.747484 
L 1342.962462 170.823202 
L 1347.795472 169.434186 
L 1352.628482 168.255903 
L 1357.461492 165.733637 
L 1362.294502 163.107552 
L 1367.127512 162.643129 
L 1371.960522 162.720822 
L 1376.793532 162.11906 
L 1381.626542 161.525331 
L 1386.459552 162.083865 
L 1391.292562 163.641265 
L 1396.125572 164.094111 
L 1400.958582 163.659511 
L 1405.791592 161.534652 
L 1410.624602 162.437227 
L 1415.457612 165.710994 
L 1420.290622 166.227075 
" clip-path="url(#pd0eff334d8)" style="fill: none; stroke: #ffff00; stroke-width: 1.5; stroke-linecap: square"/>
   </g>
   <g id="line2d_79">
    <path d="M 1265.634302 195.888527 
L 1270.467312 198.159169 
L 1275.300322 195.916203 
L 1280.133332 192.658748 
L 1284.966342 192.96462 
L 1289.799352 193.455377 
L 1294.632362 194.789993 
L 1299.465372 194.718161 
L 1304.298382 190.674974 
L 1309.131392 191.22403 
L 1313.964402 192.120575 
L 1318.797412 192.944907 
L 1323.630422 193.43953 
L 1328.463432 194.129195 
L 1333.296442 193.10598 
L 1338.129452 191.786431 
L 1342.962462 192.918932 
L 1347.795472 193.65961 
L 1352.628482 193.109835 
L 1357.461492 191.454761 
L 1362.294502 191.293964 
L 1367.127512 190.376975 
L 1371.960522 189.849019 
L 1376.793532 189.317806 
L 1381.626542 190.248563 
L 1386.459552 192.877303 
L 1391.292562 194.225385 
L 1396.125572 192.885212 
L 1400.958582 190.426215 
L 1405.791592 187.909489 
L 1410.624602 186.652677 
L 1415.457612 187.412215 
L 1420.290622 188.553614 
" clip-path="url(#pd0eff334d8)" style="fill: none; stroke: #800080; stroke-width: 1.5; stroke-linecap: square"/>
   </g>
   <g id="line2d_80">
    <path d="M 1275.300322 210.24 
L 1275.300322 43.92 
" clip-path="url(#pd0eff334d8)" style="fill: none; stroke-dasharray: 5.55,2.4; stroke-dashoffset: 0; stroke: #808080; stroke-opacity: 0.7; stroke-width: 1.5"/>
   </g>
   <g id="line2d_81">
    <path d="M 1405.791592 210.24 
L 1405.791592 43.92 
" clip-path="url(#pd0eff334d8)" style="fill: none; stroke-dasharray: 5.55,2.4; stroke-dashoffset: 0; stroke: #808080; stroke-opacity: 0.7; stroke-width: 1.5"/>
   </g>
   <g id="text_79">
    <text style="font: 12px 'Arial', sans-serif; text-anchor: middle" x="1342.962462" y="37.92" transform="rotate(-0 1342.962462 37.92)">3 Correct Trials</text>
   </g>
   <g id="legend_7">
    <g id="patch_29">
     <path d="M 1285.053867 64.932272 
L 1400.871056 64.932272 
Q 1402.029056 64.932272 1402.029056 63.774272 
L 1402.029056 47.973 
Q 1402.029056 46.815 1400.871056 46.815 
L 1285.053867 46.815 
Q 1283.895867 46.815 1283.895867 47.973 
L 1283.895867 63.774272 
Q 1283.895867 64.932272 1285.053867 64.932272 
z
" style="fill: #ffffff; opacity: 0.8; stroke: #cccccc; stroke-linejoin: miter"/>
    </g>
    <g id="line2d_82">
     <path d="M 1286.211867 51.248873 
L 1292.001867 51.248873 
L 1297.791867 51.248873 
" style="fill: none; stroke: #ffff00; stroke-width: 1.5; stroke-linecap: square"/>
    </g>
    <g id="text_80">
     <text style="font: 5.79px 'Arial', sans-serif; text-anchor: start" x="1302.423867" y="53.275373" transform="rotate(-0 1302.423867 53.275373)">Pref - PrevCount=3 - #Trials=65.0</text>
    </g>
    <g id="line2d_83">
     <path d="M 1286.211867 59.439009 
L 1292.001867 59.439009 
L 1297.791867 59.439009 
" style="fill: none; stroke: #800080; stroke-width: 1.5; stroke-linecap: square"/>
    </g>
    <g id="text_81">
     <text style="font: 5.79px 'Arial', sans-serif; text-anchor: start" x="1302.423867" y="61.465509" transform="rotate(-0 1302.423867 61.465509)">NonPref - PrevCount=3 - #Trials=64.0</text>
    </g>
   </g>
  </g>
  <g id="text_82">
   <text style="font: 12px 'Arial', sans-serif; text-anchor: middle" x="708.023438" y="15.935625" transform="rotate(-0 708.023438 15.935625)">Balance Change - M2 - GP4_85_s2_L100_D250_mm2_34 - PrevChoiceLeft</text>
  </g>
 </g>
 <defs>
  <clipPath id="p30e4ef74da">
   <rect x="33.023438" y="43.92" width="170.121951" height="166.32"/>
  </clipPath>
  <clipPath id="p9473bc6c9a">
   <rect x="237.169779" y="43.92" width="170.121951" height="166.32"/>
  </clipPath>
  <clipPath id="pb0eb5d6154">
   <rect x="441.31612" y="43.92" width="170.121951" height="166.32"/>
  </clipPath>
  <clipPath id="pad0434c26e">
   <rect x="645.462462" y="43.92" width="170.121951" height="166.32"/>
  </clipPath>
  <clipPath id="pd31db111b1">
   <rect x="849.608803" y="43.92" width="170.121951" height="166.32"/>
  </clipPath>
  <clipPath id="pcee2261a20">
   <rect x="1053.755145" y="43.92" width="170.121951" height="166.32"/>
  </clipPath>
  <clipPath id="pd0eff334d8">
   <rect x="1257.901486" y="43.92" width="170.121951" height="166.32"/>
  </clipPath>
 </defs>
</svg>
