<?xml version="1.0" encoding="utf-8" standalone="no"?>
<!DOCTYPE svg PUBLIC "-//W3C//DTD SVG 1.1//EN"
  "http://www.w3.org/Graphics/SVG/1.1/DTD/svg11.dtd">
<svg xmlns:xlink="http://www.w3.org/1999/xlink" width="1443.5625pt" height="323.436915pt" viewBox="0 0 1443.5625 323.436915" xmlns="http://www.w3.org/2000/svg" version="1.1">
 <metadata>
  <rdf:RDF xmlns:dc="http://purl.org/dc/elements/1.1/" xmlns:cc="http://creativecommons.org/ns#" xmlns:rdf="http://www.w3.org/1999/02/22-rdf-syntax-ns#">
   <cc:Work>
    <dc:type rdf:resource="http://purl.org/dc/dcmitype/StillImage"/>
    <dc:date>2025-12-27T14:02:12.055615</dc:date>
    <dc:format>image/svg+xml</dc:format>
    <dc:creator>
     <cc:Agent>
      <dc:title>Matplotlib v3.8.0, https://matplotlib.org/</dc:title>
     </cc:Agent>
    </dc:creator>
   </cc:Work>
  </rdf:RDF>
 </metadata>
 <defs>
  <style type="text/css">*{stroke-linejoin: round; stroke-linecap: butt}</style>
 </defs>
 <g id="figure_1">
  <g id="patch_1">
   <path d="M 0 323.436915 
L 1443.5625 323.436915 
L 1443.5625 0 
L 0 0 
z
" style="fill: #ffffff"/>
  </g>
  <g id="axes_1">
   <g id="patch_2">
    <path d="M 41.3625 210.24 
L 211.484451 210.24 
L 211.484451 43.92 
L 41.3625 43.92 
z
" style="fill: #ffffff"/>
   </g>
   <g id="patch_3">
    <path d="M 49.095316 188.953708 
L 58.192747 188.953708 
L 58.192747 171.369049 
L 49.095316 171.369049 
z
" clip-path="url(#p20e82cc175)" style="fill: #ff00ff"/>
   </g>
   <g id="patch_4">
    <path d="M 71.838892 188.953708 
L 80.936323 188.953708 
L 80.936323 85.101504 
L 71.838892 85.101504 
z
" clip-path="url(#p20e82cc175)" style="fill: #ff00ff"/>
   </g>
   <g id="patch_5">
    <path d="M 94.582469 188.953708 
L 103.679899 188.953708 
L 103.679899 84.250911 
L 94.582469 84.250911 
z
" clip-path="url(#p20e82cc175)" style="fill: #ff00ff"/>
   </g>
   <g id="patch_6">
    <path d="M 0 0 
z
" clip-path="url(#p20e82cc175)" style="fill: #ff00ff"/>
   </g>
   <g id="patch_7">
    <path d="M 0 0 
z
" clip-path="url(#p20e82cc175)" style="fill: #ff00ff"/>
   </g>
   <g id="patch_8">
    <path d="M 0 0 
z
" clip-path="url(#p20e82cc175)" style="fill: #ff00ff"/>
   </g>
   <g id="patch_9">
    <path d="M 0 0 
z
" clip-path="url(#p20e82cc175)" style="fill: #00ffff"/>
   </g>
   <g id="patch_10">
    <path d="M 0 0 
z
" clip-path="url(#p20e82cc175)" style="fill: #00ffff"/>
   </g>
   <g id="patch_11">
    <path d="M 0 0 
z
" clip-path="url(#p20e82cc175)" style="fill: #00ffff"/>
   </g>
   <g id="patch_12">
    <path d="M 149.167052 188.953708 
L 158.264483 188.953708 
L 158.264483 196.394347 
L 149.167052 196.394347 
z
" clip-path="url(#p20e82cc175)" style="fill: #00ffff"/>
   </g>
   <g id="patch_13">
    <path d="M 171.910628 188.953708 
L 181.008059 188.953708 
L 181.008059 196.326502 
L 171.910628 196.326502 
z
" clip-path="url(#p20e82cc175)" style="fill: #00ffff"/>
   </g>
   <g id="patch_14">
    <path d="M 194.654205 188.953708 
L 203.751635 188.953708 
L 203.751635 190.039152 
L 194.654205 190.039152 
z
" clip-path="url(#p20e82cc175)" style="fill: #00ffff"/>
   </g>
   <g id="matplotlib.axis_1">
    <g id="xtick_1">
     <g id="line2d_1">
      <defs>
       <path id="m05c38d8d97" d="M 0 0 
L 0 3.5 
" style="stroke: #000000; stroke-width: 0.8"/>
      </defs>
      <g>
       <use xlink:href="#m05c38d8d97" x="58.192747" y="210.24" style="stroke: #000000; stroke-width: 0.8"/>
      </g>
     </g>
     <g id="text_1">
      <text style="font: 10px 'Arial', sans-serif; text-anchor: middle" x="58.192747" y="224.397813" transform="rotate(-0 58.192747 224.397813)">−3</text>
     </g>
    </g>
    <g id="xtick_2">
     <g id="line2d_2">
      <g>
       <use xlink:href="#m05c38d8d97" x="80.936323" y="210.24" style="stroke: #000000; stroke-width: 0.8"/>
      </g>
     </g>
     <g id="text_2">
      <text style="font: 10px 'Arial', sans-serif; text-anchor: middle" x="80.936323" y="224.397813" transform="rotate(-0 80.936323 224.397813)">−2</text>
     </g>
    </g>
    <g id="xtick_3">
     <g id="line2d_3">
      <g>
       <use xlink:href="#m05c38d8d97" x="103.679899" y="210.24" style="stroke: #000000; stroke-width: 0.8"/>
      </g>
     </g>
     <g id="text_3">
      <text style="font: 10px 'Arial', sans-serif; text-anchor: middle" x="103.679899" y="224.397813" transform="rotate(-0 103.679899 224.397813)">−1</text>
     </g>
    </g>
    <g id="xtick_4">
     <g id="line2d_4">
      <g>
       <use xlink:href="#m05c38d8d97" x="149.167052" y="210.24" style="stroke: #000000; stroke-width: 0.8"/>
      </g>
     </g>
     <g id="text_4">
      <text style="font: 10px 'Arial', sans-serif; text-anchor: middle" x="149.167052" y="224.397813" transform="rotate(-0 149.167052 224.397813)">1</text>
     </g>
    </g>
    <g id="xtick_5">
     <g id="line2d_5">
      <g>
       <use xlink:href="#m05c38d8d97" x="171.910628" y="210.24" style="stroke: #000000; stroke-width: 0.8"/>
      </g>
     </g>
     <g id="text_5">
      <text style="font: 10px 'Arial', sans-serif; text-anchor: middle" x="171.910628" y="224.397813" transform="rotate(-0 171.910628 224.397813)">2</text>
     </g>
    </g>
    <g id="xtick_6">
     <g id="line2d_6">
      <g>
       <use xlink:href="#m05c38d8d97" x="194.654205" y="210.24" style="stroke: #000000; stroke-width: 0.8"/>
      </g>
     </g>
     <g id="text_6">
      <text style="font: 10px 'Arial', sans-serif; text-anchor: middle" x="194.654205" y="224.397813" transform="rotate(-0 194.654205 224.397813)">3</text>
     </g>
    </g>
    <g id="text_7">
     <text style="font: 10px 'Arial', sans-serif; text-anchor: middle" x="126.423476" y="237.543125" transform="rotate(-0 126.423476 237.543125)">PrevOutcomeCount</text>
    </g>
   </g>
   <g id="matplotlib.axis_2">
    <g id="ytick_1">
     <g id="line2d_7">
      <defs>
       <path id="mc645434661" d="M 0 0 
L -3.5 0 
" style="stroke: #000000; stroke-width: 0.8"/>
      </defs>
      <g>
       <use xlink:href="#mc645434661" x="41.3625" y="188.953708" style="stroke: #000000; stroke-width: 0.8"/>
      </g>
     </g>
     <g id="text_8">
      <text style="font: 10px 'Arial', sans-serif; text-anchor: end" x="34.3625" y="192.532615" transform="rotate(-0 34.3625 192.532615)">0.0</text>
     </g>
    </g>
    <g id="ytick_2">
     <g id="line2d_8">
      <g>
       <use xlink:href="#mc645434661" x="41.3625" y="150.078199" style="stroke: #000000; stroke-width: 0.8"/>
      </g>
     </g>
     <g id="text_9">
      <text style="font: 10px 'Arial', sans-serif; text-anchor: end" x="34.3625" y="153.657106" transform="rotate(-0 34.3625 153.657106)">0.5</text>
     </g>
    </g>
    <g id="ytick_3">
     <g id="line2d_9">
      <g>
       <use xlink:href="#mc645434661" x="41.3625" y="111.20269" style="stroke: #000000; stroke-width: 0.8"/>
      </g>
     </g>
     <g id="text_10">
      <text style="font: 10px 'Arial', sans-serif; text-anchor: end" x="34.3625" y="114.781597" transform="rotate(-0 34.3625 114.781597)">1.0</text>
     </g>
    </g>
    <g id="ytick_4">
     <g id="line2d_10">
      <g>
       <use xlink:href="#mc645434661" x="41.3625" y="72.327181" style="stroke: #000000; stroke-width: 0.8"/>
      </g>
     </g>
     <g id="text_11">
      <text style="font: 10px 'Arial', sans-serif; text-anchor: end" x="34.3625" y="75.906087" transform="rotate(-0 34.3625 75.906087)">1.5</text>
     </g>
    </g>
    <g id="text_12">
     <text style="font: 10px 'Arial', sans-serif; text-anchor: middle" x="14.357813" y="127.08" transform="rotate(-90 14.357813 127.08)">Max Activity</text>
    </g>
   </g>
   <g id="LineCollection_1">
    <path d="M 53.644031 196.637281 
L 53.644031 146.100817 
" clip-path="url(#p20e82cc175)" style="fill: none; stroke: #000000; stroke-width: 1.5"/>
    <path d="M 76.387608 118.723008 
L 76.387608 51.48 
" clip-path="url(#p20e82cc175)" style="fill: none; stroke: #000000; stroke-width: 1.5"/>
    <path d="M 99.131184 103.811031 
L 99.131184 64.690792 
" clip-path="url(#p20e82cc175)" style="fill: none; stroke: #000000; stroke-width: 1.5"/>
    <path clip-path="url(#p20e82cc175)" style="fill: none; stroke: #000000; stroke-width: 1.5"/>
    <path clip-path="url(#p20e82cc175)" style="fill: none; stroke: #000000; stroke-width: 1.5"/>
    <path clip-path="url(#p20e82cc175)" style="fill: none; stroke: #000000; stroke-width: 1.5"/>
   </g>
   <g id="LineCollection_2">
    <path clip-path="url(#p20e82cc175)" style="fill: none; stroke: #000000; stroke-width: 1.5"/>
    <path clip-path="url(#p20e82cc175)" style="fill: none; stroke: #000000; stroke-width: 1.5"/>
    <path clip-path="url(#p20e82cc175)" style="fill: none; stroke: #000000; stroke-width: 1.5"/>
    <path d="M 153.715767 200.168072 
L 153.715767 192.620622 
" clip-path="url(#p20e82cc175)" style="fill: none; stroke: #000000; stroke-width: 1.5"/>
    <path d="M 176.459344 202.68 
L 176.459344 189.973004 
" clip-path="url(#p20e82cc175)" style="fill: none; stroke: #000000; stroke-width: 1.5"/>
    <path d="M 199.20292 193.833234 
L 199.20292 186.245071 
" clip-path="url(#p20e82cc175)" style="fill: none; stroke: #000000; stroke-width: 1.5"/>
   </g>
   <g id="line2d_11">
    <path d="M 41.3625 188.953708 
L 211.484451 188.953708 
" clip-path="url(#p20e82cc175)" style="fill: none; stroke-dasharray: 5.55,2.4; stroke-dashoffset: 0; stroke: #808080; stroke-width: 1.5"/>
   </g>
   <g id="legend_1">
    <g id="patch_15">
     <path d="M 132.471951 80.210625 
L 204.484451 80.210625 
Q 206.484451 80.210625 206.484451 78.210625 
L 206.484451 50.92 
Q 206.484451 48.92 204.484451 48.92 
L 132.471951 48.92 
Q 130.471951 48.92 130.471951 50.92 
L 130.471951 78.210625 
Q 130.471951 80.210625 132.471951 80.210625 
z
" style="fill: #ffffff; opacity: 0.8; stroke: #cccccc; stroke-linejoin: miter"/>
    </g>
    <g id="patch_16">
     <path d="M 134.471951 60.077812 
L 154.471951 60.077812 
L 154.471951 53.077812 
L 134.471951 53.077812 
z
" style="fill: #ff00ff"/>
    </g>
    <g id="text_13">
     <text style="font: 10px 'Arial', sans-serif; text-anchor: start" x="162.471951" y="60.077812" transform="rotate(-0 162.471951 60.077812)">Pref</text>
    </g>
    <g id="patch_17">
     <path d="M 134.471951 74.223125 
L 154.471951 74.223125 
L 154.471951 67.223125 
L 134.471951 67.223125 
z
" style="fill: #00ffff"/>
    </g>
    <g id="text_14">
     <text style="font: 10px 'Arial', sans-serif; text-anchor: start" x="162.471951" y="74.223125" transform="rotate(-0 162.471951 74.223125)">Non-Pref</text>
    </g>
   </g>
  </g>
  <g id="axes_2">
   <g id="patch_18">
    <path d="M 245.508841 210.24 
L 415.630793 210.24 
L 415.630793 43.92 
L 245.508841 43.92 
z
" style="fill: #ffffff"/>
   </g>
   <g id="PolyCollection_1">
    <defs>
     <path id="mc7c87e270e" d="M 253.241657 -147.250426 
L 253.241657 -133.973828 
L 258.074667 -133.972445 
L 262.907677 -134.157862 
L 267.740687 -144.633953 
L 272.573697 -141.704921 
L 277.406707 -142.252762 
L 282.239717 -146.890743 
L 287.072727 -148.064305 
L 291.905737 -148.512446 
L 296.738747 -145.491191 
L 301.571757 -150.711287 
L 306.404767 -156.32399 
L 311.237777 -150.700428 
L 316.070787 -143.249566 
L 320.903797 -142.986426 
L 325.736807 -139.029469 
L 330.569817 -137.964756 
L 335.402827 -142.587205 
L 340.235837 -147.93627 
L 345.068847 -146.373216 
L 349.901857 -143.375779 
L 354.734867 -135.36594 
L 359.567877 -132.681001 
L 364.400887 -138.449977 
L 369.233897 -139.712421 
L 374.066907 -132.070719 
L 378.899917 -125.563005 
L 383.732927 -132.871915 
L 388.565937 -127.153449 
L 393.398947 -118.055089 
L 398.231957 -118.875604 
L 403.064967 -123.085187 
L 407.897977 -127.598431 
L 407.897977 -163.424383 
L 407.897977 -163.424383 
L 403.064967 -155.2105 
L 398.231957 -146.056802 
L 393.398947 -149.393636 
L 388.565937 -158.057237 
L 383.732927 -162.024361 
L 378.899917 -161.750418 
L 374.066907 -164.512757 
L 369.233897 -167.462913 
L 364.400887 -169.187127 
L 359.567877 -166.856188 
L 354.734867 -166.646171 
L 349.901857 -174.056578 
L 345.068847 -184.173071 
L 340.235837 -188.557696 
L 335.402827 -186.790615 
L 330.569817 -188.065821 
L 325.736807 -191.333418 
L 320.903797 -194.952267 
L 316.070787 -195.396959 
L 311.237777 -193.671908 
L 306.404767 -193.55366 
L 301.571757 -198.494514 
L 296.738747 -201.93783 
L 291.905737 -201.046174 
L 287.072727 -194.974068 
L 282.239717 -185.684193 
L 277.406707 -177.718428 
L 272.573697 -172.645787 
L 267.740687 -169.752643 
L 262.907677 -160.821805 
L 258.074667 -152.34394 
L 253.241657 -147.250426 
z
" style="stroke: #ff00ff; stroke-opacity: 0.1"/>
    </defs>
    <g clip-path="url(#p016426120c)">
     <use xlink:href="#mc7c87e270e" x="0" y="323.436915" style="fill: #ff00ff; fill-opacity: 0.1; stroke: #ff00ff; stroke-opacity: 0.1"/>
    </g>
   </g>
   <g id="matplotlib.axis_3">
    <g id="xtick_7">
     <g id="line2d_12">
      <g>
       <use xlink:href="#m05c38d8d97" x="262.907677" y="210.24" style="stroke: #000000; stroke-width: 0.8"/>
      </g>
     </g>
     <g id="text_15">
      <text style="font: 10px 'Arial', sans-serif" transform="translate(231.941925 251.86503) rotate(-45)">Sampling</text>
     </g>
    </g>
    <g id="xtick_8">
     <g id="line2d_13">
      <g>
       <use xlink:href="#m05c38d8d97" x="393.398947" y="210.24" style="stroke: #000000; stroke-width: 0.8"/>
      </g>
     </g>
     <g id="text_16">
      <text style="font: 10px 'Arial', sans-serif" transform="translate(312.608682 301.686227) rotate(-45)">Movement to Lateral Port</text>
     </g>
    </g>
    <g id="text_17">
     <text style="font: 10px 'Arial', sans-serif; text-anchor: middle" x="330.569817" y="314.249415" transform="rotate(-0 330.569817 314.249415)">Normalized Time</text>
    </g>
   </g>
   <g id="matplotlib.axis_4">
    <g id="ytick_5">
     <g id="line2d_14">
      <g>
       <use xlink:href="#mc645434661" x="245.508841" y="189.660209" style="stroke: #000000; stroke-width: 0.8"/>
      </g>
     </g>
     <g id="text_18">
      <text style="font: 10px 'Arial', sans-serif; text-anchor: end" x="238.508841" y="193.239116" transform="rotate(-0 238.508841 193.239116)">−0.5</text>
     </g>
    </g>
    <g id="ytick_6">
     <g id="line2d_15">
      <g>
       <use xlink:href="#mc645434661" x="245.508841" y="156.800082" style="stroke: #000000; stroke-width: 0.8"/>
      </g>
     </g>
     <g id="text_19">
      <text style="font: 10px 'Arial', sans-serif; text-anchor: end" x="238.508841" y="160.378988" transform="rotate(-0 238.508841 160.378988)">0.0</text>
     </g>
    </g>
    <g id="ytick_7">
     <g id="line2d_16">
      <g>
       <use xlink:href="#mc645434661" x="245.508841" y="123.939955" style="stroke: #000000; stroke-width: 0.8"/>
      </g>
     </g>
     <g id="text_20">
      <text style="font: 10px 'Arial', sans-serif; text-anchor: end" x="238.508841" y="127.518861" transform="rotate(-0 238.508841 127.518861)">0.5</text>
     </g>
    </g>
    <g id="ytick_8">
     <g id="line2d_17">
      <g>
       <use xlink:href="#mc645434661" x="245.508841" y="91.079828" style="stroke: #000000; stroke-width: 0.8"/>
      </g>
     </g>
     <g id="text_21">
      <text style="font: 10px 'Arial', sans-serif; text-anchor: end" x="238.508841" y="94.658734" transform="rotate(-0 238.508841 94.658734)">1.0</text>
     </g>
    </g>
    <g id="ytick_9">
     <g id="line2d_18">
      <g>
       <use xlink:href="#mc645434661" x="245.508841" y="58.219701" style="stroke: #000000; stroke-width: 0.8"/>
      </g>
     </g>
     <g id="text_22">
      <text style="font: 10px 'Arial', sans-serif; text-anchor: end" x="238.508841" y="61.798607" transform="rotate(-0 238.508841 61.798607)">1.5</text>
     </g>
    </g>
    <g id="text_23">
     <text style="font: 10px 'Arial', sans-serif; text-anchor: middle" x="212.663529" y="127.08" transform="rotate(-90 212.663529 127.08)">Mean Activity</text>
    </g>
   </g>
   <g id="line2d_19">
    <path d="M 253.241657 182.824788 
L 258.074667 180.278722 
L 262.907677 175.947081 
L 267.740687 166.243617 
L 272.573697 166.261561 
L 277.406707 163.45132 
L 282.239717 157.149446 
L 287.072727 151.917727 
L 291.905737 148.657604 
L 296.738747 149.722405 
L 301.571757 148.834014 
L 306.404767 148.498089 
L 311.237777 151.250747 
L 316.070787 154.113652 
L 320.903797 154.467569 
L 325.736807 158.255471 
L 330.569817 160.421626 
L 335.402827 158.748004 
L 340.235837 155.189931 
L 345.068847 158.163771 
L 349.901857 164.720735 
L 354.734867 172.430859 
L 359.567877 173.66832 
L 364.400887 169.618362 
L 369.233897 169.849248 
L 374.066907 175.145177 
L 378.899917 179.780203 
L 383.732927 175.988776 
L 388.565937 180.831572 
L 393.398947 189.712551 
L 398.231957 190.970712 
L 403.064967 184.289071 
L 407.897977 177.925507 
" clip-path="url(#p016426120c)" style="fill: none; stroke: #ff00ff; stroke-width: 1.5; stroke-linecap: square"/>
   </g>
   <g id="line2d_20">
    <path d="M 262.907677 210.24 
L 262.907677 43.92 
" clip-path="url(#p016426120c)" style="fill: none; stroke-dasharray: 5.55,2.4; stroke-dashoffset: 0; stroke: #808080; stroke-opacity: 0.7; stroke-width: 1.5"/>
   </g>
   <g id="line2d_21">
    <path d="M 393.398947 210.24 
L 393.398947 43.92 
" clip-path="url(#p016426120c)" style="fill: none; stroke-dasharray: 5.55,2.4; stroke-dashoffset: 0; stroke: #808080; stroke-opacity: 0.7; stroke-width: 1.5"/>
   </g>
   <g id="text_24">
    <text style="font: 12px 'Arial', sans-serif; text-anchor: middle" x="330.569817" y="37.92" transform="rotate(-0 330.569817 37.92)">3 Incorrect Trials</text>
   </g>
   <g id="legend_2">
    <g id="patch_19">
     <path d="M 278.617685 207.345 
L 382.521949 207.345 
Q 383.679949 207.345 383.679949 206.187 
L 383.679949 198.575864 
Q 383.679949 197.417864 382.521949 197.417864 
L 278.617685 197.417864 
Q 277.459685 197.417864 277.459685 198.575864 
L 277.459685 206.187 
Q 277.459685 207.345 278.617685 207.345 
z
" style="fill: #ffffff; opacity: 0.8; stroke: #cccccc; stroke-linejoin: miter"/>
    </g>
    <g id="line2d_22">
     <path d="M 279.775685 201.851738 
L 285.565685 201.851738 
L 291.355685 201.851738 
" style="fill: none; stroke: #ff00ff; stroke-width: 1.5; stroke-linecap: square"/>
    </g>
    <g id="text_25">
     <text style="font: 5.79px 'Arial', sans-serif; text-anchor: start" x="295.987685" y="203.878238" transform="rotate(-0 295.987685 203.878238)">Pref - PrevCount=-3 - #Trials=3.0</text>
    </g>
   </g>
  </g>
  <g id="axes_3">
   <g id="patch_20">
    <path d="M 449.655183 210.24 
L 619.777134 210.24 
L 619.777134 43.92 
L 449.655183 43.92 
z
" style="fill: #ffffff"/>
   </g>
   <g id="PolyCollection_2">
    <defs>
     <path id="md99ac3ba5f" d="M 457.387999 -253.400482 
L 457.387999 -201.551336 
L 462.221009 -205.228294 
L 467.054019 -207.248614 
L 471.887029 -211.819202 
L 476.720039 -211.030608 
L 481.553049 -206.542729 
L 486.386059 -207.939437 
L 491.219069 -206.146446 
L 496.052079 -203.329411 
L 500.885089 -197.659746 
L 505.718099 -192.875379 
L 510.551109 -190.679079 
L 515.384119 -185.621578 
L 520.217129 -180.578903 
L 525.050139 -178.934729 
L 529.883149 -174.967875 
L 534.716159 -171.624118 
L 539.549169 -169.024693 
L 544.382178 -167.539868 
L 549.215188 -168.15512 
L 554.048198 -167.992571 
L 558.881208 -165.44662 
L 563.714218 -160.850341 
L 568.547228 -156.180962 
L 573.380238 -154.387596 
L 578.213248 -154.822312 
L 583.046258 -153.723985 
L 587.879268 -154.185954 
L 592.712278 -154.731488 
L 597.545288 -150.119599 
L 602.378298 -146.52016 
L 607.211308 -140.970851 
L 612.044318 -137.81008 
L 612.044318 -166.390312 
L 612.044318 -166.390312 
L 607.211308 -170.788754 
L 602.378298 -177.698879 
L 597.545288 -183.366776 
L 592.712278 -186.891116 
L 587.879268 -185.437006 
L 583.046258 -186.395419 
L 578.213248 -188.872501 
L 573.380238 -190.068001 
L 568.547228 -192.824857 
L 563.714218 -199.160555 
L 558.881208 -205.734568 
L 554.048198 -207.759734 
L 549.215188 -206.862007 
L 544.382178 -206.903612 
L 539.549169 -209.817096 
L 534.716159 -213.770328 
L 529.883149 -217.353389 
L 525.050139 -221.443524 
L 520.217129 -224.092243 
L 515.384119 -231.965461 
L 510.551109 -239.400396 
L 505.718099 -241.532295 
L 500.885089 -246.669447 
L 496.052079 -253.674211 
L 491.219069 -257.440834 
L 486.386059 -259.175431 
L 481.553049 -257.56946 
L 476.720039 -264.941158 
L 471.887029 -269.255089 
L 467.054019 -265.051311 
L 462.221009 -260.522442 
L 457.387999 -253.400482 
z
" style="stroke: #ff00ff; stroke-opacity: 0.1"/>
    </defs>
    <g clip-path="url(#p5f951c10dc)">
     <use xlink:href="#md99ac3ba5f" x="0" y="323.436915" style="fill: #ff00ff; fill-opacity: 0.1; stroke: #ff00ff; stroke-opacity: 0.1"/>
    </g>
   </g>
   <g id="matplotlib.axis_5">
    <g id="xtick_9">
     <g id="line2d_23">
      <g>
       <use xlink:href="#m05c38d8d97" x="467.054019" y="210.24" style="stroke: #000000; stroke-width: 0.8"/>
      </g>
     </g>
     <g id="text_26">
      <text style="font: 10px 'Arial', sans-serif" transform="translate(436.088266 251.86503) rotate(-45)">Sampling</text>
     </g>
    </g>
    <g id="xtick_10">
     <g id="line2d_24">
      <g>
       <use xlink:href="#m05c38d8d97" x="597.545288" y="210.24" style="stroke: #000000; stroke-width: 0.8"/>
      </g>
     </g>
     <g id="text_27">
      <text style="font: 10px 'Arial', sans-serif" transform="translate(516.755024 301.686227) rotate(-45)">Movement to Lateral Port</text>
     </g>
    </g>
    <g id="text_28">
     <text style="font: 10px 'Arial', sans-serif; text-anchor: middle" x="534.716159" y="314.249415" transform="rotate(-0 534.716159 314.249415)">Normalized Time</text>
    </g>
   </g>
   <g id="matplotlib.axis_6">
    <g id="ytick_10">
     <g id="line2d_25">
      <g>
       <use xlink:href="#mc645434661" x="449.655183" y="189.660209" style="stroke: #000000; stroke-width: 0.8"/>
      </g>
     </g>
     <g id="text_29">
      <text style="font: 10px 'Arial', sans-serif; text-anchor: end" x="442.655183" y="193.239116" transform="rotate(-0 442.655183 193.239116)">−0.5</text>
     </g>
    </g>
    <g id="ytick_11">
     <g id="line2d_26">
      <g>
       <use xlink:href="#mc645434661" x="449.655183" y="156.800082" style="stroke: #000000; stroke-width: 0.8"/>
      </g>
     </g>
     <g id="text_30">
      <text style="font: 10px 'Arial', sans-serif; text-anchor: end" x="442.655183" y="160.378988" transform="rotate(-0 442.655183 160.378988)">0.0</text>
     </g>
    </g>
    <g id="ytick_12">
     <g id="line2d_27">
      <g>
       <use xlink:href="#mc645434661" x="449.655183" y="123.939955" style="stroke: #000000; stroke-width: 0.8"/>
      </g>
     </g>
     <g id="text_31">
      <text style="font: 10px 'Arial', sans-serif; text-anchor: end" x="442.655183" y="127.518861" transform="rotate(-0 442.655183 127.518861)">0.5</text>
     </g>
    </g>
    <g id="ytick_13">
     <g id="line2d_28">
      <g>
       <use xlink:href="#mc645434661" x="449.655183" y="91.079828" style="stroke: #000000; stroke-width: 0.8"/>
      </g>
     </g>
     <g id="text_32">
      <text style="font: 10px 'Arial', sans-serif; text-anchor: end" x="442.655183" y="94.658734" transform="rotate(-0 442.655183 94.658734)">1.0</text>
     </g>
    </g>
    <g id="ytick_14">
     <g id="line2d_29">
      <g>
       <use xlink:href="#mc645434661" x="449.655183" y="58.219701" style="stroke: #000000; stroke-width: 0.8"/>
      </g>
     </g>
     <g id="text_33">
      <text style="font: 10px 'Arial', sans-serif; text-anchor: end" x="442.655183" y="61.798607" transform="rotate(-0 442.655183 61.798607)">1.5</text>
     </g>
    </g>
    <g id="text_34">
     <text style="font: 10px 'Arial', sans-serif; text-anchor: middle" x="416.80987" y="127.08" transform="rotate(-90 416.80987 127.08)">Mean Activity</text>
    </g>
   </g>
   <g id="line2d_30">
    <path d="M 457.387999 95.961005 
L 462.221009 90.561547 
L 467.054019 87.286952 
L 471.887029 82.899769 
L 476.720039 85.451031 
L 481.553049 91.38082 
L 486.386059 89.879478 
L 491.219069 91.643275 
L 496.052079 94.935106 
L 500.885089 101.272318 
L 505.718099 106.233078 
L 510.551109 108.397176 
L 515.384119 114.643395 
L 520.217129 121.10134 
L 525.050139 123.247788 
L 529.883149 127.276282 
L 534.716159 130.739693 
L 539.549169 134.016021 
L 544.382178 136.215175 
L 549.215188 135.928351 
L 554.048198 135.560762 
L 558.881208 137.84632 
L 563.714218 143.431466 
L 568.547228 148.934005 
L 573.380238 151.209116 
L 578.213248 151.589508 
L 583.046258 153.377212 
L 587.879268 153.625435 
L 592.712278 152.625613 
L 597.545288 156.693727 
L 602.378298 161.327395 
L 607.211308 167.557112 
L 612.044318 171.336718 
" clip-path="url(#p5f951c10dc)" style="fill: none; stroke: #ff00ff; stroke-width: 1.5; stroke-linecap: square"/>
   </g>
   <g id="line2d_31">
    <path d="M 467.054019 210.24 
L 467.054019 43.92 
" clip-path="url(#p5f951c10dc)" style="fill: none; stroke-dasharray: 5.55,2.4; stroke-dashoffset: 0; stroke: #808080; stroke-opacity: 0.7; stroke-width: 1.5"/>
   </g>
   <g id="line2d_32">
    <path d="M 597.545288 210.24 
L 597.545288 43.92 
" clip-path="url(#p5f951c10dc)" style="fill: none; stroke-dasharray: 5.55,2.4; stroke-dashoffset: 0; stroke: #808080; stroke-opacity: 0.7; stroke-width: 1.5"/>
   </g>
   <g id="text_35">
    <text style="font: 12px 'Arial', sans-serif; text-anchor: middle" x="534.716159" y="37.92" transform="rotate(-0 534.716159 37.92)">2 Incorrect Trials</text>
   </g>
   <g id="legend_3">
    <g id="patch_21">
     <path d="M 481.154135 207.345 
L 588.278182 207.345 
Q 589.436182 207.345 589.436182 206.187 
L 589.436182 198.575864 
Q 589.436182 197.417864 588.278182 197.417864 
L 481.154135 197.417864 
Q 479.996135 197.417864 479.996135 198.575864 
L 479.996135 206.187 
Q 479.996135 207.345 481.154135 207.345 
z
" style="fill: #ffffff; opacity: 0.8; stroke: #cccccc; stroke-linejoin: miter"/>
    </g>
    <g id="line2d_33">
     <path d="M 482.312135 201.851738 
L 488.102135 201.851738 
L 493.892135 201.851738 
" style="fill: none; stroke: #ff00ff; stroke-width: 1.5; stroke-linecap: square"/>
    </g>
    <g id="text_36">
     <text style="font: 5.79px 'Arial', sans-serif; text-anchor: start" x="498.524135" y="203.878238" transform="rotate(-0 498.524135 203.878238)">Pref - PrevCount=-2 - #Trials=16.0</text>
    </g>
   </g>
  </g>
  <g id="axes_4">
   <g id="patch_22">
    <path d="M 653.801524 210.24 
L 823.923476 210.24 
L 823.923476 43.92 
L 653.801524 43.92 
z
" style="fill: #ffffff"/>
   </g>
   <g id="PolyCollection_3">
    <defs>
     <path id="mcafd99f5ee" d="M 661.53434 -245.763266 
L 661.53434 -213.716317 
L 666.36735 -212.65564 
L 671.20036 -214.077764 
L 676.03337 -215.77259 
L 680.86638 -217.311925 
L 685.69939 -218.917783 
L 690.5324 -216.135122 
L 695.36541 -210.310476 
L 700.19842 -204.761818 
L 705.03143 -202.887496 
L 709.86444 -197.570829 
L 714.69745 -192.86466 
L 719.53046 -190.263827 
L 724.36347 -186.252143 
L 729.19648 -181.409249 
L 734.02949 -176.954353 
L 738.8625 -175.341882 
L 743.69551 -170.602931 
L 748.52852 -167.751177 
L 753.36153 -163.233138 
L 758.19454 -159.682012 
L 763.02755 -156.553324 
L 767.86056 -155.599737 
L 772.69357 -153.580132 
L 777.52658 -152.843859 
L 782.35959 -151.632639 
L 787.1926 -150.392032 
L 792.02561 -147.559656 
L 796.85862 -146.495201 
L 801.69163 -145.919193 
L 806.52464 -144.909392 
L 811.35765 -143.253914 
L 816.19066 -141.958599 
L 816.19066 -153.448453 
L 816.19066 -153.448453 
L 811.35765 -156.985111 
L 806.52464 -160.221813 
L 801.69163 -161.473157 
L 796.85862 -161.613109 
L 792.02561 -162.656256 
L 787.1926 -166.109222 
L 782.35959 -167.925116 
L 777.52658 -169.895253 
L 772.69357 -171.389194 
L 767.86056 -173.674527 
L 763.02755 -174.780439 
L 758.19454 -178.7018 
L 753.36153 -182.849726 
L 748.52852 -187.975415 
L 743.69551 -191.632066 
L 738.8625 -197.170973 
L 734.02949 -199.458833 
L 729.19648 -204.812413 
L 724.36347 -210.872262 
L 719.53046 -215.28645 
L 714.69745 -217.975751 
L 709.86444 -223.535538 
L 705.03143 -229.843054 
L 700.19842 -232.278785 
L 695.36541 -239.5469 
L 690.5324 -246.88683 
L 685.69939 -250.901045 
L 680.86638 -250.175308 
L 676.03337 -248.814876 
L 671.20036 -246.794916 
L 666.36735 -245.109073 
L 661.53434 -245.763266 
z
" style="stroke: #ff00ff; stroke-opacity: 0.1"/>
    </defs>
    <g clip-path="url(#pad14bdaa4c)">
     <use xlink:href="#mcafd99f5ee" x="0" y="323.436915" style="fill: #ff00ff; fill-opacity: 0.1; stroke: #ff00ff; stroke-opacity: 0.1"/>
    </g>
   </g>
   <g id="matplotlib.axis_7">
    <g id="xtick_11">
     <g id="line2d_34">
      <g>
       <use xlink:href="#m05c38d8d97" x="671.20036" y="210.24" style="stroke: #000000; stroke-width: 0.8"/>
      </g>
     </g>
     <g id="text_37">
      <text style="font: 10px 'Arial', sans-serif" transform="translate(640.234608 251.86503) rotate(-45)">Sampling</text>
     </g>
    </g>
    <g id="xtick_12">
     <g id="line2d_35">
      <g>
       <use xlink:href="#m05c38d8d97" x="801.69163" y="210.24" style="stroke: #000000; stroke-width: 0.8"/>
      </g>
     </g>
     <g id="text_38">
      <text style="font: 10px 'Arial', sans-serif" transform="translate(720.901365 301.686227) rotate(-45)">Movement to Lateral Port</text>
     </g>
    </g>
    <g id="text_39">
     <text style="font: 10px 'Arial', sans-serif; text-anchor: middle" x="738.8625" y="314.249415" transform="rotate(-0 738.8625 314.249415)">Normalized Time</text>
    </g>
   </g>
   <g id="matplotlib.axis_8">
    <g id="ytick_15">
     <g id="line2d_36">
      <g>
       <use xlink:href="#mc645434661" x="653.801524" y="189.660209" style="stroke: #000000; stroke-width: 0.8"/>
      </g>
     </g>
     <g id="text_40">
      <text style="font: 10px 'Arial', sans-serif; text-anchor: end" x="646.801524" y="193.239116" transform="rotate(-0 646.801524 193.239116)">−0.5</text>
     </g>
    </g>
    <g id="ytick_16">
     <g id="line2d_37">
      <g>
       <use xlink:href="#mc645434661" x="653.801524" y="156.800082" style="stroke: #000000; stroke-width: 0.8"/>
      </g>
     </g>
     <g id="text_41">
      <text style="font: 10px 'Arial', sans-serif; text-anchor: end" x="646.801524" y="160.378988" transform="rotate(-0 646.801524 160.378988)">0.0</text>
     </g>
    </g>
    <g id="ytick_17">
     <g id="line2d_38">
      <g>
       <use xlink:href="#mc645434661" x="653.801524" y="123.939955" style="stroke: #000000; stroke-width: 0.8"/>
      </g>
     </g>
     <g id="text_42">
      <text style="font: 10px 'Arial', sans-serif; text-anchor: end" x="646.801524" y="127.518861" transform="rotate(-0 646.801524 127.518861)">0.5</text>
     </g>
    </g>
    <g id="ytick_18">
     <g id="line2d_39">
      <g>
       <use xlink:href="#mc645434661" x="653.801524" y="91.079828" style="stroke: #000000; stroke-width: 0.8"/>
      </g>
     </g>
     <g id="text_43">
      <text style="font: 10px 'Arial', sans-serif; text-anchor: end" x="646.801524" y="94.658734" transform="rotate(-0 646.801524 94.658734)">1.0</text>
     </g>
    </g>
    <g id="ytick_19">
     <g id="line2d_40">
      <g>
       <use xlink:href="#mc645434661" x="653.801524" y="58.219701" style="stroke: #000000; stroke-width: 0.8"/>
      </g>
     </g>
     <g id="text_44">
      <text style="font: 10px 'Arial', sans-serif; text-anchor: end" x="646.801524" y="61.798607" transform="rotate(-0 646.801524 61.798607)">1.5</text>
     </g>
    </g>
    <g id="text_45">
     <text style="font: 10px 'Arial', sans-serif; text-anchor: middle" x="620.956212" y="127.08" transform="rotate(-90 620.956212 127.08)">Mean Activity</text>
    </g>
   </g>
   <g id="line2d_41">
    <path d="M 661.53434 93.697123 
L 666.36735 94.554558 
L 671.20036 93.000576 
L 676.03337 91.143181 
L 680.86638 89.6933 
L 685.69939 88.5275 
L 690.5324 91.925938 
L 695.36541 98.508229 
L 700.19842 104.916613 
L 705.03143 107.071639 
L 709.86444 112.883731 
L 714.69745 118.016708 
L 719.53046 120.661776 
L 724.36347 124.874713 
L 729.19648 130.326084 
L 734.02949 135.230322 
L 738.8625 137.180487 
L 743.69551 142.319416 
L 748.52852 145.573618 
L 753.36153 150.395483 
L 758.19454 154.245008 
L 763.02755 157.770033 
L 767.86056 158.799782 
L 772.69357 160.952252 
L 777.52658 162.067358 
L 782.35959 163.658037 
L 787.1926 165.186287 
L 792.02561 168.328958 
L 796.85862 169.38276 
L 801.69163 169.74074 
L 806.52464 170.871312 
L 811.35765 173.317402 
L 816.19066 175.733388 
" clip-path="url(#pad14bdaa4c)" style="fill: none; stroke: #ff00ff; stroke-width: 1.5; stroke-linecap: square"/>
   </g>
   <g id="line2d_42">
    <path d="M 671.20036 210.24 
L 671.20036 43.92 
" clip-path="url(#pad14bdaa4c)" style="fill: none; stroke-dasharray: 5.55,2.4; stroke-dashoffset: 0; stroke: #808080; stroke-opacity: 0.7; stroke-width: 1.5"/>
   </g>
   <g id="line2d_43">
    <path d="M 801.69163 210.24 
L 801.69163 43.92 
" clip-path="url(#pad14bdaa4c)" style="fill: none; stroke-dasharray: 5.55,2.4; stroke-dashoffset: 0; stroke: #808080; stroke-opacity: 0.7; stroke-width: 1.5"/>
   </g>
   <g id="text_46">
    <text style="font: 12px 'Arial', sans-serif; text-anchor: middle" x="738.8625" y="37.92" transform="rotate(-0 738.8625 37.92)">1 Incorrect Trials</text>
   </g>
   <g id="legend_4">
    <g id="patch_23">
     <path d="M 685.300477 207.345 
L 792.424523 207.345 
Q 793.582523 207.345 793.582523 206.187 
L 793.582523 198.575864 
Q 793.582523 197.417864 792.424523 197.417864 
L 685.300477 197.417864 
Q 684.142477 197.417864 684.142477 198.575864 
L 684.142477 206.187 
Q 684.142477 207.345 685.300477 207.345 
z
" style="fill: #ffffff; opacity: 0.8; stroke: #cccccc; stroke-linejoin: miter"/>
    </g>
    <g id="line2d_44">
     <path d="M 686.458477 201.851738 
L 692.248477 201.851738 
L 698.038477 201.851738 
" style="fill: none; stroke: #ff00ff; stroke-width: 1.5; stroke-linecap: square"/>
    </g>
    <g id="text_47">
     <text style="font: 5.79px 'Arial', sans-serif; text-anchor: start" x="702.670477" y="203.878238" transform="rotate(-0 702.670477 203.878238)">Pref - PrevCount=-1 - #Trials=40.0</text>
    </g>
   </g>
  </g>
  <g id="axes_5">
   <g id="patch_24">
    <path d="M 857.947866 210.24 
L 1028.069817 210.24 
L 1028.069817 43.92 
L 857.947866 43.92 
z
" style="fill: #ffffff"/>
   </g>
   <g id="PolyCollection_4">
    <defs>
     <path id="m6900ecdf17" d="M 865.680682 -144.413147 
L 865.680682 -137.661127 
L 870.513692 -139.159725 
L 875.346702 -141.003717 
L 880.179712 -141.575545 
L 885.012722 -140.16719 
L 889.845732 -140.283553 
L 894.678742 -140.900108 
L 899.511752 -141.175558 
L 904.344762 -142.116663 
L 909.177772 -142.317482 
L 914.010782 -140.133533 
L 918.843792 -138.675177 
L 923.676802 -138.195524 
L 928.509812 -137.505305 
L 933.342822 -136.178513 
L 938.175831 -135.354482 
L 943.008841 -134.92938 
L 947.841851 -134.688753 
L 952.674861 -133.64017 
L 957.507871 -132.827858 
L 962.340881 -132.440099 
L 967.173891 -130.791614 
L 972.006901 -129.021655 
L 976.839911 -126.530053 
L 981.672921 -125.911506 
L 986.505931 -125.456731 
L 991.338941 -123.903595 
L 996.171951 -122.497642 
L 1001.004961 -122.084397 
L 1005.837971 -121.679383 
L 1010.670981 -120.778094 
L 1015.503991 -119.84763 
L 1020.337001 -119.810569 
L 1020.337001 -124.288765 
L 1020.337001 -124.288765 
L 1015.503991 -124.231953 
L 1010.670981 -124.461828 
L 1005.837971 -124.949246 
L 1001.004961 -125.154027 
L 996.171951 -125.704696 
L 991.338941 -127.466185 
L 986.505931 -129.566668 
L 981.672921 -130.500724 
L 976.839911 -131.66686 
L 972.006901 -134.234011 
L 967.173891 -136.094214 
L 962.340881 -137.586911 
L 957.507871 -138.128837 
L 952.674861 -138.860004 
L 947.841851 -140.079405 
L 943.008841 -140.743438 
L 938.175831 -141.123136 
L 933.342822 -141.691877 
L 928.509812 -142.69652 
L 923.676802 -143.485057 
L 918.843792 -144.306751 
L 914.010782 -146.082662 
L 909.177772 -149.026068 
L 904.344762 -149.279722 
L 899.511752 -148.650907 
L 894.678742 -148.446778 
L 889.845732 -147.649204 
L 885.012722 -147.365073 
L 880.179712 -148.760423 
L 875.346702 -148.145999 
L 870.513692 -146.118598 
L 865.680682 -144.413147 
z
" style="stroke: #00ffff; stroke-opacity: 0.1"/>
    </defs>
    <g clip-path="url(#p99f8fc7d4a)">
     <use xlink:href="#m6900ecdf17" x="0" y="323.436915" style="fill: #00ffff; fill-opacity: 0.1; stroke: #00ffff; stroke-opacity: 0.1"/>
    </g>
   </g>
   <g id="matplotlib.axis_9">
    <g id="xtick_13">
     <g id="line2d_45">
      <g>
       <use xlink:href="#m05c38d8d97" x="875.346702" y="210.24" style="stroke: #000000; stroke-width: 0.8"/>
      </g>
     </g>
     <g id="text_48">
      <text style="font: 10px 'Arial', sans-serif" transform="translate(844.380949 251.86503) rotate(-45)">Sampling</text>
     </g>
    </g>
    <g id="xtick_14">
     <g id="line2d_46">
      <g>
       <use xlink:href="#m05c38d8d97" x="1005.837971" y="210.24" style="stroke: #000000; stroke-width: 0.8"/>
      </g>
     </g>
     <g id="text_49">
      <text style="font: 10px 'Arial', sans-serif" transform="translate(925.047707 301.686227) rotate(-45)">Movement to Lateral Port</text>
     </g>
    </g>
    <g id="text_50">
     <text style="font: 10px 'Arial', sans-serif; text-anchor: middle" x="943.008841" y="314.249415" transform="rotate(-0 943.008841 314.249415)">Normalized Time</text>
    </g>
   </g>
   <g id="matplotlib.axis_10">
    <g id="ytick_20">
     <g id="line2d_47">
      <g>
       <use xlink:href="#mc645434661" x="857.947866" y="189.660209" style="stroke: #000000; stroke-width: 0.8"/>
      </g>
     </g>
     <g id="text_51">
      <text style="font: 10px 'Arial', sans-serif; text-anchor: end" x="850.947866" y="193.239116" transform="rotate(-0 850.947866 193.239116)">−0.5</text>
     </g>
    </g>
    <g id="ytick_21">
     <g id="line2d_48">
      <g>
       <use xlink:href="#mc645434661" x="857.947866" y="156.800082" style="stroke: #000000; stroke-width: 0.8"/>
      </g>
     </g>
     <g id="text_52">
      <text style="font: 10px 'Arial', sans-serif; text-anchor: end" x="850.947866" y="160.378988" transform="rotate(-0 850.947866 160.378988)">0.0</text>
     </g>
    </g>
    <g id="ytick_22">
     <g id="line2d_49">
      <g>
       <use xlink:href="#mc645434661" x="857.947866" y="123.939955" style="stroke: #000000; stroke-width: 0.8"/>
      </g>
     </g>
     <g id="text_53">
      <text style="font: 10px 'Arial', sans-serif; text-anchor: end" x="850.947866" y="127.518861" transform="rotate(-0 850.947866 127.518861)">0.5</text>
     </g>
    </g>
    <g id="ytick_23">
     <g id="line2d_50">
      <g>
       <use xlink:href="#mc645434661" x="857.947866" y="91.079828" style="stroke: #000000; stroke-width: 0.8"/>
      </g>
     </g>
     <g id="text_54">
      <text style="font: 10px 'Arial', sans-serif; text-anchor: end" x="850.947866" y="94.658734" transform="rotate(-0 850.947866 94.658734)">1.0</text>
     </g>
    </g>
    <g id="ytick_24">
     <g id="line2d_51">
      <g>
       <use xlink:href="#mc645434661" x="857.947866" y="58.219701" style="stroke: #000000; stroke-width: 0.8"/>
      </g>
     </g>
     <g id="text_55">
      <text style="font: 10px 'Arial', sans-serif; text-anchor: end" x="850.947866" y="61.798607" transform="rotate(-0 850.947866 61.798607)">1.5</text>
     </g>
    </g>
    <g id="text_56">
     <text style="font: 10px 'Arial', sans-serif; text-anchor: middle" x="825.102553" y="127.08" transform="rotate(-90 825.102553 127.08)">Mean Activity</text>
    </g>
   </g>
   <g id="line2d_52">
    <path d="M 865.680682 182.399778 
L 870.513692 180.797753 
L 875.346702 178.862057 
L 880.179712 178.268931 
L 885.012722 179.670783 
L 889.845732 179.470536 
L 894.678742 178.763472 
L 899.511752 178.523682 
L 904.344762 177.738722 
L 909.177772 177.765139 
L 914.010782 180.328817 
L 918.843792 181.945951 
L 923.676802 182.596624 
L 928.509812 183.336002 
L 933.342822 184.50172 
L 938.175831 185.198106 
L 943.008841 185.600505 
L 947.841851 186.052836 
L 952.674861 187.186828 
L 957.507871 187.958567 
L 962.340881 188.42341 
L 967.173891 189.994001 
L 972.006901 191.809082 
L 976.839911 194.338458 
L 981.672921 195.2308 
L 986.505931 195.925215 
L 991.338941 197.752024 
L 996.171951 199.335746 
L 1001.004961 199.817703 
L 1005.837971 200.1226 
L 1010.670981 200.816953 
L 1015.503991 201.397123 
L 1020.337001 201.387247 
" clip-path="url(#p99f8fc7d4a)" style="fill: none; stroke: #00ffff; stroke-width: 1.5; stroke-linecap: square"/>
   </g>
   <g id="line2d_53">
    <path d="M 875.346702 210.24 
L 875.346702 43.92 
" clip-path="url(#p99f8fc7d4a)" style="fill: none; stroke-dasharray: 5.55,2.4; stroke-dashoffset: 0; stroke: #808080; stroke-opacity: 0.7; stroke-width: 1.5"/>
   </g>
   <g id="line2d_54">
    <path d="M 1005.837971 210.24 
L 1005.837971 43.92 
" clip-path="url(#p99f8fc7d4a)" style="fill: none; stroke-dasharray: 5.55,2.4; stroke-dashoffset: 0; stroke: #808080; stroke-opacity: 0.7; stroke-width: 1.5"/>
   </g>
   <g id="text_57">
    <text style="font: 12px 'Arial', sans-serif; text-anchor: middle" x="943.008841" y="37.92" transform="rotate(-0 943.008841 37.92)">1 Correct Trials</text>
   </g>
   <g id="legend_5">
    <g id="patch_25">
     <path d="M 885.100247 56.742136 
L 1000.917436 56.742136 
Q 1002.075436 56.742136 1002.075436 55.584136 
L 1002.075436 47.973 
Q 1002.075436 46.815 1000.917436 46.815 
L 885.100247 46.815 
Q 883.942247 46.815 883.942247 47.973 
L 883.942247 55.584136 
Q 883.942247 56.742136 885.100247 56.742136 
z
" style="fill: #ffffff; opacity: 0.8; stroke: #cccccc; stroke-linejoin: miter"/>
    </g>
    <g id="line2d_55">
     <path d="M 886.258247 51.248873 
L 892.048247 51.248873 
L 897.838247 51.248873 
" style="fill: none; stroke: #00ffff; stroke-width: 1.5; stroke-linecap: square"/>
    </g>
    <g id="text_58">
     <text style="font: 5.79px 'Arial', sans-serif; text-anchor: start" x="902.470247" y="53.275373" transform="rotate(-0 902.470247 53.275373)">NonPref - PrevCount=1 - #Trials=41.0</text>
    </g>
   </g>
  </g>
  <g id="axes_6">
   <g id="patch_26">
    <path d="M 1062.094207 210.24 
L 1232.216159 210.24 
L 1232.216159 43.92 
L 1062.094207 43.92 
z
" style="fill: #ffffff"/>
   </g>
   <g id="PolyCollection_5">
    <defs>
     <path id="m63e0ef1139" d="M 1069.827023 -140.500889 
L 1069.827023 -131.931752 
L 1074.660033 -133.320469 
L 1079.493043 -135.461707 
L 1084.326053 -136.428225 
L 1089.159063 -138.318887 
L 1093.992073 -138.77745 
L 1098.825083 -137.564279 
L 1103.658093 -139.113688 
L 1108.491103 -140.76629 
L 1113.324113 -140.869994 
L 1118.157123 -139.985291 
L 1122.990133 -138.81921 
L 1127.823143 -138.932232 
L 1132.656153 -137.779431 
L 1137.489163 -138.837462 
L 1142.322173 -138.836422 
L 1147.155183 -135.877067 
L 1151.988193 -133.872035 
L 1156.821203 -133.135478 
L 1161.654213 -130.973843 
L 1166.487223 -130.045001 
L 1171.320233 -128.036021 
L 1176.153243 -125.306944 
L 1180.986253 -124.09507 
L 1185.819263 -124.209041 
L 1190.652273 -124.975761 
L 1195.485283 -126.80997 
L 1200.318293 -126.606235 
L 1205.151303 -126.39662 
L 1209.984313 -126.238516 
L 1214.817323 -126.501672 
L 1219.650333 -126.540026 
L 1224.483343 -126.341931 
L 1224.483343 -133.219463 
L 1224.483343 -133.219463 
L 1219.650333 -133.913446 
L 1214.817323 -134.608236 
L 1209.984313 -134.024433 
L 1205.151303 -133.624893 
L 1200.318293 -133.595165 
L 1195.485283 -133.821654 
L 1190.652273 -132.397726 
L 1185.819263 -131.840288 
L 1180.986253 -132.204822 
L 1176.153243 -133.874714 
L 1171.320233 -137.04904 
L 1166.487223 -139.837353 
L 1161.654213 -141.619296 
L 1156.821203 -144.005927 
L 1151.988193 -144.882302 
L 1147.155183 -146.647152 
L 1142.322173 -148.775616 
L 1137.489163 -148.625039 
L 1132.656153 -148.247851 
L 1127.823143 -149.347816 
L 1122.990133 -149.490636 
L 1118.157123 -150.715637 
L 1113.324113 -151.211049 
L 1108.491103 -150.985005 
L 1103.658093 -149.554875 
L 1098.825083 -148.093651 
L 1093.992073 -149.596321 
L 1089.159063 -148.659037 
L 1084.326053 -147.202898 
L 1079.493043 -144.418302 
L 1074.660033 -141.577186 
L 1069.827023 -140.500889 
z
" style="stroke: #00ffff; stroke-opacity: 0.1"/>
    </defs>
    <g clip-path="url(#p258abe4e16)">
     <use xlink:href="#m63e0ef1139" x="0" y="323.436915" style="fill: #00ffff; fill-opacity: 0.1; stroke: #00ffff; stroke-opacity: 0.1"/>
    </g>
   </g>
   <g id="matplotlib.axis_11">
    <g id="xtick_15">
     <g id="line2d_56">
      <g>
       <use xlink:href="#m05c38d8d97" x="1079.493043" y="210.24" style="stroke: #000000; stroke-width: 0.8"/>
      </g>
     </g>
     <g id="text_59">
      <text style="font: 10px 'Arial', sans-serif" transform="translate(1048.52729 251.86503) rotate(-45)">Sampling</text>
     </g>
    </g>
    <g id="xtick_16">
     <g id="line2d_57">
      <g>
       <use xlink:href="#m05c38d8d97" x="1209.984313" y="210.24" style="stroke: #000000; stroke-width: 0.8"/>
      </g>
     </g>
     <g id="text_60">
      <text style="font: 10px 'Arial', sans-serif" transform="translate(1129.194048 301.686227) rotate(-45)">Movement to Lateral Port</text>
     </g>
    </g>
    <g id="text_61">
     <text style="font: 10px 'Arial', sans-serif; text-anchor: middle" x="1147.155183" y="314.249415" transform="rotate(-0 1147.155183 314.249415)">Normalized Time</text>
    </g>
   </g>
   <g id="matplotlib.axis_12">
    <g id="ytick_25">
     <g id="line2d_58">
      <g>
       <use xlink:href="#mc645434661" x="1062.094207" y="189.660209" style="stroke: #000000; stroke-width: 0.8"/>
      </g>
     </g>
     <g id="text_62">
      <text style="font: 10px 'Arial', sans-serif; text-anchor: end" x="1055.094207" y="193.239116" transform="rotate(-0 1055.094207 193.239116)">−0.5</text>
     </g>
    </g>
    <g id="ytick_26">
     <g id="line2d_59">
      <g>
       <use xlink:href="#mc645434661" x="1062.094207" y="156.800082" style="stroke: #000000; stroke-width: 0.8"/>
      </g>
     </g>
     <g id="text_63">
      <text style="font: 10px 'Arial', sans-serif; text-anchor: end" x="1055.094207" y="160.378988" transform="rotate(-0 1055.094207 160.378988)">0.0</text>
     </g>
    </g>
    <g id="ytick_27">
     <g id="line2d_60">
      <g>
       <use xlink:href="#mc645434661" x="1062.094207" y="123.939955" style="stroke: #000000; stroke-width: 0.8"/>
      </g>
     </g>
     <g id="text_64">
      <text style="font: 10px 'Arial', sans-serif; text-anchor: end" x="1055.094207" y="127.518861" transform="rotate(-0 1055.094207 127.518861)">0.5</text>
     </g>
    </g>
    <g id="ytick_28">
     <g id="line2d_61">
      <g>
       <use xlink:href="#mc645434661" x="1062.094207" y="91.079828" style="stroke: #000000; stroke-width: 0.8"/>
      </g>
     </g>
     <g id="text_65">
      <text style="font: 10px 'Arial', sans-serif; text-anchor: end" x="1055.094207" y="94.658734" transform="rotate(-0 1055.094207 94.658734)">1.0</text>
     </g>
    </g>
    <g id="ytick_29">
     <g id="line2d_62">
      <g>
       <use xlink:href="#mc645434661" x="1062.094207" y="58.219701" style="stroke: #000000; stroke-width: 0.8"/>
      </g>
     </g>
     <g id="text_66">
      <text style="font: 10px 'Arial', sans-serif; text-anchor: end" x="1055.094207" y="61.798607" transform="rotate(-0 1055.094207 61.798607)">1.5</text>
     </g>
    </g>
    <g id="text_67">
     <text style="font: 10px 'Arial', sans-serif; text-anchor: middle" x="1029.248895" y="127.08" transform="rotate(-90 1029.248895 127.08)">Mean Activity</text>
    </g>
   </g>
   <g id="line2d_63">
    <path d="M 1069.827023 187.220594 
L 1074.660033 185.988086 
L 1079.493043 183.49691 
L 1084.326053 181.621353 
L 1089.159063 179.947953 
L 1093.992073 179.250029 
L 1098.825083 180.607949 
L 1103.658093 179.102633 
L 1108.491103 177.561267 
L 1113.324113 177.396393 
L 1118.157123 178.08645 
L 1122.990133 179.281992 
L 1127.823143 179.296891 
L 1132.656153 180.423273 
L 1137.489163 179.705664 
L 1142.322173 179.630896 
L 1147.155183 182.174805 
L 1151.988193 184.059746 
L 1156.821203 184.866212 
L 1161.654213 187.140346 
L 1166.487223 188.495738 
L 1171.320233 190.894384 
L 1176.153243 193.846085 
L 1180.986253 195.286969 
L 1185.819263 195.41225 
L 1190.652273 194.750171 
L 1195.485283 193.121104 
L 1200.318293 193.336215 
L 1205.151303 193.426158 
L 1209.984313 193.305441 
L 1214.817323 192.881961 
L 1219.650333 193.210178 
L 1224.483343 193.656217 
" clip-path="url(#p258abe4e16)" style="fill: none; stroke: #00ffff; stroke-width: 1.5; stroke-linecap: square"/>
   </g>
   <g id="line2d_64">
    <path d="M 1079.493043 210.24 
L 1079.493043 43.92 
" clip-path="url(#p258abe4e16)" style="fill: none; stroke-dasharray: 5.55,2.4; stroke-dashoffset: 0; stroke: #808080; stroke-opacity: 0.7; stroke-width: 1.5"/>
   </g>
   <g id="line2d_65">
    <path d="M 1209.984313 210.24 
L 1209.984313 43.92 
" clip-path="url(#p258abe4e16)" style="fill: none; stroke-dasharray: 5.55,2.4; stroke-dashoffset: 0; stroke: #808080; stroke-opacity: 0.7; stroke-width: 1.5"/>
   </g>
   <g id="text_68">
    <text style="font: 12px 'Arial', sans-serif; text-anchor: middle" x="1147.155183" y="37.92" transform="rotate(-0 1147.155183 37.92)">2 Correct Trials</text>
   </g>
   <g id="legend_6">
    <g id="patch_27">
     <path d="M 1089.246588 207.345 
L 1205.063777 207.345 
Q 1206.221777 207.345 1206.221777 206.187 
L 1206.221777 198.575864 
Q 1206.221777 197.417864 1205.063777 197.417864 
L 1089.246588 197.417864 
Q 1088.088588 197.417864 1088.088588 198.575864 
L 1088.088588 206.187 
Q 1088.088588 207.345 1089.246588 207.345 
z
" style="fill: #ffffff; opacity: 0.8; stroke: #cccccc; stroke-linejoin: miter"/>
    </g>
    <g id="line2d_66">
     <path d="M 1090.404588 201.851738 
L 1096.194588 201.851738 
L 1101.984588 201.851738 
" style="fill: none; stroke: #00ffff; stroke-width: 1.5; stroke-linecap: square"/>
    </g>
    <g id="text_69">
     <text style="font: 5.79px 'Arial', sans-serif; text-anchor: start" x="1106.616588" y="203.878238" transform="rotate(-0 1106.616588 203.878238)">NonPref - PrevCount=2 - #Trials=31.0</text>
    </g>
   </g>
  </g>
  <g id="axes_7">
   <g id="patch_28">
    <path d="M 1266.240549 210.24 
L 1436.3625 210.24 
L 1436.3625 43.92 
L 1266.240549 43.92 
z
" style="fill: #ffffff"/>
   </g>
   <g id="PolyCollection_6">
    <defs>
     <path id="mf7333b6774" d="M 1273.973365 -143.033451 
L 1273.973365 -136.331689 
L 1278.806375 -138.075453 
L 1283.639385 -140.092426 
L 1288.472395 -141.506488 
L 1293.305405 -142.52554 
L 1298.138415 -145.788883 
L 1302.971425 -148.508747 
L 1307.804435 -149.260781 
L 1312.637445 -148.837244 
L 1317.470455 -147.892227 
L 1322.303465 -147.121284 
L 1327.136475 -146.583464 
L 1331.969484 -145.622847 
L 1336.802494 -144.247217 
L 1341.635504 -142.856678 
L 1346.468514 -141.928848 
L 1351.301524 -140.349768 
L 1356.134534 -137.699563 
L 1360.967544 -135.905441 
L 1365.800554 -135.445125 
L 1370.633564 -134.401002 
L 1375.466574 -134.229443 
L 1380.299584 -134.291383 
L 1385.132594 -132.80173 
L 1389.965604 -130.938702 
L 1394.798614 -129.62004 
L 1399.631624 -128.712836 
L 1404.464634 -127.030722 
L 1409.297644 -126.694302 
L 1414.130654 -126.682844 
L 1418.963664 -126.98431 
L 1423.796674 -127.493324 
L 1428.629684 -127.891608 
L 1428.629684 -133.263693 
L 1428.629684 -133.263693 
L 1423.796674 -132.942437 
L 1418.963664 -132.355338 
L 1414.130654 -132.139627 
L 1409.297644 -132.176132 
L 1404.464634 -132.542284 
L 1399.631624 -134.125643 
L 1394.798614 -135.074833 
L 1389.965604 -136.470925 
L 1385.132594 -138.438494 
L 1380.299584 -140.025988 
L 1375.466574 -140.074706 
L 1370.633564 -140.380356 
L 1365.800554 -141.453098 
L 1360.967544 -142.034402 
L 1356.134534 -143.971189 
L 1351.301524 -146.600242 
L 1346.468514 -148.38494 
L 1341.635504 -149.369887 
L 1336.802494 -150.54401 
L 1331.969484 -151.767507 
L 1327.136475 -152.515749 
L 1322.303465 -152.918662 
L 1317.470455 -153.664133 
L 1312.637445 -154.767109 
L 1307.804435 -155.274005 
L 1302.971425 -154.757523 
L 1298.138415 -152.272178 
L 1293.305405 -149.311644 
L 1288.472395 -148.536377 
L 1283.639385 -147.236811 
L 1278.806375 -144.972203 
L 1273.973365 -143.033451 
z
" style="stroke: #00ffff; stroke-opacity: 0.1"/>
    </defs>
    <g clip-path="url(#p99fef65c5a)">
     <use xlink:href="#mf7333b6774" x="0" y="323.436915" style="fill: #00ffff; fill-opacity: 0.1; stroke: #00ffff; stroke-opacity: 0.1"/>
    </g>
   </g>
   <g id="matplotlib.axis_13">
    <g id="xtick_17">
     <g id="line2d_67">
      <g>
       <use xlink:href="#m05c38d8d97" x="1283.639385" y="210.24" style="stroke: #000000; stroke-width: 0.8"/>
      </g>
     </g>
     <g id="text_70">
      <text style="font: 10px 'Arial', sans-serif" transform="translate(1252.673632 251.86503) rotate(-45)">Sampling</text>
     </g>
    </g>
    <g id="xtick_18">
     <g id="line2d_68">
      <g>
       <use xlink:href="#m05c38d8d97" x="1414.130654" y="210.24" style="stroke: #000000; stroke-width: 0.8"/>
      </g>
     </g>
     <g id="text_71">
      <text style="font: 10px 'Arial', sans-serif" transform="translate(1333.34039 301.686227) rotate(-45)">Movement to Lateral Port</text>
     </g>
    </g>
    <g id="text_72">
     <text style="font: 10px 'Arial', sans-serif; text-anchor: middle" x="1351.301524" y="314.249415" transform="rotate(-0 1351.301524 314.249415)">Normalized Time</text>
    </g>
   </g>
   <g id="matplotlib.axis_14">
    <g id="ytick_30">
     <g id="line2d_69">
      <g>
       <use xlink:href="#mc645434661" x="1266.240549" y="189.660209" style="stroke: #000000; stroke-width: 0.8"/>
      </g>
     </g>
     <g id="text_73">
      <text style="font: 10px 'Arial', sans-serif; text-anchor: end" x="1259.240549" y="193.239116" transform="rotate(-0 1259.240549 193.239116)">−0.5</text>
     </g>
    </g>
    <g id="ytick_31">
     <g id="line2d_70">
      <g>
       <use xlink:href="#mc645434661" x="1266.240549" y="156.800082" style="stroke: #000000; stroke-width: 0.8"/>
      </g>
     </g>
     <g id="text_74">
      <text style="font: 10px 'Arial', sans-serif; text-anchor: end" x="1259.240549" y="160.378988" transform="rotate(-0 1259.240549 160.378988)">0.0</text>
     </g>
    </g>
    <g id="ytick_32">
     <g id="line2d_71">
      <g>
       <use xlink:href="#mc645434661" x="1266.240549" y="123.939955" style="stroke: #000000; stroke-width: 0.8"/>
      </g>
     </g>
     <g id="text_75">
      <text style="font: 10px 'Arial', sans-serif; text-anchor: end" x="1259.240549" y="127.518861" transform="rotate(-0 1259.240549 127.518861)">0.5</text>
     </g>
    </g>
    <g id="ytick_33">
     <g id="line2d_72">
      <g>
       <use xlink:href="#mc645434661" x="1266.240549" y="91.079828" style="stroke: #000000; stroke-width: 0.8"/>
      </g>
     </g>
     <g id="text_76">
      <text style="font: 10px 'Arial', sans-serif; text-anchor: end" x="1259.240549" y="94.658734" transform="rotate(-0 1259.240549 94.658734)">1.0</text>
     </g>
    </g>
    <g id="ytick_34">
     <g id="line2d_73">
      <g>
       <use xlink:href="#mc645434661" x="1266.240549" y="58.219701" style="stroke: #000000; stroke-width: 0.8"/>
      </g>
     </g>
     <g id="text_77">
      <text style="font: 10px 'Arial', sans-serif; text-anchor: end" x="1259.240549" y="61.798607" transform="rotate(-0 1259.240549 61.798607)">1.5</text>
     </g>
    </g>
    <g id="text_78">
     <text style="font: 10px 'Arial', sans-serif; text-anchor: middle" x="1233.395236" y="127.08" transform="rotate(-90 1233.395236 127.08)">Mean Activity</text>
    </g>
   </g>
   <g id="line2d_74">
    <path d="M 1273.973365 183.754345 
L 1278.806375 181.913087 
L 1283.639385 179.772296 
L 1288.472395 178.415482 
L 1293.305405 177.518322 
L 1298.138415 174.406385 
L 1302.971425 171.80378 
L 1307.804435 171.169522 
L 1312.637445 171.634738 
L 1317.470455 172.658734 
L 1322.303465 173.416941 
L 1327.136475 173.887308 
L 1331.969484 174.741737 
L 1336.802494 176.041301 
L 1341.635504 177.323632 
L 1346.468514 178.28002 
L 1351.301524 179.96191 
L 1356.134534 182.601539 
L 1360.967544 184.466993 
L 1365.800554 184.987803 
L 1370.633564 186.046235 
L 1375.466574 186.28484 
L 1380.299584 186.278229 
L 1385.132594 187.816803 
L 1389.965604 189.732102 
L 1394.798614 191.089478 
L 1399.631624 192.017674 
L 1404.464634 193.650412 
L 1409.297644 194.001698 
L 1414.130654 194.025679 
L 1418.963664 193.767091 
L 1423.796674 193.219034 
L 1428.629684 192.859264 
" clip-path="url(#p99fef65c5a)" style="fill: none; stroke: #00ffff; stroke-width: 1.5; stroke-linecap: square"/>
   </g>
   <g id="line2d_75">
    <path d="M 1283.639385 210.24 
L 1283.639385 43.92 
" clip-path="url(#p99fef65c5a)" style="fill: none; stroke-dasharray: 5.55,2.4; stroke-dashoffset: 0; stroke: #808080; stroke-opacity: 0.7; stroke-width: 1.5"/>
   </g>
   <g id="line2d_76">
    <path d="M 1414.130654 210.24 
L 1414.130654 43.92 
" clip-path="url(#p99fef65c5a)" style="fill: none; stroke-dasharray: 5.55,2.4; stroke-dashoffset: 0; stroke: #808080; stroke-opacity: 0.7; stroke-width: 1.5"/>
   </g>
   <g id="text_79">
    <text style="font: 12px 'Arial', sans-serif; text-anchor: middle" x="1351.301524" y="37.92" transform="rotate(-0 1351.301524 37.92)">3 Correct Trials</text>
   </g>
   <g id="legend_7">
    <g id="patch_29">
     <path d="M 1293.39293 207.345 
L 1409.210119 207.345 
Q 1410.368119 207.345 1410.368119 206.187 
L 1410.368119 198.575864 
Q 1410.368119 197.417864 1409.210119 197.417864 
L 1293.39293 197.417864 
Q 1292.23493 197.417864 1292.23493 198.575864 
L 1292.23493 206.187 
Q 1292.23493 207.345 1293.39293 207.345 
z
" style="fill: #ffffff; opacity: 0.8; stroke: #cccccc; stroke-linejoin: miter"/>
    </g>
    <g id="line2d_77">
     <path d="M 1294.55093 201.851738 
L 1300.34093 201.851738 
L 1306.13093 201.851738 
" style="fill: none; stroke: #00ffff; stroke-width: 1.5; stroke-linecap: square"/>
    </g>
    <g id="text_80">
     <text style="font: 5.79px 'Arial', sans-serif; text-anchor: start" x="1310.76293" y="203.878238" transform="rotate(-0 1310.76293 203.878238)">NonPref - PrevCount=3 - #Trials=93.0</text>
    </g>
   </g>
  </g>
  <g id="text_81">
   <text style="font: 12px 'Arial', sans-serif; text-anchor: middle" x="716.3625" y="15.935625" transform="rotate(-0 716.3625 15.935625)">Balance Change - M2 - GP4_28_S5_L40_D250_M2L_4 - PrevChoiceCorrect</text>
  </g>
 </g>
 <defs>
  <clipPath id="p20e82cc175">
   <rect x="41.3625" y="43.92" width="170.121951" height="166.32"/>
  </clipPath>
  <clipPath id="p016426120c">
   <rect x="245.508841" y="43.92" width="170.121951" height="166.32"/>
  </clipPath>
  <clipPath id="p5f951c10dc">
   <rect x="449.655183" y="43.92" width="170.121951" height="166.32"/>
  </clipPath>
  <clipPath id="pad14bdaa4c">
   <rect x="653.801524" y="43.92" width="170.121951" height="166.32"/>
  </clipPath>
  <clipPath id="p99f8fc7d4a">
   <rect x="857.947866" y="43.92" width="170.121951" height="166.32"/>
  </clipPath>
  <clipPath id="p258abe4e16">
   <rect x="1062.094207" y="43.92" width="170.121951" height="166.32"/>
  </clipPath>
  <clipPath id="p99fef65c5a">
   <rect x="1266.240549" y="43.92" width="170.121951" height="166.32"/>
  </clipPath>
 </defs>
</svg>
