<?xml version="1.0" encoding="utf-8" standalone="no"?>
<!DOCTYPE svg PUBLIC "-//W3C//DTD SVG 1.1//EN"
  "http://www.w3.org/Graphics/SVG/1.1/DTD/svg11.dtd">
<svg xmlns:xlink="http://www.w3.org/1999/xlink" width="1449.403125pt" height="323.436915pt" viewBox="0 0 1449.403125 323.436915" xmlns="http://www.w3.org/2000/svg" version="1.1">
 <metadata>
  <rdf:RDF xmlns:dc="http://purl.org/dc/elements/1.1/" xmlns:cc="http://creativecommons.org/ns#" xmlns:rdf="http://www.w3.org/1999/02/22-rdf-syntax-ns#">
   <cc:Work>
    <dc:type rdf:resource="http://purl.org/dc/dcmitype/StillImage"/>
    <dc:date>2025-12-27T14:02:24.961423</dc:date>
    <dc:format>image/svg+xml</dc:format>
    <dc:creator>
     <cc:Agent>
      <dc:title>Matplotlib v3.8.0, https://matplotlib.org/</dc:title>
     </cc:Agent>
    </dc:creator>
   </cc:Work>
  </rdf:RDF>
 </metadata>
 <defs>
  <style type="text/css">*{stroke-linejoin: round; stroke-linecap: butt}</style>
 </defs>
 <g id="figure_1">
  <g id="patch_1">
   <path d="M 0 323.436915 
L 1449.403125 323.436915 
L 1449.403125 0 
L 0 0 
z
" style="fill: #ffffff"/>
  </g>
  <g id="axes_1">
   <g id="patch_2">
    <path d="M 47.203125 210.24 
L 217.325076 210.24 
L 217.325076 43.92 
L 47.203125 43.92 
z
" style="fill: #ffffff"/>
   </g>
   <g id="patch_3">
    <path d="M 0 0 
z
" clip-path="url(#pef046e115b)" style="fill: #ff00ff"/>
   </g>
   <g id="patch_4">
    <path d="M 0 0 
z
" clip-path="url(#pef046e115b)" style="fill: #ff00ff"/>
   </g>
   <g id="patch_5">
    <path d="M 0 0 
z
" clip-path="url(#pef046e115b)" style="fill: #ff00ff"/>
   </g>
   <g id="patch_6">
    <path d="M 147.729733 166.528595 
L 158.040154 166.528595 
L 158.040154 124.395931 
L 147.729733 124.395931 
z
" clip-path="url(#pef046e115b)" style="fill: #ff00ff"/>
   </g>
   <g id="patch_7">
    <path d="M 173.505786 166.528595 
L 183.816207 166.528595 
L 183.816207 85.307003 
L 173.505786 85.307003 
z
" clip-path="url(#pef046e115b)" style="fill: #ff00ff"/>
   </g>
   <g id="patch_8">
    <path d="M 199.281839 166.528595 
L 209.59226 166.528595 
L 209.59226 63.456149 
L 199.281839 63.456149 
z
" clip-path="url(#pef046e115b)" style="fill: #ff00ff"/>
   </g>
   <g id="patch_9">
    <path d="M 54.935941 166.528595 
L 65.246362 166.528595 
L 65.246362 196.912506 
L 54.935941 196.912506 
z
" clip-path="url(#pef046e115b)" style="fill: #00ffff"/>
   </g>
   <g id="patch_10">
    <path d="M 80.711994 166.528595 
L 91.022415 166.528595 
L 91.022415 185.220454 
L 80.711994 185.220454 
z
" clip-path="url(#pef046e115b)" style="fill: #00ffff"/>
   </g>
   <g id="patch_11">
    <path d="M 106.488047 166.528595 
L 116.798469 166.528595 
L 116.798469 169.494145 
L 106.488047 169.494145 
z
" clip-path="url(#pef046e115b)" style="fill: #00ffff"/>
   </g>
   <g id="patch_12">
    <path d="M 0 0 
z
" clip-path="url(#pef046e115b)" style="fill: #00ffff"/>
   </g>
   <g id="patch_13">
    <path d="M 0 0 
z
" clip-path="url(#pef046e115b)" style="fill: #00ffff"/>
   </g>
   <g id="patch_14">
    <path d="M 0 0 
z
" clip-path="url(#pef046e115b)" style="fill: #00ffff"/>
   </g>
   <g id="matplotlib.axis_1">
    <g id="xtick_1">
     <g id="line2d_1">
      <defs>
       <path id="m6ab8bf5882" d="M 0 0 
L 0 3.5 
" style="stroke: #000000; stroke-width: 0.8"/>
      </defs>
      <g>
       <use xlink:href="#m6ab8bf5882" x="54.935941" y="210.24" style="stroke: #000000; stroke-width: 0.8"/>
      </g>
     </g>
     <g id="text_1">
      <text style="font: 10px 'Arial', sans-serif; text-anchor: middle" x="54.935941" y="224.397813" transform="rotate(-0 54.935941 224.397813)">−3</text>
     </g>
    </g>
    <g id="xtick_2">
     <g id="line2d_2">
      <g>
       <use xlink:href="#m6ab8bf5882" x="80.711994" y="210.24" style="stroke: #000000; stroke-width: 0.8"/>
      </g>
     </g>
     <g id="text_2">
      <text style="font: 10px 'Arial', sans-serif; text-anchor: middle" x="80.711994" y="224.397813" transform="rotate(-0 80.711994 224.397813)">−2</text>
     </g>
    </g>
    <g id="xtick_3">
     <g id="line2d_3">
      <g>
       <use xlink:href="#m6ab8bf5882" x="106.488047" y="210.24" style="stroke: #000000; stroke-width: 0.8"/>
      </g>
     </g>
     <g id="text_3">
      <text style="font: 10px 'Arial', sans-serif; text-anchor: middle" x="106.488047" y="224.397813" transform="rotate(-0 106.488047 224.397813)">−1</text>
     </g>
    </g>
    <g id="xtick_4">
     <g id="line2d_4">
      <g>
       <use xlink:href="#m6ab8bf5882" x="158.040154" y="210.24" style="stroke: #000000; stroke-width: 0.8"/>
      </g>
     </g>
     <g id="text_4">
      <text style="font: 10px 'Arial', sans-serif; text-anchor: middle" x="158.040154" y="224.397813" transform="rotate(-0 158.040154 224.397813)">1</text>
     </g>
    </g>
    <g id="xtick_5">
     <g id="line2d_5">
      <g>
       <use xlink:href="#m6ab8bf5882" x="183.816207" y="210.24" style="stroke: #000000; stroke-width: 0.8"/>
      </g>
     </g>
     <g id="text_5">
      <text style="font: 10px 'Arial', sans-serif; text-anchor: middle" x="183.816207" y="224.397813" transform="rotate(-0 183.816207 224.397813)">2</text>
     </g>
    </g>
    <g id="xtick_6">
     <g id="line2d_6">
      <g>
       <use xlink:href="#m6ab8bf5882" x="209.59226" y="210.24" style="stroke: #000000; stroke-width: 0.8"/>
      </g>
     </g>
     <g id="text_6">
      <text style="font: 10px 'Arial', sans-serif; text-anchor: middle" x="209.59226" y="224.397813" transform="rotate(-0 209.59226 224.397813)">3</text>
     </g>
    </g>
    <g id="text_7">
     <text style="font: 10px 'Arial', sans-serif; text-anchor: middle" x="132.264101" y="237.543125" transform="rotate(-0 132.264101 237.543125)">PrevOutcomeCount</text>
    </g>
   </g>
   <g id="matplotlib.axis_2">
    <g id="ytick_1">
     <g id="line2d_7">
      <defs>
       <path id="m7c2cfd5fc7" d="M 0 0 
L -3.5 0 
" style="stroke: #000000; stroke-width: 0.8"/>
      </defs>
      <g>
       <use xlink:href="#m7c2cfd5fc7" x="47.203125" y="192.836587" style="stroke: #000000; stroke-width: 0.8"/>
      </g>
     </g>
     <g id="text_8">
      <text style="font: 10px 'Arial', sans-serif; text-anchor: end" x="40.203125" y="196.415494" transform="rotate(-0 40.203125 196.415494)">−0.2</text>
     </g>
    </g>
    <g id="ytick_2">
     <g id="line2d_8">
      <g>
       <use xlink:href="#m7c2cfd5fc7" x="47.203125" y="166.528595" style="stroke: #000000; stroke-width: 0.8"/>
      </g>
     </g>
     <g id="text_9">
      <text style="font: 10px 'Arial', sans-serif; text-anchor: end" x="40.203125" y="170.107501" transform="rotate(-0 40.203125 170.107501)">0.0</text>
     </g>
    </g>
    <g id="ytick_3">
     <g id="line2d_9">
      <g>
       <use xlink:href="#m7c2cfd5fc7" x="47.203125" y="140.220602" style="stroke: #000000; stroke-width: 0.8"/>
      </g>
     </g>
     <g id="text_10">
      <text style="font: 10px 'Arial', sans-serif; text-anchor: end" x="40.203125" y="143.799508" transform="rotate(-0 40.203125 143.799508)">0.2</text>
     </g>
    </g>
    <g id="ytick_4">
     <g id="line2d_10">
      <g>
       <use xlink:href="#m7c2cfd5fc7" x="47.203125" y="113.91261" style="stroke: #000000; stroke-width: 0.8"/>
      </g>
     </g>
     <g id="text_11">
      <text style="font: 10px 'Arial', sans-serif; text-anchor: end" x="40.203125" y="117.491516" transform="rotate(-0 40.203125 117.491516)">0.4</text>
     </g>
    </g>
    <g id="ytick_5">
     <g id="line2d_11">
      <g>
       <use xlink:href="#m7c2cfd5fc7" x="47.203125" y="87.604617" style="stroke: #000000; stroke-width: 0.8"/>
      </g>
     </g>
     <g id="text_12">
      <text style="font: 10px 'Arial', sans-serif; text-anchor: end" x="40.203125" y="91.183523" transform="rotate(-0 40.203125 91.183523)">0.6</text>
     </g>
    </g>
    <g id="ytick_6">
     <g id="line2d_12">
      <g>
       <use xlink:href="#m7c2cfd5fc7" x="47.203125" y="61.296625" style="stroke: #000000; stroke-width: 0.8"/>
      </g>
     </g>
     <g id="text_13">
      <text style="font: 10px 'Arial', sans-serif; text-anchor: end" x="40.203125" y="64.875531" transform="rotate(-0 40.203125 64.875531)">0.8</text>
     </g>
    </g>
    <g id="text_14">
     <text style="font: 10px 'Arial', sans-serif; text-anchor: middle" x="14.357813" y="127.08" transform="rotate(-90 14.357813 127.08)">Max Activity</text>
    </g>
   </g>
   <g id="LineCollection_1">
    <path clip-path="url(#pef046e115b)" style="fill: none; stroke: #000000; stroke-width: 1.5"/>
    <path clip-path="url(#pef046e115b)" style="fill: none; stroke: #000000; stroke-width: 1.5"/>
    <path clip-path="url(#pef046e115b)" style="fill: none; stroke: #000000; stroke-width: 1.5"/>
    <path d="M 152.884943 144.84905 
L 152.884943 103.942813 
" clip-path="url(#pef046e115b)" style="fill: none; stroke: #000000; stroke-width: 1.5"/>
    <path d="M 178.660996 112.652941 
L 178.660996 57.961064 
" clip-path="url(#pef046e115b)" style="fill: none; stroke: #000000; stroke-width: 1.5"/>
    <path d="M 204.43705 75.432299 
L 204.43705 51.48 
" clip-path="url(#pef046e115b)" style="fill: none; stroke: #000000; stroke-width: 1.5"/>
   </g>
   <g id="LineCollection_2">
    <path d="M 60.091152 202.68 
L 60.091152 191.145012 
" clip-path="url(#pef046e115b)" style="fill: none; stroke: #000000; stroke-width: 1.5"/>
    <path d="M 85.867205 190.016775 
L 85.867205 180.424132 
" clip-path="url(#pef046e115b)" style="fill: none; stroke: #000000; stroke-width: 1.5"/>
    <path d="M 111.643258 175.963619 
L 111.643258 163.024671 
" clip-path="url(#pef046e115b)" style="fill: none; stroke: #000000; stroke-width: 1.5"/>
    <path clip-path="url(#pef046e115b)" style="fill: none; stroke: #000000; stroke-width: 1.5"/>
    <path clip-path="url(#pef046e115b)" style="fill: none; stroke: #000000; stroke-width: 1.5"/>
    <path clip-path="url(#pef046e115b)" style="fill: none; stroke: #000000; stroke-width: 1.5"/>
   </g>
   <g id="line2d_13">
    <path d="M 47.203125 166.528595 
L 217.325076 166.528595 
" clip-path="url(#pef046e115b)" style="fill: none; stroke-dasharray: 5.55,2.4; stroke-dashoffset: 0; stroke: #808080; stroke-width: 1.5"/>
   </g>
   <g id="legend_1">
    <g id="patch_15">
     <path d="M 138.312576 205.24 
L 210.325076 205.24 
Q 212.325076 205.24 212.325076 203.24 
L 212.325076 175.949375 
Q 212.325076 173.949375 210.325076 173.949375 
L 138.312576 173.949375 
Q 136.312576 173.949375 136.312576 175.949375 
L 136.312576 203.24 
Q 136.312576 205.24 138.312576 205.24 
z
" style="fill: #ffffff; opacity: 0.8; stroke: #cccccc; stroke-linejoin: miter"/>
    </g>
    <g id="patch_16">
     <path d="M 140.312576 185.107188 
L 160.312576 185.107188 
L 160.312576 178.107188 
L 140.312576 178.107188 
z
" style="fill: #ff00ff"/>
    </g>
    <g id="text_15">
     <text style="font: 10px 'Arial', sans-serif; text-anchor: start" x="168.312576" y="185.107188" transform="rotate(-0 168.312576 185.107188)">Pref</text>
    </g>
    <g id="patch_17">
     <path d="M 140.312576 199.2525 
L 160.312576 199.2525 
L 160.312576 192.2525 
L 140.312576 192.2525 
z
" style="fill: #00ffff"/>
    </g>
    <g id="text_16">
     <text style="font: 10px 'Arial', sans-serif; text-anchor: start" x="168.312576" y="199.2525" transform="rotate(-0 168.312576 199.2525)">Non-Pref</text>
    </g>
   </g>
  </g>
  <g id="axes_2">
   <g id="patch_18">
    <path d="M 251.349466 210.24 
L 421.471418 210.24 
L 421.471418 43.92 
L 251.349466 43.92 
z
" style="fill: #ffffff"/>
   </g>
   <g id="PolyCollection_1">
    <defs>
     <path id="m9dfc4b9c3b" d="M 259.082282 -154.469405 
L 259.082282 -133.840114 
L 263.915292 -125.039 
L 268.748302 -121.196638 
L 273.581312 -124.152849 
L 278.414322 -132.709437 
L 283.247332 -143.610691 
L 288.080342 -147.235505 
L 292.913352 -140.775068 
L 297.746362 -142.469615 
L 302.579372 -147.59715 
L 307.412382 -145.224935 
L 312.245392 -148.532952 
L 317.078402 -144.746151 
L 321.911412 -141.213202 
L 326.744422 -141.513819 
L 331.577432 -141.358235 
L 336.410442 -146.171761 
L 341.243452 -145.12486 
L 346.076462 -149.79594 
L 350.909472 -141.159334 
L 355.742482 -151.280992 
L 360.575492 -150.564843 
L 365.408502 -145.131627 
L 370.241512 -148.302646 
L 375.074522 -144.577389 
L 379.907532 -137.999069 
L 384.740542 -134.770521 
L 389.573552 -140.432326 
L 394.406562 -149.977241 
L 399.239572 -151.11318 
L 404.072582 -152.723217 
L 408.905592 -161.137356 
L 413.738602 -159.06832 
L 413.738602 -170.324303 
L 413.738602 -170.324303 
L 408.905592 -173.952319 
L 404.072582 -173.106405 
L 399.239572 -156.194617 
L 394.406562 -152.966026 
L 389.573552 -146.130562 
L 384.740542 -140.384372 
L 379.907532 -150.942447 
L 375.074522 -157.630524 
L 370.241512 -156.235655 
L 365.408502 -157.676689 
L 360.575492 -161.139773 
L 355.742482 -158.564299 
L 350.909472 -151.205555 
L 346.076462 -156.322536 
L 341.243452 -158.92818 
L 336.410442 -163.315989 
L 331.577432 -158.425332 
L 326.744422 -158.80298 
L 321.911412 -158.983496 
L 317.078402 -153.768587 
L 312.245392 -152.81239 
L 307.412382 -164.164771 
L 302.579372 -165.816725 
L 297.746362 -158.461716 
L 292.913352 -156.727666 
L 288.080342 -162.689784 
L 283.247332 -167.090245 
L 278.414322 -155.797749 
L 273.581312 -137.195906 
L 268.748302 -135.403487 
L 263.915292 -145.041514 
L 259.082282 -154.469405 
z
" style="stroke: #00ffff; stroke-opacity: 0.1"/>
    </defs>
    <g clip-path="url(#p23d208dbe5)">
     <use xlink:href="#m9dfc4b9c3b" x="0" y="323.436915" style="fill: #00ffff; fill-opacity: 0.1; stroke: #00ffff; stroke-opacity: 0.1"/>
    </g>
   </g>
   <g id="matplotlib.axis_3">
    <g id="xtick_7">
     <g id="line2d_14">
      <g>
       <use xlink:href="#m6ab8bf5882" x="268.748302" y="210.24" style="stroke: #000000; stroke-width: 0.8"/>
      </g>
     </g>
     <g id="text_17">
      <text style="font: 10px 'Arial', sans-serif" transform="translate(237.78255 251.86503) rotate(-45)">Sampling</text>
     </g>
    </g>
    <g id="xtick_8">
     <g id="line2d_15">
      <g>
       <use xlink:href="#m6ab8bf5882" x="399.239572" y="210.24" style="stroke: #000000; stroke-width: 0.8"/>
      </g>
     </g>
     <g id="text_18">
      <text style="font: 10px 'Arial', sans-serif" transform="translate(318.449307 301.686227) rotate(-45)">Movement to Lateral Port</text>
     </g>
    </g>
    <g id="text_19">
     <text style="font: 10px 'Arial', sans-serif; text-anchor: middle" x="336.410442" y="314.249415" transform="rotate(-0 336.410442 314.249415)">Normalized Time</text>
    </g>
   </g>
   <g id="matplotlib.axis_4">
    <g id="ytick_7">
     <g id="line2d_16">
      <g>
       <use xlink:href="#m7c2cfd5fc7" x="251.349466" y="188.834233" style="stroke: #000000; stroke-width: 0.8"/>
      </g>
     </g>
     <g id="text_20">
      <text style="font: 10px 'Arial', sans-serif; text-anchor: end" x="244.349466" y="192.413139" transform="rotate(-0 244.349466 192.413139)">−0.6</text>
     </g>
    </g>
    <g id="ytick_8">
     <g id="line2d_17">
      <g>
       <use xlink:href="#m7c2cfd5fc7" x="251.349466" y="166.637171" style="stroke: #000000; stroke-width: 0.8"/>
      </g>
     </g>
     <g id="text_21">
      <text style="font: 10px 'Arial', sans-serif; text-anchor: end" x="244.349466" y="170.216077" transform="rotate(-0 244.349466 170.216077)">−0.4</text>
     </g>
    </g>
    <g id="ytick_9">
     <g id="line2d_18">
      <g>
       <use xlink:href="#m7c2cfd5fc7" x="251.349466" y="144.440109" style="stroke: #000000; stroke-width: 0.8"/>
      </g>
     </g>
     <g id="text_22">
      <text style="font: 10px 'Arial', sans-serif; text-anchor: end" x="244.349466" y="148.019016" transform="rotate(-0 244.349466 148.019016)">−0.2</text>
     </g>
    </g>
    <g id="ytick_10">
     <g id="line2d_19">
      <g>
       <use xlink:href="#m7c2cfd5fc7" x="251.349466" y="122.243048" style="stroke: #000000; stroke-width: 0.8"/>
      </g>
     </g>
     <g id="text_23">
      <text style="font: 10px 'Arial', sans-serif; text-anchor: end" x="244.349466" y="125.821954" transform="rotate(-0 244.349466 125.821954)">0.0</text>
     </g>
    </g>
    <g id="ytick_11">
     <g id="line2d_20">
      <g>
       <use xlink:href="#m7c2cfd5fc7" x="251.349466" y="100.045986" style="stroke: #000000; stroke-width: 0.8"/>
      </g>
     </g>
     <g id="text_24">
      <text style="font: 10px 'Arial', sans-serif; text-anchor: end" x="244.349466" y="103.624892" transform="rotate(-0 244.349466 103.624892)">0.2</text>
     </g>
    </g>
    <g id="ytick_12">
     <g id="line2d_21">
      <g>
       <use xlink:href="#m7c2cfd5fc7" x="251.349466" y="77.848924" style="stroke: #000000; stroke-width: 0.8"/>
      </g>
     </g>
     <g id="text_25">
      <text style="font: 10px 'Arial', sans-serif; text-anchor: end" x="244.349466" y="81.427831" transform="rotate(-0 244.349466 81.427831)">0.4</text>
     </g>
    </g>
    <g id="ytick_13">
     <g id="line2d_22">
      <g>
       <use xlink:href="#m7c2cfd5fc7" x="251.349466" y="55.651863" style="stroke: #000000; stroke-width: 0.8"/>
      </g>
     </g>
     <g id="text_26">
      <text style="font: 10px 'Arial', sans-serif; text-anchor: end" x="244.349466" y="59.230769" transform="rotate(-0 244.349466 59.230769)">0.6</text>
     </g>
    </g>
    <g id="text_27">
     <text style="font: 10px 'Arial', sans-serif; text-anchor: middle" x="218.504154" y="127.08" transform="rotate(-90 218.504154 127.08)">Mean Activity</text>
    </g>
   </g>
   <g id="line2d_23">
    <path d="M 259.082282 179.282153 
L 263.915292 188.396657 
L 268.748302 195.136852 
L 273.581312 192.762537 
L 278.414322 179.183322 
L 283.247332 168.086445 
L 288.080342 168.47427 
L 292.913352 174.685547 
L 297.746362 172.971247 
L 302.579372 166.729977 
L 307.412382 168.742062 
L 312.245392 172.764243 
L 317.078402 174.179544 
L 321.911412 173.338565 
L 326.744422 173.278515 
L 331.577432 173.545129 
L 336.410442 168.693039 
L 341.243452 171.410395 
L 346.076462 170.377676 
L 350.909472 177.25447 
L 355.742482 168.514269 
L 360.575492 167.584606 
L 365.408502 172.032757 
L 370.241512 171.167764 
L 375.074522 172.332956 
L 379.907532 178.966156 
L 384.740542 185.859468 
L 389.573552 180.155471 
L 394.406562 171.965281 
L 399.239572 169.783016 
L 404.072582 160.522104 
L 408.905592 155.892077 
L 413.738602 158.740603 
" clip-path="url(#p23d208dbe5)" style="fill: none; stroke: #00ffff; stroke-width: 1.5; stroke-linecap: square"/>
   </g>
   <g id="line2d_24">
    <path d="M 268.748302 210.24 
L 268.748302 43.92 
" clip-path="url(#p23d208dbe5)" style="fill: none; stroke-dasharray: 5.55,2.4; stroke-dashoffset: 0; stroke: #808080; stroke-opacity: 0.7; stroke-width: 1.5"/>
   </g>
   <g id="line2d_25">
    <path d="M 399.239572 210.24 
L 399.239572 43.92 
" clip-path="url(#p23d208dbe5)" style="fill: none; stroke-dasharray: 5.55,2.4; stroke-dashoffset: 0; stroke: #808080; stroke-opacity: 0.7; stroke-width: 1.5"/>
   </g>
   <g id="text_28">
    <text style="font: 12px 'Arial', sans-serif; text-anchor: middle" x="336.410442" y="37.92" transform="rotate(-0 336.410442 37.92)">3 Incorrect Trials</text>
   </g>
   <g id="legend_2">
    <g id="patch_19">
     <path d="M 279.147794 207.345 
L 393.67309 207.345 
Q 394.83109 207.345 394.83109 206.187 
L 394.83109 198.575864 
Q 394.83109 197.417864 393.67309 197.417864 
L 279.147794 197.417864 
Q 277.989794 197.417864 277.989794 198.575864 
L 277.989794 206.187 
Q 277.989794 207.345 279.147794 207.345 
z
" style="fill: #ffffff; opacity: 0.8; stroke: #cccccc; stroke-linejoin: miter"/>
    </g>
    <g id="line2d_26">
     <path d="M 280.305794 201.851738 
L 286.095794 201.851738 
L 291.885794 201.851738 
" style="fill: none; stroke: #00ffff; stroke-width: 1.5; stroke-linecap: square"/>
    </g>
    <g id="text_29">
     <text style="font: 5.79px 'Arial', sans-serif; text-anchor: start" x="296.517794" y="203.878238" transform="rotate(-0 296.517794 203.878238)">NonPref - PrevCount=-3 - #Trials=3.0</text>
    </g>
   </g>
  </g>
  <g id="axes_3">
   <g id="patch_20">
    <path d="M 455.495808 210.24 
L 625.617759 210.24 
L 625.617759 43.92 
L 455.495808 43.92 
z
" style="fill: #ffffff"/>
   </g>
   <g id="PolyCollection_2">
    <defs>
     <path id="m1f0fd977a5" d="M 463.228624 -172.186516 
L 463.228624 -153.941407 
L 468.061634 -158.421485 
L 472.894644 -157.801945 
L 477.727654 -150.506999 
L 482.560664 -149.968601 
L 487.393674 -151.167564 
L 492.226684 -148.552738 
L 497.059694 -145.620467 
L 501.892704 -141.947884 
L 506.725714 -141.830464 
L 511.558724 -145.763508 
L 516.391734 -154.042878 
L 521.224744 -154.763975 
L 526.057754 -151.699902 
L 530.890764 -148.226124 
L 535.723774 -148.646714 
L 540.556784 -143.514333 
L 545.389794 -142.724593 
L 550.222803 -149.389857 
L 555.055813 -149.489787 
L 559.888823 -148.013335 
L 564.721833 -147.167553 
L 569.554843 -149.706436 
L 574.387853 -146.907607 
L 579.220863 -146.906367 
L 584.053873 -150.916516 
L 588.886883 -156.211863 
L 593.719893 -150.639572 
L 598.552903 -145.664736 
L 603.385913 -145.662685 
L 608.218923 -148.090806 
L 613.051933 -154.857042 
L 617.884943 -157.813578 
L 617.884943 -165.891289 
L 617.884943 -165.891289 
L 613.051933 -163.942558 
L 608.218923 -158.623121 
L 603.385913 -155.573737 
L 598.552903 -155.15365 
L 593.719893 -159.143708 
L 588.886883 -165.646545 
L 584.053873 -160.871155 
L 579.220863 -158.035483 
L 574.387853 -160.832992 
L 569.554843 -159.91266 
L 564.721833 -159.712125 
L 559.888823 -160.191568 
L 555.055813 -160.371519 
L 550.222803 -157.782638 
L 545.389794 -156.066625 
L 540.556784 -151.864479 
L 535.723774 -160.190308 
L 530.890764 -162.390252 
L 526.057754 -164.684103 
L 521.224744 -165.190672 
L 516.391734 -159.485342 
L 511.558724 -158.357728 
L 506.725714 -154.6138 
L 501.892704 -157.332428 
L 497.059694 -161.909238 
L 492.226684 -161.479724 
L 487.393674 -163.266077 
L 482.560664 -160.903216 
L 477.727654 -160.930752 
L 472.894644 -169.90409 
L 468.061634 -175.007028 
L 463.228624 -172.186516 
z
" style="stroke: #00ffff; stroke-opacity: 0.1"/>
    </defs>
    <g clip-path="url(#p1b8fed474e)">
     <use xlink:href="#m1f0fd977a5" x="0" y="323.436915" style="fill: #00ffff; fill-opacity: 0.1; stroke: #00ffff; stroke-opacity: 0.1"/>
    </g>
   </g>
   <g id="matplotlib.axis_5">
    <g id="xtick_9">
     <g id="line2d_27">
      <g>
       <use xlink:href="#m6ab8bf5882" x="472.894644" y="210.24" style="stroke: #000000; stroke-width: 0.8"/>
      </g>
     </g>
     <g id="text_30">
      <text style="font: 10px 'Arial', sans-serif" transform="translate(441.928891 251.86503) rotate(-45)">Sampling</text>
     </g>
    </g>
    <g id="xtick_10">
     <g id="line2d_28">
      <g>
       <use xlink:href="#m6ab8bf5882" x="603.385913" y="210.24" style="stroke: #000000; stroke-width: 0.8"/>
      </g>
     </g>
     <g id="text_31">
      <text style="font: 10px 'Arial', sans-serif" transform="translate(522.595649 301.686227) rotate(-45)">Movement to Lateral Port</text>
     </g>
    </g>
    <g id="text_32">
     <text style="font: 10px 'Arial', sans-serif; text-anchor: middle" x="540.556784" y="314.249415" transform="rotate(-0 540.556784 314.249415)">Normalized Time</text>
    </g>
   </g>
   <g id="matplotlib.axis_6">
    <g id="ytick_14">
     <g id="line2d_29">
      <g>
       <use xlink:href="#m7c2cfd5fc7" x="455.495808" y="188.834233" style="stroke: #000000; stroke-width: 0.8"/>
      </g>
     </g>
     <g id="text_33">
      <text style="font: 10px 'Arial', sans-serif; text-anchor: end" x="448.495808" y="192.413139" transform="rotate(-0 448.495808 192.413139)">−0.6</text>
     </g>
    </g>
    <g id="ytick_15">
     <g id="line2d_30">
      <g>
       <use xlink:href="#m7c2cfd5fc7" x="455.495808" y="166.637171" style="stroke: #000000; stroke-width: 0.8"/>
      </g>
     </g>
     <g id="text_34">
      <text style="font: 10px 'Arial', sans-serif; text-anchor: end" x="448.495808" y="170.216077" transform="rotate(-0 448.495808 170.216077)">−0.4</text>
     </g>
    </g>
    <g id="ytick_16">
     <g id="line2d_31">
      <g>
       <use xlink:href="#m7c2cfd5fc7" x="455.495808" y="144.440109" style="stroke: #000000; stroke-width: 0.8"/>
      </g>
     </g>
     <g id="text_35">
      <text style="font: 10px 'Arial', sans-serif; text-anchor: end" x="448.495808" y="148.019016" transform="rotate(-0 448.495808 148.019016)">−0.2</text>
     </g>
    </g>
    <g id="ytick_17">
     <g id="line2d_32">
      <g>
       <use xlink:href="#m7c2cfd5fc7" x="455.495808" y="122.243048" style="stroke: #000000; stroke-width: 0.8"/>
      </g>
     </g>
     <g id="text_36">
      <text style="font: 10px 'Arial', sans-serif; text-anchor: end" x="448.495808" y="125.821954" transform="rotate(-0 448.495808 125.821954)">0.0</text>
     </g>
    </g>
    <g id="ytick_18">
     <g id="line2d_33">
      <g>
       <use xlink:href="#m7c2cfd5fc7" x="455.495808" y="100.045986" style="stroke: #000000; stroke-width: 0.8"/>
      </g>
     </g>
     <g id="text_37">
      <text style="font: 10px 'Arial', sans-serif; text-anchor: end" x="448.495808" y="103.624892" transform="rotate(-0 448.495808 103.624892)">0.2</text>
     </g>
    </g>
    <g id="ytick_19">
     <g id="line2d_34">
      <g>
       <use xlink:href="#m7c2cfd5fc7" x="455.495808" y="77.848924" style="stroke: #000000; stroke-width: 0.8"/>
      </g>
     </g>
     <g id="text_38">
      <text style="font: 10px 'Arial', sans-serif; text-anchor: end" x="448.495808" y="81.427831" transform="rotate(-0 448.495808 81.427831)">0.4</text>
     </g>
    </g>
    <g id="ytick_20">
     <g id="line2d_35">
      <g>
       <use xlink:href="#m7c2cfd5fc7" x="455.495808" y="55.651863" style="stroke: #000000; stroke-width: 0.8"/>
      </g>
     </g>
     <g id="text_39">
      <text style="font: 10px 'Arial', sans-serif; text-anchor: end" x="448.495808" y="59.230769" transform="rotate(-0 448.495808 59.230769)">0.6</text>
     </g>
    </g>
    <g id="text_40">
     <text style="font: 10px 'Arial', sans-serif; text-anchor: middle" x="422.650495" y="127.08" transform="rotate(-90 422.650495 127.08)">Mean Activity</text>
    </g>
   </g>
   <g id="line2d_36">
    <path d="M 463.228624 160.372953 
L 468.061634 156.722657 
L 472.894644 159.583897 
L 477.727654 167.718039 
L 482.560664 168.001006 
L 487.393674 166.220094 
L 492.226684 168.420683 
L 497.059694 169.672062 
L 501.892704 173.79676 
L 506.725714 175.214783 
L 511.558724 171.376297 
L 516.391734 166.672805 
L 521.224744 163.459591 
L 526.057754 165.244912 
L 530.890764 168.128726 
L 535.723774 169.018403 
L 540.556784 175.747508 
L 545.389794 174.041305 
L 550.222803 169.850667 
L 555.055813 168.506261 
L 559.888823 169.334463 
L 564.721833 169.997075 
L 569.554843 168.627367 
L 574.387853 169.566615 
L 579.220863 170.96599 
L 584.053873 167.543079 
L 588.886883 162.507711 
L 593.719893 168.545275 
L 598.552903 173.027722 
L 603.385913 172.818703 
L 608.218923 170.079951 
L 613.051933 164.037115 
L 617.884943 161.584481 
" clip-path="url(#p1b8fed474e)" style="fill: none; stroke: #00ffff; stroke-width: 1.5; stroke-linecap: square"/>
   </g>
   <g id="line2d_37">
    <path d="M 472.894644 210.24 
L 472.894644 43.92 
" clip-path="url(#p1b8fed474e)" style="fill: none; stroke-dasharray: 5.55,2.4; stroke-dashoffset: 0; stroke: #808080; stroke-opacity: 0.7; stroke-width: 1.5"/>
   </g>
   <g id="line2d_38">
    <path d="M 603.385913 210.24 
L 603.385913 43.92 
" clip-path="url(#p1b8fed474e)" style="fill: none; stroke-dasharray: 5.55,2.4; stroke-dashoffset: 0; stroke: #808080; stroke-opacity: 0.7; stroke-width: 1.5"/>
   </g>
   <g id="text_41">
    <text style="font: 12px 'Arial', sans-serif; text-anchor: middle" x="540.556784" y="37.92" transform="rotate(-0 540.556784 37.92)">2 Incorrect Trials</text>
   </g>
   <g id="legend_3">
    <g id="patch_21">
     <path d="M 483.294136 207.345 
L 597.819431 207.345 
Q 598.977431 207.345 598.977431 206.187 
L 598.977431 198.575864 
Q 598.977431 197.417864 597.819431 197.417864 
L 483.294136 197.417864 
Q 482.136136 197.417864 482.136136 198.575864 
L 482.136136 206.187 
Q 482.136136 207.345 483.294136 207.345 
z
" style="fill: #ffffff; opacity: 0.8; stroke: #cccccc; stroke-linejoin: miter"/>
    </g>
    <g id="line2d_39">
     <path d="M 484.452136 201.851738 
L 490.242136 201.851738 
L 496.032136 201.851738 
" style="fill: none; stroke: #00ffff; stroke-width: 1.5; stroke-linecap: square"/>
    </g>
    <g id="text_42">
     <text style="font: 5.79px 'Arial', sans-serif; text-anchor: start" x="500.664136" y="203.878238" transform="rotate(-0 500.664136 203.878238)">NonPref - PrevCount=-2 - #Trials=8.0</text>
    </g>
   </g>
  </g>
  <g id="axes_4">
   <g id="patch_22">
    <path d="M 659.642149 210.24 
L 829.764101 210.24 
L 829.764101 43.92 
L 659.642149 43.92 
z
" style="fill: #ffffff"/>
   </g>
   <g id="PolyCollection_3">
    <defs>
     <path id="m2455e09f82" d="M 667.374965 -173.483771 
L 667.374965 -166.317905 
L 672.207975 -168.988488 
L 677.040985 -167.951995 
L 681.873995 -164.188655 
L 686.707005 -164.063065 
L 691.540015 -162.226006 
L 696.373025 -162.861753 
L 701.206035 -161.64577 
L 706.039045 -158.953433 
L 710.872055 -158.306089 
L 715.705065 -155.367891 
L 720.538075 -156.555293 
L 725.371085 -157.095437 
L 730.204095 -157.668291 
L 735.037105 -157.979362 
L 739.870115 -156.47893 
L 744.703125 -156.402637 
L 749.536135 -154.213826 
L 754.369145 -151.171546 
L 759.202155 -148.984125 
L 764.035165 -152.181032 
L 768.868175 -156.197739 
L 773.701185 -157.047414 
L 778.534195 -157.554366 
L 783.367205 -157.32192 
L 788.200215 -157.460212 
L 793.033225 -157.200484 
L 797.866235 -160.107783 
L 802.699245 -157.728956 
L 807.532255 -156.38242 
L 812.365265 -160.509725 
L 817.198275 -163.935767 
L 822.031285 -164.137896 
L 822.031285 -177.492921 
L 822.031285 -177.492921 
L 817.198275 -177.353239 
L 812.365265 -172.099083 
L 807.532255 -167.30989 
L 802.699245 -169.142163 
L 797.866235 -172.531772 
L 793.033225 -170.021348 
L 788.200215 -169.604456 
L 783.367205 -169.327773 
L 778.534195 -169.709632 
L 773.701185 -169.434232 
L 768.868175 -168.133637 
L 764.035165 -162.279017 
L 759.202155 -157.44368 
L 754.369145 -158.57478 
L 749.536135 -161.640418 
L 744.703125 -163.433188 
L 739.870115 -163.915631 
L 735.037105 -164.967695 
L 730.204095 -164.549304 
L 725.371085 -163.62372 
L 720.538075 -162.960261 
L 715.705065 -163.042164 
L 710.872055 -166.254922 
L 706.039045 -165.893839 
L 701.206035 -168.712619 
L 696.373025 -169.803747 
L 691.540015 -169.705963 
L 686.707005 -171.171451 
L 681.873995 -171.241149 
L 677.040985 -175.497316 
L 672.207975 -176.776694 
L 667.374965 -173.483771 
z
" style="stroke: #00ffff; stroke-opacity: 0.1"/>
    </defs>
    <g clip-path="url(#p5396d2cb1a)">
     <use xlink:href="#m2455e09f82" x="0" y="323.436915" style="fill: #00ffff; fill-opacity: 0.1; stroke: #00ffff; stroke-opacity: 0.1"/>
    </g>
   </g>
   <g id="matplotlib.axis_7">
    <g id="xtick_11">
     <g id="line2d_40">
      <g>
       <use xlink:href="#m6ab8bf5882" x="677.040985" y="210.24" style="stroke: #000000; stroke-width: 0.8"/>
      </g>
     </g>
     <g id="text_43">
      <text style="font: 10px 'Arial', sans-serif" transform="translate(646.075233 251.86503) rotate(-45)">Sampling</text>
     </g>
    </g>
    <g id="xtick_12">
     <g id="line2d_41">
      <g>
       <use xlink:href="#m6ab8bf5882" x="807.532255" y="210.24" style="stroke: #000000; stroke-width: 0.8"/>
      </g>
     </g>
     <g id="text_44">
      <text style="font: 10px 'Arial', sans-serif" transform="translate(726.74199 301.686227) rotate(-45)">Movement to Lateral Port</text>
     </g>
    </g>
    <g id="text_45">
     <text style="font: 10px 'Arial', sans-serif; text-anchor: middle" x="744.703125" y="314.249415" transform="rotate(-0 744.703125 314.249415)">Normalized Time</text>
    </g>
   </g>
   <g id="matplotlib.axis_8">
    <g id="ytick_21">
     <g id="line2d_42">
      <g>
       <use xlink:href="#m7c2cfd5fc7" x="659.642149" y="188.834233" style="stroke: #000000; stroke-width: 0.8"/>
      </g>
     </g>
     <g id="text_46">
      <text style="font: 10px 'Arial', sans-serif; text-anchor: end" x="652.642149" y="192.413139" transform="rotate(-0 652.642149 192.413139)">−0.6</text>
     </g>
    </g>
    <g id="ytick_22">
     <g id="line2d_43">
      <g>
       <use xlink:href="#m7c2cfd5fc7" x="659.642149" y="166.637171" style="stroke: #000000; stroke-width: 0.8"/>
      </g>
     </g>
     <g id="text_47">
      <text style="font: 10px 'Arial', sans-serif; text-anchor: end" x="652.642149" y="170.216077" transform="rotate(-0 652.642149 170.216077)">−0.4</text>
     </g>
    </g>
    <g id="ytick_23">
     <g id="line2d_44">
      <g>
       <use xlink:href="#m7c2cfd5fc7" x="659.642149" y="144.440109" style="stroke: #000000; stroke-width: 0.8"/>
      </g>
     </g>
     <g id="text_48">
      <text style="font: 10px 'Arial', sans-serif; text-anchor: end" x="652.642149" y="148.019016" transform="rotate(-0 652.642149 148.019016)">−0.2</text>
     </g>
    </g>
    <g id="ytick_24">
     <g id="line2d_45">
      <g>
       <use xlink:href="#m7c2cfd5fc7" x="659.642149" y="122.243048" style="stroke: #000000; stroke-width: 0.8"/>
      </g>
     </g>
     <g id="text_49">
      <text style="font: 10px 'Arial', sans-serif; text-anchor: end" x="652.642149" y="125.821954" transform="rotate(-0 652.642149 125.821954)">0.0</text>
     </g>
    </g>
    <g id="ytick_25">
     <g id="line2d_46">
      <g>
       <use xlink:href="#m7c2cfd5fc7" x="659.642149" y="100.045986" style="stroke: #000000; stroke-width: 0.8"/>
      </g>
     </g>
     <g id="text_50">
      <text style="font: 10px 'Arial', sans-serif; text-anchor: end" x="652.642149" y="103.624892" transform="rotate(-0 652.642149 103.624892)">0.2</text>
     </g>
    </g>
    <g id="ytick_26">
     <g id="line2d_47">
      <g>
       <use xlink:href="#m7c2cfd5fc7" x="659.642149" y="77.848924" style="stroke: #000000; stroke-width: 0.8"/>
      </g>
     </g>
     <g id="text_51">
      <text style="font: 10px 'Arial', sans-serif; text-anchor: end" x="652.642149" y="81.427831" transform="rotate(-0 652.642149 81.427831)">0.4</text>
     </g>
    </g>
    <g id="ytick_27">
     <g id="line2d_48">
      <g>
       <use xlink:href="#m7c2cfd5fc7" x="659.642149" y="55.651863" style="stroke: #000000; stroke-width: 0.8"/>
      </g>
     </g>
     <g id="text_52">
      <text style="font: 10px 'Arial', sans-serif; text-anchor: end" x="652.642149" y="59.230769" transform="rotate(-0 652.642149 59.230769)">0.6</text>
     </g>
    </g>
    <g id="text_53">
     <text style="font: 10px 'Arial', sans-serif; text-anchor: middle" x="626.796837" y="127.08" transform="rotate(-90 626.796837 127.08)">Mean Activity</text>
    </g>
   </g>
   <g id="line2d_49">
    <path d="M 667.374965 153.536076 
L 672.207975 150.554323 
L 677.040985 151.712258 
L 681.873995 155.722013 
L 686.707005 155.819657 
L 691.540015 157.47093 
L 696.373025 157.104165 
L 701.206035 158.25772 
L 706.039045 161.013279 
L 710.872055 161.156409 
L 715.705065 164.231887 
L 720.538075 163.679137 
L 725.371085 163.077336 
L 730.204095 162.328117 
L 735.037105 161.963386 
L 739.870115 163.239634 
L 744.703125 163.519002 
L 749.536135 165.509793 
L 754.369145 168.563751 
L 759.202155 170.223012 
L 764.035165 166.20689 
L 768.868175 161.271227 
L 773.701185 160.196091 
L 778.534195 159.804916 
L 783.367205 160.112068 
L 788.200215 159.904581 
L 793.033225 159.825998 
L 797.866235 157.117137 
L 802.699245 160.001355 
L 807.532255 161.590759 
L 812.365265 157.132511 
L 817.198275 152.792411 
L 822.031285 152.621506 
" clip-path="url(#p5396d2cb1a)" style="fill: none; stroke: #00ffff; stroke-width: 1.5; stroke-linecap: square"/>
   </g>
   <g id="line2d_50">
    <path d="M 677.040985 210.24 
L 677.040985 43.92 
" clip-path="url(#p5396d2cb1a)" style="fill: none; stroke-dasharray: 5.55,2.4; stroke-dashoffset: 0; stroke: #808080; stroke-opacity: 0.7; stroke-width: 1.5"/>
   </g>
   <g id="line2d_51">
    <path d="M 807.532255 210.24 
L 807.532255 43.92 
" clip-path="url(#p5396d2cb1a)" style="fill: none; stroke-dasharray: 5.55,2.4; stroke-dashoffset: 0; stroke: #808080; stroke-opacity: 0.7; stroke-width: 1.5"/>
   </g>
   <g id="text_54">
    <text style="font: 12px 'Arial', sans-serif; text-anchor: middle" x="744.703125" y="37.92" transform="rotate(-0 744.703125 37.92)">1 Incorrect Trials</text>
   </g>
   <g id="legend_4">
    <g id="patch_23">
     <path d="M 685.830586 207.345 
L 803.575664 207.345 
Q 804.733664 207.345 804.733664 206.187 
L 804.733664 198.575864 
Q 804.733664 197.417864 803.575664 197.417864 
L 685.830586 197.417864 
Q 684.672586 197.417864 684.672586 198.575864 
L 684.672586 206.187 
Q 684.672586 207.345 685.830586 207.345 
z
" style="fill: #ffffff; opacity: 0.8; stroke: #cccccc; stroke-linejoin: miter"/>
    </g>
    <g id="line2d_52">
     <path d="M 686.988586 201.851738 
L 692.778586 201.851738 
L 698.568586 201.851738 
" style="fill: none; stroke: #00ffff; stroke-width: 1.5; stroke-linecap: square"/>
    </g>
    <g id="text_55">
     <text style="font: 5.79px 'Arial', sans-serif; text-anchor: start" x="703.200586" y="203.878238" transform="rotate(-0 703.200586 203.878238)">NonPref - PrevCount=-1 - #Trials=33.0</text>
    </g>
   </g>
  </g>
  <g id="axes_5">
   <g id="patch_24">
    <path d="M 863.788491 210.24 
L 1033.910442 210.24 
L 1033.910442 43.92 
L 863.788491 43.92 
z
" style="fill: #ffffff"/>
   </g>
   <g id="PolyCollection_4">
    <defs>
     <path id="mdc7d9c69d5" d="M 871.521307 -233.878927 
L 871.521307 -201.040352 
L 876.354317 -200.88988 
L 881.187327 -201.437736 
L 886.020337 -198.037629 
L 890.853347 -191.767092 
L 895.686357 -186.241051 
L 900.519367 -183.084107 
L 905.352377 -183.108145 
L 910.185387 -177.923011 
L 915.018397 -174.484406 
L 919.851407 -171.580332 
L 924.684417 -170.774569 
L 929.517427 -169.615808 
L 934.350437 -164.168515 
L 939.183447 -163.964775 
L 944.016456 -168.259465 
L 948.849466 -167.220601 
L 953.682476 -160.308787 
L 958.515486 -157.15083 
L 963.348496 -160.575113 
L 968.181506 -159.694638 
L 973.014516 -161.017213 
L 977.847526 -162.839106 
L 982.680536 -159.674485 
L 987.513546 -157.250995 
L 992.346556 -161.083316 
L 997.179566 -161.112439 
L 1002.012576 -156.423359 
L 1006.845586 -159.932436 
L 1011.678596 -167.103068 
L 1016.511606 -172.490827 
L 1021.344616 -172.82411 
L 1026.177626 -173.167269 
L 1026.177626 -188.074119 
L 1026.177626 -188.074119 
L 1021.344616 -186.130551 
L 1016.511606 -185.719372 
L 1011.678596 -180.125017 
L 1006.845586 -173.19586 
L 1002.012576 -168.830645 
L 997.179566 -174.43673 
L 992.346556 -176.516908 
L 987.513546 -173.547288 
L 982.680536 -174.840584 
L 977.847526 -178.946719 
L 973.014516 -176.933025 
L 968.181506 -176.049462 
L 963.348496 -178.835457 
L 958.515486 -177.206901 
L 953.682476 -180.008131 
L 948.849466 -187.145421 
L 944.016456 -189.525296 
L 939.183447 -187.173756 
L 934.350437 -188.158569 
L 929.517427 -194.159671 
L 924.684417 -196.902382 
L 919.851407 -198.602989 
L 915.018397 -202.499881 
L 910.185387 -205.856242 
L 905.352377 -212.488317 
L 900.519367 -215.511563 
L 895.686357 -218.835308 
L 890.853347 -225.111391 
L 886.020337 -232.0322 
L 881.187327 -234.218057 
L 876.354317 -233.185309 
L 871.521307 -233.878927 
z
" style="stroke: #ff00ff; stroke-opacity: 0.1"/>
    </defs>
    <g clip-path="url(#p4c192baa53)">
     <use xlink:href="#mdc7d9c69d5" x="0" y="323.436915" style="fill: #ff00ff; fill-opacity: 0.1; stroke: #ff00ff; stroke-opacity: 0.1"/>
    </g>
   </g>
   <g id="matplotlib.axis_9">
    <g id="xtick_13">
     <g id="line2d_53">
      <g>
       <use xlink:href="#m6ab8bf5882" x="881.187327" y="210.24" style="stroke: #000000; stroke-width: 0.8"/>
      </g>
     </g>
     <g id="text_56">
      <text style="font: 10px 'Arial', sans-serif" transform="translate(850.221574 251.86503) rotate(-45)">Sampling</text>
     </g>
    </g>
    <g id="xtick_14">
     <g id="line2d_54">
      <g>
       <use xlink:href="#m6ab8bf5882" x="1011.678596" y="210.24" style="stroke: #000000; stroke-width: 0.8"/>
      </g>
     </g>
     <g id="text_57">
      <text style="font: 10px 'Arial', sans-serif" transform="translate(930.888332 301.686227) rotate(-45)">Movement to Lateral Port</text>
     </g>
    </g>
    <g id="text_58">
     <text style="font: 10px 'Arial', sans-serif; text-anchor: middle" x="948.849466" y="314.249415" transform="rotate(-0 948.849466 314.249415)">Normalized Time</text>
    </g>
   </g>
   <g id="matplotlib.axis_10">
    <g id="ytick_28">
     <g id="line2d_55">
      <g>
       <use xlink:href="#m7c2cfd5fc7" x="863.788491" y="188.834233" style="stroke: #000000; stroke-width: 0.8"/>
      </g>
     </g>
     <g id="text_59">
      <text style="font: 10px 'Arial', sans-serif; text-anchor: end" x="856.788491" y="192.413139" transform="rotate(-0 856.788491 192.413139)">−0.6</text>
     </g>
    </g>
    <g id="ytick_29">
     <g id="line2d_56">
      <g>
       <use xlink:href="#m7c2cfd5fc7" x="863.788491" y="166.637171" style="stroke: #000000; stroke-width: 0.8"/>
      </g>
     </g>
     <g id="text_60">
      <text style="font: 10px 'Arial', sans-serif; text-anchor: end" x="856.788491" y="170.216077" transform="rotate(-0 856.788491 170.216077)">−0.4</text>
     </g>
    </g>
    <g id="ytick_30">
     <g id="line2d_57">
      <g>
       <use xlink:href="#m7c2cfd5fc7" x="863.788491" y="144.440109" style="stroke: #000000; stroke-width: 0.8"/>
      </g>
     </g>
     <g id="text_61">
      <text style="font: 10px 'Arial', sans-serif; text-anchor: end" x="856.788491" y="148.019016" transform="rotate(-0 856.788491 148.019016)">−0.2</text>
     </g>
    </g>
    <g id="ytick_31">
     <g id="line2d_58">
      <g>
       <use xlink:href="#m7c2cfd5fc7" x="863.788491" y="122.243048" style="stroke: #000000; stroke-width: 0.8"/>
      </g>
     </g>
     <g id="text_62">
      <text style="font: 10px 'Arial', sans-serif; text-anchor: end" x="856.788491" y="125.821954" transform="rotate(-0 856.788491 125.821954)">0.0</text>
     </g>
    </g>
    <g id="ytick_32">
     <g id="line2d_59">
      <g>
       <use xlink:href="#m7c2cfd5fc7" x="863.788491" y="100.045986" style="stroke: #000000; stroke-width: 0.8"/>
      </g>
     </g>
     <g id="text_63">
      <text style="font: 10px 'Arial', sans-serif; text-anchor: end" x="856.788491" y="103.624892" transform="rotate(-0 856.788491 103.624892)">0.2</text>
     </g>
    </g>
    <g id="ytick_33">
     <g id="line2d_60">
      <g>
       <use xlink:href="#m7c2cfd5fc7" x="863.788491" y="77.848924" style="stroke: #000000; stroke-width: 0.8"/>
      </g>
     </g>
     <g id="text_64">
      <text style="font: 10px 'Arial', sans-serif; text-anchor: end" x="856.788491" y="81.427831" transform="rotate(-0 856.788491 81.427831)">0.4</text>
     </g>
    </g>
    <g id="ytick_34">
     <g id="line2d_61">
      <g>
       <use xlink:href="#m7c2cfd5fc7" x="863.788491" y="55.651863" style="stroke: #000000; stroke-width: 0.8"/>
      </g>
     </g>
     <g id="text_65">
      <text style="font: 10px 'Arial', sans-serif; text-anchor: end" x="856.788491" y="59.230769" transform="rotate(-0 856.788491 59.230769)">0.6</text>
     </g>
    </g>
    <g id="text_66">
     <text style="font: 10px 'Arial', sans-serif; text-anchor: middle" x="830.943178" y="127.08" transform="rotate(-90 830.943178 127.08)">Mean Activity</text>
    </g>
   </g>
   <g id="line2d_62">
    <path d="M 871.521307 105.977274 
L 876.354317 106.39932 
L 881.187327 105.609019 
L 886.020337 108.402 
L 890.853347 114.997673 
L 895.686357 120.898735 
L 900.519367 124.13908 
L 905.352377 125.638683 
L 910.185387 131.547288 
L 915.018397 134.944771 
L 919.851407 138.345254 
L 924.684417 139.598439 
L 929.517427 141.549176 
L 934.350437 147.273372 
L 939.183447 147.867649 
L 944.016456 144.544533 
L 948.849466 146.253903 
L 953.682476 153.278456 
L 958.515486 156.258049 
L 963.348496 153.731629 
L 968.181506 155.564864 
L 973.014516 154.461796 
L 977.847526 152.544002 
L 982.680536 156.17938 
L 987.513546 158.037773 
L 992.346556 154.636802 
L 997.179566 155.66233 
L 1002.012576 160.809913 
L 1006.845586 156.872767 
L 1011.678596 149.822871 
L 1016.511606 144.331815 
L 1021.344616 143.959584 
L 1026.177626 142.816221 
" clip-path="url(#p4c192baa53)" style="fill: none; stroke: #ff00ff; stroke-width: 1.5; stroke-linecap: square"/>
   </g>
   <g id="line2d_63">
    <path d="M 881.187327 210.24 
L 881.187327 43.92 
" clip-path="url(#p4c192baa53)" style="fill: none; stroke-dasharray: 5.55,2.4; stroke-dashoffset: 0; stroke: #808080; stroke-opacity: 0.7; stroke-width: 1.5"/>
   </g>
   <g id="line2d_64">
    <path d="M 1011.678596 210.24 
L 1011.678596 43.92 
" clip-path="url(#p4c192baa53)" style="fill: none; stroke-dasharray: 5.55,2.4; stroke-dashoffset: 0; stroke: #808080; stroke-opacity: 0.7; stroke-width: 1.5"/>
   </g>
   <g id="text_67">
    <text style="font: 12px 'Arial', sans-serif; text-anchor: middle" x="948.849466" y="37.92" transform="rotate(-0 948.849466 37.92)">1 Correct Trials</text>
   </g>
   <g id="legend_5">
    <g id="patch_25">
     <path d="M 896.251388 207.345 
L 1001.447545 207.345 
Q 1002.605545 207.345 1002.605545 206.187 
L 1002.605545 198.575864 
Q 1002.605545 197.417864 1001.447545 197.417864 
L 896.251388 197.417864 
Q 895.093388 197.417864 895.093388 198.575864 
L 895.093388 206.187 
Q 895.093388 207.345 896.251388 207.345 
z
" style="fill: #ffffff; opacity: 0.8; stroke: #cccccc; stroke-linejoin: miter"/>
    </g>
    <g id="line2d_65">
     <path d="M 897.409388 201.851738 
L 903.199388 201.851738 
L 908.989388 201.851738 
" style="fill: none; stroke: #ff00ff; stroke-width: 1.5; stroke-linecap: square"/>
    </g>
    <g id="text_68">
     <text style="font: 5.79px 'Arial', sans-serif; text-anchor: start" x="913.621388" y="203.878238" transform="rotate(-0 913.621388 203.878238)">Pref - PrevCount=1 - #Trials=32.0</text>
    </g>
   </g>
  </g>
  <g id="axes_6">
   <g id="patch_26">
    <path d="M 1067.934832 210.24 
L 1238.056784 210.24 
L 1238.056784 43.92 
L 1067.934832 43.92 
z
" style="fill: #ffffff"/>
   </g>
   <g id="PolyCollection_5">
    <defs>
     <path id="m5a8ac8b5d1" d="M 1075.667648 -259.196773 
L 1075.667648 -216.928455 
L 1080.500658 -218.847842 
L 1085.333668 -217.207679 
L 1090.166678 -213.746749 
L 1094.999688 -209.115296 
L 1099.832698 -204.875039 
L 1104.665708 -201.222154 
L 1109.498718 -195.864018 
L 1114.331728 -191.225256 
L 1119.164738 -191.124758 
L 1123.997748 -187.533937 
L 1128.830758 -183.577022 
L 1133.663768 -179.069118 
L 1138.496778 -180.649308 
L 1143.329788 -184.458964 
L 1148.162798 -176.911931 
L 1152.995808 -174.283217 
L 1157.828818 -173.163743 
L 1162.661828 -169.671015 
L 1167.494838 -169.59616 
L 1172.327848 -172.764609 
L 1177.160858 -171.547365 
L 1181.993868 -169.832238 
L 1186.826878 -168.342652 
L 1191.659888 -167.012416 
L 1196.492898 -167.710857 
L 1201.325908 -171.26495 
L 1206.158918 -168.627147 
L 1210.991928 -167.934316 
L 1215.824938 -170.754095 
L 1220.657948 -170.653249 
L 1225.490958 -169.426718 
L 1230.323968 -173.032582 
L 1230.323968 -198.659892 
L 1230.323968 -198.659892 
L 1225.490958 -193.963666 
L 1220.657948 -192.920458 
L 1215.824938 -191.719758 
L 1210.991928 -189.364191 
L 1206.158918 -189.617734 
L 1201.325908 -192.085091 
L 1196.492898 -189.253711 
L 1191.659888 -188.092579 
L 1186.826878 -189.029574 
L 1181.993868 -191.04663 
L 1177.160858 -194.725983 
L 1172.327848 -197.403333 
L 1167.494838 -195.737638 
L 1162.661828 -197.938163 
L 1157.828818 -202.790066 
L 1152.995808 -205.295987 
L 1148.162798 -208.638089 
L 1143.329788 -216.31697 
L 1138.496778 -213.333002 
L 1133.663768 -212.16293 
L 1128.830758 -216.991624 
L 1123.997748 -224.489578 
L 1119.164738 -230.124729 
L 1114.331728 -232.309531 
L 1109.498718 -236.662617 
L 1104.665708 -243.114864 
L 1099.832698 -247.380933 
L 1094.999688 -251.428474 
L 1090.166678 -256.831957 
L 1085.333668 -260.629918 
L 1080.500658 -262.227353 
L 1075.667648 -259.196773 
z
" style="stroke: #ff00ff; stroke-opacity: 0.1"/>
    </defs>
    <g clip-path="url(#p74b4f1e47b)">
     <use xlink:href="#m5a8ac8b5d1" x="0" y="323.436915" style="fill: #ff00ff; fill-opacity: 0.1; stroke: #ff00ff; stroke-opacity: 0.1"/>
    </g>
   </g>
   <g id="matplotlib.axis_11">
    <g id="xtick_15">
     <g id="line2d_66">
      <g>
       <use xlink:href="#m6ab8bf5882" x="1085.333668" y="210.24" style="stroke: #000000; stroke-width: 0.8"/>
      </g>
     </g>
     <g id="text_69">
      <text style="font: 10px 'Arial', sans-serif" transform="translate(1054.367915 251.86503) rotate(-45)">Sampling</text>
     </g>
    </g>
    <g id="xtick_16">
     <g id="line2d_67">
      <g>
       <use xlink:href="#m6ab8bf5882" x="1215.824938" y="210.24" style="stroke: #000000; stroke-width: 0.8"/>
      </g>
     </g>
     <g id="text_70">
      <text style="font: 10px 'Arial', sans-serif" transform="translate(1135.034673 301.686227) rotate(-45)">Movement to Lateral Port</text>
     </g>
    </g>
    <g id="text_71">
     <text style="font: 10px 'Arial', sans-serif; text-anchor: middle" x="1152.995808" y="314.249415" transform="rotate(-0 1152.995808 314.249415)">Normalized Time</text>
    </g>
   </g>
   <g id="matplotlib.axis_12">
    <g id="ytick_35">
     <g id="line2d_68">
      <g>
       <use xlink:href="#m7c2cfd5fc7" x="1067.934832" y="188.834233" style="stroke: #000000; stroke-width: 0.8"/>
      </g>
     </g>
     <g id="text_72">
      <text style="font: 10px 'Arial', sans-serif; text-anchor: end" x="1060.934832" y="192.413139" transform="rotate(-0 1060.934832 192.413139)">−0.6</text>
     </g>
    </g>
    <g id="ytick_36">
     <g id="line2d_69">
      <g>
       <use xlink:href="#m7c2cfd5fc7" x="1067.934832" y="166.637171" style="stroke: #000000; stroke-width: 0.8"/>
      </g>
     </g>
     <g id="text_73">
      <text style="font: 10px 'Arial', sans-serif; text-anchor: end" x="1060.934832" y="170.216077" transform="rotate(-0 1060.934832 170.216077)">−0.4</text>
     </g>
    </g>
    <g id="ytick_37">
     <g id="line2d_70">
      <g>
       <use xlink:href="#m7c2cfd5fc7" x="1067.934832" y="144.440109" style="stroke: #000000; stroke-width: 0.8"/>
      </g>
     </g>
     <g id="text_74">
      <text style="font: 10px 'Arial', sans-serif; text-anchor: end" x="1060.934832" y="148.019016" transform="rotate(-0 1060.934832 148.019016)">−0.2</text>
     </g>
    </g>
    <g id="ytick_38">
     <g id="line2d_71">
      <g>
       <use xlink:href="#m7c2cfd5fc7" x="1067.934832" y="122.243048" style="stroke: #000000; stroke-width: 0.8"/>
      </g>
     </g>
     <g id="text_75">
      <text style="font: 10px 'Arial', sans-serif; text-anchor: end" x="1060.934832" y="125.821954" transform="rotate(-0 1060.934832 125.821954)">0.0</text>
     </g>
    </g>
    <g id="ytick_39">
     <g id="line2d_72">
      <g>
       <use xlink:href="#m7c2cfd5fc7" x="1067.934832" y="100.045986" style="stroke: #000000; stroke-width: 0.8"/>
      </g>
     </g>
     <g id="text_76">
      <text style="font: 10px 'Arial', sans-serif; text-anchor: end" x="1060.934832" y="103.624892" transform="rotate(-0 1060.934832 103.624892)">0.2</text>
     </g>
    </g>
    <g id="ytick_40">
     <g id="line2d_73">
      <g>
       <use xlink:href="#m7c2cfd5fc7" x="1067.934832" y="77.848924" style="stroke: #000000; stroke-width: 0.8"/>
      </g>
     </g>
     <g id="text_77">
      <text style="font: 10px 'Arial', sans-serif; text-anchor: end" x="1060.934832" y="81.427831" transform="rotate(-0 1060.934832 81.427831)">0.4</text>
     </g>
    </g>
    <g id="ytick_41">
     <g id="line2d_74">
      <g>
       <use xlink:href="#m7c2cfd5fc7" x="1067.934832" y="55.651863" style="stroke: #000000; stroke-width: 0.8"/>
      </g>
     </g>
     <g id="text_78">
      <text style="font: 10px 'Arial', sans-serif; text-anchor: end" x="1060.934832" y="59.230769" transform="rotate(-0 1060.934832 59.230769)">0.6</text>
     </g>
    </g>
    <g id="text_79">
     <text style="font: 10px 'Arial', sans-serif; text-anchor: middle" x="1035.08952" y="127.08" transform="rotate(-90 1035.08952 127.08)">Mean Activity</text>
    </g>
   </g>
   <g id="line2d_75">
    <path d="M 1075.667648 85.374302 
L 1080.500658 82.899315 
L 1085.333668 84.518114 
L 1090.166678 88.147562 
L 1094.999688 93.16503 
L 1099.832698 97.308929 
L 1104.665708 101.268406 
L 1109.498718 107.173597 
L 1114.331728 111.669521 
L 1119.164738 112.812171 
L 1123.997748 117.425157 
L 1128.830758 123.152591 
L 1133.663768 127.820891 
L 1138.496778 126.44576 
L 1143.329788 123.048947 
L 1148.162798 130.661905 
L 1152.995808 133.647313 
L 1157.828818 135.46001 
L 1162.661828 139.632325 
L 1167.494838 140.770016 
L 1172.327848 138.352945 
L 1177.160858 140.300241 
L 1181.993868 142.99748 
L 1186.826878 144.750803 
L 1191.659888 145.884417 
L 1196.492898 144.954632 
L 1201.325908 141.761894 
L 1206.158918 144.314475 
L 1210.991928 144.787661 
L 1215.824938 142.199988 
L 1220.657948 141.650061 
L 1225.490958 141.741722 
L 1230.323968 137.590677 
" clip-path="url(#p74b4f1e47b)" style="fill: none; stroke: #ff00ff; stroke-width: 1.5; stroke-linecap: square"/>
   </g>
   <g id="line2d_76">
    <path d="M 1085.333668 210.24 
L 1085.333668 43.92 
" clip-path="url(#p74b4f1e47b)" style="fill: none; stroke-dasharray: 5.55,2.4; stroke-dashoffset: 0; stroke: #808080; stroke-opacity: 0.7; stroke-width: 1.5"/>
   </g>
   <g id="line2d_77">
    <path d="M 1215.824938 210.24 
L 1215.824938 43.92 
" clip-path="url(#p74b4f1e47b)" style="fill: none; stroke-dasharray: 5.55,2.4; stroke-dashoffset: 0; stroke: #808080; stroke-opacity: 0.7; stroke-width: 1.5"/>
   </g>
   <g id="text_80">
    <text style="font: 12px 'Arial', sans-serif; text-anchor: middle" x="1152.995808" y="37.92" transform="rotate(-0 1152.995808 37.92)">2 Correct Trials</text>
   </g>
   <g id="legend_6">
    <g id="patch_27">
     <path d="M 1100.397729 207.345 
L 1205.593887 207.345 
Q 1206.751887 207.345 1206.751887 206.187 
L 1206.751887 198.575864 
Q 1206.751887 197.417864 1205.593887 197.417864 
L 1100.397729 197.417864 
Q 1099.239729 197.417864 1099.239729 198.575864 
L 1099.239729 206.187 
Q 1099.239729 207.345 1100.397729 207.345 
z
" style="fill: #ffffff; opacity: 0.8; stroke: #cccccc; stroke-linejoin: miter"/>
    </g>
    <g id="line2d_78">
     <path d="M 1101.555729 201.851738 
L 1107.345729 201.851738 
L 1113.135729 201.851738 
" style="fill: none; stroke: #ff00ff; stroke-width: 1.5; stroke-linecap: square"/>
    </g>
    <g id="text_81">
     <text style="font: 5.79px 'Arial', sans-serif; text-anchor: start" x="1117.767729" y="203.878238" transform="rotate(-0 1117.767729 203.878238)">Pref - PrevCount=2 - #Trials=28.0</text>
    </g>
   </g>
  </g>
  <g id="axes_7">
   <g id="patch_28">
    <path d="M 1272.081174 210.24 
L 1442.203125 210.24 
L 1442.203125 43.92 
L 1272.081174 43.92 
z
" style="fill: #ffffff"/>
   </g>
   <g id="PolyCollection_6">
    <defs>
     <path id="m4a78640b78" d="M 1279.81399 -272.396638 
L 1279.81399 -252.606036 
L 1284.647 -252.286173 
L 1289.48001 -251.955526 
L 1294.31302 -249.015314 
L 1299.14603 -244.827334 
L 1303.97904 -240.513758 
L 1308.81205 -235.115709 
L 1313.64506 -227.937849 
L 1318.47807 -224.601337 
L 1323.31108 -220.124727 
L 1328.14409 -214.80288 
L 1332.9771 -209.993759 
L 1337.810109 -205.98034 
L 1342.643119 -204.274426 
L 1347.476129 -202.007312 
L 1352.309139 -198.368571 
L 1357.142149 -194.763899 
L 1361.975159 -190.941055 
L 1366.808169 -190.960612 
L 1371.641179 -190.741293 
L 1376.474189 -188.876227 
L 1381.307199 -188.246585 
L 1386.140209 -186.43933 
L 1390.973219 -182.141161 
L 1395.806229 -180.291048 
L 1400.639239 -179.580178 
L 1405.472249 -179.432949 
L 1410.305259 -178.920933 
L 1415.138269 -178.081041 
L 1419.971279 -178.240964 
L 1424.804289 -177.757127 
L 1429.637299 -179.72487 
L 1434.470309 -183.089842 
L 1434.470309 -190.855324 
L 1434.470309 -190.855324 
L 1429.637299 -187.206802 
L 1424.804289 -185.090484 
L 1419.971279 -185.480712 
L 1415.138269 -185.317104 
L 1410.305259 -186.311085 
L 1405.472249 -187.293167 
L 1400.639239 -187.76144 
L 1395.806229 -188.805692 
L 1390.973219 -191.364975 
L 1386.140209 -196.385992 
L 1381.307199 -198.393393 
L 1376.474189 -199.342784 
L 1371.641179 -201.361961 
L 1366.808169 -201.719572 
L 1361.975159 -202.611681 
L 1357.142149 -207.318298 
L 1352.309139 -211.342476 
L 1347.476129 -215.336251 
L 1342.643119 -217.901694 
L 1337.810109 -220.304084 
L 1332.9771 -225.494755 
L 1328.14409 -231.07993 
L 1323.31108 -237.185131 
L 1318.47807 -242.005498 
L 1313.64506 -245.885181 
L 1308.81205 -254.201602 
L 1303.97904 -260.531285 
L 1299.14603 -265.604599 
L 1294.31302 -269.170074 
L 1289.48001 -271.279767 
L 1284.647 -271.611746 
L 1279.81399 -272.396638 
z
" style="stroke: #ff00ff; stroke-opacity: 0.1"/>
    </defs>
    <g clip-path="url(#p44d02bea79)">
     <use xlink:href="#m4a78640b78" x="0" y="323.436915" style="fill: #ff00ff; fill-opacity: 0.1; stroke: #ff00ff; stroke-opacity: 0.1"/>
    </g>
   </g>
   <g id="matplotlib.axis_13">
    <g id="xtick_17">
     <g id="line2d_79">
      <g>
       <use xlink:href="#m6ab8bf5882" x="1289.48001" y="210.24" style="stroke: #000000; stroke-width: 0.8"/>
      </g>
     </g>
     <g id="text_82">
      <text style="font: 10px 'Arial', sans-serif" transform="translate(1258.514257 251.86503) rotate(-45)">Sampling</text>
     </g>
    </g>
    <g id="xtick_18">
     <g id="line2d_80">
      <g>
       <use xlink:href="#m6ab8bf5882" x="1419.971279" y="210.24" style="stroke: #000000; stroke-width: 0.8"/>
      </g>
     </g>
     <g id="text_83">
      <text style="font: 10px 'Arial', sans-serif" transform="translate(1339.181015 301.686227) rotate(-45)">Movement to Lateral Port</text>
     </g>
    </g>
    <g id="text_84">
     <text style="font: 10px 'Arial', sans-serif; text-anchor: middle" x="1357.142149" y="314.249415" transform="rotate(-0 1357.142149 314.249415)">Normalized Time</text>
    </g>
   </g>
   <g id="matplotlib.axis_14">
    <g id="ytick_42">
     <g id="line2d_81">
      <g>
       <use xlink:href="#m7c2cfd5fc7" x="1272.081174" y="188.834233" style="stroke: #000000; stroke-width: 0.8"/>
      </g>
     </g>
     <g id="text_85">
      <text style="font: 10px 'Arial', sans-serif; text-anchor: end" x="1265.081174" y="192.413139" transform="rotate(-0 1265.081174 192.413139)">−0.6</text>
     </g>
    </g>
    <g id="ytick_43">
     <g id="line2d_82">
      <g>
       <use xlink:href="#m7c2cfd5fc7" x="1272.081174" y="166.637171" style="stroke: #000000; stroke-width: 0.8"/>
      </g>
     </g>
     <g id="text_86">
      <text style="font: 10px 'Arial', sans-serif; text-anchor: end" x="1265.081174" y="170.216077" transform="rotate(-0 1265.081174 170.216077)">−0.4</text>
     </g>
    </g>
    <g id="ytick_44">
     <g id="line2d_83">
      <g>
       <use xlink:href="#m7c2cfd5fc7" x="1272.081174" y="144.440109" style="stroke: #000000; stroke-width: 0.8"/>
      </g>
     </g>
     <g id="text_87">
      <text style="font: 10px 'Arial', sans-serif; text-anchor: end" x="1265.081174" y="148.019016" transform="rotate(-0 1265.081174 148.019016)">−0.2</text>
     </g>
    </g>
    <g id="ytick_45">
     <g id="line2d_84">
      <g>
       <use xlink:href="#m7c2cfd5fc7" x="1272.081174" y="122.243048" style="stroke: #000000; stroke-width: 0.8"/>
      </g>
     </g>
     <g id="text_88">
      <text style="font: 10px 'Arial', sans-serif; text-anchor: end" x="1265.081174" y="125.821954" transform="rotate(-0 1265.081174 125.821954)">0.0</text>
     </g>
    </g>
    <g id="ytick_46">
     <g id="line2d_85">
      <g>
       <use xlink:href="#m7c2cfd5fc7" x="1272.081174" y="100.045986" style="stroke: #000000; stroke-width: 0.8"/>
      </g>
     </g>
     <g id="text_89">
      <text style="font: 10px 'Arial', sans-serif; text-anchor: end" x="1265.081174" y="103.624892" transform="rotate(-0 1265.081174 103.624892)">0.2</text>
     </g>
    </g>
    <g id="ytick_47">
     <g id="line2d_86">
      <g>
       <use xlink:href="#m7c2cfd5fc7" x="1272.081174" y="77.848924" style="stroke: #000000; stroke-width: 0.8"/>
      </g>
     </g>
     <g id="text_90">
      <text style="font: 10px 'Arial', sans-serif; text-anchor: end" x="1265.081174" y="81.427831" transform="rotate(-0 1265.081174 81.427831)">0.4</text>
     </g>
    </g>
    <g id="ytick_48">
     <g id="line2d_87">
      <g>
       <use xlink:href="#m7c2cfd5fc7" x="1272.081174" y="55.651863" style="stroke: #000000; stroke-width: 0.8"/>
      </g>
     </g>
     <g id="text_91">
      <text style="font: 10px 'Arial', sans-serif; text-anchor: end" x="1265.081174" y="59.230769" transform="rotate(-0 1265.081174 59.230769)">0.6</text>
     </g>
    </g>
    <g id="text_92">
     <text style="font: 10px 'Arial', sans-serif; text-anchor: middle" x="1239.235861" y="127.08" transform="rotate(-90 1239.235861 127.08)">Mean Activity</text>
    </g>
   </g>
   <g id="line2d_88">
    <path d="M 1279.81399 60.935578 
L 1284.647 61.487957 
L 1289.48001 61.819268 
L 1294.31302 64.344219 
L 1299.14603 68.220948 
L 1303.97904 72.914391 
L 1308.81205 78.778259 
L 1313.64506 86.5254 
L 1318.47807 90.133497 
L 1323.31108 94.781985 
L 1328.14409 100.495509 
L 1332.9771 105.692657 
L 1337.810109 110.294702 
L 1342.643119 112.348855 
L 1347.476129 114.765133 
L 1352.309139 118.581391 
L 1357.142149 122.395816 
L 1361.975159 126.660547 
L 1366.808169 127.096822 
L 1371.641179 127.385288 
L 1376.474189 129.327409 
L 1381.307199 130.116925 
L 1386.140209 132.024254 
L 1390.973219 136.683847 
L 1395.806229 138.888544 
L 1400.639239 139.766105 
L 1405.472249 140.073856 
L 1410.305259 140.820905 
L 1415.138269 141.737842 
L 1419.971279 141.576076 
L 1424.804289 142.013109 
L 1429.637299 139.971079 
L 1434.470309 136.464332 
" clip-path="url(#p44d02bea79)" style="fill: none; stroke: #ff00ff; stroke-width: 1.5; stroke-linecap: square"/>
   </g>
   <g id="line2d_89">
    <path d="M 1289.48001 210.24 
L 1289.48001 43.92 
" clip-path="url(#p44d02bea79)" style="fill: none; stroke-dasharray: 5.55,2.4; stroke-dashoffset: 0; stroke: #808080; stroke-opacity: 0.7; stroke-width: 1.5"/>
   </g>
   <g id="line2d_90">
    <path d="M 1419.971279 210.24 
L 1419.971279 43.92 
" clip-path="url(#p44d02bea79)" style="fill: none; stroke-dasharray: 5.55,2.4; stroke-dashoffset: 0; stroke: #808080; stroke-opacity: 0.7; stroke-width: 1.5"/>
   </g>
   <g id="text_93">
    <text style="font: 12px 'Arial', sans-serif; text-anchor: middle" x="1357.142149" y="37.92" transform="rotate(-0 1357.142149 37.92)">3 Correct Trials</text>
   </g>
   <g id="legend_7">
    <g id="patch_29">
     <path d="M 1302.934179 207.345 
L 1411.35012 207.345 
Q 1412.50812 207.345 1412.50812 206.187 
L 1412.50812 198.575864 
Q 1412.50812 197.417864 1411.35012 197.417864 
L 1302.934179 197.417864 
Q 1301.776179 197.417864 1301.776179 198.575864 
L 1301.776179 206.187 
Q 1301.776179 207.345 1302.934179 207.345 
z
" style="fill: #ffffff; opacity: 0.8; stroke: #cccccc; stroke-linejoin: miter"/>
    </g>
    <g id="line2d_91">
     <path d="M 1304.092179 201.851738 
L 1309.882179 201.851738 
L 1315.672179 201.851738 
" style="fill: none; stroke: #ff00ff; stroke-width: 1.5; stroke-linecap: square"/>
    </g>
    <g id="text_94">
     <text style="font: 5.79px 'Arial', sans-serif; text-anchor: start" x="1320.304179" y="203.878238" transform="rotate(-0 1320.304179 203.878238)">Pref - PrevCount=3 - #Trials=149.0</text>
    </g>
   </g>
  </g>
  <g id="text_95">
   <text style="font: 12px 'Arial', sans-serif; text-anchor: middle" x="722.203125" y="15.935625" transform="rotate(-0 722.203125 15.935625)">Balance Change - ALM - GP4_85_s7_L70_D250_ALM_3 - PrevChoiceCorrect</text>
  </g>
 </g>
 <defs>
  <clipPath id="pef046e115b">
   <rect x="47.203125" y="43.92" width="170.121951" height="166.32"/>
  </clipPath>
  <clipPath id="p23d208dbe5">
   <rect x="251.349466" y="43.92" width="170.121951" height="166.32"/>
  </clipPath>
  <clipPath id="p1b8fed474e">
   <rect x="455.495808" y="43.92" width="170.121951" height="166.32"/>
  </clipPath>
  <clipPath id="p5396d2cb1a">
   <rect x="659.642149" y="43.92" width="170.121951" height="166.32"/>
  </clipPath>
  <clipPath id="p4c192baa53">
   <rect x="863.788491" y="43.92" width="170.121951" height="166.32"/>
  </clipPath>
  <clipPath id="p74b4f1e47b">
   <rect x="1067.934832" y="43.92" width="170.121951" height="166.32"/>
  </clipPath>
  <clipPath id="p44d02bea79">
   <rect x="1272.081174" y="43.92" width="170.121951" height="166.32"/>
  </clipPath>
 </defs>
</svg>
