<?xml version="1.0" encoding="utf-8" standalone="no"?>
<!DOCTYPE svg PUBLIC "-//W3C//DTD SVG 1.1//EN"
  "http://www.w3.org/Graphics/SVG/1.1/DTD/svg11.dtd">
<svg xmlns:xlink="http://www.w3.org/1999/xlink" width="1449.123438pt" height="323.436915pt" viewBox="0 0 1449.123438 323.436915" xmlns="http://www.w3.org/2000/svg" version="1.1">
 <metadata>
  <rdf:RDF xmlns:dc="http://purl.org/dc/elements/1.1/" xmlns:cc="http://creativecommons.org/ns#" xmlns:rdf="http://www.w3.org/1999/02/22-rdf-syntax-ns#">
   <cc:Work>
    <dc:type rdf:resource="http://purl.org/dc/dcmitype/StillImage"/>
    <dc:date>2025-12-27T14:02:24.118859</dc:date>
    <dc:format>image/svg+xml</dc:format>
    <dc:creator>
     <cc:Agent>
      <dc:title>Matplotlib v3.8.0, https://matplotlib.org/</dc:title>
     </cc:Agent>
    </dc:creator>
   </cc:Work>
  </rdf:RDF>
 </metadata>
 <defs>
  <style type="text/css">*{stroke-linejoin: round; stroke-linecap: butt}</style>
 </defs>
 <g id="figure_1">
  <g id="patch_1">
   <path d="M 0 323.436915 
L 1449.123438 323.436915 
L 1449.123438 0 
L 0 0 
z
" style="fill: #ffffff"/>
  </g>
  <g id="axes_1">
   <g id="patch_2">
    <path d="M 46.923438 210.24 
L 217.045389 210.24 
L 217.045389 43.92 
L 46.923438 43.92 
z
" style="fill: #ffffff"/>
   </g>
   <g id="patch_3">
    <path d="M 0 0 
z
" clip-path="url(#p968585e580)" style="fill: #ff00ff"/>
   </g>
   <g id="patch_4">
    <path d="M 0 0 
z
" clip-path="url(#p968585e580)" style="fill: #ff00ff"/>
   </g>
   <g id="patch_5">
    <path d="M 0 0 
z
" clip-path="url(#p968585e580)" style="fill: #ff00ff"/>
   </g>
   <g id="patch_6">
    <path d="M 147.450045 210.24 
L 157.760466 210.24 
L 157.760466 86.358693 
L 147.450045 86.358693 
z
" clip-path="url(#p968585e580)" style="fill: #ff00ff"/>
   </g>
   <g id="patch_7">
    <path d="M 173.226098 210.24 
L 183.53652 210.24 
L 183.53652 84.043781 
L 173.226098 84.043781 
z
" clip-path="url(#p968585e580)" style="fill: #ff00ff"/>
   </g>
   <g id="patch_8">
    <path d="M 199.002151 210.24 
L 209.312573 210.24 
L 209.312573 60.880133 
L 199.002151 60.880133 
z
" clip-path="url(#p968585e580)" style="fill: #ff00ff"/>
   </g>
   <g id="patch_9">
    <path d="M 54.656253 210.24 
L 64.966675 210.24 
L 64.966675 150.27906 
L 54.656253 150.27906 
z
" clip-path="url(#p968585e580)" style="fill: #00ffff"/>
   </g>
   <g id="patch_10">
    <path d="M 80.432307 210.24 
L 90.742728 210.24 
L 90.742728 137.095156 
L 80.432307 137.095156 
z
" clip-path="url(#p968585e580)" style="fill: #00ffff"/>
   </g>
   <g id="patch_11">
    <path d="M 106.20836 210.24 
L 116.518781 210.24 
L 116.518781 143.394611 
L 106.20836 143.394611 
z
" clip-path="url(#p968585e580)" style="fill: #00ffff"/>
   </g>
   <g id="patch_12">
    <path d="M 0 0 
z
" clip-path="url(#p968585e580)" style="fill: #00ffff"/>
   </g>
   <g id="patch_13">
    <path d="M 0 0 
z
" clip-path="url(#p968585e580)" style="fill: #00ffff"/>
   </g>
   <g id="patch_14">
    <path d="M 0 0 
z
" clip-path="url(#p968585e580)" style="fill: #00ffff"/>
   </g>
   <g id="matplotlib.axis_1">
    <g id="xtick_1">
     <g id="line2d_1">
      <defs>
       <path id="mfebaab630f" d="M 0 0 
L 0 3.5 
" style="stroke: #000000; stroke-width: 0.8"/>
      </defs>
      <g>
       <use xlink:href="#mfebaab630f" x="54.656253" y="210.24" style="stroke: #000000; stroke-width: 0.8"/>
      </g>
     </g>
     <g id="text_1">
      <text style="font: 10px 'Arial', sans-serif; text-anchor: middle" x="54.656253" y="224.397813" transform="rotate(-0 54.656253 224.397813)">−3</text>
     </g>
    </g>
    <g id="xtick_2">
     <g id="line2d_2">
      <g>
       <use xlink:href="#mfebaab630f" x="80.432307" y="210.24" style="stroke: #000000; stroke-width: 0.8"/>
      </g>
     </g>
     <g id="text_2">
      <text style="font: 10px 'Arial', sans-serif; text-anchor: middle" x="80.432307" y="224.397813" transform="rotate(-0 80.432307 224.397813)">−2</text>
     </g>
    </g>
    <g id="xtick_3">
     <g id="line2d_3">
      <g>
       <use xlink:href="#mfebaab630f" x="106.20836" y="210.24" style="stroke: #000000; stroke-width: 0.8"/>
      </g>
     </g>
     <g id="text_3">
      <text style="font: 10px 'Arial', sans-serif; text-anchor: middle" x="106.20836" y="224.397813" transform="rotate(-0 106.20836 224.397813)">−1</text>
     </g>
    </g>
    <g id="xtick_4">
     <g id="line2d_4">
      <g>
       <use xlink:href="#mfebaab630f" x="157.760466" y="210.24" style="stroke: #000000; stroke-width: 0.8"/>
      </g>
     </g>
     <g id="text_4">
      <text style="font: 10px 'Arial', sans-serif; text-anchor: middle" x="157.760466" y="224.397813" transform="rotate(-0 157.760466 224.397813)">1</text>
     </g>
    </g>
    <g id="xtick_5">
     <g id="line2d_5">
      <g>
       <use xlink:href="#mfebaab630f" x="183.53652" y="210.24" style="stroke: #000000; stroke-width: 0.8"/>
      </g>
     </g>
     <g id="text_5">
      <text style="font: 10px 'Arial', sans-serif; text-anchor: middle" x="183.53652" y="224.397813" transform="rotate(-0 183.53652 224.397813)">2</text>
     </g>
    </g>
    <g id="xtick_6">
     <g id="line2d_6">
      <g>
       <use xlink:href="#mfebaab630f" x="209.312573" y="210.24" style="stroke: #000000; stroke-width: 0.8"/>
      </g>
     </g>
     <g id="text_6">
      <text style="font: 10px 'Arial', sans-serif; text-anchor: middle" x="209.312573" y="224.397813" transform="rotate(-0 209.312573 224.397813)">3</text>
     </g>
    </g>
    <g id="text_7">
     <text style="font: 10px 'Arial', sans-serif; text-anchor: middle" x="131.984413" y="237.543125" transform="rotate(-0 131.984413 237.543125)">PrevOutcomeCount</text>
    </g>
   </g>
   <g id="matplotlib.axis_2">
    <g id="ytick_1">
     <g id="line2d_7">
      <defs>
       <path id="mdaf7d2e9ee" d="M 0 0 
L -3.5 0 
" style="stroke: #000000; stroke-width: 0.8"/>
      </defs>
      <g>
       <use xlink:href="#mdaf7d2e9ee" x="46.923438" y="210.24" style="stroke: #000000; stroke-width: 0.8"/>
      </g>
     </g>
     <g id="text_8">
      <text style="font: 10px 'Arial', sans-serif; text-anchor: end" x="39.923438" y="213.818906" transform="rotate(-0 39.923438 213.818906)">0.00</text>
     </g>
    </g>
    <g id="ytick_2">
     <g id="line2d_8">
      <g>
       <use xlink:href="#mdaf7d2e9ee" x="46.923438" y="185.76866" style="stroke: #000000; stroke-width: 0.8"/>
      </g>
     </g>
     <g id="text_9">
      <text style="font: 10px 'Arial', sans-serif; text-anchor: end" x="39.923438" y="189.347566" transform="rotate(-0 39.923438 189.347566)">0.25</text>
     </g>
    </g>
    <g id="ytick_3">
     <g id="line2d_9">
      <g>
       <use xlink:href="#mdaf7d2e9ee" x="46.923438" y="161.297319" style="stroke: #000000; stroke-width: 0.8"/>
      </g>
     </g>
     <g id="text_10">
      <text style="font: 10px 'Arial', sans-serif; text-anchor: end" x="39.923438" y="164.876225" transform="rotate(-0 39.923438 164.876225)">0.50</text>
     </g>
    </g>
    <g id="ytick_4">
     <g id="line2d_10">
      <g>
       <use xlink:href="#mdaf7d2e9ee" x="46.923438" y="136.825979" style="stroke: #000000; stroke-width: 0.8"/>
      </g>
     </g>
     <g id="text_11">
      <text style="font: 10px 'Arial', sans-serif; text-anchor: end" x="39.923438" y="140.404885" transform="rotate(-0 39.923438 140.404885)">0.75</text>
     </g>
    </g>
    <g id="ytick_5">
     <g id="line2d_11">
      <g>
       <use xlink:href="#mdaf7d2e9ee" x="46.923438" y="112.354638" style="stroke: #000000; stroke-width: 0.8"/>
      </g>
     </g>
     <g id="text_12">
      <text style="font: 10px 'Arial', sans-serif; text-anchor: end" x="39.923438" y="115.933545" transform="rotate(-0 39.923438 115.933545)">1.00</text>
     </g>
    </g>
    <g id="ytick_6">
     <g id="line2d_12">
      <g>
       <use xlink:href="#mdaf7d2e9ee" x="46.923438" y="87.883298" style="stroke: #000000; stroke-width: 0.8"/>
      </g>
     </g>
     <g id="text_13">
      <text style="font: 10px 'Arial', sans-serif; text-anchor: end" x="39.923438" y="91.462204" transform="rotate(-0 39.923438 91.462204)">1.25</text>
     </g>
    </g>
    <g id="ytick_7">
     <g id="line2d_13">
      <g>
       <use xlink:href="#mdaf7d2e9ee" x="46.923438" y="63.411958" style="stroke: #000000; stroke-width: 0.8"/>
      </g>
     </g>
     <g id="text_14">
      <text style="font: 10px 'Arial', sans-serif; text-anchor: end" x="39.923438" y="66.990864" transform="rotate(-0 39.923438 66.990864)">1.50</text>
     </g>
    </g>
    <g id="text_15">
     <text style="font: 10px 'Arial', sans-serif; text-anchor: middle" x="14.357813" y="127.08" transform="rotate(-90 14.357813 127.08)">Max Activity</text>
    </g>
   </g>
   <g id="LineCollection_1">
    <path clip-path="url(#p968585e580)" style="fill: none; stroke: #000000; stroke-width: 1.5"/>
    <path clip-path="url(#p968585e580)" style="fill: none; stroke: #000000; stroke-width: 1.5"/>
    <path clip-path="url(#p968585e580)" style="fill: none; stroke: #000000; stroke-width: 1.5"/>
    <path d="M 152.605256 101.227431 
L 152.605256 71.489956 
" clip-path="url(#p968585e580)" style="fill: none; stroke: #000000; stroke-width: 1.5"/>
    <path d="M 178.381309 104.837969 
L 178.381309 63.249594 
" clip-path="url(#p968585e580)" style="fill: none; stroke: #000000; stroke-width: 1.5"/>
    <path d="M 204.157362 69.920267 
L 204.157362 51.84 
" clip-path="url(#p968585e580)" style="fill: none; stroke: #000000; stroke-width: 1.5"/>
   </g>
   <g id="LineCollection_2">
    <path d="M 59.811464 182.030775 
L 59.811464 118.527344 
" clip-path="url(#p968585e580)" style="fill: none; stroke: #000000; stroke-width: 1.5"/>
    <path d="M 85.587517 159.402422 
L 85.587517 114.787889 
" clip-path="url(#p968585e580)" style="fill: none; stroke: #000000; stroke-width: 1.5"/>
    <path d="M 111.363571 154.44534 
L 111.363571 132.343881 
" clip-path="url(#p968585e580)" style="fill: none; stroke: #000000; stroke-width: 1.5"/>
    <path clip-path="url(#p968585e580)" style="fill: none; stroke: #000000; stroke-width: 1.5"/>
    <path clip-path="url(#p968585e580)" style="fill: none; stroke: #000000; stroke-width: 1.5"/>
    <path clip-path="url(#p968585e580)" style="fill: none; stroke: #000000; stroke-width: 1.5"/>
   </g>
   <g id="line2d_14">
    <path d="M 46.923438 210.24 
L 217.045389 210.24 
" clip-path="url(#p968585e580)" style="fill: none; stroke-dasharray: 5.55,2.4; stroke-dashoffset: 0; stroke: #808080; stroke-width: 1.5"/>
   </g>
   <g id="legend_1">
    <g id="patch_15">
     <path d="M 95.978163 80.210625 
L 167.990663 80.210625 
Q 169.990663 80.210625 169.990663 78.210625 
L 169.990663 50.92 
Q 169.990663 48.92 167.990663 48.92 
L 95.978163 48.92 
Q 93.978163 48.92 93.978163 50.92 
L 93.978163 78.210625 
Q 93.978163 80.210625 95.978163 80.210625 
z
" style="fill: #ffffff; opacity: 0.8; stroke: #cccccc; stroke-linejoin: miter"/>
    </g>
    <g id="patch_16">
     <path d="M 97.978163 60.077812 
L 117.978163 60.077812 
L 117.978163 53.077812 
L 97.978163 53.077812 
z
" style="fill: #ff00ff"/>
    </g>
    <g id="text_16">
     <text style="font: 10px 'Arial', sans-serif; text-anchor: start" x="125.978163" y="60.077812" transform="rotate(-0 125.978163 60.077812)">Pref</text>
    </g>
    <g id="patch_17">
     <path d="M 97.978163 74.223125 
L 117.978163 74.223125 
L 117.978163 67.223125 
L 97.978163 67.223125 
z
" style="fill: #00ffff"/>
    </g>
    <g id="text_17">
     <text style="font: 10px 'Arial', sans-serif; text-anchor: start" x="125.978163" y="74.223125" transform="rotate(-0 125.978163 74.223125)">Non-Pref</text>
    </g>
   </g>
  </g>
  <g id="axes_2">
   <g id="patch_18">
    <path d="M 251.069779 210.24 
L 421.19173 210.24 
L 421.19173 43.92 
L 251.069779 43.92 
z
" style="fill: #ffffff"/>
   </g>
   <g id="PolyCollection_1">
    <defs>
     <path id="mf14d7120ca" d="M 258.802595 -180.819294 
L 258.802595 -155.288729 
L 263.635605 -189.174624 
L 268.468615 -156.396159 
L 273.301625 -127.694082 
L 278.134635 -124.900262 
L 282.967645 -148.000465 
L 287.800655 -161.158933 
L 292.633665 -178.38926 
L 297.466675 -187.581208 
L 302.299685 -152.073579 
L 307.132695 -155.512502 
L 311.965705 -176.552872 
L 316.798715 -140.735257 
L 321.631725 -132.011533 
L 326.464735 -146.419457 
L 331.297745 -131.280795 
L 336.130755 -120.411992 
L 340.963765 -122.983393 
L 345.796775 -158.449295 
L 350.629785 -142.482951 
L 355.462794 -131.387623 
L 360.295804 -159.074163 
L 365.128814 -154.14558 
L 369.961824 -134.739358 
L 374.794834 -159.02967 
L 379.627844 -168.870737 
L 384.460854 -163.453833 
L 389.293864 -173.665378 
L 394.126874 -150.170339 
L 398.959884 -182.571914 
L 403.792894 -145.844471 
L 408.625904 -141.444647 
L 413.458914 -167.372422 
L 413.458914 -223.478191 
L 413.458914 -223.478191 
L 408.625904 -218.440393 
L 403.792894 -235.906978 
L 398.959884 -233.603373 
L 394.126874 -210.125364 
L 389.293864 -221.811337 
L 384.460854 -211.708862 
L 379.627844 -208.583373 
L 374.794834 -204.436093 
L 369.961824 -182.39044 
L 365.128814 -174.676571 
L 360.295804 -175.099504 
L 355.462794 -157.474375 
L 350.629785 -170.343533 
L 345.796775 -170.081278 
L 340.963765 -183.278037 
L 336.130755 -191.188 
L 331.297745 -193.155965 
L 326.464735 -189.200259 
L 321.631725 -177.303 
L 316.798715 -170.19483 
L 311.965705 -198.794865 
L 307.132695 -207.102128 
L 302.299685 -225.109679 
L 297.466675 -240.50648 
L 292.633665 -240.531445 
L 287.800655 -229.275009 
L 282.967645 -180.838354 
L 278.134635 -157.619409 
L 273.301625 -143.795557 
L 268.468615 -176.384436 
L 263.635605 -191.398411 
L 258.802595 -180.819294 
z
" style="stroke: #00ffff; stroke-opacity: 0.1"/>
    </defs>
    <g clip-path="url(#p01b660c83e)">
     <use xlink:href="#mf14d7120ca" x="0" y="323.436915" style="fill: #00ffff; fill-opacity: 0.1; stroke: #00ffff; stroke-opacity: 0.1"/>
    </g>
   </g>
   <g id="matplotlib.axis_3">
    <g id="xtick_7">
     <g id="line2d_15">
      <g>
       <use xlink:href="#mfebaab630f" x="268.468615" y="210.24" style="stroke: #000000; stroke-width: 0.8"/>
      </g>
     </g>
     <g id="text_18">
      <text style="font: 10px 'Arial', sans-serif" transform="translate(237.502862 251.86503) rotate(-45)">Sampling</text>
     </g>
    </g>
    <g id="xtick_8">
     <g id="line2d_16">
      <g>
       <use xlink:href="#mfebaab630f" x="398.959884" y="210.24" style="stroke: #000000; stroke-width: 0.8"/>
      </g>
     </g>
     <g id="text_19">
      <text style="font: 10px 'Arial', sans-serif" transform="translate(318.16962 301.686227) rotate(-45)">Movement to Lateral Port</text>
     </g>
    </g>
    <g id="text_20">
     <text style="font: 10px 'Arial', sans-serif; text-anchor: middle" x="336.130755" y="314.249415" transform="rotate(-0 336.130755 314.249415)">Normalized Time</text>
    </g>
   </g>
   <g id="matplotlib.axis_4">
    <g id="ytick_8">
     <g id="line2d_17">
      <g>
       <use xlink:href="#mdaf7d2e9ee" x="251.069779" y="195.537074" style="stroke: #000000; stroke-width: 0.8"/>
      </g>
     </g>
     <g id="text_21">
      <text style="font: 10px 'Arial', sans-serif; text-anchor: end" x="244.069779" y="199.115981" transform="rotate(-0 244.069779 199.115981)">−0.75</text>
     </g>
    </g>
    <g id="ytick_9">
     <g id="line2d_18">
      <g>
       <use xlink:href="#mdaf7d2e9ee" x="251.069779" y="173.982765" style="stroke: #000000; stroke-width: 0.8"/>
      </g>
     </g>
     <g id="text_22">
      <text style="font: 10px 'Arial', sans-serif; text-anchor: end" x="244.069779" y="177.561671" transform="rotate(-0 244.069779 177.561671)">−0.50</text>
     </g>
    </g>
    <g id="ytick_10">
     <g id="line2d_19">
      <g>
       <use xlink:href="#mdaf7d2e9ee" x="251.069779" y="152.428455" style="stroke: #000000; stroke-width: 0.8"/>
      </g>
     </g>
     <g id="text_23">
      <text style="font: 10px 'Arial', sans-serif; text-anchor: end" x="244.069779" y="156.007361" transform="rotate(-0 244.069779 156.007361)">−0.25</text>
     </g>
    </g>
    <g id="ytick_11">
     <g id="line2d_20">
      <g>
       <use xlink:href="#mdaf7d2e9ee" x="251.069779" y="130.874146" style="stroke: #000000; stroke-width: 0.8"/>
      </g>
     </g>
     <g id="text_24">
      <text style="font: 10px 'Arial', sans-serif; text-anchor: end" x="244.069779" y="134.453052" transform="rotate(-0 244.069779 134.453052)">0.00</text>
     </g>
    </g>
    <g id="ytick_12">
     <g id="line2d_21">
      <g>
       <use xlink:href="#mdaf7d2e9ee" x="251.069779" y="109.319836" style="stroke: #000000; stroke-width: 0.8"/>
      </g>
     </g>
     <g id="text_25">
      <text style="font: 10px 'Arial', sans-serif; text-anchor: end" x="244.069779" y="112.898742" transform="rotate(-0 244.069779 112.898742)">0.25</text>
     </g>
    </g>
    <g id="ytick_13">
     <g id="line2d_22">
      <g>
       <use xlink:href="#mdaf7d2e9ee" x="251.069779" y="87.765526" style="stroke: #000000; stroke-width: 0.8"/>
      </g>
     </g>
     <g id="text_26">
      <text style="font: 10px 'Arial', sans-serif; text-anchor: end" x="244.069779" y="91.344433" transform="rotate(-0 244.069779 91.344433)">0.50</text>
     </g>
    </g>
    <g id="ytick_14">
     <g id="line2d_23">
      <g>
       <use xlink:href="#mdaf7d2e9ee" x="251.069779" y="66.211217" style="stroke: #000000; stroke-width: 0.8"/>
      </g>
     </g>
     <g id="text_27">
      <text style="font: 10px 'Arial', sans-serif; text-anchor: end" x="244.069779" y="69.790123" transform="rotate(-0 244.069779 69.790123)">0.75</text>
     </g>
    </g>
    <g id="ytick_15">
     <g id="line2d_24">
      <g>
       <use xlink:href="#mdaf7d2e9ee" x="251.069779" y="44.656907" style="stroke: #000000; stroke-width: 0.8"/>
      </g>
     </g>
     <g id="text_28">
      <text style="font: 10px 'Arial', sans-serif; text-anchor: end" x="244.069779" y="48.235813" transform="rotate(-0 244.069779 48.235813)">1.00</text>
     </g>
    </g>
    <g id="text_29">
     <text style="font: 10px 'Arial', sans-serif; text-anchor: middle" x="212.663529" y="127.08" transform="rotate(-90 212.663529 127.08)">Mean Activity</text>
    </g>
   </g>
   <g id="line2d_25">
    <path d="M 258.802595 155.382903 
L 263.635605 133.150397 
L 268.468615 157.046617 
L 273.301625 187.692095 
L 278.134635 182.177079 
L 282.967645 159.017504 
L 287.800655 128.219942 
L 292.633665 113.97656 
L 297.466675 109.39307 
L 302.299685 134.845285 
L 307.132695 142.129599 
L 311.965705 135.763046 
L 316.798715 167.971871 
L 321.631725 168.779649 
L 326.464735 155.627057 
L 331.297745 161.218533 
L 336.130755 167.636917 
L 340.963765 170.3062 
L 345.796775 159.171628 
L 350.629785 167.023674 
L 355.462794 179.005917 
L 360.295804 156.350081 
L 365.128814 159.025839 
L 369.961824 164.872014 
L 374.794834 141.704032 
L 379.627844 134.70986 
L 384.460854 135.855567 
L 389.293864 125.698557 
L 394.126874 143.289064 
L 398.959884 115.349271 
L 403.792894 132.561192 
L 408.625904 143.494396 
L 413.458914 128.011609 
" clip-path="url(#p01b660c83e)" style="fill: none; stroke: #00ffff; stroke-width: 1.5; stroke-linecap: square"/>
   </g>
   <g id="line2d_26">
    <path d="M 268.468615 210.24 
L 268.468615 43.92 
" clip-path="url(#p01b660c83e)" style="fill: none; stroke-dasharray: 5.55,2.4; stroke-dashoffset: 0; stroke: #808080; stroke-opacity: 0.7; stroke-width: 1.5"/>
   </g>
   <g id="line2d_27">
    <path d="M 398.959884 210.24 
L 398.959884 43.92 
" clip-path="url(#p01b660c83e)" style="fill: none; stroke-dasharray: 5.55,2.4; stroke-dashoffset: 0; stroke: #808080; stroke-opacity: 0.7; stroke-width: 1.5"/>
   </g>
   <g id="text_30">
    <text style="font: 12px 'Arial', sans-serif; text-anchor: middle" x="336.130755" y="37.92" transform="rotate(-0 336.130755 37.92)">3 Incorrect Trials</text>
   </g>
   <g id="legend_2">
    <g id="patch_19">
     <path d="M 278.868107 207.345 
L 393.393402 207.345 
Q 394.551402 207.345 394.551402 206.187 
L 394.551402 198.575864 
Q 394.551402 197.417864 393.393402 197.417864 
L 278.868107 197.417864 
Q 277.710107 197.417864 277.710107 198.575864 
L 277.710107 206.187 
Q 277.710107 207.345 278.868107 207.345 
z
" style="fill: #ffffff; opacity: 0.8; stroke: #cccccc; stroke-linejoin: miter"/>
    </g>
    <g id="line2d_28">
     <path d="M 280.026107 201.851738 
L 285.816107 201.851738 
L 291.606107 201.851738 
" style="fill: none; stroke: #00ffff; stroke-width: 1.5; stroke-linecap: square"/>
    </g>
    <g id="text_31">
     <text style="font: 5.79px 'Arial', sans-serif; text-anchor: start" x="296.238107" y="203.878238" transform="rotate(-0 296.238107 203.878238)">NonPref - PrevCount=-3 - #Trials=3.0</text>
    </g>
   </g>
  </g>
  <g id="axes_3">
   <g id="patch_20">
    <path d="M 455.21612 210.24 
L 625.338072 210.24 
L 625.338072 43.92 
L 455.21612 43.92 
z
" style="fill: #ffffff"/>
   </g>
   <g id="PolyCollection_2">
    <defs>
     <path id="m253434c679" d="M 462.948936 -189.873952 
L 462.948936 -162.450724 
L 467.781946 -157.497508 
L 472.614956 -156.562833 
L 477.447966 -159.334435 
L 482.280976 -169.289055 
L 487.113986 -177.272149 
L 491.946996 -175.944342 
L 496.780006 -166.117065 
L 501.613016 -157.480359 
L 506.446026 -154.763171 
L 511.279036 -168.895519 
L 516.112046 -177.078437 
L 520.945056 -180.005358 
L 525.778066 -179.189932 
L 530.611076 -176.612009 
L 535.444086 -176.579385 
L 540.277096 -177.665216 
L 545.110106 -163.456511 
L 549.943116 -152.876579 
L 554.776126 -160.937072 
L 559.609136 -172.953221 
L 564.442146 -155.84196 
L 569.275156 -165.073673 
L 574.108166 -176.440135 
L 578.941176 -167.844368 
L 583.774186 -162.870524 
L 588.607196 -153.276982 
L 593.440206 -139.314029 
L 598.273216 -153.04482 
L 603.106226 -168.710414 
L 607.939236 -176.90074 
L 612.772246 -165.833344 
L 617.605256 -162.055677 
L 617.605256 -188.236454 
L 617.605256 -188.236454 
L 612.772246 -201.467443 
L 607.939236 -217.056983 
L 603.106226 -196.272166 
L 598.273216 -167.817651 
L 593.440206 -153.951356 
L 588.607196 -178.8067 
L 583.774186 -199.012235 
L 578.941176 -202.66514 
L 574.108166 -206.465437 
L 569.275156 -194.397064 
L 564.442146 -190.359382 
L 559.609136 -211.60888 
L 554.776126 -214.991733 
L 549.943116 -206.130899 
L 545.110106 -205.274984 
L 540.277096 -210.892209 
L 535.444086 -212.271657 
L 530.611076 -219.259313 
L 525.778066 -221.235613 
L 520.945056 -217.919664 
L 516.112046 -208.741597 
L 511.279036 -199.041632 
L 506.446026 -193.701583 
L 501.613016 -198.826662 
L 496.780006 -207.40749 
L 491.946996 -212.580238 
L 487.113986 -217.299865 
L 482.280976 -219.774988 
L 477.447966 -210.181936 
L 472.614956 -193.126689 
L 467.781946 -184.173253 
L 462.948936 -189.873952 
z
" style="stroke: #00ffff; stroke-opacity: 0.1"/>
    </defs>
    <g clip-path="url(#p78cf0407ba)">
     <use xlink:href="#m253434c679" x="0" y="323.436915" style="fill: #00ffff; fill-opacity: 0.1; stroke: #00ffff; stroke-opacity: 0.1"/>
    </g>
   </g>
   <g id="matplotlib.axis_5">
    <g id="xtick_9">
     <g id="line2d_29">
      <g>
       <use xlink:href="#mfebaab630f" x="472.614956" y="210.24" style="stroke: #000000; stroke-width: 0.8"/>
      </g>
     </g>
     <g id="text_32">
      <text style="font: 10px 'Arial', sans-serif" transform="translate(441.649204 251.86503) rotate(-45)">Sampling</text>
     </g>
    </g>
    <g id="xtick_10">
     <g id="line2d_30">
      <g>
       <use xlink:href="#mfebaab630f" x="603.106226" y="210.24" style="stroke: #000000; stroke-width: 0.8"/>
      </g>
     </g>
     <g id="text_33">
      <text style="font: 10px 'Arial', sans-serif" transform="translate(522.315961 301.686227) rotate(-45)">Movement to Lateral Port</text>
     </g>
    </g>
    <g id="text_34">
     <text style="font: 10px 'Arial', sans-serif; text-anchor: middle" x="540.277096" y="314.249415" transform="rotate(-0 540.277096 314.249415)">Normalized Time</text>
    </g>
   </g>
   <g id="matplotlib.axis_6">
    <g id="ytick_16">
     <g id="line2d_31">
      <g>
       <use xlink:href="#mdaf7d2e9ee" x="455.21612" y="195.537074" style="stroke: #000000; stroke-width: 0.8"/>
      </g>
     </g>
     <g id="text_35">
      <text style="font: 10px 'Arial', sans-serif; text-anchor: end" x="448.21612" y="199.115981" transform="rotate(-0 448.21612 199.115981)">−0.75</text>
     </g>
    </g>
    <g id="ytick_17">
     <g id="line2d_32">
      <g>
       <use xlink:href="#mdaf7d2e9ee" x="455.21612" y="173.982765" style="stroke: #000000; stroke-width: 0.8"/>
      </g>
     </g>
     <g id="text_36">
      <text style="font: 10px 'Arial', sans-serif; text-anchor: end" x="448.21612" y="177.561671" transform="rotate(-0 448.21612 177.561671)">−0.50</text>
     </g>
    </g>
    <g id="ytick_18">
     <g id="line2d_33">
      <g>
       <use xlink:href="#mdaf7d2e9ee" x="455.21612" y="152.428455" style="stroke: #000000; stroke-width: 0.8"/>
      </g>
     </g>
     <g id="text_37">
      <text style="font: 10px 'Arial', sans-serif; text-anchor: end" x="448.21612" y="156.007361" transform="rotate(-0 448.21612 156.007361)">−0.25</text>
     </g>
    </g>
    <g id="ytick_19">
     <g id="line2d_34">
      <g>
       <use xlink:href="#mdaf7d2e9ee" x="455.21612" y="130.874146" style="stroke: #000000; stroke-width: 0.8"/>
      </g>
     </g>
     <g id="text_38">
      <text style="font: 10px 'Arial', sans-serif; text-anchor: end" x="448.21612" y="134.453052" transform="rotate(-0 448.21612 134.453052)">0.00</text>
     </g>
    </g>
    <g id="ytick_20">
     <g id="line2d_35">
      <g>
       <use xlink:href="#mdaf7d2e9ee" x="455.21612" y="109.319836" style="stroke: #000000; stroke-width: 0.8"/>
      </g>
     </g>
     <g id="text_39">
      <text style="font: 10px 'Arial', sans-serif; text-anchor: end" x="448.21612" y="112.898742" transform="rotate(-0 448.21612 112.898742)">0.25</text>
     </g>
    </g>
    <g id="ytick_21">
     <g id="line2d_36">
      <g>
       <use xlink:href="#mdaf7d2e9ee" x="455.21612" y="87.765526" style="stroke: #000000; stroke-width: 0.8"/>
      </g>
     </g>
     <g id="text_40">
      <text style="font: 10px 'Arial', sans-serif; text-anchor: end" x="448.21612" y="91.344433" transform="rotate(-0 448.21612 91.344433)">0.50</text>
     </g>
    </g>
    <g id="ytick_22">
     <g id="line2d_37">
      <g>
       <use xlink:href="#mdaf7d2e9ee" x="455.21612" y="66.211217" style="stroke: #000000; stroke-width: 0.8"/>
      </g>
     </g>
     <g id="text_41">
      <text style="font: 10px 'Arial', sans-serif; text-anchor: end" x="448.21612" y="69.790123" transform="rotate(-0 448.21612 69.790123)">0.75</text>
     </g>
    </g>
    <g id="ytick_23">
     <g id="line2d_38">
      <g>
       <use xlink:href="#mdaf7d2e9ee" x="455.21612" y="44.656907" style="stroke: #000000; stroke-width: 0.8"/>
      </g>
     </g>
     <g id="text_42">
      <text style="font: 10px 'Arial', sans-serif; text-anchor: end" x="448.21612" y="48.235813" transform="rotate(-0 448.21612 48.235813)">1.00</text>
     </g>
    </g>
    <g id="text_43">
     <text style="font: 10px 'Arial', sans-serif; text-anchor: middle" x="416.80987" y="127.08" transform="rotate(-90 416.80987 127.08)">Mean Activity</text>
    </g>
   </g>
   <g id="line2d_39">
    <path d="M 462.948936 147.274577 
L 467.781946 152.601535 
L 472.614956 148.592154 
L 477.447966 138.678729 
L 482.280976 128.904892 
L 487.113986 126.150906 
L 491.946996 129.174625 
L 496.780006 136.674638 
L 501.613016 145.283403 
L 506.446026 149.204538 
L 511.279036 139.46834 
L 516.112046 130.526898 
L 520.945056 124.474404 
L 525.778066 123.224141 
L 530.611076 125.501253 
L 535.444086 129.011394 
L 540.277096 129.158202 
L 545.110106 139.071167 
L 549.943116 143.933176 
L 554.776126 135.472513 
L 559.609136 131.155864 
L 564.442146 150.336243 
L 569.275156 143.701547 
L 574.108166 131.984129 
L 578.941176 138.18216 
L 583.774186 142.495534 
L 588.607196 157.395074 
L 593.440206 176.804222 
L 598.273216 163.005679 
L 603.106226 140.945625 
L 607.939236 126.458052 
L 612.772246 139.786521 
L 617.605256 148.290849 
" clip-path="url(#p78cf0407ba)" style="fill: none; stroke: #00ffff; stroke-width: 1.5; stroke-linecap: square"/>
   </g>
   <g id="line2d_40">
    <path d="M 472.614956 210.24 
L 472.614956 43.92 
" clip-path="url(#p78cf0407ba)" style="fill: none; stroke-dasharray: 5.55,2.4; stroke-dashoffset: 0; stroke: #808080; stroke-opacity: 0.7; stroke-width: 1.5"/>
   </g>
   <g id="line2d_41">
    <path d="M 603.106226 210.24 
L 603.106226 43.92 
" clip-path="url(#p78cf0407ba)" style="fill: none; stroke-dasharray: 5.55,2.4; stroke-dashoffset: 0; stroke: #808080; stroke-opacity: 0.7; stroke-width: 1.5"/>
   </g>
   <g id="text_44">
    <text style="font: 12px 'Arial', sans-serif; text-anchor: middle" x="540.277096" y="37.92" transform="rotate(-0 540.277096 37.92)">2 Incorrect Trials</text>
   </g>
   <g id="legend_3">
    <g id="patch_21">
     <path d="M 483.014448 207.345 
L 597.539744 207.345 
Q 598.697744 207.345 598.697744 206.187 
L 598.697744 198.575864 
Q 598.697744 197.417864 597.539744 197.417864 
L 483.014448 197.417864 
Q 481.856448 197.417864 481.856448 198.575864 
L 481.856448 206.187 
Q 481.856448 207.345 483.014448 207.345 
z
" style="fill: #ffffff; opacity: 0.8; stroke: #cccccc; stroke-linejoin: miter"/>
    </g>
    <g id="line2d_42">
     <path d="M 484.172448 201.851738 
L 489.962448 201.851738 
L 495.752448 201.851738 
" style="fill: none; stroke: #00ffff; stroke-width: 1.5; stroke-linecap: square"/>
    </g>
    <g id="text_45">
     <text style="font: 5.79px 'Arial', sans-serif; text-anchor: start" x="500.384448" y="203.878238" transform="rotate(-0 500.384448 203.878238)">NonPref - PrevCount=-2 - #Trials=8.0</text>
    </g>
   </g>
  </g>
  <g id="axes_4">
   <g id="patch_22">
    <path d="M 659.362462 210.24 
L 829.484413 210.24 
L 829.484413 43.92 
L 659.362462 43.92 
z
" style="fill: #ffffff"/>
   </g>
   <g id="PolyCollection_3">
    <defs>
     <path id="maa64002366" d="M 667.095278 -208.10046 
L 667.095278 -186.085783 
L 671.928288 -182.893801 
L 676.761298 -175.403173 
L 681.594308 -165.777673 
L 686.427318 -168.066448 
L 691.260328 -171.098198 
L 696.093338 -166.002674 
L 700.926348 -169.649871 
L 705.759358 -164.25923 
L 710.592368 -153.180843 
L 715.425378 -151.174027 
L 720.258388 -147.231575 
L 725.091398 -146.581581 
L 729.924408 -153.104601 
L 734.757418 -156.842176 
L 739.590428 -154.740794 
L 744.423438 -156.85656 
L 749.256447 -158.662137 
L 754.089457 -159.03783 
L 758.922467 -164.042834 
L 763.755477 -167.576726 
L 768.588487 -166.200018 
L 773.421497 -162.779262 
L 778.254507 -165.380762 
L 783.087517 -165.74454 
L 787.920527 -168.097472 
L 792.753537 -166.803443 
L 797.586547 -161.673928 
L 802.419557 -156.805147 
L 807.252567 -163.953791 
L 812.085577 -167.473624 
L 816.918587 -167.766991 
L 821.751597 -167.550872 
L 821.751597 -183.239665 
L 821.751597 -183.239665 
L 816.918587 -182.279525 
L 812.085577 -181.670524 
L 807.252567 -175.951549 
L 802.419557 -168.765823 
L 797.586547 -174.318047 
L 792.753537 -180.810436 
L 787.920527 -184.650669 
L 783.087517 -184.322838 
L 778.254507 -180.86324 
L 773.421497 -177.480805 
L 768.588487 -182.324049 
L 763.755477 -181.252859 
L 758.922467 -177.577276 
L 754.089457 -174.021738 
L 749.256447 -174.210127 
L 744.423438 -173.327315 
L 739.590428 -171.562852 
L 734.757418 -173.544892 
L 729.924408 -168.386851 
L 725.091398 -161.812035 
L 720.258388 -162.304942 
L 715.425378 -166.805031 
L 710.592368 -172.571409 
L 705.759358 -184.313411 
L 700.926348 -193.138597 
L 696.093338 -192.576431 
L 691.260328 -195.162635 
L 686.427318 -190.404398 
L 681.594308 -189.204161 
L 676.761298 -199.243256 
L 671.928288 -203.52786 
L 667.095278 -208.10046 
z
" style="stroke: #00ffff; stroke-opacity: 0.1"/>
    </defs>
    <g clip-path="url(#pd1ef908907)">
     <use xlink:href="#maa64002366" x="0" y="323.436915" style="fill: #00ffff; fill-opacity: 0.1; stroke: #00ffff; stroke-opacity: 0.1"/>
    </g>
   </g>
   <g id="matplotlib.axis_7">
    <g id="xtick_11">
     <g id="line2d_43">
      <g>
       <use xlink:href="#mfebaab630f" x="676.761298" y="210.24" style="stroke: #000000; stroke-width: 0.8"/>
      </g>
     </g>
     <g id="text_46">
      <text style="font: 10px 'Arial', sans-serif" transform="translate(645.795545 251.86503) rotate(-45)">Sampling</text>
     </g>
    </g>
    <g id="xtick_12">
     <g id="line2d_44">
      <g>
       <use xlink:href="#mfebaab630f" x="807.252567" y="210.24" style="stroke: #000000; stroke-width: 0.8"/>
      </g>
     </g>
     <g id="text_47">
      <text style="font: 10px 'Arial', sans-serif" transform="translate(726.462303 301.686227) rotate(-45)">Movement to Lateral Port</text>
     </g>
    </g>
    <g id="text_48">
     <text style="font: 10px 'Arial', sans-serif; text-anchor: middle" x="744.423438" y="314.249415" transform="rotate(-0 744.423438 314.249415)">Normalized Time</text>
    </g>
   </g>
   <g id="matplotlib.axis_8">
    <g id="ytick_24">
     <g id="line2d_45">
      <g>
       <use xlink:href="#mdaf7d2e9ee" x="659.362462" y="195.537074" style="stroke: #000000; stroke-width: 0.8"/>
      </g>
     </g>
     <g id="text_49">
      <text style="font: 10px 'Arial', sans-serif; text-anchor: end" x="652.362462" y="199.115981" transform="rotate(-0 652.362462 199.115981)">−0.75</text>
     </g>
    </g>
    <g id="ytick_25">
     <g id="line2d_46">
      <g>
       <use xlink:href="#mdaf7d2e9ee" x="659.362462" y="173.982765" style="stroke: #000000; stroke-width: 0.8"/>
      </g>
     </g>
     <g id="text_50">
      <text style="font: 10px 'Arial', sans-serif; text-anchor: end" x="652.362462" y="177.561671" transform="rotate(-0 652.362462 177.561671)">−0.50</text>
     </g>
    </g>
    <g id="ytick_26">
     <g id="line2d_47">
      <g>
       <use xlink:href="#mdaf7d2e9ee" x="659.362462" y="152.428455" style="stroke: #000000; stroke-width: 0.8"/>
      </g>
     </g>
     <g id="text_51">
      <text style="font: 10px 'Arial', sans-serif; text-anchor: end" x="652.362462" y="156.007361" transform="rotate(-0 652.362462 156.007361)">−0.25</text>
     </g>
    </g>
    <g id="ytick_27">
     <g id="line2d_48">
      <g>
       <use xlink:href="#mdaf7d2e9ee" x="659.362462" y="130.874146" style="stroke: #000000; stroke-width: 0.8"/>
      </g>
     </g>
     <g id="text_52">
      <text style="font: 10px 'Arial', sans-serif; text-anchor: end" x="652.362462" y="134.453052" transform="rotate(-0 652.362462 134.453052)">0.00</text>
     </g>
    </g>
    <g id="ytick_28">
     <g id="line2d_49">
      <g>
       <use xlink:href="#mdaf7d2e9ee" x="659.362462" y="109.319836" style="stroke: #000000; stroke-width: 0.8"/>
      </g>
     </g>
     <g id="text_53">
      <text style="font: 10px 'Arial', sans-serif; text-anchor: end" x="652.362462" y="112.898742" transform="rotate(-0 652.362462 112.898742)">0.25</text>
     </g>
    </g>
    <g id="ytick_29">
     <g id="line2d_50">
      <g>
       <use xlink:href="#mdaf7d2e9ee" x="659.362462" y="87.765526" style="stroke: #000000; stroke-width: 0.8"/>
      </g>
     </g>
     <g id="text_54">
      <text style="font: 10px 'Arial', sans-serif; text-anchor: end" x="652.362462" y="91.344433" transform="rotate(-0 652.362462 91.344433)">0.50</text>
     </g>
    </g>
    <g id="ytick_30">
     <g id="line2d_51">
      <g>
       <use xlink:href="#mdaf7d2e9ee" x="659.362462" y="66.211217" style="stroke: #000000; stroke-width: 0.8"/>
      </g>
     </g>
     <g id="text_55">
      <text style="font: 10px 'Arial', sans-serif; text-anchor: end" x="652.362462" y="69.790123" transform="rotate(-0 652.362462 69.790123)">0.75</text>
     </g>
    </g>
    <g id="ytick_31">
     <g id="line2d_52">
      <g>
       <use xlink:href="#mdaf7d2e9ee" x="659.362462" y="44.656907" style="stroke: #000000; stroke-width: 0.8"/>
      </g>
     </g>
     <g id="text_56">
      <text style="font: 10px 'Arial', sans-serif; text-anchor: end" x="652.362462" y="48.235813" transform="rotate(-0 652.362462 48.235813)">1.00</text>
     </g>
    </g>
    <g id="text_57">
     <text style="font: 10px 'Arial', sans-serif; text-anchor: middle" x="620.956212" y="127.08" transform="rotate(-90 620.956212 127.08)">Mean Activity</text>
    </g>
   </g>
   <g id="line2d_53">
    <path d="M 667.095278 126.343793 
L 671.928288 130.226084 
L 676.761298 136.1137 
L 681.594308 145.945998 
L 686.427318 144.201492 
L 691.260328 140.306498 
L 696.093338 144.147362 
L 700.926348 142.042681 
L 705.759358 149.150594 
L 710.592368 160.560789 
L 715.425378 164.447385 
L 720.258388 168.668656 
L 725.091398 169.240107 
L 729.924408 162.691188 
L 734.757418 158.24338 
L 739.590428 160.285092 
L 744.423438 158.344977 
L 749.256447 157.000783 
L 754.089457 156.907131 
L 758.922467 152.62686 
L 763.755477 149.022122 
L 768.588487 149.174881 
L 773.421497 153.306881 
L 778.254507 150.314914 
L 783.087517 148.403225 
L 787.920527 147.062845 
L 792.753537 149.629974 
L 797.586547 155.440927 
L 802.419557 160.65143 
L 807.252567 153.484244 
L 812.085577 148.864842 
L 816.918587 148.413656 
L 821.751597 148.041646 
" clip-path="url(#pd1ef908907)" style="fill: none; stroke: #00ffff; stroke-width: 1.5; stroke-linecap: square"/>
   </g>
   <g id="line2d_54">
    <path d="M 676.761298 210.24 
L 676.761298 43.92 
" clip-path="url(#pd1ef908907)" style="fill: none; stroke-dasharray: 5.55,2.4; stroke-dashoffset: 0; stroke: #808080; stroke-opacity: 0.7; stroke-width: 1.5"/>
   </g>
   <g id="line2d_55">
    <path d="M 807.252567 210.24 
L 807.252567 43.92 
" clip-path="url(#pd1ef908907)" style="fill: none; stroke-dasharray: 5.55,2.4; stroke-dashoffset: 0; stroke: #808080; stroke-opacity: 0.7; stroke-width: 1.5"/>
   </g>
   <g id="text_58">
    <text style="font: 12px 'Arial', sans-serif; text-anchor: middle" x="744.423438" y="37.92" transform="rotate(-0 744.423438 37.92)">1 Incorrect Trials</text>
   </g>
   <g id="legend_4">
    <g id="patch_23">
     <path d="M 685.550898 207.345 
L 803.295977 207.345 
Q 804.453977 207.345 804.453977 206.187 
L 804.453977 198.575864 
Q 804.453977 197.417864 803.295977 197.417864 
L 685.550898 197.417864 
Q 684.392898 197.417864 684.392898 198.575864 
L 684.392898 206.187 
Q 684.392898 207.345 685.550898 207.345 
z
" style="fill: #ffffff; opacity: 0.8; stroke: #cccccc; stroke-linejoin: miter"/>
    </g>
    <g id="line2d_56">
     <path d="M 686.708898 201.851738 
L 692.498898 201.851738 
L 698.288898 201.851738 
" style="fill: none; stroke: #00ffff; stroke-width: 1.5; stroke-linecap: square"/>
    </g>
    <g id="text_59">
     <text style="font: 5.79px 'Arial', sans-serif; text-anchor: start" x="702.920898" y="203.878238" transform="rotate(-0 702.920898 203.878238)">NonPref - PrevCount=-1 - #Trials=33.0</text>
    </g>
   </g>
  </g>
  <g id="axes_5">
   <g id="patch_24">
    <path d="M 863.508803 210.24 
L 1033.630755 210.24 
L 1033.630755 43.92 
L 863.508803 43.92 
z
" style="fill: #ffffff"/>
   </g>
   <g id="PolyCollection_4">
    <defs>
     <path id="mefd0a08487" d="M 871.241619 -225.293625 
L 871.241619 -200.967015 
L 876.074629 -205.246062 
L 880.907639 -207.578281 
L 885.740649 -208.736032 
L 890.573659 -221.834581 
L 895.406669 -225.348498 
L 900.239679 -220.203217 
L 905.072689 -213.366377 
L 909.905699 -198.020526 
L 914.738709 -198.61403 
L 919.571719 -206.837823 
L 924.404729 -198.613797 
L 929.237739 -188.618544 
L 934.070749 -185.17638 
L 938.903759 -187.020489 
L 943.736769 -181.732136 
L 948.569779 -177.026982 
L 953.402789 -184.031735 
L 958.235799 -173.289918 
L 963.068809 -172.016185 
L 967.901819 -171.042496 
L 972.734829 -178.3443 
L 977.567839 -176.719917 
L 982.400849 -166.004183 
L 987.233859 -162.101126 
L 992.066869 -171.041852 
L 996.899879 -177.954284 
L 1001.732889 -172.831087 
L 1006.565899 -167.724261 
L 1011.398909 -162.65085 
L 1016.231919 -160.170603 
L 1021.064929 -156.339628 
L 1025.897939 -155.545404 
L 1025.897939 -174.057148 
L 1025.897939 -174.057148 
L 1021.064929 -172.998458 
L 1016.231919 -176.521573 
L 1011.398909 -179.683605 
L 1006.565899 -181.057614 
L 1001.732889 -185.427866 
L 996.899879 -193.383472 
L 992.066869 -185.622238 
L 987.233859 -179.416491 
L 982.400849 -182.455215 
L 977.567839 -194.843114 
L 972.734829 -193.13772 
L 967.901819 -188.045147 
L 963.068809 -187.394196 
L 958.235799 -191.443629 
L 953.402789 -201.967936 
L 948.569779 -197.368985 
L 943.736769 -202.353256 
L 938.903759 -208.483556 
L 934.070749 -205.882205 
L 929.237739 -207.621648 
L 924.404729 -216.971065 
L 919.571719 -224.941489 
L 914.738709 -222.371277 
L 909.905699 -224.733194 
L 905.072689 -242.508383 
L 900.239679 -251.379065 
L 895.406669 -255.910703 
L 890.573659 -251.646409 
L 885.740649 -236.099761 
L 880.907639 -233.95352 
L 876.074629 -228.535332 
L 871.241619 -225.293625 
z
" style="stroke: #ff00ff; stroke-opacity: 0.1"/>
    </defs>
    <g clip-path="url(#p2f6a1b4fc0)">
     <use xlink:href="#mefd0a08487" x="0" y="323.436915" style="fill: #ff00ff; fill-opacity: 0.1; stroke: #ff00ff; stroke-opacity: 0.1"/>
    </g>
   </g>
   <g id="matplotlib.axis_9">
    <g id="xtick_13">
     <g id="line2d_57">
      <g>
       <use xlink:href="#mfebaab630f" x="880.907639" y="210.24" style="stroke: #000000; stroke-width: 0.8"/>
      </g>
     </g>
     <g id="text_60">
      <text style="font: 10px 'Arial', sans-serif" transform="translate(849.941887 251.86503) rotate(-45)">Sampling</text>
     </g>
    </g>
    <g id="xtick_14">
     <g id="line2d_58">
      <g>
       <use xlink:href="#mfebaab630f" x="1011.398909" y="210.24" style="stroke: #000000; stroke-width: 0.8"/>
      </g>
     </g>
     <g id="text_61">
      <text style="font: 10px 'Arial', sans-serif" transform="translate(930.608644 301.686227) rotate(-45)">Movement to Lateral Port</text>
     </g>
    </g>
    <g id="text_62">
     <text style="font: 10px 'Arial', sans-serif; text-anchor: middle" x="948.569779" y="314.249415" transform="rotate(-0 948.569779 314.249415)">Normalized Time</text>
    </g>
   </g>
   <g id="matplotlib.axis_10">
    <g id="ytick_32">
     <g id="line2d_59">
      <g>
       <use xlink:href="#mdaf7d2e9ee" x="863.508803" y="195.537074" style="stroke: #000000; stroke-width: 0.8"/>
      </g>
     </g>
     <g id="text_63">
      <text style="font: 10px 'Arial', sans-serif; text-anchor: end" x="856.508803" y="199.115981" transform="rotate(-0 856.508803 199.115981)">−0.75</text>
     </g>
    </g>
    <g id="ytick_33">
     <g id="line2d_60">
      <g>
       <use xlink:href="#mdaf7d2e9ee" x="863.508803" y="173.982765" style="stroke: #000000; stroke-width: 0.8"/>
      </g>
     </g>
     <g id="text_64">
      <text style="font: 10px 'Arial', sans-serif; text-anchor: end" x="856.508803" y="177.561671" transform="rotate(-0 856.508803 177.561671)">−0.50</text>
     </g>
    </g>
    <g id="ytick_34">
     <g id="line2d_61">
      <g>
       <use xlink:href="#mdaf7d2e9ee" x="863.508803" y="152.428455" style="stroke: #000000; stroke-width: 0.8"/>
      </g>
     </g>
     <g id="text_65">
      <text style="font: 10px 'Arial', sans-serif; text-anchor: end" x="856.508803" y="156.007361" transform="rotate(-0 856.508803 156.007361)">−0.25</text>
     </g>
    </g>
    <g id="ytick_35">
     <g id="line2d_62">
      <g>
       <use xlink:href="#mdaf7d2e9ee" x="863.508803" y="130.874146" style="stroke: #000000; stroke-width: 0.8"/>
      </g>
     </g>
     <g id="text_66">
      <text style="font: 10px 'Arial', sans-serif; text-anchor: end" x="856.508803" y="134.453052" transform="rotate(-0 856.508803 134.453052)">0.00</text>
     </g>
    </g>
    <g id="ytick_36">
     <g id="line2d_63">
      <g>
       <use xlink:href="#mdaf7d2e9ee" x="863.508803" y="109.319836" style="stroke: #000000; stroke-width: 0.8"/>
      </g>
     </g>
     <g id="text_67">
      <text style="font: 10px 'Arial', sans-serif; text-anchor: end" x="856.508803" y="112.898742" transform="rotate(-0 856.508803 112.898742)">0.25</text>
     </g>
    </g>
    <g id="ytick_37">
     <g id="line2d_64">
      <g>
       <use xlink:href="#mdaf7d2e9ee" x="863.508803" y="87.765526" style="stroke: #000000; stroke-width: 0.8"/>
      </g>
     </g>
     <g id="text_68">
      <text style="font: 10px 'Arial', sans-serif; text-anchor: end" x="856.508803" y="91.344433" transform="rotate(-0 856.508803 91.344433)">0.50</text>
     </g>
    </g>
    <g id="ytick_38">
     <g id="line2d_65">
      <g>
       <use xlink:href="#mdaf7d2e9ee" x="863.508803" y="66.211217" style="stroke: #000000; stroke-width: 0.8"/>
      </g>
     </g>
     <g id="text_69">
      <text style="font: 10px 'Arial', sans-serif; text-anchor: end" x="856.508803" y="69.790123" transform="rotate(-0 856.508803 69.790123)">0.75</text>
     </g>
    </g>
    <g id="ytick_39">
     <g id="line2d_66">
      <g>
       <use xlink:href="#mdaf7d2e9ee" x="863.508803" y="44.656907" style="stroke: #000000; stroke-width: 0.8"/>
      </g>
     </g>
     <g id="text_70">
      <text style="font: 10px 'Arial', sans-serif; text-anchor: end" x="856.508803" y="48.235813" transform="rotate(-0 856.508803 48.235813)">1.00</text>
     </g>
    </g>
    <g id="text_71">
     <text style="font: 10px 'Arial', sans-serif; text-anchor: middle" x="825.102553" y="127.08" transform="rotate(-90 825.102553 127.08)">Mean Activity</text>
    </g>
   </g>
   <g id="line2d_67">
    <path d="M 871.241619 110.306595 
L 876.074629 106.546217 
L 880.907639 102.671014 
L 885.740649 101.019017 
L 890.573659 86.69642 
L 895.406669 82.807315 
L 900.239679 87.645773 
L 905.072689 95.499535 
L 909.905699 112.060055 
L 914.738709 112.944261 
L 919.571719 107.547259 
L 924.404729 115.644484 
L 929.237739 125.316819 
L 934.070749 127.907622 
L 938.903759 125.684892 
L 943.736769 131.394219 
L 948.569779 136.238931 
L 953.402789 130.437079 
L 958.235799 141.070141 
L 963.068809 143.731724 
L 967.901819 143.893093 
L 972.734829 137.695905 
L 977.567839 137.655399 
L 982.400849 149.207215 
L 987.233859 152.678105 
L 992.066869 145.10487 
L 996.899879 137.768036 
L 1001.732889 144.307438 
L 1006.565899 149.045977 
L 1011.398909 152.269687 
L 1016.231919 155.090826 
L 1021.064929 158.767872 
L 1025.897939 158.635639 
" clip-path="url(#p2f6a1b4fc0)" style="fill: none; stroke: #ff00ff; stroke-width: 1.5; stroke-linecap: square"/>
   </g>
   <g id="line2d_68">
    <path d="M 880.907639 210.24 
L 880.907639 43.92 
" clip-path="url(#p2f6a1b4fc0)" style="fill: none; stroke-dasharray: 5.55,2.4; stroke-dashoffset: 0; stroke: #808080; stroke-opacity: 0.7; stroke-width: 1.5"/>
   </g>
   <g id="line2d_69">
    <path d="M 1011.398909 210.24 
L 1011.398909 43.92 
" clip-path="url(#p2f6a1b4fc0)" style="fill: none; stroke-dasharray: 5.55,2.4; stroke-dashoffset: 0; stroke: #808080; stroke-opacity: 0.7; stroke-width: 1.5"/>
   </g>
   <g id="text_72">
    <text style="font: 12px 'Arial', sans-serif; text-anchor: middle" x="948.569779" y="37.92" transform="rotate(-0 948.569779 37.92)">1 Correct Trials</text>
   </g>
   <g id="legend_5">
    <g id="patch_25">
     <path d="M 895.9717 207.345 
L 1001.167858 207.345 
Q 1002.325858 207.345 1002.325858 206.187 
L 1002.325858 198.575864 
Q 1002.325858 197.417864 1001.167858 197.417864 
L 895.9717 197.417864 
Q 894.8137 197.417864 894.8137 198.575864 
L 894.8137 206.187 
Q 894.8137 207.345 895.9717 207.345 
z
" style="fill: #ffffff; opacity: 0.8; stroke: #cccccc; stroke-linejoin: miter"/>
    </g>
    <g id="line2d_70">
     <path d="M 897.1297 201.851738 
L 902.9197 201.851738 
L 908.7097 201.851738 
" style="fill: none; stroke: #ff00ff; stroke-width: 1.5; stroke-linecap: square"/>
    </g>
    <g id="text_73">
     <text style="font: 5.79px 'Arial', sans-serif; text-anchor: start" x="913.3417" y="203.878238" transform="rotate(-0 913.3417 203.878238)">Pref - PrevCount=1 - #Trials=32.0</text>
    </g>
   </g>
  </g>
  <g id="axes_6">
   <g id="patch_26">
    <path d="M 1067.655145 210.24 
L 1237.777096 210.24 
L 1237.777096 43.92 
L 1067.655145 43.92 
z
" style="fill: #ffffff"/>
   </g>
   <g id="PolyCollection_5">
    <defs>
     <path id="m79edf3cc4b" d="M 1075.387961 -231.9273 
L 1075.387961 -200.546464 
L 1080.220971 -203.998557 
L 1085.053981 -204.901845 
L 1089.886991 -219.322951 
L 1094.720001 -220.932238 
L 1099.553011 -214.977287 
L 1104.386021 -204.749803 
L 1109.219031 -195.00265 
L 1114.052041 -186.450507 
L 1118.885051 -193.685316 
L 1123.718061 -201.543824 
L 1128.551071 -193.948279 
L 1133.384081 -178.902942 
L 1138.21709 -176.380626 
L 1143.0501 -188.432263 
L 1147.88311 -192.025664 
L 1152.71612 -186.003177 
L 1157.54913 -181.877576 
L 1162.38214 -180.998343 
L 1167.21515 -170.331493 
L 1172.04816 -174.825382 
L 1176.88117 -171.792899 
L 1181.71418 -176.182393 
L 1186.54719 -175.357579 
L 1191.3802 -174.662585 
L 1196.21321 -168.486009 
L 1201.04622 -151.562226 
L 1205.87923 -153.945379 
L 1210.71224 -160.560899 
L 1215.54525 -161.122023 
L 1220.37826 -165.486305 
L 1225.21127 -166.375415 
L 1230.04428 -165.731682 
L 1230.04428 -183.910187 
L 1230.04428 -183.910187 
L 1225.21127 -181.158866 
L 1220.37826 -180.338754 
L 1215.54525 -175.576162 
L 1210.71224 -174.084698 
L 1205.87923 -166.972114 
L 1201.04622 -166.964917 
L 1196.21321 -179.391157 
L 1191.3802 -186.571616 
L 1186.54719 -191.088394 
L 1181.71418 -194.09588 
L 1176.88117 -191.565846 
L 1172.04816 -192.756148 
L 1167.21515 -189.515517 
L 1162.38214 -201.769034 
L 1157.54913 -204.809606 
L 1152.71612 -206.756303 
L 1147.88311 -217.23049 
L 1143.0501 -218.015623 
L 1138.21709 -208.411616 
L 1133.384081 -211.499956 
L 1128.551071 -228.427532 
L 1123.718061 -236.231004 
L 1118.885051 -229.948715 
L 1114.052041 -225.003007 
L 1109.219031 -233.967724 
L 1104.386021 -245.085658 
L 1099.553011 -258.718161 
L 1094.720001 -262.845281 
L 1089.886991 -252.307093 
L 1085.053981 -234.442645 
L 1080.220971 -235.457608 
L 1075.387961 -231.9273 
z
" style="stroke: #ff00ff; stroke-opacity: 0.1"/>
    </defs>
    <g clip-path="url(#p8aebb14004)">
     <use xlink:href="#m79edf3cc4b" x="0" y="323.436915" style="fill: #ff00ff; fill-opacity: 0.1; stroke: #ff00ff; stroke-opacity: 0.1"/>
    </g>
   </g>
   <g id="matplotlib.axis_11">
    <g id="xtick_15">
     <g id="line2d_71">
      <g>
       <use xlink:href="#mfebaab630f" x="1085.053981" y="210.24" style="stroke: #000000; stroke-width: 0.8"/>
      </g>
     </g>
     <g id="text_74">
      <text style="font: 10px 'Arial', sans-serif" transform="translate(1054.088228 251.86503) rotate(-45)">Sampling</text>
     </g>
    </g>
    <g id="xtick_16">
     <g id="line2d_72">
      <g>
       <use xlink:href="#mfebaab630f" x="1215.54525" y="210.24" style="stroke: #000000; stroke-width: 0.8"/>
      </g>
     </g>
     <g id="text_75">
      <text style="font: 10px 'Arial', sans-serif" transform="translate(1134.754986 301.686227) rotate(-45)">Movement to Lateral Port</text>
     </g>
    </g>
    <g id="text_76">
     <text style="font: 10px 'Arial', sans-serif; text-anchor: middle" x="1152.71612" y="314.249415" transform="rotate(-0 1152.71612 314.249415)">Normalized Time</text>
    </g>
   </g>
   <g id="matplotlib.axis_12">
    <g id="ytick_40">
     <g id="line2d_73">
      <g>
       <use xlink:href="#mdaf7d2e9ee" x="1067.655145" y="195.537074" style="stroke: #000000; stroke-width: 0.8"/>
      </g>
     </g>
     <g id="text_77">
      <text style="font: 10px 'Arial', sans-serif; text-anchor: end" x="1060.655145" y="199.115981" transform="rotate(-0 1060.655145 199.115981)">−0.75</text>
     </g>
    </g>
    <g id="ytick_41">
     <g id="line2d_74">
      <g>
       <use xlink:href="#mdaf7d2e9ee" x="1067.655145" y="173.982765" style="stroke: #000000; stroke-width: 0.8"/>
      </g>
     </g>
     <g id="text_78">
      <text style="font: 10px 'Arial', sans-serif; text-anchor: end" x="1060.655145" y="177.561671" transform="rotate(-0 1060.655145 177.561671)">−0.50</text>
     </g>
    </g>
    <g id="ytick_42">
     <g id="line2d_75">
      <g>
       <use xlink:href="#mdaf7d2e9ee" x="1067.655145" y="152.428455" style="stroke: #000000; stroke-width: 0.8"/>
      </g>
     </g>
     <g id="text_79">
      <text style="font: 10px 'Arial', sans-serif; text-anchor: end" x="1060.655145" y="156.007361" transform="rotate(-0 1060.655145 156.007361)">−0.25</text>
     </g>
    </g>
    <g id="ytick_43">
     <g id="line2d_76">
      <g>
       <use xlink:href="#mdaf7d2e9ee" x="1067.655145" y="130.874146" style="stroke: #000000; stroke-width: 0.8"/>
      </g>
     </g>
     <g id="text_80">
      <text style="font: 10px 'Arial', sans-serif; text-anchor: end" x="1060.655145" y="134.453052" transform="rotate(-0 1060.655145 134.453052)">0.00</text>
     </g>
    </g>
    <g id="ytick_44">
     <g id="line2d_77">
      <g>
       <use xlink:href="#mdaf7d2e9ee" x="1067.655145" y="109.319836" style="stroke: #000000; stroke-width: 0.8"/>
      </g>
     </g>
     <g id="text_81">
      <text style="font: 10px 'Arial', sans-serif; text-anchor: end" x="1060.655145" y="112.898742" transform="rotate(-0 1060.655145 112.898742)">0.25</text>
     </g>
    </g>
    <g id="ytick_45">
     <g id="line2d_78">
      <g>
       <use xlink:href="#mdaf7d2e9ee" x="1067.655145" y="87.765526" style="stroke: #000000; stroke-width: 0.8"/>
      </g>
     </g>
     <g id="text_82">
      <text style="font: 10px 'Arial', sans-serif; text-anchor: end" x="1060.655145" y="91.344433" transform="rotate(-0 1060.655145 91.344433)">0.50</text>
     </g>
    </g>
    <g id="ytick_46">
     <g id="line2d_79">
      <g>
       <use xlink:href="#mdaf7d2e9ee" x="1067.655145" y="66.211217" style="stroke: #000000; stroke-width: 0.8"/>
      </g>
     </g>
     <g id="text_83">
      <text style="font: 10px 'Arial', sans-serif; text-anchor: end" x="1060.655145" y="69.790123" transform="rotate(-0 1060.655145 69.790123)">0.75</text>
     </g>
    </g>
    <g id="ytick_47">
     <g id="line2d_80">
      <g>
       <use xlink:href="#mdaf7d2e9ee" x="1067.655145" y="44.656907" style="stroke: #000000; stroke-width: 0.8"/>
      </g>
     </g>
     <g id="text_84">
      <text style="font: 10px 'Arial', sans-serif; text-anchor: end" x="1060.655145" y="48.235813" transform="rotate(-0 1060.655145 48.235813)">1.00</text>
     </g>
    </g>
    <g id="text_85">
     <text style="font: 10px 'Arial', sans-serif; text-anchor: middle" x="1029.248895" y="127.08" transform="rotate(-90 1029.248895 127.08)">Mean Activity</text>
    </g>
   </g>
   <g id="line2d_81">
    <path d="M 1075.387961 107.200033 
L 1080.220971 103.708832 
L 1085.053981 103.764669 
L 1089.886991 87.621893 
L 1094.720001 81.548155 
L 1099.553011 86.58919 
L 1104.386021 98.519183 
L 1109.219031 108.951728 
L 1114.052041 117.710158 
L 1118.885051 111.619899 
L 1123.718061 104.5495 
L 1128.551071 112.249008 
L 1133.384081 128.235465 
L 1138.21709 131.040795 
L 1143.0501 120.212972 
L 1147.88311 118.808838 
L 1152.71612 127.057175 
L 1157.54913 130.093324 
L 1162.38214 132.053226 
L 1167.21515 143.51341 
L 1172.04816 139.64615 
L 1176.88117 141.757542 
L 1181.71418 138.297778 
L 1186.54719 140.213928 
L 1191.3802 142.819814 
L 1196.21321 149.498331 
L 1201.04622 164.173343 
L 1205.87923 162.978168 
L 1210.71224 156.114116 
L 1215.54525 155.087822 
L 1220.37826 150.524385 
L 1225.21127 149.669774 
L 1230.04428 148.61598 
" clip-path="url(#p8aebb14004)" style="fill: none; stroke: #ff00ff; stroke-width: 1.5; stroke-linecap: square"/>
   </g>
   <g id="line2d_82">
    <path d="M 1085.053981 210.24 
L 1085.053981 43.92 
" clip-path="url(#p8aebb14004)" style="fill: none; stroke-dasharray: 5.55,2.4; stroke-dashoffset: 0; stroke: #808080; stroke-opacity: 0.7; stroke-width: 1.5"/>
   </g>
   <g id="line2d_83">
    <path d="M 1215.54525 210.24 
L 1215.54525 43.92 
" clip-path="url(#p8aebb14004)" style="fill: none; stroke-dasharray: 5.55,2.4; stroke-dashoffset: 0; stroke: #808080; stroke-opacity: 0.7; stroke-width: 1.5"/>
   </g>
   <g id="text_86">
    <text style="font: 12px 'Arial', sans-serif; text-anchor: middle" x="1152.71612" y="37.92" transform="rotate(-0 1152.71612 37.92)">2 Correct Trials</text>
   </g>
   <g id="legend_6">
    <g id="patch_27">
     <path d="M 1100.118042 207.345 
L 1205.314199 207.345 
Q 1206.472199 207.345 1206.472199 206.187 
L 1206.472199 198.575864 
Q 1206.472199 197.417864 1205.314199 197.417864 
L 1100.118042 197.417864 
Q 1098.960042 197.417864 1098.960042 198.575864 
L 1098.960042 206.187 
Q 1098.960042 207.345 1100.118042 207.345 
z
" style="fill: #ffffff; opacity: 0.8; stroke: #cccccc; stroke-linejoin: miter"/>
    </g>
    <g id="line2d_84">
     <path d="M 1101.276042 201.851738 
L 1107.066042 201.851738 
L 1112.856042 201.851738 
" style="fill: none; stroke: #ff00ff; stroke-width: 1.5; stroke-linecap: square"/>
    </g>
    <g id="text_87">
     <text style="font: 5.79px 'Arial', sans-serif; text-anchor: start" x="1117.488042" y="203.878238" transform="rotate(-0 1117.488042 203.878238)">Pref - PrevCount=2 - #Trials=28.0</text>
    </g>
   </g>
  </g>
  <g id="axes_7">
   <g id="patch_28">
    <path d="M 1271.801486 210.24 
L 1441.923438 210.24 
L 1441.923438 43.92 
L 1271.801486 43.92 
z
" style="fill: #ffffff"/>
   </g>
   <g id="PolyCollection_6">
    <defs>
     <path id="ma793fb8c3a" d="M 1279.534302 -243.145613 
L 1279.534302 -228.388867 
L 1284.367312 -224.455097 
L 1289.200322 -224.104696 
L 1294.033332 -234.424908 
L 1298.866342 -247.088717 
L 1303.699352 -254.315702 
L 1308.532362 -248.21113 
L 1313.365372 -235.744557 
L 1318.198382 -234.987261 
L 1323.031392 -235.491607 
L 1327.864402 -229.028787 
L 1332.697412 -214.570221 
L 1337.530422 -210.135825 
L 1342.363432 -208.675465 
L 1347.196442 -199.495152 
L 1352.029452 -195.089854 
L 1356.862462 -193.726338 
L 1361.695472 -186.892733 
L 1366.528482 -183.995039 
L 1371.361492 -181.354649 
L 1376.194502 -179.887508 
L 1381.027512 -176.462647 
L 1385.860522 -177.307437 
L 1390.693532 -177.834668 
L 1395.526542 -178.701671 
L 1400.359552 -184.233462 
L 1405.192562 -179.949011 
L 1410.025572 -179.470113 
L 1414.858582 -176.384446 
L 1419.691592 -175.652852 
L 1424.524602 -172.822283 
L 1429.357612 -173.335097 
L 1434.190622 -175.940112 
L 1434.190622 -183.65403 
L 1434.190622 -183.65403 
L 1429.357612 -180.620705 
L 1424.524602 -180.283326 
L 1419.691592 -182.266207 
L 1414.858582 -183.486193 
L 1410.025572 -187.489308 
L 1405.192562 -187.785458 
L 1400.359552 -192.567623 
L 1395.526542 -187.716971 
L 1390.693532 -186.826781 
L 1385.860522 -186.192399 
L 1381.027512 -185.431755 
L 1376.194502 -188.405819 
L 1371.361492 -190.653806 
L 1366.528482 -193.646235 
L 1361.695472 -196.795762 
L 1356.862462 -204.327789 
L 1352.029452 -205.926932 
L 1347.196442 -210.347678 
L 1342.363432 -219.975985 
L 1337.530422 -223.008638 
L 1332.697412 -228.506965 
L 1327.864402 -243.843898 
L 1323.031392 -251.184628 
L 1318.198382 -250.605849 
L 1313.365372 -252.081745 
L 1308.532362 -264.943462 
L 1303.699352 -271.611992 
L 1298.866342 -263.415627 
L 1294.033332 -249.743421 
L 1289.200322 -239.140348 
L 1284.367312 -239.795892 
L 1279.534302 -243.145613 
z
" style="stroke: #ff00ff; stroke-opacity: 0.1"/>
    </defs>
    <g clip-path="url(#p503832e6b6)">
     <use xlink:href="#ma793fb8c3a" x="0" y="323.436915" style="fill: #ff00ff; fill-opacity: 0.1; stroke: #ff00ff; stroke-opacity: 0.1"/>
    </g>
   </g>
   <g id="matplotlib.axis_13">
    <g id="xtick_17">
     <g id="line2d_85">
      <g>
       <use xlink:href="#mfebaab630f" x="1289.200322" y="210.24" style="stroke: #000000; stroke-width: 0.8"/>
      </g>
     </g>
     <g id="text_88">
      <text style="font: 10px 'Arial', sans-serif" transform="translate(1258.234569 251.86503) rotate(-45)">Sampling</text>
     </g>
    </g>
    <g id="xtick_18">
     <g id="line2d_86">
      <g>
       <use xlink:href="#mfebaab630f" x="1419.691592" y="210.24" style="stroke: #000000; stroke-width: 0.8"/>
      </g>
     </g>
     <g id="text_89">
      <text style="font: 10px 'Arial', sans-serif" transform="translate(1338.901327 301.686227) rotate(-45)">Movement to Lateral Port</text>
     </g>
    </g>
    <g id="text_90">
     <text style="font: 10px 'Arial', sans-serif; text-anchor: middle" x="1356.862462" y="314.249415" transform="rotate(-0 1356.862462 314.249415)">Normalized Time</text>
    </g>
   </g>
   <g id="matplotlib.axis_14">
    <g id="ytick_48">
     <g id="line2d_87">
      <g>
       <use xlink:href="#mdaf7d2e9ee" x="1271.801486" y="195.537074" style="stroke: #000000; stroke-width: 0.8"/>
      </g>
     </g>
     <g id="text_91">
      <text style="font: 10px 'Arial', sans-serif; text-anchor: end" x="1264.801486" y="199.115981" transform="rotate(-0 1264.801486 199.115981)">−0.75</text>
     </g>
    </g>
    <g id="ytick_49">
     <g id="line2d_88">
      <g>
       <use xlink:href="#mdaf7d2e9ee" x="1271.801486" y="173.982765" style="stroke: #000000; stroke-width: 0.8"/>
      </g>
     </g>
     <g id="text_92">
      <text style="font: 10px 'Arial', sans-serif; text-anchor: end" x="1264.801486" y="177.561671" transform="rotate(-0 1264.801486 177.561671)">−0.50</text>
     </g>
    </g>
    <g id="ytick_50">
     <g id="line2d_89">
      <g>
       <use xlink:href="#mdaf7d2e9ee" x="1271.801486" y="152.428455" style="stroke: #000000; stroke-width: 0.8"/>
      </g>
     </g>
     <g id="text_93">
      <text style="font: 10px 'Arial', sans-serif; text-anchor: end" x="1264.801486" y="156.007361" transform="rotate(-0 1264.801486 156.007361)">−0.25</text>
     </g>
    </g>
    <g id="ytick_51">
     <g id="line2d_90">
      <g>
       <use xlink:href="#mdaf7d2e9ee" x="1271.801486" y="130.874146" style="stroke: #000000; stroke-width: 0.8"/>
      </g>
     </g>
     <g id="text_94">
      <text style="font: 10px 'Arial', sans-serif; text-anchor: end" x="1264.801486" y="134.453052" transform="rotate(-0 1264.801486 134.453052)">0.00</text>
     </g>
    </g>
    <g id="ytick_52">
     <g id="line2d_91">
      <g>
       <use xlink:href="#mdaf7d2e9ee" x="1271.801486" y="109.319836" style="stroke: #000000; stroke-width: 0.8"/>
      </g>
     </g>
     <g id="text_95">
      <text style="font: 10px 'Arial', sans-serif; text-anchor: end" x="1264.801486" y="112.898742" transform="rotate(-0 1264.801486 112.898742)">0.25</text>
     </g>
    </g>
    <g id="ytick_53">
     <g id="line2d_92">
      <g>
       <use xlink:href="#mdaf7d2e9ee" x="1271.801486" y="87.765526" style="stroke: #000000; stroke-width: 0.8"/>
      </g>
     </g>
     <g id="text_96">
      <text style="font: 10px 'Arial', sans-serif; text-anchor: end" x="1264.801486" y="91.344433" transform="rotate(-0 1264.801486 91.344433)">0.50</text>
     </g>
    </g>
    <g id="ytick_54">
     <g id="line2d_93">
      <g>
       <use xlink:href="#mdaf7d2e9ee" x="1271.801486" y="66.211217" style="stroke: #000000; stroke-width: 0.8"/>
      </g>
     </g>
     <g id="text_97">
      <text style="font: 10px 'Arial', sans-serif; text-anchor: end" x="1264.801486" y="69.790123" transform="rotate(-0 1264.801486 69.790123)">0.75</text>
     </g>
    </g>
    <g id="ytick_55">
     <g id="line2d_94">
      <g>
       <use xlink:href="#mdaf7d2e9ee" x="1271.801486" y="44.656907" style="stroke: #000000; stroke-width: 0.8"/>
      </g>
     </g>
     <g id="text_98">
      <text style="font: 10px 'Arial', sans-serif; text-anchor: end" x="1264.801486" y="48.235813" transform="rotate(-0 1264.801486 48.235813)">1.00</text>
     </g>
    </g>
    <g id="text_99">
     <text style="font: 10px 'Arial', sans-serif; text-anchor: middle" x="1233.395236" y="127.08" transform="rotate(-90 1233.395236 127.08)">Mean Activity</text>
    </g>
   </g>
   <g id="line2d_95">
    <path d="M 1279.534302 87.669675 
L 1284.367312 91.311421 
L 1289.200322 91.814393 
L 1294.033332 81.352752 
L 1298.866342 68.184742 
L 1303.699352 60.473068 
L 1308.532362 66.859618 
L 1313.365372 79.523764 
L 1318.198382 80.64036 
L 1323.031392 80.098797 
L 1327.864402 87.000573 
L 1332.697412 101.898322 
L 1337.530422 106.864683 
L 1342.363432 109.11119 
L 1347.196442 118.515499 
L 1352.029452 122.928522 
L 1356.862462 124.409851 
L 1361.695472 131.592667 
L 1366.528482 134.616278 
L 1371.361492 137.432687 
L 1376.194502 139.290251 
L 1381.027512 142.489713 
L 1385.860522 141.686997 
L 1390.693532 141.10619 
L 1395.526542 140.227593 
L 1400.359552 135.036372 
L 1405.192562 139.56968 
L 1410.025572 139.957204 
L 1414.858582 143.501595 
L 1419.691592 144.477385 
L 1424.524602 146.88411 
L 1429.357612 146.459014 
L 1434.190622 143.639843 
" clip-path="url(#p503832e6b6)" style="fill: none; stroke: #ff00ff; stroke-width: 1.5; stroke-linecap: square"/>
   </g>
   <g id="line2d_96">
    <path d="M 1289.200322 210.24 
L 1289.200322 43.92 
" clip-path="url(#p503832e6b6)" style="fill: none; stroke-dasharray: 5.55,2.4; stroke-dashoffset: 0; stroke: #808080; stroke-opacity: 0.7; stroke-width: 1.5"/>
   </g>
   <g id="line2d_97">
    <path d="M 1419.691592 210.24 
L 1419.691592 43.92 
" clip-path="url(#p503832e6b6)" style="fill: none; stroke-dasharray: 5.55,2.4; stroke-dashoffset: 0; stroke: #808080; stroke-opacity: 0.7; stroke-width: 1.5"/>
   </g>
   <g id="text_100">
    <text style="font: 12px 'Arial', sans-serif; text-anchor: middle" x="1356.862462" y="37.92" transform="rotate(-0 1356.862462 37.92)">3 Correct Trials</text>
   </g>
   <g id="legend_7">
    <g id="patch_29">
     <path d="M 1302.654492 207.345 
L 1411.070432 207.345 
Q 1412.228432 207.345 1412.228432 206.187 
L 1412.228432 198.575864 
Q 1412.228432 197.417864 1411.070432 197.417864 
L 1302.654492 197.417864 
Q 1301.496492 197.417864 1301.496492 198.575864 
L 1301.496492 206.187 
Q 1301.496492 207.345 1302.654492 207.345 
z
" style="fill: #ffffff; opacity: 0.8; stroke: #cccccc; stroke-linejoin: miter"/>
    </g>
    <g id="line2d_98">
     <path d="M 1303.812492 201.851738 
L 1309.602492 201.851738 
L 1315.392492 201.851738 
" style="fill: none; stroke: #ff00ff; stroke-width: 1.5; stroke-linecap: square"/>
    </g>
    <g id="text_101">
     <text style="font: 5.79px 'Arial', sans-serif; text-anchor: start" x="1320.024492" y="203.878238" transform="rotate(-0 1320.024492 203.878238)">Pref - PrevCount=3 - #Trials=149.0</text>
    </g>
   </g>
  </g>
  <g id="text_102">
   <text style="font: 12px 'Arial', sans-serif; text-anchor: middle" x="721.923438" y="15.935625" transform="rotate(-0 721.923438 15.935625)">Balance Change - ALM - GP4_85_s7_L70_D250_ALM_133 - PrevChoiceCorrect</text>
  </g>
 </g>
 <defs>
  <clipPath id="p968585e580">
   <rect x="46.923438" y="43.92" width="170.121951" height="166.32"/>
  </clipPath>
  <clipPath id="p01b660c83e">
   <rect x="251.069779" y="43.92" width="170.121951" height="166.32"/>
  </clipPath>
  <clipPath id="p78cf0407ba">
   <rect x="455.21612" y="43.92" width="170.121951" height="166.32"/>
  </clipPath>
  <clipPath id="pd1ef908907">
   <rect x="659.362462" y="43.92" width="170.121951" height="166.32"/>
  </clipPath>
  <clipPath id="p2f6a1b4fc0">
   <rect x="863.508803" y="43.92" width="170.121951" height="166.32"/>
  </clipPath>
  <clipPath id="p8aebb14004">
   <rect x="1067.655145" y="43.92" width="170.121951" height="166.32"/>
  </clipPath>
  <clipPath id="p503832e6b6">
   <rect x="1271.801486" y="43.92" width="170.121951" height="166.32"/>
  </clipPath>
 </defs>
</svg>
