<?xml version="1.0" encoding="utf-8" standalone="no"?>
<!DOCTYPE svg PUBLIC "-//W3C//DTD SVG 1.1//EN"
  "http://www.w3.org/Graphics/SVG/1.1/DTD/svg11.dtd">
<svg xmlns:xlink="http://www.w3.org/1999/xlink" width="1443.5625pt" height="323.436915pt" viewBox="0 0 1443.5625 323.436915" xmlns="http://www.w3.org/2000/svg" version="1.1">
 <metadata>
  <rdf:RDF xmlns:dc="http://purl.org/dc/elements/1.1/" xmlns:cc="http://creativecommons.org/ns#" xmlns:rdf="http://www.w3.org/1999/02/22-rdf-syntax-ns#">
   <cc:Work>
    <dc:type rdf:resource="http://purl.org/dc/dcmitype/StillImage"/>
    <dc:date>2025-12-27T14:02:46.346149</dc:date>
    <dc:format>image/svg+xml</dc:format>
    <dc:creator>
     <cc:Agent>
      <dc:title>Matplotlib v3.8.0, https://matplotlib.org/</dc:title>
     </cc:Agent>
    </dc:creator>
   </cc:Work>
  </rdf:RDF>
 </metadata>
 <defs>
  <style type="text/css">*{stroke-linejoin: round; stroke-linecap: butt}</style>
 </defs>
 <g id="figure_1">
  <g id="patch_1">
   <path d="M 0 323.436915 
L 1443.5625 323.436915 
L 1443.5625 0 
L 0 0 
z
" style="fill: #ffffff"/>
  </g>
  <g id="axes_1">
   <g id="patch_2">
    <path d="M 41.3625 210.24 
L 211.484451 210.24 
L 211.484451 43.92 
L 41.3625 43.92 
z
" style="fill: #ffffff"/>
   </g>
   <g id="patch_3">
    <path d="M 49.095316 179.596604 
L 58.192747 179.596604 
L 58.192747 193.519762 
L 49.095316 193.519762 
z
" clip-path="url(#p75ab98cf3a)" style="fill: #ffff00"/>
   </g>
   <g id="patch_4">
    <path d="M 71.838892 179.596604 
L 80.936323 179.596604 
L 80.936323 187.202482 
L 71.838892 187.202482 
z
" clip-path="url(#p75ab98cf3a)" style="fill: #ffff00"/>
   </g>
   <g id="patch_5">
    <path d="M 94.582469 179.596604 
L 103.679899 179.596604 
L 103.679899 180.673393 
L 94.582469 180.673393 
z
" clip-path="url(#p75ab98cf3a)" style="fill: #ffff00"/>
   </g>
   <g id="patch_6">
    <path d="M 140.069621 179.596604 
L 149.167052 179.596604 
L 149.167052 122.128453 
L 140.069621 122.128453 
z
" clip-path="url(#p75ab98cf3a)" style="fill: #ffff00"/>
   </g>
   <g id="patch_7">
    <path d="M 162.813198 179.596604 
L 171.910628 179.596604 
L 171.910628 76.800044 
L 162.813198 76.800044 
z
" clip-path="url(#p75ab98cf3a)" style="fill: #ffff00"/>
   </g>
   <g id="patch_8">
    <path d="M 185.556774 179.596604 
L 194.654205 179.596604 
L 194.654205 74.002639 
L 185.556774 74.002639 
z
" clip-path="url(#p75ab98cf3a)" style="fill: #ffff00"/>
   </g>
   <g id="patch_9">
    <path d="M 58.192747 179.596604 
L 67.290177 179.596604 
L 67.290177 202.68 
L 58.192747 202.68 
z
" clip-path="url(#p75ab98cf3a)" style="fill: #800080"/>
   </g>
   <g id="patch_10">
    <path d="M 80.936323 179.596604 
L 90.033753 179.596604 
L 90.033753 194.770288 
L 80.936323 194.770288 
z
" clip-path="url(#p75ab98cf3a)" style="fill: #800080"/>
   </g>
   <g id="patch_11">
    <path d="M 103.679899 179.596604 
L 112.77733 179.596604 
L 112.77733 182.587949 
L 103.679899 182.587949 
z
" clip-path="url(#p75ab98cf3a)" style="fill: #800080"/>
   </g>
   <g id="patch_12">
    <path d="M 149.167052 179.596604 
L 158.264483 179.596604 
L 158.264483 185.991298 
L 149.167052 185.991298 
z
" clip-path="url(#p75ab98cf3a)" style="fill: #800080"/>
   </g>
   <g id="patch_13">
    <path d="M 171.910628 179.596604 
L 181.008059 179.596604 
L 181.008059 177.276595 
L 171.910628 177.276595 
z
" clip-path="url(#p75ab98cf3a)" style="fill: #800080"/>
   </g>
   <g id="patch_14">
    <path d="M 194.654205 179.596604 
L 203.751635 179.596604 
L 203.751635 179.187268 
L 194.654205 179.187268 
z
" clip-path="url(#p75ab98cf3a)" style="fill: #800080"/>
   </g>
   <g id="matplotlib.axis_1">
    <g id="xtick_1">
     <g id="line2d_1">
      <defs>
       <path id="me7f6264d9e" d="M 0 0 
L 0 3.5 
" style="stroke: #000000; stroke-width: 0.8"/>
      </defs>
      <g>
       <use xlink:href="#me7f6264d9e" x="58.192747" y="210.24" style="stroke: #000000; stroke-width: 0.8"/>
      </g>
     </g>
     <g id="text_1">
      <text style="font: 10px 'Arial', sans-serif; text-anchor: middle" x="58.192747" y="224.397813" transform="rotate(-0 58.192747 224.397813)">−3</text>
     </g>
    </g>
    <g id="xtick_2">
     <g id="line2d_2">
      <g>
       <use xlink:href="#me7f6264d9e" x="80.936323" y="210.24" style="stroke: #000000; stroke-width: 0.8"/>
      </g>
     </g>
     <g id="text_2">
      <text style="font: 10px 'Arial', sans-serif; text-anchor: middle" x="80.936323" y="224.397813" transform="rotate(-0 80.936323 224.397813)">−2</text>
     </g>
    </g>
    <g id="xtick_3">
     <g id="line2d_3">
      <g>
       <use xlink:href="#me7f6264d9e" x="103.679899" y="210.24" style="stroke: #000000; stroke-width: 0.8"/>
      </g>
     </g>
     <g id="text_3">
      <text style="font: 10px 'Arial', sans-serif; text-anchor: middle" x="103.679899" y="224.397813" transform="rotate(-0 103.679899 224.397813)">−1</text>
     </g>
    </g>
    <g id="xtick_4">
     <g id="line2d_4">
      <g>
       <use xlink:href="#me7f6264d9e" x="149.167052" y="210.24" style="stroke: #000000; stroke-width: 0.8"/>
      </g>
     </g>
     <g id="text_4">
      <text style="font: 10px 'Arial', sans-serif; text-anchor: middle" x="149.167052" y="224.397813" transform="rotate(-0 149.167052 224.397813)">1</text>
     </g>
    </g>
    <g id="xtick_5">
     <g id="line2d_5">
      <g>
       <use xlink:href="#me7f6264d9e" x="171.910628" y="210.24" style="stroke: #000000; stroke-width: 0.8"/>
      </g>
     </g>
     <g id="text_5">
      <text style="font: 10px 'Arial', sans-serif; text-anchor: middle" x="171.910628" y="224.397813" transform="rotate(-0 171.910628 224.397813)">2</text>
     </g>
    </g>
    <g id="xtick_6">
     <g id="line2d_6">
      <g>
       <use xlink:href="#me7f6264d9e" x="194.654205" y="210.24" style="stroke: #000000; stroke-width: 0.8"/>
      </g>
     </g>
     <g id="text_6">
      <text style="font: 10px 'Arial', sans-serif; text-anchor: middle" x="194.654205" y="224.397813" transform="rotate(-0 194.654205 224.397813)">3</text>
     </g>
    </g>
    <g id="text_7">
     <text style="font: 10px 'Arial', sans-serif; text-anchor: middle" x="126.423476" y="237.543125" transform="rotate(-0 126.423476 237.543125)">PrevOutcomeCount</text>
    </g>
   </g>
   <g id="matplotlib.axis_2">
    <g id="ytick_1">
     <g id="line2d_7">
      <defs>
       <path id="m62198befd8" d="M 0 0 
L -3.5 0 
" style="stroke: #000000; stroke-width: 0.8"/>
      </defs>
      <g>
       <use xlink:href="#m62198befd8" x="41.3625" y="179.596604" style="stroke: #000000; stroke-width: 0.8"/>
      </g>
     </g>
     <g id="text_8">
      <text style="font: 10px 'Arial', sans-serif; text-anchor: end" x="34.3625" y="183.17551" transform="rotate(-0 34.3625 183.17551)">0.0</text>
     </g>
    </g>
    <g id="ytick_2">
     <g id="line2d_8">
      <g>
       <use xlink:href="#m62198befd8" x="41.3625" y="142.848579" style="stroke: #000000; stroke-width: 0.8"/>
      </g>
     </g>
     <g id="text_9">
      <text style="font: 10px 'Arial', sans-serif; text-anchor: end" x="34.3625" y="146.427485" transform="rotate(-0 34.3625 146.427485)">0.5</text>
     </g>
    </g>
    <g id="ytick_3">
     <g id="line2d_9">
      <g>
       <use xlink:href="#m62198befd8" x="41.3625" y="106.100554" style="stroke: #000000; stroke-width: 0.8"/>
      </g>
     </g>
     <g id="text_10">
      <text style="font: 10px 'Arial', sans-serif; text-anchor: end" x="34.3625" y="109.67946" transform="rotate(-0 34.3625 109.67946)">1.0</text>
     </g>
    </g>
    <g id="ytick_4">
     <g id="line2d_10">
      <g>
       <use xlink:href="#m62198befd8" x="41.3625" y="69.352529" style="stroke: #000000; stroke-width: 0.8"/>
      </g>
     </g>
     <g id="text_11">
      <text style="font: 10px 'Arial', sans-serif; text-anchor: end" x="34.3625" y="72.931435" transform="rotate(-0 34.3625 72.931435)">1.5</text>
     </g>
    </g>
    <g id="text_12">
     <text style="font: 10px 'Arial', sans-serif; text-anchor: middle" x="14.357813" y="127.08" transform="rotate(-90 14.357813 127.08)">Max Activity</text>
    </g>
   </g>
   <g id="LineCollection_1">
    <path d="M 53.644031 195.304026 
L 53.644031 191.735498 
" clip-path="url(#p75ab98cf3a)" style="fill: none; stroke: #000000; stroke-width: 1.5"/>
    <path d="M 76.387608 190.078419 
L 76.387608 184.326544 
" clip-path="url(#p75ab98cf3a)" style="fill: none; stroke: #000000; stroke-width: 1.5"/>
    <path d="M 99.131184 185.505289 
L 99.131184 175.841497 
" clip-path="url(#p75ab98cf3a)" style="fill: none; stroke: #000000; stroke-width: 1.5"/>
    <path d="M 144.618337 143.472253 
L 144.618337 100.784653 
" clip-path="url(#p75ab98cf3a)" style="fill: none; stroke: #000000; stroke-width: 1.5"/>
    <path d="M 167.361913 102.120089 
L 167.361913 51.48 
" clip-path="url(#p75ab98cf3a)" style="fill: none; stroke: #000000; stroke-width: 1.5"/>
    <path d="M 190.105489 83.206275 
L 190.105489 64.799004 
" clip-path="url(#p75ab98cf3a)" style="fill: none; stroke: #000000; stroke-width: 1.5"/>
   </g>
   <g id="LineCollection_2">
    <path clip-path="url(#p75ab98cf3a)" style="fill: none; stroke: #000000; stroke-width: 1.5"/>
    <path d="M 85.485038 199.413781 
L 85.485038 190.126795 
" clip-path="url(#p75ab98cf3a)" style="fill: none; stroke: #000000; stroke-width: 1.5"/>
    <path d="M 108.228615 187.253074 
L 108.228615 177.922825 
" clip-path="url(#p75ab98cf3a)" style="fill: none; stroke: #000000; stroke-width: 1.5"/>
    <path d="M 153.715767 188.247316 
L 153.715767 183.73528 
" clip-path="url(#p75ab98cf3a)" style="fill: none; stroke: #000000; stroke-width: 1.5"/>
    <path d="M 176.459344 186.988621 
L 176.459344 167.56457 
" clip-path="url(#p75ab98cf3a)" style="fill: none; stroke: #000000; stroke-width: 1.5"/>
    <path d="M 199.20292 181.732454 
L 199.20292 176.642081 
" clip-path="url(#p75ab98cf3a)" style="fill: none; stroke: #000000; stroke-width: 1.5"/>
   </g>
   <g id="line2d_11">
    <path d="M 41.3625 179.596604 
L 211.484451 179.596604 
" clip-path="url(#p75ab98cf3a)" style="fill: none; stroke-dasharray: 5.55,2.4; stroke-dashoffset: 0; stroke: #808080; stroke-width: 1.5"/>
   </g>
   <g id="legend_1">
    <g id="patch_15">
     <path d="M 48.3625 80.210625 
L 120.375 80.210625 
Q 122.375 80.210625 122.375 78.210625 
L 122.375 50.92 
Q 122.375 48.92 120.375 48.92 
L 48.3625 48.92 
Q 46.3625 48.92 46.3625 50.92 
L 46.3625 78.210625 
Q 46.3625 80.210625 48.3625 80.210625 
z
" style="fill: #ffffff; opacity: 0.8; stroke: #cccccc; stroke-linejoin: miter"/>
    </g>
    <g id="patch_16">
     <path d="M 50.3625 60.077812 
L 70.3625 60.077812 
L 70.3625 53.077812 
L 50.3625 53.077812 
z
" style="fill: #ffff00"/>
    </g>
    <g id="text_13">
     <text style="font: 10px 'Arial', sans-serif; text-anchor: start" x="78.3625" y="60.077812" transform="rotate(-0 78.3625 60.077812)">Pref</text>
    </g>
    <g id="patch_17">
     <path d="M 50.3625 74.223125 
L 70.3625 74.223125 
L 70.3625 67.223125 
L 50.3625 67.223125 
z
" style="fill: #800080"/>
    </g>
    <g id="text_14">
     <text style="font: 10px 'Arial', sans-serif; text-anchor: start" x="78.3625" y="74.223125" transform="rotate(-0 78.3625 74.223125)">Non-Pref</text>
    </g>
   </g>
  </g>
  <g id="axes_2">
   <g id="patch_18">
    <path d="M 245.508841 210.24 
L 415.630793 210.24 
L 415.630793 43.92 
L 245.508841 43.92 
z
" style="fill: #ffffff"/>
   </g>
   <g id="PolyCollection_1">
    <defs>
     <path id="m2397ba5342" d="M 253.241657 -140.461597 
L 253.241657 -124.9493 
L 258.074667 -118.064983 
L 262.907677 -117.806708 
L 267.740687 -119.754481 
L 272.573697 -127.578672 
L 277.406707 -132.375224 
L 282.239717 -127.31849 
L 287.072727 -122.582511 
L 291.905737 -125.909288 
L 296.738747 -124.444487 
L 301.571757 -122.854026 
L 306.404767 -129.492724 
L 311.237777 -132.24724 
L 316.070787 -132.4801 
L 320.903797 -134.730508 
L 325.736807 -130.962422 
L 330.569817 -136.445968 
L 335.402827 -129.849121 
L 340.235837 -131.901046 
L 345.068847 -125.864838 
L 349.901857 -132.231245 
L 354.734867 -129.478202 
L 359.567877 -125.767741 
L 364.400887 -128.228741 
L 369.233897 -130.868681 
L 374.066907 -129.824519 
L 378.899917 -125.323216 
L 383.732927 -125.474697 
L 388.565937 -130.729703 
L 393.398947 -132.330131 
L 398.231957 -131.252223 
L 403.064967 -139.369178 
L 407.897977 -139.400231 
L 407.897977 -147.690251 
L 407.897977 -147.690251 
L 403.064967 -150.756266 
L 398.231957 -152.367605 
L 393.398947 -132.440089 
L 388.565937 -133.517459 
L 383.732927 -131.035205 
L 378.899917 -125.92426 
L 374.066907 -134.30796 
L 369.233897 -140.127625 
L 364.400887 -136.453878 
L 359.567877 -132.493282 
L 354.734867 -135.626947 
L 349.901857 -132.75974 
L 345.068847 -126.382279 
L 340.235837 -137.698949 
L 335.402827 -141.539754 
L 330.569817 -142.999027 
L 325.736807 -141.228253 
L 320.903797 -139.382093 
L 316.070787 -141.044068 
L 311.237777 -135.537677 
L 306.404767 -133.974267 
L 301.571757 -142.082917 
L 296.738747 -141.960943 
L 291.905737 -128.056759 
L 287.072727 -130.183755 
L 282.239717 -143.927131 
L 277.406707 -148.976004 
L 272.573697 -140.889306 
L 267.740687 -126.510624 
L 262.907677 -125.877854 
L 258.074667 -134.647482 
L 253.241657 -140.461597 
z
" style="stroke: #ffff00; stroke-opacity: 0.1"/>
    </defs>
    <g clip-path="url(#p5f971bbc6b)">
     <use xlink:href="#m2397ba5342" x="0" y="323.436915" style="fill: #ffff00; fill-opacity: 0.1; stroke: #ffff00; stroke-opacity: 0.1"/>
    </g>
   </g>
   <g id="PolyCollection_2"/>
   <g id="matplotlib.axis_3">
    <g id="xtick_7">
     <g id="line2d_12">
      <g>
       <use xlink:href="#me7f6264d9e" x="262.907677" y="210.24" style="stroke: #000000; stroke-width: 0.8"/>
      </g>
     </g>
     <g id="text_15">
      <text style="font: 10px 'Arial', sans-serif" transform="translate(231.941925 251.86503) rotate(-45)">Sampling</text>
     </g>
    </g>
    <g id="xtick_8">
     <g id="line2d_13">
      <g>
       <use xlink:href="#me7f6264d9e" x="393.398947" y="210.24" style="stroke: #000000; stroke-width: 0.8"/>
      </g>
     </g>
     <g id="text_16">
      <text style="font: 10px 'Arial', sans-serif" transform="translate(312.608682 301.686227) rotate(-45)">Movement to Lateral Port</text>
     </g>
    </g>
    <g id="text_17">
     <text style="font: 10px 'Arial', sans-serif; text-anchor: middle" x="330.569817" y="314.249415" transform="rotate(-0 330.569817 314.249415)">Normalized Time</text>
    </g>
   </g>
   <g id="matplotlib.axis_4">
    <g id="ytick_5">
     <g id="line2d_14">
      <g>
       <use xlink:href="#m62198befd8" x="245.508841" y="194.458313" style="stroke: #000000; stroke-width: 0.8"/>
      </g>
     </g>
     <g id="text_18">
      <text style="font: 10px 'Arial', sans-serif; text-anchor: end" x="238.508841" y="198.037219" transform="rotate(-0 238.508841 198.037219)">−0.5</text>
     </g>
    </g>
    <g id="ytick_6">
     <g id="line2d_15">
      <g>
       <use xlink:href="#m62198befd8" x="245.508841" y="159.532268" style="stroke: #000000; stroke-width: 0.8"/>
      </g>
     </g>
     <g id="text_19">
      <text style="font: 10px 'Arial', sans-serif; text-anchor: end" x="238.508841" y="163.111175" transform="rotate(-0 238.508841 163.111175)">0.0</text>
     </g>
    </g>
    <g id="ytick_7">
     <g id="line2d_16">
      <g>
       <use xlink:href="#m62198befd8" x="245.508841" y="124.606224" style="stroke: #000000; stroke-width: 0.8"/>
      </g>
     </g>
     <g id="text_20">
      <text style="font: 10px 'Arial', sans-serif; text-anchor: end" x="238.508841" y="128.18513" transform="rotate(-0 238.508841 128.18513)">0.5</text>
     </g>
    </g>
    <g id="ytick_8">
     <g id="line2d_17">
      <g>
       <use xlink:href="#m62198befd8" x="245.508841" y="89.68018" style="stroke: #000000; stroke-width: 0.8"/>
      </g>
     </g>
     <g id="text_21">
      <text style="font: 10px 'Arial', sans-serif; text-anchor: end" x="238.508841" y="93.259086" transform="rotate(-0 238.508841 93.259086)">1.0</text>
     </g>
    </g>
    <g id="ytick_9">
     <g id="line2d_18">
      <g>
       <use xlink:href="#m62198befd8" x="245.508841" y="54.754136" style="stroke: #000000; stroke-width: 0.8"/>
      </g>
     </g>
     <g id="text_22">
      <text style="font: 10px 'Arial', sans-serif; text-anchor: end" x="238.508841" y="58.333042" transform="rotate(-0 238.508841 58.333042)">1.5</text>
     </g>
    </g>
    <g id="text_23">
     <text style="font: 10px 'Arial', sans-serif; text-anchor: middle" x="212.663529" y="127.08" transform="rotate(-90 212.663529 127.08)">Mean Activity</text>
    </g>
   </g>
   <g id="line2d_19">
    <path d="M 253.241657 190.731466 
L 258.074667 197.080682 
L 262.907677 201.594634 
L 267.740687 200.304362 
L 272.573697 189.202926 
L 277.406707 182.761301 
L 282.239717 187.814104 
L 287.072727 197.053782 
L 291.905737 196.453891 
L 296.738747 190.2342 
L 301.571757 190.968443 
L 306.404767 191.703419 
L 311.237777 189.544456 
L 316.070787 186.674831 
L 320.903797 186.380614 
L 325.736807 187.341577 
L 330.569817 183.714417 
L 335.402827 187.742477 
L 340.235837 188.636917 
L 345.068847 197.313356 
L 349.901857 190.941422 
L 354.734867 190.88434 
L 359.567877 194.306403 
L 364.400887 191.095605 
L 369.233897 187.938761 
L 374.066907 191.370675 
L 378.899917 197.813177 
L 383.732927 195.181964 
L 388.565937 191.313333 
L 393.398947 191.051805 
L 398.231957 181.627001 
L 403.064967 178.374193 
L 407.897977 179.891673 
" clip-path="url(#p5f971bbc6b)" style="fill: none; stroke: #ffff00; stroke-width: 1.5; stroke-linecap: square"/>
   </g>
   <g id="line2d_20">
    <path d="M 253.241657 204.831924 
L 258.074667 209.34299 
L 262.907677 213.041556 
L 267.740687 211.139045 
L 272.573697 207.702405 
L 277.406707 199.63315 
L 282.239717 190.259807 
L 287.072727 183.508247 
L 291.905737 181.471181 
L 296.738747 182.126141 
L 301.571757 184.456765 
L 306.404767 190.581264 
L 311.237777 197.571485 
L 316.070787 201.722849 
L 320.903797 202.197905 
L 325.736807 200.779373 
L 330.569817 198.872248 
L 335.402827 195.946892 
L 340.235837 192.208088 
L 345.068847 187.839591 
L 349.901857 184.080704 
L 354.734867 182.439528 
L 359.567877 183.994155 
L 364.400887 188.782511 
L 369.233897 197.296256 
L 374.066907 202.956863 
L 378.899917 203.087431 
L 383.732927 197.579883 
L 388.565937 189.852887 
L 393.398947 186.255507 
L 398.231957 187.619179 
L 403.064967 185.38264 
L 407.897977 187.726104 
" clip-path="url(#p5f971bbc6b)" style="fill: none; stroke: #800080; stroke-width: 1.5; stroke-linecap: square"/>
   </g>
   <g id="line2d_21">
    <path d="M 262.907677 210.24 
L 262.907677 43.92 
" clip-path="url(#p5f971bbc6b)" style="fill: none; stroke-dasharray: 5.55,2.4; stroke-dashoffset: 0; stroke: #808080; stroke-opacity: 0.7; stroke-width: 1.5"/>
   </g>
   <g id="line2d_22">
    <path d="M 393.398947 210.24 
L 393.398947 43.92 
" clip-path="url(#p5f971bbc6b)" style="fill: none; stroke-dasharray: 5.55,2.4; stroke-dashoffset: 0; stroke: #808080; stroke-opacity: 0.7; stroke-width: 1.5"/>
   </g>
   <g id="text_24">
    <text style="font: 12px 'Arial', sans-serif; text-anchor: middle" x="330.569817" y="37.92" transform="rotate(-0 330.569817 37.92)">3 Incorrect Trials</text>
   </g>
   <g id="legend_2">
    <g id="patch_19">
     <path d="M 273.307169 64.932272 
L 387.832465 64.932272 
Q 388.990465 64.932272 388.990465 63.774272 
L 388.990465 47.973 
Q 388.990465 46.815 387.832465 46.815 
L 273.307169 46.815 
Q 272.149169 46.815 272.149169 47.973 
L 272.149169 63.774272 
Q 272.149169 64.932272 273.307169 64.932272 
z
" style="fill: #ffffff; opacity: 0.8; stroke: #cccccc; stroke-linejoin: miter"/>
    </g>
    <g id="line2d_23">
     <path d="M 274.465169 51.248873 
L 280.255169 51.248873 
L 286.045169 51.248873 
" style="fill: none; stroke: #ffff00; stroke-width: 1.5; stroke-linecap: square"/>
    </g>
    <g id="text_25">
     <text style="font: 5.79px 'Arial', sans-serif; text-anchor: start" x="290.677169" y="53.275373" transform="rotate(-0 290.677169 53.275373)">Pref - PrevCount=-3 - #Trials=2.0</text>
    </g>
    <g id="line2d_24">
     <path d="M 274.465169 59.439009 
L 280.255169 59.439009 
L 286.045169 59.439009 
" style="fill: none; stroke: #800080; stroke-width: 1.5; stroke-linecap: square"/>
    </g>
    <g id="text_26">
     <text style="font: 5.79px 'Arial', sans-serif; text-anchor: start" x="290.677169" y="61.465509" transform="rotate(-0 290.677169 61.465509)">NonPref - PrevCount=-3 - #Trials=1.0</text>
    </g>
   </g>
  </g>
  <g id="axes_3">
   <g id="patch_20">
    <path d="M 449.655183 210.24 
L 619.777134 210.24 
L 619.777134 43.92 
L 449.655183 43.92 
z
" style="fill: #ffffff"/>
   </g>
   <g id="PolyCollection_3">
    <defs>
     <path id="mab5939cc31" d="M 457.387999 -149.684059 
L 457.387999 -132.861155 
L 462.221009 -138.095229 
L 467.054019 -137.223869 
L 471.887029 -131.711637 
L 476.720039 -134.514039 
L 481.553049 -132.567116 
L 486.386059 -127.773645 
L 491.219069 -125.623967 
L 496.052079 -125.351894 
L 500.885089 -122.10006 
L 505.718099 -126.009616 
L 510.551109 -134.36871 
L 515.384119 -138.167079 
L 520.217129 -137.790454 
L 525.050139 -133.590317 
L 529.883149 -131.698277 
L 534.716159 -127.886901 
L 539.549169 -132.058832 
L 544.382178 -134.401202 
L 549.215188 -133.555466 
L 554.048198 -129.842672 
L 558.881208 -129.122147 
L 563.714218 -131.250654 
L 568.547228 -130.740951 
L 573.380238 -130.993143 
L 578.213248 -131.404185 
L 583.046258 -135.856962 
L 587.879268 -134.198287 
L 592.712278 -133.060083 
L 597.545288 -132.241567 
L 602.378298 -135.568244 
L 607.211308 -138.758965 
L 612.044318 -139.487573 
L 612.044318 -144.964111 
L 612.044318 -144.964111 
L 607.211308 -144.677889 
L 602.378298 -142.247407 
L 597.545288 -138.220486 
L 592.712278 -138.150544 
L 587.879268 -140.988016 
L 583.046258 -144.484431 
L 578.213248 -141.337639 
L 573.380238 -141.176174 
L 568.547228 -143.654219 
L 563.714218 -141.226442 
L 558.881208 -139.083176 
L 554.048198 -141.501333 
L 549.215188 -142.728954 
L 544.382178 -140.792954 
L 539.549169 -141.868288 
L 534.716159 -135.842858 
L 529.883149 -140.903616 
L 525.050139 -143.169814 
L 520.217129 -145.918215 
L 515.384119 -145.994009 
L 510.551109 -139.219681 
L 505.718099 -132.127928 
L 500.885089 -133.24052 
L 496.052079 -138.727325 
L 491.219069 -139.442703 
L 486.386059 -138.010856 
L 481.553049 -142.56139 
L 476.720039 -142.929194 
L 471.887029 -142.312372 
L 467.054019 -148.948927 
L 462.221009 -153.273448 
L 457.387999 -149.684059 
z
" style="stroke: #ffff00; stroke-opacity: 0.1"/>
    </defs>
    <g clip-path="url(#p0b9b0709b4)">
     <use xlink:href="#mab5939cc31" x="0" y="323.436915" style="fill: #ffff00; fill-opacity: 0.1; stroke: #ffff00; stroke-opacity: 0.1"/>
    </g>
   </g>
   <g id="PolyCollection_4">
    <defs>
     <path id="mf38c7e7808" d="M 457.387999 -145.856707 
L 457.387999 -129.402037 
L 462.221009 -130.457395 
L 467.054019 -133.738279 
L 471.887029 -132.025853 
L 476.720039 -124.341311 
L 481.553049 -127.062801 
L 486.386059 -130.429543 
L 491.219069 -127.589514 
L 496.052079 -122.185708 
L 500.885089 -130.005698 
L 505.718099 -130.479668 
L 510.551109 -132.039807 
L 515.384119 -127.671472 
L 520.217129 -121.782156 
L 525.050139 -120.271173 
L 529.883149 -124.692698 
L 534.716159 -125.105502 
L 539.549169 -118.243302 
L 544.382178 -126.681927 
L 549.215188 -125.413456 
L 554.048198 -127.516636 
L 558.881208 -125.513172 
L 563.714218 -129.308137 
L 568.547228 -124.606122 
L 573.380238 -125.322795 
L 578.213248 -131.073882 
L 583.046258 -132.075056 
L 587.879268 -126.785944 
L 592.712278 -120.196446 
L 597.545288 -120.577936 
L 602.378298 -122.575529 
L 607.211308 -127.668371 
L 612.044318 -130.238005 
L 612.044318 -137.77655 
L 612.044318 -137.77655 
L 607.211308 -133.804804 
L 602.378298 -127.982312 
L 597.545288 -133.042749 
L 592.712278 -131.474992 
L 587.879268 -133.305608 
L 583.046258 -139.690975 
L 578.213248 -136.455866 
L 573.380238 -131.671464 
L 568.547228 -133.375659 
L 563.714218 -135.023199 
L 558.881208 -141.340106 
L 554.048198 -136.329683 
L 549.215188 -132.978851 
L 544.382178 -129.014724 
L 539.549169 -125.49835 
L 534.716159 -129.904554 
L 529.883149 -138.118043 
L 525.050139 -138.595573 
L 520.217129 -135.183775 
L 515.384119 -134.533214 
L 510.551109 -137.000253 
L 505.718099 -148.523591 
L 500.885089 -140.77451 
L 496.052079 -138.789986 
L 491.219069 -145.585788 
L 486.386059 -145.749907 
L 481.553049 -140.930021 
L 476.720039 -133.81564 
L 471.887029 -132.779627 
L 467.054019 -138.123116 
L 462.221009 -142.348526 
L 457.387999 -145.856707 
z
" style="stroke: #800080; stroke-opacity: 0.1"/>
    </defs>
    <g clip-path="url(#p0b9b0709b4)">
     <use xlink:href="#mf38c7e7808" x="0" y="323.436915" style="fill: #800080; fill-opacity: 0.1; stroke: #800080; stroke-opacity: 0.1"/>
    </g>
   </g>
   <g id="matplotlib.axis_5">
    <g id="xtick_9">
     <g id="line2d_25">
      <g>
       <use xlink:href="#me7f6264d9e" x="467.054019" y="210.24" style="stroke: #000000; stroke-width: 0.8"/>
      </g>
     </g>
     <g id="text_27">
      <text style="font: 10px 'Arial', sans-serif" transform="translate(436.088266 251.86503) rotate(-45)">Sampling</text>
     </g>
    </g>
    <g id="xtick_10">
     <g id="line2d_26">
      <g>
       <use xlink:href="#me7f6264d9e" x="597.545288" y="210.24" style="stroke: #000000; stroke-width: 0.8"/>
      </g>
     </g>
     <g id="text_28">
      <text style="font: 10px 'Arial', sans-serif" transform="translate(516.755024 301.686227) rotate(-45)">Movement to Lateral Port</text>
     </g>
    </g>
    <g id="text_29">
     <text style="font: 10px 'Arial', sans-serif; text-anchor: middle" x="534.716159" y="314.249415" transform="rotate(-0 534.716159 314.249415)">Normalized Time</text>
    </g>
   </g>
   <g id="matplotlib.axis_6">
    <g id="ytick_10">
     <g id="line2d_27">
      <g>
       <use xlink:href="#m62198befd8" x="449.655183" y="194.458313" style="stroke: #000000; stroke-width: 0.8"/>
      </g>
     </g>
     <g id="text_30">
      <text style="font: 10px 'Arial', sans-serif; text-anchor: end" x="442.655183" y="198.037219" transform="rotate(-0 442.655183 198.037219)">−0.5</text>
     </g>
    </g>
    <g id="ytick_11">
     <g id="line2d_28">
      <g>
       <use xlink:href="#m62198befd8" x="449.655183" y="159.532268" style="stroke: #000000; stroke-width: 0.8"/>
      </g>
     </g>
     <g id="text_31">
      <text style="font: 10px 'Arial', sans-serif; text-anchor: end" x="442.655183" y="163.111175" transform="rotate(-0 442.655183 163.111175)">0.0</text>
     </g>
    </g>
    <g id="ytick_12">
     <g id="line2d_29">
      <g>
       <use xlink:href="#m62198befd8" x="449.655183" y="124.606224" style="stroke: #000000; stroke-width: 0.8"/>
      </g>
     </g>
     <g id="text_32">
      <text style="font: 10px 'Arial', sans-serif; text-anchor: end" x="442.655183" y="128.18513" transform="rotate(-0 442.655183 128.18513)">0.5</text>
     </g>
    </g>
    <g id="ytick_13">
     <g id="line2d_30">
      <g>
       <use xlink:href="#m62198befd8" x="449.655183" y="89.68018" style="stroke: #000000; stroke-width: 0.8"/>
      </g>
     </g>
     <g id="text_33">
      <text style="font: 10px 'Arial', sans-serif; text-anchor: end" x="442.655183" y="93.259086" transform="rotate(-0 442.655183 93.259086)">1.0</text>
     </g>
    </g>
    <g id="ytick_14">
     <g id="line2d_31">
      <g>
       <use xlink:href="#m62198befd8" x="449.655183" y="54.754136" style="stroke: #000000; stroke-width: 0.8"/>
      </g>
     </g>
     <g id="text_34">
      <text style="font: 10px 'Arial', sans-serif; text-anchor: end" x="442.655183" y="58.333042" transform="rotate(-0 442.655183 58.333042)">1.5</text>
     </g>
    </g>
    <g id="text_35">
     <text style="font: 10px 'Arial', sans-serif; text-anchor: middle" x="416.80987" y="127.08" transform="rotate(-90 416.80987 127.08)">Mean Activity</text>
    </g>
   </g>
   <g id="line2d_32">
    <path d="M 457.387999 182.164308 
L 462.221009 177.752577 
L 467.054019 180.350517 
L 471.887029 186.42491 
L 476.720039 184.715298 
L 481.553049 185.872662 
L 486.386059 190.544664 
L 491.219069 190.90358 
L 496.052079 191.397305 
L 500.885089 195.766625 
L 505.718099 194.368141 
L 510.551109 186.642719 
L 515.384119 181.35637 
L 520.217129 181.58258 
L 525.050139 185.056849 
L 529.883149 187.135968 
L 534.716159 191.572035 
L 539.549169 186.473354 
L 544.382178 185.839837 
L 549.215188 185.294704 
L 554.048198 187.764912 
L 558.881208 189.334253 
L 563.714218 187.198367 
L 568.547228 186.23933 
L 573.380238 187.352256 
L 578.213248 187.066003 
L 583.046258 183.266218 
L 587.879268 185.843763 
L 592.712278 187.831601 
L 597.545288 188.205888 
L 602.378298 184.529089 
L 607.211308 181.718487 
L 612.044318 181.211072 
" clip-path="url(#p0b9b0709b4)" style="fill: none; stroke: #ffff00; stroke-width: 1.5; stroke-linecap: square"/>
   </g>
   <g id="line2d_33">
    <path d="M 457.387999 185.807542 
L 462.221009 187.033954 
L 467.054019 187.506217 
L 471.887029 191.034174 
L 476.720039 194.358438 
L 481.553049 189.440504 
L 486.386059 185.34719 
L 491.219069 186.849265 
L 496.052079 192.949068 
L 500.885089 188.046811 
L 505.718099 183.935285 
L 510.551109 188.916884 
L 515.384119 192.334571 
L 520.217129 194.953949 
L 525.050139 194.003541 
L 529.883149 192.031543 
L 534.716159 195.931887 
L 539.549169 201.566089 
L 544.382178 195.588589 
L 549.215188 194.240761 
L 554.048198 191.513756 
L 558.881208 190.010276 
L 563.714218 191.271247 
L 568.547228 194.446024 
L 573.380238 194.939785 
L 578.213248 189.672041 
L 583.046258 187.553899 
L 587.879268 193.391139 
L 592.712278 197.601196 
L 597.545288 196.626572 
L 602.378298 198.157994 
L 607.211308 192.700327 
L 612.044318 189.429637 
" clip-path="url(#p0b9b0709b4)" style="fill: none; stroke: #800080; stroke-width: 1.5; stroke-linecap: square"/>
   </g>
   <g id="line2d_34">
    <path d="M 467.054019 210.24 
L 467.054019 43.92 
" clip-path="url(#p0b9b0709b4)" style="fill: none; stroke-dasharray: 5.55,2.4; stroke-dashoffset: 0; stroke: #808080; stroke-opacity: 0.7; stroke-width: 1.5"/>
   </g>
   <g id="line2d_35">
    <path d="M 597.545288 210.24 
L 597.545288 43.92 
" clip-path="url(#p0b9b0709b4)" style="fill: none; stroke-dasharray: 5.55,2.4; stroke-dashoffset: 0; stroke: #808080; stroke-opacity: 0.7; stroke-width: 1.5"/>
   </g>
   <g id="text_36">
    <text style="font: 12px 'Arial', sans-serif; text-anchor: middle" x="534.716159" y="37.92" transform="rotate(-0 534.716159 37.92)">2 Incorrect Trials</text>
   </g>
   <g id="legend_3">
    <g id="patch_21">
     <path d="M 477.453511 64.932272 
L 591.978806 64.932272 
Q 593.136806 64.932272 593.136806 63.774272 
L 593.136806 47.973 
Q 593.136806 46.815 591.978806 46.815 
L 477.453511 46.815 
Q 476.295511 46.815 476.295511 47.973 
L 476.295511 63.774272 
Q 476.295511 64.932272 477.453511 64.932272 
z
" style="fill: #ffffff; opacity: 0.8; stroke: #cccccc; stroke-linejoin: miter"/>
    </g>
    <g id="line2d_36">
     <path d="M 478.611511 51.248873 
L 484.401511 51.248873 
L 490.191511 51.248873 
" style="fill: none; stroke: #ffff00; stroke-width: 1.5; stroke-linecap: square"/>
    </g>
    <g id="text_37">
     <text style="font: 5.79px 'Arial', sans-serif; text-anchor: start" x="494.823511" y="53.275373" transform="rotate(-0 494.823511 53.275373)">Pref - PrevCount=-2 - #Trials=5.0</text>
    </g>
    <g id="line2d_37">
     <path d="M 478.611511 59.439009 
L 484.401511 59.439009 
L 490.191511 59.439009 
" style="fill: none; stroke: #800080; stroke-width: 1.5; stroke-linecap: square"/>
    </g>
    <g id="text_38">
     <text style="font: 5.79px 'Arial', sans-serif; text-anchor: start" x="494.823511" y="61.465509" transform="rotate(-0 494.823511 61.465509)">NonPref - PrevCount=-2 - #Trials=3.0</text>
    </g>
   </g>
  </g>
  <g id="axes_4">
   <g id="patch_22">
    <path d="M 653.801524 210.24 
L 823.923476 210.24 
L 823.923476 43.92 
L 653.801524 43.92 
z
" style="fill: #ffffff"/>
   </g>
   <g id="PolyCollection_5">
    <defs>
     <path id="m5fd5375cd8" d="M 661.53434 -148.328573 
L 661.53434 -143.009377 
L 666.36735 -143.058527 
L 671.20036 -142.253465 
L 676.03337 -141.137566 
L 680.86638 -141.755509 
L 685.69939 -140.19263 
L 690.5324 -140.372356 
L 695.36541 -139.905227 
L 700.19842 -138.445266 
L 705.03143 -138.399667 
L 709.86444 -135.198932 
L 714.69745 -135.010086 
L 719.53046 -133.972275 
L 724.36347 -133.216225 
L 729.19648 -133.187191 
L 734.02949 -132.649676 
L 738.8625 -133.753189 
L 743.69551 -132.745568 
L 748.52852 -132.004436 
L 753.36153 -131.80216 
L 758.19454 -134.650821 
L 763.02755 -137.356052 
L 767.86056 -137.163686 
L 772.69357 -136.461191 
L 777.52658 -135.196326 
L 782.35959 -134.874322 
L 787.1926 -134.619032 
L 792.02561 -137.377307 
L 796.85862 -136.262478 
L 801.69163 -135.679205 
L 806.52464 -138.207286 
L 811.35765 -140.07228 
L 816.19066 -140.168068 
L 816.19066 -151.088539 
L 816.19066 -151.088539 
L 811.35765 -151.309852 
L 806.52464 -148.112786 
L 801.69163 -144.585904 
L 796.85862 -145.732699 
L 792.02561 -148.026429 
L 787.1926 -145.869958 
L 782.35959 -145.632146 
L 777.52658 -145.830948 
L 772.69357 -146.923286 
L 767.86056 -147.373599 
L 763.02755 -146.953715 
L 758.19454 -142.310811 
L 753.36153 -137.804708 
L 748.52852 -136.938806 
L 743.69551 -137.964834 
L 738.8625 -139.006334 
L 734.02949 -138.397042 
L 729.19648 -138.487475 
L 724.36347 -138.590708 
L 719.53046 -139.164916 
L 714.69745 -140.048181 
L 709.86444 -141.195796 
L 705.03143 -144.039327 
L 700.19842 -143.22019 
L 695.36541 -145.06202 
L 690.5324 -145.816906 
L 685.69939 -146.286138 
L 680.86638 -147.222021 
L 676.03337 -146.681269 
L 671.20036 -148.287081 
L 666.36735 -149.15383 
L 661.53434 -148.328573 
z
" style="stroke: #ffff00; stroke-opacity: 0.1"/>
    </defs>
    <g clip-path="url(#pa4fab65fb1)">
     <use xlink:href="#m5fd5375cd8" x="0" y="323.436915" style="fill: #ffff00; fill-opacity: 0.1; stroke: #ffff00; stroke-opacity: 0.1"/>
    </g>
   </g>
   <g id="PolyCollection_6">
    <defs>
     <path id="m1b3c5ba572" d="M 661.53434 -145.106861 
L 661.53434 -136.597873 
L 666.36735 -141.766697 
L 671.20036 -141.687332 
L 676.03337 -136.668669 
L 680.86638 -135.052252 
L 685.69939 -134.965214 
L 690.5324 -135.722194 
L 695.36541 -133.974057 
L 700.19842 -131.709472 
L 705.03143 -130.163868 
L 709.86444 -131.645142 
L 714.69745 -135.055172 
L 719.53046 -138.9061 
L 724.36347 -142.235395 
L 729.19648 -142.908851 
L 734.02949 -140.53704 
L 738.8625 -137.405492 
L 743.69551 -134.772289 
L 748.52852 -129.972633 
L 753.36153 -125.572793 
L 758.19454 -125.433033 
L 763.02755 -127.448084 
L 767.86056 -129.597343 
L 772.69357 -132.964604 
L 777.52658 -136.160628 
L 782.35959 -137.131895 
L 787.1926 -136.648676 
L 792.02561 -135.824347 
L 796.85862 -133.200481 
L 801.69163 -131.717248 
L 806.52464 -135.040975 
L 811.35765 -136.794478 
L 816.19066 -136.598781 
L 816.19066 -149.092089 
L 816.19066 -149.092089 
L 811.35765 -147.897757 
L 806.52464 -143.265595 
L 801.69163 -141.996522 
L 796.85862 -143.136391 
L 792.02561 -144.653634 
L 787.1926 -143.880841 
L 782.35959 -143.031009 
L 777.52658 -141.942543 
L 772.69357 -140.992869 
L 767.86056 -140.083761 
L 763.02755 -138.290285 
L 758.19454 -136.703726 
L 753.36153 -136.797274 
L 748.52852 -140.816205 
L 743.69551 -144.637986 
L 738.8625 -145.561373 
L 734.02949 -147.52972 
L 729.19648 -149.015099 
L 724.36347 -147.869263 
L 719.53046 -145.026749 
L 714.69745 -141.959407 
L 709.86444 -139.999481 
L 705.03143 -140.35423 
L 700.19842 -141.182313 
L 695.36541 -142.769965 
L 690.5324 -143.002967 
L 685.69939 -141.57057 
L 680.86638 -142.595635 
L 676.03337 -144.049842 
L 671.20036 -149.427425 
L 666.36735 -150.312836 
L 661.53434 -145.106861 
z
" style="stroke: #800080; stroke-opacity: 0.1"/>
    </defs>
    <g clip-path="url(#pa4fab65fb1)">
     <use xlink:href="#m1b3c5ba572" x="0" y="323.436915" style="fill: #800080; fill-opacity: 0.1; stroke: #800080; stroke-opacity: 0.1"/>
    </g>
   </g>
   <g id="matplotlib.axis_7">
    <g id="xtick_11">
     <g id="line2d_38">
      <g>
       <use xlink:href="#me7f6264d9e" x="671.20036" y="210.24" style="stroke: #000000; stroke-width: 0.8"/>
      </g>
     </g>
     <g id="text_39">
      <text style="font: 10px 'Arial', sans-serif" transform="translate(640.234608 251.86503) rotate(-45)">Sampling</text>
     </g>
    </g>
    <g id="xtick_12">
     <g id="line2d_39">
      <g>
       <use xlink:href="#me7f6264d9e" x="801.69163" y="210.24" style="stroke: #000000; stroke-width: 0.8"/>
      </g>
     </g>
     <g id="text_40">
      <text style="font: 10px 'Arial', sans-serif" transform="translate(720.901365 301.686227) rotate(-45)">Movement to Lateral Port</text>
     </g>
    </g>
    <g id="text_41">
     <text style="font: 10px 'Arial', sans-serif; text-anchor: middle" x="738.8625" y="314.249415" transform="rotate(-0 738.8625 314.249415)">Normalized Time</text>
    </g>
   </g>
   <g id="matplotlib.axis_8">
    <g id="ytick_15">
     <g id="line2d_40">
      <g>
       <use xlink:href="#m62198befd8" x="653.801524" y="194.458313" style="stroke: #000000; stroke-width: 0.8"/>
      </g>
     </g>
     <g id="text_42">
      <text style="font: 10px 'Arial', sans-serif; text-anchor: end" x="646.801524" y="198.037219" transform="rotate(-0 646.801524 198.037219)">−0.5</text>
     </g>
    </g>
    <g id="ytick_16">
     <g id="line2d_41">
      <g>
       <use xlink:href="#m62198befd8" x="653.801524" y="159.532268" style="stroke: #000000; stroke-width: 0.8"/>
      </g>
     </g>
     <g id="text_43">
      <text style="font: 10px 'Arial', sans-serif; text-anchor: end" x="646.801524" y="163.111175" transform="rotate(-0 646.801524 163.111175)">0.0</text>
     </g>
    </g>
    <g id="ytick_17">
     <g id="line2d_42">
      <g>
       <use xlink:href="#m62198befd8" x="653.801524" y="124.606224" style="stroke: #000000; stroke-width: 0.8"/>
      </g>
     </g>
     <g id="text_44">
      <text style="font: 10px 'Arial', sans-serif; text-anchor: end" x="646.801524" y="128.18513" transform="rotate(-0 646.801524 128.18513)">0.5</text>
     </g>
    </g>
    <g id="ytick_18">
     <g id="line2d_43">
      <g>
       <use xlink:href="#m62198befd8" x="653.801524" y="89.68018" style="stroke: #000000; stroke-width: 0.8"/>
      </g>
     </g>
     <g id="text_45">
      <text style="font: 10px 'Arial', sans-serif; text-anchor: end" x="646.801524" y="93.259086" transform="rotate(-0 646.801524 93.259086)">1.0</text>
     </g>
    </g>
    <g id="ytick_19">
     <g id="line2d_44">
      <g>
       <use xlink:href="#m62198befd8" x="653.801524" y="54.754136" style="stroke: #000000; stroke-width: 0.8"/>
      </g>
     </g>
     <g id="text_46">
      <text style="font: 10px 'Arial', sans-serif; text-anchor: end" x="646.801524" y="58.333042" transform="rotate(-0 646.801524 58.333042)">1.5</text>
     </g>
    </g>
    <g id="text_47">
     <text style="font: 10px 'Arial', sans-serif; text-anchor: middle" x="620.956212" y="127.08" transform="rotate(-90 620.956212 127.08)">Mean Activity</text>
    </g>
   </g>
   <g id="line2d_45">
    <path d="M 661.53434 177.76794 
L 666.36735 177.330736 
L 671.20036 178.166642 
L 676.03337 179.527497 
L 680.86638 178.948149 
L 685.69939 180.197531 
L 690.5324 180.342283 
L 695.36541 180.953291 
L 700.19842 182.604187 
L 705.03143 182.217417 
L 709.86444 185.23955 
L 714.69745 185.907781 
L 719.53046 186.868319 
L 724.36347 187.533448 
L 729.19648 187.599581 
L 734.02949 187.913556 
L 738.8625 187.057153 
L 743.69551 188.081713 
L 748.52852 188.965293 
L 753.36153 188.63348 
L 758.19454 184.956099 
L 763.02755 181.282031 
L 767.86056 181.168271 
L 772.69357 181.744676 
L 777.52658 182.923278 
L 782.35959 183.18368 
L 787.1926 183.19242 
L 792.02561 180.735046 
L 796.85862 182.439326 
L 801.69163 183.30436 
L 806.52464 180.276879 
L 811.35765 177.745848 
L 816.19066 177.808611 
" clip-path="url(#pa4fab65fb1)" style="fill: none; stroke: #ffff00; stroke-width: 1.5; stroke-linecap: square"/>
   </g>
   <g id="line2d_46">
    <path d="M 661.53434 182.584547 
L 666.36735 177.397148 
L 671.20036 177.879537 
L 676.03337 183.077659 
L 680.86638 184.612971 
L 685.69939 185.169023 
L 690.5324 184.074334 
L 695.36541 185.064904 
L 700.19842 186.991022 
L 705.03143 188.177866 
L 709.86444 187.614603 
L 714.69745 184.929625 
L 719.53046 181.47049 
L 724.36347 178.384585 
L 729.19648 177.474939 
L 734.02949 179.403535 
L 738.8625 181.953482 
L 743.69551 183.731777 
L 748.52852 188.042495 
L 753.36153 192.25188 
L 758.19454 192.368535 
L 763.02755 190.56773 
L 767.86056 188.596363 
L 772.69357 186.458178 
L 777.52658 184.385329 
L 782.35959 183.355463 
L 787.1926 183.172156 
L 792.02561 183.197924 
L 796.85862 185.268478 
L 801.69163 186.580029 
L 806.52464 184.283629 
L 811.35765 181.090797 
L 816.19066 180.59148 
" clip-path="url(#pa4fab65fb1)" style="fill: none; stroke: #800080; stroke-width: 1.5; stroke-linecap: square"/>
   </g>
   <g id="line2d_47">
    <path d="M 671.20036 210.24 
L 671.20036 43.92 
" clip-path="url(#pa4fab65fb1)" style="fill: none; stroke-dasharray: 5.55,2.4; stroke-dashoffset: 0; stroke: #808080; stroke-opacity: 0.7; stroke-width: 1.5"/>
   </g>
   <g id="line2d_48">
    <path d="M 801.69163 210.24 
L 801.69163 43.92 
" clip-path="url(#pa4fab65fb1)" style="fill: none; stroke-dasharray: 5.55,2.4; stroke-dashoffset: 0; stroke: #808080; stroke-opacity: 0.7; stroke-width: 1.5"/>
   </g>
   <g id="text_48">
    <text style="font: 12px 'Arial', sans-serif; text-anchor: middle" x="738.8625" y="37.92" transform="rotate(-0 738.8625 37.92)">1 Incorrect Trials</text>
   </g>
   <g id="legend_4">
    <g id="patch_23">
     <path d="M 679.989961 64.932272 
L 797.735039 64.932272 
Q 798.893039 64.932272 798.893039 63.774272 
L 798.893039 47.973 
Q 798.893039 46.815 797.735039 46.815 
L 679.989961 46.815 
Q 678.831961 46.815 678.831961 47.973 
L 678.831961 63.774272 
Q 678.831961 64.932272 679.989961 64.932272 
z
" style="fill: #ffffff; opacity: 0.8; stroke: #cccccc; stroke-linejoin: miter"/>
    </g>
    <g id="line2d_49">
     <path d="M 681.147961 51.248873 
L 686.937961 51.248873 
L 692.727961 51.248873 
" style="fill: none; stroke: #ffff00; stroke-width: 1.5; stroke-linecap: square"/>
    </g>
    <g id="text_49">
     <text style="font: 5.79px 'Arial', sans-serif; text-anchor: start" x="697.359961" y="53.275373" transform="rotate(-0 697.359961 53.275373)">Pref - PrevCount=-1 - #Trials=23.0</text>
    </g>
    <g id="line2d_50">
     <path d="M 681.147961 59.439009 
L 686.937961 59.439009 
L 692.727961 59.439009 
" style="fill: none; stroke: #800080; stroke-width: 1.5; stroke-linecap: square"/>
    </g>
    <g id="text_50">
     <text style="font: 5.79px 'Arial', sans-serif; text-anchor: start" x="697.359961" y="61.465509" transform="rotate(-0 697.359961 61.465509)">NonPref - PrevCount=-1 - #Trials=10.0</text>
    </g>
   </g>
  </g>
  <g id="axes_5">
   <g id="patch_24">
    <path d="M 857.947866 210.24 
L 1028.069817 210.24 
L 1028.069817 43.92 
L 857.947866 43.92 
z
" style="fill: #ffffff"/>
   </g>
   <g id="PolyCollection_7">
    <defs>
     <path id="mf99e096cae" d="M 865.680682 -226.386117 
L 865.680682 -189.66596 
L 870.513692 -189.954816 
L 875.346702 -188.511136 
L 880.179712 -183.996606 
L 885.012722 -179.555957 
L 889.845732 -176.252681 
L 894.678742 -172.236427 
L 899.511752 -170.153368 
L 904.344762 -168.247951 
L 909.177772 -166.342217 
L 914.010782 -161.96014 
L 918.843792 -161.025664 
L 923.676802 -158.270624 
L 928.509812 -155.964951 
L 933.342822 -154.811851 
L 938.175831 -153.681683 
L 943.008841 -152.677219 
L 947.841851 -146.123276 
L 952.674861 -144.921831 
L 957.507871 -147.702753 
L 962.340881 -147.702297 
L 967.173891 -148.281847 
L 972.006901 -150.235132 
L 976.839911 -146.292406 
L 981.672921 -141.700478 
L 986.505931 -144.448413 
L 991.338941 -147.418471 
L 996.171951 -143.349169 
L 1001.004961 -144.683299 
L 1005.837971 -149.68107 
L 1010.670981 -155.340655 
L 1015.503991 -154.517549 
L 1020.337001 -154.457863 
L 1020.337001 -170.500863 
L 1020.337001 -170.500863 
L 1015.503991 -168.666977 
L 1010.670981 -169.383094 
L 1005.837971 -164.392326 
L 1001.004961 -159.408514 
L 996.171951 -156.874109 
L 991.338941 -161.532089 
L 986.505931 -162.710787 
L 981.672921 -161.81886 
L 976.839911 -164.280036 
L 972.006901 -168.407104 
L 967.173891 -166.824851 
L 962.340881 -167.01626 
L 957.507871 -169.774263 
L 952.674861 -169.441189 
L 947.841851 -170.428898 
L 943.008841 -176.717132 
L 938.175831 -179.196371 
L 933.342822 -181.977637 
L 928.509812 -183.884955 
L 923.676802 -187.528233 
L 918.843792 -191.883247 
L 914.010782 -194.080887 
L 909.177772 -198.837398 
L 904.344762 -200.507048 
L 899.511752 -204.790566 
L 894.678742 -210.81048 
L 889.845732 -214.208598 
L 885.012722 -218.760009 
L 880.179712 -223.773698 
L 875.346702 -225.452841 
L 870.513692 -225.507516 
L 865.680682 -226.386117 
z
" style="stroke: #ffff00; stroke-opacity: 0.1"/>
    </defs>
    <g clip-path="url(#p076c47fc32)">
     <use xlink:href="#mf99e096cae" x="0" y="323.436915" style="fill: #ffff00; fill-opacity: 0.1; stroke: #ffff00; stroke-opacity: 0.1"/>
    </g>
   </g>
   <g id="PolyCollection_8">
    <defs>
     <path id="mb786aa2a58" d="M 865.680682 -147.412441 
L 865.680682 -141.076272 
L 870.513692 -140.296324 
L 875.346702 -141.818697 
L 880.179712 -141.786817 
L 885.012722 -138.715192 
L 889.845732 -134.824302 
L 894.678742 -134.756572 
L 899.511752 -135.680365 
L 904.344762 -131.819443 
L 909.177772 -129.967681 
L 914.010782 -130.489606 
L 918.843792 -129.908973 
L 923.676802 -130.660455 
L 928.509812 -126.077623 
L 933.342822 -126.760322 
L 938.175831 -132.217987 
L 943.008841 -132.397317 
L 947.841851 -129.640848 
L 952.674861 -126.921004 
L 957.507871 -129.129367 
L 962.340881 -128.470924 
L 967.173891 -129.105012 
L 972.006901 -129.19032 
L 976.839911 -129.361978 
L 981.672921 -129.644988 
L 986.505931 -131.299254 
L 991.338941 -129.212408 
L 996.171951 -127.402476 
L 1001.004961 -129.960195 
L 1005.837971 -134.453398 
L 1010.670981 -136.049851 
L 1015.503991 -136.764403 
L 1020.337001 -136.690599 
L 1020.337001 -144.887086 
L 1020.337001 -144.887086 
L 1015.503991 -143.669633 
L 1010.670981 -142.144067 
L 1005.837971 -140.127182 
L 1001.004961 -136.723386 
L 996.171951 -133.3657 
L 991.338941 -136.052091 
L 986.505931 -137.975782 
L 981.672921 -134.783308 
L 976.839911 -133.246332 
L 972.006901 -134.91139 
L 967.173891 -133.572195 
L 962.340881 -131.935124 
L 957.507871 -133.186465 
L 952.674861 -132.156281 
L 947.841851 -134.564788 
L 943.008841 -137.121218 
L 938.175831 -138.276933 
L 933.342822 -132.409421 
L 928.509812 -131.79985 
L 923.676802 -135.531061 
L 918.843792 -134.631117 
L 914.010782 -134.256191 
L 909.177772 -134.771871 
L 904.344762 -137.815479 
L 899.511752 -142.493797 
L 894.678742 -139.821122 
L 889.845732 -140.889089 
L 885.012722 -144.049776 
L 880.179712 -148.264108 
L 875.346702 -149.38503 
L 870.513692 -147.712745 
L 865.680682 -147.412441 
z
" style="stroke: #800080; stroke-opacity: 0.1"/>
    </defs>
    <g clip-path="url(#p076c47fc32)">
     <use xlink:href="#mb786aa2a58" x="0" y="323.436915" style="fill: #800080; fill-opacity: 0.1; stroke: #800080; stroke-opacity: 0.1"/>
    </g>
   </g>
   <g id="matplotlib.axis_9">
    <g id="xtick_13">
     <g id="line2d_51">
      <g>
       <use xlink:href="#me7f6264d9e" x="875.346702" y="210.24" style="stroke: #000000; stroke-width: 0.8"/>
      </g>
     </g>
     <g id="text_51">
      <text style="font: 10px 'Arial', sans-serif" transform="translate(844.380949 251.86503) rotate(-45)">Sampling</text>
     </g>
    </g>
    <g id="xtick_14">
     <g id="line2d_52">
      <g>
       <use xlink:href="#me7f6264d9e" x="1005.837971" y="210.24" style="stroke: #000000; stroke-width: 0.8"/>
      </g>
     </g>
     <g id="text_52">
      <text style="font: 10px 'Arial', sans-serif" transform="translate(925.047707 301.686227) rotate(-45)">Movement to Lateral Port</text>
     </g>
    </g>
    <g id="text_53">
     <text style="font: 10px 'Arial', sans-serif; text-anchor: middle" x="943.008841" y="314.249415" transform="rotate(-0 943.008841 314.249415)">Normalized Time</text>
    </g>
   </g>
   <g id="matplotlib.axis_10">
    <g id="ytick_20">
     <g id="line2d_53">
      <g>
       <use xlink:href="#m62198befd8" x="857.947866" y="194.458313" style="stroke: #000000; stroke-width: 0.8"/>
      </g>
     </g>
     <g id="text_54">
      <text style="font: 10px 'Arial', sans-serif; text-anchor: end" x="850.947866" y="198.037219" transform="rotate(-0 850.947866 198.037219)">−0.5</text>
     </g>
    </g>
    <g id="ytick_21">
     <g id="line2d_54">
      <g>
       <use xlink:href="#m62198befd8" x="857.947866" y="159.532268" style="stroke: #000000; stroke-width: 0.8"/>
      </g>
     </g>
     <g id="text_55">
      <text style="font: 10px 'Arial', sans-serif; text-anchor: end" x="850.947866" y="163.111175" transform="rotate(-0 850.947866 163.111175)">0.0</text>
     </g>
    </g>
    <g id="ytick_22">
     <g id="line2d_55">
      <g>
       <use xlink:href="#m62198befd8" x="857.947866" y="124.606224" style="stroke: #000000; stroke-width: 0.8"/>
      </g>
     </g>
     <g id="text_56">
      <text style="font: 10px 'Arial', sans-serif; text-anchor: end" x="850.947866" y="128.18513" transform="rotate(-0 850.947866 128.18513)">0.5</text>
     </g>
    </g>
    <g id="ytick_23">
     <g id="line2d_56">
      <g>
       <use xlink:href="#m62198befd8" x="857.947866" y="89.68018" style="stroke: #000000; stroke-width: 0.8"/>
      </g>
     </g>
     <g id="text_57">
      <text style="font: 10px 'Arial', sans-serif; text-anchor: end" x="850.947866" y="93.259086" transform="rotate(-0 850.947866 93.259086)">1.0</text>
     </g>
    </g>
    <g id="ytick_24">
     <g id="line2d_57">
      <g>
       <use xlink:href="#m62198befd8" x="857.947866" y="54.754136" style="stroke: #000000; stroke-width: 0.8"/>
      </g>
     </g>
     <g id="text_58">
      <text style="font: 10px 'Arial', sans-serif; text-anchor: end" x="850.947866" y="58.333042" transform="rotate(-0 850.947866 58.333042)">1.5</text>
     </g>
    </g>
    <g id="text_59">
     <text style="font: 10px 'Arial', sans-serif; text-anchor: middle" x="825.102553" y="127.08" transform="rotate(-90 825.102553 127.08)">Mean Activity</text>
    </g>
   </g>
   <g id="line2d_58">
    <path d="M 865.680682 115.410877 
L 870.513692 115.70575 
L 875.346702 116.454927 
L 880.179712 119.551762 
L 885.012722 124.278931 
L 889.845732 128.206275 
L 894.678742 131.913461 
L 899.511752 135.964947 
L 904.344762 139.059414 
L 909.177772 140.847106 
L 914.010782 145.416401 
L 918.843792 146.982458 
L 923.676802 150.537485 
L 928.509812 153.511962 
L 933.342822 155.042171 
L 938.175831 156.997888 
L 943.008841 158.73974 
L 947.841851 165.160827 
L 952.674861 166.255405 
L 957.507871 164.698406 
L 962.340881 166.077636 
L 967.173891 165.883565 
L 972.006901 164.115797 
L 976.839911 168.150694 
L 981.672921 171.677246 
L 986.505931 169.857315 
L 991.338941 168.961635 
L 996.171951 173.325275 
L 1001.004961 171.391008 
L 1005.837971 166.400216 
L 1010.670981 161.07504 
L 1015.503991 161.844652 
L 1020.337001 160.957551 
" clip-path="url(#p076c47fc32)" style="fill: none; stroke: #ffff00; stroke-width: 1.5; stroke-linecap: square"/>
   </g>
   <g id="line2d_59">
    <path d="M 865.680682 179.192557 
L 870.513692 179.43238 
L 875.346702 177.835052 
L 880.179712 178.411452 
L 885.012722 182.054431 
L 889.845732 185.580219 
L 894.678742 186.148068 
L 899.511752 184.349833 
L 904.344762 188.619454 
L 909.177772 191.067139 
L 914.010782 191.064016 
L 918.843792 191.166869 
L 923.676802 190.341156 
L 928.509812 194.498178 
L 933.342822 193.852043 
L 938.175831 188.189455 
L 943.008841 188.677647 
L 947.841851 191.334097 
L 952.674861 193.898271 
L 957.507871 192.278999 
L 962.340881 193.233891 
L 967.173891 192.098311 
L 972.006901 191.386059 
L 976.839911 192.13276 
L 981.672921 191.222767 
L 986.505931 188.799396 
L 991.338941 190.804665 
L 996.171951 193.052827 
L 1001.004961 190.095124 
L 1005.837971 186.146625 
L 1010.670981 184.339956 
L 1015.503991 183.219897 
L 1020.337001 182.648072 
" clip-path="url(#p076c47fc32)" style="fill: none; stroke: #800080; stroke-width: 1.5; stroke-linecap: square"/>
   </g>
   <g id="line2d_60">
    <path d="M 875.346702 210.24 
L 875.346702 43.92 
" clip-path="url(#p076c47fc32)" style="fill: none; stroke-dasharray: 5.55,2.4; stroke-dashoffset: 0; stroke: #808080; stroke-opacity: 0.7; stroke-width: 1.5"/>
   </g>
   <g id="line2d_61">
    <path d="M 1005.837971 210.24 
L 1005.837971 43.92 
" clip-path="url(#p076c47fc32)" style="fill: none; stroke-dasharray: 5.55,2.4; stroke-dashoffset: 0; stroke: #808080; stroke-opacity: 0.7; stroke-width: 1.5"/>
   </g>
   <g id="text_60">
    <text style="font: 12px 'Arial', sans-serif; text-anchor: middle" x="943.008841" y="37.92" transform="rotate(-0 943.008841 37.92)">1 Correct Trials</text>
   </g>
   <g id="legend_5">
    <g id="patch_25">
     <path d="M 885.100247 64.932272 
L 1000.917436 64.932272 
Q 1002.075436 64.932272 1002.075436 63.774272 
L 1002.075436 47.973 
Q 1002.075436 46.815 1000.917436 46.815 
L 885.100247 46.815 
Q 883.942247 46.815 883.942247 47.973 
L 883.942247 63.774272 
Q 883.942247 64.932272 885.100247 64.932272 
z
" style="fill: #ffffff; opacity: 0.8; stroke: #cccccc; stroke-linejoin: miter"/>
    </g>
    <g id="line2d_62">
     <path d="M 886.258247 51.248873 
L 892.048247 51.248873 
L 897.838247 51.248873 
" style="fill: none; stroke: #ffff00; stroke-width: 1.5; stroke-linecap: square"/>
    </g>
    <g id="text_61">
     <text style="font: 5.79px 'Arial', sans-serif; text-anchor: start" x="902.470247" y="53.275373" transform="rotate(-0 902.470247 53.275373)">Pref - PrevCount=1 - #Trials=15.0</text>
    </g>
    <g id="line2d_63">
     <path d="M 886.258247 59.439009 
L 892.048247 59.439009 
L 897.838247 59.439009 
" style="fill: none; stroke: #800080; stroke-width: 1.5; stroke-linecap: square"/>
    </g>
    <g id="text_62">
     <text style="font: 5.79px 'Arial', sans-serif; text-anchor: start" x="902.470247" y="61.465509" transform="rotate(-0 902.470247 61.465509)">NonPref - PrevCount=1 - #Trials=17.0</text>
    </g>
   </g>
  </g>
  <g id="axes_6">
   <g id="patch_26">
    <path d="M 1062.094207 210.24 
L 1232.216159 210.24 
L 1232.216159 43.92 
L 1062.094207 43.92 
z
" style="fill: #ffffff"/>
   </g>
   <g id="PolyCollection_9">
    <defs>
     <path id="m0e7253e97d" d="M 1069.827023 -265.940634 
L 1069.827023 -222.372227 
L 1074.660033 -223.930479 
L 1079.493043 -220.955918 
L 1084.326053 -218.152128 
L 1089.159063 -213.554324 
L 1093.992073 -212.426895 
L 1098.825083 -207.561619 
L 1103.658093 -198.737082 
L 1108.491103 -195.798692 
L 1113.324113 -195.46745 
L 1118.157123 -191.055735 
L 1122.990133 -185.980026 
L 1127.823143 -182.84053 
L 1132.656153 -182.584518 
L 1137.489163 -181.421042 
L 1142.322173 -173.346473 
L 1147.155183 -168.781491 
L 1151.988193 -168.744247 
L 1156.821203 -165.511545 
L 1161.654213 -162.783537 
L 1166.487223 -161.248788 
L 1171.320233 -158.017395 
L 1176.153243 -157.137111 
L 1180.986253 -155.913716 
L 1185.819263 -152.888894 
L 1190.652273 -151.642936 
L 1195.485283 -150.00638 
L 1200.318293 -148.634717 
L 1205.151303 -148.588098 
L 1209.984313 -149.519458 
L 1214.817323 -150.094418 
L 1219.650333 -149.232391 
L 1224.483343 -150.132059 
L 1224.483343 -175.307649 
L 1224.483343 -175.307649 
L 1219.650333 -175.364684 
L 1214.817323 -173.329725 
L 1209.984313 -170.486438 
L 1205.151303 -170.158249 
L 1200.318293 -172.01511 
L 1195.485283 -173.850933 
L 1190.652273 -174.093409 
L 1185.819263 -174.288894 
L 1180.986253 -178.184192 
L 1176.153243 -182.089542 
L 1171.320233 -187.166855 
L 1166.487223 -192.322751 
L 1161.654213 -195.359015 
L 1156.821203 -200.313412 
L 1151.988193 -205.285129 
L 1147.155183 -207.284421 
L 1142.322173 -211.661717 
L 1137.489163 -218.683417 
L 1132.656153 -219.451309 
L 1127.823143 -219.607928 
L 1122.990133 -223.086119 
L 1118.157123 -232.384101 
L 1113.324113 -239.539382 
L 1108.491103 -243.311854 
L 1103.658093 -245.948372 
L 1098.825083 -253.592832 
L 1093.992073 -258.11526 
L 1089.159063 -259.910182 
L 1084.326053 -264.446717 
L 1079.493043 -267.209172 
L 1074.660033 -269.006708 
L 1069.827023 -265.940634 
z
" style="stroke: #ffff00; stroke-opacity: 0.1"/>
    </defs>
    <g clip-path="url(#p830c86654f)">
     <use xlink:href="#m0e7253e97d" x="0" y="323.436915" style="fill: #ffff00; fill-opacity: 0.1; stroke: #ffff00; stroke-opacity: 0.1"/>
    </g>
   </g>
   <g id="PolyCollection_10">
    <defs>
     <path id="m56afebd0ea" d="M 1069.827023 -147.723984 
L 1069.827023 -140.923393 
L 1074.660033 -141.405244 
L 1079.493043 -141.406437 
L 1084.326053 -140.153714 
L 1089.159063 -139.610938 
L 1093.992073 -135.523646 
L 1098.825083 -134.565206 
L 1103.658093 -134.92001 
L 1108.491103 -131.346847 
L 1113.324113 -131.157518 
L 1118.157123 -129.388356 
L 1122.990133 -129.199355 
L 1127.823143 -126.626136 
L 1132.656153 -128.607217 
L 1137.489163 -133.056066 
L 1142.322173 -129.778637 
L 1147.155183 -130.017916 
L 1151.988193 -130.071315 
L 1156.821203 -128.442038 
L 1161.654213 -130.051784 
L 1166.487223 -133.301157 
L 1171.320233 -133.553871 
L 1176.153243 -131.870053 
L 1180.986253 -130.50449 
L 1185.819263 -130.546534 
L 1190.652273 -131.915347 
L 1195.485283 -136.978445 
L 1200.318293 -135.001034 
L 1205.151303 -134.038864 
L 1209.984313 -136.476765 
L 1214.817323 -135.709239 
L 1219.650333 -134.470204 
L 1224.483343 -137.332599 
L 1224.483343 -158.445588 
L 1224.483343 -158.445588 
L 1219.650333 -152.795884 
L 1214.817323 -152.638466 
L 1209.984313 -153.223231 
L 1205.151303 -150.90558 
L 1200.318293 -149.558143 
L 1195.485283 -150.798043 
L 1190.652273 -147.418785 
L 1185.819263 -145.658356 
L 1180.986253 -143.007474 
L 1176.153243 -141.657625 
L 1171.320233 -141.447189 
L 1166.487223 -139.699005 
L 1161.654213 -134.195712 
L 1156.821203 -132.549795 
L 1151.988193 -133.958125 
L 1147.155183 -136.477196 
L 1142.322173 -136.586128 
L 1137.489163 -138.75658 
L 1132.656153 -134.274285 
L 1127.823143 -132.916707 
L 1122.990133 -135.663719 
L 1118.157123 -137.311043 
L 1113.324113 -137.028286 
L 1108.491103 -136.278241 
L 1103.658093 -138.427671 
L 1098.825083 -139.438893 
L 1093.992073 -140.161745 
L 1089.159063 -143.011013 
L 1084.326053 -146.670142 
L 1079.493043 -149.237793 
L 1074.660033 -149.225887 
L 1069.827023 -147.723984 
z
" style="stroke: #800080; stroke-opacity: 0.1"/>
    </defs>
    <g clip-path="url(#p830c86654f)">
     <use xlink:href="#m56afebd0ea" x="0" y="323.436915" style="fill: #800080; fill-opacity: 0.1; stroke: #800080; stroke-opacity: 0.1"/>
    </g>
   </g>
   <g id="matplotlib.axis_11">
    <g id="xtick_15">
     <g id="line2d_64">
      <g>
       <use xlink:href="#me7f6264d9e" x="1079.493043" y="210.24" style="stroke: #000000; stroke-width: 0.8"/>
      </g>
     </g>
     <g id="text_63">
      <text style="font: 10px 'Arial', sans-serif" transform="translate(1048.52729 251.86503) rotate(-45)">Sampling</text>
     </g>
    </g>
    <g id="xtick_16">
     <g id="line2d_65">
      <g>
       <use xlink:href="#me7f6264d9e" x="1209.984313" y="210.24" style="stroke: #000000; stroke-width: 0.8"/>
      </g>
     </g>
     <g id="text_64">
      <text style="font: 10px 'Arial', sans-serif" transform="translate(1129.194048 301.686227) rotate(-45)">Movement to Lateral Port</text>
     </g>
    </g>
    <g id="text_65">
     <text style="font: 10px 'Arial', sans-serif; text-anchor: middle" x="1147.155183" y="314.249415" transform="rotate(-0 1147.155183 314.249415)">Normalized Time</text>
    </g>
   </g>
   <g id="matplotlib.axis_12">
    <g id="ytick_25">
     <g id="line2d_66">
      <g>
       <use xlink:href="#m62198befd8" x="1062.094207" y="194.458313" style="stroke: #000000; stroke-width: 0.8"/>
      </g>
     </g>
     <g id="text_66">
      <text style="font: 10px 'Arial', sans-serif; text-anchor: end" x="1055.094207" y="198.037219" transform="rotate(-0 1055.094207 198.037219)">−0.5</text>
     </g>
    </g>
    <g id="ytick_26">
     <g id="line2d_67">
      <g>
       <use xlink:href="#m62198befd8" x="1062.094207" y="159.532268" style="stroke: #000000; stroke-width: 0.8"/>
      </g>
     </g>
     <g id="text_67">
      <text style="font: 10px 'Arial', sans-serif; text-anchor: end" x="1055.094207" y="163.111175" transform="rotate(-0 1055.094207 163.111175)">0.0</text>
     </g>
    </g>
    <g id="ytick_27">
     <g id="line2d_68">
      <g>
       <use xlink:href="#m62198befd8" x="1062.094207" y="124.606224" style="stroke: #000000; stroke-width: 0.8"/>
      </g>
     </g>
     <g id="text_68">
      <text style="font: 10px 'Arial', sans-serif; text-anchor: end" x="1055.094207" y="128.18513" transform="rotate(-0 1055.094207 128.18513)">0.5</text>
     </g>
    </g>
    <g id="ytick_28">
     <g id="line2d_69">
      <g>
       <use xlink:href="#m62198befd8" x="1062.094207" y="89.68018" style="stroke: #000000; stroke-width: 0.8"/>
      </g>
     </g>
     <g id="text_69">
      <text style="font: 10px 'Arial', sans-serif; text-anchor: end" x="1055.094207" y="93.259086" transform="rotate(-0 1055.094207 93.259086)">1.0</text>
     </g>
    </g>
    <g id="ytick_29">
     <g id="line2d_70">
      <g>
       <use xlink:href="#m62198befd8" x="1062.094207" y="54.754136" style="stroke: #000000; stroke-width: 0.8"/>
      </g>
     </g>
     <g id="text_70">
      <text style="font: 10px 'Arial', sans-serif; text-anchor: end" x="1055.094207" y="58.333042" transform="rotate(-0 1055.094207 58.333042)">1.5</text>
     </g>
    </g>
    <g id="text_71">
     <text style="font: 10px 'Arial', sans-serif; text-anchor: middle" x="1029.248895" y="127.08" transform="rotate(-90 1029.248895 127.08)">Mean Activity</text>
    </g>
   </g>
   <g id="line2d_71">
    <path d="M 1069.827023 79.280484 
L 1074.660033 76.968321 
L 1079.493043 79.35437 
L 1084.326053 82.137492 
L 1089.159063 86.704662 
L 1093.992073 88.165837 
L 1098.825083 92.859689 
L 1103.658093 101.094186 
L 1108.491103 103.881642 
L 1113.324113 105.933499 
L 1118.157123 111.716996 
L 1122.990133 118.903841 
L 1127.823143 122.212685 
L 1132.656153 122.419 
L 1137.489163 123.384684 
L 1142.322173 130.93282 
L 1147.155183 135.403958 
L 1151.988193 136.422227 
L 1156.821203 140.524437 
L 1161.654213 144.365638 
L 1166.487223 146.651145 
L 1171.320233 150.844789 
L 1176.153243 153.823588 
L 1180.986253 156.38796 
L 1185.819263 159.84802 
L 1190.652273 160.568741 
L 1195.485283 161.508259 
L 1200.318293 163.112001 
L 1205.151303 164.063741 
L 1209.984313 163.433967 
L 1214.817323 161.724843 
L 1219.650333 161.138377 
L 1224.483343 160.71706 
" clip-path="url(#p830c86654f)" style="fill: none; stroke: #ffff00; stroke-width: 1.5; stroke-linecap: square"/>
   </g>
   <g id="line2d_72">
    <path d="M 1069.827023 179.113226 
L 1074.660033 178.121349 
L 1079.493043 178.1148 
L 1084.326053 180.024986 
L 1089.159063 182.125939 
L 1093.992073 185.594219 
L 1098.825083 186.434865 
L 1103.658093 186.763074 
L 1108.491103 189.624371 
L 1113.324113 189.344012 
L 1118.157123 190.087215 
L 1122.990133 191.005377 
L 1127.823143 193.665493 
L 1132.656153 191.996163 
L 1137.489163 187.530592 
L 1142.322173 190.254532 
L 1147.155183 190.189359 
L 1151.988193 191.422195 
L 1156.821203 192.940997 
L 1161.654213 191.313167 
L 1166.487223 186.936834 
L 1171.320233 185.936384 
L 1176.153243 186.673076 
L 1180.986253 186.680932 
L 1185.819263 185.33447 
L 1190.652273 183.769848 
L 1195.485283 179.548671 
L 1200.318293 181.157326 
L 1205.151303 180.964693 
L 1209.984313 178.586917 
L 1214.817323 179.263062 
L 1219.650333 179.803871 
L 1224.483343 175.547822 
" clip-path="url(#p830c86654f)" style="fill: none; stroke: #800080; stroke-width: 1.5; stroke-linecap: square"/>
   </g>
   <g id="line2d_73">
    <path d="M 1079.493043 210.24 
L 1079.493043 43.92 
" clip-path="url(#p830c86654f)" style="fill: none; stroke-dasharray: 5.55,2.4; stroke-dashoffset: 0; stroke: #808080; stroke-opacity: 0.7; stroke-width: 1.5"/>
   </g>
   <g id="line2d_74">
    <path d="M 1209.984313 210.24 
L 1209.984313 43.92 
" clip-path="url(#p830c86654f)" style="fill: none; stroke-dasharray: 5.55,2.4; stroke-dashoffset: 0; stroke: #808080; stroke-opacity: 0.7; stroke-width: 1.5"/>
   </g>
   <g id="text_72">
    <text style="font: 12px 'Arial', sans-serif; text-anchor: middle" x="1147.155183" y="37.92" transform="rotate(-0 1147.155183 37.92)">2 Correct Trials</text>
   </g>
   <g id="legend_6">
    <g id="patch_27">
     <path d="M 1089.246588 64.932272 
L 1205.063777 64.932272 
Q 1206.221777 64.932272 1206.221777 63.774272 
L 1206.221777 47.973 
Q 1206.221777 46.815 1205.063777 46.815 
L 1089.246588 46.815 
Q 1088.088588 46.815 1088.088588 47.973 
L 1088.088588 63.774272 
Q 1088.088588 64.932272 1089.246588 64.932272 
z
" style="fill: #ffffff; opacity: 0.8; stroke: #cccccc; stroke-linejoin: miter"/>
    </g>
    <g id="line2d_75">
     <path d="M 1090.404588 51.248873 
L 1096.194588 51.248873 
L 1101.984588 51.248873 
" style="fill: none; stroke: #ffff00; stroke-width: 1.5; stroke-linecap: square"/>
    </g>
    <g id="text_73">
     <text style="font: 5.79px 'Arial', sans-serif; text-anchor: start" x="1106.616588" y="53.275373" transform="rotate(-0 1106.616588 53.275373)">Pref - PrevCount=2 - #Trials=12.0</text>
    </g>
    <g id="line2d_76">
     <path d="M 1090.404588 59.439009 
L 1096.194588 59.439009 
L 1101.984588 59.439009 
" style="fill: none; stroke: #800080; stroke-width: 1.5; stroke-linecap: square"/>
    </g>
    <g id="text_74">
     <text style="font: 5.79px 'Arial', sans-serif; text-anchor: start" x="1106.616588" y="61.465509" transform="rotate(-0 1106.616588 61.465509)">NonPref - PrevCount=2 - #Trials=16.0</text>
    </g>
   </g>
  </g>
  <g id="axes_7">
   <g id="patch_28">
    <path d="M 1266.240549 210.24 
L 1436.3625 210.24 
L 1436.3625 43.92 
L 1266.240549 43.92 
z
" style="fill: #ffffff"/>
   </g>
   <g id="PolyCollection_11">
    <defs>
     <path id="m6b9f4babf3" d="M 1273.973365 -257.868398 
L 1273.973365 -241.158554 
L 1278.806375 -239.685455 
L 1283.639385 -239.752521 
L 1288.472395 -238.0983 
L 1293.305405 -235.317151 
L 1298.138415 -230.298882 
L 1302.971425 -225.9524 
L 1307.804435 -219.810758 
L 1312.637445 -216.255313 
L 1317.470455 -212.25391 
L 1322.303465 -206.219516 
L 1327.136475 -200.639056 
L 1331.969484 -194.659872 
L 1336.802494 -191.145478 
L 1341.635504 -187.815284 
L 1346.468514 -184.291892 
L 1351.301524 -181.997499 
L 1356.134534 -178.290608 
L 1360.967544 -176.26232 
L 1365.800554 -175.844388 
L 1370.633564 -173.85562 
L 1375.466574 -172.129378 
L 1380.299584 -170.623678 
L 1385.132594 -166.529889 
L 1389.965604 -163.669581 
L 1394.798614 -162.530893 
L 1399.631624 -161.692487 
L 1404.464634 -160.171869 
L 1409.297644 -158.287703 
L 1414.130654 -156.975166 
L 1418.963664 -157.100697 
L 1423.796674 -158.848351 
L 1428.629684 -161.114781 
L 1428.629684 -168.254423 
L 1428.629684 -168.254423 
L 1423.796674 -165.623581 
L 1418.963664 -163.775524 
L 1414.130654 -163.838876 
L 1409.297644 -165.292634 
L 1404.464634 -167.377343 
L 1399.631624 -169.296335 
L 1394.798614 -170.47277 
L 1389.965604 -171.997763 
L 1385.132594 -175.453385 
L 1380.299584 -180.13117 
L 1375.466574 -181.856756 
L 1370.633564 -183.715463 
L 1365.800554 -185.634166 
L 1360.967544 -186.122435 
L 1356.134534 -188.935143 
L 1351.301524 -193.54609 
L 1346.468514 -196.515551 
L 1341.635504 -200.303049 
L 1336.802494 -203.724829 
L 1331.969484 -207.731623 
L 1327.136475 -214.60389 
L 1322.303465 -220.658881 
L 1317.470455 -227.184286 
L 1312.637445 -231.399652 
L 1307.804435 -235.360743 
L 1302.971425 -242.677169 
L 1298.138415 -248.121815 
L 1293.305405 -253.636158 
L 1288.472395 -255.473656 
L 1283.639385 -255.970171 
L 1278.806375 -256.015153 
L 1273.973365 -257.868398 
z
" style="stroke: #ffff00; stroke-opacity: 0.1"/>
    </defs>
    <g clip-path="url(#pf692ef16e1)">
     <use xlink:href="#m6b9f4babf3" x="0" y="323.436915" style="fill: #ffff00; fill-opacity: 0.1; stroke: #ffff00; stroke-opacity: 0.1"/>
    </g>
   </g>
   <g id="PolyCollection_12">
    <defs>
     <path id="mcadd86f38a" d="M 1273.973365 -147.999108 
L 1273.973365 -144.956236 
L 1278.806375 -146.019586 
L 1283.639385 -145.40975 
L 1288.472395 -143.197949 
L 1293.305405 -140.668415 
L 1298.138415 -140.555699 
L 1302.971425 -138.263023 
L 1307.804435 -135.794924 
L 1312.637445 -135.325257 
L 1317.470455 -133.737759 
L 1322.303465 -133.218961 
L 1327.136475 -133.032588 
L 1331.969484 -134.213307 
L 1336.802494 -135.683943 
L 1341.635504 -136.181522 
L 1346.468514 -135.210292 
L 1351.301524 -132.865063 
L 1356.134534 -132.035327 
L 1360.967544 -134.428629 
L 1365.800554 -134.687428 
L 1370.633564 -134.572797 
L 1375.466574 -135.717041 
L 1380.299584 -134.967655 
L 1385.132594 -134.039907 
L 1389.965604 -134.853096 
L 1394.798614 -135.088651 
L 1399.631624 -135.789567 
L 1404.464634 -136.855116 
L 1409.297644 -137.632422 
L 1414.130654 -139.075863 
L 1418.963664 -138.162316 
L 1423.796674 -138.797642 
L 1428.629684 -140.700333 
L 1428.629684 -146.026093 
L 1428.629684 -146.026093 
L 1423.796674 -144.090087 
L 1418.963664 -143.376278 
L 1414.130654 -143.742194 
L 1409.297644 -141.444318 
L 1404.464634 -140.023059 
L 1399.631624 -139.051918 
L 1394.798614 -138.201632 
L 1389.965604 -137.684741 
L 1385.132594 -137.05547 
L 1380.299584 -138.53119 
L 1375.466574 -139.193513 
L 1370.633564 -138.245074 
L 1365.800554 -138.832655 
L 1360.967544 -138.807645 
L 1356.134534 -136.637791 
L 1351.301524 -137.662903 
L 1346.468514 -139.568329 
L 1341.635504 -140.414429 
L 1336.802494 -139.533719 
L 1331.969484 -137.711012 
L 1327.136475 -136.276615 
L 1322.303465 -136.564994 
L 1317.470455 -136.844111 
L 1312.637445 -138.290325 
L 1307.804435 -138.81888 
L 1302.971425 -141.68778 
L 1298.138415 -143.905704 
L 1293.305405 -144.192126 
L 1288.472395 -146.853659 
L 1283.639385 -149.044156 
L 1278.806375 -149.374466 
L 1273.973365 -147.999108 
z
" style="stroke: #800080; stroke-opacity: 0.1"/>
    </defs>
    <g clip-path="url(#pf692ef16e1)">
     <use xlink:href="#mcadd86f38a" x="0" y="323.436915" style="fill: #800080; fill-opacity: 0.1; stroke: #800080; stroke-opacity: 0.1"/>
    </g>
   </g>
   <g id="matplotlib.axis_13">
    <g id="xtick_17">
     <g id="line2d_77">
      <g>
       <use xlink:href="#me7f6264d9e" x="1283.639385" y="210.24" style="stroke: #000000; stroke-width: 0.8"/>
      </g>
     </g>
     <g id="text_75">
      <text style="font: 10px 'Arial', sans-serif" transform="translate(1252.673632 251.86503) rotate(-45)">Sampling</text>
     </g>
    </g>
    <g id="xtick_18">
     <g id="line2d_78">
      <g>
       <use xlink:href="#me7f6264d9e" x="1414.130654" y="210.24" style="stroke: #000000; stroke-width: 0.8"/>
      </g>
     </g>
     <g id="text_76">
      <text style="font: 10px 'Arial', sans-serif" transform="translate(1333.34039 301.686227) rotate(-45)">Movement to Lateral Port</text>
     </g>
    </g>
    <g id="text_77">
     <text style="font: 10px 'Arial', sans-serif; text-anchor: middle" x="1351.301524" y="314.249415" transform="rotate(-0 1351.301524 314.249415)">Normalized Time</text>
    </g>
   </g>
   <g id="matplotlib.axis_14">
    <g id="ytick_30">
     <g id="line2d_79">
      <g>
       <use xlink:href="#m62198befd8" x="1266.240549" y="194.458313" style="stroke: #000000; stroke-width: 0.8"/>
      </g>
     </g>
     <g id="text_78">
      <text style="font: 10px 'Arial', sans-serif; text-anchor: end" x="1259.240549" y="198.037219" transform="rotate(-0 1259.240549 198.037219)">−0.5</text>
     </g>
    </g>
    <g id="ytick_31">
     <g id="line2d_80">
      <g>
       <use xlink:href="#m62198befd8" x="1266.240549" y="159.532268" style="stroke: #000000; stroke-width: 0.8"/>
      </g>
     </g>
     <g id="text_79">
      <text style="font: 10px 'Arial', sans-serif; text-anchor: end" x="1259.240549" y="163.111175" transform="rotate(-0 1259.240549 163.111175)">0.0</text>
     </g>
    </g>
    <g id="ytick_32">
     <g id="line2d_81">
      <g>
       <use xlink:href="#m62198befd8" x="1266.240549" y="124.606224" style="stroke: #000000; stroke-width: 0.8"/>
      </g>
     </g>
     <g id="text_80">
      <text style="font: 10px 'Arial', sans-serif; text-anchor: end" x="1259.240549" y="128.18513" transform="rotate(-0 1259.240549 128.18513)">0.5</text>
     </g>
    </g>
    <g id="ytick_33">
     <g id="line2d_82">
      <g>
       <use xlink:href="#m62198befd8" x="1266.240549" y="89.68018" style="stroke: #000000; stroke-width: 0.8"/>
      </g>
     </g>
     <g id="text_81">
      <text style="font: 10px 'Arial', sans-serif; text-anchor: end" x="1259.240549" y="93.259086" transform="rotate(-0 1259.240549 93.259086)">1.0</text>
     </g>
    </g>
    <g id="ytick_34">
     <g id="line2d_83">
      <g>
       <use xlink:href="#m62198befd8" x="1266.240549" y="54.754136" style="stroke: #000000; stroke-width: 0.8"/>
      </g>
     </g>
     <g id="text_82">
      <text style="font: 10px 'Arial', sans-serif; text-anchor: end" x="1259.240549" y="58.333042" transform="rotate(-0 1259.240549 58.333042)">1.5</text>
     </g>
    </g>
    <g id="text_83">
     <text style="font: 10px 'Arial', sans-serif; text-anchor: middle" x="1233.395236" y="127.08" transform="rotate(-90 1233.395236 127.08)">Mean Activity</text>
    </g>
   </g>
   <g id="line2d_84">
    <path d="M 1273.973365 73.923439 
L 1278.806375 75.586611 
L 1283.639385 75.575569 
L 1288.472395 76.650937 
L 1293.305405 78.96026 
L 1298.138415 84.226566 
L 1302.971425 89.122128 
L 1307.804435 95.851162 
L 1312.637445 99.609432 
L 1317.470455 103.717817 
L 1322.303465 109.997716 
L 1327.136475 115.815441 
L 1331.969484 122.241168 
L 1336.802494 126.001762 
L 1341.635504 129.377749 
L 1346.468514 133.033193 
L 1351.301524 135.66512 
L 1356.134534 139.824039 
L 1360.967544 142.244537 
L 1365.800554 142.697637 
L 1370.633564 144.651373 
L 1375.466574 146.443848 
L 1380.299584 148.059491 
L 1385.132594 152.445278 
L 1389.965604 155.603243 
L 1394.798614 156.935083 
L 1399.631624 157.942504 
L 1404.464634 159.662309 
L 1409.297644 161.646746 
L 1414.130654 163.029894 
L 1418.963664 162.998804 
L 1423.796674 161.200949 
L 1428.629684 158.752313 
" clip-path="url(#pf692ef16e1)" style="fill: none; stroke: #ffff00; stroke-width: 1.5; stroke-linecap: square"/>
   </g>
   <g id="line2d_85">
    <path d="M 1273.973365 176.959242 
L 1278.806375 175.739889 
L 1283.639385 176.209961 
L 1288.472395 178.41111 
L 1293.305405 181.006644 
L 1298.138415 181.206214 
L 1302.971425 183.461513 
L 1307.804435 186.130012 
L 1312.637445 186.629124 
L 1317.470455 188.145979 
L 1322.303465 188.544937 
L 1327.136475 188.782313 
L 1331.969484 187.474755 
L 1336.802494 185.828083 
L 1341.635504 185.138939 
L 1346.468514 186.047604 
L 1351.301524 188.172932 
L 1356.134534 189.100355 
L 1360.967544 186.818778 
L 1365.800554 186.676873 
L 1370.633564 187.027979 
L 1375.466574 185.981637 
L 1380.299584 186.687492 
L 1385.132594 187.889226 
L 1389.965604 187.167996 
L 1394.798614 186.791773 
L 1399.631624 186.016172 
L 1404.464634 184.997827 
L 1409.297644 183.898544 
L 1414.130654 182.027886 
L 1418.963664 182.667618 
L 1423.796674 181.99305 
L 1428.629684 180.073702 
" clip-path="url(#pf692ef16e1)" style="fill: none; stroke: #800080; stroke-width: 1.5; stroke-linecap: square"/>
   </g>
   <g id="line2d_86">
    <path d="M 1283.639385 210.24 
L 1283.639385 43.92 
" clip-path="url(#pf692ef16e1)" style="fill: none; stroke-dasharray: 5.55,2.4; stroke-dashoffset: 0; stroke: #808080; stroke-opacity: 0.7; stroke-width: 1.5"/>
   </g>
   <g id="line2d_87">
    <path d="M 1414.130654 210.24 
L 1414.130654 43.92 
" clip-path="url(#pf692ef16e1)" style="fill: none; stroke-dasharray: 5.55,2.4; stroke-dashoffset: 0; stroke: #808080; stroke-opacity: 0.7; stroke-width: 1.5"/>
   </g>
   <g id="text_84">
    <text style="font: 12px 'Arial', sans-serif; text-anchor: middle" x="1351.301524" y="37.92" transform="rotate(-0 1351.301524 37.92)">3 Correct Trials</text>
   </g>
   <g id="legend_7">
    <g id="patch_29">
     <path d="M 1293.39293 207.345 
L 1409.210119 207.345 
Q 1410.368119 207.345 1410.368119 206.187 
L 1410.368119 190.385728 
Q 1410.368119 189.227728 1409.210119 189.227728 
L 1293.39293 189.227728 
Q 1292.23493 189.227728 1292.23493 190.385728 
L 1292.23493 206.187 
Q 1292.23493 207.345 1293.39293 207.345 
z
" style="fill: #ffffff; opacity: 0.8; stroke: #cccccc; stroke-linejoin: miter"/>
    </g>
    <g id="line2d_88">
     <path d="M 1294.55093 193.661602 
L 1300.34093 193.661602 
L 1306.13093 193.661602 
" style="fill: none; stroke: #ffff00; stroke-width: 1.5; stroke-linecap: square"/>
    </g>
    <g id="text_85">
     <text style="font: 5.79px 'Arial', sans-serif; text-anchor: start" x="1310.76293" y="195.688102" transform="rotate(-0 1310.76293 195.688102)">Pref - PrevCount=3 - #Trials=81.0</text>
    </g>
    <g id="line2d_89">
     <path d="M 1294.55093 201.851738 
L 1300.34093 201.851738 
L 1306.13093 201.851738 
" style="fill: none; stroke: #800080; stroke-width: 1.5; stroke-linecap: square"/>
    </g>
    <g id="text_86">
     <text style="font: 5.79px 'Arial', sans-serif; text-anchor: start" x="1310.76293" y="203.878238" transform="rotate(-0 1310.76293 203.878238)">NonPref - PrevCount=3 - #Trials=68.0</text>
    </g>
   </g>
  </g>
  <g id="text_87">
   <text style="font: 12px 'Arial', sans-serif; text-anchor: middle" x="716.3625" y="15.935625" transform="rotate(-0 716.3625 15.935625)">Balance Change - ALM - GP4_85_s7_L70_D250_ALM_3 - PrevChoiceLeft</text>
  </g>
 </g>
 <defs>
  <clipPath id="p75ab98cf3a">
   <rect x="41.3625" y="43.92" width="170.121951" height="166.32"/>
  </clipPath>
  <clipPath id="p5f971bbc6b">
   <rect x="245.508841" y="43.92" width="170.121951" height="166.32"/>
  </clipPath>
  <clipPath id="p0b9b0709b4">
   <rect x="449.655183" y="43.92" width="170.121951" height="166.32"/>
  </clipPath>
  <clipPath id="pa4fab65fb1">
   <rect x="653.801524" y="43.92" width="170.121951" height="166.32"/>
  </clipPath>
  <clipPath id="p076c47fc32">
   <rect x="857.947866" y="43.92" width="170.121951" height="166.32"/>
  </clipPath>
  <clipPath id="p830c86654f">
   <rect x="1062.094207" y="43.92" width="170.121951" height="166.32"/>
  </clipPath>
  <clipPath id="pf692ef16e1">
   <rect x="1266.240549" y="43.92" width="170.121951" height="166.32"/>
  </clipPath>
 </defs>
</svg>
