<?xml version="1.0" encoding="utf-8" standalone="no"?>
<!DOCTYPE svg PUBLIC "-//W3C//DTD SVG 1.1//EN"
  "http://www.w3.org/Graphics/SVG/1.1/DTD/svg11.dtd">
<svg xmlns:xlink="http://www.w3.org/1999/xlink" width="1449.403125pt" height="323.436915pt" viewBox="0 0 1449.403125 323.436915" xmlns="http://www.w3.org/2000/svg" version="1.1">
 <metadata>
  <rdf:RDF xmlns:dc="http://purl.org/dc/elements/1.1/" xmlns:cc="http://creativecommons.org/ns#" xmlns:rdf="http://www.w3.org/1999/02/22-rdf-syntax-ns#">
   <cc:Work>
    <dc:type rdf:resource="http://purl.org/dc/dcmitype/StillImage"/>
    <dc:date>2025-12-27T14:02:38.016993</dc:date>
    <dc:format>image/svg+xml</dc:format>
    <dc:creator>
     <cc:Agent>
      <dc:title>Matplotlib v3.8.0, https://matplotlib.org/</dc:title>
     </cc:Agent>
    </dc:creator>
   </cc:Work>
  </rdf:RDF>
 </metadata>
 <defs>
  <style type="text/css">*{stroke-linejoin: round; stroke-linecap: butt}</style>
 </defs>
 <g id="figure_1">
  <g id="patch_1">
   <path d="M 0 323.436915 
L 1449.403125 323.436915 
L 1449.403125 0 
L 0 0 
z
" style="fill: #ffffff"/>
  </g>
  <g id="axes_1">
   <g id="patch_2">
    <path d="M 47.203125 210.24 
L 217.325076 210.24 
L 217.325076 43.92 
L 47.203125 43.92 
z
" style="fill: #ffffff"/>
   </g>
   <g id="patch_3">
    <path d="M 54.935941 182.092775 
L 64.033372 182.092775 
L 64.033372 157.638978 
L 54.935941 157.638978 
z
" clip-path="url(#pc50e5f3ae5)" style="fill: #ffff00"/>
   </g>
   <g id="patch_4">
    <path d="M 77.679517 182.092775 
L 86.776948 182.092775 
L 86.776948 142.202944 
L 77.679517 142.202944 
z
" clip-path="url(#pc50e5f3ae5)" style="fill: #ffff00"/>
   </g>
   <g id="patch_5">
    <path d="M 100.423094 182.092775 
L 109.520524 182.092775 
L 109.520524 136.850148 
L 100.423094 136.850148 
z
" clip-path="url(#pc50e5f3ae5)" style="fill: #ffff00"/>
   </g>
   <g id="patch_6">
    <path d="M 145.910246 182.092775 
L 155.007677 182.092775 
L 155.007677 77.302602 
L 145.910246 77.302602 
z
" clip-path="url(#pc50e5f3ae5)" style="fill: #ffff00"/>
   </g>
   <g id="patch_7">
    <path d="M 168.653823 182.092775 
L 177.751253 182.092775 
L 177.751253 66.530759 
L 168.653823 66.530759 
z
" clip-path="url(#pc50e5f3ae5)" style="fill: #ffff00"/>
   </g>
   <g id="patch_8">
    <path d="M 191.397399 182.092775 
L 200.49483 182.092775 
L 200.49483 62.92882 
L 191.397399 62.92882 
z
" clip-path="url(#pc50e5f3ae5)" style="fill: #ffff00"/>
   </g>
   <g id="patch_9">
    <path d="M 64.033372 182.092775 
L 73.130802 182.092775 
L 73.130802 184.942719 
L 64.033372 184.942719 
z
" clip-path="url(#pc50e5f3ae5)" style="fill: #800080"/>
   </g>
   <g id="patch_10">
    <path d="M 86.776948 182.092775 
L 95.874378 182.092775 
L 95.874378 64.336641 
L 86.776948 64.336641 
z
" clip-path="url(#pc50e5f3ae5)" style="fill: #800080"/>
   </g>
   <g id="patch_11">
    <path d="M 109.520524 182.092775 
L 118.617955 182.092775 
L 118.617955 114.949319 
L 109.520524 114.949319 
z
" clip-path="url(#pc50e5f3ae5)" style="fill: #800080"/>
   </g>
   <g id="patch_12">
    <path d="M 155.007677 182.092775 
L 164.105108 182.092775 
L 164.105108 198.593578 
L 155.007677 198.593578 
z
" clip-path="url(#pc50e5f3ae5)" style="fill: #800080"/>
   </g>
   <g id="patch_13">
    <path d="M 177.751253 182.092775 
L 186.848684 182.092775 
L 186.848684 201.147138 
L 177.751253 201.147138 
z
" clip-path="url(#pc50e5f3ae5)" style="fill: #800080"/>
   </g>
   <g id="patch_14">
    <path d="M 200.49483 182.092775 
L 209.59226 182.092775 
L 209.59226 199.701239 
L 200.49483 199.701239 
z
" clip-path="url(#pc50e5f3ae5)" style="fill: #800080"/>
   </g>
   <g id="matplotlib.axis_1">
    <g id="xtick_1">
     <g id="line2d_1">
      <defs>
       <path id="m6673cba1f9" d="M 0 0 
L 0 3.5 
" style="stroke: #000000; stroke-width: 0.8"/>
      </defs>
      <g>
       <use xlink:href="#m6673cba1f9" x="64.033372" y="210.24" style="stroke: #000000; stroke-width: 0.8"/>
      </g>
     </g>
     <g id="text_1">
      <text style="font: 10px 'Arial', sans-serif; text-anchor: middle" x="64.033372" y="224.397813" transform="rotate(-0 64.033372 224.397813)">−3</text>
     </g>
    </g>
    <g id="xtick_2">
     <g id="line2d_2">
      <g>
       <use xlink:href="#m6673cba1f9" x="86.776948" y="210.24" style="stroke: #000000; stroke-width: 0.8"/>
      </g>
     </g>
     <g id="text_2">
      <text style="font: 10px 'Arial', sans-serif; text-anchor: middle" x="86.776948" y="224.397813" transform="rotate(-0 86.776948 224.397813)">−2</text>
     </g>
    </g>
    <g id="xtick_3">
     <g id="line2d_3">
      <g>
       <use xlink:href="#m6673cba1f9" x="109.520524" y="210.24" style="stroke: #000000; stroke-width: 0.8"/>
      </g>
     </g>
     <g id="text_3">
      <text style="font: 10px 'Arial', sans-serif; text-anchor: middle" x="109.520524" y="224.397813" transform="rotate(-0 109.520524 224.397813)">−1</text>
     </g>
    </g>
    <g id="xtick_4">
     <g id="line2d_4">
      <g>
       <use xlink:href="#m6673cba1f9" x="155.007677" y="210.24" style="stroke: #000000; stroke-width: 0.8"/>
      </g>
     </g>
     <g id="text_4">
      <text style="font: 10px 'Arial', sans-serif; text-anchor: middle" x="155.007677" y="224.397813" transform="rotate(-0 155.007677 224.397813)">1</text>
     </g>
    </g>
    <g id="xtick_5">
     <g id="line2d_5">
      <g>
       <use xlink:href="#m6673cba1f9" x="177.751253" y="210.24" style="stroke: #000000; stroke-width: 0.8"/>
      </g>
     </g>
     <g id="text_5">
      <text style="font: 10px 'Arial', sans-serif; text-anchor: middle" x="177.751253" y="224.397813" transform="rotate(-0 177.751253 224.397813)">2</text>
     </g>
    </g>
    <g id="xtick_6">
     <g id="line2d_6">
      <g>
       <use xlink:href="#m6673cba1f9" x="200.49483" y="210.24" style="stroke: #000000; stroke-width: 0.8"/>
      </g>
     </g>
     <g id="text_6">
      <text style="font: 10px 'Arial', sans-serif; text-anchor: middle" x="200.49483" y="224.397813" transform="rotate(-0 200.49483 224.397813)">3</text>
     </g>
    </g>
    <g id="text_7">
     <text style="font: 10px 'Arial', sans-serif; text-anchor: middle" x="132.264101" y="237.543125" transform="rotate(-0 132.264101 237.543125)">PrevOutcomeCount</text>
    </g>
   </g>
   <g id="matplotlib.axis_2">
    <g id="ytick_1">
     <g id="line2d_7">
      <defs>
       <path id="m806050a2df" d="M 0 0 
L -3.5 0 
" style="stroke: #000000; stroke-width: 0.8"/>
      </defs>
      <g>
       <use xlink:href="#m806050a2df" x="47.203125" y="207.005341" style="stroke: #000000; stroke-width: 0.8"/>
      </g>
     </g>
     <g id="text_8">
      <text style="font: 10px 'Arial', sans-serif; text-anchor: end" x="40.203125" y="210.584247" transform="rotate(-0 40.203125 210.584247)">−0.5</text>
     </g>
    </g>
    <g id="ytick_2">
     <g id="line2d_8">
      <g>
       <use xlink:href="#m806050a2df" x="47.203125" y="182.092775" style="stroke: #000000; stroke-width: 0.8"/>
      </g>
     </g>
     <g id="text_9">
      <text style="font: 10px 'Arial', sans-serif; text-anchor: end" x="40.203125" y="185.671681" transform="rotate(-0 40.203125 185.671681)">0.0</text>
     </g>
    </g>
    <g id="ytick_3">
     <g id="line2d_9">
      <g>
       <use xlink:href="#m806050a2df" x="47.203125" y="157.180209" style="stroke: #000000; stroke-width: 0.8"/>
      </g>
     </g>
     <g id="text_10">
      <text style="font: 10px 'Arial', sans-serif; text-anchor: end" x="40.203125" y="160.759115" transform="rotate(-0 40.203125 160.759115)">0.5</text>
     </g>
    </g>
    <g id="ytick_4">
     <g id="line2d_10">
      <g>
       <use xlink:href="#m806050a2df" x="47.203125" y="132.267643" style="stroke: #000000; stroke-width: 0.8"/>
      </g>
     </g>
     <g id="text_11">
      <text style="font: 10px 'Arial', sans-serif; text-anchor: end" x="40.203125" y="135.846549" transform="rotate(-0 40.203125 135.846549)">1.0</text>
     </g>
    </g>
    <g id="ytick_5">
     <g id="line2d_11">
      <g>
       <use xlink:href="#m806050a2df" x="47.203125" y="107.355077" style="stroke: #000000; stroke-width: 0.8"/>
      </g>
     </g>
     <g id="text_12">
      <text style="font: 10px 'Arial', sans-serif; text-anchor: end" x="40.203125" y="110.933983" transform="rotate(-0 40.203125 110.933983)">1.5</text>
     </g>
    </g>
    <g id="ytick_6">
     <g id="line2d_12">
      <g>
       <use xlink:href="#m806050a2df" x="47.203125" y="82.442511" style="stroke: #000000; stroke-width: 0.8"/>
      </g>
     </g>
     <g id="text_13">
      <text style="font: 10px 'Arial', sans-serif; text-anchor: end" x="40.203125" y="86.021417" transform="rotate(-0 40.203125 86.021417)">2.0</text>
     </g>
    </g>
    <g id="ytick_7">
     <g id="line2d_13">
      <g>
       <use xlink:href="#m806050a2df" x="47.203125" y="57.529945" style="stroke: #000000; stroke-width: 0.8"/>
      </g>
     </g>
     <g id="text_14">
      <text style="font: 10px 'Arial', sans-serif; text-anchor: end" x="40.203125" y="61.108851" transform="rotate(-0 40.203125 61.108851)">2.5</text>
     </g>
    </g>
    <g id="text_15">
     <text style="font: 10px 'Arial', sans-serif; text-anchor: middle" x="14.357813" y="127.08" transform="rotate(-90 14.357813 127.08)">Max Activity</text>
    </g>
   </g>
   <g id="LineCollection_1">
    <path d="M 59.484656 191.528479 
L 59.484656 123.749477 
" clip-path="url(#pc50e5f3ae5)" style="fill: none; stroke: #000000; stroke-width: 1.5"/>
    <path d="M 82.228233 173.88759 
L 82.228233 110.518298 
" clip-path="url(#pc50e5f3ae5)" style="fill: none; stroke: #000000; stroke-width: 1.5"/>
    <path d="M 104.971809 149.675729 
L 104.971809 124.024567 
" clip-path="url(#pc50e5f3ae5)" style="fill: none; stroke: #000000; stroke-width: 1.5"/>
    <path d="M 150.458962 95.624831 
L 150.458962 58.980374 
" clip-path="url(#pc50e5f3ae5)" style="fill: none; stroke: #000000; stroke-width: 1.5"/>
    <path d="M 173.202538 81.581519 
L 173.202538 51.48 
" clip-path="url(#pc50e5f3ae5)" style="fill: none; stroke: #000000; stroke-width: 1.5"/>
    <path d="M 195.946114 71.049519 
L 195.946114 54.808122 
" clip-path="url(#pc50e5f3ae5)" style="fill: none; stroke: #000000; stroke-width: 1.5"/>
   </g>
   <g id="LineCollection_2">
    <path d="M 68.582087 196.005917 
L 68.582087 173.879521 
" clip-path="url(#pc50e5f3ae5)" style="fill: none; stroke: #000000; stroke-width: 1.5"/>
    <path d="M 91.325663 72.550464 
L 91.325663 56.122817 
" clip-path="url(#pc50e5f3ae5)" style="fill: none; stroke: #000000; stroke-width: 1.5"/>
    <path d="M 114.06924 134.166033 
L 114.06924 95.732604 
" clip-path="url(#pc50e5f3ae5)" style="fill: none; stroke: #000000; stroke-width: 1.5"/>
    <path d="M 159.556392 201.761665 
L 159.556392 195.42549 
" clip-path="url(#pc50e5f3ae5)" style="fill: none; stroke: #000000; stroke-width: 1.5"/>
    <path d="M 182.299969 202.68 
L 182.299969 199.614277 
" clip-path="url(#pc50e5f3ae5)" style="fill: none; stroke: #000000; stroke-width: 1.5"/>
    <path d="M 205.043545 201.663397 
L 205.043545 197.739082 
" clip-path="url(#pc50e5f3ae5)" style="fill: none; stroke: #000000; stroke-width: 1.5"/>
   </g>
   <g id="line2d_14">
    <path d="M 47.203125 182.092775 
L 217.325076 182.092775 
" clip-path="url(#pc50e5f3ae5)" style="fill: none; stroke-dasharray: 5.55,2.4; stroke-dashoffset: 0; stroke: #808080; stroke-width: 1.5"/>
   </g>
   <g id="legend_1">
    <g id="patch_15">
     <path d="M 54.203125 80.210625 
L 126.215625 80.210625 
Q 128.215625 80.210625 128.215625 78.210625 
L 128.215625 50.92 
Q 128.215625 48.92 126.215625 48.92 
L 54.203125 48.92 
Q 52.203125 48.92 52.203125 50.92 
L 52.203125 78.210625 
Q 52.203125 80.210625 54.203125 80.210625 
z
" style="fill: #ffffff; opacity: 0.8; stroke: #cccccc; stroke-linejoin: miter"/>
    </g>
    <g id="patch_16">
     <path d="M 56.203125 60.077812 
L 76.203125 60.077812 
L 76.203125 53.077812 
L 56.203125 53.077812 
z
" style="fill: #ffff00"/>
    </g>
    <g id="text_16">
     <text style="font: 10px 'Arial', sans-serif; text-anchor: start" x="84.203125" y="60.077812" transform="rotate(-0 84.203125 60.077812)">Pref</text>
    </g>
    <g id="patch_17">
     <path d="M 56.203125 74.223125 
L 76.203125 74.223125 
L 76.203125 67.223125 
L 56.203125 67.223125 
z
" style="fill: #800080"/>
    </g>
    <g id="text_17">
     <text style="font: 10px 'Arial', sans-serif; text-anchor: start" x="84.203125" y="74.223125" transform="rotate(-0 84.203125 74.223125)">Non-Pref</text>
    </g>
   </g>
  </g>
  <g id="axes_2">
   <g id="patch_18">
    <path d="M 251.349466 210.24 
L 421.471418 210.24 
L 421.471418 43.92 
L 251.349466 43.92 
z
" style="fill: #ffffff"/>
   </g>
   <g id="PolyCollection_1">
    <defs>
     <path id="m8fed59d8be" d="M 259.082282 -145.403453 
L 259.082282 -117.051159 
L 263.915292 -123.591906 
L 268.748302 -134.295219 
L 273.581312 -138.016183 
L 278.414322 -138.273902 
L 283.247332 -138.476267 
L 288.080342 -136.591604 
L 292.913352 -135.690625 
L 297.746362 -135.547591 
L 302.579372 -134.438296 
L 307.412382 -133.523634 
L 312.245392 -133.912697 
L 317.078402 -136.383473 
L 321.911412 -140.186756 
L 326.744422 -143.399472 
L 331.577432 -142.437877 
L 336.410442 -139.347411 
L 341.243452 -134.443261 
L 346.076462 -130.078465 
L 350.909472 -127.659508 
L 355.742482 -129.247428 
L 360.575492 -130.261271 
L 365.408502 -129.018155 
L 370.241512 -127.990212 
L 375.074522 -126.638354 
L 379.907532 -126.422677 
L 384.740542 -129.17078 
L 389.573552 -133.058416 
L 394.406562 -132.440512 
L 399.239572 -129.628492 
L 404.072582 -122.449824 
L 408.905592 -122.705739 
L 413.738602 -124.929938 
L 413.738602 -151.864952 
L 413.738602 -151.864952 
L 408.905592 -165.142573 
L 404.072582 -174.433887 
L 399.239572 -178.149966 
L 394.406562 -175.620469 
L 389.573552 -171.330073 
L 384.740542 -170.181291 
L 379.907532 -175.78279 
L 375.074522 -184.181075 
L 370.241512 -190.321222 
L 365.408502 -195.675857 
L 360.575492 -200.790598 
L 355.742482 -204.308185 
L 350.909472 -206.108556 
L 346.076462 -207.80468 
L 341.243452 -206.61833 
L 336.410442 -206.614046 
L 331.577432 -208.269334 
L 326.744422 -210.672934 
L 321.911412 -210.856639 
L 317.078402 -207.515987 
L 312.245392 -200.834027 
L 307.412382 -194.962409 
L 302.579372 -193.314336 
L 297.746362 -198.091078 
L 292.913352 -201.450326 
L 288.080342 -201.627591 
L 283.247332 -199.804231 
L 278.414322 -193.11292 
L 273.581312 -183.478143 
L 268.748302 -161.385514 
L 263.915292 -149.200393 
L 259.082282 -145.403453 
z
" style="stroke: #ffff00; stroke-opacity: 0.1"/>
    </defs>
    <g clip-path="url(#pfe41046514)">
     <use xlink:href="#m8fed59d8be" x="0" y="323.436915" style="fill: #ffff00; fill-opacity: 0.1; stroke: #ffff00; stroke-opacity: 0.1"/>
    </g>
   </g>
   <g id="PolyCollection_2">
    <defs>
     <path id="m3b844480f8" d="M 259.082282 -158.816056 
L 259.082282 -136.377326 
L 263.915292 -133.654959 
L 268.748302 -132.241025 
L 273.581312 -132.724938 
L 278.414322 -133.331691 
L 283.247332 -134.151334 
L 288.080342 -131.758635 
L 292.913352 -128.563788 
L 297.746362 -128.566856 
L 302.579372 -132.773368 
L 307.412382 -136.371547 
L 312.245392 -135.466135 
L 317.078402 -131.960667 
L 321.911412 -132.465268 
L 326.744422 -135.520484 
L 331.577432 -134.529017 
L 336.410442 -132.657772 
L 341.243452 -131.060278 
L 346.076462 -128.42626 
L 350.909472 -126.378927 
L 355.742482 -125.939054 
L 360.575492 -126.6549 
L 365.408502 -126.929285 
L 370.241512 -125.70891 
L 375.074522 -123.77594 
L 379.907532 -120.882561 
L 384.740542 -118.271956 
L 389.573552 -121.640668 
L 394.406562 -129.218269 
L 399.239572 -134.237994 
L 404.072582 -133.712994 
L 408.905592 -131.257407 
L 413.738602 -128.422435 
L 413.738602 -137.596169 
L 413.738602 -137.596169 
L 408.905592 -138.406722 
L 404.072582 -142.76204 
L 399.239572 -144.340272 
L 394.406562 -142.914922 
L 389.573552 -140.086579 
L 384.740542 -137.439007 
L 379.907532 -139.345777 
L 375.074522 -142.792846 
L 370.241512 -146.277005 
L 365.408502 -146.889758 
L 360.575492 -145.593188 
L 355.742482 -143.991782 
L 350.909472 -144.312091 
L 346.076462 -147.135697 
L 341.243452 -151.877799 
L 336.410442 -153.393108 
L 331.577432 -152.503704 
L 326.744422 -150.259942 
L 321.911412 -151.477634 
L 317.078402 -154.508335 
L 312.245392 -157.944046 
L 307.412382 -157.585754 
L 302.579372 -154.368034 
L 297.746362 -149.299739 
L 292.913352 -147.41754 
L 288.080342 -147.635028 
L 283.247332 -150.311378 
L 278.414322 -152.958819 
L 273.581312 -154.442277 
L 268.748302 -156.77648 
L 263.915292 -160.98949 
L 259.082282 -158.816056 
z
" style="stroke: #800080; stroke-opacity: 0.1"/>
    </defs>
    <g clip-path="url(#pfe41046514)">
     <use xlink:href="#m3b844480f8" x="0" y="323.436915" style="fill: #800080; fill-opacity: 0.1; stroke: #800080; stroke-opacity: 0.1"/>
    </g>
   </g>
   <g id="matplotlib.axis_3">
    <g id="xtick_7">
     <g id="line2d_15">
      <g>
       <use xlink:href="#m6673cba1f9" x="268.748302" y="210.24" style="stroke: #000000; stroke-width: 0.8"/>
      </g>
     </g>
     <g id="text_18">
      <text style="font: 10px 'Arial', sans-serif" transform="translate(237.78255 251.86503) rotate(-45)">Sampling</text>
     </g>
    </g>
    <g id="xtick_8">
     <g id="line2d_16">
      <g>
       <use xlink:href="#m6673cba1f9" x="399.239572" y="210.24" style="stroke: #000000; stroke-width: 0.8"/>
      </g>
     </g>
     <g id="text_19">
      <text style="font: 10px 'Arial', sans-serif" transform="translate(318.449307 301.686227) rotate(-45)">Movement to Lateral Port</text>
     </g>
    </g>
    <g id="text_20">
     <text style="font: 10px 'Arial', sans-serif; text-anchor: middle" x="336.410442" y="314.249415" transform="rotate(-0 336.410442 314.249415)">Normalized Time</text>
    </g>
   </g>
   <g id="matplotlib.axis_4">
    <g id="ytick_8">
     <g id="line2d_17">
      <g>
       <use xlink:href="#m806050a2df" x="251.349466" y="192.833345" style="stroke: #000000; stroke-width: 0.8"/>
      </g>
     </g>
     <g id="text_21">
      <text style="font: 10px 'Arial', sans-serif; text-anchor: end" x="244.349466" y="196.412252" transform="rotate(-0 244.349466 196.412252)">−0.5</text>
     </g>
    </g>
    <g id="ytick_9">
     <g id="line2d_18">
      <g>
       <use xlink:href="#m806050a2df" x="251.349466" y="167.843312" style="stroke: #000000; stroke-width: 0.8"/>
      </g>
     </g>
     <g id="text_22">
      <text style="font: 10px 'Arial', sans-serif; text-anchor: end" x="244.349466" y="171.422219" transform="rotate(-0 244.349466 171.422219)">0.0</text>
     </g>
    </g>
    <g id="ytick_10">
     <g id="line2d_19">
      <g>
       <use xlink:href="#m806050a2df" x="251.349466" y="142.853279" style="stroke: #000000; stroke-width: 0.8"/>
      </g>
     </g>
     <g id="text_23">
      <text style="font: 10px 'Arial', sans-serif; text-anchor: end" x="244.349466" y="146.432186" transform="rotate(-0 244.349466 146.432186)">0.5</text>
     </g>
    </g>
    <g id="ytick_11">
     <g id="line2d_20">
      <g>
       <use xlink:href="#m806050a2df" x="251.349466" y="117.863246" style="stroke: #000000; stroke-width: 0.8"/>
      </g>
     </g>
     <g id="text_24">
      <text style="font: 10px 'Arial', sans-serif; text-anchor: end" x="244.349466" y="121.442153" transform="rotate(-0 244.349466 121.442153)">1.0</text>
     </g>
    </g>
    <g id="ytick_12">
     <g id="line2d_21">
      <g>
       <use xlink:href="#m806050a2df" x="251.349466" y="92.873213" style="stroke: #000000; stroke-width: 0.8"/>
      </g>
     </g>
     <g id="text_25">
      <text style="font: 10px 'Arial', sans-serif; text-anchor: end" x="244.349466" y="96.45212" transform="rotate(-0 244.349466 96.45212)">1.5</text>
     </g>
    </g>
    <g id="ytick_13">
     <g id="line2d_22">
      <g>
       <use xlink:href="#m806050a2df" x="251.349466" y="67.88318" style="stroke: #000000; stroke-width: 0.8"/>
      </g>
     </g>
     <g id="text_26">
      <text style="font: 10px 'Arial', sans-serif; text-anchor: end" x="244.349466" y="71.462087" transform="rotate(-0 244.349466 71.462087)">2.0</text>
     </g>
    </g>
    <g id="text_27">
     <text style="font: 10px 'Arial', sans-serif; text-anchor: middle" x="218.504154" y="127.08" transform="rotate(-90 218.504154 127.08)">Mean Activity</text>
    </g>
   </g>
   <g id="line2d_23">
    <path d="M 259.082282 192.209609 
L 263.915292 187.040765 
L 268.748302 175.596548 
L 273.581312 162.689752 
L 278.414322 157.743505 
L 283.247332 154.296665 
L 288.080342 154.327316 
L 292.913352 154.86644 
L 297.746362 156.617579 
L 302.579372 159.560599 
L 307.412382 159.193894 
L 312.245392 156.063553 
L 317.078402 151.487185 
L 321.911412 147.915216 
L 326.744422 146.400713 
L 331.577432 148.083308 
L 336.410442 150.456186 
L 341.243452 152.906119 
L 346.076462 154.495343 
L 350.909472 156.552882 
L 355.742482 156.659109 
L 360.575492 157.910979 
L 365.408502 161.089909 
L 370.241512 164.281198 
L 375.074522 168.027201 
L 379.907532 172.334181 
L 384.740542 173.760878 
L 389.573552 171.24267 
L 394.406562 169.406425 
L 399.239572 169.547686 
L 404.072582 174.995058 
L 408.905592 179.512759 
L 413.738602 185.03947 
" clip-path="url(#pfe41046514)" style="fill: none; stroke: #ffff00; stroke-width: 1.5; stroke-linecap: square"/>
   </g>
   <g id="line2d_24">
    <path d="M 259.082282 175.840223 
L 263.915292 176.11469 
L 268.748302 178.928162 
L 273.581312 179.853308 
L 278.414322 180.291659 
L 283.247332 181.205558 
L 288.080342 183.740083 
L 292.913352 185.44625 
L 297.746362 184.503616 
L 302.579372 179.866214 
L 307.412382 176.458264 
L 312.245392 176.731824 
L 317.078402 180.202414 
L 321.911412 181.465464 
L 326.744422 180.546701 
L 331.577432 179.920554 
L 336.410442 180.411475 
L 341.243452 181.967876 
L 346.076462 185.655936 
L 350.909472 188.091406 
L 355.742482 188.471496 
L 360.575492 187.312871 
L 365.408502 186.527393 
L 370.241512 187.443957 
L 375.074522 190.152521 
L 379.907532 193.322746 
L 384.740542 195.581433 
L 389.573552 192.573291 
L 394.406562 187.370319 
L 399.239572 184.147781 
L 404.072582 185.199397 
L 408.905592 188.60485 
L 413.738602 190.427612 
" clip-path="url(#pfe41046514)" style="fill: none; stroke: #800080; stroke-width: 1.5; stroke-linecap: square"/>
   </g>
   <g id="line2d_25">
    <path d="M 268.748302 210.24 
L 268.748302 43.92 
" clip-path="url(#pfe41046514)" style="fill: none; stroke-dasharray: 5.55,2.4; stroke-dashoffset: 0; stroke: #808080; stroke-opacity: 0.7; stroke-width: 1.5"/>
   </g>
   <g id="line2d_26">
    <path d="M 399.239572 210.24 
L 399.239572 43.92 
" clip-path="url(#pfe41046514)" style="fill: none; stroke-dasharray: 5.55,2.4; stroke-dashoffset: 0; stroke: #808080; stroke-opacity: 0.7; stroke-width: 1.5"/>
   </g>
   <g id="text_28">
    <text style="font: 12px 'Arial', sans-serif; text-anchor: middle" x="336.410442" y="37.92" transform="rotate(-0 336.410442 37.92)">3 Incorrect Trials</text>
   </g>
   <g id="legend_2">
    <g id="patch_19">
     <path d="M 279.147794 64.932272 
L 393.67309 64.932272 
Q 394.83109 64.932272 394.83109 63.774272 
L 394.83109 47.973 
Q 394.83109 46.815 393.67309 46.815 
L 279.147794 46.815 
Q 277.989794 46.815 277.989794 47.973 
L 277.989794 63.774272 
Q 277.989794 64.932272 279.147794 64.932272 
z
" style="fill: #ffffff; opacity: 0.8; stroke: #cccccc; stroke-linejoin: miter"/>
    </g>
    <g id="line2d_27">
     <path d="M 280.305794 51.248873 
L 286.095794 51.248873 
L 291.885794 51.248873 
" style="fill: none; stroke: #ffff00; stroke-width: 1.5; stroke-linecap: square"/>
    </g>
    <g id="text_29">
     <text style="font: 5.79px 'Arial', sans-serif; text-anchor: start" x="296.517794" y="53.275373" transform="rotate(-0 296.517794 53.275373)">Pref - PrevCount=-3 - #Trials=3.0</text>
    </g>
    <g id="line2d_28">
     <path d="M 280.305794 59.439009 
L 286.095794 59.439009 
L 291.885794 59.439009 
" style="fill: none; stroke: #800080; stroke-width: 1.5; stroke-linecap: square"/>
    </g>
    <g id="text_30">
     <text style="font: 5.79px 'Arial', sans-serif; text-anchor: start" x="296.517794" y="61.465509" transform="rotate(-0 296.517794 61.465509)">NonPref - PrevCount=-3 - #Trials=3.0</text>
    </g>
   </g>
  </g>
  <g id="axes_3">
   <g id="patch_20">
    <path d="M 455.495808 210.24 
L 625.617759 210.24 
L 625.617759 43.92 
L 455.495808 43.92 
z
" style="fill: #ffffff"/>
   </g>
   <g id="PolyCollection_3">
    <defs>
     <path id="mf0ed9c52aa" d="M 463.228624 -220.590809 
L 463.228624 -152.676224 
L 468.061634 -157.345599 
L 472.894644 -158.930689 
L 477.727654 -155.430005 
L 482.560664 -153.576897 
L 487.393674 -151.98987 
L 492.226684 -152.330441 
L 497.059694 -150.036863 
L 501.892704 -146.357159 
L 506.725714 -147.912206 
L 511.558724 -145.402345 
L 516.391734 -141.101464 
L 521.224744 -141.981888 
L 526.057754 -144.316415 
L 530.890764 -143.379577 
L 535.723774 -139.255552 
L 540.556784 -135.097445 
L 545.389794 -131.590127 
L 550.222803 -129.702912 
L 555.055813 -129.236134 
L 559.888823 -127.11384 
L 564.721833 -126.780773 
L 569.554843 -129.171647 
L 574.387853 -132.402946 
L 579.220863 -133.119378 
L 584.053873 -130.964096 
L 588.886883 -130.350321 
L 593.719893 -128.352609 
L 598.552903 -126.640255 
L 603.385913 -127.933804 
L 608.218923 -131.805533 
L 613.051933 -130.293162 
L 617.884943 -127.65899 
L 617.884943 -147.136272 
L 617.884943 -147.136272 
L 613.051933 -154.26585 
L 608.218923 -154.706712 
L 603.385913 -150.237924 
L 598.552903 -149.857358 
L 593.719893 -154.397622 
L 588.886883 -160.349274 
L 584.053873 -163.849969 
L 579.220863 -166.902494 
L 574.387853 -166.122097 
L 569.554843 -162.171513 
L 564.721833 -157.880543 
L 559.888823 -158.579529 
L 555.055813 -164.924342 
L 550.222803 -167.020024 
L 545.389794 -168.728422 
L 540.556784 -174.99785 
L 535.723774 -184.394125 
L 530.890764 -191.885649 
L 526.057754 -190.896749 
L 521.224744 -184.70973 
L 516.391734 -182.75916 
L 511.558724 -189.931083 
L 506.725714 -196.933285 
L 501.892704 -197.597719 
L 497.059694 -204.450098 
L 492.226684 -211.316503 
L 487.393674 -214.244921 
L 482.560664 -218.488271 
L 477.727654 -218.892992 
L 472.894644 -220.989173 
L 468.061634 -223.05222 
L 463.228624 -220.590809 
z
" style="stroke: #ffff00; stroke-opacity: 0.1"/>
    </defs>
    <g clip-path="url(#pccb6a2cb2f)">
     <use xlink:href="#mf0ed9c52aa" x="0" y="323.436915" style="fill: #ffff00; fill-opacity: 0.1; stroke: #ffff00; stroke-opacity: 0.1"/>
    </g>
   </g>
   <g id="PolyCollection_4">
    <defs>
     <path id="m7f06eadb99" d="M 463.228624 -266.894693 
L 463.228624 -209.255826 
L 468.061634 -209.970165 
L 472.894644 -213.031455 
L 477.727654 -205.005666 
L 482.560664 -182.815857 
L 487.393674 -189.36404 
L 492.226684 -215.178303 
L 497.059694 -228.179942 
L 501.892704 -223.598005 
L 506.725714 -215.24414 
L 511.558724 -206.033835 
L 516.391734 -199.486391 
L 521.224744 -197.396547 
L 526.057754 -189.515804 
L 530.890764 -185.997407 
L 535.723774 -181.799428 
L 540.556784 -179.747608 
L 545.389794 -175.31188 
L 550.222803 -177.038568 
L 555.055813 -173.957318 
L 559.888823 -165.88905 
L 564.721833 -161.638573 
L 569.554843 -154.853515 
L 574.387853 -150.14592 
L 579.220863 -151.151813 
L 584.053873 -154.282561 
L 588.886883 -152.198741 
L 593.719893 -156.92622 
L 598.552903 -158.644788 
L 603.385913 -157.15432 
L 608.218923 -153.947609 
L 613.051933 -148.67497 
L 617.884943 -146.614401 
L 617.884943 -166.635518 
L 617.884943 -166.635518 
L 613.051933 -174.44764 
L 608.218923 -187.629748 
L 603.385913 -198.107683 
L 598.552903 -197.839313 
L 593.719893 -191.467775 
L 588.886883 -183.679887 
L 584.053873 -181.308043 
L 579.220863 -183.778672 
L 574.387853 -187.554217 
L 569.554843 -193.65462 
L 564.721833 -199.670418 
L 559.888823 -207.113977 
L 555.055813 -216.196707 
L 550.222803 -222.631472 
L 545.389794 -226.35374 
L 540.556784 -229.919787 
L 535.723774 -231.887374 
L 530.890764 -233.2518 
L 526.057754 -233.514927 
L 521.224744 -237.139738 
L 516.391734 -243.122225 
L 511.558724 -251.687793 
L 506.725714 -257.584584 
L 501.892704 -257.924839 
L 497.059694 -249.6897 
L 492.226684 -233.31924 
L 487.393674 -222.891692 
L 482.560664 -220.514194 
L 477.727654 -226.793941 
L 472.894644 -252.339882 
L 468.061634 -262.411243 
L 463.228624 -266.894693 
z
" style="stroke: #800080; stroke-opacity: 0.1"/>
    </defs>
    <g clip-path="url(#pccb6a2cb2f)">
     <use xlink:href="#m7f06eadb99" x="0" y="323.436915" style="fill: #800080; fill-opacity: 0.1; stroke: #800080; stroke-opacity: 0.1"/>
    </g>
   </g>
   <g id="matplotlib.axis_5">
    <g id="xtick_9">
     <g id="line2d_29">
      <g>
       <use xlink:href="#m6673cba1f9" x="472.894644" y="210.24" style="stroke: #000000; stroke-width: 0.8"/>
      </g>
     </g>
     <g id="text_31">
      <text style="font: 10px 'Arial', sans-serif" transform="translate(441.928891 251.86503) rotate(-45)">Sampling</text>
     </g>
    </g>
    <g id="xtick_10">
     <g id="line2d_30">
      <g>
       <use xlink:href="#m6673cba1f9" x="603.385913" y="210.24" style="stroke: #000000; stroke-width: 0.8"/>
      </g>
     </g>
     <g id="text_32">
      <text style="font: 10px 'Arial', sans-serif" transform="translate(522.595649 301.686227) rotate(-45)">Movement to Lateral Port</text>
     </g>
    </g>
    <g id="text_33">
     <text style="font: 10px 'Arial', sans-serif; text-anchor: middle" x="540.556784" y="314.249415" transform="rotate(-0 540.556784 314.249415)">Normalized Time</text>
    </g>
   </g>
   <g id="matplotlib.axis_6">
    <g id="ytick_14">
     <g id="line2d_31">
      <g>
       <use xlink:href="#m806050a2df" x="455.495808" y="192.833345" style="stroke: #000000; stroke-width: 0.8"/>
      </g>
     </g>
     <g id="text_34">
      <text style="font: 10px 'Arial', sans-serif; text-anchor: end" x="448.495808" y="196.412252" transform="rotate(-0 448.495808 196.412252)">−0.5</text>
     </g>
    </g>
    <g id="ytick_15">
     <g id="line2d_32">
      <g>
       <use xlink:href="#m806050a2df" x="455.495808" y="167.843312" style="stroke: #000000; stroke-width: 0.8"/>
      </g>
     </g>
     <g id="text_35">
      <text style="font: 10px 'Arial', sans-serif; text-anchor: end" x="448.495808" y="171.422219" transform="rotate(-0 448.495808 171.422219)">0.0</text>
     </g>
    </g>
    <g id="ytick_16">
     <g id="line2d_33">
      <g>
       <use xlink:href="#m806050a2df" x="455.495808" y="142.853279" style="stroke: #000000; stroke-width: 0.8"/>
      </g>
     </g>
     <g id="text_36">
      <text style="font: 10px 'Arial', sans-serif; text-anchor: end" x="448.495808" y="146.432186" transform="rotate(-0 448.495808 146.432186)">0.5</text>
     </g>
    </g>
    <g id="ytick_17">
     <g id="line2d_34">
      <g>
       <use xlink:href="#m806050a2df" x="455.495808" y="117.863246" style="stroke: #000000; stroke-width: 0.8"/>
      </g>
     </g>
     <g id="text_37">
      <text style="font: 10px 'Arial', sans-serif; text-anchor: end" x="448.495808" y="121.442153" transform="rotate(-0 448.495808 121.442153)">1.0</text>
     </g>
    </g>
    <g id="ytick_18">
     <g id="line2d_35">
      <g>
       <use xlink:href="#m806050a2df" x="455.495808" y="92.873213" style="stroke: #000000; stroke-width: 0.8"/>
      </g>
     </g>
     <g id="text_38">
      <text style="font: 10px 'Arial', sans-serif; text-anchor: end" x="448.495808" y="96.45212" transform="rotate(-0 448.495808 96.45212)">1.5</text>
     </g>
    </g>
    <g id="ytick_19">
     <g id="line2d_36">
      <g>
       <use xlink:href="#m806050a2df" x="455.495808" y="67.88318" style="stroke: #000000; stroke-width: 0.8"/>
      </g>
     </g>
     <g id="text_39">
      <text style="font: 10px 'Arial', sans-serif; text-anchor: end" x="448.495808" y="71.462087" transform="rotate(-0 448.495808 71.462087)">2.0</text>
     </g>
    </g>
    <g id="text_40">
     <text style="font: 10px 'Arial', sans-serif; text-anchor: middle" x="422.650495" y="127.08" transform="rotate(-90 422.650495 127.08)">Mean Activity</text>
    </g>
   </g>
   <g id="line2d_37">
    <path d="M 463.228624 136.803398 
L 468.061634 133.238003 
L 472.894644 133.476982 
L 477.727654 136.275416 
L 482.560664 137.404331 
L 487.393674 140.319519 
L 492.226684 141.613443 
L 497.059694 146.193434 
L 501.892704 151.459476 
L 506.725714 151.01417 
L 511.558724 155.7702 
L 516.391734 161.506603 
L 521.224744 160.091105 
L 526.057754 155.830333 
L 530.890764 155.804302 
L 535.723774 161.612076 
L 540.556784 168.389267 
L 545.389794 173.277639 
L 550.222803 175.075446 
L 555.055813 176.356677 
L 559.888823 180.590229 
L 564.721833 181.106256 
L 569.554843 177.765334 
L 574.387853 174.174393 
L 579.220863 173.425979 
L 584.053873 176.029882 
L 588.886883 178.087117 
L 593.719893 182.061798 
L 598.552903 185.188108 
L 603.385913 184.351051 
L 608.218923 180.180793 
L 613.051933 181.157408 
L 617.884943 186.039284 
" clip-path="url(#pccb6a2cb2f)" style="fill: none; stroke: #ffff00; stroke-width: 1.5; stroke-linecap: square"/>
   </g>
   <g id="line2d_38">
    <path d="M 463.228624 85.361655 
L 468.061634 87.24621 
L 472.894644 90.751246 
L 477.727654 107.537111 
L 482.560664 121.771889 
L 487.393674 117.309049 
L 492.226684 99.188143 
L 497.059694 84.502094 
L 501.892704 82.675493 
L 506.725714 87.02255 
L 511.558724 94.5761 
L 516.391734 102.132607 
L 521.224744 106.16877 
L 526.057754 111.921549 
L 530.890764 113.812312 
L 535.723774 116.593512 
L 540.556784 118.603217 
L 545.389794 122.604106 
L 550.222803 123.601895 
L 555.055813 128.359902 
L 559.888823 136.935399 
L 564.721833 142.78242 
L 569.554843 149.182847 
L 574.387853 154.586846 
L 579.220863 155.971671 
L 584.053873 155.641613 
L 588.886883 155.4976 
L 593.719893 149.239918 
L 598.552903 145.194865 
L 603.385913 145.805913 
L 608.218923 152.648236 
L 613.051933 161.875609 
L 617.884943 166.811955 
" clip-path="url(#pccb6a2cb2f)" style="fill: none; stroke: #800080; stroke-width: 1.5; stroke-linecap: square"/>
   </g>
   <g id="line2d_39">
    <path d="M 472.894644 210.24 
L 472.894644 43.92 
" clip-path="url(#pccb6a2cb2f)" style="fill: none; stroke-dasharray: 5.55,2.4; stroke-dashoffset: 0; stroke: #808080; stroke-opacity: 0.7; stroke-width: 1.5"/>
   </g>
   <g id="line2d_40">
    <path d="M 603.385913 210.24 
L 603.385913 43.92 
" clip-path="url(#pccb6a2cb2f)" style="fill: none; stroke-dasharray: 5.55,2.4; stroke-dashoffset: 0; stroke: #808080; stroke-opacity: 0.7; stroke-width: 1.5"/>
   </g>
   <g id="text_41">
    <text style="font: 12px 'Arial', sans-serif; text-anchor: middle" x="540.556784" y="37.92" transform="rotate(-0 540.556784 37.92)">2 Incorrect Trials</text>
   </g>
   <g id="legend_3">
    <g id="patch_21">
     <path d="M 483.294136 207.345 
L 597.819431 207.345 
Q 598.977431 207.345 598.977431 206.187 
L 598.977431 190.385728 
Q 598.977431 189.227728 597.819431 189.227728 
L 483.294136 189.227728 
Q 482.136136 189.227728 482.136136 190.385728 
L 482.136136 206.187 
Q 482.136136 207.345 483.294136 207.345 
z
" style="fill: #ffffff; opacity: 0.8; stroke: #cccccc; stroke-linejoin: miter"/>
    </g>
    <g id="line2d_41">
     <path d="M 484.452136 193.661602 
L 490.242136 193.661602 
L 496.032136 193.661602 
" style="fill: none; stroke: #ffff00; stroke-width: 1.5; stroke-linecap: square"/>
    </g>
    <g id="text_42">
     <text style="font: 5.79px 'Arial', sans-serif; text-anchor: start" x="500.664136" y="195.688102" transform="rotate(-0 500.664136 195.688102)">Pref - PrevCount=-2 - #Trials=5.0</text>
    </g>
    <g id="line2d_42">
     <path d="M 484.452136 201.851738 
L 490.242136 201.851738 
L 496.032136 201.851738 
" style="fill: none; stroke: #800080; stroke-width: 1.5; stroke-linecap: square"/>
    </g>
    <g id="text_43">
     <text style="font: 5.79px 'Arial', sans-serif; text-anchor: start" x="500.664136" y="203.878238" transform="rotate(-0 500.664136 203.878238)">NonPref - PrevCount=-2 - #Trials=4.0</text>
    </g>
   </g>
  </g>
  <g id="axes_4">
   <g id="patch_22">
    <path d="M 659.642149 210.24 
L 829.764101 210.24 
L 829.764101 43.92 
L 659.642149 43.92 
z
" style="fill: #ffffff"/>
   </g>
   <g id="PolyCollection_5">
    <defs>
     <path id="mc3f2a1eb88" d="M 667.374965 -182.196862 
L 667.374965 -160.126525 
L 672.207975 -160.902449 
L 677.040985 -163.998567 
L 681.873995 -167.931588 
L 686.707005 -169.228969 
L 691.540015 -168.786277 
L 696.373025 -165.643858 
L 701.206035 -162.534143 
L 706.039045 -164.224057 
L 710.872055 -165.491966 
L 715.705065 -164.60234 
L 720.538075 -162.655829 
L 725.371085 -160.193161 
L 730.204095 -158.873148 
L 735.037105 -158.769604 
L 739.870115 -157.940333 
L 744.703125 -156.779267 
L 749.536135 -154.91326 
L 754.369145 -153.224054 
L 759.202155 -153.137735 
L 764.035165 -151.405564 
L 768.868175 -148.244862 
L 773.701185 -145.648134 
L 778.534195 -145.30032 
L 783.367205 -145.144651 
L 788.200215 -145.979479 
L 793.033225 -146.243287 
L 797.866235 -143.43345 
L 802.699245 -139.975864 
L 807.532255 -139.127874 
L 812.365265 -137.315601 
L 817.198275 -136.084742 
L 822.031285 -135.923537 
L 822.031285 -145.287084 
L 822.031285 -145.287084 
L 817.198275 -146.169891 
L 812.365265 -147.838187 
L 807.532255 -150.197843 
L 802.699245 -151.009753 
L 797.866235 -154.66639 
L 793.033225 -157.463807 
L 788.200215 -156.840062 
L 783.367205 -156.767021 
L 778.534195 -158.09642 
L 773.701185 -158.693978 
L 768.868175 -161.516017 
L 764.035165 -165.254802 
L 759.202155 -168.292931 
L 754.369145 -169.626584 
L 749.536135 -172.347536 
L 744.703125 -175.027551 
L 739.870115 -175.846773 
L 735.037105 -176.509524 
L 730.204095 -177.423334 
L 725.371085 -179.913821 
L 720.538075 -183.054404 
L 715.705065 -186.34519 
L 710.872055 -187.865462 
L 706.039045 -184.489293 
L 701.206035 -182.086783 
L 696.373025 -189.11184 
L 691.540015 -193.783404 
L 686.707005 -191.4276 
L 681.873995 -188.337321 
L 677.040985 -183.939388 
L 672.207975 -180.564608 
L 667.374965 -182.196862 
z
" style="stroke: #ffff00; stroke-opacity: 0.1"/>
    </defs>
    <g clip-path="url(#p060ac7f7b7)">
     <use xlink:href="#mc3f2a1eb88" x="0" y="323.436915" style="fill: #ffff00; fill-opacity: 0.1; stroke: #ffff00; stroke-opacity: 0.1"/>
    </g>
   </g>
   <g id="PolyCollection_6">
    <defs>
     <path id="m545af517ea" d="M 667.374965 -200.705088 
L 667.374965 -169.923866 
L 672.207975 -172.22889 
L 677.040985 -172.167137 
L 681.873995 -174.242704 
L 686.707005 -175.147933 
L 691.540015 -173.993914 
L 696.373025 -177.477539 
L 701.206035 -180.053796 
L 706.039045 -178.208297 
L 710.872055 -178.620736 
L 715.705065 -178.012524 
L 720.538075 -169.836668 
L 725.371085 -164.217183 
L 730.204095 -162.629932 
L 735.037105 -161.70508 
L 739.870115 -161.172594 
L 744.703125 -159.58915 
L 749.536135 -159.364373 
L 754.369145 -158.37842 
L 759.202155 -155.165966 
L 764.035165 -151.761528 
L 768.868175 -150.189619 
L 773.701185 -148.172436 
L 778.534195 -146.629093 
L 783.367205 -146.373952 
L 788.200215 -146.45906 
L 793.033225 -144.556244 
L 797.866235 -141.987775 
L 802.699245 -140.255901 
L 807.532255 -137.581795 
L 812.365265 -138.251307 
L 817.198275 -139.350421 
L 822.031285 -138.765584 
L 822.031285 -152.315812 
L 822.031285 -152.315812 
L 817.198275 -153.592098 
L 812.365265 -152.903799 
L 807.532255 -152.593767 
L 802.699245 -156.102132 
L 797.866235 -157.941795 
L 793.033225 -161.968771 
L 788.200215 -164.97741 
L 783.367205 -166.872338 
L 778.534195 -167.241741 
L 773.701185 -169.484599 
L 768.868175 -173.617471 
L 764.035165 -176.124514 
L 759.202155 -180.40399 
L 754.369145 -184.085668 
L 749.536135 -186.18938 
L 744.703125 -185.512368 
L 739.870115 -188.286109 
L 735.037105 -190.75001 
L 730.204095 -192.839384 
L 725.371085 -194.075202 
L 720.538075 -200.679951 
L 715.705065 -210.326828 
L 710.872055 -210.119076 
L 706.039045 -211.687215 
L 701.206035 -218.037852 
L 696.373025 -214.540013 
L 691.540015 -203.241178 
L 686.707005 -204.230959 
L 681.873995 -200.540663 
L 677.040985 -197.196954 
L 672.207975 -199.536236 
L 667.374965 -200.705088 
z
" style="stroke: #800080; stroke-opacity: 0.1"/>
    </defs>
    <g clip-path="url(#p060ac7f7b7)">
     <use xlink:href="#m545af517ea" x="0" y="323.436915" style="fill: #800080; fill-opacity: 0.1; stroke: #800080; stroke-opacity: 0.1"/>
    </g>
   </g>
   <g id="matplotlib.axis_7">
    <g id="xtick_11">
     <g id="line2d_43">
      <g>
       <use xlink:href="#m6673cba1f9" x="677.040985" y="210.24" style="stroke: #000000; stroke-width: 0.8"/>
      </g>
     </g>
     <g id="text_44">
      <text style="font: 10px 'Arial', sans-serif" transform="translate(646.075233 251.86503) rotate(-45)">Sampling</text>
     </g>
    </g>
    <g id="xtick_12">
     <g id="line2d_44">
      <g>
       <use xlink:href="#m6673cba1f9" x="807.532255" y="210.24" style="stroke: #000000; stroke-width: 0.8"/>
      </g>
     </g>
     <g id="text_45">
      <text style="font: 10px 'Arial', sans-serif" transform="translate(726.74199 301.686227) rotate(-45)">Movement to Lateral Port</text>
     </g>
    </g>
    <g id="text_46">
     <text style="font: 10px 'Arial', sans-serif; text-anchor: middle" x="744.703125" y="314.249415" transform="rotate(-0 744.703125 314.249415)">Normalized Time</text>
    </g>
   </g>
   <g id="matplotlib.axis_8">
    <g id="ytick_20">
     <g id="line2d_45">
      <g>
       <use xlink:href="#m806050a2df" x="659.642149" y="192.833345" style="stroke: #000000; stroke-width: 0.8"/>
      </g>
     </g>
     <g id="text_47">
      <text style="font: 10px 'Arial', sans-serif; text-anchor: end" x="652.642149" y="196.412252" transform="rotate(-0 652.642149 196.412252)">−0.5</text>
     </g>
    </g>
    <g id="ytick_21">
     <g id="line2d_46">
      <g>
       <use xlink:href="#m806050a2df" x="659.642149" y="167.843312" style="stroke: #000000; stroke-width: 0.8"/>
      </g>
     </g>
     <g id="text_48">
      <text style="font: 10px 'Arial', sans-serif; text-anchor: end" x="652.642149" y="171.422219" transform="rotate(-0 652.642149 171.422219)">0.0</text>
     </g>
    </g>
    <g id="ytick_22">
     <g id="line2d_47">
      <g>
       <use xlink:href="#m806050a2df" x="659.642149" y="142.853279" style="stroke: #000000; stroke-width: 0.8"/>
      </g>
     </g>
     <g id="text_49">
      <text style="font: 10px 'Arial', sans-serif; text-anchor: end" x="652.642149" y="146.432186" transform="rotate(-0 652.642149 146.432186)">0.5</text>
     </g>
    </g>
    <g id="ytick_23">
     <g id="line2d_48">
      <g>
       <use xlink:href="#m806050a2df" x="659.642149" y="117.863246" style="stroke: #000000; stroke-width: 0.8"/>
      </g>
     </g>
     <g id="text_50">
      <text style="font: 10px 'Arial', sans-serif; text-anchor: end" x="652.642149" y="121.442153" transform="rotate(-0 652.642149 121.442153)">1.0</text>
     </g>
    </g>
    <g id="ytick_24">
     <g id="line2d_49">
      <g>
       <use xlink:href="#m806050a2df" x="659.642149" y="92.873213" style="stroke: #000000; stroke-width: 0.8"/>
      </g>
     </g>
     <g id="text_51">
      <text style="font: 10px 'Arial', sans-serif; text-anchor: end" x="652.642149" y="96.45212" transform="rotate(-0 652.642149 96.45212)">1.5</text>
     </g>
    </g>
    <g id="ytick_25">
     <g id="line2d_50">
      <g>
       <use xlink:href="#m806050a2df" x="659.642149" y="67.88318" style="stroke: #000000; stroke-width: 0.8"/>
      </g>
     </g>
     <g id="text_52">
      <text style="font: 10px 'Arial', sans-serif; text-anchor: end" x="652.642149" y="71.462087" transform="rotate(-0 652.642149 71.462087)">2.0</text>
     </g>
    </g>
    <g id="text_53">
     <text style="font: 10px 'Arial', sans-serif; text-anchor: middle" x="626.796837" y="127.08" transform="rotate(-90 626.796837 127.08)">Mean Activity</text>
    </g>
   </g>
   <g id="line2d_51">
    <path d="M 667.374965 152.275221 
L 672.207975 152.703386 
L 677.040985 149.467937 
L 681.873995 145.30246 
L 686.707005 143.108631 
L 691.540015 142.152075 
L 696.373025 146.059066 
L 701.206035 151.126451 
L 706.039045 149.08024 
L 710.872055 146.758201 
L 715.705065 147.963149 
L 720.538075 150.581799 
L 725.371085 153.383424 
L 730.204095 155.288673 
L 735.037105 155.797351 
L 739.870115 156.543361 
L 744.703125 157.533505 
L 749.536135 159.806516 
L 754.369145 162.011596 
L 759.202155 162.721582 
L 764.035165 165.106732 
L 768.868175 168.556475 
L 773.701185 171.265859 
L 778.534195 171.738545 
L 783.367205 172.481078 
L 788.200215 172.027144 
L 793.033225 171.583367 
L 797.866235 174.386995 
L 802.699245 177.944106 
L 807.532255 178.774056 
L 812.365265 180.860021 
L 817.198275 182.309598 
L 822.031285 182.831604 
" clip-path="url(#p060ac7f7b7)" style="fill: none; stroke: #ffff00; stroke-width: 1.5; stroke-linecap: square"/>
   </g>
   <g id="line2d_52">
    <path d="M 667.374965 138.122438 
L 672.207975 137.554352 
L 677.040985 138.754868 
L 681.873995 136.045231 
L 686.707005 133.747468 
L 691.540015 134.819369 
L 696.373025 127.428138 
L 701.206035 124.391092 
L 706.039045 128.48916 
L 710.872055 129.067008 
L 715.705065 129.267239 
L 720.538075 138.178605 
L 725.371085 144.290723 
L 730.204095 145.702257 
L 735.037105 147.20937 
L 739.870115 148.707563 
L 744.703125 150.886156 
L 749.536135 150.660037 
L 754.369145 152.20487 
L 759.202155 155.651937 
L 764.035165 159.493893 
L 768.868175 161.533369 
L 773.701185 164.608398 
L 778.534195 166.501498 
L 783.367205 166.813769 
L 788.200215 167.71868 
L 793.033225 170.174407 
L 797.866235 173.47213 
L 802.699245 175.257898 
L 807.532255 178.349133 
L 812.365265 177.859361 
L 817.198275 176.965655 
L 822.031285 177.896216 
" clip-path="url(#p060ac7f7b7)" style="fill: none; stroke: #800080; stroke-width: 1.5; stroke-linecap: square"/>
   </g>
   <g id="line2d_53">
    <path d="M 677.040985 210.24 
L 677.040985 43.92 
" clip-path="url(#p060ac7f7b7)" style="fill: none; stroke-dasharray: 5.55,2.4; stroke-dashoffset: 0; stroke: #808080; stroke-opacity: 0.7; stroke-width: 1.5"/>
   </g>
   <g id="line2d_54">
    <path d="M 807.532255 210.24 
L 807.532255 43.92 
" clip-path="url(#p060ac7f7b7)" style="fill: none; stroke-dasharray: 5.55,2.4; stroke-dashoffset: 0; stroke: #808080; stroke-opacity: 0.7; stroke-width: 1.5"/>
   </g>
   <g id="text_54">
    <text style="font: 12px 'Arial', sans-serif; text-anchor: middle" x="744.703125" y="37.92" transform="rotate(-0 744.703125 37.92)">1 Incorrect Trials</text>
   </g>
   <g id="legend_4">
    <g id="patch_23">
     <path d="M 685.830586 207.345 
L 803.575664 207.345 
Q 804.733664 207.345 804.733664 206.187 
L 804.733664 190.385728 
Q 804.733664 189.227728 803.575664 189.227728 
L 685.830586 189.227728 
Q 684.672586 189.227728 684.672586 190.385728 
L 684.672586 206.187 
Q 684.672586 207.345 685.830586 207.345 
z
" style="fill: #ffffff; opacity: 0.8; stroke: #cccccc; stroke-linejoin: miter"/>
    </g>
    <g id="line2d_55">
     <path d="M 686.988586 193.661602 
L 692.778586 193.661602 
L 698.568586 193.661602 
" style="fill: none; stroke: #ffff00; stroke-width: 1.5; stroke-linecap: square"/>
    </g>
    <g id="text_55">
     <text style="font: 5.79px 'Arial', sans-serif; text-anchor: start" x="703.200586" y="195.688102" transform="rotate(-0 703.200586 195.688102)">Pref - PrevCount=-1 - #Trials=23.0</text>
    </g>
    <g id="line2d_56">
     <path d="M 686.988586 201.851738 
L 692.778586 201.851738 
L 698.568586 201.851738 
" style="fill: none; stroke: #800080; stroke-width: 1.5; stroke-linecap: square"/>
    </g>
    <g id="text_56">
     <text style="font: 5.79px 'Arial', sans-serif; text-anchor: start" x="703.200586" y="203.878238" transform="rotate(-0 703.200586 203.878238)">NonPref - PrevCount=-1 - #Trials=17.0</text>
    </g>
   </g>
  </g>
  <g id="axes_5">
   <g id="patch_24">
    <path d="M 863.788491 210.24 
L 1033.910442 210.24 
L 1033.910442 43.92 
L 863.788491 43.92 
z
" style="fill: #ffffff"/>
   </g>
   <g id="PolyCollection_7">
    <defs>
     <path id="maaa8a21cfc" d="M 871.521307 -145.08656 
L 871.521307 -136.227234 
L 876.354317 -152.72276 
L 881.187327 -170.457252 
L 886.020337 -184.701437 
L 890.853347 -193.471141 
L 895.686357 -206.107596 
L 900.519367 -218.205554 
L 905.352377 -227.365662 
L 910.185387 -232.406592 
L 915.018397 -232.435566 
L 919.851407 -227.16684 
L 924.684417 -223.723876 
L 929.517427 -222.295263 
L 934.350437 -219.018023 
L 939.183447 -214.542736 
L 944.016456 -210.41589 
L 948.849466 -206.114722 
L 953.682476 -201.838346 
L 958.515486 -200.482786 
L 963.348496 -195.30188 
L 968.181506 -191.100257 
L 973.014516 -190.745417 
L 977.847526 -189.134814 
L 982.680536 -186.852301 
L 987.513546 -186.040624 
L 992.346556 -185.998536 
L 997.179566 -184.057987 
L 1002.012576 -181.050207 
L 1006.845586 -179.485855 
L 1011.678596 -175.75582 
L 1016.511606 -171.80074 
L 1021.344616 -169.812745 
L 1026.177626 -167.800846 
L 1026.177626 -190.049828 
L 1026.177626 -190.049828 
L 1021.344616 -190.97295 
L 1016.511606 -193.303206 
L 1011.678596 -198.704737 
L 1006.845586 -204.151839 
L 1002.012576 -208.099147 
L 997.179566 -212.611112 
L 992.346556 -214.662678 
L 987.513546 -214.271851 
L 982.680536 -215.42716 
L 977.847526 -218.856368 
L 973.014516 -220.590898 
L 968.181506 -220.753638 
L 963.348496 -226.143884 
L 958.515486 -232.518365 
L 953.682476 -233.454524 
L 948.849466 -237.904638 
L 944.016456 -242.40931 
L 939.183447 -246.848979 
L 934.350437 -252.924335 
L 929.517427 -256.592015 
L 924.684417 -259.671047 
L 919.851407 -263.405529 
L 915.018397 -268.251159 
L 910.185387 -267.788025 
L 905.352377 -260.323148 
L 900.519367 -247.446933 
L 895.686357 -231.151371 
L 890.853347 -214.514763 
L 886.020337 -205.594116 
L 881.187327 -189.658733 
L 876.354317 -166.621355 
L 871.521307 -145.08656 
z
" style="stroke: #ffff00; stroke-opacity: 0.1"/>
    </defs>
    <g clip-path="url(#p062bb399bd)">
     <use xlink:href="#maaa8a21cfc" x="0" y="323.436915" style="fill: #ffff00; fill-opacity: 0.1; stroke: #ffff00; stroke-opacity: 0.1"/>
    </g>
   </g>
   <g id="PolyCollection_8">
    <defs>
     <path id="m5d7441a485" d="M 871.521307 -130.590884 
L 871.521307 -124.178081 
L 876.354317 -124.677068 
L 881.187327 -126.516669 
L 886.020337 -127.608915 
L 890.853347 -127.095629 
L 895.686357 -126.910725 
L 900.519367 -127.496245 
L 905.352377 -127.072747 
L 910.185387 -127.133138 
L 915.018397 -126.510571 
L 919.851407 -125.537449 
L 924.684417 -124.886235 
L 929.517427 -124.04888 
L 934.350437 -125.384823 
L 939.183447 -125.007217 
L 944.016456 -124.208098 
L 948.849466 -123.820494 
L 953.682476 -123.285503 
L 958.515486 -123.473582 
L 963.348496 -123.851533 
L 968.181506 -123.622397 
L 973.014516 -123.01177 
L 977.847526 -122.807491 
L 982.680536 -122.349475 
L 987.513546 -122.802737 
L 992.346556 -124.03175 
L 997.179566 -123.89335 
L 1002.012576 -122.776182 
L 1006.845586 -122.457463 
L 1011.678596 -122.093397 
L 1016.511606 -120.566824 
L 1021.344616 -119.583695 
L 1026.177626 -119.024749 
L 1026.177626 -121.907367 
L 1026.177626 -121.907367 
L 1021.344616 -122.832366 
L 1016.511606 -123.976072 
L 1011.678596 -125.597169 
L 1006.845586 -125.897222 
L 1002.012576 -126.246399 
L 997.179566 -127.15417 
L 992.346556 -126.835055 
L 987.513546 -125.580457 
L 982.680536 -125.430605 
L 977.847526 -126.354353 
L 973.014516 -127.040278 
L 968.181506 -128.094508 
L 963.348496 -128.562009 
L 958.515486 -128.146349 
L 953.682476 -128.048488 
L 948.849466 -128.405869 
L 944.016456 -128.717554 
L 939.183447 -129.821013 
L 934.350437 -129.485865 
L 929.517427 -127.91127 
L 924.684417 -129.311856 
L 919.851407 -130.775414 
L 915.018397 -131.810274 
L 910.185387 -132.090988 
L 905.352377 -131.883974 
L 900.519367 -132.527546 
L 895.686357 -132.784018 
L 890.853347 -133.29122 
L 886.020337 -133.721364 
L 881.187327 -133.28047 
L 876.354317 -131.66774 
L 871.521307 -130.590884 
z
" style="stroke: #800080; stroke-opacity: 0.1"/>
    </defs>
    <g clip-path="url(#p062bb399bd)">
     <use xlink:href="#m5d7441a485" x="0" y="323.436915" style="fill: #800080; fill-opacity: 0.1; stroke: #800080; stroke-opacity: 0.1"/>
    </g>
   </g>
   <g id="matplotlib.axis_9">
    <g id="xtick_13">
     <g id="line2d_57">
      <g>
       <use xlink:href="#m6673cba1f9" x="881.187327" y="210.24" style="stroke: #000000; stroke-width: 0.8"/>
      </g>
     </g>
     <g id="text_57">
      <text style="font: 10px 'Arial', sans-serif" transform="translate(850.221574 251.86503) rotate(-45)">Sampling</text>
     </g>
    </g>
    <g id="xtick_14">
     <g id="line2d_58">
      <g>
       <use xlink:href="#m6673cba1f9" x="1011.678596" y="210.24" style="stroke: #000000; stroke-width: 0.8"/>
      </g>
     </g>
     <g id="text_58">
      <text style="font: 10px 'Arial', sans-serif" transform="translate(930.888332 301.686227) rotate(-45)">Movement to Lateral Port</text>
     </g>
    </g>
    <g id="text_59">
     <text style="font: 10px 'Arial', sans-serif; text-anchor: middle" x="948.849466" y="314.249415" transform="rotate(-0 948.849466 314.249415)">Normalized Time</text>
    </g>
   </g>
   <g id="matplotlib.axis_10">
    <g id="ytick_26">
     <g id="line2d_59">
      <g>
       <use xlink:href="#m806050a2df" x="863.788491" y="192.833345" style="stroke: #000000; stroke-width: 0.8"/>
      </g>
     </g>
     <g id="text_60">
      <text style="font: 10px 'Arial', sans-serif; text-anchor: end" x="856.788491" y="196.412252" transform="rotate(-0 856.788491 196.412252)">−0.5</text>
     </g>
    </g>
    <g id="ytick_27">
     <g id="line2d_60">
      <g>
       <use xlink:href="#m806050a2df" x="863.788491" y="167.843312" style="stroke: #000000; stroke-width: 0.8"/>
      </g>
     </g>
     <g id="text_61">
      <text style="font: 10px 'Arial', sans-serif; text-anchor: end" x="856.788491" y="171.422219" transform="rotate(-0 856.788491 171.422219)">0.0</text>
     </g>
    </g>
    <g id="ytick_28">
     <g id="line2d_61">
      <g>
       <use xlink:href="#m806050a2df" x="863.788491" y="142.853279" style="stroke: #000000; stroke-width: 0.8"/>
      </g>
     </g>
     <g id="text_62">
      <text style="font: 10px 'Arial', sans-serif; text-anchor: end" x="856.788491" y="146.432186" transform="rotate(-0 856.788491 146.432186)">0.5</text>
     </g>
    </g>
    <g id="ytick_29">
     <g id="line2d_62">
      <g>
       <use xlink:href="#m806050a2df" x="863.788491" y="117.863246" style="stroke: #000000; stroke-width: 0.8"/>
      </g>
     </g>
     <g id="text_63">
      <text style="font: 10px 'Arial', sans-serif; text-anchor: end" x="856.788491" y="121.442153" transform="rotate(-0 856.788491 121.442153)">1.0</text>
     </g>
    </g>
    <g id="ytick_30">
     <g id="line2d_63">
      <g>
       <use xlink:href="#m806050a2df" x="863.788491" y="92.873213" style="stroke: #000000; stroke-width: 0.8"/>
      </g>
     </g>
     <g id="text_64">
      <text style="font: 10px 'Arial', sans-serif; text-anchor: end" x="856.788491" y="96.45212" transform="rotate(-0 856.788491 96.45212)">1.5</text>
     </g>
    </g>
    <g id="ytick_31">
     <g id="line2d_64">
      <g>
       <use xlink:href="#m806050a2df" x="863.788491" y="67.88318" style="stroke: #000000; stroke-width: 0.8"/>
      </g>
     </g>
     <g id="text_65">
      <text style="font: 10px 'Arial', sans-serif; text-anchor: end" x="856.788491" y="71.462087" transform="rotate(-0 856.788491 71.462087)">2.0</text>
     </g>
    </g>
    <g id="text_66">
     <text style="font: 10px 'Arial', sans-serif; text-anchor: middle" x="830.943178" y="127.08" transform="rotate(-90 830.943178 127.08)">Mean Activity</text>
    </g>
   </g>
   <g id="line2d_65">
    <path d="M 871.521307 182.780017 
L 876.354317 163.764857 
L 881.187327 143.378923 
L 886.020337 128.289138 
L 890.853347 119.443963 
L 895.686357 104.807431 
L 900.519367 90.610671 
L 905.352377 79.59251 
L 910.185387 73.339603 
L 915.018397 73.093552 
L 919.851407 78.15073 
L 924.684417 81.739453 
L 929.517427 83.993279 
L 934.350437 87.465736 
L 939.183447 92.741057 
L 944.016456 97.024315 
L 948.849466 101.427235 
L 953.682476 105.79048 
L 958.515486 106.936339 
L 963.348496 112.714034 
L 968.181506 117.509967 
L 973.014516 117.768757 
L 977.847526 119.441323 
L 982.680536 122.297184 
L 987.513546 123.280677 
L 992.346556 123.106307 
L 997.179566 125.102365 
L 1002.012576 128.862238 
L 1006.845586 131.618068 
L 1011.678596 136.206636 
L 1016.511606 140.884942 
L 1021.344616 143.044066 
L 1026.177626 144.511578 
" clip-path="url(#p062bb399bd)" style="fill: none; stroke: #ffff00; stroke-width: 1.5; stroke-linecap: square"/>
   </g>
   <g id="line2d_66">
    <path d="M 871.521307 196.052432 
L 876.354317 195.26451 
L 881.187327 193.538345 
L 886.020337 192.771774 
L 890.853347 193.243491 
L 895.686357 193.589543 
L 900.519367 193.425019 
L 905.352377 193.958554 
L 910.185387 193.824852 
L 915.018397 194.276493 
L 919.851407 195.280484 
L 924.684417 196.337869 
L 929.517427 197.45684 
L 934.350437 196.001571 
L 939.183447 196.022799 
L 944.016456 196.974089 
L 948.849466 197.323733 
L 953.682476 197.769919 
L 958.515486 197.626949 
L 963.348496 197.230143 
L 968.181506 197.578462 
L 973.014516 198.41089 
L 977.847526 198.855992 
L 982.680536 199.546874 
L 987.513546 199.245318 
L 992.346556 198.003512 
L 997.179566 197.913155 
L 1002.012576 198.925625 
L 1006.845586 199.259572 
L 1011.678596 199.591632 
L 1016.511606 201.165467 
L 1021.344616 202.228884 
L 1026.177626 202.970857 
" clip-path="url(#p062bb399bd)" style="fill: none; stroke: #800080; stroke-width: 1.5; stroke-linecap: square"/>
   </g>
   <g id="line2d_67">
    <path d="M 881.187327 210.24 
L 881.187327 43.92 
" clip-path="url(#p062bb399bd)" style="fill: none; stroke-dasharray: 5.55,2.4; stroke-dashoffset: 0; stroke: #808080; stroke-opacity: 0.7; stroke-width: 1.5"/>
   </g>
   <g id="line2d_68">
    <path d="M 1011.678596 210.24 
L 1011.678596 43.92 
" clip-path="url(#p062bb399bd)" style="fill: none; stroke-dasharray: 5.55,2.4; stroke-dashoffset: 0; stroke: #808080; stroke-opacity: 0.7; stroke-width: 1.5"/>
   </g>
   <g id="text_67">
    <text style="font: 12px 'Arial', sans-serif; text-anchor: middle" x="948.849466" y="37.92" transform="rotate(-0 948.849466 37.92)">1 Correct Trials</text>
   </g>
   <g id="legend_5">
    <g id="patch_25">
     <path d="M 890.940872 64.932272 
L 1006.758061 64.932272 
Q 1007.916061 64.932272 1007.916061 63.774272 
L 1007.916061 47.973 
Q 1007.916061 46.815 1006.758061 46.815 
L 890.940872 46.815 
Q 889.782872 46.815 889.782872 47.973 
L 889.782872 63.774272 
Q 889.782872 64.932272 890.940872 64.932272 
z
" style="fill: #ffffff; opacity: 0.8; stroke: #cccccc; stroke-linejoin: miter"/>
    </g>
    <g id="line2d_69">
     <path d="M 892.098872 51.248873 
L 897.888872 51.248873 
L 903.678872 51.248873 
" style="fill: none; stroke: #ffff00; stroke-width: 1.5; stroke-linecap: square"/>
    </g>
    <g id="text_68">
     <text style="font: 5.79px 'Arial', sans-serif; text-anchor: start" x="908.310872" y="53.275373" transform="rotate(-0 908.310872 53.275373)">Pref - PrevCount=1 - #Trials=19.0</text>
    </g>
    <g id="line2d_70">
     <path d="M 892.098872 59.439009 
L 897.888872 59.439009 
L 903.678872 59.439009 
" style="fill: none; stroke: #800080; stroke-width: 1.5; stroke-linecap: square"/>
    </g>
    <g id="text_69">
     <text style="font: 5.79px 'Arial', sans-serif; text-anchor: start" x="908.310872" y="61.465509" transform="rotate(-0 908.310872 61.465509)">NonPref - PrevCount=1 - #Trials=24.0</text>
    </g>
   </g>
  </g>
  <g id="axes_6">
   <g id="patch_26">
    <path d="M 1067.934832 210.24 
L 1238.056784 210.24 
L 1238.056784 43.92 
L 1067.934832 43.92 
z
" style="fill: #ffffff"/>
   </g>
   <g id="PolyCollection_9">
    <defs>
     <path id="m95e9fad22d" d="M 1075.667648 -143.081103 
L 1075.667648 -135.713888 
L 1080.500658 -148.229552 
L 1085.333668 -166.871156 
L 1090.166678 -187.20448 
L 1094.999688 -198.016739 
L 1099.832698 -211.012551 
L 1104.665708 -222.539914 
L 1109.498718 -228.973505 
L 1114.331728 -232.152443 
L 1119.164738 -234.95937 
L 1123.997748 -235.258365 
L 1128.830758 -231.186703 
L 1133.663768 -230.742938 
L 1138.496778 -229.370356 
L 1143.329788 -225.800919 
L 1148.162798 -224.979835 
L 1152.995808 -222.858982 
L 1157.828818 -218.324096 
L 1162.661828 -213.621782 
L 1167.494838 -211.158149 
L 1172.327848 -209.521879 
L 1177.160858 -207.628178 
L 1181.993868 -204.076279 
L 1186.826878 -200.38412 
L 1191.659888 -199.624982 
L 1196.492898 -199.388359 
L 1201.325908 -200.011203 
L 1206.158918 -199.285383 
L 1210.991928 -198.061106 
L 1215.824938 -196.144636 
L 1220.657948 -194.789457 
L 1225.490958 -193.315259 
L 1230.323968 -188.316117 
L 1230.323968 -215.957794 
L 1230.323968 -215.957794 
L 1225.490958 -221.748948 
L 1220.657948 -223.462888 
L 1215.824938 -224.550668 
L 1210.991928 -227.20216 
L 1206.158918 -228.889014 
L 1201.325908 -229.613547 
L 1196.492898 -228.687535 
L 1191.659888 -228.707185 
L 1186.826878 -229.352082 
L 1181.993868 -232.778335 
L 1177.160858 -236.496867 
L 1172.327848 -238.665009 
L 1167.494838 -241.380658 
L 1162.661828 -246.115825 
L 1157.828818 -251.410194 
L 1152.995808 -255.770072 
L 1148.162798 -257.968214 
L 1143.329788 -258.868004 
L 1138.496778 -261.927053 
L 1133.663768 -263.052107 
L 1128.830758 -263.433568 
L 1123.997748 -266.286038 
L 1119.164738 -265.747689 
L 1114.331728 -261.908488 
L 1109.498718 -257.298525 
L 1104.665708 -247.753757 
L 1099.832698 -232.381472 
L 1094.999688 -216.921002 
L 1090.166678 -205.030216 
L 1085.333668 -182.581174 
L 1080.500658 -160.400749 
L 1075.667648 -143.081103 
z
" style="stroke: #ffff00; stroke-opacity: 0.1"/>
    </defs>
    <g clip-path="url(#pe79fbf88cd)">
     <use xlink:href="#m95e9fad22d" x="0" y="323.436915" style="fill: #ffff00; fill-opacity: 0.1; stroke: #ffff00; stroke-opacity: 0.1"/>
    </g>
   </g>
   <g id="PolyCollection_10">
    <defs>
     <path id="m9bad549f09" d="M 1075.667648 -129.762105 
L 1075.667648 -124.469131 
L 1080.500658 -125.339658 
L 1085.333668 -126.387945 
L 1090.166678 -125.569026 
L 1094.999688 -124.887779 
L 1099.832698 -123.455561 
L 1104.665708 -122.714617 
L 1109.498718 -121.52557 
L 1114.331728 -121.16644 
L 1119.164738 -122.465706 
L 1123.997748 -123.75343 
L 1128.830758 -124.604668 
L 1133.663768 -124.190915 
L 1138.496778 -124.124324 
L 1143.329788 -124.15878 
L 1148.162798 -123.471803 
L 1152.995808 -122.859833 
L 1157.828818 -122.242638 
L 1162.661828 -122.215543 
L 1167.494838 -121.685122 
L 1172.327848 -120.558879 
L 1177.160858 -119.329076 
L 1181.993868 -120.305782 
L 1186.826878 -121.224135 
L 1191.659888 -121.563583 
L 1196.492898 -120.925584 
L 1201.325908 -120.708266 
L 1206.158918 -120.539456 
L 1210.991928 -121.290395 
L 1215.824938 -120.972186 
L 1220.657948 -120.908619 
L 1225.490958 -122.056605 
L 1230.323968 -123.311459 
L 1230.323968 -126.199952 
L 1230.323968 -126.199952 
L 1225.490958 -124.431207 
L 1220.657948 -122.81504 
L 1215.824938 -123.040893 
L 1210.991928 -123.917549 
L 1206.158918 -123.630291 
L 1201.325908 -123.618262 
L 1196.492898 -124.12111 
L 1191.659888 -125.099303 
L 1186.826878 -124.449892 
L 1181.993868 -122.925911 
L 1177.160858 -122.005878 
L 1172.327848 -123.25971 
L 1167.494838 -124.629919 
L 1162.661828 -125.875877 
L 1157.828818 -126.226287 
L 1152.995808 -126.565258 
L 1148.162798 -127.055319 
L 1143.329788 -127.555039 
L 1138.496778 -127.833234 
L 1133.663768 -128.188315 
L 1128.830758 -128.291342 
L 1123.997748 -127.834041 
L 1119.164738 -126.318354 
L 1114.331728 -125.245055 
L 1109.498718 -125.677464 
L 1104.665708 -126.412724 
L 1099.832698 -126.609464 
L 1094.999688 -127.070054 
L 1090.166678 -127.168559 
L 1085.333668 -129.778091 
L 1080.500658 -130.091483 
L 1075.667648 -129.762105 
z
" style="stroke: #800080; stroke-opacity: 0.1"/>
    </defs>
    <g clip-path="url(#pe79fbf88cd)">
     <use xlink:href="#m9bad549f09" x="0" y="323.436915" style="fill: #800080; fill-opacity: 0.1; stroke: #800080; stroke-opacity: 0.1"/>
    </g>
   </g>
   <g id="matplotlib.axis_11">
    <g id="xtick_15">
     <g id="line2d_71">
      <g>
       <use xlink:href="#m6673cba1f9" x="1085.333668" y="210.24" style="stroke: #000000; stroke-width: 0.8"/>
      </g>
     </g>
     <g id="text_70">
      <text style="font: 10px 'Arial', sans-serif" transform="translate(1054.367915 251.86503) rotate(-45)">Sampling</text>
     </g>
    </g>
    <g id="xtick_16">
     <g id="line2d_72">
      <g>
       <use xlink:href="#m6673cba1f9" x="1215.824938" y="210.24" style="stroke: #000000; stroke-width: 0.8"/>
      </g>
     </g>
     <g id="text_71">
      <text style="font: 10px 'Arial', sans-serif" transform="translate(1135.034673 301.686227) rotate(-45)">Movement to Lateral Port</text>
     </g>
    </g>
    <g id="text_72">
     <text style="font: 10px 'Arial', sans-serif; text-anchor: middle" x="1152.995808" y="314.249415" transform="rotate(-0 1152.995808 314.249415)">Normalized Time</text>
    </g>
   </g>
   <g id="matplotlib.axis_12">
    <g id="ytick_32">
     <g id="line2d_73">
      <g>
       <use xlink:href="#m806050a2df" x="1067.934832" y="192.833345" style="stroke: #000000; stroke-width: 0.8"/>
      </g>
     </g>
     <g id="text_73">
      <text style="font: 10px 'Arial', sans-serif; text-anchor: end" x="1060.934832" y="196.412252" transform="rotate(-0 1060.934832 196.412252)">−0.5</text>
     </g>
    </g>
    <g id="ytick_33">
     <g id="line2d_74">
      <g>
       <use xlink:href="#m806050a2df" x="1067.934832" y="167.843312" style="stroke: #000000; stroke-width: 0.8"/>
      </g>
     </g>
     <g id="text_74">
      <text style="font: 10px 'Arial', sans-serif; text-anchor: end" x="1060.934832" y="171.422219" transform="rotate(-0 1060.934832 171.422219)">0.0</text>
     </g>
    </g>
    <g id="ytick_34">
     <g id="line2d_75">
      <g>
       <use xlink:href="#m806050a2df" x="1067.934832" y="142.853279" style="stroke: #000000; stroke-width: 0.8"/>
      </g>
     </g>
     <g id="text_75">
      <text style="font: 10px 'Arial', sans-serif; text-anchor: end" x="1060.934832" y="146.432186" transform="rotate(-0 1060.934832 146.432186)">0.5</text>
     </g>
    </g>
    <g id="ytick_35">
     <g id="line2d_76">
      <g>
       <use xlink:href="#m806050a2df" x="1067.934832" y="117.863246" style="stroke: #000000; stroke-width: 0.8"/>
      </g>
     </g>
     <g id="text_76">
      <text style="font: 10px 'Arial', sans-serif; text-anchor: end" x="1060.934832" y="121.442153" transform="rotate(-0 1060.934832 121.442153)">1.0</text>
     </g>
    </g>
    <g id="ytick_36">
     <g id="line2d_77">
      <g>
       <use xlink:href="#m806050a2df" x="1067.934832" y="92.873213" style="stroke: #000000; stroke-width: 0.8"/>
      </g>
     </g>
     <g id="text_77">
      <text style="font: 10px 'Arial', sans-serif; text-anchor: end" x="1060.934832" y="96.45212" transform="rotate(-0 1060.934832 96.45212)">1.5</text>
     </g>
    </g>
    <g id="ytick_37">
     <g id="line2d_78">
      <g>
       <use xlink:href="#m806050a2df" x="1067.934832" y="67.88318" style="stroke: #000000; stroke-width: 0.8"/>
      </g>
     </g>
     <g id="text_78">
      <text style="font: 10px 'Arial', sans-serif; text-anchor: end" x="1060.934832" y="71.462087" transform="rotate(-0 1060.934832 71.462087)">2.0</text>
     </g>
    </g>
    <g id="text_79">
     <text style="font: 10px 'Arial', sans-serif; text-anchor: middle" x="1035.08952" y="127.08" transform="rotate(-90 1035.08952 127.08)">Mean Activity</text>
    </g>
   </g>
   <g id="line2d_79">
    <path d="M 1075.667648 184.039419 
L 1080.500658 169.121764 
L 1085.333668 148.710749 
L 1090.166678 127.319566 
L 1094.999688 115.968044 
L 1099.832698 101.739903 
L 1104.665708 88.290079 
L 1109.498718 80.300897 
L 1114.331728 76.406452 
L 1119.164738 73.083382 
L 1123.997748 72.664713 
L 1128.830758 76.126779 
L 1133.663768 76.539389 
L 1138.496778 77.78821 
L 1143.329788 81.10245 
L 1148.162798 81.962893 
L 1152.995808 84.122385 
L 1157.828818 88.56977 
L 1162.661828 93.568111 
L 1167.494838 97.167511 
L 1172.327848 99.343471 
L 1177.160858 101.374392 
L 1181.993868 105.009607 
L 1186.826878 108.568814 
L 1191.659888 109.270831 
L 1196.492898 109.398966 
L 1201.325908 108.62454 
L 1206.158918 109.349716 
L 1210.991928 110.805283 
L 1215.824938 113.089263 
L 1220.657948 114.310742 
L 1225.490958 115.904811 
L 1230.323968 121.299958 
" clip-path="url(#pe79fbf88cd)" style="fill: none; stroke: #ffff00; stroke-width: 1.5; stroke-linecap: square"/>
   </g>
   <g id="line2d_80">
    <path d="M 1075.667648 196.321297 
L 1080.500658 195.721344 
L 1085.333668 195.353897 
L 1090.166678 197.068122 
L 1094.999688 197.457998 
L 1099.832698 198.404402 
L 1104.665708 198.873244 
L 1109.498718 199.835398 
L 1114.331728 200.231167 
L 1119.164738 199.044885 
L 1123.997748 197.643179 
L 1128.830758 196.988909 
L 1133.663768 197.2473 
L 1138.496778 197.458136 
L 1143.329788 197.580005 
L 1148.162798 198.173353 
L 1152.995808 198.724369 
L 1157.828818 199.202452 
L 1162.661828 199.391204 
L 1167.494838 200.279395 
L 1172.327848 201.52762 
L 1177.160858 202.769437 
L 1181.993868 201.821068 
L 1186.826878 200.599901 
L 1191.659888 200.105472 
L 1196.492898 200.913567 
L 1201.325908 201.27365 
L 1206.158918 201.352041 
L 1210.991928 200.832943 
L 1215.824938 201.430375 
L 1220.657948 201.575085 
L 1225.490958 200.193008 
L 1230.323968 198.681209 
" clip-path="url(#pe79fbf88cd)" style="fill: none; stroke: #800080; stroke-width: 1.5; stroke-linecap: square"/>
   </g>
   <g id="line2d_81">
    <path d="M 1085.333668 210.24 
L 1085.333668 43.92 
" clip-path="url(#pe79fbf88cd)" style="fill: none; stroke-dasharray: 5.55,2.4; stroke-dashoffset: 0; stroke: #808080; stroke-opacity: 0.7; stroke-width: 1.5"/>
   </g>
   <g id="line2d_82">
    <path d="M 1215.824938 210.24 
L 1215.824938 43.92 
" clip-path="url(#pe79fbf88cd)" style="fill: none; stroke-dasharray: 5.55,2.4; stroke-dashoffset: 0; stroke: #808080; stroke-opacity: 0.7; stroke-width: 1.5"/>
   </g>
   <g id="text_80">
    <text style="font: 12px 'Arial', sans-serif; text-anchor: middle" x="1152.995808" y="37.92" transform="rotate(-0 1152.995808 37.92)">2 Correct Trials</text>
   </g>
   <g id="legend_6">
    <g id="patch_27">
     <path d="M 1095.087213 64.932272 
L 1210.904402 64.932272 
Q 1212.062402 64.932272 1212.062402 63.774272 
L 1212.062402 47.973 
Q 1212.062402 46.815 1210.904402 46.815 
L 1095.087213 46.815 
Q 1093.929213 46.815 1093.929213 47.973 
L 1093.929213 63.774272 
Q 1093.929213 64.932272 1095.087213 64.932272 
z
" style="fill: #ffffff; opacity: 0.8; stroke: #cccccc; stroke-linejoin: miter"/>
    </g>
    <g id="line2d_83">
     <path d="M 1096.245213 51.248873 
L 1102.035213 51.248873 
L 1107.825213 51.248873 
" style="fill: none; stroke: #ffff00; stroke-width: 1.5; stroke-linecap: square"/>
    </g>
    <g id="text_81">
     <text style="font: 5.79px 'Arial', sans-serif; text-anchor: start" x="1112.457213" y="53.275373" transform="rotate(-0 1112.457213 53.275373)">Pref - PrevCount=2 - #Trials=20.0</text>
    </g>
    <g id="line2d_84">
     <path d="M 1096.245213 59.439009 
L 1102.035213 59.439009 
L 1107.825213 59.439009 
" style="fill: none; stroke: #800080; stroke-width: 1.5; stroke-linecap: square"/>
    </g>
    <g id="text_82">
     <text style="font: 5.79px 'Arial', sans-serif; text-anchor: start" x="1112.457213" y="61.465509" transform="rotate(-0 1112.457213 61.465509)">NonPref - PrevCount=2 - #Trials=16.0</text>
    </g>
   </g>
  </g>
  <g id="axes_7">
   <g id="patch_28">
    <path d="M 1272.081174 210.24 
L 1442.203125 210.24 
L 1442.203125 43.92 
L 1272.081174 43.92 
z
" style="fill: #ffffff"/>
   </g>
   <g id="PolyCollection_11">
    <defs>
     <path id="m6138adf057" d="M 1279.81399 -137.766337 
L 1279.81399 -133.858966 
L 1284.647 -147.049667 
L 1289.48001 -165.515895 
L 1294.31302 -188.112341 
L 1299.14603 -203.43557 
L 1303.97904 -221.340873 
L 1308.81205 -235.325381 
L 1313.64506 -244.473275 
L 1318.47807 -249.227782 
L 1323.31108 -250.384616 
L 1328.14409 -251.422372 
L 1332.9771 -248.362417 
L 1337.810109 -244.204512 
L 1342.643119 -240.377953 
L 1347.476129 -237.095845 
L 1352.309139 -235.479434 
L 1357.142149 -232.428773 
L 1361.975159 -228.47299 
L 1366.808169 -224.697439 
L 1371.641179 -221.197843 
L 1376.474189 -216.052706 
L 1381.307199 -212.575518 
L 1386.140209 -210.777713 
L 1390.973219 -206.281477 
L 1395.806229 -203.115269 
L 1400.639239 -202.14312 
L 1405.472249 -201.017822 
L 1410.305259 -199.171336 
L 1415.138269 -196.266831 
L 1419.971279 -194.470628 
L 1424.804289 -191.667848 
L 1429.637299 -188.903489 
L 1434.470309 -186.132721 
L 1434.470309 -200.497797 
L 1434.470309 -200.497797 
L 1429.637299 -203.744258 
L 1424.804289 -206.925975 
L 1419.971279 -210.068224 
L 1415.138269 -211.910107 
L 1410.305259 -214.481368 
L 1405.472249 -216.055095 
L 1400.639239 -216.961672 
L 1395.806229 -217.852347 
L 1390.973219 -220.979401 
L 1386.140209 -225.261801 
L 1381.307199 -227.244403 
L 1376.474189 -231.491435 
L 1371.641179 -237.307488 
L 1366.808169 -241.113176 
L 1361.975159 -245.04496 
L 1357.142149 -248.906224 
L 1352.309139 -252.310437 
L 1347.476129 -254.225051 
L 1342.643119 -257.701244 
L 1337.810109 -261.233675 
L 1332.9771 -264.904429 
L 1328.14409 -267.668005 
L 1323.31108 -266.707275 
L 1318.47807 -265.372747 
L 1313.64506 -259.790054 
L 1308.81205 -249.121704 
L 1303.97904 -232.993856 
L 1299.14603 -213.532375 
L 1294.31302 -197.945206 
L 1289.48001 -173.817231 
L 1284.647 -153.075117 
L 1279.81399 -137.766337 
z
" style="stroke: #ffff00; stroke-opacity: 0.1"/>
    </defs>
    <g clip-path="url(#pfe823c4b9c)">
     <use xlink:href="#m6138adf057" x="0" y="323.436915" style="fill: #ffff00; fill-opacity: 0.1; stroke: #ffff00; stroke-opacity: 0.1"/>
    </g>
   </g>
   <g id="PolyCollection_12">
    <defs>
     <path id="ma3bde93f89" d="M 1279.81399 -129.334654 
L 1279.81399 -126.438189 
L 1284.647 -126.913981 
L 1289.48001 -126.829731 
L 1294.31302 -126.484591 
L 1299.14603 -126.22133 
L 1303.97904 -126.122009 
L 1308.81205 -126.730916 
L 1313.64506 -126.775536 
L 1318.47807 -126.080364 
L 1323.31108 -125.263254 
L 1328.14409 -125.056717 
L 1332.9771 -124.64252 
L 1337.810109 -124.906189 
L 1342.643119 -125.335696 
L 1347.476129 -124.930686 
L 1352.309139 -125.012279 
L 1357.142149 -125.124908 
L 1361.975159 -125.057948 
L 1366.808169 -124.957283 
L 1371.641179 -124.905727 
L 1376.474189 -124.796787 
L 1381.307199 -123.834943 
L 1386.140209 -122.468354 
L 1390.973219 -122.045398 
L 1395.806229 -121.600824 
L 1400.639239 -121.11041 
L 1405.472249 -121.408264 
L 1410.305259 -121.600841 
L 1415.138269 -121.977714 
L 1419.971279 -122.246645 
L 1424.804289 -121.329173 
L 1429.637299 -119.94239 
L 1434.470309 -119.820729 
L 1434.470309 -122.677572 
L 1434.470309 -122.677572 
L 1429.637299 -122.924776 
L 1424.804289 -124.361882 
L 1419.971279 -125.310234 
L 1415.138269 -125.107742 
L 1410.305259 -124.771247 
L 1405.472249 -124.641296 
L 1400.639239 -124.367679 
L 1395.806229 -125.01569 
L 1390.973219 -125.675095 
L 1386.140209 -126.235147 
L 1381.307199 -127.478111 
L 1376.474189 -128.133257 
L 1371.641179 -128.125442 
L 1366.808169 -128.28478 
L 1361.975159 -128.693644 
L 1357.142149 -129.088121 
L 1352.309139 -129.127792 
L 1347.476129 -128.787898 
L 1342.643119 -128.841858 
L 1337.810109 -128.407019 
L 1332.9771 -128.36676 
L 1328.14409 -128.738804 
L 1323.31108 -128.431867 
L 1318.47807 -128.58297 
L 1313.64506 -129.136429 
L 1308.81205 -129.221057 
L 1303.97904 -128.620896 
L 1299.14603 -128.548094 
L 1294.31302 -128.927056 
L 1289.48001 -129.419581 
L 1284.647 -129.650591 
L 1279.81399 -129.334654 
z
" style="stroke: #800080; stroke-opacity: 0.1"/>
    </defs>
    <g clip-path="url(#pfe823c4b9c)">
     <use xlink:href="#ma3bde93f89" x="0" y="323.436915" style="fill: #800080; fill-opacity: 0.1; stroke: #800080; stroke-opacity: 0.1"/>
    </g>
   </g>
   <g id="matplotlib.axis_13">
    <g id="xtick_17">
     <g id="line2d_85">
      <g>
       <use xlink:href="#m6673cba1f9" x="1289.48001" y="210.24" style="stroke: #000000; stroke-width: 0.8"/>
      </g>
     </g>
     <g id="text_83">
      <text style="font: 10px 'Arial', sans-serif" transform="translate(1258.514257 251.86503) rotate(-45)">Sampling</text>
     </g>
    </g>
    <g id="xtick_18">
     <g id="line2d_86">
      <g>
       <use xlink:href="#m6673cba1f9" x="1419.971279" y="210.24" style="stroke: #000000; stroke-width: 0.8"/>
      </g>
     </g>
     <g id="text_84">
      <text style="font: 10px 'Arial', sans-serif" transform="translate(1339.181015 301.686227) rotate(-45)">Movement to Lateral Port</text>
     </g>
    </g>
    <g id="text_85">
     <text style="font: 10px 'Arial', sans-serif; text-anchor: middle" x="1357.142149" y="314.249415" transform="rotate(-0 1357.142149 314.249415)">Normalized Time</text>
    </g>
   </g>
   <g id="matplotlib.axis_14">
    <g id="ytick_38">
     <g id="line2d_87">
      <g>
       <use xlink:href="#m806050a2df" x="1272.081174" y="192.833345" style="stroke: #000000; stroke-width: 0.8"/>
      </g>
     </g>
     <g id="text_86">
      <text style="font: 10px 'Arial', sans-serif; text-anchor: end" x="1265.081174" y="196.412252" transform="rotate(-0 1265.081174 196.412252)">−0.5</text>
     </g>
    </g>
    <g id="ytick_39">
     <g id="line2d_88">
      <g>
       <use xlink:href="#m806050a2df" x="1272.081174" y="167.843312" style="stroke: #000000; stroke-width: 0.8"/>
      </g>
     </g>
     <g id="text_87">
      <text style="font: 10px 'Arial', sans-serif; text-anchor: end" x="1265.081174" y="171.422219" transform="rotate(-0 1265.081174 171.422219)">0.0</text>
     </g>
    </g>
    <g id="ytick_40">
     <g id="line2d_89">
      <g>
       <use xlink:href="#m806050a2df" x="1272.081174" y="142.853279" style="stroke: #000000; stroke-width: 0.8"/>
      </g>
     </g>
     <g id="text_88">
      <text style="font: 10px 'Arial', sans-serif; text-anchor: end" x="1265.081174" y="146.432186" transform="rotate(-0 1265.081174 146.432186)">0.5</text>
     </g>
    </g>
    <g id="ytick_41">
     <g id="line2d_90">
      <g>
       <use xlink:href="#m806050a2df" x="1272.081174" y="117.863246" style="stroke: #000000; stroke-width: 0.8"/>
      </g>
     </g>
     <g id="text_89">
      <text style="font: 10px 'Arial', sans-serif; text-anchor: end" x="1265.081174" y="121.442153" transform="rotate(-0 1265.081174 121.442153)">1.0</text>
     </g>
    </g>
    <g id="ytick_42">
     <g id="line2d_91">
      <g>
       <use xlink:href="#m806050a2df" x="1272.081174" y="92.873213" style="stroke: #000000; stroke-width: 0.8"/>
      </g>
     </g>
     <g id="text_90">
      <text style="font: 10px 'Arial', sans-serif; text-anchor: end" x="1265.081174" y="96.45212" transform="rotate(-0 1265.081174 96.45212)">1.5</text>
     </g>
    </g>
    <g id="ytick_43">
     <g id="line2d_92">
      <g>
       <use xlink:href="#m806050a2df" x="1272.081174" y="67.88318" style="stroke: #000000; stroke-width: 0.8"/>
      </g>
     </g>
     <g id="text_91">
      <text style="font: 10px 'Arial', sans-serif; text-anchor: end" x="1265.081174" y="71.462087" transform="rotate(-0 1265.081174 71.462087)">2.0</text>
     </g>
    </g>
    <g id="text_92">
     <text style="font: 10px 'Arial', sans-serif; text-anchor: middle" x="1239.235861" y="127.08" transform="rotate(-90 1239.235861 127.08)">Mean Activity</text>
    </g>
   </g>
   <g id="line2d_93">
    <path d="M 1279.81399 187.624263 
L 1284.647 173.374523 
L 1289.48001 153.770351 
L 1294.31302 130.408141 
L 1299.14603 114.952941 
L 1303.97904 96.26955 
L 1308.81205 81.213372 
L 1313.64506 71.30525 
L 1318.47807 66.13665 
L 1323.31108 64.890969 
L 1328.14409 63.891726 
L 1332.9771 66.803491 
L 1337.810109 70.717824 
L 1342.643119 74.397313 
L 1347.476129 77.776467 
L 1352.309139 79.541979 
L 1357.142149 82.769416 
L 1361.975159 86.67794 
L 1366.808169 90.531607 
L 1371.641179 94.184249 
L 1376.474189 99.664844 
L 1381.307199 103.526954 
L 1386.140209 105.417158 
L 1390.973219 109.806475 
L 1395.806229 112.953108 
L 1400.639239 113.884518 
L 1405.472249 114.900456 
L 1410.305259 116.610564 
L 1415.138269 119.348446 
L 1419.971279 121.167489 
L 1424.804289 124.140003 
L 1429.637299 127.113041 
L 1434.470309 130.121655 
" clip-path="url(#pfe823c4b9c)" style="fill: none; stroke: #ffff00; stroke-width: 1.5; stroke-linecap: square"/>
   </g>
   <g id="line2d_94">
    <path d="M 1279.81399 195.550493 
L 1284.647 195.154628 
L 1289.48001 195.312259 
L 1294.31302 195.731091 
L 1299.14603 196.052202 
L 1303.97904 196.065462 
L 1308.81205 195.460928 
L 1313.64506 195.480932 
L 1318.47807 196.105247 
L 1323.31108 196.589354 
L 1328.14409 196.539154 
L 1332.9771 196.932275 
L 1337.810109 196.780311 
L 1342.643119 196.348138 
L 1347.476129 196.577622 
L 1352.309139 196.366879 
L 1357.142149 196.330401 
L 1361.975159 196.561119 
L 1366.808169 196.815883 
L 1371.641179 196.92133 
L 1376.474189 196.971893 
L 1381.307199 197.780388 
L 1386.140209 199.085164 
L 1390.973219 199.576668 
L 1395.806229 200.128658 
L 1400.639239 200.69787 
L 1405.472249 200.412135 
L 1410.305259 200.25087 
L 1415.138269 199.894186 
L 1419.971279 199.658475 
L 1424.804289 200.591387 
L 1429.637299 202.003332 
L 1434.470309 202.187764 
" clip-path="url(#pfe823c4b9c)" style="fill: none; stroke: #800080; stroke-width: 1.5; stroke-linecap: square"/>
   </g>
   <g id="line2d_95">
    <path d="M 1289.48001 210.24 
L 1289.48001 43.92 
" clip-path="url(#pfe823c4b9c)" style="fill: none; stroke-dasharray: 5.55,2.4; stroke-dashoffset: 0; stroke: #808080; stroke-opacity: 0.7; stroke-width: 1.5"/>
   </g>
   <g id="line2d_96">
    <path d="M 1419.971279 210.24 
L 1419.971279 43.92 
" clip-path="url(#pfe823c4b9c)" style="fill: none; stroke-dasharray: 5.55,2.4; stroke-dashoffset: 0; stroke: #808080; stroke-opacity: 0.7; stroke-width: 1.5"/>
   </g>
   <g id="text_93">
    <text style="font: 12px 'Arial', sans-serif; text-anchor: middle" x="1357.142149" y="37.92" transform="rotate(-0 1357.142149 37.92)">3 Correct Trials</text>
   </g>
   <g id="legend_7">
    <g id="patch_29">
     <path d="M 1299.233555 136.138636 
L 1415.050744 136.138636 
Q 1416.208744 136.138636 1416.208744 134.980636 
L 1416.208744 119.179364 
Q 1416.208744 118.021364 1415.050744 118.021364 
L 1299.233555 118.021364 
Q 1298.075555 118.021364 1298.075555 119.179364 
L 1298.075555 134.980636 
Q 1298.075555 136.138636 1299.233555 136.138636 
z
" style="fill: #ffffff; opacity: 0.8; stroke: #cccccc; stroke-linejoin: miter"/>
    </g>
    <g id="line2d_97">
     <path d="M 1300.391555 122.455237 
L 1306.181555 122.455237 
L 1311.971555 122.455237 
" style="fill: none; stroke: #ffff00; stroke-width: 1.5; stroke-linecap: square"/>
    </g>
    <g id="text_94">
     <text style="font: 5.79px 'Arial', sans-serif; text-anchor: start" x="1316.603555" y="124.481737" transform="rotate(-0 1316.603555 124.481737)">Pref - PrevCount=3 - #Trials=60.0</text>
    </g>
    <g id="line2d_98">
     <path d="M 1300.391555 130.645373 
L 1306.181555 130.645373 
L 1311.971555 130.645373 
" style="fill: none; stroke: #800080; stroke-width: 1.5; stroke-linecap: square"/>
    </g>
    <g id="text_95">
     <text style="font: 5.79px 'Arial', sans-serif; text-anchor: start" x="1316.603555" y="132.671873" transform="rotate(-0 1316.603555 132.671873)">NonPref - PrevCount=3 - #Trials=62.0</text>
    </g>
   </g>
  </g>
  <g id="text_96">
   <text style="font: 12px 'Arial', sans-serif; text-anchor: middle" x="722.203125" y="15.935625" transform="rotate(-0 722.203125 15.935625)">Balance Change - M2 - GP4_28_S2_L51_D250_M2L_123 - PrevChoiceLeft</text>
  </g>
 </g>
 <defs>
  <clipPath id="pc50e5f3ae5">
   <rect x="47.203125" y="43.92" width="170.121951" height="166.32"/>
  </clipPath>
  <clipPath id="pfe41046514">
   <rect x="251.349466" y="43.92" width="170.121951" height="166.32"/>
  </clipPath>
  <clipPath id="pccb6a2cb2f">
   <rect x="455.495808" y="43.92" width="170.121951" height="166.32"/>
  </clipPath>
  <clipPath id="p060ac7f7b7">
   <rect x="659.642149" y="43.92" width="170.121951" height="166.32"/>
  </clipPath>
  <clipPath id="p062bb399bd">
   <rect x="863.788491" y="43.92" width="170.121951" height="166.32"/>
  </clipPath>
  <clipPath id="pe79fbf88cd">
   <rect x="1067.934832" y="43.92" width="170.121951" height="166.32"/>
  </clipPath>
  <clipPath id="pfe823c4b9c">
   <rect x="1272.081174" y="43.92" width="170.121951" height="166.32"/>
  </clipPath>
 </defs>
</svg>
