<?xml version="1.0" encoding="utf-8" standalone="no"?>
<!DOCTYPE svg PUBLIC "-//W3C//DTD SVG 1.1//EN"
  "http://www.w3.org/Graphics/SVG/1.1/DTD/svg11.dtd">
<svg xmlns:xlink="http://www.w3.org/1999/xlink" width="1443.5625pt" height="323.436915pt" viewBox="0 0 1443.5625 323.436915" xmlns="http://www.w3.org/2000/svg" version="1.1">
 <metadata>
  <rdf:RDF xmlns:dc="http://purl.org/dc/elements/1.1/" xmlns:cc="http://creativecommons.org/ns#" xmlns:rdf="http://www.w3.org/1999/02/22-rdf-syntax-ns#">
   <cc:Work>
    <dc:type rdf:resource="http://purl.org/dc/dcmitype/StillImage"/>
    <dc:date>2025-12-27T14:02:52.909857</dc:date>
    <dc:format>image/svg+xml</dc:format>
    <dc:creator>
     <cc:Agent>
      <dc:title>Matplotlib v3.8.0, https://matplotlib.org/</dc:title>
     </cc:Agent>
    </dc:creator>
   </cc:Work>
  </rdf:RDF>
 </metadata>
 <defs>
  <style type="text/css">*{stroke-linejoin: round; stroke-linecap: butt}</style>
 </defs>
 <g id="figure_1">
  <g id="patch_1">
   <path d="M 0 323.436915 
L 1443.5625 323.436915 
L 1443.5625 0 
L 0 0 
z
" style="fill: #ffffff"/>
  </g>
  <g id="axes_1">
   <g id="patch_2">
    <path d="M 41.3625 210.24 
L 211.484451 210.24 
L 211.484451 43.92 
L 41.3625 43.92 
z
" style="fill: #ffffff"/>
   </g>
   <g id="patch_3">
    <path d="M 49.095316 210.24 
L 67.290177 210.24 
L 67.290177 107.60437 
L 49.095316 107.60437 
z
" clip-path="url(#pa21bd96c06)" style="fill: #808080"/>
   </g>
   <g id="patch_4">
    <path d="M 71.838892 210.24 
L 90.033753 210.24 
L 90.033753 101.552103 
L 71.838892 101.552103 
z
" clip-path="url(#pa21bd96c06)" style="fill: #808080"/>
   </g>
   <g id="patch_5">
    <path d="M 94.582469 210.24 
L 112.77733 210.24 
L 112.77733 86.078357 
L 94.582469 86.078357 
z
" clip-path="url(#pa21bd96c06)" style="fill: #808080"/>
   </g>
   <g id="patch_6">
    <path d="M 140.069621 210.24 
L 158.264483 210.24 
L 158.264483 80.62006 
L 140.069621 80.62006 
z
" clip-path="url(#pa21bd96c06)" style="fill: #808080"/>
   </g>
   <g id="patch_7">
    <path d="M 162.813198 210.24 
L 181.008059 210.24 
L 181.008059 73.503558 
L 162.813198 73.503558 
z
" clip-path="url(#pa21bd96c06)" style="fill: #808080"/>
   </g>
   <g id="patch_8">
    <path d="M 185.556774 210.24 
L 203.751635 210.24 
L 203.751635 65.608008 
L 185.556774 65.608008 
z
" clip-path="url(#pa21bd96c06)" style="fill: #808080"/>
   </g>
   <g id="matplotlib.axis_1">
    <g id="xtick_1">
     <g id="line2d_1">
      <defs>
       <path id="md34e364e8b" d="M 0 0 
L 0 3.5 
" style="stroke: #000000; stroke-width: 0.8"/>
      </defs>
      <g>
       <use xlink:href="#md34e364e8b" x="58.192747" y="210.24" style="stroke: #000000; stroke-width: 0.8"/>
      </g>
     </g>
     <g id="text_1">
      <text style="font: 10px 'Arial', sans-serif; text-anchor: middle" x="58.192747" y="224.397813" transform="rotate(-0 58.192747 224.397813)">−3</text>
     </g>
    </g>
    <g id="xtick_2">
     <g id="line2d_2">
      <g>
       <use xlink:href="#md34e364e8b" x="80.936323" y="210.24" style="stroke: #000000; stroke-width: 0.8"/>
      </g>
     </g>
     <g id="text_2">
      <text style="font: 10px 'Arial', sans-serif; text-anchor: middle" x="80.936323" y="224.397813" transform="rotate(-0 80.936323 224.397813)">−2</text>
     </g>
    </g>
    <g id="xtick_3">
     <g id="line2d_3">
      <g>
       <use xlink:href="#md34e364e8b" x="103.679899" y="210.24" style="stroke: #000000; stroke-width: 0.8"/>
      </g>
     </g>
     <g id="text_3">
      <text style="font: 10px 'Arial', sans-serif; text-anchor: middle" x="103.679899" y="224.397813" transform="rotate(-0 103.679899 224.397813)">−1</text>
     </g>
    </g>
    <g id="xtick_4">
     <g id="line2d_4">
      <g>
       <use xlink:href="#md34e364e8b" x="149.167052" y="210.24" style="stroke: #000000; stroke-width: 0.8"/>
      </g>
     </g>
     <g id="text_4">
      <text style="font: 10px 'Arial', sans-serif; text-anchor: middle" x="149.167052" y="224.397813" transform="rotate(-0 149.167052 224.397813)">1</text>
     </g>
    </g>
    <g id="xtick_5">
     <g id="line2d_5">
      <g>
       <use xlink:href="#md34e364e8b" x="171.910628" y="210.24" style="stroke: #000000; stroke-width: 0.8"/>
      </g>
     </g>
     <g id="text_5">
      <text style="font: 10px 'Arial', sans-serif; text-anchor: middle" x="171.910628" y="224.397813" transform="rotate(-0 171.910628 224.397813)">2</text>
     </g>
    </g>
    <g id="xtick_6">
     <g id="line2d_6">
      <g>
       <use xlink:href="#md34e364e8b" x="194.654205" y="210.24" style="stroke: #000000; stroke-width: 0.8"/>
      </g>
     </g>
     <g id="text_6">
      <text style="font: 10px 'Arial', sans-serif; text-anchor: middle" x="194.654205" y="224.397813" transform="rotate(-0 194.654205 224.397813)">3</text>
     </g>
    </g>
    <g id="text_7">
     <text style="font: 10px 'Arial', sans-serif; text-anchor: middle" x="126.423476" y="237.543125" transform="rotate(-0 126.423476 237.543125)">PrevOutcomeCount</text>
    </g>
   </g>
   <g id="matplotlib.axis_2">
    <g id="ytick_1">
     <g id="line2d_7">
      <defs>
       <path id="mdf6416cc8d" d="M 0 0 
L -3.5 0 
" style="stroke: #000000; stroke-width: 0.8"/>
      </defs>
      <g>
       <use xlink:href="#mdf6416cc8d" x="41.3625" y="210.24" style="stroke: #000000; stroke-width: 0.8"/>
      </g>
     </g>
     <g id="text_8">
      <text style="font: 10px 'Arial', sans-serif; text-anchor: end" x="34.3625" y="213.818906" transform="rotate(-0 34.3625 213.818906)">0.0</text>
     </g>
    </g>
    <g id="ytick_2">
     <g id="line2d_8">
      <g>
       <use xlink:href="#mdf6416cc8d" x="41.3625" y="176.137911" style="stroke: #000000; stroke-width: 0.8"/>
      </g>
     </g>
     <g id="text_9">
      <text style="font: 10px 'Arial', sans-serif; text-anchor: end" x="34.3625" y="179.716817" transform="rotate(-0 34.3625 179.716817)">0.5</text>
     </g>
    </g>
    <g id="ytick_3">
     <g id="line2d_9">
      <g>
       <use xlink:href="#mdf6416cc8d" x="41.3625" y="142.035821" style="stroke: #000000; stroke-width: 0.8"/>
      </g>
     </g>
     <g id="text_10">
      <text style="font: 10px 'Arial', sans-serif; text-anchor: end" x="34.3625" y="145.614727" transform="rotate(-0 34.3625 145.614727)">1.0</text>
     </g>
    </g>
    <g id="ytick_4">
     <g id="line2d_10">
      <g>
       <use xlink:href="#mdf6416cc8d" x="41.3625" y="107.933732" style="stroke: #000000; stroke-width: 0.8"/>
      </g>
     </g>
     <g id="text_11">
      <text style="font: 10px 'Arial', sans-serif; text-anchor: end" x="34.3625" y="111.512638" transform="rotate(-0 34.3625 111.512638)">1.5</text>
     </g>
    </g>
    <g id="ytick_5">
     <g id="line2d_11">
      <g>
       <use xlink:href="#mdf6416cc8d" x="41.3625" y="73.831642" style="stroke: #000000; stroke-width: 0.8"/>
      </g>
     </g>
     <g id="text_12">
      <text style="font: 10px 'Arial', sans-serif; text-anchor: end" x="34.3625" y="77.410549" transform="rotate(-0 34.3625 77.410549)">2.0</text>
     </g>
    </g>
    <g id="text_13">
     <text style="font: 10px 'Arial', sans-serif; text-anchor: middle" x="14.357813" y="127.08" transform="rotate(-90 14.357813 127.08)">Max Activity</text>
    </g>
   </g>
   <g id="LineCollection_1">
    <path d="M 58.192747 145.770743 
L 58.192747 69.437998 
" clip-path="url(#pa21bd96c06)" style="fill: none; stroke: #000000; stroke-width: 1.5"/>
    <path d="M 80.936323 141.403508 
L 80.936323 61.700698 
" clip-path="url(#pa21bd96c06)" style="fill: none; stroke: #000000; stroke-width: 1.5"/>
    <path d="M 103.679899 102.877235 
L 103.679899 69.279478 
" clip-path="url(#pa21bd96c06)" style="fill: none; stroke: #000000; stroke-width: 1.5"/>
    <path d="M 149.167052 95.580231 
L 149.167052 65.659889 
" clip-path="url(#pa21bd96c06)" style="fill: none; stroke: #000000; stroke-width: 1.5"/>
    <path d="M 171.910628 92.663024 
L 171.910628 54.344091 
" clip-path="url(#pa21bd96c06)" style="fill: none; stroke: #000000; stroke-width: 1.5"/>
    <path d="M 194.654205 79.376016 
L 194.654205 51.84 
" clip-path="url(#pa21bd96c06)" style="fill: none; stroke: #000000; stroke-width: 1.5"/>
   </g>
   <g id="line2d_12">
    <path d="M 41.3625 210.24 
L 211.484451 210.24 
" clip-path="url(#pa21bd96c06)" style="fill: none; stroke-dasharray: 5.55,2.4; stroke-dashoffset: 0; stroke: #808080; stroke-width: 1.5"/>
   </g>
   <g id="legend_1">
    <g id="patch_9">
     <path d="M 48.3625 66.065312 
L 91.476563 66.065312 
Q 93.476563 66.065312 93.476563 64.065312 
L 93.476563 50.92 
Q 93.476563 48.92 91.476563 48.92 
L 48.3625 48.92 
Q 46.3625 48.92 46.3625 50.92 
L 46.3625 64.065312 
Q 46.3625 66.065312 48.3625 66.065312 
z
" style="fill: #ffffff; opacity: 0.8; stroke: #cccccc; stroke-linejoin: miter"/>
    </g>
    <g id="patch_10">
     <path d="M 50.3625 60.077812 
L 70.3625 60.077812 
L 70.3625 53.077812 
L 50.3625 53.077812 
z
" style="fill: #808080"/>
    </g>
    <g id="text_14">
     <text style="font: 10px 'Arial', sans-serif; text-anchor: start" x="78.3625" y="60.077812" transform="rotate(-0 78.3625 60.077812)">All</text>
    </g>
   </g>
  </g>
  <g id="axes_2">
   <g id="patch_11">
    <path d="M 245.508841 210.24 
L 415.630793 210.24 
L 415.630793 43.92 
L 245.508841 43.92 
z
" style="fill: #ffffff"/>
   </g>
   <g id="PolyCollection_1">
    <defs>
     <path id="ma3b1ed1e41" d="M 253.241657 -190.635792 
L 253.241657 -128.514196 
L 258.074667 -127.03523 
L 262.907677 -132.86609 
L 267.740687 -136.508249 
L 272.573697 -133.047457 
L 277.406707 -130.601135 
L 282.239717 -134.768546 
L 287.072727 -136.286503 
L 291.905737 -130.916483 
L 296.738747 -135.097776 
L 301.571757 -142.039461 
L 306.404767 -146.052186 
L 311.237777 -150.972453 
L 316.070787 -156.630988 
L 320.903797 -159.973192 
L 325.736807 -158.148077 
L 330.569817 -152.772136 
L 335.402827 -148.317794 
L 340.235837 -142.05227 
L 345.068847 -135.666069 
L 349.901857 -134.109973 
L 354.734867 -138.180043 
L 359.567877 -143.862065 
L 364.400887 -151.835235 
L 369.233897 -159.376837 
L 374.066907 -166.852604 
L 378.899917 -174.541841 
L 383.732927 -179.790435 
L 388.565937 -181.273268 
L 393.398947 -179.662873 
L 398.231957 -181.887441 
L 403.064967 -180.763638 
L 407.897977 -171.110752 
L 407.897977 -214.050346 
L 407.897977 -214.050346 
L 403.064967 -224.112012 
L 398.231957 -229.046199 
L 393.398947 -224.613948 
L 388.565937 -222.978751 
L 383.732927 -227.066367 
L 378.899917 -221.882136 
L 374.066907 -213.77248 
L 369.233897 -209.372372 
L 364.400887 -200.949288 
L 359.567877 -192.993512 
L 354.734867 -184.239909 
L 349.901857 -172.029184 
L 345.068847 -169.076879 
L 340.235837 -178.127479 
L 335.402827 -192.364143 
L 330.569817 -205.557409 
L 325.736807 -225.751094 
L 320.903797 -230.399977 
L 316.070787 -225.820421 
L 311.237777 -226.175187 
L 306.404767 -219.213194 
L 301.571757 -205.691742 
L 296.738747 -190.828429 
L 291.905737 -188.666088 
L 287.072727 -197.774531 
L 282.239717 -193.493393 
L 277.406707 -186.004087 
L 272.573697 -190.989385 
L 267.740687 -202.09746 
L 262.907677 -199.1396 
L 258.074667 -190.317959 
L 253.241657 -190.635792 
z
" style="stroke: #808080; stroke-opacity: 0.1"/>
    </defs>
    <g clip-path="url(#pd75126cd65)">
     <use xlink:href="#ma3b1ed1e41" x="0" y="323.436915" style="fill: #808080; fill-opacity: 0.1; stroke: #808080; stroke-opacity: 0.1"/>
    </g>
   </g>
   <g id="matplotlib.axis_3">
    <g id="xtick_7">
     <g id="line2d_13">
      <g>
       <use xlink:href="#md34e364e8b" x="262.907677" y="210.24" style="stroke: #000000; stroke-width: 0.8"/>
      </g>
     </g>
     <g id="text_15">
      <text style="font: 10px 'Arial', sans-serif" transform="translate(231.941925 251.86503) rotate(-45)">Sampling</text>
     </g>
    </g>
    <g id="xtick_8">
     <g id="line2d_14">
      <g>
       <use xlink:href="#md34e364e8b" x="393.398947" y="210.24" style="stroke: #000000; stroke-width: 0.8"/>
      </g>
     </g>
     <g id="text_16">
      <text style="font: 10px 'Arial', sans-serif" transform="translate(312.608682 301.686227) rotate(-45)">Movement to Lateral Port</text>
     </g>
    </g>
    <g id="text_17">
     <text style="font: 10px 'Arial', sans-serif; text-anchor: middle" x="330.569817" y="314.249415" transform="rotate(-0 330.569817 314.249415)">Normalized Time</text>
    </g>
   </g>
   <g id="matplotlib.axis_4">
    <g id="ytick_6">
     <g id="line2d_15">
      <g>
       <use xlink:href="#mdf6416cc8d" x="245.508841" y="197.859482" style="stroke: #000000; stroke-width: 0.8"/>
      </g>
     </g>
     <g id="text_18">
      <text style="font: 10px 'Arial', sans-serif; text-anchor: end" x="238.508841" y="201.438389" transform="rotate(-0 238.508841 201.438389)">−0.5</text>
     </g>
    </g>
    <g id="ytick_7">
     <g id="line2d_16">
      <g>
       <use xlink:href="#mdf6416cc8d" x="245.508841" y="170.965364" style="stroke: #000000; stroke-width: 0.8"/>
      </g>
     </g>
     <g id="text_19">
      <text style="font: 10px 'Arial', sans-serif; text-anchor: end" x="238.508841" y="174.544271" transform="rotate(-0 238.508841 174.544271)">0.0</text>
     </g>
    </g>
    <g id="ytick_8">
     <g id="line2d_17">
      <g>
       <use xlink:href="#mdf6416cc8d" x="245.508841" y="144.071246" style="stroke: #000000; stroke-width: 0.8"/>
      </g>
     </g>
     <g id="text_20">
      <text style="font: 10px 'Arial', sans-serif; text-anchor: end" x="238.508841" y="147.650153" transform="rotate(-0 238.508841 147.650153)">0.5</text>
     </g>
    </g>
    <g id="ytick_9">
     <g id="line2d_18">
      <g>
       <use xlink:href="#mdf6416cc8d" x="245.508841" y="117.177128" style="stroke: #000000; stroke-width: 0.8"/>
      </g>
     </g>
     <g id="text_21">
      <text style="font: 10px 'Arial', sans-serif; text-anchor: end" x="238.508841" y="120.756035" transform="rotate(-0 238.508841 120.756035)">1.0</text>
     </g>
    </g>
    <g id="ytick_10">
     <g id="line2d_19">
      <g>
       <use xlink:href="#mdf6416cc8d" x="245.508841" y="90.283011" style="stroke: #000000; stroke-width: 0.8"/>
      </g>
     </g>
     <g id="text_22">
      <text style="font: 10px 'Arial', sans-serif; text-anchor: end" x="238.508841" y="93.861917" transform="rotate(-0 238.508841 93.861917)">1.5</text>
     </g>
    </g>
    <g id="ytick_11">
     <g id="line2d_20">
      <g>
       <use xlink:href="#mdf6416cc8d" x="245.508841" y="63.388893" style="stroke: #000000; stroke-width: 0.8"/>
      </g>
     </g>
     <g id="text_23">
      <text style="font: 10px 'Arial', sans-serif; text-anchor: end" x="238.508841" y="66.967799" transform="rotate(-0 238.508841 66.967799)">2.0</text>
     </g>
    </g>
    <g id="text_24">
     <text style="font: 10px 'Arial', sans-serif; text-anchor: middle" x="212.663529" y="127.08" transform="rotate(-90 212.663529 127.08)">Mean Activity</text>
    </g>
   </g>
   <g id="line2d_21">
    <path d="M 253.241657 163.86192 
L 258.074667 164.76032 
L 262.907677 157.434069 
L 267.740687 154.13406 
L 272.573697 161.418493 
L 277.406707 165.134304 
L 282.239717 159.305944 
L 287.072727 156.406399 
L 291.905737 163.645628 
L 296.738747 160.473811 
L 301.571757 149.571312 
L 306.404767 140.804226 
L 311.237777 134.863096 
L 316.070787 132.21121 
L 320.903797 128.250332 
L 325.736807 131.487327 
L 330.569817 144.272141 
L 335.402827 153.095946 
L 340.235837 163.34704 
L 345.068847 171.065441 
L 349.901857 170.367336 
L 354.734867 162.22694 
L 359.567877 155.009126 
L 364.400887 147.044654 
L 369.233897 139.062311 
L 374.066907 133.124374 
L 378.899917 125.224927 
L 383.732927 120.008513 
L 388.565937 121.310905 
L 393.398947 121.298504 
L 398.231957 117.970095 
L 403.064967 120.99909 
L 407.897977 130.856365 
" clip-path="url(#pd75126cd65)" style="fill: none; stroke: #808080; stroke-width: 1.5; stroke-linecap: square"/>
   </g>
   <g id="line2d_22">
    <path d="M 262.907677 210.24 
L 262.907677 43.92 
" clip-path="url(#pd75126cd65)" style="fill: none; stroke-dasharray: 5.55,2.4; stroke-dashoffset: 0; stroke: #808080; stroke-opacity: 0.7; stroke-width: 1.5"/>
   </g>
   <g id="line2d_23">
    <path d="M 393.398947 210.24 
L 393.398947 43.92 
" clip-path="url(#pd75126cd65)" style="fill: none; stroke-dasharray: 5.55,2.4; stroke-dashoffset: 0; stroke: #808080; stroke-opacity: 0.7; stroke-width: 1.5"/>
   </g>
   <g id="text_25">
    <text style="font: 12px 'Arial', sans-serif; text-anchor: middle" x="330.569817" y="37.92" transform="rotate(-0 330.569817 37.92)">3 Incorrect Trials</text>
   </g>
   <g id="legend_2">
    <g id="patch_12">
     <path d="M 280.709323 207.345 
L 380.430312 207.345 
Q 381.588312 207.345 381.588312 206.187 
L 381.588312 198.575864 
Q 381.588312 197.417864 380.430312 197.417864 
L 280.709323 197.417864 
Q 279.551323 197.417864 279.551323 198.575864 
L 279.551323 206.187 
Q 279.551323 207.345 280.709323 207.345 
z
" style="fill: #ffffff; opacity: 0.8; stroke: #cccccc; stroke-linejoin: miter"/>
    </g>
    <g id="line2d_24">
     <path d="M 281.867323 201.851738 
L 287.657323 201.851738 
L 293.447323 201.851738 
" style="fill: none; stroke: #808080; stroke-width: 1.5; stroke-linecap: square"/>
    </g>
    <g id="text_26">
     <text style="font: 5.79px 'Arial', sans-serif; text-anchor: start" x="298.079323" y="203.878238" transform="rotate(-0 298.079323 203.878238)">All - PrevCount=-3 - #Trials=6.0</text>
    </g>
   </g>
  </g>
  <g id="axes_3">
   <g id="patch_13">
    <path d="M 449.655183 210.24 
L 619.777134 210.24 
L 619.777134 43.92 
L 449.655183 43.92 
z
" style="fill: #ffffff"/>
   </g>
   <g id="PolyCollection_2">
    <defs>
     <path id="m8fd14b81a5" d="M 457.387999 -144.644446 
L 457.387999 -127.545915 
L 462.221009 -127.924422 
L 467.054019 -127.220171 
L 471.887029 -127.688488 
L 476.720039 -129.361952 
L 481.553049 -126.630839 
L 486.386059 -121.47083 
L 491.219069 -117.731059 
L 496.052079 -116.767336 
L 500.885089 -119.824409 
L 505.718099 -124.806261 
L 510.551109 -130.403897 
L 515.384119 -136.816145 
L 520.217129 -142.977218 
L 525.050139 -145.820891 
L 529.883149 -150.409514 
L 534.716159 -156.004838 
L 539.549169 -150.737486 
L 544.382178 -144.15894 
L 549.215188 -145.608921 
L 554.048198 -152.123329 
L 558.881208 -153.006244 
L 563.714218 -149.659987 
L 568.547228 -152.047485 
L 573.380238 -159.737763 
L 578.213248 -169.213706 
L 583.046258 -175.286176 
L 587.879268 -176.84907 
L 592.712278 -178.457304 
L 597.545288 -179.763918 
L 602.378298 -180.701604 
L 607.211308 -184.462821 
L 612.044318 -185.991706 
L 612.044318 -246.781988 
L 612.044318 -246.781988 
L 607.211308 -251.184866 
L 602.378298 -247.382208 
L 597.545288 -241.012368 
L 592.712278 -234.292025 
L 587.879268 -231.048095 
L 583.046258 -225.213238 
L 578.213248 -210.741654 
L 573.380238 -194.669242 
L 568.547228 -178.51693 
L 563.714218 -177.342911 
L 558.881208 -186.268479 
L 554.048198 -184.400024 
L 549.215188 -166.892102 
L 544.382178 -162.749508 
L 539.549169 -181.82398 
L 534.716159 -195.67926 
L 529.883149 -178.16564 
L 525.050139 -161.608734 
L 520.217129 -162.770983 
L 515.384119 -169.542978 
L 510.551109 -165.675115 
L 505.718099 -158.523844 
L 500.885089 -146.410777 
L 496.052079 -133.637049 
L 491.219069 -131.484607 
L 486.386059 -133.799458 
L 481.553049 -137.968055 
L 476.720039 -141.381007 
L 471.887029 -140.445344 
L 467.054019 -141.311318 
L 462.221009 -144.023252 
L 457.387999 -144.644446 
z
" style="stroke: #808080; stroke-opacity: 0.1"/>
    </defs>
    <g clip-path="url(#pfeb59488d8)">
     <use xlink:href="#m8fd14b81a5" x="0" y="323.436915" style="fill: #808080; fill-opacity: 0.1; stroke: #808080; stroke-opacity: 0.1"/>
    </g>
   </g>
   <g id="matplotlib.axis_5">
    <g id="xtick_9">
     <g id="line2d_25">
      <g>
       <use xlink:href="#md34e364e8b" x="467.054019" y="210.24" style="stroke: #000000; stroke-width: 0.8"/>
      </g>
     </g>
     <g id="text_27">
      <text style="font: 10px 'Arial', sans-serif" transform="translate(436.088266 251.86503) rotate(-45)">Sampling</text>
     </g>
    </g>
    <g id="xtick_10">
     <g id="line2d_26">
      <g>
       <use xlink:href="#md34e364e8b" x="597.545288" y="210.24" style="stroke: #000000; stroke-width: 0.8"/>
      </g>
     </g>
     <g id="text_28">
      <text style="font: 10px 'Arial', sans-serif" transform="translate(516.755024 301.686227) rotate(-45)">Movement to Lateral Port</text>
     </g>
    </g>
    <g id="text_29">
     <text style="font: 10px 'Arial', sans-serif; text-anchor: middle" x="534.716159" y="314.249415" transform="rotate(-0 534.716159 314.249415)">Normalized Time</text>
    </g>
   </g>
   <g id="matplotlib.axis_6">
    <g id="ytick_12">
     <g id="line2d_27">
      <g>
       <use xlink:href="#mdf6416cc8d" x="449.655183" y="197.859482" style="stroke: #000000; stroke-width: 0.8"/>
      </g>
     </g>
     <g id="text_30">
      <text style="font: 10px 'Arial', sans-serif; text-anchor: end" x="442.655183" y="201.438389" transform="rotate(-0 442.655183 201.438389)">−0.5</text>
     </g>
    </g>
    <g id="ytick_13">
     <g id="line2d_28">
      <g>
       <use xlink:href="#mdf6416cc8d" x="449.655183" y="170.965364" style="stroke: #000000; stroke-width: 0.8"/>
      </g>
     </g>
     <g id="text_31">
      <text style="font: 10px 'Arial', sans-serif; text-anchor: end" x="442.655183" y="174.544271" transform="rotate(-0 442.655183 174.544271)">0.0</text>
     </g>
    </g>
    <g id="ytick_14">
     <g id="line2d_29">
      <g>
       <use xlink:href="#mdf6416cc8d" x="449.655183" y="144.071246" style="stroke: #000000; stroke-width: 0.8"/>
      </g>
     </g>
     <g id="text_32">
      <text style="font: 10px 'Arial', sans-serif; text-anchor: end" x="442.655183" y="147.650153" transform="rotate(-0 442.655183 147.650153)">0.5</text>
     </g>
    </g>
    <g id="ytick_15">
     <g id="line2d_30">
      <g>
       <use xlink:href="#mdf6416cc8d" x="449.655183" y="117.177128" style="stroke: #000000; stroke-width: 0.8"/>
      </g>
     </g>
     <g id="text_33">
      <text style="font: 10px 'Arial', sans-serif; text-anchor: end" x="442.655183" y="120.756035" transform="rotate(-0 442.655183 120.756035)">1.0</text>
     </g>
    </g>
    <g id="ytick_16">
     <g id="line2d_31">
      <g>
       <use xlink:href="#mdf6416cc8d" x="449.655183" y="90.283011" style="stroke: #000000; stroke-width: 0.8"/>
      </g>
     </g>
     <g id="text_34">
      <text style="font: 10px 'Arial', sans-serif; text-anchor: end" x="442.655183" y="93.861917" transform="rotate(-0 442.655183 93.861917)">1.5</text>
     </g>
    </g>
    <g id="ytick_17">
     <g id="line2d_32">
      <g>
       <use xlink:href="#mdf6416cc8d" x="449.655183" y="63.388893" style="stroke: #000000; stroke-width: 0.8"/>
      </g>
     </g>
     <g id="text_35">
      <text style="font: 10px 'Arial', sans-serif; text-anchor: end" x="442.655183" y="66.967799" transform="rotate(-0 442.655183 66.967799)">2.0</text>
     </g>
    </g>
    <g id="text_36">
     <text style="font: 10px 'Arial', sans-serif; text-anchor: middle" x="416.80987" y="127.08" transform="rotate(-90 416.80987 127.08)">Mean Activity</text>
    </g>
   </g>
   <g id="line2d_33">
    <path d="M 457.387999 187.341735 
L 462.221009 187.463078 
L 467.054019 189.17117 
L 471.887029 189.369998 
L 476.720039 188.065435 
L 481.553049 191.137468 
L 486.386059 195.801771 
L 491.219069 198.829082 
L 496.052079 198.234722 
L 500.885089 190.319321 
L 505.718099 181.771862 
L 510.551109 175.397409 
L 515.384119 170.257353 
L 520.217129 170.562814 
L 525.050139 169.722103 
L 529.883149 159.149337 
L 534.716159 147.594866 
L 539.549169 157.156181 
L 544.382178 169.982691 
L 549.215188 167.186403 
L 554.048198 155.175239 
L 558.881208 153.799553 
L 563.714218 159.935466 
L 568.547228 158.154707 
L 573.380238 146.233413 
L 578.213248 133.459234 
L 583.046258 123.187208 
L 587.879268 119.488332 
L 592.712278 117.06225 
L 597.545288 113.04877 
L 602.378298 109.395007 
L 607.211308 105.613073 
L 612.044318 107.050066 
" clip-path="url(#pfeb59488d8)" style="fill: none; stroke: #808080; stroke-width: 1.5; stroke-linecap: square"/>
   </g>
   <g id="line2d_34">
    <path d="M 467.054019 210.24 
L 467.054019 43.92 
" clip-path="url(#pfeb59488d8)" style="fill: none; stroke-dasharray: 5.55,2.4; stroke-dashoffset: 0; stroke: #808080; stroke-opacity: 0.7; stroke-width: 1.5"/>
   </g>
   <g id="line2d_35">
    <path d="M 597.545288 210.24 
L 597.545288 43.92 
" clip-path="url(#pfeb59488d8)" style="fill: none; stroke-dasharray: 5.55,2.4; stroke-dashoffset: 0; stroke: #808080; stroke-opacity: 0.7; stroke-width: 1.5"/>
   </g>
   <g id="text_37">
    <text style="font: 12px 'Arial', sans-serif; text-anchor: middle" x="534.716159" y="37.92" transform="rotate(-0 534.716159 37.92)">2 Incorrect Trials</text>
   </g>
   <g id="legend_3">
    <g id="patch_14">
     <path d="M 483.459279 56.742136 
L 585.973038 56.742136 
Q 587.131038 56.742136 587.131038 55.584136 
L 587.131038 47.973 
Q 587.131038 46.815 585.973038 46.815 
L 483.459279 46.815 
Q 482.301279 46.815 482.301279 47.973 
L 482.301279 55.584136 
Q 482.301279 56.742136 483.459279 56.742136 
z
" style="fill: #ffffff; opacity: 0.8; stroke: #cccccc; stroke-linejoin: miter"/>
    </g>
    <g id="line2d_36">
     <path d="M 484.617279 51.248873 
L 490.407279 51.248873 
L 496.197279 51.248873 
" style="fill: none; stroke: #808080; stroke-width: 1.5; stroke-linecap: square"/>
    </g>
    <g id="text_38">
     <text style="font: 5.79px 'Arial', sans-serif; text-anchor: start" x="500.829279" y="53.275373" transform="rotate(-0 500.829279 53.275373)">All - PrevCount=-2 - #Trials=11.0</text>
    </g>
   </g>
  </g>
  <g id="axes_4">
   <g id="patch_15">
    <path d="M 653.801524 210.24 
L 823.923476 210.24 
L 823.923476 43.92 
L 653.801524 43.92 
z
" style="fill: #ffffff"/>
   </g>
   <g id="PolyCollection_3">
    <defs>
     <path id="me3d23db7f6" d="M 661.53434 -147.507521 
L 661.53434 -132.758124 
L 666.36735 -131.527841 
L 671.20036 -129.854374 
L 676.03337 -127.238376 
L 680.86638 -126.982205 
L 685.69939 -127.925961 
L 690.5324 -128.906643 
L 695.36541 -129.695599 
L 700.19842 -129.679049 
L 705.03143 -131.604559 
L 709.86444 -135.303271 
L 714.69745 -138.78603 
L 719.53046 -140.309072 
L 724.36347 -141.625198 
L 729.19648 -143.614322 
L 734.02949 -144.160345 
L 738.8625 -142.906928 
L 743.69551 -145.392231 
L 748.52852 -150.146531 
L 753.36153 -152.108348 
L 758.19454 -153.02222 
L 763.02755 -155.804664 
L 767.86056 -160.186545 
L 772.69357 -167.119543 
L 777.52658 -174.366328 
L 782.35959 -179.534341 
L 787.1926 -185.955125 
L 792.02561 -192.351033 
L 796.85862 -199.464243 
L 801.69163 -205.635771 
L 806.52464 -214.317652 
L 811.35765 -218.486605 
L 816.19066 -216.181432 
L 816.19066 -241.858067 
L 816.19066 -241.858067 
L 811.35765 -245.991253 
L 806.52464 -242.13594 
L 801.69163 -231.71743 
L 796.85862 -223.772391 
L 792.02561 -215.140845 
L 787.1926 -207.969087 
L 782.35959 -201.115857 
L 777.52658 -194.526202 
L 772.69357 -184.961342 
L 767.86056 -176.553561 
L 763.02755 -171.213301 
L 758.19454 -167.149375 
L 753.36153 -165.059817 
L 748.52852 -161.75782 
L 743.69551 -155.814349 
L 738.8625 -152.458148 
L 734.02949 -154.382202 
L 729.19648 -154.738403 
L 724.36347 -153.741717 
L 719.53046 -152.541969 
L 714.69745 -151.010125 
L 709.86444 -147.256872 
L 705.03143 -143.143554 
L 700.19842 -141.232942 
L 695.36541 -141.329491 
L 690.5324 -141.046364 
L 685.69939 -140.372529 
L 680.86638 -140.130505 
L 676.03337 -140.924768 
L 671.20036 -143.860833 
L 666.36735 -145.754103 
L 661.53434 -147.507521 
z
" style="stroke: #808080; stroke-opacity: 0.1"/>
    </defs>
    <g clip-path="url(#pa49c4302b1)">
     <use xlink:href="#me3d23db7f6" x="0" y="323.436915" style="fill: #808080; fill-opacity: 0.1; stroke: #808080; stroke-opacity: 0.1"/>
    </g>
   </g>
   <g id="matplotlib.axis_7">
    <g id="xtick_11">
     <g id="line2d_37">
      <g>
       <use xlink:href="#md34e364e8b" x="671.20036" y="210.24" style="stroke: #000000; stroke-width: 0.8"/>
      </g>
     </g>
     <g id="text_39">
      <text style="font: 10px 'Arial', sans-serif" transform="translate(640.234608 251.86503) rotate(-45)">Sampling</text>
     </g>
    </g>
    <g id="xtick_12">
     <g id="line2d_38">
      <g>
       <use xlink:href="#md34e364e8b" x="801.69163" y="210.24" style="stroke: #000000; stroke-width: 0.8"/>
      </g>
     </g>
     <g id="text_40">
      <text style="font: 10px 'Arial', sans-serif" transform="translate(720.901365 301.686227) rotate(-45)">Movement to Lateral Port</text>
     </g>
    </g>
    <g id="text_41">
     <text style="font: 10px 'Arial', sans-serif; text-anchor: middle" x="738.8625" y="314.249415" transform="rotate(-0 738.8625 314.249415)">Normalized Time</text>
    </g>
   </g>
   <g id="matplotlib.axis_8">
    <g id="ytick_18">
     <g id="line2d_39">
      <g>
       <use xlink:href="#mdf6416cc8d" x="653.801524" y="197.859482" style="stroke: #000000; stroke-width: 0.8"/>
      </g>
     </g>
     <g id="text_42">
      <text style="font: 10px 'Arial', sans-serif; text-anchor: end" x="646.801524" y="201.438389" transform="rotate(-0 646.801524 201.438389)">−0.5</text>
     </g>
    </g>
    <g id="ytick_19">
     <g id="line2d_40">
      <g>
       <use xlink:href="#mdf6416cc8d" x="653.801524" y="170.965364" style="stroke: #000000; stroke-width: 0.8"/>
      </g>
     </g>
     <g id="text_43">
      <text style="font: 10px 'Arial', sans-serif; text-anchor: end" x="646.801524" y="174.544271" transform="rotate(-0 646.801524 174.544271)">0.0</text>
     </g>
    </g>
    <g id="ytick_20">
     <g id="line2d_41">
      <g>
       <use xlink:href="#mdf6416cc8d" x="653.801524" y="144.071246" style="stroke: #000000; stroke-width: 0.8"/>
      </g>
     </g>
     <g id="text_44">
      <text style="font: 10px 'Arial', sans-serif; text-anchor: end" x="646.801524" y="147.650153" transform="rotate(-0 646.801524 147.650153)">0.5</text>
     </g>
    </g>
    <g id="ytick_21">
     <g id="line2d_42">
      <g>
       <use xlink:href="#mdf6416cc8d" x="653.801524" y="117.177128" style="stroke: #000000; stroke-width: 0.8"/>
      </g>
     </g>
     <g id="text_45">
      <text style="font: 10px 'Arial', sans-serif; text-anchor: end" x="646.801524" y="120.756035" transform="rotate(-0 646.801524 120.756035)">1.0</text>
     </g>
    </g>
    <g id="ytick_22">
     <g id="line2d_43">
      <g>
       <use xlink:href="#mdf6416cc8d" x="653.801524" y="90.283011" style="stroke: #000000; stroke-width: 0.8"/>
      </g>
     </g>
     <g id="text_46">
      <text style="font: 10px 'Arial', sans-serif; text-anchor: end" x="646.801524" y="93.861917" transform="rotate(-0 646.801524 93.861917)">1.5</text>
     </g>
    </g>
    <g id="ytick_23">
     <g id="line2d_44">
      <g>
       <use xlink:href="#mdf6416cc8d" x="653.801524" y="63.388893" style="stroke: #000000; stroke-width: 0.8"/>
      </g>
     </g>
     <g id="text_47">
      <text style="font: 10px 'Arial', sans-serif; text-anchor: end" x="646.801524" y="66.967799" transform="rotate(-0 646.801524 66.967799)">2.0</text>
     </g>
    </g>
    <g id="text_48">
     <text style="font: 10px 'Arial', sans-serif; text-anchor: middle" x="620.956212" y="127.08" transform="rotate(-90 620.956212 127.08)">Mean Activity</text>
    </g>
   </g>
   <g id="line2d_45">
    <path d="M 661.53434 183.304092 
L 666.36735 184.795943 
L 671.20036 186.579311 
L 676.03337 189.355342 
L 680.86638 189.88056 
L 685.69939 189.287669 
L 690.5324 188.460411 
L 695.36541 187.92437 
L 700.19842 187.980919 
L 705.03143 186.062858 
L 709.86444 182.156843 
L 714.69745 178.538838 
L 719.53046 177.011394 
L 724.36347 175.753457 
L 729.19648 174.260552 
L 734.02949 174.165641 
L 738.8625 175.754377 
L 743.69551 172.833624 
L 748.52852 167.484739 
L 753.36153 164.852833 
L 758.19454 163.351118 
L 763.02755 159.927932 
L 767.86056 155.066862 
L 772.69357 147.396472 
L 777.52658 138.99065 
L 782.35959 133.111816 
L 787.1926 126.47481 
L 792.02561 119.690976 
L 796.85862 111.818598 
L 801.69163 104.760314 
L 806.52464 95.210119 
L 811.35765 91.197986 
L 816.19066 94.417165 
" clip-path="url(#pa49c4302b1)" style="fill: none; stroke: #808080; stroke-width: 1.5; stroke-linecap: square"/>
   </g>
   <g id="line2d_46">
    <path d="M 671.20036 210.24 
L 671.20036 43.92 
" clip-path="url(#pa49c4302b1)" style="fill: none; stroke-dasharray: 5.55,2.4; stroke-dashoffset: 0; stroke: #808080; stroke-opacity: 0.7; stroke-width: 1.5"/>
   </g>
   <g id="line2d_47">
    <path d="M 801.69163 210.24 
L 801.69163 43.92 
" clip-path="url(#pa49c4302b1)" style="fill: none; stroke-dasharray: 5.55,2.4; stroke-dashoffset: 0; stroke: #808080; stroke-opacity: 0.7; stroke-width: 1.5"/>
   </g>
   <g id="text_49">
    <text style="font: 12px 'Arial', sans-serif; text-anchor: middle" x="738.8625" y="37.92" transform="rotate(-0 738.8625 37.92)">1 Incorrect Trials</text>
   </g>
   <g id="legend_4">
    <g id="patch_16">
     <path d="M 687.392114 207.345 
L 790.332886 207.345 
Q 791.490886 207.345 791.490886 206.187 
L 791.490886 198.575864 
Q 791.490886 197.417864 790.332886 197.417864 
L 687.392114 197.417864 
Q 686.234114 197.417864 686.234114 198.575864 
L 686.234114 206.187 
Q 686.234114 207.345 687.392114 207.345 
z
" style="fill: #ffffff; opacity: 0.8; stroke: #cccccc; stroke-linejoin: miter"/>
    </g>
    <g id="line2d_48">
     <path d="M 688.550114 201.851738 
L 694.340114 201.851738 
L 700.130114 201.851738 
" style="fill: none; stroke: #808080; stroke-width: 1.5; stroke-linecap: square"/>
    </g>
    <g id="text_50">
     <text style="font: 5.79px 'Arial', sans-serif; text-anchor: start" x="704.762114" y="203.878238" transform="rotate(-0 704.762114 203.878238)">All - PrevCount=-1 - #Trials=51.0</text>
    </g>
   </g>
  </g>
  <g id="axes_5">
   <g id="patch_17">
    <path d="M 857.947866 210.24 
L 1028.069817 210.24 
L 1028.069817 43.92 
L 857.947866 43.92 
z
" style="fill: #ffffff"/>
   </g>
   <g id="PolyCollection_4">
    <defs>
     <path id="m3b11c01234" d="M 865.680682 -126.362166 
L 865.680682 -121.398579 
L 870.513692 -121.823557 
L 875.346702 -122.464064 
L 880.179712 -123.901631 
L 885.012722 -124.640323 
L 889.845732 -124.590155 
L 894.678742 -124.13336 
L 899.511752 -125.206835 
L 904.344762 -127.132127 
L 909.177772 -128.76582 
L 914.010782 -130.278358 
L 918.843792 -132.608404 
L 923.676802 -136.468111 
L 928.509812 -139.14428 
L 933.342822 -141.334586 
L 938.175831 -143.812506 
L 943.008841 -147.540836 
L 947.841851 -150.587723 
L 952.674861 -153.565832 
L 957.507871 -158.137775 
L 962.340881 -163.82543 
L 967.173891 -169.747903 
L 972.006901 -173.466046 
L 976.839911 -174.722273 
L 981.672921 -177.245236 
L 986.505931 -182.546385 
L 991.338941 -188.694112 
L 996.171951 -196.128787 
L 1001.004961 -204.617225 
L 1005.837971 -211.831043 
L 1010.670981 -222.991659 
L 1015.503991 -225.907875 
L 1020.337001 -222.945293 
L 1020.337001 -248.187126 
L 1020.337001 -248.187126 
L 1015.503991 -250.442343 
L 1010.670981 -245.526911 
L 1005.837971 -231.329648 
L 1001.004961 -223.062172 
L 996.171951 -213.789427 
L 991.338941 -205.454281 
L 986.505931 -197.908296 
L 981.672921 -191.240622 
L 976.839911 -187.958056 
L 972.006901 -186.754958 
L 967.173891 -182.714775 
L 962.340881 -175.198368 
L 957.507871 -168.778666 
L 952.674861 -163.865348 
L 947.841851 -159.701498 
L 943.008841 -155.7875 
L 938.175831 -151.36726 
L 933.342822 -148.358447 
L 928.509812 -145.980829 
L 923.676802 -143.444361 
L 918.843792 -140.116449 
L 914.010782 -136.657948 
L 909.177772 -133.791741 
L 904.344762 -131.953193 
L 899.511752 -130.39892 
L 894.678742 -129.168585 
L 889.845732 -128.854266 
L 885.012722 -128.707693 
L 880.179712 -128.043381 
L 875.346702 -126.46111 
L 870.513692 -125.875907 
L 865.680682 -126.362166 
z
" style="stroke: #808080; stroke-opacity: 0.1"/>
    </defs>
    <g clip-path="url(#p3056f4f0e3)">
     <use xlink:href="#m3b11c01234" x="0" y="323.436915" style="fill: #808080; fill-opacity: 0.1; stroke: #808080; stroke-opacity: 0.1"/>
    </g>
   </g>
   <g id="matplotlib.axis_9">
    <g id="xtick_13">
     <g id="line2d_49">
      <g>
       <use xlink:href="#md34e364e8b" x="875.346702" y="210.24" style="stroke: #000000; stroke-width: 0.8"/>
      </g>
     </g>
     <g id="text_51">
      <text style="font: 10px 'Arial', sans-serif" transform="translate(844.380949 251.86503) rotate(-45)">Sampling</text>
     </g>
    </g>
    <g id="xtick_14">
     <g id="line2d_50">
      <g>
       <use xlink:href="#md34e364e8b" x="1005.837971" y="210.24" style="stroke: #000000; stroke-width: 0.8"/>
      </g>
     </g>
     <g id="text_52">
      <text style="font: 10px 'Arial', sans-serif" transform="translate(925.047707 301.686227) rotate(-45)">Movement to Lateral Port</text>
     </g>
    </g>
    <g id="text_53">
     <text style="font: 10px 'Arial', sans-serif; text-anchor: middle" x="943.008841" y="314.249415" transform="rotate(-0 943.008841 314.249415)">Normalized Time</text>
    </g>
   </g>
   <g id="matplotlib.axis_10">
    <g id="ytick_24">
     <g id="line2d_51">
      <g>
       <use xlink:href="#mdf6416cc8d" x="857.947866" y="197.859482" style="stroke: #000000; stroke-width: 0.8"/>
      </g>
     </g>
     <g id="text_54">
      <text style="font: 10px 'Arial', sans-serif; text-anchor: end" x="850.947866" y="201.438389" transform="rotate(-0 850.947866 201.438389)">−0.5</text>
     </g>
    </g>
    <g id="ytick_25">
     <g id="line2d_52">
      <g>
       <use xlink:href="#mdf6416cc8d" x="857.947866" y="170.965364" style="stroke: #000000; stroke-width: 0.8"/>
      </g>
     </g>
     <g id="text_55">
      <text style="font: 10px 'Arial', sans-serif; text-anchor: end" x="850.947866" y="174.544271" transform="rotate(-0 850.947866 174.544271)">0.0</text>
     </g>
    </g>
    <g id="ytick_26">
     <g id="line2d_53">
      <g>
       <use xlink:href="#mdf6416cc8d" x="857.947866" y="144.071246" style="stroke: #000000; stroke-width: 0.8"/>
      </g>
     </g>
     <g id="text_56">
      <text style="font: 10px 'Arial', sans-serif; text-anchor: end" x="850.947866" y="147.650153" transform="rotate(-0 850.947866 147.650153)">0.5</text>
     </g>
    </g>
    <g id="ytick_27">
     <g id="line2d_54">
      <g>
       <use xlink:href="#mdf6416cc8d" x="857.947866" y="117.177128" style="stroke: #000000; stroke-width: 0.8"/>
      </g>
     </g>
     <g id="text_57">
      <text style="font: 10px 'Arial', sans-serif; text-anchor: end" x="850.947866" y="120.756035" transform="rotate(-0 850.947866 120.756035)">1.0</text>
     </g>
    </g>
    <g id="ytick_28">
     <g id="line2d_55">
      <g>
       <use xlink:href="#mdf6416cc8d" x="857.947866" y="90.283011" style="stroke: #000000; stroke-width: 0.8"/>
      </g>
     </g>
     <g id="text_58">
      <text style="font: 10px 'Arial', sans-serif; text-anchor: end" x="850.947866" y="93.861917" transform="rotate(-0 850.947866 93.861917)">1.5</text>
     </g>
    </g>
    <g id="ytick_29">
     <g id="line2d_56">
      <g>
       <use xlink:href="#mdf6416cc8d" x="857.947866" y="63.388893" style="stroke: #000000; stroke-width: 0.8"/>
      </g>
     </g>
     <g id="text_59">
      <text style="font: 10px 'Arial', sans-serif; text-anchor: end" x="850.947866" y="66.967799" transform="rotate(-0 850.947866 66.967799)">2.0</text>
     </g>
    </g>
    <g id="text_60">
     <text style="font: 10px 'Arial', sans-serif; text-anchor: middle" x="825.102553" y="127.08" transform="rotate(-90 825.102553 127.08)">Mean Activity</text>
    </g>
   </g>
   <g id="line2d_57">
    <path d="M 865.680682 199.556542 
L 870.513692 199.587182 
L 875.346702 198.974327 
L 880.179712 197.464408 
L 885.012722 196.762907 
L 889.845732 196.714704 
L 894.678742 196.785942 
L 899.511752 195.634038 
L 904.344762 193.894255 
L 909.177772 192.158134 
L 914.010782 189.968761 
L 918.843792 187.074488 
L 923.676802 183.480678 
L 928.509812 180.874361 
L 933.342822 178.590398 
L 938.175831 175.847032 
L 943.008841 171.772747 
L 947.841851 168.292304 
L 952.674861 164.721325 
L 957.507871 159.978694 
L 962.340881 153.925016 
L 967.173891 147.205575 
L 972.006901 143.326412 
L 976.839911 142.09675 
L 981.672921 139.193986 
L 986.505931 133.209574 
L 991.338941 126.362718 
L 996.171951 118.477808 
L 1001.004961 109.597217 
L 1005.837971 101.856569 
L 1010.670981 89.17763 
L 1015.503991 85.261805 
L 1020.337001 87.870705 
" clip-path="url(#p3056f4f0e3)" style="fill: none; stroke: #808080; stroke-width: 1.5; stroke-linecap: square"/>
   </g>
   <g id="line2d_58">
    <path d="M 875.346702 210.24 
L 875.346702 43.92 
" clip-path="url(#p3056f4f0e3)" style="fill: none; stroke-dasharray: 5.55,2.4; stroke-dashoffset: 0; stroke: #808080; stroke-opacity: 0.7; stroke-width: 1.5"/>
   </g>
   <g id="line2d_59">
    <path d="M 1005.837971 210.24 
L 1005.837971 43.92 
" clip-path="url(#p3056f4f0e3)" style="fill: none; stroke-dasharray: 5.55,2.4; stroke-dashoffset: 0; stroke: #808080; stroke-opacity: 0.7; stroke-width: 1.5"/>
   </g>
   <g id="text_61">
    <text style="font: 12px 'Arial', sans-serif; text-anchor: middle" x="943.008841" y="37.92" transform="rotate(-0 943.008841 37.92)">1 Correct Trials</text>
   </g>
   <g id="legend_5">
    <g id="patch_18">
     <path d="M 892.5024 207.345 
L 993.515283 207.345 
Q 994.673283 207.345 994.673283 206.187 
L 994.673283 198.575864 
Q 994.673283 197.417864 993.515283 197.417864 
L 892.5024 197.417864 
Q 891.3444 197.417864 891.3444 198.575864 
L 891.3444 206.187 
Q 891.3444 207.345 892.5024 207.345 
z
" style="fill: #ffffff; opacity: 0.8; stroke: #cccccc; stroke-linejoin: miter"/>
    </g>
    <g id="line2d_60">
     <path d="M 893.6604 201.851738 
L 899.4504 201.851738 
L 905.2404 201.851738 
" style="fill: none; stroke: #808080; stroke-width: 1.5; stroke-linecap: square"/>
    </g>
    <g id="text_62">
     <text style="font: 5.79px 'Arial', sans-serif; text-anchor: start" x="909.8724" y="203.878238" transform="rotate(-0 909.8724 203.878238)">All - PrevCount=1 - #Trials=53.0</text>
    </g>
   </g>
  </g>
  <g id="axes_6">
   <g id="patch_19">
    <path d="M 1062.094207 210.24 
L 1232.216159 210.24 
L 1232.216159 43.92 
L 1062.094207 43.92 
z
" style="fill: #ffffff"/>
   </g>
   <g id="PolyCollection_5">
    <defs>
     <path id="mfd05c6f41f" d="M 1069.827023 -127.484933 
L 1069.827023 -123.123169 
L 1074.660033 -122.371817 
L 1079.493043 -121.779032 
L 1084.326053 -121.686875 
L 1089.159063 -121.896927 
L 1093.992073 -122.333547 
L 1098.825083 -123.115308 
L 1103.658093 -122.309684 
L 1108.491103 -121.292524 
L 1113.324113 -121.971884 
L 1118.157123 -124.816202 
L 1122.990133 -128.298524 
L 1127.823143 -131.820869 
L 1132.656153 -135.681799 
L 1137.489163 -140.771291 
L 1142.322173 -144.847337 
L 1147.155183 -146.80125 
L 1151.988193 -148.729178 
L 1156.821203 -151.619323 
L 1161.654213 -152.414536 
L 1166.487223 -152.548008 
L 1171.320233 -155.329092 
L 1176.153243 -160.153519 
L 1180.986253 -165.228812 
L 1185.819263 -169.72967 
L 1190.652273 -174.651472 
L 1195.485283 -181.189498 
L 1200.318293 -192.188424 
L 1205.151303 -205.134098 
L 1209.984313 -214.615601 
L 1214.817323 -230.015894 
L 1219.650333 -236.572858 
L 1224.483343 -235.170573 
L 1224.483343 -266.47811 
L 1224.483343 -266.47811 
L 1219.650333 -267.396676 
L 1214.817323 -258.686845 
L 1209.984313 -240.447138 
L 1205.151303 -229.346617 
L 1200.318293 -214.460673 
L 1195.485283 -201.770163 
L 1190.652273 -193.274876 
L 1185.819263 -185.893604 
L 1180.986253 -178.813372 
L 1176.153243 -171.324023 
L 1171.320233 -165.631859 
L 1166.487223 -162.901058 
L 1161.654213 -162.658637 
L 1156.821203 -162.465239 
L 1151.988193 -160.367132 
L 1147.155183 -158.209453 
L 1142.322173 -155.471303 
L 1137.489163 -149.693058 
L 1132.656153 -142.741119 
L 1127.823143 -137.956284 
L 1122.990133 -133.818099 
L 1118.157123 -130.139723 
L 1113.324113 -127.497 
L 1108.491103 -126.936314 
L 1103.658093 -127.407135 
L 1098.825083 -127.47611 
L 1093.992073 -126.779945 
L 1089.159063 -126.318374 
L 1084.326053 -125.911773 
L 1079.493043 -126.463978 
L 1074.660033 -126.699392 
L 1069.827023 -127.484933 
z
" style="stroke: #808080; stroke-opacity: 0.1"/>
    </defs>
    <g clip-path="url(#pcb33340dfd)">
     <use xlink:href="#mfd05c6f41f" x="0" y="323.436915" style="fill: #808080; fill-opacity: 0.1; stroke: #808080; stroke-opacity: 0.1"/>
    </g>
   </g>
   <g id="matplotlib.axis_11">
    <g id="xtick_15">
     <g id="line2d_61">
      <g>
       <use xlink:href="#md34e364e8b" x="1079.493043" y="210.24" style="stroke: #000000; stroke-width: 0.8"/>
      </g>
     </g>
     <g id="text_63">
      <text style="font: 10px 'Arial', sans-serif" transform="translate(1048.52729 251.86503) rotate(-45)">Sampling</text>
     </g>
    </g>
    <g id="xtick_16">
     <g id="line2d_62">
      <g>
       <use xlink:href="#md34e364e8b" x="1209.984313" y="210.24" style="stroke: #000000; stroke-width: 0.8"/>
      </g>
     </g>
     <g id="text_64">
      <text style="font: 10px 'Arial', sans-serif" transform="translate(1129.194048 301.686227) rotate(-45)">Movement to Lateral Port</text>
     </g>
    </g>
    <g id="text_65">
     <text style="font: 10px 'Arial', sans-serif; text-anchor: middle" x="1147.155183" y="314.249415" transform="rotate(-0 1147.155183 314.249415)">Normalized Time</text>
    </g>
   </g>
   <g id="matplotlib.axis_12">
    <g id="ytick_30">
     <g id="line2d_63">
      <g>
       <use xlink:href="#mdf6416cc8d" x="1062.094207" y="197.859482" style="stroke: #000000; stroke-width: 0.8"/>
      </g>
     </g>
     <g id="text_66">
      <text style="font: 10px 'Arial', sans-serif; text-anchor: end" x="1055.094207" y="201.438389" transform="rotate(-0 1055.094207 201.438389)">−0.5</text>
     </g>
    </g>
    <g id="ytick_31">
     <g id="line2d_64">
      <g>
       <use xlink:href="#mdf6416cc8d" x="1062.094207" y="170.965364" style="stroke: #000000; stroke-width: 0.8"/>
      </g>
     </g>
     <g id="text_67">
      <text style="font: 10px 'Arial', sans-serif; text-anchor: end" x="1055.094207" y="174.544271" transform="rotate(-0 1055.094207 174.544271)">0.0</text>
     </g>
    </g>
    <g id="ytick_32">
     <g id="line2d_65">
      <g>
       <use xlink:href="#mdf6416cc8d" x="1062.094207" y="144.071246" style="stroke: #000000; stroke-width: 0.8"/>
      </g>
     </g>
     <g id="text_68">
      <text style="font: 10px 'Arial', sans-serif; text-anchor: end" x="1055.094207" y="147.650153" transform="rotate(-0 1055.094207 147.650153)">0.5</text>
     </g>
    </g>
    <g id="ytick_33">
     <g id="line2d_66">
      <g>
       <use xlink:href="#mdf6416cc8d" x="1062.094207" y="117.177128" style="stroke: #000000; stroke-width: 0.8"/>
      </g>
     </g>
     <g id="text_69">
      <text style="font: 10px 'Arial', sans-serif; text-anchor: end" x="1055.094207" y="120.756035" transform="rotate(-0 1055.094207 120.756035)">1.0</text>
     </g>
    </g>
    <g id="ytick_34">
     <g id="line2d_67">
      <g>
       <use xlink:href="#mdf6416cc8d" x="1062.094207" y="90.283011" style="stroke: #000000; stroke-width: 0.8"/>
      </g>
     </g>
     <g id="text_70">
      <text style="font: 10px 'Arial', sans-serif; text-anchor: end" x="1055.094207" y="93.861917" transform="rotate(-0 1055.094207 93.861917)">1.5</text>
     </g>
    </g>
    <g id="ytick_35">
     <g id="line2d_68">
      <g>
       <use xlink:href="#mdf6416cc8d" x="1062.094207" y="63.388893" style="stroke: #000000; stroke-width: 0.8"/>
      </g>
     </g>
     <g id="text_71">
      <text style="font: 10px 'Arial', sans-serif; text-anchor: end" x="1055.094207" y="66.967799" transform="rotate(-0 1055.094207 66.967799)">2.0</text>
     </g>
    </g>
    <g id="text_72">
     <text style="font: 10px 'Arial', sans-serif; text-anchor: middle" x="1029.248895" y="127.08" transform="rotate(-90 1029.248895 127.08)">Mean Activity</text>
    </g>
   </g>
   <g id="line2d_69">
    <path d="M 1069.827023 198.132864 
L 1074.660033 198.90131 
L 1079.493043 199.31541 
L 1084.326053 199.637591 
L 1089.159063 199.329264 
L 1093.992073 198.88017 
L 1098.825083 198.141206 
L 1103.658093 198.578505 
L 1108.491103 199.322496 
L 1113.324113 198.702472 
L 1118.157123 195.958952 
L 1122.990133 192.378603 
L 1127.823143 188.548338 
L 1132.656153 184.225455 
L 1137.489163 178.20474 
L 1142.322173 173.277594 
L 1147.155183 170.931563 
L 1151.988193 168.88876 
L 1156.821203 166.394634 
L 1161.654213 165.900328 
L 1166.487223 165.712382 
L 1171.320233 162.956439 
L 1176.153243 157.698144 
L 1180.986253 151.415822 
L 1185.819263 145.625277 
L 1190.652273 139.47374 
L 1195.485283 131.957084 
L 1200.318293 120.112366 
L 1205.151303 106.196557 
L 1209.984313 95.905545 
L 1214.817323 79.085545 
L 1219.650333 71.452151 
L 1224.483343 72.612573 
" clip-path="url(#pcb33340dfd)" style="fill: none; stroke: #808080; stroke-width: 1.5; stroke-linecap: square"/>
   </g>
   <g id="line2d_70">
    <path d="M 1079.493043 210.24 
L 1079.493043 43.92 
" clip-path="url(#pcb33340dfd)" style="fill: none; stroke-dasharray: 5.55,2.4; stroke-dashoffset: 0; stroke: #808080; stroke-opacity: 0.7; stroke-width: 1.5"/>
   </g>
   <g id="line2d_71">
    <path d="M 1209.984313 210.24 
L 1209.984313 43.92 
" clip-path="url(#pcb33340dfd)" style="fill: none; stroke-dasharray: 5.55,2.4; stroke-dashoffset: 0; stroke: #808080; stroke-opacity: 0.7; stroke-width: 1.5"/>
   </g>
   <g id="text_73">
    <text style="font: 12px 'Arial', sans-serif; text-anchor: middle" x="1147.155183" y="37.92" transform="rotate(-0 1147.155183 37.92)">2 Correct Trials</text>
   </g>
   <g id="legend_6">
    <g id="patch_20">
     <path d="M 1096.648742 56.742136 
L 1197.661624 56.742136 
Q 1198.819624 56.742136 1198.819624 55.584136 
L 1198.819624 47.973 
Q 1198.819624 46.815 1197.661624 46.815 
L 1096.648742 46.815 
Q 1095.490742 46.815 1095.490742 47.973 
L 1095.490742 55.584136 
Q 1095.490742 56.742136 1096.648742 56.742136 
z
" style="fill: #ffffff; opacity: 0.8; stroke: #cccccc; stroke-linejoin: miter"/>
    </g>
    <g id="line2d_72">
     <path d="M 1097.806742 51.248873 
L 1103.596742 51.248873 
L 1109.386742 51.248873 
" style="fill: none; stroke: #808080; stroke-width: 1.5; stroke-linecap: square"/>
    </g>
    <g id="text_74">
     <text style="font: 5.79px 'Arial', sans-serif; text-anchor: start" x="1114.018742" y="53.275373" transform="rotate(-0 1114.018742 53.275373)">All - PrevCount=2 - #Trials=37.0</text>
    </g>
   </g>
  </g>
  <g id="axes_7">
   <g id="patch_21">
    <path d="M 1266.240549 210.24 
L 1436.3625 210.24 
L 1436.3625 43.92 
L 1266.240549 43.92 
z
" style="fill: #ffffff"/>
   </g>
   <g id="PolyCollection_6">
    <defs>
     <path id="m14a6dca5be" d="M 1273.973365 -126.436904 
L 1273.973365 -121.991868 
L 1278.806375 -123.079449 
L 1283.639385 -123.499256 
L 1288.472395 -122.195159 
L 1293.305405 -121.882859 
L 1298.138415 -121.772713 
L 1302.971425 -122.058957 
L 1307.804435 -122.735689 
L 1312.637445 -123.158432 
L 1317.470455 -123.185671 
L 1322.303465 -123.379616 
L 1327.136475 -125.573845 
L 1331.969484 -129.164247 
L 1336.802494 -132.017623 
L 1341.635504 -134.744177 
L 1346.468514 -137.115314 
L 1351.301524 -140.243509 
L 1356.134534 -145.043302 
L 1360.967544 -149.802317 
L 1365.800554 -152.564869 
L 1370.633564 -152.22752 
L 1375.466574 -153.549152 
L 1380.299584 -157.743018 
L 1385.132594 -163.518846 
L 1389.965604 -170.294595 
L 1394.798614 -177.995522 
L 1399.631624 -187.603225 
L 1404.464634 -199.715095 
L 1409.297644 -212.658051 
L 1414.130654 -222.685182 
L 1418.963664 -238.10482 
L 1423.796674 -246.153241 
L 1428.629684 -245.968888 
L 1428.629684 -267.967336 
L 1428.629684 -267.967336 
L 1423.796674 -267.721395 
L 1418.963664 -258.912921 
L 1414.130654 -242.608534 
L 1409.297644 -231.865651 
L 1404.464634 -218.010067 
L 1399.631624 -204.646474 
L 1394.798614 -193.270593 
L 1389.965604 -183.290072 
L 1385.132594 -174.434033 
L 1380.299584 -167.464494 
L 1375.466574 -162.422077 
L 1370.633564 -160.381027 
L 1365.800554 -160.634215 
L 1360.967544 -158.281701 
L 1356.134534 -152.965829 
L 1351.301524 -147.192897 
L 1346.468514 -143.529524 
L 1341.635504 -141.151701 
L 1336.802494 -138.600645 
L 1331.969484 -135.568681 
L 1327.136475 -131.103789 
L 1322.303465 -128.244534 
L 1317.470455 -127.898674 
L 1312.637445 -127.444327 
L 1307.804435 -126.652297 
L 1302.971425 -125.836217 
L 1298.138415 -125.52367 
L 1293.305405 -125.879038 
L 1288.472395 -126.509702 
L 1283.639385 -127.610531 
L 1278.806375 -127.260301 
L 1273.973365 -126.436904 
z
" style="stroke: #808080; stroke-opacity: 0.1"/>
    </defs>
    <g clip-path="url(#pd2559b5646)">
     <use xlink:href="#m14a6dca5be" x="0" y="323.436915" style="fill: #808080; fill-opacity: 0.1; stroke: #808080; stroke-opacity: 0.1"/>
    </g>
   </g>
   <g id="matplotlib.axis_13">
    <g id="xtick_17">
     <g id="line2d_73">
      <g>
       <use xlink:href="#md34e364e8b" x="1283.639385" y="210.24" style="stroke: #000000; stroke-width: 0.8"/>
      </g>
     </g>
     <g id="text_75">
      <text style="font: 10px 'Arial', sans-serif" transform="translate(1252.673632 251.86503) rotate(-45)">Sampling</text>
     </g>
    </g>
    <g id="xtick_18">
     <g id="line2d_74">
      <g>
       <use xlink:href="#md34e364e8b" x="1414.130654" y="210.24" style="stroke: #000000; stroke-width: 0.8"/>
      </g>
     </g>
     <g id="text_76">
      <text style="font: 10px 'Arial', sans-serif" transform="translate(1333.34039 301.686227) rotate(-45)">Movement to Lateral Port</text>
     </g>
    </g>
    <g id="text_77">
     <text style="font: 10px 'Arial', sans-serif; text-anchor: middle" x="1351.301524" y="314.249415" transform="rotate(-0 1351.301524 314.249415)">Normalized Time</text>
    </g>
   </g>
   <g id="matplotlib.axis_14">
    <g id="ytick_36">
     <g id="line2d_75">
      <g>
       <use xlink:href="#mdf6416cc8d" x="1266.240549" y="197.859482" style="stroke: #000000; stroke-width: 0.8"/>
      </g>
     </g>
     <g id="text_78">
      <text style="font: 10px 'Arial', sans-serif; text-anchor: end" x="1259.240549" y="201.438389" transform="rotate(-0 1259.240549 201.438389)">−0.5</text>
     </g>
    </g>
    <g id="ytick_37">
     <g id="line2d_76">
      <g>
       <use xlink:href="#mdf6416cc8d" x="1266.240549" y="170.965364" style="stroke: #000000; stroke-width: 0.8"/>
      </g>
     </g>
     <g id="text_79">
      <text style="font: 10px 'Arial', sans-serif; text-anchor: end" x="1259.240549" y="174.544271" transform="rotate(-0 1259.240549 174.544271)">0.0</text>
     </g>
    </g>
    <g id="ytick_38">
     <g id="line2d_77">
      <g>
       <use xlink:href="#mdf6416cc8d" x="1266.240549" y="144.071246" style="stroke: #000000; stroke-width: 0.8"/>
      </g>
     </g>
     <g id="text_80">
      <text style="font: 10px 'Arial', sans-serif; text-anchor: end" x="1259.240549" y="147.650153" transform="rotate(-0 1259.240549 147.650153)">0.5</text>
     </g>
    </g>
    <g id="ytick_39">
     <g id="line2d_78">
      <g>
       <use xlink:href="#mdf6416cc8d" x="1266.240549" y="117.177128" style="stroke: #000000; stroke-width: 0.8"/>
      </g>
     </g>
     <g id="text_81">
      <text style="font: 10px 'Arial', sans-serif; text-anchor: end" x="1259.240549" y="120.756035" transform="rotate(-0 1259.240549 120.756035)">1.0</text>
     </g>
    </g>
    <g id="ytick_40">
     <g id="line2d_79">
      <g>
       <use xlink:href="#mdf6416cc8d" x="1266.240549" y="90.283011" style="stroke: #000000; stroke-width: 0.8"/>
      </g>
     </g>
     <g id="text_82">
      <text style="font: 10px 'Arial', sans-serif; text-anchor: end" x="1259.240549" y="93.861917" transform="rotate(-0 1259.240549 93.861917)">1.5</text>
     </g>
    </g>
    <g id="ytick_41">
     <g id="line2d_80">
      <g>
       <use xlink:href="#mdf6416cc8d" x="1266.240549" y="63.388893" style="stroke: #000000; stroke-width: 0.8"/>
      </g>
     </g>
     <g id="text_83">
      <text style="font: 10px 'Arial', sans-serif; text-anchor: end" x="1259.240549" y="66.967799" transform="rotate(-0 1259.240549 66.967799)">2.0</text>
     </g>
    </g>
    <g id="text_84">
     <text style="font: 10px 'Arial', sans-serif; text-anchor: middle" x="1233.395236" y="127.08" transform="rotate(-90 1233.395236 127.08)">Mean Activity</text>
    </g>
   </g>
   <g id="line2d_81">
    <path d="M 1273.973365 199.222529 
L 1278.806375 198.267039 
L 1283.639385 197.882021 
L 1288.472395 199.084483 
L 1293.305405 199.555965 
L 1298.138415 199.788723 
L 1302.971425 199.489328 
L 1307.804435 198.742923 
L 1312.637445 198.135534 
L 1317.470455 197.894742 
L 1322.303465 197.624839 
L 1327.136475 195.098098 
L 1331.969484 191.07045 
L 1336.802494 188.127781 
L 1341.635504 185.488976 
L 1346.468514 183.114495 
L 1351.301524 179.718712 
L 1356.134534 174.432349 
L 1360.967544 169.394906 
L 1365.800554 166.837373 
L 1370.633564 167.132641 
L 1375.466574 165.4513 
L 1380.299584 160.833159 
L 1385.132594 154.460475 
L 1389.965604 146.644581 
L 1394.798614 137.803858 
L 1399.631624 127.312065 
L 1404.464634 114.574333 
L 1409.297644 101.175063 
L 1414.130654 90.790057 
L 1418.963664 74.928044 
L 1423.796674 66.499593 
L 1428.629684 66.468803 
" clip-path="url(#pd2559b5646)" style="fill: none; stroke: #808080; stroke-width: 1.5; stroke-linecap: square"/>
   </g>
   <g id="line2d_82">
    <path d="M 1283.639385 210.24 
L 1283.639385 43.92 
" clip-path="url(#pd2559b5646)" style="fill: none; stroke-dasharray: 5.55,2.4; stroke-dashoffset: 0; stroke: #808080; stroke-opacity: 0.7; stroke-width: 1.5"/>
   </g>
   <g id="line2d_83">
    <path d="M 1414.130654 210.24 
L 1414.130654 43.92 
" clip-path="url(#pd2559b5646)" style="fill: none; stroke-dasharray: 5.55,2.4; stroke-dashoffset: 0; stroke: #808080; stroke-opacity: 0.7; stroke-width: 1.5"/>
   </g>
   <g id="text_85">
    <text style="font: 12px 'Arial', sans-serif; text-anchor: middle" x="1351.301524" y="37.92" transform="rotate(-0 1351.301524 37.92)">3 Correct Trials</text>
   </g>
   <g id="legend_7">
    <g id="patch_22">
     <path d="M 1300.795083 56.742136 
L 1401.807966 56.742136 
Q 1402.965966 56.742136 1402.965966 55.584136 
L 1402.965966 47.973 
Q 1402.965966 46.815 1401.807966 46.815 
L 1300.795083 46.815 
Q 1299.637083 46.815 1299.637083 47.973 
L 1299.637083 55.584136 
Q 1299.637083 56.742136 1300.795083 56.742136 
z
" style="fill: #ffffff; opacity: 0.8; stroke: #cccccc; stroke-linejoin: miter"/>
    </g>
    <g id="line2d_84">
     <path d="M 1301.953083 51.248873 
L 1307.743083 51.248873 
L 1313.533083 51.248873 
" style="fill: none; stroke: #808080; stroke-width: 1.5; stroke-linecap: square"/>
    </g>
    <g id="text_86">
     <text style="font: 5.79px 'Arial', sans-serif; text-anchor: start" x="1318.165083" y="53.275373" transform="rotate(-0 1318.165083 53.275373)">All - PrevCount=3 - #Trials=68.0</text>
    </g>
   </g>
  </g>
  <g id="text_87">
   <text style="font: 12px 'Arial', sans-serif; text-anchor: middle" x="716.3625" y="15.935625" transform="rotate(-0 716.3625 15.935625)">Balance Change - ALM - GP4_23_s6_L50_D250_ALM_28 - All</text>
  </g>
 </g>
 <defs>
  <clipPath id="pa21bd96c06">
   <rect x="41.3625" y="43.92" width="170.121951" height="166.32"/>
  </clipPath>
  <clipPath id="pd75126cd65">
   <rect x="245.508841" y="43.92" width="170.121951" height="166.32"/>
  </clipPath>
  <clipPath id="pfeb59488d8">
   <rect x="449.655183" y="43.92" width="170.121951" height="166.32"/>
  </clipPath>
  <clipPath id="pa49c4302b1">
   <rect x="653.801524" y="43.92" width="170.121951" height="166.32"/>
  </clipPath>
  <clipPath id="p3056f4f0e3">
   <rect x="857.947866" y="43.92" width="170.121951" height="166.32"/>
  </clipPath>
  <clipPath id="pcb33340dfd">
   <rect x="1062.094207" y="43.92" width="170.121951" height="166.32"/>
  </clipPath>
  <clipPath id="pd2559b5646">
   <rect x="1266.240549" y="43.92" width="170.121951" height="166.32"/>
  </clipPath>
 </defs>
</svg>
