<?xml version="1.0" encoding="utf-8" standalone="no"?>
<!DOCTYPE svg PUBLIC "-//W3C//DTD SVG 1.1//EN"
  "http://www.w3.org/Graphics/SVG/1.1/DTD/svg11.dtd">
<svg xmlns:xlink="http://www.w3.org/1999/xlink" width="1443.5625pt" height="323.436915pt" viewBox="0 0 1443.5625 323.436915" xmlns="http://www.w3.org/2000/svg" version="1.1">
 <metadata>
  <rdf:RDF xmlns:dc="http://purl.org/dc/elements/1.1/" xmlns:cc="http://creativecommons.org/ns#" xmlns:rdf="http://www.w3.org/1999/02/22-rdf-syntax-ns#">
   <cc:Work>
    <dc:type rdf:resource="http://purl.org/dc/dcmitype/StillImage"/>
    <dc:date>2025-12-27T14:01:42.191209</dc:date>
    <dc:format>image/svg+xml</dc:format>
    <dc:creator>
     <cc:Agent>
      <dc:title>Matplotlib v3.8.0, https://matplotlib.org/</dc:title>
     </cc:Agent>
    </dc:creator>
   </cc:Work>
  </rdf:RDF>
 </metadata>
 <defs>
  <style type="text/css">*{stroke-linejoin: round; stroke-linecap: butt}</style>
 </defs>
 <g id="figure_1">
  <g id="patch_1">
   <path d="M 0 323.436915 
L 1443.5625 323.436915 
L 1443.5625 0 
L 0 0 
z
" style="fill: #ffffff"/>
  </g>
  <g id="axes_1">
   <g id="patch_2">
    <path d="M 41.3625 210.24 
L 211.484451 210.24 
L 211.484451 43.92 
L 41.3625 43.92 
z
" style="fill: #ffffff"/>
   </g>
   <g id="patch_3">
    <path d="M 0 0 
z
" clip-path="url(#p904e7c7304)" style="fill: #ff00ff"/>
   </g>
   <g id="patch_4">
    <path d="M 0 0 
z
" clip-path="url(#p904e7c7304)" style="fill: #ff00ff"/>
   </g>
   <g id="patch_5">
    <path d="M 0 0 
z
" clip-path="url(#p904e7c7304)" style="fill: #ff00ff"/>
   </g>
   <g id="patch_6">
    <path d="M 141.889108 210.24 
L 152.199529 210.24 
L 152.199529 153.751614 
L 141.889108 153.751614 
z
" clip-path="url(#p904e7c7304)" style="fill: #ff00ff"/>
   </g>
   <g id="patch_7">
    <path d="M 167.665161 210.24 
L 177.975582 210.24 
L 177.975582 82.674939 
L 167.665161 82.674939 
z
" clip-path="url(#p904e7c7304)" style="fill: #ff00ff"/>
   </g>
   <g id="patch_8">
    <path d="M 193.441214 210.24 
L 203.751635 210.24 
L 203.751635 76.806464 
L 193.441214 76.806464 
z
" clip-path="url(#p904e7c7304)" style="fill: #ff00ff"/>
   </g>
   <g id="patch_9">
    <path d="M 49.095316 210.24 
L 59.405737 210.24 
L 59.405737 203.470424 
L 49.095316 203.470424 
z
" clip-path="url(#p904e7c7304)" style="fill: #00ffff"/>
   </g>
   <g id="patch_10">
    <path d="M 74.871369 210.24 
L 85.18179 210.24 
L 85.18179 169.316945 
L 74.871369 169.316945 
z
" clip-path="url(#p904e7c7304)" style="fill: #00ffff"/>
   </g>
   <g id="patch_11">
    <path d="M 100.647422 210.24 
L 110.957844 210.24 
L 110.957844 150.662893 
L 100.647422 150.662893 
z
" clip-path="url(#p904e7c7304)" style="fill: #00ffff"/>
   </g>
   <g id="patch_12">
    <path d="M 0 0 
z
" clip-path="url(#p904e7c7304)" style="fill: #00ffff"/>
   </g>
   <g id="patch_13">
    <path d="M 0 0 
z
" clip-path="url(#p904e7c7304)" style="fill: #00ffff"/>
   </g>
   <g id="patch_14">
    <path d="M 0 0 
z
" clip-path="url(#p904e7c7304)" style="fill: #00ffff"/>
   </g>
   <g id="matplotlib.axis_1">
    <g id="xtick_1">
     <g id="line2d_1">
      <defs>
       <path id="m3d578d0cfa" d="M 0 0 
L 0 3.5 
" style="stroke: #000000; stroke-width: 0.8"/>
      </defs>
      <g>
       <use xlink:href="#m3d578d0cfa" x="49.095316" y="210.24" style="stroke: #000000; stroke-width: 0.8"/>
      </g>
     </g>
     <g id="text_1">
      <text style="font: 10px 'Arial', sans-serif; text-anchor: middle" x="49.095316" y="224.397813" transform="rotate(-0 49.095316 224.397813)">−3</text>
     </g>
    </g>
    <g id="xtick_2">
     <g id="line2d_2">
      <g>
       <use xlink:href="#m3d578d0cfa" x="74.871369" y="210.24" style="stroke: #000000; stroke-width: 0.8"/>
      </g>
     </g>
     <g id="text_2">
      <text style="font: 10px 'Arial', sans-serif; text-anchor: middle" x="74.871369" y="224.397813" transform="rotate(-0 74.871369 224.397813)">−2</text>
     </g>
    </g>
    <g id="xtick_3">
     <g id="line2d_3">
      <g>
       <use xlink:href="#m3d578d0cfa" x="100.647422" y="210.24" style="stroke: #000000; stroke-width: 0.8"/>
      </g>
     </g>
     <g id="text_3">
      <text style="font: 10px 'Arial', sans-serif; text-anchor: middle" x="100.647422" y="224.397813" transform="rotate(-0 100.647422 224.397813)">−1</text>
     </g>
    </g>
    <g id="xtick_4">
     <g id="line2d_4">
      <g>
       <use xlink:href="#m3d578d0cfa" x="152.199529" y="210.24" style="stroke: #000000; stroke-width: 0.8"/>
      </g>
     </g>
     <g id="text_4">
      <text style="font: 10px 'Arial', sans-serif; text-anchor: middle" x="152.199529" y="224.397813" transform="rotate(-0 152.199529 224.397813)">1</text>
     </g>
    </g>
    <g id="xtick_5">
     <g id="line2d_5">
      <g>
       <use xlink:href="#m3d578d0cfa" x="177.975582" y="210.24" style="stroke: #000000; stroke-width: 0.8"/>
      </g>
     </g>
     <g id="text_5">
      <text style="font: 10px 'Arial', sans-serif; text-anchor: middle" x="177.975582" y="224.397813" transform="rotate(-0 177.975582 224.397813)">2</text>
     </g>
    </g>
    <g id="xtick_6">
     <g id="line2d_6">
      <g>
       <use xlink:href="#m3d578d0cfa" x="203.751635" y="210.24" style="stroke: #000000; stroke-width: 0.8"/>
      </g>
     </g>
     <g id="text_6">
      <text style="font: 10px 'Arial', sans-serif; text-anchor: middle" x="203.751635" y="224.397813" transform="rotate(-0 203.751635 224.397813)">3</text>
     </g>
    </g>
    <g id="text_7">
     <text style="font: 10px 'Arial', sans-serif; text-anchor: middle" x="126.423476" y="237.543125" transform="rotate(-0 126.423476 237.543125)">PrevOutcomeCount</text>
    </g>
   </g>
   <g id="matplotlib.axis_2">
    <g id="ytick_1">
     <g id="line2d_7">
      <defs>
       <path id="md91b31943f" d="M 0 0 
L -3.5 0 
" style="stroke: #000000; stroke-width: 0.8"/>
      </defs>
      <g>
       <use xlink:href="#md91b31943f" x="41.3625" y="210.24" style="stroke: #000000; stroke-width: 0.8"/>
      </g>
     </g>
     <g id="text_8">
      <text style="font: 10px 'Arial', sans-serif; text-anchor: end" x="34.3625" y="213.818906" transform="rotate(-0 34.3625 213.818906)">0.0</text>
     </g>
    </g>
    <g id="ytick_2">
     <g id="line2d_8">
      <g>
       <use xlink:href="#md91b31943f" x="41.3625" y="172.390271" style="stroke: #000000; stroke-width: 0.8"/>
      </g>
     </g>
     <g id="text_9">
      <text style="font: 10px 'Arial', sans-serif; text-anchor: end" x="34.3625" y="175.969177" transform="rotate(-0 34.3625 175.969177)">0.5</text>
     </g>
    </g>
    <g id="ytick_3">
     <g id="line2d_9">
      <g>
       <use xlink:href="#md91b31943f" x="41.3625" y="134.540542" style="stroke: #000000; stroke-width: 0.8"/>
      </g>
     </g>
     <g id="text_10">
      <text style="font: 10px 'Arial', sans-serif; text-anchor: end" x="34.3625" y="138.119448" transform="rotate(-0 34.3625 138.119448)">1.0</text>
     </g>
    </g>
    <g id="ytick_4">
     <g id="line2d_10">
      <g>
       <use xlink:href="#md91b31943f" x="41.3625" y="96.690813" style="stroke: #000000; stroke-width: 0.8"/>
      </g>
     </g>
     <g id="text_11">
      <text style="font: 10px 'Arial', sans-serif; text-anchor: end" x="34.3625" y="100.269719" transform="rotate(-0 34.3625 100.269719)">1.5</text>
     </g>
    </g>
    <g id="ytick_5">
     <g id="line2d_11">
      <g>
       <use xlink:href="#md91b31943f" x="41.3625" y="58.841084" style="stroke: #000000; stroke-width: 0.8"/>
      </g>
     </g>
     <g id="text_12">
      <text style="font: 10px 'Arial', sans-serif; text-anchor: end" x="34.3625" y="62.41999" transform="rotate(-0 34.3625 62.41999)">2.0</text>
     </g>
    </g>
    <g id="text_13">
     <text style="font: 10px 'Arial', sans-serif; text-anchor: middle" x="14.357813" y="127.08" transform="rotate(-90 14.357813 127.08)">Max Activity</text>
    </g>
   </g>
   <g id="LineCollection_1">
    <path clip-path="url(#p904e7c7304)" style="fill: none; stroke: #000000; stroke-width: 1.5"/>
    <path clip-path="url(#p904e7c7304)" style="fill: none; stroke: #000000; stroke-width: 1.5"/>
    <path clip-path="url(#p904e7c7304)" style="fill: none; stroke: #000000; stroke-width: 1.5"/>
    <path d="M 147.044318 168.863298 
L 147.044318 138.63993 
" clip-path="url(#p904e7c7304)" style="fill: none; stroke: #000000; stroke-width: 1.5"/>
    <path d="M 172.820371 113.509878 
L 172.820371 51.84 
" clip-path="url(#p904e7c7304)" style="fill: none; stroke: #000000; stroke-width: 1.5"/>
    <path d="M 198.596425 100.093052 
L 198.596425 53.519876 
" clip-path="url(#p904e7c7304)" style="fill: none; stroke: #000000; stroke-width: 1.5"/>
   </g>
   <g id="LineCollection_2">
    <path d="M 54.250527 207.211105 
L 54.250527 199.729743 
" clip-path="url(#p904e7c7304)" style="fill: none; stroke: #000000; stroke-width: 1.5"/>
    <path d="M 80.02658 181.864322 
L 80.02658 156.769568 
" clip-path="url(#p904e7c7304)" style="fill: none; stroke: #000000; stroke-width: 1.5"/>
    <path d="M 105.802633 172.309325 
L 105.802633 129.016461 
" clip-path="url(#p904e7c7304)" style="fill: none; stroke: #000000; stroke-width: 1.5"/>
    <path clip-path="url(#p904e7c7304)" style="fill: none; stroke: #000000; stroke-width: 1.5"/>
    <path clip-path="url(#p904e7c7304)" style="fill: none; stroke: #000000; stroke-width: 1.5"/>
    <path clip-path="url(#p904e7c7304)" style="fill: none; stroke: #000000; stroke-width: 1.5"/>
   </g>
   <g id="line2d_12">
    <path d="M 41.3625 210.24 
L 211.484451 210.24 
" clip-path="url(#p904e7c7304)" style="fill: none; stroke-dasharray: 5.55,2.4; stroke-dashoffset: 0; stroke: #808080; stroke-width: 1.5"/>
   </g>
   <g id="legend_1">
    <g id="patch_15">
     <path d="M 90.417226 80.210625 
L 162.429726 80.210625 
Q 164.429726 80.210625 164.429726 78.210625 
L 164.429726 50.92 
Q 164.429726 48.92 162.429726 48.92 
L 90.417226 48.92 
Q 88.417226 48.92 88.417226 50.92 
L 88.417226 78.210625 
Q 88.417226 80.210625 90.417226 80.210625 
z
" style="fill: #ffffff; opacity: 0.8; stroke: #cccccc; stroke-linejoin: miter"/>
    </g>
    <g id="patch_16">
     <path d="M 92.417226 60.077812 
L 112.417226 60.077812 
L 112.417226 53.077812 
L 92.417226 53.077812 
z
" style="fill: #ff00ff"/>
    </g>
    <g id="text_14">
     <text style="font: 10px 'Arial', sans-serif; text-anchor: start" x="120.417226" y="60.077812" transform="rotate(-0 120.417226 60.077812)">Pref</text>
    </g>
    <g id="patch_17">
     <path d="M 92.417226 74.223125 
L 112.417226 74.223125 
L 112.417226 67.223125 
L 92.417226 67.223125 
z
" style="fill: #00ffff"/>
    </g>
    <g id="text_15">
     <text style="font: 10px 'Arial', sans-serif; text-anchor: start" x="120.417226" y="74.223125" transform="rotate(-0 120.417226 74.223125)">Non-Pref</text>
    </g>
   </g>
  </g>
  <g id="axes_2">
   <g id="patch_18">
    <path d="M 245.508841 210.24 
L 415.630793 210.24 
L 415.630793 43.92 
L 245.508841 43.92 
z
" style="fill: #ffffff"/>
   </g>
   <g id="PolyCollection_1">
    <defs>
     <path id="mb1fdd02359" d="M 253.241657 -140.081251 
L 253.241657 -132.694813 
L 258.074667 -130.431477 
L 262.907677 -128.53302 
L 267.740687 -121.137007 
L 272.573697 -117.169416 
L 277.406707 -121.790733 
L 282.239717 -129.060683 
L 287.072727 -129.268816 
L 291.905737 -129.114988 
L 296.738747 -131.708577 
L 301.571757 -132.152858 
L 306.404767 -126.834457 
L 311.237777 -122.388856 
L 316.070787 -131.087325 
L 320.903797 -134.414492 
L 325.736807 -128.960539 
L 330.569817 -125.036148 
L 335.402827 -127.425786 
L 340.235837 -134.441244 
L 345.068847 -138.412801 
L 349.901857 -137.189419 
L 354.734867 -133.191829 
L 359.567877 -131.498088 
L 364.400887 -136.912197 
L 369.233897 -140.009205 
L 374.066907 -139.587075 
L 378.899917 -137.229692 
L 383.732927 -134.653321 
L 388.565937 -136.462551 
L 393.398947 -136.944704 
L 398.231957 -138.232717 
L 403.064967 -140.65522 
L 407.897977 -143.198006 
L 407.897977 -154.667168 
L 407.897977 -154.667168 
L 403.064967 -157.398333 
L 398.231957 -152.918291 
L 393.398947 -144.758978 
L 388.565937 -141.324091 
L 383.732927 -145.398585 
L 378.899917 -145.613668 
L 374.066907 -145.593029 
L 369.233897 -144.234443 
L 364.400887 -140.355219 
L 359.567877 -137.947716 
L 354.734867 -138.211448 
L 349.901857 -140.517247 
L 345.068847 -144.550282 
L 340.235837 -143.392552 
L 335.402827 -145.014987 
L 330.569817 -145.419575 
L 325.736807 -146.626217 
L 320.903797 -150.34414 
L 316.070787 -146.535631 
L 311.237777 -135.507528 
L 306.404767 -137.071914 
L 301.571757 -140.639251 
L 296.738747 -137.93114 
L 291.905737 -136.123641 
L 287.072727 -136.612081 
L 282.239717 -137.83147 
L 277.406707 -141.758271 
L 272.573697 -137.357281 
L 267.740687 -130.029487 
L 262.907677 -135.471402 
L 258.074667 -137.803772 
L 253.241657 -140.081251 
z
" style="stroke: #00ffff; stroke-opacity: 0.1"/>
    </defs>
    <g clip-path="url(#p7e840e0498)">
     <use xlink:href="#mb1fdd02359" x="0" y="323.436915" style="fill: #00ffff; fill-opacity: 0.1; stroke: #00ffff; stroke-opacity: 0.1"/>
    </g>
   </g>
   <g id="matplotlib.axis_3">
    <g id="xtick_7">
     <g id="line2d_13">
      <g>
       <use xlink:href="#m3d578d0cfa" x="262.907677" y="210.24" style="stroke: #000000; stroke-width: 0.8"/>
      </g>
     </g>
     <g id="text_16">
      <text style="font: 10px 'Arial', sans-serif" transform="translate(231.941925 251.86503) rotate(-45)">Sampling</text>
     </g>
    </g>
    <g id="xtick_8">
     <g id="line2d_14">
      <g>
       <use xlink:href="#m3d578d0cfa" x="393.398947" y="210.24" style="stroke: #000000; stroke-width: 0.8"/>
      </g>
     </g>
     <g id="text_17">
      <text style="font: 10px 'Arial', sans-serif" transform="translate(312.608682 301.686227) rotate(-45)">Movement to Lateral Port</text>
     </g>
    </g>
    <g id="text_18">
     <text style="font: 10px 'Arial', sans-serif; text-anchor: middle" x="330.569817" y="314.249415" transform="rotate(-0 330.569817 314.249415)">Normalized Time</text>
    </g>
   </g>
   <g id="matplotlib.axis_4">
    <g id="ytick_6">
     <g id="line2d_15">
      <g>
       <use xlink:href="#md91b31943f" x="245.508841" y="197.871433" style="stroke: #000000; stroke-width: 0.8"/>
      </g>
     </g>
     <g id="text_19">
      <text style="font: 10px 'Arial', sans-serif; text-anchor: end" x="238.508841" y="201.450339" transform="rotate(-0 238.508841 201.450339)">−0.5</text>
     </g>
    </g>
    <g id="ytick_7">
     <g id="line2d_16">
      <g>
       <use xlink:href="#md91b31943f" x="245.508841" y="166.542482" style="stroke: #000000; stroke-width: 0.8"/>
      </g>
     </g>
     <g id="text_20">
      <text style="font: 10px 'Arial', sans-serif; text-anchor: end" x="238.508841" y="170.121388" transform="rotate(-0 238.508841 170.121388)">0.0</text>
     </g>
    </g>
    <g id="ytick_8">
     <g id="line2d_17">
      <g>
       <use xlink:href="#md91b31943f" x="245.508841" y="135.213531" style="stroke: #000000; stroke-width: 0.8"/>
      </g>
     </g>
     <g id="text_21">
      <text style="font: 10px 'Arial', sans-serif; text-anchor: end" x="238.508841" y="138.792437" transform="rotate(-0 238.508841 138.792437)">0.5</text>
     </g>
    </g>
    <g id="ytick_9">
     <g id="line2d_18">
      <g>
       <use xlink:href="#md91b31943f" x="245.508841" y="103.88458" style="stroke: #000000; stroke-width: 0.8"/>
      </g>
     </g>
     <g id="text_22">
      <text style="font: 10px 'Arial', sans-serif; text-anchor: end" x="238.508841" y="107.463486" transform="rotate(-0 238.508841 107.463486)">1.0</text>
     </g>
    </g>
    <g id="ytick_10">
     <g id="line2d_19">
      <g>
       <use xlink:href="#md91b31943f" x="245.508841" y="72.555629" style="stroke: #000000; stroke-width: 0.8"/>
      </g>
     </g>
     <g id="text_23">
      <text style="font: 10px 'Arial', sans-serif; text-anchor: end" x="238.508841" y="76.134535" transform="rotate(-0 238.508841 76.134535)">1.5</text>
     </g>
    </g>
    <g id="text_24">
     <text style="font: 10px 'Arial', sans-serif; text-anchor: middle" x="212.663529" y="127.08" transform="rotate(-90 212.663529 127.08)">Mean Activity</text>
    </g>
   </g>
   <g id="line2d_20">
    <path d="M 253.241657 187.048883 
L 258.074667 189.31929 
L 262.907677 191.434704 
L 267.740687 197.853667 
L 272.573697 196.173566 
L 277.406707 191.662412 
L 282.239717 189.990838 
L 287.072727 190.496466 
L 291.905737 190.8176 
L 296.738747 188.617056 
L 301.571757 187.04086 
L 306.404767 191.483729 
L 311.237777 194.488723 
L 316.070787 184.625436 
L 320.903797 181.057598 
L 325.736807 185.643537 
L 330.569817 188.209053 
L 335.402827 187.216528 
L 340.235837 184.520017 
L 345.068847 181.955373 
L 349.901857 184.583581 
L 354.734867 187.735276 
L 359.567877 188.714012 
L 364.400887 184.803206 
L 369.233897 181.315091 
L 374.066907 180.846863 
L 378.899917 182.015235 
L 383.732927 183.410962 
L 388.565937 184.543594 
L 393.398947 182.585073 
L 398.231957 177.86141 
L 403.064967 174.410137 
L 407.897977 174.504328 
" clip-path="url(#p7e840e0498)" style="fill: none; stroke: #00ffff; stroke-width: 1.5; stroke-linecap: square"/>
   </g>
   <g id="line2d_21">
    <path d="M 262.907677 210.24 
L 262.907677 43.92 
" clip-path="url(#p7e840e0498)" style="fill: none; stroke-dasharray: 5.55,2.4; stroke-dashoffset: 0; stroke: #808080; stroke-opacity: 0.7; stroke-width: 1.5"/>
   </g>
   <g id="line2d_22">
    <path d="M 393.398947 210.24 
L 393.398947 43.92 
" clip-path="url(#p7e840e0498)" style="fill: none; stroke-dasharray: 5.55,2.4; stroke-dashoffset: 0; stroke: #808080; stroke-opacity: 0.7; stroke-width: 1.5"/>
   </g>
   <g id="text_25">
    <text style="font: 12px 'Arial', sans-serif; text-anchor: middle" x="330.569817" y="37.92" transform="rotate(-0 330.569817 37.92)">3 Incorrect Trials</text>
   </g>
   <g id="legend_2">
    <g id="patch_19">
     <path d="M 273.307169 207.345 
L 387.832465 207.345 
Q 388.990465 207.345 388.990465 206.187 
L 388.990465 198.575864 
Q 388.990465 197.417864 387.832465 197.417864 
L 273.307169 197.417864 
Q 272.149169 197.417864 272.149169 198.575864 
L 272.149169 206.187 
Q 272.149169 207.345 273.307169 207.345 
z
" style="fill: #ffffff; opacity: 0.8; stroke: #cccccc; stroke-linejoin: miter"/>
    </g>
    <g id="line2d_23">
     <path d="M 274.465169 201.851738 
L 280.255169 201.851738 
L 286.045169 201.851738 
" style="fill: none; stroke: #00ffff; stroke-width: 1.5; stroke-linecap: square"/>
    </g>
    <g id="text_26">
     <text style="font: 5.79px 'Arial', sans-serif; text-anchor: start" x="290.677169" y="203.878238" transform="rotate(-0 290.677169 203.878238)">NonPref - PrevCount=-3 - #Trials=5.0</text>
    </g>
   </g>
  </g>
  <g id="axes_3">
   <g id="patch_20">
    <path d="M 449.655183 210.24 
L 619.777134 210.24 
L 619.777134 43.92 
L 449.655183 43.92 
z
" style="fill: #ffffff"/>
   </g>
   <g id="PolyCollection_2">
    <defs>
     <path id="ma67daa3067" d="M 457.387999 -177.155438 
L 457.387999 -154.790488 
L 462.221009 -157.447755 
L 467.054019 -160.329691 
L 471.887029 -160.127118 
L 476.720039 -158.282069 
L 481.553049 -156.082305 
L 486.386059 -153.528547 
L 491.219069 -154.035078 
L 496.052079 -154.41784 
L 500.885089 -150.9968 
L 505.718099 -148.685353 
L 510.551109 -149.838928 
L 515.384119 -151.23846 
L 520.217129 -151.699557 
L 525.050139 -151.151047 
L 529.883149 -146.346301 
L 534.716159 -141.835788 
L 539.549169 -140.463918 
L 544.382178 -140.640661 
L 549.215188 -136.968943 
L 554.048198 -140.348669 
L 558.881208 -142.011255 
L 563.714218 -144.216211 
L 568.547228 -146.480553 
L 573.380238 -146.999458 
L 578.213248 -146.637434 
L 583.046258 -146.344619 
L 587.879268 -145.142904 
L 592.712278 -138.611761 
L 597.545288 -142.035316 
L 602.378298 -144.776948 
L 607.211308 -147.20018 
L 612.044318 -149.542464 
L 612.044318 -158.157943 
L 612.044318 -158.157943 
L 607.211308 -152.488657 
L 602.378298 -149.576165 
L 597.545288 -149.692301 
L 592.712278 -149.359762 
L 587.879268 -155.678144 
L 583.046258 -157.169077 
L 578.213248 -158.688301 
L 573.380238 -160.368384 
L 568.547228 -160.14804 
L 563.714218 -158.508246 
L 558.881208 -156.476418 
L 554.048198 -153.968206 
L 549.215188 -151.21361 
L 544.382178 -154.538855 
L 539.549169 -155.48359 
L 534.716159 -158.204533 
L 529.883149 -163.573017 
L 525.050139 -169.771889 
L 520.217129 -170.060692 
L 515.384119 -169.757596 
L 510.551109 -169.197636 
L 505.718099 -168.379724 
L 500.885089 -170.832069 
L 496.052079 -173.659762 
L 491.219069 -173.791896 
L 486.386059 -175.300308 
L 481.553049 -176.97446 
L 476.720039 -178.106222 
L 471.887029 -180.727006 
L 467.054019 -182.336407 
L 462.221009 -180.256028 
L 457.387999 -177.155438 
z
" style="stroke: #00ffff; stroke-opacity: 0.1"/>
    </defs>
    <g clip-path="url(#p37c468e1f2)">
     <use xlink:href="#ma67daa3067" x="0" y="323.436915" style="fill: #00ffff; fill-opacity: 0.1; stroke: #00ffff; stroke-opacity: 0.1"/>
    </g>
   </g>
   <g id="matplotlib.axis_5">
    <g id="xtick_9">
     <g id="line2d_24">
      <g>
       <use xlink:href="#m3d578d0cfa" x="467.054019" y="210.24" style="stroke: #000000; stroke-width: 0.8"/>
      </g>
     </g>
     <g id="text_27">
      <text style="font: 10px 'Arial', sans-serif" transform="translate(436.088266 251.86503) rotate(-45)">Sampling</text>
     </g>
    </g>
    <g id="xtick_10">
     <g id="line2d_25">
      <g>
       <use xlink:href="#m3d578d0cfa" x="597.545288" y="210.24" style="stroke: #000000; stroke-width: 0.8"/>
      </g>
     </g>
     <g id="text_28">
      <text style="font: 10px 'Arial', sans-serif" transform="translate(516.755024 301.686227) rotate(-45)">Movement to Lateral Port</text>
     </g>
    </g>
    <g id="text_29">
     <text style="font: 10px 'Arial', sans-serif; text-anchor: middle" x="534.716159" y="314.249415" transform="rotate(-0 534.716159 314.249415)">Normalized Time</text>
    </g>
   </g>
   <g id="matplotlib.axis_6">
    <g id="ytick_11">
     <g id="line2d_26">
      <g>
       <use xlink:href="#md91b31943f" x="449.655183" y="197.871433" style="stroke: #000000; stroke-width: 0.8"/>
      </g>
     </g>
     <g id="text_30">
      <text style="font: 10px 'Arial', sans-serif; text-anchor: end" x="442.655183" y="201.450339" transform="rotate(-0 442.655183 201.450339)">−0.5</text>
     </g>
    </g>
    <g id="ytick_12">
     <g id="line2d_27">
      <g>
       <use xlink:href="#md91b31943f" x="449.655183" y="166.542482" style="stroke: #000000; stroke-width: 0.8"/>
      </g>
     </g>
     <g id="text_31">
      <text style="font: 10px 'Arial', sans-serif; text-anchor: end" x="442.655183" y="170.121388" transform="rotate(-0 442.655183 170.121388)">0.0</text>
     </g>
    </g>
    <g id="ytick_13">
     <g id="line2d_28">
      <g>
       <use xlink:href="#md91b31943f" x="449.655183" y="135.213531" style="stroke: #000000; stroke-width: 0.8"/>
      </g>
     </g>
     <g id="text_32">
      <text style="font: 10px 'Arial', sans-serif; text-anchor: end" x="442.655183" y="138.792437" transform="rotate(-0 442.655183 138.792437)">0.5</text>
     </g>
    </g>
    <g id="ytick_14">
     <g id="line2d_29">
      <g>
       <use xlink:href="#md91b31943f" x="449.655183" y="103.88458" style="stroke: #000000; stroke-width: 0.8"/>
      </g>
     </g>
     <g id="text_33">
      <text style="font: 10px 'Arial', sans-serif; text-anchor: end" x="442.655183" y="107.463486" transform="rotate(-0 442.655183 107.463486)">1.0</text>
     </g>
    </g>
    <g id="ytick_15">
     <g id="line2d_30">
      <g>
       <use xlink:href="#md91b31943f" x="449.655183" y="72.555629" style="stroke: #000000; stroke-width: 0.8"/>
      </g>
     </g>
     <g id="text_34">
      <text style="font: 10px 'Arial', sans-serif; text-anchor: end" x="442.655183" y="76.134535" transform="rotate(-0 442.655183 76.134535)">1.5</text>
     </g>
    </g>
    <g id="text_35">
     <text style="font: 10px 'Arial', sans-serif; text-anchor: middle" x="416.80987" y="127.08" transform="rotate(-90 416.80987 127.08)">Mean Activity</text>
    </g>
   </g>
   <g id="line2d_31">
    <path d="M 457.387999 157.463952 
L 462.221009 154.585023 
L 467.054019 152.103865 
L 471.887029 153.009853 
L 476.720039 155.242769 
L 481.553049 156.908532 
L 486.386059 159.022487 
L 491.219069 159.523428 
L 496.052079 159.398113 
L 500.885089 162.52248 
L 505.718099 164.904376 
L 510.551109 163.918632 
L 515.384119 162.938886 
L 520.217129 162.55679 
L 525.050139 162.975447 
L 529.883149 168.477255 
L 534.716159 173.416754 
L 539.549169 175.463161 
L 544.382178 175.847156 
L 549.215188 179.345639 
L 554.048198 176.278477 
L 558.881208 174.193078 
L 563.714218 172.074686 
L 568.547228 170.122618 
L 573.380238 169.752994 
L 578.213248 170.774047 
L 583.046258 171.680067 
L 587.879268 173.026391 
L 592.712278 179.451153 
L 597.545288 177.573106 
L 602.378298 176.260358 
L 607.211308 173.592496 
L 612.044318 169.586711 
" clip-path="url(#p37c468e1f2)" style="fill: none; stroke: #00ffff; stroke-width: 1.5; stroke-linecap: square"/>
   </g>
   <g id="line2d_32">
    <path d="M 467.054019 210.24 
L 467.054019 43.92 
" clip-path="url(#p37c468e1f2)" style="fill: none; stroke-dasharray: 5.55,2.4; stroke-dashoffset: 0; stroke: #808080; stroke-opacity: 0.7; stroke-width: 1.5"/>
   </g>
   <g id="line2d_33">
    <path d="M 597.545288 210.24 
L 597.545288 43.92 
" clip-path="url(#p37c468e1f2)" style="fill: none; stroke-dasharray: 5.55,2.4; stroke-dashoffset: 0; stroke: #808080; stroke-opacity: 0.7; stroke-width: 1.5"/>
   </g>
   <g id="text_36">
    <text style="font: 12px 'Arial', sans-serif; text-anchor: middle" x="534.716159" y="37.92" transform="rotate(-0 534.716159 37.92)">2 Incorrect Trials</text>
   </g>
   <g id="legend_3">
    <g id="patch_21">
     <path d="M 475.843619 207.345 
L 593.588698 207.345 
Q 594.746698 207.345 594.746698 206.187 
L 594.746698 198.575864 
Q 594.746698 197.417864 593.588698 197.417864 
L 475.843619 197.417864 
Q 474.685619 197.417864 474.685619 198.575864 
L 474.685619 206.187 
Q 474.685619 207.345 475.843619 207.345 
z
" style="fill: #ffffff; opacity: 0.8; stroke: #cccccc; stroke-linejoin: miter"/>
    </g>
    <g id="line2d_34">
     <path d="M 477.001619 201.851738 
L 482.791619 201.851738 
L 488.581619 201.851738 
" style="fill: none; stroke: #00ffff; stroke-width: 1.5; stroke-linecap: square"/>
    </g>
    <g id="text_37">
     <text style="font: 5.79px 'Arial', sans-serif; text-anchor: start" x="493.213619" y="203.878238" transform="rotate(-0 493.213619 203.878238)">NonPref - PrevCount=-2 - #Trials=15.0</text>
    </g>
   </g>
  </g>
  <g id="axes_4">
   <g id="patch_22">
    <path d="M 653.801524 210.24 
L 823.923476 210.24 
L 823.923476 43.92 
L 653.801524 43.92 
z
" style="fill: #ffffff"/>
   </g>
   <g id="PolyCollection_3">
    <defs>
     <path id="m20fd89542f" d="M 661.53434 -177.856243 
L 661.53434 -152.67188 
L 666.36735 -156.051297 
L 671.20036 -158.079754 
L 676.03337 -160.21679 
L 680.86638 -162.879631 
L 685.69939 -163.160809 
L 690.5324 -162.284396 
L 695.36541 -160.47094 
L 700.19842 -160.620314 
L 705.03143 -160.266226 
L 709.86444 -160.137201 
L 714.69745 -159.635409 
L 719.53046 -157.191159 
L 724.36347 -155.050329 
L 729.19648 -153.201613 
L 734.02949 -152.465271 
L 738.8625 -152.825679 
L 743.69551 -153.240192 
L 748.52852 -151.250227 
L 753.36153 -148.96285 
L 758.19454 -148.519 
L 763.02755 -148.369211 
L 767.86056 -147.814791 
L 772.69357 -147.673814 
L 777.52658 -147.266354 
L 782.35959 -147.214068 
L 787.1926 -147.986903 
L 792.02561 -150.660866 
L 796.85862 -151.630857 
L 801.69163 -151.565943 
L 806.52464 -152.141248 
L 811.35765 -153.227667 
L 816.19066 -152.592532 
L 816.19066 -164.554149 
L 816.19066 -164.554149 
L 811.35765 -164.170802 
L 806.52464 -164.369698 
L 801.69163 -166.295236 
L 796.85862 -167.193424 
L 792.02561 -167.320216 
L 787.1926 -165.525082 
L 782.35959 -165.296535 
L 777.52658 -166.177044 
L 772.69357 -168.322485 
L 767.86056 -170.265576 
L 763.02755 -170.692766 
L 758.19454 -171.610992 
L 753.36153 -174.417828 
L 748.52852 -178.582508 
L 743.69551 -180.645606 
L 738.8625 -179.203416 
L 734.02949 -179.086323 
L 729.19648 -181.55824 
L 724.36347 -184.006132 
L 719.53046 -185.796632 
L 714.69745 -187.780344 
L 709.86444 -188.159969 
L 705.03143 -188.98945 
L 700.19842 -190.270318 
L 695.36541 -191.41459 
L 690.5324 -195.561864 
L 685.69939 -198.766477 
L 680.86638 -199.385534 
L 676.03337 -195.380033 
L 671.20036 -189.383009 
L 666.36735 -183.618358 
L 661.53434 -177.856243 
z
" style="stroke: #00ffff; stroke-opacity: 0.1"/>
    </defs>
    <g clip-path="url(#p37e2bbde43)">
     <use xlink:href="#m20fd89542f" x="0" y="323.436915" style="fill: #00ffff; fill-opacity: 0.1; stroke: #00ffff; stroke-opacity: 0.1"/>
    </g>
   </g>
   <g id="matplotlib.axis_7">
    <g id="xtick_11">
     <g id="line2d_35">
      <g>
       <use xlink:href="#m3d578d0cfa" x="671.20036" y="210.24" style="stroke: #000000; stroke-width: 0.8"/>
      </g>
     </g>
     <g id="text_38">
      <text style="font: 10px 'Arial', sans-serif" transform="translate(640.234608 251.86503) rotate(-45)">Sampling</text>
     </g>
    </g>
    <g id="xtick_12">
     <g id="line2d_36">
      <g>
       <use xlink:href="#m3d578d0cfa" x="801.69163" y="210.24" style="stroke: #000000; stroke-width: 0.8"/>
      </g>
     </g>
     <g id="text_39">
      <text style="font: 10px 'Arial', sans-serif" transform="translate(720.901365 301.686227) rotate(-45)">Movement to Lateral Port</text>
     </g>
    </g>
    <g id="text_40">
     <text style="font: 10px 'Arial', sans-serif; text-anchor: middle" x="738.8625" y="314.249415" transform="rotate(-0 738.8625 314.249415)">Normalized Time</text>
    </g>
   </g>
   <g id="matplotlib.axis_8">
    <g id="ytick_16">
     <g id="line2d_37">
      <g>
       <use xlink:href="#md91b31943f" x="653.801524" y="197.871433" style="stroke: #000000; stroke-width: 0.8"/>
      </g>
     </g>
     <g id="text_41">
      <text style="font: 10px 'Arial', sans-serif; text-anchor: end" x="646.801524" y="201.450339" transform="rotate(-0 646.801524 201.450339)">−0.5</text>
     </g>
    </g>
    <g id="ytick_17">
     <g id="line2d_38">
      <g>
       <use xlink:href="#md91b31943f" x="653.801524" y="166.542482" style="stroke: #000000; stroke-width: 0.8"/>
      </g>
     </g>
     <g id="text_42">
      <text style="font: 10px 'Arial', sans-serif; text-anchor: end" x="646.801524" y="170.121388" transform="rotate(-0 646.801524 170.121388)">0.0</text>
     </g>
    </g>
    <g id="ytick_18">
     <g id="line2d_39">
      <g>
       <use xlink:href="#md91b31943f" x="653.801524" y="135.213531" style="stroke: #000000; stroke-width: 0.8"/>
      </g>
     </g>
     <g id="text_43">
      <text style="font: 10px 'Arial', sans-serif; text-anchor: end" x="646.801524" y="138.792437" transform="rotate(-0 646.801524 138.792437)">0.5</text>
     </g>
    </g>
    <g id="ytick_19">
     <g id="line2d_40">
      <g>
       <use xlink:href="#md91b31943f" x="653.801524" y="103.88458" style="stroke: #000000; stroke-width: 0.8"/>
      </g>
     </g>
     <g id="text_44">
      <text style="font: 10px 'Arial', sans-serif; text-anchor: end" x="646.801524" y="107.463486" transform="rotate(-0 646.801524 107.463486)">1.0</text>
     </g>
    </g>
    <g id="ytick_20">
     <g id="line2d_41">
      <g>
       <use xlink:href="#md91b31943f" x="653.801524" y="72.555629" style="stroke: #000000; stroke-width: 0.8"/>
      </g>
     </g>
     <g id="text_45">
      <text style="font: 10px 'Arial', sans-serif; text-anchor: end" x="646.801524" y="76.134535" transform="rotate(-0 646.801524 76.134535)">1.5</text>
     </g>
    </g>
    <g id="text_46">
     <text style="font: 10px 'Arial', sans-serif; text-anchor: middle" x="620.956212" y="127.08" transform="rotate(-90 620.956212 127.08)">Mean Activity</text>
    </g>
   </g>
   <g id="line2d_42">
    <path d="M 661.53434 158.172853 
L 666.36735 153.602087 
L 671.20036 149.705534 
L 676.03337 145.638503 
L 680.86638 142.304331 
L 685.69939 142.473272 
L 690.5324 144.513785 
L 695.36541 147.49415 
L 700.19842 147.991599 
L 705.03143 148.809077 
L 709.86444 149.28833 
L 714.69745 149.729038 
L 719.53046 151.943019 
L 724.36347 153.908683 
L 729.19648 156.056987 
L 734.02949 157.661117 
L 738.8625 157.422367 
L 743.69551 156.494015 
L 748.52852 158.520547 
L 753.36153 161.746575 
L 758.19454 163.371918 
L 763.02755 163.905926 
L 767.86056 164.396731 
L 772.69357 165.438765 
L 777.52658 166.715216 
L 782.35959 167.181614 
L 787.1926 166.680922 
L 792.02561 164.446373 
L 796.85862 164.024774 
L 801.69163 164.506325 
L 806.52464 165.181442 
L 811.35765 164.73768 
L 816.19066 164.863574 
" clip-path="url(#p37e2bbde43)" style="fill: none; stroke: #00ffff; stroke-width: 1.5; stroke-linecap: square"/>
   </g>
   <g id="line2d_43">
    <path d="M 671.20036 210.24 
L 671.20036 43.92 
" clip-path="url(#p37e2bbde43)" style="fill: none; stroke-dasharray: 5.55,2.4; stroke-dashoffset: 0; stroke: #808080; stroke-opacity: 0.7; stroke-width: 1.5"/>
   </g>
   <g id="line2d_44">
    <path d="M 801.69163 210.24 
L 801.69163 43.92 
" clip-path="url(#p37e2bbde43)" style="fill: none; stroke-dasharray: 5.55,2.4; stroke-dashoffset: 0; stroke: #808080; stroke-opacity: 0.7; stroke-width: 1.5"/>
   </g>
   <g id="text_47">
    <text style="font: 12px 'Arial', sans-serif; text-anchor: middle" x="738.8625" y="37.92" transform="rotate(-0 738.8625 37.92)">1 Incorrect Trials</text>
   </g>
   <g id="legend_4">
    <g id="patch_23">
     <path d="M 679.989961 207.345 
L 797.735039 207.345 
Q 798.893039 207.345 798.893039 206.187 
L 798.893039 198.575864 
Q 798.893039 197.417864 797.735039 197.417864 
L 679.989961 197.417864 
Q 678.831961 197.417864 678.831961 198.575864 
L 678.831961 206.187 
Q 678.831961 207.345 679.989961 207.345 
z
" style="fill: #ffffff; opacity: 0.8; stroke: #cccccc; stroke-linejoin: miter"/>
    </g>
    <g id="line2d_45">
     <path d="M 681.147961 201.851738 
L 686.937961 201.851738 
L 692.727961 201.851738 
" style="fill: none; stroke: #00ffff; stroke-width: 1.5; stroke-linecap: square"/>
    </g>
    <g id="text_48">
     <text style="font: 5.79px 'Arial', sans-serif; text-anchor: start" x="697.359961" y="203.878238" transform="rotate(-0 697.359961 203.878238)">NonPref - PrevCount=-1 - #Trials=50.0</text>
    </g>
   </g>
  </g>
  <g id="axes_5">
   <g id="patch_24">
    <path d="M 857.947866 210.24 
L 1028.069817 210.24 
L 1028.069817 43.92 
L 857.947866 43.92 
z
" style="fill: #ffffff"/>
   </g>
   <g id="PolyCollection_4">
    <defs>
     <path id="m3d2917d3bd" d="M 865.680682 -163.915526 
L 865.680682 -148.266692 
L 870.513692 -152.333102 
L 875.346702 -158.50472 
L 880.179712 -164.881452 
L 885.012722 -167.06848 
L 889.845732 -167.104263 
L 894.678742 -166.088814 
L 899.511752 -165.954433 
L 904.344762 -165.481687 
L 909.177772 -165.349175 
L 914.010782 -165.376365 
L 918.843792 -164.726202 
L 923.676802 -163.007587 
L 928.509812 -161.030795 
L 933.342822 -159.229448 
L 938.175831 -157.66608 
L 943.008841 -155.169359 
L 947.841851 -153.980212 
L 952.674861 -153.464827 
L 957.507871 -153.32006 
L 962.340881 -152.388246 
L 967.173891 -151.796332 
L 972.006901 -150.409999 
L 976.839911 -149.685983 
L 981.672921 -149.361281 
L 986.505931 -149.387657 
L 991.338941 -149.178274 
L 996.171951 -149.692843 
L 1001.004961 -150.222626 
L 1005.837971 -149.803712 
L 1010.670981 -149.341041 
L 1015.503991 -149.15527 
L 1020.337001 -149.361001 
L 1020.337001 -158.5512 
L 1020.337001 -158.5512 
L 1015.503991 -157.872952 
L 1010.670981 -157.802099 
L 1005.837971 -159.247883 
L 1001.004961 -160.144144 
L 996.171951 -159.784913 
L 991.338941 -159.97924 
L 986.505931 -160.897853 
L 981.672921 -160.771033 
L 976.839911 -161.390093 
L 972.006901 -163.978891 
L 967.173891 -166.513203 
L 962.340881 -166.836661 
L 957.507871 -168.196874 
L 952.674861 -168.715274 
L 947.841851 -169.384885 
L 943.008841 -171.47971 
L 938.175831 -176.335616 
L 933.342822 -178.983447 
L 928.509812 -180.953631 
L 923.676802 -184.3847 
L 918.843792 -187.965221 
L 914.010782 -188.732805 
L 909.177772 -189.053571 
L 904.344762 -189.820701 
L 899.511752 -190.251178 
L 894.678742 -190.475775 
L 889.845732 -191.822953 
L 885.012722 -191.989069 
L 880.179712 -189.099874 
L 875.346702 -179.79858 
L 870.513692 -170.283819 
L 865.680682 -163.915526 
z
" style="stroke: #ff00ff; stroke-opacity: 0.1"/>
    </defs>
    <g clip-path="url(#pe5ca407ab8)">
     <use xlink:href="#m3d2917d3bd" x="0" y="323.436915" style="fill: #ff00ff; fill-opacity: 0.1; stroke: #ff00ff; stroke-opacity: 0.1"/>
    </g>
   </g>
   <g id="matplotlib.axis_9">
    <g id="xtick_13">
     <g id="line2d_46">
      <g>
       <use xlink:href="#m3d578d0cfa" x="875.346702" y="210.24" style="stroke: #000000; stroke-width: 0.8"/>
      </g>
     </g>
     <g id="text_49">
      <text style="font: 10px 'Arial', sans-serif" transform="translate(844.380949 251.86503) rotate(-45)">Sampling</text>
     </g>
    </g>
    <g id="xtick_14">
     <g id="line2d_47">
      <g>
       <use xlink:href="#m3d578d0cfa" x="1005.837971" y="210.24" style="stroke: #000000; stroke-width: 0.8"/>
      </g>
     </g>
     <g id="text_50">
      <text style="font: 10px 'Arial', sans-serif" transform="translate(925.047707 301.686227) rotate(-45)">Movement to Lateral Port</text>
     </g>
    </g>
    <g id="text_51">
     <text style="font: 10px 'Arial', sans-serif; text-anchor: middle" x="943.008841" y="314.249415" transform="rotate(-0 943.008841 314.249415)">Normalized Time</text>
    </g>
   </g>
   <g id="matplotlib.axis_10">
    <g id="ytick_21">
     <g id="line2d_48">
      <g>
       <use xlink:href="#md91b31943f" x="857.947866" y="197.871433" style="stroke: #000000; stroke-width: 0.8"/>
      </g>
     </g>
     <g id="text_52">
      <text style="font: 10px 'Arial', sans-serif; text-anchor: end" x="850.947866" y="201.450339" transform="rotate(-0 850.947866 201.450339)">−0.5</text>
     </g>
    </g>
    <g id="ytick_22">
     <g id="line2d_49">
      <g>
       <use xlink:href="#md91b31943f" x="857.947866" y="166.542482" style="stroke: #000000; stroke-width: 0.8"/>
      </g>
     </g>
     <g id="text_53">
      <text style="font: 10px 'Arial', sans-serif; text-anchor: end" x="850.947866" y="170.121388" transform="rotate(-0 850.947866 170.121388)">0.0</text>
     </g>
    </g>
    <g id="ytick_23">
     <g id="line2d_50">
      <g>
       <use xlink:href="#md91b31943f" x="857.947866" y="135.213531" style="stroke: #000000; stroke-width: 0.8"/>
      </g>
     </g>
     <g id="text_54">
      <text style="font: 10px 'Arial', sans-serif; text-anchor: end" x="850.947866" y="138.792437" transform="rotate(-0 850.947866 138.792437)">0.5</text>
     </g>
    </g>
    <g id="ytick_24">
     <g id="line2d_51">
      <g>
       <use xlink:href="#md91b31943f" x="857.947866" y="103.88458" style="stroke: #000000; stroke-width: 0.8"/>
      </g>
     </g>
     <g id="text_55">
      <text style="font: 10px 'Arial', sans-serif; text-anchor: end" x="850.947866" y="107.463486" transform="rotate(-0 850.947866 107.463486)">1.0</text>
     </g>
    </g>
    <g id="ytick_25">
     <g id="line2d_52">
      <g>
       <use xlink:href="#md91b31943f" x="857.947866" y="72.555629" style="stroke: #000000; stroke-width: 0.8"/>
      </g>
     </g>
     <g id="text_56">
      <text style="font: 10px 'Arial', sans-serif; text-anchor: end" x="850.947866" y="76.134535" transform="rotate(-0 850.947866 76.134535)">1.5</text>
     </g>
    </g>
    <g id="text_57">
     <text style="font: 10px 'Arial', sans-serif; text-anchor: middle" x="825.102553" y="127.08" transform="rotate(-90 825.102553 127.08)">Mean Activity</text>
    </g>
   </g>
   <g id="line2d_53">
    <path d="M 865.680682 167.345805 
L 870.513692 162.128454 
L 875.346702 154.285265 
L 880.179712 146.446252 
L 885.012722 143.908139 
L 889.845732 143.973306 
L 894.678742 145.15462 
L 899.511752 145.33411 
L 904.344762 145.785719 
L 909.177772 146.235542 
L 914.010782 146.382331 
L 918.843792 147.091203 
L 923.676802 149.740771 
L 928.509812 152.444702 
L 933.342822 154.330467 
L 938.175831 156.436066 
L 943.008841 160.11238 
L 947.841851 161.754366 
L 952.674861 162.346864 
L 957.507871 162.678447 
L 962.340881 163.824461 
L 967.173891 164.282147 
L 972.006901 166.24247 
L 976.839911 167.898876 
L 981.672921 168.370758 
L 986.505931 168.29416 
L 991.338941 168.858157 
L 996.171951 168.698037 
L 1001.004961 168.253529 
L 1005.837971 168.911117 
L 1010.670981 169.865345 
L 1015.503991 169.922804 
L 1020.337001 169.480814 
" clip-path="url(#pe5ca407ab8)" style="fill: none; stroke: #ff00ff; stroke-width: 1.5; stroke-linecap: square"/>
   </g>
   <g id="line2d_54">
    <path d="M 875.346702 210.24 
L 875.346702 43.92 
" clip-path="url(#pe5ca407ab8)" style="fill: none; stroke-dasharray: 5.55,2.4; stroke-dashoffset: 0; stroke: #808080; stroke-opacity: 0.7; stroke-width: 1.5"/>
   </g>
   <g id="line2d_55">
    <path d="M 1005.837971 210.24 
L 1005.837971 43.92 
" clip-path="url(#pe5ca407ab8)" style="fill: none; stroke-dasharray: 5.55,2.4; stroke-dashoffset: 0; stroke: #808080; stroke-opacity: 0.7; stroke-width: 1.5"/>
   </g>
   <g id="text_58">
    <text style="font: 12px 'Arial', sans-serif; text-anchor: middle" x="943.008841" y="37.92" transform="rotate(-0 943.008841 37.92)">1 Correct Trials</text>
   </g>
   <g id="legend_5">
    <g id="patch_25">
     <path d="M 890.410763 207.345 
L 995.60692 207.345 
Q 996.76492 207.345 996.76492 206.187 
L 996.76492 198.575864 
Q 996.76492 197.417864 995.60692 197.417864 
L 890.410763 197.417864 
Q 889.252763 197.417864 889.252763 198.575864 
L 889.252763 206.187 
Q 889.252763 207.345 890.410763 207.345 
z
" style="fill: #ffffff; opacity: 0.8; stroke: #cccccc; stroke-linejoin: miter"/>
    </g>
    <g id="line2d_56">
     <path d="M 891.568763 201.851738 
L 897.358763 201.851738 
L 903.148763 201.851738 
" style="fill: none; stroke: #ff00ff; stroke-width: 1.5; stroke-linecap: square"/>
    </g>
    <g id="text_59">
     <text style="font: 5.79px 'Arial', sans-serif; text-anchor: start" x="907.780763" y="203.878238" transform="rotate(-0 907.780763 203.878238)">Pref - PrevCount=1 - #Trials=59.0</text>
    </g>
   </g>
  </g>
  <g id="axes_6">
   <g id="patch_26">
    <path d="M 1062.094207 210.24 
L 1232.216159 210.24 
L 1232.216159 43.92 
L 1062.094207 43.92 
z
" style="fill: #ffffff"/>
   </g>
   <g id="PolyCollection_5">
    <defs>
     <path id="m8d7d8eddf1" d="M 1069.827023 -180.842866 
L 1069.827023 -161.219766 
L 1074.660033 -176.012068 
L 1079.493043 -193.16919 
L 1084.326053 -207.981982 
L 1089.159063 -211.750214 
L 1093.992073 -213.656854 
L 1098.825083 -212.476113 
L 1103.658093 -207.795321 
L 1108.491103 -202.601512 
L 1113.324113 -197.269209 
L 1118.157123 -194.037445 
L 1122.990133 -193.182373 
L 1127.823143 -193.250715 
L 1132.656153 -191.571387 
L 1137.489163 -191.086459 
L 1142.322173 -188.643904 
L 1147.155183 -186.162418 
L 1151.988193 -183.707743 
L 1156.821203 -182.735034 
L 1161.654213 -184.645074 
L 1166.487223 -182.958152 
L 1171.320233 -179.294272 
L 1176.153243 -177.898167 
L 1180.986253 -178.259778 
L 1185.819263 -180.749534 
L 1190.652273 -180.329445 
L 1195.485283 -174.303804 
L 1200.318293 -169.030752 
L 1205.151303 -165.51245 
L 1209.984313 -164.381218 
L 1214.817323 -165.403107 
L 1219.650333 -166.173308 
L 1224.483343 -166.274449 
L 1224.483343 -185.43384 
L 1224.483343 -185.43384 
L 1219.650333 -181.86697 
L 1214.817323 -180.652799 
L 1209.984313 -182.218693 
L 1205.151303 -186.094718 
L 1200.318293 -193.12031 
L 1195.485283 -202.389766 
L 1190.652273 -212.087259 
L 1185.819263 -214.874217 
L 1180.986253 -212.504157 
L 1176.153243 -210.525568 
L 1171.320233 -211.837195 
L 1166.487223 -216.856265 
L 1161.654213 -219.788883 
L 1156.821203 -218.419237 
L 1151.988193 -221.203753 
L 1147.155183 -224.148237 
L 1142.322173 -226.806941 
L 1137.489163 -232.210136 
L 1132.656153 -235.632587 
L 1127.823143 -238.530477 
L 1122.990133 -237.595098 
L 1118.157123 -236.745991 
L 1113.324113 -239.795958 
L 1108.491103 -247.376298 
L 1103.658093 -255.677831 
L 1098.825083 -261.547811 
L 1093.992073 -262.417198 
L 1089.159063 -259.824881 
L 1084.326053 -253.55782 
L 1079.493043 -230.593503 
L 1074.660033 -204.085537 
L 1069.827023 -180.842866 
z
" style="stroke: #ff00ff; stroke-opacity: 0.1"/>
    </defs>
    <g clip-path="url(#p346db05946)">
     <use xlink:href="#m8d7d8eddf1" x="0" y="323.436915" style="fill: #ff00ff; fill-opacity: 0.1; stroke: #ff00ff; stroke-opacity: 0.1"/>
    </g>
   </g>
   <g id="matplotlib.axis_11">
    <g id="xtick_15">
     <g id="line2d_57">
      <g>
       <use xlink:href="#m3d578d0cfa" x="1079.493043" y="210.24" style="stroke: #000000; stroke-width: 0.8"/>
      </g>
     </g>
     <g id="text_60">
      <text style="font: 10px 'Arial', sans-serif" transform="translate(1048.52729 251.86503) rotate(-45)">Sampling</text>
     </g>
    </g>
    <g id="xtick_16">
     <g id="line2d_58">
      <g>
       <use xlink:href="#m3d578d0cfa" x="1209.984313" y="210.24" style="stroke: #000000; stroke-width: 0.8"/>
      </g>
     </g>
     <g id="text_61">
      <text style="font: 10px 'Arial', sans-serif" transform="translate(1129.194048 301.686227) rotate(-45)">Movement to Lateral Port</text>
     </g>
    </g>
    <g id="text_62">
     <text style="font: 10px 'Arial', sans-serif; text-anchor: middle" x="1147.155183" y="314.249415" transform="rotate(-0 1147.155183 314.249415)">Normalized Time</text>
    </g>
   </g>
   <g id="matplotlib.axis_12">
    <g id="ytick_26">
     <g id="line2d_59">
      <g>
       <use xlink:href="#md91b31943f" x="1062.094207" y="197.871433" style="stroke: #000000; stroke-width: 0.8"/>
      </g>
     </g>
     <g id="text_63">
      <text style="font: 10px 'Arial', sans-serif; text-anchor: end" x="1055.094207" y="201.450339" transform="rotate(-0 1055.094207 201.450339)">−0.5</text>
     </g>
    </g>
    <g id="ytick_27">
     <g id="line2d_60">
      <g>
       <use xlink:href="#md91b31943f" x="1062.094207" y="166.542482" style="stroke: #000000; stroke-width: 0.8"/>
      </g>
     </g>
     <g id="text_64">
      <text style="font: 10px 'Arial', sans-serif; text-anchor: end" x="1055.094207" y="170.121388" transform="rotate(-0 1055.094207 170.121388)">0.0</text>
     </g>
    </g>
    <g id="ytick_28">
     <g id="line2d_61">
      <g>
       <use xlink:href="#md91b31943f" x="1062.094207" y="135.213531" style="stroke: #000000; stroke-width: 0.8"/>
      </g>
     </g>
     <g id="text_65">
      <text style="font: 10px 'Arial', sans-serif; text-anchor: end" x="1055.094207" y="138.792437" transform="rotate(-0 1055.094207 138.792437)">0.5</text>
     </g>
    </g>
    <g id="ytick_29">
     <g id="line2d_62">
      <g>
       <use xlink:href="#md91b31943f" x="1062.094207" y="103.88458" style="stroke: #000000; stroke-width: 0.8"/>
      </g>
     </g>
     <g id="text_66">
      <text style="font: 10px 'Arial', sans-serif; text-anchor: end" x="1055.094207" y="107.463486" transform="rotate(-0 1055.094207 107.463486)">1.0</text>
     </g>
    </g>
    <g id="ytick_30">
     <g id="line2d_63">
      <g>
       <use xlink:href="#md91b31943f" x="1062.094207" y="72.555629" style="stroke: #000000; stroke-width: 0.8"/>
      </g>
     </g>
     <g id="text_67">
      <text style="font: 10px 'Arial', sans-serif; text-anchor: end" x="1055.094207" y="76.134535" transform="rotate(-0 1055.094207 76.134535)">1.5</text>
     </g>
    </g>
    <g id="text_68">
     <text style="font: 10px 'Arial', sans-serif; text-anchor: middle" x="1029.248895" y="127.08" transform="rotate(-90 1029.248895 127.08)">Mean Activity</text>
    </g>
   </g>
   <g id="line2d_64">
    <path d="M 1069.827023 152.405598 
L 1074.660033 133.388113 
L 1079.493043 111.555568 
L 1084.326053 92.667014 
L 1089.159063 87.649367 
L 1093.992073 85.399889 
L 1098.825083 86.424953 
L 1103.658093 91.700339 
L 1108.491103 98.448011 
L 1113.324113 104.904333 
L 1118.157123 108.045195 
L 1122.990133 108.048179 
L 1127.823143 107.546321 
L 1132.656153 109.834927 
L 1137.489163 111.788617 
L 1142.322173 115.711492 
L 1147.155183 118.281587 
L 1151.988193 120.981168 
L 1156.821203 122.859779 
L 1161.654213 121.219935 
L 1166.487223 123.529706 
L 1171.320233 127.871181 
L 1176.153243 129.225048 
L 1180.986253 128.054947 
L 1185.819263 125.625038 
L 1190.652273 127.228562 
L 1195.485283 135.090129 
L 1200.318293 142.361384 
L 1205.151303 147.633331 
L 1209.984313 150.136959 
L 1214.817323 150.408961 
L 1219.650333 149.416776 
L 1224.483343 147.58277 
" clip-path="url(#p346db05946)" style="fill: none; stroke: #ff00ff; stroke-width: 1.5; stroke-linecap: square"/>
   </g>
   <g id="line2d_65">
    <path d="M 1079.493043 210.24 
L 1079.493043 43.92 
" clip-path="url(#p346db05946)" style="fill: none; stroke-dasharray: 5.55,2.4; stroke-dashoffset: 0; stroke: #808080; stroke-opacity: 0.7; stroke-width: 1.5"/>
   </g>
   <g id="line2d_66">
    <path d="M 1209.984313 210.24 
L 1209.984313 43.92 
" clip-path="url(#p346db05946)" style="fill: none; stroke-dasharray: 5.55,2.4; stroke-dashoffset: 0; stroke: #808080; stroke-opacity: 0.7; stroke-width: 1.5"/>
   </g>
   <g id="text_69">
    <text style="font: 12px 'Arial', sans-serif; text-anchor: middle" x="1147.155183" y="37.92" transform="rotate(-0 1147.155183 37.92)">2 Correct Trials</text>
   </g>
   <g id="legend_6">
    <g id="patch_27">
     <path d="M 1094.557104 207.345 
L 1199.753262 207.345 
Q 1200.911262 207.345 1200.911262 206.187 
L 1200.911262 198.575864 
Q 1200.911262 197.417864 1199.753262 197.417864 
L 1094.557104 197.417864 
Q 1093.399104 197.417864 1093.399104 198.575864 
L 1093.399104 206.187 
Q 1093.399104 207.345 1094.557104 207.345 
z
" style="fill: #ffffff; opacity: 0.8; stroke: #cccccc; stroke-linejoin: miter"/>
    </g>
    <g id="line2d_67">
     <path d="M 1095.715104 201.851738 
L 1101.505104 201.851738 
L 1107.295104 201.851738 
" style="fill: none; stroke: #ff00ff; stroke-width: 1.5; stroke-linecap: square"/>
    </g>
    <g id="text_70">
     <text style="font: 5.79px 'Arial', sans-serif; text-anchor: start" x="1111.927104" y="203.878238" transform="rotate(-0 1111.927104 203.878238)">Pref - PrevCount=2 - #Trials=43.0</text>
    </g>
   </g>
  </g>
  <g id="axes_7">
   <g id="patch_28">
    <path d="M 1266.240549 210.24 
L 1436.3625 210.24 
L 1436.3625 43.92 
L 1266.240549 43.92 
z
" style="fill: #ffffff"/>
   </g>
   <g id="PolyCollection_6">
    <defs>
     <path id="m0e0f3eef21" d="M 1273.973365 -201.114533 
L 1273.973365 -179.664818 
L 1278.806375 -195.974504 
L 1283.639385 -211.135986 
L 1288.472395 -223.039366 
L 1293.305405 -228.669997 
L 1298.138415 -229.574811 
L 1302.971425 -226.951205 
L 1307.804435 -221.985986 
L 1312.637445 -215.19458 
L 1317.470455 -209.010197 
L 1322.303465 -205.742412 
L 1327.136475 -206.457088 
L 1331.969484 -206.305578 
L 1336.802494 -205.070251 
L 1341.635504 -201.56675 
L 1346.468514 -197.107045 
L 1351.301524 -195.654645 
L 1356.134534 -196.394785 
L 1360.967544 -196.270292 
L 1365.800554 -195.382434 
L 1370.633564 -192.071247 
L 1375.466574 -186.953686 
L 1380.299584 -184.592861 
L 1385.132594 -185.165873 
L 1389.965604 -184.48243 
L 1394.798614 -182.777217 
L 1399.631624 -181.233725 
L 1404.464634 -179.165518 
L 1409.297644 -176.192684 
L 1414.130654 -173.619737 
L 1418.963664 -170.955842 
L 1423.796674 -171.860383 
L 1428.629684 -175.417296 
L 1428.629684 -193.598251 
L 1428.629684 -193.598251 
L 1423.796674 -188.724887 
L 1418.963664 -187.123523 
L 1414.130654 -190.852875 
L 1409.297644 -194.991844 
L 1404.464634 -199.582088 
L 1399.631624 -202.487368 
L 1394.798614 -204.629362 
L 1389.965604 -207.4452 
L 1385.132594 -208.900785 
L 1380.299584 -208.655927 
L 1375.466574 -212.261535 
L 1370.633564 -219.309131 
L 1365.800554 -224.289483 
L 1360.967544 -224.9774 
L 1356.134534 -224.284299 
L 1351.301524 -223.317467 
L 1346.468514 -225.455435 
L 1341.635504 -231.69539 
L 1336.802494 -236.833593 
L 1331.969484 -238.888986 
L 1327.136475 -238.859616 
L 1322.303465 -236.752639 
L 1317.470455 -240.135248 
L 1312.637445 -248.532054 
L 1307.804435 -257.564281 
L 1302.971425 -264.394984 
L 1298.138415 -268.369416 
L 1293.305405 -267.101395 
L 1288.472395 -259.162136 
L 1283.639385 -242.328654 
L 1278.806375 -222.054025 
L 1273.973365 -201.114533 
z
" style="stroke: #ff00ff; stroke-opacity: 0.1"/>
    </defs>
    <g clip-path="url(#pba44c95765)">
     <use xlink:href="#m0e0f3eef21" x="0" y="323.436915" style="fill: #ff00ff; fill-opacity: 0.1; stroke: #ff00ff; stroke-opacity: 0.1"/>
    </g>
   </g>
   <g id="matplotlib.axis_13">
    <g id="xtick_17">
     <g id="line2d_68">
      <g>
       <use xlink:href="#m3d578d0cfa" x="1283.639385" y="210.24" style="stroke: #000000; stroke-width: 0.8"/>
      </g>
     </g>
     <g id="text_71">
      <text style="font: 10px 'Arial', sans-serif" transform="translate(1252.673632 251.86503) rotate(-45)">Sampling</text>
     </g>
    </g>
    <g id="xtick_18">
     <g id="line2d_69">
      <g>
       <use xlink:href="#m3d578d0cfa" x="1414.130654" y="210.24" style="stroke: #000000; stroke-width: 0.8"/>
      </g>
     </g>
     <g id="text_72">
      <text style="font: 10px 'Arial', sans-serif" transform="translate(1333.34039 301.686227) rotate(-45)">Movement to Lateral Port</text>
     </g>
    </g>
    <g id="text_73">
     <text style="font: 10px 'Arial', sans-serif; text-anchor: middle" x="1351.301524" y="314.249415" transform="rotate(-0 1351.301524 314.249415)">Normalized Time</text>
    </g>
   </g>
   <g id="matplotlib.axis_14">
    <g id="ytick_31">
     <g id="line2d_70">
      <g>
       <use xlink:href="#md91b31943f" x="1266.240549" y="197.871433" style="stroke: #000000; stroke-width: 0.8"/>
      </g>
     </g>
     <g id="text_74">
      <text style="font: 10px 'Arial', sans-serif; text-anchor: end" x="1259.240549" y="201.450339" transform="rotate(-0 1259.240549 201.450339)">−0.5</text>
     </g>
    </g>
    <g id="ytick_32">
     <g id="line2d_71">
      <g>
       <use xlink:href="#md91b31943f" x="1266.240549" y="166.542482" style="stroke: #000000; stroke-width: 0.8"/>
      </g>
     </g>
     <g id="text_75">
      <text style="font: 10px 'Arial', sans-serif; text-anchor: end" x="1259.240549" y="170.121388" transform="rotate(-0 1259.240549 170.121388)">0.0</text>
     </g>
    </g>
    <g id="ytick_33">
     <g id="line2d_72">
      <g>
       <use xlink:href="#md91b31943f" x="1266.240549" y="135.213531" style="stroke: #000000; stroke-width: 0.8"/>
      </g>
     </g>
     <g id="text_76">
      <text style="font: 10px 'Arial', sans-serif; text-anchor: end" x="1259.240549" y="138.792437" transform="rotate(-0 1259.240549 138.792437)">0.5</text>
     </g>
    </g>
    <g id="ytick_34">
     <g id="line2d_73">
      <g>
       <use xlink:href="#md91b31943f" x="1266.240549" y="103.88458" style="stroke: #000000; stroke-width: 0.8"/>
      </g>
     </g>
     <g id="text_77">
      <text style="font: 10px 'Arial', sans-serif; text-anchor: end" x="1259.240549" y="107.463486" transform="rotate(-0 1259.240549 107.463486)">1.0</text>
     </g>
    </g>
    <g id="ytick_35">
     <g id="line2d_74">
      <g>
       <use xlink:href="#md91b31943f" x="1266.240549" y="72.555629" style="stroke: #000000; stroke-width: 0.8"/>
      </g>
     </g>
     <g id="text_78">
      <text style="font: 10px 'Arial', sans-serif; text-anchor: end" x="1259.240549" y="76.134535" transform="rotate(-0 1259.240549 76.134535)">1.5</text>
     </g>
    </g>
    <g id="text_79">
     <text style="font: 10px 'Arial', sans-serif; text-anchor: middle" x="1233.395236" y="127.08" transform="rotate(-90 1233.395236 127.08)">Mean Activity</text>
    </g>
   </g>
   <g id="line2d_75">
    <path d="M 1273.973365 133.047239 
L 1278.806375 114.42265 
L 1283.639385 96.704593 
L 1288.472395 82.336163 
L 1293.305405 75.551218 
L 1298.138415 74.464801 
L 1302.971425 77.76382 
L 1307.804435 83.661781 
L 1312.637445 91.573598 
L 1317.470455 98.864192 
L 1322.303465 102.189391 
L 1327.136475 100.778563 
L 1331.969484 100.839632 
L 1336.802494 102.484993 
L 1341.635504 106.805845 
L 1346.468514 112.155675 
L 1351.301524 113.950856 
L 1356.134534 113.097372 
L 1360.967544 112.813068 
L 1365.800554 113.600956 
L 1370.633564 117.746725 
L 1375.466574 123.829304 
L 1380.299584 126.81252 
L 1385.132594 126.403585 
L 1389.965604 127.473099 
L 1394.798614 129.733625 
L 1399.631624 131.576368 
L 1404.464634 134.063112 
L 1409.297644 137.844651 
L 1414.130654 141.200609 
L 1418.963664 144.397232 
L 1423.796674 143.144279 
L 1428.629684 138.929141 
" clip-path="url(#pba44c95765)" style="fill: none; stroke: #ff00ff; stroke-width: 1.5; stroke-linecap: square"/>
   </g>
   <g id="line2d_76">
    <path d="M 1283.639385 210.24 
L 1283.639385 43.92 
" clip-path="url(#pba44c95765)" style="fill: none; stroke-dasharray: 5.55,2.4; stroke-dashoffset: 0; stroke: #808080; stroke-opacity: 0.7; stroke-width: 1.5"/>
   </g>
   <g id="line2d_77">
    <path d="M 1414.130654 210.24 
L 1414.130654 43.92 
" clip-path="url(#pba44c95765)" style="fill: none; stroke-dasharray: 5.55,2.4; stroke-dashoffset: 0; stroke: #808080; stroke-opacity: 0.7; stroke-width: 1.5"/>
   </g>
   <g id="text_80">
    <text style="font: 12px 'Arial', sans-serif; text-anchor: middle" x="1351.301524" y="37.92" transform="rotate(-0 1351.301524 37.92)">3 Correct Trials</text>
   </g>
   <g id="legend_7">
    <g id="patch_29">
     <path d="M 1298.703445 207.345 
L 1403.899603 207.345 
Q 1405.057603 207.345 1405.057603 206.187 
L 1405.057603 198.575864 
Q 1405.057603 197.417864 1403.899603 197.417864 
L 1298.703445 197.417864 
Q 1297.545445 197.417864 1297.545445 198.575864 
L 1297.545445 206.187 
Q 1297.545445 207.345 1298.703445 207.345 
z
" style="fill: #ffffff; opacity: 0.8; stroke: #cccccc; stroke-linejoin: miter"/>
    </g>
    <g id="line2d_78">
     <path d="M 1299.861445 201.851738 
L 1305.651445 201.851738 
L 1311.441445 201.851738 
" style="fill: none; stroke: #ff00ff; stroke-width: 1.5; stroke-linecap: square"/>
    </g>
    <g id="text_81">
     <text style="font: 5.79px 'Arial', sans-serif; text-anchor: start" x="1316.073445" y="203.878238" transform="rotate(-0 1316.073445 203.878238)">Pref - PrevCount=3 - #Trials=98.0</text>
    </g>
   </g>
  </g>
  <g id="text_82">
   <text style="font: 12px 'Arial', sans-serif; text-anchor: middle" x="716.3625" y="15.935625" transform="rotate(-0 716.3625 15.935625)">Balance Change - M2 - GP4_23_S1_L50_D250_mm2_20 - PrevChoiceCorrect</text>
  </g>
 </g>
 <defs>
  <clipPath id="p904e7c7304">
   <rect x="41.3625" y="43.92" width="170.121951" height="166.32"/>
  </clipPath>
  <clipPath id="p7e840e0498">
   <rect x="245.508841" y="43.92" width="170.121951" height="166.32"/>
  </clipPath>
  <clipPath id="p37c468e1f2">
   <rect x="449.655183" y="43.92" width="170.121951" height="166.32"/>
  </clipPath>
  <clipPath id="p37e2bbde43">
   <rect x="653.801524" y="43.92" width="170.121951" height="166.32"/>
  </clipPath>
  <clipPath id="pe5ca407ab8">
   <rect x="857.947866" y="43.92" width="170.121951" height="166.32"/>
  </clipPath>
  <clipPath id="p346db05946">
   <rect x="1062.094207" y="43.92" width="170.121951" height="166.32"/>
  </clipPath>
  <clipPath id="pba44c95765">
   <rect x="1266.240549" y="43.92" width="170.121951" height="166.32"/>
  </clipPath>
 </defs>
</svg>
