<?xml version="1.0" encoding="utf-8" standalone="no"?>
<!DOCTYPE svg PUBLIC "-//W3C//DTD SVG 1.1//EN"
  "http://www.w3.org/Graphics/SVG/1.1/DTD/svg11.dtd">
<svg xmlns:xlink="http://www.w3.org/1999/xlink" width="1443.5625pt" height="323.436915pt" viewBox="0 0 1443.5625 323.436915" xmlns="http://www.w3.org/2000/svg" version="1.1">
 <metadata>
  <rdf:RDF xmlns:dc="http://purl.org/dc/elements/1.1/" xmlns:cc="http://creativecommons.org/ns#" xmlns:rdf="http://www.w3.org/1999/02/22-rdf-syntax-ns#">
   <cc:Work>
    <dc:type rdf:resource="http://purl.org/dc/dcmitype/StillImage"/>
    <dc:date>2025-12-27T14:02:12.470686</dc:date>
    <dc:format>image/svg+xml</dc:format>
    <dc:creator>
     <cc:Agent>
      <dc:title>Matplotlib v3.8.0, https://matplotlib.org/</dc:title>
     </cc:Agent>
    </dc:creator>
   </cc:Work>
  </rdf:RDF>
 </metadata>
 <defs>
  <style type="text/css">*{stroke-linejoin: round; stroke-linecap: butt}</style>
 </defs>
 <g id="figure_1">
  <g id="patch_1">
   <path d="M 0 323.436915 
L 1443.5625 323.436915 
L 1443.5625 0 
L 0 0 
z
" style="fill: #ffffff"/>
  </g>
  <g id="axes_1">
   <g id="patch_2">
    <path d="M 41.3625 210.24 
L 211.484451 210.24 
L 211.484451 43.92 
L 41.3625 43.92 
z
" style="fill: #ffffff"/>
   </g>
   <g id="patch_3">
    <path d="M 0 0 
z
" clip-path="url(#p491f3bdf80)" style="fill: #ff00ff"/>
   </g>
   <g id="patch_4">
    <path d="M 0 0 
z
" clip-path="url(#p491f3bdf80)" style="fill: #ff00ff"/>
   </g>
   <g id="patch_5">
    <path d="M 0 0 
z
" clip-path="url(#p491f3bdf80)" style="fill: #ff00ff"/>
   </g>
   <g id="patch_6">
    <path d="M 141.889108 198.477754 
L 152.199529 198.477754 
L 152.199529 102.178327 
L 141.889108 102.178327 
z
" clip-path="url(#p491f3bdf80)" style="fill: #ff00ff"/>
   </g>
   <g id="patch_7">
    <path d="M 167.665161 198.477754 
L 177.975582 198.477754 
L 177.975582 67.384669 
L 167.665161 67.384669 
z
" clip-path="url(#p491f3bdf80)" style="fill: #ff00ff"/>
   </g>
   <g id="patch_8">
    <path d="M 193.441214 198.477754 
L 203.751635 198.477754 
L 203.751635 67.118544 
L 193.441214 67.118544 
z
" clip-path="url(#p491f3bdf80)" style="fill: #ff00ff"/>
   </g>
   <g id="patch_9">
    <path d="M 49.095316 198.477754 
L 59.405737 198.477754 
L 59.405737 169.161595 
L 49.095316 169.161595 
z
" clip-path="url(#p491f3bdf80)" style="fill: #00ffff"/>
   </g>
   <g id="patch_10">
    <path d="M 74.871369 198.477754 
L 85.18179 198.477754 
L 85.18179 189.071164 
L 74.871369 189.071164 
z
" clip-path="url(#p491f3bdf80)" style="fill: #00ffff"/>
   </g>
   <g id="patch_11">
    <path d="M 100.647422 198.477754 
L 110.957844 198.477754 
L 110.957844 163.879451 
L 100.647422 163.879451 
z
" clip-path="url(#p491f3bdf80)" style="fill: #00ffff"/>
   </g>
   <g id="patch_12">
    <path d="M 0 0 
z
" clip-path="url(#p491f3bdf80)" style="fill: #00ffff"/>
   </g>
   <g id="patch_13">
    <path d="M 0 0 
z
" clip-path="url(#p491f3bdf80)" style="fill: #00ffff"/>
   </g>
   <g id="patch_14">
    <path d="M 0 0 
z
" clip-path="url(#p491f3bdf80)" style="fill: #00ffff"/>
   </g>
   <g id="matplotlib.axis_1">
    <g id="xtick_1">
     <g id="line2d_1">
      <defs>
       <path id="m3cbf9e5296" d="M 0 0 
L 0 3.5 
" style="stroke: #000000; stroke-width: 0.8"/>
      </defs>
      <g>
       <use xlink:href="#m3cbf9e5296" x="49.095316" y="210.24" style="stroke: #000000; stroke-width: 0.8"/>
      </g>
     </g>
     <g id="text_1">
      <text style="font: 10px 'Arial', sans-serif; text-anchor: middle" x="49.095316" y="224.397813" transform="rotate(-0 49.095316 224.397813)">−3</text>
     </g>
    </g>
    <g id="xtick_2">
     <g id="line2d_2">
      <g>
       <use xlink:href="#m3cbf9e5296" x="74.871369" y="210.24" style="stroke: #000000; stroke-width: 0.8"/>
      </g>
     </g>
     <g id="text_2">
      <text style="font: 10px 'Arial', sans-serif; text-anchor: middle" x="74.871369" y="224.397813" transform="rotate(-0 74.871369 224.397813)">−2</text>
     </g>
    </g>
    <g id="xtick_3">
     <g id="line2d_3">
      <g>
       <use xlink:href="#m3cbf9e5296" x="100.647422" y="210.24" style="stroke: #000000; stroke-width: 0.8"/>
      </g>
     </g>
     <g id="text_3">
      <text style="font: 10px 'Arial', sans-serif; text-anchor: middle" x="100.647422" y="224.397813" transform="rotate(-0 100.647422 224.397813)">−1</text>
     </g>
    </g>
    <g id="xtick_4">
     <g id="line2d_4">
      <g>
       <use xlink:href="#m3cbf9e5296" x="152.199529" y="210.24" style="stroke: #000000; stroke-width: 0.8"/>
      </g>
     </g>
     <g id="text_4">
      <text style="font: 10px 'Arial', sans-serif; text-anchor: middle" x="152.199529" y="224.397813" transform="rotate(-0 152.199529 224.397813)">1</text>
     </g>
    </g>
    <g id="xtick_5">
     <g id="line2d_5">
      <g>
       <use xlink:href="#m3cbf9e5296" x="177.975582" y="210.24" style="stroke: #000000; stroke-width: 0.8"/>
      </g>
     </g>
     <g id="text_5">
      <text style="font: 10px 'Arial', sans-serif; text-anchor: middle" x="177.975582" y="224.397813" transform="rotate(-0 177.975582 224.397813)">2</text>
     </g>
    </g>
    <g id="xtick_6">
     <g id="line2d_6">
      <g>
       <use xlink:href="#m3cbf9e5296" x="203.751635" y="210.24" style="stroke: #000000; stroke-width: 0.8"/>
      </g>
     </g>
     <g id="text_6">
      <text style="font: 10px 'Arial', sans-serif; text-anchor: middle" x="203.751635" y="224.397813" transform="rotate(-0 203.751635 224.397813)">3</text>
     </g>
    </g>
    <g id="text_7">
     <text style="font: 10px 'Arial', sans-serif; text-anchor: middle" x="126.423476" y="237.543125" transform="rotate(-0 126.423476 237.543125)">PrevOutcomeCount</text>
    </g>
   </g>
   <g id="matplotlib.axis_2">
    <g id="ytick_1">
     <g id="line2d_7">
      <defs>
       <path id="m0b67ee3c12" d="M 0 0 
L -3.5 0 
" style="stroke: #000000; stroke-width: 0.8"/>
      </defs>
      <g>
       <use xlink:href="#m0b67ee3c12" x="41.3625" y="198.477754" style="stroke: #000000; stroke-width: 0.8"/>
      </g>
     </g>
     <g id="text_8">
      <text style="font: 10px 'Arial', sans-serif; text-anchor: end" x="34.3625" y="202.056661" transform="rotate(-0 34.3625 202.056661)">0.0</text>
     </g>
    </g>
    <g id="ytick_2">
     <g id="line2d_8">
      <g>
       <use xlink:href="#m0b67ee3c12" x="41.3625" y="162.974886" style="stroke: #000000; stroke-width: 0.8"/>
      </g>
     </g>
     <g id="text_9">
      <text style="font: 10px 'Arial', sans-serif; text-anchor: end" x="34.3625" y="166.553792" transform="rotate(-0 34.3625 166.553792)">0.5</text>
     </g>
    </g>
    <g id="ytick_3">
     <g id="line2d_9">
      <g>
       <use xlink:href="#m0b67ee3c12" x="41.3625" y="127.472017" style="stroke: #000000; stroke-width: 0.8"/>
      </g>
     </g>
     <g id="text_10">
      <text style="font: 10px 'Arial', sans-serif; text-anchor: end" x="34.3625" y="131.050923" transform="rotate(-0 34.3625 131.050923)">1.0</text>
     </g>
    </g>
    <g id="ytick_4">
     <g id="line2d_10">
      <g>
       <use xlink:href="#m0b67ee3c12" x="41.3625" y="91.969148" style="stroke: #000000; stroke-width: 0.8"/>
      </g>
     </g>
     <g id="text_11">
      <text style="font: 10px 'Arial', sans-serif; text-anchor: end" x="34.3625" y="95.548055" transform="rotate(-0 34.3625 95.548055)">1.5</text>
     </g>
    </g>
    <g id="ytick_5">
     <g id="line2d_11">
      <g>
       <use xlink:href="#m0b67ee3c12" x="41.3625" y="56.46628" style="stroke: #000000; stroke-width: 0.8"/>
      </g>
     </g>
     <g id="text_12">
      <text style="font: 10px 'Arial', sans-serif; text-anchor: end" x="34.3625" y="60.045186" transform="rotate(-0 34.3625 60.045186)">2.0</text>
     </g>
    </g>
    <g id="text_13">
     <text style="font: 10px 'Arial', sans-serif; text-anchor: middle" x="14.357813" y="127.08" transform="rotate(-90 14.357813 127.08)">Max Activity</text>
    </g>
   </g>
   <g id="LineCollection_1">
    <path clip-path="url(#p491f3bdf80)" style="fill: none; stroke: #000000; stroke-width: 1.5"/>
    <path clip-path="url(#p491f3bdf80)" style="fill: none; stroke: #000000; stroke-width: 1.5"/>
    <path clip-path="url(#p491f3bdf80)" style="fill: none; stroke: #000000; stroke-width: 1.5"/>
    <path d="M 147.044318 117.008284 
L 147.044318 87.34837 
" clip-path="url(#p491f3bdf80)" style="fill: none; stroke: #000000; stroke-width: 1.5"/>
    <path d="M 172.820371 83.289338 
L 172.820371 51.48 
" clip-path="url(#p491f3bdf80)" style="fill: none; stroke: #000000; stroke-width: 1.5"/>
    <path d="M 198.596425 75.733362 
L 198.596425 58.503725 
" clip-path="url(#p491f3bdf80)" style="fill: none; stroke: #000000; stroke-width: 1.5"/>
   </g>
   <g id="LineCollection_2">
    <path d="M 54.250527 188.099847 
L 54.250527 150.223343 
" clip-path="url(#p491f3bdf80)" style="fill: none; stroke: #000000; stroke-width: 1.5"/>
    <path d="M 80.02658 202.68 
L 80.02658 175.462329 
" clip-path="url(#p491f3bdf80)" style="fill: none; stroke: #000000; stroke-width: 1.5"/>
    <path d="M 105.802633 172.923615 
L 105.802633 154.835288 
" clip-path="url(#p491f3bdf80)" style="fill: none; stroke: #000000; stroke-width: 1.5"/>
    <path clip-path="url(#p491f3bdf80)" style="fill: none; stroke: #000000; stroke-width: 1.5"/>
    <path clip-path="url(#p491f3bdf80)" style="fill: none; stroke: #000000; stroke-width: 1.5"/>
    <path clip-path="url(#p491f3bdf80)" style="fill: none; stroke: #000000; stroke-width: 1.5"/>
   </g>
   <g id="line2d_12">
    <path d="M 41.3625 198.477754 
L 211.484451 198.477754 
" clip-path="url(#p491f3bdf80)" style="fill: none; stroke-dasharray: 5.55,2.4; stroke-dashoffset: 0; stroke: #808080; stroke-width: 1.5"/>
   </g>
   <g id="legend_1">
    <g id="patch_15">
     <path d="M 90.417226 80.210625 
L 162.429726 80.210625 
Q 164.429726 80.210625 164.429726 78.210625 
L 164.429726 50.92 
Q 164.429726 48.92 162.429726 48.92 
L 90.417226 48.92 
Q 88.417226 48.92 88.417226 50.92 
L 88.417226 78.210625 
Q 88.417226 80.210625 90.417226 80.210625 
z
" style="fill: #ffffff; opacity: 0.8; stroke: #cccccc; stroke-linejoin: miter"/>
    </g>
    <g id="patch_16">
     <path d="M 92.417226 60.077812 
L 112.417226 60.077812 
L 112.417226 53.077812 
L 92.417226 53.077812 
z
" style="fill: #ff00ff"/>
    </g>
    <g id="text_14">
     <text style="font: 10px 'Arial', sans-serif; text-anchor: start" x="120.417226" y="60.077812" transform="rotate(-0 120.417226 60.077812)">Pref</text>
    </g>
    <g id="patch_17">
     <path d="M 92.417226 74.223125 
L 112.417226 74.223125 
L 112.417226 67.223125 
L 92.417226 67.223125 
z
" style="fill: #00ffff"/>
    </g>
    <g id="text_15">
     <text style="font: 10px 'Arial', sans-serif; text-anchor: start" x="120.417226" y="74.223125" transform="rotate(-0 120.417226 74.223125)">Non-Pref</text>
    </g>
   </g>
  </g>
  <g id="axes_2">
   <g id="patch_18">
    <path d="M 245.508841 210.24 
L 415.630793 210.24 
L 415.630793 43.92 
L 245.508841 43.92 
z
" style="fill: #ffffff"/>
   </g>
   <g id="PolyCollection_1">
    <defs>
     <path id="m33b4f203e7" d="M 253.241657 -157.554241 
L 253.241657 -117.968472 
L 258.074667 -121.743757 
L 262.907677 -118.493858 
L 267.740687 -129.313978 
L 272.573697 -137.053576 
L 277.406707 -125.206246 
L 282.239717 -124.589075 
L 287.072727 -124.588049 
L 291.905737 -127.319514 
L 296.738747 -119.469324 
L 301.571757 -128.454214 
L 306.404767 -135.876028 
L 311.237777 -129.642317 
L 316.070787 -123.480143 
L 320.903797 -124.615411 
L 325.736807 -125.820441 
L 330.569817 -121.680923 
L 335.402827 -130.84663 
L 340.235837 -141.066821 
L 345.068847 -145.216629 
L 349.901857 -144.070716 
L 354.734867 -145.244215 
L 359.567877 -144.864351 
L 364.400887 -141.779005 
L 369.233897 -146.600158 
L 374.066907 -149.5524 
L 378.899917 -154.038597 
L 383.732927 -151.464434 
L 388.565937 -144.382786 
L 393.398947 -139.434216 
L 398.231957 -145.343879 
L 403.064967 -159.765224 
L 407.897977 -174.185722 
L 407.897977 -205.214483 
L 407.897977 -205.214483 
L 403.064967 -182.610938 
L 398.231957 -163.896048 
L 393.398947 -154.988864 
L 388.565937 -155.999743 
L 383.732927 -168.228494 
L 378.899917 -161.726037 
L 374.066907 -157.788812 
L 369.233897 -161.276595 
L 364.400887 -151.953219 
L 359.567877 -160.587841 
L 354.734867 -170.18174 
L 349.901857 -158.128535 
L 345.068847 -154.595497 
L 340.235837 -156.93602 
L 335.402827 -156.991979 
L 330.569817 -150.848752 
L 325.736807 -144.138077 
L 320.903797 -140.233012 
L 316.070787 -144.033464 
L 311.237777 -150.401443 
L 306.404767 -149.882911 
L 301.571757 -143.192595 
L 296.738747 -139.781999 
L 291.905737 -137.601103 
L 287.072727 -136.228204 
L 282.239717 -135.544919 
L 277.406707 -138.518409 
L 272.573697 -143.0542 
L 267.740687 -145.586532 
L 262.907677 -145.399569 
L 258.074667 -154.283846 
L 253.241657 -157.554241 
z
" style="stroke: #00ffff; stroke-opacity: 0.1"/>
    </defs>
    <g clip-path="url(#pc363bb202c)">
     <use xlink:href="#m33b4f203e7" x="0" y="323.436915" style="fill: #00ffff; fill-opacity: 0.1; stroke: #00ffff; stroke-opacity: 0.1"/>
    </g>
   </g>
   <g id="matplotlib.axis_3">
    <g id="xtick_7">
     <g id="line2d_13">
      <g>
       <use xlink:href="#m3cbf9e5296" x="262.907677" y="210.24" style="stroke: #000000; stroke-width: 0.8"/>
      </g>
     </g>
     <g id="text_16">
      <text style="font: 10px 'Arial', sans-serif" transform="translate(231.941925 251.86503) rotate(-45)">Sampling</text>
     </g>
    </g>
    <g id="xtick_8">
     <g id="line2d_14">
      <g>
       <use xlink:href="#m3cbf9e5296" x="393.398947" y="210.24" style="stroke: #000000; stroke-width: 0.8"/>
      </g>
     </g>
     <g id="text_17">
      <text style="font: 10px 'Arial', sans-serif" transform="translate(312.608682 301.686227) rotate(-45)">Movement to Lateral Port</text>
     </g>
    </g>
    <g id="text_18">
     <text style="font: 10px 'Arial', sans-serif; text-anchor: middle" x="330.569817" y="314.249415" transform="rotate(-0 330.569817 314.249415)">Normalized Time</text>
    </g>
   </g>
   <g id="matplotlib.axis_4">
    <g id="ytick_6">
     <g id="line2d_15">
      <g>
       <use xlink:href="#m0b67ee3c12" x="245.508841" y="186.837123" style="stroke: #000000; stroke-width: 0.8"/>
      </g>
     </g>
     <g id="text_19">
      <text style="font: 10px 'Arial', sans-serif; text-anchor: end" x="238.508841" y="190.416029" transform="rotate(-0 238.508841 190.416029)">−0.5</text>
     </g>
    </g>
    <g id="ytick_7">
     <g id="line2d_16">
      <g>
       <use xlink:href="#m0b67ee3c12" x="245.508841" y="157.752864" style="stroke: #000000; stroke-width: 0.8"/>
      </g>
     </g>
     <g id="text_20">
      <text style="font: 10px 'Arial', sans-serif; text-anchor: end" x="238.508841" y="161.331771" transform="rotate(-0 238.508841 161.331771)">0.0</text>
     </g>
    </g>
    <g id="ytick_8">
     <g id="line2d_17">
      <g>
       <use xlink:href="#m0b67ee3c12" x="245.508841" y="128.668606" style="stroke: #000000; stroke-width: 0.8"/>
      </g>
     </g>
     <g id="text_21">
      <text style="font: 10px 'Arial', sans-serif; text-anchor: end" x="238.508841" y="132.247512" transform="rotate(-0 238.508841 132.247512)">0.5</text>
     </g>
    </g>
    <g id="ytick_9">
     <g id="line2d_18">
      <g>
       <use xlink:href="#m0b67ee3c12" x="245.508841" y="99.584347" style="stroke: #000000; stroke-width: 0.8"/>
      </g>
     </g>
     <g id="text_22">
      <text style="font: 10px 'Arial', sans-serif; text-anchor: end" x="238.508841" y="103.163254" transform="rotate(-0 238.508841 103.163254)">1.0</text>
     </g>
    </g>
    <g id="ytick_10">
     <g id="line2d_19">
      <g>
       <use xlink:href="#m0b67ee3c12" x="245.508841" y="70.500089" style="stroke: #000000; stroke-width: 0.8"/>
      </g>
     </g>
     <g id="text_23">
      <text style="font: 10px 'Arial', sans-serif; text-anchor: end" x="238.508841" y="74.078995" transform="rotate(-0 238.508841 74.078995)">1.5</text>
     </g>
    </g>
    <g id="text_24">
     <text style="font: 10px 'Arial', sans-serif; text-anchor: middle" x="212.663529" y="127.08" transform="rotate(-90 212.663529 127.08)">Mean Activity</text>
    </g>
   </g>
   <g id="line2d_20">
    <path d="M 253.241657 185.675558 
L 258.074667 185.423114 
L 262.907677 191.490201 
L 267.740687 185.986659 
L 272.573697 183.383026 
L 277.406707 191.574587 
L 282.239717 193.369917 
L 287.072727 193.028788 
L 291.905737 190.976607 
L 296.738747 193.811253 
L 301.571757 187.61351 
L 306.404767 180.557445 
L 311.237777 183.415035 
L 316.070787 189.680111 
L 320.903797 191.012703 
L 325.736807 188.457655 
L 330.569817 187.172077 
L 335.402827 179.51761 
L 340.235837 174.435494 
L 345.068847 173.530851 
L 349.901857 172.337289 
L 354.734867 165.723937 
L 359.567877 170.710818 
L 364.400887 176.570803 
L 369.233897 169.498538 
L 374.066907 169.766309 
L 378.899917 165.554598 
L 383.732927 163.590451 
L 388.565937 173.24565 
L 393.398947 176.225374 
L 398.231957 168.816951 
L 403.064967 152.248833 
L 407.897977 133.736812 
" clip-path="url(#pc363bb202c)" style="fill: none; stroke: #00ffff; stroke-width: 1.5; stroke-linecap: square"/>
   </g>
   <g id="line2d_21">
    <path d="M 262.907677 210.24 
L 262.907677 43.92 
" clip-path="url(#pc363bb202c)" style="fill: none; stroke-dasharray: 5.55,2.4; stroke-dashoffset: 0; stroke: #808080; stroke-opacity: 0.7; stroke-width: 1.5"/>
   </g>
   <g id="line2d_22">
    <path d="M 393.398947 210.24 
L 393.398947 43.92 
" clip-path="url(#pc363bb202c)" style="fill: none; stroke-dasharray: 5.55,2.4; stroke-dashoffset: 0; stroke: #808080; stroke-opacity: 0.7; stroke-width: 1.5"/>
   </g>
   <g id="text_25">
    <text style="font: 12px 'Arial', sans-serif; text-anchor: middle" x="330.569817" y="37.92" transform="rotate(-0 330.569817 37.92)">3 Incorrect Trials</text>
   </g>
   <g id="legend_2">
    <g id="patch_19">
     <path d="M 273.307169 207.345 
L 387.832465 207.345 
Q 388.990465 207.345 388.990465 206.187 
L 388.990465 198.575864 
Q 388.990465 197.417864 387.832465 197.417864 
L 273.307169 197.417864 
Q 272.149169 197.417864 272.149169 198.575864 
L 272.149169 206.187 
Q 272.149169 207.345 273.307169 207.345 
z
" style="fill: #ffffff; opacity: 0.8; stroke: #cccccc; stroke-linejoin: miter"/>
    </g>
    <g id="line2d_23">
     <path d="M 274.465169 201.851738 
L 280.255169 201.851738 
L 286.045169 201.851738 
" style="fill: none; stroke: #00ffff; stroke-width: 1.5; stroke-linecap: square"/>
    </g>
    <g id="text_26">
     <text style="font: 5.79px 'Arial', sans-serif; text-anchor: start" x="290.677169" y="203.878238" transform="rotate(-0 290.677169 203.878238)">NonPref - PrevCount=-3 - #Trials=3.0</text>
    </g>
   </g>
  </g>
  <g id="axes_3">
   <g id="patch_20">
    <path d="M 449.655183 210.24 
L 619.777134 210.24 
L 619.777134 43.92 
L 449.655183 43.92 
z
" style="fill: #ffffff"/>
   </g>
   <g id="PolyCollection_2">
    <defs>
     <path id="m9c71bd2464" d="M 457.387999 -137.831553 
L 457.387999 -127.651157 
L 462.221009 -124.146127 
L 467.054019 -126.37778 
L 471.887029 -130.529666 
L 476.720039 -128.728098 
L 481.553049 -132.709933 
L 486.386059 -131.666456 
L 491.219069 -129.151953 
L 496.052079 -130.545722 
L 500.885089 -129.154453 
L 505.718099 -132.48559 
L 510.551109 -138.220019 
L 515.384119 -137.530606 
L 520.217129 -136.237742 
L 525.050139 -134.785656 
L 529.883149 -132.840647 
L 534.716159 -137.359615 
L 539.549169 -142.360242 
L 544.382178 -137.585125 
L 549.215188 -133.593617 
L 554.048198 -132.417031 
L 558.881208 -133.338853 
L 563.714218 -135.333879 
L 568.547228 -135.261791 
L 573.380238 -131.823212 
L 578.213248 -131.580576 
L 583.046258 -131.479475 
L 587.879268 -134.787968 
L 592.712278 -139.548655 
L 597.545288 -141.077004 
L 602.378298 -143.014561 
L 607.211308 -148.902578 
L 612.044318 -152.455195 
L 612.044318 -176.287135 
L 612.044318 -176.287135 
L 607.211308 -170.163281 
L 602.378298 -163.310007 
L 597.545288 -159.549891 
L 592.712278 -156.282592 
L 587.879268 -150.438298 
L 583.046258 -149.468269 
L 578.213248 -152.225885 
L 573.380238 -150.612536 
L 568.547228 -149.365368 
L 563.714218 -148.593585 
L 558.881208 -147.952095 
L 554.048198 -146.288761 
L 549.215188 -146.44273 
L 544.382178 -150.873903 
L 539.549169 -157.126849 
L 534.716159 -153.285341 
L 529.883149 -146.404939 
L 525.050139 -146.362936 
L 520.217129 -148.274457 
L 515.384119 -149.379284 
L 510.551109 -149.759111 
L 505.718099 -143.990212 
L 500.885089 -139.218546 
L 496.052079 -138.831632 
L 491.219069 -136.811709 
L 486.386059 -138.432267 
L 481.553049 -139.067468 
L 476.720039 -135.602678 
L 471.887029 -136.604965 
L 467.054019 -135.182522 
L 462.221009 -134.58137 
L 457.387999 -137.831553 
z
" style="stroke: #00ffff; stroke-opacity: 0.1"/>
    </defs>
    <g clip-path="url(#p9f7d38a39f)">
     <use xlink:href="#m9c71bd2464" x="0" y="323.436915" style="fill: #00ffff; fill-opacity: 0.1; stroke: #00ffff; stroke-opacity: 0.1"/>
    </g>
   </g>
   <g id="matplotlib.axis_5">
    <g id="xtick_9">
     <g id="line2d_24">
      <g>
       <use xlink:href="#m3cbf9e5296" x="467.054019" y="210.24" style="stroke: #000000; stroke-width: 0.8"/>
      </g>
     </g>
     <g id="text_27">
      <text style="font: 10px 'Arial', sans-serif" transform="translate(436.088266 251.86503) rotate(-45)">Sampling</text>
     </g>
    </g>
    <g id="xtick_10">
     <g id="line2d_25">
      <g>
       <use xlink:href="#m3cbf9e5296" x="597.545288" y="210.24" style="stroke: #000000; stroke-width: 0.8"/>
      </g>
     </g>
     <g id="text_28">
      <text style="font: 10px 'Arial', sans-serif" transform="translate(516.755024 301.686227) rotate(-45)">Movement to Lateral Port</text>
     </g>
    </g>
    <g id="text_29">
     <text style="font: 10px 'Arial', sans-serif; text-anchor: middle" x="534.716159" y="314.249415" transform="rotate(-0 534.716159 314.249415)">Normalized Time</text>
    </g>
   </g>
   <g id="matplotlib.axis_6">
    <g id="ytick_11">
     <g id="line2d_26">
      <g>
       <use xlink:href="#m0b67ee3c12" x="449.655183" y="186.837123" style="stroke: #000000; stroke-width: 0.8"/>
      </g>
     </g>
     <g id="text_30">
      <text style="font: 10px 'Arial', sans-serif; text-anchor: end" x="442.655183" y="190.416029" transform="rotate(-0 442.655183 190.416029)">−0.5</text>
     </g>
    </g>
    <g id="ytick_12">
     <g id="line2d_27">
      <g>
       <use xlink:href="#m0b67ee3c12" x="449.655183" y="157.752864" style="stroke: #000000; stroke-width: 0.8"/>
      </g>
     </g>
     <g id="text_31">
      <text style="font: 10px 'Arial', sans-serif; text-anchor: end" x="442.655183" y="161.331771" transform="rotate(-0 442.655183 161.331771)">0.0</text>
     </g>
    </g>
    <g id="ytick_13">
     <g id="line2d_28">
      <g>
       <use xlink:href="#m0b67ee3c12" x="449.655183" y="128.668606" style="stroke: #000000; stroke-width: 0.8"/>
      </g>
     </g>
     <g id="text_32">
      <text style="font: 10px 'Arial', sans-serif; text-anchor: end" x="442.655183" y="132.247512" transform="rotate(-0 442.655183 132.247512)">0.5</text>
     </g>
    </g>
    <g id="ytick_14">
     <g id="line2d_29">
      <g>
       <use xlink:href="#m0b67ee3c12" x="449.655183" y="99.584347" style="stroke: #000000; stroke-width: 0.8"/>
      </g>
     </g>
     <g id="text_33">
      <text style="font: 10px 'Arial', sans-serif; text-anchor: end" x="442.655183" y="103.163254" transform="rotate(-0 442.655183 103.163254)">1.0</text>
     </g>
    </g>
    <g id="ytick_15">
     <g id="line2d_30">
      <g>
       <use xlink:href="#m0b67ee3c12" x="449.655183" y="70.500089" style="stroke: #000000; stroke-width: 0.8"/>
      </g>
     </g>
     <g id="text_34">
      <text style="font: 10px 'Arial', sans-serif; text-anchor: end" x="442.655183" y="74.078995" transform="rotate(-0 442.655183 74.078995)">1.5</text>
     </g>
    </g>
    <g id="text_35">
     <text style="font: 10px 'Arial', sans-serif; text-anchor: middle" x="416.80987" y="127.08" transform="rotate(-90 416.80987 127.08)">Mean Activity</text>
    </g>
   </g>
   <g id="line2d_31">
    <path d="M 457.387999 190.695559 
L 462.221009 194.073166 
L 467.054019 192.656763 
L 471.887029 189.869599 
L 476.720039 191.271527 
L 481.553049 187.548214 
L 486.386059 188.387554 
L 491.219069 190.455084 
L 496.052079 188.748237 
L 500.885089 189.250414 
L 505.718099 185.199014 
L 510.551109 179.447349 
L 515.384119 179.98197 
L 520.217129 181.180814 
L 525.050139 182.862618 
L 529.883149 183.814122 
L 534.716159 178.114437 
L 539.549169 173.693369 
L 544.382178 179.207401 
L 549.215188 183.418741 
L 554.048198 184.084019 
L 558.881208 182.79144 
L 563.714218 181.473182 
L 568.547228 181.123335 
L 573.380238 182.219042 
L 578.213248 181.533685 
L 583.046258 182.963043 
L 587.879268 180.823781 
L 592.712278 175.52129 
L 597.545288 173.123467 
L 602.378298 170.274631 
L 607.211308 163.903985 
L 612.044318 159.065749 
" clip-path="url(#p9f7d38a39f)" style="fill: none; stroke: #00ffff; stroke-width: 1.5; stroke-linecap: square"/>
   </g>
   <g id="line2d_32">
    <path d="M 467.054019 210.24 
L 467.054019 43.92 
" clip-path="url(#p9f7d38a39f)" style="fill: none; stroke-dasharray: 5.55,2.4; stroke-dashoffset: 0; stroke: #808080; stroke-opacity: 0.7; stroke-width: 1.5"/>
   </g>
   <g id="line2d_33">
    <path d="M 597.545288 210.24 
L 597.545288 43.92 
" clip-path="url(#p9f7d38a39f)" style="fill: none; stroke-dasharray: 5.55,2.4; stroke-dashoffset: 0; stroke: #808080; stroke-opacity: 0.7; stroke-width: 1.5"/>
   </g>
   <g id="text_36">
    <text style="font: 12px 'Arial', sans-serif; text-anchor: middle" x="534.716159" y="37.92" transform="rotate(-0 534.716159 37.92)">2 Incorrect Trials</text>
   </g>
   <g id="legend_3">
    <g id="patch_21">
     <path d="M 475.843619 207.345 
L 593.588698 207.345 
Q 594.746698 207.345 594.746698 206.187 
L 594.746698 198.575864 
Q 594.746698 197.417864 593.588698 197.417864 
L 475.843619 197.417864 
Q 474.685619 197.417864 474.685619 198.575864 
L 474.685619 206.187 
Q 474.685619 207.345 475.843619 207.345 
z
" style="fill: #ffffff; opacity: 0.8; stroke: #cccccc; stroke-linejoin: miter"/>
    </g>
    <g id="line2d_34">
     <path d="M 477.001619 201.851738 
L 482.791619 201.851738 
L 488.581619 201.851738 
" style="fill: none; stroke: #00ffff; stroke-width: 1.5; stroke-linecap: square"/>
    </g>
    <g id="text_37">
     <text style="font: 5.79px 'Arial', sans-serif; text-anchor: start" x="493.213619" y="203.878238" transform="rotate(-0 493.213619 203.878238)">NonPref - PrevCount=-2 - #Trials=16.0</text>
    </g>
   </g>
  </g>
  <g id="axes_4">
   <g id="patch_22">
    <path d="M 653.801524 210.24 
L 823.923476 210.24 
L 823.923476 43.92 
L 653.801524 43.92 
z
" style="fill: #ffffff"/>
   </g>
   <g id="PolyCollection_3">
    <defs>
     <path id="m6962f1f2d1" d="M 661.53434 -145.941077 
L 661.53434 -138.743595 
L 666.36735 -138.35205 
L 671.20036 -136.621149 
L 676.03337 -136.708826 
L 680.86638 -137.93307 
L 685.69939 -136.298125 
L 690.5324 -134.657369 
L 695.36541 -137.79651 
L 700.19842 -140.668042 
L 705.03143 -142.632008 
L 709.86444 -142.656729 
L 714.69745 -143.282199 
L 719.53046 -142.56718 
L 724.36347 -144.330748 
L 729.19648 -143.665316 
L 734.02949 -142.156027 
L 738.8625 -147.124035 
L 743.69551 -148.899451 
L 748.52852 -146.566454 
L 753.36153 -144.550061 
L 758.19454 -145.967689 
L 763.02755 -146.586468 
L 767.86056 -147.393253 
L 772.69357 -147.594974 
L 777.52658 -149.073278 
L 782.35959 -151.945331 
L 787.1926 -150.71315 
L 792.02561 -150.575027 
L 796.85862 -147.994692 
L 801.69163 -152.26252 
L 806.52464 -158.911571 
L 811.35765 -163.852937 
L 816.19066 -168.523115 
L 816.19066 -185.000565 
L 816.19066 -185.000565 
L 811.35765 -179.337153 
L 806.52464 -173.929405 
L 801.69163 -166.500879 
L 796.85862 -162.294114 
L 792.02561 -164.639784 
L 787.1926 -164.308238 
L 782.35959 -164.540192 
L 777.52658 -161.597488 
L 772.69357 -159.420239 
L 767.86056 -160.00442 
L 763.02755 -158.45683 
L 758.19454 -157.662622 
L 753.36153 -156.513164 
L 748.52852 -158.277579 
L 743.69551 -159.046807 
L 738.8625 -156.284655 
L 734.02949 -151.825769 
L 729.19648 -153.430927 
L 724.36347 -154.112347 
L 719.53046 -152.895511 
L 714.69745 -152.952424 
L 709.86444 -152.376231 
L 705.03143 -151.99774 
L 700.19842 -149.627526 
L 695.36541 -145.787219 
L 690.5324 -142.571354 
L 685.69939 -144.109494 
L 680.86638 -145.345042 
L 676.03337 -144.285974 
L 671.20036 -144.8398 
L 666.36735 -146.154519 
L 661.53434 -145.941077 
z
" style="stroke: #00ffff; stroke-opacity: 0.1"/>
    </defs>
    <g clip-path="url(#p955a3a8ae1)">
     <use xlink:href="#m6962f1f2d1" x="0" y="323.436915" style="fill: #00ffff; fill-opacity: 0.1; stroke: #00ffff; stroke-opacity: 0.1"/>
    </g>
   </g>
   <g id="matplotlib.axis_7">
    <g id="xtick_11">
     <g id="line2d_35">
      <g>
       <use xlink:href="#m3cbf9e5296" x="671.20036" y="210.24" style="stroke: #000000; stroke-width: 0.8"/>
      </g>
     </g>
     <g id="text_38">
      <text style="font: 10px 'Arial', sans-serif" transform="translate(640.234608 251.86503) rotate(-45)">Sampling</text>
     </g>
    </g>
    <g id="xtick_12">
     <g id="line2d_36">
      <g>
       <use xlink:href="#m3cbf9e5296" x="801.69163" y="210.24" style="stroke: #000000; stroke-width: 0.8"/>
      </g>
     </g>
     <g id="text_39">
      <text style="font: 10px 'Arial', sans-serif" transform="translate(720.901365 301.686227) rotate(-45)">Movement to Lateral Port</text>
     </g>
    </g>
    <g id="text_40">
     <text style="font: 10px 'Arial', sans-serif; text-anchor: middle" x="738.8625" y="314.249415" transform="rotate(-0 738.8625 314.249415)">Normalized Time</text>
    </g>
   </g>
   <g id="matplotlib.axis_8">
    <g id="ytick_16">
     <g id="line2d_37">
      <g>
       <use xlink:href="#m0b67ee3c12" x="653.801524" y="186.837123" style="stroke: #000000; stroke-width: 0.8"/>
      </g>
     </g>
     <g id="text_41">
      <text style="font: 10px 'Arial', sans-serif; text-anchor: end" x="646.801524" y="190.416029" transform="rotate(-0 646.801524 190.416029)">−0.5</text>
     </g>
    </g>
    <g id="ytick_17">
     <g id="line2d_38">
      <g>
       <use xlink:href="#m0b67ee3c12" x="653.801524" y="157.752864" style="stroke: #000000; stroke-width: 0.8"/>
      </g>
     </g>
     <g id="text_42">
      <text style="font: 10px 'Arial', sans-serif; text-anchor: end" x="646.801524" y="161.331771" transform="rotate(-0 646.801524 161.331771)">0.0</text>
     </g>
    </g>
    <g id="ytick_18">
     <g id="line2d_39">
      <g>
       <use xlink:href="#m0b67ee3c12" x="653.801524" y="128.668606" style="stroke: #000000; stroke-width: 0.8"/>
      </g>
     </g>
     <g id="text_43">
      <text style="font: 10px 'Arial', sans-serif; text-anchor: end" x="646.801524" y="132.247512" transform="rotate(-0 646.801524 132.247512)">0.5</text>
     </g>
    </g>
    <g id="ytick_19">
     <g id="line2d_40">
      <g>
       <use xlink:href="#m0b67ee3c12" x="653.801524" y="99.584347" style="stroke: #000000; stroke-width: 0.8"/>
      </g>
     </g>
     <g id="text_44">
      <text style="font: 10px 'Arial', sans-serif; text-anchor: end" x="646.801524" y="103.163254" transform="rotate(-0 646.801524 103.163254)">1.0</text>
     </g>
    </g>
    <g id="ytick_20">
     <g id="line2d_41">
      <g>
       <use xlink:href="#m0b67ee3c12" x="653.801524" y="70.500089" style="stroke: #000000; stroke-width: 0.8"/>
      </g>
     </g>
     <g id="text_45">
      <text style="font: 10px 'Arial', sans-serif; text-anchor: end" x="646.801524" y="74.078995" transform="rotate(-0 646.801524 74.078995)">1.5</text>
     </g>
    </g>
    <g id="text_46">
     <text style="font: 10px 'Arial', sans-serif; text-anchor: middle" x="620.956212" y="127.08" transform="rotate(-90 620.956212 127.08)">Mean Activity</text>
    </g>
   </g>
   <g id="line2d_42">
    <path d="M 661.53434 181.094579 
L 666.36735 181.18363 
L 671.20036 182.70644 
L 676.03337 182.939515 
L 680.86638 181.797858 
L 685.69939 183.233105 
L 690.5324 184.822553 
L 695.36541 181.64505 
L 700.19842 178.289131 
L 705.03143 176.122041 
L 709.86444 175.920435 
L 714.69745 175.319603 
L 719.53046 175.705569 
L 724.36347 174.215367 
L 729.19648 174.888793 
L 734.02949 176.446016 
L 738.8625 171.73257 
L 743.69551 169.463786 
L 748.52852 171.014898 
L 753.36153 172.905303 
L 758.19454 171.621759 
L 763.02755 170.915265 
L 767.86056 169.738078 
L 772.69357 169.929308 
L 777.52658 168.101532 
L 782.35959 165.194153 
L 787.1926 165.92622 
L 792.02561 165.829508 
L 796.85862 168.292511 
L 801.69163 164.055215 
L 806.52464 157.016426 
L 811.35765 151.84187 
L 816.19066 146.675074 
" clip-path="url(#p955a3a8ae1)" style="fill: none; stroke: #00ffff; stroke-width: 1.5; stroke-linecap: square"/>
   </g>
   <g id="line2d_43">
    <path d="M 671.20036 210.24 
L 671.20036 43.92 
" clip-path="url(#p955a3a8ae1)" style="fill: none; stroke-dasharray: 5.55,2.4; stroke-dashoffset: 0; stroke: #808080; stroke-opacity: 0.7; stroke-width: 1.5"/>
   </g>
   <g id="line2d_44">
    <path d="M 801.69163 210.24 
L 801.69163 43.92 
" clip-path="url(#p955a3a8ae1)" style="fill: none; stroke-dasharray: 5.55,2.4; stroke-dashoffset: 0; stroke: #808080; stroke-opacity: 0.7; stroke-width: 1.5"/>
   </g>
   <g id="text_47">
    <text style="font: 12px 'Arial', sans-serif; text-anchor: middle" x="738.8625" y="37.92" transform="rotate(-0 738.8625 37.92)">1 Incorrect Trials</text>
   </g>
   <g id="legend_4">
    <g id="patch_23">
     <path d="M 679.989961 207.345 
L 797.735039 207.345 
Q 798.893039 207.345 798.893039 206.187 
L 798.893039 198.575864 
Q 798.893039 197.417864 797.735039 197.417864 
L 679.989961 197.417864 
Q 678.831961 197.417864 678.831961 198.575864 
L 678.831961 206.187 
Q 678.831961 207.345 679.989961 207.345 
z
" style="fill: #ffffff; opacity: 0.8; stroke: #cccccc; stroke-linejoin: miter"/>
    </g>
    <g id="line2d_45">
     <path d="M 681.147961 201.851738 
L 686.937961 201.851738 
L 692.727961 201.851738 
" style="fill: none; stroke: #00ffff; stroke-width: 1.5; stroke-linecap: square"/>
    </g>
    <g id="text_48">
     <text style="font: 5.79px 'Arial', sans-serif; text-anchor: start" x="697.359961" y="203.878238" transform="rotate(-0 697.359961 203.878238)">NonPref - PrevCount=-1 - #Trials=40.0</text>
    </g>
   </g>
  </g>
  <g id="axes_5">
   <g id="patch_24">
    <path d="M 857.947866 210.24 
L 1028.069817 210.24 
L 1028.069817 43.92 
L 857.947866 43.92 
z
" style="fill: #ffffff"/>
   </g>
   <g id="PolyCollection_4">
    <defs>
     <path id="m4425672931" d="M 865.680682 -140.883848 
L 865.680682 -136.934719 
L 870.513692 -138.076897 
L 875.346702 -138.05231 
L 880.179712 -136.521012 
L 885.012722 -134.747008 
L 889.845732 -134.589989 
L 894.678742 -136.840429 
L 899.511752 -140.282624 
L 904.344762 -142.93717 
L 909.177772 -143.981222 
L 914.010782 -148.574998 
L 918.843792 -153.671952 
L 923.676802 -156.78582 
L 928.509812 -161.323281 
L 933.342822 -165.229344 
L 938.175831 -168.627277 
L 943.008841 -170.960612 
L 947.841851 -174.522533 
L 952.674861 -178.22742 
L 957.507871 -180.872013 
L 962.340881 -182.74047 
L 967.173891 -185.083979 
L 972.006901 -184.031951 
L 976.839911 -186.396751 
L 981.672921 -188.771145 
L 986.505931 -190.02097 
L 991.338941 -190.269207 
L 996.171951 -187.996027 
L 1001.004961 -190.116829 
L 1005.837971 -192.165628 
L 1010.670981 -200.925833 
L 1015.503991 -212.702086 
L 1020.337001 -221.529147 
L 1020.337001 -246.635083 
L 1020.337001 -246.635083 
L 1015.503991 -235.851104 
L 1010.670981 -222.280793 
L 1005.837971 -213.202356 
L 1001.004961 -211.923421 
L 996.171951 -210.215157 
L 991.338941 -213.356567 
L 986.505931 -213.507504 
L 981.672921 -213.170757 
L 976.839911 -209.955304 
L 972.006901 -206.433368 
L 967.173891 -207.786877 
L 962.340881 -204.111445 
L 957.507871 -202.37673 
L 952.674861 -199.623963 
L 947.841851 -194.842373 
L 943.008841 -191.027733 
L 938.175831 -189.137411 
L 933.342822 -184.860705 
L 928.509812 -178.713544 
L 923.676802 -171.90212 
L 918.843792 -167.309772 
L 914.010782 -159.946515 
L 909.177772 -153.145622 
L 904.344762 -149.562457 
L 899.511752 -145.675293 
L 894.678742 -141.926026 
L 889.845732 -139.622806 
L 885.012722 -140.108939 
L 880.179712 -141.292574 
L 875.346702 -142.808053 
L 870.513692 -142.54334 
L 865.680682 -140.883848 
z
" style="stroke: #ff00ff; stroke-opacity: 0.1"/>
    </defs>
    <g clip-path="url(#p8cfde56611)">
     <use xlink:href="#m4425672931" x="0" y="323.436915" style="fill: #ff00ff; fill-opacity: 0.1; stroke: #ff00ff; stroke-opacity: 0.1"/>
    </g>
   </g>
   <g id="matplotlib.axis_9">
    <g id="xtick_13">
     <g id="line2d_46">
      <g>
       <use xlink:href="#m3cbf9e5296" x="875.346702" y="210.24" style="stroke: #000000; stroke-width: 0.8"/>
      </g>
     </g>
     <g id="text_49">
      <text style="font: 10px 'Arial', sans-serif" transform="translate(844.380949 251.86503) rotate(-45)">Sampling</text>
     </g>
    </g>
    <g id="xtick_14">
     <g id="line2d_47">
      <g>
       <use xlink:href="#m3cbf9e5296" x="1005.837971" y="210.24" style="stroke: #000000; stroke-width: 0.8"/>
      </g>
     </g>
     <g id="text_50">
      <text style="font: 10px 'Arial', sans-serif" transform="translate(925.047707 301.686227) rotate(-45)">Movement to Lateral Port</text>
     </g>
    </g>
    <g id="text_51">
     <text style="font: 10px 'Arial', sans-serif; text-anchor: middle" x="943.008841" y="314.249415" transform="rotate(-0 943.008841 314.249415)">Normalized Time</text>
    </g>
   </g>
   <g id="matplotlib.axis_10">
    <g id="ytick_21">
     <g id="line2d_48">
      <g>
       <use xlink:href="#m0b67ee3c12" x="857.947866" y="186.837123" style="stroke: #000000; stroke-width: 0.8"/>
      </g>
     </g>
     <g id="text_52">
      <text style="font: 10px 'Arial', sans-serif; text-anchor: end" x="850.947866" y="190.416029" transform="rotate(-0 850.947866 190.416029)">−0.5</text>
     </g>
    </g>
    <g id="ytick_22">
     <g id="line2d_49">
      <g>
       <use xlink:href="#m0b67ee3c12" x="857.947866" y="157.752864" style="stroke: #000000; stroke-width: 0.8"/>
      </g>
     </g>
     <g id="text_53">
      <text style="font: 10px 'Arial', sans-serif; text-anchor: end" x="850.947866" y="161.331771" transform="rotate(-0 850.947866 161.331771)">0.0</text>
     </g>
    </g>
    <g id="ytick_23">
     <g id="line2d_50">
      <g>
       <use xlink:href="#m0b67ee3c12" x="857.947866" y="128.668606" style="stroke: #000000; stroke-width: 0.8"/>
      </g>
     </g>
     <g id="text_54">
      <text style="font: 10px 'Arial', sans-serif; text-anchor: end" x="850.947866" y="132.247512" transform="rotate(-0 850.947866 132.247512)">0.5</text>
     </g>
    </g>
    <g id="ytick_24">
     <g id="line2d_51">
      <g>
       <use xlink:href="#m0b67ee3c12" x="857.947866" y="99.584347" style="stroke: #000000; stroke-width: 0.8"/>
      </g>
     </g>
     <g id="text_55">
      <text style="font: 10px 'Arial', sans-serif; text-anchor: end" x="850.947866" y="103.163254" transform="rotate(-0 850.947866 103.163254)">1.0</text>
     </g>
    </g>
    <g id="ytick_25">
     <g id="line2d_52">
      <g>
       <use xlink:href="#m0b67ee3c12" x="857.947866" y="70.500089" style="stroke: #000000; stroke-width: 0.8"/>
      </g>
     </g>
     <g id="text_56">
      <text style="font: 10px 'Arial', sans-serif; text-anchor: end" x="850.947866" y="74.078995" transform="rotate(-0 850.947866 74.078995)">1.5</text>
     </g>
    </g>
    <g id="text_57">
     <text style="font: 10px 'Arial', sans-serif; text-anchor: middle" x="825.102553" y="127.08" transform="rotate(-90 825.102553 127.08)">Mean Activity</text>
    </g>
   </g>
   <g id="line2d_53">
    <path d="M 865.680682 184.527631 
L 870.513692 183.126796 
L 875.346702 183.006733 
L 880.179712 184.530121 
L 885.012722 186.008942 
L 889.845732 186.330517 
L 894.678742 184.053687 
L 899.511752 180.457956 
L 904.344762 177.187101 
L 909.177772 174.873493 
L 914.010782 169.176158 
L 918.843792 162.946053 
L 923.676802 159.092945 
L 928.509812 153.418502 
L 933.342822 148.39189 
L 938.175831 144.554571 
L 943.008841 142.442742 
L 947.841851 138.754462 
L 952.674861 134.511223 
L 957.507871 131.812543 
L 962.340881 130.010958 
L 967.173891 127.001486 
L 972.006901 128.204255 
L 976.839911 125.260887 
L 981.672921 122.465964 
L 986.505931 121.672678 
L 991.338941 121.624027 
L 996.171951 124.331323 
L 1001.004961 122.41679 
L 1005.837971 120.752922 
L 1010.670981 111.833602 
L 1015.503991 99.160319 
L 1020.337001 89.354802 
" clip-path="url(#p8cfde56611)" style="fill: none; stroke: #ff00ff; stroke-width: 1.5; stroke-linecap: square"/>
   </g>
   <g id="line2d_54">
    <path d="M 875.346702 210.24 
L 875.346702 43.92 
" clip-path="url(#p8cfde56611)" style="fill: none; stroke-dasharray: 5.55,2.4; stroke-dashoffset: 0; stroke: #808080; stroke-opacity: 0.7; stroke-width: 1.5"/>
   </g>
   <g id="line2d_55">
    <path d="M 1005.837971 210.24 
L 1005.837971 43.92 
" clip-path="url(#p8cfde56611)" style="fill: none; stroke-dasharray: 5.55,2.4; stroke-dashoffset: 0; stroke: #808080; stroke-opacity: 0.7; stroke-width: 1.5"/>
   </g>
   <g id="text_58">
    <text style="font: 12px 'Arial', sans-serif; text-anchor: middle" x="943.008841" y="37.92" transform="rotate(-0 943.008841 37.92)">1 Correct Trials</text>
   </g>
   <g id="legend_5">
    <g id="patch_25">
     <path d="M 890.410763 207.345 
L 995.60692 207.345 
Q 996.76492 207.345 996.76492 206.187 
L 996.76492 198.575864 
Q 996.76492 197.417864 995.60692 197.417864 
L 890.410763 197.417864 
Q 889.252763 197.417864 889.252763 198.575864 
L 889.252763 206.187 
Q 889.252763 207.345 890.410763 207.345 
z
" style="fill: #ffffff; opacity: 0.8; stroke: #cccccc; stroke-linejoin: miter"/>
    </g>
    <g id="line2d_56">
     <path d="M 891.568763 201.851738 
L 897.358763 201.851738 
L 903.148763 201.851738 
" style="fill: none; stroke: #ff00ff; stroke-width: 1.5; stroke-linecap: square"/>
    </g>
    <g id="text_59">
     <text style="font: 5.79px 'Arial', sans-serif; text-anchor: start" x="907.780763" y="203.878238" transform="rotate(-0 907.780763 203.878238)">Pref - PrevCount=1 - #Trials=41.0</text>
    </g>
   </g>
  </g>
  <g id="axes_6">
   <g id="patch_26">
    <path d="M 1062.094207 210.24 
L 1232.216159 210.24 
L 1232.216159 43.92 
L 1062.094207 43.92 
z
" style="fill: #ffffff"/>
   </g>
   <g id="PolyCollection_5">
    <defs>
     <path id="m0df1ac398e" d="M 1069.827023 -146.834859 
L 1069.827023 -137.944725 
L 1074.660033 -137.536403 
L 1079.493043 -136.710828 
L 1084.326053 -137.598839 
L 1089.159063 -139.036408 
L 1093.992073 -139.999352 
L 1098.825083 -142.142129 
L 1103.658093 -146.374022 
L 1108.491103 -150.510854 
L 1113.324113 -155.685411 
L 1118.157123 -160.677234 
L 1122.990133 -166.906536 
L 1127.823143 -172.13437 
L 1132.656153 -175.71603 
L 1137.489163 -179.679915 
L 1142.322173 -184.81229 
L 1147.155183 -189.948537 
L 1151.988193 -192.643088 
L 1156.821203 -193.870089 
L 1161.654213 -196.253905 
L 1166.487223 -200.265102 
L 1171.320233 -203.461164 
L 1176.153243 -205.464712 
L 1180.986253 -205.088447 
L 1185.819263 -205.40359 
L 1190.652273 -207.048503 
L 1195.485283 -208.500194 
L 1200.318293 -208.593647 
L 1205.151303 -207.561473 
L 1209.984313 -207.572544 
L 1214.817323 -219.162054 
L 1219.650333 -233.24296 
L 1224.483343 -242.28242 
L 1224.483343 -268.299489 
L 1224.483343 -268.299489 
L 1219.650333 -258.030716 
L 1214.817323 -242.575585 
L 1209.984313 -229.827021 
L 1205.151303 -229.827347 
L 1200.318293 -231.043507 
L 1195.485283 -230.158776 
L 1190.652273 -227.647164 
L 1185.819263 -226.420984 
L 1180.986253 -226.4378 
L 1176.153243 -227.122263 
L 1171.320233 -225.869061 
L 1166.487223 -223.281398 
L 1161.654213 -218.608447 
L 1156.821203 -213.862058 
L 1151.988193 -212.516131 
L 1147.155183 -210.605842 
L 1142.322173 -205.971469 
L 1137.489163 -200.332922 
L 1132.656153 -195.670056 
L 1127.823143 -193.45128 
L 1122.990133 -186.480187 
L 1118.157123 -177.728839 
L 1113.324113 -172.352622 
L 1108.491103 -165.47847 
L 1103.658093 -159.258048 
L 1098.825083 -152.455721 
L 1093.992073 -148.268495 
L 1089.159063 -145.608791 
L 1084.326053 -144.27114 
L 1079.493043 -144.125428 
L 1074.660033 -146.118921 
L 1069.827023 -146.834859 
z
" style="stroke: #ff00ff; stroke-opacity: 0.1"/>
    </defs>
    <g clip-path="url(#p1e6dedbb77)">
     <use xlink:href="#m0df1ac398e" x="0" y="323.436915" style="fill: #ff00ff; fill-opacity: 0.1; stroke: #ff00ff; stroke-opacity: 0.1"/>
    </g>
   </g>
   <g id="matplotlib.axis_11">
    <g id="xtick_15">
     <g id="line2d_57">
      <g>
       <use xlink:href="#m3cbf9e5296" x="1079.493043" y="210.24" style="stroke: #000000; stroke-width: 0.8"/>
      </g>
     </g>
     <g id="text_60">
      <text style="font: 10px 'Arial', sans-serif" transform="translate(1048.52729 251.86503) rotate(-45)">Sampling</text>
     </g>
    </g>
    <g id="xtick_16">
     <g id="line2d_58">
      <g>
       <use xlink:href="#m3cbf9e5296" x="1209.984313" y="210.24" style="stroke: #000000; stroke-width: 0.8"/>
      </g>
     </g>
     <g id="text_61">
      <text style="font: 10px 'Arial', sans-serif" transform="translate(1129.194048 301.686227) rotate(-45)">Movement to Lateral Port</text>
     </g>
    </g>
    <g id="text_62">
     <text style="font: 10px 'Arial', sans-serif; text-anchor: middle" x="1147.155183" y="314.249415" transform="rotate(-0 1147.155183 314.249415)">Normalized Time</text>
    </g>
   </g>
   <g id="matplotlib.axis_12">
    <g id="ytick_26">
     <g id="line2d_59">
      <g>
       <use xlink:href="#m0b67ee3c12" x="1062.094207" y="186.837123" style="stroke: #000000; stroke-width: 0.8"/>
      </g>
     </g>
     <g id="text_63">
      <text style="font: 10px 'Arial', sans-serif; text-anchor: end" x="1055.094207" y="190.416029" transform="rotate(-0 1055.094207 190.416029)">−0.5</text>
     </g>
    </g>
    <g id="ytick_27">
     <g id="line2d_60">
      <g>
       <use xlink:href="#m0b67ee3c12" x="1062.094207" y="157.752864" style="stroke: #000000; stroke-width: 0.8"/>
      </g>
     </g>
     <g id="text_64">
      <text style="font: 10px 'Arial', sans-serif; text-anchor: end" x="1055.094207" y="161.331771" transform="rotate(-0 1055.094207 161.331771)">0.0</text>
     </g>
    </g>
    <g id="ytick_28">
     <g id="line2d_61">
      <g>
       <use xlink:href="#m0b67ee3c12" x="1062.094207" y="128.668606" style="stroke: #000000; stroke-width: 0.8"/>
      </g>
     </g>
     <g id="text_65">
      <text style="font: 10px 'Arial', sans-serif; text-anchor: end" x="1055.094207" y="132.247512" transform="rotate(-0 1055.094207 132.247512)">0.5</text>
     </g>
    </g>
    <g id="ytick_29">
     <g id="line2d_62">
      <g>
       <use xlink:href="#m0b67ee3c12" x="1062.094207" y="99.584347" style="stroke: #000000; stroke-width: 0.8"/>
      </g>
     </g>
     <g id="text_66">
      <text style="font: 10px 'Arial', sans-serif; text-anchor: end" x="1055.094207" y="103.163254" transform="rotate(-0 1055.094207 103.163254)">1.0</text>
     </g>
    </g>
    <g id="ytick_30">
     <g id="line2d_63">
      <g>
       <use xlink:href="#m0b67ee3c12" x="1062.094207" y="70.500089" style="stroke: #000000; stroke-width: 0.8"/>
      </g>
     </g>
     <g id="text_67">
      <text style="font: 10px 'Arial', sans-serif; text-anchor: end" x="1055.094207" y="74.078995" transform="rotate(-0 1055.094207 74.078995)">1.5</text>
     </g>
    </g>
    <g id="text_68">
     <text style="font: 10px 'Arial', sans-serif; text-anchor: middle" x="1029.248895" y="127.08" transform="rotate(-90 1029.248895 127.08)">Mean Activity</text>
    </g>
   </g>
   <g id="line2d_64">
    <path d="M 1069.827023 181.047122 
L 1074.660033 181.609253 
L 1079.493043 183.018787 
L 1084.326053 182.501925 
L 1089.159063 181.114315 
L 1093.992073 179.302991 
L 1098.825083 176.137989 
L 1103.658093 170.620879 
L 1108.491103 165.442252 
L 1113.324113 159.417898 
L 1118.157123 154.233878 
L 1122.990133 146.743552 
L 1127.823143 140.64409 
L 1132.656153 137.743872 
L 1137.489163 133.430496 
L 1142.322173 128.045035 
L 1147.155183 123.159726 
L 1151.988193 120.857306 
L 1156.821203 119.57084 
L 1161.654213 116.005739 
L 1166.487223 111.663664 
L 1171.320233 108.7718 
L 1176.153243 107.143429 
L 1180.986253 107.67379 
L 1185.819263 107.524627 
L 1190.652273 106.089079 
L 1195.485283 104.10743 
L 1200.318293 103.618338 
L 1205.151303 104.742504 
L 1209.984313 104.73713 
L 1214.817323 92.568095 
L 1219.650333 77.800076 
L 1224.483343 68.14596 
" clip-path="url(#p1e6dedbb77)" style="fill: none; stroke: #ff00ff; stroke-width: 1.5; stroke-linecap: square"/>
   </g>
   <g id="line2d_65">
    <path d="M 1079.493043 210.24 
L 1079.493043 43.92 
" clip-path="url(#p1e6dedbb77)" style="fill: none; stroke-dasharray: 5.55,2.4; stroke-dashoffset: 0; stroke: #808080; stroke-opacity: 0.7; stroke-width: 1.5"/>
   </g>
   <g id="line2d_66">
    <path d="M 1209.984313 210.24 
L 1209.984313 43.92 
" clip-path="url(#p1e6dedbb77)" style="fill: none; stroke-dasharray: 5.55,2.4; stroke-dashoffset: 0; stroke: #808080; stroke-opacity: 0.7; stroke-width: 1.5"/>
   </g>
   <g id="text_69">
    <text style="font: 12px 'Arial', sans-serif; text-anchor: middle" x="1147.155183" y="37.92" transform="rotate(-0 1147.155183 37.92)">2 Correct Trials</text>
   </g>
   <g id="legend_6">
    <g id="patch_27">
     <path d="M 1094.557104 207.345 
L 1199.753262 207.345 
Q 1200.911262 207.345 1200.911262 206.187 
L 1200.911262 198.575864 
Q 1200.911262 197.417864 1199.753262 197.417864 
L 1094.557104 197.417864 
Q 1093.399104 197.417864 1093.399104 198.575864 
L 1093.399104 206.187 
Q 1093.399104 207.345 1094.557104 207.345 
z
" style="fill: #ffffff; opacity: 0.8; stroke: #cccccc; stroke-linejoin: miter"/>
    </g>
    <g id="line2d_67">
     <path d="M 1095.715104 201.851738 
L 1101.505104 201.851738 
L 1107.295104 201.851738 
" style="fill: none; stroke: #ff00ff; stroke-width: 1.5; stroke-linecap: square"/>
    </g>
    <g id="text_70">
     <text style="font: 5.79px 'Arial', sans-serif; text-anchor: start" x="1111.927104" y="203.878238" transform="rotate(-0 1111.927104 203.878238)">Pref - PrevCount=2 - #Trials=31.0</text>
    </g>
   </g>
  </g>
  <g id="axes_7">
   <g id="patch_28">
    <path d="M 1266.240549 210.24 
L 1436.3625 210.24 
L 1436.3625 43.92 
L 1266.240549 43.92 
z
" style="fill: #ffffff"/>
   </g>
   <g id="PolyCollection_6">
    <defs>
     <path id="m75084f4368" d="M 1273.973365 -156.638929 
L 1273.973365 -151.465684 
L 1278.806375 -150.627661 
L 1283.639385 -148.735661 
L 1288.472395 -147.736246 
L 1293.305405 -148.013241 
L 1298.138415 -148.557153 
L 1302.971425 -150.342477 
L 1307.804435 -153.934269 
L 1312.637445 -158.832991 
L 1317.470455 -163.556924 
L 1322.303465 -167.705477 
L 1327.136475 -173.334642 
L 1331.969484 -179.754113 
L 1336.802494 -183.803913 
L 1341.635504 -187.68127 
L 1346.468514 -191.447549 
L 1351.301524 -195.470992 
L 1356.134534 -200.184415 
L 1360.967544 -204.298316 
L 1365.800554 -206.371012 
L 1370.633564 -209.210717 
L 1375.466574 -211.847987 
L 1380.299584 -214.207438 
L 1385.132594 -216.822418 
L 1389.965604 -216.559538 
L 1394.798614 -216.552812 
L 1399.631624 -217.622746 
L 1404.464634 -219.953884 
L 1409.297644 -219.606837 
L 1414.130654 -219.008597 
L 1418.963664 -230.062099 
L 1423.796674 -243.86126 
L 1428.629684 -255.172913 
L 1428.629684 -269.168472 
L 1428.629684 -269.168472 
L 1423.796674 -256.906511 
L 1418.963664 -242.416423 
L 1414.130654 -231.3203 
L 1409.297644 -232.556174 
L 1404.464634 -233.213996 
L 1399.631624 -230.604743 
L 1394.798614 -229.602526 
L 1389.965604 -229.639589 
L 1385.132594 -230.406154 
L 1380.299584 -227.930406 
L 1375.466574 -225.720641 
L 1370.633564 -223.005773 
L 1365.800554 -219.700019 
L 1360.967544 -217.400899 
L 1356.134534 -213.315956 
L 1351.301524 -208.420281 
L 1346.468514 -204.145638 
L 1341.635504 -200.476946 
L 1336.802494 -196.204495 
L 1331.969484 -191.724209 
L 1327.136475 -183.911007 
L 1322.303465 -177.24148 
L 1317.470455 -172.62409 
L 1312.637445 -166.933496 
L 1307.804435 -160.591441 
L 1302.971425 -155.607809 
L 1298.138415 -153.048841 
L 1293.305405 -152.170391 
L 1288.472395 -151.958986 
L 1283.639385 -153.235298 
L 1278.806375 -155.579494 
L 1273.973365 -156.638929 
z
" style="stroke: #ff00ff; stroke-opacity: 0.1"/>
    </defs>
    <g clip-path="url(#pe885221b17)">
     <use xlink:href="#m75084f4368" x="0" y="323.436915" style="fill: #ff00ff; fill-opacity: 0.1; stroke: #ff00ff; stroke-opacity: 0.1"/>
    </g>
   </g>
   <g id="matplotlib.axis_13">
    <g id="xtick_17">
     <g id="line2d_68">
      <g>
       <use xlink:href="#m3cbf9e5296" x="1283.639385" y="210.24" style="stroke: #000000; stroke-width: 0.8"/>
      </g>
     </g>
     <g id="text_71">
      <text style="font: 10px 'Arial', sans-serif" transform="translate(1252.673632 251.86503) rotate(-45)">Sampling</text>
     </g>
    </g>
    <g id="xtick_18">
     <g id="line2d_69">
      <g>
       <use xlink:href="#m3cbf9e5296" x="1414.130654" y="210.24" style="stroke: #000000; stroke-width: 0.8"/>
      </g>
     </g>
     <g id="text_72">
      <text style="font: 10px 'Arial', sans-serif" transform="translate(1333.34039 301.686227) rotate(-45)">Movement to Lateral Port</text>
     </g>
    </g>
    <g id="text_73">
     <text style="font: 10px 'Arial', sans-serif; text-anchor: middle" x="1351.301524" y="314.249415" transform="rotate(-0 1351.301524 314.249415)">Normalized Time</text>
    </g>
   </g>
   <g id="matplotlib.axis_14">
    <g id="ytick_31">
     <g id="line2d_70">
      <g>
       <use xlink:href="#m0b67ee3c12" x="1266.240549" y="186.837123" style="stroke: #000000; stroke-width: 0.8"/>
      </g>
     </g>
     <g id="text_74">
      <text style="font: 10px 'Arial', sans-serif; text-anchor: end" x="1259.240549" y="190.416029" transform="rotate(-0 1259.240549 190.416029)">−0.5</text>
     </g>
    </g>
    <g id="ytick_32">
     <g id="line2d_71">
      <g>
       <use xlink:href="#m0b67ee3c12" x="1266.240549" y="157.752864" style="stroke: #000000; stroke-width: 0.8"/>
      </g>
     </g>
     <g id="text_75">
      <text style="font: 10px 'Arial', sans-serif; text-anchor: end" x="1259.240549" y="161.331771" transform="rotate(-0 1259.240549 161.331771)">0.0</text>
     </g>
    </g>
    <g id="ytick_33">
     <g id="line2d_72">
      <g>
       <use xlink:href="#m0b67ee3c12" x="1266.240549" y="128.668606" style="stroke: #000000; stroke-width: 0.8"/>
      </g>
     </g>
     <g id="text_76">
      <text style="font: 10px 'Arial', sans-serif; text-anchor: end" x="1259.240549" y="132.247512" transform="rotate(-0 1259.240549 132.247512)">0.5</text>
     </g>
    </g>
    <g id="ytick_34">
     <g id="line2d_73">
      <g>
       <use xlink:href="#m0b67ee3c12" x="1266.240549" y="99.584347" style="stroke: #000000; stroke-width: 0.8"/>
      </g>
     </g>
     <g id="text_77">
      <text style="font: 10px 'Arial', sans-serif; text-anchor: end" x="1259.240549" y="103.163254" transform="rotate(-0 1259.240549 103.163254)">1.0</text>
     </g>
    </g>
    <g id="ytick_35">
     <g id="line2d_74">
      <g>
       <use xlink:href="#m0b67ee3c12" x="1266.240549" y="70.500089" style="stroke: #000000; stroke-width: 0.8"/>
      </g>
     </g>
     <g id="text_78">
      <text style="font: 10px 'Arial', sans-serif; text-anchor: end" x="1259.240549" y="74.078995" transform="rotate(-0 1259.240549 74.078995)">1.5</text>
     </g>
    </g>
    <g id="text_79">
     <text style="font: 10px 'Arial', sans-serif; text-anchor: middle" x="1233.395236" y="127.08" transform="rotate(-90 1233.395236 127.08)">Mean Activity</text>
    </g>
   </g>
   <g id="line2d_75">
    <path d="M 1273.973365 169.384608 
L 1278.806375 170.333337 
L 1283.639385 172.451435 
L 1288.472395 173.589298 
L 1293.305405 173.345099 
L 1298.138415 172.633918 
L 1302.971425 170.461772 
L 1307.804435 166.17406 
L 1312.637445 160.553671 
L 1317.470455 155.346408 
L 1322.303465 150.963436 
L 1327.136475 144.814091 
L 1331.969484 137.697754 
L 1336.802494 133.432711 
L 1341.635504 129.357806 
L 1346.468514 125.640321 
L 1351.301524 121.491278 
L 1356.134534 116.686729 
L 1360.967544 112.587307 
L 1365.800554 110.401399 
L 1370.633564 107.32867 
L 1375.466574 104.652602 
L 1380.299584 102.367993 
L 1385.132594 99.822628 
L 1389.965604 100.337349 
L 1394.798614 100.359244 
L 1399.631624 99.32317 
L 1404.464634 96.852976 
L 1409.297644 97.355409 
L 1414.130654 98.272468 
L 1418.963664 87.197654 
L 1423.796674 73.053029 
L 1428.629684 61.266222 
" clip-path="url(#pe885221b17)" style="fill: none; stroke: #ff00ff; stroke-width: 1.5; stroke-linecap: square"/>
   </g>
   <g id="line2d_76">
    <path d="M 1283.639385 210.24 
L 1283.639385 43.92 
" clip-path="url(#pe885221b17)" style="fill: none; stroke-dasharray: 5.55,2.4; stroke-dashoffset: 0; stroke: #808080; stroke-opacity: 0.7; stroke-width: 1.5"/>
   </g>
   <g id="line2d_77">
    <path d="M 1414.130654 210.24 
L 1414.130654 43.92 
" clip-path="url(#pe885221b17)" style="fill: none; stroke-dasharray: 5.55,2.4; stroke-dashoffset: 0; stroke: #808080; stroke-opacity: 0.7; stroke-width: 1.5"/>
   </g>
   <g id="text_80">
    <text style="font: 12px 'Arial', sans-serif; text-anchor: middle" x="1351.301524" y="37.92" transform="rotate(-0 1351.301524 37.92)">3 Correct Trials</text>
   </g>
   <g id="legend_7">
    <g id="patch_29">
     <path d="M 1298.703445 207.345 
L 1403.899603 207.345 
Q 1405.057603 207.345 1405.057603 206.187 
L 1405.057603 198.575864 
Q 1405.057603 197.417864 1403.899603 197.417864 
L 1298.703445 197.417864 
Q 1297.545445 197.417864 1297.545445 198.575864 
L 1297.545445 206.187 
Q 1297.545445 207.345 1298.703445 207.345 
z
" style="fill: #ffffff; opacity: 0.8; stroke: #cccccc; stroke-linejoin: miter"/>
    </g>
    <g id="line2d_78">
     <path d="M 1299.861445 201.851738 
L 1305.651445 201.851738 
L 1311.441445 201.851738 
" style="fill: none; stroke: #ff00ff; stroke-width: 1.5; stroke-linecap: square"/>
    </g>
    <g id="text_81">
     <text style="font: 5.79px 'Arial', sans-serif; text-anchor: start" x="1316.073445" y="203.878238" transform="rotate(-0 1316.073445 203.878238)">Pref - PrevCount=3 - #Trials=93.0</text>
    </g>
   </g>
  </g>
  <g id="text_82">
   <text style="font: 12px 'Arial', sans-serif; text-anchor: middle" x="716.3625" y="15.935625" transform="rotate(-0 716.3625 15.935625)">Balance Change - M2 - GP4_28_S5_L40_D250_M2L_47 - PrevChoiceCorrect</text>
  </g>
 </g>
 <defs>
  <clipPath id="p491f3bdf80">
   <rect x="41.3625" y="43.92" width="170.121951" height="166.32"/>
  </clipPath>
  <clipPath id="pc363bb202c">
   <rect x="245.508841" y="43.92" width="170.121951" height="166.32"/>
  </clipPath>
  <clipPath id="p9f7d38a39f">
   <rect x="449.655183" y="43.92" width="170.121951" height="166.32"/>
  </clipPath>
  <clipPath id="p955a3a8ae1">
   <rect x="653.801524" y="43.92" width="170.121951" height="166.32"/>
  </clipPath>
  <clipPath id="p8cfde56611">
   <rect x="857.947866" y="43.92" width="170.121951" height="166.32"/>
  </clipPath>
  <clipPath id="p1e6dedbb77">
   <rect x="1062.094207" y="43.92" width="170.121951" height="166.32"/>
  </clipPath>
  <clipPath id="pe885221b17">
   <rect x="1266.240549" y="43.92" width="170.121951" height="166.32"/>
  </clipPath>
 </defs>
</svg>
