<?xml version="1.0" encoding="utf-8" standalone="no"?>
<!DOCTYPE svg PUBLIC "-//W3C//DTD SVG 1.1//EN"
  "http://www.w3.org/Graphics/SVG/1.1/DTD/svg11.dtd">
<svg xmlns:xlink="http://www.w3.org/1999/xlink" width="1443.5625pt" height="323.436915pt" viewBox="0 0 1443.5625 323.436915" xmlns="http://www.w3.org/2000/svg" version="1.1">
 <metadata>
  <rdf:RDF xmlns:dc="http://purl.org/dc/elements/1.1/" xmlns:cc="http://creativecommons.org/ns#" xmlns:rdf="http://www.w3.org/1999/02/22-rdf-syntax-ns#">
   <cc:Work>
    <dc:type rdf:resource="http://purl.org/dc/dcmitype/StillImage"/>
    <dc:date>2025-12-27T14:02:31.617970</dc:date>
    <dc:format>image/svg+xml</dc:format>
    <dc:creator>
     <cc:Agent>
      <dc:title>Matplotlib v3.8.0, https://matplotlib.org/</dc:title>
     </cc:Agent>
    </dc:creator>
   </cc:Work>
  </rdf:RDF>
 </metadata>
 <defs>
  <style type="text/css">*{stroke-linejoin: round; stroke-linecap: butt}</style>
 </defs>
 <g id="figure_1">
  <g id="patch_1">
   <path d="M 0 323.436915 
L 1443.5625 323.436915 
L 1443.5625 0 
L 0 0 
z
" style="fill: #ffffff"/>
  </g>
  <g id="axes_1">
   <g id="patch_2">
    <path d="M 41.3625 210.24 
L 211.484451 210.24 
L 211.484451 43.92 
L 41.3625 43.92 
z
" style="fill: #ffffff"/>
   </g>
   <g id="patch_3">
    <path d="M 49.095316 210.24 
L 58.192747 210.24 
L 58.192747 129.03948 
L 49.095316 129.03948 
z
" clip-path="url(#ped4214251d)" style="fill: #ff00ff"/>
   </g>
   <g id="patch_4">
    <path d="M 71.838892 210.24 
L 80.936323 210.24 
L 80.936323 82.651061 
L 71.838892 82.651061 
z
" clip-path="url(#ped4214251d)" style="fill: #ff00ff"/>
   </g>
   <g id="patch_5">
    <path d="M 94.582469 210.24 
L 103.679899 210.24 
L 103.679899 72.850169 
L 94.582469 72.850169 
z
" clip-path="url(#ped4214251d)" style="fill: #ff00ff"/>
   </g>
   <g id="patch_6">
    <path d="M 0 0 
z
" clip-path="url(#ped4214251d)" style="fill: #ff00ff"/>
   </g>
   <g id="patch_7">
    <path d="M 0 0 
z
" clip-path="url(#ped4214251d)" style="fill: #ff00ff"/>
   </g>
   <g id="patch_8">
    <path d="M 0 0 
z
" clip-path="url(#ped4214251d)" style="fill: #ff00ff"/>
   </g>
   <g id="patch_9">
    <path d="M 0 0 
z
" clip-path="url(#ped4214251d)" style="fill: #00ffff"/>
   </g>
   <g id="patch_10">
    <path d="M 0 0 
z
" clip-path="url(#ped4214251d)" style="fill: #00ffff"/>
   </g>
   <g id="patch_11">
    <path d="M 0 0 
z
" clip-path="url(#ped4214251d)" style="fill: #00ffff"/>
   </g>
   <g id="patch_12">
    <path d="M 149.167052 210.24 
L 158.264483 210.24 
L 158.264483 130.610405 
L 149.167052 130.610405 
z
" clip-path="url(#ped4214251d)" style="fill: #00ffff"/>
   </g>
   <g id="patch_13">
    <path d="M 171.910628 210.24 
L 181.008059 210.24 
L 181.008059 136.316328 
L 171.910628 136.316328 
z
" clip-path="url(#ped4214251d)" style="fill: #00ffff"/>
   </g>
   <g id="patch_14">
    <path d="M 194.654205 210.24 
L 203.751635 210.24 
L 203.751635 143.830215 
L 194.654205 143.830215 
z
" clip-path="url(#ped4214251d)" style="fill: #00ffff"/>
   </g>
   <g id="matplotlib.axis_1">
    <g id="xtick_1">
     <g id="line2d_1">
      <defs>
       <path id="m6a8cdac1d0" d="M 0 0 
L 0 3.5 
" style="stroke: #000000; stroke-width: 0.8"/>
      </defs>
      <g>
       <use xlink:href="#m6a8cdac1d0" x="58.192747" y="210.24" style="stroke: #000000; stroke-width: 0.8"/>
      </g>
     </g>
     <g id="text_1">
      <text style="font: 10px 'Arial', sans-serif; text-anchor: middle" x="58.192747" y="224.397813" transform="rotate(-0 58.192747 224.397813)">−3</text>
     </g>
    </g>
    <g id="xtick_2">
     <g id="line2d_2">
      <g>
       <use xlink:href="#m6a8cdac1d0" x="80.936323" y="210.24" style="stroke: #000000; stroke-width: 0.8"/>
      </g>
     </g>
     <g id="text_2">
      <text style="font: 10px 'Arial', sans-serif; text-anchor: middle" x="80.936323" y="224.397813" transform="rotate(-0 80.936323 224.397813)">−2</text>
     </g>
    </g>
    <g id="xtick_3">
     <g id="line2d_3">
      <g>
       <use xlink:href="#m6a8cdac1d0" x="103.679899" y="210.24" style="stroke: #000000; stroke-width: 0.8"/>
      </g>
     </g>
     <g id="text_3">
      <text style="font: 10px 'Arial', sans-serif; text-anchor: middle" x="103.679899" y="224.397813" transform="rotate(-0 103.679899 224.397813)">−1</text>
     </g>
    </g>
    <g id="xtick_4">
     <g id="line2d_4">
      <g>
       <use xlink:href="#m6a8cdac1d0" x="149.167052" y="210.24" style="stroke: #000000; stroke-width: 0.8"/>
      </g>
     </g>
     <g id="text_4">
      <text style="font: 10px 'Arial', sans-serif; text-anchor: middle" x="149.167052" y="224.397813" transform="rotate(-0 149.167052 224.397813)">1</text>
     </g>
    </g>
    <g id="xtick_5">
     <g id="line2d_5">
      <g>
       <use xlink:href="#m6a8cdac1d0" x="171.910628" y="210.24" style="stroke: #000000; stroke-width: 0.8"/>
      </g>
     </g>
     <g id="text_5">
      <text style="font: 10px 'Arial', sans-serif; text-anchor: middle" x="171.910628" y="224.397813" transform="rotate(-0 171.910628 224.397813)">2</text>
     </g>
    </g>
    <g id="xtick_6">
     <g id="line2d_6">
      <g>
       <use xlink:href="#m6a8cdac1d0" x="194.654205" y="210.24" style="stroke: #000000; stroke-width: 0.8"/>
      </g>
     </g>
     <g id="text_6">
      <text style="font: 10px 'Arial', sans-serif; text-anchor: middle" x="194.654205" y="224.397813" transform="rotate(-0 194.654205 224.397813)">3</text>
     </g>
    </g>
    <g id="text_7">
     <text style="font: 10px 'Arial', sans-serif; text-anchor: middle" x="126.423476" y="237.543125" transform="rotate(-0 126.423476 237.543125)">PrevOutcomeCount</text>
    </g>
   </g>
   <g id="matplotlib.axis_2">
    <g id="ytick_1">
     <g id="line2d_7">
      <defs>
       <path id="m065358bc1c" d="M 0 0 
L -3.5 0 
" style="stroke: #000000; stroke-width: 0.8"/>
      </defs>
      <g>
       <use xlink:href="#m065358bc1c" x="41.3625" y="210.24" style="stroke: #000000; stroke-width: 0.8"/>
      </g>
     </g>
     <g id="text_8">
      <text style="font: 10px 'Arial', sans-serif; text-anchor: end" x="34.3625" y="213.818906" transform="rotate(-0 34.3625 213.818906)">0.0</text>
     </g>
    </g>
    <g id="ytick_2">
     <g id="line2d_8">
      <g>
       <use xlink:href="#m065358bc1c" x="41.3625" y="172.082422" style="stroke: #000000; stroke-width: 0.8"/>
      </g>
     </g>
     <g id="text_9">
      <text style="font: 10px 'Arial', sans-serif; text-anchor: end" x="34.3625" y="175.661328" transform="rotate(-0 34.3625 175.661328)">0.5</text>
     </g>
    </g>
    <g id="ytick_3">
     <g id="line2d_9">
      <g>
       <use xlink:href="#m065358bc1c" x="41.3625" y="133.924843" style="stroke: #000000; stroke-width: 0.8"/>
      </g>
     </g>
     <g id="text_10">
      <text style="font: 10px 'Arial', sans-serif; text-anchor: end" x="34.3625" y="137.503749" transform="rotate(-0 34.3625 137.503749)">1.0</text>
     </g>
    </g>
    <g id="ytick_4">
     <g id="line2d_10">
      <g>
       <use xlink:href="#m065358bc1c" x="41.3625" y="95.767265" style="stroke: #000000; stroke-width: 0.8"/>
      </g>
     </g>
     <g id="text_11">
      <text style="font: 10px 'Arial', sans-serif; text-anchor: end" x="34.3625" y="99.346171" transform="rotate(-0 34.3625 99.346171)">1.5</text>
     </g>
    </g>
    <g id="ytick_5">
     <g id="line2d_11">
      <g>
       <use xlink:href="#m065358bc1c" x="41.3625" y="57.609686" style="stroke: #000000; stroke-width: 0.8"/>
      </g>
     </g>
     <g id="text_12">
      <text style="font: 10px 'Arial', sans-serif; text-anchor: end" x="34.3625" y="61.188592" transform="rotate(-0 34.3625 61.188592)">2.0</text>
     </g>
    </g>
    <g id="text_13">
     <text style="font: 10px 'Arial', sans-serif; text-anchor: middle" x="14.357813" y="127.08" transform="rotate(-90 14.357813 127.08)">Max Activity</text>
    </g>
   </g>
   <g id="LineCollection_1">
    <path d="M 53.644031 152.613385 
L 53.644031 105.465576 
" clip-path="url(#ped4214251d)" style="fill: none; stroke: #000000; stroke-width: 1.5"/>
    <path d="M 76.387608 107.28003 
L 76.387608 58.022092 
" clip-path="url(#ped4214251d)" style="fill: none; stroke: #000000; stroke-width: 1.5"/>
    <path d="M 99.131184 93.860337 
L 99.131184 51.84 
" clip-path="url(#ped4214251d)" style="fill: none; stroke: #000000; stroke-width: 1.5"/>
    <path clip-path="url(#ped4214251d)" style="fill: none; stroke: #000000; stroke-width: 1.5"/>
    <path clip-path="url(#ped4214251d)" style="fill: none; stroke: #000000; stroke-width: 1.5"/>
    <path clip-path="url(#ped4214251d)" style="fill: none; stroke: #000000; stroke-width: 1.5"/>
   </g>
   <g id="LineCollection_2">
    <path clip-path="url(#ped4214251d)" style="fill: none; stroke: #000000; stroke-width: 1.5"/>
    <path clip-path="url(#ped4214251d)" style="fill: none; stroke: #000000; stroke-width: 1.5"/>
    <path clip-path="url(#ped4214251d)" style="fill: none; stroke: #000000; stroke-width: 1.5"/>
    <path d="M 153.715767 142.170226 
L 153.715767 119.050584 
" clip-path="url(#ped4214251d)" style="fill: none; stroke: #000000; stroke-width: 1.5"/>
    <path d="M 176.459344 145.9846 
L 176.459344 126.648057 
" clip-path="url(#ped4214251d)" style="fill: none; stroke: #000000; stroke-width: 1.5"/>
    <path d="M 199.20292 150.555528 
L 199.20292 137.104903 
" clip-path="url(#ped4214251d)" style="fill: none; stroke: #000000; stroke-width: 1.5"/>
   </g>
   <g id="line2d_12">
    <path d="M 41.3625 210.24 
L 211.484451 210.24 
" clip-path="url(#ped4214251d)" style="fill: none; stroke-dasharray: 5.55,2.4; stroke-dashoffset: 0; stroke: #808080; stroke-width: 1.5"/>
   </g>
   <g id="legend_1">
    <g id="patch_15">
     <path d="M 132.471951 80.210625 
L 204.484451 80.210625 
Q 206.484451 80.210625 206.484451 78.210625 
L 206.484451 50.92 
Q 206.484451 48.92 204.484451 48.92 
L 132.471951 48.92 
Q 130.471951 48.92 130.471951 50.92 
L 130.471951 78.210625 
Q 130.471951 80.210625 132.471951 80.210625 
z
" style="fill: #ffffff; opacity: 0.8; stroke: #cccccc; stroke-linejoin: miter"/>
    </g>
    <g id="patch_16">
     <path d="M 134.471951 60.077812 
L 154.471951 60.077812 
L 154.471951 53.077812 
L 134.471951 53.077812 
z
" style="fill: #ff00ff"/>
    </g>
    <g id="text_14">
     <text style="font: 10px 'Arial', sans-serif; text-anchor: start" x="162.471951" y="60.077812" transform="rotate(-0 162.471951 60.077812)">Pref</text>
    </g>
    <g id="patch_17">
     <path d="M 134.471951 74.223125 
L 154.471951 74.223125 
L 154.471951 67.223125 
L 134.471951 67.223125 
z
" style="fill: #00ffff"/>
    </g>
    <g id="text_15">
     <text style="font: 10px 'Arial', sans-serif; text-anchor: start" x="162.471951" y="74.223125" transform="rotate(-0 162.471951 74.223125)">Non-Pref</text>
    </g>
   </g>
  </g>
  <g id="axes_2">
   <g id="patch_18">
    <path d="M 245.508841 210.24 
L 415.630793 210.24 
L 415.630793 43.92 
L 245.508841 43.92 
z
" style="fill: #ffffff"/>
   </g>
   <g id="PolyCollection_1">
    <defs>
     <path id="m6cf66e3ddf" d="M 253.241657 -164.168582 
L 253.241657 -119.129141 
L 258.074667 -121.39565 
L 262.907677 -123.317008 
L 267.740687 -137.351549 
L 272.573697 -140.884378 
L 277.406707 -135.004128 
L 282.239717 -133.440718 
L 287.072727 -143.002426 
L 291.905737 -146.734911 
L 296.738747 -145.051748 
L 301.571757 -137.613991 
L 306.404767 -131.454177 
L 311.237777 -138.528238 
L 316.070787 -147.952981 
L 320.903797 -149.602164 
L 325.736807 -149.426284 
L 330.569817 -154.795641 
L 335.402827 -160.895836 
L 340.235837 -167.590263 
L 345.068847 -168.677982 
L 349.901857 -161.66421 
L 354.734867 -161.017187 
L 359.567877 -156.320832 
L 364.400887 -151.113977 
L 369.233897 -152.248881 
L 374.066907 -155.737177 
L 378.899917 -155.09053 
L 383.732927 -155.47616 
L 388.565937 -151.754066 
L 393.398947 -150.274568 
L 398.231957 -151.929702 
L 403.064967 -135.580242 
L 407.897977 -122.093713 
L 407.897977 -184.3104 
L 407.897977 -184.3104 
L 403.064967 -194.493508 
L 398.231957 -211.759279 
L 393.398947 -210.773544 
L 388.565937 -210.358134 
L 383.732927 -209.518784 
L 378.899917 -204.671038 
L 374.066907 -202.902514 
L 369.233897 -204.870488 
L 364.400887 -209.925048 
L 359.567877 -216.561249 
L 354.734867 -217.518823 
L 349.901857 -217.589666 
L 345.068847 -221.796048 
L 340.235837 -218.021571 
L 335.402827 -208.372207 
L 330.569817 -200.877254 
L 325.736807 -196.156208 
L 320.903797 -195.706753 
L 316.070787 -193.984579 
L 311.237777 -185.105333 
L 306.404767 -178.515749 
L 301.571757 -182.087101 
L 296.738747 -187.520905 
L 291.905737 -188.687372 
L 287.072727 -184.774589 
L 282.239717 -175.585753 
L 277.406707 -176.181809 
L 272.573697 -182.898584 
L 267.740687 -186.479117 
L 262.907677 -178.87761 
L 258.074667 -174.299663 
L 253.241657 -164.168582 
z
" style="stroke: #ff00ff; stroke-opacity: 0.1"/>
    </defs>
    <g clip-path="url(#pef17f81b28)">
     <use xlink:href="#m6cf66e3ddf" x="0" y="323.436915" style="fill: #ff00ff; fill-opacity: 0.1; stroke: #ff00ff; stroke-opacity: 0.1"/>
    </g>
   </g>
   <g id="matplotlib.axis_3">
    <g id="xtick_7">
     <g id="line2d_13">
      <g>
       <use xlink:href="#m6a8cdac1d0" x="262.907677" y="210.24" style="stroke: #000000; stroke-width: 0.8"/>
      </g>
     </g>
     <g id="text_16">
      <text style="font: 10px 'Arial', sans-serif" transform="translate(231.941925 251.86503) rotate(-45)">Sampling</text>
     </g>
    </g>
    <g id="xtick_8">
     <g id="line2d_14">
      <g>
       <use xlink:href="#m6a8cdac1d0" x="393.398947" y="210.24" style="stroke: #000000; stroke-width: 0.8"/>
      </g>
     </g>
     <g id="text_17">
      <text style="font: 10px 'Arial', sans-serif" transform="translate(312.608682 301.686227) rotate(-45)">Movement to Lateral Port</text>
     </g>
    </g>
    <g id="text_18">
     <text style="font: 10px 'Arial', sans-serif; text-anchor: middle" x="330.569817" y="314.249415" transform="rotate(-0 330.569817 314.249415)">Normalized Time</text>
    </g>
   </g>
   <g id="matplotlib.axis_4">
    <g id="ytick_6">
     <g id="line2d_15">
      <g>
       <use xlink:href="#m065358bc1c" x="245.508841" y="198.035731" style="stroke: #000000; stroke-width: 0.8"/>
      </g>
     </g>
     <g id="text_19">
      <text style="font: 10px 'Arial', sans-serif; text-anchor: end" x="238.508841" y="201.614637" transform="rotate(-0 238.508841 201.614637)">−0.25</text>
     </g>
    </g>
    <g id="ytick_7">
     <g id="line2d_16">
      <g>
       <use xlink:href="#m065358bc1c" x="245.508841" y="176.936748" style="stroke: #000000; stroke-width: 0.8"/>
      </g>
     </g>
     <g id="text_20">
      <text style="font: 10px 'Arial', sans-serif; text-anchor: end" x="238.508841" y="180.515654" transform="rotate(-0 238.508841 180.515654)">0.00</text>
     </g>
    </g>
    <g id="ytick_8">
     <g id="line2d_17">
      <g>
       <use xlink:href="#m065358bc1c" x="245.508841" y="155.837765" style="stroke: #000000; stroke-width: 0.8"/>
      </g>
     </g>
     <g id="text_21">
      <text style="font: 10px 'Arial', sans-serif; text-anchor: end" x="238.508841" y="159.416671" transform="rotate(-0 238.508841 159.416671)">0.25</text>
     </g>
    </g>
    <g id="ytick_9">
     <g id="line2d_18">
      <g>
       <use xlink:href="#m065358bc1c" x="245.508841" y="134.738782" style="stroke: #000000; stroke-width: 0.8"/>
      </g>
     </g>
     <g id="text_22">
      <text style="font: 10px 'Arial', sans-serif; text-anchor: end" x="238.508841" y="138.317689" transform="rotate(-0 238.508841 138.317689)">0.50</text>
     </g>
    </g>
    <g id="ytick_10">
     <g id="line2d_19">
      <g>
       <use xlink:href="#m065358bc1c" x="245.508841" y="113.639799" style="stroke: #000000; stroke-width: 0.8"/>
      </g>
     </g>
     <g id="text_23">
      <text style="font: 10px 'Arial', sans-serif; text-anchor: end" x="238.508841" y="117.218706" transform="rotate(-0 238.508841 117.218706)">0.75</text>
     </g>
    </g>
    <g id="ytick_11">
     <g id="line2d_20">
      <g>
       <use xlink:href="#m065358bc1c" x="245.508841" y="92.540816" style="stroke: #000000; stroke-width: 0.8"/>
      </g>
     </g>
     <g id="text_24">
      <text style="font: 10px 'Arial', sans-serif; text-anchor: end" x="238.508841" y="96.119723" transform="rotate(-0 238.508841 96.119723)">1.00</text>
     </g>
    </g>
    <g id="ytick_12">
     <g id="line2d_21">
      <g>
       <use xlink:href="#m065358bc1c" x="245.508841" y="71.441834" style="stroke: #000000; stroke-width: 0.8"/>
      </g>
     </g>
     <g id="text_25">
      <text style="font: 10px 'Arial', sans-serif; text-anchor: end" x="238.508841" y="75.02074" transform="rotate(-0 238.508841 75.02074)">1.25</text>
     </g>
    </g>
    <g id="ytick_13">
     <g id="line2d_22">
      <g>
       <use xlink:href="#m065358bc1c" x="245.508841" y="50.342851" style="stroke: #000000; stroke-width: 0.8"/>
      </g>
     </g>
     <g id="text_26">
      <text style="font: 10px 'Arial', sans-serif; text-anchor: end" x="238.508841" y="53.921757" transform="rotate(-0 238.508841 53.921757)">1.50</text>
     </g>
    </g>
    <g id="text_27">
     <text style="font: 10px 'Arial', sans-serif; text-anchor: middle" x="207.102591" y="127.08" transform="rotate(-90 207.102591 127.08)">Mean Activity</text>
    </g>
   </g>
   <g id="line2d_23">
    <path d="M 253.241657 181.788053 
L 258.074667 175.589258 
L 262.907677 172.339607 
L 267.740687 161.521581 
L 272.573697 161.545434 
L 277.406707 167.843945 
L 282.239717 168.923678 
L 287.072727 159.548407 
L 291.905737 155.725774 
L 296.738747 157.150587 
L 301.571757 163.586368 
L 306.404767 168.451951 
L 311.237777 161.620129 
L 316.070787 152.468136 
L 320.903797 150.782455 
L 325.736807 150.645669 
L 330.569817 145.600467 
L 335.402827 138.802894 
L 340.235837 130.630996 
L 345.068847 128.1999 
L 349.901857 133.809976 
L 354.734867 134.16891 
L 359.567877 136.995875 
L 364.400887 142.917401 
L 369.233897 144.877231 
L 374.066907 144.117068 
L 378.899917 143.556132 
L 383.732927 140.939442 
L 388.565937 142.380814 
L 393.398947 142.912858 
L 398.231957 141.592424 
L 403.064967 158.400039 
L 407.897977 170.234857 
" clip-path="url(#pef17f81b28)" style="fill: none; stroke: #ff00ff; stroke-width: 1.5; stroke-linecap: square"/>
   </g>
   <g id="line2d_24">
    <path d="M 262.907677 210.24 
L 262.907677 43.92 
" clip-path="url(#pef17f81b28)" style="fill: none; stroke-dasharray: 5.55,2.4; stroke-dashoffset: 0; stroke: #808080; stroke-opacity: 0.7; stroke-width: 1.5"/>
   </g>
   <g id="line2d_25">
    <path d="M 393.398947 210.24 
L 393.398947 43.92 
" clip-path="url(#pef17f81b28)" style="fill: none; stroke-dasharray: 5.55,2.4; stroke-dashoffset: 0; stroke: #808080; stroke-opacity: 0.7; stroke-width: 1.5"/>
   </g>
   <g id="text_28">
    <text style="font: 12px 'Arial', sans-serif; text-anchor: middle" x="330.569817" y="37.92" transform="rotate(-0 330.569817 37.92)">3 Incorrect Trials</text>
   </g>
   <g id="legend_2">
    <g id="patch_19">
     <path d="M 277.007794 207.345 
L 384.131841 207.345 
Q 385.289841 207.345 385.289841 206.187 
L 385.289841 198.575864 
Q 385.289841 197.417864 384.131841 197.417864 
L 277.007794 197.417864 
Q 275.849794 197.417864 275.849794 198.575864 
L 275.849794 206.187 
Q 275.849794 207.345 277.007794 207.345 
z
" style="fill: #ffffff; opacity: 0.8; stroke: #cccccc; stroke-linejoin: miter"/>
    </g>
    <g id="line2d_26">
     <path d="M 278.165794 201.851738 
L 283.955794 201.851738 
L 289.745794 201.851738 
" style="fill: none; stroke: #ff00ff; stroke-width: 1.5; stroke-linecap: square"/>
    </g>
    <g id="text_29">
     <text style="font: 5.79px 'Arial', sans-serif; text-anchor: start" x="294.377794" y="203.878238" transform="rotate(-0 294.377794 203.878238)">Pref - PrevCount=-3 - #Trials=13.0</text>
    </g>
   </g>
  </g>
  <g id="axes_3">
   <g id="patch_20">
    <path d="M 449.655183 210.24 
L 619.777134 210.24 
L 619.777134 43.92 
L 449.655183 43.92 
z
" style="fill: #ffffff"/>
   </g>
   <g id="PolyCollection_2">
    <defs>
     <path id="md999f601bf" d="M 457.387999 -147.704266 
L 457.387999 -127.381419 
L 462.221009 -124.228565 
L 467.054019 -125.746369 
L 471.887029 -142.270967 
L 476.720039 -149.071582 
L 481.553049 -145.295038 
L 486.386059 -137.985874 
L 491.219069 -133.905898 
L 496.052079 -135.550508 
L 500.885089 -146.125458 
L 505.718099 -152.708799 
L 510.551109 -151.568864 
L 515.384119 -147.764154 
L 520.217129 -146.55813 
L 525.050139 -149.633885 
L 529.883149 -160.280105 
L 534.716159 -172.48936 
L 539.549169 -181.762923 
L 544.382178 -186.37906 
L 549.215188 -187.922665 
L 554.048198 -188.778287 
L 558.881208 -188.232877 
L 563.714218 -186.49376 
L 568.547228 -192.619985 
L 573.380238 -197.973124 
L 578.213248 -201.026928 
L 583.046258 -203.191087 
L 587.879268 -204.332603 
L 592.712278 -203.06419 
L 597.545288 -193.444451 
L 602.378298 -185.664737 
L 607.211308 -177.614237 
L 612.044318 -167.090756 
L 612.044318 -216.325193 
L 612.044318 -216.325193 
L 607.211308 -229.31801 
L 602.378298 -243.40231 
L 597.545288 -257.135676 
L 592.712278 -267.424483 
L 587.879268 -263.241784 
L 583.046258 -260.50972 
L 578.213248 -263.990608 
L 573.380238 -264.558881 
L 568.547228 -260.057196 
L 563.714218 -251.597942 
L 558.881208 -249.25366 
L 554.048198 -244.708491 
L 549.215188 -234.127399 
L 544.382178 -224.157801 
L 539.549169 -218.496409 
L 534.716159 -212.58547 
L 529.883149 -201.971263 
L 525.050139 -189.582435 
L 520.217129 -179.839395 
L 515.384119 -178.520321 
L 510.551109 -188.083459 
L 505.718099 -187.521841 
L 500.885089 -174.902453 
L 496.052079 -160.916035 
L 491.219069 -157.588605 
L 486.386059 -163.128217 
L 481.553049 -167.881626 
L 476.720039 -166.043426 
L 471.887029 -162.29524 
L 467.054019 -152.004577 
L 462.221009 -146.972897 
L 457.387999 -147.704266 
z
" style="stroke: #ff00ff; stroke-opacity: 0.1"/>
    </defs>
    <g clip-path="url(#p5f46dca305)">
     <use xlink:href="#md999f601bf" x="0" y="323.436915" style="fill: #ff00ff; fill-opacity: 0.1; stroke: #ff00ff; stroke-opacity: 0.1"/>
    </g>
   </g>
   <g id="matplotlib.axis_5">
    <g id="xtick_9">
     <g id="line2d_27">
      <g>
       <use xlink:href="#m6a8cdac1d0" x="467.054019" y="210.24" style="stroke: #000000; stroke-width: 0.8"/>
      </g>
     </g>
     <g id="text_30">
      <text style="font: 10px 'Arial', sans-serif" transform="translate(436.088266 251.86503) rotate(-45)">Sampling</text>
     </g>
    </g>
    <g id="xtick_10">
     <g id="line2d_28">
      <g>
       <use xlink:href="#m6a8cdac1d0" x="597.545288" y="210.24" style="stroke: #000000; stroke-width: 0.8"/>
      </g>
     </g>
     <g id="text_31">
      <text style="font: 10px 'Arial', sans-serif" transform="translate(516.755024 301.686227) rotate(-45)">Movement to Lateral Port</text>
     </g>
    </g>
    <g id="text_32">
     <text style="font: 10px 'Arial', sans-serif; text-anchor: middle" x="534.716159" y="314.249415" transform="rotate(-0 534.716159 314.249415)">Normalized Time</text>
    </g>
   </g>
   <g id="matplotlib.axis_6">
    <g id="ytick_14">
     <g id="line2d_29">
      <g>
       <use xlink:href="#m065358bc1c" x="449.655183" y="198.035731" style="stroke: #000000; stroke-width: 0.8"/>
      </g>
     </g>
     <g id="text_33">
      <text style="font: 10px 'Arial', sans-serif; text-anchor: end" x="442.655183" y="201.614637" transform="rotate(-0 442.655183 201.614637)">−0.25</text>
     </g>
    </g>
    <g id="ytick_15">
     <g id="line2d_30">
      <g>
       <use xlink:href="#m065358bc1c" x="449.655183" y="176.936748" style="stroke: #000000; stroke-width: 0.8"/>
      </g>
     </g>
     <g id="text_34">
      <text style="font: 10px 'Arial', sans-serif; text-anchor: end" x="442.655183" y="180.515654" transform="rotate(-0 442.655183 180.515654)">0.00</text>
     </g>
    </g>
    <g id="ytick_16">
     <g id="line2d_31">
      <g>
       <use xlink:href="#m065358bc1c" x="449.655183" y="155.837765" style="stroke: #000000; stroke-width: 0.8"/>
      </g>
     </g>
     <g id="text_35">
      <text style="font: 10px 'Arial', sans-serif; text-anchor: end" x="442.655183" y="159.416671" transform="rotate(-0 442.655183 159.416671)">0.25</text>
     </g>
    </g>
    <g id="ytick_17">
     <g id="line2d_32">
      <g>
       <use xlink:href="#m065358bc1c" x="449.655183" y="134.738782" style="stroke: #000000; stroke-width: 0.8"/>
      </g>
     </g>
     <g id="text_36">
      <text style="font: 10px 'Arial', sans-serif; text-anchor: end" x="442.655183" y="138.317689" transform="rotate(-0 442.655183 138.317689)">0.50</text>
     </g>
    </g>
    <g id="ytick_18">
     <g id="line2d_33">
      <g>
       <use xlink:href="#m065358bc1c" x="449.655183" y="113.639799" style="stroke: #000000; stroke-width: 0.8"/>
      </g>
     </g>
     <g id="text_37">
      <text style="font: 10px 'Arial', sans-serif; text-anchor: end" x="442.655183" y="117.218706" transform="rotate(-0 442.655183 117.218706)">0.75</text>
     </g>
    </g>
    <g id="ytick_19">
     <g id="line2d_34">
      <g>
       <use xlink:href="#m065358bc1c" x="449.655183" y="92.540816" style="stroke: #000000; stroke-width: 0.8"/>
      </g>
     </g>
     <g id="text_38">
      <text style="font: 10px 'Arial', sans-serif; text-anchor: end" x="442.655183" y="96.119723" transform="rotate(-0 442.655183 96.119723)">1.00</text>
     </g>
    </g>
    <g id="ytick_20">
     <g id="line2d_35">
      <g>
       <use xlink:href="#m065358bc1c" x="449.655183" y="71.441834" style="stroke: #000000; stroke-width: 0.8"/>
      </g>
     </g>
     <g id="text_39">
      <text style="font: 10px 'Arial', sans-serif; text-anchor: end" x="442.655183" y="75.02074" transform="rotate(-0 442.655183 75.02074)">1.25</text>
     </g>
    </g>
    <g id="ytick_21">
     <g id="line2d_36">
      <g>
       <use xlink:href="#m065358bc1c" x="449.655183" y="50.342851" style="stroke: #000000; stroke-width: 0.8"/>
      </g>
     </g>
     <g id="text_40">
      <text style="font: 10px 'Arial', sans-serif; text-anchor: end" x="442.655183" y="53.921757" transform="rotate(-0 442.655183 53.921757)">1.50</text>
     </g>
    </g>
    <g id="text_41">
     <text style="font: 10px 'Arial', sans-serif; text-anchor: middle" x="411.248933" y="127.08" transform="rotate(-90 411.248933 127.08)">Mean Activity</text>
    </g>
   </g>
   <g id="line2d_37">
    <path d="M 457.387999 185.894072 
L 462.221009 187.836184 
L 467.054019 184.561442 
L 471.887029 171.153811 
L 476.720039 165.879411 
L 481.553049 166.848583 
L 486.386059 172.879869 
L 491.219069 177.689663 
L 496.052079 175.203644 
L 500.885089 162.922959 
L 505.718099 153.321595 
L 510.551109 153.610754 
L 515.384119 160.294676 
L 520.217129 160.238151 
L 525.050139 153.828756 
L 529.883149 142.311231 
L 534.716159 130.899498 
L 539.549169 123.307247 
L 544.382178 118.168483 
L 549.215188 112.411881 
L 554.048198 106.693526 
L 558.881208 104.693644 
L 563.714218 104.391066 
L 568.547228 97.098324 
L 573.380238 92.170912 
L 578.213248 90.928144 
L 583.046258 91.586511 
L 587.879268 89.649721 
L 592.712278 88.192578 
L 597.545288 98.146854 
L 602.378298 108.903391 
L 607.211308 119.970791 
L 612.044318 131.728939 
" clip-path="url(#p5f46dca305)" style="fill: none; stroke: #ff00ff; stroke-width: 1.5; stroke-linecap: square"/>
   </g>
   <g id="line2d_38">
    <path d="M 467.054019 210.24 
L 467.054019 43.92 
" clip-path="url(#p5f46dca305)" style="fill: none; stroke-dasharray: 5.55,2.4; stroke-dashoffset: 0; stroke: #808080; stroke-opacity: 0.7; stroke-width: 1.5"/>
   </g>
   <g id="line2d_39">
    <path d="M 597.545288 210.24 
L 597.545288 43.92 
" clip-path="url(#p5f46dca305)" style="fill: none; stroke-dasharray: 5.55,2.4; stroke-dashoffset: 0; stroke: #808080; stroke-opacity: 0.7; stroke-width: 1.5"/>
   </g>
   <g id="text_42">
    <text style="font: 12px 'Arial', sans-serif; text-anchor: middle" x="534.716159" y="37.92" transform="rotate(-0 534.716159 37.92)">2 Incorrect Trials</text>
   </g>
   <g id="legend_3">
    <g id="patch_21">
     <path d="M 481.154135 207.345 
L 588.278182 207.345 
Q 589.436182 207.345 589.436182 206.187 
L 589.436182 198.575864 
Q 589.436182 197.417864 588.278182 197.417864 
L 481.154135 197.417864 
Q 479.996135 197.417864 479.996135 198.575864 
L 479.996135 206.187 
Q 479.996135 207.345 481.154135 207.345 
z
" style="fill: #ffffff; opacity: 0.8; stroke: #cccccc; stroke-linejoin: miter"/>
    </g>
    <g id="line2d_40">
     <path d="M 482.312135 201.851738 
L 488.102135 201.851738 
L 493.892135 201.851738 
" style="fill: none; stroke: #ff00ff; stroke-width: 1.5; stroke-linecap: square"/>
    </g>
    <g id="text_43">
     <text style="font: 5.79px 'Arial', sans-serif; text-anchor: start" x="498.524135" y="203.878238" transform="rotate(-0 498.524135 203.878238)">Pref - PrevCount=-2 - #Trials=15.0</text>
    </g>
   </g>
  </g>
  <g id="axes_4">
   <g id="patch_22">
    <path d="M 653.801524 210.24 
L 823.923476 210.24 
L 823.923476 43.92 
L 653.801524 43.92 
z
" style="fill: #ffffff"/>
   </g>
   <g id="PolyCollection_3">
    <defs>
     <path id="mf26f0e4089" d="M 661.53434 -163.87074 
L 661.53434 -138.023037 
L 666.36735 -140.199217 
L 671.20036 -142.360445 
L 676.03337 -142.164633 
L 680.86638 -142.050893 
L 685.69939 -144.556775 
L 690.5324 -147.956916 
L 695.36541 -150.602211 
L 700.19842 -153.940841 
L 705.03143 -154.20535 
L 709.86444 -151.308874 
L 714.69745 -149.766334 
L 719.53046 -151.524943 
L 724.36347 -152.090994 
L 729.19648 -153.263798 
L 734.02949 -160.108977 
L 738.8625 -168.259987 
L 743.69551 -175.95695 
L 748.52852 -183.318931 
L 753.36153 -191.093252 
L 758.19454 -200.41654 
L 763.02755 -206.918721 
L 767.86056 -207.986789 
L 772.69357 -206.024041 
L 777.52658 -202.093023 
L 782.35959 -197.751526 
L 787.1926 -194.828834 
L 792.02561 -195.706894 
L 796.85862 -199.950188 
L 801.69163 -201.543916 
L 806.52464 -204.310293 
L 811.35765 -200.169503 
L 816.19066 -193.242139 
L 816.19066 -229.462714 
L 816.19066 -229.462714 
L 811.35765 -238.379849 
L 806.52464 -245.932124 
L 801.69163 -242.169815 
L 796.85862 -239.477369 
L 792.02561 -233.842971 
L 787.1926 -231.954552 
L 782.35959 -235.603677 
L 777.52658 -241.294939 
L 772.69357 -246.725899 
L 767.86056 -249.206374 
L 763.02755 -245.633168 
L 758.19454 -235.567962 
L 753.36153 -225.243852 
L 748.52852 -218.370997 
L 743.69551 -212.068678 
L 738.8625 -204.774764 
L 734.02949 -194.757257 
L 729.19648 -185.135334 
L 724.36347 -181.471009 
L 719.53046 -178.711506 
L 714.69745 -176.544555 
L 709.86444 -179.552789 
L 705.03143 -184.321613 
L 700.19842 -185.994756 
L 695.36541 -185.339291 
L 690.5324 -184.704104 
L 685.69939 -180.680677 
L 680.86638 -175.690649 
L 676.03337 -173.847386 
L 671.20036 -172.453043 
L 666.36735 -168.076171 
L 661.53434 -163.87074 
z
" style="stroke: #ff00ff; stroke-opacity: 0.1"/>
    </defs>
    <g clip-path="url(#p31f8dae317)">
     <use xlink:href="#mf26f0e4089" x="0" y="323.436915" style="fill: #ff00ff; fill-opacity: 0.1; stroke: #ff00ff; stroke-opacity: 0.1"/>
    </g>
   </g>
   <g id="matplotlib.axis_7">
    <g id="xtick_11">
     <g id="line2d_41">
      <g>
       <use xlink:href="#m6a8cdac1d0" x="671.20036" y="210.24" style="stroke: #000000; stroke-width: 0.8"/>
      </g>
     </g>
     <g id="text_44">
      <text style="font: 10px 'Arial', sans-serif" transform="translate(640.234608 251.86503) rotate(-45)">Sampling</text>
     </g>
    </g>
    <g id="xtick_12">
     <g id="line2d_42">
      <g>
       <use xlink:href="#m6a8cdac1d0" x="801.69163" y="210.24" style="stroke: #000000; stroke-width: 0.8"/>
      </g>
     </g>
     <g id="text_45">
      <text style="font: 10px 'Arial', sans-serif" transform="translate(720.901365 301.686227) rotate(-45)">Movement to Lateral Port</text>
     </g>
    </g>
    <g id="text_46">
     <text style="font: 10px 'Arial', sans-serif; text-anchor: middle" x="738.8625" y="314.249415" transform="rotate(-0 738.8625 314.249415)">Normalized Time</text>
    </g>
   </g>
   <g id="matplotlib.axis_8">
    <g id="ytick_22">
     <g id="line2d_43">
      <g>
       <use xlink:href="#m065358bc1c" x="653.801524" y="198.035731" style="stroke: #000000; stroke-width: 0.8"/>
      </g>
     </g>
     <g id="text_47">
      <text style="font: 10px 'Arial', sans-serif; text-anchor: end" x="646.801524" y="201.614637" transform="rotate(-0 646.801524 201.614637)">−0.25</text>
     </g>
    </g>
    <g id="ytick_23">
     <g id="line2d_44">
      <g>
       <use xlink:href="#m065358bc1c" x="653.801524" y="176.936748" style="stroke: #000000; stroke-width: 0.8"/>
      </g>
     </g>
     <g id="text_48">
      <text style="font: 10px 'Arial', sans-serif; text-anchor: end" x="646.801524" y="180.515654" transform="rotate(-0 646.801524 180.515654)">0.00</text>
     </g>
    </g>
    <g id="ytick_24">
     <g id="line2d_45">
      <g>
       <use xlink:href="#m065358bc1c" x="653.801524" y="155.837765" style="stroke: #000000; stroke-width: 0.8"/>
      </g>
     </g>
     <g id="text_49">
      <text style="font: 10px 'Arial', sans-serif; text-anchor: end" x="646.801524" y="159.416671" transform="rotate(-0 646.801524 159.416671)">0.25</text>
     </g>
    </g>
    <g id="ytick_25">
     <g id="line2d_46">
      <g>
       <use xlink:href="#m065358bc1c" x="653.801524" y="134.738782" style="stroke: #000000; stroke-width: 0.8"/>
      </g>
     </g>
     <g id="text_50">
      <text style="font: 10px 'Arial', sans-serif; text-anchor: end" x="646.801524" y="138.317689" transform="rotate(-0 646.801524 138.317689)">0.50</text>
     </g>
    </g>
    <g id="ytick_26">
     <g id="line2d_47">
      <g>
       <use xlink:href="#m065358bc1c" x="653.801524" y="113.639799" style="stroke: #000000; stroke-width: 0.8"/>
      </g>
     </g>
     <g id="text_51">
      <text style="font: 10px 'Arial', sans-serif; text-anchor: end" x="646.801524" y="117.218706" transform="rotate(-0 646.801524 117.218706)">0.75</text>
     </g>
    </g>
    <g id="ytick_27">
     <g id="line2d_48">
      <g>
       <use xlink:href="#m065358bc1c" x="653.801524" y="92.540816" style="stroke: #000000; stroke-width: 0.8"/>
      </g>
     </g>
     <g id="text_52">
      <text style="font: 10px 'Arial', sans-serif; text-anchor: end" x="646.801524" y="96.119723" transform="rotate(-0 646.801524 96.119723)">1.00</text>
     </g>
    </g>
    <g id="ytick_28">
     <g id="line2d_49">
      <g>
       <use xlink:href="#m065358bc1c" x="653.801524" y="71.441834" style="stroke: #000000; stroke-width: 0.8"/>
      </g>
     </g>
     <g id="text_53">
      <text style="font: 10px 'Arial', sans-serif; text-anchor: end" x="646.801524" y="75.02074" transform="rotate(-0 646.801524 75.02074)">1.25</text>
     </g>
    </g>
    <g id="ytick_29">
     <g id="line2d_50">
      <g>
       <use xlink:href="#m065358bc1c" x="653.801524" y="50.342851" style="stroke: #000000; stroke-width: 0.8"/>
      </g>
     </g>
     <g id="text_54">
      <text style="font: 10px 'Arial', sans-serif; text-anchor: end" x="646.801524" y="53.921757" transform="rotate(-0 646.801524 53.921757)">1.50</text>
     </g>
    </g>
    <g id="text_55">
     <text style="font: 10px 'Arial', sans-serif; text-anchor: middle" x="615.395274" y="127.08" transform="rotate(-90 615.395274 127.08)">Mean Activity</text>
    </g>
   </g>
   <g id="line2d_51">
    <path d="M 661.53434 172.490026 
L 666.36735 169.29922 
L 671.20036 166.030171 
L 676.03337 165.430904 
L 680.86638 164.566144 
L 685.69939 160.818189 
L 690.5324 157.106406 
L 695.36541 155.466163 
L 700.19842 153.469116 
L 705.03143 154.173433 
L 709.86444 158.006083 
L 714.69745 160.28147 
L 719.53046 158.318689 
L 724.36347 156.655913 
L 729.19648 154.237349 
L 734.02949 146.003796 
L 738.8625 136.919539 
L 743.69551 129.4241 
L 748.52852 122.591951 
L 753.36153 115.268363 
L 758.19454 105.444666 
L 763.02755 97.160968 
L 767.86056 94.840333 
L 772.69357 97.061944 
L 777.52658 101.742933 
L 782.35959 106.759313 
L 787.1926 110.045224 
L 792.02561 108.661982 
L 796.85862 103.723136 
L 801.69163 101.580049 
L 806.52464 98.315704 
L 811.35765 104.162239 
L 816.19066 112.084488 
" clip-path="url(#p31f8dae317)" style="fill: none; stroke: #ff00ff; stroke-width: 1.5; stroke-linecap: square"/>
   </g>
   <g id="line2d_52">
    <path d="M 671.20036 210.24 
L 671.20036 43.92 
" clip-path="url(#p31f8dae317)" style="fill: none; stroke-dasharray: 5.55,2.4; stroke-dashoffset: 0; stroke: #808080; stroke-opacity: 0.7; stroke-width: 1.5"/>
   </g>
   <g id="line2d_53">
    <path d="M 801.69163 210.24 
L 801.69163 43.92 
" clip-path="url(#p31f8dae317)" style="fill: none; stroke-dasharray: 5.55,2.4; stroke-dashoffset: 0; stroke: #808080; stroke-opacity: 0.7; stroke-width: 1.5"/>
   </g>
   <g id="text_56">
    <text style="font: 12px 'Arial', sans-serif; text-anchor: middle" x="738.8625" y="37.92" transform="rotate(-0 738.8625 37.92)">1 Incorrect Trials</text>
   </g>
   <g id="legend_4">
    <g id="patch_23">
     <path d="M 685.300477 207.345 
L 792.424523 207.345 
Q 793.582523 207.345 793.582523 206.187 
L 793.582523 198.575864 
Q 793.582523 197.417864 792.424523 197.417864 
L 685.300477 197.417864 
Q 684.142477 197.417864 684.142477 198.575864 
L 684.142477 206.187 
Q 684.142477 207.345 685.300477 207.345 
z
" style="fill: #ffffff; opacity: 0.8; stroke: #cccccc; stroke-linejoin: miter"/>
    </g>
    <g id="line2d_54">
     <path d="M 686.458477 201.851738 
L 692.248477 201.851738 
L 698.038477 201.851738 
" style="fill: none; stroke: #ff00ff; stroke-width: 1.5; stroke-linecap: square"/>
    </g>
    <g id="text_57">
     <text style="font: 5.79px 'Arial', sans-serif; text-anchor: start" x="702.670477" y="203.878238" transform="rotate(-0 702.670477 203.878238)">Pref - PrevCount=-1 - #Trials=48.0</text>
    </g>
   </g>
  </g>
  <g id="axes_5">
   <g id="patch_24">
    <path d="M 857.947866 210.24 
L 1028.069817 210.24 
L 1028.069817 43.92 
L 857.947866 43.92 
z
" style="fill: #ffffff"/>
   </g>
   <g id="PolyCollection_4">
    <defs>
     <path id="m9402aca850" d="M 865.680682 -137.35682 
L 865.680682 -124.191322 
L 870.513692 -119.44763 
L 875.346702 -119.887077 
L 880.179712 -127.102788 
L 885.012722 -129.688935 
L 889.845732 -132.355902 
L 894.678742 -134.227633 
L 899.511752 -131.241871 
L 904.344762 -130.258309 
L 909.177772 -132.176902 
L 914.010782 -133.082993 
L 918.843792 -129.454148 
L 923.676802 -123.656501 
L 928.509812 -119.256206 
L 933.342822 -121.075529 
L 938.175831 -127.985126 
L 943.008841 -135.096589 
L 947.841851 -135.978322 
L 952.674861 -137.338174 
L 957.507871 -144.308835 
L 962.340881 -151.338164 
L 967.173891 -154.900889 
L 972.006901 -152.677084 
L 976.839911 -147.339073 
L 981.672921 -146.257223 
L 986.505931 -148.11821 
L 991.338941 -147.059665 
L 996.171951 -145.029039 
L 1001.004961 -145.428418 
L 1005.837971 -145.229991 
L 1010.670981 -145.473405 
L 1015.503991 -149.034288 
L 1020.337001 -152.74039 
L 1020.337001 -179.432927 
L 1020.337001 -179.432927 
L 1015.503991 -175.528834 
L 1010.670981 -171.860679 
L 1005.837971 -171.362698 
L 1001.004961 -171.379487 
L 996.171951 -169.208147 
L 991.338941 -169.657706 
L 986.505931 -171.802613 
L 981.672921 -172.145605 
L 976.839911 -173.622885 
L 972.006901 -177.760722 
L 967.173891 -175.229189 
L 962.340881 -168.886542 
L 957.507871 -161.287883 
L 952.674861 -154.3907 
L 947.841851 -152.487273 
L 943.008841 -150.381128 
L 938.175831 -141.997017 
L 933.342822 -134.716049 
L 928.509812 -132.816353 
L 923.676802 -137.606246 
L 918.843792 -143.621002 
L 914.010782 -146.26457 
L 909.177772 -143.972868 
L 904.344762 -141.011026 
L 899.511752 -141.781952 
L 894.678742 -144.795888 
L 889.845732 -143.275019 
L 885.012722 -140.104095 
L 880.179712 -136.9836 
L 875.346702 -130.388985 
L 870.513692 -131.81079 
L 865.680682 -137.35682 
z
" style="stroke: #00ffff; stroke-opacity: 0.1"/>
    </defs>
    <g clip-path="url(#pbabb5a17e2)">
     <use xlink:href="#m9402aca850" x="0" y="323.436915" style="fill: #00ffff; fill-opacity: 0.1; stroke: #00ffff; stroke-opacity: 0.1"/>
    </g>
   </g>
   <g id="matplotlib.axis_9">
    <g id="xtick_13">
     <g id="line2d_55">
      <g>
       <use xlink:href="#m6a8cdac1d0" x="875.346702" y="210.24" style="stroke: #000000; stroke-width: 0.8"/>
      </g>
     </g>
     <g id="text_58">
      <text style="font: 10px 'Arial', sans-serif" transform="translate(844.380949 251.86503) rotate(-45)">Sampling</text>
     </g>
    </g>
    <g id="xtick_14">
     <g id="line2d_56">
      <g>
       <use xlink:href="#m6a8cdac1d0" x="1005.837971" y="210.24" style="stroke: #000000; stroke-width: 0.8"/>
      </g>
     </g>
     <g id="text_59">
      <text style="font: 10px 'Arial', sans-serif" transform="translate(925.047707 301.686227) rotate(-45)">Movement to Lateral Port</text>
     </g>
    </g>
    <g id="text_60">
     <text style="font: 10px 'Arial', sans-serif; text-anchor: middle" x="943.008841" y="314.249415" transform="rotate(-0 943.008841 314.249415)">Normalized Time</text>
    </g>
   </g>
   <g id="matplotlib.axis_10">
    <g id="ytick_30">
     <g id="line2d_57">
      <g>
       <use xlink:href="#m065358bc1c" x="857.947866" y="198.035731" style="stroke: #000000; stroke-width: 0.8"/>
      </g>
     </g>
     <g id="text_61">
      <text style="font: 10px 'Arial', sans-serif; text-anchor: end" x="850.947866" y="201.614637" transform="rotate(-0 850.947866 201.614637)">−0.25</text>
     </g>
    </g>
    <g id="ytick_31">
     <g id="line2d_58">
      <g>
       <use xlink:href="#m065358bc1c" x="857.947866" y="176.936748" style="stroke: #000000; stroke-width: 0.8"/>
      </g>
     </g>
     <g id="text_62">
      <text style="font: 10px 'Arial', sans-serif; text-anchor: end" x="850.947866" y="180.515654" transform="rotate(-0 850.947866 180.515654)">0.00</text>
     </g>
    </g>
    <g id="ytick_32">
     <g id="line2d_59">
      <g>
       <use xlink:href="#m065358bc1c" x="857.947866" y="155.837765" style="stroke: #000000; stroke-width: 0.8"/>
      </g>
     </g>
     <g id="text_63">
      <text style="font: 10px 'Arial', sans-serif; text-anchor: end" x="850.947866" y="159.416671" transform="rotate(-0 850.947866 159.416671)">0.25</text>
     </g>
    </g>
    <g id="ytick_33">
     <g id="line2d_60">
      <g>
       <use xlink:href="#m065358bc1c" x="857.947866" y="134.738782" style="stroke: #000000; stroke-width: 0.8"/>
      </g>
     </g>
     <g id="text_64">
      <text style="font: 10px 'Arial', sans-serif; text-anchor: end" x="850.947866" y="138.317689" transform="rotate(-0 850.947866 138.317689)">0.50</text>
     </g>
    </g>
    <g id="ytick_34">
     <g id="line2d_61">
      <g>
       <use xlink:href="#m065358bc1c" x="857.947866" y="113.639799" style="stroke: #000000; stroke-width: 0.8"/>
      </g>
     </g>
     <g id="text_65">
      <text style="font: 10px 'Arial', sans-serif; text-anchor: end" x="850.947866" y="117.218706" transform="rotate(-0 850.947866 117.218706)">0.75</text>
     </g>
    </g>
    <g id="ytick_35">
     <g id="line2d_62">
      <g>
       <use xlink:href="#m065358bc1c" x="857.947866" y="92.540816" style="stroke: #000000; stroke-width: 0.8"/>
      </g>
     </g>
     <g id="text_66">
      <text style="font: 10px 'Arial', sans-serif; text-anchor: end" x="850.947866" y="96.119723" transform="rotate(-0 850.947866 96.119723)">1.00</text>
     </g>
    </g>
    <g id="ytick_36">
     <g id="line2d_63">
      <g>
       <use xlink:href="#m065358bc1c" x="857.947866" y="71.441834" style="stroke: #000000; stroke-width: 0.8"/>
      </g>
     </g>
     <g id="text_67">
      <text style="font: 10px 'Arial', sans-serif; text-anchor: end" x="850.947866" y="75.02074" transform="rotate(-0 850.947866 75.02074)">1.25</text>
     </g>
    </g>
    <g id="ytick_37">
     <g id="line2d_64">
      <g>
       <use xlink:href="#m065358bc1c" x="857.947866" y="50.342851" style="stroke: #000000; stroke-width: 0.8"/>
      </g>
     </g>
     <g id="text_68">
      <text style="font: 10px 'Arial', sans-serif; text-anchor: end" x="850.947866" y="53.921757" transform="rotate(-0 850.947866 53.921757)">1.50</text>
     </g>
    </g>
    <g id="text_69">
     <text style="font: 10px 'Arial', sans-serif; text-anchor: middle" x="819.541616" y="127.08" transform="rotate(-90 819.541616 127.08)">Mean Activity</text>
    </g>
   </g>
   <g id="line2d_65">
    <path d="M 865.680682 192.662844 
L 870.513692 197.807705 
L 875.346702 198.298883 
L 880.179712 191.39372 
L 885.012722 188.540399 
L 889.845732 185.621454 
L 894.678742 183.925154 
L 899.511752 186.925003 
L 904.344762 187.802247 
L 909.177772 185.36203 
L 914.010782 183.763133 
L 918.843792 186.899339 
L 923.676802 192.805541 
L 928.509812 197.400635 
L 933.342822 195.541126 
L 938.175831 188.445843 
L 943.008841 180.698056 
L 947.841851 179.204117 
L 952.674861 177.572477 
L 957.507871 170.638556 
L 962.340881 163.324562 
L 967.173891 158.371875 
L 972.006901 158.218011 
L 976.839911 162.955936 
L 981.672921 164.2355 
L 986.505931 163.476502 
L 991.338941 165.078229 
L 996.171951 166.318321 
L 1001.004961 165.032961 
L 1005.837971 165.14057 
L 1010.670981 164.769872 
L 1015.503991 161.155353 
L 1020.337001 157.350256 
" clip-path="url(#pbabb5a17e2)" style="fill: none; stroke: #00ffff; stroke-width: 1.5; stroke-linecap: square"/>
   </g>
   <g id="line2d_66">
    <path d="M 875.346702 210.24 
L 875.346702 43.92 
" clip-path="url(#pbabb5a17e2)" style="fill: none; stroke-dasharray: 5.55,2.4; stroke-dashoffset: 0; stroke: #808080; stroke-opacity: 0.7; stroke-width: 1.5"/>
   </g>
   <g id="line2d_67">
    <path d="M 1005.837971 210.24 
L 1005.837971 43.92 
" clip-path="url(#pbabb5a17e2)" style="fill: none; stroke-dasharray: 5.55,2.4; stroke-dashoffset: 0; stroke: #808080; stroke-opacity: 0.7; stroke-width: 1.5"/>
   </g>
   <g id="text_70">
    <text style="font: 12px 'Arial', sans-serif; text-anchor: middle" x="943.008841" y="37.92" transform="rotate(-0 943.008841 37.92)">1 Correct Trials</text>
   </g>
   <g id="legend_5">
    <g id="patch_25">
     <path d="M 885.100247 207.345 
L 1000.917436 207.345 
Q 1002.075436 207.345 1002.075436 206.187 
L 1002.075436 198.575864 
Q 1002.075436 197.417864 1000.917436 197.417864 
L 885.100247 197.417864 
Q 883.942247 197.417864 883.942247 198.575864 
L 883.942247 206.187 
Q 883.942247 207.345 885.100247 207.345 
z
" style="fill: #ffffff; opacity: 0.8; stroke: #cccccc; stroke-linejoin: miter"/>
    </g>
    <g id="line2d_68">
     <path d="M 886.258247 201.851738 
L 892.048247 201.851738 
L 897.838247 201.851738 
" style="fill: none; stroke: #00ffff; stroke-width: 1.5; stroke-linecap: square"/>
    </g>
    <g id="text_71">
     <text style="font: 5.79px 'Arial', sans-serif; text-anchor: start" x="902.470247" y="203.878238" transform="rotate(-0 902.470247 203.878238)">NonPref - PrevCount=1 - #Trials=54.0</text>
    </g>
   </g>
  </g>
  <g id="axes_6">
   <g id="patch_26">
    <path d="M 1062.094207 210.24 
L 1232.216159 210.24 
L 1232.216159 43.92 
L 1062.094207 43.92 
z
" style="fill: #ffffff"/>
   </g>
   <g id="PolyCollection_5">
    <defs>
     <path id="m29435682a6" d="M 1069.827023 -131.077964 
L 1069.827023 -117.431387 
L 1074.660033 -120.668943 
L 1079.493043 -120.838686 
L 1084.326053 -118.621775 
L 1089.159063 -123.302002 
L 1093.992073 -125.463103 
L 1098.825083 -122.653424 
L 1103.658093 -121.194211 
L 1108.491103 -125.051607 
L 1113.324113 -131.650167 
L 1118.157123 -138.038522 
L 1122.990133 -141.73258 
L 1127.823143 -138.71769 
L 1132.656153 -135.554669 
L 1137.489163 -139.475193 
L 1142.322173 -143.38757 
L 1147.155183 -143.901489 
L 1151.988193 -146.055149 
L 1156.821203 -149.938931 
L 1161.654213 -152.924353 
L 1166.487223 -153.789852 
L 1171.320233 -151.982882 
L 1176.153243 -148.571496 
L 1180.986253 -145.685443 
L 1185.819263 -145.694834 
L 1190.652273 -147.425341 
L 1195.485283 -151.159394 
L 1200.318293 -153.840653 
L 1205.151303 -150.947251 
L 1209.984313 -142.765176 
L 1214.817323 -138.304175 
L 1219.650333 -141.453075 
L 1224.483343 -143.654873 
L 1224.483343 -167.540646 
L 1224.483343 -167.540646 
L 1219.650333 -163.457382 
L 1214.817323 -163.480737 
L 1209.984313 -167.847475 
L 1205.151303 -174.663275 
L 1200.318293 -177.396537 
L 1195.485283 -176.036732 
L 1190.652273 -172.70462 
L 1185.819263 -170.408116 
L 1180.986253 -170.074061 
L 1176.153243 -171.773985 
L 1171.320233 -174.055654 
L 1166.487223 -174.065358 
L 1161.654213 -170.90281 
L 1156.821203 -167.769023 
L 1151.988193 -164.762797 
L 1147.155183 -161.820494 
L 1142.322173 -160.087328 
L 1137.489163 -154.882428 
L 1132.656153 -151.294967 
L 1127.823143 -154.761369 
L 1122.990133 -157.729787 
L 1118.157123 -155.254253 
L 1113.324113 -148.493118 
L 1108.491103 -139.833025 
L 1103.658093 -132.706625 
L 1098.825083 -132.575989 
L 1093.992073 -135.482258 
L 1089.159063 -133.190401 
L 1084.326053 -128.767874 
L 1079.493043 -131.45734 
L 1074.660033 -133.405602 
L 1069.827023 -131.077964 
z
" style="stroke: #00ffff; stroke-opacity: 0.1"/>
    </defs>
    <g clip-path="url(#pc198271f12)">
     <use xlink:href="#m29435682a6" x="0" y="323.436915" style="fill: #00ffff; fill-opacity: 0.1; stroke: #00ffff; stroke-opacity: 0.1"/>
    </g>
   </g>
   <g id="matplotlib.axis_11">
    <g id="xtick_15">
     <g id="line2d_69">
      <g>
       <use xlink:href="#m6a8cdac1d0" x="1079.493043" y="210.24" style="stroke: #000000; stroke-width: 0.8"/>
      </g>
     </g>
     <g id="text_72">
      <text style="font: 10px 'Arial', sans-serif" transform="translate(1048.52729 251.86503) rotate(-45)">Sampling</text>
     </g>
    </g>
    <g id="xtick_16">
     <g id="line2d_70">
      <g>
       <use xlink:href="#m6a8cdac1d0" x="1209.984313" y="210.24" style="stroke: #000000; stroke-width: 0.8"/>
      </g>
     </g>
     <g id="text_73">
      <text style="font: 10px 'Arial', sans-serif" transform="translate(1129.194048 301.686227) rotate(-45)">Movement to Lateral Port</text>
     </g>
    </g>
    <g id="text_74">
     <text style="font: 10px 'Arial', sans-serif; text-anchor: middle" x="1147.155183" y="314.249415" transform="rotate(-0 1147.155183 314.249415)">Normalized Time</text>
    </g>
   </g>
   <g id="matplotlib.axis_12">
    <g id="ytick_38">
     <g id="line2d_71">
      <g>
       <use xlink:href="#m065358bc1c" x="1062.094207" y="198.035731" style="stroke: #000000; stroke-width: 0.8"/>
      </g>
     </g>
     <g id="text_75">
      <text style="font: 10px 'Arial', sans-serif; text-anchor: end" x="1055.094207" y="201.614637" transform="rotate(-0 1055.094207 201.614637)">−0.25</text>
     </g>
    </g>
    <g id="ytick_39">
     <g id="line2d_72">
      <g>
       <use xlink:href="#m065358bc1c" x="1062.094207" y="176.936748" style="stroke: #000000; stroke-width: 0.8"/>
      </g>
     </g>
     <g id="text_76">
      <text style="font: 10px 'Arial', sans-serif; text-anchor: end" x="1055.094207" y="180.515654" transform="rotate(-0 1055.094207 180.515654)">0.00</text>
     </g>
    </g>
    <g id="ytick_40">
     <g id="line2d_73">
      <g>
       <use xlink:href="#m065358bc1c" x="1062.094207" y="155.837765" style="stroke: #000000; stroke-width: 0.8"/>
      </g>
     </g>
     <g id="text_77">
      <text style="font: 10px 'Arial', sans-serif; text-anchor: end" x="1055.094207" y="159.416671" transform="rotate(-0 1055.094207 159.416671)">0.25</text>
     </g>
    </g>
    <g id="ytick_41">
     <g id="line2d_74">
      <g>
       <use xlink:href="#m065358bc1c" x="1062.094207" y="134.738782" style="stroke: #000000; stroke-width: 0.8"/>
      </g>
     </g>
     <g id="text_78">
      <text style="font: 10px 'Arial', sans-serif; text-anchor: end" x="1055.094207" y="138.317689" transform="rotate(-0 1055.094207 138.317689)">0.50</text>
     </g>
    </g>
    <g id="ytick_42">
     <g id="line2d_75">
      <g>
       <use xlink:href="#m065358bc1c" x="1062.094207" y="113.639799" style="stroke: #000000; stroke-width: 0.8"/>
      </g>
     </g>
     <g id="text_79">
      <text style="font: 10px 'Arial', sans-serif; text-anchor: end" x="1055.094207" y="117.218706" transform="rotate(-0 1055.094207 117.218706)">0.75</text>
     </g>
    </g>
    <g id="ytick_43">
     <g id="line2d_76">
      <g>
       <use xlink:href="#m065358bc1c" x="1062.094207" y="92.540816" style="stroke: #000000; stroke-width: 0.8"/>
      </g>
     </g>
     <g id="text_80">
      <text style="font: 10px 'Arial', sans-serif; text-anchor: end" x="1055.094207" y="96.119723" transform="rotate(-0 1055.094207 96.119723)">1.00</text>
     </g>
    </g>
    <g id="ytick_44">
     <g id="line2d_77">
      <g>
       <use xlink:href="#m065358bc1c" x="1062.094207" y="71.441834" style="stroke: #000000; stroke-width: 0.8"/>
      </g>
     </g>
     <g id="text_81">
      <text style="font: 10px 'Arial', sans-serif; text-anchor: end" x="1055.094207" y="75.02074" transform="rotate(-0 1055.094207 75.02074)">1.25</text>
     </g>
    </g>
    <g id="ytick_45">
     <g id="line2d_78">
      <g>
       <use xlink:href="#m065358bc1c" x="1062.094207" y="50.342851" style="stroke: #000000; stroke-width: 0.8"/>
      </g>
     </g>
     <g id="text_82">
      <text style="font: 10px 'Arial', sans-serif; text-anchor: end" x="1055.094207" y="53.921757" transform="rotate(-0 1055.094207 53.921757)">1.50</text>
     </g>
    </g>
    <g id="text_83">
     <text style="font: 10px 'Arial', sans-serif; text-anchor: middle" x="1023.687957" y="127.08" transform="rotate(-90 1023.687957 127.08)">Mean Activity</text>
    </g>
   </g>
   <g id="line2d_79">
    <path d="M 1069.827023 199.18224 
L 1074.660033 196.399642 
L 1079.493043 197.288902 
L 1084.326053 199.742089 
L 1089.159063 195.190712 
L 1093.992073 192.964234 
L 1098.825083 195.822207 
L 1103.658093 196.486497 
L 1108.491103 190.994599 
L 1113.324113 183.365272 
L 1118.157123 176.790527 
L 1122.990133 173.705731 
L 1127.823143 176.697385 
L 1132.656153 180.012097 
L 1137.489163 176.258104 
L 1142.322173 171.699466 
L 1147.155183 170.575922 
L 1151.988193 168.027941 
L 1156.821203 164.582938 
L 1161.654213 161.523333 
L 1166.487223 159.509309 
L 1171.320233 160.417647 
L 1176.153243 163.264174 
L 1180.986253 165.557163 
L 1185.819263 165.385439 
L 1190.652273 163.371934 
L 1195.485283 159.838851 
L 1200.318293 157.818319 
L 1205.151303 160.631651 
L 1209.984313 168.130588 
L 1214.817323 172.544458 
L 1219.650333 170.981686 
L 1224.483343 167.839155 
" clip-path="url(#pc198271f12)" style="fill: none; stroke: #00ffff; stroke-width: 1.5; stroke-linecap: square"/>
   </g>
   <g id="line2d_80">
    <path d="M 1079.493043 210.24 
L 1079.493043 43.92 
" clip-path="url(#pc198271f12)" style="fill: none; stroke-dasharray: 5.55,2.4; stroke-dashoffset: 0; stroke: #808080; stroke-opacity: 0.7; stroke-width: 1.5"/>
   </g>
   <g id="line2d_81">
    <path d="M 1209.984313 210.24 
L 1209.984313 43.92 
" clip-path="url(#pc198271f12)" style="fill: none; stroke-dasharray: 5.55,2.4; stroke-dashoffset: 0; stroke: #808080; stroke-opacity: 0.7; stroke-width: 1.5"/>
   </g>
   <g id="text_84">
    <text style="font: 12px 'Arial', sans-serif; text-anchor: middle" x="1147.155183" y="37.92" transform="rotate(-0 1147.155183 37.92)">2 Correct Trials</text>
   </g>
   <g id="legend_6">
    <g id="patch_27">
     <path d="M 1089.246588 207.345 
L 1205.063777 207.345 
Q 1206.221777 207.345 1206.221777 206.187 
L 1206.221777 198.575864 
Q 1206.221777 197.417864 1205.063777 197.417864 
L 1089.246588 197.417864 
Q 1088.088588 197.417864 1088.088588 198.575864 
L 1088.088588 206.187 
Q 1088.088588 207.345 1089.246588 207.345 
z
" style="fill: #ffffff; opacity: 0.8; stroke: #cccccc; stroke-linejoin: miter"/>
    </g>
    <g id="line2d_82">
     <path d="M 1090.404588 201.851738 
L 1096.194588 201.851738 
L 1101.984588 201.851738 
" style="fill: none; stroke: #00ffff; stroke-width: 1.5; stroke-linecap: square"/>
    </g>
    <g id="text_85">
     <text style="font: 5.79px 'Arial', sans-serif; text-anchor: start" x="1106.616588" y="203.878238" transform="rotate(-0 1106.616588 203.878238)">NonPref - PrevCount=2 - #Trials=39.0</text>
    </g>
   </g>
  </g>
  <g id="axes_7">
   <g id="patch_28">
    <path d="M 1266.240549 210.24 
L 1436.3625 210.24 
L 1436.3625 43.92 
L 1266.240549 43.92 
z
" style="fill: #ffffff"/>
   </g>
   <g id="PolyCollection_6">
    <defs>
     <path id="me23fab8c04" d="M 1273.973365 -125.328995 
L 1273.973365 -116.732331 
L 1278.806375 -116.224483 
L 1283.639385 -117.193396 
L 1288.472395 -120.54441 
L 1293.305405 -123.159785 
L 1298.138415 -125.992274 
L 1302.971425 -125.69735 
L 1307.804435 -125.512149 
L 1312.637445 -126.061256 
L 1317.470455 -125.58084 
L 1322.303465 -127.149284 
L 1327.136475 -131.023968 
L 1331.969484 -132.742975 
L 1336.802494 -132.90165 
L 1341.635504 -132.834444 
L 1346.468514 -134.201028 
L 1351.301524 -136.7548 
L 1356.134534 -139.881911 
L 1360.967544 -141.379584 
L 1365.800554 -142.301831 
L 1370.633564 -147.205776 
L 1375.466574 -152.446023 
L 1380.299584 -154.391886 
L 1385.132594 -153.765406 
L 1389.965604 -150.8242 
L 1394.798614 -147.876512 
L 1399.631624 -145.098349 
L 1404.464634 -141.524695 
L 1409.297644 -138.213213 
L 1414.130654 -136.282106 
L 1418.963664 -134.671092 
L 1423.796674 -136.638664 
L 1428.629684 -141.536674 
L 1428.629684 -159.478094 
L 1428.629684 -159.478094 
L 1423.796674 -153.214349 
L 1418.963664 -149.833838 
L 1414.130654 -150.590958 
L 1409.297644 -152.653166 
L 1404.464634 -155.953824 
L 1399.631624 -159.336322 
L 1394.798614 -162.258478 
L 1389.965604 -165.704482 
L 1385.132594 -168.747628 
L 1380.299584 -169.006567 
L 1375.466574 -166.18391 
L 1370.633564 -159.836725 
L 1365.800554 -153.879933 
L 1360.967544 -152.17992 
L 1356.134534 -150.025475 
L 1351.301524 -146.804481 
L 1346.468514 -144.932655 
L 1341.635504 -143.770198 
L 1336.802494 -143.55579 
L 1331.969484 -142.938125 
L 1327.136475 -140.434924 
L 1322.303465 -136.018658 
L 1317.470455 -133.706866 
L 1312.637445 -133.738858 
L 1307.804435 -133.160836 
L 1302.971425 -133.928275 
L 1298.138415 -134.953418 
L 1293.305405 -132.70303 
L 1288.472395 -130.217063 
L 1283.639385 -126.71777 
L 1278.806375 -124.688063 
L 1273.973365 -125.328995 
z
" style="stroke: #00ffff; stroke-opacity: 0.1"/>
    </defs>
    <g clip-path="url(#p73793aa617)">
     <use xlink:href="#me23fab8c04" x="0" y="323.436915" style="fill: #00ffff; fill-opacity: 0.1; stroke: #00ffff; stroke-opacity: 0.1"/>
    </g>
   </g>
   <g id="matplotlib.axis_13">
    <g id="xtick_17">
     <g id="line2d_83">
      <g>
       <use xlink:href="#m6a8cdac1d0" x="1283.639385" y="210.24" style="stroke: #000000; stroke-width: 0.8"/>
      </g>
     </g>
     <g id="text_86">
      <text style="font: 10px 'Arial', sans-serif" transform="translate(1252.673632 251.86503) rotate(-45)">Sampling</text>
     </g>
    </g>
    <g id="xtick_18">
     <g id="line2d_84">
      <g>
       <use xlink:href="#m6a8cdac1d0" x="1414.130654" y="210.24" style="stroke: #000000; stroke-width: 0.8"/>
      </g>
     </g>
     <g id="text_87">
      <text style="font: 10px 'Arial', sans-serif" transform="translate(1333.34039 301.686227) rotate(-45)">Movement to Lateral Port</text>
     </g>
    </g>
    <g id="text_88">
     <text style="font: 10px 'Arial', sans-serif; text-anchor: middle" x="1351.301524" y="314.249415" transform="rotate(-0 1351.301524 314.249415)">Normalized Time</text>
    </g>
   </g>
   <g id="matplotlib.axis_14">
    <g id="ytick_46">
     <g id="line2d_85">
      <g>
       <use xlink:href="#m065358bc1c" x="1266.240549" y="198.035731" style="stroke: #000000; stroke-width: 0.8"/>
      </g>
     </g>
     <g id="text_89">
      <text style="font: 10px 'Arial', sans-serif; text-anchor: end" x="1259.240549" y="201.614637" transform="rotate(-0 1259.240549 201.614637)">−0.25</text>
     </g>
    </g>
    <g id="ytick_47">
     <g id="line2d_86">
      <g>
       <use xlink:href="#m065358bc1c" x="1266.240549" y="176.936748" style="stroke: #000000; stroke-width: 0.8"/>
      </g>
     </g>
     <g id="text_90">
      <text style="font: 10px 'Arial', sans-serif; text-anchor: end" x="1259.240549" y="180.515654" transform="rotate(-0 1259.240549 180.515654)">0.00</text>
     </g>
    </g>
    <g id="ytick_48">
     <g id="line2d_87">
      <g>
       <use xlink:href="#m065358bc1c" x="1266.240549" y="155.837765" style="stroke: #000000; stroke-width: 0.8"/>
      </g>
     </g>
     <g id="text_91">
      <text style="font: 10px 'Arial', sans-serif; text-anchor: end" x="1259.240549" y="159.416671" transform="rotate(-0 1259.240549 159.416671)">0.25</text>
     </g>
    </g>
    <g id="ytick_49">
     <g id="line2d_88">
      <g>
       <use xlink:href="#m065358bc1c" x="1266.240549" y="134.738782" style="stroke: #000000; stroke-width: 0.8"/>
      </g>
     </g>
     <g id="text_92">
      <text style="font: 10px 'Arial', sans-serif; text-anchor: end" x="1259.240549" y="138.317689" transform="rotate(-0 1259.240549 138.317689)">0.50</text>
     </g>
    </g>
    <g id="ytick_50">
     <g id="line2d_89">
      <g>
       <use xlink:href="#m065358bc1c" x="1266.240549" y="113.639799" style="stroke: #000000; stroke-width: 0.8"/>
      </g>
     </g>
     <g id="text_93">
      <text style="font: 10px 'Arial', sans-serif; text-anchor: end" x="1259.240549" y="117.218706" transform="rotate(-0 1259.240549 117.218706)">0.75</text>
     </g>
    </g>
    <g id="ytick_51">
     <g id="line2d_90">
      <g>
       <use xlink:href="#m065358bc1c" x="1266.240549" y="92.540816" style="stroke: #000000; stroke-width: 0.8"/>
      </g>
     </g>
     <g id="text_94">
      <text style="font: 10px 'Arial', sans-serif; text-anchor: end" x="1259.240549" y="96.119723" transform="rotate(-0 1259.240549 96.119723)">1.00</text>
     </g>
    </g>
    <g id="ytick_52">
     <g id="line2d_91">
      <g>
       <use xlink:href="#m065358bc1c" x="1266.240549" y="71.441834" style="stroke: #000000; stroke-width: 0.8"/>
      </g>
     </g>
     <g id="text_95">
      <text style="font: 10px 'Arial', sans-serif; text-anchor: end" x="1259.240549" y="75.02074" transform="rotate(-0 1259.240549 75.02074)">1.25</text>
     </g>
    </g>
    <g id="ytick_53">
     <g id="line2d_92">
      <g>
       <use xlink:href="#m065358bc1c" x="1266.240549" y="50.342851" style="stroke: #000000; stroke-width: 0.8"/>
      </g>
     </g>
     <g id="text_96">
      <text style="font: 10px 'Arial', sans-serif; text-anchor: end" x="1259.240549" y="53.921757" transform="rotate(-0 1259.240549 53.921757)">1.50</text>
     </g>
    </g>
    <g id="text_97">
     <text style="font: 10px 'Arial', sans-serif; text-anchor: middle" x="1227.834299" y="127.08" transform="rotate(-90 1227.834299 127.08)">Mean Activity</text>
    </g>
   </g>
   <g id="line2d_93">
    <path d="M 1273.973365 202.406252 
L 1278.806375 202.980642 
L 1283.639385 201.481331 
L 1288.472395 198.056177 
L 1293.305405 195.505507 
L 1298.138415 192.964068 
L 1302.971425 193.624102 
L 1307.804435 194.100422 
L 1312.637445 193.536857 
L 1317.470455 193.793061 
L 1322.303465 191.852943 
L 1327.136475 187.707469 
L 1331.969484 185.596364 
L 1336.802494 185.208194 
L 1341.635504 185.134593 
L 1346.468514 183.870074 
L 1351.301524 181.657274 
L 1356.134534 178.483221 
L 1360.967544 176.657163 
L 1365.800554 175.346033 
L 1370.633564 169.915664 
L 1375.466574 164.121948 
L 1380.299584 161.737688 
L 1385.132594 162.180397 
L 1389.965604 165.172573 
L 1394.798614 168.369419 
L 1399.631624 171.219579 
L 1404.464634 174.697655 
L 1409.297644 178.003725 
L 1414.130654 180.000382 
L 1418.963664 181.184449 
L 1423.796674 178.510408 
L 1428.629684 172.929531 
" clip-path="url(#p73793aa617)" style="fill: none; stroke: #00ffff; stroke-width: 1.5; stroke-linecap: square"/>
   </g>
   <g id="line2d_94">
    <path d="M 1283.639385 210.24 
L 1283.639385 43.92 
" clip-path="url(#p73793aa617)" style="fill: none; stroke-dasharray: 5.55,2.4; stroke-dashoffset: 0; stroke: #808080; stroke-opacity: 0.7; stroke-width: 1.5"/>
   </g>
   <g id="line2d_95">
    <path d="M 1414.130654 210.24 
L 1414.130654 43.92 
" clip-path="url(#p73793aa617)" style="fill: none; stroke-dasharray: 5.55,2.4; stroke-dashoffset: 0; stroke: #808080; stroke-opacity: 0.7; stroke-width: 1.5"/>
   </g>
   <g id="text_98">
    <text style="font: 12px 'Arial', sans-serif; text-anchor: middle" x="1351.301524" y="37.92" transform="rotate(-0 1351.301524 37.92)">3 Correct Trials</text>
   </g>
   <g id="legend_7">
    <g id="patch_29">
     <path d="M 1291.783038 207.345 
L 1410.82001 207.345 
Q 1411.97801 207.345 1411.97801 206.187 
L 1411.97801 198.575864 
Q 1411.97801 197.417864 1410.82001 197.417864 
L 1291.783038 197.417864 
Q 1290.625038 197.417864 1290.625038 198.575864 
L 1290.625038 206.187 
Q 1290.625038 207.345 1291.783038 207.345 
z
" style="fill: #ffffff; opacity: 0.8; stroke: #cccccc; stroke-linejoin: miter"/>
    </g>
    <g id="line2d_96">
     <path d="M 1292.941038 201.851738 
L 1298.731038 201.851738 
L 1304.521038 201.851738 
" style="fill: none; stroke: #00ffff; stroke-width: 1.5; stroke-linecap: square"/>
    </g>
    <g id="text_99">
     <text style="font: 5.79px 'Arial', sans-serif; text-anchor: start" x="1309.153038" y="203.878238" transform="rotate(-0 1309.153038 203.878238)">NonPref - PrevCount=3 - #Trials=100.0</text>
    </g>
   </g>
  </g>
  <g id="text_100">
   <text style="font: 12px 'Arial', sans-serif; text-anchor: middle" x="716.3625" y="15.935625" transform="rotate(-0 716.3625 15.935625)">Balance Change - ALM - gp4_81_S8_L65_D250_ALM_47 - PrevChoiceCorrect</text>
  </g>
 </g>
 <defs>
  <clipPath id="ped4214251d">
   <rect x="41.3625" y="43.92" width="170.121951" height="166.32"/>
  </clipPath>
  <clipPath id="pef17f81b28">
   <rect x="245.508841" y="43.92" width="170.121951" height="166.32"/>
  </clipPath>
  <clipPath id="p5f46dca305">
   <rect x="449.655183" y="43.92" width="170.121951" height="166.32"/>
  </clipPath>
  <clipPath id="p31f8dae317">
   <rect x="653.801524" y="43.92" width="170.121951" height="166.32"/>
  </clipPath>
  <clipPath id="pbabb5a17e2">
   <rect x="857.947866" y="43.92" width="170.121951" height="166.32"/>
  </clipPath>
  <clipPath id="pc198271f12">
   <rect x="1062.094207" y="43.92" width="170.121951" height="166.32"/>
  </clipPath>
  <clipPath id="p73793aa617">
   <rect x="1266.240549" y="43.92" width="170.121951" height="166.32"/>
  </clipPath>
 </defs>
</svg>
