<?xml version="1.0" encoding="utf-8" standalone="no"?>
<!DOCTYPE svg PUBLIC "-//W3C//DTD SVG 1.1//EN"
  "http://www.w3.org/Graphics/SVG/1.1/DTD/svg11.dtd">
<svg xmlns:xlink="http://www.w3.org/1999/xlink" width="1443.5625pt" height="323.436915pt" viewBox="0 0 1443.5625 323.436915" xmlns="http://www.w3.org/2000/svg" version="1.1">
 <metadata>
  <rdf:RDF xmlns:dc="http://purl.org/dc/elements/1.1/" xmlns:cc="http://creativecommons.org/ns#" xmlns:rdf="http://www.w3.org/1999/02/22-rdf-syntax-ns#">
   <cc:Work>
    <dc:type rdf:resource="http://purl.org/dc/dcmitype/StillImage"/>
    <dc:date>2025-12-27T14:02:08.777942</dc:date>
    <dc:format>image/svg+xml</dc:format>
    <dc:creator>
     <cc:Agent>
      <dc:title>Matplotlib v3.8.0, https://matplotlib.org/</dc:title>
     </cc:Agent>
    </dc:creator>
   </cc:Work>
  </rdf:RDF>
 </metadata>
 <defs>
  <style type="text/css">*{stroke-linejoin: round; stroke-linecap: butt}</style>
 </defs>
 <g id="figure_1">
  <g id="patch_1">
   <path d="M 0 323.436915 
L 1443.5625 323.436915 
L 1443.5625 0 
L 0 0 
z
" style="fill: #ffffff"/>
  </g>
  <g id="axes_1">
   <g id="patch_2">
    <path d="M 41.3625 210.24 
L 211.484451 210.24 
L 211.484451 43.92 
L 41.3625 43.92 
z
" style="fill: #ffffff"/>
   </g>
   <g id="patch_3">
    <path d="M 49.095316 210.24 
L 58.192747 210.24 
L 58.192747 154.774515 
L 49.095316 154.774515 
z
" clip-path="url(#p6db709a46d)" style="fill: #ff00ff"/>
   </g>
   <g id="patch_4">
    <path d="M 71.838892 210.24 
L 80.936323 210.24 
L 80.936323 92.650106 
L 71.838892 92.650106 
z
" clip-path="url(#p6db709a46d)" style="fill: #ff00ff"/>
   </g>
   <g id="patch_5">
    <path d="M 94.582469 210.24 
L 103.679899 210.24 
L 103.679899 73.244386 
L 94.582469 73.244386 
z
" clip-path="url(#p6db709a46d)" style="fill: #ff00ff"/>
   </g>
   <g id="patch_6">
    <path d="M 0 0 
z
" clip-path="url(#p6db709a46d)" style="fill: #ff00ff"/>
   </g>
   <g id="patch_7">
    <path d="M 0 0 
z
" clip-path="url(#p6db709a46d)" style="fill: #ff00ff"/>
   </g>
   <g id="patch_8">
    <path d="M 0 0 
z
" clip-path="url(#p6db709a46d)" style="fill: #ff00ff"/>
   </g>
   <g id="patch_9">
    <path d="M 0 0 
z
" clip-path="url(#p6db709a46d)" style="fill: #00ffff"/>
   </g>
   <g id="patch_10">
    <path d="M 0 0 
z
" clip-path="url(#p6db709a46d)" style="fill: #00ffff"/>
   </g>
   <g id="patch_11">
    <path d="M 0 0 
z
" clip-path="url(#p6db709a46d)" style="fill: #00ffff"/>
   </g>
   <g id="patch_12">
    <path d="M 149.167052 210.24 
L 158.264483 210.24 
L 158.264483 132.326568 
L 149.167052 132.326568 
z
" clip-path="url(#p6db709a46d)" style="fill: #00ffff"/>
   </g>
   <g id="patch_13">
    <path d="M 171.910628 210.24 
L 181.008059 210.24 
L 181.008059 177.180459 
L 171.910628 177.180459 
z
" clip-path="url(#p6db709a46d)" style="fill: #00ffff"/>
   </g>
   <g id="patch_14">
    <path d="M 194.654205 210.24 
L 203.751635 210.24 
L 203.751635 128.841513 
L 194.654205 128.841513 
z
" clip-path="url(#p6db709a46d)" style="fill: #00ffff"/>
   </g>
   <g id="matplotlib.axis_1">
    <g id="xtick_1">
     <g id="line2d_1">
      <defs>
       <path id="m36e6e1ddc3" d="M 0 0 
L 0 3.5 
" style="stroke: #000000; stroke-width: 0.8"/>
      </defs>
      <g>
       <use xlink:href="#m36e6e1ddc3" x="58.192747" y="210.24" style="stroke: #000000; stroke-width: 0.8"/>
      </g>
     </g>
     <g id="text_1">
      <text style="font: 10px 'Arial', sans-serif; text-anchor: middle" x="58.192747" y="224.397813" transform="rotate(-0 58.192747 224.397813)">−3</text>
     </g>
    </g>
    <g id="xtick_2">
     <g id="line2d_2">
      <g>
       <use xlink:href="#m36e6e1ddc3" x="80.936323" y="210.24" style="stroke: #000000; stroke-width: 0.8"/>
      </g>
     </g>
     <g id="text_2">
      <text style="font: 10px 'Arial', sans-serif; text-anchor: middle" x="80.936323" y="224.397813" transform="rotate(-0 80.936323 224.397813)">−2</text>
     </g>
    </g>
    <g id="xtick_3">
     <g id="line2d_3">
      <g>
       <use xlink:href="#m36e6e1ddc3" x="103.679899" y="210.24" style="stroke: #000000; stroke-width: 0.8"/>
      </g>
     </g>
     <g id="text_3">
      <text style="font: 10px 'Arial', sans-serif; text-anchor: middle" x="103.679899" y="224.397813" transform="rotate(-0 103.679899 224.397813)">−1</text>
     </g>
    </g>
    <g id="xtick_4">
     <g id="line2d_4">
      <g>
       <use xlink:href="#m36e6e1ddc3" x="149.167052" y="210.24" style="stroke: #000000; stroke-width: 0.8"/>
      </g>
     </g>
     <g id="text_4">
      <text style="font: 10px 'Arial', sans-serif; text-anchor: middle" x="149.167052" y="224.397813" transform="rotate(-0 149.167052 224.397813)">1</text>
     </g>
    </g>
    <g id="xtick_5">
     <g id="line2d_5">
      <g>
       <use xlink:href="#m36e6e1ddc3" x="171.910628" y="210.24" style="stroke: #000000; stroke-width: 0.8"/>
      </g>
     </g>
     <g id="text_5">
      <text style="font: 10px 'Arial', sans-serif; text-anchor: middle" x="171.910628" y="224.397813" transform="rotate(-0 171.910628 224.397813)">2</text>
     </g>
    </g>
    <g id="xtick_6">
     <g id="line2d_6">
      <g>
       <use xlink:href="#m36e6e1ddc3" x="194.654205" y="210.24" style="stroke: #000000; stroke-width: 0.8"/>
      </g>
     </g>
     <g id="text_6">
      <text style="font: 10px 'Arial', sans-serif; text-anchor: middle" x="194.654205" y="224.397813" transform="rotate(-0 194.654205 224.397813)">3</text>
     </g>
    </g>
    <g id="text_7">
     <text style="font: 10px 'Arial', sans-serif; text-anchor: middle" x="126.423476" y="237.543125" transform="rotate(-0 126.423476 237.543125)">PrevOutcomeCount</text>
    </g>
   </g>
   <g id="matplotlib.axis_2">
    <g id="ytick_1">
     <g id="line2d_7">
      <defs>
       <path id="m8d19b4cd42" d="M 0 0 
L -3.5 0 
" style="stroke: #000000; stroke-width: 0.8"/>
      </defs>
      <g>
       <use xlink:href="#m8d19b4cd42" x="41.3625" y="210.24" style="stroke: #000000; stroke-width: 0.8"/>
      </g>
     </g>
     <g id="text_8">
      <text style="font: 10px 'Arial', sans-serif; text-anchor: end" x="34.3625" y="213.818906" transform="rotate(-0 34.3625 213.818906)">0.0</text>
     </g>
    </g>
    <g id="ytick_2">
     <g id="line2d_8">
      <g>
       <use xlink:href="#m8d19b4cd42" x="41.3625" y="175.636588" style="stroke: #000000; stroke-width: 0.8"/>
      </g>
     </g>
     <g id="text_9">
      <text style="font: 10px 'Arial', sans-serif; text-anchor: end" x="34.3625" y="179.215494" transform="rotate(-0 34.3625 179.215494)">0.5</text>
     </g>
    </g>
    <g id="ytick_3">
     <g id="line2d_9">
      <g>
       <use xlink:href="#m8d19b4cd42" x="41.3625" y="141.033175" style="stroke: #000000; stroke-width: 0.8"/>
      </g>
     </g>
     <g id="text_10">
      <text style="font: 10px 'Arial', sans-serif; text-anchor: end" x="34.3625" y="144.612082" transform="rotate(-0 34.3625 144.612082)">1.0</text>
     </g>
    </g>
    <g id="ytick_4">
     <g id="line2d_10">
      <g>
       <use xlink:href="#m8d19b4cd42" x="41.3625" y="106.429763" style="stroke: #000000; stroke-width: 0.8"/>
      </g>
     </g>
     <g id="text_11">
      <text style="font: 10px 'Arial', sans-serif; text-anchor: end" x="34.3625" y="110.008669" transform="rotate(-0 34.3625 110.008669)">1.5</text>
     </g>
    </g>
    <g id="ytick_5">
     <g id="line2d_11">
      <g>
       <use xlink:href="#m8d19b4cd42" x="41.3625" y="71.826351" style="stroke: #000000; stroke-width: 0.8"/>
      </g>
     </g>
     <g id="text_12">
      <text style="font: 10px 'Arial', sans-serif; text-anchor: end" x="34.3625" y="75.405257" transform="rotate(-0 34.3625 75.405257)">2.0</text>
     </g>
    </g>
    <g id="text_13">
     <text style="font: 10px 'Arial', sans-serif; text-anchor: middle" x="14.357813" y="127.08" transform="rotate(-90 14.357813 127.08)">Max Activity</text>
    </g>
   </g>
   <g id="LineCollection_1">
    <path d="M 53.644031 203.943334 
L 53.644031 105.605697 
" clip-path="url(#p6db709a46d)" style="fill: none; stroke: #000000; stroke-width: 1.5"/>
    <path d="M 76.387608 118.644056 
L 76.387608 66.656156 
" clip-path="url(#p6db709a46d)" style="fill: none; stroke: #000000; stroke-width: 1.5"/>
    <path d="M 99.131184 94.648772 
L 99.131184 51.84 
" clip-path="url(#p6db709a46d)" style="fill: none; stroke: #000000; stroke-width: 1.5"/>
    <path clip-path="url(#p6db709a46d)" style="fill: none; stroke: #000000; stroke-width: 1.5"/>
    <path clip-path="url(#p6db709a46d)" style="fill: none; stroke: #000000; stroke-width: 1.5"/>
    <path clip-path="url(#p6db709a46d)" style="fill: none; stroke: #000000; stroke-width: 1.5"/>
   </g>
   <g id="LineCollection_2">
    <path clip-path="url(#p6db709a46d)" style="fill: none; stroke: #000000; stroke-width: 1.5"/>
    <path clip-path="url(#p6db709a46d)" style="fill: none; stroke: #000000; stroke-width: 1.5"/>
    <path clip-path="url(#p6db709a46d)" style="fill: none; stroke: #000000; stroke-width: 1.5"/>
    <path d="M 153.715767 152.415955 
L 153.715767 112.237182 
" clip-path="url(#p6db709a46d)" style="fill: none; stroke: #000000; stroke-width: 1.5"/>
    <path d="M 176.459344 191.569249 
L 176.459344 162.79167 
" clip-path="url(#p6db709a46d)" style="fill: none; stroke: #000000; stroke-width: 1.5"/>
    <path d="M 199.20292 137.977421 
L 199.20292 119.705606 
" clip-path="url(#p6db709a46d)" style="fill: none; stroke: #000000; stroke-width: 1.5"/>
   </g>
   <g id="line2d_12">
    <path d="M 41.3625 210.24 
L 211.484451 210.24 
" clip-path="url(#p6db709a46d)" style="fill: none; stroke-dasharray: 5.55,2.4; stroke-dashoffset: 0; stroke: #808080; stroke-width: 1.5"/>
   </g>
   <g id="legend_1">
    <g id="patch_15">
     <path d="M 132.471951 80.210625 
L 204.484451 80.210625 
Q 206.484451 80.210625 206.484451 78.210625 
L 206.484451 50.92 
Q 206.484451 48.92 204.484451 48.92 
L 132.471951 48.92 
Q 130.471951 48.92 130.471951 50.92 
L 130.471951 78.210625 
Q 130.471951 80.210625 132.471951 80.210625 
z
" style="fill: #ffffff; opacity: 0.8; stroke: #cccccc; stroke-linejoin: miter"/>
    </g>
    <g id="patch_16">
     <path d="M 134.471951 60.077812 
L 154.471951 60.077812 
L 154.471951 53.077812 
L 134.471951 53.077812 
z
" style="fill: #ff00ff"/>
    </g>
    <g id="text_14">
     <text style="font: 10px 'Arial', sans-serif; text-anchor: start" x="162.471951" y="60.077812" transform="rotate(-0 162.471951 60.077812)">Pref</text>
    </g>
    <g id="patch_17">
     <path d="M 134.471951 74.223125 
L 154.471951 74.223125 
L 154.471951 67.223125 
L 134.471951 67.223125 
z
" style="fill: #00ffff"/>
    </g>
    <g id="text_15">
     <text style="font: 10px 'Arial', sans-serif; text-anchor: start" x="162.471951" y="74.223125" transform="rotate(-0 162.471951 74.223125)">Non-Pref</text>
    </g>
   </g>
  </g>
  <g id="axes_2">
   <g id="patch_18">
    <path d="M 245.508841 210.24 
L 415.630793 210.24 
L 415.630793 43.92 
L 245.508841 43.92 
z
" style="fill: #ffffff"/>
   </g>
   <g id="PolyCollection_1">
    <defs>
     <path id="m4c29b17bbf" d="M 253.241657 -183.175031 
L 253.241657 -122.465643 
L 258.074667 -121.493391 
L 262.907677 -124.688132 
L 267.740687 -130.894644 
L 272.573697 -132.961244 
L 277.406707 -133.750652 
L 282.239717 -136.97632 
L 287.072727 -139.612422 
L 291.905737 -141.148689 
L 296.738747 -144.763686 
L 301.571757 -147.607928 
L 306.404767 -146.996063 
L 311.237777 -143.406301 
L 316.070787 -143.013052 
L 320.903797 -142.684733 
L 325.736807 -143.87616 
L 330.569817 -142.408733 
L 335.402827 -144.852877 
L 340.235837 -143.640068 
L 345.068847 -143.229779 
L 349.901857 -142.751732 
L 354.734867 -149.178063 
L 359.567877 -145.029084 
L 364.400887 -126.619328 
L 369.233897 -129.46332 
L 374.066907 -135.02431 
L 378.899917 -139.326155 
L 383.732927 -147.117436 
L 388.565937 -143.358725 
L 393.398947 -136.246612 
L 398.231957 -137.596546 
L 403.064967 -139.02787 
L 407.897977 -143.141892 
L 407.897977 -213.205132 
L 407.897977 -213.205132 
L 403.064967 -197.604328 
L 398.231957 -185.011184 
L 393.398947 -189.975791 
L 388.565937 -215.496663 
L 383.732927 -216.008642 
L 378.899917 -204.211396 
L 374.066907 -206.223451 
L 369.233897 -212.314829 
L 364.400887 -218.618269 
L 359.567877 -231.220944 
L 354.734867 -238.303572 
L 349.901857 -234.254647 
L 345.068847 -225.678998 
L 340.235837 -223.482207 
L 335.402827 -226.944515 
L 330.569817 -218.504996 
L 325.736807 -212.207451 
L 320.903797 -206.234909 
L 316.070787 -203.575167 
L 311.237777 -207.107184 
L 306.404767 -208.861363 
L 301.571757 -199.019911 
L 296.738747 -194.509137 
L 291.905737 -195.3606 
L 287.072727 -197.317616 
L 282.239717 -203.088062 
L 277.406707 -205.552794 
L 272.573697 -202.500875 
L 267.740687 -197.337469 
L 262.907677 -195.460067 
L 258.074667 -188.692721 
L 253.241657 -183.175031 
z
" style="stroke: #ff00ff; stroke-opacity: 0.1"/>
    </defs>
    <g clip-path="url(#pbd447f7478)">
     <use xlink:href="#m4c29b17bbf" x="0" y="323.436915" style="fill: #ff00ff; fill-opacity: 0.1; stroke: #ff00ff; stroke-opacity: 0.1"/>
    </g>
   </g>
   <g id="matplotlib.axis_3">
    <g id="xtick_7">
     <g id="line2d_13">
      <g>
       <use xlink:href="#m36e6e1ddc3" x="262.907677" y="210.24" style="stroke: #000000; stroke-width: 0.8"/>
      </g>
     </g>
     <g id="text_16">
      <text style="font: 10px 'Arial', sans-serif" transform="translate(231.941925 251.86503) rotate(-45)">Sampling</text>
     </g>
    </g>
    <g id="xtick_8">
     <g id="line2d_14">
      <g>
       <use xlink:href="#m36e6e1ddc3" x="393.398947" y="210.24" style="stroke: #000000; stroke-width: 0.8"/>
      </g>
     </g>
     <g id="text_17">
      <text style="font: 10px 'Arial', sans-serif" transform="translate(312.608682 301.686227) rotate(-45)">Movement to Lateral Port</text>
     </g>
    </g>
    <g id="text_18">
     <text style="font: 10px 'Arial', sans-serif; text-anchor: middle" x="330.569817" y="314.249415" transform="rotate(-0 330.569817 314.249415)">Normalized Time</text>
    </g>
   </g>
   <g id="matplotlib.axis_4">
    <g id="ytick_6">
     <g id="line2d_15">
      <g>
       <use xlink:href="#m8d19b4cd42" x="245.508841" y="187.171231" style="stroke: #000000; stroke-width: 0.8"/>
      </g>
     </g>
     <g id="text_19">
      <text style="font: 10px 'Arial', sans-serif; text-anchor: end" x="238.508841" y="190.750138" transform="rotate(-0 238.508841 190.750138)">−0.5</text>
     </g>
    </g>
    <g id="ytick_7">
     <g id="line2d_16">
      <g>
       <use xlink:href="#m8d19b4cd42" x="245.508841" y="157.886242" style="stroke: #000000; stroke-width: 0.8"/>
      </g>
     </g>
     <g id="text_20">
      <text style="font: 10px 'Arial', sans-serif; text-anchor: end" x="238.508841" y="161.465148" transform="rotate(-0 238.508841 161.465148)">0.0</text>
     </g>
    </g>
    <g id="ytick_8">
     <g id="line2d_17">
      <g>
       <use xlink:href="#m8d19b4cd42" x="245.508841" y="128.601252" style="stroke: #000000; stroke-width: 0.8"/>
      </g>
     </g>
     <g id="text_21">
      <text style="font: 10px 'Arial', sans-serif; text-anchor: end" x="238.508841" y="132.180158" transform="rotate(-0 238.508841 132.180158)">0.5</text>
     </g>
    </g>
    <g id="ytick_9">
     <g id="line2d_18">
      <g>
       <use xlink:href="#m8d19b4cd42" x="245.508841" y="99.316262" style="stroke: #000000; stroke-width: 0.8"/>
      </g>
     </g>
     <g id="text_22">
      <text style="font: 10px 'Arial', sans-serif; text-anchor: end" x="238.508841" y="102.895169" transform="rotate(-0 238.508841 102.895169)">1.0</text>
     </g>
    </g>
    <g id="ytick_10">
     <g id="line2d_19">
      <g>
       <use xlink:href="#m8d19b4cd42" x="245.508841" y="70.031273" style="stroke: #000000; stroke-width: 0.8"/>
      </g>
     </g>
     <g id="text_23">
      <text style="font: 10px 'Arial', sans-serif; text-anchor: end" x="238.508841" y="73.610179" transform="rotate(-0 238.508841 73.610179)">1.5</text>
     </g>
    </g>
    <g id="text_24">
     <text style="font: 10px 'Arial', sans-serif; text-anchor: middle" x="212.663529" y="127.08" transform="rotate(-90 212.663529 127.08)">Mean Activity</text>
    </g>
   </g>
   <g id="line2d_20">
    <path d="M 253.241657 170.616578 
L 258.074667 168.343858 
L 262.907677 163.362814 
L 267.740687 159.320858 
L 272.573697 155.705856 
L 277.406707 153.785192 
L 282.239717 153.404724 
L 287.072727 154.971895 
L 291.905737 155.18227 
L 296.738747 153.800503 
L 301.571757 150.122995 
L 306.404767 145.508202 
L 311.237777 148.180172 
L 316.070787 150.142806 
L 320.903797 148.977093 
L 325.736807 145.395109 
L 330.569817 142.980049 
L 335.402827 137.538217 
L 340.235837 139.875777 
L 345.068847 138.982524 
L 349.901857 134.933726 
L 354.734867 129.696095 
L 359.567877 135.311899 
L 364.400887 150.818115 
L 369.233897 152.547839 
L 374.066907 152.813033 
L 378.899917 151.668139 
L 383.732927 141.873876 
L 388.565937 144.009221 
L 393.398947 160.325714 
L 398.231957 162.133049 
L 403.064967 155.120815 
L 407.897977 145.263402 
" clip-path="url(#pbd447f7478)" style="fill: none; stroke: #ff00ff; stroke-width: 1.5; stroke-linecap: square"/>
   </g>
   <g id="line2d_21">
    <path d="M 262.907677 210.24 
L 262.907677 43.92 
" clip-path="url(#pbd447f7478)" style="fill: none; stroke-dasharray: 5.55,2.4; stroke-dashoffset: 0; stroke: #808080; stroke-opacity: 0.7; stroke-width: 1.5"/>
   </g>
   <g id="line2d_22">
    <path d="M 393.398947 210.24 
L 393.398947 43.92 
" clip-path="url(#pbd447f7478)" style="fill: none; stroke-dasharray: 5.55,2.4; stroke-dashoffset: 0; stroke: #808080; stroke-opacity: 0.7; stroke-width: 1.5"/>
   </g>
   <g id="text_25">
    <text style="font: 12px 'Arial', sans-serif; text-anchor: middle" x="330.569817" y="37.92" transform="rotate(-0 330.569817 37.92)">3 Incorrect Trials</text>
   </g>
   <g id="legend_2">
    <g id="patch_19">
     <path d="M 278.617685 207.345 
L 382.521949 207.345 
Q 383.679949 207.345 383.679949 206.187 
L 383.679949 198.575864 
Q 383.679949 197.417864 382.521949 197.417864 
L 278.617685 197.417864 
Q 277.459685 197.417864 277.459685 198.575864 
L 277.459685 206.187 
Q 277.459685 207.345 278.617685 207.345 
z
" style="fill: #ffffff; opacity: 0.8; stroke: #cccccc; stroke-linejoin: miter"/>
    </g>
    <g id="line2d_23">
     <path d="M 279.775685 201.851738 
L 285.565685 201.851738 
L 291.355685 201.851738 
" style="fill: none; stroke: #ff00ff; stroke-width: 1.5; stroke-linecap: square"/>
    </g>
    <g id="text_26">
     <text style="font: 5.79px 'Arial', sans-serif; text-anchor: start" x="295.987685" y="203.878238" transform="rotate(-0 295.987685 203.878238)">Pref - PrevCount=-3 - #Trials=5.0</text>
    </g>
   </g>
  </g>
  <g id="axes_3">
   <g id="patch_20">
    <path d="M 449.655183 210.24 
L 619.777134 210.24 
L 619.777134 43.92 
L 449.655183 43.92 
z
" style="fill: #ffffff"/>
   </g>
   <g id="PolyCollection_2">
    <defs>
     <path id="mbc177d8237" d="M 457.387999 -170.316258 
L 457.387999 -141.298346 
L 462.221009 -137.644401 
L 467.054019 -137.447101 
L 471.887029 -144.321731 
L 476.720039 -142.03335 
L 481.553049 -137.607633 
L 486.386059 -141.647648 
L 491.219069 -146.550404 
L 496.052079 -146.235892 
L 500.885089 -147.419645 
L 505.718099 -151.816221 
L 510.551109 -152.227283 
L 515.384119 -159.295136 
L 520.217129 -166.14894 
L 525.050139 -162.712335 
L 529.883149 -164.824981 
L 534.716159 -169.906822 
L 539.549169 -171.882644 
L 544.382178 -172.859675 
L 549.215188 -177.205909 
L 554.048198 -183.090285 
L 558.881208 -185.350236 
L 563.714218 -184.339827 
L 568.547228 -186.277532 
L 573.380238 -195.40885 
L 578.213248 -203.049625 
L 583.046258 -205.725621 
L 587.879268 -204.511793 
L 592.712278 -205.795393 
L 597.545288 -208.130894 
L 602.378298 -221.976077 
L 607.211308 -225.744036 
L 612.044318 -227.051138 
L 612.044318 -262.674437 
L 612.044318 -262.674437 
L 607.211308 -263.488493 
L 602.378298 -264.215181 
L 597.545288 -255.06492 
L 592.712278 -254.960671 
L 587.879268 -256.978745 
L 583.046258 -261.599063 
L 578.213248 -261.93243 
L 573.380238 -250.846414 
L 568.547228 -234.254975 
L 563.714218 -231.652186 
L 558.881208 -232.571922 
L 554.048198 -229.250914 
L 549.215188 -221.640245 
L 544.382178 -214.130419 
L 539.549169 -211.368306 
L 534.716159 -209.135965 
L 529.883149 -206.226467 
L 525.050139 -206.736397 
L 520.217129 -207.759311 
L 515.384119 -199.109128 
L 510.551109 -194.955426 
L 505.718099 -194.75508 
L 500.885089 -188.919291 
L 496.052079 -185.593155 
L 491.219069 -185.423357 
L 486.386059 -182.431717 
L 481.553049 -179.20279 
L 476.720039 -180.144548 
L 471.887029 -179.900592 
L 467.054019 -174.966304 
L 462.221009 -172.240488 
L 457.387999 -170.316258 
z
" style="stroke: #ff00ff; stroke-opacity: 0.1"/>
    </defs>
    <g clip-path="url(#p9664535734)">
     <use xlink:href="#mbc177d8237" x="0" y="323.436915" style="fill: #ff00ff; fill-opacity: 0.1; stroke: #ff00ff; stroke-opacity: 0.1"/>
    </g>
   </g>
   <g id="matplotlib.axis_5">
    <g id="xtick_9">
     <g id="line2d_24">
      <g>
       <use xlink:href="#m36e6e1ddc3" x="467.054019" y="210.24" style="stroke: #000000; stroke-width: 0.8"/>
      </g>
     </g>
     <g id="text_27">
      <text style="font: 10px 'Arial', sans-serif" transform="translate(436.088266 251.86503) rotate(-45)">Sampling</text>
     </g>
    </g>
    <g id="xtick_10">
     <g id="line2d_25">
      <g>
       <use xlink:href="#m36e6e1ddc3" x="597.545288" y="210.24" style="stroke: #000000; stroke-width: 0.8"/>
      </g>
     </g>
     <g id="text_28">
      <text style="font: 10px 'Arial', sans-serif" transform="translate(516.755024 301.686227) rotate(-45)">Movement to Lateral Port</text>
     </g>
    </g>
    <g id="text_29">
     <text style="font: 10px 'Arial', sans-serif; text-anchor: middle" x="534.716159" y="314.249415" transform="rotate(-0 534.716159 314.249415)">Normalized Time</text>
    </g>
   </g>
   <g id="matplotlib.axis_6">
    <g id="ytick_11">
     <g id="line2d_26">
      <g>
       <use xlink:href="#m8d19b4cd42" x="449.655183" y="187.171231" style="stroke: #000000; stroke-width: 0.8"/>
      </g>
     </g>
     <g id="text_30">
      <text style="font: 10px 'Arial', sans-serif; text-anchor: end" x="442.655183" y="190.750138" transform="rotate(-0 442.655183 190.750138)">−0.5</text>
     </g>
    </g>
    <g id="ytick_12">
     <g id="line2d_27">
      <g>
       <use xlink:href="#m8d19b4cd42" x="449.655183" y="157.886242" style="stroke: #000000; stroke-width: 0.8"/>
      </g>
     </g>
     <g id="text_31">
      <text style="font: 10px 'Arial', sans-serif; text-anchor: end" x="442.655183" y="161.465148" transform="rotate(-0 442.655183 161.465148)">0.0</text>
     </g>
    </g>
    <g id="ytick_13">
     <g id="line2d_28">
      <g>
       <use xlink:href="#m8d19b4cd42" x="449.655183" y="128.601252" style="stroke: #000000; stroke-width: 0.8"/>
      </g>
     </g>
     <g id="text_32">
      <text style="font: 10px 'Arial', sans-serif; text-anchor: end" x="442.655183" y="132.180158" transform="rotate(-0 442.655183 132.180158)">0.5</text>
     </g>
    </g>
    <g id="ytick_14">
     <g id="line2d_29">
      <g>
       <use xlink:href="#m8d19b4cd42" x="449.655183" y="99.316262" style="stroke: #000000; stroke-width: 0.8"/>
      </g>
     </g>
     <g id="text_33">
      <text style="font: 10px 'Arial', sans-serif; text-anchor: end" x="442.655183" y="102.895169" transform="rotate(-0 442.655183 102.895169)">1.0</text>
     </g>
    </g>
    <g id="ytick_15">
     <g id="line2d_30">
      <g>
       <use xlink:href="#m8d19b4cd42" x="449.655183" y="70.031273" style="stroke: #000000; stroke-width: 0.8"/>
      </g>
     </g>
     <g id="text_34">
      <text style="font: 10px 'Arial', sans-serif; text-anchor: end" x="442.655183" y="73.610179" transform="rotate(-0 442.655183 73.610179)">1.5</text>
     </g>
    </g>
    <g id="text_35">
     <text style="font: 10px 'Arial', sans-serif; text-anchor: middle" x="416.80987" y="127.08" transform="rotate(-90 416.80987 127.08)">Mean Activity</text>
    </g>
   </g>
   <g id="line2d_31">
    <path d="M 457.387999 167.629613 
L 462.221009 168.49447 
L 467.054019 167.230212 
L 471.887029 161.325753 
L 476.720039 162.347965 
L 481.553049 165.031703 
L 486.386059 161.397233 
L 491.219069 157.450035 
L 496.052079 157.522391 
L 500.885089 155.267447 
L 505.718099 150.151264 
L 510.551109 149.84556 
L 515.384119 144.234782 
L 520.217129 136.482789 
L 525.050139 138.712548 
L 529.883149 137.91119 
L 534.716159 133.915522 
L 539.549169 131.811439 
L 544.382178 129.941868 
L 549.215188 124.013837 
L 554.048198 117.266314 
L 558.881208 114.475837 
L 563.714218 115.440907 
L 568.547228 113.170661 
L 573.380238 100.309283 
L 578.213248 90.945887 
L 583.046258 89.774572 
L 587.879268 92.691646 
L 592.712278 93.058882 
L 597.545288 91.839007 
L 602.378298 80.341286 
L 607.211308 78.82065 
L 612.044318 78.574127 
" clip-path="url(#p9664535734)" style="fill: none; stroke: #ff00ff; stroke-width: 1.5; stroke-linecap: square"/>
   </g>
   <g id="line2d_32">
    <path d="M 467.054019 210.24 
L 467.054019 43.92 
" clip-path="url(#p9664535734)" style="fill: none; stroke-dasharray: 5.55,2.4; stroke-dashoffset: 0; stroke: #808080; stroke-opacity: 0.7; stroke-width: 1.5"/>
   </g>
   <g id="line2d_33">
    <path d="M 597.545288 210.24 
L 597.545288 43.92 
" clip-path="url(#p9664535734)" style="fill: none; stroke-dasharray: 5.55,2.4; stroke-dashoffset: 0; stroke: #808080; stroke-opacity: 0.7; stroke-width: 1.5"/>
   </g>
   <g id="text_36">
    <text style="font: 12px 'Arial', sans-serif; text-anchor: middle" x="534.716159" y="37.92" transform="rotate(-0 534.716159 37.92)">2 Incorrect Trials</text>
   </g>
   <g id="legend_3">
    <g id="patch_21">
     <path d="M 482.764027 207.345 
L 586.668291 207.345 
Q 587.826291 207.345 587.826291 206.187 
L 587.826291 198.575864 
Q 587.826291 197.417864 586.668291 197.417864 
L 482.764027 197.417864 
Q 481.606027 197.417864 481.606027 198.575864 
L 481.606027 206.187 
Q 481.606027 207.345 482.764027 207.345 
z
" style="fill: #ffffff; opacity: 0.8; stroke: #cccccc; stroke-linejoin: miter"/>
    </g>
    <g id="line2d_34">
     <path d="M 483.922027 201.851738 
L 489.712027 201.851738 
L 495.502027 201.851738 
" style="fill: none; stroke: #ff00ff; stroke-width: 1.5; stroke-linecap: square"/>
    </g>
    <g id="text_37">
     <text style="font: 5.79px 'Arial', sans-serif; text-anchor: start" x="500.134027" y="203.878238" transform="rotate(-0 500.134027 203.878238)">Pref - PrevCount=-2 - #Trials=9.0</text>
    </g>
   </g>
  </g>
  <g id="axes_4">
   <g id="patch_22">
    <path d="M 653.801524 210.24 
L 823.923476 210.24 
L 823.923476 43.92 
L 653.801524 43.92 
z
" style="fill: #ffffff"/>
   </g>
   <g id="PolyCollection_3">
    <defs>
     <path id="mf9ca79ccb3" d="M 661.53434 -189.695362 
L 661.53434 -156.507662 
L 666.36735 -156.751941 
L 671.20036 -161.969163 
L 676.03337 -169.44059 
L 680.86638 -173.163675 
L 685.69939 -167.688018 
L 690.5324 -163.85488 
L 695.36541 -164.952455 
L 700.19842 -167.528827 
L 705.03143 -167.818713 
L 709.86444 -169.100267 
L 714.69745 -172.211663 
L 719.53046 -180.236097 
L 724.36347 -182.286599 
L 729.19648 -181.539988 
L 734.02949 -181.171012 
L 738.8625 -184.020911 
L 743.69551 -190.25487 
L 748.52852 -192.050683 
L 753.36153 -195.195481 
L 758.19454 -197.99861 
L 763.02755 -197.458965 
L 767.86056 -203.734722 
L 772.69357 -206.323431 
L 777.52658 -205.767249 
L 782.35959 -208.911383 
L 787.1926 -209.088557 
L 792.02561 -211.869431 
L 796.85862 -217.314969 
L 801.69163 -215.516153 
L 806.52464 -219.571418 
L 811.35765 -228.181279 
L 816.19066 -234.024615 
L 816.19066 -269.156347 
L 816.19066 -269.156347 
L 811.35765 -262.536436 
L 806.52464 -252.965798 
L 801.69163 -250.349345 
L 796.85862 -257.012385 
L 792.02561 -253.927755 
L 787.1926 -252.758472 
L 782.35959 -253.592091 
L 777.52658 -246.97711 
L 772.69357 -245.859487 
L 767.86056 -243.563722 
L 763.02755 -237.666638 
L 758.19454 -238.339683 
L 753.36153 -235.700246 
L 748.52852 -232.784038 
L 743.69551 -230.821939 
L 738.8625 -225.353283 
L 734.02949 -223.667923 
L 729.19648 -223.03742 
L 724.36347 -223.172087 
L 719.53046 -219.010607 
L 714.69745 -208.509215 
L 709.86444 -204.52694 
L 705.03143 -203.475082 
L 700.19842 -202.493652 
L 695.36541 -199.875367 
L 690.5324 -201.58743 
L 685.69939 -205.383136 
L 680.86638 -209.70983 
L 676.03337 -205.841168 
L 671.20036 -197.685575 
L 666.36735 -190.928489 
L 661.53434 -189.695362 
z
" style="stroke: #ff00ff; stroke-opacity: 0.1"/>
    </defs>
    <g clip-path="url(#p166cb2e4fc)">
     <use xlink:href="#mf9ca79ccb3" x="0" y="323.436915" style="fill: #ff00ff; fill-opacity: 0.1; stroke: #ff00ff; stroke-opacity: 0.1"/>
    </g>
   </g>
   <g id="matplotlib.axis_7">
    <g id="xtick_11">
     <g id="line2d_35">
      <g>
       <use xlink:href="#m36e6e1ddc3" x="671.20036" y="210.24" style="stroke: #000000; stroke-width: 0.8"/>
      </g>
     </g>
     <g id="text_38">
      <text style="font: 10px 'Arial', sans-serif" transform="translate(640.234608 251.86503) rotate(-45)">Sampling</text>
     </g>
    </g>
    <g id="xtick_12">
     <g id="line2d_36">
      <g>
       <use xlink:href="#m36e6e1ddc3" x="801.69163" y="210.24" style="stroke: #000000; stroke-width: 0.8"/>
      </g>
     </g>
     <g id="text_39">
      <text style="font: 10px 'Arial', sans-serif" transform="translate(720.901365 301.686227) rotate(-45)">Movement to Lateral Port</text>
     </g>
    </g>
    <g id="text_40">
     <text style="font: 10px 'Arial', sans-serif; text-anchor: middle" x="738.8625" y="314.249415" transform="rotate(-0 738.8625 314.249415)">Normalized Time</text>
    </g>
   </g>
   <g id="matplotlib.axis_8">
    <g id="ytick_16">
     <g id="line2d_37">
      <g>
       <use xlink:href="#m8d19b4cd42" x="653.801524" y="187.171231" style="stroke: #000000; stroke-width: 0.8"/>
      </g>
     </g>
     <g id="text_41">
      <text style="font: 10px 'Arial', sans-serif; text-anchor: end" x="646.801524" y="190.750138" transform="rotate(-0 646.801524 190.750138)">−0.5</text>
     </g>
    </g>
    <g id="ytick_17">
     <g id="line2d_38">
      <g>
       <use xlink:href="#m8d19b4cd42" x="653.801524" y="157.886242" style="stroke: #000000; stroke-width: 0.8"/>
      </g>
     </g>
     <g id="text_42">
      <text style="font: 10px 'Arial', sans-serif; text-anchor: end" x="646.801524" y="161.465148" transform="rotate(-0 646.801524 161.465148)">0.0</text>
     </g>
    </g>
    <g id="ytick_18">
     <g id="line2d_39">
      <g>
       <use xlink:href="#m8d19b4cd42" x="653.801524" y="128.601252" style="stroke: #000000; stroke-width: 0.8"/>
      </g>
     </g>
     <g id="text_43">
      <text style="font: 10px 'Arial', sans-serif; text-anchor: end" x="646.801524" y="132.180158" transform="rotate(-0 646.801524 132.180158)">0.5</text>
     </g>
    </g>
    <g id="ytick_19">
     <g id="line2d_40">
      <g>
       <use xlink:href="#m8d19b4cd42" x="653.801524" y="99.316262" style="stroke: #000000; stroke-width: 0.8"/>
      </g>
     </g>
     <g id="text_44">
      <text style="font: 10px 'Arial', sans-serif; text-anchor: end" x="646.801524" y="102.895169" transform="rotate(-0 646.801524 102.895169)">1.0</text>
     </g>
    </g>
    <g id="ytick_20">
     <g id="line2d_41">
      <g>
       <use xlink:href="#m8d19b4cd42" x="653.801524" y="70.031273" style="stroke: #000000; stroke-width: 0.8"/>
      </g>
     </g>
     <g id="text_45">
      <text style="font: 10px 'Arial', sans-serif; text-anchor: end" x="646.801524" y="73.610179" transform="rotate(-0 646.801524 73.610179)">1.5</text>
     </g>
    </g>
    <g id="text_46">
     <text style="font: 10px 'Arial', sans-serif; text-anchor: middle" x="620.956212" y="127.08" transform="rotate(-90 620.956212 127.08)">Mean Activity</text>
    </g>
   </g>
   <g id="line2d_42">
    <path d="M 661.53434 150.335402 
L 666.36735 149.596699 
L 671.20036 143.609545 
L 676.03337 135.796035 
L 680.86638 132.000163 
L 685.69939 136.901337 
L 690.5324 140.715759 
L 695.36541 141.023004 
L 700.19842 138.425675 
L 705.03143 137.790017 
L 709.86444 136.623311 
L 714.69745 133.076476 
L 719.53046 123.813563 
L 724.36347 120.707571 
L 729.19648 121.148211 
L 734.02949 121.017447 
L 738.8625 118.749816 
L 743.69551 112.89851 
L 748.52852 111.019554 
L 753.36153 107.989053 
L 758.19454 105.267768 
L 763.02755 105.874113 
L 767.86056 99.787693 
L 772.69357 97.345457 
L 777.52658 97.064735 
L 782.35959 92.185179 
L 787.1926 92.5134 
L 792.02561 90.538322 
L 796.85862 86.273238 
L 801.69163 90.504165 
L 806.52464 87.168306 
L 811.35765 78.078057 
L 816.19066 71.846434 
" clip-path="url(#p166cb2e4fc)" style="fill: none; stroke: #ff00ff; stroke-width: 1.5; stroke-linecap: square"/>
   </g>
   <g id="line2d_43">
    <path d="M 671.20036 210.24 
L 671.20036 43.92 
" clip-path="url(#p166cb2e4fc)" style="fill: none; stroke-dasharray: 5.55,2.4; stroke-dashoffset: 0; stroke: #808080; stroke-opacity: 0.7; stroke-width: 1.5"/>
   </g>
   <g id="line2d_44">
    <path d="M 801.69163 210.24 
L 801.69163 43.92 
" clip-path="url(#p166cb2e4fc)" style="fill: none; stroke-dasharray: 5.55,2.4; stroke-dashoffset: 0; stroke: #808080; stroke-opacity: 0.7; stroke-width: 1.5"/>
   </g>
   <g id="text_47">
    <text style="font: 12px 'Arial', sans-serif; text-anchor: middle" x="738.8625" y="37.92" transform="rotate(-0 738.8625 37.92)">1 Incorrect Trials</text>
   </g>
   <g id="legend_4">
    <g id="patch_23">
     <path d="M 685.300477 207.345 
L 792.424523 207.345 
Q 793.582523 207.345 793.582523 206.187 
L 793.582523 198.575864 
Q 793.582523 197.417864 792.424523 197.417864 
L 685.300477 197.417864 
Q 684.142477 197.417864 684.142477 198.575864 
L 684.142477 206.187 
Q 684.142477 207.345 685.300477 207.345 
z
" style="fill: #ffffff; opacity: 0.8; stroke: #cccccc; stroke-linejoin: miter"/>
    </g>
    <g id="line2d_45">
     <path d="M 686.458477 201.851738 
L 692.248477 201.851738 
L 698.038477 201.851738 
" style="fill: none; stroke: #ff00ff; stroke-width: 1.5; stroke-linecap: square"/>
    </g>
    <g id="text_48">
     <text style="font: 5.79px 'Arial', sans-serif; text-anchor: start" x="702.670477" y="203.878238" transform="rotate(-0 702.670477 203.878238)">Pref - PrevCount=-1 - #Trials=17.0</text>
    </g>
   </g>
  </g>
  <g id="axes_5">
   <g id="patch_24">
    <path d="M 857.947866 210.24 
L 1028.069817 210.24 
L 1028.069817 43.92 
L 857.947866 43.92 
z
" style="fill: #ffffff"/>
   </g>
   <g id="PolyCollection_4">
    <defs>
     <path id="m092324cdc4" d="M 865.680682 -131.093983 
L 865.680682 -121.023036 
L 870.513692 -121.406192 
L 875.346702 -121.140238 
L 880.179712 -120.489053 
L 885.012722 -121.773481 
L 889.845732 -121.834519 
L 894.678742 -122.978896 
L 899.511752 -122.811948 
L 904.344762 -121.919969 
L 909.177772 -122.23882 
L 914.010782 -124.752762 
L 918.843792 -125.718786 
L 923.676802 -124.504528 
L 928.509812 -126.089887 
L 933.342822 -128.393144 
L 938.175831 -128.257077 
L 943.008841 -129.049446 
L 947.841851 -133.860756 
L 952.674861 -141.11932 
L 957.507871 -149.011617 
L 962.340881 -155.386738 
L 967.173891 -159.757358 
L 972.006901 -164.103924 
L 976.839911 -169.048937 
L 981.672921 -172.292646 
L 986.505931 -174.965804 
L 991.338941 -176.872666 
L 996.171951 -179.45199 
L 1001.004961 -184.160354 
L 1005.837971 -186.733209 
L 1010.670981 -191.90607 
L 1015.503991 -198.610904 
L 1020.337001 -205.773121 
L 1020.337001 -239.601046 
L 1020.337001 -239.601046 
L 1015.503991 -230.23439 
L 1010.670981 -221.499081 
L 1005.837971 -215.571598 
L 1001.004961 -212.96677 
L 996.171951 -208.040288 
L 991.338941 -206.527451 
L 986.505931 -205.606779 
L 981.672921 -202.119933 
L 976.839911 -197.940289 
L 972.006901 -191.83007 
L 967.173891 -188.182161 
L 962.340881 -183.042278 
L 957.507871 -172.517374 
L 952.674861 -161.601076 
L 947.841851 -151.468606 
L 943.008841 -144.478058 
L 938.175831 -143.582488 
L 933.342822 -142.214614 
L 928.509812 -135.988096 
L 923.676802 -131.612724 
L 918.843792 -133.042519 
L 914.010782 -132.662075 
L 909.177772 -130.543815 
L 904.344762 -132.259425 
L 899.511752 -135.585338 
L 894.678742 -135.990718 
L 889.845732 -132.856383 
L 885.012722 -130.109498 
L 880.179712 -128.305484 
L 875.346702 -130.108077 
L 870.513692 -130.902562 
L 865.680682 -131.093983 
z
" style="stroke: #00ffff; stroke-opacity: 0.1"/>
    </defs>
    <g clip-path="url(#pb6b7760d33)">
     <use xlink:href="#m092324cdc4" x="0" y="323.436915" style="fill: #00ffff; fill-opacity: 0.1; stroke: #00ffff; stroke-opacity: 0.1"/>
    </g>
   </g>
   <g id="matplotlib.axis_9">
    <g id="xtick_13">
     <g id="line2d_46">
      <g>
       <use xlink:href="#m36e6e1ddc3" x="875.346702" y="210.24" style="stroke: #000000; stroke-width: 0.8"/>
      </g>
     </g>
     <g id="text_49">
      <text style="font: 10px 'Arial', sans-serif" transform="translate(844.380949 251.86503) rotate(-45)">Sampling</text>
     </g>
    </g>
    <g id="xtick_14">
     <g id="line2d_47">
      <g>
       <use xlink:href="#m36e6e1ddc3" x="1005.837971" y="210.24" style="stroke: #000000; stroke-width: 0.8"/>
      </g>
     </g>
     <g id="text_50">
      <text style="font: 10px 'Arial', sans-serif" transform="translate(925.047707 301.686227) rotate(-45)">Movement to Lateral Port</text>
     </g>
    </g>
    <g id="text_51">
     <text style="font: 10px 'Arial', sans-serif; text-anchor: middle" x="943.008841" y="314.249415" transform="rotate(-0 943.008841 314.249415)">Normalized Time</text>
    </g>
   </g>
   <g id="matplotlib.axis_10">
    <g id="ytick_21">
     <g id="line2d_48">
      <g>
       <use xlink:href="#m8d19b4cd42" x="857.947866" y="187.171231" style="stroke: #000000; stroke-width: 0.8"/>
      </g>
     </g>
     <g id="text_52">
      <text style="font: 10px 'Arial', sans-serif; text-anchor: end" x="850.947866" y="190.750138" transform="rotate(-0 850.947866 190.750138)">−0.5</text>
     </g>
    </g>
    <g id="ytick_22">
     <g id="line2d_49">
      <g>
       <use xlink:href="#m8d19b4cd42" x="857.947866" y="157.886242" style="stroke: #000000; stroke-width: 0.8"/>
      </g>
     </g>
     <g id="text_53">
      <text style="font: 10px 'Arial', sans-serif; text-anchor: end" x="850.947866" y="161.465148" transform="rotate(-0 850.947866 161.465148)">0.0</text>
     </g>
    </g>
    <g id="ytick_23">
     <g id="line2d_50">
      <g>
       <use xlink:href="#m8d19b4cd42" x="857.947866" y="128.601252" style="stroke: #000000; stroke-width: 0.8"/>
      </g>
     </g>
     <g id="text_54">
      <text style="font: 10px 'Arial', sans-serif; text-anchor: end" x="850.947866" y="132.180158" transform="rotate(-0 850.947866 132.180158)">0.5</text>
     </g>
    </g>
    <g id="ytick_24">
     <g id="line2d_51">
      <g>
       <use xlink:href="#m8d19b4cd42" x="857.947866" y="99.316262" style="stroke: #000000; stroke-width: 0.8"/>
      </g>
     </g>
     <g id="text_55">
      <text style="font: 10px 'Arial', sans-serif; text-anchor: end" x="850.947866" y="102.895169" transform="rotate(-0 850.947866 102.895169)">1.0</text>
     </g>
    </g>
    <g id="ytick_25">
     <g id="line2d_52">
      <g>
       <use xlink:href="#m8d19b4cd42" x="857.947866" y="70.031273" style="stroke: #000000; stroke-width: 0.8"/>
      </g>
     </g>
     <g id="text_56">
      <text style="font: 10px 'Arial', sans-serif; text-anchor: end" x="850.947866" y="73.610179" transform="rotate(-0 850.947866 73.610179)">1.5</text>
     </g>
    </g>
    <g id="text_57">
     <text style="font: 10px 'Arial', sans-serif; text-anchor: middle" x="825.102553" y="127.08" transform="rotate(-90 825.102553 127.08)">Mean Activity</text>
    </g>
   </g>
   <g id="line2d_53">
    <path d="M 865.680682 197.378405 
L 870.513692 197.282538 
L 875.346702 197.812757 
L 880.179712 199.039646 
L 885.012722 197.495425 
L 889.845732 196.091464 
L 894.678742 193.952107 
L 899.511752 194.238272 
L 904.344762 196.347217 
L 909.177772 197.045597 
L 914.010782 194.729496 
L 918.843792 194.056262 
L 923.676802 195.378289 
L 928.509812 192.397923 
L 933.342822 188.133035 
L 938.175831 187.517131 
L 943.008841 186.673163 
L 947.841851 180.772234 
L 952.674861 172.076716 
L 957.507871 162.672419 
L 962.340881 154.222406 
L 967.173891 149.467156 
L 972.006901 145.469918 
L 976.839911 139.942301 
L 981.672921 136.230624 
L 986.505931 133.150622 
L 991.338941 131.736856 
L 996.171951 129.690775 
L 1001.004961 124.873353 
L 1005.837971 122.28451 
L 1010.670981 116.734339 
L 1015.503991 109.014268 
L 1020.337001 100.749831 
" clip-path="url(#pb6b7760d33)" style="fill: none; stroke: #00ffff; stroke-width: 1.5; stroke-linecap: square"/>
   </g>
   <g id="line2d_54">
    <path d="M 875.346702 210.24 
L 875.346702 43.92 
" clip-path="url(#pb6b7760d33)" style="fill: none; stroke-dasharray: 5.55,2.4; stroke-dashoffset: 0; stroke: #808080; stroke-opacity: 0.7; stroke-width: 1.5"/>
   </g>
   <g id="line2d_55">
    <path d="M 1005.837971 210.24 
L 1005.837971 43.92 
" clip-path="url(#pb6b7760d33)" style="fill: none; stroke-dasharray: 5.55,2.4; stroke-dashoffset: 0; stroke: #808080; stroke-opacity: 0.7; stroke-width: 1.5"/>
   </g>
   <g id="text_58">
    <text style="font: 12px 'Arial', sans-serif; text-anchor: middle" x="943.008841" y="37.92" transform="rotate(-0 943.008841 37.92)">1 Correct Trials</text>
   </g>
   <g id="legend_5">
    <g id="patch_25">
     <path d="M 885.100247 56.742136 
L 1000.917436 56.742136 
Q 1002.075436 56.742136 1002.075436 55.584136 
L 1002.075436 47.973 
Q 1002.075436 46.815 1000.917436 46.815 
L 885.100247 46.815 
Q 883.942247 46.815 883.942247 47.973 
L 883.942247 55.584136 
Q 883.942247 56.742136 885.100247 56.742136 
z
" style="fill: #ffffff; opacity: 0.8; stroke: #cccccc; stroke-linejoin: miter"/>
    </g>
    <g id="line2d_56">
     <path d="M 886.258247 51.248873 
L 892.048247 51.248873 
L 897.838247 51.248873 
" style="fill: none; stroke: #00ffff; stroke-width: 1.5; stroke-linecap: square"/>
    </g>
    <g id="text_59">
     <text style="font: 5.79px 'Arial', sans-serif; text-anchor: start" x="902.470247" y="53.275373" transform="rotate(-0 902.470247 53.275373)">NonPref - PrevCount=1 - #Trials=20.0</text>
    </g>
   </g>
  </g>
  <g id="axes_6">
   <g id="patch_26">
    <path d="M 1062.094207 210.24 
L 1232.216159 210.24 
L 1232.216159 43.92 
L 1062.094207 43.92 
z
" style="fill: #ffffff"/>
   </g>
   <g id="PolyCollection_5">
    <defs>
     <path id="m5a1e2b9853" d="M 1069.827023 -134.761323 
L 1069.827023 -123.925769 
L 1074.660033 -120.835267 
L 1079.493043 -119.048223 
L 1084.326053 -117.956347 
L 1089.159063 -120.684346 
L 1093.992073 -121.697562 
L 1098.825083 -118.931406 
L 1103.658093 -118.234922 
L 1108.491103 -120.500256 
L 1113.324113 -120.205808 
L 1118.157123 -119.52643 
L 1122.990133 -120.789252 
L 1127.823143 -126.319723 
L 1132.656153 -124.587764 
L 1137.489163 -120.842633 
L 1142.322173 -123.940036 
L 1147.155183 -131.30533 
L 1151.988193 -134.430987 
L 1156.821203 -131.592186 
L 1161.654213 -130.664455 
L 1166.487223 -131.874545 
L 1171.320233 -132.958416 
L 1176.153243 -137.884967 
L 1180.986253 -141.670036 
L 1185.819263 -144.191031 
L 1190.652273 -145.090559 
L 1195.485283 -145.575491 
L 1200.318293 -151.696942 
L 1205.151303 -150.421616 
L 1209.984313 -151.397302 
L 1214.817323 -157.26171 
L 1219.650333 -164.122644 
L 1224.483343 -166.829547 
L 1224.483343 -194.192424 
L 1224.483343 -194.192424 
L 1219.650333 -191.133848 
L 1214.817323 -182.601219 
L 1209.984313 -172.596816 
L 1205.151303 -169.490505 
L 1200.318293 -169.60342 
L 1195.485283 -163.811468 
L 1190.652273 -164.13254 
L 1185.819263 -162.011913 
L 1180.986253 -158.666279 
L 1176.153243 -153.410825 
L 1171.320233 -151.289245 
L 1166.487223 -150.330885 
L 1161.654213 -148.311837 
L 1156.821203 -149.023148 
L 1151.988193 -144.413573 
L 1147.155183 -142.218557 
L 1142.322173 -132.429024 
L 1137.489163 -128.173851 
L 1132.656153 -130.807295 
L 1127.823143 -135.431191 
L 1122.990133 -131.413577 
L 1118.157123 -130.477929 
L 1113.324113 -134.284227 
L 1108.491103 -135.754347 
L 1103.658093 -131.494293 
L 1098.825083 -127.924158 
L 1093.992073 -128.888914 
L 1089.159063 -128.813434 
L 1084.326053 -127.963338 
L 1079.493043 -128.549396 
L 1074.660033 -130.101444 
L 1069.827023 -134.761323 
z
" style="stroke: #00ffff; stroke-opacity: 0.1"/>
    </defs>
    <g clip-path="url(#pbe31246316)">
     <use xlink:href="#m5a1e2b9853" x="0" y="323.436915" style="fill: #00ffff; fill-opacity: 0.1; stroke: #00ffff; stroke-opacity: 0.1"/>
    </g>
   </g>
   <g id="matplotlib.axis_11">
    <g id="xtick_15">
     <g id="line2d_57">
      <g>
       <use xlink:href="#m36e6e1ddc3" x="1079.493043" y="210.24" style="stroke: #000000; stroke-width: 0.8"/>
      </g>
     </g>
     <g id="text_60">
      <text style="font: 10px 'Arial', sans-serif" transform="translate(1048.52729 251.86503) rotate(-45)">Sampling</text>
     </g>
    </g>
    <g id="xtick_16">
     <g id="line2d_58">
      <g>
       <use xlink:href="#m36e6e1ddc3" x="1209.984313" y="210.24" style="stroke: #000000; stroke-width: 0.8"/>
      </g>
     </g>
     <g id="text_61">
      <text style="font: 10px 'Arial', sans-serif" transform="translate(1129.194048 301.686227) rotate(-45)">Movement to Lateral Port</text>
     </g>
    </g>
    <g id="text_62">
     <text style="font: 10px 'Arial', sans-serif; text-anchor: middle" x="1147.155183" y="314.249415" transform="rotate(-0 1147.155183 314.249415)">Normalized Time</text>
    </g>
   </g>
   <g id="matplotlib.axis_12">
    <g id="ytick_26">
     <g id="line2d_59">
      <g>
       <use xlink:href="#m8d19b4cd42" x="1062.094207" y="187.171231" style="stroke: #000000; stroke-width: 0.8"/>
      </g>
     </g>
     <g id="text_63">
      <text style="font: 10px 'Arial', sans-serif; text-anchor: end" x="1055.094207" y="190.750138" transform="rotate(-0 1055.094207 190.750138)">−0.5</text>
     </g>
    </g>
    <g id="ytick_27">
     <g id="line2d_60">
      <g>
       <use xlink:href="#m8d19b4cd42" x="1062.094207" y="157.886242" style="stroke: #000000; stroke-width: 0.8"/>
      </g>
     </g>
     <g id="text_64">
      <text style="font: 10px 'Arial', sans-serif; text-anchor: end" x="1055.094207" y="161.465148" transform="rotate(-0 1055.094207 161.465148)">0.0</text>
     </g>
    </g>
    <g id="ytick_28">
     <g id="line2d_61">
      <g>
       <use xlink:href="#m8d19b4cd42" x="1062.094207" y="128.601252" style="stroke: #000000; stroke-width: 0.8"/>
      </g>
     </g>
     <g id="text_65">
      <text style="font: 10px 'Arial', sans-serif; text-anchor: end" x="1055.094207" y="132.180158" transform="rotate(-0 1055.094207 132.180158)">0.5</text>
     </g>
    </g>
    <g id="ytick_29">
     <g id="line2d_62">
      <g>
       <use xlink:href="#m8d19b4cd42" x="1062.094207" y="99.316262" style="stroke: #000000; stroke-width: 0.8"/>
      </g>
     </g>
     <g id="text_66">
      <text style="font: 10px 'Arial', sans-serif; text-anchor: end" x="1055.094207" y="102.895169" transform="rotate(-0 1055.094207 102.895169)">1.0</text>
     </g>
    </g>
    <g id="ytick_30">
     <g id="line2d_63">
      <g>
       <use xlink:href="#m8d19b4cd42" x="1062.094207" y="70.031273" style="stroke: #000000; stroke-width: 0.8"/>
      </g>
     </g>
     <g id="text_67">
      <text style="font: 10px 'Arial', sans-serif; text-anchor: end" x="1055.094207" y="73.610179" transform="rotate(-0 1055.094207 73.610179)">1.5</text>
     </g>
    </g>
    <g id="text_68">
     <text style="font: 10px 'Arial', sans-serif; text-anchor: middle" x="1029.248895" y="127.08" transform="rotate(-90 1029.248895 127.08)">Mean Activity</text>
    </g>
   </g>
   <g id="line2d_64">
    <path d="M 1069.827023 194.093369 
L 1074.660033 197.968559 
L 1079.493043 199.638105 
L 1084.326053 200.477072 
L 1089.159063 198.688024 
L 1093.992073 198.143677 
L 1098.825083 200.009133 
L 1103.658093 198.572307 
L 1108.491103 195.309613 
L 1113.324113 196.191897 
L 1118.157123 198.434735 
L 1122.990133 197.3355 
L 1127.823143 192.561457 
L 1132.656153 195.739385 
L 1137.489163 198.928673 
L 1142.322173 195.252385 
L 1147.155183 186.674971 
L 1151.988193 184.014636 
L 1156.821203 183.129248 
L 1161.654213 183.948768 
L 1166.487223 182.3342 
L 1171.320233 181.313083 
L 1176.153243 177.789019 
L 1180.986253 173.268757 
L 1185.819263 170.335443 
L 1190.652273 168.825365 
L 1195.485283 168.743435 
L 1200.318293 162.786733 
L 1205.151303 163.480854 
L 1209.984313 161.439855 
L 1214.817323 153.50545 
L 1219.650333 145.808668 
L 1224.483343 142.925929 
" clip-path="url(#pbe31246316)" style="fill: none; stroke: #00ffff; stroke-width: 1.5; stroke-linecap: square"/>
   </g>
   <g id="line2d_65">
    <path d="M 1079.493043 210.24 
L 1079.493043 43.92 
" clip-path="url(#pbe31246316)" style="fill: none; stroke-dasharray: 5.55,2.4; stroke-dashoffset: 0; stroke: #808080; stroke-opacity: 0.7; stroke-width: 1.5"/>
   </g>
   <g id="line2d_66">
    <path d="M 1209.984313 210.24 
L 1209.984313 43.92 
" clip-path="url(#pbe31246316)" style="fill: none; stroke-dasharray: 5.55,2.4; stroke-dashoffset: 0; stroke: #808080; stroke-opacity: 0.7; stroke-width: 1.5"/>
   </g>
   <g id="text_69">
    <text style="font: 12px 'Arial', sans-serif; text-anchor: middle" x="1147.155183" y="37.92" transform="rotate(-0 1147.155183 37.92)">2 Correct Trials</text>
   </g>
   <g id="legend_6">
    <g id="patch_27">
     <path d="M 1089.460095 56.742136 
L 1204.850271 56.742136 
Q 1206.008271 56.742136 1206.008271 55.584136 
L 1206.008271 47.973 
Q 1206.008271 46.815 1204.850271 46.815 
L 1089.460095 46.815 
Q 1088.302095 46.815 1088.302095 47.973 
L 1088.302095 55.584136 
Q 1088.302095 56.742136 1089.460095 56.742136 
z
" style="fill: #ffffff; opacity: 0.8; stroke: #cccccc; stroke-linejoin: miter"/>
    </g>
    <g id="line2d_67">
     <path d="M 1090.618095 51.248873 
L 1096.408095 51.248873 
L 1102.198095 51.248873 
" style="fill: none; stroke: #00ffff; stroke-width: 1.5; stroke-linecap: square"/>
    </g>
    <g id="text_70">
     <text style="font: 5.79px 'Arial', sans-serif; text-anchor: start" x="1106.830095" y="53.275373" transform="rotate(-0 1106.830095 53.275373)">NonPref - PrevCount=2 - #Trials=11.0</text>
    </g>
   </g>
  </g>
  <g id="axes_7">
   <g id="patch_28">
    <path d="M 1266.240549 210.24 
L 1436.3625 210.24 
L 1436.3625 43.92 
L 1266.240549 43.92 
z
" style="fill: #ffffff"/>
   </g>
   <g id="PolyCollection_6">
    <defs>
     <path id="m8e38ff70e2" d="M 1273.973365 -129.429785 
L 1273.973365 -124.204539 
L 1278.806375 -123.476269 
L 1283.639385 -123.380569 
L 1288.472395 -123.705348 
L 1293.305405 -124.209021 
L 1298.138415 -124.411477 
L 1302.971425 -125.175499 
L 1307.804435 -126.222644 
L 1312.637445 -125.573391 
L 1317.470455 -124.434888 
L 1322.303465 -126.549504 
L 1327.136475 -128.577866 
L 1331.969484 -131.786689 
L 1336.802494 -135.160911 
L 1341.635504 -137.373546 
L 1346.468514 -141.93853 
L 1351.301524 -146.007117 
L 1356.134534 -148.841856 
L 1360.967544 -151.747571 
L 1365.800554 -155.708732 
L 1370.633564 -160.69356 
L 1375.466574 -165.806502 
L 1380.299584 -169.977226 
L 1385.132594 -173.680739 
L 1389.965604 -178.780263 
L 1394.798614 -185.911827 
L 1399.631624 -190.141194 
L 1404.464634 -194.164255 
L 1409.297644 -198.376362 
L 1414.130654 -198.967539 
L 1418.963664 -203.716401 
L 1423.796674 -208.956767 
L 1428.629684 -214.484417 
L 1428.629684 -230.082941 
L 1428.629684 -230.082941 
L 1423.796674 -224.131349 
L 1418.963664 -218.500464 
L 1414.130654 -213.677718 
L 1409.297644 -213.767525 
L 1404.464634 -209.374784 
L 1399.631624 -205.712251 
L 1394.798614 -201.853339 
L 1389.965604 -193.918482 
L 1385.132594 -188.06055 
L 1380.299584 -183.713591 
L 1375.466574 -179.068554 
L 1370.633564 -173.821119 
L 1365.800554 -168.242498 
L 1360.967544 -163.804091 
L 1356.134534 -159.916953 
L 1351.301524 -156.107495 
L 1346.468514 -151.488607 
L 1341.635504 -145.591168 
L 1336.802494 -141.966244 
L 1331.969484 -137.706215 
L 1327.136475 -133.334042 
L 1322.303465 -130.917825 
L 1317.470455 -128.190957 
L 1312.637445 -129.241792 
L 1307.804435 -130.015348 
L 1302.971425 -129.203869 
L 1298.138415 -128.64702 
L 1293.305405 -128.886795 
L 1288.472395 -128.169917 
L 1283.639385 -127.949869 
L 1278.806375 -128.24053 
L 1273.973365 -129.429785 
z
" style="stroke: #00ffff; stroke-opacity: 0.1"/>
    </defs>
    <g clip-path="url(#p6f0c1ba35f)">
     <use xlink:href="#m8e38ff70e2" x="0" y="323.436915" style="fill: #00ffff; fill-opacity: 0.1; stroke: #00ffff; stroke-opacity: 0.1"/>
    </g>
   </g>
   <g id="matplotlib.axis_13">
    <g id="xtick_17">
     <g id="line2d_68">
      <g>
       <use xlink:href="#m36e6e1ddc3" x="1283.639385" y="210.24" style="stroke: #000000; stroke-width: 0.8"/>
      </g>
     </g>
     <g id="text_71">
      <text style="font: 10px 'Arial', sans-serif" transform="translate(1252.673632 251.86503) rotate(-45)">Sampling</text>
     </g>
    </g>
    <g id="xtick_18">
     <g id="line2d_69">
      <g>
       <use xlink:href="#m36e6e1ddc3" x="1414.130654" y="210.24" style="stroke: #000000; stroke-width: 0.8"/>
      </g>
     </g>
     <g id="text_72">
      <text style="font: 10px 'Arial', sans-serif" transform="translate(1333.34039 301.686227) rotate(-45)">Movement to Lateral Port</text>
     </g>
    </g>
    <g id="text_73">
     <text style="font: 10px 'Arial', sans-serif; text-anchor: middle" x="1351.301524" y="314.249415" transform="rotate(-0 1351.301524 314.249415)">Normalized Time</text>
    </g>
   </g>
   <g id="matplotlib.axis_14">
    <g id="ytick_31">
     <g id="line2d_70">
      <g>
       <use xlink:href="#m8d19b4cd42" x="1266.240549" y="187.171231" style="stroke: #000000; stroke-width: 0.8"/>
      </g>
     </g>
     <g id="text_74">
      <text style="font: 10px 'Arial', sans-serif; text-anchor: end" x="1259.240549" y="190.750138" transform="rotate(-0 1259.240549 190.750138)">−0.5</text>
     </g>
    </g>
    <g id="ytick_32">
     <g id="line2d_71">
      <g>
       <use xlink:href="#m8d19b4cd42" x="1266.240549" y="157.886242" style="stroke: #000000; stroke-width: 0.8"/>
      </g>
     </g>
     <g id="text_75">
      <text style="font: 10px 'Arial', sans-serif; text-anchor: end" x="1259.240549" y="161.465148" transform="rotate(-0 1259.240549 161.465148)">0.0</text>
     </g>
    </g>
    <g id="ytick_33">
     <g id="line2d_72">
      <g>
       <use xlink:href="#m8d19b4cd42" x="1266.240549" y="128.601252" style="stroke: #000000; stroke-width: 0.8"/>
      </g>
     </g>
     <g id="text_76">
      <text style="font: 10px 'Arial', sans-serif; text-anchor: end" x="1259.240549" y="132.180158" transform="rotate(-0 1259.240549 132.180158)">0.5</text>
     </g>
    </g>
    <g id="ytick_34">
     <g id="line2d_73">
      <g>
       <use xlink:href="#m8d19b4cd42" x="1266.240549" y="99.316262" style="stroke: #000000; stroke-width: 0.8"/>
      </g>
     </g>
     <g id="text_77">
      <text style="font: 10px 'Arial', sans-serif; text-anchor: end" x="1259.240549" y="102.895169" transform="rotate(-0 1259.240549 102.895169)">1.0</text>
     </g>
    </g>
    <g id="ytick_35">
     <g id="line2d_74">
      <g>
       <use xlink:href="#m8d19b4cd42" x="1266.240549" y="70.031273" style="stroke: #000000; stroke-width: 0.8"/>
      </g>
     </g>
     <g id="text_78">
      <text style="font: 10px 'Arial', sans-serif; text-anchor: end" x="1259.240549" y="73.610179" transform="rotate(-0 1259.240549 73.610179)">1.5</text>
     </g>
    </g>
    <g id="text_79">
     <text style="font: 10px 'Arial', sans-serif; text-anchor: middle" x="1233.395236" y="127.08" transform="rotate(-90 1233.395236 127.08)">Mean Activity</text>
    </g>
   </g>
   <g id="line2d_75">
    <path d="M 1273.973365 196.619753 
L 1278.806375 197.578515 
L 1283.639385 197.771696 
L 1288.472395 197.499283 
L 1293.305405 196.889006 
L 1298.138415 196.907666 
L 1302.971425 196.24723 
L 1307.804435 195.317918 
L 1312.637445 196.029323 
L 1317.470455 197.123992 
L 1322.303465 194.70325 
L 1327.136475 192.480961 
L 1331.969484 188.690463 
L 1336.802494 184.873336 
L 1341.635504 181.954557 
L 1346.468514 176.723347 
L 1351.301524 172.379608 
L 1356.134534 169.05751 
L 1360.967544 165.661084 
L 1365.800554 161.461299 
L 1370.633564 156.179575 
L 1375.466574 150.999387 
L 1380.299584 146.591506 
L 1385.132594 142.56627 
L 1389.965604 137.087543 
L 1394.798614 129.554331 
L 1399.631624 125.510192 
L 1404.464634 121.667395 
L 1409.297644 117.364971 
L 1414.130654 117.114286 
L 1418.963664 112.328482 
L 1423.796674 106.892859 
L 1428.629684 101.153235 
" clip-path="url(#p6f0c1ba35f)" style="fill: none; stroke: #00ffff; stroke-width: 1.5; stroke-linecap: square"/>
   </g>
   <g id="line2d_76">
    <path d="M 1283.639385 210.24 
L 1283.639385 43.92 
" clip-path="url(#p6f0c1ba35f)" style="fill: none; stroke-dasharray: 5.55,2.4; stroke-dashoffset: 0; stroke: #808080; stroke-opacity: 0.7; stroke-width: 1.5"/>
   </g>
   <g id="line2d_77">
    <path d="M 1414.130654 210.24 
L 1414.130654 43.92 
" clip-path="url(#p6f0c1ba35f)" style="fill: none; stroke-dasharray: 5.55,2.4; stroke-dashoffset: 0; stroke: #808080; stroke-opacity: 0.7; stroke-width: 1.5"/>
   </g>
   <g id="text_80">
    <text style="font: 12px 'Arial', sans-serif; text-anchor: middle" x="1351.301524" y="37.92" transform="rotate(-0 1351.301524 37.92)">3 Correct Trials</text>
   </g>
   <g id="legend_7">
    <g id="patch_29">
     <path d="M 1293.39293 207.345 
L 1409.210119 207.345 
Q 1410.368119 207.345 1410.368119 206.187 
L 1410.368119 198.575864 
Q 1410.368119 197.417864 1409.210119 197.417864 
L 1293.39293 197.417864 
Q 1292.23493 197.417864 1292.23493 198.575864 
L 1292.23493 206.187 
Q 1292.23493 207.345 1293.39293 207.345 
z
" style="fill: #ffffff; opacity: 0.8; stroke: #cccccc; stroke-linejoin: miter"/>
    </g>
    <g id="line2d_78">
     <path d="M 1294.55093 201.851738 
L 1300.34093 201.851738 
L 1306.13093 201.851738 
" style="fill: none; stroke: #00ffff; stroke-width: 1.5; stroke-linecap: square"/>
    </g>
    <g id="text_81">
     <text style="font: 5.79px 'Arial', sans-serif; text-anchor: start" x="1310.76293" y="203.878238" transform="rotate(-0 1310.76293 203.878238)">NonPref - PrevCount=3 - #Trials=61.0</text>
    </g>
   </g>
  </g>
  <g id="text_82">
   <text style="font: 12px 'Arial', sans-serif; text-anchor: middle" x="716.3625" y="15.935625" transform="rotate(-0 716.3625 15.935625)">Balance Change - M2 - GP4_28_S4_L40_D250_M2L_22 - PrevChoiceCorrect</text>
  </g>
 </g>
 <defs>
  <clipPath id="p6db709a46d">
   <rect x="41.3625" y="43.92" width="170.121951" height="166.32"/>
  </clipPath>
  <clipPath id="pbd447f7478">
   <rect x="245.508841" y="43.92" width="170.121951" height="166.32"/>
  </clipPath>
  <clipPath id="p9664535734">
   <rect x="449.655183" y="43.92" width="170.121951" height="166.32"/>
  </clipPath>
  <clipPath id="p166cb2e4fc">
   <rect x="653.801524" y="43.92" width="170.121951" height="166.32"/>
  </clipPath>
  <clipPath id="pb6b7760d33">
   <rect x="857.947866" y="43.92" width="170.121951" height="166.32"/>
  </clipPath>
  <clipPath id="pbe31246316">
   <rect x="1062.094207" y="43.92" width="170.121951" height="166.32"/>
  </clipPath>
  <clipPath id="p6f0c1ba35f">
   <rect x="1266.240549" y="43.92" width="170.121951" height="166.32"/>
  </clipPath>
 </defs>
</svg>
