<?xml version="1.0" encoding="utf-8" standalone="no"?>
<!DOCTYPE svg PUBLIC "-//W3C//DTD SVG 1.1//EN"
  "http://www.w3.org/Graphics/SVG/1.1/DTD/svg11.dtd">
<svg xmlns:xlink="http://www.w3.org/1999/xlink" width="1443.5625pt" height="323.436915pt" viewBox="0 0 1443.5625 323.436915" xmlns="http://www.w3.org/2000/svg" version="1.1">
 <metadata>
  <rdf:RDF xmlns:dc="http://purl.org/dc/elements/1.1/" xmlns:cc="http://creativecommons.org/ns#" xmlns:rdf="http://www.w3.org/1999/02/22-rdf-syntax-ns#">
   <cc:Work>
    <dc:type rdf:resource="http://purl.org/dc/dcmitype/StillImage"/>
    <dc:date>2025-12-27T14:02:33.802701</dc:date>
    <dc:format>image/svg+xml</dc:format>
    <dc:creator>
     <cc:Agent>
      <dc:title>Matplotlib v3.8.0, https://matplotlib.org/</dc:title>
     </cc:Agent>
    </dc:creator>
   </cc:Work>
  </rdf:RDF>
 </metadata>
 <defs>
  <style type="text/css">*{stroke-linejoin: round; stroke-linecap: butt}</style>
 </defs>
 <g id="figure_1">
  <g id="patch_1">
   <path d="M 0 323.436915 
L 1443.5625 323.436915 
L 1443.5625 0 
L 0 0 
z
" style="fill: #ffffff"/>
  </g>
  <g id="axes_1">
   <g id="patch_2">
    <path d="M 41.3625 210.24 
L 211.484451 210.24 
L 211.484451 43.92 
L 41.3625 43.92 
z
" style="fill: #ffffff"/>
   </g>
   <g id="patch_3">
    <path d="M 0 0 
z
" clip-path="url(#p85c13754b2)" style="fill: #ffff00"/>
   </g>
   <g id="patch_4">
    <path d="M 63.594346 210.24 
L 73.260366 210.24 
L 73.260366 136.366561 
L 63.594346 136.366561 
z
" clip-path="url(#p85c13754b2)" style="fill: #ffff00"/>
   </g>
   <g id="patch_5">
    <path d="M 87.759396 210.24 
L 97.425416 210.24 
L 97.425416 124.524197 
L 87.759396 124.524197 
z
" clip-path="url(#p85c13754b2)" style="fill: #ffff00"/>
   </g>
   <g id="patch_6">
    <path d="M 136.089496 210.24 
L 145.755516 210.24 
L 145.755516 81.827892 
L 136.089496 81.827892 
z
" clip-path="url(#p85c13754b2)" style="fill: #ffff00"/>
   </g>
   <g id="patch_7">
    <path d="M 160.254545 210.24 
L 169.920565 210.24 
L 169.920565 74.879076 
L 160.254545 74.879076 
z
" clip-path="url(#p85c13754b2)" style="fill: #ffff00"/>
   </g>
   <g id="patch_8">
    <path d="M 184.419595 210.24 
L 194.085615 210.24 
L 194.085615 69.615005 
L 184.419595 69.615005 
z
" clip-path="url(#p85c13754b2)" style="fill: #ffff00"/>
   </g>
   <g id="patch_9">
    <path d="M 49.095316 210.24 
L 58.761336 210.24 
L 58.761336 139.358844 
L 49.095316 139.358844 
z
" clip-path="url(#p85c13754b2)" style="fill: #800080"/>
   </g>
   <g id="patch_10">
    <path d="M 73.260366 210.24 
L 82.926386 210.24 
L 82.926386 93.19679 
L 73.260366 93.19679 
z
" clip-path="url(#p85c13754b2)" style="fill: #800080"/>
   </g>
   <g id="patch_11">
    <path d="M 97.425416 210.24 
L 107.091436 210.24 
L 107.091436 163.486359 
L 97.425416 163.486359 
z
" clip-path="url(#p85c13754b2)" style="fill: #800080"/>
   </g>
   <g id="patch_12">
    <path d="M 145.755516 210.24 
L 155.421535 210.24 
L 155.421535 142.069646 
L 145.755516 142.069646 
z
" clip-path="url(#p85c13754b2)" style="fill: #800080"/>
   </g>
   <g id="patch_13">
    <path d="M 169.920565 210.24 
L 179.586585 210.24 
L 179.586585 89.259625 
L 169.920565 89.259625 
z
" clip-path="url(#p85c13754b2)" style="fill: #800080"/>
   </g>
   <g id="patch_14">
    <path d="M 194.085615 210.24 
L 203.751635 210.24 
L 203.751635 149.34999 
L 194.085615 149.34999 
z
" clip-path="url(#p85c13754b2)" style="fill: #800080"/>
   </g>
   <g id="matplotlib.axis_1">
    <g id="xtick_1">
     <g id="line2d_1">
      <defs>
       <path id="m0ce5de44a5" d="M 0 0 
L 0 3.5 
" style="stroke: #000000; stroke-width: 0.8"/>
      </defs>
      <g>
       <use xlink:href="#m0ce5de44a5" x="49.095316" y="210.24" style="stroke: #000000; stroke-width: 0.8"/>
      </g>
     </g>
     <g id="text_1">
      <text style="font: 10px 'Arial', sans-serif; text-anchor: middle" x="49.095316" y="224.397813" transform="rotate(-0 49.095316 224.397813)">−3</text>
     </g>
    </g>
    <g id="xtick_2">
     <g id="line2d_2">
      <g>
       <use xlink:href="#m0ce5de44a5" x="73.260366" y="210.24" style="stroke: #000000; stroke-width: 0.8"/>
      </g>
     </g>
     <g id="text_2">
      <text style="font: 10px 'Arial', sans-serif; text-anchor: middle" x="73.260366" y="224.397813" transform="rotate(-0 73.260366 224.397813)">−2</text>
     </g>
    </g>
    <g id="xtick_3">
     <g id="line2d_3">
      <g>
       <use xlink:href="#m0ce5de44a5" x="97.425416" y="210.24" style="stroke: #000000; stroke-width: 0.8"/>
      </g>
     </g>
     <g id="text_3">
      <text style="font: 10px 'Arial', sans-serif; text-anchor: middle" x="97.425416" y="224.397813" transform="rotate(-0 97.425416 224.397813)">−1</text>
     </g>
    </g>
    <g id="xtick_4">
     <g id="line2d_4">
      <g>
       <use xlink:href="#m0ce5de44a5" x="145.755516" y="210.24" style="stroke: #000000; stroke-width: 0.8"/>
      </g>
     </g>
     <g id="text_4">
      <text style="font: 10px 'Arial', sans-serif; text-anchor: middle" x="145.755516" y="224.397813" transform="rotate(-0 145.755516 224.397813)">1</text>
     </g>
    </g>
    <g id="xtick_5">
     <g id="line2d_5">
      <g>
       <use xlink:href="#m0ce5de44a5" x="169.920565" y="210.24" style="stroke: #000000; stroke-width: 0.8"/>
      </g>
     </g>
     <g id="text_5">
      <text style="font: 10px 'Arial', sans-serif; text-anchor: middle" x="169.920565" y="224.397813" transform="rotate(-0 169.920565 224.397813)">2</text>
     </g>
    </g>
    <g id="xtick_6">
     <g id="line2d_6">
      <g>
       <use xlink:href="#m0ce5de44a5" x="194.085615" y="210.24" style="stroke: #000000; stroke-width: 0.8"/>
      </g>
     </g>
     <g id="text_6">
      <text style="font: 10px 'Arial', sans-serif; text-anchor: middle" x="194.085615" y="224.397813" transform="rotate(-0 194.085615 224.397813)">3</text>
     </g>
    </g>
    <g id="text_7">
     <text style="font: 10px 'Arial', sans-serif; text-anchor: middle" x="126.423476" y="237.543125" transform="rotate(-0 126.423476 237.543125)">PrevOutcomeCount</text>
    </g>
   </g>
   <g id="matplotlib.axis_2">
    <g id="ytick_1">
     <g id="line2d_7">
      <defs>
       <path id="mb3b9d36dbd" d="M 0 0 
L -3.5 0 
" style="stroke: #000000; stroke-width: 0.8"/>
      </defs>
      <g>
       <use xlink:href="#mb3b9d36dbd" x="41.3625" y="210.24" style="stroke: #000000; stroke-width: 0.8"/>
      </g>
     </g>
     <g id="text_8">
      <text style="font: 10px 'Arial', sans-serif; text-anchor: end" x="34.3625" y="213.818906" transform="rotate(-0 34.3625 213.818906)">0.0</text>
     </g>
    </g>
    <g id="ytick_2">
     <g id="line2d_8">
      <g>
       <use xlink:href="#mb3b9d36dbd" x="41.3625" y="182.561671" style="stroke: #000000; stroke-width: 0.8"/>
      </g>
     </g>
     <g id="text_9">
      <text style="font: 10px 'Arial', sans-serif; text-anchor: end" x="34.3625" y="186.140577" transform="rotate(-0 34.3625 186.140577)">0.5</text>
     </g>
    </g>
    <g id="ytick_3">
     <g id="line2d_9">
      <g>
       <use xlink:href="#mb3b9d36dbd" x="41.3625" y="154.883341" style="stroke: #000000; stroke-width: 0.8"/>
      </g>
     </g>
     <g id="text_10">
      <text style="font: 10px 'Arial', sans-serif; text-anchor: end" x="34.3625" y="158.462248" transform="rotate(-0 34.3625 158.462248)">1.0</text>
     </g>
    </g>
    <g id="ytick_4">
     <g id="line2d_10">
      <g>
       <use xlink:href="#mb3b9d36dbd" x="41.3625" y="127.205012" style="stroke: #000000; stroke-width: 0.8"/>
      </g>
     </g>
     <g id="text_11">
      <text style="font: 10px 'Arial', sans-serif; text-anchor: end" x="34.3625" y="130.783918" transform="rotate(-0 34.3625 130.783918)">1.5</text>
     </g>
    </g>
    <g id="ytick_5">
     <g id="line2d_11">
      <g>
       <use xlink:href="#mb3b9d36dbd" x="41.3625" y="99.526683" style="stroke: #000000; stroke-width: 0.8"/>
      </g>
     </g>
     <g id="text_12">
      <text style="font: 10px 'Arial', sans-serif; text-anchor: end" x="34.3625" y="103.105589" transform="rotate(-0 34.3625 103.105589)">2.0</text>
     </g>
    </g>
    <g id="ytick_6">
     <g id="line2d_12">
      <g>
       <use xlink:href="#mb3b9d36dbd" x="41.3625" y="71.848353" style="stroke: #000000; stroke-width: 0.8"/>
      </g>
     </g>
     <g id="text_13">
      <text style="font: 10px 'Arial', sans-serif; text-anchor: end" x="34.3625" y="75.42726" transform="rotate(-0 34.3625 75.42726)">2.5</text>
     </g>
    </g>
    <g id="ytick_7">
     <g id="line2d_13">
      <g>
       <use xlink:href="#mb3b9d36dbd" x="41.3625" y="44.170024" style="stroke: #000000; stroke-width: 0.8"/>
      </g>
     </g>
     <g id="text_14">
      <text style="font: 10px 'Arial', sans-serif; text-anchor: end" x="34.3625" y="47.74893" transform="rotate(-0 34.3625 47.74893)">3.0</text>
     </g>
    </g>
    <g id="text_15">
     <text style="font: 10px 'Arial', sans-serif; text-anchor: middle" x="14.357813" y="127.08" transform="rotate(-90 14.357813 127.08)">Max Activity</text>
    </g>
   </g>
   <g id="LineCollection_1">
    <path clip-path="url(#p85c13754b2)" style="fill: none; stroke: #000000; stroke-width: 1.5"/>
    <path d="M 68.427356 184.838285 
L 68.427356 87.894837 
" clip-path="url(#p85c13754b2)" style="fill: none; stroke: #000000; stroke-width: 1.5"/>
    <path d="M 92.592406 144.42562 
L 92.592406 104.622773 
" clip-path="url(#p85c13754b2)" style="fill: none; stroke: #000000; stroke-width: 1.5"/>
    <path d="M 140.922506 102.872377 
L 140.922506 60.783406 
" clip-path="url(#p85c13754b2)" style="fill: none; stroke: #000000; stroke-width: 1.5"/>
    <path d="M 165.087555 97.918152 
L 165.087555 51.84 
" clip-path="url(#p85c13754b2)" style="fill: none; stroke: #000000; stroke-width: 1.5"/>
    <path d="M 189.252605 83.212469 
L 189.252605 56.01754 
" clip-path="url(#p85c13754b2)" style="fill: none; stroke: #000000; stroke-width: 1.5"/>
   </g>
   <g id="LineCollection_2">
    <path d="M 53.928326 173.855855 
L 53.928326 104.861833 
" clip-path="url(#p85c13754b2)" style="fill: none; stroke: #000000; stroke-width: 1.5"/>
    <path d="M 78.093376 130.445652 
L 78.093376 55.947927 
" clip-path="url(#p85c13754b2)" style="fill: none; stroke: #000000; stroke-width: 1.5"/>
    <path d="M 102.258426 176.245839 
L 102.258426 150.726879 
" clip-path="url(#p85c13754b2)" style="fill: none; stroke: #000000; stroke-width: 1.5"/>
    <path d="M 150.588525 152.783342 
L 150.588525 131.35595 
" clip-path="url(#p85c13754b2)" style="fill: none; stroke: #000000; stroke-width: 1.5"/>
    <path d="M 174.753575 106.812513 
L 174.753575 71.706737 
" clip-path="url(#p85c13754b2)" style="fill: none; stroke: #000000; stroke-width: 1.5"/>
    <path d="M 198.918625 157.786654 
L 198.918625 140.913327 
" clip-path="url(#p85c13754b2)" style="fill: none; stroke: #000000; stroke-width: 1.5"/>
   </g>
   <g id="line2d_14">
    <path d="M 41.3625 210.24 
L 211.484451 210.24 
" clip-path="url(#p85c13754b2)" style="fill: none; stroke-dasharray: 5.55,2.4; stroke-dashoffset: 0; stroke: #808080; stroke-width: 1.5"/>
   </g>
   <g id="legend_1">
    <g id="patch_15">
     <path d="M 48.3625 80.210625 
L 120.375 80.210625 
Q 122.375 80.210625 122.375 78.210625 
L 122.375 50.92 
Q 122.375 48.92 120.375 48.92 
L 48.3625 48.92 
Q 46.3625 48.92 46.3625 50.92 
L 46.3625 78.210625 
Q 46.3625 80.210625 48.3625 80.210625 
z
" style="fill: #ffffff; opacity: 0.8; stroke: #cccccc; stroke-linejoin: miter"/>
    </g>
    <g id="patch_16">
     <path d="M 50.3625 60.077812 
L 70.3625 60.077812 
L 70.3625 53.077812 
L 50.3625 53.077812 
z
" style="fill: #ffff00"/>
    </g>
    <g id="text_16">
     <text style="font: 10px 'Arial', sans-serif; text-anchor: start" x="78.3625" y="60.077812" transform="rotate(-0 78.3625 60.077812)">Pref</text>
    </g>
    <g id="patch_17">
     <path d="M 50.3625 74.223125 
L 70.3625 74.223125 
L 70.3625 67.223125 
L 50.3625 67.223125 
z
" style="fill: #800080"/>
    </g>
    <g id="text_17">
     <text style="font: 10px 'Arial', sans-serif; text-anchor: start" x="78.3625" y="74.223125" transform="rotate(-0 78.3625 74.223125)">Non-Pref</text>
    </g>
   </g>
  </g>
  <g id="axes_2">
   <g id="patch_18">
    <path d="M 245.508841 210.24 
L 415.630793 210.24 
L 415.630793 43.92 
L 245.508841 43.92 
z
" style="fill: #ffffff"/>
   </g>
   <g id="PolyCollection_1">
    <defs>
     <path id="m73679b6384" d="M 253.241657 -163.043289 
L 253.241657 -141.697571 
L 258.074667 -136.415931 
L 262.907677 -133.709072 
L 267.740687 -135.841224 
L 272.573697 -141.396222 
L 277.406707 -138.668505 
L 282.239717 -134.803932 
L 287.072727 -138.147382 
L 291.905737 -139.305506 
L 296.738747 -138.301879 
L 301.571757 -138.440613 
L 306.404767 -135.140656 
L 311.237777 -139.397175 
L 316.070787 -148.295854 
L 320.903797 -150.176398 
L 325.736807 -150.828103 
L 330.569817 -151.27632 
L 335.402827 -148.135156 
L 340.235837 -144.015161 
L 345.068847 -140.356172 
L 349.901857 -136.465932 
L 354.734867 -131.361666 
L 359.567877 -125.786736 
L 364.400887 -125.588298 
L 369.233897 -131.027731 
L 374.066907 -135.682031 
L 378.899917 -138.327332 
L 383.732927 -138.991668 
L 388.565937 -137.993536 
L 393.398947 -135.791435 
L 398.231957 -138.046778 
L 403.064967 -143.701444 
L 407.897977 -140.124009 
L 407.897977 -192.890762 
L 407.897977 -192.890762 
L 403.064967 -197.038494 
L 398.231957 -193.793627 
L 393.398947 -188.448107 
L 388.565937 -195.72444 
L 383.732927 -199.473495 
L 378.899917 -194.9378 
L 374.066907 -195.140249 
L 369.233897 -199.931886 
L 364.400887 -188.248242 
L 359.567877 -179.105505 
L 354.734867 -179.120448 
L 349.901857 -173.570821 
L 345.068847 -189.010907 
L 340.235837 -209.959919 
L 335.402827 -219.007084 
L 330.569817 -220.030903 
L 325.736807 -213.166182 
L 320.903797 -212.479132 
L 316.070787 -204.884433 
L 311.237777 -190.217256 
L 306.404767 -180.44917 
L 301.571757 -166.787092 
L 296.738747 -160.312324 
L 291.905737 -157.35821 
L 287.072727 -156.736234 
L 282.239717 -156.984063 
L 277.406707 -156.13712 
L 272.573697 -154.763669 
L 267.740687 -156.189707 
L 262.907677 -156.433482 
L 258.074667 -158.427335 
L 253.241657 -163.043289 
z
" style="stroke: #800080; stroke-opacity: 0.1"/>
    </defs>
    <g clip-path="url(#p396695e551)">
     <use xlink:href="#m73679b6384" x="0" y="323.436915" style="fill: #800080; fill-opacity: 0.1; stroke: #800080; stroke-opacity: 0.1"/>
    </g>
   </g>
   <g id="matplotlib.axis_3">
    <g id="xtick_7">
     <g id="line2d_15">
      <g>
       <use xlink:href="#m0ce5de44a5" x="262.907677" y="210.24" style="stroke: #000000; stroke-width: 0.8"/>
      </g>
     </g>
     <g id="text_18">
      <text style="font: 10px 'Arial', sans-serif" transform="translate(231.941925 251.86503) rotate(-45)">Sampling</text>
     </g>
    </g>
    <g id="xtick_8">
     <g id="line2d_16">
      <g>
       <use xlink:href="#m0ce5de44a5" x="393.398947" y="210.24" style="stroke: #000000; stroke-width: 0.8"/>
      </g>
     </g>
     <g id="text_19">
      <text style="font: 10px 'Arial', sans-serif" transform="translate(312.608682 301.686227) rotate(-45)">Movement to Lateral Port</text>
     </g>
    </g>
    <g id="text_20">
     <text style="font: 10px 'Arial', sans-serif; text-anchor: middle" x="330.569817" y="314.249415" transform="rotate(-0 330.569817 314.249415)">Normalized Time</text>
    </g>
   </g>
   <g id="matplotlib.axis_4">
    <g id="ytick_8">
     <g id="line2d_17">
      <g>
       <use xlink:href="#mb3b9d36dbd" x="245.508841" y="195.80131" style="stroke: #000000; stroke-width: 0.8"/>
      </g>
     </g>
     <g id="text_21">
      <text style="font: 10px 'Arial', sans-serif; text-anchor: end" x="238.508841" y="199.380217" transform="rotate(-0 238.508841 199.380217)">−0.5</text>
     </g>
    </g>
    <g id="ytick_9">
     <g id="line2d_18">
      <g>
       <use xlink:href="#mb3b9d36dbd" x="245.508841" y="172.106656" style="stroke: #000000; stroke-width: 0.8"/>
      </g>
     </g>
     <g id="text_22">
      <text style="font: 10px 'Arial', sans-serif; text-anchor: end" x="238.508841" y="175.685562" transform="rotate(-0 238.508841 175.685562)">0.0</text>
     </g>
    </g>
    <g id="ytick_10">
     <g id="line2d_19">
      <g>
       <use xlink:href="#mb3b9d36dbd" x="245.508841" y="148.412001" style="stroke: #000000; stroke-width: 0.8"/>
      </g>
     </g>
     <g id="text_23">
      <text style="font: 10px 'Arial', sans-serif; text-anchor: end" x="238.508841" y="151.990907" transform="rotate(-0 238.508841 151.990907)">0.5</text>
     </g>
    </g>
    <g id="ytick_11">
     <g id="line2d_20">
      <g>
       <use xlink:href="#mb3b9d36dbd" x="245.508841" y="124.717346" style="stroke: #000000; stroke-width: 0.8"/>
      </g>
     </g>
     <g id="text_24">
      <text style="font: 10px 'Arial', sans-serif; text-anchor: end" x="238.508841" y="128.296252" transform="rotate(-0 238.508841 128.296252)">1.0</text>
     </g>
    </g>
    <g id="ytick_12">
     <g id="line2d_21">
      <g>
       <use xlink:href="#mb3b9d36dbd" x="245.508841" y="101.022691" style="stroke: #000000; stroke-width: 0.8"/>
      </g>
     </g>
     <g id="text_25">
      <text style="font: 10px 'Arial', sans-serif; text-anchor: end" x="238.508841" y="104.601597" transform="rotate(-0 238.508841 104.601597)">1.5</text>
     </g>
    </g>
    <g id="ytick_13">
     <g id="line2d_22">
      <g>
       <use xlink:href="#mb3b9d36dbd" x="245.508841" y="77.328036" style="stroke: #000000; stroke-width: 0.8"/>
      </g>
     </g>
     <g id="text_26">
      <text style="font: 10px 'Arial', sans-serif; text-anchor: end" x="238.508841" y="80.906942" transform="rotate(-0 238.508841 80.906942)">2.0</text>
     </g>
    </g>
    <g id="ytick_14">
     <g id="line2d_23">
      <g>
       <use xlink:href="#mb3b9d36dbd" x="245.508841" y="53.633381" style="stroke: #000000; stroke-width: 0.8"/>
      </g>
     </g>
     <g id="text_27">
      <text style="font: 10px 'Arial', sans-serif; text-anchor: end" x="238.508841" y="57.212288" transform="rotate(-0 238.508841 57.212288)">2.5</text>
     </g>
    </g>
    <g id="text_28">
     <text style="font: 10px 'Arial', sans-serif; text-anchor: middle" x="212.663529" y="127.08" transform="rotate(-90 212.663529 127.08)">Mean Activity</text>
    </g>
   </g>
   <g id="line2d_24">
    <path d="M 253.241657 171.066485 
L 258.074667 176.015282 
L 262.907677 178.365638 
L 267.740687 177.421449 
L 272.573697 175.356969 
L 277.406707 176.034102 
L 282.239717 177.542917 
L 287.072727 175.995107 
L 291.905737 175.105057 
L 296.738747 174.129813 
L 301.571757 170.823062 
L 306.404767 165.642001 
L 311.237777 158.6297 
L 316.070787 146.84677 
L 320.903797 142.109151 
L 325.736807 141.439772 
L 330.569817 137.783303 
L 335.402827 139.865793 
L 340.235837 146.449376 
L 345.068847 158.753375 
L 349.901857 168.418538 
L 354.734867 168.195857 
L 359.567877 170.990795 
L 364.400887 166.518644 
L 369.233897 157.957108 
L 374.066907 158.025774 
L 378.899917 156.80435 
L 383.732927 154.204334 
L 388.565937 156.577926 
L 393.398947 161.317144 
L 398.231957 157.516712 
L 403.064967 153.066945 
L 407.897977 156.929528 
" clip-path="url(#p396695e551)" style="fill: none; stroke: #800080; stroke-width: 1.5; stroke-linecap: square"/>
   </g>
   <g id="line2d_25">
    <path d="M 262.907677 210.24 
L 262.907677 43.92 
" clip-path="url(#p396695e551)" style="fill: none; stroke-dasharray: 5.55,2.4; stroke-dashoffset: 0; stroke: #808080; stroke-opacity: 0.7; stroke-width: 1.5"/>
   </g>
   <g id="line2d_26">
    <path d="M 393.398947 210.24 
L 393.398947 43.92 
" clip-path="url(#p396695e551)" style="fill: none; stroke-dasharray: 5.55,2.4; stroke-dashoffset: 0; stroke: #808080; stroke-opacity: 0.7; stroke-width: 1.5"/>
   </g>
   <g id="text_29">
    <text style="font: 12px 'Arial', sans-serif; text-anchor: middle" x="330.569817" y="37.92" transform="rotate(-0 330.569817 37.92)">3 Incorrect Trials</text>
   </g>
   <g id="legend_2">
    <g id="patch_19">
     <path d="M 273.307169 207.345 
L 387.832465 207.345 
Q 388.990465 207.345 388.990465 206.187 
L 388.990465 198.575864 
Q 388.990465 197.417864 387.832465 197.417864 
L 273.307169 197.417864 
Q 272.149169 197.417864 272.149169 198.575864 
L 272.149169 206.187 
Q 272.149169 207.345 273.307169 207.345 
z
" style="fill: #ffffff; opacity: 0.8; stroke: #cccccc; stroke-linejoin: miter"/>
    </g>
    <g id="line2d_27">
     <path d="M 274.465169 201.851738 
L 280.255169 201.851738 
L 286.045169 201.851738 
" style="fill: none; stroke: #800080; stroke-width: 1.5; stroke-linecap: square"/>
    </g>
    <g id="text_30">
     <text style="font: 5.79px 'Arial', sans-serif; text-anchor: start" x="290.677169" y="203.878238" transform="rotate(-0 290.677169 203.878238)">NonPref - PrevCount=-3 - #Trials=5.0</text>
    </g>
   </g>
  </g>
  <g id="axes_3">
   <g id="patch_20">
    <path d="M 449.655183 210.24 
L 619.777134 210.24 
L 619.777134 43.92 
L 449.655183 43.92 
z
" style="fill: #ffffff"/>
   </g>
   <g id="PolyCollection_2">
    <defs>
     <path id="m190fb1cccc" d="M 457.387999 -198.577756 
L 457.387999 -135.684209 
L 462.221009 -129.496645 
L 467.054019 -129.68261 
L 471.887029 -137.755399 
L 476.720039 -138.844578 
L 481.553049 -135.322324 
L 486.386059 -138.582527 
L 491.219069 -137.947568 
L 496.052079 -139.889473 
L 500.885089 -144.334353 
L 505.718099 -137.833533 
L 510.551109 -122.298841 
L 515.384119 -120.77046 
L 520.217129 -128.144161 
L 525.050139 -135.56381 
L 529.883149 -135.29579 
L 534.716159 -124.464705 
L 539.549169 -121.795281 
L 544.382178 -121.868769 
L 549.215188 -119.264891 
L 554.048198 -119.328981 
L 558.881208 -122.194544 
L 563.714218 -122.293638 
L 568.547228 -125.878903 
L 573.380238 -124.290519 
L 578.213248 -123.914579 
L 583.046258 -124.450435 
L 587.879268 -127.529494 
L 592.712278 -131.628162 
L 597.545288 -128.570731 
L 602.378298 -119.273003 
L 607.211308 -125.618312 
L 612.044318 -141.12197 
L 612.044318 -225.855925 
L 612.044318 -225.855925 
L 607.211308 -215.607458 
L 602.378298 -206.40365 
L 597.545288 -199.484318 
L 592.712278 -187.664006 
L 587.879268 -182.898274 
L 583.046258 -184.1691 
L 578.213248 -187.346657 
L 573.380238 -192.962182 
L 568.547228 -196.013642 
L 563.714218 -191.015466 
L 558.881208 -186.619325 
L 554.048198 -182.312176 
L 549.215188 -187.064655 
L 544.382178 -188.246449 
L 539.549169 -168.562049 
L 534.716159 -152.53962 
L 529.883149 -156.462103 
L 525.050139 -154.210933 
L 520.217129 -145.731133 
L 515.384119 -144.618516 
L 510.551109 -140.949583 
L 505.718099 -154.037659 
L 500.885089 -176.657439 
L 496.052079 -177.213223 
L 491.219069 -170.757985 
L 486.386059 -171.999217 
L 481.553049 -182.22157 
L 476.720039 -196.616394 
L 471.887029 -196.301358 
L 467.054019 -187.938599 
L 462.221009 -189.569536 
L 457.387999 -198.577756 
z
" style="stroke: #ffff00; stroke-opacity: 0.1"/>
    </defs>
    <g clip-path="url(#pc9147317e3)">
     <use xlink:href="#m190fb1cccc" x="0" y="323.436915" style="fill: #ffff00; fill-opacity: 0.1; stroke: #ffff00; stroke-opacity: 0.1"/>
    </g>
   </g>
   <g id="PolyCollection_3">
    <defs>
     <path id="mad9bb81ae5" d="M 457.387999 -139.588248 
L 457.387999 -128.098187 
L 462.221009 -127.768243 
L 467.054019 -130.150215 
L 471.887029 -133.771889 
L 476.720039 -137.687514 
L 481.553049 -136.532198 
L 486.386059 -135.568089 
L 491.219069 -133.094201 
L 496.052079 -130.008218 
L 500.885089 -129.432169 
L 505.718099 -133.398126 
L 510.551109 -139.757301 
L 515.384119 -141.799272 
L 520.217129 -142.297943 
L 525.050139 -138.01476 
L 529.883149 -138.085082 
L 534.716159 -133.583452 
L 539.549169 -138.420212 
L 544.382178 -146.663551 
L 549.215188 -153.229349 
L 554.048198 -152.077787 
L 558.881208 -151.9896 
L 563.714218 -157.097659 
L 568.547228 -159.728228 
L 573.380238 -156.74047 
L 578.213248 -154.589189 
L 583.046258 -155.54097 
L 587.879268 -160.249873 
L 592.712278 -174.590046 
L 597.545288 -188.505921 
L 602.378298 -201.006536 
L 607.211308 -201.900829 
L 612.044318 -200.772482 
L 612.044318 -262.744394 
L 612.044318 -262.744394 
L 607.211308 -267.863582 
L 602.378298 -265.63787 
L 597.545288 -246.422615 
L 592.712278 -231.233284 
L 587.879268 -212.383536 
L 583.046258 -201.936097 
L 578.213248 -200.192949 
L 573.380238 -203.460269 
L 568.547228 -212.367831 
L 563.714218 -217.327049 
L 558.881208 -209.92478 
L 554.048198 -200.795441 
L 549.215188 -195.240616 
L 544.382178 -180.306592 
L 539.549169 -161.245659 
L 534.716159 -152.925757 
L 529.883149 -162.290178 
L 525.050139 -169.059807 
L 520.217129 -172.44877 
L 515.384119 -168.353423 
L 510.551109 -162.861755 
L 505.718099 -155.887008 
L 500.885089 -149.906906 
L 496.052079 -147.039028 
L 491.219069 -147.724456 
L 486.386059 -150.046086 
L 481.553049 -150.856305 
L 476.720039 -150.821098 
L 471.887029 -147.797849 
L 467.054019 -144.847988 
L 462.221009 -142.912679 
L 457.387999 -139.588248 
z
" style="stroke: #800080; stroke-opacity: 0.1"/>
    </defs>
    <g clip-path="url(#pc9147317e3)">
     <use xlink:href="#mad9bb81ae5" x="0" y="323.436915" style="fill: #800080; fill-opacity: 0.1; stroke: #800080; stroke-opacity: 0.1"/>
    </g>
   </g>
   <g id="matplotlib.axis_5">
    <g id="xtick_9">
     <g id="line2d_28">
      <g>
       <use xlink:href="#m0ce5de44a5" x="467.054019" y="210.24" style="stroke: #000000; stroke-width: 0.8"/>
      </g>
     </g>
     <g id="text_31">
      <text style="font: 10px 'Arial', sans-serif" transform="translate(436.088266 251.86503) rotate(-45)">Sampling</text>
     </g>
    </g>
    <g id="xtick_10">
     <g id="line2d_29">
      <g>
       <use xlink:href="#m0ce5de44a5" x="597.545288" y="210.24" style="stroke: #000000; stroke-width: 0.8"/>
      </g>
     </g>
     <g id="text_32">
      <text style="font: 10px 'Arial', sans-serif" transform="translate(516.755024 301.686227) rotate(-45)">Movement to Lateral Port</text>
     </g>
    </g>
    <g id="text_33">
     <text style="font: 10px 'Arial', sans-serif; text-anchor: middle" x="534.716159" y="314.249415" transform="rotate(-0 534.716159 314.249415)">Normalized Time</text>
    </g>
   </g>
   <g id="matplotlib.axis_6">
    <g id="ytick_15">
     <g id="line2d_30">
      <g>
       <use xlink:href="#mb3b9d36dbd" x="449.655183" y="195.80131" style="stroke: #000000; stroke-width: 0.8"/>
      </g>
     </g>
     <g id="text_34">
      <text style="font: 10px 'Arial', sans-serif; text-anchor: end" x="442.655183" y="199.380217" transform="rotate(-0 442.655183 199.380217)">−0.5</text>
     </g>
    </g>
    <g id="ytick_16">
     <g id="line2d_31">
      <g>
       <use xlink:href="#mb3b9d36dbd" x="449.655183" y="172.106656" style="stroke: #000000; stroke-width: 0.8"/>
      </g>
     </g>
     <g id="text_35">
      <text style="font: 10px 'Arial', sans-serif; text-anchor: end" x="442.655183" y="175.685562" transform="rotate(-0 442.655183 175.685562)">0.0</text>
     </g>
    </g>
    <g id="ytick_17">
     <g id="line2d_32">
      <g>
       <use xlink:href="#mb3b9d36dbd" x="449.655183" y="148.412001" style="stroke: #000000; stroke-width: 0.8"/>
      </g>
     </g>
     <g id="text_36">
      <text style="font: 10px 'Arial', sans-serif; text-anchor: end" x="442.655183" y="151.990907" transform="rotate(-0 442.655183 151.990907)">0.5</text>
     </g>
    </g>
    <g id="ytick_18">
     <g id="line2d_33">
      <g>
       <use xlink:href="#mb3b9d36dbd" x="449.655183" y="124.717346" style="stroke: #000000; stroke-width: 0.8"/>
      </g>
     </g>
     <g id="text_37">
      <text style="font: 10px 'Arial', sans-serif; text-anchor: end" x="442.655183" y="128.296252" transform="rotate(-0 442.655183 128.296252)">1.0</text>
     </g>
    </g>
    <g id="ytick_19">
     <g id="line2d_34">
      <g>
       <use xlink:href="#mb3b9d36dbd" x="449.655183" y="101.022691" style="stroke: #000000; stroke-width: 0.8"/>
      </g>
     </g>
     <g id="text_38">
      <text style="font: 10px 'Arial', sans-serif; text-anchor: end" x="442.655183" y="104.601597" transform="rotate(-0 442.655183 104.601597)">1.5</text>
     </g>
    </g>
    <g id="ytick_20">
     <g id="line2d_35">
      <g>
       <use xlink:href="#mb3b9d36dbd" x="449.655183" y="77.328036" style="stroke: #000000; stroke-width: 0.8"/>
      </g>
     </g>
     <g id="text_39">
      <text style="font: 10px 'Arial', sans-serif; text-anchor: end" x="442.655183" y="80.906942" transform="rotate(-0 442.655183 80.906942)">2.0</text>
     </g>
    </g>
    <g id="ytick_21">
     <g id="line2d_36">
      <g>
       <use xlink:href="#mb3b9d36dbd" x="449.655183" y="53.633381" style="stroke: #000000; stroke-width: 0.8"/>
      </g>
     </g>
     <g id="text_40">
      <text style="font: 10px 'Arial', sans-serif; text-anchor: end" x="442.655183" y="57.212288" transform="rotate(-0 442.655183 57.212288)">2.5</text>
     </g>
    </g>
    <g id="text_41">
     <text style="font: 10px 'Arial', sans-serif; text-anchor: middle" x="416.80987" y="127.08" transform="rotate(-90 416.80987 127.08)">Mean Activity</text>
    </g>
   </g>
   <g id="line2d_37">
    <path d="M 457.387999 156.305932 
L 462.221009 163.903825 
L 467.054019 164.62631 
L 471.887029 156.408535 
L 476.720039 155.706428 
L 481.553049 164.664968 
L 486.386059 168.146043 
L 491.219069 169.084139 
L 496.052079 164.885566 
L 500.885089 162.941018 
L 505.718099 177.501318 
L 510.551109 191.812703 
L 515.384119 190.742428 
L 520.217129 186.499268 
L 525.050139 178.549543 
L 529.883149 177.557968 
L 534.716159 184.934751 
L 539.549169 178.258249 
L 544.382178 168.379304 
L 549.215188 170.272142 
L 554.048198 172.616336 
L 558.881208 169.029982 
L 563.714218 166.782364 
L 568.547228 162.490643 
L 573.380238 164.810564 
L 578.213248 167.806297 
L 583.046258 169.127149 
L 587.879268 168.223032 
L 592.712278 163.790831 
L 597.545288 159.409389 
L 602.378298 160.598588 
L 607.211308 152.824028 
L 612.044318 139.947967 
" clip-path="url(#pc9147317e3)" style="fill: none; stroke: #ffff00; stroke-width: 1.5; stroke-linecap: square"/>
   </g>
   <g id="line2d_38">
    <path d="M 457.387999 189.593697 
L 462.221009 188.096454 
L 467.054019 185.937813 
L 471.887029 182.652046 
L 476.720039 179.182609 
L 481.553049 179.742663 
L 486.386059 180.629827 
L 491.219069 183.027586 
L 496.052079 184.913291 
L 500.885089 183.767377 
L 505.718099 178.794348 
L 510.551109 172.127387 
L 515.384119 168.360567 
L 520.217129 166.063558 
L 525.050139 169.89963 
L 529.883149 173.249285 
L 534.716159 180.18231 
L 539.549169 173.603979 
L 544.382178 159.951842 
L 549.215188 149.201932 
L 554.048198 147.000299 
L 558.881208 142.479725 
L 563.714218 136.22456 
L 568.547228 137.388887 
L 573.380238 143.336546 
L 578.213248 146.045845 
L 583.046258 144.698381 
L 587.879268 137.120209 
L 592.712278 120.525249 
L 597.545288 105.972645 
L 602.378298 90.114709 
L 607.211308 88.554709 
L 612.044318 91.678477 
" clip-path="url(#pc9147317e3)" style="fill: none; stroke: #800080; stroke-width: 1.5; stroke-linecap: square"/>
   </g>
   <g id="line2d_39">
    <path d="M 467.054019 210.24 
L 467.054019 43.92 
" clip-path="url(#pc9147317e3)" style="fill: none; stroke-dasharray: 5.55,2.4; stroke-dashoffset: 0; stroke: #808080; stroke-opacity: 0.7; stroke-width: 1.5"/>
   </g>
   <g id="line2d_40">
    <path d="M 597.545288 210.24 
L 597.545288 43.92 
" clip-path="url(#pc9147317e3)" style="fill: none; stroke-dasharray: 5.55,2.4; stroke-dashoffset: 0; stroke: #808080; stroke-opacity: 0.7; stroke-width: 1.5"/>
   </g>
   <g id="text_42">
    <text style="font: 12px 'Arial', sans-serif; text-anchor: middle" x="534.716159" y="37.92" transform="rotate(-0 534.716159 37.92)">2 Incorrect Trials</text>
   </g>
   <g id="legend_3">
    <g id="patch_21">
     <path d="M 476.057126 64.932272 
L 593.375191 64.932272 
Q 594.533191 64.932272 594.533191 63.774272 
L 594.533191 47.973 
Q 594.533191 46.815 593.375191 46.815 
L 476.057126 46.815 
Q 474.899126 46.815 474.899126 47.973 
L 474.899126 63.774272 
Q 474.899126 64.932272 476.057126 64.932272 
z
" style="fill: #ffffff; opacity: 0.8; stroke: #cccccc; stroke-linejoin: miter"/>
    </g>
    <g id="line2d_41">
     <path d="M 477.215126 51.248873 
L 483.005126 51.248873 
L 488.795126 51.248873 
" style="fill: none; stroke: #ffff00; stroke-width: 1.5; stroke-linecap: square"/>
    </g>
    <g id="text_43">
     <text style="font: 5.79px 'Arial', sans-serif; text-anchor: start" x="493.427126" y="53.275373" transform="rotate(-0 493.427126 53.275373)">Pref - PrevCount=-2 - #Trials=4.0</text>
    </g>
    <g id="line2d_42">
     <path d="M 477.215126 59.439009 
L 483.005126 59.439009 
L 488.795126 59.439009 
" style="fill: none; stroke: #800080; stroke-width: 1.5; stroke-linecap: square"/>
    </g>
    <g id="text_44">
     <text style="font: 5.79px 'Arial', sans-serif; text-anchor: start" x="493.427126" y="61.465509" transform="rotate(-0 493.427126 61.465509)">NonPref - PrevCount=-2 - #Trials=11.0</text>
    </g>
   </g>
  </g>
  <g id="axes_4">
   <g id="patch_22">
    <path d="M 653.801524 210.24 
L 823.923476 210.24 
L 823.923476 43.92 
L 653.801524 43.92 
z
" style="fill: #ffffff"/>
   </g>
   <g id="PolyCollection_4">
    <defs>
     <path id="m74c171d3a8" d="M 661.53434 -149.822001 
L 661.53434 -134.922637 
L 666.36735 -139.867905 
L 671.20036 -139.496412 
L 676.03337 -136.88786 
L 680.86638 -136.701285 
L 685.69939 -134.795394 
L 690.5324 -133.946901 
L 695.36541 -132.392574 
L 700.19842 -133.159225 
L 705.03143 -135.877108 
L 709.86444 -143.249105 
L 714.69745 -148.827664 
L 719.53046 -154.132914 
L 724.36347 -157.484892 
L 729.19648 -159.67703 
L 734.02949 -160.801889 
L 738.8625 -160.293953 
L 743.69551 -155.93552 
L 748.52852 -157.485021 
L 753.36153 -161.175498 
L 758.19454 -161.322038 
L 763.02755 -158.385372 
L 767.86056 -155.021315 
L 772.69357 -152.153827 
L 777.52658 -154.53884 
L 782.35959 -159.353267 
L 787.1926 -164.879159 
L 792.02561 -171.943106 
L 796.85862 -176.509451 
L 801.69163 -177.988779 
L 806.52464 -179.104675 
L 811.35765 -180.425409 
L 816.19066 -184.130645 
L 816.19066 -218.577679 
L 816.19066 -218.577679 
L 811.35765 -215.394674 
L 806.52464 -213.734869 
L 801.69163 -212.978232 
L 796.85862 -210.96149 
L 792.02561 -203.36587 
L 787.1926 -192.014758 
L 782.35959 -184.958565 
L 777.52658 -177.407427 
L 772.69357 -173.363544 
L 767.86056 -178.818394 
L 763.02755 -186.792378 
L 758.19454 -187.588142 
L 753.36153 -185.48699 
L 748.52852 -183.886372 
L 743.69551 -183.571828 
L 738.8625 -188.111166 
L 734.02949 -193.340478 
L 729.19648 -192.013778 
L 724.36347 -191.266197 
L 719.53046 -186.126982 
L 714.69745 -174.313582 
L 709.86444 -161.019859 
L 705.03143 -152.009776 
L 700.19842 -147.436463 
L 695.36541 -144.78089 
L 690.5324 -144.15184 
L 685.69939 -146.366653 
L 680.86638 -149.155684 
L 676.03337 -150.964437 
L 671.20036 -153.370911 
L 666.36735 -153.003686 
L 661.53434 -149.822001 
z
" style="stroke: #ffff00; stroke-opacity: 0.1"/>
    </defs>
    <g clip-path="url(#p38150587de)">
     <use xlink:href="#m74c171d3a8" x="0" y="323.436915" style="fill: #ffff00; fill-opacity: 0.1; stroke: #ffff00; stroke-opacity: 0.1"/>
    </g>
   </g>
   <g id="PolyCollection_5">
    <defs>
     <path id="mbff7610125" d="M 661.53434 -132.59198 
L 661.53434 -121.24355 
L 666.36735 -117.567066 
L 671.20036 -116.663582 
L 676.03337 -119.301167 
L 680.86638 -120.884775 
L 685.69939 -122.261824 
L 690.5324 -123.395546 
L 695.36541 -123.138437 
L 700.19842 -121.268486 
L 705.03143 -118.941257 
L 709.86444 -121.643138 
L 714.69745 -122.730319 
L 719.53046 -122.499677 
L 724.36347 -125.124653 
L 729.19648 -127.026864 
L 734.02949 -124.66644 
L 738.8625 -124.997872 
L 743.69551 -128.467199 
L 748.52852 -128.250806 
L 753.36153 -129.685854 
L 758.19454 -129.05473 
L 763.02755 -126.903953 
L 767.86056 -128.011618 
L 772.69357 -129.027569 
L 777.52658 -129.253514 
L 782.35959 -129.927537 
L 787.1926 -134.660018 
L 792.02561 -136.942282 
L 796.85862 -139.659954 
L 801.69163 -144.216624 
L 806.52464 -154.224804 
L 811.35765 -159.569368 
L 816.19066 -162.398673 
L 816.19066 -185.253439 
L 816.19066 -185.253439 
L 811.35765 -181.08138 
L 806.52464 -174.437106 
L 801.69163 -163.814093 
L 796.85862 -156.917086 
L 792.02561 -153.292372 
L 787.1926 -151.093431 
L 782.35959 -145.91553 
L 777.52658 -145.276791 
L 772.69357 -146.091944 
L 767.86056 -144.927435 
L 763.02755 -145.462959 
L 758.19454 -146.464215 
L 753.36153 -144.555796 
L 748.52852 -141.106111 
L 743.69551 -140.925356 
L 738.8625 -136.126308 
L 734.02949 -137.53037 
L 729.19648 -141.688827 
L 724.36347 -138.568254 
L 719.53046 -133.924913 
L 714.69745 -134.691154 
L 709.86444 -132.421619 
L 705.03143 -128.861236 
L 700.19842 -131.972254 
L 695.36541 -131.840474 
L 690.5324 -133.951443 
L 685.69939 -132.80356 
L 680.86638 -131.558861 
L 676.03337 -129.958995 
L 671.20036 -127.229638 
L 666.36735 -128.177808 
L 661.53434 -132.59198 
z
" style="stroke: #800080; stroke-opacity: 0.1"/>
    </defs>
    <g clip-path="url(#p38150587de)">
     <use xlink:href="#mbff7610125" x="0" y="323.436915" style="fill: #800080; fill-opacity: 0.1; stroke: #800080; stroke-opacity: 0.1"/>
    </g>
   </g>
   <g id="matplotlib.axis_7">
    <g id="xtick_11">
     <g id="line2d_43">
      <g>
       <use xlink:href="#m0ce5de44a5" x="671.20036" y="210.24" style="stroke: #000000; stroke-width: 0.8"/>
      </g>
     </g>
     <g id="text_45">
      <text style="font: 10px 'Arial', sans-serif" transform="translate(640.234608 251.86503) rotate(-45)">Sampling</text>
     </g>
    </g>
    <g id="xtick_12">
     <g id="line2d_44">
      <g>
       <use xlink:href="#m0ce5de44a5" x="801.69163" y="210.24" style="stroke: #000000; stroke-width: 0.8"/>
      </g>
     </g>
     <g id="text_46">
      <text style="font: 10px 'Arial', sans-serif" transform="translate(720.901365 301.686227) rotate(-45)">Movement to Lateral Port</text>
     </g>
    </g>
    <g id="text_47">
     <text style="font: 10px 'Arial', sans-serif; text-anchor: middle" x="738.8625" y="314.249415" transform="rotate(-0 738.8625 314.249415)">Normalized Time</text>
    </g>
   </g>
   <g id="matplotlib.axis_8">
    <g id="ytick_22">
     <g id="line2d_45">
      <g>
       <use xlink:href="#mb3b9d36dbd" x="653.801524" y="195.80131" style="stroke: #000000; stroke-width: 0.8"/>
      </g>
     </g>
     <g id="text_48">
      <text style="font: 10px 'Arial', sans-serif; text-anchor: end" x="646.801524" y="199.380217" transform="rotate(-0 646.801524 199.380217)">−0.5</text>
     </g>
    </g>
    <g id="ytick_23">
     <g id="line2d_46">
      <g>
       <use xlink:href="#mb3b9d36dbd" x="653.801524" y="172.106656" style="stroke: #000000; stroke-width: 0.8"/>
      </g>
     </g>
     <g id="text_49">
      <text style="font: 10px 'Arial', sans-serif; text-anchor: end" x="646.801524" y="175.685562" transform="rotate(-0 646.801524 175.685562)">0.0</text>
     </g>
    </g>
    <g id="ytick_24">
     <g id="line2d_47">
      <g>
       <use xlink:href="#mb3b9d36dbd" x="653.801524" y="148.412001" style="stroke: #000000; stroke-width: 0.8"/>
      </g>
     </g>
     <g id="text_50">
      <text style="font: 10px 'Arial', sans-serif; text-anchor: end" x="646.801524" y="151.990907" transform="rotate(-0 646.801524 151.990907)">0.5</text>
     </g>
    </g>
    <g id="ytick_25">
     <g id="line2d_48">
      <g>
       <use xlink:href="#mb3b9d36dbd" x="653.801524" y="124.717346" style="stroke: #000000; stroke-width: 0.8"/>
      </g>
     </g>
     <g id="text_51">
      <text style="font: 10px 'Arial', sans-serif; text-anchor: end" x="646.801524" y="128.296252" transform="rotate(-0 646.801524 128.296252)">1.0</text>
     </g>
    </g>
    <g id="ytick_26">
     <g id="line2d_49">
      <g>
       <use xlink:href="#mb3b9d36dbd" x="653.801524" y="101.022691" style="stroke: #000000; stroke-width: 0.8"/>
      </g>
     </g>
     <g id="text_52">
      <text style="font: 10px 'Arial', sans-serif; text-anchor: end" x="646.801524" y="104.601597" transform="rotate(-0 646.801524 104.601597)">1.5</text>
     </g>
    </g>
    <g id="ytick_27">
     <g id="line2d_50">
      <g>
       <use xlink:href="#mb3b9d36dbd" x="653.801524" y="77.328036" style="stroke: #000000; stroke-width: 0.8"/>
      </g>
     </g>
     <g id="text_53">
      <text style="font: 10px 'Arial', sans-serif; text-anchor: end" x="646.801524" y="80.906942" transform="rotate(-0 646.801524 80.906942)">2.0</text>
     </g>
    </g>
    <g id="ytick_28">
     <g id="line2d_51">
      <g>
       <use xlink:href="#mb3b9d36dbd" x="653.801524" y="53.633381" style="stroke: #000000; stroke-width: 0.8"/>
      </g>
     </g>
     <g id="text_54">
      <text style="font: 10px 'Arial', sans-serif; text-anchor: end" x="646.801524" y="57.212288" transform="rotate(-0 646.801524 57.212288)">2.5</text>
     </g>
    </g>
    <g id="text_55">
     <text style="font: 10px 'Arial', sans-serif; text-anchor: middle" x="620.956212" y="127.08" transform="rotate(-90 620.956212 127.08)">Mean Activity</text>
    </g>
   </g>
   <g id="line2d_52">
    <path d="M 661.53434 181.064596 
L 666.36735 177.001119 
L 671.20036 177.003253 
L 676.03337 179.510766 
L 680.86638 180.50843 
L 685.69939 182.855891 
L 690.5324 184.387544 
L 695.36541 184.850182 
L 700.19842 183.13907 
L 705.03143 179.493473 
L 709.86444 171.302432 
L 714.69745 161.866291 
L 719.53046 153.306968 
L 724.36347 149.06137 
L 729.19648 147.59151 
L 734.02949 146.365731 
L 738.8625 149.234356 
L 743.69551 153.683241 
L 748.52852 152.751219 
L 753.36153 150.105671 
L 758.19454 148.981825 
L 763.02755 150.84804 
L 767.86056 156.51706 
L 772.69357 160.678229 
L 777.52658 157.463782 
L 782.35959 151.280998 
L 787.1926 144.989956 
L 792.02561 135.782428 
L 796.85862 129.701444 
L 801.69163 127.953409 
L 806.52464 127.017143 
L 811.35765 125.526871 
L 816.19066 122.082752 
" clip-path="url(#p38150587de)" style="fill: none; stroke: #ffff00; stroke-width: 1.5; stroke-linecap: square"/>
   </g>
   <g id="line2d_53">
    <path d="M 661.53434 196.519149 
L 666.36735 200.564478 
L 671.20036 201.490304 
L 676.03337 198.806833 
L 680.86638 197.215096 
L 685.69939 195.904223 
L 690.5324 194.76342 
L 695.36541 195.947459 
L 700.19842 196.816545 
L 705.03143 199.535668 
L 709.86444 196.404537 
L 714.69745 194.726178 
L 719.53046 195.22462 
L 724.36347 191.590461 
L 729.19648 189.079069 
L 734.02949 192.33851 
L 738.8625 192.874824 
L 743.69551 188.740637 
L 748.52852 188.758456 
L 753.36153 186.316089 
L 758.19454 185.677442 
L 763.02755 187.253459 
L 767.86056 186.967388 
L 772.69357 185.877159 
L 777.52658 186.171762 
L 782.35959 185.515381 
L 787.1926 180.56019 
L 792.02561 178.319587 
L 796.85862 175.148395 
L 801.69163 169.421557 
L 806.52464 159.10596 
L 811.35765 153.111541 
L 816.19066 149.610858 
" clip-path="url(#p38150587de)" style="fill: none; stroke: #800080; stroke-width: 1.5; stroke-linecap: square"/>
   </g>
   <g id="line2d_54">
    <path d="M 671.20036 210.24 
L 671.20036 43.92 
" clip-path="url(#p38150587de)" style="fill: none; stroke-dasharray: 5.55,2.4; stroke-dashoffset: 0; stroke: #808080; stroke-opacity: 0.7; stroke-width: 1.5"/>
   </g>
   <g id="line2d_55">
    <path d="M 801.69163 210.24 
L 801.69163 43.92 
" clip-path="url(#p38150587de)" style="fill: none; stroke-dasharray: 5.55,2.4; stroke-dashoffset: 0; stroke: #808080; stroke-opacity: 0.7; stroke-width: 1.5"/>
   </g>
   <g id="text_56">
    <text style="font: 12px 'Arial', sans-serif; text-anchor: middle" x="738.8625" y="37.92" transform="rotate(-0 738.8625 37.92)">1 Incorrect Trials</text>
   </g>
   <g id="legend_4">
    <g id="patch_23">
     <path d="M 679.989961 64.932272 
L 797.735039 64.932272 
Q 798.893039 64.932272 798.893039 63.774272 
L 798.893039 47.973 
Q 798.893039 46.815 797.735039 46.815 
L 679.989961 46.815 
Q 678.831961 46.815 678.831961 47.973 
L 678.831961 63.774272 
Q 678.831961 64.932272 679.989961 64.932272 
z
" style="fill: #ffffff; opacity: 0.8; stroke: #cccccc; stroke-linejoin: miter"/>
    </g>
    <g id="line2d_56">
     <path d="M 681.147961 51.248873 
L 686.937961 51.248873 
L 692.727961 51.248873 
" style="fill: none; stroke: #ffff00; stroke-width: 1.5; stroke-linecap: square"/>
    </g>
    <g id="text_57">
     <text style="font: 5.79px 'Arial', sans-serif; text-anchor: start" x="697.359961" y="53.275373" transform="rotate(-0 697.359961 53.275373)">Pref - PrevCount=-1 - #Trials=16.0</text>
    </g>
    <g id="line2d_57">
     <path d="M 681.147961 59.439009 
L 686.937961 59.439009 
L 692.727961 59.439009 
" style="fill: none; stroke: #800080; stroke-width: 1.5; stroke-linecap: square"/>
    </g>
    <g id="text_58">
     <text style="font: 5.79px 'Arial', sans-serif; text-anchor: start" x="697.359961" y="61.465509" transform="rotate(-0 697.359961 61.465509)">NonPref - PrevCount=-1 - #Trials=34.0</text>
    </g>
   </g>
  </g>
  <g id="axes_5">
   <g id="patch_24">
    <path d="M 857.947866 210.24 
L 1028.069817 210.24 
L 1028.069817 43.92 
L 857.947866 43.92 
z
" style="fill: #ffffff"/>
   </g>
   <g id="PolyCollection_6">
    <defs>
     <path id="mff2d1f8a99" d="M 865.680682 -138.013153 
L 865.680682 -133.061651 
L 870.513692 -136.614668 
L 875.346702 -138.610576 
L 880.179712 -140.92867 
L 885.012722 -143.451612 
L 889.845732 -143.310323 
L 894.678742 -142.557855 
L 899.511752 -142.093027 
L 904.344762 -142.843001 
L 909.177772 -145.536132 
L 914.010782 -149.233672 
L 918.843792 -157.71843 
L 923.676802 -166.527226 
L 928.509812 -171.199211 
L 933.342822 -175.152409 
L 938.175831 -181.734608 
L 943.008841 -183.83863 
L 947.841851 -185.931659 
L 952.674861 -187.571878 
L 957.507871 -189.911044 
L 962.340881 -195.531485 
L 967.173891 -197.374427 
L 972.006901 -197.596397 
L 976.839911 -203.205929 
L 981.672921 -204.950512 
L 986.505931 -200.50995 
L 991.338941 -198.458585 
L 996.171951 -203.285165 
L 1001.004961 -211.237642 
L 1005.837971 -217.673066 
L 1010.670981 -220.684029 
L 1015.503991 -217.896443 
L 1020.337001 -213.643001 
L 1020.337001 -243.805873 
L 1020.337001 -243.805873 
L 1015.503991 -251.967565 
L 1010.670981 -258.880682 
L 1005.837971 -255.058708 
L 1001.004961 -243.889064 
L 996.171951 -231.981628 
L 991.338941 -225.687216 
L 986.505931 -227.906522 
L 981.672921 -233.608549 
L 976.839911 -230.411748 
L 972.006901 -220.981078 
L 967.173891 -221.224391 
L 962.340881 -220.84414 
L 957.507871 -216.348611 
L 952.674861 -215.717178 
L 947.841851 -214.7092 
L 943.008841 -212.236531 
L 938.175831 -206.992443 
L 933.342822 -198.710595 
L 928.509812 -194.499271 
L 923.676802 -190.10879 
L 918.843792 -176.577971 
L 914.010782 -164.204067 
L 909.177772 -158.416697 
L 904.344762 -152.842222 
L 899.511752 -149.342903 
L 894.678742 -150.536246 
L 889.845732 -152.32166 
L 885.012722 -152.797882 
L 880.179712 -150.916878 
L 875.346702 -148.524555 
L 870.513692 -144.030301 
L 865.680682 -138.013153 
z
" style="stroke: #ffff00; stroke-opacity: 0.1"/>
    </defs>
    <g clip-path="url(#p8eac70f7be)">
     <use xlink:href="#mff2d1f8a99" x="0" y="323.436915" style="fill: #ffff00; fill-opacity: 0.1; stroke: #ffff00; stroke-opacity: 0.1"/>
    </g>
   </g>
   <g id="PolyCollection_7">
    <defs>
     <path id="m343c117164" d="M 865.680682 -145.919202 
L 865.680682 -140.692346 
L 870.513692 -137.789083 
L 875.346702 -137.590857 
L 880.179712 -139.109172 
L 885.012722 -139.499614 
L 889.845732 -138.151403 
L 894.678742 -141.511305 
L 899.511752 -145.916652 
L 904.344762 -146.829806 
L 909.177772 -144.541074 
L 914.010782 -142.023868 
L 918.843792 -142.551673 
L 923.676802 -144.011295 
L 928.509812 -146.263092 
L 933.342822 -148.824944 
L 938.175831 -147.142753 
L 943.008841 -148.078475 
L 947.841851 -153.366761 
L 952.674861 -157.312914 
L 957.507871 -157.269132 
L 962.340881 -160.982825 
L 967.173891 -163.99969 
L 972.006901 -163.897257 
L 976.839911 -166.369925 
L 981.672921 -165.914826 
L 986.505931 -165.326411 
L 991.338941 -167.774653 
L 996.171951 -169.177769 
L 1001.004961 -170.35029 
L 1005.837971 -169.553252 
L 1010.670981 -169.190618 
L 1015.503991 -170.535991 
L 1020.337001 -169.881614 
L 1020.337001 -189.505355 
L 1020.337001 -189.505355 
L 1015.503991 -191.033871 
L 1010.670981 -190.004994 
L 1005.837971 -190.121518 
L 1001.004961 -190.294783 
L 996.171951 -188.009039 
L 991.338941 -184.689344 
L 986.505931 -181.513457 
L 981.672921 -181.883607 
L 976.839911 -182.26684 
L 972.006901 -178.878519 
L 967.173891 -177.635476 
L 962.340881 -174.610409 
L 957.507871 -169.823621 
L 952.674861 -170.47975 
L 947.841851 -167.515885 
L 943.008841 -161.221685 
L 938.175831 -158.267868 
L 933.342822 -158.795586 
L 928.509812 -156.145526 
L 923.676802 -153.682758 
L 918.843792 -151.627456 
L 914.010782 -148.608388 
L 909.177772 -150.943699 
L 904.344762 -152.765311 
L 899.511752 -151.153603 
L 894.678742 -146.496088 
L 889.845732 -143.410499 
L 885.012722 -145.737287 
L 880.179712 -145.968535 
L 875.346702 -144.06374 
L 870.513692 -143.482371 
L 865.680682 -145.919202 
z
" style="stroke: #800080; stroke-opacity: 0.1"/>
    </defs>
    <g clip-path="url(#p8eac70f7be)">
     <use xlink:href="#m343c117164" x="0" y="323.436915" style="fill: #800080; fill-opacity: 0.1; stroke: #800080; stroke-opacity: 0.1"/>
    </g>
   </g>
   <g id="matplotlib.axis_9">
    <g id="xtick_13">
     <g id="line2d_58">
      <g>
       <use xlink:href="#m0ce5de44a5" x="875.346702" y="210.24" style="stroke: #000000; stroke-width: 0.8"/>
      </g>
     </g>
     <g id="text_59">
      <text style="font: 10px 'Arial', sans-serif" transform="translate(844.380949 251.86503) rotate(-45)">Sampling</text>
     </g>
    </g>
    <g id="xtick_14">
     <g id="line2d_59">
      <g>
       <use xlink:href="#m0ce5de44a5" x="1005.837971" y="210.24" style="stroke: #000000; stroke-width: 0.8"/>
      </g>
     </g>
     <g id="text_60">
      <text style="font: 10px 'Arial', sans-serif" transform="translate(925.047707 301.686227) rotate(-45)">Movement to Lateral Port</text>
     </g>
    </g>
    <g id="text_61">
     <text style="font: 10px 'Arial', sans-serif; text-anchor: middle" x="943.008841" y="314.249415" transform="rotate(-0 943.008841 314.249415)">Normalized Time</text>
    </g>
   </g>
   <g id="matplotlib.axis_10">
    <g id="ytick_29">
     <g id="line2d_60">
      <g>
       <use xlink:href="#mb3b9d36dbd" x="857.947866" y="195.80131" style="stroke: #000000; stroke-width: 0.8"/>
      </g>
     </g>
     <g id="text_62">
      <text style="font: 10px 'Arial', sans-serif; text-anchor: end" x="850.947866" y="199.380217" transform="rotate(-0 850.947866 199.380217)">−0.5</text>
     </g>
    </g>
    <g id="ytick_30">
     <g id="line2d_61">
      <g>
       <use xlink:href="#mb3b9d36dbd" x="857.947866" y="172.106656" style="stroke: #000000; stroke-width: 0.8"/>
      </g>
     </g>
     <g id="text_63">
      <text style="font: 10px 'Arial', sans-serif; text-anchor: end" x="850.947866" y="175.685562" transform="rotate(-0 850.947866 175.685562)">0.0</text>
     </g>
    </g>
    <g id="ytick_31">
     <g id="line2d_62">
      <g>
       <use xlink:href="#mb3b9d36dbd" x="857.947866" y="148.412001" style="stroke: #000000; stroke-width: 0.8"/>
      </g>
     </g>
     <g id="text_64">
      <text style="font: 10px 'Arial', sans-serif; text-anchor: end" x="850.947866" y="151.990907" transform="rotate(-0 850.947866 151.990907)">0.5</text>
     </g>
    </g>
    <g id="ytick_32">
     <g id="line2d_63">
      <g>
       <use xlink:href="#mb3b9d36dbd" x="857.947866" y="124.717346" style="stroke: #000000; stroke-width: 0.8"/>
      </g>
     </g>
     <g id="text_65">
      <text style="font: 10px 'Arial', sans-serif; text-anchor: end" x="850.947866" y="128.296252" transform="rotate(-0 850.947866 128.296252)">1.0</text>
     </g>
    </g>
    <g id="ytick_33">
     <g id="line2d_64">
      <g>
       <use xlink:href="#mb3b9d36dbd" x="857.947866" y="101.022691" style="stroke: #000000; stroke-width: 0.8"/>
      </g>
     </g>
     <g id="text_66">
      <text style="font: 10px 'Arial', sans-serif; text-anchor: end" x="850.947866" y="104.601597" transform="rotate(-0 850.947866 104.601597)">1.5</text>
     </g>
    </g>
    <g id="ytick_34">
     <g id="line2d_65">
      <g>
       <use xlink:href="#mb3b9d36dbd" x="857.947866" y="77.328036" style="stroke: #000000; stroke-width: 0.8"/>
      </g>
     </g>
     <g id="text_67">
      <text style="font: 10px 'Arial', sans-serif; text-anchor: end" x="850.947866" y="80.906942" transform="rotate(-0 850.947866 80.906942)">2.0</text>
     </g>
    </g>
    <g id="ytick_35">
     <g id="line2d_66">
      <g>
       <use xlink:href="#mb3b9d36dbd" x="857.947866" y="53.633381" style="stroke: #000000; stroke-width: 0.8"/>
      </g>
     </g>
     <g id="text_68">
      <text style="font: 10px 'Arial', sans-serif; text-anchor: end" x="850.947866" y="57.212288" transform="rotate(-0 850.947866 57.212288)">2.5</text>
     </g>
    </g>
    <g id="text_69">
     <text style="font: 10px 'Arial', sans-serif; text-anchor: middle" x="825.102553" y="127.08" transform="rotate(-90 825.102553 127.08)">Mean Activity</text>
    </g>
   </g>
   <g id="line2d_67">
    <path d="M 865.680682 187.899512 
L 870.513692 183.114429 
L 875.346702 179.869349 
L 880.179712 177.514141 
L 885.012722 175.312168 
L 889.845732 175.620923 
L 894.678742 176.889864 
L 899.511752 177.71895 
L 904.344762 175.594303 
L 909.177772 171.4605 
L 914.010782 166.718045 
L 918.843792 156.288715 
L 923.676802 145.118905 
L 928.509812 140.587674 
L 933.342822 136.505413 
L 938.175831 129.073389 
L 943.008841 125.399334 
L 947.841851 123.116485 
L 952.674861 121.792387 
L 957.507871 120.307087 
L 962.340881 115.249102 
L 967.173891 114.137506 
L 972.006901 114.148177 
L 976.839911 106.628076 
L 981.672921 104.157384 
L 986.505931 109.228678 
L 991.338941 111.364014 
L 996.171951 105.803518 
L 1001.004961 95.873561 
L 1005.837971 87.071025 
L 1010.670981 83.654559 
L 1015.503991 88.504911 
L 1020.337001 94.712478 
" clip-path="url(#p8eac70f7be)" style="fill: none; stroke: #ffff00; stroke-width: 1.5; stroke-linecap: square"/>
   </g>
   <g id="line2d_68">
    <path d="M 865.680682 180.131141 
L 870.513692 182.801188 
L 875.346702 182.609616 
L 880.179712 180.898061 
L 885.012722 180.818464 
L 889.845732 182.655963 
L 894.678742 179.433218 
L 899.511752 174.901787 
L 904.344762 173.639356 
L 909.177772 175.694528 
L 914.010782 178.120786 
L 918.843792 176.347351 
L 923.676802 174.589888 
L 928.509812 172.232606 
L 933.342822 169.626649 
L 938.175831 170.731604 
L 943.008841 168.786834 
L 947.841851 162.995592 
L 952.674861 159.540583 
L 957.507871 159.890538 
L 962.340881 155.640297 
L 967.173891 152.619332 
L 972.006901 152.049028 
L 976.839911 149.118532 
L 981.672921 149.537699 
L 986.505931 150.016981 
L 991.338941 147.204915 
L 996.171951 144.84351 
L 1001.004961 143.114378 
L 1005.837971 143.59953 
L 1010.670981 143.839108 
L 1015.503991 142.651984 
L 1020.337001 143.74343 
" clip-path="url(#p8eac70f7be)" style="fill: none; stroke: #800080; stroke-width: 1.5; stroke-linecap: square"/>
   </g>
   <g id="line2d_69">
    <path d="M 875.346702 210.24 
L 875.346702 43.92 
" clip-path="url(#p8eac70f7be)" style="fill: none; stroke-dasharray: 5.55,2.4; stroke-dashoffset: 0; stroke: #808080; stroke-opacity: 0.7; stroke-width: 1.5"/>
   </g>
   <g id="line2d_70">
    <path d="M 1005.837971 210.24 
L 1005.837971 43.92 
" clip-path="url(#p8eac70f7be)" style="fill: none; stroke-dasharray: 5.55,2.4; stroke-dashoffset: 0; stroke: #808080; stroke-opacity: 0.7; stroke-width: 1.5"/>
   </g>
   <g id="text_70">
    <text style="font: 12px 'Arial', sans-serif; text-anchor: middle" x="943.008841" y="37.92" transform="rotate(-0 943.008841 37.92)">1 Correct Trials</text>
   </g>
   <g id="legend_5">
    <g id="patch_25">
     <path d="M 885.100247 207.345 
L 1000.917436 207.345 
Q 1002.075436 207.345 1002.075436 206.187 
L 1002.075436 190.385728 
Q 1002.075436 189.227728 1000.917436 189.227728 
L 885.100247 189.227728 
Q 883.942247 189.227728 883.942247 190.385728 
L 883.942247 206.187 
Q 883.942247 207.345 885.100247 207.345 
z
" style="fill: #ffffff; opacity: 0.8; stroke: #cccccc; stroke-linejoin: miter"/>
    </g>
    <g id="line2d_71">
     <path d="M 886.258247 193.661602 
L 892.048247 193.661602 
L 897.838247 193.661602 
" style="fill: none; stroke: #ffff00; stroke-width: 1.5; stroke-linecap: square"/>
    </g>
    <g id="text_71">
     <text style="font: 5.79px 'Arial', sans-serif; text-anchor: start" x="902.470247" y="195.688102" transform="rotate(-0 902.470247 195.688102)">Pref - PrevCount=1 - #Trials=24.0</text>
    </g>
    <g id="line2d_72">
     <path d="M 886.258247 201.851738 
L 892.048247 201.851738 
L 897.838247 201.851738 
" style="fill: none; stroke: #800080; stroke-width: 1.5; stroke-linecap: square"/>
    </g>
    <g id="text_72">
     <text style="font: 5.79px 'Arial', sans-serif; text-anchor: start" x="902.470247" y="203.878238" transform="rotate(-0 902.470247 203.878238)">NonPref - PrevCount=1 - #Trials=35.0</text>
    </g>
   </g>
  </g>
  <g id="axes_6">
   <g id="patch_26">
    <path d="M 1062.094207 210.24 
L 1232.216159 210.24 
L 1232.216159 43.92 
L 1062.094207 43.92 
z
" style="fill: #ffffff"/>
   </g>
   <g id="PolyCollection_8">
    <defs>
     <path id="mde063a6769" d="M 1069.827023 -143.543724 
L 1069.827023 -135.995374 
L 1074.660033 -138.250482 
L 1079.493043 -137.418504 
L 1084.326053 -140.111937 
L 1089.159063 -141.735201 
L 1093.992073 -144.009019 
L 1098.825083 -150.350116 
L 1103.658093 -154.38211 
L 1108.491103 -155.145085 
L 1113.324113 -156.582773 
L 1118.157123 -163.207454 
L 1122.990133 -170.83186 
L 1127.823143 -176.820482 
L 1132.656153 -178.899706 
L 1137.489163 -176.055528 
L 1142.322173 -172.699423 
L 1147.155183 -172.059654 
L 1151.988193 -173.450622 
L 1156.821203 -177.048618 
L 1161.654213 -179.93188 
L 1166.487223 -180.970824 
L 1171.320233 -184.991206 
L 1176.153243 -189.391065 
L 1180.986253 -195.511156 
L 1185.819263 -193.27817 
L 1190.652273 -197.104455 
L 1195.485283 -200.750913 
L 1200.318293 -199.870049 
L 1205.151303 -207.501045 
L 1209.984313 -216.857196 
L 1214.817323 -220.057799 
L 1219.650333 -218.090409 
L 1224.483343 -212.644836 
L 1224.483343 -248.980571 
L 1224.483343 -248.980571 
L 1219.650333 -257.187682 
L 1214.817323 -259.917861 
L 1209.984313 -255.455488 
L 1205.151303 -243.974102 
L 1200.318293 -234.048699 
L 1195.485283 -231.600835 
L 1190.652273 -225.345115 
L 1185.819263 -223.718228 
L 1180.986253 -228.099094 
L 1176.153243 -219.771715 
L 1171.320233 -212.113276 
L 1166.487223 -207.012074 
L 1161.654213 -205.759117 
L 1156.821203 -202.0693 
L 1151.988193 -194.682346 
L 1147.155183 -192.768405 
L 1142.322173 -196.490653 
L 1137.489163 -202.623356 
L 1132.656153 -208.131043 
L 1127.823143 -203.934574 
L 1122.990133 -193.807174 
L 1118.157123 -183.462498 
L 1113.324113 -171.966969 
L 1108.491103 -168.024134 
L 1103.658093 -165.097248 
L 1098.825083 -159.612941 
L 1093.992073 -154.043149 
L 1089.159063 -152.031317 
L 1084.326053 -150.555043 
L 1079.493043 -147.377694 
L 1074.660033 -146.375098 
L 1069.827023 -143.543724 
z
" style="stroke: #ffff00; stroke-opacity: 0.1"/>
    </defs>
    <g clip-path="url(#p91e8a70ec8)">
     <use xlink:href="#mde063a6769" x="0" y="323.436915" style="fill: #ffff00; fill-opacity: 0.1; stroke: #ffff00; stroke-opacity: 0.1"/>
    </g>
   </g>
   <g id="PolyCollection_9">
    <defs>
     <path id="mdca81af91b" d="M 1069.827023 -153.972151 
L 1069.827023 -140.903451 
L 1074.660033 -142.411693 
L 1079.493043 -145.001422 
L 1084.326053 -146.211886 
L 1089.159063 -147.262542 
L 1093.992073 -147.073677 
L 1098.825083 -142.280705 
L 1103.658093 -138.657201 
L 1108.491103 -138.180981 
L 1113.324113 -140.830313 
L 1118.157123 -140.04662 
L 1122.990133 -144.088039 
L 1127.823143 -145.290868 
L 1132.656153 -146.137118 
L 1137.489163 -152.032919 
L 1142.322173 -158.472988 
L 1147.155183 -164.764005 
L 1151.988193 -169.462172 
L 1156.821203 -170.413488 
L 1161.654213 -171.150059 
L 1166.487223 -173.490409 
L 1171.320233 -181.811508 
L 1176.153243 -180.770095 
L 1180.986253 -178.517131 
L 1185.819263 -180.083339 
L 1190.652273 -185.632158 
L 1195.485283 -192.690442 
L 1200.318293 -197.867369 
L 1205.151303 -204.334818 
L 1209.984313 -204.912944 
L 1214.817323 -206.045313 
L 1219.650333 -205.476383 
L 1224.483343 -204.64952 
L 1224.483343 -239.509412 
L 1224.483343 -239.509412 
L 1219.650333 -241.670108 
L 1214.817323 -241.370218 
L 1209.984313 -238.083995 
L 1205.151303 -236.483275 
L 1200.318293 -228.940255 
L 1195.485283 -222.165894 
L 1190.652273 -213.023714 
L 1185.819263 -205.562099 
L 1180.986253 -205.164664 
L 1176.153243 -209.094488 
L 1171.320233 -209.002744 
L 1166.487223 -196.886095 
L 1161.654213 -190.348101 
L 1156.821203 -187.837164 
L 1151.988193 -187.192263 
L 1147.155183 -185.051532 
L 1142.322173 -179.266817 
L 1137.489163 -170.405067 
L 1132.656153 -161.005198 
L 1127.823143 -159.353026 
L 1122.990133 -156.389611 
L 1118.157123 -149.778469 
L 1113.324113 -150.585935 
L 1108.491103 -147.210834 
L 1103.658093 -148.672068 
L 1098.825083 -152.708082 
L 1093.992073 -156.682176 
L 1089.159063 -157.665853 
L 1084.326053 -158.174323 
L 1079.493043 -158.834554 
L 1074.660033 -156.843206 
L 1069.827023 -153.972151 
z
" style="stroke: #800080; stroke-opacity: 0.1"/>
    </defs>
    <g clip-path="url(#p91e8a70ec8)">
     <use xlink:href="#mdca81af91b" x="0" y="323.436915" style="fill: #800080; fill-opacity: 0.1; stroke: #800080; stroke-opacity: 0.1"/>
    </g>
   </g>
   <g id="matplotlib.axis_11">
    <g id="xtick_15">
     <g id="line2d_73">
      <g>
       <use xlink:href="#m0ce5de44a5" x="1079.493043" y="210.24" style="stroke: #000000; stroke-width: 0.8"/>
      </g>
     </g>
     <g id="text_73">
      <text style="font: 10px 'Arial', sans-serif" transform="translate(1048.52729 251.86503) rotate(-45)">Sampling</text>
     </g>
    </g>
    <g id="xtick_16">
     <g id="line2d_74">
      <g>
       <use xlink:href="#m0ce5de44a5" x="1209.984313" y="210.24" style="stroke: #000000; stroke-width: 0.8"/>
      </g>
     </g>
     <g id="text_74">
      <text style="font: 10px 'Arial', sans-serif" transform="translate(1129.194048 301.686227) rotate(-45)">Movement to Lateral Port</text>
     </g>
    </g>
    <g id="text_75">
     <text style="font: 10px 'Arial', sans-serif; text-anchor: middle" x="1147.155183" y="314.249415" transform="rotate(-0 1147.155183 314.249415)">Normalized Time</text>
    </g>
   </g>
   <g id="matplotlib.axis_12">
    <g id="ytick_36">
     <g id="line2d_75">
      <g>
       <use xlink:href="#mb3b9d36dbd" x="1062.094207" y="195.80131" style="stroke: #000000; stroke-width: 0.8"/>
      </g>
     </g>
     <g id="text_76">
      <text style="font: 10px 'Arial', sans-serif; text-anchor: end" x="1055.094207" y="199.380217" transform="rotate(-0 1055.094207 199.380217)">−0.5</text>
     </g>
    </g>
    <g id="ytick_37">
     <g id="line2d_76">
      <g>
       <use xlink:href="#mb3b9d36dbd" x="1062.094207" y="172.106656" style="stroke: #000000; stroke-width: 0.8"/>
      </g>
     </g>
     <g id="text_77">
      <text style="font: 10px 'Arial', sans-serif; text-anchor: end" x="1055.094207" y="175.685562" transform="rotate(-0 1055.094207 175.685562)">0.0</text>
     </g>
    </g>
    <g id="ytick_38">
     <g id="line2d_77">
      <g>
       <use xlink:href="#mb3b9d36dbd" x="1062.094207" y="148.412001" style="stroke: #000000; stroke-width: 0.8"/>
      </g>
     </g>
     <g id="text_78">
      <text style="font: 10px 'Arial', sans-serif; text-anchor: end" x="1055.094207" y="151.990907" transform="rotate(-0 1055.094207 151.990907)">0.5</text>
     </g>
    </g>
    <g id="ytick_39">
     <g id="line2d_78">
      <g>
       <use xlink:href="#mb3b9d36dbd" x="1062.094207" y="124.717346" style="stroke: #000000; stroke-width: 0.8"/>
      </g>
     </g>
     <g id="text_79">
      <text style="font: 10px 'Arial', sans-serif; text-anchor: end" x="1055.094207" y="128.296252" transform="rotate(-0 1055.094207 128.296252)">1.0</text>
     </g>
    </g>
    <g id="ytick_40">
     <g id="line2d_79">
      <g>
       <use xlink:href="#mb3b9d36dbd" x="1062.094207" y="101.022691" style="stroke: #000000; stroke-width: 0.8"/>
      </g>
     </g>
     <g id="text_80">
      <text style="font: 10px 'Arial', sans-serif; text-anchor: end" x="1055.094207" y="104.601597" transform="rotate(-0 1055.094207 104.601597)">1.5</text>
     </g>
    </g>
    <g id="ytick_41">
     <g id="line2d_80">
      <g>
       <use xlink:href="#mb3b9d36dbd" x="1062.094207" y="77.328036" style="stroke: #000000; stroke-width: 0.8"/>
      </g>
     </g>
     <g id="text_81">
      <text style="font: 10px 'Arial', sans-serif; text-anchor: end" x="1055.094207" y="80.906942" transform="rotate(-0 1055.094207 80.906942)">2.0</text>
     </g>
    </g>
    <g id="ytick_42">
     <g id="line2d_81">
      <g>
       <use xlink:href="#mb3b9d36dbd" x="1062.094207" y="53.633381" style="stroke: #000000; stroke-width: 0.8"/>
      </g>
     </g>
     <g id="text_82">
      <text style="font: 10px 'Arial', sans-serif; text-anchor: end" x="1055.094207" y="57.212288" transform="rotate(-0 1055.094207 57.212288)">2.5</text>
     </g>
    </g>
    <g id="text_83">
     <text style="font: 10px 'Arial', sans-serif; text-anchor: middle" x="1029.248895" y="127.08" transform="rotate(-90 1029.248895 127.08)">Mean Activity</text>
    </g>
   </g>
   <g id="line2d_82">
    <path d="M 1069.827023 183.667366 
L 1074.660033 181.124125 
L 1079.493043 181.038816 
L 1084.326053 178.103425 
L 1089.159063 176.553655 
L 1093.992073 174.410831 
L 1098.825083 168.455386 
L 1103.658093 163.697235 
L 1108.491103 161.852305 
L 1113.324113 159.162044 
L 1118.157123 150.101939 
L 1122.990133 141.117398 
L 1127.823143 133.059387 
L 1132.656153 129.921539 
L 1137.489163 134.097472 
L 1142.322173 138.841876 
L 1147.155183 141.022886 
L 1151.988193 139.370431 
L 1156.821203 133.877954 
L 1161.654213 130.591418 
L 1166.487223 129.445465 
L 1171.320233 124.884674 
L 1176.153243 118.855524 
L 1180.986253 111.631788 
L 1185.819263 114.938716 
L 1190.652273 112.21213 
L 1195.485283 107.26104 
L 1200.318293 106.477541 
L 1205.151303 97.699341 
L 1209.984313 87.280573 
L 1214.817323 83.449084 
L 1219.650333 85.797866 
L 1224.483343 92.624211 
" clip-path="url(#p91e8a70ec8)" style="fill: none; stroke: #ffff00; stroke-width: 1.5; stroke-linecap: square"/>
   </g>
   <g id="line2d_83">
    <path d="M 1069.827023 175.999114 
L 1074.660033 173.809465 
L 1079.493043 171.518927 
L 1084.326053 171.24381 
L 1089.159063 170.972717 
L 1093.992073 171.558988 
L 1098.825083 175.942521 
L 1103.658093 179.77228 
L 1108.491103 180.741007 
L 1113.324113 177.728791 
L 1118.157123 178.52437 
L 1122.990133 173.198089 
L 1127.823143 171.114968 
L 1132.656153 169.865757 
L 1137.489163 162.217922 
L 1142.322173 154.567012 
L 1147.155183 148.529146 
L 1151.988193 145.109697 
L 1156.821203 144.311589 
L 1161.654213 142.687834 
L 1166.487223 138.248663 
L 1171.320233 128.029787 
L 1176.153243 128.504623 
L 1180.986253 131.596017 
L 1185.819263 130.614195 
L 1190.652273 124.108979 
L 1195.485283 116.008745 
L 1200.318293 110.033103 
L 1205.151303 103.027868 
L 1209.984313 101.938445 
L 1214.817323 99.729149 
L 1219.650333 99.863669 
L 1224.483343 101.357448 
" clip-path="url(#p91e8a70ec8)" style="fill: none; stroke: #800080; stroke-width: 1.5; stroke-linecap: square"/>
   </g>
   <g id="line2d_84">
    <path d="M 1079.493043 210.24 
L 1079.493043 43.92 
" clip-path="url(#p91e8a70ec8)" style="fill: none; stroke-dasharray: 5.55,2.4; stroke-dashoffset: 0; stroke: #808080; stroke-opacity: 0.7; stroke-width: 1.5"/>
   </g>
   <g id="line2d_85">
    <path d="M 1209.984313 210.24 
L 1209.984313 43.92 
" clip-path="url(#p91e8a70ec8)" style="fill: none; stroke-dasharray: 5.55,2.4; stroke-dashoffset: 0; stroke: #808080; stroke-opacity: 0.7; stroke-width: 1.5"/>
   </g>
   <g id="text_84">
    <text style="font: 12px 'Arial', sans-serif; text-anchor: middle" x="1147.155183" y="37.92" transform="rotate(-0 1147.155183 37.92)">2 Correct Trials</text>
   </g>
   <g id="legend_6">
    <g id="patch_27">
     <path d="M 1089.246588 207.345 
L 1205.063777 207.345 
Q 1206.221777 207.345 1206.221777 206.187 
L 1206.221777 190.385728 
Q 1206.221777 189.227728 1205.063777 189.227728 
L 1089.246588 189.227728 
Q 1088.088588 189.227728 1088.088588 190.385728 
L 1088.088588 206.187 
Q 1088.088588 207.345 1089.246588 207.345 
z
" style="fill: #ffffff; opacity: 0.8; stroke: #cccccc; stroke-linejoin: miter"/>
    </g>
    <g id="line2d_86">
     <path d="M 1090.404588 193.661602 
L 1096.194588 193.661602 
L 1101.984588 193.661602 
" style="fill: none; stroke: #ffff00; stroke-width: 1.5; stroke-linecap: square"/>
    </g>
    <g id="text_85">
     <text style="font: 5.79px 'Arial', sans-serif; text-anchor: start" x="1106.616588" y="195.688102" transform="rotate(-0 1106.616588 195.688102)">Pref - PrevCount=2 - #Trials=23.0</text>
    </g>
    <g id="line2d_87">
     <path d="M 1090.404588 201.851738 
L 1096.194588 201.851738 
L 1101.984588 201.851738 
" style="fill: none; stroke: #800080; stroke-width: 1.5; stroke-linecap: square"/>
    </g>
    <g id="text_86">
     <text style="font: 5.79px 'Arial', sans-serif; text-anchor: start" x="1106.616588" y="203.878238" transform="rotate(-0 1106.616588 203.878238)">NonPref - PrevCount=2 - #Trials=20.0</text>
    </g>
   </g>
  </g>
  <g id="axes_7">
   <g id="patch_28">
    <path d="M 1266.240549 210.24 
L 1436.3625 210.24 
L 1436.3625 43.92 
L 1266.240549 43.92 
z
" style="fill: #ffffff"/>
   </g>
   <g id="PolyCollection_10">
    <defs>
     <path id="mb5e38bf481" d="M 1273.973365 -143.950115 
L 1273.973365 -136.951675 
L 1278.806375 -141.393779 
L 1283.639385 -145.076914 
L 1288.472395 -148.992761 
L 1293.305405 -151.57841 
L 1298.138415 -153.897924 
L 1302.971425 -153.97409 
L 1307.804435 -155.563234 
L 1312.637445 -161.222637 
L 1317.470455 -165.281015 
L 1322.303465 -168.073678 
L 1327.136475 -173.332655 
L 1331.969484 -179.374692 
L 1336.802494 -184.455398 
L 1341.635504 -187.105244 
L 1346.468514 -189.39152 
L 1351.301524 -191.529403 
L 1356.134534 -194.717324 
L 1360.967544 -196.60794 
L 1365.800554 -197.064622 
L 1370.633564 -200.358279 
L 1375.466574 -206.37115 
L 1380.299584 -211.486576 
L 1385.132594 -213.854639 
L 1389.965604 -215.148028 
L 1394.798614 -218.297963 
L 1399.631624 -219.420067 
L 1404.464634 -222.798525 
L 1409.297644 -230.177593 
L 1414.130654 -235.493702 
L 1418.963664 -234.51553 
L 1423.796674 -228.652968 
L 1428.629684 -220.933472 
L 1428.629684 -243.375293 
L 1428.629684 -243.375293 
L 1423.796674 -252.369621 
L 1418.963664 -258.69141 
L 1414.130654 -258.913889 
L 1409.297644 -251.913207 
L 1404.464634 -243.987886 
L 1399.631624 -241.673554 
L 1394.798614 -240.98869 
L 1389.965604 -236.574872 
L 1385.132594 -235.3428 
L 1380.299584 -233.524511 
L 1375.466574 -226.349528 
L 1370.633564 -217.011251 
L 1365.800554 -213.925746 
L 1360.967544 -215.168456 
L 1356.134534 -214.040437 
L 1351.301524 -211.071182 
L 1346.468514 -207.368056 
L 1341.635504 -203.800851 
L 1336.802494 -201.781387 
L 1331.969484 -196.036126 
L 1327.136475 -187.13483 
L 1322.303465 -179.951093 
L 1317.470455 -176.196384 
L 1312.637445 -171.104778 
L 1307.804435 -165.642052 
L 1302.971425 -162.819769 
L 1298.138415 -162.521059 
L 1293.305405 -158.078922 
L 1288.472395 -155.439115 
L 1283.639385 -151.427261 
L 1278.806375 -147.859919 
L 1273.973365 -143.950115 
z
" style="stroke: #ffff00; stroke-opacity: 0.1"/>
    </defs>
    <g clip-path="url(#pfbb5a89f22)">
     <use xlink:href="#mb5e38bf481" x="0" y="323.436915" style="fill: #ffff00; fill-opacity: 0.1; stroke: #ffff00; stroke-opacity: 0.1"/>
    </g>
   </g>
   <g id="PolyCollection_11">
    <defs>
     <path id="m74cb275a66" d="M 1273.973365 -144.554924 
L 1273.973365 -138.943033 
L 1278.806375 -139.884248 
L 1283.639385 -138.986387 
L 1288.472395 -137.00789 
L 1293.305405 -137.414356 
L 1298.138415 -139.189199 
L 1302.971425 -138.852607 
L 1307.804435 -138.712695 
L 1312.637445 -137.719096 
L 1317.470455 -139.635628 
L 1322.303465 -142.695349 
L 1327.136475 -146.729447 
L 1331.969484 -149.248897 
L 1336.802494 -151.583013 
L 1341.635504 -157.358071 
L 1346.468514 -160.59598 
L 1351.301524 -163.080479 
L 1356.134534 -164.382581 
L 1360.967544 -161.625054 
L 1365.800554 -159.155452 
L 1370.633564 -158.956124 
L 1375.466574 -162.249775 
L 1380.299584 -162.990594 
L 1385.132594 -161.831546 
L 1389.965604 -163.048933 
L 1394.798614 -163.345409 
L 1399.631624 -161.671545 
L 1404.464634 -160.061791 
L 1409.297644 -161.625176 
L 1414.130654 -164.941459 
L 1418.963664 -167.102698 
L 1423.796674 -166.969737 
L 1428.629684 -164.282308 
L 1428.629684 -177.681141 
L 1428.629684 -177.681141 
L 1423.796674 -180.472815 
L 1418.963664 -181.371407 
L 1414.130654 -179.729205 
L 1409.297644 -175.800521 
L 1404.464634 -172.802799 
L 1399.631624 -174.174225 
L 1394.798614 -176.328658 
L 1389.965604 -176.549843 
L 1385.132594 -175.854003 
L 1380.299584 -176.450572 
L 1375.466574 -174.98766 
L 1370.633564 -170.463457 
L 1365.800554 -169.325128 
L 1360.967544 -171.990599 
L 1356.134534 -176.321885 
L 1351.301524 -175.425813 
L 1346.468514 -172.461529 
L 1341.635504 -169.264557 
L 1336.802494 -162.832038 
L 1331.969484 -158.48399 
L 1327.136475 -154.537069 
L 1322.303465 -149.586806 
L 1317.470455 -145.695625 
L 1312.637445 -143.239755 
L 1307.804435 -144.281459 
L 1302.971425 -144.27454 
L 1298.138415 -145.252295 
L 1293.305405 -144.114038 
L 1288.472395 -144.373103 
L 1283.639385 -146.121574 
L 1278.806375 -145.978967 
L 1273.973365 -144.554924 
z
" style="stroke: #800080; stroke-opacity: 0.1"/>
    </defs>
    <g clip-path="url(#pfbb5a89f22)">
     <use xlink:href="#m74cb275a66" x="0" y="323.436915" style="fill: #800080; fill-opacity: 0.1; stroke: #800080; stroke-opacity: 0.1"/>
    </g>
   </g>
   <g id="matplotlib.axis_13">
    <g id="xtick_17">
     <g id="line2d_88">
      <g>
       <use xlink:href="#m0ce5de44a5" x="1283.639385" y="210.24" style="stroke: #000000; stroke-width: 0.8"/>
      </g>
     </g>
     <g id="text_87">
      <text style="font: 10px 'Arial', sans-serif" transform="translate(1252.673632 251.86503) rotate(-45)">Sampling</text>
     </g>
    </g>
    <g id="xtick_18">
     <g id="line2d_89">
      <g>
       <use xlink:href="#m0ce5de44a5" x="1414.130654" y="210.24" style="stroke: #000000; stroke-width: 0.8"/>
      </g>
     </g>
     <g id="text_88">
      <text style="font: 10px 'Arial', sans-serif" transform="translate(1333.34039 301.686227) rotate(-45)">Movement to Lateral Port</text>
     </g>
    </g>
    <g id="text_89">
     <text style="font: 10px 'Arial', sans-serif; text-anchor: middle" x="1351.301524" y="314.249415" transform="rotate(-0 1351.301524 314.249415)">Normalized Time</text>
    </g>
   </g>
   <g id="matplotlib.axis_14">
    <g id="ytick_43">
     <g id="line2d_90">
      <g>
       <use xlink:href="#mb3b9d36dbd" x="1266.240549" y="195.80131" style="stroke: #000000; stroke-width: 0.8"/>
      </g>
     </g>
     <g id="text_90">
      <text style="font: 10px 'Arial', sans-serif; text-anchor: end" x="1259.240549" y="199.380217" transform="rotate(-0 1259.240549 199.380217)">−0.5</text>
     </g>
    </g>
    <g id="ytick_44">
     <g id="line2d_91">
      <g>
       <use xlink:href="#mb3b9d36dbd" x="1266.240549" y="172.106656" style="stroke: #000000; stroke-width: 0.8"/>
      </g>
     </g>
     <g id="text_91">
      <text style="font: 10px 'Arial', sans-serif; text-anchor: end" x="1259.240549" y="175.685562" transform="rotate(-0 1259.240549 175.685562)">0.0</text>
     </g>
    </g>
    <g id="ytick_45">
     <g id="line2d_92">
      <g>
       <use xlink:href="#mb3b9d36dbd" x="1266.240549" y="148.412001" style="stroke: #000000; stroke-width: 0.8"/>
      </g>
     </g>
     <g id="text_92">
      <text style="font: 10px 'Arial', sans-serif; text-anchor: end" x="1259.240549" y="151.990907" transform="rotate(-0 1259.240549 151.990907)">0.5</text>
     </g>
    </g>
    <g id="ytick_46">
     <g id="line2d_93">
      <g>
       <use xlink:href="#mb3b9d36dbd" x="1266.240549" y="124.717346" style="stroke: #000000; stroke-width: 0.8"/>
      </g>
     </g>
     <g id="text_93">
      <text style="font: 10px 'Arial', sans-serif; text-anchor: end" x="1259.240549" y="128.296252" transform="rotate(-0 1259.240549 128.296252)">1.0</text>
     </g>
    </g>
    <g id="ytick_47">
     <g id="line2d_94">
      <g>
       <use xlink:href="#mb3b9d36dbd" x="1266.240549" y="101.022691" style="stroke: #000000; stroke-width: 0.8"/>
      </g>
     </g>
     <g id="text_94">
      <text style="font: 10px 'Arial', sans-serif; text-anchor: end" x="1259.240549" y="104.601597" transform="rotate(-0 1259.240549 104.601597)">1.5</text>
     </g>
    </g>
    <g id="ytick_48">
     <g id="line2d_95">
      <g>
       <use xlink:href="#mb3b9d36dbd" x="1266.240549" y="77.328036" style="stroke: #000000; stroke-width: 0.8"/>
      </g>
     </g>
     <g id="text_95">
      <text style="font: 10px 'Arial', sans-serif; text-anchor: end" x="1259.240549" y="80.906942" transform="rotate(-0 1259.240549 80.906942)">2.0</text>
     </g>
    </g>
    <g id="ytick_49">
     <g id="line2d_96">
      <g>
       <use xlink:href="#mb3b9d36dbd" x="1266.240549" y="53.633381" style="stroke: #000000; stroke-width: 0.8"/>
      </g>
     </g>
     <g id="text_96">
      <text style="font: 10px 'Arial', sans-serif; text-anchor: end" x="1259.240549" y="57.212288" transform="rotate(-0 1259.240549 57.212288)">2.5</text>
     </g>
    </g>
    <g id="text_97">
     <text style="font: 10px 'Arial', sans-serif; text-anchor: middle" x="1233.395236" y="127.08" transform="rotate(-90 1233.395236 127.08)">Mean Activity</text>
    </g>
   </g>
   <g id="line2d_97">
    <path d="M 1273.973365 182.986019 
L 1278.806375 178.810066 
L 1283.639385 175.184827 
L 1288.472395 171.220977 
L 1293.305405 168.608249 
L 1298.138415 165.227423 
L 1302.971425 165.039985 
L 1307.804435 162.834272 
L 1312.637445 157.273207 
L 1317.470455 152.698215 
L 1322.303465 149.424529 
L 1327.136475 143.203173 
L 1331.969484 135.731505 
L 1336.802494 130.318522 
L 1341.635504 127.983867 
L 1346.468514 125.057128 
L 1351.301524 122.136623 
L 1356.134534 119.058033 
L 1360.967544 117.548718 
L 1365.800554 117.941731 
L 1370.633564 114.752149 
L 1375.466574 107.076575 
L 1380.299584 100.931371 
L 1385.132594 98.838195 
L 1389.965604 97.575465 
L 1394.798614 93.793588 
L 1399.631624 92.890104 
L 1404.464634 90.043709 
L 1409.297644 82.391512 
L 1414.130654 76.233122 
L 1418.963664 76.833445 
L 1423.796674 82.92562 
L 1428.629684 91.282532 
" clip-path="url(#pfbb5a89f22)" style="fill: none; stroke: #ffff00; stroke-width: 1.5; stroke-linecap: square"/>
   </g>
   <g id="line2d_98">
    <path d="M 1273.973365 181.687936 
L 1278.806375 180.505307 
L 1283.639385 180.882934 
L 1288.472395 182.746418 
L 1293.305405 182.672718 
L 1298.138415 181.216168 
L 1302.971425 181.873341 
L 1307.804435 181.939838 
L 1312.637445 182.957489 
L 1317.470455 180.771288 
L 1322.303465 177.295837 
L 1327.136475 172.803657 
L 1331.969484 169.570471 
L 1336.802494 166.229389 
L 1341.635504 160.125601 
L 1346.468514 156.90816 
L 1351.301524 154.183769 
L 1356.134534 153.084681 
L 1360.967544 156.629087 
L 1365.800554 159.196624 
L 1370.633564 158.727124 
L 1375.466574 154.818198 
L 1380.299584 153.716332 
L 1385.132594 154.59414 
L 1389.965604 153.637526 
L 1394.798614 153.599881 
L 1399.631624 155.514029 
L 1404.464634 157.00462 
L 1409.297644 154.724066 
L 1414.130654 151.101583 
L 1418.963664 149.199861 
L 1423.796674 149.715638 
L 1428.629684 152.45519 
" clip-path="url(#pfbb5a89f22)" style="fill: none; stroke: #800080; stroke-width: 1.5; stroke-linecap: square"/>
   </g>
   <g id="line2d_99">
    <path d="M 1283.639385 210.24 
L 1283.639385 43.92 
" clip-path="url(#pfbb5a89f22)" style="fill: none; stroke-dasharray: 5.55,2.4; stroke-dashoffset: 0; stroke: #808080; stroke-opacity: 0.7; stroke-width: 1.5"/>
   </g>
   <g id="line2d_100">
    <path d="M 1414.130654 210.24 
L 1414.130654 43.92 
" clip-path="url(#pfbb5a89f22)" style="fill: none; stroke-dasharray: 5.55,2.4; stroke-dashoffset: 0; stroke: #808080; stroke-opacity: 0.7; stroke-width: 1.5"/>
   </g>
   <g id="text_98">
    <text style="font: 12px 'Arial', sans-serif; text-anchor: middle" x="1351.301524" y="37.92" transform="rotate(-0 1351.301524 37.92)">3 Correct Trials</text>
   </g>
   <g id="legend_7">
    <g id="patch_29">
     <path d="M 1293.39293 207.345 
L 1409.210119 207.345 
Q 1410.368119 207.345 1410.368119 206.187 
L 1410.368119 190.385728 
Q 1410.368119 189.227728 1409.210119 189.227728 
L 1293.39293 189.227728 
Q 1292.23493 189.227728 1292.23493 190.385728 
L 1292.23493 206.187 
Q 1292.23493 207.345 1293.39293 207.345 
z
" style="fill: #ffffff; opacity: 0.8; stroke: #cccccc; stroke-linejoin: miter"/>
    </g>
    <g id="line2d_101">
     <path d="M 1294.55093 193.661602 
L 1300.34093 193.661602 
L 1306.13093 193.661602 
" style="fill: none; stroke: #ffff00; stroke-width: 1.5; stroke-linecap: square"/>
    </g>
    <g id="text_99">
     <text style="font: 5.79px 'Arial', sans-serif; text-anchor: start" x="1310.76293" y="195.688102" transform="rotate(-0 1310.76293 195.688102)">Pref - PrevCount=3 - #Trials=53.0</text>
    </g>
    <g id="line2d_102">
     <path d="M 1294.55093 201.851738 
L 1300.34093 201.851738 
L 1306.13093 201.851738 
" style="fill: none; stroke: #800080; stroke-width: 1.5; stroke-linecap: square"/>
    </g>
    <g id="text_100">
     <text style="font: 5.79px 'Arial', sans-serif; text-anchor: start" x="1310.76293" y="203.878238" transform="rotate(-0 1310.76293 203.878238)">NonPref - PrevCount=3 - #Trials=45.0</text>
    </g>
   </g>
  </g>
  <g id="text_101">
   <text style="font: 12px 'Arial', sans-serif; text-anchor: middle" x="716.3625" y="15.935625" transform="rotate(-0 716.3625 15.935625)">Balance Change - M2 - GP4_23_S1_L50_D250_mm2_326 - PrevChoiceLeft</text>
  </g>
 </g>
 <defs>
  <clipPath id="p85c13754b2">
   <rect x="41.3625" y="43.92" width="170.121951" height="166.32"/>
  </clipPath>
  <clipPath id="p396695e551">
   <rect x="245.508841" y="43.92" width="170.121951" height="166.32"/>
  </clipPath>
  <clipPath id="pc9147317e3">
   <rect x="449.655183" y="43.92" width="170.121951" height="166.32"/>
  </clipPath>
  <clipPath id="p38150587de">
   <rect x="653.801524" y="43.92" width="170.121951" height="166.32"/>
  </clipPath>
  <clipPath id="p8eac70f7be">
   <rect x="857.947866" y="43.92" width="170.121951" height="166.32"/>
  </clipPath>
  <clipPath id="p91e8a70ec8">
   <rect x="1062.094207" y="43.92" width="170.121951" height="166.32"/>
  </clipPath>
  <clipPath id="pfbb5a89f22">
   <rect x="1266.240549" y="43.92" width="170.121951" height="166.32"/>
  </clipPath>
 </defs>
</svg>
