<?xml version="1.0" encoding="utf-8" standalone="no"?>
<!DOCTYPE svg PUBLIC "-//W3C//DTD SVG 1.1//EN"
  "http://www.w3.org/Graphics/SVG/1.1/DTD/svg11.dtd">
<svg xmlns:xlink="http://www.w3.org/1999/xlink" width="1435.223438pt" height="323.436915pt" viewBox="0 0 1435.223438 323.436915" xmlns="http://www.w3.org/2000/svg" version="1.1">
 <metadata>
  <rdf:RDF xmlns:dc="http://purl.org/dc/elements/1.1/" xmlns:cc="http://creativecommons.org/ns#" xmlns:rdf="http://www.w3.org/1999/02/22-rdf-syntax-ns#">
   <cc:Work>
    <dc:type rdf:resource="http://purl.org/dc/dcmitype/StillImage"/>
    <dc:date>2025-12-27T14:02:21.104963</dc:date>
    <dc:format>image/svg+xml</dc:format>
    <dc:creator>
     <cc:Agent>
      <dc:title>Matplotlib v3.8.0, https://matplotlib.org/</dc:title>
     </cc:Agent>
    </dc:creator>
   </cc:Work>
  </rdf:RDF>
 </metadata>
 <defs>
  <style type="text/css">*{stroke-linejoin: round; stroke-linecap: butt}</style>
 </defs>
 <g id="figure_1">
  <g id="patch_1">
   <path d="M 0 323.436915 
L 1435.223438 323.436915 
L 1435.223438 0 
L 0 0 
z
" style="fill: #ffffff"/>
  </g>
  <g id="axes_1">
   <g id="patch_2">
    <path d="M 33.023438 210.24 
L 203.145389 210.24 
L 203.145389 43.92 
L 33.023438 43.92 
z
" style="fill: #ffffff"/>
   </g>
   <g id="patch_3">
    <path d="M 40.756253 210.24 
L 49.853684 210.24 
L 49.853684 162.851832 
L 40.756253 162.851832 
z
" clip-path="url(#pf26c20cc5a)" style="fill: #ff00ff"/>
   </g>
   <g id="patch_4">
    <path d="M 63.49983 210.24 
L 72.59726 210.24 
L 72.59726 140.556042 
L 63.49983 140.556042 
z
" clip-path="url(#pf26c20cc5a)" style="fill: #ff00ff"/>
   </g>
   <g id="patch_5">
    <path d="M 86.243406 210.24 
L 95.340837 210.24 
L 95.340837 66.122246 
L 86.243406 66.122246 
z
" clip-path="url(#pf26c20cc5a)" style="fill: #ff00ff"/>
   </g>
   <g id="patch_6">
    <path d="M 0 0 
z
" clip-path="url(#pf26c20cc5a)" style="fill: #ff00ff"/>
   </g>
   <g id="patch_7">
    <path d="M 0 0 
z
" clip-path="url(#pf26c20cc5a)" style="fill: #ff00ff"/>
   </g>
   <g id="patch_8">
    <path d="M 0 0 
z
" clip-path="url(#pf26c20cc5a)" style="fill: #ff00ff"/>
   </g>
   <g id="patch_9">
    <path d="M 0 0 
z
" clip-path="url(#pf26c20cc5a)" style="fill: #00ffff"/>
   </g>
   <g id="patch_10">
    <path d="M 0 0 
z
" clip-path="url(#pf26c20cc5a)" style="fill: #00ffff"/>
   </g>
   <g id="patch_11">
    <path d="M 0 0 
z
" clip-path="url(#pf26c20cc5a)" style="fill: #00ffff"/>
   </g>
   <g id="patch_12">
    <path d="M 140.827989 210.24 
L 149.92542 210.24 
L 149.92542 140.354033 
L 140.827989 140.354033 
z
" clip-path="url(#pf26c20cc5a)" style="fill: #00ffff"/>
   </g>
   <g id="patch_13">
    <path d="M 163.571566 210.24 
L 172.668996 210.24 
L 172.668996 151.942219 
L 163.571566 151.942219 
z
" clip-path="url(#pf26c20cc5a)" style="fill: #00ffff"/>
   </g>
   <g id="patch_14">
    <path d="M 186.315142 210.24 
L 195.412573 210.24 
L 195.412573 150.001475 
L 186.315142 150.001475 
z
" clip-path="url(#pf26c20cc5a)" style="fill: #00ffff"/>
   </g>
   <g id="matplotlib.axis_1">
    <g id="xtick_1">
     <g id="line2d_1">
      <defs>
       <path id="m3db9f3975b" d="M 0 0 
L 0 3.5 
" style="stroke: #000000; stroke-width: 0.8"/>
      </defs>
      <g>
       <use xlink:href="#m3db9f3975b" x="49.853684" y="210.24" style="stroke: #000000; stroke-width: 0.8"/>
      </g>
     </g>
     <g id="text_1">
      <text style="font: 10px 'Arial', sans-serif; text-anchor: middle" x="49.853684" y="224.397813" transform="rotate(-0 49.853684 224.397813)">−3</text>
     </g>
    </g>
    <g id="xtick_2">
     <g id="line2d_2">
      <g>
       <use xlink:href="#m3db9f3975b" x="72.59726" y="210.24" style="stroke: #000000; stroke-width: 0.8"/>
      </g>
     </g>
     <g id="text_2">
      <text style="font: 10px 'Arial', sans-serif; text-anchor: middle" x="72.59726" y="224.397813" transform="rotate(-0 72.59726 224.397813)">−2</text>
     </g>
    </g>
    <g id="xtick_3">
     <g id="line2d_3">
      <g>
       <use xlink:href="#m3db9f3975b" x="95.340837" y="210.24" style="stroke: #000000; stroke-width: 0.8"/>
      </g>
     </g>
     <g id="text_3">
      <text style="font: 10px 'Arial', sans-serif; text-anchor: middle" x="95.340837" y="224.397813" transform="rotate(-0 95.340837 224.397813)">−1</text>
     </g>
    </g>
    <g id="xtick_4">
     <g id="line2d_4">
      <g>
       <use xlink:href="#m3db9f3975b" x="140.827989" y="210.24" style="stroke: #000000; stroke-width: 0.8"/>
      </g>
     </g>
     <g id="text_4">
      <text style="font: 10px 'Arial', sans-serif; text-anchor: middle" x="140.827989" y="224.397813" transform="rotate(-0 140.827989 224.397813)">1</text>
     </g>
    </g>
    <g id="xtick_5">
     <g id="line2d_5">
      <g>
       <use xlink:href="#m3db9f3975b" x="163.571566" y="210.24" style="stroke: #000000; stroke-width: 0.8"/>
      </g>
     </g>
     <g id="text_5">
      <text style="font: 10px 'Arial', sans-serif; text-anchor: middle" x="163.571566" y="224.397813" transform="rotate(-0 163.571566 224.397813)">2</text>
     </g>
    </g>
    <g id="xtick_6">
     <g id="line2d_6">
      <g>
       <use xlink:href="#m3db9f3975b" x="186.315142" y="210.24" style="stroke: #000000; stroke-width: 0.8"/>
      </g>
     </g>
     <g id="text_6">
      <text style="font: 10px 'Arial', sans-serif; text-anchor: middle" x="186.315142" y="224.397813" transform="rotate(-0 186.315142 224.397813)">3</text>
     </g>
    </g>
    <g id="text_7">
     <text style="font: 10px 'Arial', sans-serif; text-anchor: middle" x="118.084413" y="237.543125" transform="rotate(-0 118.084413 237.543125)">PrevOutcomeCount</text>
    </g>
   </g>
   <g id="matplotlib.axis_2">
    <g id="ytick_1">
     <g id="line2d_7">
      <defs>
       <path id="md8b2ad59c5" d="M 0 0 
L -3.5 0 
" style="stroke: #000000; stroke-width: 0.8"/>
      </defs>
      <g>
       <use xlink:href="#md8b2ad59c5" x="33.023438" y="210.24" style="stroke: #000000; stroke-width: 0.8"/>
      </g>
     </g>
     <g id="text_8">
      <text style="font: 10px 'Arial', sans-serif; text-anchor: end" x="26.023438" y="213.818906" transform="rotate(-0 26.023438 213.818906)">0</text>
     </g>
    </g>
    <g id="ytick_2">
     <g id="line2d_8">
      <g>
       <use xlink:href="#md8b2ad59c5" x="33.023438" y="169.084679" style="stroke: #000000; stroke-width: 0.8"/>
      </g>
     </g>
     <g id="text_9">
      <text style="font: 10px 'Arial', sans-serif; text-anchor: end" x="26.023438" y="172.663586" transform="rotate(-0 26.023438 172.663586)">1</text>
     </g>
    </g>
    <g id="ytick_3">
     <g id="line2d_9">
      <g>
       <use xlink:href="#md8b2ad59c5" x="33.023438" y="127.929359" style="stroke: #000000; stroke-width: 0.8"/>
      </g>
     </g>
     <g id="text_10">
      <text style="font: 10px 'Arial', sans-serif; text-anchor: end" x="26.023438" y="131.508265" transform="rotate(-0 26.023438 131.508265)">2</text>
     </g>
    </g>
    <g id="ytick_4">
     <g id="line2d_10">
      <g>
       <use xlink:href="#md8b2ad59c5" x="33.023438" y="86.774038" style="stroke: #000000; stroke-width: 0.8"/>
      </g>
     </g>
     <g id="text_11">
      <text style="font: 10px 'Arial', sans-serif; text-anchor: end" x="26.023438" y="90.352944" transform="rotate(-0 26.023438 90.352944)">3</text>
     </g>
    </g>
    <g id="ytick_5">
     <g id="line2d_11">
      <g>
       <use xlink:href="#md8b2ad59c5" x="33.023438" y="45.618717" style="stroke: #000000; stroke-width: 0.8"/>
      </g>
     </g>
     <g id="text_12">
      <text style="font: 10px 'Arial', sans-serif; text-anchor: end" x="26.023438" y="49.197623" transform="rotate(-0 26.023438 49.197623)">4</text>
     </g>
    </g>
    <g id="text_13">
     <text style="font: 10px 'Arial', sans-serif; text-anchor: middle" x="14.357813" y="127.08" transform="rotate(-90 14.357813 127.08)">Max Activity</text>
    </g>
   </g>
   <g id="LineCollection_1">
    <path d="M 45.304969 182.95397 
L 45.304969 142.749694 
" clip-path="url(#pf26c20cc5a)" style="fill: none; stroke: #000000; stroke-width: 1.5"/>
    <path d="M 68.048545 153.732221 
L 68.048545 127.379863 
" clip-path="url(#pf26c20cc5a)" style="fill: none; stroke: #000000; stroke-width: 1.5"/>
    <path d="M 90.792121 80.404493 
L 90.792121 51.84 
" clip-path="url(#pf26c20cc5a)" style="fill: none; stroke: #000000; stroke-width: 1.5"/>
    <path clip-path="url(#pf26c20cc5a)" style="fill: none; stroke: #000000; stroke-width: 1.5"/>
    <path clip-path="url(#pf26c20cc5a)" style="fill: none; stroke: #000000; stroke-width: 1.5"/>
    <path clip-path="url(#pf26c20cc5a)" style="fill: none; stroke: #000000; stroke-width: 1.5"/>
   </g>
   <g id="LineCollection_2">
    <path clip-path="url(#pf26c20cc5a)" style="fill: none; stroke: #000000; stroke-width: 1.5"/>
    <path clip-path="url(#pf26c20cc5a)" style="fill: none; stroke: #000000; stroke-width: 1.5"/>
    <path clip-path="url(#pf26c20cc5a)" style="fill: none; stroke: #000000; stroke-width: 1.5"/>
    <path d="M 145.376705 148.705643 
L 145.376705 132.002424 
" clip-path="url(#pf26c20cc5a)" style="fill: none; stroke: #000000; stroke-width: 1.5"/>
    <path d="M 168.120281 162.98818 
L 168.120281 140.896257 
" clip-path="url(#pf26c20cc5a)" style="fill: none; stroke: #000000; stroke-width: 1.5"/>
    <path d="M 190.863857 153.598871 
L 190.863857 146.404078 
" clip-path="url(#pf26c20cc5a)" style="fill: none; stroke: #000000; stroke-width: 1.5"/>
   </g>
   <g id="line2d_12">
    <path d="M 33.023438 210.24 
L 203.145389 210.24 
" clip-path="url(#pf26c20cc5a)" style="fill: none; stroke-dasharray: 5.55,2.4; stroke-dashoffset: 0; stroke: #808080; stroke-width: 1.5"/>
   </g>
   <g id="legend_1">
    <g id="patch_15">
     <path d="M 124.132889 80.210625 
L 196.145389 80.210625 
Q 198.145389 80.210625 198.145389 78.210625 
L 198.145389 50.92 
Q 198.145389 48.92 196.145389 48.92 
L 124.132889 48.92 
Q 122.132889 48.92 122.132889 50.92 
L 122.132889 78.210625 
Q 122.132889 80.210625 124.132889 80.210625 
z
" style="fill: #ffffff; opacity: 0.8; stroke: #cccccc; stroke-linejoin: miter"/>
    </g>
    <g id="patch_16">
     <path d="M 126.132889 60.077812 
L 146.132889 60.077812 
L 146.132889 53.077812 
L 126.132889 53.077812 
z
" style="fill: #ff00ff"/>
    </g>
    <g id="text_14">
     <text style="font: 10px 'Arial', sans-serif; text-anchor: start" x="154.132889" y="60.077812" transform="rotate(-0 154.132889 60.077812)">Pref</text>
    </g>
    <g id="patch_17">
     <path d="M 126.132889 74.223125 
L 146.132889 74.223125 
L 146.132889 67.223125 
L 126.132889 67.223125 
z
" style="fill: #00ffff"/>
    </g>
    <g id="text_15">
     <text style="font: 10px 'Arial', sans-serif; text-anchor: start" x="154.132889" y="74.223125" transform="rotate(-0 154.132889 74.223125)">Non-Pref</text>
    </g>
   </g>
  </g>
  <g id="axes_2">
   <g id="patch_18">
    <path d="M 237.169779 210.24 
L 407.29173 210.24 
L 407.29173 43.92 
L 237.169779 43.92 
z
" style="fill: #ffffff"/>
   </g>
   <g id="PolyCollection_1">
    <defs>
     <path id="m76ea5cb7f5" d="M 244.902595 -158.858942 
L 244.902595 -127.475568 
L 249.735605 -123.631156 
L 254.568615 -117.965783 
L 259.401625 -116.834201 
L 264.234635 -120.969313 
L 269.067645 -128.006292 
L 273.900655 -131.794721 
L 278.733665 -132.462653 
L 283.566675 -129.739617 
L 288.399685 -125.964987 
L 293.232695 -127.79511 
L 298.065705 -134.670017 
L 302.898715 -141.080255 
L 307.731725 -144.760639 
L 312.564735 -149.22801 
L 317.397745 -155.822851 
L 322.230755 -158.144124 
L 327.063765 -153.752632 
L 331.896775 -148.59475 
L 336.729785 -145.159195 
L 341.562794 -145.039691 
L 346.395804 -146.434208 
L 351.228814 -146.140114 
L 356.061824 -147.399314 
L 360.894834 -148.258456 
L 365.727844 -149.444035 
L 370.560854 -148.090551 
L 375.393864 -139.785121 
L 380.226874 -131.612068 
L 385.059884 -130.357046 
L 389.892894 -121.646055 
L 394.725904 -118.930261 
L 399.558914 -122.695662 
L 399.558914 -151.319383 
L 399.558914 -151.319383 
L 394.725904 -147.55422 
L 389.892894 -151.410122 
L 385.059884 -163.58433 
L 380.226874 -167.032357 
L 375.393864 -176.075356 
L 370.560854 -183.12206 
L 365.727844 -178.207603 
L 360.894834 -171.927706 
L 356.061824 -169.120716 
L 351.228814 -167.37863 
L 346.395804 -164.966765 
L 341.562794 -163.168173 
L 336.729785 -166.40947 
L 331.896775 -173.697234 
L 327.063765 -184.633658 
L 322.230755 -195.166272 
L 317.397745 -191.839429 
L 312.564735 -185.170198 
L 307.731725 -182.055897 
L 302.898715 -182.828043 
L 298.065705 -171.274233 
L 293.232695 -154.605468 
L 288.399685 -154.175487 
L 283.566675 -167.90797 
L 278.733665 -179.244523 
L 273.900655 -187.288164 
L 269.067645 -183.895384 
L 264.234635 -163.955234 
L 259.401625 -148.47301 
L 254.568615 -143.83315 
L 249.735605 -149.925168 
L 244.902595 -158.858942 
z
" style="stroke: #ff00ff; stroke-opacity: 0.1"/>
    </defs>
    <g clip-path="url(#p68d1901a85)">
     <use xlink:href="#m76ea5cb7f5" x="0" y="323.436915" style="fill: #ff00ff; fill-opacity: 0.1; stroke: #ff00ff; stroke-opacity: 0.1"/>
    </g>
   </g>
   <g id="matplotlib.axis_3">
    <g id="xtick_7">
     <g id="line2d_13">
      <g>
       <use xlink:href="#m3db9f3975b" x="254.568615" y="210.24" style="stroke: #000000; stroke-width: 0.8"/>
      </g>
     </g>
     <g id="text_16">
      <text style="font: 10px 'Arial', sans-serif" transform="translate(223.602862 251.86503) rotate(-45)">Sampling</text>
     </g>
    </g>
    <g id="xtick_8">
     <g id="line2d_14">
      <g>
       <use xlink:href="#m3db9f3975b" x="385.059884" y="210.24" style="stroke: #000000; stroke-width: 0.8"/>
      </g>
     </g>
     <g id="text_17">
      <text style="font: 10px 'Arial', sans-serif" transform="translate(304.26962 301.686227) rotate(-45)">Movement to Lateral Port</text>
     </g>
    </g>
    <g id="text_18">
     <text style="font: 10px 'Arial', sans-serif; text-anchor: middle" x="322.230755" y="314.249415" transform="rotate(-0 322.230755 314.249415)">Normalized Time</text>
    </g>
   </g>
   <g id="matplotlib.axis_4">
    <g id="ytick_6">
     <g id="line2d_15">
      <g>
       <use xlink:href="#md8b2ad59c5" x="237.169779" y="194.807735" style="stroke: #000000; stroke-width: 0.8"/>
      </g>
     </g>
     <g id="text_19">
      <text style="font: 10px 'Arial', sans-serif; text-anchor: end" x="230.169779" y="198.386641" transform="rotate(-0 230.169779 198.386641)">−0.5</text>
     </g>
    </g>
    <g id="ytick_7">
     <g id="line2d_16">
      <g>
       <use xlink:href="#md8b2ad59c5" x="237.169779" y="170.229846" style="stroke: #000000; stroke-width: 0.8"/>
      </g>
     </g>
     <g id="text_20">
      <text style="font: 10px 'Arial', sans-serif; text-anchor: end" x="230.169779" y="173.808752" transform="rotate(-0 230.169779 173.808752)">0.0</text>
     </g>
    </g>
    <g id="ytick_8">
     <g id="line2d_17">
      <g>
       <use xlink:href="#md8b2ad59c5" x="237.169779" y="145.651957" style="stroke: #000000; stroke-width: 0.8"/>
      </g>
     </g>
     <g id="text_21">
      <text style="font: 10px 'Arial', sans-serif; text-anchor: end" x="230.169779" y="149.230863" transform="rotate(-0 230.169779 149.230863)">0.5</text>
     </g>
    </g>
    <g id="ytick_9">
     <g id="line2d_18">
      <g>
       <use xlink:href="#md8b2ad59c5" x="237.169779" y="121.074068" style="stroke: #000000; stroke-width: 0.8"/>
      </g>
     </g>
     <g id="text_22">
      <text style="font: 10px 'Arial', sans-serif; text-anchor: end" x="230.169779" y="124.652975" transform="rotate(-0 230.169779 124.652975)">1.0</text>
     </g>
    </g>
    <g id="ytick_10">
     <g id="line2d_19">
      <g>
       <use xlink:href="#md8b2ad59c5" x="237.169779" y="96.49618" style="stroke: #000000; stroke-width: 0.8"/>
      </g>
     </g>
     <g id="text_23">
      <text style="font: 10px 'Arial', sans-serif; text-anchor: end" x="230.169779" y="100.075086" transform="rotate(-0 230.169779 100.075086)">1.5</text>
     </g>
    </g>
    <g id="ytick_11">
     <g id="line2d_20">
      <g>
       <use xlink:href="#md8b2ad59c5" x="237.169779" y="71.918291" style="stroke: #000000; stroke-width: 0.8"/>
      </g>
     </g>
     <g id="text_24">
      <text style="font: 10px 'Arial', sans-serif; text-anchor: end" x="230.169779" y="75.497197" transform="rotate(-0 230.169779 75.497197)">2.0</text>
     </g>
    </g>
    <g id="ytick_12">
     <g id="line2d_21">
      <g>
       <use xlink:href="#md8b2ad59c5" x="237.169779" y="47.340402" style="stroke: #000000; stroke-width: 0.8"/>
      </g>
     </g>
     <g id="text_25">
      <text style="font: 10px 'Arial', sans-serif; text-anchor: end" x="230.169779" y="50.919309" transform="rotate(-0 230.169779 50.919309)">2.5</text>
     </g>
    </g>
    <g id="text_26">
     <text style="font: 10px 'Arial', sans-serif; text-anchor: middle" x="204.324466" y="127.08" transform="rotate(-90 204.324466 127.08)">Mean Activity</text>
    </g>
   </g>
   <g id="line2d_22">
    <path d="M 244.902595 180.269659 
L 249.735605 186.658752 
L 254.568615 192.537448 
L 259.401625 190.783309 
L 264.234635 180.974641 
L 269.067645 167.486078 
L 273.900655 163.895473 
L 278.733665 167.583326 
L 283.566675 174.613122 
L 288.399685 183.366678 
L 293.232695 182.236626 
L 298.065705 170.46479 
L 302.898715 161.482765 
L 307.731725 160.028647 
L 312.564735 156.237811 
L 317.397745 149.605775 
L 322.230755 146.781717 
L 327.063765 154.243771 
L 331.896775 162.290922 
L 336.729785 167.652582 
L 341.562794 169.332983 
L 346.395804 167.736428 
L 351.228814 166.677543 
L 356.061824 165.176899 
L 360.894834 163.343833 
L 365.727844 159.611095 
L 370.560854 157.830609 
L 375.393864 165.506676 
L 380.226874 174.114703 
L 385.059884 176.466226 
L 389.892894 186.908825 
L 394.725904 190.194675 
L 399.558914 186.429392 
" clip-path="url(#p68d1901a85)" style="fill: none; stroke: #ff00ff; stroke-width: 1.5; stroke-linecap: square"/>
   </g>
   <g id="line2d_23">
    <path d="M 254.568615 210.24 
L 254.568615 43.92 
" clip-path="url(#p68d1901a85)" style="fill: none; stroke-dasharray: 5.55,2.4; stroke-dashoffset: 0; stroke: #808080; stroke-opacity: 0.7; stroke-width: 1.5"/>
   </g>
   <g id="line2d_24">
    <path d="M 385.059884 210.24 
L 385.059884 43.92 
" clip-path="url(#p68d1901a85)" style="fill: none; stroke-dasharray: 5.55,2.4; stroke-dashoffset: 0; stroke: #808080; stroke-opacity: 0.7; stroke-width: 1.5"/>
   </g>
   <g id="text_27">
    <text style="font: 12px 'Arial', sans-serif; text-anchor: middle" x="322.230755" y="37.92" transform="rotate(-0 322.230755 37.92)">3 Incorrect Trials</text>
   </g>
   <g id="legend_2">
    <g id="patch_19">
     <path d="M 270.278623 207.345 
L 374.182887 207.345 
Q 375.340887 207.345 375.340887 206.187 
L 375.340887 198.575864 
Q 375.340887 197.417864 374.182887 197.417864 
L 270.278623 197.417864 
Q 269.120623 197.417864 269.120623 198.575864 
L 269.120623 206.187 
Q 269.120623 207.345 270.278623 207.345 
z
" style="fill: #ffffff; opacity: 0.8; stroke: #cccccc; stroke-linejoin: miter"/>
    </g>
    <g id="line2d_25">
     <path d="M 271.436623 201.851738 
L 277.226623 201.851738 
L 283.016623 201.851738 
" style="fill: none; stroke: #ff00ff; stroke-width: 1.5; stroke-linecap: square"/>
    </g>
    <g id="text_28">
     <text style="font: 5.79px 'Arial', sans-serif; text-anchor: start" x="287.648623" y="203.878238" transform="rotate(-0 287.648623 203.878238)">Pref - PrevCount=-3 - #Trials=8.0</text>
    </g>
   </g>
  </g>
  <g id="axes_3">
   <g id="patch_20">
    <path d="M 441.31612 210.24 
L 611.438072 210.24 
L 611.438072 43.92 
L 441.31612 43.92 
z
" style="fill: #ffffff"/>
   </g>
   <g id="PolyCollection_2">
    <defs>
     <path id="m0a1533eeab" d="M 449.048936 -147.155004 
L 449.048936 -135.864719 
L 453.881946 -145.640574 
L 458.714956 -144.065185 
L 463.547966 -138.474384 
L 468.380976 -142.907992 
L 473.213986 -144.790058 
L 478.046996 -149.468233 
L 482.880006 -154.4108 
L 487.713016 -159.396415 
L 492.546026 -165.277666 
L 497.379036 -166.797048 
L 502.212046 -165.829461 
L 507.045056 -168.088668 
L 511.878066 -175.526225 
L 516.711076 -178.593707 
L 521.544086 -180.404235 
L 526.377096 -179.581457 
L 531.210106 -177.088287 
L 536.043116 -168.19872 
L 540.876126 -161.30964 
L 545.709136 -158.476936 
L 550.542146 -155.024028 
L 555.375156 -153.887138 
L 560.208166 -164.086637 
L 565.041176 -174.536833 
L 569.874186 -177.635088 
L 574.707196 -177.371264 
L 579.540206 -176.799848 
L 584.373216 -172.46824 
L 589.206226 -170.654045 
L 594.039236 -162.741971 
L 598.872246 -151.993944 
L 603.705256 -138.19729 
L 603.705256 -154.280661 
L 603.705256 -154.280661 
L 598.872246 -174.197174 
L 594.039236 -191.928519 
L 589.206226 -205.939414 
L 584.373216 -209.101288 
L 579.540206 -216.608726 
L 574.707196 -219.378197 
L 569.874186 -220.629193 
L 565.041176 -217.465257 
L 560.208166 -205.834107 
L 555.375156 -195.976269 
L 550.542146 -194.737004 
L 545.709136 -198.645938 
L 540.876126 -199.335452 
L 536.043116 -200.558076 
L 531.210106 -202.43944 
L 526.377096 -201.348094 
L 521.544086 -204.119727 
L 516.711076 -204.23114 
L 511.878066 -204.666291 
L 507.045056 -203.70007 
L 502.212046 -204.153275 
L 497.379036 -201.896662 
L 492.546026 -193.473122 
L 487.713016 -185.127342 
L 482.880006 -180.59748 
L 478.046996 -178.037955 
L 473.213986 -175.7981 
L 468.380976 -170.509706 
L 463.547966 -162.322092 
L 458.714956 -161.008299 
L 453.881946 -155.776587 
L 449.048936 -147.155004 
z
" style="stroke: #ff00ff; stroke-opacity: 0.1"/>
    </defs>
    <g clip-path="url(#pb26c12f904)">
     <use xlink:href="#m0a1533eeab" x="0" y="323.436915" style="fill: #ff00ff; fill-opacity: 0.1; stroke: #ff00ff; stroke-opacity: 0.1"/>
    </g>
   </g>
   <g id="matplotlib.axis_5">
    <g id="xtick_9">
     <g id="line2d_26">
      <g>
       <use xlink:href="#m3db9f3975b" x="458.714956" y="210.24" style="stroke: #000000; stroke-width: 0.8"/>
      </g>
     </g>
     <g id="text_29">
      <text style="font: 10px 'Arial', sans-serif" transform="translate(427.749204 251.86503) rotate(-45)">Sampling</text>
     </g>
    </g>
    <g id="xtick_10">
     <g id="line2d_27">
      <g>
       <use xlink:href="#m3db9f3975b" x="589.206226" y="210.24" style="stroke: #000000; stroke-width: 0.8"/>
      </g>
     </g>
     <g id="text_30">
      <text style="font: 10px 'Arial', sans-serif" transform="translate(508.415961 301.686227) rotate(-45)">Movement to Lateral Port</text>
     </g>
    </g>
    <g id="text_31">
     <text style="font: 10px 'Arial', sans-serif; text-anchor: middle" x="526.377096" y="314.249415" transform="rotate(-0 526.377096 314.249415)">Normalized Time</text>
    </g>
   </g>
   <g id="matplotlib.axis_6">
    <g id="ytick_13">
     <g id="line2d_28">
      <g>
       <use xlink:href="#md8b2ad59c5" x="441.31612" y="194.807735" style="stroke: #000000; stroke-width: 0.8"/>
      </g>
     </g>
     <g id="text_32">
      <text style="font: 10px 'Arial', sans-serif; text-anchor: end" x="434.31612" y="198.386641" transform="rotate(-0 434.31612 198.386641)">−0.5</text>
     </g>
    </g>
    <g id="ytick_14">
     <g id="line2d_29">
      <g>
       <use xlink:href="#md8b2ad59c5" x="441.31612" y="170.229846" style="stroke: #000000; stroke-width: 0.8"/>
      </g>
     </g>
     <g id="text_33">
      <text style="font: 10px 'Arial', sans-serif; text-anchor: end" x="434.31612" y="173.808752" transform="rotate(-0 434.31612 173.808752)">0.0</text>
     </g>
    </g>
    <g id="ytick_15">
     <g id="line2d_30">
      <g>
       <use xlink:href="#md8b2ad59c5" x="441.31612" y="145.651957" style="stroke: #000000; stroke-width: 0.8"/>
      </g>
     </g>
     <g id="text_34">
      <text style="font: 10px 'Arial', sans-serif; text-anchor: end" x="434.31612" y="149.230863" transform="rotate(-0 434.31612 149.230863)">0.5</text>
     </g>
    </g>
    <g id="ytick_16">
     <g id="line2d_31">
      <g>
       <use xlink:href="#md8b2ad59c5" x="441.31612" y="121.074068" style="stroke: #000000; stroke-width: 0.8"/>
      </g>
     </g>
     <g id="text_35">
      <text style="font: 10px 'Arial', sans-serif; text-anchor: end" x="434.31612" y="124.652975" transform="rotate(-0 434.31612 124.652975)">1.0</text>
     </g>
    </g>
    <g id="ytick_17">
     <g id="line2d_32">
      <g>
       <use xlink:href="#md8b2ad59c5" x="441.31612" y="96.49618" style="stroke: #000000; stroke-width: 0.8"/>
      </g>
     </g>
     <g id="text_36">
      <text style="font: 10px 'Arial', sans-serif; text-anchor: end" x="434.31612" y="100.075086" transform="rotate(-0 434.31612 100.075086)">1.5</text>
     </g>
    </g>
    <g id="ytick_18">
     <g id="line2d_33">
      <g>
       <use xlink:href="#md8b2ad59c5" x="441.31612" y="71.918291" style="stroke: #000000; stroke-width: 0.8"/>
      </g>
     </g>
     <g id="text_37">
      <text style="font: 10px 'Arial', sans-serif; text-anchor: end" x="434.31612" y="75.497197" transform="rotate(-0 434.31612 75.497197)">2.0</text>
     </g>
    </g>
    <g id="ytick_19">
     <g id="line2d_34">
      <g>
       <use xlink:href="#md8b2ad59c5" x="441.31612" y="47.340402" style="stroke: #000000; stroke-width: 0.8"/>
      </g>
     </g>
     <g id="text_38">
      <text style="font: 10px 'Arial', sans-serif; text-anchor: end" x="434.31612" y="50.919309" transform="rotate(-0 434.31612 50.919309)">2.5</text>
     </g>
    </g>
    <g id="text_39">
     <text style="font: 10px 'Arial', sans-serif; text-anchor: middle" x="408.470808" y="127.08" transform="rotate(-90 408.470808 127.08)">Mean Activity</text>
    </g>
   </g>
   <g id="line2d_35">
    <path d="M 449.048936 181.927053 
L 453.881946 172.728334 
L 458.714956 170.900173 
L 463.547966 173.038677 
L 468.380976 166.728066 
L 473.213986 163.142835 
L 478.046996 159.683821 
L 482.880006 155.932775 
L 487.713016 151.175036 
L 492.546026 144.061521 
L 497.379036 139.09006 
L 502.212046 138.445547 
L 507.045056 137.542545 
L 511.878066 133.340658 
L 516.711076 132.024491 
L 521.544086 131.174934 
L 526.377096 132.972139 
L 531.210106 133.67305 
L 536.043116 139.058517 
L 540.876126 143.114369 
L 545.709136 144.875478 
L 550.542146 148.556399 
L 555.375156 148.50521 
L 560.208166 138.476542 
L 565.041176 127.43587 
L 569.874186 124.304775 
L 574.707196 125.062184 
L 579.540206 126.732626 
L 584.373216 132.652152 
L 589.206226 135.140186 
L 594.039236 146.101669 
L 598.872246 160.341356 
L 603.705256 177.197938 
" clip-path="url(#pb26c12f904)" style="fill: none; stroke: #ff00ff; stroke-width: 1.5; stroke-linecap: square"/>
   </g>
   <g id="line2d_36">
    <path d="M 458.714956 210.24 
L 458.714956 43.92 
" clip-path="url(#pb26c12f904)" style="fill: none; stroke-dasharray: 5.55,2.4; stroke-dashoffset: 0; stroke: #808080; stroke-opacity: 0.7; stroke-width: 1.5"/>
   </g>
   <g id="line2d_37">
    <path d="M 589.206226 210.24 
L 589.206226 43.92 
" clip-path="url(#pb26c12f904)" style="fill: none; stroke-dasharray: 5.55,2.4; stroke-dashoffset: 0; stroke: #808080; stroke-opacity: 0.7; stroke-width: 1.5"/>
   </g>
   <g id="text_40">
    <text style="font: 12px 'Arial', sans-serif; text-anchor: middle" x="526.377096" y="37.92" transform="rotate(-0 526.377096 37.92)">2 Incorrect Trials</text>
   </g>
   <g id="legend_3">
    <g id="patch_21">
     <path d="M 474.424964 207.345 
L 578.329228 207.345 
Q 579.487228 207.345 579.487228 206.187 
L 579.487228 198.575864 
Q 579.487228 197.417864 578.329228 197.417864 
L 474.424964 197.417864 
Q 473.266964 197.417864 473.266964 198.575864 
L 473.266964 206.187 
Q 473.266964 207.345 474.424964 207.345 
z
" style="fill: #ffffff; opacity: 0.8; stroke: #cccccc; stroke-linejoin: miter"/>
    </g>
    <g id="line2d_38">
     <path d="M 475.582964 201.851738 
L 481.372964 201.851738 
L 487.162964 201.851738 
" style="fill: none; stroke: #ff00ff; stroke-width: 1.5; stroke-linecap: square"/>
    </g>
    <g id="text_41">
     <text style="font: 5.79px 'Arial', sans-serif; text-anchor: start" x="491.794964" y="203.878238" transform="rotate(-0 491.794964 203.878238)">Pref - PrevCount=-2 - #Trials=8.0</text>
    </g>
   </g>
  </g>
  <g id="axes_4">
   <g id="patch_22">
    <path d="M 645.462462 210.24 
L 815.584413 210.24 
L 815.584413 43.92 
L 645.462462 43.92 
z
" style="fill: #ffffff"/>
   </g>
   <g id="PolyCollection_3">
    <defs>
     <path id="m3f2094c6d4" d="M 653.195278 -203.95618 
L 653.195278 -167.357212 
L 658.028288 -168.469634 
L 662.861298 -174.512468 
L 667.694308 -183.25327 
L 672.527318 -186.848463 
L 677.360328 -196.559914 
L 682.193338 -203.546162 
L 687.026348 -204.521993 
L 691.859358 -212.233909 
L 696.692368 -215.923103 
L 701.525378 -219.118448 
L 706.358388 -218.134736 
L 711.191398 -218.69957 
L 716.024408 -230.14317 
L 720.857418 -229.865631 
L 725.690428 -230.898156 
L 730.523438 -231.360051 
L 735.356447 -227.332769 
L 740.189457 -222.157817 
L 745.022467 -214.028399 
L 749.855477 -213.148898 
L 754.688487 -205.656039 
L 759.521497 -207.009893 
L 764.354507 -211.060837 
L 769.187517 -206.056194 
L 774.020527 -197.975314 
L 778.853537 -193.568822 
L 783.686547 -194.912154 
L 788.519557 -196.530164 
L 793.352567 -196.206707 
L 798.185577 -185.500959 
L 803.018587 -169.406978 
L 807.851597 -162.280521 
L 807.851597 -182.608341 
L 807.851597 -182.608341 
L 803.018587 -192.331353 
L 798.185577 -212.426106 
L 793.352567 -228.685082 
L 788.519557 -226.273066 
L 783.686547 -223.763332 
L 778.853537 -222.195835 
L 774.020527 -226.606725 
L 769.187517 -233.117559 
L 764.354507 -236.46325 
L 759.521497 -234.020488 
L 754.688487 -234.047595 
L 749.855477 -244.719363 
L 745.022467 -251.268796 
L 740.189457 -262.299999 
L 735.356447 -267.121405 
L 730.523438 -268.034201 
L 725.690428 -264.395566 
L 720.857418 -263.968373 
L 716.024408 -262.902108 
L 711.191398 -251.795231 
L 706.358388 -248.956491 
L 701.525378 -247.97442 
L 696.692368 -243.924841 
L 691.859358 -246.709758 
L 687.026348 -244.145498 
L 682.193338 -242.67 
L 677.360328 -234.503138 
L 672.527318 -224.893089 
L 667.694308 -221.081935 
L 662.861298 -218.282023 
L 658.028288 -211.973704 
L 653.195278 -203.95618 
z
" style="stroke: #ff00ff; stroke-opacity: 0.1"/>
    </defs>
    <g clip-path="url(#p6909f77029)">
     <use xlink:href="#m3f2094c6d4" x="0" y="323.436915" style="fill: #ff00ff; fill-opacity: 0.1; stroke: #ff00ff; stroke-opacity: 0.1"/>
    </g>
   </g>
   <g id="matplotlib.axis_7">
    <g id="xtick_11">
     <g id="line2d_39">
      <g>
       <use xlink:href="#m3db9f3975b" x="662.861298" y="210.24" style="stroke: #000000; stroke-width: 0.8"/>
      </g>
     </g>
     <g id="text_42">
      <text style="font: 10px 'Arial', sans-serif" transform="translate(631.895545 251.86503) rotate(-45)">Sampling</text>
     </g>
    </g>
    <g id="xtick_12">
     <g id="line2d_40">
      <g>
       <use xlink:href="#m3db9f3975b" x="793.352567" y="210.24" style="stroke: #000000; stroke-width: 0.8"/>
      </g>
     </g>
     <g id="text_43">
      <text style="font: 10px 'Arial', sans-serif" transform="translate(712.562303 301.686227) rotate(-45)">Movement to Lateral Port</text>
     </g>
    </g>
    <g id="text_44">
     <text style="font: 10px 'Arial', sans-serif; text-anchor: middle" x="730.523438" y="314.249415" transform="rotate(-0 730.523438 314.249415)">Normalized Time</text>
    </g>
   </g>
   <g id="matplotlib.axis_8">
    <g id="ytick_20">
     <g id="line2d_41">
      <g>
       <use xlink:href="#md8b2ad59c5" x="645.462462" y="194.807735" style="stroke: #000000; stroke-width: 0.8"/>
      </g>
     </g>
     <g id="text_45">
      <text style="font: 10px 'Arial', sans-serif; text-anchor: end" x="638.462462" y="198.386641" transform="rotate(-0 638.462462 198.386641)">−0.5</text>
     </g>
    </g>
    <g id="ytick_21">
     <g id="line2d_42">
      <g>
       <use xlink:href="#md8b2ad59c5" x="645.462462" y="170.229846" style="stroke: #000000; stroke-width: 0.8"/>
      </g>
     </g>
     <g id="text_46">
      <text style="font: 10px 'Arial', sans-serif; text-anchor: end" x="638.462462" y="173.808752" transform="rotate(-0 638.462462 173.808752)">0.0</text>
     </g>
    </g>
    <g id="ytick_22">
     <g id="line2d_43">
      <g>
       <use xlink:href="#md8b2ad59c5" x="645.462462" y="145.651957" style="stroke: #000000; stroke-width: 0.8"/>
      </g>
     </g>
     <g id="text_47">
      <text style="font: 10px 'Arial', sans-serif; text-anchor: end" x="638.462462" y="149.230863" transform="rotate(-0 638.462462 149.230863)">0.5</text>
     </g>
    </g>
    <g id="ytick_23">
     <g id="line2d_44">
      <g>
       <use xlink:href="#md8b2ad59c5" x="645.462462" y="121.074068" style="stroke: #000000; stroke-width: 0.8"/>
      </g>
     </g>
     <g id="text_48">
      <text style="font: 10px 'Arial', sans-serif; text-anchor: end" x="638.462462" y="124.652975" transform="rotate(-0 638.462462 124.652975)">1.0</text>
     </g>
    </g>
    <g id="ytick_24">
     <g id="line2d_45">
      <g>
       <use xlink:href="#md8b2ad59c5" x="645.462462" y="96.49618" style="stroke: #000000; stroke-width: 0.8"/>
      </g>
     </g>
     <g id="text_49">
      <text style="font: 10px 'Arial', sans-serif; text-anchor: end" x="638.462462" y="100.075086" transform="rotate(-0 638.462462 100.075086)">1.5</text>
     </g>
    </g>
    <g id="ytick_25">
     <g id="line2d_46">
      <g>
       <use xlink:href="#md8b2ad59c5" x="645.462462" y="71.918291" style="stroke: #000000; stroke-width: 0.8"/>
      </g>
     </g>
     <g id="text_50">
      <text style="font: 10px 'Arial', sans-serif; text-anchor: end" x="638.462462" y="75.497197" transform="rotate(-0 638.462462 75.497197)">2.0</text>
     </g>
    </g>
    <g id="ytick_26">
     <g id="line2d_47">
      <g>
       <use xlink:href="#md8b2ad59c5" x="645.462462" y="47.340402" style="stroke: #000000; stroke-width: 0.8"/>
      </g>
     </g>
     <g id="text_51">
      <text style="font: 10px 'Arial', sans-serif; text-anchor: end" x="638.462462" y="50.919309" transform="rotate(-0 638.462462 50.919309)">2.5</text>
     </g>
    </g>
    <g id="text_52">
     <text style="font: 10px 'Arial', sans-serif; text-anchor: middle" x="612.617149" y="127.08" transform="rotate(-90 612.617149 127.08)">Mean Activity</text>
    </g>
   </g>
   <g id="line2d_48">
    <path d="M 653.195278 137.780219 
L 658.028288 133.215246 
L 662.861298 127.039669 
L 667.694308 121.269312 
L 672.527318 117.566137 
L 677.360328 107.905389 
L 682.193338 100.328834 
L 687.026348 99.103169 
L 691.859358 93.965081 
L 696.692368 93.512943 
L 701.525378 89.890481 
L 706.358388 89.891301 
L 711.191398 88.189514 
L 716.024408 76.914273 
L 720.857418 76.519912 
L 725.690428 75.790053 
L 730.523438 73.739788 
L 735.356447 76.209828 
L 740.189457 81.208007 
L 745.022467 90.788317 
L 749.855477 94.502784 
L 754.688487 103.585098 
L 759.521497 102.921724 
L 764.354507 99.674871 
L 769.187517 103.850038 
L 774.020527 111.145895 
L 778.853537 115.554588 
L 783.686547 114.099171 
L 788.519557 112.0353 
L 793.352567 110.99102 
L 798.185577 124.473382 
L 803.018587 142.567749 
L 807.851597 150.992483 
" clip-path="url(#p6909f77029)" style="fill: none; stroke: #ff00ff; stroke-width: 1.5; stroke-linecap: square"/>
   </g>
   <g id="line2d_49">
    <path d="M 662.861298 210.24 
L 662.861298 43.92 
" clip-path="url(#p6909f77029)" style="fill: none; stroke-dasharray: 5.55,2.4; stroke-dashoffset: 0; stroke: #808080; stroke-opacity: 0.7; stroke-width: 1.5"/>
   </g>
   <g id="line2d_50">
    <path d="M 793.352567 210.24 
L 793.352567 43.92 
" clip-path="url(#p6909f77029)" style="fill: none; stroke-dasharray: 5.55,2.4; stroke-dashoffset: 0; stroke: #808080; stroke-opacity: 0.7; stroke-width: 1.5"/>
   </g>
   <g id="text_53">
    <text style="font: 12px 'Arial', sans-serif; text-anchor: middle" x="730.523438" y="37.92" transform="rotate(-0 730.523438 37.92)">1 Incorrect Trials</text>
   </g>
   <g id="legend_4">
    <g id="patch_23">
     <path d="M 676.961414 207.345 
L 784.085461 207.345 
Q 785.243461 207.345 785.243461 206.187 
L 785.243461 198.575864 
Q 785.243461 197.417864 784.085461 197.417864 
L 676.961414 197.417864 
Q 675.803414 197.417864 675.803414 198.575864 
L 675.803414 206.187 
Q 675.803414 207.345 676.961414 207.345 
z
" style="fill: #ffffff; opacity: 0.8; stroke: #cccccc; stroke-linejoin: miter"/>
    </g>
    <g id="line2d_51">
     <path d="M 678.119414 201.851738 
L 683.909414 201.851738 
L 689.699414 201.851738 
" style="fill: none; stroke: #ff00ff; stroke-width: 1.5; stroke-linecap: square"/>
    </g>
    <g id="text_54">
     <text style="font: 5.79px 'Arial', sans-serif; text-anchor: start" x="694.331414" y="203.878238" transform="rotate(-0 694.331414 203.878238)">Pref - PrevCount=-1 - #Trials=20.0</text>
    </g>
   </g>
  </g>
  <g id="axes_5">
   <g id="patch_24">
    <path d="M 849.608803 210.24 
L 1019.730755 210.24 
L 1019.730755 43.92 
L 849.608803 43.92 
z
" style="fill: #ffffff"/>
   </g>
   <g id="PolyCollection_4">
    <defs>
     <path id="mba34d1e9fc" d="M 857.341619 -155.041434 
L 857.341619 -140.095573 
L 862.174629 -146.066271 
L 867.007639 -152.080832 
L 871.840649 -158.51499 
L 876.673659 -165.483947 
L 881.506669 -171.675268 
L 886.339679 -174.579234 
L 891.172689 -178.815337 
L 896.005699 -179.994657 
L 900.838709 -181.436077 
L 905.671719 -186.907422 
L 910.504729 -187.261441 
L 915.337739 -184.928093 
L 920.170749 -178.036836 
L 925.003759 -168.491272 
L 929.836769 -166.099834 
L 934.669779 -168.583863 
L 939.502789 -170.435748 
L 944.335799 -171.727808 
L 949.168809 -171.167199 
L 954.001819 -167.834871 
L 958.834829 -164.139411 
L 963.667839 -161.577982 
L 968.500849 -161.15568 
L 973.333859 -157.863941 
L 978.166869 -155.58334 
L 982.999879 -155.419186 
L 987.832889 -148.755939 
L 992.665899 -147.23083 
L 997.498909 -142.639978 
L 1002.331919 -134.252746 
L 1007.164929 -131.405246 
L 1011.997939 -133.198033 
L 1011.997939 -142.332982 
L 1011.997939 -142.332982 
L 1007.164929 -139.77639 
L 1002.331919 -144.10506 
L 997.498909 -155.507055 
L 992.665899 -159.315133 
L 987.832889 -162.289491 
L 982.999879 -168.188966 
L 978.166869 -169.409336 
L 973.333859 -173.206122 
L 968.500849 -177.622316 
L 963.667839 -179.41534 
L 958.834829 -181.979039 
L 954.001819 -185.545177 
L 949.168809 -187.904471 
L 944.335799 -187.495573 
L 939.502789 -185.148935 
L 934.669779 -183.220508 
L 929.836769 -183.721541 
L 925.003759 -186.120245 
L 920.170749 -195.110627 
L 915.337739 -205.497067 
L 910.504729 -209.326211 
L 905.671719 -206.37668 
L 900.838709 -199.528762 
L 896.005699 -198.890454 
L 891.172689 -198.766185 
L 886.339679 -191.729127 
L 881.506669 -189.207491 
L 876.673659 -181.205097 
L 871.840649 -172.895238 
L 867.007639 -169.065268 
L 862.174629 -162.380186 
L 857.341619 -155.041434 
z
" style="stroke: #00ffff; stroke-opacity: 0.1"/>
    </defs>
    <g clip-path="url(#pda825b9889)">
     <use xlink:href="#mba34d1e9fc" x="0" y="323.436915" style="fill: #00ffff; fill-opacity: 0.1; stroke: #00ffff; stroke-opacity: 0.1"/>
    </g>
   </g>
   <g id="matplotlib.axis_9">
    <g id="xtick_13">
     <g id="line2d_52">
      <g>
       <use xlink:href="#m3db9f3975b" x="867.007639" y="210.24" style="stroke: #000000; stroke-width: 0.8"/>
      </g>
     </g>
     <g id="text_55">
      <text style="font: 10px 'Arial', sans-serif" transform="translate(836.041887 251.86503) rotate(-45)">Sampling</text>
     </g>
    </g>
    <g id="xtick_14">
     <g id="line2d_53">
      <g>
       <use xlink:href="#m3db9f3975b" x="997.498909" y="210.24" style="stroke: #000000; stroke-width: 0.8"/>
      </g>
     </g>
     <g id="text_56">
      <text style="font: 10px 'Arial', sans-serif" transform="translate(916.708644 301.686227) rotate(-45)">Movement to Lateral Port</text>
     </g>
    </g>
    <g id="text_57">
     <text style="font: 10px 'Arial', sans-serif; text-anchor: middle" x="934.669779" y="314.249415" transform="rotate(-0 934.669779 314.249415)">Normalized Time</text>
    </g>
   </g>
   <g id="matplotlib.axis_10">
    <g id="ytick_27">
     <g id="line2d_54">
      <g>
       <use xlink:href="#md8b2ad59c5" x="849.608803" y="194.807735" style="stroke: #000000; stroke-width: 0.8"/>
      </g>
     </g>
     <g id="text_58">
      <text style="font: 10px 'Arial', sans-serif; text-anchor: end" x="842.608803" y="198.386641" transform="rotate(-0 842.608803 198.386641)">−0.5</text>
     </g>
    </g>
    <g id="ytick_28">
     <g id="line2d_55">
      <g>
       <use xlink:href="#md8b2ad59c5" x="849.608803" y="170.229846" style="stroke: #000000; stroke-width: 0.8"/>
      </g>
     </g>
     <g id="text_59">
      <text style="font: 10px 'Arial', sans-serif; text-anchor: end" x="842.608803" y="173.808752" transform="rotate(-0 842.608803 173.808752)">0.0</text>
     </g>
    </g>
    <g id="ytick_29">
     <g id="line2d_56">
      <g>
       <use xlink:href="#md8b2ad59c5" x="849.608803" y="145.651957" style="stroke: #000000; stroke-width: 0.8"/>
      </g>
     </g>
     <g id="text_60">
      <text style="font: 10px 'Arial', sans-serif; text-anchor: end" x="842.608803" y="149.230863" transform="rotate(-0 842.608803 149.230863)">0.5</text>
     </g>
    </g>
    <g id="ytick_30">
     <g id="line2d_57">
      <g>
       <use xlink:href="#md8b2ad59c5" x="849.608803" y="121.074068" style="stroke: #000000; stroke-width: 0.8"/>
      </g>
     </g>
     <g id="text_61">
      <text style="font: 10px 'Arial', sans-serif; text-anchor: end" x="842.608803" y="124.652975" transform="rotate(-0 842.608803 124.652975)">1.0</text>
     </g>
    </g>
    <g id="ytick_31">
     <g id="line2d_58">
      <g>
       <use xlink:href="#md8b2ad59c5" x="849.608803" y="96.49618" style="stroke: #000000; stroke-width: 0.8"/>
      </g>
     </g>
     <g id="text_62">
      <text style="font: 10px 'Arial', sans-serif; text-anchor: end" x="842.608803" y="100.075086" transform="rotate(-0 842.608803 100.075086)">1.5</text>
     </g>
    </g>
    <g id="ytick_32">
     <g id="line2d_59">
      <g>
       <use xlink:href="#md8b2ad59c5" x="849.608803" y="71.918291" style="stroke: #000000; stroke-width: 0.8"/>
      </g>
     </g>
     <g id="text_63">
      <text style="font: 10px 'Arial', sans-serif; text-anchor: end" x="842.608803" y="75.497197" transform="rotate(-0 842.608803 75.497197)">2.0</text>
     </g>
    </g>
    <g id="ytick_33">
     <g id="line2d_60">
      <g>
       <use xlink:href="#md8b2ad59c5" x="849.608803" y="47.340402" style="stroke: #000000; stroke-width: 0.8"/>
      </g>
     </g>
     <g id="text_64">
      <text style="font: 10px 'Arial', sans-serif; text-anchor: end" x="842.608803" y="50.919309" transform="rotate(-0 842.608803 50.919309)">2.5</text>
     </g>
    </g>
    <g id="text_65">
     <text style="font: 10px 'Arial', sans-serif; text-anchor: middle" x="816.763491" y="127.08" transform="rotate(-90 816.763491 127.08)">Mean Activity</text>
    </g>
   </g>
   <g id="line2d_61">
    <path d="M 857.341619 175.868411 
L 862.174629 169.213686 
L 867.007639 162.863865 
L 871.840649 157.731801 
L 876.673659 150.092392 
L 881.506669 142.995534 
L 886.339679 140.282734 
L 891.172689 134.646153 
L 896.005699 133.994359 
L 900.838709 132.954495 
L 905.671719 126.794864 
L 910.504729 125.143087 
L 915.337739 128.224333 
L 920.170749 136.863183 
L 925.003759 146.131156 
L 929.836769 148.526226 
L 934.669779 147.534729 
L 939.502789 145.644574 
L 944.335799 143.825224 
L 949.168809 143.901079 
L 954.001819 146.74689 
L 958.834829 150.377689 
L 963.667839 152.940254 
L 968.500849 154.047916 
L 973.333859 157.901882 
L 978.166869 160.940577 
L 982.999879 161.632838 
L 987.832889 167.9142 
L 992.665899 170.163933 
L 997.498909 174.363398 
L 1002.331919 184.258011 
L 1007.164929 187.846097 
L 1011.997939 185.671407 
" clip-path="url(#pda825b9889)" style="fill: none; stroke: #00ffff; stroke-width: 1.5; stroke-linecap: square"/>
   </g>
   <g id="line2d_62">
    <path d="M 867.007639 210.24 
L 867.007639 43.92 
" clip-path="url(#pda825b9889)" style="fill: none; stroke-dasharray: 5.55,2.4; stroke-dashoffset: 0; stroke: #808080; stroke-opacity: 0.7; stroke-width: 1.5"/>
   </g>
   <g id="line2d_63">
    <path d="M 997.498909 210.24 
L 997.498909 43.92 
" clip-path="url(#pda825b9889)" style="fill: none; stroke-dasharray: 5.55,2.4; stroke-dashoffset: 0; stroke: #808080; stroke-opacity: 0.7; stroke-width: 1.5"/>
   </g>
   <g id="text_66">
    <text style="font: 12px 'Arial', sans-serif; text-anchor: middle" x="934.669779" y="37.92" transform="rotate(-0 934.669779 37.92)">1 Correct Trials</text>
   </g>
   <g id="legend_5">
    <g id="patch_25">
     <path d="M 876.761184 207.345 
L 992.578373 207.345 
Q 993.736373 207.345 993.736373 206.187 
L 993.736373 198.575864 
Q 993.736373 197.417864 992.578373 197.417864 
L 876.761184 197.417864 
Q 875.603184 197.417864 875.603184 198.575864 
L 875.603184 206.187 
Q 875.603184 207.345 876.761184 207.345 
z
" style="fill: #ffffff; opacity: 0.8; stroke: #cccccc; stroke-linejoin: miter"/>
    </g>
    <g id="line2d_64">
     <path d="M 877.919184 201.851738 
L 883.709184 201.851738 
L 889.499184 201.851738 
" style="fill: none; stroke: #00ffff; stroke-width: 1.5; stroke-linecap: square"/>
    </g>
    <g id="text_67">
     <text style="font: 5.79px 'Arial', sans-serif; text-anchor: start" x="894.131184" y="203.878238" transform="rotate(-0 894.131184 203.878238)">NonPref - PrevCount=1 - #Trials=26.0</text>
    </g>
   </g>
  </g>
  <g id="axes_6">
   <g id="patch_26">
    <path d="M 1053.755145 210.24 
L 1223.877096 210.24 
L 1223.877096 43.92 
L 1053.755145 43.92 
z
" style="fill: #ffffff"/>
   </g>
   <g id="PolyCollection_5">
    <defs>
     <path id="me1ebdca88b" d="M 1061.487961 -139.184215 
L 1061.487961 -127.674421 
L 1066.320971 -125.512608 
L 1071.153981 -128.052813 
L 1075.986991 -133.511036 
L 1080.820001 -139.129455 
L 1085.653011 -149.05907 
L 1090.486021 -158.875991 
L 1095.319031 -167.04044 
L 1100.152041 -168.293038 
L 1104.985051 -168.755368 
L 1109.818061 -165.853461 
L 1114.651071 -163.241762 
L 1119.484081 -163.357638 
L 1124.31709 -160.384728 
L 1129.1501 -158.321243 
L 1133.98311 -158.871425 
L 1138.81612 -156.790487 
L 1143.64913 -155.319854 
L 1148.48214 -151.676081 
L 1153.31515 -152.99919 
L 1158.14816 -159.43024 
L 1162.98117 -161.277056 
L 1167.81418 -159.37804 
L 1172.64719 -155.656396 
L 1177.4802 -148.41749 
L 1182.31321 -135.908762 
L 1187.14622 -134.683695 
L 1191.97923 -137.319566 
L 1196.81224 -135.843847 
L 1201.64525 -134.518419 
L 1206.47826 -134.207578 
L 1211.31127 -137.355497 
L 1216.14428 -141.817662 
L 1216.14428 -154.089912 
L 1216.14428 -154.089912 
L 1211.31127 -149.307765 
L 1206.47826 -144.948401 
L 1201.64525 -146.494875 
L 1196.81224 -148.31679 
L 1191.97923 -151.154466 
L 1187.14622 -151.113377 
L 1182.31321 -155.505464 
L 1177.4802 -169.325265 
L 1172.64719 -177.689381 
L 1167.81418 -182.071015 
L 1162.98117 -183.408723 
L 1158.14816 -180.588644 
L 1153.31515 -174.910914 
L 1148.48214 -173.778094 
L 1143.64913 -176.800157 
L 1138.81612 -180.428512 
L 1133.98311 -183.6448 
L 1129.1501 -186.03013 
L 1124.31709 -190.196885 
L 1119.484081 -191.799017 
L 1114.651071 -188.31158 
L 1109.818061 -186.884188 
L 1104.985051 -185.906245 
L 1100.152041 -184.91705 
L 1095.319031 -183.873046 
L 1090.486021 -173.06973 
L 1085.653011 -162.514718 
L 1080.820001 -151.692931 
L 1075.986991 -143.038589 
L 1071.153981 -138.254957 
L 1066.320971 -136.675902 
L 1061.487961 -139.184215 
z
" style="stroke: #00ffff; stroke-opacity: 0.1"/>
    </defs>
    <g clip-path="url(#pe703bd08fb)">
     <use xlink:href="#me1ebdca88b" x="0" y="323.436915" style="fill: #00ffff; fill-opacity: 0.1; stroke: #00ffff; stroke-opacity: 0.1"/>
    </g>
   </g>
   <g id="matplotlib.axis_11">
    <g id="xtick_15">
     <g id="line2d_65">
      <g>
       <use xlink:href="#m3db9f3975b" x="1071.153981" y="210.24" style="stroke: #000000; stroke-width: 0.8"/>
      </g>
     </g>
     <g id="text_68">
      <text style="font: 10px 'Arial', sans-serif" transform="translate(1040.188228 251.86503) rotate(-45)">Sampling</text>
     </g>
    </g>
    <g id="xtick_16">
     <g id="line2d_66">
      <g>
       <use xlink:href="#m3db9f3975b" x="1201.64525" y="210.24" style="stroke: #000000; stroke-width: 0.8"/>
      </g>
     </g>
     <g id="text_69">
      <text style="font: 10px 'Arial', sans-serif" transform="translate(1120.854986 301.686227) rotate(-45)">Movement to Lateral Port</text>
     </g>
    </g>
    <g id="text_70">
     <text style="font: 10px 'Arial', sans-serif; text-anchor: middle" x="1138.81612" y="314.249415" transform="rotate(-0 1138.81612 314.249415)">Normalized Time</text>
    </g>
   </g>
   <g id="matplotlib.axis_12">
    <g id="ytick_34">
     <g id="line2d_67">
      <g>
       <use xlink:href="#md8b2ad59c5" x="1053.755145" y="194.807735" style="stroke: #000000; stroke-width: 0.8"/>
      </g>
     </g>
     <g id="text_71">
      <text style="font: 10px 'Arial', sans-serif; text-anchor: end" x="1046.755145" y="198.386641" transform="rotate(-0 1046.755145 198.386641)">−0.5</text>
     </g>
    </g>
    <g id="ytick_35">
     <g id="line2d_68">
      <g>
       <use xlink:href="#md8b2ad59c5" x="1053.755145" y="170.229846" style="stroke: #000000; stroke-width: 0.8"/>
      </g>
     </g>
     <g id="text_72">
      <text style="font: 10px 'Arial', sans-serif; text-anchor: end" x="1046.755145" y="173.808752" transform="rotate(-0 1046.755145 173.808752)">0.0</text>
     </g>
    </g>
    <g id="ytick_36">
     <g id="line2d_69">
      <g>
       <use xlink:href="#md8b2ad59c5" x="1053.755145" y="145.651957" style="stroke: #000000; stroke-width: 0.8"/>
      </g>
     </g>
     <g id="text_73">
      <text style="font: 10px 'Arial', sans-serif; text-anchor: end" x="1046.755145" y="149.230863" transform="rotate(-0 1046.755145 149.230863)">0.5</text>
     </g>
    </g>
    <g id="ytick_37">
     <g id="line2d_70">
      <g>
       <use xlink:href="#md8b2ad59c5" x="1053.755145" y="121.074068" style="stroke: #000000; stroke-width: 0.8"/>
      </g>
     </g>
     <g id="text_74">
      <text style="font: 10px 'Arial', sans-serif; text-anchor: end" x="1046.755145" y="124.652975" transform="rotate(-0 1046.755145 124.652975)">1.0</text>
     </g>
    </g>
    <g id="ytick_38">
     <g id="line2d_71">
      <g>
       <use xlink:href="#md8b2ad59c5" x="1053.755145" y="96.49618" style="stroke: #000000; stroke-width: 0.8"/>
      </g>
     </g>
     <g id="text_75">
      <text style="font: 10px 'Arial', sans-serif; text-anchor: end" x="1046.755145" y="100.075086" transform="rotate(-0 1046.755145 100.075086)">1.5</text>
     </g>
    </g>
    <g id="ytick_39">
     <g id="line2d_72">
      <g>
       <use xlink:href="#md8b2ad59c5" x="1053.755145" y="71.918291" style="stroke: #000000; stroke-width: 0.8"/>
      </g>
     </g>
     <g id="text_76">
      <text style="font: 10px 'Arial', sans-serif; text-anchor: end" x="1046.755145" y="75.497197" transform="rotate(-0 1046.755145 75.497197)">2.0</text>
     </g>
    </g>
    <g id="ytick_40">
     <g id="line2d_73">
      <g>
       <use xlink:href="#md8b2ad59c5" x="1053.755145" y="47.340402" style="stroke: #000000; stroke-width: 0.8"/>
      </g>
     </g>
     <g id="text_77">
      <text style="font: 10px 'Arial', sans-serif; text-anchor: end" x="1046.755145" y="50.919309" transform="rotate(-0 1046.755145 50.919309)">2.5</text>
     </g>
    </g>
    <g id="text_78">
     <text style="font: 10px 'Arial', sans-serif; text-anchor: middle" x="1020.909832" y="127.08" transform="rotate(-90 1020.909832 127.08)">Mean Activity</text>
    </g>
   </g>
   <g id="line2d_74">
    <path d="M 1061.487961 190.007597 
L 1066.320971 192.342658 
L 1071.153981 190.283029 
L 1075.986991 185.162102 
L 1080.820001 178.025722 
L 1085.653011 167.65002 
L 1090.486021 157.464054 
L 1095.319031 147.980171 
L 1100.152041 146.83187 
L 1104.985051 146.106108 
L 1109.818061 147.068091 
L 1114.651071 147.660244 
L 1119.484081 145.858586 
L 1124.31709 148.146108 
L 1129.1501 151.261228 
L 1133.98311 152.178802 
L 1138.81612 154.827415 
L 1143.64913 157.376909 
L 1148.48214 160.709827 
L 1153.31515 159.481863 
L 1158.14816 153.427474 
L 1162.98117 151.094025 
L 1167.81418 152.712387 
L 1172.64719 156.764026 
L 1177.4802 164.565537 
L 1182.31321 177.729801 
L 1187.14622 180.538379 
L 1191.97923 179.199899 
L 1196.81224 181.356596 
L 1201.64525 182.930267 
L 1206.47826 183.858925 
L 1211.31127 180.105283 
L 1216.14428 175.483128 
" clip-path="url(#pe703bd08fb)" style="fill: none; stroke: #00ffff; stroke-width: 1.5; stroke-linecap: square"/>
   </g>
   <g id="line2d_75">
    <path d="M 1071.153981 210.24 
L 1071.153981 43.92 
" clip-path="url(#pe703bd08fb)" style="fill: none; stroke-dasharray: 5.55,2.4; stroke-dashoffset: 0; stroke: #808080; stroke-opacity: 0.7; stroke-width: 1.5"/>
   </g>
   <g id="line2d_76">
    <path d="M 1201.64525 210.24 
L 1201.64525 43.92 
" clip-path="url(#pe703bd08fb)" style="fill: none; stroke-dasharray: 5.55,2.4; stroke-dashoffset: 0; stroke: #808080; stroke-opacity: 0.7; stroke-width: 1.5"/>
   </g>
   <g id="text_79">
    <text style="font: 12px 'Arial', sans-serif; text-anchor: middle" x="1138.81612" y="37.92" transform="rotate(-0 1138.81612 37.92)">2 Correct Trials</text>
   </g>
   <g id="legend_6">
    <g id="patch_27">
     <path d="M 1080.907526 207.345 
L 1196.724715 207.345 
Q 1197.882715 207.345 1197.882715 206.187 
L 1197.882715 198.575864 
Q 1197.882715 197.417864 1196.724715 197.417864 
L 1080.907526 197.417864 
Q 1079.749526 197.417864 1079.749526 198.575864 
L 1079.749526 206.187 
Q 1079.749526 207.345 1080.907526 207.345 
z
" style="fill: #ffffff; opacity: 0.8; stroke: #cccccc; stroke-linejoin: miter"/>
    </g>
    <g id="line2d_77">
     <path d="M 1082.065526 201.851738 
L 1087.855526 201.851738 
L 1093.645526 201.851738 
" style="fill: none; stroke: #00ffff; stroke-width: 1.5; stroke-linecap: square"/>
    </g>
    <g id="text_80">
     <text style="font: 5.79px 'Arial', sans-serif; text-anchor: start" x="1098.277526" y="203.878238" transform="rotate(-0 1098.277526 203.878238)">NonPref - PrevCount=2 - #Trials=21.0</text>
    </g>
   </g>
  </g>
  <g id="axes_7">
   <g id="patch_28">
    <path d="M 1257.901486 210.24 
L 1428.023438 210.24 
L 1428.023438 43.92 
L 1257.901486 43.92 
z
" style="fill: #ffffff"/>
   </g>
   <g id="PolyCollection_6">
    <defs>
     <path id="m329c049022" d="M 1265.634302 -141.894112 
L 1265.634302 -137.180542 
L 1270.467312 -138.223544 
L 1275.300322 -140.458607 
L 1280.133332 -144.68333 
L 1284.966342 -149.275073 
L 1289.799352 -157.591757 
L 1294.632362 -166.006571 
L 1299.465372 -171.580334 
L 1304.298382 -175.464222 
L 1309.131392 -175.692343 
L 1313.964402 -175.877321 
L 1318.797412 -176.819282 
L 1323.630422 -178.862568 
L 1328.463432 -178.2429 
L 1333.296442 -177.083566 
L 1338.129452 -174.041185 
L 1342.962462 -168.89475 
L 1347.795472 -165.772691 
L 1352.628482 -163.78321 
L 1357.461492 -163.209797 
L 1362.294502 -161.38365 
L 1367.127512 -159.349712 
L 1371.960522 -156.07374 
L 1376.793532 -153.534481 
L 1381.626542 -152.767896 
L 1386.459552 -151.168852 
L 1391.292562 -149.463909 
L 1396.125572 -146.635311 
L 1400.958582 -144.310658 
L 1405.791592 -142.994745 
L 1410.624602 -140.411619 
L 1415.457612 -137.552099 
L 1420.290622 -134.927556 
L 1420.290622 -139.611162 
L 1420.290622 -139.611162 
L 1415.457612 -142.054381 
L 1410.624602 -145.335707 
L 1405.791592 -148.70869 
L 1400.958582 -150.055254 
L 1396.125572 -152.536934 
L 1391.292562 -155.446014 
L 1386.459552 -157.356247 
L 1381.626542 -159.064849 
L 1376.793532 -160.353494 
L 1371.960522 -163.09366 
L 1367.127512 -166.877256 
L 1362.294502 -169.209765 
L 1357.461492 -171.216389 
L 1352.628482 -171.967751 
L 1347.795472 -174.448842 
L 1342.962462 -177.940064 
L 1338.129452 -183.027016 
L 1333.296442 -185.965936 
L 1328.463432 -186.715363 
L 1323.630422 -187.200595 
L 1318.797412 -184.951037 
L 1313.964402 -184.176023 
L 1309.131392 -184.186254 
L 1304.298382 -184.076634 
L 1299.465372 -179.539667 
L 1294.632362 -173.034347 
L 1289.799352 -163.873168 
L 1284.966342 -154.534554 
L 1280.133332 -149.739651 
L 1275.300322 -145.634929 
L 1270.467312 -143.279375 
L 1265.634302 -141.894112 
z
" style="stroke: #00ffff; stroke-opacity: 0.1"/>
    </defs>
    <g clip-path="url(#pf93cee01b9)">
     <use xlink:href="#m329c049022" x="0" y="323.436915" style="fill: #00ffff; fill-opacity: 0.1; stroke: #00ffff; stroke-opacity: 0.1"/>
    </g>
   </g>
   <g id="matplotlib.axis_13">
    <g id="xtick_17">
     <g id="line2d_78">
      <g>
       <use xlink:href="#m3db9f3975b" x="1275.300322" y="210.24" style="stroke: #000000; stroke-width: 0.8"/>
      </g>
     </g>
     <g id="text_81">
      <text style="font: 10px 'Arial', sans-serif" transform="translate(1244.334569 251.86503) rotate(-45)">Sampling</text>
     </g>
    </g>
    <g id="xtick_18">
     <g id="line2d_79">
      <g>
       <use xlink:href="#m3db9f3975b" x="1405.791592" y="210.24" style="stroke: #000000; stroke-width: 0.8"/>
      </g>
     </g>
     <g id="text_82">
      <text style="font: 10px 'Arial', sans-serif" transform="translate(1325.001327 301.686227) rotate(-45)">Movement to Lateral Port</text>
     </g>
    </g>
    <g id="text_83">
     <text style="font: 10px 'Arial', sans-serif; text-anchor: middle" x="1342.962462" y="314.249415" transform="rotate(-0 1342.962462 314.249415)">Normalized Time</text>
    </g>
   </g>
   <g id="matplotlib.axis_14">
    <g id="ytick_41">
     <g id="line2d_80">
      <g>
       <use xlink:href="#md8b2ad59c5" x="1257.901486" y="194.807735" style="stroke: #000000; stroke-width: 0.8"/>
      </g>
     </g>
     <g id="text_84">
      <text style="font: 10px 'Arial', sans-serif; text-anchor: end" x="1250.901486" y="198.386641" transform="rotate(-0 1250.901486 198.386641)">−0.5</text>
     </g>
    </g>
    <g id="ytick_42">
     <g id="line2d_81">
      <g>
       <use xlink:href="#md8b2ad59c5" x="1257.901486" y="170.229846" style="stroke: #000000; stroke-width: 0.8"/>
      </g>
     </g>
     <g id="text_85">
      <text style="font: 10px 'Arial', sans-serif; text-anchor: end" x="1250.901486" y="173.808752" transform="rotate(-0 1250.901486 173.808752)">0.0</text>
     </g>
    </g>
    <g id="ytick_43">
     <g id="line2d_82">
      <g>
       <use xlink:href="#md8b2ad59c5" x="1257.901486" y="145.651957" style="stroke: #000000; stroke-width: 0.8"/>
      </g>
     </g>
     <g id="text_86">
      <text style="font: 10px 'Arial', sans-serif; text-anchor: end" x="1250.901486" y="149.230863" transform="rotate(-0 1250.901486 149.230863)">0.5</text>
     </g>
    </g>
    <g id="ytick_44">
     <g id="line2d_83">
      <g>
       <use xlink:href="#md8b2ad59c5" x="1257.901486" y="121.074068" style="stroke: #000000; stroke-width: 0.8"/>
      </g>
     </g>
     <g id="text_87">
      <text style="font: 10px 'Arial', sans-serif; text-anchor: end" x="1250.901486" y="124.652975" transform="rotate(-0 1250.901486 124.652975)">1.0</text>
     </g>
    </g>
    <g id="ytick_45">
     <g id="line2d_84">
      <g>
       <use xlink:href="#md8b2ad59c5" x="1257.901486" y="96.49618" style="stroke: #000000; stroke-width: 0.8"/>
      </g>
     </g>
     <g id="text_88">
      <text style="font: 10px 'Arial', sans-serif; text-anchor: end" x="1250.901486" y="100.075086" transform="rotate(-0 1250.901486 100.075086)">1.5</text>
     </g>
    </g>
    <g id="ytick_46">
     <g id="line2d_85">
      <g>
       <use xlink:href="#md8b2ad59c5" x="1257.901486" y="71.918291" style="stroke: #000000; stroke-width: 0.8"/>
      </g>
     </g>
     <g id="text_89">
      <text style="font: 10px 'Arial', sans-serif; text-anchor: end" x="1250.901486" y="75.497197" transform="rotate(-0 1250.901486 75.497197)">2.0</text>
     </g>
    </g>
    <g id="ytick_47">
     <g id="line2d_86">
      <g>
       <use xlink:href="#md8b2ad59c5" x="1257.901486" y="47.340402" style="stroke: #000000; stroke-width: 0.8"/>
      </g>
     </g>
     <g id="text_90">
      <text style="font: 10px 'Arial', sans-serif; text-anchor: end" x="1250.901486" y="50.919309" transform="rotate(-0 1250.901486 50.919309)">2.5</text>
     </g>
    </g>
    <g id="text_91">
     <text style="font: 10px 'Arial', sans-serif; text-anchor: middle" x="1225.056174" y="127.08" transform="rotate(-90 1225.056174 127.08)">Mean Activity</text>
    </g>
   </g>
   <g id="line2d_87">
    <path d="M 1265.634302 183.899588 
L 1270.467312 182.685455 
L 1275.300322 180.390146 
L 1280.133332 176.225424 
L 1284.966342 171.532101 
L 1289.799352 162.704452 
L 1294.632362 153.916456 
L 1299.465372 147.876914 
L 1304.298382 143.666487 
L 1309.131392 143.497616 
L 1313.964402 143.410243 
L 1318.797412 142.551755 
L 1323.630422 140.405333 
L 1328.463432 140.957783 
L 1333.296442 141.912164 
L 1338.129452 144.902814 
L 1342.962462 150.019508 
L 1347.795472 153.326148 
L 1352.628482 155.561434 
L 1357.461492 156.223822 
L 1362.294502 158.140207 
L 1367.127512 160.323431 
L 1371.960522 163.853214 
L 1376.793532 166.492927 
L 1381.626542 167.520542 
L 1386.459552 169.174365 
L 1391.292562 170.981953 
L 1396.125572 173.850792 
L 1400.958582 176.253958 
L 1405.791592 177.585197 
L 1410.624602 180.563252 
L 1415.457612 183.633675 
L 1420.290622 186.167555 
" clip-path="url(#pf93cee01b9)" style="fill: none; stroke: #00ffff; stroke-width: 1.5; stroke-linecap: square"/>
   </g>
   <g id="line2d_88">
    <path d="M 1275.300322 210.24 
L 1275.300322 43.92 
" clip-path="url(#pf93cee01b9)" style="fill: none; stroke-dasharray: 5.55,2.4; stroke-dashoffset: 0; stroke: #808080; stroke-opacity: 0.7; stroke-width: 1.5"/>
   </g>
   <g id="line2d_89">
    <path d="M 1405.791592 210.24 
L 1405.791592 43.92 
" clip-path="url(#pf93cee01b9)" style="fill: none; stroke-dasharray: 5.55,2.4; stroke-dashoffset: 0; stroke: #808080; stroke-opacity: 0.7; stroke-width: 1.5"/>
   </g>
   <g id="text_92">
    <text style="font: 12px 'Arial', sans-serif; text-anchor: middle" x="1342.962462" y="37.92" transform="rotate(-0 1342.962462 37.92)">3 Correct Trials</text>
   </g>
   <g id="legend_7">
    <g id="patch_29">
     <path d="M 1283.443976 207.345 
L 1402.480948 207.345 
Q 1403.638948 207.345 1403.638948 206.187 
L 1403.638948 198.575864 
Q 1403.638948 197.417864 1402.480948 197.417864 
L 1283.443976 197.417864 
Q 1282.285976 197.417864 1282.285976 198.575864 
L 1282.285976 206.187 
Q 1282.285976 207.345 1283.443976 207.345 
z
" style="fill: #ffffff; opacity: 0.8; stroke: #cccccc; stroke-linejoin: miter"/>
    </g>
    <g id="line2d_90">
     <path d="M 1284.601976 201.851738 
L 1290.391976 201.851738 
L 1296.181976 201.851738 
" style="fill: none; stroke: #00ffff; stroke-width: 1.5; stroke-linecap: square"/>
    </g>
    <g id="text_93">
     <text style="font: 5.79px 'Arial', sans-serif; text-anchor: start" x="1300.813976" y="203.878238" transform="rotate(-0 1300.813976 203.878238)">NonPref - PrevCount=3 - #Trials=129.0</text>
    </g>
   </g>
  </g>
  <g id="text_94">
   <text style="font: 12px 'Arial', sans-serif; text-anchor: middle" x="708.023438" y="15.935625" transform="rotate(-0 708.023438 15.935625)">Balance Change - M2 - GP4_85_s2_L100_D250_mm2_113 - PrevChoiceCorrect</text>
  </g>
 </g>
 <defs>
  <clipPath id="pf26c20cc5a">
   <rect x="33.023438" y="43.92" width="170.121951" height="166.32"/>
  </clipPath>
  <clipPath id="p68d1901a85">
   <rect x="237.169779" y="43.92" width="170.121951" height="166.32"/>
  </clipPath>
  <clipPath id="pb26c12f904">
   <rect x="441.31612" y="43.92" width="170.121951" height="166.32"/>
  </clipPath>
  <clipPath id="p6909f77029">
   <rect x="645.462462" y="43.92" width="170.121951" height="166.32"/>
  </clipPath>
  <clipPath id="pda825b9889">
   <rect x="849.608803" y="43.92" width="170.121951" height="166.32"/>
  </clipPath>
  <clipPath id="pe703bd08fb">
   <rect x="1053.755145" y="43.92" width="170.121951" height="166.32"/>
  </clipPath>
  <clipPath id="pf93cee01b9">
   <rect x="1257.901486" y="43.92" width="170.121951" height="166.32"/>
  </clipPath>
 </defs>
</svg>
