<?xml version="1.0" encoding="utf-8" standalone="no"?>
<!DOCTYPE svg PUBLIC "-//W3C//DTD SVG 1.1//EN"
  "http://www.w3.org/Graphics/SVG/1.1/DTD/svg11.dtd">
<svg xmlns:xlink="http://www.w3.org/1999/xlink" width="1443.5625pt" height="323.436915pt" viewBox="0 0 1443.5625 323.436915" xmlns="http://www.w3.org/2000/svg" version="1.1">
 <metadata>
  <rdf:RDF xmlns:dc="http://purl.org/dc/elements/1.1/" xmlns:cc="http://creativecommons.org/ns#" xmlns:rdf="http://www.w3.org/1999/02/22-rdf-syntax-ns#">
   <cc:Work>
    <dc:type rdf:resource="http://purl.org/dc/dcmitype/StillImage"/>
    <dc:date>2025-12-27T14:01:51.191743</dc:date>
    <dc:format>image/svg+xml</dc:format>
    <dc:creator>
     <cc:Agent>
      <dc:title>Matplotlib v3.8.0, https://matplotlib.org/</dc:title>
     </cc:Agent>
    </dc:creator>
   </cc:Work>
  </rdf:RDF>
 </metadata>
 <defs>
  <style type="text/css">*{stroke-linejoin: round; stroke-linecap: butt}</style>
 </defs>
 <g id="figure_1">
  <g id="patch_1">
   <path d="M 0 323.436915 
L 1443.5625 323.436915 
L 1443.5625 0 
L 0 0 
z
" style="fill: #ffffff"/>
  </g>
  <g id="axes_1">
   <g id="patch_2">
    <path d="M 41.3625 210.24 
L 211.484451 210.24 
L 211.484451 43.92 
L 41.3625 43.92 
z
" style="fill: #ffffff"/>
   </g>
   <g id="patch_3">
    <path d="M 0 0 
z
" clip-path="url(#pfba81cd703)" style="fill: #ff00ff"/>
   </g>
   <g id="patch_4">
    <path d="M 0 0 
z
" clip-path="url(#pfba81cd703)" style="fill: #ff00ff"/>
   </g>
   <g id="patch_5">
    <path d="M 0 0 
z
" clip-path="url(#pfba81cd703)" style="fill: #ff00ff"/>
   </g>
   <g id="patch_6">
    <path d="M 141.889108 210.24 
L 152.199529 210.24 
L 152.199529 108.185517 
L 141.889108 108.185517 
z
" clip-path="url(#pfba81cd703)" style="fill: #ff00ff"/>
   </g>
   <g id="patch_7">
    <path d="M 167.665161 210.24 
L 177.975582 210.24 
L 177.975582 92.055866 
L 167.665161 92.055866 
z
" clip-path="url(#pfba81cd703)" style="fill: #ff00ff"/>
   </g>
   <g id="patch_8">
    <path d="M 193.441214 210.24 
L 203.751635 210.24 
L 203.751635 91.809384 
L 193.441214 91.809384 
z
" clip-path="url(#pfba81cd703)" style="fill: #ff00ff"/>
   </g>
   <g id="patch_9">
    <path d="M 49.095316 210.24 
L 59.405737 210.24 
L 59.405737 108.261592 
L 49.095316 108.261592 
z
" clip-path="url(#pfba81cd703)" style="fill: #00ffff"/>
   </g>
   <g id="patch_10">
    <path d="M 74.871369 210.24 
L 85.18179 210.24 
L 85.18179 92.884011 
L 74.871369 92.884011 
z
" clip-path="url(#pfba81cd703)" style="fill: #00ffff"/>
   </g>
   <g id="patch_11">
    <path d="M 100.647422 210.24 
L 110.957844 210.24 
L 110.957844 122.8331 
L 100.647422 122.8331 
z
" clip-path="url(#pfba81cd703)" style="fill: #00ffff"/>
   </g>
   <g id="patch_12">
    <path d="M 0 0 
z
" clip-path="url(#pfba81cd703)" style="fill: #00ffff"/>
   </g>
   <g id="patch_13">
    <path d="M 0 0 
z
" clip-path="url(#pfba81cd703)" style="fill: #00ffff"/>
   </g>
   <g id="patch_14">
    <path d="M 0 0 
z
" clip-path="url(#pfba81cd703)" style="fill: #00ffff"/>
   </g>
   <g id="matplotlib.axis_1">
    <g id="xtick_1">
     <g id="line2d_1">
      <defs>
       <path id="m4e544d91fd" d="M 0 0 
L 0 3.5 
" style="stroke: #000000; stroke-width: 0.8"/>
      </defs>
      <g>
       <use xlink:href="#m4e544d91fd" x="49.095316" y="210.24" style="stroke: #000000; stroke-width: 0.8"/>
      </g>
     </g>
     <g id="text_1">
      <text style="font: 10px 'Arial', sans-serif; text-anchor: middle" x="49.095316" y="224.397813" transform="rotate(-0 49.095316 224.397813)">−3</text>
     </g>
    </g>
    <g id="xtick_2">
     <g id="line2d_2">
      <g>
       <use xlink:href="#m4e544d91fd" x="74.871369" y="210.24" style="stroke: #000000; stroke-width: 0.8"/>
      </g>
     </g>
     <g id="text_2">
      <text style="font: 10px 'Arial', sans-serif; text-anchor: middle" x="74.871369" y="224.397813" transform="rotate(-0 74.871369 224.397813)">−2</text>
     </g>
    </g>
    <g id="xtick_3">
     <g id="line2d_3">
      <g>
       <use xlink:href="#m4e544d91fd" x="100.647422" y="210.24" style="stroke: #000000; stroke-width: 0.8"/>
      </g>
     </g>
     <g id="text_3">
      <text style="font: 10px 'Arial', sans-serif; text-anchor: middle" x="100.647422" y="224.397813" transform="rotate(-0 100.647422 224.397813)">−1</text>
     </g>
    </g>
    <g id="xtick_4">
     <g id="line2d_4">
      <g>
       <use xlink:href="#m4e544d91fd" x="152.199529" y="210.24" style="stroke: #000000; stroke-width: 0.8"/>
      </g>
     </g>
     <g id="text_4">
      <text style="font: 10px 'Arial', sans-serif; text-anchor: middle" x="152.199529" y="224.397813" transform="rotate(-0 152.199529 224.397813)">1</text>
     </g>
    </g>
    <g id="xtick_5">
     <g id="line2d_5">
      <g>
       <use xlink:href="#m4e544d91fd" x="177.975582" y="210.24" style="stroke: #000000; stroke-width: 0.8"/>
      </g>
     </g>
     <g id="text_5">
      <text style="font: 10px 'Arial', sans-serif; text-anchor: middle" x="177.975582" y="224.397813" transform="rotate(-0 177.975582 224.397813)">2</text>
     </g>
    </g>
    <g id="xtick_6">
     <g id="line2d_6">
      <g>
       <use xlink:href="#m4e544d91fd" x="203.751635" y="210.24" style="stroke: #000000; stroke-width: 0.8"/>
      </g>
     </g>
     <g id="text_6">
      <text style="font: 10px 'Arial', sans-serif; text-anchor: middle" x="203.751635" y="224.397813" transform="rotate(-0 203.751635 224.397813)">3</text>
     </g>
    </g>
    <g id="text_7">
     <text style="font: 10px 'Arial', sans-serif; text-anchor: middle" x="126.423476" y="237.543125" transform="rotate(-0 126.423476 237.543125)">PrevOutcomeCount</text>
    </g>
   </g>
   <g id="matplotlib.axis_2">
    <g id="ytick_1">
     <g id="line2d_7">
      <defs>
       <path id="mb7fbaa8264" d="M 0 0 
L -3.5 0 
" style="stroke: #000000; stroke-width: 0.8"/>
      </defs>
      <g>
       <use xlink:href="#mb7fbaa8264" x="41.3625" y="210.24" style="stroke: #000000; stroke-width: 0.8"/>
      </g>
     </g>
     <g id="text_8">
      <text style="font: 10px 'Arial', sans-serif; text-anchor: end" x="34.3625" y="213.818906" transform="rotate(-0 34.3625 213.818906)">0.0</text>
     </g>
    </g>
    <g id="ytick_2">
     <g id="line2d_8">
      <g>
       <use xlink:href="#mb7fbaa8264" x="41.3625" y="183.978209" style="stroke: #000000; stroke-width: 0.8"/>
      </g>
     </g>
     <g id="text_9">
      <text style="font: 10px 'Arial', sans-serif; text-anchor: end" x="34.3625" y="187.557115" transform="rotate(-0 34.3625 187.557115)">0.5</text>
     </g>
    </g>
    <g id="ytick_3">
     <g id="line2d_9">
      <g>
       <use xlink:href="#mb7fbaa8264" x="41.3625" y="157.716418" style="stroke: #000000; stroke-width: 0.8"/>
      </g>
     </g>
     <g id="text_10">
      <text style="font: 10px 'Arial', sans-serif; text-anchor: end" x="34.3625" y="161.295324" transform="rotate(-0 34.3625 161.295324)">1.0</text>
     </g>
    </g>
    <g id="ytick_4">
     <g id="line2d_10">
      <g>
       <use xlink:href="#mb7fbaa8264" x="41.3625" y="131.454626" style="stroke: #000000; stroke-width: 0.8"/>
      </g>
     </g>
     <g id="text_11">
      <text style="font: 10px 'Arial', sans-serif; text-anchor: end" x="34.3625" y="135.033533" transform="rotate(-0 34.3625 135.033533)">1.5</text>
     </g>
    </g>
    <g id="ytick_5">
     <g id="line2d_11">
      <g>
       <use xlink:href="#mb7fbaa8264" x="41.3625" y="105.192835" style="stroke: #000000; stroke-width: 0.8"/>
      </g>
     </g>
     <g id="text_12">
      <text style="font: 10px 'Arial', sans-serif; text-anchor: end" x="34.3625" y="108.771741" transform="rotate(-0 34.3625 108.771741)">2.0</text>
     </g>
    </g>
    <g id="ytick_6">
     <g id="line2d_12">
      <g>
       <use xlink:href="#mb7fbaa8264" x="41.3625" y="78.931044" style="stroke: #000000; stroke-width: 0.8"/>
      </g>
     </g>
     <g id="text_13">
      <text style="font: 10px 'Arial', sans-serif; text-anchor: end" x="34.3625" y="82.50995" transform="rotate(-0 34.3625 82.50995)">2.5</text>
     </g>
    </g>
    <g id="ytick_7">
     <g id="line2d_13">
      <g>
       <use xlink:href="#mb7fbaa8264" x="41.3625" y="52.669253" style="stroke: #000000; stroke-width: 0.8"/>
      </g>
     </g>
     <g id="text_14">
      <text style="font: 10px 'Arial', sans-serif; text-anchor: end" x="34.3625" y="56.248159" transform="rotate(-0 34.3625 56.248159)">3.0</text>
     </g>
    </g>
    <g id="text_15">
     <text style="font: 10px 'Arial', sans-serif; text-anchor: middle" x="14.357813" y="127.08" transform="rotate(-90 14.357813 127.08)">Max Activity</text>
    </g>
   </g>
   <g id="LineCollection_1">
    <path clip-path="url(#pfba81cd703)" style="fill: none; stroke: #000000; stroke-width: 1.5"/>
    <path clip-path="url(#pfba81cd703)" style="fill: none; stroke: #000000; stroke-width: 1.5"/>
    <path clip-path="url(#pfba81cd703)" style="fill: none; stroke: #000000; stroke-width: 1.5"/>
    <path d="M 147.044318 122.709953 
L 147.044318 93.661081 
" clip-path="url(#pfba81cd703)" style="fill: none; stroke: #000000; stroke-width: 1.5"/>
    <path d="M 172.820371 112.763692 
L 172.820371 71.34804 
" clip-path="url(#pfba81cd703)" style="fill: none; stroke: #000000; stroke-width: 1.5"/>
    <path d="M 198.596425 106.302746 
L 198.596425 77.316021 
" clip-path="url(#pfba81cd703)" style="fill: none; stroke: #000000; stroke-width: 1.5"/>
   </g>
   <g id="LineCollection_2">
    <path d="M 54.250527 159.225127 
L 54.250527 57.298057 
" clip-path="url(#pfba81cd703)" style="fill: none; stroke: #000000; stroke-width: 1.5"/>
    <path d="M 80.02658 133.928021 
L 80.02658 51.84 
" clip-path="url(#pfba81cd703)" style="fill: none; stroke: #000000; stroke-width: 1.5"/>
    <path d="M 105.802633 139.37933 
L 105.802633 106.286869 
" clip-path="url(#pfba81cd703)" style="fill: none; stroke: #000000; stroke-width: 1.5"/>
    <path clip-path="url(#pfba81cd703)" style="fill: none; stroke: #000000; stroke-width: 1.5"/>
    <path clip-path="url(#pfba81cd703)" style="fill: none; stroke: #000000; stroke-width: 1.5"/>
    <path clip-path="url(#pfba81cd703)" style="fill: none; stroke: #000000; stroke-width: 1.5"/>
   </g>
   <g id="line2d_14">
    <path d="M 41.3625 210.24 
L 211.484451 210.24 
" clip-path="url(#pfba81cd703)" style="fill: none; stroke-dasharray: 5.55,2.4; stroke-dashoffset: 0; stroke: #808080; stroke-width: 1.5"/>
   </g>
   <g id="legend_1">
    <g id="patch_15">
     <path d="M 90.417226 80.210625 
L 162.429726 80.210625 
Q 164.429726 80.210625 164.429726 78.210625 
L 164.429726 50.92 
Q 164.429726 48.92 162.429726 48.92 
L 90.417226 48.92 
Q 88.417226 48.92 88.417226 50.92 
L 88.417226 78.210625 
Q 88.417226 80.210625 90.417226 80.210625 
z
" style="fill: #ffffff; opacity: 0.8; stroke: #cccccc; stroke-linejoin: miter"/>
    </g>
    <g id="patch_16">
     <path d="M 92.417226 60.077812 
L 112.417226 60.077812 
L 112.417226 53.077812 
L 92.417226 53.077812 
z
" style="fill: #ff00ff"/>
    </g>
    <g id="text_16">
     <text style="font: 10px 'Arial', sans-serif; text-anchor: start" x="120.417226" y="60.077812" transform="rotate(-0 120.417226 60.077812)">Pref</text>
    </g>
    <g id="patch_17">
     <path d="M 92.417226 74.223125 
L 112.417226 74.223125 
L 112.417226 67.223125 
L 92.417226 67.223125 
z
" style="fill: #00ffff"/>
    </g>
    <g id="text_17">
     <text style="font: 10px 'Arial', sans-serif; text-anchor: start" x="120.417226" y="74.223125" transform="rotate(-0 120.417226 74.223125)">Non-Pref</text>
    </g>
   </g>
  </g>
  <g id="axes_2">
   <g id="patch_18">
    <path d="M 245.508841 210.24 
L 415.630793 210.24 
L 415.630793 43.92 
L 245.508841 43.92 
z
" style="fill: #ffffff"/>
   </g>
   <g id="PolyCollection_1">
    <defs>
     <path id="ma33a6e12c1" d="M 253.241657 -150.173124 
L 253.241657 -122.448395 
L 258.074667 -123.020968 
L 262.907677 -124.331788 
L 267.740687 -123.353064 
L 272.573697 -120.484771 
L 277.406707 -117.895209 
L 282.239717 -121.763162 
L 287.072727 -128.632291 
L 291.905737 -135.580609 
L 296.738747 -139.189858 
L 301.571757 -140.464598 
L 306.404767 -140.42137 
L 311.237777 -143.034255 
L 316.070787 -149.931162 
L 320.903797 -156.316052 
L 325.736807 -159.597769 
L 330.569817 -157.461394 
L 335.402827 -160.371649 
L 340.235837 -169.448779 
L 345.068847 -173.767859 
L 349.901857 -171.282329 
L 354.734867 -161.891536 
L 359.567877 -158.82215 
L 364.400887 -152.80182 
L 369.233897 -146.300028 
L 374.066907 -142.363334 
L 378.899917 -134.222621 
L 383.732927 -130.427511 
L 388.565937 -130.202783 
L 393.398947 -130.952686 
L 398.231957 -126.227301 
L 403.064967 -121.046208 
L 407.897977 -117.887458 
L 407.897977 -152.804163 
L 407.897977 -152.804163 
L 403.064967 -149.375076 
L 398.231957 -151.258396 
L 393.398947 -159.337848 
L 388.565937 -161.744171 
L 383.732927 -166.250189 
L 378.899917 -175.144013 
L 374.066907 -184.657515 
L 369.233897 -189.243459 
L 364.400887 -205.512899 
L 359.567877 -237.828833 
L 354.734867 -253.559332 
L 349.901857 -258.036996 
L 345.068847 -257.003754 
L 340.235837 -259.463841 
L 335.402827 -266.788128 
L 330.569817 -263.415056 
L 325.736807 -245.67353 
L 320.903797 -232.034201 
L 316.070787 -231.241426 
L 311.237777 -240.160373 
L 306.404767 -246.981905 
L 301.571757 -233.777047 
L 296.738747 -199.370453 
L 291.905737 -165.84182 
L 287.072727 -149.919071 
L 282.239717 -146.124885 
L 277.406707 -153.365849 
L 272.573697 -159.263418 
L 267.740687 -150.445379 
L 262.907677 -145.419129 
L 258.074667 -146.13074 
L 253.241657 -150.173124 
z
" style="stroke: #00ffff; stroke-opacity: 0.1"/>
    </defs>
    <g clip-path="url(#pb6466bf276)">
     <use xlink:href="#ma33a6e12c1" x="0" y="323.436915" style="fill: #00ffff; fill-opacity: 0.1; stroke: #00ffff; stroke-opacity: 0.1"/>
    </g>
   </g>
   <g id="matplotlib.axis_3">
    <g id="xtick_7">
     <g id="line2d_15">
      <g>
       <use xlink:href="#m4e544d91fd" x="262.907677" y="210.24" style="stroke: #000000; stroke-width: 0.8"/>
      </g>
     </g>
     <g id="text_18">
      <text style="font: 10px 'Arial', sans-serif" transform="translate(231.941925 251.86503) rotate(-45)">Sampling</text>
     </g>
    </g>
    <g id="xtick_8">
     <g id="line2d_16">
      <g>
       <use xlink:href="#m4e544d91fd" x="393.398947" y="210.24" style="stroke: #000000; stroke-width: 0.8"/>
      </g>
     </g>
     <g id="text_19">
      <text style="font: 10px 'Arial', sans-serif" transform="translate(312.608682 301.686227) rotate(-45)">Movement to Lateral Port</text>
     </g>
    </g>
    <g id="text_20">
     <text style="font: 10px 'Arial', sans-serif; text-anchor: middle" x="330.569817" y="314.249415" transform="rotate(-0 330.569817 314.249415)">Normalized Time</text>
    </g>
   </g>
   <g id="matplotlib.axis_4">
    <g id="ytick_8">
     <g id="line2d_17">
      <g>
       <use xlink:href="#mb7fbaa8264" x="245.508841" y="209.444807" style="stroke: #000000; stroke-width: 0.8"/>
      </g>
     </g>
     <g id="text_21">
      <text style="font: 10px 'Arial', sans-serif; text-anchor: end" x="238.508841" y="213.023713" transform="rotate(-0 238.508841 213.023713)">−0.5</text>
     </g>
    </g>
    <g id="ytick_9">
     <g id="line2d_18">
      <g>
       <use xlink:href="#mb7fbaa8264" x="245.508841" y="183.936654" style="stroke: #000000; stroke-width: 0.8"/>
      </g>
     </g>
     <g id="text_22">
      <text style="font: 10px 'Arial', sans-serif; text-anchor: end" x="238.508841" y="187.51556" transform="rotate(-0 238.508841 187.51556)">0.0</text>
     </g>
    </g>
    <g id="ytick_10">
     <g id="line2d_19">
      <g>
       <use xlink:href="#mb7fbaa8264" x="245.508841" y="158.428501" style="stroke: #000000; stroke-width: 0.8"/>
      </g>
     </g>
     <g id="text_23">
      <text style="font: 10px 'Arial', sans-serif; text-anchor: end" x="238.508841" y="162.007407" transform="rotate(-0 238.508841 162.007407)">0.5</text>
     </g>
    </g>
    <g id="ytick_11">
     <g id="line2d_20">
      <g>
       <use xlink:href="#mb7fbaa8264" x="245.508841" y="132.920348" style="stroke: #000000; stroke-width: 0.8"/>
      </g>
     </g>
     <g id="text_24">
      <text style="font: 10px 'Arial', sans-serif; text-anchor: end" x="238.508841" y="136.499254" transform="rotate(-0 238.508841 136.499254)">1.0</text>
     </g>
    </g>
    <g id="ytick_12">
     <g id="line2d_21">
      <g>
       <use xlink:href="#mb7fbaa8264" x="245.508841" y="107.412195" style="stroke: #000000; stroke-width: 0.8"/>
      </g>
     </g>
     <g id="text_25">
      <text style="font: 10px 'Arial', sans-serif; text-anchor: end" x="238.508841" y="110.991101" transform="rotate(-0 238.508841 110.991101)">1.5</text>
     </g>
    </g>
    <g id="ytick_13">
     <g id="line2d_22">
      <g>
       <use xlink:href="#mb7fbaa8264" x="245.508841" y="81.904042" style="stroke: #000000; stroke-width: 0.8"/>
      </g>
     </g>
     <g id="text_26">
      <text style="font: 10px 'Arial', sans-serif; text-anchor: end" x="238.508841" y="85.482948" transform="rotate(-0 238.508841 85.482948)">2.0</text>
     </g>
    </g>
    <g id="ytick_14">
     <g id="line2d_23">
      <g>
       <use xlink:href="#mb7fbaa8264" x="245.508841" y="56.395889" style="stroke: #000000; stroke-width: 0.8"/>
      </g>
     </g>
     <g id="text_27">
      <text style="font: 10px 'Arial', sans-serif; text-anchor: end" x="238.508841" y="59.974795" transform="rotate(-0 238.508841 59.974795)">2.5</text>
     </g>
    </g>
    <g id="text_28">
     <text style="font: 10px 'Arial', sans-serif; text-anchor: middle" x="212.663529" y="127.08" transform="rotate(-90 212.663529 127.08)">Mean Activity</text>
    </g>
   </g>
   <g id="line2d_24">
    <path d="M 253.241657 187.126155 
L 258.074667 188.861061 
L 262.907677 188.561456 
L 267.740687 186.537693 
L 272.573697 183.56282 
L 277.406707 187.806385 
L 282.239717 189.492891 
L 287.072727 184.161233 
L 291.905737 172.7257 
L 296.738747 154.156757 
L 301.571757 136.316092 
L 306.404767 129.735277 
L 311.237777 131.839602 
L 316.070787 132.850622 
L 320.903797 129.261787 
L 325.736807 120.801265 
L 330.569817 112.99869 
L 335.402827 109.857023 
L 340.235837 108.980601 
L 345.068847 108.051105 
L 349.901857 108.77725 
L 354.734867 115.71148 
L 359.567877 125.111423 
L 364.400887 144.279554 
L 369.233897 155.665172 
L 374.066907 159.92649 
L 378.899917 168.753598 
L 383.732927 175.098065 
L 388.565937 177.463438 
L 393.398947 178.291648 
L 398.231957 184.694066 
L 403.064967 188.226273 
L 407.897977 188.091105 
" clip-path="url(#pb6466bf276)" style="fill: none; stroke: #00ffff; stroke-width: 1.5; stroke-linecap: square"/>
   </g>
   <g id="line2d_25">
    <path d="M 262.907677 210.24 
L 262.907677 43.92 
" clip-path="url(#pb6466bf276)" style="fill: none; stroke-dasharray: 5.55,2.4; stroke-dashoffset: 0; stroke: #808080; stroke-opacity: 0.7; stroke-width: 1.5"/>
   </g>
   <g id="line2d_26">
    <path d="M 393.398947 210.24 
L 393.398947 43.92 
" clip-path="url(#pb6466bf276)" style="fill: none; stroke-dasharray: 5.55,2.4; stroke-dashoffset: 0; stroke: #808080; stroke-opacity: 0.7; stroke-width: 1.5"/>
   </g>
   <g id="text_29">
    <text style="font: 12px 'Arial', sans-serif; text-anchor: middle" x="330.569817" y="37.92" transform="rotate(-0 330.569817 37.92)">3 Incorrect Trials</text>
   </g>
   <g id="legend_2">
    <g id="patch_19">
     <path d="M 273.307169 207.345 
L 387.832465 207.345 
Q 388.990465 207.345 388.990465 206.187 
L 388.990465 198.575864 
Q 388.990465 197.417864 387.832465 197.417864 
L 273.307169 197.417864 
Q 272.149169 197.417864 272.149169 198.575864 
L 272.149169 206.187 
Q 272.149169 207.345 273.307169 207.345 
z
" style="fill: #ffffff; opacity: 0.8; stroke: #cccccc; stroke-linejoin: miter"/>
    </g>
    <g id="line2d_27">
     <path d="M 274.465169 201.851738 
L 280.255169 201.851738 
L 286.045169 201.851738 
" style="fill: none; stroke: #00ffff; stroke-width: 1.5; stroke-linecap: square"/>
    </g>
    <g id="text_30">
     <text style="font: 5.79px 'Arial', sans-serif; text-anchor: start" x="290.677169" y="203.878238" transform="rotate(-0 290.677169 203.878238)">NonPref - PrevCount=-3 - #Trials=6.0</text>
    </g>
   </g>
  </g>
  <g id="axes_3">
   <g id="patch_20">
    <path d="M 449.655183 210.24 
L 619.777134 210.24 
L 619.777134 43.92 
L 449.655183 43.92 
z
" style="fill: #ffffff"/>
   </g>
   <g id="PolyCollection_2">
    <defs>
     <path id="m5f0f36c468" d="M 457.387999 -129.48202 
L 457.387999 -120.086237 
L 462.221009 -122.946861 
L 467.054019 -122.47189 
L 471.887029 -125.38841 
L 476.720039 -128.349853 
L 481.553049 -132.255841 
L 486.386059 -136.819739 
L 491.219069 -145.623417 
L 496.052079 -152.372762 
L 500.885089 -157.278179 
L 505.718099 -162.489697 
L 510.551109 -169.511973 
L 515.384119 -175.725507 
L 520.217129 -178.006433 
L 525.050139 -174.820009 
L 529.883149 -170.752958 
L 534.716159 -171.232232 
L 539.549169 -177.839949 
L 544.382178 -179.355573 
L 549.215188 -175.715187 
L 554.048198 -168.706323 
L 558.881208 -162.559623 
L 563.714218 -162.797582 
L 568.547228 -163.863701 
L 573.380238 -160.25363 
L 578.213248 -151.406283 
L 583.046258 -145.106822 
L 587.879268 -141.863549 
L 592.712278 -137.249353 
L 597.545288 -130.369033 
L 602.378298 -122.245401 
L 607.211308 -120.384201 
L 612.044318 -126.058749 
L 612.044318 -139.449214 
L 612.044318 -139.449214 
L 607.211308 -133.8046 
L 602.378298 -137.516599 
L 597.545288 -148.148222 
L 592.712278 -156.027835 
L 587.879268 -164.586806 
L 583.046258 -173.231995 
L 578.213248 -186.291421 
L 573.380238 -203.739633 
L 568.547228 -216.07243 
L 563.714218 -218.289131 
L 558.881208 -221.702092 
L 554.048198 -238.270942 
L 549.215188 -252.593377 
L 544.382178 -256.113697 
L 539.549169 -251.719473 
L 534.716159 -243.649446 
L 529.883149 -240.941831 
L 525.050139 -245.108925 
L 520.217129 -255.440717 
L 515.384119 -254.910023 
L 510.551109 -239.007712 
L 505.718099 -218.162116 
L 500.885089 -202.973471 
L 496.052079 -192.50719 
L 491.219069 -177.055508 
L 486.386059 -158.012499 
L 481.553049 -145.438433 
L 476.720039 -138.997995 
L 471.887029 -136.35732 
L 467.054019 -137.378654 
L 462.221009 -136.114344 
L 457.387999 -129.48202 
z
" style="stroke: #00ffff; stroke-opacity: 0.1"/>
    </defs>
    <g clip-path="url(#p8bf1e13ead)">
     <use xlink:href="#m5f0f36c468" x="0" y="323.436915" style="fill: #00ffff; fill-opacity: 0.1; stroke: #00ffff; stroke-opacity: 0.1"/>
    </g>
   </g>
   <g id="matplotlib.axis_5">
    <g id="xtick_9">
     <g id="line2d_28">
      <g>
       <use xlink:href="#m4e544d91fd" x="467.054019" y="210.24" style="stroke: #000000; stroke-width: 0.8"/>
      </g>
     </g>
     <g id="text_31">
      <text style="font: 10px 'Arial', sans-serif" transform="translate(436.088266 251.86503) rotate(-45)">Sampling</text>
     </g>
    </g>
    <g id="xtick_10">
     <g id="line2d_29">
      <g>
       <use xlink:href="#m4e544d91fd" x="597.545288" y="210.24" style="stroke: #000000; stroke-width: 0.8"/>
      </g>
     </g>
     <g id="text_32">
      <text style="font: 10px 'Arial', sans-serif" transform="translate(516.755024 301.686227) rotate(-45)">Movement to Lateral Port</text>
     </g>
    </g>
    <g id="text_33">
     <text style="font: 10px 'Arial', sans-serif; text-anchor: middle" x="534.716159" y="314.249415" transform="rotate(-0 534.716159 314.249415)">Normalized Time</text>
    </g>
   </g>
   <g id="matplotlib.axis_6">
    <g id="ytick_15">
     <g id="line2d_30">
      <g>
       <use xlink:href="#mb7fbaa8264" x="449.655183" y="209.444807" style="stroke: #000000; stroke-width: 0.8"/>
      </g>
     </g>
     <g id="text_34">
      <text style="font: 10px 'Arial', sans-serif; text-anchor: end" x="442.655183" y="213.023713" transform="rotate(-0 442.655183 213.023713)">−0.5</text>
     </g>
    </g>
    <g id="ytick_16">
     <g id="line2d_31">
      <g>
       <use xlink:href="#mb7fbaa8264" x="449.655183" y="183.936654" style="stroke: #000000; stroke-width: 0.8"/>
      </g>
     </g>
     <g id="text_35">
      <text style="font: 10px 'Arial', sans-serif; text-anchor: end" x="442.655183" y="187.51556" transform="rotate(-0 442.655183 187.51556)">0.0</text>
     </g>
    </g>
    <g id="ytick_17">
     <g id="line2d_32">
      <g>
       <use xlink:href="#mb7fbaa8264" x="449.655183" y="158.428501" style="stroke: #000000; stroke-width: 0.8"/>
      </g>
     </g>
     <g id="text_36">
      <text style="font: 10px 'Arial', sans-serif; text-anchor: end" x="442.655183" y="162.007407" transform="rotate(-0 442.655183 162.007407)">0.5</text>
     </g>
    </g>
    <g id="ytick_18">
     <g id="line2d_33">
      <g>
       <use xlink:href="#mb7fbaa8264" x="449.655183" y="132.920348" style="stroke: #000000; stroke-width: 0.8"/>
      </g>
     </g>
     <g id="text_37">
      <text style="font: 10px 'Arial', sans-serif; text-anchor: end" x="442.655183" y="136.499254" transform="rotate(-0 442.655183 136.499254)">1.0</text>
     </g>
    </g>
    <g id="ytick_19">
     <g id="line2d_34">
      <g>
       <use xlink:href="#mb7fbaa8264" x="449.655183" y="107.412195" style="stroke: #000000; stroke-width: 0.8"/>
      </g>
     </g>
     <g id="text_38">
      <text style="font: 10px 'Arial', sans-serif; text-anchor: end" x="442.655183" y="110.991101" transform="rotate(-0 442.655183 110.991101)">1.5</text>
     </g>
    </g>
    <g id="ytick_20">
     <g id="line2d_35">
      <g>
       <use xlink:href="#mb7fbaa8264" x="449.655183" y="81.904042" style="stroke: #000000; stroke-width: 0.8"/>
      </g>
     </g>
     <g id="text_39">
      <text style="font: 10px 'Arial', sans-serif; text-anchor: end" x="442.655183" y="85.482948" transform="rotate(-0 442.655183 85.482948)">2.0</text>
     </g>
    </g>
    <g id="ytick_21">
     <g id="line2d_36">
      <g>
       <use xlink:href="#mb7fbaa8264" x="449.655183" y="56.395889" style="stroke: #000000; stroke-width: 0.8"/>
      </g>
     </g>
     <g id="text_40">
      <text style="font: 10px 'Arial', sans-serif; text-anchor: end" x="442.655183" y="59.974795" transform="rotate(-0 442.655183 59.974795)">2.5</text>
     </g>
    </g>
    <g id="text_41">
     <text style="font: 10px 'Arial', sans-serif; text-anchor: middle" x="416.80987" y="127.08" transform="rotate(-90 416.80987 127.08)">Mean Activity</text>
    </g>
   </g>
   <g id="line2d_37">
    <path d="M 457.387999 198.652786 
L 462.221009 193.906313 
L 467.054019 193.511642 
L 471.887029 192.56405 
L 476.720039 189.762991 
L 481.553049 184.589778 
L 486.386059 176.020795 
L 491.219069 162.097453 
L 496.052079 150.996937 
L 500.885089 143.311089 
L 505.718099 133.111007 
L 510.551109 119.177072 
L 515.384119 108.119146 
L 520.217129 106.713338 
L 525.050139 113.472448 
L 529.883149 117.58952 
L 534.716159 115.996076 
L 539.549169 108.657205 
L 544.382178 105.702281 
L 549.215188 109.282633 
L 554.048198 119.948282 
L 558.881208 131.306055 
L 563.714218 132.893558 
L 568.547228 133.468849 
L 573.380238 141.440284 
L 578.213248 154.588063 
L 583.046258 164.267506 
L 587.879268 170.211737 
L 592.712278 176.798321 
L 597.545288 184.178287 
L 602.378298 193.555915 
L 607.211308 196.342514 
L 612.044318 190.682933 
" clip-path="url(#p8bf1e13ead)" style="fill: none; stroke: #00ffff; stroke-width: 1.5; stroke-linecap: square"/>
   </g>
   <g id="line2d_38">
    <path d="M 467.054019 210.24 
L 467.054019 43.92 
" clip-path="url(#p8bf1e13ead)" style="fill: none; stroke-dasharray: 5.55,2.4; stroke-dashoffset: 0; stroke: #808080; stroke-opacity: 0.7; stroke-width: 1.5"/>
   </g>
   <g id="line2d_39">
    <path d="M 597.545288 210.24 
L 597.545288 43.92 
" clip-path="url(#p8bf1e13ead)" style="fill: none; stroke-dasharray: 5.55,2.4; stroke-dashoffset: 0; stroke: #808080; stroke-opacity: 0.7; stroke-width: 1.5"/>
   </g>
   <g id="text_42">
    <text style="font: 12px 'Arial', sans-serif; text-anchor: middle" x="534.716159" y="37.92" transform="rotate(-0 534.716159 37.92)">2 Incorrect Trials</text>
   </g>
   <g id="legend_3">
    <g id="patch_21">
     <path d="M 476.057126 207.345 
L 593.375191 207.345 
Q 594.533191 207.345 594.533191 206.187 
L 594.533191 198.575864 
Q 594.533191 197.417864 593.375191 197.417864 
L 476.057126 197.417864 
Q 474.899126 197.417864 474.899126 198.575864 
L 474.899126 206.187 
Q 474.899126 207.345 476.057126 207.345 
z
" style="fill: #ffffff; opacity: 0.8; stroke: #cccccc; stroke-linejoin: miter"/>
    </g>
    <g id="line2d_40">
     <path d="M 477.215126 201.851738 
L 483.005126 201.851738 
L 488.795126 201.851738 
" style="fill: none; stroke: #00ffff; stroke-width: 1.5; stroke-linecap: square"/>
    </g>
    <g id="text_43">
     <text style="font: 5.79px 'Arial', sans-serif; text-anchor: start" x="493.427126" y="203.878238" transform="rotate(-0 493.427126 203.878238)">NonPref - PrevCount=-2 - #Trials=11.0</text>
    </g>
   </g>
  </g>
  <g id="axes_4">
   <g id="patch_22">
    <path d="M 653.801524 210.24 
L 823.923476 210.24 
L 823.923476 43.92 
L 653.801524 43.92 
z
" style="fill: #ffffff"/>
   </g>
   <g id="PolyCollection_3">
    <defs>
     <path id="mf6189e0df7" d="M 661.53434 -127.501263 
L 661.53434 -120.762237 
L 666.36735 -119.401859 
L 671.20036 -118.332887 
L 676.03337 -120.734557 
L 680.86638 -122.608093 
L 685.69939 -125.194393 
L 690.5324 -128.08153 
L 695.36541 -131.656031 
L 700.19842 -134.472993 
L 705.03143 -140.969145 
L 709.86444 -147.823308 
L 714.69745 -153.905873 
L 719.53046 -160.496358 
L 724.36347 -165.180733 
L 729.19648 -168.048651 
L 734.02949 -170.282447 
L 738.8625 -171.50592 
L 743.69551 -170.650677 
L 748.52852 -169.233943 
L 753.36153 -170.656801 
L 758.19454 -175.725714 
L 763.02755 -179.551447 
L 767.86056 -179.362065 
L 772.69357 -173.858493 
L 777.52658 -168.473361 
L 782.35959 -164.584742 
L 787.1926 -160.629267 
L 792.02561 -156.517165 
L 796.85862 -150.642057 
L 801.69163 -143.675686 
L 806.52464 -133.614803 
L 811.35765 -128.246851 
L 816.19066 -128.354454 
L 816.19066 -137.852135 
L 816.19066 -137.852135 
L 811.35765 -137.255539 
L 806.52464 -144.624673 
L 801.69163 -160.406566 
L 796.85862 -172.272815 
L 792.02561 -181.138454 
L 787.1926 -184.635144 
L 782.35959 -186.489934 
L 777.52658 -190.840255 
L 772.69357 -199.134784 
L 767.86056 -206.335535 
L 763.02755 -205.405279 
L 758.19454 -200.177897 
L 753.36153 -194.826262 
L 748.52852 -194.575128 
L 743.69551 -197.494572 
L 738.8625 -197.773858 
L 734.02949 -195.498652 
L 729.19648 -193.808127 
L 724.36347 -192.512201 
L 719.53046 -188.015641 
L 714.69745 -177.68675 
L 709.86444 -166.804036 
L 705.03143 -156.074659 
L 700.19842 -146.523984 
L 695.36541 -141.857611 
L 690.5324 -138.146235 
L 685.69939 -134.976446 
L 680.86638 -131.886348 
L 676.03337 -130.097207 
L 671.20036 -126.998766 
L 666.36735 -126.539993 
L 661.53434 -127.501263 
z
" style="stroke: #00ffff; stroke-opacity: 0.1"/>
    </defs>
    <g clip-path="url(#p0ac269e3a6)">
     <use xlink:href="#mf6189e0df7" x="0" y="323.436915" style="fill: #00ffff; fill-opacity: 0.1; stroke: #00ffff; stroke-opacity: 0.1"/>
    </g>
   </g>
   <g id="matplotlib.axis_7">
    <g id="xtick_11">
     <g id="line2d_41">
      <g>
       <use xlink:href="#m4e544d91fd" x="671.20036" y="210.24" style="stroke: #000000; stroke-width: 0.8"/>
      </g>
     </g>
     <g id="text_44">
      <text style="font: 10px 'Arial', sans-serif" transform="translate(640.234608 251.86503) rotate(-45)">Sampling</text>
     </g>
    </g>
    <g id="xtick_12">
     <g id="line2d_42">
      <g>
       <use xlink:href="#m4e544d91fd" x="801.69163" y="210.24" style="stroke: #000000; stroke-width: 0.8"/>
      </g>
     </g>
     <g id="text_45">
      <text style="font: 10px 'Arial', sans-serif" transform="translate(720.901365 301.686227) rotate(-45)">Movement to Lateral Port</text>
     </g>
    </g>
    <g id="text_46">
     <text style="font: 10px 'Arial', sans-serif; text-anchor: middle" x="738.8625" y="314.249415" transform="rotate(-0 738.8625 314.249415)">Normalized Time</text>
    </g>
   </g>
   <g id="matplotlib.axis_8">
    <g id="ytick_22">
     <g id="line2d_43">
      <g>
       <use xlink:href="#mb7fbaa8264" x="653.801524" y="209.444807" style="stroke: #000000; stroke-width: 0.8"/>
      </g>
     </g>
     <g id="text_47">
      <text style="font: 10px 'Arial', sans-serif; text-anchor: end" x="646.801524" y="213.023713" transform="rotate(-0 646.801524 213.023713)">−0.5</text>
     </g>
    </g>
    <g id="ytick_23">
     <g id="line2d_44">
      <g>
       <use xlink:href="#mb7fbaa8264" x="653.801524" y="183.936654" style="stroke: #000000; stroke-width: 0.8"/>
      </g>
     </g>
     <g id="text_48">
      <text style="font: 10px 'Arial', sans-serif; text-anchor: end" x="646.801524" y="187.51556" transform="rotate(-0 646.801524 187.51556)">0.0</text>
     </g>
    </g>
    <g id="ytick_24">
     <g id="line2d_45">
      <g>
       <use xlink:href="#mb7fbaa8264" x="653.801524" y="158.428501" style="stroke: #000000; stroke-width: 0.8"/>
      </g>
     </g>
     <g id="text_49">
      <text style="font: 10px 'Arial', sans-serif; text-anchor: end" x="646.801524" y="162.007407" transform="rotate(-0 646.801524 162.007407)">0.5</text>
     </g>
    </g>
    <g id="ytick_25">
     <g id="line2d_46">
      <g>
       <use xlink:href="#mb7fbaa8264" x="653.801524" y="132.920348" style="stroke: #000000; stroke-width: 0.8"/>
      </g>
     </g>
     <g id="text_50">
      <text style="font: 10px 'Arial', sans-serif; text-anchor: end" x="646.801524" y="136.499254" transform="rotate(-0 646.801524 136.499254)">1.0</text>
     </g>
    </g>
    <g id="ytick_26">
     <g id="line2d_47">
      <g>
       <use xlink:href="#mb7fbaa8264" x="653.801524" y="107.412195" style="stroke: #000000; stroke-width: 0.8"/>
      </g>
     </g>
     <g id="text_51">
      <text style="font: 10px 'Arial', sans-serif; text-anchor: end" x="646.801524" y="110.991101" transform="rotate(-0 646.801524 110.991101)">1.5</text>
     </g>
    </g>
    <g id="ytick_27">
     <g id="line2d_48">
      <g>
       <use xlink:href="#mb7fbaa8264" x="653.801524" y="81.904042" style="stroke: #000000; stroke-width: 0.8"/>
      </g>
     </g>
     <g id="text_52">
      <text style="font: 10px 'Arial', sans-serif; text-anchor: end" x="646.801524" y="85.482948" transform="rotate(-0 646.801524 85.482948)">2.0</text>
     </g>
    </g>
    <g id="ytick_28">
     <g id="line2d_49">
      <g>
       <use xlink:href="#mb7fbaa8264" x="653.801524" y="56.395889" style="stroke: #000000; stroke-width: 0.8"/>
      </g>
     </g>
     <g id="text_53">
      <text style="font: 10px 'Arial', sans-serif; text-anchor: end" x="646.801524" y="59.974795" transform="rotate(-0 646.801524 59.974795)">2.5</text>
     </g>
    </g>
    <g id="text_54">
     <text style="font: 10px 'Arial', sans-serif; text-anchor: middle" x="620.956212" y="127.08" transform="rotate(-90 620.956212 127.08)">Mean Activity</text>
    </g>
   </g>
   <g id="line2d_50">
    <path d="M 661.53434 199.305165 
L 666.36735 200.465989 
L 671.20036 200.771088 
L 676.03337 198.021033 
L 680.86638 196.189694 
L 685.69939 193.351496 
L 690.5324 190.323033 
L 695.36541 186.680093 
L 700.19842 182.938426 
L 705.03143 174.915013 
L 709.86444 166.123243 
L 714.69745 157.640603 
L 719.53046 149.180915 
L 724.36347 144.590446 
L 729.19648 142.508526 
L 734.02949 140.546365 
L 738.8625 138.797027 
L 743.69551 139.36429 
L 748.52852 141.532381 
L 753.36153 140.695383 
L 758.19454 135.485109 
L 763.02755 130.958552 
L 767.86056 130.588114 
L 772.69357 136.940276 
L 777.52658 143.780107 
L 782.35959 147.899576 
L 787.1926 150.80471 
L 792.02561 154.609105 
L 796.85862 161.979478 
L 801.69163 171.395788 
L 806.52464 184.317176 
L 811.35765 190.685719 
L 816.19066 190.33362 
" clip-path="url(#p0ac269e3a6)" style="fill: none; stroke: #00ffff; stroke-width: 1.5; stroke-linecap: square"/>
   </g>
   <g id="line2d_51">
    <path d="M 671.20036 210.24 
L 671.20036 43.92 
" clip-path="url(#p0ac269e3a6)" style="fill: none; stroke-dasharray: 5.55,2.4; stroke-dashoffset: 0; stroke: #808080; stroke-opacity: 0.7; stroke-width: 1.5"/>
   </g>
   <g id="line2d_52">
    <path d="M 801.69163 210.24 
L 801.69163 43.92 
" clip-path="url(#p0ac269e3a6)" style="fill: none; stroke-dasharray: 5.55,2.4; stroke-dashoffset: 0; stroke: #808080; stroke-opacity: 0.7; stroke-width: 1.5"/>
   </g>
   <g id="text_55">
    <text style="font: 12px 'Arial', sans-serif; text-anchor: middle" x="738.8625" y="37.92" transform="rotate(-0 738.8625 37.92)">1 Incorrect Trials</text>
   </g>
   <g id="legend_4">
    <g id="patch_23">
     <path d="M 679.989961 207.345 
L 797.735039 207.345 
Q 798.893039 207.345 798.893039 206.187 
L 798.893039 198.575864 
Q 798.893039 197.417864 797.735039 197.417864 
L 679.989961 197.417864 
Q 678.831961 197.417864 678.831961 198.575864 
L 678.831961 206.187 
Q 678.831961 207.345 679.989961 207.345 
z
" style="fill: #ffffff; opacity: 0.8; stroke: #cccccc; stroke-linejoin: miter"/>
    </g>
    <g id="line2d_53">
     <path d="M 681.147961 201.851738 
L 686.937961 201.851738 
L 692.727961 201.851738 
" style="fill: none; stroke: #00ffff; stroke-width: 1.5; stroke-linecap: square"/>
    </g>
    <g id="text_56">
     <text style="font: 5.79px 'Arial', sans-serif; text-anchor: start" x="697.359961" y="203.878238" transform="rotate(-0 697.359961 203.878238)">NonPref - PrevCount=-1 - #Trials=51.0</text>
    </g>
   </g>
  </g>
  <g id="axes_5">
   <g id="patch_24">
    <path d="M 857.947866 210.24 
L 1028.069817 210.24 
L 1028.069817 43.92 
L 857.947866 43.92 
z
" style="fill: #ffffff"/>
   </g>
   <g id="PolyCollection_4">
    <defs>
     <path id="m2dba08702c" d="M 865.680682 -121.17479 
L 865.680682 -116.846332 
L 870.513692 -115.848029 
L 875.346702 -115.588128 
L 880.179712 -118.51024 
L 885.012722 -120.998166 
L 889.845732 -124.213388 
L 894.678742 -130.107298 
L 899.511752 -139.107608 
L 904.344762 -147.65256 
L 909.177772 -156.478881 
L 914.010782 -166.894579 
L 918.843792 -176.832532 
L 923.676802 -184.195905 
L 928.509812 -189.821453 
L 933.342822 -193.225143 
L 938.175831 -193.639988 
L 943.008841 -191.708369 
L 947.841851 -187.059608 
L 952.674861 -182.877386 
L 957.507871 -181.832145 
L 962.340881 -183.661595 
L 967.173891 -185.336859 
L 972.006901 -185.647761 
L 976.839911 -182.422755 
L 981.672921 -177.193789 
L 986.505931 -170.521929 
L 991.338941 -164.264066 
L 996.171951 -157.219342 
L 1001.004961 -149.873899 
L 1005.837971 -143.611375 
L 1010.670981 -135.166734 
L 1015.503991 -131.747076 
L 1020.337001 -132.36268 
L 1020.337001 -139.989941 
L 1020.337001 -139.989941 
L 1015.503991 -139.195633 
L 1010.670981 -142.954763 
L 1005.837971 -153.940346 
L 1001.004961 -162.235049 
L 996.171951 -172.892431 
L 991.338941 -183.222956 
L 986.505931 -191.694509 
L 981.672921 -200.654964 
L 976.839911 -207.701594 
L 972.006901 -210.201504 
L 967.173891 -207.447602 
L 962.340881 -204.138162 
L 957.507871 -202.103368 
L 952.674861 -204.204768 
L 947.841851 -209.594078 
L 943.008841 -214.972612 
L 938.175831 -216.833015 
L 933.342822 -217.17673 
L 928.509812 -213.961105 
L 923.676802 -207.745875 
L 918.843792 -198.630168 
L 914.010782 -185.842254 
L 909.177772 -172.228568 
L 904.344762 -160.431923 
L 899.511752 -148.599043 
L 894.678742 -137.112143 
L 889.845732 -130.56594 
L 885.012722 -127.040113 
L 880.179712 -124.22163 
L 875.346702 -120.02222 
L 870.513692 -119.753333 
L 865.680682 -121.17479 
z
" style="stroke: #ff00ff; stroke-opacity: 0.1"/>
    </defs>
    <g clip-path="url(#pc49d249fe0)">
     <use xlink:href="#m2dba08702c" x="0" y="323.436915" style="fill: #ff00ff; fill-opacity: 0.1; stroke: #ff00ff; stroke-opacity: 0.1"/>
    </g>
   </g>
   <g id="matplotlib.axis_9">
    <g id="xtick_13">
     <g id="line2d_54">
      <g>
       <use xlink:href="#m4e544d91fd" x="875.346702" y="210.24" style="stroke: #000000; stroke-width: 0.8"/>
      </g>
     </g>
     <g id="text_57">
      <text style="font: 10px 'Arial', sans-serif" transform="translate(844.380949 251.86503) rotate(-45)">Sampling</text>
     </g>
    </g>
    <g id="xtick_14">
     <g id="line2d_55">
      <g>
       <use xlink:href="#m4e544d91fd" x="1005.837971" y="210.24" style="stroke: #000000; stroke-width: 0.8"/>
      </g>
     </g>
     <g id="text_58">
      <text style="font: 10px 'Arial', sans-serif" transform="translate(925.047707 301.686227) rotate(-45)">Movement to Lateral Port</text>
     </g>
    </g>
    <g id="text_59">
     <text style="font: 10px 'Arial', sans-serif; text-anchor: middle" x="943.008841" y="314.249415" transform="rotate(-0 943.008841 314.249415)">Normalized Time</text>
    </g>
   </g>
   <g id="matplotlib.axis_10">
    <g id="ytick_29">
     <g id="line2d_56">
      <g>
       <use xlink:href="#mb7fbaa8264" x="857.947866" y="209.444807" style="stroke: #000000; stroke-width: 0.8"/>
      </g>
     </g>
     <g id="text_60">
      <text style="font: 10px 'Arial', sans-serif; text-anchor: end" x="850.947866" y="213.023713" transform="rotate(-0 850.947866 213.023713)">−0.5</text>
     </g>
    </g>
    <g id="ytick_30">
     <g id="line2d_57">
      <g>
       <use xlink:href="#mb7fbaa8264" x="857.947866" y="183.936654" style="stroke: #000000; stroke-width: 0.8"/>
      </g>
     </g>
     <g id="text_61">
      <text style="font: 10px 'Arial', sans-serif; text-anchor: end" x="850.947866" y="187.51556" transform="rotate(-0 850.947866 187.51556)">0.0</text>
     </g>
    </g>
    <g id="ytick_31">
     <g id="line2d_58">
      <g>
       <use xlink:href="#mb7fbaa8264" x="857.947866" y="158.428501" style="stroke: #000000; stroke-width: 0.8"/>
      </g>
     </g>
     <g id="text_62">
      <text style="font: 10px 'Arial', sans-serif; text-anchor: end" x="850.947866" y="162.007407" transform="rotate(-0 850.947866 162.007407)">0.5</text>
     </g>
    </g>
    <g id="ytick_32">
     <g id="line2d_59">
      <g>
       <use xlink:href="#mb7fbaa8264" x="857.947866" y="132.920348" style="stroke: #000000; stroke-width: 0.8"/>
      </g>
     </g>
     <g id="text_63">
      <text style="font: 10px 'Arial', sans-serif; text-anchor: end" x="850.947866" y="136.499254" transform="rotate(-0 850.947866 136.499254)">1.0</text>
     </g>
    </g>
    <g id="ytick_33">
     <g id="line2d_60">
      <g>
       <use xlink:href="#mb7fbaa8264" x="857.947866" y="107.412195" style="stroke: #000000; stroke-width: 0.8"/>
      </g>
     </g>
     <g id="text_64">
      <text style="font: 10px 'Arial', sans-serif; text-anchor: end" x="850.947866" y="110.991101" transform="rotate(-0 850.947866 110.991101)">1.5</text>
     </g>
    </g>
    <g id="ytick_34">
     <g id="line2d_61">
      <g>
       <use xlink:href="#mb7fbaa8264" x="857.947866" y="81.904042" style="stroke: #000000; stroke-width: 0.8"/>
      </g>
     </g>
     <g id="text_65">
      <text style="font: 10px 'Arial', sans-serif; text-anchor: end" x="850.947866" y="85.482948" transform="rotate(-0 850.947866 85.482948)">2.0</text>
     </g>
    </g>
    <g id="ytick_35">
     <g id="line2d_62">
      <g>
       <use xlink:href="#mb7fbaa8264" x="857.947866" y="56.395889" style="stroke: #000000; stroke-width: 0.8"/>
      </g>
     </g>
     <g id="text_66">
      <text style="font: 10px 'Arial', sans-serif; text-anchor: end" x="850.947866" y="59.974795" transform="rotate(-0 850.947866 59.974795)">2.5</text>
     </g>
    </g>
    <g id="text_67">
     <text style="font: 10px 'Arial', sans-serif; text-anchor: middle" x="825.102553" y="127.08" transform="rotate(-90 825.102553 127.08)">Mean Activity</text>
    </g>
   </g>
   <g id="line2d_63">
    <path d="M 865.680682 204.426353 
L 870.513692 205.636233 
L 875.346702 205.631741 
L 880.179712 202.070979 
L 885.012722 199.417775 
L 889.845732 196.04725 
L 894.678742 189.827194 
L 899.511752 179.583589 
L 904.344762 169.394673 
L 909.177772 159.08319 
L 914.010782 147.068498 
L 918.843792 135.705564 
L 923.676802 127.466025 
L 928.509812 121.545637 
L 933.342822 118.235978 
L 938.175831 118.200413 
L 943.008841 120.096424 
L 947.841851 125.110073 
L 952.674861 129.895838 
L 957.507871 131.469158 
L 962.340881 129.537034 
L 967.173891 127.044684 
L 972.006901 125.512281 
L 976.839911 128.37474 
L 981.672921 134.51254 
L 986.505931 142.328695 
L 991.338941 149.693404 
L 996.171951 158.381028 
L 1001.004961 167.382441 
L 1005.837971 174.661054 
L 1010.670981 184.376166 
L 1015.503991 187.96556 
L 1020.337001 187.260604 
" clip-path="url(#pc49d249fe0)" style="fill: none; stroke: #ff00ff; stroke-width: 1.5; stroke-linecap: square"/>
   </g>
   <g id="line2d_64">
    <path d="M 875.346702 210.24 
L 875.346702 43.92 
" clip-path="url(#pc49d249fe0)" style="fill: none; stroke-dasharray: 5.55,2.4; stroke-dashoffset: 0; stroke: #808080; stroke-opacity: 0.7; stroke-width: 1.5"/>
   </g>
   <g id="line2d_65">
    <path d="M 1005.837971 210.24 
L 1005.837971 43.92 
" clip-path="url(#pc49d249fe0)" style="fill: none; stroke-dasharray: 5.55,2.4; stroke-dashoffset: 0; stroke: #808080; stroke-opacity: 0.7; stroke-width: 1.5"/>
   </g>
   <g id="text_68">
    <text style="font: 12px 'Arial', sans-serif; text-anchor: middle" x="943.008841" y="37.92" transform="rotate(-0 943.008841 37.92)">1 Correct Trials</text>
   </g>
   <g id="legend_5">
    <g id="patch_25">
     <path d="M 890.410763 207.345 
L 995.60692 207.345 
Q 996.76492 207.345 996.76492 206.187 
L 996.76492 198.575864 
Q 996.76492 197.417864 995.60692 197.417864 
L 890.410763 197.417864 
Q 889.252763 197.417864 889.252763 198.575864 
L 889.252763 206.187 
Q 889.252763 207.345 890.410763 207.345 
z
" style="fill: #ffffff; opacity: 0.8; stroke: #cccccc; stroke-linejoin: miter"/>
    </g>
    <g id="line2d_66">
     <path d="M 891.568763 201.851738 
L 897.358763 201.851738 
L 903.148763 201.851738 
" style="fill: none; stroke: #ff00ff; stroke-width: 1.5; stroke-linecap: square"/>
    </g>
    <g id="text_69">
     <text style="font: 5.79px 'Arial', sans-serif; text-anchor: start" x="907.780763" y="203.878238" transform="rotate(-0 907.780763 203.878238)">Pref - PrevCount=1 - #Trials=53.0</text>
    </g>
   </g>
  </g>
  <g id="axes_6">
   <g id="patch_26">
    <path d="M 1062.094207 210.24 
L 1232.216159 210.24 
L 1232.216159 43.92 
L 1062.094207 43.92 
z
" style="fill: #ffffff"/>
   </g>
   <g id="PolyCollection_5">
    <defs>
     <path id="mf44ff143f5" d="M 1069.827023 -123.25416 
L 1069.827023 -118.130252 
L 1074.660033 -118.007093 
L 1079.493043 -115.696359 
L 1084.326053 -118.24077 
L 1089.159063 -120.792384 
L 1093.992073 -123.572042 
L 1098.825083 -128.590324 
L 1103.658093 -136.249262 
L 1108.491103 -145.310206 
L 1113.324113 -154.068263 
L 1118.157123 -163.857732 
L 1122.990133 -172.422854 
L 1127.823143 -178.628786 
L 1132.656153 -184.337306 
L 1137.489163 -190.584948 
L 1142.322173 -196.001505 
L 1147.155183 -197.975014 
L 1151.988193 -194.981709 
L 1156.821203 -192.633766 
L 1161.654213 -193.973431 
L 1166.487223 -194.911509 
L 1171.320233 -192.076502 
L 1176.153243 -186.81437 
L 1180.986253 -182.940601 
L 1185.819263 -179.503335 
L 1190.652273 -177.190988 
L 1195.485283 -172.554932 
L 1200.318293 -166.79599 
L 1205.151303 -160.809473 
L 1209.984313 -155.836158 
L 1214.817323 -146.195918 
L 1219.650333 -139.36403 
L 1224.483343 -135.809221 
L 1224.483343 -145.179501 
L 1224.483343 -145.179501 
L 1219.650333 -149.022864 
L 1214.817323 -157.225465 
L 1209.984313 -170.140904 
L 1205.151303 -177.543014 
L 1200.318293 -186.707029 
L 1195.485283 -195.371498 
L 1190.652273 -202.320999 
L 1185.819263 -206.710838 
L 1180.986253 -212.824439 
L 1176.153243 -219.395748 
L 1171.320233 -228.145092 
L 1166.487223 -233.228692 
L 1161.654213 -230.144338 
L 1156.821203 -225.7152 
L 1151.988193 -227.887493 
L 1147.155183 -232.52579 
L 1142.322173 -228.247786 
L 1137.489163 -219.347995 
L 1132.656153 -210.589323 
L 1127.823143 -203.851565 
L 1122.990133 -197.053278 
L 1118.157123 -187.990685 
L 1113.324113 -177.508826 
L 1108.491103 -166.39041 
L 1103.658093 -154.41393 
L 1098.825083 -143.40631 
L 1093.992073 -135.778838 
L 1089.159063 -130.886057 
L 1084.326053 -126.660414 
L 1079.493043 -121.364889 
L 1074.660033 -123.108104 
L 1069.827023 -123.25416 
z
" style="stroke: #ff00ff; stroke-opacity: 0.1"/>
    </defs>
    <g clip-path="url(#p793bf4ebdb)">
     <use xlink:href="#mf44ff143f5" x="0" y="323.436915" style="fill: #ff00ff; fill-opacity: 0.1; stroke: #ff00ff; stroke-opacity: 0.1"/>
    </g>
   </g>
   <g id="matplotlib.axis_11">
    <g id="xtick_15">
     <g id="line2d_67">
      <g>
       <use xlink:href="#m4e544d91fd" x="1079.493043" y="210.24" style="stroke: #000000; stroke-width: 0.8"/>
      </g>
     </g>
     <g id="text_70">
      <text style="font: 10px 'Arial', sans-serif" transform="translate(1048.52729 251.86503) rotate(-45)">Sampling</text>
     </g>
    </g>
    <g id="xtick_16">
     <g id="line2d_68">
      <g>
       <use xlink:href="#m4e544d91fd" x="1209.984313" y="210.24" style="stroke: #000000; stroke-width: 0.8"/>
      </g>
     </g>
     <g id="text_71">
      <text style="font: 10px 'Arial', sans-serif" transform="translate(1129.194048 301.686227) rotate(-45)">Movement to Lateral Port</text>
     </g>
    </g>
    <g id="text_72">
     <text style="font: 10px 'Arial', sans-serif; text-anchor: middle" x="1147.155183" y="314.249415" transform="rotate(-0 1147.155183 314.249415)">Normalized Time</text>
    </g>
   </g>
   <g id="matplotlib.axis_12">
    <g id="ytick_36">
     <g id="line2d_69">
      <g>
       <use xlink:href="#mb7fbaa8264" x="1062.094207" y="209.444807" style="stroke: #000000; stroke-width: 0.8"/>
      </g>
     </g>
     <g id="text_73">
      <text style="font: 10px 'Arial', sans-serif; text-anchor: end" x="1055.094207" y="213.023713" transform="rotate(-0 1055.094207 213.023713)">−0.5</text>
     </g>
    </g>
    <g id="ytick_37">
     <g id="line2d_70">
      <g>
       <use xlink:href="#mb7fbaa8264" x="1062.094207" y="183.936654" style="stroke: #000000; stroke-width: 0.8"/>
      </g>
     </g>
     <g id="text_74">
      <text style="font: 10px 'Arial', sans-serif; text-anchor: end" x="1055.094207" y="187.51556" transform="rotate(-0 1055.094207 187.51556)">0.0</text>
     </g>
    </g>
    <g id="ytick_38">
     <g id="line2d_71">
      <g>
       <use xlink:href="#mb7fbaa8264" x="1062.094207" y="158.428501" style="stroke: #000000; stroke-width: 0.8"/>
      </g>
     </g>
     <g id="text_75">
      <text style="font: 10px 'Arial', sans-serif; text-anchor: end" x="1055.094207" y="162.007407" transform="rotate(-0 1055.094207 162.007407)">0.5</text>
     </g>
    </g>
    <g id="ytick_39">
     <g id="line2d_72">
      <g>
       <use xlink:href="#mb7fbaa8264" x="1062.094207" y="132.920348" style="stroke: #000000; stroke-width: 0.8"/>
      </g>
     </g>
     <g id="text_76">
      <text style="font: 10px 'Arial', sans-serif; text-anchor: end" x="1055.094207" y="136.499254" transform="rotate(-0 1055.094207 136.499254)">1.0</text>
     </g>
    </g>
    <g id="ytick_40">
     <g id="line2d_73">
      <g>
       <use xlink:href="#mb7fbaa8264" x="1062.094207" y="107.412195" style="stroke: #000000; stroke-width: 0.8"/>
      </g>
     </g>
     <g id="text_77">
      <text style="font: 10px 'Arial', sans-serif; text-anchor: end" x="1055.094207" y="110.991101" transform="rotate(-0 1055.094207 110.991101)">1.5</text>
     </g>
    </g>
    <g id="ytick_41">
     <g id="line2d_74">
      <g>
       <use xlink:href="#mb7fbaa8264" x="1062.094207" y="81.904042" style="stroke: #000000; stroke-width: 0.8"/>
      </g>
     </g>
     <g id="text_78">
      <text style="font: 10px 'Arial', sans-serif; text-anchor: end" x="1055.094207" y="85.482948" transform="rotate(-0 1055.094207 85.482948)">2.0</text>
     </g>
    </g>
    <g id="ytick_42">
     <g id="line2d_75">
      <g>
       <use xlink:href="#mb7fbaa8264" x="1062.094207" y="56.395889" style="stroke: #000000; stroke-width: 0.8"/>
      </g>
     </g>
     <g id="text_79">
      <text style="font: 10px 'Arial', sans-serif; text-anchor: end" x="1055.094207" y="59.974795" transform="rotate(-0 1055.094207 59.974795)">2.5</text>
     </g>
    </g>
    <g id="text_80">
     <text style="font: 10px 'Arial', sans-serif; text-anchor: middle" x="1029.248895" y="127.08" transform="rotate(-90 1029.248895 127.08)">Mean Activity</text>
    </g>
   </g>
   <g id="line2d_76">
    <path d="M 1069.827023 202.744709 
L 1074.660033 202.879316 
L 1079.493043 204.90629 
L 1084.326053 200.986323 
L 1089.159063 197.597694 
L 1093.992073 193.761474 
L 1098.825083 187.438598 
L 1103.658093 178.105319 
L 1108.491103 167.586607 
L 1113.324113 157.648369 
L 1118.157123 147.512706 
L 1122.990133 138.698848 
L 1127.823143 132.196739 
L 1132.656153 125.973602 
L 1137.489163 118.470443 
L 1142.322173 111.312269 
L 1147.155183 108.186512 
L 1151.988193 112.002314 
L 1156.821203 114.262432 
L 1161.654213 111.37803 
L 1166.487223 109.366815 
L 1171.320233 113.326118 
L 1176.153243 120.331856 
L 1180.986253 125.554396 
L 1185.819263 130.329828 
L 1190.652273 133.680921 
L 1195.485283 139.473698 
L 1200.318293 146.685405 
L 1205.151303 154.260671 
L 1209.984313 160.448384 
L 1214.817323 171.726223 
L 1219.650333 179.243468 
L 1224.483343 182.942554 
" clip-path="url(#p793bf4ebdb)" style="fill: none; stroke: #ff00ff; stroke-width: 1.5; stroke-linecap: square"/>
   </g>
   <g id="line2d_77">
    <path d="M 1079.493043 210.24 
L 1079.493043 43.92 
" clip-path="url(#p793bf4ebdb)" style="fill: none; stroke-dasharray: 5.55,2.4; stroke-dashoffset: 0; stroke: #808080; stroke-opacity: 0.7; stroke-width: 1.5"/>
   </g>
   <g id="line2d_78">
    <path d="M 1209.984313 210.24 
L 1209.984313 43.92 
" clip-path="url(#p793bf4ebdb)" style="fill: none; stroke-dasharray: 5.55,2.4; stroke-dashoffset: 0; stroke: #808080; stroke-opacity: 0.7; stroke-width: 1.5"/>
   </g>
   <g id="text_81">
    <text style="font: 12px 'Arial', sans-serif; text-anchor: middle" x="1147.155183" y="37.92" transform="rotate(-0 1147.155183 37.92)">2 Correct Trials</text>
   </g>
   <g id="legend_6">
    <g id="patch_27">
     <path d="M 1094.557104 207.345 
L 1199.753262 207.345 
Q 1200.911262 207.345 1200.911262 206.187 
L 1200.911262 198.575864 
Q 1200.911262 197.417864 1199.753262 197.417864 
L 1094.557104 197.417864 
Q 1093.399104 197.417864 1093.399104 198.575864 
L 1093.399104 206.187 
Q 1093.399104 207.345 1094.557104 207.345 
z
" style="fill: #ffffff; opacity: 0.8; stroke: #cccccc; stroke-linejoin: miter"/>
    </g>
    <g id="line2d_79">
     <path d="M 1095.715104 201.851738 
L 1101.505104 201.851738 
L 1107.295104 201.851738 
" style="fill: none; stroke: #ff00ff; stroke-width: 1.5; stroke-linecap: square"/>
    </g>
    <g id="text_82">
     <text style="font: 5.79px 'Arial', sans-serif; text-anchor: start" x="1111.927104" y="203.878238" transform="rotate(-0 1111.927104 203.878238)">Pref - PrevCount=2 - #Trials=37.0</text>
    </g>
   </g>
  </g>
  <g id="axes_7">
   <g id="patch_28">
    <path d="M 1266.240549 210.24 
L 1436.3625 210.24 
L 1436.3625 43.92 
L 1266.240549 43.92 
z
" style="fill: #ffffff"/>
   </g>
   <g id="PolyCollection_6">
    <defs>
     <path id="m1ecbece7f4" d="M 1273.973365 -120.863553 
L 1273.973365 -116.701832 
L 1278.806375 -116.762903 
L 1283.639385 -117.059721 
L 1288.472395 -118.067587 
L 1293.305405 -120.337494 
L 1298.138415 -126.262838 
L 1302.971425 -133.530459 
L 1307.804435 -141.20792 
L 1312.637445 -150.111001 
L 1317.470455 -160.630196 
L 1322.303465 -172.723505 
L 1327.136475 -182.855535 
L 1331.969484 -190.104306 
L 1336.802494 -194.862697 
L 1341.635504 -199.257402 
L 1346.468514 -201.110818 
L 1351.301524 -201.005752 
L 1356.134534 -199.933161 
L 1360.967544 -200.457792 
L 1365.800554 -200.050293 
L 1370.633564 -197.874619 
L 1375.466574 -198.143323 
L 1380.299584 -198.908044 
L 1385.132594 -197.493265 
L 1389.965604 -194.415394 
L 1394.798614 -188.809587 
L 1399.631624 -178.669007 
L 1404.464634 -165.993326 
L 1409.297644 -155.069247 
L 1414.130654 -149.215214 
L 1418.963664 -141.963627 
L 1423.796674 -138.860784 
L 1428.629684 -139.931049 
L 1428.629684 -148.058739 
L 1428.629684 -148.058739 
L 1423.796674 -146.672632 
L 1418.963664 -150.246741 
L 1414.130654 -158.96314 
L 1409.297644 -166.581926 
L 1404.464634 -180.441929 
L 1399.631624 -197.377294 
L 1394.798614 -210.989359 
L 1389.965604 -216.842892 
L 1385.132594 -220.377443 
L 1380.299584 -222.093262 
L 1375.466574 -221.087794 
L 1370.633564 -220.646263 
L 1365.800554 -224.714026 
L 1360.967544 -225.397618 
L 1356.134534 -223.827399 
L 1351.301524 -226.014725 
L 1346.468514 -227.412391 
L 1341.635504 -223.926693 
L 1336.802494 -217.327475 
L 1331.969484 -211.387389 
L 1327.136475 -203.253426 
L 1322.303465 -191.210595 
L 1317.470455 -176.114822 
L 1312.637445 -162.891634 
L 1307.804435 -151.325803 
L 1302.971425 -141.101935 
L 1298.138415 -131.72873 
L 1293.305405 -124.45083 
L 1288.472395 -121.822648 
L 1283.639385 -120.966726 
L 1278.806375 -120.812187 
L 1273.973365 -120.863553 
z
" style="stroke: #ff00ff; stroke-opacity: 0.1"/>
    </defs>
    <g clip-path="url(#p7eb9256741)">
     <use xlink:href="#m1ecbece7f4" x="0" y="323.436915" style="fill: #ff00ff; fill-opacity: 0.1; stroke: #ff00ff; stroke-opacity: 0.1"/>
    </g>
   </g>
   <g id="matplotlib.axis_13">
    <g id="xtick_17">
     <g id="line2d_80">
      <g>
       <use xlink:href="#m4e544d91fd" x="1283.639385" y="210.24" style="stroke: #000000; stroke-width: 0.8"/>
      </g>
     </g>
     <g id="text_83">
      <text style="font: 10px 'Arial', sans-serif" transform="translate(1252.673632 251.86503) rotate(-45)">Sampling</text>
     </g>
    </g>
    <g id="xtick_18">
     <g id="line2d_81">
      <g>
       <use xlink:href="#m4e544d91fd" x="1414.130654" y="210.24" style="stroke: #000000; stroke-width: 0.8"/>
      </g>
     </g>
     <g id="text_84">
      <text style="font: 10px 'Arial', sans-serif" transform="translate(1333.34039 301.686227) rotate(-45)">Movement to Lateral Port</text>
     </g>
    </g>
    <g id="text_85">
     <text style="font: 10px 'Arial', sans-serif; text-anchor: middle" x="1351.301524" y="314.249415" transform="rotate(-0 1351.301524 314.249415)">Normalized Time</text>
    </g>
   </g>
   <g id="matplotlib.axis_14">
    <g id="ytick_43">
     <g id="line2d_82">
      <g>
       <use xlink:href="#mb7fbaa8264" x="1266.240549" y="209.444807" style="stroke: #000000; stroke-width: 0.8"/>
      </g>
     </g>
     <g id="text_86">
      <text style="font: 10px 'Arial', sans-serif; text-anchor: end" x="1259.240549" y="213.023713" transform="rotate(-0 1259.240549 213.023713)">−0.5</text>
     </g>
    </g>
    <g id="ytick_44">
     <g id="line2d_83">
      <g>
       <use xlink:href="#mb7fbaa8264" x="1266.240549" y="183.936654" style="stroke: #000000; stroke-width: 0.8"/>
      </g>
     </g>
     <g id="text_87">
      <text style="font: 10px 'Arial', sans-serif; text-anchor: end" x="1259.240549" y="187.51556" transform="rotate(-0 1259.240549 187.51556)">0.0</text>
     </g>
    </g>
    <g id="ytick_45">
     <g id="line2d_84">
      <g>
       <use xlink:href="#mb7fbaa8264" x="1266.240549" y="158.428501" style="stroke: #000000; stroke-width: 0.8"/>
      </g>
     </g>
     <g id="text_88">
      <text style="font: 10px 'Arial', sans-serif; text-anchor: end" x="1259.240549" y="162.007407" transform="rotate(-0 1259.240549 162.007407)">0.5</text>
     </g>
    </g>
    <g id="ytick_46">
     <g id="line2d_85">
      <g>
       <use xlink:href="#mb7fbaa8264" x="1266.240549" y="132.920348" style="stroke: #000000; stroke-width: 0.8"/>
      </g>
     </g>
     <g id="text_89">
      <text style="font: 10px 'Arial', sans-serif; text-anchor: end" x="1259.240549" y="136.499254" transform="rotate(-0 1259.240549 136.499254)">1.0</text>
     </g>
    </g>
    <g id="ytick_47">
     <g id="line2d_86">
      <g>
       <use xlink:href="#mb7fbaa8264" x="1266.240549" y="107.412195" style="stroke: #000000; stroke-width: 0.8"/>
      </g>
     </g>
     <g id="text_90">
      <text style="font: 10px 'Arial', sans-serif; text-anchor: end" x="1259.240549" y="110.991101" transform="rotate(-0 1259.240549 110.991101)">1.5</text>
     </g>
    </g>
    <g id="ytick_48">
     <g id="line2d_87">
      <g>
       <use xlink:href="#mb7fbaa8264" x="1266.240549" y="81.904042" style="stroke: #000000; stroke-width: 0.8"/>
      </g>
     </g>
     <g id="text_91">
      <text style="font: 10px 'Arial', sans-serif; text-anchor: end" x="1259.240549" y="85.482948" transform="rotate(-0 1259.240549 85.482948)">2.0</text>
     </g>
    </g>
    <g id="ytick_49">
     <g id="line2d_88">
      <g>
       <use xlink:href="#mb7fbaa8264" x="1266.240549" y="56.395889" style="stroke: #000000; stroke-width: 0.8"/>
      </g>
     </g>
     <g id="text_92">
      <text style="font: 10px 'Arial', sans-serif; text-anchor: end" x="1259.240549" y="59.974795" transform="rotate(-0 1259.240549 59.974795)">2.5</text>
     </g>
    </g>
    <g id="text_93">
     <text style="font: 10px 'Arial', sans-serif; text-anchor: middle" x="1233.395236" y="127.08" transform="rotate(-90 1233.395236 127.08)">Mean Activity</text>
    </g>
   </g>
   <g id="line2d_89">
    <path d="M 1273.973365 204.654222 
L 1278.806375 204.649369 
L 1283.639385 204.423691 
L 1288.472395 203.491797 
L 1293.305405 201.042753 
L 1298.138415 194.441131 
L 1302.971425 186.120717 
L 1307.804435 177.170053 
L 1312.637445 166.935597 
L 1317.470455 155.064405 
L 1322.303465 141.469865 
L 1327.136475 130.382434 
L 1331.969484 122.691067 
L 1336.802494 117.341828 
L 1341.635504 111.844867 
L 1346.468514 109.17531 
L 1351.301524 109.926676 
L 1356.134534 111.556635 
L 1360.967544 110.50921 
L 1365.800554 111.054755 
L 1370.633564 114.176474 
L 1375.466574 113.821356 
L 1380.299584 112.936262 
L 1385.132594 114.501561 
L 1389.965604 117.807771 
L 1394.798614 123.53744 
L 1399.631624 135.413765 
L 1404.464634 150.219287 
L 1409.297644 162.611328 
L 1414.130654 169.347738 
L 1418.963664 177.331731 
L 1423.796674 180.670207 
L 1428.629684 179.44202 
" clip-path="url(#p7eb9256741)" style="fill: none; stroke: #ff00ff; stroke-width: 1.5; stroke-linecap: square"/>
   </g>
   <g id="line2d_90">
    <path d="M 1283.639385 210.24 
L 1283.639385 43.92 
" clip-path="url(#p7eb9256741)" style="fill: none; stroke-dasharray: 5.55,2.4; stroke-dashoffset: 0; stroke: #808080; stroke-opacity: 0.7; stroke-width: 1.5"/>
   </g>
   <g id="line2d_91">
    <path d="M 1414.130654 210.24 
L 1414.130654 43.92 
" clip-path="url(#p7eb9256741)" style="fill: none; stroke-dasharray: 5.55,2.4; stroke-dashoffset: 0; stroke: #808080; stroke-opacity: 0.7; stroke-width: 1.5"/>
   </g>
   <g id="text_94">
    <text style="font: 12px 'Arial', sans-serif; text-anchor: middle" x="1351.301524" y="37.92" transform="rotate(-0 1351.301524 37.92)">3 Correct Trials</text>
   </g>
   <g id="legend_7">
    <g id="patch_29">
     <path d="M 1298.703445 207.345 
L 1403.899603 207.345 
Q 1405.057603 207.345 1405.057603 206.187 
L 1405.057603 198.575864 
Q 1405.057603 197.417864 1403.899603 197.417864 
L 1298.703445 197.417864 
Q 1297.545445 197.417864 1297.545445 198.575864 
L 1297.545445 206.187 
Q 1297.545445 207.345 1298.703445 207.345 
z
" style="fill: #ffffff; opacity: 0.8; stroke: #cccccc; stroke-linejoin: miter"/>
    </g>
    <g id="line2d_92">
     <path d="M 1299.861445 201.851738 
L 1305.651445 201.851738 
L 1311.441445 201.851738 
" style="fill: none; stroke: #ff00ff; stroke-width: 1.5; stroke-linecap: square"/>
    </g>
    <g id="text_95">
     <text style="font: 5.79px 'Arial', sans-serif; text-anchor: start" x="1316.073445" y="203.878238" transform="rotate(-0 1316.073445 203.878238)">Pref - PrevCount=3 - #Trials=68.0</text>
    </g>
   </g>
  </g>
  <g id="text_96">
   <text style="font: 12px 'Arial', sans-serif; text-anchor: middle" x="716.3625" y="15.935625" transform="rotate(-0 716.3625 15.935625)">Balance Change - ALM - GP4_23_s6_L50_D250_ALM_66 - PrevChoiceCorrect</text>
  </g>
 </g>
 <defs>
  <clipPath id="pfba81cd703">
   <rect x="41.3625" y="43.92" width="170.121951" height="166.32"/>
  </clipPath>
  <clipPath id="pb6466bf276">
   <rect x="245.508841" y="43.92" width="170.121951" height="166.32"/>
  </clipPath>
  <clipPath id="p8bf1e13ead">
   <rect x="449.655183" y="43.92" width="170.121951" height="166.32"/>
  </clipPath>
  <clipPath id="p0ac269e3a6">
   <rect x="653.801524" y="43.92" width="170.121951" height="166.32"/>
  </clipPath>
  <clipPath id="pc49d249fe0">
   <rect x="857.947866" y="43.92" width="170.121951" height="166.32"/>
  </clipPath>
  <clipPath id="p793bf4ebdb">
   <rect x="1062.094207" y="43.92" width="170.121951" height="166.32"/>
  </clipPath>
  <clipPath id="p7eb9256741">
   <rect x="1266.240549" y="43.92" width="170.121951" height="166.32"/>
  </clipPath>
 </defs>
</svg>
