<?xml version="1.0" encoding="utf-8" standalone="no"?>
<!DOCTYPE svg PUBLIC "-//W3C//DTD SVG 1.1//EN"
  "http://www.w3.org/Graphics/SVG/1.1/DTD/svg11.dtd">
<svg xmlns:xlink="http://www.w3.org/1999/xlink" width="413.171283pt" height="361.333136pt" viewBox="0 0 413.171283 361.333136" xmlns="http://www.w3.org/2000/svg" version="1.1">
 <metadata>
  <rdf:RDF xmlns:dc="http://purl.org/dc/elements/1.1/" xmlns:cc="http://creativecommons.org/ns#" xmlns:rdf="http://www.w3.org/1999/02/22-rdf-syntax-ns#">
   <cc:Work>
    <dc:type rdf:resource="http://purl.org/dc/dcmitype/StillImage"/>
    <dc:date>2025-12-29T04:07:17.131427</dc:date>
    <dc:format>image/svg+xml</dc:format>
    <dc:creator>
     <cc:Agent>
      <dc:title>Matplotlib v3.8.0, https://matplotlib.org/</dc:title>
     </cc:Agent>
    </dc:creator>
   </cc:Work>
  </rdf:RDF>
 </metadata>
 <defs>
  <style type="text/css">*{stroke-linejoin: round; stroke-linecap: butt}</style>
 </defs>
 <g id="figure_1">
  <g id="patch_1">
   <path d="M 0 361.333136 
L 413.171283 361.333136 
L 413.171283 -0 
L 0 -0 
z
" style="fill: #ffffff"/>
  </g>
  <g id="axes_1">
   <g id="patch_2">
    <path d="M 48.851283 285.37598 
L 405.971283 285.37598 
L 405.971283 19.26398 
L 48.851283 19.26398 
z
" style="fill: #ffffff"/>
   </g>
   <g id="PolyCollection_1">
    <defs>
     <path id="mb89d8cebab" d="M 48.851283 -188.773331 
L 48.851283 -112.451046 
L 60.011283 -121.364464 
L 71.171283 -125.895514 
L 82.331283 -123.042367 
L 93.491283 -122.888198 
L 104.651283 -131.918499 
L 115.811283 -130.101156 
L 126.971283 -131.67048 
L 138.131283 -125.103544 
L 149.291283 -124.414717 
L 160.451283 -130.758316 
L 171.611283 -131.023107 
L 182.771283 -135.904527 
L 193.931283 -139.613654 
L 205.091283 -143.83592 
L 216.251283 -149.696267 
L 227.411283 -146.399593 
L 238.571283 -143.828358 
L 249.731283 -140.861804 
L 260.891283 -140.010537 
L 272.051283 -138.161658 
L 283.211283 -127.74576 
L 294.371283 -120.565805 
L 305.531283 -132.16454 
L 316.691283 -132.816263 
L 327.851283 -131.964402 
L 339.011283 -146.302564 
L 350.171283 -158.522591 
L 361.331283 -145.284391 
L 372.491283 -123.725099 
L 383.651283 -106.289182 
L 394.811283 -97.8994 
L 405.971283 -88.053156 
L 405.971283 -163.515539 
L 405.971283 -163.515539 
L 394.811283 -181.610214 
L 383.651283 -194.316606 
L 372.491283 -215.738057 
L 361.331283 -243.926953 
L 350.171283 -257.987163 
L 339.011283 -250.265675 
L 327.851283 -235.771251 
L 316.691283 -231.89409 
L 305.531283 -230.541512 
L 294.371283 -215.163444 
L 283.211283 -230.915822 
L 272.051283 -243.090843 
L 260.891283 -240.296419 
L 249.731283 -238.997315 
L 238.571283 -237.611504 
L 227.411283 -232.079663 
L 216.251283 -229.417527 
L 205.091283 -218.194181 
L 193.931283 -210.056067 
L 182.771283 -206.587116 
L 171.611283 -200.702714 
L 160.451283 -200.516712 
L 149.291283 -193.237256 
L 138.131283 -191.969317 
L 126.971283 -199.08887 
L 115.811283 -196.08429 
L 104.651283 -197.613865 
L 93.491283 -189.115191 
L 82.331283 -197.23373 
L 71.171283 -202.119962 
L 60.011283 -195.714132 
L 48.851283 -188.773331 
z
" style="stroke: #1f77b4; stroke-opacity: 0.2"/>
    </defs>
    <g clip-path="url(#p41a7f98bc1)">
     <use xlink:href="#mb89d8cebab" x="0" y="361.333136" style="fill: #1f77b4; fill-opacity: 0.2; stroke: #1f77b4; stroke-opacity: 0.2"/>
    </g>
   </g>
   <g id="PolyCollection_2">
    <defs>
     <path id="m764cf53bd6" d="M 48.851283 -176.602206 
L 48.851283 -105.488694 
L 60.011283 -125.077446 
L 71.171283 -135.708524 
L 82.331283 -139.03273 
L 93.491283 -136.498879 
L 104.651283 -140.981258 
L 115.811283 -134.623918 
L 126.971283 -139.195335 
L 138.131283 -142.199455 
L 149.291283 -148.941271 
L 160.451283 -166.588892 
L 171.611283 -177.619704 
L 182.771283 -173.148826 
L 193.931283 -163.382196 
L 205.091283 -182.534901 
L 216.251283 -190.808014 
L 227.411283 -195.571743 
L 238.571283 -205.484469 
L 249.731283 -202.351965 
L 260.891283 -186.810295 
L 272.051283 -172.468286 
L 283.211283 -167.396696 
L 294.371283 -183.86568 
L 305.531283 -199.077955 
L 316.691283 -201.409138 
L 327.851283 -189.532685 
L 339.011283 -188.335966 
L 350.171283 -185.472159 
L 361.331283 -179.840817 
L 372.491283 -163.853914 
L 383.651283 -144.056028 
L 394.811283 -132.666592 
L 405.971283 -130.484791 
L 405.971283 -228.00042 
L 405.971283 -228.00042 
L 394.811283 -244.836251 
L 383.651283 -265.222578 
L 372.491283 -284.790611 
L 361.331283 -303.749281 
L 350.171283 -311.31452 
L 339.011283 -313.560566 
L 327.851283 -313.692187 
L 316.691283 -327.57858 
L 305.531283 -329.015183 
L 294.371283 -314.546607 
L 283.211283 -298.397247 
L 272.051283 -298.019666 
L 260.891283 -311.13162 
L 249.731283 -329.973156 
L 238.571283 -324.983404 
L 227.411283 -317.270125 
L 216.251283 -310.246077 
L 205.091283 -294.045361 
L 193.931283 -272.346155 
L 182.771283 -282.719 
L 171.611283 -281.823691 
L 160.451283 -269.096629 
L 149.291283 -246.226077 
L 138.131283 -235.450851 
L 126.971283 -223.227109 
L 115.811283 -215.261709 
L 104.651283 -218.159193 
L 93.491283 -208.233814 
L 82.331283 -212.448823 
L 71.171283 -209.754426 
L 60.011283 -197.132953 
L 48.851283 -176.602206 
z
" style="stroke: #ff7f0e; stroke-opacity: 0.2"/>
    </defs>
    <g clip-path="url(#p41a7f98bc1)">
     <use xlink:href="#m764cf53bd6" x="0" y="361.333136" style="fill: #ff7f0e; fill-opacity: 0.2; stroke: #ff7f0e; stroke-opacity: 0.2"/>
    </g>
   </g>
   <g id="matplotlib.axis_1">
    <g id="text_1">
     <text style="font: 10px 'Arial', sans-serif; text-anchor: middle" x="227.411283" y="296.533792" transform="rotate(-0 227.411283 296.533792)">Time</text>
    </g>
   </g>
   <g id="matplotlib.axis_2">
    <g id="ytick_1">
     <g id="line2d_1">
      <defs>
       <path id="m32b0fefbb0" d="M 0 0 
L -3.5 0 
" style="stroke: #000000; stroke-width: 0.8"/>
      </defs>
      <g>
       <use xlink:href="#m32b0fefbb0" x="48.851283" y="269.531471" style="stroke: #000000; stroke-width: 0.8"/>
      </g>
     </g>
     <g id="text_2">
      <text style="font: 10px 'Arial', sans-serif; text-anchor: end" x="41.851283" y="273.110378" transform="rotate(-0 41.851283 273.110378)">−0.4</text>
     </g>
    </g>
    <g id="ytick_2">
     <g id="line2d_2">
      <g>
       <use xlink:href="#m32b0fefbb0" x="48.851283" y="214.245961" style="stroke: #000000; stroke-width: 0.8"/>
      </g>
     </g>
     <g id="text_3">
      <text style="font: 10px 'Arial', sans-serif; text-anchor: end" x="41.851283" y="217.824867" transform="rotate(-0 41.851283 217.824867)">−0.3</text>
     </g>
    </g>
    <g id="ytick_3">
     <g id="line2d_3">
      <g>
       <use xlink:href="#m32b0fefbb0" x="48.851283" y="158.96045" style="stroke: #000000; stroke-width: 0.8"/>
      </g>
     </g>
     <g id="text_4">
      <text style="font: 10px 'Arial', sans-serif; text-anchor: end" x="41.851283" y="162.539356" transform="rotate(-0 41.851283 162.539356)">−0.2</text>
     </g>
    </g>
    <g id="ytick_4">
     <g id="line2d_4">
      <g>
       <use xlink:href="#m32b0fefbb0" x="48.851283" y="103.674939" style="stroke: #000000; stroke-width: 0.8"/>
      </g>
     </g>
     <g id="text_5">
      <text style="font: 10px 'Arial', sans-serif; text-anchor: end" x="41.851283" y="107.253846" transform="rotate(-0 41.851283 107.253846)">−0.1</text>
     </g>
    </g>
    <g id="ytick_5">
     <g id="line2d_5">
      <g>
       <use xlink:href="#m32b0fefbb0" x="48.851283" y="48.389429" style="stroke: #000000; stroke-width: 0.8"/>
      </g>
     </g>
     <g id="text_6">
      <text style="font: 10px 'Arial', sans-serif; text-anchor: end" x="41.851283" y="51.968335" transform="rotate(-0 41.851283 51.968335)">0.0</text>
     </g>
    </g>
    <g id="text_7">
     <text style="font: 10px 'Arial', sans-serif; text-anchor: middle" x="16.005971" y="152.31998" transform="rotate(-90 16.005971 152.31998)">Activity</text>
    </g>
   </g>
   <g id="line2d_6">
    <path d="M 48.851283 210.720948 
L 60.011283 202.793838 
L 71.171283 197.325398 
L 82.331283 201.195087 
L 93.491283 205.331446 
L 104.651283 196.566958 
L 115.811283 198.240413 
L 126.971283 195.953461 
L 138.131283 202.796705 
L 149.291283 202.507149 
L 160.451283 195.695622 
L 171.611283 195.470225 
L 182.771283 190.087314 
L 193.931283 186.498276 
L 205.091283 180.318089 
L 216.251283 171.776239 
L 227.411283 172.093508 
L 238.571283 170.613205 
L 249.731283 171.403576 
L 260.891283 171.179654 
L 272.051283 170.706881 
L 283.211283 182.002345 
L 294.371283 193.468512 
L 305.531283 179.98011 
L 316.691283 178.97796 
L 327.851283 177.465306 
L 339.011283 163.049021 
L 350.171283 153.078257 
L 361.331283 166.72746 
L 372.491283 191.601558 
L 383.651283 211.030242 
L 394.811283 221.578329 
L 405.971283 235.548788 
" clip-path="url(#p41a7f98bc1)" style="fill: none; stroke: #1f77b4; stroke-width: 1.5; stroke-linecap: square"/>
   </g>
   <g id="line2d_7">
    <path d="M 48.851283 220.287686 
L 60.011283 200.227941 
L 71.171283 188.601657 
L 82.331283 185.592364 
L 93.491283 188.966789 
L 104.651283 181.76291 
L 115.811283 186.390322 
L 126.971283 180.121914 
L 138.131283 172.507979 
L 149.291283 163.749464 
L 160.451283 143.490371 
L 171.611283 131.611439 
L 182.771283 133.399223 
L 193.931283 143.46896 
L 205.091283 123.043003 
L 216.251283 110.806093 
L 227.411283 104.9122 
L 238.571283 96.099202 
L 249.731283 95.170577 
L 260.891283 112.362178 
L 272.051283 126.089162 
L 283.211283 128.436163 
L 294.371283 112.126991 
L 305.531283 97.286567 
L 316.691283 96.839275 
L 327.851283 109.7207 
L 339.011283 110.38487 
L 350.171283 112.939794 
L 361.331283 119.538085 
L 372.491283 137.010876 
L 383.651283 156.693831 
L 394.811283 172.581711 
L 405.971283 182.090535 
" clip-path="url(#p41a7f98bc1)" style="fill: none; stroke: #ff7f0e; stroke-width: 1.5; stroke-linecap: square"/>
   </g>
   <g id="line2d_8">
    <path d="M 82.331283 285.37598 
L 82.331283 19.26398 
" clip-path="url(#p41a7f98bc1)" style="fill: none; stroke-dasharray: 5.55,2.4; stroke-dashoffset: 0; stroke: #000000; stroke-opacity: 0.5; stroke-width: 1.5"/>
   </g>
   <g id="line2d_9">
    <path d="M 383.651283 285.37598 
L 383.651283 19.26398 
" clip-path="url(#p41a7f98bc1)" style="fill: none; stroke-dasharray: 5.55,2.4; stroke-dashoffset: 0; stroke: #000000; stroke-opacity: 0.5; stroke-width: 1.5"/>
   </g>
   <g id="patch_3">
    <path d="M 48.851283 285.37598 
L 405.971283 285.37598 
" style="fill: none; stroke: #000000; stroke-width: 0.8; stroke-linejoin: miter; stroke-linecap: square"/>
   </g>
   <g id="text_8">
    <text style="font: 6.94px 'Arial', sans-serif" transform="translate(10.097767 321.385533) rotate(-35)">-0.1s Sampling</text>
   </g>
   <g id="text_9">
    <text style="font: 6.94px 'Arial', sans-serif" transform="translate(57.794497 311.430872) rotate(-35)">Sampling</text>
   </g>
   <g id="text_10">
    <text style="font: 6.94px 'Arial', sans-serif" transform="translate(319.037191 339.456682) rotate(-35)">Movement to Lateral Port</text>
   </g>
   <g id="text_11">
    <text style="font: 8.33px 'Arial', sans-serif; text-anchor: middle" x="227.411283" y="13.26398" transform="rotate(-0 227.411283 13.26398)">GP4_24_s4_L85_D250_M2 - Trace:13_GP4_24_s4_L85_D250_M2 (when: correct)</text>
   </g>
   <g id="legend_1">
    <g id="patch_4">
     <path d="M 133.696342 354.133136 
L 321.126224 354.133136 
Q 322.514224 354.133136 322.514224 352.745136 
L 322.514224 343.45638 
Q 322.514224 342.06838 321.126224 342.06838 
L 133.696342 342.06838 
Q 132.308342 342.06838 132.308342 343.45638 
L 132.308342 352.745136 
Q 132.308342 354.133136 133.696342 354.133136 
z
" style="fill: #ffffff; opacity: 0.8; stroke: #cccccc; stroke-linejoin: miter"/>
    </g>
    <g id="line2d_10">
     <path d="M 135.084342 347.467483 
L 142.024342 347.467483 
L 148.964342 347.467483 
" style="fill: none; stroke: #1f77b4; stroke-width: 1.5; stroke-linecap: square"/>
    </g>
    <g id="text_12">
     <text style="font: 6.94px 'Arial', sans-serif; text-anchor: start" x="154.516342" y="349.896483" transform="rotate(-0 154.516342 349.896483)">DecisionRight (65 pts)</text>
    </g>
    <g id="line2d_11">
     <path d="M 236.664255 347.467483 
L 243.604255 347.467483 
L 250.544255 347.467483 
" style="fill: none; stroke: #ff7f0e; stroke-width: 1.5; stroke-linecap: square"/>
    </g>
    <g id="text_13">
     <text style="font: 6.94px 'Arial', sans-serif; text-anchor: start" x="256.096255" y="349.896483" transform="rotate(-0 256.096255 349.896483)">DecisionLeft (69 pts)</text>
    </g>
   </g>
  </g>
 </g>
 <defs>
  <clipPath id="p41a7f98bc1">
   <rect x="48.851283" y="19.26398" width="357.12" height="266.112"/>
  </clipPath>
 </defs>
</svg>
