<?xml version="1.0" encoding="utf-8" standalone="no"?>
<!DOCTYPE svg PUBLIC "-//W3C//DTD SVG 1.1//EN"
  "http://www.w3.org/Graphics/SVG/1.1/DTD/svg11.dtd">
<svg xmlns:xlink="http://www.w3.org/1999/xlink" width="413.171283pt" height="361.333136pt" viewBox="0 0 413.171283 361.333136" xmlns="http://www.w3.org/2000/svg" version="1.1">
 <metadata>
  <rdf:RDF xmlns:dc="http://purl.org/dc/elements/1.1/" xmlns:cc="http://creativecommons.org/ns#" xmlns:rdf="http://www.w3.org/1999/02/22-rdf-syntax-ns#">
   <cc:Work>
    <dc:type rdf:resource="http://purl.org/dc/dcmitype/StillImage"/>
    <dc:date>2025-12-29T04:07:17.347582</dc:date>
    <dc:format>image/svg+xml</dc:format>
    <dc:creator>
     <cc:Agent>
      <dc:title>Matplotlib v3.8.0, https://matplotlib.org/</dc:title>
     </cc:Agent>
    </dc:creator>
   </cc:Work>
  </rdf:RDF>
 </metadata>
 <defs>
  <style type="text/css">*{stroke-linejoin: round; stroke-linecap: butt}</style>
 </defs>
 <g id="figure_1">
  <g id="patch_1">
   <path d="M 0 361.333136 
L 413.171283 361.333136 
L 413.171283 -0 
L 0 -0 
z
" style="fill: #ffffff"/>
  </g>
  <g id="axes_1">
   <g id="patch_2">
    <path d="M 48.851283 285.37598 
L 405.971283 285.37598 
L 405.971283 19.26398 
L 48.851283 19.26398 
z
" style="fill: #ffffff"/>
   </g>
   <g id="PolyCollection_1">
    <defs>
     <path id="mbe9ef31a92" d="M 48.851283 -305.503599 
L 48.851283 -207.83545 
L 60.011283 -211.499817 
L 71.171283 -206.108328 
L 82.331283 -198.084991 
L 93.491283 -190.134056 
L 104.651283 -182.734026 
L 115.811283 -181.509514 
L 126.971283 -182.315655 
L 138.131283 -176.130589 
L 149.291283 -182.234174 
L 160.451283 -186.191899 
L 171.611283 -192.141826 
L 182.771283 -194.361842 
L 193.931283 -179.933683 
L 205.091283 -167.955631 
L 216.251283 -170.696271 
L 227.411283 -167.766336 
L 238.571283 -174.633134 
L 249.731283 -179.077465 
L 260.891283 -166.094082 
L 272.051283 -160.70572 
L 283.211283 -162.209227 
L 294.371283 -154.516152 
L 305.531283 -148.746876 
L 316.691283 -141.391172 
L 327.851283 -141.843805 
L 339.011283 -144.729515 
L 350.171283 -147.44917 
L 361.331283 -127.806555 
L 372.491283 -101.612947 
L 383.651283 -88.053156 
L 394.811283 -90.058637 
L 405.971283 -93.494409 
L 405.971283 -164.758215 
L 405.971283 -164.758215 
L 394.811283 -158.551416 
L 383.651283 -152.661504 
L 372.491283 -162.41303 
L 361.331283 -186.004279 
L 350.171283 -205.435291 
L 339.011283 -201.711371 
L 327.851283 -197.645262 
L 316.691283 -195.072833 
L 305.531283 -202.856597 
L 294.371283 -211.451578 
L 283.211283 -223.523836 
L 272.051283 -224.388972 
L 260.891283 -224.737152 
L 249.731283 -235.262186 
L 238.571283 -232.554866 
L 227.411283 -229.360683 
L 216.251283 -235.957928 
L 205.091283 -237.808326 
L 193.931283 -254.858617 
L 182.771283 -270.887087 
L 171.611283 -267.799484 
L 160.451283 -259.960981 
L 149.291283 -254.08391 
L 138.131283 -246.582724 
L 126.971283 -251.194803 
L 115.811283 -252.37351 
L 104.651283 -256.291301 
L 93.491283 -267.775806 
L 82.331283 -281.131807 
L 71.171283 -297.951674 
L 60.011283 -309.410814 
L 48.851283 -305.503599 
z
" style="stroke: #1f77b4; stroke-opacity: 0.2"/>
    </defs>
    <g clip-path="url(#p8084aa59e5)">
     <use xlink:href="#mbe9ef31a92" x="0" y="361.333136" style="fill: #1f77b4; fill-opacity: 0.2; stroke: #1f77b4; stroke-opacity: 0.2"/>
    </g>
   </g>
   <g id="PolyCollection_2">
    <defs>
     <path id="m797ea696e9" d="M 48.851283 -329.973156 
L 48.851283 -238.658165 
L 60.011283 -239.936495 
L 71.171283 -240.543949 
L 82.331283 -228.465048 
L 93.491283 -225.968951 
L 104.651283 -226.91592 
L 115.811283 -232.583049 
L 126.971283 -231.495829 
L 138.131283 -220.832782 
L 149.291283 -214.20874 
L 160.451283 -213.307594 
L 171.611283 -216.625238 
L 182.771283 -217.572937 
L 193.931283 -212.278955 
L 205.091283 -205.847425 
L 216.251283 -215.575575 
L 227.411283 -211.834139 
L 238.571283 -205.261301 
L 249.731283 -199.554113 
L 260.891283 -188.379919 
L 272.051283 -188.012373 
L 283.211283 -190.947836 
L 294.371283 -192.997804 
L 305.531283 -194.239068 
L 316.691283 -192.017975 
L 327.851283 -182.539303 
L 339.011283 -169.385007 
L 350.171283 -171.867199 
L 361.331283 -180.981006 
L 372.491283 -185.734307 
L 383.651283 -171.662045 
L 394.811283 -156.397603 
L 405.971283 -150.819342 
L 405.971283 -248.83434 
L 405.971283 -248.83434 
L 394.811283 -249.953416 
L 383.651283 -256.282051 
L 372.491283 -266.228199 
L 361.331283 -258.607626 
L 350.171283 -239.336253 
L 339.011283 -238.159059 
L 327.851283 -251.673469 
L 316.691283 -256.967233 
L 305.531283 -262.118987 
L 294.371283 -261.110518 
L 283.211283 -267.201987 
L 272.051283 -264.865708 
L 260.891283 -262.090789 
L 249.731283 -268.162032 
L 238.571283 -269.791583 
L 227.411283 -275.804553 
L 216.251283 -278.18805 
L 205.091283 -264.43716 
L 193.931283 -274.744228 
L 182.771283 -282.637783 
L 171.611283 -283.367933 
L 160.451283 -278.441016 
L 149.291283 -279.7649 
L 138.131283 -290.418981 
L 126.971283 -300.948311 
L 115.811283 -300.125101 
L 104.651283 -300.948514 
L 93.491283 -299.820022 
L 82.331283 -300.608246 
L 71.171283 -320.237221 
L 60.011283 -325.287566 
L 48.851283 -329.973156 
z
" style="stroke: #ff7f0e; stroke-opacity: 0.2"/>
    </defs>
    <g clip-path="url(#p8084aa59e5)">
     <use xlink:href="#m797ea696e9" x="0" y="361.333136" style="fill: #ff7f0e; fill-opacity: 0.2; stroke: #ff7f0e; stroke-opacity: 0.2"/>
    </g>
   </g>
   <g id="matplotlib.axis_1">
    <g id="text_1">
     <text style="font: 10px 'Arial', sans-serif; text-anchor: middle" x="227.411283" y="296.533792" transform="rotate(-0 227.411283 296.533792)">Time</text>
    </g>
   </g>
   <g id="matplotlib.axis_2">
    <g id="ytick_1">
     <g id="line2d_1">
      <defs>
       <path id="m49f3f9502b" d="M 0 0 
L -3.5 0 
" style="stroke: #000000; stroke-width: 0.8"/>
      </defs>
      <g>
       <use xlink:href="#m49f3f9502b" x="48.851283" y="263.521631" style="stroke: #000000; stroke-width: 0.8"/>
      </g>
     </g>
     <g id="text_2">
      <text style="font: 10px 'Arial', sans-serif; text-anchor: end" x="41.851283" y="267.100537" transform="rotate(-0 41.851283 267.100537)">−0.5</text>
     </g>
    </g>
    <g id="ytick_2">
     <g id="line2d_2">
      <g>
       <use xlink:href="#m49f3f9502b" x="48.851283" y="226.048485" style="stroke: #000000; stroke-width: 0.8"/>
      </g>
     </g>
     <g id="text_3">
      <text style="font: 10px 'Arial', sans-serif; text-anchor: end" x="41.851283" y="229.627391" transform="rotate(-0 41.851283 229.627391)">−0.4</text>
     </g>
    </g>
    <g id="ytick_3">
     <g id="line2d_3">
      <g>
       <use xlink:href="#m49f3f9502b" x="48.851283" y="188.57534" style="stroke: #000000; stroke-width: 0.8"/>
      </g>
     </g>
     <g id="text_4">
      <text style="font: 10px 'Arial', sans-serif; text-anchor: end" x="41.851283" y="192.154246" transform="rotate(-0 41.851283 192.154246)">−0.3</text>
     </g>
    </g>
    <g id="ytick_4">
     <g id="line2d_4">
      <g>
       <use xlink:href="#m49f3f9502b" x="48.851283" y="151.102194" style="stroke: #000000; stroke-width: 0.8"/>
      </g>
     </g>
     <g id="text_5">
      <text style="font: 10px 'Arial', sans-serif; text-anchor: end" x="41.851283" y="154.6811" transform="rotate(-0 41.851283 154.6811)">−0.2</text>
     </g>
    </g>
    <g id="ytick_5">
     <g id="line2d_5">
      <g>
       <use xlink:href="#m49f3f9502b" x="48.851283" y="113.629048" style="stroke: #000000; stroke-width: 0.8"/>
      </g>
     </g>
     <g id="text_6">
      <text style="font: 10px 'Arial', sans-serif; text-anchor: end" x="41.851283" y="117.207954" transform="rotate(-0 41.851283 117.207954)">−0.1</text>
     </g>
    </g>
    <g id="ytick_6">
     <g id="line2d_6">
      <g>
       <use xlink:href="#m49f3f9502b" x="48.851283" y="76.155902" style="stroke: #000000; stroke-width: 0.8"/>
      </g>
     </g>
     <g id="text_7">
      <text style="font: 10px 'Arial', sans-serif; text-anchor: end" x="41.851283" y="79.734809" transform="rotate(-0 41.851283 79.734809)">0.0</text>
     </g>
    </g>
    <g id="ytick_7">
     <g id="line2d_7">
      <g>
       <use xlink:href="#m49f3f9502b" x="48.851283" y="38.682757" style="stroke: #000000; stroke-width: 0.8"/>
      </g>
     </g>
     <g id="text_8">
      <text style="font: 10px 'Arial', sans-serif; text-anchor: end" x="41.851283" y="42.261663" transform="rotate(-0 41.851283 42.261663)">0.1</text>
     </g>
    </g>
    <g id="text_9">
     <text style="font: 10px 'Arial', sans-serif; text-anchor: middle" x="16.005971" y="152.31998" transform="rotate(-90 16.005971 152.31998)">Activity</text>
    </g>
   </g>
   <g id="line2d_8">
    <path d="M 48.851283 104.663613 
L 60.011283 100.87782 
L 71.171283 109.303136 
L 82.331283 121.724736 
L 93.491283 132.378204 
L 104.651283 141.820474 
L 115.811283 144.391624 
L 126.971283 144.577904 
L 138.131283 149.976479 
L 149.291283 143.174092 
L 160.451283 138.256696 
L 171.611283 131.362481 
L 182.771283 128.708671 
L 193.931283 143.936986 
L 205.091283 158.45116 
L 216.251283 158.006037 
L 227.411283 162.769629 
L 238.571283 157.739136 
L 249.731283 154.163307 
L 260.891283 165.917516 
L 272.051283 168.785793 
L 283.211283 168.466604 
L 294.371283 178.349274 
L 305.531283 185.531396 
L 316.691283 193.101134 
L 327.851283 191.588602 
L 339.011283 188.112693 
L 350.171283 184.890908 
L 361.331283 204.427719 
L 372.491283 229.320148 
L 383.651283 240.975806 
L 394.811283 237.02811 
L 405.971283 232.206829 
" clip-path="url(#p8084aa59e5)" style="fill: none; stroke: #1f77b4; stroke-width: 1.5; stroke-linecap: square"/>
   </g>
   <g id="line2d_9">
    <path d="M 48.851283 77.017475 
L 60.011283 78.721107 
L 71.171283 80.942551 
L 82.331283 96.796488 
L 93.491283 98.438649 
L 104.651283 97.400918 
L 115.811283 94.979061 
L 126.971283 95.111067 
L 138.131283 105.707256 
L 149.291283 114.346316 
L 160.451283 115.458831 
L 171.611283 111.336551 
L 182.771283 111.227776 
L 193.931283 117.821544 
L 205.091283 126.190842 
L 216.251283 114.451322 
L 227.411283 117.513791 
L 238.571283 123.806692 
L 249.731283 127.475063 
L 260.891283 136.097785 
L 272.051283 134.894095 
L 283.211283 132.258227 
L 294.371283 134.278975 
L 305.531283 133.154108 
L 316.691283 136.840532 
L 327.851283 144.226753 
L 339.011283 157.561103 
L 350.171283 155.73141 
L 361.331283 141.53882 
L 372.491283 135.351883 
L 383.651283 147.361088 
L 394.811283 158.157629 
L 405.971283 161.506298 
" clip-path="url(#p8084aa59e5)" style="fill: none; stroke: #ff7f0e; stroke-width: 1.5; stroke-linecap: square"/>
   </g>
   <g id="line2d_10">
    <path d="M 82.331283 285.37598 
L 82.331283 19.26398 
" clip-path="url(#p8084aa59e5)" style="fill: none; stroke-dasharray: 5.55,2.4; stroke-dashoffset: 0; stroke: #000000; stroke-opacity: 0.5; stroke-width: 1.5"/>
   </g>
   <g id="line2d_11">
    <path d="M 383.651283 285.37598 
L 383.651283 19.26398 
" clip-path="url(#p8084aa59e5)" style="fill: none; stroke-dasharray: 5.55,2.4; stroke-dashoffset: 0; stroke: #000000; stroke-opacity: 0.5; stroke-width: 1.5"/>
   </g>
   <g id="patch_3">
    <path d="M 48.851283 285.37598 
L 405.971283 285.37598 
" style="fill: none; stroke: #000000; stroke-width: 0.8; stroke-linejoin: miter; stroke-linecap: square"/>
   </g>
   <g id="text_10">
    <text style="font: 6.94px 'Arial', sans-serif" transform="translate(10.097767 321.385533) rotate(-35)">-0.1s Sampling</text>
   </g>
   <g id="text_11">
    <text style="font: 6.94px 'Arial', sans-serif" transform="translate(57.794497 311.430872) rotate(-35)">Sampling</text>
   </g>
   <g id="text_12">
    <text style="font: 6.94px 'Arial', sans-serif" transform="translate(319.037191 339.456682) rotate(-35)">Movement to Lateral Port</text>
   </g>
   <g id="text_13">
    <text style="font: 8.33px 'Arial', sans-serif; text-anchor: middle" x="227.411283" y="13.26398" transform="rotate(-0 227.411283 13.26398)">GP4_24_s4_L85_D250_M2 - Trace:23_GP4_24_s4_L85_D250_M2 (when: correct)</text>
   </g>
   <g id="legend_1">
    <g id="patch_4">
     <path d="M 133.696342 354.133136 
L 321.126224 354.133136 
Q 322.514224 354.133136 322.514224 352.745136 
L 322.514224 343.45638 
Q 322.514224 342.06838 321.126224 342.06838 
L 133.696342 342.06838 
Q 132.308342 342.06838 132.308342 343.45638 
L 132.308342 352.745136 
Q 132.308342 354.133136 133.696342 354.133136 
z
" style="fill: #ffffff; opacity: 0.8; stroke: #cccccc; stroke-linejoin: miter"/>
    </g>
    <g id="line2d_12">
     <path d="M 135.084342 347.467483 
L 142.024342 347.467483 
L 148.964342 347.467483 
" style="fill: none; stroke: #1f77b4; stroke-width: 1.5; stroke-linecap: square"/>
    </g>
    <g id="text_14">
     <text style="font: 6.94px 'Arial', sans-serif; text-anchor: start" x="154.516342" y="349.896483" transform="rotate(-0 154.516342 349.896483)">DecisionRight (65 pts)</text>
    </g>
    <g id="line2d_13">
     <path d="M 236.664255 347.467483 
L 243.604255 347.467483 
L 250.544255 347.467483 
" style="fill: none; stroke: #ff7f0e; stroke-width: 1.5; stroke-linecap: square"/>
    </g>
    <g id="text_15">
     <text style="font: 6.94px 'Arial', sans-serif; text-anchor: start" x="256.096255" y="349.896483" transform="rotate(-0 256.096255 349.896483)">DecisionLeft (69 pts)</text>
    </g>
   </g>
  </g>
 </g>
 <defs>
  <clipPath id="p8084aa59e5">
   <rect x="48.851283" y="19.26398" width="357.12" height="266.112"/>
  </clipPath>
 </defs>
</svg>
