<?xml version="1.0" encoding="utf-8" standalone="no"?>
<!DOCTYPE svg PUBLIC "-//W3C//DTD SVG 1.1//EN"
  "http://www.w3.org/Graphics/SVG/1.1/DTD/svg11.dtd">
<svg xmlns:xlink="http://www.w3.org/1999/xlink" width="413.171283pt" height="361.333136pt" viewBox="0 0 413.171283 361.333136" xmlns="http://www.w3.org/2000/svg" version="1.1">
 <metadata>
  <rdf:RDF xmlns:dc="http://purl.org/dc/elements/1.1/" xmlns:cc="http://creativecommons.org/ns#" xmlns:rdf="http://www.w3.org/1999/02/22-rdf-syntax-ns#">
   <cc:Work>
    <dc:type rdf:resource="http://purl.org/dc/dcmitype/StillImage"/>
    <dc:date>2025-12-29T04:07:17.457969</dc:date>
    <dc:format>image/svg+xml</dc:format>
    <dc:creator>
     <cc:Agent>
      <dc:title>Matplotlib v3.8.0, https://matplotlib.org/</dc:title>
     </cc:Agent>
    </dc:creator>
   </cc:Work>
  </rdf:RDF>
 </metadata>
 <defs>
  <style type="text/css">*{stroke-linejoin: round; stroke-linecap: butt}</style>
 </defs>
 <g id="figure_1">
  <g id="patch_1">
   <path d="M 0 361.333136 
L 413.171283 361.333136 
L 413.171283 -0 
L 0 -0 
z
" style="fill: #ffffff"/>
  </g>
  <g id="axes_1">
   <g id="patch_2">
    <path d="M 48.851283 285.37598 
L 405.971283 285.37598 
L 405.971283 19.26398 
L 48.851283 19.26398 
z
" style="fill: #ffffff"/>
   </g>
   <g id="PolyCollection_1">
    <defs>
     <path id="m3437358226" d="M 48.851283 -146.195098 
L 48.851283 -105.513037 
L 60.011283 -133.137141 
L 71.171283 -164.767121 
L 82.331283 -193.054973 
L 93.491283 -210.208251 
L 104.651283 -219.046648 
L 115.811283 -218.592066 
L 126.971283 -217.449021 
L 138.131283 -216.546013 
L 149.291283 -217.196287 
L 160.451283 -208.956664 
L 171.611283 -204.09859 
L 182.771283 -202.802207 
L 193.931283 -195.826404 
L 205.091283 -184.148269 
L 216.251283 -177.757052 
L 227.411283 -172.440367 
L 238.571283 -163.390287 
L 249.731283 -157.555276 
L 260.891283 -149.234467 
L 272.051283 -142.468154 
L 283.211283 -135.333372 
L 294.371283 -126.554208 
L 305.531283 -120.47107 
L 316.691283 -115.756617 
L 327.851283 -113.122923 
L 339.011283 -112.383769 
L 350.171283 -113.317744 
L 361.331283 -115.585448 
L 372.491283 -113.866406 
L 383.651283 -109.639424 
L 394.811283 -100.964125 
L 405.971283 -88.053156 
L 405.971283 -128.026779 
L 405.971283 -128.026779 
L 394.811283 -144.264022 
L 383.651283 -154.884533 
L 372.491283 -159.751423 
L 361.331283 -161.361011 
L 350.171283 -159.007137 
L 339.011283 -157.18563 
L 327.851283 -157.726648 
L 316.691283 -161.519189 
L 305.531283 -169.055064 
L 294.371283 -177.488457 
L 283.211283 -187.662243 
L 272.051283 -195.489207 
L 260.891283 -203.34972 
L 249.731283 -212.366915 
L 238.571283 -219.214497 
L 227.411283 -229.243167 
L 216.251283 -234.918768 
L 205.091283 -242.340027 
L 193.931283 -256.676298 
L 182.771283 -264.968067 
L 171.611283 -265.295318 
L 160.451283 -271.697577 
L 149.291283 -282.588053 
L 138.131283 -281.893628 
L 126.971283 -281.463311 
L 115.811283 -282.235694 
L 104.651283 -283.4614 
L 93.491283 -273.99493 
L 82.331283 -254.91255 
L 71.171283 -220.60594 
L 60.011283 -181.128409 
L 48.851283 -146.195098 
z
" style="stroke: #1f77b4; stroke-opacity: 0.2"/>
    </defs>
    <g clip-path="url(#pac9deb65c1)">
     <use xlink:href="#m3437358226" x="0" y="361.333136" style="fill: #1f77b4; fill-opacity: 0.2; stroke: #1f77b4; stroke-opacity: 0.2"/>
    </g>
   </g>
   <g id="PolyCollection_2">
    <defs>
     <path id="ma5a19cd381" d="M 48.851283 -146.844947 
L 48.851283 -112.52605 
L 60.011283 -147.269889 
L 71.171283 -184.462209 
L 82.331283 -220.906197 
L 93.491283 -241.53474 
L 104.651283 -256.49662 
L 115.811283 -267.210234 
L 126.971283 -268.137294 
L 138.131283 -266.46874 
L 149.291283 -261.901914 
L 160.451283 -252.775581 
L 171.611283 -243.43499 
L 182.771283 -236.752708 
L 193.931283 -232.569824 
L 205.091283 -225.691257 
L 216.251283 -218.036719 
L 227.411283 -210.833274 
L 238.571283 -203.924357 
L 249.731283 -197.71777 
L 260.891283 -191.284185 
L 272.051283 -182.457089 
L 283.211283 -173.255681 
L 294.371283 -166.520242 
L 305.531283 -158.0517 
L 316.691283 -149.700866 
L 327.851283 -147.483723 
L 339.011283 -148.90161 
L 350.171283 -148.70484 
L 361.331283 -141.198455 
L 372.491283 -138.479076 
L 383.651283 -133.633386 
L 394.811283 -127.446741 
L 405.971283 -119.834688 
L 405.971283 -159.155137 
L 405.971283 -159.155137 
L 394.811283 -168.280169 
L 383.651283 -176.367571 
L 372.491283 -181.489605 
L 361.331283 -183.897222 
L 350.171283 -191.162652 
L 339.011283 -192.311158 
L 327.851283 -192.56161 
L 316.691283 -196.103654 
L 305.531283 -205.748191 
L 294.371283 -215.675322 
L 283.211283 -223.538939 
L 272.051283 -233.540214 
L 260.891283 -243.718735 
L 249.731283 -250.861721 
L 238.571283 -256.738096 
L 227.411283 -265.208711 
L 216.251283 -273.440878 
L 205.091283 -281.095529 
L 193.931283 -288.027489 
L 182.771283 -293.536062 
L 171.611283 -301.799374 
L 160.451283 -312.699278 
L 149.291283 -322.027113 
L 138.131283 -327.155797 
L 126.971283 -329.973156 
L 115.811283 -329.105953 
L 104.651283 -315.760546 
L 93.491283 -297.125025 
L 82.331283 -272.638535 
L 71.171283 -230.129388 
L 60.011283 -186.637787 
L 48.851283 -146.844947 
z
" style="stroke: #ff7f0e; stroke-opacity: 0.2"/>
    </defs>
    <g clip-path="url(#pac9deb65c1)">
     <use xlink:href="#ma5a19cd381" x="0" y="361.333136" style="fill: #ff7f0e; fill-opacity: 0.2; stroke: #ff7f0e; stroke-opacity: 0.2"/>
    </g>
   </g>
   <g id="matplotlib.axis_1">
    <g id="text_1">
     <text style="font: 10px 'Arial', sans-serif; text-anchor: middle" x="227.411283" y="296.533792" transform="rotate(-0 227.411283 296.533792)">Time</text>
    </g>
   </g>
   <g id="matplotlib.axis_2">
    <g id="ytick_1">
     <g id="line2d_1">
      <defs>
       <path id="m1c325b23b3" d="M 0 0 
L -3.5 0 
" style="stroke: #000000; stroke-width: 0.8"/>
      </defs>
      <g>
       <use xlink:href="#m1c325b23b3" x="48.851283" y="251.876485" style="stroke: #000000; stroke-width: 0.8"/>
      </g>
     </g>
     <g id="text_2">
      <text style="font: 10px 'Arial', sans-serif; text-anchor: end" x="41.851283" y="255.455392" transform="rotate(-0 41.851283 255.455392)">−0.2</text>
     </g>
    </g>
    <g id="ytick_2">
     <g id="line2d_2">
      <g>
       <use xlink:href="#m1c325b23b3" x="48.851283" y="216.08761" style="stroke: #000000; stroke-width: 0.8"/>
      </g>
     </g>
     <g id="text_3">
      <text style="font: 10px 'Arial', sans-serif; text-anchor: end" x="41.851283" y="219.666516" transform="rotate(-0 41.851283 219.666516)">0.0</text>
     </g>
    </g>
    <g id="ytick_3">
     <g id="line2d_3">
      <g>
       <use xlink:href="#m1c325b23b3" x="48.851283" y="180.298734" style="stroke: #000000; stroke-width: 0.8"/>
      </g>
     </g>
     <g id="text_4">
      <text style="font: 10px 'Arial', sans-serif; text-anchor: end" x="41.851283" y="183.87764" transform="rotate(-0 41.851283 183.87764)">0.2</text>
     </g>
    </g>
    <g id="ytick_4">
     <g id="line2d_4">
      <g>
       <use xlink:href="#m1c325b23b3" x="48.851283" y="144.509858" style="stroke: #000000; stroke-width: 0.8"/>
      </g>
     </g>
     <g id="text_5">
      <text style="font: 10px 'Arial', sans-serif; text-anchor: end" x="41.851283" y="148.088765" transform="rotate(-0 41.851283 148.088765)">0.4</text>
     </g>
    </g>
    <g id="ytick_5">
     <g id="line2d_5">
      <g>
       <use xlink:href="#m1c325b23b3" x="48.851283" y="108.720983" style="stroke: #000000; stroke-width: 0.8"/>
      </g>
     </g>
     <g id="text_6">
      <text style="font: 10px 'Arial', sans-serif; text-anchor: end" x="41.851283" y="112.299889" transform="rotate(-0 41.851283 112.299889)">0.6</text>
     </g>
    </g>
    <g id="ytick_6">
     <g id="line2d_6">
      <g>
       <use xlink:href="#m1c325b23b3" x="48.851283" y="72.932107" style="stroke: #000000; stroke-width: 0.8"/>
      </g>
     </g>
     <g id="text_7">
      <text style="font: 10px 'Arial', sans-serif; text-anchor: end" x="41.851283" y="76.511013" transform="rotate(-0 41.851283 76.511013)">0.8</text>
     </g>
    </g>
    <g id="ytick_7">
     <g id="line2d_7">
      <g>
       <use xlink:href="#m1c325b23b3" x="48.851283" y="37.143231" style="stroke: #000000; stroke-width: 0.8"/>
      </g>
     </g>
     <g id="text_8">
      <text style="font: 10px 'Arial', sans-serif; text-anchor: end" x="41.851283" y="40.722138" transform="rotate(-0 41.851283 40.722138)">1.0</text>
     </g>
    </g>
    <g id="text_9">
     <text style="font: 10px 'Arial', sans-serif; text-anchor: middle" x="16.005971" y="152.31998" transform="rotate(-90 16.005971 152.31998)">Activity</text>
    </g>
   </g>
   <g id="line2d_8">
    <path d="M 48.851283 235.479069 
L 60.011283 204.200361 
L 71.171283 168.646607 
L 82.331283 137.349375 
L 93.491283 119.231545 
L 104.651283 110.079112 
L 115.811283 110.919256 
L 126.971283 111.87697 
L 138.131283 112.113316 
L 149.291283 111.440968 
L 160.451283 121.006013 
L 171.611283 126.636182 
L 182.771283 127.447997 
L 193.931283 135.081785 
L 205.091283 148.088987 
L 216.251283 154.995226 
L 227.411283 160.491367 
L 238.571283 170.030744 
L 249.731283 176.372042 
L 260.891283 185.041042 
L 272.051283 192.354456 
L 283.211283 199.835328 
L 294.371283 209.311802 
L 305.531283 216.570069 
L 316.691283 222.695233 
L 327.851283 225.908351 
L 339.011283 226.548436 
L 350.171283 225.170696 
L 361.331283 222.859907 
L 372.491283 224.524222 
L 383.651283 229.071157 
L 394.811283 238.719062 
L 405.971283 253.293168 
" clip-path="url(#pac9deb65c1)" style="fill: none; stroke: #1f77b4; stroke-width: 1.5; stroke-linecap: square"/>
   </g>
   <g id="line2d_9">
    <path d="M 48.851283 231.647637 
L 60.011283 194.379299 
L 71.171283 154.037336 
L 82.331283 114.56077 
L 93.491283 92.003254 
L 104.651283 75.204553 
L 115.811283 63.175042 
L 126.971283 62.277911 
L 138.131283 64.520867 
L 149.291283 69.368622 
L 160.451283 78.595706 
L 171.611283 88.715954 
L 182.771283 96.188751 
L 193.931283 101.034479 
L 205.091283 107.939743 
L 216.251283 115.59434 
L 227.411283 123.312144 
L 238.571283 131.001907 
L 249.731283 137.043391 
L 260.891283 143.831676 
L 272.051283 153.334484 
L 283.211283 162.935825 
L 294.371283 170.235354 
L 305.531283 179.433189 
L 316.691283 188.430876 
L 327.851283 191.310468 
L 339.011283 190.726752 
L 350.171283 191.39939 
L 361.331283 198.785298 
L 372.491283 201.348795 
L 383.651283 206.332658 
L 394.811283 213.46968 
L 405.971283 221.838223 
" clip-path="url(#pac9deb65c1)" style="fill: none; stroke: #ff7f0e; stroke-width: 1.5; stroke-linecap: square"/>
   </g>
   <g id="line2d_10">
    <path d="M 82.331283 285.37598 
L 82.331283 19.26398 
" clip-path="url(#pac9deb65c1)" style="fill: none; stroke-dasharray: 5.55,2.4; stroke-dashoffset: 0; stroke: #000000; stroke-opacity: 0.5; stroke-width: 1.5"/>
   </g>
   <g id="line2d_11">
    <path d="M 383.651283 285.37598 
L 383.651283 19.26398 
" clip-path="url(#pac9deb65c1)" style="fill: none; stroke-dasharray: 5.55,2.4; stroke-dashoffset: 0; stroke: #000000; stroke-opacity: 0.5; stroke-width: 1.5"/>
   </g>
   <g id="patch_3">
    <path d="M 48.851283 285.37598 
L 405.971283 285.37598 
" style="fill: none; stroke: #000000; stroke-width: 0.8; stroke-linejoin: miter; stroke-linecap: square"/>
   </g>
   <g id="text_10">
    <text style="font: 6.94px 'Arial', sans-serif" transform="translate(10.097767 321.385533) rotate(-35)">-0.1s Sampling</text>
   </g>
   <g id="text_11">
    <text style="font: 6.94px 'Arial', sans-serif" transform="translate(57.794497 311.430872) rotate(-35)">Sampling</text>
   </g>
   <g id="text_12">
    <text style="font: 6.94px 'Arial', sans-serif" transform="translate(319.037191 339.456682) rotate(-35)">Movement to Lateral Port</text>
   </g>
   <g id="text_13">
    <text style="font: 8.33px 'Arial', sans-serif; text-anchor: middle" x="227.411283" y="13.26398" transform="rotate(-0 227.411283 13.26398)">GP4_24_s4_L85_D250_M2 - Trace:43_GP4_24_s4_L85_D250_M2 (when: correct)</text>
   </g>
   <g id="legend_1">
    <g id="patch_4">
     <path d="M 133.696342 354.133136 
L 321.126224 354.133136 
Q 322.514224 354.133136 322.514224 352.745136 
L 322.514224 343.45638 
Q 322.514224 342.06838 321.126224 342.06838 
L 133.696342 342.06838 
Q 132.308342 342.06838 132.308342 343.45638 
L 132.308342 352.745136 
Q 132.308342 354.133136 133.696342 354.133136 
z
" style="fill: #ffffff; opacity: 0.8; stroke: #cccccc; stroke-linejoin: miter"/>
    </g>
    <g id="line2d_12">
     <path d="M 135.084342 347.467483 
L 142.024342 347.467483 
L 148.964342 347.467483 
" style="fill: none; stroke: #1f77b4; stroke-width: 1.5; stroke-linecap: square"/>
    </g>
    <g id="text_14">
     <text style="font: 6.94px 'Arial', sans-serif; text-anchor: start" x="154.516342" y="349.896483" transform="rotate(-0 154.516342 349.896483)">DecisionRight (65 pts)</text>
    </g>
    <g id="line2d_13">
     <path d="M 236.664255 347.467483 
L 243.604255 347.467483 
L 250.544255 347.467483 
" style="fill: none; stroke: #ff7f0e; stroke-width: 1.5; stroke-linecap: square"/>
    </g>
    <g id="text_15">
     <text style="font: 6.94px 'Arial', sans-serif; text-anchor: start" x="256.096255" y="349.896483" transform="rotate(-0 256.096255 349.896483)">DecisionLeft (69 pts)</text>
    </g>
   </g>
  </g>
 </g>
 <defs>
  <clipPath id="pac9deb65c1">
   <rect x="48.851283" y="19.26398" width="357.12" height="266.112"/>
  </clipPath>
 </defs>
</svg>
