<?xml version="1.0" encoding="utf-8" standalone="no"?>
<!DOCTYPE svg PUBLIC "-//W3C//DTD SVG 1.1//EN"
  "http://www.w3.org/Graphics/SVG/1.1/DTD/svg11.dtd">
<svg xmlns:xlink="http://www.w3.org/1999/xlink" width="413.171283pt" height="361.333136pt" viewBox="0 0 413.171283 361.333136" xmlns="http://www.w3.org/2000/svg" version="1.1">
 <metadata>
  <rdf:RDF xmlns:dc="http://purl.org/dc/elements/1.1/" xmlns:cc="http://creativecommons.org/ns#" xmlns:rdf="http://www.w3.org/1999/02/22-rdf-syntax-ns#">
   <cc:Work>
    <dc:type rdf:resource="http://purl.org/dc/dcmitype/StillImage"/>
    <dc:date>2025-12-29T04:07:17.074872</dc:date>
    <dc:format>image/svg+xml</dc:format>
    <dc:creator>
     <cc:Agent>
      <dc:title>Matplotlib v3.8.0, https://matplotlib.org/</dc:title>
     </cc:Agent>
    </dc:creator>
   </cc:Work>
  </rdf:RDF>
 </metadata>
 <defs>
  <style type="text/css">*{stroke-linejoin: round; stroke-linecap: butt}</style>
 </defs>
 <g id="figure_1">
  <g id="patch_1">
   <path d="M 0 361.333136 
L 413.171283 361.333136 
L 413.171283 -0 
L 0 -0 
z
" style="fill: #ffffff"/>
  </g>
  <g id="axes_1">
   <g id="patch_2">
    <path d="M 48.851283 285.37598 
L 405.971283 285.37598 
L 405.971283 19.26398 
L 48.851283 19.26398 
z
" style="fill: #ffffff"/>
   </g>
   <g id="PolyCollection_1">
    <defs>
     <path id="m22f254b246" d="M 48.851283 -235.99094 
L 48.851283 -152.784188 
L 60.011283 -191.591692 
L 71.171283 -222.472523 
L 82.331283 -233.589637 
L 93.491283 -236.253099 
L 104.651283 -226.519777 
L 115.811283 -222.599446 
L 126.971283 -228.301836 
L 138.131283 -223.760217 
L 149.291283 -205.290704 
L 160.451283 -192.718572 
L 171.611283 -194.451709 
L 182.771283 -196.798004 
L 193.931283 -190.44768 
L 205.091283 -171.982675 
L 216.251283 -175.943555 
L 227.411283 -163.458579 
L 238.571283 -154.510667 
L 249.731283 -163.024829 
L 260.891283 -146.731657 
L 272.051283 -137.766807 
L 283.211283 -142.239696 
L 294.371283 -129.807203 
L 305.531283 -129.396027 
L 316.691283 -145.27664 
L 327.851283 -152.532038 
L 339.011283 -149.142909 
L 350.171283 -129.45915 
L 361.331283 -118.402484 
L 372.491283 -115.853818 
L 383.651283 -112.440747 
L 394.811283 -100.265828 
L 405.971283 -88.053156 
L 405.971283 -158.188497 
L 405.971283 -158.188497 
L 394.811283 -173.687527 
L 383.651283 -190.432605 
L 372.491283 -195.955798 
L 361.331283 -199.465178 
L 350.171283 -204.135298 
L 339.011283 -215.632688 
L 327.851283 -215.456438 
L 316.691283 -213.527346 
L 305.531283 -198.599977 
L 294.371283 -197.72926 
L 283.211283 -206.515996 
L 272.051283 -197.208309 
L 260.891283 -206.645324 
L 249.731283 -223.189909 
L 238.571283 -215.0596 
L 227.411283 -223.728114 
L 216.251283 -239.248441 
L 205.091283 -239.436384 
L 193.931283 -257.100769 
L 182.771283 -264.381898 
L 171.611283 -264.907283 
L 160.451283 -264.946059 
L 149.291283 -276.317285 
L 138.131283 -294.418689 
L 126.971283 -302.594582 
L 115.811283 -301.938817 
L 104.651283 -314.540376 
L 93.491283 -329.973156 
L 82.331283 -328.58786 
L 71.171283 -315.320526 
L 60.011283 -278.940775 
L 48.851283 -235.99094 
z
" style="stroke: #1f77b4; stroke-opacity: 0.2"/>
    </defs>
    <g clip-path="url(#p63d22303a3)">
     <use xlink:href="#m22f254b246" x="0" y="361.333136" style="fill: #1f77b4; fill-opacity: 0.2; stroke: #1f77b4; stroke-opacity: 0.2"/>
    </g>
   </g>
   <g id="PolyCollection_2">
    <defs>
     <path id="m7915eac789" d="M 48.851283 -280.597413 
L 48.851283 -208.017785 
L 60.011283 -224.517597 
L 71.171283 -235.953035 
L 82.331283 -221.908978 
L 93.491283 -207.559341 
L 104.651283 -204.154236 
L 115.811283 -194.276947 
L 126.971283 -198.991314 
L 138.131283 -195.149663 
L 149.291283 -186.011673 
L 160.451283 -177.800476 
L 171.611283 -164.96895 
L 182.771283 -145.613405 
L 193.931283 -128.840087 
L 205.091283 -124.313482 
L 216.251283 -133.229652 
L 227.411283 -139.433725 
L 238.571283 -135.650779 
L 249.731283 -120.887727 
L 260.891283 -116.407774 
L 272.051283 -117.778281 
L 283.211283 -111.613826 
L 294.371283 -106.412849 
L 305.531283 -108.552474 
L 316.691283 -108.167569 
L 327.851283 -113.757779 
L 339.011283 -128.845527 
L 350.171283 -133.3155 
L 361.331283 -130.952778 
L 372.491283 -121.643889 
L 383.651283 -112.026204 
L 394.811283 -109.326191 
L 405.971283 -122.970239 
L 405.971283 -181.170938 
L 405.971283 -181.170938 
L 394.811283 -161.986428 
L 383.651283 -159.204895 
L 372.491283 -167.59574 
L 361.331283 -174.985532 
L 350.171283 -174.378191 
L 339.011283 -169.268174 
L 327.851283 -151.585257 
L 316.691283 -142.712733 
L 305.531283 -141.30342 
L 294.371283 -137.55907 
L 283.211283 -144.088109 
L 272.051283 -153.760757 
L 260.891283 -153.162434 
L 249.731283 -158.282777 
L 238.571283 -167.542265 
L 227.411283 -172.61755 
L 216.251283 -168.362017 
L 205.091283 -161.881748 
L 193.931283 -171.084559 
L 182.771283 -196.886873 
L 171.611283 -218.151281 
L 160.451283 -229.082301 
L 149.291283 -237.47274 
L 138.131283 -250.236647 
L 126.971283 -256.848139 
L 115.811283 -254.645826 
L 104.651283 -267.565951 
L 93.491283 -272.968081 
L 82.331283 -294.193878 
L 71.171283 -311.72426 
L 60.011283 -297.292638 
L 48.851283 -280.597413 
z
" style="stroke: #ff7f0e; stroke-opacity: 0.2"/>
    </defs>
    <g clip-path="url(#p63d22303a3)">
     <use xlink:href="#m7915eac789" x="0" y="361.333136" style="fill: #ff7f0e; fill-opacity: 0.2; stroke: #ff7f0e; stroke-opacity: 0.2"/>
    </g>
   </g>
   <g id="matplotlib.axis_1">
    <g id="text_1">
     <text style="font: 10px 'Arial', sans-serif; text-anchor: middle" x="227.411283" y="296.533792" transform="rotate(-0 227.411283 296.533792)">Time</text>
    </g>
   </g>
   <g id="matplotlib.axis_2">
    <g id="ytick_1">
     <g id="line2d_1">
      <defs>
       <path id="m878aa3985c" d="M 0 0 
L -3.5 0 
" style="stroke: #000000; stroke-width: 0.8"/>
      </defs>
      <g>
       <use xlink:href="#m878aa3985c" x="48.851283" y="266.345794" style="stroke: #000000; stroke-width: 0.8"/>
      </g>
     </g>
     <g id="text_2">
      <text style="font: 10px 'Arial', sans-serif; text-anchor: end" x="41.851283" y="269.9247" transform="rotate(-0 41.851283 269.9247)">−0.6</text>
     </g>
    </g>
    <g id="ytick_2">
     <g id="line2d_2">
      <g>
       <use xlink:href="#m878aa3985c" x="48.851283" y="215.91528" style="stroke: #000000; stroke-width: 0.8"/>
      </g>
     </g>
     <g id="text_3">
      <text style="font: 10px 'Arial', sans-serif; text-anchor: end" x="41.851283" y="219.494186" transform="rotate(-0 41.851283 219.494186)">−0.5</text>
     </g>
    </g>
    <g id="ytick_3">
     <g id="line2d_3">
      <g>
       <use xlink:href="#m878aa3985c" x="48.851283" y="165.484765" style="stroke: #000000; stroke-width: 0.8"/>
      </g>
     </g>
     <g id="text_4">
      <text style="font: 10px 'Arial', sans-serif; text-anchor: end" x="41.851283" y="169.063672" transform="rotate(-0 41.851283 169.063672)">−0.4</text>
     </g>
    </g>
    <g id="ytick_4">
     <g id="line2d_4">
      <g>
       <use xlink:href="#m878aa3985c" x="48.851283" y="115.054251" style="stroke: #000000; stroke-width: 0.8"/>
      </g>
     </g>
     <g id="text_5">
      <text style="font: 10px 'Arial', sans-serif; text-anchor: end" x="41.851283" y="118.633158" transform="rotate(-0 41.851283 118.633158)">−0.3</text>
     </g>
    </g>
    <g id="ytick_5">
     <g id="line2d_5">
      <g>
       <use xlink:href="#m878aa3985c" x="48.851283" y="64.623737" style="stroke: #000000; stroke-width: 0.8"/>
      </g>
     </g>
     <g id="text_6">
      <text style="font: 10px 'Arial', sans-serif; text-anchor: end" x="41.851283" y="68.202644" transform="rotate(-0 41.851283 68.202644)">−0.2</text>
     </g>
    </g>
    <g id="text_7">
     <text style="font: 10px 'Arial', sans-serif; text-anchor: middle" x="16.005971" y="152.31998" transform="rotate(-90 16.005971 152.31998)">Activity</text>
    </g>
   </g>
   <g id="line2d_6">
    <path d="M 48.851283 166.945572 
L 60.011283 126.066902 
L 71.171283 92.436612 
L 82.331283 80.244387 
L 93.491283 78.220009 
L 104.651283 90.803059 
L 115.811283 99.064004 
L 126.971283 95.884927 
L 138.131283 102.243683 
L 149.291283 120.529146 
L 160.451283 132.50082 
L 171.611283 131.65364 
L 182.771283 130.743185 
L 193.931283 137.558911 
L 205.091283 155.623606 
L 216.251283 153.737138 
L 227.411283 167.739789 
L 238.571283 176.548002 
L 249.731283 168.225767 
L 260.891283 184.644645 
L 272.051283 193.845578 
L 283.211283 186.95529 
L 294.371283 197.564905 
L 305.531283 197.335134 
L 316.691283 181.931136 
L 327.851283 177.338898 
L 339.011283 178.945337 
L 350.171283 194.535912 
L 361.331283 202.399312 
L 372.491283 205.428336 
L 383.651283 209.89646 
L 394.811283 224.356458 
L 405.971283 238.212302 
" clip-path="url(#p63d22303a3)" style="fill: none; stroke: #1f77b4; stroke-width: 1.5; stroke-linecap: square"/>
   </g>
   <g id="line2d_7">
    <path d="M 48.851283 117.025537 
L 60.011283 100.428019 
L 71.171283 87.494488 
L 82.331283 103.281708 
L 93.491283 121.069425 
L 104.651283 125.473043 
L 115.811283 136.871749 
L 126.971283 133.413409 
L 138.131283 138.639981 
L 149.291283 149.59093 
L 160.451283 157.891748 
L 171.611283 169.77302 
L 182.771283 190.082997 
L 193.931283 211.370805 
L 205.091283 218.235528 
L 216.251283 210.537301 
L 227.411283 205.307499 
L 238.571283 209.736607 
L 249.731283 221.747884 
L 260.891283 226.548024 
L 272.051283 225.563625 
L 283.211283 233.482168 
L 294.371283 239.347176 
L 305.531283 236.405189 
L 316.691283 235.892985 
L 327.851283 228.661618 
L 339.011283 212.276286 
L 350.171283 207.48629 
L 361.331283 208.363981 
L 372.491283 216.713314 
L 383.651283 225.717586 
L 394.811283 225.676826 
L 405.971283 209.262547 
" clip-path="url(#p63d22303a3)" style="fill: none; stroke: #ff7f0e; stroke-width: 1.5; stroke-linecap: square"/>
   </g>
   <g id="line2d_8">
    <path d="M 82.331283 285.37598 
L 82.331283 19.26398 
" clip-path="url(#p63d22303a3)" style="fill: none; stroke-dasharray: 5.55,2.4; stroke-dashoffset: 0; stroke: #000000; stroke-opacity: 0.5; stroke-width: 1.5"/>
   </g>
   <g id="line2d_9">
    <path d="M 383.651283 285.37598 
L 383.651283 19.26398 
" clip-path="url(#p63d22303a3)" style="fill: none; stroke-dasharray: 5.55,2.4; stroke-dashoffset: 0; stroke: #000000; stroke-opacity: 0.5; stroke-width: 1.5"/>
   </g>
   <g id="patch_3">
    <path d="M 48.851283 285.37598 
L 405.971283 285.37598 
" style="fill: none; stroke: #000000; stroke-width: 0.8; stroke-linejoin: miter; stroke-linecap: square"/>
   </g>
   <g id="text_8">
    <text style="font: 6.94px 'Arial', sans-serif" transform="translate(10.097767 321.385533) rotate(-35)">-0.1s Sampling</text>
   </g>
   <g id="text_9">
    <text style="font: 6.94px 'Arial', sans-serif" transform="translate(57.794497 311.430872) rotate(-35)">Sampling</text>
   </g>
   <g id="text_10">
    <text style="font: 6.94px 'Arial', sans-serif" transform="translate(319.037191 339.456682) rotate(-35)">Movement to Lateral Port</text>
   </g>
   <g id="text_11">
    <text style="font: 8.33px 'Arial', sans-serif; text-anchor: middle" x="227.411283" y="13.26398" transform="rotate(-0 227.411283 13.26398)">GP4_24_s4_L85_D250_M2 - Trace:48_GP4_24_s4_L85_D250_M2 (when: correct)</text>
   </g>
   <g id="legend_1">
    <g id="patch_4">
     <path d="M 133.696342 354.133136 
L 321.126224 354.133136 
Q 322.514224 354.133136 322.514224 352.745136 
L 322.514224 343.45638 
Q 322.514224 342.06838 321.126224 342.06838 
L 133.696342 342.06838 
Q 132.308342 342.06838 132.308342 343.45638 
L 132.308342 352.745136 
Q 132.308342 354.133136 133.696342 354.133136 
z
" style="fill: #ffffff; opacity: 0.8; stroke: #cccccc; stroke-linejoin: miter"/>
    </g>
    <g id="line2d_10">
     <path d="M 135.084342 347.467483 
L 142.024342 347.467483 
L 148.964342 347.467483 
" style="fill: none; stroke: #1f77b4; stroke-width: 1.5; stroke-linecap: square"/>
    </g>
    <g id="text_12">
     <text style="font: 6.94px 'Arial', sans-serif; text-anchor: start" x="154.516342" y="349.896483" transform="rotate(-0 154.516342 349.896483)">DecisionRight (65 pts)</text>
    </g>
    <g id="line2d_11">
     <path d="M 236.664255 347.467483 
L 243.604255 347.467483 
L 250.544255 347.467483 
" style="fill: none; stroke: #ff7f0e; stroke-width: 1.5; stroke-linecap: square"/>
    </g>
    <g id="text_13">
     <text style="font: 6.94px 'Arial', sans-serif; text-anchor: start" x="256.096255" y="349.896483" transform="rotate(-0 256.096255 349.896483)">DecisionLeft (69 pts)</text>
    </g>
   </g>
  </g>
 </g>
 <defs>
  <clipPath id="p63d22303a3">
   <rect x="48.851283" y="19.26398" width="357.12" height="266.112"/>
  </clipPath>
 </defs>
</svg>
