<?xml version="1.0" encoding="utf-8" standalone="no"?>
<!DOCTYPE svg PUBLIC "-//W3C//DTD SVG 1.1//EN"
  "http://www.w3.org/Graphics/SVG/1.1/DTD/svg11.dtd">
<svg xmlns:xlink="http://www.w3.org/1999/xlink" width="417.084062pt" height="361.333136pt" viewBox="0 0 417.084062 361.333136" xmlns="http://www.w3.org/2000/svg" version="1.1">
 <metadata>
  <rdf:RDF xmlns:dc="http://purl.org/dc/elements/1.1/" xmlns:cc="http://creativecommons.org/ns#" xmlns:rdf="http://www.w3.org/1999/02/22-rdf-syntax-ns#">
   <cc:Work>
    <dc:type rdf:resource="http://purl.org/dc/dcmitype/StillImage"/>
    <dc:date>2025-12-29T04:07:16.814000</dc:date>
    <dc:format>image/svg+xml</dc:format>
    <dc:creator>
     <cc:Agent>
      <dc:title>Matplotlib v3.8.0, https://matplotlib.org/</dc:title>
     </cc:Agent>
    </dc:creator>
   </cc:Work>
  </rdf:RDF>
 </metadata>
 <defs>
  <style type="text/css">*{stroke-linejoin: round; stroke-linecap: butt}</style>
 </defs>
 <g id="figure_1">
  <g id="patch_1">
   <path d="M 0 361.333136 
L 417.084062 361.333136 
L 417.084062 -0 
L 0 -0 
z
" style="fill: #ffffff"/>
  </g>
  <g id="axes_1">
   <g id="patch_2">
    <path d="M 52.764063 285.37598 
L 409.884063 285.37598 
L 409.884063 19.26398 
L 52.764063 19.26398 
z
" style="fill: #ffffff"/>
   </g>
   <g id="PolyCollection_1">
    <defs>
     <path id="m0c047fb549" d="M 52.764063 -116.268073 
L 52.764063 -98.185544 
L 63.924063 -115.84884 
L 75.084063 -136.239715 
L 86.244063 -165.483804 
L 97.404063 -190.807924 
L 108.564063 -211.862928 
L 119.724063 -224.705523 
L 130.884063 -233.222063 
L 142.044062 -239.918492 
L 153.204063 -241.13966 
L 164.364063 -240.386175 
L 175.524063 -238.771497 
L 186.684063 -233.793996 
L 197.844063 -229.104005 
L 209.004063 -223.956062 
L 220.164062 -214.939781 
L 231.324063 -214.688231 
L 242.484062 -211.869757 
L 253.644063 -200.999432 
L 264.804062 -191.622039 
L 275.964063 -184.813246 
L 287.124063 -178.969488 
L 298.284063 -171.06836 
L 309.444063 -162.402932 
L 320.604062 -155.033802 
L 331.764063 -148.161692 
L 342.924062 -143.615496 
L 354.084063 -137.396647 
L 365.244062 -132.189001 
L 376.404063 -126.864951 
L 387.564062 -118.093307 
L 398.724063 -105.191636 
L 409.884063 -88.053156 
L 409.884063 -104.860555 
L 409.884063 -104.860555 
L 398.724063 -125.613337 
L 387.564062 -143.148202 
L 376.404063 -155.156886 
L 365.244062 -162.026366 
L 354.084063 -168.776678 
L 342.924062 -175.352326 
L 331.764063 -180.741899 
L 320.604062 -188.876146 
L 309.444063 -197.022668 
L 298.284063 -206.053306 
L 287.124063 -215.835894 
L 275.964063 -224.131071 
L 264.804062 -232.665589 
L 253.644063 -243.872047 
L 242.484062 -255.808297 
L 231.324063 -259.184527 
L 220.164062 -260.208532 
L 209.004063 -269.589129 
L 197.844063 -276.242479 
L 186.684063 -281.593245 
L 175.524063 -286.995534 
L 164.364063 -288.87942 
L 153.204063 -290.031957 
L 142.044062 -289.136534 
L 130.884063 -280.053565 
L 119.724063 -269.702488 
L 108.564063 -255.590343 
L 97.404063 -230.746421 
L 86.244063 -200.305435 
L 75.084063 -163.749812 
L 63.924063 -137.508446 
L 52.764063 -116.268073 
z
" style="stroke: #1f77b4; stroke-opacity: 0.2"/>
    </defs>
    <g clip-path="url(#p06e3a97a10)">
     <use xlink:href="#m0c047fb549" x="0" y="361.333136" style="fill: #1f77b4; fill-opacity: 0.2; stroke: #1f77b4; stroke-opacity: 0.2"/>
    </g>
   </g>
   <g id="PolyCollection_2">
    <defs>
     <path id="m77ee205db5" d="M 52.764063 -120.490129 
L 52.764063 -101.953946 
L 63.924063 -118.502649 
L 75.084063 -139.478295 
L 86.244063 -171.268983 
L 97.404063 -202.14773 
L 108.564063 -225.947465 
L 119.724063 -243.66395 
L 130.884063 -260.342497 
L 142.044062 -272.464564 
L 153.204063 -279.514173 
L 164.364063 -283.155078 
L 175.524063 -284.671082 
L 186.684063 -282.242135 
L 197.844063 -274.793819 
L 209.004063 -266.215801 
L 220.164062 -261.948773 
L 231.324063 -257.852531 
L 242.484062 -251.389498 
L 253.644063 -243.235268 
L 264.804062 -233.327096 
L 275.964063 -226.238894 
L 287.124063 -222.104633 
L 298.284063 -214.678924 
L 309.444063 -207.356903 
L 320.604062 -198.84524 
L 331.764063 -192.304476 
L 342.924062 -178.997651 
L 354.084063 -167.486789 
L 365.244062 -157.791179 
L 376.404063 -145.337428 
L 387.564062 -125.929329 
L 398.724063 -112.894505 
L 409.884063 -110.966661 
L 409.884063 -126.958108 
L 409.884063 -126.958108 
L 398.724063 -130.301734 
L 387.564062 -146.48336 
L 376.404063 -170.23013 
L 365.244062 -185.248786 
L 354.084063 -196.864375 
L 342.924062 -210.033867 
L 331.764063 -224.363764 
L 320.604062 -231.84746 
L 309.444063 -240.656426 
L 298.284063 -248.875251 
L 287.124063 -257.547384 
L 275.964063 -263.045337 
L 264.804062 -270.949839 
L 253.644063 -281.168465 
L 242.484062 -290.200499 
L 231.324063 -298.522606 
L 220.164062 -303.203186 
L 209.004063 -308.324097 
L 197.844063 -317.958216 
L 186.684063 -326.108679 
L 175.524063 -329.973156 
L 164.364063 -328.71398 
L 153.204063 -324.78173 
L 142.044062 -316.106241 
L 130.884063 -301.519591 
L 119.724063 -282.377858 
L 108.564063 -262.606587 
L 97.404063 -236.109693 
L 86.244063 -201.440272 
L 75.084063 -165.019656 
L 63.924063 -139.901278 
L 52.764063 -120.490129 
z
" style="stroke: #ff7f0e; stroke-opacity: 0.2"/>
    </defs>
    <g clip-path="url(#p06e3a97a10)">
     <use xlink:href="#m77ee205db5" x="0" y="361.333136" style="fill: #ff7f0e; fill-opacity: 0.2; stroke: #ff7f0e; stroke-opacity: 0.2"/>
    </g>
   </g>
   <g id="matplotlib.axis_1">
    <g id="text_1">
     <text style="font: 10px 'Arial', sans-serif; text-anchor: middle" x="231.324063" y="296.533792" transform="rotate(-0 231.324063 296.533792)">Time</text>
    </g>
   </g>
   <g id="matplotlib.axis_2">
    <g id="ytick_1">
     <g id="line2d_1">
      <defs>
       <path id="mf23493c219" d="M 0 0 
L -3.5 0 
" style="stroke: #000000; stroke-width: 0.8"/>
      </defs>
      <g>
       <use xlink:href="#mf23493c219" x="52.764063" y="275.928297" style="stroke: #000000; stroke-width: 0.8"/>
      </g>
     </g>
     <g id="text_2">
      <text style="font: 10px 'Arial', sans-serif; text-anchor: end" x="45.764063" y="279.507203" transform="rotate(-0 45.764063 279.507203)">−0.50</text>
     </g>
    </g>
    <g id="ytick_2">
     <g id="line2d_2">
      <g>
       <use xlink:href="#mf23493c219" x="52.764063" y="240.651454" style="stroke: #000000; stroke-width: 0.8"/>
      </g>
     </g>
     <g id="text_3">
      <text style="font: 10px 'Arial', sans-serif; text-anchor: end" x="45.764063" y="244.23036" transform="rotate(-0 45.764063 244.23036)">−0.25</text>
     </g>
    </g>
    <g id="ytick_3">
     <g id="line2d_3">
      <g>
       <use xlink:href="#mf23493c219" x="52.764063" y="205.374611" style="stroke: #000000; stroke-width: 0.8"/>
      </g>
     </g>
     <g id="text_4">
      <text style="font: 10px 'Arial', sans-serif; text-anchor: end" x="45.764063" y="208.953517" transform="rotate(-0 45.764063 208.953517)">0.00</text>
     </g>
    </g>
    <g id="ytick_4">
     <g id="line2d_4">
      <g>
       <use xlink:href="#mf23493c219" x="52.764063" y="170.097768" style="stroke: #000000; stroke-width: 0.8"/>
      </g>
     </g>
     <g id="text_5">
      <text style="font: 10px 'Arial', sans-serif; text-anchor: end" x="45.764063" y="173.676674" transform="rotate(-0 45.764063 173.676674)">0.25</text>
     </g>
    </g>
    <g id="ytick_5">
     <g id="line2d_5">
      <g>
       <use xlink:href="#mf23493c219" x="52.764063" y="134.820925" style="stroke: #000000; stroke-width: 0.8"/>
      </g>
     </g>
     <g id="text_6">
      <text style="font: 10px 'Arial', sans-serif; text-anchor: end" x="45.764063" y="138.399831" transform="rotate(-0 45.764063 138.399831)">0.50</text>
     </g>
    </g>
    <g id="ytick_6">
     <g id="line2d_6">
      <g>
       <use xlink:href="#mf23493c219" x="52.764063" y="99.544082" style="stroke: #000000; stroke-width: 0.8"/>
      </g>
     </g>
     <g id="text_7">
      <text style="font: 10px 'Arial', sans-serif; text-anchor: end" x="45.764063" y="103.122988" transform="rotate(-0 45.764063 103.122988)">0.75</text>
     </g>
    </g>
    <g id="ytick_7">
     <g id="line2d_7">
      <g>
       <use xlink:href="#mf23493c219" x="52.764063" y="64.267239" style="stroke: #000000; stroke-width: 0.8"/>
      </g>
     </g>
     <g id="text_8">
      <text style="font: 10px 'Arial', sans-serif; text-anchor: end" x="45.764063" y="67.846145" transform="rotate(-0 45.764063 67.846145)">1.00</text>
     </g>
    </g>
    <g id="ytick_8">
     <g id="line2d_8">
      <g>
       <use xlink:href="#mf23493c219" x="52.764063" y="28.990395" style="stroke: #000000; stroke-width: 0.8"/>
      </g>
     </g>
     <g id="text_9">
      <text style="font: 10px 'Arial', sans-serif; text-anchor: end" x="45.764063" y="32.569302" transform="rotate(-0 45.764063 32.569302)">1.25</text>
     </g>
    </g>
    <g id="text_10">
     <text style="font: 10px 'Arial', sans-serif; text-anchor: middle" x="14.357813" y="152.31998" transform="rotate(-90 14.357813 152.31998)">Activity</text>
    </g>
   </g>
   <g id="line2d_9">
    <path d="M 52.764063 254.106328 
L 63.924063 234.654493 
L 75.084063 211.338373 
L 86.244063 178.438515 
L 97.404063 150.555965 
L 108.564063 127.606501 
L 119.724063 114.129133 
L 130.884063 104.695322 
L 142.044062 96.805623 
L 153.204063 95.747327 
L 164.364063 96.700338 
L 175.524063 98.44962 
L 186.684063 103.639515 
L 197.844063 108.659894 
L 209.004063 114.56054 
L 220.164062 123.758979 
L 231.324063 124.396759 
L 242.484062 127.494109 
L 253.644063 138.897397 
L 264.804062 149.189322 
L 275.964063 156.860978 
L 287.124063 163.930445 
L 298.284063 172.772304 
L 309.444063 181.620336 
L 320.604062 189.378162 
L 331.764063 196.88134 
L 342.924062 201.849225 
L 354.084063 208.246474 
L 365.244062 214.225453 
L 376.404063 220.322217 
L 387.564062 230.712381 
L 398.724063 245.93065 
L 409.884063 264.87628 
" clip-path="url(#p06e3a97a10)" style="fill: none; stroke: #1f77b4; stroke-width: 1.5; stroke-linecap: square"/>
   </g>
   <g id="line2d_10">
    <path d="M 52.764063 250.111098 
L 63.924063 232.131173 
L 75.084063 209.084161 
L 86.244063 174.978509 
L 97.404063 142.204424 
L 108.564063 117.056108 
L 119.724063 98.312232 
L 130.884063 80.402096 
L 142.044062 67.047734 
L 153.204063 59.185184 
L 164.364063 55.398607 
L 175.524063 54.011017 
L 186.684063 57.157729 
L 197.844063 64.957114 
L 209.004063 74.063187 
L 220.164062 78.757157 
L 231.324063 83.145567 
L 242.484062 90.538138 
L 253.644063 99.13127 
L 264.804062 109.194669 
L 275.964063 116.691018 
L 287.124063 121.507127 
L 298.284063 129.556048 
L 309.444063 137.326471 
L 320.604062 145.986788 
L 331.764063 152.999016 
L 342.924062 166.817377 
L 354.084063 179.157555 
L 365.244062 189.813153 
L 376.404063 203.549357 
L 387.564062 225.126792 
L 398.724063 239.735017 
L 409.884063 242.370752 
" clip-path="url(#p06e3a97a10)" style="fill: none; stroke: #ff7f0e; stroke-width: 1.5; stroke-linecap: square"/>
   </g>
   <g id="line2d_11">
    <path d="M 86.244063 285.37598 
L 86.244063 19.26398 
" clip-path="url(#p06e3a97a10)" style="fill: none; stroke-dasharray: 5.55,2.4; stroke-dashoffset: 0; stroke: #000000; stroke-opacity: 0.5; stroke-width: 1.5"/>
   </g>
   <g id="line2d_12">
    <path d="M 387.564062 285.37598 
L 387.564062 19.26398 
" clip-path="url(#p06e3a97a10)" style="fill: none; stroke-dasharray: 5.55,2.4; stroke-dashoffset: 0; stroke: #000000; stroke-opacity: 0.5; stroke-width: 1.5"/>
   </g>
   <g id="patch_3">
    <path d="M 52.764063 285.37598 
L 409.884063 285.37598 
" style="fill: none; stroke: #000000; stroke-width: 0.8; stroke-linejoin: miter; stroke-linecap: square"/>
   </g>
   <g id="text_11">
    <text style="font: 6.94px 'Arial', sans-serif" transform="translate(14.010547 321.385533) rotate(-35)">-0.1s Sampling</text>
   </g>
   <g id="text_12">
    <text style="font: 6.94px 'Arial', sans-serif" transform="translate(61.707276 311.430872) rotate(-35)">Sampling</text>
   </g>
   <g id="text_13">
    <text style="font: 6.94px 'Arial', sans-serif" transform="translate(322.94997 339.456682) rotate(-35)">Movement to Lateral Port</text>
   </g>
   <g id="text_14">
    <text style="font: 8.33px 'Arial', sans-serif; text-anchor: middle" x="231.324063" y="13.26398" transform="rotate(-0 231.324063 13.26398)">GP4_24_s4_L85_D250_M2 - Trace:58_GP4_24_s4_L85_D250_M2 (when: correct)</text>
   </g>
   <g id="legend_1">
    <g id="patch_4">
     <path d="M 137.609122 354.133136 
L 325.039003 354.133136 
Q 326.427003 354.133136 326.427003 352.745136 
L 326.427003 343.45638 
Q 326.427003 342.06838 325.039003 342.06838 
L 137.609122 342.06838 
Q 136.221122 342.06838 136.221122 343.45638 
L 136.221122 352.745136 
Q 136.221122 354.133136 137.609122 354.133136 
z
" style="fill: #ffffff; opacity: 0.8; stroke: #cccccc; stroke-linejoin: miter"/>
    </g>
    <g id="line2d_13">
     <path d="M 138.997122 347.467483 
L 145.937122 347.467483 
L 152.877122 347.467483 
" style="fill: none; stroke: #1f77b4; stroke-width: 1.5; stroke-linecap: square"/>
    </g>
    <g id="text_15">
     <text style="font: 6.94px 'Arial', sans-serif; text-anchor: start" x="158.429122" y="349.896483" transform="rotate(-0 158.429122 349.896483)">DecisionRight (65 pts)</text>
    </g>
    <g id="line2d_14">
     <path d="M 240.577034 347.467483 
L 247.517034 347.467483 
L 254.457034 347.467483 
" style="fill: none; stroke: #ff7f0e; stroke-width: 1.5; stroke-linecap: square"/>
    </g>
    <g id="text_16">
     <text style="font: 6.94px 'Arial', sans-serif; text-anchor: start" x="260.009034" y="349.896483" transform="rotate(-0 260.009034 349.896483)">DecisionLeft (69 pts)</text>
    </g>
   </g>
  </g>
 </g>
 <defs>
  <clipPath id="p06e3a97a10">
   <rect x="52.764063" y="19.26398" width="357.12" height="266.112"/>
  </clipPath>
 </defs>
</svg>
