<?xml version="1.0" encoding="utf-8" standalone="no"?>
<!DOCTYPE svg PUBLIC "-//W3C//DTD SVG 1.1//EN"
  "http://www.w3.org/Graphics/SVG/1.1/DTD/svg11.dtd">
<svg xmlns:xlink="http://www.w3.org/1999/xlink" width="413.171283pt" height="361.333136pt" viewBox="0 0 413.171283 361.333136" xmlns="http://www.w3.org/2000/svg" version="1.1">
 <metadata>
  <rdf:RDF xmlns:dc="http://purl.org/dc/elements/1.1/" xmlns:cc="http://creativecommons.org/ns#" xmlns:rdf="http://www.w3.org/1999/02/22-rdf-syntax-ns#">
   <cc:Work>
    <dc:type rdf:resource="http://purl.org/dc/dcmitype/StillImage"/>
    <dc:date>2025-12-29T04:07:16.975916</dc:date>
    <dc:format>image/svg+xml</dc:format>
    <dc:creator>
     <cc:Agent>
      <dc:title>Matplotlib v3.8.0, https://matplotlib.org/</dc:title>
     </cc:Agent>
    </dc:creator>
   </cc:Work>
  </rdf:RDF>
 </metadata>
 <defs>
  <style type="text/css">*{stroke-linejoin: round; stroke-linecap: butt}</style>
 </defs>
 <g id="figure_1">
  <g id="patch_1">
   <path d="M 0 361.333136 
L 413.171283 361.333136 
L 413.171283 -0 
L 0 -0 
z
" style="fill: #ffffff"/>
  </g>
  <g id="axes_1">
   <g id="patch_2">
    <path d="M 48.851283 285.37598 
L 405.971283 285.37598 
L 405.971283 19.26398 
L 48.851283 19.26398 
z
" style="fill: #ffffff"/>
   </g>
   <g id="PolyCollection_1">
    <defs>
     <path id="medac74c9b6" d="M 48.851283 -160.540398 
L 48.851283 -100.081152 
L 60.011283 -118.304025 
L 71.171283 -143.064694 
L 82.331283 -162.16852 
L 93.491283 -188.650226 
L 104.651283 -193.078852 
L 115.811283 -183.259732 
L 126.971283 -200.968423 
L 138.131283 -228.627172 
L 149.291283 -245.836201 
L 160.451283 -244.922513 
L 171.611283 -220.129806 
L 182.771283 -206.529954 
L 193.931283 -190.294128 
L 205.091283 -187.694214 
L 216.251283 -209.232107 
L 227.411283 -210.443103 
L 238.571283 -186.223962 
L 249.731283 -175.765529 
L 260.891283 -170.984512 
L 272.051283 -168.555546 
L 283.211283 -152.891375 
L 294.371283 -141.526084 
L 305.531283 -136.332973 
L 316.691283 -137.562889 
L 327.851283 -139.357861 
L 339.011283 -129.669388 
L 350.171283 -121.844003 
L 361.331283 -132.0988 
L 372.491283 -129.206015 
L 383.651283 -121.485892 
L 394.811283 -127.476329 
L 405.971283 -110.337628 
L 405.971283 -174.700385 
L 405.971283 -174.700385 
L 394.811283 -191.703591 
L 383.651283 -190.139473 
L 372.491283 -203.353525 
L 361.331283 -206.965517 
L 350.171283 -196.796183 
L 339.011283 -204.721652 
L 327.851283 -217.171868 
L 316.691283 -224.702412 
L 305.531283 -230.746128 
L 294.371283 -232.573973 
L 283.211283 -237.241916 
L 272.051283 -254.107731 
L 260.891283 -252.726009 
L 249.731283 -254.561987 
L 238.571283 -273.461107 
L 227.411283 -304.060742 
L 216.251283 -302.778371 
L 205.091283 -283.568684 
L 193.931283 -293.358107 
L 182.771283 -313.257899 
L 171.611283 -311.246635 
L 160.451283 -326.084851 
L 149.291283 -329.973156 
L 138.131283 -313.817248 
L 126.971283 -282.111463 
L 115.811283 -260.270648 
L 104.651283 -264.550831 
L 93.491283 -256.952609 
L 82.331283 -230.937092 
L 71.171283 -208.661692 
L 60.011283 -179.657044 
L 48.851283 -160.540398 
z
" style="stroke: #1f77b4; stroke-opacity: 0.2"/>
    </defs>
    <g clip-path="url(#p2fea3b2f9e)">
     <use xlink:href="#medac74c9b6" x="0" y="361.333136" style="fill: #1f77b4; fill-opacity: 0.2; stroke: #1f77b4; stroke-opacity: 0.2"/>
    </g>
   </g>
   <g id="PolyCollection_2">
    <defs>
     <path id="mcea50ba01e" d="M 48.851283 -164.096019 
L 48.851283 -108.122023 
L 60.011283 -112.479827 
L 71.171283 -133.007064 
L 82.331283 -152.251746 
L 93.491283 -135.482528 
L 104.651283 -144.874621 
L 115.811283 -163.700588 
L 126.971283 -165.611182 
L 138.131283 -160.098435 
L 149.291283 -163.006307 
L 160.451283 -170.702514 
L 171.611283 -171.890816 
L 182.771283 -171.401435 
L 193.931283 -166.613164 
L 205.091283 -145.422724 
L 216.251283 -137.889035 
L 227.411283 -154.825127 
L 238.571283 -148.98282 
L 249.731283 -141.980562 
L 260.891283 -133.120873 
L 272.051283 -129.361164 
L 283.211283 -135.003281 
L 294.371283 -124.263248 
L 305.531283 -120.620336 
L 316.691283 -122.962401 
L 327.851283 -133.091436 
L 339.011283 -147.312598 
L 350.171283 -134.401465 
L 361.331283 -106.255246 
L 372.491283 -88.187684 
L 383.651283 -88.053156 
L 394.811283 -98.77428 
L 405.971283 -117.890766 
L 405.971283 -162.078883 
L 405.971283 -162.078883 
L 394.811283 -142.600756 
L 383.651283 -132.722409 
L 372.491283 -133.571451 
L 361.331283 -155.733369 
L 350.171283 -185.054257 
L 339.011283 -197.665067 
L 327.851283 -184.490544 
L 316.691283 -174.182973 
L 305.531283 -167.456311 
L 294.371283 -169.188899 
L 283.211283 -179.994614 
L 272.051283 -176.675399 
L 260.891283 -179.605654 
L 249.731283 -190.188005 
L 238.571283 -196.795668 
L 227.411283 -203.176891 
L 216.251283 -189.87605 
L 205.091283 -202.559067 
L 193.931283 -222.165544 
L 182.771283 -225.949731 
L 171.611283 -226.483536 
L 160.451283 -224.504746 
L 149.291283 -219.7117 
L 138.131283 -223.253012 
L 126.971283 -229.36992 
L 115.811283 -222.18972 
L 104.651283 -199.766113 
L 93.491283 -190.819959 
L 82.331283 -211.386339 
L 71.171283 -192.119265 
L 60.011283 -167.079914 
L 48.851283 -164.096019 
z
" style="stroke: #ff7f0e; stroke-opacity: 0.2"/>
    </defs>
    <g clip-path="url(#p2fea3b2f9e)">
     <use xlink:href="#mcea50ba01e" x="0" y="361.333136" style="fill: #ff7f0e; fill-opacity: 0.2; stroke: #ff7f0e; stroke-opacity: 0.2"/>
    </g>
   </g>
   <g id="matplotlib.axis_1">
    <g id="text_1">
     <text style="font: 10px 'Arial', sans-serif; text-anchor: middle" x="227.411283" y="296.533792" transform="rotate(-0 227.411283 296.533792)">Time</text>
    </g>
   </g>
   <g id="matplotlib.axis_2">
    <g id="ytick_1">
     <g id="line2d_1">
      <defs>
       <path id="ma7f3b202aa" d="M 0 0 
L -3.5 0 
" style="stroke: #000000; stroke-width: 0.8"/>
      </defs>
      <g>
       <use xlink:href="#ma7f3b202aa" x="48.851283" y="249.324027" style="stroke: #000000; stroke-width: 0.8"/>
      </g>
     </g>
     <g id="text_2">
      <text style="font: 10px 'Arial', sans-serif; text-anchor: end" x="41.851283" y="252.902933" transform="rotate(-0 41.851283 252.902933)">−0.2</text>
     </g>
    </g>
    <g id="ytick_2">
     <g id="line2d_2">
      <g>
       <use xlink:href="#ma7f3b202aa" x="48.851283" y="202.955343" style="stroke: #000000; stroke-width: 0.8"/>
      </g>
     </g>
     <g id="text_3">
      <text style="font: 10px 'Arial', sans-serif; text-anchor: end" x="41.851283" y="206.534249" transform="rotate(-0 41.851283 206.534249)">0.0</text>
     </g>
    </g>
    <g id="ytick_3">
     <g id="line2d_3">
      <g>
       <use xlink:href="#ma7f3b202aa" x="48.851283" y="156.586659" style="stroke: #000000; stroke-width: 0.8"/>
      </g>
     </g>
     <g id="text_4">
      <text style="font: 10px 'Arial', sans-serif; text-anchor: end" x="41.851283" y="160.165565" transform="rotate(-0 41.851283 160.165565)">0.2</text>
     </g>
    </g>
    <g id="ytick_4">
     <g id="line2d_4">
      <g>
       <use xlink:href="#ma7f3b202aa" x="48.851283" y="110.217975" style="stroke: #000000; stroke-width: 0.8"/>
      </g>
     </g>
     <g id="text_5">
      <text style="font: 10px 'Arial', sans-serif; text-anchor: end" x="41.851283" y="113.796881" transform="rotate(-0 41.851283 113.796881)">0.4</text>
     </g>
    </g>
    <g id="ytick_5">
     <g id="line2d_5">
      <g>
       <use xlink:href="#ma7f3b202aa" x="48.851283" y="63.849291" style="stroke: #000000; stroke-width: 0.8"/>
      </g>
     </g>
     <g id="text_6">
      <text style="font: 10px 'Arial', sans-serif; text-anchor: end" x="41.851283" y="67.428198" transform="rotate(-0 41.851283 67.428198)">0.6</text>
     </g>
    </g>
    <g id="text_7">
     <text style="font: 10px 'Arial', sans-serif; text-anchor: middle" x="16.005971" y="152.31998" transform="rotate(-90 16.005971 152.31998)">Activity</text>
    </g>
   </g>
   <g id="line2d_6">
    <path d="M 48.851283 231.02236 
L 60.011283 212.352603 
L 71.171283 185.469944 
L 82.331283 164.780332 
L 93.491283 138.53172 
L 104.651283 132.518296 
L 115.811283 139.567947 
L 126.971283 119.79319 
L 138.131283 90.110926 
L 149.291283 73.428454 
L 160.451283 75.829454 
L 171.611283 95.644916 
L 182.771283 101.439213 
L 193.931283 119.50702 
L 205.091283 125.701687 
L 216.251283 105.327898 
L 227.411283 104.081215 
L 238.571283 131.490602 
L 249.731283 146.169378 
L 260.891283 149.477875 
L 272.051283 150.001499 
L 283.211283 166.26649 
L 294.371283 174.283109 
L 305.531283 177.793584 
L 316.691283 180.200486 
L 327.851283 183.068272 
L 339.011283 194.137616 
L 350.171283 202.013041 
L 361.331283 191.800978 
L 372.491283 195.053366 
L 383.651283 205.520453 
L 394.811283 201.743176 
L 405.971283 218.814129 
" clip-path="url(#p2fea3b2f9e)" style="fill: none; stroke: #1f77b4; stroke-width: 1.5; stroke-linecap: square"/>
   </g>
   <g id="line2d_7">
    <path d="M 48.851283 225.224116 
L 60.011283 221.553265 
L 71.171283 198.769972 
L 82.331283 179.514093 
L 93.491283 198.181892 
L 104.651283 189.01277 
L 115.811283 168.387982 
L 126.971283 163.842585 
L 138.131283 169.657414 
L 149.291283 169.974131 
L 160.451283 163.729505 
L 171.611283 162.145961 
L 182.771283 162.657552 
L 193.931283 166.943781 
L 205.091283 187.34224 
L 216.251283 197.450594 
L 227.411283 182.332126 
L 238.571283 188.443893 
L 249.731283 195.248852 
L 260.891283 204.969871 
L 272.051283 208.314854 
L 283.211283 203.834187 
L 294.371283 214.607062 
L 305.531283 217.294813 
L 316.691283 212.760449 
L 327.851283 202.542146 
L 339.011283 188.844304 
L 350.171283 201.605275 
L 361.331283 230.338829 
L 372.491283 250.453567 
L 383.651283 250.945352 
L 394.811283 240.64562 
L 405.971283 221.348311 
" clip-path="url(#p2fea3b2f9e)" style="fill: none; stroke: #ff7f0e; stroke-width: 1.5; stroke-linecap: square"/>
   </g>
   <g id="line2d_8">
    <path d="M 82.331283 285.37598 
L 82.331283 19.26398 
" clip-path="url(#p2fea3b2f9e)" style="fill: none; stroke-dasharray: 5.55,2.4; stroke-dashoffset: 0; stroke: #000000; stroke-opacity: 0.5; stroke-width: 1.5"/>
   </g>
   <g id="line2d_9">
    <path d="M 383.651283 285.37598 
L 383.651283 19.26398 
" clip-path="url(#p2fea3b2f9e)" style="fill: none; stroke-dasharray: 5.55,2.4; stroke-dashoffset: 0; stroke: #000000; stroke-opacity: 0.5; stroke-width: 1.5"/>
   </g>
   <g id="patch_3">
    <path d="M 48.851283 285.37598 
L 405.971283 285.37598 
" style="fill: none; stroke: #000000; stroke-width: 0.8; stroke-linejoin: miter; stroke-linecap: square"/>
   </g>
   <g id="text_8">
    <text style="font: 6.94px 'Arial', sans-serif" transform="translate(10.097767 321.385533) rotate(-35)">-0.1s Sampling</text>
   </g>
   <g id="text_9">
    <text style="font: 6.94px 'Arial', sans-serif" transform="translate(57.794497 311.430872) rotate(-35)">Sampling</text>
   </g>
   <g id="text_10">
    <text style="font: 6.94px 'Arial', sans-serif" transform="translate(319.037191 339.456682) rotate(-35)">Movement to Lateral Port</text>
   </g>
   <g id="text_11">
    <text style="font: 8.33px 'Arial', sans-serif; text-anchor: middle" x="227.411283" y="13.26398" transform="rotate(-0 227.411283 13.26398)">GP4_24_s4_L85_D250_M2 - Trace:81_GP4_24_s4_L85_D250_M2 (when: correct)</text>
   </g>
   <g id="legend_1">
    <g id="patch_4">
     <path d="M 133.696342 354.133136 
L 321.126224 354.133136 
Q 322.514224 354.133136 322.514224 352.745136 
L 322.514224 343.45638 
Q 322.514224 342.06838 321.126224 342.06838 
L 133.696342 342.06838 
Q 132.308342 342.06838 132.308342 343.45638 
L 132.308342 352.745136 
Q 132.308342 354.133136 133.696342 354.133136 
z
" style="fill: #ffffff; opacity: 0.8; stroke: #cccccc; stroke-linejoin: miter"/>
    </g>
    <g id="line2d_10">
     <path d="M 135.084342 347.467483 
L 142.024342 347.467483 
L 148.964342 347.467483 
" style="fill: none; stroke: #1f77b4; stroke-width: 1.5; stroke-linecap: square"/>
    </g>
    <g id="text_12">
     <text style="font: 6.94px 'Arial', sans-serif; text-anchor: start" x="154.516342" y="349.896483" transform="rotate(-0 154.516342 349.896483)">DecisionRight (65 pts)</text>
    </g>
    <g id="line2d_11">
     <path d="M 236.664255 347.467483 
L 243.604255 347.467483 
L 250.544255 347.467483 
" style="fill: none; stroke: #ff7f0e; stroke-width: 1.5; stroke-linecap: square"/>
    </g>
    <g id="text_13">
     <text style="font: 6.94px 'Arial', sans-serif; text-anchor: start" x="256.096255" y="349.896483" transform="rotate(-0 256.096255 349.896483)">DecisionLeft (69 pts)</text>
    </g>
   </g>
  </g>
 </g>
 <defs>
  <clipPath id="p2fea3b2f9e">
   <rect x="48.851283" y="19.26398" width="357.12" height="266.112"/>
  </clipPath>
 </defs>
</svg>
