<?xml version="1.0" encoding="utf-8" standalone="no"?>
<!DOCTYPE svg PUBLIC "-//W3C//DTD SVG 1.1//EN"
  "http://www.w3.org/Graphics/SVG/1.1/DTD/svg11.dtd">
<svg xmlns:xlink="http://www.w3.org/1999/xlink" width="413.171283pt" height="361.333136pt" viewBox="0 0 413.171283 361.333136" xmlns="http://www.w3.org/2000/svg" version="1.1">
 <metadata>
  <rdf:RDF xmlns:dc="http://purl.org/dc/elements/1.1/" xmlns:cc="http://creativecommons.org/ns#" xmlns:rdf="http://www.w3.org/1999/02/22-rdf-syntax-ns#">
   <cc:Work>
    <dc:type rdf:resource="http://purl.org/dc/dcmitype/StillImage"/>
    <dc:date>2025-12-29T04:08:02.287211</dc:date>
    <dc:format>image/svg+xml</dc:format>
    <dc:creator>
     <cc:Agent>
      <dc:title>Matplotlib v3.8.0, https://matplotlib.org/</dc:title>
     </cc:Agent>
    </dc:creator>
   </cc:Work>
  </rdf:RDF>
 </metadata>
 <defs>
  <style type="text/css">*{stroke-linejoin: round; stroke-linecap: butt}</style>
 </defs>
 <g id="figure_1">
  <g id="patch_1">
   <path d="M 0 361.333136 
L 413.171283 361.333136 
L 413.171283 -0 
L 0 -0 
z
" style="fill: #ffffff"/>
  </g>
  <g id="axes_1">
   <g id="patch_2">
    <path d="M 48.851283 285.37598 
L 405.971283 285.37598 
L 405.971283 19.26398 
L 48.851283 19.26398 
z
" style="fill: #ffffff"/>
   </g>
   <g id="PolyCollection_1">
    <defs>
     <path id="m32ce2621e1" d="M 48.851283 -111.200152 
L 48.851283 -105.079628 
L 60.011283 -103.108931 
L 71.171283 -100.399698 
L 82.331283 -96.039482 
L 93.491283 -91.819247 
L 104.651283 -89.32874 
L 115.811283 -88.053156 
L 126.971283 -91.466068 
L 138.131283 -94.697009 
L 149.291283 -94.298267 
L 160.451283 -94.94468 
L 171.611283 -99.212921 
L 182.771283 -102.469385 
L 193.931283 -107.503068 
L 205.091283 -115.322175 
L 216.251283 -120.782015 
L 227.411283 -124.305597 
L 238.571283 -127.663805 
L 249.731283 -127.521306 
L 260.891283 -127.873952 
L 272.051283 -131.133786 
L 283.211283 -131.698852 
L 294.371283 -132.873849 
L 305.531283 -132.622053 
L 316.691283 -133.053857 
L 327.851283 -133.771081 
L 339.011283 -133.350839 
L 350.171283 -132.102314 
L 361.331283 -134.985156 
L 372.491283 -138.373484 
L 383.651283 -141.294139 
L 394.811283 -140.381293 
L 405.971283 -135.639227 
L 405.971283 -159.396537 
L 405.971283 -159.396537 
L 394.811283 -164.74029 
L 383.651283 -166.541586 
L 372.491283 -163.631948 
L 361.331283 -158.880674 
L 350.171283 -154.463902 
L 339.011283 -156.522241 
L 327.851283 -157.521387 
L 316.691283 -155.454611 
L 305.531283 -155.050364 
L 294.371283 -155.84467 
L 283.211283 -154.20317 
L 272.051283 -153.123457 
L 260.891283 -149.406787 
L 249.731283 -149.156494 
L 238.571283 -148.941407 
L 227.411283 -144.115434 
L 216.251283 -138.879271 
L 205.091283 -131.606877 
L 193.931283 -121.113663 
L 182.771283 -113.28985 
L 171.611283 -108.938311 
L 160.451283 -104.399643 
L 149.291283 -103.076048 
L 138.131283 -102.719004 
L 126.971283 -99.349485 
L 115.811283 -95.045648 
L 104.651283 -94.977252 
L 93.491283 -96.944444 
L 82.331283 -100.763754 
L 71.171283 -105.824184 
L 60.011283 -109.232908 
L 48.851283 -111.200152 
z
" style="stroke: #1f77b4; stroke-opacity: 0.2"/>
    </defs>
    <g clip-path="url(#p770d756a30)">
     <use xlink:href="#m32ce2621e1" x="0" y="361.333136" style="fill: #1f77b4; fill-opacity: 0.2; stroke: #1f77b4; stroke-opacity: 0.2"/>
    </g>
   </g>
   <g id="PolyCollection_2">
    <defs>
     <path id="med863141c9" d="M 48.851283 -118.520377 
L 48.851283 -109.08383 
L 60.011283 -107.698134 
L 71.171283 -104.724941 
L 82.331283 -100.417484 
L 93.491283 -94.418386 
L 104.651283 -88.818445 
L 115.811283 -89.09069 
L 126.971283 -92.758873 
L 138.131283 -97.237536 
L 149.291283 -101.793591 
L 160.451283 -108.097465 
L 171.611283 -114.488696 
L 182.771283 -119.877585 
L 193.931283 -127.991843 
L 205.091283 -139.058399 
L 216.251283 -150.36493 
L 227.411283 -164.067186 
L 238.571283 -173.001616 
L 249.731283 -184.17363 
L 260.891283 -194.58709 
L 272.051283 -202.251543 
L 283.211283 -209.694339 
L 294.371283 -215.620726 
L 305.531283 -220.148736 
L 316.691283 -224.67517 
L 327.851283 -228.87564 
L 339.011283 -237.317919 
L 350.171283 -241.47555 
L 361.331283 -246.157822 
L 372.491283 -249.671732 
L 383.651283 -261.937957 
L 394.811283 -276.501792 
L 405.971283 -291.036451 
L 405.971283 -329.973156 
L 405.971283 -329.973156 
L 394.811283 -315.011953 
L 383.651283 -299.8165 
L 372.491283 -286.941444 
L 361.331283 -282.48204 
L 350.171283 -276.169679 
L 339.011283 -272.43346 
L 327.851283 -263.930779 
L 316.691283 -259.985437 
L 305.531283 -255.695552 
L 294.371283 -251.097271 
L 283.211283 -245.039433 
L 272.051283 -237.138054 
L 260.891283 -228.731957 
L 249.731283 -216.545406 
L 238.571283 -204.208765 
L 227.411283 -195.109654 
L 216.251283 -178.097928 
L 205.091283 -165.433124 
L 193.931283 -153.076483 
L 182.771283 -143.755046 
L 171.611283 -136.394746 
L 160.451283 -128.981721 
L 149.291283 -119.810717 
L 138.131283 -112.13911 
L 126.971283 -104.64016 
L 115.811283 -97.389659 
L 104.651283 -96.55641 
L 93.491283 -102.302967 
L 82.331283 -108.680707 
L 71.171283 -113.33287 
L 60.011283 -116.612525 
L 48.851283 -118.520377 
z
" style="stroke: #ff7f0e; stroke-opacity: 0.2"/>
    </defs>
    <g clip-path="url(#p770d756a30)">
     <use xlink:href="#med863141c9" x="0" y="361.333136" style="fill: #ff7f0e; fill-opacity: 0.2; stroke: #ff7f0e; stroke-opacity: 0.2"/>
    </g>
   </g>
   <g id="matplotlib.axis_1">
    <g id="text_1">
     <text style="font: 10px 'Arial', sans-serif; text-anchor: middle" x="227.411283" y="296.533792" transform="rotate(-0 227.411283 296.533792)">Time</text>
    </g>
   </g>
   <g id="matplotlib.axis_2">
    <g id="ytick_1">
     <g id="line2d_1">
      <defs>
       <path id="m188f883673" d="M 0 0 
L -3.5 0 
" style="stroke: #000000; stroke-width: 0.8"/>
      </defs>
      <g>
       <use xlink:href="#m188f883673" x="48.851283" y="237.501902" style="stroke: #000000; stroke-width: 0.8"/>
      </g>
     </g>
     <g id="text_2">
      <text style="font: 10px 'Arial', sans-serif; text-anchor: end" x="41.851283" y="241.080808" transform="rotate(-0 41.851283 241.080808)">0.0</text>
     </g>
    </g>
    <g id="ytick_2">
     <g id="line2d_2">
      <g>
       <use xlink:href="#m188f883673" x="48.851283" y="188.688568" style="stroke: #000000; stroke-width: 0.8"/>
      </g>
     </g>
     <g id="text_3">
      <text style="font: 10px 'Arial', sans-serif; text-anchor: end" x="41.851283" y="192.267475" transform="rotate(-0 41.851283 192.267475)">0.5</text>
     </g>
    </g>
    <g id="ytick_3">
     <g id="line2d_3">
      <g>
       <use xlink:href="#m188f883673" x="48.851283" y="139.875235" style="stroke: #000000; stroke-width: 0.8"/>
      </g>
     </g>
     <g id="text_4">
      <text style="font: 10px 'Arial', sans-serif; text-anchor: end" x="41.851283" y="143.454141" transform="rotate(-0 41.851283 143.454141)">1.0</text>
     </g>
    </g>
    <g id="ytick_4">
     <g id="line2d_4">
      <g>
       <use xlink:href="#m188f883673" x="48.851283" y="91.061901" style="stroke: #000000; stroke-width: 0.8"/>
      </g>
     </g>
     <g id="text_5">
      <text style="font: 10px 'Arial', sans-serif; text-anchor: end" x="41.851283" y="94.640807" transform="rotate(-0 41.851283 94.640807)">1.5</text>
     </g>
    </g>
    <g id="ytick_5">
     <g id="line2d_5">
      <g>
       <use xlink:href="#m188f883673" x="48.851283" y="42.248568" style="stroke: #000000; stroke-width: 0.8"/>
      </g>
     </g>
     <g id="text_6">
      <text style="font: 10px 'Arial', sans-serif; text-anchor: end" x="41.851283" y="45.827474" transform="rotate(-0 41.851283 45.827474)">2.0</text>
     </g>
    </g>
    <g id="text_7">
     <text style="font: 10px 'Arial', sans-serif; text-anchor: middle" x="21.846596" y="152.31998" transform="rotate(-90 21.846596 152.31998)">Activity</text>
    </g>
   </g>
   <g id="line2d_6">
    <path d="M 48.851283 253.193246 
L 60.011283 255.162216 
L 71.171283 258.221195 
L 82.331283 262.931517 
L 93.491283 266.95129 
L 104.651283 269.18014 
L 115.811283 269.783734 
L 126.971283 265.925359 
L 138.131283 262.625129 
L 149.291283 262.645979 
L 160.451283 261.660975 
L 171.611283 257.25752 
L 182.771283 253.453518 
L 193.931283 247.024771 
L 205.091283 237.86861 
L 216.251283 231.502493 
L 227.411283 227.12262 
L 238.571283 223.030531 
L 249.731283 222.994236 
L 260.891283 222.692767 
L 272.051283 219.204515 
L 283.211283 218.382125 
L 294.371283 216.973875 
L 305.531283 217.496927 
L 316.691283 217.078903 
L 327.851283 215.686903 
L 339.011283 216.396595 
L 350.171283 218.050027 
L 361.331283 214.400221 
L 372.491283 210.33042 
L 383.651283 207.415275 
L 394.811283 208.772345 
L 405.971283 213.815254 
" clip-path="url(#p770d756a30)" style="fill: none; stroke: #1f77b4; stroke-width: 1.5; stroke-linecap: square"/>
   </g>
   <g id="line2d_7">
    <path d="M 48.851283 247.531033 
L 60.011283 249.177806 
L 71.171283 252.30423 
L 82.331283 256.784041 
L 93.491283 262.97246 
L 104.651283 268.645708 
L 115.811283 268.092961 
L 126.971283 262.633619 
L 138.131283 256.644812 
L 149.291283 250.530982 
L 160.451283 242.793543 
L 171.611283 235.891415 
L 182.771283 229.516821 
L 193.931283 220.798974 
L 205.091283 209.087374 
L 216.251283 197.101706 
L 227.411283 181.744717 
L 238.571283 172.727946 
L 249.731283 160.973618 
L 260.891283 149.673615 
L 272.051283 141.63834 
L 283.211283 133.966247 
L 294.371283 127.97414 
L 305.531283 123.410995 
L 316.691283 119.002832 
L 327.851283 114.929926 
L 339.011283 106.457446 
L 350.171283 102.510522 
L 361.331283 97.013205 
L 372.491283 93.026548 
L 383.651283 80.455907 
L 394.811283 65.576263 
L 405.971283 50.828326 
" clip-path="url(#p770d756a30)" style="fill: none; stroke: #ff7f0e; stroke-width: 1.5; stroke-linecap: square"/>
   </g>
   <g id="line2d_8">
    <path d="M 82.331283 285.37598 
L 82.331283 19.26398 
" clip-path="url(#p770d756a30)" style="fill: none; stroke-dasharray: 5.55,2.4; stroke-dashoffset: 0; stroke: #000000; stroke-opacity: 0.5; stroke-width: 1.5"/>
   </g>
   <g id="line2d_9">
    <path d="M 383.651283 285.37598 
L 383.651283 19.26398 
" clip-path="url(#p770d756a30)" style="fill: none; stroke-dasharray: 5.55,2.4; stroke-dashoffset: 0; stroke: #000000; stroke-opacity: 0.5; stroke-width: 1.5"/>
   </g>
   <g id="patch_3">
    <path d="M 48.851283 285.37598 
L 405.971283 285.37598 
" style="fill: none; stroke: #000000; stroke-width: 0.8; stroke-linejoin: miter; stroke-linecap: square"/>
   </g>
   <g id="text_8">
    <text style="font: 6.94px 'Arial', sans-serif" transform="translate(10.097767 321.385533) rotate(-35)">-0.1s Sampling</text>
   </g>
   <g id="text_9">
    <text style="font: 6.94px 'Arial', sans-serif" transform="translate(57.794497 311.430872) rotate(-35)">Sampling</text>
   </g>
   <g id="text_10">
    <text style="font: 6.94px 'Arial', sans-serif" transform="translate(319.037191 339.456682) rotate(-35)">Movement to Lateral Port</text>
   </g>
   <g id="text_11">
    <text style="font: 8.33px 'Arial', sans-serif; text-anchor: middle" x="227.411283" y="13.26398" transform="rotate(-0 227.411283 13.26398)">GP4_85_s8_L60_D250_ALM - Trace:1_GP4_85_s8_L60_D250_ALM (when: correct)</text>
   </g>
   <g id="legend_1">
    <g id="patch_4">
     <path d="M 133.696342 354.133136 
L 321.126224 354.133136 
Q 322.514224 354.133136 322.514224 352.745136 
L 322.514224 343.45638 
Q 322.514224 342.06838 321.126224 342.06838 
L 133.696342 342.06838 
Q 132.308342 342.06838 132.308342 343.45638 
L 132.308342 352.745136 
Q 132.308342 354.133136 133.696342 354.133136 
z
" style="fill: #ffffff; opacity: 0.8; stroke: #cccccc; stroke-linejoin: miter"/>
    </g>
    <g id="line2d_10">
     <path d="M 135.084342 347.467483 
L 142.024342 347.467483 
L 148.964342 347.467483 
" style="fill: none; stroke: #1f77b4; stroke-width: 1.5; stroke-linecap: square"/>
    </g>
    <g id="text_12">
     <text style="font: 6.94px 'Arial', sans-serif; text-anchor: start" x="154.516342" y="349.896483" transform="rotate(-0 154.516342 349.896483)">DecisionRight (96 pts)</text>
    </g>
    <g id="line2d_11">
     <path d="M 236.664255 347.467483 
L 243.604255 347.467483 
L 250.544255 347.467483 
" style="fill: none; stroke: #ff7f0e; stroke-width: 1.5; stroke-linecap: square"/>
    </g>
    <g id="text_13">
     <text style="font: 6.94px 'Arial', sans-serif; text-anchor: start" x="256.096255" y="349.896483" transform="rotate(-0 256.096255 349.896483)">DecisionLeft (92 pts)</text>
    </g>
   </g>
  </g>
 </g>
 <defs>
  <clipPath id="p770d756a30">
   <rect x="48.851283" y="19.26398" width="357.12" height="266.112"/>
  </clipPath>
 </defs>
</svg>
