<?xml version="1.0" encoding="utf-8" standalone="no"?>
<!DOCTYPE svg PUBLIC "-//W3C//DTD SVG 1.1//EN"
  "http://www.w3.org/Graphics/SVG/1.1/DTD/svg11.dtd">
<svg xmlns:xlink="http://www.w3.org/1999/xlink" width="413.171283pt" height="361.333136pt" viewBox="0 0 413.171283 361.333136" xmlns="http://www.w3.org/2000/svg" version="1.1">
 <metadata>
  <rdf:RDF xmlns:dc="http://purl.org/dc/elements/1.1/" xmlns:cc="http://creativecommons.org/ns#" xmlns:rdf="http://www.w3.org/1999/02/22-rdf-syntax-ns#">
   <cc:Work>
    <dc:type rdf:resource="http://purl.org/dc/dcmitype/StillImage"/>
    <dc:date>2025-12-29T04:08:02.793603</dc:date>
    <dc:format>image/svg+xml</dc:format>
    <dc:creator>
     <cc:Agent>
      <dc:title>Matplotlib v3.8.0, https://matplotlib.org/</dc:title>
     </cc:Agent>
    </dc:creator>
   </cc:Work>
  </rdf:RDF>
 </metadata>
 <defs>
  <style type="text/css">*{stroke-linejoin: round; stroke-linecap: butt}</style>
 </defs>
 <g id="figure_1">
  <g id="patch_1">
   <path d="M 0 361.333136 
L 413.171283 361.333136 
L 413.171283 -0 
L 0 -0 
z
" style="fill: #ffffff"/>
  </g>
  <g id="axes_1">
   <g id="patch_2">
    <path d="M 48.851283 285.37598 
L 405.971283 285.37598 
L 405.971283 19.26398 
L 48.851283 19.26398 
z
" style="fill: #ffffff"/>
   </g>
   <g id="PolyCollection_1">
    <defs>
     <path id="mf596a4399b" d="M 48.851283 -157.281406 
L 48.851283 -135.800295 
L 60.011283 -127.741513 
L 71.171283 -119.611563 
L 82.331283 -118.523544 
L 93.491283 -122.624521 
L 104.651283 -115.870097 
L 115.811283 -114.07133 
L 126.971283 -117.428987 
L 138.131283 -127.891223 
L 149.291283 -137.002676 
L 160.451283 -139.583895 
L 171.611283 -151.741017 
L 182.771283 -160.248109 
L 193.931283 -163.328691 
L 205.091283 -182.008474 
L 216.251283 -205.68582 
L 227.411283 -214.020161 
L 238.571283 -206.873787 
L 249.731283 -202.480704 
L 260.891283 -202.6932 
L 272.051283 -212.267083 
L 283.211283 -207.196429 
L 294.371283 -190.972469 
L 305.531283 -191.219929 
L 316.691283 -194.964465 
L 327.851283 -197.413466 
L 339.011283 -188.194721 
L 350.171283 -183.406034 
L 361.331283 -183.51932 
L 372.491283 -170.534442 
L 383.651283 -166.357766 
L 394.811283 -170.118986 
L 405.971283 -166.186044 
L 405.971283 -198.817236 
L 405.971283 -198.817236 
L 394.811283 -204.957653 
L 383.651283 -202.752193 
L 372.491283 -205.897186 
L 361.331283 -218.702886 
L 350.171283 -217.983614 
L 339.011283 -221.205424 
L 327.851283 -232.555074 
L 316.691283 -233.258109 
L 305.531283 -232.513193 
L 294.371283 -231.661638 
L 283.211283 -245.791545 
L 272.051283 -249.782577 
L 260.891283 -238.453767 
L 249.731283 -241.631676 
L 238.571283 -246.092177 
L 227.411283 -252.783455 
L 216.251283 -241.976032 
L 205.091283 -217.359795 
L 193.931283 -198.073849 
L 182.771283 -195.30973 
L 171.611283 -186.400165 
L 160.451283 -171.439444 
L 149.291283 -165.666147 
L 138.131283 -154.599032 
L 126.971283 -143.65936 
L 115.811283 -136.321261 
L 104.651283 -133.333844 
L 93.491283 -140.382006 
L 82.331283 -137.580296 
L 71.171283 -140.912683 
L 60.011283 -147.83518 
L 48.851283 -157.281406 
z
" style="stroke: #1f77b4; stroke-opacity: 0.2"/>
    </defs>
    <g clip-path="url(#p92ffde19ee)">
     <use xlink:href="#mf596a4399b" x="0" y="361.333136" style="fill: #1f77b4; fill-opacity: 0.2; stroke: #1f77b4; stroke-opacity: 0.2"/>
    </g>
   </g>
   <g id="PolyCollection_2">
    <defs>
     <path id="m34678df669" d="M 48.851283 -173.138415 
L 48.851283 -146.527186 
L 60.011283 -142.889165 
L 71.171283 -133.242555 
L 82.331283 -119.286268 
L 93.491283 -107.534406 
L 104.651283 -98.083432 
L 115.811283 -88.053156 
L 126.971283 -102.59326 
L 138.131283 -125.135112 
L 149.291283 -136.007441 
L 160.451283 -139.818507 
L 171.611283 -160.8363 
L 182.771283 -174.224092 
L 193.931283 -198.411483 
L 205.091283 -219.511637 
L 216.251283 -228.141539 
L 227.411283 -237.302949 
L 238.571283 -251.077637 
L 249.731283 -264.049362 
L 260.891283 -273.196355 
L 272.051283 -269.367281 
L 283.211283 -254.550656 
L 294.371283 -257.826355 
L 305.531283 -261.573234 
L 316.691283 -252.216956 
L 327.851283 -243.513136 
L 339.011283 -241.882918 
L 350.171283 -235.755002 
L 361.331283 -229.442549 
L 372.491283 -235.541745 
L 383.651283 -240.079395 
L 394.811283 -241.23084 
L 405.971283 -249.118677 
L 405.971283 -296.75813 
L 405.971283 -296.75813 
L 394.811283 -289.001118 
L 383.651283 -287.48917 
L 372.491283 -282.191398 
L 361.331283 -279.209194 
L 350.171283 -283.266806 
L 339.011283 -288.271587 
L 327.851283 -290.456464 
L 316.691283 -300.297806 
L 305.531283 -314.276096 
L 294.371283 -312.841192 
L 283.211283 -309.120866 
L 272.051283 -324.8058 
L 260.891283 -329.973156 
L 249.731283 -320.137887 
L 238.571283 -304.859661 
L 227.411283 -290.674909 
L 216.251283 -277.919398 
L 205.091283 -262.960991 
L 193.931283 -242.114697 
L 182.771283 -221.20531 
L 171.611283 -202.679895 
L 160.451283 -176.869975 
L 149.291283 -170.302269 
L 138.131283 -154.012181 
L 126.971283 -126.238833 
L 115.811283 -108.281331 
L 104.651283 -115.875547 
L 93.491283 -126.416866 
L 82.331283 -141.916936 
L 71.171283 -157.2415 
L 60.011283 -167.776802 
L 48.851283 -173.138415 
z
" style="stroke: #ff7f0e; stroke-opacity: 0.2"/>
    </defs>
    <g clip-path="url(#p92ffde19ee)">
     <use xlink:href="#m34678df669" x="0" y="361.333136" style="fill: #ff7f0e; fill-opacity: 0.2; stroke: #ff7f0e; stroke-opacity: 0.2"/>
    </g>
   </g>
   <g id="matplotlib.axis_1">
    <g id="text_1">
     <text style="font: 10px 'Arial', sans-serif; text-anchor: middle" x="227.411283" y="296.533792" transform="rotate(-0 227.411283 296.533792)">Time</text>
    </g>
   </g>
   <g id="matplotlib.axis_2">
    <g id="ytick_1">
     <g id="line2d_1">
      <defs>
       <path id="m336ba7a96d" d="M 0 0 
L -3.5 0 
" style="stroke: #000000; stroke-width: 0.8"/>
      </defs>
      <g>
       <use xlink:href="#m336ba7a96d" x="48.851283" y="283.121155" style="stroke: #000000; stroke-width: 0.8"/>
      </g>
     </g>
     <g id="text_2">
      <text style="font: 10px 'Arial', sans-serif; text-anchor: end" x="41.851283" y="286.700061" transform="rotate(-0 41.851283 286.700061)">−0.4</text>
     </g>
    </g>
    <g id="ytick_2">
     <g id="line2d_2">
      <g>
       <use xlink:href="#m336ba7a96d" x="48.851283" y="251.232939" style="stroke: #000000; stroke-width: 0.8"/>
      </g>
     </g>
     <g id="text_3">
      <text style="font: 10px 'Arial', sans-serif; text-anchor: end" x="41.851283" y="254.811845" transform="rotate(-0 41.851283 254.811845)">−0.2</text>
     </g>
    </g>
    <g id="ytick_3">
     <g id="line2d_3">
      <g>
       <use xlink:href="#m336ba7a96d" x="48.851283" y="219.344723" style="stroke: #000000; stroke-width: 0.8"/>
      </g>
     </g>
     <g id="text_4">
      <text style="font: 10px 'Arial', sans-serif; text-anchor: end" x="41.851283" y="222.923629" transform="rotate(-0 41.851283 222.923629)">0.0</text>
     </g>
    </g>
    <g id="ytick_4">
     <g id="line2d_4">
      <g>
       <use xlink:href="#m336ba7a96d" x="48.851283" y="187.456507" style="stroke: #000000; stroke-width: 0.8"/>
      </g>
     </g>
     <g id="text_5">
      <text style="font: 10px 'Arial', sans-serif; text-anchor: end" x="41.851283" y="191.035413" transform="rotate(-0 41.851283 191.035413)">0.2</text>
     </g>
    </g>
    <g id="ytick_5">
     <g id="line2d_5">
      <g>
       <use xlink:href="#m336ba7a96d" x="48.851283" y="155.568291" style="stroke: #000000; stroke-width: 0.8"/>
      </g>
     </g>
     <g id="text_6">
      <text style="font: 10px 'Arial', sans-serif; text-anchor: end" x="41.851283" y="159.147197" transform="rotate(-0 41.851283 159.147197)">0.4</text>
     </g>
    </g>
    <g id="ytick_6">
     <g id="line2d_6">
      <g>
       <use xlink:href="#m336ba7a96d" x="48.851283" y="123.680075" style="stroke: #000000; stroke-width: 0.8"/>
      </g>
     </g>
     <g id="text_7">
      <text style="font: 10px 'Arial', sans-serif; text-anchor: end" x="41.851283" y="127.258981" transform="rotate(-0 41.851283 127.258981)">0.6</text>
     </g>
    </g>
    <g id="ytick_7">
     <g id="line2d_7">
      <g>
       <use xlink:href="#m336ba7a96d" x="48.851283" y="91.791859" style="stroke: #000000; stroke-width: 0.8"/>
      </g>
     </g>
     <g id="text_8">
      <text style="font: 10px 'Arial', sans-serif; text-anchor: end" x="41.851283" y="95.370765" transform="rotate(-0 41.851283 95.370765)">0.8</text>
     </g>
    </g>
    <g id="ytick_8">
     <g id="line2d_8">
      <g>
       <use xlink:href="#m336ba7a96d" x="48.851283" y="59.903643" style="stroke: #000000; stroke-width: 0.8"/>
      </g>
     </g>
     <g id="text_9">
      <text style="font: 10px 'Arial', sans-serif; text-anchor: end" x="41.851283" y="63.482549" transform="rotate(-0 41.851283 63.482549)">1.0</text>
     </g>
    </g>
    <g id="ytick_9">
     <g id="line2d_9">
      <g>
       <use xlink:href="#m336ba7a96d" x="48.851283" y="28.015427" style="stroke: #000000; stroke-width: 0.8"/>
      </g>
     </g>
     <g id="text_10">
      <text style="font: 10px 'Arial', sans-serif; text-anchor: end" x="41.851283" y="31.594333" transform="rotate(-0 41.851283 31.594333)">1.2</text>
     </g>
    </g>
    <g id="text_11">
     <text style="font: 10px 'Arial', sans-serif; text-anchor: middle" x="16.005971" y="152.31998" transform="rotate(-90 16.005971 152.31998)">Activity</text>
    </g>
   </g>
   <g id="line2d_10">
    <path d="M 48.851283 214.792286 
L 60.011283 223.544789 
L 71.171283 231.071012 
L 82.331283 233.281216 
L 93.491283 229.829873 
L 104.651283 236.731165 
L 115.811283 236.13684 
L 126.971283 230.788962 
L 138.131283 220.088008 
L 149.291283 209.998725 
L 160.451283 205.821467 
L 171.611283 192.262545 
L 182.771283 183.554218 
L 193.931283 180.631866 
L 205.091283 161.649002 
L 216.251283 137.50221 
L 227.411283 127.931325 
L 238.571283 134.850154 
L 249.731283 139.276946 
L 260.891283 140.759652 
L 272.051283 130.308304 
L 283.211283 134.839149 
L 294.371283 150.016082 
L 305.531283 149.466575 
L 316.691283 147.221846 
L 327.851283 146.348866 
L 339.011283 156.633063 
L 350.171283 160.638312 
L 361.331283 160.222033 
L 372.491283 173.117322 
L 383.651283 176.778156 
L 394.811283 173.794816 
L 405.971283 178.831496 
" clip-path="url(#p92ffde19ee)" style="fill: none; stroke: #1f77b4; stroke-width: 1.5; stroke-linecap: square"/>
   </g>
   <g id="line2d_11">
    <path d="M 48.851283 201.500336 
L 60.011283 206.000153 
L 71.171283 216.091109 
L 82.331283 230.731534 
L 93.491283 244.357501 
L 104.651283 254.353647 
L 115.811283 263.165894 
L 126.971283 246.91709 
L 138.131283 221.759489 
L 149.291283 208.17828 
L 160.451283 202.988895 
L 171.611283 179.575037 
L 182.771283 163.618435 
L 193.931283 141.070044 
L 205.091283 120.096822 
L 216.251283 108.302667 
L 227.411283 97.344207 
L 238.571283 83.364482 
L 249.731283 69.239517 
L 260.891283 59.748376 
L 272.051283 64.246596 
L 283.211283 79.497375 
L 294.371283 75.999363 
L 305.531283 73.408471 
L 316.691283 85.075755 
L 327.851283 94.348336 
L 339.011283 96.255883 
L 350.171283 101.822232 
L 361.331283 107.007265 
L 372.491283 102.466564 
L 383.651283 97.548853 
L 394.811283 96.217157 
L 405.971283 88.394732 
" clip-path="url(#p92ffde19ee)" style="fill: none; stroke: #ff7f0e; stroke-width: 1.5; stroke-linecap: square"/>
   </g>
   <g id="line2d_12">
    <path d="M 82.331283 285.37598 
L 82.331283 19.26398 
" clip-path="url(#p92ffde19ee)" style="fill: none; stroke-dasharray: 5.55,2.4; stroke-dashoffset: 0; stroke: #000000; stroke-opacity: 0.5; stroke-width: 1.5"/>
   </g>
   <g id="line2d_13">
    <path d="M 383.651283 285.37598 
L 383.651283 19.26398 
" clip-path="url(#p92ffde19ee)" style="fill: none; stroke-dasharray: 5.55,2.4; stroke-dashoffset: 0; stroke: #000000; stroke-opacity: 0.5; stroke-width: 1.5"/>
   </g>
   <g id="patch_3">
    <path d="M 48.851283 285.37598 
L 405.971283 285.37598 
" style="fill: none; stroke: #000000; stroke-width: 0.8; stroke-linejoin: miter; stroke-linecap: square"/>
   </g>
   <g id="text_12">
    <text style="font: 6.94px 'Arial', sans-serif" transform="translate(10.097767 321.385533) rotate(-35)">-0.1s Sampling</text>
   </g>
   <g id="text_13">
    <text style="font: 6.94px 'Arial', sans-serif" transform="translate(57.794497 311.430872) rotate(-35)">Sampling</text>
   </g>
   <g id="text_14">
    <text style="font: 6.94px 'Arial', sans-serif" transform="translate(319.037191 339.456682) rotate(-35)">Movement to Lateral Port</text>
   </g>
   <g id="text_15">
    <text style="font: 8.33px 'Arial', sans-serif; text-anchor: middle" x="227.411283" y="13.26398" transform="rotate(-0 227.411283 13.26398)">GP4_85_s8_L60_D250_ALM - Trace:51_GP4_85_s8_L60_D250_ALM (when: correct)</text>
   </g>
   <g id="legend_1">
    <g id="patch_4">
     <path d="M 133.696342 354.133136 
L 321.126224 354.133136 
Q 322.514224 354.133136 322.514224 352.745136 
L 322.514224 343.45638 
Q 322.514224 342.06838 321.126224 342.06838 
L 133.696342 342.06838 
Q 132.308342 342.06838 132.308342 343.45638 
L 132.308342 352.745136 
Q 132.308342 354.133136 133.696342 354.133136 
z
" style="fill: #ffffff; opacity: 0.8; stroke: #cccccc; stroke-linejoin: miter"/>
    </g>
    <g id="line2d_14">
     <path d="M 135.084342 347.467483 
L 142.024342 347.467483 
L 148.964342 347.467483 
" style="fill: none; stroke: #1f77b4; stroke-width: 1.5; stroke-linecap: square"/>
    </g>
    <g id="text_16">
     <text style="font: 6.94px 'Arial', sans-serif; text-anchor: start" x="154.516342" y="349.896483" transform="rotate(-0 154.516342 349.896483)">DecisionRight (96 pts)</text>
    </g>
    <g id="line2d_15">
     <path d="M 236.664255 347.467483 
L 243.604255 347.467483 
L 250.544255 347.467483 
" style="fill: none; stroke: #ff7f0e; stroke-width: 1.5; stroke-linecap: square"/>
    </g>
    <g id="text_17">
     <text style="font: 6.94px 'Arial', sans-serif; text-anchor: start" x="256.096255" y="349.896483" transform="rotate(-0 256.096255 349.896483)">DecisionLeft (92 pts)</text>
    </g>
   </g>
  </g>
 </g>
 <defs>
  <clipPath id="p92ffde19ee">
   <rect x="48.851283" y="19.26398" width="357.12" height="266.112"/>
  </clipPath>
 </defs>
</svg>
