<?xml version="1.0" encoding="utf-8" standalone="no"?>
<!DOCTYPE svg PUBLIC "-//W3C//DTD SVG 1.1//EN"
  "http://www.w3.org/Graphics/SVG/1.1/DTD/svg11.dtd">
<svg xmlns:xlink="http://www.w3.org/1999/xlink" width="413.171283pt" height="361.333136pt" viewBox="0 0 413.171283 361.333136" xmlns="http://www.w3.org/2000/svg" version="1.1">
 <metadata>
  <rdf:RDF xmlns:dc="http://purl.org/dc/elements/1.1/" xmlns:cc="http://creativecommons.org/ns#" xmlns:rdf="http://www.w3.org/1999/02/22-rdf-syntax-ns#">
   <cc:Work>
    <dc:type rdf:resource="http://purl.org/dc/dcmitype/StillImage"/>
    <dc:date>2025-12-29T04:07:44.452063</dc:date>
    <dc:format>image/svg+xml</dc:format>
    <dc:creator>
     <cc:Agent>
      <dc:title>Matplotlib v3.8.0, https://matplotlib.org/</dc:title>
     </cc:Agent>
    </dc:creator>
   </cc:Work>
  </rdf:RDF>
 </metadata>
 <defs>
  <style type="text/css">*{stroke-linejoin: round; stroke-linecap: butt}</style>
 </defs>
 <g id="figure_1">
  <g id="patch_1">
   <path d="M 0 361.333136 
L 413.171283 361.333136 
L 413.171283 -0 
L 0 -0 
z
" style="fill: #ffffff"/>
  </g>
  <g id="axes_1">
   <g id="patch_2">
    <path d="M 48.851283 285.37598 
L 405.971283 285.37598 
L 405.971283 19.26398 
L 48.851283 19.26398 
z
" style="fill: #ffffff"/>
   </g>
   <g id="PolyCollection_1">
    <defs>
     <path id="mcdca5d14c7" d="M 48.851283 -249.187297 
L 48.851283 -198.36788 
L 60.011283 -210.54535 
L 71.171283 -218.261889 
L 82.331283 -232.035399 
L 93.491283 -253.213404 
L 104.651283 -266.988575 
L 115.811283 -271.307121 
L 126.971283 -268.735191 
L 138.131283 -263.051949 
L 149.291283 -248.273921 
L 160.451283 -234.041812 
L 171.611283 -216.162335 
L 182.771283 -195.839564 
L 193.931283 -178.810819 
L 205.091283 -162.934418 
L 216.251283 -148.267483 
L 227.411283 -135.093556 
L 238.571283 -130.851656 
L 249.731283 -125.067857 
L 260.891283 -125.208055 
L 272.051283 -126.286945 
L 283.211283 -122.603764 
L 294.371283 -115.84188 
L 305.531283 -102.017931 
L 316.691283 -90.705663 
L 327.851283 -94.19032 
L 339.011283 -97.286282 
L 350.171283 -94.293032 
L 361.331283 -104.717187 
L 372.491283 -117.691735 
L 383.651283 -122.152796 
L 394.811283 -114.896209 
L 405.971283 -108.463547 
L 405.971283 -124.710134 
L 405.971283 -124.710134 
L 394.811283 -131.049543 
L 383.651283 -138.948806 
L 372.491283 -136.252372 
L 361.331283 -123.472564 
L 350.171283 -113.380453 
L 339.011283 -116.102659 
L 327.851283 -113.767901 
L 316.691283 -109.150966 
L 305.531283 -118.784945 
L 294.371283 -133.668402 
L 283.211283 -144.396916 
L 272.051283 -150.691179 
L 260.891283 -151.511581 
L 249.731283 -153.440629 
L 238.571283 -159.990578 
L 227.411283 -163.793821 
L 216.251283 -179.865179 
L 205.091283 -202.834128 
L 193.931283 -224.929056 
L 182.771283 -241.864953 
L 171.611283 -258.437735 
L 160.451283 -276.13303 
L 149.291283 -294.022723 
L 138.131283 -312.696592 
L 126.971283 -323.495287 
L 115.811283 -329.973156 
L 104.651283 -329.579839 
L 93.491283 -318.064536 
L 82.331283 -294.22648 
L 71.171283 -274.772377 
L 60.011283 -264.113333 
L 48.851283 -249.187297 
z
" style="stroke: #1f77b4; stroke-opacity: 0.2"/>
    </defs>
    <g clip-path="url(#p0eb1be7fbe)">
     <use xlink:href="#mcdca5d14c7" x="0" y="361.333136" style="fill: #1f77b4; fill-opacity: 0.2; stroke: #1f77b4; stroke-opacity: 0.2"/>
    </g>
   </g>
   <g id="PolyCollection_2">
    <defs>
     <path id="mcdd155ce83" d="M 48.851283 -243.050043 
L 48.851283 -196.313566 
L 60.011283 -211.716964 
L 71.171283 -226.014952 
L 82.331283 -250.235512 
L 93.491283 -262.414277 
L 104.651283 -261.973245 
L 115.811283 -257.619969 
L 126.971283 -256.767207 
L 138.131283 -245.123785 
L 149.291283 -226.924554 
L 160.451283 -211.732274 
L 171.611283 -200.460433 
L 182.771283 -181.596664 
L 193.931283 -164.135937 
L 205.091283 -148.146571 
L 216.251283 -135.638924 
L 227.411283 -126.87787 
L 238.571283 -120.220038 
L 249.731283 -114.209294 
L 260.891283 -103.926003 
L 272.051283 -93.831884 
L 283.211283 -89.007867 
L 294.371283 -89.116959 
L 305.531283 -88.053156 
L 316.691283 -89.354456 
L 327.851283 -92.123529 
L 339.011283 -91.981905 
L 350.171283 -91.536062 
L 361.331283 -98.176488 
L 372.491283 -111.008055 
L 383.651283 -117.385585 
L 394.811283 -121.586409 
L 405.971283 -127.920848 
L 405.971283 -149.050744 
L 405.971283 -149.050744 
L 394.811283 -143.006565 
L 383.651283 -139.326819 
L 372.491283 -132.472092 
L 361.331283 -119.135341 
L 350.171283 -111.696791 
L 339.011283 -110.699075 
L 327.851283 -111.436144 
L 316.691283 -110.293834 
L 305.531283 -109.584397 
L 294.371283 -110.712658 
L 283.211283 -111.76318 
L 272.051283 -117.663514 
L 260.891283 -128.0896 
L 249.731283 -140.073462 
L 238.571283 -148.624411 
L 227.411283 -156.485522 
L 216.251283 -166.980609 
L 205.091283 -183.059474 
L 193.931283 -203.456408 
L 182.771283 -223.376773 
L 171.611283 -242.558822 
L 160.451283 -255.022808 
L 149.291283 -271.717758 
L 138.131283 -290.066459 
L 126.971283 -303.95282 
L 115.811283 -308.268016 
L 104.651283 -315.187116 
L 93.491283 -317.352486 
L 82.331283 -301.668658 
L 71.171283 -272.365187 
L 60.011283 -257.950371 
L 48.851283 -243.050043 
z
" style="stroke: #ff7f0e; stroke-opacity: 0.2"/>
    </defs>
    <g clip-path="url(#p0eb1be7fbe)">
     <use xlink:href="#mcdd155ce83" x="0" y="361.333136" style="fill: #ff7f0e; fill-opacity: 0.2; stroke: #ff7f0e; stroke-opacity: 0.2"/>
    </g>
   </g>
   <g id="matplotlib.axis_1">
    <g id="text_1">
     <text style="font: 10px 'Arial', sans-serif; text-anchor: middle" x="227.411283" y="296.533792" transform="rotate(-0 227.411283 296.533792)">Time</text>
    </g>
   </g>
   <g id="matplotlib.axis_2">
    <g id="ytick_1">
     <g id="line2d_1">
      <defs>
       <path id="m2a9329ca7f" d="M 0 0 
L -3.5 0 
" style="stroke: #000000; stroke-width: 0.8"/>
      </defs>
      <g>
       <use xlink:href="#m2a9329ca7f" x="48.851283" y="254.746058" style="stroke: #000000; stroke-width: 0.8"/>
      </g>
     </g>
     <g id="text_2">
      <text style="font: 10px 'Arial', sans-serif; text-anchor: end" x="41.851283" y="258.324964" transform="rotate(-0 41.851283 258.324964)">−0.4</text>
     </g>
    </g>
    <g id="ytick_2">
     <g id="line2d_2">
      <g>
       <use xlink:href="#m2a9329ca7f" x="48.851283" y="202.716639" style="stroke: #000000; stroke-width: 0.8"/>
      </g>
     </g>
     <g id="text_3">
      <text style="font: 10px 'Arial', sans-serif; text-anchor: end" x="41.851283" y="206.295545" transform="rotate(-0 41.851283 206.295545)">−0.2</text>
     </g>
    </g>
    <g id="ytick_3">
     <g id="line2d_3">
      <g>
       <use xlink:href="#m2a9329ca7f" x="48.851283" y="150.68722" style="stroke: #000000; stroke-width: 0.8"/>
      </g>
     </g>
     <g id="text_4">
      <text style="font: 10px 'Arial', sans-serif; text-anchor: end" x="41.851283" y="154.266126" transform="rotate(-0 41.851283 154.266126)">0.0</text>
     </g>
    </g>
    <g id="ytick_4">
     <g id="line2d_4">
      <g>
       <use xlink:href="#m2a9329ca7f" x="48.851283" y="98.657801" style="stroke: #000000; stroke-width: 0.8"/>
      </g>
     </g>
     <g id="text_5">
      <text style="font: 10px 'Arial', sans-serif; text-anchor: end" x="41.851283" y="102.236707" transform="rotate(-0 41.851283 102.236707)">0.2</text>
     </g>
    </g>
    <g id="ytick_5">
     <g id="line2d_5">
      <g>
       <use xlink:href="#m2a9329ca7f" x="48.851283" y="46.628382" style="stroke: #000000; stroke-width: 0.8"/>
      </g>
     </g>
     <g id="text_6">
      <text style="font: 10px 'Arial', sans-serif; text-anchor: end" x="41.851283" y="50.207288" transform="rotate(-0 41.851283 50.207288)">0.4</text>
     </g>
    </g>
    <g id="text_7">
     <text style="font: 10px 'Arial', sans-serif; text-anchor: middle" x="16.005971" y="152.31998" transform="rotate(-90 16.005971 152.31998)">Activity</text>
    </g>
   </g>
   <g id="line2d_6">
    <path d="M 48.851283 137.555547 
L 60.011283 124.003795 
L 71.171283 114.816003 
L 82.331283 98.202196 
L 93.491283 75.694168 
L 104.651283 63.048929 
L 115.811283 60.692997 
L 126.971283 65.217897 
L 138.131283 73.458865 
L 149.291283 90.184816 
L 160.451283 106.245715 
L 171.611283 124.0331 
L 182.771283 142.480877 
L 193.931283 159.463198 
L 205.091283 178.448862 
L 216.251283 197.266805 
L 227.411283 211.889448 
L 238.571283 215.912019 
L 249.731283 222.078893 
L 260.891283 222.973316 
L 272.051283 222.844074 
L 283.211283 227.832796 
L 294.371283 236.577995 
L 305.531283 250.931698 
L 316.691283 261.404822 
L 327.851283 257.354025 
L 339.011283 254.638665 
L 350.171283 257.496393 
L 361.331283 247.23826 
L 372.491283 234.361083 
L 383.651283 230.782335 
L 394.811283 238.36026 
L 405.971283 244.746295 
" clip-path="url(#p0eb1be7fbe)" style="fill: none; stroke: #1f77b4; stroke-width: 1.5; stroke-linecap: square"/>
   </g>
   <g id="line2d_7">
    <path d="M 48.851283 141.651331 
L 60.011283 126.499469 
L 71.171283 112.143068 
L 82.331283 85.381053 
L 93.491283 71.449756 
L 104.651283 72.752956 
L 115.811283 78.389145 
L 126.971283 80.973123 
L 138.131283 93.738014 
L 149.291283 112.01198 
L 160.451283 127.955594 
L 171.611283 139.823508 
L 182.771283 158.846418 
L 193.931283 177.536963 
L 205.091283 195.730113 
L 216.251283 210.023369 
L 227.411283 219.65144 
L 238.571283 226.910911 
L 249.731283 234.191758 
L 260.891283 245.325335 
L 272.051283 255.585437 
L 283.211283 260.947612 
L 294.371283 261.418327 
L 305.531283 262.514359 
L 316.691283 261.508991 
L 327.851283 259.5533 
L 339.011283 259.992646 
L 350.171283 259.716709 
L 361.331283 252.677221 
L 372.491283 239.593062 
L 383.651283 232.976934 
L 394.811283 229.036649 
L 405.971283 222.847338 
" clip-path="url(#p0eb1be7fbe)" style="fill: none; stroke: #ff7f0e; stroke-width: 1.5; stroke-linecap: square"/>
   </g>
   <g id="line2d_8">
    <path d="M 82.331283 285.37598 
L 82.331283 19.26398 
" clip-path="url(#p0eb1be7fbe)" style="fill: none; stroke-dasharray: 5.55,2.4; stroke-dashoffset: 0; stroke: #000000; stroke-opacity: 0.5; stroke-width: 1.5"/>
   </g>
   <g id="line2d_9">
    <path d="M 383.651283 285.37598 
L 383.651283 19.26398 
" clip-path="url(#p0eb1be7fbe)" style="fill: none; stroke-dasharray: 5.55,2.4; stroke-dashoffset: 0; stroke: #000000; stroke-opacity: 0.5; stroke-width: 1.5"/>
   </g>
   <g id="patch_3">
    <path d="M 48.851283 285.37598 
L 405.971283 285.37598 
" style="fill: none; stroke: #000000; stroke-width: 0.8; stroke-linejoin: miter; stroke-linecap: square"/>
   </g>
   <g id="text_8">
    <text style="font: 6.94px 'Arial', sans-serif" transform="translate(10.097767 321.385533) rotate(-35)">-0.1s Sampling</text>
   </g>
   <g id="text_9">
    <text style="font: 6.94px 'Arial', sans-serif" transform="translate(57.794497 311.430872) rotate(-35)">Sampling</text>
   </g>
   <g id="text_10">
    <text style="font: 6.94px 'Arial', sans-serif" transform="translate(319.037191 339.456682) rotate(-35)">Movement to Lateral Port</text>
   </g>
   <g id="text_11">
    <text style="font: 8.33px 'Arial', sans-serif; text-anchor: middle" x="227.411283" y="13.26398" transform="rotate(-0 227.411283 13.26398)">GP4_85_S1_L70_D250_mm2 - Trace:32_GP4_85_S1_L70_D250_mm2 (when: correct)</text>
   </g>
   <g id="legend_1">
    <g id="patch_4">
     <path d="M 133.696342 354.133136 
L 321.126224 354.133136 
Q 322.514224 354.133136 322.514224 352.745136 
L 322.514224 343.45638 
Q 322.514224 342.06838 321.126224 342.06838 
L 133.696342 342.06838 
Q 132.308342 342.06838 132.308342 343.45638 
L 132.308342 352.745136 
Q 132.308342 354.133136 133.696342 354.133136 
z
" style="fill: #ffffff; opacity: 0.8; stroke: #cccccc; stroke-linejoin: miter"/>
    </g>
    <g id="line2d_10">
     <path d="M 135.084342 347.467483 
L 142.024342 347.467483 
L 148.964342 347.467483 
" style="fill: none; stroke: #1f77b4; stroke-width: 1.5; stroke-linecap: square"/>
    </g>
    <g id="text_12">
     <text style="font: 6.94px 'Arial', sans-serif; text-anchor: start" x="154.516342" y="349.896483" transform="rotate(-0 154.516342 349.896483)">DecisionRight (99 pts)</text>
    </g>
    <g id="line2d_11">
     <path d="M 236.664255 347.467483 
L 243.604255 347.467483 
L 250.544255 347.467483 
" style="fill: none; stroke: #ff7f0e; stroke-width: 1.5; stroke-linecap: square"/>
    </g>
    <g id="text_13">
     <text style="font: 6.94px 'Arial', sans-serif; text-anchor: start" x="256.096255" y="349.896483" transform="rotate(-0 256.096255 349.896483)">DecisionLeft (94 pts)</text>
    </g>
   </g>
  </g>
 </g>
 <defs>
  <clipPath id="p0eb1be7fbe">
   <rect x="48.851283" y="19.26398" width="357.12" height="266.112"/>
  </clipPath>
 </defs>
</svg>
