<?xml version="1.0" encoding="utf-8" standalone="no"?>
<!DOCTYPE svg PUBLIC "-//W3C//DTD SVG 1.1//EN"
  "http://www.w3.org/Graphics/SVG/1.1/DTD/svg11.dtd">
<svg xmlns:xlink="http://www.w3.org/1999/xlink" width="417.084062pt" height="361.333136pt" viewBox="0 0 417.084062 361.333136" xmlns="http://www.w3.org/2000/svg" version="1.1">
 <metadata>
  <rdf:RDF xmlns:dc="http://purl.org/dc/elements/1.1/" xmlns:cc="http://creativecommons.org/ns#" xmlns:rdf="http://www.w3.org/1999/02/22-rdf-syntax-ns#">
   <cc:Work>
    <dc:type rdf:resource="http://purl.org/dc/dcmitype/StillImage"/>
    <dc:date>2025-12-29T04:07:45.495951</dc:date>
    <dc:format>image/svg+xml</dc:format>
    <dc:creator>
     <cc:Agent>
      <dc:title>Matplotlib v3.8.0, https://matplotlib.org/</dc:title>
     </cc:Agent>
    </dc:creator>
   </cc:Work>
  </rdf:RDF>
 </metadata>
 <defs>
  <style type="text/css">*{stroke-linejoin: round; stroke-linecap: butt}</style>
 </defs>
 <g id="figure_1">
  <g id="patch_1">
   <path d="M 0 361.333136 
L 417.084062 361.333136 
L 417.084062 -0 
L 0 -0 
z
" style="fill: #ffffff"/>
  </g>
  <g id="axes_1">
   <g id="patch_2">
    <path d="M 52.764063 285.37598 
L 409.884063 285.37598 
L 409.884063 19.26398 
L 52.764063 19.26398 
z
" style="fill: #ffffff"/>
   </g>
   <g id="PolyCollection_1">
    <defs>
     <path id="med9b222df3" d="M 52.764063 -261.623274 
L 52.764063 -227.521001 
L 63.924063 -237.485518 
L 75.084063 -250.379692 
L 86.244063 -269.219945 
L 97.404063 -263.308053 
L 108.564063 -246.00972 
L 119.724063 -229.793345 
L 130.884063 -211.117896 
L 142.044062 -196.699907 
L 153.204063 -182.356622 
L 164.364063 -167.104841 
L 175.524063 -153.036702 
L 186.684063 -143.429349 
L 197.844063 -135.375592 
L 209.004063 -129.323761 
L 220.164062 -126.28948 
L 231.324063 -122.902249 
L 242.484062 -118.125764 
L 253.644063 -113.597635 
L 264.804062 -109.03709 
L 275.964063 -107.313413 
L 287.124063 -101.705391 
L 298.284063 -101.822788 
L 309.444063 -101.847718 
L 320.604062 -100.575067 
L 331.764063 -100.355209 
L 342.924062 -98.399465 
L 354.084063 -96.595684 
L 365.244062 -98.480798 
L 376.404063 -101.455859 
L 387.564062 -101.376749 
L 398.724063 -100.62233 
L 409.884063 -100.667257 
L 409.884063 -107.301381 
L 409.884063 -107.301381 
L 398.724063 -107.829039 
L 387.564062 -109.326511 
L 376.404063 -109.266417 
L 365.244062 -106.307476 
L 354.084063 -104.91785 
L 342.924062 -107.060727 
L 331.764063 -108.227776 
L 320.604062 -107.981504 
L 309.444063 -109.555297 
L 298.284063 -110.559828 
L 287.124063 -110.577679 
L 275.964063 -115.744356 
L 264.804062 -117.646805 
L 253.644063 -122.167819 
L 242.484062 -128.425298 
L 231.324063 -135.336459 
L 220.164062 -140.288732 
L 209.004063 -144.518794 
L 197.844063 -151.94224 
L 186.684063 -161.385143 
L 175.524063 -172.345422 
L 164.364063 -188.472815 
L 153.204063 -206.943694 
L 142.044062 -224.122078 
L 130.884063 -240.78302 
L 119.724063 -262.45138 
L 108.564063 -281.60898 
L 97.404063 -304.070772 
L 86.244063 -312.285061 
L 75.084063 -289.748594 
L 63.924063 -274.36967 
L 52.764063 -261.623274 
z
" style="stroke: #1f77b4; stroke-opacity: 0.2"/>
    </defs>
    <g clip-path="url(#pbaccc27e72)">
     <use xlink:href="#med9b222df3" x="0" y="361.333136" style="fill: #1f77b4; fill-opacity: 0.2; stroke: #1f77b4; stroke-opacity: 0.2"/>
    </g>
   </g>
   <g id="PolyCollection_2">
    <defs>
     <path id="maa8358653c" d="M 52.764063 -288.837105 
L 52.764063 -245.721598 
L 63.924063 -263.692874 
L 75.084063 -276.108132 
L 86.244063 -280.594456 
L 97.404063 -277.357711 
L 108.564063 -262.99603 
L 119.724063 -243.721858 
L 130.884063 -223.299388 
L 142.044062 -204.195649 
L 153.204063 -188.706535 
L 164.364063 -177.996413 
L 175.524063 -173.195813 
L 186.684063 -161.482943 
L 197.844063 -148.174656 
L 209.004063 -135.252922 
L 220.164062 -126.667781 
L 231.324063 -120.577683 
L 242.484062 -115.453636 
L 253.644063 -110.644914 
L 264.804062 -107.974053 
L 275.964063 -107.98 
L 287.124063 -105.304665 
L 298.284063 -98.274752 
L 309.444063 -91.002218 
L 320.604062 -88.053156 
L 331.764063 -90.813286 
L 342.924062 -90.347531 
L 354.084063 -91.224316 
L 365.244062 -98.765551 
L 376.404063 -105.586026 
L 387.564062 -111.687678 
L 398.724063 -112.569019 
L 409.884063 -112.931098 
L 409.884063 -120.830072 
L 409.884063 -120.830072 
L 398.724063 -121.0189 
L 387.564062 -120.571733 
L 376.404063 -113.793122 
L 365.244062 -105.577959 
L 354.084063 -98.08672 
L 342.924062 -97.704702 
L 331.764063 -98.007345 
L 320.604062 -95.341429 
L 309.444063 -99.093163 
L 298.284063 -107.851602 
L 287.124063 -116.426132 
L 275.964063 -119.008832 
L 264.804062 -118.511976 
L 253.644063 -121.693413 
L 242.484062 -128.802626 
L 231.324063 -137.475162 
L 220.164062 -147.132983 
L 209.004063 -159.046987 
L 197.844063 -174.925419 
L 186.684063 -191.884106 
L 175.524063 -207.76511 
L 164.364063 -213.804377 
L 153.204063 -222.60255 
L 142.044062 -238.946661 
L 130.884063 -261.666863 
L 119.724063 -286.753728 
L 108.564063 -309.650217 
L 97.404063 -325.989635 
L 86.244063 -329.973156 
L 75.084063 -324.768431 
L 63.924063 -309.312807 
L 52.764063 -288.837105 
z
" style="stroke: #ff7f0e; stroke-opacity: 0.2"/>
    </defs>
    <g clip-path="url(#pbaccc27e72)">
     <use xlink:href="#maa8358653c" x="0" y="361.333136" style="fill: #ff7f0e; fill-opacity: 0.2; stroke: #ff7f0e; stroke-opacity: 0.2"/>
    </g>
   </g>
   <g id="matplotlib.axis_1">
    <g id="text_1">
     <text style="font: 10px 'Arial', sans-serif; text-anchor: middle" x="231.324063" y="296.533792" transform="rotate(-0 231.324063 296.533792)">Time</text>
    </g>
   </g>
   <g id="matplotlib.axis_2">
    <g id="ytick_1">
     <g id="line2d_1">
      <defs>
       <path id="m73dc38eade" d="M 0 0 
L -3.5 0 
" style="stroke: #000000; stroke-width: 0.8"/>
      </defs>
      <g>
       <use xlink:href="#m73dc38eade" x="52.764063" y="266.926778" style="stroke: #000000; stroke-width: 0.8"/>
      </g>
     </g>
     <g id="text_2">
      <text style="font: 10px 'Arial', sans-serif; text-anchor: end" x="45.764063" y="270.505684" transform="rotate(-0 45.764063 270.505684)">−0.50</text>
     </g>
    </g>
    <g id="ytick_2">
     <g id="line2d_2">
      <g>
       <use xlink:href="#m73dc38eade" x="52.764063" y="237.233095" style="stroke: #000000; stroke-width: 0.8"/>
      </g>
     </g>
     <g id="text_3">
      <text style="font: 10px 'Arial', sans-serif; text-anchor: end" x="45.764063" y="240.812001" transform="rotate(-0 45.764063 240.812001)">−0.25</text>
     </g>
    </g>
    <g id="ytick_3">
     <g id="line2d_3">
      <g>
       <use xlink:href="#m73dc38eade" x="52.764063" y="207.539412" style="stroke: #000000; stroke-width: 0.8"/>
      </g>
     </g>
     <g id="text_4">
      <text style="font: 10px 'Arial', sans-serif; text-anchor: end" x="45.764063" y="211.118319" transform="rotate(-0 45.764063 211.118319)">0.00</text>
     </g>
    </g>
    <g id="ytick_4">
     <g id="line2d_4">
      <g>
       <use xlink:href="#m73dc38eade" x="52.764063" y="177.84573" style="stroke: #000000; stroke-width: 0.8"/>
      </g>
     </g>
     <g id="text_5">
      <text style="font: 10px 'Arial', sans-serif; text-anchor: end" x="45.764063" y="181.424636" transform="rotate(-0 45.764063 181.424636)">0.25</text>
     </g>
    </g>
    <g id="ytick_5">
     <g id="line2d_5">
      <g>
       <use xlink:href="#m73dc38eade" x="52.764063" y="148.152047" style="stroke: #000000; stroke-width: 0.8"/>
      </g>
     </g>
     <g id="text_6">
      <text style="font: 10px 'Arial', sans-serif; text-anchor: end" x="45.764063" y="151.730953" transform="rotate(-0 45.764063 151.730953)">0.50</text>
     </g>
    </g>
    <g id="ytick_6">
     <g id="line2d_6">
      <g>
       <use xlink:href="#m73dc38eade" x="52.764063" y="118.458364" style="stroke: #000000; stroke-width: 0.8"/>
      </g>
     </g>
     <g id="text_7">
      <text style="font: 10px 'Arial', sans-serif; text-anchor: end" x="45.764063" y="122.037271" transform="rotate(-0 45.764063 122.037271)">0.75</text>
     </g>
    </g>
    <g id="ytick_7">
     <g id="line2d_7">
      <g>
       <use xlink:href="#m73dc38eade" x="52.764063" y="88.764682" style="stroke: #000000; stroke-width: 0.8"/>
      </g>
     </g>
     <g id="text_8">
      <text style="font: 10px 'Arial', sans-serif; text-anchor: end" x="45.764063" y="92.343588" transform="rotate(-0 45.764063 92.343588)">1.00</text>
     </g>
    </g>
    <g id="ytick_8">
     <g id="line2d_8">
      <g>
       <use xlink:href="#m73dc38eade" x="52.764063" y="59.070999" style="stroke: #000000; stroke-width: 0.8"/>
      </g>
     </g>
     <g id="text_9">
      <text style="font: 10px 'Arial', sans-serif; text-anchor: end" x="45.764063" y="62.649905" transform="rotate(-0 45.764063 62.649905)">1.25</text>
     </g>
    </g>
    <g id="ytick_9">
     <g id="line2d_9">
      <g>
       <use xlink:href="#m73dc38eade" x="52.764063" y="29.377316" style="stroke: #000000; stroke-width: 0.8"/>
      </g>
     </g>
     <g id="text_10">
      <text style="font: 10px 'Arial', sans-serif; text-anchor: end" x="45.764063" y="32.956222" transform="rotate(-0 45.764063 32.956222)">1.50</text>
     </g>
    </g>
    <g id="text_11">
     <text style="font: 10px 'Arial', sans-serif; text-anchor: middle" x="14.357813" y="152.31998" transform="rotate(-90 14.357813 152.31998)">Activity</text>
    </g>
   </g>
   <g id="line2d_10">
    <path d="M 52.764063 116.760998 
L 63.924063 105.405538 
L 75.084063 91.268993 
L 86.244063 70.580637 
L 97.404063 77.643724 
L 108.564063 97.523782 
L 119.724063 115.210773 
L 130.884063 135.382678 
L 142.044062 150.922145 
L 153.204063 166.682978 
L 164.364063 183.544307 
L 175.524063 198.642074 
L 186.684063 208.92589 
L 197.844063 217.67422 
L 209.004063 224.411858 
L 220.164062 228.04403 
L 231.324063 232.213782 
L 242.484062 238.057605 
L 253.644063 243.450409 
L 264.804062 247.991188 
L 275.964063 249.804251 
L 287.124063 255.191601 
L 298.284063 255.141828 
L 309.444063 255.631628 
L 320.604062 257.05485 
L 331.764063 257.041643 
L 342.924062 258.60304 
L 354.084063 260.576369 
L 365.244062 258.938999 
L 376.404063 255.971998 
L 387.564062 255.981506 
L 398.724063 257.107451 
L 409.884063 257.348817 
" clip-path="url(#pbaccc27e72)" style="fill: none; stroke: #1f77b4; stroke-width: 1.5; stroke-linecap: square"/>
   </g>
   <g id="line2d_11">
    <path d="M 52.764063 94.053788 
L 63.924063 74.830292 
L 75.084063 60.894855 
L 86.244063 56.04933 
L 97.404063 59.659463 
L 108.564063 75.010013 
L 119.724063 96.095346 
L 130.884063 118.850011 
L 142.044062 139.761981 
L 153.204063 155.678595 
L 164.364063 165.432741 
L 175.524063 170.852673 
L 186.684063 184.649611 
L 197.844063 199.783098 
L 209.004063 214.183181 
L 220.164062 224.432754 
L 231.324063 232.306714 
L 242.484062 239.205005 
L 253.644063 245.163973 
L 264.804062 248.090121 
L 275.964063 247.83872 
L 287.124063 250.467737 
L 298.284063 258.269959 
L 309.444063 266.285444 
L 320.604062 269.635843 
L 331.764063 266.922821 
L 342.924062 267.307019 
L 354.084063 266.677618 
L 365.244062 259.161381 
L 376.404063 251.643562 
L 387.564062 245.203431 
L 398.724063 244.539176 
L 409.884063 244.452551 
" clip-path="url(#pbaccc27e72)" style="fill: none; stroke: #ff7f0e; stroke-width: 1.5; stroke-linecap: square"/>
   </g>
   <g id="line2d_12">
    <path d="M 86.244063 285.37598 
L 86.244063 19.26398 
" clip-path="url(#pbaccc27e72)" style="fill: none; stroke-dasharray: 5.55,2.4; stroke-dashoffset: 0; stroke: #000000; stroke-opacity: 0.5; stroke-width: 1.5"/>
   </g>
   <g id="line2d_13">
    <path d="M 387.564062 285.37598 
L 387.564062 19.26398 
" clip-path="url(#pbaccc27e72)" style="fill: none; stroke-dasharray: 5.55,2.4; stroke-dashoffset: 0; stroke: #000000; stroke-opacity: 0.5; stroke-width: 1.5"/>
   </g>
   <g id="patch_3">
    <path d="M 52.764063 285.37598 
L 409.884063 285.37598 
" style="fill: none; stroke: #000000; stroke-width: 0.8; stroke-linejoin: miter; stroke-linecap: square"/>
   </g>
   <g id="text_12">
    <text style="font: 6.94px 'Arial', sans-serif" transform="translate(14.010547 321.385533) rotate(-35)">-0.1s Sampling</text>
   </g>
   <g id="text_13">
    <text style="font: 6.94px 'Arial', sans-serif" transform="translate(61.707276 311.430872) rotate(-35)">Sampling</text>
   </g>
   <g id="text_14">
    <text style="font: 6.94px 'Arial', sans-serif" transform="translate(322.94997 339.456682) rotate(-35)">Movement to Lateral Port</text>
   </g>
   <g id="text_15">
    <text style="font: 8.33px 'Arial', sans-serif; text-anchor: middle" x="231.324063" y="13.26398" transform="rotate(-0 231.324063 13.26398)">GP4_85_S1_L70_D250_mm2 - Trace:34_GP4_85_S1_L70_D250_mm2 (when: correct)</text>
   </g>
   <g id="legend_1">
    <g id="patch_4">
     <path d="M 137.609122 354.133136 
L 325.039003 354.133136 
Q 326.427003 354.133136 326.427003 352.745136 
L 326.427003 343.45638 
Q 326.427003 342.06838 325.039003 342.06838 
L 137.609122 342.06838 
Q 136.221122 342.06838 136.221122 343.45638 
L 136.221122 352.745136 
Q 136.221122 354.133136 137.609122 354.133136 
z
" style="fill: #ffffff; opacity: 0.8; stroke: #cccccc; stroke-linejoin: miter"/>
    </g>
    <g id="line2d_14">
     <path d="M 138.997122 347.467483 
L 145.937122 347.467483 
L 152.877122 347.467483 
" style="fill: none; stroke: #1f77b4; stroke-width: 1.5; stroke-linecap: square"/>
    </g>
    <g id="text_16">
     <text style="font: 6.94px 'Arial', sans-serif; text-anchor: start" x="158.429122" y="349.896483" transform="rotate(-0 158.429122 349.896483)">DecisionRight (99 pts)</text>
    </g>
    <g id="line2d_15">
     <path d="M 240.577034 347.467483 
L 247.517034 347.467483 
L 254.457034 347.467483 
" style="fill: none; stroke: #ff7f0e; stroke-width: 1.5; stroke-linecap: square"/>
    </g>
    <g id="text_17">
     <text style="font: 6.94px 'Arial', sans-serif; text-anchor: start" x="260.009034" y="349.896483" transform="rotate(-0 260.009034 349.896483)">DecisionLeft (94 pts)</text>
    </g>
   </g>
  </g>
 </g>
 <defs>
  <clipPath id="pbaccc27e72">
   <rect x="52.764063" y="19.26398" width="357.12" height="266.112"/>
  </clipPath>
 </defs>
</svg>
