<?xml version="1.0" encoding="utf-8" standalone="no"?>
<!DOCTYPE svg PUBLIC "-//W3C//DTD SVG 1.1//EN"
  "http://www.w3.org/Graphics/SVG/1.1/DTD/svg11.dtd">
<svg xmlns:xlink="http://www.w3.org/1999/xlink" width="413.171283pt" height="361.333136pt" viewBox="0 0 413.171283 361.333136" xmlns="http://www.w3.org/2000/svg" version="1.1">
 <metadata>
  <rdf:RDF xmlns:dc="http://purl.org/dc/elements/1.1/" xmlns:cc="http://creativecommons.org/ns#" xmlns:rdf="http://www.w3.org/1999/02/22-rdf-syntax-ns#">
   <cc:Work>
    <dc:type rdf:resource="http://purl.org/dc/dcmitype/StillImage"/>
    <dc:date>2025-12-29T04:07:44.357675</dc:date>
    <dc:format>image/svg+xml</dc:format>
    <dc:creator>
     <cc:Agent>
      <dc:title>Matplotlib v3.8.0, https://matplotlib.org/</dc:title>
     </cc:Agent>
    </dc:creator>
   </cc:Work>
  </rdf:RDF>
 </metadata>
 <defs>
  <style type="text/css">*{stroke-linejoin: round; stroke-linecap: butt}</style>
 </defs>
 <g id="figure_1">
  <g id="patch_1">
   <path d="M 0 361.333136 
L 413.171283 361.333136 
L 413.171283 -0 
L 0 -0 
z
" style="fill: #ffffff"/>
  </g>
  <g id="axes_1">
   <g id="patch_2">
    <path d="M 48.851283 285.37598 
L 405.971283 285.37598 
L 405.971283 19.26398 
L 48.851283 19.26398 
z
" style="fill: #ffffff"/>
   </g>
   <g id="PolyCollection_1">
    <defs>
     <path id="m787c346f75" d="M 48.851283 -137.40687 
L 48.851283 -99.133657 
L 60.011283 -99.402497 
L 71.171283 -100.252207 
L 82.331283 -98.993918 
L 93.491283 -94.765521 
L 104.651283 -97.19245 
L 115.811283 -106.606192 
L 126.971283 -112.158329 
L 138.131283 -115.265372 
L 149.291283 -120.722033 
L 160.451283 -125.79049 
L 171.611283 -130.534208 
L 182.771283 -131.129527 
L 193.931283 -132.186922 
L 205.091283 -145.33074 
L 216.251283 -159.567054 
L 227.411283 -161.826479 
L 238.571283 -161.619435 
L 249.731283 -160.623013 
L 260.891283 -156.9949 
L 272.051283 -151.345714 
L 283.211283 -151.930989 
L 294.371283 -155.124647 
L 305.531283 -154.746604 
L 316.691283 -156.165898 
L 327.851283 -157.505944 
L 339.011283 -159.785448 
L 350.171283 -158.424306 
L 361.331283 -158.441255 
L 372.491283 -160.969462 
L 383.651283 -166.535352 
L 394.811283 -167.172767 
L 405.971283 -161.118173 
L 405.971283 -212.123633 
L 405.971283 -212.123633 
L 394.811283 -222.537596 
L 383.651283 -222.529213 
L 372.491283 -214.038119 
L 361.331283 -209.501363 
L 350.171283 -209.160965 
L 339.011283 -210.818644 
L 327.851283 -208.765139 
L 316.691283 -206.487035 
L 305.531283 -204.1525 
L 294.371283 -204.225068 
L 283.211283 -200.353027 
L 272.051283 -199.239346 
L 260.891283 -204.894343 
L 249.731283 -209.311224 
L 238.571283 -210.04794 
L 227.411283 -209.771357 
L 216.251283 -205.819136 
L 205.091283 -188.425523 
L 193.931283 -172.506719 
L 182.771283 -172.04614 
L 171.611283 -171.858546 
L 160.451283 -167.350287 
L 149.291283 -162.646084 
L 138.131283 -155.933099 
L 126.971283 -150.337342 
L 115.811283 -143.646424 
L 104.651283 -132.815798 
L 93.491283 -131.296814 
L 82.331283 -136.742184 
L 71.171283 -138.103808 
L 60.011283 -137.271475 
L 48.851283 -137.40687 
z
" style="stroke: #1f77b4; stroke-opacity: 0.2"/>
    </defs>
    <g clip-path="url(#pe7dca7c6b7)">
     <use xlink:href="#m787c346f75" x="0" y="361.333136" style="fill: #1f77b4; fill-opacity: 0.2; stroke: #1f77b4; stroke-opacity: 0.2"/>
    </g>
   </g>
   <g id="PolyCollection_2">
    <defs>
     <path id="mf20dcee706" d="M 48.851283 -131.029222 
L 48.851283 -97.849343 
L 60.011283 -97.420566 
L 71.171283 -93.133282 
L 82.331283 -89.472287 
L 93.491283 -88.053156 
L 104.651283 -88.354122 
L 115.811283 -91.156491 
L 126.971283 -94.490947 
L 138.131283 -102.192644 
L 149.291283 -116.577225 
L 160.451283 -127.483633 
L 171.611283 -134.57985 
L 182.771283 -144.067207 
L 193.931283 -151.841456 
L 205.091283 -160.731529 
L 216.251283 -163.358341 
L 227.411283 -168.730147 
L 238.571283 -173.631852 
L 249.731283 -171.576454 
L 260.891283 -167.276061 
L 272.051283 -166.34156 
L 283.211283 -163.454469 
L 294.371283 -164.477373 
L 305.531283 -167.947251 
L 316.691283 -171.835641 
L 327.851283 -173.749325 
L 339.011283 -173.083374 
L 350.171283 -182.961292 
L 361.331283 -203.232709 
L 372.491283 -221.768915 
L 383.651283 -241.110424 
L 394.811283 -253.395914 
L 405.971283 -260.661765 
L 405.971283 -329.973156 
L 405.971283 -329.973156 
L 394.811283 -322.681469 
L 383.651283 -310.132107 
L 372.491283 -287.1938 
L 361.331283 -263.427295 
L 350.171283 -237.010884 
L 339.011283 -222.013819 
L 327.851283 -222.232993 
L 316.691283 -220.313261 
L 305.531283 -216.5831 
L 294.371283 -213.08749 
L 283.211283 -211.266376 
L 272.051283 -215.530565 
L 260.891283 -219.800844 
L 249.731283 -225.329384 
L 238.571283 -227.537351 
L 227.411283 -221.410596 
L 216.251283 -214.721692 
L 205.091283 -212.825971 
L 193.931283 -203.531154 
L 182.771283 -192.959799 
L 171.611283 -179.377701 
L 160.451283 -168.957383 
L 149.291283 -154.057438 
L 138.131283 -136.685468 
L 126.971283 -129.122983 
L 115.811283 -125.706775 
L 104.651283 -121.622039 
L 93.491283 -121.019416 
L 82.331283 -123.078436 
L 71.171283 -126.202182 
L 60.011283 -129.931929 
L 48.851283 -131.029222 
z
" style="stroke: #ff7f0e; stroke-opacity: 0.2"/>
    </defs>
    <g clip-path="url(#pe7dca7c6b7)">
     <use xlink:href="#mf20dcee706" x="0" y="361.333136" style="fill: #ff7f0e; fill-opacity: 0.2; stroke: #ff7f0e; stroke-opacity: 0.2"/>
    </g>
   </g>
   <g id="matplotlib.axis_1">
    <g id="text_1">
     <text style="font: 10px 'Arial', sans-serif; text-anchor: middle" x="227.411283" y="296.533792" transform="rotate(-0 227.411283 296.533792)">Time</text>
    </g>
   </g>
   <g id="matplotlib.axis_2">
    <g id="ytick_1">
     <g id="line2d_1">
      <defs>
       <path id="mef893c1164" d="M 0 0 
L -3.5 0 
" style="stroke: #000000; stroke-width: 0.8"/>
      </defs>
      <g>
       <use xlink:href="#mef893c1164" x="48.851283" y="229.213559" style="stroke: #000000; stroke-width: 0.8"/>
      </g>
     </g>
     <g id="text_2">
      <text style="font: 10px 'Arial', sans-serif; text-anchor: end" x="41.851283" y="232.792466" transform="rotate(-0 41.851283 232.792466)">−0.2</text>
     </g>
    </g>
    <g id="ytick_2">
     <g id="line2d_2">
      <g>
       <use xlink:href="#mef893c1164" x="48.851283" y="173.039229" style="stroke: #000000; stroke-width: 0.8"/>
      </g>
     </g>
     <g id="text_3">
      <text style="font: 10px 'Arial', sans-serif; text-anchor: end" x="41.851283" y="176.618135" transform="rotate(-0 41.851283 176.618135)">0.0</text>
     </g>
    </g>
    <g id="ytick_3">
     <g id="line2d_3">
      <g>
       <use xlink:href="#mef893c1164" x="48.851283" y="116.864899" style="stroke: #000000; stroke-width: 0.8"/>
      </g>
     </g>
     <g id="text_4">
      <text style="font: 10px 'Arial', sans-serif; text-anchor: end" x="41.851283" y="120.443805" transform="rotate(-0 41.851283 120.443805)">0.2</text>
     </g>
    </g>
    <g id="ytick_4">
     <g id="line2d_4">
      <g>
       <use xlink:href="#mef893c1164" x="48.851283" y="60.690568" style="stroke: #000000; stroke-width: 0.8"/>
      </g>
     </g>
     <g id="text_5">
      <text style="font: 10px 'Arial', sans-serif; text-anchor: end" x="41.851283" y="64.269474" transform="rotate(-0 41.851283 64.269474)">0.4</text>
     </g>
    </g>
    <g id="text_6">
     <text style="font: 10px 'Arial', sans-serif; text-anchor: middle" x="16.005971" y="152.31998" transform="rotate(-90 16.005971 152.31998)">Activity</text>
    </g>
   </g>
   <g id="line2d_5">
    <path d="M 48.851283 243.062872 
L 60.011283 242.99615 
L 71.171283 242.155128 
L 82.331283 243.465085 
L 93.491283 248.301969 
L 104.651283 246.329012 
L 115.811283 236.20683 
L 126.971283 230.085298 
L 138.131283 225.733903 
L 149.291283 219.649076 
L 160.451283 214.762747 
L 171.611283 210.136758 
L 182.771283 209.745301 
L 193.931283 208.986316 
L 205.091283 194.455004 
L 216.251283 178.64004 
L 227.411283 175.534218 
L 238.571283 175.499449 
L 249.731283 176.366018 
L 260.891283 180.388514 
L 272.051283 186.040607 
L 283.211283 185.191127 
L 294.371283 181.658279 
L 305.531283 181.883584 
L 316.691283 180.006668 
L 327.851283 178.197595 
L 339.011283 176.03109 
L 350.171283 177.5405 
L 361.331283 177.361827 
L 372.491283 173.829344 
L 383.651283 166.800853 
L 394.811283 166.477954 
L 405.971283 174.712233 
" clip-path="url(#pe7dca7c6b7)" style="fill: none; stroke: #1f77b4; stroke-width: 1.5; stroke-linecap: square"/>
   </g>
   <g id="line2d_6">
    <path d="M 48.851283 246.893853 
L 60.011283 247.656886 
L 71.171283 251.665404 
L 82.331283 255.057776 
L 93.491283 256.79685 
L 104.651283 256.345053 
L 115.811283 252.901503 
L 126.971283 249.526173 
L 138.131283 241.894082 
L 149.291283 226.015805 
L 160.451283 213.112629 
L 171.611283 204.35436 
L 182.771283 192.819633 
L 193.931283 183.64683 
L 205.091283 174.554386 
L 216.251283 172.293119 
L 227.411283 166.262765 
L 238.571283 160.748535 
L 249.731283 162.880217 
L 260.891283 167.794682 
L 272.051283 170.397074 
L 283.211283 173.972713 
L 294.371283 172.550704 
L 305.531283 169.06796 
L 316.691283 165.258686 
L 327.851283 163.341977 
L 339.011283 163.78454 
L 350.171283 151.347049 
L 361.331283 128.003135 
L 372.491283 106.851777 
L 383.651283 85.71187 
L 394.811283 73.294446 
L 405.971283 66.015675 
" clip-path="url(#pe7dca7c6b7)" style="fill: none; stroke: #ff7f0e; stroke-width: 1.5; stroke-linecap: square"/>
   </g>
   <g id="line2d_7">
    <path d="M 82.331283 285.37598 
L 82.331283 19.26398 
" clip-path="url(#pe7dca7c6b7)" style="fill: none; stroke-dasharray: 5.55,2.4; stroke-dashoffset: 0; stroke: #000000; stroke-opacity: 0.5; stroke-width: 1.5"/>
   </g>
   <g id="line2d_8">
    <path d="M 383.651283 285.37598 
L 383.651283 19.26398 
" clip-path="url(#pe7dca7c6b7)" style="fill: none; stroke-dasharray: 5.55,2.4; stroke-dashoffset: 0; stroke: #000000; stroke-opacity: 0.5; stroke-width: 1.5"/>
   </g>
   <g id="patch_3">
    <path d="M 48.851283 285.37598 
L 405.971283 285.37598 
" style="fill: none; stroke: #000000; stroke-width: 0.8; stroke-linejoin: miter; stroke-linecap: square"/>
   </g>
   <g id="text_7">
    <text style="font: 6.94px 'Arial', sans-serif" transform="translate(10.097767 321.385533) rotate(-35)">-0.1s Sampling</text>
   </g>
   <g id="text_8">
    <text style="font: 6.94px 'Arial', sans-serif" transform="translate(57.794497 311.430872) rotate(-35)">Sampling</text>
   </g>
   <g id="text_9">
    <text style="font: 6.94px 'Arial', sans-serif" transform="translate(319.037191 339.456682) rotate(-35)">Movement to Lateral Port</text>
   </g>
   <g id="text_10">
    <text style="font: 8.33px 'Arial', sans-serif; text-anchor: middle" x="227.411283" y="13.26398" transform="rotate(-0 227.411283 13.26398)">GP4_85_S1_L70_D250_mm2 - Trace:4_GP4_85_S1_L70_D250_mm2 (when: correct)</text>
   </g>
   <g id="legend_1">
    <g id="patch_4">
     <path d="M 133.696342 354.133136 
L 321.126224 354.133136 
Q 322.514224 354.133136 322.514224 352.745136 
L 322.514224 343.45638 
Q 322.514224 342.06838 321.126224 342.06838 
L 133.696342 342.06838 
Q 132.308342 342.06838 132.308342 343.45638 
L 132.308342 352.745136 
Q 132.308342 354.133136 133.696342 354.133136 
z
" style="fill: #ffffff; opacity: 0.8; stroke: #cccccc; stroke-linejoin: miter"/>
    </g>
    <g id="line2d_9">
     <path d="M 135.084342 347.467483 
L 142.024342 347.467483 
L 148.964342 347.467483 
" style="fill: none; stroke: #1f77b4; stroke-width: 1.5; stroke-linecap: square"/>
    </g>
    <g id="text_11">
     <text style="font: 6.94px 'Arial', sans-serif; text-anchor: start" x="154.516342" y="349.896483" transform="rotate(-0 154.516342 349.896483)">DecisionRight (99 pts)</text>
    </g>
    <g id="line2d_10">
     <path d="M 236.664255 347.467483 
L 243.604255 347.467483 
L 250.544255 347.467483 
" style="fill: none; stroke: #ff7f0e; stroke-width: 1.5; stroke-linecap: square"/>
    </g>
    <g id="text_12">
     <text style="font: 6.94px 'Arial', sans-serif; text-anchor: start" x="256.096255" y="349.896483" transform="rotate(-0 256.096255 349.896483)">DecisionLeft (94 pts)</text>
    </g>
   </g>
  </g>
 </g>
 <defs>
  <clipPath id="pe7dca7c6b7">
   <rect x="48.851283" y="19.26398" width="357.12" height="266.112"/>
  </clipPath>
 </defs>
</svg>
