<?xml version="1.0" encoding="utf-8" standalone="no"?>
<!DOCTYPE svg PUBLIC "-//W3C//DTD SVG 1.1//EN"
  "http://www.w3.org/Graphics/SVG/1.1/DTD/svg11.dtd">
<svg xmlns:xlink="http://www.w3.org/1999/xlink" width="413.171283pt" height="361.333136pt" viewBox="0 0 413.171283 361.333136" xmlns="http://www.w3.org/2000/svg" version="1.1">
 <metadata>
  <rdf:RDF xmlns:dc="http://purl.org/dc/elements/1.1/" xmlns:cc="http://creativecommons.org/ns#" xmlns:rdf="http://www.w3.org/1999/02/22-rdf-syntax-ns#">
   <cc:Work>
    <dc:type rdf:resource="http://purl.org/dc/dcmitype/StillImage"/>
    <dc:date>2025-12-29T04:07:44.955801</dc:date>
    <dc:format>image/svg+xml</dc:format>
    <dc:creator>
     <cc:Agent>
      <dc:title>Matplotlib v3.8.0, https://matplotlib.org/</dc:title>
     </cc:Agent>
    </dc:creator>
   </cc:Work>
  </rdf:RDF>
 </metadata>
 <defs>
  <style type="text/css">*{stroke-linejoin: round; stroke-linecap: butt}</style>
 </defs>
 <g id="figure_1">
  <g id="patch_1">
   <path d="M 0 361.333136 
L 413.171283 361.333136 
L 413.171283 -0 
L 0 -0 
z
" style="fill: #ffffff"/>
  </g>
  <g id="axes_1">
   <g id="patch_2">
    <path d="M 48.851283 285.37598 
L 405.971283 285.37598 
L 405.971283 19.26398 
L 48.851283 19.26398 
z
" style="fill: #ffffff"/>
   </g>
   <g id="PolyCollection_1">
    <defs>
     <path id="m3fd61fa74c" d="M 48.851283 -218.938382 
L 48.851283 -174.800109 
L 60.011283 -207.545212 
L 71.171283 -230.950825 
L 82.331283 -252.190731 
L 93.491283 -254.138832 
L 104.651283 -238.920894 
L 115.811283 -230.932381 
L 126.971283 -231.062851 
L 138.131283 -229.799489 
L 149.291283 -218.916285 
L 160.451283 -203.350133 
L 171.611283 -191.121025 
L 182.771283 -167.382792 
L 193.931283 -158.531457 
L 205.091283 -167.314339 
L 216.251283 -154.895496 
L 227.411283 -148.586328 
L 238.571283 -148.594596 
L 249.731283 -136.356872 
L 260.891283 -133.417513 
L 272.051283 -129.672593 
L 283.211283 -122.330207 
L 294.371283 -115.834158 
L 305.531283 -118.303188 
L 316.691283 -115.484634 
L 327.851283 -108.587953 
L 339.011283 -102.30545 
L 350.171283 -105.222198 
L 361.331283 -105.423675 
L 372.491283 -109.254268 
L 383.651283 -114.117236 
L 394.811283 -110.639278 
L 405.971283 -100.401984 
L 405.971283 -124.645875 
L 405.971283 -124.645875 
L 394.811283 -136.984534 
L 383.651283 -144.779262 
L 372.491283 -142.487545 
L 361.331283 -137.811213 
L 350.171283 -138.696747 
L 339.011283 -139.434936 
L 327.851283 -145.843686 
L 316.691283 -152.741138 
L 305.531283 -155.7918 
L 294.371283 -155.860656 
L 283.211283 -164.825453 
L 272.051283 -172.809212 
L 260.891283 -177.68503 
L 249.731283 -182.116921 
L 238.571283 -195.386038 
L 227.411283 -195.113298 
L 216.251283 -200.920648 
L 205.091283 -215.830922 
L 193.931283 -210.7238 
L 182.771283 -224.5958 
L 171.611283 -252.549308 
L 160.451283 -267.50069 
L 149.291283 -285.19622 
L 138.131283 -299.866392 
L 126.971283 -301.088456 
L 115.811283 -299.271347 
L 104.651283 -309.146926 
L 93.491283 -329.973156 
L 82.331283 -327.368666 
L 71.171283 -297.668711 
L 60.011283 -263.969858 
L 48.851283 -218.938382 
z
" style="stroke: #1f77b4; stroke-opacity: 0.2"/>
    </defs>
    <g clip-path="url(#p6797217562)">
     <use xlink:href="#m3fd61fa74c" x="0" y="361.333136" style="fill: #1f77b4; fill-opacity: 0.2; stroke: #1f77b4; stroke-opacity: 0.2"/>
    </g>
   </g>
   <g id="PolyCollection_2">
    <defs>
     <path id="m1509c44f4e" d="M 48.851283 -209.086558 
L 48.851283 -175.287317 
L 60.011283 -187.829696 
L 71.171283 -200.084595 
L 82.331283 -218.416654 
L 93.491283 -231.002312 
L 104.651283 -213.514736 
L 115.811283 -189.501917 
L 126.971283 -178.276612 
L 138.131283 -176.916967 
L 149.291283 -179.218335 
L 160.451283 -171.515959 
L 171.611283 -160.719282 
L 182.771283 -144.334019 
L 193.931283 -141.572664 
L 205.091283 -155.177434 
L 216.251283 -153.633334 
L 227.411283 -140.93952 
L 238.571283 -129.685266 
L 249.731283 -117.336732 
L 260.891283 -103.510546 
L 272.051283 -96.849522 
L 283.211283 -94.966352 
L 294.371283 -88.053156 
L 305.531283 -92.514545 
L 316.691283 -97.27926 
L 327.851283 -101.271013 
L 339.011283 -105.285986 
L 350.171283 -101.010012 
L 361.331283 -92.448958 
L 372.491283 -94.804598 
L 383.651283 -97.963775 
L 394.811283 -100.521764 
L 405.971283 -106.55679 
L 405.971283 -134.265615 
L 405.971283 -134.265615 
L 394.811283 -127.501837 
L 383.651283 -125.964175 
L 372.491283 -122.436422 
L 361.331283 -119.560986 
L 350.171283 -128.822813 
L 339.011283 -135.762828 
L 327.851283 -130.931413 
L 316.691283 -123.609882 
L 305.531283 -116.568306 
L 294.371283 -111.260892 
L 283.211283 -123.437332 
L 272.051283 -131.630494 
L 260.891283 -141.761463 
L 249.731283 -157.087245 
L 238.571283 -170.876199 
L 227.411283 -182.928037 
L 216.251283 -196.889959 
L 205.091283 -201.812302 
L 193.931283 -191.216387 
L 182.771283 -195.554552 
L 171.611283 -216.150764 
L 160.451283 -232.399635 
L 149.291283 -242.843954 
L 138.131283 -243.115828 
L 126.971283 -243.347513 
L 115.811283 -255.404616 
L 104.651283 -283.064478 
L 93.491283 -303.208061 
L 82.331283 -284.835972 
L 71.171283 -252.37873 
L 60.011283 -228.036438 
L 48.851283 -209.086558 
z
" style="stroke: #ff7f0e; stroke-opacity: 0.2"/>
    </defs>
    <g clip-path="url(#p6797217562)">
     <use xlink:href="#m1509c44f4e" x="0" y="361.333136" style="fill: #ff7f0e; fill-opacity: 0.2; stroke: #ff7f0e; stroke-opacity: 0.2"/>
    </g>
   </g>
   <g id="matplotlib.axis_1">
    <g id="text_1">
     <text style="font: 10px 'Arial', sans-serif; text-anchor: middle" x="227.411283" y="296.533792" transform="rotate(-0 227.411283 296.533792)">Time</text>
    </g>
   </g>
   <g id="matplotlib.axis_2">
    <g id="ytick_1">
     <g id="line2d_1">
      <defs>
       <path id="m1cc4f61092" d="M 0 0 
L -3.5 0 
" style="stroke: #000000; stroke-width: 0.8"/>
      </defs>
      <g>
       <use xlink:href="#m1cc4f61092" x="48.851283" y="242.531787" style="stroke: #000000; stroke-width: 0.8"/>
      </g>
     </g>
     <g id="text_2">
      <text style="font: 10px 'Arial', sans-serif; text-anchor: end" x="41.851283" y="246.110694" transform="rotate(-0 41.851283 246.110694)">−0.2</text>
     </g>
    </g>
    <g id="ytick_2">
     <g id="line2d_2">
      <g>
       <use xlink:href="#m1cc4f61092" x="48.851283" y="197.127829" style="stroke: #000000; stroke-width: 0.8"/>
      </g>
     </g>
     <g id="text_3">
      <text style="font: 10px 'Arial', sans-serif; text-anchor: end" x="41.851283" y="200.706735" transform="rotate(-0 41.851283 200.706735)">0.0</text>
     </g>
    </g>
    <g id="ytick_3">
     <g id="line2d_3">
      <g>
       <use xlink:href="#m1cc4f61092" x="48.851283" y="151.72387" style="stroke: #000000; stroke-width: 0.8"/>
      </g>
     </g>
     <g id="text_4">
      <text style="font: 10px 'Arial', sans-serif; text-anchor: end" x="41.851283" y="155.302776" transform="rotate(-0 41.851283 155.302776)">0.2</text>
     </g>
    </g>
    <g id="ytick_4">
     <g id="line2d_4">
      <g>
       <use xlink:href="#m1cc4f61092" x="48.851283" y="106.319911" style="stroke: #000000; stroke-width: 0.8"/>
      </g>
     </g>
     <g id="text_5">
      <text style="font: 10px 'Arial', sans-serif; text-anchor: end" x="41.851283" y="109.898817" transform="rotate(-0 41.851283 109.898817)">0.4</text>
     </g>
    </g>
    <g id="ytick_5">
     <g id="line2d_5">
      <g>
       <use xlink:href="#m1cc4f61092" x="48.851283" y="60.915952" style="stroke: #000000; stroke-width: 0.8"/>
      </g>
     </g>
     <g id="text_6">
      <text style="font: 10px 'Arial', sans-serif; text-anchor: end" x="41.851283" y="64.494859" transform="rotate(-0 41.851283 64.494859)">0.6</text>
     </g>
    </g>
    <g id="text_7">
     <text style="font: 10px 'Arial', sans-serif; text-anchor: middle" x="16.005971" y="152.31998" transform="rotate(-90 16.005971 152.31998)">Activity</text>
    </g>
   </g>
   <g id="line2d_6">
    <path d="M 48.851283 164.46389 
L 60.011283 125.575601 
L 71.171283 97.023368 
L 82.331283 71.55344 
L 93.491283 69.277142 
L 104.651283 87.299226 
L 115.811283 96.231272 
L 126.971283 95.257482 
L 138.131283 96.500195 
L 149.291283 109.27688 
L 160.451283 125.907723 
L 171.611283 139.497972 
L 182.771283 165.34384 
L 193.931283 176.705508 
L 205.091283 169.760505 
L 216.251283 183.425063 
L 227.411283 189.483324 
L 238.571283 189.342818 
L 249.731283 202.09624 
L 260.891283 205.781865 
L 272.051283 210.092233 
L 283.211283 217.755306 
L 294.371283 225.485728 
L 305.531283 224.285642 
L 316.691283 227.22025 
L 327.851283 234.117316 
L 339.011283 240.462943 
L 350.171283 239.373663 
L 361.331283 239.71569 
L 372.491283 235.462229 
L 383.651283 231.884887 
L 394.811283 237.52123 
L 405.971283 248.809206 
" clip-path="url(#p6797217562)" style="fill: none; stroke: #1f77b4; stroke-width: 1.5; stroke-linecap: square"/>
   </g>
   <g id="line2d_7">
    <path d="M 48.851283 169.146198 
L 60.011283 153.400069 
L 71.171283 135.101473 
L 82.331283 109.706821 
L 93.491283 94.22795 
L 104.651283 113.043531 
L 115.811283 138.879869 
L 126.971283 150.521074 
L 138.131283 151.316739 
L 149.291283 150.30199 
L 160.451283 159.37534 
L 171.611283 172.898113 
L 182.771283 191.38885 
L 193.931283 194.938609 
L 205.091283 182.838269 
L 216.251283 186.071489 
L 227.411283 199.399357 
L 238.571283 211.052404 
L 249.731283 224.121147 
L 260.891283 238.697132 
L 272.051283 247.093126 
L 283.211283 252.131295 
L 294.371283 261.676112 
L 305.531283 256.791711 
L 316.691283 250.888565 
L 327.851283 245.231921 
L 339.011283 240.808729 
L 350.171283 246.416724 
L 361.331283 255.328164 
L 372.491283 252.712626 
L 383.651283 249.369161 
L 394.811283 247.321334 
L 405.971283 240.921933 
" clip-path="url(#p6797217562)" style="fill: none; stroke: #ff7f0e; stroke-width: 1.5; stroke-linecap: square"/>
   </g>
   <g id="line2d_8">
    <path d="M 82.331283 285.37598 
L 82.331283 19.26398 
" clip-path="url(#p6797217562)" style="fill: none; stroke-dasharray: 5.55,2.4; stroke-dashoffset: 0; stroke: #000000; stroke-opacity: 0.5; stroke-width: 1.5"/>
   </g>
   <g id="line2d_9">
    <path d="M 383.651283 285.37598 
L 383.651283 19.26398 
" clip-path="url(#p6797217562)" style="fill: none; stroke-dasharray: 5.55,2.4; stroke-dashoffset: 0; stroke: #000000; stroke-opacity: 0.5; stroke-width: 1.5"/>
   </g>
   <g id="patch_3">
    <path d="M 48.851283 285.37598 
L 405.971283 285.37598 
" style="fill: none; stroke: #000000; stroke-width: 0.8; stroke-linejoin: miter; stroke-linecap: square"/>
   </g>
   <g id="text_8">
    <text style="font: 6.94px 'Arial', sans-serif" transform="translate(10.097767 321.385533) rotate(-35)">-0.1s Sampling</text>
   </g>
   <g id="text_9">
    <text style="font: 6.94px 'Arial', sans-serif" transform="translate(57.794497 311.430872) rotate(-35)">Sampling</text>
   </g>
   <g id="text_10">
    <text style="font: 6.94px 'Arial', sans-serif" transform="translate(319.037191 339.456682) rotate(-35)">Movement to Lateral Port</text>
   </g>
   <g id="text_11">
    <text style="font: 8.33px 'Arial', sans-serif; text-anchor: middle" x="227.411283" y="13.26398" transform="rotate(-0 227.411283 13.26398)">GP4_85_S1_L70_D250_mm2 - Trace:62_GP4_85_S1_L70_D250_mm2 (when: correct)</text>
   </g>
   <g id="legend_1">
    <g id="patch_4">
     <path d="M 133.696342 354.133136 
L 321.126224 354.133136 
Q 322.514224 354.133136 322.514224 352.745136 
L 322.514224 343.45638 
Q 322.514224 342.06838 321.126224 342.06838 
L 133.696342 342.06838 
Q 132.308342 342.06838 132.308342 343.45638 
L 132.308342 352.745136 
Q 132.308342 354.133136 133.696342 354.133136 
z
" style="fill: #ffffff; opacity: 0.8; stroke: #cccccc; stroke-linejoin: miter"/>
    </g>
    <g id="line2d_10">
     <path d="M 135.084342 347.467483 
L 142.024342 347.467483 
L 148.964342 347.467483 
" style="fill: none; stroke: #1f77b4; stroke-width: 1.5; stroke-linecap: square"/>
    </g>
    <g id="text_12">
     <text style="font: 6.94px 'Arial', sans-serif; text-anchor: start" x="154.516342" y="349.896483" transform="rotate(-0 154.516342 349.896483)">DecisionRight (99 pts)</text>
    </g>
    <g id="line2d_11">
     <path d="M 236.664255 347.467483 
L 243.604255 347.467483 
L 250.544255 347.467483 
" style="fill: none; stroke: #ff7f0e; stroke-width: 1.5; stroke-linecap: square"/>
    </g>
    <g id="text_13">
     <text style="font: 6.94px 'Arial', sans-serif; text-anchor: start" x="256.096255" y="349.896483" transform="rotate(-0 256.096255 349.896483)">DecisionLeft (94 pts)</text>
    </g>
   </g>
  </g>
 </g>
 <defs>
  <clipPath id="p6797217562">
   <rect x="48.851283" y="19.26398" width="357.12" height="266.112"/>
  </clipPath>
 </defs>
</svg>
