<?xml version="1.0" encoding="utf-8" standalone="no"?>
<!DOCTYPE svg PUBLIC "-//W3C//DTD SVG 1.1//EN"
  "http://www.w3.org/Graphics/SVG/1.1/DTD/svg11.dtd">
<svg xmlns:xlink="http://www.w3.org/1999/xlink" width="413.171283pt" height="361.333136pt" viewBox="0 0 413.171283 361.333136" xmlns="http://www.w3.org/2000/svg" version="1.1">
 <metadata>
  <rdf:RDF xmlns:dc="http://purl.org/dc/elements/1.1/" xmlns:cc="http://creativecommons.org/ns#" xmlns:rdf="http://www.w3.org/1999/02/22-rdf-syntax-ns#">
   <cc:Work>
    <dc:type rdf:resource="http://purl.org/dc/dcmitype/StillImage"/>
    <dc:date>2025-12-29T04:07:45.344119</dc:date>
    <dc:format>image/svg+xml</dc:format>
    <dc:creator>
     <cc:Agent>
      <dc:title>Matplotlib v3.8.0, https://matplotlib.org/</dc:title>
     </cc:Agent>
    </dc:creator>
   </cc:Work>
  </rdf:RDF>
 </metadata>
 <defs>
  <style type="text/css">*{stroke-linejoin: round; stroke-linecap: butt}</style>
 </defs>
 <g id="figure_1">
  <g id="patch_1">
   <path d="M 0 361.333136 
L 413.171283 361.333136 
L 413.171283 -0 
L 0 -0 
z
" style="fill: #ffffff"/>
  </g>
  <g id="axes_1">
   <g id="patch_2">
    <path d="M 48.851283 285.37598 
L 405.971283 285.37598 
L 405.971283 19.26398 
L 48.851283 19.26398 
z
" style="fill: #ffffff"/>
   </g>
   <g id="PolyCollection_1">
    <defs>
     <path id="m2dda3e76fe" d="M 48.851283 -291.216731 
L 48.851283 -238.851048 
L 60.011283 -261.632059 
L 71.171283 -277.439096 
L 82.331283 -271.673018 
L 93.491283 -250.767536 
L 104.651283 -234.077522 
L 115.811283 -236.898631 
L 126.971283 -238.564587 
L 138.131283 -243.150341 
L 149.291283 -238.826131 
L 160.451283 -221.247283 
L 171.611283 -219.37629 
L 182.771283 -215.335871 
L 193.931283 -205.067696 
L 205.091283 -205.055547 
L 216.251283 -204.246298 
L 227.411283 -203.041574 
L 238.571283 -195.711874 
L 249.731283 -184.303106 
L 260.891283 -173.637252 
L 272.051283 -158.627045 
L 283.211283 -152.68333 
L 294.371283 -137.421374 
L 305.531283 -131.662692 
L 316.691283 -123.912523 
L 327.851283 -129.375896 
L 339.011283 -120.954367 
L 350.171283 -103.624749 
L 361.331283 -114.651284 
L 372.491283 -129.632549 
L 383.651283 -131.640498 
L 394.811283 -133.500099 
L 405.971283 -152.006837 
L 405.971283 -192.314225 
L 405.971283 -192.314225 
L 394.811283 -170.556176 
L 383.651283 -166.805852 
L 372.491283 -164.774867 
L 361.331283 -152.947979 
L 350.171283 -144.804915 
L 339.011283 -161.743913 
L 327.851283 -171.271415 
L 316.691283 -169.217293 
L 305.531283 -178.237181 
L 294.371283 -185.698608 
L 283.211283 -200.48539 
L 272.051283 -207.610148 
L 260.891283 -224.164253 
L 249.731283 -236.645453 
L 238.571283 -247.37292 
L 227.411283 -255.248845 
L 216.251283 -255.317593 
L 205.091283 -254.640638 
L 193.931283 -252.392472 
L 182.771283 -261.835785 
L 171.611283 -267.151879 
L 160.451283 -268.923789 
L 149.291283 -287.890463 
L 138.131283 -294.831317 
L 126.971283 -291.603227 
L 115.811283 -288.091974 
L 104.651283 -281.02104 
L 93.491283 -296.923109 
L 82.331283 -321.47394 
L 71.171283 -329.973156 
L 60.011283 -313.8204 
L 48.851283 -291.216731 
z
" style="stroke: #1f77b4; stroke-opacity: 0.2"/>
    </defs>
    <g clip-path="url(#p050cc7dedc)">
     <use xlink:href="#m2dda3e76fe" x="0" y="361.333136" style="fill: #1f77b4; fill-opacity: 0.2; stroke: #1f77b4; stroke-opacity: 0.2"/>
    </g>
   </g>
   <g id="PolyCollection_2">
    <defs>
     <path id="me22eb83f35" d="M 48.851283 -290.775576 
L 48.851283 -228.451505 
L 60.011283 -243.06675 
L 71.171283 -238.897319 
L 82.331283 -211.736109 
L 93.491283 -206.952273 
L 104.651283 -220.255996 
L 115.811283 -245.246944 
L 126.971283 -261.40591 
L 138.131283 -259.982829 
L 149.291283 -258.208185 
L 160.451283 -251.246027 
L 171.611283 -250.446202 
L 182.771283 -234.822713 
L 193.931283 -213.21922 
L 205.091283 -202.904911 
L 216.251283 -195.078482 
L 227.411283 -183.384524 
L 238.571283 -180.217693 
L 249.731283 -180.62584 
L 260.891283 -177.051392 
L 272.051283 -162.312006 
L 283.211283 -154.537046 
L 294.371283 -137.645701 
L 305.531283 -128.711478 
L 316.691283 -121.119502 
L 327.851283 -102.379496 
L 339.011283 -90.889062 
L 350.171283 -88.053156 
L 361.331283 -93.076542 
L 372.491283 -99.242427 
L 383.651283 -102.02245 
L 394.811283 -94.761125 
L 405.971283 -91.297553 
L 405.971283 -131.035361 
L 405.971283 -131.035361 
L 394.811283 -133.455825 
L 383.651283 -141.858505 
L 372.491283 -142.410242 
L 361.331283 -141.257752 
L 350.171283 -141.594986 
L 339.011283 -150.253739 
L 327.851283 -167.323152 
L 316.691283 -188.348877 
L 305.531283 -195.903266 
L 294.371283 -205.536722 
L 283.211283 -223.257337 
L 272.051283 -233.00338 
L 260.891283 -249.399367 
L 249.731283 -254.066314 
L 238.571283 -253.16597 
L 227.411283 -255.03799 
L 216.251283 -260.803255 
L 205.091283 -263.570256 
L 193.931283 -277.407623 
L 182.771283 -304.287332 
L 171.611283 -323.080929 
L 160.451283 -324.678019 
L 149.291283 -329.937902 
L 138.131283 -328.258206 
L 126.971283 -326.961569 
L 115.811283 -306.68215 
L 104.651283 -274.274541 
L 93.491283 -260.683097 
L 82.331283 -268.423298 
L 71.171283 -296.366011 
L 60.011283 -303.724445 
L 48.851283 -290.775576 
z
" style="stroke: #ff7f0e; stroke-opacity: 0.2"/>
    </defs>
    <g clip-path="url(#p050cc7dedc)">
     <use xlink:href="#me22eb83f35" x="0" y="361.333136" style="fill: #ff7f0e; fill-opacity: 0.2; stroke: #ff7f0e; stroke-opacity: 0.2"/>
    </g>
   </g>
   <g id="matplotlib.axis_1">
    <g id="text_1">
     <text style="font: 10px 'Arial', sans-serif; text-anchor: middle" x="227.411283" y="296.533792" transform="rotate(-0 227.411283 296.533792)">Time</text>
    </g>
   </g>
   <g id="matplotlib.axis_2">
    <g id="ytick_1">
     <g id="line2d_1">
      <defs>
       <path id="m1ea850093a" d="M 0 0 
L -3.5 0 
" style="stroke: #000000; stroke-width: 0.8"/>
      </defs>
      <g>
       <use xlink:href="#m1ea850093a" x="48.851283" y="268.931497" style="stroke: #000000; stroke-width: 0.8"/>
      </g>
     </g>
     <g id="text_2">
      <text style="font: 10px 'Arial', sans-serif; text-anchor: end" x="41.851283" y="272.510403" transform="rotate(-0 41.851283 272.510403)">−0.4</text>
     </g>
    </g>
    <g id="ytick_2">
     <g id="line2d_2">
      <g>
       <use xlink:href="#m1ea850093a" x="48.851283" y="217.678163" style="stroke: #000000; stroke-width: 0.8"/>
      </g>
     </g>
     <g id="text_3">
      <text style="font: 10px 'Arial', sans-serif; text-anchor: end" x="41.851283" y="221.257069" transform="rotate(-0 41.851283 221.257069)">−0.2</text>
     </g>
    </g>
    <g id="ytick_3">
     <g id="line2d_3">
      <g>
       <use xlink:href="#m1ea850093a" x="48.851283" y="166.424829" style="stroke: #000000; stroke-width: 0.8"/>
      </g>
     </g>
     <g id="text_4">
      <text style="font: 10px 'Arial', sans-serif; text-anchor: end" x="41.851283" y="170.003735" transform="rotate(-0 41.851283 170.003735)">0.0</text>
     </g>
    </g>
    <g id="ytick_4">
     <g id="line2d_4">
      <g>
       <use xlink:href="#m1ea850093a" x="48.851283" y="115.171495" style="stroke: #000000; stroke-width: 0.8"/>
      </g>
     </g>
     <g id="text_5">
      <text style="font: 10px 'Arial', sans-serif; text-anchor: end" x="41.851283" y="118.750401" transform="rotate(-0 41.851283 118.750401)">0.2</text>
     </g>
    </g>
    <g id="ytick_5">
     <g id="line2d_5">
      <g>
       <use xlink:href="#m1ea850093a" x="48.851283" y="63.918161" style="stroke: #000000; stroke-width: 0.8"/>
      </g>
     </g>
     <g id="text_6">
      <text style="font: 10px 'Arial', sans-serif; text-anchor: end" x="41.851283" y="67.497067" transform="rotate(-0 41.851283 67.497067)">0.4</text>
     </g>
    </g>
    <g id="text_7">
     <text style="font: 10px 'Arial', sans-serif; text-anchor: middle" x="16.005971" y="152.31998" transform="rotate(-90 16.005971 152.31998)">Activity</text>
    </g>
   </g>
   <g id="line2d_6">
    <path d="M 48.851283 96.299244 
L 60.011283 73.606907 
L 71.171283 57.627006 
L 82.331283 64.759657 
L 93.491283 87.487814 
L 104.651283 103.783855 
L 115.811283 98.837836 
L 126.971283 96.249227 
L 138.131283 92.342307 
L 149.291283 97.974839 
L 160.451283 116.247599 
L 171.611283 118.069052 
L 182.771283 122.74731 
L 193.931283 132.603051 
L 205.091283 131.485044 
L 216.251283 131.551191 
L 227.411283 132.187927 
L 238.571283 139.790739 
L 249.731283 150.858856 
L 260.891283 162.432384 
L 272.051283 178.214538 
L 283.211283 184.748777 
L 294.371283 199.773145 
L 305.531283 206.3832 
L 316.691283 214.768226 
L 327.851283 211.009481 
L 339.011283 219.983996 
L 350.171283 237.118304 
L 361.331283 227.533504 
L 372.491283 214.129427 
L 383.651283 212.109961 
L 394.811283 209.304998 
L 405.971283 189.172606 
" clip-path="url(#p050cc7dedc)" style="fill: none; stroke: #1f77b4; stroke-width: 1.5; stroke-linecap: square"/>
   </g>
   <g id="line2d_7">
    <path d="M 48.851283 101.719596 
L 60.011283 87.937539 
L 71.171283 93.701471 
L 82.331283 121.25343 
L 93.491283 127.515451 
L 104.651283 114.067868 
L 115.811283 85.368589 
L 126.971283 67.149396 
L 138.131283 67.212618 
L 149.291283 67.260092 
L 160.451283 73.371111 
L 171.611283 74.569571 
L 182.771283 91.778113 
L 193.931283 116.019713 
L 205.091283 128.095553 
L 216.251283 133.392267 
L 227.411283 142.121879 
L 238.571283 144.641304 
L 249.731283 143.987059 
L 260.891283 148.107756 
L 272.051283 163.675442 
L 283.211283 172.435945 
L 294.371283 189.741924 
L 305.531283 199.025762 
L 316.691283 206.598947 
L 327.851283 226.481812 
L 339.011283 240.761736 
L 350.171283 246.509065 
L 361.331283 244.165989 
L 372.491283 240.506801 
L 383.651283 239.392658 
L 394.811283 247.224661 
L 405.971283 250.166679 
" clip-path="url(#p050cc7dedc)" style="fill: none; stroke: #ff7f0e; stroke-width: 1.5; stroke-linecap: square"/>
   </g>
   <g id="line2d_8">
    <path d="M 82.331283 285.37598 
L 82.331283 19.26398 
" clip-path="url(#p050cc7dedc)" style="fill: none; stroke-dasharray: 5.55,2.4; stroke-dashoffset: 0; stroke: #000000; stroke-opacity: 0.5; stroke-width: 1.5"/>
   </g>
   <g id="line2d_9">
    <path d="M 383.651283 285.37598 
L 383.651283 19.26398 
" clip-path="url(#p050cc7dedc)" style="fill: none; stroke-dasharray: 5.55,2.4; stroke-dashoffset: 0; stroke: #000000; stroke-opacity: 0.5; stroke-width: 1.5"/>
   </g>
   <g id="patch_3">
    <path d="M 48.851283 285.37598 
L 405.971283 285.37598 
" style="fill: none; stroke: #000000; stroke-width: 0.8; stroke-linejoin: miter; stroke-linecap: square"/>
   </g>
   <g id="text_8">
    <text style="font: 6.94px 'Arial', sans-serif" transform="translate(10.097767 321.385533) rotate(-35)">-0.1s Sampling</text>
   </g>
   <g id="text_9">
    <text style="font: 6.94px 'Arial', sans-serif" transform="translate(57.794497 311.430872) rotate(-35)">Sampling</text>
   </g>
   <g id="text_10">
    <text style="font: 6.94px 'Arial', sans-serif" transform="translate(319.037191 339.456682) rotate(-35)">Movement to Lateral Port</text>
   </g>
   <g id="text_11">
    <text style="font: 8.33px 'Arial', sans-serif; text-anchor: middle" x="227.411283" y="13.26398" transform="rotate(-0 227.411283 13.26398)">GP4_85_S1_L70_D250_mm2 - Trace:77_GP4_85_S1_L70_D250_mm2 (when: correct)</text>
   </g>
   <g id="legend_1">
    <g id="patch_4">
     <path d="M 133.696342 354.133136 
L 321.126224 354.133136 
Q 322.514224 354.133136 322.514224 352.745136 
L 322.514224 343.45638 
Q 322.514224 342.06838 321.126224 342.06838 
L 133.696342 342.06838 
Q 132.308342 342.06838 132.308342 343.45638 
L 132.308342 352.745136 
Q 132.308342 354.133136 133.696342 354.133136 
z
" style="fill: #ffffff; opacity: 0.8; stroke: #cccccc; stroke-linejoin: miter"/>
    </g>
    <g id="line2d_10">
     <path d="M 135.084342 347.467483 
L 142.024342 347.467483 
L 148.964342 347.467483 
" style="fill: none; stroke: #1f77b4; stroke-width: 1.5; stroke-linecap: square"/>
    </g>
    <g id="text_12">
     <text style="font: 6.94px 'Arial', sans-serif; text-anchor: start" x="154.516342" y="349.896483" transform="rotate(-0 154.516342 349.896483)">DecisionRight (99 pts)</text>
    </g>
    <g id="line2d_11">
     <path d="M 236.664255 347.467483 
L 243.604255 347.467483 
L 250.544255 347.467483 
" style="fill: none; stroke: #ff7f0e; stroke-width: 1.5; stroke-linecap: square"/>
    </g>
    <g id="text_13">
     <text style="font: 6.94px 'Arial', sans-serif; text-anchor: start" x="256.096255" y="349.896483" transform="rotate(-0 256.096255 349.896483)">DecisionLeft (94 pts)</text>
    </g>
   </g>
  </g>
 </g>
 <defs>
  <clipPath id="p050cc7dedc">
   <rect x="48.851283" y="19.26398" width="357.12" height="266.112"/>
  </clipPath>
 </defs>
</svg>
