<?xml version="1.0" encoding="utf-8" standalone="no"?>
<!DOCTYPE svg PUBLIC "-//W3C//DTD SVG 1.1//EN"
  "http://www.w3.org/Graphics/SVG/1.1/DTD/svg11.dtd">
<svg xmlns:xlink="http://www.w3.org/1999/xlink" width="417.084062pt" height="361.333136pt" viewBox="0 0 417.084062 361.333136" xmlns="http://www.w3.org/2000/svg" version="1.1">
 <metadata>
  <rdf:RDF xmlns:dc="http://purl.org/dc/elements/1.1/" xmlns:cc="http://creativecommons.org/ns#" xmlns:rdf="http://www.w3.org/1999/02/22-rdf-syntax-ns#">
   <cc:Work>
    <dc:type rdf:resource="http://purl.org/dc/dcmitype/StillImage"/>
    <dc:date>2025-12-29T04:07:45.118123</dc:date>
    <dc:format>image/svg+xml</dc:format>
    <dc:creator>
     <cc:Agent>
      <dc:title>Matplotlib v3.8.0, https://matplotlib.org/</dc:title>
     </cc:Agent>
    </dc:creator>
   </cc:Work>
  </rdf:RDF>
 </metadata>
 <defs>
  <style type="text/css">*{stroke-linejoin: round; stroke-linecap: butt}</style>
 </defs>
 <g id="figure_1">
  <g id="patch_1">
   <path d="M 0 361.333136 
L 417.084062 361.333136 
L 417.084062 -0 
L 0 -0 
z
" style="fill: #ffffff"/>
  </g>
  <g id="axes_1">
   <g id="patch_2">
    <path d="M 52.764063 285.37598 
L 409.884063 285.37598 
L 409.884063 19.26398 
L 52.764063 19.26398 
z
" style="fill: #ffffff"/>
   </g>
   <g id="PolyCollection_1">
    <defs>
     <path id="me3d72fc6aa" d="M 52.764063 -106.619023 
L 52.764063 -93.6419 
L 63.924063 -94.045488 
L 75.084063 -92.831346 
L 86.244063 -93.216679 
L 97.404063 -97.551597 
L 108.564063 -106.590052 
L 119.724063 -120.256223 
L 130.884063 -134.976616 
L 142.044062 -148.252559 
L 153.204063 -158.307189 
L 164.364063 -164.705541 
L 175.524063 -169.633986 
L 186.684063 -172.958103 
L 197.844063 -173.492514 
L 209.004063 -175.166751 
L 220.164062 -176.336571 
L 231.324063 -177.693135 
L 242.484062 -174.964984 
L 253.644063 -171.196913 
L 264.804062 -167.357256 
L 275.964063 -163.748559 
L 287.124063 -160.410124 
L 298.284063 -159.830169 
L 309.444063 -158.660086 
L 320.604062 -159.310842 
L 331.764063 -156.968749 
L 342.924062 -154.313989 
L 354.084063 -156.858324 
L 365.244062 -163.337798 
L 376.404063 -168.385836 
L 387.564062 -167.068124 
L 398.724063 -160.054177 
L 409.884063 -151.907569 
L 409.884063 -178.596695 
L 409.884063 -178.596695 
L 398.724063 -188.151785 
L 387.564062 -196.42185 
L 376.404063 -197.844396 
L 365.244062 -191.348118 
L 354.084063 -183.256838 
L 342.924062 -179.928401 
L 331.764063 -183.10647 
L 320.604062 -186.658505 
L 309.444063 -187.178698 
L 298.284063 -188.856769 
L 287.124063 -189.404518 
L 275.964063 -193.467342 
L 264.804062 -198.156798 
L 253.644063 -202.703261 
L 242.484062 -207.169815 
L 231.324063 -209.978425 
L 220.164062 -207.128941 
L 209.004063 -205.018522 
L 197.844063 -202.827566 
L 186.684063 -201.910908 
L 175.524063 -198.187581 
L 164.364063 -192.612215 
L 153.204063 -186.33113 
L 142.044062 -175.101676 
L 130.884063 -159.083405 
L 119.724063 -140.443896 
L 108.564063 -121.540232 
L 97.404063 -109.71181 
L 86.244063 -104.621038 
L 75.084063 -105.514566 
L 63.924063 -107.24582 
L 52.764063 -106.619023 
z
" style="stroke: #1f77b4; stroke-opacity: 0.2"/>
    </defs>
    <g clip-path="url(#p25c5286e7d)">
     <use xlink:href="#me3d72fc6aa" x="0" y="361.333136" style="fill: #1f77b4; fill-opacity: 0.2; stroke: #1f77b4; stroke-opacity: 0.2"/>
    </g>
   </g>
   <g id="PolyCollection_2">
    <defs>
     <path id="m3a4e86b384" d="M 52.764063 -105.235338 
L 52.764063 -91.885559 
L 63.924063 -89.369358 
L 75.084063 -88.053156 
L 86.244063 -89.376123 
L 97.404063 -93.627383 
L 108.564063 -102.805501 
L 119.724063 -112.104441 
L 130.884063 -121.52063 
L 142.044062 -131.254261 
L 153.204063 -139.46185 
L 164.364063 -146.936769 
L 175.524063 -153.798118 
L 186.684063 -160.53964 
L 197.844063 -163.7279 
L 209.004063 -166.041998 
L 220.164062 -168.977184 
L 231.324063 -174.782548 
L 242.484062 -179.097996 
L 253.644063 -180.599083 
L 264.804062 -182.288051 
L 275.964063 -181.468308 
L 287.124063 -180.613486 
L 298.284063 -179.282539 
L 309.444063 -181.016701 
L 320.604062 -185.663565 
L 331.764063 -192.327259 
L 342.924062 -201.173053 
L 354.084063 -216.097653 
L 365.244062 -237.782951 
L 376.404063 -260.701885 
L 387.564062 -277.841015 
L 398.724063 -286.077454 
L 409.884063 -288.295683 
L 409.884063 -329.973156 
L 409.884063 -329.973156 
L 398.724063 -329.296055 
L 387.564062 -321.625809 
L 376.404063 -302.168996 
L 365.244062 -276.186022 
L 354.084063 -253.127641 
L 342.924062 -237.498529 
L 331.764063 -227.325641 
L 320.604062 -218.764598 
L 309.444063 -212.644105 
L 298.284063 -210.699093 
L 287.124063 -214.2347 
L 275.964063 -216.808682 
L 264.804062 -217.573181 
L 253.644063 -215.130002 
L 242.484062 -213.298603 
L 231.324063 -208.567212 
L 220.164062 -201.263458 
L 209.004063 -196.986639 
L 197.844063 -193.554818 
L 186.684063 -189.407065 
L 175.524063 -181.944793 
L 164.364063 -174.220793 
L 153.204063 -165.001272 
L 142.044062 -155.496654 
L 130.884063 -144.164586 
L 119.724063 -131.731811 
L 108.564063 -117.674575 
L 97.404063 -105.408501 
L 86.244063 -100.47529 
L 75.084063 -99.599423 
L 63.924063 -101.66368 
L 52.764063 -105.235338 
z
" style="stroke: #ff7f0e; stroke-opacity: 0.2"/>
    </defs>
    <g clip-path="url(#p25c5286e7d)">
     <use xlink:href="#m3a4e86b384" x="0" y="361.333136" style="fill: #ff7f0e; fill-opacity: 0.2; stroke: #ff7f0e; stroke-opacity: 0.2"/>
    </g>
   </g>
   <g id="matplotlib.axis_1">
    <g id="text_1">
     <text style="font: 10px 'Arial', sans-serif; text-anchor: middle" x="231.324063" y="296.533792" transform="rotate(-0 231.324063 296.533792)">Time</text>
    </g>
   </g>
   <g id="matplotlib.axis_2">
    <g id="ytick_1">
     <g id="line2d_1">
      <defs>
       <path id="m929bff879e" d="M 0 0 
L -3.5 0 
" style="stroke: #000000; stroke-width: 0.8"/>
      </defs>
      <g>
       <use xlink:href="#m929bff879e" x="52.764063" y="275.018285" style="stroke: #000000; stroke-width: 0.8"/>
      </g>
     </g>
     <g id="text_2">
      <text style="font: 10px 'Arial', sans-serif; text-anchor: end" x="45.764063" y="278.597191" transform="rotate(-0 45.764063 278.597191)">−0.50</text>
     </g>
    </g>
    <g id="ytick_2">
     <g id="line2d_2">
      <g>
       <use xlink:href="#m929bff879e" x="52.764063" y="242.042937" style="stroke: #000000; stroke-width: 0.8"/>
      </g>
     </g>
     <g id="text_3">
      <text style="font: 10px 'Arial', sans-serif; text-anchor: end" x="45.764063" y="245.621843" transform="rotate(-0 45.764063 245.621843)">−0.25</text>
     </g>
    </g>
    <g id="ytick_3">
     <g id="line2d_3">
      <g>
       <use xlink:href="#m929bff879e" x="52.764063" y="209.067589" style="stroke: #000000; stroke-width: 0.8"/>
      </g>
     </g>
     <g id="text_4">
      <text style="font: 10px 'Arial', sans-serif; text-anchor: end" x="45.764063" y="212.646495" transform="rotate(-0 45.764063 212.646495)">0.00</text>
     </g>
    </g>
    <g id="ytick_4">
     <g id="line2d_4">
      <g>
       <use xlink:href="#m929bff879e" x="52.764063" y="176.09224" style="stroke: #000000; stroke-width: 0.8"/>
      </g>
     </g>
     <g id="text_5">
      <text style="font: 10px 'Arial', sans-serif; text-anchor: end" x="45.764063" y="179.671147" transform="rotate(-0 45.764063 179.671147)">0.25</text>
     </g>
    </g>
    <g id="ytick_5">
     <g id="line2d_5">
      <g>
       <use xlink:href="#m929bff879e" x="52.764063" y="143.116892" style="stroke: #000000; stroke-width: 0.8"/>
      </g>
     </g>
     <g id="text_6">
      <text style="font: 10px 'Arial', sans-serif; text-anchor: end" x="45.764063" y="146.695798" transform="rotate(-0 45.764063 146.695798)">0.50</text>
     </g>
    </g>
    <g id="ytick_6">
     <g id="line2d_6">
      <g>
       <use xlink:href="#m929bff879e" x="52.764063" y="110.141544" style="stroke: #000000; stroke-width: 0.8"/>
      </g>
     </g>
     <g id="text_7">
      <text style="font: 10px 'Arial', sans-serif; text-anchor: end" x="45.764063" y="113.72045" transform="rotate(-0 45.764063 113.72045)">0.75</text>
     </g>
    </g>
    <g id="ytick_7">
     <g id="line2d_7">
      <g>
       <use xlink:href="#m929bff879e" x="52.764063" y="77.166196" style="stroke: #000000; stroke-width: 0.8"/>
      </g>
     </g>
     <g id="text_8">
      <text style="font: 10px 'Arial', sans-serif; text-anchor: end" x="45.764063" y="80.745102" transform="rotate(-0 45.764063 80.745102)">1.00</text>
     </g>
    </g>
    <g id="ytick_8">
     <g id="line2d_8">
      <g>
       <use xlink:href="#m929bff879e" x="52.764063" y="44.190847" style="stroke: #000000; stroke-width: 0.8"/>
      </g>
     </g>
     <g id="text_9">
      <text style="font: 10px 'Arial', sans-serif; text-anchor: end" x="45.764063" y="47.769754" transform="rotate(-0 45.764063 47.769754)">1.25</text>
     </g>
    </g>
    <g id="text_10">
     <text style="font: 10px 'Arial', sans-serif; text-anchor: middle" x="14.357813" y="152.31998" transform="rotate(-90 14.357813 152.31998)">Activity</text>
    </g>
   </g>
   <g id="line2d_9">
    <path d="M 52.764063 261.202675 
L 63.924063 260.687482 
L 75.084063 262.16018 
L 86.244063 262.414277 
L 97.404063 257.701432 
L 108.564063 247.267995 
L 119.724063 230.983076 
L 130.884063 214.303125 
L 142.044062 199.656018 
L 153.204063 189.013976 
L 164.364063 182.674259 
L 175.524063 177.422352 
L 186.684063 173.898631 
L 197.844063 173.173096 
L 209.004063 171.240498 
L 220.164062 169.600381 
L 231.324063 167.497356 
L 242.484062 170.265736 
L 253.644063 174.383048 
L 264.804062 178.576109 
L 275.964063 182.725186 
L 287.124063 186.425815 
L 298.284063 186.989667 
L 309.444063 188.413745 
L 320.604062 188.348463 
L 331.764063 191.295526 
L 342.924062 194.21194 
L 354.084063 191.275555 
L 365.244062 183.990178 
L 376.404063 178.218019 
L 387.564062 179.58815 
L 398.724063 187.230154 
L 409.884063 196.081003 
" clip-path="url(#p25c5286e7d)" style="fill: none; stroke: #1f77b4; stroke-width: 1.5; stroke-linecap: square"/>
   </g>
   <g id="line2d_10">
    <path d="M 52.764063 262.772687 
L 63.924063 265.816617 
L 75.084063 267.506846 
L 86.244063 266.407429 
L 97.404063 261.815194 
L 108.564063 251.093098 
L 119.724063 239.41501 
L 130.884063 228.490528 
L 142.044062 217.957679 
L 153.204063 209.101575 
L 164.364063 200.754355 
L 175.524063 193.461681 
L 186.684063 186.359783 
L 197.844063 182.691777 
L 209.004063 179.818818 
L 220.164062 176.212815 
L 231.324063 169.658256 
L 242.484062 165.134837 
L 253.644063 163.468594 
L 264.804062 161.40252 
L 275.964063 162.194642 
L 287.124063 163.909043 
L 298.284063 166.34232 
L 309.444063 164.502733 
L 320.604062 159.119052 
L 331.764063 151.506686 
L 342.924062 141.997345 
L 354.084063 126.720487 
L 365.244062 104.34865 
L 376.404063 79.897699 
L 387.564062 61.59972 
L 398.724063 53.646382 
L 409.884063 52.198716 
" clip-path="url(#p25c5286e7d)" style="fill: none; stroke: #ff7f0e; stroke-width: 1.5; stroke-linecap: square"/>
   </g>
   <g id="line2d_11">
    <path d="M 86.244063 285.37598 
L 86.244063 19.26398 
" clip-path="url(#p25c5286e7d)" style="fill: none; stroke-dasharray: 5.55,2.4; stroke-dashoffset: 0; stroke: #000000; stroke-opacity: 0.5; stroke-width: 1.5"/>
   </g>
   <g id="line2d_12">
    <path d="M 387.564062 285.37598 
L 387.564062 19.26398 
" clip-path="url(#p25c5286e7d)" style="fill: none; stroke-dasharray: 5.55,2.4; stroke-dashoffset: 0; stroke: #000000; stroke-opacity: 0.5; stroke-width: 1.5"/>
   </g>
   <g id="patch_3">
    <path d="M 52.764063 285.37598 
L 409.884063 285.37598 
" style="fill: none; stroke: #000000; stroke-width: 0.8; stroke-linejoin: miter; stroke-linecap: square"/>
   </g>
   <g id="text_11">
    <text style="font: 6.94px 'Arial', sans-serif" transform="translate(14.010547 321.385533) rotate(-35)">-0.1s Sampling</text>
   </g>
   <g id="text_12">
    <text style="font: 6.94px 'Arial', sans-serif" transform="translate(61.707276 311.430872) rotate(-35)">Sampling</text>
   </g>
   <g id="text_13">
    <text style="font: 6.94px 'Arial', sans-serif" transform="translate(322.94997 339.456682) rotate(-35)">Movement to Lateral Port</text>
   </g>
   <g id="text_14">
    <text style="font: 8.33px 'Arial', sans-serif; text-anchor: middle" x="231.324063" y="13.26398" transform="rotate(-0 231.324063 13.26398)">GP4_85_S1_L70_D250_mm2 - Trace:7_GP4_85_S1_L70_D250_mm2 (when: correct)</text>
   </g>
   <g id="legend_1">
    <g id="patch_4">
     <path d="M 137.609122 354.133136 
L 325.039003 354.133136 
Q 326.427003 354.133136 326.427003 352.745136 
L 326.427003 343.45638 
Q 326.427003 342.06838 325.039003 342.06838 
L 137.609122 342.06838 
Q 136.221122 342.06838 136.221122 343.45638 
L 136.221122 352.745136 
Q 136.221122 354.133136 137.609122 354.133136 
z
" style="fill: #ffffff; opacity: 0.8; stroke: #cccccc; stroke-linejoin: miter"/>
    </g>
    <g id="line2d_13">
     <path d="M 138.997122 347.467483 
L 145.937122 347.467483 
L 152.877122 347.467483 
" style="fill: none; stroke: #1f77b4; stroke-width: 1.5; stroke-linecap: square"/>
    </g>
    <g id="text_15">
     <text style="font: 6.94px 'Arial', sans-serif; text-anchor: start" x="158.429122" y="349.896483" transform="rotate(-0 158.429122 349.896483)">DecisionRight (99 pts)</text>
    </g>
    <g id="line2d_14">
     <path d="M 240.577034 347.467483 
L 247.517034 347.467483 
L 254.457034 347.467483 
" style="fill: none; stroke: #ff7f0e; stroke-width: 1.5; stroke-linecap: square"/>
    </g>
    <g id="text_16">
     <text style="font: 6.94px 'Arial', sans-serif; text-anchor: start" x="260.009034" y="349.896483" transform="rotate(-0 260.009034 349.896483)">DecisionLeft (94 pts)</text>
    </g>
   </g>
  </g>
 </g>
 <defs>
  <clipPath id="p25c5286e7d">
   <rect x="52.764063" y="19.26398" width="357.12" height="266.112"/>
  </clipPath>
 </defs>
</svg>
