<?xml version="1.0" encoding="utf-8" standalone="no"?>
<!DOCTYPE svg PUBLIC "-//W3C//DTD SVG 1.1//EN"
  "http://www.w3.org/Graphics/SVG/1.1/DTD/svg11.dtd">
<svg xmlns:xlink="http://www.w3.org/1999/xlink" width="413.171283pt" height="361.333136pt" viewBox="0 0 413.171283 361.333136" xmlns="http://www.w3.org/2000/svg" version="1.1">
 <metadata>
  <rdf:RDF xmlns:dc="http://purl.org/dc/elements/1.1/" xmlns:cc="http://creativecommons.org/ns#" xmlns:rdf="http://www.w3.org/1999/02/22-rdf-syntax-ns#">
   <cc:Work>
    <dc:type rdf:resource="http://purl.org/dc/dcmitype/StillImage"/>
    <dc:date>2025-12-29T04:07:54.668926</dc:date>
    <dc:format>image/svg+xml</dc:format>
    <dc:creator>
     <cc:Agent>
      <dc:title>Matplotlib v3.8.0, https://matplotlib.org/</dc:title>
     </cc:Agent>
    </dc:creator>
   </cc:Work>
  </rdf:RDF>
 </metadata>
 <defs>
  <style type="text/css">*{stroke-linejoin: round; stroke-linecap: butt}</style>
 </defs>
 <g id="figure_1">
  <g id="patch_1">
   <path d="M 0 361.333136 
L 413.171283 361.333136 
L 413.171283 -0 
L 0 -0 
z
" style="fill: #ffffff"/>
  </g>
  <g id="axes_1">
   <g id="patch_2">
    <path d="M 48.851283 285.37598 
L 405.971283 285.37598 
L 405.971283 19.26398 
L 48.851283 19.26398 
z
" style="fill: #ffffff"/>
   </g>
   <g id="PolyCollection_1">
    <defs>
     <path id="m7804c670c2" d="M 48.851283 -313.96027 
L 48.851283 -234.426509 
L 60.011283 -244.860572 
L 71.171283 -247.710771 
L 82.331283 -237.598766 
L 93.491283 -217.887173 
L 104.651283 -202.327945 
L 115.811283 -192.421696 
L 126.971283 -180.71909 
L 138.131283 -175.410365 
L 149.291283 -169.772669 
L 160.451283 -157.200291 
L 171.611283 -144.284415 
L 182.771283 -133.652145 
L 193.931283 -132.126099 
L 205.091283 -134.603935 
L 216.251283 -137.169267 
L 227.411283 -134.887702 
L 238.571283 -132.527802 
L 249.731283 -129.415729 
L 260.891283 -126.18156 
L 272.051283 -123.559395 
L 283.211283 -118.551351 
L 294.371283 -121.830839 
L 305.531283 -125.097539 
L 316.691283 -127.251186 
L 327.851283 -129.250787 
L 339.011283 -124.881663 
L 350.171283 -120.709228 
L 361.331283 -129.694974 
L 372.491283 -140.076488 
L 383.651283 -143.314397 
L 394.811283 -143.227751 
L 405.971283 -146.726828 
L 405.971283 -185.158918 
L 405.971283 -185.158918 
L 394.811283 -181.105966 
L 383.651283 -181.205987 
L 372.491283 -179.038444 
L 361.331283 -169.527953 
L 350.171283 -161.351703 
L 339.011283 -164.732534 
L 327.851283 -168.855278 
L 316.691283 -169.064776 
L 305.531283 -168.890913 
L 294.371283 -163.959877 
L 283.211283 -159.104864 
L 272.051283 -165.188583 
L 260.891283 -170.376736 
L 249.731283 -173.175275 
L 238.571283 -177.957501 
L 227.411283 -179.403806 
L 216.251283 -178.329216 
L 205.091283 -175.781019 
L 193.931283 -174.849115 
L 182.771283 -179.054774 
L 171.611283 -192.633236 
L 160.451283 -206.863777 
L 149.291283 -222.379879 
L 138.131283 -231.80687 
L 126.971283 -240.317738 
L 115.811283 -255.175918 
L 104.651283 -270.42659 
L 93.491283 -292.832165 
L 82.331283 -317.079944 
L 71.171283 -329.973156 
L 60.011283 -326.234858 
L 48.851283 -313.96027 
z
" style="stroke: #1f77b4; stroke-opacity: 0.2"/>
    </defs>
    <g clip-path="url(#pc91e62c06e)">
     <use xlink:href="#m7804c670c2" x="0" y="361.333136" style="fill: #1f77b4; fill-opacity: 0.2; stroke: #1f77b4; stroke-opacity: 0.2"/>
    </g>
   </g>
   <g id="PolyCollection_2">
    <defs>
     <path id="m1e0fa719b6" d="M 48.851283 -264.25484 
L 48.851283 -201.369489 
L 60.011283 -204.125589 
L 71.171283 -206.036156 
L 82.331283 -197.29788 
L 93.491283 -184.968578 
L 104.651283 -170.495909 
L 115.811283 -163.238915 
L 126.971283 -150.870894 
L 138.131283 -140.657337 
L 149.291283 -131.093325 
L 160.451283 -127.026989 
L 171.611283 -124.236762 
L 182.771283 -116.467434 
L 193.931283 -111.333786 
L 205.091283 -107.832278 
L 216.251283 -106.752236 
L 227.411283 -106.710615 
L 238.571283 -104.957082 
L 249.731283 -101.946399 
L 260.891283 -96.44053 
L 272.051283 -93.358685 
L 283.211283 -93.057352 
L 294.371283 -92.030378 
L 305.531283 -92.261524 
L 316.691283 -88.690131 
L 327.851283 -89.834955 
L 339.011283 -88.184246 
L 350.171283 -88.124096 
L 361.331283 -88.521477 
L 372.491283 -88.210081 
L 383.651283 -88.053156 
L 394.811283 -91.166174 
L 405.971283 -97.429004 
L 405.971283 -120.828726 
L 405.971283 -120.828726 
L 394.811283 -115.168045 
L 383.651283 -113.021602 
L 372.491283 -112.724696 
L 361.331283 -112.505918 
L 350.171283 -111.413699 
L 339.011283 -110.608095 
L 327.851283 -112.531108 
L 316.691283 -112.164924 
L 305.531283 -116.797843 
L 294.371283 -118.037743 
L 283.211283 -120.283644 
L 272.051283 -121.618906 
L 260.891283 -126.246874 
L 249.731283 -133.167627 
L 238.571283 -136.423776 
L 227.411283 -138.480093 
L 216.251283 -139.899483 
L 205.091283 -142.235143 
L 193.931283 -145.760507 
L 182.771283 -152.511432 
L 171.611283 -162.381349 
L 160.451283 -168.191278 
L 149.291283 -174.741028 
L 138.131283 -185.603954 
L 126.971283 -201.349762 
L 115.811283 -217.458712 
L 104.651283 -226.504258 
L 93.491283 -245.474542 
L 82.331283 -258.516087 
L 71.171283 -268.045358 
L 60.011283 -267.363241 
L 48.851283 -264.25484 
z
" style="stroke: #ff7f0e; stroke-opacity: 0.2"/>
    </defs>
    <g clip-path="url(#pc91e62c06e)">
     <use xlink:href="#m1e0fa719b6" x="0" y="361.333136" style="fill: #ff7f0e; fill-opacity: 0.2; stroke: #ff7f0e; stroke-opacity: 0.2"/>
    </g>
   </g>
   <g id="matplotlib.axis_1">
    <g id="text_1">
     <text style="font: 10px 'Arial', sans-serif; text-anchor: middle" x="227.411283" y="296.533792" transform="rotate(-0 227.411283 296.533792)">Time</text>
    </g>
   </g>
   <g id="matplotlib.axis_2">
    <g id="ytick_1">
     <g id="line2d_1">
      <defs>
       <path id="m414fcafe2b" d="M 0 0 
L -3.5 0 
" style="stroke: #000000; stroke-width: 0.8"/>
      </defs>
      <g>
       <use xlink:href="#m414fcafe2b" x="48.851283" y="267.862348" style="stroke: #000000; stroke-width: 0.8"/>
      </g>
     </g>
     <g id="text_2">
      <text style="font: 10px 'Arial', sans-serif; text-anchor: end" x="41.851283" y="271.441254" transform="rotate(-0 41.851283 271.441254)">0.0</text>
     </g>
    </g>
    <g id="ytick_2">
     <g id="line2d_2">
      <g>
       <use xlink:href="#m414fcafe2b" x="48.851283" y="234.913791" style="stroke: #000000; stroke-width: 0.8"/>
      </g>
     </g>
     <g id="text_3">
      <text style="font: 10px 'Arial', sans-serif; text-anchor: end" x="41.851283" y="238.492698" transform="rotate(-0 41.851283 238.492698)">0.2</text>
     </g>
    </g>
    <g id="ytick_3">
     <g id="line2d_3">
      <g>
       <use xlink:href="#m414fcafe2b" x="48.851283" y="201.965235" style="stroke: #000000; stroke-width: 0.8"/>
      </g>
     </g>
     <g id="text_4">
      <text style="font: 10px 'Arial', sans-serif; text-anchor: end" x="41.851283" y="205.544141" transform="rotate(-0 41.851283 205.544141)">0.4</text>
     </g>
    </g>
    <g id="ytick_4">
     <g id="line2d_4">
      <g>
       <use xlink:href="#m414fcafe2b" x="48.851283" y="169.016679" style="stroke: #000000; stroke-width: 0.8"/>
      </g>
     </g>
     <g id="text_5">
      <text style="font: 10px 'Arial', sans-serif; text-anchor: end" x="41.851283" y="172.595585" transform="rotate(-0 41.851283 172.595585)">0.6</text>
     </g>
    </g>
    <g id="ytick_5">
     <g id="line2d_5">
      <g>
       <use xlink:href="#m414fcafe2b" x="48.851283" y="136.068122" style="stroke: #000000; stroke-width: 0.8"/>
      </g>
     </g>
     <g id="text_6">
      <text style="font: 10px 'Arial', sans-serif; text-anchor: end" x="41.851283" y="139.647029" transform="rotate(-0 41.851283 139.647029)">0.8</text>
     </g>
    </g>
    <g id="ytick_6">
     <g id="line2d_6">
      <g>
       <use xlink:href="#m414fcafe2b" x="48.851283" y="103.119566" style="stroke: #000000; stroke-width: 0.8"/>
      </g>
     </g>
     <g id="text_7">
      <text style="font: 10px 'Arial', sans-serif; text-anchor: end" x="41.851283" y="106.698472" transform="rotate(-0 41.851283 106.698472)">1.0</text>
     </g>
    </g>
    <g id="ytick_7">
     <g id="line2d_7">
      <g>
       <use xlink:href="#m414fcafe2b" x="48.851283" y="70.17101" style="stroke: #000000; stroke-width: 0.8"/>
      </g>
     </g>
     <g id="text_8">
      <text style="font: 10px 'Arial', sans-serif; text-anchor: end" x="41.851283" y="73.749916" transform="rotate(-0 41.851283 73.749916)">1.2</text>
     </g>
    </g>
    <g id="ytick_8">
     <g id="line2d_8">
      <g>
       <use xlink:href="#m414fcafe2b" x="48.851283" y="37.222453" style="stroke: #000000; stroke-width: 0.8"/>
      </g>
     </g>
     <g id="text_9">
      <text style="font: 10px 'Arial', sans-serif; text-anchor: end" x="41.851283" y="40.80136" transform="rotate(-0 41.851283 40.80136)">1.4</text>
     </g>
    </g>
    <g id="text_10">
     <text style="font: 10px 'Arial', sans-serif; text-anchor: middle" x="21.846596" y="152.31998" transform="rotate(-90 21.846596 152.31998)">Activity</text>
    </g>
   </g>
   <g id="line2d_9">
    <path d="M 48.851283 87.139751 
L 60.011283 75.785421 
L 71.171283 72.491177 
L 82.331283 83.993781 
L 93.491283 105.973467 
L 104.651283 124.955868 
L 115.811283 137.534329 
L 126.971283 150.814722 
L 138.131283 157.724521 
L 149.291283 165.256862 
L 160.451283 179.301099 
L 171.611283 192.874313 
L 182.771283 204.979678 
L 193.931283 207.845529 
L 205.091283 206.140659 
L 216.251283 203.583894 
L 227.411283 204.187382 
L 238.571283 206.090487 
L 249.731283 210.037634 
L 260.891283 213.053988 
L 272.051283 216.959148 
L 283.211283 222.505027 
L 294.371283 218.437778 
L 305.531283 214.33891 
L 316.691283 213.175155 
L 327.851283 212.280104 
L 339.011283 216.526037 
L 350.171283 220.30267 
L 361.331283 211.721672 
L 372.491283 201.77567 
L 383.651283 199.072944 
L 394.811283 199.166278 
L 405.971283 195.390263 
" clip-path="url(#pc91e62c06e)" style="fill: none; stroke: #1f77b4; stroke-width: 1.5; stroke-linecap: square"/>
   </g>
   <g id="line2d_10">
    <path d="M 48.851283 128.520971 
L 60.011283 125.588721 
L 71.171283 124.292379 
L 82.331283 133.426152 
L 93.491283 146.111576 
L 104.651283 162.833052 
L 115.811283 170.984323 
L 126.971283 185.222808 
L 138.131283 198.20249 
L 149.291283 208.41596 
L 160.451283 213.724002 
L 171.611283 218.02408 
L 182.771283 226.843703 
L 193.931283 232.785988 
L 205.091283 236.299426 
L 216.251283 238.007276 
L 227.411283 238.737781 
L 238.571283 240.642707 
L 249.731283 243.776123 
L 260.891283 249.989433 
L 272.051283 253.844341 
L 283.211283 254.662637 
L 294.371283 256.299076 
L 305.531283 256.803452 
L 316.691283 260.905608 
L 327.851283 260.150104 
L 339.011283 261.936965 
L 350.171283 261.564239 
L 361.331283 260.819438 
L 372.491283 260.865747 
L 383.651283 260.795756 
L 394.811283 258.166027 
L 405.971283 252.20427 
" clip-path="url(#pc91e62c06e)" style="fill: none; stroke: #ff7f0e; stroke-width: 1.5; stroke-linecap: square"/>
   </g>
   <g id="line2d_11">
    <path d="M 82.331283 285.37598 
L 82.331283 19.26398 
" clip-path="url(#pc91e62c06e)" style="fill: none; stroke-dasharray: 5.55,2.4; stroke-dashoffset: 0; stroke: #000000; stroke-opacity: 0.5; stroke-width: 1.5"/>
   </g>
   <g id="line2d_12">
    <path d="M 383.651283 285.37598 
L 383.651283 19.26398 
" clip-path="url(#pc91e62c06e)" style="fill: none; stroke-dasharray: 5.55,2.4; stroke-dashoffset: 0; stroke: #000000; stroke-opacity: 0.5; stroke-width: 1.5"/>
   </g>
   <g id="patch_3">
    <path d="M 48.851283 285.37598 
L 405.971283 285.37598 
" style="fill: none; stroke: #000000; stroke-width: 0.8; stroke-linejoin: miter; stroke-linecap: square"/>
   </g>
   <g id="text_11">
    <text style="font: 6.94px 'Arial', sans-serif" transform="translate(10.097767 321.385533) rotate(-35)">-0.1s Sampling</text>
   </g>
   <g id="text_12">
    <text style="font: 6.94px 'Arial', sans-serif" transform="translate(57.794497 311.430872) rotate(-35)">Sampling</text>
   </g>
   <g id="text_13">
    <text style="font: 6.94px 'Arial', sans-serif" transform="translate(319.037191 339.456682) rotate(-35)">Movement to Lateral Port</text>
   </g>
   <g id="text_14">
    <text style="font: 8.33px 'Arial', sans-serif; text-anchor: middle" x="227.411283" y="13.26398" transform="rotate(-0 227.411283 13.26398)">GP4_85_s6_L65_D250_ALM - Trace:11_GP4_85_s6_L65_D250_ALM (when: correct)</text>
   </g>
   <g id="legend_1">
    <g id="patch_4">
     <path d="M 133.696342 354.133136 
L 321.126224 354.133136 
Q 322.514224 354.133136 322.514224 352.745136 
L 322.514224 343.45638 
Q 322.514224 342.06838 321.126224 342.06838 
L 133.696342 342.06838 
Q 132.308342 342.06838 132.308342 343.45638 
L 132.308342 352.745136 
Q 132.308342 354.133136 133.696342 354.133136 
z
" style="fill: #ffffff; opacity: 0.8; stroke: #cccccc; stroke-linejoin: miter"/>
    </g>
    <g id="line2d_13">
     <path d="M 135.084342 347.467483 
L 142.024342 347.467483 
L 148.964342 347.467483 
" style="fill: none; stroke: #1f77b4; stroke-width: 1.5; stroke-linecap: square"/>
    </g>
    <g id="text_15">
     <text style="font: 6.94px 'Arial', sans-serif; text-anchor: start" x="154.516342" y="349.896483" transform="rotate(-0 154.516342 349.896483)">DecisionRight (77 pts)</text>
    </g>
    <g id="line2d_14">
     <path d="M 236.664255 347.467483 
L 243.604255 347.467483 
L 250.544255 347.467483 
" style="fill: none; stroke: #ff7f0e; stroke-width: 1.5; stroke-linecap: square"/>
    </g>
    <g id="text_16">
     <text style="font: 6.94px 'Arial', sans-serif; text-anchor: start" x="256.096255" y="349.896483" transform="rotate(-0 256.096255 349.896483)">DecisionLeft (89 pts)</text>
    </g>
   </g>
  </g>
 </g>
 <defs>
  <clipPath id="pc91e62c06e">
   <rect x="48.851283" y="19.26398" width="357.12" height="266.112"/>
  </clipPath>
 </defs>
</svg>
