<?xml version="1.0" encoding="utf-8" standalone="no"?>
<!DOCTYPE svg PUBLIC "-//W3C//DTD SVG 1.1//EN"
  "http://www.w3.org/Graphics/SVG/1.1/DTD/svg11.dtd">
<svg xmlns:xlink="http://www.w3.org/1999/xlink" width="413.171283pt" height="361.333136pt" viewBox="0 0 413.171283 361.333136" xmlns="http://www.w3.org/2000/svg" version="1.1">
 <metadata>
  <rdf:RDF xmlns:dc="http://purl.org/dc/elements/1.1/" xmlns:cc="http://creativecommons.org/ns#" xmlns:rdf="http://www.w3.org/1999/02/22-rdf-syntax-ns#">
   <cc:Work>
    <dc:type rdf:resource="http://purl.org/dc/dcmitype/StillImage"/>
    <dc:date>2025-12-29T04:07:57.582855</dc:date>
    <dc:format>image/svg+xml</dc:format>
    <dc:creator>
     <cc:Agent>
      <dc:title>Matplotlib v3.8.0, https://matplotlib.org/</dc:title>
     </cc:Agent>
    </dc:creator>
   </cc:Work>
  </rdf:RDF>
 </metadata>
 <defs>
  <style type="text/css">*{stroke-linejoin: round; stroke-linecap: butt}</style>
 </defs>
 <g id="figure_1">
  <g id="patch_1">
   <path d="M 0 361.333136 
L 413.171283 361.333136 
L 413.171283 -0 
L 0 -0 
z
" style="fill: #ffffff"/>
  </g>
  <g id="axes_1">
   <g id="patch_2">
    <path d="M 48.851283 285.37598 
L 405.971283 285.37598 
L 405.971283 19.26398 
L 48.851283 19.26398 
z
" style="fill: #ffffff"/>
   </g>
   <g id="PolyCollection_1">
    <defs>
     <path id="mce6cd61c88" d="M 48.851283 -295.322199 
L 48.851283 -223.957868 
L 60.011283 -219.204366 
L 71.171283 -198.852418 
L 82.331283 -174.955325 
L 93.491283 -162.616161 
L 104.651283 -150.786066 
L 115.811283 -142.366727 
L 126.971283 -143.956541 
L 138.131283 -124.796367 
L 149.291283 -113.224907 
L 160.451283 -120.283905 
L 171.611283 -124.175777 
L 182.771283 -119.100732 
L 193.931283 -104.449825 
L 205.091283 -110.268191 
L 216.251283 -112.840154 
L 227.411283 -115.713068 
L 238.571283 -113.05505 
L 249.731283 -103.312569 
L 260.891283 -100.282728 
L 272.051283 -88.053156 
L 283.211283 -93.186608 
L 294.371283 -102.521582 
L 305.531283 -104.211132 
L 316.691283 -113.280877 
L 327.851283 -124.104199 
L 339.011283 -109.845107 
L 350.171283 -94.580935 
L 361.331283 -107.159728 
L 372.491283 -130.669615 
L 383.651283 -113.632771 
L 394.811283 -97.363428 
L 405.971283 -102.186461 
L 405.971283 -135.922967 
L 405.971283 -135.922967 
L 394.811283 -133.167186 
L 383.651283 -150.875105 
L 372.491283 -166.635506 
L 361.331283 -142.969512 
L 350.171283 -130.594473 
L 339.011283 -147.356691 
L 327.851283 -166.518176 
L 316.691283 -156.48562 
L 305.531283 -147.081963 
L 294.371283 -143.654051 
L 283.211283 -136.12961 
L 272.051283 -132.932616 
L 260.891283 -145.430585 
L 249.731283 -150.702028 
L 238.571283 -162.859938 
L 227.411283 -165.933844 
L 216.251283 -163.203929 
L 205.091283 -163.41201 
L 193.931283 -161.141983 
L 182.771283 -177.332484 
L 171.611283 -180.395703 
L 160.451283 -179.625866 
L 149.291283 -176.241256 
L 138.131283 -191.330165 
L 126.971283 -213.756539 
L 115.811283 -215.838319 
L 104.651283 -221.839494 
L 93.491283 -228.325766 
L 82.331283 -238.438877 
L 71.171283 -267.643723 
L 60.011283 -290.365502 
L 48.851283 -295.322199 
z
" style="stroke: #1f77b4; stroke-opacity: 0.2"/>
    </defs>
    <g clip-path="url(#pcdc3d8f035)">
     <use xlink:href="#mce6cd61c88" x="0" y="361.333136" style="fill: #1f77b4; fill-opacity: 0.2; stroke: #1f77b4; stroke-opacity: 0.2"/>
    </g>
   </g>
   <g id="PolyCollection_2">
    <defs>
     <path id="m212e3089aa" d="M 48.851283 -329.973156 
L 48.851283 -243.888824 
L 60.011283 -235.667703 
L 71.171283 -225.3214 
L 82.331283 -207.624616 
L 93.491283 -199.131097 
L 104.651283 -181.630314 
L 115.811283 -165.549466 
L 126.971283 -160.477145 
L 138.131283 -164.699474 
L 149.291283 -160.700166 
L 160.451283 -147.704779 
L 171.611283 -134.417515 
L 182.771283 -142.637822 
L 193.931283 -150.369287 
L 205.091283 -140.797224 
L 216.251283 -130.776019 
L 227.411283 -133.347416 
L 238.571283 -121.962052 
L 249.731283 -129.32004 
L 260.891283 -140.532161 
L 272.051283 -142.321345 
L 283.211283 -146.518463 
L 294.371283 -143.584884 
L 305.531283 -139.646083 
L 316.691283 -130.503626 
L 327.851283 -125.130386 
L 339.011283 -125.145613 
L 350.171283 -113.281004 
L 361.331283 -117.923732 
L 372.491283 -125.072151 
L 383.651283 -132.980219 
L 394.811283 -137.987445 
L 405.971283 -132.420575 
L 405.971283 -170.767141 
L 405.971283 -170.767141 
L 394.811283 -174.261795 
L 383.651283 -169.78538 
L 372.491283 -163.13431 
L 361.331283 -158.686122 
L 350.171283 -158.528896 
L 339.011283 -173.732256 
L 327.851283 -175.882706 
L 316.691283 -183.816875 
L 305.531283 -192.70049 
L 294.371283 -197.065404 
L 283.211283 -201.562511 
L 272.051283 -200.187828 
L 260.891283 -199.297665 
L 249.731283 -189.28302 
L 238.571283 -186.228885 
L 227.411283 -202.183482 
L 216.251283 -200.984921 
L 205.091283 -210.568581 
L 193.931283 -220.794335 
L 182.771283 -217.348759 
L 171.611283 -214.31826 
L 160.451283 -233.936841 
L 149.291283 -252.325709 
L 138.131283 -257.609515 
L 126.971283 -251.649391 
L 115.811283 -253.660874 
L 104.651283 -270.199304 
L 93.491283 -288.786282 
L 82.331283 -296.007571 
L 71.171283 -312.075909 
L 60.011283 -321.216871 
L 48.851283 -329.973156 
z
" style="stroke: #ff7f0e; stroke-opacity: 0.2"/>
    </defs>
    <g clip-path="url(#pcdc3d8f035)">
     <use xlink:href="#m212e3089aa" x="0" y="361.333136" style="fill: #ff7f0e; fill-opacity: 0.2; stroke: #ff7f0e; stroke-opacity: 0.2"/>
    </g>
   </g>
   <g id="matplotlib.axis_1">
    <g id="text_1">
     <text style="font: 10px 'Arial', sans-serif; text-anchor: middle" x="227.411283" y="296.533792" transform="rotate(-0 227.411283 296.533792)">Time</text>
    </g>
   </g>
   <g id="matplotlib.axis_2">
    <g id="ytick_1">
     <g id="line2d_1">
      <defs>
       <path id="m7274ae9eba" d="M 0 0 
L -3.5 0 
" style="stroke: #000000; stroke-width: 0.8"/>
      </defs>
      <g>
       <use xlink:href="#m7274ae9eba" x="48.851283" y="260.973141" style="stroke: #000000; stroke-width: 0.8"/>
      </g>
     </g>
     <g id="text_2">
      <text style="font: 10px 'Arial', sans-serif; text-anchor: end" x="41.851283" y="264.552048" transform="rotate(-0 41.851283 264.552048)">−0.3</text>
     </g>
    </g>
    <g id="ytick_2">
     <g id="line2d_2">
      <g>
       <use xlink:href="#m7274ae9eba" x="48.851283" y="218.270924" style="stroke: #000000; stroke-width: 0.8"/>
      </g>
     </g>
     <g id="text_3">
      <text style="font: 10px 'Arial', sans-serif; text-anchor: end" x="41.851283" y="221.849831" transform="rotate(-0 41.851283 221.849831)">−0.2</text>
     </g>
    </g>
    <g id="ytick_3">
     <g id="line2d_3">
      <g>
       <use xlink:href="#m7274ae9eba" x="48.851283" y="175.568707" style="stroke: #000000; stroke-width: 0.8"/>
      </g>
     </g>
     <g id="text_4">
      <text style="font: 10px 'Arial', sans-serif; text-anchor: end" x="41.851283" y="179.147614" transform="rotate(-0 41.851283 179.147614)">−0.1</text>
     </g>
    </g>
    <g id="ytick_4">
     <g id="line2d_4">
      <g>
       <use xlink:href="#m7274ae9eba" x="48.851283" y="132.86649" style="stroke: #000000; stroke-width: 0.8"/>
      </g>
     </g>
     <g id="text_5">
      <text style="font: 10px 'Arial', sans-serif; text-anchor: end" x="41.851283" y="136.445397" transform="rotate(-0 41.851283 136.445397)">0.0</text>
     </g>
    </g>
    <g id="ytick_5">
     <g id="line2d_5">
      <g>
       <use xlink:href="#m7274ae9eba" x="48.851283" y="90.164273" style="stroke: #000000; stroke-width: 0.8"/>
      </g>
     </g>
     <g id="text_6">
      <text style="font: 10px 'Arial', sans-serif; text-anchor: end" x="41.851283" y="93.74318" transform="rotate(-0 41.851283 93.74318)">0.1</text>
     </g>
    </g>
    <g id="ytick_6">
     <g id="line2d_6">
      <g>
       <use xlink:href="#m7274ae9eba" x="48.851283" y="47.462056" style="stroke: #000000; stroke-width: 0.8"/>
      </g>
     </g>
     <g id="text_7">
      <text style="font: 10px 'Arial', sans-serif; text-anchor: end" x="41.851283" y="51.040963" transform="rotate(-0 41.851283 51.040963)">0.2</text>
     </g>
    </g>
    <g id="text_8">
     <text style="font: 10px 'Arial', sans-serif; text-anchor: middle" x="16.005971" y="152.31998" transform="rotate(-90 16.005971 152.31998)">Activity</text>
    </g>
   </g>
   <g id="line2d_7">
    <path d="M 48.851283 101.693102 
L 60.011283 106.548201 
L 71.171283 128.085066 
L 82.331283 154.636037 
L 93.491283 165.862173 
L 104.651283 175.020356 
L 115.811283 182.230615 
L 126.971283 182.476597 
L 138.131283 203.269868 
L 149.291283 216.600051 
L 160.451283 211.378254 
L 171.611283 209.047396 
L 182.771283 213.116526 
L 193.931283 228.537232 
L 205.091283 224.493032 
L 216.251283 223.311094 
L 227.411283 220.509677 
L 238.571283 223.375642 
L 249.731283 234.325837 
L 260.891283 238.476479 
L 272.051283 250.84025 
L 283.211283 246.675024 
L 294.371283 238.24532 
L 305.531283 235.686592 
L 316.691283 226.449891 
L 327.851283 216.021949 
L 339.011283 232.732237 
L 350.171283 248.745432 
L 361.331283 236.268519 
L 372.491283 212.680576 
L 383.651283 229.079198 
L 394.811283 246.067829 
L 405.971283 242.278422 
" clip-path="url(#pcdc3d8f035)" style="fill: none; stroke: #1f77b4; stroke-width: 1.5; stroke-linecap: square"/>
   </g>
   <g id="line2d_8">
    <path d="M 48.851283 74.402144 
L 60.011283 82.890847 
L 71.171283 92.634483 
L 82.331283 109.517042 
L 93.491283 117.374445 
L 104.651283 135.418328 
L 115.811283 151.727964 
L 126.971283 155.269868 
L 138.131283 150.178641 
L 149.291283 154.820198 
L 160.451283 170.512326 
L 171.611283 186.965248 
L 182.771283 181.339847 
L 193.931283 175.751326 
L 205.091283 185.650235 
L 216.251283 195.452666 
L 227.411283 193.567685 
L 238.571283 207.237666 
L 249.731283 202.031604 
L 260.891283 191.418221 
L 272.051283 190.078548 
L 283.211283 187.29265 
L 294.371283 191.007991 
L 305.531283 195.159848 
L 316.691283 204.172885 
L 327.851283 210.82659 
L 339.011283 211.894201 
L 350.171283 225.428189 
L 361.331283 223.028209 
L 372.491283 217.229905 
L 383.651283 209.950336 
L 394.811283 205.208516 
L 405.971283 209.739278 
" clip-path="url(#pcdc3d8f035)" style="fill: none; stroke: #ff7f0e; stroke-width: 1.5; stroke-linecap: square"/>
   </g>
   <g id="line2d_9">
    <path d="M 82.331283 285.37598 
L 82.331283 19.26398 
" clip-path="url(#pcdc3d8f035)" style="fill: none; stroke-dasharray: 5.55,2.4; stroke-dashoffset: 0; stroke: #000000; stroke-opacity: 0.5; stroke-width: 1.5"/>
   </g>
   <g id="line2d_10">
    <path d="M 383.651283 285.37598 
L 383.651283 19.26398 
" clip-path="url(#pcdc3d8f035)" style="fill: none; stroke-dasharray: 5.55,2.4; stroke-dashoffset: 0; stroke: #000000; stroke-opacity: 0.5; stroke-width: 1.5"/>
   </g>
   <g id="patch_3">
    <path d="M 48.851283 285.37598 
L 405.971283 285.37598 
" style="fill: none; stroke: #000000; stroke-width: 0.8; stroke-linejoin: miter; stroke-linecap: square"/>
   </g>
   <g id="text_9">
    <text style="font: 6.94px 'Arial', sans-serif" transform="translate(10.097767 321.385533) rotate(-35)">-0.1s Sampling</text>
   </g>
   <g id="text_10">
    <text style="font: 6.94px 'Arial', sans-serif" transform="translate(57.794497 311.430872) rotate(-35)">Sampling</text>
   </g>
   <g id="text_11">
    <text style="font: 6.94px 'Arial', sans-serif" transform="translate(319.037191 339.456682) rotate(-35)">Movement to Lateral Port</text>
   </g>
   <g id="text_12">
    <text style="font: 8.33px 'Arial', sans-serif; text-anchor: middle" x="227.411283" y="13.26398" transform="rotate(-0 227.411283 13.26398)">GP4_85_s6_L65_D250_ALM - Trace:21_GP4_85_s6_L65_D250_ALM (when: correct)</text>
   </g>
   <g id="legend_1">
    <g id="patch_4">
     <path d="M 133.696342 354.133136 
L 321.126224 354.133136 
Q 322.514224 354.133136 322.514224 352.745136 
L 322.514224 343.45638 
Q 322.514224 342.06838 321.126224 342.06838 
L 133.696342 342.06838 
Q 132.308342 342.06838 132.308342 343.45638 
L 132.308342 352.745136 
Q 132.308342 354.133136 133.696342 354.133136 
z
" style="fill: #ffffff; opacity: 0.8; stroke: #cccccc; stroke-linejoin: miter"/>
    </g>
    <g id="line2d_11">
     <path d="M 135.084342 347.467483 
L 142.024342 347.467483 
L 148.964342 347.467483 
" style="fill: none; stroke: #1f77b4; stroke-width: 1.5; stroke-linecap: square"/>
    </g>
    <g id="text_13">
     <text style="font: 6.94px 'Arial', sans-serif; text-anchor: start" x="154.516342" y="349.896483" transform="rotate(-0 154.516342 349.896483)">DecisionRight (77 pts)</text>
    </g>
    <g id="line2d_12">
     <path d="M 236.664255 347.467483 
L 243.604255 347.467483 
L 250.544255 347.467483 
" style="fill: none; stroke: #ff7f0e; stroke-width: 1.5; stroke-linecap: square"/>
    </g>
    <g id="text_14">
     <text style="font: 6.94px 'Arial', sans-serif; text-anchor: start" x="256.096255" y="349.896483" transform="rotate(-0 256.096255 349.896483)">DecisionLeft (89 pts)</text>
    </g>
   </g>
  </g>
 </g>
 <defs>
  <clipPath id="pcdc3d8f035">
   <rect x="48.851283" y="19.26398" width="357.12" height="266.112"/>
  </clipPath>
 </defs>
</svg>
