<?xml version="1.0" encoding="utf-8" standalone="no"?>
<!DOCTYPE svg PUBLIC "-//W3C//DTD SVG 1.1//EN"
  "http://www.w3.org/Graphics/SVG/1.1/DTD/svg11.dtd">
<svg xmlns:xlink="http://www.w3.org/1999/xlink" width="413.171283pt" height="361.333136pt" viewBox="0 0 413.171283 361.333136" xmlns="http://www.w3.org/2000/svg" version="1.1">
 <metadata>
  <rdf:RDF xmlns:dc="http://purl.org/dc/elements/1.1/" xmlns:cc="http://creativecommons.org/ns#" xmlns:rdf="http://www.w3.org/1999/02/22-rdf-syntax-ns#">
   <cc:Work>
    <dc:type rdf:resource="http://purl.org/dc/dcmitype/StillImage"/>
    <dc:date>2025-12-29T04:07:56.341062</dc:date>
    <dc:format>image/svg+xml</dc:format>
    <dc:creator>
     <cc:Agent>
      <dc:title>Matplotlib v3.8.0, https://matplotlib.org/</dc:title>
     </cc:Agent>
    </dc:creator>
   </cc:Work>
  </rdf:RDF>
 </metadata>
 <defs>
  <style type="text/css">*{stroke-linejoin: round; stroke-linecap: butt}</style>
 </defs>
 <g id="figure_1">
  <g id="patch_1">
   <path d="M 0 361.333136 
L 413.171283 361.333136 
L 413.171283 -0 
L 0 -0 
z
" style="fill: #ffffff"/>
  </g>
  <g id="axes_1">
   <g id="patch_2">
    <path d="M 48.851283 285.37598 
L 405.971283 285.37598 
L 405.971283 19.26398 
L 48.851283 19.26398 
z
" style="fill: #ffffff"/>
   </g>
   <g id="PolyCollection_1">
    <defs>
     <path id="md67ce2a0fb" d="M 48.851283 -329.973156 
L 48.851283 -234.543537 
L 60.011283 -218.121969 
L 71.171283 -207.198945 
L 82.331283 -194.04738 
L 93.491283 -177.432296 
L 104.651283 -165.716439 
L 115.811283 -164.942782 
L 126.971283 -173.309734 
L 138.131283 -170.739489 
L 149.291283 -171.348808 
L 160.451283 -165.463722 
L 171.611283 -156.974057 
L 182.771283 -150.13818 
L 193.931283 -152.219023 
L 205.091283 -152.548754 
L 216.251283 -156.306743 
L 227.411283 -152.749192 
L 238.571283 -143.704791 
L 249.731283 -133.577552 
L 260.891283 -124.59447 
L 272.051283 -120.40942 
L 283.211283 -117.789626 
L 294.371283 -119.899307 
L 305.531283 -113.049125 
L 316.691283 -115.539529 
L 327.851283 -116.270107 
L 339.011283 -130.31145 
L 350.171283 -120.690264 
L 361.331283 -114.795563 
L 372.491283 -106.146056 
L 383.651283 -118.854633 
L 394.811283 -130.948534 
L 405.971283 -132.157313 
L 405.971283 -177.395737 
L 405.971283 -177.395737 
L 394.811283 -178.535604 
L 383.651283 -165.922168 
L 372.491283 -155.235091 
L 361.331283 -166.338022 
L 350.171283 -175.593972 
L 339.011283 -186.430011 
L 327.851283 -176.741741 
L 316.691283 -179.053149 
L 305.531283 -178.056198 
L 294.371283 -184.043377 
L 283.211283 -180.06469 
L 272.051283 -182.937559 
L 260.891283 -186.664276 
L 249.731283 -198.977506 
L 238.571283 -212.033862 
L 227.411283 -223.312342 
L 216.251283 -226.712214 
L 205.091283 -224.529931 
L 193.931283 -224.649474 
L 182.771283 -224.290017 
L 171.611283 -237.179339 
L 160.451283 -249.059411 
L 149.291283 -256.7285 
L 138.131283 -255.991068 
L 126.971283 -257.257833 
L 115.811283 -248.653312 
L 104.651283 -252.461747 
L 93.491283 -267.109994 
L 82.331283 -285.274253 
L 71.171283 -301.170997 
L 60.011283 -312.317578 
L 48.851283 -329.973156 
z
" style="stroke: #1f77b4; stroke-opacity: 0.2"/>
    </defs>
    <g clip-path="url(#p57bc69d7c1)">
     <use xlink:href="#md67ce2a0fb" x="0" y="361.333136" style="fill: #1f77b4; fill-opacity: 0.2; stroke: #1f77b4; stroke-opacity: 0.2"/>
    </g>
   </g>
   <g id="PolyCollection_2">
    <defs>
     <path id="m451b1c510d" d="M 48.851283 -311.443384 
L 48.851283 -230.13186 
L 60.011283 -247.388034 
L 71.171283 -234.729616 
L 82.331283 -222.445531 
L 93.491283 -221.669638 
L 104.651283 -207.621301 
L 115.811283 -194.347455 
L 126.971283 -182.337589 
L 138.131283 -174.520912 
L 149.291283 -159.553338 
L 160.451283 -162.918779 
L 171.611283 -165.700024 
L 182.771283 -156.21543 
L 193.931283 -136.896815 
L 205.091283 -138.620314 
L 216.251283 -140.264468 
L 227.411283 -142.498681 
L 238.571283 -150.474967 
L 249.731283 -142.25481 
L 260.891283 -124.224674 
L 272.051283 -123.29217 
L 283.211283 -117.804805 
L 294.371283 -122.443911 
L 305.531283 -126.548941 
L 316.691283 -117.43182 
L 327.851283 -112.702833 
L 339.011283 -105.896534 
L 350.171283 -92.897561 
L 361.331283 -88.053156 
L 372.491283 -91.150694 
L 383.651283 -100.664004 
L 394.811283 -119.78697 
L 405.971283 -125.187897 
L 405.971283 -165.325678 
L 405.971283 -165.325678 
L 394.811283 -161.987617 
L 383.651283 -142.155021 
L 372.491283 -127.777152 
L 361.331283 -121.452912 
L 350.171283 -127.072939 
L 339.011283 -142.152266 
L 327.851283 -150.041641 
L 316.691283 -157.867005 
L 305.531283 -170.32396 
L 294.371283 -169.916832 
L 283.211283 -164.822401 
L 272.051283 -168.665028 
L 260.891283 -169.289125 
L 249.731283 -188.989665 
L 238.571283 -199.554339 
L 227.411283 -193.763782 
L 216.251283 -188.987879 
L 205.091283 -187.999881 
L 193.931283 -190.72684 
L 182.771283 -213.91848 
L 171.611283 -229.053957 
L 160.451283 -227.641241 
L 149.291283 -228.047669 
L 138.131283 -249.233866 
L 126.971283 -259.190694 
L 115.811283 -272.350879 
L 104.651283 -287.287977 
L 93.491283 -303.241399 
L 82.331283 -300.823532 
L 71.171283 -312.294402 
L 60.011283 -327.932415 
L 48.851283 -311.443384 
z
" style="stroke: #ff7f0e; stroke-opacity: 0.2"/>
    </defs>
    <g clip-path="url(#p57bc69d7c1)">
     <use xlink:href="#m451b1c510d" x="0" y="361.333136" style="fill: #ff7f0e; fill-opacity: 0.2; stroke: #ff7f0e; stroke-opacity: 0.2"/>
    </g>
   </g>
   <g id="matplotlib.axis_1">
    <g id="text_1">
     <text style="font: 10px 'Arial', sans-serif; text-anchor: middle" x="227.411283" y="296.533792" transform="rotate(-0 227.411283 296.533792)">Time</text>
    </g>
   </g>
   <g id="matplotlib.axis_2">
    <g id="ytick_1">
     <g id="line2d_1">
      <defs>
       <path id="mcb3b3c3146" d="M 0 0 
L -3.5 0 
" style="stroke: #000000; stroke-width: 0.8"/>
      </defs>
      <g>
       <use xlink:href="#mcb3b3c3146" x="48.851283" y="267.419923" style="stroke: #000000; stroke-width: 0.8"/>
      </g>
     </g>
     <g id="text_2">
      <text style="font: 10px 'Arial', sans-serif; text-anchor: end" x="41.851283" y="270.998829" transform="rotate(-0 41.851283 270.998829)">−0.2</text>
     </g>
    </g>
    <g id="ytick_2">
     <g id="line2d_2">
      <g>
       <use xlink:href="#mcb3b3c3146" x="48.851283" y="233.943064" style="stroke: #000000; stroke-width: 0.8"/>
      </g>
     </g>
     <g id="text_3">
      <text style="font: 10px 'Arial', sans-serif; text-anchor: end" x="41.851283" y="237.52197" transform="rotate(-0 41.851283 237.52197)">−0.1</text>
     </g>
    </g>
    <g id="ytick_3">
     <g id="line2d_3">
      <g>
       <use xlink:href="#mcb3b3c3146" x="48.851283" y="200.466205" style="stroke: #000000; stroke-width: 0.8"/>
      </g>
     </g>
     <g id="text_4">
      <text style="font: 10px 'Arial', sans-serif; text-anchor: end" x="41.851283" y="204.045111" transform="rotate(-0 41.851283 204.045111)">0.0</text>
     </g>
    </g>
    <g id="ytick_4">
     <g id="line2d_4">
      <g>
       <use xlink:href="#mcb3b3c3146" x="48.851283" y="166.989346" style="stroke: #000000; stroke-width: 0.8"/>
      </g>
     </g>
     <g id="text_5">
      <text style="font: 10px 'Arial', sans-serif; text-anchor: end" x="41.851283" y="170.568252" transform="rotate(-0 41.851283 170.568252)">0.1</text>
     </g>
    </g>
    <g id="ytick_5">
     <g id="line2d_5">
      <g>
       <use xlink:href="#mcb3b3c3146" x="48.851283" y="133.512487" style="stroke: #000000; stroke-width: 0.8"/>
      </g>
     </g>
     <g id="text_6">
      <text style="font: 10px 'Arial', sans-serif; text-anchor: end" x="41.851283" y="137.091393" transform="rotate(-0 41.851283 137.091393)">0.2</text>
     </g>
    </g>
    <g id="ytick_6">
     <g id="line2d_6">
      <g>
       <use xlink:href="#mcb3b3c3146" x="48.851283" y="100.035628" style="stroke: #000000; stroke-width: 0.8"/>
      </g>
     </g>
     <g id="text_7">
      <text style="font: 10px 'Arial', sans-serif; text-anchor: end" x="41.851283" y="103.614534" transform="rotate(-0 41.851283 103.614534)">0.3</text>
     </g>
    </g>
    <g id="ytick_7">
     <g id="line2d_7">
      <g>
       <use xlink:href="#mcb3b3c3146" x="48.851283" y="66.558769" style="stroke: #000000; stroke-width: 0.8"/>
      </g>
     </g>
     <g id="text_8">
      <text style="font: 10px 'Arial', sans-serif; text-anchor: end" x="41.851283" y="70.137675" transform="rotate(-0 41.851283 70.137675)">0.4</text>
     </g>
    </g>
    <g id="ytick_8">
     <g id="line2d_8">
      <g>
       <use xlink:href="#mcb3b3c3146" x="48.851283" y="33.08191" style="stroke: #000000; stroke-width: 0.8"/>
      </g>
     </g>
     <g id="text_9">
      <text style="font: 10px 'Arial', sans-serif; text-anchor: end" x="41.851283" y="36.660816" transform="rotate(-0 41.851283 36.660816)">0.5</text>
     </g>
    </g>
    <g id="text_10">
     <text style="font: 10px 'Arial', sans-serif; text-anchor: middle" x="16.005971" y="152.31998" transform="rotate(-90 16.005971 152.31998)">Activity</text>
    </g>
   </g>
   <g id="line2d_9">
    <path d="M 48.851283 79.074784 
L 60.011283 96.113362 
L 71.171283 107.148162 
L 82.331283 121.672322 
L 93.491283 139.061991 
L 104.651283 152.244041 
L 115.811283 154.535087 
L 126.971283 146.049355 
L 138.131283 147.967854 
L 149.291283 147.294485 
L 160.451283 154.071571 
L 171.611283 164.256438 
L 182.771283 174.119039 
L 193.931283 172.898889 
L 205.091283 172.793793 
L 216.251283 169.823657 
L 227.411283 173.302369 
L 238.571283 183.463809 
L 249.731283 195.055608 
L 260.891283 205.703764 
L 272.051283 209.659648 
L 283.211283 212.405979 
L 294.371283 209.361795 
L 305.531283 215.780476 
L 316.691283 214.036797 
L 327.851283 214.827212 
L 339.011283 202.962407 
L 350.171283 213.191017 
L 361.331283 220.766344 
L 372.491283 230.642562 
L 383.651283 218.944735 
L 394.811283 206.591067 
L 405.971283 206.556611 
" clip-path="url(#p57bc69d7c1)" style="fill: none; stroke: #1f77b4; stroke-width: 1.5; stroke-linecap: square"/>
   </g>
   <g id="line2d_10">
    <path d="M 48.851283 90.545514 
L 60.011283 73.672912 
L 71.171283 87.821127 
L 82.331283 99.698605 
L 93.491283 98.877617 
L 104.651283 113.878497 
L 115.811283 127.983966 
L 126.971283 140.568994 
L 138.131283 149.455747 
L 149.291283 167.532634 
L 160.451283 166.053125 
L 171.611283 163.956146 
L 182.771283 176.266181 
L 193.931283 197.521309 
L 205.091283 198.023039 
L 216.251283 196.706962 
L 227.411283 193.201904 
L 238.571283 186.318483 
L 249.731283 195.710899 
L 260.891283 214.576236 
L 272.051283 215.354536 
L 283.211283 220.019533 
L 294.371283 215.152764 
L 305.531283 212.896686 
L 316.691283 223.683722 
L 327.851283 229.960899 
L 339.011283 237.308735 
L 350.171283 251.347886 
L 361.331283 256.580102 
L 372.491283 251.869213 
L 383.651283 239.923623 
L 394.811283 220.445843 
L 405.971283 216.076348 
" clip-path="url(#p57bc69d7c1)" style="fill: none; stroke: #ff7f0e; stroke-width: 1.5; stroke-linecap: square"/>
   </g>
   <g id="line2d_11">
    <path d="M 82.331283 285.37598 
L 82.331283 19.26398 
" clip-path="url(#p57bc69d7c1)" style="fill: none; stroke-dasharray: 5.55,2.4; stroke-dashoffset: 0; stroke: #000000; stroke-opacity: 0.5; stroke-width: 1.5"/>
   </g>
   <g id="line2d_12">
    <path d="M 383.651283 285.37598 
L 383.651283 19.26398 
" clip-path="url(#p57bc69d7c1)" style="fill: none; stroke-dasharray: 5.55,2.4; stroke-dashoffset: 0; stroke: #000000; stroke-opacity: 0.5; stroke-width: 1.5"/>
   </g>
   <g id="patch_3">
    <path d="M 48.851283 285.37598 
L 405.971283 285.37598 
" style="fill: none; stroke: #000000; stroke-width: 0.8; stroke-linejoin: miter; stroke-linecap: square"/>
   </g>
   <g id="text_11">
    <text style="font: 6.94px 'Arial', sans-serif" transform="translate(10.097767 321.385533) rotate(-35)">-0.1s Sampling</text>
   </g>
   <g id="text_12">
    <text style="font: 6.94px 'Arial', sans-serif" transform="translate(57.794497 311.430872) rotate(-35)">Sampling</text>
   </g>
   <g id="text_13">
    <text style="font: 6.94px 'Arial', sans-serif" transform="translate(319.037191 339.456682) rotate(-35)">Movement to Lateral Port</text>
   </g>
   <g id="text_14">
    <text style="font: 8.33px 'Arial', sans-serif; text-anchor: middle" x="227.411283" y="13.26398" transform="rotate(-0 227.411283 13.26398)">GP4_85_s6_L65_D250_ALM - Trace:22_GP4_85_s6_L65_D250_ALM (when: correct)</text>
   </g>
   <g id="legend_1">
    <g id="patch_4">
     <path d="M 133.696342 354.133136 
L 321.126224 354.133136 
Q 322.514224 354.133136 322.514224 352.745136 
L 322.514224 343.45638 
Q 322.514224 342.06838 321.126224 342.06838 
L 133.696342 342.06838 
Q 132.308342 342.06838 132.308342 343.45638 
L 132.308342 352.745136 
Q 132.308342 354.133136 133.696342 354.133136 
z
" style="fill: #ffffff; opacity: 0.8; stroke: #cccccc; stroke-linejoin: miter"/>
    </g>
    <g id="line2d_13">
     <path d="M 135.084342 347.467483 
L 142.024342 347.467483 
L 148.964342 347.467483 
" style="fill: none; stroke: #1f77b4; stroke-width: 1.5; stroke-linecap: square"/>
    </g>
    <g id="text_15">
     <text style="font: 6.94px 'Arial', sans-serif; text-anchor: start" x="154.516342" y="349.896483" transform="rotate(-0 154.516342 349.896483)">DecisionRight (77 pts)</text>
    </g>
    <g id="line2d_14">
     <path d="M 236.664255 347.467483 
L 243.604255 347.467483 
L 250.544255 347.467483 
" style="fill: none; stroke: #ff7f0e; stroke-width: 1.5; stroke-linecap: square"/>
    </g>
    <g id="text_16">
     <text style="font: 6.94px 'Arial', sans-serif; text-anchor: start" x="256.096255" y="349.896483" transform="rotate(-0 256.096255 349.896483)">DecisionLeft (89 pts)</text>
    </g>
   </g>
  </g>
 </g>
 <defs>
  <clipPath id="p57bc69d7c1">
   <rect x="48.851283" y="19.26398" width="357.12" height="266.112"/>
  </clipPath>
 </defs>
</svg>
