<?xml version="1.0" encoding="utf-8" standalone="no"?>
<!DOCTYPE svg PUBLIC "-//W3C//DTD SVG 1.1//EN"
  "http://www.w3.org/Graphics/SVG/1.1/DTD/svg11.dtd">
<svg xmlns:xlink="http://www.w3.org/1999/xlink" width="413.171283pt" height="361.333136pt" viewBox="0 0 413.171283 361.333136" xmlns="http://www.w3.org/2000/svg" version="1.1">
 <metadata>
  <rdf:RDF xmlns:dc="http://purl.org/dc/elements/1.1/" xmlns:cc="http://creativecommons.org/ns#" xmlns:rdf="http://www.w3.org/1999/02/22-rdf-syntax-ns#">
   <cc:Work>
    <dc:type rdf:resource="http://purl.org/dc/dcmitype/StillImage"/>
    <dc:date>2025-12-29T04:07:56.390726</dc:date>
    <dc:format>image/svg+xml</dc:format>
    <dc:creator>
     <cc:Agent>
      <dc:title>Matplotlib v3.8.0, https://matplotlib.org/</dc:title>
     </cc:Agent>
    </dc:creator>
   </cc:Work>
  </rdf:RDF>
 </metadata>
 <defs>
  <style type="text/css">*{stroke-linejoin: round; stroke-linecap: butt}</style>
 </defs>
 <g id="figure_1">
  <g id="patch_1">
   <path d="M 0 361.333136 
L 413.171283 361.333136 
L 413.171283 -0 
L 0 -0 
z
" style="fill: #ffffff"/>
  </g>
  <g id="axes_1">
   <g id="patch_2">
    <path d="M 48.851283 285.37598 
L 405.971283 285.37598 
L 405.971283 19.26398 
L 48.851283 19.26398 
z
" style="fill: #ffffff"/>
   </g>
   <g id="PolyCollection_1">
    <defs>
     <path id="m024b9a5430" d="M 48.851283 -168.558956 
L 48.851283 -100.61163 
L 60.011283 -95.263243 
L 71.171283 -91.734162 
L 82.331283 -88.053156 
L 93.491283 -88.787112 
L 104.651283 -89.905802 
L 115.811283 -101.57494 
L 126.971283 -107.537338 
L 138.131283 -113.466213 
L 149.291283 -118.491012 
L 160.451283 -123.419034 
L 171.611283 -122.552728 
L 182.771283 -127.692872 
L 193.931283 -129.120752 
L 205.091283 -126.845731 
L 216.251283 -130.495846 
L 227.411283 -134.437218 
L 238.571283 -137.126556 
L 249.731283 -142.929602 
L 260.891283 -144.733019 
L 272.051283 -151.974577 
L 283.211283 -150.074566 
L 294.371283 -150.220344 
L 305.531283 -161.327801 
L 316.691283 -175.901775 
L 327.851283 -186.446705 
L 339.011283 -192.135065 
L 350.171283 -190.394223 
L 361.331283 -188.284079 
L 372.491283 -190.795707 
L 383.651283 -208.975778 
L 394.811283 -228.775676 
L 405.971283 -241.366796 
L 405.971283 -329.973156 
L 405.971283 -329.973156 
L 394.811283 -315.226192 
L 383.651283 -290.619204 
L 372.491283 -270.468118 
L 361.331283 -271.191445 
L 350.171283 -273.384672 
L 339.011283 -276.159232 
L 327.851283 -267.751709 
L 316.691283 -253.486717 
L 305.531283 -235.226168 
L 294.371283 -222.933375 
L 283.211283 -220.911491 
L 272.051283 -221.017109 
L 260.891283 -212.140217 
L 249.731283 -207.697381 
L 238.571283 -199.711098 
L 227.411283 -196.980162 
L 216.251283 -190.229834 
L 205.091283 -184.409737 
L 193.931283 -186.417449 
L 182.771283 -185.816707 
L 171.611283 -180.423347 
L 160.451283 -182.41804 
L 149.291283 -177.20945 
L 138.131283 -173.853457 
L 126.971283 -167.96757 
L 115.811283 -159.302825 
L 104.651283 -147.861813 
L 93.491283 -147.96303 
L 82.331283 -144.793845 
L 71.171283 -148.969543 
L 60.011283 -158.256461 
L 48.851283 -168.558956 
z
" style="stroke: #1f77b4; stroke-opacity: 0.2"/>
    </defs>
    <g clip-path="url(#pd62e7a813b)">
     <use xlink:href="#m024b9a5430" x="0" y="361.333136" style="fill: #1f77b4; fill-opacity: 0.2; stroke: #1f77b4; stroke-opacity: 0.2"/>
    </g>
   </g>
   <g id="PolyCollection_2">
    <defs>
     <path id="mbe28c6d15d" d="M 48.851283 -153.810094 
L 48.851283 -105.862648 
L 60.011283 -103.211707 
L 71.171283 -105.663057 
L 82.331283 -108.005528 
L 93.491283 -108.218645 
L 104.651283 -113.432532 
L 115.811283 -121.543352 
L 126.971283 -127.134438 
L 138.131283 -131.229011 
L 149.291283 -137.907168 
L 160.451283 -142.320681 
L 171.611283 -147.076305 
L 182.771283 -151.890318 
L 193.931283 -156.432851 
L 205.091283 -160.461931 
L 216.251283 -167.212244 
L 227.411283 -169.987847 
L 238.571283 -171.700002 
L 249.731283 -169.748202 
L 260.891283 -169.925892 
L 272.051283 -172.168034 
L 283.211283 -173.450394 
L 294.371283 -167.922236 
L 305.531283 -165.16162 
L 316.691283 -170.018423 
L 327.851283 -174.171141 
L 339.011283 -172.730051 
L 350.171283 -172.521617 
L 361.331283 -166.978531 
L 372.491283 -165.403657 
L 383.651283 -174.588661 
L 394.811283 -182.903361 
L 405.971283 -196.306324 
L 405.971283 -263.938303 
L 405.971283 -263.938303 
L 394.811283 -248.504833 
L 383.651283 -238.135183 
L 372.491283 -229.129414 
L 361.331283 -230.733714 
L 350.171283 -236.594952 
L 339.011283 -237.355766 
L 327.851283 -238.719971 
L 316.691283 -233.997533 
L 305.531283 -227.871974 
L 294.371283 -231.023639 
L 283.211283 -238.334454 
L 272.051283 -237.755757 
L 260.891283 -235.588871 
L 249.731283 -235.849504 
L 238.571283 -237.063952 
L 227.411283 -233.745963 
L 216.251283 -228.857945 
L 205.091283 -220.328759 
L 193.931283 -215.57264 
L 182.771283 -210.500081 
L 171.611283 -205.106323 
L 160.451283 -199.780008 
L 149.291283 -195.302422 
L 138.131283 -186.26113 
L 126.971283 -178.348444 
L 115.811283 -170.37639 
L 104.651283 -162.081678 
L 93.491283 -156.193731 
L 82.331283 -154.390326 
L 71.171283 -149.89935 
L 60.011283 -147.361356 
L 48.851283 -153.810094 
z
" style="stroke: #ff7f0e; stroke-opacity: 0.2"/>
    </defs>
    <g clip-path="url(#pd62e7a813b)">
     <use xlink:href="#mbe28c6d15d" x="0" y="361.333136" style="fill: #ff7f0e; fill-opacity: 0.2; stroke: #ff7f0e; stroke-opacity: 0.2"/>
    </g>
   </g>
   <g id="matplotlib.axis_1">
    <g id="text_1">
     <text style="font: 10px 'Arial', sans-serif; text-anchor: middle" x="227.411283" y="296.533792" transform="rotate(-0 227.411283 296.533792)">Time</text>
    </g>
   </g>
   <g id="matplotlib.axis_2">
    <g id="ytick_1">
     <g id="line2d_1">
      <defs>
       <path id="m589f399d61" d="M 0 0 
L -3.5 0 
" style="stroke: #000000; stroke-width: 0.8"/>
      </defs>
      <g>
       <use xlink:href="#m589f399d61" x="48.851283" y="261.980115" style="stroke: #000000; stroke-width: 0.8"/>
      </g>
     </g>
     <g id="text_2">
      <text style="font: 10px 'Arial', sans-serif; text-anchor: end" x="41.851283" y="265.559021" transform="rotate(-0 41.851283 265.559021)">−0.2</text>
     </g>
    </g>
    <g id="ytick_2">
     <g id="line2d_2">
      <g>
       <use xlink:href="#m589f399d61" x="48.851283" y="231.794398" style="stroke: #000000; stroke-width: 0.8"/>
      </g>
     </g>
     <g id="text_3">
      <text style="font: 10px 'Arial', sans-serif; text-anchor: end" x="41.851283" y="235.373305" transform="rotate(-0 41.851283 235.373305)">−0.1</text>
     </g>
    </g>
    <g id="ytick_3">
     <g id="line2d_3">
      <g>
       <use xlink:href="#m589f399d61" x="48.851283" y="201.608682" style="stroke: #000000; stroke-width: 0.8"/>
      </g>
     </g>
     <g id="text_4">
      <text style="font: 10px 'Arial', sans-serif; text-anchor: end" x="41.851283" y="205.187588" transform="rotate(-0 41.851283 205.187588)">0.0</text>
     </g>
    </g>
    <g id="ytick_4">
     <g id="line2d_4">
      <g>
       <use xlink:href="#m589f399d61" x="48.851283" y="171.422966" style="stroke: #000000; stroke-width: 0.8"/>
      </g>
     </g>
     <g id="text_5">
      <text style="font: 10px 'Arial', sans-serif; text-anchor: end" x="41.851283" y="175.001872" transform="rotate(-0 41.851283 175.001872)">0.1</text>
     </g>
    </g>
    <g id="ytick_5">
     <g id="line2d_5">
      <g>
       <use xlink:href="#m589f399d61" x="48.851283" y="141.23725" style="stroke: #000000; stroke-width: 0.8"/>
      </g>
     </g>
     <g id="text_6">
      <text style="font: 10px 'Arial', sans-serif; text-anchor: end" x="41.851283" y="144.816156" transform="rotate(-0 41.851283 144.816156)">0.2</text>
     </g>
    </g>
    <g id="ytick_6">
     <g id="line2d_6">
      <g>
       <use xlink:href="#m589f399d61" x="48.851283" y="111.051533" style="stroke: #000000; stroke-width: 0.8"/>
      </g>
     </g>
     <g id="text_7">
      <text style="font: 10px 'Arial', sans-serif; text-anchor: end" x="41.851283" y="114.63044" transform="rotate(-0 41.851283 114.63044)">0.3</text>
     </g>
    </g>
    <g id="ytick_7">
     <g id="line2d_7">
      <g>
       <use xlink:href="#m589f399d61" x="48.851283" y="80.865817" style="stroke: #000000; stroke-width: 0.8"/>
      </g>
     </g>
     <g id="text_8">
      <text style="font: 10px 'Arial', sans-serif; text-anchor: end" x="41.851283" y="84.444723" transform="rotate(-0 41.851283 84.444723)">0.4</text>
     </g>
    </g>
    <g id="ytick_8">
     <g id="line2d_8">
      <g>
       <use xlink:href="#m589f399d61" x="48.851283" y="50.680101" style="stroke: #000000; stroke-width: 0.8"/>
      </g>
     </g>
     <g id="text_9">
      <text style="font: 10px 'Arial', sans-serif; text-anchor: end" x="41.851283" y="54.259007" transform="rotate(-0 41.851283 54.259007)">0.5</text>
     </g>
    </g>
    <g id="ytick_9">
     <g id="line2d_9">
      <g>
       <use xlink:href="#m589f399d61" x="48.851283" y="20.494384" style="stroke: #000000; stroke-width: 0.8"/>
      </g>
     </g>
     <g id="text_10">
      <text style="font: 10px 'Arial', sans-serif; text-anchor: end" x="41.851283" y="24.073291" transform="rotate(-0 41.851283 24.073291)">0.6</text>
     </g>
    </g>
    <g id="text_11">
     <text style="font: 10px 'Arial', sans-serif; text-anchor: middle" x="16.005971" y="152.31998" transform="rotate(-90 16.005971 152.31998)">Activity</text>
    </g>
   </g>
   <g id="line2d_10">
    <path d="M 48.851283 226.747843 
L 60.011283 234.573284 
L 71.171283 240.981283 
L 82.331283 244.909635 
L 93.491283 242.958065 
L 104.651283 242.44933 
L 115.811283 230.894255 
L 126.971283 223.580682 
L 138.131283 217.673301 
L 149.291283 213.482904 
L 160.451283 208.4146 
L 171.611283 209.845099 
L 182.771283 204.578346 
L 193.931283 203.564036 
L 205.091283 205.705401 
L 216.251283 200.970295 
L 227.411283 195.624445 
L 238.571283 192.914308 
L 249.731283 186.019645 
L 260.891283 182.896517 
L 272.051283 174.837293 
L 283.211283 175.840109 
L 294.371283 174.756277 
L 305.531283 163.056152 
L 316.691283 146.638888 
L 327.851283 134.233932 
L 339.011283 127.185985 
L 350.171283 129.443691 
L 361.331283 131.595374 
L 372.491283 130.701225 
L 383.651283 111.535643 
L 394.811283 89.3322 
L 405.971283 75.66316 
" clip-path="url(#pd62e7a813b)" style="fill: none; stroke: #1f77b4; stroke-width: 1.5; stroke-linecap: square"/>
   </g>
   <g id="line2d_11">
    <path d="M 48.851283 231.496765 
L 60.011283 236.046604 
L 71.171283 233.551931 
L 82.331283 230.135209 
L 93.491283 229.126948 
L 104.651283 223.576031 
L 115.811283 215.373266 
L 126.971283 208.591694 
L 138.131283 202.588067 
L 149.291283 194.728341 
L 160.451283 190.28279 
L 171.611283 185.241823 
L 182.771283 180.137938 
L 193.931283 175.330391 
L 205.091283 170.937791 
L 216.251283 163.298042 
L 227.411283 159.466231 
L 238.571283 156.951161 
L 249.731283 158.534281 
L 260.891283 158.575757 
L 272.051283 156.37124 
L 283.211283 155.440712 
L 294.371283 161.860199 
L 305.531283 164.816338 
L 316.691283 159.325159 
L 327.851283 154.887581 
L 339.011283 156.290226 
L 350.171283 156.774852 
L 361.331283 162.477013 
L 372.491283 164.066601 
L 383.651283 154.971213 
L 394.811283 145.629037 
L 405.971283 131.21082 
" clip-path="url(#pd62e7a813b)" style="fill: none; stroke: #ff7f0e; stroke-width: 1.5; stroke-linecap: square"/>
   </g>
   <g id="line2d_12">
    <path d="M 82.331283 285.37598 
L 82.331283 19.26398 
" clip-path="url(#pd62e7a813b)" style="fill: none; stroke-dasharray: 5.55,2.4; stroke-dashoffset: 0; stroke: #000000; stroke-opacity: 0.5; stroke-width: 1.5"/>
   </g>
   <g id="line2d_13">
    <path d="M 383.651283 285.37598 
L 383.651283 19.26398 
" clip-path="url(#pd62e7a813b)" style="fill: none; stroke-dasharray: 5.55,2.4; stroke-dashoffset: 0; stroke: #000000; stroke-opacity: 0.5; stroke-width: 1.5"/>
   </g>
   <g id="patch_3">
    <path d="M 48.851283 285.37598 
L 405.971283 285.37598 
" style="fill: none; stroke: #000000; stroke-width: 0.8; stroke-linejoin: miter; stroke-linecap: square"/>
   </g>
   <g id="text_12">
    <text style="font: 6.94px 'Arial', sans-serif" transform="translate(10.097767 321.385533) rotate(-35)">-0.1s Sampling</text>
   </g>
   <g id="text_13">
    <text style="font: 6.94px 'Arial', sans-serif" transform="translate(57.794497 311.430872) rotate(-35)">Sampling</text>
   </g>
   <g id="text_14">
    <text style="font: 6.94px 'Arial', sans-serif" transform="translate(319.037191 339.456682) rotate(-35)">Movement to Lateral Port</text>
   </g>
   <g id="text_15">
    <text style="font: 8.33px 'Arial', sans-serif; text-anchor: middle" x="227.411283" y="13.26398" transform="rotate(-0 227.411283 13.26398)">GP4_85_s6_L65_D250_ALM - Trace:23_GP4_85_s6_L65_D250_ALM (when: correct)</text>
   </g>
   <g id="legend_1">
    <g id="patch_4">
     <path d="M 133.696342 354.133136 
L 321.126224 354.133136 
Q 322.514224 354.133136 322.514224 352.745136 
L 322.514224 343.45638 
Q 322.514224 342.06838 321.126224 342.06838 
L 133.696342 342.06838 
Q 132.308342 342.06838 132.308342 343.45638 
L 132.308342 352.745136 
Q 132.308342 354.133136 133.696342 354.133136 
z
" style="fill: #ffffff; opacity: 0.8; stroke: #cccccc; stroke-linejoin: miter"/>
    </g>
    <g id="line2d_14">
     <path d="M 135.084342 347.467483 
L 142.024342 347.467483 
L 148.964342 347.467483 
" style="fill: none; stroke: #1f77b4; stroke-width: 1.5; stroke-linecap: square"/>
    </g>
    <g id="text_16">
     <text style="font: 6.94px 'Arial', sans-serif; text-anchor: start" x="154.516342" y="349.896483" transform="rotate(-0 154.516342 349.896483)">DecisionRight (77 pts)</text>
    </g>
    <g id="line2d_15">
     <path d="M 236.664255 347.467483 
L 243.604255 347.467483 
L 250.544255 347.467483 
" style="fill: none; stroke: #ff7f0e; stroke-width: 1.5; stroke-linecap: square"/>
    </g>
    <g id="text_17">
     <text style="font: 6.94px 'Arial', sans-serif; text-anchor: start" x="256.096255" y="349.896483" transform="rotate(-0 256.096255 349.896483)">DecisionLeft (89 pts)</text>
    </g>
   </g>
  </g>
 </g>
 <defs>
  <clipPath id="pd62e7a813b">
   <rect x="48.851283" y="19.26398" width="357.12" height="266.112"/>
  </clipPath>
 </defs>
</svg>
