<?xml version="1.0" encoding="utf-8" standalone="no"?>
<!DOCTYPE svg PUBLIC "-//W3C//DTD SVG 1.1//EN"
  "http://www.w3.org/Graphics/SVG/1.1/DTD/svg11.dtd">
<svg xmlns:xlink="http://www.w3.org/1999/xlink" width="413.171283pt" height="361.333136pt" viewBox="0 0 413.171283 361.333136" xmlns="http://www.w3.org/2000/svg" version="1.1">
 <metadata>
  <rdf:RDF xmlns:dc="http://purl.org/dc/elements/1.1/" xmlns:cc="http://creativecommons.org/ns#" xmlns:rdf="http://www.w3.org/1999/02/22-rdf-syntax-ns#">
   <cc:Work>
    <dc:type rdf:resource="http://purl.org/dc/dcmitype/StillImage"/>
    <dc:date>2025-12-29T04:07:57.798544</dc:date>
    <dc:format>image/svg+xml</dc:format>
    <dc:creator>
     <cc:Agent>
      <dc:title>Matplotlib v3.8.0, https://matplotlib.org/</dc:title>
     </cc:Agent>
    </dc:creator>
   </cc:Work>
  </rdf:RDF>
 </metadata>
 <defs>
  <style type="text/css">*{stroke-linejoin: round; stroke-linecap: butt}</style>
 </defs>
 <g id="figure_1">
  <g id="patch_1">
   <path d="M 0 361.333136 
L 413.171283 361.333136 
L 413.171283 -0 
L 0 -0 
z
" style="fill: #ffffff"/>
  </g>
  <g id="axes_1">
   <g id="patch_2">
    <path d="M 48.851283 285.37598 
L 405.971283 285.37598 
L 405.971283 19.26398 
L 48.851283 19.26398 
z
" style="fill: #ffffff"/>
   </g>
   <g id="PolyCollection_1">
    <defs>
     <path id="m00a486febd" d="M 48.851283 -271.878257 
L 48.851283 -209.700777 
L 60.011283 -211.068965 
L 71.171283 -209.917006 
L 82.331283 -191.63284 
L 93.491283 -161.901587 
L 104.651283 -135.666859 
L 115.811283 -119.718347 
L 126.971283 -112.803272 
L 138.131283 -111.431055 
L 149.291283 -107.575703 
L 160.451283 -103.043721 
L 171.611283 -102.321777 
L 182.771283 -97.638933 
L 193.931283 -95.120023 
L 205.091283 -92.855619 
L 216.251283 -93.617942 
L 227.411283 -95.923122 
L 238.571283 -97.170938 
L 249.731283 -97.482865 
L 260.891283 -93.887052 
L 272.051283 -92.832166 
L 283.211283 -92.732807 
L 294.371283 -93.959036 
L 305.531283 -96.603791 
L 316.691283 -95.583546 
L 327.851283 -96.847446 
L 339.011283 -96.038512 
L 350.171283 -98.224331 
L 361.331283 -104.817049 
L 372.491283 -105.550946 
L 383.651283 -99.381855 
L 394.811283 -90.899927 
L 405.971283 -88.053156 
L 405.971283 -114.803685 
L 405.971283 -114.803685 
L 394.811283 -119.26872 
L 383.651283 -128.701786 
L 372.491283 -134.440721 
L 361.331283 -133.203822 
L 350.171283 -125.401843 
L 339.011283 -122.39363 
L 327.851283 -122.147608 
L 316.691283 -119.715821 
L 305.531283 -121.089804 
L 294.371283 -118.791278 
L 283.211283 -116.433539 
L 272.051283 -118.84708 
L 260.891283 -120.923101 
L 249.731283 -124.92108 
L 238.571283 -124.018065 
L 227.411283 -123.054524 
L 216.251283 -121.105117 
L 205.091283 -121.137299 
L 193.931283 -122.988773 
L 182.771283 -126.816323 
L 171.611283 -132.740339 
L 160.451283 -136.793005 
L 149.291283 -143.324173 
L 138.131283 -147.779239 
L 126.971283 -147.926102 
L 115.811283 -157.696149 
L 104.651283 -180.744396 
L 93.491283 -215.006951 
L 82.331283 -252.923939 
L 71.171283 -273.613099 
L 60.011283 -273.442641 
L 48.851283 -271.878257 
z
" style="stroke: #1f77b4; stroke-opacity: 0.2"/>
    </defs>
    <g clip-path="url(#p53f69c9543)">
     <use xlink:href="#m00a486febd" x="0" y="361.333136" style="fill: #1f77b4; fill-opacity: 0.2; stroke: #1f77b4; stroke-opacity: 0.2"/>
    </g>
   </g>
   <g id="PolyCollection_2">
    <defs>
     <path id="m5b0a58f5d9" d="M 48.851283 -327.763894 
L 48.851283 -256.639276 
L 60.011283 -257.463125 
L 71.171283 -242.672503 
L 82.331283 -193.719195 
L 93.491283 -151.117703 
L 104.651283 -126.162126 
L 115.811283 -114.122997 
L 126.971283 -111.790794 
L 138.131283 -104.223628 
L 149.291283 -102.040062 
L 160.451283 -102.152059 
L 171.611283 -101.894592 
L 182.771283 -99.050754 
L 193.931283 -96.467259 
L 205.091283 -99.415348 
L 216.251283 -101.321382 
L 227.411283 -101.846324 
L 238.571283 -100.80814 
L 249.731283 -96.842691 
L 260.891283 -107.280517 
L 272.051283 -109.242053 
L 283.211283 -105.073539 
L 294.371283 -107.938266 
L 305.531283 -111.627585 
L 316.691283 -111.796437 
L 327.851283 -110.240526 
L 339.011283 -113.2303 
L 350.171283 -116.459161 
L 361.331283 -128.808689 
L 372.491283 -144.052681 
L 383.651283 -151.901518 
L 394.811283 -150.144392 
L 405.971283 -148.845857 
L 405.971283 -181.828216 
L 405.971283 -181.828216 
L 394.811283 -181.663071 
L 383.651283 -180.902231 
L 372.491283 -169.614378 
L 361.331283 -151.572824 
L 350.171283 -138.587194 
L 339.011283 -134.408519 
L 327.851283 -131.081535 
L 316.691283 -134.598929 
L 305.531283 -136.098595 
L 294.371283 -132.518675 
L 283.211283 -128.278319 
L 272.051283 -132.415107 
L 260.891283 -129.582347 
L 249.731283 -117.3033 
L 238.571283 -120.787674 
L 227.411283 -122.949333 
L 216.251283 -124.591155 
L 205.091283 -122.19715 
L 193.931283 -119.392856 
L 182.771283 -121.497774 
L 171.611283 -125.895831 
L 160.451283 -126.375783 
L 149.291283 -126.231181 
L 138.131283 -129.455392 
L 126.971283 -140.141868 
L 115.811283 -143.12706 
L 104.651283 -159.24909 
L 93.491283 -191.340719 
L 82.331283 -249.100256 
L 71.171283 -312.530583 
L 60.011283 -329.973156 
L 48.851283 -327.763894 
z
" style="stroke: #ff7f0e; stroke-opacity: 0.2"/>
    </defs>
    <g clip-path="url(#p53f69c9543)">
     <use xlink:href="#m5b0a58f5d9" x="0" y="361.333136" style="fill: #ff7f0e; fill-opacity: 0.2; stroke: #ff7f0e; stroke-opacity: 0.2"/>
    </g>
   </g>
   <g id="matplotlib.axis_1">
    <g id="text_1">
     <text style="font: 10px 'Arial', sans-serif; text-anchor: middle" x="227.411283" y="296.533792" transform="rotate(-0 227.411283 296.533792)">Time</text>
    </g>
   </g>
   <g id="matplotlib.axis_2">
    <g id="ytick_1">
     <g id="line2d_1">
      <defs>
       <path id="m2cb8d14bab" d="M 0 0 
L -3.5 0 
" style="stroke: #000000; stroke-width: 0.8"/>
      </defs>
      <g>
       <use xlink:href="#m2cb8d14bab" x="48.851283" y="275.802133" style="stroke: #000000; stroke-width: 0.8"/>
      </g>
     </g>
     <g id="text_2">
      <text style="font: 10px 'Arial', sans-serif; text-anchor: end" x="41.851283" y="279.381039" transform="rotate(-0 41.851283 279.381039)">−0.2</text>
     </g>
    </g>
    <g id="ytick_2">
     <g id="line2d_2">
      <g>
       <use xlink:href="#m2cb8d14bab" x="48.851283" y="245.793661" style="stroke: #000000; stroke-width: 0.8"/>
      </g>
     </g>
     <g id="text_3">
      <text style="font: 10px 'Arial', sans-serif; text-anchor: end" x="41.851283" y="249.372567" transform="rotate(-0 41.851283 249.372567)">0.0</text>
     </g>
    </g>
    <g id="ytick_3">
     <g id="line2d_3">
      <g>
       <use xlink:href="#m2cb8d14bab" x="48.851283" y="215.785189" style="stroke: #000000; stroke-width: 0.8"/>
      </g>
     </g>
     <g id="text_4">
      <text style="font: 10px 'Arial', sans-serif; text-anchor: end" x="41.851283" y="219.364095" transform="rotate(-0 41.851283 219.364095)">0.2</text>
     </g>
    </g>
    <g id="ytick_4">
     <g id="line2d_4">
      <g>
       <use xlink:href="#m2cb8d14bab" x="48.851283" y="185.776717" style="stroke: #000000; stroke-width: 0.8"/>
      </g>
     </g>
     <g id="text_5">
      <text style="font: 10px 'Arial', sans-serif; text-anchor: end" x="41.851283" y="189.355623" transform="rotate(-0 41.851283 189.355623)">0.4</text>
     </g>
    </g>
    <g id="ytick_5">
     <g id="line2d_5">
      <g>
       <use xlink:href="#m2cb8d14bab" x="48.851283" y="155.768245" style="stroke: #000000; stroke-width: 0.8"/>
      </g>
     </g>
     <g id="text_6">
      <text style="font: 10px 'Arial', sans-serif; text-anchor: end" x="41.851283" y="159.347151" transform="rotate(-0 41.851283 159.347151)">0.6</text>
     </g>
    </g>
    <g id="ytick_6">
     <g id="line2d_6">
      <g>
       <use xlink:href="#m2cb8d14bab" x="48.851283" y="125.759773" style="stroke: #000000; stroke-width: 0.8"/>
      </g>
     </g>
     <g id="text_7">
      <text style="font: 10px 'Arial', sans-serif; text-anchor: end" x="41.851283" y="129.338679" transform="rotate(-0 41.851283 129.338679)">0.8</text>
     </g>
    </g>
    <g id="ytick_7">
     <g id="line2d_7">
      <g>
       <use xlink:href="#m2cb8d14bab" x="48.851283" y="95.7513" style="stroke: #000000; stroke-width: 0.8"/>
      </g>
     </g>
     <g id="text_8">
      <text style="font: 10px 'Arial', sans-serif; text-anchor: end" x="41.851283" y="99.330207" transform="rotate(-0 41.851283 99.330207)">1.0</text>
     </g>
    </g>
    <g id="ytick_8">
     <g id="line2d_8">
      <g>
       <use xlink:href="#m2cb8d14bab" x="48.851283" y="65.742828" style="stroke: #000000; stroke-width: 0.8"/>
      </g>
     </g>
     <g id="text_9">
      <text style="font: 10px 'Arial', sans-serif; text-anchor: end" x="41.851283" y="69.321735" transform="rotate(-0 41.851283 69.321735)">1.2</text>
     </g>
    </g>
    <g id="ytick_9">
     <g id="line2d_9">
      <g>
       <use xlink:href="#m2cb8d14bab" x="48.851283" y="35.734356" style="stroke: #000000; stroke-width: 0.8"/>
      </g>
     </g>
     <g id="text_10">
      <text style="font: 10px 'Arial', sans-serif; text-anchor: end" x="41.851283" y="39.313262" transform="rotate(-0 41.851283 39.313262)">1.4</text>
     </g>
    </g>
    <g id="text_11">
     <text style="font: 10px 'Arial', sans-serif; text-anchor: middle" x="16.005971" y="152.31998" transform="rotate(-90 16.005971 152.31998)">Activity</text>
    </g>
   </g>
   <g id="line2d_10">
    <path d="M 48.851283 120.543619 
L 60.011283 119.077333 
L 71.171283 119.568083 
L 82.331283 139.054746 
L 93.491283 172.878864 
L 104.651283 203.127509 
L 115.811283 222.625888 
L 126.971283 230.968449 
L 138.131283 231.727989 
L 149.291283 235.883199 
L 160.451283 241.414774 
L 171.611283 243.802078 
L 182.771283 249.105508 
L 193.931283 252.278738 
L 205.091283 254.336676 
L 216.251283 253.971607 
L 227.411283 251.844313 
L 238.571283 250.738634 
L 249.731283 250.131164 
L 260.891283 253.928059 
L 272.051283 255.493513 
L 283.211283 256.749963 
L 294.371283 254.957979 
L 305.531283 252.486339 
L 316.691283 253.683452 
L 327.851283 251.835608 
L 339.011283 252.117064 
L 350.171283 249.520049 
L 361.331283 242.3227 
L 372.491283 241.337303 
L 383.651283 247.291315 
L 394.811283 256.248813 
L 405.971283 259.904715 
" clip-path="url(#p53f69c9543)" style="fill: none; stroke: #1f77b4; stroke-width: 1.5; stroke-linecap: square"/>
   </g>
   <g id="line2d_11">
    <path d="M 48.851283 69.131551 
L 60.011283 67.614995 
L 71.171283 83.731593 
L 82.331283 139.92341 
L 93.491283 190.103925 
L 104.651283 218.627528 
L 115.811283 232.708107 
L 126.971283 235.366805 
L 138.131283 244.493626 
L 149.291283 247.197515 
L 160.451283 247.069214 
L 171.611283 247.437925 
L 182.771283 251.058872 
L 193.931283 253.403079 
L 205.091283 250.526887 
L 216.251283 248.376868 
L 227.411283 248.935307 
L 238.571283 250.535229 
L 249.731283 254.260141 
L 260.891283 242.901704 
L 272.051283 240.504556 
L 283.211283 244.657206 
L 294.371283 241.104665 
L 305.531283 237.470046 
L 316.691283 238.135453 
L 327.851283 240.672106 
L 339.011283 237.513726 
L 350.171283 233.809959 
L 361.331283 221.142379 
L 372.491283 204.499605 
L 383.651283 194.931261 
L 394.811283 195.429403 
L 405.971283 195.996099 
" clip-path="url(#p53f69c9543)" style="fill: none; stroke: #ff7f0e; stroke-width: 1.5; stroke-linecap: square"/>
   </g>
   <g id="line2d_12">
    <path d="M 82.331283 285.37598 
L 82.331283 19.26398 
" clip-path="url(#p53f69c9543)" style="fill: none; stroke-dasharray: 5.55,2.4; stroke-dashoffset: 0; stroke: #000000; stroke-opacity: 0.5; stroke-width: 1.5"/>
   </g>
   <g id="line2d_13">
    <path d="M 383.651283 285.37598 
L 383.651283 19.26398 
" clip-path="url(#p53f69c9543)" style="fill: none; stroke-dasharray: 5.55,2.4; stroke-dashoffset: 0; stroke: #000000; stroke-opacity: 0.5; stroke-width: 1.5"/>
   </g>
   <g id="patch_3">
    <path d="M 48.851283 285.37598 
L 405.971283 285.37598 
" style="fill: none; stroke: #000000; stroke-width: 0.8; stroke-linejoin: miter; stroke-linecap: square"/>
   </g>
   <g id="text_12">
    <text style="font: 6.94px 'Arial', sans-serif" transform="translate(10.097767 321.385533) rotate(-35)">-0.1s Sampling</text>
   </g>
   <g id="text_13">
    <text style="font: 6.94px 'Arial', sans-serif" transform="translate(57.794497 311.430872) rotate(-35)">Sampling</text>
   </g>
   <g id="text_14">
    <text style="font: 6.94px 'Arial', sans-serif" transform="translate(319.037191 339.456682) rotate(-35)">Movement to Lateral Port</text>
   </g>
   <g id="text_15">
    <text style="font: 8.33px 'Arial', sans-serif; text-anchor: middle" x="227.411283" y="13.26398" transform="rotate(-0 227.411283 13.26398)">GP4_85_s6_L65_D250_ALM - Trace:26_GP4_85_s6_L65_D250_ALM (when: correct)</text>
   </g>
   <g id="legend_1">
    <g id="patch_4">
     <path d="M 133.696342 354.133136 
L 321.126224 354.133136 
Q 322.514224 354.133136 322.514224 352.745136 
L 322.514224 343.45638 
Q 322.514224 342.06838 321.126224 342.06838 
L 133.696342 342.06838 
Q 132.308342 342.06838 132.308342 343.45638 
L 132.308342 352.745136 
Q 132.308342 354.133136 133.696342 354.133136 
z
" style="fill: #ffffff; opacity: 0.8; stroke: #cccccc; stroke-linejoin: miter"/>
    </g>
    <g id="line2d_14">
     <path d="M 135.084342 347.467483 
L 142.024342 347.467483 
L 148.964342 347.467483 
" style="fill: none; stroke: #1f77b4; stroke-width: 1.5; stroke-linecap: square"/>
    </g>
    <g id="text_16">
     <text style="font: 6.94px 'Arial', sans-serif; text-anchor: start" x="154.516342" y="349.896483" transform="rotate(-0 154.516342 349.896483)">DecisionRight (77 pts)</text>
    </g>
    <g id="line2d_15">
     <path d="M 236.664255 347.467483 
L 243.604255 347.467483 
L 250.544255 347.467483 
" style="fill: none; stroke: #ff7f0e; stroke-width: 1.5; stroke-linecap: square"/>
    </g>
    <g id="text_17">
     <text style="font: 6.94px 'Arial', sans-serif; text-anchor: start" x="256.096255" y="349.896483" transform="rotate(-0 256.096255 349.896483)">DecisionLeft (89 pts)</text>
    </g>
   </g>
  </g>
 </g>
 <defs>
  <clipPath id="p53f69c9543">
   <rect x="48.851283" y="19.26398" width="357.12" height="266.112"/>
  </clipPath>
 </defs>
</svg>
