<?xml version="1.0" encoding="utf-8" standalone="no"?>
<!DOCTYPE svg PUBLIC "-//W3C//DTD SVG 1.1//EN"
  "http://www.w3.org/Graphics/SVG/1.1/DTD/svg11.dtd">
<svg xmlns:xlink="http://www.w3.org/1999/xlink" width="413.171283pt" height="361.333136pt" viewBox="0 0 413.171283 361.333136" xmlns="http://www.w3.org/2000/svg" version="1.1">
 <metadata>
  <rdf:RDF xmlns:dc="http://purl.org/dc/elements/1.1/" xmlns:cc="http://creativecommons.org/ns#" xmlns:rdf="http://www.w3.org/1999/02/22-rdf-syntax-ns#">
   <cc:Work>
    <dc:type rdf:resource="http://purl.org/dc/dcmitype/StillImage"/>
    <dc:date>2025-12-29T04:07:55.740376</dc:date>
    <dc:format>image/svg+xml</dc:format>
    <dc:creator>
     <cc:Agent>
      <dc:title>Matplotlib v3.8.0, https://matplotlib.org/</dc:title>
     </cc:Agent>
    </dc:creator>
   </cc:Work>
  </rdf:RDF>
 </metadata>
 <defs>
  <style type="text/css">*{stroke-linejoin: round; stroke-linecap: butt}</style>
 </defs>
 <g id="figure_1">
  <g id="patch_1">
   <path d="M 0 361.333136 
L 413.171283 361.333136 
L 413.171283 -0 
L 0 -0 
z
" style="fill: #ffffff"/>
  </g>
  <g id="axes_1">
   <g id="patch_2">
    <path d="M 48.851283 285.37598 
L 405.971283 285.37598 
L 405.971283 19.26398 
L 48.851283 19.26398 
z
" style="fill: #ffffff"/>
   </g>
   <g id="PolyCollection_1">
    <defs>
     <path id="ma9c89aade1" d="M 48.851283 -329.973156 
L 48.851283 -265.947 
L 60.011283 -250.780099 
L 71.171283 -232.029145 
L 82.331283 -198.594595 
L 93.491283 -172.15315 
L 104.651283 -153.182227 
L 115.811283 -165.885182 
L 126.971283 -152.214576 
L 138.131283 -149.908462 
L 149.291283 -140.639769 
L 160.451283 -130.378727 
L 171.611283 -121.752439 
L 182.771283 -135.06541 
L 193.931283 -122.190472 
L 205.091283 -126.123969 
L 216.251283 -141.205273 
L 227.411283 -124.950597 
L 238.571283 -126.048389 
L 249.731283 -134.199655 
L 260.891283 -126.010147 
L 272.051283 -112.527462 
L 283.211283 -107.186881 
L 294.371283 -104.816898 
L 305.531283 -106.595113 
L 316.691283 -129.791901 
L 327.851283 -148.7919 
L 339.011283 -146.464006 
L 350.171283 -155.785242 
L 361.331283 -173.76477 
L 372.491283 -186.931156 
L 383.651283 -183.772802 
L 394.811283 -158.708116 
L 405.971283 -144.024831 
L 405.971283 -192.3618 
L 405.971283 -192.3618 
L 394.811283 -210.648036 
L 383.651283 -240.32769 
L 372.491283 -248.695822 
L 361.331283 -233.31067 
L 350.171283 -219.239656 
L 339.011283 -205.377208 
L 327.851283 -204.533302 
L 316.691283 -180.638741 
L 305.531283 -157.11433 
L 294.371283 -156.010871 
L 283.211283 -157.748451 
L 272.051283 -160.908767 
L 260.891283 -173.099439 
L 249.731283 -178.31111 
L 238.571283 -170.517951 
L 227.411283 -168.913789 
L 216.251283 -181.857858 
L 205.091283 -167.765955 
L 193.931283 -168.454236 
L 182.771283 -182.094819 
L 171.611283 -169.340449 
L 160.451283 -176.609699 
L 149.291283 -188.650306 
L 138.131283 -194.141607 
L 126.971283 -193.77798 
L 115.811283 -210.115062 
L 104.651283 -203.827873 
L 93.491283 -227.752389 
L 82.331283 -254.043316 
L 71.171283 -286.047881 
L 60.011283 -311.963069 
L 48.851283 -329.973156 
z
" style="stroke: #1f77b4; stroke-opacity: 0.2"/>
    </defs>
    <g clip-path="url(#pf470f3a790)">
     <use xlink:href="#ma9c89aade1" x="0" y="361.333136" style="fill: #1f77b4; fill-opacity: 0.2; stroke: #1f77b4; stroke-opacity: 0.2"/>
    </g>
   </g>
   <g id="PolyCollection_2">
    <defs>
     <path id="m0db5523bb8" d="M 48.851283 -217.778818 
L 48.851283 -187.055939 
L 60.011283 -174.643186 
L 71.171283 -170.222404 
L 82.331283 -170.204585 
L 93.491283 -146.123548 
L 104.651283 -119.003925 
L 115.811283 -95.906737 
L 126.971283 -99.09743 
L 138.131283 -98.421616 
L 149.291283 -94.212975 
L 160.451283 -91.576522 
L 171.611283 -88.053156 
L 182.771283 -102.66107 
L 193.931283 -137.372151 
L 205.091283 -151.70725 
L 216.251283 -165.389752 
L 227.411283 -162.808029 
L 238.571283 -151.955143 
L 249.731283 -155.300511 
L 260.891283 -164.267906 
L 272.051283 -171.368321 
L 283.211283 -167.982083 
L 294.371283 -162.065752 
L 305.531283 -143.257981 
L 316.691283 -130.509453 
L 327.851283 -144.464143 
L 339.011283 -168.076936 
L 350.171283 -168.318395 
L 361.331283 -188.703673 
L 372.491283 -204.836228 
L 383.651283 -228.420548 
L 394.811283 -238.015845 
L 405.971283 -233.690039 
L 405.971283 -318.485916 
L 405.971283 -318.485916 
L 394.811283 -328.04509 
L 383.651283 -317.256911 
L 372.491283 -286.152267 
L 361.331283 -264.284211 
L 350.171283 -243.95105 
L 339.011283 -243.51834 
L 327.851283 -216.218879 
L 316.691283 -201.844563 
L 305.531283 -216.04898 
L 294.371283 -235.639558 
L 283.211283 -239.906117 
L 272.051283 -238.541101 
L 260.891283 -234.742379 
L 249.731283 -225.963304 
L 238.571283 -222.902469 
L 227.411283 -230.483991 
L 216.251283 -226.547553 
L 205.091283 -209.544328 
L 193.931283 -187.490013 
L 182.771283 -145.765734 
L 171.611283 -129.169308 
L 160.451283 -129.183551 
L 149.291283 -130.515229 
L 138.131283 -134.066587 
L 126.971283 -130.700487 
L 115.811283 -124.084755 
L 104.651283 -148.36719 
L 93.491283 -178.040423 
L 82.331283 -205.192127 
L 71.171283 -206.784482 
L 60.011283 -207.237353 
L 48.851283 -217.778818 
z
" style="stroke: #ff7f0e; stroke-opacity: 0.2"/>
    </defs>
    <g clip-path="url(#pf470f3a790)">
     <use xlink:href="#m0db5523bb8" x="0" y="361.333136" style="fill: #ff7f0e; fill-opacity: 0.2; stroke: #ff7f0e; stroke-opacity: 0.2"/>
    </g>
   </g>
   <g id="matplotlib.axis_1">
    <g id="text_1">
     <text style="font: 10px 'Arial', sans-serif; text-anchor: middle" x="227.411283" y="296.533792" transform="rotate(-0 227.411283 296.533792)">Time</text>
    </g>
   </g>
   <g id="matplotlib.axis_2">
    <g id="ytick_1">
     <g id="line2d_1">
      <defs>
       <path id="md2ac4a587e" d="M 0 0 
L -3.5 0 
" style="stroke: #000000; stroke-width: 0.8"/>
      </defs>
      <g>
       <use xlink:href="#md2ac4a587e" x="48.851283" y="250.682596" style="stroke: #000000; stroke-width: 0.8"/>
      </g>
     </g>
     <g id="text_2">
      <text style="font: 10px 'Arial', sans-serif; text-anchor: end" x="41.851283" y="254.261502" transform="rotate(-0 41.851283 254.261502)">−0.2</text>
     </g>
    </g>
    <g id="ytick_2">
     <g id="line2d_2">
      <g>
       <use xlink:href="#md2ac4a587e" x="48.851283" y="193.891106" style="stroke: #000000; stroke-width: 0.8"/>
      </g>
     </g>
     <g id="text_3">
      <text style="font: 10px 'Arial', sans-serif; text-anchor: end" x="41.851283" y="197.470012" transform="rotate(-0 41.851283 197.470012)">0.0</text>
     </g>
    </g>
    <g id="ytick_3">
     <g id="line2d_3">
      <g>
       <use xlink:href="#md2ac4a587e" x="48.851283" y="137.099616" style="stroke: #000000; stroke-width: 0.8"/>
      </g>
     </g>
     <g id="text_4">
      <text style="font: 10px 'Arial', sans-serif; text-anchor: end" x="41.851283" y="140.678523" transform="rotate(-0 41.851283 140.678523)">0.2</text>
     </g>
    </g>
    <g id="ytick_4">
     <g id="line2d_4">
      <g>
       <use xlink:href="#md2ac4a587e" x="48.851283" y="80.308126" style="stroke: #000000; stroke-width: 0.8"/>
      </g>
     </g>
     <g id="text_5">
      <text style="font: 10px 'Arial', sans-serif; text-anchor: end" x="41.851283" y="83.887033" transform="rotate(-0 41.851283 83.887033)">0.4</text>
     </g>
    </g>
    <g id="ytick_5">
     <g id="line2d_5">
      <g>
       <use xlink:href="#md2ac4a587e" x="48.851283" y="23.516637" style="stroke: #000000; stroke-width: 0.8"/>
      </g>
     </g>
     <g id="text_6">
      <text style="font: 10px 'Arial', sans-serif; text-anchor: end" x="41.851283" y="27.095543" transform="rotate(-0 41.851283 27.095543)">0.6</text>
     </g>
    </g>
    <g id="text_7">
     <text style="font: 10px 'Arial', sans-serif; text-anchor: middle" x="16.005971" y="152.31998" transform="rotate(-90 16.005971 152.31998)">Activity</text>
    </g>
   </g>
   <g id="line2d_6">
    <path d="M 48.851283 63.373058 
L 60.011283 79.961556 
L 71.171283 102.294623 
L 82.331283 135.014179 
L 93.491283 161.380366 
L 104.651283 182.828085 
L 115.811283 173.333013 
L 126.971283 188.336858 
L 138.131283 189.308102 
L 149.291283 196.688098 
L 160.451283 207.838923 
L 171.611283 215.786691 
L 182.771283 202.753021 
L 193.931283 216.010782 
L 205.091283 214.388173 
L 216.251283 199.801571 
L 227.411283 214.400943 
L 238.571283 213.049965 
L 249.731283 205.077754 
L 260.891283 211.778344 
L 272.051283 224.61502 
L 283.211283 228.865469 
L 294.371283 230.919251 
L 305.531283 229.478415 
L 316.691283 206.117814 
L 327.851283 184.670535 
L 339.011283 185.412528 
L 350.171283 173.820687 
L 361.331283 157.795416 
L 372.491283 143.519646 
L 383.651283 149.282891 
L 394.811283 176.655059 
L 405.971283 193.139821 
" clip-path="url(#pf470f3a790)" style="fill: none; stroke: #1f77b4; stroke-width: 1.5; stroke-linecap: square"/>
   </g>
   <g id="line2d_7">
    <path d="M 48.851283 158.915757 
L 60.011283 170.392866 
L 71.171283 172.829692 
L 82.331283 173.634781 
L 93.491283 199.251151 
L 104.651283 227.647577 
L 115.811283 251.33739 
L 126.971283 246.434177 
L 138.131283 245.089035 
L 149.291283 248.969032 
L 160.451283 250.953099 
L 171.611283 252.721904 
L 182.771283 237.119733 
L 193.931283 198.902054 
L 205.091283 180.707347 
L 216.251283 165.364483 
L 227.411283 164.687126 
L 238.571283 173.904331 
L 249.731283 170.70123 
L 260.891283 161.827993 
L 272.051283 156.378427 
L 283.211283 157.389034 
L 294.371283 162.480482 
L 305.531283 181.679656 
L 316.691283 195.156129 
L 327.851283 180.991625 
L 339.011283 155.535498 
L 350.171283 155.198412 
L 361.331283 134.839194 
L 372.491283 115.83889 
L 383.651283 88.494404 
L 394.811283 78.302668 
L 405.971283 85.245158 
" clip-path="url(#pf470f3a790)" style="fill: none; stroke: #ff7f0e; stroke-width: 1.5; stroke-linecap: square"/>
   </g>
   <g id="line2d_8">
    <path d="M 82.331283 285.37598 
L 82.331283 19.26398 
" clip-path="url(#pf470f3a790)" style="fill: none; stroke-dasharray: 5.55,2.4; stroke-dashoffset: 0; stroke: #000000; stroke-opacity: 0.5; stroke-width: 1.5"/>
   </g>
   <g id="line2d_9">
    <path d="M 383.651283 285.37598 
L 383.651283 19.26398 
" clip-path="url(#pf470f3a790)" style="fill: none; stroke-dasharray: 5.55,2.4; stroke-dashoffset: 0; stroke: #000000; stroke-opacity: 0.5; stroke-width: 1.5"/>
   </g>
   <g id="patch_3">
    <path d="M 48.851283 285.37598 
L 405.971283 285.37598 
" style="fill: none; stroke: #000000; stroke-width: 0.8; stroke-linejoin: miter; stroke-linecap: square"/>
   </g>
   <g id="text_8">
    <text style="font: 6.94px 'Arial', sans-serif" transform="translate(10.097767 321.385533) rotate(-35)">-0.1s Sampling</text>
   </g>
   <g id="text_9">
    <text style="font: 6.94px 'Arial', sans-serif" transform="translate(57.794497 311.430872) rotate(-35)">Sampling</text>
   </g>
   <g id="text_10">
    <text style="font: 6.94px 'Arial', sans-serif" transform="translate(319.037191 339.456682) rotate(-35)">Movement to Lateral Port</text>
   </g>
   <g id="text_11">
    <text style="font: 8.33px 'Arial', sans-serif; text-anchor: middle" x="227.411283" y="13.26398" transform="rotate(-0 227.411283 13.26398)">GP4_85_s6_L65_D250_ALM - Trace:27_GP4_85_s6_L65_D250_ALM (when: correct)</text>
   </g>
   <g id="legend_1">
    <g id="patch_4">
     <path d="M 133.696342 354.133136 
L 321.126224 354.133136 
Q 322.514224 354.133136 322.514224 352.745136 
L 322.514224 343.45638 
Q 322.514224 342.06838 321.126224 342.06838 
L 133.696342 342.06838 
Q 132.308342 342.06838 132.308342 343.45638 
L 132.308342 352.745136 
Q 132.308342 354.133136 133.696342 354.133136 
z
" style="fill: #ffffff; opacity: 0.8; stroke: #cccccc; stroke-linejoin: miter"/>
    </g>
    <g id="line2d_10">
     <path d="M 135.084342 347.467483 
L 142.024342 347.467483 
L 148.964342 347.467483 
" style="fill: none; stroke: #1f77b4; stroke-width: 1.5; stroke-linecap: square"/>
    </g>
    <g id="text_12">
     <text style="font: 6.94px 'Arial', sans-serif; text-anchor: start" x="154.516342" y="349.896483" transform="rotate(-0 154.516342 349.896483)">DecisionRight (77 pts)</text>
    </g>
    <g id="line2d_11">
     <path d="M 236.664255 347.467483 
L 243.604255 347.467483 
L 250.544255 347.467483 
" style="fill: none; stroke: #ff7f0e; stroke-width: 1.5; stroke-linecap: square"/>
    </g>
    <g id="text_13">
     <text style="font: 6.94px 'Arial', sans-serif; text-anchor: start" x="256.096255" y="349.896483" transform="rotate(-0 256.096255 349.896483)">DecisionLeft (89 pts)</text>
    </g>
   </g>
  </g>
 </g>
 <defs>
  <clipPath id="pf470f3a790">
   <rect x="48.851283" y="19.26398" width="357.12" height="266.112"/>
  </clipPath>
 </defs>
</svg>
