<?xml version="1.0" encoding="utf-8" standalone="no"?>
<!DOCTYPE svg PUBLIC "-//W3C//DTD SVG 1.1//EN"
  "http://www.w3.org/Graphics/SVG/1.1/DTD/svg11.dtd">
<svg xmlns:xlink="http://www.w3.org/1999/xlink" width="413.171283pt" height="361.333136pt" viewBox="0 0 413.171283 361.333136" xmlns="http://www.w3.org/2000/svg" version="1.1">
 <metadata>
  <rdf:RDF xmlns:dc="http://purl.org/dc/elements/1.1/" xmlns:cc="http://creativecommons.org/ns#" xmlns:rdf="http://www.w3.org/1999/02/22-rdf-syntax-ns#">
   <cc:Work>
    <dc:type rdf:resource="http://purl.org/dc/dcmitype/StillImage"/>
    <dc:date>2025-12-29T04:07:56.283452</dc:date>
    <dc:format>image/svg+xml</dc:format>
    <dc:creator>
     <cc:Agent>
      <dc:title>Matplotlib v3.8.0, https://matplotlib.org/</dc:title>
     </cc:Agent>
    </dc:creator>
   </cc:Work>
  </rdf:RDF>
 </metadata>
 <defs>
  <style type="text/css">*{stroke-linejoin: round; stroke-linecap: butt}</style>
 </defs>
 <g id="figure_1">
  <g id="patch_1">
   <path d="M 0 361.333136 
L 413.171283 361.333136 
L 413.171283 -0 
L 0 -0 
z
" style="fill: #ffffff"/>
  </g>
  <g id="axes_1">
   <g id="patch_2">
    <path d="M 48.851283 285.37598 
L 405.971283 285.37598 
L 405.971283 19.26398 
L 48.851283 19.26398 
z
" style="fill: #ffffff"/>
   </g>
   <g id="PolyCollection_1">
    <defs>
     <path id="m76ef75fc3c" d="M 48.851283 -177.802892 
L 48.851283 -128.07044 
L 60.011283 -124.745834 
L 71.171283 -118.299355 
L 82.331283 -106.769665 
L 93.491283 -104.208132 
L 104.651283 -95.063451 
L 115.811283 -89.692432 
L 126.971283 -93.879884 
L 138.131283 -103.604945 
L 149.291283 -93.636016 
L 160.451283 -90.989305 
L 171.611283 -104.055342 
L 182.771283 -106.4272 
L 193.931283 -91.871078 
L 205.091283 -88.053156 
L 216.251283 -96.078416 
L 227.411283 -113.219486 
L 238.571283 -119.462995 
L 249.731283 -119.854908 
L 260.891283 -129.817452 
L 272.051283 -138.514062 
L 283.211283 -147.949258 
L 294.371283 -160.876391 
L 305.531283 -174.8149 
L 316.691283 -189.920279 
L 327.851283 -193.085994 
L 339.011283 -196.033017 
L 350.171283 -202.141562 
L 361.331283 -212.851965 
L 372.491283 -224.216276 
L 383.651283 -230.457361 
L 394.811283 -227.367077 
L 405.971283 -222.685412 
L 405.971283 -317.880589 
L 405.971283 -317.880589 
L 394.811283 -325.850233 
L 383.651283 -329.973156 
L 372.491283 -320.673571 
L 361.331283 -304.351118 
L 350.171283 -283.009878 
L 339.011283 -269.136963 
L 327.851283 -262.833016 
L 316.691283 -259.290772 
L 305.531283 -238.410135 
L 294.371283 -222.050372 
L 283.211283 -208.076077 
L 272.051283 -197.97853 
L 260.891283 -186.411153 
L 249.731283 -173.958333 
L 238.571283 -171.978171 
L 227.411283 -165.688605 
L 216.251283 -148.072131 
L 205.091283 -143.721023 
L 193.931283 -152.327328 
L 182.771283 -169.313649 
L 171.611283 -170.934771 
L 160.451283 -158.969086 
L 149.291283 -161.814706 
L 138.131283 -171.117917 
L 126.971283 -158.079443 
L 115.811283 -147.876901 
L 104.651283 -149.143336 
L 93.491283 -156.031447 
L 82.331283 -160.353331 
L 71.171283 -171.447687 
L 60.011283 -176.267371 
L 48.851283 -177.802892 
z
" style="stroke: #1f77b4; stroke-opacity: 0.2"/>
    </defs>
    <g clip-path="url(#pa4ae253d21)">
     <use xlink:href="#m76ef75fc3c" x="0" y="361.333136" style="fill: #1f77b4; fill-opacity: 0.2; stroke: #1f77b4; stroke-opacity: 0.2"/>
    </g>
   </g>
   <g id="PolyCollection_2">
    <defs>
     <path id="m229651280d" d="M 48.851283 -186.572024 
L 48.851283 -134.414919 
L 60.011283 -131.972261 
L 71.171283 -129.82787 
L 82.331283 -119.695336 
L 93.491283 -113.278826 
L 104.651283 -109.484937 
L 115.811283 -109.533189 
L 126.971283 -118.788555 
L 138.131283 -126.276559 
L 149.291283 -141.588782 
L 160.451283 -151.54389 
L 171.611283 -155.673703 
L 182.771283 -160.908717 
L 193.931283 -166.663338 
L 205.091283 -175.595193 
L 216.251283 -185.890222 
L 227.411283 -190.298563 
L 238.571283 -197.128807 
L 249.731283 -207.137999 
L 260.891283 -213.090569 
L 272.051283 -219.504563 
L 283.211283 -217.401273 
L 294.371283 -210.394253 
L 305.531283 -210.43948 
L 316.691283 -213.930313 
L 327.851283 -211.271343 
L 339.011283 -200.03699 
L 350.171283 -194.499156 
L 361.331283 -192.404963 
L 372.491283 -195.596455 
L 383.651283 -214.507362 
L 394.811283 -228.402212 
L 405.971283 -226.473648 
L 405.971283 -323.8858 
L 405.971283 -323.8858 
L 394.811283 -325.340919 
L 383.651283 -308.980869 
L 372.491283 -284.308185 
L 361.331283 -281.854052 
L 350.171283 -282.186321 
L 339.011283 -284.665657 
L 327.851283 -292.703419 
L 316.691283 -294.557557 
L 305.531283 -289.916171 
L 294.371283 -287.413049 
L 283.211283 -294.796484 
L 272.051283 -296.425569 
L 260.891283 -288.969066 
L 249.731283 -280.361538 
L 238.571283 -266.14919 
L 227.411283 -255.105687 
L 216.251283 -248.957099 
L 205.091283 -237.169637 
L 193.931283 -225.021123 
L 182.771283 -217.042854 
L 171.611283 -213.192289 
L 160.451283 -208.619593 
L 149.291283 -196.38314 
L 138.131283 -179.10419 
L 126.971283 -168.831476 
L 115.811283 -158.503186 
L 104.651283 -158.23837 
L 93.491283 -161.695101 
L 82.331283 -169.977753 
L 71.171283 -183.229955 
L 60.011283 -184.928272 
L 48.851283 -186.572024 
z
" style="stroke: #ff7f0e; stroke-opacity: 0.2"/>
    </defs>
    <g clip-path="url(#pa4ae253d21)">
     <use xlink:href="#m229651280d" x="0" y="361.333136" style="fill: #ff7f0e; fill-opacity: 0.2; stroke: #ff7f0e; stroke-opacity: 0.2"/>
    </g>
   </g>
   <g id="matplotlib.axis_1">
    <g id="text_1">
     <text style="font: 10px 'Arial', sans-serif; text-anchor: middle" x="227.411283" y="296.533792" transform="rotate(-0 227.411283 296.533792)">Time</text>
    </g>
   </g>
   <g id="matplotlib.axis_2">
    <g id="ytick_1">
     <g id="line2d_1">
      <defs>
       <path id="mfe065fcabf" d="M 0 0 
L -3.5 0 
" style="stroke: #000000; stroke-width: 0.8"/>
      </defs>
      <g>
       <use xlink:href="#mfe065fcabf" x="48.851283" y="269.824942" style="stroke: #000000; stroke-width: 0.8"/>
      </g>
     </g>
     <g id="text_2">
      <text style="font: 10px 'Arial', sans-serif; text-anchor: end" x="41.851283" y="273.403848" transform="rotate(-0 41.851283 273.403848)">−0.3</text>
     </g>
    </g>
    <g id="ytick_2">
     <g id="line2d_2">
      <g>
       <use xlink:href="#mfe065fcabf" x="48.851283" y="235.214951" style="stroke: #000000; stroke-width: 0.8"/>
      </g>
     </g>
     <g id="text_3">
      <text style="font: 10px 'Arial', sans-serif; text-anchor: end" x="41.851283" y="238.793857" transform="rotate(-0 41.851283 238.793857)">−0.2</text>
     </g>
    </g>
    <g id="ytick_3">
     <g id="line2d_3">
      <g>
       <use xlink:href="#mfe065fcabf" x="48.851283" y="200.60496" style="stroke: #000000; stroke-width: 0.8"/>
      </g>
     </g>
     <g id="text_4">
      <text style="font: 10px 'Arial', sans-serif; text-anchor: end" x="41.851283" y="204.183866" transform="rotate(-0 41.851283 204.183866)">−0.1</text>
     </g>
    </g>
    <g id="ytick_4">
     <g id="line2d_4">
      <g>
       <use xlink:href="#mfe065fcabf" x="48.851283" y="165.994969" style="stroke: #000000; stroke-width: 0.8"/>
      </g>
     </g>
     <g id="text_5">
      <text style="font: 10px 'Arial', sans-serif; text-anchor: end" x="41.851283" y="169.573875" transform="rotate(-0 41.851283 169.573875)">0.0</text>
     </g>
    </g>
    <g id="ytick_5">
     <g id="line2d_5">
      <g>
       <use xlink:href="#mfe065fcabf" x="48.851283" y="131.384978" style="stroke: #000000; stroke-width: 0.8"/>
      </g>
     </g>
     <g id="text_6">
      <text style="font: 10px 'Arial', sans-serif; text-anchor: end" x="41.851283" y="134.963884" transform="rotate(-0 41.851283 134.963884)">0.1</text>
     </g>
    </g>
    <g id="ytick_6">
     <g id="line2d_6">
      <g>
       <use xlink:href="#mfe065fcabf" x="48.851283" y="96.774987" style="stroke: #000000; stroke-width: 0.8"/>
      </g>
     </g>
     <g id="text_7">
      <text style="font: 10px 'Arial', sans-serif; text-anchor: end" x="41.851283" y="100.353893" transform="rotate(-0 41.851283 100.353893)">0.2</text>
     </g>
    </g>
    <g id="ytick_7">
     <g id="line2d_7">
      <g>
       <use xlink:href="#mfe065fcabf" x="48.851283" y="62.164996" style="stroke: #000000; stroke-width: 0.8"/>
      </g>
     </g>
     <g id="text_8">
      <text style="font: 10px 'Arial', sans-serif; text-anchor: end" x="41.851283" y="65.743902" transform="rotate(-0 41.851283 65.743902)">0.3</text>
     </g>
    </g>
    <g id="ytick_8">
     <g id="line2d_8">
      <g>
       <use xlink:href="#mfe065fcabf" x="48.851283" y="27.555005" style="stroke: #000000; stroke-width: 0.8"/>
      </g>
     </g>
     <g id="text_9">
      <text style="font: 10px 'Arial', sans-serif; text-anchor: end" x="41.851283" y="31.133911" transform="rotate(-0 41.851283 31.133911)">0.4</text>
     </g>
    </g>
    <g id="text_10">
     <text style="font: 10px 'Arial', sans-serif; text-anchor: middle" x="16.005971" y="152.31998" transform="rotate(-90 16.005971 152.31998)">Activity</text>
    </g>
   </g>
   <g id="line2d_9">
    <path d="M 48.851283 208.396468 
L 60.011283 210.826532 
L 71.171283 216.459614 
L 82.331283 227.771641 
L 93.491283 231.213348 
L 104.651283 239.229742 
L 115.811283 242.548469 
L 126.971283 235.353471 
L 138.131283 223.971708 
L 149.291283 233.607775 
L 160.451283 236.353939 
L 171.611283 223.838077 
L 182.771283 223.462709 
L 193.931283 239.233935 
L 205.091283 245.446047 
L 216.251283 239.25786 
L 227.411283 221.879091 
L 238.571283 215.612554 
L 249.731283 214.426517 
L 260.891283 203.218832 
L 272.051283 193.08684 
L 283.211283 183.320469 
L 294.371283 169.869755 
L 305.531283 154.720618 
L 316.691283 136.727611 
L 327.851283 133.373631 
L 339.011283 128.748145 
L 350.171283 118.757416 
L 361.331283 102.731595 
L 372.491283 88.888215 
L 383.651283 81.117875 
L 394.811283 84.724481 
L 405.971283 91.050135 
" clip-path="url(#pa4ae253d21)" style="fill: none; stroke: #1f77b4; stroke-width: 1.5; stroke-linecap: square"/>
   </g>
   <g id="line2d_10">
    <path d="M 48.851283 200.839666 
L 60.011283 202.882871 
L 71.171283 204.804225 
L 82.331283 216.496591 
L 93.491283 223.846174 
L 104.651283 227.471481 
L 115.811283 227.314947 
L 126.971283 217.523119 
L 138.131283 208.642763 
L 149.291283 192.347176 
L 160.451283 181.251395 
L 171.611283 176.90014 
L 182.771283 172.357351 
L 193.931283 165.490904 
L 205.091283 154.950721 
L 216.251283 143.909475 
L 227.411283 138.631012 
L 238.571283 129.694136 
L 249.731283 117.583369 
L 260.891283 110.303317 
L 272.051283 103.368071 
L 283.211283 105.234257 
L 294.371283 112.429482 
L 305.531283 111.155312 
L 316.691283 107.089201 
L 327.851283 109.345758 
L 339.011283 118.98181 
L 350.171283 122.990399 
L 361.331283 124.203628 
L 372.491283 121.380816 
L 383.651283 99.58902 
L 394.811283 84.461568 
L 405.971283 86.153412 
" clip-path="url(#pa4ae253d21)" style="fill: none; stroke: #ff7f0e; stroke-width: 1.5; stroke-linecap: square"/>
   </g>
   <g id="line2d_11">
    <path d="M 82.331283 285.37598 
L 82.331283 19.26398 
" clip-path="url(#pa4ae253d21)" style="fill: none; stroke-dasharray: 5.55,2.4; stroke-dashoffset: 0; stroke: #000000; stroke-opacity: 0.5; stroke-width: 1.5"/>
   </g>
   <g id="line2d_12">
    <path d="M 383.651283 285.37598 
L 383.651283 19.26398 
" clip-path="url(#pa4ae253d21)" style="fill: none; stroke-dasharray: 5.55,2.4; stroke-dashoffset: 0; stroke: #000000; stroke-opacity: 0.5; stroke-width: 1.5"/>
   </g>
   <g id="patch_3">
    <path d="M 48.851283 285.37598 
L 405.971283 285.37598 
" style="fill: none; stroke: #000000; stroke-width: 0.8; stroke-linejoin: miter; stroke-linecap: square"/>
   </g>
   <g id="text_11">
    <text style="font: 6.94px 'Arial', sans-serif" transform="translate(10.097767 321.385533) rotate(-35)">-0.1s Sampling</text>
   </g>
   <g id="text_12">
    <text style="font: 6.94px 'Arial', sans-serif" transform="translate(57.794497 311.430872) rotate(-35)">Sampling</text>
   </g>
   <g id="text_13">
    <text style="font: 6.94px 'Arial', sans-serif" transform="translate(319.037191 339.456682) rotate(-35)">Movement to Lateral Port</text>
   </g>
   <g id="text_14">
    <text style="font: 8.33px 'Arial', sans-serif; text-anchor: middle" x="227.411283" y="13.26398" transform="rotate(-0 227.411283 13.26398)">GP4_85_s6_L65_D250_ALM - Trace:5_GP4_85_s6_L65_D250_ALM (when: correct)</text>
   </g>
   <g id="legend_1">
    <g id="patch_4">
     <path d="M 133.696342 354.133136 
L 321.126224 354.133136 
Q 322.514224 354.133136 322.514224 352.745136 
L 322.514224 343.45638 
Q 322.514224 342.06838 321.126224 342.06838 
L 133.696342 342.06838 
Q 132.308342 342.06838 132.308342 343.45638 
L 132.308342 352.745136 
Q 132.308342 354.133136 133.696342 354.133136 
z
" style="fill: #ffffff; opacity: 0.8; stroke: #cccccc; stroke-linejoin: miter"/>
    </g>
    <g id="line2d_13">
     <path d="M 135.084342 347.467483 
L 142.024342 347.467483 
L 148.964342 347.467483 
" style="fill: none; stroke: #1f77b4; stroke-width: 1.5; stroke-linecap: square"/>
    </g>
    <g id="text_15">
     <text style="font: 6.94px 'Arial', sans-serif; text-anchor: start" x="154.516342" y="349.896483" transform="rotate(-0 154.516342 349.896483)">DecisionRight (77 pts)</text>
    </g>
    <g id="line2d_14">
     <path d="M 236.664255 347.467483 
L 243.604255 347.467483 
L 250.544255 347.467483 
" style="fill: none; stroke: #ff7f0e; stroke-width: 1.5; stroke-linecap: square"/>
    </g>
    <g id="text_16">
     <text style="font: 6.94px 'Arial', sans-serif; text-anchor: start" x="256.096255" y="349.896483" transform="rotate(-0 256.096255 349.896483)">DecisionLeft (89 pts)</text>
    </g>
   </g>
  </g>
 </g>
 <defs>
  <clipPath id="pa4ae253d21">
   <rect x="48.851283" y="19.26398" width="357.12" height="266.112"/>
  </clipPath>
 </defs>
</svg>
