<?xml version="1.0" encoding="utf-8" standalone="no"?>
<!DOCTYPE svg PUBLIC "-//W3C//DTD SVG 1.1//EN"
  "http://www.w3.org/Graphics/SVG/1.1/DTD/svg11.dtd">
<svg xmlns:xlink="http://www.w3.org/1999/xlink" width="413.171283pt" height="361.333136pt" viewBox="0 0 413.171283 361.333136" xmlns="http://www.w3.org/2000/svg" version="1.1">
 <metadata>
  <rdf:RDF xmlns:dc="http://purl.org/dc/elements/1.1/" xmlns:cc="http://creativecommons.org/ns#" xmlns:rdf="http://www.w3.org/1999/02/22-rdf-syntax-ns#">
   <cc:Work>
    <dc:type rdf:resource="http://purl.org/dc/dcmitype/StillImage"/>
    <dc:date>2025-12-29T04:07:57.404269</dc:date>
    <dc:format>image/svg+xml</dc:format>
    <dc:creator>
     <cc:Agent>
      <dc:title>Matplotlib v3.8.0, https://matplotlib.org/</dc:title>
     </cc:Agent>
    </dc:creator>
   </cc:Work>
  </rdf:RDF>
 </metadata>
 <defs>
  <style type="text/css">*{stroke-linejoin: round; stroke-linecap: butt}</style>
 </defs>
 <g id="figure_1">
  <g id="patch_1">
   <path d="M 0 361.333136 
L 413.171283 361.333136 
L 413.171283 -0 
L 0 -0 
z
" style="fill: #ffffff"/>
  </g>
  <g id="axes_1">
   <g id="patch_2">
    <path d="M 48.851283 285.37598 
L 405.971283 285.37598 
L 405.971283 19.26398 
L 48.851283 19.26398 
z
" style="fill: #ffffff"/>
   </g>
   <g id="PolyCollection_1">
    <defs>
     <path id="mf94265b664" d="M 48.851283 -131.916615 
L 48.851283 -112.806006 
L 60.011283 -109.715151 
L 71.171283 -107.963455 
L 82.331283 -105.215867 
L 93.491283 -98.983531 
L 104.651283 -94.394659 
L 115.811283 -95.941826 
L 126.971283 -100.34542 
L 138.131283 -111.21726 
L 149.291283 -123.238336 
L 160.451283 -139.928348 
L 171.611283 -154.921441 
L 182.771283 -169.506598 
L 193.931283 -181.08362 
L 205.091283 -186.745358 
L 216.251283 -187.29328 
L 227.411283 -191.148726 
L 238.571283 -197.45321 
L 249.731283 -210.316561 
L 260.891283 -222.587852 
L 272.051283 -227.366714 
L 283.211283 -230.2209 
L 294.371283 -234.339572 
L 305.531283 -236.305529 
L 316.691283 -244.483168 
L 327.851283 -252.117616 
L 339.011283 -258.90086 
L 350.171283 -258.768435 
L 361.331283 -260.060093 
L 372.491283 -256.967228 
L 383.651283 -258.037891 
L 394.811283 -265.073134 
L 405.971283 -274.43716 
L 405.971283 -329.973156 
L 405.971283 -329.973156 
L 394.811283 -316.944512 
L 383.651283 -307.00745 
L 372.491283 -306.969546 
L 361.331283 -312.011135 
L 350.171283 -311.324123 
L 339.011283 -311.881685 
L 327.851283 -304.396104 
L 316.691283 -295.83569 
L 305.531283 -287.473086 
L 294.371283 -284.870391 
L 283.211283 -278.970649 
L 272.051283 -276.591885 
L 260.891283 -270.967758 
L 249.731283 -254.031322 
L 238.571283 -237.658213 
L 227.411283 -230.267456 
L 216.251283 -225.87361 
L 205.091283 -224.199259 
L 193.931283 -217.597609 
L 182.771283 -207.384062 
L 171.611283 -192.724534 
L 160.451283 -176.390954 
L 149.291283 -155.283981 
L 138.131283 -139.822515 
L 126.971283 -125.361239 
L 115.811283 -117.358804 
L 104.651283 -114.53917 
L 93.491283 -118.843758 
L 82.331283 -125.841114 
L 71.171283 -128.383315 
L 60.011283 -129.365795 
L 48.851283 -131.916615 
z
" style="stroke: #1f77b4; stroke-opacity: 0.2"/>
    </defs>
    <g clip-path="url(#pcc0b7cb04d)">
     <use xlink:href="#mf94265b664" x="0" y="361.333136" style="fill: #1f77b4; fill-opacity: 0.2; stroke: #1f77b4; stroke-opacity: 0.2"/>
    </g>
   </g>
   <g id="PolyCollection_2">
    <defs>
     <path id="m188ac987c4" d="M 48.851283 -127.297776 
L 48.851283 -106.803664 
L 60.011283 -107.974632 
L 71.171283 -110.724681 
L 82.331283 -97.643252 
L 93.491283 -88.053156 
L 104.651283 -88.586619 
L 115.811283 -89.334504 
L 126.971283 -95.87393 
L 138.131283 -107.543573 
L 149.291283 -115.125315 
L 160.451283 -120.290912 
L 171.611283 -127.132249 
L 182.771283 -138.806535 
L 193.931283 -155.070717 
L 205.091283 -166.083642 
L 216.251283 -177.23886 
L 227.411283 -186.285541 
L 238.571283 -187.465542 
L 249.731283 -194.661787 
L 260.891283 -204.289919 
L 272.051283 -212.296392 
L 283.211283 -223.980803 
L 294.371283 -232.849271 
L 305.531283 -233.177363 
L 316.691283 -234.816471 
L 327.851283 -241.460836 
L 339.011283 -244.681751 
L 350.171283 -242.90967 
L 361.331283 -234.786519 
L 372.491283 -226.760923 
L 383.651283 -227.684672 
L 394.811283 -233.608142 
L 405.971283 -238.418499 
L 405.971283 -280.643483 
L 405.971283 -280.643483 
L 394.811283 -274.946209 
L 383.651283 -269.106127 
L 372.491283 -270.877083 
L 361.331283 -281.141483 
L 350.171283 -291.777055 
L 339.011283 -295.234948 
L 327.851283 -292.118712 
L 316.691283 -284.602918 
L 305.531283 -282.896712 
L 294.371283 -282.017057 
L 283.211283 -270.617215 
L 272.051283 -256.530718 
L 260.891283 -246.902527 
L 249.731283 -235.47911 
L 238.571283 -226.492697 
L 227.411283 -224.880374 
L 216.251283 -215.78478 
L 205.091283 -204.384939 
L 193.931283 -191.835582 
L 182.771283 -173.52709 
L 171.611283 -161.207373 
L 160.451283 -152.602758 
L 149.291283 -144.825417 
L 138.131283 -135.42032 
L 126.971283 -119.614161 
L 115.811283 -109.90845 
L 104.651283 -107.904842 
L 93.491283 -107.445221 
L 82.331283 -116.246502 
L 71.171283 -128.468267 
L 60.011283 -127.052076 
L 48.851283 -127.297776 
z
" style="stroke: #ff7f0e; stroke-opacity: 0.2"/>
    </defs>
    <g clip-path="url(#pcc0b7cb04d)">
     <use xlink:href="#m188ac987c4" x="0" y="361.333136" style="fill: #ff7f0e; fill-opacity: 0.2; stroke: #ff7f0e; stroke-opacity: 0.2"/>
    </g>
   </g>
   <g id="matplotlib.axis_1">
    <g id="text_1">
     <text style="font: 10px 'Arial', sans-serif; text-anchor: middle" x="227.411283" y="296.533792" transform="rotate(-0 227.411283 296.533792)">Time</text>
    </g>
   </g>
   <g id="matplotlib.axis_2">
    <g id="ytick_1">
     <g id="line2d_1">
      <defs>
       <path id="m2bb6a99638" d="M 0 0 
L -3.5 0 
" style="stroke: #000000; stroke-width: 0.8"/>
      </defs>
      <g>
       <use xlink:href="#m2bb6a99638" x="48.851283" y="269.078311" style="stroke: #000000; stroke-width: 0.8"/>
      </g>
     </g>
     <g id="text_2">
      <text style="font: 10px 'Arial', sans-serif; text-anchor: end" x="41.851283" y="272.657217" transform="rotate(-0 41.851283 272.657217)">−0.4</text>
     </g>
    </g>
    <g id="ytick_2">
     <g id="line2d_2">
      <g>
       <use xlink:href="#m2bb6a99638" x="48.851283" y="236.239342" style="stroke: #000000; stroke-width: 0.8"/>
      </g>
     </g>
     <g id="text_3">
      <text style="font: 10px 'Arial', sans-serif; text-anchor: end" x="41.851283" y="239.818248" transform="rotate(-0 41.851283 239.818248)">−0.2</text>
     </g>
    </g>
    <g id="ytick_3">
     <g id="line2d_3">
      <g>
       <use xlink:href="#m2bb6a99638" x="48.851283" y="203.400373" style="stroke: #000000; stroke-width: 0.8"/>
      </g>
     </g>
     <g id="text_4">
      <text style="font: 10px 'Arial', sans-serif; text-anchor: end" x="41.851283" y="206.979279" transform="rotate(-0 41.851283 206.979279)">0.0</text>
     </g>
    </g>
    <g id="ytick_4">
     <g id="line2d_4">
      <g>
       <use xlink:href="#m2bb6a99638" x="48.851283" y="170.561404" style="stroke: #000000; stroke-width: 0.8"/>
      </g>
     </g>
     <g id="text_5">
      <text style="font: 10px 'Arial', sans-serif; text-anchor: end" x="41.851283" y="174.14031" transform="rotate(-0 41.851283 174.14031)">0.2</text>
     </g>
    </g>
    <g id="ytick_5">
     <g id="line2d_5">
      <g>
       <use xlink:href="#m2bb6a99638" x="48.851283" y="137.722435" style="stroke: #000000; stroke-width: 0.8"/>
      </g>
     </g>
     <g id="text_6">
      <text style="font: 10px 'Arial', sans-serif; text-anchor: end" x="41.851283" y="141.301341" transform="rotate(-0 41.851283 141.301341)">0.4</text>
     </g>
    </g>
    <g id="ytick_6">
     <g id="line2d_6">
      <g>
       <use xlink:href="#m2bb6a99638" x="48.851283" y="104.883466" style="stroke: #000000; stroke-width: 0.8"/>
      </g>
     </g>
     <g id="text_7">
      <text style="font: 10px 'Arial', sans-serif; text-anchor: end" x="41.851283" y="108.462373" transform="rotate(-0 41.851283 108.462373)">0.6</text>
     </g>
    </g>
    <g id="ytick_7">
     <g id="line2d_7">
      <g>
       <use xlink:href="#m2bb6a99638" x="48.851283" y="72.044497" style="stroke: #000000; stroke-width: 0.8"/>
      </g>
     </g>
     <g id="text_8">
      <text style="font: 10px 'Arial', sans-serif; text-anchor: end" x="41.851283" y="75.623404" transform="rotate(-0 41.851283 75.623404)">0.8</text>
     </g>
    </g>
    <g id="ytick_8">
     <g id="line2d_8">
      <g>
       <use xlink:href="#m2bb6a99638" x="48.851283" y="39.205529" style="stroke: #000000; stroke-width: 0.8"/>
      </g>
     </g>
     <g id="text_9">
      <text style="font: 10px 'Arial', sans-serif; text-anchor: end" x="41.851283" y="42.784435" transform="rotate(-0 41.851283 42.784435)">1.0</text>
     </g>
    </g>
    <g id="text_10">
     <text style="font: 10px 'Arial', sans-serif; text-anchor: middle" x="16.005971" y="152.31998" transform="rotate(-90 16.005971 152.31998)">Activity</text>
    </g>
   </g>
   <g id="line2d_9">
    <path d="M 48.851283 238.971825 
L 60.011283 241.792664 
L 71.171283 243.159752 
L 82.331283 245.804645 
L 93.491283 252.419492 
L 104.651283 256.866222 
L 115.811283 254.682821 
L 126.971283 248.479806 
L 138.131283 235.813248 
L 149.291283 222.071977 
L 160.451283 203.173485 
L 171.611283 187.510148 
L 182.771283 172.887806 
L 193.931283 161.992521 
L 205.091283 155.860828 
L 216.251283 154.749691 
L 227.411283 150.625045 
L 238.571283 143.777424 
L 249.731283 129.159197 
L 260.891283 114.555331 
L 272.051283 109.353836 
L 283.211283 106.737361 
L 294.371283 101.728157 
L 305.531283 99.443826 
L 316.691283 91.173707 
L 327.851283 83.076276 
L 339.011283 75.941863 
L 350.171283 76.286857 
L 361.331283 75.297522 
L 372.491283 79.364749 
L 383.651283 78.810465 
L 394.811283 70.324313 
L 405.971283 59.127978 
" clip-path="url(#pcc0b7cb04d)" style="fill: none; stroke: #1f77b4; stroke-width: 1.5; stroke-linecap: square"/>
   </g>
   <g id="line2d_10">
    <path d="M 48.851283 244.282418 
L 60.011283 243.819782 
L 71.171283 241.736662 
L 82.331283 254.388259 
L 93.491283 263.583947 
L 104.651283 263.087405 
L 115.811283 261.711659 
L 126.971283 253.58909 
L 138.131283 239.851188 
L 149.291283 231.35777 
L 160.451283 224.886301 
L 171.611283 217.163325 
L 182.771283 205.166323 
L 193.931283 187.879986 
L 205.091283 176.098844 
L 216.251283 164.821315 
L 227.411283 155.750178 
L 238.571283 154.354017 
L 249.731283 146.262688 
L 260.891283 135.736913 
L 272.051283 126.919581 
L 283.211283 114.034127 
L 294.371283 103.89997 
L 305.531283 103.296096 
L 316.691283 101.623439 
L 327.851283 94.543362 
L 339.011283 91.374786 
L 350.171283 93.989773 
L 361.331283 103.369135 
L 372.491283 112.514133 
L 383.651283 112.937734 
L 394.811283 107.05596 
L 405.971283 101.802145 
" clip-path="url(#pcc0b7cb04d)" style="fill: none; stroke: #ff7f0e; stroke-width: 1.5; stroke-linecap: square"/>
   </g>
   <g id="line2d_11">
    <path d="M 82.331283 285.37598 
L 82.331283 19.26398 
" clip-path="url(#pcc0b7cb04d)" style="fill: none; stroke-dasharray: 5.55,2.4; stroke-dashoffset: 0; stroke: #000000; stroke-opacity: 0.5; stroke-width: 1.5"/>
   </g>
   <g id="line2d_12">
    <path d="M 383.651283 285.37598 
L 383.651283 19.26398 
" clip-path="url(#pcc0b7cb04d)" style="fill: none; stroke-dasharray: 5.55,2.4; stroke-dashoffset: 0; stroke: #000000; stroke-opacity: 0.5; stroke-width: 1.5"/>
   </g>
   <g id="patch_3">
    <path d="M 48.851283 285.37598 
L 405.971283 285.37598 
" style="fill: none; stroke: #000000; stroke-width: 0.8; stroke-linejoin: miter; stroke-linecap: square"/>
   </g>
   <g id="text_11">
    <text style="font: 6.94px 'Arial', sans-serif" transform="translate(10.097767 321.385533) rotate(-35)">-0.1s Sampling</text>
   </g>
   <g id="text_12">
    <text style="font: 6.94px 'Arial', sans-serif" transform="translate(57.794497 311.430872) rotate(-35)">Sampling</text>
   </g>
   <g id="text_13">
    <text style="font: 6.94px 'Arial', sans-serif" transform="translate(319.037191 339.456682) rotate(-35)">Movement to Lateral Port</text>
   </g>
   <g id="text_14">
    <text style="font: 8.33px 'Arial', sans-serif; text-anchor: middle" x="227.411283" y="13.26398" transform="rotate(-0 227.411283 13.26398)">GP4_85_s6_L65_D250_ALM - Trace:78_GP4_85_s6_L65_D250_ALM (when: correct)</text>
   </g>
   <g id="legend_1">
    <g id="patch_4">
     <path d="M 133.696342 354.133136 
L 321.126224 354.133136 
Q 322.514224 354.133136 322.514224 352.745136 
L 322.514224 343.45638 
Q 322.514224 342.06838 321.126224 342.06838 
L 133.696342 342.06838 
Q 132.308342 342.06838 132.308342 343.45638 
L 132.308342 352.745136 
Q 132.308342 354.133136 133.696342 354.133136 
z
" style="fill: #ffffff; opacity: 0.8; stroke: #cccccc; stroke-linejoin: miter"/>
    </g>
    <g id="line2d_13">
     <path d="M 135.084342 347.467483 
L 142.024342 347.467483 
L 148.964342 347.467483 
" style="fill: none; stroke: #1f77b4; stroke-width: 1.5; stroke-linecap: square"/>
    </g>
    <g id="text_15">
     <text style="font: 6.94px 'Arial', sans-serif; text-anchor: start" x="154.516342" y="349.896483" transform="rotate(-0 154.516342 349.896483)">DecisionRight (77 pts)</text>
    </g>
    <g id="line2d_14">
     <path d="M 236.664255 347.467483 
L 243.604255 347.467483 
L 250.544255 347.467483 
" style="fill: none; stroke: #ff7f0e; stroke-width: 1.5; stroke-linecap: square"/>
    </g>
    <g id="text_16">
     <text style="font: 6.94px 'Arial', sans-serif; text-anchor: start" x="256.096255" y="349.896483" transform="rotate(-0 256.096255 349.896483)">DecisionLeft (89 pts)</text>
    </g>
   </g>
  </g>
 </g>
 <defs>
  <clipPath id="pcc0b7cb04d">
   <rect x="48.851283" y="19.26398" width="357.12" height="266.112"/>
  </clipPath>
 </defs>
</svg>
