<?xml version="1.0" encoding="utf-8" standalone="no"?>
<!DOCTYPE svg PUBLIC "-//W3C//DTD SVG 1.1//EN"
  "http://www.w3.org/Graphics/SVG/1.1/DTD/svg11.dtd">
<svg xmlns:xlink="http://www.w3.org/1999/xlink" width="413.171283pt" height="361.333136pt" viewBox="0 0 413.171283 361.333136" xmlns="http://www.w3.org/2000/svg" version="1.1">
 <metadata>
  <rdf:RDF xmlns:dc="http://purl.org/dc/elements/1.1/" xmlns:cc="http://creativecommons.org/ns#" xmlns:rdf="http://www.w3.org/1999/02/22-rdf-syntax-ns#">
   <cc:Work>
    <dc:type rdf:resource="http://purl.org/dc/dcmitype/StillImage"/>
    <dc:date>2025-12-29T04:07:57.100791</dc:date>
    <dc:format>image/svg+xml</dc:format>
    <dc:creator>
     <cc:Agent>
      <dc:title>Matplotlib v3.8.0, https://matplotlib.org/</dc:title>
     </cc:Agent>
    </dc:creator>
   </cc:Work>
  </rdf:RDF>
 </metadata>
 <defs>
  <style type="text/css">*{stroke-linejoin: round; stroke-linecap: butt}</style>
 </defs>
 <g id="figure_1">
  <g id="patch_1">
   <path d="M 0 361.333136 
L 413.171283 361.333136 
L 413.171283 -0 
L 0 -0 
z
" style="fill: #ffffff"/>
  </g>
  <g id="axes_1">
   <g id="patch_2">
    <path d="M 48.851283 285.37598 
L 405.971283 285.37598 
L 405.971283 19.26398 
L 48.851283 19.26398 
z
" style="fill: #ffffff"/>
   </g>
   <g id="PolyCollection_1">
    <defs>
     <path id="mef78959419" d="M 48.851283 -329.973156 
L 48.851283 -262.02398 
L 60.011283 -260.201172 
L 71.171283 -253.011334 
L 82.331283 -231.72016 
L 93.491283 -215.570859 
L 104.651283 -204.294095 
L 115.811283 -195.695441 
L 126.971283 -186.995866 
L 138.131283 -178.361773 
L 149.291283 -166.158051 
L 160.451283 -153.010651 
L 171.611283 -151.875837 
L 182.771283 -145.907866 
L 193.931283 -139.608206 
L 205.091283 -138.12991 
L 216.251283 -136.997352 
L 227.411283 -133.51162 
L 238.571283 -130.317761 
L 249.731283 -130.524722 
L 260.891283 -134.584354 
L 272.051283 -138.188736 
L 283.211283 -139.81468 
L 294.371283 -137.510038 
L 305.531283 -137.557963 
L 316.691283 -133.306902 
L 327.851283 -131.724725 
L 339.011283 -136.420703 
L 350.171283 -139.828298 
L 361.331283 -130.105984 
L 372.491283 -125.056122 
L 383.651283 -122.230604 
L 394.811283 -117.471124 
L 405.971283 -113.391668 
L 405.971283 -135.804225 
L 405.971283 -135.804225 
L 394.811283 -143.025008 
L 383.651283 -150.426316 
L 372.491283 -153.659215 
L 361.331283 -157.981677 
L 350.171283 -165.861629 
L 339.011283 -162.039578 
L 327.851283 -157.254988 
L 316.691283 -159.122185 
L 305.531283 -163.644192 
L 294.371283 -163.634372 
L 283.211283 -165.596891 
L 272.051283 -163.74068 
L 260.891283 -159.851648 
L 249.731283 -155.493126 
L 238.571283 -155.110228 
L 227.411283 -158.243296 
L 216.251283 -162.071205 
L 205.091283 -163.510846 
L 193.931283 -165.703825 
L 182.771283 -173.510944 
L 171.611283 -181.515175 
L 160.451283 -185.002789 
L 149.291283 -200.026859 
L 138.131283 -214.827667 
L 126.971283 -226.880692 
L 115.811283 -239.758339 
L 104.651283 -253.711966 
L 93.491283 -271.863907 
L 82.331283 -291.909431 
L 71.171283 -318.936101 
L 60.011283 -328.056584 
L 48.851283 -329.973156 
z
" style="stroke: #1f77b4; stroke-opacity: 0.2"/>
    </defs>
    <g clip-path="url(#p0a80f81b01)">
     <use xlink:href="#mef78959419" x="0" y="361.333136" style="fill: #1f77b4; fill-opacity: 0.2; stroke: #1f77b4; stroke-opacity: 0.2"/>
    </g>
   </g>
   <g id="PolyCollection_2">
    <defs>
     <path id="m5fd390d3a5" d="M 48.851283 -243.344964 
L 48.851283 -193.20871 
L 60.011283 -180.749856 
L 71.171283 -177.142725 
L 82.331283 -175.881854 
L 93.491283 -167.914039 
L 104.651283 -158.910108 
L 115.811283 -149.213109 
L 126.971283 -139.418098 
L 138.131283 -135.692646 
L 149.291283 -133.133503 
L 160.451283 -129.818731 
L 171.611283 -127.365795 
L 182.771283 -122.761641 
L 193.931283 -116.940056 
L 205.091283 -116.778877 
L 216.251283 -121.143659 
L 227.411283 -123.039264 
L 238.571283 -122.307383 
L 249.731283 -117.985674 
L 260.891283 -114.811587 
L 272.051283 -110.415841 
L 283.211283 -107.830271 
L 294.371283 -102.675225 
L 305.531283 -100.224065 
L 316.691283 -102.398967 
L 327.851283 -105.907929 
L 339.011283 -107.055672 
L 350.171283 -107.128381 
L 361.331283 -104.393184 
L 372.491283 -99.506984 
L 383.651283 -93.04952 
L 394.811283 -88.968371 
L 405.971283 -88.053156 
L 405.971283 -103.208132 
L 405.971283 -103.208132 
L 394.811283 -104.987862 
L 383.651283 -110.290177 
L 372.491283 -116.369145 
L 361.331283 -120.296427 
L 350.171283 -122.716079 
L 339.011283 -122.584235 
L 327.851283 -121.310272 
L 316.691283 -118.697845 
L 305.531283 -117.304176 
L 294.371283 -120.971712 
L 283.211283 -127.513147 
L 272.051283 -131.074609 
L 260.891283 -135.687989 
L 249.731283 -138.320593 
L 238.571283 -140.870681 
L 227.411283 -141.323504 
L 216.251283 -139.464222 
L 205.091283 -134.80365 
L 193.931283 -136.011571 
L 182.771283 -144.34998 
L 171.611283 -150.319783 
L 160.451283 -152.801775 
L 149.291283 -156.652414 
L 138.131283 -161.413345 
L 126.971283 -166.593946 
L 115.811283 -180.076602 
L 104.651283 -194.164664 
L 93.491283 -208.736556 
L 82.331283 -221.184672 
L 71.171283 -225.506228 
L 60.011283 -230.461866 
L 48.851283 -243.344964 
z
" style="stroke: #ff7f0e; stroke-opacity: 0.2"/>
    </defs>
    <g clip-path="url(#p0a80f81b01)">
     <use xlink:href="#m5fd390d3a5" x="0" y="361.333136" style="fill: #ff7f0e; fill-opacity: 0.2; stroke: #ff7f0e; stroke-opacity: 0.2"/>
    </g>
   </g>
   <g id="matplotlib.axis_1">
    <g id="text_1">
     <text style="font: 10px 'Arial', sans-serif; text-anchor: middle" x="227.411283" y="296.533792" transform="rotate(-0 227.411283 296.533792)">Time</text>
    </g>
   </g>
   <g id="matplotlib.axis_2">
    <g id="ytick_1">
     <g id="line2d_1">
      <defs>
       <path id="m24ab5e2e52" d="M 0 0 
L -3.5 0 
" style="stroke: #000000; stroke-width: 0.8"/>
      </defs>
      <g>
       <use xlink:href="#m24ab5e2e52" x="48.851283" y="243.747513" style="stroke: #000000; stroke-width: 0.8"/>
      </g>
     </g>
     <g id="text_2">
      <text style="font: 10px 'Arial', sans-serif; text-anchor: end" x="41.851283" y="247.326419" transform="rotate(-0 41.851283 247.326419)">−0.4</text>
     </g>
    </g>
    <g id="ytick_2">
     <g id="line2d_2">
      <g>
       <use xlink:href="#m24ab5e2e52" x="48.851283" y="201.33987" style="stroke: #000000; stroke-width: 0.8"/>
      </g>
     </g>
     <g id="text_3">
      <text style="font: 10px 'Arial', sans-serif; text-anchor: end" x="41.851283" y="204.918776" transform="rotate(-0 41.851283 204.918776)">−0.2</text>
     </g>
    </g>
    <g id="ytick_3">
     <g id="line2d_3">
      <g>
       <use xlink:href="#m24ab5e2e52" x="48.851283" y="158.932227" style="stroke: #000000; stroke-width: 0.8"/>
      </g>
     </g>
     <g id="text_4">
      <text style="font: 10px 'Arial', sans-serif; text-anchor: end" x="41.851283" y="162.511134" transform="rotate(-0 41.851283 162.511134)">0.0</text>
     </g>
    </g>
    <g id="ytick_4">
     <g id="line2d_4">
      <g>
       <use xlink:href="#m24ab5e2e52" x="48.851283" y="116.524585" style="stroke: #000000; stroke-width: 0.8"/>
      </g>
     </g>
     <g id="text_5">
      <text style="font: 10px 'Arial', sans-serif; text-anchor: end" x="41.851283" y="120.103491" transform="rotate(-0 41.851283 120.103491)">0.2</text>
     </g>
    </g>
    <g id="ytick_5">
     <g id="line2d_5">
      <g>
       <use xlink:href="#m24ab5e2e52" x="48.851283" y="74.116942" style="stroke: #000000; stroke-width: 0.8"/>
      </g>
     </g>
     <g id="text_6">
      <text style="font: 10px 'Arial', sans-serif; text-anchor: end" x="41.851283" y="77.695848" transform="rotate(-0 41.851283 77.695848)">0.4</text>
     </g>
    </g>
    <g id="ytick_6">
     <g id="line2d_6">
      <g>
       <use xlink:href="#m24ab5e2e52" x="48.851283" y="31.709299" style="stroke: #000000; stroke-width: 0.8"/>
      </g>
     </g>
     <g id="text_7">
      <text style="font: 10px 'Arial', sans-serif; text-anchor: end" x="41.851283" y="35.288205" transform="rotate(-0 41.851283 35.288205)">0.6</text>
     </g>
    </g>
    <g id="text_8">
     <text style="font: 10px 'Arial', sans-serif; text-anchor: middle" x="16.005971" y="152.31998" transform="rotate(-90 16.005971 152.31998)">Activity</text>
    </g>
   </g>
   <g id="line2d_7">
    <path d="M 48.851283 65.334568 
L 60.011283 67.204258 
L 71.171283 75.359415 
L 82.331283 99.518342 
L 93.491283 117.615751 
L 104.651283 132.330106 
L 115.811283 143.606246 
L 126.971283 154.394857 
L 138.131283 164.738416 
L 149.291283 178.240681 
L 160.451283 192.326416 
L 171.611283 194.637631 
L 182.771283 201.623731 
L 193.931283 208.677121 
L 205.091283 210.512759 
L 216.251283 211.798859 
L 227.411283 215.455678 
L 238.571283 218.619142 
L 249.731283 218.324211 
L 260.891283 214.115135 
L 272.051283 210.368428 
L 283.211283 208.62735 
L 294.371283 210.760931 
L 305.531283 210.732059 
L 316.691283 215.118591 
L 327.851283 216.84328 
L 339.011283 212.102997 
L 350.171283 208.488172 
L 361.331283 217.289304 
L 372.491283 221.975469 
L 383.651283 225.004674 
L 394.811283 231.08507 
L 405.971283 236.73519 
" clip-path="url(#p0a80f81b01)" style="fill: none; stroke: #1f77b4; stroke-width: 1.5; stroke-linecap: square"/>
   </g>
   <g id="line2d_8">
    <path d="M 48.851283 143.056298 
L 60.011283 155.727276 
L 71.171283 160.008659 
L 82.331283 162.799874 
L 93.491283 173.007839 
L 104.651283 184.795749 
L 115.811283 196.688281 
L 126.971283 208.327114 
L 138.131283 212.78014 
L 149.291283 216.440176 
L 160.451283 220.022883 
L 171.611283 222.490347 
L 182.771283 227.777325 
L 193.931283 234.857323 
L 205.091283 235.541872 
L 216.251283 231.029195 
L 227.411283 229.151752 
L 238.571283 229.744104 
L 249.731283 233.180003 
L 260.891283 236.083348 
L 272.051283 240.587911 
L 283.211283 243.661427 
L 294.371283 249.509667 
L 305.531283 252.569015 
L 316.691283 250.78473 
L 327.851283 247.724036 
L 339.011283 246.513182 
L 350.171283 246.410906 
L 361.331283 248.98833 
L 372.491283 253.395072 
L 383.651283 259.663288 
L 394.811283 264.35502 
L 405.971283 265.702488 
" clip-path="url(#p0a80f81b01)" style="fill: none; stroke: #ff7f0e; stroke-width: 1.5; stroke-linecap: square"/>
   </g>
   <g id="line2d_9">
    <path d="M 82.331283 285.37598 
L 82.331283 19.26398 
" clip-path="url(#p0a80f81b01)" style="fill: none; stroke-dasharray: 5.55,2.4; stroke-dashoffset: 0; stroke: #000000; stroke-opacity: 0.5; stroke-width: 1.5"/>
   </g>
   <g id="line2d_10">
    <path d="M 383.651283 285.37598 
L 383.651283 19.26398 
" clip-path="url(#p0a80f81b01)" style="fill: none; stroke-dasharray: 5.55,2.4; stroke-dashoffset: 0; stroke: #000000; stroke-opacity: 0.5; stroke-width: 1.5"/>
   </g>
   <g id="patch_3">
    <path d="M 48.851283 285.37598 
L 405.971283 285.37598 
" style="fill: none; stroke: #000000; stroke-width: 0.8; stroke-linejoin: miter; stroke-linecap: square"/>
   </g>
   <g id="text_9">
    <text style="font: 6.94px 'Arial', sans-serif" transform="translate(10.097767 321.385533) rotate(-35)">-0.1s Sampling</text>
   </g>
   <g id="text_10">
    <text style="font: 6.94px 'Arial', sans-serif" transform="translate(57.794497 311.430872) rotate(-35)">Sampling</text>
   </g>
   <g id="text_11">
    <text style="font: 6.94px 'Arial', sans-serif" transform="translate(319.037191 339.456682) rotate(-35)">Movement to Lateral Port</text>
   </g>
   <g id="text_12">
    <text style="font: 8.33px 'Arial', sans-serif; text-anchor: middle" x="227.411283" y="13.26398" transform="rotate(-0 227.411283 13.26398)">GP4_85_s6_L65_D250_ALM - Trace:8_GP4_85_s6_L65_D250_ALM (when: correct)</text>
   </g>
   <g id="legend_1">
    <g id="patch_4">
     <path d="M 133.696342 354.133136 
L 321.126224 354.133136 
Q 322.514224 354.133136 322.514224 352.745136 
L 322.514224 343.45638 
Q 322.514224 342.06838 321.126224 342.06838 
L 133.696342 342.06838 
Q 132.308342 342.06838 132.308342 343.45638 
L 132.308342 352.745136 
Q 132.308342 354.133136 133.696342 354.133136 
z
" style="fill: #ffffff; opacity: 0.8; stroke: #cccccc; stroke-linejoin: miter"/>
    </g>
    <g id="line2d_11">
     <path d="M 135.084342 347.467483 
L 142.024342 347.467483 
L 148.964342 347.467483 
" style="fill: none; stroke: #1f77b4; stroke-width: 1.5; stroke-linecap: square"/>
    </g>
    <g id="text_13">
     <text style="font: 6.94px 'Arial', sans-serif; text-anchor: start" x="154.516342" y="349.896483" transform="rotate(-0 154.516342 349.896483)">DecisionRight (77 pts)</text>
    </g>
    <g id="line2d_12">
     <path d="M 236.664255 347.467483 
L 243.604255 347.467483 
L 250.544255 347.467483 
" style="fill: none; stroke: #ff7f0e; stroke-width: 1.5; stroke-linecap: square"/>
    </g>
    <g id="text_14">
     <text style="font: 6.94px 'Arial', sans-serif; text-anchor: start" x="256.096255" y="349.896483" transform="rotate(-0 256.096255 349.896483)">DecisionLeft (89 pts)</text>
    </g>
   </g>
  </g>
 </g>
 <defs>
  <clipPath id="p0a80f81b01">
   <rect x="48.851283" y="19.26398" width="357.12" height="266.112"/>
  </clipPath>
 </defs>
</svg>
