<?xml version="1.0" encoding="utf-8" standalone="no"?>
<!DOCTYPE svg PUBLIC "-//W3C//DTD SVG 1.1//EN"
  "http://www.w3.org/Graphics/SVG/1.1/DTD/svg11.dtd">
<svg xmlns:xlink="http://www.w3.org/1999/xlink" width="413.171283pt" height="361.333136pt" viewBox="0 0 413.171283 361.333136" xmlns="http://www.w3.org/2000/svg" version="1.1">
 <metadata>
  <rdf:RDF xmlns:dc="http://purl.org/dc/elements/1.1/" xmlns:cc="http://creativecommons.org/ns#" xmlns:rdf="http://www.w3.org/1999/02/22-rdf-syntax-ns#">
   <cc:Work>
    <dc:type rdf:resource="http://purl.org/dc/dcmitype/StillImage"/>
    <dc:date>2025-12-29T04:07:30.869400</dc:date>
    <dc:format>image/svg+xml</dc:format>
    <dc:creator>
     <cc:Agent>
      <dc:title>Matplotlib v3.8.0, https://matplotlib.org/</dc:title>
     </cc:Agent>
    </dc:creator>
   </cc:Work>
  </rdf:RDF>
 </metadata>
 <defs>
  <style type="text/css">*{stroke-linejoin: round; stroke-linecap: butt}</style>
 </defs>
 <g id="figure_1">
  <g id="patch_1">
   <path d="M 0 361.333136 
L 413.171283 361.333136 
L 413.171283 -0 
L 0 -0 
z
" style="fill: #ffffff"/>
  </g>
  <g id="axes_1">
   <g id="patch_2">
    <path d="M 48.851283 285.37598 
L 405.971283 285.37598 
L 405.971283 19.26398 
L 48.851283 19.26398 
z
" style="fill: #ffffff"/>
   </g>
   <g id="PolyCollection_1">
    <defs>
     <path id="m2c492c52ba" d="M 48.851283 -271.951045 
L 48.851283 -199.077322 
L 60.011283 -224.186113 
L 71.171283 -242.799505 
L 82.331283 -241.665601 
L 93.491283 -228.283389 
L 104.651283 -207.531154 
L 115.811283 -187.724172 
L 126.971283 -163.513626 
L 138.131283 -162.1994 
L 149.291283 -161.948655 
L 160.451283 -162.796351 
L 171.611283 -158.374942 
L 182.771283 -135.87021 
L 193.931283 -130.528954 
L 205.091283 -145.81844 
L 216.251283 -150.390825 
L 227.411283 -145.675862 
L 238.571283 -144.00283 
L 249.731283 -131.419918 
L 260.891283 -126.216255 
L 272.051283 -127.886681 
L 283.211283 -121.257078 
L 294.371283 -118.253506 
L 305.531283 -114.785909 
L 316.691283 -120.463795 
L 327.851283 -125.516118 
L 339.011283 -135.571115 
L 350.171283 -132.293774 
L 361.331283 -116.20013 
L 372.491283 -116.138468 
L 383.651283 -120.136108 
L 394.811283 -114.715929 
L 405.971283 -110.710595 
L 405.971283 -145.959218 
L 405.971283 -145.959218 
L 394.811283 -151.542012 
L 383.651283 -159.268236 
L 372.491283 -156.463472 
L 361.331283 -153.332352 
L 350.171283 -166.862442 
L 339.011283 -167.388141 
L 327.851283 -156.637784 
L 316.691283 -151.325551 
L 305.531283 -144.768103 
L 294.371283 -147.540061 
L 283.211283 -150.695054 
L 272.051283 -157.356806 
L 260.891283 -158.078996 
L 249.731283 -164.168161 
L 238.571283 -177.507284 
L 227.411283 -181.2617 
L 216.251283 -187.792432 
L 205.091283 -184.126817 
L 193.931283 -171.91016 
L 182.771283 -179.859108 
L 171.611283 -206.588136 
L 160.451283 -213.066807 
L 149.291283 -214.437856 
L 138.131283 -216.519752 
L 126.971283 -223.002168 
L 115.811283 -257.160586 
L 104.651283 -285.891059 
L 93.491283 -308.965151 
L 82.331283 -325.017791 
L 71.171283 -326.363918 
L 60.011283 -302.911068 
L 48.851283 -271.951045 
z
" style="stroke: #1f77b4; stroke-opacity: 0.2"/>
    </defs>
    <g clip-path="url(#p274180972d)">
     <use xlink:href="#m2c492c52ba" x="0" y="361.333136" style="fill: #1f77b4; fill-opacity: 0.2; stroke: #1f77b4; stroke-opacity: 0.2"/>
    </g>
   </g>
   <g id="PolyCollection_2">
    <defs>
     <path id="m5a00379b21" d="M 48.851283 -267.828131 
L 48.851283 -190.542475 
L 60.011283 -193.111018 
L 71.171283 -212.241466 
L 82.331283 -238.613505 
L 93.491283 -237.55246 
L 104.651283 -235.949055 
L 115.811283 -225.573666 
L 126.971283 -218.279186 
L 138.131283 -214.600499 
L 149.291283 -206.272522 
L 160.451283 -186.557672 
L 171.611283 -172.318035 
L 182.771283 -163.110162 
L 193.931283 -162.337193 
L 205.091283 -166.837428 
L 216.251283 -156.215935 
L 227.411283 -136.458904 
L 238.571283 -119.063815 
L 249.731283 -100.823852 
L 260.891283 -88.053156 
L 272.051283 -90.361039 
L 283.211283 -96.083609 
L 294.371283 -95.254665 
L 305.531283 -96.616846 
L 316.691283 -107.929399 
L 327.851283 -120.210564 
L 339.011283 -127.856949 
L 350.171283 -129.239802 
L 361.331283 -139.002936 
L 372.491283 -144.393923 
L 383.651283 -141.193021 
L 394.811283 -124.174978 
L 405.971283 -117.172606 
L 405.971283 -172.916665 
L 405.971283 -172.916665 
L 394.811283 -177.630188 
L 383.651283 -194.91999 
L 372.491283 -203.903701 
L 361.331283 -197.629801 
L 350.171283 -190.790938 
L 339.011283 -190.104627 
L 327.851283 -185.381272 
L 316.691283 -175.555469 
L 305.531283 -166.345273 
L 294.371283 -164.188277 
L 283.211283 -164.219758 
L 272.051283 -158.808676 
L 260.891283 -155.682753 
L 249.731283 -167.800416 
L 238.571283 -187.634157 
L 227.411283 -208.659622 
L 216.251283 -231.441765 
L 205.091283 -244.023486 
L 193.931283 -242.586974 
L 182.771283 -246.235669 
L 171.611283 -257.649465 
L 160.451283 -276.376656 
L 149.291283 -297.307663 
L 138.131283 -304.190131 
L 126.971283 -307.780511 
L 115.811283 -315.946884 
L 104.651283 -329.48024 
L 93.491283 -329.973156 
L 82.331283 -329.175715 
L 71.171283 -283.352039 
L 60.011283 -259.894683 
L 48.851283 -267.828131 
z
" style="stroke: #ff7f0e; stroke-opacity: 0.2"/>
    </defs>
    <g clip-path="url(#p274180972d)">
     <use xlink:href="#m5a00379b21" x="0" y="361.333136" style="fill: #ff7f0e; fill-opacity: 0.2; stroke: #ff7f0e; stroke-opacity: 0.2"/>
    </g>
   </g>
   <g id="matplotlib.axis_1">
    <g id="text_1">
     <text style="font: 10px 'Arial', sans-serif; text-anchor: middle" x="227.411283" y="296.533792" transform="rotate(-0 227.411283 296.533792)">Time</text>
    </g>
   </g>
   <g id="matplotlib.axis_2">
    <g id="ytick_1">
     <g id="line2d_1">
      <defs>
       <path id="mfe305d65b9" d="M 0 0 
L -3.5 0 
" style="stroke: #000000; stroke-width: 0.8"/>
      </defs>
      <g>
       <use xlink:href="#mfe305d65b9" x="48.851283" y="282.71001" style="stroke: #000000; stroke-width: 0.8"/>
      </g>
     </g>
     <g id="text_2">
      <text style="font: 10px 'Arial', sans-serif; text-anchor: end" x="41.851283" y="286.288916" transform="rotate(-0 41.851283 286.288916)">−0.2</text>
     </g>
    </g>
    <g id="ytick_2">
     <g id="line2d_2">
      <g>
       <use xlink:href="#mfe305d65b9" x="48.851283" y="233.619642" style="stroke: #000000; stroke-width: 0.8"/>
      </g>
     </g>
     <g id="text_3">
      <text style="font: 10px 'Arial', sans-serif; text-anchor: end" x="41.851283" y="237.198548" transform="rotate(-0 41.851283 237.198548)">0.0</text>
     </g>
    </g>
    <g id="ytick_3">
     <g id="line2d_3">
      <g>
       <use xlink:href="#mfe305d65b9" x="48.851283" y="184.529273" style="stroke: #000000; stroke-width: 0.8"/>
      </g>
     </g>
     <g id="text_4">
      <text style="font: 10px 'Arial', sans-serif; text-anchor: end" x="41.851283" y="188.10818" transform="rotate(-0 41.851283 188.10818)">0.2</text>
     </g>
    </g>
    <g id="ytick_4">
     <g id="line2d_4">
      <g>
       <use xlink:href="#mfe305d65b9" x="48.851283" y="135.438905" style="stroke: #000000; stroke-width: 0.8"/>
      </g>
     </g>
     <g id="text_5">
      <text style="font: 10px 'Arial', sans-serif; text-anchor: end" x="41.851283" y="139.017811" transform="rotate(-0 41.851283 139.017811)">0.4</text>
     </g>
    </g>
    <g id="ytick_5">
     <g id="line2d_5">
      <g>
       <use xlink:href="#mfe305d65b9" x="48.851283" y="86.348537" style="stroke: #000000; stroke-width: 0.8"/>
      </g>
     </g>
     <g id="text_6">
      <text style="font: 10px 'Arial', sans-serif; text-anchor: end" x="41.851283" y="89.927443" transform="rotate(-0 41.851283 89.927443)">0.6</text>
     </g>
    </g>
    <g id="ytick_6">
     <g id="line2d_6">
      <g>
       <use xlink:href="#mfe305d65b9" x="48.851283" y="37.258168" style="stroke: #000000; stroke-width: 0.8"/>
      </g>
     </g>
     <g id="text_7">
      <text style="font: 10px 'Arial', sans-serif; text-anchor: end" x="41.851283" y="40.837075" transform="rotate(-0 41.851283 40.837075)">0.8</text>
     </g>
    </g>
    <g id="text_8">
     <text style="font: 10px 'Arial', sans-serif; text-anchor: middle" x="16.005971" y="152.31998" transform="rotate(-90 16.005971 152.31998)">Activity</text>
    </g>
   </g>
   <g id="line2d_7">
    <path d="M 48.851283 125.818952 
L 60.011283 97.784549 
L 71.171283 76.751425 
L 82.331283 77.99144 
L 93.491283 92.708866 
L 104.651283 114.622033 
L 115.811283 138.890759 
L 126.971283 168.075239 
L 138.131283 171.97356 
L 149.291283 173.13988 
L 160.451283 173.401557 
L 171.611283 178.851599 
L 182.771283 203.468478 
L 193.931283 210.11358 
L 205.091283 196.360508 
L 216.251283 192.241507 
L 227.411283 197.864354 
L 238.571283 200.578079 
L 249.731283 213.539095 
L 260.891283 219.18551 
L 272.051283 218.711392 
L 283.211283 225.35707 
L 294.371283 228.436352 
L 305.531283 231.556129 
L 316.691283 225.438463 
L 327.851283 220.256185 
L 339.011283 209.853508 
L 350.171283 211.755028 
L 361.331283 226.566895 
L 372.491283 225.032166 
L 383.651283 221.630964 
L 394.811283 228.204165 
L 405.971283 232.99823 
" clip-path="url(#p274180972d)" style="fill: none; stroke: #1f77b4; stroke-width: 1.5; stroke-linecap: square"/>
   </g>
   <g id="line2d_8">
    <path d="M 48.851283 132.147833 
L 60.011283 134.830285 
L 71.171283 113.536387 
L 82.331283 77.438526 
L 93.491283 77.570328 
L 104.651283 78.618485 
L 115.811283 90.572861 
L 126.971283 98.303288 
L 138.131283 101.937821 
L 149.291283 109.543044 
L 160.451283 129.865973 
L 171.611283 146.349388 
L 182.771283 156.660222 
L 193.931283 158.871052 
L 205.091283 155.902677 
L 216.251283 167.504286 
L 227.411283 188.773873 
L 238.571283 207.984151 
L 249.731283 227.021002 
L 260.891283 239.46518 
L 272.051283 236.74828 
L 283.211283 231.181452 
L 294.371283 231.611665 
L 305.531283 229.852078 
L 316.691283 219.590701 
L 327.851283 208.537219 
L 339.011283 202.352348 
L 350.171283 201.317764 
L 361.331283 193.016769 
L 372.491283 187.184323 
L 383.651283 193.276632 
L 394.811283 210.430553 
L 405.971283 216.288501 
" clip-path="url(#p274180972d)" style="fill: none; stroke: #ff7f0e; stroke-width: 1.5; stroke-linecap: square"/>
   </g>
   <g id="line2d_9">
    <path d="M 82.331283 285.37598 
L 82.331283 19.26398 
" clip-path="url(#p274180972d)" style="fill: none; stroke-dasharray: 5.55,2.4; stroke-dashoffset: 0; stroke: #000000; stroke-opacity: 0.5; stroke-width: 1.5"/>
   </g>
   <g id="line2d_10">
    <path d="M 383.651283 285.37598 
L 383.651283 19.26398 
" clip-path="url(#p274180972d)" style="fill: none; stroke-dasharray: 5.55,2.4; stroke-dashoffset: 0; stroke: #000000; stroke-opacity: 0.5; stroke-width: 1.5"/>
   </g>
   <g id="patch_3">
    <path d="M 48.851283 285.37598 
L 405.971283 285.37598 
" style="fill: none; stroke: #000000; stroke-width: 0.8; stroke-linejoin: miter; stroke-linecap: square"/>
   </g>
   <g id="text_9">
    <text style="font: 6.94px 'Arial', sans-serif" transform="translate(10.097767 321.385533) rotate(-35)">-0.1s Sampling</text>
   </g>
   <g id="text_10">
    <text style="font: 6.94px 'Arial', sans-serif" transform="translate(57.794497 311.430872) rotate(-35)">Sampling</text>
   </g>
   <g id="text_11">
    <text style="font: 6.94px 'Arial', sans-serif" transform="translate(319.037191 339.456682) rotate(-35)">Movement to Lateral Port</text>
   </g>
   <g id="text_12">
    <text style="font: 8.33px 'Arial', sans-serif; text-anchor: middle" x="227.411283" y="13.26398" transform="rotate(-0 227.411283 13.26398)">GP4_28_S6_L40_D250_M2L - Trace:26_GP4_28_S6_L40_D250_M2L (when: correct)</text>
   </g>
   <g id="legend_1">
    <g id="patch_4">
     <path d="M 133.696342 354.133136 
L 321.126224 354.133136 
Q 322.514224 354.133136 322.514224 352.745136 
L 322.514224 343.45638 
Q 322.514224 342.06838 321.126224 342.06838 
L 133.696342 342.06838 
Q 132.308342 342.06838 132.308342 343.45638 
L 132.308342 352.745136 
Q 132.308342 354.133136 133.696342 354.133136 
z
" style="fill: #ffffff; opacity: 0.8; stroke: #cccccc; stroke-linejoin: miter"/>
    </g>
    <g id="line2d_11">
     <path d="M 135.084342 347.467483 
L 142.024342 347.467483 
L 148.964342 347.467483 
" style="fill: none; stroke: #1f77b4; stroke-width: 1.5; stroke-linecap: square"/>
    </g>
    <g id="text_13">
     <text style="font: 6.94px 'Arial', sans-serif; text-anchor: start" x="154.516342" y="349.896483" transform="rotate(-0 154.516342 349.896483)">DecisionRight (90 pts)</text>
    </g>
    <g id="line2d_12">
     <path d="M 236.664255 347.467483 
L 243.604255 347.467483 
L 250.544255 347.467483 
" style="fill: none; stroke: #ff7f0e; stroke-width: 1.5; stroke-linecap: square"/>
    </g>
    <g id="text_14">
     <text style="font: 6.94px 'Arial', sans-serif; text-anchor: start" x="256.096255" y="349.896483" transform="rotate(-0 256.096255 349.896483)">DecisionLeft (78 pts)</text>
    </g>
   </g>
  </g>
 </g>
 <defs>
  <clipPath id="p274180972d">
   <rect x="48.851283" y="19.26398" width="357.12" height="266.112"/>
  </clipPath>
 </defs>
</svg>
