<?xml version="1.0" encoding="utf-8" standalone="no"?>
<!DOCTYPE svg PUBLIC "-//W3C//DTD SVG 1.1//EN"
  "http://www.w3.org/Graphics/SVG/1.1/DTD/svg11.dtd">
<svg xmlns:xlink="http://www.w3.org/1999/xlink" width="413.171283pt" height="361.333136pt" viewBox="0 0 413.171283 361.333136" xmlns="http://www.w3.org/2000/svg" version="1.1">
 <metadata>
  <rdf:RDF xmlns:dc="http://purl.org/dc/elements/1.1/" xmlns:cc="http://creativecommons.org/ns#" xmlns:rdf="http://www.w3.org/1999/02/22-rdf-syntax-ns#">
   <cc:Work>
    <dc:type rdf:resource="http://purl.org/dc/dcmitype/StillImage"/>
    <dc:date>2025-12-29T04:07:30.819371</dc:date>
    <dc:format>image/svg+xml</dc:format>
    <dc:creator>
     <cc:Agent>
      <dc:title>Matplotlib v3.8.0, https://matplotlib.org/</dc:title>
     </cc:Agent>
    </dc:creator>
   </cc:Work>
  </rdf:RDF>
 </metadata>
 <defs>
  <style type="text/css">*{stroke-linejoin: round; stroke-linecap: butt}</style>
 </defs>
 <g id="figure_1">
  <g id="patch_1">
   <path d="M 0 361.333136 
L 413.171283 361.333136 
L 413.171283 -0 
L 0 -0 
z
" style="fill: #ffffff"/>
  </g>
  <g id="axes_1">
   <g id="patch_2">
    <path d="M 48.851283 285.37598 
L 405.971283 285.37598 
L 405.971283 19.26398 
L 48.851283 19.26398 
z
" style="fill: #ffffff"/>
   </g>
   <g id="PolyCollection_1">
    <defs>
     <path id="m84f6ff98b1" d="M 48.851283 -202.495206 
L 48.851283 -177.220899 
L 60.011283 -198.567499 
L 71.171283 -223.048696 
L 82.331283 -243.391366 
L 93.491283 -233.545039 
L 104.651283 -223.097844 
L 115.811283 -214.530721 
L 126.971283 -205.530369 
L 138.131283 -194.067589 
L 149.291283 -180.385646 
L 160.451283 -172.458252 
L 171.611283 -166.261863 
L 182.771283 -148.537108 
L 193.931283 -143.161712 
L 205.091283 -132.510485 
L 216.251283 -121.741431 
L 227.411283 -118.191836 
L 238.571283 -117.859293 
L 249.731283 -116.789911 
L 260.891283 -127.547337 
L 272.051283 -131.572546 
L 283.211283 -134.206078 
L 294.371283 -121.54667 
L 305.531283 -112.729699 
L 316.691283 -108.744684 
L 327.851283 -93.237833 
L 339.011283 -88.053156 
L 350.171283 -94.891528 
L 361.331283 -110.045784 
L 372.491283 -141.797462 
L 383.651283 -167.21048 
L 394.811283 -161.93197 
L 405.971283 -149.48008 
L 405.971283 -175.10826 
L 405.971283 -175.10826 
L 394.811283 -188.397562 
L 383.651283 -193.846344 
L 372.491283 -167.036906 
L 361.331283 -136.020283 
L 350.171283 -119.736203 
L 339.011283 -111.704563 
L 327.851283 -116.20429 
L 316.691283 -131.895835 
L 305.531283 -135.236869 
L 294.371283 -142.382067 
L 283.211283 -156.152066 
L 272.051283 -154.765992 
L 260.891283 -149.99766 
L 249.731283 -141.24964 
L 238.571283 -142.777916 
L 227.411283 -144.692284 
L 216.251283 -150.433839 
L 205.091283 -166.370591 
L 193.931283 -175.829188 
L 182.771283 -179.473904 
L 171.611283 -200.467507 
L 160.451283 -208.857005 
L 149.291283 -216.655392 
L 138.131283 -230.397023 
L 126.971283 -240.4633 
L 115.811283 -248.834528 
L 104.651283 -262.466309 
L 93.491283 -278.586061 
L 82.331283 -284.956691 
L 71.171283 -257.862536 
L 60.011283 -228.266693 
L 48.851283 -202.495206 
z
" style="stroke: #1f77b4; stroke-opacity: 0.2"/>
    </defs>
    <g clip-path="url(#p049e930bd3)">
     <use xlink:href="#m84f6ff98b1" x="0" y="361.333136" style="fill: #1f77b4; fill-opacity: 0.2; stroke: #1f77b4; stroke-opacity: 0.2"/>
    </g>
   </g>
   <g id="PolyCollection_2">
    <defs>
     <path id="mec9870931a" d="M 48.851283 -230.537654 
L 48.851283 -187.82724 
L 60.011283 -192.815636 
L 71.171283 -209.938719 
L 82.331283 -252.311403 
L 93.491283 -276.537064 
L 104.651283 -264.480358 
L 115.811283 -231.381475 
L 126.971283 -205.259866 
L 138.131283 -196.100488 
L 149.291283 -200.276488 
L 160.451283 -201.804192 
L 171.611283 -197.512683 
L 182.771283 -192.900842 
L 193.931283 -198.779531 
L 205.091283 -199.444631 
L 216.251283 -195.155338 
L 227.411283 -179.768008 
L 238.571283 -151.093874 
L 249.731283 -140.303881 
L 260.891283 -141.071123 
L 272.051283 -141.47492 
L 283.211283 -139.574378 
L 294.371283 -136.093978 
L 305.531283 -131.786852 
L 316.691283 -124.424424 
L 327.851283 -120.133963 
L 339.011283 -123.086754 
L 350.171283 -114.051066 
L 361.331283 -116.270989 
L 372.491283 -126.327793 
L 383.651283 -138.961948 
L 394.811283 -139.764447 
L 405.971283 -132.706578 
L 405.971283 -157.287797 
L 405.971283 -157.287797 
L 394.811283 -169.48568 
L 383.651283 -170.436241 
L 372.491283 -153.102468 
L 361.331283 -143.943151 
L 350.171283 -142.928074 
L 339.011283 -151.527295 
L 327.851283 -150.883735 
L 316.691283 -157.014439 
L 305.531283 -166.136656 
L 294.371283 -172.00501 
L 283.211283 -175.168412 
L 272.051283 -174.954168 
L 260.891283 -174.961741 
L 249.731283 -174.380225 
L 238.571283 -186.003555 
L 227.411283 -217.949201 
L 216.251283 -235.347249 
L 205.091283 -238.742689 
L 193.931283 -236.10389 
L 182.771283 -228.339253 
L 171.611283 -237.707269 
L 160.451283 -247.174078 
L 149.291283 -244.043531 
L 138.131283 -235.741359 
L 126.971283 -245.314623 
L 115.811283 -272.749959 
L 104.651283 -312.471579 
L 93.491283 -329.973156 
L 82.331283 -300.91509 
L 71.171283 -249.713944 
L 60.011283 -229.097029 
L 48.851283 -230.537654 
z
" style="stroke: #ff7f0e; stroke-opacity: 0.2"/>
    </defs>
    <g clip-path="url(#p049e930bd3)">
     <use xlink:href="#mec9870931a" x="0" y="361.333136" style="fill: #ff7f0e; fill-opacity: 0.2; stroke: #ff7f0e; stroke-opacity: 0.2"/>
    </g>
   </g>
   <g id="matplotlib.axis_1">
    <g id="text_1">
     <text style="font: 10px 'Arial', sans-serif; text-anchor: middle" x="227.411283" y="296.533792" transform="rotate(-0 227.411283 296.533792)">Time</text>
    </g>
   </g>
   <g id="matplotlib.axis_2">
    <g id="ytick_1">
     <g id="line2d_1">
      <defs>
       <path id="ma8570f85f7" d="M 0 0 
L -3.5 0 
" style="stroke: #000000; stroke-width: 0.8"/>
      </defs>
      <g>
       <use xlink:href="#ma8570f85f7" x="48.851283" y="274.362427" style="stroke: #000000; stroke-width: 0.8"/>
      </g>
     </g>
     <g id="text_2">
      <text style="font: 10px 'Arial', sans-serif; text-anchor: end" x="41.851283" y="277.941333" transform="rotate(-0 41.851283 277.941333)">−0.4</text>
     </g>
    </g>
    <g id="ytick_2">
     <g id="line2d_2">
      <g>
       <use xlink:href="#ma8570f85f7" x="48.851283" y="241.959925" style="stroke: #000000; stroke-width: 0.8"/>
      </g>
     </g>
     <g id="text_3">
      <text style="font: 10px 'Arial', sans-serif; text-anchor: end" x="41.851283" y="245.538831" transform="rotate(-0 41.851283 245.538831)">−0.2</text>
     </g>
    </g>
    <g id="ytick_3">
     <g id="line2d_3">
      <g>
       <use xlink:href="#ma8570f85f7" x="48.851283" y="209.557423" style="stroke: #000000; stroke-width: 0.8"/>
      </g>
     </g>
     <g id="text_4">
      <text style="font: 10px 'Arial', sans-serif; text-anchor: end" x="41.851283" y="213.13633" transform="rotate(-0 41.851283 213.13633)">0.0</text>
     </g>
    </g>
    <g id="ytick_4">
     <g id="line2d_4">
      <g>
       <use xlink:href="#ma8570f85f7" x="48.851283" y="177.154922" style="stroke: #000000; stroke-width: 0.8"/>
      </g>
     </g>
     <g id="text_5">
      <text style="font: 10px 'Arial', sans-serif; text-anchor: end" x="41.851283" y="180.733828" transform="rotate(-0 41.851283 180.733828)">0.2</text>
     </g>
    </g>
    <g id="ytick_5">
     <g id="line2d_5">
      <g>
       <use xlink:href="#ma8570f85f7" x="48.851283" y="144.75242" style="stroke: #000000; stroke-width: 0.8"/>
      </g>
     </g>
     <g id="text_6">
      <text style="font: 10px 'Arial', sans-serif; text-anchor: end" x="41.851283" y="148.331326" transform="rotate(-0 41.851283 148.331326)">0.4</text>
     </g>
    </g>
    <g id="ytick_6">
     <g id="line2d_6">
      <g>
       <use xlink:href="#ma8570f85f7" x="48.851283" y="112.349918" style="stroke: #000000; stroke-width: 0.8"/>
      </g>
     </g>
     <g id="text_7">
      <text style="font: 10px 'Arial', sans-serif; text-anchor: end" x="41.851283" y="115.928824" transform="rotate(-0 41.851283 115.928824)">0.6</text>
     </g>
    </g>
    <g id="ytick_7">
     <g id="line2d_7">
      <g>
       <use xlink:href="#ma8570f85f7" x="48.851283" y="79.947416" style="stroke: #000000; stroke-width: 0.8"/>
      </g>
     </g>
     <g id="text_8">
      <text style="font: 10px 'Arial', sans-serif; text-anchor: end" x="41.851283" y="83.526323" transform="rotate(-0 41.851283 83.526323)">0.8</text>
     </g>
    </g>
    <g id="ytick_8">
     <g id="line2d_8">
      <g>
       <use xlink:href="#ma8570f85f7" x="48.851283" y="47.544915" style="stroke: #000000; stroke-width: 0.8"/>
      </g>
     </g>
     <g id="text_9">
      <text style="font: 10px 'Arial', sans-serif; text-anchor: end" x="41.851283" y="51.123821" transform="rotate(-0 41.851283 51.123821)">1.0</text>
     </g>
    </g>
    <g id="text_10">
     <text style="font: 10px 'Arial', sans-serif; text-anchor: middle" x="16.005971" y="152.31998" transform="rotate(-90 16.005971 152.31998)">Activity</text>
    </g>
   </g>
   <g id="line2d_9">
    <path d="M 48.851283 171.475083 
L 60.011283 147.91604 
L 71.171283 120.877522 
L 82.331283 97.159107 
L 93.491283 105.267586 
L 104.651283 118.551059 
L 115.811283 129.650512 
L 126.971283 138.336301 
L 138.131283 149.10083 
L 149.291283 162.812617 
L 160.451283 170.675509 
L 171.611283 177.96845 
L 182.771283 197.327631 
L 193.931283 201.837686 
L 205.091283 211.892598 
L 216.251283 225.245501 
L 227.411283 229.891076 
L 238.571283 231.014532 
L 249.731283 232.31336 
L 260.891283 222.560638 
L 272.051283 218.163867 
L 283.211283 216.154064 
L 294.371283 229.368768 
L 305.531283 237.349852 
L 316.691283 241.012876 
L 327.851283 256.612075 
L 339.011283 261.454276 
L 350.171283 254.019271 
L 361.331283 238.300102 
L 372.491283 206.915952 
L 383.651283 180.804723 
L 394.811283 186.16837 
L 405.971283 199.038965 
" clip-path="url(#p049e930bd3)" style="fill: none; stroke: #1f77b4; stroke-width: 1.5; stroke-linecap: square"/>
   </g>
   <g id="line2d_10">
    <path d="M 48.851283 152.150691 
L 60.011283 150.376803 
L 71.171283 131.506804 
L 82.331283 84.71989 
L 93.491283 58.078026 
L 104.651283 72.857167 
L 115.811283 109.267419 
L 126.971283 136.045892 
L 138.131283 145.412213 
L 149.291283 139.173126 
L 160.451283 136.843998 
L 171.611283 143.72316 
L 182.771283 150.713088 
L 193.931283 143.891428 
L 205.091283 142.239476 
L 216.251283 146.081842 
L 227.411283 162.474531 
L 238.571283 192.784422 
L 249.731283 203.991084 
L 260.891283 203.316703 
L 272.051283 203.118592 
L 283.211283 203.961741 
L 294.371283 207.283642 
L 305.531283 212.371382 
L 316.691283 220.613705 
L 327.851283 225.824287 
L 339.011283 224.026112 
L 350.171283 232.843566 
L 361.331283 231.226066 
L 372.491283 221.618006 
L 383.651283 206.634042 
L 394.811283 206.708072 
L 405.971283 216.335948 
" clip-path="url(#p049e930bd3)" style="fill: none; stroke: #ff7f0e; stroke-width: 1.5; stroke-linecap: square"/>
   </g>
   <g id="line2d_11">
    <path d="M 82.331283 285.37598 
L 82.331283 19.26398 
" clip-path="url(#p049e930bd3)" style="fill: none; stroke-dasharray: 5.55,2.4; stroke-dashoffset: 0; stroke: #000000; stroke-opacity: 0.5; stroke-width: 1.5"/>
   </g>
   <g id="line2d_12">
    <path d="M 383.651283 285.37598 
L 383.651283 19.26398 
" clip-path="url(#p049e930bd3)" style="fill: none; stroke-dasharray: 5.55,2.4; stroke-dashoffset: 0; stroke: #000000; stroke-opacity: 0.5; stroke-width: 1.5"/>
   </g>
   <g id="patch_3">
    <path d="M 48.851283 285.37598 
L 405.971283 285.37598 
" style="fill: none; stroke: #000000; stroke-width: 0.8; stroke-linejoin: miter; stroke-linecap: square"/>
   </g>
   <g id="text_11">
    <text style="font: 6.94px 'Arial', sans-serif" transform="translate(10.097767 321.385533) rotate(-35)">-0.1s Sampling</text>
   </g>
   <g id="text_12">
    <text style="font: 6.94px 'Arial', sans-serif" transform="translate(57.794497 311.430872) rotate(-35)">Sampling</text>
   </g>
   <g id="text_13">
    <text style="font: 6.94px 'Arial', sans-serif" transform="translate(319.037191 339.456682) rotate(-35)">Movement to Lateral Port</text>
   </g>
   <g id="text_14">
    <text style="font: 8.33px 'Arial', sans-serif; text-anchor: middle" x="227.411283" y="13.26398" transform="rotate(-0 227.411283 13.26398)">GP4_28_S6_L40_D250_M2L - Trace:68_GP4_28_S6_L40_D250_M2L (when: correct)</text>
   </g>
   <g id="legend_1">
    <g id="patch_4">
     <path d="M 133.696342 354.133136 
L 321.126224 354.133136 
Q 322.514224 354.133136 322.514224 352.745136 
L 322.514224 343.45638 
Q 322.514224 342.06838 321.126224 342.06838 
L 133.696342 342.06838 
Q 132.308342 342.06838 132.308342 343.45638 
L 132.308342 352.745136 
Q 132.308342 354.133136 133.696342 354.133136 
z
" style="fill: #ffffff; opacity: 0.8; stroke: #cccccc; stroke-linejoin: miter"/>
    </g>
    <g id="line2d_13">
     <path d="M 135.084342 347.467483 
L 142.024342 347.467483 
L 148.964342 347.467483 
" style="fill: none; stroke: #1f77b4; stroke-width: 1.5; stroke-linecap: square"/>
    </g>
    <g id="text_15">
     <text style="font: 6.94px 'Arial', sans-serif; text-anchor: start" x="154.516342" y="349.896483" transform="rotate(-0 154.516342 349.896483)">DecisionRight (90 pts)</text>
    </g>
    <g id="line2d_14">
     <path d="M 236.664255 347.467483 
L 243.604255 347.467483 
L 250.544255 347.467483 
" style="fill: none; stroke: #ff7f0e; stroke-width: 1.5; stroke-linecap: square"/>
    </g>
    <g id="text_16">
     <text style="font: 6.94px 'Arial', sans-serif; text-anchor: start" x="256.096255" y="349.896483" transform="rotate(-0 256.096255 349.896483)">DecisionLeft (78 pts)</text>
    </g>
   </g>
  </g>
 </g>
 <defs>
  <clipPath id="p049e930bd3">
   <rect x="48.851283" y="19.26398" width="357.12" height="266.112"/>
  </clipPath>
 </defs>
</svg>
