<?xml version="1.0" encoding="utf-8" standalone="no"?>
<!DOCTYPE svg PUBLIC "-//W3C//DTD SVG 1.1//EN"
  "http://www.w3.org/Graphics/SVG/1.1/DTD/svg11.dtd">
<svg xmlns:xlink="http://www.w3.org/1999/xlink" width="413.171283pt" height="361.333136pt" viewBox="0 0 413.171283 361.333136" xmlns="http://www.w3.org/2000/svg" version="1.1">
 <metadata>
  <rdf:RDF xmlns:dc="http://purl.org/dc/elements/1.1/" xmlns:cc="http://creativecommons.org/ns#" xmlns:rdf="http://www.w3.org/1999/02/22-rdf-syntax-ns#">
   <cc:Work>
    <dc:type rdf:resource="http://purl.org/dc/dcmitype/StillImage"/>
    <dc:date>2025-12-29T04:07:31.074678</dc:date>
    <dc:format>image/svg+xml</dc:format>
    <dc:creator>
     <cc:Agent>
      <dc:title>Matplotlib v3.8.0, https://matplotlib.org/</dc:title>
     </cc:Agent>
    </dc:creator>
   </cc:Work>
  </rdf:RDF>
 </metadata>
 <defs>
  <style type="text/css">*{stroke-linejoin: round; stroke-linecap: butt}</style>
 </defs>
 <g id="figure_1">
  <g id="patch_1">
   <path d="M 0 361.333136 
L 413.171283 361.333136 
L 413.171283 -0 
L 0 -0 
z
" style="fill: #ffffff"/>
  </g>
  <g id="axes_1">
   <g id="patch_2">
    <path d="M 48.851283 285.37598 
L 405.971283 285.37598 
L 405.971283 19.26398 
L 48.851283 19.26398 
z
" style="fill: #ffffff"/>
   </g>
   <g id="PolyCollection_1">
    <defs>
     <path id="m30e7657008" d="M 48.851283 -124.429849 
L 48.851283 -88.053156 
L 60.011283 -98.824293 
L 71.171283 -120.035281 
L 82.331283 -148.76035 
L 93.491283 -168.788383 
L 104.651283 -193.13535 
L 115.811283 -227.225111 
L 126.971283 -239.316966 
L 138.131283 -249.816896 
L 149.291283 -269.222611 
L 160.451283 -262.493344 
L 171.611283 -239.320438 
L 182.771283 -221.527296 
L 193.931283 -213.869505 
L 205.091283 -215.397263 
L 216.251283 -215.772868 
L 227.411283 -224.422931 
L 238.571283 -212.920547 
L 249.731283 -190.740769 
L 260.891283 -179.408377 
L 272.051283 -175.267965 
L 283.211283 -165.207522 
L 294.371283 -152.708979 
L 305.531283 -145.298151 
L 316.691283 -152.682815 
L 327.851283 -152.565894 
L 339.011283 -139.217558 
L 350.171283 -149.804287 
L 361.331283 -170.86172 
L 372.491283 -164.867485 
L 383.651283 -139.46063 
L 394.811283 -135.683375 
L 405.971283 -150.240894 
L 405.971283 -186.936044 
L 405.971283 -186.936044 
L 394.811283 -168.47224 
L 383.651283 -172.038084 
L 372.491283 -200.326215 
L 361.331283 -208.426111 
L 350.171283 -192.280182 
L 339.011283 -185.460715 
L 327.851283 -199.057072 
L 316.691283 -200.539855 
L 305.531283 -195.942867 
L 294.371283 -203.86486 
L 283.211283 -217.463032 
L 272.051283 -227.415091 
L 260.891283 -233.750242 
L 249.731283 -244.691755 
L 238.571283 -262.399551 
L 227.411283 -274.017868 
L 216.251283 -265.16138 
L 205.091283 -269.689708 
L 193.931283 -272.042401 
L 182.771283 -279.441181 
L 171.611283 -296.532939 
L 160.451283 -320.011681 
L 149.291283 -329.973156 
L 138.131283 -306.102005 
L 126.971283 -293.289274 
L 115.811283 -282.910424 
L 104.651283 -247.934648 
L 93.491283 -213.334777 
L 82.331283 -185.072104 
L 71.171283 -156.4467 
L 60.011283 -137.527072 
L 48.851283 -124.429849 
z
" style="stroke: #1f77b4; stroke-opacity: 0.2"/>
    </defs>
    <g clip-path="url(#p0b56337994)">
     <use xlink:href="#m30e7657008" x="0" y="361.333136" style="fill: #1f77b4; fill-opacity: 0.2; stroke: #1f77b4; stroke-opacity: 0.2"/>
    </g>
   </g>
   <g id="PolyCollection_2">
    <defs>
     <path id="maab9615c3f" d="M 48.851283 -132.490297 
L 48.851283 -94.279075 
L 60.011283 -108.781727 
L 71.171283 -128.563854 
L 82.331283 -148.867532 
L 93.491283 -166.47327 
L 104.651283 -200.009649 
L 115.811283 -231.599619 
L 126.971283 -247.076671 
L 138.131283 -257.215376 
L 149.291283 -260.261201 
L 160.451283 -247.500847 
L 171.611283 -249.739921 
L 182.771283 -260.390618 
L 193.931283 -249.485638 
L 205.091283 -224.996094 
L 216.251283 -205.320861 
L 227.411283 -192.760112 
L 238.571283 -183.867732 
L 249.731283 -175.936728 
L 260.891283 -169.520855 
L 272.051283 -174.070751 
L 283.211283 -187.450361 
L 294.371283 -187.886032 
L 305.531283 -176.13191 
L 316.691283 -166.333896 
L 327.851283 -160.969486 
L 339.011283 -162.309719 
L 350.171283 -161.152629 
L 361.331283 -158.88583 
L 372.491283 -149.07576 
L 383.651283 -139.447737 
L 394.811283 -129.341847 
L 405.971283 -124.872255 
L 405.971283 -168.474864 
L 405.971283 -168.474864 
L 394.811283 -171.647105 
L 383.651283 -180.483659 
L 372.491283 -196.428671 
L 361.331283 -205.845192 
L 350.171283 -211.002701 
L 339.011283 -214.937117 
L 327.851283 -215.302862 
L 316.691283 -222.7717 
L 305.531283 -234.846671 
L 294.371283 -247.400554 
L 283.211283 -249.843104 
L 272.051283 -239.474624 
L 260.891283 -235.532688 
L 249.731283 -242.014884 
L 238.571283 -250.629147 
L 227.411283 -260.999268 
L 216.251283 -273.923551 
L 205.091283 -290.837818 
L 193.931283 -314.744803 
L 182.771283 -324.680332 
L 171.611283 -309.789082 
L 160.451283 -307.9239 
L 149.291283 -323.589102 
L 138.131283 -322.431541 
L 126.971283 -314.955955 
L 115.811283 -297.713202 
L 104.651283 -261.063427 
L 93.491283 -219.177827 
L 82.331283 -196.64682 
L 71.171283 -169.700929 
L 60.011283 -145.666458 
L 48.851283 -132.490297 
z
" style="stroke: #ff7f0e; stroke-opacity: 0.2"/>
    </defs>
    <g clip-path="url(#p0b56337994)">
     <use xlink:href="#maab9615c3f" x="0" y="361.333136" style="fill: #ff7f0e; fill-opacity: 0.2; stroke: #ff7f0e; stroke-opacity: 0.2"/>
    </g>
   </g>
   <g id="matplotlib.axis_1">
    <g id="text_1">
     <text style="font: 10px 'Arial', sans-serif; text-anchor: middle" x="227.411283" y="296.533792" transform="rotate(-0 227.411283 296.533792)">Time</text>
    </g>
   </g>
   <g id="matplotlib.axis_2">
    <g id="ytick_1">
     <g id="line2d_1">
      <defs>
       <path id="m1f326ff178" d="M 0 0 
L -3.5 0 
" style="stroke: #000000; stroke-width: 0.8"/>
      </defs>
      <g>
       <use xlink:href="#m1f326ff178" x="48.851283" y="253.589095" style="stroke: #000000; stroke-width: 0.8"/>
      </g>
     </g>
     <g id="text_2">
      <text style="font: 10px 'Arial', sans-serif; text-anchor: end" x="41.851283" y="257.168001" transform="rotate(-0 41.851283 257.168001)">−0.2</text>
     </g>
    </g>
    <g id="ytick_2">
     <g id="line2d_2">
      <g>
       <use xlink:href="#m1f326ff178" x="48.851283" y="209.707578" style="stroke: #000000; stroke-width: 0.8"/>
      </g>
     </g>
     <g id="text_3">
      <text style="font: 10px 'Arial', sans-serif; text-anchor: end" x="41.851283" y="213.286485" transform="rotate(-0 41.851283 213.286485)">0.0</text>
     </g>
    </g>
    <g id="ytick_3">
     <g id="line2d_3">
      <g>
       <use xlink:href="#m1f326ff178" x="48.851283" y="165.826062" style="stroke: #000000; stroke-width: 0.8"/>
      </g>
     </g>
     <g id="text_4">
      <text style="font: 10px 'Arial', sans-serif; text-anchor: end" x="41.851283" y="169.404968" transform="rotate(-0 41.851283 169.404968)">0.2</text>
     </g>
    </g>
    <g id="ytick_4">
     <g id="line2d_4">
      <g>
       <use xlink:href="#m1f326ff178" x="48.851283" y="121.944545" style="stroke: #000000; stroke-width: 0.8"/>
      </g>
     </g>
     <g id="text_5">
      <text style="font: 10px 'Arial', sans-serif; text-anchor: end" x="41.851283" y="125.523451" transform="rotate(-0 41.851283 125.523451)">0.4</text>
     </g>
    </g>
    <g id="ytick_5">
     <g id="line2d_5">
      <g>
       <use xlink:href="#m1f326ff178" x="48.851283" y="78.063028" style="stroke: #000000; stroke-width: 0.8"/>
      </g>
     </g>
     <g id="text_6">
      <text style="font: 10px 'Arial', sans-serif; text-anchor: end" x="41.851283" y="81.641934" transform="rotate(-0 41.851283 81.641934)">0.6</text>
     </g>
    </g>
    <g id="ytick_6">
     <g id="line2d_6">
      <g>
       <use xlink:href="#m1f326ff178" x="48.851283" y="34.181512" style="stroke: #000000; stroke-width: 0.8"/>
      </g>
     </g>
     <g id="text_7">
      <text style="font: 10px 'Arial', sans-serif; text-anchor: end" x="41.851283" y="37.760418" transform="rotate(-0 41.851283 37.760418)">0.8</text>
     </g>
    </g>
    <g id="text_8">
     <text style="font: 10px 'Arial', sans-serif; text-anchor: middle" x="16.005971" y="152.31998" transform="rotate(-90 16.005971 152.31998)">Activity</text>
    </g>
   </g>
   <g id="line2d_7">
    <path d="M 48.851283 255.091633 
L 60.011283 243.157453 
L 71.171283 223.092145 
L 82.331283 194.416908 
L 93.491283 170.271554 
L 104.651283 140.798137 
L 115.811283 106.265369 
L 126.971283 95.030019 
L 138.131283 83.373685 
L 149.291283 61.735252 
L 160.451283 70.080624 
L 171.611283 93.406448 
L 182.771283 110.848897 
L 193.931283 118.377179 
L 205.091283 118.78965 
L 216.251283 120.866012 
L 227.411283 112.11274 
L 238.571283 123.673084 
L 249.731283 143.616874 
L 260.891283 154.753827 
L 272.051283 159.991607 
L 283.211283 169.997857 
L 294.371283 183.046217 
L 305.531283 190.712626 
L 316.691283 184.721801 
L 327.851283 185.521653 
L 339.011283 198.993999 
L 350.171283 190.290901 
L 361.331283 171.689221 
L 372.491283 178.736286 
L 383.651283 205.583779 
L 394.811283 209.255328 
L 405.971283 192.744666 
" clip-path="url(#p0b56337994)" style="fill: none; stroke: #1f77b4; stroke-width: 1.5; stroke-linecap: square"/>
   </g>
   <g id="line2d_8">
    <path d="M 48.851283 247.94845 
L 60.011283 234.109042 
L 71.171283 212.200745 
L 82.331283 188.575959 
L 93.491283 168.507587 
L 104.651283 130.796598 
L 115.811283 96.676725 
L 126.971283 80.316823 
L 138.131283 71.509677 
L 149.291283 69.407985 
L 160.451283 83.620763 
L 171.611283 81.568634 
L 182.771283 68.797661 
L 193.931283 79.217916 
L 205.091283 103.41618 
L 216.251283 121.71093 
L 227.411283 134.453446 
L 238.571283 144.084697 
L 249.731283 152.35733 
L 260.891283 158.806364 
L 272.051283 154.560447 
L 283.211283 142.686402 
L 294.371283 143.689841 
L 305.531283 155.843847 
L 316.691283 166.780338 
L 327.851283 173.196963 
L 339.011283 172.709717 
L 350.171283 175.25547 
L 361.331283 178.967624 
L 372.491283 188.58092 
L 383.651283 201.367438 
L 394.811283 210.83866 
L 405.971283 214.659577 
" clip-path="url(#p0b56337994)" style="fill: none; stroke: #ff7f0e; stroke-width: 1.5; stroke-linecap: square"/>
   </g>
   <g id="line2d_9">
    <path d="M 82.331283 285.37598 
L 82.331283 19.26398 
" clip-path="url(#p0b56337994)" style="fill: none; stroke-dasharray: 5.55,2.4; stroke-dashoffset: 0; stroke: #000000; stroke-opacity: 0.5; stroke-width: 1.5"/>
   </g>
   <g id="line2d_10">
    <path d="M 383.651283 285.37598 
L 383.651283 19.26398 
" clip-path="url(#p0b56337994)" style="fill: none; stroke-dasharray: 5.55,2.4; stroke-dashoffset: 0; stroke: #000000; stroke-opacity: 0.5; stroke-width: 1.5"/>
   </g>
   <g id="patch_3">
    <path d="M 48.851283 285.37598 
L 405.971283 285.37598 
" style="fill: none; stroke: #000000; stroke-width: 0.8; stroke-linejoin: miter; stroke-linecap: square"/>
   </g>
   <g id="text_9">
    <text style="font: 6.94px 'Arial', sans-serif" transform="translate(10.097767 321.385533) rotate(-35)">-0.1s Sampling</text>
   </g>
   <g id="text_10">
    <text style="font: 6.94px 'Arial', sans-serif" transform="translate(57.794497 311.430872) rotate(-35)">Sampling</text>
   </g>
   <g id="text_11">
    <text style="font: 6.94px 'Arial', sans-serif" transform="translate(319.037191 339.456682) rotate(-35)">Movement to Lateral Port</text>
   </g>
   <g id="text_12">
    <text style="font: 8.33px 'Arial', sans-serif; text-anchor: middle" x="227.411283" y="13.26398" transform="rotate(-0 227.411283 13.26398)">GP4_28_S6_L40_D250_M2L - Trace:97_GP4_28_S6_L40_D250_M2L (when: correct)</text>
   </g>
   <g id="legend_1">
    <g id="patch_4">
     <path d="M 133.696342 354.133136 
L 321.126224 354.133136 
Q 322.514224 354.133136 322.514224 352.745136 
L 322.514224 343.45638 
Q 322.514224 342.06838 321.126224 342.06838 
L 133.696342 342.06838 
Q 132.308342 342.06838 132.308342 343.45638 
L 132.308342 352.745136 
Q 132.308342 354.133136 133.696342 354.133136 
z
" style="fill: #ffffff; opacity: 0.8; stroke: #cccccc; stroke-linejoin: miter"/>
    </g>
    <g id="line2d_11">
     <path d="M 135.084342 347.467483 
L 142.024342 347.467483 
L 148.964342 347.467483 
" style="fill: none; stroke: #1f77b4; stroke-width: 1.5; stroke-linecap: square"/>
    </g>
    <g id="text_13">
     <text style="font: 6.94px 'Arial', sans-serif; text-anchor: start" x="154.516342" y="349.896483" transform="rotate(-0 154.516342 349.896483)">DecisionRight (90 pts)</text>
    </g>
    <g id="line2d_12">
     <path d="M 236.664255 347.467483 
L 243.604255 347.467483 
L 250.544255 347.467483 
" style="fill: none; stroke: #ff7f0e; stroke-width: 1.5; stroke-linecap: square"/>
    </g>
    <g id="text_14">
     <text style="font: 6.94px 'Arial', sans-serif; text-anchor: start" x="256.096255" y="349.896483" transform="rotate(-0 256.096255 349.896483)">DecisionLeft (78 pts)</text>
    </g>
   </g>
  </g>
 </g>
 <defs>
  <clipPath id="p0b56337994">
   <rect x="48.851283" y="19.26398" width="357.12" height="266.112"/>
  </clipPath>
 </defs>
</svg>
