<?xml version="1.0" encoding="utf-8" standalone="no"?>
<!DOCTYPE svg PUBLIC "-//W3C//DTD SVG 1.1//EN"
  "http://www.w3.org/Graphics/SVG/1.1/DTD/svg11.dtd">
<svg xmlns:xlink="http://www.w3.org/1999/xlink" width="311.269675pt" height="371.324567pt" viewBox="0 0 311.269675 371.324567" xmlns="http://www.w3.org/2000/svg" version="1.1">
 <metadata>
  <rdf:RDF xmlns:dc="http://purl.org/dc/elements/1.1/" xmlns:cc="http://creativecommons.org/ns#" xmlns:rdf="http://www.w3.org/1999/02/22-rdf-syntax-ns#">
   <cc:Work>
    <dc:type rdf:resource="http://purl.org/dc/dcmitype/StillImage"/>
    <dc:date>2025-12-17T23:21:11.994995</dc:date>
    <dc:format>image/svg+xml</dc:format>
    <dc:creator>
     <cc:Agent>
      <dc:title>Matplotlib v3.8.0, https://matplotlib.org/</dc:title>
     </cc:Agent>
    </dc:creator>
   </cc:Work>
  </rdf:RDF>
 </metadata>
 <defs>
  <style type="text/css">*{stroke-linejoin: round; stroke-linecap: butt}</style>
 </defs>
 <g id="figure_1">
  <g id="patch_1">
   <path d="M 0 371.324567 
L 311.269675 371.324567 
L 311.269675 -0 
L 0 -0 
z
" style="fill: #ffffff"/>
  </g>
  <g id="axes_1">
   <g id="patch_2">
    <path d="M 53.201562 285.37598 
L 285.42194 285.37598 
L 285.42194 19.26398 
L 53.201562 19.26398 
z
" style="fill: #ffffff"/>
   </g>
   <g id="PolyCollection_1">
    <defs>
     <path id="mfd32b79b24" d="M 53.201562 -321.772471 
L 53.201562 -315.177569 
L 59.477789 -326.549128 
L 65.754015 -334.814838 
L 72.030242 -340.779717 
L 78.306468 -344.821619 
L 84.582695 -347.834094 
L 90.858921 -349.335745 
L 97.135147 -348.847659 
L 103.411374 -346.521329 
L 109.6876 -343.141017 
L 115.963827 -338.656055 
L 122.240053 -333.672839 
L 128.516279 -327.239246 
L 134.792506 -319.116633 
L 141.068732 -310.362029 
L 147.344959 -300.675472 
L 153.621185 -290.811602 
L 159.897412 -279.857769 
L 166.173638 -268.147908 
L 172.449864 -256.141406 
L 178.726091 -243.793309 
L 185.002317 -231.897915 
L 191.278544 -220.482155 
L 197.55477 -209.388303 
L 203.830996 -198.495212 
L 210.107223 -187.47547 
L 216.383449 -176.97795 
L 222.659676 -166.59808 
L 228.935902 -156.489225 
L 235.212129 -146.921726 
L 241.488355 -138.31521 
L 247.764581 -131.115303 
L 254.040808 -125.329331 
L 260.317034 -122.080205 
L 266.593261 -124.541724 
L 272.869487 -134.572245 
L 279.145713 -150.920682 
L 285.42194 -170.366285 
L 285.42194 -174.338778 
L 285.42194 -174.338778 
L 279.145713 -154.899594 
L 272.869487 -138.62127 
L 266.593261 -128.702079 
L 260.317034 -126.345305 
L 254.040808 -129.66078 
L 247.764581 -135.499979 
L 241.488355 -142.768658 
L 235.212129 -151.444104 
L 228.935902 -161.092108 
L 222.659676 -171.293087 
L 216.383449 -181.758235 
L 210.107223 -192.365028 
L 203.830996 -203.490586 
L 197.55477 -214.484274 
L 191.278544 -225.677982 
L 185.002317 -237.176921 
L 178.726091 -249.165117 
L 172.449864 -261.605502 
L 166.173638 -273.722765 
L 159.897412 -285.50547 
L 153.621185 -296.521866 
L 147.344959 -306.442612 
L 141.068732 -316.210378 
L 134.792506 -325.032004 
L 128.516279 -333.193463 
L 122.240053 -339.667181 
L 115.963827 -344.69564 
L 109.6876 -349.233513 
L 103.411374 -352.682988 
L 97.135147 -355.07438 
L 90.858921 -355.637523 
L 84.582695 -354.187377 
L 78.306468 -351.201388 
L 72.030242 -347.17442 
L 65.754015 -341.240883 
L 59.477789 -333.061445 
L 53.201562 -321.772471 
z
" style="stroke: #ffff00; stroke-opacity: 0.2"/>
    </defs>
    <g clip-path="url(#p1c175508d0)">
     <use xlink:href="#mfd32b79b24" x="0" y="371.324567" style="fill: #ffff00; fill-opacity: 0.2; stroke: #ffff00; stroke-opacity: 0.2"/>
    </g>
   </g>
   <g id="PolyCollection_2">
    <defs>
     <path id="maa2486c25f" d="M 53.201562 -282.62368 
L 53.201562 -276.377627 
L 59.477789 -284.912122 
L 65.754015 -290.777006 
L 72.030242 -294.935715 
L 78.306468 -299.118582 
L 84.582695 -304.741645 
L 90.858921 -311.042181 
L 97.135147 -316.593037 
L 103.411374 -320.056944 
L 109.6876 -322.362317 
L 115.963827 -322.755586 
L 122.240053 -322.582306 
L 128.516279 -319.836536 
L 134.792506 -314.10456 
L 141.068732 -307.363336 
L 147.344959 -299.118792 
L 153.621185 -290.817969 
L 159.897412 -280.753616 
L 166.173638 -269.545767 
L 172.449864 -257.763863 
L 178.726091 -245.338262 
L 185.002317 -233.333232 
L 191.278544 -221.958746 
L 197.55477 -210.626343 
L 203.830996 -199.182532 
L 210.107223 -186.779895 
L 216.383449 -174.931284 
L 222.659676 -163.066585 
L 228.935902 -151.241634 
L 235.212129 -139.899887 
L 241.488355 -129.860381 
L 247.764581 -121.494788 
L 254.040808 -114.877163 
L 260.317034 -111.618102 
L 266.593261 -117.404725 
L 272.869487 -135.700866 
L 279.145713 -163.019674 
L 285.42194 -191.574309 
L 285.42194 -196.039239 
L 285.42194 -196.039239 
L 279.145713 -167.683707 
L 272.869487 -140.537894 
L 266.593261 -122.392317 
L 260.317034 -116.680423 
L 254.040808 -119.958832 
L 247.764581 -126.603736 
L 241.488355 -135.007157 
L 235.212129 -145.077877 
L 228.935902 -156.479599 
L 222.659676 -168.384666 
L 216.383449 -180.35039 
L 210.107223 -192.30554 
L 203.830996 -204.84946 
L 197.55477 -216.440949 
L 191.278544 -227.910738 
L 185.002317 -239.376078 
L 178.726091 -251.430675 
L 172.449864 -263.854526 
L 166.173638 -275.648962 
L 159.897412 -286.791629 
L 153.621185 -296.778201 
L 147.344959 -304.972946 
L 141.068732 -313.150887 
L 134.792506 -319.854628 
L 128.516279 -325.519162 
L 122.240053 -328.191161 
L 115.963827 -328.313579 
L 109.6876 -327.912889 
L 103.411374 -325.658182 
L 97.135147 -322.279853 
L 90.858921 -316.835658 
L 84.582695 -310.578906 
L 78.306468 -304.998729 
L 72.030242 -300.84097 
L 65.754015 -296.751424 
L 59.477789 -291.028141 
L 53.201562 -282.62368 
z
" style="stroke: #6e4018; stroke-opacity: 0.2"/>
    </defs>
    <g clip-path="url(#p1c175508d0)">
     <use xlink:href="#maa2486c25f" x="0" y="371.324567" style="fill: #6e4018; fill-opacity: 0.2; stroke: #6e4018; stroke-opacity: 0.2"/>
    </g>
   </g>
   <g id="PolyCollection_3">
    <defs>
     <path id="mf4134bc281" d="M 53.201562 -308.839504 
L 53.201562 -301.630866 
L 59.477789 -312.685838 
L 65.754015 -320.329313 
L 72.030242 -325.150113 
L 78.306468 -328.582245 
L 84.582695 -330.867185 
L 90.858921 -331.499438 
L 97.135147 -330.103491 
L 103.411374 -327.5753 
L 109.6876 -325.430405 
L 115.963827 -323.046667 
L 122.240053 -320.733535 
L 128.516279 -317.120799 
L 134.792506 -312.09858 
L 141.068732 -306.412737 
L 147.344959 -299.727919 
L 153.621185 -293.043234 
L 159.897412 -285.226494 
L 166.173638 -276.6791 
L 172.449864 -267.753622 
L 178.726091 -258.383793 
L 185.002317 -249.325535 
L 191.278544 -240.566909 
L 197.55477 -232.093028 
L 203.830996 -223.616732 
L 210.107223 -214.796509 
L 216.383449 -206.402333 
L 222.659676 -198.42813 
L 228.935902 -190.426353 
L 235.212129 -182.567064 
L 241.488355 -175.370876 
L 247.764581 -169.646939 
L 254.040808 -164.985716 
L 260.317034 -161.581709 
L 266.593261 -162.811945 
L 272.869487 -171.116938 
L 279.145713 -185.944416 
L 285.42194 -203.432397 
L 285.42194 -208.008467 
L 285.42194 -208.008467 
L 279.145713 -190.522841 
L 272.869487 -175.776018 
L 266.593261 -167.559699 
L 260.317034 -166.380287 
L 254.040808 -169.802266 
L 247.764581 -174.485605 
L 241.488355 -180.249772 
L 235.212129 -187.465159 
L 228.935902 -195.371037 
L 222.659676 -203.430875 
L 216.383449 -211.455217 
L 210.107223 -219.943562 
L 203.830996 -228.873998 
L 197.55477 -237.484434 
L 191.278544 -246.091032 
L 185.002317 -254.961459 
L 178.726091 -264.135103 
L 172.449864 -273.626092 
L 166.173638 -282.692079 
L 159.897412 -291.353736 
L 153.621185 -299.257834 
L 147.344959 -306.024445 
L 141.068732 -312.793285 
L 134.792506 -318.571169 
L 128.516279 -323.665198 
L 122.240053 -327.349251 
L 115.963827 -329.717315 
L 109.6876 -332.125609 
L 103.411374 -334.295718 
L 97.135147 -336.862066 
L 90.858921 -338.318953 
L 84.582695 -337.738975 
L 78.306468 -335.465542 
L 72.030242 -332.07884 
L 65.754015 -327.321935 
L 59.477789 -319.798888 
L 53.201562 -308.839504 
z
" style="stroke: #008000; stroke-opacity: 0.2"/>
    </defs>
    <g clip-path="url(#p1c175508d0)">
     <use xlink:href="#mf4134bc281" x="0" y="371.324567" style="fill: #008000; fill-opacity: 0.2; stroke: #008000; stroke-opacity: 0.2"/>
    </g>
   </g>
   <g id="PolyCollection_4">
    <defs>
     <path id="mdb7c1e63dd" d="M 53.201562 -296.296094 
L 53.201562 -289.845067 
L 59.477789 -297.806566 
L 65.754015 -302.097793 
L 72.030242 -303.746268 
L 78.306468 -305.164953 
L 84.582695 -308.365215 
L 90.858921 -312.197692 
L 97.135147 -315.388692 
L 103.411374 -316.521092 
L 109.6876 -316.680462 
L 115.963827 -315.100529 
L 122.240053 -312.900874 
L 128.516279 -308.489084 
L 134.792506 -300.95435 
L 141.068732 -292.794066 
L 147.344959 -283.32954 
L 153.621185 -274.118719 
L 159.897412 -263.380622 
L 166.173638 -251.910688 
L 172.449864 -240.228635 
L 178.726091 -228.032124 
L 185.002317 -216.281643 
L 191.278544 -205.545101 
L 197.55477 -195.281726 
L 203.830996 -185.273457 
L 210.107223 -174.180361 
L 216.383449 -164.098687 
L 222.659676 -154.059069 
L 228.935902 -144.217024 
L 235.212129 -134.89858 
L 241.488355 -127.186886 
L 247.764581 -121.136886 
L 254.040808 -116.220229 
L 260.317034 -113.710766 
L 266.593261 -119.995232 
L 272.869487 -140.385518 
L 279.145713 -172.184381 
L 285.42194 -206.069154 
L 285.42194 -210.654469 
L 285.42194 -210.654469 
L 279.145713 -176.831631 
L 272.869487 -145.058634 
L 266.593261 -124.74532 
L 260.317034 -118.50389 
L 254.040808 -121.010421 
L 247.764581 -125.946755 
L 241.488355 -132.034777 
L 235.212129 -139.766164 
L 228.935902 -149.129502 
L 222.659676 -159.019345 
L 216.383449 -169.137523 
L 210.107223 -179.312136 
L 203.830996 -190.540769 
L 197.55477 -200.700424 
L 191.278544 -211.109533 
L 185.002317 -221.93558 
L 178.726091 -233.745096 
L 172.449864 -245.960085 
L 166.173638 -257.721126 
L 159.897412 -269.195198 
L 153.621185 -279.925652 
L 147.344959 -289.082196 
L 141.068732 -298.530816 
L 134.792506 -306.686551 
L 128.516279 -314.169495 
L 122.240053 -318.523271 
L 115.963827 -320.699118 
L 109.6876 -322.305014 
L 103.411374 -322.203732 
L 97.135147 -321.161638 
L 90.858921 -318.057129 
L 84.582695 -314.30134 
L 78.306468 -311.165018 
L 72.030242 -309.810243 
L 65.754015 -308.272185 
L 59.477789 -304.13278 
L 53.201562 -296.296094 
z
" style="stroke: #800080; stroke-opacity: 0.2"/>
    </defs>
    <g clip-path="url(#p1c175508d0)">
     <use xlink:href="#mdb7c1e63dd" x="0" y="371.324567" style="fill: #800080; fill-opacity: 0.2; stroke: #800080; stroke-opacity: 0.2"/>
    </g>
   </g>
   <g id="matplotlib.axis_1">
    <g id="text_1">
     <text style="font: 10px 'Arial', sans-serif; text-anchor: middle" x="169.311751" y="296.655667" transform="rotate(-0 169.311751 296.655667)">Normalized Time (s)</text>
    </g>
   </g>
   <g id="matplotlib.axis_2">
    <g id="ytick_1">
     <g id="line2d_1">
      <defs>
       <path id="ma4222db237" d="M 0 0 
L -3.5 0 
" style="stroke: #000000; stroke-width: 0.8"/>
      </defs>
      <g>
       <use xlink:href="#ma4222db237" x="53.201562" y="285.37598" style="stroke: #000000; stroke-width: 0.8"/>
      </g>
     </g>
     <g id="text_2">
      <text style="font: 10px 'Arial', sans-serif; text-anchor: end" x="46.201562" y="288.954886" transform="rotate(-0 46.201562 288.954886)">−1.00</text>
     </g>
    </g>
    <g id="ytick_2">
     <g id="line2d_2">
      <g>
       <use xlink:href="#ma4222db237" x="53.201562" y="253.994848" style="stroke: #000000; stroke-width: 0.8"/>
      </g>
     </g>
     <g id="text_3">
      <text style="font: 10px 'Arial', sans-serif; text-anchor: end" x="46.201562" y="257.573754" transform="rotate(-0 46.201562 257.573754)">−0.75</text>
     </g>
    </g>
    <g id="ytick_3">
     <g id="line2d_3">
      <g>
       <use xlink:href="#ma4222db237" x="53.201562" y="222.613716" style="stroke: #000000; stroke-width: 0.8"/>
      </g>
     </g>
     <g id="text_4">
      <text style="font: 10px 'Arial', sans-serif; text-anchor: end" x="46.201562" y="226.192622" transform="rotate(-0 46.201562 226.192622)">−0.50</text>
     </g>
    </g>
    <g id="ytick_4">
     <g id="line2d_4">
      <g>
       <use xlink:href="#ma4222db237" x="53.201562" y="191.232583" style="stroke: #000000; stroke-width: 0.8"/>
      </g>
     </g>
     <g id="text_5">
      <text style="font: 10px 'Arial', sans-serif; text-anchor: end" x="46.201562" y="194.81149" transform="rotate(-0 46.201562 194.81149)">−0.25</text>
     </g>
    </g>
    <g id="ytick_5">
     <g id="line2d_5">
      <g>
       <use xlink:href="#ma4222db237" x="53.201562" y="159.851451" style="stroke: #000000; stroke-width: 0.8"/>
      </g>
     </g>
     <g id="text_6">
      <text style="font: 10px 'Arial', sans-serif; text-anchor: end" x="46.201562" y="163.430358" transform="rotate(-0 46.201562 163.430358)">0.00</text>
     </g>
    </g>
    <g id="ytick_6">
     <g id="line2d_6">
      <g>
       <use xlink:href="#ma4222db237" x="53.201562" y="128.470319" style="stroke: #000000; stroke-width: 0.8"/>
      </g>
     </g>
     <g id="text_7">
      <text style="font: 10px 'Arial', sans-serif; text-anchor: end" x="46.201562" y="132.049226" transform="rotate(-0 46.201562 132.049226)">0.25</text>
     </g>
    </g>
    <g id="ytick_7">
     <g id="line2d_7">
      <g>
       <use xlink:href="#ma4222db237" x="53.201562" y="97.089187" style="stroke: #000000; stroke-width: 0.8"/>
      </g>
     </g>
     <g id="text_8">
      <text style="font: 10px 'Arial', sans-serif; text-anchor: end" x="46.201562" y="100.668093" transform="rotate(-0 46.201562 100.668093)">0.50</text>
     </g>
    </g>
    <g id="ytick_8">
     <g id="line2d_8">
      <g>
       <use xlink:href="#ma4222db237" x="53.201562" y="65.708055" style="stroke: #000000; stroke-width: 0.8"/>
      </g>
     </g>
     <g id="text_9">
      <text style="font: 10px 'Arial', sans-serif; text-anchor: end" x="46.201562" y="69.286961" transform="rotate(-0 46.201562 69.286961)">0.75</text>
     </g>
    </g>
    <g id="ytick_9">
     <g id="line2d_9">
      <g>
       <use xlink:href="#ma4222db237" x="53.201562" y="34.326923" style="stroke: #000000; stroke-width: 0.8"/>
      </g>
     </g>
     <g id="text_10">
      <text style="font: 10px 'Arial', sans-serif; text-anchor: end" x="46.201562" y="37.905829" transform="rotate(-0 46.201562 37.905829)">1.00</text>
     </g>
    </g>
    <g id="text_11">
     <!-- ZScore Normalized $\Delta F/F{0}$ Activity  -->
     <g transform="translate(14.7 229.16998) rotate(-90)">
      <text>
       <tspan style="font: 10px 'Arial'" x="0 6.108398 12.77832 17.77832 23.339844 26.669922 32.231445 35.009766 42.231445 47.792969 51.123047 59.453125 65.014648 67.236328 69.458008 74.458008 80.019531 85.581055 116.435547 119.213867 125.883789 130.883789 133.662109 135.883789 140.883789 143.105469 145.883789 150.883789" y="-0.578125">ZScore Normalized  Activity </tspan>
       <tspan style="font: 10px 'DejaVu Sans'" x="88.359375 100.952148 110.073242" y="-0.578125">Δ/0</tspan>
       <tspan style="font: oblique 10px 'DejaVu Sans'" x="95.200195 104.321289" y="-0.578125">FF</tspan>
      </text>
     </g>
    </g>
   </g>
   <g id="line2d_10">
    <path d="M 53.201562 52.849547 
L 59.477789 41.51928 
L 65.754015 33.296703 
L 72.030242 27.347499 
L 78.306468 23.313064 
L 84.582695 20.313832 
L 90.858921 18.837933 
L 97.135147 19.363547 
L 103.411374 21.722409 
L 109.6876 25.137302 
L 115.963827 29.64872 
L 122.240053 34.654553 
L 128.516279 41.108213 
L 134.792506 49.250248 
L 141.068732 58.038364 
L 147.344959 67.765525 
L 153.621185 77.657833 
L 159.897412 88.642947 
L 166.173638 100.389231 
L 172.449864 112.451113 
L 178.726091 124.845354 
L 185.002317 136.787149 
L 191.278544 148.244499 
L 197.55477 159.388279 
L 203.830996 170.331668 
L 210.107223 181.404318 
L 216.383449 191.956474 
L 222.659676 202.378984 
L 228.935902 212.533901 
L 235.212129 222.141652 
L 241.488355 230.782633 
L 247.764581 238.016926 
L 254.040808 243.829512 
L 260.317034 247.111812 
L 266.593261 244.702666 
L 272.869487 234.72781 
L 279.145713 218.414429 
L 285.42194 198.972036 
" clip-path="url(#p1c175508d0)" style="fill: none; stroke: #ffff00; stroke-width: 1.5; stroke-linecap: square"/>
   </g>
   <g id="line2d_11">
    <path d="M 53.201562 91.823914 
L 59.477789 83.354435 
L 65.754015 77.560352 
L 72.030242 73.436225 
L 78.306468 69.265912 
L 84.582695 63.664292 
L 90.858921 57.385647 
L 97.135147 51.888122 
L 103.411374 48.467004 
L 109.6876 46.186964 
L 115.963827 45.789985 
L 122.240053 45.937834 
L 128.516279 48.646718 
L 134.792506 54.344973 
L 141.068732 61.067456 
L 147.344959 69.278698 
L 153.621185 77.526482 
L 159.897412 87.551945 
L 166.173638 98.727203 
L 172.449864 110.515373 
L 178.726091 122.940099 
L 185.002317 134.969912 
L 191.278544 146.389825 
L 197.55477 157.790922 
L 203.830996 169.308571 
L 210.107223 181.78185 
L 216.383449 193.683729 
L 222.659676 205.598942 
L 228.935902 217.46395 
L 235.212129 228.835685 
L 241.488355 238.890798 
L 247.764581 247.275305 
L 254.040808 253.906569 
L 260.317034 257.175305 
L 266.593261 251.426046 
L 272.869487 233.205187 
L 279.145713 205.972877 
L 285.42194 177.517793 
" clip-path="url(#p1c175508d0)" style="fill: none; stroke: #6e4018; stroke-width: 1.5; stroke-linecap: square"/>
   </g>
   <g id="line2d_12">
    <path d="M 53.201562 66.089382 
L 59.477789 55.082204 
L 65.754015 47.498943 
L 72.030242 42.710091 
L 78.306468 39.300674 
L 84.582695 37.021487 
L 90.858921 36.415368 
L 97.135147 37.841789 
L 103.411374 40.389058 
L 109.6876 42.54656 
L 115.963827 44.942576 
L 122.240053 47.283174 
L 128.516279 50.931569 
L 134.792506 55.989692 
L 141.068732 61.721556 
L 147.344959 68.448386 
L 153.621185 75.174033 
L 159.897412 83.034452 
L 166.173638 91.638977 
L 172.449864 100.63471 
L 178.726091 110.065119 
L 185.002317 119.18107 
L 191.278544 127.995596 
L 197.55477 136.535836 
L 203.830996 145.079202 
L 210.107223 153.954532 
L 216.383449 162.395792 
L 222.659676 170.395065 
L 228.935902 178.425872 
L 235.212129 186.308456 
L 241.488355 193.514243 
L 247.764581 199.258295 
L 254.040808 203.930576 
L 260.317034 207.343569 
L 266.593261 206.138745 
L 272.869487 197.878089 
L 279.145713 183.090939 
L 285.42194 165.604135 
" clip-path="url(#p1c175508d0)" style="fill: none; stroke: #008000; stroke-width: 1.5; stroke-linecap: square"/>
   </g>
   <g id="line2d_13">
    <path d="M 53.201562 78.253987 
L 59.477789 70.354894 
L 65.754015 66.139578 
L 72.030242 64.546312 
L 78.306468 63.159582 
L 84.582695 59.99129 
L 90.858921 56.197156 
L 97.135147 53.049402 
L 103.411374 51.962155 
L 109.6876 51.831829 
L 115.963827 53.424744 
L 122.240053 55.612495 
L 128.516279 59.995278 
L 134.792506 67.504117 
L 141.068732 75.662126 
L 147.344959 85.118699 
L 153.621185 94.30238 
L 159.897412 105.036657 
L 166.173638 116.50866 
L 172.449864 128.230208 
L 178.726091 140.435957 
L 185.002317 152.215956 
L 191.278544 162.99725 
L 197.55477 173.333492 
L 203.830996 183.417454 
L 210.107223 194.578319 
L 216.383449 204.706462 
L 222.659676 214.78536 
L 228.935902 224.651306 
L 235.212129 233.992195 
L 241.488355 241.713736 
L 247.764581 247.782747 
L 254.040808 252.709242 
L 260.317034 255.217239 
L 266.593261 248.954291 
L 272.869487 228.602491 
L 279.145713 196.816561 
L 285.42194 162.962756 
" clip-path="url(#p1c175508d0)" style="fill: none; stroke: #800080; stroke-width: 1.5; stroke-linecap: square"/>
   </g>
   <g id="line2d_14">
    <path d="M 72.030242 285.37598 
L 72.030242 19.26398 
" clip-path="url(#p1c175508d0)" style="fill: none; stroke-dasharray: 5.55,2.4; stroke-dashoffset: 0; stroke: #000000; stroke-opacity: 0.5; stroke-width: 1.5"/>
   </g>
   <g id="line2d_15">
    <path d="M 272.869487 285.37598 
L 272.869487 19.26398 
" clip-path="url(#p1c175508d0)" style="fill: none; stroke-dasharray: 5.55,2.4; stroke-dashoffset: 0; stroke: #000000; stroke-opacity: 0.5; stroke-width: 1.5"/>
   </g>
   <g id="patch_3">
    <path d="M 53.201562 285.37598 
L 285.42194 285.37598 
" style="fill: none; stroke: #000000; stroke-width: 0.8; stroke-linejoin: miter; stroke-linecap: square"/>
   </g>
   <g id="text_12">
    <text style="font: 6.94px 'Arial', sans-serif" transform="translate(14.448047 321.385533) rotate(-35)">-0.1s Sampling</text>
   </g>
   <g id="text_13">
    <text style="font: 6.94px 'Arial', sans-serif" transform="translate(47.493455 311.430872) rotate(-35)">Sampling</text>
   </g>
   <g id="text_14">
    <text style="font: 6.94px 'Arial', sans-serif" transform="translate(208.255395 339.456682) rotate(-35)">Movement to Lateral Port</text>
   </g>
   <g id="text_15">
    <text style="font: 8.33px 'Arial', sans-serif; text-anchor: middle" x="169.311751" y="13.26398" transform="rotate(-0 169.311751 13.26398)">incl Typical Many Areas Clrs2 Comb - Multiple subjects n=6 mice/15 sess</text>
   </g>
   <g id="legend_1">
    <g id="patch_4">
     <path d="M 58.5564 364.124567 
L 280.067103 364.124567 
Q 281.455103 364.124567 281.455103 362.736567 
L 281.455103 343.45638 
Q 281.455103 342.06838 280.067103 342.06838 
L 58.5564 342.06838 
Q 57.1684 342.06838 57.1684 343.45638 
L 57.1684 362.736567 
Q 57.1684 364.124567 58.5564 364.124567 
z
" style="fill: #ffffff; opacity: 0.8; stroke: #cccccc; stroke-linejoin: miter"/>
    </g>
    <g id="line2d_16">
     <path d="M 59.9444 347.47182 
L 66.8844 347.47182 
L 73.8244 347.47182 
" style="fill: none; stroke: #ffff00; stroke-width: 1.5; stroke-linecap: square"/>
    </g>
    <g id="text_16">
     <text style="font: 6.94px 'Arial', sans-serif; text-anchor: start" x="79.3764" y="349.90082" transform="rotate(-0 79.3764 349.90082)">VISa (731 pts)</text>
    </g>
    <g id="line2d_17">
     <path d="M 59.9444 357.458914 
L 66.8844 357.458914 
L 73.8244 357.458914 
" style="fill: none; stroke: #6e4018; stroke-width: 1.5; stroke-linecap: square"/>
    </g>
    <g id="text_17">
     <text style="font: 6.94px 'Arial', sans-serif; text-anchor: start" x="79.3764" y="359.887914" transform="rotate(-0 79.3764 359.887914)">MOp (731 pts)</text>
    </g>
    <g id="line2d_18">
     <path d="M 137.614928 347.47182 
L 144.554928 347.47182 
L 151.494928 347.47182 
" style="fill: none; stroke: #008000; stroke-width: 1.5; stroke-linecap: square"/>
    </g>
    <g id="text_18">
     <text style="font: 6.94px 'Arial', sans-serif; text-anchor: start" x="157.046928" y="349.90082" transform="rotate(-0 157.046928 349.90082)">VISp (731 pts)</text>
    </g>
    <g id="line2d_19">
     <path d="M 215.285456 347.47182 
L 222.225456 347.47182 
L 229.165456 347.47182 
" style="fill: none; stroke: #800080; stroke-width: 1.5; stroke-linecap: square"/>
    </g>
    <g id="text_19">
     <text style="font: 6.94px 'Arial', sans-serif; text-anchor: start" x="234.717456" y="349.90082" transform="rotate(-0 234.717456 349.90082)">MOs (731 pts)</text>
    </g>
   </g>
  </g>
 </g>
 <defs>
  <clipPath id="p1c175508d0">
   <rect x="53.201562" y="19.26398" width="232.220377" height="266.112"/>
  </clipPath>
 </defs>
</svg>
