<?xml version="1.0" encoding="utf-8" standalone="no"?>
<!DOCTYPE svg PUBLIC "-//W3C//DTD SVG 1.1//EN"
  "http://www.w3.org/Graphics/SVG/1.1/DTD/svg11.dtd">
<svg xmlns:xlink="http://www.w3.org/1999/xlink" width="413.171283pt" height="361.333136pt" viewBox="0 0 413.171283 361.333136" xmlns="http://www.w3.org/2000/svg" version="1.1">
 <metadata>
  <rdf:RDF xmlns:dc="http://purl.org/dc/elements/1.1/" xmlns:cc="http://creativecommons.org/ns#" xmlns:rdf="http://www.w3.org/1999/02/22-rdf-syntax-ns#">
   <cc:Work>
    <dc:type rdf:resource="http://purl.org/dc/dcmitype/StillImage"/>
    <dc:date>2025-12-29T04:07:35.558835</dc:date>
    <dc:format>image/svg+xml</dc:format>
    <dc:creator>
     <cc:Agent>
      <dc:title>Matplotlib v3.8.0, https://matplotlib.org/</dc:title>
     </cc:Agent>
    </dc:creator>
   </cc:Work>
  </rdf:RDF>
 </metadata>
 <defs>
  <style type="text/css">*{stroke-linejoin: round; stroke-linecap: butt}</style>
 </defs>
 <g id="figure_1">
  <g id="patch_1">
   <path d="M 0 361.333136 
L 413.171283 361.333136 
L 413.171283 -0 
L 0 -0 
z
" style="fill: #ffffff"/>
  </g>
  <g id="axes_1">
   <g id="patch_2">
    <path d="M 48.851283 285.37598 
L 405.971283 285.37598 
L 405.971283 19.26398 
L 48.851283 19.26398 
z
" style="fill: #ffffff"/>
   </g>
   <g id="PolyCollection_1">
    <defs>
     <path id="m2a88d4b242" d="M 48.851283 -131.204949 
L 48.851283 -88.053156 
L 60.011283 -103.352449 
L 71.171283 -106.471086 
L 82.331283 -119.554327 
L 93.491283 -134.608586 
L 104.651283 -153.031185 
L 115.811283 -171.78304 
L 126.971283 -187.303812 
L 138.131283 -189.702081 
L 149.291283 -213.212319 
L 160.451283 -216.192757 
L 171.611283 -216.796466 
L 182.771283 -209.416422 
L 193.931283 -213.377125 
L 205.091283 -212.48584 
L 216.251283 -199.052448 
L 227.411283 -183.871127 
L 238.571283 -176.476615 
L 249.731283 -179.215428 
L 260.891283 -192.933365 
L 272.051283 -185.338774 
L 283.211283 -175.013087 
L 294.371283 -178.467461 
L 305.531283 -164.972645 
L 316.691283 -140.078807 
L 327.851283 -134.377499 
L 339.011283 -146.60228 
L 350.171283 -157.030606 
L 361.331283 -164.101973 
L 372.491283 -158.511145 
L 383.651283 -165.016763 
L 394.811283 -150.915644 
L 405.971283 -152.019599 
L 405.971283 -203.581341 
L 405.971283 -203.581341 
L 394.811283 -200.738259 
L 383.651283 -214.538715 
L 372.491283 -211.095573 
L 361.331283 -219.418964 
L 350.171283 -215.07448 
L 339.011283 -207.638896 
L 327.851283 -198.777735 
L 316.691283 -201.012578 
L 305.531283 -220.04399 
L 294.371283 -234.513799 
L 283.211283 -231.490545 
L 272.051283 -247.665887 
L 260.891283 -261.906304 
L 249.731283 -251.654499 
L 238.571283 -249.348415 
L 227.411283 -255.077264 
L 216.251283 -268.727213 
L 205.091283 -282.12795 
L 193.931283 -280.093303 
L 182.771283 -269.976777 
L 171.611283 -275.07619 
L 160.451283 -273.523531 
L 149.291283 -267.030467 
L 138.131283 -238.51686 
L 126.971283 -242.088075 
L 115.811283 -222.992321 
L 104.651283 -198.353368 
L 93.491283 -172.619738 
L 82.331283 -158.653958 
L 71.171283 -145.534358 
L 60.011283 -142.554688 
L 48.851283 -131.204949 
z
" style="stroke: #1f77b4; stroke-opacity: 0.2"/>
    </defs>
    <g clip-path="url(#pad527af6c9)">
     <use xlink:href="#m2a88d4b242" x="0" y="361.333136" style="fill: #1f77b4; fill-opacity: 0.2; stroke: #1f77b4; stroke-opacity: 0.2"/>
    </g>
   </g>
   <g id="PolyCollection_2">
    <defs>
     <path id="m4aea325c93" d="M 48.851283 -227.009272 
L 48.851283 -157.929283 
L 60.011283 -165.480922 
L 71.171283 -180.585711 
L 82.331283 -178.953957 
L 93.491283 -195.513877 
L 104.651283 -204.423869 
L 115.811283 -204.509921 
L 126.971283 -199.985878 
L 138.131283 -215.763074 
L 149.291283 -237.921694 
L 160.451283 -246.720373 
L 171.611283 -238.77462 
L 182.771283 -247.508538 
L 193.931283 -261.441814 
L 205.091283 -260.743927 
L 216.251283 -243.026641 
L 227.411283 -229.675018 
L 238.571283 -219.644657 
L 249.731283 -231.151746 
L 260.891283 -242.465995 
L 272.051283 -239.486893 
L 283.211283 -228.250752 
L 294.371283 -225.688126 
L 305.531283 -211.815247 
L 316.691283 -204.549682 
L 327.851283 -216.434119 
L 339.011283 -216.243555 
L 350.171283 -205.651546 
L 361.331283 -194.247581 
L 372.491283 -207.732577 
L 383.651283 -208.727962 
L 394.811283 -183.627897 
L 405.971283 -152.548434 
L 405.971283 -202.028771 
L 405.971283 -202.028771 
L 394.811283 -229.277558 
L 383.651283 -253.323224 
L 372.491283 -255.735513 
L 361.331283 -245.354322 
L 350.171283 -261.43594 
L 339.011283 -276.391383 
L 327.851283 -276.726753 
L 316.691283 -264.154479 
L 305.531283 -272.185316 
L 294.371283 -286.401687 
L 283.211283 -292.032761 
L 272.051283 -307.295917 
L 260.891283 -312.01161 
L 249.731283 -302.72622 
L 238.571283 -290.68891 
L 227.411283 -300.897936 
L 216.251283 -313.417232 
L 205.091283 -329.973156 
L 193.931283 -328.820581 
L 182.771283 -313.667896 
L 171.611283 -306.966096 
L 160.451283 -310.191442 
L 149.291283 -306.101159 
L 138.131283 -287.732898 
L 126.971283 -273.472763 
L 115.811283 -275.419265 
L 104.651283 -264.396628 
L 93.491283 -252.305741 
L 82.331283 -231.134366 
L 71.171283 -237.955974 
L 60.011283 -226.279163 
L 48.851283 -227.009272 
z
" style="stroke: #ff7f0e; stroke-opacity: 0.2"/>
    </defs>
    <g clip-path="url(#pad527af6c9)">
     <use xlink:href="#m4aea325c93" x="0" y="361.333136" style="fill: #ff7f0e; fill-opacity: 0.2; stroke: #ff7f0e; stroke-opacity: 0.2"/>
    </g>
   </g>
   <g id="matplotlib.axis_1">
    <g id="text_1">
     <text style="font: 10px 'Arial', sans-serif; text-anchor: middle" x="227.411283" y="296.533792" transform="rotate(-0 227.411283 296.533792)">Time</text>
    </g>
   </g>
   <g id="matplotlib.axis_2">
    <g id="ytick_1">
     <g id="line2d_1">
      <defs>
       <path id="m4cd8be4d78" d="M 0 0 
L -3.5 0 
" style="stroke: #000000; stroke-width: 0.8"/>
      </defs>
      <g>
       <use xlink:href="#m4cd8be4d78" x="48.851283" y="262.714307" style="stroke: #000000; stroke-width: 0.8"/>
      </g>
     </g>
     <g id="text_2">
      <text style="font: 10px 'Arial', sans-serif; text-anchor: end" x="41.851283" y="266.293214" transform="rotate(-0 41.851283 266.293214)">−0.4</text>
     </g>
    </g>
    <g id="ytick_2">
     <g id="line2d_2">
      <g>
       <use xlink:href="#m4cd8be4d78" x="48.851283" y="220.818969" style="stroke: #000000; stroke-width: 0.8"/>
      </g>
     </g>
     <g id="text_3">
      <text style="font: 10px 'Arial', sans-serif; text-anchor: end" x="41.851283" y="224.397876" transform="rotate(-0 41.851283 224.397876)">−0.3</text>
     </g>
    </g>
    <g id="ytick_3">
     <g id="line2d_3">
      <g>
       <use xlink:href="#m4cd8be4d78" x="48.851283" y="178.923631" style="stroke: #000000; stroke-width: 0.8"/>
      </g>
     </g>
     <g id="text_4">
      <text style="font: 10px 'Arial', sans-serif; text-anchor: end" x="41.851283" y="182.502538" transform="rotate(-0 41.851283 182.502538)">−0.2</text>
     </g>
    </g>
    <g id="ytick_4">
     <g id="line2d_4">
      <g>
       <use xlink:href="#m4cd8be4d78" x="48.851283" y="137.028293" style="stroke: #000000; stroke-width: 0.8"/>
      </g>
     </g>
     <g id="text_5">
      <text style="font: 10px 'Arial', sans-serif; text-anchor: end" x="41.851283" y="140.6072" transform="rotate(-0 41.851283 140.6072)">−0.1</text>
     </g>
    </g>
    <g id="ytick_5">
     <g id="line2d_5">
      <g>
       <use xlink:href="#m4cd8be4d78" x="48.851283" y="95.132955" style="stroke: #000000; stroke-width: 0.8"/>
      </g>
     </g>
     <g id="text_6">
      <text style="font: 10px 'Arial', sans-serif; text-anchor: end" x="41.851283" y="98.711862" transform="rotate(-0 41.851283 98.711862)">0.0</text>
     </g>
    </g>
    <g id="ytick_6">
     <g id="line2d_6">
      <g>
       <use xlink:href="#m4cd8be4d78" x="48.851283" y="53.237617" style="stroke: #000000; stroke-width: 0.8"/>
      </g>
     </g>
     <g id="text_7">
      <text style="font: 10px 'Arial', sans-serif; text-anchor: end" x="41.851283" y="56.816524" transform="rotate(-0 41.851283 56.816524)">0.1</text>
     </g>
    </g>
    <g id="text_8">
     <text style="font: 10px 'Arial', sans-serif; text-anchor: middle" x="16.005971" y="152.31998" transform="rotate(-90 16.005971 152.31998)">Activity</text>
    </g>
   </g>
   <g id="line2d_7">
    <path d="M 48.851283 251.704083 
L 60.011283 238.379567 
L 71.171283 235.330414 
L 82.331283 222.228994 
L 93.491283 207.718977 
L 104.651283 185.640859 
L 115.811283 163.945455 
L 126.971283 146.637191 
L 138.131283 147.223664 
L 149.291283 121.211743 
L 160.451283 116.474991 
L 171.611283 115.396808 
L 182.771283 121.636535 
L 193.931283 114.597924 
L 205.091283 114.026242 
L 216.251283 127.443307 
L 227.411283 141.858941 
L 238.571283 148.420619 
L 249.731283 145.898173 
L 260.891283 133.9133 
L 272.051283 144.830807 
L 283.211283 158.08132 
L 294.371283 154.842508 
L 305.531283 168.824819 
L 316.691283 190.787443 
L 327.851283 194.755519 
L 339.011283 184.212548 
L 350.171283 175.280593 
L 361.331283 169.572667 
L 372.491283 176.529777 
L 383.651283 171.555397 
L 394.811283 185.506181 
L 405.971283 183.532666 
" clip-path="url(#pad527af6c9)" style="fill: none; stroke: #1f77b4; stroke-width: 1.5; stroke-linecap: square"/>
   </g>
   <g id="line2d_8">
    <path d="M 48.851283 168.863862 
L 60.011283 165.453095 
L 71.171283 152.062292 
L 82.331283 156.288973 
L 93.491283 137.423329 
L 104.651283 126.922887 
L 115.811283 121.368543 
L 126.971283 124.603815 
L 138.131283 109.58515 
L 149.291283 89.321708 
L 160.451283 82.877228 
L 171.611283 88.462777 
L 182.771283 80.744919 
L 193.931283 66.20194 
L 205.091283 65.974593 
L 216.251283 83.1112 
L 227.411283 96.046659 
L 238.571283 106.166353 
L 249.731283 94.394152 
L 260.891283 84.094333 
L 272.051283 87.94173 
L 283.211283 101.191379 
L 294.371283 105.288228 
L 305.531283 119.332854 
L 316.691283 126.981056 
L 327.851283 114.752699 
L 339.011283 115.015667 
L 350.171283 127.789395 
L 361.331283 141.532185 
L 372.491283 129.59909 
L 383.651283 130.307543 
L 394.811283 154.880408 
L 405.971283 184.044533 
" clip-path="url(#pad527af6c9)" style="fill: none; stroke: #ff7f0e; stroke-width: 1.5; stroke-linecap: square"/>
   </g>
   <g id="line2d_9">
    <path d="M 82.331283 285.37598 
L 82.331283 19.26398 
" clip-path="url(#pad527af6c9)" style="fill: none; stroke-dasharray: 5.55,2.4; stroke-dashoffset: 0; stroke: #000000; stroke-opacity: 0.5; stroke-width: 1.5"/>
   </g>
   <g id="line2d_10">
    <path d="M 383.651283 285.37598 
L 383.651283 19.26398 
" clip-path="url(#pad527af6c9)" style="fill: none; stroke-dasharray: 5.55,2.4; stroke-dashoffset: 0; stroke: #000000; stroke-opacity: 0.5; stroke-width: 1.5"/>
   </g>
   <g id="patch_3">
    <path d="M 48.851283 285.37598 
L 405.971283 285.37598 
" style="fill: none; stroke: #000000; stroke-width: 0.8; stroke-linejoin: miter; stroke-linecap: square"/>
   </g>
   <g id="text_9">
    <text style="font: 6.94px 'Arial', sans-serif" transform="translate(10.097767 321.385533) rotate(-35)">-0.1s Sampling</text>
   </g>
   <g id="text_10">
    <text style="font: 6.94px 'Arial', sans-serif" transform="translate(57.794497 311.430872) rotate(-35)">Sampling</text>
   </g>
   <g id="text_11">
    <text style="font: 6.94px 'Arial', sans-serif" transform="translate(319.037191 339.456682) rotate(-35)">Movement to Lateral Port</text>
   </g>
   <g id="text_12">
    <text style="font: 8.33px 'Arial', sans-serif; text-anchor: middle" x="227.411283" y="13.26398" transform="rotate(-0 227.411283 13.26398)">GP4_80_S2_L51_D250_M2m - Trace:0_GP4_80_S2_L51_D250_M2m (when: correct)</text>
   </g>
   <g id="legend_1">
    <g id="patch_4">
     <path d="M 133.696342 354.133136 
L 321.126224 354.133136 
Q 322.514224 354.133136 322.514224 352.745136 
L 322.514224 343.45638 
Q 322.514224 342.06838 321.126224 342.06838 
L 133.696342 342.06838 
Q 132.308342 342.06838 132.308342 343.45638 
L 132.308342 352.745136 
Q 132.308342 354.133136 133.696342 354.133136 
z
" style="fill: #ffffff; opacity: 0.8; stroke: #cccccc; stroke-linejoin: miter"/>
    </g>
    <g id="line2d_11">
     <path d="M 135.084342 347.467483 
L 142.024342 347.467483 
L 148.964342 347.467483 
" style="fill: none; stroke: #1f77b4; stroke-width: 1.5; stroke-linecap: square"/>
    </g>
    <g id="text_13">
     <text style="font: 6.94px 'Arial', sans-serif; text-anchor: start" x="154.516342" y="349.896483" transform="rotate(-0 154.516342 349.896483)">DecisionRight (88 pts)</text>
    </g>
    <g id="line2d_12">
     <path d="M 236.664255 347.467483 
L 243.604255 347.467483 
L 250.544255 347.467483 
" style="fill: none; stroke: #ff7f0e; stroke-width: 1.5; stroke-linecap: square"/>
    </g>
    <g id="text_14">
     <text style="font: 6.94px 'Arial', sans-serif; text-anchor: start" x="256.096255" y="349.896483" transform="rotate(-0 256.096255 349.896483)">DecisionLeft (83 pts)</text>
    </g>
   </g>
  </g>
 </g>
 <defs>
  <clipPath id="pad527af6c9">
   <rect x="48.851283" y="19.26398" width="357.12" height="266.112"/>
  </clipPath>
 </defs>
</svg>
