<?xml version="1.0" encoding="utf-8" standalone="no"?>
<!DOCTYPE svg PUBLIC "-//W3C//DTD SVG 1.1//EN"
  "http://www.w3.org/Graphics/SVG/1.1/DTD/svg11.dtd">
<svg xmlns:xlink="http://www.w3.org/1999/xlink" width="413.171283pt" height="361.333136pt" viewBox="0 0 413.171283 361.333136" xmlns="http://www.w3.org/2000/svg" version="1.1">
 <metadata>
  <rdf:RDF xmlns:dc="http://purl.org/dc/elements/1.1/" xmlns:cc="http://creativecommons.org/ns#" xmlns:rdf="http://www.w3.org/1999/02/22-rdf-syntax-ns#">
   <cc:Work>
    <dc:type rdf:resource="http://purl.org/dc/dcmitype/StillImage"/>
    <dc:date>2025-12-29T04:07:34.783558</dc:date>
    <dc:format>image/svg+xml</dc:format>
    <dc:creator>
     <cc:Agent>
      <dc:title>Matplotlib v3.8.0, https://matplotlib.org/</dc:title>
     </cc:Agent>
    </dc:creator>
   </cc:Work>
  </rdf:RDF>
 </metadata>
 <defs>
  <style type="text/css">*{stroke-linejoin: round; stroke-linecap: butt}</style>
 </defs>
 <g id="figure_1">
  <g id="patch_1">
   <path d="M 0 361.333136 
L 413.171283 361.333136 
L 413.171283 -0 
L 0 -0 
z
" style="fill: #ffffff"/>
  </g>
  <g id="axes_1">
   <g id="patch_2">
    <path d="M 48.851283 285.37598 
L 405.971283 285.37598 
L 405.971283 19.26398 
L 48.851283 19.26398 
z
" style="fill: #ffffff"/>
   </g>
   <g id="PolyCollection_1">
    <defs>
     <path id="m091491f368" d="M 48.851283 -294.360852 
L 48.851283 -210.166861 
L 60.011283 -194.208483 
L 71.171283 -177.753207 
L 82.331283 -152.144255 
L 93.491283 -129.718669 
L 104.651283 -127.988652 
L 115.811283 -124.957444 
L 126.971283 -129.349462 
L 138.131283 -130.432323 
L 149.291283 -123.994787 
L 160.451283 -111.146309 
L 171.611283 -95.18325 
L 182.771283 -92.058109 
L 193.931283 -104.466822 
L 205.091283 -110.430083 
L 216.251283 -106.83879 
L 227.411283 -98.395915 
L 238.571283 -97.821657 
L 249.731283 -89.181199 
L 260.891283 -88.053156 
L 272.051283 -95.034487 
L 283.211283 -105.454318 
L 294.371283 -100.020831 
L 305.531283 -103.014387 
L 316.691283 -105.135215 
L 327.851283 -98.978346 
L 339.011283 -104.179078 
L 350.171283 -114.921978 
L 361.331283 -129.46876 
L 372.491283 -133.52157 
L 383.651283 -133.866924 
L 394.811283 -116.999584 
L 405.971283 -105.866765 
L 405.971283 -177.684537 
L 405.971283 -177.684537 
L 394.811283 -184.414948 
L 383.651283 -196.725958 
L 372.491283 -191.240716 
L 361.331283 -189.802417 
L 350.171283 -175.47824 
L 339.011283 -163.071437 
L 327.851283 -156.369399 
L 316.691283 -162.330848 
L 305.531283 -160.721075 
L 294.371283 -158.56423 
L 283.211283 -164.627071 
L 272.051283 -151.117014 
L 260.891283 -141.421524 
L 249.731283 -144.124838 
L 238.571283 -154.539649 
L 227.411283 -153.239023 
L 216.251283 -158.278904 
L 205.091283 -164.148139 
L 193.931283 -159.571261 
L 182.771283 -148.782747 
L 171.611283 -153.875107 
L 160.451283 -176.603773 
L 149.291283 -192.705322 
L 138.131283 -196.101826 
L 126.971283 -194.028938 
L 115.811283 -188.125392 
L 104.651283 -186.837299 
L 93.491283 -189.093067 
L 82.331283 -214.3891 
L 71.171283 -247.514866 
L 60.011283 -270.873153 
L 48.851283 -294.360852 
z
" style="stroke: #1f77b4; stroke-opacity: 0.2"/>
    </defs>
    <g clip-path="url(#p440c189dcf)">
     <use xlink:href="#m091491f368" x="0" y="361.333136" style="fill: #1f77b4; fill-opacity: 0.2; stroke: #1f77b4; stroke-opacity: 0.2"/>
    </g>
   </g>
   <g id="PolyCollection_2">
    <defs>
     <path id="m7c1d735f93" d="M 48.851283 -329.973156 
L 48.851283 -234.056024 
L 60.011283 -224.753139 
L 71.171283 -203.554137 
L 82.331283 -184.590742 
L 93.491283 -182.735422 
L 104.651283 -166.793204 
L 115.811283 -155.335574 
L 126.971283 -149.359545 
L 138.131283 -153.747489 
L 149.291283 -164.727197 
L 160.451283 -171.946176 
L 171.611283 -167.627262 
L 182.771283 -166.030831 
L 193.931283 -160.36541 
L 205.091283 -160.562828 
L 216.251283 -155.444476 
L 227.411283 -156.960545 
L 238.571283 -154.776909 
L 249.731283 -152.775657 
L 260.891283 -147.921384 
L 272.051283 -151.100787 
L 283.211283 -152.558655 
L 294.371283 -149.67289 
L 305.531283 -158.736163 
L 316.691283 -172.265765 
L 327.851283 -178.064663 
L 339.011283 -169.945748 
L 350.171283 -166.077755 
L 361.331283 -160.231117 
L 372.491283 -163.232156 
L 383.651283 -162.704649 
L 394.811283 -159.35642 
L 405.971283 -164.242104 
L 405.971283 -238.73462 
L 405.971283 -238.73462 
L 394.811283 -222.87053 
L 383.651283 -222.213445 
L 372.491283 -228.390018 
L 361.331283 -231.059569 
L 350.171283 -241.68079 
L 339.011283 -248.076904 
L 327.851283 -261.99396 
L 316.691283 -256.982582 
L 305.531283 -242.067127 
L 294.371283 -235.815941 
L 283.211283 -239.100098 
L 272.051283 -235.930574 
L 260.891283 -232.082147 
L 249.731283 -237.232117 
L 238.571283 -236.655983 
L 227.411283 -233.357228 
L 216.251283 -231.69057 
L 205.091283 -237.55999 
L 193.931283 -237.576685 
L 182.771283 -244.776716 
L 171.611283 -251.868081 
L 160.451283 -260.658557 
L 149.291283 -258.135579 
L 138.131283 -239.92822 
L 126.971283 -227.996739 
L 115.811283 -229.101595 
L 104.651283 -236.484184 
L 93.491283 -249.898692 
L 82.331283 -251.308406 
L 71.171283 -278.84987 
L 60.011283 -312.943901 
L 48.851283 -329.973156 
z
" style="stroke: #ff7f0e; stroke-opacity: 0.2"/>
    </defs>
    <g clip-path="url(#p440c189dcf)">
     <use xlink:href="#m7c1d735f93" x="0" y="361.333136" style="fill: #ff7f0e; fill-opacity: 0.2; stroke: #ff7f0e; stroke-opacity: 0.2"/>
    </g>
   </g>
   <g id="matplotlib.axis_1">
    <g id="text_1">
     <text style="font: 10px 'Arial', sans-serif; text-anchor: middle" x="227.411283" y="296.533792" transform="rotate(-0 227.411283 296.533792)">Time</text>
    </g>
   </g>
   <g id="matplotlib.axis_2">
    <g id="ytick_1">
     <g id="line2d_1">
      <defs>
       <path id="mee109e883e" d="M 0 0 
L -3.5 0 
" style="stroke: #000000; stroke-width: 0.8"/>
      </defs>
      <g>
       <use xlink:href="#mee109e883e" x="48.851283" y="256.688199" style="stroke: #000000; stroke-width: 0.8"/>
      </g>
     </g>
     <g id="text_2">
      <text style="font: 10px 'Arial', sans-serif; text-anchor: end" x="41.851283" y="260.267105" transform="rotate(-0 41.851283 260.267105)">−0.2</text>
     </g>
    </g>
    <g id="ytick_2">
     <g id="line2d_2">
      <g>
       <use xlink:href="#mee109e883e" x="48.851283" y="215.602691" style="stroke: #000000; stroke-width: 0.8"/>
      </g>
     </g>
     <g id="text_3">
      <text style="font: 10px 'Arial', sans-serif; text-anchor: end" x="41.851283" y="219.181597" transform="rotate(-0 41.851283 219.181597)">−0.1</text>
     </g>
    </g>
    <g id="ytick_3">
     <g id="line2d_3">
      <g>
       <use xlink:href="#mee109e883e" x="48.851283" y="174.517182" style="stroke: #000000; stroke-width: 0.8"/>
      </g>
     </g>
     <g id="text_4">
      <text style="font: 10px 'Arial', sans-serif; text-anchor: end" x="41.851283" y="178.096089" transform="rotate(-0 41.851283 178.096089)">0.0</text>
     </g>
    </g>
    <g id="ytick_4">
     <g id="line2d_4">
      <g>
       <use xlink:href="#mee109e883e" x="48.851283" y="133.431674" style="stroke: #000000; stroke-width: 0.8"/>
      </g>
     </g>
     <g id="text_5">
      <text style="font: 10px 'Arial', sans-serif; text-anchor: end" x="41.851283" y="137.01058" transform="rotate(-0 41.851283 137.01058)">0.1</text>
     </g>
    </g>
    <g id="ytick_5">
     <g id="line2d_5">
      <g>
       <use xlink:href="#mee109e883e" x="48.851283" y="92.346166" style="stroke: #000000; stroke-width: 0.8"/>
      </g>
     </g>
     <g id="text_6">
      <text style="font: 10px 'Arial', sans-serif; text-anchor: end" x="41.851283" y="95.925072" transform="rotate(-0 41.851283 95.925072)">0.2</text>
     </g>
    </g>
    <g id="ytick_6">
     <g id="line2d_6">
      <g>
       <use xlink:href="#mee109e883e" x="48.851283" y="51.260658" style="stroke: #000000; stroke-width: 0.8"/>
      </g>
     </g>
     <g id="text_7">
      <text style="font: 10px 'Arial', sans-serif; text-anchor: end" x="41.851283" y="54.839564" transform="rotate(-0 41.851283 54.839564)">0.3</text>
     </g>
    </g>
    <g id="text_8">
     <text style="font: 10px 'Arial', sans-serif; text-anchor: middle" x="16.005971" y="152.31998" transform="rotate(-90 16.005971 152.31998)">Activity</text>
    </g>
   </g>
   <g id="line2d_7">
    <path d="M 48.851283 109.069278 
L 60.011283 128.792318 
L 71.171283 148.699101 
L 82.331283 178.066457 
L 93.491283 201.92727 
L 104.651283 203.920159 
L 115.811283 204.791718 
L 126.971283 199.643935 
L 138.131283 198.066062 
L 149.291283 202.983083 
L 160.451283 217.458094 
L 171.611283 236.803959 
L 182.771283 240.912708 
L 193.931283 229.314093 
L 205.091283 224.044027 
L 216.251283 228.774291 
L 227.411283 235.515667 
L 238.571283 235.152485 
L 249.731283 244.680119 
L 260.891283 246.595797 
L 272.051283 238.257386 
L 283.211283 226.292442 
L 294.371283 232.040604 
L 305.531283 229.465403 
L 316.691283 227.600105 
L 327.851283 233.659263 
L 339.011283 227.70788 
L 350.171283 216.133028 
L 361.331283 201.697549 
L 372.491283 198.951991 
L 383.651283 196.036694 
L 394.811283 210.62587 
L 405.971283 219.557485 
" clip-path="url(#p440c189dcf)" style="fill: none; stroke: #1f77b4; stroke-width: 1.5; stroke-linecap: square"/>
   </g>
   <g id="line2d_8">
    <path d="M 48.851283 79.318544 
L 60.011283 92.484612 
L 71.171283 120.131134 
L 82.331283 143.383562 
L 93.491283 145.016079 
L 104.651283 159.694442 
L 115.811283 169.114553 
L 126.971283 172.654993 
L 138.131283 164.495281 
L 149.291283 149.90175 
L 160.451283 145.030769 
L 171.611283 151.585465 
L 182.771283 155.929361 
L 193.931283 162.362089 
L 205.091283 162.271728 
L 216.251283 167.765614 
L 227.411283 166.174249 
L 238.571283 165.616691 
L 249.731283 166.329249 
L 260.891283 171.331371 
L 272.051283 167.817456 
L 283.211283 165.50376 
L 294.371283 168.588721 
L 305.531283 160.931493 
L 316.691283 146.708964 
L 327.851283 141.303826 
L 339.011283 152.32181 
L 350.171283 157.453863 
L 361.331283 165.687795 
L 372.491283 165.522048 
L 383.651283 168.87409 
L 394.811283 170.219661 
L 405.971283 159.844775 
" clip-path="url(#p440c189dcf)" style="fill: none; stroke: #ff7f0e; stroke-width: 1.5; stroke-linecap: square"/>
   </g>
   <g id="line2d_9">
    <path d="M 82.331283 285.37598 
L 82.331283 19.26398 
" clip-path="url(#p440c189dcf)" style="fill: none; stroke-dasharray: 5.55,2.4; stroke-dashoffset: 0; stroke: #000000; stroke-opacity: 0.5; stroke-width: 1.5"/>
   </g>
   <g id="line2d_10">
    <path d="M 383.651283 285.37598 
L 383.651283 19.26398 
" clip-path="url(#p440c189dcf)" style="fill: none; stroke-dasharray: 5.55,2.4; stroke-dashoffset: 0; stroke: #000000; stroke-opacity: 0.5; stroke-width: 1.5"/>
   </g>
   <g id="patch_3">
    <path d="M 48.851283 285.37598 
L 405.971283 285.37598 
" style="fill: none; stroke: #000000; stroke-width: 0.8; stroke-linejoin: miter; stroke-linecap: square"/>
   </g>
   <g id="text_9">
    <text style="font: 6.94px 'Arial', sans-serif" transform="translate(10.097767 321.385533) rotate(-35)">-0.1s Sampling</text>
   </g>
   <g id="text_10">
    <text style="font: 6.94px 'Arial', sans-serif" transform="translate(57.794497 311.430872) rotate(-35)">Sampling</text>
   </g>
   <g id="text_11">
    <text style="font: 6.94px 'Arial', sans-serif" transform="translate(319.037191 339.456682) rotate(-35)">Movement to Lateral Port</text>
   </g>
   <g id="text_12">
    <text style="font: 8.33px 'Arial', sans-serif; text-anchor: middle" x="227.411283" y="13.26398" transform="rotate(-0 227.411283 13.26398)">GP4_80_S2_L51_D250_M2m - Trace:1_GP4_80_S2_L51_D250_M2m (when: correct)</text>
   </g>
   <g id="legend_1">
    <g id="patch_4">
     <path d="M 133.696342 354.133136 
L 321.126224 354.133136 
Q 322.514224 354.133136 322.514224 352.745136 
L 322.514224 343.45638 
Q 322.514224 342.06838 321.126224 342.06838 
L 133.696342 342.06838 
Q 132.308342 342.06838 132.308342 343.45638 
L 132.308342 352.745136 
Q 132.308342 354.133136 133.696342 354.133136 
z
" style="fill: #ffffff; opacity: 0.8; stroke: #cccccc; stroke-linejoin: miter"/>
    </g>
    <g id="line2d_11">
     <path d="M 135.084342 347.467483 
L 142.024342 347.467483 
L 148.964342 347.467483 
" style="fill: none; stroke: #1f77b4; stroke-width: 1.5; stroke-linecap: square"/>
    </g>
    <g id="text_13">
     <text style="font: 6.94px 'Arial', sans-serif; text-anchor: start" x="154.516342" y="349.896483" transform="rotate(-0 154.516342 349.896483)">DecisionRight (88 pts)</text>
    </g>
    <g id="line2d_12">
     <path d="M 236.664255 347.467483 
L 243.604255 347.467483 
L 250.544255 347.467483 
" style="fill: none; stroke: #ff7f0e; stroke-width: 1.5; stroke-linecap: square"/>
    </g>
    <g id="text_14">
     <text style="font: 6.94px 'Arial', sans-serif; text-anchor: start" x="256.096255" y="349.896483" transform="rotate(-0 256.096255 349.896483)">DecisionLeft (83 pts)</text>
    </g>
   </g>
  </g>
 </g>
 <defs>
  <clipPath id="p440c189dcf">
   <rect x="48.851283" y="19.26398" width="357.12" height="266.112"/>
  </clipPath>
 </defs>
</svg>
