<?xml version="1.0" encoding="utf-8" standalone="no"?>
<!DOCTYPE svg PUBLIC "-//W3C//DTD SVG 1.1//EN"
  "http://www.w3.org/Graphics/SVG/1.1/DTD/svg11.dtd">
<svg xmlns:xlink="http://www.w3.org/1999/xlink" width="413.171283pt" height="361.333136pt" viewBox="0 0 413.171283 361.333136" xmlns="http://www.w3.org/2000/svg" version="1.1">
 <metadata>
  <rdf:RDF xmlns:dc="http://purl.org/dc/elements/1.1/" xmlns:cc="http://creativecommons.org/ns#" xmlns:rdf="http://www.w3.org/1999/02/22-rdf-syntax-ns#">
   <cc:Work>
    <dc:type rdf:resource="http://purl.org/dc/dcmitype/StillImage"/>
    <dc:date>2025-12-29T04:07:32.870837</dc:date>
    <dc:format>image/svg+xml</dc:format>
    <dc:creator>
     <cc:Agent>
      <dc:title>Matplotlib v3.8.0, https://matplotlib.org/</dc:title>
     </cc:Agent>
    </dc:creator>
   </cc:Work>
  </rdf:RDF>
 </metadata>
 <defs>
  <style type="text/css">*{stroke-linejoin: round; stroke-linecap: butt}</style>
 </defs>
 <g id="figure_1">
  <g id="patch_1">
   <path d="M 0 361.333136 
L 413.171283 361.333136 
L 413.171283 -0 
L 0 -0 
z
" style="fill: #ffffff"/>
  </g>
  <g id="axes_1">
   <g id="patch_2">
    <path d="M 48.851283 285.37598 
L 405.971283 285.37598 
L 405.971283 19.26398 
L 48.851283 19.26398 
z
" style="fill: #ffffff"/>
   </g>
   <g id="PolyCollection_1">
    <defs>
     <path id="ma1fca58cf2" d="M 48.851283 -133.838873 
L 48.851283 -90.019372 
L 60.011283 -99.324929 
L 71.171283 -100.690024 
L 82.331283 -102.524562 
L 93.491283 -121.859672 
L 104.651283 -143.195148 
L 115.811283 -155.445191 
L 126.971283 -158.953703 
L 138.131283 -169.388037 
L 149.291283 -182.654496 
L 160.451283 -194.327011 
L 171.611283 -208.457211 
L 182.771283 -221.212992 
L 193.931283 -234.717439 
L 205.091283 -244.883123 
L 216.251283 -247.968821 
L 227.411283 -246.988541 
L 238.571283 -240.527969 
L 249.731283 -233.691266 
L 260.891283 -238.293108 
L 272.051283 -235.667172 
L 283.211283 -240.064883 
L 294.371283 -242.935627 
L 305.531283 -254.203112 
L 316.691283 -268.915124 
L 327.851283 -259.599068 
L 339.011283 -257.73715 
L 350.171283 -244.505825 
L 361.331283 -225.864713 
L 372.491283 -225.980865 
L 383.651283 -224.637126 
L 394.811283 -228.871694 
L 405.971283 -238.833842 
L 405.971283 -296.516245 
L 405.971283 -296.516245 
L 394.811283 -285.610831 
L 383.651283 -280.597302 
L 372.491283 -281.721291 
L 361.331283 -286.350442 
L 350.171283 -306.319311 
L 339.011283 -322.666794 
L 327.851283 -324.404119 
L 316.691283 -329.973156 
L 305.531283 -313.160335 
L 294.371283 -302.746813 
L 283.211283 -300.124609 
L 272.051283 -296.303056 
L 260.891283 -297.243338 
L 249.731283 -289.860321 
L 238.571283 -296.007258 
L 227.411283 -298.901723 
L 216.251283 -299.468654 
L 205.091283 -298.058903 
L 193.931283 -287.505464 
L 182.771283 -276.138621 
L 171.611283 -263.417281 
L 160.451283 -249.649304 
L 149.291283 -239.67112 
L 138.131283 -225.030671 
L 126.971283 -214.217303 
L 115.811283 -208.748331 
L 104.651283 -189.886401 
L 93.491283 -162.795255 
L 82.331283 -137.131976 
L 71.171283 -137.105396 
L 60.011283 -140.044848 
L 48.851283 -133.838873 
z
" style="stroke: #1f77b4; stroke-opacity: 0.2"/>
    </defs>
    <g clip-path="url(#p040acdbdeb)">
     <use xlink:href="#ma1fca58cf2" x="0" y="361.333136" style="fill: #1f77b4; fill-opacity: 0.2; stroke: #1f77b4; stroke-opacity: 0.2"/>
    </g>
   </g>
   <g id="PolyCollection_2">
    <defs>
     <path id="mc3e5e23624" d="M 48.851283 -132.291218 
L 48.851283 -88.053156 
L 60.011283 -89.038334 
L 71.171283 -90.004594 
L 82.331283 -90.748469 
L 93.491283 -103.255959 
L 104.651283 -122.979525 
L 115.811283 -130.454461 
L 126.971283 -132.58775 
L 138.131283 -153.58299 
L 149.291283 -173.610662 
L 160.451283 -195.672914 
L 171.611283 -200.653755 
L 182.771283 -207.09991 
L 193.931283 -211.757622 
L 205.091283 -216.54955 
L 216.251283 -215.28522 
L 227.411283 -217.089593 
L 238.571283 -218.646095 
L 249.731283 -208.935906 
L 260.891283 -212.581821 
L 272.051283 -207.502313 
L 283.211283 -205.078275 
L 294.371283 -208.345437 
L 305.531283 -215.384411 
L 316.691283 -214.02389 
L 327.851283 -210.686644 
L 339.011283 -213.749174 
L 350.171283 -202.347021 
L 361.331283 -178.59045 
L 372.491283 -163.537369 
L 383.651283 -163.509012 
L 394.811283 -168.320969 
L 405.971283 -176.210279 
L 405.971283 -223.755488 
L 405.971283 -223.755488 
L 394.811283 -209.161787 
L 383.651283 -201.63395 
L 372.491283 -208.189674 
L 361.331283 -230.049276 
L 350.171283 -263.705789 
L 339.011283 -279.086914 
L 327.851283 -276.545068 
L 316.691283 -282.302076 
L 305.531283 -285.530012 
L 294.371283 -276.270225 
L 283.211283 -271.075149 
L 272.051283 -270.819958 
L 260.891283 -274.128276 
L 249.731283 -272.033129 
L 238.571283 -286.581898 
L 227.411283 -283.911467 
L 216.251283 -275.474411 
L 205.091283 -270.549973 
L 193.931283 -266.442427 
L 182.771283 -264.792775 
L 171.611283 -262.570502 
L 160.451283 -256.780271 
L 149.291283 -231.12519 
L 138.131283 -209.819957 
L 126.971283 -187.85407 
L 115.811283 -184.237707 
L 104.651283 -172.680554 
L 93.491283 -146.902515 
L 82.331283 -133.231665 
L 71.171283 -133.661961 
L 60.011283 -132.790627 
L 48.851283 -132.291218 
z
" style="stroke: #ff7f0e; stroke-opacity: 0.2"/>
    </defs>
    <g clip-path="url(#p040acdbdeb)">
     <use xlink:href="#mc3e5e23624" x="0" y="361.333136" style="fill: #ff7f0e; fill-opacity: 0.2; stroke: #ff7f0e; stroke-opacity: 0.2"/>
    </g>
   </g>
   <g id="matplotlib.axis_1">
    <g id="text_1">
     <text style="font: 10px 'Arial', sans-serif; text-anchor: middle" x="227.411283" y="296.533792" transform="rotate(-0 227.411283 296.533792)">Time</text>
    </g>
   </g>
   <g id="matplotlib.axis_2">
    <g id="ytick_1">
     <g id="line2d_1">
      <defs>
       <path id="mf1daad56bb" d="M 0 0 
L -3.5 0 
" style="stroke: #000000; stroke-width: 0.8"/>
      </defs>
      <g>
       <use xlink:href="#mf1daad56bb" x="48.851283" y="282.058775" style="stroke: #000000; stroke-width: 0.8"/>
      </g>
     </g>
     <g id="text_2">
      <text style="font: 10px 'Arial', sans-serif; text-anchor: end" x="41.851283" y="285.637682" transform="rotate(-0 41.851283 285.637682)">−0.4</text>
     </g>
    </g>
    <g id="ytick_2">
     <g id="line2d_2">
      <g>
       <use xlink:href="#mf1daad56bb" x="48.851283" y="226.715045" style="stroke: #000000; stroke-width: 0.8"/>
      </g>
     </g>
     <g id="text_3">
      <text style="font: 10px 'Arial', sans-serif; text-anchor: end" x="41.851283" y="230.293952" transform="rotate(-0 41.851283 230.293952)">−0.2</text>
     </g>
    </g>
    <g id="ytick_3">
     <g id="line2d_3">
      <g>
       <use xlink:href="#mf1daad56bb" x="48.851283" y="171.371315" style="stroke: #000000; stroke-width: 0.8"/>
      </g>
     </g>
     <g id="text_4">
      <text style="font: 10px 'Arial', sans-serif; text-anchor: end" x="41.851283" y="174.950222" transform="rotate(-0 41.851283 174.950222)">0.0</text>
     </g>
    </g>
    <g id="ytick_4">
     <g id="line2d_4">
      <g>
       <use xlink:href="#mf1daad56bb" x="48.851283" y="116.027585" style="stroke: #000000; stroke-width: 0.8"/>
      </g>
     </g>
     <g id="text_5">
      <text style="font: 10px 'Arial', sans-serif; text-anchor: end" x="41.851283" y="119.606492" transform="rotate(-0 41.851283 119.606492)">0.2</text>
     </g>
    </g>
    <g id="ytick_5">
     <g id="line2d_5">
      <g>
       <use xlink:href="#mf1daad56bb" x="48.851283" y="60.683855" style="stroke: #000000; stroke-width: 0.8"/>
      </g>
     </g>
     <g id="text_6">
      <text style="font: 10px 'Arial', sans-serif; text-anchor: end" x="41.851283" y="64.262762" transform="rotate(-0 41.851283 64.262762)">0.4</text>
     </g>
    </g>
    <g id="text_7">
     <text style="font: 10px 'Arial', sans-serif; text-anchor: middle" x="16.005971" y="152.31998" transform="rotate(-90 16.005971 152.31998)">Activity</text>
    </g>
   </g>
   <g id="line2d_6">
    <path d="M 48.851283 249.404013 
L 60.011283 241.648247 
L 71.171283 242.435426 
L 82.331283 241.504867 
L 93.491283 219.005673 
L 104.651283 194.79236 
L 115.811283 179.236375 
L 126.971283 174.747634 
L 138.131283 164.123783 
L 149.291283 150.170327 
L 160.451283 139.344979 
L 171.611283 125.395888 
L 182.771283 112.657329 
L 193.931283 100.221685 
L 205.091283 89.862121 
L 216.251283 87.614399 
L 227.411283 88.388004 
L 238.571283 93.065523 
L 249.731283 99.557342 
L 260.891283 93.564911 
L 272.051283 95.348022 
L 283.211283 91.23839 
L 294.371283 88.491914 
L 305.531283 77.65141 
L 316.691283 61.889 
L 327.851283 69.331542 
L 339.011283 71.131164 
L 350.171283 85.920568 
L 361.331283 105.225561 
L 372.491283 107.482058 
L 383.651283 108.715924 
L 394.811283 104.091873 
L 405.971283 93.658092 
" clip-path="url(#p040acdbdeb)" style="fill: none; stroke: #1f77b4; stroke-width: 1.5; stroke-linecap: square"/>
   </g>
   <g id="line2d_7">
    <path d="M 48.851283 251.160949 
L 60.011283 250.418657 
L 71.171283 249.499858 
L 82.331283 249.343069 
L 93.491283 236.253899 
L 104.651283 213.503097 
L 115.811283 203.987051 
L 126.971283 201.112227 
L 138.131283 179.631662 
L 149.291283 158.965211 
L 160.451283 135.106543 
L 171.611283 129.721006 
L 182.771283 125.386796 
L 193.931283 122.23311 
L 205.091283 117.783374 
L 216.251283 115.953322 
L 227.411283 110.832604 
L 238.571283 108.71914 
L 249.731283 120.84862 
L 260.891283 117.978086 
L 272.051283 122.172001 
L 283.211283 123.256426 
L 294.371283 119.025305 
L 305.531283 110.875925 
L 316.691283 113.170151 
L 327.851283 117.717279 
L 339.011283 114.915092 
L 350.171283 128.306732 
L 361.331283 157.013273 
L 372.491283 175.469614 
L 383.651283 178.761655 
L 394.811283 172.591758 
L 405.971283 161.350253 
" clip-path="url(#p040acdbdeb)" style="fill: none; stroke: #ff7f0e; stroke-width: 1.5; stroke-linecap: square"/>
   </g>
   <g id="line2d_8">
    <path d="M 82.331283 285.37598 
L 82.331283 19.26398 
" clip-path="url(#p040acdbdeb)" style="fill: none; stroke-dasharray: 5.55,2.4; stroke-dashoffset: 0; stroke: #000000; stroke-opacity: 0.5; stroke-width: 1.5"/>
   </g>
   <g id="line2d_9">
    <path d="M 383.651283 285.37598 
L 383.651283 19.26398 
" clip-path="url(#p040acdbdeb)" style="fill: none; stroke-dasharray: 5.55,2.4; stroke-dashoffset: 0; stroke: #000000; stroke-opacity: 0.5; stroke-width: 1.5"/>
   </g>
   <g id="patch_3">
    <path d="M 48.851283 285.37598 
L 405.971283 285.37598 
" style="fill: none; stroke: #000000; stroke-width: 0.8; stroke-linejoin: miter; stroke-linecap: square"/>
   </g>
   <g id="text_8">
    <text style="font: 6.94px 'Arial', sans-serif" transform="translate(10.097767 321.385533) rotate(-35)">-0.1s Sampling</text>
   </g>
   <g id="text_9">
    <text style="font: 6.94px 'Arial', sans-serif" transform="translate(57.794497 311.430872) rotate(-35)">Sampling</text>
   </g>
   <g id="text_10">
    <text style="font: 6.94px 'Arial', sans-serif" transform="translate(319.037191 339.456682) rotate(-35)">Movement to Lateral Port</text>
   </g>
   <g id="text_11">
    <text style="font: 8.33px 'Arial', sans-serif; text-anchor: middle" x="227.411283" y="13.26398" transform="rotate(-0 227.411283 13.26398)">GP4_80_S2_L51_D250_M2m - Trace:70_GP4_80_S2_L51_D250_M2m (when: correct)</text>
   </g>
   <g id="legend_1">
    <g id="patch_4">
     <path d="M 133.696342 354.133136 
L 321.126224 354.133136 
Q 322.514224 354.133136 322.514224 352.745136 
L 322.514224 343.45638 
Q 322.514224 342.06838 321.126224 342.06838 
L 133.696342 342.06838 
Q 132.308342 342.06838 132.308342 343.45638 
L 132.308342 352.745136 
Q 132.308342 354.133136 133.696342 354.133136 
z
" style="fill: #ffffff; opacity: 0.8; stroke: #cccccc; stroke-linejoin: miter"/>
    </g>
    <g id="line2d_10">
     <path d="M 135.084342 347.467483 
L 142.024342 347.467483 
L 148.964342 347.467483 
" style="fill: none; stroke: #1f77b4; stroke-width: 1.5; stroke-linecap: square"/>
    </g>
    <g id="text_12">
     <text style="font: 6.94px 'Arial', sans-serif; text-anchor: start" x="154.516342" y="349.896483" transform="rotate(-0 154.516342 349.896483)">DecisionRight (88 pts)</text>
    </g>
    <g id="line2d_11">
     <path d="M 236.664255 347.467483 
L 243.604255 347.467483 
L 250.544255 347.467483 
" style="fill: none; stroke: #ff7f0e; stroke-width: 1.5; stroke-linecap: square"/>
    </g>
    <g id="text_13">
     <text style="font: 6.94px 'Arial', sans-serif; text-anchor: start" x="256.096255" y="349.896483" transform="rotate(-0 256.096255 349.896483)">DecisionLeft (83 pts)</text>
    </g>
   </g>
  </g>
 </g>
 <defs>
  <clipPath id="p040acdbdeb">
   <rect x="48.851283" y="19.26398" width="357.12" height="266.112"/>
  </clipPath>
 </defs>
</svg>
