<?xml version="1.0" encoding="utf-8" standalone="no"?>
<!DOCTYPE svg PUBLIC "-//W3C//DTD SVG 1.1//EN"
  "http://www.w3.org/Graphics/SVG/1.1/DTD/svg11.dtd">
<svg xmlns:xlink="http://www.w3.org/1999/xlink" width="413.171283pt" height="361.333136pt" viewBox="0 0 413.171283 361.333136" xmlns="http://www.w3.org/2000/svg" version="1.1">
 <metadata>
  <rdf:RDF xmlns:dc="http://purl.org/dc/elements/1.1/" xmlns:cc="http://creativecommons.org/ns#" xmlns:rdf="http://www.w3.org/1999/02/22-rdf-syntax-ns#">
   <cc:Work>
    <dc:type rdf:resource="http://purl.org/dc/dcmitype/StillImage"/>
    <dc:date>2025-12-29T04:08:08.120636</dc:date>
    <dc:format>image/svg+xml</dc:format>
    <dc:creator>
     <cc:Agent>
      <dc:title>Matplotlib v3.8.0, https://matplotlib.org/</dc:title>
     </cc:Agent>
    </dc:creator>
   </cc:Work>
  </rdf:RDF>
 </metadata>
 <defs>
  <style type="text/css">*{stroke-linejoin: round; stroke-linecap: butt}</style>
 </defs>
 <g id="figure_1">
  <g id="patch_1">
   <path d="M 0 361.333136 
L 413.171283 361.333136 
L 413.171283 -0 
L 0 -0 
z
" style="fill: #ffffff"/>
  </g>
  <g id="axes_1">
   <g id="patch_2">
    <path d="M 48.851283 285.37598 
L 405.971283 285.37598 
L 405.971283 19.26398 
L 48.851283 19.26398 
z
" style="fill: #ffffff"/>
   </g>
   <g id="PolyCollection_1">
    <defs>
     <path id="m3a1e83c852" d="M 48.851283 -291.532944 
L 48.851283 -192.353643 
L 60.011283 -186.723472 
L 71.171283 -181.96283 
L 82.331283 -174.655439 
L 93.491283 -159.862218 
L 104.651283 -157.706309 
L 115.811283 -146.061738 
L 126.971283 -139.4365 
L 138.131283 -135.809434 
L 149.291283 -124.623744 
L 160.451283 -116.5061 
L 171.611283 -120.889351 
L 182.771283 -120.138421 
L 193.931283 -104.645072 
L 205.091283 -107.102272 
L 216.251283 -117.179489 
L 227.411283 -113.911769 
L 238.571283 -103.072281 
L 249.731283 -98.856364 
L 260.891283 -93.214907 
L 272.051283 -97.945057 
L 283.211283 -94.307739 
L 294.371283 -91.479045 
L 305.531283 -88.053156 
L 316.691283 -89.694606 
L 327.851283 -94.927381 
L 339.011283 -101.473801 
L 350.171283 -110.964617 
L 361.331283 -122.948082 
L 372.491283 -130.855722 
L 383.651283 -132.514317 
L 394.811283 -123.693106 
L 405.971283 -116.366495 
L 405.971283 -171.700493 
L 405.971283 -171.700493 
L 394.811283 -179.004994 
L 383.651283 -185.61568 
L 372.491283 -179.825147 
L 361.331283 -168.734801 
L 350.171283 -153.778038 
L 339.011283 -143.330801 
L 327.851283 -137.4617 
L 316.691283 -132.015005 
L 305.531283 -130.639766 
L 294.371283 -133.053888 
L 283.211283 -135.013335 
L 272.051283 -138.74913 
L 260.891283 -135.146941 
L 249.731283 -141.668047 
L 238.571283 -147.250385 
L 227.411283 -159.406494 
L 216.251283 -162.553774 
L 205.091283 -154.454262 
L 193.931283 -154.474203 
L 182.771283 -173.943797 
L 171.611283 -180.284936 
L 160.451283 -177.917833 
L 149.291283 -185.637384 
L 138.131283 -198.856867 
L 126.971283 -205.585889 
L 115.811283 -214.895231 
L 104.651283 -232.248994 
L 93.491283 -238.19835 
L 82.331283 -259.042494 
L 71.171283 -270.805773 
L 60.011283 -280.457145 
L 48.851283 -291.532944 
z
" style="stroke: #1f77b4; stroke-opacity: 0.2"/>
    </defs>
    <g clip-path="url(#pa39b4d2d2f)">
     <use xlink:href="#m3a1e83c852" x="0" y="361.333136" style="fill: #1f77b4; fill-opacity: 0.2; stroke: #1f77b4; stroke-opacity: 0.2"/>
    </g>
   </g>
   <g id="PolyCollection_2">
    <defs>
     <path id="mce3b9775b3" d="M 48.851283 -290.056667 
L 48.851283 -192.130347 
L 60.011283 -189.582204 
L 71.171283 -184.708657 
L 82.331283 -167.239631 
L 93.491283 -140.236962 
L 104.651283 -131.012935 
L 115.811283 -130.735134 
L 126.971283 -134.043848 
L 138.131283 -132.775537 
L 149.291283 -125.607298 
L 160.451283 -127.322983 
L 171.611283 -127.079723 
L 182.771283 -119.588457 
L 193.931283 -118.798365 
L 205.091283 -128.625663 
L 216.251283 -128.820457 
L 227.411283 -116.438303 
L 238.571283 -118.070995 
L 249.731283 -128.994932 
L 260.891283 -136.3917 
L 272.051283 -126.27146 
L 283.211283 -124.150381 
L 294.371283 -138.241328 
L 305.531283 -154.383926 
L 316.691283 -166.245269 
L 327.851283 -175.988814 
L 339.011283 -184.900662 
L 350.171283 -196.961618 
L 361.331283 -232.194022 
L 372.491283 -259.819265 
L 383.651283 -269.770621 
L 394.811283 -273.424334 
L 405.971283 -272.691468 
L 405.971283 -329.973156 
L 405.971283 -329.973156 
L 394.811283 -329.916347 
L 383.651283 -324.822826 
L 372.491283 -313.923921 
L 361.331283 -285.010753 
L 350.171283 -244.39122 
L 339.011283 -229.040639 
L 327.851283 -219.781372 
L 316.691283 -212.258111 
L 305.531283 -200.334908 
L 294.371283 -184.002733 
L 283.211283 -171.211387 
L 272.051283 -175.281292 
L 260.891283 -187.392349 
L 249.731283 -180.801393 
L 238.571283 -169.739393 
L 227.411283 -169.980876 
L 216.251283 -184.05308 
L 205.091283 -185.84261 
L 193.931283 -177.180719 
L 182.771283 -178.359192 
L 171.611283 -189.136709 
L 160.451283 -190.611687 
L 149.291283 -189.369756 
L 138.131283 -200.130277 
L 126.971283 -204.053824 
L 115.811283 -203.842446 
L 104.651283 -206.198921 
L 93.491283 -221.278982 
L 82.331283 -255.604688 
L 71.171283 -281.787749 
L 60.011283 -288.378809 
L 48.851283 -290.056667 
z
" style="stroke: #ff7f0e; stroke-opacity: 0.2"/>
    </defs>
    <g clip-path="url(#pa39b4d2d2f)">
     <use xlink:href="#mce3b9775b3" x="0" y="361.333136" style="fill: #ff7f0e; fill-opacity: 0.2; stroke: #ff7f0e; stroke-opacity: 0.2"/>
    </g>
   </g>
   <g id="matplotlib.axis_1">
    <g id="text_1">
     <text style="font: 10px 'Arial', sans-serif; text-anchor: middle" x="227.411283" y="296.533792" transform="rotate(-0 227.411283 296.533792)">Time</text>
    </g>
   </g>
   <g id="matplotlib.axis_2">
    <g id="ytick_1">
     <g id="line2d_1">
      <defs>
       <path id="m09a41efe2b" d="M 0 0 
L -3.5 0 
" style="stroke: #000000; stroke-width: 0.8"/>
      </defs>
      <g>
       <use xlink:href="#m09a41efe2b" x="48.851283" y="257.417261" style="stroke: #000000; stroke-width: 0.8"/>
      </g>
     </g>
     <g id="text_2">
      <text style="font: 10px 'Arial', sans-serif; text-anchor: end" x="41.851283" y="260.996167" transform="rotate(-0 41.851283 260.996167)">−0.3</text>
     </g>
    </g>
    <g id="ytick_2">
     <g id="line2d_2">
      <g>
       <use xlink:href="#m09a41efe2b" x="48.851283" y="204.854486" style="stroke: #000000; stroke-width: 0.8"/>
      </g>
     </g>
     <g id="text_3">
      <text style="font: 10px 'Arial', sans-serif; text-anchor: end" x="41.851283" y="208.433392" transform="rotate(-0 41.851283 208.433392)">−0.2</text>
     </g>
    </g>
    <g id="ytick_3">
     <g id="line2d_3">
      <g>
       <use xlink:href="#m09a41efe2b" x="48.851283" y="152.291712" style="stroke: #000000; stroke-width: 0.8"/>
      </g>
     </g>
     <g id="text_4">
      <text style="font: 10px 'Arial', sans-serif; text-anchor: end" x="41.851283" y="155.870618" transform="rotate(-0 41.851283 155.870618)">−0.1</text>
     </g>
    </g>
    <g id="ytick_4">
     <g id="line2d_4">
      <g>
       <use xlink:href="#m09a41efe2b" x="48.851283" y="99.728937" style="stroke: #000000; stroke-width: 0.8"/>
      </g>
     </g>
     <g id="text_5">
      <text style="font: 10px 'Arial', sans-serif; text-anchor: end" x="41.851283" y="103.307843" transform="rotate(-0 41.851283 103.307843)">0.0</text>
     </g>
    </g>
    <g id="ytick_5">
     <g id="line2d_5">
      <g>
       <use xlink:href="#m09a41efe2b" x="48.851283" y="47.166163" style="stroke: #000000; stroke-width: 0.8"/>
      </g>
     </g>
     <g id="text_6">
      <text style="font: 10px 'Arial', sans-serif; text-anchor: end" x="41.851283" y="50.745069" transform="rotate(-0 41.851283 50.745069)">0.1</text>
     </g>
    </g>
    <g id="text_7">
     <text style="font: 10px 'Arial', sans-serif; text-anchor: middle" x="16.005971" y="152.31998" transform="rotate(-90 16.005971 152.31998)">Activity</text>
    </g>
   </g>
   <g id="line2d_6">
    <path d="M 48.851283 119.389843 
L 60.011283 127.742827 
L 71.171283 134.948832 
L 82.331283 144.484168 
L 93.491283 162.302854 
L 104.651283 166.355485 
L 115.811283 180.854652 
L 126.971283 188.821943 
L 138.131283 193.999985 
L 149.291283 206.202572 
L 160.451283 214.121169 
L 171.611283 210.745996 
L 182.771283 214.292027 
L 193.931283 231.773498 
L 205.091283 230.554869 
L 216.251283 221.466509 
L 227.411283 224.674005 
L 238.571283 236.171803 
L 249.731283 241.070931 
L 260.891283 247.152212 
L 272.051283 242.986046 
L 283.211283 246.672599 
L 294.371283 249.06667 
L 305.531283 251.986675 
L 316.691283 250.478331 
L 327.851283 245.138595 
L 339.011283 238.930835 
L 350.171283 228.961808 
L 361.331283 215.491694 
L 372.491283 205.992701 
L 383.651283 202.268138 
L 394.811283 209.984086 
L 405.971283 217.299638 
" clip-path="url(#pa39b4d2d2f)" style="fill: none; stroke: #1f77b4; stroke-width: 1.5; stroke-linecap: square"/>
   </g>
   <g id="line2d_7">
    <path d="M 48.851283 120.239628 
L 60.011283 122.352631 
L 71.171283 128.084935 
L 82.331283 149.910976 
L 93.491283 180.575166 
L 104.651283 192.72721 
L 115.811283 194.044348 
L 126.971283 192.2843 
L 138.131283 194.880229 
L 149.291283 203.844609 
L 160.451283 202.365801 
L 171.611283 203.22492 
L 182.771283 212.359312 
L 193.931283 213.343594 
L 205.091283 204.098999 
L 216.251283 204.896368 
L 227.411283 218.123543 
L 238.571283 217.427942 
L 249.731283 206.434977 
L 260.891283 199.441112 
L 272.051283 210.556756 
L 283.211283 213.652248 
L 294.371283 200.211105 
L 305.531283 183.973719 
L 316.691283 172.081446 
L 327.851283 163.448043 
L 339.011283 154.362487 
L 350.171283 140.656717 
L 361.331283 102.730747 
L 372.491283 74.461544 
L 383.651283 64.036411 
L 394.811283 59.662795 
L 405.971283 60.000825 
" clip-path="url(#pa39b4d2d2f)" style="fill: none; stroke: #ff7f0e; stroke-width: 1.5; stroke-linecap: square"/>
   </g>
   <g id="line2d_8">
    <path d="M 82.331283 285.37598 
L 82.331283 19.26398 
" clip-path="url(#pa39b4d2d2f)" style="fill: none; stroke-dasharray: 5.55,2.4; stroke-dashoffset: 0; stroke: #000000; stroke-opacity: 0.5; stroke-width: 1.5"/>
   </g>
   <g id="line2d_9">
    <path d="M 383.651283 285.37598 
L 383.651283 19.26398 
" clip-path="url(#pa39b4d2d2f)" style="fill: none; stroke-dasharray: 5.55,2.4; stroke-dashoffset: 0; stroke: #000000; stroke-opacity: 0.5; stroke-width: 1.5"/>
   </g>
   <g id="patch_3">
    <path d="M 48.851283 285.37598 
L 405.971283 285.37598 
" style="fill: none; stroke: #000000; stroke-width: 0.8; stroke-linejoin: miter; stroke-linecap: square"/>
   </g>
   <g id="text_8">
    <text style="font: 6.94px 'Arial', sans-serif" transform="translate(10.097767 321.385533) rotate(-35)">-0.1s Sampling</text>
   </g>
   <g id="text_9">
    <text style="font: 6.94px 'Arial', sans-serif" transform="translate(57.794497 311.430872) rotate(-35)">Sampling</text>
   </g>
   <g id="text_10">
    <text style="font: 6.94px 'Arial', sans-serif" transform="translate(319.037191 339.456682) rotate(-35)">Movement to Lateral Port</text>
   </g>
   <g id="text_11">
    <text style="font: 8.33px 'Arial', sans-serif; text-anchor: middle" x="227.411283" y="13.26398" transform="rotate(-0 227.411283 13.26398)">GP4_85_s10_L70_D250_ALM - Trace:0_GP4_85_s10_L70_D250_ALM (when: correct)</text>
   </g>
   <g id="legend_1">
    <g id="patch_4">
     <path d="M 130.092964 354.133136 
L 324.729602 354.133136 
Q 326.117602 354.133136 326.117602 352.745136 
L 326.117602 343.45638 
Q 326.117602 342.06838 324.729602 342.06838 
L 130.092964 342.06838 
Q 128.704964 342.06838 128.704964 343.45638 
L 128.704964 352.745136 
Q 128.704964 354.133136 130.092964 354.133136 
z
" style="fill: #ffffff; opacity: 0.8; stroke: #cccccc; stroke-linejoin: miter"/>
    </g>
    <g id="line2d_10">
     <path d="M 131.480964 347.467483 
L 138.420964 347.467483 
L 145.360964 347.467483 
" style="fill: none; stroke: #1f77b4; stroke-width: 1.5; stroke-linecap: square"/>
    </g>
    <g id="text_12">
     <text style="font: 6.94px 'Arial', sans-serif; text-anchor: start" x="150.912964" y="349.896483" transform="rotate(-0 150.912964 349.896483)">DecisionRight (103 pts)</text>
    </g>
    <g id="line2d_11">
     <path d="M 236.920167 347.467483 
L 243.860167 347.467483 
L 250.800167 347.467483 
" style="fill: none; stroke: #ff7f0e; stroke-width: 1.5; stroke-linecap: square"/>
    </g>
    <g id="text_13">
     <text style="font: 6.94px 'Arial', sans-serif; text-anchor: start" x="256.352167" y="349.896483" transform="rotate(-0 256.352167 349.896483)">DecisionLeft (110 pts)</text>
    </g>
   </g>
  </g>
 </g>
 <defs>
  <clipPath id="pa39b4d2d2f">
   <rect x="48.851283" y="19.26398" width="357.12" height="266.112"/>
  </clipPath>
 </defs>
</svg>
