<?xml version="1.0" encoding="utf-8" standalone="no"?>
<!DOCTYPE svg PUBLIC "-//W3C//DTD SVG 1.1//EN"
  "http://www.w3.org/Graphics/SVG/1.1/DTD/svg11.dtd">
<svg xmlns:xlink="http://www.w3.org/1999/xlink" width="413.171283pt" height="361.333136pt" viewBox="0 0 413.171283 361.333136" xmlns="http://www.w3.org/2000/svg" version="1.1">
 <metadata>
  <rdf:RDF xmlns:dc="http://purl.org/dc/elements/1.1/" xmlns:cc="http://creativecommons.org/ns#" xmlns:rdf="http://www.w3.org/1999/02/22-rdf-syntax-ns#">
   <cc:Work>
    <dc:type rdf:resource="http://purl.org/dc/dcmitype/StillImage"/>
    <dc:date>2025-12-29T04:08:07.209823</dc:date>
    <dc:format>image/svg+xml</dc:format>
    <dc:creator>
     <cc:Agent>
      <dc:title>Matplotlib v3.8.0, https://matplotlib.org/</dc:title>
     </cc:Agent>
    </dc:creator>
   </cc:Work>
  </rdf:RDF>
 </metadata>
 <defs>
  <style type="text/css">*{stroke-linejoin: round; stroke-linecap: butt}</style>
 </defs>
 <g id="figure_1">
  <g id="patch_1">
   <path d="M 0 361.333136 
L 413.171283 361.333136 
L 413.171283 -0 
L 0 -0 
z
" style="fill: #ffffff"/>
  </g>
  <g id="axes_1">
   <g id="patch_2">
    <path d="M 48.851283 285.37598 
L 405.971283 285.37598 
L 405.971283 19.26398 
L 48.851283 19.26398 
z
" style="fill: #ffffff"/>
   </g>
   <g id="PolyCollection_1">
    <defs>
     <path id="mb1e2e1bcb3" d="M 48.851283 -217.07044 
L 48.851283 -132.680918 
L 60.011283 -134.77922 
L 71.171283 -132.180855 
L 82.331283 -118.860858 
L 93.491283 -114.589667 
L 104.651283 -109.190698 
L 115.811283 -111.529214 
L 126.971283 -107.962846 
L 138.131283 -100.035535 
L 149.291283 -94.136679 
L 160.451283 -96.270317 
L 171.611283 -94.914055 
L 182.771283 -100.494144 
L 193.931283 -110.353973 
L 205.091283 -133.592472 
L 216.251283 -142.769785 
L 227.411283 -151.032061 
L 238.571283 -157.84202 
L 249.731283 -182.747016 
L 260.891283 -190.137469 
L 272.051283 -196.778481 
L 283.211283 -201.004235 
L 294.371283 -228.799992 
L 305.531283 -239.754819 
L 316.691283 -237.206319 
L 327.851283 -238.633874 
L 339.011283 -233.191887 
L 350.171283 -227.657219 
L 361.331283 -216.970102 
L 372.491283 -216.012969 
L 383.651283 -210.048054 
L 394.811283 -216.540878 
L 405.971283 -219.058356 
L 405.971283 -292.673222 
L 405.971283 -292.673222 
L 394.811283 -294.440833 
L 383.651283 -293.530261 
L 372.491283 -297.797702 
L 361.331283 -297.916952 
L 350.171283 -309.137576 
L 339.011283 -316.03976 
L 327.851283 -323.09091 
L 316.691283 -324.154957 
L 305.531283 -329.973156 
L 294.371283 -322.001323 
L 283.211283 -289.645047 
L 272.051283 -275.364974 
L 260.891283 -262.953496 
L 249.731283 -257.519547 
L 238.571283 -233.605109 
L 227.411283 -220.357865 
L 216.251283 -206.805512 
L 205.091283 -194.544496 
L 193.931283 -167.874861 
L 182.771283 -153.903241 
L 171.611283 -148.498069 
L 160.451283 -151.186799 
L 149.291283 -153.670947 
L 138.131283 -164.807348 
L 126.971283 -173.595497 
L 115.811283 -177.138726 
L 104.651283 -175.410889 
L 93.491283 -177.147989 
L 82.331283 -189.41661 
L 71.171283 -212.474164 
L 60.011283 -218.031008 
L 48.851283 -217.07044 
z
" style="stroke: #1f77b4; stroke-opacity: 0.2"/>
    </defs>
    <g clip-path="url(#p9284f7b7d9)">
     <use xlink:href="#mb1e2e1bcb3" x="0" y="361.333136" style="fill: #1f77b4; fill-opacity: 0.2; stroke: #1f77b4; stroke-opacity: 0.2"/>
    </g>
   </g>
   <g id="PolyCollection_2">
    <defs>
     <path id="md3303a9191" d="M 48.851283 -160.427338 
L 48.851283 -121.298317 
L 60.011283 -123.871699 
L 71.171283 -122.293963 
L 82.331283 -121.964291 
L 93.491283 -108.814084 
L 104.651283 -88.053156 
L 115.811283 -95.622193 
L 126.971283 -95.486088 
L 138.131283 -90.930446 
L 149.291283 -98.138598 
L 160.451283 -116.384554 
L 171.611283 -133.454422 
L 182.771283 -137.159134 
L 193.931283 -130.349822 
L 205.091283 -120.880969 
L 216.251283 -139.390124 
L 227.411283 -150.566763 
L 238.571283 -157.765077 
L 249.731283 -157.854069 
L 260.891283 -170.023665 
L 272.051283 -165.205921 
L 283.211283 -164.39976 
L 294.371283 -178.987239 
L 305.531283 -180.504614 
L 316.691283 -174.075547 
L 327.851283 -180.354713 
L 339.011283 -172.197523 
L 350.171283 -167.714457 
L 361.331283 -173.718563 
L 372.491283 -158.317389 
L 383.651283 -146.735993 
L 394.811283 -162.26457 
L 405.971283 -173.504378 
L 405.971283 -221.942251 
L 405.971283 -221.942251 
L 394.811283 -213.326512 
L 383.651283 -199.010299 
L 372.491283 -210.9379 
L 361.331283 -227.486631 
L 350.171283 -222.938063 
L 339.011283 -228.648606 
L 327.851283 -234.953863 
L 316.691283 -227.978521 
L 305.531283 -231.902774 
L 294.371283 -227.785393 
L 283.211283 -211.96807 
L 272.051283 -214.044731 
L 260.891283 -219.722412 
L 249.731283 -205.346027 
L 238.571283 -203.243366 
L 227.411283 -195.835316 
L 216.251283 -179.783981 
L 205.091283 -160.244419 
L 193.931283 -171.300258 
L 182.771283 -180.263374 
L 171.611283 -179.095237 
L 160.451283 -165.8097 
L 149.291283 -144.284887 
L 138.131283 -130.254862 
L 126.971283 -136.096693 
L 115.811283 -135.901193 
L 104.651283 -130.375216 
L 93.491283 -155.943947 
L 82.331283 -172.478545 
L 71.171283 -167.317343 
L 60.011283 -165.433633 
L 48.851283 -160.427338 
z
" style="stroke: #ff7f0e; stroke-opacity: 0.2"/>
    </defs>
    <g clip-path="url(#p9284f7b7d9)">
     <use xlink:href="#md3303a9191" x="0" y="361.333136" style="fill: #ff7f0e; fill-opacity: 0.2; stroke: #ff7f0e; stroke-opacity: 0.2"/>
    </g>
   </g>
   <g id="matplotlib.axis_1">
    <g id="text_1">
     <text style="font: 10px 'Arial', sans-serif; text-anchor: middle" x="227.411283" y="296.533792" transform="rotate(-0 227.411283 296.533792)">Time</text>
    </g>
   </g>
   <g id="matplotlib.axis_2">
    <g id="ytick_1">
     <g id="line2d_1">
      <defs>
       <path id="mcdaa5c5c67" d="M 0 0 
L -3.5 0 
" style="stroke: #000000; stroke-width: 0.8"/>
      </defs>
      <g>
       <use xlink:href="#mcdaa5c5c67" x="48.851283" y="259.416636" style="stroke: #000000; stroke-width: 0.8"/>
      </g>
     </g>
     <g id="text_2">
      <text style="font: 10px 'Arial', sans-serif; text-anchor: end" x="41.851283" y="262.995542" transform="rotate(-0 41.851283 262.995542)">−0.2</text>
     </g>
    </g>
    <g id="ytick_2">
     <g id="line2d_2">
      <g>
       <use xlink:href="#mcdaa5c5c67" x="48.851283" y="203.803722" style="stroke: #000000; stroke-width: 0.8"/>
      </g>
     </g>
     <g id="text_3">
      <text style="font: 10px 'Arial', sans-serif; text-anchor: end" x="41.851283" y="207.382628" transform="rotate(-0 41.851283 207.382628)">0.0</text>
     </g>
    </g>
    <g id="ytick_3">
     <g id="line2d_3">
      <g>
       <use xlink:href="#mcdaa5c5c67" x="48.851283" y="148.190807" style="stroke: #000000; stroke-width: 0.8"/>
      </g>
     </g>
     <g id="text_4">
      <text style="font: 10px 'Arial', sans-serif; text-anchor: end" x="41.851283" y="151.769713" transform="rotate(-0 41.851283 151.769713)">0.2</text>
     </g>
    </g>
    <g id="ytick_4">
     <g id="line2d_4">
      <g>
       <use xlink:href="#mcdaa5c5c67" x="48.851283" y="92.577893" style="stroke: #000000; stroke-width: 0.8"/>
      </g>
     </g>
     <g id="text_5">
      <text style="font: 10px 'Arial', sans-serif; text-anchor: end" x="41.851283" y="96.156799" transform="rotate(-0 41.851283 96.156799)">0.4</text>
     </g>
    </g>
    <g id="ytick_5">
     <g id="line2d_5">
      <g>
       <use xlink:href="#mcdaa5c5c67" x="48.851283" y="36.964978" style="stroke: #000000; stroke-width: 0.8"/>
      </g>
     </g>
     <g id="text_6">
      <text style="font: 10px 'Arial', sans-serif; text-anchor: end" x="41.851283" y="40.543884" transform="rotate(-0 41.851283 40.543884)">0.6</text>
     </g>
    </g>
    <g id="text_7">
     <text style="font: 10px 'Arial', sans-serif; text-anchor: middle" x="16.005971" y="152.31998" transform="rotate(-90 16.005971 152.31998)">Activity</text>
    </g>
   </g>
   <g id="line2d_6">
    <path d="M 48.851283 186.457456 
L 60.011283 184.928022 
L 71.171283 189.005627 
L 82.331283 207.194403 
L 93.491283 215.464307 
L 104.651283 219.032342 
L 115.811283 216.999167 
L 126.971283 220.553964 
L 138.131283 228.911695 
L 149.291283 237.429323 
L 160.451283 237.604578 
L 171.611283 239.627075 
L 182.771283 234.134442 
L 193.931283 222.218718 
L 205.091283 197.264652 
L 216.251283 186.545488 
L 227.411283 175.638173 
L 238.571283 165.609574 
L 249.731283 141.199856 
L 260.891283 134.787652 
L 272.051283 125.261411 
L 283.211283 116.008495 
L 294.371283 85.932478 
L 305.531283 76.469148 
L 316.691283 80.652502 
L 327.851283 80.470744 
L 339.011283 86.717312 
L 350.171283 92.935739 
L 361.331283 103.889613 
L 372.491283 104.427802 
L 383.651283 109.543979 
L 394.811283 105.84228 
L 405.971283 105.467345 
" clip-path="url(#p9284f7b7d9)" style="fill: none; stroke: #1f77b4; stroke-width: 1.5; stroke-linecap: square"/>
   </g>
   <g id="line2d_7">
    <path d="M 48.851283 220.470309 
L 60.011283 216.68047 
L 71.171283 216.527482 
L 82.331283 214.111718 
L 93.491283 228.954121 
L 104.651283 252.118949 
L 115.811283 245.571443 
L 126.971283 245.541747 
L 138.131283 250.740482 
L 149.291283 240.121393 
L 160.451283 220.236009 
L 171.611283 205.058307 
L 182.771283 202.621881 
L 193.931283 210.508096 
L 205.091283 220.770442 
L 216.251283 201.746083 
L 227.411283 188.132097 
L 238.571283 180.828916 
L 249.731283 179.733088 
L 260.891283 166.460099 
L 272.051283 171.70781 
L 283.211283 173.149221 
L 294.371283 157.94682 
L 305.531283 155.129441 
L 316.691283 160.3061 
L 327.851283 153.678848 
L 339.011283 160.910071 
L 350.171283 166.006876 
L 361.331283 160.730537 
L 372.491283 176.705491 
L 383.651283 188.45999 
L 394.811283 173.537596 
L 405.971283 163.60982 
" clip-path="url(#p9284f7b7d9)" style="fill: none; stroke: #ff7f0e; stroke-width: 1.5; stroke-linecap: square"/>
   </g>
   <g id="line2d_8">
    <path d="M 82.331283 285.37598 
L 82.331283 19.26398 
" clip-path="url(#p9284f7b7d9)" style="fill: none; stroke-dasharray: 5.55,2.4; stroke-dashoffset: 0; stroke: #000000; stroke-opacity: 0.5; stroke-width: 1.5"/>
   </g>
   <g id="line2d_9">
    <path d="M 383.651283 285.37598 
L 383.651283 19.26398 
" clip-path="url(#p9284f7b7d9)" style="fill: none; stroke-dasharray: 5.55,2.4; stroke-dashoffset: 0; stroke: #000000; stroke-opacity: 0.5; stroke-width: 1.5"/>
   </g>
   <g id="patch_3">
    <path d="M 48.851283 285.37598 
L 405.971283 285.37598 
" style="fill: none; stroke: #000000; stroke-width: 0.8; stroke-linejoin: miter; stroke-linecap: square"/>
   </g>
   <g id="text_8">
    <text style="font: 6.94px 'Arial', sans-serif" transform="translate(10.097767 321.385533) rotate(-35)">-0.1s Sampling</text>
   </g>
   <g id="text_9">
    <text style="font: 6.94px 'Arial', sans-serif" transform="translate(57.794497 311.430872) rotate(-35)">Sampling</text>
   </g>
   <g id="text_10">
    <text style="font: 6.94px 'Arial', sans-serif" transform="translate(319.037191 339.456682) rotate(-35)">Movement to Lateral Port</text>
   </g>
   <g id="text_11">
    <text style="font: 8.33px 'Arial', sans-serif; text-anchor: middle" x="227.411283" y="13.26398" transform="rotate(-0 227.411283 13.26398)">GP4_85_s10_L70_D250_ALM - Trace:15_GP4_85_s10_L70_D250_ALM (when: correct)</text>
   </g>
   <g id="legend_1">
    <g id="patch_4">
     <path d="M 130.092964 354.133136 
L 324.729602 354.133136 
Q 326.117602 354.133136 326.117602 352.745136 
L 326.117602 343.45638 
Q 326.117602 342.06838 324.729602 342.06838 
L 130.092964 342.06838 
Q 128.704964 342.06838 128.704964 343.45638 
L 128.704964 352.745136 
Q 128.704964 354.133136 130.092964 354.133136 
z
" style="fill: #ffffff; opacity: 0.8; stroke: #cccccc; stroke-linejoin: miter"/>
    </g>
    <g id="line2d_10">
     <path d="M 131.480964 347.467483 
L 138.420964 347.467483 
L 145.360964 347.467483 
" style="fill: none; stroke: #1f77b4; stroke-width: 1.5; stroke-linecap: square"/>
    </g>
    <g id="text_12">
     <text style="font: 6.94px 'Arial', sans-serif; text-anchor: start" x="150.912964" y="349.896483" transform="rotate(-0 150.912964 349.896483)">DecisionRight (103 pts)</text>
    </g>
    <g id="line2d_11">
     <path d="M 236.920167 347.467483 
L 243.860167 347.467483 
L 250.800167 347.467483 
" style="fill: none; stroke: #ff7f0e; stroke-width: 1.5; stroke-linecap: square"/>
    </g>
    <g id="text_13">
     <text style="font: 6.94px 'Arial', sans-serif; text-anchor: start" x="256.352167" y="349.896483" transform="rotate(-0 256.352167 349.896483)">DecisionLeft (110 pts)</text>
    </g>
   </g>
  </g>
 </g>
 <defs>
  <clipPath id="p9284f7b7d9">
   <rect x="48.851283" y="19.26398" width="357.12" height="266.112"/>
  </clipPath>
 </defs>
</svg>
