<?xml version="1.0" encoding="utf-8" standalone="no"?>
<!DOCTYPE svg PUBLIC "-//W3C//DTD SVG 1.1//EN"
  "http://www.w3.org/Graphics/SVG/1.1/DTD/svg11.dtd">
<svg xmlns:xlink="http://www.w3.org/1999/xlink" width="413.171283pt" height="361.333136pt" viewBox="0 0 413.171283 361.333136" xmlns="http://www.w3.org/2000/svg" version="1.1">
 <metadata>
  <rdf:RDF xmlns:dc="http://purl.org/dc/elements/1.1/" xmlns:cc="http://creativecommons.org/ns#" xmlns:rdf="http://www.w3.org/1999/02/22-rdf-syntax-ns#">
   <cc:Work>
    <dc:type rdf:resource="http://purl.org/dc/dcmitype/StillImage"/>
    <dc:date>2025-12-29T04:08:09.032621</dc:date>
    <dc:format>image/svg+xml</dc:format>
    <dc:creator>
     <cc:Agent>
      <dc:title>Matplotlib v3.8.0, https://matplotlib.org/</dc:title>
     </cc:Agent>
    </dc:creator>
   </cc:Work>
  </rdf:RDF>
 </metadata>
 <defs>
  <style type="text/css">*{stroke-linejoin: round; stroke-linecap: butt}</style>
 </defs>
 <g id="figure_1">
  <g id="patch_1">
   <path d="M 0 361.333136 
L 413.171283 361.333136 
L 413.171283 -0 
L 0 -0 
z
" style="fill: #ffffff"/>
  </g>
  <g id="axes_1">
   <g id="patch_2">
    <path d="M 48.851283 285.37598 
L 405.971283 285.37598 
L 405.971283 19.26398 
L 48.851283 19.26398 
z
" style="fill: #ffffff"/>
   </g>
   <g id="PolyCollection_1">
    <defs>
     <path id="m66d37fbe1d" d="M 48.851283 -139.701377 
L 48.851283 -118.041219 
L 60.011283 -118.660116 
L 71.171283 -116.308057 
L 82.331283 -107.275765 
L 93.491283 -99.182544 
L 104.651283 -90.018352 
L 115.811283 -88.053156 
L 126.971283 -97.562581 
L 138.131283 -100.665571 
L 149.291283 -103.789301 
L 160.451283 -120.292811 
L 171.611283 -144.699256 
L 182.771283 -155.668474 
L 193.931283 -170.455724 
L 205.091283 -182.44329 
L 216.251283 -197.056032 
L 227.411283 -212.525062 
L 238.571283 -220.37802 
L 249.731283 -232.155999 
L 260.891283 -243.232409 
L 272.051283 -246.520167 
L 283.211283 -239.784971 
L 294.371283 -244.985539 
L 305.531283 -258.688166 
L 316.691283 -258.101972 
L 327.851283 -245.325058 
L 339.011283 -236.721834 
L 350.171283 -232.989413 
L 361.331283 -224.107564 
L 372.491283 -219.560707 
L 383.651283 -218.76027 
L 394.811283 -205.051321 
L 405.971283 -195.83959 
L 405.971283 -228.284537 
L 405.971283 -228.284537 
L 394.811283 -240.442215 
L 383.651283 -257.083152 
L 372.491283 -260.742877 
L 361.331283 -268.432658 
L 350.171283 -280.952872 
L 339.011283 -289.680037 
L 327.851283 -301.467646 
L 316.691283 -315.504356 
L 305.531283 -316.017715 
L 294.371283 -302.638611 
L 283.211283 -296.982222 
L 272.051283 -305.614074 
L 260.891283 -302.37121 
L 249.731283 -291.367088 
L 238.571283 -280.78236 
L 227.411283 -274.178409 
L 216.251283 -259.552009 
L 205.091283 -244.881689 
L 193.931283 -230.475128 
L 182.771283 -210.643973 
L 171.611283 -194.910593 
L 160.451283 -161.796558 
L 149.291283 -136.659217 
L 138.131283 -125.13654 
L 126.971283 -116.108308 
L 115.811283 -103.210508 
L 104.651283 -106.301549 
L 93.491283 -118.110804 
L 82.331283 -126.530414 
L 71.171283 -136.44251 
L 60.011283 -139.990383 
L 48.851283 -139.701377 
z
" style="stroke: #1f77b4; stroke-opacity: 0.2"/>
    </defs>
    <g clip-path="url(#pc4545bdfeb)">
     <use xlink:href="#m66d37fbe1d" x="0" y="361.333136" style="fill: #1f77b4; fill-opacity: 0.2; stroke: #1f77b4; stroke-opacity: 0.2"/>
    </g>
   </g>
   <g id="PolyCollection_2">
    <defs>
     <path id="m312b022bb9" d="M 48.851283 -146.577629 
L 48.851283 -124.674322 
L 60.011283 -125.931182 
L 71.171283 -117.894627 
L 82.331283 -111.986386 
L 93.491283 -105.847172 
L 104.651283 -97.750756 
L 115.811283 -99.079915 
L 126.971283 -108.363717 
L 138.131283 -131.126064 
L 149.291283 -143.713854 
L 160.451283 -157.590258 
L 171.611283 -169.066716 
L 182.771283 -182.748607 
L 193.931283 -187.539019 
L 205.091283 -189.856917 
L 216.251283 -204.351247 
L 227.411283 -217.561859 
L 238.571283 -220.828667 
L 249.731283 -229.955484 
L 260.891283 -244.262059 
L 272.051283 -251.615943 
L 283.211283 -254.676676 
L 294.371283 -268.437681 
L 305.531283 -275.451062 
L 316.691283 -268.325585 
L 327.851283 -256.1886 
L 339.011283 -237.228793 
L 350.171283 -224.26079 
L 361.331283 -216.264996 
L 372.491283 -212.506786 
L 383.651283 -209.3985 
L 394.811283 -201.548561 
L 405.971283 -203.798629 
L 405.971283 -241.923166 
L 405.971283 -241.923166 
L 394.811283 -238.420731 
L 383.651283 -245.738284 
L 372.491283 -250.897792 
L 361.331283 -257.168111 
L 350.171283 -266.416176 
L 339.011283 -281.689746 
L 327.851283 -304.861755 
L 316.691283 -318.83705 
L 305.531283 -329.973156 
L 294.371283 -319.118055 
L 283.211283 -303.138855 
L 272.051283 -298.600491 
L 260.891283 -286.805034 
L 249.731283 -271.724752 
L 238.571283 -262.991462 
L 227.411283 -262.195711 
L 216.251283 -250.304636 
L 205.091283 -231.448071 
L 193.931283 -229.370166 
L 182.771283 -224.60613 
L 171.611283 -207.607858 
L 160.451283 -194.514794 
L 149.291283 -178.803965 
L 138.131283 -163.889646 
L 126.971283 -133.520098 
L 115.811283 -121.138301 
L 104.651283 -118.161916 
L 93.491283 -125.937062 
L 82.331283 -133.606418 
L 71.171283 -139.210411 
L 60.011283 -147.632819 
L 48.851283 -146.577629 
z
" style="stroke: #ff7f0e; stroke-opacity: 0.2"/>
    </defs>
    <g clip-path="url(#pc4545bdfeb)">
     <use xlink:href="#m312b022bb9" x="0" y="361.333136" style="fill: #ff7f0e; fill-opacity: 0.2; stroke: #ff7f0e; stroke-opacity: 0.2"/>
    </g>
   </g>
   <g id="matplotlib.axis_1">
    <g id="text_1">
     <text style="font: 10px 'Arial', sans-serif; text-anchor: middle" x="227.411283" y="296.533792" transform="rotate(-0 227.411283 296.533792)">Time</text>
    </g>
   </g>
   <g id="matplotlib.axis_2">
    <g id="ytick_1">
     <g id="line2d_1">
      <defs>
       <path id="mf1868f55aa" d="M 0 0 
L -3.5 0 
" style="stroke: #000000; stroke-width: 0.8"/>
      </defs>
      <g>
       <use xlink:href="#mf1868f55aa" x="48.851283" y="256.140563" style="stroke: #000000; stroke-width: 0.8"/>
      </g>
     </g>
     <g id="text_2">
      <text style="font: 10px 'Arial', sans-serif; text-anchor: end" x="41.851283" y="259.719469" transform="rotate(-0 41.851283 259.719469)">−0.4</text>
     </g>
    </g>
    <g id="ytick_2">
     <g id="line2d_2">
      <g>
       <use xlink:href="#mf1868f55aa" x="48.851283" y="209.325904" style="stroke: #000000; stroke-width: 0.8"/>
      </g>
     </g>
     <g id="text_3">
      <text style="font: 10px 'Arial', sans-serif; text-anchor: end" x="41.851283" y="212.90481" transform="rotate(-0 41.851283 212.90481)">−0.2</text>
     </g>
    </g>
    <g id="ytick_3">
     <g id="line2d_3">
      <g>
       <use xlink:href="#mf1868f55aa" x="48.851283" y="162.511245" style="stroke: #000000; stroke-width: 0.8"/>
      </g>
     </g>
     <g id="text_4">
      <text style="font: 10px 'Arial', sans-serif; text-anchor: end" x="41.851283" y="166.090151" transform="rotate(-0 41.851283 166.090151)">0.0</text>
     </g>
    </g>
    <g id="ytick_4">
     <g id="line2d_4">
      <g>
       <use xlink:href="#mf1868f55aa" x="48.851283" y="115.696586" style="stroke: #000000; stroke-width: 0.8"/>
      </g>
     </g>
     <g id="text_5">
      <text style="font: 10px 'Arial', sans-serif; text-anchor: end" x="41.851283" y="119.275492" transform="rotate(-0 41.851283 119.275492)">0.2</text>
     </g>
    </g>
    <g id="ytick_5">
     <g id="line2d_5">
      <g>
       <use xlink:href="#mf1868f55aa" x="48.851283" y="68.881927" style="stroke: #000000; stroke-width: 0.8"/>
      </g>
     </g>
     <g id="text_6">
      <text style="font: 10px 'Arial', sans-serif; text-anchor: end" x="41.851283" y="72.460833" transform="rotate(-0 41.851283 72.460833)">0.4</text>
     </g>
    </g>
    <g id="ytick_6">
     <g id="line2d_6">
      <g>
       <use xlink:href="#mf1868f55aa" x="48.851283" y="22.067268" style="stroke: #000000; stroke-width: 0.8"/>
      </g>
     </g>
     <g id="text_7">
      <text style="font: 10px 'Arial', sans-serif; text-anchor: end" x="41.851283" y="25.646174" transform="rotate(-0 41.851283 25.646174)">0.6</text>
     </g>
    </g>
    <g id="text_8">
     <text style="font: 10px 'Arial', sans-serif; text-anchor: middle" x="16.005971" y="152.31998" transform="rotate(-90 16.005971 152.31998)">Activity</text>
    </g>
   </g>
   <g id="line2d_7">
    <path d="M 48.851283 232.461838 
L 60.011283 232.007886 
L 71.171283 234.957853 
L 82.331283 244.430047 
L 93.491283 252.686462 
L 104.651283 263.173186 
L 115.811283 265.701304 
L 126.971283 254.497692 
L 138.131283 248.432081 
L 149.291283 241.108877 
L 160.451283 220.288453 
L 171.611283 191.528212 
L 182.771283 178.176912 
L 193.931283 160.86771 
L 205.091283 147.670648 
L 216.251283 133.029115 
L 227.411283 117.981401 
L 238.571283 110.752944 
L 249.731283 99.571592 
L 260.891283 88.531329 
L 272.051283 85.266015 
L 283.211283 92.949539 
L 294.371283 87.521061 
L 305.531283 73.980199 
L 316.691283 74.529972 
L 327.851283 87.936784 
L 339.011283 98.1322 
L 350.171283 104.361993 
L 361.331283 115.063025 
L 372.491283 121.181346 
L 383.651283 123.411424 
L 394.811283 138.586368 
L 405.971283 149.271073 
" clip-path="url(#pc4545bdfeb)" style="fill: none; stroke: #1f77b4; stroke-width: 1.5; stroke-linecap: square"/>
   </g>
   <g id="line2d_8">
    <path d="M 48.851283 225.707159 
L 60.011283 224.551136 
L 71.171283 232.780617 
L 82.331283 238.536734 
L 93.491283 245.441019 
L 104.651283 253.3768 
L 115.811283 251.224028 
L 126.971283 240.391229 
L 138.131283 213.825281 
L 149.291283 200.074227 
L 160.451283 185.280609 
L 171.611283 172.995849 
L 182.771283 157.655767 
L 193.931283 152.878543 
L 205.091283 150.680642 
L 216.251283 134.005194 
L 227.411283 121.454352 
L 238.571283 119.42307 
L 249.731283 110.493018 
L 260.891283 95.79959 
L 272.051283 86.224919 
L 283.211283 82.425369 
L 294.371283 67.555272 
L 305.531283 58.621027 
L 316.691283 67.751818 
L 327.851283 80.807958 
L 339.011283 101.873865 
L 350.171283 115.994653 
L 361.331283 124.616582 
L 372.491283 129.630848 
L 383.651283 133.764744 
L 394.811283 141.34849 
L 405.971283 138.472238 
" clip-path="url(#pc4545bdfeb)" style="fill: none; stroke: #ff7f0e; stroke-width: 1.5; stroke-linecap: square"/>
   </g>
   <g id="line2d_9">
    <path d="M 82.331283 285.37598 
L 82.331283 19.26398 
" clip-path="url(#pc4545bdfeb)" style="fill: none; stroke-dasharray: 5.55,2.4; stroke-dashoffset: 0; stroke: #000000; stroke-opacity: 0.5; stroke-width: 1.5"/>
   </g>
   <g id="line2d_10">
    <path d="M 383.651283 285.37598 
L 383.651283 19.26398 
" clip-path="url(#pc4545bdfeb)" style="fill: none; stroke-dasharray: 5.55,2.4; stroke-dashoffset: 0; stroke: #000000; stroke-opacity: 0.5; stroke-width: 1.5"/>
   </g>
   <g id="patch_3">
    <path d="M 48.851283 285.37598 
L 405.971283 285.37598 
" style="fill: none; stroke: #000000; stroke-width: 0.8; stroke-linejoin: miter; stroke-linecap: square"/>
   </g>
   <g id="text_9">
    <text style="font: 6.94px 'Arial', sans-serif" transform="translate(10.097767 321.385533) rotate(-35)">-0.1s Sampling</text>
   </g>
   <g id="text_10">
    <text style="font: 6.94px 'Arial', sans-serif" transform="translate(57.794497 311.430872) rotate(-35)">Sampling</text>
   </g>
   <g id="text_11">
    <text style="font: 6.94px 'Arial', sans-serif" transform="translate(319.037191 339.456682) rotate(-35)">Movement to Lateral Port</text>
   </g>
   <g id="text_12">
    <text style="font: 8.33px 'Arial', sans-serif; text-anchor: middle" x="227.411283" y="13.26398" transform="rotate(-0 227.411283 13.26398)">GP4_85_s10_L70_D250_ALM - Trace:6_GP4_85_s10_L70_D250_ALM (when: correct)</text>
   </g>
   <g id="legend_1">
    <g id="patch_4">
     <path d="M 130.092964 354.133136 
L 324.729602 354.133136 
Q 326.117602 354.133136 326.117602 352.745136 
L 326.117602 343.45638 
Q 326.117602 342.06838 324.729602 342.06838 
L 130.092964 342.06838 
Q 128.704964 342.06838 128.704964 343.45638 
L 128.704964 352.745136 
Q 128.704964 354.133136 130.092964 354.133136 
z
" style="fill: #ffffff; opacity: 0.8; stroke: #cccccc; stroke-linejoin: miter"/>
    </g>
    <g id="line2d_11">
     <path d="M 131.480964 347.467483 
L 138.420964 347.467483 
L 145.360964 347.467483 
" style="fill: none; stroke: #1f77b4; stroke-width: 1.5; stroke-linecap: square"/>
    </g>
    <g id="text_13">
     <text style="font: 6.94px 'Arial', sans-serif; text-anchor: start" x="150.912964" y="349.896483" transform="rotate(-0 150.912964 349.896483)">DecisionRight (103 pts)</text>
    </g>
    <g id="line2d_12">
     <path d="M 236.920167 347.467483 
L 243.860167 347.467483 
L 250.800167 347.467483 
" style="fill: none; stroke: #ff7f0e; stroke-width: 1.5; stroke-linecap: square"/>
    </g>
    <g id="text_14">
     <text style="font: 6.94px 'Arial', sans-serif; text-anchor: start" x="256.352167" y="349.896483" transform="rotate(-0 256.352167 349.896483)">DecisionLeft (110 pts)</text>
    </g>
   </g>
  </g>
 </g>
 <defs>
  <clipPath id="pc4545bdfeb">
   <rect x="48.851283" y="19.26398" width="357.12" height="266.112"/>
  </clipPath>
 </defs>
</svg>
