<?xml version="1.0" encoding="utf-8" standalone="no"?>
<!DOCTYPE svg PUBLIC "-//W3C//DTD SVG 1.1//EN"
  "http://www.w3.org/Graphics/SVG/1.1/DTD/svg11.dtd">
<svg xmlns:xlink="http://www.w3.org/1999/xlink" width="413.171283pt" height="361.333136pt" viewBox="0 0 413.171283 361.333136" xmlns="http://www.w3.org/2000/svg" version="1.1">
 <metadata>
  <rdf:RDF xmlns:dc="http://purl.org/dc/elements/1.1/" xmlns:cc="http://creativecommons.org/ns#" xmlns:rdf="http://www.w3.org/1999/02/22-rdf-syntax-ns#">
   <cc:Work>
    <dc:type rdf:resource="http://purl.org/dc/dcmitype/StillImage"/>
    <dc:date>2025-12-29T04:08:07.142164</dc:date>
    <dc:format>image/svg+xml</dc:format>
    <dc:creator>
     <cc:Agent>
      <dc:title>Matplotlib v3.8.0, https://matplotlib.org/</dc:title>
     </cc:Agent>
    </dc:creator>
   </cc:Work>
  </rdf:RDF>
 </metadata>
 <defs>
  <style type="text/css">*{stroke-linejoin: round; stroke-linecap: butt}</style>
 </defs>
 <g id="figure_1">
  <g id="patch_1">
   <path d="M 0 361.333136 
L 413.171283 361.333136 
L 413.171283 -0 
L 0 -0 
z
" style="fill: #ffffff"/>
  </g>
  <g id="axes_1">
   <g id="patch_2">
    <path d="M 48.851283 285.37598 
L 405.971283 285.37598 
L 405.971283 19.26398 
L 48.851283 19.26398 
z
" style="fill: #ffffff"/>
   </g>
   <g id="PolyCollection_1">
    <defs>
     <path id="m543bcf3430" d="M 48.851283 -119.897437 
L 48.851283 -95.138642 
L 60.011283 -110.334668 
L 71.171283 -111.474023 
L 82.331283 -101.88476 
L 93.491283 -101.58585 
L 104.651283 -105.79333 
L 115.811283 -94.420514 
L 126.971283 -88.053156 
L 138.131283 -91.941714 
L 149.291283 -100.304329 
L 160.451283 -107.846623 
L 171.611283 -132.60954 
L 182.771283 -157.149241 
L 193.931283 -167.494915 
L 205.091283 -181.137489 
L 216.251283 -199.922412 
L 227.411283 -201.119269 
L 238.571283 -199.703792 
L 249.731283 -213.711584 
L 260.891283 -232.245363 
L 272.051283 -226.797992 
L 283.211283 -229.870759 
L 294.371283 -254.654204 
L 305.531283 -258.608583 
L 316.691283 -262.730597 
L 327.851283 -264.064931 
L 339.011283 -266.713672 
L 350.171283 -269.517648 
L 361.331283 -267.384844 
L 372.491283 -277.750048 
L 383.651283 -285.238569 
L 394.811283 -269.530915 
L 405.971283 -243.187134 
L 405.971283 -287.344253 
L 405.971283 -287.344253 
L 394.811283 -313.776422 
L 383.651283 -329.973156 
L 372.491283 -326.206828 
L 361.331283 -317.515196 
L 350.171283 -321.331549 
L 339.011283 -318.66423 
L 327.851283 -316.498966 
L 316.691283 -317.055004 
L 305.531283 -314.90967 
L 294.371283 -311.482406 
L 283.211283 -281.810602 
L 272.051283 -278.538823 
L 260.891283 -285.734371 
L 249.731283 -260.709636 
L 238.571283 -244.182116 
L 227.411283 -245.066205 
L 216.251283 -242.694886 
L 205.091283 -217.201515 
L 193.931283 -200.870876 
L 182.771283 -185.711889 
L 171.611283 -159.104637 
L 160.451283 -134.419148 
L 149.291283 -126.530952 
L 138.131283 -117.661246 
L 126.971283 -113.088554 
L 115.811283 -120.121544 
L 104.651283 -128.941108 
L 93.491283 -123.571924 
L 82.331283 -125.752684 
L 71.171283 -135.343244 
L 60.011283 -133.977654 
L 48.851283 -119.897437 
z
" style="stroke: #1f77b4; stroke-opacity: 0.2"/>
    </defs>
    <g clip-path="url(#p30aa629a50)">
     <use xlink:href="#m543bcf3430" x="0" y="361.333136" style="fill: #1f77b4; fill-opacity: 0.2; stroke: #1f77b4; stroke-opacity: 0.2"/>
    </g>
   </g>
   <g id="PolyCollection_2">
    <defs>
     <path id="m48a84e1ed2" d="M 48.851283 -154.095222 
L 48.851283 -129.599972 
L 60.011283 -131.824659 
L 71.171283 -132.917414 
L 82.331283 -124.651432 
L 93.491283 -113.752775 
L 104.651283 -104.74865 
L 115.811283 -99.949996 
L 126.971283 -92.709657 
L 138.131283 -102.327328 
L 149.291283 -121.502073 
L 160.451283 -132.718098 
L 171.611283 -137.83506 
L 182.771283 -154.801994 
L 193.931283 -176.772712 
L 205.091283 -172.890714 
L 216.251283 -198.433407 
L 227.411283 -217.881738 
L 238.571283 -213.095959 
L 249.731283 -223.018619 
L 260.891283 -235.9545 
L 272.051283 -238.710265 
L 283.211283 -233.044689 
L 294.371283 -253.294624 
L 305.531283 -252.669953 
L 316.691283 -255.038375 
L 327.851283 -257.230133 
L 339.011283 -244.350799 
L 350.171283 -251.91173 
L 361.331283 -243.692041 
L 372.491283 -232.648282 
L 383.651283 -232.641788 
L 394.811283 -232.763011 
L 405.971283 -232.752401 
L 405.971283 -272.2951 
L 405.971283 -272.2951 
L 394.811283 -275.265241 
L 383.651283 -277.210474 
L 372.491283 -278.520708 
L 361.331283 -287.46777 
L 350.171283 -293.985426 
L 339.011283 -286.264952 
L 327.851283 -303.241879 
L 316.691283 -304.34652 
L 305.531283 -303.580286 
L 294.371283 -305.13499 
L 283.211283 -283.484619 
L 272.051283 -293.063777 
L 260.891283 -285.551297 
L 249.731283 -270.435151 
L 238.571283 -258.808169 
L 227.411283 -262.9354 
L 216.251283 -238.604459 
L 205.091283 -212.02348 
L 193.931283 -220.151591 
L 182.771283 -194.721583 
L 171.611283 -175.282808 
L 160.451283 -168.995701 
L 149.291283 -153.840674 
L 138.131283 -129.859606 
L 126.971283 -116.201627 
L 115.811283 -124.107646 
L 104.651283 -129.689395 
L 93.491283 -138.163414 
L 82.331283 -148.998141 
L 71.171283 -158.272459 
L 60.011283 -157.410534 
L 48.851283 -154.095222 
z
" style="stroke: #ff7f0e; stroke-opacity: 0.2"/>
    </defs>
    <g clip-path="url(#p30aa629a50)">
     <use xlink:href="#m48a84e1ed2" x="0" y="361.333136" style="fill: #ff7f0e; fill-opacity: 0.2; stroke: #ff7f0e; stroke-opacity: 0.2"/>
    </g>
   </g>
   <g id="matplotlib.axis_1">
    <g id="text_1">
     <text style="font: 10px 'Arial', sans-serif; text-anchor: middle" x="227.411283" y="296.533792" transform="rotate(-0 227.411283 296.533792)">Time</text>
    </g>
   </g>
   <g id="matplotlib.axis_2">
    <g id="ytick_1">
     <g id="line2d_1">
      <defs>
       <path id="m31373bd8cc" d="M 0 0 
L -3.5 0 
" style="stroke: #000000; stroke-width: 0.8"/>
      </defs>
      <g>
       <use xlink:href="#m31373bd8cc" x="48.851283" y="267.020664" style="stroke: #000000; stroke-width: 0.8"/>
      </g>
     </g>
     <g id="text_2">
      <text style="font: 10px 'Arial', sans-serif; text-anchor: end" x="41.851283" y="270.59957" transform="rotate(-0 41.851283 270.59957)">−0.4</text>
     </g>
    </g>
    <g id="ytick_2">
     <g id="line2d_2">
      <g>
       <use xlink:href="#m31373bd8cc" x="48.851283" y="227.728364" style="stroke: #000000; stroke-width: 0.8"/>
      </g>
     </g>
     <g id="text_3">
      <text style="font: 10px 'Arial', sans-serif; text-anchor: end" x="41.851283" y="231.30727" transform="rotate(-0 41.851283 231.30727)">−0.2</text>
     </g>
    </g>
    <g id="ytick_3">
     <g id="line2d_3">
      <g>
       <use xlink:href="#m31373bd8cc" x="48.851283" y="188.436064" style="stroke: #000000; stroke-width: 0.8"/>
      </g>
     </g>
     <g id="text_4">
      <text style="font: 10px 'Arial', sans-serif; text-anchor: end" x="41.851283" y="192.01497" transform="rotate(-0 41.851283 192.01497)">0.0</text>
     </g>
    </g>
    <g id="ytick_4">
     <g id="line2d_4">
      <g>
       <use xlink:href="#m31373bd8cc" x="48.851283" y="149.143764" style="stroke: #000000; stroke-width: 0.8"/>
      </g>
     </g>
     <g id="text_5">
      <text style="font: 10px 'Arial', sans-serif; text-anchor: end" x="41.851283" y="152.72267" transform="rotate(-0 41.851283 152.72267)">0.2</text>
     </g>
    </g>
    <g id="ytick_5">
     <g id="line2d_5">
      <g>
       <use xlink:href="#m31373bd8cc" x="48.851283" y="109.851464" style="stroke: #000000; stroke-width: 0.8"/>
      </g>
     </g>
     <g id="text_6">
      <text style="font: 10px 'Arial', sans-serif; text-anchor: end" x="41.851283" y="113.43037" transform="rotate(-0 41.851283 113.43037)">0.4</text>
     </g>
    </g>
    <g id="ytick_6">
     <g id="line2d_6">
      <g>
       <use xlink:href="#m31373bd8cc" x="48.851283" y="70.559164" style="stroke: #000000; stroke-width: 0.8"/>
      </g>
     </g>
     <g id="text_7">
      <text style="font: 10px 'Arial', sans-serif; text-anchor: end" x="41.851283" y="74.13807" transform="rotate(-0 41.851283 74.13807)">0.6</text>
     </g>
    </g>
    <g id="ytick_7">
     <g id="line2d_7">
      <g>
       <use xlink:href="#m31373bd8cc" x="48.851283" y="31.266864" style="stroke: #000000; stroke-width: 0.8"/>
      </g>
     </g>
     <g id="text_8">
      <text style="font: 10px 'Arial', sans-serif; text-anchor: end" x="41.851283" y="34.84577" transform="rotate(-0 41.851283 34.84577)">0.8</text>
     </g>
    </g>
    <g id="text_9">
     <text style="font: 10px 'Arial', sans-serif; text-anchor: middle" x="16.005971" y="152.31998" transform="rotate(-90 16.005971 152.31998)">Activity</text>
    </g>
   </g>
   <g id="line2d_8">
    <path d="M 48.851283 253.815096 
L 60.011283 239.176977 
L 71.171283 237.924502 
L 82.331283 247.514416 
L 93.491283 248.754249 
L 104.651283 243.965917 
L 115.811283 254.062107 
L 126.971283 260.762281 
L 138.131283 256.531656 
L 149.291283 247.915495 
L 160.451283 240.200251 
L 171.611283 215.476047 
L 182.771283 189.90257 
L 193.931283 177.150241 
L 205.091283 162.163634 
L 216.251283 140.024487 
L 227.411283 138.240399 
L 238.571283 139.390182 
L 249.731283 124.122526 
L 260.891283 102.343269 
L 272.051283 108.664728 
L 283.211283 105.492455 
L 294.371283 78.264831 
L 305.531283 74.574009 
L 316.691283 71.440338 
L 327.851283 71.051191 
L 339.011283 68.644185 
L 350.171283 65.908537 
L 361.331283 68.883116 
L 372.491283 59.354698 
L 383.651283 53.727273 
L 394.811283 69.679468 
L 405.971283 96.067443 
" clip-path="url(#p30aa629a50)" style="fill: none; stroke: #1f77b4; stroke-width: 1.5; stroke-linecap: square"/>
   </g>
   <g id="line2d_9">
    <path d="M 48.851283 219.485539 
L 60.011283 216.71554 
L 71.171283 215.738199 
L 82.331283 224.508349 
L 93.491283 235.375041 
L 104.651283 244.114113 
L 115.811283 249.304315 
L 126.971283 256.877494 
L 138.131283 245.239668 
L 149.291283 223.661762 
L 160.451283 210.476236 
L 171.611283 204.774203 
L 182.771283 186.571347 
L 193.931283 162.870984 
L 205.091283 168.876039 
L 216.251283 142.814203 
L 227.411283 120.924567 
L 238.571283 125.381072 
L 249.731283 114.606251 
L 260.891283 100.580238 
L 272.051283 95.446115 
L 283.211283 103.068482 
L 294.371283 82.118329 
L 305.531283 83.208016 
L 316.691283 81.640689 
L 327.851283 81.097133 
L 339.011283 96.025263 
L 350.171283 88.384558 
L 361.331283 95.753233 
L 372.491283 105.748641 
L 383.651283 106.407008 
L 394.811283 107.319013 
L 405.971283 108.809388 
" clip-path="url(#p30aa629a50)" style="fill: none; stroke: #ff7f0e; stroke-width: 1.5; stroke-linecap: square"/>
   </g>
   <g id="line2d_10">
    <path d="M 82.331283 285.37598 
L 82.331283 19.26398 
" clip-path="url(#p30aa629a50)" style="fill: none; stroke-dasharray: 5.55,2.4; stroke-dashoffset: 0; stroke: #000000; stroke-opacity: 0.5; stroke-width: 1.5"/>
   </g>
   <g id="line2d_11">
    <path d="M 383.651283 285.37598 
L 383.651283 19.26398 
" clip-path="url(#p30aa629a50)" style="fill: none; stroke-dasharray: 5.55,2.4; stroke-dashoffset: 0; stroke: #000000; stroke-opacity: 0.5; stroke-width: 1.5"/>
   </g>
   <g id="patch_3">
    <path d="M 48.851283 285.37598 
L 405.971283 285.37598 
" style="fill: none; stroke: #000000; stroke-width: 0.8; stroke-linejoin: miter; stroke-linecap: square"/>
   </g>
   <g id="text_10">
    <text style="font: 6.94px 'Arial', sans-serif" transform="translate(10.097767 321.385533) rotate(-35)">-0.1s Sampling</text>
   </g>
   <g id="text_11">
    <text style="font: 6.94px 'Arial', sans-serif" transform="translate(57.794497 311.430872) rotate(-35)">Sampling</text>
   </g>
   <g id="text_12">
    <text style="font: 6.94px 'Arial', sans-serif" transform="translate(319.037191 339.456682) rotate(-35)">Movement to Lateral Port</text>
   </g>
   <g id="text_13">
    <text style="font: 8.33px 'Arial', sans-serif; text-anchor: middle" x="227.411283" y="13.26398" transform="rotate(-0 227.411283 13.26398)">GP4_85_s10_L70_D250_ALM - Trace:7_GP4_85_s10_L70_D250_ALM (when: correct)</text>
   </g>
   <g id="legend_1">
    <g id="patch_4">
     <path d="M 130.092964 354.133136 
L 324.729602 354.133136 
Q 326.117602 354.133136 326.117602 352.745136 
L 326.117602 343.45638 
Q 326.117602 342.06838 324.729602 342.06838 
L 130.092964 342.06838 
Q 128.704964 342.06838 128.704964 343.45638 
L 128.704964 352.745136 
Q 128.704964 354.133136 130.092964 354.133136 
z
" style="fill: #ffffff; opacity: 0.8; stroke: #cccccc; stroke-linejoin: miter"/>
    </g>
    <g id="line2d_12">
     <path d="M 131.480964 347.467483 
L 138.420964 347.467483 
L 145.360964 347.467483 
" style="fill: none; stroke: #1f77b4; stroke-width: 1.5; stroke-linecap: square"/>
    </g>
    <g id="text_14">
     <text style="font: 6.94px 'Arial', sans-serif; text-anchor: start" x="150.912964" y="349.896483" transform="rotate(-0 150.912964 349.896483)">DecisionRight (103 pts)</text>
    </g>
    <g id="line2d_13">
     <path d="M 236.920167 347.467483 
L 243.860167 347.467483 
L 250.800167 347.467483 
" style="fill: none; stroke: #ff7f0e; stroke-width: 1.5; stroke-linecap: square"/>
    </g>
    <g id="text_15">
     <text style="font: 6.94px 'Arial', sans-serif; text-anchor: start" x="256.352167" y="349.896483" transform="rotate(-0 256.352167 349.896483)">DecisionLeft (110 pts)</text>
    </g>
   </g>
  </g>
 </g>
 <defs>
  <clipPath id="p30aa629a50">
   <rect x="48.851283" y="19.26398" width="357.12" height="266.112"/>
  </clipPath>
 </defs>
</svg>
