<?xml version="1.0" encoding="utf-8" standalone="no"?>
<!DOCTYPE svg PUBLIC "-//W3C//DTD SVG 1.1//EN"
  "http://www.w3.org/Graphics/SVG/1.1/DTD/svg11.dtd">
<svg xmlns:xlink="http://www.w3.org/1999/xlink" width="413.171283pt" height="361.333136pt" viewBox="0 0 413.171283 361.333136" xmlns="http://www.w3.org/2000/svg" version="1.1">
 <metadata>
  <rdf:RDF xmlns:dc="http://purl.org/dc/elements/1.1/" xmlns:cc="http://creativecommons.org/ns#" xmlns:rdf="http://www.w3.org/1999/02/22-rdf-syntax-ns#">
   <cc:Work>
    <dc:type rdf:resource="http://purl.org/dc/dcmitype/StillImage"/>
    <dc:date>2025-12-29T04:07:06.736933</dc:date>
    <dc:format>image/svg+xml</dc:format>
    <dc:creator>
     <cc:Agent>
      <dc:title>Matplotlib v3.8.0, https://matplotlib.org/</dc:title>
     </cc:Agent>
    </dc:creator>
   </cc:Work>
  </rdf:RDF>
 </metadata>
 <defs>
  <style type="text/css">*{stroke-linejoin: round; stroke-linecap: butt}</style>
 </defs>
 <g id="figure_1">
  <g id="patch_1">
   <path d="M 0 361.333136 
L 413.171283 361.333136 
L 413.171283 -0 
L 0 -0 
z
" style="fill: #ffffff"/>
  </g>
  <g id="axes_1">
   <g id="patch_2">
    <path d="M 48.851283 285.37598 
L 405.971283 285.37598 
L 405.971283 19.26398 
L 48.851283 19.26398 
z
" style="fill: #ffffff"/>
   </g>
   <g id="PolyCollection_1">
    <defs>
     <path id="m64e9242ef0" d="M 48.851283 -160.837603 
L 48.851283 -99.169118 
L 60.011283 -101.447031 
L 71.171283 -106.607408 
L 82.331283 -97.584464 
L 93.491283 -88.053156 
L 104.651283 -93.581122 
L 115.811283 -107.914476 
L 126.971283 -123.828244 
L 138.131283 -138.042232 
L 149.291283 -142.911275 
L 160.451283 -150.177274 
L 171.611283 -157.537549 
L 182.771283 -158.892967 
L 193.931283 -166.415196 
L 205.091283 -179.206545 
L 216.251283 -190.459488 
L 227.411283 -187.767752 
L 238.571283 -179.062842 
L 249.731283 -169.213331 
L 260.891283 -163.118426 
L 272.051283 -162.442519 
L 283.211283 -161.843375 
L 294.371283 -157.908446 
L 305.531283 -150.479612 
L 316.691283 -148.383426 
L 327.851283 -153.990805 
L 339.011283 -154.359813 
L 350.171283 -146.374845 
L 361.331283 -139.543553 
L 372.491283 -137.688313 
L 383.651283 -146.56984 
L 394.811283 -156.691152 
L 405.971283 -155.097236 
L 405.971283 -196.324748 
L 405.971283 -196.324748 
L 394.811283 -196.040399 
L 383.651283 -187.78116 
L 372.491283 -178.097967 
L 361.331283 -178.07811 
L 350.171283 -189.017957 
L 339.011283 -201.294154 
L 327.851283 -198.554416 
L 316.691283 -188.416288 
L 305.531283 -191.077579 
L 294.371283 -199.511306 
L 283.211283 -202.910366 
L 272.051283 -203.283704 
L 260.891283 -208.195359 
L 249.731283 -219.237592 
L 238.571283 -230.672566 
L 227.411283 -241.936731 
L 216.251283 -243.792743 
L 205.091283 -231.64422 
L 193.931283 -221.610006 
L 182.771283 -217.233167 
L 171.611283 -217.339977 
L 160.451283 -204.445621 
L 149.291283 -194.088432 
L 138.131283 -190.559096 
L 126.971283 -174.942008 
L 115.811283 -157.033111 
L 104.651283 -139.496231 
L 93.491283 -135.686905 
L 82.331283 -147.850582 
L 71.171283 -159.525975 
L 60.011283 -159.031419 
L 48.851283 -160.837603 
z
" style="stroke: #1f77b4; stroke-opacity: 0.2"/>
    </defs>
    <g clip-path="url(#pb51ec22bed)">
     <use xlink:href="#m64e9242ef0" x="0" y="361.333136" style="fill: #1f77b4; fill-opacity: 0.2; stroke: #1f77b4; stroke-opacity: 0.2"/>
    </g>
   </g>
   <g id="PolyCollection_2">
    <defs>
     <path id="mfaac7e1e04" d="M 48.851283 -132.729211 
L 48.851283 -102.164713 
L 60.011283 -106.460399 
L 71.171283 -111.015639 
L 82.331283 -105.390312 
L 93.491283 -100.807411 
L 104.651283 -100.008179 
L 115.811283 -102.795391 
L 126.971283 -96.632531 
L 138.131283 -101.559888 
L 149.291283 -130.428887 
L 160.451283 -153.213581 
L 171.611283 -163.203381 
L 182.771283 -181.130305 
L 193.931283 -185.773921 
L 205.091283 -195.118476 
L 216.251283 -204.88004 
L 227.411283 -212.817118 
L 238.571283 -213.909827 
L 249.731283 -205.274255 
L 260.891283 -203.897576 
L 272.051283 -203.669879 
L 283.211283 -206.589548 
L 294.371283 -213.793027 
L 305.531283 -215.256813 
L 316.691283 -215.946442 
L 327.851283 -221.55643 
L 339.011283 -217.889487 
L 350.171283 -209.708117 
L 361.331283 -208.282442 
L 372.491283 -228.588496 
L 383.651283 -262.168016 
L 394.811283 -265.953194 
L 405.971283 -251.369822 
L 405.971283 -307.140436 
L 405.971283 -307.140436 
L 394.811283 -328.681057 
L 383.651283 -329.973156 
L 372.491283 -290.849183 
L 361.331283 -266.9203 
L 350.171283 -269.164543 
L 339.011283 -275.989515 
L 327.851283 -280.024049 
L 316.691283 -274.421591 
L 305.531283 -272.887901 
L 294.371283 -270.700172 
L 283.211283 -264.042917 
L 272.051283 -266.048739 
L 260.891283 -267.292178 
L 249.731283 -265.287573 
L 238.571283 -269.218312 
L 227.411283 -265.087077 
L 216.251283 -256.753579 
L 205.091283 -243.37531 
L 193.931283 -232.203038 
L 182.771283 -226.746376 
L 171.611283 -205.968736 
L 160.451283 -193.485277 
L 149.291283 -167.099935 
L 138.131283 -135.025168 
L 126.971283 -127.876754 
L 115.811283 -131.47922 
L 104.651283 -127.261615 
L 93.491283 -128.8937 
L 82.331283 -136.048215 
L 71.171283 -141.776625 
L 60.011283 -137.291169 
L 48.851283 -132.729211 
z
" style="stroke: #ff7f0e; stroke-opacity: 0.2"/>
    </defs>
    <g clip-path="url(#pb51ec22bed)">
     <use xlink:href="#mfaac7e1e04" x="0" y="361.333136" style="fill: #ff7f0e; fill-opacity: 0.2; stroke: #ff7f0e; stroke-opacity: 0.2"/>
    </g>
   </g>
   <g id="matplotlib.axis_1">
    <g id="text_1">
     <text style="font: 10px 'Arial', sans-serif; text-anchor: middle" x="227.411283" y="296.533792" transform="rotate(-0 227.411283 296.533792)">Time</text>
    </g>
   </g>
   <g id="matplotlib.axis_2">
    <g id="ytick_1">
     <g id="line2d_1">
      <defs>
       <path id="me511bb2031" d="M 0 0 
L -3.5 0 
" style="stroke: #000000; stroke-width: 0.8"/>
      </defs>
      <g>
       <use xlink:href="#me511bb2031" x="48.851283" y="283.384407" style="stroke: #000000; stroke-width: 0.8"/>
      </g>
     </g>
     <g id="text_2">
      <text style="font: 10px 'Arial', sans-serif; text-anchor: end" x="41.851283" y="286.963314" transform="rotate(-0 41.851283 286.963314)">−0.2</text>
     </g>
    </g>
    <g id="ytick_2">
     <g id="line2d_2">
      <g>
       <use xlink:href="#me511bb2031" x="48.851283" y="241.689044" style="stroke: #000000; stroke-width: 0.8"/>
      </g>
     </g>
     <g id="text_3">
      <text style="font: 10px 'Arial', sans-serif; text-anchor: end" x="41.851283" y="245.26795" transform="rotate(-0 41.851283 245.26795)">0.0</text>
     </g>
    </g>
    <g id="ytick_3">
     <g id="line2d_3">
      <g>
       <use xlink:href="#me511bb2031" x="48.851283" y="199.993681" style="stroke: #000000; stroke-width: 0.8"/>
      </g>
     </g>
     <g id="text_4">
      <text style="font: 10px 'Arial', sans-serif; text-anchor: end" x="41.851283" y="203.572587" transform="rotate(-0 41.851283 203.572587)">0.2</text>
     </g>
    </g>
    <g id="ytick_4">
     <g id="line2d_4">
      <g>
       <use xlink:href="#me511bb2031" x="48.851283" y="158.298317" style="stroke: #000000; stroke-width: 0.8"/>
      </g>
     </g>
     <g id="text_5">
      <text style="font: 10px 'Arial', sans-serif; text-anchor: end" x="41.851283" y="161.877223" transform="rotate(-0 41.851283 161.877223)">0.4</text>
     </g>
    </g>
    <g id="ytick_5">
     <g id="line2d_5">
      <g>
       <use xlink:href="#me511bb2031" x="48.851283" y="116.602954" style="stroke: #000000; stroke-width: 0.8"/>
      </g>
     </g>
     <g id="text_6">
      <text style="font: 10px 'Arial', sans-serif; text-anchor: end" x="41.851283" y="120.18186" transform="rotate(-0 41.851283 120.18186)">0.6</text>
     </g>
    </g>
    <g id="ytick_6">
     <g id="line2d_6">
      <g>
       <use xlink:href="#me511bb2031" x="48.851283" y="74.90759" style="stroke: #000000; stroke-width: 0.8"/>
      </g>
     </g>
     <g id="text_7">
      <text style="font: 10px 'Arial', sans-serif; text-anchor: end" x="41.851283" y="78.486497" transform="rotate(-0 41.851283 78.486497)">0.8</text>
     </g>
    </g>
    <g id="ytick_7">
     <g id="line2d_7">
      <g>
       <use xlink:href="#me511bb2031" x="48.851283" y="33.212227" style="stroke: #000000; stroke-width: 0.8"/>
      </g>
     </g>
     <g id="text_8">
      <text style="font: 10px 'Arial', sans-serif; text-anchor: end" x="41.851283" y="36.791133" transform="rotate(-0 41.851283 36.791133)">1.0</text>
     </g>
    </g>
    <g id="text_9">
     <text style="font: 10px 'Arial', sans-serif; text-anchor: middle" x="16.005971" y="152.31998" transform="rotate(-90 16.005971 152.31998)">Activity</text>
    </g>
   </g>
   <g id="line2d_8">
    <path d="M 48.851283 231.329775 
L 60.011283 231.09391 
L 71.171283 228.266443 
L 82.331283 238.615612 
L 93.491283 249.463105 
L 104.651283 244.794458 
L 115.811283 228.859343 
L 126.971283 211.94801 
L 138.131283 197.032473 
L 149.291283 192.833282 
L 160.451283 184.02169 
L 171.611283 173.894373 
L 182.771283 173.270069 
L 193.931283 167.320535 
L 205.091283 155.907754 
L 216.251283 144.20702 
L 227.411283 146.480894 
L 238.571283 156.465429 
L 249.731283 167.107675 
L 260.891283 175.676245 
L 272.051283 178.470024 
L 283.211283 178.956267 
L 294.371283 182.62326 
L 305.531283 190.55454 
L 316.691283 192.933279 
L 327.851283 185.060526 
L 339.011283 183.506153 
L 350.171283 193.636735 
L 361.331283 202.522303 
L 372.491283 203.439996 
L 383.651283 194.157634 
L 394.811283 184.96736 
L 405.971283 185.622146 
" clip-path="url(#pb51ec22bed)" style="fill: none; stroke: #1f77b4; stroke-width: 1.5; stroke-linecap: square"/>
   </g>
   <g id="line2d_9">
    <path d="M 48.851283 243.886174 
L 60.011283 239.457352 
L 71.171283 234.937004 
L 82.331283 240.613873 
L 93.491283 246.482581 
L 104.651283 247.698239 
L 115.811283 244.195831 
L 126.971283 249.078493 
L 138.131283 243.040607 
L 149.291283 212.568726 
L 160.451283 187.983705 
L 171.611283 176.747078 
L 182.771283 157.394795 
L 193.931283 152.344657 
L 205.091283 142.086243 
L 216.251283 130.516326 
L 227.411283 122.381039 
L 238.571283 119.769067 
L 249.731283 126.052219 
L 260.891283 125.738259 
L 272.051283 126.473827 
L 283.211283 126.016904 
L 294.371283 119.086533 
L 305.531283 117.260779 
L 316.691283 116.14912 
L 327.851283 110.542896 
L 339.011283 114.393635 
L 350.171283 121.896803 
L 361.331283 123.731765 
L 372.491283 101.614296 
L 383.651283 65.262543 
L 394.811283 64.016011 
L 405.971283 82.078007 
" clip-path="url(#pb51ec22bed)" style="fill: none; stroke: #ff7f0e; stroke-width: 1.5; stroke-linecap: square"/>
   </g>
   <g id="line2d_10">
    <path d="M 82.331283 285.37598 
L 82.331283 19.26398 
" clip-path="url(#pb51ec22bed)" style="fill: none; stroke-dasharray: 5.55,2.4; stroke-dashoffset: 0; stroke: #000000; stroke-opacity: 0.5; stroke-width: 1.5"/>
   </g>
   <g id="line2d_11">
    <path d="M 383.651283 285.37598 
L 383.651283 19.26398 
" clip-path="url(#pb51ec22bed)" style="fill: none; stroke-dasharray: 5.55,2.4; stroke-dashoffset: 0; stroke: #000000; stroke-opacity: 0.5; stroke-width: 1.5"/>
   </g>
   <g id="patch_3">
    <path d="M 48.851283 285.37598 
L 405.971283 285.37598 
" style="fill: none; stroke: #000000; stroke-width: 0.8; stroke-linejoin: miter; stroke-linecap: square"/>
   </g>
   <g id="text_10">
    <text style="font: 6.94px 'Arial', sans-serif" transform="translate(10.097767 321.385533) rotate(-35)">-0.1s Sampling</text>
   </g>
   <g id="text_11">
    <text style="font: 6.94px 'Arial', sans-serif" transform="translate(57.794497 311.430872) rotate(-35)">Sampling</text>
   </g>
   <g id="text_12">
    <text style="font: 6.94px 'Arial', sans-serif" transform="translate(319.037191 339.456682) rotate(-35)">Movement to Lateral Port</text>
   </g>
   <g id="text_13">
    <text style="font: 8.33px 'Arial', sans-serif; text-anchor: middle" x="227.411283" y="13.26398" transform="rotate(-0 227.411283 13.26398)">GP4_23_s7_L50_D250_ALM - Trace:100_GP4_23_s7_L50_D250_ALM (when: correct)</text>
   </g>
   <g id="legend_1">
    <g id="patch_4">
     <path d="M 133.696342 354.133136 
L 321.126224 354.133136 
Q 322.514224 354.133136 322.514224 352.745136 
L 322.514224 343.45638 
Q 322.514224 342.06838 321.126224 342.06838 
L 133.696342 342.06838 
Q 132.308342 342.06838 132.308342 343.45638 
L 132.308342 352.745136 
Q 132.308342 354.133136 133.696342 354.133136 
z
" style="fill: #ffffff; opacity: 0.8; stroke: #cccccc; stroke-linejoin: miter"/>
    </g>
    <g id="line2d_12">
     <path d="M 135.084342 347.467483 
L 142.024342 347.467483 
L 148.964342 347.467483 
" style="fill: none; stroke: #1f77b4; stroke-width: 1.5; stroke-linecap: square"/>
    </g>
    <g id="text_14">
     <text style="font: 6.94px 'Arial', sans-serif; text-anchor: start" x="154.516342" y="349.896483" transform="rotate(-0 154.516342 349.896483)">DecisionRight (88 pts)</text>
    </g>
    <g id="line2d_13">
     <path d="M 236.664255 347.467483 
L 243.604255 347.467483 
L 250.544255 347.467483 
" style="fill: none; stroke: #ff7f0e; stroke-width: 1.5; stroke-linecap: square"/>
    </g>
    <g id="text_15">
     <text style="font: 6.94px 'Arial', sans-serif; text-anchor: start" x="256.096255" y="349.896483" transform="rotate(-0 256.096255 349.896483)">DecisionLeft (87 pts)</text>
    </g>
   </g>
  </g>
 </g>
 <defs>
  <clipPath id="pb51ec22bed">
   <rect x="48.851283" y="19.26398" width="357.12" height="266.112"/>
  </clipPath>
 </defs>
</svg>
