<?xml version="1.0" encoding="utf-8" standalone="no"?>
<!DOCTYPE svg PUBLIC "-//W3C//DTD SVG 1.1//EN"
  "http://www.w3.org/Graphics/SVG/1.1/DTD/svg11.dtd">
<svg xmlns:xlink="http://www.w3.org/1999/xlink" width="413.171283pt" height="361.333136pt" viewBox="0 0 413.171283 361.333136" xmlns="http://www.w3.org/2000/svg" version="1.1">
 <metadata>
  <rdf:RDF xmlns:dc="http://purl.org/dc/elements/1.1/" xmlns:cc="http://creativecommons.org/ns#" xmlns:rdf="http://www.w3.org/1999/02/22-rdf-syntax-ns#">
   <cc:Work>
    <dc:type rdf:resource="http://purl.org/dc/dcmitype/StillImage"/>
    <dc:date>2025-12-29T04:07:06.296409</dc:date>
    <dc:format>image/svg+xml</dc:format>
    <dc:creator>
     <cc:Agent>
      <dc:title>Matplotlib v3.8.0, https://matplotlib.org/</dc:title>
     </cc:Agent>
    </dc:creator>
   </cc:Work>
  </rdf:RDF>
 </metadata>
 <defs>
  <style type="text/css">*{stroke-linejoin: round; stroke-linecap: butt}</style>
 </defs>
 <g id="figure_1">
  <g id="patch_1">
   <path d="M 0 361.333136 
L 413.171283 361.333136 
L 413.171283 -0 
L 0 -0 
z
" style="fill: #ffffff"/>
  </g>
  <g id="axes_1">
   <g id="patch_2">
    <path d="M 48.851283 285.37598 
L 405.971283 285.37598 
L 405.971283 19.26398 
L 48.851283 19.26398 
z
" style="fill: #ffffff"/>
   </g>
   <g id="PolyCollection_1">
    <defs>
     <path id="m5109092647" d="M 48.851283 -125.696054 
L 48.851283 -108.406833 
L 60.011283 -108.239403 
L 71.171283 -106.973104 
L 82.331283 -103.322042 
L 93.491283 -100.454202 
L 104.651283 -96.797806 
L 115.811283 -94.939179 
L 126.971283 -92.24424 
L 138.131283 -91.147095 
L 149.291283 -90.844318 
L 160.451283 -92.518004 
L 171.611283 -93.869273 
L 182.771283 -93.688944 
L 193.931283 -94.406432 
L 205.091283 -98.723819 
L 216.251283 -105.66884 
L 227.411283 -111.544926 
L 238.571283 -115.825282 
L 249.731283 -123.531118 
L 260.891283 -135.491551 
L 272.051283 -147.947937 
L 283.211283 -162.305148 
L 294.371283 -176.977666 
L 305.531283 -194.739808 
L 316.691283 -216.376602 
L 327.851283 -237.11765 
L 339.011283 -256.038414 
L 350.171283 -268.822466 
L 361.331283 -278.061367 
L 372.491283 -285.952556 
L 383.651283 -297.013398 
L 394.811283 -302.175199 
L 405.971283 -301.441986 
L 405.971283 -329.208878 
L 405.971283 -329.208878 
L 394.811283 -329.973156 
L 383.651283 -324.669896 
L 372.491283 -313.512192 
L 361.331283 -305.319926 
L 350.171283 -296.477377 
L 339.011283 -283.688181 
L 327.851283 -263.74044 
L 316.691283 -241.547323 
L 305.531283 -218.183518 
L 294.371283 -198.438286 
L 283.211283 -182.543717 
L 272.051283 -166.721877 
L 260.891283 -153.523506 
L 249.731283 -140.08301 
L 238.571283 -130.650095 
L 227.411283 -125.575953 
L 216.251283 -118.417415 
L 205.091283 -111.03938 
L 193.931283 -107.770994 
L 182.771283 -106.760536 
L 171.611283 -106.536808 
L 160.451283 -105.459896 
L 149.291283 -103.973215 
L 138.131283 -104.961288 
L 126.971283 -106.418883 
L 115.811283 -109.667115 
L 104.651283 -112.556376 
L 93.491283 -115.738064 
L 82.331283 -118.581381 
L 71.171283 -123.010927 
L 60.011283 -125.134822 
L 48.851283 -125.696054 
z
" style="stroke: #1f77b4; stroke-opacity: 0.2"/>
    </defs>
    <g clip-path="url(#p229c690bd1)">
     <use xlink:href="#m5109092647" x="0" y="361.333136" style="fill: #1f77b4; fill-opacity: 0.2; stroke: #1f77b4; stroke-opacity: 0.2"/>
    </g>
   </g>
   <g id="PolyCollection_2">
    <defs>
     <path id="m5c04e80783" d="M 48.851283 -114.329746 
L 48.851283 -103.784385 
L 60.011283 -103.184294 
L 71.171283 -104.528037 
L 82.331283 -103.996148 
L 93.491283 -101.37726 
L 104.651283 -96.783764 
L 115.811283 -91.702907 
L 126.971283 -88.053156 
L 138.131283 -88.369839 
L 149.291283 -88.150886 
L 160.451283 -90.598986 
L 171.611283 -94.520658 
L 182.771283 -98.730313 
L 193.931283 -101.069306 
L 205.091283 -104.285679 
L 216.251283 -105.346343 
L 227.411283 -106.609002 
L 238.571283 -109.255069 
L 249.731283 -112.988174 
L 260.891283 -119.847247 
L 272.051283 -129.356974 
L 283.211283 -138.230905 
L 294.371283 -150.36564 
L 305.531283 -168.930393 
L 316.691283 -189.66523 
L 327.851283 -204.292389 
L 339.011283 -212.642261 
L 350.171283 -218.669738 
L 361.331283 -226.453234 
L 372.491283 -230.146914 
L 383.651283 -228.102018 
L 394.811283 -221.641013 
L 405.971283 -214.759335 
L 405.971283 -236.919665 
L 405.971283 -236.919665 
L 394.811283 -245.609708 
L 383.651283 -254.152824 
L 372.491283 -257.519535 
L 361.331283 -254.109727 
L 350.171283 -246.391251 
L 339.011283 -239.813121 
L 327.851283 -230.540253 
L 316.691283 -213.800711 
L 305.531283 -190.257683 
L 294.371283 -169.705344 
L 283.211283 -157.066178 
L 272.051283 -146.952528 
L 260.891283 -135.59027 
L 249.731283 -125.763396 
L 238.571283 -119.963116 
L 227.411283 -116.906281 
L 216.251283 -115.473391 
L 205.091283 -113.723763 
L 193.931283 -108.818152 
L 182.771283 -106.020901 
L 171.611283 -102.046342 
L 160.451283 -98.291283 
L 149.291283 -96.185937 
L 138.131283 -96.56478 
L 126.971283 -96.048079 
L 115.811283 -99.934569 
L 104.651283 -105.344733 
L 93.491283 -110.50692 
L 82.331283 -112.746554 
L 71.171283 -112.968336 
L 60.011283 -112.6075 
L 48.851283 -114.329746 
z
" style="stroke: #ff7f0e; stroke-opacity: 0.2"/>
    </defs>
    <g clip-path="url(#p229c690bd1)">
     <use xlink:href="#m5c04e80783" x="0" y="361.333136" style="fill: #ff7f0e; fill-opacity: 0.2; stroke: #ff7f0e; stroke-opacity: 0.2"/>
    </g>
   </g>
   <g id="matplotlib.axis_1">
    <g id="text_1">
     <text style="font: 10px 'Arial', sans-serif; text-anchor: middle" x="227.411283" y="296.533792" transform="rotate(-0 227.411283 296.533792)">Time</text>
    </g>
   </g>
   <g id="matplotlib.axis_2">
    <g id="ytick_1">
     <g id="line2d_1">
      <defs>
       <path id="m1f0605cbe9" d="M 0 0 
L -3.5 0 
" style="stroke: #000000; stroke-width: 0.8"/>
      </defs>
      <g>
       <use xlink:href="#m1f0605cbe9" x="48.851283" y="270.988661" style="stroke: #000000; stroke-width: 0.8"/>
      </g>
     </g>
     <g id="text_2">
      <text style="font: 10px 'Arial', sans-serif; text-anchor: end" x="41.851283" y="274.567567" transform="rotate(-0 41.851283 274.567567)">−0.5</text>
     </g>
    </g>
    <g id="ytick_2">
     <g id="line2d_2">
      <g>
       <use xlink:href="#m1f0605cbe9" x="48.851283" y="224.08592" style="stroke: #000000; stroke-width: 0.8"/>
      </g>
     </g>
     <g id="text_3">
      <text style="font: 10px 'Arial', sans-serif; text-anchor: end" x="41.851283" y="227.664827" transform="rotate(-0 41.851283 227.664827)">0.0</text>
     </g>
    </g>
    <g id="ytick_3">
     <g id="line2d_3">
      <g>
       <use xlink:href="#m1f0605cbe9" x="48.851283" y="177.18318" style="stroke: #000000; stroke-width: 0.8"/>
      </g>
     </g>
     <g id="text_4">
      <text style="font: 10px 'Arial', sans-serif; text-anchor: end" x="41.851283" y="180.762087" transform="rotate(-0 41.851283 180.762087)">0.5</text>
     </g>
    </g>
    <g id="ytick_4">
     <g id="line2d_4">
      <g>
       <use xlink:href="#m1f0605cbe9" x="48.851283" y="130.28044" style="stroke: #000000; stroke-width: 0.8"/>
      </g>
     </g>
     <g id="text_5">
      <text style="font: 10px 'Arial', sans-serif; text-anchor: end" x="41.851283" y="133.859346" transform="rotate(-0 41.851283 133.859346)">1.0</text>
     </g>
    </g>
    <g id="ytick_5">
     <g id="line2d_5">
      <g>
       <use xlink:href="#m1f0605cbe9" x="48.851283" y="83.3777" style="stroke: #000000; stroke-width: 0.8"/>
      </g>
     </g>
     <g id="text_6">
      <text style="font: 10px 'Arial', sans-serif; text-anchor: end" x="41.851283" y="86.956606" transform="rotate(-0 41.851283 86.956606)">1.5</text>
     </g>
    </g>
    <g id="ytick_6">
     <g id="line2d_6">
      <g>
       <use xlink:href="#m1f0605cbe9" x="48.851283" y="36.47496" style="stroke: #000000; stroke-width: 0.8"/>
      </g>
     </g>
     <g id="text_7">
      <text style="font: 10px 'Arial', sans-serif; text-anchor: end" x="41.851283" y="40.053866" transform="rotate(-0 41.851283 40.053866)">2.0</text>
     </g>
    </g>
    <g id="text_8">
     <text style="font: 10px 'Arial', sans-serif; text-anchor: middle" x="16.005971" y="152.31998" transform="rotate(-90 16.005971 152.31998)">Activity</text>
    </g>
   </g>
   <g id="line2d_7">
    <path d="M 48.851283 244.281693 
L 60.011283 244.646024 
L 71.171283 246.341121 
L 82.331283 250.381424 
L 93.491283 253.237003 
L 104.651283 256.656045 
L 115.811283 259.029989 
L 126.971283 262.001574 
L 138.131283 263.278944 
L 149.291283 263.924369 
L 160.451283 262.344186 
L 171.611283 261.130095 
L 182.771283 261.108396 
L 193.931283 260.244423 
L 205.091283 256.451537 
L 216.251283 249.290008 
L 227.411283 242.772697 
L 238.571283 238.095448 
L 249.731283 229.526072 
L 260.891283 216.825608 
L 272.051283 203.998229 
L 283.211283 188.908703 
L 294.371283 173.62516 
L 305.531283 154.871473 
L 316.691283 132.371173 
L 327.851283 110.904091 
L 339.011283 91.469838 
L 350.171283 78.683215 
L 361.331283 69.642489 
L 372.491283 61.600762 
L 383.651283 50.491489 
L 394.811283 45.258958 
L 405.971283 46.007704 
" clip-path="url(#p229c690bd1)" style="fill: none; stroke: #1f77b4; stroke-width: 1.5; stroke-linecap: square"/>
   </g>
   <g id="line2d_8">
    <path d="M 48.851283 252.27607 
L 60.011283 253.437239 
L 71.171283 252.58495 
L 82.331283 252.961785 
L 93.491283 255.391046 
L 104.651283 260.268888 
L 115.811283 265.514398 
L 126.971283 269.282518 
L 138.131283 268.865828 
L 149.291283 269.164725 
L 160.451283 266.888002 
L 171.611283 263.049636 
L 182.771283 258.957529 
L 193.931283 256.389407 
L 205.091283 252.328415 
L 216.251283 250.923269 
L 227.411283 249.575494 
L 238.571283 246.724044 
L 249.731283 241.957351 
L 260.891283 233.614377 
L 272.051283 223.178385 
L 283.211283 213.684595 
L 294.371283 201.297644 
L 305.531283 181.739098 
L 316.691283 159.600166 
L 327.851283 143.916815 
L 339.011283 135.105442 
L 350.171283 128.802641 
L 361.331283 121.051659 
L 372.491283 117.499911 
L 383.651283 120.205715 
L 394.811283 127.707775 
L 405.971283 135.493636 
" clip-path="url(#p229c690bd1)" style="fill: none; stroke: #ff7f0e; stroke-width: 1.5; stroke-linecap: square"/>
   </g>
   <g id="line2d_9">
    <path d="M 82.331283 285.37598 
L 82.331283 19.26398 
" clip-path="url(#p229c690bd1)" style="fill: none; stroke-dasharray: 5.55,2.4; stroke-dashoffset: 0; stroke: #000000; stroke-opacity: 0.5; stroke-width: 1.5"/>
   </g>
   <g id="line2d_10">
    <path d="M 383.651283 285.37598 
L 383.651283 19.26398 
" clip-path="url(#p229c690bd1)" style="fill: none; stroke-dasharray: 5.55,2.4; stroke-dashoffset: 0; stroke: #000000; stroke-opacity: 0.5; stroke-width: 1.5"/>
   </g>
   <g id="patch_3">
    <path d="M 48.851283 285.37598 
L 405.971283 285.37598 
" style="fill: none; stroke: #000000; stroke-width: 0.8; stroke-linejoin: miter; stroke-linecap: square"/>
   </g>
   <g id="text_9">
    <text style="font: 6.94px 'Arial', sans-serif" transform="translate(10.097767 321.385533) rotate(-35)">-0.1s Sampling</text>
   </g>
   <g id="text_10">
    <text style="font: 6.94px 'Arial', sans-serif" transform="translate(57.794497 311.430872) rotate(-35)">Sampling</text>
   </g>
   <g id="text_11">
    <text style="font: 6.94px 'Arial', sans-serif" transform="translate(319.037191 339.456682) rotate(-35)">Movement to Lateral Port</text>
   </g>
   <g id="text_12">
    <text style="font: 8.33px 'Arial', sans-serif; text-anchor: middle" x="227.411283" y="13.26398" transform="rotate(-0 227.411283 13.26398)">GP4_23_s7_L50_D250_ALM - Trace:102_GP4_23_s7_L50_D250_ALM (when: correct)</text>
   </g>
   <g id="legend_1">
    <g id="patch_4">
     <path d="M 133.696342 354.133136 
L 321.126224 354.133136 
Q 322.514224 354.133136 322.514224 352.745136 
L 322.514224 343.45638 
Q 322.514224 342.06838 321.126224 342.06838 
L 133.696342 342.06838 
Q 132.308342 342.06838 132.308342 343.45638 
L 132.308342 352.745136 
Q 132.308342 354.133136 133.696342 354.133136 
z
" style="fill: #ffffff; opacity: 0.8; stroke: #cccccc; stroke-linejoin: miter"/>
    </g>
    <g id="line2d_11">
     <path d="M 135.084342 347.467483 
L 142.024342 347.467483 
L 148.964342 347.467483 
" style="fill: none; stroke: #1f77b4; stroke-width: 1.5; stroke-linecap: square"/>
    </g>
    <g id="text_13">
     <text style="font: 6.94px 'Arial', sans-serif; text-anchor: start" x="154.516342" y="349.896483" transform="rotate(-0 154.516342 349.896483)">DecisionRight (88 pts)</text>
    </g>
    <g id="line2d_12">
     <path d="M 236.664255 347.467483 
L 243.604255 347.467483 
L 250.544255 347.467483 
" style="fill: none; stroke: #ff7f0e; stroke-width: 1.5; stroke-linecap: square"/>
    </g>
    <g id="text_14">
     <text style="font: 6.94px 'Arial', sans-serif; text-anchor: start" x="256.096255" y="349.896483" transform="rotate(-0 256.096255 349.896483)">DecisionLeft (87 pts)</text>
    </g>
   </g>
  </g>
 </g>
 <defs>
  <clipPath id="p229c690bd1">
   <rect x="48.851283" y="19.26398" width="357.12" height="266.112"/>
  </clipPath>
 </defs>
</svg>
