<?xml version="1.0" encoding="utf-8" standalone="no"?>
<!DOCTYPE svg PUBLIC "-//W3C//DTD SVG 1.1//EN"
  "http://www.w3.org/Graphics/SVG/1.1/DTD/svg11.dtd">
<svg xmlns:xlink="http://www.w3.org/1999/xlink" width="413.171283pt" height="361.333136pt" viewBox="0 0 413.171283 361.333136" xmlns="http://www.w3.org/2000/svg" version="1.1">
 <metadata>
  <rdf:RDF xmlns:dc="http://purl.org/dc/elements/1.1/" xmlns:cc="http://creativecommons.org/ns#" xmlns:rdf="http://www.w3.org/1999/02/22-rdf-syntax-ns#">
   <cc:Work>
    <dc:type rdf:resource="http://purl.org/dc/dcmitype/StillImage"/>
    <dc:date>2025-12-29T04:07:06.355793</dc:date>
    <dc:format>image/svg+xml</dc:format>
    <dc:creator>
     <cc:Agent>
      <dc:title>Matplotlib v3.8.0, https://matplotlib.org/</dc:title>
     </cc:Agent>
    </dc:creator>
   </cc:Work>
  </rdf:RDF>
 </metadata>
 <defs>
  <style type="text/css">*{stroke-linejoin: round; stroke-linecap: butt}</style>
 </defs>
 <g id="figure_1">
  <g id="patch_1">
   <path d="M 0 361.333136 
L 413.171283 361.333136 
L 413.171283 -0 
L 0 -0 
z
" style="fill: #ffffff"/>
  </g>
  <g id="axes_1">
   <g id="patch_2">
    <path d="M 48.851283 285.37598 
L 405.971283 285.37598 
L 405.971283 19.26398 
L 48.851283 19.26398 
z
" style="fill: #ffffff"/>
   </g>
   <g id="PolyCollection_1">
    <defs>
     <path id="mf839252828" d="M 48.851283 -220.372662 
L 48.851283 -146.776909 
L 60.011283 -135.303458 
L 71.171283 -125.609026 
L 82.331283 -108.237703 
L 93.491283 -91.372063 
L 104.651283 -88.053156 
L 115.811283 -108.798454 
L 126.971283 -129.968638 
L 138.131283 -146.192677 
L 149.291283 -147.31931 
L 160.451283 -167.679043 
L 171.611283 -195.349935 
L 182.771283 -196.6096 
L 193.931283 -196.715372 
L 205.091283 -219.643067 
L 216.251283 -228.941713 
L 227.411283 -229.15733 
L 238.571283 -233.379735 
L 249.731283 -247.164545 
L 260.891283 -252.708329 
L 272.051283 -244.757566 
L 283.211283 -248.288549 
L 294.371283 -251.268845 
L 305.531283 -248.748329 
L 316.691283 -234.789934 
L 327.851283 -207.376942 
L 339.011283 -186.722097 
L 350.171283 -179.920287 
L 361.331283 -186.744364 
L 372.491283 -187.515037 
L 383.651283 -198.840775 
L 394.811283 -200.215699 
L 405.971283 -179.146834 
L 405.971283 -244.053244 
L 405.971283 -244.053244 
L 394.811283 -271.740143 
L 383.651283 -273.254485 
L 372.491283 -260.578504 
L 361.331283 -257.625623 
L 350.171283 -247.109776 
L 339.011283 -252.470798 
L 327.851283 -277.072747 
L 316.691283 -308.408114 
L 305.531283 -326.100125 
L 294.371283 -329.973156 
L 283.211283 -322.732918 
L 272.051283 -316.059871 
L 260.891283 -323.897394 
L 249.731283 -318.601815 
L 238.571283 -303.633918 
L 227.411283 -298.186753 
L 216.251283 -297.000467 
L 205.091283 -288.526735 
L 193.931283 -268.150294 
L 182.771283 -267.475651 
L 171.611283 -262.677517 
L 160.451283 -235.483917 
L 149.291283 -215.939696 
L 138.131283 -216.772896 
L 126.971283 -203.663231 
L 115.811283 -181.145112 
L 104.651283 -161.040097 
L 93.491283 -162.618472 
L 82.331283 -179.052189 
L 71.171283 -196.216468 
L 60.011283 -206.538985 
L 48.851283 -220.372662 
z
" style="stroke: #1f77b4; stroke-opacity: 0.2"/>
    </defs>
    <g clip-path="url(#p694bb4d773)">
     <use xlink:href="#mf839252828" x="0" y="361.333136" style="fill: #1f77b4; fill-opacity: 0.2; stroke: #1f77b4; stroke-opacity: 0.2"/>
    </g>
   </g>
   <g id="PolyCollection_2">
    <defs>
     <path id="m7da4ac0e25" d="M 48.851283 -201.202987 
L 48.851283 -136.790349 
L 60.011283 -130.60085 
L 71.171283 -125.652213 
L 82.331283 -133.969443 
L 93.491283 -148.059218 
L 104.651283 -151.512258 
L 115.811283 -148.118378 
L 126.971283 -151.098264 
L 138.131283 -155.837799 
L 149.291283 -159.862379 
L 160.451283 -158.562152 
L 171.611283 -166.654947 
L 182.771283 -178.06502 
L 193.931283 -199.417848 
L 205.091283 -230.186231 
L 216.251283 -224.444461 
L 227.411283 -222.801654 
L 238.571283 -231.159811 
L 249.731283 -235.360927 
L 260.891283 -230.614371 
L 272.051283 -226.432536 
L 283.211283 -214.904094 
L 294.371283 -213.729461 
L 305.531283 -227.906727 
L 316.691283 -228.908839 
L 327.851283 -220.937682 
L 339.011283 -207.971754 
L 350.171283 -197.604361 
L 361.331283 -197.987491 
L 372.491283 -197.022234 
L 383.651283 -194.090017 
L 394.811283 -180.754723 
L 405.971283 -165.792959 
L 405.971283 -232.232472 
L 405.971283 -232.232472 
L 394.811283 -252.851821 
L 383.651283 -266.048889 
L 372.491283 -264.920227 
L 361.331283 -266.767351 
L 350.171283 -266.343651 
L 339.011283 -277.8298 
L 327.851283 -292.3216 
L 316.691283 -298.643589 
L 305.531283 -301.260665 
L 294.371283 -293.481122 
L 283.211283 -294.715492 
L 272.051283 -303.74132 
L 260.891283 -298.900637 
L 249.731283 -296.459163 
L 238.571283 -292.234808 
L 227.411283 -287.772843 
L 216.251283 -287.974767 
L 205.091283 -285.969824 
L 193.931283 -255.553976 
L 182.771283 -238.236479 
L 171.611283 -228.886505 
L 160.451283 -222.000403 
L 149.291283 -225.408775 
L 138.131283 -215.934 
L 126.971283 -211.387768 
L 115.811283 -212.61269 
L 104.651283 -213.067226 
L 93.491283 -208.859335 
L 82.331283 -195.199708 
L 71.171283 -190.69819 
L 60.011283 -197.720212 
L 48.851283 -201.202987 
z
" style="stroke: #ff7f0e; stroke-opacity: 0.2"/>
    </defs>
    <g clip-path="url(#p694bb4d773)">
     <use xlink:href="#m7da4ac0e25" x="0" y="361.333136" style="fill: #ff7f0e; fill-opacity: 0.2; stroke: #ff7f0e; stroke-opacity: 0.2"/>
    </g>
   </g>
   <g id="matplotlib.axis_1">
    <g id="text_1">
     <text style="font: 10px 'Arial', sans-serif; text-anchor: middle" x="227.411283" y="296.533792" transform="rotate(-0 227.411283 296.533792)">Time</text>
    </g>
   </g>
   <g id="matplotlib.axis_2">
    <g id="ytick_1">
     <g id="line2d_1">
      <defs>
       <path id="md1f80b27f7" d="M 0 0 
L -3.5 0 
" style="stroke: #000000; stroke-width: 0.8"/>
      </defs>
      <g>
       <use xlink:href="#md1f80b27f7" x="48.851283" y="266.671544" style="stroke: #000000; stroke-width: 0.8"/>
      </g>
     </g>
     <g id="text_2">
      <text style="font: 10px 'Arial', sans-serif; text-anchor: end" x="41.851283" y="270.25045" transform="rotate(-0 41.851283 270.25045)">−0.2</text>
     </g>
    </g>
    <g id="ytick_2">
     <g id="line2d_2">
      <g>
       <use xlink:href="#md1f80b27f7" x="48.851283" y="233.630247" style="stroke: #000000; stroke-width: 0.8"/>
      </g>
     </g>
     <g id="text_3">
      <text style="font: 10px 'Arial', sans-serif; text-anchor: end" x="41.851283" y="237.209154" transform="rotate(-0 41.851283 237.209154)">−0.1</text>
     </g>
    </g>
    <g id="ytick_3">
     <g id="line2d_3">
      <g>
       <use xlink:href="#md1f80b27f7" x="48.851283" y="200.588951" style="stroke: #000000; stroke-width: 0.8"/>
      </g>
     </g>
     <g id="text_4">
      <text style="font: 10px 'Arial', sans-serif; text-anchor: end" x="41.851283" y="204.167857" transform="rotate(-0 41.851283 204.167857)">0.0</text>
     </g>
    </g>
    <g id="ytick_4">
     <g id="line2d_4">
      <g>
       <use xlink:href="#md1f80b27f7" x="48.851283" y="167.547655" style="stroke: #000000; stroke-width: 0.8"/>
      </g>
     </g>
     <g id="text_5">
      <text style="font: 10px 'Arial', sans-serif; text-anchor: end" x="41.851283" y="171.126561" transform="rotate(-0 41.851283 171.126561)">0.1</text>
     </g>
    </g>
    <g id="ytick_5">
     <g id="line2d_5">
      <g>
       <use xlink:href="#md1f80b27f7" x="48.851283" y="134.506359" style="stroke: #000000; stroke-width: 0.8"/>
      </g>
     </g>
     <g id="text_6">
      <text style="font: 10px 'Arial', sans-serif; text-anchor: end" x="41.851283" y="138.085265" transform="rotate(-0 41.851283 138.085265)">0.2</text>
     </g>
    </g>
    <g id="ytick_6">
     <g id="line2d_6">
      <g>
       <use xlink:href="#md1f80b27f7" x="48.851283" y="101.465062" style="stroke: #000000; stroke-width: 0.8"/>
      </g>
     </g>
     <g id="text_7">
      <text style="font: 10px 'Arial', sans-serif; text-anchor: end" x="41.851283" y="105.043969" transform="rotate(-0 41.851283 105.043969)">0.3</text>
     </g>
    </g>
    <g id="ytick_7">
     <g id="line2d_7">
      <g>
       <use xlink:href="#md1f80b27f7" x="48.851283" y="68.423766" style="stroke: #000000; stroke-width: 0.8"/>
      </g>
     </g>
     <g id="text_8">
      <text style="font: 10px 'Arial', sans-serif; text-anchor: end" x="41.851283" y="72.002672" transform="rotate(-0 41.851283 72.002672)">0.4</text>
     </g>
    </g>
    <g id="ytick_8">
     <g id="line2d_8">
      <g>
       <use xlink:href="#md1f80b27f7" x="48.851283" y="35.38247" style="stroke: #000000; stroke-width: 0.8"/>
      </g>
     </g>
     <g id="text_9">
      <text style="font: 10px 'Arial', sans-serif; text-anchor: end" x="41.851283" y="38.961376" transform="rotate(-0 41.851283 38.961376)">0.5</text>
     </g>
    </g>
    <g id="text_10">
     <text style="font: 10px 'Arial', sans-serif; text-anchor: middle" x="16.005971" y="152.31998" transform="rotate(-90 16.005971 152.31998)">Activity</text>
    </g>
   </g>
   <g id="line2d_9">
    <path d="M 48.851283 177.758351 
L 60.011283 190.411916 
L 71.171283 200.42039 
L 82.331283 217.68819 
L 93.491283 234.337868 
L 104.651283 236.786511 
L 115.811283 216.361352 
L 126.971283 194.517201 
L 138.131283 179.850349 
L 149.291283 179.703633 
L 160.451283 159.751655 
L 171.611283 132.319411 
L 182.771283 129.29051 
L 193.931283 128.9003 
L 205.091283 107.248235 
L 216.251283 98.362049 
L 227.411283 97.661094 
L 238.571283 92.826309 
L 249.731283 78.449956 
L 260.891283 73.030274 
L 272.051283 80.924417 
L 283.211283 75.822402 
L 294.371283 70.712135 
L 305.531283 73.908909 
L 316.691283 89.734112 
L 327.851283 119.108292 
L 339.011283 141.73669 
L 350.171283 147.818104 
L 361.331283 139.148145 
L 372.491283 137.286364 
L 383.651283 125.285509 
L 394.811283 125.355216 
L 405.971283 149.733099 
" clip-path="url(#p694bb4d773)" style="fill: none; stroke: #1f77b4; stroke-width: 1.5; stroke-linecap: square"/>
   </g>
   <g id="line2d_10">
    <path d="M 48.851283 192.336468 
L 60.011283 197.172605 
L 71.171283 203.157935 
L 82.331283 196.74856 
L 93.491283 182.87386 
L 104.651283 179.043394 
L 115.811283 180.967601 
L 126.971283 180.090119 
L 138.131283 175.447235 
L 149.291283 168.697559 
L 160.451283 171.051859 
L 171.611283 163.562411 
L 182.771283 153.182386 
L 193.931283 133.847224 
L 205.091283 103.255109 
L 216.251283 105.123522 
L 227.411283 106.045888 
L 238.571283 99.635827 
L 249.731283 95.423091 
L 260.891283 96.575632 
L 272.051283 96.246208 
L 283.211283 106.523343 
L 294.371283 107.727846 
L 305.531283 96.749443 
L 316.691283 97.556922 
L 327.851283 104.703495 
L 339.011283 118.432359 
L 350.171283 129.35913 
L 361.331283 128.955715 
L 372.491283 130.361907 
L 383.651283 131.263682 
L 394.811283 144.529866 
L 405.971283 162.320419 
" clip-path="url(#p694bb4d773)" style="fill: none; stroke: #ff7f0e; stroke-width: 1.5; stroke-linecap: square"/>
   </g>
   <g id="line2d_11">
    <path d="M 82.331283 285.37598 
L 82.331283 19.26398 
" clip-path="url(#p694bb4d773)" style="fill: none; stroke-dasharray: 5.55,2.4; stroke-dashoffset: 0; stroke: #000000; stroke-opacity: 0.5; stroke-width: 1.5"/>
   </g>
   <g id="line2d_12">
    <path d="M 383.651283 285.37598 
L 383.651283 19.26398 
" clip-path="url(#p694bb4d773)" style="fill: none; stroke-dasharray: 5.55,2.4; stroke-dashoffset: 0; stroke: #000000; stroke-opacity: 0.5; stroke-width: 1.5"/>
   </g>
   <g id="patch_3">
    <path d="M 48.851283 285.37598 
L 405.971283 285.37598 
" style="fill: none; stroke: #000000; stroke-width: 0.8; stroke-linejoin: miter; stroke-linecap: square"/>
   </g>
   <g id="text_11">
    <text style="font: 6.94px 'Arial', sans-serif" transform="translate(10.097767 321.385533) rotate(-35)">-0.1s Sampling</text>
   </g>
   <g id="text_12">
    <text style="font: 6.94px 'Arial', sans-serif" transform="translate(57.794497 311.430872) rotate(-35)">Sampling</text>
   </g>
   <g id="text_13">
    <text style="font: 6.94px 'Arial', sans-serif" transform="translate(319.037191 339.456682) rotate(-35)">Movement to Lateral Port</text>
   </g>
   <g id="text_14">
    <text style="font: 8.33px 'Arial', sans-serif; text-anchor: middle" x="227.411283" y="13.26398" transform="rotate(-0 227.411283 13.26398)">GP4_23_s7_L50_D250_ALM - Trace:124_GP4_23_s7_L50_D250_ALM (when: correct)</text>
   </g>
   <g id="legend_1">
    <g id="patch_4">
     <path d="M 133.696342 354.133136 
L 321.126224 354.133136 
Q 322.514224 354.133136 322.514224 352.745136 
L 322.514224 343.45638 
Q 322.514224 342.06838 321.126224 342.06838 
L 133.696342 342.06838 
Q 132.308342 342.06838 132.308342 343.45638 
L 132.308342 352.745136 
Q 132.308342 354.133136 133.696342 354.133136 
z
" style="fill: #ffffff; opacity: 0.8; stroke: #cccccc; stroke-linejoin: miter"/>
    </g>
    <g id="line2d_13">
     <path d="M 135.084342 347.467483 
L 142.024342 347.467483 
L 148.964342 347.467483 
" style="fill: none; stroke: #1f77b4; stroke-width: 1.5; stroke-linecap: square"/>
    </g>
    <g id="text_15">
     <text style="font: 6.94px 'Arial', sans-serif; text-anchor: start" x="154.516342" y="349.896483" transform="rotate(-0 154.516342 349.896483)">DecisionRight (88 pts)</text>
    </g>
    <g id="line2d_14">
     <path d="M 236.664255 347.467483 
L 243.604255 347.467483 
L 250.544255 347.467483 
" style="fill: none; stroke: #ff7f0e; stroke-width: 1.5; stroke-linecap: square"/>
    </g>
    <g id="text_16">
     <text style="font: 6.94px 'Arial', sans-serif; text-anchor: start" x="256.096255" y="349.896483" transform="rotate(-0 256.096255 349.896483)">DecisionLeft (87 pts)</text>
    </g>
   </g>
  </g>
 </g>
 <defs>
  <clipPath id="p694bb4d773">
   <rect x="48.851283" y="19.26398" width="357.12" height="266.112"/>
  </clipPath>
 </defs>
</svg>
