<?xml version="1.0" encoding="utf-8" standalone="no"?>
<!DOCTYPE svg PUBLIC "-//W3C//DTD SVG 1.1//EN"
  "http://www.w3.org/Graphics/SVG/1.1/DTD/svg11.dtd">
<svg xmlns:xlink="http://www.w3.org/1999/xlink" width="413.171283pt" height="361.333136pt" viewBox="0 0 413.171283 361.333136" xmlns="http://www.w3.org/2000/svg" version="1.1">
 <metadata>
  <rdf:RDF xmlns:dc="http://purl.org/dc/elements/1.1/" xmlns:cc="http://creativecommons.org/ns#" xmlns:rdf="http://www.w3.org/1999/02/22-rdf-syntax-ns#">
   <cc:Work>
    <dc:type rdf:resource="http://purl.org/dc/dcmitype/StillImage"/>
    <dc:date>2025-12-29T04:07:05.912245</dc:date>
    <dc:format>image/svg+xml</dc:format>
    <dc:creator>
     <cc:Agent>
      <dc:title>Matplotlib v3.8.0, https://matplotlib.org/</dc:title>
     </cc:Agent>
    </dc:creator>
   </cc:Work>
  </rdf:RDF>
 </metadata>
 <defs>
  <style type="text/css">*{stroke-linejoin: round; stroke-linecap: butt}</style>
 </defs>
 <g id="figure_1">
  <g id="patch_1">
   <path d="M 0 361.333136 
L 413.171283 361.333136 
L 413.171283 -0 
L 0 -0 
z
" style="fill: #ffffff"/>
  </g>
  <g id="axes_1">
   <g id="patch_2">
    <path d="M 48.851283 285.37598 
L 405.971283 285.37598 
L 405.971283 19.26398 
L 48.851283 19.26398 
z
" style="fill: #ffffff"/>
   </g>
   <g id="PolyCollection_1">
    <defs>
     <path id="mcac4fa9539" d="M 48.851283 -329.973156 
L 48.851283 -226.679474 
L 60.011283 -223.352368 
L 71.171283 -212.148788 
L 82.331283 -195.537849 
L 93.491283 -171.872081 
L 104.651283 -142.275486 
L 115.811283 -133.990784 
L 126.971283 -141.628434 
L 138.131283 -123.07624 
L 149.291283 -91.959509 
L 160.451283 -88.053156 
L 171.611283 -110.974445 
L 182.771283 -132.910451 
L 193.931283 -140.420767 
L 205.091283 -150.57273 
L 216.251283 -158.401209 
L 227.411283 -155.795962 
L 238.571283 -140.552321 
L 249.731283 -130.091573 
L 260.891283 -126.392365 
L 272.051283 -121.003453 
L 283.211283 -119.715152 
L 294.371283 -120.082062 
L 305.531283 -136.406725 
L 316.691283 -160.269778 
L 327.851283 -161.285123 
L 339.011283 -155.667236 
L 350.171283 -140.092833 
L 361.331283 -139.205949 
L 372.491283 -147.662313 
L 383.651283 -177.949298 
L 394.811283 -195.311932 
L 405.971283 -197.893032 
L 405.971283 -270.467428 
L 405.971283 -270.467428 
L 394.811283 -274.820986 
L 383.651283 -267.965637 
L 372.491283 -236.367894 
L 361.331283 -227.430309 
L 350.171283 -235.612116 
L 339.011283 -257.47655 
L 327.851283 -263.23172 
L 316.691283 -271.919466 
L 305.531283 -248.026536 
L 294.371283 -219.858383 
L 283.211283 -228.892595 
L 272.051283 -229.333643 
L 260.891283 -230.286837 
L 249.731283 -231.531808 
L 238.571283 -245.297462 
L 227.411283 -255.583895 
L 216.251283 -253.118016 
L 205.091283 -245.636396 
L 193.931283 -233.130211 
L 182.771283 -216.118898 
L 171.611283 -194.728768 
L 160.451283 -174.415427 
L 149.291283 -174.387494 
L 138.131283 -215.333389 
L 126.971283 -240.711444 
L 115.811283 -235.989094 
L 104.651283 -251.889845 
L 93.491283 -276.330133 
L 82.331283 -297.726477 
L 71.171283 -313.997729 
L 60.011283 -323.573167 
L 48.851283 -329.973156 
z
" style="stroke: #1f77b4; stroke-opacity: 0.2"/>
    </defs>
    <g clip-path="url(#pbf5a8a8419)">
     <use xlink:href="#mcac4fa9539" x="0" y="361.333136" style="fill: #1f77b4; fill-opacity: 0.2; stroke: #1f77b4; stroke-opacity: 0.2"/>
    </g>
   </g>
   <g id="PolyCollection_2">
    <defs>
     <path id="m0d446bd258" d="M 48.851283 -258.27598 
L 48.851283 -203.297191 
L 60.011283 -186.535165 
L 71.171283 -176.245673 
L 82.331283 -168.4452 
L 93.491283 -178.999532 
L 104.651283 -166.016246 
L 115.811283 -137.99268 
L 126.971283 -114.210019 
L 138.131283 -105.359242 
L 149.291283 -93.367964 
L 160.451283 -94.34856 
L 171.611283 -89.650807 
L 182.771283 -94.833271 
L 193.931283 -98.197402 
L 205.091283 -107.593159 
L 216.251283 -130.366931 
L 227.411283 -128.693828 
L 238.571283 -126.791851 
L 249.731283 -149.426542 
L 260.891283 -170.160043 
L 272.051283 -183.364616 
L 283.211283 -188.838736 
L 294.371283 -181.314939 
L 305.531283 -156.413521 
L 316.691283 -144.764112 
L 327.851283 -166.982366 
L 339.011283 -196.672333 
L 350.171283 -198.23594 
L 361.331283 -190.344289 
L 372.491283 -174.692028 
L 383.651283 -162.883593 
L 394.811283 -159.044232 
L 405.971283 -162.492486 
L 405.971283 -208.302629 
L 405.971283 -208.302629 
L 394.811283 -208.975062 
L 383.651283 -214.248053 
L 372.491283 -234.017149 
L 361.331283 -262.579906 
L 350.171283 -275.766957 
L 339.011283 -278.049535 
L 327.851283 -249.017283 
L 316.691283 -225.834104 
L 305.531283 -238.767496 
L 294.371283 -264.068112 
L 283.211283 -273.715373 
L 272.051283 -275.796507 
L 260.891283 -267.224837 
L 249.731283 -250.471231 
L 238.571283 -226.768347 
L 227.411283 -230.17984 
L 216.251283 -230.481758 
L 205.091283 -186.864797 
L 193.931283 -168.977976 
L 182.771283 -157.534144 
L 171.611283 -147.784961 
L 160.451283 -152.095268 
L 149.291283 -151.72995 
L 138.131283 -162.016128 
L 126.971283 -168.270095 
L 115.811283 -192.788486 
L 104.651283 -224.082912 
L 93.491283 -237.873087 
L 82.331283 -224.966272 
L 71.171283 -229.310025 
L 60.011283 -238.775297 
L 48.851283 -258.27598 
z
" style="stroke: #ff7f0e; stroke-opacity: 0.2"/>
    </defs>
    <g clip-path="url(#pbf5a8a8419)">
     <use xlink:href="#m0d446bd258" x="0" y="361.333136" style="fill: #ff7f0e; fill-opacity: 0.2; stroke: #ff7f0e; stroke-opacity: 0.2"/>
    </g>
   </g>
   <g id="matplotlib.axis_1">
    <g id="text_1">
     <text style="font: 10px 'Arial', sans-serif; text-anchor: middle" x="227.411283" y="296.533792" transform="rotate(-0 227.411283 296.533792)">Time</text>
    </g>
   </g>
   <g id="matplotlib.axis_2">
    <g id="ytick_1">
     <g id="line2d_1">
      <defs>
       <path id="m6dceea682a" d="M 0 0 
L -3.5 0 
" style="stroke: #000000; stroke-width: 0.8"/>
      </defs>
      <g>
       <use xlink:href="#m6dceea682a" x="48.851283" y="273.711232" style="stroke: #000000; stroke-width: 0.8"/>
      </g>
     </g>
     <g id="text_2">
      <text style="font: 10px 'Arial', sans-serif; text-anchor: end" x="41.851283" y="277.290138" transform="rotate(-0 41.851283 277.290138)">−0.1</text>
     </g>
    </g>
    <g id="ytick_2">
     <g id="line2d_2">
      <g>
       <use xlink:href="#m6dceea682a" x="48.851283" y="228.579606" style="stroke: #000000; stroke-width: 0.8"/>
      </g>
     </g>
     <g id="text_3">
      <text style="font: 10px 'Arial', sans-serif; text-anchor: end" x="41.851283" y="232.158512" transform="rotate(-0 41.851283 232.158512)">0.0</text>
     </g>
    </g>
    <g id="ytick_3">
     <g id="line2d_3">
      <g>
       <use xlink:href="#m6dceea682a" x="48.851283" y="183.44798" style="stroke: #000000; stroke-width: 0.8"/>
      </g>
     </g>
     <g id="text_4">
      <text style="font: 10px 'Arial', sans-serif; text-anchor: end" x="41.851283" y="187.026886" transform="rotate(-0 41.851283 187.026886)">0.1</text>
     </g>
    </g>
    <g id="ytick_4">
     <g id="line2d_4">
      <g>
       <use xlink:href="#m6dceea682a" x="48.851283" y="138.316354" style="stroke: #000000; stroke-width: 0.8"/>
      </g>
     </g>
     <g id="text_5">
      <text style="font: 10px 'Arial', sans-serif; text-anchor: end" x="41.851283" y="141.89526" transform="rotate(-0 41.851283 141.89526)">0.2</text>
     </g>
    </g>
    <g id="ytick_5">
     <g id="line2d_5">
      <g>
       <use xlink:href="#m6dceea682a" x="48.851283" y="93.184728" style="stroke: #000000; stroke-width: 0.8"/>
      </g>
     </g>
     <g id="text_6">
      <text style="font: 10px 'Arial', sans-serif; text-anchor: end" x="41.851283" y="96.763634" transform="rotate(-0 41.851283 96.763634)">0.3</text>
     </g>
    </g>
    <g id="ytick_6">
     <g id="line2d_6">
      <g>
       <use xlink:href="#m6dceea682a" x="48.851283" y="48.053102" style="stroke: #000000; stroke-width: 0.8"/>
      </g>
     </g>
     <g id="text_7">
      <text style="font: 10px 'Arial', sans-serif; text-anchor: end" x="41.851283" y="51.632009" transform="rotate(-0 41.851283 51.632009)">0.4</text>
     </g>
    </g>
    <g id="text_8">
     <text style="font: 10px 'Arial', sans-serif; text-anchor: middle" x="16.005971" y="152.31998" transform="rotate(-90 16.005971 152.31998)">Activity</text>
    </g>
   </g>
   <g id="line2d_7">
    <path d="M 48.851283 83.006821 
L 60.011283 87.870372 
L 71.171283 98.259874 
L 82.331283 114.700976 
L 93.491283 137.232032 
L 104.651283 164.250469 
L 115.811283 176.343199 
L 126.971283 170.163195 
L 138.131283 192.128321 
L 149.291283 228.159634 
L 160.451283 230.098846 
L 171.611283 208.481529 
L 182.771283 186.81846 
L 193.931283 174.557648 
L 205.091283 163.228571 
L 216.251283 155.573523 
L 227.411283 155.643209 
L 238.571283 168.408244 
L 249.731283 180.521445 
L 260.891283 182.993535 
L 272.051283 186.164588 
L 283.211283 187.029262 
L 294.371283 191.362913 
L 305.531283 169.116502 
L 316.691283 145.238515 
L 327.851283 149.074715 
L 339.011283 154.761241 
L 350.171283 173.480661 
L 361.331283 178.015007 
L 372.491283 169.318034 
L 383.651283 138.375668 
L 394.811283 126.266677 
L 405.971283 127.152909 
" clip-path="url(#pbf5a8a8419)" style="fill: none; stroke: #1f77b4; stroke-width: 1.5; stroke-linecap: square"/>
   </g>
   <g id="line2d_8">
    <path d="M 48.851283 130.546547 
L 60.011283 148.677905 
L 71.171283 158.555287 
L 82.331283 164.627399 
L 93.491283 152.896825 
L 104.651283 166.283558 
L 115.811283 195.942553 
L 126.971283 220.093079 
L 138.131283 227.64545 
L 149.291283 238.784178 
L 160.451283 238.111222 
L 171.611283 242.615253 
L 182.771283 235.149429 
L 193.931283 227.745447 
L 205.091283 214.104158 
L 216.251283 180.908793 
L 227.411283 181.896302 
L 238.571283 184.553037 
L 249.731283 161.38425 
L 260.891283 142.640696 
L 272.051283 131.752573 
L 283.211283 130.056083 
L 294.371283 138.641607 
L 305.531283 163.742627 
L 316.691283 176.034028 
L 327.851283 153.333313 
L 339.011283 123.972202 
L 350.171283 124.331687 
L 361.331283 134.871038 
L 372.491283 156.978546 
L 383.651283 172.767313 
L 394.811283 177.323488 
L 405.971283 175.935578 
" clip-path="url(#pbf5a8a8419)" style="fill: none; stroke: #ff7f0e; stroke-width: 1.5; stroke-linecap: square"/>
   </g>
   <g id="line2d_9">
    <path d="M 82.331283 285.37598 
L 82.331283 19.26398 
" clip-path="url(#pbf5a8a8419)" style="fill: none; stroke-dasharray: 5.55,2.4; stroke-dashoffset: 0; stroke: #000000; stroke-opacity: 0.5; stroke-width: 1.5"/>
   </g>
   <g id="line2d_10">
    <path d="M 383.651283 285.37598 
L 383.651283 19.26398 
" clip-path="url(#pbf5a8a8419)" style="fill: none; stroke-dasharray: 5.55,2.4; stroke-dashoffset: 0; stroke: #000000; stroke-opacity: 0.5; stroke-width: 1.5"/>
   </g>
   <g id="patch_3">
    <path d="M 48.851283 285.37598 
L 405.971283 285.37598 
" style="fill: none; stroke: #000000; stroke-width: 0.8; stroke-linejoin: miter; stroke-linecap: square"/>
   </g>
   <g id="text_9">
    <text style="font: 6.94px 'Arial', sans-serif" transform="translate(10.097767 321.385533) rotate(-35)">-0.1s Sampling</text>
   </g>
   <g id="text_10">
    <text style="font: 6.94px 'Arial', sans-serif" transform="translate(57.794497 311.430872) rotate(-35)">Sampling</text>
   </g>
   <g id="text_11">
    <text style="font: 6.94px 'Arial', sans-serif" transform="translate(319.037191 339.456682) rotate(-35)">Movement to Lateral Port</text>
   </g>
   <g id="text_12">
    <text style="font: 8.33px 'Arial', sans-serif; text-anchor: middle" x="227.411283" y="13.26398" transform="rotate(-0 227.411283 13.26398)">GP4_23_s7_L50_D250_ALM - Trace:12_GP4_23_s7_L50_D250_ALM (when: correct)</text>
   </g>
   <g id="legend_1">
    <g id="patch_4">
     <path d="M 133.696342 354.133136 
L 321.126224 354.133136 
Q 322.514224 354.133136 322.514224 352.745136 
L 322.514224 343.45638 
Q 322.514224 342.06838 321.126224 342.06838 
L 133.696342 342.06838 
Q 132.308342 342.06838 132.308342 343.45638 
L 132.308342 352.745136 
Q 132.308342 354.133136 133.696342 354.133136 
z
" style="fill: #ffffff; opacity: 0.8; stroke: #cccccc; stroke-linejoin: miter"/>
    </g>
    <g id="line2d_11">
     <path d="M 135.084342 347.467483 
L 142.024342 347.467483 
L 148.964342 347.467483 
" style="fill: none; stroke: #1f77b4; stroke-width: 1.5; stroke-linecap: square"/>
    </g>
    <g id="text_13">
     <text style="font: 6.94px 'Arial', sans-serif; text-anchor: start" x="154.516342" y="349.896483" transform="rotate(-0 154.516342 349.896483)">DecisionRight (88 pts)</text>
    </g>
    <g id="line2d_12">
     <path d="M 236.664255 347.467483 
L 243.604255 347.467483 
L 250.544255 347.467483 
" style="fill: none; stroke: #ff7f0e; stroke-width: 1.5; stroke-linecap: square"/>
    </g>
    <g id="text_14">
     <text style="font: 6.94px 'Arial', sans-serif; text-anchor: start" x="256.096255" y="349.896483" transform="rotate(-0 256.096255 349.896483)">DecisionLeft (87 pts)</text>
    </g>
   </g>
  </g>
 </g>
 <defs>
  <clipPath id="pbf5a8a8419">
   <rect x="48.851283" y="19.26398" width="357.12" height="266.112"/>
  </clipPath>
 </defs>
</svg>
