<?xml version="1.0" encoding="utf-8" standalone="no"?>
<!DOCTYPE svg PUBLIC "-//W3C//DTD SVG 1.1//EN"
  "http://www.w3.org/Graphics/SVG/1.1/DTD/svg11.dtd">
<svg xmlns:xlink="http://www.w3.org/1999/xlink" width="413.171283pt" height="361.333136pt" viewBox="0 0 413.171283 361.333136" xmlns="http://www.w3.org/2000/svg" version="1.1">
 <metadata>
  <rdf:RDF xmlns:dc="http://purl.org/dc/elements/1.1/" xmlns:cc="http://creativecommons.org/ns#" xmlns:rdf="http://www.w3.org/1999/02/22-rdf-syntax-ns#">
   <cc:Work>
    <dc:type rdf:resource="http://purl.org/dc/dcmitype/StillImage"/>
    <dc:date>2025-12-29T04:07:06.458563</dc:date>
    <dc:format>image/svg+xml</dc:format>
    <dc:creator>
     <cc:Agent>
      <dc:title>Matplotlib v3.8.0, https://matplotlib.org/</dc:title>
     </cc:Agent>
    </dc:creator>
   </cc:Work>
  </rdf:RDF>
 </metadata>
 <defs>
  <style type="text/css">*{stroke-linejoin: round; stroke-linecap: butt}</style>
 </defs>
 <g id="figure_1">
  <g id="patch_1">
   <path d="M 0 361.333136 
L 413.171283 361.333136 
L 413.171283 -0 
L 0 -0 
z
" style="fill: #ffffff"/>
  </g>
  <g id="axes_1">
   <g id="patch_2">
    <path d="M 48.851283 285.37598 
L 405.971283 285.37598 
L 405.971283 19.26398 
L 48.851283 19.26398 
z
" style="fill: #ffffff"/>
   </g>
   <g id="PolyCollection_1">
    <defs>
     <path id="m0f567f1169" d="M 48.851283 -269.559317 
L 48.851283 -215.609407 
L 60.011283 -204.001257 
L 71.171283 -193.818858 
L 82.331283 -187.742928 
L 93.491283 -172.72064 
L 104.651283 -160.547851 
L 115.811283 -153.812635 
L 126.971283 -145.216054 
L 138.131283 -138.864401 
L 149.291283 -133.261665 
L 160.451283 -128.149448 
L 171.611283 -125.024384 
L 182.771283 -122.40315 
L 193.931283 -117.003057 
L 205.091283 -117.854519 
L 216.251283 -122.926503 
L 227.411283 -118.354617 
L 238.571283 -113.57241 
L 249.731283 -108.690134 
L 260.891283 -100.754033 
L 272.051283 -96.586921 
L 283.211283 -94.831631 
L 294.371283 -96.359598 
L 305.531283 -98.164177 
L 316.691283 -97.831639 
L 327.851283 -96.539522 
L 339.011283 -97.449238 
L 350.171283 -102.9889 
L 361.331283 -104.452972 
L 372.491283 -107.756574 
L 383.651283 -99.169611 
L 394.811283 -90.978716 
L 405.971283 -92.296111 
L 405.971283 -118.605517 
L 405.971283 -118.605517 
L 394.811283 -113.218236 
L 383.651283 -119.973153 
L 372.491283 -129.244572 
L 361.331283 -126.021955 
L 350.171283 -123.303936 
L 339.011283 -117.49332 
L 327.851283 -118.157239 
L 316.691283 -117.795607 
L 305.531283 -119.379498 
L 294.371283 -119.066694 
L 283.211283 -117.218489 
L 272.051283 -118.607706 
L 260.891283 -124.290899 
L 249.731283 -133.714944 
L 238.571283 -139.490798 
L 227.411283 -144.519544 
L 216.251283 -149.834396 
L 205.091283 -146.908647 
L 193.931283 -148.660595 
L 182.771283 -155.992925 
L 171.611283 -161.426817 
L 160.451283 -165.66619 
L 149.291283 -170.87553 
L 138.131283 -177.794834 
L 126.971283 -185.6877 
L 115.811283 -195.065911 
L 104.651283 -205.819884 
L 93.491283 -223.132584 
L 82.331283 -241.141671 
L 71.171283 -247.888292 
L 60.011283 -257.663845 
L 48.851283 -269.559317 
z
" style="stroke: #1f77b4; stroke-opacity: 0.2"/>
    </defs>
    <g clip-path="url(#pd8a6fe2bf0)">
     <use xlink:href="#m0f567f1169" x="0" y="361.333136" style="fill: #1f77b4; fill-opacity: 0.2; stroke: #1f77b4; stroke-opacity: 0.2"/>
    </g>
   </g>
   <g id="PolyCollection_2">
    <defs>
     <path id="mec02dc311d" d="M 48.851283 -305.552558 
L 48.851283 -250.701738 
L 60.011283 -239.149892 
L 71.171283 -231.869956 
L 82.331283 -220.680829 
L 93.491283 -201.622761 
L 104.651283 -181.159306 
L 115.811283 -160.006754 
L 126.971283 -148.1634 
L 138.131283 -151.512655 
L 149.291283 -157.050118 
L 160.451283 -155.179375 
L 171.611283 -151.91417 
L 182.771283 -148.64075 
L 193.931283 -145.864312 
L 205.091283 -141.863159 
L 216.251283 -143.811052 
L 227.411283 -146.117729 
L 238.571283 -148.364659 
L 249.731283 -139.467624 
L 260.891283 -126.787513 
L 272.051283 -121.337065 
L 283.211283 -117.977075 
L 294.371283 -107.954 
L 305.531283 -97.579952 
L 316.691283 -89.818188 
L 327.851283 -89.122289 
L 339.011283 -88.358085 
L 350.171283 -88.053156 
L 361.331283 -90.126298 
L 372.491283 -97.066616 
L 383.651283 -137.871679 
L 394.811283 -205.320226 
L 405.971283 -278.847631 
L 405.971283 -329.973156 
L 405.971283 -329.973156 
L 394.811283 -243.047181 
L 383.651283 -166.70421 
L 372.491283 -119.601855 
L 361.331283 -110.974061 
L 350.171283 -107.919036 
L 339.011283 -109.255992 
L 327.851283 -112.666542 
L 316.691283 -115.653167 
L 305.531283 -123.53162 
L 294.371283 -133.080844 
L 283.211283 -142.322789 
L 272.051283 -144.509063 
L 260.891283 -149.315766 
L 249.731283 -161.799733 
L 238.571283 -173.04895 
L 227.411283 -174.18266 
L 216.251283 -172.527477 
L 205.091283 -170.722335 
L 193.931283 -174.975386 
L 182.771283 -180.010962 
L 171.611283 -186.129934 
L 160.451283 -192.112709 
L 149.291283 -195.788444 
L 138.131283 -192.003003 
L 126.971283 -191.203025 
L 115.811283 -205.817738 
L 104.651283 -227.604747 
L 93.491283 -246.813496 
L 82.331283 -265.947647 
L 71.171283 -279.88899 
L 60.011283 -292.072357 
L 48.851283 -305.552558 
z
" style="stroke: #ff7f0e; stroke-opacity: 0.2"/>
    </defs>
    <g clip-path="url(#pd8a6fe2bf0)">
     <use xlink:href="#mec02dc311d" x="0" y="361.333136" style="fill: #ff7f0e; fill-opacity: 0.2; stroke: #ff7f0e; stroke-opacity: 0.2"/>
    </g>
   </g>
   <g id="matplotlib.axis_1">
    <g id="text_1">
     <text style="font: 10px 'Arial', sans-serif; text-anchor: middle" x="227.411283" y="296.533792" transform="rotate(-0 227.411283 296.533792)">Time</text>
    </g>
   </g>
   <g id="matplotlib.axis_2">
    <g id="ytick_1">
     <g id="line2d_1">
      <defs>
       <path id="maabb3d1e0b" d="M 0 0 
L -3.5 0 
" style="stroke: #000000; stroke-width: 0.8"/>
      </defs>
      <g>
       <use xlink:href="#maabb3d1e0b" x="48.851283" y="245.24451" style="stroke: #000000; stroke-width: 0.8"/>
      </g>
     </g>
     <g id="text_2">
      <text style="font: 10px 'Arial', sans-serif; text-anchor: end" x="41.851283" y="248.823416" transform="rotate(-0 41.851283 248.823416)">−0.2</text>
     </g>
    </g>
    <g id="ytick_2">
     <g id="line2d_2">
      <g>
       <use xlink:href="#maabb3d1e0b" x="48.851283" y="192.397467" style="stroke: #000000; stroke-width: 0.8"/>
      </g>
     </g>
     <g id="text_3">
      <text style="font: 10px 'Arial', sans-serif; text-anchor: end" x="41.851283" y="195.976373" transform="rotate(-0 41.851283 195.976373)">0.0</text>
     </g>
    </g>
    <g id="ytick_3">
     <g id="line2d_3">
      <g>
       <use xlink:href="#maabb3d1e0b" x="48.851283" y="139.550423" style="stroke: #000000; stroke-width: 0.8"/>
      </g>
     </g>
     <g id="text_4">
      <text style="font: 10px 'Arial', sans-serif; text-anchor: end" x="41.851283" y="143.129329" transform="rotate(-0 41.851283 143.129329)">0.2</text>
     </g>
    </g>
    <g id="ytick_4">
     <g id="line2d_4">
      <g>
       <use xlink:href="#maabb3d1e0b" x="48.851283" y="86.70338" style="stroke: #000000; stroke-width: 0.8"/>
      </g>
     </g>
     <g id="text_5">
      <text style="font: 10px 'Arial', sans-serif; text-anchor: end" x="41.851283" y="90.282286" transform="rotate(-0 41.851283 90.282286)">0.4</text>
     </g>
    </g>
    <g id="ytick_5">
     <g id="line2d_5">
      <g>
       <use xlink:href="#maabb3d1e0b" x="48.851283" y="33.856336" style="stroke: #000000; stroke-width: 0.8"/>
      </g>
     </g>
     <g id="text_6">
      <text style="font: 10px 'Arial', sans-serif; text-anchor: end" x="41.851283" y="37.435243" transform="rotate(-0 41.851283 37.435243)">0.6</text>
     </g>
    </g>
    <g id="text_7">
     <text style="font: 10px 'Arial', sans-serif; text-anchor: middle" x="16.005971" y="152.31998" transform="rotate(-90 16.005971 152.31998)">Activity</text>
    </g>
   </g>
   <g id="line2d_6">
    <path d="M 48.851283 118.748774 
L 60.011283 130.500585 
L 71.171283 140.479561 
L 82.331283 146.890836 
L 93.491283 163.406524 
L 104.651283 178.14927 
L 115.811283 186.893863 
L 126.971283 195.881259 
L 138.131283 203.003518 
L 149.291283 209.264538 
L 160.451283 214.425318 
L 171.611283 218.107536 
L 182.771283 222.135098 
L 193.931283 228.50131 
L 205.091283 228.951553 
L 216.251283 224.952686 
L 227.411283 229.896055 
L 238.571283 234.801531 
L 249.731283 240.130597 
L 260.891283 248.810668 
L 272.051283 253.735822 
L 283.211283 255.308078 
L 294.371283 253.619992 
L 305.531283 252.5613 
L 316.691283 253.519513 
L 327.851283 253.984757 
L 339.011283 253.861859 
L 350.171283 248.186718 
L 361.331283 246.095673 
L 372.491283 242.832563 
L 383.651283 251.761754 
L 394.811283 259.234658 
L 405.971283 255.882322 
" clip-path="url(#pd8a6fe2bf0)" style="fill: none; stroke: #1f77b4; stroke-width: 1.5; stroke-linecap: square"/>
   </g>
   <g id="line2d_7">
    <path d="M 48.851283 83.205988 
L 60.011283 95.722012 
L 71.171283 105.453663 
L 82.331283 118.018896 
L 93.491283 137.115007 
L 104.651283 156.951108 
L 115.811283 178.42089 
L 126.971283 191.649924 
L 138.131283 189.575307 
L 149.291283 184.913854 
L 160.451283 187.687093 
L 171.611283 192.311083 
L 182.771283 197.007279 
L 193.931283 200.913288 
L 205.091283 205.040389 
L 216.251283 203.163872 
L 227.411283 201.182941 
L 238.571283 200.626331 
L 249.731283 210.699457 
L 260.891283 223.281495 
L 272.051283 228.410072 
L 283.211283 231.183203 
L 294.371283 240.815714 
L 305.531283 250.77735 
L 316.691283 258.597459 
L 327.851283 260.438718 
L 339.011283 262.526098 
L 350.171283 263.34704 
L 361.331283 260.782958 
L 372.491283 252.9989 
L 383.651283 209.045191 
L 394.811283 137.149432 
L 405.971283 56.922742 
" clip-path="url(#pd8a6fe2bf0)" style="fill: none; stroke: #ff7f0e; stroke-width: 1.5; stroke-linecap: square"/>
   </g>
   <g id="line2d_8">
    <path d="M 82.331283 285.37598 
L 82.331283 19.26398 
" clip-path="url(#pd8a6fe2bf0)" style="fill: none; stroke-dasharray: 5.55,2.4; stroke-dashoffset: 0; stroke: #000000; stroke-opacity: 0.5; stroke-width: 1.5"/>
   </g>
   <g id="line2d_9">
    <path d="M 383.651283 285.37598 
L 383.651283 19.26398 
" clip-path="url(#pd8a6fe2bf0)" style="fill: none; stroke-dasharray: 5.55,2.4; stroke-dashoffset: 0; stroke: #000000; stroke-opacity: 0.5; stroke-width: 1.5"/>
   </g>
   <g id="patch_3">
    <path d="M 48.851283 285.37598 
L 405.971283 285.37598 
" style="fill: none; stroke: #000000; stroke-width: 0.8; stroke-linejoin: miter; stroke-linecap: square"/>
   </g>
   <g id="text_8">
    <text style="font: 6.94px 'Arial', sans-serif" transform="translate(10.097767 321.385533) rotate(-35)">-0.1s Sampling</text>
   </g>
   <g id="text_9">
    <text style="font: 6.94px 'Arial', sans-serif" transform="translate(57.794497 311.430872) rotate(-35)">Sampling</text>
   </g>
   <g id="text_10">
    <text style="font: 6.94px 'Arial', sans-serif" transform="translate(319.037191 339.456682) rotate(-35)">Movement to Lateral Port</text>
   </g>
   <g id="text_11">
    <text style="font: 8.33px 'Arial', sans-serif; text-anchor: middle" x="227.411283" y="13.26398" transform="rotate(-0 227.411283 13.26398)">GP4_23_s7_L50_D250_ALM - Trace:13_GP4_23_s7_L50_D250_ALM (when: correct)</text>
   </g>
   <g id="legend_1">
    <g id="patch_4">
     <path d="M 133.696342 354.133136 
L 321.126224 354.133136 
Q 322.514224 354.133136 322.514224 352.745136 
L 322.514224 343.45638 
Q 322.514224 342.06838 321.126224 342.06838 
L 133.696342 342.06838 
Q 132.308342 342.06838 132.308342 343.45638 
L 132.308342 352.745136 
Q 132.308342 354.133136 133.696342 354.133136 
z
" style="fill: #ffffff; opacity: 0.8; stroke: #cccccc; stroke-linejoin: miter"/>
    </g>
    <g id="line2d_10">
     <path d="M 135.084342 347.467483 
L 142.024342 347.467483 
L 148.964342 347.467483 
" style="fill: none; stroke: #1f77b4; stroke-width: 1.5; stroke-linecap: square"/>
    </g>
    <g id="text_12">
     <text style="font: 6.94px 'Arial', sans-serif; text-anchor: start" x="154.516342" y="349.896483" transform="rotate(-0 154.516342 349.896483)">DecisionRight (88 pts)</text>
    </g>
    <g id="line2d_11">
     <path d="M 236.664255 347.467483 
L 243.604255 347.467483 
L 250.544255 347.467483 
" style="fill: none; stroke: #ff7f0e; stroke-width: 1.5; stroke-linecap: square"/>
    </g>
    <g id="text_13">
     <text style="font: 6.94px 'Arial', sans-serif; text-anchor: start" x="256.096255" y="349.896483" transform="rotate(-0 256.096255 349.896483)">DecisionLeft (87 pts)</text>
    </g>
   </g>
  </g>
 </g>
 <defs>
  <clipPath id="pd8a6fe2bf0">
   <rect x="48.851283" y="19.26398" width="357.12" height="266.112"/>
  </clipPath>
 </defs>
</svg>
