<?xml version="1.0" encoding="utf-8" standalone="no"?>
<!DOCTYPE svg PUBLIC "-//W3C//DTD SVG 1.1//EN"
  "http://www.w3.org/Graphics/SVG/1.1/DTD/svg11.dtd">
<svg xmlns:xlink="http://www.w3.org/1999/xlink" width="413.171283pt" height="361.333136pt" viewBox="0 0 413.171283 361.333136" xmlns="http://www.w3.org/2000/svg" version="1.1">
 <metadata>
  <rdf:RDF xmlns:dc="http://purl.org/dc/elements/1.1/" xmlns:cc="http://creativecommons.org/ns#" xmlns:rdf="http://www.w3.org/1999/02/22-rdf-syntax-ns#">
   <cc:Work>
    <dc:type rdf:resource="http://purl.org/dc/dcmitype/StillImage"/>
    <dc:date>2025-12-29T04:07:08.242080</dc:date>
    <dc:format>image/svg+xml</dc:format>
    <dc:creator>
     <cc:Agent>
      <dc:title>Matplotlib v3.8.0, https://matplotlib.org/</dc:title>
     </cc:Agent>
    </dc:creator>
   </cc:Work>
  </rdf:RDF>
 </metadata>
 <defs>
  <style type="text/css">*{stroke-linejoin: round; stroke-linecap: butt}</style>
 </defs>
 <g id="figure_1">
  <g id="patch_1">
   <path d="M 0 361.333136 
L 413.171283 361.333136 
L 413.171283 -0 
L 0 -0 
z
" style="fill: #ffffff"/>
  </g>
  <g id="axes_1">
   <g id="patch_2">
    <path d="M 48.851283 285.37598 
L 405.971283 285.37598 
L 405.971283 19.26398 
L 48.851283 19.26398 
z
" style="fill: #ffffff"/>
   </g>
   <g id="PolyCollection_1">
    <defs>
     <path id="m14b6f61d07" d="M 48.851283 -117.434962 
L 48.851283 -106.429668 
L 60.011283 -107.738937 
L 71.171283 -108.576409 
L 82.331283 -109.919188 
L 93.491283 -104.493418 
L 104.651283 -100.530471 
L 115.811283 -98.054041 
L 126.971283 -99.242722 
L 138.131283 -92.927381 
L 149.291283 -90.091232 
L 160.451283 -91.851239 
L 171.611283 -89.973719 
L 182.771283 -89.135316 
L 193.931283 -91.031893 
L 205.091283 -90.906221 
L 216.251283 -94.213204 
L 227.411283 -97.133565 
L 238.571283 -99.636596 
L 249.731283 -100.79094 
L 260.891283 -99.477502 
L 272.051283 -99.706005 
L 283.211283 -104.255239 
L 294.371283 -116.730507 
L 305.531283 -131.989846 
L 316.691283 -139.984162 
L 327.851283 -144.374385 
L 339.011283 -153.964932 
L 350.171283 -161.593874 
L 361.331283 -168.327245 
L 372.491283 -180.659172 
L 383.651283 -193.750221 
L 394.811283 -198.471961 
L 405.971283 -200.554857 
L 405.971283 -236.929344 
L 405.971283 -236.929344 
L 394.811283 -234.785083 
L 383.651283 -229.567646 
L 372.491283 -214.579219 
L 361.331283 -199.179569 
L 350.171283 -188.846626 
L 339.011283 -177.546231 
L 327.851283 -165.526436 
L 316.691283 -158.858652 
L 305.531283 -148.662531 
L 294.371283 -131.2535 
L 283.211283 -117.698431 
L 272.051283 -112.02876 
L 260.891283 -111.417946 
L 249.731283 -112.580894 
L 238.571283 -111.640019 
L 227.411283 -108.790341 
L 216.251283 -105.087917 
L 205.091283 -101.045888 
L 193.931283 -100.274194 
L 182.771283 -99.018807 
L 171.611283 -100.237042 
L 160.451283 -100.7576 
L 149.291283 -99.382304 
L 138.131283 -103.044123 
L 126.971283 -109.641684 
L 115.811283 -109.618766 
L 104.651283 -111.194333 
L 93.491283 -115.828499 
L 82.331283 -122.178736 
L 71.171283 -121.823323 
L 60.011283 -120.146775 
L 48.851283 -117.434962 
z
" style="stroke: #1f77b4; stroke-opacity: 0.2"/>
    </defs>
    <g clip-path="url(#pcdea6bc2c5)">
     <use xlink:href="#m14b6f61d07" x="0" y="361.333136" style="fill: #1f77b4; fill-opacity: 0.2; stroke: #1f77b4; stroke-opacity: 0.2"/>
    </g>
   </g>
   <g id="PolyCollection_2">
    <defs>
     <path id="mf1e5e18c5a" d="M 48.851283 -118.53567 
L 48.851283 -106.909121 
L 60.011283 -108.719215 
L 71.171283 -113.277107 
L 82.331283 -112.92963 
L 93.491283 -110.160294 
L 104.651283 -103.541123 
L 115.811283 -95.954863 
L 126.971283 -95.183145 
L 138.131283 -98.755754 
L 149.291283 -96.763803 
L 160.451283 -93.937603 
L 171.611283 -92.215383 
L 182.771283 -91.803966 
L 193.931283 -88.500344 
L 205.091283 -88.053156 
L 216.251283 -98.17216 
L 227.411283 -103.740558 
L 238.571283 -105.741027 
L 249.731283 -112.484146 
L 260.891283 -118.161844 
L 272.051283 -122.62267 
L 283.211283 -133.022924 
L 294.371283 -150.925233 
L 305.531283 -172.329157 
L 316.691283 -194.607953 
L 327.851283 -217.93663 
L 339.011283 -233.983994 
L 350.171283 -248.759526 
L 361.331283 -262.732963 
L 372.491283 -273.068291 
L 383.651283 -278.3168 
L 394.811283 -272.639731 
L 405.971283 -267.092089 
L 405.971283 -313.173454 
L 405.971283 -313.173454 
L 394.811283 -321.40639 
L 383.651283 -329.973156 
L 372.491283 -324.762384 
L 361.331283 -312.277623 
L 350.171283 -295.629018 
L 339.011283 -278.300972 
L 327.851283 -258.582198 
L 316.691283 -229.62107 
L 305.531283 -201.472596 
L 294.371283 -176.275011 
L 283.211283 -156.961207 
L 272.051283 -144.778662 
L 260.891283 -138.060943 
L 249.731283 -129.056563 
L 238.571283 -118.940784 
L 227.411283 -115.8203 
L 216.251283 -108.893557 
L 205.091283 -98.643714 
L 193.931283 -99.484626 
L 182.771283 -103.104923 
L 171.611283 -103.295557 
L 160.451283 -104.053347 
L 149.291283 -106.429799 
L 138.131283 -108.727309 
L 126.971283 -104.89862 
L 115.811283 -105.544959 
L 104.651283 -114.229906 
L 93.491283 -121.16847 
L 82.331283 -124.087008 
L 71.171283 -125.663114 
L 60.011283 -121.33508 
L 48.851283 -118.53567 
z
" style="stroke: #ff7f0e; stroke-opacity: 0.2"/>
    </defs>
    <g clip-path="url(#pcdea6bc2c5)">
     <use xlink:href="#mf1e5e18c5a" x="0" y="361.333136" style="fill: #ff7f0e; fill-opacity: 0.2; stroke: #ff7f0e; stroke-opacity: 0.2"/>
    </g>
   </g>
   <g id="matplotlib.axis_1">
    <g id="text_1">
     <text style="font: 10px 'Arial', sans-serif; text-anchor: middle" x="227.411283" y="296.533792" transform="rotate(-0 227.411283 296.533792)">Time</text>
    </g>
   </g>
   <g id="matplotlib.axis_2">
    <g id="ytick_1">
     <g id="line2d_1">
      <defs>
       <path id="me2bb04b420" d="M 0 0 
L -3.5 0 
" style="stroke: #000000; stroke-width: 0.8"/>
      </defs>
      <g>
       <use xlink:href="#me2bb04b420" x="48.851283" y="240.027221" style="stroke: #000000; stroke-width: 0.8"/>
      </g>
     </g>
     <g id="text_2">
      <text style="font: 10px 'Arial', sans-serif; text-anchor: end" x="41.851283" y="243.606128" transform="rotate(-0 41.851283 243.606128)">0.0</text>
     </g>
    </g>
    <g id="ytick_2">
     <g id="line2d_2">
      <g>
       <use xlink:href="#me2bb04b420" x="48.851283" y="194.649273" style="stroke: #000000; stroke-width: 0.8"/>
      </g>
     </g>
     <g id="text_3">
      <text style="font: 10px 'Arial', sans-serif; text-anchor: end" x="41.851283" y="198.228179" transform="rotate(-0 41.851283 198.228179)">0.5</text>
     </g>
    </g>
    <g id="ytick_3">
     <g id="line2d_3">
      <g>
       <use xlink:href="#me2bb04b420" x="48.851283" y="149.271324" style="stroke: #000000; stroke-width: 0.8"/>
      </g>
     </g>
     <g id="text_4">
      <text style="font: 10px 'Arial', sans-serif; text-anchor: end" x="41.851283" y="152.85023" transform="rotate(-0 41.851283 152.85023)">1.0</text>
     </g>
    </g>
    <g id="ytick_4">
     <g id="line2d_4">
      <g>
       <use xlink:href="#me2bb04b420" x="48.851283" y="103.893375" style="stroke: #000000; stroke-width: 0.8"/>
      </g>
     </g>
     <g id="text_5">
      <text style="font: 10px 'Arial', sans-serif; text-anchor: end" x="41.851283" y="107.472281" transform="rotate(-0 41.851283 107.472281)">1.5</text>
     </g>
    </g>
    <g id="ytick_5">
     <g id="line2d_5">
      <g>
       <use xlink:href="#me2bb04b420" x="48.851283" y="58.515426" style="stroke: #000000; stroke-width: 0.8"/>
      </g>
     </g>
     <g id="text_6">
      <text style="font: 10px 'Arial', sans-serif; text-anchor: end" x="41.851283" y="62.094332" transform="rotate(-0 41.851283 62.094332)">2.0</text>
     </g>
    </g>
    <g id="text_7">
     <text style="font: 10px 'Arial', sans-serif; text-anchor: middle" x="21.846596" y="152.31998" transform="rotate(-90 21.846596 152.31998)">Activity</text>
    </g>
   </g>
   <g id="line2d_6">
    <path d="M 48.851283 249.400821 
L 60.011283 247.39028 
L 71.171283 246.13327 
L 82.331283 245.284174 
L 93.491283 251.172177 
L 104.651283 255.470734 
L 115.811283 257.496733 
L 126.971283 256.890933 
L 138.131283 263.347384 
L 149.291283 266.596367 
L 160.451283 265.028716 
L 171.611283 266.227755 
L 182.771283 267.256074 
L 193.931283 265.680092 
L 205.091283 265.357082 
L 216.251283 261.682575 
L 227.411283 258.371183 
L 238.571283 255.694828 
L 249.731283 254.647219 
L 260.891283 255.885412 
L 272.051283 255.465753 
L 283.211283 250.3563 
L 294.371283 237.341132 
L 305.531283 221.006948 
L 316.691283 211.911729 
L 327.851283 206.382725 
L 339.011283 195.577554 
L 350.171283 186.112886 
L 361.331283 177.579729 
L 372.491283 163.713941 
L 383.651283 149.674205 
L 394.811283 144.704614 
L 405.971283 142.591036 
" clip-path="url(#pcdea6bc2c5)" style="fill: none; stroke: #1f77b4; stroke-width: 1.5; stroke-linecap: square"/>
   </g>
   <g id="line2d_7">
    <path d="M 48.851283 248.610741 
L 60.011283 246.305988 
L 71.171283 241.863025 
L 82.331283 242.824817 
L 93.491283 245.668754 
L 104.651283 252.447622 
L 115.811283 260.583224 
L 126.971283 261.292253 
L 138.131283 257.591604 
L 149.291283 259.736335 
L 160.451283 262.337661 
L 171.611283 263.577665 
L 182.771283 263.878692 
L 193.931283 267.340651 
L 205.091283 267.984701 
L 216.251283 257.800278 
L 227.411283 251.552707 
L 238.571283 248.99223 
L 249.731283 240.562782 
L 260.891283 233.221743 
L 272.051283 227.63247 
L 283.211283 216.34107 
L 294.371283 197.733016 
L 305.531283 174.43226 
L 316.691283 149.218625 
L 327.851283 123.073722 
L 339.011283 105.190653 
L 350.171283 89.138864 
L 361.331283 73.827838 
L 372.491283 62.417798 
L 383.651283 57.188158 
L 394.811283 64.310075 
L 405.971283 71.200359 
" clip-path="url(#pcdea6bc2c5)" style="fill: none; stroke: #ff7f0e; stroke-width: 1.5; stroke-linecap: square"/>
   </g>
   <g id="line2d_8">
    <path d="M 82.331283 285.37598 
L 82.331283 19.26398 
" clip-path="url(#pcdea6bc2c5)" style="fill: none; stroke-dasharray: 5.55,2.4; stroke-dashoffset: 0; stroke: #000000; stroke-opacity: 0.5; stroke-width: 1.5"/>
   </g>
   <g id="line2d_9">
    <path d="M 383.651283 285.37598 
L 383.651283 19.26398 
" clip-path="url(#pcdea6bc2c5)" style="fill: none; stroke-dasharray: 5.55,2.4; stroke-dashoffset: 0; stroke: #000000; stroke-opacity: 0.5; stroke-width: 1.5"/>
   </g>
   <g id="patch_3">
    <path d="M 48.851283 285.37598 
L 405.971283 285.37598 
" style="fill: none; stroke: #000000; stroke-width: 0.8; stroke-linejoin: miter; stroke-linecap: square"/>
   </g>
   <g id="text_8">
    <text style="font: 6.94px 'Arial', sans-serif" transform="translate(10.097767 321.385533) rotate(-35)">-0.1s Sampling</text>
   </g>
   <g id="text_9">
    <text style="font: 6.94px 'Arial', sans-serif" transform="translate(57.794497 311.430872) rotate(-35)">Sampling</text>
   </g>
   <g id="text_10">
    <text style="font: 6.94px 'Arial', sans-serif" transform="translate(319.037191 339.456682) rotate(-35)">Movement to Lateral Port</text>
   </g>
   <g id="text_11">
    <text style="font: 8.33px 'Arial', sans-serif; text-anchor: middle" x="227.411283" y="13.26398" transform="rotate(-0 227.411283 13.26398)">GP4_23_s7_L50_D250_ALM - Trace:172_GP4_23_s7_L50_D250_ALM (when: correct)</text>
   </g>
   <g id="legend_1">
    <g id="patch_4">
     <path d="M 133.696342 354.133136 
L 321.126224 354.133136 
Q 322.514224 354.133136 322.514224 352.745136 
L 322.514224 343.45638 
Q 322.514224 342.06838 321.126224 342.06838 
L 133.696342 342.06838 
Q 132.308342 342.06838 132.308342 343.45638 
L 132.308342 352.745136 
Q 132.308342 354.133136 133.696342 354.133136 
z
" style="fill: #ffffff; opacity: 0.8; stroke: #cccccc; stroke-linejoin: miter"/>
    </g>
    <g id="line2d_10">
     <path d="M 135.084342 347.467483 
L 142.024342 347.467483 
L 148.964342 347.467483 
" style="fill: none; stroke: #1f77b4; stroke-width: 1.5; stroke-linecap: square"/>
    </g>
    <g id="text_12">
     <text style="font: 6.94px 'Arial', sans-serif; text-anchor: start" x="154.516342" y="349.896483" transform="rotate(-0 154.516342 349.896483)">DecisionRight (88 pts)</text>
    </g>
    <g id="line2d_11">
     <path d="M 236.664255 347.467483 
L 243.604255 347.467483 
L 250.544255 347.467483 
" style="fill: none; stroke: #ff7f0e; stroke-width: 1.5; stroke-linecap: square"/>
    </g>
    <g id="text_13">
     <text style="font: 6.94px 'Arial', sans-serif; text-anchor: start" x="256.096255" y="349.896483" transform="rotate(-0 256.096255 349.896483)">DecisionLeft (87 pts)</text>
    </g>
   </g>
  </g>
 </g>
 <defs>
  <clipPath id="pcdea6bc2c5">
   <rect x="48.851283" y="19.26398" width="357.12" height="266.112"/>
  </clipPath>
 </defs>
</svg>
