<?xml version="1.0" encoding="utf-8" standalone="no"?>
<!DOCTYPE svg PUBLIC "-//W3C//DTD SVG 1.1//EN"
  "http://www.w3.org/Graphics/SVG/1.1/DTD/svg11.dtd">
<svg xmlns:xlink="http://www.w3.org/1999/xlink" width="413.171283pt" height="361.333136pt" viewBox="0 0 413.171283 361.333136" xmlns="http://www.w3.org/2000/svg" version="1.1">
 <metadata>
  <rdf:RDF xmlns:dc="http://purl.org/dc/elements/1.1/" xmlns:cc="http://creativecommons.org/ns#" xmlns:rdf="http://www.w3.org/1999/02/22-rdf-syntax-ns#">
   <cc:Work>
    <dc:type rdf:resource="http://purl.org/dc/dcmitype/StillImage"/>
    <dc:date>2025-12-29T04:07:06.796090</dc:date>
    <dc:format>image/svg+xml</dc:format>
    <dc:creator>
     <cc:Agent>
      <dc:title>Matplotlib v3.8.0, https://matplotlib.org/</dc:title>
     </cc:Agent>
    </dc:creator>
   </cc:Work>
  </rdf:RDF>
 </metadata>
 <defs>
  <style type="text/css">*{stroke-linejoin: round; stroke-linecap: butt}</style>
 </defs>
 <g id="figure_1">
  <g id="patch_1">
   <path d="M 0 361.333136 
L 413.171283 361.333136 
L 413.171283 -0 
L 0 -0 
z
" style="fill: #ffffff"/>
  </g>
  <g id="axes_1">
   <g id="patch_2">
    <path d="M 48.851283 285.37598 
L 405.971283 285.37598 
L 405.971283 19.26398 
L 48.851283 19.26398 
z
" style="fill: #ffffff"/>
   </g>
   <g id="PolyCollection_1">
    <defs>
     <path id="m735af55eb7" d="M 48.851283 -263.634169 
L 48.851283 -208.572592 
L 60.011283 -217.722831 
L 71.171283 -219.40307 
L 82.331283 -205.331934 
L 93.491283 -184.418058 
L 104.651283 -160.94779 
L 115.811283 -146.37498 
L 126.971283 -140.97233 
L 138.131283 -137.165231 
L 149.291283 -132.819538 
L 160.451283 -128.734078 
L 171.611283 -118.873671 
L 182.771283 -112.618282 
L 193.931283 -108.917542 
L 205.091283 -108.14206 
L 216.251283 -105.179455 
L 227.411283 -101.542066 
L 238.571283 -102.746879 
L 249.731283 -102.142226 
L 260.891283 -99.425753 
L 272.051283 -96.362812 
L 283.211283 -92.344296 
L 294.371283 -95.859938 
L 305.531283 -100.033448 
L 316.691283 -102.63028 
L 327.851283 -99.874644 
L 339.011283 -94.02724 
L 350.171283 -88.053156 
L 361.331283 -89.196343 
L 372.491283 -96.725971 
L 383.651283 -110.287581 
L 394.811283 -119.33095 
L 405.971283 -118.797912 
L 405.971283 -138.668153 
L 405.971283 -138.668153 
L 394.811283 -139.902761 
L 383.651283 -129.021523 
L 372.491283 -112.559525 
L 361.331283 -103.262149 
L 350.171283 -102.926746 
L 339.011283 -110.562665 
L 327.851283 -116.437143 
L 316.691283 -118.420925 
L 305.531283 -117.535829 
L 294.371283 -115.132659 
L 283.211283 -111.354268 
L 272.051283 -114.469221 
L 260.891283 -117.72954 
L 249.731283 -122.603873 
L 238.571283 -126.311808 
L 227.411283 -124.856769 
L 216.251283 -126.933592 
L 205.091283 -130.178214 
L 193.931283 -133.28506 
L 182.771283 -138.929802 
L 171.611283 -145.613765 
L 160.451283 -155.830286 
L 149.291283 -159.033098 
L 138.131283 -166.191431 
L 126.971283 -173.675519 
L 115.811283 -183.428924 
L 104.651283 -203.921204 
L 93.491283 -233.266266 
L 82.331283 -258.36463 
L 71.171283 -276.592641 
L 60.011283 -274.975087 
L 48.851283 -263.634169 
z
" style="stroke: #1f77b4; stroke-opacity: 0.2"/>
    </defs>
    <g clip-path="url(#pc2fb36c8f0)">
     <use xlink:href="#m735af55eb7" x="0" y="361.333136" style="fill: #1f77b4; fill-opacity: 0.2; stroke: #1f77b4; stroke-opacity: 0.2"/>
    </g>
   </g>
   <g id="PolyCollection_2">
    <defs>
     <path id="m00979077e2" d="M 48.851283 -325.186896 
L 48.851283 -269.954419 
L 60.011283 -274.626469 
L 71.171283 -274.340091 
L 82.331283 -268.237961 
L 93.491283 -256.72189 
L 104.651283 -229.27328 
L 115.811283 -204.798231 
L 126.971283 -186.372324 
L 138.131283 -170.33641 
L 149.291283 -155.60064 
L 160.451283 -144.262919 
L 171.611283 -139.975234 
L 182.771283 -137.00786 
L 193.931283 -132.473527 
L 205.091283 -127.774451 
L 216.251283 -122.687934 
L 227.411283 -124.054599 
L 238.571283 -129.20092 
L 249.731283 -125.754386 
L 260.891283 -122.271605 
L 272.051283 -117.722354 
L 283.211283 -116.280256 
L 294.371283 -118.075674 
L 305.531283 -117.657529 
L 316.691283 -125.947213 
L 327.851283 -132.390482 
L 339.011283 -126.62168 
L 350.171283 -121.860664 
L 361.331283 -126.943682 
L 372.491283 -134.789435 
L 383.651283 -151.691395 
L 394.811283 -168.88245 
L 405.971283 -175.907182 
L 405.971283 -200.685522 
L 405.971283 -200.685522 
L 394.811283 -194.731423 
L 383.651283 -177.563699 
L 372.491283 -157.782138 
L 361.331283 -147.966896 
L 350.171283 -141.252751 
L 339.011283 -145.598624 
L 327.851283 -151.347188 
L 316.691283 -144.564457 
L 305.531283 -135.275772 
L 294.371283 -134.884136 
L 283.211283 -135.107165 
L 272.051283 -137.706701 
L 260.891283 -143.893184 
L 249.731283 -148.060046 
L 238.571283 -150.482181 
L 227.411283 -145.845768 
L 216.251283 -145.862093 
L 205.091283 -151.0013 
L 193.931283 -156.69849 
L 182.771283 -161.371739 
L 171.611283 -164.844928 
L 160.451283 -170.597753 
L 149.291283 -183.665798 
L 138.131283 -200.756102 
L 126.971283 -220.253645 
L 115.811283 -245.819671 
L 104.651283 -278.72234 
L 93.491283 -311.30524 
L 82.331283 -324.810498 
L 71.171283 -329.973156 
L 60.011283 -329.362682 
L 48.851283 -325.186896 
z
" style="stroke: #ff7f0e; stroke-opacity: 0.2"/>
    </defs>
    <g clip-path="url(#pc2fb36c8f0)">
     <use xlink:href="#m00979077e2" x="0" y="361.333136" style="fill: #ff7f0e; fill-opacity: 0.2; stroke: #ff7f0e; stroke-opacity: 0.2"/>
    </g>
   </g>
   <g id="matplotlib.axis_1">
    <g id="text_1">
     <text style="font: 10px 'Arial', sans-serif; text-anchor: middle" x="227.411283" y="296.533792" transform="rotate(-0 227.411283 296.533792)">Time</text>
    </g>
   </g>
   <g id="matplotlib.axis_2">
    <g id="ytick_1">
     <g id="line2d_1">
      <defs>
       <path id="m9ad65ec0d8" d="M 0 0 
L -3.5 0 
" style="stroke: #000000; stroke-width: 0.8"/>
      </defs>
      <g>
       <use xlink:href="#m9ad65ec0d8" x="48.851283" y="255.414875" style="stroke: #000000; stroke-width: 0.8"/>
      </g>
     </g>
     <g id="text_2">
      <text style="font: 10px 'Arial', sans-serif; text-anchor: end" x="41.851283" y="258.993781" transform="rotate(-0 41.851283 258.993781)">0.00</text>
     </g>
    </g>
    <g id="ytick_2">
     <g id="line2d_2">
      <g>
       <use xlink:href="#m9ad65ec0d8" x="48.851283" y="223.787205" style="stroke: #000000; stroke-width: 0.8"/>
      </g>
     </g>
     <g id="text_3">
      <text style="font: 10px 'Arial', sans-serif; text-anchor: end" x="41.851283" y="227.366111" transform="rotate(-0 41.851283 227.366111)">0.25</text>
     </g>
    </g>
    <g id="ytick_3">
     <g id="line2d_3">
      <g>
       <use xlink:href="#m9ad65ec0d8" x="48.851283" y="192.159535" style="stroke: #000000; stroke-width: 0.8"/>
      </g>
     </g>
     <g id="text_4">
      <text style="font: 10px 'Arial', sans-serif; text-anchor: end" x="41.851283" y="195.738441" transform="rotate(-0 41.851283 195.738441)">0.50</text>
     </g>
    </g>
    <g id="ytick_4">
     <g id="line2d_4">
      <g>
       <use xlink:href="#m9ad65ec0d8" x="48.851283" y="160.531865" style="stroke: #000000; stroke-width: 0.8"/>
      </g>
     </g>
     <g id="text_5">
      <text style="font: 10px 'Arial', sans-serif; text-anchor: end" x="41.851283" y="164.110772" transform="rotate(-0 41.851283 164.110772)">0.75</text>
     </g>
    </g>
    <g id="ytick_5">
     <g id="line2d_5">
      <g>
       <use xlink:href="#m9ad65ec0d8" x="48.851283" y="128.904196" style="stroke: #000000; stroke-width: 0.8"/>
      </g>
     </g>
     <g id="text_6">
      <text style="font: 10px 'Arial', sans-serif; text-anchor: end" x="41.851283" y="132.483102" transform="rotate(-0 41.851283 132.483102)">1.00</text>
     </g>
    </g>
    <g id="ytick_6">
     <g id="line2d_6">
      <g>
       <use xlink:href="#m9ad65ec0d8" x="48.851283" y="97.276526" style="stroke: #000000; stroke-width: 0.8"/>
      </g>
     </g>
     <g id="text_7">
      <text style="font: 10px 'Arial', sans-serif; text-anchor: end" x="41.851283" y="100.855432" transform="rotate(-0 41.851283 100.855432)">1.25</text>
     </g>
    </g>
    <g id="ytick_7">
     <g id="line2d_7">
      <g>
       <use xlink:href="#m9ad65ec0d8" x="48.851283" y="65.648856" style="stroke: #000000; stroke-width: 0.8"/>
      </g>
     </g>
     <g id="text_8">
      <text style="font: 10px 'Arial', sans-serif; text-anchor: end" x="41.851283" y="69.227763" transform="rotate(-0 41.851283 69.227763)">1.50</text>
     </g>
    </g>
    <g id="ytick_8">
     <g id="line2d_8">
      <g>
       <use xlink:href="#m9ad65ec0d8" x="48.851283" y="34.021187" style="stroke: #000000; stroke-width: 0.8"/>
      </g>
     </g>
     <g id="text_9">
      <text style="font: 10px 'Arial', sans-serif; text-anchor: end" x="41.851283" y="37.600093" transform="rotate(-0 41.851283 37.600093)">1.75</text>
     </g>
    </g>
    <g id="text_10">
     <text style="font: 10px 'Arial', sans-serif; text-anchor: middle" x="16.285658" y="152.31998" transform="rotate(-90 16.285658 152.31998)">Activity</text>
    </g>
   </g>
   <g id="line2d_9">
    <path d="M 48.851283 125.229755 
L 60.011283 114.984173 
L 71.171283 113.33528 
L 82.331283 129.484854 
L 93.491283 152.490974 
L 104.651283 178.898639 
L 115.811283 196.431186 
L 126.971283 204.009211 
L 138.131283 209.654805 
L 149.291283 215.406819 
L 160.451283 219.050954 
L 171.611283 229.089417 
L 182.771283 235.559094 
L 193.931283 240.231835 
L 205.091283 242.172999 
L 216.251283 245.276612 
L 227.411283 248.133719 
L 238.571283 246.803792 
L 249.731283 248.960087 
L 260.891283 252.75549 
L 272.051283 255.917119 
L 283.211283 259.483854 
L 294.371283 255.836838 
L 305.531283 252.548497 
L 316.691283 250.807533 
L 327.851283 253.177242 
L 339.011283 259.038184 
L 350.171283 265.843184 
L 361.331283 265.103889 
L 372.491283 256.690388 
L 383.651283 241.678584 
L 394.811283 231.71628 
L 405.971283 232.600104 
" clip-path="url(#pc2fb36c8f0)" style="fill: none; stroke: #1f77b4; stroke-width: 1.5; stroke-linecap: square"/>
   </g>
   <g id="line2d_10">
    <path d="M 48.851283 63.762479 
L 60.011283 59.33856 
L 71.171283 59.176512 
L 82.331283 64.808906 
L 93.491283 77.319571 
L 104.651283 107.335326 
L 115.811283 136.024189 
L 126.971283 158.020151 
L 138.131283 175.78688 
L 149.291283 191.699919 
L 160.451283 203.902802 
L 171.611283 208.923055 
L 182.771283 212.143335 
L 193.931283 216.747127 
L 205.091283 221.94526 
L 216.251283 227.058122 
L 227.411283 226.382952 
L 238.571283 221.491586 
L 249.731283 224.42592 
L 260.891283 228.250742 
L 272.051283 233.618608 
L 283.211283 235.639426 
L 294.371283 234.853231 
L 305.531283 234.866485 
L 316.691283 226.077302 
L 327.851283 219.464301 
L 339.011283 225.222985 
L 350.171283 229.776428 
L 361.331283 223.877847 
L 372.491283 215.04735 
L 383.651283 196.705589 
L 394.811283 179.5262 
L 405.971283 173.036784 
" clip-path="url(#pc2fb36c8f0)" style="fill: none; stroke: #ff7f0e; stroke-width: 1.5; stroke-linecap: square"/>
   </g>
   <g id="line2d_11">
    <path d="M 82.331283 285.37598 
L 82.331283 19.26398 
" clip-path="url(#pc2fb36c8f0)" style="fill: none; stroke-dasharray: 5.55,2.4; stroke-dashoffset: 0; stroke: #000000; stroke-opacity: 0.5; stroke-width: 1.5"/>
   </g>
   <g id="line2d_12">
    <path d="M 383.651283 285.37598 
L 383.651283 19.26398 
" clip-path="url(#pc2fb36c8f0)" style="fill: none; stroke-dasharray: 5.55,2.4; stroke-dashoffset: 0; stroke: #000000; stroke-opacity: 0.5; stroke-width: 1.5"/>
   </g>
   <g id="patch_3">
    <path d="M 48.851283 285.37598 
L 405.971283 285.37598 
" style="fill: none; stroke: #000000; stroke-width: 0.8; stroke-linejoin: miter; stroke-linecap: square"/>
   </g>
   <g id="text_11">
    <text style="font: 6.94px 'Arial', sans-serif" transform="translate(10.097767 321.385533) rotate(-35)">-0.1s Sampling</text>
   </g>
   <g id="text_12">
    <text style="font: 6.94px 'Arial', sans-serif" transform="translate(57.794497 311.430872) rotate(-35)">Sampling</text>
   </g>
   <g id="text_13">
    <text style="font: 6.94px 'Arial', sans-serif" transform="translate(319.037191 339.456682) rotate(-35)">Movement to Lateral Port</text>
   </g>
   <g id="text_14">
    <text style="font: 8.33px 'Arial', sans-serif; text-anchor: middle" x="227.411283" y="13.26398" transform="rotate(-0 227.411283 13.26398)">GP4_23_s7_L50_D250_ALM - Trace:177_GP4_23_s7_L50_D250_ALM (when: correct)</text>
   </g>
   <g id="legend_1">
    <g id="patch_4">
     <path d="M 133.696342 354.133136 
L 321.126224 354.133136 
Q 322.514224 354.133136 322.514224 352.745136 
L 322.514224 343.45638 
Q 322.514224 342.06838 321.126224 342.06838 
L 133.696342 342.06838 
Q 132.308342 342.06838 132.308342 343.45638 
L 132.308342 352.745136 
Q 132.308342 354.133136 133.696342 354.133136 
z
" style="fill: #ffffff; opacity: 0.8; stroke: #cccccc; stroke-linejoin: miter"/>
    </g>
    <g id="line2d_13">
     <path d="M 135.084342 347.467483 
L 142.024342 347.467483 
L 148.964342 347.467483 
" style="fill: none; stroke: #1f77b4; stroke-width: 1.5; stroke-linecap: square"/>
    </g>
    <g id="text_15">
     <text style="font: 6.94px 'Arial', sans-serif; text-anchor: start" x="154.516342" y="349.896483" transform="rotate(-0 154.516342 349.896483)">DecisionRight (88 pts)</text>
    </g>
    <g id="line2d_14">
     <path d="M 236.664255 347.467483 
L 243.604255 347.467483 
L 250.544255 347.467483 
" style="fill: none; stroke: #ff7f0e; stroke-width: 1.5; stroke-linecap: square"/>
    </g>
    <g id="text_16">
     <text style="font: 6.94px 'Arial', sans-serif; text-anchor: start" x="256.096255" y="349.896483" transform="rotate(-0 256.096255 349.896483)">DecisionLeft (87 pts)</text>
    </g>
   </g>
  </g>
 </g>
 <defs>
  <clipPath id="pc2fb36c8f0">
   <rect x="48.851283" y="19.26398" width="357.12" height="266.112"/>
  </clipPath>
 </defs>
</svg>
