<?xml version="1.0" encoding="utf-8" standalone="no"?>
<!DOCTYPE svg PUBLIC "-//W3C//DTD SVG 1.1//EN"
  "http://www.w3.org/Graphics/SVG/1.1/DTD/svg11.dtd">
<svg xmlns:xlink="http://www.w3.org/1999/xlink" width="413.171283pt" height="361.333136pt" viewBox="0 0 413.171283 361.333136" xmlns="http://www.w3.org/2000/svg" version="1.1">
 <metadata>
  <rdf:RDF xmlns:dc="http://purl.org/dc/elements/1.1/" xmlns:cc="http://creativecommons.org/ns#" xmlns:rdf="http://www.w3.org/1999/02/22-rdf-syntax-ns#">
   <cc:Work>
    <dc:type rdf:resource="http://purl.org/dc/dcmitype/StillImage"/>
    <dc:date>2025-12-29T04:07:06.119182</dc:date>
    <dc:format>image/svg+xml</dc:format>
    <dc:creator>
     <cc:Agent>
      <dc:title>Matplotlib v3.8.0, https://matplotlib.org/</dc:title>
     </cc:Agent>
    </dc:creator>
   </cc:Work>
  </rdf:RDF>
 </metadata>
 <defs>
  <style type="text/css">*{stroke-linejoin: round; stroke-linecap: butt}</style>
 </defs>
 <g id="figure_1">
  <g id="patch_1">
   <path d="M 0 361.333136 
L 413.171283 361.333136 
L 413.171283 -0 
L 0 -0 
z
" style="fill: #ffffff"/>
  </g>
  <g id="axes_1">
   <g id="patch_2">
    <path d="M 48.851283 285.37598 
L 405.971283 285.37598 
L 405.971283 19.26398 
L 48.851283 19.26398 
z
" style="fill: #ffffff"/>
   </g>
   <g id="PolyCollection_1">
    <defs>
     <path id="m00378917ab" d="M 48.851283 -133.914951 
L 48.851283 -118.067287 
L 60.011283 -120.909018 
L 71.171283 -121.609394 
L 82.331283 -115.397814 
L 93.491283 -112.400646 
L 104.651283 -111.230578 
L 115.811283 -106.297235 
L 126.971283 -104.522738 
L 138.131283 -105.100813 
L 149.291283 -103.66465 
L 160.451283 -105.172248 
L 171.611283 -111.511981 
L 182.771283 -122.38561 
L 193.931283 -132.408966 
L 205.091283 -141.595111 
L 216.251283 -154.065833 
L 227.411283 -172.037848 
L 238.571283 -183.436152 
L 249.731283 -187.739319 
L 260.891283 -193.756844 
L 272.051283 -191.557044 
L 283.211283 -186.791466 
L 294.371283 -193.682867 
L 305.531283 -197.815464 
L 316.691283 -201.685519 
L 327.851283 -206.461466 
L 339.011283 -213.501849 
L 350.171283 -215.626157 
L 361.331283 -215.760934 
L 372.491283 -234.150926 
L 383.651283 -272.052904 
L 394.811283 -290.260791 
L 405.971283 -293.611474 
L 405.971283 -329.973156 
L 405.971283 -329.973156 
L 394.811283 -327.469455 
L 383.651283 -308.402217 
L 372.491283 -265.517041 
L 361.331283 -244.522486 
L 350.171283 -244.546101 
L 339.011283 -243.086572 
L 327.851283 -235.213126 
L 316.691283 -229.736674 
L 305.531283 -225.155024 
L 294.371283 -222.345626 
L 283.211283 -215.090779 
L 272.051283 -223.083605 
L 260.891283 -225.669401 
L 249.731283 -217.03225 
L 238.571283 -214.616502 
L 227.411283 -203.475864 
L 216.251283 -181.192015 
L 205.091283 -164.307926 
L 193.931283 -153.202017 
L 182.771283 -140.556837 
L 171.611283 -127.157228 
L 160.451283 -120.460654 
L 149.291283 -117.434864 
L 138.131283 -117.625904 
L 126.971283 -116.150097 
L 115.811283 -117.788188 
L 104.651283 -122.542115 
L 93.491283 -123.639928 
L 82.331283 -128.224826 
L 71.171283 -136.113973 
L 60.011283 -136.374084 
L 48.851283 -133.914951 
z
" style="stroke: #1f77b4; stroke-opacity: 0.2"/>
    </defs>
    <g clip-path="url(#p82ea33d1f5)">
     <use xlink:href="#m00378917ab" x="0" y="361.333136" style="fill: #1f77b4; fill-opacity: 0.2; stroke: #1f77b4; stroke-opacity: 0.2"/>
    </g>
   </g>
   <g id="PolyCollection_2">
    <defs>
     <path id="m701ef14a5b" d="M 48.851283 -137.597738 
L 48.851283 -118.362698 
L 60.011283 -114.985636 
L 71.171283 -114.957663 
L 82.331283 -116.079991 
L 93.491283 -113.605262 
L 104.651283 -104.202885 
L 115.811283 -91.625328 
L 126.971283 -88.053156 
L 138.131283 -93.319699 
L 149.291283 -98.738944 
L 160.451283 -99.954455 
L 171.611283 -101.722962 
L 182.771283 -106.215137 
L 193.931283 -114.784523 
L 205.091283 -124.276529 
L 216.251283 -135.417431 
L 227.411283 -142.916466 
L 238.571283 -145.538723 
L 249.731283 -148.116661 
L 260.891283 -157.843487 
L 272.051283 -164.4348 
L 283.211283 -166.786876 
L 294.371283 -168.947506 
L 305.531283 -174.147219 
L 316.691283 -186.294621 
L 327.851283 -195.083316 
L 339.011283 -199.966239 
L 350.171283 -203.059263 
L 361.331283 -208.376326 
L 372.491283 -226.674761 
L 383.651283 -260.19948 
L 394.811283 -268.601615 
L 405.971283 -258.467202 
L 405.971283 -308.104428 
L 405.971283 -308.104428 
L 394.811283 -318.468738 
L 383.651283 -306.751806 
L 372.491283 -266.138449 
L 361.331283 -244.452144 
L 350.171283 -237.788006 
L 339.011283 -234.274559 
L 327.851283 -227.247665 
L 316.691283 -215.15381 
L 305.531283 -199.759941 
L 294.371283 -193.319543 
L 283.211283 -192.659626 
L 272.051283 -190.072758 
L 260.891283 -181.67579 
L 249.731283 -170.015298 
L 238.571283 -166.190443 
L 227.411283 -161.809899 
L 216.251283 -152.606164 
L 205.091283 -140.690242 
L 193.931283 -130.142789 
L 182.771283 -120.704335 
L 171.611283 -115.245377 
L 160.451283 -111.973707 
L 149.291283 -110.148741 
L 138.131283 -103.258 
L 126.971283 -97.682745 
L 115.811283 -101.994493 
L 104.651283 -115.987786 
L 93.491283 -126.179425 
L 82.331283 -128.985549 
L 71.171283 -129.052528 
L 60.011283 -132.249376 
L 48.851283 -137.597738 
z
" style="stroke: #ff7f0e; stroke-opacity: 0.2"/>
    </defs>
    <g clip-path="url(#p82ea33d1f5)">
     <use xlink:href="#m701ef14a5b" x="0" y="361.333136" style="fill: #ff7f0e; fill-opacity: 0.2; stroke: #ff7f0e; stroke-opacity: 0.2"/>
    </g>
   </g>
   <g id="matplotlib.axis_1">
    <g id="text_1">
     <text style="font: 10px 'Arial', sans-serif; text-anchor: middle" x="227.411283" y="296.533792" transform="rotate(-0 227.411283 296.533792)">Time</text>
    </g>
   </g>
   <g id="matplotlib.axis_2">
    <g id="ytick_1">
     <g id="line2d_1">
      <defs>
       <path id="m17ea1f3272" d="M 0 0 
L -3.5 0 
" style="stroke: #000000; stroke-width: 0.8"/>
      </defs>
      <g>
       <use xlink:href="#m17ea1f3272" x="48.851283" y="274.542711" style="stroke: #000000; stroke-width: 0.8"/>
      </g>
     </g>
     <g id="text_2">
      <text style="font: 10px 'Arial', sans-serif; text-anchor: end" x="41.851283" y="278.121618" transform="rotate(-0 41.851283 278.121618)">−0.5</text>
     </g>
    </g>
    <g id="ytick_2">
     <g id="line2d_2">
      <g>
       <use xlink:href="#m17ea1f3272" x="48.851283" y="216.516223" style="stroke: #000000; stroke-width: 0.8"/>
      </g>
     </g>
     <g id="text_3">
      <text style="font: 10px 'Arial', sans-serif; text-anchor: end" x="41.851283" y="220.095129" transform="rotate(-0 41.851283 220.095129)">0.0</text>
     </g>
    </g>
    <g id="ytick_3">
     <g id="line2d_3">
      <g>
       <use xlink:href="#m17ea1f3272" x="48.851283" y="158.489734" style="stroke: #000000; stroke-width: 0.8"/>
      </g>
     </g>
     <g id="text_4">
      <text style="font: 10px 'Arial', sans-serif; text-anchor: end" x="41.851283" y="162.068641" transform="rotate(-0 41.851283 162.068641)">0.5</text>
     </g>
    </g>
    <g id="ytick_4">
     <g id="line2d_4">
      <g>
       <use xlink:href="#m17ea1f3272" x="48.851283" y="100.463246" style="stroke: #000000; stroke-width: 0.8"/>
      </g>
     </g>
     <g id="text_5">
      <text style="font: 10px 'Arial', sans-serif; text-anchor: end" x="41.851283" y="104.042152" transform="rotate(-0 41.851283 104.042152)">1.0</text>
     </g>
    </g>
    <g id="ytick_5">
     <g id="line2d_5">
      <g>
       <use xlink:href="#m17ea1f3272" x="48.851283" y="42.436757" style="stroke: #000000; stroke-width: 0.8"/>
      </g>
     </g>
     <g id="text_6">
      <text style="font: 10px 'Arial', sans-serif; text-anchor: end" x="41.851283" y="46.015663" transform="rotate(-0 41.851283 46.015663)">1.5</text>
     </g>
    </g>
    <g id="text_7">
     <text style="font: 10px 'Arial', sans-serif; text-anchor: middle" x="16.005971" y="152.31998" transform="rotate(-90 16.005971 152.31998)">Activity</text>
    </g>
   </g>
   <g id="line2d_6">
    <path d="M 48.851283 235.342017 
L 60.011283 232.691586 
L 71.171283 232.471453 
L 82.331283 239.521816 
L 93.491283 243.312849 
L 104.651283 244.446789 
L 115.811283 249.290425 
L 126.971283 250.996718 
L 138.131283 249.969777 
L 149.291283 250.783379 
L 160.451283 248.516684 
L 171.611283 241.998531 
L 182.771283 229.861913 
L 193.931283 218.527644 
L 205.091283 208.381617 
L 216.251283 193.704212 
L 227.411283 173.576278 
L 238.571283 162.306809 
L 249.731283 158.947352 
L 260.891283 151.620015 
L 272.051283 154.012812 
L 283.211283 160.392012 
L 294.371283 153.318889 
L 305.531283 149.847894 
L 316.691283 145.622041 
L 327.851283 140.49584 
L 339.011283 133.038925 
L 350.171283 131.247007 
L 361.331283 131.191426 
L 372.491283 111.499156 
L 383.651283 71.105575 
L 394.811283 52.468013 
L 405.971283 49.540821 
" clip-path="url(#p82ea33d1f5)" style="fill: none; stroke: #1f77b4; stroke-width: 1.5; stroke-linecap: square"/>
   </g>
   <g id="line2d_7">
    <path d="M 48.851283 233.352917 
L 60.011283 237.71563 
L 71.171283 239.32804 
L 82.331283 238.800366 
L 93.491283 241.440793 
L 104.651283 251.2378 
L 115.811283 264.523225 
L 126.971283 268.465185 
L 138.131283 263.044287 
L 149.291283 256.889294 
L 160.451283 255.369055 
L 171.611283 252.848966 
L 182.771283 247.8734 
L 193.931283 238.86948 
L 205.091283 228.84975 
L 216.251283 217.321338 
L 227.411283 208.969953 
L 238.571283 205.468553 
L 249.731283 202.267157 
L 260.891283 191.573498 
L 272.051283 184.079356 
L 283.211283 181.609885 
L 294.371283 180.19961 
L 305.531283 174.379556 
L 316.691283 160.608921 
L 327.851283 150.167646 
L 339.011283 144.212739 
L 350.171283 140.909501 
L 361.331283 134.918901 
L 372.491283 114.926531 
L 383.651283 77.857493 
L 394.811283 67.797959 
L 405.971283 78.047318 
" clip-path="url(#p82ea33d1f5)" style="fill: none; stroke: #ff7f0e; stroke-width: 1.5; stroke-linecap: square"/>
   </g>
   <g id="line2d_8">
    <path d="M 82.331283 285.37598 
L 82.331283 19.26398 
" clip-path="url(#p82ea33d1f5)" style="fill: none; stroke-dasharray: 5.55,2.4; stroke-dashoffset: 0; stroke: #000000; stroke-opacity: 0.5; stroke-width: 1.5"/>
   </g>
   <g id="line2d_9">
    <path d="M 383.651283 285.37598 
L 383.651283 19.26398 
" clip-path="url(#p82ea33d1f5)" style="fill: none; stroke-dasharray: 5.55,2.4; stroke-dashoffset: 0; stroke: #000000; stroke-opacity: 0.5; stroke-width: 1.5"/>
   </g>
   <g id="patch_3">
    <path d="M 48.851283 285.37598 
L 405.971283 285.37598 
" style="fill: none; stroke: #000000; stroke-width: 0.8; stroke-linejoin: miter; stroke-linecap: square"/>
   </g>
   <g id="text_8">
    <text style="font: 6.94px 'Arial', sans-serif" transform="translate(10.097767 321.385533) rotate(-35)">-0.1s Sampling</text>
   </g>
   <g id="text_9">
    <text style="font: 6.94px 'Arial', sans-serif" transform="translate(57.794497 311.430872) rotate(-35)">Sampling</text>
   </g>
   <g id="text_10">
    <text style="font: 6.94px 'Arial', sans-serif" transform="translate(319.037191 339.456682) rotate(-35)">Movement to Lateral Port</text>
   </g>
   <g id="text_11">
    <text style="font: 8.33px 'Arial', sans-serif; text-anchor: middle" x="227.411283" y="13.26398" transform="rotate(-0 227.411283 13.26398)">GP4_23_s7_L50_D250_ALM - Trace:180_GP4_23_s7_L50_D250_ALM (when: correct)</text>
   </g>
   <g id="legend_1">
    <g id="patch_4">
     <path d="M 133.696342 354.133136 
L 321.126224 354.133136 
Q 322.514224 354.133136 322.514224 352.745136 
L 322.514224 343.45638 
Q 322.514224 342.06838 321.126224 342.06838 
L 133.696342 342.06838 
Q 132.308342 342.06838 132.308342 343.45638 
L 132.308342 352.745136 
Q 132.308342 354.133136 133.696342 354.133136 
z
" style="fill: #ffffff; opacity: 0.8; stroke: #cccccc; stroke-linejoin: miter"/>
    </g>
    <g id="line2d_10">
     <path d="M 135.084342 347.467483 
L 142.024342 347.467483 
L 148.964342 347.467483 
" style="fill: none; stroke: #1f77b4; stroke-width: 1.5; stroke-linecap: square"/>
    </g>
    <g id="text_12">
     <text style="font: 6.94px 'Arial', sans-serif; text-anchor: start" x="154.516342" y="349.896483" transform="rotate(-0 154.516342 349.896483)">DecisionRight (88 pts)</text>
    </g>
    <g id="line2d_11">
     <path d="M 236.664255 347.467483 
L 243.604255 347.467483 
L 250.544255 347.467483 
" style="fill: none; stroke: #ff7f0e; stroke-width: 1.5; stroke-linecap: square"/>
    </g>
    <g id="text_13">
     <text style="font: 6.94px 'Arial', sans-serif; text-anchor: start" x="256.096255" y="349.896483" transform="rotate(-0 256.096255 349.896483)">DecisionLeft (87 pts)</text>
    </g>
   </g>
  </g>
 </g>
 <defs>
  <clipPath id="p82ea33d1f5">
   <rect x="48.851283" y="19.26398" width="357.12" height="266.112"/>
  </clipPath>
 </defs>
</svg>
