<?xml version="1.0" encoding="utf-8" standalone="no"?>
<!DOCTYPE svg PUBLIC "-//W3C//DTD SVG 1.1//EN"
  "http://www.w3.org/Graphics/SVG/1.1/DTD/svg11.dtd">
<svg xmlns:xlink="http://www.w3.org/1999/xlink" width="413.171283pt" height="361.333136pt" viewBox="0 0 413.171283 361.333136" xmlns="http://www.w3.org/2000/svg" version="1.1">
 <metadata>
  <rdf:RDF xmlns:dc="http://purl.org/dc/elements/1.1/" xmlns:cc="http://creativecommons.org/ns#" xmlns:rdf="http://www.w3.org/1999/02/22-rdf-syntax-ns#">
   <cc:Work>
    <dc:type rdf:resource="http://purl.org/dc/dcmitype/StillImage"/>
    <dc:date>2025-12-29T04:07:04.994176</dc:date>
    <dc:format>image/svg+xml</dc:format>
    <dc:creator>
     <cc:Agent>
      <dc:title>Matplotlib v3.8.0, https://matplotlib.org/</dc:title>
     </cc:Agent>
    </dc:creator>
   </cc:Work>
  </rdf:RDF>
 </metadata>
 <defs>
  <style type="text/css">*{stroke-linejoin: round; stroke-linecap: butt}</style>
 </defs>
 <g id="figure_1">
  <g id="patch_1">
   <path d="M 0 361.333136 
L 413.171283 361.333136 
L 413.171283 -0 
L 0 -0 
z
" style="fill: #ffffff"/>
  </g>
  <g id="axes_1">
   <g id="patch_2">
    <path d="M 48.851283 285.37598 
L 405.971283 285.37598 
L 405.971283 19.26398 
L 48.851283 19.26398 
z
" style="fill: #ffffff"/>
   </g>
   <g id="PolyCollection_1">
    <defs>
     <path id="mab710064f6" d="M 48.851283 -118.461312 
L 48.851283 -98.656129 
L 60.011283 -95.969977 
L 71.171283 -98.515983 
L 82.331283 -97.319467 
L 93.491283 -91.799051 
L 104.651283 -89.887516 
L 115.811283 -91.88919 
L 126.971283 -95.408994 
L 138.131283 -97.439121 
L 149.291283 -98.30234 
L 160.451283 -98.970073 
L 171.611283 -98.909571 
L 182.771283 -100.082619 
L 193.931283 -100.701933 
L 205.091283 -98.309882 
L 216.251283 -96.187817 
L 227.411283 -97.808449 
L 238.571283 -102.743877 
L 249.731283 -108.440833 
L 260.891283 -111.886411 
L 272.051283 -111.479828 
L 283.211283 -109.229183 
L 294.371283 -108.433816 
L 305.531283 -113.484806 
L 316.691283 -117.943473 
L 327.851283 -126.37495 
L 339.011283 -146.691496 
L 350.171283 -179.437119 
L 361.331283 -217.815686 
L 372.491283 -247.684304 
L 383.651283 -273.02212 
L 394.811283 -288.110247 
L 405.971283 -299.559223 
L 405.971283 -329.973156 
L 405.971283 -329.973156 
L 394.811283 -317.528173 
L 383.651283 -302.958561 
L 372.491283 -279.357466 
L 361.331283 -248.124482 
L 350.171283 -205.930076 
L 339.011283 -170.317094 
L 327.851283 -149.300127 
L 316.691283 -141.429416 
L 305.531283 -137.42372 
L 294.371283 -132.735358 
L 283.211283 -134.110288 
L 272.051283 -136.262972 
L 260.891283 -136.831817 
L 249.731283 -135.16543 
L 238.571283 -130.707474 
L 227.411283 -125.860675 
L 216.251283 -123.258892 
L 205.091283 -125.473405 
L 193.931283 -128.505916 
L 182.771283 -127.978204 
L 171.611283 -126.374967 
L 160.451283 -125.644126 
L 149.291283 -124.976415 
L 138.131283 -124.439414 
L 126.971283 -121.747134 
L 115.811283 -116.583226 
L 104.651283 -113.801894 
L 93.491283 -114.917692 
L 82.331283 -119.554628 
L 71.171283 -119.566726 
L 60.011283 -116.10845 
L 48.851283 -118.461312 
z
" style="stroke: #1f77b4; stroke-opacity: 0.2"/>
    </defs>
    <g clip-path="url(#paee12beef7)">
     <use xlink:href="#mab710064f6" x="0" y="361.333136" style="fill: #1f77b4; fill-opacity: 0.2; stroke: #1f77b4; stroke-opacity: 0.2"/>
    </g>
   </g>
   <g id="PolyCollection_2">
    <defs>
     <path id="m5f3534cd2d" d="M 48.851283 -144.09437 
L 48.851283 -121.883498 
L 60.011283 -114.485827 
L 71.171283 -105.299406 
L 82.331283 -102.026495 
L 93.491283 -100.939433 
L 104.651283 -93.850845 
L 115.811283 -88.917892 
L 126.971283 -88.053156 
L 138.131283 -94.674756 
L 149.291283 -99.14841 
L 160.451283 -99.455324 
L 171.611283 -97.513506 
L 182.771283 -95.506693 
L 193.931283 -97.796177 
L 205.091283 -102.091803 
L 216.251283 -99.433947 
L 227.411283 -98.635462 
L 238.571283 -102.357209 
L 249.731283 -105.344319 
L 260.891283 -106.536941 
L 272.051283 -109.440821 
L 283.211283 -110.754137 
L 294.371283 -109.928186 
L 305.531283 -114.240783 
L 316.691283 -118.622099 
L 327.851283 -119.718242 
L 339.011283 -121.172584 
L 350.171283 -127.65846 
L 361.331283 -134.643313 
L 372.491283 -139.383037 
L 383.651283 -142.547804 
L 394.811283 -143.986313 
L 405.971283 -147.7306 
L 405.971283 -170.955538 
L 405.971283 -170.955538 
L 394.811283 -169.054753 
L 383.651283 -168.426934 
L 372.491283 -165.327147 
L 361.331283 -160.326131 
L 350.171283 -153.125199 
L 339.011283 -146.241846 
L 327.851283 -143.686937 
L 316.691283 -142.744471 
L 305.531283 -140.749498 
L 294.371283 -138.096991 
L 283.211283 -138.705832 
L 272.051283 -136.13824 
L 260.891283 -132.161157 
L 249.731283 -130.270356 
L 238.571283 -126.218235 
L 227.411283 -121.554546 
L 216.251283 -122.123286 
L 205.091283 -124.266588 
L 193.931283 -119.527181 
L 182.771283 -118.102465 
L 171.611283 -121.717256 
L 160.451283 -124.441239 
L 149.291283 -123.723437 
L 138.131283 -118.922805 
L 126.971283 -112.094196 
L 115.811283 -112.875115 
L 104.651283 -118.289363 
L 93.491283 -124.412631 
L 82.331283 -124.098487 
L 71.171283 -127.211279 
L 60.011283 -136.350055 
L 48.851283 -144.09437 
z
" style="stroke: #ff7f0e; stroke-opacity: 0.2"/>
    </defs>
    <g clip-path="url(#paee12beef7)">
     <use xlink:href="#m5f3534cd2d" x="0" y="361.333136" style="fill: #ff7f0e; fill-opacity: 0.2; stroke: #ff7f0e; stroke-opacity: 0.2"/>
    </g>
   </g>
   <g id="matplotlib.axis_1">
    <g id="text_1">
     <text style="font: 10px 'Arial', sans-serif; text-anchor: middle" x="227.411283" y="296.533792" transform="rotate(-0 227.411283 296.533792)">Time</text>
    </g>
   </g>
   <g id="matplotlib.axis_2">
    <g id="ytick_1">
     <g id="line2d_1">
      <defs>
       <path id="m6ecfde1ad9" d="M 0 0 
L -3.5 0 
" style="stroke: #000000; stroke-width: 0.8"/>
      </defs>
      <g>
       <use xlink:href="#m6ecfde1ad9" x="48.851283" y="257.266625" style="stroke: #000000; stroke-width: 0.8"/>
      </g>
     </g>
     <g id="text_2">
      <text style="font: 10px 'Arial', sans-serif; text-anchor: end" x="41.851283" y="260.845532" transform="rotate(-0 41.851283 260.845532)">0.0</text>
     </g>
    </g>
    <g id="ytick_2">
     <g id="line2d_2">
      <g>
       <use xlink:href="#m6ecfde1ad9" x="48.851283" y="208.372549" style="stroke: #000000; stroke-width: 0.8"/>
      </g>
     </g>
     <g id="text_3">
      <text style="font: 10px 'Arial', sans-serif; text-anchor: end" x="41.851283" y="211.951455" transform="rotate(-0 41.851283 211.951455)">0.5</text>
     </g>
    </g>
    <g id="ytick_3">
     <g id="line2d_3">
      <g>
       <use xlink:href="#m6ecfde1ad9" x="48.851283" y="159.478472" style="stroke: #000000; stroke-width: 0.8"/>
      </g>
     </g>
     <g id="text_4">
      <text style="font: 10px 'Arial', sans-serif; text-anchor: end" x="41.851283" y="163.057378" transform="rotate(-0 41.851283 163.057378)">1.0</text>
     </g>
    </g>
    <g id="ytick_4">
     <g id="line2d_4">
      <g>
       <use xlink:href="#m6ecfde1ad9" x="48.851283" y="110.584395" style="stroke: #000000; stroke-width: 0.8"/>
      </g>
     </g>
     <g id="text_5">
      <text style="font: 10px 'Arial', sans-serif; text-anchor: end" x="41.851283" y="114.163302" transform="rotate(-0 41.851283 114.163302)">1.5</text>
     </g>
    </g>
    <g id="ytick_5">
     <g id="line2d_5">
      <g>
       <use xlink:href="#m6ecfde1ad9" x="48.851283" y="61.690319" style="stroke: #000000; stroke-width: 0.8"/>
      </g>
     </g>
     <g id="text_6">
      <text style="font: 10px 'Arial', sans-serif; text-anchor: end" x="41.851283" y="65.269225" transform="rotate(-0 41.851283 65.269225)">2.0</text>
     </g>
    </g>
    <g id="text_7">
     <text style="font: 10px 'Arial', sans-serif; text-anchor: middle" x="21.846596" y="152.31998" transform="rotate(-90 21.846596 152.31998)">Activity</text>
    </g>
   </g>
   <g id="line2d_6">
    <path d="M 48.851283 252.774415 
L 60.011283 255.293922 
L 71.171283 252.291782 
L 82.331283 252.896088 
L 93.491283 257.974765 
L 104.651283 259.488431 
L 115.811283 257.096928 
L 126.971283 252.755072 
L 138.131283 250.393869 
L 149.291283 249.693758 
L 160.451283 249.026037 
L 171.611283 248.690867 
L 182.771283 247.302725 
L 193.931283 246.729211 
L 205.091283 249.441492 
L 216.251283 251.609781 
L 227.411283 249.498574 
L 238.571283 244.60746 
L 249.731283 239.530003 
L 260.891283 236.974022 
L 272.051283 237.461735 
L 283.211283 239.6634 
L 294.371283 240.74855 
L 305.531283 235.878872 
L 316.691283 231.646692 
L 327.851283 223.495598 
L 339.011283 202.828841 
L 350.171283 168.649539 
L 361.331283 128.363052 
L 372.491283 97.812251 
L 383.651283 73.342795 
L 394.811283 58.513926 
L 405.971283 46.56694 
" clip-path="url(#paee12beef7)" style="fill: none; stroke: #1f77b4; stroke-width: 1.5; stroke-linecap: square"/>
   </g>
   <g id="line2d_7">
    <path d="M 48.851283 228.344203 
L 60.011283 235.915195 
L 71.171283 245.077793 
L 82.331283 248.270645 
L 93.491283 248.657104 
L 104.651283 255.263032 
L 115.811283 260.436633 
L 126.971283 261.25946 
L 138.131283 254.534355 
L 149.291283 249.897213 
L 160.451283 249.384854 
L 171.611283 251.717754 
L 182.771283 254.528557 
L 193.931283 252.671457 
L 205.091283 248.15394 
L 216.251283 250.554519 
L 227.411283 251.238132 
L 238.571283 247.045414 
L 249.731283 243.525799 
L 260.891283 241.984088 
L 272.051283 238.543606 
L 283.211283 236.603152 
L 294.371283 237.320548 
L 305.531283 233.837995 
L 316.691283 230.649851 
L 327.851283 229.630546 
L 339.011283 227.625921 
L 350.171283 220.941306 
L 361.331283 213.848414 
L 372.491283 208.978044 
L 383.651283 205.845768 
L 394.811283 204.812603 
L 405.971283 201.990067 
" clip-path="url(#paee12beef7)" style="fill: none; stroke: #ff7f0e; stroke-width: 1.5; stroke-linecap: square"/>
   </g>
   <g id="line2d_8">
    <path d="M 82.331283 285.37598 
L 82.331283 19.26398 
" clip-path="url(#paee12beef7)" style="fill: none; stroke-dasharray: 5.55,2.4; stroke-dashoffset: 0; stroke: #000000; stroke-opacity: 0.5; stroke-width: 1.5"/>
   </g>
   <g id="line2d_9">
    <path d="M 383.651283 285.37598 
L 383.651283 19.26398 
" clip-path="url(#paee12beef7)" style="fill: none; stroke-dasharray: 5.55,2.4; stroke-dashoffset: 0; stroke: #000000; stroke-opacity: 0.5; stroke-width: 1.5"/>
   </g>
   <g id="patch_3">
    <path d="M 48.851283 285.37598 
L 405.971283 285.37598 
" style="fill: none; stroke: #000000; stroke-width: 0.8; stroke-linejoin: miter; stroke-linecap: square"/>
   </g>
   <g id="text_8">
    <text style="font: 6.94px 'Arial', sans-serif" transform="translate(10.097767 321.385533) rotate(-35)">-0.1s Sampling</text>
   </g>
   <g id="text_9">
    <text style="font: 6.94px 'Arial', sans-serif" transform="translate(57.794497 311.430872) rotate(-35)">Sampling</text>
   </g>
   <g id="text_10">
    <text style="font: 6.94px 'Arial', sans-serif" transform="translate(319.037191 339.456682) rotate(-35)">Movement to Lateral Port</text>
   </g>
   <g id="text_11">
    <text style="font: 8.33px 'Arial', sans-serif; text-anchor: middle" x="227.411283" y="13.26398" transform="rotate(-0 227.411283 13.26398)">GP4_23_s7_L50_D250_ALM - Trace:229_GP4_23_s7_L50_D250_ALM (when: correct)</text>
   </g>
   <g id="legend_1">
    <g id="patch_4">
     <path d="M 133.696342 354.133136 
L 321.126224 354.133136 
Q 322.514224 354.133136 322.514224 352.745136 
L 322.514224 343.45638 
Q 322.514224 342.06838 321.126224 342.06838 
L 133.696342 342.06838 
Q 132.308342 342.06838 132.308342 343.45638 
L 132.308342 352.745136 
Q 132.308342 354.133136 133.696342 354.133136 
z
" style="fill: #ffffff; opacity: 0.8; stroke: #cccccc; stroke-linejoin: miter"/>
    </g>
    <g id="line2d_10">
     <path d="M 135.084342 347.467483 
L 142.024342 347.467483 
L 148.964342 347.467483 
" style="fill: none; stroke: #1f77b4; stroke-width: 1.5; stroke-linecap: square"/>
    </g>
    <g id="text_12">
     <text style="font: 6.94px 'Arial', sans-serif; text-anchor: start" x="154.516342" y="349.896483" transform="rotate(-0 154.516342 349.896483)">DecisionRight (88 pts)</text>
    </g>
    <g id="line2d_11">
     <path d="M 236.664255 347.467483 
L 243.604255 347.467483 
L 250.544255 347.467483 
" style="fill: none; stroke: #ff7f0e; stroke-width: 1.5; stroke-linecap: square"/>
    </g>
    <g id="text_13">
     <text style="font: 6.94px 'Arial', sans-serif; text-anchor: start" x="256.096255" y="349.896483" transform="rotate(-0 256.096255 349.896483)">DecisionLeft (87 pts)</text>
    </g>
   </g>
  </g>
 </g>
 <defs>
  <clipPath id="paee12beef7">
   <rect x="48.851283" y="19.26398" width="357.12" height="266.112"/>
  </clipPath>
 </defs>
</svg>
