<?xml version="1.0" encoding="utf-8" standalone="no"?>
<!DOCTYPE svg PUBLIC "-//W3C//DTD SVG 1.1//EN"
  "http://www.w3.org/Graphics/SVG/1.1/DTD/svg11.dtd">
<svg xmlns:xlink="http://www.w3.org/1999/xlink" width="413.171283pt" height="361.333136pt" viewBox="0 0 413.171283 361.333136" xmlns="http://www.w3.org/2000/svg" version="1.1">
 <metadata>
  <rdf:RDF xmlns:dc="http://purl.org/dc/elements/1.1/" xmlns:cc="http://creativecommons.org/ns#" xmlns:rdf="http://www.w3.org/1999/02/22-rdf-syntax-ns#">
   <cc:Work>
    <dc:type rdf:resource="http://purl.org/dc/dcmitype/StillImage"/>
    <dc:date>2025-12-29T04:07:09.073327</dc:date>
    <dc:format>image/svg+xml</dc:format>
    <dc:creator>
     <cc:Agent>
      <dc:title>Matplotlib v3.8.0, https://matplotlib.org/</dc:title>
     </cc:Agent>
    </dc:creator>
   </cc:Work>
  </rdf:RDF>
 </metadata>
 <defs>
  <style type="text/css">*{stroke-linejoin: round; stroke-linecap: butt}</style>
 </defs>
 <g id="figure_1">
  <g id="patch_1">
   <path d="M 0 361.333136 
L 413.171283 361.333136 
L 413.171283 -0 
L 0 -0 
z
" style="fill: #ffffff"/>
  </g>
  <g id="axes_1">
   <g id="patch_2">
    <path d="M 48.851283 285.37598 
L 405.971283 285.37598 
L 405.971283 19.26398 
L 48.851283 19.26398 
z
" style="fill: #ffffff"/>
   </g>
   <g id="PolyCollection_1">
    <defs>
     <path id="mfe97464a85" d="M 48.851283 -329.973156 
L 48.851283 -222.128389 
L 60.011283 -214.092581 
L 71.171283 -211.260307 
L 82.331283 -211.303741 
L 93.491283 -203.458838 
L 104.651283 -192.349795 
L 115.811283 -184.463481 
L 126.971283 -178.752469 
L 138.131283 -167.892077 
L 149.291283 -158.564291 
L 160.451283 -147.796253 
L 171.611283 -143.739455 
L 182.771283 -141.788545 
L 193.931283 -138.441602 
L 205.091283 -135.940333 
L 216.251283 -131.049342 
L 227.411283 -129.792161 
L 238.571283 -130.607409 
L 249.731283 -124.067935 
L 260.891283 -119.116093 
L 272.051283 -114.522277 
L 283.211283 -111.81641 
L 294.371283 -112.062281 
L 305.531283 -116.36832 
L 316.691283 -120.501731 
L 327.851283 -122.839946 
L 339.011283 -109.117191 
L 350.171283 -93.492289 
L 361.331283 -90.583105 
L 372.491283 -90.996089 
L 383.651283 -88.053156 
L 394.811283 -90.997599 
L 405.971283 -93.325863 
L 405.971283 -119.233103 
L 405.971283 -119.233103 
L 394.811283 -115.936217 
L 383.651283 -111.118845 
L 372.491283 -112.824458 
L 361.331283 -114.306785 
L 350.171283 -119.556152 
L 339.011283 -137.659199 
L 327.851283 -153.300275 
L 316.691283 -150.928669 
L 305.531283 -144.514597 
L 294.371283 -141.427156 
L 283.211283 -143.785798 
L 272.051283 -146.472869 
L 260.891283 -149.159886 
L 249.731283 -156.122106 
L 238.571283 -166.704005 
L 227.411283 -165.80336 
L 216.251283 -165.024355 
L 205.091283 -170.191075 
L 193.931283 -175.634562 
L 182.771283 -180.184874 
L 171.611283 -185.223906 
L 160.451283 -197.27833 
L 149.291283 -219.079193 
L 138.131283 -236.75245 
L 126.971283 -252.113444 
L 115.811283 -262.891557 
L 104.651283 -279.605284 
L 93.491283 -300.722509 
L 82.331283 -314.568209 
L 71.171283 -314.531548 
L 60.011283 -318.164063 
L 48.851283 -329.973156 
z
" style="stroke: #1f77b4; stroke-opacity: 0.2"/>
    </defs>
    <g clip-path="url(#pb13925b020)">
     <use xlink:href="#mfe97464a85" x="0" y="361.333136" style="fill: #1f77b4; fill-opacity: 0.2; stroke: #1f77b4; stroke-opacity: 0.2"/>
    </g>
   </g>
   <g id="PolyCollection_2">
    <defs>
     <path id="m21a18cb773" d="M 48.851283 -308.32267 
L 48.851283 -220.563782 
L 60.011283 -214.537136 
L 71.171283 -209.247269 
L 82.331283 -201.879478 
L 93.491283 -187.544646 
L 104.651283 -177.250328 
L 115.811283 -172.537636 
L 126.971283 -168.865607 
L 138.131283 -160.802122 
L 149.291283 -150.223276 
L 160.451283 -142.40705 
L 171.611283 -138.573874 
L 182.771283 -141.15264 
L 193.931283 -137.524419 
L 205.091283 -130.518917 
L 216.251283 -131.779739 
L 227.411283 -126.649188 
L 238.571283 -115.996016 
L 249.731283 -117.395325 
L 260.891283 -121.864582 
L 272.051283 -122.623361 
L 283.211283 -123.556347 
L 294.371283 -118.828923 
L 305.531283 -113.332851 
L 316.691283 -103.890732 
L 327.851283 -102.846077 
L 339.011283 -100.131918 
L 350.171283 -93.569279 
L 361.331283 -90.045507 
L 372.491283 -92.725028 
L 383.651283 -95.827267 
L 394.811283 -96.928297 
L 405.971283 -101.65158 
L 405.971283 -125.985898 
L 405.971283 -125.985898 
L 394.811283 -121.567582 
L 383.651283 -119.571038 
L 372.491283 -115.939116 
L 361.331283 -114.720443 
L 350.171283 -120.004098 
L 339.011283 -126.518979 
L 327.851283 -129.036685 
L 316.691283 -130.865482 
L 305.531283 -140.889599 
L 294.371283 -147.448732 
L 283.211283 -152.756664 
L 272.051283 -151.811408 
L 260.891283 -149.787735 
L 249.731283 -145.72942 
L 238.571283 -147.286944 
L 227.411283 -158.198499 
L 216.251283 -160.382342 
L 205.091283 -159.972143 
L 193.931283 -172.689263 
L 182.771283 -174.96598 
L 171.611283 -169.724103 
L 160.451283 -177.364958 
L 149.291283 -192.578298 
L 138.131283 -210.178124 
L 126.971283 -222.342593 
L 115.811283 -229.427057 
L 104.651283 -238.462721 
L 93.491283 -257.18037 
L 82.331283 -281.736587 
L 71.171283 -291.401057 
L 60.011283 -298.013163 
L 48.851283 -308.32267 
z
" style="stroke: #ff7f0e; stroke-opacity: 0.2"/>
    </defs>
    <g clip-path="url(#pb13925b020)">
     <use xlink:href="#m21a18cb773" x="0" y="361.333136" style="fill: #ff7f0e; fill-opacity: 0.2; stroke: #ff7f0e; stroke-opacity: 0.2"/>
    </g>
   </g>
   <g id="matplotlib.axis_1">
    <g id="text_1">
     <text style="font: 10px 'Arial', sans-serif; text-anchor: middle" x="227.411283" y="296.533792" transform="rotate(-0 227.411283 296.533792)">Time</text>
    </g>
   </g>
   <g id="matplotlib.axis_2">
    <g id="ytick_1">
     <g id="line2d_1">
      <defs>
       <path id="mec51a9ecec" d="M 0 0 
L -3.5 0 
" style="stroke: #000000; stroke-width: 0.8"/>
      </defs>
      <g>
       <use xlink:href="#mec51a9ecec" x="48.851283" y="243.216051" style="stroke: #000000; stroke-width: 0.8"/>
      </g>
     </g>
     <g id="text_2">
      <text style="font: 10px 'Arial', sans-serif; text-anchor: end" x="41.851283" y="246.794957" transform="rotate(-0 41.851283 246.794957)">−0.3</text>
     </g>
    </g>
    <g id="ytick_2">
     <g id="line2d_2">
      <g>
       <use xlink:href="#mec51a9ecec" x="48.851283" y="197.973187" style="stroke: #000000; stroke-width: 0.8"/>
      </g>
     </g>
     <g id="text_3">
      <text style="font: 10px 'Arial', sans-serif; text-anchor: end" x="41.851283" y="201.552093" transform="rotate(-0 41.851283 201.552093)">−0.2</text>
     </g>
    </g>
    <g id="ytick_3">
     <g id="line2d_3">
      <g>
       <use xlink:href="#mec51a9ecec" x="48.851283" y="152.730323" style="stroke: #000000; stroke-width: 0.8"/>
      </g>
     </g>
     <g id="text_4">
      <text style="font: 10px 'Arial', sans-serif; text-anchor: end" x="41.851283" y="156.30923" transform="rotate(-0 41.851283 156.30923)">−0.1</text>
     </g>
    </g>
    <g id="ytick_4">
     <g id="line2d_4">
      <g>
       <use xlink:href="#mec51a9ecec" x="48.851283" y="107.48746" style="stroke: #000000; stroke-width: 0.8"/>
      </g>
     </g>
     <g id="text_5">
      <text style="font: 10px 'Arial', sans-serif; text-anchor: end" x="41.851283" y="111.066366" transform="rotate(-0 41.851283 111.066366)">0.0</text>
     </g>
    </g>
    <g id="ytick_5">
     <g id="line2d_5">
      <g>
       <use xlink:href="#mec51a9ecec" x="48.851283" y="62.244596" style="stroke: #000000; stroke-width: 0.8"/>
      </g>
     </g>
     <g id="text_6">
      <text style="font: 10px 'Arial', sans-serif; text-anchor: end" x="41.851283" y="65.823502" transform="rotate(-0 41.851283 65.823502)">0.1</text>
     </g>
    </g>
    <g id="text_7">
     <text style="font: 10px 'Arial', sans-serif; text-anchor: middle" x="16.005971" y="152.31998" transform="rotate(-90 16.005971 152.31998)">Activity</text>
    </g>
   </g>
   <g id="line2d_6">
    <path d="M 48.851283 85.282362 
L 60.011283 95.204815 
L 71.171283 98.43721 
L 82.331283 98.397162 
L 93.491283 109.242464 
L 104.651283 125.355597 
L 115.811283 137.655617 
L 126.971283 145.900178 
L 138.131283 159.010873 
L 149.291283 172.511394 
L 160.451283 188.795844 
L 171.611283 196.851455 
L 182.771283 200.346426 
L 193.931283 204.295054 
L 205.091283 208.267432 
L 216.251283 213.296291 
L 227.411283 213.535372 
L 238.571283 212.677429 
L 249.731283 221.238115 
L 260.891283 227.195146 
L 272.051283 230.835563 
L 283.211283 233.532032 
L 294.371283 234.588418 
L 305.531283 230.891681 
L 316.691283 225.617936 
L 327.851283 223.263029 
L 339.011283 237.944941 
L 350.171283 254.808916 
L 361.331283 258.888191 
L 372.491283 259.422862 
L 383.651283 261.747135 
L 394.811283 257.866228 
L 405.971283 255.053653 
" clip-path="url(#pb13925b020)" style="fill: none; stroke: #1f77b4; stroke-width: 1.5; stroke-linecap: square"/>
   </g>
   <g id="line2d_7">
    <path d="M 48.851283 96.889909 
L 60.011283 105.057984 
L 71.171283 111.008972 
L 82.331283 119.525103 
L 93.491283 138.970628 
L 104.651283 153.476611 
L 115.811283 160.350788 
L 126.971283 165.729036 
L 138.131283 175.843013 
L 149.291283 189.932349 
L 160.451283 201.447132 
L 171.611283 207.184147 
L 182.771283 203.273826 
L 193.931283 206.226298 
L 205.091283 216.087609 
L 216.251283 215.252095 
L 227.411283 218.909292 
L 238.571283 229.691656 
L 249.731283 229.770763 
L 260.891283 225.506981 
L 272.051283 224.115748 
L 283.211283 223.176627 
L 294.371283 228.194308 
L 305.531283 234.221911 
L 316.691283 243.955029 
L 327.851283 245.391755 
L 339.011283 248.007688 
L 350.171283 254.546447 
L 361.331283 258.950161 
L 372.491283 257.001064 
L 383.651283 253.633984 
L 394.811283 252.085197 
L 405.971283 247.514397 
" clip-path="url(#pb13925b020)" style="fill: none; stroke: #ff7f0e; stroke-width: 1.5; stroke-linecap: square"/>
   </g>
   <g id="line2d_8">
    <path d="M 82.331283 285.37598 
L 82.331283 19.26398 
" clip-path="url(#pb13925b020)" style="fill: none; stroke-dasharray: 5.55,2.4; stroke-dashoffset: 0; stroke: #000000; stroke-opacity: 0.5; stroke-width: 1.5"/>
   </g>
   <g id="line2d_9">
    <path d="M 383.651283 285.37598 
L 383.651283 19.26398 
" clip-path="url(#pb13925b020)" style="fill: none; stroke-dasharray: 5.55,2.4; stroke-dashoffset: 0; stroke: #000000; stroke-opacity: 0.5; stroke-width: 1.5"/>
   </g>
   <g id="patch_3">
    <path d="M 48.851283 285.37598 
L 405.971283 285.37598 
" style="fill: none; stroke: #000000; stroke-width: 0.8; stroke-linejoin: miter; stroke-linecap: square"/>
   </g>
   <g id="text_8">
    <text style="font: 6.94px 'Arial', sans-serif" transform="translate(10.097767 321.385533) rotate(-35)">-0.1s Sampling</text>
   </g>
   <g id="text_9">
    <text style="font: 6.94px 'Arial', sans-serif" transform="translate(57.794497 311.430872) rotate(-35)">Sampling</text>
   </g>
   <g id="text_10">
    <text style="font: 6.94px 'Arial', sans-serif" transform="translate(319.037191 339.456682) rotate(-35)">Movement to Lateral Port</text>
   </g>
   <g id="text_11">
    <text style="font: 8.33px 'Arial', sans-serif; text-anchor: middle" x="227.411283" y="13.26398" transform="rotate(-0 227.411283 13.26398)">GP4_23_s7_L50_D250_ALM - Trace:28_GP4_23_s7_L50_D250_ALM (when: correct)</text>
   </g>
   <g id="legend_1">
    <g id="patch_4">
     <path d="M 133.696342 354.133136 
L 321.126224 354.133136 
Q 322.514224 354.133136 322.514224 352.745136 
L 322.514224 343.45638 
Q 322.514224 342.06838 321.126224 342.06838 
L 133.696342 342.06838 
Q 132.308342 342.06838 132.308342 343.45638 
L 132.308342 352.745136 
Q 132.308342 354.133136 133.696342 354.133136 
z
" style="fill: #ffffff; opacity: 0.8; stroke: #cccccc; stroke-linejoin: miter"/>
    </g>
    <g id="line2d_10">
     <path d="M 135.084342 347.467483 
L 142.024342 347.467483 
L 148.964342 347.467483 
" style="fill: none; stroke: #1f77b4; stroke-width: 1.5; stroke-linecap: square"/>
    </g>
    <g id="text_12">
     <text style="font: 6.94px 'Arial', sans-serif; text-anchor: start" x="154.516342" y="349.896483" transform="rotate(-0 154.516342 349.896483)">DecisionRight (88 pts)</text>
    </g>
    <g id="line2d_11">
     <path d="M 236.664255 347.467483 
L 243.604255 347.467483 
L 250.544255 347.467483 
" style="fill: none; stroke: #ff7f0e; stroke-width: 1.5; stroke-linecap: square"/>
    </g>
    <g id="text_13">
     <text style="font: 6.94px 'Arial', sans-serif; text-anchor: start" x="256.096255" y="349.896483" transform="rotate(-0 256.096255 349.896483)">DecisionLeft (87 pts)</text>
    </g>
   </g>
  </g>
 </g>
 <defs>
  <clipPath id="pb13925b020">
   <rect x="48.851283" y="19.26398" width="357.12" height="266.112"/>
  </clipPath>
 </defs>
</svg>
