<?xml version="1.0" encoding="utf-8" standalone="no"?>
<!DOCTYPE svg PUBLIC "-//W3C//DTD SVG 1.1//EN"
  "http://www.w3.org/Graphics/SVG/1.1/DTD/svg11.dtd">
<svg xmlns:xlink="http://www.w3.org/1999/xlink" width="413.171283pt" height="361.333136pt" viewBox="0 0 413.171283 361.333136" xmlns="http://www.w3.org/2000/svg" version="1.1">
 <metadata>
  <rdf:RDF xmlns:dc="http://purl.org/dc/elements/1.1/" xmlns:cc="http://creativecommons.org/ns#" xmlns:rdf="http://www.w3.org/1999/02/22-rdf-syntax-ns#">
   <cc:Work>
    <dc:type rdf:resource="http://purl.org/dc/dcmitype/StillImage"/>
    <dc:date>2025-12-29T04:07:05.215488</dc:date>
    <dc:format>image/svg+xml</dc:format>
    <dc:creator>
     <cc:Agent>
      <dc:title>Matplotlib v3.8.0, https://matplotlib.org/</dc:title>
     </cc:Agent>
    </dc:creator>
   </cc:Work>
  </rdf:RDF>
 </metadata>
 <defs>
  <style type="text/css">*{stroke-linejoin: round; stroke-linecap: butt}</style>
 </defs>
 <g id="figure_1">
  <g id="patch_1">
   <path d="M 0 361.333136 
L 413.171283 361.333136 
L 413.171283 -0 
L 0 -0 
z
" style="fill: #ffffff"/>
  </g>
  <g id="axes_1">
   <g id="patch_2">
    <path d="M 48.851283 285.37598 
L 405.971283 285.37598 
L 405.971283 19.26398 
L 48.851283 19.26398 
z
" style="fill: #ffffff"/>
   </g>
   <g id="PolyCollection_1">
    <defs>
     <path id="mc1362ca592" d="M 48.851283 -264.528792 
L 48.851283 -160.279664 
L 60.011283 -166.540701 
L 71.171283 -160.384334 
L 82.331283 -164.77054 
L 93.491283 -181.91028 
L 104.651283 -197.680852 
L 115.811283 -217.025189 
L 126.971283 -217.26722 
L 138.131283 -198.913922 
L 149.291283 -180.214224 
L 160.451283 -169.477737 
L 171.611283 -172.882939 
L 182.771283 -178.153834 
L 193.931283 -171.000569 
L 205.091283 -157.158715 
L 216.251283 -149.743503 
L 227.411283 -158.398423 
L 238.571283 -158.941195 
L 249.731283 -157.185629 
L 260.891283 -145.934839 
L 272.051283 -126.168568 
L 283.211283 -113.614585 
L 294.371283 -113.556771 
L 305.531283 -109.74409 
L 316.691283 -111.411197 
L 327.851283 -121.93268 
L 339.011283 -112.561256 
L 350.171283 -90.963745 
L 361.331283 -92.058803 
L 372.491283 -93.001489 
L 383.651283 -91.034144 
L 394.811283 -88.053156 
L 405.971283 -94.540901 
L 405.971283 -146.342297 
L 405.971283 -146.342297 
L 394.811283 -137.217505 
L 383.651283 -138.743569 
L 372.491283 -138.417763 
L 361.331283 -136.868974 
L 350.171283 -137.054331 
L 339.011283 -159.007753 
L 327.851283 -172.947107 
L 316.691283 -165.553605 
L 305.531283 -164.342252 
L 294.371283 -167.645234 
L 283.211283 -168.340131 
L 272.051283 -180.816159 
L 260.891283 -202.998485 
L 249.731283 -215.467117 
L 238.571283 -215.475529 
L 227.411283 -214.20402 
L 216.251283 -207.223654 
L 205.091283 -217.988115 
L 193.931283 -230.090869 
L 182.771283 -233.517618 
L 171.611283 -231.173626 
L 160.451283 -236.972673 
L 149.291283 -261.025015 
L 138.131283 -286.257951 
L 126.971283 -305.652769 
L 115.811283 -307.740727 
L 104.651283 -295.161092 
L 93.491283 -283.663556 
L 82.331283 -264.511617 
L 71.171283 -257.291862 
L 60.011283 -266.632 
L 48.851283 -264.528792 
z
" style="stroke: #1f77b4; stroke-opacity: 0.2"/>
    </defs>
    <g clip-path="url(#p88352758ef)">
     <use xlink:href="#mc1362ca592" x="0" y="361.333136" style="fill: #1f77b4; fill-opacity: 0.2; stroke: #1f77b4; stroke-opacity: 0.2"/>
    </g>
   </g>
   <g id="PolyCollection_2">
    <defs>
     <path id="mf8710419bb" d="M 48.851283 -301.465371 
L 48.851283 -195.996154 
L 60.011283 -185.034694 
L 71.171283 -165.299354 
L 82.331283 -154.661047 
L 93.491283 -171.233174 
L 104.651283 -200.760122 
L 115.811283 -231.766273 
L 126.971283 -238.878309 
L 138.131283 -236.169845 
L 149.291283 -223.636219 
L 160.451283 -212.354895 
L 171.611283 -211.075343 
L 182.771283 -217.440163 
L 193.931283 -199.380079 
L 205.091283 -183.331805 
L 216.251283 -180.17554 
L 227.411283 -169.623492 
L 238.571283 -172.001291 
L 249.731283 -178.44351 
L 260.891283 -175.47778 
L 272.051283 -162.155711 
L 283.211283 -148.131603 
L 294.371283 -140.038094 
L 305.531283 -150.203294 
L 316.691283 -155.200762 
L 327.851283 -146.036639 
L 339.011283 -134.496413 
L 350.171283 -123.217532 
L 361.331283 -112.230434 
L 372.491283 -103.510821 
L 383.651283 -116.72702 
L 394.811283 -129.571483 
L 405.971283 -135.31286 
L 405.971283 -194.770277 
L 405.971283 -194.770277 
L 394.811283 -188.958595 
L 383.651283 -172.606771 
L 372.491283 -157.620549 
L 361.331283 -167.920232 
L 350.171283 -180.871008 
L 339.011283 -192.770442 
L 327.851283 -202.355583 
L 316.691283 -210.374426 
L 305.531283 -206.213369 
L 294.371283 -194.58258 
L 283.211283 -204.648112 
L 272.051283 -222.66667 
L 260.891283 -236.917321 
L 249.731283 -239.044962 
L 238.571283 -235.059452 
L 227.411283 -238.335144 
L 216.251283 -247.457469 
L 205.091283 -244.844533 
L 193.931283 -262.770302 
L 182.771283 -286.347668 
L 171.611283 -279.607292 
L 160.451283 -282.824537 
L 149.291283 -296.602714 
L 138.131283 -316.604792 
L 126.971283 -329.973156 
L 115.811283 -327.365947 
L 104.651283 -295.501641 
L 93.491283 -272.749958 
L 82.331283 -263.899969 
L 71.171283 -272.889282 
L 60.011283 -289.270248 
L 48.851283 -301.465371 
z
" style="stroke: #ff7f0e; stroke-opacity: 0.2"/>
    </defs>
    <g clip-path="url(#p88352758ef)">
     <use xlink:href="#mf8710419bb" x="0" y="361.333136" style="fill: #ff7f0e; fill-opacity: 0.2; stroke: #ff7f0e; stroke-opacity: 0.2"/>
    </g>
   </g>
   <g id="matplotlib.axis_1">
    <g id="text_1">
     <text style="font: 10px 'Arial', sans-serif; text-anchor: middle" x="227.411283" y="296.533792" transform="rotate(-0 227.411283 296.533792)">Time</text>
    </g>
   </g>
   <g id="matplotlib.axis_2">
    <g id="ytick_1">
     <g id="line2d_1">
      <defs>
       <path id="m84fb76e281" d="M 0 0 
L -3.5 0 
" style="stroke: #000000; stroke-width: 0.8"/>
      </defs>
      <g>
       <use xlink:href="#m84fb76e281" x="48.851283" y="248.650205" style="stroke: #000000; stroke-width: 0.8"/>
      </g>
     </g>
     <g id="text_2">
      <text style="font: 10px 'Arial', sans-serif; text-anchor: end" x="41.851283" y="252.229111" transform="rotate(-0 41.851283 252.229111)">−0.2</text>
     </g>
    </g>
    <g id="ytick_2">
     <g id="line2d_2">
      <g>
       <use xlink:href="#m84fb76e281" x="48.851283" y="197.492094" style="stroke: #000000; stroke-width: 0.8"/>
      </g>
     </g>
     <g id="text_3">
      <text style="font: 10px 'Arial', sans-serif; text-anchor: end" x="41.851283" y="201.071" transform="rotate(-0 41.851283 201.071)">−0.1</text>
     </g>
    </g>
    <g id="ytick_3">
     <g id="line2d_3">
      <g>
       <use xlink:href="#m84fb76e281" x="48.851283" y="146.333983" style="stroke: #000000; stroke-width: 0.8"/>
      </g>
     </g>
     <g id="text_4">
      <text style="font: 10px 'Arial', sans-serif; text-anchor: end" x="41.851283" y="149.912889" transform="rotate(-0 41.851283 149.912889)">0.0</text>
     </g>
    </g>
    <g id="ytick_4">
     <g id="line2d_4">
      <g>
       <use xlink:href="#m84fb76e281" x="48.851283" y="95.175872" style="stroke: #000000; stroke-width: 0.8"/>
      </g>
     </g>
     <g id="text_5">
      <text style="font: 10px 'Arial', sans-serif; text-anchor: end" x="41.851283" y="98.754778" transform="rotate(-0 41.851283 98.754778)">0.1</text>
     </g>
    </g>
    <g id="ytick_5">
     <g id="line2d_5">
      <g>
       <use xlink:href="#m84fb76e281" x="48.851283" y="44.017761" style="stroke: #000000; stroke-width: 0.8"/>
      </g>
     </g>
     <g id="text_6">
      <text style="font: 10px 'Arial', sans-serif; text-anchor: end" x="41.851283" y="47.596667" transform="rotate(-0 41.851283 47.596667)">0.2</text>
     </g>
    </g>
    <g id="text_7">
     <text style="font: 10px 'Arial', sans-serif; text-anchor: middle" x="16.005971" y="152.31998" transform="rotate(-90 16.005971 152.31998)">Activity</text>
    </g>
   </g>
   <g id="line2d_6">
    <path d="M 48.851283 148.92891 
L 60.011283 144.746785 
L 71.171283 152.49504 
L 82.331283 146.692059 
L 93.491283 128.546218 
L 104.651283 114.912164 
L 115.811283 98.950178 
L 126.971283 99.873144 
L 138.131283 118.747198 
L 149.291283 140.713517 
L 160.451283 158.107931 
L 171.611283 159.304852 
L 182.771283 155.497409 
L 193.931283 160.787416 
L 205.091283 173.759721 
L 216.251283 182.849558 
L 227.411283 175.031915 
L 238.571283 174.124773 
L 249.731283 175.006764 
L 260.891283 186.866472 
L 272.051283 207.840772 
L 283.211283 220.355778 
L 294.371283 220.732133 
L 305.531283 224.289965 
L 316.691283 222.850737 
L 327.851283 213.893243 
L 339.011283 225.548631 
L 350.171283 247.324098 
L 361.331283 246.869247 
L 372.491283 245.62351 
L 383.651283 246.44428 
L 394.811283 248.697805 
L 405.971283 240.891537 
" clip-path="url(#p88352758ef)" style="fill: none; stroke: #1f77b4; stroke-width: 1.5; stroke-linecap: square"/>
   </g>
   <g id="line2d_7">
    <path d="M 48.851283 112.602371 
L 60.011283 124.180667 
L 71.171283 142.238818 
L 82.331283 152.052626 
L 93.491283 139.341569 
L 104.651283 113.202256 
L 115.811283 81.767024 
L 126.971283 76.907402 
L 138.131283 84.945818 
L 149.291283 101.213667 
L 160.451283 113.74342 
L 171.611283 115.991817 
L 182.771283 109.43922 
L 193.931283 130.257945 
L 205.091283 147.244966 
L 216.251283 147.51663 
L 227.411283 157.353817 
L 238.571283 157.802765 
L 249.731283 152.588899 
L 260.891283 155.135584 
L 272.051283 168.921944 
L 283.211283 184.943276 
L 294.371283 194.022798 
L 305.531283 183.124804 
L 316.691283 178.545542 
L 327.851283 187.137025 
L 339.011283 197.699707 
L 350.171283 209.288866 
L 361.331283 221.257803 
L 372.491283 230.767449 
L 383.651283 216.666241 
L 394.811283 202.068098 
L 405.971283 196.291566 
" clip-path="url(#p88352758ef)" style="fill: none; stroke: #ff7f0e; stroke-width: 1.5; stroke-linecap: square"/>
   </g>
   <g id="line2d_8">
    <path d="M 82.331283 285.37598 
L 82.331283 19.26398 
" clip-path="url(#p88352758ef)" style="fill: none; stroke-dasharray: 5.55,2.4; stroke-dashoffset: 0; stroke: #000000; stroke-opacity: 0.5; stroke-width: 1.5"/>
   </g>
   <g id="line2d_9">
    <path d="M 383.651283 285.37598 
L 383.651283 19.26398 
" clip-path="url(#p88352758ef)" style="fill: none; stroke-dasharray: 5.55,2.4; stroke-dashoffset: 0; stroke: #000000; stroke-opacity: 0.5; stroke-width: 1.5"/>
   </g>
   <g id="patch_3">
    <path d="M 48.851283 285.37598 
L 405.971283 285.37598 
" style="fill: none; stroke: #000000; stroke-width: 0.8; stroke-linejoin: miter; stroke-linecap: square"/>
   </g>
   <g id="text_8">
    <text style="font: 6.94px 'Arial', sans-serif" transform="translate(10.097767 321.385533) rotate(-35)">-0.1s Sampling</text>
   </g>
   <g id="text_9">
    <text style="font: 6.94px 'Arial', sans-serif" transform="translate(57.794497 311.430872) rotate(-35)">Sampling</text>
   </g>
   <g id="text_10">
    <text style="font: 6.94px 'Arial', sans-serif" transform="translate(319.037191 339.456682) rotate(-35)">Movement to Lateral Port</text>
   </g>
   <g id="text_11">
    <text style="font: 8.33px 'Arial', sans-serif; text-anchor: middle" x="227.411283" y="13.26398" transform="rotate(-0 227.411283 13.26398)">GP4_23_s7_L50_D250_ALM - Trace:29_GP4_23_s7_L50_D250_ALM (when: correct)</text>
   </g>
   <g id="legend_1">
    <g id="patch_4">
     <path d="M 133.696342 354.133136 
L 321.126224 354.133136 
Q 322.514224 354.133136 322.514224 352.745136 
L 322.514224 343.45638 
Q 322.514224 342.06838 321.126224 342.06838 
L 133.696342 342.06838 
Q 132.308342 342.06838 132.308342 343.45638 
L 132.308342 352.745136 
Q 132.308342 354.133136 133.696342 354.133136 
z
" style="fill: #ffffff; opacity: 0.8; stroke: #cccccc; stroke-linejoin: miter"/>
    </g>
    <g id="line2d_10">
     <path d="M 135.084342 347.467483 
L 142.024342 347.467483 
L 148.964342 347.467483 
" style="fill: none; stroke: #1f77b4; stroke-width: 1.5; stroke-linecap: square"/>
    </g>
    <g id="text_12">
     <text style="font: 6.94px 'Arial', sans-serif; text-anchor: start" x="154.516342" y="349.896483" transform="rotate(-0 154.516342 349.896483)">DecisionRight (88 pts)</text>
    </g>
    <g id="line2d_11">
     <path d="M 236.664255 347.467483 
L 243.604255 347.467483 
L 250.544255 347.467483 
" style="fill: none; stroke: #ff7f0e; stroke-width: 1.5; stroke-linecap: square"/>
    </g>
    <g id="text_13">
     <text style="font: 6.94px 'Arial', sans-serif; text-anchor: start" x="256.096255" y="349.896483" transform="rotate(-0 256.096255 349.896483)">DecisionLeft (87 pts)</text>
    </g>
   </g>
  </g>
 </g>
 <defs>
  <clipPath id="p88352758ef">
   <rect x="48.851283" y="19.26398" width="357.12" height="266.112"/>
  </clipPath>
 </defs>
</svg>
