<?xml version="1.0" encoding="utf-8" standalone="no"?>
<!DOCTYPE svg PUBLIC "-//W3C//DTD SVG 1.1//EN"
  "http://www.w3.org/Graphics/SVG/1.1/DTD/svg11.dtd">
<svg xmlns:xlink="http://www.w3.org/1999/xlink" width="413.171283pt" height="361.333136pt" viewBox="0 0 413.171283 361.333136" xmlns="http://www.w3.org/2000/svg" version="1.1">
 <metadata>
  <rdf:RDF xmlns:dc="http://purl.org/dc/elements/1.1/" xmlns:cc="http://creativecommons.org/ns#" xmlns:rdf="http://www.w3.org/1999/02/22-rdf-syntax-ns#">
   <cc:Work>
    <dc:type rdf:resource="http://purl.org/dc/dcmitype/StillImage"/>
    <dc:date>2025-12-29T04:07:06.589908</dc:date>
    <dc:format>image/svg+xml</dc:format>
    <dc:creator>
     <cc:Agent>
      <dc:title>Matplotlib v3.8.0, https://matplotlib.org/</dc:title>
     </cc:Agent>
    </dc:creator>
   </cc:Work>
  </rdf:RDF>
 </metadata>
 <defs>
  <style type="text/css">*{stroke-linejoin: round; stroke-linecap: butt}</style>
 </defs>
 <g id="figure_1">
  <g id="patch_1">
   <path d="M 0 361.333136 
L 413.171283 361.333136 
L 413.171283 -0 
L 0 -0 
z
" style="fill: #ffffff"/>
  </g>
  <g id="axes_1">
   <g id="patch_2">
    <path d="M 48.851283 285.37598 
L 405.971283 285.37598 
L 405.971283 19.26398 
L 48.851283 19.26398 
z
" style="fill: #ffffff"/>
   </g>
   <g id="PolyCollection_1">
    <defs>
     <path id="m03af7d892e" d="M 48.851283 -206.106934 
L 48.851283 -163.783436 
L 60.011283 -163.390308 
L 71.171283 -167.485223 
L 82.331283 -170.268912 
L 93.491283 -174.606218 
L 104.651283 -182.944006 
L 115.811283 -188.995924 
L 126.971283 -188.037729 
L 138.131283 -182.331287 
L 149.291283 -172.917576 
L 160.451283 -164.683221 
L 171.611283 -163.822838 
L 182.771283 -164.068354 
L 193.931283 -152.534287 
L 205.091283 -138.924787 
L 216.251283 -131.327939 
L 227.411283 -131.405039 
L 238.571283 -133.437489 
L 249.731283 -127.378956 
L 260.891283 -121.713136 
L 272.051283 -120.052074 
L 283.211283 -116.702016 
L 294.371283 -113.379209 
L 305.531283 -113.986143 
L 316.691283 -111.732842 
L 327.851283 -106.754392 
L 339.011283 -94.412945 
L 350.171283 -88.053156 
L 361.331283 -88.438803 
L 372.491283 -95.357745 
L 383.651283 -112.424193 
L 394.811283 -134.591598 
L 405.971283 -157.198836 
L 405.971283 -179.637812 
L 405.971283 -179.637812 
L 394.811283 -156.24458 
L 383.651283 -137.004366 
L 372.491283 -125.107732 
L 361.331283 -120.382924 
L 350.171283 -119.746511 
L 339.011283 -123.992103 
L 327.851283 -135.028671 
L 316.691283 -143.27855 
L 305.531283 -149.804846 
L 294.371283 -150.274173 
L 283.211283 -154.542996 
L 272.051283 -158.684588 
L 260.891283 -163.364801 
L 249.731283 -174.134817 
L 238.571283 -185.399467 
L 227.411283 -182.270596 
L 216.251283 -179.188138 
L 205.091283 -189.708018 
L 193.931283 -210.310529 
L 182.771283 -224.372837 
L 171.611283 -222.849605 
L 160.451283 -225.85734 
L 149.291283 -238.235093 
L 138.131283 -249.916688 
L 126.971283 -256.300349 
L 115.811283 -254.432473 
L 104.651283 -240.439996 
L 93.491283 -227.020777 
L 82.331283 -218.015441 
L 71.171283 -210.691886 
L 60.011283 -205.024039 
L 48.851283 -206.106934 
z
" style="stroke: #1f77b4; stroke-opacity: 0.2"/>
    </defs>
    <g clip-path="url(#p9f2e1374cd)">
     <use xlink:href="#m03af7d892e" x="0" y="361.333136" style="fill: #1f77b4; fill-opacity: 0.2; stroke: #1f77b4; stroke-opacity: 0.2"/>
    </g>
   </g>
   <g id="PolyCollection_2">
    <defs>
     <path id="m5bf68fadc8" d="M 48.851283 -271.214481 
L 48.851283 -229.862656 
L 60.011283 -226.581799 
L 71.171283 -219.710363 
L 82.331283 -212.555634 
L 93.491283 -212.836103 
L 104.651283 -228.694088 
L 115.811283 -248.849284 
L 126.971283 -261.00669 
L 138.131283 -259.421669 
L 149.291283 -252.298172 
L 160.451283 -253.732763 
L 171.611283 -243.715315 
L 182.771283 -235.789216 
L 193.931283 -223.777003 
L 205.091283 -201.972544 
L 216.251283 -185.022085 
L 227.411283 -175.856561 
L 238.571283 -170.780637 
L 249.731283 -161.144215 
L 260.891283 -154.680604 
L 272.051283 -150.077763 
L 283.211283 -143.43099 
L 294.371283 -142.308354 
L 305.531283 -144.063766 
L 316.691283 -145.954043 
L 327.851283 -148.18986 
L 339.011283 -141.473827 
L 350.171283 -134.282782 
L 361.331283 -129.730811 
L 372.491283 -129.858927 
L 383.651283 -137.050217 
L 394.811283 -140.229593 
L 405.971283 -145.142541 
L 405.971283 -163.367819 
L 405.971283 -163.367819 
L 394.811283 -156.857484 
L 383.651283 -155.962549 
L 372.491283 -153.04283 
L 361.331283 -155.483707 
L 350.171283 -162.280265 
L 339.011283 -171.028261 
L 327.851283 -179.041486 
L 316.691283 -180.086979 
L 305.531283 -181.108828 
L 294.371283 -181.926272 
L 283.211283 -186.3858 
L 272.051283 -195.364176 
L 260.891283 -200.868069 
L 249.731283 -209.179583 
L 238.571283 -221.994029 
L 227.411283 -228.566266 
L 216.251283 -239.373712 
L 205.091283 -261.292915 
L 193.931283 -288.060444 
L 182.771283 -301.425497 
L 171.611283 -312.022544 
L 160.451283 -325.858885 
L 149.291283 -325.092903 
L 138.131283 -329.973156 
L 126.971283 -328.055194 
L 115.811283 -307.718475 
L 104.651283 -279.319459 
L 93.491283 -258.443802 
L 82.331283 -255.694123 
L 71.171283 -261.178234 
L 60.011283 -267.951232 
L 48.851283 -271.214481 
z
" style="stroke: #ff7f0e; stroke-opacity: 0.2"/>
    </defs>
    <g clip-path="url(#p9f2e1374cd)">
     <use xlink:href="#m5bf68fadc8" x="0" y="361.333136" style="fill: #ff7f0e; fill-opacity: 0.2; stroke: #ff7f0e; stroke-opacity: 0.2"/>
    </g>
   </g>
   <g id="matplotlib.axis_1">
    <g id="text_1">
     <text style="font: 10px 'Arial', sans-serif; text-anchor: middle" x="227.411283" y="296.533792" transform="rotate(-0 227.411283 296.533792)">Time</text>
    </g>
   </g>
   <g id="matplotlib.axis_2">
    <g id="ytick_1">
     <g id="line2d_1">
      <defs>
       <path id="ma4275b9bad" d="M 0 0 
L -3.5 0 
" style="stroke: #000000; stroke-width: 0.8"/>
      </defs>
      <g>
       <use xlink:href="#ma4275b9bad" x="48.851283" y="255.811707" style="stroke: #000000; stroke-width: 0.8"/>
      </g>
     </g>
     <g id="text_2">
      <text style="font: 10px 'Arial', sans-serif; text-anchor: end" x="41.851283" y="259.390613" transform="rotate(-0 41.851283 259.390613)">−0.2</text>
     </g>
    </g>
    <g id="ytick_2">
     <g id="line2d_2">
      <g>
       <use xlink:href="#ma4275b9bad" x="48.851283" y="213.774965" style="stroke: #000000; stroke-width: 0.8"/>
      </g>
     </g>
     <g id="text_3">
      <text style="font: 10px 'Arial', sans-serif; text-anchor: end" x="41.851283" y="217.353872" transform="rotate(-0 41.851283 217.353872)">0.0</text>
     </g>
    </g>
    <g id="ytick_3">
     <g id="line2d_3">
      <g>
       <use xlink:href="#ma4275b9bad" x="48.851283" y="171.738224" style="stroke: #000000; stroke-width: 0.8"/>
      </g>
     </g>
     <g id="text_4">
      <text style="font: 10px 'Arial', sans-serif; text-anchor: end" x="41.851283" y="175.31713" transform="rotate(-0 41.851283 175.31713)">0.2</text>
     </g>
    </g>
    <g id="ytick_4">
     <g id="line2d_4">
      <g>
       <use xlink:href="#ma4275b9bad" x="48.851283" y="129.701482" style="stroke: #000000; stroke-width: 0.8"/>
      </g>
     </g>
     <g id="text_5">
      <text style="font: 10px 'Arial', sans-serif; text-anchor: end" x="41.851283" y="133.280388" transform="rotate(-0 41.851283 133.280388)">0.4</text>
     </g>
    </g>
    <g id="ytick_5">
     <g id="line2d_5">
      <g>
       <use xlink:href="#ma4275b9bad" x="48.851283" y="87.66474" style="stroke: #000000; stroke-width: 0.8"/>
      </g>
     </g>
     <g id="text_6">
      <text style="font: 10px 'Arial', sans-serif; text-anchor: end" x="41.851283" y="91.243647" transform="rotate(-0 41.851283 91.243647)">0.6</text>
     </g>
    </g>
    <g id="ytick_6">
     <g id="line2d_6">
      <g>
       <use xlink:href="#ma4275b9bad" x="48.851283" y="45.627999" style="stroke: #000000; stroke-width: 0.8"/>
      </g>
     </g>
     <g id="text_7">
      <text style="font: 10px 'Arial', sans-serif; text-anchor: end" x="41.851283" y="49.206905" transform="rotate(-0 41.851283 49.206905)">0.8</text>
     </g>
    </g>
    <g id="text_8">
     <text style="font: 10px 'Arial', sans-serif; text-anchor: middle" x="16.005971" y="152.31998" transform="rotate(-90 16.005971 152.31998)">Activity</text>
    </g>
   </g>
   <g id="line2d_7">
    <path d="M 48.851283 176.38795 
L 60.011283 177.125964 
L 71.171283 172.244583 
L 82.331283 167.190959 
L 93.491283 160.519638 
L 104.651283 149.641133 
L 115.811283 139.618937 
L 126.971283 139.164098 
L 138.131283 145.209148 
L 149.291283 155.756803 
L 160.451283 166.062854 
L 171.611283 167.996915 
L 182.771283 167.11254 
L 193.931283 179.910728 
L 205.091283 197.016734 
L 216.251283 206.075097 
L 227.411283 204.495317 
L 238.571283 201.914659 
L 249.731283 210.576249 
L 260.891283 218.794168 
L 272.051283 221.964805 
L 283.211283 225.71063 
L 294.371283 229.506446 
L 305.531283 229.437642 
L 316.691283 233.82744 
L 327.851283 240.441603 
L 339.011283 252.130612 
L 350.171283 257.433301 
L 361.331283 256.922271 
L 372.491283 251.100397 
L 383.651283 236.618856 
L 394.811283 215.915047 
L 405.971283 192.914813 
" clip-path="url(#p9f2e1374cd)" style="fill: none; stroke: #1f77b4; stroke-width: 1.5; stroke-linecap: square"/>
   </g>
   <g id="line2d_8">
    <path d="M 48.851283 110.794568 
L 60.011283 114.066624 
L 71.171283 120.888837 
L 82.331283 127.208255 
L 93.491283 125.693184 
L 104.651283 107.326362 
L 115.811283 83.04926 
L 126.971283 66.802194 
L 138.131283 66.635723 
L 149.291283 72.637602 
L 160.451283 71.537312 
L 171.611283 83.46421 
L 182.771283 92.725779 
L 193.931283 105.414413 
L 205.091283 129.700403 
L 216.251283 149.135237 
L 227.411283 159.121722 
L 238.571283 164.945804 
L 249.731283 176.171236 
L 260.891283 183.5588 
L 272.051283 188.612166 
L 283.211283 196.424741 
L 294.371283 199.215823 
L 305.531283 198.746839 
L 316.691283 198.312624 
L 327.851283 197.717463 
L 339.011283 205.082092 
L 350.171283 213.051613 
L 361.331283 218.725877 
L 372.491283 219.882257 
L 383.651283 214.826753 
L 394.811283 212.789597 
L 405.971283 207.077956 
" clip-path="url(#p9f2e1374cd)" style="fill: none; stroke: #ff7f0e; stroke-width: 1.5; stroke-linecap: square"/>
   </g>
   <g id="line2d_9">
    <path d="M 82.331283 285.37598 
L 82.331283 19.26398 
" clip-path="url(#p9f2e1374cd)" style="fill: none; stroke-dasharray: 5.55,2.4; stroke-dashoffset: 0; stroke: #000000; stroke-opacity: 0.5; stroke-width: 1.5"/>
   </g>
   <g id="line2d_10">
    <path d="M 383.651283 285.37598 
L 383.651283 19.26398 
" clip-path="url(#p9f2e1374cd)" style="fill: none; stroke-dasharray: 5.55,2.4; stroke-dashoffset: 0; stroke: #000000; stroke-opacity: 0.5; stroke-width: 1.5"/>
   </g>
   <g id="patch_3">
    <path d="M 48.851283 285.37598 
L 405.971283 285.37598 
" style="fill: none; stroke: #000000; stroke-width: 0.8; stroke-linejoin: miter; stroke-linecap: square"/>
   </g>
   <g id="text_9">
    <text style="font: 6.94px 'Arial', sans-serif" transform="translate(10.097767 321.385533) rotate(-35)">-0.1s Sampling</text>
   </g>
   <g id="text_10">
    <text style="font: 6.94px 'Arial', sans-serif" transform="translate(57.794497 311.430872) rotate(-35)">Sampling</text>
   </g>
   <g id="text_11">
    <text style="font: 6.94px 'Arial', sans-serif" transform="translate(319.037191 339.456682) rotate(-35)">Movement to Lateral Port</text>
   </g>
   <g id="text_12">
    <text style="font: 8.33px 'Arial', sans-serif; text-anchor: middle" x="227.411283" y="13.26398" transform="rotate(-0 227.411283 13.26398)">GP4_23_s7_L50_D250_ALM - Trace:38_GP4_23_s7_L50_D250_ALM (when: correct)</text>
   </g>
   <g id="legend_1">
    <g id="patch_4">
     <path d="M 133.696342 354.133136 
L 321.126224 354.133136 
Q 322.514224 354.133136 322.514224 352.745136 
L 322.514224 343.45638 
Q 322.514224 342.06838 321.126224 342.06838 
L 133.696342 342.06838 
Q 132.308342 342.06838 132.308342 343.45638 
L 132.308342 352.745136 
Q 132.308342 354.133136 133.696342 354.133136 
z
" style="fill: #ffffff; opacity: 0.8; stroke: #cccccc; stroke-linejoin: miter"/>
    </g>
    <g id="line2d_11">
     <path d="M 135.084342 347.467483 
L 142.024342 347.467483 
L 148.964342 347.467483 
" style="fill: none; stroke: #1f77b4; stroke-width: 1.5; stroke-linecap: square"/>
    </g>
    <g id="text_13">
     <text style="font: 6.94px 'Arial', sans-serif; text-anchor: start" x="154.516342" y="349.896483" transform="rotate(-0 154.516342 349.896483)">DecisionRight (88 pts)</text>
    </g>
    <g id="line2d_12">
     <path d="M 236.664255 347.467483 
L 243.604255 347.467483 
L 250.544255 347.467483 
" style="fill: none; stroke: #ff7f0e; stroke-width: 1.5; stroke-linecap: square"/>
    </g>
    <g id="text_14">
     <text style="font: 6.94px 'Arial', sans-serif; text-anchor: start" x="256.096255" y="349.896483" transform="rotate(-0 256.096255 349.896483)">DecisionLeft (87 pts)</text>
    </g>
   </g>
  </g>
 </g>
 <defs>
  <clipPath id="p9f2e1374cd">
   <rect x="48.851283" y="19.26398" width="357.12" height="266.112"/>
  </clipPath>
 </defs>
</svg>
