<?xml version="1.0" encoding="utf-8" standalone="no"?>
<!DOCTYPE svg PUBLIC "-//W3C//DTD SVG 1.1//EN"
  "http://www.w3.org/Graphics/SVG/1.1/DTD/svg11.dtd">
<svg xmlns:xlink="http://www.w3.org/1999/xlink" width="413.171283pt" height="361.333136pt" viewBox="0 0 413.171283 361.333136" xmlns="http://www.w3.org/2000/svg" version="1.1">
 <metadata>
  <rdf:RDF xmlns:dc="http://purl.org/dc/elements/1.1/" xmlns:cc="http://creativecommons.org/ns#" xmlns:rdf="http://www.w3.org/1999/02/22-rdf-syntax-ns#">
   <cc:Work>
    <dc:type rdf:resource="http://purl.org/dc/dcmitype/StillImage"/>
    <dc:date>2025-12-29T04:07:07.552195</dc:date>
    <dc:format>image/svg+xml</dc:format>
    <dc:creator>
     <cc:Agent>
      <dc:title>Matplotlib v3.8.0, https://matplotlib.org/</dc:title>
     </cc:Agent>
    </dc:creator>
   </cc:Work>
  </rdf:RDF>
 </metadata>
 <defs>
  <style type="text/css">*{stroke-linejoin: round; stroke-linecap: butt}</style>
 </defs>
 <g id="figure_1">
  <g id="patch_1">
   <path d="M 0 361.333136 
L 413.171283 361.333136 
L 413.171283 -0 
L 0 -0 
z
" style="fill: #ffffff"/>
  </g>
  <g id="axes_1">
   <g id="patch_2">
    <path d="M 48.851283 285.37598 
L 405.971283 285.37598 
L 405.971283 19.26398 
L 48.851283 19.26398 
z
" style="fill: #ffffff"/>
   </g>
   <g id="PolyCollection_1">
    <defs>
     <path id="m00d4939421" d="M 48.851283 -152.918707 
L 48.851283 -116.940475 
L 60.011283 -107.925083 
L 71.171283 -92.793106 
L 82.331283 -88.053156 
L 93.491283 -95.089002 
L 104.651283 -105.216698 
L 115.811283 -118.104119 
L 126.971283 -133.887192 
L 138.131283 -144.016974 
L 149.291283 -139.37243 
L 160.451283 -148.476026 
L 171.611283 -167.924632 
L 182.771283 -178.574956 
L 193.931283 -179.32267 
L 205.091283 -174.094499 
L 216.251283 -182.838704 
L 227.411283 -200.059553 
L 238.571283 -194.89759 
L 249.731283 -181.275513 
L 260.891283 -169.072854 
L 272.051283 -160.70218 
L 283.211283 -163.457968 
L 294.371283 -174.207435 
L 305.531283 -180.659849 
L 316.691283 -168.108215 
L 327.851283 -155.91356 
L 339.011283 -155.14687 
L 350.171283 -144.55628 
L 361.331283 -137.765655 
L 372.491283 -143.242453 
L 383.651283 -181.773212 
L 394.811283 -210.743308 
L 405.971283 -205.566539 
L 405.971283 -250.659533 
L 405.971283 -250.659533 
L 394.811283 -257.932777 
L 383.651283 -231.380568 
L 372.491283 -192.131088 
L 361.331283 -185.392334 
L 350.171283 -188.614488 
L 339.011283 -201.574563 
L 327.851283 -200.342138 
L 316.691283 -220.957353 
L 305.531283 -240.371934 
L 294.371283 -235.682695 
L 283.211283 -226.029555 
L 272.051283 -223.82798 
L 260.891283 -226.048475 
L 249.731283 -249.845698 
L 238.571283 -258.747427 
L 227.411283 -262.292525 
L 216.251283 -251.507104 
L 205.091283 -236.143019 
L 193.931283 -240.668216 
L 182.771283 -237.163916 
L 171.611283 -223.368687 
L 160.451283 -203.503864 
L 149.291283 -203.65595 
L 138.131283 -206.625181 
L 126.971283 -173.660525 
L 115.811283 -151.651444 
L 104.651283 -141.245261 
L 93.491283 -128.668255 
L 82.331283 -121.476556 
L 71.171283 -126.249966 
L 60.011283 -140.579153 
L 48.851283 -152.918707 
z
" style="stroke: #1f77b4; stroke-opacity: 0.2"/>
    </defs>
    <g clip-path="url(#p11be17ea7f)">
     <use xlink:href="#m00d4939421" x="0" y="361.333136" style="fill: #1f77b4; fill-opacity: 0.2; stroke: #1f77b4; stroke-opacity: 0.2"/>
    </g>
   </g>
   <g id="PolyCollection_2">
    <defs>
     <path id="md491114942" d="M 48.851283 -167.666651 
L 48.851283 -127.653132 
L 60.011283 -118.242169 
L 71.171283 -106.807553 
L 82.331283 -95.962162 
L 93.491283 -90.545155 
L 104.651283 -106.474169 
L 115.811283 -132.863117 
L 126.971283 -155.7707 
L 138.131283 -178.417136 
L 149.291283 -189.942113 
L 160.451283 -186.724424 
L 171.611283 -202.159076 
L 182.771283 -228.464361 
L 193.931283 -233.565491 
L 205.091283 -225.011188 
L 216.251283 -214.530959 
L 227.411283 -215.039006 
L 238.571283 -229.166157 
L 249.731283 -229.29271 
L 260.891283 -232.321031 
L 272.051283 -231.897446 
L 283.211283 -228.10493 
L 294.371283 -216.931507 
L 305.531283 -216.538234 
L 316.691283 -210.11317 
L 327.851283 -192.980297 
L 339.011283 -187.533692 
L 350.171283 -199.053952 
L 361.331283 -222.095871 
L 372.491283 -227.927767 
L 383.651283 -229.703515 
L 394.811283 -241.257608 
L 405.971283 -227.416707 
L 405.971283 -282.478805 
L 405.971283 -282.478805 
L 394.811283 -298.917657 
L 383.651283 -300.110964 
L 372.491283 -325.935506 
L 361.331283 -329.973156 
L 350.171283 -295.250336 
L 339.011283 -275.373057 
L 327.851283 -283.748146 
L 316.691283 -303.235038 
L 305.531283 -309.146986 
L 294.371283 -302.837842 
L 283.211283 -312.505607 
L 272.051283 -321.017211 
L 260.891283 -325.321426 
L 249.731283 -319.47497 
L 238.571283 -310.964482 
L 227.411283 -286.550745 
L 216.251283 -291.581214 
L 205.091283 -308.846443 
L 193.931283 -315.410604 
L 182.771283 -312.803695 
L 171.611283 -297.454315 
L 160.451283 -279.564192 
L 149.291283 -274.327864 
L 138.131283 -242.281019 
L 126.971283 -196.571642 
L 115.811283 -169.66269 
L 104.651283 -142.722293 
L 93.491283 -129.347017 
L 82.331283 -137.224087 
L 71.171283 -146.100317 
L 60.011283 -154.444014 
L 48.851283 -167.666651 
z
" style="stroke: #ff7f0e; stroke-opacity: 0.2"/>
    </defs>
    <g clip-path="url(#p11be17ea7f)">
     <use xlink:href="#md491114942" x="0" y="361.333136" style="fill: #ff7f0e; fill-opacity: 0.2; stroke: #ff7f0e; stroke-opacity: 0.2"/>
    </g>
   </g>
   <g id="matplotlib.axis_1">
    <g id="text_1">
     <text style="font: 10px 'Arial', sans-serif; text-anchor: middle" x="227.411283" y="296.533792" transform="rotate(-0 227.411283 296.533792)">Time</text>
    </g>
   </g>
   <g id="matplotlib.axis_2">
    <g id="ytick_1">
     <g id="line2d_1">
      <defs>
       <path id="m678750c949" d="M 0 0 
L -3.5 0 
" style="stroke: #000000; stroke-width: 0.8"/>
      </defs>
      <g>
       <use xlink:href="#m678750c949" x="48.851283" y="255.627335" style="stroke: #000000; stroke-width: 0.8"/>
      </g>
     </g>
     <g id="text_2">
      <text style="font: 10px 'Arial', sans-serif; text-anchor: end" x="41.851283" y="259.206242" transform="rotate(-0 41.851283 259.206242)">−0.2</text>
     </g>
    </g>
    <g id="ytick_2">
     <g id="line2d_2">
      <g>
       <use xlink:href="#m678750c949" x="48.851283" y="221.876127" style="stroke: #000000; stroke-width: 0.8"/>
      </g>
     </g>
     <g id="text_3">
      <text style="font: 10px 'Arial', sans-serif; text-anchor: end" x="41.851283" y="225.455034" transform="rotate(-0 41.851283 225.455034)">−0.1</text>
     </g>
    </g>
    <g id="ytick_3">
     <g id="line2d_3">
      <g>
       <use xlink:href="#m678750c949" x="48.851283" y="188.124919" style="stroke: #000000; stroke-width: 0.8"/>
      </g>
     </g>
     <g id="text_4">
      <text style="font: 10px 'Arial', sans-serif; text-anchor: end" x="41.851283" y="191.703826" transform="rotate(-0 41.851283 191.703826)">0.0</text>
     </g>
    </g>
    <g id="ytick_4">
     <g id="line2d_4">
      <g>
       <use xlink:href="#m678750c949" x="48.851283" y="154.373711" style="stroke: #000000; stroke-width: 0.8"/>
      </g>
     </g>
     <g id="text_5">
      <text style="font: 10px 'Arial', sans-serif; text-anchor: end" x="41.851283" y="157.952618" transform="rotate(-0 41.851283 157.952618)">0.1</text>
     </g>
    </g>
    <g id="ytick_5">
     <g id="line2d_5">
      <g>
       <use xlink:href="#m678750c949" x="48.851283" y="120.622503" style="stroke: #000000; stroke-width: 0.8"/>
      </g>
     </g>
     <g id="text_6">
      <text style="font: 10px 'Arial', sans-serif; text-anchor: end" x="41.851283" y="124.20141" transform="rotate(-0 41.851283 124.20141)">0.2</text>
     </g>
    </g>
    <g id="ytick_6">
     <g id="line2d_6">
      <g>
       <use xlink:href="#m678750c949" x="48.851283" y="86.871295" style="stroke: #000000; stroke-width: 0.8"/>
      </g>
     </g>
     <g id="text_7">
      <text style="font: 10px 'Arial', sans-serif; text-anchor: end" x="41.851283" y="90.450202" transform="rotate(-0 41.851283 90.450202)">0.3</text>
     </g>
    </g>
    <g id="ytick_7">
     <g id="line2d_7">
      <g>
       <use xlink:href="#m678750c949" x="48.851283" y="53.120087" style="stroke: #000000; stroke-width: 0.8"/>
      </g>
     </g>
     <g id="text_8">
      <text style="font: 10px 'Arial', sans-serif; text-anchor: end" x="41.851283" y="56.698994" transform="rotate(-0 41.851283 56.698994)">0.4</text>
     </g>
    </g>
    <g id="ytick_8">
     <g id="line2d_8">
      <g>
       <use xlink:href="#m678750c949" x="48.851283" y="19.368879" style="stroke: #000000; stroke-width: 0.8"/>
      </g>
     </g>
     <g id="text_9">
      <text style="font: 10px 'Arial', sans-serif; text-anchor: end" x="41.851283" y="22.947786" transform="rotate(-0 41.851283 22.947786)">0.5</text>
     </g>
    </g>
    <g id="text_10">
     <text style="font: 10px 'Arial', sans-serif; text-anchor: middle" x="16.005971" y="152.31998" transform="rotate(-90 16.005971 152.31998)">Activity</text>
    </g>
   </g>
   <g id="line2d_9">
    <path d="M 48.851283 226.403546 
L 60.011283 237.081018 
L 71.171283 251.8116 
L 82.331283 256.568277 
L 93.491283 249.454508 
L 104.651283 238.102156 
L 115.811283 226.455356 
L 126.971283 207.559277 
L 138.131283 186.012059 
L 149.291283 189.818946 
L 160.451283 185.343192 
L 171.611283 165.686476 
L 182.771283 153.4637 
L 193.931283 151.337693 
L 205.091283 156.214377 
L 216.251283 144.160232 
L 227.411283 130.157096 
L 238.571283 134.510628 
L 249.731283 145.772532 
L 260.891283 163.77247 
L 272.051283 169.068055 
L 283.211283 166.589373 
L 294.371283 156.38807 
L 305.531283 150.817246 
L 316.691283 166.800351 
L 327.851283 183.205287 
L 339.011283 182.972419 
L 350.171283 194.747752 
L 361.331283 199.754141 
L 372.491283 193.646366 
L 383.651283 154.756246 
L 394.811283 126.995091 
L 405.971283 133.220099 
" clip-path="url(#p11be17ea7f)" style="fill: none; stroke: #1f77b4; stroke-width: 1.5; stroke-linecap: square"/>
   </g>
   <g id="line2d_10">
    <path d="M 48.851283 213.673243 
L 60.011283 224.990045 
L 71.171283 234.879201 
L 82.331283 244.740011 
L 93.491283 251.38705 
L 104.651283 236.734905 
L 115.811283 210.070232 
L 126.971283 185.161965 
L 138.131283 150.984059 
L 149.291283 129.19815 
L 160.451283 128.18883 
L 171.611283 111.526441 
L 182.771283 90.699108 
L 193.931283 86.845089 
L 205.091283 94.40432 
L 216.251283 108.277051 
L 227.411283 110.538259 
L 238.571283 91.267814 
L 249.731283 86.949296 
L 260.891283 82.511905 
L 272.051283 84.875807 
L 283.211283 91.027865 
L 294.371283 101.448459 
L 305.531283 98.490524 
L 316.691283 104.659032 
L 327.851283 122.968912 
L 339.011283 129.879759 
L 350.171283 114.180992 
L 361.331283 85.298622 
L 372.491283 84.401502 
L 383.651283 96.425896 
L 394.811283 91.245504 
L 405.971283 106.385377 
" clip-path="url(#p11be17ea7f)" style="fill: none; stroke: #ff7f0e; stroke-width: 1.5; stroke-linecap: square"/>
   </g>
   <g id="line2d_11">
    <path d="M 82.331283 285.37598 
L 82.331283 19.26398 
" clip-path="url(#p11be17ea7f)" style="fill: none; stroke-dasharray: 5.55,2.4; stroke-dashoffset: 0; stroke: #000000; stroke-opacity: 0.5; stroke-width: 1.5"/>
   </g>
   <g id="line2d_12">
    <path d="M 383.651283 285.37598 
L 383.651283 19.26398 
" clip-path="url(#p11be17ea7f)" style="fill: none; stroke-dasharray: 5.55,2.4; stroke-dashoffset: 0; stroke: #000000; stroke-opacity: 0.5; stroke-width: 1.5"/>
   </g>
   <g id="patch_3">
    <path d="M 48.851283 285.37598 
L 405.971283 285.37598 
" style="fill: none; stroke: #000000; stroke-width: 0.8; stroke-linejoin: miter; stroke-linecap: square"/>
   </g>
   <g id="text_11">
    <text style="font: 6.94px 'Arial', sans-serif" transform="translate(10.097767 321.385533) rotate(-35)">-0.1s Sampling</text>
   </g>
   <g id="text_12">
    <text style="font: 6.94px 'Arial', sans-serif" transform="translate(57.794497 311.430872) rotate(-35)">Sampling</text>
   </g>
   <g id="text_13">
    <text style="font: 6.94px 'Arial', sans-serif" transform="translate(319.037191 339.456682) rotate(-35)">Movement to Lateral Port</text>
   </g>
   <g id="text_14">
    <text style="font: 8.33px 'Arial', sans-serif; text-anchor: middle" x="227.411283" y="13.26398" transform="rotate(-0 227.411283 13.26398)">GP4_23_s7_L50_D250_ALM - Trace:45_GP4_23_s7_L50_D250_ALM (when: correct)</text>
   </g>
   <g id="legend_1">
    <g id="patch_4">
     <path d="M 133.696342 354.133136 
L 321.126224 354.133136 
Q 322.514224 354.133136 322.514224 352.745136 
L 322.514224 343.45638 
Q 322.514224 342.06838 321.126224 342.06838 
L 133.696342 342.06838 
Q 132.308342 342.06838 132.308342 343.45638 
L 132.308342 352.745136 
Q 132.308342 354.133136 133.696342 354.133136 
z
" style="fill: #ffffff; opacity: 0.8; stroke: #cccccc; stroke-linejoin: miter"/>
    </g>
    <g id="line2d_13">
     <path d="M 135.084342 347.467483 
L 142.024342 347.467483 
L 148.964342 347.467483 
" style="fill: none; stroke: #1f77b4; stroke-width: 1.5; stroke-linecap: square"/>
    </g>
    <g id="text_15">
     <text style="font: 6.94px 'Arial', sans-serif; text-anchor: start" x="154.516342" y="349.896483" transform="rotate(-0 154.516342 349.896483)">DecisionRight (88 pts)</text>
    </g>
    <g id="line2d_14">
     <path d="M 236.664255 347.467483 
L 243.604255 347.467483 
L 250.544255 347.467483 
" style="fill: none; stroke: #ff7f0e; stroke-width: 1.5; stroke-linecap: square"/>
    </g>
    <g id="text_16">
     <text style="font: 6.94px 'Arial', sans-serif; text-anchor: start" x="256.096255" y="349.896483" transform="rotate(-0 256.096255 349.896483)">DecisionLeft (87 pts)</text>
    </g>
   </g>
  </g>
 </g>
 <defs>
  <clipPath id="p11be17ea7f">
   <rect x="48.851283" y="19.26398" width="357.12" height="266.112"/>
  </clipPath>
 </defs>
</svg>
