<?xml version="1.0" encoding="utf-8" standalone="no"?>
<!DOCTYPE svg PUBLIC "-//W3C//DTD SVG 1.1//EN"
  "http://www.w3.org/Graphics/SVG/1.1/DTD/svg11.dtd">
<svg xmlns:xlink="http://www.w3.org/1999/xlink" width="413.171283pt" height="361.333136pt" viewBox="0 0 413.171283 361.333136" xmlns="http://www.w3.org/2000/svg" version="1.1">
 <metadata>
  <rdf:RDF xmlns:dc="http://purl.org/dc/elements/1.1/" xmlns:cc="http://creativecommons.org/ns#" xmlns:rdf="http://www.w3.org/1999/02/22-rdf-syntax-ns#">
   <cc:Work>
    <dc:type rdf:resource="http://purl.org/dc/dcmitype/StillImage"/>
    <dc:date>2025-12-29T04:07:05.592319</dc:date>
    <dc:format>image/svg+xml</dc:format>
    <dc:creator>
     <cc:Agent>
      <dc:title>Matplotlib v3.8.0, https://matplotlib.org/</dc:title>
     </cc:Agent>
    </dc:creator>
   </cc:Work>
  </rdf:RDF>
 </metadata>
 <defs>
  <style type="text/css">*{stroke-linejoin: round; stroke-linecap: butt}</style>
 </defs>
 <g id="figure_1">
  <g id="patch_1">
   <path d="M 0 361.333136 
L 413.171283 361.333136 
L 413.171283 -0 
L 0 -0 
z
" style="fill: #ffffff"/>
  </g>
  <g id="axes_1">
   <g id="patch_2">
    <path d="M 48.851283 285.37598 
L 405.971283 285.37598 
L 405.971283 19.26398 
L 48.851283 19.26398 
z
" style="fill: #ffffff"/>
   </g>
   <g id="PolyCollection_1">
    <defs>
     <path id="m12d755031a" d="M 48.851283 -118.593835 
L 48.851283 -105.911255 
L 60.011283 -101.549452 
L 71.171283 -96.385348 
L 82.331283 -93.201003 
L 93.491283 -92.028253 
L 104.651283 -90.566872 
L 115.811283 -89.163371 
L 126.971283 -91.498743 
L 138.131283 -91.693725 
L 149.291283 -90.122707 
L 160.451283 -88.65267 
L 171.611283 -88.950652 
L 182.771283 -92.497119 
L 193.931283 -94.078835 
L 205.091283 -94.466051 
L 216.251283 -92.707188 
L 227.411283 -91.812195 
L 238.571283 -92.550383 
L 249.731283 -95.973507 
L 260.891283 -102.227275 
L 272.051283 -111.737377 
L 283.211283 -125.922275 
L 294.371283 -141.537224 
L 305.531283 -162.749399 
L 316.691283 -185.569635 
L 327.851283 -205.087786 
L 339.011283 -215.791511 
L 350.171283 -221.852393 
L 361.331283 -228.798426 
L 372.491283 -237.366025 
L 383.651283 -256.817654 
L 394.811283 -271.501836 
L 405.971283 -272.738995 
L 405.971283 -328.109972 
L 405.971283 -328.109972 
L 394.811283 -329.973156 
L 383.651283 -316.44979 
L 372.491283 -297.009156 
L 361.331283 -287.41204 
L 350.171283 -277.34891 
L 339.011283 -266.932577 
L 327.851283 -253.422979 
L 316.691283 -230.225472 
L 305.531283 -201.719742 
L 294.371283 -174.974723 
L 283.211283 -156.365388 
L 272.051283 -139.967613 
L 260.891283 -125.988393 
L 249.731283 -116.809343 
L 238.571283 -113.007812 
L 227.411283 -108.265339 
L 216.251283 -103.552183 
L 205.091283 -104.309144 
L 193.931283 -103.958199 
L 182.771283 -102.645247 
L 171.611283 -99.707459 
L 160.451283 -100.258923 
L 149.291283 -102.876105 
L 138.131283 -105.315768 
L 126.971283 -104.876591 
L 115.811283 -102.649996 
L 104.651283 -103.589717 
L 93.491283 -104.223597 
L 82.331283 -104.991375 
L 71.171283 -107.477401 
L 60.011283 -112.96594 
L 48.851283 -118.593835 
z
" style="stroke: #1f77b4; stroke-opacity: 0.2"/>
    </defs>
    <g clip-path="url(#p97f425816c)">
     <use xlink:href="#m12d755031a" x="0" y="361.333136" style="fill: #1f77b4; fill-opacity: 0.2; stroke: #1f77b4; stroke-opacity: 0.2"/>
    </g>
   </g>
   <g id="PolyCollection_2">
    <defs>
     <path id="mc5b6b4c4b1" d="M 48.851283 -133.526797 
L 48.851283 -112.544452 
L 60.011283 -116.544637 
L 71.171283 -116.070312 
L 82.331283 -109.10551 
L 93.491283 -103.102179 
L 104.651283 -99.559522 
L 115.811283 -101.272998 
L 126.971283 -102.089393 
L 138.131283 -97.902996 
L 149.291283 -92.409764 
L 160.451283 -89.032479 
L 171.611283 -88.053156 
L 182.771283 -91.895391 
L 193.931283 -94.124617 
L 205.091283 -91.465538 
L 216.251283 -90.55395 
L 227.411283 -94.391627 
L 238.571283 -99.784945 
L 249.731283 -105.372173 
L 260.891283 -113.683868 
L 272.051283 -127.233614 
L 283.211283 -143.401183 
L 294.371283 -157.573239 
L 305.531283 -176.424693 
L 316.691283 -195.526706 
L 327.851283 -211.732403 
L 339.011283 -228.564631 
L 350.171283 -241.664013 
L 361.331283 -245.413275 
L 372.491283 -238.963165 
L 383.651283 -218.455246 
L 394.811283 -199.284394 
L 405.971283 -183.836061 
L 405.971283 -218.410332 
L 405.971283 -218.410332 
L 394.811283 -237.529927 
L 383.651283 -261.593962 
L 372.491283 -286.35038 
L 361.331283 -294.093508 
L 350.171283 -290.497215 
L 339.011283 -276.031457 
L 327.851283 -257.712346 
L 316.691283 -240.475485 
L 305.531283 -219.327753 
L 294.371283 -196.479109 
L 283.211283 -178.418988 
L 272.051283 -157.026233 
L 260.891283 -137.504926 
L 249.731283 -125.246492 
L 238.571283 -118.29917 
L 227.411283 -111.672432 
L 216.251283 -105.020683 
L 205.091283 -104.980965 
L 193.931283 -107.377341 
L 182.771283 -105.242185 
L 171.611283 -101.205475 
L 160.451283 -106.388325 
L 149.291283 -110.973124 
L 138.131283 -115.473164 
L 126.971283 -119.212948 
L 115.811283 -116.499777 
L 104.651283 -114.377652 
L 93.491283 -118.211463 
L 82.331283 -124.369519 
L 71.171283 -133.72091 
L 60.011283 -137.059959 
L 48.851283 -133.526797 
z
" style="stroke: #ff7f0e; stroke-opacity: 0.2"/>
    </defs>
    <g clip-path="url(#p97f425816c)">
     <use xlink:href="#mc5b6b4c4b1" x="0" y="361.333136" style="fill: #ff7f0e; fill-opacity: 0.2; stroke: #ff7f0e; stroke-opacity: 0.2"/>
    </g>
   </g>
   <g id="matplotlib.axis_1">
    <g id="text_1">
     <text style="font: 10px 'Arial', sans-serif; text-anchor: middle" x="227.411283" y="296.533792" transform="rotate(-0 227.411283 296.533792)">Time</text>
    </g>
   </g>
   <g id="matplotlib.axis_2">
    <g id="ytick_1">
     <g id="line2d_1">
      <defs>
       <path id="m90d5bc4e04" d="M 0 0 
L -3.5 0 
" style="stroke: #000000; stroke-width: 0.8"/>
      </defs>
      <g>
       <use xlink:href="#m90d5bc4e04" x="48.851283" y="276.31935" style="stroke: #000000; stroke-width: 0.8"/>
      </g>
     </g>
     <g id="text_2">
      <text style="font: 10px 'Arial', sans-serif; text-anchor: end" x="41.851283" y="279.898257" transform="rotate(-0 41.851283 279.898257)">−0.4</text>
     </g>
    </g>
    <g id="ytick_2">
     <g id="line2d_2">
      <g>
       <use xlink:href="#m90d5bc4e04" x="48.851283" y="246.591579" style="stroke: #000000; stroke-width: 0.8"/>
      </g>
     </g>
     <g id="text_3">
      <text style="font: 10px 'Arial', sans-serif; text-anchor: end" x="41.851283" y="250.170486" transform="rotate(-0 41.851283 250.170486)">−0.2</text>
     </g>
    </g>
    <g id="ytick_3">
     <g id="line2d_3">
      <g>
       <use xlink:href="#m90d5bc4e04" x="48.851283" y="216.863808" style="stroke: #000000; stroke-width: 0.8"/>
      </g>
     </g>
     <g id="text_4">
      <text style="font: 10px 'Arial', sans-serif; text-anchor: end" x="41.851283" y="220.442715" transform="rotate(-0 41.851283 220.442715)">0.0</text>
     </g>
    </g>
    <g id="ytick_4">
     <g id="line2d_4">
      <g>
       <use xlink:href="#m90d5bc4e04" x="48.851283" y="187.136037" style="stroke: #000000; stroke-width: 0.8"/>
      </g>
     </g>
     <g id="text_5">
      <text style="font: 10px 'Arial', sans-serif; text-anchor: end" x="41.851283" y="190.714944" transform="rotate(-0 41.851283 190.714944)">0.2</text>
     </g>
    </g>
    <g id="ytick_5">
     <g id="line2d_5">
      <g>
       <use xlink:href="#m90d5bc4e04" x="48.851283" y="157.408266" style="stroke: #000000; stroke-width: 0.8"/>
      </g>
     </g>
     <g id="text_6">
      <text style="font: 10px 'Arial', sans-serif; text-anchor: end" x="41.851283" y="160.987173" transform="rotate(-0 41.851283 160.987173)">0.4</text>
     </g>
    </g>
    <g id="ytick_6">
     <g id="line2d_6">
      <g>
       <use xlink:href="#m90d5bc4e04" x="48.851283" y="127.680495" style="stroke: #000000; stroke-width: 0.8"/>
      </g>
     </g>
     <g id="text_7">
      <text style="font: 10px 'Arial', sans-serif; text-anchor: end" x="41.851283" y="131.259402" transform="rotate(-0 41.851283 131.259402)">0.6</text>
     </g>
    </g>
    <g id="ytick_7">
     <g id="line2d_7">
      <g>
       <use xlink:href="#m90d5bc4e04" x="48.851283" y="97.952724" style="stroke: #000000; stroke-width: 0.8"/>
      </g>
     </g>
     <g id="text_8">
      <text style="font: 10px 'Arial', sans-serif; text-anchor: end" x="41.851283" y="101.531631" transform="rotate(-0 41.851283 101.531631)">0.8</text>
     </g>
    </g>
    <g id="ytick_8">
     <g id="line2d_8">
      <g>
       <use xlink:href="#m90d5bc4e04" x="48.851283" y="68.224953" style="stroke: #000000; stroke-width: 0.8"/>
      </g>
     </g>
     <g id="text_9">
      <text style="font: 10px 'Arial', sans-serif; text-anchor: end" x="41.851283" y="71.80386" transform="rotate(-0 41.851283 71.80386)">1.0</text>
     </g>
    </g>
    <g id="ytick_9">
     <g id="line2d_9">
      <g>
       <use xlink:href="#m90d5bc4e04" x="48.851283" y="38.497182" style="stroke: #000000; stroke-width: 0.8"/>
      </g>
     </g>
     <g id="text_10">
      <text style="font: 10px 'Arial', sans-serif; text-anchor: end" x="41.851283" y="42.076089" transform="rotate(-0 41.851283 42.076089)">1.2</text>
     </g>
    </g>
    <g id="text_11">
     <text style="font: 10px 'Arial', sans-serif; text-anchor: middle" x="16.005971" y="152.31998" transform="rotate(-90 16.005971 152.31998)">Activity</text>
    </g>
   </g>
   <g id="line2d_10">
    <path d="M 48.851283 249.080591 
L 60.011283 254.075439 
L 71.171283 259.401762 
L 82.331283 262.236947 
L 93.491283 263.207211 
L 104.651283 264.254842 
L 115.811283 265.426453 
L 126.971283 263.145469 
L 138.131283 262.828389 
L 149.291283 264.83373 
L 160.451283 266.87734 
L 171.611283 267.00408 
L 182.771283 263.761953 
L 193.931283 262.314619 
L 205.091283 261.945538 
L 216.251283 263.20345 
L 227.411283 261.294369 
L 238.571283 258.554039 
L 249.731283 254.94171 
L 260.891283 247.225302 
L 272.051283 235.480641 
L 283.211283 220.189304 
L 294.371283 203.077162 
L 305.531283 179.098565 
L 316.691283 153.435583 
L 327.851283 132.077751 
L 339.011283 119.971092 
L 350.171283 111.732484 
L 361.331283 103.227903 
L 372.491283 94.145546 
L 383.651283 74.699418 
L 394.811283 60.595644 
L 405.971283 60.908653 
" clip-path="url(#p97f425816c)" style="fill: none; stroke: #1f77b4; stroke-width: 1.5; stroke-linecap: square"/>
   </g>
   <g id="line2d_11">
    <path d="M 48.851283 238.297511 
L 60.011283 234.530838 
L 71.171283 236.437525 
L 82.331283 244.595621 
L 93.491283 250.676316 
L 104.651283 254.364549 
L 115.811283 252.44675 
L 126.971283 250.681966 
L 138.131283 254.645056 
L 149.291283 259.641692 
L 160.451283 263.622734 
L 171.611283 266.703821 
L 182.771283 262.764348 
L 193.931283 260.582157 
L 205.091283 263.109884 
L 216.251283 263.545819 
L 227.411283 258.301107 
L 238.571283 252.291078 
L 249.731283 246.023803 
L 260.891283 235.73874 
L 272.051283 219.203212 
L 283.211283 200.423051 
L 294.371283 184.30696 
L 305.531283 163.456913 
L 316.691283 143.332041 
L 327.851283 126.610761 
L 339.011283 109.035092 
L 350.171283 95.252522 
L 361.331283 91.579744 
L 372.491283 98.676363 
L 383.651283 121.308532 
L 394.811283 142.925976 
L 405.971283 160.209939 
" clip-path="url(#p97f425816c)" style="fill: none; stroke: #ff7f0e; stroke-width: 1.5; stroke-linecap: square"/>
   </g>
   <g id="line2d_12">
    <path d="M 82.331283 285.37598 
L 82.331283 19.26398 
" clip-path="url(#p97f425816c)" style="fill: none; stroke-dasharray: 5.55,2.4; stroke-dashoffset: 0; stroke: #000000; stroke-opacity: 0.5; stroke-width: 1.5"/>
   </g>
   <g id="line2d_13">
    <path d="M 383.651283 285.37598 
L 383.651283 19.26398 
" clip-path="url(#p97f425816c)" style="fill: none; stroke-dasharray: 5.55,2.4; stroke-dashoffset: 0; stroke: #000000; stroke-opacity: 0.5; stroke-width: 1.5"/>
   </g>
   <g id="patch_3">
    <path d="M 48.851283 285.37598 
L 405.971283 285.37598 
" style="fill: none; stroke: #000000; stroke-width: 0.8; stroke-linejoin: miter; stroke-linecap: square"/>
   </g>
   <g id="text_12">
    <text style="font: 6.94px 'Arial', sans-serif" transform="translate(10.097767 321.385533) rotate(-35)">-0.1s Sampling</text>
   </g>
   <g id="text_13">
    <text style="font: 6.94px 'Arial', sans-serif" transform="translate(57.794497 311.430872) rotate(-35)">Sampling</text>
   </g>
   <g id="text_14">
    <text style="font: 6.94px 'Arial', sans-serif" transform="translate(319.037191 339.456682) rotate(-35)">Movement to Lateral Port</text>
   </g>
   <g id="text_15">
    <text style="font: 8.33px 'Arial', sans-serif; text-anchor: middle" x="227.411283" y="13.26398" transform="rotate(-0 227.411283 13.26398)">GP4_23_s7_L50_D250_ALM - Trace:4_GP4_23_s7_L50_D250_ALM (when: correct)</text>
   </g>
   <g id="legend_1">
    <g id="patch_4">
     <path d="M 133.696342 354.133136 
L 321.126224 354.133136 
Q 322.514224 354.133136 322.514224 352.745136 
L 322.514224 343.45638 
Q 322.514224 342.06838 321.126224 342.06838 
L 133.696342 342.06838 
Q 132.308342 342.06838 132.308342 343.45638 
L 132.308342 352.745136 
Q 132.308342 354.133136 133.696342 354.133136 
z
" style="fill: #ffffff; opacity: 0.8; stroke: #cccccc; stroke-linejoin: miter"/>
    </g>
    <g id="line2d_14">
     <path d="M 135.084342 347.467483 
L 142.024342 347.467483 
L 148.964342 347.467483 
" style="fill: none; stroke: #1f77b4; stroke-width: 1.5; stroke-linecap: square"/>
    </g>
    <g id="text_16">
     <text style="font: 6.94px 'Arial', sans-serif; text-anchor: start" x="154.516342" y="349.896483" transform="rotate(-0 154.516342 349.896483)">DecisionRight (88 pts)</text>
    </g>
    <g id="line2d_15">
     <path d="M 236.664255 347.467483 
L 243.604255 347.467483 
L 250.544255 347.467483 
" style="fill: none; stroke: #ff7f0e; stroke-width: 1.5; stroke-linecap: square"/>
    </g>
    <g id="text_17">
     <text style="font: 6.94px 'Arial', sans-serif; text-anchor: start" x="256.096255" y="349.896483" transform="rotate(-0 256.096255 349.896483)">DecisionLeft (87 pts)</text>
    </g>
   </g>
  </g>
 </g>
 <defs>
  <clipPath id="p97f425816c">
   <rect x="48.851283" y="19.26398" width="357.12" height="266.112"/>
  </clipPath>
 </defs>
</svg>
