<?xml version="1.0" encoding="utf-8" standalone="no"?>
<!DOCTYPE svg PUBLIC "-//W3C//DTD SVG 1.1//EN"
  "http://www.w3.org/Graphics/SVG/1.1/DTD/svg11.dtd">
<svg xmlns:xlink="http://www.w3.org/1999/xlink" width="413.171283pt" height="361.333136pt" viewBox="0 0 413.171283 361.333136" xmlns="http://www.w3.org/2000/svg" version="1.1">
 <metadata>
  <rdf:RDF xmlns:dc="http://purl.org/dc/elements/1.1/" xmlns:cc="http://creativecommons.org/ns#" xmlns:rdf="http://www.w3.org/1999/02/22-rdf-syntax-ns#">
   <cc:Work>
    <dc:type rdf:resource="http://purl.org/dc/dcmitype/StillImage"/>
    <dc:date>2025-12-29T04:07:10.480688</dc:date>
    <dc:format>image/svg+xml</dc:format>
    <dc:creator>
     <cc:Agent>
      <dc:title>Matplotlib v3.8.0, https://matplotlib.org/</dc:title>
     </cc:Agent>
    </dc:creator>
   </cc:Work>
  </rdf:RDF>
 </metadata>
 <defs>
  <style type="text/css">*{stroke-linejoin: round; stroke-linecap: butt}</style>
 </defs>
 <g id="figure_1">
  <g id="patch_1">
   <path d="M 0 361.333136 
L 413.171283 361.333136 
L 413.171283 -0 
L 0 -0 
z
" style="fill: #ffffff"/>
  </g>
  <g id="axes_1">
   <g id="patch_2">
    <path d="M 48.851283 285.37598 
L 405.971283 285.37598 
L 405.971283 19.26398 
L 48.851283 19.26398 
z
" style="fill: #ffffff"/>
   </g>
   <g id="PolyCollection_1">
    <defs>
     <path id="m98242fea62" d="M 48.851283 -98.669604 
L 48.851283 -92.227364 
L 60.011283 -91.063109 
L 71.171283 -89.43275 
L 82.331283 -88.146287 
L 93.491283 -88.053156 
L 104.651283 -88.454517 
L 115.811283 -88.575923 
L 126.971283 -89.29575 
L 138.131283 -90.107147 
L 149.291283 -90.725133 
L 160.451283 -92.035422 
L 171.611283 -94.259273 
L 182.771283 -96.364481 
L 193.931283 -98.885048 
L 205.091283 -103.022503 
L 216.251283 -108.735575 
L 227.411283 -115.651503 
L 238.571283 -124.148703 
L 249.731283 -132.838515 
L 260.891283 -140.363916 
L 272.051283 -147.13898 
L 283.211283 -153.695474 
L 294.371283 -157.956892 
L 305.531283 -161.543853 
L 316.691283 -163.506993 
L 327.851283 -164.677187 
L 339.011283 -162.514841 
L 350.171283 -159.028905 
L 361.331283 -159.094881 
L 372.491283 -170.973617 
L 383.651283 -197.980639 
L 394.811283 -211.720747 
L 405.971283 -210.0548 
L 405.971283 -234.355167 
L 405.971283 -234.355167 
L 394.811283 -236.949855 
L 383.651283 -221.271408 
L 372.491283 -190.075165 
L 361.331283 -176.090679 
L 350.171283 -175.304719 
L 339.011283 -178.752576 
L 327.851283 -181.434485 
L 316.691283 -180.678151 
L 305.531283 -179.220548 
L 294.371283 -176.200761 
L 283.211283 -172.149847 
L 272.051283 -163.775979 
L 260.891283 -155.350038 
L 249.731283 -147.408315 
L 238.571283 -137.52061 
L 227.411283 -127.209507 
L 216.251283 -118.900777 
L 205.091283 -111.095867 
L 193.931283 -104.091511 
L 182.771283 -101.127533 
L 171.611283 -99.667362 
L 160.451283 -96.653006 
L 149.291283 -94.420781 
L 138.131283 -93.712761 
L 126.971283 -93.189667 
L 115.811283 -92.696053 
L 104.651283 -92.893833 
L 93.491283 -93.131564 
L 82.331283 -93.835429 
L 71.171283 -95.391728 
L 60.011283 -97.291262 
L 48.851283 -98.669604 
z
" style="stroke: #1f77b4; stroke-opacity: 0.2"/>
    </defs>
    <g clip-path="url(#p746f3650c5)">
     <use xlink:href="#m98242fea62" x="0" y="361.333136" style="fill: #1f77b4; fill-opacity: 0.2; stroke: #1f77b4; stroke-opacity: 0.2"/>
    </g>
   </g>
   <g id="PolyCollection_2">
    <defs>
     <path id="m12827d48a6" d="M 48.851283 -105.116107 
L 48.851283 -97.730848 
L 60.011283 -96.180907 
L 71.171283 -94.533919 
L 82.331283 -92.532641 
L 93.491283 -91.889636 
L 104.651283 -91.578053 
L 115.811283 -91.051872 
L 126.971283 -90.838399 
L 138.131283 -89.90145 
L 149.291283 -89.661422 
L 160.451283 -91.885448 
L 171.611283 -96.164824 
L 182.771283 -101.584661 
L 193.931283 -106.13495 
L 205.091283 -113.760209 
L 216.251283 -123.124471 
L 227.411283 -132.362888 
L 238.571283 -142.543173 
L 249.731283 -152.895368 
L 260.891283 -160.939082 
L 272.051283 -165.189408 
L 283.211283 -170.722028 
L 294.371283 -179.665618 
L 305.531283 -187.781974 
L 316.691283 -195.872625 
L 327.851283 -206.265667 
L 339.011283 -211.672253 
L 350.171283 -215.612297 
L 361.331283 -225.77805 
L 372.491283 -247.668559 
L 383.651283 -279.324996 
L 394.811283 -295.242006 
L 405.971283 -296.800567 
L 405.971283 -329.973156 
L 405.971283 -329.973156 
L 394.811283 -327.670162 
L 383.651283 -310.062459 
L 372.491283 -276.324541 
L 361.331283 -253.037661 
L 350.171283 -241.876623 
L 339.011283 -237.028326 
L 327.851283 -230.117137 
L 316.691283 -217.639603 
L 305.531283 -209.30971 
L 294.371283 -200.989448 
L 283.211283 -190.051688 
L 272.051283 -183.148336 
L 260.891283 -179.65311 
L 249.731283 -170.772916 
L 238.571283 -157.74303 
L 227.411283 -145.336385 
L 216.251283 -135.043165 
L 205.091283 -124.011733 
L 193.931283 -114.248239 
L 182.771283 -107.202622 
L 171.611283 -100.32166 
L 160.451283 -95.467404 
L 149.291283 -92.960372 
L 138.131283 -93.148566 
L 126.971283 -94.489073 
L 115.811283 -95.46821 
L 104.651283 -96.527992 
L 93.491283 -97.756551 
L 82.331283 -99.318373 
L 71.171283 -102.03201 
L 60.011283 -103.700287 
L 48.851283 -105.116107 
z
" style="stroke: #ff7f0e; stroke-opacity: 0.2"/>
    </defs>
    <g clip-path="url(#p746f3650c5)">
     <use xlink:href="#m12827d48a6" x="0" y="361.333136" style="fill: #ff7f0e; fill-opacity: 0.2; stroke: #ff7f0e; stroke-opacity: 0.2"/>
    </g>
   </g>
   <g id="matplotlib.axis_1">
    <g id="text_1">
     <text style="font: 10px 'Arial', sans-serif; text-anchor: middle" x="227.411283" y="296.533792" transform="rotate(-0 227.411283 296.533792)">Time</text>
    </g>
   </g>
   <g id="matplotlib.axis_2">
    <g id="ytick_1">
     <g id="line2d_1">
      <defs>
       <path id="mb5f1a61378" d="M 0 0 
L -3.5 0 
" style="stroke: #000000; stroke-width: 0.8"/>
      </defs>
      <g>
       <use xlink:href="#mb5f1a61378" x="48.851283" y="278.241138" style="stroke: #000000; stroke-width: 0.8"/>
      </g>
     </g>
     <g id="text_2">
      <text style="font: 10px 'Arial', sans-serif; text-anchor: end" x="41.851283" y="281.820044" transform="rotate(-0 41.851283 281.820044)">−0.5</text>
     </g>
    </g>
    <g id="ytick_2">
     <g id="line2d_2">
      <g>
       <use xlink:href="#mb5f1a61378" x="48.851283" y="240.483805" style="stroke: #000000; stroke-width: 0.8"/>
      </g>
     </g>
     <g id="text_3">
      <text style="font: 10px 'Arial', sans-serif; text-anchor: end" x="41.851283" y="244.062711" transform="rotate(-0 41.851283 244.062711)">0.0</text>
     </g>
    </g>
    <g id="ytick_3">
     <g id="line2d_3">
      <g>
       <use xlink:href="#mb5f1a61378" x="48.851283" y="202.726472" style="stroke: #000000; stroke-width: 0.8"/>
      </g>
     </g>
     <g id="text_4">
      <text style="font: 10px 'Arial', sans-serif; text-anchor: end" x="41.851283" y="206.305378" transform="rotate(-0 41.851283 206.305378)">0.5</text>
     </g>
    </g>
    <g id="ytick_4">
     <g id="line2d_4">
      <g>
       <use xlink:href="#mb5f1a61378" x="48.851283" y="164.969139" style="stroke: #000000; stroke-width: 0.8"/>
      </g>
     </g>
     <g id="text_5">
      <text style="font: 10px 'Arial', sans-serif; text-anchor: end" x="41.851283" y="168.548045" transform="rotate(-0 41.851283 168.548045)">1.0</text>
     </g>
    </g>
    <g id="ytick_5">
     <g id="line2d_5">
      <g>
       <use xlink:href="#mb5f1a61378" x="48.851283" y="127.211806" style="stroke: #000000; stroke-width: 0.8"/>
      </g>
     </g>
     <g id="text_6">
      <text style="font: 10px 'Arial', sans-serif; text-anchor: end" x="41.851283" y="130.790712" transform="rotate(-0 41.851283 130.790712)">1.5</text>
     </g>
    </g>
    <g id="ytick_6">
     <g id="line2d_6">
      <g>
       <use xlink:href="#mb5f1a61378" x="48.851283" y="89.454473" style="stroke: #000000; stroke-width: 0.8"/>
      </g>
     </g>
     <g id="text_7">
      <text style="font: 10px 'Arial', sans-serif; text-anchor: end" x="41.851283" y="93.033379" transform="rotate(-0 41.851283 93.033379)">2.0</text>
     </g>
    </g>
    <g id="ytick_7">
     <g id="line2d_7">
      <g>
       <use xlink:href="#mb5f1a61378" x="48.851283" y="51.69714" style="stroke: #000000; stroke-width: 0.8"/>
      </g>
     </g>
     <g id="text_8">
      <text style="font: 10px 'Arial', sans-serif; text-anchor: end" x="41.851283" y="55.276046" transform="rotate(-0 41.851283 55.276046)">2.5</text>
     </g>
    </g>
    <g id="text_9">
     <text style="font: 10px 'Arial', sans-serif; text-anchor: middle" x="16.005971" y="152.31998" transform="rotate(-90 16.005971 152.31998)">Activity</text>
    </g>
   </g>
   <g id="line2d_8">
    <path d="M 48.851283 265.884652 
L 60.011283 267.155951 
L 71.171283 268.920897 
L 82.331283 270.342278 
L 93.491283 270.740776 
L 104.651283 270.658961 
L 115.811283 270.697148 
L 126.971283 270.090427 
L 138.131283 269.423182 
L 149.291283 268.760179 
L 160.451283 266.988922 
L 171.611283 264.369818 
L 182.771283 262.587129 
L 193.931283 259.844857 
L 205.091283 254.273951 
L 216.251283 247.51496 
L 227.411283 239.902631 
L 238.571283 230.498479 
L 249.731283 221.209721 
L 260.891283 213.476159 
L 272.051283 205.875657 
L 283.211283 198.410475 
L 294.371283 194.25431 
L 305.531283 190.950936 
L 316.691283 189.240564 
L 327.851283 188.2773 
L 339.011283 190.699427 
L 350.171283 194.166324 
L 361.331283 193.740356 
L 372.491283 180.808745 
L 383.651283 151.707112 
L 394.811283 136.997835 
L 405.971283 139.128152 
" clip-path="url(#p746f3650c5)" style="fill: none; stroke: #1f77b4; stroke-width: 1.5; stroke-linecap: square"/>
   </g>
   <g id="line2d_9">
    <path d="M 48.851283 259.909658 
L 60.011283 261.392539 
L 71.171283 263.050172 
L 82.331283 265.407629 
L 93.491283 266.510042 
L 104.651283 267.280114 
L 115.811283 268.073095 
L 126.971283 268.6694 
L 138.131283 269.808128 
L 149.291283 270.022239 
L 160.451283 267.65671 
L 171.611283 263.089894 
L 182.771283 256.939494 
L 193.931283 251.141542 
L 205.091283 242.447165 
L 216.251283 232.249318 
L 227.411283 222.4835 
L 238.571283 211.190035 
L 249.731283 199.498994 
L 260.891283 191.03704 
L 272.051283 187.164264 
L 283.211283 180.946278 
L 294.371283 171.005603 
L 305.531283 162.787294 
L 316.691283 154.57702 
L 327.851283 143.141734 
L 339.011283 136.982847 
L 350.171283 132.588676 
L 361.331283 121.92528 
L 372.491283 99.33659 
L 383.651283 66.639408 
L 394.811283 49.877052 
L 405.971283 47.946274 
" clip-path="url(#p746f3650c5)" style="fill: none; stroke: #ff7f0e; stroke-width: 1.5; stroke-linecap: square"/>
   </g>
   <g id="line2d_10">
    <path d="M 82.331283 285.37598 
L 82.331283 19.26398 
" clip-path="url(#p746f3650c5)" style="fill: none; stroke-dasharray: 5.55,2.4; stroke-dashoffset: 0; stroke: #000000; stroke-opacity: 0.5; stroke-width: 1.5"/>
   </g>
   <g id="line2d_11">
    <path d="M 383.651283 285.37598 
L 383.651283 19.26398 
" clip-path="url(#p746f3650c5)" style="fill: none; stroke-dasharray: 5.55,2.4; stroke-dashoffset: 0; stroke: #000000; stroke-opacity: 0.5; stroke-width: 1.5"/>
   </g>
   <g id="patch_3">
    <path d="M 48.851283 285.37598 
L 405.971283 285.37598 
" style="fill: none; stroke: #000000; stroke-width: 0.8; stroke-linejoin: miter; stroke-linecap: square"/>
   </g>
   <g id="text_10">
    <text style="font: 6.94px 'Arial', sans-serif" transform="translate(10.097767 321.385533) rotate(-35)">-0.1s Sampling</text>
   </g>
   <g id="text_11">
    <text style="font: 6.94px 'Arial', sans-serif" transform="translate(57.794497 311.430872) rotate(-35)">Sampling</text>
   </g>
   <g id="text_12">
    <text style="font: 6.94px 'Arial', sans-serif" transform="translate(319.037191 339.456682) rotate(-35)">Movement to Lateral Port</text>
   </g>
   <g id="text_13">
    <text style="font: 8.33px 'Arial', sans-serif; text-anchor: middle" x="227.411283" y="13.26398" transform="rotate(-0 227.411283 13.26398)">GP4_23_s7_L50_D250_ALM - Trace:50_GP4_23_s7_L50_D250_ALM (when: correct)</text>
   </g>
   <g id="legend_1">
    <g id="patch_4">
     <path d="M 133.696342 354.133136 
L 321.126224 354.133136 
Q 322.514224 354.133136 322.514224 352.745136 
L 322.514224 343.45638 
Q 322.514224 342.06838 321.126224 342.06838 
L 133.696342 342.06838 
Q 132.308342 342.06838 132.308342 343.45638 
L 132.308342 352.745136 
Q 132.308342 354.133136 133.696342 354.133136 
z
" style="fill: #ffffff; opacity: 0.8; stroke: #cccccc; stroke-linejoin: miter"/>
    </g>
    <g id="line2d_12">
     <path d="M 135.084342 347.467483 
L 142.024342 347.467483 
L 148.964342 347.467483 
" style="fill: none; stroke: #1f77b4; stroke-width: 1.5; stroke-linecap: square"/>
    </g>
    <g id="text_14">
     <text style="font: 6.94px 'Arial', sans-serif; text-anchor: start" x="154.516342" y="349.896483" transform="rotate(-0 154.516342 349.896483)">DecisionRight (88 pts)</text>
    </g>
    <g id="line2d_13">
     <path d="M 236.664255 347.467483 
L 243.604255 347.467483 
L 250.544255 347.467483 
" style="fill: none; stroke: #ff7f0e; stroke-width: 1.5; stroke-linecap: square"/>
    </g>
    <g id="text_15">
     <text style="font: 6.94px 'Arial', sans-serif; text-anchor: start" x="256.096255" y="349.896483" transform="rotate(-0 256.096255 349.896483)">DecisionLeft (87 pts)</text>
    </g>
   </g>
  </g>
 </g>
 <defs>
  <clipPath id="p746f3650c5">
   <rect x="48.851283" y="19.26398" width="357.12" height="266.112"/>
  </clipPath>
 </defs>
</svg>
