<?xml version="1.0" encoding="utf-8" standalone="no"?>
<!DOCTYPE svg PUBLIC "-//W3C//DTD SVG 1.1//EN"
  "http://www.w3.org/Graphics/SVG/1.1/DTD/svg11.dtd">
<svg xmlns:xlink="http://www.w3.org/1999/xlink" width="413.171283pt" height="361.333136pt" viewBox="0 0 413.171283 361.333136" xmlns="http://www.w3.org/2000/svg" version="1.1">
 <metadata>
  <rdf:RDF xmlns:dc="http://purl.org/dc/elements/1.1/" xmlns:cc="http://creativecommons.org/ns#" xmlns:rdf="http://www.w3.org/1999/02/22-rdf-syntax-ns#">
   <cc:Work>
    <dc:type rdf:resource="http://purl.org/dc/dcmitype/StillImage"/>
    <dc:date>2025-12-29T04:07:08.696158</dc:date>
    <dc:format>image/svg+xml</dc:format>
    <dc:creator>
     <cc:Agent>
      <dc:title>Matplotlib v3.8.0, https://matplotlib.org/</dc:title>
     </cc:Agent>
    </dc:creator>
   </cc:Work>
  </rdf:RDF>
 </metadata>
 <defs>
  <style type="text/css">*{stroke-linejoin: round; stroke-linecap: butt}</style>
 </defs>
 <g id="figure_1">
  <g id="patch_1">
   <path d="M 0 361.333136 
L 413.171283 361.333136 
L 413.171283 -0 
L 0 -0 
z
" style="fill: #ffffff"/>
  </g>
  <g id="axes_1">
   <g id="patch_2">
    <path d="M 48.851283 285.37598 
L 405.971283 285.37598 
L 405.971283 19.26398 
L 48.851283 19.26398 
z
" style="fill: #ffffff"/>
   </g>
   <g id="PolyCollection_1">
    <defs>
     <path id="mc277574fd0" d="M 48.851283 -171.982892 
L 48.851283 -123.697569 
L 60.011283 -125.210561 
L 71.171283 -122.189529 
L 82.331283 -116.706267 
L 93.491283 -109.621851 
L 104.651283 -103.931993 
L 115.811283 -99.706487 
L 126.971283 -97.710636 
L 138.131283 -94.17165 
L 149.291283 -89.811668 
L 160.451283 -88.053156 
L 171.611283 -88.539887 
L 182.771283 -91.368235 
L 193.931283 -96.820211 
L 205.091283 -99.411405 
L 216.251283 -100.381445 
L 227.411283 -105.807782 
L 238.571283 -109.75647 
L 249.731283 -111.600344 
L 260.891283 -114.854921 
L 272.051283 -115.902338 
L 283.211283 -113.968297 
L 294.371283 -108.275661 
L 305.531283 -103.793745 
L 316.691283 -107.514498 
L 327.851283 -107.110524 
L 339.011283 -101.822127 
L 350.171283 -99.30259 
L 361.331283 -98.499178 
L 372.491283 -104.399761 
L 383.651283 -115.963243 
L 394.811283 -119.709309 
L 405.971283 -116.70082 
L 405.971283 -144.360407 
L 405.971283 -144.360407 
L 394.811283 -146.89834 
L 383.651283 -140.845043 
L 372.491283 -124.257546 
L 361.331283 -116.161729 
L 350.171283 -116.707019 
L 339.011283 -117.889297 
L 327.851283 -126.870079 
L 316.691283 -129.41596 
L 305.531283 -125.696301 
L 294.371283 -132.328904 
L 283.211283 -140.115573 
L 272.051283 -145.016605 
L 260.891283 -145.928551 
L 249.731283 -141.189264 
L 238.571283 -139.18408 
L 227.411283 -134.51721 
L 216.251283 -125.338497 
L 205.091283 -122.408432 
L 193.931283 -119.175932 
L 182.771283 -109.425797 
L 171.611283 -104.126095 
L 160.451283 -103.436448 
L 149.291283 -107.078239 
L 138.131283 -113.536179 
L 126.971283 -119.729514 
L 115.811283 -125.608367 
L 104.651283 -134.304419 
L 93.491283 -143.486564 
L 82.331283 -155.259633 
L 71.171283 -166.989906 
L 60.011283 -173.376712 
L 48.851283 -171.982892 
z
" style="stroke: #1f77b4; stroke-opacity: 0.2"/>
    </defs>
    <g clip-path="url(#pde2ebceedd)">
     <use xlink:href="#mc277574fd0" x="0" y="361.333136" style="fill: #1f77b4; fill-opacity: 0.2; stroke: #1f77b4; stroke-opacity: 0.2"/>
    </g>
   </g>
   <g id="PolyCollection_2">
    <defs>
     <path id="ma915c6563e" d="M 48.851283 -283.170422 
L 48.851283 -218.07636 
L 60.011283 -219.509004 
L 71.171283 -211.811023 
L 82.331283 -200.150844 
L 93.491283 -194.476388 
L 104.651283 -176.574305 
L 115.811283 -152.184741 
L 126.971283 -129.994101 
L 138.131283 -117.046986 
L 149.291283 -113.520791 
L 160.451283 -114.161616 
L 171.611283 -117.456164 
L 182.771283 -120.076721 
L 193.931283 -121.250853 
L 205.091283 -119.796464 
L 216.251283 -119.445803 
L 227.411283 -120.987055 
L 238.571283 -127.586204 
L 249.731283 -138.859688 
L 260.891283 -147.239755 
L 272.051283 -145.266649 
L 283.211283 -139.940391 
L 294.371283 -139.76938 
L 305.531283 -138.608202 
L 316.691283 -136.904504 
L 327.851283 -136.203942 
L 339.011283 -136.239338 
L 350.171283 -139.557722 
L 361.331283 -149.475081 
L 372.491283 -173.280674 
L 383.651283 -212.670924 
L 394.811283 -247.106422 
L 405.971283 -274.482358 
L 405.971283 -329.973156 
L 405.971283 -329.973156 
L 394.811283 -303.764702 
L 383.651283 -264.770205 
L 372.491283 -213.955133 
L 361.331283 -181.620915 
L 350.171283 -167.215701 
L 339.011283 -162.475266 
L 327.851283 -162.475608 
L 316.691283 -163.708216 
L 305.531283 -165.977396 
L 294.371283 -167.721975 
L 283.211283 -170.181406 
L 272.051283 -179.931386 
L 260.891283 -182.147295 
L 249.731283 -170.858875 
L 238.571283 -156.117589 
L 227.411283 -145.58068 
L 216.251283 -141.173038 
L 205.091283 -143.233554 
L 193.931283 -148.228015 
L 182.771283 -148.152937 
L 171.611283 -144.954551 
L 160.451283 -142.768541 
L 149.291283 -143.34059 
L 138.131283 -148.854611 
L 126.971283 -167.728694 
L 115.811283 -198.910678 
L 104.651283 -231.63677 
L 93.491283 -255.124648 
L 82.331283 -263.09639 
L 71.171283 -278.011464 
L 60.011283 -287.281847 
L 48.851283 -283.170422 
z
" style="stroke: #ff7f0e; stroke-opacity: 0.2"/>
    </defs>
    <g clip-path="url(#pde2ebceedd)">
     <use xlink:href="#ma915c6563e" x="0" y="361.333136" style="fill: #ff7f0e; fill-opacity: 0.2; stroke: #ff7f0e; stroke-opacity: 0.2"/>
    </g>
   </g>
   <g id="matplotlib.axis_1">
    <g id="text_1">
     <text style="font: 10px 'Arial', sans-serif; text-anchor: middle" x="227.411283" y="296.533792" transform="rotate(-0 227.411283 296.533792)">Time</text>
    </g>
   </g>
   <g id="matplotlib.axis_2">
    <g id="ytick_1">
     <g id="line2d_1">
      <defs>
       <path id="m27a4aad1b5" d="M 0 0 
L -3.5 0 
" style="stroke: #000000; stroke-width: 0.8"/>
      </defs>
      <g>
       <use xlink:href="#m27a4aad1b5" x="48.851283" y="278.281963" style="stroke: #000000; stroke-width: 0.8"/>
      </g>
     </g>
     <g id="text_2">
      <text style="font: 10px 'Arial', sans-serif; text-anchor: end" x="41.851283" y="281.860869" transform="rotate(-0 41.851283 281.860869)">−0.2</text>
     </g>
    </g>
    <g id="ytick_2">
     <g id="line2d_2">
      <g>
       <use xlink:href="#m27a4aad1b5" x="48.851283" y="245.492781" style="stroke: #000000; stroke-width: 0.8"/>
      </g>
     </g>
     <g id="text_3">
      <text style="font: 10px 'Arial', sans-serif; text-anchor: end" x="41.851283" y="249.071687" transform="rotate(-0 41.851283 249.071687)">0.0</text>
     </g>
    </g>
    <g id="ytick_3">
     <g id="line2d_3">
      <g>
       <use xlink:href="#m27a4aad1b5" x="48.851283" y="212.7036" style="stroke: #000000; stroke-width: 0.8"/>
      </g>
     </g>
     <g id="text_4">
      <text style="font: 10px 'Arial', sans-serif; text-anchor: end" x="41.851283" y="216.282506" transform="rotate(-0 41.851283 216.282506)">0.2</text>
     </g>
    </g>
    <g id="ytick_4">
     <g id="line2d_4">
      <g>
       <use xlink:href="#m27a4aad1b5" x="48.851283" y="179.914418" style="stroke: #000000; stroke-width: 0.8"/>
      </g>
     </g>
     <g id="text_5">
      <text style="font: 10px 'Arial', sans-serif; text-anchor: end" x="41.851283" y="183.493324" transform="rotate(-0 41.851283 183.493324)">0.4</text>
     </g>
    </g>
    <g id="ytick_5">
     <g id="line2d_5">
      <g>
       <use xlink:href="#m27a4aad1b5" x="48.851283" y="147.125236" style="stroke: #000000; stroke-width: 0.8"/>
      </g>
     </g>
     <g id="text_6">
      <text style="font: 10px 'Arial', sans-serif; text-anchor: end" x="41.851283" y="150.704142" transform="rotate(-0 41.851283 150.704142)">0.6</text>
     </g>
    </g>
    <g id="ytick_6">
     <g id="line2d_6">
      <g>
       <use xlink:href="#m27a4aad1b5" x="48.851283" y="114.336055" style="stroke: #000000; stroke-width: 0.8"/>
      </g>
     </g>
     <g id="text_7">
      <text style="font: 10px 'Arial', sans-serif; text-anchor: end" x="41.851283" y="117.914961" transform="rotate(-0 41.851283 117.914961)">0.8</text>
     </g>
    </g>
    <g id="ytick_7">
     <g id="line2d_7">
      <g>
       <use xlink:href="#m27a4aad1b5" x="48.851283" y="81.546873" style="stroke: #000000; stroke-width: 0.8"/>
      </g>
     </g>
     <g id="text_8">
      <text style="font: 10px 'Arial', sans-serif; text-anchor: end" x="41.851283" y="85.125779" transform="rotate(-0 41.851283 85.125779)">1.0</text>
     </g>
    </g>
    <g id="ytick_8">
     <g id="line2d_8">
      <g>
       <use xlink:href="#m27a4aad1b5" x="48.851283" y="48.757691" style="stroke: #000000; stroke-width: 0.8"/>
      </g>
     </g>
     <g id="text_9">
      <text style="font: 10px 'Arial', sans-serif; text-anchor: end" x="41.851283" y="52.336597" transform="rotate(-0 41.851283 52.336597)">1.2</text>
     </g>
    </g>
    <g id="text_10">
     <text style="font: 10px 'Arial', sans-serif; text-anchor: middle" x="16.005971" y="152.31998" transform="rotate(-90 16.005971 152.31998)">Activity</text>
    </g>
   </g>
   <g id="line2d_9">
    <path d="M 48.851283 213.492905 
L 60.011283 212.039498 
L 71.171283 216.743418 
L 82.331283 225.350187 
L 93.491283 234.778928 
L 104.651283 242.214929 
L 115.811283 248.675708 
L 126.971283 252.613061 
L 138.131283 257.479222 
L 149.291283 262.888182 
L 160.451283 265.588334 
L 171.611283 265.000145 
L 182.771283 260.936121 
L 193.931283 253.335064 
L 205.091283 250.423218 
L 216.251283 248.473165 
L 227.411283 241.170639 
L 238.571283 236.862861 
L 249.731283 234.938331 
L 260.891283 230.9414 
L 272.051283 230.873664 
L 283.211283 234.291201 
L 294.371283 241.030853 
L 305.531283 246.588113 
L 316.691283 242.867907 
L 327.851283 244.342835 
L 339.011283 251.477424 
L 350.171283 253.328331 
L 361.331283 254.002682 
L 372.491283 247.004483 
L 383.651283 232.928992 
L 394.811283 228.029311 
L 405.971283 230.802522 
" clip-path="url(#pde2ebceedd)" style="fill: none; stroke: #1f77b4; stroke-width: 1.5; stroke-linecap: square"/>
   </g>
   <g id="line2d_10">
    <path d="M 48.851283 110.709745 
L 60.011283 107.93771 
L 71.171283 116.421892 
L 82.331283 129.709519 
L 93.491283 136.532618 
L 104.651283 157.227598 
L 115.811283 185.785426 
L 126.971283 212.471738 
L 138.131283 228.382337 
L 149.291283 232.902445 
L 160.451283 232.868057 
L 171.611283 230.127779 
L 182.771283 227.218308 
L 193.931283 226.593701 
L 205.091283 229.818128 
L 216.251283 231.023715 
L 227.411283 228.049268 
L 238.571283 219.481239 
L 249.731283 206.473854 
L 260.891283 196.639611 
L 272.051283 198.734118 
L 283.211283 206.272237 
L 294.371283 207.587457 
L 305.531283 209.040337 
L 316.691283 211.026776 
L 327.851283 211.99336 
L 339.011283 211.975834 
L 350.171283 207.946424 
L 361.331283 195.785138 
L 372.491283 167.715233 
L 383.651283 122.612571 
L 394.811283 85.897574 
L 405.971283 59.105384 
" clip-path="url(#pde2ebceedd)" style="fill: none; stroke: #ff7f0e; stroke-width: 1.5; stroke-linecap: square"/>
   </g>
   <g id="line2d_11">
    <path d="M 82.331283 285.37598 
L 82.331283 19.26398 
" clip-path="url(#pde2ebceedd)" style="fill: none; stroke-dasharray: 5.55,2.4; stroke-dashoffset: 0; stroke: #000000; stroke-opacity: 0.5; stroke-width: 1.5"/>
   </g>
   <g id="line2d_12">
    <path d="M 383.651283 285.37598 
L 383.651283 19.26398 
" clip-path="url(#pde2ebceedd)" style="fill: none; stroke-dasharray: 5.55,2.4; stroke-dashoffset: 0; stroke: #000000; stroke-opacity: 0.5; stroke-width: 1.5"/>
   </g>
   <g id="patch_3">
    <path d="M 48.851283 285.37598 
L 405.971283 285.37598 
" style="fill: none; stroke: #000000; stroke-width: 0.8; stroke-linejoin: miter; stroke-linecap: square"/>
   </g>
   <g id="text_11">
    <text style="font: 6.94px 'Arial', sans-serif" transform="translate(10.097767 321.385533) rotate(-35)">-0.1s Sampling</text>
   </g>
   <g id="text_12">
    <text style="font: 6.94px 'Arial', sans-serif" transform="translate(57.794497 311.430872) rotate(-35)">Sampling</text>
   </g>
   <g id="text_13">
    <text style="font: 6.94px 'Arial', sans-serif" transform="translate(319.037191 339.456682) rotate(-35)">Movement to Lateral Port</text>
   </g>
   <g id="text_14">
    <text style="font: 8.33px 'Arial', sans-serif; text-anchor: middle" x="227.411283" y="13.26398" transform="rotate(-0 227.411283 13.26398)">GP4_23_s7_L50_D250_ALM - Trace:61_GP4_23_s7_L50_D250_ALM (when: correct)</text>
   </g>
   <g id="legend_1">
    <g id="patch_4">
     <path d="M 133.696342 354.133136 
L 321.126224 354.133136 
Q 322.514224 354.133136 322.514224 352.745136 
L 322.514224 343.45638 
Q 322.514224 342.06838 321.126224 342.06838 
L 133.696342 342.06838 
Q 132.308342 342.06838 132.308342 343.45638 
L 132.308342 352.745136 
Q 132.308342 354.133136 133.696342 354.133136 
z
" style="fill: #ffffff; opacity: 0.8; stroke: #cccccc; stroke-linejoin: miter"/>
    </g>
    <g id="line2d_13">
     <path d="M 135.084342 347.467483 
L 142.024342 347.467483 
L 148.964342 347.467483 
" style="fill: none; stroke: #1f77b4; stroke-width: 1.5; stroke-linecap: square"/>
    </g>
    <g id="text_15">
     <text style="font: 6.94px 'Arial', sans-serif; text-anchor: start" x="154.516342" y="349.896483" transform="rotate(-0 154.516342 349.896483)">DecisionRight (88 pts)</text>
    </g>
    <g id="line2d_14">
     <path d="M 236.664255 347.467483 
L 243.604255 347.467483 
L 250.544255 347.467483 
" style="fill: none; stroke: #ff7f0e; stroke-width: 1.5; stroke-linecap: square"/>
    </g>
    <g id="text_16">
     <text style="font: 6.94px 'Arial', sans-serif; text-anchor: start" x="256.096255" y="349.896483" transform="rotate(-0 256.096255 349.896483)">DecisionLeft (87 pts)</text>
    </g>
   </g>
  </g>
 </g>
 <defs>
  <clipPath id="pde2ebceedd">
   <rect x="48.851283" y="19.26398" width="357.12" height="266.112"/>
  </clipPath>
 </defs>
</svg>
