<?xml version="1.0" encoding="utf-8" standalone="no"?>
<!DOCTYPE svg PUBLIC "-//W3C//DTD SVG 1.1//EN"
  "http://www.w3.org/Graphics/SVG/1.1/DTD/svg11.dtd">
<svg xmlns:xlink="http://www.w3.org/1999/xlink" width="417.084062pt" height="361.333136pt" viewBox="0 0 417.084062 361.333136" xmlns="http://www.w3.org/2000/svg" version="1.1">
 <metadata>
  <rdf:RDF xmlns:dc="http://purl.org/dc/elements/1.1/" xmlns:cc="http://creativecommons.org/ns#" xmlns:rdf="http://www.w3.org/1999/02/22-rdf-syntax-ns#">
   <cc:Work>
    <dc:type rdf:resource="http://purl.org/dc/dcmitype/StillImage"/>
    <dc:date>2025-12-29T04:07:08.453810</dc:date>
    <dc:format>image/svg+xml</dc:format>
    <dc:creator>
     <cc:Agent>
      <dc:title>Matplotlib v3.8.0, https://matplotlib.org/</dc:title>
     </cc:Agent>
    </dc:creator>
   </cc:Work>
  </rdf:RDF>
 </metadata>
 <defs>
  <style type="text/css">*{stroke-linejoin: round; stroke-linecap: butt}</style>
 </defs>
 <g id="figure_1">
  <g id="patch_1">
   <path d="M 0 361.333136 
L 417.084062 361.333136 
L 417.084062 -0 
L 0 -0 
z
" style="fill: #ffffff"/>
  </g>
  <g id="axes_1">
   <g id="patch_2">
    <path d="M 52.764063 285.37598 
L 409.884063 285.37598 
L 409.884063 19.26398 
L 52.764063 19.26398 
z
" style="fill: #ffffff"/>
   </g>
   <g id="PolyCollection_1">
    <defs>
     <path id="m1aeb4ad502" d="M 52.764063 -121.418762 
L 52.764063 -97.726569 
L 63.924063 -99.974445 
L 75.084063 -97.708005 
L 86.244063 -96.81621 
L 97.404063 -93.017851 
L 108.564063 -89.809979 
L 119.724063 -88.053156 
L 130.884063 -91.974877 
L 142.044062 -96.437382 
L 153.204063 -98.02418 
L 164.364063 -99.726976 
L 175.524063 -97.155781 
L 186.684063 -95.68882 
L 197.844063 -100.676687 
L 209.004063 -104.944136 
L 220.164062 -111.51538 
L 231.324063 -123.572317 
L 242.484062 -139.952761 
L 253.644063 -154.376945 
L 264.804062 -166.393887 
L 275.964063 -179.247156 
L 287.124063 -190.461153 
L 298.284063 -207.409388 
L 309.444063 -220.181497 
L 320.604062 -231.981532 
L 331.764063 -248.574809 
L 342.924062 -266.013107 
L 354.084063 -272.531103 
L 365.244062 -270.839743 
L 376.404063 -254.201259 
L 387.564062 -224.582115 
L 398.724063 -203.486578 
L 409.884063 -192.858786 
L 409.884063 -230.849344 
L 409.884063 -230.849344 
L 398.724063 -243.123979 
L 387.564062 -268.923239 
L 376.404063 -307.457986 
L 365.244062 -328.749167 
L 354.084063 -329.973156 
L 342.924062 -321.3687 
L 331.764063 -301.305141 
L 320.604062 -283.41736 
L 309.444063 -270.636762 
L 298.284063 -255.741646 
L 287.124063 -234.631165 
L 275.964063 -218.406491 
L 264.804062 -203.195843 
L 253.644063 -188.738816 
L 242.484062 -171.816483 
L 231.324063 -151.743086 
L 220.164062 -135.364443 
L 209.004063 -126.337296 
L 197.844063 -122.296305 
L 186.684063 -117.999025 
L 175.524063 -119.574176 
L 164.364063 -119.85182 
L 153.204063 -117.222766 
L 142.044062 -114.91679 
L 130.884063 -109.89636 
L 119.724063 -106.352571 
L 108.564063 -111.05615 
L 97.404063 -114.57375 
L 86.244063 -118.779697 
L 75.084063 -120.383879 
L 63.924063 -122.258209 
L 52.764063 -121.418762 
z
" style="stroke: #1f77b4; stroke-opacity: 0.2"/>
    </defs>
    <g clip-path="url(#p4e1945ca49)">
     <use xlink:href="#m1aeb4ad502" x="0" y="361.333136" style="fill: #1f77b4; fill-opacity: 0.2; stroke: #1f77b4; stroke-opacity: 0.2"/>
    </g>
   </g>
   <g id="PolyCollection_2">
    <defs>
     <path id="m686523589a" d="M 52.764063 -126.300731 
L 52.764063 -111.285826 
L 63.924063 -107.009557 
L 75.084063 -106.802737 
L 86.244063 -109.001215 
L 97.404063 -110.331099 
L 108.564063 -109.58358 
L 119.724063 -106.152051 
L 130.884063 -101.303925 
L 142.044062 -100.66089 
L 153.204063 -108.434042 
L 164.364063 -116.686814 
L 175.524063 -120.105047 
L 186.684063 -124.847553 
L 197.844063 -127.461623 
L 209.004063 -130.832284 
L 220.164062 -142.976672 
L 231.324063 -153.954404 
L 242.484062 -157.73428 
L 253.644063 -168.580851 
L 264.804062 -181.941418 
L 275.964063 -188.036818 
L 287.124063 -197.18889 
L 298.284063 -209.086501 
L 309.444063 -223.464944 
L 320.604062 -230.717578 
L 331.764063 -238.139431 
L 342.924062 -246.799118 
L 354.084063 -244.978947 
L 365.244062 -238.628938 
L 376.404063 -223.260618 
L 387.564062 -206.911532 
L 398.724063 -192.322962 
L 409.884063 -180.653816 
L 409.884063 -211.356514 
L 409.884063 -211.356514 
L 398.724063 -223.188151 
L 387.564062 -240.306651 
L 376.404063 -262.4165 
L 365.244062 -283.391317 
L 354.084063 -291.508974 
L 342.924062 -292.692957 
L 331.764063 -284.275891 
L 320.604062 -278.593448 
L 309.444063 -271.141586 
L 298.284063 -254.759454 
L 287.124063 -238.844256 
L 275.964063 -223.610871 
L 264.804062 -213.626681 
L 253.644063 -198.797161 
L 242.484062 -187.054639 
L 231.324063 -183.788552 
L 220.164062 -172.78911 
L 209.004063 -158.486442 
L 197.844063 -153.693205 
L 186.684063 -149.385305 
L 175.524063 -143.970004 
L 164.364063 -141.236155 
L 153.204063 -130.565158 
L 142.044062 -121.721307 
L 130.884063 -121.714841 
L 119.724063 -123.994136 
L 108.564063 -125.092712 
L 97.404063 -126.352466 
L 86.244063 -125.200699 
L 75.084063 -122.663828 
L 63.924063 -121.927636 
L 52.764063 -126.300731 
z
" style="stroke: #ff7f0e; stroke-opacity: 0.2"/>
    </defs>
    <g clip-path="url(#p4e1945ca49)">
     <use xlink:href="#m686523589a" x="0" y="361.333136" style="fill: #ff7f0e; fill-opacity: 0.2; stroke: #ff7f0e; stroke-opacity: 0.2"/>
    </g>
   </g>
   <g id="matplotlib.axis_1">
    <g id="text_1">
     <text style="font: 10px 'Arial', sans-serif; text-anchor: middle" x="231.324063" y="296.533792" transform="rotate(-0 231.324063 296.533792)">Time</text>
    </g>
   </g>
   <g id="matplotlib.axis_2">
    <g id="ytick_1">
     <g id="line2d_1">
      <defs>
       <path id="mcbc88f070f" d="M 0 0 
L -3.5 0 
" style="stroke: #000000; stroke-width: 0.8"/>
      </defs>
      <g>
       <use xlink:href="#mcbc88f070f" x="52.764063" y="260.923703" style="stroke: #000000; stroke-width: 0.8"/>
      </g>
     </g>
     <g id="text_2">
      <text style="font: 10px 'Arial', sans-serif; text-anchor: end" x="45.764063" y="264.502609" transform="rotate(-0 45.764063 264.502609)">−0.25</text>
     </g>
    </g>
    <g id="ytick_2">
     <g id="line2d_2">
      <g>
       <use xlink:href="#mcbc88f070f" x="52.764063" y="224.991952" style="stroke: #000000; stroke-width: 0.8"/>
      </g>
     </g>
     <g id="text_3">
      <text style="font: 10px 'Arial', sans-serif; text-anchor: end" x="45.764063" y="228.570858" transform="rotate(-0 45.764063 228.570858)">0.00</text>
     </g>
    </g>
    <g id="ytick_3">
     <g id="line2d_3">
      <g>
       <use xlink:href="#mcbc88f070f" x="52.764063" y="189.060201" style="stroke: #000000; stroke-width: 0.8"/>
      </g>
     </g>
     <g id="text_4">
      <text style="font: 10px 'Arial', sans-serif; text-anchor: end" x="45.764063" y="192.639107" transform="rotate(-0 45.764063 192.639107)">0.25</text>
     </g>
    </g>
    <g id="ytick_4">
     <g id="line2d_4">
      <g>
       <use xlink:href="#mcbc88f070f" x="52.764063" y="153.12845" style="stroke: #000000; stroke-width: 0.8"/>
      </g>
     </g>
     <g id="text_5">
      <text style="font: 10px 'Arial', sans-serif; text-anchor: end" x="45.764063" y="156.707356" transform="rotate(-0 45.764063 156.707356)">0.50</text>
     </g>
    </g>
    <g id="ytick_5">
     <g id="line2d_5">
      <g>
       <use xlink:href="#mcbc88f070f" x="52.764063" y="117.196699" style="stroke: #000000; stroke-width: 0.8"/>
      </g>
     </g>
     <g id="text_6">
      <text style="font: 10px 'Arial', sans-serif; text-anchor: end" x="45.764063" y="120.775605" transform="rotate(-0 45.764063 120.775605)">0.75</text>
     </g>
    </g>
    <g id="ytick_6">
     <g id="line2d_6">
      <g>
       <use xlink:href="#mcbc88f070f" x="52.764063" y="81.264948" style="stroke: #000000; stroke-width: 0.8"/>
      </g>
     </g>
     <g id="text_7">
      <text style="font: 10px 'Arial', sans-serif; text-anchor: end" x="45.764063" y="84.843854" transform="rotate(-0 45.764063 84.843854)">1.00</text>
     </g>
    </g>
    <g id="ytick_7">
     <g id="line2d_7">
      <g>
       <use xlink:href="#mcbc88f070f" x="52.764063" y="45.333197" style="stroke: #000000; stroke-width: 0.8"/>
      </g>
     </g>
     <g id="text_8">
      <text style="font: 10px 'Arial', sans-serif; text-anchor: end" x="45.764063" y="48.912103" transform="rotate(-0 45.764063 48.912103)">1.25</text>
     </g>
    </g>
    <g id="text_9">
     <text style="font: 10px 'Arial', sans-serif; text-anchor: middle" x="14.357813" y="152.31998" transform="rotate(-90 14.357813 152.31998)">Activity</text>
    </g>
   </g>
   <g id="line2d_8">
    <path d="M 52.764063 251.76047 
L 63.924063 250.216809 
L 75.084063 252.287193 
L 86.244063 253.535183 
L 97.404063 257.537336 
L 108.564063 260.900071 
L 119.724063 264.130272 
L 130.884063 260.397517 
L 142.044062 255.65605 
L 153.204063 253.709663 
L 164.364063 251.543739 
L 175.524063 252.968157 
L 186.684063 254.489214 
L 197.844063 249.846639 
L 209.004063 245.69242 
L 220.164062 237.893225 
L 231.324063 223.675434 
L 242.484062 205.448513 
L 253.644063 189.775254 
L 264.804062 176.538272 
L 275.964063 162.506313 
L 287.124063 148.786977 
L 298.284063 129.757619 
L 309.444063 115.924007 
L 320.604062 103.633686 
L 331.764063 86.393161 
L 342.924062 67.642233 
L 354.084063 60.081006 
L 365.244062 61.538681 
L 376.404063 80.503514 
L 387.564062 114.580459 
L 398.724063 138.027859 
L 409.884063 149.479071 
" clip-path="url(#p4e1945ca49)" style="fill: none; stroke: #1f77b4; stroke-width: 1.5; stroke-linecap: square"/>
   </g>
   <g id="line2d_9">
    <path d="M 52.764063 242.539858 
L 63.924063 246.864539 
L 75.084063 246.599853 
L 86.244063 244.232179 
L 97.404063 242.991353 
L 108.564063 243.99499 
L 119.724063 246.260043 
L 130.884063 249.823753 
L 142.044062 250.142038 
L 153.204063 241.833536 
L 164.364063 232.371651 
L 175.524063 229.295611 
L 186.684063 224.216707 
L 197.844063 220.755722 
L 209.004063 216.673773 
L 220.164062 203.450246 
L 231.324063 192.461658 
L 242.484062 188.938676 
L 253.644063 177.64413 
L 264.804062 163.549085 
L 275.964063 155.509291 
L 287.124063 143.316563 
L 298.284063 129.410158 
L 309.444063 114.029871 
L 320.604062 106.677623 
L 331.764063 100.125471 
L 342.924062 91.587099 
L 354.084063 93.089175 
L 365.244062 100.323013 
L 376.404063 118.494577 
L 387.564062 137.724047 
L 398.724063 153.577577 
L 409.884063 165.327971 
" clip-path="url(#p4e1945ca49)" style="fill: none; stroke: #ff7f0e; stroke-width: 1.5; stroke-linecap: square"/>
   </g>
   <g id="line2d_10">
    <path d="M 86.244063 285.37598 
L 86.244063 19.26398 
" clip-path="url(#p4e1945ca49)" style="fill: none; stroke-dasharray: 5.55,2.4; stroke-dashoffset: 0; stroke: #000000; stroke-opacity: 0.5; stroke-width: 1.5"/>
   </g>
   <g id="line2d_11">
    <path d="M 387.564062 285.37598 
L 387.564062 19.26398 
" clip-path="url(#p4e1945ca49)" style="fill: none; stroke-dasharray: 5.55,2.4; stroke-dashoffset: 0; stroke: #000000; stroke-opacity: 0.5; stroke-width: 1.5"/>
   </g>
   <g id="patch_3">
    <path d="M 52.764063 285.37598 
L 409.884063 285.37598 
" style="fill: none; stroke: #000000; stroke-width: 0.8; stroke-linejoin: miter; stroke-linecap: square"/>
   </g>
   <g id="text_10">
    <text style="font: 6.94px 'Arial', sans-serif" transform="translate(14.010547 321.385533) rotate(-35)">-0.1s Sampling</text>
   </g>
   <g id="text_11">
    <text style="font: 6.94px 'Arial', sans-serif" transform="translate(61.707276 311.430872) rotate(-35)">Sampling</text>
   </g>
   <g id="text_12">
    <text style="font: 6.94px 'Arial', sans-serif" transform="translate(322.94997 339.456682) rotate(-35)">Movement to Lateral Port</text>
   </g>
   <g id="text_13">
    <text style="font: 8.33px 'Arial', sans-serif; text-anchor: middle" x="231.324063" y="13.26398" transform="rotate(-0 231.324063 13.26398)">GP4_23_s7_L50_D250_ALM - Trace:67_GP4_23_s7_L50_D250_ALM (when: correct)</text>
   </g>
   <g id="legend_1">
    <g id="patch_4">
     <path d="M 137.609122 354.133136 
L 325.039003 354.133136 
Q 326.427003 354.133136 326.427003 352.745136 
L 326.427003 343.45638 
Q 326.427003 342.06838 325.039003 342.06838 
L 137.609122 342.06838 
Q 136.221122 342.06838 136.221122 343.45638 
L 136.221122 352.745136 
Q 136.221122 354.133136 137.609122 354.133136 
z
" style="fill: #ffffff; opacity: 0.8; stroke: #cccccc; stroke-linejoin: miter"/>
    </g>
    <g id="line2d_12">
     <path d="M 138.997122 347.467483 
L 145.937122 347.467483 
L 152.877122 347.467483 
" style="fill: none; stroke: #1f77b4; stroke-width: 1.5; stroke-linecap: square"/>
    </g>
    <g id="text_14">
     <text style="font: 6.94px 'Arial', sans-serif; text-anchor: start" x="158.429122" y="349.896483" transform="rotate(-0 158.429122 349.896483)">DecisionRight (88 pts)</text>
    </g>
    <g id="line2d_13">
     <path d="M 240.577034 347.467483 
L 247.517034 347.467483 
L 254.457034 347.467483 
" style="fill: none; stroke: #ff7f0e; stroke-width: 1.5; stroke-linecap: square"/>
    </g>
    <g id="text_15">
     <text style="font: 6.94px 'Arial', sans-serif; text-anchor: start" x="260.009034" y="349.896483" transform="rotate(-0 260.009034 349.896483)">DecisionLeft (87 pts)</text>
    </g>
   </g>
  </g>
 </g>
 <defs>
  <clipPath id="p4e1945ca49">
   <rect x="52.764063" y="19.26398" width="357.12" height="266.112"/>
  </clipPath>
 </defs>
</svg>
