<?xml version="1.0" encoding="utf-8" standalone="no"?>
<!DOCTYPE svg PUBLIC "-//W3C//DTD SVG 1.1//EN"
  "http://www.w3.org/Graphics/SVG/1.1/DTD/svg11.dtd">
<svg xmlns:xlink="http://www.w3.org/1999/xlink" width="413.171283pt" height="361.333136pt" viewBox="0 0 413.171283 361.333136" xmlns="http://www.w3.org/2000/svg" version="1.1">
 <metadata>
  <rdf:RDF xmlns:dc="http://purl.org/dc/elements/1.1/" xmlns:cc="http://creativecommons.org/ns#" xmlns:rdf="http://www.w3.org/1999/02/22-rdf-syntax-ns#">
   <cc:Work>
    <dc:type rdf:resource="http://purl.org/dc/dcmitype/StillImage"/>
    <dc:date>2025-12-29T04:07:06.038105</dc:date>
    <dc:format>image/svg+xml</dc:format>
    <dc:creator>
     <cc:Agent>
      <dc:title>Matplotlib v3.8.0, https://matplotlib.org/</dc:title>
     </cc:Agent>
    </dc:creator>
   </cc:Work>
  </rdf:RDF>
 </metadata>
 <defs>
  <style type="text/css">*{stroke-linejoin: round; stroke-linecap: butt}</style>
 </defs>
 <g id="figure_1">
  <g id="patch_1">
   <path d="M 0 361.333136 
L 413.171283 361.333136 
L 413.171283 -0 
L 0 -0 
z
" style="fill: #ffffff"/>
  </g>
  <g id="axes_1">
   <g id="patch_2">
    <path d="M 48.851283 285.37598 
L 405.971283 285.37598 
L 405.971283 19.26398 
L 48.851283 19.26398 
z
" style="fill: #ffffff"/>
   </g>
   <g id="PolyCollection_1">
    <defs>
     <path id="m6587077ede" d="M 48.851283 -113.71606 
L 48.851283 -98.899494 
L 60.011283 -96.166413 
L 71.171283 -93.82365 
L 82.331283 -92.957562 
L 93.491283 -93.640552 
L 104.651283 -90.272363 
L 115.811283 -88.263752 
L 126.971283 -88.053156 
L 138.131283 -92.724913 
L 149.291283 -102.017674 
L 160.451283 -117.423854 
L 171.611283 -134.008482 
L 182.771283 -148.415724 
L 193.931283 -161.099502 
L 205.091283 -169.799672 
L 216.251283 -170.566388 
L 227.411283 -173.311651 
L 238.571283 -181.253162 
L 249.731283 -189.664245 
L 260.891283 -194.217086 
L 272.051283 -194.760147 
L 283.211283 -192.048381 
L 294.371283 -187.765825 
L 305.531283 -183.251172 
L 316.691283 -182.717035 
L 327.851283 -180.997809 
L 339.011283 -171.720673 
L 350.171283 -161.759267 
L 361.331283 -153.378731 
L 372.491283 -151.062719 
L 383.651283 -158.039298 
L 394.811283 -159.149716 
L 405.971283 -157.076518 
L 405.971283 -205.464558 
L 405.971283 -205.464558 
L 394.811283 -207.644289 
L 383.651283 -206.211183 
L 372.491283 -198.276894 
L 361.331283 -202.974361 
L 350.171283 -216.314493 
L 339.011283 -230.171703 
L 327.851283 -241.639646 
L 316.691283 -245.351017 
L 305.531283 -245.120722 
L 294.371283 -249.6252 
L 283.211283 -252.549098 
L 272.051283 -252.895827 
L 260.891283 -251.57553 
L 249.731283 -246.916871 
L 238.571283 -237.686208 
L 227.411283 -227.72001 
L 216.251283 -223.05148 
L 205.091283 -221.181215 
L 193.931283 -208.91596 
L 182.771283 -189.811052 
L 171.611283 -167.609261 
L 160.451283 -144.573071 
L 149.291283 -123.940665 
L 138.131283 -110.395411 
L 126.971283 -102.942566 
L 115.811283 -101.848706 
L 104.651283 -104.587182 
L 93.491283 -108.096801 
L 82.331283 -106.997165 
L 71.171283 -107.346087 
L 60.011283 -109.929966 
L 48.851283 -113.71606 
z
" style="stroke: #1f77b4; stroke-opacity: 0.2"/>
    </defs>
    <g clip-path="url(#p4e6fd32396)">
     <use xlink:href="#m6587077ede" x="0" y="361.333136" style="fill: #1f77b4; fill-opacity: 0.2; stroke: #1f77b4; stroke-opacity: 0.2"/>
    </g>
   </g>
   <g id="PolyCollection_2">
    <defs>
     <path id="me29412a53c" d="M 48.851283 -128.69209 
L 48.851283 -113.309422 
L 60.011283 -112.07991 
L 71.171283 -110.544227 
L 82.331283 -108.587805 
L 93.491283 -105.078491 
L 104.651283 -103.056888 
L 115.811283 -107.331555 
L 126.971283 -116.238179 
L 138.131283 -129.076899 
L 149.291283 -146.257715 
L 160.451283 -168.629129 
L 171.611283 -186.736674 
L 182.771283 -196.556806 
L 193.931283 -201.021876 
L 205.091283 -207.22183 
L 216.251283 -217.554619 
L 227.411283 -225.829931 
L 238.571283 -232.906983 
L 249.731283 -240.536232 
L 260.891283 -244.573961 
L 272.051283 -246.289371 
L 283.211283 -246.027689 
L 294.371283 -247.894096 
L 305.531283 -247.524893 
L 316.691283 -248.817482 
L 327.851283 -246.310163 
L 339.011283 -238.574171 
L 350.171283 -231.344629 
L 361.331283 -227.710728 
L 372.491283 -222.686797 
L 383.651283 -221.809451 
L 394.811283 -222.759546 
L 405.971283 -221.742451 
L 405.971283 -278.169285 
L 405.971283 -278.169285 
L 394.811283 -281.548905 
L 383.651283 -283.854847 
L 372.491283 -290.672446 
L 361.331283 -301.463317 
L 350.171283 -308.226152 
L 339.011283 -319.193363 
L 327.851283 -329.151353 
L 316.691283 -329.973156 
L 305.531283 -327.195914 
L 294.371283 -329.643245 
L 283.211283 -328.015426 
L 272.051283 -328.664464 
L 260.891283 -326.77407 
L 249.731283 -320.674947 
L 238.571283 -308.814749 
L 227.411283 -299.387071 
L 216.251283 -290.533569 
L 205.091283 -277.245857 
L 193.931283 -269.34059 
L 182.771283 -263.228107 
L 171.611283 -248.74407 
L 160.451283 -223.393385 
L 149.291283 -190.944246 
L 138.131283 -165.811515 
L 126.971283 -146.588861 
L 115.811283 -127.934316 
L 104.651283 -118.933201 
L 93.491283 -120.785896 
L 82.331283 -123.888778 
L 71.171283 -124.441081 
L 60.011283 -126.137265 
L 48.851283 -128.69209 
z
" style="stroke: #ff7f0e; stroke-opacity: 0.2"/>
    </defs>
    <g clip-path="url(#p4e6fd32396)">
     <use xlink:href="#me29412a53c" x="0" y="361.333136" style="fill: #ff7f0e; fill-opacity: 0.2; stroke: #ff7f0e; stroke-opacity: 0.2"/>
    </g>
   </g>
   <g id="matplotlib.axis_1">
    <g id="text_1">
     <text style="font: 10px 'Arial', sans-serif; text-anchor: middle" x="227.411283" y="296.533792" transform="rotate(-0 227.411283 296.533792)">Time</text>
    </g>
   </g>
   <g id="matplotlib.axis_2">
    <g id="ytick_1">
     <g id="line2d_1">
      <defs>
       <path id="m40488b3239" d="M 0 0 
L -3.5 0 
" style="stroke: #000000; stroke-width: 0.8"/>
      </defs>
      <g>
       <use xlink:href="#m40488b3239" x="48.851283" y="263.631916" style="stroke: #000000; stroke-width: 0.8"/>
      </g>
     </g>
     <g id="text_2">
      <text style="font: 10px 'Arial', sans-serif; text-anchor: end" x="41.851283" y="267.210822" transform="rotate(-0 41.851283 267.210822)">−0.2</text>
     </g>
    </g>
    <g id="ytick_2">
     <g id="line2d_2">
      <g>
       <use xlink:href="#m40488b3239" x="48.851283" y="228.361459" style="stroke: #000000; stroke-width: 0.8"/>
      </g>
     </g>
     <g id="text_3">
      <text style="font: 10px 'Arial', sans-serif; text-anchor: end" x="41.851283" y="231.940365" transform="rotate(-0 41.851283 231.940365)">0.0</text>
     </g>
    </g>
    <g id="ytick_3">
     <g id="line2d_3">
      <g>
       <use xlink:href="#m40488b3239" x="48.851283" y="193.091001" style="stroke: #000000; stroke-width: 0.8"/>
      </g>
     </g>
     <g id="text_4">
      <text style="font: 10px 'Arial', sans-serif; text-anchor: end" x="41.851283" y="196.669908" transform="rotate(-0 41.851283 196.669908)">0.2</text>
     </g>
    </g>
    <g id="ytick_4">
     <g id="line2d_4">
      <g>
       <use xlink:href="#m40488b3239" x="48.851283" y="157.820544" style="stroke: #000000; stroke-width: 0.8"/>
      </g>
     </g>
     <g id="text_5">
      <text style="font: 10px 'Arial', sans-serif; text-anchor: end" x="41.851283" y="161.39945" transform="rotate(-0 41.851283 161.39945)">0.4</text>
     </g>
    </g>
    <g id="ytick_5">
     <g id="line2d_5">
      <g>
       <use xlink:href="#m40488b3239" x="48.851283" y="122.550087" style="stroke: #000000; stroke-width: 0.8"/>
      </g>
     </g>
     <g id="text_6">
      <text style="font: 10px 'Arial', sans-serif; text-anchor: end" x="41.851283" y="126.128993" transform="rotate(-0 41.851283 126.128993)">0.6</text>
     </g>
    </g>
    <g id="ytick_6">
     <g id="line2d_6">
      <g>
       <use xlink:href="#m40488b3239" x="48.851283" y="87.279629" style="stroke: #000000; stroke-width: 0.8"/>
      </g>
     </g>
     <g id="text_7">
      <text style="font: 10px 'Arial', sans-serif; text-anchor: end" x="41.851283" y="90.858535" transform="rotate(-0 41.851283 90.858535)">0.8</text>
     </g>
    </g>
    <g id="ytick_7">
     <g id="line2d_7">
      <g>
       <use xlink:href="#m40488b3239" x="48.851283" y="52.009172" style="stroke: #000000; stroke-width: 0.8"/>
      </g>
     </g>
     <g id="text_8">
      <text style="font: 10px 'Arial', sans-serif; text-anchor: end" x="41.851283" y="55.588078" transform="rotate(-0 41.851283 55.588078)">1.0</text>
     </g>
    </g>
    <g id="text_9">
     <text style="font: 10px 'Arial', sans-serif; text-anchor: middle" x="16.005971" y="152.31998" transform="rotate(-90 16.005971 152.31998)">Activity</text>
    </g>
   </g>
   <g id="line2d_8">
    <path d="M 48.851283 255.025359 
L 60.011283 258.284946 
L 71.171283 260.748268 
L 82.331283 261.355772 
L 93.491283 260.464459 
L 104.651283 263.903364 
L 115.811283 266.276907 
L 126.971283 265.835275 
L 138.131283 259.772974 
L 149.291283 248.353966 
L 160.451283 230.334673 
L 171.611283 210.524265 
L 182.771283 192.219749 
L 193.931283 176.325406 
L 205.091283 165.842692 
L 216.251283 164.524203 
L 227.411283 160.817305 
L 238.571283 151.863451 
L 249.731283 143.042576 
L 260.891283 138.436825 
L 272.051283 137.505146 
L 283.211283 139.034399 
L 294.371283 142.637623 
L 305.531283 147.147189 
L 316.691283 147.29911 
L 327.851283 150.014408 
L 339.011283 160.386947 
L 350.171283 172.296255 
L 361.331283 183.156591 
L 372.491283 186.663331 
L 383.651283 179.207894 
L 394.811283 177.936134 
L 405.971283 180.062598 
" clip-path="url(#p4e6fd32396)" style="fill: none; stroke: #1f77b4; stroke-width: 1.5; stroke-linecap: square"/>
   </g>
   <g id="line2d_9">
    <path d="M 48.851283 240.33238 
L 60.011283 242.224548 
L 71.171283 243.840481 
L 82.331283 245.094844 
L 93.491283 248.400943 
L 104.651283 250.338092 
L 115.811283 243.7002 
L 126.971283 229.919616 
L 138.131283 213.888929 
L 149.291283 192.732154 
L 160.451283 165.321878 
L 171.611283 143.592764 
L 182.771283 131.44068 
L 193.931283 126.151903 
L 205.091283 119.09929 
L 216.251283 107.289042 
L 227.411283 98.724635 
L 238.571283 90.47227 
L 249.731283 80.727546 
L 260.891283 75.659121 
L 272.051283 73.856213 
L 283.211283 74.311578 
L 294.371283 72.564465 
L 305.531283 73.972732 
L 316.691283 71.937817 
L 327.851283 73.602373 
L 339.011283 82.449369 
L 350.171283 91.547745 
L 361.331283 96.746113 
L 372.491283 104.653515 
L 383.651283 108.500987 
L 394.811283 109.17891 
L 405.971283 111.377268 
" clip-path="url(#p4e6fd32396)" style="fill: none; stroke: #ff7f0e; stroke-width: 1.5; stroke-linecap: square"/>
   </g>
   <g id="line2d_10">
    <path d="M 82.331283 285.37598 
L 82.331283 19.26398 
" clip-path="url(#p4e6fd32396)" style="fill: none; stroke-dasharray: 5.55,2.4; stroke-dashoffset: 0; stroke: #000000; stroke-opacity: 0.5; stroke-width: 1.5"/>
   </g>
   <g id="line2d_11">
    <path d="M 383.651283 285.37598 
L 383.651283 19.26398 
" clip-path="url(#p4e6fd32396)" style="fill: none; stroke-dasharray: 5.55,2.4; stroke-dashoffset: 0; stroke: #000000; stroke-opacity: 0.5; stroke-width: 1.5"/>
   </g>
   <g id="patch_3">
    <path d="M 48.851283 285.37598 
L 405.971283 285.37598 
" style="fill: none; stroke: #000000; stroke-width: 0.8; stroke-linejoin: miter; stroke-linecap: square"/>
   </g>
   <g id="text_10">
    <text style="font: 6.94px 'Arial', sans-serif" transform="translate(10.097767 321.385533) rotate(-35)">-0.1s Sampling</text>
   </g>
   <g id="text_11">
    <text style="font: 6.94px 'Arial', sans-serif" transform="translate(57.794497 311.430872) rotate(-35)">Sampling</text>
   </g>
   <g id="text_12">
    <text style="font: 6.94px 'Arial', sans-serif" transform="translate(319.037191 339.456682) rotate(-35)">Movement to Lateral Port</text>
   </g>
   <g id="text_13">
    <text style="font: 8.33px 'Arial', sans-serif; text-anchor: middle" x="227.411283" y="13.26398" transform="rotate(-0 227.411283 13.26398)">GP4_23_s7_L50_D250_ALM - Trace:6_GP4_23_s7_L50_D250_ALM (when: correct)</text>
   </g>
   <g id="legend_1">
    <g id="patch_4">
     <path d="M 133.696342 354.133136 
L 321.126224 354.133136 
Q 322.514224 354.133136 322.514224 352.745136 
L 322.514224 343.45638 
Q 322.514224 342.06838 321.126224 342.06838 
L 133.696342 342.06838 
Q 132.308342 342.06838 132.308342 343.45638 
L 132.308342 352.745136 
Q 132.308342 354.133136 133.696342 354.133136 
z
" style="fill: #ffffff; opacity: 0.8; stroke: #cccccc; stroke-linejoin: miter"/>
    </g>
    <g id="line2d_12">
     <path d="M 135.084342 347.467483 
L 142.024342 347.467483 
L 148.964342 347.467483 
" style="fill: none; stroke: #1f77b4; stroke-width: 1.5; stroke-linecap: square"/>
    </g>
    <g id="text_14">
     <text style="font: 6.94px 'Arial', sans-serif; text-anchor: start" x="154.516342" y="349.896483" transform="rotate(-0 154.516342 349.896483)">DecisionRight (88 pts)</text>
    </g>
    <g id="line2d_13">
     <path d="M 236.664255 347.467483 
L 243.604255 347.467483 
L 250.544255 347.467483 
" style="fill: none; stroke: #ff7f0e; stroke-width: 1.5; stroke-linecap: square"/>
    </g>
    <g id="text_15">
     <text style="font: 6.94px 'Arial', sans-serif; text-anchor: start" x="256.096255" y="349.896483" transform="rotate(-0 256.096255 349.896483)">DecisionLeft (87 pts)</text>
    </g>
   </g>
  </g>
 </g>
 <defs>
  <clipPath id="p4e6fd32396">
   <rect x="48.851283" y="19.26398" width="357.12" height="266.112"/>
  </clipPath>
 </defs>
</svg>
