<?xml version="1.0" encoding="utf-8" standalone="no"?>
<!DOCTYPE svg PUBLIC "-//W3C//DTD SVG 1.1//EN"
  "http://www.w3.org/Graphics/SVG/1.1/DTD/svg11.dtd">
<svg xmlns:xlink="http://www.w3.org/1999/xlink" width="413.171283pt" height="361.333136pt" viewBox="0 0 413.171283 361.333136" xmlns="http://www.w3.org/2000/svg" version="1.1">
 <metadata>
  <rdf:RDF xmlns:dc="http://purl.org/dc/elements/1.1/" xmlns:cc="http://creativecommons.org/ns#" xmlns:rdf="http://www.w3.org/1999/02/22-rdf-syntax-ns#">
   <cc:Work>
    <dc:type rdf:resource="http://purl.org/dc/dcmitype/StillImage"/>
    <dc:date>2025-12-29T04:07:06.683713</dc:date>
    <dc:format>image/svg+xml</dc:format>
    <dc:creator>
     <cc:Agent>
      <dc:title>Matplotlib v3.8.0, https://matplotlib.org/</dc:title>
     </cc:Agent>
    </dc:creator>
   </cc:Work>
  </rdf:RDF>
 </metadata>
 <defs>
  <style type="text/css">*{stroke-linejoin: round; stroke-linecap: butt}</style>
 </defs>
 <g id="figure_1">
  <g id="patch_1">
   <path d="M 0 361.333136 
L 413.171283 361.333136 
L 413.171283 -0 
L 0 -0 
z
" style="fill: #ffffff"/>
  </g>
  <g id="axes_1">
   <g id="patch_2">
    <path d="M 48.851283 285.37598 
L 405.971283 285.37598 
L 405.971283 19.26398 
L 48.851283 19.26398 
z
" style="fill: #ffffff"/>
   </g>
   <g id="PolyCollection_1">
    <defs>
     <path id="m47b9932a75" d="M 48.851283 -176.921759 
L 48.851283 -144.597278 
L 60.011283 -138.897705 
L 71.171283 -138.62463 
L 82.331283 -141.740864 
L 93.491283 -140.491847 
L 104.651283 -136.583772 
L 115.811283 -128.952599 
L 126.971283 -119.598633 
L 138.131283 -112.131735 
L 149.291283 -121.135843 
L 160.451283 -129.967007 
L 171.611283 -127.674936 
L 182.771283 -125.792927 
L 193.931283 -124.540737 
L 205.091283 -123.039211 
L 216.251283 -127.945617 
L 227.411283 -123.913551 
L 238.571283 -113.574235 
L 249.731283 -110.744889 
L 260.891283 -107.669849 
L 272.051283 -98.095721 
L 283.211283 -92.485912 
L 294.371283 -88.053156 
L 305.531283 -91.043202 
L 316.691283 -97.179396 
L 327.851283 -102.173973 
L 339.011283 -103.810226 
L 350.171283 -100.23293 
L 361.331283 -98.512133 
L 372.491283 -102.019139 
L 383.651283 -111.872936 
L 394.811283 -126.023889 
L 405.971283 -145.281136 
L 405.971283 -174.777249 
L 405.971283 -174.777249 
L 394.811283 -148.874146 
L 383.651283 -131.59844 
L 372.491283 -120.047444 
L 361.331283 -117.411834 
L 350.171283 -119.941725 
L 339.011283 -123.245949 
L 327.851283 -121.662694 
L 316.691283 -116.281578 
L 305.531283 -110.460574 
L 294.371283 -108.573906 
L 283.211283 -114.468667 
L 272.051283 -120.228557 
L 260.891283 -130.683199 
L 249.731283 -134.269489 
L 238.571283 -137.787183 
L 227.411283 -149.459477 
L 216.251283 -154.703826 
L 205.091283 -149.666669 
L 193.931283 -150.158077 
L 182.771283 -150.804215 
L 171.611283 -153.985817 
L 160.451283 -157.14676 
L 149.291283 -149.266356 
L 138.131283 -142.541259 
L 126.971283 -149.191746 
L 115.811283 -156.828197 
L 104.651283 -162.388619 
L 93.491283 -167.306373 
L 82.331283 -172.629317 
L 71.171283 -170.122821 
L 60.011283 -169.56482 
L 48.851283 -176.921759 
z
" style="stroke: #1f77b4; stroke-opacity: 0.2"/>
    </defs>
    <g clip-path="url(#p60c34a16f9)">
     <use xlink:href="#m47b9932a75" x="0" y="361.333136" style="fill: #1f77b4; fill-opacity: 0.2; stroke: #1f77b4; stroke-opacity: 0.2"/>
    </g>
   </g>
   <g id="PolyCollection_2">
    <defs>
     <path id="m9e02fb973d" d="M 48.851283 -211.846251 
L 48.851283 -175.242837 
L 60.011283 -170.433072 
L 71.171283 -164.016177 
L 82.331283 -160.859585 
L 93.491283 -162.760047 
L 104.651283 -168.066848 
L 115.811283 -172.696588 
L 126.971283 -172.227409 
L 138.131283 -169.496531 
L 149.291283 -171.027748 
L 160.451283 -169.557526 
L 171.611283 -158.274754 
L 182.771283 -146.821812 
L 193.931283 -140.535378 
L 205.091283 -135.220394 
L 216.251283 -137.081351 
L 227.411283 -141.658455 
L 238.571283 -140.170499 
L 249.731283 -132.392328 
L 260.891283 -121.160363 
L 272.051283 -115.000967 
L 283.211283 -116.076277 
L 294.371283 -114.451608 
L 305.531283 -108.223971 
L 316.691283 -109.054084 
L 327.851283 -106.948029 
L 339.011283 -103.638045 
L 350.171283 -109.671715 
L 361.331283 -124.800925 
L 372.491283 -142.875144 
L 383.651283 -178.768484 
L 394.811283 -220.189144 
L 405.971283 -268.070194 
L 405.971283 -329.973156 
L 405.971283 -329.973156 
L 394.811283 -274.854352 
L 383.651283 -228.432696 
L 372.491283 -188.483112 
L 361.331283 -162.141172 
L 350.171283 -139.741763 
L 339.011283 -131.696311 
L 327.851283 -132.2262 
L 316.691283 -132.812166 
L 305.531283 -132.584368 
L 294.371283 -138.575426 
L 283.211283 -138.486812 
L 272.051283 -137.824447 
L 260.891283 -146.198308 
L 249.731283 -157.374059 
L 238.571283 -166.021132 
L 227.411283 -170.12481 
L 216.251283 -167.992989 
L 205.091283 -167.160279 
L 193.931283 -172.957493 
L 182.771283 -180.622956 
L 171.611283 -194.282288 
L 160.451283 -206.008456 
L 149.291283 -207.270219 
L 138.131283 -202.923791 
L 126.971283 -203.550311 
L 115.811283 -203.031181 
L 104.651283 -197.00897 
L 93.491283 -191.640229 
L 82.331283 -191.314929 
L 71.171283 -196.384536 
L 60.011283 -205.133473 
L 48.851283 -211.846251 
z
" style="stroke: #ff7f0e; stroke-opacity: 0.2"/>
    </defs>
    <g clip-path="url(#p60c34a16f9)">
     <use xlink:href="#m9e02fb973d" x="0" y="361.333136" style="fill: #ff7f0e; fill-opacity: 0.2; stroke: #ff7f0e; stroke-opacity: 0.2"/>
    </g>
   </g>
   <g id="matplotlib.axis_1">
    <g id="text_1">
     <text style="font: 10px 'Arial', sans-serif; text-anchor: middle" x="227.411283" y="296.533792" transform="rotate(-0 227.411283 296.533792)">Time</text>
    </g>
   </g>
   <g id="matplotlib.axis_2">
    <g id="ytick_1">
     <g id="line2d_1">
      <defs>
       <path id="ma0f402d889" d="M 0 0 
L -3.5 0 
" style="stroke: #000000; stroke-width: 0.8"/>
      </defs>
      <g>
       <use xlink:href="#ma0f402d889" x="48.851283" y="244.608651" style="stroke: #000000; stroke-width: 0.8"/>
      </g>
     </g>
     <g id="text_2">
      <text style="font: 10px 'Arial', sans-serif; text-anchor: end" x="41.851283" y="248.187557" transform="rotate(-0 41.851283 248.187557)">−0.2</text>
     </g>
    </g>
    <g id="ytick_2">
     <g id="line2d_2">
      <g>
       <use xlink:href="#ma0f402d889" x="48.851283" y="202.690201" style="stroke: #000000; stroke-width: 0.8"/>
      </g>
     </g>
     <g id="text_3">
      <text style="font: 10px 'Arial', sans-serif; text-anchor: end" x="41.851283" y="206.269107" transform="rotate(-0 41.851283 206.269107)">0.0</text>
     </g>
    </g>
    <g id="ytick_3">
     <g id="line2d_3">
      <g>
       <use xlink:href="#ma0f402d889" x="48.851283" y="160.771751" style="stroke: #000000; stroke-width: 0.8"/>
      </g>
     </g>
     <g id="text_4">
      <text style="font: 10px 'Arial', sans-serif; text-anchor: end" x="41.851283" y="164.350657" transform="rotate(-0 41.851283 164.350657)">0.2</text>
     </g>
    </g>
    <g id="ytick_4">
     <g id="line2d_4">
      <g>
       <use xlink:href="#ma0f402d889" x="48.851283" y="118.8533" style="stroke: #000000; stroke-width: 0.8"/>
      </g>
     </g>
     <g id="text_5">
      <text style="font: 10px 'Arial', sans-serif; text-anchor: end" x="41.851283" y="122.432207" transform="rotate(-0 41.851283 122.432207)">0.4</text>
     </g>
    </g>
    <g id="ytick_5">
     <g id="line2d_5">
      <g>
       <use xlink:href="#ma0f402d889" x="48.851283" y="76.93485" style="stroke: #000000; stroke-width: 0.8"/>
      </g>
     </g>
     <g id="text_6">
      <text style="font: 10px 'Arial', sans-serif; text-anchor: end" x="41.851283" y="80.513756" transform="rotate(-0 41.851283 80.513756)">0.6</text>
     </g>
    </g>
    <g id="ytick_6">
     <g id="line2d_6">
      <g>
       <use xlink:href="#ma0f402d889" x="48.851283" y="35.0164" style="stroke: #000000; stroke-width: 0.8"/>
      </g>
     </g>
     <g id="text_7">
      <text style="font: 10px 'Arial', sans-serif; text-anchor: end" x="41.851283" y="38.595306" transform="rotate(-0 41.851283 38.595306)">0.8</text>
     </g>
    </g>
    <g id="text_8">
     <text style="font: 10px 'Arial', sans-serif; text-anchor: middle" x="16.005971" y="152.31998" transform="rotate(-90 16.005971 152.31998)">Activity</text>
    </g>
   </g>
   <g id="line2d_7">
    <path d="M 48.851283 200.573617 
L 60.011283 207.101873 
L 71.171283 206.95941 
L 82.331283 204.148046 
L 93.491283 207.434025 
L 104.651283 211.84694 
L 115.811283 218.442738 
L 126.971283 226.937947 
L 138.131283 233.996639 
L 149.291283 226.132036 
L 160.451283 217.776253 
L 171.611283 220.50276 
L 182.771283 223.034565 
L 193.931283 223.983729 
L 205.091283 224.980196 
L 216.251283 220.008414 
L 227.411283 224.646623 
L 238.571283 235.652427 
L 249.731283 238.825947 
L 260.891283 242.156612 
L 272.051283 252.170997 
L 283.211283 257.855846 
L 294.371283 263.019605 
L 305.531283 260.581248 
L 316.691283 254.602648 
L 327.851283 249.414801 
L 339.011283 247.805049 
L 350.171283 251.245808 
L 361.331283 253.371152 
L 372.491283 250.299844 
L 383.651283 239.597448 
L 394.811283 223.884118 
L 405.971283 201.303943 
" clip-path="url(#p60c34a16f9)" style="fill: none; stroke: #1f77b4; stroke-width: 1.5; stroke-linecap: square"/>
   </g>
   <g id="line2d_8">
    <path d="M 48.851283 167.788593 
L 60.011283 173.549864 
L 71.171283 181.132779 
L 82.331283 185.245879 
L 93.491283 184.132998 
L 104.651283 178.795227 
L 115.811283 173.469251 
L 126.971283 173.444275 
L 138.131283 175.122975 
L 149.291283 172.184152 
L 160.451283 173.550145 
L 171.611283 185.054615 
L 182.771283 197.610752 
L 193.931283 204.586701 
L 205.091283 210.142799 
L 216.251283 208.795966 
L 227.411283 205.441503 
L 238.571283 208.23732 
L 249.731283 216.449942 
L 260.891283 227.653801 
L 272.051283 234.920429 
L 283.211283 234.051591 
L 294.371283 234.819619 
L 305.531283 240.928966 
L 316.691283 240.400011 
L 327.851283 241.746022 
L 339.011283 243.665958 
L 350.171283 236.626397 
L 361.331283 217.862088 
L 372.491283 195.654008 
L 383.651283 157.732545 
L 394.811283 113.811388 
L 405.971283 62.311461 
" clip-path="url(#p60c34a16f9)" style="fill: none; stroke: #ff7f0e; stroke-width: 1.5; stroke-linecap: square"/>
   </g>
   <g id="line2d_9">
    <path d="M 82.331283 285.37598 
L 82.331283 19.26398 
" clip-path="url(#p60c34a16f9)" style="fill: none; stroke-dasharray: 5.55,2.4; stroke-dashoffset: 0; stroke: #000000; stroke-opacity: 0.5; stroke-width: 1.5"/>
   </g>
   <g id="line2d_10">
    <path d="M 383.651283 285.37598 
L 383.651283 19.26398 
" clip-path="url(#p60c34a16f9)" style="fill: none; stroke-dasharray: 5.55,2.4; stroke-dashoffset: 0; stroke: #000000; stroke-opacity: 0.5; stroke-width: 1.5"/>
   </g>
   <g id="patch_3">
    <path d="M 48.851283 285.37598 
L 405.971283 285.37598 
" style="fill: none; stroke: #000000; stroke-width: 0.8; stroke-linejoin: miter; stroke-linecap: square"/>
   </g>
   <g id="text_9">
    <text style="font: 6.94px 'Arial', sans-serif" transform="translate(10.097767 321.385533) rotate(-35)">-0.1s Sampling</text>
   </g>
   <g id="text_10">
    <text style="font: 6.94px 'Arial', sans-serif" transform="translate(57.794497 311.430872) rotate(-35)">Sampling</text>
   </g>
   <g id="text_11">
    <text style="font: 6.94px 'Arial', sans-serif" transform="translate(319.037191 339.456682) rotate(-35)">Movement to Lateral Port</text>
   </g>
   <g id="text_12">
    <text style="font: 8.33px 'Arial', sans-serif; text-anchor: middle" x="227.411283" y="13.26398" transform="rotate(-0 227.411283 13.26398)">GP4_23_s7_L50_D250_ALM - Trace:83_GP4_23_s7_L50_D250_ALM (when: correct)</text>
   </g>
   <g id="legend_1">
    <g id="patch_4">
     <path d="M 133.696342 354.133136 
L 321.126224 354.133136 
Q 322.514224 354.133136 322.514224 352.745136 
L 322.514224 343.45638 
Q 322.514224 342.06838 321.126224 342.06838 
L 133.696342 342.06838 
Q 132.308342 342.06838 132.308342 343.45638 
L 132.308342 352.745136 
Q 132.308342 354.133136 133.696342 354.133136 
z
" style="fill: #ffffff; opacity: 0.8; stroke: #cccccc; stroke-linejoin: miter"/>
    </g>
    <g id="line2d_11">
     <path d="M 135.084342 347.467483 
L 142.024342 347.467483 
L 148.964342 347.467483 
" style="fill: none; stroke: #1f77b4; stroke-width: 1.5; stroke-linecap: square"/>
    </g>
    <g id="text_13">
     <text style="font: 6.94px 'Arial', sans-serif; text-anchor: start" x="154.516342" y="349.896483" transform="rotate(-0 154.516342 349.896483)">DecisionRight (88 pts)</text>
    </g>
    <g id="line2d_12">
     <path d="M 236.664255 347.467483 
L 243.604255 347.467483 
L 250.544255 347.467483 
" style="fill: none; stroke: #ff7f0e; stroke-width: 1.5; stroke-linecap: square"/>
    </g>
    <g id="text_14">
     <text style="font: 6.94px 'Arial', sans-serif; text-anchor: start" x="256.096255" y="349.896483" transform="rotate(-0 256.096255 349.896483)">DecisionLeft (87 pts)</text>
    </g>
   </g>
  </g>
 </g>
 <defs>
  <clipPath id="p60c34a16f9">
   <rect x="48.851283" y="19.26398" width="357.12" height="266.112"/>
  </clipPath>
 </defs>
</svg>
