<?xml version="1.0" encoding="utf-8" standalone="no"?>
<!DOCTYPE svg PUBLIC "-//W3C//DTD SVG 1.1//EN"
  "http://www.w3.org/Graphics/SVG/1.1/DTD/svg11.dtd">
<svg xmlns:xlink="http://www.w3.org/1999/xlink" width="413.171283pt" height="361.333136pt" viewBox="0 0 413.171283 361.333136" xmlns="http://www.w3.org/2000/svg" version="1.1">
 <metadata>
  <rdf:RDF xmlns:dc="http://purl.org/dc/elements/1.1/" xmlns:cc="http://creativecommons.org/ns#" xmlns:rdf="http://www.w3.org/1999/02/22-rdf-syntax-ns#">
   <cc:Work>
    <dc:type rdf:resource="http://purl.org/dc/dcmitype/StillImage"/>
    <dc:date>2025-12-29T04:07:08.337545</dc:date>
    <dc:format>image/svg+xml</dc:format>
    <dc:creator>
     <cc:Agent>
      <dc:title>Matplotlib v3.8.0, https://matplotlib.org/</dc:title>
     </cc:Agent>
    </dc:creator>
   </cc:Work>
  </rdf:RDF>
 </metadata>
 <defs>
  <style type="text/css">*{stroke-linejoin: round; stroke-linecap: butt}</style>
 </defs>
 <g id="figure_1">
  <g id="patch_1">
   <path d="M 0 361.333136 
L 413.171283 361.333136 
L 413.171283 -0 
L 0 -0 
z
" style="fill: #ffffff"/>
  </g>
  <g id="axes_1">
   <g id="patch_2">
    <path d="M 48.851283 285.37598 
L 405.971283 285.37598 
L 405.971283 19.26398 
L 48.851283 19.26398 
z
" style="fill: #ffffff"/>
   </g>
   <g id="PolyCollection_1">
    <defs>
     <path id="m0ef5aa3b61" d="M 48.851283 -326.880817 
L 48.851283 -240.372875 
L 60.011283 -238.490127 
L 71.171283 -235.230584 
L 82.331283 -223.409232 
L 93.491283 -214.965372 
L 104.651283 -205.836622 
L 115.811283 -192.561203 
L 126.971283 -180.880223 
L 138.131283 -173.758536 
L 149.291283 -164.299623 
L 160.451283 -160.948104 
L 171.611283 -158.198304 
L 182.771283 -147.482987 
L 193.931283 -137.242987 
L 205.091283 -134.203536 
L 216.251283 -134.461834 
L 227.411283 -132.413596 
L 238.571283 -128.023458 
L 249.731283 -127.363419 
L 260.891283 -123.019477 
L 272.051283 -118.590161 
L 283.211283 -116.656133 
L 294.371283 -117.037543 
L 305.531283 -114.890663 
L 316.691283 -111.100745 
L 327.851283 -108.524053 
L 339.011283 -105.109587 
L 350.171283 -99.070526 
L 361.331283 -97.223084 
L 372.491283 -95.707921 
L 383.651283 -94.704365 
L 394.811283 -92.589699 
L 405.971283 -88.053156 
L 405.971283 -117.963973 
L 405.971283 -117.963973 
L 394.811283 -122.669173 
L 383.651283 -122.691058 
L 372.491283 -121.717823 
L 361.331283 -123.746308 
L 350.171283 -126.182569 
L 339.011283 -133.935712 
L 327.851283 -138.316268 
L 316.691283 -139.756097 
L 305.531283 -142.932607 
L 294.371283 -145.36919 
L 283.211283 -145.868611 
L 272.051283 -148.051412 
L 260.891283 -153.775149 
L 249.731283 -160.447588 
L 238.571283 -165.589238 
L 227.411283 -173.557184 
L 216.251283 -176.498216 
L 205.091283 -177.762805 
L 193.931283 -186.029095 
L 182.771283 -200.102386 
L 171.611283 -210.812829 
L 160.451283 -216.777123 
L 149.291283 -223.3081 
L 138.131283 -236.125112 
L 126.971283 -246.732331 
L 115.811283 -262.572488 
L 104.651283 -283.649686 
L 93.491283 -295.271315 
L 82.331283 -304.669777 
L 71.171283 -320.201862 
L 60.011283 -324.519682 
L 48.851283 -326.880817 
z
" style="stroke: #1f77b4; stroke-opacity: 0.2"/>
    </defs>
    <g clip-path="url(#pb58f386b25)">
     <use xlink:href="#m0ef5aa3b61" x="0" y="361.333136" style="fill: #1f77b4; fill-opacity: 0.2; stroke: #1f77b4; stroke-opacity: 0.2"/>
    </g>
   </g>
   <g id="PolyCollection_2">
    <defs>
     <path id="m44bc74631a" d="M 48.851283 -329.973156 
L 48.851283 -252.7327 
L 60.011283 -250.169022 
L 71.171283 -249.145079 
L 82.331283 -240.263216 
L 93.491283 -227.592076 
L 104.651283 -217.998962 
L 115.811283 -214.37616 
L 126.971283 -203.715469 
L 138.131283 -190.289489 
L 149.291283 -175.286754 
L 160.451283 -167.428917 
L 171.611283 -164.44689 
L 182.771283 -157.659812 
L 193.931283 -147.934741 
L 205.091283 -144.829522 
L 216.251283 -137.798406 
L 227.411283 -131.978911 
L 238.571283 -131.679176 
L 249.731283 -133.426298 
L 260.891283 -130.390046 
L 272.051283 -122.455397 
L 283.211283 -117.671048 
L 294.371283 -114.024675 
L 305.531283 -110.670558 
L 316.691283 -106.511069 
L 327.851283 -108.751452 
L 339.011283 -112.110944 
L 350.171283 -115.265858 
L 361.331283 -118.713937 
L 372.491283 -119.627515 
L 383.651283 -124.508389 
L 394.811283 -127.716032 
L 405.971283 -128.937258 
L 405.971283 -171.704555 
L 405.971283 -171.704555 
L 394.811283 -169.684137 
L 383.651283 -164.280964 
L 372.491283 -154.583611 
L 361.331283 -153.862989 
L 350.171283 -148.559603 
L 339.011283 -146.47621 
L 327.851283 -143.072355 
L 316.691283 -139.777403 
L 305.531283 -141.665555 
L 294.371283 -142.405488 
L 283.211283 -143.604833 
L 272.051283 -149.208334 
L 260.891283 -159.375714 
L 249.731283 -164.557545 
L 238.571283 -166.135523 
L 227.411283 -171.341522 
L 216.251283 -182.049284 
L 205.091283 -190.444333 
L 193.931283 -192.016064 
L 182.771283 -201.349382 
L 171.611283 -210.830274 
L 160.451283 -219.100866 
L 149.291283 -232.084348 
L 138.131283 -250.473439 
L 126.971283 -267.935224 
L 115.811283 -282.511277 
L 104.651283 -288.185143 
L 93.491283 -298.410924 
L 82.331283 -311.239893 
L 71.171283 -321.267739 
L 60.011283 -325.236361 
L 48.851283 -329.973156 
z
" style="stroke: #ff7f0e; stroke-opacity: 0.2"/>
    </defs>
    <g clip-path="url(#pb58f386b25)">
     <use xlink:href="#m44bc74631a" x="0" y="361.333136" style="fill: #ff7f0e; fill-opacity: 0.2; stroke: #ff7f0e; stroke-opacity: 0.2"/>
    </g>
   </g>
   <g id="matplotlib.axis_1">
    <g id="text_1">
     <text style="font: 10px 'Arial', sans-serif; text-anchor: middle" x="227.411283" y="296.533792" transform="rotate(-0 227.411283 296.533792)">Time</text>
    </g>
   </g>
   <g id="matplotlib.axis_2">
    <g id="ytick_1">
     <g id="line2d_1">
      <defs>
       <path id="m21bfefa19d" d="M 0 0 
L -3.5 0 
" style="stroke: #000000; stroke-width: 0.8"/>
      </defs>
      <g>
       <use xlink:href="#m21bfefa19d" x="48.851283" y="278.348742" style="stroke: #000000; stroke-width: 0.8"/>
      </g>
     </g>
     <g id="text_2">
      <text style="font: 10px 'Arial', sans-serif; text-anchor: end" x="41.851283" y="281.927648" transform="rotate(-0 41.851283 281.927648)">−0.2</text>
     </g>
    </g>
    <g id="ytick_2">
     <g id="line2d_2">
      <g>
       <use xlink:href="#m21bfefa19d" x="48.851283" y="233.920318" style="stroke: #000000; stroke-width: 0.8"/>
      </g>
     </g>
     <g id="text_3">
      <text style="font: 10px 'Arial', sans-serif; text-anchor: end" x="41.851283" y="237.499224" transform="rotate(-0 41.851283 237.499224)">0.0</text>
     </g>
    </g>
    <g id="ytick_3">
     <g id="line2d_3">
      <g>
       <use xlink:href="#m21bfefa19d" x="48.851283" y="189.491894" style="stroke: #000000; stroke-width: 0.8"/>
      </g>
     </g>
     <g id="text_4">
      <text style="font: 10px 'Arial', sans-serif; text-anchor: end" x="41.851283" y="193.0708" transform="rotate(-0 41.851283 193.0708)">0.2</text>
     </g>
    </g>
    <g id="ytick_4">
     <g id="line2d_4">
      <g>
       <use xlink:href="#m21bfefa19d" x="48.851283" y="145.063471" style="stroke: #000000; stroke-width: 0.8"/>
      </g>
     </g>
     <g id="text_5">
      <text style="font: 10px 'Arial', sans-serif; text-anchor: end" x="41.851283" y="148.642377" transform="rotate(-0 41.851283 148.642377)">0.4</text>
     </g>
    </g>
    <g id="ytick_5">
     <g id="line2d_5">
      <g>
       <use xlink:href="#m21bfefa19d" x="48.851283" y="100.635047" style="stroke: #000000; stroke-width: 0.8"/>
      </g>
     </g>
     <g id="text_6">
      <text style="font: 10px 'Arial', sans-serif; text-anchor: end" x="41.851283" y="104.213953" transform="rotate(-0 41.851283 104.213953)">0.6</text>
     </g>
    </g>
    <g id="ytick_6">
     <g id="line2d_6">
      <g>
       <use xlink:href="#m21bfefa19d" x="48.851283" y="56.206623" style="stroke: #000000; stroke-width: 0.8"/>
      </g>
     </g>
     <g id="text_7">
      <text style="font: 10px 'Arial', sans-serif; text-anchor: end" x="41.851283" y="59.785529" transform="rotate(-0 41.851283 59.785529)">0.8</text>
     </g>
    </g>
    <g id="text_8">
     <text style="font: 10px 'Arial', sans-serif; text-anchor: middle" x="16.005971" y="152.31998" transform="rotate(-90 16.005971 152.31998)">Activity</text>
    </g>
   </g>
   <g id="line2d_7">
    <path d="M 48.851283 77.70629 
L 60.011283 79.828232 
L 71.171283 83.616913 
L 82.331283 97.293631 
L 93.491283 106.214793 
L 104.651283 116.589982 
L 115.811283 133.76629 
L 126.971283 147.526855 
L 138.131283 156.391314 
L 149.291283 167.529273 
L 160.451283 172.470524 
L 171.611283 176.827569 
L 182.771283 187.540449 
L 193.931283 199.697095 
L 205.091283 205.349965 
L 216.251283 205.853111 
L 227.411283 208.347746 
L 238.571283 214.526787 
L 249.731283 217.427632 
L 260.891283 222.935823 
L 272.051283 228.012349 
L 283.211283 230.070764 
L 294.371283 230.12977 
L 305.531283 232.421501 
L 316.691283 235.904715 
L 327.851283 237.912976 
L 339.011283 241.810486 
L 350.171283 248.706589 
L 361.331283 250.84844 
L 372.491283 252.620264 
L 383.651283 252.635425 
L 394.811283 253.703699 
L 405.971283 258.324572 
" clip-path="url(#pb58f386b25)" style="fill: none; stroke: #1f77b4; stroke-width: 1.5; stroke-linecap: square"/>
   </g>
   <g id="line2d_8">
    <path d="M 48.851283 69.980208 
L 60.011283 73.630444 
L 71.171283 76.126727 
L 82.331283 85.581581 
L 93.491283 98.331636 
L 104.651283 108.241083 
L 115.811283 112.889417 
L 126.971283 125.507793 
L 138.131283 140.951668 
L 149.291283 157.647585 
L 160.451283 168.068242 
L 171.611283 173.694554 
L 182.771283 181.828539 
L 193.931283 191.357734 
L 205.091283 193.69621 
L 216.251283 201.40929 
L 227.411283 209.67292 
L 238.571283 212.425788 
L 249.731283 212.341214 
L 260.891283 216.450256 
L 272.051283 225.50127 
L 283.211283 230.695196 
L 294.371283 233.118054 
L 305.531283 235.16508 
L 316.691283 238.1889 
L 327.851283 235.421233 
L 339.011283 232.039558 
L 350.171283 229.420406 
L 361.331283 225.044673 
L 372.491283 224.227573 
L 383.651283 216.938459 
L 394.811283 212.633051 
L 405.971283 211.01223 
" clip-path="url(#pb58f386b25)" style="fill: none; stroke: #ff7f0e; stroke-width: 1.5; stroke-linecap: square"/>
   </g>
   <g id="line2d_9">
    <path d="M 82.331283 285.37598 
L 82.331283 19.26398 
" clip-path="url(#pb58f386b25)" style="fill: none; stroke-dasharray: 5.55,2.4; stroke-dashoffset: 0; stroke: #000000; stroke-opacity: 0.5; stroke-width: 1.5"/>
   </g>
   <g id="line2d_10">
    <path d="M 383.651283 285.37598 
L 383.651283 19.26398 
" clip-path="url(#pb58f386b25)" style="fill: none; stroke-dasharray: 5.55,2.4; stroke-dashoffset: 0; stroke: #000000; stroke-opacity: 0.5; stroke-width: 1.5"/>
   </g>
   <g id="patch_3">
    <path d="M 48.851283 285.37598 
L 405.971283 285.37598 
" style="fill: none; stroke: #000000; stroke-width: 0.8; stroke-linejoin: miter; stroke-linecap: square"/>
   </g>
   <g id="text_9">
    <text style="font: 6.94px 'Arial', sans-serif" transform="translate(10.097767 321.385533) rotate(-35)">-0.1s Sampling</text>
   </g>
   <g id="text_10">
    <text style="font: 6.94px 'Arial', sans-serif" transform="translate(57.794497 311.430872) rotate(-35)">Sampling</text>
   </g>
   <g id="text_11">
    <text style="font: 6.94px 'Arial', sans-serif" transform="translate(319.037191 339.456682) rotate(-35)">Movement to Lateral Port</text>
   </g>
   <g id="text_12">
    <text style="font: 8.33px 'Arial', sans-serif; text-anchor: middle" x="227.411283" y="13.26398" transform="rotate(-0 227.411283 13.26398)">GP4_23_s7_L50_D250_ALM - Trace:9_GP4_23_s7_L50_D250_ALM (when: correct)</text>
   </g>
   <g id="legend_1">
    <g id="patch_4">
     <path d="M 133.696342 354.133136 
L 321.126224 354.133136 
Q 322.514224 354.133136 322.514224 352.745136 
L 322.514224 343.45638 
Q 322.514224 342.06838 321.126224 342.06838 
L 133.696342 342.06838 
Q 132.308342 342.06838 132.308342 343.45638 
L 132.308342 352.745136 
Q 132.308342 354.133136 133.696342 354.133136 
z
" style="fill: #ffffff; opacity: 0.8; stroke: #cccccc; stroke-linejoin: miter"/>
    </g>
    <g id="line2d_11">
     <path d="M 135.084342 347.467483 
L 142.024342 347.467483 
L 148.964342 347.467483 
" style="fill: none; stroke: #1f77b4; stroke-width: 1.5; stroke-linecap: square"/>
    </g>
    <g id="text_13">
     <text style="font: 6.94px 'Arial', sans-serif; text-anchor: start" x="154.516342" y="349.896483" transform="rotate(-0 154.516342 349.896483)">DecisionRight (88 pts)</text>
    </g>
    <g id="line2d_12">
     <path d="M 236.664255 347.467483 
L 243.604255 347.467483 
L 250.544255 347.467483 
" style="fill: none; stroke: #ff7f0e; stroke-width: 1.5; stroke-linecap: square"/>
    </g>
    <g id="text_14">
     <text style="font: 6.94px 'Arial', sans-serif; text-anchor: start" x="256.096255" y="349.896483" transform="rotate(-0 256.096255 349.896483)">DecisionLeft (87 pts)</text>
    </g>
   </g>
  </g>
 </g>
 <defs>
  <clipPath id="pb58f386b25">
   <rect x="48.851283" y="19.26398" width="357.12" height="266.112"/>
  </clipPath>
 </defs>
</svg>
