<?xml version="1.0" encoding="utf-8" standalone="no"?>
<!DOCTYPE svg PUBLIC "-//W3C//DTD SVG 1.1//EN"
  "http://www.w3.org/Graphics/SVG/1.1/DTD/svg11.dtd">
<svg xmlns:xlink="http://www.w3.org/1999/xlink" width="413.171283pt" height="361.333136pt" viewBox="0 0 413.171283 361.333136" xmlns="http://www.w3.org/2000/svg" version="1.1">
 <metadata>
  <rdf:RDF xmlns:dc="http://purl.org/dc/elements/1.1/" xmlns:cc="http://creativecommons.org/ns#" xmlns:rdf="http://www.w3.org/1999/02/22-rdf-syntax-ns#">
   <cc:Work>
    <dc:type rdf:resource="http://purl.org/dc/dcmitype/StillImage"/>
    <dc:date>2025-12-29T04:07:24.835492</dc:date>
    <dc:format>image/svg+xml</dc:format>
    <dc:creator>
     <cc:Agent>
      <dc:title>Matplotlib v3.8.0, https://matplotlib.org/</dc:title>
     </cc:Agent>
    </dc:creator>
   </cc:Work>
  </rdf:RDF>
 </metadata>
 <defs>
  <style type="text/css">*{stroke-linejoin: round; stroke-linecap: butt}</style>
 </defs>
 <g id="figure_1">
  <g id="patch_1">
   <path d="M 0 361.333136 
L 413.171283 361.333136 
L 413.171283 -0 
L 0 -0 
z
" style="fill: #ffffff"/>
  </g>
  <g id="axes_1">
   <g id="patch_2">
    <path d="M 48.851283 285.37598 
L 405.971283 285.37598 
L 405.971283 19.26398 
L 48.851283 19.26398 
z
" style="fill: #ffffff"/>
   </g>
   <g id="PolyCollection_1">
    <defs>
     <path id="ma74b940531" d="M 48.851283 -128.229227 
L 48.851283 -105.521234 
L 60.011283 -115.403137 
L 71.171283 -131.073821 
L 82.331283 -149.015996 
L 93.491283 -156.566968 
L 104.651283 -172.141033 
L 115.811283 -189.703602 
L 126.971283 -213.633348 
L 138.131283 -235.714605 
L 149.291283 -244.848639 
L 160.451283 -249.986079 
L 171.611283 -256.487006 
L 182.771283 -260.424712 
L 193.931283 -265.87352 
L 205.091283 -259.413686 
L 216.251283 -252.360481 
L 227.411283 -249.455314 
L 238.571283 -240.996269 
L 249.731283 -243.163595 
L 260.891283 -244.398558 
L 272.051283 -232.466194 
L 283.211283 -225.405178 
L 294.371283 -222.844621 
L 305.531283 -219.930595 
L 316.691283 -212.551134 
L 327.851283 -209.088282 
L 339.011283 -212.922719 
L 350.171283 -225.979777 
L 361.331283 -253.04807 
L 372.491283 -281.711327 
L 383.651283 -286.714038 
L 394.811283 -266.936059 
L 405.971283 -250.322739 
L 405.971283 -282.606323 
L 405.971283 -282.606323 
L 394.811283 -304.809136 
L 383.651283 -329.973156 
L 372.491283 -322.881777 
L 361.331283 -292.443574 
L 350.171283 -262.687048 
L 339.011283 -247.419719 
L 327.851283 -242.686479 
L 316.691283 -245.381037 
L 305.531283 -252.519693 
L 294.371283 -256.557669 
L 283.211283 -260.526284 
L 272.051283 -270.309434 
L 260.891283 -283.082483 
L 249.731283 -278.56832 
L 238.571283 -276.592958 
L 227.411283 -288.989955 
L 216.251283 -293.160381 
L 205.091283 -301.60552 
L 193.931283 -309.802557 
L 182.771283 -300.204515 
L 171.611283 -294.810705 
L 160.451283 -288.069593 
L 149.291283 -278.356587 
L 138.131283 -268.203438 
L 126.971283 -245.846373 
L 115.811283 -218.722863 
L 104.651283 -196.226416 
L 93.491283 -178.119837 
L 82.331283 -168.309301 
L 71.171283 -149.321141 
L 60.011283 -135.711788 
L 48.851283 -128.229227 
z
" style="stroke: #1f77b4; stroke-opacity: 0.2"/>
    </defs>
    <g clip-path="url(#pde707fed9b)">
     <use xlink:href="#ma74b940531" x="0" y="361.333136" style="fill: #1f77b4; fill-opacity: 0.2; stroke: #1f77b4; stroke-opacity: 0.2"/>
    </g>
   </g>
   <g id="PolyCollection_2">
    <defs>
     <path id="mf4e599bec0" d="M 48.851283 -107.053518 
L 48.851283 -88.053156 
L 60.011283 -105.529654 
L 71.171283 -122.620599 
L 82.331283 -136.778222 
L 93.491283 -142.761843 
L 104.651283 -145.423476 
L 115.811283 -157.410267 
L 126.971283 -181.306114 
L 138.131283 -196.279805 
L 149.291283 -206.599589 
L 160.451283 -216.826839 
L 171.611283 -231.344667 
L 182.771283 -241.437783 
L 193.931283 -245.502421 
L 205.091283 -238.941955 
L 216.251283 -230.998226 
L 227.411283 -224.66737 
L 238.571283 -220.458604 
L 249.731283 -219.172545 
L 260.891283 -211.765711 
L 272.051283 -208.044116 
L 283.211283 -207.790787 
L 294.371283 -200.550818 
L 305.531283 -192.541628 
L 316.691283 -196.045968 
L 327.851283 -206.937387 
L 339.011283 -217.229367 
L 350.171283 -236.02096 
L 361.331283 -252.11953 
L 372.491283 -259.382541 
L 383.651283 -242.482626 
L 394.811283 -207.916282 
L 405.971283 -180.550972 
L 405.971283 -206.51798 
L 405.971283 -206.51798 
L 394.811283 -236.893409 
L 383.651283 -278.315011 
L 372.491283 -298.428654 
L 361.331283 -289.872342 
L 350.171283 -273.15261 
L 339.011283 -252.082206 
L 327.851283 -240.151107 
L 316.691283 -228.137005 
L 305.531283 -224.236046 
L 294.371283 -232.632372 
L 283.211283 -239.150548 
L 272.051283 -240.425429 
L 260.891283 -246.840669 
L 249.731283 -256.353286 
L 238.571283 -256.41607 
L 227.411283 -259.363039 
L 216.251283 -266.395214 
L 205.091283 -275.95441 
L 193.931283 -284.034216 
L 182.771283 -280.442409 
L 171.611283 -265.366634 
L 160.451283 -248.291958 
L 149.291283 -235.995363 
L 138.131283 -226.339157 
L 126.971283 -210.183589 
L 115.811283 -180.711057 
L 104.651283 -164.150813 
L 93.491283 -159.458689 
L 82.331283 -154.784971 
L 71.171283 -140.548689 
L 60.011283 -123.874754 
L 48.851283 -107.053518 
z
" style="stroke: #ff7f0e; stroke-opacity: 0.2"/>
    </defs>
    <g clip-path="url(#pde707fed9b)">
     <use xlink:href="#mf4e599bec0" x="0" y="361.333136" style="fill: #ff7f0e; fill-opacity: 0.2; stroke: #ff7f0e; stroke-opacity: 0.2"/>
    </g>
   </g>
   <g id="matplotlib.axis_1">
    <g id="text_1">
     <text style="font: 10px 'Arial', sans-serif; text-anchor: middle" x="227.411283" y="296.533792" transform="rotate(-0 227.411283 296.533792)">Time</text>
    </g>
   </g>
   <g id="matplotlib.axis_2">
    <g id="ytick_1">
     <g id="line2d_1">
      <defs>
       <path id="m551e200aeb" d="M 0 0 
L -3.5 0 
" style="stroke: #000000; stroke-width: 0.8"/>
      </defs>
      <g>
       <use xlink:href="#m551e200aeb" x="48.851283" y="278.798996" style="stroke: #000000; stroke-width: 0.8"/>
      </g>
     </g>
     <g id="text_2">
      <text style="font: 10px 'Arial', sans-serif; text-anchor: end" x="41.851283" y="282.377902" transform="rotate(-0 41.851283 282.377902)">−0.6</text>
     </g>
    </g>
    <g id="ytick_2">
     <g id="line2d_2">
      <g>
       <use xlink:href="#m551e200aeb" x="48.851283" y="243.570262" style="stroke: #000000; stroke-width: 0.8"/>
      </g>
     </g>
     <g id="text_3">
      <text style="font: 10px 'Arial', sans-serif; text-anchor: end" x="41.851283" y="247.149169" transform="rotate(-0 41.851283 247.149169)">−0.4</text>
     </g>
    </g>
    <g id="ytick_3">
     <g id="line2d_3">
      <g>
       <use xlink:href="#m551e200aeb" x="48.851283" y="208.341529" style="stroke: #000000; stroke-width: 0.8"/>
      </g>
     </g>
     <g id="text_4">
      <text style="font: 10px 'Arial', sans-serif; text-anchor: end" x="41.851283" y="211.920436" transform="rotate(-0 41.851283 211.920436)">−0.2</text>
     </g>
    </g>
    <g id="ytick_4">
     <g id="line2d_4">
      <g>
       <use xlink:href="#m551e200aeb" x="48.851283" y="173.112796" style="stroke: #000000; stroke-width: 0.8"/>
      </g>
     </g>
     <g id="text_5">
      <text style="font: 10px 'Arial', sans-serif; text-anchor: end" x="41.851283" y="176.691702" transform="rotate(-0 41.851283 176.691702)">0.0</text>
     </g>
    </g>
    <g id="ytick_5">
     <g id="line2d_5">
      <g>
       <use xlink:href="#m551e200aeb" x="48.851283" y="137.884063" style="stroke: #000000; stroke-width: 0.8"/>
      </g>
     </g>
     <g id="text_6">
      <text style="font: 10px 'Arial', sans-serif; text-anchor: end" x="41.851283" y="141.462969" transform="rotate(-0 41.851283 141.462969)">0.2</text>
     </g>
    </g>
    <g id="ytick_6">
     <g id="line2d_6">
      <g>
       <use xlink:href="#m551e200aeb" x="48.851283" y="102.65533" style="stroke: #000000; stroke-width: 0.8"/>
      </g>
     </g>
     <g id="text_7">
      <text style="font: 10px 'Arial', sans-serif; text-anchor: end" x="41.851283" y="106.234236" transform="rotate(-0 41.851283 106.234236)">0.4</text>
     </g>
    </g>
    <g id="ytick_7">
     <g id="line2d_7">
      <g>
       <use xlink:href="#m551e200aeb" x="48.851283" y="67.426597" style="stroke: #000000; stroke-width: 0.8"/>
      </g>
     </g>
     <g id="text_8">
      <text style="font: 10px 'Arial', sans-serif; text-anchor: end" x="41.851283" y="71.005503" transform="rotate(-0 41.851283 71.005503)">0.6</text>
     </g>
    </g>
    <g id="ytick_8">
     <g id="line2d_8">
      <g>
       <use xlink:href="#m551e200aeb" x="48.851283" y="32.197863" style="stroke: #000000; stroke-width: 0.8"/>
      </g>
     </g>
     <g id="text_9">
      <text style="font: 10px 'Arial', sans-serif; text-anchor: end" x="41.851283" y="35.77677" transform="rotate(-0 41.851283 35.77677)">0.8</text>
     </g>
    </g>
    <g id="text_10">
     <text style="font: 10px 'Arial', sans-serif; text-anchor: middle" x="16.005971" y="152.31998" transform="rotate(-90 16.005971 152.31998)">Activity</text>
    </g>
   </g>
   <g id="line2d_9">
    <path d="M 48.851283 244.457905 
L 60.011283 235.775673 
L 71.171283 221.135653 
L 82.331283 202.670487 
L 93.491283 193.989733 
L 104.651283 177.149411 
L 115.811283 157.119904 
L 126.971283 131.593275 
L 138.131283 109.374115 
L 149.291283 99.730523 
L 160.451283 92.305302 
L 171.611283 85.684283 
L 182.771283 81.01852 
L 193.931283 73.495098 
L 205.091283 80.823533 
L 216.251283 88.572705 
L 227.411283 92.110504 
L 238.571283 102.538522 
L 249.731283 100.467178 
L 260.891283 97.592615 
L 272.051283 109.945322 
L 283.211283 118.367405 
L 294.371283 121.631989 
L 305.531283 125.107992 
L 316.691283 132.36705 
L 327.851283 135.445756 
L 339.011283 131.161917 
L 350.171283 116.999724 
L 361.331283 88.587314 
L 372.491283 59.036584 
L 383.651283 52.989539 
L 394.811283 75.460538 
L 405.971283 94.868608 
" clip-path="url(#pde707fed9b)" style="fill: none; stroke: #1f77b4; stroke-width: 1.5; stroke-linecap: square"/>
   </g>
   <g id="line2d_10">
    <path d="M 48.851283 263.779799 
L 60.011283 246.630932 
L 71.171283 229.748492 
L 82.331283 215.551539 
L 93.491283 210.222871 
L 104.651283 206.545992 
L 115.811283 192.272474 
L 126.971283 165.588284 
L 138.131283 150.023656 
L 149.291283 140.035661 
L 160.451283 128.773737 
L 171.611283 112.977486 
L 182.771283 100.39304 
L 193.931283 96.564818 
L 205.091283 103.884954 
L 216.251283 112.636416 
L 227.411283 119.31793 
L 238.571283 122.895799 
L 249.731283 123.570222 
L 260.891283 132.029946 
L 272.051283 137.098363 
L 283.211283 137.862469 
L 294.371283 144.741542 
L 305.531283 152.944299 
L 316.691283 149.24165 
L 327.851283 137.788889 
L 339.011283 126.677348 
L 350.171283 106.746351 
L 361.331283 90.3372 
L 372.491283 82.427536 
L 383.651283 100.934315 
L 394.811283 138.928291 
L 405.971283 167.79866 
" clip-path="url(#pde707fed9b)" style="fill: none; stroke: #ff7f0e; stroke-width: 1.5; stroke-linecap: square"/>
   </g>
   <g id="line2d_11">
    <path d="M 82.331283 285.37598 
L 82.331283 19.26398 
" clip-path="url(#pde707fed9b)" style="fill: none; stroke-dasharray: 5.55,2.4; stroke-dashoffset: 0; stroke: #000000; stroke-opacity: 0.5; stroke-width: 1.5"/>
   </g>
   <g id="line2d_12">
    <path d="M 383.651283 285.37598 
L 383.651283 19.26398 
" clip-path="url(#pde707fed9b)" style="fill: none; stroke-dasharray: 5.55,2.4; stroke-dashoffset: 0; stroke: #000000; stroke-opacity: 0.5; stroke-width: 1.5"/>
   </g>
   <g id="patch_3">
    <path d="M 48.851283 285.37598 
L 405.971283 285.37598 
" style="fill: none; stroke: #000000; stroke-width: 0.8; stroke-linejoin: miter; stroke-linecap: square"/>
   </g>
   <g id="text_11">
    <text style="font: 6.94px 'Arial', sans-serif" transform="translate(10.097767 321.385533) rotate(-35)">-0.1s Sampling</text>
   </g>
   <g id="text_12">
    <text style="font: 6.94px 'Arial', sans-serif" transform="translate(57.794497 311.430872) rotate(-35)">Sampling</text>
   </g>
   <g id="text_13">
    <text style="font: 6.94px 'Arial', sans-serif" transform="translate(319.037191 339.456682) rotate(-35)">Movement to Lateral Port</text>
   </g>
   <g id="text_14">
    <text style="font: 8.33px 'Arial', sans-serif; text-anchor: middle" x="227.411283" y="13.26398" transform="rotate(-0 227.411283 13.26398)">GP4_28_S2_L51_D250_M2L - Trace:112_GP4_28_S2_L51_D250_M2L (when: correct)</text>
   </g>
   <g id="legend_1">
    <g id="patch_4">
     <path d="M 131.766697 354.133136 
L 323.055869 354.133136 
Q 324.443869 354.133136 324.443869 352.745136 
L 324.443869 343.45638 
Q 324.443869 342.06838 323.055869 342.06838 
L 131.766697 342.06838 
Q 130.378697 342.06838 130.378697 343.45638 
L 130.378697 352.745136 
Q 130.378697 354.133136 131.766697 354.133136 
z
" style="fill: #ffffff; opacity: 0.8; stroke: #cccccc; stroke-linejoin: miter"/>
    </g>
    <g id="line2d_13">
     <path d="M 133.154697 347.467483 
L 140.094697 347.467483 
L 147.034697 347.467483 
" style="fill: none; stroke: #1f77b4; stroke-width: 1.5; stroke-linecap: square"/>
    </g>
    <g id="text_15">
     <text style="font: 6.94px 'Arial', sans-serif; text-anchor: start" x="152.586697" y="349.896483" transform="rotate(-0 152.586697 349.896483)">DecisionRight (99 pts)</text>
    </g>
    <g id="line2d_14">
     <path d="M 234.73461 347.467483 
L 241.67461 347.467483 
L 248.61461 347.467483 
" style="fill: none; stroke: #ff7f0e; stroke-width: 1.5; stroke-linecap: square"/>
    </g>
    <g id="text_16">
     <text style="font: 6.94px 'Arial', sans-serif; text-anchor: start" x="254.16661" y="349.896483" transform="rotate(-0 254.16661 349.896483)">DecisionLeft (102 pts)</text>
    </g>
   </g>
  </g>
 </g>
 <defs>
  <clipPath id="pde707fed9b">
   <rect x="48.851283" y="19.26398" width="357.12" height="266.112"/>
  </clipPath>
 </defs>
</svg>
