<?xml version="1.0" encoding="utf-8" standalone="no"?>
<!DOCTYPE svg PUBLIC "-//W3C//DTD SVG 1.1//EN"
  "http://www.w3.org/Graphics/SVG/1.1/DTD/svg11.dtd">
<svg xmlns:xlink="http://www.w3.org/1999/xlink" width="413.171283pt" height="361.333136pt" viewBox="0 0 413.171283 361.333136" xmlns="http://www.w3.org/2000/svg" version="1.1">
 <metadata>
  <rdf:RDF xmlns:dc="http://purl.org/dc/elements/1.1/" xmlns:cc="http://creativecommons.org/ns#" xmlns:rdf="http://www.w3.org/1999/02/22-rdf-syntax-ns#">
   <cc:Work>
    <dc:type rdf:resource="http://purl.org/dc/dcmitype/StillImage"/>
    <dc:date>2025-12-29T04:07:21.830846</dc:date>
    <dc:format>image/svg+xml</dc:format>
    <dc:creator>
     <cc:Agent>
      <dc:title>Matplotlib v3.8.0, https://matplotlib.org/</dc:title>
     </cc:Agent>
    </dc:creator>
   </cc:Work>
  </rdf:RDF>
 </metadata>
 <defs>
  <style type="text/css">*{stroke-linejoin: round; stroke-linecap: butt}</style>
 </defs>
 <g id="figure_1">
  <g id="patch_1">
   <path d="M 0 361.333136 
L 413.171283 361.333136 
L 413.171283 -0 
L 0 -0 
z
" style="fill: #ffffff"/>
  </g>
  <g id="axes_1">
   <g id="patch_2">
    <path d="M 48.851283 285.37598 
L 405.971283 285.37598 
L 405.971283 19.26398 
L 48.851283 19.26398 
z
" style="fill: #ffffff"/>
   </g>
   <g id="PolyCollection_1">
    <defs>
     <path id="med2bd4e1fb" d="M 48.851283 -162.912451 
L 48.851283 -120.340322 
L 60.011283 -124.508459 
L 71.171283 -132.435833 
L 82.331283 -138.216311 
L 93.491283 -151.990958 
L 104.651283 -163.766354 
L 115.811283 -175.046874 
L 126.971283 -203.727681 
L 138.131283 -230.510939 
L 149.291283 -247.799334 
L 160.451283 -256.87518 
L 171.611283 -259.385827 
L 182.771283 -263.273224 
L 193.931283 -266.3163 
L 205.091283 -260.737159 
L 216.251283 -260.736847 
L 227.411283 -254.470321 
L 238.571283 -246.885387 
L 249.731283 -239.077015 
L 260.891283 -232.966774 
L 272.051283 -231.162302 
L 283.211283 -227.500263 
L 294.371283 -223.250498 
L 305.531283 -216.003358 
L 316.691283 -210.571179 
L 327.851283 -211.98234 
L 339.011283 -213.186403 
L 350.171283 -211.656585 
L 361.331283 -218.085725 
L 372.491283 -228.878579 
L 383.651283 -225.508679 
L 394.811283 -204.519005 
L 405.971283 -179.834815 
L 405.971283 -229.701522 
L 405.971283 -229.701522 
L 394.811283 -260.088803 
L 383.651283 -286.022392 
L 372.491283 -289.741316 
L 361.331283 -274.627549 
L 350.171283 -265.503921 
L 339.011283 -267.326521 
L 327.851283 -267.358943 
L 316.691283 -267.633653 
L 305.531283 -272.218946 
L 294.371283 -276.70405 
L 283.211283 -280.794857 
L 272.051283 -285.9655 
L 260.891283 -287.297807 
L 249.731283 -292.540775 
L 238.571283 -300.006047 
L 227.411283 -306.732305 
L 216.251283 -314.848803 
L 205.091283 -313.686056 
L 193.931283 -318.529798 
L 182.771283 -317.564734 
L 171.611283 -314.217384 
L 160.451283 -310.700921 
L 149.291283 -302.732148 
L 138.131283 -283.171449 
L 126.971283 -255.289923 
L 115.811283 -225.037692 
L 104.651283 -211.988468 
L 93.491283 -198.779608 
L 82.331283 -186.616878 
L 71.171283 -181.132396 
L 60.011283 -170.937324 
L 48.851283 -162.912451 
z
" style="stroke: #1f77b4; stroke-opacity: 0.2"/>
    </defs>
    <g clip-path="url(#pa7adf07d44)">
     <use xlink:href="#med2bd4e1fb" x="0" y="361.333136" style="fill: #1f77b4; fill-opacity: 0.2; stroke: #1f77b4; stroke-opacity: 0.2"/>
    </g>
   </g>
   <g id="PolyCollection_2">
    <defs>
     <path id="m5e6eba2989" d="M 48.851283 -116.021513 
L 48.851283 -88.053156 
L 60.011283 -97.945654 
L 71.171283 -105.326145 
L 82.331283 -102.384946 
L 93.491283 -100.692207 
L 104.651283 -113.22055 
L 115.811283 -134.980428 
L 126.971283 -159.113746 
L 138.131283 -181.523691 
L 149.291283 -197.928686 
L 160.451283 -207.549899 
L 171.611283 -209.83306 
L 182.771283 -219.635257 
L 193.931283 -231.226667 
L 205.091283 -232.152512 
L 216.251283 -228.990161 
L 227.411283 -230.949076 
L 238.571283 -229.302973 
L 249.731283 -227.439532 
L 260.891283 -213.396513 
L 272.051283 -203.137999 
L 283.211283 -197.764616 
L 294.371283 -196.531047 
L 305.531283 -194.873267 
L 316.691283 -197.825773 
L 327.851283 -205.968592 
L 339.011283 -217.060834 
L 350.171283 -225.803538 
L 361.331283 -238.947901 
L 372.491283 -255.412153 
L 383.651283 -239.997304 
L 394.811283 -193.048517 
L 405.971283 -154.252561 
L 405.971283 -196.908813 
L 405.971283 -196.908813 
L 394.811283 -248.78463 
L 383.651283 -310.959164 
L 372.491283 -329.973156 
L 361.331283 -310.722497 
L 350.171283 -293.177533 
L 339.011283 -280.25137 
L 327.851283 -264.988663 
L 316.691283 -251.271197 
L 305.531283 -245.381298 
L 294.371283 -246.250379 
L 283.211283 -246.752213 
L 272.051283 -252.651966 
L 260.891283 -265.643527 
L 249.731283 -280.104275 
L 238.571283 -280.828282 
L 227.411283 -282.975375 
L 216.251283 -279.103501 
L 205.091283 -279.378985 
L 193.931283 -275.757343 
L 182.771283 -261.900126 
L 171.611283 -253.82325 
L 160.451283 -249.624809 
L 149.291283 -239.006893 
L 138.131283 -222.375971 
L 126.971283 -198.629524 
L 115.811283 -169.256361 
L 104.651283 -141.415017 
L 93.491283 -126.720518 
L 82.331283 -129.639195 
L 71.171283 -133.861358 
L 60.011283 -126.380551 
L 48.851283 -116.021513 
z
" style="stroke: #ff7f0e; stroke-opacity: 0.2"/>
    </defs>
    <g clip-path="url(#pa7adf07d44)">
     <use xlink:href="#m5e6eba2989" x="0" y="361.333136" style="fill: #ff7f0e; fill-opacity: 0.2; stroke: #ff7f0e; stroke-opacity: 0.2"/>
    </g>
   </g>
   <g id="matplotlib.axis_1">
    <g id="text_1">
     <text style="font: 10px 'Arial', sans-serif; text-anchor: middle" x="227.411283" y="296.533792" transform="rotate(-0 227.411283 296.533792)">Time</text>
    </g>
   </g>
   <g id="matplotlib.axis_2">
    <g id="ytick_1">
     <g id="line2d_1">
      <defs>
       <path id="m129e499d13" d="M 0 0 
L -3.5 0 
" style="stroke: #000000; stroke-width: 0.8"/>
      </defs>
      <g>
       <use xlink:href="#m129e499d13" x="48.851283" y="275.246431" style="stroke: #000000; stroke-width: 0.8"/>
      </g>
     </g>
     <g id="text_2">
      <text style="font: 10px 'Arial', sans-serif; text-anchor: end" x="41.851283" y="278.825337" transform="rotate(-0 41.851283 278.825337)">−0.4</text>
     </g>
    </g>
    <g id="ytick_2">
     <g id="line2d_2">
      <g>
       <use xlink:href="#m129e499d13" x="48.851283" y="224.278998" style="stroke: #000000; stroke-width: 0.8"/>
      </g>
     </g>
     <g id="text_3">
      <text style="font: 10px 'Arial', sans-serif; text-anchor: end" x="41.851283" y="227.857905" transform="rotate(-0 41.851283 227.857905)">−0.2</text>
     </g>
    </g>
    <g id="ytick_3">
     <g id="line2d_3">
      <g>
       <use xlink:href="#m129e499d13" x="48.851283" y="173.311566" style="stroke: #000000; stroke-width: 0.8"/>
      </g>
     </g>
     <g id="text_4">
      <text style="font: 10px 'Arial', sans-serif; text-anchor: end" x="41.851283" y="176.890472" transform="rotate(-0 41.851283 176.890472)">0.0</text>
     </g>
    </g>
    <g id="ytick_4">
     <g id="line2d_4">
      <g>
       <use xlink:href="#m129e499d13" x="48.851283" y="122.344133" style="stroke: #000000; stroke-width: 0.8"/>
      </g>
     </g>
     <g id="text_5">
      <text style="font: 10px 'Arial', sans-serif; text-anchor: end" x="41.851283" y="125.923039" transform="rotate(-0 41.851283 125.923039)">0.2</text>
     </g>
    </g>
    <g id="ytick_5">
     <g id="line2d_5">
      <g>
       <use xlink:href="#m129e499d13" x="48.851283" y="71.3767" style="stroke: #000000; stroke-width: 0.8"/>
      </g>
     </g>
     <g id="text_6">
      <text style="font: 10px 'Arial', sans-serif; text-anchor: end" x="41.851283" y="74.955607" transform="rotate(-0 41.851283 74.955607)">0.4</text>
     </g>
    </g>
    <g id="ytick_6">
     <g id="line2d_6">
      <g>
       <use xlink:href="#m129e499d13" x="48.851283" y="20.409268" style="stroke: #000000; stroke-width: 0.8"/>
      </g>
     </g>
     <g id="text_7">
      <text style="font: 10px 'Arial', sans-serif; text-anchor: end" x="41.851283" y="23.988174" transform="rotate(-0 41.851283 23.988174)">0.6</text>
     </g>
    </g>
    <g id="text_8">
     <text style="font: 10px 'Arial', sans-serif; text-anchor: middle" x="16.005971" y="152.31998" transform="rotate(-90 16.005971 152.31998)">Activity</text>
    </g>
   </g>
   <g id="line2d_7">
    <path d="M 48.851283 219.70675 
L 60.011283 213.610243 
L 71.171283 204.549023 
L 82.331283 198.916542 
L 93.491283 185.947854 
L 104.651283 173.455725 
L 115.811283 161.290853 
L 126.971283 131.824334 
L 138.131283 104.491942 
L 149.291283 86.067393 
L 160.451283 77.545085 
L 171.611283 74.531531 
L 182.771283 70.914157 
L 193.931283 68.910087 
L 205.091283 74.121529 
L 216.251283 73.540311 
L 227.411283 80.731823 
L 238.571283 87.887419 
L 249.731283 95.524241 
L 260.891283 101.200845 
L 272.051283 102.769235 
L 283.211283 107.185576 
L 294.371283 111.355862 
L 305.531283 117.221986 
L 316.691283 122.23072 
L 327.851283 121.662493 
L 339.011283 121.076673 
L 350.171283 122.752885 
L 361.331283 114.976499 
L 372.491283 102.023188 
L 383.651283 105.5676 
L 394.811283 129.029231 
L 405.971283 156.564968 
" clip-path="url(#pa7adf07d44)" style="fill: none; stroke: #1f77b4; stroke-width: 1.5; stroke-linecap: square"/>
   </g>
   <g id="line2d_8">
    <path d="M 48.851283 259.295801 
L 60.011283 249.170032 
L 71.171283 241.739384 
L 82.331283 245.321063 
L 93.491283 247.626773 
L 104.651283 234.015352 
L 115.811283 209.214743 
L 126.971283 182.461501 
L 138.131283 159.383305 
L 149.291283 142.865348 
L 160.451283 132.745781 
L 171.611283 129.50498 
L 182.771283 120.565444 
L 193.931283 107.841131 
L 205.091283 105.567387 
L 216.251283 107.286305 
L 227.411283 104.370912 
L 238.571283 106.267508 
L 249.731283 107.561234 
L 260.891283 121.813116 
L 272.051283 133.438152 
L 283.211283 139.07472 
L 294.371283 139.942423 
L 305.531283 141.205853 
L 316.691283 136.784652 
L 327.851283 125.854508 
L 339.011283 112.677036 
L 350.171283 101.842601 
L 361.331283 86.497939 
L 372.491283 68.640481 
L 383.651283 85.8549 
L 394.811283 140.416563 
L 405.971283 185.752449 
" clip-path="url(#pa7adf07d44)" style="fill: none; stroke: #ff7f0e; stroke-width: 1.5; stroke-linecap: square"/>
   </g>
   <g id="line2d_9">
    <path d="M 82.331283 285.37598 
L 82.331283 19.26398 
" clip-path="url(#pa7adf07d44)" style="fill: none; stroke-dasharray: 5.55,2.4; stroke-dashoffset: 0; stroke: #000000; stroke-opacity: 0.5; stroke-width: 1.5"/>
   </g>
   <g id="line2d_10">
    <path d="M 383.651283 285.37598 
L 383.651283 19.26398 
" clip-path="url(#pa7adf07d44)" style="fill: none; stroke-dasharray: 5.55,2.4; stroke-dashoffset: 0; stroke: #000000; stroke-opacity: 0.5; stroke-width: 1.5"/>
   </g>
   <g id="patch_3">
    <path d="M 48.851283 285.37598 
L 405.971283 285.37598 
" style="fill: none; stroke: #000000; stroke-width: 0.8; stroke-linejoin: miter; stroke-linecap: square"/>
   </g>
   <g id="text_9">
    <text style="font: 6.94px 'Arial', sans-serif" transform="translate(10.097767 321.385533) rotate(-35)">-0.1s Sampling</text>
   </g>
   <g id="text_10">
    <text style="font: 6.94px 'Arial', sans-serif" transform="translate(57.794497 311.430872) rotate(-35)">Sampling</text>
   </g>
   <g id="text_11">
    <text style="font: 6.94px 'Arial', sans-serif" transform="translate(319.037191 339.456682) rotate(-35)">Movement to Lateral Port</text>
   </g>
   <g id="text_12">
    <text style="font: 8.33px 'Arial', sans-serif; text-anchor: middle" x="227.411283" y="13.26398" transform="rotate(-0 227.411283 13.26398)">GP4_28_S2_L51_D250_M2L - Trace:21_GP4_28_S2_L51_D250_M2L (when: correct)</text>
   </g>
   <g id="legend_1">
    <g id="patch_4">
     <path d="M 131.766697 354.133136 
L 323.055869 354.133136 
Q 324.443869 354.133136 324.443869 352.745136 
L 324.443869 343.45638 
Q 324.443869 342.06838 323.055869 342.06838 
L 131.766697 342.06838 
Q 130.378697 342.06838 130.378697 343.45638 
L 130.378697 352.745136 
Q 130.378697 354.133136 131.766697 354.133136 
z
" style="fill: #ffffff; opacity: 0.8; stroke: #cccccc; stroke-linejoin: miter"/>
    </g>
    <g id="line2d_11">
     <path d="M 133.154697 347.467483 
L 140.094697 347.467483 
L 147.034697 347.467483 
" style="fill: none; stroke: #1f77b4; stroke-width: 1.5; stroke-linecap: square"/>
    </g>
    <g id="text_13">
     <text style="font: 6.94px 'Arial', sans-serif; text-anchor: start" x="152.586697" y="349.896483" transform="rotate(-0 152.586697 349.896483)">DecisionRight (99 pts)</text>
    </g>
    <g id="line2d_12">
     <path d="M 234.73461 347.467483 
L 241.67461 347.467483 
L 248.61461 347.467483 
" style="fill: none; stroke: #ff7f0e; stroke-width: 1.5; stroke-linecap: square"/>
    </g>
    <g id="text_14">
     <text style="font: 6.94px 'Arial', sans-serif; text-anchor: start" x="254.16661" y="349.896483" transform="rotate(-0 254.16661 349.896483)">DecisionLeft (102 pts)</text>
    </g>
   </g>
  </g>
 </g>
 <defs>
  <clipPath id="pa7adf07d44">
   <rect x="48.851283" y="19.26398" width="357.12" height="266.112"/>
  </clipPath>
 </defs>
</svg>
