<?xml version="1.0" encoding="utf-8" standalone="no"?>
<!DOCTYPE svg PUBLIC "-//W3C//DTD SVG 1.1//EN"
  "http://www.w3.org/Graphics/SVG/1.1/DTD/svg11.dtd">
<svg xmlns:xlink="http://www.w3.org/1999/xlink" width="413.171283pt" height="361.333136pt" viewBox="0 0 413.171283 361.333136" xmlns="http://www.w3.org/2000/svg" version="1.1">
 <metadata>
  <rdf:RDF xmlns:dc="http://purl.org/dc/elements/1.1/" xmlns:cc="http://creativecommons.org/ns#" xmlns:rdf="http://www.w3.org/1999/02/22-rdf-syntax-ns#">
   <cc:Work>
    <dc:type rdf:resource="http://purl.org/dc/dcmitype/StillImage"/>
    <dc:date>2025-12-29T04:07:21.525102</dc:date>
    <dc:format>image/svg+xml</dc:format>
    <dc:creator>
     <cc:Agent>
      <dc:title>Matplotlib v3.8.0, https://matplotlib.org/</dc:title>
     </cc:Agent>
    </dc:creator>
   </cc:Work>
  </rdf:RDF>
 </metadata>
 <defs>
  <style type="text/css">*{stroke-linejoin: round; stroke-linecap: butt}</style>
 </defs>
 <g id="figure_1">
  <g id="patch_1">
   <path d="M 0 361.333136 
L 413.171283 361.333136 
L 413.171283 -0 
L 0 -0 
z
" style="fill: #ffffff"/>
  </g>
  <g id="axes_1">
   <g id="patch_2">
    <path d="M 48.851283 285.37598 
L 405.971283 285.37598 
L 405.971283 19.26398 
L 48.851283 19.26398 
z
" style="fill: #ffffff"/>
   </g>
   <g id="PolyCollection_1">
    <defs>
     <path id="m47df59966d" d="M 48.851283 -95.666916 
L 48.851283 -88.053156 
L 60.011283 -89.435757 
L 71.171283 -89.554685 
L 82.331283 -89.304303 
L 93.491283 -88.289688 
L 104.651283 -88.058108 
L 115.811283 -89.73428 
L 126.971283 -92.180625 
L 138.131283 -97.85828 
L 149.291283 -104.274769 
L 160.451283 -114.43538 
L 171.611283 -125.029432 
L 182.771283 -136.62816 
L 193.931283 -147.121816 
L 205.091283 -158.627315 
L 216.251283 -169.207559 
L 227.411283 -178.266398 
L 238.571283 -191.891053 
L 249.731283 -202.779193 
L 260.891283 -211.496024 
L 272.051283 -217.161579 
L 283.211283 -222.311782 
L 294.371283 -224.320433 
L 305.531283 -226.751776 
L 316.691283 -232.33889 
L 327.851283 -230.432534 
L 339.011283 -226.249883 
L 350.171283 -227.920911 
L 361.331283 -214.785816 
L 372.491283 -196.328421 
L 383.651283 -191.365898 
L 394.811283 -196.603154 
L 405.971283 -203.762281 
L 405.971283 -222.381416 
L 405.971283 -222.381416 
L 394.811283 -213.844173 
L 383.651283 -207.413761 
L 372.491283 -212.719058 
L 361.331283 -234.229528 
L 350.171283 -249.653291 
L 339.011283 -247.578782 
L 327.851283 -252.020633 
L 316.691283 -255.278409 
L 305.531283 -249.137003 
L 294.371283 -245.793557 
L 283.211283 -244.075569 
L 272.051283 -238.955666 
L 260.891283 -233.377842 
L 249.731283 -224.946121 
L 238.571283 -214.102261 
L 227.411283 -199.261324 
L 216.251283 -189.16757 
L 205.091283 -177.442854 
L 193.931283 -165.205183 
L 182.771283 -153.60403 
L 171.611283 -140.187665 
L 160.451283 -128.764747 
L 149.291283 -117.002152 
L 138.131283 -108.926673 
L 126.971283 -101.597207 
L 115.811283 -97.687151 
L 104.651283 -94.043325 
L 93.491283 -94.137058 
L 82.331283 -95.118511 
L 71.171283 -95.635151 
L 60.011283 -96.095223 
L 48.851283 -95.666916 
z
" style="stroke: #1f77b4; stroke-opacity: 0.2"/>
    </defs>
    <g clip-path="url(#p48bd1c44ef)">
     <use xlink:href="#m47df59966d" x="0" y="361.333136" style="fill: #1f77b4; fill-opacity: 0.2; stroke: #1f77b4; stroke-opacity: 0.2"/>
    </g>
   </g>
   <g id="PolyCollection_2">
    <defs>
     <path id="m3514f9ec45" d="M 48.851283 -97.035412 
L 48.851283 -88.83803 
L 60.011283 -89.553651 
L 71.171283 -91.296737 
L 82.331283 -93.131954 
L 93.491283 -95.116018 
L 104.651283 -97.318637 
L 115.811283 -98.145253 
L 126.971283 -100.041143 
L 138.131283 -104.315803 
L 149.291283 -109.539749 
L 160.451283 -116.5108 
L 171.611283 -126.915732 
L 182.771283 -138.295214 
L 193.931283 -149.651154 
L 205.091283 -164.236885 
L 216.251283 -176.978978 
L 227.411283 -185.699157 
L 238.571283 -195.748493 
L 249.731283 -208.261767 
L 260.891283 -219.927763 
L 272.051283 -232.271368 
L 283.211283 -242.083459 
L 294.371283 -257.64549 
L 305.531283 -271.144471 
L 316.691283 -277.016224 
L 327.851283 -281.626801 
L 339.011283 -281.977701 
L 350.171283 -276.113774 
L 361.331283 -260.954122 
L 372.491283 -240.077414 
L 383.651283 -239.258277 
L 394.811283 -269.836246 
L 405.971283 -308.977719 
L 405.971283 -329.973156 
L 405.971283 -329.973156 
L 394.811283 -287.453877 
L 383.651283 -255.024485 
L 372.491283 -257.933701 
L 361.331283 -283.021088 
L 350.171283 -299.675738 
L 339.011283 -305.79183 
L 327.851283 -305.703521 
L 316.691283 -301.46433 
L 305.531283 -296.759821 
L 294.371283 -283.36037 
L 283.211283 -267.644388 
L 272.051283 -258.492395 
L 260.891283 -245.301658 
L 249.731283 -232.8765 
L 238.571283 -219.700413 
L 227.411283 -209.394532 
L 216.251283 -200.684486 
L 205.091283 -185.944741 
L 193.931283 -169.181082 
L 182.771283 -157.24636 
L 171.611283 -144.577096 
L 160.451283 -132.515113 
L 149.291283 -124.728496 
L 138.131283 -117.918676 
L 126.971283 -111.402208 
L 115.811283 -108.983216 
L 104.651283 -108.29453 
L 93.491283 -105.401548 
L 82.331283 -102.815146 
L 71.171283 -99.903449 
L 60.011283 -97.865474 
L 48.851283 -97.035412 
z
" style="stroke: #ff7f0e; stroke-opacity: 0.2"/>
    </defs>
    <g clip-path="url(#p48bd1c44ef)">
     <use xlink:href="#m3514f9ec45" x="0" y="361.333136" style="fill: #ff7f0e; fill-opacity: 0.2; stroke: #ff7f0e; stroke-opacity: 0.2"/>
    </g>
   </g>
   <g id="matplotlib.axis_1">
    <g id="text_1">
     <text style="font: 10px 'Arial', sans-serif; text-anchor: middle" x="227.411283" y="296.533792" transform="rotate(-0 227.411283 296.533792)">Time</text>
    </g>
   </g>
   <g id="matplotlib.axis_2">
    <g id="ytick_1">
     <g id="line2d_1">
      <defs>
       <path id="m91512628e4" d="M 0 0 
L -3.5 0 
" style="stroke: #000000; stroke-width: 0.8"/>
      </defs>
      <g>
       <use xlink:href="#m91512628e4" x="48.851283" y="257.676088" style="stroke: #000000; stroke-width: 0.8"/>
      </g>
     </g>
     <g id="text_2">
      <text style="font: 10px 'Arial', sans-serif; text-anchor: end" x="41.851283" y="261.254994" transform="rotate(-0 41.851283 261.254994)">−0.5</text>
     </g>
    </g>
    <g id="ytick_2">
     <g id="line2d_2">
      <g>
       <use xlink:href="#m91512628e4" x="48.851283" y="210.04256" style="stroke: #000000; stroke-width: 0.8"/>
      </g>
     </g>
     <g id="text_3">
      <text style="font: 10px 'Arial', sans-serif; text-anchor: end" x="41.851283" y="213.621466" transform="rotate(-0 41.851283 213.621466)">0.0</text>
     </g>
    </g>
    <g id="ytick_3">
     <g id="line2d_3">
      <g>
       <use xlink:href="#m91512628e4" x="48.851283" y="162.409032" style="stroke: #000000; stroke-width: 0.8"/>
      </g>
     </g>
     <g id="text_4">
      <text style="font: 10px 'Arial', sans-serif; text-anchor: end" x="41.851283" y="165.987939" transform="rotate(-0 41.851283 165.987939)">0.5</text>
     </g>
    </g>
    <g id="ytick_4">
     <g id="line2d_4">
      <g>
       <use xlink:href="#m91512628e4" x="48.851283" y="114.775505" style="stroke: #000000; stroke-width: 0.8"/>
      </g>
     </g>
     <g id="text_5">
      <text style="font: 10px 'Arial', sans-serif; text-anchor: end" x="41.851283" y="118.354411" transform="rotate(-0 41.851283 118.354411)">1.0</text>
     </g>
    </g>
    <g id="ytick_5">
     <g id="line2d_5">
      <g>
       <use xlink:href="#m91512628e4" x="48.851283" y="67.141977" style="stroke: #000000; stroke-width: 0.8"/>
      </g>
     </g>
     <g id="text_6">
      <text style="font: 10px 'Arial', sans-serif; text-anchor: end" x="41.851283" y="70.720883" transform="rotate(-0 41.851283 70.720883)">1.5</text>
     </g>
    </g>
    <g id="ytick_6">
     <g id="line2d_6">
      <g>
       <use xlink:href="#m91512628e4" x="48.851283" y="19.50845" style="stroke: #000000; stroke-width: 0.8"/>
      </g>
     </g>
     <g id="text_7">
      <text style="font: 10px 'Arial', sans-serif; text-anchor: end" x="41.851283" y="23.087356" transform="rotate(-0 41.851283 23.087356)">2.0</text>
     </g>
    </g>
    <g id="text_8">
     <text style="font: 10px 'Arial', sans-serif; text-anchor: middle" x="16.005971" y="152.31998" transform="rotate(-90 16.005971 152.31998)">Activity</text>
    </g>
   </g>
   <g id="line2d_7">
    <path d="M 48.851283 269.4731 
L 60.011283 268.567646 
L 71.171283 268.738218 
L 82.331283 269.121729 
L 93.491283 270.119763 
L 104.651283 270.282419 
L 115.811283 267.622421 
L 126.971283 264.44422 
L 138.131283 257.940659 
L 149.291283 250.694676 
L 160.451283 239.733072 
L 171.611283 228.724588 
L 182.771283 216.217041 
L 193.931283 205.169637 
L 205.091283 193.298052 
L 216.251283 182.145572 
L 227.411283 172.569275 
L 238.571283 158.336479 
L 249.731283 147.470479 
L 260.891283 138.896203 
L 272.051283 133.274514 
L 283.211283 128.13946 
L 294.371283 126.276141 
L 305.531283 123.388746 
L 316.691283 117.524484 
L 327.851283 120.106553 
L 339.011283 124.418801 
L 350.171283 122.546038 
L 361.331283 136.825464 
L 372.491283 156.809398 
L 383.651283 161.943305 
L 394.811283 156.109472 
L 405.971283 148.261287 
" clip-path="url(#p48bd1c44ef)" style="fill: none; stroke: #1f77b4; stroke-width: 1.5; stroke-linecap: square"/>
   </g>
   <g id="line2d_8">
    <path d="M 48.851283 268.396415 
L 60.011283 267.623573 
L 71.171283 265.733043 
L 82.331283 263.359586 
L 93.491283 261.074353 
L 104.651283 258.526553 
L 115.811283 257.7689 
L 126.971283 255.611462 
L 138.131283 250.215897 
L 149.291283 244.199014 
L 160.451283 236.820179 
L 171.611283 225.586723 
L 182.771283 213.562349 
L 193.931283 201.917018 
L 205.091283 186.242323 
L 216.251283 172.501404 
L 227.411283 163.786293 
L 238.571283 153.608683 
L 249.731283 140.764002 
L 260.891283 128.718426 
L 272.051283 115.951254 
L 283.211283 106.469213 
L 294.371283 90.830206 
L 305.531283 77.38099 
L 316.691283 72.092859 
L 327.851283 67.667975 
L 339.011283 67.44837 
L 350.171283 73.43838 
L 361.331283 89.345531 
L 372.491283 112.327576 
L 383.651283 114.191758 
L 394.811283 82.688075 
L 405.971283 41.857698 
" clip-path="url(#p48bd1c44ef)" style="fill: none; stroke: #ff7f0e; stroke-width: 1.5; stroke-linecap: square"/>
   </g>
   <g id="line2d_9">
    <path d="M 82.331283 285.37598 
L 82.331283 19.26398 
" clip-path="url(#p48bd1c44ef)" style="fill: none; stroke-dasharray: 5.55,2.4; stroke-dashoffset: 0; stroke: #000000; stroke-opacity: 0.5; stroke-width: 1.5"/>
   </g>
   <g id="line2d_10">
    <path d="M 383.651283 285.37598 
L 383.651283 19.26398 
" clip-path="url(#p48bd1c44ef)" style="fill: none; stroke-dasharray: 5.55,2.4; stroke-dashoffset: 0; stroke: #000000; stroke-opacity: 0.5; stroke-width: 1.5"/>
   </g>
   <g id="patch_3">
    <path d="M 48.851283 285.37598 
L 405.971283 285.37598 
" style="fill: none; stroke: #000000; stroke-width: 0.8; stroke-linejoin: miter; stroke-linecap: square"/>
   </g>
   <g id="text_9">
    <text style="font: 6.94px 'Arial', sans-serif" transform="translate(10.097767 321.385533) rotate(-35)">-0.1s Sampling</text>
   </g>
   <g id="text_10">
    <text style="font: 6.94px 'Arial', sans-serif" transform="translate(57.794497 311.430872) rotate(-35)">Sampling</text>
   </g>
   <g id="text_11">
    <text style="font: 6.94px 'Arial', sans-serif" transform="translate(319.037191 339.456682) rotate(-35)">Movement to Lateral Port</text>
   </g>
   <g id="text_12">
    <text style="font: 8.33px 'Arial', sans-serif; text-anchor: middle" x="227.411283" y="13.26398" transform="rotate(-0 227.411283 13.26398)">GP4_28_S2_L51_D250_M2L - Trace:43_GP4_28_S2_L51_D250_M2L (when: correct)</text>
   </g>
   <g id="legend_1">
    <g id="patch_4">
     <path d="M 131.766697 354.133136 
L 323.055869 354.133136 
Q 324.443869 354.133136 324.443869 352.745136 
L 324.443869 343.45638 
Q 324.443869 342.06838 323.055869 342.06838 
L 131.766697 342.06838 
Q 130.378697 342.06838 130.378697 343.45638 
L 130.378697 352.745136 
Q 130.378697 354.133136 131.766697 354.133136 
z
" style="fill: #ffffff; opacity: 0.8; stroke: #cccccc; stroke-linejoin: miter"/>
    </g>
    <g id="line2d_11">
     <path d="M 133.154697 347.467483 
L 140.094697 347.467483 
L 147.034697 347.467483 
" style="fill: none; stroke: #1f77b4; stroke-width: 1.5; stroke-linecap: square"/>
    </g>
    <g id="text_13">
     <text style="font: 6.94px 'Arial', sans-serif; text-anchor: start" x="152.586697" y="349.896483" transform="rotate(-0 152.586697 349.896483)">DecisionRight (99 pts)</text>
    </g>
    <g id="line2d_12">
     <path d="M 234.73461 347.467483 
L 241.67461 347.467483 
L 248.61461 347.467483 
" style="fill: none; stroke: #ff7f0e; stroke-width: 1.5; stroke-linecap: square"/>
    </g>
    <g id="text_14">
     <text style="font: 6.94px 'Arial', sans-serif; text-anchor: start" x="254.16661" y="349.896483" transform="rotate(-0 254.16661 349.896483)">DecisionLeft (102 pts)</text>
    </g>
   </g>
  </g>
 </g>
 <defs>
  <clipPath id="p48bd1c44ef">
   <rect x="48.851283" y="19.26398" width="357.12" height="266.112"/>
  </clipPath>
 </defs>
</svg>
