<?xml version="1.0" encoding="utf-8" standalone="no"?>
<!DOCTYPE svg PUBLIC "-//W3C//DTD SVG 1.1//EN"
  "http://www.w3.org/Graphics/SVG/1.1/DTD/svg11.dtd">
<svg xmlns:xlink="http://www.w3.org/1999/xlink" width="413.171283pt" height="361.333136pt" viewBox="0 0 413.171283 361.333136" xmlns="http://www.w3.org/2000/svg" version="1.1">
 <metadata>
  <rdf:RDF xmlns:dc="http://purl.org/dc/elements/1.1/" xmlns:cc="http://creativecommons.org/ns#" xmlns:rdf="http://www.w3.org/1999/02/22-rdf-syntax-ns#">
   <cc:Work>
    <dc:type rdf:resource="http://purl.org/dc/dcmitype/StillImage"/>
    <dc:date>2025-12-29T04:07:24.883951</dc:date>
    <dc:format>image/svg+xml</dc:format>
    <dc:creator>
     <cc:Agent>
      <dc:title>Matplotlib v3.8.0, https://matplotlib.org/</dc:title>
     </cc:Agent>
    </dc:creator>
   </cc:Work>
  </rdf:RDF>
 </metadata>
 <defs>
  <style type="text/css">*{stroke-linejoin: round; stroke-linecap: butt}</style>
 </defs>
 <g id="figure_1">
  <g id="patch_1">
   <path d="M 0 361.333136 
L 413.171283 361.333136 
L 413.171283 -0 
L 0 -0 
z
" style="fill: #ffffff"/>
  </g>
  <g id="axes_1">
   <g id="patch_2">
    <path d="M 48.851283 285.37598 
L 405.971283 285.37598 
L 405.971283 19.26398 
L 48.851283 19.26398 
z
" style="fill: #ffffff"/>
   </g>
   <g id="PolyCollection_1">
    <defs>
     <path id="m6155398ed4" d="M 48.851283 -329.973156 
L 48.851283 -234.409574 
L 60.011283 -212.206143 
L 71.171283 -198.843718 
L 82.331283 -196.162695 
L 93.491283 -187.865814 
L 104.651283 -193.378923 
L 115.811283 -192.397622 
L 126.971283 -190.828887 
L 138.131283 -185.440965 
L 149.291283 -188.109079 
L 160.451283 -210.539871 
L 171.611283 -216.69923 
L 182.771283 -180.910234 
L 193.931283 -151.622282 
L 205.091283 -152.702362 
L 216.251283 -158.573612 
L 227.411283 -162.081284 
L 238.571283 -154.391042 
L 249.731283 -149.695421 
L 260.891283 -158.87094 
L 272.051283 -157.487127 
L 283.211283 -135.493596 
L 294.371283 -111.595433 
L 305.531283 -105.518426 
L 316.691283 -106.368797 
L 327.851283 -97.717717 
L 339.011283 -97.944037 
L 350.171283 -100.833877 
L 361.331283 -117.889585 
L 372.491283 -128.710159 
L 383.651283 -120.553922 
L 394.811283 -107.536011 
L 405.971283 -105.401296 
L 405.971283 -147.104935 
L 405.971283 -147.104935 
L 394.811283 -152.298889 
L 383.651283 -166.356048 
L 372.491283 -173.259381 
L 361.331283 -162.486438 
L 350.171283 -143.656553 
L 339.011283 -139.575333 
L 327.851283 -143.844318 
L 316.691283 -158.369333 
L 305.531283 -163.772124 
L 294.371283 -171.58188 
L 283.211283 -193.234782 
L 272.051283 -213.135337 
L 260.891283 -216.695672 
L 249.731283 -210.788248 
L 238.571283 -217.509613 
L 227.411283 -230.101161 
L 216.251283 -229.766326 
L 205.091283 -226.508075 
L 193.931283 -226.616245 
L 182.771283 -255.367011 
L 171.611283 -290.971679 
L 160.451283 -284.878913 
L 149.291283 -263.10675 
L 138.131283 -261.806205 
L 126.971283 -263.471425 
L 115.811283 -261.742111 
L 104.651283 -253.964352 
L 93.491283 -236.879681 
L 82.331283 -244.837941 
L 71.171283 -264.481556 
L 60.011283 -296.879651 
L 48.851283 -329.973156 
z
" style="stroke: #1f77b4; stroke-opacity: 0.2"/>
    </defs>
    <g clip-path="url(#pe3a4dc49b5)">
     <use xlink:href="#m6155398ed4" x="0" y="361.333136" style="fill: #1f77b4; fill-opacity: 0.2; stroke: #1f77b4; stroke-opacity: 0.2"/>
    </g>
   </g>
   <g id="PolyCollection_2">
    <defs>
     <path id="md5f1072910" d="M 48.851283 -313.229089 
L 48.851283 -215.594319 
L 60.011283 -205.736762 
L 71.171283 -203.540509 
L 82.331283 -200.428449 
L 93.491283 -207.220424 
L 104.651283 -189.664459 
L 115.811283 -178.085228 
L 126.971283 -179.256671 
L 138.131283 -181.454403 
L 149.291283 -171.21605 
L 160.451283 -166.272383 
L 171.611283 -163.793276 
L 182.771283 -161.592586 
L 193.931283 -157.066049 
L 205.091283 -150.0916 
L 216.251283 -150.670289 
L 227.411283 -141.156417 
L 238.571283 -136.31947 
L 249.731283 -141.272801 
L 260.891283 -133.932257 
L 272.051283 -123.790788 
L 283.211283 -122.832965 
L 294.371283 -117.046336 
L 305.531283 -112.627596 
L 316.691283 -117.673459 
L 327.851283 -123.340803 
L 339.011283 -132.450354 
L 350.171283 -129.194879 
L 361.331283 -125.524126 
L 372.491283 -114.089395 
L 383.651283 -94.271848 
L 394.811283 -88.053156 
L 405.971283 -92.457494 
L 405.971283 -137.222842 
L 405.971283 -137.222842 
L 394.811283 -136.361026 
L 383.651283 -144.634767 
L 372.491283 -165.153927 
L 361.331283 -176.408776 
L 350.171283 -182.868449 
L 339.011283 -188.983057 
L 327.851283 -180.8855 
L 316.691283 -175.742788 
L 305.531283 -169.366967 
L 294.371283 -172.326335 
L 283.211283 -176.346879 
L 272.051283 -177.036014 
L 260.891283 -188.527774 
L 249.731283 -199.404185 
L 238.571283 -199.215903 
L 227.411283 -206.859138 
L 216.251283 -219.012854 
L 205.091283 -218.006183 
L 193.931283 -227.093513 
L 182.771283 -233.242403 
L 171.611283 -235.626594 
L 160.451283 -236.807208 
L 149.291283 -239.269852 
L 138.131283 -249.533255 
L 126.971283 -247.668531 
L 115.811283 -247.02166 
L 104.651283 -260.123305 
L 93.491283 -275.613146 
L 82.331283 -269.05184 
L 71.171283 -279.521347 
L 60.011283 -293.808413 
L 48.851283 -313.229089 
z
" style="stroke: #ff7f0e; stroke-opacity: 0.2"/>
    </defs>
    <g clip-path="url(#pe3a4dc49b5)">
     <use xlink:href="#md5f1072910" x="0" y="361.333136" style="fill: #ff7f0e; fill-opacity: 0.2; stroke: #ff7f0e; stroke-opacity: 0.2"/>
    </g>
   </g>
   <g id="matplotlib.axis_1">
    <g id="text_1">
     <text style="font: 10px 'Arial', sans-serif; text-anchor: middle" x="227.411283" y="296.533792" transform="rotate(-0 227.411283 296.533792)">Time</text>
    </g>
   </g>
   <g id="matplotlib.axis_2">
    <g id="ytick_1">
     <g id="line2d_1">
      <defs>
       <path id="m68ea12ce69" d="M 0 0 
L -3.5 0 
" style="stroke: #000000; stroke-width: 0.8"/>
      </defs>
      <g>
       <use xlink:href="#m68ea12ce69" x="48.851283" y="283.347078" style="stroke: #000000; stroke-width: 0.8"/>
      </g>
     </g>
     <g id="text_2">
      <text style="font: 10px 'Arial', sans-serif; text-anchor: end" x="41.851283" y="286.925984" transform="rotate(-0 41.851283 286.925984)">−0.4</text>
     </g>
    </g>
    <g id="ytick_2">
     <g id="line2d_2">
      <g>
       <use xlink:href="#m68ea12ce69" x="48.851283" y="235.164521" style="stroke: #000000; stroke-width: 0.8"/>
      </g>
     </g>
     <g id="text_3">
      <text style="font: 10px 'Arial', sans-serif; text-anchor: end" x="41.851283" y="238.743427" transform="rotate(-0 41.851283 238.743427)">−0.3</text>
     </g>
    </g>
    <g id="ytick_3">
     <g id="line2d_3">
      <g>
       <use xlink:href="#m68ea12ce69" x="48.851283" y="186.981963" style="stroke: #000000; stroke-width: 0.8"/>
      </g>
     </g>
     <g id="text_4">
      <text style="font: 10px 'Arial', sans-serif; text-anchor: end" x="41.851283" y="190.560869" transform="rotate(-0 41.851283 190.560869)">−0.2</text>
     </g>
    </g>
    <g id="ytick_4">
     <g id="line2d_4">
      <g>
       <use xlink:href="#m68ea12ce69" x="48.851283" y="138.799406" style="stroke: #000000; stroke-width: 0.8"/>
      </g>
     </g>
     <g id="text_5">
      <text style="font: 10px 'Arial', sans-serif; text-anchor: end" x="41.851283" y="142.378312" transform="rotate(-0 41.851283 142.378312)">−0.1</text>
     </g>
    </g>
    <g id="ytick_5">
     <g id="line2d_5">
      <g>
       <use xlink:href="#m68ea12ce69" x="48.851283" y="90.616848" style="stroke: #000000; stroke-width: 0.8"/>
      </g>
     </g>
     <g id="text_6">
      <text style="font: 10px 'Arial', sans-serif; text-anchor: end" x="41.851283" y="94.195754" transform="rotate(-0 41.851283 94.195754)">0.0</text>
     </g>
    </g>
    <g id="ytick_6">
     <g id="line2d_6">
      <g>
       <use xlink:href="#m68ea12ce69" x="48.851283" y="42.434291" style="stroke: #000000; stroke-width: 0.8"/>
      </g>
     </g>
     <g id="text_7">
      <text style="font: 10px 'Arial', sans-serif; text-anchor: end" x="41.851283" y="46.013197" transform="rotate(-0 41.851283 46.013197)">0.1</text>
     </g>
    </g>
    <g id="text_8">
     <text style="font: 10px 'Arial', sans-serif; text-anchor: middle" x="16.005971" y="152.31998" transform="rotate(-90 16.005971 152.31998)">Activity</text>
    </g>
   </g>
   <g id="line2d_7">
    <path d="M 48.851283 79.141772 
L 60.011283 106.790239 
L 71.171283 129.670499 
L 82.331283 140.832819 
L 93.491283 148.96039 
L 104.651283 137.661497 
L 115.811283 134.26327 
L 126.971283 134.182978 
L 138.131283 137.709551 
L 149.291283 135.72522 
L 160.451283 113.623743 
L 171.611283 107.49768 
L 182.771283 143.194511 
L 193.931283 172.213872 
L 205.091283 171.727917 
L 216.251283 167.163169 
L 227.411283 165.241915 
L 238.571283 175.38281 
L 249.731283 181.091301 
L 260.891283 173.549832 
L 272.051283 176.021902 
L 283.211283 196.968947 
L 294.371283 219.744483 
L 305.531283 226.687857 
L 316.691283 228.964071 
L 327.851283 240.552118 
L 339.011283 242.573451 
L 350.171283 239.087921 
L 361.331283 221.145125 
L 372.491283 210.348366 
L 383.651283 217.878147 
L 394.811283 231.415686 
L 405.971283 235.080021 
" clip-path="url(#pe3a4dc49b5)" style="fill: none; stroke: #1f77b4; stroke-width: 1.5; stroke-linecap: square"/>
   </g>
   <g id="line2d_8">
    <path d="M 48.851283 96.921433 
L 60.011283 111.560549 
L 71.171283 119.802207 
L 82.331283 126.592991 
L 93.491283 119.916349 
L 104.651283 136.439254 
L 115.811283 148.77969 
L 126.971283 147.870535 
L 138.131283 145.839309 
L 149.291283 156.090183 
L 160.451283 159.793339 
L 171.611283 161.623201 
L 182.771283 163.915641 
L 193.931283 169.253355 
L 205.091283 177.284248 
L 216.251283 176.491566 
L 227.411283 187.325358 
L 238.571283 193.565446 
L 249.731283 190.994647 
L 260.891283 200.103121 
L 272.051283 210.919739 
L 283.211283 211.743214 
L 294.371283 216.646804 
L 305.531283 220.335851 
L 316.691283 214.625012 
L 327.851283 209.219988 
L 339.011283 200.61643 
L 350.171283 205.301468 
L 361.331283 210.366689 
L 372.491283 221.711479 
L 383.651283 241.879828 
L 394.811283 249.126045 
L 405.971283 246.492968 
" clip-path="url(#pe3a4dc49b5)" style="fill: none; stroke: #ff7f0e; stroke-width: 1.5; stroke-linecap: square"/>
   </g>
   <g id="line2d_9">
    <path d="M 82.331283 285.37598 
L 82.331283 19.26398 
" clip-path="url(#pe3a4dc49b5)" style="fill: none; stroke-dasharray: 5.55,2.4; stroke-dashoffset: 0; stroke: #000000; stroke-opacity: 0.5; stroke-width: 1.5"/>
   </g>
   <g id="line2d_10">
    <path d="M 383.651283 285.37598 
L 383.651283 19.26398 
" clip-path="url(#pe3a4dc49b5)" style="fill: none; stroke-dasharray: 5.55,2.4; stroke-dashoffset: 0; stroke: #000000; stroke-opacity: 0.5; stroke-width: 1.5"/>
   </g>
   <g id="patch_3">
    <path d="M 48.851283 285.37598 
L 405.971283 285.37598 
" style="fill: none; stroke: #000000; stroke-width: 0.8; stroke-linejoin: miter; stroke-linecap: square"/>
   </g>
   <g id="text_9">
    <text style="font: 6.94px 'Arial', sans-serif" transform="translate(10.097767 321.385533) rotate(-35)">-0.1s Sampling</text>
   </g>
   <g id="text_10">
    <text style="font: 6.94px 'Arial', sans-serif" transform="translate(57.794497 311.430872) rotate(-35)">Sampling</text>
   </g>
   <g id="text_11">
    <text style="font: 6.94px 'Arial', sans-serif" transform="translate(319.037191 339.456682) rotate(-35)">Movement to Lateral Port</text>
   </g>
   <g id="text_12">
    <text style="font: 8.33px 'Arial', sans-serif; text-anchor: middle" x="227.411283" y="13.26398" transform="rotate(-0 227.411283 13.26398)">GP4_28_S2_L51_D250_M2L - Trace:5_GP4_28_S2_L51_D250_M2L (when: correct)</text>
   </g>
   <g id="legend_1">
    <g id="patch_4">
     <path d="M 131.766697 354.133136 
L 323.055869 354.133136 
Q 324.443869 354.133136 324.443869 352.745136 
L 324.443869 343.45638 
Q 324.443869 342.06838 323.055869 342.06838 
L 131.766697 342.06838 
Q 130.378697 342.06838 130.378697 343.45638 
L 130.378697 352.745136 
Q 130.378697 354.133136 131.766697 354.133136 
z
" style="fill: #ffffff; opacity: 0.8; stroke: #cccccc; stroke-linejoin: miter"/>
    </g>
    <g id="line2d_11">
     <path d="M 133.154697 347.467483 
L 140.094697 347.467483 
L 147.034697 347.467483 
" style="fill: none; stroke: #1f77b4; stroke-width: 1.5; stroke-linecap: square"/>
    </g>
    <g id="text_13">
     <text style="font: 6.94px 'Arial', sans-serif; text-anchor: start" x="152.586697" y="349.896483" transform="rotate(-0 152.586697 349.896483)">DecisionRight (99 pts)</text>
    </g>
    <g id="line2d_12">
     <path d="M 234.73461 347.467483 
L 241.67461 347.467483 
L 248.61461 347.467483 
" style="fill: none; stroke: #ff7f0e; stroke-width: 1.5; stroke-linecap: square"/>
    </g>
    <g id="text_14">
     <text style="font: 6.94px 'Arial', sans-serif; text-anchor: start" x="254.16661" y="349.896483" transform="rotate(-0 254.16661 349.896483)">DecisionLeft (102 pts)</text>
    </g>
   </g>
  </g>
 </g>
 <defs>
  <clipPath id="pe3a4dc49b5">
   <rect x="48.851283" y="19.26398" width="357.12" height="266.112"/>
  </clipPath>
 </defs>
</svg>
