<?xml version="1.0" encoding="utf-8" standalone="no"?>
<!DOCTYPE svg PUBLIC "-//W3C//DTD SVG 1.1//EN"
  "http://www.w3.org/Graphics/SVG/1.1/DTD/svg11.dtd">
<svg xmlns:xlink="http://www.w3.org/1999/xlink" width="413.171283pt" height="361.333136pt" viewBox="0 0 413.171283 361.333136" xmlns="http://www.w3.org/2000/svg" version="1.1">
 <metadata>
  <rdf:RDF xmlns:dc="http://purl.org/dc/elements/1.1/" xmlns:cc="http://creativecommons.org/ns#" xmlns:rdf="http://www.w3.org/1999/02/22-rdf-syntax-ns#">
   <cc:Work>
    <dc:type rdf:resource="http://purl.org/dc/dcmitype/StillImage"/>
    <dc:date>2025-12-29T04:07:24.096170</dc:date>
    <dc:format>image/svg+xml</dc:format>
    <dc:creator>
     <cc:Agent>
      <dc:title>Matplotlib v3.8.0, https://matplotlib.org/</dc:title>
     </cc:Agent>
    </dc:creator>
   </cc:Work>
  </rdf:RDF>
 </metadata>
 <defs>
  <style type="text/css">*{stroke-linejoin: round; stroke-linecap: butt}</style>
 </defs>
 <g id="figure_1">
  <g id="patch_1">
   <path d="M 0 361.333136 
L 413.171283 361.333136 
L 413.171283 -0 
L 0 -0 
z
" style="fill: #ffffff"/>
  </g>
  <g id="axes_1">
   <g id="patch_2">
    <path d="M 48.851283 285.37598 
L 405.971283 285.37598 
L 405.971283 19.26398 
L 48.851283 19.26398 
z
" style="fill: #ffffff"/>
   </g>
   <g id="PolyCollection_1">
    <defs>
     <path id="m738408b5b6" d="M 48.851283 -209.49885 
L 48.851283 -155.890342 
L 60.011283 -170.533104 
L 71.171283 -190.390904 
L 82.331283 -232.431764 
L 93.491283 -254.794005 
L 104.651283 -250.314849 
L 115.811283 -233.842831 
L 126.971283 -213.945171 
L 138.131283 -196.94658 
L 149.291283 -183.235946 
L 160.451283 -173.627875 
L 171.611283 -168.217268 
L 182.771283 -157.097325 
L 193.931283 -146.184096 
L 205.091283 -140.945956 
L 216.251283 -129.606736 
L 227.411283 -129.244438 
L 238.571283 -129.200079 
L 249.731283 -127.712163 
L 260.891283 -122.315445 
L 272.051283 -114.096378 
L 283.211283 -100.536978 
L 294.371283 -90.990408 
L 305.531283 -98.921253 
L 316.691283 -109.496678 
L 327.851283 -103.240804 
L 339.011283 -97.182383 
L 350.171283 -88.053156 
L 361.331283 -97.058902 
L 372.491283 -101.395167 
L 383.651283 -96.718987 
L 394.811283 -91.944043 
L 405.971283 -96.741431 
L 405.971283 -117.962302 
L 405.971283 -117.962302 
L 394.811283 -112.118643 
L 383.651283 -114.216814 
L 372.491283 -117.794437 
L 361.331283 -113.546038 
L 350.171283 -105.500829 
L 339.011283 -114.946089 
L 327.851283 -121.374171 
L 316.691283 -128.745658 
L 305.531283 -117.424285 
L 294.371283 -109.306335 
L 283.211283 -120.395313 
L 272.051283 -133.871425 
L 260.891283 -142.38255 
L 249.731283 -149.139224 
L 238.571283 -152.406748 
L 227.411283 -153.756363 
L 216.251283 -154.784072 
L 205.091283 -167.34379 
L 193.931283 -176.806619 
L 182.771283 -190.197566 
L 171.611283 -203.933049 
L 160.451283 -207.428292 
L 149.291283 -221.356191 
L 138.131283 -237.368365 
L 126.971283 -260.446846 
L 115.811283 -292.546045 
L 104.651283 -317.347753 
L 93.491283 -329.973156 
L 82.331283 -299.549947 
L 71.171283 -248.274544 
L 60.011283 -227.219407 
L 48.851283 -209.49885 
z
" style="stroke: #1f77b4; stroke-opacity: 0.2"/>
    </defs>
    <g clip-path="url(#pc01fdece54)">
     <use xlink:href="#m738408b5b6" x="0" y="361.333136" style="fill: #1f77b4; fill-opacity: 0.2; stroke: #1f77b4; stroke-opacity: 0.2"/>
    </g>
   </g>
   <g id="PolyCollection_2">
    <defs>
     <path id="mb525284a23" d="M 48.851283 -152.436992 
L 48.851283 -123.398734 
L 60.011283 -138.475149 
L 71.171283 -171.4485 
L 82.331283 -212.617772 
L 93.491283 -232.910405 
L 104.651283 -242.346637 
L 115.811283 -239.889799 
L 126.971283 -228.198974 
L 138.131283 -216.873885 
L 149.291283 -213.490642 
L 160.451283 -198.273668 
L 171.611283 -180.748907 
L 182.771283 -170.95773 
L 193.931283 -162.599571 
L 205.091283 -159.189382 
L 216.251283 -162.369296 
L 227.411283 -160.774997 
L 238.571283 -149.752522 
L 249.731283 -142.546683 
L 260.891283 -134.913543 
L 272.051283 -139.742029 
L 283.211283 -136.400247 
L 294.371283 -129.801682 
L 305.531283 -121.456713 
L 316.691283 -120.418267 
L 327.851283 -113.816843 
L 339.011283 -112.247468 
L 350.171283 -110.026386 
L 361.331283 -104.94795 
L 372.491283 -101.907558 
L 383.651283 -104.703906 
L 394.811283 -102.804011 
L 405.971283 -98.284228 
L 405.971283 -120.155452 
L 405.971283 -120.155452 
L 394.811283 -125.626622 
L 383.651283 -129.765257 
L 372.491283 -128.184292 
L 361.331283 -130.209976 
L 350.171283 -134.37339 
L 339.011283 -136.712505 
L 327.851283 -139.43263 
L 316.691283 -145.207217 
L 305.531283 -145.803038 
L 294.371283 -153.188872 
L 283.211283 -160.840158 
L 272.051283 -165.814103 
L 260.891283 -162.95293 
L 249.731283 -173.321899 
L 238.571283 -185.122437 
L 227.411283 -198.463581 
L 216.251283 -199.307686 
L 205.091283 -196.610625 
L 193.931283 -202.351417 
L 182.771283 -212.369737 
L 171.611283 -226.021101 
L 160.451283 -248.874608 
L 149.291283 -268.744266 
L 138.131283 -274.224319 
L 126.971283 -287.369288 
L 115.811283 -299.817017 
L 104.651283 -301.385309 
L 93.491283 -287.683245 
L 82.331283 -258.965916 
L 71.171283 -206.271306 
L 60.011283 -168.882691 
L 48.851283 -152.436992 
z
" style="stroke: #ff7f0e; stroke-opacity: 0.2"/>
    </defs>
    <g clip-path="url(#pc01fdece54)">
     <use xlink:href="#mb525284a23" x="0" y="361.333136" style="fill: #ff7f0e; fill-opacity: 0.2; stroke: #ff7f0e; stroke-opacity: 0.2"/>
    </g>
   </g>
   <g id="matplotlib.axis_1">
    <g id="text_1">
     <text style="font: 10px 'Arial', sans-serif; text-anchor: middle" x="227.411283" y="296.533792" transform="rotate(-0 227.411283 296.533792)">Time</text>
    </g>
   </g>
   <g id="matplotlib.axis_2">
    <g id="ytick_1">
     <g id="line2d_1">
      <defs>
       <path id="m88770afe78" d="M 0 0 
L -3.5 0 
" style="stroke: #000000; stroke-width: 0.8"/>
      </defs>
      <g>
       <use xlink:href="#m88770afe78" x="48.851283" y="279.06491" style="stroke: #000000; stroke-width: 0.8"/>
      </g>
     </g>
     <g id="text_2">
      <text style="font: 10px 'Arial', sans-serif; text-anchor: end" x="41.851283" y="282.643817" transform="rotate(-0 41.851283 282.643817)">−0.4</text>
     </g>
    </g>
    <g id="ytick_2">
     <g id="line2d_2">
      <g>
       <use xlink:href="#m88770afe78" x="48.851283" y="236.577873" style="stroke: #000000; stroke-width: 0.8"/>
      </g>
     </g>
     <g id="text_3">
      <text style="font: 10px 'Arial', sans-serif; text-anchor: end" x="41.851283" y="240.156779" transform="rotate(-0 41.851283 240.156779)">−0.2</text>
     </g>
    </g>
    <g id="ytick_3">
     <g id="line2d_3">
      <g>
       <use xlink:href="#m88770afe78" x="48.851283" y="194.090835" style="stroke: #000000; stroke-width: 0.8"/>
      </g>
     </g>
     <g id="text_4">
      <text style="font: 10px 'Arial', sans-serif; text-anchor: end" x="41.851283" y="197.669742" transform="rotate(-0 41.851283 197.669742)">0.0</text>
     </g>
    </g>
    <g id="ytick_4">
     <g id="line2d_4">
      <g>
       <use xlink:href="#m88770afe78" x="48.851283" y="151.603798" style="stroke: #000000; stroke-width: 0.8"/>
      </g>
     </g>
     <g id="text_5">
      <text style="font: 10px 'Arial', sans-serif; text-anchor: end" x="41.851283" y="155.182704" transform="rotate(-0 41.851283 155.182704)">0.2</text>
     </g>
    </g>
    <g id="ytick_5">
     <g id="line2d_5">
      <g>
       <use xlink:href="#m88770afe78" x="48.851283" y="109.11676" style="stroke: #000000; stroke-width: 0.8"/>
      </g>
     </g>
     <g id="text_6">
      <text style="font: 10px 'Arial', sans-serif; text-anchor: end" x="41.851283" y="112.695667" transform="rotate(-0 41.851283 112.695667)">0.4</text>
     </g>
    </g>
    <g id="ytick_6">
     <g id="line2d_6">
      <g>
       <use xlink:href="#m88770afe78" x="48.851283" y="66.629723" style="stroke: #000000; stroke-width: 0.8"/>
      </g>
     </g>
     <g id="text_7">
      <text style="font: 10px 'Arial', sans-serif; text-anchor: end" x="41.851283" y="70.208629" transform="rotate(-0 41.851283 70.208629)">0.6</text>
     </g>
    </g>
    <g id="ytick_7">
     <g id="line2d_7">
      <g>
       <use xlink:href="#m88770afe78" x="48.851283" y="24.142686" style="stroke: #000000; stroke-width: 0.8"/>
      </g>
     </g>
     <g id="text_8">
      <text style="font: 10px 'Arial', sans-serif; text-anchor: end" x="41.851283" y="27.721592" transform="rotate(-0 41.851283 27.721592)">0.8</text>
     </g>
    </g>
    <g id="text_9">
     <text style="font: 10px 'Arial', sans-serif; text-anchor: middle" x="16.005971" y="152.31998" transform="rotate(-90 16.005971 152.31998)">Activity</text>
    </g>
   </g>
   <g id="line2d_8">
    <path d="M 48.851283 178.63854 
L 60.011283 162.45688 
L 71.171283 142.000412 
L 82.331283 95.34228 
L 93.491283 68.949558 
L 104.651283 77.501835 
L 115.811283 98.138698 
L 126.971283 124.137128 
L 138.131283 144.175664 
L 149.291283 159.037065 
L 160.451283 170.805052 
L 171.611283 175.257977 
L 182.771283 187.685691 
L 193.931283 199.837779 
L 205.091283 207.188263 
L 216.251283 219.137732 
L 227.411283 219.832735 
L 238.571283 220.529722 
L 249.731283 222.907443 
L 260.891283 228.984138 
L 272.051283 237.349234 
L 283.211283 250.866988 
L 294.371283 261.184764 
L 305.531283 253.160365 
L 316.691283 242.211968 
L 327.851283 249.02565 
L 339.011283 255.2689 
L 350.171283 264.556144 
L 361.331283 256.030666 
L 372.491283 251.738333 
L 383.651283 255.865235 
L 394.811283 259.301793 
L 405.971283 253.981269 
" clip-path="url(#pc01fdece54)" style="fill: none; stroke: #1f77b4; stroke-width: 1.5; stroke-linecap: square"/>
   </g>
   <g id="line2d_9">
    <path d="M 48.851283 223.415273 
L 60.011283 207.654216 
L 71.171283 172.473233 
L 82.331283 125.541294 
L 93.491283 101.036311 
L 104.651283 89.467163 
L 115.811283 91.479725 
L 126.971283 103.549008 
L 138.131283 115.784032 
L 149.291283 120.215681 
L 160.451283 137.758996 
L 171.611283 157.948132 
L 182.771283 169.669403 
L 193.931283 178.857642 
L 205.091283 183.433133 
L 216.251283 180.494646 
L 227.411283 181.713848 
L 238.571283 193.895657 
L 249.731283 203.398845 
L 260.891283 212.399899 
L 272.051283 208.555071 
L 283.211283 212.712934 
L 294.371283 219.837859 
L 305.531283 227.70326 
L 316.691283 228.520394 
L 327.851283 234.7084 
L 339.011283 236.853148 
L 350.171283 239.133248 
L 361.331283 243.754173 
L 372.491283 246.287212 
L 383.651283 244.098555 
L 394.811283 247.117819 
L 405.971283 252.113296 
" clip-path="url(#pc01fdece54)" style="fill: none; stroke: #ff7f0e; stroke-width: 1.5; stroke-linecap: square"/>
   </g>
   <g id="line2d_10">
    <path d="M 82.331283 285.37598 
L 82.331283 19.26398 
" clip-path="url(#pc01fdece54)" style="fill: none; stroke-dasharray: 5.55,2.4; stroke-dashoffset: 0; stroke: #000000; stroke-opacity: 0.5; stroke-width: 1.5"/>
   </g>
   <g id="line2d_11">
    <path d="M 383.651283 285.37598 
L 383.651283 19.26398 
" clip-path="url(#pc01fdece54)" style="fill: none; stroke-dasharray: 5.55,2.4; stroke-dashoffset: 0; stroke: #000000; stroke-opacity: 0.5; stroke-width: 1.5"/>
   </g>
   <g id="patch_3">
    <path d="M 48.851283 285.37598 
L 405.971283 285.37598 
" style="fill: none; stroke: #000000; stroke-width: 0.8; stroke-linejoin: miter; stroke-linecap: square"/>
   </g>
   <g id="text_10">
    <text style="font: 6.94px 'Arial', sans-serif" transform="translate(10.097767 321.385533) rotate(-35)">-0.1s Sampling</text>
   </g>
   <g id="text_11">
    <text style="font: 6.94px 'Arial', sans-serif" transform="translate(57.794497 311.430872) rotate(-35)">Sampling</text>
   </g>
   <g id="text_12">
    <text style="font: 6.94px 'Arial', sans-serif" transform="translate(319.037191 339.456682) rotate(-35)">Movement to Lateral Port</text>
   </g>
   <g id="text_13">
    <text style="font: 8.33px 'Arial', sans-serif; text-anchor: middle" x="227.411283" y="13.26398" transform="rotate(-0 227.411283 13.26398)">GP4_28_S2_L51_D250_M2L - Trace:76_GP4_28_S2_L51_D250_M2L (when: correct)</text>
   </g>
   <g id="legend_1">
    <g id="patch_4">
     <path d="M 131.766697 354.133136 
L 323.055869 354.133136 
Q 324.443869 354.133136 324.443869 352.745136 
L 324.443869 343.45638 
Q 324.443869 342.06838 323.055869 342.06838 
L 131.766697 342.06838 
Q 130.378697 342.06838 130.378697 343.45638 
L 130.378697 352.745136 
Q 130.378697 354.133136 131.766697 354.133136 
z
" style="fill: #ffffff; opacity: 0.8; stroke: #cccccc; stroke-linejoin: miter"/>
    </g>
    <g id="line2d_12">
     <path d="M 133.154697 347.467483 
L 140.094697 347.467483 
L 147.034697 347.467483 
" style="fill: none; stroke: #1f77b4; stroke-width: 1.5; stroke-linecap: square"/>
    </g>
    <g id="text_14">
     <text style="font: 6.94px 'Arial', sans-serif; text-anchor: start" x="152.586697" y="349.896483" transform="rotate(-0 152.586697 349.896483)">DecisionRight (99 pts)</text>
    </g>
    <g id="line2d_13">
     <path d="M 234.73461 347.467483 
L 241.67461 347.467483 
L 248.61461 347.467483 
" style="fill: none; stroke: #ff7f0e; stroke-width: 1.5; stroke-linecap: square"/>
    </g>
    <g id="text_15">
     <text style="font: 6.94px 'Arial', sans-serif; text-anchor: start" x="254.16661" y="349.896483" transform="rotate(-0 254.16661 349.896483)">DecisionLeft (102 pts)</text>
    </g>
   </g>
  </g>
 </g>
 <defs>
  <clipPath id="pc01fdece54">
   <rect x="48.851283" y="19.26398" width="357.12" height="266.112"/>
  </clipPath>
 </defs>
</svg>
