<?xml version="1.0" encoding="utf-8" standalone="no"?>
<!DOCTYPE svg PUBLIC "-//W3C//DTD SVG 1.1//EN"
  "http://www.w3.org/Graphics/SVG/1.1/DTD/svg11.dtd">
<svg xmlns:xlink="http://www.w3.org/1999/xlink" width="413.171283pt" height="361.333136pt" viewBox="0 0 413.171283 361.333136" xmlns="http://www.w3.org/2000/svg" version="1.1">
 <metadata>
  <rdf:RDF xmlns:dc="http://purl.org/dc/elements/1.1/" xmlns:cc="http://creativecommons.org/ns#" xmlns:rdf="http://www.w3.org/1999/02/22-rdf-syntax-ns#">
   <cc:Work>
    <dc:type rdf:resource="http://purl.org/dc/dcmitype/StillImage"/>
    <dc:date>2025-12-29T04:07:24.299043</dc:date>
    <dc:format>image/svg+xml</dc:format>
    <dc:creator>
     <cc:Agent>
      <dc:title>Matplotlib v3.8.0, https://matplotlib.org/</dc:title>
     </cc:Agent>
    </dc:creator>
   </cc:Work>
  </rdf:RDF>
 </metadata>
 <defs>
  <style type="text/css">*{stroke-linejoin: round; stroke-linecap: butt}</style>
 </defs>
 <g id="figure_1">
  <g id="patch_1">
   <path d="M 0 361.333136 
L 413.171283 361.333136 
L 413.171283 -0 
L 0 -0 
z
" style="fill: #ffffff"/>
  </g>
  <g id="axes_1">
   <g id="patch_2">
    <path d="M 48.851283 285.37598 
L 405.971283 285.37598 
L 405.971283 19.26398 
L 48.851283 19.26398 
z
" style="fill: #ffffff"/>
   </g>
   <g id="PolyCollection_1">
    <defs>
     <path id="m419d00eb9e" d="M 48.851283 -258.862797 
L 48.851283 -212.846625 
L 60.011283 -232.527747 
L 71.171283 -248.84493 
L 82.331283 -269.15599 
L 93.491283 -268.866204 
L 104.651283 -246.317145 
L 115.811283 -210.449321 
L 126.971283 -193.021471 
L 138.131283 -189.212967 
L 149.291283 -181.847926 
L 160.451283 -175.416454 
L 171.611283 -166.061313 
L 182.771283 -154.010684 
L 193.931283 -140.516127 
L 205.091283 -133.579759 
L 216.251283 -131.767557 
L 227.411283 -132.55826 
L 238.571283 -127.243349 
L 249.731283 -110.985379 
L 260.891283 -102.39038 
L 272.051283 -109.888866 
L 283.211283 -110.534618 
L 294.371283 -102.142574 
L 305.531283 -94.315186 
L 316.691283 -91.933677 
L 327.851283 -88.053156 
L 339.011283 -91.469156 
L 350.171283 -91.774918 
L 361.331283 -99.728035 
L 372.491283 -110.77697 
L 383.651283 -112.626385 
L 394.811283 -107.34753 
L 405.971283 -91.511308 
L 405.971283 -115.907079 
L 405.971283 -115.907079 
L 394.811283 -132.181014 
L 383.651283 -138.416667 
L 372.491283 -136.189002 
L 361.331283 -125.498093 
L 350.171283 -115.797718 
L 339.011283 -115.193985 
L 327.851283 -111.577324 
L 316.691283 -116.950958 
L 305.531283 -120.096905 
L 294.371283 -127.897707 
L 283.211283 -136.564839 
L 272.051283 -135.969943 
L 260.891283 -127.303843 
L 249.731283 -135.235194 
L 238.571283 -152.138791 
L 227.411283 -159.00463 
L 216.251283 -158.080843 
L 205.091283 -159.531074 
L 193.931283 -169.188433 
L 182.771283 -186.305141 
L 171.611283 -199.655951 
L 160.451283 -208.491203 
L 149.291283 -213.020665 
L 138.131283 -219.073164 
L 126.971283 -225.765276 
L 115.811283 -249.937227 
L 104.651283 -294.19033 
L 93.491283 -320.32213 
L 82.331283 -321.605285 
L 71.171283 -300.632488 
L 60.011283 -281.562097 
L 48.851283 -258.862797 
z
" style="stroke: #1f77b4; stroke-opacity: 0.2"/>
    </defs>
    <g clip-path="url(#pf6048c218b)">
     <use xlink:href="#m419d00eb9e" x="0" y="361.333136" style="fill: #1f77b4; fill-opacity: 0.2; stroke: #1f77b4; stroke-opacity: 0.2"/>
    </g>
   </g>
   <g id="PolyCollection_2">
    <defs>
     <path id="m6dbe05c011" d="M 48.851283 -269.812433 
L 48.851283 -228.595352 
L 60.011283 -244.6187 
L 71.171283 -256.162981 
L 82.331283 -269.80926 
L 93.491283 -276.016843 
L 104.651283 -275.073225 
L 115.811283 -254.82897 
L 126.971283 -232.331449 
L 138.131283 -208.900415 
L 149.291283 -191.995351 
L 160.451283 -191.921967 
L 171.611283 -184.371431 
L 182.771283 -169.801403 
L 193.931283 -167.018451 
L 205.091283 -167.230005 
L 216.251283 -165.881028 
L 227.411283 -158.784668 
L 238.571283 -161.725254 
L 249.731283 -151.931547 
L 260.891283 -134.344106 
L 272.051283 -125.62353 
L 283.211283 -119.331714 
L 294.371283 -119.741648 
L 305.531283 -120.39572 
L 316.691283 -111.065839 
L 327.851283 -113.584028 
L 339.011283 -117.628023 
L 350.171283 -126.608533 
L 361.331283 -135.007788 
L 372.491283 -141.506514 
L 383.651283 -139.185234 
L 394.811283 -121.859338 
L 405.971283 -106.170647 
L 405.971283 -128.628411 
L 405.971283 -128.628411 
L 394.811283 -146.417356 
L 383.651283 -166.287768 
L 372.491283 -167.645424 
L 361.331283 -160.964627 
L 350.171283 -151.325269 
L 339.011283 -141.531056 
L 327.851283 -137.934551 
L 316.691283 -136.09347 
L 305.531283 -147.19706 
L 294.371283 -147.824588 
L 283.211283 -148.149605 
L 272.051283 -155.996604 
L 260.891283 -166.470317 
L 249.731283 -183.794706 
L 238.571283 -193.206662 
L 227.411283 -190.360715 
L 216.251283 -196.855329 
L 205.091283 -198.005105 
L 193.931283 -200.156264 
L 182.771283 -204.300258 
L 171.611283 -220.342432 
L 160.451283 -228.934781 
L 149.291283 -230.24763 
L 138.131283 -248.791159 
L 126.971283 -275.086964 
L 115.811283 -300.893908 
L 104.651283 -326.997756 
L 93.491283 -329.973156 
L 82.331283 -322.774308 
L 71.171283 -306.16885 
L 60.011283 -290.358091 
L 48.851283 -269.812433 
z
" style="stroke: #ff7f0e; stroke-opacity: 0.2"/>
    </defs>
    <g clip-path="url(#pf6048c218b)">
     <use xlink:href="#m6dbe05c011" x="0" y="361.333136" style="fill: #ff7f0e; fill-opacity: 0.2; stroke: #ff7f0e; stroke-opacity: 0.2"/>
    </g>
   </g>
   <g id="matplotlib.axis_1">
    <g id="text_1">
     <text style="font: 10px 'Arial', sans-serif; text-anchor: middle" x="227.411283" y="296.533792" transform="rotate(-0 227.411283 296.533792)">Time</text>
    </g>
   </g>
   <g id="matplotlib.axis_2">
    <g id="ytick_1">
     <g id="line2d_1">
      <defs>
       <path id="mf8e08fc70f" d="M 0 0 
L -3.5 0 
" style="stroke: #000000; stroke-width: 0.8"/>
      </defs>
      <g>
       <use xlink:href="#mf8e08fc70f" x="48.851283" y="244.3195" style="stroke: #000000; stroke-width: 0.8"/>
      </g>
     </g>
     <g id="text_2">
      <text style="font: 10px 'Arial', sans-serif; text-anchor: end" x="41.851283" y="247.898406" transform="rotate(-0 41.851283 247.898406)">−0.4</text>
     </g>
    </g>
    <g id="ytick_2">
     <g id="line2d_2">
      <g>
       <use xlink:href="#mf8e08fc70f" x="48.851283" y="197.516693" style="stroke: #000000; stroke-width: 0.8"/>
      </g>
     </g>
     <g id="text_3">
      <text style="font: 10px 'Arial', sans-serif; text-anchor: end" x="41.851283" y="201.095599" transform="rotate(-0 41.851283 201.095599)">−0.2</text>
     </g>
    </g>
    <g id="ytick_3">
     <g id="line2d_3">
      <g>
       <use xlink:href="#mf8e08fc70f" x="48.851283" y="150.713886" style="stroke: #000000; stroke-width: 0.8"/>
      </g>
     </g>
     <g id="text_4">
      <text style="font: 10px 'Arial', sans-serif; text-anchor: end" x="41.851283" y="154.292792" transform="rotate(-0 41.851283 154.292792)">0.0</text>
     </g>
    </g>
    <g id="ytick_4">
     <g id="line2d_4">
      <g>
       <use xlink:href="#mf8e08fc70f" x="48.851283" y="103.911079" style="stroke: #000000; stroke-width: 0.8"/>
      </g>
     </g>
     <g id="text_5">
      <text style="font: 10px 'Arial', sans-serif; text-anchor: end" x="41.851283" y="107.489985" transform="rotate(-0 41.851283 107.489985)">0.2</text>
     </g>
    </g>
    <g id="ytick_5">
     <g id="line2d_5">
      <g>
       <use xlink:href="#mf8e08fc70f" x="48.851283" y="57.108272" style="stroke: #000000; stroke-width: 0.8"/>
      </g>
     </g>
     <g id="text_6">
      <text style="font: 10px 'Arial', sans-serif; text-anchor: end" x="41.851283" y="60.687178" transform="rotate(-0 41.851283 60.687178)">0.4</text>
     </g>
    </g>
    <g id="text_7">
     <text style="font: 10px 'Arial', sans-serif; text-anchor: middle" x="16.005971" y="152.31998" transform="rotate(-90 16.005971 152.31998)">Activity</text>
    </g>
   </g>
   <g id="line2d_6">
    <path d="M 48.851283 125.478426 
L 60.011283 104.288213 
L 71.171283 86.594427 
L 82.331283 65.952498 
L 93.491283 66.738967 
L 104.651283 91.079399 
L 115.811283 131.139862 
L 126.971283 151.939762 
L 138.131283 157.190071 
L 149.291283 163.89884 
L 160.451283 169.379307 
L 171.611283 178.474504 
L 182.771283 191.175224 
L 193.931283 206.480856 
L 205.091283 214.777719 
L 216.251283 216.408934 
L 227.411283 215.551691 
L 238.571283 221.642066 
L 249.731283 238.222849 
L 260.891283 246.486025 
L 272.051283 238.403731 
L 283.211283 237.783408 
L 294.371283 246.312996 
L 305.531283 254.12709 
L 316.691283 256.890818 
L 327.851283 261.517896 
L 339.011283 258.001565 
L 350.171283 257.546822 
L 361.331283 248.720072 
L 372.491283 237.85015 
L 383.651283 235.81161 
L 394.811283 241.568864 
L 405.971283 257.623942 
" clip-path="url(#pf6048c218b)" style="fill: none; stroke: #1f77b4; stroke-width: 1.5; stroke-linecap: square"/>
   </g>
   <g id="line2d_7">
    <path d="M 48.851283 112.129242 
L 60.011283 93.844741 
L 71.171283 80.167221 
L 82.331283 65.041352 
L 93.491283 58.338136 
L 104.651283 60.297646 
L 115.811283 83.471697 
L 126.971283 107.62393 
L 138.131283 132.487349 
L 149.291283 150.211645 
L 160.451283 150.904761 
L 171.611283 158.976204 
L 182.771283 174.282305 
L 193.931283 177.745779 
L 205.091283 178.715581 
L 216.251283 179.964957 
L 227.411283 186.760444 
L 238.571283 183.867178 
L 249.731283 193.47001 
L 260.891283 210.925925 
L 272.051283 220.523069 
L 283.211283 227.592477 
L 294.371283 227.550018 
L 305.531283 227.536746 
L 316.691283 237.753481 
L 327.851283 235.573847 
L 339.011283 231.753596 
L 350.171283 222.366235 
L 361.331283 213.346928 
L 372.491283 206.757168 
L 383.651283 208.596635 
L 394.811283 227.194789 
L 405.971283 243.933607 
" clip-path="url(#pf6048c218b)" style="fill: none; stroke: #ff7f0e; stroke-width: 1.5; stroke-linecap: square"/>
   </g>
   <g id="line2d_8">
    <path d="M 82.331283 285.37598 
L 82.331283 19.26398 
" clip-path="url(#pf6048c218b)" style="fill: none; stroke-dasharray: 5.55,2.4; stroke-dashoffset: 0; stroke: #000000; stroke-opacity: 0.5; stroke-width: 1.5"/>
   </g>
   <g id="line2d_9">
    <path d="M 383.651283 285.37598 
L 383.651283 19.26398 
" clip-path="url(#pf6048c218b)" style="fill: none; stroke-dasharray: 5.55,2.4; stroke-dashoffset: 0; stroke: #000000; stroke-opacity: 0.5; stroke-width: 1.5"/>
   </g>
   <g id="patch_3">
    <path d="M 48.851283 285.37598 
L 405.971283 285.37598 
" style="fill: none; stroke: #000000; stroke-width: 0.8; stroke-linejoin: miter; stroke-linecap: square"/>
   </g>
   <g id="text_8">
    <text style="font: 6.94px 'Arial', sans-serif" transform="translate(10.097767 321.385533) rotate(-35)">-0.1s Sampling</text>
   </g>
   <g id="text_9">
    <text style="font: 6.94px 'Arial', sans-serif" transform="translate(57.794497 311.430872) rotate(-35)">Sampling</text>
   </g>
   <g id="text_10">
    <text style="font: 6.94px 'Arial', sans-serif" transform="translate(319.037191 339.456682) rotate(-35)">Movement to Lateral Port</text>
   </g>
   <g id="text_11">
    <text style="font: 8.33px 'Arial', sans-serif; text-anchor: middle" x="227.411283" y="13.26398" transform="rotate(-0 227.411283 13.26398)">GP4_28_S2_L51_D250_M2L - Trace:80_GP4_28_S2_L51_D250_M2L (when: correct)</text>
   </g>
   <g id="legend_1">
    <g id="patch_4">
     <path d="M 131.766697 354.133136 
L 323.055869 354.133136 
Q 324.443869 354.133136 324.443869 352.745136 
L 324.443869 343.45638 
Q 324.443869 342.06838 323.055869 342.06838 
L 131.766697 342.06838 
Q 130.378697 342.06838 130.378697 343.45638 
L 130.378697 352.745136 
Q 130.378697 354.133136 131.766697 354.133136 
z
" style="fill: #ffffff; opacity: 0.8; stroke: #cccccc; stroke-linejoin: miter"/>
    </g>
    <g id="line2d_10">
     <path d="M 133.154697 347.467483 
L 140.094697 347.467483 
L 147.034697 347.467483 
" style="fill: none; stroke: #1f77b4; stroke-width: 1.5; stroke-linecap: square"/>
    </g>
    <g id="text_12">
     <text style="font: 6.94px 'Arial', sans-serif; text-anchor: start" x="152.586697" y="349.896483" transform="rotate(-0 152.586697 349.896483)">DecisionRight (99 pts)</text>
    </g>
    <g id="line2d_11">
     <path d="M 234.73461 347.467483 
L 241.67461 347.467483 
L 248.61461 347.467483 
" style="fill: none; stroke: #ff7f0e; stroke-width: 1.5; stroke-linecap: square"/>
    </g>
    <g id="text_13">
     <text style="font: 6.94px 'Arial', sans-serif; text-anchor: start" x="254.16661" y="349.896483" transform="rotate(-0 254.16661 349.896483)">DecisionLeft (102 pts)</text>
    </g>
   </g>
  </g>
 </g>
 <defs>
  <clipPath id="pf6048c218b">
   <rect x="48.851283" y="19.26398" width="357.12" height="266.112"/>
  </clipPath>
 </defs>
</svg>
