<?xml version="1.0" encoding="utf-8" standalone="no"?>
<!DOCTYPE svg PUBLIC "-//W3C//DTD SVG 1.1//EN"
  "http://www.w3.org/Graphics/SVG/1.1/DTD/svg11.dtd">
<svg xmlns:xlink="http://www.w3.org/1999/xlink" width="413.171283pt" height="361.333136pt" viewBox="0 0 413.171283 361.333136" xmlns="http://www.w3.org/2000/svg" version="1.1">
 <metadata>
  <rdf:RDF xmlns:dc="http://purl.org/dc/elements/1.1/" xmlns:cc="http://creativecommons.org/ns#" xmlns:rdf="http://www.w3.org/1999/02/22-rdf-syntax-ns#">
   <cc:Work>
    <dc:type rdf:resource="http://purl.org/dc/dcmitype/StillImage"/>
    <dc:date>2025-12-29T04:07:21.022896</dc:date>
    <dc:format>image/svg+xml</dc:format>
    <dc:creator>
     <cc:Agent>
      <dc:title>Matplotlib v3.8.0, https://matplotlib.org/</dc:title>
     </cc:Agent>
    </dc:creator>
   </cc:Work>
  </rdf:RDF>
 </metadata>
 <defs>
  <style type="text/css">*{stroke-linejoin: round; stroke-linecap: butt}</style>
 </defs>
 <g id="figure_1">
  <g id="patch_1">
   <path d="M 0 361.333136 
L 413.171283 361.333136 
L 413.171283 -0 
L 0 -0 
z
" style="fill: #ffffff"/>
  </g>
  <g id="axes_1">
   <g id="patch_2">
    <path d="M 48.851283 285.37598 
L 405.971283 285.37598 
L 405.971283 19.26398 
L 48.851283 19.26398 
z
" style="fill: #ffffff"/>
   </g>
   <g id="PolyCollection_1">
    <defs>
     <path id="m1608b48c35" d="M 48.851283 -163.724827 
L 48.851283 -110.687641 
L 60.011283 -142.106157 
L 71.171283 -177.232453 
L 82.331283 -211.043917 
L 93.491283 -219.537186 
L 104.651283 -217.753524 
L 115.811283 -210.294036 
L 126.971283 -203.676241 
L 138.131283 -188.772388 
L 149.291283 -176.372932 
L 160.451283 -171.752396 
L 171.611283 -164.623425 
L 182.771283 -154.370216 
L 193.931283 -143.824249 
L 205.091283 -136.846646 
L 216.251283 -127.157935 
L 227.411283 -118.476542 
L 238.571283 -116.785391 
L 249.731283 -112.835191 
L 260.891283 -114.603738 
L 272.051283 -113.117817 
L 283.211283 -113.562787 
L 294.371283 -114.528927 
L 305.531283 -115.24864 
L 316.691283 -111.929935 
L 327.851283 -107.940841 
L 339.011283 -106.384943 
L 350.171283 -104.832631 
L 361.331283 -102.650054 
L 372.491283 -97.796851 
L 383.651283 -93.885799 
L 394.811283 -93.458079 
L 405.971283 -92.071189 
L 405.971283 -129.245491 
L 405.971283 -129.245491 
L 394.811283 -132.60067 
L 383.651283 -134.298426 
L 372.491283 -137.838603 
L 361.331283 -138.721962 
L 350.171283 -139.410092 
L 339.011283 -145.248781 
L 327.851283 -148.197791 
L 316.691283 -150.817578 
L 305.531283 -155.894884 
L 294.371283 -158.692427 
L 283.211283 -157.55703 
L 272.051283 -154.523925 
L 260.891283 -156.606812 
L 249.731283 -159.254233 
L 238.571283 -167.165377 
L 227.411283 -169.818783 
L 216.251283 -179.849844 
L 205.091283 -193.804728 
L 193.931283 -204.426888 
L 182.771283 -220.646342 
L 171.611283 -235.422044 
L 160.451283 -241.22875 
L 149.291283 -247.068022 
L 138.131283 -266.22006 
L 126.971283 -283.913134 
L 115.811283 -288.750627 
L 104.651283 -292.439926 
L 93.491283 -293.240409 
L 82.331283 -281.635748 
L 71.171283 -240.439998 
L 60.011283 -199.031327 
L 48.851283 -163.724827 
z
" style="stroke: #1f77b4; stroke-opacity: 0.2"/>
    </defs>
    <g clip-path="url(#p07a8411d70)">
     <use xlink:href="#m1608b48c35" x="0" y="361.333136" style="fill: #1f77b4; fill-opacity: 0.2; stroke: #1f77b4; stroke-opacity: 0.2"/>
    </g>
   </g>
   <g id="PolyCollection_2">
    <defs>
     <path id="mb248fa93b3" d="M 48.851283 -128.158995 
L 48.851283 -88.053156 
L 60.011283 -123.602848 
L 71.171283 -171.20829 
L 82.331283 -222.349406 
L 93.491283 -231.693946 
L 104.651283 -234.547239 
L 115.811283 -233.218412 
L 126.971283 -225.424844 
L 138.131283 -218.350562 
L 149.291283 -215.088835 
L 160.451283 -211.161274 
L 171.611283 -198.733155 
L 182.771283 -192.058373 
L 193.931283 -194.947649 
L 205.091283 -195.731193 
L 216.251283 -189.892414 
L 227.411283 -181.878702 
L 238.571283 -181.216296 
L 249.731283 -184.744793 
L 260.891283 -181.898211 
L 272.051283 -177.458068 
L 283.211283 -169.467067 
L 294.371283 -164.558233 
L 305.531283 -159.414679 
L 316.691283 -159.392473 
L 327.851283 -159.256411 
L 339.011283 -155.987269 
L 350.171283 -156.289729 
L 361.331283 -161.364969 
L 372.491283 -165.558472 
L 383.651283 -163.878974 
L 394.811283 -151.264912 
L 405.971283 -140.908189 
L 405.971283 -210.485232 
L 405.971283 -210.485232 
L 394.811283 -228.922674 
L 383.651283 -244.202295 
L 372.491283 -244.881481 
L 361.331283 -239.424229 
L 350.171283 -232.746432 
L 339.011283 -230.178561 
L 327.851283 -231.932298 
L 316.691283 -232.549387 
L 305.531283 -235.920636 
L 294.371283 -245.664484 
L 283.211283 -254.300895 
L 272.051283 -265.378222 
L 260.891283 -272.576193 
L 249.731283 -275.933184 
L 238.571283 -272.145017 
L 227.411283 -274.452433 
L 216.251283 -282.905439 
L 205.091283 -288.927905 
L 193.931283 -287.706154 
L 182.771283 -285.753945 
L 171.611283 -294.261324 
L 160.451283 -307.182009 
L 149.291283 -310.427372 
L 138.131283 -313.373261 
L 126.971283 -321.278228 
L 115.811283 -329.973156 
L 104.651283 -329.796271 
L 93.491283 -321.883206 
L 82.331283 -307.010848 
L 71.171283 -239.008025 
L 60.011283 -174.062702 
L 48.851283 -128.158995 
z
" style="stroke: #ff7f0e; stroke-opacity: 0.2"/>
    </defs>
    <g clip-path="url(#p07a8411d70)">
     <use xlink:href="#mb248fa93b3" x="0" y="361.333136" style="fill: #ff7f0e; fill-opacity: 0.2; stroke: #ff7f0e; stroke-opacity: 0.2"/>
    </g>
   </g>
   <g id="matplotlib.axis_1">
    <g id="text_1">
     <text style="font: 10px 'Arial', sans-serif; text-anchor: middle" x="227.411283" y="296.533792" transform="rotate(-0 227.411283 296.533792)">Time</text>
    </g>
   </g>
   <g id="matplotlib.axis_2">
    <g id="ytick_1">
     <g id="line2d_1">
      <defs>
       <path id="m92ad55e684" d="M 0 0 
L -3.5 0 
" style="stroke: #000000; stroke-width: 0.8"/>
      </defs>
      <g>
       <use xlink:href="#m92ad55e684" x="48.851283" y="263.744534" style="stroke: #000000; stroke-width: 0.8"/>
      </g>
     </g>
     <g id="text_2">
      <text style="font: 10px 'Arial', sans-serif; text-anchor: end" x="41.851283" y="267.32344" transform="rotate(-0 41.851283 267.32344)">−0.2</text>
     </g>
    </g>
    <g id="ytick_2">
     <g id="line2d_2">
      <g>
       <use xlink:href="#m92ad55e684" x="48.851283" y="231.623716" style="stroke: #000000; stroke-width: 0.8"/>
      </g>
     </g>
     <g id="text_3">
      <text style="font: 10px 'Arial', sans-serif; text-anchor: end" x="41.851283" y="235.202622" transform="rotate(-0 41.851283 235.202622)">−0.1</text>
     </g>
    </g>
    <g id="ytick_3">
     <g id="line2d_3">
      <g>
       <use xlink:href="#m92ad55e684" x="48.851283" y="199.502898" style="stroke: #000000; stroke-width: 0.8"/>
      </g>
     </g>
     <g id="text_4">
      <text style="font: 10px 'Arial', sans-serif; text-anchor: end" x="41.851283" y="203.081804" transform="rotate(-0 41.851283 203.081804)">0.0</text>
     </g>
    </g>
    <g id="ytick_4">
     <g id="line2d_4">
      <g>
       <use xlink:href="#m92ad55e684" x="48.851283" y="167.38208" style="stroke: #000000; stroke-width: 0.8"/>
      </g>
     </g>
     <g id="text_5">
      <text style="font: 10px 'Arial', sans-serif; text-anchor: end" x="41.851283" y="170.960986" transform="rotate(-0 41.851283 170.960986)">0.1</text>
     </g>
    </g>
    <g id="ytick_5">
     <g id="line2d_5">
      <g>
       <use xlink:href="#m92ad55e684" x="48.851283" y="135.261262" style="stroke: #000000; stroke-width: 0.8"/>
      </g>
     </g>
     <g id="text_6">
      <text style="font: 10px 'Arial', sans-serif; text-anchor: end" x="41.851283" y="138.840168" transform="rotate(-0 41.851283 138.840168)">0.2</text>
     </g>
    </g>
    <g id="ytick_6">
     <g id="line2d_6">
      <g>
       <use xlink:href="#m92ad55e684" x="48.851283" y="103.140443" style="stroke: #000000; stroke-width: 0.8"/>
      </g>
     </g>
     <g id="text_7">
      <text style="font: 10px 'Arial', sans-serif; text-anchor: end" x="41.851283" y="106.71935" transform="rotate(-0 41.851283 106.71935)">0.3</text>
     </g>
    </g>
    <g id="ytick_7">
     <g id="line2d_7">
      <g>
       <use xlink:href="#m92ad55e684" x="48.851283" y="71.019625" style="stroke: #000000; stroke-width: 0.8"/>
      </g>
     </g>
     <g id="text_8">
      <text style="font: 10px 'Arial', sans-serif; text-anchor: end" x="41.851283" y="74.598532" transform="rotate(-0 41.851283 74.598532)">0.4</text>
     </g>
    </g>
    <g id="ytick_8">
     <g id="line2d_8">
      <g>
       <use xlink:href="#m92ad55e684" x="48.851283" y="38.898807" style="stroke: #000000; stroke-width: 0.8"/>
      </g>
     </g>
     <g id="text_9">
      <text style="font: 10px 'Arial', sans-serif; text-anchor: end" x="41.851283" y="42.477714" transform="rotate(-0 41.851283 42.477714)">0.5</text>
     </g>
    </g>
    <g id="text_10">
     <text style="font: 10px 'Arial', sans-serif; text-anchor: middle" x="16.005971" y="152.31998" transform="rotate(-90 16.005971 152.31998)">Activity</text>
    </g>
   </g>
   <g id="line2d_9">
    <path d="M 48.851283 224.126901 
L 60.011283 190.764393 
L 71.171283 152.49691 
L 82.331283 114.993304 
L 93.491283 104.944338 
L 104.651283 106.236411 
L 115.811283 111.810805 
L 126.971283 117.538449 
L 138.131283 133.836912 
L 149.291283 149.61266 
L 160.451283 154.842564 
L 171.611283 161.310402 
L 182.771283 173.824858 
L 193.931283 187.207568 
L 205.091283 196.007448 
L 216.251283 207.829247 
L 227.411283 217.185474 
L 238.571283 219.357751 
L 249.731283 225.288425 
L 260.891283 225.727862 
L 272.051283 227.512266 
L 283.211283 225.773227 
L 294.371283 224.72246 
L 305.531283 225.761374 
L 316.691283 229.959379 
L 327.851283 233.26382 
L 339.011283 235.516274 
L 350.171283 239.211774 
L 361.331283 240.647127 
L 372.491283 243.51541 
L 383.651283 247.241023 
L 394.811283 248.303761 
L 405.971283 250.674797 
" clip-path="url(#p07a8411d70)" style="fill: none; stroke: #1f77b4; stroke-width: 1.5; stroke-linecap: square"/>
   </g>
   <g id="line2d_10">
    <path d="M 48.851283 253.22706 
L 60.011283 212.500361 
L 71.171283 156.22498 
L 82.331283 96.653006 
L 93.491283 84.54456 
L 104.651283 79.161381 
L 115.811283 79.737354 
L 126.971283 87.981598 
L 138.131283 95.471222 
L 149.291283 98.575033 
L 160.451283 102.161492 
L 171.611283 114.835899 
L 182.771283 122.426979 
L 193.931283 120.006232 
L 205.091283 119.003587 
L 216.251283 124.934212 
L 227.411283 133.167571 
L 238.571283 134.652482 
L 249.731283 130.99415 
L 260.891283 134.095936 
L 272.051283 139.914991 
L 283.211283 149.449158 
L 294.371283 156.221777 
L 305.531283 163.665478 
L 316.691283 165.362207 
L 327.851283 165.738783 
L 339.011283 168.250222 
L 350.171283 166.815054 
L 361.331283 160.938537 
L 372.491283 156.11316 
L 383.651283 157.292499 
L 394.811283 171.239342 
L 405.971283 185.636426 
" clip-path="url(#p07a8411d70)" style="fill: none; stroke: #ff7f0e; stroke-width: 1.5; stroke-linecap: square"/>
   </g>
   <g id="line2d_11">
    <path d="M 82.331283 285.37598 
L 82.331283 19.26398 
" clip-path="url(#p07a8411d70)" style="fill: none; stroke-dasharray: 5.55,2.4; stroke-dashoffset: 0; stroke: #000000; stroke-opacity: 0.5; stroke-width: 1.5"/>
   </g>
   <g id="line2d_12">
    <path d="M 383.651283 285.37598 
L 383.651283 19.26398 
" clip-path="url(#p07a8411d70)" style="fill: none; stroke-dasharray: 5.55,2.4; stroke-dashoffset: 0; stroke: #000000; stroke-opacity: 0.5; stroke-width: 1.5"/>
   </g>
   <g id="patch_3">
    <path d="M 48.851283 285.37598 
L 405.971283 285.37598 
" style="fill: none; stroke: #000000; stroke-width: 0.8; stroke-linejoin: miter; stroke-linecap: square"/>
   </g>
   <g id="text_11">
    <text style="font: 6.94px 'Arial', sans-serif" transform="translate(10.097767 321.385533) rotate(-35)">-0.1s Sampling</text>
   </g>
   <g id="text_12">
    <text style="font: 6.94px 'Arial', sans-serif" transform="translate(57.794497 311.430872) rotate(-35)">Sampling</text>
   </g>
   <g id="text_13">
    <text style="font: 6.94px 'Arial', sans-serif" transform="translate(319.037191 339.456682) rotate(-35)">Movement to Lateral Port</text>
   </g>
   <g id="text_14">
    <text style="font: 8.33px 'Arial', sans-serif; text-anchor: middle" x="227.411283" y="13.26398" transform="rotate(-0 227.411283 13.26398)">GP4_28_S2_L51_D250_M2L - Trace:9_GP4_28_S2_L51_D250_M2L (when: correct)</text>
   </g>
   <g id="legend_1">
    <g id="patch_4">
     <path d="M 131.766697 354.133136 
L 323.055869 354.133136 
Q 324.443869 354.133136 324.443869 352.745136 
L 324.443869 343.45638 
Q 324.443869 342.06838 323.055869 342.06838 
L 131.766697 342.06838 
Q 130.378697 342.06838 130.378697 343.45638 
L 130.378697 352.745136 
Q 130.378697 354.133136 131.766697 354.133136 
z
" style="fill: #ffffff; opacity: 0.8; stroke: #cccccc; stroke-linejoin: miter"/>
    </g>
    <g id="line2d_13">
     <path d="M 133.154697 347.467483 
L 140.094697 347.467483 
L 147.034697 347.467483 
" style="fill: none; stroke: #1f77b4; stroke-width: 1.5; stroke-linecap: square"/>
    </g>
    <g id="text_15">
     <text style="font: 6.94px 'Arial', sans-serif; text-anchor: start" x="152.586697" y="349.896483" transform="rotate(-0 152.586697 349.896483)">DecisionRight (99 pts)</text>
    </g>
    <g id="line2d_14">
     <path d="M 234.73461 347.467483 
L 241.67461 347.467483 
L 248.61461 347.467483 
" style="fill: none; stroke: #ff7f0e; stroke-width: 1.5; stroke-linecap: square"/>
    </g>
    <g id="text_16">
     <text style="font: 6.94px 'Arial', sans-serif; text-anchor: start" x="254.16661" y="349.896483" transform="rotate(-0 254.16661 349.896483)">DecisionLeft (102 pts)</text>
    </g>
   </g>
  </g>
 </g>
 <defs>
  <clipPath id="p07a8411d70">
   <rect x="48.851283" y="19.26398" width="357.12" height="266.112"/>
  </clipPath>
 </defs>
</svg>
