<?xml version="1.0" encoding="utf-8" standalone="no"?>
<!DOCTYPE svg PUBLIC "-//W3C//DTD SVG 1.1//EN"
  "http://www.w3.org/Graphics/SVG/1.1/DTD/svg11.dtd">
<svg xmlns:xlink="http://www.w3.org/1999/xlink" width="460.8pt" height="345.6pt" viewBox="0 0 460.8 345.6" xmlns="http://www.w3.org/2000/svg" version="1.1">
 <metadata>
  <rdf:RDF xmlns:dc="http://purl.org/dc/elements/1.1/" xmlns:cc="http://creativecommons.org/ns#" xmlns:rdf="http://www.w3.org/1999/02/22-rdf-syntax-ns#">
   <cc:Work>
    <dc:type rdf:resource="http://purl.org/dc/dcmitype/StillImage"/>
    <dc:date>2025-12-27T13:57:38.929538</dc:date>
    <dc:format>image/svg+xml</dc:format>
    <dc:creator>
     <cc:Agent>
      <dc:title>Matplotlib v3.8.0, https://matplotlib.org/</dc:title>
     </cc:Agent>
    </dc:creator>
   </cc:Work>
  </rdf:RDF>
 </metadata>
 <defs>
  <style type="text/css">*{stroke-linejoin: round; stroke-linecap: butt}</style>
 </defs>
 <g id="figure_1">
  <g id="patch_1">
   <path d="M 0 345.6 
L 460.8 345.6 
L 460.8 0 
L 0 0 
z
" style="fill: #ffffff"/>
  </g>
  <g id="axes_1">
   <g id="patch_2">
    <path d="M 57.6 307.584 
L 414.72 307.584 
L 414.72 41.472 
L 57.6 41.472 
z
" style="fill: #ffffff"/>
   </g>
   <g id="matplotlib.axis_1">
    <g id="xtick_1">
     <g id="line2d_1">
      <defs>
       <path id="mb832f18825" d="M 0 0 
L 0 3.5 
" style="stroke: #000000; stroke-width: 0.8"/>
      </defs>
      <g>
       <use xlink:href="#mb832f18825" x="113.558484" y="307.584" style="stroke: #000000; stroke-width: 0.8"/>
      </g>
     </g>
     <g id="text_1">
      <text style="font: 10px 'Arial', sans-serif; text-anchor: middle" x="113.558484" y="321.741812" transform="rotate(-0 113.558484 321.741812)">−6</text>
     </g>
    </g>
    <g id="xtick_2">
     <g id="line2d_2">
      <g>
       <use xlink:href="#mb832f18825" x="172.791122" y="307.584" style="stroke: #000000; stroke-width: 0.8"/>
      </g>
     </g>
     <g id="text_2">
      <text style="font: 10px 'Arial', sans-serif; text-anchor: middle" x="172.791122" y="321.741812" transform="rotate(-0 172.791122 321.741812)">−4</text>
     </g>
    </g>
    <g id="xtick_3">
     <g id="line2d_3">
      <g>
       <use xlink:href="#mb832f18825" x="232.023759" y="307.584" style="stroke: #000000; stroke-width: 0.8"/>
      </g>
     </g>
     <g id="text_3">
      <text style="font: 10px 'Arial', sans-serif; text-anchor: middle" x="232.023759" y="321.741812" transform="rotate(-0 232.023759 321.741812)">−2</text>
     </g>
    </g>
    <g id="xtick_4">
     <g id="line2d_4">
      <g>
       <use xlink:href="#mb832f18825" x="291.256397" y="307.584" style="stroke: #000000; stroke-width: 0.8"/>
      </g>
     </g>
     <g id="text_4">
      <text style="font: 10px 'Arial', sans-serif; text-anchor: middle" x="291.256397" y="321.741812" transform="rotate(-0 291.256397 321.741812)">0</text>
     </g>
    </g>
    <g id="xtick_5">
     <g id="line2d_5">
      <g>
       <use xlink:href="#mb832f18825" x="350.489035" y="307.584" style="stroke: #000000; stroke-width: 0.8"/>
      </g>
     </g>
     <g id="text_5">
      <text style="font: 10px 'Arial', sans-serif; text-anchor: middle" x="350.489035" y="321.741812" transform="rotate(-0 350.489035 321.741812)">2</text>
     </g>
    </g>
    <g id="xtick_6">
     <g id="line2d_6">
      <g>
       <use xlink:href="#mb832f18825" x="409.721672" y="307.584" style="stroke: #000000; stroke-width: 0.8"/>
      </g>
     </g>
     <g id="text_6">
      <text style="font: 10px 'Arial', sans-serif; text-anchor: middle" x="409.721672" y="321.741812" transform="rotate(-0 409.721672 321.741812)">4</text>
     </g>
    </g>
    <g id="text_7">
     <text style="font: 10px 'Arial', sans-serif; text-anchor: middle" x="236.16" y="335.009" transform="rotate(-0 236.16 335.009)">Rank deviation (z-score)</text>
    </g>
   </g>
   <g id="matplotlib.axis_2">
    <g id="ytick_1">
     <g id="line2d_7">
      <defs>
       <path id="m97f4457dd1" d="M 0 0 
L -3.5 0 
" style="stroke: #000000; stroke-width: 0.8"/>
      </defs>
      <g>
       <use xlink:href="#m97f4457dd1" x="57.6" y="307.584" style="stroke: #000000; stroke-width: 0.8"/>
      </g>
     </g>
     <g id="text_8">
      <text style="font: 10px 'Arial', sans-serif; text-anchor: end" x="50.6" y="311.162906" transform="rotate(-0 50.6 311.162906)">0.00</text>
     </g>
    </g>
    <g id="ytick_2">
     <g id="line2d_8">
      <g>
       <use xlink:href="#m97f4457dd1" x="57.6" y="276.944922" style="stroke: #000000; stroke-width: 0.8"/>
      </g>
     </g>
     <g id="text_9">
      <text style="font: 10px 'Arial', sans-serif; text-anchor: end" x="50.6" y="280.523828" transform="rotate(-0 50.6 280.523828)">0.05</text>
     </g>
    </g>
    <g id="ytick_3">
     <g id="line2d_9">
      <g>
       <use xlink:href="#m97f4457dd1" x="57.6" y="246.305843" style="stroke: #000000; stroke-width: 0.8"/>
      </g>
     </g>
     <g id="text_10">
      <text style="font: 10px 'Arial', sans-serif; text-anchor: end" x="50.6" y="249.88475" transform="rotate(-0 50.6 249.88475)">0.10</text>
     </g>
    </g>
    <g id="ytick_4">
     <g id="line2d_10">
      <g>
       <use xlink:href="#m97f4457dd1" x="57.6" y="215.666765" style="stroke: #000000; stroke-width: 0.8"/>
      </g>
     </g>
     <g id="text_11">
      <text style="font: 10px 'Arial', sans-serif; text-anchor: end" x="50.6" y="219.245671" transform="rotate(-0 50.6 219.245671)">0.15</text>
     </g>
    </g>
    <g id="ytick_5">
     <g id="line2d_11">
      <g>
       <use xlink:href="#m97f4457dd1" x="57.6" y="185.027687" style="stroke: #000000; stroke-width: 0.8"/>
      </g>
     </g>
     <g id="text_12">
      <text style="font: 10px 'Arial', sans-serif; text-anchor: end" x="50.6" y="188.606593" transform="rotate(-0 50.6 188.606593)">0.20</text>
     </g>
    </g>
    <g id="ytick_6">
     <g id="line2d_12">
      <g>
       <use xlink:href="#m97f4457dd1" x="57.6" y="154.388609" style="stroke: #000000; stroke-width: 0.8"/>
      </g>
     </g>
     <g id="text_13">
      <text style="font: 10px 'Arial', sans-serif; text-anchor: end" x="50.6" y="157.967515" transform="rotate(-0 50.6 157.967515)">0.25</text>
     </g>
    </g>
    <g id="ytick_7">
     <g id="line2d_13">
      <g>
       <use xlink:href="#m97f4457dd1" x="57.6" y="123.74953" style="stroke: #000000; stroke-width: 0.8"/>
      </g>
     </g>
     <g id="text_14">
      <text style="font: 10px 'Arial', sans-serif; text-anchor: end" x="50.6" y="127.328437" transform="rotate(-0 50.6 127.328437)">0.30</text>
     </g>
    </g>
    <g id="ytick_8">
     <g id="line2d_14">
      <g>
       <use xlink:href="#m97f4457dd1" x="57.6" y="93.110452" style="stroke: #000000; stroke-width: 0.8"/>
      </g>
     </g>
     <g id="text_15">
      <text style="font: 10px 'Arial', sans-serif; text-anchor: end" x="50.6" y="96.689358" transform="rotate(-0 50.6 96.689358)">0.35</text>
     </g>
    </g>
    <g id="ytick_9">
     <g id="line2d_15">
      <g>
       <use xlink:href="#m97f4457dd1" x="57.6" y="62.471374" style="stroke: #000000; stroke-width: 0.8"/>
      </g>
     </g>
     <g id="text_16">
      <text style="font: 10px 'Arial', sans-serif; text-anchor: end" x="50.6" y="66.05028" transform="rotate(-0 50.6 66.05028)">0.40</text>
     </g>
    </g>
    <g id="text_17">
     <text style="font: 10px 'Arial', sans-serif; text-anchor: middle" x="25.034375" y="174.528" transform="rotate(-90 25.034375 174.528)">Density</text>
    </g>
   </g>
   <g id="patch_3">
    <path d="M 168.607657 307.584 
L 168.607657 307.505053 
L 177.802841 307.505053 
L 177.802841 307.465579 
L 186.998026 307.465579 
L 186.998026 306.952423 
L 196.193211 306.952423 
L 196.193211 304.603746 
L 205.388395 304.603746 
L 205.388395 302.215596 
L 214.58358 302.215596 
L 214.58358 291.95247 
L 223.778765 291.95247 
L 223.778765 283.36697 
L 232.973949 283.36697 
L 232.973949 255.518373 
L 242.169134 255.518373 
L 242.169134 218.985592 
L 251.364318 218.985592 
L 251.364318 200.551439 
L 260.559503 200.551439 
L 260.559503 127.268772 
L 269.754688 127.268772 
L 269.754688 130.012185 
L 278.949872 130.012185 
L 278.949872 54.144 
L 288.145057 54.144 
L 288.145057 93.99256 
L 297.340242 93.99256 
L 297.340242 59.946614 
L 306.535426 59.946614 
L 306.535426 130.545078 
L 315.730611 130.545078 
L 315.730611 135.321379 
L 324.925796 135.321379 
L 324.925796 189.972524 
L 334.12098 189.972524 
L 334.12098 244.702617 
L 343.316165 244.702617 
L 343.316165 264.498608 
L 352.51135 264.498608 
L 352.51135 289.820897 
L 361.706534 289.820897 
L 361.706534 298.209029 
L 370.901719 298.209029 
L 370.901719 304.347168 
L 380.096903 304.347168 
L 380.096903 306.695845 
L 389.292088 306.695845 
L 389.292088 307.327422 
L 398.487273 307.327422 
L 398.487273 307.584 
" clip-path="url(#pffb300edba)" style="fill: none; stroke: #000000; stroke-linejoin: miter"/>
   </g>
   <g id="line2d_16">
    <path d="M 73.832727 307.584 
L 73.832727 41.472 
" clip-path="url(#pffb300edba)" style="fill: none; stroke-dasharray: 5.55,2.4; stroke-dashoffset: 0; stroke: #000000; stroke-width: 1.5"/>
   </g>
   <g id="patch_4">
    <path d="M 57.6 307.584 
L 414.72 307.584 
" style="fill: none; stroke: #000000; stroke-width: 0.8; stroke-linejoin: miter; stroke-linecap: square"/>
   </g>
   <g id="text_18">
    <text style="fill: #ec008c; font: 8.33px 'Arial', sans-serif" transform="translate(74.869073 26.44202)">Sequence Deviation Permutation Test - ALM - gp4_81_S8_L65_D250_ALM - #Cells: 33</text>
    <text style="fill: #ec008c; font: 8.33px 'Arial', sans-serif" transform="translate(150.972084 35.472)">Min. percent of active trials per condition: 10%</text>
   </g>
   <g id="legend_1">
    <g id="patch_5">
     <path d="M 62.458 74.354588 
L 185.919516 74.354588 
Q 187.307516 74.354588 187.307516 72.966588 
L 187.307516 46.33 
Q 187.307516 44.942 185.919516 44.942 
L 62.458 44.942 
Q 61.07 44.942 61.07 46.33 
L 61.07 72.966588 
Q 61.07 74.354588 62.458 74.354588 
z
" style="fill: #ffffff; opacity: 0.8; stroke: #cccccc; stroke-linejoin: miter"/>
    </g>
    <g id="patch_6">
     <path d="M 63.846 52.770103 
L 77.726 52.770103 
L 77.726 47.912103 
L 63.846 47.912103 
L 63.846 52.770103 
z
" style="fill: none; stroke: #000000; stroke-linejoin: miter"/>
    </g>
    <g id="text_19">
     <text style="font: 6.94px 'Arial', sans-serif; text-anchor: start" x="83.278" y="52.770103" transform="rotate(-0 83.278 52.770103)">Shuffle (100,000 Permutations)</text>
    </g>
    <g id="line2d_17">
     <path d="M 63.846 64.694433 
L 70.786 64.694433 
L 77.726 64.694433 
" style="fill: none; stroke-dasharray: 5.55,2.4; stroke-dashoffset: 0; stroke: #000000; stroke-width: 1.5"/>
    </g>
    <g id="text_20">
     <text style="font: 6.94px 'Arial', sans-serif" transform="translate(83.278 62.752859)">Deviation 1.242 (z-score=-7.341)</text>
     <text style="font: 6.94px 'Arial', sans-serif" transform="translate(83.278 70.199263)">pval=0.0000</text>
    </g>
   </g>
  </g>
 </g>
 <defs>
  <clipPath id="pffb300edba">
   <rect x="57.6" y="41.472" width="357.12" height="266.112"/>
  </clipPath>
 </defs>
</svg>
