<?xml version="1.0" encoding="utf-8" standalone="no"?>
<!DOCTYPE svg PUBLIC "-//W3C//DTD SVG 1.1//EN"
  "http://www.w3.org/Graphics/SVG/1.1/DTD/svg11.dtd">
<svg xmlns:xlink="http://www.w3.org/1999/xlink" width="460.8pt" height="345.6pt" viewBox="0 0 460.8 345.6" xmlns="http://www.w3.org/2000/svg" version="1.1">
 <metadata>
  <rdf:RDF xmlns:dc="http://purl.org/dc/elements/1.1/" xmlns:cc="http://creativecommons.org/ns#" xmlns:rdf="http://www.w3.org/1999/02/22-rdf-syntax-ns#">
   <cc:Work>
    <dc:type rdf:resource="http://purl.org/dc/dcmitype/StillImage"/>
    <dc:date>2025-12-27T13:57:43.839678</dc:date>
    <dc:format>image/svg+xml</dc:format>
    <dc:creator>
     <cc:Agent>
      <dc:title>Matplotlib v3.8.0, https://matplotlib.org/</dc:title>
     </cc:Agent>
    </dc:creator>
   </cc:Work>
  </rdf:RDF>
 </metadata>
 <defs>
  <style type="text/css">*{stroke-linejoin: round; stroke-linecap: butt}</style>
 </defs>
 <g id="figure_1">
  <g id="patch_1">
   <path d="M 0 345.6 
L 460.8 345.6 
L 460.8 0 
L 0 0 
z
" style="fill: #ffffff"/>
  </g>
  <g id="axes_1">
   <g id="patch_2">
    <path d="M 57.6 307.584 
L 414.72 307.584 
L 414.72 41.472 
L 57.6 41.472 
z
" style="fill: #ffffff"/>
   </g>
   <g id="matplotlib.axis_1">
    <g id="xtick_1">
     <g id="line2d_1">
      <defs>
       <path id="m14cca22b68" d="M 0 0 
L 0 3.5 
" style="stroke: #000000; stroke-width: 0.8"/>
      </defs>
      <g>
       <use xlink:href="#m14cca22b68" x="58.808066" y="307.584" style="stroke: #000000; stroke-width: 0.8"/>
      </g>
     </g>
     <g id="text_1">
      <text style="font: 10px 'Arial', sans-serif; text-anchor: middle" x="58.808066" y="321.741812" transform="rotate(-0 58.808066 321.741812)">−6</text>
     </g>
    </g>
    <g id="xtick_2">
     <g id="line2d_2">
      <g>
       <use xlink:href="#m14cca22b68" x="127.622995" y="307.584" style="stroke: #000000; stroke-width: 0.8"/>
      </g>
     </g>
     <g id="text_2">
      <text style="font: 10px 'Arial', sans-serif; text-anchor: middle" x="127.622995" y="321.741812" transform="rotate(-0 127.622995 321.741812)">−4</text>
     </g>
    </g>
    <g id="xtick_3">
     <g id="line2d_3">
      <g>
       <use xlink:href="#m14cca22b68" x="196.437924" y="307.584" style="stroke: #000000; stroke-width: 0.8"/>
      </g>
     </g>
     <g id="text_3">
      <text style="font: 10px 'Arial', sans-serif; text-anchor: middle" x="196.437924" y="321.741812" transform="rotate(-0 196.437924 321.741812)">−2</text>
     </g>
    </g>
    <g id="xtick_4">
     <g id="line2d_4">
      <g>
       <use xlink:href="#m14cca22b68" x="265.252854" y="307.584" style="stroke: #000000; stroke-width: 0.8"/>
      </g>
     </g>
     <g id="text_4">
      <text style="font: 10px 'Arial', sans-serif; text-anchor: middle" x="265.252854" y="321.741812" transform="rotate(-0 265.252854 321.741812)">0</text>
     </g>
    </g>
    <g id="xtick_5">
     <g id="line2d_5">
      <g>
       <use xlink:href="#m14cca22b68" x="334.067783" y="307.584" style="stroke: #000000; stroke-width: 0.8"/>
      </g>
     </g>
     <g id="text_5">
      <text style="font: 10px 'Arial', sans-serif; text-anchor: middle" x="334.067783" y="321.741812" transform="rotate(-0 334.067783 321.741812)">2</text>
     </g>
    </g>
    <g id="xtick_6">
     <g id="line2d_6">
      <g>
       <use xlink:href="#m14cca22b68" x="402.882712" y="307.584" style="stroke: #000000; stroke-width: 0.8"/>
      </g>
     </g>
     <g id="text_6">
      <text style="font: 10px 'Arial', sans-serif; text-anchor: middle" x="402.882712" y="321.741812" transform="rotate(-0 402.882712 321.741812)">4</text>
     </g>
    </g>
    <g id="text_7">
     <text style="font: 10px 'Arial', sans-serif; text-anchor: middle" x="236.16" y="335.009" transform="rotate(-0 236.16 335.009)">Rank deviation (z-score)</text>
    </g>
   </g>
   <g id="matplotlib.axis_2">
    <g id="ytick_1">
     <g id="line2d_7">
      <defs>
       <path id="m23da802bdb" d="M 0 0 
L -3.5 0 
" style="stroke: #000000; stroke-width: 0.8"/>
      </defs>
      <g>
       <use xlink:href="#m23da802bdb" x="57.6" y="307.584" style="stroke: #000000; stroke-width: 0.8"/>
      </g>
     </g>
     <g id="text_8">
      <text style="font: 10px 'Arial', sans-serif; text-anchor: end" x="50.6" y="311.162906" transform="rotate(-0 50.6 311.162906)">0.00</text>
     </g>
    </g>
    <g id="ytick_2">
     <g id="line2d_8">
      <g>
       <use xlink:href="#m23da802bdb" x="57.6" y="277.284055" style="stroke: #000000; stroke-width: 0.8"/>
      </g>
     </g>
     <g id="text_9">
      <text style="font: 10px 'Arial', sans-serif; text-anchor: end" x="50.6" y="280.862961" transform="rotate(-0 50.6 280.862961)">0.05</text>
     </g>
    </g>
    <g id="ytick_3">
     <g id="line2d_9">
      <g>
       <use xlink:href="#m23da802bdb" x="57.6" y="246.98411" style="stroke: #000000; stroke-width: 0.8"/>
      </g>
     </g>
     <g id="text_10">
      <text style="font: 10px 'Arial', sans-serif; text-anchor: end" x="50.6" y="250.563016" transform="rotate(-0 50.6 250.563016)">0.10</text>
     </g>
    </g>
    <g id="ytick_4">
     <g id="line2d_10">
      <g>
       <use xlink:href="#m23da802bdb" x="57.6" y="216.684165" style="stroke: #000000; stroke-width: 0.8"/>
      </g>
     </g>
     <g id="text_11">
      <text style="font: 10px 'Arial', sans-serif; text-anchor: end" x="50.6" y="220.263071" transform="rotate(-0 50.6 220.263071)">0.15</text>
     </g>
    </g>
    <g id="ytick_5">
     <g id="line2d_11">
      <g>
       <use xlink:href="#m23da802bdb" x="57.6" y="186.38422" style="stroke: #000000; stroke-width: 0.8"/>
      </g>
     </g>
     <g id="text_12">
      <text style="font: 10px 'Arial', sans-serif; text-anchor: end" x="50.6" y="189.963126" transform="rotate(-0 50.6 189.963126)">0.20</text>
     </g>
    </g>
    <g id="ytick_6">
     <g id="line2d_12">
      <g>
       <use xlink:href="#m23da802bdb" x="57.6" y="156.084275" style="stroke: #000000; stroke-width: 0.8"/>
      </g>
     </g>
     <g id="text_13">
      <text style="font: 10px 'Arial', sans-serif; text-anchor: end" x="50.6" y="159.663181" transform="rotate(-0 50.6 159.663181)">0.25</text>
     </g>
    </g>
    <g id="ytick_7">
     <g id="line2d_13">
      <g>
       <use xlink:href="#m23da802bdb" x="57.6" y="125.78433" style="stroke: #000000; stroke-width: 0.8"/>
      </g>
     </g>
     <g id="text_14">
      <text style="font: 10px 'Arial', sans-serif; text-anchor: end" x="50.6" y="129.363236" transform="rotate(-0 50.6 129.363236)">0.30</text>
     </g>
    </g>
    <g id="ytick_8">
     <g id="line2d_14">
      <g>
       <use xlink:href="#m23da802bdb" x="57.6" y="95.484385" style="stroke: #000000; stroke-width: 0.8"/>
      </g>
     </g>
     <g id="text_15">
      <text style="font: 10px 'Arial', sans-serif; text-anchor: end" x="50.6" y="99.063292" transform="rotate(-0 50.6 99.063292)">0.35</text>
     </g>
    </g>
    <g id="ytick_9">
     <g id="line2d_15">
      <g>
       <use xlink:href="#m23da802bdb" x="57.6" y="65.18444" style="stroke: #000000; stroke-width: 0.8"/>
      </g>
     </g>
     <g id="text_16">
      <text style="font: 10px 'Arial', sans-serif; text-anchor: end" x="50.6" y="68.763347" transform="rotate(-0 50.6 68.763347)">0.40</text>
     </g>
    </g>
    <g id="text_17">
     <text style="font: 10px 'Arial', sans-serif; text-anchor: middle" x="25.034375" y="174.528" transform="rotate(-90 25.034375 174.528)">Density</text>
    </g>
   </g>
   <g id="patch_3">
    <path d="M 132.606395 307.584 
L 132.606395 307.466367 
L 143.24163 307.466367 
L 143.24163 306.937019 
L 153.876865 306.937019 
L 153.876865 305.388187 
L 164.5121 305.388187 
L 164.5121 302.03565 
L 175.147335 302.03565 
L 175.147335 298.859563 
L 185.782571 298.859563 
L 185.782571 282.018458 
L 196.417806 282.018458 
L 196.417806 261.001387 
L 207.053041 261.001387 
L 207.053041 226.985884 
L 217.688276 226.985884 
L 217.688276 182.912772 
L 228.323511 182.912772 
L 228.323511 184.87332 
L 238.958746 184.87332 
L 238.958746 103.432169 
L 249.593981 103.432169 
L 249.593981 73.024074 
L 260.229216 73.024074 
L 260.229216 54.144 
L 270.864451 54.144 
L 270.864451 72.475121 
L 281.499687 72.475121 
L 281.499687 147.564097 
L 292.134922 147.564097 
L 292.134922 135.447913 
L 302.770157 135.447913 
L 302.770157 184.87332 
L 313.405392 184.87332 
L 313.405392 229.887495 
L 324.040627 229.887495 
L 324.040627 261.138625 
L 334.675862 261.138625 
L 334.675862 285.704288 
L 345.311097 285.704288 
L 345.311097 299.016407 
L 355.946332 299.016407 
L 355.946332 303.015924 
L 366.581567 303.015924 
L 366.581567 306.192011 
L 377.216803 306.192011 
L 377.216803 307.172285 
L 387.852038 307.172285 
L 387.852038 307.485973 
L 398.487273 307.485973 
L 398.487273 307.584 
" clip-path="url(#pd63a955e96)" style="fill: none; stroke: #000000; stroke-linejoin: miter"/>
   </g>
   <g id="line2d_16">
    <path d="M 73.832727 307.584 
L 73.832727 41.472 
" clip-path="url(#pd63a955e96)" style="fill: none; stroke-dasharray: 5.55,2.4; stroke-dashoffset: 0; stroke: #000000; stroke-width: 1.5"/>
   </g>
   <g id="patch_4">
    <path d="M 57.6 307.584 
L 414.72 307.584 
" style="fill: none; stroke: #000000; stroke-width: 0.8; stroke-linejoin: miter; stroke-linecap: square"/>
   </g>
   <g id="text_18">
    <text style="fill: #27aae1; font: 8.33px 'Arial', sans-serif" transform="translate(76.650913 26.539637)">Sequence Deviation Permutation Test - M2 - GP4_28_S1_L41_D250_M2L - #Cells: 37</text>
    <text style="fill: #27aae1; font: 8.33px 'Arial', sans-serif" transform="translate(150.972084 35.472)">Min. percent of active trials per condition: 10%</text>
   </g>
   <g id="legend_1">
    <g id="patch_5">
     <path d="M 286.400484 74.354588 
L 409.862 74.354588 
Q 411.25 74.354588 411.25 72.966588 
L 411.25 46.33 
Q 411.25 44.942 409.862 44.942 
L 286.400484 44.942 
Q 285.012484 44.942 285.012484 46.33 
L 285.012484 72.966588 
Q 285.012484 74.354588 286.400484 74.354588 
z
" style="fill: #ffffff; opacity: 0.8; stroke: #cccccc; stroke-linejoin: miter"/>
    </g>
    <g id="patch_6">
     <path d="M 287.788484 52.770103 
L 301.668484 52.770103 
L 301.668484 47.912103 
L 287.788484 47.912103 
L 287.788484 52.770103 
z
" style="fill: none; stroke: #000000; stroke-linejoin: miter"/>
    </g>
    <g id="text_19">
     <text style="font: 6.94px 'Arial', sans-serif; text-anchor: start" x="307.220484" y="52.770103" transform="rotate(-0 307.220484 52.770103)">Shuffle (100,000 Permutations)</text>
    </g>
    <g id="line2d_17">
     <path d="M 287.788484 64.694433 
L 294.728484 64.694433 
L 301.668484 64.694433 
" style="fill: none; stroke-dasharray: 5.55,2.4; stroke-dashoffset: 0; stroke: #000000; stroke-width: 1.5"/>
    </g>
    <g id="text_20">
     <text style="font: 6.94px 'Arial', sans-serif" transform="translate(307.220484 62.752859)">Deviation 4.243 (z-score=-5.563)</text>
     <text style="font: 6.94px 'Arial', sans-serif" transform="translate(307.220484 70.199263)">pval=0.0000</text>
    </g>
   </g>
  </g>
 </g>
 <defs>
  <clipPath id="pd63a955e96">
   <rect x="57.6" y="41.472" width="357.12" height="266.112"/>
  </clipPath>
 </defs>
</svg>
