<?xml version="1.0" encoding="utf-8" standalone="no"?>
<!DOCTYPE svg PUBLIC "-//W3C//DTD SVG 1.1//EN"
  "http://www.w3.org/Graphics/SVG/1.1/DTD/svg11.dtd">
<svg xmlns:xlink="http://www.w3.org/1999/xlink" width="460.8pt" height="345.6pt" viewBox="0 0 460.8 345.6" xmlns="http://www.w3.org/2000/svg" version="1.1">
 <metadata>
  <rdf:RDF xmlns:dc="http://purl.org/dc/elements/1.1/" xmlns:cc="http://creativecommons.org/ns#" xmlns:rdf="http://www.w3.org/1999/02/22-rdf-syntax-ns#">
   <cc:Work>
    <dc:type rdf:resource="http://purl.org/dc/dcmitype/StillImage"/>
    <dc:date>2025-12-27T13:57:32.377043</dc:date>
    <dc:format>image/svg+xml</dc:format>
    <dc:creator>
     <cc:Agent>
      <dc:title>Matplotlib v3.8.0, https://matplotlib.org/</dc:title>
     </cc:Agent>
    </dc:creator>
   </cc:Work>
  </rdf:RDF>
 </metadata>
 <defs>
  <style type="text/css">*{stroke-linejoin: round; stroke-linecap: butt}</style>
 </defs>
 <g id="figure_1">
  <g id="patch_1">
   <path d="M 0 345.6 
L 460.8 345.6 
L 460.8 0 
L 0 0 
z
" style="fill: #ffffff"/>
  </g>
  <g id="axes_1">
   <g id="patch_2">
    <path d="M 57.6 307.584 
L 414.72 307.584 
L 414.72 41.472 
L 57.6 41.472 
z
" style="fill: #ffffff"/>
   </g>
   <g id="matplotlib.axis_1">
    <g id="xtick_1">
     <g id="line2d_1">
      <defs>
       <path id="m8c33da3dc0" d="M 0 0 
L 0 3.5 
" style="stroke: #000000; stroke-width: 0.8"/>
      </defs>
      <g>
       <use xlink:href="#m8c33da3dc0" x="73.687272" y="307.584" style="stroke: #000000; stroke-width: 0.8"/>
      </g>
     </g>
     <g id="text_1">
      <text style="font: 10px 'Arial', sans-serif; text-anchor: middle" x="73.687272" y="321.741812" transform="rotate(-0 73.687272 321.741812)">−8</text>
     </g>
    </g>
    <g id="xtick_2">
     <g id="line2d_2">
      <g>
       <use xlink:href="#m8c33da3dc0" x="127.818623" y="307.584" style="stroke: #000000; stroke-width: 0.8"/>
      </g>
     </g>
     <g id="text_2">
      <text style="font: 10px 'Arial', sans-serif; text-anchor: middle" x="127.818623" y="321.741812" transform="rotate(-0 127.818623 321.741812)">−6</text>
     </g>
    </g>
    <g id="xtick_3">
     <g id="line2d_3">
      <g>
       <use xlink:href="#m8c33da3dc0" x="181.949974" y="307.584" style="stroke: #000000; stroke-width: 0.8"/>
      </g>
     </g>
     <g id="text_3">
      <text style="font: 10px 'Arial', sans-serif; text-anchor: middle" x="181.949974" y="321.741812" transform="rotate(-0 181.949974 321.741812)">−4</text>
     </g>
    </g>
    <g id="xtick_4">
     <g id="line2d_4">
      <g>
       <use xlink:href="#m8c33da3dc0" x="236.081326" y="307.584" style="stroke: #000000; stroke-width: 0.8"/>
      </g>
     </g>
     <g id="text_4">
      <text style="font: 10px 'Arial', sans-serif; text-anchor: middle" x="236.081326" y="321.741812" transform="rotate(-0 236.081326 321.741812)">−2</text>
     </g>
    </g>
    <g id="xtick_5">
     <g id="line2d_5">
      <g>
       <use xlink:href="#m8c33da3dc0" x="290.212677" y="307.584" style="stroke: #000000; stroke-width: 0.8"/>
      </g>
     </g>
     <g id="text_5">
      <text style="font: 10px 'Arial', sans-serif; text-anchor: middle" x="290.212677" y="321.741812" transform="rotate(-0 290.212677 321.741812)">0</text>
     </g>
    </g>
    <g id="xtick_6">
     <g id="line2d_6">
      <g>
       <use xlink:href="#m8c33da3dc0" x="344.344028" y="307.584" style="stroke: #000000; stroke-width: 0.8"/>
      </g>
     </g>
     <g id="text_6">
      <text style="font: 10px 'Arial', sans-serif; text-anchor: middle" x="344.344028" y="321.741812" transform="rotate(-0 344.344028 321.741812)">2</text>
     </g>
    </g>
    <g id="xtick_7">
     <g id="line2d_7">
      <g>
       <use xlink:href="#m8c33da3dc0" x="398.475379" y="307.584" style="stroke: #000000; stroke-width: 0.8"/>
      </g>
     </g>
     <g id="text_7">
      <text style="font: 10px 'Arial', sans-serif; text-anchor: middle" x="398.475379" y="321.741812" transform="rotate(-0 398.475379 321.741812)">4</text>
     </g>
    </g>
    <g id="text_8">
     <text style="font: 10px 'Arial', sans-serif; text-anchor: middle" x="236.16" y="335.009" transform="rotate(-0 236.16 335.009)">Rank deviation (z-score)</text>
    </g>
   </g>
   <g id="matplotlib.axis_2">
    <g id="ytick_1">
     <g id="line2d_8">
      <defs>
       <path id="me44e524283" d="M 0 0 
L -3.5 0 
" style="stroke: #000000; stroke-width: 0.8"/>
      </defs>
      <g>
       <use xlink:href="#me44e524283" x="57.6" y="307.584" style="stroke: #000000; stroke-width: 0.8"/>
      </g>
     </g>
     <g id="text_9">
      <text style="font: 10px 'Arial', sans-serif; text-anchor: end" x="50.6" y="311.162906" transform="rotate(-0 50.6 311.162906)">0.00</text>
     </g>
    </g>
    <g id="ytick_2">
     <g id="line2d_9">
      <g>
       <use xlink:href="#me44e524283" x="57.6" y="275.009659" style="stroke: #000000; stroke-width: 0.8"/>
      </g>
     </g>
     <g id="text_10">
      <text style="font: 10px 'Arial', sans-serif; text-anchor: end" x="50.6" y="278.588565" transform="rotate(-0 50.6 278.588565)">0.05</text>
     </g>
    </g>
    <g id="ytick_3">
     <g id="line2d_10">
      <g>
       <use xlink:href="#me44e524283" x="57.6" y="242.435318" style="stroke: #000000; stroke-width: 0.8"/>
      </g>
     </g>
     <g id="text_11">
      <text style="font: 10px 'Arial', sans-serif; text-anchor: end" x="50.6" y="246.014224" transform="rotate(-0 50.6 246.014224)">0.10</text>
     </g>
    </g>
    <g id="ytick_4">
     <g id="line2d_11">
      <g>
       <use xlink:href="#me44e524283" x="57.6" y="209.860977" style="stroke: #000000; stroke-width: 0.8"/>
      </g>
     </g>
     <g id="text_12">
      <text style="font: 10px 'Arial', sans-serif; text-anchor: end" x="50.6" y="213.439883" transform="rotate(-0 50.6 213.439883)">0.15</text>
     </g>
    </g>
    <g id="ytick_5">
     <g id="line2d_12">
      <g>
       <use xlink:href="#me44e524283" x="57.6" y="177.286636" style="stroke: #000000; stroke-width: 0.8"/>
      </g>
     </g>
     <g id="text_13">
      <text style="font: 10px 'Arial', sans-serif; text-anchor: end" x="50.6" y="180.865542" transform="rotate(-0 50.6 180.865542)">0.20</text>
     </g>
    </g>
    <g id="ytick_6">
     <g id="line2d_13">
      <g>
       <use xlink:href="#me44e524283" x="57.6" y="144.712295" style="stroke: #000000; stroke-width: 0.8"/>
      </g>
     </g>
     <g id="text_14">
      <text style="font: 10px 'Arial', sans-serif; text-anchor: end" x="50.6" y="148.291201" transform="rotate(-0 50.6 148.291201)">0.25</text>
     </g>
    </g>
    <g id="ytick_7">
     <g id="line2d_14">
      <g>
       <use xlink:href="#me44e524283" x="57.6" y="112.137954" style="stroke: #000000; stroke-width: 0.8"/>
      </g>
     </g>
     <g id="text_15">
      <text style="font: 10px 'Arial', sans-serif; text-anchor: end" x="50.6" y="115.71686" transform="rotate(-0 50.6 115.71686)">0.30</text>
     </g>
    </g>
    <g id="ytick_8">
     <g id="line2d_15">
      <g>
       <use xlink:href="#me44e524283" x="57.6" y="79.563613" style="stroke: #000000; stroke-width: 0.8"/>
      </g>
     </g>
     <g id="text_16">
      <text style="font: 10px 'Arial', sans-serif; text-anchor: end" x="50.6" y="83.142519" transform="rotate(-0 50.6 83.142519)">0.35</text>
     </g>
    </g>
    <g id="ytick_9">
     <g id="line2d_16">
      <g>
       <use xlink:href="#me44e524283" x="57.6" y="46.989272" style="stroke: #000000; stroke-width: 0.8"/>
      </g>
     </g>
     <g id="text_17">
      <text style="font: 10px 'Arial', sans-serif; text-anchor: end" x="50.6" y="50.568178" transform="rotate(-0 50.6 50.568178)">0.40</text>
     </g>
    </g>
    <g id="text_18">
     <text style="font: 10px 'Arial', sans-serif; text-anchor: middle" x="25.034375" y="174.528" transform="rotate(-90 25.034375 174.528)">Density</text>
    </g>
   </g>
   <g id="patch_3">
    <path d="M 171.587825 307.584 
L 171.587825 307.525716 
L 180.663803 307.525716 
L 180.663803 307.467431 
L 189.739781 307.467431 
L 189.739781 307.137153 
L 198.815759 307.137153 
L 198.815759 306.321171 
L 207.891737 306.321171 
L 207.891737 303.076673 
L 216.967715 303.076673 
L 216.967715 296.490536 
L 226.043693 296.490536 
L 226.043693 285.591353 
L 235.119671 285.591353 
L 235.119671 260.64563 
L 244.195648 260.64563 
L 244.195648 221.148235 
L 253.271626 221.148235 
L 253.271626 180.660005 
L 262.347604 180.660005 
L 262.347604 130.613133 
L 271.423582 130.613133 
L 271.423582 86.258704 
L 280.49956 86.258704 
L 280.49956 54.144 
L 289.575538 54.144 
L 289.575538 54.804557 
L 298.651516 54.804557 
L 298.651516 78.720589 
L 307.727494 78.720589 
L 307.727494 122.84188 
L 316.803472 122.84188 
L 316.803472 160.396461 
L 325.87945 160.396461 
L 325.87945 222.177926 
L 334.955427 222.177926 
L 334.955427 258.605676 
L 344.031405 258.605676 
L 344.031405 283.007411 
L 353.107383 283.007411 
L 353.107383 295.499701 
L 362.183361 295.499701 
L 362.183361 303.057245 
L 371.259339 303.057245 
L 371.259339 306.029749 
L 380.335317 306.029749 
L 380.335317 307.05944 
L 389.411295 307.05944 
L 389.411295 307.506287 
L 398.487273 307.506287 
L 398.487273 307.584 
" clip-path="url(#pce60adde26)" style="fill: none; stroke: #000000; stroke-linejoin: miter"/>
   </g>
   <g id="line2d_17">
    <path d="M 73.832727 307.584 
L 73.832727 41.472 
" clip-path="url(#pce60adde26)" style="fill: none; stroke-dasharray: 5.55,2.4; stroke-dashoffset: 0; stroke: #000000; stroke-width: 1.5"/>
   </g>
   <g id="patch_4">
    <path d="M 57.6 307.584 
L 414.72 307.584 
" style="fill: none; stroke: #000000; stroke-width: 0.8; stroke-linejoin: miter; stroke-linecap: square"/>
   </g>
   <g id="text_19">
    <text style="fill: #ec008c; font: 8.33px 'Arial', sans-serif" transform="translate(74.179245 26.539637)">Sequence Deviation Permutation Test - ALM - GP4_23_s8_L50_D250_ALM - #Cells: 60</text>
    <text style="fill: #ec008c; font: 8.33px 'Arial', sans-serif" transform="translate(150.972084 35.472)">Min. percent of active trials per condition: 10%</text>
   </g>
   <g id="legend_1">
    <g id="patch_5">
     <path d="M 62.458 74.354588 
L 185.919516 74.354588 
Q 187.307516 74.354588 187.307516 72.966588 
L 187.307516 46.33 
Q 187.307516 44.942 185.919516 44.942 
L 62.458 44.942 
Q 61.07 44.942 61.07 46.33 
L 61.07 72.966588 
Q 61.07 74.354588 62.458 74.354588 
z
" style="fill: #ffffff; opacity: 0.8; stroke: #cccccc; stroke-linejoin: miter"/>
    </g>
    <g id="patch_6">
     <path d="M 63.846 52.770103 
L 77.726 52.770103 
L 77.726 47.912103 
L 63.846 47.912103 
L 63.846 52.770103 
z
" style="fill: none; stroke: #000000; stroke-linejoin: miter"/>
    </g>
    <g id="text_20">
     <text style="font: 6.94px 'Arial', sans-serif; text-anchor: start" x="83.278" y="52.770103" transform="rotate(-0 83.278 52.770103)">Shuffle (100,000 Permutations)</text>
    </g>
    <g id="line2d_18">
     <path d="M 63.846 64.694433 
L 70.786 64.694433 
L 77.726 64.694433 
" style="fill: none; stroke-dasharray: 5.55,2.4; stroke-dashoffset: 0; stroke: #000000; stroke-width: 1.5"/>
    </g>
    <g id="text_21">
     <text style="font: 6.94px 'Arial', sans-serif" transform="translate(83.278 62.752859)">Deviation 3.333 (z-score=-7.995)</text>
     <text style="font: 6.94px 'Arial', sans-serif" transform="translate(83.278 70.199263)">pval=0.0000</text>
    </g>
   </g>
  </g>
 </g>
 <defs>
  <clipPath id="pce60adde26">
   <rect x="57.6" y="41.472" width="357.12" height="266.112"/>
  </clipPath>
 </defs>
</svg>
