<?xml version="1.0" encoding="utf-8" standalone="no"?>
<!DOCTYPE svg PUBLIC "-//W3C//DTD SVG 1.1//EN"
  "http://www.w3.org/Graphics/SVG/1.1/DTD/svg11.dtd">
<svg xmlns:xlink="http://www.w3.org/1999/xlink" width="460.8pt" height="345.6pt" viewBox="0 0 460.8 345.6" xmlns="http://www.w3.org/2000/svg" version="1.1">
 <metadata>
  <rdf:RDF xmlns:dc="http://purl.org/dc/elements/1.1/" xmlns:cc="http://creativecommons.org/ns#" xmlns:rdf="http://www.w3.org/1999/02/22-rdf-syntax-ns#">
   <cc:Work>
    <dc:type rdf:resource="http://purl.org/dc/dcmitype/StillImage"/>
    <dc:date>2025-12-27T13:57:29.783875</dc:date>
    <dc:format>image/svg+xml</dc:format>
    <dc:creator>
     <cc:Agent>
      <dc:title>Matplotlib v3.8.0, https://matplotlib.org/</dc:title>
     </cc:Agent>
    </dc:creator>
   </cc:Work>
  </rdf:RDF>
 </metadata>
 <defs>
  <style type="text/css">*{stroke-linejoin: round; stroke-linecap: butt}</style>
 </defs>
 <g id="figure_1">
  <g id="patch_1">
   <path d="M 0 345.6 
L 460.8 345.6 
L 460.8 0 
L 0 0 
z
" style="fill: #ffffff"/>
  </g>
  <g id="axes_1">
   <g id="patch_2">
    <path d="M 57.6 307.584 
L 414.72 307.584 
L 414.72 41.472 
L 57.6 41.472 
z
" style="fill: #ffffff"/>
   </g>
   <g id="matplotlib.axis_1">
    <g id="xtick_1">
     <g id="line2d_1">
      <defs>
       <path id="m87eac5a46e" d="M 0 0 
L 0 3.5 
" style="stroke: #000000; stroke-width: 0.8"/>
      </defs>
      <g>
       <use xlink:href="#m87eac5a46e" x="63.145428" y="307.584" style="stroke: #000000; stroke-width: 0.8"/>
      </g>
     </g>
     <g id="text_1">
      <text style="font: 10px 'Arial', sans-serif; text-anchor: middle" x="63.145428" y="321.741812" transform="rotate(-0 63.145428 321.741812)">−8</text>
     </g>
    </g>
    <g id="xtick_2">
     <g id="line2d_2">
      <g>
       <use xlink:href="#m87eac5a46e" x="120.201513" y="307.584" style="stroke: #000000; stroke-width: 0.8"/>
      </g>
     </g>
     <g id="text_2">
      <text style="font: 10px 'Arial', sans-serif; text-anchor: middle" x="120.201513" y="321.741812" transform="rotate(-0 120.201513 321.741812)">−6</text>
     </g>
    </g>
    <g id="xtick_3">
     <g id="line2d_3">
      <g>
       <use xlink:href="#m87eac5a46e" x="177.257597" y="307.584" style="stroke: #000000; stroke-width: 0.8"/>
      </g>
     </g>
     <g id="text_3">
      <text style="font: 10px 'Arial', sans-serif; text-anchor: middle" x="177.257597" y="321.741812" transform="rotate(-0 177.257597 321.741812)">−4</text>
     </g>
    </g>
    <g id="xtick_4">
     <g id="line2d_4">
      <g>
       <use xlink:href="#m87eac5a46e" x="234.313681" y="307.584" style="stroke: #000000; stroke-width: 0.8"/>
      </g>
     </g>
     <g id="text_4">
      <text style="font: 10px 'Arial', sans-serif; text-anchor: middle" x="234.313681" y="321.741812" transform="rotate(-0 234.313681 321.741812)">−2</text>
     </g>
    </g>
    <g id="xtick_5">
     <g id="line2d_5">
      <g>
       <use xlink:href="#m87eac5a46e" x="291.369765" y="307.584" style="stroke: #000000; stroke-width: 0.8"/>
      </g>
     </g>
     <g id="text_5">
      <text style="font: 10px 'Arial', sans-serif; text-anchor: middle" x="291.369765" y="321.741812" transform="rotate(-0 291.369765 321.741812)">0</text>
     </g>
    </g>
    <g id="xtick_6">
     <g id="line2d_6">
      <g>
       <use xlink:href="#m87eac5a46e" x="348.425849" y="307.584" style="stroke: #000000; stroke-width: 0.8"/>
      </g>
     </g>
     <g id="text_6">
      <text style="font: 10px 'Arial', sans-serif; text-anchor: middle" x="348.425849" y="321.741812" transform="rotate(-0 348.425849 321.741812)">2</text>
     </g>
    </g>
    <g id="xtick_7">
     <g id="line2d_7">
      <g>
       <use xlink:href="#m87eac5a46e" x="405.481934" y="307.584" style="stroke: #000000; stroke-width: 0.8"/>
      </g>
     </g>
     <g id="text_7">
      <text style="font: 10px 'Arial', sans-serif; text-anchor: middle" x="405.481934" y="321.741812" transform="rotate(-0 405.481934 321.741812)">4</text>
     </g>
    </g>
    <g id="text_8">
     <text style="font: 10px 'Arial', sans-serif; text-anchor: middle" x="236.16" y="335.009" transform="rotate(-0 236.16 335.009)">Rank deviation (z-score)</text>
    </g>
   </g>
   <g id="matplotlib.axis_2">
    <g id="ytick_1">
     <g id="line2d_8">
      <defs>
       <path id="mb2a7da7400" d="M 0 0 
L -3.5 0 
" style="stroke: #000000; stroke-width: 0.8"/>
      </defs>
      <g>
       <use xlink:href="#mb2a7da7400" x="57.6" y="307.584" style="stroke: #000000; stroke-width: 0.8"/>
      </g>
     </g>
     <g id="text_9">
      <text style="font: 10px 'Arial', sans-serif; text-anchor: end" x="50.6" y="311.162906" transform="rotate(-0 50.6 311.162906)">0.00</text>
     </g>
    </g>
    <g id="ytick_2">
     <g id="line2d_9">
      <g>
       <use xlink:href="#mb2a7da7400" x="57.6" y="276.599024" style="stroke: #000000; stroke-width: 0.8"/>
      </g>
     </g>
     <g id="text_10">
      <text style="font: 10px 'Arial', sans-serif; text-anchor: end" x="50.6" y="280.17793" transform="rotate(-0 50.6 280.17793)">0.05</text>
     </g>
    </g>
    <g id="ytick_3">
     <g id="line2d_10">
      <g>
       <use xlink:href="#mb2a7da7400" x="57.6" y="245.614048" style="stroke: #000000; stroke-width: 0.8"/>
      </g>
     </g>
     <g id="text_11">
      <text style="font: 10px 'Arial', sans-serif; text-anchor: end" x="50.6" y="249.192955" transform="rotate(-0 50.6 249.192955)">0.10</text>
     </g>
    </g>
    <g id="ytick_4">
     <g id="line2d_11">
      <g>
       <use xlink:href="#mb2a7da7400" x="57.6" y="214.629073" style="stroke: #000000; stroke-width: 0.8"/>
      </g>
     </g>
     <g id="text_12">
      <text style="font: 10px 'Arial', sans-serif; text-anchor: end" x="50.6" y="218.207979" transform="rotate(-0 50.6 218.207979)">0.15</text>
     </g>
    </g>
    <g id="ytick_5">
     <g id="line2d_12">
      <g>
       <use xlink:href="#mb2a7da7400" x="57.6" y="183.644097" style="stroke: #000000; stroke-width: 0.8"/>
      </g>
     </g>
     <g id="text_13">
      <text style="font: 10px 'Arial', sans-serif; text-anchor: end" x="50.6" y="187.223003" transform="rotate(-0 50.6 187.223003)">0.20</text>
     </g>
    </g>
    <g id="ytick_6">
     <g id="line2d_13">
      <g>
       <use xlink:href="#mb2a7da7400" x="57.6" y="152.659121" style="stroke: #000000; stroke-width: 0.8"/>
      </g>
     </g>
     <g id="text_14">
      <text style="font: 10px 'Arial', sans-serif; text-anchor: end" x="50.6" y="156.238027" transform="rotate(-0 50.6 156.238027)">0.25</text>
     </g>
    </g>
    <g id="ytick_7">
     <g id="line2d_14">
      <g>
       <use xlink:href="#mb2a7da7400" x="57.6" y="121.674145" style="stroke: #000000; stroke-width: 0.8"/>
      </g>
     </g>
     <g id="text_15">
      <text style="font: 10px 'Arial', sans-serif; text-anchor: end" x="50.6" y="125.253051" transform="rotate(-0 50.6 125.253051)">0.30</text>
     </g>
    </g>
    <g id="ytick_8">
     <g id="line2d_15">
      <g>
       <use xlink:href="#mb2a7da7400" x="57.6" y="90.689169" style="stroke: #000000; stroke-width: 0.8"/>
      </g>
     </g>
     <g id="text_16">
      <text style="font: 10px 'Arial', sans-serif; text-anchor: end" x="50.6" y="94.268076" transform="rotate(-0 50.6 94.268076)">0.35</text>
     </g>
    </g>
    <g id="ytick_9">
     <g id="line2d_16">
      <g>
       <use xlink:href="#mb2a7da7400" x="57.6" y="59.704194" style="stroke: #000000; stroke-width: 0.8"/>
      </g>
     </g>
     <g id="text_17">
      <text style="font: 10px 'Arial', sans-serif; text-anchor: end" x="50.6" y="63.2831" transform="rotate(-0 50.6 63.2831)">0.40</text>
     </g>
    </g>
    <g id="text_18">
     <text style="font: 10px 'Arial', sans-serif; text-anchor: middle" x="25.034375" y="174.528" transform="rotate(-90 25.034375 174.528)">Density</text>
    </g>
   </g>
   <g id="patch_3">
    <path d="M 161.074698 307.584 
L 161.074698 307.565384 
L 170.571201 307.565384 
L 170.571201 307.528152 
L 180.067704 307.528152 
L 180.067704 307.379223 
L 189.564207 307.379223 
L 189.564207 306.820739 
L 199.06071 306.820739 
L 199.06071 304.735732 
L 208.557213 304.735732 
L 208.557213 301.645454 
L 218.053716 301.645454 
L 218.053716 292.560783 
L 227.550219 292.560783 
L 227.550219 273.404784 
L 237.046722 273.404784 
L 237.046722 257.506609 
L 246.543225 257.506609 
L 246.543225 210.203022 
L 256.039728 210.203022 
L 256.039728 161.056437 
L 265.536231 161.056437 
L 265.536231 140.336684 
L 275.032734 140.336684 
L 275.032734 72.871827 
L 284.529237 72.871827 
L 284.529237 89.55188 
L 294.02574 89.55188 
L 294.02574 54.144 
L 303.522243 54.144 
L 303.522243 86.703612 
L 313.018746 86.703612 
L 313.018746 158.264018 
L 322.515249 158.264018 
L 322.515249 184.065974 
L 332.011752 184.065974 
L 332.011752 233.268407 
L 341.508255 233.268407 
L 341.508255 272.194736 
L 351.004758 272.194736 
L 351.004758 287.311034 
L 360.501261 287.311034 
L 360.501261 299.821074 
L 369.997764 299.821074 
L 369.997764 304.828813 
L 379.494267 304.828813 
L 379.494267 306.839355 
L 388.99077 306.839355 
L 388.99077 307.379223 
L 398.487273 307.379223 
L 398.487273 307.584 
" clip-path="url(#p8f996e6fd7)" style="fill: none; stroke: #000000; stroke-linejoin: miter"/>
   </g>
   <g id="line2d_17">
    <path d="M 73.832727 307.584 
L 73.832727 41.472 
" clip-path="url(#p8f996e6fd7)" style="fill: none; stroke-dasharray: 5.55,2.4; stroke-dashoffset: 0; stroke: #000000; stroke-width: 1.5"/>
   </g>
   <g id="patch_4">
    <path d="M 57.6 307.584 
L 414.72 307.584 
" style="fill: none; stroke: #000000; stroke-width: 0.8; stroke-linejoin: miter; stroke-linecap: square"/>
   </g>
   <g id="text_19">
    <text style="fill: #ec008c; font: 8.33px 'Arial', sans-serif" transform="translate(74.179245 26.539637)">Sequence Deviation Permutation Test - ALM - GP4_23_s6_L50_D250_ALM - #Cells: 46</text>
    <text style="fill: #ec008c; font: 8.33px 'Arial', sans-serif" transform="translate(150.972084 35.472)">Min. percent of active trials per condition: 10%</text>
   </g>
   <g id="legend_1">
    <g id="patch_5">
     <path d="M 62.458 74.354588 
L 185.919516 74.354588 
Q 187.307516 74.354588 187.307516 72.966588 
L 187.307516 46.33 
Q 187.307516 44.942 185.919516 44.942 
L 62.458 44.942 
Q 61.07 44.942 61.07 46.33 
L 61.07 72.966588 
Q 61.07 74.354588 62.458 74.354588 
z
" style="fill: #ffffff; opacity: 0.8; stroke: #cccccc; stroke-linejoin: miter"/>
    </g>
    <g id="patch_6">
     <path d="M 63.846 52.770103 
L 77.726 52.770103 
L 77.726 47.912103 
L 63.846 47.912103 
L 63.846 52.770103 
z
" style="fill: none; stroke: #000000; stroke-linejoin: miter"/>
    </g>
    <g id="text_20">
     <text style="font: 6.94px 'Arial', sans-serif; text-anchor: start" x="83.278" y="52.770103" transform="rotate(-0 83.278 52.770103)">Shuffle (100,000 Permutations)</text>
    </g>
    <g id="line2d_18">
     <path d="M 63.846 64.694433 
L 70.786 64.694433 
L 77.726 64.694433 
" style="fill: none; stroke-dasharray: 5.55,2.4; stroke-dashoffset: 0; stroke: #000000; stroke-width: 1.5"/>
    </g>
    <g id="text_21">
     <text style="font: 6.94px 'Arial', sans-serif" transform="translate(83.278 62.752859)">Deviation 3.022 (z-score=-7.625)</text>
     <text style="font: 6.94px 'Arial', sans-serif" transform="translate(83.278 70.199263)">pval=0.0000</text>
    </g>
   </g>
  </g>
 </g>
 <defs>
  <clipPath id="p8f996e6fd7">
   <rect x="57.6" y="41.472" width="357.12" height="266.112"/>
  </clipPath>
 </defs>
</svg>
