<?xml version="1.0" encoding="utf-8" standalone="no"?>
<!DOCTYPE svg PUBLIC "-//W3C//DTD SVG 1.1//EN"
  "http://www.w3.org/Graphics/SVG/1.1/DTD/svg11.dtd">
<svg xmlns:xlink="http://www.w3.org/1999/xlink" width="460.8pt" height="345.6pt" viewBox="0 0 460.8 345.6" xmlns="http://www.w3.org/2000/svg" version="1.1">
 <metadata>
  <rdf:RDF xmlns:dc="http://purl.org/dc/elements/1.1/" xmlns:cc="http://creativecommons.org/ns#" xmlns:rdf="http://www.w3.org/1999/02/22-rdf-syntax-ns#">
   <cc:Work>
    <dc:type rdf:resource="http://purl.org/dc/dcmitype/StillImage"/>
    <dc:date>2025-12-27T13:57:31.120450</dc:date>
    <dc:format>image/svg+xml</dc:format>
    <dc:creator>
     <cc:Agent>
      <dc:title>Matplotlib v3.8.0, https://matplotlib.org/</dc:title>
     </cc:Agent>
    </dc:creator>
   </cc:Work>
  </rdf:RDF>
 </metadata>
 <defs>
  <style type="text/css">*{stroke-linejoin: round; stroke-linecap: butt}</style>
 </defs>
 <g id="figure_1">
  <g id="patch_1">
   <path d="M 0 345.6 
L 460.8 345.6 
L 460.8 0 
L 0 0 
z
" style="fill: #ffffff"/>
  </g>
  <g id="axes_1">
   <g id="patch_2">
    <path d="M 57.6 307.584 
L 414.72 307.584 
L 414.72 41.472 
L 57.6 41.472 
z
" style="fill: #ffffff"/>
   </g>
   <g id="matplotlib.axis_1">
    <g id="xtick_1">
     <g id="line2d_1">
      <defs>
       <path id="mc32ae6990d" d="M 0 0 
L 0 3.5 
" style="stroke: #000000; stroke-width: 0.8"/>
      </defs>
      <g>
       <use xlink:href="#mc32ae6990d" x="61.977641" y="307.584" style="stroke: #000000; stroke-width: 0.8"/>
      </g>
     </g>
     <g id="text_1">
      <text style="font: 10px 'Arial', sans-serif; text-anchor: middle" x="61.977641" y="321.741812" transform="rotate(-0 61.977641 321.741812)">−8</text>
     </g>
    </g>
    <g id="xtick_2">
     <g id="line2d_2">
      <g>
       <use xlink:href="#mc32ae6990d" x="116.602584" y="307.584" style="stroke: #000000; stroke-width: 0.8"/>
      </g>
     </g>
     <g id="text_2">
      <text style="font: 10px 'Arial', sans-serif; text-anchor: middle" x="116.602584" y="321.741812" transform="rotate(-0 116.602584 321.741812)">−6</text>
     </g>
    </g>
    <g id="xtick_3">
     <g id="line2d_3">
      <g>
       <use xlink:href="#mc32ae6990d" x="171.227526" y="307.584" style="stroke: #000000; stroke-width: 0.8"/>
      </g>
     </g>
     <g id="text_3">
      <text style="font: 10px 'Arial', sans-serif; text-anchor: middle" x="171.227526" y="321.741812" transform="rotate(-0 171.227526 321.741812)">−4</text>
     </g>
    </g>
    <g id="xtick_4">
     <g id="line2d_4">
      <g>
       <use xlink:href="#mc32ae6990d" x="225.852469" y="307.584" style="stroke: #000000; stroke-width: 0.8"/>
      </g>
     </g>
     <g id="text_4">
      <text style="font: 10px 'Arial', sans-serif; text-anchor: middle" x="225.852469" y="321.741812" transform="rotate(-0 225.852469 321.741812)">−2</text>
     </g>
    </g>
    <g id="xtick_5">
     <g id="line2d_5">
      <g>
       <use xlink:href="#mc32ae6990d" x="280.477411" y="307.584" style="stroke: #000000; stroke-width: 0.8"/>
      </g>
     </g>
     <g id="text_5">
      <text style="font: 10px 'Arial', sans-serif; text-anchor: middle" x="280.477411" y="321.741812" transform="rotate(-0 280.477411 321.741812)">0</text>
     </g>
    </g>
    <g id="xtick_6">
     <g id="line2d_6">
      <g>
       <use xlink:href="#mc32ae6990d" x="335.102354" y="307.584" style="stroke: #000000; stroke-width: 0.8"/>
      </g>
     </g>
     <g id="text_6">
      <text style="font: 10px 'Arial', sans-serif; text-anchor: middle" x="335.102354" y="321.741812" transform="rotate(-0 335.102354 321.741812)">2</text>
     </g>
    </g>
    <g id="xtick_7">
     <g id="line2d_7">
      <g>
       <use xlink:href="#mc32ae6990d" x="389.727297" y="307.584" style="stroke: #000000; stroke-width: 0.8"/>
      </g>
     </g>
     <g id="text_7">
      <text style="font: 10px 'Arial', sans-serif; text-anchor: middle" x="389.727297" y="321.741812" transform="rotate(-0 389.727297 321.741812)">4</text>
     </g>
    </g>
    <g id="text_8">
     <text style="font: 10px 'Arial', sans-serif; text-anchor: middle" x="236.16" y="335.009" transform="rotate(-0 236.16 335.009)">Rank deviation (z-score)</text>
    </g>
   </g>
   <g id="matplotlib.axis_2">
    <g id="ytick_1">
     <g id="line2d_8">
      <defs>
       <path id="mbf4e109436" d="M 0 0 
L -3.5 0 
" style="stroke: #000000; stroke-width: 0.8"/>
      </defs>
      <g>
       <use xlink:href="#mbf4e109436" x="57.6" y="307.584" style="stroke: #000000; stroke-width: 0.8"/>
      </g>
     </g>
     <g id="text_9">
      <text style="font: 10px 'Arial', sans-serif; text-anchor: end" x="50.6" y="311.162906" transform="rotate(-0 50.6 311.162906)">0.00</text>
     </g>
    </g>
    <g id="ytick_2">
     <g id="line2d_9">
      <g>
       <use xlink:href="#mbf4e109436" x="57.6" y="276.41711" style="stroke: #000000; stroke-width: 0.8"/>
      </g>
     </g>
     <g id="text_10">
      <text style="font: 10px 'Arial', sans-serif; text-anchor: end" x="50.6" y="279.996016" transform="rotate(-0 50.6 279.996016)">0.05</text>
     </g>
    </g>
    <g id="ytick_3">
     <g id="line2d_10">
      <g>
       <use xlink:href="#mbf4e109436" x="57.6" y="245.25022" style="stroke: #000000; stroke-width: 0.8"/>
      </g>
     </g>
     <g id="text_11">
      <text style="font: 10px 'Arial', sans-serif; text-anchor: end" x="50.6" y="248.829126" transform="rotate(-0 50.6 248.829126)">0.10</text>
     </g>
    </g>
    <g id="ytick_4">
     <g id="line2d_11">
      <g>
       <use xlink:href="#mbf4e109436" x="57.6" y="214.08333" style="stroke: #000000; stroke-width: 0.8"/>
      </g>
     </g>
     <g id="text_12">
      <text style="font: 10px 'Arial', sans-serif; text-anchor: end" x="50.6" y="217.662237" transform="rotate(-0 50.6 217.662237)">0.15</text>
     </g>
    </g>
    <g id="ytick_5">
     <g id="line2d_12">
      <g>
       <use xlink:href="#mbf4e109436" x="57.6" y="182.91644" style="stroke: #000000; stroke-width: 0.8"/>
      </g>
     </g>
     <g id="text_13">
      <text style="font: 10px 'Arial', sans-serif; text-anchor: end" x="50.6" y="186.495347" transform="rotate(-0 50.6 186.495347)">0.20</text>
     </g>
    </g>
    <g id="ytick_6">
     <g id="line2d_13">
      <g>
       <use xlink:href="#mbf4e109436" x="57.6" y="151.74955" style="stroke: #000000; stroke-width: 0.8"/>
      </g>
     </g>
     <g id="text_14">
      <text style="font: 10px 'Arial', sans-serif; text-anchor: end" x="50.6" y="155.328457" transform="rotate(-0 50.6 155.328457)">0.25</text>
     </g>
    </g>
    <g id="ytick_7">
     <g id="line2d_14">
      <g>
       <use xlink:href="#mbf4e109436" x="57.6" y="120.582661" style="stroke: #000000; stroke-width: 0.8"/>
      </g>
     </g>
     <g id="text_15">
      <text style="font: 10px 'Arial', sans-serif; text-anchor: end" x="50.6" y="124.161567" transform="rotate(-0 50.6 124.161567)">0.30</text>
     </g>
    </g>
    <g id="ytick_8">
     <g id="line2d_15">
      <g>
       <use xlink:href="#mbf4e109436" x="57.6" y="89.415771" style="stroke: #000000; stroke-width: 0.8"/>
      </g>
     </g>
     <g id="text_16">
      <text style="font: 10px 'Arial', sans-serif; text-anchor: end" x="50.6" y="92.994677" transform="rotate(-0 50.6 92.994677)">0.35</text>
     </g>
    </g>
    <g id="ytick_9">
     <g id="line2d_16">
      <g>
       <use xlink:href="#mbf4e109436" x="57.6" y="58.248881" style="stroke: #000000; stroke-width: 0.8"/>
      </g>
     </g>
     <g id="text_17">
      <text style="font: 10px 'Arial', sans-serif; text-anchor: end" x="50.6" y="61.827787" transform="rotate(-0 50.6 61.827787)">0.40</text>
     </g>
    </g>
    <g id="text_18">
     <text style="font: 10px 'Arial', sans-serif; text-anchor: middle" x="25.034375" y="174.528" transform="rotate(-90 25.034375 174.528)">Density</text>
    </g>
   </g>
   <g id="patch_3">
    <path d="M 168.277686 307.584 
L 168.277686 307.473069 
L 177.486069 307.473069 
L 177.486069 307.121788 
L 186.694453 307.121788 
L 186.694453 306.104922 
L 195.902836 306.104922 
L 195.902836 303.849328 
L 205.11122 303.849328 
L 205.11122 298.321275 
L 214.319603 298.321275 
L 214.319603 288.300522 
L 223.527987 288.300522 
L 223.527987 264.672252 
L 232.73637 264.672252 
L 232.73637 237.790011 
L 241.944754 237.790011 
L 241.944754 189.442652 
L 251.153137 189.442652 
L 251.153137 152.021981 
L 260.361521 152.021981 
L 260.361521 88.717446 
L 269.569904 88.717446 
L 269.569904 78.511809 
L 278.778288 78.511809 
L 278.778288 54.144 
L 287.986671 54.144 
L 287.986671 88.495584 
L 297.195055 88.495584 
L 297.195055 114.545844 
L 306.403438 114.545844 
L 306.403438 178.867245 
L 315.611821 178.867245 
L 315.611821 213.736507 
L 324.820205 213.736507 
L 324.820205 259.199664 
L 334.028588 259.199664 
L 334.028588 280.886644 
L 343.236972 280.886644 
L 343.236972 296.990104 
L 352.445355 296.990104 
L 352.445355 303.405605 
L 361.653739 303.405605 
L 361.653739 306.178876 
L 370.862122 306.178876 
L 370.862122 307.010857 
L 380.070506 307.010857 
L 380.070506 307.436092 
L 389.278889 307.436092 
L 389.278889 307.528535 
L 398.487273 307.528535 
L 398.487273 307.584 
" clip-path="url(#p42e40bd262)" style="fill: none; stroke: #000000; stroke-linejoin: miter"/>
   </g>
   <g id="line2d_17">
    <path d="M 73.832727 307.584 
L 73.832727 41.472 
" clip-path="url(#p42e40bd262)" style="fill: none; stroke-dasharray: 5.55,2.4; stroke-dashoffset: 0; stroke: #000000; stroke-width: 1.5"/>
   </g>
   <g id="patch_4">
    <path d="M 57.6 307.584 
L 414.72 307.584 
" style="fill: none; stroke: #000000; stroke-width: 0.8; stroke-linejoin: miter; stroke-linecap: square"/>
   </g>
   <g id="text_19">
    <text style="fill: #ec008c; font: 8.33px 'Arial', sans-serif" transform="translate(74.179245 26.539637)">Sequence Deviation Permutation Test - ALM - GP4_23_s7_L50_D250_ALM - #Cells: 70</text>
    <text style="fill: #ec008c; font: 8.33px 'Arial', sans-serif" transform="translate(150.972084 35.472)">Min. percent of active trials per condition: 10%</text>
   </g>
   <g id="legend_1">
    <g id="patch_5">
     <path d="M 62.458 74.354588 
L 185.919516 74.354588 
Q 187.307516 74.354588 187.307516 72.966588 
L 187.307516 46.33 
Q 187.307516 44.942 185.919516 44.942 
L 62.458 44.942 
Q 61.07 44.942 61.07 46.33 
L 61.07 72.966588 
Q 61.07 74.354588 62.458 74.354588 
z
" style="fill: #ffffff; opacity: 0.8; stroke: #cccccc; stroke-linejoin: miter"/>
    </g>
    <g id="patch_6">
     <path d="M 63.846 52.770103 
L 77.726 52.770103 
L 77.726 47.912103 
L 63.846 47.912103 
L 63.846 52.770103 
z
" style="fill: none; stroke: #000000; stroke-linejoin: miter"/>
    </g>
    <g id="text_20">
     <text style="font: 6.94px 'Arial', sans-serif; text-anchor: start" x="83.278" y="52.770103" transform="rotate(-0 83.278 52.770103)">Shuffle (100,000 Permutations)</text>
    </g>
    <g id="line2d_18">
     <path d="M 63.846 64.694433 
L 70.786 64.694433 
L 77.726 64.694433 
" style="fill: none; stroke-dasharray: 5.55,2.4; stroke-dashoffset: 0; stroke: #000000; stroke-width: 1.5"/>
    </g>
    <g id="text_21">
     <text style="font: 6.94px 'Arial', sans-serif" transform="translate(83.278 62.752859)">Deviation 5.786 (z-score=-7.566)</text>
     <text style="font: 6.94px 'Arial', sans-serif" transform="translate(83.278 70.199263)">pval=0.0000</text>
    </g>
   </g>
  </g>
 </g>
 <defs>
  <clipPath id="p42e40bd262">
   <rect x="57.6" y="41.472" width="357.12" height="266.112"/>
  </clipPath>
 </defs>
</svg>
