<?xml version="1.0" encoding="utf-8" standalone="no"?>
<!DOCTYPE svg PUBLIC "-//W3C//DTD SVG 1.1//EN"
  "http://www.w3.org/Graphics/SVG/1.1/DTD/svg11.dtd">
<svg xmlns:xlink="http://www.w3.org/1999/xlink" width="460.8pt" height="345.6pt" viewBox="0 0 460.8 345.6" xmlns="http://www.w3.org/2000/svg" version="1.1">
 <metadata>
  <rdf:RDF xmlns:dc="http://purl.org/dc/elements/1.1/" xmlns:cc="http://creativecommons.org/ns#" xmlns:rdf="http://www.w3.org/1999/02/22-rdf-syntax-ns#">
   <cc:Work>
    <dc:type rdf:resource="http://purl.org/dc/dcmitype/StillImage"/>
    <dc:date>2025-12-27T13:57:35.342537</dc:date>
    <dc:format>image/svg+xml</dc:format>
    <dc:creator>
     <cc:Agent>
      <dc:title>Matplotlib v3.8.0, https://matplotlib.org/</dc:title>
     </cc:Agent>
    </dc:creator>
   </cc:Work>
  </rdf:RDF>
 </metadata>
 <defs>
  <style type="text/css">*{stroke-linejoin: round; stroke-linecap: butt}</style>
 </defs>
 <g id="figure_1">
  <g id="patch_1">
   <path d="M 0 345.6 
L 460.8 345.6 
L 460.8 0 
L 0 0 
z
" style="fill: #ffffff"/>
  </g>
  <g id="axes_1">
   <g id="patch_2">
    <path d="M 57.6 307.584 
L 414.72 307.584 
L 414.72 41.472 
L 57.6 41.472 
z
" style="fill: #ffffff"/>
   </g>
   <g id="matplotlib.axis_1">
    <g id="xtick_1">
     <g id="line2d_1">
      <defs>
       <path id="m98e0eff7a6" d="M 0 0 
L 0 3.5 
" style="stroke: #000000; stroke-width: 0.8"/>
      </defs>
      <g>
       <use xlink:href="#m98e0eff7a6" x="94.907413" y="307.584" style="stroke: #000000; stroke-width: 0.8"/>
      </g>
     </g>
     <g id="text_1">
      <text style="font: 10px 'Arial', sans-serif; text-anchor: middle" x="94.907413" y="321.741812" transform="rotate(-0 94.907413 321.741812)">−6</text>
     </g>
    </g>
    <g id="xtick_2">
     <g id="line2d_2">
      <g>
       <use xlink:href="#m98e0eff7a6" x="156.060206" y="307.584" style="stroke: #000000; stroke-width: 0.8"/>
      </g>
     </g>
     <g id="text_2">
      <text style="font: 10px 'Arial', sans-serif; text-anchor: middle" x="156.060206" y="321.741812" transform="rotate(-0 156.060206 321.741812)">−4</text>
     </g>
    </g>
    <g id="xtick_3">
     <g id="line2d_3">
      <g>
       <use xlink:href="#m98e0eff7a6" x="217.212999" y="307.584" style="stroke: #000000; stroke-width: 0.8"/>
      </g>
     </g>
     <g id="text_3">
      <text style="font: 10px 'Arial', sans-serif; text-anchor: middle" x="217.212999" y="321.741812" transform="rotate(-0 217.212999 321.741812)">−2</text>
     </g>
    </g>
    <g id="xtick_4">
     <g id="line2d_4">
      <g>
       <use xlink:href="#m98e0eff7a6" x="278.365792" y="307.584" style="stroke: #000000; stroke-width: 0.8"/>
      </g>
     </g>
     <g id="text_4">
      <text style="font: 10px 'Arial', sans-serif; text-anchor: middle" x="278.365792" y="321.741812" transform="rotate(-0 278.365792 321.741812)">0</text>
     </g>
    </g>
    <g id="xtick_5">
     <g id="line2d_5">
      <g>
       <use xlink:href="#m98e0eff7a6" x="339.518586" y="307.584" style="stroke: #000000; stroke-width: 0.8"/>
      </g>
     </g>
     <g id="text_5">
      <text style="font: 10px 'Arial', sans-serif; text-anchor: middle" x="339.518586" y="321.741812" transform="rotate(-0 339.518586 321.741812)">2</text>
     </g>
    </g>
    <g id="xtick_6">
     <g id="line2d_6">
      <g>
       <use xlink:href="#m98e0eff7a6" x="400.671379" y="307.584" style="stroke: #000000; stroke-width: 0.8"/>
      </g>
     </g>
     <g id="text_6">
      <text style="font: 10px 'Arial', sans-serif; text-anchor: middle" x="400.671379" y="321.741812" transform="rotate(-0 400.671379 321.741812)">4</text>
     </g>
    </g>
    <g id="text_7">
     <text style="font: 10px 'Arial', sans-serif; text-anchor: middle" x="236.16" y="335.009" transform="rotate(-0 236.16 335.009)">Rank deviation (z-score)</text>
    </g>
   </g>
   <g id="matplotlib.axis_2">
    <g id="ytick_1">
     <g id="line2d_7">
      <defs>
       <path id="ma4239407c3" d="M 0 0 
L -3.5 0 
" style="stroke: #000000; stroke-width: 0.8"/>
      </defs>
      <g>
       <use xlink:href="#ma4239407c3" x="57.6" y="307.584" style="stroke: #000000; stroke-width: 0.8"/>
      </g>
     </g>
     <g id="text_8">
      <text style="font: 10px 'Arial', sans-serif; text-anchor: end" x="50.6" y="311.162906" transform="rotate(-0 50.6 311.162906)">0.00</text>
     </g>
    </g>
    <g id="ytick_2">
     <g id="line2d_8">
      <g>
       <use xlink:href="#ma4239407c3" x="57.6" y="275.671311" style="stroke: #000000; stroke-width: 0.8"/>
      </g>
     </g>
     <g id="text_9">
      <text style="font: 10px 'Arial', sans-serif; text-anchor: end" x="50.6" y="279.250217" transform="rotate(-0 50.6 279.250217)">0.05</text>
     </g>
    </g>
    <g id="ytick_3">
     <g id="line2d_9">
      <g>
       <use xlink:href="#ma4239407c3" x="57.6" y="243.758622" style="stroke: #000000; stroke-width: 0.8"/>
      </g>
     </g>
     <g id="text_10">
      <text style="font: 10px 'Arial', sans-serif; text-anchor: end" x="50.6" y="247.337529" transform="rotate(-0 50.6 247.337529)">0.10</text>
     </g>
    </g>
    <g id="ytick_4">
     <g id="line2d_10">
      <g>
       <use xlink:href="#ma4239407c3" x="57.6" y="211.845934" style="stroke: #000000; stroke-width: 0.8"/>
      </g>
     </g>
     <g id="text_11">
      <text style="font: 10px 'Arial', sans-serif; text-anchor: end" x="50.6" y="215.42484" transform="rotate(-0 50.6 215.42484)">0.15</text>
     </g>
    </g>
    <g id="ytick_5">
     <g id="line2d_11">
      <g>
       <use xlink:href="#ma4239407c3" x="57.6" y="179.933245" style="stroke: #000000; stroke-width: 0.8"/>
      </g>
     </g>
     <g id="text_12">
      <text style="font: 10px 'Arial', sans-serif; text-anchor: end" x="50.6" y="183.512151" transform="rotate(-0 50.6 183.512151)">0.20</text>
     </g>
    </g>
    <g id="ytick_6">
     <g id="line2d_12">
      <g>
       <use xlink:href="#ma4239407c3" x="57.6" y="148.020556" style="stroke: #000000; stroke-width: 0.8"/>
      </g>
     </g>
     <g id="text_13">
      <text style="font: 10px 'Arial', sans-serif; text-anchor: end" x="50.6" y="151.599462" transform="rotate(-0 50.6 151.599462)">0.25</text>
     </g>
    </g>
    <g id="ytick_7">
     <g id="line2d_13">
      <g>
       <use xlink:href="#ma4239407c3" x="57.6" y="116.107867" style="stroke: #000000; stroke-width: 0.8"/>
      </g>
     </g>
     <g id="text_14">
      <text style="font: 10px 'Arial', sans-serif; text-anchor: end" x="50.6" y="119.686774" transform="rotate(-0 50.6 119.686774)">0.30</text>
     </g>
    </g>
    <g id="ytick_8">
     <g id="line2d_14">
      <g>
       <use xlink:href="#ma4239407c3" x="57.6" y="84.195179" style="stroke: #000000; stroke-width: 0.8"/>
      </g>
     </g>
     <g id="text_15">
      <text style="font: 10px 'Arial', sans-serif; text-anchor: end" x="50.6" y="87.774085" transform="rotate(-0 50.6 87.774085)">0.35</text>
     </g>
    </g>
    <g id="ytick_9">
     <g id="line2d_15">
      <g>
       <use xlink:href="#ma4239407c3" x="57.6" y="52.28249" style="stroke: #000000; stroke-width: 0.8"/>
      </g>
     </g>
     <g id="text_16">
      <text style="font: 10px 'Arial', sans-serif; text-anchor: end" x="50.6" y="55.861396" transform="rotate(-0 50.6 55.861396)">0.40</text>
     </g>
    </g>
    <g id="text_17">
     <text style="font: 10px 'Arial', sans-serif; text-anchor: middle" x="25.034375" y="174.528" transform="rotate(-90 25.034375 174.528)">Density</text>
    </g>
   </g>
   <g id="patch_3">
    <path d="M 138.488505 307.584 
L 138.488505 307.565235 
L 148.888456 307.565235 
L 148.888456 307.490175 
L 159.288407 307.490175 
L 159.288407 307.43388 
L 169.688357 307.43388 
L 169.688357 306.60822 
L 180.088308 306.60822 
L 180.088308 305.332201 
L 190.488259 305.332201 
L 190.488259 300.284418 
L 200.88821 300.284418 
L 200.88821 292.32806 
L 211.28816 292.32806 
L 211.28816 271.724098 
L 221.688111 271.724098 
L 221.688111 239.054244 
L 232.088062 239.054244 
L 232.088062 210.587749 
L 242.488012 210.587749 
L 242.488012 145.097923 
L 252.887963 145.097923 
L 252.887963 122.354751 
L 263.287914 122.354751 
L 263.287914 55.757789 
L 273.687864 55.757789 
L 273.687864 73.659593 
L 284.087815 73.659593 
L 284.087815 54.144 
L 294.487766 54.144 
L 294.487766 120.309367 
L 304.887716 120.309367 
L 304.887716 148.250442 
L 315.287667 148.250442 
L 315.287667 200.023058 
L 325.687618 200.023058 
L 325.687618 253.296874 
L 336.087569 253.296874 
L 336.087569 275.664746 
L 346.487519 275.664746 
L 346.487519 294.09197 
L 356.88747 294.09197 
L 356.88747 301.710557 
L 367.287421 301.710557 
L 367.287421 305.857621 
L 377.687371 305.857621 
L 377.687371 306.98352 
L 388.087322 306.98352 
L 388.087322 307.490175 
L 398.487273 307.490175 
L 398.487273 307.584 
" clip-path="url(#p2e862f918b)" style="fill: none; stroke: #000000; stroke-linejoin: miter"/>
   </g>
   <g id="line2d_16">
    <path d="M 73.832727 307.584 
L 73.832727 41.472 
" clip-path="url(#p2e862f918b)" style="fill: none; stroke-dasharray: 5.55,2.4; stroke-dashoffset: 0; stroke: #000000; stroke-width: 1.5"/>
   </g>
   <g id="patch_4">
    <path d="M 57.6 307.584 
L 414.72 307.584 
" style="fill: none; stroke: #000000; stroke-width: 0.8; stroke-linejoin: miter; stroke-linecap: square"/>
   </g>
   <g id="text_18">
    <text style="fill: #ec008c; font: 8.33px 'Arial', sans-serif" transform="translate(74.179245 26.539637)">Sequence Deviation Permutation Test - ALM - GP4_85_s7_L70_D250_ALM - #Cells: 57</text>
    <text style="fill: #ec008c; font: 8.33px 'Arial', sans-serif" transform="translate(150.972084 35.472)">Min. percent of active trials per condition: 10%</text>
   </g>
   <g id="legend_1">
    <g id="patch_5">
     <path d="M 62.458 74.354588 
L 185.919516 74.354588 
Q 187.307516 74.354588 187.307516 72.966588 
L 187.307516 46.33 
Q 187.307516 44.942 185.919516 44.942 
L 62.458 44.942 
Q 61.07 44.942 61.07 46.33 
L 61.07 72.966588 
Q 61.07 74.354588 62.458 74.354588 
z
" style="fill: #ffffff; opacity: 0.8; stroke: #cccccc; stroke-linejoin: miter"/>
    </g>
    <g id="patch_6">
     <path d="M 63.846 52.770103 
L 77.726 52.770103 
L 77.726 47.912103 
L 63.846 47.912103 
L 63.846 52.770103 
z
" style="fill: none; stroke: #000000; stroke-linejoin: miter"/>
    </g>
    <g id="text_19">
     <text style="font: 6.94px 'Arial', sans-serif; text-anchor: start" x="83.278" y="52.770103" transform="rotate(-0 83.278 52.770103)">Shuffle (100,000 Permutations)</text>
    </g>
    <g id="line2d_17">
     <path d="M 63.846 64.694433 
L 70.786 64.694433 
L 77.726 64.694433 
" style="fill: none; stroke-dasharray: 5.55,2.4; stroke-dashoffset: 0; stroke: #000000; stroke-width: 1.5"/>
    </g>
    <g id="text_20">
     <text style="font: 6.94px 'Arial', sans-serif" transform="translate(83.278 62.752859)">Deviation 5.386 (z-score=-6.689)</text>
     <text style="font: 6.94px 'Arial', sans-serif" transform="translate(83.278 70.199263)">pval=0.0000</text>
    </g>
   </g>
  </g>
 </g>
 <defs>
  <clipPath id="p2e862f918b">
   <rect x="57.6" y="41.472" width="357.12" height="266.112"/>
  </clipPath>
 </defs>
</svg>
