<?xml version="1.0" encoding="utf-8" standalone="no"?>
<!DOCTYPE svg PUBLIC "-//W3C//DTD SVG 1.1//EN"
  "http://www.w3.org/Graphics/SVG/1.1/DTD/svg11.dtd">
<svg xmlns:xlink="http://www.w3.org/1999/xlink" width="413.171283pt" height="361.333136pt" viewBox="0 0 413.171283 361.333136" xmlns="http://www.w3.org/2000/svg" version="1.1">
 <metadata>
  <rdf:RDF xmlns:dc="http://purl.org/dc/elements/1.1/" xmlns:cc="http://creativecommons.org/ns#" xmlns:rdf="http://www.w3.org/1999/02/22-rdf-syntax-ns#">
   <cc:Work>
    <dc:type rdf:resource="http://purl.org/dc/dcmitype/StillImage"/>
    <dc:date>2025-12-29T04:07:01.370221</dc:date>
    <dc:format>image/svg+xml</dc:format>
    <dc:creator>
     <cc:Agent>
      <dc:title>Matplotlib v3.8.0, https://matplotlib.org/</dc:title>
     </cc:Agent>
    </dc:creator>
   </cc:Work>
  </rdf:RDF>
 </metadata>
 <defs>
  <style type="text/css">*{stroke-linejoin: round; stroke-linecap: butt}</style>
 </defs>
 <g id="figure_1">
  <g id="patch_1">
   <path d="M 0 361.333136 
L 413.171283 361.333136 
L 413.171283 -0 
L 0 -0 
z
" style="fill: #ffffff"/>
  </g>
  <g id="axes_1">
   <g id="patch_2">
    <path d="M 48.851283 285.37598 
L 405.971283 285.37598 
L 405.971283 19.26398 
L 48.851283 19.26398 
z
" style="fill: #ffffff"/>
   </g>
   <g id="PolyCollection_1">
    <defs>
     <path id="mf8b9ad5e2b" d="M 48.851283 -200.628325 
L 48.851283 -160.365058 
L 60.011283 -162.171815 
L 71.171283 -167.095019 
L 82.331283 -180.053181 
L 93.491283 -185.321788 
L 104.651283 -188.454323 
L 115.811283 -186.917927 
L 126.971283 -186.930954 
L 138.131283 -190.644185 
L 149.291283 -197.632751 
L 160.451283 -208.258878 
L 171.611283 -225.536692 
L 182.771283 -245.152786 
L 193.931283 -262.228823 
L 205.091283 -269.692472 
L 216.251283 -257.016296 
L 227.411283 -236.857182 
L 238.571283 -226.929976 
L 249.731283 -225.825157 
L 260.891283 -232.279839 
L 272.051283 -234.299648 
L 283.211283 -226.990302 
L 294.371283 -216.778333 
L 305.531283 -210.862647 
L 316.691283 -197.778633 
L 327.851283 -178.873568 
L 339.011283 -159.432356 
L 350.171283 -140.395812 
L 361.331283 -129.353262 
L 372.491283 -122.957757 
L 383.651283 -115.326065 
L 394.811283 -110.923309 
L 405.971283 -103.437809 
L 405.971283 -122.216721 
L 405.971283 -122.216721 
L 394.811283 -128.209407 
L 383.651283 -133.852413 
L 372.491283 -144.056622 
L 361.331283 -152.836579 
L 350.171283 -166.948328 
L 339.011283 -189.600298 
L 327.851283 -213.249488 
L 316.691283 -233.79214 
L 305.531283 -246.921128 
L 294.371283 -254.605549 
L 283.211283 -267.585244 
L 272.051283 -276.89069 
L 260.891283 -276.002202 
L 249.731283 -269.175891 
L 238.571283 -271.408309 
L 227.411283 -286.028943 
L 216.251283 -311.568777 
L 205.091283 -329.973156 
L 193.931283 -322.874223 
L 182.771283 -303.362188 
L 171.611283 -284.969617 
L 160.451283 -270.602028 
L 149.291283 -260.224929 
L 138.131283 -250.380872 
L 126.971283 -243.98531 
L 115.811283 -243.474816 
L 104.651283 -242.264625 
L 93.491283 -234.199459 
L 82.331283 -225.875132 
L 71.171283 -212.746584 
L 60.011283 -206.94234 
L 48.851283 -200.628325 
z
" style="stroke: #1f77b4; stroke-opacity: 0.2"/>
    </defs>
    <g clip-path="url(#pe2aabd3906)">
     <use xlink:href="#mf8b9ad5e2b" x="0" y="361.333136" style="fill: #1f77b4; fill-opacity: 0.2; stroke: #1f77b4; stroke-opacity: 0.2"/>
    </g>
   </g>
   <g id="PolyCollection_2">
    <defs>
     <path id="md62eaf7206" d="M 48.851283 -205.145285 
L 48.851283 -169.333685 
L 60.011283 -167.510004 
L 71.171283 -169.219639 
L 82.331283 -173.096956 
L 93.491283 -178.57563 
L 104.651283 -184.094931 
L 115.811283 -196.30819 
L 126.971283 -211.134772 
L 138.131283 -219.680697 
L 149.291283 -226.904523 
L 160.451283 -240.747088 
L 171.611283 -257.498143 
L 182.771283 -266.961628 
L 193.931283 -268.195926 
L 205.091283 -270.987302 
L 216.251283 -274.432594 
L 227.411283 -270.633925 
L 238.571283 -268.429652 
L 249.731283 -261.986279 
L 260.891283 -249.040596 
L 272.051283 -235.872457 
L 283.211283 -222.020401 
L 294.371283 -204.242839 
L 305.531283 -188.598564 
L 316.691283 -171.500334 
L 327.851283 -157.195271 
L 339.011283 -145.194438 
L 350.171283 -131.164914 
L 361.331283 -114.682279 
L 372.491283 -106.219333 
L 383.651283 -98.065132 
L 394.811283 -90.313518 
L 405.971283 -88.053156 
L 405.971283 -106.087109 
L 405.971283 -106.087109 
L 394.811283 -108.29089 
L 383.651283 -115.223789 
L 372.491283 -123.574503 
L 361.331283 -134.060143 
L 350.171283 -152.590496 
L 339.011283 -169.409424 
L 327.851283 -183.257723 
L 316.691283 -199.639643 
L 305.531283 -220.498214 
L 294.371283 -238.5347 
L 283.211283 -257.330864 
L 272.051283 -274.084813 
L 260.891283 -290.16122 
L 249.731283 -301.68993 
L 238.571283 -307.287885 
L 227.411283 -311.684755 
L 216.251283 -315.559488 
L 205.091283 -311.441096 
L 193.931283 -309.712652 
L 182.771283 -310.626661 
L 171.611283 -302.270168 
L 160.451283 -284.15747 
L 149.291283 -269.317977 
L 138.131283 -262.644109 
L 126.971283 -254.363082 
L 115.811283 -240.177524 
L 104.651283 -227.848976 
L 93.491283 -220.145774 
L 82.331283 -212.53577 
L 71.171283 -206.670181 
L 60.011283 -203.695031 
L 48.851283 -205.145285 
z
" style="stroke: #ff7f0e; stroke-opacity: 0.2"/>
    </defs>
    <g clip-path="url(#pe2aabd3906)">
     <use xlink:href="#md62eaf7206" x="0" y="361.333136" style="fill: #ff7f0e; fill-opacity: 0.2; stroke: #ff7f0e; stroke-opacity: 0.2"/>
    </g>
   </g>
   <g id="matplotlib.axis_1">
    <g id="text_1">
     <text style="font: 10px 'Arial', sans-serif; text-anchor: middle" x="227.411283" y="296.533792" transform="rotate(-0 227.411283 296.533792)">Time</text>
    </g>
   </g>
   <g id="matplotlib.axis_2">
    <g id="ytick_1">
     <g id="line2d_1">
      <defs>
       <path id="m25f7154869" d="M 0 0 
L -3.5 0 
" style="stroke: #000000; stroke-width: 0.8"/>
      </defs>
      <g>
       <use xlink:href="#m25f7154869" x="48.851283" y="281.805989" style="stroke: #000000; stroke-width: 0.8"/>
      </g>
     </g>
     <g id="text_2">
      <text style="font: 10px 'Arial', sans-serif; text-anchor: end" x="41.851283" y="285.384895" transform="rotate(-0 41.851283 285.384895)">−0.6</text>
     </g>
    </g>
    <g id="ytick_2">
     <g id="line2d_2">
      <g>
       <use xlink:href="#m25f7154869" x="48.851283" y="249.540098" style="stroke: #000000; stroke-width: 0.8"/>
      </g>
     </g>
     <g id="text_3">
      <text style="font: 10px 'Arial', sans-serif; text-anchor: end" x="41.851283" y="253.119005" transform="rotate(-0 41.851283 253.119005)">−0.4</text>
     </g>
    </g>
    <g id="ytick_3">
     <g id="line2d_3">
      <g>
       <use xlink:href="#m25f7154869" x="48.851283" y="217.274208" style="stroke: #000000; stroke-width: 0.8"/>
      </g>
     </g>
     <g id="text_4">
      <text style="font: 10px 'Arial', sans-serif; text-anchor: end" x="41.851283" y="220.853114" transform="rotate(-0 41.851283 220.853114)">−0.2</text>
     </g>
    </g>
    <g id="ytick_4">
     <g id="line2d_4">
      <g>
       <use xlink:href="#m25f7154869" x="48.851283" y="185.008318" style="stroke: #000000; stroke-width: 0.8"/>
      </g>
     </g>
     <g id="text_5">
      <text style="font: 10px 'Arial', sans-serif; text-anchor: end" x="41.851283" y="188.587224" transform="rotate(-0 41.851283 188.587224)">0.0</text>
     </g>
    </g>
    <g id="ytick_5">
     <g id="line2d_5">
      <g>
       <use xlink:href="#m25f7154869" x="48.851283" y="152.742427" style="stroke: #000000; stroke-width: 0.8"/>
      </g>
     </g>
     <g id="text_6">
      <text style="font: 10px 'Arial', sans-serif; text-anchor: end" x="41.851283" y="156.321333" transform="rotate(-0 41.851283 156.321333)">0.2</text>
     </g>
    </g>
    <g id="ytick_6">
     <g id="line2d_6">
      <g>
       <use xlink:href="#m25f7154869" x="48.851283" y="120.476537" style="stroke: #000000; stroke-width: 0.8"/>
      </g>
     </g>
     <g id="text_7">
      <text style="font: 10px 'Arial', sans-serif; text-anchor: end" x="41.851283" y="124.055443" transform="rotate(-0 41.851283 124.055443)">0.4</text>
     </g>
    </g>
    <g id="ytick_7">
     <g id="line2d_7">
      <g>
       <use xlink:href="#m25f7154869" x="48.851283" y="88.210646" style="stroke: #000000; stroke-width: 0.8"/>
      </g>
     </g>
     <g id="text_8">
      <text style="font: 10px 'Arial', sans-serif; text-anchor: end" x="41.851283" y="91.789553" transform="rotate(-0 41.851283 91.789553)">0.6</text>
     </g>
    </g>
    <g id="ytick_8">
     <g id="line2d_8">
      <g>
       <use xlink:href="#m25f7154869" x="48.851283" y="55.944756" style="stroke: #000000; stroke-width: 0.8"/>
      </g>
     </g>
     <g id="text_9">
      <text style="font: 10px 'Arial', sans-serif; text-anchor: end" x="41.851283" y="59.523662" transform="rotate(-0 41.851283 59.523662)">0.8</text>
     </g>
    </g>
    <g id="ytick_9">
     <g id="line2d_9">
      <g>
       <use xlink:href="#m25f7154869" x="48.851283" y="23.678866" style="stroke: #000000; stroke-width: 0.8"/>
      </g>
     </g>
     <g id="text_10">
      <text style="font: 10px 'Arial', sans-serif; text-anchor: end" x="41.851283" y="27.257772" transform="rotate(-0 41.851283 27.257772)">1.0</text>
     </g>
    </g>
    <g id="text_11">
     <text style="font: 10px 'Arial', sans-serif; text-anchor: middle" x="16.005971" y="152.31998" transform="rotate(-90 16.005971 152.31998)">Activity</text>
    </g>
   </g>
   <g id="line2d_10">
    <path d="M 48.851283 180.836444 
L 60.011283 176.776059 
L 71.171283 171.412335 
L 82.331283 158.36898 
L 93.491283 151.572512 
L 104.651283 145.973661 
L 115.811283 146.136765 
L 126.971283 145.875003 
L 138.131283 140.820608 
L 149.291283 132.404295 
L 160.451283 121.902683 
L 171.611283 106.079984 
L 182.771283 87.075649 
L 193.931283 68.781613 
L 205.091283 61.500322 
L 216.251283 77.040599 
L 227.411283 99.890073 
L 238.571283 112.163993 
L 249.731283 113.832612 
L 260.891283 107.192116 
L 272.051283 105.737967 
L 283.211283 114.045365 
L 294.371283 125.641195 
L 305.531283 132.441249 
L 316.691283 145.547749 
L 327.851283 165.271609 
L 339.011283 186.816809 
L 350.171283 207.661065 
L 361.331283 220.238215 
L 372.491283 227.825946 
L 383.651283 236.743897 
L 394.811283 241.766778 
L 405.971283 248.505871 
" clip-path="url(#pe2aabd3906)" style="fill: none; stroke: #1f77b4; stroke-width: 1.5; stroke-linecap: square"/>
   </g>
   <g id="line2d_11">
    <path d="M 48.851283 174.093651 
L 60.011283 175.730618 
L 71.171283 173.388226 
L 82.331283 168.516773 
L 93.491283 161.972435 
L 104.651283 155.361181 
L 115.811283 143.090279 
L 126.971283 128.58421 
L 138.131283 120.170733 
L 149.291283 113.221886 
L 160.451283 98.880857 
L 171.611283 81.44898 
L 182.771283 72.538992 
L 193.931283 72.378847 
L 205.091283 70.118937 
L 216.251283 66.337095 
L 227.411283 70.173796 
L 238.571283 73.474367 
L 249.731283 79.495031 
L 260.891283 91.732228 
L 272.051283 106.354501 
L 283.211283 121.657504 
L 294.371283 139.944366 
L 305.531283 156.784746 
L 316.691283 175.763148 
L 327.851283 191.106639 
L 339.011283 204.031204 
L 350.171283 219.455431 
L 361.331283 236.961925 
L 372.491283 246.436218 
L 383.651283 254.688675 
L 394.811283 262.030932 
L 405.971283 264.263004 
" clip-path="url(#pe2aabd3906)" style="fill: none; stroke: #ff7f0e; stroke-width: 1.5; stroke-linecap: square"/>
   </g>
   <g id="line2d_12">
    <path d="M 82.331283 285.37598 
L 82.331283 19.26398 
" clip-path="url(#pe2aabd3906)" style="fill: none; stroke-dasharray: 5.55,2.4; stroke-dashoffset: 0; stroke: #000000; stroke-opacity: 0.5; stroke-width: 1.5"/>
   </g>
   <g id="line2d_13">
    <path d="M 383.651283 285.37598 
L 383.651283 19.26398 
" clip-path="url(#pe2aabd3906)" style="fill: none; stroke-dasharray: 5.55,2.4; stroke-dashoffset: 0; stroke: #000000; stroke-opacity: 0.5; stroke-width: 1.5"/>
   </g>
   <g id="patch_3">
    <path d="M 48.851283 285.37598 
L 405.971283 285.37598 
" style="fill: none; stroke: #000000; stroke-width: 0.8; stroke-linejoin: miter; stroke-linecap: square"/>
   </g>
   <g id="text_12">
    <text style="font: 6.94px 'Arial', sans-serif" transform="translate(10.097767 321.385533) rotate(-35)">-0.1s Sampling</text>
   </g>
   <g id="text_13">
    <text style="font: 6.94px 'Arial', sans-serif" transform="translate(57.794497 311.430872) rotate(-35)">Sampling</text>
   </g>
   <g id="text_14">
    <text style="font: 6.94px 'Arial', sans-serif" transform="translate(319.037191 339.456682) rotate(-35)">Movement to Lateral Port</text>
   </g>
   <g id="text_15">
    <text style="font: 8.33px 'Arial', sans-serif; text-anchor: middle" x="227.411283" y="13.26398" transform="rotate(-0 227.411283 13.26398)">GP4_23_s6_L50_D250_ALM - Trace:106_GP4_23_s6_L50_D250_ALM (when: correct)</text>
   </g>
   <g id="legend_1">
    <g id="patch_4">
     <path d="M 133.696342 354.133136 
L 321.126224 354.133136 
Q 322.514224 354.133136 322.514224 352.745136 
L 322.514224 343.45638 
Q 322.514224 342.06838 321.126224 342.06838 
L 133.696342 342.06838 
Q 132.308342 342.06838 132.308342 343.45638 
L 132.308342 352.745136 
Q 132.308342 354.133136 133.696342 354.133136 
z
" style="fill: #ffffff; opacity: 0.8; stroke: #cccccc; stroke-linejoin: miter"/>
    </g>
    <g id="line2d_14">
     <path d="M 135.084342 347.467483 
L 142.024342 347.467483 
L 148.964342 347.467483 
" style="fill: none; stroke: #1f77b4; stroke-width: 1.5; stroke-linecap: square"/>
    </g>
    <g id="text_16">
     <text style="font: 6.94px 'Arial', sans-serif; text-anchor: start" x="154.516342" y="349.896483" transform="rotate(-0 154.516342 349.896483)">DecisionRight (78 pts)</text>
    </g>
    <g id="line2d_15">
     <path d="M 236.664255 347.467483 
L 243.604255 347.467483 
L 250.544255 347.467483 
" style="fill: none; stroke: #ff7f0e; stroke-width: 1.5; stroke-linecap: square"/>
    </g>
    <g id="text_17">
     <text style="font: 6.94px 'Arial', sans-serif; text-anchor: start" x="256.096255" y="349.896483" transform="rotate(-0 256.096255 349.896483)">DecisionLeft (82 pts)</text>
    </g>
   </g>
  </g>
 </g>
 <defs>
  <clipPath id="pe2aabd3906">
   <rect x="48.851283" y="19.26398" width="357.12" height="266.112"/>
  </clipPath>
 </defs>
</svg>
