<?xml version="1.0" encoding="utf-8" standalone="no"?>
<!DOCTYPE svg PUBLIC "-//W3C//DTD SVG 1.1//EN"
  "http://www.w3.org/Graphics/SVG/1.1/DTD/svg11.dtd">
<svg xmlns:xlink="http://www.w3.org/1999/xlink" width="413.171283pt" height="361.333136pt" viewBox="0 0 413.171283 361.333136" xmlns="http://www.w3.org/2000/svg" version="1.1">
 <metadata>
  <rdf:RDF xmlns:dc="http://purl.org/dc/elements/1.1/" xmlns:cc="http://creativecommons.org/ns#" xmlns:rdf="http://www.w3.org/1999/02/22-rdf-syntax-ns#">
   <cc:Work>
    <dc:type rdf:resource="http://purl.org/dc/dcmitype/StillImage"/>
    <dc:date>2025-12-29T04:07:02.988760</dc:date>
    <dc:format>image/svg+xml</dc:format>
    <dc:creator>
     <cc:Agent>
      <dc:title>Matplotlib v3.8.0, https://matplotlib.org/</dc:title>
     </cc:Agent>
    </dc:creator>
   </cc:Work>
  </rdf:RDF>
 </metadata>
 <defs>
  <style type="text/css">*{stroke-linejoin: round; stroke-linecap: butt}</style>
 </defs>
 <g id="figure_1">
  <g id="patch_1">
   <path d="M 0 361.333136 
L 413.171283 361.333136 
L 413.171283 -0 
L 0 -0 
z
" style="fill: #ffffff"/>
  </g>
  <g id="axes_1">
   <g id="patch_2">
    <path d="M 48.851283 285.37598 
L 405.971283 285.37598 
L 405.971283 19.26398 
L 48.851283 19.26398 
z
" style="fill: #ffffff"/>
   </g>
   <g id="PolyCollection_1">
    <defs>
     <path id="mc60658a268" d="M 48.851283 -320.719372 
L 48.851283 -244.547284 
L 60.011283 -241.782833 
L 71.171283 -238.928286 
L 82.331283 -238.169696 
L 93.491283 -240.144273 
L 104.651283 -244.413361 
L 115.811283 -248.425899 
L 126.971283 -248.82117 
L 138.131283 -246.04133 
L 149.291283 -244.98257 
L 160.451283 -243.6535 
L 171.611283 -240.740781 
L 182.771283 -240.326457 
L 193.931283 -247.570791 
L 205.091283 -253.213902 
L 216.251283 -250.750872 
L 227.411283 -244.473234 
L 238.571283 -234.687947 
L 249.731283 -224.866441 
L 260.891283 -220.730288 
L 272.051283 -224.46291 
L 283.211283 -226.624539 
L 294.371283 -221.958284 
L 305.531283 -214.832794 
L 316.691283 -203.315388 
L 327.851283 -189.057501 
L 339.011283 -174.596421 
L 350.171283 -163.98185 
L 361.331283 -149.515646 
L 372.491283 -138.02281 
L 383.651283 -112.697691 
L 394.811283 -95.182507 
L 405.971283 -88.053156 
L 405.971283 -108.699017 
L 405.971283 -108.699017 
L 394.811283 -119.180489 
L 383.651283 -143.281715 
L 372.491283 -178.735107 
L 361.331283 -192.370439 
L 350.171283 -210.214289 
L 339.011283 -222.618545 
L 327.851283 -239.346775 
L 316.691283 -256.588579 
L 305.531283 -271.651807 
L 294.371283 -280.859084 
L 283.211283 -285.623353 
L 272.051283 -282.509963 
L 260.891283 -279.864785 
L 249.731283 -286.874417 
L 238.571283 -299.893932 
L 227.411283 -311.322961 
L 216.251283 -317.950682 
L 205.091283 -321.681015 
L 193.931283 -317.824631 
L 182.771283 -313.224937 
L 171.611283 -315.676412 
L 160.451283 -319.811179 
L 149.291283 -321.746831 
L 138.131283 -325.038087 
L 126.971283 -329.973156 
L 115.811283 -329.905361 
L 104.651283 -323.86874 
L 93.491283 -316.494331 
L 82.331283 -312.676148 
L 71.171283 -310.696328 
L 60.011283 -314.640289 
L 48.851283 -320.719372 
z
" style="stroke: #1f77b4; stroke-opacity: 0.2"/>
    </defs>
    <g clip-path="url(#p74261552b9)">
     <use xlink:href="#mc60658a268" x="0" y="361.333136" style="fill: #1f77b4; fill-opacity: 0.2; stroke: #1f77b4; stroke-opacity: 0.2"/>
    </g>
   </g>
   <g id="PolyCollection_2">
    <defs>
     <path id="m159187f0cf" d="M 48.851283 -233.367775 
L 48.851283 -177.331777 
L 60.011283 -178.012166 
L 71.171283 -183.647868 
L 82.331283 -193.76712 
L 93.491283 -199.573842 
L 104.651283 -204.331889 
L 115.811283 -205.401009 
L 126.971283 -203.310771 
L 138.131283 -196.830147 
L 149.291283 -191.070314 
L 160.451283 -193.807943 
L 171.611283 -202.894343 
L 182.771283 -209.224674 
L 193.931283 -213.934532 
L 205.091283 -217.16086 
L 216.251283 -214.225737 
L 227.411283 -208.804714 
L 238.571283 -200.614909 
L 249.731283 -188.371687 
L 260.891283 -176.556682 
L 272.051283 -169.454221 
L 283.211283 -169.655147 
L 294.371283 -169.193093 
L 305.531283 -165.511544 
L 316.691283 -153.822297 
L 327.851283 -141.480036 
L 339.011283 -131.136094 
L 350.171283 -121.826622 
L 361.331283 -114.748211 
L 372.491283 -108.084627 
L 383.651283 -95.529997 
L 394.811283 -91.306799 
L 405.971283 -90.900494 
L 405.971283 -114.002119 
L 405.971283 -114.002119 
L 394.811283 -113.942565 
L 383.651283 -118.494224 
L 372.491283 -133.089498 
L 361.331283 -141.84709 
L 350.171283 -152.793719 
L 339.011283 -165.153743 
L 327.851283 -176.937109 
L 316.691283 -190.829206 
L 305.531283 -203.468088 
L 294.371283 -208.032645 
L 283.211283 -208.861604 
L 272.051283 -209.318623 
L 260.891283 -218.270484 
L 249.731283 -234.053596 
L 238.571283 -251.253552 
L 227.411283 -263.169621 
L 216.251283 -270.438808 
L 205.091283 -273.891763 
L 193.931283 -271.033796 
L 182.771283 -265.212137 
L 171.611283 -257.192712 
L 160.451283 -249.586711 
L 149.291283 -250.356792 
L 138.131283 -259.83586 
L 126.971283 -267.926452 
L 115.811283 -269.726642 
L 104.651283 -266.840902 
L 93.491283 -260.824544 
L 82.331283 -254.412022 
L 71.171283 -242.265713 
L 60.011283 -235.08416 
L 48.851283 -233.367775 
z
" style="stroke: #ff7f0e; stroke-opacity: 0.2"/>
    </defs>
    <g clip-path="url(#p74261552b9)">
     <use xlink:href="#m159187f0cf" x="0" y="361.333136" style="fill: #ff7f0e; fill-opacity: 0.2; stroke: #ff7f0e; stroke-opacity: 0.2"/>
    </g>
   </g>
   <g id="matplotlib.axis_1">
    <g id="text_1">
     <text style="font: 10px 'Arial', sans-serif; text-anchor: middle" x="227.411283" y="296.533792" transform="rotate(-0 227.411283 296.533792)">Time</text>
    </g>
   </g>
   <g id="matplotlib.axis_2">
    <g id="ytick_1">
     <g id="line2d_1">
      <defs>
       <path id="m74a35276df" d="M 0 0 
L -3.5 0 
" style="stroke: #000000; stroke-width: 0.8"/>
      </defs>
      <g>
       <use xlink:href="#m74a35276df" x="48.851283" y="258.407469" style="stroke: #000000; stroke-width: 0.8"/>
      </g>
     </g>
     <g id="text_2">
      <text style="font: 10px 'Arial', sans-serif; text-anchor: end" x="41.851283" y="261.986376" transform="rotate(-0 41.851283 261.986376)">−0.4</text>
     </g>
    </g>
    <g id="ytick_2">
     <g id="line2d_2">
      <g>
       <use xlink:href="#m74a35276df" x="48.851283" y="210.273055" style="stroke: #000000; stroke-width: 0.8"/>
      </g>
     </g>
     <g id="text_3">
      <text style="font: 10px 'Arial', sans-serif; text-anchor: end" x="41.851283" y="213.851961" transform="rotate(-0 41.851283 213.851961)">−0.2</text>
     </g>
    </g>
    <g id="ytick_3">
     <g id="line2d_3">
      <g>
       <use xlink:href="#m74a35276df" x="48.851283" y="162.138641" style="stroke: #000000; stroke-width: 0.8"/>
      </g>
     </g>
     <g id="text_4">
      <text style="font: 10px 'Arial', sans-serif; text-anchor: end" x="41.851283" y="165.717547" transform="rotate(-0 41.851283 165.717547)">0.0</text>
     </g>
    </g>
    <g id="ytick_4">
     <g id="line2d_4">
      <g>
       <use xlink:href="#m74a35276df" x="48.851283" y="114.004227" style="stroke: #000000; stroke-width: 0.8"/>
      </g>
     </g>
     <g id="text_5">
      <text style="font: 10px 'Arial', sans-serif; text-anchor: end" x="41.851283" y="117.583133" transform="rotate(-0 41.851283 117.583133)">0.2</text>
     </g>
    </g>
    <g id="ytick_5">
     <g id="line2d_5">
      <g>
       <use xlink:href="#m74a35276df" x="48.851283" y="65.869813" style="stroke: #000000; stroke-width: 0.8"/>
      </g>
     </g>
     <g id="text_6">
      <text style="font: 10px 'Arial', sans-serif; text-anchor: end" x="41.851283" y="69.448719" transform="rotate(-0 41.851283 69.448719)">0.4</text>
     </g>
    </g>
    <g id="text_7">
     <text style="font: 10px 'Arial', sans-serif; text-anchor: middle" x="16.005971" y="152.31998" transform="rotate(-90 16.005971 152.31998)">Activity</text>
    </g>
   </g>
   <g id="line2d_6">
    <path d="M 48.851283 78.699812 
L 60.011283 83.121575 
L 71.171283 86.520829 
L 82.331283 85.910212 
L 93.491283 83.013836 
L 104.651283 77.192084 
L 115.811283 72.167508 
L 126.971283 71.935976 
L 138.131283 75.793429 
L 149.291283 77.968437 
L 160.451283 79.600796 
L 171.611283 83.124537 
L 182.771283 84.557441 
L 193.931283 78.635423 
L 205.091283 73.885679 
L 216.251283 76.982357 
L 227.411283 83.435039 
L 238.571283 94.042197 
L 249.731283 105.462705 
L 260.891283 111.0356 
L 272.051283 107.846701 
L 283.211283 105.20919 
L 294.371283 109.924452 
L 305.531283 118.090836 
L 316.691283 131.381152 
L 327.851283 147.130998 
L 339.011283 162.725652 
L 350.171283 174.235066 
L 361.331283 190.390093 
L 372.491283 202.954177 
L 383.651283 233.343433 
L 394.811283 254.151638 
L 405.971283 262.95705 
" clip-path="url(#p74261552b9)" style="fill: none; stroke: #1f77b4; stroke-width: 1.5; stroke-linecap: square"/>
   </g>
   <g id="line2d_7">
    <path d="M 48.851283 155.983361 
L 60.011283 154.784974 
L 71.171283 148.376346 
L 82.331283 137.243565 
L 93.491283 131.133941 
L 104.651283 125.74674 
L 115.811283 123.769312 
L 126.971283 125.714525 
L 138.131283 133.000132 
L 149.291283 140.619583 
L 160.451283 139.635809 
L 171.611283 131.289608 
L 182.771283 124.11473 
L 193.931283 118.848971 
L 205.091283 115.806823 
L 216.251283 119.000862 
L 227.411283 125.345969 
L 238.571283 135.398905 
L 249.731283 150.120495 
L 260.891283 163.919554 
L 272.051283 171.946713 
L 283.211283 172.07476 
L 294.371283 172.720268 
L 305.531283 176.84332 
L 316.691283 189.007384 
L 327.851283 202.124564 
L 339.011283 213.188217 
L 350.171283 224.022965 
L 361.331283 233.035486 
L 372.491283 240.746074 
L 383.651283 254.321026 
L 394.811283 258.708454 
L 405.971283 258.88183 
" clip-path="url(#p74261552b9)" style="fill: none; stroke: #ff7f0e; stroke-width: 1.5; stroke-linecap: square"/>
   </g>
   <g id="line2d_8">
    <path d="M 82.331283 285.37598 
L 82.331283 19.26398 
" clip-path="url(#p74261552b9)" style="fill: none; stroke-dasharray: 5.55,2.4; stroke-dashoffset: 0; stroke: #000000; stroke-opacity: 0.5; stroke-width: 1.5"/>
   </g>
   <g id="line2d_9">
    <path d="M 383.651283 285.37598 
L 383.651283 19.26398 
" clip-path="url(#p74261552b9)" style="fill: none; stroke-dasharray: 5.55,2.4; stroke-dashoffset: 0; stroke: #000000; stroke-opacity: 0.5; stroke-width: 1.5"/>
   </g>
   <g id="patch_3">
    <path d="M 48.851283 285.37598 
L 405.971283 285.37598 
" style="fill: none; stroke: #000000; stroke-width: 0.8; stroke-linejoin: miter; stroke-linecap: square"/>
   </g>
   <g id="text_8">
    <text style="font: 6.94px 'Arial', sans-serif" transform="translate(10.097767 321.385533) rotate(-35)">-0.1s Sampling</text>
   </g>
   <g id="text_9">
    <text style="font: 6.94px 'Arial', sans-serif" transform="translate(57.794497 311.430872) rotate(-35)">Sampling</text>
   </g>
   <g id="text_10">
    <text style="font: 6.94px 'Arial', sans-serif" transform="translate(319.037191 339.456682) rotate(-35)">Movement to Lateral Port</text>
   </g>
   <g id="text_11">
    <text style="font: 8.33px 'Arial', sans-serif; text-anchor: middle" x="227.411283" y="13.26398" transform="rotate(-0 227.411283 13.26398)">GP4_23_s6_L50_D250_ALM - Trace:11_GP4_23_s6_L50_D250_ALM (when: correct)</text>
   </g>
   <g id="legend_1">
    <g id="patch_4">
     <path d="M 133.696342 354.133136 
L 321.126224 354.133136 
Q 322.514224 354.133136 322.514224 352.745136 
L 322.514224 343.45638 
Q 322.514224 342.06838 321.126224 342.06838 
L 133.696342 342.06838 
Q 132.308342 342.06838 132.308342 343.45638 
L 132.308342 352.745136 
Q 132.308342 354.133136 133.696342 354.133136 
z
" style="fill: #ffffff; opacity: 0.8; stroke: #cccccc; stroke-linejoin: miter"/>
    </g>
    <g id="line2d_10">
     <path d="M 135.084342 347.467483 
L 142.024342 347.467483 
L 148.964342 347.467483 
" style="fill: none; stroke: #1f77b4; stroke-width: 1.5; stroke-linecap: square"/>
    </g>
    <g id="text_12">
     <text style="font: 6.94px 'Arial', sans-serif; text-anchor: start" x="154.516342" y="349.896483" transform="rotate(-0 154.516342 349.896483)">DecisionRight (78 pts)</text>
    </g>
    <g id="line2d_11">
     <path d="M 236.664255 347.467483 
L 243.604255 347.467483 
L 250.544255 347.467483 
" style="fill: none; stroke: #ff7f0e; stroke-width: 1.5; stroke-linecap: square"/>
    </g>
    <g id="text_13">
     <text style="font: 6.94px 'Arial', sans-serif; text-anchor: start" x="256.096255" y="349.896483" transform="rotate(-0 256.096255 349.896483)">DecisionLeft (82 pts)</text>
    </g>
   </g>
  </g>
 </g>
 <defs>
  <clipPath id="p74261552b9">
   <rect x="48.851283" y="19.26398" width="357.12" height="266.112"/>
  </clipPath>
 </defs>
</svg>
