<?xml version="1.0" encoding="utf-8" standalone="no"?>
<!DOCTYPE svg PUBLIC "-//W3C//DTD SVG 1.1//EN"
  "http://www.w3.org/Graphics/SVG/1.1/DTD/svg11.dtd">
<svg xmlns:xlink="http://www.w3.org/1999/xlink" width="413.171283pt" height="361.333136pt" viewBox="0 0 413.171283 361.333136" xmlns="http://www.w3.org/2000/svg" version="1.1">
 <metadata>
  <rdf:RDF xmlns:dc="http://purl.org/dc/elements/1.1/" xmlns:cc="http://creativecommons.org/ns#" xmlns:rdf="http://www.w3.org/1999/02/22-rdf-syntax-ns#">
   <cc:Work>
    <dc:type rdf:resource="http://purl.org/dc/dcmitype/StillImage"/>
    <dc:date>2025-12-29T04:07:01.767665</dc:date>
    <dc:format>image/svg+xml</dc:format>
    <dc:creator>
     <cc:Agent>
      <dc:title>Matplotlib v3.8.0, https://matplotlib.org/</dc:title>
     </cc:Agent>
    </dc:creator>
   </cc:Work>
  </rdf:RDF>
 </metadata>
 <defs>
  <style type="text/css">*{stroke-linejoin: round; stroke-linecap: butt}</style>
 </defs>
 <g id="figure_1">
  <g id="patch_1">
   <path d="M 0 361.333136 
L 413.171283 361.333136 
L 413.171283 -0 
L 0 -0 
z
" style="fill: #ffffff"/>
  </g>
  <g id="axes_1">
   <g id="patch_2">
    <path d="M 48.851283 285.37598 
L 405.971283 285.37598 
L 405.971283 19.26398 
L 48.851283 19.26398 
z
" style="fill: #ffffff"/>
   </g>
   <g id="PolyCollection_1">
    <defs>
     <path id="me11f8fa587" d="M 48.851283 -217.938803 
L 48.851283 -168.870907 
L 60.011283 -166.545743 
L 71.171283 -163.842163 
L 82.331283 -160.57334 
L 93.491283 -160.065375 
L 104.651283 -166.080016 
L 115.811283 -177.793112 
L 126.971283 -184.582977 
L 138.131283 -185.771959 
L 149.291283 -193.241892 
L 160.451283 -208.006676 
L 171.611283 -220.582476 
L 182.771283 -228.50189 
L 193.931283 -242.714813 
L 205.091283 -263.638021 
L 216.251283 -275.290244 
L 227.411283 -268.894882 
L 238.571283 -256.349705 
L 249.731283 -253.062072 
L 260.891283 -257.1198 
L 272.051283 -255.655419 
L 283.211283 -242.618733 
L 294.371283 -225.636869 
L 305.531283 -214.02326 
L 316.691283 -204.490038 
L 327.851283 -190.839471 
L 339.011283 -173.320212 
L 350.171283 -161.565933 
L 361.331283 -151.933805 
L 372.491283 -140.177823 
L 383.651283 -109.984278 
L 394.811283 -90.402673 
L 405.971283 -88.053156 
L 405.971283 -112.700483 
L 405.971283 -112.700483 
L 394.811283 -113.30233 
L 383.651283 -132.878219 
L 372.491283 -166.946242 
L 361.331283 -181.11646 
L 350.171283 -193.050637 
L 339.011283 -205.328506 
L 327.851283 -222.855525 
L 316.691283 -238.606811 
L 305.531283 -251.509077 
L 294.371283 -265.764746 
L 283.211283 -284.260948 
L 272.051283 -298.50938 
L 260.891283 -299.02748 
L 249.731283 -295.782383 
L 238.571283 -303.003604 
L 227.411283 -320.156108 
L 216.251283 -329.973156 
L 205.091283 -319.993382 
L 193.931283 -297.574803 
L 182.771283 -282.44243 
L 171.611283 -275.750701 
L 160.451283 -262.846267 
L 149.291283 -245.247381 
L 138.131283 -235.308994 
L 126.971283 -232.383269 
L 115.811283 -222.645584 
L 104.651283 -208.751732 
L 93.491283 -203.096438 
L 82.331283 -204.817632 
L 71.171283 -210.208615 
L 60.011283 -214.698159 
L 48.851283 -217.938803 
z
" style="stroke: #1f77b4; stroke-opacity: 0.2"/>
    </defs>
    <g clip-path="url(#pe4362ddf19)">
     <use xlink:href="#me11f8fa587" x="0" y="361.333136" style="fill: #1f77b4; fill-opacity: 0.2; stroke: #1f77b4; stroke-opacity: 0.2"/>
    </g>
   </g>
   <g id="PolyCollection_2">
    <defs>
     <path id="m5a8193ee03" d="M 48.851283 -272.596701 
L 48.851283 -218.748628 
L 60.011283 -207.76388 
L 71.171283 -205.365588 
L 82.331283 -200.33029 
L 93.491283 -199.327381 
L 104.651283 -203.448666 
L 115.811283 -218.271853 
L 126.971283 -233.741589 
L 138.131283 -237.911736 
L 149.291283 -240.453433 
L 160.451283 -258.48056 
L 171.611283 -269.5184 
L 182.771283 -266.940384 
L 193.931283 -263.985423 
L 205.091283 -271.908969 
L 216.251283 -284.570217 
L 227.411283 -283.647949 
L 238.571283 -268.8693 
L 249.731283 -252.894329 
L 260.891283 -246.408328 
L 272.051283 -238.886061 
L 283.211283 -228.632693 
L 294.371283 -219.024204 
L 305.531283 -204.745446 
L 316.691283 -184.324048 
L 327.851283 -170.905328 
L 339.011283 -159.584791 
L 350.171283 -145.896786 
L 361.331283 -132.332783 
L 372.491283 -123.908591 
L 383.651283 -113.674241 
L 394.811283 -105.693773 
L 405.971283 -107.398808 
L 405.971283 -128.310384 
L 405.971283 -128.310384 
L 394.811283 -128.129566 
L 383.651283 -134.874814 
L 372.491283 -145.967737 
L 361.331283 -156.225341 
L 350.171283 -173.233004 
L 339.011283 -190.343352 
L 327.851283 -204.404688 
L 316.691283 -219.26671 
L 305.531283 -238.723608 
L 294.371283 -255.65656 
L 283.211283 -267.289748 
L 272.051283 -276.502379 
L 260.891283 -284.388177 
L 249.731283 -292.627735 
L 238.571283 -310.561828 
L 227.411283 -327.194773 
L 216.251283 -329.536931 
L 205.091283 -319.626907 
L 193.931283 -313.63242 
L 182.771283 -318.379783 
L 171.611283 -324.386262 
L 160.451283 -313.55028 
L 149.291283 -292.884366 
L 138.131283 -289.202852 
L 126.971283 -286.3316 
L 115.811283 -270.465219 
L 104.651283 -255.112715 
L 93.491283 -249.980035 
L 82.331283 -249.37522 
L 71.171283 -253.836556 
L 60.011283 -259.035333 
L 48.851283 -272.596701 
z
" style="stroke: #ff7f0e; stroke-opacity: 0.2"/>
    </defs>
    <g clip-path="url(#pe4362ddf19)">
     <use xlink:href="#m5a8193ee03" x="0" y="361.333136" style="fill: #ff7f0e; fill-opacity: 0.2; stroke: #ff7f0e; stroke-opacity: 0.2"/>
    </g>
   </g>
   <g id="matplotlib.axis_1">
    <g id="text_1">
     <text style="font: 10px 'Arial', sans-serif; text-anchor: middle" x="227.411283" y="296.533792" transform="rotate(-0 227.411283 296.533792)">Time</text>
    </g>
   </g>
   <g id="matplotlib.axis_2">
    <g id="ytick_1">
     <g id="line2d_1">
      <defs>
       <path id="m76f76ee141" d="M 0 0 
L -3.5 0 
" style="stroke: #000000; stroke-width: 0.8"/>
      </defs>
      <g>
       <use xlink:href="#m76f76ee141" x="48.851283" y="276.708165" style="stroke: #000000; stroke-width: 0.8"/>
      </g>
     </g>
     <g id="text_2">
      <text style="font: 10px 'Arial', sans-serif; text-anchor: end" x="41.851283" y="280.287071" transform="rotate(-0 41.851283 280.287071)">−0.6</text>
     </g>
    </g>
    <g id="ytick_2">
     <g id="line2d_2">
      <g>
       <use xlink:href="#m76f76ee141" x="48.851283" y="227.274566" style="stroke: #000000; stroke-width: 0.8"/>
      </g>
     </g>
     <g id="text_3">
      <text style="font: 10px 'Arial', sans-serif; text-anchor: end" x="41.851283" y="230.853473" transform="rotate(-0 41.851283 230.853473)">−0.4</text>
     </g>
    </g>
    <g id="ytick_3">
     <g id="line2d_3">
      <g>
       <use xlink:href="#m76f76ee141" x="48.851283" y="177.840968" style="stroke: #000000; stroke-width: 0.8"/>
      </g>
     </g>
     <g id="text_4">
      <text style="font: 10px 'Arial', sans-serif; text-anchor: end" x="41.851283" y="181.419874" transform="rotate(-0 41.851283 181.419874)">−0.2</text>
     </g>
    </g>
    <g id="ytick_4">
     <g id="line2d_4">
      <g>
       <use xlink:href="#m76f76ee141" x="48.851283" y="128.40737" style="stroke: #000000; stroke-width: 0.8"/>
      </g>
     </g>
     <g id="text_5">
      <text style="font: 10px 'Arial', sans-serif; text-anchor: end" x="41.851283" y="131.986276" transform="rotate(-0 41.851283 131.986276)">0.0</text>
     </g>
    </g>
    <g id="ytick_5">
     <g id="line2d_5">
      <g>
       <use xlink:href="#m76f76ee141" x="48.851283" y="78.973772" style="stroke: #000000; stroke-width: 0.8"/>
      </g>
     </g>
     <g id="text_6">
      <text style="font: 10px 'Arial', sans-serif; text-anchor: end" x="41.851283" y="82.552678" transform="rotate(-0 41.851283 82.552678)">0.2</text>
     </g>
    </g>
    <g id="ytick_6">
     <g id="line2d_6">
      <g>
       <use xlink:href="#m76f76ee141" x="48.851283" y="29.540174" style="stroke: #000000; stroke-width: 0.8"/>
      </g>
     </g>
     <g id="text_7">
      <text style="font: 10px 'Arial', sans-serif; text-anchor: end" x="41.851283" y="33.11908" transform="rotate(-0 41.851283 33.11908)">0.4</text>
     </g>
    </g>
    <g id="text_8">
     <text style="font: 10px 'Arial', sans-serif; text-anchor: middle" x="16.005971" y="152.31998" transform="rotate(-90 16.005971 152.31998)">Activity</text>
    </g>
   </g>
   <g id="line2d_7">
    <path d="M 48.851283 167.928282 
L 60.011283 170.711184 
L 71.171283 174.307748 
L 82.331283 178.637651 
L 93.491283 179.752231 
L 104.651283 173.917263 
L 115.811283 161.113788 
L 126.971283 152.850013 
L 138.131283 150.792659 
L 149.291283 142.0885 
L 160.451283 125.906664 
L 171.611283 113.166547 
L 182.771283 105.860975 
L 193.931283 91.188327 
L 205.091283 69.517434 
L 216.251283 58.701436 
L 227.411283 66.807641 
L 238.571283 81.656482 
L 249.731283 86.910908 
L 260.891283 83.259496 
L 272.051283 84.250737 
L 283.211283 97.893297 
L 294.371283 115.632328 
L 305.531283 128.566968 
L 316.691283 139.784712 
L 327.851283 154.485638 
L 339.011283 172.008777 
L 350.171283 184.024851 
L 361.331283 194.808004 
L 372.491283 207.771103 
L 383.651283 239.901888 
L 394.811283 259.480635 
L 405.971283 260.956316 
" clip-path="url(#pe4362ddf19)" style="fill: none; stroke: #1f77b4; stroke-width: 1.5; stroke-linecap: square"/>
   </g>
   <g id="line2d_8">
    <path d="M 48.851283 115.660472 
L 60.011283 127.933529 
L 71.171283 131.732064 
L 82.331283 136.480381 
L 93.491283 136.679427 
L 104.651283 132.052445 
L 115.811283 116.964599 
L 126.971283 101.296542 
L 138.131283 97.775843 
L 149.291283 94.664236 
L 160.451283 75.317715 
L 171.611283 64.380805 
L 182.771283 68.673052 
L 193.931283 72.524213 
L 205.091283 65.565198 
L 216.251283 54.279562 
L 227.411283 55.911775 
L 238.571283 71.617572 
L 249.731283 88.572103 
L 260.891283 95.934883 
L 272.051283 103.638915 
L 283.211283 113.371915 
L 294.371283 123.992754 
L 305.531283 139.59861 
L 316.691283 159.537757 
L 327.851283 173.678127 
L 339.011283 186.369065 
L 350.171283 201.768241 
L 361.331283 217.054074 
L 372.491283 226.394972 
L 383.651283 237.058608 
L 394.811283 244.421466 
L 405.971283 243.478536 
" clip-path="url(#pe4362ddf19)" style="fill: none; stroke: #ff7f0e; stroke-width: 1.5; stroke-linecap: square"/>
   </g>
   <g id="line2d_9">
    <path d="M 82.331283 285.37598 
L 82.331283 19.26398 
" clip-path="url(#pe4362ddf19)" style="fill: none; stroke-dasharray: 5.55,2.4; stroke-dashoffset: 0; stroke: #000000; stroke-opacity: 0.5; stroke-width: 1.5"/>
   </g>
   <g id="line2d_10">
    <path d="M 383.651283 285.37598 
L 383.651283 19.26398 
" clip-path="url(#pe4362ddf19)" style="fill: none; stroke-dasharray: 5.55,2.4; stroke-dashoffset: 0; stroke: #000000; stroke-opacity: 0.5; stroke-width: 1.5"/>
   </g>
   <g id="patch_3">
    <path d="M 48.851283 285.37598 
L 405.971283 285.37598 
" style="fill: none; stroke: #000000; stroke-width: 0.8; stroke-linejoin: miter; stroke-linecap: square"/>
   </g>
   <g id="text_9">
    <text style="font: 6.94px 'Arial', sans-serif" transform="translate(10.097767 321.385533) rotate(-35)">-0.1s Sampling</text>
   </g>
   <g id="text_10">
    <text style="font: 6.94px 'Arial', sans-serif" transform="translate(57.794497 311.430872) rotate(-35)">Sampling</text>
   </g>
   <g id="text_11">
    <text style="font: 6.94px 'Arial', sans-serif" transform="translate(319.037191 339.456682) rotate(-35)">Movement to Lateral Port</text>
   </g>
   <g id="text_12">
    <text style="font: 8.33px 'Arial', sans-serif; text-anchor: middle" x="227.411283" y="13.26398" transform="rotate(-0 227.411283 13.26398)">GP4_23_s6_L50_D250_ALM - Trace:162_GP4_23_s6_L50_D250_ALM (when: correct)</text>
   </g>
   <g id="legend_1">
    <g id="patch_4">
     <path d="M 133.696342 354.133136 
L 321.126224 354.133136 
Q 322.514224 354.133136 322.514224 352.745136 
L 322.514224 343.45638 
Q 322.514224 342.06838 321.126224 342.06838 
L 133.696342 342.06838 
Q 132.308342 342.06838 132.308342 343.45638 
L 132.308342 352.745136 
Q 132.308342 354.133136 133.696342 354.133136 
z
" style="fill: #ffffff; opacity: 0.8; stroke: #cccccc; stroke-linejoin: miter"/>
    </g>
    <g id="line2d_11">
     <path d="M 135.084342 347.467483 
L 142.024342 347.467483 
L 148.964342 347.467483 
" style="fill: none; stroke: #1f77b4; stroke-width: 1.5; stroke-linecap: square"/>
    </g>
    <g id="text_13">
     <text style="font: 6.94px 'Arial', sans-serif; text-anchor: start" x="154.516342" y="349.896483" transform="rotate(-0 154.516342 349.896483)">DecisionRight (78 pts)</text>
    </g>
    <g id="line2d_12">
     <path d="M 236.664255 347.467483 
L 243.604255 347.467483 
L 250.544255 347.467483 
" style="fill: none; stroke: #ff7f0e; stroke-width: 1.5; stroke-linecap: square"/>
    </g>
    <g id="text_14">
     <text style="font: 6.94px 'Arial', sans-serif; text-anchor: start" x="256.096255" y="349.896483" transform="rotate(-0 256.096255 349.896483)">DecisionLeft (82 pts)</text>
    </g>
   </g>
  </g>
 </g>
 <defs>
  <clipPath id="pe4362ddf19">
   <rect x="48.851283" y="19.26398" width="357.12" height="266.112"/>
  </clipPath>
 </defs>
</svg>
