<?xml version="1.0" encoding="utf-8" standalone="no"?>
<!DOCTYPE svg PUBLIC "-//W3C//DTD SVG 1.1//EN"
  "http://www.w3.org/Graphics/SVG/1.1/DTD/svg11.dtd">
<svg xmlns:xlink="http://www.w3.org/1999/xlink" width="413.171283pt" height="361.333136pt" viewBox="0 0 413.171283 361.333136" xmlns="http://www.w3.org/2000/svg" version="1.1">
 <metadata>
  <rdf:RDF xmlns:dc="http://purl.org/dc/elements/1.1/" xmlns:cc="http://creativecommons.org/ns#" xmlns:rdf="http://www.w3.org/1999/02/22-rdf-syntax-ns#">
   <cc:Work>
    <dc:type rdf:resource="http://purl.org/dc/dcmitype/StillImage"/>
    <dc:date>2025-12-29T04:07:03.037688</dc:date>
    <dc:format>image/svg+xml</dc:format>
    <dc:creator>
     <cc:Agent>
      <dc:title>Matplotlib v3.8.0, https://matplotlib.org/</dc:title>
     </cc:Agent>
    </dc:creator>
   </cc:Work>
  </rdf:RDF>
 </metadata>
 <defs>
  <style type="text/css">*{stroke-linejoin: round; stroke-linecap: butt}</style>
 </defs>
 <g id="figure_1">
  <g id="patch_1">
   <path d="M 0 361.333136 
L 413.171283 361.333136 
L 413.171283 -0 
L 0 -0 
z
" style="fill: #ffffff"/>
  </g>
  <g id="axes_1">
   <g id="patch_2">
    <path d="M 48.851283 285.37598 
L 405.971283 285.37598 
L 405.971283 19.26398 
L 48.851283 19.26398 
z
" style="fill: #ffffff"/>
   </g>
   <g id="PolyCollection_1">
    <defs>
     <path id="m949d934899" d="M 48.851283 -139.515487 
L 48.851283 -104.230607 
L 60.011283 -106.707149 
L 71.171283 -114.362317 
L 82.331283 -116.755149 
L 93.491283 -117.648314 
L 104.651283 -119.165892 
L 115.811283 -126.496441 
L 126.971283 -137.588897 
L 138.131283 -146.067457 
L 149.291283 -155.038141 
L 160.451283 -161.890068 
L 171.611283 -170.239061 
L 182.771283 -182.771944 
L 193.931283 -194.774649 
L 205.091283 -206.093658 
L 216.251283 -216.90682 
L 227.411283 -229.591389 
L 238.571283 -243.971024 
L 249.731283 -253.994878 
L 260.891283 -261.141246 
L 272.051283 -264.8402 
L 283.211283 -266.606553 
L 294.371283 -266.042233 
L 305.531283 -266.584281 
L 316.691283 -260.369396 
L 327.851283 -242.632535 
L 339.011283 -219.338731 
L 350.171283 -188.096998 
L 361.331283 -157.181339 
L 372.491283 -135.507455 
L 383.651283 -104.460815 
L 394.811283 -91.277344 
L 405.971283 -88.053156 
L 405.971283 -105.744228 
L 405.971283 -105.744228 
L 394.811283 -110.605213 
L 383.651283 -125.777769 
L 372.491283 -160.58437 
L 361.331283 -185.159973 
L 350.171283 -218.041315 
L 339.011283 -250.448556 
L 327.851283 -273.946118 
L 316.691283 -292.949809 
L 305.531283 -300.758437 
L 294.371283 -301.19292 
L 283.211283 -302.069749 
L 272.051283 -300.917664 
L 260.891283 -296.64428 
L 249.731283 -287.733079 
L 238.571283 -277.239688 
L 227.411283 -263.754438 
L 216.251283 -252.190609 
L 205.091283 -242.872194 
L 193.931283 -231.983224 
L 182.771283 -219.118517 
L 171.611283 -204.44122 
L 160.451283 -194.96598 
L 149.291283 -188.283669 
L 138.131283 -179.898031 
L 126.971283 -171.678234 
L 115.811283 -160.181648 
L 104.651283 -153.033974 
L 93.491283 -151.318869 
L 82.331283 -150.380823 
L 71.171283 -147.283698 
L 60.011283 -140.301424 
L 48.851283 -139.515487 
z
" style="stroke: #1f77b4; stroke-opacity: 0.2"/>
    </defs>
    <g clip-path="url(#pe69226365d)">
     <use xlink:href="#m949d934899" x="0" y="361.333136" style="fill: #1f77b4; fill-opacity: 0.2; stroke: #1f77b4; stroke-opacity: 0.2"/>
    </g>
   </g>
   <g id="PolyCollection_2">
    <defs>
     <path id="m562317993c" d="M 48.851283 -155.267406 
L 48.851283 -122.834202 
L 60.011283 -114.850287 
L 71.171283 -111.621059 
L 82.331283 -122.464977 
L 93.491283 -131.140242 
L 104.651283 -142.317972 
L 115.811283 -151.991234 
L 126.971283 -159.59183 
L 138.131283 -165.194514 
L 149.291283 -173.983314 
L 160.451283 -191.287112 
L 171.611283 -211.221146 
L 182.771283 -223.88219 
L 193.931283 -235.395999 
L 205.091283 -251.943789 
L 216.251283 -269.144417 
L 227.411283 -280.336139 
L 238.571283 -285.662545 
L 249.731283 -289.866837 
L 260.891283 -293.924026 
L 272.051283 -292.907085 
L 283.211283 -278.359091 
L 294.371283 -261.919457 
L 305.531283 -246.973341 
L 316.691283 -227.873773 
L 327.851283 -209.46307 
L 339.011283 -189.177466 
L 350.171283 -165.503056 
L 361.331283 -142.041065 
L 372.491283 -124.008719 
L 383.651283 -107.585261 
L 394.811283 -104.518607 
L 405.971283 -108.952995 
L 405.971283 -127.768999 
L 405.971283 -127.768999 
L 394.811283 -122.905909 
L 383.651283 -126.242203 
L 372.491283 -144.357261 
L 361.331283 -164.480246 
L 350.171283 -193.360885 
L 339.011283 -222.390652 
L 327.851283 -243.580103 
L 316.691283 -262.513729 
L 305.531283 -282.625948 
L 294.371283 -298.82634 
L 283.211283 -316.016432 
L 272.051283 -329.40166 
L 260.891283 -329.973156 
L 249.731283 -327.709522 
L 238.571283 -325.342787 
L 227.411283 -317.899995 
L 216.251283 -304.038199 
L 205.091283 -284.689965 
L 193.931283 -266.761209 
L 182.771283 -255.087573 
L 171.611283 -243.133811 
L 160.451283 -222.365441 
L 149.291283 -203.248786 
L 138.131283 -193.790071 
L 126.971283 -189.778989 
L 115.811283 -183.089669 
L 104.651283 -173.418964 
L 93.491283 -163.178641 
L 82.331283 -155.49024 
L 71.171283 -144.333788 
L 60.011283 -146.63286 
L 48.851283 -155.267406 
z
" style="stroke: #ff7f0e; stroke-opacity: 0.2"/>
    </defs>
    <g clip-path="url(#pe69226365d)">
     <use xlink:href="#m562317993c" x="0" y="361.333136" style="fill: #ff7f0e; fill-opacity: 0.2; stroke: #ff7f0e; stroke-opacity: 0.2"/>
    </g>
   </g>
   <g id="matplotlib.axis_1">
    <g id="text_1">
     <text style="font: 10px 'Arial', sans-serif; text-anchor: middle" x="227.411283" y="296.533792" transform="rotate(-0 227.411283 296.533792)">Time</text>
    </g>
   </g>
   <g id="matplotlib.axis_2">
    <g id="ytick_1">
     <g id="line2d_1">
      <defs>
       <path id="m79ac8a5623" d="M 0 0 
L -3.5 0 
" style="stroke: #000000; stroke-width: 0.8"/>
      </defs>
      <g>
       <use xlink:href="#m79ac8a5623" x="48.851283" y="254.294875" style="stroke: #000000; stroke-width: 0.8"/>
      </g>
     </g>
     <g id="text_2">
      <text style="font: 10px 'Arial', sans-serif; text-anchor: end" x="41.851283" y="257.873781" transform="rotate(-0 41.851283 257.873781)">−0.4</text>
     </g>
    </g>
    <g id="ytick_2">
     <g id="line2d_2">
      <g>
       <use xlink:href="#m79ac8a5623" x="48.851283" y="221.802164" style="stroke: #000000; stroke-width: 0.8"/>
      </g>
     </g>
     <g id="text_3">
      <text style="font: 10px 'Arial', sans-serif; text-anchor: end" x="41.851283" y="225.38107" transform="rotate(-0 41.851283 225.38107)">−0.2</text>
     </g>
    </g>
    <g id="ytick_3">
     <g id="line2d_3">
      <g>
       <use xlink:href="#m79ac8a5623" x="48.851283" y="189.309454" style="stroke: #000000; stroke-width: 0.8"/>
      </g>
     </g>
     <g id="text_4">
      <text style="font: 10px 'Arial', sans-serif; text-anchor: end" x="41.851283" y="192.88836" transform="rotate(-0 41.851283 192.88836)">0.0</text>
     </g>
    </g>
    <g id="ytick_4">
     <g id="line2d_4">
      <g>
       <use xlink:href="#m79ac8a5623" x="48.851283" y="156.816743" style="stroke: #000000; stroke-width: 0.8"/>
      </g>
     </g>
     <g id="text_5">
      <text style="font: 10px 'Arial', sans-serif; text-anchor: end" x="41.851283" y="160.395649" transform="rotate(-0 41.851283 160.395649)">0.2</text>
     </g>
    </g>
    <g id="ytick_5">
     <g id="line2d_5">
      <g>
       <use xlink:href="#m79ac8a5623" x="48.851283" y="124.324032" style="stroke: #000000; stroke-width: 0.8"/>
      </g>
     </g>
     <g id="text_6">
      <text style="font: 10px 'Arial', sans-serif; text-anchor: end" x="41.851283" y="127.902938" transform="rotate(-0 41.851283 127.902938)">0.4</text>
     </g>
    </g>
    <g id="ytick_6">
     <g id="line2d_6">
      <g>
       <use xlink:href="#m79ac8a5623" x="48.851283" y="91.831322" style="stroke: #000000; stroke-width: 0.8"/>
      </g>
     </g>
     <g id="text_7">
      <text style="font: 10px 'Arial', sans-serif; text-anchor: end" x="41.851283" y="95.410228" transform="rotate(-0 41.851283 95.410228)">0.6</text>
     </g>
    </g>
    <g id="ytick_7">
     <g id="line2d_7">
      <g>
       <use xlink:href="#m79ac8a5623" x="48.851283" y="59.338611" style="stroke: #000000; stroke-width: 0.8"/>
      </g>
     </g>
     <g id="text_8">
      <text style="font: 10px 'Arial', sans-serif; text-anchor: end" x="41.851283" y="62.917517" transform="rotate(-0 41.851283 62.917517)">0.8</text>
     </g>
    </g>
    <g id="ytick_8">
     <g id="line2d_8">
      <g>
       <use xlink:href="#m79ac8a5623" x="48.851283" y="26.8459" style="stroke: #000000; stroke-width: 0.8"/>
      </g>
     </g>
     <g id="text_9">
      <text style="font: 10px 'Arial', sans-serif; text-anchor: end" x="41.851283" y="30.424807" transform="rotate(-0 41.851283 30.424807)">1.0</text>
     </g>
    </g>
    <g id="text_10">
     <text style="font: 10px 'Arial', sans-serif; text-anchor: middle" x="16.005971" y="152.31998" transform="rotate(-90 16.005971 152.31998)">Activity</text>
    </g>
   </g>
   <g id="line2d_9">
    <path d="M 48.851283 239.460088 
L 60.011283 237.828849 
L 71.171283 230.510129 
L 82.331283 227.76515 
L 93.491283 226.849543 
L 104.651283 225.233203 
L 115.811283 217.994091 
L 126.971283 206.699571 
L 138.131283 198.350392 
L 149.291283 189.67223 
L 160.451283 182.905112 
L 171.611283 173.992995 
L 182.771283 160.387905 
L 193.931283 147.9542 
L 205.091283 136.85021 
L 216.251283 126.784421 
L 227.411283 114.660223 
L 238.571283 100.72778 
L 249.731283 90.469157 
L 260.891283 82.440373 
L 272.051283 78.454204 
L 283.211283 76.994985 
L 294.371283 77.71556 
L 305.531283 77.661777 
L 316.691283 84.673533 
L 327.851283 103.043812 
L 339.011283 126.439492 
L 350.171283 158.26398 
L 361.331283 190.16248 
L 372.491283 213.287224 
L 383.651283 246.213844 
L 394.811283 260.391858 
L 405.971283 264.434444 
" clip-path="url(#pe69226365d)" style="fill: none; stroke: #1f77b4; stroke-width: 1.5; stroke-linecap: square"/>
   </g>
   <g id="line2d_10">
    <path d="M 48.851283 222.282332 
L 60.011283 230.591563 
L 71.171283 233.355712 
L 82.331283 222.355528 
L 93.491283 214.173695 
L 104.651283 203.464667 
L 115.811283 193.792685 
L 126.971283 186.647726 
L 138.131283 181.840843 
L 149.291283 172.717085 
L 160.451283 154.506859 
L 171.611283 134.155656 
L 182.771283 121.848254 
L 193.931283 110.254532 
L 205.091283 93.016259 
L 216.251283 74.741828 
L 227.411283 62.215069 
L 238.571283 55.83047 
L 249.731283 52.544956 
L 260.891283 49.384545 
L 272.051283 50.178763 
L 283.211283 64.145375 
L 294.371283 80.960238 
L 305.531283 96.533491 
L 316.691283 116.139385 
L 327.851283 134.81155 
L 339.011283 155.549077 
L 350.171283 181.901166 
L 361.331283 208.07248 
L 372.491283 227.150146 
L 383.651283 244.419404 
L 394.811283 247.620878 
L 405.971283 242.972139 
" clip-path="url(#pe69226365d)" style="fill: none; stroke: #ff7f0e; stroke-width: 1.5; stroke-linecap: square"/>
   </g>
   <g id="line2d_11">
    <path d="M 82.331283 285.37598 
L 82.331283 19.26398 
" clip-path="url(#pe69226365d)" style="fill: none; stroke-dasharray: 5.55,2.4; stroke-dashoffset: 0; stroke: #000000; stroke-opacity: 0.5; stroke-width: 1.5"/>
   </g>
   <g id="line2d_12">
    <path d="M 383.651283 285.37598 
L 383.651283 19.26398 
" clip-path="url(#pe69226365d)" style="fill: none; stroke-dasharray: 5.55,2.4; stroke-dashoffset: 0; stroke: #000000; stroke-opacity: 0.5; stroke-width: 1.5"/>
   </g>
   <g id="patch_3">
    <path d="M 48.851283 285.37598 
L 405.971283 285.37598 
" style="fill: none; stroke: #000000; stroke-width: 0.8; stroke-linejoin: miter; stroke-linecap: square"/>
   </g>
   <g id="text_11">
    <text style="font: 6.94px 'Arial', sans-serif" transform="translate(10.097767 321.385533) rotate(-35)">-0.1s Sampling</text>
   </g>
   <g id="text_12">
    <text style="font: 6.94px 'Arial', sans-serif" transform="translate(57.794497 311.430872) rotate(-35)">Sampling</text>
   </g>
   <g id="text_13">
    <text style="font: 6.94px 'Arial', sans-serif" transform="translate(319.037191 339.456682) rotate(-35)">Movement to Lateral Port</text>
   </g>
   <g id="text_14">
    <text style="font: 8.33px 'Arial', sans-serif; text-anchor: middle" x="227.411283" y="13.26398" transform="rotate(-0 227.411283 13.26398)">GP4_23_s6_L50_D250_ALM - Trace:200_GP4_23_s6_L50_D250_ALM (when: correct)</text>
   </g>
   <g id="legend_1">
    <g id="patch_4">
     <path d="M 133.696342 354.133136 
L 321.126224 354.133136 
Q 322.514224 354.133136 322.514224 352.745136 
L 322.514224 343.45638 
Q 322.514224 342.06838 321.126224 342.06838 
L 133.696342 342.06838 
Q 132.308342 342.06838 132.308342 343.45638 
L 132.308342 352.745136 
Q 132.308342 354.133136 133.696342 354.133136 
z
" style="fill: #ffffff; opacity: 0.8; stroke: #cccccc; stroke-linejoin: miter"/>
    </g>
    <g id="line2d_13">
     <path d="M 135.084342 347.467483 
L 142.024342 347.467483 
L 148.964342 347.467483 
" style="fill: none; stroke: #1f77b4; stroke-width: 1.5; stroke-linecap: square"/>
    </g>
    <g id="text_15">
     <text style="font: 6.94px 'Arial', sans-serif; text-anchor: start" x="154.516342" y="349.896483" transform="rotate(-0 154.516342 349.896483)">DecisionRight (78 pts)</text>
    </g>
    <g id="line2d_14">
     <path d="M 236.664255 347.467483 
L 243.604255 347.467483 
L 250.544255 347.467483 
" style="fill: none; stroke: #ff7f0e; stroke-width: 1.5; stroke-linecap: square"/>
    </g>
    <g id="text_16">
     <text style="font: 6.94px 'Arial', sans-serif; text-anchor: start" x="256.096255" y="349.896483" transform="rotate(-0 256.096255 349.896483)">DecisionLeft (82 pts)</text>
    </g>
   </g>
  </g>
 </g>
 <defs>
  <clipPath id="pe69226365d">
   <rect x="48.851283" y="19.26398" width="357.12" height="266.112"/>
  </clipPath>
 </defs>
</svg>
