<?xml version="1.0" encoding="utf-8" standalone="no"?>
<!DOCTYPE svg PUBLIC "-//W3C//DTD SVG 1.1//EN"
  "http://www.w3.org/Graphics/SVG/1.1/DTD/svg11.dtd">
<svg xmlns:xlink="http://www.w3.org/1999/xlink" width="413.171283pt" height="361.333136pt" viewBox="0 0 413.171283 361.333136" xmlns="http://www.w3.org/2000/svg" version="1.1">
 <metadata>
  <rdf:RDF xmlns:dc="http://purl.org/dc/elements/1.1/" xmlns:cc="http://creativecommons.org/ns#" xmlns:rdf="http://www.w3.org/1999/02/22-rdf-syntax-ns#">
   <cc:Work>
    <dc:type rdf:resource="http://purl.org/dc/dcmitype/StillImage"/>
    <dc:date>2025-12-29T04:07:03.396411</dc:date>
    <dc:format>image/svg+xml</dc:format>
    <dc:creator>
     <cc:Agent>
      <dc:title>Matplotlib v3.8.0, https://matplotlib.org/</dc:title>
     </cc:Agent>
    </dc:creator>
   </cc:Work>
  </rdf:RDF>
 </metadata>
 <defs>
  <style type="text/css">*{stroke-linejoin: round; stroke-linecap: butt}</style>
 </defs>
 <g id="figure_1">
  <g id="patch_1">
   <path d="M 0 361.333136 
L 413.171283 361.333136 
L 413.171283 -0 
L 0 -0 
z
" style="fill: #ffffff"/>
  </g>
  <g id="axes_1">
   <g id="patch_2">
    <path d="M 48.851283 285.37598 
L 405.971283 285.37598 
L 405.971283 19.26398 
L 48.851283 19.26398 
z
" style="fill: #ffffff"/>
   </g>
   <g id="PolyCollection_1">
    <defs>
     <path id="m7d11410394" d="M 48.851283 -111.522329 
L 48.851283 -97.432268 
L 60.011283 -93.387729 
L 71.171283 -89.656019 
L 82.331283 -89.168328 
L 93.491283 -91.10448 
L 104.651283 -93.579256 
L 115.811283 -98.360124 
L 126.971283 -102.825458 
L 138.131283 -106.572335 
L 149.291283 -113.436202 
L 160.451283 -124.628754 
L 171.611283 -139.872267 
L 182.771283 -156.924124 
L 193.931283 -175.794272 
L 205.091283 -191.084642 
L 216.251283 -202.843278 
L 227.411283 -212.96695 
L 238.571283 -224.42069 
L 249.731283 -239.353748 
L 260.891283 -254.970772 
L 272.051283 -267.715569 
L 283.211283 -275.790938 
L 294.371283 -280.434405 
L 305.531283 -285.415506 
L 316.691283 -285.112892 
L 327.851283 -281.701746 
L 339.011283 -274.012589 
L 350.171283 -260.314426 
L 361.331283 -240.196808 
L 372.491283 -222.78913 
L 383.651283 -191.927459 
L 394.811283 -176.076967 
L 405.971283 -172.950363 
L 405.971283 -190.455105 
L 405.971283 -190.455105 
L 394.811283 -194.51067 
L 383.651283 -212.663995 
L 372.491283 -248.294424 
L 361.331283 -268.636252 
L 350.171283 -291.113858 
L 339.011283 -305.487404 
L 327.851283 -314.693852 
L 316.691283 -319.989286 
L 305.531283 -321.805975 
L 294.371283 -316.895932 
L 283.211283 -312.027052 
L 272.051283 -303.689758 
L 260.891283 -290.537611 
L 249.731283 -274.16256 
L 238.571283 -257.585211 
L 227.411283 -245.263959 
L 216.251283 -236.05551 
L 205.091283 -224.450862 
L 193.931283 -206.893191 
L 182.771283 -184.118652 
L 171.611283 -163.675424 
L 160.451283 -146.10959 
L 149.291283 -132.970719 
L 138.131283 -124.340894 
L 126.971283 -119.135659 
L 115.811283 -112.997087 
L 104.651283 -107.826767 
L 93.491283 -106.129992 
L 82.331283 -103.147088 
L 71.171283 -104.415175 
L 60.011283 -108.232647 
L 48.851283 -111.522329 
z
" style="stroke: #1f77b4; stroke-opacity: 0.2"/>
    </defs>
    <g clip-path="url(#pbc2c25c9bd)">
     <use xlink:href="#m7d11410394" x="0" y="361.333136" style="fill: #1f77b4; fill-opacity: 0.2; stroke: #1f77b4; stroke-opacity: 0.2"/>
    </g>
   </g>
   <g id="PolyCollection_2">
    <defs>
     <path id="meca0361f5c" d="M 48.851283 -102.915012 
L 48.851283 -92.046184 
L 60.011283 -88.159118 
L 71.171283 -88.053156 
L 82.331283 -93.123681 
L 93.491283 -95.735828 
L 104.651283 -97.120954 
L 115.811283 -98.573319 
L 126.971283 -104.695174 
L 138.131283 -116.273346 
L 149.291283 -131.530151 
L 160.451283 -146.851221 
L 171.611283 -164.909696 
L 182.771283 -185.703551 
L 193.931283 -211.057615 
L 205.091283 -231.11541 
L 216.251283 -241.944116 
L 227.411283 -252.536084 
L 238.571283 -265.642208 
L 249.731283 -277.757413 
L 260.891283 -289.110767 
L 272.051283 -293.844173 
L 283.211283 -292.539441 
L 294.371283 -288.462919 
L 305.531283 -284.731921 
L 316.691283 -278.684794 
L 327.851283 -267.844924 
L 339.011283 -255.456641 
L 350.171283 -238.69057 
L 361.331283 -218.973122 
L 372.491283 -203.301051 
L 383.651283 -186.290774 
L 394.811283 -180.344726 
L 405.971283 -184.194224 
L 405.971283 -201.221986 
L 405.971283 -201.221986 
L 394.811283 -197.1945 
L 383.651283 -204.070445 
L 372.491283 -223.899159 
L 361.331283 -241.789634 
L 350.171283 -264.982929 
L 339.011283 -285.170611 
L 327.851283 -299.21365 
L 316.691283 -309.067691 
L 305.531283 -316.405447 
L 294.371283 -321.440795 
L 283.211283 -327.413313 
L 272.051283 -329.973156 
L 260.891283 -325.285333 
L 249.731283 -313.206686 
L 238.571283 -301.166634 
L 227.411283 -288.517167 
L 216.251283 -275.006493 
L 205.091283 -261.45453 
L 193.931283 -238.887309 
L 182.771283 -211.005346 
L 171.611283 -188.271461 
L 160.451283 -166.947358 
L 149.291283 -148.644553 
L 138.131283 -131.564445 
L 126.971283 -118.245339 
L 115.811283 -111.163032 
L 104.651283 -109.353366 
L 93.491283 -107.930299 
L 82.331283 -105.381987 
L 71.171283 -98.608519 
L 60.011283 -98.123772 
L 48.851283 -102.915012 
z
" style="stroke: #ff7f0e; stroke-opacity: 0.2"/>
    </defs>
    <g clip-path="url(#pbc2c25c9bd)">
     <use xlink:href="#meca0361f5c" x="0" y="361.333136" style="fill: #ff7f0e; fill-opacity: 0.2; stroke: #ff7f0e; stroke-opacity: 0.2"/>
    </g>
   </g>
   <g id="matplotlib.axis_1">
    <g id="text_1">
     <text style="font: 10px 'Arial', sans-serif; text-anchor: middle" x="227.411283" y="296.533792" transform="rotate(-0 227.411283 296.533792)">Time</text>
    </g>
   </g>
   <g id="matplotlib.axis_2">
    <g id="ytick_1">
     <g id="line2d_1">
      <defs>
       <path id="m0376e85643" d="M 0 0 
L -3.5 0 
" style="stroke: #000000; stroke-width: 0.8"/>
      </defs>
      <g>
       <use xlink:href="#m0376e85643" x="48.851283" y="259.597429" style="stroke: #000000; stroke-width: 0.8"/>
      </g>
     </g>
     <g id="text_2">
      <text style="font: 10px 'Arial', sans-serif; text-anchor: end" x="41.851283" y="263.176336" transform="rotate(-0 41.851283 263.176336)">−0.5</text>
     </g>
    </g>
    <g id="ytick_2">
     <g id="line2d_2">
      <g>
       <use xlink:href="#m0376e85643" x="48.851283" y="211.072979" style="stroke: #000000; stroke-width: 0.8"/>
      </g>
     </g>
     <g id="text_3">
      <text style="font: 10px 'Arial', sans-serif; text-anchor: end" x="41.851283" y="214.651885" transform="rotate(-0 41.851283 214.651885)">0.0</text>
     </g>
    </g>
    <g id="ytick_3">
     <g id="line2d_3">
      <g>
       <use xlink:href="#m0376e85643" x="48.851283" y="162.548529" style="stroke: #000000; stroke-width: 0.8"/>
      </g>
     </g>
     <g id="text_4">
      <text style="font: 10px 'Arial', sans-serif; text-anchor: end" x="41.851283" y="166.127435" transform="rotate(-0 41.851283 166.127435)">0.5</text>
     </g>
    </g>
    <g id="ytick_4">
     <g id="line2d_4">
      <g>
       <use xlink:href="#m0376e85643" x="48.851283" y="114.024078" style="stroke: #000000; stroke-width: 0.8"/>
      </g>
     </g>
     <g id="text_5">
      <text style="font: 10px 'Arial', sans-serif; text-anchor: end" x="41.851283" y="117.602984" transform="rotate(-0 41.851283 117.602984)">1.0</text>
     </g>
    </g>
    <g id="ytick_5">
     <g id="line2d_5">
      <g>
       <use xlink:href="#m0376e85643" x="48.851283" y="65.499628" style="stroke: #000000; stroke-width: 0.8"/>
      </g>
     </g>
     <g id="text_6">
      <text style="font: 10px 'Arial', sans-serif; text-anchor: end" x="41.851283" y="69.078534" transform="rotate(-0 41.851283 69.078534)">1.5</text>
     </g>
    </g>
    <g id="text_7">
     <text style="font: 10px 'Arial', sans-serif; text-anchor: middle" x="16.005971" y="152.31998" transform="rotate(-90 16.005971 152.31998)">Activity</text>
    </g>
   </g>
   <g id="line2d_6">
    <path d="M 48.851283 256.855838 
L 60.011283 260.522948 
L 71.171283 264.297539 
L 82.331283 265.175428 
L 93.491283 262.7159 
L 104.651283 260.630125 
L 115.811283 255.654531 
L 126.971283 250.352578 
L 138.131283 245.876522 
L 149.291283 238.129676 
L 160.451283 225.963964 
L 171.611283 209.55929 
L 182.771283 190.811748 
L 193.931283 169.989403 
L 205.091283 153.565382 
L 216.251283 141.883742 
L 227.411283 132.217681 
L 238.571283 120.330186 
L 249.731283 104.574979 
L 260.891283 88.578944 
L 272.051283 75.630472 
L 283.211283 67.424141 
L 294.371283 62.667967 
L 305.531283 57.722395 
L 316.691283 58.782047 
L 327.851283 63.135337 
L 339.011283 71.583139 
L 350.171283 85.618994 
L 361.331283 106.916606 
L 372.491283 125.791359 
L 383.651283 159.037407 
L 394.811283 176.039318 
L 405.971283 179.630402 
" clip-path="url(#pbc2c25c9bd)" style="fill: none; stroke: #1f77b4; stroke-width: 1.5; stroke-linecap: square"/>
   </g>
   <g id="line2d_7">
    <path d="M 48.851283 263.852538 
L 60.011283 268.191691 
L 71.171283 268.002299 
L 82.331283 262.080304 
L 93.491283 259.500072 
L 104.651283 258.095976 
L 115.811283 256.46496 
L 126.971283 249.862879 
L 138.131283 237.414241 
L 149.291283 221.245784 
L 160.451283 204.433846 
L 171.611283 184.742558 
L 182.771283 162.978689 
L 193.931283 136.360674 
L 205.091283 115.048166 
L 216.251283 102.857831 
L 227.411283 90.806511 
L 238.571283 77.928715 
L 249.731283 65.851086 
L 260.891283 54.135086 
L 272.051283 49.424471 
L 283.211283 51.356759 
L 294.371283 56.381279 
L 305.531283 60.764452 
L 316.691283 67.456893 
L 327.851283 77.803849 
L 339.011283 91.01951 
L 350.171283 109.496383 
L 361.331283 130.951758 
L 372.491283 147.733031 
L 383.651283 166.152527 
L 394.811283 172.563523 
L 405.971283 168.625029 
" clip-path="url(#pbc2c25c9bd)" style="fill: none; stroke: #ff7f0e; stroke-width: 1.5; stroke-linecap: square"/>
   </g>
   <g id="line2d_8">
    <path d="M 82.331283 285.37598 
L 82.331283 19.26398 
" clip-path="url(#pbc2c25c9bd)" style="fill: none; stroke-dasharray: 5.55,2.4; stroke-dashoffset: 0; stroke: #000000; stroke-opacity: 0.5; stroke-width: 1.5"/>
   </g>
   <g id="line2d_9">
    <path d="M 383.651283 285.37598 
L 383.651283 19.26398 
" clip-path="url(#pbc2c25c9bd)" style="fill: none; stroke-dasharray: 5.55,2.4; stroke-dashoffset: 0; stroke: #000000; stroke-opacity: 0.5; stroke-width: 1.5"/>
   </g>
   <g id="patch_3">
    <path d="M 48.851283 285.37598 
L 405.971283 285.37598 
" style="fill: none; stroke: #000000; stroke-width: 0.8; stroke-linejoin: miter; stroke-linecap: square"/>
   </g>
   <g id="text_8">
    <text style="font: 6.94px 'Arial', sans-serif" transform="translate(10.097767 321.385533) rotate(-35)">-0.1s Sampling</text>
   </g>
   <g id="text_9">
    <text style="font: 6.94px 'Arial', sans-serif" transform="translate(57.794497 311.430872) rotate(-35)">Sampling</text>
   </g>
   <g id="text_10">
    <text style="font: 6.94px 'Arial', sans-serif" transform="translate(319.037191 339.456682) rotate(-35)">Movement to Lateral Port</text>
   </g>
   <g id="text_11">
    <text style="font: 8.33px 'Arial', sans-serif; text-anchor: middle" x="227.411283" y="13.26398" transform="rotate(-0 227.411283 13.26398)">GP4_23_s6_L50_D250_ALM - Trace:217_GP4_23_s6_L50_D250_ALM (when: correct)</text>
   </g>
   <g id="legend_1">
    <g id="patch_4">
     <path d="M 133.696342 354.133136 
L 321.126224 354.133136 
Q 322.514224 354.133136 322.514224 352.745136 
L 322.514224 343.45638 
Q 322.514224 342.06838 321.126224 342.06838 
L 133.696342 342.06838 
Q 132.308342 342.06838 132.308342 343.45638 
L 132.308342 352.745136 
Q 132.308342 354.133136 133.696342 354.133136 
z
" style="fill: #ffffff; opacity: 0.8; stroke: #cccccc; stroke-linejoin: miter"/>
    </g>
    <g id="line2d_10">
     <path d="M 135.084342 347.467483 
L 142.024342 347.467483 
L 148.964342 347.467483 
" style="fill: none; stroke: #1f77b4; stroke-width: 1.5; stroke-linecap: square"/>
    </g>
    <g id="text_12">
     <text style="font: 6.94px 'Arial', sans-serif; text-anchor: start" x="154.516342" y="349.896483" transform="rotate(-0 154.516342 349.896483)">DecisionRight (78 pts)</text>
    </g>
    <g id="line2d_11">
     <path d="M 236.664255 347.467483 
L 243.604255 347.467483 
L 250.544255 347.467483 
" style="fill: none; stroke: #ff7f0e; stroke-width: 1.5; stroke-linecap: square"/>
    </g>
    <g id="text_13">
     <text style="font: 6.94px 'Arial', sans-serif; text-anchor: start" x="256.096255" y="349.896483" transform="rotate(-0 256.096255 349.896483)">DecisionLeft (82 pts)</text>
    </g>
   </g>
  </g>
 </g>
 <defs>
  <clipPath id="pbc2c25c9bd">
   <rect x="48.851283" y="19.26398" width="357.12" height="266.112"/>
  </clipPath>
 </defs>
</svg>
