<?xml version="1.0" encoding="utf-8" standalone="no"?>
<!DOCTYPE svg PUBLIC "-//W3C//DTD SVG 1.1//EN"
  "http://www.w3.org/Graphics/SVG/1.1/DTD/svg11.dtd">
<svg xmlns:xlink="http://www.w3.org/1999/xlink" width="417.084062pt" height="361.333136pt" viewBox="0 0 417.084062 361.333136" xmlns="http://www.w3.org/2000/svg" version="1.1">
 <metadata>
  <rdf:RDF xmlns:dc="http://purl.org/dc/elements/1.1/" xmlns:cc="http://creativecommons.org/ns#" xmlns:rdf="http://www.w3.org/1999/02/22-rdf-syntax-ns#">
   <cc:Work>
    <dc:type rdf:resource="http://purl.org/dc/dcmitype/StillImage"/>
    <dc:date>2025-12-29T04:07:00.527116</dc:date>
    <dc:format>image/svg+xml</dc:format>
    <dc:creator>
     <cc:Agent>
      <dc:title>Matplotlib v3.8.0, https://matplotlib.org/</dc:title>
     </cc:Agent>
    </dc:creator>
   </cc:Work>
  </rdf:RDF>
 </metadata>
 <defs>
  <style type="text/css">*{stroke-linejoin: round; stroke-linecap: butt}</style>
 </defs>
 <g id="figure_1">
  <g id="patch_1">
   <path d="M 0 361.333136 
L 417.084062 361.333136 
L 417.084062 -0 
L 0 -0 
z
" style="fill: #ffffff"/>
  </g>
  <g id="axes_1">
   <g id="patch_2">
    <path d="M 52.764063 285.37598 
L 409.884063 285.37598 
L 409.884063 19.26398 
L 52.764063 19.26398 
z
" style="fill: #ffffff"/>
   </g>
   <g id="PolyCollection_1">
    <defs>
     <path id="mc99e74347a" d="M 52.764063 -139.501826 
L 52.764063 -117.183886 
L 63.924063 -126.810031 
L 75.084063 -134.973186 
L 86.244063 -125.701075 
L 97.404063 -119.293053 
L 108.564063 -114.092162 
L 119.724063 -109.608616 
L 130.884063 -103.639655 
L 142.044062 -99.215538 
L 153.204063 -96.391664 
L 164.364063 -94.691299 
L 175.524063 -94.54916 
L 186.684063 -92.104499 
L 197.844063 -88.053156 
L 209.004063 -90.02859 
L 220.164062 -98.943855 
L 231.324063 -106.848631 
L 242.484062 -109.517342 
L 253.644063 -107.628098 
L 264.804062 -108.352617 
L 275.964063 -110.515633 
L 287.124063 -111.654379 
L 298.284063 -116.111502 
L 309.444063 -122.883055 
L 320.604062 -132.803863 
L 331.764063 -146.495872 
L 342.924062 -162.104722 
L 354.084063 -176.230782 
L 365.244062 -188.941387 
L 376.404063 -201.778954 
L 387.564062 -224.64979 
L 398.724063 -234.410121 
L 409.884063 -235.272715 
L 409.884063 -275.24945 
L 409.884063 -275.24945 
L 398.724063 -275.897592 
L 387.564062 -266.570951 
L 376.404063 -239.569637 
L 365.244062 -224.151549 
L 354.084063 -209.55439 
L 342.924062 -193.254001 
L 331.764063 -174.830503 
L 320.604062 -158.417947 
L 309.444063 -145.570921 
L 298.284063 -136.983089 
L 287.124063 -132.192833 
L 275.964063 -130.665088 
L 264.804062 -128.353054 
L 253.644063 -128.927965 
L 242.484062 -133.368282 
L 231.324063 -132.168213 
L 220.164062 -121.449544 
L 209.004063 -108.573435 
L 197.844063 -105.579232 
L 186.684063 -110.876297 
L 175.524063 -113.736999 
L 164.364063 -113.389248 
L 153.204063 -114.970969 
L 142.044062 -118.161183 
L 130.884063 -123.36276 
L 119.724063 -129.287573 
L 108.564063 -133.245096 
L 97.404063 -138.839155 
L 86.244063 -145.597187 
L 75.084063 -155.853264 
L 63.924063 -149.789178 
L 52.764063 -139.501826 
z
" style="stroke: #1f77b4; stroke-opacity: 0.2"/>
    </defs>
    <g clip-path="url(#p90cd786171)">
     <use xlink:href="#mc99e74347a" x="0" y="361.333136" style="fill: #1f77b4; fill-opacity: 0.2; stroke: #1f77b4; stroke-opacity: 0.2"/>
    </g>
   </g>
   <g id="PolyCollection_2">
    <defs>
     <path id="mdc53a85fe7" d="M 52.764063 -156.404209 
L 52.764063 -132.749638 
L 63.924063 -137.952802 
L 75.084063 -135.643405 
L 86.244063 -131.538339 
L 97.404063 -129.797511 
L 108.564063 -130.347386 
L 119.724063 -132.232827 
L 130.884063 -136.926086 
L 142.044062 -136.714115 
L 153.204063 -126.331371 
L 164.364063 -111.443813 
L 175.524063 -100.365838 
L 186.684063 -96.761408 
L 197.844063 -98.756651 
L 209.004063 -101.805068 
L 220.164062 -106.859228 
L 231.324063 -112.604507 
L 242.484062 -122.630415 
L 253.644063 -132.923632 
L 264.804062 -140.614685 
L 275.964063 -147.892011 
L 287.124063 -154.205107 
L 298.284063 -165.288044 
L 309.444063 -174.07697 
L 320.604062 -182.94033 
L 331.764063 -188.194625 
L 342.924062 -194.644944 
L 354.084063 -205.207954 
L 365.244062 -218.249117 
L 376.404063 -231.778935 
L 387.564062 -254.675364 
L 398.724063 -276.95163 
L 409.884063 -291.352979 
L 409.884063 -329.973156 
L 409.884063 -329.973156 
L 398.724063 -315.997624 
L 387.564062 -293.332338 
L 376.404063 -268.390257 
L 365.244062 -251.847857 
L 354.084063 -237.441952 
L 342.924062 -225.488298 
L 331.764063 -217.61526 
L 320.604062 -211.500455 
L 309.444063 -201.582265 
L 298.284063 -191.026544 
L 287.124063 -178.98258 
L 275.964063 -174.12544 
L 264.804062 -166.692169 
L 253.644063 -156.786215 
L 242.484062 -143.524047 
L 231.324063 -131.378232 
L 220.164062 -125.75365 
L 209.004063 -121.104349 
L 197.844063 -117.334115 
L 186.684063 -115.399501 
L 175.524063 -119.00625 
L 164.364063 -131.699472 
L 153.204063 -147.780082 
L 142.044062 -159.273534 
L 130.884063 -160.843883 
L 119.724063 -155.711316 
L 108.564063 -152.778129 
L 97.404063 -151.216177 
L 86.244063 -153.826529 
L 75.084063 -159.348468 
L 63.924063 -161.991125 
L 52.764063 -156.404209 
z
" style="stroke: #ff7f0e; stroke-opacity: 0.2"/>
    </defs>
    <g clip-path="url(#p90cd786171)">
     <use xlink:href="#mdc53a85fe7" x="0" y="361.333136" style="fill: #ff7f0e; fill-opacity: 0.2; stroke: #ff7f0e; stroke-opacity: 0.2"/>
    </g>
   </g>
   <g id="matplotlib.axis_1">
    <g id="text_1">
     <text style="font: 10px 'Arial', sans-serif; text-anchor: middle" x="231.324063" y="296.533792" transform="rotate(-0 231.324063 296.533792)">Time</text>
    </g>
   </g>
   <g id="matplotlib.axis_2">
    <g id="ytick_1">
     <g id="line2d_1">
      <defs>
       <path id="m63f7221a35" d="M 0 0 
L -3.5 0 
" style="stroke: #000000; stroke-width: 0.8"/>
      </defs>
      <g>
       <use xlink:href="#m63f7221a35" x="52.764063" y="255.165528" style="stroke: #000000; stroke-width: 0.8"/>
      </g>
     </g>
     <g id="text_2">
      <text style="font: 10px 'Arial', sans-serif; text-anchor: end" x="45.764063" y="258.744434" transform="rotate(-0 45.764063 258.744434)">−0.25</text>
     </g>
    </g>
    <g id="ytick_2">
     <g id="line2d_2">
      <g>
       <use xlink:href="#m63f7221a35" x="52.764063" y="221.636862" style="stroke: #000000; stroke-width: 0.8"/>
      </g>
     </g>
     <g id="text_3">
      <text style="font: 10px 'Arial', sans-serif; text-anchor: end" x="45.764063" y="225.215768" transform="rotate(-0 45.764063 225.215768)">0.00</text>
     </g>
    </g>
    <g id="ytick_3">
     <g id="line2d_3">
      <g>
       <use xlink:href="#m63f7221a35" x="52.764063" y="188.108196" style="stroke: #000000; stroke-width: 0.8"/>
      </g>
     </g>
     <g id="text_4">
      <text style="font: 10px 'Arial', sans-serif; text-anchor: end" x="45.764063" y="191.687102" transform="rotate(-0 45.764063 191.687102)">0.25</text>
     </g>
    </g>
    <g id="ytick_4">
     <g id="line2d_4">
      <g>
       <use xlink:href="#m63f7221a35" x="52.764063" y="154.579529" style="stroke: #000000; stroke-width: 0.8"/>
      </g>
     </g>
     <g id="text_5">
      <text style="font: 10px 'Arial', sans-serif; text-anchor: end" x="45.764063" y="158.158436" transform="rotate(-0 45.764063 158.158436)">0.50</text>
     </g>
    </g>
    <g id="ytick_5">
     <g id="line2d_5">
      <g>
       <use xlink:href="#m63f7221a35" x="52.764063" y="121.050863" style="stroke: #000000; stroke-width: 0.8"/>
      </g>
     </g>
     <g id="text_6">
      <text style="font: 10px 'Arial', sans-serif; text-anchor: end" x="45.764063" y="124.629769" transform="rotate(-0 45.764063 124.629769)">0.75</text>
     </g>
    </g>
    <g id="ytick_6">
     <g id="line2d_6">
      <g>
       <use xlink:href="#m63f7221a35" x="52.764063" y="87.522197" style="stroke: #000000; stroke-width: 0.8"/>
      </g>
     </g>
     <g id="text_7">
      <text style="font: 10px 'Arial', sans-serif; text-anchor: end" x="45.764063" y="91.101103" transform="rotate(-0 45.764063 91.101103)">1.00</text>
     </g>
    </g>
    <g id="ytick_7">
     <g id="line2d_7">
      <g>
       <use xlink:href="#m63f7221a35" x="52.764063" y="53.993531" style="stroke: #000000; stroke-width: 0.8"/>
      </g>
     </g>
     <g id="text_8">
      <text style="font: 10px 'Arial', sans-serif; text-anchor: end" x="45.764063" y="57.572437" transform="rotate(-0 45.764063 57.572437)">1.25</text>
     </g>
    </g>
    <g id="ytick_8">
     <g id="line2d_8">
      <g>
       <use xlink:href="#m63f7221a35" x="52.764063" y="20.464864" style="stroke: #000000; stroke-width: 0.8"/>
      </g>
     </g>
     <g id="text_9">
      <text style="font: 10px 'Arial', sans-serif; text-anchor: end" x="45.764063" y="24.04377" transform="rotate(-0 45.764063 24.04377)">1.50</text>
     </g>
    </g>
    <g id="text_10">
     <text style="font: 10px 'Arial', sans-serif; text-anchor: middle" x="14.357813" y="152.31998" transform="rotate(-90 14.357813 152.31998)">Activity</text>
    </g>
   </g>
   <g id="line2d_9">
    <path d="M 52.764063 232.99028 
L 63.924063 223.033531 
L 75.084063 215.919911 
L 86.244063 225.684005 
L 97.404063 232.267032 
L 108.564063 237.664507 
L 119.724063 241.885042 
L 130.884063 247.83193 
L 142.044062 252.644775 
L 153.204063 255.651818 
L 164.364063 257.292861 
L 175.524063 257.190056 
L 186.684063 259.842738 
L 197.844063 264.516942 
L 209.004063 262.032123 
L 220.164062 251.136436 
L 231.324063 241.824714 
L 242.484062 239.890325 
L 253.644063 243.055105 
L 264.804062 242.9803 
L 275.964063 240.742776 
L 287.124063 239.40953 
L 298.284063 234.78584 
L 309.444063 227.106148 
L 320.604062 215.722231 
L 331.764063 200.669948 
L 342.924062 183.653775 
L 354.084063 168.44055 
L 365.244062 154.78667 
L 376.404063 140.658843 
L 387.564062 115.722766 
L 398.724063 106.179275 
L 409.884063 106.072054 
" clip-path="url(#p90cd786171)" style="fill: none; stroke: #1f77b4; stroke-width: 1.5; stroke-linecap: square"/>
   </g>
   <g id="line2d_10">
    <path d="M 52.764063 216.756213 
L 63.924063 211.361172 
L 75.084063 213.8372 
L 86.244063 218.650702 
L 97.404063 220.826292 
L 108.564063 219.770378 
L 119.724063 217.361065 
L 130.884063 212.448152 
L 142.044062 213.339312 
L 153.204063 224.27741 
L 164.364063 239.761494 
L 175.524063 251.647092 
L 186.684063 255.252681 
L 197.844063 253.287753 
L 209.004063 249.878427 
L 220.164062 245.026697 
L 231.324063 239.341766 
L 242.484062 228.255905 
L 253.644063 216.478213 
L 264.804062 207.679709 
L 275.964063 200.32441 
L 287.124063 194.739294 
L 298.284063 183.175842 
L 309.444063 173.503519 
L 320.604062 164.112743 
L 331.764063 158.428192 
L 342.924062 151.266515 
L 354.084063 140.008183 
L 365.244062 126.284649 
L 376.404063 111.24854 
L 387.564062 87.329289 
L 398.724063 64.858509 
L 409.884063 50.670068 
" clip-path="url(#p90cd786171)" style="fill: none; stroke: #ff7f0e; stroke-width: 1.5; stroke-linecap: square"/>
   </g>
   <g id="line2d_11">
    <path d="M 86.244063 285.37598 
L 86.244063 19.26398 
" clip-path="url(#p90cd786171)" style="fill: none; stroke-dasharray: 5.55,2.4; stroke-dashoffset: 0; stroke: #000000; stroke-opacity: 0.5; stroke-width: 1.5"/>
   </g>
   <g id="line2d_12">
    <path d="M 387.564062 285.37598 
L 387.564062 19.26398 
" clip-path="url(#p90cd786171)" style="fill: none; stroke-dasharray: 5.55,2.4; stroke-dashoffset: 0; stroke: #000000; stroke-opacity: 0.5; stroke-width: 1.5"/>
   </g>
   <g id="patch_3">
    <path d="M 52.764063 285.37598 
L 409.884063 285.37598 
" style="fill: none; stroke: #000000; stroke-width: 0.8; stroke-linejoin: miter; stroke-linecap: square"/>
   </g>
   <g id="text_11">
    <text style="font: 6.94px 'Arial', sans-serif" transform="translate(14.010547 321.385533) rotate(-35)">-0.1s Sampling</text>
   </g>
   <g id="text_12">
    <text style="font: 6.94px 'Arial', sans-serif" transform="translate(61.707276 311.430872) rotate(-35)">Sampling</text>
   </g>
   <g id="text_13">
    <text style="font: 6.94px 'Arial', sans-serif" transform="translate(322.94997 339.456682) rotate(-35)">Movement to Lateral Port</text>
   </g>
   <g id="text_14">
    <text style="font: 8.33px 'Arial', sans-serif; text-anchor: middle" x="231.324063" y="13.26398" transform="rotate(-0 231.324063 13.26398)">GP4_23_s6_L50_D250_ALM - Trace:222_GP4_23_s6_L50_D250_ALM (when: correct)</text>
   </g>
   <g id="legend_1">
    <g id="patch_4">
     <path d="M 137.609122 354.133136 
L 325.039003 354.133136 
Q 326.427003 354.133136 326.427003 352.745136 
L 326.427003 343.45638 
Q 326.427003 342.06838 325.039003 342.06838 
L 137.609122 342.06838 
Q 136.221122 342.06838 136.221122 343.45638 
L 136.221122 352.745136 
Q 136.221122 354.133136 137.609122 354.133136 
z
" style="fill: #ffffff; opacity: 0.8; stroke: #cccccc; stroke-linejoin: miter"/>
    </g>
    <g id="line2d_13">
     <path d="M 138.997122 347.467483 
L 145.937122 347.467483 
L 152.877122 347.467483 
" style="fill: none; stroke: #1f77b4; stroke-width: 1.5; stroke-linecap: square"/>
    </g>
    <g id="text_15">
     <text style="font: 6.94px 'Arial', sans-serif; text-anchor: start" x="158.429122" y="349.896483" transform="rotate(-0 158.429122 349.896483)">DecisionRight (78 pts)</text>
    </g>
    <g id="line2d_14">
     <path d="M 240.577034 347.467483 
L 247.517034 347.467483 
L 254.457034 347.467483 
" style="fill: none; stroke: #ff7f0e; stroke-width: 1.5; stroke-linecap: square"/>
    </g>
    <g id="text_16">
     <text style="font: 6.94px 'Arial', sans-serif; text-anchor: start" x="260.009034" y="349.896483" transform="rotate(-0 260.009034 349.896483)">DecisionLeft (82 pts)</text>
    </g>
   </g>
  </g>
 </g>
 <defs>
  <clipPath id="p90cd786171">
   <rect x="52.764063" y="19.26398" width="357.12" height="266.112"/>
  </clipPath>
 </defs>
</svg>
