<?xml version="1.0" encoding="utf-8" standalone="no"?>
<!DOCTYPE svg PUBLIC "-//W3C//DTD SVG 1.1//EN"
  "http://www.w3.org/Graphics/SVG/1.1/DTD/svg11.dtd">
<svg xmlns:xlink="http://www.w3.org/1999/xlink" width="413.171283pt" height="361.333136pt" viewBox="0 0 413.171283 361.333136" xmlns="http://www.w3.org/2000/svg" version="1.1">
 <metadata>
  <rdf:RDF xmlns:dc="http://purl.org/dc/elements/1.1/" xmlns:cc="http://creativecommons.org/ns#" xmlns:rdf="http://www.w3.org/1999/02/22-rdf-syntax-ns#">
   <cc:Work>
    <dc:type rdf:resource="http://purl.org/dc/dcmitype/StillImage"/>
    <dc:date>2025-12-29T04:07:03.692574</dc:date>
    <dc:format>image/svg+xml</dc:format>
    <dc:creator>
     <cc:Agent>
      <dc:title>Matplotlib v3.8.0, https://matplotlib.org/</dc:title>
     </cc:Agent>
    </dc:creator>
   </cc:Work>
  </rdf:RDF>
 </metadata>
 <defs>
  <style type="text/css">*{stroke-linejoin: round; stroke-linecap: butt}</style>
 </defs>
 <g id="figure_1">
  <g id="patch_1">
   <path d="M 0 361.333136 
L 413.171283 361.333136 
L 413.171283 -0 
L 0 -0 
z
" style="fill: #ffffff"/>
  </g>
  <g id="axes_1">
   <g id="patch_2">
    <path d="M 48.851283 285.37598 
L 405.971283 285.37598 
L 405.971283 19.26398 
L 48.851283 19.26398 
z
" style="fill: #ffffff"/>
   </g>
   <g id="PolyCollection_1">
    <defs>
     <path id="mf847241848" d="M 48.851283 -139.058414 
L 48.851283 -115.145617 
L 60.011283 -114.101869 
L 71.171283 -104.840188 
L 82.331283 -94.77953 
L 93.491283 -94.290444 
L 104.651283 -99.869047 
L 115.811283 -115.058565 
L 126.971283 -130.325239 
L 138.131283 -141.714637 
L 149.291283 -153.231627 
L 160.451283 -171.822922 
L 171.611283 -199.094659 
L 182.771283 -224.608837 
L 193.931283 -242.803851 
L 205.091283 -247.199741 
L 216.251283 -243.237213 
L 227.411283 -242.018233 
L 238.571283 -244.951316 
L 249.731283 -253.669199 
L 260.891283 -260.121632 
L 272.051283 -257.560374 
L 283.211283 -248.034232 
L 294.371283 -241.013014 
L 305.531283 -237.737692 
L 316.691283 -227.389959 
L 327.851283 -211.382868 
L 339.011283 -194.58208 
L 350.171283 -179.593731 
L 361.331283 -163.350675 
L 372.491283 -151.846286 
L 383.651283 -135.453364 
L 394.811283 -122.89394 
L 405.971283 -111.15898 
L 405.971283 -130.841004 
L 405.971283 -130.841004 
L 394.811283 -141.636778 
L 383.651283 -155.682206 
L 372.491283 -177.570676 
L 361.331283 -196.315626 
L 350.171283 -215.188585 
L 339.011283 -227.52892 
L 327.851283 -246.103278 
L 316.691283 -266.967626 
L 305.531283 -276.649281 
L 294.371283 -277.893714 
L 283.211283 -287.706922 
L 272.051283 -302.761411 
L 260.891283 -309.117585 
L 249.731283 -305.568644 
L 238.571283 -299.355605 
L 227.411283 -297.777114 
L 216.251283 -303.525526 
L 205.091283 -314.114564 
L 193.931283 -309.969621 
L 182.771283 -285.88542 
L 171.611283 -250.129814 
L 160.451283 -210.771336 
L 149.291283 -184.137871 
L 138.131283 -170.22113 
L 126.971283 -156.778453 
L 115.811283 -138.596774 
L 104.651283 -121.487327 
L 93.491283 -115.923188 
L 82.331283 -117.704111 
L 71.171283 -129.057012 
L 60.011283 -138.779395 
L 48.851283 -139.058414 
z
" style="stroke: #1f77b4; stroke-opacity: 0.2"/>
    </defs>
    <g clip-path="url(#pb407f1062d)">
     <use xlink:href="#mf847241848" x="0" y="361.333136" style="fill: #1f77b4; fill-opacity: 0.2; stroke: #1f77b4; stroke-opacity: 0.2"/>
    </g>
   </g>
   <g id="PolyCollection_2">
    <defs>
     <path id="m5e0a8162bf" d="M 48.851283 -127.798636 
L 48.851283 -105.676645 
L 60.011283 -102.111216 
L 71.171283 -92.760606 
L 82.331283 -88.053156 
L 93.491283 -89.443433 
L 104.651283 -97.385603 
L 115.811283 -112.006529 
L 126.971283 -136.453801 
L 138.131283 -165.402509 
L 149.291283 -191.439087 
L 160.451283 -210.533868 
L 171.611283 -232.940946 
L 182.771283 -249.446912 
L 193.931283 -260.202737 
L 205.091283 -264.207089 
L 216.251283 -269.336707 
L 227.411283 -279.777057 
L 238.571283 -276.934761 
L 249.731283 -259.224601 
L 260.891283 -247.147232 
L 272.051283 -240.435443 
L 283.211283 -239.032395 
L 294.371283 -230.482772 
L 305.531283 -206.967351 
L 316.691283 -187.096684 
L 327.851283 -177.339854 
L 339.011283 -173.392481 
L 350.171283 -164.622208 
L 361.331283 -155.213963 
L 372.491283 -153.511546 
L 383.651283 -155.272176 
L 394.811283 -156.324313 
L 405.971283 -149.708042 
L 405.971283 -169.216051 
L 405.971283 -169.216051 
L 394.811283 -175.032848 
L 383.651283 -173.078227 
L 372.491283 -171.176045 
L 361.331283 -172.823624 
L 350.171283 -183.542142 
L 339.011283 -197.254673 
L 327.851283 -204.04802 
L 316.691283 -219.367006 
L 305.531283 -246.272304 
L 294.371283 -269.785222 
L 283.211283 -274.7509 
L 272.051283 -276.160427 
L 260.891283 -285.224558 
L 249.731283 -296.160506 
L 238.571283 -321.682518 
L 227.411283 -329.973156 
L 216.251283 -312.162474 
L 205.091283 -304.759024 
L 193.931283 -305.544741 
L 182.771283 -293.168922 
L 171.611283 -268.544846 
L 160.451283 -241.998118 
L 149.291283 -218.637434 
L 138.131283 -188.879123 
L 126.971283 -159.553473 
L 115.811283 -133.834791 
L 104.651283 -116.742087 
L 93.491283 -106.867978 
L 82.331283 -105.624539 
L 71.171283 -111.745229 
L 60.011283 -122.464205 
L 48.851283 -127.798636 
z
" style="stroke: #ff7f0e; stroke-opacity: 0.2"/>
    </defs>
    <g clip-path="url(#pb407f1062d)">
     <use xlink:href="#m5e0a8162bf" x="0" y="361.333136" style="fill: #ff7f0e; fill-opacity: 0.2; stroke: #ff7f0e; stroke-opacity: 0.2"/>
    </g>
   </g>
   <g id="matplotlib.axis_1">
    <g id="text_1">
     <text style="font: 10px 'Arial', sans-serif; text-anchor: middle" x="227.411283" y="296.533792" transform="rotate(-0 227.411283 296.533792)">Time</text>
    </g>
   </g>
   <g id="matplotlib.axis_2">
    <g id="ytick_1">
     <g id="line2d_1">
      <defs>
       <path id="m52f62f2127" d="M 0 0 
L -3.5 0 
" style="stroke: #000000; stroke-width: 0.8"/>
      </defs>
      <g>
       <use xlink:href="#m52f62f2127" x="48.851283" y="257.311698" style="stroke: #000000; stroke-width: 0.8"/>
      </g>
     </g>
     <g id="text_2">
      <text style="font: 10px 'Arial', sans-serif; text-anchor: end" x="41.851283" y="260.890604" transform="rotate(-0 41.851283 260.890604)">−0.4</text>
     </g>
    </g>
    <g id="ytick_2">
     <g id="line2d_2">
      <g>
       <use xlink:href="#m52f62f2127" x="48.851283" y="227.260422" style="stroke: #000000; stroke-width: 0.8"/>
      </g>
     </g>
     <g id="text_3">
      <text style="font: 10px 'Arial', sans-serif; text-anchor: end" x="41.851283" y="230.839329" transform="rotate(-0 41.851283 230.839329)">−0.2</text>
     </g>
    </g>
    <g id="ytick_3">
     <g id="line2d_3">
      <g>
       <use xlink:href="#m52f62f2127" x="48.851283" y="197.209147" style="stroke: #000000; stroke-width: 0.8"/>
      </g>
     </g>
     <g id="text_4">
      <text style="font: 10px 'Arial', sans-serif; text-anchor: end" x="41.851283" y="200.788053" transform="rotate(-0 41.851283 200.788053)">0.0</text>
     </g>
    </g>
    <g id="ytick_4">
     <g id="line2d_4">
      <g>
       <use xlink:href="#m52f62f2127" x="48.851283" y="167.157871" style="stroke: #000000; stroke-width: 0.8"/>
      </g>
     </g>
     <g id="text_5">
      <text style="font: 10px 'Arial', sans-serif; text-anchor: end" x="41.851283" y="170.736777" transform="rotate(-0 41.851283 170.736777)">0.2</text>
     </g>
    </g>
    <g id="ytick_5">
     <g id="line2d_5">
      <g>
       <use xlink:href="#m52f62f2127" x="48.851283" y="137.106595" style="stroke: #000000; stroke-width: 0.8"/>
      </g>
     </g>
     <g id="text_6">
      <text style="font: 10px 'Arial', sans-serif; text-anchor: end" x="41.851283" y="140.685501" transform="rotate(-0 41.851283 140.685501)">0.4</text>
     </g>
    </g>
    <g id="ytick_6">
     <g id="line2d_6">
      <g>
       <use xlink:href="#m52f62f2127" x="48.851283" y="107.055319" style="stroke: #000000; stroke-width: 0.8"/>
      </g>
     </g>
     <g id="text_7">
      <text style="font: 10px 'Arial', sans-serif; text-anchor: end" x="41.851283" y="110.634225" transform="rotate(-0 41.851283 110.634225)">0.6</text>
     </g>
    </g>
    <g id="ytick_7">
     <g id="line2d_7">
      <g>
       <use xlink:href="#m52f62f2127" x="48.851283" y="77.004043" style="stroke: #000000; stroke-width: 0.8"/>
      </g>
     </g>
     <g id="text_8">
      <text style="font: 10px 'Arial', sans-serif; text-anchor: end" x="41.851283" y="80.58295" transform="rotate(-0 41.851283 80.58295)">0.8</text>
     </g>
    </g>
    <g id="ytick_8">
     <g id="line2d_8">
      <g>
       <use xlink:href="#m52f62f2127" x="48.851283" y="46.952767" style="stroke: #000000; stroke-width: 0.8"/>
      </g>
     </g>
     <g id="text_9">
      <text style="font: 10px 'Arial', sans-serif; text-anchor: end" x="41.851283" y="50.531674" transform="rotate(-0 41.851283 50.531674)">1.0</text>
     </g>
    </g>
    <g id="text_10">
     <text style="font: 10px 'Arial', sans-serif; text-anchor: middle" x="16.005971" y="152.31998" transform="rotate(-90 16.005971 152.31998)">Activity</text>
    </g>
   </g>
   <g id="line2d_9">
    <path d="M 48.851283 234.23112 
L 60.011283 234.892504 
L 71.171283 244.384537 
L 82.331283 255.091315 
L 93.491283 256.22632 
L 104.651283 250.654949 
L 115.811283 234.505467 
L 126.971283 217.78129 
L 138.131283 205.365252 
L 149.291283 192.648387 
L 160.451283 170.036008 
L 171.611283 136.7209 
L 182.771283 106.08601 
L 193.931283 84.9464 
L 205.091283 80.675984 
L 216.251283 87.951766 
L 227.411283 91.435463 
L 238.571283 89.179676 
L 249.731283 81.714214 
L 260.891283 76.713527 
L 272.051283 81.172243 
L 283.211283 93.462559 
L 294.371283 101.879772 
L 305.531283 104.139652 
L 316.691283 114.154343 
L 327.851283 132.590063 
L 339.011283 150.277636 
L 350.171283 163.941978 
L 361.331283 181.499985 
L 372.491283 196.624655 
L 383.651283 215.765351 
L 394.811283 229.067777 
L 405.971283 240.333144 
" clip-path="url(#pb407f1062d)" style="fill: none; stroke: #1f77b4; stroke-width: 1.5; stroke-linecap: square"/>
   </g>
   <g id="line2d_10">
    <path d="M 48.851283 244.595495 
L 60.011283 249.045425 
L 71.171283 259.080218 
L 82.331283 264.494291 
L 93.491283 263.17743 
L 104.651283 254.269291 
L 115.811283 238.412476 
L 126.971283 213.3295 
L 138.131283 184.19232 
L 149.291283 156.294876 
L 160.451283 135.067143 
L 171.611283 110.59024 
L 182.771283 90.025219 
L 193.931283 78.459397 
L 205.091283 76.850079 
L 216.251283 70.583546 
L 227.411283 56.458025 
L 238.571283 62.024496 
L 249.731283 83.640582 
L 260.891283 95.147241 
L 272.051283 103.035201 
L 283.211283 104.441486 
L 294.371283 111.199139 
L 305.531283 134.713306 
L 316.691283 158.101292 
L 327.851283 170.6392 
L 339.011283 176.009558 
L 350.171283 187.250961 
L 361.331283 197.314342 
L 372.491283 198.98934 
L 383.651283 197.157935 
L 394.811283 195.654556 
L 405.971283 201.87109 
" clip-path="url(#pb407f1062d)" style="fill: none; stroke: #ff7f0e; stroke-width: 1.5; stroke-linecap: square"/>
   </g>
   <g id="line2d_11">
    <path d="M 82.331283 285.37598 
L 82.331283 19.26398 
" clip-path="url(#pb407f1062d)" style="fill: none; stroke-dasharray: 5.55,2.4; stroke-dashoffset: 0; stroke: #000000; stroke-opacity: 0.5; stroke-width: 1.5"/>
   </g>
   <g id="line2d_12">
    <path d="M 383.651283 285.37598 
L 383.651283 19.26398 
" clip-path="url(#pb407f1062d)" style="fill: none; stroke-dasharray: 5.55,2.4; stroke-dashoffset: 0; stroke: #000000; stroke-opacity: 0.5; stroke-width: 1.5"/>
   </g>
   <g id="patch_3">
    <path d="M 48.851283 285.37598 
L 405.971283 285.37598 
" style="fill: none; stroke: #000000; stroke-width: 0.8; stroke-linejoin: miter; stroke-linecap: square"/>
   </g>
   <g id="text_11">
    <text style="font: 6.94px 'Arial', sans-serif" transform="translate(10.097767 321.385533) rotate(-35)">-0.1s Sampling</text>
   </g>
   <g id="text_12">
    <text style="font: 6.94px 'Arial', sans-serif" transform="translate(57.794497 311.430872) rotate(-35)">Sampling</text>
   </g>
   <g id="text_13">
    <text style="font: 6.94px 'Arial', sans-serif" transform="translate(319.037191 339.456682) rotate(-35)">Movement to Lateral Port</text>
   </g>
   <g id="text_14">
    <text style="font: 8.33px 'Arial', sans-serif; text-anchor: middle" x="227.411283" y="13.26398" transform="rotate(-0 227.411283 13.26398)">GP4_23_s6_L50_D250_ALM - Trace:278_GP4_23_s6_L50_D250_ALM (when: correct)</text>
   </g>
   <g id="legend_1">
    <g id="patch_4">
     <path d="M 133.696342 354.133136 
L 321.126224 354.133136 
Q 322.514224 354.133136 322.514224 352.745136 
L 322.514224 343.45638 
Q 322.514224 342.06838 321.126224 342.06838 
L 133.696342 342.06838 
Q 132.308342 342.06838 132.308342 343.45638 
L 132.308342 352.745136 
Q 132.308342 354.133136 133.696342 354.133136 
z
" style="fill: #ffffff; opacity: 0.8; stroke: #cccccc; stroke-linejoin: miter"/>
    </g>
    <g id="line2d_13">
     <path d="M 135.084342 347.467483 
L 142.024342 347.467483 
L 148.964342 347.467483 
" style="fill: none; stroke: #1f77b4; stroke-width: 1.5; stroke-linecap: square"/>
    </g>
    <g id="text_15">
     <text style="font: 6.94px 'Arial', sans-serif; text-anchor: start" x="154.516342" y="349.896483" transform="rotate(-0 154.516342 349.896483)">DecisionRight (78 pts)</text>
    </g>
    <g id="line2d_14">
     <path d="M 236.664255 347.467483 
L 243.604255 347.467483 
L 250.544255 347.467483 
" style="fill: none; stroke: #ff7f0e; stroke-width: 1.5; stroke-linecap: square"/>
    </g>
    <g id="text_16">
     <text style="font: 6.94px 'Arial', sans-serif; text-anchor: start" x="256.096255" y="349.896483" transform="rotate(-0 256.096255 349.896483)">DecisionLeft (82 pts)</text>
    </g>
   </g>
  </g>
 </g>
 <defs>
  <clipPath id="pb407f1062d">
   <rect x="48.851283" y="19.26398" width="357.12" height="266.112"/>
  </clipPath>
 </defs>
</svg>
