<?xml version="1.0" encoding="utf-8" standalone="no"?>
<!DOCTYPE svg PUBLIC "-//W3C//DTD SVG 1.1//EN"
  "http://www.w3.org/Graphics/SVG/1.1/DTD/svg11.dtd">
<svg xmlns:xlink="http://www.w3.org/1999/xlink" width="413.171283pt" height="361.333136pt" viewBox="0 0 413.171283 361.333136" xmlns="http://www.w3.org/2000/svg" version="1.1">
 <metadata>
  <rdf:RDF xmlns:dc="http://purl.org/dc/elements/1.1/" xmlns:cc="http://creativecommons.org/ns#" xmlns:rdf="http://www.w3.org/1999/02/22-rdf-syntax-ns#">
   <cc:Work>
    <dc:type rdf:resource="http://purl.org/dc/dcmitype/StillImage"/>
    <dc:date>2025-12-29T04:07:38.050159</dc:date>
    <dc:format>image/svg+xml</dc:format>
    <dc:creator>
     <cc:Agent>
      <dc:title>Matplotlib v3.8.0, https://matplotlib.org/</dc:title>
     </cc:Agent>
    </dc:creator>
   </cc:Work>
  </rdf:RDF>
 </metadata>
 <defs>
  <style type="text/css">*{stroke-linejoin: round; stroke-linecap: butt}</style>
 </defs>
 <g id="figure_1">
  <g id="patch_1">
   <path d="M 0 361.333136 
L 413.171283 361.333136 
L 413.171283 -0 
L 0 -0 
z
" style="fill: #ffffff"/>
  </g>
  <g id="axes_1">
   <g id="patch_2">
    <path d="M 48.851283 285.37598 
L 405.971283 285.37598 
L 405.971283 19.26398 
L 48.851283 19.26398 
z
" style="fill: #ffffff"/>
   </g>
   <g id="PolyCollection_1">
    <defs>
     <path id="m345b126c2a" d="M 48.851283 -142.641554 
L 48.851283 -88.053156 
L 60.011283 -114.735084 
L 71.171283 -129.067875 
L 82.331283 -122.191881 
L 93.491283 -135.297874 
L 104.651283 -161.996799 
L 115.811283 -183.03419 
L 126.971283 -181.511209 
L 138.131283 -158.028309 
L 149.291283 -141.505567 
L 160.451283 -132.256971 
L 171.611283 -157.637209 
L 182.771283 -195.951658 
L 193.931283 -225.343597 
L 205.091283 -232.600485 
L 216.251283 -234.978639 
L 227.411283 -230.535574 
L 238.571283 -208.164276 
L 249.731283 -229.855515 
L 260.891283 -230.867334 
L 272.051283 -240.822255 
L 283.211283 -242.671481 
L 294.371283 -217.705446 
L 305.531283 -197.632769 
L 316.691283 -190.752839 
L 327.851283 -207.569924 
L 339.011283 -207.905837 
L 350.171283 -203.752734 
L 361.331283 -194.490429 
L 372.491283 -201.696818 
L 383.651283 -202.468897 
L 394.811283 -191.776399 
L 405.971283 -184.999588 
L 405.971283 -255.54717 
L 405.971283 -255.54717 
L 394.811283 -268.161431 
L 383.651283 -279.933368 
L 372.491283 -273.166791 
L 361.331283 -265.135724 
L 350.171283 -278.355291 
L 339.011283 -287.317798 
L 327.851283 -285.853437 
L 316.691283 -273.365497 
L 305.531283 -283.284713 
L 294.371283 -298.620634 
L 283.211283 -329.973156 
L 272.051283 -329.41302 
L 260.891283 -309.005819 
L 249.731283 -303.349755 
L 238.571283 -276.372153 
L 227.411283 -299.421084 
L 216.251283 -308.643586 
L 205.091283 -307.284003 
L 193.931283 -304.335303 
L 182.771283 -272.353668 
L 171.611283 -224.330628 
L 160.451283 -203.111541 
L 149.291283 -202.282175 
L 138.131283 -207.587122 
L 126.971283 -239.342099 
L 115.811283 -241.241078 
L 104.651283 -212.154312 
L 93.491283 -189.484453 
L 82.331283 -181.120345 
L 71.171283 -188.032707 
L 60.011283 -172.301477 
L 48.851283 -142.641554 
z
" style="stroke: #1f77b4; stroke-opacity: 0.2"/>
    </defs>
    <g clip-path="url(#p82a175db2a)">
     <use xlink:href="#m345b126c2a" x="0" y="361.333136" style="fill: #1f77b4; fill-opacity: 0.2; stroke: #1f77b4; stroke-opacity: 0.2"/>
    </g>
   </g>
   <g id="PolyCollection_2">
    <defs>
     <path id="m8a1847a8d5" d="M 48.851283 -187.625936 
L 48.851283 -129.490749 
L 60.011283 -123.465376 
L 71.171283 -104.067112 
L 82.331283 -93.378176 
L 93.491283 -103.899771 
L 104.651283 -118.523953 
L 115.811283 -134.228008 
L 126.971283 -142.203023 
L 138.131283 -181.730311 
L 149.291283 -189.824631 
L 160.451283 -202.27698 
L 171.611283 -188.443203 
L 182.771283 -204.942159 
L 193.931283 -186.04212 
L 205.091283 -165.130991 
L 216.251283 -147.930641 
L 227.411283 -131.455575 
L 238.571283 -149.416109 
L 249.731283 -147.311212 
L 260.891283 -208.551996 
L 272.051283 -230.73491 
L 283.211283 -220.029368 
L 294.371283 -200.849385 
L 305.531283 -165.268619 
L 316.691283 -148.612009 
L 327.851283 -142.460855 
L 339.011283 -144.823761 
L 350.171283 -186.849374 
L 361.331283 -214.770669 
L 372.491283 -204.374083 
L 383.651283 -179.318442 
L 394.811283 -154.929711 
L 405.971283 -138.473118 
L 405.971283 -205.064847 
L 405.971283 -205.064847 
L 394.811283 -225.592152 
L 383.651283 -251.250155 
L 372.491283 -275.020638 
L 361.331283 -285.389379 
L 350.171283 -261.991374 
L 339.011283 -224.6601 
L 327.851283 -220.682555 
L 316.691283 -229.354031 
L 305.531283 -249.079187 
L 294.371283 -287.438189 
L 283.211283 -300.750415 
L 272.051283 -307.616498 
L 260.891283 -281.662518 
L 249.731283 -220.767402 
L 238.571283 -224.871641 
L 227.411283 -208.901842 
L 216.251283 -218.431357 
L 205.091283 -230.774216 
L 193.931283 -248.620199 
L 182.771283 -268.492704 
L 171.611283 -255.534469 
L 160.451283 -264.317684 
L 149.291283 -244.655154 
L 138.131283 -241.824945 
L 126.971283 -201.619921 
L 115.811283 -190.070603 
L 104.651283 -171.207386 
L 93.491283 -155.04643 
L 82.331283 -149.56406 
L 71.171283 -160.575003 
L 60.011283 -178.674327 
L 48.851283 -187.625936 
z
" style="stroke: #ff7f0e; stroke-opacity: 0.2"/>
    </defs>
    <g clip-path="url(#p82a175db2a)">
     <use xlink:href="#m8a1847a8d5" x="0" y="361.333136" style="fill: #ff7f0e; fill-opacity: 0.2; stroke: #ff7f0e; stroke-opacity: 0.2"/>
    </g>
   </g>
   <g id="matplotlib.axis_1">
    <g id="text_1">
     <text style="font: 10px 'Arial', sans-serif; text-anchor: middle" x="227.411283" y="296.533792" transform="rotate(-0 227.411283 296.533792)">Time</text>
    </g>
   </g>
   <g id="matplotlib.axis_2">
    <g id="ytick_1">
     <g id="line2d_1">
      <defs>
       <path id="mf0659883e4" d="M 0 0 
L -3.5 0 
" style="stroke: #000000; stroke-width: 0.8"/>
      </defs>
      <g>
       <use xlink:href="#mf0659883e4" x="48.851283" y="280.159044" style="stroke: #000000; stroke-width: 0.8"/>
      </g>
     </g>
     <g id="text_2">
      <text style="font: 10px 'Arial', sans-serif; text-anchor: end" x="41.851283" y="283.73795" transform="rotate(-0 41.851283 283.73795)">−0.2</text>
     </g>
    </g>
    <g id="ytick_2">
     <g id="line2d_2">
      <g>
       <use xlink:href="#mf0659883e4" x="48.851283" y="248.116186" style="stroke: #000000; stroke-width: 0.8"/>
      </g>
     </g>
     <g id="text_3">
      <text style="font: 10px 'Arial', sans-serif; text-anchor: end" x="41.851283" y="251.695092" transform="rotate(-0 41.851283 251.695092)">−0.1</text>
     </g>
    </g>
    <g id="ytick_3">
     <g id="line2d_3">
      <g>
       <use xlink:href="#mf0659883e4" x="48.851283" y="216.073327" style="stroke: #000000; stroke-width: 0.8"/>
      </g>
     </g>
     <g id="text_4">
      <text style="font: 10px 'Arial', sans-serif; text-anchor: end" x="41.851283" y="219.652233" transform="rotate(-0 41.851283 219.652233)">0.0</text>
     </g>
    </g>
    <g id="ytick_4">
     <g id="line2d_4">
      <g>
       <use xlink:href="#mf0659883e4" x="48.851283" y="184.030468" style="stroke: #000000; stroke-width: 0.8"/>
      </g>
     </g>
     <g id="text_5">
      <text style="font: 10px 'Arial', sans-serif; text-anchor: end" x="41.851283" y="187.609375" transform="rotate(-0 41.851283 187.609375)">0.1</text>
     </g>
    </g>
    <g id="ytick_5">
     <g id="line2d_5">
      <g>
       <use xlink:href="#mf0659883e4" x="48.851283" y="151.98761" style="stroke: #000000; stroke-width: 0.8"/>
      </g>
     </g>
     <g id="text_6">
      <text style="font: 10px 'Arial', sans-serif; text-anchor: end" x="41.851283" y="155.566516" transform="rotate(-0 41.851283 155.566516)">0.2</text>
     </g>
    </g>
    <g id="ytick_6">
     <g id="line2d_6">
      <g>
       <use xlink:href="#mf0659883e4" x="48.851283" y="119.944751" style="stroke: #000000; stroke-width: 0.8"/>
      </g>
     </g>
     <g id="text_7">
      <text style="font: 10px 'Arial', sans-serif; text-anchor: end" x="41.851283" y="123.523657" transform="rotate(-0 41.851283 123.523657)">0.3</text>
     </g>
    </g>
    <g id="ytick_7">
     <g id="line2d_7">
      <g>
       <use xlink:href="#mf0659883e4" x="48.851283" y="87.901892" style="stroke: #000000; stroke-width: 0.8"/>
      </g>
     </g>
     <g id="text_8">
      <text style="font: 10px 'Arial', sans-serif; text-anchor: end" x="41.851283" y="91.480799" transform="rotate(-0 41.851283 91.480799)">0.4</text>
     </g>
    </g>
    <g id="ytick_8">
     <g id="line2d_8">
      <g>
       <use xlink:href="#mf0659883e4" x="48.851283" y="55.859034" style="stroke: #000000; stroke-width: 0.8"/>
      </g>
     </g>
     <g id="text_9">
      <text style="font: 10px 'Arial', sans-serif; text-anchor: end" x="41.851283" y="59.43794" transform="rotate(-0 41.851283 59.43794)">0.5</text>
     </g>
    </g>
    <g id="ytick_9">
     <g id="line2d_9">
      <g>
       <use xlink:href="#mf0659883e4" x="48.851283" y="23.816175" style="stroke: #000000; stroke-width: 0.8"/>
      </g>
     </g>
     <g id="text_10">
      <text style="font: 10px 'Arial', sans-serif; text-anchor: end" x="41.851283" y="27.395081" transform="rotate(-0 41.851283 27.395081)">0.6</text>
     </g>
    </g>
    <g id="text_11">
     <text style="font: 10px 'Arial', sans-serif; text-anchor: middle" x="16.005971" y="152.31998" transform="rotate(-90 16.005971 152.31998)">Activity</text>
    </g>
   </g>
   <g id="line2d_10">
    <path d="M 48.851283 245.98578 
L 60.011283 217.814855 
L 71.171283 202.782844 
L 82.331283 209.677022 
L 93.491283 198.941972 
L 104.651283 174.257582 
L 115.811283 149.195502 
L 126.971283 150.906479 
L 138.131283 178.52542 
L 149.291283 189.439264 
L 160.451283 193.648879 
L 171.611283 170.349218 
L 182.771283 127.180473 
L 193.931283 96.493686 
L 205.091283 91.390892 
L 216.251283 89.522023 
L 227.411283 96.354807 
L 238.571283 119.064922 
L 249.731283 94.730501 
L 260.891283 91.396555 
L 272.051283 76.215498 
L 283.211283 75.010817 
L 294.371283 103.170096 
L 305.531283 120.874393 
L 316.691283 129.273966 
L 327.851283 114.621456 
L 339.011283 113.721318 
L 350.171283 120.279124 
L 361.331283 131.520059 
L 372.491283 123.901331 
L 383.651283 120.132004 
L 394.811283 131.364221 
L 405.971283 141.059759 
" clip-path="url(#p82a175db2a)" style="fill: none; stroke: #1f77b4; stroke-width: 1.5; stroke-linecap: square"/>
   </g>
   <g id="line2d_11">
    <path d="M 48.851283 202.774794 
L 60.011283 210.263285 
L 71.171283 229.012078 
L 82.331283 239.862017 
L 93.491283 231.860035 
L 104.651283 216.467466 
L 115.811283 199.183831 
L 126.971283 189.421664 
L 138.131283 149.555509 
L 149.291283 144.093244 
L 160.451283 128.035804 
L 171.611283 139.344298 
L 182.771283 124.615702 
L 193.931283 144.001979 
L 205.091283 163.38053 
L 216.251283 178.152137 
L 227.411283 191.154426 
L 238.571283 174.189259 
L 249.731283 177.293829 
L 260.891283 116.225879 
L 272.051283 92.157432 
L 283.211283 100.943244 
L 294.371283 117.189349 
L 305.531283 154.159231 
L 316.691283 172.350113 
L 327.851283 179.761431 
L 339.011283 176.591204 
L 350.171283 136.912762 
L 361.331283 111.253112 
L 372.491283 121.635776 
L 383.651283 146.048836 
L 394.811283 171.072207 
L 405.971283 189.564155 
" clip-path="url(#p82a175db2a)" style="fill: none; stroke: #ff7f0e; stroke-width: 1.5; stroke-linecap: square"/>
   </g>
   <g id="line2d_12">
    <path d="M 82.331283 285.37598 
L 82.331283 19.26398 
" clip-path="url(#p82a175db2a)" style="fill: none; stroke-dasharray: 5.55,2.4; stroke-dashoffset: 0; stroke: #000000; stroke-opacity: 0.5; stroke-width: 1.5"/>
   </g>
   <g id="line2d_13">
    <path d="M 383.651283 285.37598 
L 383.651283 19.26398 
" clip-path="url(#p82a175db2a)" style="fill: none; stroke-dasharray: 5.55,2.4; stroke-dashoffset: 0; stroke: #000000; stroke-opacity: 0.5; stroke-width: 1.5"/>
   </g>
   <g id="patch_3">
    <path d="M 48.851283 285.37598 
L 405.971283 285.37598 
" style="fill: none; stroke: #000000; stroke-width: 0.8; stroke-linejoin: miter; stroke-linecap: square"/>
   </g>
   <g id="text_12">
    <text style="font: 6.94px 'Arial', sans-serif" transform="translate(10.097767 321.385533) rotate(-35)">-0.1s Sampling</text>
   </g>
   <g id="text_13">
    <text style="font: 6.94px 'Arial', sans-serif" transform="translate(57.794497 311.430872) rotate(-35)">Sampling</text>
   </g>
   <g id="text_14">
    <text style="font: 6.94px 'Arial', sans-serif" transform="translate(319.037191 339.456682) rotate(-35)">Movement to Lateral Port</text>
   </g>
   <g id="text_15">
    <text style="font: 8.33px 'Arial', sans-serif; text-anchor: middle" x="227.411283" y="13.26398" transform="rotate(-0 227.411283 13.26398)">GP4_80_S4_L50_D250_M2m - Trace:113_GP4_80_S4_L50_D250_M2m (when: correct)</text>
   </g>
   <g id="legend_1">
    <g id="patch_4">
     <path d="M 133.696342 354.133136 
L 321.126224 354.133136 
Q 322.514224 354.133136 322.514224 352.745136 
L 322.514224 343.45638 
Q 322.514224 342.06838 321.126224 342.06838 
L 133.696342 342.06838 
Q 132.308342 342.06838 132.308342 343.45638 
L 132.308342 352.745136 
Q 132.308342 354.133136 133.696342 354.133136 
z
" style="fill: #ffffff; opacity: 0.8; stroke: #cccccc; stroke-linejoin: miter"/>
    </g>
    <g id="line2d_14">
     <path d="M 135.084342 347.467483 
L 142.024342 347.467483 
L 148.964342 347.467483 
" style="fill: none; stroke: #1f77b4; stroke-width: 1.5; stroke-linecap: square"/>
    </g>
    <g id="text_16">
     <text style="font: 6.94px 'Arial', sans-serif; text-anchor: start" x="154.516342" y="349.896483" transform="rotate(-0 154.516342 349.896483)">DecisionRight (97 pts)</text>
    </g>
    <g id="line2d_15">
     <path d="M 236.664255 347.467483 
L 243.604255 347.467483 
L 250.544255 347.467483 
" style="fill: none; stroke: #ff7f0e; stroke-width: 1.5; stroke-linecap: square"/>
    </g>
    <g id="text_17">
     <text style="font: 6.94px 'Arial', sans-serif; text-anchor: start" x="256.096255" y="349.896483" transform="rotate(-0 256.096255 349.896483)">DecisionLeft (82 pts)</text>
    </g>
   </g>
  </g>
 </g>
 <defs>
  <clipPath id="p82a175db2a">
   <rect x="48.851283" y="19.26398" width="357.12" height="266.112"/>
  </clipPath>
 </defs>
</svg>
