<?xml version="1.0" encoding="utf-8" standalone="no"?>
<!DOCTYPE svg PUBLIC "-//W3C//DTD SVG 1.1//EN"
  "http://www.w3.org/Graphics/SVG/1.1/DTD/svg11.dtd">
<svg xmlns:xlink="http://www.w3.org/1999/xlink" width="413.171283pt" height="361.333136pt" viewBox="0 0 413.171283 361.333136" xmlns="http://www.w3.org/2000/svg" version="1.1">
 <metadata>
  <rdf:RDF xmlns:dc="http://purl.org/dc/elements/1.1/" xmlns:cc="http://creativecommons.org/ns#" xmlns:rdf="http://www.w3.org/1999/02/22-rdf-syntax-ns#">
   <cc:Work>
    <dc:type rdf:resource="http://purl.org/dc/dcmitype/StillImage"/>
    <dc:date>2025-12-29T04:07:38.625650</dc:date>
    <dc:format>image/svg+xml</dc:format>
    <dc:creator>
     <cc:Agent>
      <dc:title>Matplotlib v3.8.0, https://matplotlib.org/</dc:title>
     </cc:Agent>
    </dc:creator>
   </cc:Work>
  </rdf:RDF>
 </metadata>
 <defs>
  <style type="text/css">*{stroke-linejoin: round; stroke-linecap: butt}</style>
 </defs>
 <g id="figure_1">
  <g id="patch_1">
   <path d="M 0 361.333136 
L 413.171283 361.333136 
L 413.171283 -0 
L 0 -0 
z
" style="fill: #ffffff"/>
  </g>
  <g id="axes_1">
   <g id="patch_2">
    <path d="M 48.851283 285.37598 
L 405.971283 285.37598 
L 405.971283 19.26398 
L 48.851283 19.26398 
z
" style="fill: #ffffff"/>
   </g>
   <g id="PolyCollection_1">
    <defs>
     <path id="mb84d6f8836" d="M 48.851283 -97.000862 
L 48.851283 -88.338148 
L 60.011283 -93.694812 
L 71.171283 -94.914253 
L 82.331283 -96.001385 
L 93.491283 -94.879757 
L 104.651283 -89.887062 
L 115.811283 -88.053156 
L 126.971283 -88.097235 
L 138.131283 -89.22759 
L 149.291283 -89.803183 
L 160.451283 -91.161912 
L 171.611283 -91.437717 
L 182.771283 -89.728946 
L 193.931283 -88.683647 
L 205.091283 -88.437067 
L 216.251283 -90.829729 
L 227.411283 -93.482919 
L 238.571283 -95.953414 
L 249.731283 -98.883789 
L 260.891283 -101.174417 
L 272.051283 -105.633241 
L 283.211283 -110.148478 
L 294.371283 -114.753192 
L 305.531283 -120.871916 
L 316.691283 -130.588075 
L 327.851283 -139.770029 
L 339.011283 -147.582051 
L 350.171283 -158.220997 
L 361.331283 -170.032898 
L 372.491283 -181.522447 
L 383.651283 -206.215728 
L 394.811283 -249.512207 
L 405.971283 -303.006617 
L 405.971283 -329.973156 
L 405.971283 -329.973156 
L 394.811283 -272.538824 
L 383.651283 -226.463837 
L 372.491283 -202.930367 
L 361.331283 -192.609078 
L 350.171283 -179.44603 
L 339.011283 -167.90828 
L 327.851283 -159.327808 
L 316.691283 -148.688239 
L 305.531283 -138.429816 
L 294.371283 -131.250148 
L 283.211283 -125.599182 
L 272.051283 -121.069939 
L 260.891283 -118.204962 
L 249.731283 -116.395268 
L 238.571283 -112.603396 
L 227.411283 -108.796054 
L 216.251283 -104.013902 
L 205.091283 -100.881599 
L 193.931283 -100.801332 
L 182.771283 -100.842695 
L 171.611283 -101.801801 
L 160.451283 -100.924271 
L 149.291283 -98.251354 
L 138.131283 -97.469087 
L 126.971283 -96.009913 
L 115.811283 -95.902065 
L 104.651283 -98.361263 
L 93.491283 -103.25006 
L 82.331283 -104.455925 
L 71.171283 -103.588336 
L 60.011283 -102.294652 
L 48.851283 -97.000862 
z
" style="stroke: #1f77b4; stroke-opacity: 0.2"/>
    </defs>
    <g clip-path="url(#p20e9769ded)">
     <use xlink:href="#mb84d6f8836" x="0" y="361.333136" style="fill: #1f77b4; fill-opacity: 0.2; stroke: #1f77b4; stroke-opacity: 0.2"/>
    </g>
   </g>
   <g id="PolyCollection_2">
    <defs>
     <path id="m7fe5fb418c" d="M 48.851283 -98.273271 
L 48.851283 -88.421495 
L 60.011283 -95.386553 
L 71.171283 -98.148821 
L 82.331283 -93.089363 
L 93.491283 -92.309587 
L 104.651283 -91.916335 
L 115.811283 -90.348997 
L 126.971283 -91.002969 
L 138.131283 -93.537858 
L 149.291283 -92.308589 
L 160.451283 -91.03022 
L 171.611283 -91.16774 
L 182.771283 -89.030851 
L 193.931283 -92.306408 
L 205.091283 -95.995195 
L 216.251283 -98.859062 
L 227.411283 -104.946733 
L 238.571283 -105.558527 
L 249.731283 -105.115504 
L 260.891283 -103.675337 
L 272.051283 -108.010965 
L 283.211283 -113.423471 
L 294.371283 -116.425234 
L 305.531283 -120.019554 
L 316.691283 -124.429811 
L 327.851283 -126.807625 
L 339.011283 -129.430295 
L 350.171283 -131.582859 
L 361.331283 -136.490547 
L 372.491283 -137.704743 
L 383.651283 -143.31563 
L 394.811283 -156.576148 
L 405.971283 -170.323592 
L 405.971283 -189.615525 
L 405.971283 -189.615525 
L 394.811283 -171.95936 
L 383.651283 -156.911742 
L 372.491283 -151.848227 
L 361.331283 -152.094167 
L 350.171283 -148.878538 
L 339.011283 -147.649391 
L 327.851283 -144.691552 
L 316.691283 -142.369506 
L 305.531283 -138.395157 
L 294.371283 -135.045171 
L 283.211283 -131.537369 
L 272.051283 -124.986031 
L 260.891283 -119.968689 
L 249.731283 -121.793458 
L 238.571283 -122.327937 
L 227.411283 -120.329118 
L 216.251283 -113.44413 
L 205.091283 -111.056802 
L 193.931283 -106.786919 
L 182.771283 -105.837371 
L 171.611283 -108.361574 
L 160.451283 -104.620442 
L 149.291283 -103.72696 
L 138.131283 -103.434071 
L 126.971283 -99.781877 
L 115.811283 -98.341993 
L 104.651283 -99.951469 
L 93.491283 -99.970646 
L 82.331283 -100.843812 
L 71.171283 -107.301166 
L 60.011283 -105.41095 
L 48.851283 -98.273271 
z
" style="stroke: #ff7f0e; stroke-opacity: 0.2"/>
    </defs>
    <g clip-path="url(#p20e9769ded)">
     <use xlink:href="#m7fe5fb418c" x="0" y="361.333136" style="fill: #ff7f0e; fill-opacity: 0.2; stroke: #ff7f0e; stroke-opacity: 0.2"/>
    </g>
   </g>
   <g id="matplotlib.axis_1">
    <g id="text_1">
     <text style="font: 10px 'Arial', sans-serif; text-anchor: middle" x="227.411283" y="296.533792" transform="rotate(-0 227.411283 296.533792)">Time</text>
    </g>
   </g>
   <g id="matplotlib.axis_2">
    <g id="ytick_1">
     <g id="line2d_1">
      <defs>
       <path id="me7d4b01eea" d="M 0 0 
L -3.5 0 
" style="stroke: #000000; stroke-width: 0.8"/>
      </defs>
      <g>
       <use xlink:href="#me7d4b01eea" x="48.851283" y="284.584854" style="stroke: #000000; stroke-width: 0.8"/>
      </g>
     </g>
     <g id="text_2">
      <text style="font: 10px 'Arial', sans-serif; text-anchor: end" x="41.851283" y="288.163761" transform="rotate(-0 41.851283 288.163761)">−0.5</text>
     </g>
    </g>
    <g id="ytick_2">
     <g id="line2d_2">
      <g>
       <use xlink:href="#me7d4b01eea" x="48.851283" y="234.468914" style="stroke: #000000; stroke-width: 0.8"/>
      </g>
     </g>
     <g id="text_3">
      <text style="font: 10px 'Arial', sans-serif; text-anchor: end" x="41.851283" y="238.047821" transform="rotate(-0 41.851283 238.047821)">0.0</text>
     </g>
    </g>
    <g id="ytick_3">
     <g id="line2d_3">
      <g>
       <use xlink:href="#me7d4b01eea" x="48.851283" y="184.352974" style="stroke: #000000; stroke-width: 0.8"/>
      </g>
     </g>
     <g id="text_4">
      <text style="font: 10px 'Arial', sans-serif; text-anchor: end" x="41.851283" y="187.931881" transform="rotate(-0 41.851283 187.931881)">0.5</text>
     </g>
    </g>
    <g id="ytick_4">
     <g id="line2d_4">
      <g>
       <use xlink:href="#me7d4b01eea" x="48.851283" y="134.237034" style="stroke: #000000; stroke-width: 0.8"/>
      </g>
     </g>
     <g id="text_5">
      <text style="font: 10px 'Arial', sans-serif; text-anchor: end" x="41.851283" y="137.815941" transform="rotate(-0 41.851283 137.815941)">1.0</text>
     </g>
    </g>
    <g id="ytick_5">
     <g id="line2d_5">
      <g>
       <use xlink:href="#me7d4b01eea" x="48.851283" y="84.121094" style="stroke: #000000; stroke-width: 0.8"/>
      </g>
     </g>
     <g id="text_6">
      <text style="font: 10px 'Arial', sans-serif; text-anchor: end" x="41.851283" y="87.700001" transform="rotate(-0 41.851283 87.700001)">1.5</text>
     </g>
    </g>
    <g id="ytick_6">
     <g id="line2d_6">
      <g>
       <use xlink:href="#me7d4b01eea" x="48.851283" y="34.005154" style="stroke: #000000; stroke-width: 0.8"/>
      </g>
     </g>
     <g id="text_7">
      <text style="font: 10px 'Arial', sans-serif; text-anchor: end" x="41.851283" y="37.584061" transform="rotate(-0 41.851283 37.584061)">2.0</text>
     </g>
    </g>
    <g id="text_8">
     <text style="font: 10px 'Arial', sans-serif; text-anchor: middle" x="16.005971" y="152.31998" transform="rotate(-90 16.005971 152.31998)">Activity</text>
    </g>
   </g>
   <g id="line2d_7">
    <path d="M 48.851283 268.663631 
L 60.011283 263.338404 
L 71.171283 262.081841 
L 82.331283 261.104481 
L 93.491283 262.268227 
L 104.651283 267.208973 
L 115.811283 269.355525 
L 126.971283 269.279562 
L 138.131283 267.984797 
L 149.291283 267.305867 
L 160.451283 265.290045 
L 171.611283 264.713377 
L 182.771283 266.047315 
L 193.931283 266.590647 
L 205.091283 266.673803 
L 216.251283 263.91132 
L 227.411283 260.193651 
L 238.571283 257.054731 
L 249.731283 253.693607 
L 260.891283 251.643447 
L 272.051283 247.981546 
L 283.211283 243.459306 
L 294.371283 238.331466 
L 305.531283 231.68227 
L 316.691283 221.694979 
L 327.851283 211.784217 
L 339.011283 203.58797 
L 350.171283 192.499624 
L 361.331283 180.012148 
L 372.491283 169.106729 
L 383.651283 144.993353 
L 394.811283 100.307621 
L 405.971283 44.843249 
" clip-path="url(#p20e9769ded)" style="fill: none; stroke: #1f77b4; stroke-width: 1.5; stroke-linecap: square"/>
   </g>
   <g id="line2d_8">
    <path d="M 48.851283 267.985753 
L 60.011283 260.934384 
L 71.171283 258.608142 
L 82.331283 264.366549 
L 93.491283 265.193019 
L 104.651283 265.399234 
L 115.811283 266.987641 
L 126.971283 265.940713 
L 138.131283 262.847171 
L 149.291283 263.315361 
L 160.451283 263.507805 
L 171.611283 261.56848 
L 182.771283 263.899025 
L 193.931283 261.786473 
L 205.091283 257.807137 
L 216.251283 255.18154 
L 227.411283 248.69521 
L 238.571283 247.389904 
L 249.731283 247.878656 
L 260.891283 249.511123 
L 272.051283 244.834638 
L 283.211283 238.852716 
L 294.371283 235.597933 
L 305.531283 232.12578 
L 316.691283 227.933478 
L 327.851283 225.583547 
L 339.011283 222.793293 
L 350.171283 221.102438 
L 361.331283 217.040779 
L 372.491283 216.556652 
L 383.651283 211.21945 
L 394.811283 197.065382 
L 405.971283 181.363579 
" clip-path="url(#p20e9769ded)" style="fill: none; stroke: #ff7f0e; stroke-width: 1.5; stroke-linecap: square"/>
   </g>
   <g id="line2d_9">
    <path d="M 82.331283 285.37598 
L 82.331283 19.26398 
" clip-path="url(#p20e9769ded)" style="fill: none; stroke-dasharray: 5.55,2.4; stroke-dashoffset: 0; stroke: #000000; stroke-opacity: 0.5; stroke-width: 1.5"/>
   </g>
   <g id="line2d_10">
    <path d="M 383.651283 285.37598 
L 383.651283 19.26398 
" clip-path="url(#p20e9769ded)" style="fill: none; stroke-dasharray: 5.55,2.4; stroke-dashoffset: 0; stroke: #000000; stroke-opacity: 0.5; stroke-width: 1.5"/>
   </g>
   <g id="patch_3">
    <path d="M 48.851283 285.37598 
L 405.971283 285.37598 
" style="fill: none; stroke: #000000; stroke-width: 0.8; stroke-linejoin: miter; stroke-linecap: square"/>
   </g>
   <g id="text_9">
    <text style="font: 6.94px 'Arial', sans-serif" transform="translate(10.097767 321.385533) rotate(-35)">-0.1s Sampling</text>
   </g>
   <g id="text_10">
    <text style="font: 6.94px 'Arial', sans-serif" transform="translate(57.794497 311.430872) rotate(-35)">Sampling</text>
   </g>
   <g id="text_11">
    <text style="font: 6.94px 'Arial', sans-serif" transform="translate(319.037191 339.456682) rotate(-35)">Movement to Lateral Port</text>
   </g>
   <g id="text_12">
    <text style="font: 8.33px 'Arial', sans-serif; text-anchor: middle" x="227.411283" y="13.26398" transform="rotate(-0 227.411283 13.26398)">GP4_80_S4_L50_D250_M2m - Trace:14_GP4_80_S4_L50_D250_M2m (when: correct)</text>
   </g>
   <g id="legend_1">
    <g id="patch_4">
     <path d="M 133.696342 354.133136 
L 321.126224 354.133136 
Q 322.514224 354.133136 322.514224 352.745136 
L 322.514224 343.45638 
Q 322.514224 342.06838 321.126224 342.06838 
L 133.696342 342.06838 
Q 132.308342 342.06838 132.308342 343.45638 
L 132.308342 352.745136 
Q 132.308342 354.133136 133.696342 354.133136 
z
" style="fill: #ffffff; opacity: 0.8; stroke: #cccccc; stroke-linejoin: miter"/>
    </g>
    <g id="line2d_11">
     <path d="M 135.084342 347.467483 
L 142.024342 347.467483 
L 148.964342 347.467483 
" style="fill: none; stroke: #1f77b4; stroke-width: 1.5; stroke-linecap: square"/>
    </g>
    <g id="text_13">
     <text style="font: 6.94px 'Arial', sans-serif; text-anchor: start" x="154.516342" y="349.896483" transform="rotate(-0 154.516342 349.896483)">DecisionRight (97 pts)</text>
    </g>
    <g id="line2d_12">
     <path d="M 236.664255 347.467483 
L 243.604255 347.467483 
L 250.544255 347.467483 
" style="fill: none; stroke: #ff7f0e; stroke-width: 1.5; stroke-linecap: square"/>
    </g>
    <g id="text_14">
     <text style="font: 6.94px 'Arial', sans-serif; text-anchor: start" x="256.096255" y="349.896483" transform="rotate(-0 256.096255 349.896483)">DecisionLeft (82 pts)</text>
    </g>
   </g>
  </g>
 </g>
 <defs>
  <clipPath id="p20e9769ded">
   <rect x="48.851283" y="19.26398" width="357.12" height="266.112"/>
  </clipPath>
 </defs>
</svg>
