<?xml version="1.0" encoding="utf-8" standalone="no"?>
<!DOCTYPE svg PUBLIC "-//W3C//DTD SVG 1.1//EN"
  "http://www.w3.org/Graphics/SVG/1.1/DTD/svg11.dtd">
<svg xmlns:xlink="http://www.w3.org/1999/xlink" width="413.171283pt" height="361.333136pt" viewBox="0 0 413.171283 361.333136" xmlns="http://www.w3.org/2000/svg" version="1.1">
 <metadata>
  <rdf:RDF xmlns:dc="http://purl.org/dc/elements/1.1/" xmlns:cc="http://creativecommons.org/ns#" xmlns:rdf="http://www.w3.org/1999/02/22-rdf-syntax-ns#">
   <cc:Work>
    <dc:type rdf:resource="http://purl.org/dc/dcmitype/StillImage"/>
    <dc:date>2025-12-29T04:07:36.051509</dc:date>
    <dc:format>image/svg+xml</dc:format>
    <dc:creator>
     <cc:Agent>
      <dc:title>Matplotlib v3.8.0, https://matplotlib.org/</dc:title>
     </cc:Agent>
    </dc:creator>
   </cc:Work>
  </rdf:RDF>
 </metadata>
 <defs>
  <style type="text/css">*{stroke-linejoin: round; stroke-linecap: butt}</style>
 </defs>
 <g id="figure_1">
  <g id="patch_1">
   <path d="M 0 361.333136 
L 413.171283 361.333136 
L 413.171283 -0 
L 0 -0 
z
" style="fill: #ffffff"/>
  </g>
  <g id="axes_1">
   <g id="patch_2">
    <path d="M 48.851283 285.37598 
L 405.971283 285.37598 
L 405.971283 19.26398 
L 48.851283 19.26398 
z
" style="fill: #ffffff"/>
   </g>
   <g id="PolyCollection_1">
    <defs>
     <path id="mc7872656c5" d="M 48.851283 -110.035537 
L 48.851283 -91.621183 
L 60.011283 -88.053156 
L 71.171283 -90.655169 
L 82.331283 -104.08282 
L 93.491283 -107.043487 
L 104.651283 -111.850313 
L 115.811283 -120.157777 
L 126.971283 -140.058273 
L 138.131283 -158.149798 
L 149.291283 -168.073929 
L 160.451283 -182.399203 
L 171.611283 -203.833025 
L 182.771283 -222.054648 
L 193.931283 -233.035133 
L 205.091283 -228.804786 
L 216.251283 -228.515407 
L 227.411283 -237.056578 
L 238.571283 -244.878656 
L 249.731283 -241.147397 
L 260.891283 -240.358105 
L 272.051283 -243.573724 
L 283.211283 -239.596467 
L 294.371283 -237.539922 
L 305.531283 -237.994793 
L 316.691283 -237.627315 
L 327.851283 -235.041028 
L 339.011283 -229.927451 
L 350.171283 -226.734645 
L 361.331283 -228.086389 
L 372.491283 -227.763442 
L 383.651283 -228.396572 
L 394.811283 -225.669161 
L 405.971283 -222.012131 
L 405.971283 -263.004319 
L 405.971283 -263.004319 
L 394.811283 -266.350452 
L 383.651283 -267.645229 
L 372.491283 -267.690429 
L 361.331283 -270.613327 
L 350.171283 -271.346401 
L 339.011283 -275.395148 
L 327.851283 -281.590117 
L 316.691283 -284.049668 
L 305.531283 -282.857592 
L 294.371283 -282.826038 
L 283.211283 -288.113891 
L 272.051283 -292.844895 
L 260.891283 -287.315918 
L 249.731283 -287.110005 
L 238.571283 -289.94682 
L 227.411283 -281.080465 
L 216.251283 -271.639205 
L 205.091283 -271.923051 
L 193.931283 -274.490037 
L 182.771283 -262.03585 
L 171.611283 -241.840701 
L 160.451283 -218.897408 
L 149.291283 -202.251413 
L 138.131283 -188.938261 
L 126.971283 -168.001505 
L 115.811283 -141.627682 
L 104.651283 -129.744023 
L 93.491283 -122.174397 
L 82.331283 -119.417509 
L 71.171283 -107.021778 
L 60.011283 -105.277811 
L 48.851283 -110.035537 
z
" style="stroke: #1f77b4; stroke-opacity: 0.2"/>
    </defs>
    <g clip-path="url(#p859f63039d)">
     <use xlink:href="#mc7872656c5" x="0" y="361.333136" style="fill: #1f77b4; fill-opacity: 0.2; stroke: #1f77b4; stroke-opacity: 0.2"/>
    </g>
   </g>
   <g id="PolyCollection_2">
    <defs>
     <path id="m92a0b0d4c0" d="M 48.851283 -137.731332 
L 48.851283 -117.336101 
L 60.011283 -110.976078 
L 71.171283 -110.142044 
L 82.331283 -111.833357 
L 93.491283 -114.488233 
L 104.651283 -123.86496 
L 115.811283 -150.325372 
L 126.971283 -171.634528 
L 138.131283 -192.659631 
L 149.291283 -215.815473 
L 160.451283 -227.092122 
L 171.611283 -241.070318 
L 182.771283 -254.924871 
L 193.931283 -272.333233 
L 205.091283 -274.093873 
L 216.251283 -278.857582 
L 227.411283 -281.34877 
L 238.571283 -285.5186 
L 249.731283 -285.41134 
L 260.891283 -269.649899 
L 272.051283 -262.294083 
L 283.211283 -267.607214 
L 294.371283 -268.913511 
L 305.531283 -256.208647 
L 316.691283 -245.944025 
L 327.851283 -244.397606 
L 339.011283 -244.447058 
L 350.171283 -238.690464 
L 361.331283 -236.341022 
L 372.491283 -226.290942 
L 383.651283 -223.267575 
L 394.811283 -217.145378 
L 405.971283 -209.14985 
L 405.971283 -250.353595 
L 405.971283 -250.353595 
L 394.811283 -257.299415 
L 383.651283 -262.992724 
L 372.491283 -268.31253 
L 361.331283 -279.13324 
L 350.171283 -281.663799 
L 339.011283 -288.627851 
L 327.851283 -291.682896 
L 316.691283 -295.885542 
L 305.531283 -306.433175 
L 294.371283 -318.92068 
L 283.211283 -316.710292 
L 272.051283 -309.822577 
L 260.891283 -315.516852 
L 249.731283 -328.778583 
L 238.571283 -329.973156 
L 227.411283 -327.923351 
L 216.251283 -328.021494 
L 205.091283 -320.803962 
L 193.931283 -315.110077 
L 182.771283 -295.080412 
L 171.611283 -280.61682 
L 160.451283 -265.009147 
L 149.291283 -252.270863 
L 138.131283 -224.503923 
L 126.971283 -198.158402 
L 115.811283 -173.818046 
L 104.651283 -142.598486 
L 93.491283 -131.489601 
L 82.331283 -127.559777 
L 71.171283 -129.066605 
L 60.011283 -130.791684 
L 48.851283 -137.731332 
z
" style="stroke: #ff7f0e; stroke-opacity: 0.2"/>
    </defs>
    <g clip-path="url(#p859f63039d)">
     <use xlink:href="#m92a0b0d4c0" x="0" y="361.333136" style="fill: #ff7f0e; fill-opacity: 0.2; stroke: #ff7f0e; stroke-opacity: 0.2"/>
    </g>
   </g>
   <g id="matplotlib.axis_1">
    <g id="text_1">
     <text style="font: 10px 'Arial', sans-serif; text-anchor: middle" x="227.411283" y="296.533792" transform="rotate(-0 227.411283 296.533792)">Time</text>
    </g>
   </g>
   <g id="matplotlib.axis_2">
    <g id="ytick_1">
     <g id="line2d_1">
      <defs>
       <path id="m0ed82dc299" d="M 0 0 
L -3.5 0 
" style="stroke: #000000; stroke-width: 0.8"/>
      </defs>
      <g>
       <use xlink:href="#m0ed82dc299" x="48.851283" y="267.509924" style="stroke: #000000; stroke-width: 0.8"/>
      </g>
     </g>
     <g id="text_2">
      <text style="font: 10px 'Arial', sans-serif; text-anchor: end" x="41.851283" y="271.088831" transform="rotate(-0 41.851283 271.088831)">−0.4</text>
     </g>
    </g>
    <g id="ytick_2">
     <g id="line2d_2">
      <g>
       <use xlink:href="#m0ed82dc299" x="48.851283" y="236.360385" style="stroke: #000000; stroke-width: 0.8"/>
      </g>
     </g>
     <g id="text_3">
      <text style="font: 10px 'Arial', sans-serif; text-anchor: end" x="41.851283" y="239.939291" transform="rotate(-0 41.851283 239.939291)">−0.2</text>
     </g>
    </g>
    <g id="ytick_3">
     <g id="line2d_3">
      <g>
       <use xlink:href="#m0ed82dc299" x="48.851283" y="205.210846" style="stroke: #000000; stroke-width: 0.8"/>
      </g>
     </g>
     <g id="text_4">
      <text style="font: 10px 'Arial', sans-serif; text-anchor: end" x="41.851283" y="208.789752" transform="rotate(-0 41.851283 208.789752)">0.0</text>
     </g>
    </g>
    <g id="ytick_4">
     <g id="line2d_4">
      <g>
       <use xlink:href="#m0ed82dc299" x="48.851283" y="174.061306" style="stroke: #000000; stroke-width: 0.8"/>
      </g>
     </g>
     <g id="text_5">
      <text style="font: 10px 'Arial', sans-serif; text-anchor: end" x="41.851283" y="177.640213" transform="rotate(-0 41.851283 177.640213)">0.2</text>
     </g>
    </g>
    <g id="ytick_5">
     <g id="line2d_5">
      <g>
       <use xlink:href="#m0ed82dc299" x="48.851283" y="142.911767" style="stroke: #000000; stroke-width: 0.8"/>
      </g>
     </g>
     <g id="text_6">
      <text style="font: 10px 'Arial', sans-serif; text-anchor: end" x="41.851283" y="146.490673" transform="rotate(-0 41.851283 146.490673)">0.4</text>
     </g>
    </g>
    <g id="ytick_6">
     <g id="line2d_6">
      <g>
       <use xlink:href="#m0ed82dc299" x="48.851283" y="111.762228" style="stroke: #000000; stroke-width: 0.8"/>
      </g>
     </g>
     <g id="text_7">
      <text style="font: 10px 'Arial', sans-serif; text-anchor: end" x="41.851283" y="115.341134" transform="rotate(-0 41.851283 115.341134)">0.6</text>
     </g>
    </g>
    <g id="ytick_7">
     <g id="line2d_7">
      <g>
       <use xlink:href="#m0ed82dc299" x="48.851283" y="80.612688" style="stroke: #000000; stroke-width: 0.8"/>
      </g>
     </g>
     <g id="text_8">
      <text style="font: 10px 'Arial', sans-serif; text-anchor: end" x="41.851283" y="84.191595" transform="rotate(-0 41.851283 84.191595)">0.8</text>
     </g>
    </g>
    <g id="ytick_8">
     <g id="line2d_8">
      <g>
       <use xlink:href="#m0ed82dc299" x="48.851283" y="49.463149" style="stroke: #000000; stroke-width: 0.8"/>
      </g>
     </g>
     <g id="text_9">
      <text style="font: 10px 'Arial', sans-serif; text-anchor: end" x="41.851283" y="53.042055" transform="rotate(-0 41.851283 53.042055)">1.0</text>
     </g>
    </g>
    <g id="text_10">
     <text style="font: 10px 'Arial', sans-serif; text-anchor: middle" x="16.005971" y="152.31998" transform="rotate(-90 16.005971 152.31998)">Activity</text>
    </g>
   </g>
   <g id="line2d_9">
    <path d="M 48.851283 260.504776 
L 60.011283 264.667652 
L 71.171283 262.494662 
L 82.331283 249.582971 
L 93.491283 246.724193 
L 104.651283 240.535968 
L 115.811283 230.440406 
L 126.971283 207.303247 
L 138.131283 187.789107 
L 149.291283 176.170464 
L 160.451283 160.684831 
L 171.611283 138.496273 
L 182.771283 119.287887 
L 193.931283 107.570551 
L 205.091283 110.969218 
L 216.251283 111.25583 
L 227.411283 102.264615 
L 238.571283 93.920398 
L 249.731283 97.204435 
L 260.891283 97.496125 
L 272.051283 93.123827 
L 283.211283 97.477957 
L 294.371283 101.150156 
L 305.531283 100.906943 
L 316.691283 100.494645 
L 327.851283 103.017563 
L 339.011283 108.671837 
L 350.171283 112.292615 
L 361.331283 111.983278 
L 372.491283 113.6062 
L 383.651283 113.312236 
L 394.811283 115.32333 
L 405.971283 118.824911 
" clip-path="url(#p859f63039d)" style="fill: none; stroke: #1f77b4; stroke-width: 1.5; stroke-linecap: square"/>
   </g>
   <g id="line2d_10">
    <path d="M 48.851283 233.799419 
L 60.011283 240.449255 
L 71.171283 241.728812 
L 82.331283 241.636569 
L 93.491283 238.344219 
L 104.651283 228.101413 
L 115.811283 199.261427 
L 126.971283 176.436671 
L 138.131283 152.751358 
L 149.291283 127.289968 
L 160.451283 115.282502 
L 171.611283 100.489567 
L 182.771283 86.330494 
L 193.931283 67.611481 
L 205.091283 63.884223 
L 216.251283 57.893598 
L 227.411283 56.697075 
L 238.571283 53.587258 
L 249.731283 54.238174 
L 260.891283 68.749761 
L 272.051283 75.274806 
L 283.211283 69.174378 
L 294.371283 67.41604 
L 305.531283 80.012225 
L 316.691283 90.418352 
L 327.851283 93.292885 
L 339.011283 94.795682 
L 350.171283 101.156004 
L 361.331283 103.596005 
L 372.491283 114.031403 
L 383.651283 118.202986 
L 394.811283 124.11074 
L 405.971283 131.581413 
" clip-path="url(#p859f63039d)" style="fill: none; stroke: #ff7f0e; stroke-width: 1.5; stroke-linecap: square"/>
   </g>
   <g id="line2d_11">
    <path d="M 82.331283 285.37598 
L 82.331283 19.26398 
" clip-path="url(#p859f63039d)" style="fill: none; stroke-dasharray: 5.55,2.4; stroke-dashoffset: 0; stroke: #000000; stroke-opacity: 0.5; stroke-width: 1.5"/>
   </g>
   <g id="line2d_12">
    <path d="M 383.651283 285.37598 
L 383.651283 19.26398 
" clip-path="url(#p859f63039d)" style="fill: none; stroke-dasharray: 5.55,2.4; stroke-dashoffset: 0; stroke: #000000; stroke-opacity: 0.5; stroke-width: 1.5"/>
   </g>
   <g id="patch_3">
    <path d="M 48.851283 285.37598 
L 405.971283 285.37598 
" style="fill: none; stroke: #000000; stroke-width: 0.8; stroke-linejoin: miter; stroke-linecap: square"/>
   </g>
   <g id="text_11">
    <text style="font: 6.94px 'Arial', sans-serif" transform="translate(10.097767 321.385533) rotate(-35)">-0.1s Sampling</text>
   </g>
   <g id="text_12">
    <text style="font: 6.94px 'Arial', sans-serif" transform="translate(57.794497 311.430872) rotate(-35)">Sampling</text>
   </g>
   <g id="text_13">
    <text style="font: 6.94px 'Arial', sans-serif" transform="translate(319.037191 339.456682) rotate(-35)">Movement to Lateral Port</text>
   </g>
   <g id="text_14">
    <text style="font: 8.33px 'Arial', sans-serif; text-anchor: middle" x="227.411283" y="13.26398" transform="rotate(-0 227.411283 13.26398)">GP4_80_S4_L50_D250_M2m - Trace:28_GP4_80_S4_L50_D250_M2m (when: correct)</text>
   </g>
   <g id="legend_1">
    <g id="patch_4">
     <path d="M 133.696342 354.133136 
L 321.126224 354.133136 
Q 322.514224 354.133136 322.514224 352.745136 
L 322.514224 343.45638 
Q 322.514224 342.06838 321.126224 342.06838 
L 133.696342 342.06838 
Q 132.308342 342.06838 132.308342 343.45638 
L 132.308342 352.745136 
Q 132.308342 354.133136 133.696342 354.133136 
z
" style="fill: #ffffff; opacity: 0.8; stroke: #cccccc; stroke-linejoin: miter"/>
    </g>
    <g id="line2d_13">
     <path d="M 135.084342 347.467483 
L 142.024342 347.467483 
L 148.964342 347.467483 
" style="fill: none; stroke: #1f77b4; stroke-width: 1.5; stroke-linecap: square"/>
    </g>
    <g id="text_15">
     <text style="font: 6.94px 'Arial', sans-serif; text-anchor: start" x="154.516342" y="349.896483" transform="rotate(-0 154.516342 349.896483)">DecisionRight (97 pts)</text>
    </g>
    <g id="line2d_14">
     <path d="M 236.664255 347.467483 
L 243.604255 347.467483 
L 250.544255 347.467483 
" style="fill: none; stroke: #ff7f0e; stroke-width: 1.5; stroke-linecap: square"/>
    </g>
    <g id="text_16">
     <text style="font: 6.94px 'Arial', sans-serif; text-anchor: start" x="256.096255" y="349.896483" transform="rotate(-0 256.096255 349.896483)">DecisionLeft (82 pts)</text>
    </g>
   </g>
  </g>
 </g>
 <defs>
  <clipPath id="p859f63039d">
   <rect x="48.851283" y="19.26398" width="357.12" height="266.112"/>
  </clipPath>
 </defs>
</svg>
