<?xml version="1.0" encoding="utf-8" standalone="no"?>
<!DOCTYPE svg PUBLIC "-//W3C//DTD SVG 1.1//EN"
  "http://www.w3.org/Graphics/SVG/1.1/DTD/svg11.dtd">
<svg xmlns:xlink="http://www.w3.org/1999/xlink" width="413.171283pt" height="361.333136pt" viewBox="0 0 413.171283 361.333136" xmlns="http://www.w3.org/2000/svg" version="1.1">
 <metadata>
  <rdf:RDF xmlns:dc="http://purl.org/dc/elements/1.1/" xmlns:cc="http://creativecommons.org/ns#" xmlns:rdf="http://www.w3.org/1999/02/22-rdf-syntax-ns#">
   <cc:Work>
    <dc:type rdf:resource="http://purl.org/dc/dcmitype/StillImage"/>
    <dc:date>2025-12-29T04:07:38.781095</dc:date>
    <dc:format>image/svg+xml</dc:format>
    <dc:creator>
     <cc:Agent>
      <dc:title>Matplotlib v3.8.0, https://matplotlib.org/</dc:title>
     </cc:Agent>
    </dc:creator>
   </cc:Work>
  </rdf:RDF>
 </metadata>
 <defs>
  <style type="text/css">*{stroke-linejoin: round; stroke-linecap: butt}</style>
 </defs>
 <g id="figure_1">
  <g id="patch_1">
   <path d="M 0 361.333136 
L 413.171283 361.333136 
L 413.171283 -0 
L 0 -0 
z
" style="fill: #ffffff"/>
  </g>
  <g id="axes_1">
   <g id="patch_2">
    <path d="M 48.851283 285.37598 
L 405.971283 285.37598 
L 405.971283 19.26398 
L 48.851283 19.26398 
z
" style="fill: #ffffff"/>
   </g>
   <g id="PolyCollection_1">
    <defs>
     <path id="m7c8b2bd885" d="M 48.851283 -129.507382 
L 48.851283 -105.627787 
L 60.011283 -102.075902 
L 71.171283 -98.248238 
L 82.331283 -96.998631 
L 93.491283 -99.52275 
L 104.651283 -102.778923 
L 115.811283 -112.03223 
L 126.971283 -129.506561 
L 138.131283 -143.571059 
L 149.291283 -152.51235 
L 160.451283 -160.845209 
L 171.611283 -172.815271 
L 182.771283 -183.988611 
L 193.931283 -192.774356 
L 205.091283 -201.555276 
L 216.251283 -203.972725 
L 227.411283 -210.839172 
L 238.571283 -221.0767 
L 249.731283 -230.279494 
L 260.891283 -235.919166 
L 272.051283 -238.101197 
L 283.211283 -236.549576 
L 294.371283 -237.946989 
L 305.531283 -238.974522 
L 316.691283 -237.669077 
L 327.851283 -235.642332 
L 339.011283 -248.036657 
L 350.171283 -258.317424 
L 361.331283 -264.686837 
L 372.491283 -269.401004 
L 383.651283 -279.372568 
L 394.811283 -284.255808 
L 405.971283 -288.090149 
L 405.971283 -329.973156 
L 405.971283 -329.973156 
L 394.811283 -325.311819 
L 383.651283 -318.682376 
L 372.491283 -305.791452 
L 361.331283 -299.757982 
L 350.171283 -291.146944 
L 339.011283 -280.22311 
L 327.851283 -268.27133 
L 316.691283 -269.967884 
L 305.531283 -271.881032 
L 294.371283 -270.79297 
L 283.211283 -269.169526 
L 272.051283 -269.91738 
L 260.891283 -266.989014 
L 249.731283 -261.526394 
L 238.571283 -251.677685 
L 227.411283 -239.361694 
L 216.251283 -230.661936 
L 205.091283 -227.214939 
L 193.931283 -218.812844 
L 182.771283 -208.262149 
L 171.611283 -196.97588 
L 160.451283 -184.802458 
L 149.291283 -176.698701 
L 138.131283 -168.149007 
L 126.971283 -152.436853 
L 115.811283 -132.849635 
L 104.651283 -124.008193 
L 93.491283 -120.429138 
L 82.331283 -118.066132 
L 71.171283 -120.21213 
L 60.011283 -124.732804 
L 48.851283 -129.507382 
z
" style="stroke: #1f77b4; stroke-opacity: 0.2"/>
    </defs>
    <g clip-path="url(#p0b10e271c7)">
     <use xlink:href="#m7c8b2bd885" x="0" y="361.333136" style="fill: #1f77b4; fill-opacity: 0.2; stroke: #1f77b4; stroke-opacity: 0.2"/>
    </g>
   </g>
   <g id="PolyCollection_2">
    <defs>
     <path id="m832de6d59f" d="M 48.851283 -117.325539 
L 48.851283 -90.804784 
L 60.011283 -90.267976 
L 71.171283 -88.053156 
L 82.331283 -88.742747 
L 93.491283 -92.803048 
L 104.651283 -104.590418 
L 115.811283 -117.106271 
L 126.971283 -132.785492 
L 138.131283 -142.417161 
L 149.291283 -152.049039 
L 160.451283 -161.975472 
L 171.611283 -177.739871 
L 182.771283 -184.958094 
L 193.931283 -190.99152 
L 205.091283 -201.34378 
L 216.251283 -209.075224 
L 227.411283 -216.416598 
L 238.571283 -227.285892 
L 249.731283 -231.166368 
L 260.891283 -229.768176 
L 272.051283 -231.387839 
L 283.211283 -239.05628 
L 294.371283 -240.341202 
L 305.531283 -243.640508 
L 316.691283 -246.660382 
L 327.851283 -246.56213 
L 339.011283 -246.657761 
L 350.171283 -244.542038 
L 361.331283 -241.977204 
L 372.491283 -238.873144 
L 383.651283 -231.777396 
L 394.811283 -229.47955 
L 405.971283 -225.509898 
L 405.971283 -265.589659 
L 405.971283 -265.589659 
L 394.811283 -268.194278 
L 383.651283 -269.44825 
L 372.491283 -276.414006 
L 361.331283 -281.096344 
L 350.171283 -283.275345 
L 339.011283 -284.918309 
L 327.851283 -284.436792 
L 316.691283 -283.397145 
L 305.531283 -279.662262 
L 294.371283 -276.135586 
L 283.211283 -273.855084 
L 272.051283 -266.473645 
L 260.891283 -265.353184 
L 249.731283 -266.143402 
L 238.571283 -259.8859 
L 227.411283 -248.719266 
L 216.251283 -240.528403 
L 205.091283 -232.043777 
L 193.931283 -219.575179 
L 182.771283 -212.839946 
L 171.611283 -207.429565 
L 160.451283 -192.293382 
L 149.291283 -181.611419 
L 138.131283 -171.754694 
L 126.971283 -159.60921 
L 115.811283 -142.37882 
L 104.651283 -130.401855 
L 93.491283 -119.034161 
L 82.331283 -114.735063 
L 71.171283 -114.516289 
L 60.011283 -117.092812 
L 48.851283 -117.325539 
z
" style="stroke: #ff7f0e; stroke-opacity: 0.2"/>
    </defs>
    <g clip-path="url(#p0b10e271c7)">
     <use xlink:href="#m832de6d59f" x="0" y="361.333136" style="fill: #ff7f0e; fill-opacity: 0.2; stroke: #ff7f0e; stroke-opacity: 0.2"/>
    </g>
   </g>
   <g id="matplotlib.axis_1">
    <g id="text_1">
     <text style="font: 10px 'Arial', sans-serif; text-anchor: middle" x="227.411283" y="296.533792" transform="rotate(-0 227.411283 296.533792)">Time</text>
    </g>
   </g>
   <g id="matplotlib.axis_2">
    <g id="ytick_1">
     <g id="line2d_1">
      <defs>
       <path id="m19ecbf7200" d="M 0 0 
L -3.5 0 
" style="stroke: #000000; stroke-width: 0.8"/>
      </defs>
      <g>
       <use xlink:href="#m19ecbf7200" x="48.851283" y="282.1335" style="stroke: #000000; stroke-width: 0.8"/>
      </g>
     </g>
     <g id="text_2">
      <text style="font: 10px 'Arial', sans-serif; text-anchor: end" x="41.851283" y="285.712407" transform="rotate(-0 41.851283 285.712407)">−0.6</text>
     </g>
    </g>
    <g id="ytick_2">
     <g id="line2d_2">
      <g>
       <use xlink:href="#m19ecbf7200" x="48.851283" y="250.261854" style="stroke: #000000; stroke-width: 0.8"/>
      </g>
     </g>
     <g id="text_3">
      <text style="font: 10px 'Arial', sans-serif; text-anchor: end" x="41.851283" y="253.84076" transform="rotate(-0 41.851283 253.84076)">−0.4</text>
     </g>
    </g>
    <g id="ytick_3">
     <g id="line2d_3">
      <g>
       <use xlink:href="#m19ecbf7200" x="48.851283" y="218.390207" style="stroke: #000000; stroke-width: 0.8"/>
      </g>
     </g>
     <g id="text_4">
      <text style="font: 10px 'Arial', sans-serif; text-anchor: end" x="41.851283" y="221.969113" transform="rotate(-0 41.851283 221.969113)">−0.2</text>
     </g>
    </g>
    <g id="ytick_4">
     <g id="line2d_4">
      <g>
       <use xlink:href="#m19ecbf7200" x="48.851283" y="186.51856" style="stroke: #000000; stroke-width: 0.8"/>
      </g>
     </g>
     <g id="text_5">
      <text style="font: 10px 'Arial', sans-serif; text-anchor: end" x="41.851283" y="190.097466" transform="rotate(-0 41.851283 190.097466)">0.0</text>
     </g>
    </g>
    <g id="ytick_5">
     <g id="line2d_5">
      <g>
       <use xlink:href="#m19ecbf7200" x="48.851283" y="154.646913" style="stroke: #000000; stroke-width: 0.8"/>
      </g>
     </g>
     <g id="text_6">
      <text style="font: 10px 'Arial', sans-serif; text-anchor: end" x="41.851283" y="158.22582" transform="rotate(-0 41.851283 158.22582)">0.2</text>
     </g>
    </g>
    <g id="ytick_6">
     <g id="line2d_6">
      <g>
       <use xlink:href="#m19ecbf7200" x="48.851283" y="122.775267" style="stroke: #000000; stroke-width: 0.8"/>
      </g>
     </g>
     <g id="text_7">
      <text style="font: 10px 'Arial', sans-serif; text-anchor: end" x="41.851283" y="126.354173" transform="rotate(-0 41.851283 126.354173)">0.4</text>
     </g>
    </g>
    <g id="ytick_7">
     <g id="line2d_7">
      <g>
       <use xlink:href="#m19ecbf7200" x="48.851283" y="90.90362" style="stroke: #000000; stroke-width: 0.8"/>
      </g>
     </g>
     <g id="text_8">
      <text style="font: 10px 'Arial', sans-serif; text-anchor: end" x="41.851283" y="94.482526" transform="rotate(-0 41.851283 94.482526)">0.6</text>
     </g>
    </g>
    <g id="ytick_8">
     <g id="line2d_8">
      <g>
       <use xlink:href="#m19ecbf7200" x="48.851283" y="59.031973" style="stroke: #000000; stroke-width: 0.8"/>
      </g>
     </g>
     <g id="text_9">
      <text style="font: 10px 'Arial', sans-serif; text-anchor: end" x="41.851283" y="62.610879" transform="rotate(-0 41.851283 62.610879)">0.8</text>
     </g>
    </g>
    <g id="ytick_9">
     <g id="line2d_9">
      <g>
       <use xlink:href="#m19ecbf7200" x="48.851283" y="27.160326" style="stroke: #000000; stroke-width: 0.8"/>
      </g>
     </g>
     <g id="text_10">
      <text style="font: 10px 'Arial', sans-serif; text-anchor: end" x="41.851283" y="30.739233" transform="rotate(-0 41.851283 30.739233)">1.0</text>
     </g>
    </g>
    <g id="text_11">
     <text style="font: 10px 'Arial', sans-serif; text-anchor: middle" x="16.005971" y="152.31998" transform="rotate(-90 16.005971 152.31998)">Activity</text>
    </g>
   </g>
   <g id="line2d_10">
    <path d="M 48.851283 243.765552 
L 60.011283 247.928783 
L 71.171283 252.102952 
L 82.331283 253.800755 
L 93.491283 251.357192 
L 104.651283 247.939578 
L 115.811283 238.892204 
L 126.971283 220.361429 
L 138.131283 205.473103 
L 149.291283 196.727611 
L 160.451283 188.509302 
L 171.611283 176.437561 
L 182.771283 165.207755 
L 193.931283 155.539536 
L 205.091283 146.948027 
L 216.251283 144.015805 
L 227.411283 136.232704 
L 238.571283 124.955943 
L 249.731283 115.430192 
L 260.891283 109.879046 
L 272.051283 107.323847 
L 283.211283 108.473587 
L 294.371283 106.963156 
L 305.531283 105.905362 
L 316.691283 107.514653 
L 327.851283 109.376305 
L 339.011283 97.203253 
L 350.171283 86.600952 
L 361.331283 79.110727 
L 372.491283 73.736908 
L 383.651283 62.305664 
L 394.811283 56.549322 
L 405.971283 52.301483 
" clip-path="url(#p0b10e271c7)" style="fill: none; stroke: #1f77b4; stroke-width: 1.5; stroke-linecap: square"/>
   </g>
   <g id="line2d_11">
    <path d="M 48.851283 257.267975 
L 60.011283 257.652739 
L 71.171283 260.048416 
L 82.331283 259.594231 
L 93.491283 255.414529 
L 104.651283 243.836999 
L 115.811283 231.59059 
L 126.971283 215.135784 
L 138.131283 204.247208 
L 149.291283 194.502907 
L 160.451283 184.19871 
L 171.611283 168.748418 
L 182.771283 162.434115 
L 193.931283 156.049788 
L 205.091283 144.639357 
L 216.251283 136.531322 
L 227.411283 128.765204 
L 238.571283 117.747239 
L 249.731283 112.678251 
L 260.891283 113.772453 
L 272.051283 112.402391 
L 283.211283 104.877454 
L 294.371283 103.094739 
L 305.531283 99.681751 
L 316.691283 96.304373 
L 327.851283 95.833675 
L 339.011283 95.545101 
L 350.171283 97.424444 
L 361.331283 99.79636 
L 372.491283 103.689563 
L 383.651283 110.720313 
L 394.811283 112.496222 
L 405.971283 115.783355 
" clip-path="url(#p0b10e271c7)" style="fill: none; stroke: #ff7f0e; stroke-width: 1.5; stroke-linecap: square"/>
   </g>
   <g id="line2d_12">
    <path d="M 82.331283 285.37598 
L 82.331283 19.26398 
" clip-path="url(#p0b10e271c7)" style="fill: none; stroke-dasharray: 5.55,2.4; stroke-dashoffset: 0; stroke: #000000; stroke-opacity: 0.5; stroke-width: 1.5"/>
   </g>
   <g id="line2d_13">
    <path d="M 383.651283 285.37598 
L 383.651283 19.26398 
" clip-path="url(#p0b10e271c7)" style="fill: none; stroke-dasharray: 5.55,2.4; stroke-dashoffset: 0; stroke: #000000; stroke-opacity: 0.5; stroke-width: 1.5"/>
   </g>
   <g id="patch_3">
    <path d="M 48.851283 285.37598 
L 405.971283 285.37598 
" style="fill: none; stroke: #000000; stroke-width: 0.8; stroke-linejoin: miter; stroke-linecap: square"/>
   </g>
   <g id="text_12">
    <text style="font: 6.94px 'Arial', sans-serif" transform="translate(10.097767 321.385533) rotate(-35)">-0.1s Sampling</text>
   </g>
   <g id="text_13">
    <text style="font: 6.94px 'Arial', sans-serif" transform="translate(57.794497 311.430872) rotate(-35)">Sampling</text>
   </g>
   <g id="text_14">
    <text style="font: 6.94px 'Arial', sans-serif" transform="translate(319.037191 339.456682) rotate(-35)">Movement to Lateral Port</text>
   </g>
   <g id="text_15">
    <text style="font: 8.33px 'Arial', sans-serif; text-anchor: middle" x="227.411283" y="13.26398" transform="rotate(-0 227.411283 13.26398)">GP4_80_S4_L50_D250_M2m - Trace:32_GP4_80_S4_L50_D250_M2m (when: correct)</text>
   </g>
   <g id="legend_1">
    <g id="patch_4">
     <path d="M 133.696342 354.133136 
L 321.126224 354.133136 
Q 322.514224 354.133136 322.514224 352.745136 
L 322.514224 343.45638 
Q 322.514224 342.06838 321.126224 342.06838 
L 133.696342 342.06838 
Q 132.308342 342.06838 132.308342 343.45638 
L 132.308342 352.745136 
Q 132.308342 354.133136 133.696342 354.133136 
z
" style="fill: #ffffff; opacity: 0.8; stroke: #cccccc; stroke-linejoin: miter"/>
    </g>
    <g id="line2d_14">
     <path d="M 135.084342 347.467483 
L 142.024342 347.467483 
L 148.964342 347.467483 
" style="fill: none; stroke: #1f77b4; stroke-width: 1.5; stroke-linecap: square"/>
    </g>
    <g id="text_16">
     <text style="font: 6.94px 'Arial', sans-serif; text-anchor: start" x="154.516342" y="349.896483" transform="rotate(-0 154.516342 349.896483)">DecisionRight (97 pts)</text>
    </g>
    <g id="line2d_15">
     <path d="M 236.664255 347.467483 
L 243.604255 347.467483 
L 250.544255 347.467483 
" style="fill: none; stroke: #ff7f0e; stroke-width: 1.5; stroke-linecap: square"/>
    </g>
    <g id="text_17">
     <text style="font: 6.94px 'Arial', sans-serif; text-anchor: start" x="256.096255" y="349.896483" transform="rotate(-0 256.096255 349.896483)">DecisionLeft (82 pts)</text>
    </g>
   </g>
  </g>
 </g>
 <defs>
  <clipPath id="p0b10e271c7">
   <rect x="48.851283" y="19.26398" width="357.12" height="266.112"/>
  </clipPath>
 </defs>
</svg>
