<?xml version="1.0" encoding="utf-8" standalone="no"?>
<!DOCTYPE svg PUBLIC "-//W3C//DTD SVG 1.1//EN"
  "http://www.w3.org/Graphics/SVG/1.1/DTD/svg11.dtd">
<svg xmlns:xlink="http://www.w3.org/1999/xlink" width="413.171283pt" height="361.333136pt" viewBox="0 0 413.171283 361.333136" xmlns="http://www.w3.org/2000/svg" version="1.1">
 <metadata>
  <rdf:RDF xmlns:dc="http://purl.org/dc/elements/1.1/" xmlns:cc="http://creativecommons.org/ns#" xmlns:rdf="http://www.w3.org/1999/02/22-rdf-syntax-ns#">
   <cc:Work>
    <dc:type rdf:resource="http://purl.org/dc/dcmitype/StillImage"/>
    <dc:date>2025-12-29T04:07:38.525374</dc:date>
    <dc:format>image/svg+xml</dc:format>
    <dc:creator>
     <cc:Agent>
      <dc:title>Matplotlib v3.8.0, https://matplotlib.org/</dc:title>
     </cc:Agent>
    </dc:creator>
   </cc:Work>
  </rdf:RDF>
 </metadata>
 <defs>
  <style type="text/css">*{stroke-linejoin: round; stroke-linecap: butt}</style>
 </defs>
 <g id="figure_1">
  <g id="patch_1">
   <path d="M 0 361.333136 
L 413.171283 361.333136 
L 413.171283 -0 
L 0 -0 
z
" style="fill: #ffffff"/>
  </g>
  <g id="axes_1">
   <g id="patch_2">
    <path d="M 48.851283 285.37598 
L 405.971283 285.37598 
L 405.971283 19.26398 
L 48.851283 19.26398 
z
" style="fill: #ffffff"/>
   </g>
   <g id="PolyCollection_1">
    <defs>
     <path id="md2f543b82d" d="M 48.851283 -168.544081 
L 48.851283 -101.742861 
L 60.011283 -101.065697 
L 71.171283 -105.965086 
L 82.331283 -88.851943 
L 93.491283 -88.053156 
L 104.651283 -102.063518 
L 115.811283 -110.557937 
L 126.971283 -134.858916 
L 138.131283 -150.437872 
L 149.291283 -150.104886 
L 160.451283 -123.729613 
L 171.611283 -124.123276 
L 182.771283 -127.331641 
L 193.931283 -147.475641 
L 205.091283 -159.683935 
L 216.251283 -144.907012 
L 227.411283 -126.841273 
L 238.571283 -146.759926 
L 249.731283 -167.416682 
L 260.891283 -167.671234 
L 272.051283 -187.033029 
L 283.211283 -180.284101 
L 294.371283 -152.952935 
L 305.531283 -156.670645 
L 316.691283 -162.897595 
L 327.851283 -161.230007 
L 339.011283 -169.277312 
L 350.171283 -186.404028 
L 361.331283 -198.024677 
L 372.491283 -211.749152 
L 383.651283 -224.588049 
L 394.811283 -236.73583 
L 405.971283 -224.504537 
L 405.971283 -297.098915 
L 405.971283 -297.098915 
L 394.811283 -320.220138 
L 383.651283 -315.264104 
L 372.491283 -299.97009 
L 361.331283 -282.686649 
L 350.171283 -264.783603 
L 339.011283 -238.875712 
L 327.851283 -233.567612 
L 316.691283 -241.689484 
L 305.531283 -230.941874 
L 294.371283 -227.799259 
L 283.211283 -256.840628 
L 272.051283 -268.311634 
L 260.891283 -240.916438 
L 249.731283 -236.153026 
L 238.571283 -213.311273 
L 227.411283 -194.0947 
L 216.251283 -216.49361 
L 205.091283 -237.53253 
L 193.931283 -229.007732 
L 182.771283 -211.097113 
L 171.611283 -218.956452 
L 160.451283 -220.575693 
L 149.291283 -255.874303 
L 138.131283 -253.35195 
L 126.971283 -227.705424 
L 115.811283 -193.764931 
L 104.651283 -183.561673 
L 93.491283 -162.524086 
L 82.331283 -161.513092 
L 71.171283 -176.220189 
L 60.011283 -168.70348 
L 48.851283 -168.544081 
z
" style="stroke: #1f77b4; stroke-opacity: 0.2"/>
    </defs>
    <g clip-path="url(#p89d95e9ced)">
     <use xlink:href="#md2f543b82d" x="0" y="361.333136" style="fill: #1f77b4; fill-opacity: 0.2; stroke: #1f77b4; stroke-opacity: 0.2"/>
    </g>
   </g>
   <g id="PolyCollection_2">
    <defs>
     <path id="m9894ee4c86" d="M 48.851283 -229.624199 
L 48.851283 -162.532154 
L 60.011283 -155.108628 
L 71.171283 -161.534307 
L 82.331283 -145.213975 
L 93.491283 -128.703909 
L 104.651283 -126.793137 
L 115.811283 -126.121425 
L 126.971283 -100.015804 
L 138.131283 -114.370399 
L 149.291283 -105.482651 
L 160.451283 -102.934538 
L 171.611283 -100.387238 
L 182.771283 -108.154245 
L 193.931283 -144.719991 
L 205.091283 -163.105038 
L 216.251283 -190.00365 
L 227.411283 -188.455504 
L 238.571283 -168.051747 
L 249.731283 -179.509304 
L 260.891283 -208.231853 
L 272.051283 -213.846103 
L 283.211283 -207.539039 
L 294.371283 -189.966142 
L 305.531283 -216.437495 
L 316.691283 -247.673501 
L 327.851283 -247.115776 
L 339.011283 -209.526685 
L 350.171283 -213.215967 
L 361.331283 -227.907713 
L 372.491283 -198.712953 
L 383.651283 -189.757483 
L 394.811283 -219.435163 
L 405.971283 -234.970849 
L 405.971283 -329.973156 
L 405.971283 -329.973156 
L 394.811283 -318.056158 
L 383.651283 -288.76912 
L 372.491283 -295.07918 
L 361.331283 -321.788686 
L 350.171283 -302.386278 
L 339.011283 -291.032564 
L 327.851283 -322.654426 
L 316.691283 -325.480325 
L 305.531283 -294.835845 
L 294.371283 -267.33408 
L 283.211283 -293.916573 
L 272.051283 -303.757212 
L 260.891283 -289.385016 
L 249.731283 -252.935124 
L 238.571283 -232.103793 
L 227.411283 -246.40848 
L 216.251283 -257.467338 
L 205.091283 -231.219984 
L 193.931283 -203.188273 
L 182.771283 -159.823462 
L 171.611283 -160.653138 
L 160.451283 -159.775481 
L 149.291283 -157.410829 
L 138.131283 -167.679635 
L 126.971283 -156.751502 
L 115.811283 -185.7717 
L 104.651283 -186.305434 
L 93.491283 -197.244799 
L 82.331283 -217.230961 
L 71.171283 -237.720413 
L 60.011283 -227.71835 
L 48.851283 -229.624199 
z
" style="stroke: #ff7f0e; stroke-opacity: 0.2"/>
    </defs>
    <g clip-path="url(#p89d95e9ced)">
     <use xlink:href="#m9894ee4c86" x="0" y="361.333136" style="fill: #ff7f0e; fill-opacity: 0.2; stroke: #ff7f0e; stroke-opacity: 0.2"/>
    </g>
   </g>
   <g id="matplotlib.axis_1">
    <g id="text_1">
     <text style="font: 10px 'Arial', sans-serif; text-anchor: middle" x="227.411283" y="296.533792" transform="rotate(-0 227.411283 296.533792)">Time</text>
    </g>
   </g>
   <g id="matplotlib.axis_2">
    <g id="ytick_1">
     <g id="line2d_1">
      <defs>
       <path id="m656c64f718" d="M 0 0 
L -3.5 0 
" style="stroke: #000000; stroke-width: 0.8"/>
      </defs>
      <g>
       <use xlink:href="#m656c64f718" x="48.851283" y="259.310628" style="stroke: #000000; stroke-width: 0.8"/>
      </g>
     </g>
     <g id="text_2">
      <text style="font: 10px 'Arial', sans-serif; text-anchor: end" x="41.851283" y="262.889534" transform="rotate(-0 41.851283 262.889534)">−0.2</text>
     </g>
    </g>
    <g id="ytick_2">
     <g id="line2d_2">
      <g>
       <use xlink:href="#m656c64f718" x="48.851283" y="225.400165" style="stroke: #000000; stroke-width: 0.8"/>
      </g>
     </g>
     <g id="text_3">
      <text style="font: 10px 'Arial', sans-serif; text-anchor: end" x="41.851283" y="228.979071" transform="rotate(-0 41.851283 228.979071)">−0.1</text>
     </g>
    </g>
    <g id="ytick_3">
     <g id="line2d_3">
      <g>
       <use xlink:href="#m656c64f718" x="48.851283" y="191.489703" style="stroke: #000000; stroke-width: 0.8"/>
      </g>
     </g>
     <g id="text_4">
      <text style="font: 10px 'Arial', sans-serif; text-anchor: end" x="41.851283" y="195.068609" transform="rotate(-0 41.851283 195.068609)">0.0</text>
     </g>
    </g>
    <g id="ytick_4">
     <g id="line2d_4">
      <g>
       <use xlink:href="#m656c64f718" x="48.851283" y="157.57924" style="stroke: #000000; stroke-width: 0.8"/>
      </g>
     </g>
     <g id="text_5">
      <text style="font: 10px 'Arial', sans-serif; text-anchor: end" x="41.851283" y="161.158147" transform="rotate(-0 41.851283 161.158147)">0.1</text>
     </g>
    </g>
    <g id="ytick_5">
     <g id="line2d_5">
      <g>
       <use xlink:href="#m656c64f718" x="48.851283" y="123.668778" style="stroke: #000000; stroke-width: 0.8"/>
      </g>
     </g>
     <g id="text_6">
      <text style="font: 10px 'Arial', sans-serif; text-anchor: end" x="41.851283" y="127.247684" transform="rotate(-0 41.851283 127.247684)">0.2</text>
     </g>
    </g>
    <g id="ytick_6">
     <g id="line2d_6">
      <g>
       <use xlink:href="#m656c64f718" x="48.851283" y="89.758316" style="stroke: #000000; stroke-width: 0.8"/>
      </g>
     </g>
     <g id="text_7">
      <text style="font: 10px 'Arial', sans-serif; text-anchor: end" x="41.851283" y="93.337222" transform="rotate(-0 41.851283 93.337222)">0.3</text>
     </g>
    </g>
    <g id="ytick_7">
     <g id="line2d_7">
      <g>
       <use xlink:href="#m656c64f718" x="48.851283" y="55.847853" style="stroke: #000000; stroke-width: 0.8"/>
      </g>
     </g>
     <g id="text_8">
      <text style="font: 10px 'Arial', sans-serif; text-anchor: end" x="41.851283" y="59.426759" transform="rotate(-0 41.851283 59.426759)">0.4</text>
     </g>
    </g>
    <g id="ytick_8">
     <g id="line2d_8">
      <g>
       <use xlink:href="#m656c64f718" x="48.851283" y="21.937391" style="stroke: #000000; stroke-width: 0.8"/>
      </g>
     </g>
     <g id="text_9">
      <text style="font: 10px 'Arial', sans-serif; text-anchor: end" x="41.851283" y="25.516297" transform="rotate(-0 41.851283 25.516297)">0.5</text>
     </g>
    </g>
    <g id="text_10">
     <text style="font: 10px 'Arial', sans-serif; text-anchor: middle" x="16.005971" y="152.31998" transform="rotate(-90 16.005971 152.31998)">Activity</text>
    </g>
   </g>
   <g id="line2d_9">
    <path d="M 48.851283 226.189665 
L 60.011283 226.448548 
L 71.171283 220.240499 
L 82.331283 236.150619 
L 93.491283 236.044515 
L 104.651283 218.520541 
L 115.811283 209.171701 
L 126.971283 180.050967 
L 138.131283 159.438225 
L 149.291283 158.343542 
L 160.451283 189.180484 
L 171.611283 189.793271 
L 182.771283 192.118758 
L 193.931283 173.09145 
L 205.091283 162.724905 
L 216.251283 180.632826 
L 227.411283 200.865151 
L 238.571283 181.297536 
L 249.731283 159.548283 
L 260.891283 157.039298 
L 272.051283 133.660805 
L 283.211283 142.770771 
L 294.371283 170.95704 
L 305.531283 167.526876 
L 316.691283 159.039597 
L 327.851283 163.934328 
L 339.011283 157.256623 
L 350.171283 135.739322 
L 361.331283 120.977471 
L 372.491283 105.473517 
L 383.651283 91.407062 
L 394.811283 82.855154 
L 405.971283 100.53141 
" clip-path="url(#p89d95e9ced)" style="fill: none; stroke: #1f77b4; stroke-width: 1.5; stroke-linecap: square"/>
   </g>
   <g id="line2d_10">
    <path d="M 48.851283 165.254958 
L 60.011283 169.919646 
L 71.171283 161.705775 
L 82.331283 180.110667 
L 93.491283 198.358781 
L 104.651283 204.783851 
L 115.811283 205.386574 
L 126.971283 232.949482 
L 138.131283 220.308119 
L 149.291283 229.886395 
L 160.451283 229.978125 
L 171.611283 230.812948 
L 182.771283 227.344282 
L 193.931283 187.379003 
L 205.091283 164.170626 
L 216.251283 137.597643 
L 227.411283 143.901144 
L 238.571283 161.255366 
L 249.731283 145.110921 
L 260.891283 112.524699 
L 272.051283 102.531479 
L 283.211283 110.605327 
L 294.371283 132.683024 
L 305.531283 105.696468 
L 316.691283 74.756223 
L 327.851283 76.448035 
L 339.011283 111.053513 
L 350.171283 103.532013 
L 361.331283 86.484934 
L 372.491283 114.437072 
L 383.651283 122.069834 
L 394.811283 92.587475 
L 405.971283 78.861131 
" clip-path="url(#p89d95e9ced)" style="fill: none; stroke: #ff7f0e; stroke-width: 1.5; stroke-linecap: square"/>
   </g>
   <g id="line2d_11">
    <path d="M 82.331283 285.37598 
L 82.331283 19.26398 
" clip-path="url(#p89d95e9ced)" style="fill: none; stroke-dasharray: 5.55,2.4; stroke-dashoffset: 0; stroke: #000000; stroke-opacity: 0.5; stroke-width: 1.5"/>
   </g>
   <g id="line2d_12">
    <path d="M 383.651283 285.37598 
L 383.651283 19.26398 
" clip-path="url(#p89d95e9ced)" style="fill: none; stroke-dasharray: 5.55,2.4; stroke-dashoffset: 0; stroke: #000000; stroke-opacity: 0.5; stroke-width: 1.5"/>
   </g>
   <g id="patch_3">
    <path d="M 48.851283 285.37598 
L 405.971283 285.37598 
" style="fill: none; stroke: #000000; stroke-width: 0.8; stroke-linejoin: miter; stroke-linecap: square"/>
   </g>
   <g id="text_11">
    <text style="font: 6.94px 'Arial', sans-serif" transform="translate(10.097767 321.385533) rotate(-35)">-0.1s Sampling</text>
   </g>
   <g id="text_12">
    <text style="font: 6.94px 'Arial', sans-serif" transform="translate(57.794497 311.430872) rotate(-35)">Sampling</text>
   </g>
   <g id="text_13">
    <text style="font: 6.94px 'Arial', sans-serif" transform="translate(319.037191 339.456682) rotate(-35)">Movement to Lateral Port</text>
   </g>
   <g id="text_14">
    <text style="font: 8.33px 'Arial', sans-serif; text-anchor: middle" x="227.411283" y="13.26398" transform="rotate(-0 227.411283 13.26398)">GP4_80_S4_L50_D250_M2m - Trace:41_GP4_80_S4_L50_D250_M2m (when: correct)</text>
   </g>
   <g id="legend_1">
    <g id="patch_4">
     <path d="M 133.696342 354.133136 
L 321.126224 354.133136 
Q 322.514224 354.133136 322.514224 352.745136 
L 322.514224 343.45638 
Q 322.514224 342.06838 321.126224 342.06838 
L 133.696342 342.06838 
Q 132.308342 342.06838 132.308342 343.45638 
L 132.308342 352.745136 
Q 132.308342 354.133136 133.696342 354.133136 
z
" style="fill: #ffffff; opacity: 0.8; stroke: #cccccc; stroke-linejoin: miter"/>
    </g>
    <g id="line2d_13">
     <path d="M 135.084342 347.467483 
L 142.024342 347.467483 
L 148.964342 347.467483 
" style="fill: none; stroke: #1f77b4; stroke-width: 1.5; stroke-linecap: square"/>
    </g>
    <g id="text_15">
     <text style="font: 6.94px 'Arial', sans-serif; text-anchor: start" x="154.516342" y="349.896483" transform="rotate(-0 154.516342 349.896483)">DecisionRight (97 pts)</text>
    </g>
    <g id="line2d_14">
     <path d="M 236.664255 347.467483 
L 243.604255 347.467483 
L 250.544255 347.467483 
" style="fill: none; stroke: #ff7f0e; stroke-width: 1.5; stroke-linecap: square"/>
    </g>
    <g id="text_16">
     <text style="font: 6.94px 'Arial', sans-serif; text-anchor: start" x="256.096255" y="349.896483" transform="rotate(-0 256.096255 349.896483)">DecisionLeft (82 pts)</text>
    </g>
   </g>
  </g>
 </g>
 <defs>
  <clipPath id="p89d95e9ced">
   <rect x="48.851283" y="19.26398" width="357.12" height="266.112"/>
  </clipPath>
 </defs>
</svg>
