<?xml version="1.0" encoding="utf-8" standalone="no"?>
<!DOCTYPE svg PUBLIC "-//W3C//DTD SVG 1.1//EN"
  "http://www.w3.org/Graphics/SVG/1.1/DTD/svg11.dtd">
<svg xmlns:xlink="http://www.w3.org/1999/xlink" width="413.171283pt" height="361.333136pt" viewBox="0 0 413.171283 361.333136" xmlns="http://www.w3.org/2000/svg" version="1.1">
 <metadata>
  <rdf:RDF xmlns:dc="http://purl.org/dc/elements/1.1/" xmlns:cc="http://creativecommons.org/ns#" xmlns:rdf="http://www.w3.org/1999/02/22-rdf-syntax-ns#">
   <cc:Work>
    <dc:type rdf:resource="http://purl.org/dc/dcmitype/StillImage"/>
    <dc:date>2025-12-29T04:07:43.355835</dc:date>
    <dc:format>image/svg+xml</dc:format>
    <dc:creator>
     <cc:Agent>
      <dc:title>Matplotlib v3.8.0, https://matplotlib.org/</dc:title>
     </cc:Agent>
    </dc:creator>
   </cc:Work>
  </rdf:RDF>
 </metadata>
 <defs>
  <style type="text/css">*{stroke-linejoin: round; stroke-linecap: butt}</style>
 </defs>
 <g id="figure_1">
  <g id="patch_1">
   <path d="M 0 361.333136 
L 413.171283 361.333136 
L 413.171283 -0 
L 0 -0 
z
" style="fill: #ffffff"/>
  </g>
  <g id="axes_1">
   <g id="patch_2">
    <path d="M 48.851283 285.37598 
L 405.971283 285.37598 
L 405.971283 19.26398 
L 48.851283 19.26398 
z
" style="fill: #ffffff"/>
   </g>
   <g id="PolyCollection_1">
    <defs>
     <path id="ma8d60299dd" d="M 48.851283 -184.75225 
L 48.851283 -140.361458 
L 60.011283 -136.809631 
L 71.171283 -135.947234 
L 82.331283 -141.273565 
L 93.491283 -142.866528 
L 104.651283 -139.665935 
L 115.811283 -133.7667 
L 126.971283 -128.834082 
L 138.131283 -124.607139 
L 149.291283 -122.201315 
L 160.451283 -123.560291 
L 171.611283 -124.424117 
L 182.771283 -124.84362 
L 193.931283 -124.58926 
L 205.091283 -122.073579 
L 216.251283 -116.529894 
L 227.411283 -112.34885 
L 238.571283 -112.06766 
L 249.731283 -113.620032 
L 260.891283 -111.779516 
L 272.051283 -108.672396 
L 283.211283 -105.950587 
L 294.371283 -105.381755 
L 305.531283 -109.417851 
L 316.691283 -115.763622 
L 327.851283 -114.646234 
L 339.011283 -106.890422 
L 350.171283 -98.019884 
L 361.331283 -94.015892 
L 372.491283 -92.421466 
L 383.651283 -89.798705 
L 394.811283 -88.308762 
L 405.971283 -88.053156 
L 405.971283 -104.131142 
L 405.971283 -104.131142 
L 394.811283 -106.172069 
L 383.651283 -108.977121 
L 372.491283 -110.821916 
L 361.331283 -112.383102 
L 350.171283 -117.246664 
L 339.011283 -127.262606 
L 327.851283 -135.159585 
L 316.691283 -135.8734 
L 305.531283 -129.355353 
L 294.371283 -125.143681 
L 283.211283 -126.22281 
L 272.051283 -130.32592 
L 260.891283 -134.947474 
L 249.731283 -138.354339 
L 238.571283 -137.094344 
L 227.411283 -137.595476 
L 216.251283 -143.471824 
L 205.091283 -151.940795 
L 193.931283 -156.630817 
L 182.771283 -157.978119 
L 171.611283 -158.556043 
L 160.451283 -159.104375 
L 149.291283 -159.210532 
L 138.131283 -162.862202 
L 126.971283 -168.978086 
L 115.811283 -176.554735 
L 104.651283 -184.792093 
L 93.491283 -189.438087 
L 82.331283 -188.973859 
L 71.171283 -184.510431 
L 60.011283 -183.731954 
L 48.851283 -184.75225 
z
" style="stroke: #1f77b4; stroke-opacity: 0.2"/>
    </defs>
    <g clip-path="url(#p81b2c41e0d)">
     <use xlink:href="#ma8d60299dd" x="0" y="361.333136" style="fill: #1f77b4; fill-opacity: 0.2; stroke: #1f77b4; stroke-opacity: 0.2"/>
    </g>
   </g>
   <g id="PolyCollection_2">
    <defs>
     <path id="mf7141a1ebc" d="M 48.851283 -309.669929 
L 48.851283 -251.969922 
L 60.011283 -258.171125 
L 71.171283 -266.496499 
L 82.331283 -269.647389 
L 93.491283 -262.984969 
L 104.651283 -254.257249 
L 115.811283 -248.538135 
L 126.971283 -240.5962 
L 138.131283 -233.473305 
L 149.291283 -228.642334 
L 160.451283 -225.697948 
L 171.611283 -222.830721 
L 182.771283 -215.711089 
L 193.931283 -207.94659 
L 205.091283 -199.791228 
L 216.251283 -192.702276 
L 227.411283 -187.85974 
L 238.571283 -184.075865 
L 249.731283 -178.73575 
L 260.891283 -173.755554 
L 272.051283 -170.144878 
L 283.211283 -169.551467 
L 294.371283 -168.385095 
L 305.531283 -164.125849 
L 316.691283 -161.777209 
L 327.851283 -158.365306 
L 339.011283 -153.002848 
L 350.171283 -145.333018 
L 361.331283 -136.155286 
L 372.491283 -128.282143 
L 383.651283 -117.088933 
L 394.811283 -110.634714 
L 405.971283 -108.816865 
L 405.971283 -128.294651 
L 405.971283 -128.294651 
L 394.811283 -131.439212 
L 383.651283 -139.825598 
L 372.491283 -153.209103 
L 361.331283 -161.35265 
L 350.171283 -171.281126 
L 339.011283 -179.883006 
L 327.851283 -186.759917 
L 316.691283 -191.094348 
L 305.531283 -192.954978 
L 294.371283 -196.655634 
L 283.211283 -198.508145 
L 272.051283 -201.055947 
L 260.891283 -206.292266 
L 249.731283 -212.974933 
L 238.571283 -219.910072 
L 227.411283 -225.407019 
L 216.251283 -231.543017 
L 205.091283 -239.89853 
L 193.931283 -250.068537 
L 182.771283 -260.439013 
L 171.611283 -270.230875 
L 160.451283 -275.016062 
L 149.291283 -279.210589 
L 138.131283 -284.908073 
L 126.971283 -293.1421 
L 115.811283 -302.864001 
L 104.651283 -310.74122 
L 93.491283 -321.708109 
L 82.331283 -329.973156 
L 71.171283 -326.429872 
L 60.011283 -316.631632 
L 48.851283 -309.669929 
z
" style="stroke: #ff7f0e; stroke-opacity: 0.2"/>
    </defs>
    <g clip-path="url(#p81b2c41e0d)">
     <use xlink:href="#mf7141a1ebc" x="0" y="361.333136" style="fill: #ff7f0e; fill-opacity: 0.2; stroke: #ff7f0e; stroke-opacity: 0.2"/>
    </g>
   </g>
   <g id="matplotlib.axis_1">
    <g id="text_1">
     <text style="font: 10px 'Arial', sans-serif; text-anchor: middle" x="227.411283" y="296.533792" transform="rotate(-0 227.411283 296.533792)">Time</text>
    </g>
   </g>
   <g id="matplotlib.axis_2">
    <g id="ytick_1">
     <g id="line2d_1">
      <defs>
       <path id="m93e3b95ef8" d="M 0 0 
L -3.5 0 
" style="stroke: #000000; stroke-width: 0.8"/>
      </defs>
      <g>
       <use xlink:href="#m93e3b95ef8" x="48.851283" y="244.465993" style="stroke: #000000; stroke-width: 0.8"/>
      </g>
     </g>
     <g id="text_2">
      <text style="font: 10px 'Arial', sans-serif; text-anchor: end" x="41.851283" y="248.0449" transform="rotate(-0 41.851283 248.0449)">−0.2</text>
     </g>
    </g>
    <g id="ytick_2">
     <g id="line2d_2">
      <g>
       <use xlink:href="#m93e3b95ef8" x="48.851283" y="203.389837" style="stroke: #000000; stroke-width: 0.8"/>
      </g>
     </g>
     <g id="text_3">
      <text style="font: 10px 'Arial', sans-serif; text-anchor: end" x="41.851283" y="206.968743" transform="rotate(-0 41.851283 206.968743)">0.0</text>
     </g>
    </g>
    <g id="ytick_3">
     <g id="line2d_3">
      <g>
       <use xlink:href="#m93e3b95ef8" x="48.851283" y="162.31368" style="stroke: #000000; stroke-width: 0.8"/>
      </g>
     </g>
     <g id="text_4">
      <text style="font: 10px 'Arial', sans-serif; text-anchor: end" x="41.851283" y="165.892586" transform="rotate(-0 41.851283 165.892586)">0.2</text>
     </g>
    </g>
    <g id="ytick_4">
     <g id="line2d_4">
      <g>
       <use xlink:href="#m93e3b95ef8" x="48.851283" y="121.237523" style="stroke: #000000; stroke-width: 0.8"/>
      </g>
     </g>
     <g id="text_5">
      <text style="font: 10px 'Arial', sans-serif; text-anchor: end" x="41.851283" y="124.816429" transform="rotate(-0 41.851283 124.816429)">0.4</text>
     </g>
    </g>
    <g id="ytick_5">
     <g id="line2d_5">
      <g>
       <use xlink:href="#m93e3b95ef8" x="48.851283" y="80.161366" style="stroke: #000000; stroke-width: 0.8"/>
      </g>
     </g>
     <g id="text_6">
      <text style="font: 10px 'Arial', sans-serif; text-anchor: end" x="41.851283" y="83.740272" transform="rotate(-0 41.851283 83.740272)">0.6</text>
     </g>
    </g>
    <g id="ytick_6">
     <g id="line2d_6">
      <g>
       <use xlink:href="#m93e3b95ef8" x="48.851283" y="39.085209" style="stroke: #000000; stroke-width: 0.8"/>
      </g>
     </g>
     <g id="text_7">
      <text style="font: 10px 'Arial', sans-serif; text-anchor: end" x="41.851283" y="42.664115" transform="rotate(-0 41.851283 42.664115)">0.8</text>
     </g>
    </g>
    <g id="text_8">
     <text style="font: 10px 'Arial', sans-serif; text-anchor: middle" x="16.005971" y="152.31998" transform="rotate(-90 16.005971 152.31998)">Activity</text>
    </g>
   </g>
   <g id="line2d_7">
    <path d="M 48.851283 198.776281 
L 60.011283 201.062343 
L 71.171283 201.104304 
L 82.331283 196.209424 
L 93.491283 195.180828 
L 104.651283 199.104123 
L 115.811283 206.172418 
L 126.971283 212.427052 
L 138.131283 217.598466 
L 149.291283 220.627213 
L 160.451283 220.000804 
L 171.611283 219.843056 
L 182.771283 219.922266 
L 193.931283 220.723098 
L 205.091283 224.325948 
L 216.251283 231.332278 
L 227.411283 236.360973 
L 238.571283 236.752133 
L 249.731283 235.34595 
L 260.891283 237.969642 
L 272.051283 241.833978 
L 283.211283 245.246436 
L 294.371283 246.070418 
L 305.531283 241.946534 
L 316.691283 235.514625 
L 327.851283 236.430227 
L 339.011283 244.256622 
L 350.171283 253.699864 
L 361.331283 258.133639 
L 372.491283 259.711446 
L 383.651283 261.945223 
L 394.811283 264.09272 
L 405.971283 265.240987 
" clip-path="url(#p81b2c41e0d)" style="fill: none; stroke: #1f77b4; stroke-width: 1.5; stroke-linecap: square"/>
   </g>
   <g id="line2d_8">
    <path d="M 48.851283 80.513211 
L 60.011283 73.931758 
L 71.171283 64.869951 
L 82.331283 61.522863 
L 93.491283 68.986597 
L 104.651283 78.833901 
L 115.811283 85.632068 
L 126.971283 94.463989 
L 138.131283 102.142447 
L 149.291283 107.406674 
L 160.451283 110.976131 
L 171.611283 114.802338 
L 182.771283 123.258085 
L 193.931283 132.325572 
L 205.091283 141.488257 
L 216.251283 149.210491 
L 227.411283 154.699756 
L 238.571283 159.340167 
L 249.731283 165.477793 
L 260.891283 171.309225 
L 272.051283 175.732723 
L 283.211283 177.30333 
L 294.371283 178.812771 
L 305.531283 182.792723 
L 316.691283 184.897357 
L 327.851283 188.770525 
L 339.011283 194.890209 
L 350.171283 203.026063 
L 361.331283 212.579169 
L 372.491283 220.587514 
L 383.651283 232.87587 
L 394.811283 240.296173 
L 405.971283 242.777378 
" clip-path="url(#p81b2c41e0d)" style="fill: none; stroke: #ff7f0e; stroke-width: 1.5; stroke-linecap: square"/>
   </g>
   <g id="line2d_9">
    <path d="M 82.331283 285.37598 
L 82.331283 19.26398 
" clip-path="url(#p81b2c41e0d)" style="fill: none; stroke-dasharray: 5.55,2.4; stroke-dashoffset: 0; stroke: #000000; stroke-opacity: 0.5; stroke-width: 1.5"/>
   </g>
   <g id="line2d_10">
    <path d="M 383.651283 285.37598 
L 383.651283 19.26398 
" clip-path="url(#p81b2c41e0d)" style="fill: none; stroke-dasharray: 5.55,2.4; stroke-dashoffset: 0; stroke: #000000; stroke-opacity: 0.5; stroke-width: 1.5"/>
   </g>
   <g id="patch_3">
    <path d="M 48.851283 285.37598 
L 405.971283 285.37598 
" style="fill: none; stroke: #000000; stroke-width: 0.8; stroke-linejoin: miter; stroke-linecap: square"/>
   </g>
   <g id="text_9">
    <text style="font: 6.94px 'Arial', sans-serif" transform="translate(10.097767 321.385533) rotate(-35)">-0.1s Sampling</text>
   </g>
   <g id="text_10">
    <text style="font: 6.94px 'Arial', sans-serif" transform="translate(57.794497 311.430872) rotate(-35)">Sampling</text>
   </g>
   <g id="text_11">
    <text style="font: 6.94px 'Arial', sans-serif" transform="translate(319.037191 339.456682) rotate(-35)">Movement to Lateral Port</text>
   </g>
   <g id="text_12">
    <text style="font: 8.33px 'Arial', sans-serif; text-anchor: middle" x="227.411283" y="13.26398" transform="rotate(-0 227.411283 13.26398)">gp4_81_S8_L65_D250_ALM - Trace:0_gp4_81_S8_L65_D250_ALM (when: correct)</text>
   </g>
   <g id="legend_1">
    <g id="patch_4">
     <path d="M 133.696342 354.133136 
L 321.126224 354.133136 
Q 322.514224 354.133136 322.514224 352.745136 
L 322.514224 343.45638 
Q 322.514224 342.06838 321.126224 342.06838 
L 133.696342 342.06838 
Q 132.308342 342.06838 132.308342 343.45638 
L 132.308342 352.745136 
Q 132.308342 354.133136 133.696342 354.133136 
z
" style="fill: #ffffff; opacity: 0.8; stroke: #cccccc; stroke-linejoin: miter"/>
    </g>
    <g id="line2d_11">
     <path d="M 135.084342 347.467483 
L 142.024342 347.467483 
L 148.964342 347.467483 
" style="fill: none; stroke: #1f77b4; stroke-width: 1.5; stroke-linecap: square"/>
    </g>
    <g id="text_13">
     <text style="font: 6.94px 'Arial', sans-serif; text-anchor: start" x="154.516342" y="349.896483" transform="rotate(-0 154.516342 349.896483)">DecisionRight (95 pts)</text>
    </g>
    <g id="line2d_12">
     <path d="M 236.664255 347.467483 
L 243.604255 347.467483 
L 250.544255 347.467483 
" style="fill: none; stroke: #ff7f0e; stroke-width: 1.5; stroke-linecap: square"/>
    </g>
    <g id="text_14">
     <text style="font: 6.94px 'Arial', sans-serif; text-anchor: start" x="256.096255" y="349.896483" transform="rotate(-0 256.096255 349.896483)">DecisionLeft (99 pts)</text>
    </g>
   </g>
  </g>
 </g>
 <defs>
  <clipPath id="p81b2c41e0d">
   <rect x="48.851283" y="19.26398" width="357.12" height="266.112"/>
  </clipPath>
 </defs>
</svg>
