<?xml version="1.0" encoding="utf-8" standalone="no"?>
<!DOCTYPE svg PUBLIC "-//W3C//DTD SVG 1.1//EN"
  "http://www.w3.org/Graphics/SVG/1.1/DTD/svg11.dtd">
<svg xmlns:xlink="http://www.w3.org/1999/xlink" width="413.171283pt" height="361.333136pt" viewBox="0 0 413.171283 361.333136" xmlns="http://www.w3.org/2000/svg" version="1.1">
 <metadata>
  <rdf:RDF xmlns:dc="http://purl.org/dc/elements/1.1/" xmlns:cc="http://creativecommons.org/ns#" xmlns:rdf="http://www.w3.org/1999/02/22-rdf-syntax-ns#">
   <cc:Work>
    <dc:type rdf:resource="http://purl.org/dc/dcmitype/StillImage"/>
    <dc:date>2025-12-29T04:07:42.681988</dc:date>
    <dc:format>image/svg+xml</dc:format>
    <dc:creator>
     <cc:Agent>
      <dc:title>Matplotlib v3.8.0, https://matplotlib.org/</dc:title>
     </cc:Agent>
    </dc:creator>
   </cc:Work>
  </rdf:RDF>
 </metadata>
 <defs>
  <style type="text/css">*{stroke-linejoin: round; stroke-linecap: butt}</style>
 </defs>
 <g id="figure_1">
  <g id="patch_1">
   <path d="M 0 361.333136 
L 413.171283 361.333136 
L 413.171283 -0 
L 0 -0 
z
" style="fill: #ffffff"/>
  </g>
  <g id="axes_1">
   <g id="patch_2">
    <path d="M 48.851283 285.37598 
L 405.971283 285.37598 
L 405.971283 19.26398 
L 48.851283 19.26398 
z
" style="fill: #ffffff"/>
   </g>
   <g id="PolyCollection_1">
    <defs>
     <path id="mee277fa113" d="M 48.851283 -121.022902 
L 48.851283 -88.053156 
L 60.011283 -94.92947 
L 71.171283 -103.375551 
L 82.331283 -113.095809 
L 93.491283 -122.145851 
L 104.651283 -137.592027 
L 115.811283 -155.843786 
L 126.971283 -170.918416 
L 138.131283 -183.155922 
L 149.291283 -197.765431 
L 160.451283 -212.202913 
L 171.611283 -223.888114 
L 182.771283 -235.464172 
L 193.931283 -244.603719 
L 205.091283 -248.884935 
L 216.251283 -252.009698 
L 227.411283 -256.510984 
L 238.571283 -263.178107 
L 249.731283 -268.419387 
L 260.891283 -271.058024 
L 272.051283 -272.601101 
L 283.211283 -271.526487 
L 294.371283 -269.233134 
L 305.531283 -270.386019 
L 316.691283 -265.226772 
L 327.851283 -253.784068 
L 339.011283 -236.218045 
L 350.171283 -214.428227 
L 361.331283 -193.661908 
L 372.491283 -177.02078 
L 383.651283 -160.283387 
L 394.811283 -163.370353 
L 405.971283 -185.669146 
L 405.971283 -215.820832 
L 405.971283 -215.820832 
L 394.811283 -194.777828 
L 383.651283 -195.1504 
L 372.491283 -216.490781 
L 361.331283 -236.182952 
L 350.171283 -261.196614 
L 339.011283 -289.286253 
L 327.851283 -312.555666 
L 316.691283 -325.712311 
L 305.531283 -329.973156 
L 294.371283 -326.069913 
L 283.211283 -325.774712 
L 272.051283 -326.271368 
L 260.891283 -326.313509 
L 249.731283 -324.378413 
L 238.571283 -319.085357 
L 227.411283 -311.745277 
L 216.251283 -306.279484 
L 205.091283 -301.632585 
L 193.931283 -295.486185 
L 182.771283 -284.686954 
L 171.611283 -271.901189 
L 160.451283 -259.381953 
L 149.291283 -243.464352 
L 138.131283 -227.642177 
L 126.971283 -214.061103 
L 115.811283 -196.502999 
L 104.651283 -175.187572 
L 93.491283 -157.766644 
L 82.331283 -146.510127 
L 71.171283 -133.888838 
L 60.011283 -125.531242 
L 48.851283 -121.022902 
z
" style="stroke: #1f77b4; stroke-opacity: 0.2"/>
    </defs>
    <g clip-path="url(#p93f3128be6)">
     <use xlink:href="#mee277fa113" x="0" y="361.333136" style="fill: #1f77b4; fill-opacity: 0.2; stroke: #1f77b4; stroke-opacity: 0.2"/>
    </g>
   </g>
   <g id="PolyCollection_2">
    <defs>
     <path id="m7b53dfced2" d="M 48.851283 -133.229784 
L 48.851283 -96.286925 
L 60.011283 -98.874512 
L 71.171283 -103.959108 
L 82.331283 -115.123897 
L 93.491283 -123.908417 
L 104.651283 -134.763128 
L 115.811283 -142.896161 
L 126.971283 -147.349851 
L 138.131283 -150.482936 
L 149.291283 -154.564778 
L 160.451283 -157.180825 
L 171.611283 -159.577228 
L 182.771283 -161.03672 
L 193.931283 -165.200698 
L 205.091283 -171.248107 
L 216.251283 -176.80597 
L 227.411283 -183.226107 
L 238.571283 -189.904329 
L 249.731283 -195.33655 
L 260.891283 -196.123067 
L 272.051283 -190.6538 
L 283.211283 -184.097654 
L 294.371283 -181.824041 
L 305.531283 -180.986472 
L 316.691283 -174.759944 
L 327.851283 -167.358046 
L 339.011283 -162.708341 
L 350.171283 -155.207802 
L 361.331283 -142.824944 
L 372.491283 -131.518268 
L 383.651283 -114.154735 
L 394.811283 -98.819595 
L 405.971283 -93.257735 
L 405.971283 -111.790149 
L 405.971283 -111.790149 
L 394.811283 -119.006836 
L 383.651283 -136.040929 
L 372.491283 -157.628903 
L 361.331283 -173.066662 
L 350.171283 -192.514133 
L 339.011283 -204.851084 
L 327.851283 -209.813156 
L 316.691283 -215.82945 
L 305.531283 -220.971434 
L 294.371283 -219.562272 
L 283.211283 -220.706362 
L 272.051283 -230.72408 
L 260.891283 -240.612569 
L 249.731283 -239.58693 
L 238.571283 -231.967143 
L 227.411283 -223.250733 
L 216.251283 -214.672659 
L 205.091283 -207.112462 
L 193.931283 -199.876336 
L 182.771283 -195.031434 
L 171.611283 -193.028965 
L 160.451283 -190.538316 
L 149.291283 -187.84848 
L 138.131283 -184.225732 
L 126.971283 -181.530922 
L 115.811283 -177.358484 
L 104.651283 -169.107402 
L 93.491283 -157.938673 
L 82.331283 -149.30306 
L 71.171283 -139.048611 
L 60.011283 -134.755537 
L 48.851283 -133.229784 
z
" style="stroke: #ff7f0e; stroke-opacity: 0.2"/>
    </defs>
    <g clip-path="url(#p93f3128be6)">
     <use xlink:href="#m7b53dfced2" x="0" y="361.333136" style="fill: #ff7f0e; fill-opacity: 0.2; stroke: #ff7f0e; stroke-opacity: 0.2"/>
    </g>
   </g>
   <g id="matplotlib.axis_1">
    <g id="text_1">
     <text style="font: 10px 'Arial', sans-serif; text-anchor: middle" x="227.411283" y="296.533792" transform="rotate(-0 227.411283 296.533792)">Time</text>
    </g>
   </g>
   <g id="matplotlib.axis_2">
    <g id="ytick_1">
     <g id="line2d_1">
      <defs>
       <path id="ma9f2663268" d="M 0 0 
L -3.5 0 
" style="stroke: #000000; stroke-width: 0.8"/>
      </defs>
      <g>
       <use xlink:href="#ma9f2663268" x="48.851283" y="253.662614" style="stroke: #000000; stroke-width: 0.8"/>
      </g>
     </g>
     <g id="text_2">
      <text style="font: 10px 'Arial', sans-serif; text-anchor: end" x="41.851283" y="257.24152" transform="rotate(-0 41.851283 257.24152)">−0.4</text>
     </g>
    </g>
    <g id="ytick_2">
     <g id="line2d_2">
      <g>
       <use xlink:href="#ma9f2663268" x="48.851283" y="202.568782" style="stroke: #000000; stroke-width: 0.8"/>
      </g>
     </g>
     <g id="text_3">
      <text style="font: 10px 'Arial', sans-serif; text-anchor: end" x="41.851283" y="206.147688" transform="rotate(-0 41.851283 206.147688)">−0.2</text>
     </g>
    </g>
    <g id="ytick_3">
     <g id="line2d_3">
      <g>
       <use xlink:href="#ma9f2663268" x="48.851283" y="151.474949" style="stroke: #000000; stroke-width: 0.8"/>
      </g>
     </g>
     <g id="text_4">
      <text style="font: 10px 'Arial', sans-serif; text-anchor: end" x="41.851283" y="155.053855" transform="rotate(-0 41.851283 155.053855)">0.0</text>
     </g>
    </g>
    <g id="ytick_4">
     <g id="line2d_4">
      <g>
       <use xlink:href="#ma9f2663268" x="48.851283" y="100.381117" style="stroke: #000000; stroke-width: 0.8"/>
      </g>
     </g>
     <g id="text_5">
      <text style="font: 10px 'Arial', sans-serif; text-anchor: end" x="41.851283" y="103.960023" transform="rotate(-0 41.851283 103.960023)">0.2</text>
     </g>
    </g>
    <g id="ytick_5">
     <g id="line2d_5">
      <g>
       <use xlink:href="#ma9f2663268" x="48.851283" y="49.287284" style="stroke: #000000; stroke-width: 0.8"/>
      </g>
     </g>
     <g id="text_6">
      <text style="font: 10px 'Arial', sans-serif; text-anchor: end" x="41.851283" y="52.86619" transform="rotate(-0 41.851283 52.86619)">0.4</text>
     </g>
    </g>
    <g id="text_7">
     <text style="font: 10px 'Arial', sans-serif; text-anchor: middle" x="16.005971" y="152.31998" transform="rotate(-90 16.005971 152.31998)">Activity</text>
    </g>
   </g>
   <g id="line2d_6">
    <path d="M 48.851283 256.795107 
L 60.011283 251.10278 
L 71.171283 242.700942 
L 82.331283 231.530168 
L 93.491283 221.376888 
L 104.651283 204.943334 
L 115.811283 185.159743 
L 126.971283 168.843376 
L 138.131283 155.934087 
L 149.291283 140.718244 
L 160.451283 125.540703 
L 171.611283 113.438483 
L 182.771283 101.257575 
L 193.931283 91.288186 
L 205.091283 86.074376 
L 216.251283 82.188545 
L 227.411283 77.205003 
L 238.571283 70.201406 
L 249.731283 64.934236 
L 260.891283 62.64737 
L 272.051283 61.8969 
L 283.211283 62.682537 
L 294.371283 63.681613 
L 305.531283 61.153548 
L 316.691283 65.863595 
L 327.851283 78.163271 
L 339.011283 98.580985 
L 350.171283 123.520715 
L 361.331283 146.410706 
L 372.491283 164.577355 
L 383.651283 183.616243 
L 394.811283 182.259046 
L 405.971283 160.588147 
" clip-path="url(#p93f3128be6)" style="fill: none; stroke: #1f77b4; stroke-width: 1.5; stroke-linecap: square"/>
   </g>
   <g id="line2d_7">
    <path d="M 48.851283 246.574781 
L 60.011283 244.518111 
L 71.171283 239.829276 
L 82.331283 229.119657 
L 93.491283 220.409591 
L 104.651283 209.397869 
L 115.811283 201.205812 
L 126.971283 196.892748 
L 138.131283 193.978801 
L 149.291283 190.126508 
L 160.451283 187.473565 
L 171.611283 185.030038 
L 182.771283 183.299058 
L 193.931283 178.79462 
L 205.091283 172.152852 
L 216.251283 165.593822 
L 227.411283 158.094716 
L 238.571283 150.3974 
L 249.731283 143.871396 
L 260.891283 142.965317 
L 272.051283 150.644196 
L 283.211283 158.931128 
L 294.371283 160.63998 
L 305.531283 160.354183 
L 316.691283 166.038438 
L 327.851283 172.747535 
L 339.011283 177.553425 
L 350.171283 187.472168 
L 361.331283 203.387333 
L 372.491283 216.759552 
L 383.651283 236.235304 
L 394.811283 252.41992 
L 405.971283 258.809194 
" clip-path="url(#p93f3128be6)" style="fill: none; stroke: #ff7f0e; stroke-width: 1.5; stroke-linecap: square"/>
   </g>
   <g id="line2d_8">
    <path d="M 82.331283 285.37598 
L 82.331283 19.26398 
" clip-path="url(#p93f3128be6)" style="fill: none; stroke-dasharray: 5.55,2.4; stroke-dashoffset: 0; stroke: #000000; stroke-opacity: 0.5; stroke-width: 1.5"/>
   </g>
   <g id="line2d_9">
    <path d="M 383.651283 285.37598 
L 383.651283 19.26398 
" clip-path="url(#p93f3128be6)" style="fill: none; stroke-dasharray: 5.55,2.4; stroke-dashoffset: 0; stroke: #000000; stroke-opacity: 0.5; stroke-width: 1.5"/>
   </g>
   <g id="patch_3">
    <path d="M 48.851283 285.37598 
L 405.971283 285.37598 
" style="fill: none; stroke: #000000; stroke-width: 0.8; stroke-linejoin: miter; stroke-linecap: square"/>
   </g>
   <g id="text_8">
    <text style="font: 6.94px 'Arial', sans-serif" transform="translate(10.097767 321.385533) rotate(-35)">-0.1s Sampling</text>
   </g>
   <g id="text_9">
    <text style="font: 6.94px 'Arial', sans-serif" transform="translate(57.794497 311.430872) rotate(-35)">Sampling</text>
   </g>
   <g id="text_10">
    <text style="font: 6.94px 'Arial', sans-serif" transform="translate(319.037191 339.456682) rotate(-35)">Movement to Lateral Port</text>
   </g>
   <g id="text_11">
    <text style="font: 8.33px 'Arial', sans-serif; text-anchor: middle" x="227.411283" y="13.26398" transform="rotate(-0 227.411283 13.26398)">gp4_81_S8_L65_D250_ALM - Trace:13_gp4_81_S8_L65_D250_ALM (when: correct)</text>
   </g>
   <g id="legend_1">
    <g id="patch_4">
     <path d="M 133.696342 354.133136 
L 321.126224 354.133136 
Q 322.514224 354.133136 322.514224 352.745136 
L 322.514224 343.45638 
Q 322.514224 342.06838 321.126224 342.06838 
L 133.696342 342.06838 
Q 132.308342 342.06838 132.308342 343.45638 
L 132.308342 352.745136 
Q 132.308342 354.133136 133.696342 354.133136 
z
" style="fill: #ffffff; opacity: 0.8; stroke: #cccccc; stroke-linejoin: miter"/>
    </g>
    <g id="line2d_10">
     <path d="M 135.084342 347.467483 
L 142.024342 347.467483 
L 148.964342 347.467483 
" style="fill: none; stroke: #1f77b4; stroke-width: 1.5; stroke-linecap: square"/>
    </g>
    <g id="text_12">
     <text style="font: 6.94px 'Arial', sans-serif; text-anchor: start" x="154.516342" y="349.896483" transform="rotate(-0 154.516342 349.896483)">DecisionRight (95 pts)</text>
    </g>
    <g id="line2d_11">
     <path d="M 236.664255 347.467483 
L 243.604255 347.467483 
L 250.544255 347.467483 
" style="fill: none; stroke: #ff7f0e; stroke-width: 1.5; stroke-linecap: square"/>
    </g>
    <g id="text_13">
     <text style="font: 6.94px 'Arial', sans-serif; text-anchor: start" x="256.096255" y="349.896483" transform="rotate(-0 256.096255 349.896483)">DecisionLeft (99 pts)</text>
    </g>
   </g>
  </g>
 </g>
 <defs>
  <clipPath id="p93f3128be6">
   <rect x="48.851283" y="19.26398" width="357.12" height="266.112"/>
  </clipPath>
 </defs>
</svg>
