<?xml version="1.0" encoding="utf-8" standalone="no"?>
<!DOCTYPE svg PUBLIC "-//W3C//DTD SVG 1.1//EN"
  "http://www.w3.org/Graphics/SVG/1.1/DTD/svg11.dtd">
<svg xmlns:xlink="http://www.w3.org/1999/xlink" width="413.171283pt" height="361.333136pt" viewBox="0 0 413.171283 361.333136" xmlns="http://www.w3.org/2000/svg" version="1.1">
 <metadata>
  <rdf:RDF xmlns:dc="http://purl.org/dc/elements/1.1/" xmlns:cc="http://creativecommons.org/ns#" xmlns:rdf="http://www.w3.org/1999/02/22-rdf-syntax-ns#">
   <cc:Work>
    <dc:type rdf:resource="http://purl.org/dc/dcmitype/StillImage"/>
    <dc:date>2025-12-29T04:07:42.874337</dc:date>
    <dc:format>image/svg+xml</dc:format>
    <dc:creator>
     <cc:Agent>
      <dc:title>Matplotlib v3.8.0, https://matplotlib.org/</dc:title>
     </cc:Agent>
    </dc:creator>
   </cc:Work>
  </rdf:RDF>
 </metadata>
 <defs>
  <style type="text/css">*{stroke-linejoin: round; stroke-linecap: butt}</style>
 </defs>
 <g id="figure_1">
  <g id="patch_1">
   <path d="M 0 361.333136 
L 413.171283 361.333136 
L 413.171283 -0 
L 0 -0 
z
" style="fill: #ffffff"/>
  </g>
  <g id="axes_1">
   <g id="patch_2">
    <path d="M 48.851283 285.37598 
L 405.971283 285.37598 
L 405.971283 19.26398 
L 48.851283 19.26398 
z
" style="fill: #ffffff"/>
   </g>
   <g id="PolyCollection_1">
    <defs>
     <path id="mf7cc0f6c52" d="M 48.851283 -114.125671 
L 48.851283 -88.053156 
L 60.011283 -88.625035 
L 71.171283 -100.91967 
L 82.331283 -118.944858 
L 93.491283 -125.807011 
L 104.651283 -129.232698 
L 115.811283 -133.49203 
L 126.971283 -142.802225 
L 138.131283 -153.264844 
L 149.291283 -160.439516 
L 160.451283 -168.056523 
L 171.611283 -171.799461 
L 182.771283 -170.529784 
L 193.931283 -166.135476 
L 205.091283 -164.900687 
L 216.251283 -167.619638 
L 227.411283 -170.570016 
L 238.571283 -169.035193 
L 249.731283 -169.216001 
L 260.891283 -168.505131 
L 272.051283 -159.443129 
L 283.211283 -144.256267 
L 294.371283 -142.512308 
L 305.531283 -150.351651 
L 316.691283 -152.13886 
L 327.851283 -139.306699 
L 339.011283 -125.182752 
L 350.171283 -117.017515 
L 361.331283 -112.500331 
L 372.491283 -108.324497 
L 383.651283 -102.612834 
L 394.811283 -101.032814 
L 405.971283 -99.895566 
L 405.971283 -136.528396 
L 405.971283 -136.528396 
L 394.811283 -141.030205 
L 383.651283 -145.068461 
L 372.491283 -151.130496 
L 361.331283 -153.836142 
L 350.171283 -157.331428 
L 339.011283 -165.882423 
L 327.851283 -181.628215 
L 316.691283 -195.892952 
L 305.531283 -193.485751 
L 294.371283 -185.525624 
L 283.211283 -189.070397 
L 272.051283 -207.100424 
L 260.891283 -217.770567 
L 249.731283 -218.985787 
L 238.571283 -219.686228 
L 227.411283 -222.506174 
L 216.251283 -221.351169 
L 205.091283 -219.52003 
L 193.931283 -221.254588 
L 182.771283 -226.760014 
L 171.611283 -228.437096 
L 160.451283 -221.545628 
L 149.291283 -208.546202 
L 138.131283 -195.023934 
L 126.971283 -178.594817 
L 115.811283 -164.172104 
L 104.651283 -155.940815 
L 93.491283 -150.477567 
L 82.331283 -143.04182 
L 71.171283 -125.268017 
L 60.011283 -113.422592 
L 48.851283 -114.125671 
z
" style="stroke: #1f77b4; stroke-opacity: 0.2"/>
    </defs>
    <g clip-path="url(#p52bf5d855a)">
     <use xlink:href="#mf7cc0f6c52" x="0" y="361.333136" style="fill: #1f77b4; fill-opacity: 0.2; stroke: #1f77b4; stroke-opacity: 0.2"/>
    </g>
   </g>
   <g id="PolyCollection_2">
    <defs>
     <path id="mcb33b5f6fb" d="M 48.851283 -150.998176 
L 48.851283 -112.730952 
L 60.011283 -120.127109 
L 71.171283 -124.90858 
L 82.331283 -128.412111 
L 93.491283 -134.102429 
L 104.651283 -153.038737 
L 115.811283 -177.579212 
L 126.971283 -196.420123 
L 138.131283 -211.150041 
L 149.291283 -224.424209 
L 160.451283 -235.823475 
L 171.611283 -243.91873 
L 182.771283 -249.849497 
L 193.931283 -258.85837 
L 205.091283 -268.231519 
L 216.251283 -264.828258 
L 227.411283 -262.821547 
L 238.571283 -263.564555 
L 249.731283 -261.190552 
L 260.891283 -252.657485 
L 272.051283 -239.502258 
L 283.211283 -229.716374 
L 294.371283 -217.689957 
L 305.531283 -207.304794 
L 316.691283 -203.48395 
L 327.851283 -197.630895 
L 339.011283 -189.529402 
L 350.171283 -182.470294 
L 361.331283 -180.897834 
L 372.491283 -183.858586 
L 383.651283 -182.634324 
L 394.811283 -183.954406 
L 405.971283 -192.684176 
L 405.971283 -240.578654 
L 405.971283 -240.578654 
L 394.811283 -233.502379 
L 383.651283 -234.596403 
L 372.491283 -236.945098 
L 361.331283 -233.605918 
L 350.171283 -235.833795 
L 339.011283 -244.109969 
L 327.851283 -253.957 
L 316.691283 -258.938241 
L 305.531283 -260.538471 
L 294.371283 -271.936079 
L 283.211283 -288.273339 
L 272.051283 -302.36525 
L 260.891283 -319.403444 
L 249.731283 -328.737434 
L 238.571283 -329.541964 
L 227.411283 -326.354384 
L 216.251283 -326.19321 
L 205.091283 -329.973156 
L 193.931283 -320.998534 
L 182.771283 -315.038809 
L 171.611283 -309.120997 
L 160.451283 -296.205455 
L 149.291283 -281.683782 
L 138.131283 -265.909984 
L 126.971283 -247.876037 
L 115.811283 -224.815227 
L 104.651283 -196.197578 
L 93.491283 -174.257349 
L 82.331283 -167.234787 
L 71.171283 -162.237076 
L 60.011283 -157.033616 
L 48.851283 -150.998176 
z
" style="stroke: #ff7f0e; stroke-opacity: 0.2"/>
    </defs>
    <g clip-path="url(#p52bf5d855a)">
     <use xlink:href="#mcb33b5f6fb" x="0" y="361.333136" style="fill: #ff7f0e; fill-opacity: 0.2; stroke: #ff7f0e; stroke-opacity: 0.2"/>
    </g>
   </g>
   <g id="matplotlib.axis_1">
    <g id="text_1">
     <text style="font: 10px 'Arial', sans-serif; text-anchor: middle" x="227.411283" y="296.533792" transform="rotate(-0 227.411283 296.533792)">Time</text>
    </g>
   </g>
   <g id="matplotlib.axis_2">
    <g id="ytick_1">
     <g id="line2d_1">
      <defs>
       <path id="md3ab8e3e3c" d="M 0 0 
L -3.5 0 
" style="stroke: #000000; stroke-width: 0.8"/>
      </defs>
      <g>
       <use xlink:href="#md3ab8e3e3c" x="48.851283" y="234.207869" style="stroke: #000000; stroke-width: 0.8"/>
      </g>
     </g>
     <g id="text_2">
      <text style="font: 10px 'Arial', sans-serif; text-anchor: end" x="41.851283" y="237.786775" transform="rotate(-0 41.851283 237.786775)">−0.2</text>
     </g>
    </g>
    <g id="ytick_2">
     <g id="line2d_2">
      <g>
       <use xlink:href="#md3ab8e3e3c" x="48.851283" y="182.579253" style="stroke: #000000; stroke-width: 0.8"/>
      </g>
     </g>
     <g id="text_3">
      <text style="font: 10px 'Arial', sans-serif; text-anchor: end" x="41.851283" y="186.158159" transform="rotate(-0 41.851283 186.158159)">0.0</text>
     </g>
    </g>
    <g id="ytick_3">
     <g id="line2d_3">
      <g>
       <use xlink:href="#md3ab8e3e3c" x="48.851283" y="130.950638" style="stroke: #000000; stroke-width: 0.8"/>
      </g>
     </g>
     <g id="text_4">
      <text style="font: 10px 'Arial', sans-serif; text-anchor: end" x="41.851283" y="134.529544" transform="rotate(-0 41.851283 134.529544)">0.2</text>
     </g>
    </g>
    <g id="ytick_4">
     <g id="line2d_4">
      <g>
       <use xlink:href="#md3ab8e3e3c" x="48.851283" y="79.322023" style="stroke: #000000; stroke-width: 0.8"/>
      </g>
     </g>
     <g id="text_5">
      <text style="font: 10px 'Arial', sans-serif; text-anchor: end" x="41.851283" y="82.900929" transform="rotate(-0 41.851283 82.900929)">0.4</text>
     </g>
    </g>
    <g id="ytick_5">
     <g id="line2d_5">
      <g>
       <use xlink:href="#md3ab8e3e3c" x="48.851283" y="27.693407" style="stroke: #000000; stroke-width: 0.8"/>
      </g>
     </g>
     <g id="text_6">
      <text style="font: 10px 'Arial', sans-serif; text-anchor: end" x="41.851283" y="31.272314" transform="rotate(-0 41.851283 31.272314)">0.6</text>
     </g>
    </g>
    <g id="text_7">
     <text style="font: 10px 'Arial', sans-serif; text-anchor: middle" x="16.005971" y="152.31998" transform="rotate(-90 16.005971 152.31998)">Activity</text>
    </g>
   </g>
   <g id="line2d_6">
    <path d="M 48.851283 260.243722 
L 60.011283 260.309323 
L 71.171283 248.239293 
L 82.331283 230.339797 
L 93.491283 223.190847 
L 104.651283 218.74638 
L 115.811283 212.501068 
L 126.971283 200.634615 
L 138.131283 187.188746 
L 149.291283 176.840277 
L 160.451283 166.53206 
L 171.611283 161.214857 
L 182.771283 162.688237 
L 193.931283 167.638104 
L 205.091283 169.122776 
L 216.251283 166.847732 
L 227.411283 164.795041 
L 238.571283 166.972425 
L 249.731283 167.232242 
L 260.891283 168.195286 
L 272.051283 178.061359 
L 283.211283 194.669803 
L 294.371283 197.31417 
L 305.531283 189.414434 
L 316.691283 187.317231 
L 327.851283 200.86568 
L 339.011283 215.800549 
L 350.171283 224.158663 
L 361.331283 228.1649 
L 372.491283 231.605638 
L 383.651283 237.492489 
L 394.811283 240.301626 
L 405.971283 243.121153 
" clip-path="url(#p52bf5d855a)" style="fill: none; stroke: #1f77b4; stroke-width: 1.5; stroke-linecap: square"/>
   </g>
   <g id="line2d_7">
    <path d="M 48.851283 229.468573 
L 60.011283 222.752774 
L 71.171283 217.760307 
L 82.331283 213.509687 
L 93.491283 207.153248 
L 104.651283 186.714978 
L 115.811283 160.135916 
L 126.971283 139.185056 
L 138.131283 122.803125 
L 149.291283 108.279141 
L 160.451283 95.318669 
L 171.611283 84.813272 
L 182.771283 78.888983 
L 193.931283 71.404684 
L 205.091283 62.230798 
L 216.251283 65.822406 
L 227.411283 66.745174 
L 238.571283 64.779877 
L 249.731283 66.369143 
L 260.891283 75.302676 
L 272.051283 90.399382 
L 283.211283 102.33828 
L 294.371283 116.520118 
L 305.531283 127.411501 
L 316.691283 130.122042 
L 327.851283 135.539188 
L 339.011283 144.513449 
L 350.171283 152.181091 
L 361.331283 154.08126 
L 372.491283 150.931294 
L 383.651283 152.717771 
L 394.811283 152.604744 
L 405.971283 144.701722 
" clip-path="url(#p52bf5d855a)" style="fill: none; stroke: #ff7f0e; stroke-width: 1.5; stroke-linecap: square"/>
   </g>
   <g id="line2d_8">
    <path d="M 82.331283 285.37598 
L 82.331283 19.26398 
" clip-path="url(#p52bf5d855a)" style="fill: none; stroke-dasharray: 5.55,2.4; stroke-dashoffset: 0; stroke: #000000; stroke-opacity: 0.5; stroke-width: 1.5"/>
   </g>
   <g id="line2d_9">
    <path d="M 383.651283 285.37598 
L 383.651283 19.26398 
" clip-path="url(#p52bf5d855a)" style="fill: none; stroke-dasharray: 5.55,2.4; stroke-dashoffset: 0; stroke: #000000; stroke-opacity: 0.5; stroke-width: 1.5"/>
   </g>
   <g id="patch_3">
    <path d="M 48.851283 285.37598 
L 405.971283 285.37598 
" style="fill: none; stroke: #000000; stroke-width: 0.8; stroke-linejoin: miter; stroke-linecap: square"/>
   </g>
   <g id="text_8">
    <text style="font: 6.94px 'Arial', sans-serif" transform="translate(10.097767 321.385533) rotate(-35)">-0.1s Sampling</text>
   </g>
   <g id="text_9">
    <text style="font: 6.94px 'Arial', sans-serif" transform="translate(57.794497 311.430872) rotate(-35)">Sampling</text>
   </g>
   <g id="text_10">
    <text style="font: 6.94px 'Arial', sans-serif" transform="translate(319.037191 339.456682) rotate(-35)">Movement to Lateral Port</text>
   </g>
   <g id="text_11">
    <text style="font: 8.33px 'Arial', sans-serif; text-anchor: middle" x="227.411283" y="13.26398" transform="rotate(-0 227.411283 13.26398)">gp4_81_S8_L65_D250_ALM - Trace:38_gp4_81_S8_L65_D250_ALM (when: correct)</text>
   </g>
   <g id="legend_1">
    <g id="patch_4">
     <path d="M 133.696342 354.133136 
L 321.126224 354.133136 
Q 322.514224 354.133136 322.514224 352.745136 
L 322.514224 343.45638 
Q 322.514224 342.06838 321.126224 342.06838 
L 133.696342 342.06838 
Q 132.308342 342.06838 132.308342 343.45638 
L 132.308342 352.745136 
Q 132.308342 354.133136 133.696342 354.133136 
z
" style="fill: #ffffff; opacity: 0.8; stroke: #cccccc; stroke-linejoin: miter"/>
    </g>
    <g id="line2d_10">
     <path d="M 135.084342 347.467483 
L 142.024342 347.467483 
L 148.964342 347.467483 
" style="fill: none; stroke: #1f77b4; stroke-width: 1.5; stroke-linecap: square"/>
    </g>
    <g id="text_12">
     <text style="font: 6.94px 'Arial', sans-serif; text-anchor: start" x="154.516342" y="349.896483" transform="rotate(-0 154.516342 349.896483)">DecisionRight (95 pts)</text>
    </g>
    <g id="line2d_11">
     <path d="M 236.664255 347.467483 
L 243.604255 347.467483 
L 250.544255 347.467483 
" style="fill: none; stroke: #ff7f0e; stroke-width: 1.5; stroke-linecap: square"/>
    </g>
    <g id="text_13">
     <text style="font: 6.94px 'Arial', sans-serif; text-anchor: start" x="256.096255" y="349.896483" transform="rotate(-0 256.096255 349.896483)">DecisionLeft (99 pts)</text>
    </g>
   </g>
  </g>
 </g>
 <defs>
  <clipPath id="p52bf5d855a">
   <rect x="48.851283" y="19.26398" width="357.12" height="266.112"/>
  </clipPath>
 </defs>
</svg>
