<?xml version="1.0" encoding="utf-8" standalone="no"?>
<!DOCTYPE svg PUBLIC "-//W3C//DTD SVG 1.1//EN"
  "http://www.w3.org/Graphics/SVG/1.1/DTD/svg11.dtd">
<svg xmlns:xlink="http://www.w3.org/1999/xlink" width="413.171283pt" height="361.333136pt" viewBox="0 0 413.171283 361.333136" xmlns="http://www.w3.org/2000/svg" version="1.1">
 <metadata>
  <rdf:RDF xmlns:dc="http://purl.org/dc/elements/1.1/" xmlns:cc="http://creativecommons.org/ns#" xmlns:rdf="http://www.w3.org/1999/02/22-rdf-syntax-ns#">
   <cc:Work>
    <dc:type rdf:resource="http://purl.org/dc/dcmitype/StillImage"/>
    <dc:date>2025-12-29T04:07:41.922419</dc:date>
    <dc:format>image/svg+xml</dc:format>
    <dc:creator>
     <cc:Agent>
      <dc:title>Matplotlib v3.8.0, https://matplotlib.org/</dc:title>
     </cc:Agent>
    </dc:creator>
   </cc:Work>
  </rdf:RDF>
 </metadata>
 <defs>
  <style type="text/css">*{stroke-linejoin: round; stroke-linecap: butt}</style>
 </defs>
 <g id="figure_1">
  <g id="patch_1">
   <path d="M 0 361.333136 
L 413.171283 361.333136 
L 413.171283 -0 
L 0 -0 
z
" style="fill: #ffffff"/>
  </g>
  <g id="axes_1">
   <g id="patch_2">
    <path d="M 48.851283 285.37598 
L 405.971283 285.37598 
L 405.971283 19.26398 
L 48.851283 19.26398 
z
" style="fill: #ffffff"/>
   </g>
   <g id="PolyCollection_1">
    <defs>
     <path id="md97180fdac" d="M 48.851283 -329.973156 
L 48.851283 -220.172413 
L 60.011283 -209.573797 
L 71.171283 -199.8417 
L 82.331283 -200.07114 
L 93.491283 -200.216015 
L 104.651283 -195.92945 
L 115.811283 -192.016483 
L 126.971283 -195.085817 
L 138.131283 -204.080121 
L 149.291283 -213.790397 
L 160.451283 -214.614424 
L 171.611283 -207.844428 
L 182.771283 -194.537855 
L 193.931283 -179.479201 
L 205.091283 -175.891675 
L 216.251283 -182.995795 
L 227.411283 -181.189714 
L 238.571283 -162.702162 
L 249.731283 -137.957539 
L 260.891283 -121.920625 
L 272.051283 -121.314624 
L 283.211283 -118.066817 
L 294.371283 -107.044846 
L 305.531283 -102.000011 
L 316.691283 -105.043903 
L 327.851283 -106.777809 
L 339.011283 -110.227628 
L 350.171283 -113.08507 
L 361.331283 -123.56745 
L 372.491283 -132.051094 
L 383.651283 -131.031444 
L 394.811283 -123.885947 
L 405.971283 -131.81146 
L 405.971283 -195.768462 
L 405.971283 -195.768462 
L 394.811283 -193.939525 
L 383.651283 -206.617958 
L 372.491283 -209.15938 
L 361.331283 -194.944872 
L 350.171283 -174.389339 
L 339.011283 -166.064722 
L 327.851283 -158.87791 
L 316.691283 -157.067805 
L 305.531283 -155.930384 
L 294.371283 -165.461652 
L 283.211283 -182.475627 
L 272.051283 -186.663939 
L 260.891283 -187.075448 
L 249.731283 -206.104926 
L 238.571283 -236.963131 
L 227.411283 -262.752175 
L 216.251283 -265.942416 
L 205.091283 -259.184341 
L 193.931283 -265.782841 
L 182.771283 -285.209304 
L 171.611283 -299.295829 
L 160.451283 -306.827821 
L 149.291283 -306.450438 
L 138.131283 -294.383833 
L 126.971283 -284.402571 
L 115.811283 -286.273687 
L 104.651283 -297.572222 
L 93.491283 -307.695874 
L 82.331283 -311.009821 
L 71.171283 -309.139502 
L 60.011283 -315.193625 
L 48.851283 -329.973156 
z
" style="stroke: #1f77b4; stroke-opacity: 0.2"/>
    </defs>
    <g clip-path="url(#p13533a85cb)">
     <use xlink:href="#md97180fdac" x="0" y="361.333136" style="fill: #1f77b4; fill-opacity: 0.2; stroke: #1f77b4; stroke-opacity: 0.2"/>
    </g>
   </g>
   <g id="PolyCollection_2">
    <defs>
     <path id="m9dfe146d4f" d="M 48.851283 -306.663749 
L 48.851283 -212.585053 
L 60.011283 -200.508513 
L 71.171283 -182.245293 
L 82.331283 -174.312617 
L 93.491283 -169.762469 
L 104.651283 -177.296875 
L 115.811283 -191.599213 
L 126.971283 -202.492987 
L 138.131283 -193.167994 
L 149.291283 -177.4465 
L 160.451283 -159.410246 
L 171.611283 -146.187543 
L 182.771283 -140.319216 
L 193.931283 -146.76952 
L 205.091283 -161.541945 
L 216.251283 -173.475781 
L 227.411283 -172.117167 
L 238.571283 -157.746701 
L 249.731283 -142.208999 
L 260.891283 -135.285202 
L 272.051283 -131.27289 
L 283.211283 -124.64745 
L 294.371283 -113.026384 
L 305.531283 -106.983705 
L 316.691283 -105.569572 
L 327.851283 -105.96621 
L 339.011283 -95.639894 
L 350.171283 -88.053156 
L 361.331283 -92.565551 
L 372.491283 -104.144244 
L 383.651283 -117.592231 
L 394.811283 -127.785738 
L 405.971283 -140.429631 
L 405.971283 -195.102318 
L 405.971283 -195.102318 
L 394.811283 -182.862777 
L 383.651283 -170.772613 
L 372.491283 -158.159599 
L 361.331283 -143.917009 
L 350.171283 -133.013687 
L 339.011283 -136.164654 
L 327.851283 -145.737206 
L 316.691283 -149.77237 
L 305.531283 -158.180006 
L 294.371283 -168.038919 
L 283.211283 -180.935632 
L 272.051283 -187.620064 
L 260.891283 -192.022402 
L 249.731283 -199.998752 
L 238.571283 -218.78713 
L 227.411283 -238.329887 
L 216.251283 -241.429946 
L 205.091283 -226.71899 
L 193.931283 -207.864974 
L 182.771283 -201.537376 
L 171.611283 -210.189207 
L 160.451283 -227.171008 
L 149.291283 -249.927239 
L 138.131283 -270.216063 
L 126.971283 -281.977781 
L 115.811283 -272.043189 
L 104.651283 -258.569825 
L 93.491283 -251.011979 
L 82.331283 -256.513294 
L 71.171283 -266.233102 
L 60.011283 -287.58108 
L 48.851283 -306.663749 
z
" style="stroke: #ff7f0e; stroke-opacity: 0.2"/>
    </defs>
    <g clip-path="url(#p13533a85cb)">
     <use xlink:href="#m9dfe146d4f" x="0" y="361.333136" style="fill: #ff7f0e; fill-opacity: 0.2; stroke: #ff7f0e; stroke-opacity: 0.2"/>
    </g>
   </g>
   <g id="matplotlib.axis_1">
    <g id="text_1">
     <text style="font: 10px 'Arial', sans-serif; text-anchor: middle" x="227.411283" y="296.533792" transform="rotate(-0 227.411283 296.533792)">Time</text>
    </g>
   </g>
   <g id="matplotlib.axis_2">
    <g id="ytick_1">
     <g id="line2d_1">
      <defs>
       <path id="m2007c8c6e4" d="M 0 0 
L -3.5 0 
" style="stroke: #000000; stroke-width: 0.8"/>
      </defs>
      <g>
       <use xlink:href="#m2007c8c6e4" x="48.851283" y="278.735159" style="stroke: #000000; stroke-width: 0.8"/>
      </g>
     </g>
     <g id="text_2">
      <text style="font: 10px 'Arial', sans-serif; text-anchor: end" x="41.851283" y="282.314065" transform="rotate(-0 41.851283 282.314065)">−0.3</text>
     </g>
    </g>
    <g id="ytick_2">
     <g id="line2d_2">
      <g>
       <use xlink:href="#m2007c8c6e4" x="48.851283" y="245.316888" style="stroke: #000000; stroke-width: 0.8"/>
      </g>
     </g>
     <g id="text_3">
      <text style="font: 10px 'Arial', sans-serif; text-anchor: end" x="41.851283" y="248.895794" transform="rotate(-0 41.851283 248.895794)">−0.2</text>
     </g>
    </g>
    <g id="ytick_3">
     <g id="line2d_3">
      <g>
       <use xlink:href="#m2007c8c6e4" x="48.851283" y="211.898617" style="stroke: #000000; stroke-width: 0.8"/>
      </g>
     </g>
     <g id="text_4">
      <text style="font: 10px 'Arial', sans-serif; text-anchor: end" x="41.851283" y="215.477523" transform="rotate(-0 41.851283 215.477523)">−0.1</text>
     </g>
    </g>
    <g id="ytick_4">
     <g id="line2d_4">
      <g>
       <use xlink:href="#m2007c8c6e4" x="48.851283" y="178.480346" style="stroke: #000000; stroke-width: 0.8"/>
      </g>
     </g>
     <g id="text_5">
      <text style="font: 10px 'Arial', sans-serif; text-anchor: end" x="41.851283" y="182.059252" transform="rotate(-0 41.851283 182.059252)">0.0</text>
     </g>
    </g>
    <g id="ytick_5">
     <g id="line2d_5">
      <g>
       <use xlink:href="#m2007c8c6e4" x="48.851283" y="145.062075" style="stroke: #000000; stroke-width: 0.8"/>
      </g>
     </g>
     <g id="text_6">
      <text style="font: 10px 'Arial', sans-serif; text-anchor: end" x="41.851283" y="148.640981" transform="rotate(-0 41.851283 148.640981)">0.1</text>
     </g>
    </g>
    <g id="ytick_6">
     <g id="line2d_6">
      <g>
       <use xlink:href="#m2007c8c6e4" x="48.851283" y="111.643804" style="stroke: #000000; stroke-width: 0.8"/>
      </g>
     </g>
     <g id="text_7">
      <text style="font: 10px 'Arial', sans-serif; text-anchor: end" x="41.851283" y="115.22271" transform="rotate(-0 41.851283 115.22271)">0.2</text>
     </g>
    </g>
    <g id="ytick_7">
     <g id="line2d_7">
      <g>
       <use xlink:href="#m2007c8c6e4" x="48.851283" y="78.225533" style="stroke: #000000; stroke-width: 0.8"/>
      </g>
     </g>
     <g id="text_8">
      <text style="font: 10px 'Arial', sans-serif; text-anchor: end" x="41.851283" y="81.804439" transform="rotate(-0 41.851283 81.804439)">0.3</text>
     </g>
    </g>
    <g id="ytick_8">
     <g id="line2d_8">
      <g>
       <use xlink:href="#m2007c8c6e4" x="48.851283" y="44.807261" style="stroke: #000000; stroke-width: 0.8"/>
      </g>
     </g>
     <g id="text_9">
      <text style="font: 10px 'Arial', sans-serif; text-anchor: end" x="41.851283" y="48.386168" transform="rotate(-0 41.851283 48.386168)">0.4</text>
     </g>
    </g>
    <g id="text_10">
     <text style="font: 10px 'Arial', sans-serif; text-anchor: middle" x="16.005971" y="152.31998" transform="rotate(-90 16.005971 152.31998)">Activity</text>
    </g>
   </g>
   <g id="line2d_9">
    <path d="M 48.851283 86.260351 
L 60.011283 98.949425 
L 71.171283 106.842535 
L 82.331283 105.792658 
L 93.491283 107.377192 
L 104.651283 114.5823 
L 115.811283 122.188051 
L 126.971283 121.588942 
L 138.131283 112.101159 
L 149.291283 101.212718 
L 160.451283 100.612011 
L 171.611283 107.763005 
L 182.771283 121.459559 
L 193.931283 138.702115 
L 205.091283 143.795126 
L 216.251283 136.864029 
L 227.411283 139.362191 
L 238.571283 161.50049 
L 249.731283 189.301904 
L 260.891283 206.835101 
L 272.051283 207.343853 
L 283.211283 211.061914 
L 294.371283 225.079888 
L 305.531283 232.367939 
L 316.691283 230.277282 
L 327.851283 228.505277 
L 339.011283 223.186961 
L 350.171283 217.595931 
L 361.331283 202.076975 
L 372.491283 190.7279 
L 383.651283 192.508436 
L 394.811283 202.420398 
L 405.971283 197.543174 
" clip-path="url(#p13533a85cb)" style="fill: none; stroke: #1f77b4; stroke-width: 1.5; stroke-linecap: square"/>
   </g>
   <g id="line2d_10">
    <path d="M 48.851283 101.708737 
L 60.011283 117.288339 
L 71.171283 137.09394 
L 82.331283 145.92018 
L 93.491283 150.945913 
L 104.651283 143.399785 
L 115.811283 129.511935 
L 126.971283 119.097752 
L 138.131283 129.641109 
L 149.291283 147.646267 
L 160.451283 168.042509 
L 171.611283 183.144762 
L 182.771283 190.40484 
L 193.931283 184.015889 
L 205.091283 167.202667 
L 216.251283 153.880272 
L 227.411283 156.109609 
L 238.571283 173.06622 
L 249.731283 190.22926 
L 260.891283 197.679333 
L 272.051283 201.886658 
L 283.211283 208.541595 
L 294.371283 220.800485 
L 305.531283 228.751279 
L 316.691283 233.662165 
L 327.851283 235.481428 
L 339.011283 245.430859 
L 350.171283 250.799714 
L 361.331283 243.091855 
L 372.491283 230.181213 
L 383.651283 217.150715 
L 394.811283 206.008877 
L 405.971283 193.56716 
" clip-path="url(#p13533a85cb)" style="fill: none; stroke: #ff7f0e; stroke-width: 1.5; stroke-linecap: square"/>
   </g>
   <g id="line2d_11">
    <path d="M 82.331283 285.37598 
L 82.331283 19.26398 
" clip-path="url(#p13533a85cb)" style="fill: none; stroke-dasharray: 5.55,2.4; stroke-dashoffset: 0; stroke: #000000; stroke-opacity: 0.5; stroke-width: 1.5"/>
   </g>
   <g id="line2d_12">
    <path d="M 383.651283 285.37598 
L 383.651283 19.26398 
" clip-path="url(#p13533a85cb)" style="fill: none; stroke-dasharray: 5.55,2.4; stroke-dashoffset: 0; stroke: #000000; stroke-opacity: 0.5; stroke-width: 1.5"/>
   </g>
   <g id="patch_3">
    <path d="M 48.851283 285.37598 
L 405.971283 285.37598 
" style="fill: none; stroke: #000000; stroke-width: 0.8; stroke-linejoin: miter; stroke-linecap: square"/>
   </g>
   <g id="text_11">
    <text style="font: 6.94px 'Arial', sans-serif" transform="translate(10.097767 321.385533) rotate(-35)">-0.1s Sampling</text>
   </g>
   <g id="text_12">
    <text style="font: 6.94px 'Arial', sans-serif" transform="translate(57.794497 311.430872) rotate(-35)">Sampling</text>
   </g>
   <g id="text_13">
    <text style="font: 6.94px 'Arial', sans-serif" transform="translate(319.037191 339.456682) rotate(-35)">Movement to Lateral Port</text>
   </g>
   <g id="text_14">
    <text style="font: 8.33px 'Arial', sans-serif; text-anchor: middle" x="227.411283" y="13.26398" transform="rotate(-0 227.411283 13.26398)">gp4_81_S8_L65_D250_ALM - Trace:48_gp4_81_S8_L65_D250_ALM (when: correct)</text>
   </g>
   <g id="legend_1">
    <g id="patch_4">
     <path d="M 133.696342 354.133136 
L 321.126224 354.133136 
Q 322.514224 354.133136 322.514224 352.745136 
L 322.514224 343.45638 
Q 322.514224 342.06838 321.126224 342.06838 
L 133.696342 342.06838 
Q 132.308342 342.06838 132.308342 343.45638 
L 132.308342 352.745136 
Q 132.308342 354.133136 133.696342 354.133136 
z
" style="fill: #ffffff; opacity: 0.8; stroke: #cccccc; stroke-linejoin: miter"/>
    </g>
    <g id="line2d_13">
     <path d="M 135.084342 347.467483 
L 142.024342 347.467483 
L 148.964342 347.467483 
" style="fill: none; stroke: #1f77b4; stroke-width: 1.5; stroke-linecap: square"/>
    </g>
    <g id="text_15">
     <text style="font: 6.94px 'Arial', sans-serif; text-anchor: start" x="154.516342" y="349.896483" transform="rotate(-0 154.516342 349.896483)">DecisionRight (95 pts)</text>
    </g>
    <g id="line2d_14">
     <path d="M 236.664255 347.467483 
L 243.604255 347.467483 
L 250.544255 347.467483 
" style="fill: none; stroke: #ff7f0e; stroke-width: 1.5; stroke-linecap: square"/>
    </g>
    <g id="text_16">
     <text style="font: 6.94px 'Arial', sans-serif; text-anchor: start" x="256.096255" y="349.896483" transform="rotate(-0 256.096255 349.896483)">DecisionLeft (99 pts)</text>
    </g>
   </g>
  </g>
 </g>
 <defs>
  <clipPath id="p13533a85cb">
   <rect x="48.851283" y="19.26398" width="357.12" height="266.112"/>
  </clipPath>
 </defs>
</svg>
