<?xml version="1.0" encoding="utf-8" standalone="no"?>
<!DOCTYPE svg PUBLIC "-//W3C//DTD SVG 1.1//EN"
  "http://www.w3.org/Graphics/SVG/1.1/DTD/svg11.dtd">
<svg xmlns:xlink="http://www.w3.org/1999/xlink" width="413.171283pt" height="361.333136pt" viewBox="0 0 413.171283 361.333136" xmlns="http://www.w3.org/2000/svg" version="1.1">
 <metadata>
  <rdf:RDF xmlns:dc="http://purl.org/dc/elements/1.1/" xmlns:cc="http://creativecommons.org/ns#" xmlns:rdf="http://www.w3.org/1999/02/22-rdf-syntax-ns#">
   <cc:Work>
    <dc:type rdf:resource="http://purl.org/dc/dcmitype/StillImage"/>
    <dc:date>2025-12-29T04:07:42.431087</dc:date>
    <dc:format>image/svg+xml</dc:format>
    <dc:creator>
     <cc:Agent>
      <dc:title>Matplotlib v3.8.0, https://matplotlib.org/</dc:title>
     </cc:Agent>
    </dc:creator>
   </cc:Work>
  </rdf:RDF>
 </metadata>
 <defs>
  <style type="text/css">*{stroke-linejoin: round; stroke-linecap: butt}</style>
 </defs>
 <g id="figure_1">
  <g id="patch_1">
   <path d="M 0 361.333136 
L 413.171283 361.333136 
L 413.171283 -0 
L 0 -0 
z
" style="fill: #ffffff"/>
  </g>
  <g id="axes_1">
   <g id="patch_2">
    <path d="M 48.851283 285.37598 
L 405.971283 285.37598 
L 405.971283 19.26398 
L 48.851283 19.26398 
z
" style="fill: #ffffff"/>
   </g>
   <g id="PolyCollection_1">
    <defs>
     <path id="m441f1ed13b" d="M 48.851283 -129.94968 
L 48.851283 -102.157883 
L 60.011283 -114.493036 
L 71.171283 -119.192216 
L 82.331283 -133.774089 
L 93.491283 -150.80277 
L 104.651283 -169.161674 
L 115.811283 -181.471438 
L 126.971283 -188.918189 
L 138.131283 -194.434814 
L 149.291283 -197.387804 
L 160.451283 -202.73104 
L 171.611283 -218.316954 
L 182.771283 -236.715552 
L 193.931283 -250.123297 
L 205.091283 -255.015973 
L 216.251283 -257.338022 
L 227.411283 -255.469122 
L 238.571283 -244.728145 
L 249.731283 -235.787692 
L 260.891283 -235.410857 
L 272.051283 -241.556776 
L 283.211283 -250.822054 
L 294.371283 -257.35881 
L 305.531283 -257.621349 
L 316.691283 -257.248287 
L 327.851283 -256.102406 
L 339.011283 -245.486447 
L 350.171283 -228.132093 
L 361.331283 -210.67972 
L 372.491283 -191.581793 
L 383.651283 -170.100738 
L 394.811283 -159.42113 
L 405.971283 -157.780217 
L 405.971283 -196.272997 
L 405.971283 -196.272997 
L 394.811283 -197.270097 
L 383.651283 -207.800155 
L 372.491283 -233.714202 
L 361.331283 -261.156102 
L 350.171283 -290.20647 
L 339.011283 -318.651439 
L 327.851283 -329.973156 
L 316.691283 -322.247351 
L 305.531283 -312.858399 
L 294.371283 -305.972646 
L 283.211283 -296.837389 
L 272.051283 -285.767039 
L 260.891283 -279.462229 
L 249.731283 -280.147649 
L 238.571283 -289.513383 
L 227.411283 -301.842909 
L 216.251283 -301.898212 
L 205.091283 -296.895176 
L 193.931283 -291.468346 
L 182.771283 -277.928299 
L 171.611283 -257.754052 
L 160.451283 -240.049388 
L 149.291283 -234.07956 
L 138.131283 -231.932079 
L 126.971283 -225.218889 
L 115.811283 -215.050193 
L 104.651283 -200.028724 
L 93.491283 -179.330642 
L 82.331283 -160.89438 
L 71.171283 -144.912766 
L 60.011283 -141.508565 
L 48.851283 -129.94968 
z
" style="stroke: #1f77b4; stroke-opacity: 0.2"/>
    </defs>
    <g clip-path="url(#p7d0140e33e)">
     <use xlink:href="#m441f1ed13b" x="0" y="361.333136" style="fill: #1f77b4; fill-opacity: 0.2; stroke: #1f77b4; stroke-opacity: 0.2"/>
    </g>
   </g>
   <g id="PolyCollection_2">
    <defs>
     <path id="mcd81f55422" d="M 48.851283 -120.599598 
L 48.851283 -92.472495 
L 60.011283 -104.51906 
L 71.171283 -125.974277 
L 82.331283 -144.928476 
L 93.491283 -156.38644 
L 104.651283 -167.352037 
L 115.811283 -178.668202 
L 126.971283 -188.115986 
L 138.131283 -192.558963 
L 149.291283 -194.508404 
L 160.451283 -200.331597 
L 171.611283 -201.856462 
L 182.771283 -203.170714 
L 193.931283 -203.324745 
L 205.091283 -197.733409 
L 216.251283 -194.902349 
L 227.411283 -196.562065 
L 238.571283 -199.30893 
L 249.731283 -202.033819 
L 260.891283 -201.780934 
L 272.051283 -197.302869 
L 283.211283 -202.442643 
L 294.371283 -213.066312 
L 305.531283 -211.790253 
L 316.691283 -208.255338 
L 327.851283 -205.319932 
L 339.011283 -198.292506 
L 350.171283 -183.603298 
L 361.331283 -163.727006 
L 372.491283 -148.488809 
L 383.651283 -120.7994 
L 394.811283 -89.512668 
L 405.971283 -88.053156 
L 405.971283 -114.486851 
L 405.971283 -114.486851 
L 394.811283 -116.919567 
L 383.651283 -150.451493 
L 372.491283 -180.674072 
L 361.331283 -200.758216 
L 350.171283 -230.583198 
L 339.011283 -250.696382 
L 327.851283 -255.824077 
L 316.691283 -252.298376 
L 305.531283 -250.579992 
L 294.371283 -253.211963 
L 283.211283 -243.741724 
L 272.051283 -235.200448 
L 260.891283 -237.356941 
L 249.731283 -238.710172 
L 238.571283 -238.478135 
L 227.411283 -238.381399 
L 216.251283 -233.971317 
L 205.091283 -233.426766 
L 193.931283 -238.14353 
L 182.771283 -240.485522 
L 171.611283 -241.301191 
L 160.451283 -239.863283 
L 149.291283 -231.283256 
L 138.131283 -224.443249 
L 126.971283 -216.824991 
L 115.811283 -207.091217 
L 104.651283 -195.633617 
L 93.491283 -184.261639 
L 82.331283 -172.709015 
L 71.171283 -152.802284 
L 60.011283 -131.519385 
L 48.851283 -120.599598 
z
" style="stroke: #ff7f0e; stroke-opacity: 0.2"/>
    </defs>
    <g clip-path="url(#p7d0140e33e)">
     <use xlink:href="#mcd81f55422" x="0" y="361.333136" style="fill: #ff7f0e; fill-opacity: 0.2; stroke: #ff7f0e; stroke-opacity: 0.2"/>
    </g>
   </g>
   <g id="matplotlib.axis_1">
    <g id="text_1">
     <text style="font: 10px 'Arial', sans-serif; text-anchor: middle" x="227.411283" y="296.533792" transform="rotate(-0 227.411283 296.533792)">Time</text>
    </g>
   </g>
   <g id="matplotlib.axis_2">
    <g id="ytick_1">
     <g id="line2d_1">
      <defs>
       <path id="md95576f68d" d="M 0 0 
L -3.5 0 
" style="stroke: #000000; stroke-width: 0.8"/>
      </defs>
      <g>
       <use xlink:href="#md95576f68d" x="48.851283" y="282.736425" style="stroke: #000000; stroke-width: 0.8"/>
      </g>
     </g>
     <g id="text_2">
      <text style="font: 10px 'Arial', sans-serif; text-anchor: end" x="41.851283" y="286.315331" transform="rotate(-0 41.851283 286.315331)">−0.4</text>
     </g>
    </g>
    <g id="ytick_2">
     <g id="line2d_2">
      <g>
       <use xlink:href="#md95576f68d" x="48.851283" y="242.474417" style="stroke: #000000; stroke-width: 0.8"/>
      </g>
     </g>
     <g id="text_3">
      <text style="font: 10px 'Arial', sans-serif; text-anchor: end" x="41.851283" y="246.053323" transform="rotate(-0 41.851283 246.053323)">−0.2</text>
     </g>
    </g>
    <g id="ytick_3">
     <g id="line2d_3">
      <g>
       <use xlink:href="#md95576f68d" x="48.851283" y="202.212409" style="stroke: #000000; stroke-width: 0.8"/>
      </g>
     </g>
     <g id="text_4">
      <text style="font: 10px 'Arial', sans-serif; text-anchor: end" x="41.851283" y="205.791315" transform="rotate(-0 41.851283 205.791315)">0.0</text>
     </g>
    </g>
    <g id="ytick_4">
     <g id="line2d_4">
      <g>
       <use xlink:href="#md95576f68d" x="48.851283" y="161.950401" style="stroke: #000000; stroke-width: 0.8"/>
      </g>
     </g>
     <g id="text_5">
      <text style="font: 10px 'Arial', sans-serif; text-anchor: end" x="41.851283" y="165.529307" transform="rotate(-0 41.851283 165.529307)">0.2</text>
     </g>
    </g>
    <g id="ytick_5">
     <g id="line2d_5">
      <g>
       <use xlink:href="#md95576f68d" x="48.851283" y="121.688392" style="stroke: #000000; stroke-width: 0.8"/>
      </g>
     </g>
     <g id="text_6">
      <text style="font: 10px 'Arial', sans-serif; text-anchor: end" x="41.851283" y="125.267299" transform="rotate(-0 41.851283 125.267299)">0.4</text>
     </g>
    </g>
    <g id="ytick_6">
     <g id="line2d_6">
      <g>
       <use xlink:href="#md95576f68d" x="48.851283" y="81.426384" style="stroke: #000000; stroke-width: 0.8"/>
      </g>
     </g>
     <g id="text_7">
      <text style="font: 10px 'Arial', sans-serif; text-anchor: end" x="41.851283" y="85.00529" transform="rotate(-0 41.851283 85.00529)">0.6</text>
     </g>
    </g>
    <g id="ytick_7">
     <g id="line2d_7">
      <g>
       <use xlink:href="#md95576f68d" x="48.851283" y="41.164376" style="stroke: #000000; stroke-width: 0.8"/>
      </g>
     </g>
     <g id="text_8">
      <text style="font: 10px 'Arial', sans-serif; text-anchor: end" x="41.851283" y="44.743282" transform="rotate(-0 41.851283 44.743282)">0.8</text>
     </g>
    </g>
    <g id="text_9">
     <text style="font: 10px 'Arial', sans-serif; text-anchor: middle" x="16.005971" y="152.31998" transform="rotate(-90 16.005971 152.31998)">Activity</text>
    </g>
   </g>
   <g id="line2d_8">
    <path d="M 48.851283 245.279355 
L 60.011283 233.332336 
L 71.171283 229.280644 
L 82.331283 213.998901 
L 93.491283 196.26643 
L 104.651283 176.737936 
L 115.811283 163.07232 
L 126.971283 154.264597 
L 138.131283 148.14969 
L 149.291283 145.599455 
L 160.451283 139.942922 
L 171.611283 123.297633 
L 182.771283 104.011211 
L 193.931283 90.537314 
L 205.091283 85.377559 
L 216.251283 81.715016 
L 227.411283 82.677121 
L 238.571283 94.212372 
L 249.731283 103.365466 
L 260.891283 103.896596 
L 272.051283 97.671232 
L 283.211283 87.503412 
L 294.371283 79.667408 
L 305.531283 76.093262 
L 316.691283 71.585316 
L 327.851283 68.295355 
L 339.011283 79.264193 
L 350.171283 102.163854 
L 361.331283 125.415225 
L 372.491283 148.68514 
L 383.651283 172.38269 
L 394.811283 182.987522 
L 405.971283 184.30653 
" clip-path="url(#p7d0140e33e)" style="fill: none; stroke: #1f77b4; stroke-width: 1.5; stroke-linecap: square"/>
   </g>
   <g id="line2d_9">
    <path d="M 48.851283 254.797089 
L 60.011283 243.313913 
L 71.171283 221.944855 
L 82.331283 202.514391 
L 93.491283 191.009096 
L 104.651283 179.840308 
L 115.811283 168.453427 
L 126.971283 158.862646 
L 138.131283 152.832032 
L 149.291283 148.437306 
L 160.451283 141.235696 
L 171.611283 139.75431 
L 182.771283 139.505018 
L 193.931283 140.598998 
L 205.091283 145.753049 
L 216.251283 146.896303 
L 227.411283 143.861404 
L 238.571283 142.439605 
L 249.731283 140.961141 
L 260.891283 141.764199 
L 272.051283 145.081476 
L 283.211283 138.240952 
L 294.371283 128.193998 
L 305.531283 130.148014 
L 316.691283 131.056279 
L 327.851283 130.761133 
L 339.011283 136.838694 
L 350.171283 154.239888 
L 361.331283 179.090526 
L 372.491283 196.751696 
L 383.651283 225.70769 
L 394.811283 258.117018 
L 405.971283 260.063132 
" clip-path="url(#p7d0140e33e)" style="fill: none; stroke: #ff7f0e; stroke-width: 1.5; stroke-linecap: square"/>
   </g>
   <g id="line2d_10">
    <path d="M 82.331283 285.37598 
L 82.331283 19.26398 
" clip-path="url(#p7d0140e33e)" style="fill: none; stroke-dasharray: 5.55,2.4; stroke-dashoffset: 0; stroke: #000000; stroke-opacity: 0.5; stroke-width: 1.5"/>
   </g>
   <g id="line2d_11">
    <path d="M 383.651283 285.37598 
L 383.651283 19.26398 
" clip-path="url(#p7d0140e33e)" style="fill: none; stroke-dasharray: 5.55,2.4; stroke-dashoffset: 0; stroke: #000000; stroke-opacity: 0.5; stroke-width: 1.5"/>
   </g>
   <g id="patch_3">
    <path d="M 48.851283 285.37598 
L 405.971283 285.37598 
" style="fill: none; stroke: #000000; stroke-width: 0.8; stroke-linejoin: miter; stroke-linecap: square"/>
   </g>
   <g id="text_10">
    <text style="font: 6.94px 'Arial', sans-serif" transform="translate(10.097767 321.385533) rotate(-35)">-0.1s Sampling</text>
   </g>
   <g id="text_11">
    <text style="font: 6.94px 'Arial', sans-serif" transform="translate(57.794497 311.430872) rotate(-35)">Sampling</text>
   </g>
   <g id="text_12">
    <text style="font: 6.94px 'Arial', sans-serif" transform="translate(319.037191 339.456682) rotate(-35)">Movement to Lateral Port</text>
   </g>
   <g id="text_13">
    <text style="font: 8.33px 'Arial', sans-serif; text-anchor: middle" x="227.411283" y="13.26398" transform="rotate(-0 227.411283 13.26398)">gp4_81_S8_L65_D250_ALM - Trace:67_gp4_81_S8_L65_D250_ALM (when: correct)</text>
   </g>
   <g id="legend_1">
    <g id="patch_4">
     <path d="M 133.696342 354.133136 
L 321.126224 354.133136 
Q 322.514224 354.133136 322.514224 352.745136 
L 322.514224 343.45638 
Q 322.514224 342.06838 321.126224 342.06838 
L 133.696342 342.06838 
Q 132.308342 342.06838 132.308342 343.45638 
L 132.308342 352.745136 
Q 132.308342 354.133136 133.696342 354.133136 
z
" style="fill: #ffffff; opacity: 0.8; stroke: #cccccc; stroke-linejoin: miter"/>
    </g>
    <g id="line2d_12">
     <path d="M 135.084342 347.467483 
L 142.024342 347.467483 
L 148.964342 347.467483 
" style="fill: none; stroke: #1f77b4; stroke-width: 1.5; stroke-linecap: square"/>
    </g>
    <g id="text_14">
     <text style="font: 6.94px 'Arial', sans-serif; text-anchor: start" x="154.516342" y="349.896483" transform="rotate(-0 154.516342 349.896483)">DecisionRight (95 pts)</text>
    </g>
    <g id="line2d_13">
     <path d="M 236.664255 347.467483 
L 243.604255 347.467483 
L 250.544255 347.467483 
" style="fill: none; stroke: #ff7f0e; stroke-width: 1.5; stroke-linecap: square"/>
    </g>
    <g id="text_15">
     <text style="font: 6.94px 'Arial', sans-serif; text-anchor: start" x="256.096255" y="349.896483" transform="rotate(-0 256.096255 349.896483)">DecisionLeft (99 pts)</text>
    </g>
   </g>
  </g>
 </g>
 <defs>
  <clipPath id="p7d0140e33e">
   <rect x="48.851283" y="19.26398" width="357.12" height="266.112"/>
  </clipPath>
 </defs>
</svg>
