<?xml version="1.0" encoding="utf-8" standalone="no"?>
<!DOCTYPE svg PUBLIC "-//W3C//DTD SVG 1.1//EN"
  "http://www.w3.org/Graphics/SVG/1.1/DTD/svg11.dtd">
<svg xmlns:xlink="http://www.w3.org/1999/xlink" width="413.171283pt" height="361.333136pt" viewBox="0 0 413.171283 361.333136" xmlns="http://www.w3.org/2000/svg" version="1.1">
 <metadata>
  <rdf:RDF xmlns:dc="http://purl.org/dc/elements/1.1/" xmlns:cc="http://creativecommons.org/ns#" xmlns:rdf="http://www.w3.org/1999/02/22-rdf-syntax-ns#">
   <cc:Work>
    <dc:type rdf:resource="http://purl.org/dc/dcmitype/StillImage"/>
    <dc:date>2025-12-29T04:07:42.929611</dc:date>
    <dc:format>image/svg+xml</dc:format>
    <dc:creator>
     <cc:Agent>
      <dc:title>Matplotlib v3.8.0, https://matplotlib.org/</dc:title>
     </cc:Agent>
    </dc:creator>
   </cc:Work>
  </rdf:RDF>
 </metadata>
 <defs>
  <style type="text/css">*{stroke-linejoin: round; stroke-linecap: butt}</style>
 </defs>
 <g id="figure_1">
  <g id="patch_1">
   <path d="M 0 361.333136 
L 413.171283 361.333136 
L 413.171283 -0 
L 0 -0 
z
" style="fill: #ffffff"/>
  </g>
  <g id="axes_1">
   <g id="patch_2">
    <path d="M 48.851283 285.37598 
L 405.971283 285.37598 
L 405.971283 19.26398 
L 48.851283 19.26398 
z
" style="fill: #ffffff"/>
   </g>
   <g id="PolyCollection_1">
    <defs>
     <path id="md96e1a5548" d="M 48.851283 -234.439301 
L 48.851283 -171.021754 
L 60.011283 -186.80415 
L 71.171283 -197.930787 
L 82.331283 -199.938575 
L 93.491283 -200.463439 
L 104.651283 -203.915991 
L 115.811283 -207.699586 
L 126.971283 -209.04788 
L 138.131283 -206.078171 
L 149.291283 -202.460195 
L 160.451283 -197.802395 
L 171.611283 -194.604714 
L 182.771283 -193.394497 
L 193.931283 -193.103129 
L 205.091283 -193.332968 
L 216.251283 -194.081547 
L 227.411283 -194.826718 
L 238.571283 -198.787963 
L 249.731283 -203.676263 
L 260.891283 -204.722888 
L 272.051283 -205.732565 
L 283.211283 -207.849075 
L 294.371283 -212.97114 
L 305.531283 -216.647213 
L 316.691283 -213.132006 
L 327.851283 -198.431314 
L 339.011283 -175.849331 
L 350.171283 -154.458811 
L 361.331283 -137.273374 
L 372.491283 -124.238396 
L 383.651283 -105.737028 
L 394.811283 -95.695051 
L 405.971283 -88.053156 
L 405.971283 -109.575777 
L 405.971283 -109.575777 
L 394.811283 -117.460499 
L 383.651283 -128.659489 
L 372.491283 -152.329191 
L 361.331283 -174.900125 
L 350.171283 -209.128484 
L 339.011283 -245.147565 
L 327.851283 -274.95831 
L 316.691283 -289.935983 
L 305.531283 -288.424243 
L 294.371283 -275.908987 
L 283.211283 -265.915886 
L 272.051283 -270.663829 
L 260.891283 -278.257303 
L 249.731283 -276.625336 
L 238.571283 -262.027771 
L 227.411283 -249.304649 
L 216.251283 -244.219812 
L 205.091283 -243.842088 
L 193.931283 -247.100455 
L 182.771283 -251.769571 
L 171.611283 -257.21589 
L 160.451283 -261.236392 
L 149.291283 -267.613699 
L 138.131283 -274.746354 
L 126.971283 -276.856482 
L 115.811283 -270.308153 
L 104.651283 -261.563843 
L 93.491283 -257.232523 
L 82.331283 -258.798449 
L 71.171283 -262.268881 
L 60.011283 -253.738358 
L 48.851283 -234.439301 
z
" style="stroke: #1f77b4; stroke-opacity: 0.2"/>
    </defs>
    <g clip-path="url(#p4c735cf51d)">
     <use xlink:href="#md96e1a5548" x="0" y="361.333136" style="fill: #1f77b4; fill-opacity: 0.2; stroke: #1f77b4; stroke-opacity: 0.2"/>
    </g>
   </g>
   <g id="PolyCollection_2">
    <defs>
     <path id="meecda0ef38" d="M 48.851283 -304.862183 
L 48.851283 -211.696347 
L 60.011283 -215.837973 
L 71.171283 -219.731038 
L 82.331283 -222.306352 
L 93.491283 -224.57908 
L 104.651283 -222.501247 
L 115.811283 -220.049562 
L 126.971283 -212.731063 
L 138.131283 -203.503966 
L 149.291283 -200.150004 
L 160.451283 -203.322281 
L 171.611283 -207.843579 
L 182.771283 -211.014676 
L 193.931283 -209.470957 
L 205.091283 -207.267808 
L 216.251283 -207.124303 
L 227.411283 -209.145935 
L 238.571283 -208.817648 
L 249.731283 -203.967524 
L 260.891283 -197.271697 
L 272.051283 -197.43405 
L 283.211283 -205.556527 
L 294.371283 -213.923088 
L 305.531283 -215.159438 
L 316.691283 -207.499676 
L 327.851283 -193.425821 
L 339.011283 -175.295689 
L 350.171283 -152.799621 
L 361.331283 -128.683687 
L 372.491283 -113.973841 
L 383.651283 -101.988256 
L 394.811283 -96.97188 
L 405.971283 -90.636228 
L 405.971283 -118.167181 
L 405.971283 -118.167181 
L 394.811283 -129.485959 
L 383.651283 -141.510528 
L 372.491283 -161.856862 
L 361.331283 -184.24479 
L 350.171283 -218.033917 
L 339.011283 -250.708747 
L 327.851283 -275.293664 
L 316.691283 -289.285486 
L 305.531283 -293.667205 
L 294.371283 -287.515096 
L 283.211283 -275.227165 
L 272.051283 -267.255665 
L 260.891283 -270.395866 
L 249.731283 -282.555786 
L 238.571283 -294.813508 
L 227.411283 -301.150193 
L 216.251283 -297.836592 
L 205.091283 -294.383179 
L 193.931283 -295.070082 
L 182.771283 -294.776288 
L 171.611283 -290.538023 
L 160.451283 -287.187473 
L 149.291283 -284.586392 
L 138.131283 -288.604259 
L 126.971283 -301.672617 
L 115.811283 -315.400206 
L 104.651283 -323.782805 
L 93.491283 -329.973156 
L 82.331283 -327.855182 
L 71.171283 -320.379383 
L 60.011283 -311.717035 
L 48.851283 -304.862183 
z
" style="stroke: #ff7f0e; stroke-opacity: 0.2"/>
    </defs>
    <g clip-path="url(#p4c735cf51d)">
     <use xlink:href="#meecda0ef38" x="0" y="361.333136" style="fill: #ff7f0e; fill-opacity: 0.2; stroke: #ff7f0e; stroke-opacity: 0.2"/>
    </g>
   </g>
   <g id="matplotlib.axis_1">
    <g id="text_1">
     <text style="font: 10px 'Arial', sans-serif; text-anchor: middle" x="227.411283" y="296.533792" transform="rotate(-0 227.411283 296.533792)">Time</text>
    </g>
   </g>
   <g id="matplotlib.axis_2">
    <g id="ytick_1">
     <g id="line2d_1">
      <defs>
       <path id="me577681a94" d="M 0 0 
L -3.5 0 
" style="stroke: #000000; stroke-width: 0.8"/>
      </defs>
      <g>
       <use xlink:href="#me577681a94" x="48.851283" y="266.526912" style="stroke: #000000; stroke-width: 0.8"/>
      </g>
     </g>
     <g id="text_2">
      <text style="font: 10px 'Arial', sans-serif; text-anchor: end" x="41.851283" y="270.105818" transform="rotate(-0 41.851283 270.105818)">−0.3</text>
     </g>
    </g>
    <g id="ytick_2">
     <g id="line2d_2">
      <g>
       <use xlink:href="#me577681a94" x="48.851283" y="231.514534" style="stroke: #000000; stroke-width: 0.8"/>
      </g>
     </g>
     <g id="text_3">
      <text style="font: 10px 'Arial', sans-serif; text-anchor: end" x="41.851283" y="235.09344" transform="rotate(-0 41.851283 235.09344)">−0.2</text>
     </g>
    </g>
    <g id="ytick_3">
     <g id="line2d_3">
      <g>
       <use xlink:href="#me577681a94" x="48.851283" y="196.502156" style="stroke: #000000; stroke-width: 0.8"/>
      </g>
     </g>
     <g id="text_4">
      <text style="font: 10px 'Arial', sans-serif; text-anchor: end" x="41.851283" y="200.081062" transform="rotate(-0 41.851283 200.081062)">−0.1</text>
     </g>
    </g>
    <g id="ytick_4">
     <g id="line2d_4">
      <g>
       <use xlink:href="#me577681a94" x="48.851283" y="161.489778" style="stroke: #000000; stroke-width: 0.8"/>
      </g>
     </g>
     <g id="text_5">
      <text style="font: 10px 'Arial', sans-serif; text-anchor: end" x="41.851283" y="165.068684" transform="rotate(-0 41.851283 165.068684)">0.0</text>
     </g>
    </g>
    <g id="ytick_5">
     <g id="line2d_5">
      <g>
       <use xlink:href="#me577681a94" x="48.851283" y="126.4774" style="stroke: #000000; stroke-width: 0.8"/>
      </g>
     </g>
     <g id="text_6">
      <text style="font: 10px 'Arial', sans-serif; text-anchor: end" x="41.851283" y="130.056306" transform="rotate(-0 41.851283 130.056306)">0.1</text>
     </g>
    </g>
    <g id="ytick_6">
     <g id="line2d_6">
      <g>
       <use xlink:href="#me577681a94" x="48.851283" y="91.465022" style="stroke: #000000; stroke-width: 0.8"/>
      </g>
     </g>
     <g id="text_7">
      <text style="font: 10px 'Arial', sans-serif; text-anchor: end" x="41.851283" y="95.043928" transform="rotate(-0 41.851283 95.043928)">0.2</text>
     </g>
    </g>
    <g id="ytick_7">
     <g id="line2d_7">
      <g>
       <use xlink:href="#me577681a94" x="48.851283" y="56.452644" style="stroke: #000000; stroke-width: 0.8"/>
      </g>
     </g>
     <g id="text_8">
      <text style="font: 10px 'Arial', sans-serif; text-anchor: end" x="41.851283" y="60.03155" transform="rotate(-0 41.851283 60.03155)">0.3</text>
     </g>
    </g>
    <g id="ytick_8">
     <g id="line2d_8">
      <g>
       <use xlink:href="#me577681a94" x="48.851283" y="21.440266" style="stroke: #000000; stroke-width: 0.8"/>
      </g>
     </g>
     <g id="text_9">
      <text style="font: 10px 'Arial', sans-serif; text-anchor: end" x="41.851283" y="25.019172" transform="rotate(-0 41.851283 25.019172)">0.4</text>
     </g>
    </g>
    <g id="text_10">
     <text style="font: 10px 'Arial', sans-serif; text-anchor: middle" x="16.005971" y="152.31998" transform="rotate(-90 16.005971 152.31998)">Activity</text>
    </g>
   </g>
   <g id="line2d_9">
    <path d="M 48.851283 158.602608 
L 60.011283 141.061881 
L 71.171283 131.233302 
L 82.331283 131.964622 
L 93.491283 132.485155 
L 104.651283 128.593219 
L 115.811283 122.329265 
L 126.971283 118.380954 
L 138.131283 120.920873 
L 149.291283 126.296189 
L 160.451283 131.813742 
L 171.611283 135.422835 
L 182.771283 138.751102 
L 193.931283 141.231344 
L 205.091283 142.745608 
L 216.251283 142.182456 
L 227.411283 139.267454 
L 238.571283 130.92527 
L 249.731283 121.182336 
L 260.891283 119.843042 
L 272.051283 123.134939 
L 283.211283 124.450654 
L 294.371283 116.893072 
L 305.531283 108.797407 
L 316.691283 109.79914 
L 327.851283 124.638324 
L 339.011283 150.834689 
L 350.171283 179.539489 
L 361.331283 205.246386 
L 372.491283 223.049342 
L 383.651283 244.134877 
L 394.811283 254.755358 
L 405.971283 262.518669 
" clip-path="url(#p4c735cf51d)" style="fill: none; stroke: #1f77b4; stroke-width: 1.5; stroke-linecap: square"/>
   </g>
   <g id="line2d_10">
    <path d="M 48.851283 103.053871 
L 60.011283 97.555629 
L 71.171283 91.277925 
L 82.331283 86.252367 
L 93.491283 84.05702 
L 104.651283 88.191107 
L 115.811283 93.608252 
L 126.971283 104.131296 
L 138.131283 115.279022 
L 149.291283 118.964939 
L 160.451283 116.078258 
L 171.611283 112.142332 
L 182.771283 108.437656 
L 193.931283 109.062615 
L 205.091283 110.507642 
L 216.251283 108.852689 
L 227.411283 106.185072 
L 238.571283 109.51756 
L 249.731283 118.071482 
L 260.891283 127.499355 
L 272.051283 128.98828 
L 283.211283 120.941289 
L 294.371283 110.614043 
L 305.531283 106.919812 
L 316.691283 112.940556 
L 327.851283 126.973393 
L 339.011283 148.330917 
L 350.171283 175.916368 
L 361.331283 204.868898 
L 372.491283 223.417784 
L 383.651283 239.583744 
L 394.811283 248.104214 
L 405.971283 256.931432 
" clip-path="url(#p4c735cf51d)" style="fill: none; stroke: #ff7f0e; stroke-width: 1.5; stroke-linecap: square"/>
   </g>
   <g id="line2d_11">
    <path d="M 82.331283 285.37598 
L 82.331283 19.26398 
" clip-path="url(#p4c735cf51d)" style="fill: none; stroke-dasharray: 5.55,2.4; stroke-dashoffset: 0; stroke: #000000; stroke-opacity: 0.5; stroke-width: 1.5"/>
   </g>
   <g id="line2d_12">
    <path d="M 383.651283 285.37598 
L 383.651283 19.26398 
" clip-path="url(#p4c735cf51d)" style="fill: none; stroke-dasharray: 5.55,2.4; stroke-dashoffset: 0; stroke: #000000; stroke-opacity: 0.5; stroke-width: 1.5"/>
   </g>
   <g id="patch_3">
    <path d="M 48.851283 285.37598 
L 405.971283 285.37598 
" style="fill: none; stroke: #000000; stroke-width: 0.8; stroke-linejoin: miter; stroke-linecap: square"/>
   </g>
   <g id="text_11">
    <text style="font: 6.94px 'Arial', sans-serif" transform="translate(10.097767 321.385533) rotate(-35)">-0.1s Sampling</text>
   </g>
   <g id="text_12">
    <text style="font: 6.94px 'Arial', sans-serif" transform="translate(57.794497 311.430872) rotate(-35)">Sampling</text>
   </g>
   <g id="text_13">
    <text style="font: 6.94px 'Arial', sans-serif" transform="translate(319.037191 339.456682) rotate(-35)">Movement to Lateral Port</text>
   </g>
   <g id="text_14">
    <text style="font: 8.33px 'Arial', sans-serif; text-anchor: middle" x="227.411283" y="13.26398" transform="rotate(-0 227.411283 13.26398)">gp4_81_S8_L65_D250_ALM - Trace:8_gp4_81_S8_L65_D250_ALM (when: correct)</text>
   </g>
   <g id="legend_1">
    <g id="patch_4">
     <path d="M 133.696342 354.133136 
L 321.126224 354.133136 
Q 322.514224 354.133136 322.514224 352.745136 
L 322.514224 343.45638 
Q 322.514224 342.06838 321.126224 342.06838 
L 133.696342 342.06838 
Q 132.308342 342.06838 132.308342 343.45638 
L 132.308342 352.745136 
Q 132.308342 354.133136 133.696342 354.133136 
z
" style="fill: #ffffff; opacity: 0.8; stroke: #cccccc; stroke-linejoin: miter"/>
    </g>
    <g id="line2d_13">
     <path d="M 135.084342 347.467483 
L 142.024342 347.467483 
L 148.964342 347.467483 
" style="fill: none; stroke: #1f77b4; stroke-width: 1.5; stroke-linecap: square"/>
    </g>
    <g id="text_15">
     <text style="font: 6.94px 'Arial', sans-serif; text-anchor: start" x="154.516342" y="349.896483" transform="rotate(-0 154.516342 349.896483)">DecisionRight (95 pts)</text>
    </g>
    <g id="line2d_14">
     <path d="M 236.664255 347.467483 
L 243.604255 347.467483 
L 250.544255 347.467483 
" style="fill: none; stroke: #ff7f0e; stroke-width: 1.5; stroke-linecap: square"/>
    </g>
    <g id="text_16">
     <text style="font: 6.94px 'Arial', sans-serif; text-anchor: start" x="256.096255" y="349.896483" transform="rotate(-0 256.096255 349.896483)">DecisionLeft (99 pts)</text>
    </g>
   </g>
  </g>
 </g>
 <defs>
  <clipPath id="p4c735cf51d">
   <rect x="48.851283" y="19.26398" width="357.12" height="266.112"/>
  </clipPath>
 </defs>
</svg>
