<?xml version="1.0" encoding="utf-8" standalone="no"?>
<!DOCTYPE svg PUBLIC "-//W3C//DTD SVG 1.1//EN"
  "http://www.w3.org/Graphics/SVG/1.1/DTD/svg11.dtd">
<svg xmlns:xlink="http://www.w3.org/1999/xlink" width="576pt" height="432pt" viewBox="0 0 576 432" xmlns="http://www.w3.org/2000/svg" version="1.1">
 <metadata>
  <rdf:RDF xmlns:dc="http://purl.org/dc/elements/1.1/" xmlns:cc="http://creativecommons.org/ns#" xmlns:rdf="http://www.w3.org/1999/02/22-rdf-syntax-ns#">
   <cc:Work>
    <dc:type rdf:resource="http://purl.org/dc/dcmitype/StillImage"/>
    <dc:date>2025-12-08T16:35:12.769085</dc:date>
    <dc:format>image/svg+xml</dc:format>
    <dc:creator>
     <cc:Agent>
      <dc:title>Matplotlib v3.8.0, https://matplotlib.org/</dc:title>
     </cc:Agent>
    </dc:creator>
   </cc:Work>
  </rdf:RDF>
 </metadata>
 <defs>
  <style type="text/css">*{stroke-linejoin: round; stroke-linecap: butt}</style>
 </defs>
 <g id="figure_1">
  <g id="patch_1">
   <path d="M 0 432 
L 576 432 
L 576 0 
L 0 0 
z
" style="fill: #ffffff"/>
  </g>
  <g id="axes_1">
   <g id="patch_2">
    <path d="M 28.921875 125.484062 
L 558.25 125.484062 
L 558.25 47.45625 
L 28.921875 47.45625 
z
" style="fill: #ffffff"/>
   </g>
   <g id="patch_3">
    <path d="M 21.079977 125.484062 
L 28.921875 125.484062 
L 28.921875 125.484062 
L 21.079977 125.484062 
z
" clip-path="url(#pc1e2ee81bc)" style="fill: #ff0000"/>
   </g>
   <g id="patch_4">
    <path d="M 28.921875 125.484062 
L 36.763773 125.484062 
L 36.763773 125.484062 
L 28.921875 125.484062 
z
" clip-path="url(#pc1e2ee81bc)" style="fill: #ff0000"/>
   </g>
   <g id="patch_5">
    <path d="M 36.763773 125.484062 
L 44.605671 125.484062 
L 44.605671 114.868034 
L 36.763773 114.868034 
z
" clip-path="url(#pc1e2ee81bc)" style="fill: #ff0200"/>
   </g>
   <g id="patch_6">
    <path d="M 44.605671 125.484062 
L 52.447569 125.484062 
L 52.447569 114.868034 
L 44.605671 114.868034 
z
" clip-path="url(#pc1e2ee81bc)" style="fill: #ff0700"/>
   </g>
   <g id="patch_7">
    <path d="M 52.447569 125.484062 
L 60.289468 125.484062 
L 60.289468 107.790681 
L 52.447569 107.790681 
z
" clip-path="url(#pc1e2ee81bc)" style="fill: #ff0c00"/>
   </g>
   <g id="patch_8">
    <path d="M 60.289468 125.484062 
L 68.131366 125.484062 
L 68.131366 83.019947 
L 60.289468 83.019947 
z
" clip-path="url(#pc1e2ee81bc)" style="fill: #ff1800"/>
   </g>
   <g id="patch_9">
    <path d="M 68.131366 125.484062 
L 75.973264 125.484062 
L 75.973264 54.710536 
L 68.131366 54.710536 
z
" clip-path="url(#pc1e2ee81bc)" style="fill: #ff2400"/>
   </g>
   <g id="patch_10">
    <path d="M 75.973264 125.484062 
L 83.815162 125.484062 
L 83.815162 72.403918 
L 75.973264 72.403918 
z
" clip-path="url(#pc1e2ee81bc)" style="fill: #ff3000"/>
   </g>
   <g id="patch_11">
    <path d="M 83.815162 125.484062 
L 91.65706 125.484062 
L 91.65706 72.403918 
L 83.815162 72.403918 
z
" clip-path="url(#pc1e2ee81bc)" style="fill: #ff3d00"/>
   </g>
   <g id="patch_12">
    <path d="M 91.65706 125.484062 
L 99.498958 125.484062 
L 99.498958 58.249213 
L 91.65706 58.249213 
z
" clip-path="url(#pc1e2ee81bc)" style="fill: #ff4a00"/>
   </g>
   <g id="patch_13">
    <path d="M 99.498958 125.484062 
L 107.340856 125.484062 
L 107.340856 79.481271 
L 99.498958 79.481271 
z
" clip-path="url(#pc1e2ee81bc)" style="fill: #ff5500"/>
   </g>
   <g id="patch_14">
    <path d="M 107.340856 125.484062 
L 115.182755 125.484062 
L 115.182755 54.710536 
L 107.340856 54.710536 
z
" clip-path="url(#pc1e2ee81bc)" style="fill: #ff6200"/>
   </g>
   <g id="patch_15">
    <path d="M 115.182755 125.484062 
L 123.024653 125.484062 
L 123.024653 58.249213 
L 115.182755 58.249213 
z
" clip-path="url(#pc1e2ee81bc)" style="fill: #ff7000"/>
   </g>
   <g id="patch_16">
    <path d="M 123.024653 125.484062 
L 130.866551 125.484062 
L 130.866551 65.326565 
L 123.024653 65.326565 
z
" clip-path="url(#pc1e2ee81bc)" style="fill: #ff7d00"/>
   </g>
   <g id="patch_17">
    <path d="M 130.866551 125.484062 
L 138.708449 125.484062 
L 138.708449 51.17186 
L 130.866551 51.17186 
z
" clip-path="url(#pc1e2ee81bc)" style="fill: #ff8d00"/>
   </g>
   <g id="patch_18">
    <path d="M 138.708449 125.484062 
L 146.550347 125.484062 
L 146.550347 68.865242 
L 138.708449 68.865242 
z
" clip-path="url(#pc1e2ee81bc)" style="fill: #ff9400"/>
   </g>
   <g id="patch_19">
    <path d="M 146.550347 125.484062 
L 154.392245 125.484062 
L 154.392245 79.481271 
L 146.550347 79.481271 
z
" clip-path="url(#pc1e2ee81bc)" style="fill: #ff9f00"/>
   </g>
   <g id="patch_20">
    <path d="M 154.392245 125.484062 
L 162.234144 125.484062 
L 162.234144 86.558623 
L 154.392245 86.558623 
z
" clip-path="url(#pc1e2ee81bc)" style="fill: #ffa600"/>
   </g>
   <g id="patch_21">
    <path d="M 162.234144 125.484062 
L 170.076042 125.484062 
L 170.076042 86.558623 
L 162.234144 86.558623 
z
" clip-path="url(#pc1e2ee81bc)" style="fill: #ffb100"/>
   </g>
   <g id="patch_22">
    <path d="M 170.076042 125.484062 
L 177.91794 125.484062 
L 177.91794 83.019947 
L 170.076042 83.019947 
z
" clip-path="url(#pc1e2ee81bc)" style="fill: #ffb600"/>
   </g>
   <g id="patch_23">
    <path d="M 177.91794 125.484062 
L 185.759838 125.484062 
L 185.759838 83.019947 
L 177.91794 83.019947 
z
" clip-path="url(#pc1e2ee81bc)" style="fill: #ffbe00"/>
   </g>
   <g id="patch_24">
    <path d="M 185.759838 125.484062 
L 193.601736 125.484062 
L 193.601736 104.252005 
L 185.759838 104.252005 
z
" clip-path="url(#pc1e2ee81bc)" style="fill: #ffc200"/>
   </g>
   <g id="patch_25">
    <path d="M 193.601736 125.484062 
L 201.443634 125.484062 
L 201.443634 111.329357 
L 193.601736 111.329357 
z
" clip-path="url(#pc1e2ee81bc)" style="fill: #ffc500"/>
   </g>
   <g id="patch_26">
    <path d="M 201.443634 125.484062 
L 209.285532 125.484062 
L 209.285532 100.713328 
L 201.443634 100.713328 
z
" clip-path="url(#pc1e2ee81bc)" style="fill: #ffca00"/>
   </g>
   <g id="patch_27">
    <path d="M 209.285532 125.484062 
L 217.127431 125.484062 
L 217.127431 100.713328 
L 209.285532 100.713328 
z
" clip-path="url(#pc1e2ee81bc)" style="fill: #ffcf00"/>
   </g>
   <g id="patch_28">
    <path d="M 217.127431 125.484062 
L 224.969329 125.484062 
L 224.969329 104.252005 
L 217.127431 104.252005 
z
" clip-path="url(#pc1e2ee81bc)" style="fill: #ffd600"/>
   </g>
   <g id="patch_29">
    <path d="M 224.969329 125.484062 
L 232.811227 125.484062 
L 232.811227 90.097299 
L 224.969329 90.097299 
z
" clip-path="url(#pc1e2ee81bc)" style="fill: #ffdb00"/>
   </g>
   <g id="patch_30">
    <path d="M 232.811227 125.484062 
L 240.653125 125.484062 
L 240.653125 111.329357 
L 232.811227 111.329357 
z
" clip-path="url(#pc1e2ee81bc)" style="fill: #ffdf00"/>
   </g>
   <g id="patch_31">
    <path d="M 240.653125 125.484062 
L 248.495023 125.484062 
L 248.495023 111.329357 
L 240.653125 111.329357 
z
" clip-path="url(#pc1e2ee81bc)" style="fill: #ffdf00"/>
   </g>
   <g id="patch_32">
    <path d="M 248.495023 125.484062 
L 256.336921 125.484062 
L 256.336921 121.945386 
L 248.495023 121.945386 
z
" clip-path="url(#pc1e2ee81bc)" style="fill: #ffe200"/>
   </g>
   <g id="patch_33">
    <path d="M 256.336921 125.484062 
L 264.178819 125.484062 
L 264.178819 107.790681 
L 256.336921 107.790681 
z
" clip-path="url(#pc1e2ee81bc)" style="fill: #ffe400"/>
   </g>
   <g id="patch_34">
    <path d="M 264.178819 125.484062 
L 272.020718 125.484062 
L 272.020718 118.40671 
L 264.178819 118.40671 
z
" clip-path="url(#pc1e2ee81bc)" style="fill: #ffe500"/>
   </g>
   <g id="patch_35">
    <path d="M 272.020718 125.484062 
L 279.862616 125.484062 
L 279.862616 121.945386 
L 272.020718 121.945386 
z
" clip-path="url(#pc1e2ee81bc)" style="fill: #ffe500"/>
   </g>
   <g id="patch_36">
    <path d="M 279.862616 125.484062 
L 287.704514 125.484062 
L 287.704514 125.484062 
L 279.862616 125.484062 
z
" clip-path="url(#pc1e2ee81bc)" style="fill: #ffe500"/>
   </g>
   <g id="patch_37">
    <path d="M 287.704514 125.484062 
L 295.546412 125.484062 
L 295.546412 121.945386 
L 287.704514 121.945386 
z
" clip-path="url(#pc1e2ee81bc)" style="fill: #ffe800"/>
   </g>
   <g id="patch_38">
    <path d="M 295.546412 125.484062 
L 303.38831 125.484062 
L 303.38831 114.868034 
L 295.546412 114.868034 
z
" clip-path="url(#pc1e2ee81bc)" style="fill: #ffea00"/>
   </g>
   <g id="patch_39">
    <path d="M 303.38831 125.484062 
L 311.230208 125.484062 
L 311.230208 118.40671 
L 303.38831 118.40671 
z
" clip-path="url(#pc1e2ee81bc)" style="fill: #ffea00"/>
   </g>
   <g id="patch_40">
    <path d="M 311.230208 125.484062 
L 319.072106 125.484062 
L 319.072106 118.40671 
L 311.230208 118.40671 
z
" clip-path="url(#pc1e2ee81bc)" style="fill: #ffeb00"/>
   </g>
   <g id="patch_41">
    <path d="M 319.072106 125.484062 
L 326.914005 125.484062 
L 326.914005 125.484062 
L 319.072106 125.484062 
z
" clip-path="url(#pc1e2ee81bc)" style="fill: #ffeb00"/>
   </g>
   <g id="patch_42">
    <path d="M 326.914005 125.484062 
L 334.755903 125.484062 
L 334.755903 114.868034 
L 326.914005 114.868034 
z
" clip-path="url(#pc1e2ee81bc)" style="fill: #ffee00"/>
   </g>
   <g id="patch_43">
    <path d="M 334.755903 125.484062 
L 342.597801 125.484062 
L 342.597801 118.40671 
L 334.755903 118.40671 
z
" clip-path="url(#pc1e2ee81bc)" style="fill: #ffef00"/>
   </g>
   <g id="patch_44">
    <path d="M 342.597801 125.484062 
L 350.439699 125.484062 
L 350.439699 125.484062 
L 342.597801 125.484062 
z
" clip-path="url(#pc1e2ee81bc)" style="fill: #ffef00"/>
   </g>
   <g id="patch_45">
    <path d="M 350.439699 125.484062 
L 358.281597 125.484062 
L 358.281597 118.40671 
L 350.439699 118.40671 
z
" clip-path="url(#pc1e2ee81bc)" style="fill: #fff100"/>
   </g>
   <g id="patch_46">
    <path d="M 358.281597 125.484062 
L 366.123495 125.484062 
L 366.123495 114.868034 
L 358.281597 114.868034 
z
" clip-path="url(#pc1e2ee81bc)" style="fill: #fff300"/>
   </g>
   <g id="patch_47">
    <path d="M 366.123495 125.484062 
L 373.965394 125.484062 
L 373.965394 125.484062 
L 366.123495 125.484062 
z
" clip-path="url(#pc1e2ee81bc)" style="fill: #fff300"/>
   </g>
   <g id="patch_48">
    <path d="M 373.965394 125.484062 
L 381.807292 125.484062 
L 381.807292 121.945386 
L 373.965394 121.945386 
z
" clip-path="url(#pc1e2ee81bc)" style="fill: #fff300"/>
   </g>
   <g id="patch_49">
    <path d="M 381.807292 125.484062 
L 389.64919 125.484062 
L 389.64919 125.484062 
L 381.807292 125.484062 
z
" clip-path="url(#pc1e2ee81bc)" style="fill: #fff300"/>
   </g>
   <g id="patch_50">
    <path d="M 389.64919 125.484062 
L 397.491088 125.484062 
L 397.491088 121.945386 
L 389.64919 121.945386 
z
" clip-path="url(#pc1e2ee81bc)" style="fill: #fff400"/>
   </g>
   <g id="patch_51">
    <path d="M 397.491088 125.484062 
L 405.332986 125.484062 
L 405.332986 125.484062 
L 397.491088 125.484062 
z
" clip-path="url(#pc1e2ee81bc)" style="fill: #fff500"/>
   </g>
   <g id="patch_52">
    <path d="M 405.332986 125.484062 
L 413.174884 125.484062 
L 413.174884 121.945386 
L 405.332986 121.945386 
z
" clip-path="url(#pc1e2ee81bc)" style="fill: #fff500"/>
   </g>
   <g id="patch_53">
    <path d="M 413.174884 125.484062 
L 421.016782 125.484062 
L 421.016782 121.945386 
L 413.174884 121.945386 
z
" clip-path="url(#pc1e2ee81bc)" style="fill: #fff500"/>
   </g>
   <g id="patch_54">
    <path d="M 421.016782 125.484062 
L 428.858681 125.484062 
L 428.858681 125.484062 
L 421.016782 125.484062 
z
" clip-path="url(#pc1e2ee81bc)" style="fill: #fff500"/>
   </g>
   <g id="patch_55">
    <path d="M 428.858681 125.484062 
L 436.700579 125.484062 
L 436.700579 125.484062 
L 428.858681 125.484062 
z
" clip-path="url(#pc1e2ee81bc)" style="fill: #fff500"/>
   </g>
   <g id="patch_56">
    <path d="M 436.700579 125.484062 
L 444.542477 125.484062 
L 444.542477 125.484062 
L 436.700579 125.484062 
z
" clip-path="url(#pc1e2ee81bc)" style="fill: #fff500"/>
   </g>
   <g id="patch_57">
    <path d="M 444.542477 125.484062 
L 452.384375 125.484062 
L 452.384375 121.945386 
L 444.542477 121.945386 
z
" clip-path="url(#pc1e2ee81bc)" style="fill: #fff700"/>
   </g>
   <g id="patch_58">
    <path d="M 452.384375 125.484062 
L 460.226273 125.484062 
L 460.226273 121.945386 
L 452.384375 121.945386 
z
" clip-path="url(#pc1e2ee81bc)" style="fill: #fff800"/>
   </g>
   <g id="patch_59">
    <path d="M 460.226273 125.484062 
L 468.068171 125.484062 
L 468.068171 121.945386 
L 460.226273 121.945386 
z
" clip-path="url(#pc1e2ee81bc)" style="fill: #fff800"/>
   </g>
   <g id="patch_60">
    <path d="M 468.068171 125.484062 
L 475.910069 125.484062 
L 475.910069 121.945386 
L 468.068171 121.945386 
z
" clip-path="url(#pc1e2ee81bc)" style="fill: #fff800"/>
   </g>
   <g id="patch_61">
    <path d="M 475.910069 125.484062 
L 483.751968 125.484062 
L 483.751968 125.484062 
L 475.910069 125.484062 
z
" clip-path="url(#pc1e2ee81bc)" style="fill: #fff800"/>
   </g>
   <g id="patch_62">
    <path d="M 483.751968 125.484062 
L 491.593866 125.484062 
L 491.593866 125.484062 
L 483.751968 125.484062 
z
" clip-path="url(#pc1e2ee81bc)" style="fill: #fff800"/>
   </g>
   <g id="patch_63">
    <path d="M 491.593866 125.484062 
L 499.435764 125.484062 
L 499.435764 125.484062 
L 491.593866 125.484062 
z
" clip-path="url(#pc1e2ee81bc)" style="fill: #fff800"/>
   </g>
   <g id="patch_64">
    <path d="M 499.435764 125.484062 
L 507.277662 125.484062 
L 507.277662 121.945386 
L 499.435764 121.945386 
z
" clip-path="url(#pc1e2ee81bc)" style="fill: #fffa00"/>
   </g>
   <g id="patch_65">
    <path d="M 507.277662 125.484062 
L 515.11956 125.484062 
L 515.11956 121.945386 
L 507.277662 121.945386 
z
" clip-path="url(#pc1e2ee81bc)" style="fill: #fffa00"/>
   </g>
   <g id="patch_66">
    <path d="M 515.11956 125.484062 
L 522.961458 125.484062 
L 522.961458 125.484062 
L 515.11956 125.484062 
z
" clip-path="url(#pc1e2ee81bc)" style="fill: #fffa00"/>
   </g>
   <g id="patch_67">
    <path d="M 522.961458 125.484062 
L 530.803356 125.484062 
L 530.803356 125.484062 
L 522.961458 125.484062 
z
" clip-path="url(#pc1e2ee81bc)" style="fill: #fffa00"/>
   </g>
   <g id="patch_68">
    <path d="M 530.803356 125.484062 
L 538.645255 125.484062 
L 538.645255 125.484062 
L 530.803356 125.484062 
z
" clip-path="url(#pc1e2ee81bc)" style="fill: #fffa00"/>
   </g>
   <g id="patch_69">
    <path d="M 538.645255 125.484062 
L 546.487153 125.484062 
L 546.487153 125.484062 
L 538.645255 125.484062 
z
" clip-path="url(#pc1e2ee81bc)" style="fill: #fffa00"/>
   </g>
   <g id="patch_70">
    <path d="M 546.487153 125.484062 
L 554.329051 125.484062 
L 554.329051 125.484062 
L 546.487153 125.484062 
z
" clip-path="url(#pc1e2ee81bc)" style="fill: #fffb00"/>
   </g>
   <g id="patch_71">
    <path d="M 554.329051 125.484062 
L 562.170949 125.484062 
L 562.170949 118.40671 
L 554.329051 118.40671 
z
" clip-path="url(#pc1e2ee81bc)" style="fill: #fffb00"/>
   </g>
   <g id="patch_72">
    <path d="M 562.170949 125.484062 
L 570.012847 125.484062 
L 570.012847 125.484062 
L 562.170949 125.484062 
z
" clip-path="url(#pc1e2ee81bc)" style="fill: #fffb00"/>
   </g>
   <g id="matplotlib.axis_1">
    <g id="xtick_1">
     <g id="line2d_1">
      <defs>
       <path id="mf59dddb88a" d="M 0 0 
L 0 3.5 
" style="stroke: #000000; stroke-width: 0.8"/>
      </defs>
      <g>
       <use xlink:href="#mf59dddb88a" x="68.131366" y="125.484062" style="stroke: #000000; stroke-width: 0.8"/>
      </g>
     </g>
     <g id="text_1">
      <text style="font: 10px 'Arial', sans-serif; text-anchor: middle" x="68.131366" y="139.641875" transform="rotate(-0 68.131366 139.641875)">0.5</text>
     </g>
    </g>
    <g id="xtick_2">
     <g id="line2d_2">
      <g>
       <use xlink:href="#mf59dddb88a" x="166.155093" y="125.484062" style="stroke: #000000; stroke-width: 0.8"/>
      </g>
     </g>
     <g id="text_2">
      <text style="font: 10px 'Arial', sans-serif; text-anchor: middle" x="166.155093" y="139.641875" transform="rotate(-0 166.155093 139.641875)">1.0</text>
     </g>
    </g>
    <g id="xtick_3">
     <g id="line2d_3">
      <g>
       <use xlink:href="#mf59dddb88a" x="264.178819" y="125.484062" style="stroke: #000000; stroke-width: 0.8"/>
      </g>
     </g>
     <g id="text_3">
      <text style="font: 10px 'Arial', sans-serif; text-anchor: middle" x="264.178819" y="139.641875" transform="rotate(-0 264.178819 139.641875)">1.5</text>
     </g>
    </g>
    <g id="xtick_4">
     <g id="line2d_4">
      <g>
       <use xlink:href="#mf59dddb88a" x="362.202546" y="125.484062" style="stroke: #000000; stroke-width: 0.8"/>
      </g>
     </g>
     <g id="text_4">
      <text style="font: 10px 'Arial', sans-serif; text-anchor: middle" x="362.202546" y="139.641875" transform="rotate(-0 362.202546 139.641875)">2.0</text>
     </g>
    </g>
    <g id="xtick_5">
     <g id="line2d_5">
      <g>
       <use xlink:href="#mf59dddb88a" x="460.226273" y="125.484062" style="stroke: #000000; stroke-width: 0.8"/>
      </g>
     </g>
     <g id="text_5">
      <text style="font: 10px 'Arial', sans-serif; text-anchor: middle" x="460.226273" y="139.641875" transform="rotate(-0 460.226273 139.641875)">2.5</text>
     </g>
    </g>
    <g id="xtick_6">
     <g id="line2d_6">
      <g>
       <use xlink:href="#mf59dddb88a" x="558.25" y="125.484062" style="stroke: #000000; stroke-width: 0.8"/>
      </g>
     </g>
     <g id="text_6">
      <text style="font: 10px 'Arial', sans-serif; text-anchor: middle" x="558.25" y="139.641875" transform="rotate(-0 558.25 139.641875)">3.0</text>
     </g>
    </g>
    <g id="text_7">
     <text style="font: 10px 'Arial', sans-serif; text-anchor: middle" x="293.585938" y="152.909063" transform="rotate(-0 293.585938 152.909063)">Stimulus Time (s)</text>
    </g>
   </g>
   <g id="matplotlib.axis_2">
    <g id="ytick_1">
     <g id="line2d_7">
      <defs>
       <path id="ma8824f043e" d="M 0 0 
L -3.5 0 
" style="stroke: #000000; stroke-width: 0.8"/>
      </defs>
      <g>
       <use xlink:href="#ma8824f043e" x="28.921875" y="125.484062" style="stroke: #000000; stroke-width: 0.8"/>
      </g>
     </g>
     <g id="text_8">
      <text style="font: 10px 'Arial', sans-serif; text-anchor: end" x="21.921875" y="129.062969" transform="rotate(-0 21.921875 129.062969)">0</text>
     </g>
    </g>
    <g id="ytick_2">
     <g id="line2d_8">
      <g>
       <use xlink:href="#ma8824f043e" x="28.921875" y="90.097299" style="stroke: #000000; stroke-width: 0.8"/>
      </g>
     </g>
     <g id="text_9">
      <text style="font: 10px 'Arial', sans-serif; text-anchor: end" x="21.921875" y="93.676206" transform="rotate(-0 21.921875 93.676206)">10</text>
     </g>
    </g>
    <g id="ytick_3">
     <g id="line2d_9">
      <g>
       <use xlink:href="#ma8824f043e" x="28.921875" y="54.710536" style="stroke: #000000; stroke-width: 0.8"/>
      </g>
     </g>
     <g id="text_10">
      <text style="font: 10px 'Arial', sans-serif; text-anchor: end" x="21.921875" y="58.289443" transform="rotate(-0 21.921875 58.289443)">20</text>
     </g>
    </g>
   </g>
   <g id="patch_73">
    <path d="M 28.921875 125.484062 
L 558.25 125.484062 
" style="fill: none; stroke: #000000; stroke-width: 0.8; stroke-linejoin: miter; stroke-linecap: square"/>
   </g>
   <g id="text_11">
    <text style="fill: #ff0000; font: 13px 'Arial', sans-serif; text-anchor: middle" x="66.239508" y="63.061813" transform="rotate(-0 66.239508 63.061813)">Fast</text>
   </g>
   <g id="patch_74">
    <path d="M 49.74869 66.963203 
Q 66.235795 66.963203 83.840933 66.963203 
" style="fill: none; stroke: #ff0000; stroke-linecap: round"/>
    <path d="M 53.74869 68.963203 
L 49.74869 66.963203 
L 53.74869 64.963203 
" style="fill: none; stroke: #ff0000; stroke-linecap: round"/>
   </g>
   <g id="text_12">
    <text style="fill: #ffa500; font: 13px 'Arial', sans-serif; text-anchor: middle" x="152.294538" y="63.061813" transform="rotate(-0 152.294538 63.061813)">Typical</text>
   </g>
   <g id="text_13">
    <g id="patch_75">
     <path d="M 341.917472 69.675563 
L 378.154972 69.675563 
L 378.154972 49.726656 
L 341.917472 49.726656 
z
" style="fill: #808080; opacity: 0.6"/>
    </g>
    <text style="fill: #ffff00; font: 13px 'Arial', sans-serif; text-anchor: middle" x="360.036222" y="63.061813" transform="rotate(-0 360.036222 63.061813)">Slow</text>
   </g>
   <g id="patch_76">
    <path d="M 342.42737 66.963203 
Q 360.032509 66.963203 376.519613 66.963203 
" style="fill: none; stroke: #ffff00; stroke-linecap: round"/>
    <path d="M 372.519613 64.963203 
L 376.519613 66.963203 
L 372.519613 68.963203 
" style="fill: none; stroke: #ffff00; stroke-linecap: round"/>
   </g>
   <g id="text_14">
    <text style="font: 12px 'Arial', sans-serif; text-anchor: middle" x="478.850781" y="41.45625" transform="rotate(-0 478.850781 41.45625)">Easy (4 sessions / 349 trials)</text>
   </g>
   <g id="line2d_10">
    <path d="M 103.557141 125.484062 
L 103.557141 47.45625 
" clip-path="url(#pc1e2ee81bc)" style="fill: none; stroke-dasharray: 5.55,2.4; stroke-dashoffset: 0; stroke: #808080; stroke-opacity: 0.5; stroke-width: 1.5"/>
   </g>
   <g id="line2d_11">
    <path d="M 161.822444 125.484062 
L 161.822444 47.45625 
" clip-path="url(#pc1e2ee81bc)" style="fill: none; stroke-dasharray: 5.55,2.4; stroke-dashoffset: 0; stroke: #808080; stroke-opacity: 0.5; stroke-width: 1.5"/>
   </g>
   <g id="patch_77">
    <path d="M 28.921875 125.484062 
L 28.921875 47.45625 
L 103.557141 47.45625 
L 103.557141 125.484062 
z
" clip-path="url(#pc1e2ee81bc)" style="fill: #ff0000; opacity: 0.1; stroke: #ff0000; stroke-linejoin: miter"/>
   </g>
   <g id="patch_78">
    <path d="M 103.557141 125.484062 
L 103.557141 47.45625 
L 161.822444 47.45625 
L 161.822444 125.484062 
z
" clip-path="url(#pc1e2ee81bc)" style="fill: #ffa500; opacity: 0.1; stroke: #ffa500; stroke-linejoin: miter"/>
   </g>
   <g id="patch_79">
    <path d="M 161.822444 125.484062 
L 161.822444 47.45625 
L 558.25 47.45625 
L 558.25 125.484062 
z
" clip-path="url(#pc1e2ee81bc)" style="fill: #ffff00; opacity: 0.1; stroke: #ffff00; stroke-linejoin: miter"/>
   </g>
  </g>
  <g id="axes_2">
   <g id="patch_80">
    <path d="M 28.921875 258.577188 
L 558.25 258.577188 
L 558.25 180.549375 
L 28.921875 180.549375 
z
" style="fill: #ffffff"/>
   </g>
   <g id="patch_81">
    <path d="M 21.079977 258.577188 
L 28.921875 258.577188 
L 28.921875 258.577188 
L 21.079977 258.577188 
z
" clip-path="url(#p97b8fa0618)" style="fill: #ff0000"/>
   </g>
   <g id="patch_82">
    <path d="M 28.921875 258.577188 
L 36.763773 258.577188 
L 36.763773 258.577188 
L 28.921875 258.577188 
z
" clip-path="url(#p97b8fa0618)" style="fill: #ff0000"/>
   </g>
   <g id="patch_83">
    <path d="M 36.763773 258.577188 
L 44.605671 258.577188 
L 44.605671 258.577188 
L 36.763773 258.577188 
z
" clip-path="url(#p97b8fa0618)" style="fill: #ff0100"/>
   </g>
   <g id="patch_84">
    <path d="M 44.605671 258.577188 
L 52.447569 258.577188 
L 52.447569 247.961159 
L 44.605671 247.961159 
z
" clip-path="url(#p97b8fa0618)" style="fill: #ff0500"/>
   </g>
   <g id="patch_85">
    <path d="M 52.447569 258.577188 
L 60.289468 258.577188 
L 60.289468 244.422482 
L 52.447569 244.422482 
z
" clip-path="url(#p97b8fa0618)" style="fill: #ff0a00"/>
   </g>
   <g id="patch_86">
    <path d="M 60.289468 258.577188 
L 68.131366 258.577188 
L 68.131366 230.267777 
L 60.289468 230.267777 
z
" clip-path="url(#p97b8fa0618)" style="fill: #ff1400"/>
   </g>
   <g id="patch_87">
    <path d="M 68.131366 258.577188 
L 75.973264 258.577188 
L 75.973264 184.264985 
L 68.131366 184.264985 
z
" clip-path="url(#p97b8fa0618)" style="fill: #ff2500"/>
   </g>
   <g id="patch_88">
    <path d="M 75.973264 258.577188 
L 83.815162 258.577188 
L 83.815162 216.113072 
L 75.973264 216.113072 
z
" clip-path="url(#p97b8fa0618)" style="fill: #ff3300"/>
   </g>
   <g id="patch_89">
    <path d="M 83.815162 258.577188 
L 91.65706 258.577188 
L 91.65706 201.958367 
L 83.815162 201.958367 
z
" clip-path="url(#p97b8fa0618)" style="fill: #ff4000"/>
   </g>
   <g id="patch_90">
    <path d="M 91.65706 258.577188 
L 99.498958 258.577188 
L 99.498958 205.497043 
L 91.65706 205.497043 
z
" clip-path="url(#p97b8fa0618)" style="fill: #ff4a00"/>
   </g>
   <g id="patch_91">
    <path d="M 99.498958 258.577188 
L 107.340856 258.577188 
L 107.340856 212.574396 
L 99.498958 212.574396 
z
" clip-path="url(#p97b8fa0618)" style="fill: #ff5600"/>
   </g>
   <g id="patch_92">
    <path d="M 107.340856 258.577188 
L 115.182755 258.577188 
L 115.182755 223.190424 
L 107.340856 223.190424 
z
" clip-path="url(#p97b8fa0618)" style="fill: #ff5f00"/>
   </g>
   <g id="patch_93">
    <path d="M 115.182755 258.577188 
L 123.024653 258.577188 
L 123.024653 230.267777 
L 115.182755 230.267777 
z
" clip-path="url(#p97b8fa0618)" style="fill: #ff6a00"/>
   </g>
   <g id="patch_94">
    <path d="M 123.024653 258.577188 
L 130.866551 258.577188 
L 130.866551 205.497043 
L 123.024653 205.497043 
z
" clip-path="url(#p97b8fa0618)" style="fill: #ff7200"/>
   </g>
   <g id="patch_95">
    <path d="M 130.866551 258.577188 
L 138.708449 258.577188 
L 138.708449 226.729101 
L 130.866551 226.729101 
z
" clip-path="url(#p97b8fa0618)" style="fill: #ff7a00"/>
   </g>
   <g id="patch_96">
    <path d="M 138.708449 258.577188 
L 146.550347 258.577188 
L 146.550347 226.729101 
L 138.708449 226.729101 
z
" clip-path="url(#p97b8fa0618)" style="fill: #ff8400"/>
   </g>
   <g id="patch_97">
    <path d="M 146.550347 258.577188 
L 154.392245 258.577188 
L 154.392245 223.190424 
L 146.550347 223.190424 
z
" clip-path="url(#p97b8fa0618)" style="fill: #ff8b00"/>
   </g>
   <g id="patch_98">
    <path d="M 154.392245 258.577188 
L 162.234144 258.577188 
L 162.234144 223.190424 
L 154.392245 223.190424 
z
" clip-path="url(#p97b8fa0618)" style="fill: #ff9700"/>
   </g>
   <g id="patch_99">
    <path d="M 162.234144 258.577188 
L 170.076042 258.577188 
L 170.076042 209.035719 
L 162.234144 209.035719 
z
" clip-path="url(#p97b8fa0618)" style="fill: #ffa300"/>
   </g>
   <g id="patch_100">
    <path d="M 170.076042 258.577188 
L 177.91794 258.577188 
L 177.91794 226.729101 
L 170.076042 226.729101 
z
" clip-path="url(#p97b8fa0618)" style="fill: #ffa900"/>
   </g>
   <g id="patch_101">
    <path d="M 177.91794 258.577188 
L 185.759838 258.577188 
L 185.759838 237.34513 
L 177.91794 237.34513 
z
" clip-path="url(#p97b8fa0618)" style="fill: #ffae00"/>
   </g>
   <g id="patch_102">
    <path d="M 185.759838 258.577188 
L 193.601736 258.577188 
L 193.601736 223.190424 
L 185.759838 223.190424 
z
" clip-path="url(#p97b8fa0618)" style="fill: #ffb900"/>
   </g>
   <g id="patch_103">
    <path d="M 193.601736 258.577188 
L 201.443634 258.577188 
L 201.443634 233.806453 
L 193.601736 233.806453 
z
" clip-path="url(#p97b8fa0618)" style="fill: #ffbd00"/>
   </g>
   <g id="patch_104">
    <path d="M 201.443634 258.577188 
L 209.285532 258.577188 
L 209.285532 233.806453 
L 201.443634 233.806453 
z
" clip-path="url(#p97b8fa0618)" style="fill: #ffc200"/>
   </g>
   <g id="patch_105">
    <path d="M 209.285532 258.577188 
L 217.127431 258.577188 
L 217.127431 237.34513 
L 209.285532 237.34513 
z
" clip-path="url(#p97b8fa0618)" style="fill: #ffc700"/>
   </g>
   <g id="patch_106">
    <path d="M 217.127431 258.577188 
L 224.969329 258.577188 
L 224.969329 240.883806 
L 217.127431 240.883806 
z
" clip-path="url(#p97b8fa0618)" style="fill: #ffce00"/>
   </g>
   <g id="patch_107">
    <path d="M 224.969329 258.577188 
L 232.811227 258.577188 
L 232.811227 233.806453 
L 224.969329 233.806453 
z
" clip-path="url(#p97b8fa0618)" style="fill: #ffd100"/>
   </g>
   <g id="patch_108">
    <path d="M 232.811227 258.577188 
L 240.653125 258.577188 
L 240.653125 247.961159 
L 232.811227 247.961159 
z
" clip-path="url(#p97b8fa0618)" style="fill: #ffd400"/>
   </g>
   <g id="patch_109">
    <path d="M 240.653125 258.577188 
L 248.495023 258.577188 
L 248.495023 251.499835 
L 240.653125 251.499835 
z
" clip-path="url(#p97b8fa0618)" style="fill: #ffd400"/>
   </g>
   <g id="patch_110">
    <path d="M 248.495023 258.577188 
L 256.336921 258.577188 
L 256.336921 255.038511 
L 248.495023 255.038511 
z
" clip-path="url(#p97b8fa0618)" style="fill: #ffd700"/>
   </g>
   <g id="patch_111">
    <path d="M 256.336921 258.577188 
L 264.178819 258.577188 
L 264.178819 251.499835 
L 256.336921 251.499835 
z
" clip-path="url(#p97b8fa0618)" style="fill: #ffd800"/>
   </g>
   <g id="patch_112">
    <path d="M 264.178819 258.577188 
L 272.020718 258.577188 
L 272.020718 251.499835 
L 264.178819 251.499835 
z
" clip-path="url(#p97b8fa0618)" style="fill: #ffda00"/>
   </g>
   <g id="patch_113">
    <path d="M 272.020718 258.577188 
L 279.862616 258.577188 
L 279.862616 247.961159 
L 272.020718 247.961159 
z
" clip-path="url(#p97b8fa0618)" style="fill: #ffdb00"/>
   </g>
   <g id="patch_114">
    <path d="M 279.862616 258.577188 
L 287.704514 258.577188 
L 287.704514 258.577188 
L 279.862616 258.577188 
z
" clip-path="url(#p97b8fa0618)" style="fill: #ffdb00"/>
   </g>
   <g id="patch_115">
    <path d="M 287.704514 258.577188 
L 295.546412 258.577188 
L 295.546412 258.577188 
L 287.704514 258.577188 
z
" clip-path="url(#p97b8fa0618)" style="fill: #ffdb00"/>
   </g>
   <g id="patch_116">
    <path d="M 295.546412 258.577188 
L 303.38831 258.577188 
L 303.38831 251.499835 
L 295.546412 251.499835 
z
" clip-path="url(#p97b8fa0618)" style="fill: #ffde00"/>
   </g>
   <g id="patch_117">
    <path d="M 303.38831 258.577188 
L 311.230208 258.577188 
L 311.230208 255.038511 
L 303.38831 255.038511 
z
" clip-path="url(#p97b8fa0618)" style="fill: #ffde00"/>
   </g>
   <g id="patch_118">
    <path d="M 311.230208 258.577188 
L 319.072106 258.577188 
L 319.072106 258.577188 
L 311.230208 258.577188 
z
" clip-path="url(#p97b8fa0618)" style="fill: #ffe000"/>
   </g>
   <g id="patch_119">
    <path d="M 319.072106 258.577188 
L 326.914005 258.577188 
L 326.914005 251.499835 
L 319.072106 251.499835 
z
" clip-path="url(#p97b8fa0618)" style="fill: #ffe000"/>
   </g>
   <g id="patch_120">
    <path d="M 326.914005 258.577188 
L 334.755903 258.577188 
L 334.755903 255.038511 
L 326.914005 255.038511 
z
" clip-path="url(#p97b8fa0618)" style="fill: #ffe100"/>
   </g>
   <g id="patch_121">
    <path d="M 334.755903 258.577188 
L 342.597801 258.577188 
L 342.597801 255.038511 
L 334.755903 255.038511 
z
" clip-path="url(#p97b8fa0618)" style="fill: #ffe200"/>
   </g>
   <g id="patch_122">
    <path d="M 342.597801 258.577188 
L 350.439699 258.577188 
L 350.439699 251.499835 
L 342.597801 251.499835 
z
" clip-path="url(#p97b8fa0618)" style="fill: #ffe300"/>
   </g>
   <g id="patch_123">
    <path d="M 350.439699 258.577188 
L 358.281597 258.577188 
L 358.281597 258.577188 
L 350.439699 258.577188 
z
" clip-path="url(#p97b8fa0618)" style="fill: #ffe400"/>
   </g>
   <g id="patch_124">
    <path d="M 358.281597 258.577188 
L 366.123495 258.577188 
L 366.123495 247.961159 
L 358.281597 247.961159 
z
" clip-path="url(#p97b8fa0618)" style="fill: #ffe600"/>
   </g>
   <g id="patch_125">
    <path d="M 366.123495 258.577188 
L 373.965394 258.577188 
L 373.965394 258.577188 
L 366.123495 258.577188 
z
" clip-path="url(#p97b8fa0618)" style="fill: #ffe700"/>
   </g>
   <g id="patch_126">
    <path d="M 373.965394 258.577188 
L 381.807292 258.577188 
L 381.807292 255.038511 
L 373.965394 255.038511 
z
" clip-path="url(#p97b8fa0618)" style="fill: #ffe700"/>
   </g>
   <g id="patch_127">
    <path d="M 381.807292 258.577188 
L 389.64919 258.577188 
L 389.64919 258.577188 
L 381.807292 258.577188 
z
" clip-path="url(#p97b8fa0618)" style="fill: #ffe900"/>
   </g>
   <g id="patch_128">
    <path d="M 389.64919 258.577188 
L 397.491088 258.577188 
L 397.491088 251.499835 
L 389.64919 251.499835 
z
" clip-path="url(#p97b8fa0618)" style="fill: #ffeb00"/>
   </g>
   <g id="patch_129">
    <path d="M 397.491088 258.577188 
L 405.332986 258.577188 
L 405.332986 251.499835 
L 397.491088 251.499835 
z
" clip-path="url(#p97b8fa0618)" style="fill: #ffeb00"/>
   </g>
   <g id="patch_130">
    <path d="M 405.332986 258.577188 
L 413.174884 258.577188 
L 413.174884 255.038511 
L 405.332986 255.038511 
z
" clip-path="url(#p97b8fa0618)" style="fill: #ffec00"/>
   </g>
   <g id="patch_131">
    <path d="M 413.174884 258.577188 
L 421.016782 258.577188 
L 421.016782 255.038511 
L 413.174884 255.038511 
z
" clip-path="url(#p97b8fa0618)" style="fill: #ffec00"/>
   </g>
   <g id="patch_132">
    <path d="M 421.016782 258.577188 
L 428.858681 258.577188 
L 428.858681 258.577188 
L 421.016782 258.577188 
z
" clip-path="url(#p97b8fa0618)" style="fill: #ffec00"/>
   </g>
   <g id="patch_133">
    <path d="M 428.858681 258.577188 
L 436.700579 258.577188 
L 436.700579 258.577188 
L 428.858681 258.577188 
z
" clip-path="url(#p97b8fa0618)" style="fill: #ffec00"/>
   </g>
   <g id="patch_134">
    <path d="M 436.700579 258.577188 
L 444.542477 258.577188 
L 444.542477 258.577188 
L 436.700579 258.577188 
z
" clip-path="url(#p97b8fa0618)" style="fill: #ffec00"/>
   </g>
   <g id="patch_135">
    <path d="M 444.542477 258.577188 
L 452.384375 258.577188 
L 452.384375 258.577188 
L 444.542477 258.577188 
z
" clip-path="url(#p97b8fa0618)" style="fill: #ffec00"/>
   </g>
   <g id="patch_136">
    <path d="M 452.384375 258.577188 
L 460.226273 258.577188 
L 460.226273 258.577188 
L 452.384375 258.577188 
z
" clip-path="url(#p97b8fa0618)" style="fill: #ffec00"/>
   </g>
   <g id="patch_137">
    <path d="M 460.226273 258.577188 
L 468.068171 258.577188 
L 468.068171 258.577188 
L 460.226273 258.577188 
z
" clip-path="url(#p97b8fa0618)" style="fill: #ffec00"/>
   </g>
   <g id="patch_138">
    <path d="M 468.068171 258.577188 
L 475.910069 258.577188 
L 475.910069 258.577188 
L 468.068171 258.577188 
z
" clip-path="url(#p97b8fa0618)" style="fill: #ffec00"/>
   </g>
   <g id="patch_139">
    <path d="M 475.910069 258.577188 
L 483.751968 258.577188 
L 483.751968 258.577188 
L 475.910069 258.577188 
z
" clip-path="url(#p97b8fa0618)" style="fill: #ffed00"/>
   </g>
   <g id="patch_140">
    <path d="M 483.751968 258.577188 
L 491.593866 258.577188 
L 491.593866 255.038511 
L 483.751968 255.038511 
z
" clip-path="url(#p97b8fa0618)" style="fill: #ffed00"/>
   </g>
   <g id="patch_141">
    <path d="M 491.593866 258.577188 
L 499.435764 258.577188 
L 499.435764 258.577188 
L 491.593866 258.577188 
z
" clip-path="url(#p97b8fa0618)" style="fill: #ffed00"/>
   </g>
   <g id="patch_142">
    <path d="M 499.435764 258.577188 
L 507.277662 258.577188 
L 507.277662 258.577188 
L 499.435764 258.577188 
z
" clip-path="url(#p97b8fa0618)" style="fill: #ffed00"/>
   </g>
   <g id="patch_143">
    <path d="M 507.277662 258.577188 
L 515.11956 258.577188 
L 515.11956 251.499835 
L 507.277662 251.499835 
z
" clip-path="url(#p97b8fa0618)" style="fill: #fff000"/>
   </g>
   <g id="patch_144">
    <path d="M 515.11956 258.577188 
L 522.961458 258.577188 
L 522.961458 251.499835 
L 515.11956 251.499835 
z
" clip-path="url(#p97b8fa0618)" style="fill: #fff100"/>
   </g>
   <g id="patch_145">
    <path d="M 522.961458 258.577188 
L 530.803356 258.577188 
L 530.803356 258.577188 
L 522.961458 258.577188 
z
" clip-path="url(#p97b8fa0618)" style="fill: #fff100"/>
   </g>
   <g id="patch_146">
    <path d="M 530.803356 258.577188 
L 538.645255 258.577188 
L 538.645255 251.499835 
L 530.803356 251.499835 
z
" clip-path="url(#p97b8fa0618)" style="fill: #fff300"/>
   </g>
   <g id="patch_147">
    <path d="M 538.645255 258.577188 
L 546.487153 258.577188 
L 546.487153 255.038511 
L 538.645255 255.038511 
z
" clip-path="url(#p97b8fa0618)" style="fill: #fff300"/>
   </g>
   <g id="patch_148">
    <path d="M 546.487153 258.577188 
L 554.329051 258.577188 
L 554.329051 258.577188 
L 546.487153 258.577188 
z
" clip-path="url(#p97b8fa0618)" style="fill: #fff300"/>
   </g>
   <g id="patch_149">
    <path d="M 554.329051 258.577188 
L 562.170949 258.577188 
L 562.170949 258.577188 
L 554.329051 258.577188 
z
" clip-path="url(#p97b8fa0618)" style="fill: #fff400"/>
   </g>
   <g id="patch_150">
    <path d="M 562.170949 258.577188 
L 570.012847 258.577188 
L 570.012847 251.499835 
L 562.170949 251.499835 
z
" clip-path="url(#p97b8fa0618)" style="fill: #fff500"/>
   </g>
   <g id="matplotlib.axis_3">
    <g id="xtick_7">
     <g id="line2d_12">
      <g>
       <use xlink:href="#mf59dddb88a" x="68.131366" y="258.577188" style="stroke: #000000; stroke-width: 0.8"/>
      </g>
     </g>
     <g id="text_15">
      <text style="font: 10px 'Arial', sans-serif; text-anchor: middle" x="68.131366" y="272.735" transform="rotate(-0 68.131366 272.735)">0.5</text>
     </g>
    </g>
    <g id="xtick_8">
     <g id="line2d_13">
      <g>
       <use xlink:href="#mf59dddb88a" x="166.155093" y="258.577188" style="stroke: #000000; stroke-width: 0.8"/>
      </g>
     </g>
     <g id="text_16">
      <text style="font: 10px 'Arial', sans-serif; text-anchor: middle" x="166.155093" y="272.735" transform="rotate(-0 166.155093 272.735)">1.0</text>
     </g>
    </g>
    <g id="xtick_9">
     <g id="line2d_14">
      <g>
       <use xlink:href="#mf59dddb88a" x="264.178819" y="258.577188" style="stroke: #000000; stroke-width: 0.8"/>
      </g>
     </g>
     <g id="text_17">
      <text style="font: 10px 'Arial', sans-serif; text-anchor: middle" x="264.178819" y="272.735" transform="rotate(-0 264.178819 272.735)">1.5</text>
     </g>
    </g>
    <g id="xtick_10">
     <g id="line2d_15">
      <g>
       <use xlink:href="#mf59dddb88a" x="362.202546" y="258.577188" style="stroke: #000000; stroke-width: 0.8"/>
      </g>
     </g>
     <g id="text_18">
      <text style="font: 10px 'Arial', sans-serif; text-anchor: middle" x="362.202546" y="272.735" transform="rotate(-0 362.202546 272.735)">2.0</text>
     </g>
    </g>
    <g id="xtick_11">
     <g id="line2d_16">
      <g>
       <use xlink:href="#mf59dddb88a" x="460.226273" y="258.577188" style="stroke: #000000; stroke-width: 0.8"/>
      </g>
     </g>
     <g id="text_19">
      <text style="font: 10px 'Arial', sans-serif; text-anchor: middle" x="460.226273" y="272.735" transform="rotate(-0 460.226273 272.735)">2.5</text>
     </g>
    </g>
    <g id="xtick_12">
     <g id="line2d_17">
      <g>
       <use xlink:href="#mf59dddb88a" x="558.25" y="258.577188" style="stroke: #000000; stroke-width: 0.8"/>
      </g>
     </g>
     <g id="text_20">
      <text style="font: 10px 'Arial', sans-serif; text-anchor: middle" x="558.25" y="272.735" transform="rotate(-0 558.25 272.735)">3.0</text>
     </g>
    </g>
    <g id="text_21">
     <text style="font: 10px 'Arial', sans-serif; text-anchor: middle" x="293.585938" y="286.002187" transform="rotate(-0 293.585938 286.002187)">Stimulus Time (s)</text>
    </g>
   </g>
   <g id="matplotlib.axis_4">
    <g id="ytick_4">
     <g id="line2d_18">
      <g>
       <use xlink:href="#ma8824f043e" x="28.921875" y="258.577188" style="stroke: #000000; stroke-width: 0.8"/>
      </g>
     </g>
     <g id="text_22">
      <text style="font: 10px 'Arial', sans-serif; text-anchor: end" x="21.921875" y="262.156094" transform="rotate(-0 21.921875 262.156094)">0</text>
     </g>
    </g>
    <g id="ytick_5">
     <g id="line2d_19">
      <g>
       <use xlink:href="#ma8824f043e" x="28.921875" y="223.190424" style="stroke: #000000; stroke-width: 0.8"/>
      </g>
     </g>
     <g id="text_23">
      <text style="font: 10px 'Arial', sans-serif; text-anchor: end" x="21.921875" y="226.769331" transform="rotate(-0 21.921875 226.769331)">10</text>
     </g>
    </g>
    <g id="ytick_6">
     <g id="line2d_20">
      <g>
       <use xlink:href="#ma8824f043e" x="28.921875" y="187.803661" style="stroke: #000000; stroke-width: 0.8"/>
      </g>
     </g>
     <g id="text_24">
      <text style="font: 10px 'Arial', sans-serif; text-anchor: end" x="21.921875" y="191.382568" transform="rotate(-0 21.921875 191.382568)">20</text>
     </g>
    </g>
   </g>
   <g id="patch_151">
    <path d="M 28.921875 258.577188 
L 558.25 258.577188 
" style="fill: none; stroke: #000000; stroke-width: 0.8; stroke-linejoin: miter; stroke-linecap: square"/>
   </g>
   <g id="text_25">
    <text style="fill: #ff0000; font: 13px 'Arial', sans-serif; text-anchor: middle" x="65.899692" y="196.154938" transform="rotate(-0 65.899692 196.154938)">Fast</text>
   </g>
   <g id="patch_152">
    <path d="M 49.408874 200.056328 
Q 65.895979 200.056328 83.501118 200.056328 
" style="fill: none; stroke: #ff0000; stroke-linecap: round"/>
    <path d="M 53.408874 202.056328 
L 49.408874 200.056328 
L 53.408874 198.056328 
" style="fill: none; stroke: #ff0000; stroke-linecap: round"/>
   </g>
   <g id="text_26">
    <text style="fill: #ffa500; font: 13px 'Arial', sans-serif; text-anchor: middle" x="159.24442" y="196.154938" transform="rotate(-0 159.24442 196.154938)">Typical</text>
   </g>
   <g id="text_27">
    <g id="patch_153">
     <path d="M 349.20717 202.768688 
L 385.44467 202.768688 
L 385.44467 182.819781 
L 349.20717 182.819781 
z
" style="fill: #808080; opacity: 0.6"/>
    </g>
    <text style="fill: #ffff00; font: 13px 'Arial', sans-serif; text-anchor: middle" x="367.32592" y="196.154938" transform="rotate(-0 367.32592 196.154938)">Slow</text>
   </g>
   <g id="patch_154">
    <path d="M 349.717068 200.056328 
Q 367.322206 200.056328 383.809311 200.056328 
" style="fill: none; stroke: #ffff00; stroke-linecap: round"/>
    <path d="M 379.809311 198.056328 
L 383.809311 200.056328 
L 379.809311 202.056328 
" style="fill: none; stroke: #ffff00; stroke-linecap: round"/>
   </g>
   <g id="text_28">
    <text style="font: 12px 'Arial', sans-serif; text-anchor: middle" x="478.850781" y="174.549375" transform="rotate(-0 478.850781 174.549375)">Med (4 sessions / 287 trials)</text>
   </g>
   <g id="line2d_21">
    <path d="M 102.877509 258.577188 
L 102.877509 180.549375 
" clip-path="url(#p97b8fa0618)" style="fill: none; stroke-dasharray: 5.55,2.4; stroke-dashoffset: 0; stroke: #808080; stroke-opacity: 0.5; stroke-width: 1.5"/>
   </g>
   <g id="line2d_22">
    <path d="M 176.40184 258.577188 
L 176.40184 180.549375 
" clip-path="url(#p97b8fa0618)" style="fill: none; stroke-dasharray: 5.55,2.4; stroke-dashoffset: 0; stroke: #808080; stroke-opacity: 0.5; stroke-width: 1.5"/>
   </g>
   <g id="patch_155">
    <path d="M 28.921875 258.577188 
L 28.921875 180.549375 
L 102.877509 180.549375 
L 102.877509 258.577188 
z
" clip-path="url(#p97b8fa0618)" style="fill: #ff0000; opacity: 0.1; stroke: #ff0000; stroke-linejoin: miter"/>
   </g>
   <g id="patch_156">
    <path d="M 102.877509 258.577188 
L 102.877509 180.549375 
L 176.40184 180.549375 
L 176.40184 258.577188 
z
" clip-path="url(#p97b8fa0618)" style="fill: #ffa500; opacity: 0.1; stroke: #ffa500; stroke-linejoin: miter"/>
   </g>
   <g id="patch_157">
    <path d="M 176.40184 258.577188 
L 176.40184 180.549375 
L 558.25 180.549375 
L 558.25 258.577188 
z
" clip-path="url(#p97b8fa0618)" style="fill: #ffff00; opacity: 0.1; stroke: #ffff00; stroke-linejoin: miter"/>
   </g>
  </g>
  <g id="axes_3">
   <g id="patch_158">
    <path d="M 28.921875 391.670313 
L 558.25 391.670313 
L 558.25 313.6425 
L 28.921875 313.6425 
z
" style="fill: #ffffff"/>
   </g>
   <g id="patch_159">
    <path d="M 21.079977 391.670313 
L 28.921875 391.670313 
L 28.921875 391.670313 
L 21.079977 391.670313 
z
" clip-path="url(#pf9a39a9faa)" style="fill: #ff0000"/>
   </g>
   <g id="patch_160">
    <path d="M 28.921875 391.670313 
L 36.763773 391.670313 
L 36.763773 391.670313 
L 28.921875 391.670313 
z
" clip-path="url(#pf9a39a9faa)" style="fill: #ff0100"/>
   </g>
   <g id="patch_161">
    <path d="M 36.763773 391.670313 
L 44.605671 391.670313 
L 44.605671 385.953989 
L 36.763773 385.953989 
z
" clip-path="url(#pf9a39a9faa)" style="fill: #ff0100"/>
   </g>
   <g id="patch_162">
    <path d="M 44.605671 391.670313 
L 52.447569 391.670313 
L 52.447569 385.953989 
L 44.605671 385.953989 
z
" clip-path="url(#pf9a39a9faa)" style="fill: #ff0600"/>
   </g>
   <g id="patch_163">
    <path d="M 52.447569 391.670313 
L 60.289468 391.670313 
L 60.289468 368.805019 
L 52.447569 368.805019 
z
" clip-path="url(#pf9a39a9faa)" style="fill: #ff0d00"/>
   </g>
   <g id="patch_164">
    <path d="M 60.289468 391.670313 
L 68.131366 391.670313 
L 68.131366 368.805019 
L 60.289468 368.805019 
z
" clip-path="url(#pf9a39a9faa)" style="fill: #ff1200"/>
   </g>
   <g id="patch_165">
    <path d="M 68.131366 391.670313 
L 75.973264 391.670313 
L 75.973264 345.939726 
L 68.131366 345.939726 
z
" clip-path="url(#pf9a39a9faa)" style="fill: #ff1c00"/>
   </g>
   <g id="patch_166">
    <path d="M 75.973264 391.670313 
L 83.815162 391.670313 
L 83.815162 351.65605 
L 75.973264 351.65605 
z
" clip-path="url(#pf9a39a9faa)" style="fill: #ff2800"/>
   </g>
   <g id="patch_167">
    <path d="M 83.815162 391.670313 
L 91.65706 391.670313 
L 91.65706 345.939726 
L 83.815162 345.939726 
z
" clip-path="url(#pf9a39a9faa)" style="fill: #ff3000"/>
   </g>
   <g id="patch_168">
    <path d="M 91.65706 391.670313 
L 99.498958 391.670313 
L 99.498958 368.805019 
L 91.65706 368.805019 
z
" clip-path="url(#pf9a39a9faa)" style="fill: #ff3800"/>
   </g>
   <g id="patch_169">
    <path d="M 99.498958 391.670313 
L 107.340856 391.670313 
L 107.340856 334.50708 
L 99.498958 334.50708 
z
" clip-path="url(#pf9a39a9faa)" style="fill: #ff4700"/>
   </g>
   <g id="patch_170">
    <path d="M 107.340856 391.670313 
L 115.182755 391.670313 
L 115.182755 317.35811 
L 107.340856 317.35811 
z
" clip-path="url(#pf9a39a9faa)" style="fill: #ff5500"/>
   </g>
   <g id="patch_171">
    <path d="M 115.182755 391.670313 
L 123.024653 391.670313 
L 123.024653 345.939726 
L 115.182755 345.939726 
z
" clip-path="url(#pf9a39a9faa)" style="fill: #ff6300"/>
   </g>
   <g id="patch_172">
    <path d="M 123.024653 391.670313 
L 130.866551 391.670313 
L 130.866551 328.790757 
L 123.024653 328.790757 
z
" clip-path="url(#pf9a39a9faa)" style="fill: #ff6c00"/>
   </g>
   <g id="patch_173">
    <path d="M 130.866551 391.670313 
L 138.708449 391.670313 
L 138.708449 340.223403 
L 130.866551 340.223403 
z
" clip-path="url(#pf9a39a9faa)" style="fill: #ff7800"/>
   </g>
   <g id="patch_174">
    <path d="M 138.708449 391.670313 
L 146.550347 391.670313 
L 146.550347 363.088696 
L 138.708449 363.088696 
z
" clip-path="url(#pf9a39a9faa)" style="fill: #ff8700"/>
   </g>
   <g id="patch_175">
    <path d="M 146.550347 391.670313 
L 154.392245 391.670313 
L 154.392245 334.50708 
L 146.550347 334.50708 
z
" clip-path="url(#pf9a39a9faa)" style="fill: #ff8b00"/>
   </g>
   <g id="patch_176">
    <path d="M 154.392245 391.670313 
L 162.234144 391.670313 
L 162.234144 351.65605 
L 154.392245 351.65605 
z
" clip-path="url(#pf9a39a9faa)" style="fill: #ff9700"/>
   </g>
   <g id="patch_177">
    <path d="M 162.234144 391.670313 
L 170.076042 391.670313 
L 170.076042 368.805019 
L 162.234144 368.805019 
z
" clip-path="url(#pf9a39a9faa)" style="fill: #ff9f00"/>
   </g>
   <g id="patch_178">
    <path d="M 170.076042 391.670313 
L 177.91794 391.670313 
L 177.91794 345.939726 
L 170.076042 345.939726 
z
" clip-path="url(#pf9a39a9faa)" style="fill: #ffa400"/>
   </g>
   <g id="patch_179">
    <path d="M 177.91794 391.670313 
L 185.759838 391.670313 
L 185.759838 363.088696 
L 177.91794 363.088696 
z
" clip-path="url(#pf9a39a9faa)" style="fill: #ffb000"/>
   </g>
   <g id="patch_180">
    <path d="M 185.759838 391.670313 
L 193.601736 391.670313 
L 193.601736 351.65605 
L 185.759838 351.65605 
z
" clip-path="url(#pf9a39a9faa)" style="fill: #ffb400"/>
   </g>
   <g id="patch_181">
    <path d="M 193.601736 391.670313 
L 201.443634 391.670313 
L 201.443634 380.237666 
L 193.601736 380.237666 
z
" clip-path="url(#pf9a39a9faa)" style="fill: #ffbc00"/>
   </g>
   <g id="patch_182">
    <path d="M 201.443634 391.670313 
L 209.285532 391.670313 
L 209.285532 345.939726 
L 201.443634 345.939726 
z
" clip-path="url(#pf9a39a9faa)" style="fill: #ffc300"/>
   </g>
   <g id="patch_183">
    <path d="M 209.285532 391.670313 
L 217.127431 391.670313 
L 217.127431 368.805019 
L 209.285532 368.805019 
z
" clip-path="url(#pf9a39a9faa)" style="fill: #ffc900"/>
   </g>
   <g id="patch_184">
    <path d="M 217.127431 391.670313 
L 224.969329 391.670313 
L 224.969329 363.088696 
L 217.127431 363.088696 
z
" clip-path="url(#pf9a39a9faa)" style="fill: #ffcf00"/>
   </g>
   <g id="patch_185">
    <path d="M 224.969329 391.670313 
L 232.811227 391.670313 
L 232.811227 380.237666 
L 224.969329 380.237666 
z
" clip-path="url(#pf9a39a9faa)" style="fill: #ffd000"/>
   </g>
   <g id="patch_186">
    <path d="M 232.811227 391.670313 
L 240.653125 391.670313 
L 240.653125 380.237666 
L 232.811227 380.237666 
z
" clip-path="url(#pf9a39a9faa)" style="fill: #ffd100"/>
   </g>
   <g id="patch_187">
    <path d="M 240.653125 391.670313 
L 248.495023 391.670313 
L 248.495023 380.237666 
L 240.653125 380.237666 
z
" clip-path="url(#pf9a39a9faa)" style="fill: #ffd400"/>
   </g>
   <g id="patch_188">
    <path d="M 248.495023 391.670313 
L 256.336921 391.670313 
L 256.336921 391.670313 
L 248.495023 391.670313 
z
" clip-path="url(#pf9a39a9faa)" style="fill: #ffd500"/>
   </g>
   <g id="patch_189">
    <path d="M 256.336921 391.670313 
L 264.178819 391.670313 
L 264.178819 374.521343 
L 256.336921 374.521343 
z
" clip-path="url(#pf9a39a9faa)" style="fill: #ffd800"/>
   </g>
   <g id="patch_190">
    <path d="M 264.178819 391.670313 
L 272.020718 391.670313 
L 272.020718 385.953989 
L 264.178819 385.953989 
z
" clip-path="url(#pf9a39a9faa)" style="fill: #ffdb00"/>
   </g>
   <g id="patch_191">
    <path d="M 272.020718 391.670313 
L 279.862616 391.670313 
L 279.862616 385.953989 
L 272.020718 385.953989 
z
" clip-path="url(#pf9a39a9faa)" style="fill: #ffde00"/>
   </g>
   <g id="patch_192">
    <path d="M 279.862616 391.670313 
L 287.704514 391.670313 
L 287.704514 380.237666 
L 279.862616 380.237666 
z
" clip-path="url(#pf9a39a9faa)" style="fill: #ffde00"/>
   </g>
   <g id="patch_193">
    <path d="M 287.704514 391.670313 
L 295.546412 391.670313 
L 295.546412 385.953989 
L 287.704514 385.953989 
z
" clip-path="url(#pf9a39a9faa)" style="fill: #ffe000"/>
   </g>
   <g id="patch_194">
    <path d="M 295.546412 391.670313 
L 303.38831 391.670313 
L 303.38831 385.953989 
L 295.546412 385.953989 
z
" clip-path="url(#pf9a39a9faa)" style="fill: #ffe200"/>
   </g>
   <g id="patch_195">
    <path d="M 303.38831 391.670313 
L 311.230208 391.670313 
L 311.230208 385.953989 
L 303.38831 385.953989 
z
" clip-path="url(#pf9a39a9faa)" style="fill: #ffe200"/>
   </g>
   <g id="patch_196">
    <path d="M 311.230208 391.670313 
L 319.072106 391.670313 
L 319.072106 391.670313 
L 311.230208 391.670313 
z
" clip-path="url(#pf9a39a9faa)" style="fill: #ffe300"/>
   </g>
   <g id="patch_197">
    <path d="M 319.072106 391.670313 
L 326.914005 391.670313 
L 326.914005 385.953989 
L 319.072106 385.953989 
z
" clip-path="url(#pf9a39a9faa)" style="fill: #ffe300"/>
   </g>
   <g id="patch_198">
    <path d="M 326.914005 391.670313 
L 334.755903 391.670313 
L 334.755903 391.670313 
L 326.914005 391.670313 
z
" clip-path="url(#pf9a39a9faa)" style="fill: #ffe400"/>
   </g>
   <g id="patch_199">
    <path d="M 334.755903 391.670313 
L 342.597801 391.670313 
L 342.597801 385.953989 
L 334.755903 385.953989 
z
" clip-path="url(#pf9a39a9faa)" style="fill: #ffe600"/>
   </g>
   <g id="patch_200">
    <path d="M 342.597801 391.670313 
L 350.439699 391.670313 
L 350.439699 380.237666 
L 342.597801 380.237666 
z
" clip-path="url(#pf9a39a9faa)" style="fill: #ffe700"/>
   </g>
   <g id="patch_201">
    <path d="M 350.439699 391.670313 
L 358.281597 391.670313 
L 358.281597 385.953989 
L 350.439699 385.953989 
z
" clip-path="url(#pf9a39a9faa)" style="fill: #ffe800"/>
   </g>
   <g id="patch_202">
    <path d="M 358.281597 391.670313 
L 366.123495 391.670313 
L 366.123495 391.670313 
L 358.281597 391.670313 
z
" clip-path="url(#pf9a39a9faa)" style="fill: #ffe800"/>
   </g>
   <g id="patch_203">
    <path d="M 366.123495 391.670313 
L 373.965394 391.670313 
L 373.965394 385.953989 
L 366.123495 385.953989 
z
" clip-path="url(#pf9a39a9faa)" style="fill: #ffeb00"/>
   </g>
   <g id="patch_204">
    <path d="M 373.965394 391.670313 
L 381.807292 391.670313 
L 381.807292 380.237666 
L 373.965394 380.237666 
z
" clip-path="url(#pf9a39a9faa)" style="fill: #ffec00"/>
   </g>
   <g id="patch_205">
    <path d="M 381.807292 391.670313 
L 389.64919 391.670313 
L 389.64919 391.670313 
L 381.807292 391.670313 
z
" clip-path="url(#pf9a39a9faa)" style="fill: #ffec00"/>
   </g>
   <g id="patch_206">
    <path d="M 389.64919 391.670313 
L 397.491088 391.670313 
L 397.491088 391.670313 
L 389.64919 391.670313 
z
" clip-path="url(#pf9a39a9faa)" style="fill: #ffec00"/>
   </g>
   <g id="patch_207">
    <path d="M 397.491088 391.670313 
L 405.332986 391.670313 
L 405.332986 391.670313 
L 397.491088 391.670313 
z
" clip-path="url(#pf9a39a9faa)" style="fill: #ffef00"/>
   </g>
   <g id="patch_208">
    <path d="M 405.332986 391.670313 
L 413.174884 391.670313 
L 413.174884 374.521343 
L 405.332986 374.521343 
z
" clip-path="url(#pf9a39a9faa)" style="fill: #fff200"/>
   </g>
   <g id="patch_209">
    <path d="M 413.174884 391.670313 
L 421.016782 391.670313 
L 421.016782 385.953989 
L 413.174884 385.953989 
z
" clip-path="url(#pf9a39a9faa)" style="fill: #fff200"/>
   </g>
   <g id="patch_210">
    <path d="M 421.016782 391.670313 
L 428.858681 391.670313 
L 428.858681 391.670313 
L 421.016782 391.670313 
z
" clip-path="url(#pf9a39a9faa)" style="fill: #fff200"/>
   </g>
   <g id="patch_211">
    <path d="M 428.858681 391.670313 
L 436.700579 391.670313 
L 436.700579 391.670313 
L 428.858681 391.670313 
z
" clip-path="url(#pf9a39a9faa)" style="fill: #fff300"/>
   </g>
   <g id="patch_212">
    <path d="M 436.700579 391.670313 
L 444.542477 391.670313 
L 444.542477 385.953989 
L 436.700579 385.953989 
z
" clip-path="url(#pf9a39a9faa)" style="fill: #fff300"/>
   </g>
   <g id="patch_213">
    <path d="M 444.542477 391.670313 
L 452.384375 391.670313 
L 452.384375 391.670313 
L 444.542477 391.670313 
z
" clip-path="url(#pf9a39a9faa)" style="fill: #fff400"/>
   </g>
   <g id="patch_214">
    <path d="M 452.384375 391.670313 
L 460.226273 391.670313 
L 460.226273 385.953989 
L 452.384375 385.953989 
z
" clip-path="url(#pf9a39a9faa)" style="fill: #fff400"/>
   </g>
   <g id="patch_215">
    <path d="M 460.226273 391.670313 
L 468.068171 391.670313 
L 468.068171 391.670313 
L 460.226273 391.670313 
z
" clip-path="url(#pf9a39a9faa)" style="fill: #fff400"/>
   </g>
   <g id="patch_216">
    <path d="M 468.068171 391.670313 
L 475.910069 391.670313 
L 475.910069 385.953989 
L 468.068171 385.953989 
z
" clip-path="url(#pf9a39a9faa)" style="fill: #fff600"/>
   </g>
   <g id="patch_217">
    <path d="M 475.910069 391.670313 
L 483.751968 391.670313 
L 483.751968 380.237666 
L 475.910069 380.237666 
z
" clip-path="url(#pf9a39a9faa)" style="fill: #fffa00"/>
   </g>
   <g id="patch_218">
    <path d="M 483.751968 391.670313 
L 491.593866 391.670313 
L 491.593866 385.953989 
L 483.751968 385.953989 
z
" clip-path="url(#pf9a39a9faa)" style="fill: #fffa00"/>
   </g>
   <g id="patch_219">
    <path d="M 491.593866 391.670313 
L 499.435764 391.670313 
L 499.435764 385.953989 
L 491.593866 385.953989 
z
" clip-path="url(#pf9a39a9faa)" style="fill: #fffb00"/>
   </g>
   <g id="patch_220">
    <path d="M 499.435764 391.670313 
L 507.277662 391.670313 
L 507.277662 391.670313 
L 499.435764 391.670313 
z
" clip-path="url(#pf9a39a9faa)" style="fill: #fffb00"/>
   </g>
   <g id="patch_221">
    <path d="M 507.277662 391.670313 
L 515.11956 391.670313 
L 515.11956 391.670313 
L 507.277662 391.670313 
z
" clip-path="url(#pf9a39a9faa)" style="fill: #fffb00"/>
   </g>
   <g id="patch_222">
    <path d="M 515.11956 391.670313 
L 522.961458 391.670313 
L 522.961458 391.670313 
L 515.11956 391.670313 
z
" clip-path="url(#pf9a39a9faa)" style="fill: #fffb00"/>
   </g>
   <g id="patch_223">
    <path d="M 522.961458 391.670313 
L 530.803356 391.670313 
L 530.803356 391.670313 
L 522.961458 391.670313 
z
" clip-path="url(#pf9a39a9faa)" style="fill: #fffb00"/>
   </g>
   <g id="patch_224">
    <path d="M 530.803356 391.670313 
L 538.645255 391.670313 
L 538.645255 391.670313 
L 530.803356 391.670313 
z
" clip-path="url(#pf9a39a9faa)" style="fill: #fffb00"/>
   </g>
   <g id="patch_225">
    <path d="M 538.645255 391.670313 
L 546.487153 391.670313 
L 546.487153 391.670313 
L 538.645255 391.670313 
z
" clip-path="url(#pf9a39a9faa)" style="fill: #fffb00"/>
   </g>
   <g id="patch_226">
    <path d="M 546.487153 391.670313 
L 554.329051 391.670313 
L 554.329051 391.670313 
L 546.487153 391.670313 
z
" clip-path="url(#pf9a39a9faa)" style="fill: #fffb00"/>
   </g>
   <g id="patch_227">
    <path d="M 554.329051 391.670313 
L 562.170949 391.670313 
L 562.170949 391.670313 
L 554.329051 391.670313 
z
" clip-path="url(#pf9a39a9faa)" style="fill: #fffb00"/>
   </g>
   <g id="patch_228">
    <path d="M 562.170949 391.670313 
L 570.012847 391.670313 
L 570.012847 391.670313 
L 562.170949 391.670313 
z
" clip-path="url(#pf9a39a9faa)" style="fill: #fffb00"/>
   </g>
   <g id="matplotlib.axis_5">
    <g id="xtick_13">
     <g id="line2d_23">
      <g>
       <use xlink:href="#mf59dddb88a" x="68.131366" y="391.670313" style="stroke: #000000; stroke-width: 0.8"/>
      </g>
     </g>
     <g id="text_29">
      <text style="font: 10px 'Arial', sans-serif; text-anchor: middle" x="68.131366" y="405.828125" transform="rotate(-0 68.131366 405.828125)">0.5</text>
     </g>
    </g>
    <g id="xtick_14">
     <g id="line2d_24">
      <g>
       <use xlink:href="#mf59dddb88a" x="166.155093" y="391.670313" style="stroke: #000000; stroke-width: 0.8"/>
      </g>
     </g>
     <g id="text_30">
      <text style="font: 10px 'Arial', sans-serif; text-anchor: middle" x="166.155093" y="405.828125" transform="rotate(-0 166.155093 405.828125)">1.0</text>
     </g>
    </g>
    <g id="xtick_15">
     <g id="line2d_25">
      <g>
       <use xlink:href="#mf59dddb88a" x="264.178819" y="391.670313" style="stroke: #000000; stroke-width: 0.8"/>
      </g>
     </g>
     <g id="text_31">
      <text style="font: 10px 'Arial', sans-serif; text-anchor: middle" x="264.178819" y="405.828125" transform="rotate(-0 264.178819 405.828125)">1.5</text>
     </g>
    </g>
    <g id="xtick_16">
     <g id="line2d_26">
      <g>
       <use xlink:href="#mf59dddb88a" x="362.202546" y="391.670313" style="stroke: #000000; stroke-width: 0.8"/>
      </g>
     </g>
     <g id="text_32">
      <text style="font: 10px 'Arial', sans-serif; text-anchor: middle" x="362.202546" y="405.828125" transform="rotate(-0 362.202546 405.828125)">2.0</text>
     </g>
    </g>
    <g id="xtick_17">
     <g id="line2d_27">
      <g>
       <use xlink:href="#mf59dddb88a" x="460.226273" y="391.670313" style="stroke: #000000; stroke-width: 0.8"/>
      </g>
     </g>
     <g id="text_33">
      <text style="font: 10px 'Arial', sans-serif; text-anchor: middle" x="460.226273" y="405.828125" transform="rotate(-0 460.226273 405.828125)">2.5</text>
     </g>
    </g>
    <g id="xtick_18">
     <g id="line2d_28">
      <g>
       <use xlink:href="#mf59dddb88a" x="558.25" y="391.670313" style="stroke: #000000; stroke-width: 0.8"/>
      </g>
     </g>
     <g id="text_34">
      <text style="font: 10px 'Arial', sans-serif; text-anchor: middle" x="558.25" y="405.828125" transform="rotate(-0 558.25 405.828125)">3.0</text>
     </g>
    </g>
    <g id="text_35">
     <text style="font: 10px 'Arial', sans-serif; text-anchor: middle" x="293.585938" y="419.095313" transform="rotate(-0 293.585938 419.095313)">Stimulus Time (s)</text>
    </g>
   </g>
   <g id="matplotlib.axis_6">
    <g id="ytick_7">
     <g id="line2d_29">
      <g>
       <use xlink:href="#ma8824f043e" x="28.921875" y="391.670313" style="stroke: #000000; stroke-width: 0.8"/>
      </g>
     </g>
     <g id="text_36">
      <text style="font: 10px 'Arial', sans-serif; text-anchor: end" x="21.921875" y="395.249219" transform="rotate(-0 21.921875 395.249219)">0</text>
     </g>
    </g>
    <g id="ytick_8">
     <g id="line2d_30">
      <g>
       <use xlink:href="#ma8824f043e" x="28.921875" y="363.088696" style="stroke: #000000; stroke-width: 0.8"/>
      </g>
     </g>
     <g id="text_37">
      <text style="font: 10px 'Arial', sans-serif; text-anchor: end" x="21.921875" y="366.667602" transform="rotate(-0 21.921875 366.667602)">5</text>
     </g>
    </g>
    <g id="ytick_9">
     <g id="line2d_31">
      <g>
       <use xlink:href="#ma8824f043e" x="28.921875" y="334.50708" style="stroke: #000000; stroke-width: 0.8"/>
      </g>
     </g>
     <g id="text_38">
      <text style="font: 10px 'Arial', sans-serif; text-anchor: end" x="21.921875" y="338.085986" transform="rotate(-0 21.921875 338.085986)">10</text>
     </g>
    </g>
   </g>
   <g id="patch_229">
    <path d="M 28.921875 391.670313 
L 558.25 391.670313 
" style="fill: none; stroke: #000000; stroke-width: 0.8; stroke-linejoin: miter; stroke-linecap: square"/>
   </g>
   <g id="text_39">
    <text style="fill: #ff0000; font: 13px 'Arial', sans-serif; text-anchor: middle" x="69.71935" y="329.248063" transform="rotate(-0 69.71935 329.248063)">Fast</text>
   </g>
   <g id="patch_230">
    <path d="M 53.228532 333.149453 
Q 69.715637 333.149453 87.320776 333.149453 
" style="fill: none; stroke: #ff0000; stroke-linecap: round"/>
    <path d="M 57.228532 335.149453 
L 53.228532 333.149453 
L 57.228532 331.149453 
" style="fill: none; stroke: #ff0000; stroke-linecap: round"/>
   </g>
   <g id="text_40">
    <text style="fill: #ffa500; font: 13px 'Arial', sans-serif; text-anchor: middle" x="163.688162" y="329.248063" transform="rotate(-0 163.688162 329.248063)">Typical</text>
   </g>
   <g id="text_41">
    <g id="patch_231">
     <path d="M 349.831254 335.861813 
L 386.068754 335.861813 
L 386.068754 315.912906 
L 349.831254 315.912906 
z
" style="fill: #808080; opacity: 0.6"/>
    </g>
    <text style="fill: #ffff00; font: 13px 'Arial', sans-serif; text-anchor: middle" x="367.950004" y="329.248063" transform="rotate(-0 367.950004 329.248063)">Slow</text>
   </g>
   <g id="patch_232">
    <path d="M 350.341152 333.149453 
Q 367.946291 333.149453 384.433396 333.149453 
" style="fill: none; stroke: #ffff00; stroke-linecap: round"/>
    <path d="M 380.433396 331.149453 
L 384.433396 333.149453 
L 380.433396 335.149453 
" style="fill: none; stroke: #ffff00; stroke-linecap: round"/>
   </g>
   <g id="text_42">
    <text style="font: 12px 'Arial', sans-serif; text-anchor: middle" x="478.850781" y="307.6425" transform="rotate(-0 478.850781 307.6425)">Hard (4 sessions / 191 trials)</text>
   </g>
   <g id="line2d_32">
    <path d="M 110.516825 391.670313 
L 110.516825 313.6425 
" clip-path="url(#pf9a39a9faa)" style="fill: none; stroke-dasharray: 5.55,2.4; stroke-dashoffset: 0; stroke: #808080; stroke-opacity: 0.5; stroke-width: 1.5"/>
   </g>
   <g id="line2d_33">
    <path d="M 177.650008 391.670313 
L 177.650008 313.6425 
" clip-path="url(#pf9a39a9faa)" style="fill: none; stroke-dasharray: 5.55,2.4; stroke-dashoffset: 0; stroke: #808080; stroke-opacity: 0.5; stroke-width: 1.5"/>
   </g>
   <g id="patch_233">
    <path d="M 28.921875 391.670313 
L 28.921875 313.6425 
L 110.516825 313.6425 
L 110.516825 391.670313 
z
" clip-path="url(#pf9a39a9faa)" style="fill: #ff0000; opacity: 0.1; stroke: #ff0000; stroke-linejoin: miter"/>
   </g>
   <g id="patch_234">
    <path d="M 110.516825 391.670313 
L 110.516825 313.6425 
L 177.650008 313.6425 
L 177.650008 391.670313 
z
" clip-path="url(#pf9a39a9faa)" style="fill: #ffa500; opacity: 0.1; stroke: #ffa500; stroke-linejoin: miter"/>
   </g>
   <g id="patch_235">
    <path d="M 177.650008 391.670313 
L 177.650008 313.6425 
L 558.25 313.6425 
L 558.25 391.670313 
z
" clip-path="url(#pf9a39a9faa)" style="fill: #ffff00; opacity: 0.1; stroke: #ffff00; stroke-linejoin: miter"/>
   </g>
  </g>
  <g id="text_43">
   <text style="font: 12px 'Arial', sans-serif; text-anchor: middle" x="288" y="17.375625" transform="rotate(-0 288 17.375625)">Stimulus Time Distribution - widefield_1</text>
  </g>
 </g>
 <defs>
  <clipPath id="pc1e2ee81bc">
   <rect x="28.921875" y="47.45625" width="529.328125" height="78.027812"/>
  </clipPath>
  <clipPath id="p97b8fa0618">
   <rect x="28.921875" y="180.549375" width="529.328125" height="78.027812"/>
  </clipPath>
  <clipPath id="pf9a39a9faa">
   <rect x="28.921875" y="313.6425" width="529.328125" height="78.027812"/>
  </clipPath>
 </defs>
</svg>
