<?xml version="1.0" encoding="utf-8" standalone="no"?>
<!DOCTYPE svg PUBLIC "-//W3C//DTD SVG 1.1//EN"
  "http://www.w3.org/Graphics/SVG/1.1/DTD/svg11.dtd">
<svg xmlns:xlink="http://www.w3.org/1999/xlink" width="576pt" height="432pt" viewBox="0 0 576 432" xmlns="http://www.w3.org/2000/svg" version="1.1">
 <metadata>
  <rdf:RDF xmlns:dc="http://purl.org/dc/elements/1.1/" xmlns:cc="http://creativecommons.org/ns#" xmlns:rdf="http://www.w3.org/1999/02/22-rdf-syntax-ns#">
   <cc:Work>
    <dc:type rdf:resource="http://purl.org/dc/dcmitype/StillImage"/>
    <dc:date>2025-12-15T15:36:00.084933</dc:date>
    <dc:format>image/svg+xml</dc:format>
    <dc:creator>
     <cc:Agent>
      <dc:title>Matplotlib v3.8.0, https://matplotlib.org/</dc:title>
     </cc:Agent>
    </dc:creator>
   </cc:Work>
  </rdf:RDF>
 </metadata>
 <defs>
  <style type="text/css">*{stroke-linejoin: round; stroke-linecap: butt}</style>
 </defs>
 <g id="figure_1">
  <g id="patch_1">
   <path d="M 0 432 
L 576 432 
L 576 0 
L 0 0 
z
" style="fill: #ffffff"/>
  </g>
  <g id="axes_1">
   <g id="patch_2">
    <path d="M 28.921875 125.386563 
L 558.25 125.386563 
L 558.25 47.31 
L 28.921875 47.31 
z
" style="fill: #ffffff"/>
   </g>
   <g id="patch_3">
    <path d="M 21.079977 125.386563 
L 28.921875 125.386563 
L 28.921875 125.386563 
L 21.079977 125.386563 
z
" clip-path="url(#pcebeb9a0fc)" style="fill: #ff0000"/>
   </g>
   <g id="patch_4">
    <path d="M 28.921875 125.386563 
L 36.763773 125.386563 
L 36.763773 121.255527 
L 28.921875 121.255527 
z
" clip-path="url(#pcebeb9a0fc)" style="fill: #ff0100"/>
   </g>
   <g id="patch_5">
    <path d="M 36.763773 125.386563 
L 44.605671 125.386563 
L 44.605671 117.124492 
L 36.763773 117.124492 
z
" clip-path="url(#pcebeb9a0fc)" style="fill: #ff0200"/>
   </g>
   <g id="patch_6">
    <path d="M 44.605671 125.386563 
L 52.447569 125.386563 
L 52.447569 121.255527 
L 44.605671 121.255527 
z
" clip-path="url(#pcebeb9a0fc)" style="fill: #ff0400"/>
   </g>
   <g id="patch_7">
    <path d="M 52.447569 125.386563 
L 60.289468 125.386563 
L 60.289468 104.731387 
L 52.447569 104.731387 
z
" clip-path="url(#pcebeb9a0fc)" style="fill: #ff0500"/>
   </g>
   <g id="patch_8">
    <path d="M 60.289468 125.386563 
L 68.131366 125.386563 
L 68.131366 117.124492 
L 60.289468 117.124492 
z
" clip-path="url(#pcebeb9a0fc)" style="fill: #ff0800"/>
   </g>
   <g id="patch_9">
    <path d="M 68.131366 125.386563 
L 75.973264 125.386563 
L 75.973264 107.485411 
L 68.131366 107.485411 
z
" clip-path="url(#pcebeb9a0fc)" style="fill: #ff0b00"/>
   </g>
   <g id="patch_10">
    <path d="M 75.973264 125.386563 
L 83.815162 125.386563 
L 83.815162 96.469317 
L 75.973264 96.469317 
z
" clip-path="url(#pcebeb9a0fc)" style="fill: #ff1100"/>
   </g>
   <g id="patch_11">
    <path d="M 83.815162 125.386563 
L 91.65706 125.386563 
L 91.65706 85.453224 
L 83.815162 85.453224 
z
" clip-path="url(#pcebeb9a0fc)" style="fill: #ff1600"/>
   </g>
   <g id="patch_12">
    <path d="M 91.65706 125.386563 
L 99.498958 125.386563 
L 99.498958 75.814142 
L 91.65706 75.814142 
z
" clip-path="url(#pcebeb9a0fc)" style="fill: #ff1f00"/>
   </g>
   <g id="patch_13">
    <path d="M 99.498958 125.386563 
L 107.340856 125.386563 
L 107.340856 66.17506 
L 99.498958 66.17506 
z
" clip-path="url(#pcebeb9a0fc)" style="fill: #ff2700"/>
   </g>
   <g id="patch_14">
    <path d="M 107.340856 125.386563 
L 115.182755 125.386563 
L 115.182755 68.929083 
L 107.340856 68.929083 
z
" clip-path="url(#pcebeb9a0fc)" style="fill: #ff3200"/>
   </g>
   <g id="patch_15">
    <path d="M 115.182755 125.386563 
L 123.024653 125.386563 
L 123.024653 53.781955 
L 115.182755 53.781955 
z
" clip-path="url(#pcebeb9a0fc)" style="fill: #ff3900"/>
   </g>
   <g id="patch_16">
    <path d="M 123.024653 125.386563 
L 130.866551 125.386563 
L 130.866551 64.798048 
L 123.024653 64.798048 
z
" clip-path="url(#pcebeb9a0fc)" style="fill: #ff4400"/>
   </g>
   <g id="patch_17">
    <path d="M 130.866551 125.386563 
L 138.708449 125.386563 
L 138.708449 51.027932 
L 130.866551 51.027932 
z
" clip-path="url(#pcebeb9a0fc)" style="fill: #ff4f00"/>
   </g>
   <g id="patch_18">
    <path d="M 138.708449 125.386563 
L 146.550347 125.386563 
L 146.550347 57.91299 
L 138.708449 57.91299 
z
" clip-path="url(#pcebeb9a0fc)" style="fill: #ff5900"/>
   </g>
   <g id="patch_19">
    <path d="M 146.550347 125.386563 
L 154.392245 125.386563 
L 154.392245 56.535978 
L 146.550347 56.535978 
z
" clip-path="url(#pcebeb9a0fc)" style="fill: #ff6200"/>
   </g>
   <g id="patch_20">
    <path d="M 154.392245 125.386563 
L 162.234144 125.386563 
L 162.234144 63.421037 
L 154.392245 63.421037 
z
" clip-path="url(#pcebeb9a0fc)" style="fill: #ff6a00"/>
   </g>
   <g id="patch_21">
    <path d="M 162.234144 125.386563 
L 170.076042 125.386563 
L 170.076042 68.929083 
L 162.234144 68.929083 
z
" clip-path="url(#pcebeb9a0fc)" style="fill: #ff7400"/>
   </g>
   <g id="patch_22">
    <path d="M 170.076042 125.386563 
L 177.91794 125.386563 
L 177.91794 68.929083 
L 170.076042 68.929083 
z
" clip-path="url(#pcebeb9a0fc)" style="fill: #ff7c00"/>
   </g>
   <g id="patch_23">
    <path d="M 177.91794 125.386563 
L 185.759838 125.386563 
L 185.759838 71.683107 
L 177.91794 71.683107 
z
" clip-path="url(#pcebeb9a0fc)" style="fill: #ff8400"/>
   </g>
   <g id="patch_24">
    <path d="M 185.759838 125.386563 
L 193.601736 125.386563 
L 193.601736 66.17506 
L 185.759838 66.17506 
z
" clip-path="url(#pcebeb9a0fc)" style="fill: #ff8b00"/>
   </g>
   <g id="patch_25">
    <path d="M 193.601736 125.386563 
L 201.443634 125.386563 
L 201.443634 89.584259 
L 193.601736 89.584259 
z
" clip-path="url(#pcebeb9a0fc)" style="fill: #ff9100"/>
   </g>
   <g id="patch_26">
    <path d="M 201.443634 125.386563 
L 209.285532 125.386563 
L 209.285532 81.322189 
L 201.443634 81.322189 
z
" clip-path="url(#pcebeb9a0fc)" style="fill: #ff9900"/>
   </g>
   <g id="patch_27">
    <path d="M 209.285532 125.386563 
L 217.127431 125.386563 
L 217.127431 62.044025 
L 209.285532 62.044025 
z
" clip-path="url(#pcebeb9a0fc)" style="fill: #ffa000"/>
   </g>
   <g id="patch_28">
    <path d="M 217.127431 125.386563 
L 224.969329 125.386563 
L 224.969329 79.945177 
L 217.127431 79.945177 
z
" clip-path="url(#pcebeb9a0fc)" style="fill: #ffa600"/>
   </g>
   <g id="patch_29">
    <path d="M 224.969329 125.386563 
L 232.811227 125.386563 
L 232.811227 93.715294 
L 224.969329 93.715294 
z
" clip-path="url(#pcebeb9a0fc)" style="fill: #ffac00"/>
   </g>
   <g id="patch_30">
    <path d="M 232.811227 125.386563 
L 240.653125 125.386563 
L 240.653125 92.338282 
L 232.811227 92.338282 
z
" clip-path="url(#pcebeb9a0fc)" style="fill: #ffb000"/>
   </g>
   <g id="patch_31">
    <path d="M 240.653125 125.386563 
L 248.495023 125.386563 
L 248.495023 88.207247 
L 240.653125 88.207247 
z
" clip-path="url(#pcebeb9a0fc)" style="fill: #ffb400"/>
   </g>
   <g id="patch_32">
    <path d="M 248.495023 125.386563 
L 256.336921 125.386563 
L 256.336921 96.469317 
L 248.495023 96.469317 
z
" clip-path="url(#pcebeb9a0fc)" style="fill: #ffb900"/>
   </g>
   <g id="patch_33">
    <path d="M 256.336921 125.386563 
L 264.178819 125.386563 
L 264.178819 96.469317 
L 256.336921 96.469317 
z
" clip-path="url(#pcebeb9a0fc)" style="fill: #ffbd00"/>
   </g>
   <g id="patch_34">
    <path d="M 264.178819 125.386563 
L 272.020718 125.386563 
L 272.020718 96.469317 
L 264.178819 96.469317 
z
" clip-path="url(#pcebeb9a0fc)" style="fill: #ffc200"/>
   </g>
   <g id="patch_35">
    <path d="M 272.020718 125.386563 
L 279.862616 125.386563 
L 279.862616 95.092305 
L 272.020718 95.092305 
z
" clip-path="url(#pcebeb9a0fc)" style="fill: #ffc600"/>
   </g>
   <g id="patch_36">
    <path d="M 279.862616 125.386563 
L 287.704514 125.386563 
L 287.704514 101.977364 
L 279.862616 101.977364 
z
" clip-path="url(#pcebeb9a0fc)" style="fill: #ffc900"/>
   </g>
   <g id="patch_37">
    <path d="M 287.704514 125.386563 
L 295.546412 125.386563 
L 295.546412 107.485411 
L 287.704514 107.485411 
z
" clip-path="url(#pcebeb9a0fc)" style="fill: #ffcc00"/>
   </g>
   <g id="patch_38">
    <path d="M 295.546412 125.386563 
L 303.38831 125.386563 
L 303.38831 104.731387 
L 295.546412 104.731387 
z
" clip-path="url(#pcebeb9a0fc)" style="fill: #ffce00"/>
   </g>
   <g id="patch_39">
    <path d="M 303.38831 125.386563 
L 311.230208 125.386563 
L 311.230208 103.354376 
L 303.38831 103.354376 
z
" clip-path="url(#pcebeb9a0fc)" style="fill: #ffd100"/>
   </g>
   <g id="patch_40">
    <path d="M 311.230208 125.386563 
L 319.072106 125.386563 
L 319.072106 107.485411 
L 311.230208 107.485411 
z
" clip-path="url(#pcebeb9a0fc)" style="fill: #ffd400"/>
   </g>
   <g id="patch_41">
    <path d="M 319.072106 125.386563 
L 326.914005 125.386563 
L 326.914005 107.485411 
L 319.072106 107.485411 
z
" clip-path="url(#pcebeb9a0fc)" style="fill: #ffd700"/>
   </g>
   <g id="patch_42">
    <path d="M 326.914005 125.386563 
L 334.755903 125.386563 
L 334.755903 111.616446 
L 326.914005 111.616446 
z
" clip-path="url(#pcebeb9a0fc)" style="fill: #ffd800"/>
   </g>
   <g id="patch_43">
    <path d="M 334.755903 125.386563 
L 342.597801 125.386563 
L 342.597801 110.239434 
L 334.755903 110.239434 
z
" clip-path="url(#pcebeb9a0fc)" style="fill: #ffda00"/>
   </g>
   <g id="patch_44">
    <path d="M 342.597801 125.386563 
L 350.439699 125.386563 
L 350.439699 114.370469 
L 342.597801 114.370469 
z
" clip-path="url(#pcebeb9a0fc)" style="fill: #ffdc00"/>
   </g>
   <g id="patch_45">
    <path d="M 350.439699 125.386563 
L 358.281597 125.386563 
L 358.281597 115.747481 
L 350.439699 115.747481 
z
" clip-path="url(#pcebeb9a0fc)" style="fill: #ffde00"/>
   </g>
   <g id="patch_46">
    <path d="M 358.281597 125.386563 
L 366.123495 125.386563 
L 366.123495 114.370469 
L 358.281597 114.370469 
z
" clip-path="url(#pcebeb9a0fc)" style="fill: #ffdf00"/>
   </g>
   <g id="patch_47">
    <path d="M 366.123495 125.386563 
L 373.965394 125.386563 
L 373.965394 115.747481 
L 366.123495 115.747481 
z
" clip-path="url(#pcebeb9a0fc)" style="fill: #ffe000"/>
   </g>
   <g id="patch_48">
    <path d="M 373.965394 125.386563 
L 381.807292 125.386563 
L 381.807292 122.632539 
L 373.965394 122.632539 
z
" clip-path="url(#pcebeb9a0fc)" style="fill: #ffe000"/>
   </g>
   <g id="patch_49">
    <path d="M 381.807292 125.386563 
L 389.64919 125.386563 
L 389.64919 115.747481 
L 381.807292 115.747481 
z
" clip-path="url(#pcebeb9a0fc)" style="fill: #ffe200"/>
   </g>
   <g id="patch_50">
    <path d="M 389.64919 125.386563 
L 397.491088 125.386563 
L 397.491088 114.370469 
L 389.64919 114.370469 
z
" clip-path="url(#pcebeb9a0fc)" style="fill: #ffe400"/>
   </g>
   <g id="patch_51">
    <path d="M 397.491088 125.386563 
L 405.332986 125.386563 
L 405.332986 121.255527 
L 397.491088 121.255527 
z
" clip-path="url(#pcebeb9a0fc)" style="fill: #ffe400"/>
   </g>
   <g id="patch_52">
    <path d="M 405.332986 125.386563 
L 413.174884 125.386563 
L 413.174884 121.255527 
L 405.332986 121.255527 
z
" clip-path="url(#pcebeb9a0fc)" style="fill: #ffe500"/>
   </g>
   <g id="patch_53">
    <path d="M 413.174884 125.386563 
L 421.016782 125.386563 
L 421.016782 114.370469 
L 413.174884 114.370469 
z
" clip-path="url(#pcebeb9a0fc)" style="fill: #ffe600"/>
   </g>
   <g id="patch_54">
    <path d="M 421.016782 125.386563 
L 428.858681 125.386563 
L 428.858681 115.747481 
L 421.016782 115.747481 
z
" clip-path="url(#pcebeb9a0fc)" style="fill: #ffe800"/>
   </g>
   <g id="patch_55">
    <path d="M 428.858681 125.386563 
L 436.700579 125.386563 
L 436.700579 121.255527 
L 428.858681 121.255527 
z
" clip-path="url(#pcebeb9a0fc)" style="fill: #ffe900"/>
   </g>
   <g id="patch_56">
    <path d="M 436.700579 125.386563 
L 444.542477 125.386563 
L 444.542477 118.501504 
L 436.700579 118.501504 
z
" clip-path="url(#pcebeb9a0fc)" style="fill: #ffe900"/>
   </g>
   <g id="patch_57">
    <path d="M 444.542477 125.386563 
L 452.384375 125.386563 
L 452.384375 118.501504 
L 444.542477 118.501504 
z
" clip-path="url(#pcebeb9a0fc)" style="fill: #ffeb00"/>
   </g>
   <g id="patch_58">
    <path d="M 452.384375 125.386563 
L 460.226273 125.386563 
L 460.226273 119.878516 
L 452.384375 119.878516 
z
" clip-path="url(#pcebeb9a0fc)" style="fill: #ffeb00"/>
   </g>
   <g id="patch_59">
    <path d="M 460.226273 125.386563 
L 468.068171 125.386563 
L 468.068171 122.632539 
L 460.226273 122.632539 
z
" clip-path="url(#pcebeb9a0fc)" style="fill: #ffec00"/>
   </g>
   <g id="patch_60">
    <path d="M 468.068171 125.386563 
L 475.910069 125.386563 
L 475.910069 119.878516 
L 468.068171 119.878516 
z
" clip-path="url(#pcebeb9a0fc)" style="fill: #ffed00"/>
   </g>
   <g id="patch_61">
    <path d="M 475.910069 125.386563 
L 483.751968 125.386563 
L 483.751968 114.370469 
L 475.910069 114.370469 
z
" clip-path="url(#pcebeb9a0fc)" style="fill: #ffee00"/>
   </g>
   <g id="patch_62">
    <path d="M 483.751968 125.386563 
L 491.593866 125.386563 
L 491.593866 119.878516 
L 483.751968 119.878516 
z
" clip-path="url(#pcebeb9a0fc)" style="fill: #ffee00"/>
   </g>
   <g id="patch_63">
    <path d="M 491.593866 125.386563 
L 499.435764 125.386563 
L 499.435764 125.386563 
L 491.593866 125.386563 
z
" clip-path="url(#pcebeb9a0fc)" style="fill: #ffee00"/>
   </g>
   <g id="patch_64">
    <path d="M 499.435764 125.386563 
L 507.277662 125.386563 
L 507.277662 122.632539 
L 499.435764 122.632539 
z
" clip-path="url(#pcebeb9a0fc)" style="fill: #ffef00"/>
   </g>
   <g id="patch_65">
    <path d="M 507.277662 125.386563 
L 515.11956 125.386563 
L 515.11956 117.124492 
L 507.277662 117.124492 
z
" clip-path="url(#pcebeb9a0fc)" style="fill: #fff000"/>
   </g>
   <g id="patch_66">
    <path d="M 515.11956 125.386563 
L 522.961458 125.386563 
L 522.961458 122.632539 
L 515.11956 122.632539 
z
" clip-path="url(#pcebeb9a0fc)" style="fill: #fff100"/>
   </g>
   <g id="patch_67">
    <path d="M 522.961458 125.386563 
L 530.803356 125.386563 
L 530.803356 119.878516 
L 522.961458 119.878516 
z
" clip-path="url(#pcebeb9a0fc)" style="fill: #fff200"/>
   </g>
   <g id="patch_68">
    <path d="M 530.803356 125.386563 
L 538.645255 125.386563 
L 538.645255 118.501504 
L 530.803356 118.501504 
z
" clip-path="url(#pcebeb9a0fc)" style="fill: #fff200"/>
   </g>
   <g id="patch_69">
    <path d="M 538.645255 125.386563 
L 546.487153 125.386563 
L 546.487153 125.386563 
L 538.645255 125.386563 
z
" clip-path="url(#pcebeb9a0fc)" style="fill: #fff200"/>
   </g>
   <g id="patch_70">
    <path d="M 546.487153 125.386563 
L 554.329051 125.386563 
L 554.329051 125.386563 
L 546.487153 125.386563 
z
" clip-path="url(#pcebeb9a0fc)" style="fill: #fff200"/>
   </g>
   <g id="patch_71">
    <path d="M 554.329051 125.386563 
L 562.170949 125.386563 
L 562.170949 121.255527 
L 554.329051 121.255527 
z
" clip-path="url(#pcebeb9a0fc)" style="fill: #fff300"/>
   </g>
   <g id="patch_72">
    <path d="M 562.170949 125.386563 
L 570.012847 125.386563 
L 570.012847 118.501504 
L 562.170949 118.501504 
z
" clip-path="url(#pcebeb9a0fc)" style="fill: #fff400"/>
   </g>
   <g id="matplotlib.axis_1">
    <g id="xtick_1">
     <g id="line2d_1">
      <defs>
       <path id="mfc4f8da2b7" d="M 0 0 
L 0 3.5 
" style="stroke: #000000; stroke-width: 0.8"/>
      </defs>
      <g>
       <use xlink:href="#mfc4f8da2b7" x="68.131366" y="125.386563" style="stroke: #000000; stroke-width: 0.8"/>
      </g>
     </g>
     <g id="text_1">
      <text style="font: 10px 'Arial', sans-serif; text-anchor: middle" x="68.131366" y="139.544375" transform="rotate(-0 68.131366 139.544375)">0.5</text>
     </g>
    </g>
    <g id="xtick_2">
     <g id="line2d_2">
      <g>
       <use xlink:href="#mfc4f8da2b7" x="166.155093" y="125.386563" style="stroke: #000000; stroke-width: 0.8"/>
      </g>
     </g>
     <g id="text_2">
      <text style="font: 10px 'Arial', sans-serif; text-anchor: middle" x="166.155093" y="139.544375" transform="rotate(-0 166.155093 139.544375)">1.0</text>
     </g>
    </g>
    <g id="xtick_3">
     <g id="line2d_3">
      <g>
       <use xlink:href="#mfc4f8da2b7" x="264.178819" y="125.386563" style="stroke: #000000; stroke-width: 0.8"/>
      </g>
     </g>
     <g id="text_3">
      <text style="font: 10px 'Arial', sans-serif; text-anchor: middle" x="264.178819" y="139.544375" transform="rotate(-0 264.178819 139.544375)">1.5</text>
     </g>
    </g>
    <g id="xtick_4">
     <g id="line2d_4">
      <g>
       <use xlink:href="#mfc4f8da2b7" x="362.202546" y="125.386563" style="stroke: #000000; stroke-width: 0.8"/>
      </g>
     </g>
     <g id="text_4">
      <text style="font: 10px 'Arial', sans-serif; text-anchor: middle" x="362.202546" y="139.544375" transform="rotate(-0 362.202546 139.544375)">2.0</text>
     </g>
    </g>
    <g id="xtick_5">
     <g id="line2d_5">
      <g>
       <use xlink:href="#mfc4f8da2b7" x="460.226273" y="125.386563" style="stroke: #000000; stroke-width: 0.8"/>
      </g>
     </g>
     <g id="text_5">
      <text style="font: 10px 'Arial', sans-serif; text-anchor: middle" x="460.226273" y="139.544375" transform="rotate(-0 460.226273 139.544375)">2.5</text>
     </g>
    </g>
    <g id="xtick_6">
     <g id="line2d_6">
      <g>
       <use xlink:href="#mfc4f8da2b7" x="558.25" y="125.386563" style="stroke: #000000; stroke-width: 0.8"/>
      </g>
     </g>
     <g id="text_6">
      <text style="font: 10px 'Arial', sans-serif; text-anchor: middle" x="558.25" y="139.544375" transform="rotate(-0 558.25 139.544375)">3.0</text>
     </g>
    </g>
    <g id="text_7">
     <text style="font: 10px 'Arial', sans-serif; text-anchor: middle" x="293.585938" y="152.811563" transform="rotate(-0 293.585938 152.811563)">Stimulus Time (s)</text>
    </g>
   </g>
   <g id="matplotlib.axis_2">
    <g id="ytick_1">
     <g id="line2d_7">
      <defs>
       <path id="mf5b1bfc95a" d="M 0 0 
L -3.5 0 
" style="stroke: #000000; stroke-width: 0.8"/>
      </defs>
      <g>
       <use xlink:href="#mf5b1bfc95a" x="28.921875" y="125.386563" style="stroke: #000000; stroke-width: 0.8"/>
      </g>
     </g>
     <g id="text_8">
      <text style="font: 10px 'Arial', sans-serif; text-anchor: end" x="21.921875" y="128.965469" transform="rotate(-0 21.921875 128.965469)">0</text>
     </g>
    </g>
    <g id="ytick_2">
     <g id="line2d_8">
      <g>
       <use xlink:href="#mf5b1bfc95a" x="28.921875" y="97.846329" style="stroke: #000000; stroke-width: 0.8"/>
      </g>
     </g>
     <g id="text_9">
      <text style="font: 10px 'Arial', sans-serif; text-anchor: end" x="21.921875" y="101.425235" transform="rotate(-0 21.921875 101.425235)">20</text>
     </g>
    </g>
    <g id="ytick_3">
     <g id="line2d_9">
      <g>
       <use xlink:href="#mf5b1bfc95a" x="28.921875" y="70.306095" style="stroke: #000000; stroke-width: 0.8"/>
      </g>
     </g>
     <g id="text_10">
      <text style="font: 10px 'Arial', sans-serif; text-anchor: end" x="21.921875" y="73.885001" transform="rotate(-0 21.921875 73.885001)">40</text>
     </g>
    </g>
   </g>
   <g id="patch_73">
    <path d="M 28.921875 125.386563 
L 558.25 125.386563 
" style="fill: none; stroke: #000000; stroke-width: 0.8; stroke-linejoin: miter; stroke-linecap: square"/>
   </g>
   <g id="text_11">
    <text style="fill: #ff0000; font: 13px 'Arial', sans-serif; text-anchor: middle" x="84.086361" y="62.925313" transform="rotate(-0 84.086361 62.925313)">Fast</text>
   </g>
   <g id="patch_74">
    <path d="M 67.595543 66.829141 
Q 84.082648 66.829141 101.687787 66.829141 
" style="fill: none; stroke: #ff0000; stroke-linecap: round"/>
    <path d="M 71.595543 68.829141 
L 67.595543 66.829141 
L 71.595543 64.829141 
" style="fill: none; stroke: #ff0000; stroke-linecap: round"/>
   </g>
   <g id="text_12">
    <text style="fill: #ffa500; font: 13px 'Arial', sans-serif; text-anchor: middle" x="202.629721" y="62.925313" transform="rotate(-0 202.629721 62.925313)">Typical</text>
   </g>
   <g id="text_13">
    <g id="patch_75">
     <path d="M 374.405802 69.539063 
L 410.643302 69.539063 
L 410.643302 49.590156 
L 374.405802 49.590156 
z
" style="fill: #808080; opacity: 0.6"/>
    </g>
    <text style="fill: #ffff00; font: 13px 'Arial', sans-serif; text-anchor: middle" x="392.524552" y="62.925313" transform="rotate(-0 392.524552 62.925313)">Slow</text>
   </g>
   <g id="patch_76">
    <path d="M 374.9157 66.829141 
Q 392.520839 66.829141 409.007944 66.829141 
" style="fill: none; stroke: #ffff00; stroke-linecap: round"/>
    <path d="M 405.007944 64.829141 
L 409.007944 66.829141 
L 405.007944 68.829141 
" style="fill: none; stroke: #ffff00; stroke-linecap: round"/>
   </g>
   <g id="text_14">
    <text style="font: 12px 'Arial', sans-serif; text-anchor: middle" x="478.850781" y="41.31" transform="rotate(-0 478.850781 41.31)">Easy (15 sessions / 1,263 trials)</text>
   </g>
   <g id="line2d_10">
    <path d="M 139.250847 125.386563 
L 139.250847 47.31 
" clip-path="url(#pcebeb9a0fc)" style="fill: none; stroke-dasharray: 5.55,2.4; stroke-dashoffset: 0; stroke: #808080; stroke-opacity: 0.5; stroke-width: 1.5"/>
   </g>
   <g id="line2d_11">
    <path d="M 226.799105 125.386563 
L 226.799105 47.31 
" clip-path="url(#pcebeb9a0fc)" style="fill: none; stroke-dasharray: 5.55,2.4; stroke-dashoffset: 0; stroke: #808080; stroke-opacity: 0.5; stroke-width: 1.5"/>
   </g>
   <g id="patch_77">
    <path d="M 28.921875 125.386563 
L 28.921875 47.31 
L 139.250847 47.31 
L 139.250847 125.386563 
z
" clip-path="url(#pcebeb9a0fc)" style="fill: #ff0000; opacity: 0.1; stroke: #ff0000; stroke-linejoin: miter"/>
   </g>
   <g id="patch_78">
    <path d="M 139.250847 125.386563 
L 139.250847 47.31 
L 226.799105 47.31 
L 226.799105 125.386563 
z
" clip-path="url(#pcebeb9a0fc)" style="fill: #ffa500; opacity: 0.1; stroke: #ffa500; stroke-linejoin: miter"/>
   </g>
   <g id="patch_79">
    <path d="M 226.799105 125.386563 
L 226.799105 47.31 
L 558.25 47.31 
L 558.25 125.386563 
z
" clip-path="url(#pcebeb9a0fc)" style="fill: #ffff00; opacity: 0.1; stroke: #ffff00; stroke-linejoin: miter"/>
   </g>
  </g>
  <g id="axes_2">
   <g id="patch_80">
    <path d="M 28.921875 258.528437 
L 558.25 258.528437 
L 558.25 180.451875 
L 28.921875 180.451875 
z
" style="fill: #ffffff"/>
   </g>
   <g id="patch_81">
    <path d="M 21.079977 258.528437 
L 28.921875 258.528437 
L 28.921875 258.528437 
L 21.079977 258.528437 
z
" clip-path="url(#pfb3d21b13e)" style="fill: #ff0000"/>
   </g>
   <g id="patch_82">
    <path d="M 28.921875 258.528437 
L 36.763773 258.528437 
L 36.763773 257.070425 
L 28.921875 257.070425 
z
" clip-path="url(#pfb3d21b13e)" style="fill: #ff0000"/>
   </g>
   <g id="patch_83">
    <path d="M 36.763773 258.528437 
L 44.605671 258.528437 
L 44.605671 243.948314 
L 36.763773 243.948314 
z
" clip-path="url(#pfb3d21b13e)" style="fill: #ff0300"/>
   </g>
   <g id="patch_84">
    <path d="M 44.605671 258.528437 
L 52.447569 258.528437 
L 52.447569 243.948314 
L 44.605671 243.948314 
z
" clip-path="url(#pfb3d21b13e)" style="fill: #ff0500"/>
   </g>
   <g id="patch_85">
    <path d="M 52.447569 258.528437 
L 60.289468 258.528437 
L 60.289468 246.864339 
L 52.447569 246.864339 
z
" clip-path="url(#pfb3d21b13e)" style="fill: #ff0600"/>
   </g>
   <g id="patch_86">
    <path d="M 60.289468 258.528437 
L 68.131366 258.528437 
L 68.131366 246.864339 
L 60.289468 246.864339 
z
" clip-path="url(#pfb3d21b13e)" style="fill: #ff0700"/>
   </g>
   <g id="patch_87">
    <path d="M 68.131366 258.528437 
L 75.973264 258.528437 
L 75.973264 243.948314 
L 68.131366 243.948314 
z
" clip-path="url(#pfb3d21b13e)" style="fill: #ff0b00"/>
   </g>
   <g id="patch_88">
    <path d="M 75.973264 258.528437 
L 83.815162 258.528437 
L 83.815162 217.704091 
L 75.973264 217.704091 
z
" clip-path="url(#pfb3d21b13e)" style="fill: #ff1000"/>
   </g>
   <g id="patch_89">
    <path d="M 83.815162 258.528437 
L 91.65706 258.528437 
L 91.65706 217.704091 
L 83.815162 217.704091 
z
" clip-path="url(#pfb3d21b13e)" style="fill: #ff1700"/>
   </g>
   <g id="patch_90">
    <path d="M 91.65706 258.528437 
L 99.498958 258.528437 
L 99.498958 210.414029 
L 91.65706 210.414029 
z
" clip-path="url(#pfb3d21b13e)" style="fill: #ff1e00"/>
   </g>
   <g id="patch_91">
    <path d="M 99.498958 258.528437 
L 107.340856 258.528437 
L 107.340856 204.58198 
L 99.498958 204.58198 
z
" clip-path="url(#pfb3d21b13e)" style="fill: #ff2500"/>
   </g>
   <g id="patch_92">
    <path d="M 107.340856 258.528437 
L 115.182755 258.528437 
L 115.182755 201.665955 
L 107.340856 201.665955 
z
" clip-path="url(#pfb3d21b13e)" style="fill: #ff2e00"/>
   </g>
   <g id="patch_93">
    <path d="M 115.182755 258.528437 
L 123.024653 258.528437 
L 123.024653 187.085831 
L 115.182755 187.085831 
z
" clip-path="url(#pfb3d21b13e)" style="fill: #ff3700"/>
   </g>
   <g id="patch_94">
    <path d="M 123.024653 258.528437 
L 130.866551 258.528437 
L 130.866551 187.085831 
L 123.024653 187.085831 
z
" clip-path="url(#pfb3d21b13e)" style="fill: #ff3f00"/>
   </g>
   <g id="patch_95">
    <path d="M 130.866551 258.528437 
L 138.708449 258.528437 
L 138.708449 213.330054 
L 130.866551 213.330054 
z
" clip-path="url(#pfb3d21b13e)" style="fill: #ff4600"/>
   </g>
   <g id="patch_96">
    <path d="M 138.708449 258.528437 
L 146.550347 258.528437 
L 146.550347 190.001856 
L 138.708449 190.001856 
z
" clip-path="url(#pfb3d21b13e)" style="fill: #ff4e00"/>
   </g>
   <g id="patch_97">
    <path d="M 146.550347 258.528437 
L 154.392245 258.528437 
L 154.392245 198.74993 
L 146.550347 198.74993 
z
" clip-path="url(#pfb3d21b13e)" style="fill: #ff5600"/>
   </g>
   <g id="patch_98">
    <path d="M 154.392245 258.528437 
L 162.234144 258.528437 
L 162.234144 207.498004 
L 154.392245 207.498004 
z
" clip-path="url(#pfb3d21b13e)" style="fill: #ff5f00"/>
   </g>
   <g id="patch_99">
    <path d="M 162.234144 258.528437 
L 170.076042 258.528437 
L 170.076042 184.169807 
L 162.234144 184.169807 
z
" clip-path="url(#pfb3d21b13e)" style="fill: #ff6600"/>
   </g>
   <g id="patch_100">
    <path d="M 170.076042 258.528437 
L 177.91794 258.528437 
L 177.91794 206.039992 
L 170.076042 206.039992 
z
" clip-path="url(#pfb3d21b13e)" style="fill: #ff6c00"/>
   </g>
   <g id="patch_101">
    <path d="M 177.91794 258.528437 
L 185.759838 258.528437 
L 185.759838 214.788066 
L 177.91794 214.788066 
z
" clip-path="url(#pfb3d21b13e)" style="fill: #ff7100"/>
   </g>
   <g id="patch_102">
    <path d="M 185.759838 258.528437 
L 193.601736 258.528437 
L 193.601736 227.910178 
L 185.759838 227.910178 
z
" clip-path="url(#pfb3d21b13e)" style="fill: #ff7600"/>
   </g>
   <g id="patch_103">
    <path d="M 193.601736 258.528437 
L 201.443634 258.528437 
L 201.443634 207.498004 
L 193.601736 207.498004 
z
" clip-path="url(#pfb3d21b13e)" style="fill: #ff7c00"/>
   </g>
   <g id="patch_104">
    <path d="M 201.443634 258.528437 
L 209.285532 258.528437 
L 209.285532 224.994153 
L 201.443634 224.994153 
z
" clip-path="url(#pfb3d21b13e)" style="fill: #ff8300"/>
   </g>
   <g id="patch_105">
    <path d="M 209.285532 258.528437 
L 217.127431 258.528437 
L 217.127431 197.291918 
L 209.285532 197.291918 
z
" clip-path="url(#pfb3d21b13e)" style="fill: #ff8a00"/>
   </g>
   <g id="patch_106">
    <path d="M 217.127431 258.528437 
L 224.969329 258.528437 
L 224.969329 213.330054 
L 217.127431 213.330054 
z
" clip-path="url(#pfb3d21b13e)" style="fill: #ff9100"/>
   </g>
   <g id="patch_107">
    <path d="M 224.969329 258.528437 
L 232.811227 258.528437 
L 232.811227 206.039992 
L 224.969329 206.039992 
z
" clip-path="url(#pfb3d21b13e)" style="fill: #ff9600"/>
   </g>
   <g id="patch_108">
    <path d="M 232.811227 258.528437 
L 240.653125 258.528437 
L 240.653125 222.078128 
L 232.811227 222.078128 
z
" clip-path="url(#pfb3d21b13e)" style="fill: #ff9b00"/>
   </g>
   <g id="patch_109">
    <path d="M 240.653125 258.528437 
L 248.495023 258.528437 
L 248.495023 219.162103 
L 240.653125 219.162103 
z
" clip-path="url(#pfb3d21b13e)" style="fill: #ffa200"/>
   </g>
   <g id="patch_110">
    <path d="M 248.495023 258.528437 
L 256.336921 258.528437 
L 256.336921 207.498004 
L 248.495023 207.498004 
z
" clip-path="url(#pfb3d21b13e)" style="fill: #ffa700"/>
   </g>
   <g id="patch_111">
    <path d="M 256.336921 258.528437 
L 264.178819 258.528437 
L 264.178819 224.994153 
L 256.336921 224.994153 
z
" clip-path="url(#pfb3d21b13e)" style="fill: #ffab00"/>
   </g>
   <g id="patch_112">
    <path d="M 264.178819 258.528437 
L 272.020718 258.528437 
L 272.020718 230.826202 
L 264.178819 230.826202 
z
" clip-path="url(#pfb3d21b13e)" style="fill: #ffad00"/>
   </g>
   <g id="patch_113">
    <path d="M 272.020718 258.528437 
L 279.862616 258.528437 
L 279.862616 230.826202 
L 272.020718 230.826202 
z
" clip-path="url(#pfb3d21b13e)" style="fill: #ffb200"/>
   </g>
   <g id="patch_114">
    <path d="M 279.862616 258.528437 
L 287.704514 258.528437 
L 287.704514 235.20024 
L 279.862616 235.20024 
z
" clip-path="url(#pfb3d21b13e)" style="fill: #ffb600"/>
   </g>
   <g id="patch_115">
    <path d="M 287.704514 258.528437 
L 295.546412 258.528437 
L 295.546412 232.284215 
L 287.704514 232.284215 
z
" clip-path="url(#pfb3d21b13e)" style="fill: #ffb900"/>
   </g>
   <g id="patch_116">
    <path d="M 295.546412 258.528437 
L 303.38831 258.528437 
L 303.38831 224.994153 
L 295.546412 224.994153 
z
" clip-path="url(#pfb3d21b13e)" style="fill: #ffbd00"/>
   </g>
   <g id="patch_117">
    <path d="M 303.38831 258.528437 
L 311.230208 258.528437 
L 311.230208 238.116264 
L 303.38831 238.116264 
z
" clip-path="url(#pfb3d21b13e)" style="fill: #ffbe00"/>
   </g>
   <g id="patch_118">
    <path d="M 311.230208 258.528437 
L 319.072106 258.528437 
L 319.072106 238.116264 
L 311.230208 238.116264 
z
" clip-path="url(#pfb3d21b13e)" style="fill: #ffc200"/>
   </g>
   <g id="patch_119">
    <path d="M 319.072106 258.528437 
L 326.914005 258.528437 
L 326.914005 239.574277 
L 319.072106 239.574277 
z
" clip-path="url(#pfb3d21b13e)" style="fill: #ffc400"/>
   </g>
   <g id="patch_120">
    <path d="M 326.914005 258.528437 
L 334.755903 258.528437 
L 334.755903 239.574277 
L 326.914005 239.574277 
z
" clip-path="url(#pfb3d21b13e)" style="fill: #ffc700"/>
   </g>
   <g id="patch_121">
    <path d="M 334.755903 258.528437 
L 342.597801 258.528437 
L 342.597801 241.032289 
L 334.755903 241.032289 
z
" clip-path="url(#pfb3d21b13e)" style="fill: #ffc900"/>
   </g>
   <g id="patch_122">
    <path d="M 342.597801 258.528437 
L 350.439699 258.528437 
L 350.439699 236.658252 
L 342.597801 236.658252 
z
" clip-path="url(#pfb3d21b13e)" style="fill: #ffcc00"/>
   </g>
   <g id="patch_123">
    <path d="M 350.439699 258.528437 
L 358.281597 258.528437 
L 358.281597 235.20024 
L 350.439699 235.20024 
z
" clip-path="url(#pfb3d21b13e)" style="fill: #ffce00"/>
   </g>
   <g id="patch_124">
    <path d="M 358.281597 258.528437 
L 366.123495 258.528437 
L 366.123495 251.238376 
L 358.281597 251.238376 
z
" clip-path="url(#pfb3d21b13e)" style="fill: #ffcf00"/>
   </g>
   <g id="patch_125">
    <path d="M 366.123495 258.528437 
L 373.965394 258.528437 
L 373.965394 249.780363 
L 366.123495 249.780363 
z
" clip-path="url(#pfb3d21b13e)" style="fill: #ffd000"/>
   </g>
   <g id="patch_126">
    <path d="M 373.965394 258.528437 
L 381.807292 258.528437 
L 381.807292 249.780363 
L 373.965394 249.780363 
z
" clip-path="url(#pfb3d21b13e)" style="fill: #ffd200"/>
   </g>
   <g id="patch_127">
    <path d="M 381.807292 258.528437 
L 389.64919 258.528437 
L 389.64919 252.696388 
L 381.807292 252.696388 
z
" clip-path="url(#pfb3d21b13e)" style="fill: #ffd200"/>
   </g>
   <g id="patch_128">
    <path d="M 389.64919 258.528437 
L 397.491088 258.528437 
L 397.491088 246.864339 
L 389.64919 246.864339 
z
" clip-path="url(#pfb3d21b13e)" style="fill: #ffd400"/>
   </g>
   <g id="patch_129">
    <path d="M 397.491088 258.528437 
L 405.332986 258.528437 
L 405.332986 241.032289 
L 397.491088 241.032289 
z
" clip-path="url(#pfb3d21b13e)" style="fill: #ffd600"/>
   </g>
   <g id="patch_130">
    <path d="M 405.332986 258.528437 
L 413.174884 258.528437 
L 413.174884 243.948314 
L 405.332986 243.948314 
z
" clip-path="url(#pfb3d21b13e)" style="fill: #ffd900"/>
   </g>
   <g id="patch_131">
    <path d="M 413.174884 258.528437 
L 421.016782 258.528437 
L 421.016782 246.864339 
L 413.174884 246.864339 
z
" clip-path="url(#pfb3d21b13e)" style="fill: #ffda00"/>
   </g>
   <g id="patch_132">
    <path d="M 421.016782 258.528437 
L 428.858681 258.528437 
L 428.858681 245.406326 
L 421.016782 245.406326 
z
" clip-path="url(#pfb3d21b13e)" style="fill: #ffdb00"/>
   </g>
   <g id="patch_133">
    <path d="M 428.858681 258.528437 
L 436.700579 258.528437 
L 436.700579 249.780363 
L 428.858681 249.780363 
z
" clip-path="url(#pfb3d21b13e)" style="fill: #ffdd00"/>
   </g>
   <g id="patch_134">
    <path d="M 436.700579 258.528437 
L 444.542477 258.528437 
L 444.542477 242.490301 
L 436.700579 242.490301 
z
" clip-path="url(#pfb3d21b13e)" style="fill: #ffdf00"/>
   </g>
   <g id="patch_135">
    <path d="M 444.542477 258.528437 
L 452.384375 258.528437 
L 452.384375 248.322351 
L 444.542477 248.322351 
z
" clip-path="url(#pfb3d21b13e)" style="fill: #ffe000"/>
   </g>
   <g id="patch_136">
    <path d="M 452.384375 258.528437 
L 460.226273 258.528437 
L 460.226273 254.1544 
L 452.384375 254.1544 
z
" clip-path="url(#pfb3d21b13e)" style="fill: #ffe000"/>
   </g>
   <g id="patch_137">
    <path d="M 460.226273 258.528437 
L 468.068171 258.528437 
L 468.068171 252.696388 
L 460.226273 252.696388 
z
" clip-path="url(#pfb3d21b13e)" style="fill: #ffe200"/>
   </g>
   <g id="patch_138">
    <path d="M 468.068171 258.528437 
L 475.910069 258.528437 
L 475.910069 249.780363 
L 468.068171 249.780363 
z
" clip-path="url(#pfb3d21b13e)" style="fill: #ffe200"/>
   </g>
   <g id="patch_139">
    <path d="M 475.910069 258.528437 
L 483.751968 258.528437 
L 483.751968 252.696388 
L 475.910069 252.696388 
z
" clip-path="url(#pfb3d21b13e)" style="fill: #ffe300"/>
   </g>
   <g id="patch_140">
    <path d="M 483.751968 258.528437 
L 491.593866 258.528437 
L 491.593866 254.1544 
L 483.751968 254.1544 
z
" clip-path="url(#pfb3d21b13e)" style="fill: #ffe300"/>
   </g>
   <g id="patch_141">
    <path d="M 491.593866 258.528437 
L 499.435764 258.528437 
L 499.435764 254.1544 
L 491.593866 254.1544 
z
" clip-path="url(#pfb3d21b13e)" style="fill: #ffe400"/>
   </g>
   <g id="patch_142">
    <path d="M 499.435764 258.528437 
L 507.277662 258.528437 
L 507.277662 249.780363 
L 499.435764 249.780363 
z
" clip-path="url(#pfb3d21b13e)" style="fill: #ffe500"/>
   </g>
   <g id="patch_143">
    <path d="M 507.277662 258.528437 
L 515.11956 258.528437 
L 515.11956 257.070425 
L 507.277662 257.070425 
z
" clip-path="url(#pfb3d21b13e)" style="fill: #ffe600"/>
   </g>
   <g id="patch_144">
    <path d="M 515.11956 258.528437 
L 522.961458 258.528437 
L 522.961458 249.780363 
L 515.11956 249.780363 
z
" clip-path="url(#pfb3d21b13e)" style="fill: #ffe700"/>
   </g>
   <g id="patch_145">
    <path d="M 522.961458 258.528437 
L 530.803356 258.528437 
L 530.803356 248.322351 
L 522.961458 248.322351 
z
" clip-path="url(#pfb3d21b13e)" style="fill: #ffe800"/>
   </g>
   <g id="patch_146">
    <path d="M 530.803356 258.528437 
L 538.645255 258.528437 
L 538.645255 255.612413 
L 530.803356 255.612413 
z
" clip-path="url(#pfb3d21b13e)" style="fill: #ffe900"/>
   </g>
   <g id="patch_147">
    <path d="M 538.645255 258.528437 
L 546.487153 258.528437 
L 546.487153 249.780363 
L 538.645255 249.780363 
z
" clip-path="url(#pfb3d21b13e)" style="fill: #ffea00"/>
   </g>
   <g id="patch_148">
    <path d="M 546.487153 258.528437 
L 554.329051 258.528437 
L 554.329051 251.238376 
L 546.487153 251.238376 
z
" clip-path="url(#pfb3d21b13e)" style="fill: #ffea00"/>
   </g>
   <g id="patch_149">
    <path d="M 554.329051 258.528437 
L 562.170949 258.528437 
L 562.170949 255.612413 
L 554.329051 255.612413 
z
" clip-path="url(#pfb3d21b13e)" style="fill: #ffeb00"/>
   </g>
   <g id="patch_150">
    <path d="M 562.170949 258.528437 
L 570.012847 258.528437 
L 570.012847 255.612413 
L 562.170949 255.612413 
z
" clip-path="url(#pfb3d21b13e)" style="fill: #ffeb00"/>
   </g>
   <g id="matplotlib.axis_3">
    <g id="xtick_7">
     <g id="line2d_12">
      <g>
       <use xlink:href="#mfc4f8da2b7" x="68.131366" y="258.528437" style="stroke: #000000; stroke-width: 0.8"/>
      </g>
     </g>
     <g id="text_15">
      <text style="font: 10px 'Arial', sans-serif; text-anchor: middle" x="68.131366" y="272.68625" transform="rotate(-0 68.131366 272.68625)">0.5</text>
     </g>
    </g>
    <g id="xtick_8">
     <g id="line2d_13">
      <g>
       <use xlink:href="#mfc4f8da2b7" x="166.155093" y="258.528437" style="stroke: #000000; stroke-width: 0.8"/>
      </g>
     </g>
     <g id="text_16">
      <text style="font: 10px 'Arial', sans-serif; text-anchor: middle" x="166.155093" y="272.68625" transform="rotate(-0 166.155093 272.68625)">1.0</text>
     </g>
    </g>
    <g id="xtick_9">
     <g id="line2d_14">
      <g>
       <use xlink:href="#mfc4f8da2b7" x="264.178819" y="258.528437" style="stroke: #000000; stroke-width: 0.8"/>
      </g>
     </g>
     <g id="text_17">
      <text style="font: 10px 'Arial', sans-serif; text-anchor: middle" x="264.178819" y="272.68625" transform="rotate(-0 264.178819 272.68625)">1.5</text>
     </g>
    </g>
    <g id="xtick_10">
     <g id="line2d_15">
      <g>
       <use xlink:href="#mfc4f8da2b7" x="362.202546" y="258.528437" style="stroke: #000000; stroke-width: 0.8"/>
      </g>
     </g>
     <g id="text_18">
      <text style="font: 10px 'Arial', sans-serif; text-anchor: middle" x="362.202546" y="272.68625" transform="rotate(-0 362.202546 272.68625)">2.0</text>
     </g>
    </g>
    <g id="xtick_11">
     <g id="line2d_16">
      <g>
       <use xlink:href="#mfc4f8da2b7" x="460.226273" y="258.528437" style="stroke: #000000; stroke-width: 0.8"/>
      </g>
     </g>
     <g id="text_19">
      <text style="font: 10px 'Arial', sans-serif; text-anchor: middle" x="460.226273" y="272.68625" transform="rotate(-0 460.226273 272.68625)">2.5</text>
     </g>
    </g>
    <g id="xtick_12">
     <g id="line2d_17">
      <g>
       <use xlink:href="#mfc4f8da2b7" x="558.25" y="258.528437" style="stroke: #000000; stroke-width: 0.8"/>
      </g>
     </g>
     <g id="text_20">
      <text style="font: 10px 'Arial', sans-serif; text-anchor: middle" x="558.25" y="272.68625" transform="rotate(-0 558.25 272.68625)">3.0</text>
     </g>
    </g>
    <g id="text_21">
     <text style="font: 10px 'Arial', sans-serif; text-anchor: middle" x="293.585938" y="285.953437" transform="rotate(-0 293.585938 285.953437)">Stimulus Time (s)</text>
    </g>
   </g>
   <g id="matplotlib.axis_4">
    <g id="ytick_4">
     <g id="line2d_18">
      <g>
       <use xlink:href="#mf5b1bfc95a" x="28.921875" y="258.528437" style="stroke: #000000; stroke-width: 0.8"/>
      </g>
     </g>
     <g id="text_22">
      <text style="font: 10px 'Arial', sans-serif; text-anchor: end" x="21.921875" y="262.107344" transform="rotate(-0 21.921875 262.107344)">0</text>
     </g>
    </g>
    <g id="ytick_5">
     <g id="line2d_19">
      <g>
       <use xlink:href="#mf5b1bfc95a" x="28.921875" y="229.36819" style="stroke: #000000; stroke-width: 0.8"/>
      </g>
     </g>
     <g id="text_23">
      <text style="font: 10px 'Arial', sans-serif; text-anchor: end" x="21.921875" y="232.947096" transform="rotate(-0 21.921875 232.947096)">20</text>
     </g>
    </g>
    <g id="ytick_6">
     <g id="line2d_20">
      <g>
       <use xlink:href="#mf5b1bfc95a" x="28.921875" y="200.207943" style="stroke: #000000; stroke-width: 0.8"/>
      </g>
     </g>
     <g id="text_24">
      <text style="font: 10px 'Arial', sans-serif; text-anchor: end" x="21.921875" y="203.786849" transform="rotate(-0 21.921875 203.786849)">40</text>
     </g>
    </g>
   </g>
   <g id="patch_151">
    <path d="M 28.921875 258.528437 
L 558.25 258.528437 
" style="fill: none; stroke: #000000; stroke-width: 0.8; stroke-linejoin: miter; stroke-linecap: square"/>
   </g>
   <g id="text_25">
    <text style="fill: #ff0000; font: 13px 'Arial', sans-serif; text-anchor: middle" x="89.128048" y="196.067188" transform="rotate(-0 89.128048 196.067188)">Fast</text>
   </g>
   <g id="patch_152">
    <path d="M 72.63723 199.971016 
Q 89.124335 199.971016 106.729474 199.971016 
" style="fill: none; stroke: #ff0000; stroke-linecap: round"/>
    <path d="M 76.63723 201.971016 
L 72.63723 199.971016 
L 76.63723 197.971016 
" style="fill: none; stroke: #ff0000; stroke-linecap: round"/>
   </g>
   <g id="text_26">
    <text style="fill: #ffa500; font: 13px 'Arial', sans-serif; text-anchor: middle" x="223.842056" y="196.067188" transform="rotate(-0 223.842056 196.067188)">Typical</text>
   </g>
   <g id="text_27">
    <g id="patch_153">
     <path d="M 390.57645 202.680938 
L 426.81395 202.680938 
L 426.81395 182.732031 
L 390.57645 182.732031 
z
" style="fill: #808080; opacity: 0.6"/>
    </g>
    <text style="fill: #ffff00; font: 13px 'Arial', sans-serif; text-anchor: middle" x="408.6952" y="196.067188" transform="rotate(-0 408.6952 196.067188)">Slow</text>
   </g>
   <g id="patch_154">
    <path d="M 391.086348 199.971016 
Q 408.691487 199.971016 425.178591 199.971016 
" style="fill: none; stroke: #ffff00; stroke-linecap: round"/>
    <path d="M 421.178591 197.971016 
L 425.178591 199.971016 
L 421.178591 201.971016 
" style="fill: none; stroke: #ffff00; stroke-linecap: round"/>
   </g>
   <g id="text_28">
    <text style="font: 12px 'Arial', sans-serif; text-anchor: middle" x="478.850781" y="174.451875" transform="rotate(-0 478.850781 174.451875)">Med (15 sessions / 1,327 trials)</text>
   </g>
   <g id="line2d_21">
    <path d="M 149.334221 258.528437 
L 149.334221 180.451875 
" clip-path="url(#pfb3d21b13e)" style="fill: none; stroke-dasharray: 5.55,2.4; stroke-dashoffset: 0; stroke: #808080; stroke-opacity: 0.5; stroke-width: 1.5"/>
   </g>
   <g id="line2d_22">
    <path d="M 259.1404 258.528437 
L 259.1404 180.451875 
" clip-path="url(#pfb3d21b13e)" style="fill: none; stroke-dasharray: 5.55,2.4; stroke-dashoffset: 0; stroke: #808080; stroke-opacity: 0.5; stroke-width: 1.5"/>
   </g>
   <g id="patch_155">
    <path d="M 28.921875 258.528437 
L 28.921875 180.451875 
L 149.334221 180.451875 
L 149.334221 258.528437 
z
" clip-path="url(#pfb3d21b13e)" style="fill: #ff0000; opacity: 0.1; stroke: #ff0000; stroke-linejoin: miter"/>
   </g>
   <g id="patch_156">
    <path d="M 149.334221 258.528437 
L 149.334221 180.451875 
L 259.1404 180.451875 
L 259.1404 258.528437 
z
" clip-path="url(#pfb3d21b13e)" style="fill: #ffa500; opacity: 0.1; stroke: #ffa500; stroke-linejoin: miter"/>
   </g>
   <g id="patch_157">
    <path d="M 259.1404 258.528437 
L 259.1404 180.451875 
L 558.25 180.451875 
L 558.25 258.528437 
z
" clip-path="url(#pfb3d21b13e)" style="fill: #ffff00; opacity: 0.1; stroke: #ffff00; stroke-linejoin: miter"/>
   </g>
  </g>
  <g id="axes_3">
   <g id="patch_158">
    <path d="M 28.921875 391.670312 
L 558.25 391.670312 
L 558.25 313.59375 
L 28.921875 313.59375 
z
" style="fill: #ffffff"/>
   </g>
   <g id="patch_159">
    <path d="M 21.079977 391.670312 
L 28.921875 391.670312 
L 28.921875 391.670312 
L 21.079977 391.670312 
z
" clip-path="url(#p237686e4b4)" style="fill: #ff0000"/>
   </g>
   <g id="patch_160">
    <path d="M 28.921875 391.670312 
L 36.763773 391.670312 
L 36.763773 385.641234 
L 28.921875 385.641234 
z
" clip-path="url(#p237686e4b4)" style="fill: #ff0100"/>
   </g>
   <g id="patch_161">
    <path d="M 36.763773 391.670312 
L 44.605671 391.670312 
L 44.605671 387.650927 
L 36.763773 387.650927 
z
" clip-path="url(#p237686e4b4)" style="fill: #ff0100"/>
   </g>
   <g id="patch_162">
    <path d="M 44.605671 391.670312 
L 52.447569 391.670312 
L 52.447569 387.650927 
L 44.605671 387.650927 
z
" clip-path="url(#p237686e4b4)" style="fill: #ff0200"/>
   </g>
   <g id="patch_163">
    <path d="M 52.447569 391.670312 
L 60.289468 391.670312 
L 60.289468 385.641234 
L 52.447569 385.641234 
z
" clip-path="url(#p237686e4b4)" style="fill: #ff0300"/>
   </g>
   <g id="patch_164">
    <path d="M 60.289468 391.670312 
L 68.131366 391.670312 
L 68.131366 381.621849 
L 60.289468 381.621849 
z
" clip-path="url(#p237686e4b4)" style="fill: #ff0500"/>
   </g>
   <g id="patch_165">
    <path d="M 68.131366 391.670312 
L 75.973264 391.670312 
L 75.973264 371.573385 
L 68.131366 371.573385 
z
" clip-path="url(#p237686e4b4)" style="fill: #ff0800"/>
   </g>
   <g id="patch_166">
    <path d="M 75.973264 391.670312 
L 83.815162 391.670312 
L 83.815162 369.563692 
L 75.973264 369.563692 
z
" clip-path="url(#p237686e4b4)" style="fill: #ff0d00"/>
   </g>
   <g id="patch_167">
    <path d="M 83.815162 391.670312 
L 91.65706 391.670312 
L 91.65706 345.44738 
L 83.815162 345.44738 
z
" clip-path="url(#p237686e4b4)" style="fill: #ff1300"/>
   </g>
   <g id="patch_168">
    <path d="M 91.65706 391.670312 
L 99.498958 391.670312 
L 99.498958 347.457072 
L 91.65706 347.457072 
z
" clip-path="url(#p237686e4b4)" style="fill: #ff1a00"/>
   </g>
   <g id="patch_169">
    <path d="M 99.498958 391.670312 
L 107.340856 391.670312 
L 107.340856 345.44738 
L 99.498958 345.44738 
z
" clip-path="url(#p237686e4b4)" style="fill: #ff2100"/>
   </g>
   <g id="patch_170">
    <path d="M 107.340856 391.670312 
L 115.182755 391.670312 
L 115.182755 343.437687 
L 107.340856 343.437687 
z
" clip-path="url(#p237686e4b4)" style="fill: #ff2700"/>
   </g>
   <g id="patch_171">
    <path d="M 115.182755 391.670312 
L 123.024653 391.670312 
L 123.024653 321.331067 
L 115.182755 321.331067 
z
" clip-path="url(#p237686e4b4)" style="fill: #ff3200"/>
   </g>
   <g id="patch_172">
    <path d="M 123.024653 391.670312 
L 130.866551 391.670312 
L 130.866551 329.369838 
L 123.024653 329.369838 
z
" clip-path="url(#p237686e4b4)" style="fill: #ff3a00"/>
   </g>
   <g id="patch_173">
    <path d="M 130.866551 391.670312 
L 138.708449 391.670312 
L 138.708449 339.418302 
L 130.866551 339.418302 
z
" clip-path="url(#p237686e4b4)" style="fill: #ff4100"/>
   </g>
   <g id="patch_174">
    <path d="M 138.708449 391.670312 
L 146.550347 391.670312 
L 146.550347 339.418302 
L 138.708449 339.418302 
z
" clip-path="url(#p237686e4b4)" style="fill: #ff4700"/>
   </g>
   <g id="patch_175">
    <path d="M 146.550347 391.670312 
L 154.392245 391.670312 
L 154.392245 343.437687 
L 146.550347 343.437687 
z
" clip-path="url(#p237686e4b4)" style="fill: #ff4d00"/>
   </g>
   <g id="patch_176">
    <path d="M 154.392245 391.670312 
L 162.234144 391.670312 
L 162.234144 343.437687 
L 154.392245 343.437687 
z
" clip-path="url(#p237686e4b4)" style="fill: #ff5300"/>
   </g>
   <g id="patch_177">
    <path d="M 162.234144 391.670312 
L 170.076042 391.670312 
L 170.076042 345.44738 
L 162.234144 345.44738 
z
" clip-path="url(#p237686e4b4)" style="fill: #ff5900"/>
   </g>
   <g id="patch_178">
    <path d="M 170.076042 391.670312 
L 177.91794 391.670312 
L 177.91794 349.466765 
L 170.076042 349.466765 
z
" clip-path="url(#p237686e4b4)" style="fill: #ff6200"/>
   </g>
   <g id="patch_179">
    <path d="M 177.91794 391.670312 
L 185.759838 391.670312 
L 185.759838 317.311682 
L 177.91794 317.311682 
z
" clip-path="url(#p237686e4b4)" style="fill: #ff6900"/>
   </g>
   <g id="patch_180">
    <path d="M 185.759838 391.670312 
L 193.601736 391.670312 
L 193.601736 363.534614 
L 185.759838 363.534614 
z
" clip-path="url(#p237686e4b4)" style="fill: #ff6d00"/>
   </g>
   <g id="patch_181">
    <path d="M 193.601736 391.670312 
L 201.443634 391.670312 
L 201.443634 359.515229 
L 193.601736 359.515229 
z
" clip-path="url(#p237686e4b4)" style="fill: #ff7200"/>
   </g>
   <g id="patch_182">
    <path d="M 201.443634 391.670312 
L 209.285532 391.670312 
L 209.285532 333.389223 
L 201.443634 333.389223 
z
" clip-path="url(#p237686e4b4)" style="fill: #ff7900"/>
   </g>
   <g id="patch_183">
    <path d="M 209.285532 391.670312 
L 217.127431 391.670312 
L 217.127431 367.554 
L 209.285532 367.554 
z
" clip-path="url(#p237686e4b4)" style="fill: #ff7d00"/>
   </g>
   <g id="patch_184">
    <path d="M 217.127431 391.670312 
L 224.969329 391.670312 
L 224.969329 355.495843 
L 217.127431 355.495843 
z
" clip-path="url(#p237686e4b4)" style="fill: #ff8100"/>
   </g>
   <g id="patch_185">
    <path d="M 224.969329 391.670312 
L 232.811227 391.670312 
L 232.811227 351.476458 
L 224.969329 351.476458 
z
" clip-path="url(#p237686e4b4)" style="fill: #ff8800"/>
   </g>
   <g id="patch_186">
    <path d="M 232.811227 391.670312 
L 240.653125 391.670312 
L 240.653125 353.486151 
L 232.811227 353.486151 
z
" clip-path="url(#p237686e4b4)" style="fill: #ff8b00"/>
   </g>
   <g id="patch_187">
    <path d="M 240.653125 391.670312 
L 248.495023 391.670312 
L 248.495023 369.563692 
L 240.653125 369.563692 
z
" clip-path="url(#p237686e4b4)" style="fill: #ff8f00"/>
   </g>
   <g id="patch_188">
    <path d="M 248.495023 391.670312 
L 256.336921 391.670312 
L 256.336921 365.544307 
L 248.495023 365.544307 
z
" clip-path="url(#p237686e4b4)" style="fill: #ff9300"/>
   </g>
   <g id="patch_189">
    <path d="M 256.336921 391.670312 
L 264.178819 391.670312 
L 264.178819 351.476458 
L 256.336921 351.476458 
z
" clip-path="url(#p237686e4b4)" style="fill: #ff9800"/>
   </g>
   <g id="patch_190">
    <path d="M 264.178819 391.670312 
L 272.020718 391.670312 
L 272.020718 351.476458 
L 264.178819 351.476458 
z
" clip-path="url(#p237686e4b4)" style="fill: #ff9e00"/>
   </g>
   <g id="patch_191">
    <path d="M 272.020718 391.670312 
L 279.862616 391.670312 
L 279.862616 361.524922 
L 272.020718 361.524922 
z
" clip-path="url(#p237686e4b4)" style="fill: #ffa300"/>
   </g>
   <g id="patch_192">
    <path d="M 279.862616 391.670312 
L 287.704514 391.670312 
L 287.704514 353.486151 
L 279.862616 353.486151 
z
" clip-path="url(#p237686e4b4)" style="fill: #ffa700"/>
   </g>
   <g id="patch_193">
    <path d="M 287.704514 391.670312 
L 295.546412 391.670312 
L 295.546412 365.544307 
L 287.704514 365.544307 
z
" clip-path="url(#p237686e4b4)" style="fill: #ffaa00"/>
   </g>
   <g id="patch_194">
    <path d="M 295.546412 391.670312 
L 303.38831 391.670312 
L 303.38831 365.544307 
L 295.546412 365.544307 
z
" clip-path="url(#p237686e4b4)" style="fill: #ffae00"/>
   </g>
   <g id="patch_195">
    <path d="M 303.38831 391.670312 
L 311.230208 391.670312 
L 311.230208 365.544307 
L 303.38831 365.544307 
z
" clip-path="url(#p237686e4b4)" style="fill: #ffb200"/>
   </g>
   <g id="patch_196">
    <path d="M 311.230208 391.670312 
L 319.072106 391.670312 
L 319.072106 367.554 
L 311.230208 367.554 
z
" clip-path="url(#p237686e4b4)" style="fill: #ffb500"/>
   </g>
   <g id="patch_197">
    <path d="M 319.072106 391.670312 
L 326.914005 391.670312 
L 326.914005 361.524922 
L 319.072106 361.524922 
z
" clip-path="url(#p237686e4b4)" style="fill: #ffb900"/>
   </g>
   <g id="patch_198">
    <path d="M 326.914005 391.670312 
L 334.755903 391.670312 
L 334.755903 371.573385 
L 326.914005 371.573385 
z
" clip-path="url(#p237686e4b4)" style="fill: #ffbc00"/>
   </g>
   <g id="patch_199">
    <path d="M 334.755903 391.670312 
L 342.597801 391.670312 
L 342.597801 367.554 
L 334.755903 367.554 
z
" clip-path="url(#p237686e4b4)" style="fill: #ffbe00"/>
   </g>
   <g id="patch_200">
    <path d="M 342.597801 391.670312 
L 350.439699 391.670312 
L 350.439699 367.554 
L 342.597801 367.554 
z
" clip-path="url(#p237686e4b4)" style="fill: #ffc100"/>
   </g>
   <g id="patch_201">
    <path d="M 350.439699 391.670312 
L 358.281597 391.670312 
L 358.281597 379.612156 
L 350.439699 379.612156 
z
" clip-path="url(#p237686e4b4)" style="fill: #ffc400"/>
   </g>
   <g id="patch_202">
    <path d="M 358.281597 391.670312 
L 366.123495 391.670312 
L 366.123495 367.554 
L 358.281597 367.554 
z
" clip-path="url(#p237686e4b4)" style="fill: #ffc600"/>
   </g>
   <g id="patch_203">
    <path d="M 366.123495 391.670312 
L 373.965394 391.670312 
L 373.965394 383.631542 
L 366.123495 383.631542 
z
" clip-path="url(#p237686e4b4)" style="fill: #ffc700"/>
   </g>
   <g id="patch_204">
    <path d="M 373.965394 391.670312 
L 381.807292 391.670312 
L 381.807292 375.592771 
L 373.965394 375.592771 
z
" clip-path="url(#p237686e4b4)" style="fill: #ffc900"/>
   </g>
   <g id="patch_205">
    <path d="M 381.807292 391.670312 
L 389.64919 391.670312 
L 389.64919 385.641234 
L 381.807292 385.641234 
z
" clip-path="url(#p237686e4b4)" style="fill: #ffca00"/>
   </g>
   <g id="patch_206">
    <path d="M 389.64919 391.670312 
L 397.491088 391.670312 
L 397.491088 383.631542 
L 389.64919 383.631542 
z
" clip-path="url(#p237686e4b4)" style="fill: #ffcc00"/>
   </g>
   <g id="patch_207">
    <path d="M 397.491088 391.670312 
L 405.332986 391.670312 
L 405.332986 381.621849 
L 397.491088 381.621849 
z
" clip-path="url(#p237686e4b4)" style="fill: #ffcc00"/>
   </g>
   <g id="patch_208">
    <path d="M 405.332986 391.670312 
L 413.174884 391.670312 
L 413.174884 379.612156 
L 405.332986 379.612156 
z
" clip-path="url(#p237686e4b4)" style="fill: #ffce00"/>
   </g>
   <g id="patch_209">
    <path d="M 413.174884 391.670312 
L 421.016782 391.670312 
L 421.016782 387.650927 
L 413.174884 387.650927 
z
" clip-path="url(#p237686e4b4)" style="fill: #ffce00"/>
   </g>
   <g id="patch_210">
    <path d="M 421.016782 391.670312 
L 428.858681 391.670312 
L 428.858681 383.631542 
L 421.016782 383.631542 
z
" clip-path="url(#p237686e4b4)" style="fill: #ffd100"/>
   </g>
   <g id="patch_211">
    <path d="M 428.858681 391.670312 
L 436.700579 391.670312 
L 436.700579 365.544307 
L 428.858681 365.544307 
z
" clip-path="url(#p237686e4b4)" style="fill: #ffd300"/>
   </g>
   <g id="patch_212">
    <path d="M 436.700579 391.670312 
L 444.542477 391.670312 
L 444.542477 387.650927 
L 436.700579 387.650927 
z
" clip-path="url(#p237686e4b4)" style="fill: #ffd400"/>
   </g>
   <g id="patch_213">
    <path d="M 444.542477 391.670312 
L 452.384375 391.670312 
L 452.384375 379.612156 
L 444.542477 379.612156 
z
" clip-path="url(#p237686e4b4)" style="fill: #ffd500"/>
   </g>
   <g id="patch_214">
    <path d="M 452.384375 391.670312 
L 460.226273 391.670312 
L 460.226273 379.612156 
L 452.384375 379.612156 
z
" clip-path="url(#p237686e4b4)" style="fill: #ffd800"/>
   </g>
   <g id="patch_215">
    <path d="M 460.226273 391.670312 
L 468.068171 391.670312 
L 468.068171 373.583078 
L 460.226273 373.583078 
z
" clip-path="url(#p237686e4b4)" style="fill: #ffda00"/>
   </g>
   <g id="patch_216">
    <path d="M 468.068171 391.670312 
L 475.910069 391.670312 
L 475.910069 381.621849 
L 468.068171 381.621849 
z
" clip-path="url(#p237686e4b4)" style="fill: #ffdb00"/>
   </g>
   <g id="patch_217">
    <path d="M 475.910069 391.670312 
L 483.751968 391.670312 
L 483.751968 385.641234 
L 475.910069 385.641234 
z
" clip-path="url(#p237686e4b4)" style="fill: #ffdb00"/>
   </g>
   <g id="patch_218">
    <path d="M 483.751968 391.670312 
L 491.593866 391.670312 
L 491.593866 375.592771 
L 483.751968 375.592771 
z
" clip-path="url(#p237686e4b4)" style="fill: #ffdf00"/>
   </g>
   <g id="patch_219">
    <path d="M 491.593866 391.670312 
L 499.435764 391.670312 
L 499.435764 381.621849 
L 491.593866 381.621849 
z
" clip-path="url(#p237686e4b4)" style="fill: #ffdf00"/>
   </g>
   <g id="patch_220">
    <path d="M 499.435764 391.670312 
L 507.277662 391.670312 
L 507.277662 383.631542 
L 499.435764 383.631542 
z
" clip-path="url(#p237686e4b4)" style="fill: #ffe000"/>
   </g>
   <g id="patch_221">
    <path d="M 507.277662 391.670312 
L 515.11956 391.670312 
L 515.11956 383.631542 
L 507.277662 383.631542 
z
" clip-path="url(#p237686e4b4)" style="fill: #ffe200"/>
   </g>
   <g id="patch_222">
    <path d="M 515.11956 391.670312 
L 522.961458 391.670312 
L 522.961458 371.573385 
L 515.11956 371.573385 
z
" clip-path="url(#p237686e4b4)" style="fill: #ffe400"/>
   </g>
   <g id="patch_223">
    <path d="M 522.961458 391.670312 
L 530.803356 391.670312 
L 530.803356 385.641234 
L 522.961458 385.641234 
z
" clip-path="url(#p237686e4b4)" style="fill: #ffe500"/>
   </g>
   <g id="patch_224">
    <path d="M 530.803356 391.670312 
L 538.645255 391.670312 
L 538.645255 383.631542 
L 530.803356 383.631542 
z
" clip-path="url(#p237686e4b4)" style="fill: #ffe600"/>
   </g>
   <g id="patch_225">
    <path d="M 538.645255 391.670312 
L 546.487153 391.670312 
L 546.487153 389.66062 
L 538.645255 389.66062 
z
" clip-path="url(#p237686e4b4)" style="fill: #ffe600"/>
   </g>
   <g id="patch_226">
    <path d="M 546.487153 391.670312 
L 554.329051 391.670312 
L 554.329051 385.641234 
L 546.487153 385.641234 
z
" clip-path="url(#p237686e4b4)" style="fill: #ffe700"/>
   </g>
   <g id="patch_227">
    <path d="M 554.329051 391.670312 
L 562.170949 391.670312 
L 562.170949 387.650927 
L 554.329051 387.650927 
z
" clip-path="url(#p237686e4b4)" style="fill: #ffe800"/>
   </g>
   <g id="patch_228">
    <path d="M 562.170949 391.670312 
L 570.012847 391.670312 
L 570.012847 383.631542 
L 562.170949 383.631542 
z
" clip-path="url(#p237686e4b4)" style="fill: #ffe800"/>
   </g>
   <g id="matplotlib.axis_5">
    <g id="xtick_13">
     <g id="line2d_23">
      <g>
       <use xlink:href="#mfc4f8da2b7" x="68.131366" y="391.670312" style="stroke: #000000; stroke-width: 0.8"/>
      </g>
     </g>
     <g id="text_29">
      <text style="font: 10px 'Arial', sans-serif; text-anchor: middle" x="68.131366" y="405.828125" transform="rotate(-0 68.131366 405.828125)">0.5</text>
     </g>
    </g>
    <g id="xtick_14">
     <g id="line2d_24">
      <g>
       <use xlink:href="#mfc4f8da2b7" x="166.155093" y="391.670312" style="stroke: #000000; stroke-width: 0.8"/>
      </g>
     </g>
     <g id="text_30">
      <text style="font: 10px 'Arial', sans-serif; text-anchor: middle" x="166.155093" y="405.828125" transform="rotate(-0 166.155093 405.828125)">1.0</text>
     </g>
    </g>
    <g id="xtick_15">
     <g id="line2d_25">
      <g>
       <use xlink:href="#mfc4f8da2b7" x="264.178819" y="391.670312" style="stroke: #000000; stroke-width: 0.8"/>
      </g>
     </g>
     <g id="text_31">
      <text style="font: 10px 'Arial', sans-serif; text-anchor: middle" x="264.178819" y="405.828125" transform="rotate(-0 264.178819 405.828125)">1.5</text>
     </g>
    </g>
    <g id="xtick_16">
     <g id="line2d_26">
      <g>
       <use xlink:href="#mfc4f8da2b7" x="362.202546" y="391.670312" style="stroke: #000000; stroke-width: 0.8"/>
      </g>
     </g>
     <g id="text_32">
      <text style="font: 10px 'Arial', sans-serif; text-anchor: middle" x="362.202546" y="405.828125" transform="rotate(-0 362.202546 405.828125)">2.0</text>
     </g>
    </g>
    <g id="xtick_17">
     <g id="line2d_27">
      <g>
       <use xlink:href="#mfc4f8da2b7" x="460.226273" y="391.670312" style="stroke: #000000; stroke-width: 0.8"/>
      </g>
     </g>
     <g id="text_33">
      <text style="font: 10px 'Arial', sans-serif; text-anchor: middle" x="460.226273" y="405.828125" transform="rotate(-0 460.226273 405.828125)">2.5</text>
     </g>
    </g>
    <g id="xtick_18">
     <g id="line2d_28">
      <g>
       <use xlink:href="#mfc4f8da2b7" x="558.25" y="391.670312" style="stroke: #000000; stroke-width: 0.8"/>
      </g>
     </g>
     <g id="text_34">
      <text style="font: 10px 'Arial', sans-serif; text-anchor: middle" x="558.25" y="405.828125" transform="rotate(-0 558.25 405.828125)">3.0</text>
     </g>
    </g>
    <g id="text_35">
     <text style="font: 10px 'Arial', sans-serif; text-anchor: middle" x="293.585938" y="419.095312" transform="rotate(-0 293.585938 419.095312)">Stimulus Time (s)</text>
    </g>
   </g>
   <g id="matplotlib.axis_6">
    <g id="ytick_7">
     <g id="line2d_29">
      <g>
       <use xlink:href="#mf5b1bfc95a" x="28.921875" y="391.670312" style="stroke: #000000; stroke-width: 0.8"/>
      </g>
     </g>
     <g id="text_36">
      <text style="font: 10px 'Arial', sans-serif; text-anchor: end" x="21.921875" y="395.249219" transform="rotate(-0 21.921875 395.249219)">0</text>
     </g>
    </g>
    <g id="ytick_8">
     <g id="line2d_30">
      <g>
       <use xlink:href="#mf5b1bfc95a" x="28.921875" y="351.476458" style="stroke: #000000; stroke-width: 0.8"/>
      </g>
     </g>
     <g id="text_37">
      <text style="font: 10px 'Arial', sans-serif; text-anchor: end" x="21.921875" y="355.055364" transform="rotate(-0 21.921875 355.055364)">20</text>
     </g>
    </g>
   </g>
   <g id="patch_229">
    <path d="M 28.921875 391.670312 
L 558.25 391.670312 
" style="fill: none; stroke: #000000; stroke-width: 0.8; stroke-linejoin: miter; stroke-linecap: square"/>
   </g>
   <g id="text_38">
    <text style="fill: #ff0000; font: 13px 'Arial', sans-serif; text-anchor: middle" x="94.352713" y="329.209063" transform="rotate(-0 94.352713 329.209063)">Fast</text>
   </g>
   <g id="patch_230">
    <path d="M 77.861895 333.112891 
Q 94.348999 333.112891 111.954138 333.112891 
" style="fill: none; stroke: #ff0000; stroke-linecap: round"/>
    <path d="M 81.861895 335.112891 
L 77.861895 333.112891 
L 81.861895 331.112891 
" style="fill: none; stroke: #ff0000; stroke-linecap: round"/>
   </g>
   <g id="text_39">
    <text style="fill: #ffa500; font: 13px 'Arial', sans-serif; text-anchor: middle" x="245.211228" y="329.209063" transform="rotate(-0 245.211228 329.209063)">Typical</text>
   </g>
   <g id="text_40">
    <g id="patch_231">
     <path d="M 406.720958 335.822812 
L 442.958458 335.822812 
L 442.958458 315.873906 
L 406.720958 315.873906 
z
" style="fill: #808080; opacity: 0.6"/>
    </g>
    <text style="fill: #ffff00; font: 13px 'Arial', sans-serif; text-anchor: middle" x="424.839708" y="329.209063" transform="rotate(-0 424.839708 329.209063)">Slow</text>
   </g>
   <g id="patch_232">
    <path d="M 407.230856 333.112891 
Q 424.835994 333.112891 441.323099 333.112891 
" style="fill: none; stroke: #ffff00; stroke-linecap: round"/>
    <path d="M 437.323099 331.112891 
L 441.323099 333.112891 
L 437.323099 335.112891 
" style="fill: none; stroke: #ffff00; stroke-linecap: round"/>
   </g>
   <g id="text_41">
    <text style="font: 12px 'Arial', sans-serif; text-anchor: middle" x="478.850781" y="307.59375" transform="rotate(-0 478.850781 307.59375)">Hard (15 sessions / 929 trials)</text>
   </g>
   <g id="line2d_31">
    <path d="M 159.78355 391.670312 
L 159.78355 313.59375 
" clip-path="url(#p237686e4b4)" style="fill: none; stroke-dasharray: 5.55,2.4; stroke-dashoffset: 0; stroke: #808080; stroke-opacity: 0.5; stroke-width: 1.5"/>
   </g>
   <g id="line2d_32">
    <path d="M 291.429416 391.670312 
L 291.429416 313.59375 
" clip-path="url(#p237686e4b4)" style="fill: none; stroke-dasharray: 5.55,2.4; stroke-dashoffset: 0; stroke: #808080; stroke-opacity: 0.5; stroke-width: 1.5"/>
   </g>
   <g id="patch_233">
    <path d="M 28.921875 391.670312 
L 28.921875 313.59375 
L 159.78355 313.59375 
L 159.78355 391.670312 
z
" clip-path="url(#p237686e4b4)" style="fill: #ff0000; opacity: 0.1; stroke: #ff0000; stroke-linejoin: miter"/>
   </g>
   <g id="patch_234">
    <path d="M 159.78355 391.670312 
L 159.78355 313.59375 
L 291.429416 313.59375 
L 291.429416 391.670312 
z
" clip-path="url(#p237686e4b4)" style="fill: #ffa500; opacity: 0.1; stroke: #ffa500; stroke-linejoin: miter"/>
   </g>
   <g id="patch_235">
    <path d="M 291.429416 391.670312 
L 291.429416 313.59375 
L 558.25 313.59375 
L 558.25 391.670312 
z
" clip-path="url(#p237686e4b4)" style="fill: #ffff00; opacity: 0.1; stroke: #ffff00; stroke-linejoin: miter"/>
   </g>
  </g>
  <g id="text_42">
   <text style="font: 12px 'Arial', sans-serif; text-anchor: middle" x="288" y="17.229375" transform="rotate(-0 288 17.229375)">Stimulus Time Distribution - GP4-85</text>
  </g>
 </g>
 <defs>
  <clipPath id="pcebeb9a0fc">
   <rect x="28.921875" y="47.31" width="529.328125" height="78.076562"/>
  </clipPath>
  <clipPath id="pfb3d21b13e">
   <rect x="28.921875" y="180.451875" width="529.328125" height="78.076562"/>
  </clipPath>
  <clipPath id="p237686e4b4">
   <rect x="28.921875" y="313.59375" width="529.328125" height="78.076562"/>
  </clipPath>
 </defs>
</svg>
