<?xml version="1.0" encoding="utf-8" standalone="no"?>
<!DOCTYPE svg PUBLIC "-//W3C//DTD SVG 1.1//EN"
  "http://www.w3.org/Graphics/SVG/1.1/DTD/svg11.dtd">
<svg xmlns:xlink="http://www.w3.org/1999/xlink" width="576pt" height="432pt" viewBox="0 0 576 432" xmlns="http://www.w3.org/2000/svg" version="1.1">
 <metadata>
  <rdf:RDF xmlns:dc="http://purl.org/dc/elements/1.1/" xmlns:cc="http://creativecommons.org/ns#" xmlns:rdf="http://www.w3.org/1999/02/22-rdf-syntax-ns#">
   <cc:Work>
    <dc:type rdf:resource="http://purl.org/dc/dcmitype/StillImage"/>
    <dc:date>2025-12-08T16:35:12.210222</dc:date>
    <dc:format>image/svg+xml</dc:format>
    <dc:creator>
     <cc:Agent>
      <dc:title>Matplotlib v3.8.0, https://matplotlib.org/</dc:title>
     </cc:Agent>
    </dc:creator>
   </cc:Work>
  </rdf:RDF>
 </metadata>
 <defs>
  <style type="text/css">*{stroke-linejoin: round; stroke-linecap: butt}</style>
 </defs>
 <g id="figure_1">
  <g id="patch_1">
   <path d="M 0 432 
L 576 432 
L 576 0 
L 0 0 
z
" style="fill: #ffffff"/>
  </g>
  <g id="axes_1">
   <g id="patch_2">
    <path d="M 34.482813 125.577813 
L 558.25 125.577813 
L 558.25 47.596875 
L 34.482813 47.596875 
z
" style="fill: #ffffff"/>
   </g>
   <g id="patch_3">
    <path d="M 26.723299 125.577813 
L 34.482813 125.577813 
L 34.482813 125.577813 
L 26.723299 125.577813 
z
" clip-path="url(#p40e4c0a817)" style="fill: #ff0000"/>
   </g>
   <g id="patch_4">
    <path d="M 34.482813 125.577813 
L 42.242326 125.577813 
L 42.242326 123.751561 
L 34.482813 123.751561 
z
" clip-path="url(#p40e4c0a817)" style="fill: #ff0100"/>
   </g>
   <g id="patch_5">
    <path d="M 42.242326 125.577813 
L 50.00184 125.577813 
L 50.00184 121.316559 
L 42.242326 121.316559 
z
" clip-path="url(#p40e4c0a817)" style="fill: #ff0300"/>
   </g>
   <g id="patch_6">
    <path d="M 50.00184 125.577813 
L 57.761354 125.577813 
L 57.761354 120.099058 
L 50.00184 120.099058 
z
" clip-path="url(#p40e4c0a817)" style="fill: #ff0500"/>
   </g>
   <g id="patch_7">
    <path d="M 57.761354 125.577813 
L 65.520868 125.577813 
L 65.520868 121.316559 
L 57.761354 121.316559 
z
" clip-path="url(#p40e4c0a817)" style="fill: #ff0600"/>
   </g>
   <g id="patch_8">
    <path d="M 65.520868 125.577813 
L 73.280382 125.577813 
L 73.280382 121.316559 
L 65.520868 121.316559 
z
" clip-path="url(#p40e4c0a817)" style="fill: #ff0700"/>
   </g>
   <g id="patch_9">
    <path d="M 73.280382 125.577813 
L 81.039896 125.577813 
L 81.039896 124.969062 
L 73.280382 124.969062 
z
" clip-path="url(#p40e4c0a817)" style="fill: #ff0900"/>
   </g>
   <g id="patch_10">
    <path d="M 81.039896 125.577813 
L 88.79941 125.577813 
L 88.79941 110.967801 
L 81.039896 110.967801 
z
" clip-path="url(#p40e4c0a817)" style="fill: #ff1000"/>
   </g>
   <g id="patch_11">
    <path d="M 88.79941 125.577813 
L 96.558924 125.577813 
L 96.558924 90.270284 
L 88.79941 90.270284 
z
" clip-path="url(#p40e4c0a817)" style="fill: #ff2100"/>
   </g>
   <g id="patch_12">
    <path d="M 96.558924 125.577813 
L 104.318437 125.577813 
L 104.318437 68.964017 
L 96.558924 68.964017 
z
" clip-path="url(#p40e4c0a817)" style="fill: #ff3900"/>
   </g>
   <g id="patch_13">
    <path d="M 104.318437 125.577813 
L 112.077951 125.577813 
L 112.077951 51.310253 
L 104.318437 51.310253 
z
" clip-path="url(#p40e4c0a817)" style="fill: #ff5100"/>
   </g>
   <g id="patch_14">
    <path d="M 112.077951 125.577813 
L 119.837465 125.577813 
L 119.837465 61.659011 
L 112.077951 61.659011 
z
" clip-path="url(#p40e4c0a817)" style="fill: #ff6900"/>
   </g>
   <g id="patch_15">
    <path d="M 119.837465 125.577813 
L 127.596979 125.577813 
L 127.596979 62.267762 
L 119.837465 62.267762 
z
" clip-path="url(#p40e4c0a817)" style="fill: #ff7d00"/>
   </g>
   <g id="patch_16">
    <path d="M 127.596979 125.577813 
L 135.356493 125.577813 
L 135.356493 76.877773 
L 127.596979 76.877773 
z
" clip-path="url(#p40e4c0a817)" style="fill: #ff8e00"/>
   </g>
   <g id="patch_17">
    <path d="M 135.356493 125.577813 
L 143.116007 125.577813 
L 143.116007 76.877773 
L 135.356493 76.877773 
z
" clip-path="url(#p40e4c0a817)" style="fill: #ff9c00"/>
   </g>
   <g id="patch_18">
    <path d="M 143.116007 125.577813 
L 150.875521 125.577813 
L 150.875521 89.052783 
L 143.116007 89.052783 
z
" clip-path="url(#p40e4c0a817)" style="fill: #ffa900"/>
   </g>
   <g id="patch_19">
    <path d="M 150.875521 125.577813 
L 158.635035 125.577813 
L 158.635035 100.010292 
L 150.875521 100.010292 
z
" clip-path="url(#p40e4c0a817)" style="fill: #ffb000"/>
   </g>
   <g id="patch_20">
    <path d="M 158.635035 125.577813 
L 166.394549 125.577813 
L 166.394549 101.227793 
L 158.635035 101.227793 
z
" clip-path="url(#p40e4c0a817)" style="fill: #ffb600"/>
   </g>
   <g id="patch_21">
    <path d="M 166.394549 125.577813 
L 174.154062 125.577813 
L 174.154062 110.35905 
L 166.394549 110.35905 
z
" clip-path="url(#p40e4c0a817)" style="fill: #ffbe00"/>
   </g>
   <g id="patch_22">
    <path d="M 174.154062 125.577813 
L 181.913576 125.577813 
L 181.913576 104.271545 
L 174.154062 104.271545 
z
" clip-path="url(#p40e4c0a817)" style="fill: #ffc300"/>
   </g>
   <g id="patch_23">
    <path d="M 181.913576 125.577813 
L 189.67309 125.577813 
L 189.67309 109.7503 
L 181.913576 109.7503 
z
" clip-path="url(#p40e4c0a817)" style="fill: #ffc800"/>
   </g>
   <g id="patch_24">
    <path d="M 189.67309 125.577813 
L 197.432604 125.577813 
L 197.432604 117.055306 
L 189.67309 117.055306 
z
" clip-path="url(#p40e4c0a817)" style="fill: #ffcc00"/>
   </g>
   <g id="patch_25">
    <path d="M 197.432604 125.577813 
L 205.192118 125.577813 
L 205.192118 115.837805 
L 197.432604 115.837805 
z
" clip-path="url(#p40e4c0a817)" style="fill: #ffcf00"/>
   </g>
   <g id="patch_26">
    <path d="M 205.192118 125.577813 
L 212.951632 125.577813 
L 212.951632 112.185302 
L 205.192118 112.185302 
z
" clip-path="url(#p40e4c0a817)" style="fill: #ffd400"/>
   </g>
   <g id="patch_27">
    <path d="M 212.951632 125.577813 
L 220.711146 125.577813 
L 220.711146 117.055306 
L 212.951632 117.055306 
z
" clip-path="url(#p40e4c0a817)" style="fill: #ffd600"/>
   </g>
   <g id="patch_28">
    <path d="M 220.711146 125.577813 
L 228.47066 125.577813 
L 228.47066 117.055306 
L 220.711146 117.055306 
z
" clip-path="url(#p40e4c0a817)" style="fill: #ffda00"/>
   </g>
   <g id="patch_29">
    <path d="M 228.47066 125.577813 
L 236.230174 125.577813 
L 236.230174 114.011553 
L 228.47066 114.011553 
z
" clip-path="url(#p40e4c0a817)" style="fill: #ffdd00"/>
   </g>
   <g id="patch_30">
    <path d="M 236.230174 125.577813 
L 243.989687 125.577813 
L 243.989687 122.53406 
L 236.230174 122.53406 
z
" clip-path="url(#p40e4c0a817)" style="fill: #ffe000"/>
   </g>
   <g id="patch_31">
    <path d="M 243.989687 125.577813 
L 251.749201 125.577813 
L 251.749201 115.229054 
L 243.989687 115.229054 
z
" clip-path="url(#p40e4c0a817)" style="fill: #ffe200"/>
   </g>
   <g id="patch_32">
    <path d="M 251.749201 125.577813 
L 259.508715 125.577813 
L 259.508715 120.099058 
L 251.749201 120.099058 
z
" clip-path="url(#p40e4c0a817)" style="fill: #ffe400"/>
   </g>
   <g id="patch_33">
    <path d="M 259.508715 125.577813 
L 267.268229 125.577813 
L 267.268229 120.099058 
L 259.508715 120.099058 
z
" clip-path="url(#p40e4c0a817)" style="fill: #ffe600"/>
   </g>
   <g id="patch_34">
    <path d="M 267.268229 125.577813 
L 275.027743 125.577813 
L 275.027743 120.099058 
L 267.268229 120.099058 
z
" clip-path="url(#p40e4c0a817)" style="fill: #ffe800"/>
   </g>
   <g id="patch_35">
    <path d="M 275.027743 125.577813 
L 282.787257 125.577813 
L 282.787257 121.316559 
L 275.027743 121.316559 
z
" clip-path="url(#p40e4c0a817)" style="fill: #ffe800"/>
   </g>
   <g id="patch_36">
    <path d="M 282.787257 125.577813 
L 290.546771 125.577813 
L 290.546771 123.751561 
L 282.787257 123.751561 
z
" clip-path="url(#p40e4c0a817)" style="fill: #ffea00"/>
   </g>
   <g id="patch_37">
    <path d="M 290.546771 125.577813 
L 298.306285 125.577813 
L 298.306285 123.142811 
L 290.546771 123.142811 
z
" clip-path="url(#p40e4c0a817)" style="fill: #ffea00"/>
   </g>
   <g id="patch_38">
    <path d="M 298.306285 125.577813 
L 306.065799 125.577813 
L 306.065799 123.751561 
L 298.306285 123.751561 
z
" clip-path="url(#p40e4c0a817)" style="fill: #ffeb00"/>
   </g>
   <g id="patch_39">
    <path d="M 306.065799 125.577813 
L 313.825312 125.577813 
L 313.825312 121.316559 
L 306.065799 121.316559 
z
" clip-path="url(#p40e4c0a817)" style="fill: #ffec00"/>
   </g>
   <g id="patch_40">
    <path d="M 313.825312 125.577813 
L 321.584826 125.577813 
L 321.584826 124.360312 
L 313.825312 124.360312 
z
" clip-path="url(#p40e4c0a817)" style="fill: #ffed00"/>
   </g>
   <g id="patch_41">
    <path d="M 321.584826 125.577813 
L 329.34434 125.577813 
L 329.34434 123.751561 
L 321.584826 123.751561 
z
" clip-path="url(#p40e4c0a817)" style="fill: #ffed00"/>
   </g>
   <g id="patch_42">
    <path d="M 329.34434 125.577813 
L 337.103854 125.577813 
L 337.103854 123.751561 
L 329.34434 123.751561 
z
" clip-path="url(#p40e4c0a817)" style="fill: #ffee00"/>
   </g>
   <g id="patch_43">
    <path d="M 337.103854 125.577813 
L 344.863368 125.577813 
L 344.863368 123.142811 
L 337.103854 123.142811 
z
" clip-path="url(#p40e4c0a817)" style="fill: #ffef00"/>
   </g>
   <g id="patch_44">
    <path d="M 344.863368 125.577813 
L 352.622882 125.577813 
L 352.622882 123.751561 
L 344.863368 123.751561 
z
" clip-path="url(#p40e4c0a817)" style="fill: #fff000"/>
   </g>
   <g id="patch_45">
    <path d="M 352.622882 125.577813 
L 360.382396 125.577813 
L 360.382396 124.969062 
L 352.622882 124.969062 
z
" clip-path="url(#p40e4c0a817)" style="fill: #fff000"/>
   </g>
   <g id="patch_46">
    <path d="M 360.382396 125.577813 
L 368.14191 125.577813 
L 368.14191 123.142811 
L 360.382396 123.142811 
z
" clip-path="url(#p40e4c0a817)" style="fill: #fff100"/>
   </g>
   <g id="patch_47">
    <path d="M 368.14191 125.577813 
L 375.901424 125.577813 
L 375.901424 123.751561 
L 368.14191 123.751561 
z
" clip-path="url(#p40e4c0a817)" style="fill: #fff100"/>
   </g>
   <g id="patch_48">
    <path d="M 375.901424 125.577813 
L 383.660937 125.577813 
L 383.660937 123.142811 
L 375.901424 123.142811 
z
" clip-path="url(#p40e4c0a817)" style="fill: #fff200"/>
   </g>
   <g id="patch_49">
    <path d="M 383.660937 125.577813 
L 391.420451 125.577813 
L 391.420451 124.360312 
L 383.660937 124.360312 
z
" clip-path="url(#p40e4c0a817)" style="fill: #fff200"/>
   </g>
   <g id="patch_50">
    <path d="M 391.420451 125.577813 
L 399.179965 125.577813 
L 399.179965 125.577813 
L 391.420451 125.577813 
z
" clip-path="url(#p40e4c0a817)" style="fill: #fff300"/>
   </g>
   <g id="patch_51">
    <path d="M 399.179965 125.577813 
L 406.939479 125.577813 
L 406.939479 124.360312 
L 399.179965 124.360312 
z
" clip-path="url(#p40e4c0a817)" style="fill: #fff300"/>
   </g>
   <g id="patch_52">
    <path d="M 406.939479 125.577813 
L 414.698993 125.577813 
L 414.698993 124.360312 
L 406.939479 124.360312 
z
" clip-path="url(#p40e4c0a817)" style="fill: #fff300"/>
   </g>
   <g id="patch_53">
    <path d="M 414.698993 125.577813 
L 422.458507 125.577813 
L 422.458507 124.969062 
L 414.698993 124.969062 
z
" clip-path="url(#p40e4c0a817)" style="fill: #fff400"/>
   </g>
   <g id="patch_54">
    <path d="M 422.458507 125.577813 
L 430.218021 125.577813 
L 430.218021 123.751561 
L 422.458507 123.751561 
z
" clip-path="url(#p40e4c0a817)" style="fill: #fff400"/>
   </g>
   <g id="patch_55">
    <path d="M 430.218021 125.577813 
L 437.977535 125.577813 
L 437.977535 124.360312 
L 430.218021 124.360312 
z
" clip-path="url(#p40e4c0a817)" style="fill: #fff400"/>
   </g>
   <g id="patch_56">
    <path d="M 437.977535 125.577813 
L 445.737049 125.577813 
L 445.737049 125.577813 
L 437.977535 125.577813 
z
" clip-path="url(#p40e4c0a817)" style="fill: #fff500"/>
   </g>
   <g id="patch_57">
    <path d="M 445.737049 125.577813 
L 453.496562 125.577813 
L 453.496562 124.969062 
L 445.737049 124.969062 
z
" clip-path="url(#p40e4c0a817)" style="fill: #fff500"/>
   </g>
   <g id="patch_58">
    <path d="M 453.496562 125.577813 
L 461.256076 125.577813 
L 461.256076 124.360312 
L 453.496562 124.360312 
z
" clip-path="url(#p40e4c0a817)" style="fill: #fff500"/>
   </g>
   <g id="patch_59">
    <path d="M 461.256076 125.577813 
L 469.01559 125.577813 
L 469.01559 124.969062 
L 461.256076 124.969062 
z
" clip-path="url(#p40e4c0a817)" style="fill: #fff500"/>
   </g>
   <g id="patch_60">
    <path d="M 469.01559 125.577813 
L 476.775104 125.577813 
L 476.775104 124.360312 
L 469.01559 124.360312 
z
" clip-path="url(#p40e4c0a817)" style="fill: #fff600"/>
   </g>
   <g id="patch_61">
    <path d="M 476.775104 125.577813 
L 484.534618 125.577813 
L 484.534618 124.969062 
L 476.775104 124.969062 
z
" clip-path="url(#p40e4c0a817)" style="fill: #fff600"/>
   </g>
   <g id="patch_62">
    <path d="M 484.534618 125.577813 
L 492.294132 125.577813 
L 492.294132 124.360312 
L 484.534618 124.360312 
z
" clip-path="url(#p40e4c0a817)" style="fill: #fff700"/>
   </g>
   <g id="patch_63">
    <path d="M 492.294132 125.577813 
L 500.053646 125.577813 
L 500.053646 124.360312 
L 492.294132 124.360312 
z
" clip-path="url(#p40e4c0a817)" style="fill: #fff700"/>
   </g>
   <g id="patch_64">
    <path d="M 500.053646 125.577813 
L 507.81316 125.577813 
L 507.81316 124.969062 
L 500.053646 124.969062 
z
" clip-path="url(#p40e4c0a817)" style="fill: #fff700"/>
   </g>
   <g id="patch_65">
    <path d="M 507.81316 125.577813 
L 515.572674 125.577813 
L 515.572674 125.577813 
L 507.81316 125.577813 
z
" clip-path="url(#p40e4c0a817)" style="fill: #fff700"/>
   </g>
   <g id="patch_66">
    <path d="M 515.572674 125.577813 
L 523.332187 125.577813 
L 523.332187 124.969062 
L 515.572674 124.969062 
z
" clip-path="url(#p40e4c0a817)" style="fill: #fff800"/>
   </g>
   <g id="patch_67">
    <path d="M 523.332187 125.577813 
L 531.091701 125.577813 
L 531.091701 123.751561 
L 523.332187 123.751561 
z
" clip-path="url(#p40e4c0a817)" style="fill: #fff800"/>
   </g>
   <g id="patch_68">
    <path d="M 531.091701 125.577813 
L 538.851215 125.577813 
L 538.851215 124.969062 
L 531.091701 124.969062 
z
" clip-path="url(#p40e4c0a817)" style="fill: #fff800"/>
   </g>
   <g id="patch_69">
    <path d="M 538.851215 125.577813 
L 546.610729 125.577813 
L 546.610729 125.577813 
L 538.851215 125.577813 
z
" clip-path="url(#p40e4c0a817)" style="fill: #fff800"/>
   </g>
   <g id="patch_70">
    <path d="M 546.610729 125.577813 
L 554.370243 125.577813 
L 554.370243 124.360312 
L 546.610729 124.360312 
z
" clip-path="url(#p40e4c0a817)" style="fill: #fff900"/>
   </g>
   <g id="patch_71">
    <path d="M 554.370243 125.577813 
L 562.129757 125.577813 
L 562.129757 125.577813 
L 554.370243 125.577813 
z
" clip-path="url(#p40e4c0a817)" style="fill: #fff900"/>
   </g>
   <g id="patch_72">
    <path d="M 562.129757 125.577813 
L 569.889271 125.577813 
L 569.889271 125.577813 
L 562.129757 125.577813 
z
" clip-path="url(#p40e4c0a817)" style="fill: #fff900"/>
   </g>
   <g id="matplotlib.axis_1">
    <g id="xtick_1">
     <g id="line2d_1">
      <defs>
       <path id="mb317d448de" d="M 0 0 
L 0 3.5 
" style="stroke: #000000; stroke-width: 0.8"/>
      </defs>
      <g>
       <use xlink:href="#mb317d448de" x="73.280382" y="125.577813" style="stroke: #000000; stroke-width: 0.8"/>
      </g>
     </g>
     <g id="text_1">
      <text style="font: 10px 'Arial', sans-serif; text-anchor: middle" x="73.280382" y="139.735625" transform="rotate(-0 73.280382 139.735625)">0.5</text>
     </g>
    </g>
    <g id="xtick_2">
     <g id="line2d_2">
      <g>
       <use xlink:href="#mb317d448de" x="170.274306" y="125.577813" style="stroke: #000000; stroke-width: 0.8"/>
      </g>
     </g>
     <g id="text_2">
      <text style="font: 10px 'Arial', sans-serif; text-anchor: middle" x="170.274306" y="139.735625" transform="rotate(-0 170.274306 139.735625)">1.0</text>
     </g>
    </g>
    <g id="xtick_3">
     <g id="line2d_3">
      <g>
       <use xlink:href="#mb317d448de" x="267.268229" y="125.577813" style="stroke: #000000; stroke-width: 0.8"/>
      </g>
     </g>
     <g id="text_3">
      <text style="font: 10px 'Arial', sans-serif; text-anchor: middle" x="267.268229" y="139.735625" transform="rotate(-0 267.268229 139.735625)">1.5</text>
     </g>
    </g>
    <g id="xtick_4">
     <g id="line2d_4">
      <g>
       <use xlink:href="#mb317d448de" x="364.262153" y="125.577813" style="stroke: #000000; stroke-width: 0.8"/>
      </g>
     </g>
     <g id="text_4">
      <text style="font: 10px 'Arial', sans-serif; text-anchor: middle" x="364.262153" y="139.735625" transform="rotate(-0 364.262153 139.735625)">2.0</text>
     </g>
    </g>
    <g id="xtick_5">
     <g id="line2d_5">
      <g>
       <use xlink:href="#mb317d448de" x="461.256076" y="125.577813" style="stroke: #000000; stroke-width: 0.8"/>
      </g>
     </g>
     <g id="text_5">
      <text style="font: 10px 'Arial', sans-serif; text-anchor: middle" x="461.256076" y="139.735625" transform="rotate(-0 461.256076 139.735625)">2.5</text>
     </g>
    </g>
    <g id="xtick_6">
     <g id="line2d_6">
      <g>
       <use xlink:href="#mb317d448de" x="558.25" y="125.577813" style="stroke: #000000; stroke-width: 0.8"/>
      </g>
     </g>
     <g id="text_6">
      <text style="font: 10px 'Arial', sans-serif; text-anchor: middle" x="558.25" y="139.735625" transform="rotate(-0 558.25 139.735625)">3.0</text>
     </g>
    </g>
    <g id="text_7">
     <text style="font: 10px 'Arial', sans-serif; text-anchor: middle" x="296.366406" y="153.002813" transform="rotate(-0 296.366406 153.002813)">Stimulus Time (s)</text>
    </g>
   </g>
   <g id="matplotlib.axis_2">
    <g id="ytick_1">
     <g id="line2d_7">
      <defs>
       <path id="mdaa68b5405" d="M 0 0 
L -3.5 0 
" style="stroke: #000000; stroke-width: 0.8"/>
      </defs>
      <g>
       <use xlink:href="#mdaa68b5405" x="34.482813" y="125.577813" style="stroke: #000000; stroke-width: 0.8"/>
      </g>
     </g>
     <g id="text_8">
      <text style="font: 10px 'Arial', sans-serif; text-anchor: end" x="27.482813" y="129.156719" transform="rotate(-0 27.482813 129.156719)">0</text>
     </g>
    </g>
    <g id="ytick_2">
     <g id="line2d_8">
      <g>
       <use xlink:href="#mdaa68b5405" x="34.482813" y="95.140288" style="stroke: #000000; stroke-width: 0.8"/>
      </g>
     </g>
     <g id="text_9">
      <text style="font: 10px 'Arial', sans-serif; text-anchor: end" x="27.482813" y="98.719194" transform="rotate(-0 27.482813 98.719194)">50</text>
     </g>
    </g>
    <g id="ytick_3">
     <g id="line2d_9">
      <g>
       <use xlink:href="#mdaa68b5405" x="34.482813" y="64.702764" style="stroke: #000000; stroke-width: 0.8"/>
      </g>
     </g>
     <g id="text_10">
      <text style="font: 10px 'Arial', sans-serif; text-anchor: end" x="27.482813" y="68.28167" transform="rotate(-0 27.482813 68.28167)">100</text>
     </g>
    </g>
   </g>
   <g id="patch_73">
    <path d="M 34.482813 125.577813 
L 558.25 125.577813 
" style="fill: none; stroke: #000000; stroke-width: 0.8; stroke-linejoin: miter; stroke-linecap: square"/>
   </g>
   <g id="text_11">
    <text style="fill: #ff0000; font: 13px 'Arial', sans-serif; text-anchor: middle" x="72.064725" y="63.193063" transform="rotate(-0 72.064725 63.193063)">Fast</text>
   </g>
   <g id="patch_74">
    <path d="M 55.787315 67.092109 
Q 72.06704 67.092109 89.4648 67.092109 
" style="fill: none; stroke: #ff0000; stroke-linecap: round"/>
    <path d="M 59.787315 69.092109 
L 55.787315 67.092109 
L 59.787315 65.092109 
" style="fill: none; stroke: #ff0000; stroke-linecap: round"/>
   </g>
   <g id="text_12">
    <text style="fill: #ffa500; font: 13px 'Arial', sans-serif; text-anchor: middle" x="148.130593" y="63.193063" transform="rotate(-0 148.130593 63.193063)">Typical</text>
   </g>
   <g id="text_13">
    <g id="patch_75">
     <path d="M 334.91474 69.806813 
L 371.15224 69.806813 
L 371.15224 49.857906 
L 334.91474 49.857906 
z
" style="fill: #808080; opacity: 0.6"/>
    </g>
    <text style="fill: #ffff00; font: 13px 'Arial', sans-serif; text-anchor: middle" x="353.03349" y="63.193063" transform="rotate(-0 353.03349 63.193063)">Slow</text>
   </g>
   <g id="patch_76">
    <path d="M 335.638046 67.092109 
Q 353.035805 67.092109 369.31553 67.092109 
" style="fill: none; stroke: #ffff00; stroke-linecap: round"/>
    <path d="M 365.31553 65.092109 
L 369.31553 67.092109 
L 365.31553 69.092109 
" style="fill: none; stroke: #ffff00; stroke-linecap: round"/>
   </g>
   <g id="text_14">
    <text style="font: 12px 'Arial', sans-serif; text-anchor: middle" x="479.684922" y="41.596875" transform="rotate(-0 479.684922 41.596875)">Easy (15 sessions / 1,188 trials)</text>
   </g>
   <g id="line2d_10">
    <path d="M 109.646637 125.577813 
L 109.646637 47.596875 
" clip-path="url(#p40e4c0a817)" style="fill: none; stroke-dasharray: 5.55,2.4; stroke-dashoffset: 0; stroke: #808080; stroke-opacity: 0.5; stroke-width: 1.5"/>
   </g>
   <g id="line2d_11">
    <path d="M 147.816979 125.577813 
L 147.816979 47.596875 
" clip-path="url(#p40e4c0a817)" style="fill: none; stroke-dasharray: 5.55,2.4; stroke-dashoffset: 0; stroke: #808080; stroke-opacity: 0.5; stroke-width: 1.5"/>
   </g>
   <g id="patch_77">
    <path d="M 34.482813 125.577813 
L 34.482813 47.596875 
L 109.646637 47.596875 
L 109.646637 125.577813 
z
" clip-path="url(#p40e4c0a817)" style="fill: #ff0000; opacity: 0.1; stroke: #ff0000; stroke-linejoin: miter"/>
   </g>
   <g id="patch_78">
    <path d="M 109.646637 125.577813 
L 109.646637 47.596875 
L 147.816979 47.596875 
L 147.816979 125.577813 
z
" clip-path="url(#p40e4c0a817)" style="fill: #ffa500; opacity: 0.1; stroke: #ffa500; stroke-linejoin: miter"/>
   </g>
   <g id="patch_79">
    <path d="M 147.816979 125.577813 
L 147.816979 47.596875 
L 558.25 47.596875 
L 558.25 125.577813 
z
" clip-path="url(#p40e4c0a817)" style="fill: #ffff00; opacity: 0.1; stroke: #ffff00; stroke-linejoin: miter"/>
   </g>
  </g>
  <g id="axes_2">
   <g id="patch_80">
    <path d="M 34.482813 258.624063 
L 558.25 258.624063 
L 558.25 180.643125 
L 34.482813 180.643125 
z
" style="fill: #ffffff"/>
   </g>
   <g id="patch_81">
    <path d="M 26.723299 258.624063 
L 34.482813 258.624063 
L 34.482813 258.624063 
L 26.723299 258.624063 
z
" clip-path="url(#p66275c1eac)" style="fill: #ff0000"/>
   </g>
   <g id="patch_82">
    <path d="M 34.482813 258.624063 
L 42.242326 258.624063 
L 42.242326 257.86623 
L 34.482813 257.86623 
z
" clip-path="url(#p66275c1eac)" style="fill: #ff0100"/>
   </g>
   <g id="patch_83">
    <path d="M 42.242326 258.624063 
L 50.00184 258.624063 
L 50.00184 251.04574 
L 42.242326 251.04574 
z
" clip-path="url(#p66275c1eac)" style="fill: #ff0300"/>
   </g>
   <g id="patch_84">
    <path d="M 50.00184 258.624063 
L 57.761354 258.624063 
L 57.761354 254.834901 
L 50.00184 254.834901 
z
" clip-path="url(#p66275c1eac)" style="fill: #ff0500"/>
   </g>
   <g id="patch_85">
    <path d="M 57.761354 258.624063 
L 65.520868 258.624063 
L 65.520868 256.350566 
L 57.761354 256.350566 
z
" clip-path="url(#p66275c1eac)" style="fill: #ff0500"/>
   </g>
   <g id="patch_86">
    <path d="M 65.520868 258.624063 
L 73.280382 258.624063 
L 73.280382 257.108398 
L 65.520868 257.108398 
z
" clip-path="url(#p66275c1eac)" style="fill: #ff0600"/>
   </g>
   <g id="patch_87">
    <path d="M 73.280382 258.624063 
L 81.039896 258.624063 
L 81.039896 257.108398 
L 73.280382 257.108398 
z
" clip-path="url(#p66275c1eac)" style="fill: #ff0600"/>
   </g>
   <g id="patch_88">
    <path d="M 81.039896 258.624063 
L 88.79941 258.624063 
L 88.79941 254.077069 
L 81.039896 254.077069 
z
" clip-path="url(#p66275c1eac)" style="fill: #ff0a00"/>
   </g>
   <g id="patch_89">
    <path d="M 88.79941 258.624063 
L 96.558924 258.624063 
L 96.558924 238.162592 
L 88.79941 238.162592 
z
" clip-path="url(#p66275c1eac)" style="fill: #ff1800"/>
   </g>
   <g id="patch_90">
    <path d="M 96.558924 258.624063 
L 104.318437 258.624063 
L 104.318437 210.122799 
L 96.558924 210.122799 
z
" clip-path="url(#p66275c1eac)" style="fill: #ff2d00"/>
   </g>
   <g id="patch_91">
    <path d="M 104.318437 258.624063 
L 112.077951 258.624063 
L 112.077951 184.356503 
L 104.318437 184.356503 
z
" clip-path="url(#p66275c1eac)" style="fill: #ff4600"/>
   </g>
   <g id="patch_92">
    <path d="M 112.077951 258.624063 
L 119.837465 258.624063 
L 119.837465 194.208322 
L 112.077951 194.208322 
z
" clip-path="url(#p66275c1eac)" style="fill: #ff5b00"/>
   </g>
   <g id="patch_93">
    <path d="M 119.837465 258.624063 
L 127.596979 258.624063 
L 127.596979 196.481819 
L 119.837465 196.481819 
z
" clip-path="url(#p66275c1eac)" style="fill: #ff7200"/>
   </g>
   <g id="patch_94">
    <path d="M 127.596979 258.624063 
L 135.356493 258.624063 
L 135.356493 203.302309 
L 127.596979 203.302309 
z
" clip-path="url(#p66275c1eac)" style="fill: #ff8000"/>
   </g>
   <g id="patch_95">
    <path d="M 135.356493 258.624063 
L 143.116007 258.624063 
L 143.116007 225.279444 
L 135.356493 225.279444 
z
" clip-path="url(#p66275c1eac)" style="fill: #ff8b00"/>
   </g>
   <g id="patch_96">
    <path d="M 143.116007 258.624063 
L 150.875521 258.624063 
L 150.875521 222.248115 
L 143.116007 222.248115 
z
" clip-path="url(#p66275c1eac)" style="fill: #ff9800"/>
   </g>
   <g id="patch_97">
    <path d="M 150.875521 258.624063 
L 158.635035 258.624063 
L 158.635035 227.552941 
L 150.875521 227.552941 
z
" clip-path="url(#p66275c1eac)" style="fill: #ffa000"/>
   </g>
   <g id="patch_98">
    <path d="M 158.635035 258.624063 
L 166.394549 258.624063 
L 166.394549 241.193921 
L 158.635035 241.193921 
z
" clip-path="url(#p66275c1eac)" style="fill: #ffa600"/>
   </g>
   <g id="patch_99">
    <path d="M 166.394549 258.624063 
L 174.154062 258.624063 
L 174.154062 234.373431 
L 166.394549 234.373431 
z
" clip-path="url(#p66275c1eac)" style="fill: #ffb200"/>
   </g>
   <g id="patch_100">
    <path d="M 174.154062 258.624063 
L 181.913576 258.624063 
L 181.913576 228.310773 
L 174.154062 228.310773 
z
" clip-path="url(#p66275c1eac)" style="fill: #ffb900"/>
   </g>
   <g id="patch_101">
    <path d="M 181.913576 258.624063 
L 189.67309 258.624063 
L 189.67309 241.193921 
L 181.913576 241.193921 
z
" clip-path="url(#p66275c1eac)" style="fill: #ffbe00"/>
   </g>
   <g id="patch_102">
    <path d="M 189.67309 258.624063 
L 197.432604 258.624063 
L 197.432604 246.498747 
L 189.67309 246.498747 
z
" clip-path="url(#p66275c1eac)" style="fill: #ffc300"/>
   </g>
   <g id="patch_103">
    <path d="M 197.432604 258.624063 
L 205.192118 258.624063 
L 205.192118 247.256579 
L 197.432604 247.256579 
z
" clip-path="url(#p66275c1eac)" style="fill: #ffc700"/>
   </g>
   <g id="patch_104">
    <path d="M 205.192118 258.624063 
L 212.951632 258.624063 
L 212.951632 248.772243 
L 205.192118 248.772243 
z
" clip-path="url(#p66275c1eac)" style="fill: #ffcb00"/>
   </g>
   <g id="patch_105">
    <path d="M 212.951632 258.624063 
L 220.711146 258.624063 
L 220.711146 251.04574 
L 212.951632 251.04574 
z
" clip-path="url(#p66275c1eac)" style="fill: #ffce00"/>
   </g>
   <g id="patch_106">
    <path d="M 220.711146 258.624063 
L 228.47066 258.624063 
L 228.47066 242.709585 
L 220.711146 242.709585 
z
" clip-path="url(#p66275c1eac)" style="fill: #ffd200"/>
   </g>
   <g id="patch_107">
    <path d="M 228.47066 258.624063 
L 236.230174 258.624063 
L 236.230174 254.077069 
L 228.47066 254.077069 
z
" clip-path="url(#p66275c1eac)" style="fill: #ffd500"/>
   </g>
   <g id="patch_108">
    <path d="M 236.230174 258.624063 
L 243.989687 258.624063 
L 243.989687 242.709585 
L 236.230174 242.709585 
z
" clip-path="url(#p66275c1eac)" style="fill: #ffd900"/>
   </g>
   <g id="patch_109">
    <path d="M 243.989687 258.624063 
L 251.749201 258.624063 
L 251.749201 252.561405 
L 243.989687 252.561405 
z
" clip-path="url(#p66275c1eac)" style="fill: #ffdb00"/>
   </g>
   <g id="patch_110">
    <path d="M 251.749201 258.624063 
L 259.508715 258.624063 
L 259.508715 254.077069 
L 251.749201 254.077069 
z
" clip-path="url(#p66275c1eac)" style="fill: #ffdd00"/>
   </g>
   <g id="patch_111">
    <path d="M 259.508715 258.624063 
L 267.268229 258.624063 
L 267.268229 253.319237 
L 259.508715 253.319237 
z
" clip-path="url(#p66275c1eac)" style="fill: #ffde00"/>
   </g>
   <g id="patch_112">
    <path d="M 267.268229 258.624063 
L 275.027743 258.624063 
L 275.027743 253.319237 
L 267.268229 253.319237 
z
" clip-path="url(#p66275c1eac)" style="fill: #ffe000"/>
   </g>
   <g id="patch_113">
    <path d="M 275.027743 258.624063 
L 282.787257 258.624063 
L 282.787257 254.834901 
L 275.027743 254.834901 
z
" clip-path="url(#p66275c1eac)" style="fill: #ffe200"/>
   </g>
   <g id="patch_114">
    <path d="M 282.787257 258.624063 
L 290.546771 258.624063 
L 290.546771 253.319237 
L 282.787257 253.319237 
z
" clip-path="url(#p66275c1eac)" style="fill: #ffe300"/>
   </g>
   <g id="patch_115">
    <path d="M 290.546771 258.624063 
L 298.306285 258.624063 
L 298.306285 256.350566 
L 290.546771 256.350566 
z
" clip-path="url(#p66275c1eac)" style="fill: #ffe400"/>
   </g>
   <g id="patch_116">
    <path d="M 298.306285 258.624063 
L 306.065799 258.624063 
L 306.065799 253.319237 
L 298.306285 253.319237 
z
" clip-path="url(#p66275c1eac)" style="fill: #ffe600"/>
   </g>
   <g id="patch_117">
    <path d="M 306.065799 258.624063 
L 313.825312 258.624063 
L 313.825312 254.834901 
L 306.065799 254.834901 
z
" clip-path="url(#p66275c1eac)" style="fill: #ffe700"/>
   </g>
   <g id="patch_118">
    <path d="M 313.825312 258.624063 
L 321.584826 258.624063 
L 321.584826 255.592734 
L 313.825312 255.592734 
z
" clip-path="url(#p66275c1eac)" style="fill: #ffe800"/>
   </g>
   <g id="patch_119">
    <path d="M 321.584826 258.624063 
L 329.34434 258.624063 
L 329.34434 257.108398 
L 321.584826 257.108398 
z
" clip-path="url(#p66275c1eac)" style="fill: #ffe900"/>
   </g>
   <g id="patch_120">
    <path d="M 329.34434 258.624063 
L 337.103854 258.624063 
L 337.103854 254.834901 
L 329.34434 254.834901 
z
" clip-path="url(#p66275c1eac)" style="fill: #ffea00"/>
   </g>
   <g id="patch_121">
    <path d="M 337.103854 258.624063 
L 344.863368 258.624063 
L 344.863368 256.350566 
L 337.103854 256.350566 
z
" clip-path="url(#p66275c1eac)" style="fill: #ffeb00"/>
   </g>
   <g id="patch_122">
    <path d="M 344.863368 258.624063 
L 352.622882 258.624063 
L 352.622882 254.834901 
L 344.863368 254.834901 
z
" clip-path="url(#p66275c1eac)" style="fill: #ffed00"/>
   </g>
   <g id="patch_123">
    <path d="M 352.622882 258.624063 
L 360.382396 258.624063 
L 360.382396 254.834901 
L 352.622882 254.834901 
z
" clip-path="url(#p66275c1eac)" style="fill: #ffed00"/>
   </g>
   <g id="patch_124">
    <path d="M 360.382396 258.624063 
L 368.14191 258.624063 
L 368.14191 257.108398 
L 360.382396 257.108398 
z
" clip-path="url(#p66275c1eac)" style="fill: #ffee00"/>
   </g>
   <g id="patch_125">
    <path d="M 368.14191 258.624063 
L 375.901424 258.624063 
L 375.901424 257.86623 
L 368.14191 257.86623 
z
" clip-path="url(#p66275c1eac)" style="fill: #ffee00"/>
   </g>
   <g id="patch_126">
    <path d="M 375.901424 258.624063 
L 383.660937 258.624063 
L 383.660937 254.834901 
L 375.901424 254.834901 
z
" clip-path="url(#p66275c1eac)" style="fill: #fff000"/>
   </g>
   <g id="patch_127">
    <path d="M 383.660937 258.624063 
L 391.420451 258.624063 
L 391.420451 254.834901 
L 383.660937 254.834901 
z
" clip-path="url(#p66275c1eac)" style="fill: #fff100"/>
   </g>
   <g id="patch_128">
    <path d="M 391.420451 258.624063 
L 399.179965 258.624063 
L 399.179965 255.592734 
L 391.420451 255.592734 
z
" clip-path="url(#p66275c1eac)" style="fill: #fff200"/>
   </g>
   <g id="patch_129">
    <path d="M 399.179965 258.624063 
L 406.939479 258.624063 
L 406.939479 256.350566 
L 399.179965 256.350566 
z
" clip-path="url(#p66275c1eac)" style="fill: #fff200"/>
   </g>
   <g id="patch_130">
    <path d="M 406.939479 258.624063 
L 414.698993 258.624063 
L 414.698993 258.624063 
L 406.939479 258.624063 
z
" clip-path="url(#p66275c1eac)" style="fill: #fff300"/>
   </g>
   <g id="patch_131">
    <path d="M 414.698993 258.624063 
L 422.458507 258.624063 
L 422.458507 256.350566 
L 414.698993 256.350566 
z
" clip-path="url(#p66275c1eac)" style="fill: #fff300"/>
   </g>
   <g id="patch_132">
    <path d="M 422.458507 258.624063 
L 430.218021 258.624063 
L 430.218021 258.624063 
L 422.458507 258.624063 
z
" clip-path="url(#p66275c1eac)" style="fill: #fff400"/>
   </g>
   <g id="patch_133">
    <path d="M 430.218021 258.624063 
L 437.977535 258.624063 
L 437.977535 257.108398 
L 430.218021 257.108398 
z
" clip-path="url(#p66275c1eac)" style="fill: #fff500"/>
   </g>
   <g id="patch_134">
    <path d="M 437.977535 258.624063 
L 445.737049 258.624063 
L 445.737049 255.592734 
L 437.977535 255.592734 
z
" clip-path="url(#p66275c1eac)" style="fill: #fff500"/>
   </g>
   <g id="patch_135">
    <path d="M 445.737049 258.624063 
L 453.496562 258.624063 
L 453.496562 257.86623 
L 445.737049 257.86623 
z
" clip-path="url(#p66275c1eac)" style="fill: #fff500"/>
   </g>
   <g id="patch_136">
    <path d="M 453.496562 258.624063 
L 461.256076 258.624063 
L 461.256076 257.86623 
L 453.496562 257.86623 
z
" clip-path="url(#p66275c1eac)" style="fill: #fff500"/>
   </g>
   <g id="patch_137">
    <path d="M 461.256076 258.624063 
L 469.01559 258.624063 
L 469.01559 257.86623 
L 461.256076 257.86623 
z
" clip-path="url(#p66275c1eac)" style="fill: #fff600"/>
   </g>
   <g id="patch_138">
    <path d="M 469.01559 258.624063 
L 476.775104 258.624063 
L 476.775104 257.86623 
L 469.01559 257.86623 
z
" clip-path="url(#p66275c1eac)" style="fill: #fff600"/>
   </g>
   <g id="patch_139">
    <path d="M 476.775104 258.624063 
L 484.534618 258.624063 
L 484.534618 256.350566 
L 476.775104 256.350566 
z
" clip-path="url(#p66275c1eac)" style="fill: #fff700"/>
   </g>
   <g id="patch_140">
    <path d="M 484.534618 258.624063 
L 492.294132 258.624063 
L 492.294132 254.834901 
L 484.534618 254.834901 
z
" clip-path="url(#p66275c1eac)" style="fill: #fff800"/>
   </g>
   <g id="patch_141">
    <path d="M 492.294132 258.624063 
L 500.053646 258.624063 
L 500.053646 258.624063 
L 492.294132 258.624063 
z
" clip-path="url(#p66275c1eac)" style="fill: #fff800"/>
   </g>
   <g id="patch_142">
    <path d="M 500.053646 258.624063 
L 507.81316 258.624063 
L 507.81316 258.624063 
L 500.053646 258.624063 
z
" clip-path="url(#p66275c1eac)" style="fill: #fff800"/>
   </g>
   <g id="patch_143">
    <path d="M 507.81316 258.624063 
L 515.572674 258.624063 
L 515.572674 257.86623 
L 507.81316 257.86623 
z
" clip-path="url(#p66275c1eac)" style="fill: #fff900"/>
   </g>
   <g id="patch_144">
    <path d="M 515.572674 258.624063 
L 523.332187 258.624063 
L 523.332187 257.108398 
L 515.572674 257.108398 
z
" clip-path="url(#p66275c1eac)" style="fill: #fff900"/>
   </g>
   <g id="patch_145">
    <path d="M 523.332187 258.624063 
L 531.091701 258.624063 
L 531.091701 258.624063 
L 523.332187 258.624063 
z
" clip-path="url(#p66275c1eac)" style="fill: #fff900"/>
   </g>
   <g id="patch_146">
    <path d="M 531.091701 258.624063 
L 538.851215 258.624063 
L 538.851215 257.108398 
L 531.091701 257.108398 
z
" clip-path="url(#p66275c1eac)" style="fill: #fff900"/>
   </g>
   <g id="patch_147">
    <path d="M 538.851215 258.624063 
L 546.610729 258.624063 
L 546.610729 257.86623 
L 538.851215 257.86623 
z
" clip-path="url(#p66275c1eac)" style="fill: #fffa00"/>
   </g>
   <g id="patch_148">
    <path d="M 546.610729 258.624063 
L 554.370243 258.624063 
L 554.370243 258.624063 
L 546.610729 258.624063 
z
" clip-path="url(#p66275c1eac)" style="fill: #fffa00"/>
   </g>
   <g id="patch_149">
    <path d="M 554.370243 258.624063 
L 562.129757 258.624063 
L 562.129757 258.624063 
L 554.370243 258.624063 
z
" clip-path="url(#p66275c1eac)" style="fill: #fffa00"/>
   </g>
   <g id="patch_150">
    <path d="M 562.129757 258.624063 
L 569.889271 258.624063 
L 569.889271 258.624063 
L 562.129757 258.624063 
z
" clip-path="url(#p66275c1eac)" style="fill: #fffa00"/>
   </g>
   <g id="matplotlib.axis_3">
    <g id="xtick_7">
     <g id="line2d_12">
      <g>
       <use xlink:href="#mb317d448de" x="73.280382" y="258.624063" style="stroke: #000000; stroke-width: 0.8"/>
      </g>
     </g>
     <g id="text_15">
      <text style="font: 10px 'Arial', sans-serif; text-anchor: middle" x="73.280382" y="272.781875" transform="rotate(-0 73.280382 272.781875)">0.5</text>
     </g>
    </g>
    <g id="xtick_8">
     <g id="line2d_13">
      <g>
       <use xlink:href="#mb317d448de" x="170.274306" y="258.624063" style="stroke: #000000; stroke-width: 0.8"/>
      </g>
     </g>
     <g id="text_16">
      <text style="font: 10px 'Arial', sans-serif; text-anchor: middle" x="170.274306" y="272.781875" transform="rotate(-0 170.274306 272.781875)">1.0</text>
     </g>
    </g>
    <g id="xtick_9">
     <g id="line2d_14">
      <g>
       <use xlink:href="#mb317d448de" x="267.268229" y="258.624063" style="stroke: #000000; stroke-width: 0.8"/>
      </g>
     </g>
     <g id="text_17">
      <text style="font: 10px 'Arial', sans-serif; text-anchor: middle" x="267.268229" y="272.781875" transform="rotate(-0 267.268229 272.781875)">1.5</text>
     </g>
    </g>
    <g id="xtick_10">
     <g id="line2d_15">
      <g>
       <use xlink:href="#mb317d448de" x="364.262153" y="258.624063" style="stroke: #000000; stroke-width: 0.8"/>
      </g>
     </g>
     <g id="text_18">
      <text style="font: 10px 'Arial', sans-serif; text-anchor: middle" x="364.262153" y="272.781875" transform="rotate(-0 364.262153 272.781875)">2.0</text>
     </g>
    </g>
    <g id="xtick_11">
     <g id="line2d_16">
      <g>
       <use xlink:href="#mb317d448de" x="461.256076" y="258.624063" style="stroke: #000000; stroke-width: 0.8"/>
      </g>
     </g>
     <g id="text_19">
      <text style="font: 10px 'Arial', sans-serif; text-anchor: middle" x="461.256076" y="272.781875" transform="rotate(-0 461.256076 272.781875)">2.5</text>
     </g>
    </g>
    <g id="xtick_12">
     <g id="line2d_17">
      <g>
       <use xlink:href="#mb317d448de" x="558.25" y="258.624063" style="stroke: #000000; stroke-width: 0.8"/>
      </g>
     </g>
     <g id="text_20">
      <text style="font: 10px 'Arial', sans-serif; text-anchor: middle" x="558.25" y="272.781875" transform="rotate(-0 558.25 272.781875)">3.0</text>
     </g>
    </g>
    <g id="text_21">
     <text style="font: 10px 'Arial', sans-serif; text-anchor: middle" x="296.366406" y="286.049062" transform="rotate(-0 296.366406 286.049062)">Stimulus Time (s)</text>
    </g>
   </g>
   <g id="matplotlib.axis_4">
    <g id="ytick_4">
     <g id="line2d_18">
      <g>
       <use xlink:href="#mdaa68b5405" x="34.482813" y="258.624063" style="stroke: #000000; stroke-width: 0.8"/>
      </g>
     </g>
     <g id="text_22">
      <text style="font: 10px 'Arial', sans-serif; text-anchor: end" x="27.482813" y="262.202969" transform="rotate(-0 27.482813 262.202969)">0</text>
     </g>
    </g>
    <g id="ytick_5">
     <g id="line2d_19">
      <g>
       <use xlink:href="#mdaa68b5405" x="34.482813" y="220.73245" style="stroke: #000000; stroke-width: 0.8"/>
      </g>
     </g>
     <g id="text_23">
      <text style="font: 10px 'Arial', sans-serif; text-anchor: end" x="27.482813" y="224.311357" transform="rotate(-0 27.482813 224.311357)">50</text>
     </g>
    </g>
    <g id="ytick_6">
     <g id="line2d_20">
      <g>
       <use xlink:href="#mdaa68b5405" x="34.482813" y="182.840838" style="stroke: #000000; stroke-width: 0.8"/>
      </g>
     </g>
     <g id="text_24">
      <text style="font: 10px 'Arial', sans-serif; text-anchor: end" x="27.482813" y="186.419745" transform="rotate(-0 27.482813 186.419745)">100</text>
     </g>
    </g>
   </g>
   <g id="patch_151">
    <path d="M 34.482813 258.624063 
L 558.25 258.624063 
" style="fill: none; stroke: #000000; stroke-width: 0.8; stroke-linejoin: miter; stroke-linecap: square"/>
   </g>
   <g id="text_25">
    <text style="fill: #ff0000; font: 13px 'Arial', sans-serif; text-anchor: middle" x="74.007836" y="196.239313" transform="rotate(-0 74.007836 196.239313)">Fast</text>
   </g>
   <g id="patch_152">
    <path d="M 57.730427 200.138359 
Q 74.010152 200.138359 91.407911 200.138359 
" style="fill: none; stroke: #ff0000; stroke-linecap: round"/>
    <path d="M 61.730427 202.138359 
L 57.730427 200.138359 
L 61.730427 198.138359 
" style="fill: none; stroke: #ff0000; stroke-linecap: round"/>
   </g>
   <g id="text_26">
    <text style="fill: #ffa500; font: 13px 'Arial', sans-serif; text-anchor: middle" x="158.780526" y="196.239313" transform="rotate(-0 158.780526 196.239313)">Typical</text>
   </g>
   <g id="text_27">
    <g id="patch_153">
     <path d="M 343.621561 202.853063 
L 379.859061 202.853063 
L 379.859061 182.904156 
L 343.621561 182.904156 
z
" style="fill: #808080; opacity: 0.6"/>
    </g>
    <text style="fill: #ffff00; font: 13px 'Arial', sans-serif; text-anchor: middle" x="361.740311" y="196.239313" transform="rotate(-0 361.740311 196.239313)">Slow</text>
   </g>
   <g id="patch_154">
    <path d="M 344.344867 200.138359 
Q 361.742626 200.138359 378.022352 200.138359 
" style="fill: none; stroke: #ffff00; stroke-linecap: round"/>
    <path d="M 374.022352 198.138359 
L 378.022352 200.138359 
L 374.022352 202.138359 
" style="fill: none; stroke: #ffff00; stroke-linecap: round"/>
   </g>
   <g id="text_28">
    <text style="font: 12px 'Arial', sans-serif; text-anchor: middle" x="479.684922" y="174.643125" transform="rotate(-0 479.684922 174.643125)">Med (15 sessions / 957 trials)</text>
   </g>
   <g id="line2d_21">
    <path d="M 113.53286 258.624063 
L 113.53286 180.643125 
" clip-path="url(#p66275c1eac)" style="fill: none; stroke-dasharray: 5.55,2.4; stroke-dashoffset: 0; stroke: #808080; stroke-opacity: 0.5; stroke-width: 1.5"/>
   </g>
   <g id="line2d_22">
    <path d="M 165.230622 258.624063 
L 165.230622 180.643125 
" clip-path="url(#p66275c1eac)" style="fill: none; stroke-dasharray: 5.55,2.4; stroke-dashoffset: 0; stroke: #808080; stroke-opacity: 0.5; stroke-width: 1.5"/>
   </g>
   <g id="patch_155">
    <path d="M 34.482813 258.624063 
L 34.482813 180.643125 
L 113.53286 180.643125 
L 113.53286 258.624063 
z
" clip-path="url(#p66275c1eac)" style="fill: #ff0000; opacity: 0.1; stroke: #ff0000; stroke-linejoin: miter"/>
   </g>
   <g id="patch_156">
    <path d="M 113.53286 258.624063 
L 113.53286 180.643125 
L 165.230622 180.643125 
L 165.230622 258.624063 
z
" clip-path="url(#p66275c1eac)" style="fill: #ffa500; opacity: 0.1; stroke: #ffa500; stroke-linejoin: miter"/>
   </g>
   <g id="patch_157">
    <path d="M 165.230622 258.624063 
L 165.230622 180.643125 
L 558.25 180.643125 
L 558.25 258.624063 
z
" clip-path="url(#p66275c1eac)" style="fill: #ffff00; opacity: 0.1; stroke: #ffff00; stroke-linejoin: miter"/>
   </g>
  </g>
  <g id="axes_3">
   <g id="patch_158">
    <path d="M 34.482813 391.670313 
L 558.25 391.670313 
L 558.25 313.689375 
L 34.482813 313.689375 
z
" style="fill: #ffffff"/>
   </g>
   <g id="patch_159">
    <path d="M 26.723299 391.670313 
L 34.482813 391.670313 
L 34.482813 391.670313 
L 26.723299 391.670313 
z
" clip-path="url(#pe7e6adc76e)" style="fill: #ff0000"/>
   </g>
   <g id="patch_160">
    <path d="M 34.482813 391.670313 
L 42.242326 391.670313 
L 42.242326 386.784289 
L 34.482813 386.784289 
z
" clip-path="url(#pe7e6adc76e)" style="fill: #ff0200"/>
   </g>
   <g id="patch_161">
    <path d="M 42.242326 391.670313 
L 50.00184 391.670313 
L 50.00184 382.87547 
L 42.242326 382.87547 
z
" clip-path="url(#pe7e6adc76e)" style="fill: #ff0400"/>
   </g>
   <g id="patch_162">
    <path d="M 50.00184 391.670313 
L 57.761354 391.670313 
L 57.761354 386.784289 
L 50.00184 386.784289 
z
" clip-path="url(#pe7e6adc76e)" style="fill: #ff0600"/>
   </g>
   <g id="patch_163">
    <path d="M 57.761354 391.670313 
L 65.520868 391.670313 
L 65.520868 389.715903 
L 57.761354 389.715903 
z
" clip-path="url(#pe7e6adc76e)" style="fill: #ff0600"/>
   </g>
   <g id="patch_164">
    <path d="M 65.520868 391.670313 
L 73.280382 391.670313 
L 73.280382 389.715903 
L 65.520868 389.715903 
z
" clip-path="url(#pe7e6adc76e)" style="fill: #ff0700"/>
   </g>
   <g id="patch_165">
    <path d="M 73.280382 391.670313 
L 81.039896 391.670313 
L 81.039896 388.738698 
L 73.280382 388.738698 
z
" clip-path="url(#pe7e6adc76e)" style="fill: #ff0900"/>
   </g>
   <g id="patch_166">
    <path d="M 81.039896 391.670313 
L 88.79941 391.670313 
L 88.79941 383.852675 
L 81.039896 383.852675 
z
" clip-path="url(#pe7e6adc76e)" style="fill: #ff0c00"/>
   </g>
   <g id="patch_167">
    <path d="M 88.79941 391.670313 
L 96.558924 391.670313 
L 96.558924 376.035037 
L 88.79941 376.035037 
z
" clip-path="url(#pe7e6adc76e)" style="fill: #ff1500"/>
   </g>
   <g id="patch_168">
    <path d="M 96.558924 391.670313 
L 104.318437 391.670313 
L 104.318437 341.832871 
L 96.558924 341.832871 
z
" clip-path="url(#pe7e6adc76e)" style="fill: #ff2800"/>
   </g>
   <g id="patch_169">
    <path d="M 104.318437 391.670313 
L 112.077951 391.670313 
L 112.077951 322.288777 
L 104.318437 322.288777 
z
" clip-path="url(#pe7e6adc76e)" style="fill: #ff4000"/>
   </g>
   <g id="patch_170">
    <path d="M 112.077951 391.670313 
L 119.837465 391.670313 
L 119.837465 318.379958 
L 112.077951 318.379958 
z
" clip-path="url(#pe7e6adc76e)" style="fill: #ff5800"/>
   </g>
   <g id="patch_171">
    <path d="M 119.837465 391.670313 
L 127.596979 391.670313 
L 127.596979 317.402753 
L 119.837465 317.402753 
z
" clip-path="url(#pe7e6adc76e)" style="fill: #ff6d00"/>
   </g>
   <g id="patch_172">
    <path d="M 127.596979 391.670313 
L 135.356493 391.670313 
L 135.356493 328.152005 
L 127.596979 328.152005 
z
" clip-path="url(#pe7e6adc76e)" style="fill: #ff7c00"/>
   </g>
   <g id="patch_173">
    <path d="M 135.356493 391.670313 
L 143.116007 391.670313 
L 143.116007 343.787281 
L 135.356493 343.787281 
z
" clip-path="url(#pe7e6adc76e)" style="fill: #ff8a00"/>
   </g>
   <g id="patch_174">
    <path d="M 143.116007 391.670313 
L 150.875521 391.670313 
L 150.875521 357.468147 
L 143.116007 357.468147 
z
" clip-path="url(#pe7e6adc76e)" style="fill: #ff9500"/>
   </g>
   <g id="patch_175">
    <path d="M 150.875521 391.670313 
L 158.635035 391.670313 
L 158.635035 355.513737 
L 150.875521 355.513737 
z
" clip-path="url(#pe7e6adc76e)" style="fill: #ff9c00"/>
   </g>
   <g id="patch_176">
    <path d="M 158.635035 391.670313 
L 166.394549 391.670313 
L 166.394549 371.149013 
L 158.635035 371.149013 
z
" clip-path="url(#pe7e6adc76e)" style="fill: #ffa400"/>
   </g>
   <g id="patch_177">
    <path d="M 166.394549 391.670313 
L 174.154062 391.670313 
L 174.154062 370.171808 
L 166.394549 370.171808 
z
" clip-path="url(#pe7e6adc76e)" style="fill: #ffab00"/>
   </g>
   <g id="patch_178">
    <path d="M 174.154062 391.670313 
L 181.913576 391.670313 
L 181.913576 365.285785 
L 174.154062 365.285785 
z
" clip-path="url(#pe7e6adc76e)" style="fill: #ffb100"/>
   </g>
   <g id="patch_179">
    <path d="M 181.913576 391.670313 
L 189.67309 391.670313 
L 189.67309 376.035037 
L 181.913576 376.035037 
z
" clip-path="url(#pe7e6adc76e)" style="fill: #ffb800"/>
   </g>
   <g id="patch_180">
    <path d="M 189.67309 391.670313 
L 197.432604 391.670313 
L 197.432604 366.26299 
L 189.67309 366.26299 
z
" clip-path="url(#pe7e6adc76e)" style="fill: #ffbd00"/>
   </g>
   <g id="patch_181">
    <path d="M 197.432604 391.670313 
L 205.192118 391.670313 
L 205.192118 377.012242 
L 197.432604 377.012242 
z
" clip-path="url(#pe7e6adc76e)" style="fill: #ffc300"/>
   </g>
   <g id="patch_182">
    <path d="M 205.192118 391.670313 
L 212.951632 391.670313 
L 212.951632 374.080627 
L 205.192118 374.080627 
z
" clip-path="url(#pe7e6adc76e)" style="fill: #ffc600"/>
   </g>
   <g id="patch_183">
    <path d="M 212.951632 391.670313 
L 220.711146 391.670313 
L 220.711146 378.966651 
L 212.951632 378.966651 
z
" clip-path="url(#pe7e6adc76e)" style="fill: #ffcb00"/>
   </g>
   <g id="patch_184">
    <path d="M 220.711146 391.670313 
L 228.47066 391.670313 
L 228.47066 381.898265 
L 220.711146 381.898265 
z
" clip-path="url(#pe7e6adc76e)" style="fill: #ffcf00"/>
   </g>
   <g id="patch_185">
    <path d="M 228.47066 391.670313 
L 236.230174 391.670313 
L 236.230174 380.92106 
L 228.47066 380.92106 
z
" clip-path="url(#pe7e6adc76e)" style="fill: #ffd100"/>
   </g>
   <g id="patch_186">
    <path d="M 236.230174 391.670313 
L 243.989687 391.670313 
L 243.989687 381.898265 
L 236.230174 381.898265 
z
" clip-path="url(#pe7e6adc76e)" style="fill: #ffd300"/>
   </g>
   <g id="patch_187">
    <path d="M 243.989687 391.670313 
L 251.749201 391.670313 
L 251.749201 381.898265 
L 243.989687 381.898265 
z
" clip-path="url(#pe7e6adc76e)" style="fill: #ffd600"/>
   </g>
   <g id="patch_188">
    <path d="M 251.749201 391.670313 
L 259.508715 391.670313 
L 259.508715 383.852675 
L 251.749201 383.852675 
z
" clip-path="url(#pe7e6adc76e)" style="fill: #ffda00"/>
   </g>
   <g id="patch_189">
    <path d="M 259.508715 391.670313 
L 267.268229 391.670313 
L 267.268229 383.852675 
L 259.508715 383.852675 
z
" clip-path="url(#pe7e6adc76e)" style="fill: #ffdb00"/>
   </g>
   <g id="patch_190">
    <path d="M 267.268229 391.670313 
L 275.027743 391.670313 
L 275.027743 382.87547 
L 267.268229 382.87547 
z
" clip-path="url(#pe7e6adc76e)" style="fill: #ffdd00"/>
   </g>
   <g id="patch_191">
    <path d="M 275.027743 391.670313 
L 282.787257 391.670313 
L 282.787257 386.784289 
L 275.027743 386.784289 
z
" clip-path="url(#pe7e6adc76e)" style="fill: #ffde00"/>
   </g>
   <g id="patch_192">
    <path d="M 282.787257 391.670313 
L 290.546771 391.670313 
L 290.546771 389.715903 
L 282.787257 389.715903 
z
" clip-path="url(#pe7e6adc76e)" style="fill: #ffdf00"/>
   </g>
   <g id="patch_193">
    <path d="M 290.546771 391.670313 
L 298.306285 391.670313 
L 298.306285 387.761494 
L 290.546771 387.761494 
z
" clip-path="url(#pe7e6adc76e)" style="fill: #ffe200"/>
   </g>
   <g id="patch_194">
    <path d="M 298.306285 391.670313 
L 306.065799 391.670313 
L 306.065799 382.87547 
L 298.306285 382.87547 
z
" clip-path="url(#pe7e6adc76e)" style="fill: #ffe300"/>
   </g>
   <g id="patch_195">
    <path d="M 306.065799 391.670313 
L 313.825312 391.670313 
L 313.825312 388.738698 
L 306.065799 388.738698 
z
" clip-path="url(#pe7e6adc76e)" style="fill: #ffe400"/>
   </g>
   <g id="patch_196">
    <path d="M 313.825312 391.670313 
L 321.584826 391.670313 
L 321.584826 388.738698 
L 313.825312 388.738698 
z
" clip-path="url(#pe7e6adc76e)" style="fill: #ffe500"/>
   </g>
   <g id="patch_197">
    <path d="M 321.584826 391.670313 
L 329.34434 391.670313 
L 329.34434 390.693108 
L 321.584826 390.693108 
z
" clip-path="url(#pe7e6adc76e)" style="fill: #ffe600"/>
   </g>
   <g id="patch_198">
    <path d="M 329.34434 391.670313 
L 337.103854 391.670313 
L 337.103854 385.807084 
L 329.34434 385.807084 
z
" clip-path="url(#pe7e6adc76e)" style="fill: #ffe700"/>
   </g>
   <g id="patch_199">
    <path d="M 337.103854 391.670313 
L 344.863368 391.670313 
L 344.863368 389.715903 
L 337.103854 389.715903 
z
" clip-path="url(#pe7e6adc76e)" style="fill: #ffe800"/>
   </g>
   <g id="patch_200">
    <path d="M 344.863368 391.670313 
L 352.622882 391.670313 
L 352.622882 387.761494 
L 344.863368 387.761494 
z
" clip-path="url(#pe7e6adc76e)" style="fill: #ffe900"/>
   </g>
   <g id="patch_201">
    <path d="M 352.622882 391.670313 
L 360.382396 391.670313 
L 360.382396 387.761494 
L 352.622882 387.761494 
z
" clip-path="url(#pe7e6adc76e)" style="fill: #ffea00"/>
   </g>
   <g id="patch_202">
    <path d="M 360.382396 391.670313 
L 368.14191 391.670313 
L 368.14191 390.693108 
L 360.382396 390.693108 
z
" clip-path="url(#pe7e6adc76e)" style="fill: #ffea00"/>
   </g>
   <g id="patch_203">
    <path d="M 368.14191 391.670313 
L 375.901424 391.670313 
L 375.901424 389.715903 
L 368.14191 389.715903 
z
" clip-path="url(#pe7e6adc76e)" style="fill: #ffeb00"/>
   </g>
   <g id="patch_204">
    <path d="M 375.901424 391.670313 
L 383.660937 391.670313 
L 383.660937 390.693108 
L 375.901424 390.693108 
z
" clip-path="url(#pe7e6adc76e)" style="fill: #ffeb00"/>
   </g>
   <g id="patch_205">
    <path d="M 383.660937 391.670313 
L 391.420451 391.670313 
L 391.420451 390.693108 
L 383.660937 390.693108 
z
" clip-path="url(#pe7e6adc76e)" style="fill: #ffec00"/>
   </g>
   <g id="patch_206">
    <path d="M 391.420451 391.670313 
L 399.179965 391.670313 
L 399.179965 389.715903 
L 391.420451 389.715903 
z
" clip-path="url(#pe7e6adc76e)" style="fill: #ffec00"/>
   </g>
   <g id="patch_207">
    <path d="M 399.179965 391.670313 
L 406.939479 391.670313 
L 406.939479 390.693108 
L 399.179965 390.693108 
z
" clip-path="url(#pe7e6adc76e)" style="fill: #ffed00"/>
   </g>
   <g id="patch_208">
    <path d="M 406.939479 391.670313 
L 414.698993 391.670313 
L 414.698993 389.715903 
L 406.939479 389.715903 
z
" clip-path="url(#pe7e6adc76e)" style="fill: #ffed00"/>
   </g>
   <g id="patch_209">
    <path d="M 414.698993 391.670313 
L 422.458507 391.670313 
L 422.458507 388.738698 
L 414.698993 388.738698 
z
" clip-path="url(#pe7e6adc76e)" style="fill: #ffee00"/>
   </g>
   <g id="patch_210">
    <path d="M 422.458507 391.670313 
L 430.218021 391.670313 
L 430.218021 391.670313 
L 422.458507 391.670313 
z
" clip-path="url(#pe7e6adc76e)" style="fill: #ffee00"/>
   </g>
   <g id="patch_211">
    <path d="M 430.218021 391.670313 
L 437.977535 391.670313 
L 437.977535 388.738698 
L 430.218021 388.738698 
z
" clip-path="url(#pe7e6adc76e)" style="fill: #fff000"/>
   </g>
   <g id="patch_212">
    <path d="M 437.977535 391.670313 
L 445.737049 391.670313 
L 445.737049 386.784289 
L 437.977535 386.784289 
z
" clip-path="url(#pe7e6adc76e)" style="fill: #fff000"/>
   </g>
   <g id="patch_213">
    <path d="M 445.737049 391.670313 
L 453.496562 391.670313 
L 453.496562 388.738698 
L 445.737049 388.738698 
z
" clip-path="url(#pe7e6adc76e)" style="fill: #fff100"/>
   </g>
   <g id="patch_214">
    <path d="M 453.496562 391.670313 
L 461.256076 391.670313 
L 461.256076 388.738698 
L 453.496562 388.738698 
z
" clip-path="url(#pe7e6adc76e)" style="fill: #fff200"/>
   </g>
   <g id="patch_215">
    <path d="M 461.256076 391.670313 
L 469.01559 391.670313 
L 469.01559 390.693108 
L 461.256076 390.693108 
z
" clip-path="url(#pe7e6adc76e)" style="fill: #fff200"/>
   </g>
   <g id="patch_216">
    <path d="M 469.01559 391.670313 
L 476.775104 391.670313 
L 476.775104 391.670313 
L 469.01559 391.670313 
z
" clip-path="url(#pe7e6adc76e)" style="fill: #fff300"/>
   </g>
   <g id="patch_217">
    <path d="M 476.775104 391.670313 
L 484.534618 391.670313 
L 484.534618 390.693108 
L 476.775104 390.693108 
z
" clip-path="url(#pe7e6adc76e)" style="fill: #fff300"/>
   </g>
   <g id="patch_218">
    <path d="M 484.534618 391.670313 
L 492.294132 391.670313 
L 492.294132 390.693108 
L 484.534618 390.693108 
z
" clip-path="url(#pe7e6adc76e)" style="fill: #fff300"/>
   </g>
   <g id="patch_219">
    <path d="M 492.294132 391.670313 
L 500.053646 391.670313 
L 500.053646 388.738698 
L 492.294132 388.738698 
z
" clip-path="url(#pe7e6adc76e)" style="fill: #fff400"/>
   </g>
   <g id="patch_220">
    <path d="M 500.053646 391.670313 
L 507.81316 391.670313 
L 507.81316 389.715903 
L 500.053646 389.715903 
z
" clip-path="url(#pe7e6adc76e)" style="fill: #fff500"/>
   </g>
   <g id="patch_221">
    <path d="M 507.81316 391.670313 
L 515.572674 391.670313 
L 515.572674 389.715903 
L 507.81316 389.715903 
z
" clip-path="url(#pe7e6adc76e)" style="fill: #fff500"/>
   </g>
   <g id="patch_222">
    <path d="M 515.572674 391.670313 
L 523.332187 391.670313 
L 523.332187 390.693108 
L 515.572674 390.693108 
z
" clip-path="url(#pe7e6adc76e)" style="fill: #fff500"/>
   </g>
   <g id="patch_223">
    <path d="M 523.332187 391.670313 
L 531.091701 391.670313 
L 531.091701 390.693108 
L 523.332187 390.693108 
z
" clip-path="url(#pe7e6adc76e)" style="fill: #fff600"/>
   </g>
   <g id="patch_224">
    <path d="M 531.091701 391.670313 
L 538.851215 391.670313 
L 538.851215 389.715903 
L 531.091701 389.715903 
z
" clip-path="url(#pe7e6adc76e)" style="fill: #fff600"/>
   </g>
   <g id="patch_225">
    <path d="M 538.851215 391.670313 
L 546.610729 391.670313 
L 546.610729 391.670313 
L 538.851215 391.670313 
z
" clip-path="url(#pe7e6adc76e)" style="fill: #fff700"/>
   </g>
   <g id="patch_226">
    <path d="M 546.610729 391.670313 
L 554.370243 391.670313 
L 554.370243 388.738698 
L 546.610729 388.738698 
z
" clip-path="url(#pe7e6adc76e)" style="fill: #fff700"/>
   </g>
   <g id="patch_227">
    <path d="M 554.370243 391.670313 
L 562.129757 391.670313 
L 562.129757 390.693108 
L 554.370243 390.693108 
z
" clip-path="url(#pe7e6adc76e)" style="fill: #fff800"/>
   </g>
   <g id="patch_228">
    <path d="M 562.129757 391.670313 
L 569.889271 391.670313 
L 569.889271 389.715903 
L 562.129757 389.715903 
z
" clip-path="url(#pe7e6adc76e)" style="fill: #fff800"/>
   </g>
   <g id="matplotlib.axis_5">
    <g id="xtick_13">
     <g id="line2d_23">
      <g>
       <use xlink:href="#mb317d448de" x="73.280382" y="391.670313" style="stroke: #000000; stroke-width: 0.8"/>
      </g>
     </g>
     <g id="text_29">
      <text style="font: 10px 'Arial', sans-serif; text-anchor: middle" x="73.280382" y="405.828125" transform="rotate(-0 73.280382 405.828125)">0.5</text>
     </g>
    </g>
    <g id="xtick_14">
     <g id="line2d_24">
      <g>
       <use xlink:href="#mb317d448de" x="170.274306" y="391.670313" style="stroke: #000000; stroke-width: 0.8"/>
      </g>
     </g>
     <g id="text_30">
      <text style="font: 10px 'Arial', sans-serif; text-anchor: middle" x="170.274306" y="405.828125" transform="rotate(-0 170.274306 405.828125)">1.0</text>
     </g>
    </g>
    <g id="xtick_15">
     <g id="line2d_25">
      <g>
       <use xlink:href="#mb317d448de" x="267.268229" y="391.670313" style="stroke: #000000; stroke-width: 0.8"/>
      </g>
     </g>
     <g id="text_31">
      <text style="font: 10px 'Arial', sans-serif; text-anchor: middle" x="267.268229" y="405.828125" transform="rotate(-0 267.268229 405.828125)">1.5</text>
     </g>
    </g>
    <g id="xtick_16">
     <g id="line2d_26">
      <g>
       <use xlink:href="#mb317d448de" x="364.262153" y="391.670313" style="stroke: #000000; stroke-width: 0.8"/>
      </g>
     </g>
     <g id="text_32">
      <text style="font: 10px 'Arial', sans-serif; text-anchor: middle" x="364.262153" y="405.828125" transform="rotate(-0 364.262153 405.828125)">2.0</text>
     </g>
    </g>
    <g id="xtick_17">
     <g id="line2d_27">
      <g>
       <use xlink:href="#mb317d448de" x="461.256076" y="391.670313" style="stroke: #000000; stroke-width: 0.8"/>
      </g>
     </g>
     <g id="text_33">
      <text style="font: 10px 'Arial', sans-serif; text-anchor: middle" x="461.256076" y="405.828125" transform="rotate(-0 461.256076 405.828125)">2.5</text>
     </g>
    </g>
    <g id="xtick_18">
     <g id="line2d_28">
      <g>
       <use xlink:href="#mb317d448de" x="558.25" y="391.670313" style="stroke: #000000; stroke-width: 0.8"/>
      </g>
     </g>
     <g id="text_34">
      <text style="font: 10px 'Arial', sans-serif; text-anchor: middle" x="558.25" y="405.828125" transform="rotate(-0 558.25 405.828125)">3.0</text>
     </g>
    </g>
    <g id="text_35">
     <text style="font: 10px 'Arial', sans-serif; text-anchor: middle" x="296.366406" y="419.095313" transform="rotate(-0 296.366406 419.095313)">Stimulus Time (s)</text>
    </g>
   </g>
   <g id="matplotlib.axis_6">
    <g id="ytick_7">
     <g id="line2d_29">
      <g>
       <use xlink:href="#mdaa68b5405" x="34.482813" y="391.670313" style="stroke: #000000; stroke-width: 0.8"/>
      </g>
     </g>
     <g id="text_36">
      <text style="font: 10px 'Arial', sans-serif; text-anchor: end" x="27.482813" y="395.249219" transform="rotate(-0 27.482813 395.249219)">0</text>
     </g>
    </g>
    <g id="ytick_8">
     <g id="line2d_30">
      <g>
       <use xlink:href="#mdaa68b5405" x="34.482813" y="342.810076" style="stroke: #000000; stroke-width: 0.8"/>
      </g>
     </g>
     <g id="text_37">
      <text style="font: 10px 'Arial', sans-serif; text-anchor: end" x="27.482813" y="346.388982" transform="rotate(-0 27.482813 346.388982)">50</text>
     </g>
    </g>
   </g>
   <g id="patch_229">
    <path d="M 34.482813 391.670313 
L 558.25 391.670313 
" style="fill: none; stroke: #000000; stroke-width: 0.8; stroke-linejoin: miter; stroke-linecap: square"/>
   </g>
   <g id="text_38">
    <text style="fill: #ff0000; font: 13px 'Arial', sans-serif; text-anchor: middle" x="74.657696" y="329.285563" transform="rotate(-0 74.657696 329.285563)">Fast</text>
   </g>
   <g id="patch_230">
    <path d="M 58.380286 333.184609 
Q 74.660011 333.184609 92.05777 333.184609 
" style="fill: none; stroke: #ff0000; stroke-linecap: round"/>
    <path d="M 62.380286 335.184609 
L 58.380286 333.184609 
L 62.380286 331.184609 
" style="fill: none; stroke: #ff0000; stroke-linecap: round"/>
   </g>
   <g id="text_39">
    <text style="fill: #ffa500; font: 13px 'Arial', sans-serif; text-anchor: middle" x="161.176276" y="329.285563" transform="rotate(-0 161.176276 329.285563)">Typical</text>
   </g>
   <g id="text_40">
    <g id="patch_231">
     <path d="M 345.367451 335.899313 
L 381.604951 335.899313 
L 381.604951 315.950406 
L 345.367451 315.950406 
z
" style="fill: #808080; opacity: 0.6"/>
    </g>
    <text style="fill: #ffff00; font: 13px 'Arial', sans-serif; text-anchor: middle" x="363.486201" y="329.285563" transform="rotate(-0 363.486201 329.285563)">Slow</text>
   </g>
   <g id="patch_232">
    <path d="M 346.090758 333.184609 
Q 363.488517 333.184609 379.768242 333.184609 
" style="fill: none; stroke: #ffff00; stroke-linecap: round"/>
    <path d="M 375.768242 331.184609 
L 379.768242 333.184609 
L 375.768242 335.184609 
" style="fill: none; stroke: #ffff00; stroke-linecap: round"/>
   </g>
   <g id="text_41">
    <text style="font: 12px 'Arial', sans-serif; text-anchor: middle" x="479.684922" y="307.689375" transform="rotate(-0 479.684922 307.689375)">Hard (15 sessions / 846 trials)</text>
   </g>
   <g id="line2d_31">
    <path d="M 114.832579 391.670313 
L 114.832579 313.689375 
" clip-path="url(#pe7e6adc76e)" style="fill: none; stroke-dasharray: 5.55,2.4; stroke-dashoffset: 0; stroke: #808080; stroke-opacity: 0.5; stroke-width: 1.5"/>
   </g>
   <g id="line2d_32">
    <path d="M 168.722403 391.670313 
L 168.722403 313.689375 
" clip-path="url(#pe7e6adc76e)" style="fill: none; stroke-dasharray: 5.55,2.4; stroke-dashoffset: 0; stroke: #808080; stroke-opacity: 0.5; stroke-width: 1.5"/>
   </g>
   <g id="patch_233">
    <path d="M 34.482813 391.670313 
L 34.482813 313.689375 
L 114.832579 313.689375 
L 114.832579 391.670313 
z
" clip-path="url(#pe7e6adc76e)" style="fill: #ff0000; opacity: 0.1; stroke: #ff0000; stroke-linejoin: miter"/>
   </g>
   <g id="patch_234">
    <path d="M 114.832579 391.670313 
L 114.832579 313.689375 
L 168.722403 313.689375 
L 168.722403 391.670313 
z
" clip-path="url(#pe7e6adc76e)" style="fill: #ffa500; opacity: 0.1; stroke: #ffa500; stroke-linejoin: miter"/>
   </g>
   <g id="patch_235">
    <path d="M 168.722403 391.670313 
L 168.722403 313.689375 
L 558.25 313.689375 
L 558.25 391.670313 
z
" clip-path="url(#pe7e6adc76e)" style="fill: #ffff00; opacity: 0.1; stroke: #ffff00; stroke-linejoin: miter"/>
   </g>
  </g>
  <g id="text_42">
   <text style="font: 12px 'Arial', sans-serif; text-anchor: middle" x="288" y="17.375625" transform="rotate(-0 288 17.375625)">Stimulus Time Distribution - vgatchr2-sk</text>
  </g>
 </g>
 <defs>
  <clipPath id="p40e4c0a817">
   <rect x="34.482813" y="47.596875" width="523.767187" height="77.980937"/>
  </clipPath>
  <clipPath id="p66275c1eac">
   <rect x="34.482813" y="180.643125" width="523.767187" height="77.980937"/>
  </clipPath>
  <clipPath id="pe7e6adc76e">
   <rect x="34.482813" y="313.689375" width="523.767187" height="77.980937"/>
  </clipPath>
 </defs>
</svg>
