<?xml version="1.0" encoding="utf-8" standalone="no"?>
<!DOCTYPE svg PUBLIC "-//W3C//DTD SVG 1.1//EN"
  "http://www.w3.org/Graphics/SVG/1.1/DTD/svg11.dtd">
<svg xmlns:xlink="http://www.w3.org/1999/xlink" width="720pt" height="432pt" viewBox="0 0 720 432" xmlns="http://www.w3.org/2000/svg" version="1.1">
 <metadata>
  <rdf:RDF xmlns:dc="http://purl.org/dc/elements/1.1/" xmlns:cc="http://creativecommons.org/ns#" xmlns:rdf="http://www.w3.org/1999/02/22-rdf-syntax-ns#">
   <cc:Work>
    <dc:type rdf:resource="http://purl.org/dc/dcmitype/StillImage"/>
    <dc:date>2025-12-16T11:32:34.309068</dc:date>
    <dc:format>image/svg+xml</dc:format>
    <dc:creator>
     <cc:Agent>
      <dc:title>Matplotlib v3.8.0, https://matplotlib.org/</dc:title>
     </cc:Agent>
    </dc:creator>
   </cc:Work>
  </rdf:RDF>
 </metadata>
 <defs>
  <style type="text/css">*{stroke-linejoin: round; stroke-linecap: butt}</style>
 </defs>
 <g id="figure_1">
  <g id="patch_1">
   <path d="M 0 432 
L 720 432 
L 720 0 
L 0 0 
z
" style="fill: #ffffff"/>
  </g>
  <g id="axes_1">
   <g id="patch_2">
    <path d="M 90 384.48 
L 648 384.48 
L 648 51.84 
L 90 51.84 
z
" style="fill: #ffffff"/>
   </g>
   <g id="line2d_1">
    <path d="M 90 354.24 
L 648 354.24 
" clip-path="url(#pe59bf6d135)" style="fill: none; stroke-dasharray: 5.55,2.4; stroke-dashoffset: 0; stroke: #808080; stroke-width: 1.5"/>
   </g>
   <g id="matplotlib.axis_1">
    <g id="xtick_1">
     <g id="line2d_2">
      <defs>
       <path id="m227a73d4ac" d="M 0 0 
L 0 3.5 
" style="stroke: #000000; stroke-width: 0.8"/>
      </defs>
      <g>
       <use xlink:href="#m227a73d4ac" x="90" y="384.48" style="stroke: #000000; stroke-width: 0.8"/>
      </g>
     </g>
     <g id="text_1">
      <text style="font: 10px 'Arial', sans-serif; text-anchor: middle" x="90" y="398.637812" transform="rotate(-0 90 398.637812)">0%</text>
     </g>
    </g>
    <g id="xtick_2">
     <g id="line2d_3">
      <g>
       <use xlink:href="#m227a73d4ac" x="201.6" y="384.48" style="stroke: #000000; stroke-width: 0.8"/>
      </g>
     </g>
     <g id="text_2">
      <text style="font: 10px 'Arial', sans-serif; text-anchor: middle" x="201.6" y="398.637812" transform="rotate(-0 201.6 398.637812)">20%</text>
     </g>
    </g>
    <g id="xtick_3">
     <g id="line2d_4">
      <g>
       <use xlink:href="#m227a73d4ac" x="313.2" y="384.48" style="stroke: #000000; stroke-width: 0.8"/>
      </g>
     </g>
     <g id="text_3">
      <text style="font: 10px 'Arial', sans-serif; text-anchor: middle" x="313.2" y="398.637812" transform="rotate(-0 313.2 398.637812)">40%</text>
     </g>
    </g>
    <g id="xtick_4">
     <g id="line2d_5">
      <g>
       <use xlink:href="#m227a73d4ac" x="424.8" y="384.48" style="stroke: #000000; stroke-width: 0.8"/>
      </g>
     </g>
     <g id="text_4">
      <text style="font: 10px 'Arial', sans-serif; text-anchor: middle" x="424.8" y="398.637812" transform="rotate(-0 424.8 398.637812)">60%</text>
     </g>
    </g>
    <g id="xtick_5">
     <g id="line2d_6">
      <g>
       <use xlink:href="#m227a73d4ac" x="536.4" y="384.48" style="stroke: #000000; stroke-width: 0.8"/>
      </g>
     </g>
     <g id="text_5">
      <text style="font: 10px 'Arial', sans-serif; text-anchor: middle" x="536.4" y="398.637812" transform="rotate(-0 536.4 398.637812)">80%</text>
     </g>
    </g>
    <g id="xtick_6">
     <g id="line2d_7">
      <g>
       <use xlink:href="#m227a73d4ac" x="648" y="384.48" style="stroke: #000000; stroke-width: 0.8"/>
      </g>
     </g>
     <g id="text_6">
      <text style="font: 10px 'Arial', sans-serif; text-anchor: middle" x="648" y="398.637812" transform="rotate(-0 648 398.637812)">100%</text>
     </g>
    </g>
    <g id="text_7">
     <text style="font: 10px 'Arial', sans-serif; text-anchor: middle" x="369" y="411.783125" transform="rotate(-0 369 411.783125)">RDK Coherence</text>
    </g>
   </g>
   <g id="matplotlib.axis_2">
    <g id="ytick_1">
     <g id="line2d_8">
      <defs>
       <path id="mb33a26fa92" d="M 0 0 
L -3.5 0 
" style="stroke: #000000; stroke-width: 0.8"/>
      </defs>
      <g>
       <use xlink:href="#mb33a26fa92" x="90" y="354.24" style="stroke: #000000; stroke-width: 0.8"/>
      </g>
     </g>
     <g id="text_8">
      <text style="font: 10px 'Arial', sans-serif; text-anchor: end" x="83" y="357.818906" transform="rotate(-0 83 357.818906)">50%</text>
     </g>
    </g>
    <g id="ytick_2">
     <g id="line2d_9">
      <g>
       <use xlink:href="#mb33a26fa92" x="90" y="293.76" style="stroke: #000000; stroke-width: 0.8"/>
      </g>
     </g>
     <g id="text_9">
      <text style="font: 10px 'Arial', sans-serif; text-anchor: end" x="83" y="297.338906" transform="rotate(-0 83 297.338906)">60%</text>
     </g>
    </g>
    <g id="ytick_3">
     <g id="line2d_10">
      <g>
       <use xlink:href="#mb33a26fa92" x="90" y="233.28" style="stroke: #000000; stroke-width: 0.8"/>
      </g>
     </g>
     <g id="text_10">
      <text style="font: 10px 'Arial', sans-serif; text-anchor: end" x="83" y="236.858906" transform="rotate(-0 83 236.858906)">70%</text>
     </g>
    </g>
    <g id="ytick_4">
     <g id="line2d_11">
      <g>
       <use xlink:href="#mb33a26fa92" x="90" y="172.8" style="stroke: #000000; stroke-width: 0.8"/>
      </g>
     </g>
     <g id="text_11">
      <text style="font: 10px 'Arial', sans-serif; text-anchor: end" x="83" y="176.378906" transform="rotate(-0 83 176.378906)">80%</text>
     </g>
    </g>
    <g id="ytick_5">
     <g id="line2d_12">
      <g>
       <use xlink:href="#mb33a26fa92" x="90" y="112.32" style="stroke: #000000; stroke-width: 0.8"/>
      </g>
     </g>
     <g id="text_12">
      <text style="font: 10px 'Arial', sans-serif; text-anchor: end" x="83" y="115.898906" transform="rotate(-0 83 115.898906)">90%</text>
     </g>
    </g>
    <g id="ytick_6">
     <g id="line2d_13">
      <g>
       <use xlink:href="#mb33a26fa92" x="90" y="51.84" style="stroke: #000000; stroke-width: 0.8"/>
      </g>
     </g>
     <g id="text_13">
      <text style="font: 10px 'Arial', sans-serif; text-anchor: end" x="83" y="55.418906" transform="rotate(-0 83 55.418906)">100%</text>
     </g>
    </g>
    <g id="text_14">
     <text style="font: 10px 'Arial', sans-serif; text-anchor: middle" x="51.320312" y="218.16" transform="rotate(-90 51.320312 218.16)">Choice Correct (%)</text>
    </g>
   </g>
   <g id="line2d_14">
    <path d="M 90 343.003984 
L 101.16 286.091398 
L 112.32 233.058481 
L 123.48 186.477701 
L 134.64 147.912826 
L 145.8 117.817371 
L 156.96 95.67962 
L 168.12 80.330289 
L 179.28 70.298727 
L 190.44 64.118984 
L 201.6 60.530635 
L 212.76 58.566637 
L 223.92 57.553405 
L 235.08 57.060688 
L 246.24 56.834844 
L 257.4 56.73727 
L 268.56 56.697534 
L 279.72 56.682281 
L 290.88 56.676762 
L 302.04 56.67488 
L 313.2 56.674275 
L 324.36 56.674092 
L 335.52 56.674039 
L 346.68 56.674025 
L 357.84 56.674022 
L 369 56.674021 
L 380.16 56.67402 
L 391.32 56.67402 
L 402.48 56.67402 
L 413.64 56.67402 
L 424.8 56.67402 
L 435.96 56.67402 
L 447.12 56.67402 
L 458.28 56.67402 
L 469.44 56.67402 
L 480.6 56.67402 
L 491.76 56.67402 
L 502.92 56.67402 
L 514.08 56.67402 
L 525.24 56.67402 
L 536.4 56.67402 
L 547.56 56.67402 
L 558.72 56.67402 
L 569.88 56.67402 
L 581.04 56.67402 
L 592.2 56.67402 
L 603.36 56.67402 
L 614.52 56.67402 
L 625.68 56.67402 
L 636.84 56.67402 
" clip-path="url(#pe59bf6d135)" style="fill: none; stroke: #ff0000; stroke-width: 1.5; stroke-linecap: square"/>
   </g>
   <g id="LineCollection_1">
    <path d="M 95.58 354.79409 
L 95.58 277.5224 
" clip-path="url(#pe59bf6d135)" style="fill: none; stroke: #ff0000; stroke-width: 2"/>
    <path d="M 108.0684 265.402677 
L 108.0684 240.454534 
" clip-path="url(#pe59bf6d135)" style="fill: none; stroke: #ff0000; stroke-width: 2"/>
    <path d="M 133.494987 160.223877 
L 133.494987 134.364709 
" clip-path="url(#pe59bf6d135)" style="fill: none; stroke: #ff0000; stroke-width: 2"/>
    <path d="M 167.801294 92.480634 
L 167.801294 72.348285 
" clip-path="url(#pe59bf6d135)" style="fill: none; stroke: #ff0000; stroke-width: 2"/>
    <path d="M 268.605179 65.828348 
L 268.605179 57.039046 
" clip-path="url(#pe59bf6d135)" style="fill: none; stroke: #ff0000; stroke-width: 2"/>
    <path d="M 518.535992 51.84 
L 518.535992 51.84 
" clip-path="url(#pe59bf6d135)" style="fill: none; stroke: #ff0000; stroke-width: 2"/>
   </g>
   <g id="line2d_15">
    <path d="M 90 369.763075 
L 101.16 333.769512 
L 112.32 298.246532 
L 123.48 263.989742 
L 134.64 231.709507 
L 145.8 201.98741 
L 156.96 175.246578 
L 168.12 151.738175 
L 179.28 131.544096 
L 190.44 114.593784 
L 201.6 100.691568 
L 212.76 89.550083 
L 223.92 80.825297 
L 235.08 74.149253 
L 246.24 69.157694 
L 257.4 65.510944 
L 268.56 62.90762 
L 279.72 61.091673 
L 290.88 59.853929 
L 302.04 59.02958 
L 313.2 58.493112 
L 324.36 58.151975 
L 335.52 57.940009 
L 346.68 57.811315 
L 357.84 57.734967 
L 369 57.690709 
L 380.16 57.665639 
L 391.32 57.651764 
L 402.48 57.64426 
L 413.64 57.640294 
L 424.8 57.638247 
L 435.96 57.637214 
L 447.12 57.636704 
L 458.28 57.636459 
L 469.44 57.636343 
L 480.6 57.63629 
L 491.76 57.636266 
L 502.92 57.636256 
L 514.08 57.636251 
L 525.24 57.636249 
L 536.4 57.636249 
L 547.56 57.636248 
L 558.72 57.636248 
L 569.88 57.636248 
L 581.04 57.636248 
L 592.2 57.636248 
L 603.36 57.636248 
L 614.52 57.636248 
L 625.68 57.636248 
L 636.84 57.636248 
" clip-path="url(#pe59bf6d135)" style="fill: none; stroke: #ffff00; stroke-width: 1.5; stroke-linecap: square"/>
   </g>
   <g id="LineCollection_2">
    <path d="M 95.58 380.44089 
L 95.58 332.821348 
" clip-path="url(#pe59bf6d135)" style="fill: none; stroke: #ffff00; stroke-width: 2"/>
    <path d="M 108.154431 332.602172 
L 108.154431 316.05064 
" clip-path="url(#pe59bf6d135)" style="fill: none; stroke: #ffff00; stroke-width: 2"/>
    <path d="M 133.088863 244.518649 
L 133.088863 196.823745 
" clip-path="url(#pe59bf6d135)" style="fill: none; stroke: #ffff00; stroke-width: 2"/>
    <path d="M 169.912183 174.927784 
L 169.912183 126.38982 
" clip-path="url(#pe59bf6d135)" style="fill: none; stroke: #ffff00; stroke-width: 2"/>
    <path d="M 288.333751 68.03828 
L 288.333751 56.353647 
" clip-path="url(#pe59bf6d135)" style="fill: none; stroke: #ffff00; stroke-width: 2"/>
    <path d="M 507.081827 59.359677 
L 507.081827 52.986386 
" clip-path="url(#pe59bf6d135)" style="fill: none; stroke: #ffff00; stroke-width: 2"/>
   </g>
   <g id="line2d_16">
    <defs>
     <path id="m9711a1142a" d="M 0 4 
C 1.060812 4 2.078319 3.578535 2.828427 2.828427 
C 3.578535 2.078319 4 1.060812 4 0 
C 4 -1.060812 3.578535 -2.078319 2.828427 -2.828427 
C 2.078319 -3.578535 1.060812 -4 0 -4 
C -1.060812 -4 -2.078319 -3.578535 -2.828427 -2.828427 
C -3.578535 -2.078319 -4 -1.060812 -4 0 
C -4 1.060812 -3.578535 2.078319 -2.828427 2.828427 
C -2.078319 3.578535 -1.060812 4 0 4 
z
" style="stroke: #ff0000"/>
    </defs>
    <g clip-path="url(#pe59bf6d135)">
     <use xlink:href="#m9711a1142a" x="95.58" y="316.158245" style="fill: #ff0000; stroke: #ff0000"/>
     <use xlink:href="#m9711a1142a" x="108.0684" y="252.928605" style="fill: #ff0000; stroke: #ff0000"/>
     <use xlink:href="#m9711a1142a" x="133.494987" y="147.294293" style="fill: #ff0000; stroke: #ff0000"/>
     <use xlink:href="#m9711a1142a" x="167.801294" y="82.414459" style="fill: #ff0000; stroke: #ff0000"/>
     <use xlink:href="#m9711a1142a" x="268.605179" y="61.433697" style="fill: #ff0000; stroke: #ff0000"/>
     <use xlink:href="#m9711a1142a" x="518.535992" y="51.84" style="fill: #ff0000; stroke: #ff0000"/>
    </g>
   </g>
   <g id="line2d_17">
    <defs>
     <path id="m99409baeab" d="M 0 4 
C 1.060812 4 2.078319 3.578535 2.828427 2.828427 
C 3.578535 2.078319 4 1.060812 4 0 
C 4 -1.060812 3.578535 -2.078319 2.828427 -2.828427 
C 2.078319 -3.578535 1.060812 -4 0 -4 
C -1.060812 -4 -2.078319 -3.578535 -2.828427 -2.828427 
C -3.578535 -2.078319 -4 -1.060812 -4 0 
C -4 1.060812 -3.578535 2.078319 -2.828427 2.828427 
C -2.078319 3.578535 -1.060812 4 0 4 
z
" style="stroke: #ffff00"/>
    </defs>
    <g clip-path="url(#pe59bf6d135)">
     <use xlink:href="#m99409baeab" x="95.58" y="356.631119" style="fill: #ffff00; stroke: #ffff00"/>
     <use xlink:href="#m99409baeab" x="108.154431" y="324.326406" style="fill: #ffff00; stroke: #ffff00"/>
     <use xlink:href="#m99409baeab" x="133.088863" y="220.671197" style="fill: #ffff00; stroke: #ffff00"/>
     <use xlink:href="#m99409baeab" x="169.912183" y="150.658802" style="fill: #ffff00; stroke: #ffff00"/>
     <use xlink:href="#m99409baeab" x="288.333751" y="62.195964" style="fill: #ffff00; stroke: #ffff00"/>
     <use xlink:href="#m99409baeab" x="507.081827" y="56.173032" style="fill: #ffff00; stroke: #ffff00"/>
    </g>
   </g>
   <g id="patch_3">
    <path d="M 90 384.48 
L 90 51.84 
" style="fill: none; stroke: #000000; stroke-width: 0.8; stroke-linejoin: miter; stroke-linecap: square"/>
   </g>
   <g id="patch_4">
    <path d="M 90 384.48 
L 648 384.48 
" style="fill: none; stroke: #000000; stroke-width: 0.8; stroke-linejoin: miter; stroke-linecap: square"/>
   </g>
   <g id="text_15">
    <text style="font: 12px 'Arial', sans-serif; text-anchor: middle" x="133.494987" y="131.979709" transform="rotate(-0 133.494987 131.979709)">*</text>
   </g>
   <g id="text_16">
    <text style="font: 12px 'Arial', sans-serif; text-anchor: middle" x="167.801294" y="69.963285" transform="rotate(-0 167.801294 69.963285)">*</text>
   </g>
   <g id="text_17">
    <text style="font: 12px 'Arial', sans-serif; text-anchor: middle" x="369" y="45.84" transform="rotate(-0 369 45.84)">All Human Subjects - Humans Accuracy</text>
   </g>
   <g id="legend_1">
    <g id="patch_5">
     <path d="M 486.8879 381.01 
L 643.142 381.01 
Q 644.53 381.01 644.53 379.622 
L 644.53 345.635953 
Q 644.53 344.247952 643.142 344.247952 
L 486.8879 344.247952 
Q 485.4999 344.247952 485.4999 345.635953 
L 485.4999 379.622 
Q 485.4999 381.01 486.8879 381.01 
z
" style="fill: #ffffff; opacity: 0.8; stroke: #cccccc; stroke-linejoin: miter"/>
    </g>
    <g id="line2d_18">
     <path d="M 488.2759 354.013725 
L 495.2159 354.013725 
L 502.1559 354.013725 
" style="fill: none; stroke: #ff0000; stroke-width: 1.5; stroke-linecap: square"/>
    </g>
    <g id="text_18">
     <text style="font: 6.94px 'Arial', sans-serif" transform="translate(507.7079 351.991474)">Fast</text>
     <text style="font: 6.94px 'Arial', sans-serif" transform="translate(507.7079 359.433323)">(n=18 Subjects / 18 Sessions / 2,951 Trials)</text>
    </g>
    <g id="line2d_19">
     <path d="M 488.2759 371.353749 
L 495.2159 371.353749 
L 502.1559 371.353749 
" style="fill: none; stroke: #ffff00; stroke-width: 1.5; stroke-linecap: square"/>
    </g>
    <g id="text_19">
     <text style="font: 6.94px 'Arial', sans-serif" transform="translate(507.7079 369.331498)">Slow</text>
     <text style="font: 6.94px 'Arial', sans-serif" transform="translate(507.7079 376.773347)">(n=18 Subjects / 18 Sessions / 2,537 Trials)</text>
    </g>
   </g>
  </g>
 </g>
 <defs>
  <clipPath id="pe59bf6d135">
   <rect x="90" y="51.84" width="558" height="332.64"/>
  </clipPath>
 </defs>
</svg>
