<?xml version="1.0" encoding="utf-8" standalone="no"?>
<!DOCTYPE svg PUBLIC "-//W3C//DTD SVG 1.1//EN"
  "http://www.w3.org/Graphics/SVG/1.1/DTD/svg11.dtd">
<svg xmlns:xlink="http://www.w3.org/1999/xlink" width="420.723456pt" height="361.775625pt" viewBox="0 0 420.723456 361.775625" xmlns="http://www.w3.org/2000/svg" version="1.1">
 <metadata>
  <rdf:RDF xmlns:dc="http://purl.org/dc/elements/1.1/" xmlns:cc="http://creativecommons.org/ns#" xmlns:rdf="http://www.w3.org/1999/02/22-rdf-syntax-ns#">
   <cc:Work>
    <dc:type rdf:resource="http://purl.org/dc/dcmitype/StillImage"/>
    <dc:date>2025-12-28T00:24:38.101450</dc:date>
    <dc:format>image/svg+xml</dc:format>
    <dc:creator>
     <cc:Agent>
      <dc:title>Matplotlib v3.8.0, https://matplotlib.org/</dc:title>
     </cc:Agent>
    </dc:creator>
   </cc:Work>
  </rdf:RDF>
 </metadata>
 <defs>
  <style type="text/css">*{stroke-linejoin: round; stroke-linecap: butt}</style>
 </defs>
 <g id="figure_1">
  <g id="patch_1">
   <path d="M 0 361.775625 
L 420.723456 361.775625 
L 420.723456 0 
L 0 0 
z
" style="fill: #ffffff"/>
  </g>
  <g id="axes_1">
   <g id="patch_2">
    <path d="M 202.859739 285.93423 
C 182.722752 278.733678 165.296729 265.479278 152.980933 247.995933 
C 140.665136 230.512588 134.051979 209.641279 134.051979 188.255625 
C 134.051979 166.869971 140.665136 145.998662 152.980933 128.515317 
C 165.296729 111.031972 182.722752 97.777572 202.859739 90.57702 
C 188.079708 87.002416 172.679317 86.828611 157.822377 90.068741 
C 142.965437 93.30887 129.035865 99.879205 117.086324 109.283223 
C 105.136782 118.687242 95.476059 130.681935 88.834216 144.360862 
C 82.192373 158.039789 78.741042 173.049471 78.741042 188.255625 
C 78.741042 203.461779 82.192373 218.471461 88.834216 232.150388 
C 95.476059 245.829315 105.136782 257.824008 117.086324 267.228027 
C 129.035865 276.632045 142.965437 283.20238 157.822377 286.442509 
C 172.679317 289.682639 188.079708 289.508834 202.859739 285.93423 
" clip-path="url(#p12f57e75fe)" style="fill: #1f77b4; opacity: 0.4; stroke: #1f77b4; stroke-linejoin: miter"/>
   </g>
   <g id="patch_3">
    <path d="M 202.859739 90.57702 
C 224.767793 95.875562 244.268887 108.393639 258.208218 126.106132 
C 272.147549 143.818625 279.730591 165.715941 279.730591 188.255625 
C 279.730591 210.795309 272.147549 232.692625 258.208218 250.405118 
C 244.268887 268.117611 224.767793 280.635688 202.859739 285.93423 
C 218.515115 291.532255 235.289285 293.285364 251.763836 291.045316 
C 268.238388 288.805268 283.935492 282.637033 297.52781 273.062193 
C 311.120128 263.487354 322.213428 250.783619 329.869667 236.02521 
C 337.525906 221.2668 341.523023 204.881769 341.523023 188.255625 
C 341.523023 171.629481 337.525906 155.24445 329.869667 140.48604 
C 322.213428 125.727631 311.120128 113.023896 297.52781 103.449057 
C 283.935492 93.874217 268.238388 87.705982 251.763836 85.465934 
C 235.289285 83.225886 218.515115 84.978995 202.859739 90.57702 
" clip-path="url(#p12f57e75fe)" style="fill: #ff7f0e; opacity: 0.4; stroke: #ff7f0e; stroke-linejoin: miter"/>
   </g>
   <g id="patch_4">
    <path d="M 202.859739 285.93423 
C 224.767793 280.635688 244.268887 268.117611 258.208218 250.405118 
C 272.147549 232.692625 279.730591 210.795309 279.730591 188.255625 
C 279.730591 165.715941 272.147549 143.818625 258.208218 126.106132 
C 244.268887 108.393639 224.767793 95.875562 202.859739 90.57702 
C 182.722752 97.777572 165.296729 111.031972 152.980933 128.515317 
C 140.665136 145.998662 134.051979 166.869971 134.051979 188.255625 
C 134.051979 209.641279 140.665136 230.512588 152.980933 247.995933 
C 165.296729 265.479278 182.722752 278.733678 202.859739 285.93423 
" clip-path="url(#p12f57e75fe)" style="fill: url(#h2e9e4e5d5e); opacity: 0.4; stroke: #ff7f0e; stroke-linejoin: miter"/>
   </g>
   <g id="text_1">
    <text style="font: 15px 'Arial', sans-serif" transform="translate(85.131667 184.200703)">21.3%</text>
    <text style="font: 15px 'Arial', sans-serif" transform="translate(85.185573 200.066016)">±2.2%</text>
   </g>
   <g id="text_2">
    <text style="font: 15px 'Arial', sans-serif" transform="translate(289.361963 184.200703)">25.4%</text>
    <text style="font: 15px 'Arial', sans-serif" transform="translate(289.415869 200.066016)">±1.9%</text>
   </g>
   <g id="text_3">
    <text style="font: 15px 'Arial', sans-serif" transform="translate(185.626441 184.200703)">41.4%</text>
    <text style="font: 15px 'Arial', sans-serif" transform="translate(185.680348 200.066016)">±2.4%</text>
   </g>
   <g id="text_4">
    <text style="font: 12px 'Arial', sans-serif; text-anchor: end" x="179.235816" y="307.551289" transform="rotate(-0 179.235816 307.551289)">Priors</text>
   </g>
   <g id="text_5">
    <text style="font: 12px 'Arial', sans-serif; text-anchor: start" x="237.787501" y="310.792037" transform="rotate(-0 237.787501 310.792037)">Current</text>
   </g>
   <g id="text_6">
    <text style="font: 12px 'Arial', sans-serif; text-anchor: middle" x="210.361728" y="15.935625" transform="rotate(-0 210.361728 15.935625)">Prior and Current Tuning for Both areas during Feedback Start</text>
   </g>
  </g>
 </g>
 <defs>
  <clipPath id="p12f57e75fe">
   <rect x="7.2" y="21.935625" width="406.323456" height="332.64"/>
  </clipPath>
 </defs>
 <defs>
  <pattern id="h2e9e4e5d5e" patternUnits="userSpaceOnUse" x="0" y="0" width="72" height="72">
   <rect x="0" y="0" width="73" height="73" fill="#1f77b4"/>
   <path d="M -36 36 
L 36 -36 
M -30 42 
L 42 -30 
M -24 48 
L 48 -24 
M -18 54 
L 54 -18 
M -12 60 
L 60 -12 
M -6 66 
L 66 -6 
M 0 72 
L 72 0 
M 6 78 
L 78 6 
M 12 84 
L 84 12 
M 18 90 
L 90 18 
M 24 96 
L 96 24 
M 30 102 
L 102 30 
M 36 108 
L 108 36 
M -36 36 
L 36 108 
M -30 30 
L 42 102 
M -24 24 
L 48 96 
M -18 18 
L 54 90 
M -12 12 
L 60 84 
M -6 6 
L 66 78 
M 0 0 
L 72 72 
M 6 -6 
L 78 66 
M 12 -12 
L 84 60 
M 18 -18 
L 90 54 
M 24 -24 
L 96 48 
M 30 -30 
L 102 42 
M 36 -36 
L 108 36 
" style="fill: #ff7f0e; stroke: #ff7f0e; stroke-width: 3.0; stroke-linecap: butt; stroke-linejoin: miter; stroke-opacity: 0.4"/>
  </pattern>
 </defs>
</svg>
