<?xml version="1.0" encoding="utf-8" standalone="no"?>
<!DOCTYPE svg PUBLIC "-//W3C//DTD SVG 1.1//EN"
  "http://www.w3.org/Graphics/SVG/1.1/DTD/svg11.dtd">
<svg xmlns:xlink="http://www.w3.org/1999/xlink" width="416.131035pt" height="361.775625pt" viewBox="0 0 416.131035 361.775625" xmlns="http://www.w3.org/2000/svg" version="1.1">
 <metadata>
  <rdf:RDF xmlns:dc="http://purl.org/dc/elements/1.1/" xmlns:cc="http://creativecommons.org/ns#" xmlns:rdf="http://www.w3.org/1999/02/22-rdf-syntax-ns#">
   <cc:Work>
    <dc:type rdf:resource="http://purl.org/dc/dcmitype/StillImage"/>
    <dc:date>2025-12-28T00:24:38.245597</dc:date>
    <dc:format>image/svg+xml</dc:format>
    <dc:creator>
     <cc:Agent>
      <dc:title>Matplotlib v3.8.0, https://matplotlib.org/</dc:title>
     </cc:Agent>
    </dc:creator>
   </cc:Work>
  </rdf:RDF>
 </metadata>
 <defs>
  <style type="text/css">*{stroke-linejoin: round; stroke-linecap: butt}</style>
 </defs>
 <g id="figure_1">
  <g id="patch_1">
   <path d="M 0 361.775625 
L 416.131035 361.775625 
L 416.131035 0 
L 0 0 
z
" style="fill: #ffffff"/>
  </g>
  <g id="axes_1">
   <g id="patch_2">
    <path d="M 198.762146 288.086618 
C 178.148447 280.760618 160.301201 267.226724 147.685232 249.354058 
C 135.069263 231.481392 128.293381 210.132436 128.293381 188.255625 
C 128.293381 166.378814 135.069263 145.029858 147.685232 127.157192 
C 160.301201 109.284526 178.148447 95.750632 198.762146 88.424632 
C 183.885802 85.25283 168.486887 85.445975 153.694777 88.9899 
C 138.902667 92.533825 125.088048 99.339721 113.264104 108.908435 
C 101.44016 118.477148 91.903196 130.568889 85.352664 144.296834 
C 78.802132 158.024778 75.402188 173.044908 75.402188 188.255625 
C 75.402188 203.466342 78.802132 218.486472 85.352664 232.214416 
C 91.903196 245.942361 101.44016 258.034102 113.264104 267.602815 
C 125.088048 277.171529 138.902667 283.977425 153.694777 287.52135 
C 168.486887 291.065275 183.885802 291.25842 198.762146 288.086618 
" clip-path="url(#pb094617413)" style="fill: #1f77b4; opacity: 0.4; stroke: #1f77b4; stroke-linejoin: miter"/>
   </g>
   <g id="patch_3">
    <path d="M 198.762146 88.424632 
C 221.618657 93.297893 242.12257 105.875956 256.824261 124.042658 
C 271.525952 142.209361 279.551953 164.885371 279.551953 188.255625 
C 279.551953 211.625879 271.525952 234.301889 256.824261 252.468592 
C 242.12257 270.635294 221.618657 283.213357 198.762146 288.086618 
C 214.746147 293.767248 231.863117 295.526855 248.668537 293.216942 
C 265.473958 290.907029 281.481403 284.594457 295.339989 274.811949 
C 309.198575 265.029442 320.507171 252.06015 328.311432 236.998565 
C 336.115694 221.936979 340.189731 205.219052 340.189731 188.255625 
C 340.189731 171.292198 336.115694 154.574271 328.311432 139.512685 
C 320.507171 124.4511 309.198575 111.481808 295.339989 101.699301 
C 281.481403 91.916793 265.473958 85.604221 248.668537 83.294308 
C 231.863117 80.984395 214.746147 82.744002 198.762146 88.424632 
" clip-path="url(#pb094617413)" style="fill: #ff7f0e; opacity: 0.4; stroke: #ff7f0e; stroke-linejoin: miter"/>
   </g>
   <g id="patch_4">
    <path d="M 198.762146 288.086618 
C 221.618657 283.213357 242.12257 270.635294 256.824261 252.468592 
C 271.525952 234.301889 279.551953 211.625879 279.551953 188.255625 
C 279.551953 164.885371 271.525952 142.209361 256.824261 124.042658 
C 242.12257 105.875956 221.618657 93.297893 198.762146 88.424632 
C 178.148447 95.750632 160.301201 109.284526 147.685232 127.157192 
C 135.069263 145.029858 128.293381 166.378814 128.293381 188.255625 
C 128.293381 210.132436 135.069263 231.481392 147.685232 249.354058 
C 160.301201 267.226724 178.148447 280.760618 198.762146 288.086618 
" clip-path="url(#pb094617413)" style="fill: url(#h3c6b04b790); opacity: 0.4; stroke: #ff7f0e; stroke-linejoin: miter"/>
   </g>
   <g id="text_1">
    <text style="font: 15px 'Arial', sans-serif" transform="translate(80.582941 184.200703)">20.5%</text>
    <text style="font: 15px 'Arial', sans-serif" transform="translate(80.636847 200.066016)">±2.4%</text>
   </g>
   <g id="text_2">
    <text style="font: 15px 'Arial', sans-serif" transform="translate(288.605998 184.200703)">25.5%</text>
    <text style="font: 15px 'Arial', sans-serif" transform="translate(288.659905 200.066016)">±2.2%</text>
   </g>
   <g id="text_3">
    <text style="font: 15px 'Arial', sans-serif" transform="translate(182.657823 184.200703)">43.9%</text>
    <text style="font: 15px 'Arial', sans-serif" transform="translate(182.71173 200.066016)">±3.8%</text>
   </g>
   <g id="text_4">
    <text style="font: 12px 'Arial', sans-serif; text-anchor: end" x="177.477071" y="309.321036" transform="rotate(-0 177.477071 309.321036)">Priors</text>
   </g>
   <g id="text_5">
    <text style="font: 12px 'Arial', sans-serif; text-anchor: start" x="234.241556" y="313.194328" transform="rotate(-0 234.241556 313.194328)">Current</text>
   </g>
   <g id="text_6">
    <text style="font: 12px 'Arial', sans-serif; text-anchor: middle" x="208.065517" y="15.935625" transform="rotate(-0 208.065517 15.935625)">Prior and Current Tuning for M2 during Feedback Start</text>
   </g>
  </g>
 </g>
 <defs>
  <clipPath id="pb094617413">
   <rect x="7.2" y="21.935625" width="401.731035" height="332.64"/>
  </clipPath>
 </defs>
 <defs>
  <pattern id="h3c6b04b790" patternUnits="userSpaceOnUse" x="0" y="0" width="72" height="72">
   <rect x="0" y="0" width="73" height="73" fill="#1f77b4"/>
   <path d="M -36 36 
L 36 -36 
M -30 42 
L 42 -30 
M -24 48 
L 48 -24 
M -18 54 
L 54 -18 
M -12 60 
L 60 -12 
M -6 66 
L 66 -6 
M 0 72 
L 72 0 
M 6 78 
L 78 6 
M 12 84 
L 84 12 
M 18 90 
L 90 18 
M 24 96 
L 96 24 
M 30 102 
L 102 30 
M 36 108 
L 108 36 
M -36 36 
L 36 108 
M -30 30 
L 42 102 
M -24 24 
L 48 96 
M -18 18 
L 54 90 
M -12 12 
L 60 84 
M -6 6 
L 66 78 
M 0 0 
L 72 72 
M 6 -6 
L 78 66 
M 12 -12 
L 84 60 
M 18 -18 
L 90 54 
M 24 -24 
L 96 48 
M 30 -30 
L 102 42 
M 36 -36 
L 108 36 
" style="fill: #ff7f0e; stroke: #ff7f0e; stroke-width: 3.0; stroke-linecap: butt; stroke-linejoin: miter; stroke-opacity: 0.4"/>
  </pattern>
 </defs>
</svg>
