<?xml version="1.0" encoding="utf-8" standalone="no"?>
<!DOCTYPE svg PUBLIC "-//W3C//DTD SVG 1.1//EN"
  "http://www.w3.org/Graphics/SVG/1.1/DTD/svg11.dtd">
<svg xmlns:xlink="http://www.w3.org/1999/xlink" width="413.171283pt" height="361.333136pt" viewBox="0 0 413.171283 361.333136" xmlns="http://www.w3.org/2000/svg" version="1.1">
 <metadata>
  <rdf:RDF xmlns:dc="http://purl.org/dc/elements/1.1/" xmlns:cc="http://creativecommons.org/ns#" xmlns:rdf="http://www.w3.org/1999/02/22-rdf-syntax-ns#">
   <cc:Work>
    <dc:type rdf:resource="http://purl.org/dc/dcmitype/StillImage"/>
    <dc:date>2025-12-29T04:07:47.197611</dc:date>
    <dc:format>image/svg+xml</dc:format>
    <dc:creator>
     <cc:Agent>
      <dc:title>Matplotlib v3.8.0, https://matplotlib.org/</dc:title>
     </cc:Agent>
    </dc:creator>
   </cc:Work>
  </rdf:RDF>
 </metadata>
 <defs>
  <style type="text/css">*{stroke-linejoin: round; stroke-linecap: butt}</style>
 </defs>
 <g id="figure_1">
  <g id="patch_1">
   <path d="M 0 361.333136 
L 413.171283 361.333136 
L 413.171283 -0 
L 0 -0 
z
" style="fill: #ffffff"/>
  </g>
  <g id="axes_1">
   <g id="patch_2">
    <path d="M 48.851283 285.37598 
L 405.971283 285.37598 
L 405.971283 19.26398 
L 48.851283 19.26398 
z
" style="fill: #ffffff"/>
   </g>
   <g id="PolyCollection_1">
    <defs>
     <path id="m1c2873ca6b" d="M 48.851283 -138.184981 
L 48.851283 -111.340513 
L 60.011283 -102.718954 
L 71.171283 -108.887588 
L 82.331283 -130.071467 
L 93.491283 -151.708909 
L 104.651283 -187.579363 
L 115.811283 -217.865487 
L 126.971283 -240.006454 
L 138.131283 -247.957267 
L 149.291283 -240.765423 
L 160.451283 -235.619175 
L 171.611283 -240.448123 
L 182.771283 -247.180457 
L 193.931283 -246.996649 
L 205.091283 -239.880871 
L 216.251283 -235.121058 
L 227.411283 -235.936923 
L 238.571283 -225.883439 
L 249.731283 -210.411889 
L 260.891283 -208.860544 
L 272.051283 -207.52777 
L 283.211283 -195.520823 
L 294.371283 -175.070338 
L 305.531283 -169.010611 
L 316.691283 -175.205726 
L 327.851283 -167.039619 
L 339.011283 -162.179753 
L 350.171283 -156.253249 
L 361.331283 -141.952921 
L 372.491283 -138.863566 
L 383.651283 -116.853886 
L 394.811283 -96.163078 
L 405.971283 -88.053156 
L 405.971283 -113.140413 
L 405.971283 -113.140413 
L 394.811283 -122.534214 
L 383.651283 -147.320548 
L 372.491283 -175.501035 
L 361.331283 -177.219526 
L 350.171283 -190.629873 
L 339.011283 -197.518141 
L 327.851283 -203.733087 
L 316.691283 -213.191436 
L 305.531283 -208.284617 
L 294.371283 -215.191593 
L 283.211283 -235.068811 
L 272.051283 -247.590263 
L 260.891283 -250.359003 
L 249.731283 -253.929701 
L 238.571283 -271.413091 
L 227.411283 -282.254749 
L 216.251283 -280.435666 
L 205.091283 -284.944416 
L 193.931283 -289.840166 
L 182.771283 -286.65253 
L 171.611283 -278.05853 
L 160.451283 -272.940393 
L 149.291283 -277.47545 
L 138.131283 -286.320299 
L 126.971283 -279.350351 
L 115.811283 -256.057301 
L 104.651283 -226.153048 
L 93.491283 -186.531946 
L 82.331283 -163.320439 
L 71.171283 -142.611522 
L 60.011283 -132.777276 
L 48.851283 -138.184981 
z
" style="stroke: #1f77b4; stroke-opacity: 0.2"/>
    </defs>
    <g clip-path="url(#pfc8784e9f5)">
     <use xlink:href="#m1c2873ca6b" x="0" y="361.333136" style="fill: #1f77b4; fill-opacity: 0.2; stroke: #1f77b4; stroke-opacity: 0.2"/>
    </g>
   </g>
   <g id="PolyCollection_2">
    <defs>
     <path id="m6845d6aca1" d="M 48.851283 -131.453721 
L 48.851283 -95.833932 
L 60.011283 -110.973203 
L 71.171283 -124.851026 
L 82.331283 -140.56062 
L 93.491283 -161.93144 
L 104.651283 -192.232579 
L 115.811283 -223.360785 
L 126.971283 -240.304371 
L 138.131283 -252.569942 
L 149.291283 -266.385731 
L 160.451283 -281.182975 
L 171.611283 -280.21166 
L 182.771283 -283.379902 
L 193.931283 -276.593336 
L 205.091283 -269.821209 
L 216.251283 -256.431743 
L 227.411283 -227.059522 
L 238.571283 -219.751272 
L 249.731283 -217.427116 
L 260.891283 -208.417683 
L 272.051283 -201.840521 
L 283.211283 -195.77776 
L 294.371283 -194.761304 
L 305.531283 -192.565318 
L 316.691283 -180.761672 
L 327.851283 -171.939927 
L 339.011283 -168.961847 
L 350.171283 -158.69515 
L 361.331283 -154.447812 
L 372.491283 -140.925652 
L 383.651283 -128.43381 
L 394.811283 -122.367084 
L 405.971283 -119.077765 
L 405.971283 -142.709408 
L 405.971283 -142.709408 
L 394.811283 -147.844164 
L 383.651283 -158.699713 
L 372.491283 -175.633449 
L 361.331283 -187.975291 
L 350.171283 -193.13192 
L 339.011283 -203.089764 
L 327.851283 -206.893662 
L 316.691283 -215.120417 
L 305.531283 -228.148736 
L 294.371283 -228.966029 
L 283.211283 -232.120768 
L 272.051283 -241.893956 
L 260.891283 -251.733781 
L 249.731283 -262.632855 
L 238.571283 -265.459437 
L 227.411283 -273.876225 
L 216.251283 -302.221202 
L 205.091283 -315.39096 
L 193.931283 -321.04989 
L 182.771283 -329.973156 
L 171.611283 -326.827753 
L 160.451283 -326.566775 
L 149.291283 -311.37844 
L 138.131283 -299.732976 
L 126.971283 -287.728219 
L 115.811283 -268.220488 
L 104.651283 -233.727439 
L 93.491283 -200.242819 
L 82.331283 -177.358224 
L 71.171283 -165.891689 
L 60.011283 -151.994923 
L 48.851283 -131.453721 
z
" style="stroke: #ff7f0e; stroke-opacity: 0.2"/>
    </defs>
    <g clip-path="url(#pfc8784e9f5)">
     <use xlink:href="#m6845d6aca1" x="0" y="361.333136" style="fill: #ff7f0e; fill-opacity: 0.2; stroke: #ff7f0e; stroke-opacity: 0.2"/>
    </g>
   </g>
   <g id="matplotlib.axis_1">
    <g id="text_1">
     <text style="font: 10px 'Arial', sans-serif; text-anchor: middle" x="227.411283" y="296.533792" transform="rotate(-0 227.411283 296.533792)">Time</text>
    </g>
   </g>
   <g id="matplotlib.axis_2">
    <g id="ytick_1">
     <g id="line2d_1">
      <defs>
       <path id="m7ca1d55431" d="M 0 0 
L -3.5 0 
" style="stroke: #000000; stroke-width: 0.8"/>
      </defs>
      <g>
       <use xlink:href="#m7ca1d55431" x="48.851283" y="280.090582" style="stroke: #000000; stroke-width: 0.8"/>
      </g>
     </g>
     <g id="text_2">
      <text style="font: 10px 'Arial', sans-serif; text-anchor: end" x="41.851283" y="283.669488" transform="rotate(-0 41.851283 283.669488)">−0.4</text>
     </g>
    </g>
    <g id="ytick_2">
     <g id="line2d_2">
      <g>
       <use xlink:href="#m7ca1d55431" x="48.851283" y="243.387521" style="stroke: #000000; stroke-width: 0.8"/>
      </g>
     </g>
     <g id="text_3">
      <text style="font: 10px 'Arial', sans-serif; text-anchor: end" x="41.851283" y="246.966427" transform="rotate(-0 41.851283 246.966427)">−0.2</text>
     </g>
    </g>
    <g id="ytick_3">
     <g id="line2d_3">
      <g>
       <use xlink:href="#m7ca1d55431" x="48.851283" y="206.68446" style="stroke: #000000; stroke-width: 0.8"/>
      </g>
     </g>
     <g id="text_4">
      <text style="font: 10px 'Arial', sans-serif; text-anchor: end" x="41.851283" y="210.263367" transform="rotate(-0 41.851283 210.263367)">0.0</text>
     </g>
    </g>
    <g id="ytick_4">
     <g id="line2d_4">
      <g>
       <use xlink:href="#m7ca1d55431" x="48.851283" y="169.9814" style="stroke: #000000; stroke-width: 0.8"/>
      </g>
     </g>
     <g id="text_5">
      <text style="font: 10px 'Arial', sans-serif; text-anchor: end" x="41.851283" y="173.560306" transform="rotate(-0 41.851283 173.560306)">0.2</text>
     </g>
    </g>
    <g id="ytick_5">
     <g id="line2d_5">
      <g>
       <use xlink:href="#m7ca1d55431" x="48.851283" y="133.278339" style="stroke: #000000; stroke-width: 0.8"/>
      </g>
     </g>
     <g id="text_6">
      <text style="font: 10px 'Arial', sans-serif; text-anchor: end" x="41.851283" y="136.857245" transform="rotate(-0 41.851283 136.857245)">0.4</text>
     </g>
    </g>
    <g id="ytick_6">
     <g id="line2d_6">
      <g>
       <use xlink:href="#m7ca1d55431" x="48.851283" y="96.575279" style="stroke: #000000; stroke-width: 0.8"/>
      </g>
     </g>
     <g id="text_7">
      <text style="font: 10px 'Arial', sans-serif; text-anchor: end" x="41.851283" y="100.154185" transform="rotate(-0 41.851283 100.154185)">0.6</text>
     </g>
    </g>
    <g id="ytick_7">
     <g id="line2d_7">
      <g>
       <use xlink:href="#m7ca1d55431" x="48.851283" y="59.872218" style="stroke: #000000; stroke-width: 0.8"/>
      </g>
     </g>
     <g id="text_8">
      <text style="font: 10px 'Arial', sans-serif; text-anchor: end" x="41.851283" y="63.451124" transform="rotate(-0 41.851283 63.451124)">0.8</text>
     </g>
    </g>
    <g id="ytick_8">
     <g id="line2d_8">
      <g>
       <use xlink:href="#m7ca1d55431" x="48.851283" y="23.169157" style="stroke: #000000; stroke-width: 0.8"/>
      </g>
     </g>
     <g id="text_9">
      <text style="font: 10px 'Arial', sans-serif; text-anchor: end" x="41.851283" y="26.748064" transform="rotate(-0 41.851283 26.748064)">1.0</text>
     </g>
    </g>
    <g id="text_10">
     <text style="font: 10px 'Arial', sans-serif; text-anchor: middle" x="16.005971" y="152.31998" transform="rotate(-90 16.005971 152.31998)">Activity</text>
    </g>
   </g>
   <g id="line2d_9">
    <path d="M 48.851283 236.570388 
L 60.011283 243.585022 
L 71.171283 235.583581 
L 82.331283 214.637183 
L 93.491283 192.212708 
L 104.651283 154.466929 
L 115.811283 124.371742 
L 126.971283 101.654733 
L 138.131283 94.194353 
L 149.291283 102.212699 
L 160.451283 107.053352 
L 171.611283 102.079809 
L 182.771283 94.416643 
L 193.931283 92.914729 
L 205.091283 98.920492 
L 216.251283 103.554771 
L 227.411283 102.2373 
L 238.571283 112.684871 
L 249.731283 129.162341 
L 260.891283 131.723362 
L 272.051283 133.774119 
L 283.211283 146.038318 
L 294.371283 166.20217 
L 305.531283 172.685522 
L 316.691283 167.134553 
L 327.851283 175.946784 
L 339.011283 181.484189 
L 350.171283 187.891575 
L 361.331283 201.746913 
L 372.491283 204.150836 
L 383.651283 229.245919 
L 394.811283 251.984488 
L 405.971283 260.73635 
" clip-path="url(#pfc8784e9f5)" style="fill: none; stroke: #1f77b4; stroke-width: 1.5; stroke-linecap: square"/>
   </g>
   <g id="line2d_10">
    <path d="M 48.851283 247.68931 
L 60.011283 229.849072 
L 71.171283 215.961779 
L 82.331283 202.373715 
L 93.491283 180.246007 
L 104.651283 148.353127 
L 115.811283 115.542502 
L 126.971283 97.316841 
L 138.131283 85.181677 
L 149.291283 72.451051 
L 160.451283 57.458261 
L 171.611283 57.81343 
L 182.771283 54.656607 
L 193.931283 62.511523 
L 205.091283 68.727052 
L 216.251283 82.006664 
L 227.411283 110.865263 
L 238.571283 118.727781 
L 249.731283 121.303153 
L 260.891283 131.257404 
L 272.051283 139.465897 
L 283.211283 147.383873 
L 294.371283 149.469469 
L 305.531283 150.976109 
L 316.691283 163.392093 
L 327.851283 171.916341 
L 339.011283 175.30733 
L 350.171283 185.419602 
L 361.331283 190.121585 
L 372.491283 203.053585 
L 383.651283 217.766374 
L 394.811283 226.227513 
L 405.971283 230.43955 
" clip-path="url(#pfc8784e9f5)" style="fill: none; stroke: #ff7f0e; stroke-width: 1.5; stroke-linecap: square"/>
   </g>
   <g id="line2d_11">
    <path d="M 82.331283 285.37598 
L 82.331283 19.26398 
" clip-path="url(#pfc8784e9f5)" style="fill: none; stroke-dasharray: 5.55,2.4; stroke-dashoffset: 0; stroke: #000000; stroke-opacity: 0.5; stroke-width: 1.5"/>
   </g>
   <g id="line2d_12">
    <path d="M 383.651283 285.37598 
L 383.651283 19.26398 
" clip-path="url(#pfc8784e9f5)" style="fill: none; stroke-dasharray: 5.55,2.4; stroke-dashoffset: 0; stroke: #000000; stroke-opacity: 0.5; stroke-width: 1.5"/>
   </g>
   <g id="patch_3">
    <path d="M 48.851283 285.37598 
L 405.971283 285.37598 
" style="fill: none; stroke: #000000; stroke-width: 0.8; stroke-linejoin: miter; stroke-linecap: square"/>
   </g>
   <g id="text_11">
    <text style="font: 6.94px 'Arial', sans-serif" transform="translate(10.097767 321.385533) rotate(-35)">-0.1s Sampling</text>
   </g>
   <g id="text_12">
    <text style="font: 6.94px 'Arial', sans-serif" transform="translate(57.794497 311.430872) rotate(-35)">Sampling</text>
   </g>
   <g id="text_13">
    <text style="font: 6.94px 'Arial', sans-serif" transform="translate(319.037191 339.456682) rotate(-35)">Movement to Lateral Port</text>
   </g>
   <g id="text_14">
    <text style="font: 8.33px 'Arial', sans-serif; text-anchor: middle" x="227.411283" y="13.26398" transform="rotate(-0 227.411283 13.26398)">GP4_85_s2_L100_D250_mm2 - Trace:113_GP4_85_s2_L100_D250_mm2 (when: correct)</text>
   </g>
   <g id="legend_1">
    <g id="patch_4">
     <path d="M 133.696342 354.133136 
L 321.126224 354.133136 
Q 322.514224 354.133136 322.514224 352.745136 
L 322.514224 343.45638 
Q 322.514224 342.06838 321.126224 342.06838 
L 133.696342 342.06838 
Q 132.308342 342.06838 132.308342 343.45638 
L 132.308342 352.745136 
Q 132.308342 354.133136 133.696342 354.133136 
z
" style="fill: #ffffff; opacity: 0.8; stroke: #cccccc; stroke-linejoin: miter"/>
    </g>
    <g id="line2d_13">
     <path d="M 135.084342 347.467483 
L 142.024342 347.467483 
L 148.964342 347.467483 
" style="fill: none; stroke: #1f77b4; stroke-width: 1.5; stroke-linecap: square"/>
    </g>
    <g id="text_15">
     <text style="font: 6.94px 'Arial', sans-serif; text-anchor: start" x="154.516342" y="349.896483" transform="rotate(-0 154.516342 349.896483)">DecisionRight (88 pts)</text>
    </g>
    <g id="line2d_14">
     <path d="M 236.664255 347.467483 
L 243.604255 347.467483 
L 250.544255 347.467483 
" style="fill: none; stroke: #ff7f0e; stroke-width: 1.5; stroke-linecap: square"/>
    </g>
    <g id="text_16">
     <text style="font: 6.94px 'Arial', sans-serif; text-anchor: start" x="256.096255" y="349.896483" transform="rotate(-0 256.096255 349.896483)">DecisionLeft (88 pts)</text>
    </g>
   </g>
  </g>
 </g>
 <defs>
  <clipPath id="pfc8784e9f5">
   <rect x="48.851283" y="19.26398" width="357.12" height="266.112"/>
  </clipPath>
 </defs>
</svg>
