<?xml version="1.0" encoding="utf-8" standalone="no"?>
<!DOCTYPE svg PUBLIC "-//W3C//DTD SVG 1.1//EN"
  "http://www.w3.org/Graphics/SVG/1.1/DTD/svg11.dtd">
<svg xmlns:xlink="http://www.w3.org/1999/xlink" width="413.171283pt" height="361.333136pt" viewBox="0 0 413.171283 361.333136" xmlns="http://www.w3.org/2000/svg" version="1.1">
 <metadata>
  <rdf:RDF xmlns:dc="http://purl.org/dc/elements/1.1/" xmlns:cc="http://creativecommons.org/ns#" xmlns:rdf="http://www.w3.org/1999/02/22-rdf-syntax-ns#">
   <cc:Work>
    <dc:type rdf:resource="http://purl.org/dc/dcmitype/StillImage"/>
    <dc:date>2025-12-29T04:07:48.823997</dc:date>
    <dc:format>image/svg+xml</dc:format>
    <dc:creator>
     <cc:Agent>
      <dc:title>Matplotlib v3.8.0, https://matplotlib.org/</dc:title>
     </cc:Agent>
    </dc:creator>
   </cc:Work>
  </rdf:RDF>
 </metadata>
 <defs>
  <style type="text/css">*{stroke-linejoin: round; stroke-linecap: butt}</style>
 </defs>
 <g id="figure_1">
  <g id="patch_1">
   <path d="M 0 361.333136 
L 413.171283 361.333136 
L 413.171283 -0 
L 0 -0 
z
" style="fill: #ffffff"/>
  </g>
  <g id="axes_1">
   <g id="patch_2">
    <path d="M 48.851283 285.37598 
L 405.971283 285.37598 
L 405.971283 19.26398 
L 48.851283 19.26398 
z
" style="fill: #ffffff"/>
   </g>
   <g id="PolyCollection_1">
    <defs>
     <path id="m6f47c8708e" d="M 48.851283 -272.656694 
L 48.851283 -210.585888 
L 60.011283 -208.766179 
L 71.171283 -211.028984 
L 82.331283 -224.83922 
L 93.491283 -238.104703 
L 104.651283 -248.011368 
L 115.811283 -250.259709 
L 126.971283 -250.997276 
L 138.131283 -239.208717 
L 149.291283 -225.378168 
L 160.451283 -216.891713 
L 171.611283 -216.938121 
L 182.771283 -218.508464 
L 193.931283 -215.656857 
L 205.091283 -202.213764 
L 216.251283 -188.898295 
L 227.411283 -178.745103 
L 238.571283 -171.942914 
L 249.731283 -171.267085 
L 260.891283 -168.962488 
L 272.051283 -155.509007 
L 283.211283 -149.111465 
L 294.371283 -147.960268 
L 305.531283 -144.426366 
L 316.691283 -141.011919 
L 327.851283 -129.948483 
L 339.011283 -125.241928 
L 350.171283 -124.522416 
L 361.331283 -124.002594 
L 372.491283 -117.89942 
L 383.651283 -103.057815 
L 394.811283 -92.023562 
L 405.971283 -88.053156 
L 405.971283 -108.58851 
L 405.971283 -108.58851 
L 394.811283 -114.559214 
L 383.651283 -130.88108 
L 372.491283 -149.139796 
L 361.331283 -153.549579 
L 350.171283 -153.248062 
L 339.011283 -153.940726 
L 327.851283 -161.076709 
L 316.691283 -173.411918 
L 305.531283 -178.762104 
L 294.371283 -181.298946 
L 283.211283 -181.65855 
L 272.051283 -189.828488 
L 260.891283 -205.789604 
L 249.731283 -211.891574 
L 238.571283 -216.487 
L 227.411283 -227.794459 
L 216.251283 -242.555133 
L 205.091283 -260.189275 
L 193.931283 -274.850838 
L 182.771283 -280.163093 
L 171.611283 -278.558691 
L 160.451283 -280.641109 
L 149.291283 -290.172484 
L 138.131283 -311.527742 
L 126.971283 -329.485181 
L 115.811283 -329.973156 
L 104.651283 -322.842393 
L 93.491283 -308.057465 
L 82.331283 -291.461634 
L 71.171283 -276.025682 
L 60.011283 -274.001256 
L 48.851283 -272.656694 
z
" style="stroke: #1f77b4; stroke-opacity: 0.2"/>
    </defs>
    <g clip-path="url(#p68097e9cd6)">
     <use xlink:href="#m6f47c8708e" x="0" y="361.333136" style="fill: #1f77b4; fill-opacity: 0.2; stroke: #1f77b4; stroke-opacity: 0.2"/>
    </g>
   </g>
   <g id="PolyCollection_2">
    <defs>
     <path id="m5209be8470" d="M 48.851283 -273.47474 
L 48.851283 -207.17206 
L 60.011283 -215.671079 
L 71.171283 -222.647204 
L 82.331283 -228.995761 
L 93.491283 -227.393065 
L 104.651283 -223.89244 
L 115.811283 -229.913899 
L 126.971283 -240.021712 
L 138.131283 -256.65326 
L 149.291283 -249.341779 
L 160.451283 -242.430768 
L 171.611283 -239.047813 
L 182.771283 -229.902213 
L 193.931283 -210.289948 
L 205.091283 -192.387017 
L 216.251283 -187.439613 
L 227.411283 -185.05064 
L 238.571283 -175.884969 
L 249.731283 -165.157521 
L 260.891283 -152.882867 
L 272.051283 -145.428973 
L 283.211283 -139.070222 
L 294.371283 -141.54458 
L 305.531283 -147.258815 
L 316.691283 -140.409101 
L 327.851283 -129.611584 
L 339.011283 -123.311571 
L 350.171283 -126.328412 
L 361.331283 -124.343606 
L 372.491283 -119.259198 
L 383.651283 -107.661632 
L 394.811283 -100.334597 
L 405.971283 -96.198151 
L 405.971283 -117.263854 
L 405.971283 -117.263854 
L 394.811283 -123.86418 
L 383.651283 -133.580041 
L 372.491283 -148.35618 
L 361.331283 -153.338305 
L 350.171283 -155.342741 
L 339.011283 -153.374554 
L 327.851283 -159.818916 
L 316.691283 -170.968124 
L 305.531283 -180.384867 
L 294.371283 -177.090287 
L 283.211283 -175.799888 
L 272.051283 -184.592836 
L 260.891283 -195.210733 
L 249.731283 -211.531801 
L 238.571283 -225.028487 
L 227.411283 -236.693348 
L 216.251283 -240.057244 
L 205.091283 -245.586502 
L 193.931283 -264.961463 
L 182.771283 -286.672201 
L 171.611283 -294.949823 
L 160.451283 -298.794584 
L 149.291283 -309.151255 
L 138.131283 -318.472374 
L 126.971283 -301.32535 
L 115.811283 -293.618778 
L 104.651283 -292.478182 
L 93.491283 -300.038574 
L 82.331283 -303.972104 
L 71.171283 -297.559804 
L 60.011283 -285.705779 
L 48.851283 -273.47474 
z
" style="stroke: #ff7f0e; stroke-opacity: 0.2"/>
    </defs>
    <g clip-path="url(#p68097e9cd6)">
     <use xlink:href="#m5209be8470" x="0" y="361.333136" style="fill: #ff7f0e; fill-opacity: 0.2; stroke: #ff7f0e; stroke-opacity: 0.2"/>
    </g>
   </g>
   <g id="matplotlib.axis_1">
    <g id="text_1">
     <text style="font: 10px 'Arial', sans-serif; text-anchor: middle" x="227.411283" y="296.533792" transform="rotate(-0 227.411283 296.533792)">Time</text>
    </g>
   </g>
   <g id="matplotlib.axis_2">
    <g id="ytick_1">
     <g id="line2d_1">
      <defs>
       <path id="m1bb86e97cb" d="M 0 0 
L -3.5 0 
" style="stroke: #000000; stroke-width: 0.8"/>
      </defs>
      <g>
       <use xlink:href="#m1bb86e97cb" x="48.851283" y="258.32968" style="stroke: #000000; stroke-width: 0.8"/>
      </g>
     </g>
     <g id="text_2">
      <text style="font: 10px 'Arial', sans-serif; text-anchor: end" x="41.851283" y="261.908586" transform="rotate(-0 41.851283 261.908586)">−0.4</text>
     </g>
    </g>
    <g id="ytick_2">
     <g id="line2d_2">
      <g>
       <use xlink:href="#m1bb86e97cb" x="48.851283" y="225.469824" style="stroke: #000000; stroke-width: 0.8"/>
      </g>
     </g>
     <g id="text_3">
      <text style="font: 10px 'Arial', sans-serif; text-anchor: end" x="41.851283" y="229.04873" transform="rotate(-0 41.851283 229.04873)">−0.3</text>
     </g>
    </g>
    <g id="ytick_3">
     <g id="line2d_3">
      <g>
       <use xlink:href="#m1bb86e97cb" x="48.851283" y="192.609968" style="stroke: #000000; stroke-width: 0.8"/>
      </g>
     </g>
     <g id="text_4">
      <text style="font: 10px 'Arial', sans-serif; text-anchor: end" x="41.851283" y="196.188874" transform="rotate(-0 41.851283 196.188874)">−0.2</text>
     </g>
    </g>
    <g id="ytick_4">
     <g id="line2d_4">
      <g>
       <use xlink:href="#m1bb86e97cb" x="48.851283" y="159.750112" style="stroke: #000000; stroke-width: 0.8"/>
      </g>
     </g>
     <g id="text_5">
      <text style="font: 10px 'Arial', sans-serif; text-anchor: end" x="41.851283" y="163.329018" transform="rotate(-0 41.851283 163.329018)">−0.1</text>
     </g>
    </g>
    <g id="ytick_5">
     <g id="line2d_5">
      <g>
       <use xlink:href="#m1bb86e97cb" x="48.851283" y="126.890256" style="stroke: #000000; stroke-width: 0.8"/>
      </g>
     </g>
     <g id="text_6">
      <text style="font: 10px 'Arial', sans-serif; text-anchor: end" x="41.851283" y="130.469162" transform="rotate(-0 41.851283 130.469162)">0.0</text>
     </g>
    </g>
    <g id="ytick_6">
     <g id="line2d_6">
      <g>
       <use xlink:href="#m1bb86e97cb" x="48.851283" y="94.0304" style="stroke: #000000; stroke-width: 0.8"/>
      </g>
     </g>
     <g id="text_7">
      <text style="font: 10px 'Arial', sans-serif; text-anchor: end" x="41.851283" y="97.609306" transform="rotate(-0 41.851283 97.609306)">0.1</text>
     </g>
    </g>
    <g id="ytick_7">
     <g id="line2d_7">
      <g>
       <use xlink:href="#m1bb86e97cb" x="48.851283" y="61.170544" style="stroke: #000000; stroke-width: 0.8"/>
      </g>
     </g>
     <g id="text_8">
      <text style="font: 10px 'Arial', sans-serif; text-anchor: end" x="41.851283" y="64.74945" transform="rotate(-0 41.851283 64.74945)">0.2</text>
     </g>
    </g>
    <g id="ytick_8">
     <g id="line2d_8">
      <g>
       <use xlink:href="#m1bb86e97cb" x="48.851283" y="28.310688" style="stroke: #000000; stroke-width: 0.8"/>
      </g>
     </g>
     <g id="text_9">
      <text style="font: 10px 'Arial', sans-serif; text-anchor: end" x="41.851283" y="31.889594" transform="rotate(-0 41.851283 31.889594)">0.3</text>
     </g>
    </g>
    <g id="text_10">
     <text style="font: 10px 'Arial', sans-serif; text-anchor: middle" x="16.005971" y="152.31998" transform="rotate(-90 16.005971 152.31998)">Activity</text>
    </g>
   </g>
   <g id="line2d_9">
    <path d="M 48.851283 119.711845 
L 60.011283 119.949418 
L 71.171283 117.805801 
L 82.331283 103.182707 
L 93.491283 88.252052 
L 104.651283 75.906257 
L 115.811283 71.216702 
L 126.971283 71.09191 
L 138.131283 85.964907 
L 149.291283 103.557811 
L 160.451283 112.566725 
L 171.611283 113.584731 
L 182.771283 111.997358 
L 193.931283 116.079288 
L 205.091283 130.131618 
L 216.251283 145.606421 
L 227.411283 158.063356 
L 238.571283 167.11818 
L 249.731283 169.753807 
L 260.891283 173.95709 
L 272.051283 188.664389 
L 283.211283 195.948129 
L 294.371283 196.703531 
L 305.531283 199.738901 
L 316.691283 204.12122 
L 327.851283 215.82054 
L 339.011283 221.741809 
L 350.171283 222.447894 
L 361.331283 222.557047 
L 372.491283 227.813528 
L 383.651283 244.363689 
L 394.811283 258.041748 
L 405.971283 263.012303 
" clip-path="url(#p68097e9cd6)" style="fill: none; stroke: #1f77b4; stroke-width: 1.5; stroke-linecap: square"/>
   </g>
   <g id="line2d_10">
    <path d="M 48.851283 121.009736 
L 60.011283 110.644707 
L 71.171283 101.229633 
L 82.331283 94.849202 
L 93.491283 97.617316 
L 104.651283 103.147825 
L 115.811283 99.566796 
L 126.971283 90.659605 
L 138.131283 73.77032 
L 149.291283 82.086619 
L 160.451283 90.720461 
L 171.611283 94.334318 
L 182.771283 103.045929 
L 193.931283 123.70743 
L 205.091283 142.346376 
L 216.251283 147.584709 
L 227.411283 150.461141 
L 238.571283 160.876408 
L 249.731283 172.988474 
L 260.891283 187.286337 
L 272.051283 196.322231 
L 283.211283 203.898081 
L 294.371283 202.0157 
L 305.531283 197.511297 
L 316.691283 205.644526 
L 327.851283 216.617886 
L 339.011283 222.990074 
L 350.171283 220.497559 
L 361.331283 222.492178 
L 372.491283 227.525447 
L 383.651283 240.7123 
L 394.811283 249.233748 
L 405.971283 254.602133 
" clip-path="url(#p68097e9cd6)" style="fill: none; stroke: #ff7f0e; stroke-width: 1.5; stroke-linecap: square"/>
   </g>
   <g id="line2d_11">
    <path d="M 82.331283 285.37598 
L 82.331283 19.26398 
" clip-path="url(#p68097e9cd6)" style="fill: none; stroke-dasharray: 5.55,2.4; stroke-dashoffset: 0; stroke: #000000; stroke-opacity: 0.5; stroke-width: 1.5"/>
   </g>
   <g id="line2d_12">
    <path d="M 383.651283 285.37598 
L 383.651283 19.26398 
" clip-path="url(#p68097e9cd6)" style="fill: none; stroke-dasharray: 5.55,2.4; stroke-dashoffset: 0; stroke: #000000; stroke-opacity: 0.5; stroke-width: 1.5"/>
   </g>
   <g id="patch_3">
    <path d="M 48.851283 285.37598 
L 405.971283 285.37598 
" style="fill: none; stroke: #000000; stroke-width: 0.8; stroke-linejoin: miter; stroke-linecap: square"/>
   </g>
   <g id="text_11">
    <text style="font: 6.94px 'Arial', sans-serif" transform="translate(10.097767 321.385533) rotate(-35)">-0.1s Sampling</text>
   </g>
   <g id="text_12">
    <text style="font: 6.94px 'Arial', sans-serif" transform="translate(57.794497 311.430872) rotate(-35)">Sampling</text>
   </g>
   <g id="text_13">
    <text style="font: 6.94px 'Arial', sans-serif" transform="translate(319.037191 339.456682) rotate(-35)">Movement to Lateral Port</text>
   </g>
   <g id="text_14">
    <text style="font: 8.33px 'Arial', sans-serif; text-anchor: middle" x="227.411283" y="13.26398" transform="rotate(-0 227.411283 13.26398)">GP4_85_s2_L100_D250_mm2 - Trace:1_GP4_85_s2_L100_D250_mm2 (when: correct)</text>
   </g>
   <g id="legend_1">
    <g id="patch_4">
     <path d="M 133.696342 354.133136 
L 321.126224 354.133136 
Q 322.514224 354.133136 322.514224 352.745136 
L 322.514224 343.45638 
Q 322.514224 342.06838 321.126224 342.06838 
L 133.696342 342.06838 
Q 132.308342 342.06838 132.308342 343.45638 
L 132.308342 352.745136 
Q 132.308342 354.133136 133.696342 354.133136 
z
" style="fill: #ffffff; opacity: 0.8; stroke: #cccccc; stroke-linejoin: miter"/>
    </g>
    <g id="line2d_13">
     <path d="M 135.084342 347.467483 
L 142.024342 347.467483 
L 148.964342 347.467483 
" style="fill: none; stroke: #1f77b4; stroke-width: 1.5; stroke-linecap: square"/>
    </g>
    <g id="text_15">
     <text style="font: 6.94px 'Arial', sans-serif; text-anchor: start" x="154.516342" y="349.896483" transform="rotate(-0 154.516342 349.896483)">DecisionRight (88 pts)</text>
    </g>
    <g id="line2d_14">
     <path d="M 236.664255 347.467483 
L 243.604255 347.467483 
L 250.544255 347.467483 
" style="fill: none; stroke: #ff7f0e; stroke-width: 1.5; stroke-linecap: square"/>
    </g>
    <g id="text_16">
     <text style="font: 6.94px 'Arial', sans-serif; text-anchor: start" x="256.096255" y="349.896483" transform="rotate(-0 256.096255 349.896483)">DecisionLeft (88 pts)</text>
    </g>
   </g>
  </g>
 </g>
 <defs>
  <clipPath id="p68097e9cd6">
   <rect x="48.851283" y="19.26398" width="357.12" height="266.112"/>
  </clipPath>
 </defs>
</svg>
