<?xml version="1.0" encoding="utf-8" standalone="no"?>
<!DOCTYPE svg PUBLIC "-//W3C//DTD SVG 1.1//EN"
  "http://www.w3.org/Graphics/SVG/1.1/DTD/svg11.dtd">
<svg xmlns:xlink="http://www.w3.org/1999/xlink" width="413.171283pt" height="361.333136pt" viewBox="0 0 413.171283 361.333136" xmlns="http://www.w3.org/2000/svg" version="1.1">
 <metadata>
  <rdf:RDF xmlns:dc="http://purl.org/dc/elements/1.1/" xmlns:cc="http://creativecommons.org/ns#" xmlns:rdf="http://www.w3.org/1999/02/22-rdf-syntax-ns#">
   <cc:Work>
    <dc:type rdf:resource="http://purl.org/dc/dcmitype/StillImage"/>
    <dc:date>2025-12-29T04:07:47.090829</dc:date>
    <dc:format>image/svg+xml</dc:format>
    <dc:creator>
     <cc:Agent>
      <dc:title>Matplotlib v3.8.0, https://matplotlib.org/</dc:title>
     </cc:Agent>
    </dc:creator>
   </cc:Work>
  </rdf:RDF>
 </metadata>
 <defs>
  <style type="text/css">*{stroke-linejoin: round; stroke-linecap: butt}</style>
 </defs>
 <g id="figure_1">
  <g id="patch_1">
   <path d="M 0 361.333136 
L 413.171283 361.333136 
L 413.171283 -0 
L 0 -0 
z
" style="fill: #ffffff"/>
  </g>
  <g id="axes_1">
   <g id="patch_2">
    <path d="M 48.851283 285.37598 
L 405.971283 285.37598 
L 405.971283 19.26398 
L 48.851283 19.26398 
z
" style="fill: #ffffff"/>
   </g>
   <g id="PolyCollection_1">
    <defs>
     <path id="mbf37f97b52" d="M 48.851283 -138.509617 
L 48.851283 -100.521694 
L 60.011283 -111.509144 
L 71.171283 -120.351621 
L 82.331283 -136.356166 
L 93.491283 -155.710858 
L 104.651283 -192.741454 
L 115.811283 -233.347885 
L 126.971283 -255.646488 
L 138.131283 -271.086249 
L 149.291283 -275.669329 
L 160.451283 -269.471071 
L 171.611283 -270.098525 
L 182.771283 -265.625937 
L 193.931283 -261.68431 
L 205.091283 -255.327574 
L 216.251283 -247.368783 
L 227.411283 -231.894639 
L 238.571283 -222.298364 
L 249.731283 -213.102644 
L 260.891283 -209.947736 
L 272.051283 -204.325101 
L 283.211283 -193.749004 
L 294.371283 -190.969338 
L 305.531283 -185.597237 
L 316.691283 -178.295352 
L 327.851283 -170.550885 
L 339.011283 -151.870907 
L 350.171283 -136.04901 
L 361.331283 -127.978385 
L 372.491283 -114.786659 
L 383.651283 -104.83757 
L 394.811283 -111.299857 
L 405.971283 -116.37381 
L 405.971283 -158.870118 
L 405.971283 -158.870118 
L 394.811283 -154.729767 
L 383.651283 -148.226918 
L 372.491283 -159.889268 
L 361.331283 -174.104197 
L 350.171283 -184.507845 
L 339.011283 -201.013595 
L 327.851283 -219.05925 
L 316.691283 -228.419159 
L 305.531283 -238.239512 
L 294.371283 -246.89639 
L 283.211283 -252.259999 
L 272.051283 -261.794183 
L 260.891283 -266.964096 
L 249.731283 -269.77439 
L 238.571283 -277.582061 
L 227.411283 -286.315439 
L 216.251283 -301.891439 
L 205.091283 -311.241938 
L 193.931283 -319.632414 
L 182.771283 -325.218402 
L 171.611283 -327.922218 
L 160.451283 -325.596133 
L 149.291283 -329.973156 
L 138.131283 -323.830649 
L 126.971283 -305.098986 
L 115.811283 -278.267153 
L 104.651283 -232.492183 
L 93.491283 -191.990539 
L 82.331283 -170.985575 
L 71.171283 -154.988707 
L 60.011283 -146.718885 
L 48.851283 -138.509617 
z
" style="stroke: #1f77b4; stroke-opacity: 0.2"/>
    </defs>
    <g clip-path="url(#pfb45e0b7ba)">
     <use xlink:href="#mbf37f97b52" x="0" y="361.333136" style="fill: #1f77b4; fill-opacity: 0.2; stroke: #1f77b4; stroke-opacity: 0.2"/>
    </g>
   </g>
   <g id="PolyCollection_2">
    <defs>
     <path id="md7f7d7b040" d="M 48.851283 -116.396938 
L 48.851283 -88.053156 
L 60.011283 -89.541257 
L 71.171283 -99.827285 
L 82.331283 -113.197872 
L 93.491283 -125.920015 
L 104.651283 -149.879096 
L 115.811283 -172.270283 
L 126.971283 -193.614798 
L 138.131283 -206.408792 
L 149.291283 -212.84167 
L 160.451283 -222.092913 
L 171.611283 -219.623798 
L 182.771283 -205.727021 
L 193.931283 -193.329533 
L 205.091283 -192.835166 
L 216.251283 -190.545219 
L 227.411283 -183.43871 
L 238.571283 -169.14554 
L 249.731283 -153.330655 
L 260.891283 -148.225329 
L 272.051283 -142.129841 
L 283.211283 -132.934193 
L 294.371283 -115.983401 
L 305.531283 -113.374703 
L 316.691283 -110.796877 
L 327.851283 -104.053521 
L 339.011283 -97.868375 
L 350.171283 -92.73746 
L 361.331283 -94.382185 
L 372.491283 -94.646445 
L 383.651283 -93.496229 
L 394.811283 -100.289092 
L 405.971283 -100.569193 
L 405.971283 -142.021745 
L 405.971283 -142.021745 
L 394.811283 -138.568373 
L 383.651283 -129.862532 
L 372.491283 -129.897686 
L 361.331283 -129.370377 
L 350.171283 -130.522737 
L 339.011283 -139.152558 
L 327.851283 -148.953519 
L 316.691283 -157.998612 
L 305.531283 -161.330029 
L 294.371283 -164.921288 
L 283.211283 -181.9381 
L 272.051283 -192.268734 
L 260.891283 -200.666192 
L 249.731283 -207.949956 
L 238.571283 -225.001116 
L 227.411283 -239.822725 
L 216.251283 -249.95087 
L 205.091283 -253.633214 
L 193.931283 -256.762436 
L 182.771283 -270.176736 
L 171.611283 -283.932242 
L 160.451283 -287.331457 
L 149.291283 -275.505982 
L 138.131283 -266.134115 
L 126.971283 -253.47244 
L 115.811283 -226.902355 
L 104.651283 -196.296502 
L 93.491283 -160.773391 
L 82.331283 -139.586063 
L 71.171283 -122.597986 
L 60.011283 -113.140187 
L 48.851283 -116.396938 
z
" style="stroke: #ff7f0e; stroke-opacity: 0.2"/>
    </defs>
    <g clip-path="url(#pfb45e0b7ba)">
     <use xlink:href="#md7f7d7b040" x="0" y="361.333136" style="fill: #ff7f0e; fill-opacity: 0.2; stroke: #ff7f0e; stroke-opacity: 0.2"/>
    </g>
   </g>
   <g id="matplotlib.axis_1">
    <g id="text_1">
     <text style="font: 10px 'Arial', sans-serif; text-anchor: middle" x="227.411283" y="296.533792" transform="rotate(-0 227.411283 296.533792)">Time</text>
    </g>
   </g>
   <g id="matplotlib.axis_2">
    <g id="ytick_1">
     <g id="line2d_1">
      <defs>
       <path id="m6af193bf67" d="M 0 0 
L -3.5 0 
" style="stroke: #000000; stroke-width: 0.8"/>
      </defs>
      <g>
       <use xlink:href="#m6af193bf67" x="48.851283" y="264.193421" style="stroke: #000000; stroke-width: 0.8"/>
      </g>
     </g>
     <g id="text_2">
      <text style="font: 10px 'Arial', sans-serif; text-anchor: end" x="41.851283" y="267.772327" transform="rotate(-0 41.851283 267.772327)">−0.2</text>
     </g>
    </g>
    <g id="ytick_2">
     <g id="line2d_2">
      <g>
       <use xlink:href="#m6af193bf67" x="48.851283" y="218.985301" style="stroke: #000000; stroke-width: 0.8"/>
      </g>
     </g>
     <g id="text_3">
      <text style="font: 10px 'Arial', sans-serif; text-anchor: end" x="41.851283" y="222.564207" transform="rotate(-0 41.851283 222.564207)">0.0</text>
     </g>
    </g>
    <g id="ytick_3">
     <g id="line2d_3">
      <g>
       <use xlink:href="#m6af193bf67" x="48.851283" y="173.777181" style="stroke: #000000; stroke-width: 0.8"/>
      </g>
     </g>
     <g id="text_4">
      <text style="font: 10px 'Arial', sans-serif; text-anchor: end" x="41.851283" y="177.356087" transform="rotate(-0 41.851283 177.356087)">0.2</text>
     </g>
    </g>
    <g id="ytick_4">
     <g id="line2d_4">
      <g>
       <use xlink:href="#m6af193bf67" x="48.851283" y="128.569061" style="stroke: #000000; stroke-width: 0.8"/>
      </g>
     </g>
     <g id="text_5">
      <text style="font: 10px 'Arial', sans-serif; text-anchor: end" x="41.851283" y="132.147967" transform="rotate(-0 41.851283 132.147967)">0.4</text>
     </g>
    </g>
    <g id="ytick_5">
     <g id="line2d_5">
      <g>
       <use xlink:href="#m6af193bf67" x="48.851283" y="83.360941" style="stroke: #000000; stroke-width: 0.8"/>
      </g>
     </g>
     <g id="text_6">
      <text style="font: 10px 'Arial', sans-serif; text-anchor: end" x="41.851283" y="86.939847" transform="rotate(-0 41.851283 86.939847)">0.6</text>
     </g>
    </g>
    <g id="ytick_6">
     <g id="line2d_6">
      <g>
       <use xlink:href="#m6af193bf67" x="48.851283" y="38.152821" style="stroke: #000000; stroke-width: 0.8"/>
      </g>
     </g>
     <g id="text_7">
      <text style="font: 10px 'Arial', sans-serif; text-anchor: end" x="41.851283" y="41.731727" transform="rotate(-0 41.851283 41.731727)">0.8</text>
     </g>
    </g>
    <g id="text_8">
     <text style="font: 10px 'Arial', sans-serif; text-anchor: middle" x="16.005971" y="152.31998" transform="rotate(-90 16.005971 152.31998)">Activity</text>
    </g>
   </g>
   <g id="line2d_7">
    <path d="M 48.851283 241.817481 
L 60.011283 232.219122 
L 71.171283 223.662973 
L 82.331283 207.662265 
L 93.491283 187.482438 
L 104.651283 148.716318 
L 115.811283 105.525617 
L 126.971283 80.960398 
L 138.131283 63.874687 
L 149.291283 58.511893 
L 160.451283 63.799534 
L 171.611283 62.322764 
L 182.771283 65.910966 
L 193.931283 70.674774 
L 205.091283 78.048383 
L 216.251283 86.703025 
L 227.411283 102.228097 
L 238.571283 111.392924 
L 249.731283 119.894619 
L 260.891283 122.87722 
L 272.051283 128.273494 
L 283.211283 138.328635 
L 294.371283 142.40027 
L 305.531283 149.414761 
L 316.691283 157.97588 
L 327.851283 166.528069 
L 339.011283 184.890886 
L 350.171283 201.054708 
L 361.331283 210.291846 
L 372.491283 223.995173 
L 383.651283 234.800893 
L 394.811283 228.318324 
L 405.971283 223.711173 
" clip-path="url(#pfb45e0b7ba)" style="fill: none; stroke: #1f77b4; stroke-width: 1.5; stroke-linecap: square"/>
   </g>
   <g id="line2d_8">
    <path d="M 48.851283 259.108089 
L 60.011283 259.992414 
L 71.171283 250.120501 
L 82.331283 234.941168 
L 93.491283 217.986433 
L 104.651283 188.245337 
L 115.811283 161.746817 
L 126.971283 137.789517 
L 138.131283 125.061683 
L 149.291283 117.15931 
L 160.451283 106.620951 
L 171.611283 109.555116 
L 182.771283 123.381261 
L 193.931283 136.287148 
L 205.091283 138.098946 
L 216.251283 141.08509 
L 227.411283 149.702418 
L 238.571283 164.259807 
L 249.731283 180.692829 
L 260.891283 186.887376 
L 272.051283 194.133848 
L 283.211283 203.896989 
L 294.371283 220.880792 
L 305.531283 223.98077 
L 316.691283 226.935392 
L 327.851283 234.829616 
L 339.011283 242.822669 
L 350.171283 249.703037 
L 361.331283 249.456854 
L 372.491283 249.061069 
L 383.651283 249.653756 
L 394.811283 241.904404 
L 405.971283 240.037668 
" clip-path="url(#pfb45e0b7ba)" style="fill: none; stroke: #ff7f0e; stroke-width: 1.5; stroke-linecap: square"/>
   </g>
   <g id="line2d_9">
    <path d="M 82.331283 285.37598 
L 82.331283 19.26398 
" clip-path="url(#pfb45e0b7ba)" style="fill: none; stroke-dasharray: 5.55,2.4; stroke-dashoffset: 0; stroke: #000000; stroke-opacity: 0.5; stroke-width: 1.5"/>
   </g>
   <g id="line2d_10">
    <path d="M 383.651283 285.37598 
L 383.651283 19.26398 
" clip-path="url(#pfb45e0b7ba)" style="fill: none; stroke-dasharray: 5.55,2.4; stroke-dashoffset: 0; stroke: #000000; stroke-opacity: 0.5; stroke-width: 1.5"/>
   </g>
   <g id="patch_3">
    <path d="M 48.851283 285.37598 
L 405.971283 285.37598 
" style="fill: none; stroke: #000000; stroke-width: 0.8; stroke-linejoin: miter; stroke-linecap: square"/>
   </g>
   <g id="text_9">
    <text style="font: 6.94px 'Arial', sans-serif" transform="translate(10.097767 321.385533) rotate(-35)">-0.1s Sampling</text>
   </g>
   <g id="text_10">
    <text style="font: 6.94px 'Arial', sans-serif" transform="translate(57.794497 311.430872) rotate(-35)">Sampling</text>
   </g>
   <g id="text_11">
    <text style="font: 6.94px 'Arial', sans-serif" transform="translate(319.037191 339.456682) rotate(-35)">Movement to Lateral Port</text>
   </g>
   <g id="text_12">
    <text style="font: 8.33px 'Arial', sans-serif; text-anchor: middle" x="227.411283" y="13.26398" transform="rotate(-0 227.411283 13.26398)">GP4_85_s2_L100_D250_mm2 - Trace:23_GP4_85_s2_L100_D250_mm2 (when: correct)</text>
   </g>
   <g id="legend_1">
    <g id="patch_4">
     <path d="M 133.696342 354.133136 
L 321.126224 354.133136 
Q 322.514224 354.133136 322.514224 352.745136 
L 322.514224 343.45638 
Q 322.514224 342.06838 321.126224 342.06838 
L 133.696342 342.06838 
Q 132.308342 342.06838 132.308342 343.45638 
L 132.308342 352.745136 
Q 132.308342 354.133136 133.696342 354.133136 
z
" style="fill: #ffffff; opacity: 0.8; stroke: #cccccc; stroke-linejoin: miter"/>
    </g>
    <g id="line2d_11">
     <path d="M 135.084342 347.467483 
L 142.024342 347.467483 
L 148.964342 347.467483 
" style="fill: none; stroke: #1f77b4; stroke-width: 1.5; stroke-linecap: square"/>
    </g>
    <g id="text_13">
     <text style="font: 6.94px 'Arial', sans-serif; text-anchor: start" x="154.516342" y="349.896483" transform="rotate(-0 154.516342 349.896483)">DecisionRight (88 pts)</text>
    </g>
    <g id="line2d_12">
     <path d="M 236.664255 347.467483 
L 243.604255 347.467483 
L 250.544255 347.467483 
" style="fill: none; stroke: #ff7f0e; stroke-width: 1.5; stroke-linecap: square"/>
    </g>
    <g id="text_14">
     <text style="font: 6.94px 'Arial', sans-serif; text-anchor: start" x="256.096255" y="349.896483" transform="rotate(-0 256.096255 349.896483)">DecisionLeft (88 pts)</text>
    </g>
   </g>
  </g>
 </g>
 <defs>
  <clipPath id="pfb45e0b7ba">
   <rect x="48.851283" y="19.26398" width="357.12" height="266.112"/>
  </clipPath>
 </defs>
</svg>
