<?xml version="1.0" encoding="utf-8" standalone="no"?>
<!DOCTYPE svg PUBLIC "-//W3C//DTD SVG 1.1//EN"
  "http://www.w3.org/Graphics/SVG/1.1/DTD/svg11.dtd">
<svg xmlns:xlink="http://www.w3.org/1999/xlink" width="413.171283pt" height="361.333136pt" viewBox="0 0 413.171283 361.333136" xmlns="http://www.w3.org/2000/svg" version="1.1">
 <metadata>
  <rdf:RDF xmlns:dc="http://purl.org/dc/elements/1.1/" xmlns:cc="http://creativecommons.org/ns#" xmlns:rdf="http://www.w3.org/1999/02/22-rdf-syntax-ns#">
   <cc:Work>
    <dc:type rdf:resource="http://purl.org/dc/dcmitype/StillImage"/>
    <dc:date>2025-12-29T04:07:48.762392</dc:date>
    <dc:format>image/svg+xml</dc:format>
    <dc:creator>
     <cc:Agent>
      <dc:title>Matplotlib v3.8.0, https://matplotlib.org/</dc:title>
     </cc:Agent>
    </dc:creator>
   </cc:Work>
  </rdf:RDF>
 </metadata>
 <defs>
  <style type="text/css">*{stroke-linejoin: round; stroke-linecap: butt}</style>
 </defs>
 <g id="figure_1">
  <g id="patch_1">
   <path d="M 0 361.333136 
L 413.171283 361.333136 
L 413.171283 -0 
L 0 -0 
z
" style="fill: #ffffff"/>
  </g>
  <g id="axes_1">
   <g id="patch_2">
    <path d="M 48.851283 285.37598 
L 405.971283 285.37598 
L 405.971283 19.26398 
L 48.851283 19.26398 
z
" style="fill: #ffffff"/>
   </g>
   <g id="PolyCollection_1">
    <defs>
     <path id="m1b1c66f001" d="M 48.851283 -298.875036 
L 48.851283 -234.573637 
L 60.011283 -263.147504 
L 71.171283 -262.461199 
L 82.331283 -254.846853 
L 93.491283 -242.914682 
L 104.651283 -235.707796 
L 115.811283 -238.601895 
L 126.971283 -238.098736 
L 138.131283 -237.445961 
L 149.291283 -225.058995 
L 160.451283 -194.003979 
L 171.611283 -181.965309 
L 182.771283 -189.705214 
L 193.931283 -182.689716 
L 205.091283 -175.178486 
L 216.251283 -167.478398 
L 227.411283 -160.409093 
L 238.571283 -150.344046 
L 249.731283 -147.633266 
L 260.891283 -161.402342 
L 272.051283 -163.258513 
L 283.211283 -153.461334 
L 294.371283 -152.691667 
L 305.531283 -149.302585 
L 316.691283 -150.030251 
L 327.851283 -142.336008 
L 339.011283 -137.625121 
L 350.171283 -132.350879 
L 361.331283 -122.592054 
L 372.491283 -109.351111 
L 383.651283 -91.262878 
L 394.811283 -88.053156 
L 405.971283 -109.299142 
L 405.971283 -168.775592 
L 405.971283 -168.775592 
L 394.811283 -155.426207 
L 383.651283 -165.221513 
L 372.491283 -189.851015 
L 361.331283 -207.10435 
L 350.171283 -222.025733 
L 339.011283 -232.606626 
L 327.851283 -236.910472 
L 316.691283 -242.483753 
L 305.531283 -237.488114 
L 294.371283 -235.416688 
L 283.211283 -232.437987 
L 272.051283 -240.945304 
L 260.891283 -239.238563 
L 249.731283 -224.925928 
L 238.571283 -226.371964 
L 227.411283 -234.078252 
L 216.251283 -239.930262 
L 205.091283 -246.087771 
L 193.931283 -251.094826 
L 182.771283 -257.870957 
L 171.611283 -248.52263 
L 160.451283 -258.279336 
L 149.291283 -285.477646 
L 138.131283 -294.157251 
L 126.971283 -294.690575 
L 115.811283 -296.359521 
L 104.651283 -294.323139 
L 93.491283 -305.264041 
L 82.331283 -318.608832 
L 71.171283 -329.054096 
L 60.011283 -329.973156 
L 48.851283 -298.875036 
z
" style="stroke: #1f77b4; stroke-opacity: 0.2"/>
    </defs>
    <g clip-path="url(#p066fb14725)">
     <use xlink:href="#m1b1c66f001" x="0" y="361.333136" style="fill: #1f77b4; fill-opacity: 0.2; stroke: #1f77b4; stroke-opacity: 0.2"/>
    </g>
   </g>
   <g id="PolyCollection_2">
    <defs>
     <path id="mb0542d892f" d="M 48.851283 -279.614843 
L 48.851283 -234.66251 
L 60.011283 -242.024158 
L 71.171283 -235.264358 
L 82.331283 -241.870105 
L 93.491283 -243.829341 
L 104.651283 -240.563072 
L 115.811283 -225.112896 
L 126.971283 -216.756714 
L 138.131283 -212.190817 
L 149.291283 -210.419888 
L 160.451283 -210.581962 
L 171.611283 -198.54159 
L 182.771283 -185.810714 
L 193.931283 -179.319231 
L 205.091283 -171.966388 
L 216.251283 -161.822883 
L 227.411283 -133.93991 
L 238.571283 -120.923233 
L 249.731283 -108.593736 
L 260.891283 -108.485456 
L 272.051283 -120.867496 
L 283.211283 -120.343525 
L 294.371283 -111.911707 
L 305.531283 -110.92486 
L 316.691283 -115.944859 
L 327.851283 -119.231683 
L 339.011283 -124.970338 
L 350.171283 -129.549714 
L 361.331283 -126.174198 
L 372.491283 -127.755331 
L 383.651283 -113.279507 
L 394.811283 -106.230048 
L 405.971283 -106.573968 
L 405.971283 -179.037979 
L 405.971283 -179.037979 
L 394.811283 -184.138362 
L 383.651283 -193.880352 
L 372.491283 -207.072271 
L 361.331283 -204.103657 
L 350.171283 -207.322316 
L 339.011283 -203.78317 
L 327.851283 -198.613137 
L 316.691283 -194.065666 
L 305.531283 -184.863176 
L 294.371283 -186.658514 
L 283.211283 -196.826434 
L 272.051283 -195.342668 
L 260.891283 -171.613417 
L 249.731283 -159.196886 
L 238.571283 -166.438005 
L 227.411283 -177.24555 
L 216.251283 -204.394476 
L 205.091283 -215.355444 
L 193.931283 -220.766441 
L 182.771283 -225.285589 
L 171.611283 -236.27927 
L 160.451283 -248.909705 
L 149.291283 -248.814346 
L 138.131283 -248.502824 
L 126.971283 -252.887515 
L 115.811283 -263.503459 
L 104.651283 -277.729104 
L 93.491283 -281.665761 
L 82.331283 -279.651139 
L 71.171283 -277.79398 
L 60.011283 -288.860116 
L 48.851283 -279.614843 
z
" style="stroke: #ff7f0e; stroke-opacity: 0.2"/>
    </defs>
    <g clip-path="url(#p066fb14725)">
     <use xlink:href="#mb0542d892f" x="0" y="361.333136" style="fill: #ff7f0e; fill-opacity: 0.2; stroke: #ff7f0e; stroke-opacity: 0.2"/>
    </g>
   </g>
   <g id="matplotlib.axis_1">
    <g id="text_1">
     <text style="font: 10px 'Arial', sans-serif; text-anchor: middle" x="227.411283" y="296.533792" transform="rotate(-0 227.411283 296.533792)">Time</text>
    </g>
   </g>
   <g id="matplotlib.axis_2">
    <g id="ytick_1">
     <g id="line2d_1">
      <defs>
       <path id="maa3c9e625f" d="M 0 0 
L -3.5 0 
" style="stroke: #000000; stroke-width: 0.8"/>
      </defs>
      <g>
       <use xlink:href="#maa3c9e625f" x="48.851283" y="263.392721" style="stroke: #000000; stroke-width: 0.8"/>
      </g>
     </g>
     <g id="text_2">
      <text style="font: 10px 'Arial', sans-serif; text-anchor: end" x="41.851283" y="266.971627" transform="rotate(-0 41.851283 266.971627)">−0.2</text>
     </g>
    </g>
    <g id="ytick_2">
     <g id="line2d_2">
      <g>
       <use xlink:href="#maa3c9e625f" x="48.851283" y="214.812775" style="stroke: #000000; stroke-width: 0.8"/>
      </g>
     </g>
     <g id="text_3">
      <text style="font: 10px 'Arial', sans-serif; text-anchor: end" x="41.851283" y="218.391681" transform="rotate(-0 41.851283 218.391681)">0.0</text>
     </g>
    </g>
    <g id="ytick_3">
     <g id="line2d_3">
      <g>
       <use xlink:href="#maa3c9e625f" x="48.851283" y="166.232829" style="stroke: #000000; stroke-width: 0.8"/>
      </g>
     </g>
     <g id="text_4">
      <text style="font: 10px 'Arial', sans-serif; text-anchor: end" x="41.851283" y="169.811735" transform="rotate(-0 41.851283 169.811735)">0.2</text>
     </g>
    </g>
    <g id="ytick_4">
     <g id="line2d_4">
      <g>
       <use xlink:href="#maa3c9e625f" x="48.851283" y="117.652883" style="stroke: #000000; stroke-width: 0.8"/>
      </g>
     </g>
     <g id="text_5">
      <text style="font: 10px 'Arial', sans-serif; text-anchor: end" x="41.851283" y="121.231789" transform="rotate(-0 41.851283 121.231789)">0.4</text>
     </g>
    </g>
    <g id="ytick_5">
     <g id="line2d_5">
      <g>
       <use xlink:href="#maa3c9e625f" x="48.851283" y="69.072937" style="stroke: #000000; stroke-width: 0.8"/>
      </g>
     </g>
     <g id="text_6">
      <text style="font: 10px 'Arial', sans-serif; text-anchor: end" x="41.851283" y="72.651843" transform="rotate(-0 41.851283 72.651843)">0.6</text>
     </g>
    </g>
    <g id="ytick_6">
     <g id="line2d_6">
      <g>
       <use xlink:href="#maa3c9e625f" x="48.851283" y="20.492991" style="stroke: #000000; stroke-width: 0.8"/>
      </g>
     </g>
     <g id="text_7">
      <text style="font: 10px 'Arial', sans-serif; text-anchor: end" x="41.851283" y="24.071897" transform="rotate(-0 41.851283 24.071897)">0.8</text>
     </g>
    </g>
    <g id="text_8">
     <text style="font: 10px 'Arial', sans-serif; text-anchor: middle" x="16.005971" y="152.31998" transform="rotate(-90 16.005971 152.31998)">Activity</text>
    </g>
   </g>
   <g id="line2d_7">
    <path d="M 48.851283 94.608796 
L 60.011283 64.772806 
L 71.171283 65.575492 
L 82.331283 74.60529 
L 93.491283 87.243775 
L 104.651283 96.317665 
L 115.811283 93.852431 
L 126.971283 94.93848 
L 138.131283 95.531526 
L 149.291283 106.064816 
L 160.451283 135.19148 
L 171.611283 146.089165 
L 182.771283 137.545052 
L 193.931283 144.440865 
L 205.091283 150.700009 
L 216.251283 157.628806 
L 227.411283 164.089465 
L 238.571283 172.975131 
L 249.731283 175.053539 
L 260.891283 161.012683 
L 272.051283 159.231226 
L 283.211283 168.383474 
L 294.371283 167.278958 
L 305.531283 167.937785 
L 316.691283 165.076134 
L 327.851283 171.709896 
L 339.011283 176.217262 
L 350.171283 184.144828 
L 361.331283 196.484935 
L 372.491283 211.732072 
L 383.651283 233.09094 
L 394.811283 239.593453 
L 405.971283 222.295769 
" clip-path="url(#p066fb14725)" style="fill: none; stroke: #1f77b4; stroke-width: 1.5; stroke-linecap: square"/>
   </g>
   <g id="line2d_8">
    <path d="M 48.851283 104.19446 
L 60.011283 95.890999 
L 71.171283 104.803967 
L 82.331283 100.572518 
L 93.491283 98.585585 
L 104.651283 102.187048 
L 115.811283 117.024958 
L 126.971283 126.511021 
L 138.131283 130.986315 
L 149.291283 131.716019 
L 160.451283 131.587302 
L 171.611283 143.922706 
L 182.771283 155.784984 
L 193.931283 161.290298 
L 205.091283 167.672219 
L 216.251283 178.224456 
L 227.411283 205.740406 
L 238.571283 217.652516 
L 249.731283 227.437825 
L 260.891283 221.2837 
L 272.051283 203.228053 
L 283.211283 202.748156 
L 294.371283 212.048026 
L 305.531283 213.439118 
L 316.691283 206.327875 
L 327.851283 202.410726 
L 339.011283 196.956382 
L 350.171283 192.897123 
L 361.331283 196.194208 
L 372.491283 193.919335 
L 383.651283 207.753207 
L 394.811283 216.148932 
L 405.971283 218.527162 
" clip-path="url(#p066fb14725)" style="fill: none; stroke: #ff7f0e; stroke-width: 1.5; stroke-linecap: square"/>
   </g>
   <g id="line2d_9">
    <path d="M 82.331283 285.37598 
L 82.331283 19.26398 
" clip-path="url(#p066fb14725)" style="fill: none; stroke-dasharray: 5.55,2.4; stroke-dashoffset: 0; stroke: #000000; stroke-opacity: 0.5; stroke-width: 1.5"/>
   </g>
   <g id="line2d_10">
    <path d="M 383.651283 285.37598 
L 383.651283 19.26398 
" clip-path="url(#p066fb14725)" style="fill: none; stroke-dasharray: 5.55,2.4; stroke-dashoffset: 0; stroke: #000000; stroke-opacity: 0.5; stroke-width: 1.5"/>
   </g>
   <g id="patch_3">
    <path d="M 48.851283 285.37598 
L 405.971283 285.37598 
" style="fill: none; stroke: #000000; stroke-width: 0.8; stroke-linejoin: miter; stroke-linecap: square"/>
   </g>
   <g id="text_9">
    <text style="font: 6.94px 'Arial', sans-serif" transform="translate(10.097767 321.385533) rotate(-35)">-0.1s Sampling</text>
   </g>
   <g id="text_10">
    <text style="font: 6.94px 'Arial', sans-serif" transform="translate(57.794497 311.430872) rotate(-35)">Sampling</text>
   </g>
   <g id="text_11">
    <text style="font: 6.94px 'Arial', sans-serif" transform="translate(319.037191 339.456682) rotate(-35)">Movement to Lateral Port</text>
   </g>
   <g id="text_12">
    <text style="font: 8.33px 'Arial', sans-serif; text-anchor: middle" x="227.411283" y="13.26398" transform="rotate(-0 227.411283 13.26398)">GP4_85_s2_L100_D250_mm2 - Trace:32_GP4_85_s2_L100_D250_mm2 (when: correct)</text>
   </g>
   <g id="legend_1">
    <g id="patch_4">
     <path d="M 133.696342 354.133136 
L 321.126224 354.133136 
Q 322.514224 354.133136 322.514224 352.745136 
L 322.514224 343.45638 
Q 322.514224 342.06838 321.126224 342.06838 
L 133.696342 342.06838 
Q 132.308342 342.06838 132.308342 343.45638 
L 132.308342 352.745136 
Q 132.308342 354.133136 133.696342 354.133136 
z
" style="fill: #ffffff; opacity: 0.8; stroke: #cccccc; stroke-linejoin: miter"/>
    </g>
    <g id="line2d_11">
     <path d="M 135.084342 347.467483 
L 142.024342 347.467483 
L 148.964342 347.467483 
" style="fill: none; stroke: #1f77b4; stroke-width: 1.5; stroke-linecap: square"/>
    </g>
    <g id="text_13">
     <text style="font: 6.94px 'Arial', sans-serif; text-anchor: start" x="154.516342" y="349.896483" transform="rotate(-0 154.516342 349.896483)">DecisionRight (88 pts)</text>
    </g>
    <g id="line2d_12">
     <path d="M 236.664255 347.467483 
L 243.604255 347.467483 
L 250.544255 347.467483 
" style="fill: none; stroke: #ff7f0e; stroke-width: 1.5; stroke-linecap: square"/>
    </g>
    <g id="text_14">
     <text style="font: 6.94px 'Arial', sans-serif; text-anchor: start" x="256.096255" y="349.896483" transform="rotate(-0 256.096255 349.896483)">DecisionLeft (88 pts)</text>
    </g>
   </g>
  </g>
 </g>
 <defs>
  <clipPath id="p066fb14725">
   <rect x="48.851283" y="19.26398" width="357.12" height="266.112"/>
  </clipPath>
 </defs>
</svg>
