<?xml version="1.0" encoding="utf-8" standalone="no"?>
<!DOCTYPE svg PUBLIC "-//W3C//DTD SVG 1.1//EN"
  "http://www.w3.org/Graphics/SVG/1.1/DTD/svg11.dtd">
<svg xmlns:xlink="http://www.w3.org/1999/xlink" width="413.171283pt" height="361.333136pt" viewBox="0 0 413.171283 361.333136" xmlns="http://www.w3.org/2000/svg" version="1.1">
 <metadata>
  <rdf:RDF xmlns:dc="http://purl.org/dc/elements/1.1/" xmlns:cc="http://creativecommons.org/ns#" xmlns:rdf="http://www.w3.org/1999/02/22-rdf-syntax-ns#">
   <cc:Work>
    <dc:type rdf:resource="http://purl.org/dc/dcmitype/StillImage"/>
    <dc:date>2025-12-29T04:07:49.183743</dc:date>
    <dc:format>image/svg+xml</dc:format>
    <dc:creator>
     <cc:Agent>
      <dc:title>Matplotlib v3.8.0, https://matplotlib.org/</dc:title>
     </cc:Agent>
    </dc:creator>
   </cc:Work>
  </rdf:RDF>
 </metadata>
 <defs>
  <style type="text/css">*{stroke-linejoin: round; stroke-linecap: butt}</style>
 </defs>
 <g id="figure_1">
  <g id="patch_1">
   <path d="M 0 361.333136 
L 413.171283 361.333136 
L 413.171283 -0 
L 0 -0 
z
" style="fill: #ffffff"/>
  </g>
  <g id="axes_1">
   <g id="patch_2">
    <path d="M 48.851283 285.37598 
L 405.971283 285.37598 
L 405.971283 19.26398 
L 48.851283 19.26398 
z
" style="fill: #ffffff"/>
   </g>
   <g id="PolyCollection_1">
    <defs>
     <path id="m7947df856e" d="M 48.851283 -266.515046 
L 48.851283 -216.233213 
L 60.011283 -242.225696 
L 71.171283 -267.631105 
L 82.331283 -270.049499 
L 93.491283 -266.906891 
L 104.651283 -251.042438 
L 115.811283 -238.258264 
L 126.971283 -233.086138 
L 138.131283 -227.222891 
L 149.291283 -216.365312 
L 160.451283 -204.692317 
L 171.611283 -198.641231 
L 182.771283 -196.363879 
L 193.931283 -186.209354 
L 205.091283 -177.346116 
L 216.251283 -170.91035 
L 227.411283 -166.970459 
L 238.571283 -162.311351 
L 249.731283 -148.384212 
L 260.891283 -139.011682 
L 272.051283 -131.948898 
L 283.211283 -124.456579 
L 294.371283 -117.916444 
L 305.531283 -111.022876 
L 316.691283 -113.323397 
L 327.851283 -117.037516 
L 339.011283 -118.311189 
L 350.171283 -115.642637 
L 361.331283 -116.466979 
L 372.491283 -122.228183 
L 383.651283 -116.670986 
L 394.811283 -114.469084 
L 405.971283 -129.989846 
L 405.971283 -153.569449 
L 405.971283 -153.569449 
L 394.811283 -138.521581 
L 383.651283 -142.324994 
L 372.491283 -150.512614 
L 361.331283 -144.75908 
L 350.171283 -146.424152 
L 339.011283 -151.745799 
L 327.851283 -152.25238 
L 316.691283 -148.697075 
L 305.531283 -147.488406 
L 294.371283 -155.682862 
L 283.211283 -163.12606 
L 272.051283 -171.729071 
L 260.891283 -181.387137 
L 249.731283 -191.592745 
L 238.571283 -205.441697 
L 227.411283 -210.389601 
L 216.251283 -214.464974 
L 205.091283 -221.123183 
L 193.931283 -230.765276 
L 182.771283 -242.892537 
L 171.611283 -244.062634 
L 160.451283 -246.732517 
L 149.291283 -256.308406 
L 138.131283 -269.857039 
L 126.971283 -279.02953 
L 115.811283 -288.514081 
L 104.651283 -305.585224 
L 93.491283 -321.939366 
L 82.331283 -328.286801 
L 71.171283 -329.973156 
L 60.011283 -301.292191 
L 48.851283 -266.515046 
z
" style="stroke: #1f77b4; stroke-opacity: 0.2"/>
    </defs>
    <g clip-path="url(#p857adc6ea5)">
     <use xlink:href="#m7947df856e" x="0" y="361.333136" style="fill: #1f77b4; fill-opacity: 0.2; stroke: #1f77b4; stroke-opacity: 0.2"/>
    </g>
   </g>
   <g id="PolyCollection_2">
    <defs>
     <path id="mc7381120fb" d="M 48.851283 -278.151692 
L 48.851283 -226.969406 
L 60.011283 -239.68587 
L 71.171283 -249.217849 
L 82.331283 -251.822278 
L 93.491283 -241.842418 
L 104.651283 -230.819002 
L 115.811283 -222.46098 
L 126.971283 -213.814529 
L 138.131283 -202.181494 
L 149.291283 -204.256477 
L 160.451283 -203.663193 
L 171.611283 -195.144241 
L 182.771283 -186.220964 
L 193.931283 -183.747307 
L 205.091283 -170.643894 
L 216.251283 -155.352247 
L 227.411283 -146.865934 
L 238.571283 -143.001912 
L 249.731283 -142.192839 
L 260.891283 -135.526103 
L 272.051283 -131.328013 
L 283.211283 -136.892136 
L 294.371283 -127.530052 
L 305.531283 -128.860375 
L 316.691283 -126.593074 
L 327.851283 -113.13837 
L 339.011283 -98.672636 
L 350.171283 -88.053156 
L 361.331283 -90.598803 
L 372.491283 -99.960874 
L 383.651283 -98.106893 
L 394.811283 -94.137165 
L 405.971283 -90.632764 
L 405.971283 -111.739514 
L 405.971283 -111.739514 
L 394.811283 -117.487224 
L 383.651283 -121.75098 
L 372.491283 -122.007659 
L 361.331283 -112.168488 
L 350.171283 -111.328437 
L 339.011283 -122.149818 
L 327.851283 -137.23261 
L 316.691283 -151.407796 
L 305.531283 -154.691834 
L 294.371283 -153.448539 
L 283.211283 -163.558702 
L 272.051283 -160.555973 
L 260.891283 -167.085377 
L 249.731283 -175.153836 
L 238.571283 -177.961414 
L 227.411283 -183.14896 
L 216.251283 -192.906933 
L 205.091283 -209.935589 
L 193.931283 -225.322318 
L 182.771283 -231.14229 
L 171.611283 -242.450461 
L 160.451283 -250.456749 
L 149.291283 -252.0876 
L 138.131283 -250.366844 
L 126.971283 -262.120348 
L 115.811283 -272.983432 
L 104.651283 -284.572006 
L 93.491283 -296.543072 
L 82.331283 -310.442027 
L 71.171283 -310.017311 
L 60.011283 -296.414578 
L 48.851283 -278.151692 
z
" style="stroke: #ff7f0e; stroke-opacity: 0.2"/>
    </defs>
    <g clip-path="url(#p857adc6ea5)">
     <use xlink:href="#mc7381120fb" x="0" y="361.333136" style="fill: #ff7f0e; fill-opacity: 0.2; stroke: #ff7f0e; stroke-opacity: 0.2"/>
    </g>
   </g>
   <g id="matplotlib.axis_1">
    <g id="text_1">
     <text style="font: 10px 'Arial', sans-serif; text-anchor: middle" x="227.411283" y="296.533792" transform="rotate(-0 227.411283 296.533792)">Time</text>
    </g>
   </g>
   <g id="matplotlib.axis_2">
    <g id="ytick_1">
     <g id="line2d_1">
      <defs>
       <path id="m7729da9b1f" d="M 0 0 
L -3.5 0 
" style="stroke: #000000; stroke-width: 0.8"/>
      </defs>
      <g>
       <use xlink:href="#m7729da9b1f" x="48.851283" y="251.512266" style="stroke: #000000; stroke-width: 0.8"/>
      </g>
     </g>
     <g id="text_2">
      <text style="font: 10px 'Arial', sans-serif; text-anchor: end" x="41.851283" y="255.091172" transform="rotate(-0 41.851283 255.091172)">−0.4</text>
     </g>
    </g>
    <g id="ytick_2">
     <g id="line2d_2">
      <g>
       <use xlink:href="#m7729da9b1f" x="48.851283" y="205.497963" style="stroke: #000000; stroke-width: 0.8"/>
      </g>
     </g>
     <g id="text_3">
      <text style="font: 10px 'Arial', sans-serif; text-anchor: end" x="41.851283" y="209.076869" transform="rotate(-0 41.851283 209.076869)">−0.2</text>
     </g>
    </g>
    <g id="ytick_3">
     <g id="line2d_3">
      <g>
       <use xlink:href="#m7729da9b1f" x="48.851283" y="159.483659" style="stroke: #000000; stroke-width: 0.8"/>
      </g>
     </g>
     <g id="text_4">
      <text style="font: 10px 'Arial', sans-serif; text-anchor: end" x="41.851283" y="163.062566" transform="rotate(-0 41.851283 163.062566)">0.0</text>
     </g>
    </g>
    <g id="ytick_4">
     <g id="line2d_4">
      <g>
       <use xlink:href="#m7729da9b1f" x="48.851283" y="113.469356" style="stroke: #000000; stroke-width: 0.8"/>
      </g>
     </g>
     <g id="text_5">
      <text style="font: 10px 'Arial', sans-serif; text-anchor: end" x="41.851283" y="117.048262" transform="rotate(-0 41.851283 117.048262)">0.2</text>
     </g>
    </g>
    <g id="ytick_5">
     <g id="line2d_5">
      <g>
       <use xlink:href="#m7729da9b1f" x="48.851283" y="67.455052" style="stroke: #000000; stroke-width: 0.8"/>
      </g>
     </g>
     <g id="text_6">
      <text style="font: 10px 'Arial', sans-serif; text-anchor: end" x="41.851283" y="71.033959" transform="rotate(-0 41.851283 71.033959)">0.4</text>
     </g>
    </g>
    <g id="ytick_6">
     <g id="line2d_6">
      <g>
       <use xlink:href="#m7729da9b1f" x="48.851283" y="21.440749" style="stroke: #000000; stroke-width: 0.8"/>
      </g>
     </g>
     <g id="text_7">
      <text style="font: 10px 'Arial', sans-serif; text-anchor: end" x="41.851283" y="25.019655" transform="rotate(-0 41.851283 25.019655)">0.6</text>
     </g>
    </g>
    <g id="text_8">
     <text style="font: 10px 'Arial', sans-serif; text-anchor: middle" x="16.005971" y="152.31998" transform="rotate(-90 16.005971 152.31998)">Activity</text>
    </g>
   </g>
   <g id="line2d_7">
    <path d="M 48.851283 119.959007 
L 60.011283 89.574195 
L 71.171283 62.531005 
L 82.331283 62.164983 
L 93.491283 66.910008 
L 104.651283 83.019305 
L 115.811283 97.946965 
L 126.971283 105.2753 
L 138.131283 112.793171 
L 149.291283 124.996277 
L 160.451283 135.62072 
L 171.611283 139.981204 
L 182.771283 141.704927 
L 193.931283 152.845822 
L 205.091283 162.098486 
L 216.251283 168.645473 
L 227.411283 172.653106 
L 238.571283 177.456612 
L 249.731283 191.344657 
L 260.891283 201.133727 
L 272.051283 209.494152 
L 283.211283 217.541816 
L 294.371283 224.533483 
L 305.531283 232.077495 
L 316.691283 230.322902 
L 327.851283 226.68819 
L 339.011283 226.304642 
L 350.171283 230.29974 
L 361.331283 230.720108 
L 372.491283 224.962738 
L 383.651283 231.835146 
L 394.811283 234.837803 
L 405.971283 219.553487 
" clip-path="url(#p857adc6ea5)" style="fill: none; stroke: #1f77b4; stroke-width: 1.5; stroke-linecap: square"/>
   </g>
   <g id="line2d_8">
    <path d="M 48.851283 108.772587 
L 60.011283 93.28291 
L 71.171283 81.715558 
L 82.331283 80.200982 
L 93.491283 92.140391 
L 104.651283 103.63763 
L 115.811283 113.610932 
L 126.971283 123.365697 
L 138.131283 135.058967 
L 149.291283 133.161097 
L 160.451283 134.273166 
L 171.611283 142.535785 
L 182.771283 152.651508 
L 193.931283 156.798324 
L 205.091283 171.043394 
L 216.251283 187.203545 
L 227.411283 196.325689 
L 238.571283 200.851472 
L 249.731283 202.659798 
L 260.891283 210.027398 
L 272.051283 215.391141 
L 283.211283 211.107717 
L 294.371283 220.843843 
L 305.531283 219.557032 
L 316.691283 222.332699 
L 327.851283 236.147646 
L 339.011283 250.921909 
L 350.171283 261.64234 
L 361.331283 259.949491 
L 372.491283 250.34887 
L 383.651283 251.4042 
L 394.811283 255.520942 
L 405.971283 260.146997 
" clip-path="url(#p857adc6ea5)" style="fill: none; stroke: #ff7f0e; stroke-width: 1.5; stroke-linecap: square"/>
   </g>
   <g id="line2d_9">
    <path d="M 82.331283 285.37598 
L 82.331283 19.26398 
" clip-path="url(#p857adc6ea5)" style="fill: none; stroke-dasharray: 5.55,2.4; stroke-dashoffset: 0; stroke: #000000; stroke-opacity: 0.5; stroke-width: 1.5"/>
   </g>
   <g id="line2d_10">
    <path d="M 383.651283 285.37598 
L 383.651283 19.26398 
" clip-path="url(#p857adc6ea5)" style="fill: none; stroke-dasharray: 5.55,2.4; stroke-dashoffset: 0; stroke: #000000; stroke-opacity: 0.5; stroke-width: 1.5"/>
   </g>
   <g id="patch_3">
    <path d="M 48.851283 285.37598 
L 405.971283 285.37598 
" style="fill: none; stroke: #000000; stroke-width: 0.8; stroke-linejoin: miter; stroke-linecap: square"/>
   </g>
   <g id="text_9">
    <text style="font: 6.94px 'Arial', sans-serif" transform="translate(10.097767 321.385533) rotate(-35)">-0.1s Sampling</text>
   </g>
   <g id="text_10">
    <text style="font: 6.94px 'Arial', sans-serif" transform="translate(57.794497 311.430872) rotate(-35)">Sampling</text>
   </g>
   <g id="text_11">
    <text style="font: 6.94px 'Arial', sans-serif" transform="translate(319.037191 339.456682) rotate(-35)">Movement to Lateral Port</text>
   </g>
   <g id="text_12">
    <text style="font: 8.33px 'Arial', sans-serif; text-anchor: middle" x="227.411283" y="13.26398" transform="rotate(-0 227.411283 13.26398)">GP4_85_s2_L100_D250_mm2 - Trace:39_GP4_85_s2_L100_D250_mm2 (when: correct)</text>
   </g>
   <g id="legend_1">
    <g id="patch_4">
     <path d="M 133.696342 354.133136 
L 321.126224 354.133136 
Q 322.514224 354.133136 322.514224 352.745136 
L 322.514224 343.45638 
Q 322.514224 342.06838 321.126224 342.06838 
L 133.696342 342.06838 
Q 132.308342 342.06838 132.308342 343.45638 
L 132.308342 352.745136 
Q 132.308342 354.133136 133.696342 354.133136 
z
" style="fill: #ffffff; opacity: 0.8; stroke: #cccccc; stroke-linejoin: miter"/>
    </g>
    <g id="line2d_11">
     <path d="M 135.084342 347.467483 
L 142.024342 347.467483 
L 148.964342 347.467483 
" style="fill: none; stroke: #1f77b4; stroke-width: 1.5; stroke-linecap: square"/>
    </g>
    <g id="text_13">
     <text style="font: 6.94px 'Arial', sans-serif; text-anchor: start" x="154.516342" y="349.896483" transform="rotate(-0 154.516342 349.896483)">DecisionRight (88 pts)</text>
    </g>
    <g id="line2d_12">
     <path d="M 236.664255 347.467483 
L 243.604255 347.467483 
L 250.544255 347.467483 
" style="fill: none; stroke: #ff7f0e; stroke-width: 1.5; stroke-linecap: square"/>
    </g>
    <g id="text_14">
     <text style="font: 6.94px 'Arial', sans-serif; text-anchor: start" x="256.096255" y="349.896483" transform="rotate(-0 256.096255 349.896483)">DecisionLeft (88 pts)</text>
    </g>
   </g>
  </g>
 </g>
 <defs>
  <clipPath id="p857adc6ea5">
   <rect x="48.851283" y="19.26398" width="357.12" height="266.112"/>
  </clipPath>
 </defs>
</svg>
