<?xml version="1.0" encoding="utf-8" standalone="no"?>
<!DOCTYPE svg PUBLIC "-//W3C//DTD SVG 1.1//EN"
  "http://www.w3.org/Graphics/SVG/1.1/DTD/svg11.dtd">
<svg xmlns:xlink="http://www.w3.org/1999/xlink" width="413.171283pt" height="361.333136pt" viewBox="0 0 413.171283 361.333136" xmlns="http://www.w3.org/2000/svg" version="1.1">
 <metadata>
  <rdf:RDF xmlns:dc="http://purl.org/dc/elements/1.1/" xmlns:cc="http://creativecommons.org/ns#" xmlns:rdf="http://www.w3.org/1999/02/22-rdf-syntax-ns#">
   <cc:Work>
    <dc:type rdf:resource="http://purl.org/dc/dcmitype/StillImage"/>
    <dc:date>2025-12-29T04:07:49.132224</dc:date>
    <dc:format>image/svg+xml</dc:format>
    <dc:creator>
     <cc:Agent>
      <dc:title>Matplotlib v3.8.0, https://matplotlib.org/</dc:title>
     </cc:Agent>
    </dc:creator>
   </cc:Work>
  </rdf:RDF>
 </metadata>
 <defs>
  <style type="text/css">*{stroke-linejoin: round; stroke-linecap: butt}</style>
 </defs>
 <g id="figure_1">
  <g id="patch_1">
   <path d="M 0 361.333136 
L 413.171283 361.333136 
L 413.171283 -0 
L 0 -0 
z
" style="fill: #ffffff"/>
  </g>
  <g id="axes_1">
   <g id="patch_2">
    <path d="M 48.851283 285.37598 
L 405.971283 285.37598 
L 405.971283 19.26398 
L 48.851283 19.26398 
z
" style="fill: #ffffff"/>
   </g>
   <g id="PolyCollection_1">
    <defs>
     <path id="m2d787ba583" d="M 48.851283 -263.179264 
L 48.851283 -178.647354 
L 60.011283 -190.486092 
L 71.171283 -211.031909 
L 82.331283 -221.626806 
L 93.491283 -214.701324 
L 104.651283 -211.94423 
L 115.811283 -216.16577 
L 126.971283 -218.826383 
L 138.131283 -213.093565 
L 149.291283 -212.579228 
L 160.451283 -216.111306 
L 171.611283 -223.600366 
L 182.771283 -230.031967 
L 193.931283 -233.945816 
L 205.091283 -238.64416 
L 216.251283 -247.793094 
L 227.411283 -247.827812 
L 238.571283 -239.457816 
L 249.731283 -228.432364 
L 260.891283 -223.873002 
L 272.051283 -214.403352 
L 283.211283 -204.684744 
L 294.371283 -200.184325 
L 305.531283 -186.615459 
L 316.691283 -175.466133 
L 327.851283 -169.039714 
L 339.011283 -161.47338 
L 350.171283 -154.827842 
L 361.331283 -154.190968 
L 372.491283 -146.957338 
L 383.651283 -130.639627 
L 394.811283 -106.801276 
L 405.971283 -88.053156 
L 405.971283 -129.962492 
L 405.971283 -129.962492 
L 394.811283 -155.528599 
L 383.651283 -188.779152 
L 372.491283 -215.251417 
L 361.331283 -222.866929 
L 350.171283 -227.863851 
L 339.011283 -237.326168 
L 327.851283 -245.130454 
L 316.691283 -253.123104 
L 305.531283 -265.453744 
L 294.371283 -279.888138 
L 283.211283 -284.453326 
L 272.051283 -294.114159 
L 260.891283 -304.199402 
L 249.731283 -310.554198 
L 238.571283 -323.054824 
L 227.411283 -329.973156 
L 216.251283 -326.614689 
L 205.091283 -315.771734 
L 193.931283 -308.203057 
L 182.771283 -301.271151 
L 171.611283 -293.676354 
L 160.451283 -288.965211 
L 149.291283 -290.465718 
L 138.131283 -295.735839 
L 126.971283 -304.603281 
L 115.811283 -304.257922 
L 104.651283 -301.005305 
L 93.491283 -305.197585 
L 82.331283 -315.897889 
L 71.171283 -302.684864 
L 60.011283 -277.159988 
L 48.851283 -263.179264 
z
" style="stroke: #1f77b4; stroke-opacity: 0.2"/>
    </defs>
    <g clip-path="url(#p312f43955a)">
     <use xlink:href="#m2d787ba583" x="0" y="361.333136" style="fill: #1f77b4; fill-opacity: 0.2; stroke: #1f77b4; stroke-opacity: 0.2"/>
    </g>
   </g>
   <g id="PolyCollection_2">
    <defs>
     <path id="m6db33cafee" d="M 48.851283 -261.681 
L 48.851283 -194.399432 
L 60.011283 -186.430111 
L 71.171283 -191.494175 
L 82.331283 -192.862628 
L 93.491283 -190.865005 
L 104.651283 -199.730464 
L 115.811283 -206.904631 
L 126.971283 -211.356544 
L 138.131283 -210.813608 
L 149.291283 -210.7546 
L 160.451283 -209.985894 
L 171.611283 -204.815118 
L 182.771283 -198.375517 
L 193.931283 -197.824774 
L 205.091283 -208.199112 
L 216.251283 -211.847385 
L 227.411283 -199.502484 
L 238.571283 -185.738214 
L 249.731283 -185.121223 
L 260.891283 -188.289933 
L 272.051283 -183.013357 
L 283.211283 -169.838252 
L 294.371283 -155.471781 
L 305.531283 -151.231897 
L 316.691283 -152.855675 
L 327.851283 -151.453067 
L 339.011283 -147.106664 
L 350.171283 -143.400613 
L 361.331283 -143.735961 
L 372.491283 -149.655385 
L 383.651283 -160.361754 
L 394.811283 -161.920357 
L 405.971283 -159.092286 
L 405.971283 -191.266188 
L 405.971283 -191.266188 
L 394.811283 -198.537493 
L 383.651283 -202.24078 
L 372.491283 -192.696531 
L 361.331283 -185.561467 
L 350.171283 -185.015229 
L 339.011283 -188.882023 
L 327.851283 -193.215406 
L 316.691283 -195.746857 
L 305.531283 -199.405441 
L 294.371283 -208.151507 
L 283.211283 -226.222027 
L 272.051283 -241.940757 
L 260.891283 -248.247226 
L 249.731283 -244.710397 
L 238.571283 -244.629213 
L 227.411283 -257.16582 
L 216.251283 -269.717363 
L 205.091283 -266.957725 
L 193.931283 -254.953515 
L 182.771283 -255.077563 
L 171.611283 -262.541108 
L 160.451283 -268.924698 
L 149.291283 -269.26194 
L 138.131283 -268.884041 
L 126.971283 -270.384515 
L 115.811283 -267.84712 
L 104.651283 -262.984409 
L 93.491283 -256.804695 
L 82.331283 -259.753345 
L 71.171283 -256.381382 
L 60.011283 -251.807241 
L 48.851283 -261.681 
z
" style="stroke: #ff7f0e; stroke-opacity: 0.2"/>
    </defs>
    <g clip-path="url(#p312f43955a)">
     <use xlink:href="#m6db33cafee" x="0" y="361.333136" style="fill: #ff7f0e; fill-opacity: 0.2; stroke: #ff7f0e; stroke-opacity: 0.2"/>
    </g>
   </g>
   <g id="matplotlib.axis_1">
    <g id="text_1">
     <text style="font: 10px 'Arial', sans-serif; text-anchor: middle" x="227.411283" y="296.533792" transform="rotate(-0 227.411283 296.533792)">Time</text>
    </g>
   </g>
   <g id="matplotlib.axis_2">
    <g id="ytick_1">
     <g id="line2d_1">
      <defs>
       <path id="mb10d3298b0" d="M 0 0 
L -3.5 0 
" style="stroke: #000000; stroke-width: 0.8"/>
      </defs>
      <g>
       <use xlink:href="#mb10d3298b0" x="48.851283" y="270.01126" style="stroke: #000000; stroke-width: 0.8"/>
      </g>
     </g>
     <g id="text_2">
      <text style="font: 10px 'Arial', sans-serif; text-anchor: end" x="41.851283" y="273.590167" transform="rotate(-0 41.851283 273.590167)">−0.4</text>
     </g>
    </g>
    <g id="ytick_2">
     <g id="line2d_2">
      <g>
       <use xlink:href="#mb10d3298b0" x="48.851283" y="238.381144" style="stroke: #000000; stroke-width: 0.8"/>
      </g>
     </g>
     <g id="text_3">
      <text style="font: 10px 'Arial', sans-serif; text-anchor: end" x="41.851283" y="241.96005" transform="rotate(-0 41.851283 241.96005)">−0.3</text>
     </g>
    </g>
    <g id="ytick_3">
     <g id="line2d_3">
      <g>
       <use xlink:href="#mb10d3298b0" x="48.851283" y="206.751028" style="stroke: #000000; stroke-width: 0.8"/>
      </g>
     </g>
     <g id="text_4">
      <text style="font: 10px 'Arial', sans-serif; text-anchor: end" x="41.851283" y="210.329934" transform="rotate(-0 41.851283 210.329934)">−0.2</text>
     </g>
    </g>
    <g id="ytick_4">
     <g id="line2d_4">
      <g>
       <use xlink:href="#mb10d3298b0" x="48.851283" y="175.120912" style="stroke: #000000; stroke-width: 0.8"/>
      </g>
     </g>
     <g id="text_5">
      <text style="font: 10px 'Arial', sans-serif; text-anchor: end" x="41.851283" y="178.699818" transform="rotate(-0 41.851283 178.699818)">−0.1</text>
     </g>
    </g>
    <g id="ytick_5">
     <g id="line2d_5">
      <g>
       <use xlink:href="#mb10d3298b0" x="48.851283" y="143.490795" style="stroke: #000000; stroke-width: 0.8"/>
      </g>
     </g>
     <g id="text_6">
      <text style="font: 10px 'Arial', sans-serif; text-anchor: end" x="41.851283" y="147.069702" transform="rotate(-0 41.851283 147.069702)">0.0</text>
     </g>
    </g>
    <g id="ytick_6">
     <g id="line2d_6">
      <g>
       <use xlink:href="#mb10d3298b0" x="48.851283" y="111.860679" style="stroke: #000000; stroke-width: 0.8"/>
      </g>
     </g>
     <g id="text_7">
      <text style="font: 10px 'Arial', sans-serif; text-anchor: end" x="41.851283" y="115.439585" transform="rotate(-0 41.851283 115.439585)">0.1</text>
     </g>
    </g>
    <g id="ytick_7">
     <g id="line2d_7">
      <g>
       <use xlink:href="#mb10d3298b0" x="48.851283" y="80.230563" style="stroke: #000000; stroke-width: 0.8"/>
      </g>
     </g>
     <g id="text_8">
      <text style="font: 10px 'Arial', sans-serif; text-anchor: end" x="41.851283" y="83.809469" transform="rotate(-0 41.851283 83.809469)">0.2</text>
     </g>
    </g>
    <g id="ytick_8">
     <g id="line2d_8">
      <g>
       <use xlink:href="#mb10d3298b0" x="48.851283" y="48.600447" style="stroke: #000000; stroke-width: 0.8"/>
      </g>
     </g>
     <g id="text_9">
      <text style="font: 10px 'Arial', sans-serif; text-anchor: end" x="41.851283" y="52.179353" transform="rotate(-0 41.851283 52.179353)">0.3</text>
     </g>
    </g>
    <g id="text_10">
     <text style="font: 10px 'Arial', sans-serif; text-anchor: middle" x="16.005971" y="152.31998" transform="rotate(-90 16.005971 152.31998)">Activity</text>
    </g>
   </g>
   <g id="line2d_9">
    <path d="M 48.851283 140.419828 
L 60.011283 127.510094 
L 71.171283 104.474752 
L 82.331283 92.570786 
L 93.491283 101.383682 
L 104.651283 104.858368 
L 115.811283 101.12129 
L 126.971283 99.618304 
L 138.131283 106.918435 
L 149.291283 109.810663 
L 160.451283 108.794879 
L 171.611283 102.694777 
L 182.771283 95.681577 
L 193.931283 90.258699 
L 205.091283 84.12519 
L 216.251283 74.129244 
L 227.411283 72.432652 
L 238.571283 80.076816 
L 249.731283 91.839855 
L 260.891283 97.296932 
L 272.051283 107.07438 
L 283.211283 116.764101 
L 294.371283 121.296904 
L 305.531283 135.298534 
L 316.691283 147.038517 
L 327.851283 154.248053 
L 339.011283 161.933361 
L 350.171283 169.987289 
L 361.331283 172.804187 
L 372.491283 180.228758 
L 383.651283 201.623748 
L 394.811283 230.168198 
L 405.971283 252.325312 
" clip-path="url(#p312f43955a)" style="fill: none; stroke: #1f77b4; stroke-width: 1.5; stroke-linecap: square"/>
   </g>
   <g id="line2d_10">
    <path d="M 48.851283 133.292918 
L 60.011283 142.214459 
L 71.171283 137.395358 
L 82.331283 135.02515 
L 93.491283 137.498285 
L 104.651283 129.975699 
L 115.811283 123.95726 
L 126.971283 120.462606 
L 138.131283 121.48431 
L 149.291283 121.324866 
L 160.451283 121.877839 
L 171.611283 127.655022 
L 182.771283 134.606596 
L 193.931283 134.943991 
L 205.091283 123.754717 
L 216.251283 120.550761 
L 227.411283 132.998983 
L 238.571283 146.149422 
L 249.731283 146.417326 
L 260.891283 143.064558 
L 272.051283 148.85608 
L 283.211283 163.302996 
L 294.371283 179.521492 
L 305.531283 186.014467 
L 316.691283 187.03187 
L 327.851283 188.998899 
L 339.011283 193.338794 
L 350.171283 197.125215 
L 361.331283 196.684422 
L 372.491283 190.157177 
L 383.651283 180.031869 
L 394.811283 181.10421 
L 405.971283 186.153899 
" clip-path="url(#p312f43955a)" style="fill: none; stroke: #ff7f0e; stroke-width: 1.5; stroke-linecap: square"/>
   </g>
   <g id="line2d_11">
    <path d="M 82.331283 285.37598 
L 82.331283 19.26398 
" clip-path="url(#p312f43955a)" style="fill: none; stroke-dasharray: 5.55,2.4; stroke-dashoffset: 0; stroke: #000000; stroke-opacity: 0.5; stroke-width: 1.5"/>
   </g>
   <g id="line2d_12">
    <path d="M 383.651283 285.37598 
L 383.651283 19.26398 
" clip-path="url(#p312f43955a)" style="fill: none; stroke-dasharray: 5.55,2.4; stroke-dashoffset: 0; stroke: #000000; stroke-opacity: 0.5; stroke-width: 1.5"/>
   </g>
   <g id="patch_3">
    <path d="M 48.851283 285.37598 
L 405.971283 285.37598 
" style="fill: none; stroke: #000000; stroke-width: 0.8; stroke-linejoin: miter; stroke-linecap: square"/>
   </g>
   <g id="text_11">
    <text style="font: 6.94px 'Arial', sans-serif" transform="translate(10.097767 321.385533) rotate(-35)">-0.1s Sampling</text>
   </g>
   <g id="text_12">
    <text style="font: 6.94px 'Arial', sans-serif" transform="translate(57.794497 311.430872) rotate(-35)">Sampling</text>
   </g>
   <g id="text_13">
    <text style="font: 6.94px 'Arial', sans-serif" transform="translate(319.037191 339.456682) rotate(-35)">Movement to Lateral Port</text>
   </g>
   <g id="text_14">
    <text style="font: 8.33px 'Arial', sans-serif; text-anchor: middle" x="227.411283" y="13.26398" transform="rotate(-0 227.411283 13.26398)">GP4_85_s2_L100_D250_mm2 - Trace:4_GP4_85_s2_L100_D250_mm2 (when: correct)</text>
   </g>
   <g id="legend_1">
    <g id="patch_4">
     <path d="M 133.696342 354.133136 
L 321.126224 354.133136 
Q 322.514224 354.133136 322.514224 352.745136 
L 322.514224 343.45638 
Q 322.514224 342.06838 321.126224 342.06838 
L 133.696342 342.06838 
Q 132.308342 342.06838 132.308342 343.45638 
L 132.308342 352.745136 
Q 132.308342 354.133136 133.696342 354.133136 
z
" style="fill: #ffffff; opacity: 0.8; stroke: #cccccc; stroke-linejoin: miter"/>
    </g>
    <g id="line2d_13">
     <path d="M 135.084342 347.467483 
L 142.024342 347.467483 
L 148.964342 347.467483 
" style="fill: none; stroke: #1f77b4; stroke-width: 1.5; stroke-linecap: square"/>
    </g>
    <g id="text_15">
     <text style="font: 6.94px 'Arial', sans-serif; text-anchor: start" x="154.516342" y="349.896483" transform="rotate(-0 154.516342 349.896483)">DecisionRight (88 pts)</text>
    </g>
    <g id="line2d_14">
     <path d="M 236.664255 347.467483 
L 243.604255 347.467483 
L 250.544255 347.467483 
" style="fill: none; stroke: #ff7f0e; stroke-width: 1.5; stroke-linecap: square"/>
    </g>
    <g id="text_16">
     <text style="font: 6.94px 'Arial', sans-serif; text-anchor: start" x="256.096255" y="349.896483" transform="rotate(-0 256.096255 349.896483)">DecisionLeft (88 pts)</text>
    </g>
   </g>
  </g>
 </g>
 <defs>
  <clipPath id="p312f43955a">
   <rect x="48.851283" y="19.26398" width="357.12" height="266.112"/>
  </clipPath>
 </defs>
</svg>
