<?xml version="1.0" encoding="utf-8" standalone="no"?>
<!DOCTYPE svg PUBLIC "-//W3C//DTD SVG 1.1//EN"
  "http://www.w3.org/Graphics/SVG/1.1/DTD/svg11.dtd">
<svg xmlns:xlink="http://www.w3.org/1999/xlink" width="413.171283pt" height="361.333136pt" viewBox="0 0 413.171283 361.333136" xmlns="http://www.w3.org/2000/svg" version="1.1">
 <metadata>
  <rdf:RDF xmlns:dc="http://purl.org/dc/elements/1.1/" xmlns:cc="http://creativecommons.org/ns#" xmlns:rdf="http://www.w3.org/1999/02/22-rdf-syntax-ns#">
   <cc:Work>
    <dc:type rdf:resource="http://purl.org/dc/dcmitype/StillImage"/>
    <dc:date>2025-12-29T04:07:46.647770</dc:date>
    <dc:format>image/svg+xml</dc:format>
    <dc:creator>
     <cc:Agent>
      <dc:title>Matplotlib v3.8.0, https://matplotlib.org/</dc:title>
     </cc:Agent>
    </dc:creator>
   </cc:Work>
  </rdf:RDF>
 </metadata>
 <defs>
  <style type="text/css">*{stroke-linejoin: round; stroke-linecap: butt}</style>
 </defs>
 <g id="figure_1">
  <g id="patch_1">
   <path d="M 0 361.333136 
L 413.171283 361.333136 
L 413.171283 -0 
L 0 -0 
z
" style="fill: #ffffff"/>
  </g>
  <g id="axes_1">
   <g id="patch_2">
    <path d="M 48.851283 285.37598 
L 405.971283 285.37598 
L 405.971283 19.26398 
L 48.851283 19.26398 
z
" style="fill: #ffffff"/>
   </g>
   <g id="PolyCollection_1">
    <defs>
     <path id="m3bf292bc85" d="M 48.851283 -113.353457 
L 48.851283 -88.053156 
L 60.011283 -89.807259 
L 71.171283 -100.868208 
L 82.331283 -111.760099 
L 93.491283 -116.495064 
L 104.651283 -122.254435 
L 115.811283 -122.165065 
L 126.971283 -124.571629 
L 138.131283 -117.293359 
L 149.291283 -106.569318 
L 160.451283 -99.792068 
L 171.611283 -95.022867 
L 182.771283 -105.099918 
L 193.931283 -115.427457 
L 205.091283 -133.159488 
L 216.251283 -149.109694 
L 227.411283 -155.119473 
L 238.571283 -161.640146 
L 249.731283 -155.3339 
L 260.891283 -144.360344 
L 272.051283 -136.631814 
L 283.211283 -142.748393 
L 294.371283 -157.866752 
L 305.531283 -162.204081 
L 316.691283 -152.10553 
L 327.851283 -141.800511 
L 339.011283 -134.135033 
L 350.171283 -130.325835 
L 361.331283 -127.111018 
L 372.491283 -134.004303 
L 383.651283 -126.956665 
L 394.811283 -120.237649 
L 405.971283 -115.237079 
L 405.971283 -152.816852 
L 405.971283 -152.816852 
L 394.811283 -159.221969 
L 383.651283 -171.005831 
L 372.491283 -183.022807 
L 361.331283 -177.768932 
L 350.171283 -180.611533 
L 339.011283 -180.080546 
L 327.851283 -185.698653 
L 316.691283 -195.321464 
L 305.531283 -204.471009 
L 294.371283 -200.044098 
L 283.211283 -184.005529 
L 272.051283 -174.441759 
L 260.891283 -178.946766 
L 249.731283 -187.974755 
L 238.571283 -192.877244 
L 227.411283 -189.718163 
L 216.251283 -186.577812 
L 205.091283 -169.0968 
L 193.931283 -147.977336 
L 182.771283 -137.613816 
L 171.611283 -123.173873 
L 160.451283 -125.077108 
L 149.291283 -133.006748 
L 138.131283 -146.167261 
L 126.971283 -154.043866 
L 115.811283 -151.451036 
L 104.651283 -150.880683 
L 93.491283 -144.025116 
L 82.331283 -138.925711 
L 71.171283 -128.440615 
L 60.011283 -115.162986 
L 48.851283 -113.353457 
z
" style="stroke: #1f77b4; stroke-opacity: 0.2"/>
    </defs>
    <g clip-path="url(#pd232c95f65)">
     <use xlink:href="#m3bf292bc85" x="0" y="361.333136" style="fill: #1f77b4; fill-opacity: 0.2; stroke: #1f77b4; stroke-opacity: 0.2"/>
    </g>
   </g>
   <g id="PolyCollection_2">
    <defs>
     <path id="maf70c06154" d="M 48.851283 -129.660562 
L 48.851283 -102.406466 
L 60.011283 -106.265427 
L 71.171283 -105.439031 
L 82.331283 -111.308029 
L 93.491283 -104.786316 
L 104.651283 -101.969446 
L 115.811283 -101.12377 
L 126.971283 -102.724871 
L 138.131283 -100.701911 
L 149.291283 -94.573132 
L 160.451283 -101.209713 
L 171.611283 -112.983317 
L 182.771283 -123.416372 
L 193.931283 -141.4066 
L 205.091283 -146.844435 
L 216.251283 -156.186381 
L 227.411283 -160.94543 
L 238.571283 -164.466842 
L 249.731283 -184.126119 
L 260.891283 -188.800993 
L 272.051283 -183.510246 
L 283.211283 -199.939869 
L 294.371283 -207.095935 
L 305.531283 -224.562777 
L 316.691283 -241.101637 
L 327.851283 -247.990503 
L 339.011283 -249.474662 
L 350.171283 -252.970861 
L 361.331283 -256.300277 
L 372.491283 -264.985406 
L 383.651283 -259.9848 
L 394.811283 -244.672138 
L 405.971283 -227.651074 
L 405.971283 -290.358774 
L 405.971283 -290.358774 
L 394.811283 -306.992331 
L 383.651283 -324.825408 
L 372.491283 -329.973156 
L 361.331283 -320.300417 
L 350.171283 -318.001446 
L 339.011283 -312.1105 
L 327.851283 -308.419771 
L 316.691283 -305.132604 
L 305.531283 -286.250712 
L 294.371283 -264.441594 
L 283.211283 -255.048175 
L 272.051283 -234.290924 
L 260.891283 -237.919779 
L 249.731283 -233.886862 
L 238.571283 -210.82002 
L 227.411283 -208.469592 
L 216.251283 -202.749251 
L 205.091283 -189.131782 
L 193.931283 -182.720908 
L 182.771283 -156.813263 
L 171.611283 -143.347402 
L 160.451283 -131.319275 
L 149.291283 -123.418007 
L 138.131283 -128.939289 
L 126.971283 -129.850966 
L 115.811283 -128.026745 
L 104.651283 -126.85846 
L 93.491283 -131.631335 
L 82.331283 -138.044122 
L 71.171283 -129.300185 
L 60.011283 -132.706966 
L 48.851283 -129.660562 
z
" style="stroke: #ff7f0e; stroke-opacity: 0.2"/>
    </defs>
    <g clip-path="url(#pd232c95f65)">
     <use xlink:href="#maf70c06154" x="0" y="361.333136" style="fill: #ff7f0e; fill-opacity: 0.2; stroke: #ff7f0e; stroke-opacity: 0.2"/>
    </g>
   </g>
   <g id="matplotlib.axis_1">
    <g id="text_1">
     <text style="font: 10px 'Arial', sans-serif; text-anchor: middle" x="227.411283" y="296.533792" transform="rotate(-0 227.411283 296.533792)">Time</text>
    </g>
   </g>
   <g id="matplotlib.axis_2">
    <g id="ytick_1">
     <g id="line2d_1">
      <defs>
       <path id="me6fae7ead8" d="M 0 0 
L -3.5 0 
" style="stroke: #000000; stroke-width: 0.8"/>
      </defs>
      <g>
       <use xlink:href="#me6fae7ead8" x="48.851283" y="257.205347" style="stroke: #000000; stroke-width: 0.8"/>
      </g>
     </g>
     <g id="text_2">
      <text style="font: 10px 'Arial', sans-serif; text-anchor: end" x="41.851283" y="260.784253" transform="rotate(-0 41.851283 260.784253)">−0.2</text>
     </g>
    </g>
    <g id="ytick_2">
     <g id="line2d_2">
      <g>
       <use xlink:href="#me6fae7ead8" x="48.851283" y="219.481708" style="stroke: #000000; stroke-width: 0.8"/>
      </g>
     </g>
     <g id="text_3">
      <text style="font: 10px 'Arial', sans-serif; text-anchor: end" x="41.851283" y="223.060614" transform="rotate(-0 41.851283 223.060614)">0.0</text>
     </g>
    </g>
    <g id="ytick_3">
     <g id="line2d_3">
      <g>
       <use xlink:href="#me6fae7ead8" x="48.851283" y="181.758068" style="stroke: #000000; stroke-width: 0.8"/>
      </g>
     </g>
     <g id="text_4">
      <text style="font: 10px 'Arial', sans-serif; text-anchor: end" x="41.851283" y="185.336974" transform="rotate(-0 41.851283 185.336974)">0.2</text>
     </g>
    </g>
    <g id="ytick_4">
     <g id="line2d_4">
      <g>
       <use xlink:href="#me6fae7ead8" x="48.851283" y="144.034429" style="stroke: #000000; stroke-width: 0.8"/>
      </g>
     </g>
     <g id="text_5">
      <text style="font: 10px 'Arial', sans-serif; text-anchor: end" x="41.851283" y="147.613335" transform="rotate(-0 41.851283 147.613335)">0.4</text>
     </g>
    </g>
    <g id="ytick_5">
     <g id="line2d_5">
      <g>
       <use xlink:href="#me6fae7ead8" x="48.851283" y="106.310789" style="stroke: #000000; stroke-width: 0.8"/>
      </g>
     </g>
     <g id="text_6">
      <text style="font: 10px 'Arial', sans-serif; text-anchor: end" x="41.851283" y="109.889695" transform="rotate(-0 41.851283 109.889695)">0.6</text>
     </g>
    </g>
    <g id="ytick_6">
     <g id="line2d_6">
      <g>
       <use xlink:href="#me6fae7ead8" x="48.851283" y="68.58715" style="stroke: #000000; stroke-width: 0.8"/>
      </g>
     </g>
     <g id="text_7">
      <text style="font: 10px 'Arial', sans-serif; text-anchor: end" x="41.851283" y="72.166056" transform="rotate(-0 41.851283 72.166056)">0.8</text>
     </g>
    </g>
    <g id="ytick_7">
     <g id="line2d_7">
      <g>
       <use xlink:href="#me6fae7ead8" x="48.851283" y="30.86351" style="stroke: #000000; stroke-width: 0.8"/>
      </g>
     </g>
     <g id="text_8">
      <text style="font: 10px 'Arial', sans-serif; text-anchor: end" x="41.851283" y="34.442416" transform="rotate(-0 41.851283 34.442416)">1.0</text>
     </g>
    </g>
    <g id="text_9">
     <text style="font: 10px 'Arial', sans-serif; text-anchor: middle" x="16.005971" y="152.31998" transform="rotate(-90 16.005971 152.31998)">Activity</text>
    </g>
   </g>
   <g id="line2d_8">
    <path d="M 48.851283 260.629828 
L 60.011283 258.848015 
L 71.171283 246.678725 
L 82.331283 235.990231 
L 93.491283 231.073046 
L 104.651283 224.765577 
L 115.811283 224.525085 
L 126.971283 222.025388 
L 138.131283 229.602826 
L 149.291283 241.545104 
L 160.451283 248.898547 
L 171.611283 252.234765 
L 182.771283 239.976269 
L 193.931283 229.63074 
L 205.091283 210.204992 
L 216.251283 193.489382 
L 227.411283 188.914317 
L 238.571283 184.07444 
L 249.731283 189.678808 
L 260.891283 199.67958 
L 272.051283 205.796349 
L 283.211283 197.956175 
L 294.371283 182.37771 
L 305.531283 177.995592 
L 316.691283 187.61964 
L 327.851283 197.583554 
L 339.011283 204.225347 
L 350.171283 205.864452 
L 361.331283 208.89316 
L 372.491283 202.819581 
L 383.651283 212.351888 
L 394.811283 221.603328 
L 405.971283 227.30617 
" clip-path="url(#pd232c95f65)" style="fill: none; stroke: #1f77b4; stroke-width: 1.5; stroke-linecap: square"/>
   </g>
   <g id="line2d_9">
    <path d="M 48.851283 245.299622 
L 60.011283 241.846939 
L 71.171283 243.963527 
L 82.331283 236.65706 
L 93.491283 243.12431 
L 104.651283 246.919183 
L 115.811283 246.757878 
L 126.971283 245.045218 
L 138.131283 246.512536 
L 149.291283 252.337567 
L 160.451283 245.068642 
L 171.611283 233.167776 
L 182.771283 221.218318 
L 193.931283 199.269383 
L 205.091283 193.345028 
L 216.251283 181.865321 
L 227.411283 176.625626 
L 238.571283 173.689704 
L 249.731283 152.326647 
L 260.891283 147.97275 
L 272.051283 152.432551 
L 283.211283 133.839114 
L 294.371283 125.564371 
L 305.531283 105.926392 
L 316.691283 88.216015 
L 327.851283 83.127999 
L 339.011283 80.540555 
L 350.171283 75.846982 
L 361.331283 73.032788 
L 372.491283 63.853855 
L 383.651283 68.928032 
L 394.811283 85.500901 
L 405.971283 102.328212 
" clip-path="url(#pd232c95f65)" style="fill: none; stroke: #ff7f0e; stroke-width: 1.5; stroke-linecap: square"/>
   </g>
   <g id="line2d_10">
    <path d="M 82.331283 285.37598 
L 82.331283 19.26398 
" clip-path="url(#pd232c95f65)" style="fill: none; stroke-dasharray: 5.55,2.4; stroke-dashoffset: 0; stroke: #000000; stroke-opacity: 0.5; stroke-width: 1.5"/>
   </g>
   <g id="line2d_11">
    <path d="M 383.651283 285.37598 
L 383.651283 19.26398 
" clip-path="url(#pd232c95f65)" style="fill: none; stroke-dasharray: 5.55,2.4; stroke-dashoffset: 0; stroke: #000000; stroke-opacity: 0.5; stroke-width: 1.5"/>
   </g>
   <g id="patch_3">
    <path d="M 48.851283 285.37598 
L 405.971283 285.37598 
" style="fill: none; stroke: #000000; stroke-width: 0.8; stroke-linejoin: miter; stroke-linecap: square"/>
   </g>
   <g id="text_10">
    <text style="font: 6.94px 'Arial', sans-serif" transform="translate(10.097767 321.385533) rotate(-35)">-0.1s Sampling</text>
   </g>
   <g id="text_11">
    <text style="font: 6.94px 'Arial', sans-serif" transform="translate(57.794497 311.430872) rotate(-35)">Sampling</text>
   </g>
   <g id="text_12">
    <text style="font: 6.94px 'Arial', sans-serif" transform="translate(319.037191 339.456682) rotate(-35)">Movement to Lateral Port</text>
   </g>
   <g id="text_13">
    <text style="font: 8.33px 'Arial', sans-serif; text-anchor: middle" x="227.411283" y="13.26398" transform="rotate(-0 227.411283 13.26398)">GP4_85_s2_L100_D250_mm2 - Trace:51_GP4_85_s2_L100_D250_mm2 (when: correct)</text>
   </g>
   <g id="legend_1">
    <g id="patch_4">
     <path d="M 133.696342 354.133136 
L 321.126224 354.133136 
Q 322.514224 354.133136 322.514224 352.745136 
L 322.514224 343.45638 
Q 322.514224 342.06838 321.126224 342.06838 
L 133.696342 342.06838 
Q 132.308342 342.06838 132.308342 343.45638 
L 132.308342 352.745136 
Q 132.308342 354.133136 133.696342 354.133136 
z
" style="fill: #ffffff; opacity: 0.8; stroke: #cccccc; stroke-linejoin: miter"/>
    </g>
    <g id="line2d_12">
     <path d="M 135.084342 347.467483 
L 142.024342 347.467483 
L 148.964342 347.467483 
" style="fill: none; stroke: #1f77b4; stroke-width: 1.5; stroke-linecap: square"/>
    </g>
    <g id="text_14">
     <text style="font: 6.94px 'Arial', sans-serif; text-anchor: start" x="154.516342" y="349.896483" transform="rotate(-0 154.516342 349.896483)">DecisionRight (88 pts)</text>
    </g>
    <g id="line2d_13">
     <path d="M 236.664255 347.467483 
L 243.604255 347.467483 
L 250.544255 347.467483 
" style="fill: none; stroke: #ff7f0e; stroke-width: 1.5; stroke-linecap: square"/>
    </g>
    <g id="text_15">
     <text style="font: 6.94px 'Arial', sans-serif; text-anchor: start" x="256.096255" y="349.896483" transform="rotate(-0 256.096255 349.896483)">DecisionLeft (88 pts)</text>
    </g>
   </g>
  </g>
 </g>
 <defs>
  <clipPath id="pd232c95f65">
   <rect x="48.851283" y="19.26398" width="357.12" height="266.112"/>
  </clipPath>
 </defs>
</svg>
