<?xml version="1.0" encoding="utf-8" standalone="no"?>
<!DOCTYPE svg PUBLIC "-//W3C//DTD SVG 1.1//EN"
  "http://www.w3.org/Graphics/SVG/1.1/DTD/svg11.dtd">
<svg xmlns:xlink="http://www.w3.org/1999/xlink" width="417.084062pt" height="361.333136pt" viewBox="0 0 417.084062 361.333136" xmlns="http://www.w3.org/2000/svg" version="1.1">
 <metadata>
  <rdf:RDF xmlns:dc="http://purl.org/dc/elements/1.1/" xmlns:cc="http://creativecommons.org/ns#" xmlns:rdf="http://www.w3.org/1999/02/22-rdf-syntax-ns#">
   <cc:Work>
    <dc:type rdf:resource="http://purl.org/dc/dcmitype/StillImage"/>
    <dc:date>2025-12-29T04:07:46.884316</dc:date>
    <dc:format>image/svg+xml</dc:format>
    <dc:creator>
     <cc:Agent>
      <dc:title>Matplotlib v3.8.0, https://matplotlib.org/</dc:title>
     </cc:Agent>
    </dc:creator>
   </cc:Work>
  </rdf:RDF>
 </metadata>
 <defs>
  <style type="text/css">*{stroke-linejoin: round; stroke-linecap: butt}</style>
 </defs>
 <g id="figure_1">
  <g id="patch_1">
   <path d="M 0 361.333136 
L 417.084062 361.333136 
L 417.084062 -0 
L 0 -0 
z
" style="fill: #ffffff"/>
  </g>
  <g id="axes_1">
   <g id="patch_2">
    <path d="M 52.764063 285.37598 
L 409.884063 285.37598 
L 409.884063 19.26398 
L 52.764063 19.26398 
z
" style="fill: #ffffff"/>
   </g>
   <g id="PolyCollection_1">
    <defs>
     <path id="m9c42cca7c4" d="M 52.764063 -284.841065 
L 52.764063 -227.360181 
L 63.924063 -243.90336 
L 75.084063 -254.634899 
L 86.244063 -254.291409 
L 97.404063 -246.470021 
L 108.564063 -232.571373 
L 119.724063 -223.409625 
L 130.884063 -217.075456 
L 142.044062 -206.635011 
L 153.204063 -200.003931 
L 164.364063 -197.832959 
L 175.524063 -189.898774 
L 186.684063 -183.402783 
L 197.844063 -174.848285 
L 209.004063 -167.359659 
L 220.164062 -166.980457 
L 231.324063 -163.03587 
L 242.484062 -156.291389 
L 253.644063 -150.54873 
L 264.804062 -143.56617 
L 275.964063 -137.183791 
L 287.124063 -133.484669 
L 298.284063 -128.375403 
L 309.444063 -121.981327 
L 320.604062 -120.820509 
L 331.764063 -115.292219 
L 342.924062 -110.90573 
L 354.084063 -109.663818 
L 365.244062 -110.150843 
L 376.404063 -107.997342 
L 387.564062 -101.353816 
L 398.724063 -93.791923 
L 409.884063 -88.053156 
L 409.884063 -101.340086 
L 409.884063 -101.340086 
L 398.724063 -106.96858 
L 387.564062 -115.209798 
L 376.404063 -125.4475 
L 365.244062 -128.565432 
L 354.084063 -128.167314 
L 342.924062 -129.622167 
L 331.764063 -134.977072 
L 320.604062 -141.664159 
L 309.444063 -144.457734 
L 298.284063 -152.648789 
L 287.124063 -159.526117 
L 275.964063 -164.382974 
L 264.804062 -172.072343 
L 253.644063 -181.950686 
L 242.484062 -190.428899 
L 231.324063 -198.526399 
L 220.164062 -203.089417 
L 209.004063 -205.620449 
L 197.844063 -217.074442 
L 186.684063 -227.772736 
L 175.524063 -233.940193 
L 164.364063 -242.178921 
L 153.204063 -246.306899 
L 142.044062 -255.799306 
L 130.884063 -269.365026 
L 119.724063 -276.944565 
L 108.564063 -288.643764 
L 97.404063 -307.904028 
L 86.244063 -320.009964 
L 75.084063 -322.893208 
L 63.924063 -308.825678 
L 52.764063 -284.841065 
z
" style="stroke: #1f77b4; stroke-opacity: 0.2"/>
    </defs>
    <g clip-path="url(#p957e842c37)">
     <use xlink:href="#m9c42cca7c4" x="0" y="361.333136" style="fill: #1f77b4; fill-opacity: 0.2; stroke: #1f77b4; stroke-opacity: 0.2"/>
    </g>
   </g>
   <g id="PolyCollection_2">
    <defs>
     <path id="ma9c579bea4" d="M 52.764063 -296.852012 
L 52.764063 -236.371234 
L 63.924063 -246.407608 
L 75.084063 -256.282872 
L 86.244063 -262.710562 
L 97.404063 -255.21976 
L 108.564063 -234.022831 
L 119.724063 -225.543062 
L 130.884063 -219.277191 
L 142.044062 -208.824013 
L 153.204063 -197.946473 
L 164.364063 -195.002953 
L 175.524063 -189.592225 
L 186.684063 -178.564693 
L 197.844063 -173.986573 
L 209.004063 -169.305694 
L 220.164062 -162.282429 
L 231.324063 -159.094768 
L 242.484062 -154.982495 
L 253.644063 -148.307779 
L 264.804062 -142.051449 
L 275.964063 -135.832168 
L 287.124063 -133.392713 
L 298.284063 -132.031354 
L 309.444063 -126.898719 
L 320.604062 -119.684406 
L 331.764063 -114.359708 
L 342.924062 -110.888062 
L 354.084063 -107.465175 
L 365.244062 -108.419374 
L 376.404063 -108.415376 
L 387.564062 -104.302134 
L 398.724063 -101.322386 
L 409.884063 -97.955894 
L 409.884063 -110.26871 
L 409.884063 -110.26871 
L 398.724063 -115.844621 
L 387.564062 -121.492451 
L 376.404063 -127.620176 
L 365.244062 -128.127739 
L 354.084063 -128.610483 
L 342.924062 -132.434196 
L 331.764063 -136.292626 
L 320.604062 -141.955969 
L 309.444063 -150.439967 
L 298.284063 -158.223574 
L 287.124063 -161.426336 
L 275.964063 -165.256104 
L 264.804062 -173.107277 
L 253.644063 -179.629888 
L 242.484062 -187.348974 
L 231.324063 -193.701283 
L 220.164062 -199.321341 
L 209.004063 -209.019332 
L 197.844063 -215.393974 
L 186.684063 -221.960783 
L 175.524063 -234.173114 
L 164.364063 -240.270301 
L 153.204063 -245.14977 
L 142.044062 -261.120762 
L 130.884063 -276.995022 
L 119.724063 -285.462496 
L 108.564063 -295.552215 
L 97.404063 -322.257288 
L 86.244063 -329.973156 
L 75.084063 -322.058957 
L 63.924063 -309.700081 
L 52.764063 -296.852012 
z
" style="stroke: #ff7f0e; stroke-opacity: 0.2"/>
    </defs>
    <g clip-path="url(#p957e842c37)">
     <use xlink:href="#ma9c579bea4" x="0" y="361.333136" style="fill: #ff7f0e; fill-opacity: 0.2; stroke: #ff7f0e; stroke-opacity: 0.2"/>
    </g>
   </g>
   <g id="matplotlib.axis_1">
    <g id="text_1">
     <text style="font: 10px 'Arial', sans-serif; text-anchor: middle" x="231.324063" y="296.533792" transform="rotate(-0 231.324063 296.533792)">Time</text>
    </g>
   </g>
   <g id="matplotlib.axis_2">
    <g id="ytick_1">
     <g id="line2d_1">
      <defs>
       <path id="m15127f59f1" d="M 0 0 
L -3.5 0 
" style="stroke: #000000; stroke-width: 0.8"/>
      </defs>
      <g>
       <use xlink:href="#m15127f59f1" x="52.764063" y="251.942463" style="stroke: #000000; stroke-width: 0.8"/>
      </g>
     </g>
     <g id="text_2">
      <text style="font: 10px 'Arial', sans-serif; text-anchor: end" x="45.764063" y="255.521369" transform="rotate(-0 45.764063 255.521369)">−0.25</text>
     </g>
    </g>
    <g id="ytick_2">
     <g id="line2d_2">
      <g>
       <use xlink:href="#m15127f59f1" x="52.764063" y="217.333505" style="stroke: #000000; stroke-width: 0.8"/>
      </g>
     </g>
     <g id="text_3">
      <text style="font: 10px 'Arial', sans-serif; text-anchor: end" x="45.764063" y="220.912411" transform="rotate(-0 45.764063 220.912411)">0.00</text>
     </g>
    </g>
    <g id="ytick_3">
     <g id="line2d_3">
      <g>
       <use xlink:href="#m15127f59f1" x="52.764063" y="182.724547" style="stroke: #000000; stroke-width: 0.8"/>
      </g>
     </g>
     <g id="text_4">
      <text style="font: 10px 'Arial', sans-serif; text-anchor: end" x="45.764063" y="186.303453" transform="rotate(-0 45.764063 186.303453)">0.25</text>
     </g>
    </g>
    <g id="ytick_4">
     <g id="line2d_4">
      <g>
       <use xlink:href="#m15127f59f1" x="52.764063" y="148.115589" style="stroke: #000000; stroke-width: 0.8"/>
      </g>
     </g>
     <g id="text_5">
      <text style="font: 10px 'Arial', sans-serif; text-anchor: end" x="45.764063" y="151.694495" transform="rotate(-0 45.764063 151.694495)">0.50</text>
     </g>
    </g>
    <g id="ytick_5">
     <g id="line2d_5">
      <g>
       <use xlink:href="#m15127f59f1" x="52.764063" y="113.506631" style="stroke: #000000; stroke-width: 0.8"/>
      </g>
     </g>
     <g id="text_6">
      <text style="font: 10px 'Arial', sans-serif; text-anchor: end" x="45.764063" y="117.085537" transform="rotate(-0 45.764063 117.085537)">0.75</text>
     </g>
    </g>
    <g id="ytick_6">
     <g id="line2d_6">
      <g>
       <use xlink:href="#m15127f59f1" x="52.764063" y="78.897673" style="stroke: #000000; stroke-width: 0.8"/>
      </g>
     </g>
     <g id="text_7">
      <text style="font: 10px 'Arial', sans-serif; text-anchor: end" x="45.764063" y="82.476579" transform="rotate(-0 45.764063 82.476579)">1.00</text>
     </g>
    </g>
    <g id="ytick_7">
     <g id="line2d_7">
      <g>
       <use xlink:href="#m15127f59f1" x="52.764063" y="44.288715" style="stroke: #000000; stroke-width: 0.8"/>
      </g>
     </g>
     <g id="text_8">
      <text style="font: 10px 'Arial', sans-serif; text-anchor: end" x="45.764063" y="47.867621" transform="rotate(-0 45.764063 47.867621)">1.25</text>
     </g>
    </g>
    <g id="text_9">
     <text style="font: 10px 'Arial', sans-serif; text-anchor: middle" x="14.357813" y="152.31998" transform="rotate(-90 14.357813 152.31998)">Activity</text>
    </g>
   </g>
   <g id="line2d_8">
    <path d="M 52.764063 105.232513 
L 63.924063 84.968613 
L 75.084063 72.569082 
L 86.244063 74.182449 
L 97.404063 84.146112 
L 108.564063 100.725563 
L 119.724063 111.156041 
L 130.884063 118.112895 
L 142.044062 130.115977 
L 153.204063 138.177721 
L 164.364063 141.327196 
L 175.524063 149.413653 
L 186.684063 155.745379 
L 197.844063 165.371772 
L 209.004063 174.843081 
L 220.164062 176.298198 
L 231.324063 180.552002 
L 242.484062 187.972992 
L 253.644063 195.083429 
L 264.804062 203.51388 
L 275.964063 210.549753 
L 287.124063 214.827743 
L 298.284063 220.82104 
L 309.444063 228.113605 
L 320.604062 230.090803 
L 331.764063 236.19849 
L 342.924062 241.069187 
L 354.084063 242.41757 
L 365.244062 241.974999 
L 376.404063 244.610715 
L 387.564062 253.05133 
L 398.724063 260.952884 
L 409.884063 266.636515 
" clip-path="url(#p957e842c37)" style="fill: none; stroke: #1f77b4; stroke-width: 1.5; stroke-linecap: square"/>
   </g>
   <g id="line2d_9">
    <path d="M 52.764063 94.721517 
L 63.924063 83.279292 
L 75.084063 72.162221 
L 86.244063 64.991277 
L 97.404063 72.594612 
L 108.564063 96.545617 
L 119.724063 105.830353 
L 130.884063 113.197029 
L 142.044062 126.360749 
L 153.204063 139.785015 
L 164.364063 143.696509 
L 175.524063 149.450466 
L 186.684063 161.070399 
L 197.844063 166.642862 
L 209.004063 172.170624 
L 220.164062 180.53125 
L 231.324063 184.93511 
L 242.484062 190.167401 
L 253.644063 197.364303 
L 264.804062 203.753772 
L 275.964063 210.789 
L 287.124063 213.923611 
L 298.284063 216.205672 
L 309.444063 222.663793 
L 320.604062 230.512948 
L 331.764063 236.006969 
L 342.924062 239.672007 
L 354.084063 243.295306 
L 365.244062 243.05958 
L 376.404063 243.315359 
L 387.564062 248.435843 
L 398.724063 252.749633 
L 409.884063 257.220834 
" clip-path="url(#p957e842c37)" style="fill: none; stroke: #ff7f0e; stroke-width: 1.5; stroke-linecap: square"/>
   </g>
   <g id="line2d_10">
    <path d="M 86.244063 285.37598 
L 86.244063 19.26398 
" clip-path="url(#p957e842c37)" style="fill: none; stroke-dasharray: 5.55,2.4; stroke-dashoffset: 0; stroke: #000000; stroke-opacity: 0.5; stroke-width: 1.5"/>
   </g>
   <g id="line2d_11">
    <path d="M 387.564062 285.37598 
L 387.564062 19.26398 
" clip-path="url(#p957e842c37)" style="fill: none; stroke-dasharray: 5.55,2.4; stroke-dashoffset: 0; stroke: #000000; stroke-opacity: 0.5; stroke-width: 1.5"/>
   </g>
   <g id="patch_3">
    <path d="M 52.764063 285.37598 
L 409.884063 285.37598 
" style="fill: none; stroke: #000000; stroke-width: 0.8; stroke-linejoin: miter; stroke-linecap: square"/>
   </g>
   <g id="text_10">
    <text style="font: 6.94px 'Arial', sans-serif" transform="translate(14.010547 321.385533) rotate(-35)">-0.1s Sampling</text>
   </g>
   <g id="text_11">
    <text style="font: 6.94px 'Arial', sans-serif" transform="translate(61.707276 311.430872) rotate(-35)">Sampling</text>
   </g>
   <g id="text_12">
    <text style="font: 6.94px 'Arial', sans-serif" transform="translate(322.94997 339.456682) rotate(-35)">Movement to Lateral Port</text>
   </g>
   <g id="text_13">
    <text style="font: 8.33px 'Arial', sans-serif; text-anchor: middle" x="231.324063" y="13.26398" transform="rotate(-0 231.324063 13.26398)">GP4_85_s2_L100_D250_mm2 - Trace:7_GP4_85_s2_L100_D250_mm2 (when: correct)</text>
   </g>
   <g id="legend_1">
    <g id="patch_4">
     <path d="M 137.609122 354.133136 
L 325.039003 354.133136 
Q 326.427003 354.133136 326.427003 352.745136 
L 326.427003 343.45638 
Q 326.427003 342.06838 325.039003 342.06838 
L 137.609122 342.06838 
Q 136.221122 342.06838 136.221122 343.45638 
L 136.221122 352.745136 
Q 136.221122 354.133136 137.609122 354.133136 
z
" style="fill: #ffffff; opacity: 0.8; stroke: #cccccc; stroke-linejoin: miter"/>
    </g>
    <g id="line2d_12">
     <path d="M 138.997122 347.467483 
L 145.937122 347.467483 
L 152.877122 347.467483 
" style="fill: none; stroke: #1f77b4; stroke-width: 1.5; stroke-linecap: square"/>
    </g>
    <g id="text_14">
     <text style="font: 6.94px 'Arial', sans-serif; text-anchor: start" x="158.429122" y="349.896483" transform="rotate(-0 158.429122 349.896483)">DecisionRight (88 pts)</text>
    </g>
    <g id="line2d_13">
     <path d="M 240.577034 347.467483 
L 247.517034 347.467483 
L 254.457034 347.467483 
" style="fill: none; stroke: #ff7f0e; stroke-width: 1.5; stroke-linecap: square"/>
    </g>
    <g id="text_15">
     <text style="font: 6.94px 'Arial', sans-serif; text-anchor: start" x="260.009034" y="349.896483" transform="rotate(-0 260.009034 349.896483)">DecisionLeft (88 pts)</text>
    </g>
   </g>
  </g>
 </g>
 <defs>
  <clipPath id="p957e842c37">
   <rect x="52.764063" y="19.26398" width="357.12" height="266.112"/>
  </clipPath>
 </defs>
</svg>
