<?xml version="1.0" encoding="utf-8" standalone="no"?>
<!DOCTYPE svg PUBLIC "-//W3C//DTD SVG 1.1//EN"
  "http://www.w3.org/Graphics/SVG/1.1/DTD/svg11.dtd">
<svg xmlns:xlink="http://www.w3.org/1999/xlink" width="413.171283pt" height="361.333136pt" viewBox="0 0 413.171283 361.333136" xmlns="http://www.w3.org/2000/svg" version="1.1">
 <metadata>
  <rdf:RDF xmlns:dc="http://purl.org/dc/elements/1.1/" xmlns:cc="http://creativecommons.org/ns#" xmlns:rdf="http://www.w3.org/1999/02/22-rdf-syntax-ns#">
   <cc:Work>
    <dc:type rdf:resource="http://purl.org/dc/dcmitype/StillImage"/>
    <dc:date>2025-12-30T01:47:39.083819</dc:date>
    <dc:format>image/svg+xml</dc:format>
    <dc:creator>
     <cc:Agent>
      <dc:title>Matplotlib v3.8.0, https://matplotlib.org/</dc:title>
     </cc:Agent>
    </dc:creator>
   </cc:Work>
  </rdf:RDF>
 </metadata>
 <defs>
  <style type="text/css">*{stroke-linejoin: round; stroke-linecap: butt}</style>
 </defs>
 <g id="figure_1">
  <g id="patch_1">
   <path d="M 0 361.333136 
L 413.171283 361.333136 
L 413.171283 -0 
L 0 -0 
z
" style="fill: #ffffff"/>
  </g>
  <g id="axes_1">
   <g id="patch_2">
    <path d="M 48.851283 285.37598 
L 405.971283 285.37598 
L 405.971283 19.26398 
L 48.851283 19.26398 
z
" style="fill: #ffffff"/>
   </g>
   <g id="PolyCollection_1">
    <defs>
     <path id="m4ac2c9437f" d="M 48.851283 -287.162645 
L 48.851283 -178.862759 
L 60.011283 -189.417278 
L 71.171283 -194.076008 
L 82.331283 -201.734908 
L 93.491283 -220.4055 
L 104.651283 -223.231121 
L 115.811283 -217.523602 
L 126.971283 -217.621491 
L 138.131283 -215.382322 
L 149.291283 -208.021811 
L 160.451283 -207.233175 
L 171.611283 -202.727702 
L 182.771283 -202.218741 
L 193.931283 -193.50328 
L 205.091283 -184.038036 
L 216.251283 -190.392173 
L 227.411283 -197.177955 
L 238.571283 -197.652744 
L 249.731283 -191.598538 
L 260.891283 -176.062989 
L 272.051283 -162.620708 
L 283.211283 -162.065782 
L 294.371283 -165.917326 
L 305.531283 -163.033523 
L 316.691283 -162.481275 
L 327.851283 -154.346269 
L 339.011283 -141.847498 
L 350.171283 -127.098379 
L 361.331283 -113.852674 
L 372.491283 -103.012468 
L 383.651283 -122.081085 
L 394.811283 -166.81463 
L 405.971283 -207.310228 
L 405.971283 -302.479591 
L 405.971283 -302.479591 
L 394.811283 -255.828695 
L 383.651283 -204.02702 
L 372.491283 -179.588558 
L 361.331283 -188.269856 
L 350.171283 -202.105193 
L 339.011283 -219.375458 
L 327.851283 -234.87367 
L 316.691283 -244.016035 
L 305.531283 -245.997464 
L 294.371283 -250.021511 
L 283.211283 -241.711806 
L 272.051283 -238.44426 
L 260.891283 -253.591243 
L 249.731283 -275.306717 
L 238.571283 -282.72114 
L 227.411283 -278.083143 
L 216.251283 -264.543595 
L 205.091283 -256.071541 
L 193.931283 -269.478495 
L 182.771283 -287.208342 
L 171.611283 -295.287617 
L 160.451283 -306.446117 
L 149.291283 -315.659111 
L 138.131283 -329.785761 
L 126.971283 -329.973156 
L 115.811283 -324.740571 
L 104.651283 -324.660274 
L 93.491283 -319.336362 
L 82.331283 -299.391801 
L 71.171283 -298.368131 
L 60.011283 -296.83334 
L 48.851283 -287.162645 
z
" style="stroke: #1f77b4; stroke-opacity: 0.2"/>
    </defs>
    <g clip-path="url(#p34976aee14)">
     <use xlink:href="#m4ac2c9437f" x="0" y="361.333136" style="fill: #1f77b4; fill-opacity: 0.2; stroke: #1f77b4; stroke-opacity: 0.2"/>
    </g>
   </g>
   <g id="PolyCollection_2">
    <defs>
     <path id="m5b25759aca" d="M 48.851283 -207.549607 
L 48.851283 -116.980293 
L 60.011283 -125.462308 
L 71.171283 -125.518266 
L 82.331283 -140.181475 
L 93.491283 -158.682723 
L 104.651283 -176.27935 
L 115.811283 -170.362715 
L 126.971283 -156.763127 
L 138.131283 -158.226786 
L 149.291283 -171.632166 
L 160.451283 -176.242969 
L 171.611283 -168.176276 
L 182.771283 -162.011568 
L 193.931283 -158.778329 
L 205.091283 -151.946535 
L 216.251283 -152.160862 
L 227.411283 -154.844835 
L 238.571283 -143.996368 
L 249.731283 -136.344239 
L 260.891283 -138.601953 
L 272.051283 -128.075058 
L 283.211283 -106.897469 
L 294.371283 -88.053156 
L 305.531283 -94.554746 
L 316.691283 -99.240325 
L 327.851283 -98.338541 
L 339.011283 -102.841149 
L 350.171283 -110.624176 
L 361.331283 -108.542219 
L 372.491283 -106.66991 
L 383.651283 -109.764975 
L 394.811283 -120.024528 
L 405.971283 -117.540128 
L 405.971283 -179.910436 
L 405.971283 -179.910436 
L 394.811283 -186.712696 
L 383.651283 -179.884028 
L 372.491283 -173.794578 
L 361.331283 -172.497132 
L 350.171283 -174.146731 
L 339.011283 -168.700147 
L 327.851283 -167.882688 
L 316.691283 -168.98379 
L 305.531283 -160.93172 
L 294.371283 -151.023637 
L 283.211283 -170.174997 
L 272.051283 -193.764482 
L 260.891283 -207.439203 
L 249.731283 -204.896185 
L 238.571283 -209.676881 
L 227.411283 -219.801086 
L 216.251283 -218.981222 
L 205.091283 -224.501206 
L 193.931283 -232.659108 
L 182.771283 -238.472082 
L 171.611283 -249.734533 
L 160.451283 -264.791918 
L 149.291283 -267.015072 
L 138.131283 -255.524981 
L 126.971283 -253.039804 
L 115.811283 -263.013936 
L 104.651283 -266.448265 
L 93.491283 -249.325289 
L 82.331283 -230.634373 
L 71.171283 -215.736102 
L 60.011283 -217.538961 
L 48.851283 -207.549607 
z
" style="stroke: #ff7f0e; stroke-opacity: 0.2"/>
    </defs>
    <g clip-path="url(#p34976aee14)">
     <use xlink:href="#m5b25759aca" x="0" y="361.333136" style="fill: #ff7f0e; fill-opacity: 0.2; stroke: #ff7f0e; stroke-opacity: 0.2"/>
    </g>
   </g>
   <g id="matplotlib.axis_1">
    <g id="text_1">
     <text style="font: 10px 'Arial', sans-serif; text-anchor: middle" x="227.411283" y="296.533792" transform="rotate(-0 227.411283 296.533792)">Time</text>
    </g>
   </g>
   <g id="matplotlib.axis_2">
    <g id="ytick_1">
     <g id="line2d_1">
      <defs>
       <path id="mf08999f415" d="M 0 0 
L -3.5 0 
" style="stroke: #000000; stroke-width: 0.8"/>
      </defs>
      <g>
       <use xlink:href="#mf08999f415" x="48.851283" y="283.908013" style="stroke: #000000; stroke-width: 0.8"/>
      </g>
     </g>
     <g id="text_2">
      <text style="font: 10px 'Arial', sans-serif; text-anchor: end" x="41.851283" y="287.48692" transform="rotate(-0 41.851283 287.48692)">−0.3</text>
     </g>
    </g>
    <g id="ytick_2">
     <g id="line2d_2">
      <g>
       <use xlink:href="#mf08999f415" x="48.851283" y="232.995483" style="stroke: #000000; stroke-width: 0.8"/>
      </g>
     </g>
     <g id="text_3">
      <text style="font: 10px 'Arial', sans-serif; text-anchor: end" x="41.851283" y="236.57439" transform="rotate(-0 41.851283 236.57439)">−0.2</text>
     </g>
    </g>
    <g id="ytick_3">
     <g id="line2d_3">
      <g>
       <use xlink:href="#mf08999f415" x="48.851283" y="182.082953" style="stroke: #000000; stroke-width: 0.8"/>
      </g>
     </g>
     <g id="text_4">
      <text style="font: 10px 'Arial', sans-serif; text-anchor: end" x="41.851283" y="185.661859" transform="rotate(-0 41.851283 185.661859)">−0.1</text>
     </g>
    </g>
    <g id="ytick_4">
     <g id="line2d_4">
      <g>
       <use xlink:href="#mf08999f415" x="48.851283" y="131.170423" style="stroke: #000000; stroke-width: 0.8"/>
      </g>
     </g>
     <g id="text_5">
      <text style="font: 10px 'Arial', sans-serif; text-anchor: end" x="41.851283" y="134.749329" transform="rotate(-0 41.851283 134.749329)">0.0</text>
     </g>
    </g>
    <g id="ytick_5">
     <g id="line2d_5">
      <g>
       <use xlink:href="#mf08999f415" x="48.851283" y="80.257893" style="stroke: #000000; stroke-width: 0.8"/>
      </g>
     </g>
     <g id="text_6">
      <text style="font: 10px 'Arial', sans-serif; text-anchor: end" x="41.851283" y="83.836799" transform="rotate(-0 41.851283 83.836799)">0.1</text>
     </g>
    </g>
    <g id="ytick_6">
     <g id="line2d_6">
      <g>
       <use xlink:href="#mf08999f415" x="48.851283" y="29.345363" style="stroke: #000000; stroke-width: 0.8"/>
      </g>
     </g>
     <g id="text_7">
      <text style="font: 10px 'Arial', sans-serif; text-anchor: end" x="41.851283" y="32.924269" transform="rotate(-0 41.851283 32.924269)">0.2</text>
     </g>
    </g>
    <g id="text_8">
     <text style="font: 10px 'Arial', sans-serif; text-anchor: middle" x="16.005971" y="152.31998" transform="rotate(-90 16.005971 152.31998)">Activity</text>
    </g>
   </g>
   <g id="line2d_7">
    <path d="M 48.851283 128.320434 
L 60.011283 118.207826 
L 71.171283 115.111064 
L 82.331283 110.769781 
L 93.491283 91.462207 
L 104.651283 87.38744 
L 115.811283 90.201048 
L 126.971283 87.535814 
L 138.131283 88.749095 
L 149.291283 99.492676 
L 160.451283 104.49349 
L 171.611283 112.325475 
L 182.771283 116.619594 
L 193.931283 129.842248 
L 205.091283 141.278347 
L 216.251283 133.865252 
L 227.411283 123.702587 
L 238.571283 121.146194 
L 249.731283 127.88051 
L 260.891283 146.506019 
L 272.051283 160.800652 
L 283.211283 159.444342 
L 294.371283 153.363716 
L 305.531283 156.81764 
L 316.691283 158.08448 
L 327.851283 166.723167 
L 339.011283 180.72166 
L 350.171283 196.73135 
L 361.331283 210.271869 
L 372.491283 220.032621 
L 383.651283 198.279084 
L 394.811283 150.011473 
L 405.971283 106.438225 
" clip-path="url(#p34976aee14)" style="fill: none; stroke: #1f77b4; stroke-width: 1.5; stroke-linecap: square"/>
   </g>
   <g id="line2d_8">
    <path d="M 48.851283 199.068184 
L 60.011283 189.832502 
L 71.171283 190.70595 
L 82.331283 175.92521 
L 93.491283 157.32913 
L 104.651283 139.969329 
L 115.811283 144.644811 
L 126.971283 156.43167 
L 138.131283 154.457252 
L 149.291283 142.009519 
L 160.451283 140.815693 
L 171.611283 152.37773 
L 182.771283 161.09131 
L 193.931283 165.614418 
L 205.091283 173.109266 
L 216.251283 175.762092 
L 227.411283 174.010173 
L 238.571283 184.496511 
L 249.731283 190.712922 
L 260.891283 188.312558 
L 272.051283 200.413364 
L 283.211283 222.796905 
L 294.371283 241.794739 
L 305.531283 233.589899 
L 316.691283 227.221075 
L 327.851283 228.222523 
L 339.011283 225.562486 
L 350.171283 218.947683 
L 361.331283 220.81346 
L 372.491283 221.100892 
L 383.651283 216.508635 
L 394.811283 207.964524 
L 405.971283 212.607854 
" clip-path="url(#p34976aee14)" style="fill: none; stroke: #ff7f0e; stroke-width: 1.5; stroke-linecap: square"/>
   </g>
   <g id="line2d_9">
    <path d="M 82.331283 285.37598 
L 82.331283 19.26398 
" clip-path="url(#p34976aee14)" style="fill: none; stroke-dasharray: 5.55,2.4; stroke-dashoffset: 0; stroke: #000000; stroke-opacity: 0.5; stroke-width: 1.5"/>
   </g>
   <g id="line2d_10">
    <path d="M 383.651283 285.37598 
L 383.651283 19.26398 
" clip-path="url(#p34976aee14)" style="fill: none; stroke-dasharray: 5.55,2.4; stroke-dashoffset: 0; stroke: #000000; stroke-opacity: 0.5; stroke-width: 1.5"/>
   </g>
   <g id="patch_3">
    <path d="M 48.851283 285.37598 
L 405.971283 285.37598 
" style="fill: none; stroke: #000000; stroke-width: 0.8; stroke-linejoin: miter; stroke-linecap: square"/>
   </g>
   <g id="text_9">
    <text style="font: 6.94px 'Arial', sans-serif" transform="translate(10.097767 321.385533) rotate(-35)">-0.1s Sampling</text>
   </g>
   <g id="text_10">
    <text style="font: 6.94px 'Arial', sans-serif" transform="translate(57.794497 311.430872) rotate(-35)">Sampling</text>
   </g>
   <g id="text_11">
    <text style="font: 6.94px 'Arial', sans-serif" transform="translate(319.037191 339.456682) rotate(-35)">Movement to Lateral Port</text>
   </g>
   <g id="text_12">
    <text style="font: 8.33px 'Arial', sans-serif; text-anchor: middle" x="227.411283" y="13.26398" transform="rotate(-0 227.411283 13.26398)">GP4_23_s3_L50_D250_M2 - Trace:101_GP4_23_s3_L50_D250_M2 (when: correct)</text>
   </g>
   <g id="legend_1">
    <g id="patch_4">
     <path d="M 131.766697 354.133136 
L 323.055869 354.133136 
Q 324.443869 354.133136 324.443869 352.745136 
L 324.443869 343.45638 
Q 324.443869 342.06838 323.055869 342.06838 
L 131.766697 342.06838 
Q 130.378697 342.06838 130.378697 343.45638 
L 130.378697 352.745136 
Q 130.378697 354.133136 131.766697 354.133136 
z
" style="fill: #ffffff; opacity: 0.8; stroke: #cccccc; stroke-linejoin: miter"/>
    </g>
    <g id="line2d_11">
     <path d="M 133.154697 347.467483 
L 140.094697 347.467483 
L 147.034697 347.467483 
" style="fill: none; stroke: #1f77b4; stroke-width: 1.5; stroke-linecap: square"/>
    </g>
    <g id="text_13">
     <text style="font: 6.94px 'Arial', sans-serif; text-anchor: start" x="152.586697" y="349.896483" transform="rotate(-0 152.586697 349.896483)">DecisionRight (102 pts)</text>
    </g>
    <g id="line2d_12">
     <path d="M 238.5939 347.467483 
L 245.5339 347.467483 
L 252.4739 347.467483 
" style="fill: none; stroke: #ff7f0e; stroke-width: 1.5; stroke-linecap: square"/>
    </g>
    <g id="text_14">
     <text style="font: 6.94px 'Arial', sans-serif; text-anchor: start" x="258.0259" y="349.896483" transform="rotate(-0 258.0259 349.896483)">DecisionLeft (90 pts)</text>
    </g>
   </g>
  </g>
 </g>
 <defs>
  <clipPath id="p34976aee14">
   <rect x="48.851283" y="19.26398" width="357.12" height="266.112"/>
  </clipPath>
 </defs>
</svg>
