<?xml version="1.0" encoding="utf-8" standalone="no"?>
<!DOCTYPE svg PUBLIC "-//W3C//DTD SVG 1.1//EN"
  "http://www.w3.org/Graphics/SVG/1.1/DTD/svg11.dtd">
<svg xmlns:xlink="http://www.w3.org/1999/xlink" width="413.171283pt" height="361.333136pt" viewBox="0 0 413.171283 361.333136" xmlns="http://www.w3.org/2000/svg" version="1.1">
 <metadata>
  <rdf:RDF xmlns:dc="http://purl.org/dc/elements/1.1/" xmlns:cc="http://creativecommons.org/ns#" xmlns:rdf="http://www.w3.org/1999/02/22-rdf-syntax-ns#">
   <cc:Work>
    <dc:type rdf:resource="http://purl.org/dc/dcmitype/StillImage"/>
    <dc:date>2025-12-30T01:47:38.975364</dc:date>
    <dc:format>image/svg+xml</dc:format>
    <dc:creator>
     <cc:Agent>
      <dc:title>Matplotlib v3.8.0, https://matplotlib.org/</dc:title>
     </cc:Agent>
    </dc:creator>
   </cc:Work>
  </rdf:RDF>
 </metadata>
 <defs>
  <style type="text/css">*{stroke-linejoin: round; stroke-linecap: butt}</style>
 </defs>
 <g id="figure_1">
  <g id="patch_1">
   <path d="M 0 361.333136 
L 413.171283 361.333136 
L 413.171283 -0 
L 0 -0 
z
" style="fill: #ffffff"/>
  </g>
  <g id="axes_1">
   <g id="patch_2">
    <path d="M 48.851283 285.37598 
L 405.971283 285.37598 
L 405.971283 19.26398 
L 48.851283 19.26398 
z
" style="fill: #ffffff"/>
   </g>
   <g id="PolyCollection_1">
    <defs>
     <path id="m308c32b014" d="M 48.851283 -110.008249 
L 48.851283 -95.091229 
L 60.011283 -101.973138 
L 71.171283 -113.161467 
L 82.331283 -129.604662 
L 93.491283 -145.078477 
L 104.651283 -164.42854 
L 115.811283 -183.496616 
L 126.971283 -202.469312 
L 138.131283 -220.892582 
L 149.291283 -234.421082 
L 160.451283 -240.165864 
L 171.611283 -239.636558 
L 182.771283 -235.095742 
L 193.931283 -227.995891 
L 205.091283 -223.218201 
L 216.251283 -220.057463 
L 227.411283 -218.152361 
L 238.571283 -219.269723 
L 249.731283 -220.066044 
L 260.891283 -219.748224 
L 272.051283 -219.690847 
L 283.211283 -220.867293 
L 294.371283 -221.954073 
L 305.531283 -220.869895 
L 316.691283 -217.695981 
L 327.851283 -215.545991 
L 339.011283 -213.218415 
L 350.171283 -209.67208 
L 361.331283 -206.991344 
L 372.491283 -204.085136 
L 383.651283 -199.928504 
L 394.811283 -194.682303 
L 405.971283 -188.01008 
L 405.971283 -222.206424 
L 405.971283 -222.206424 
L 394.811283 -229.989335 
L 383.651283 -236.393033 
L 372.491283 -241.924881 
L 361.331283 -245.516234 
L 350.171283 -249.068521 
L 339.011283 -252.941288 
L 327.851283 -255.437315 
L 316.691283 -257.721272 
L 305.531283 -260.868363 
L 294.371283 -261.445067 
L 283.211283 -259.462725 
L 272.051283 -257.452965 
L 260.891283 -257.409801 
L 249.731283 -257.629793 
L 238.571283 -256.030477 
L 227.411283 -255.091403 
L 216.251283 -258.470989 
L 205.091283 -262.460577 
L 193.931283 -267.225511 
L 182.771283 -274.203461 
L 171.611283 -278.543961 
L 160.451283 -278.469198 
L 149.291283 -271.247811 
L 138.131283 -254.853661 
L 126.971283 -232.21685 
L 115.811283 -208.964342 
L 104.651283 -186.053386 
L 93.491283 -163.362942 
L 82.331283 -145.635725 
L 71.171283 -128.275286 
L 60.011283 -117.072974 
L 48.851283 -110.008249 
z
" style="stroke: #1f77b4; stroke-opacity: 0.2"/>
    </defs>
    <g clip-path="url(#pa081b2a129)">
     <use xlink:href="#m308c32b014" x="0" y="361.333136" style="fill: #1f77b4; fill-opacity: 0.2; stroke: #1f77b4; stroke-opacity: 0.2"/>
    </g>
   </g>
   <g id="PolyCollection_2">
    <defs>
     <path id="m9694301ba7" d="M 48.851283 -107.913363 
L 48.851283 -88.053156 
L 60.011283 -95.05947 
L 71.171283 -106.939306 
L 82.331283 -131.998524 
L 93.491283 -157.020399 
L 104.651283 -186.758021 
L 115.811283 -215.160288 
L 126.971283 -242.243784 
L 138.131283 -261.397581 
L 149.291283 -272.386399 
L 160.451283 -277.307834 
L 171.611283 -277.401657 
L 182.771283 -273.782342 
L 193.931283 -271.459525 
L 205.091283 -270.202244 
L 216.251283 -269.817544 
L 227.411283 -270.30308 
L 238.571283 -271.895115 
L 249.731283 -275.741934 
L 260.891283 -277.935339 
L 272.051283 -277.772519 
L 283.211283 -276.473687 
L 294.371283 -276.546489 
L 305.531283 -277.7415 
L 316.691283 -277.916893 
L 327.851283 -275.443072 
L 339.011283 -271.574457 
L 350.171283 -265.877045 
L 361.331283 -259.190141 
L 372.491283 -255.195393 
L 383.651283 -249.189317 
L 394.811283 -241.164159 
L 405.971283 -229.144878 
L 405.971283 -272.501287 
L 405.971283 -272.501287 
L 394.811283 -287.196007 
L 383.651283 -296.835692 
L 372.491283 -304.171361 
L 361.331283 -308.758255 
L 350.171283 -316.349078 
L 339.011283 -322.762828 
L 327.851283 -327.176672 
L 316.691283 -329.973156 
L 305.531283 -329.629054 
L 294.371283 -327.922424 
L 283.211283 -327.253662 
L 272.051283 -328.192388 
L 260.891283 -327.91018 
L 249.731283 -324.714988 
L 238.571283 -319.327113 
L 227.411283 -316.488516 
L 216.251283 -315.84351 
L 205.091283 -317.295877 
L 193.931283 -319.99452 
L 182.771283 -323.13131 
L 171.611283 -327.0007 
L 160.451283 -326.294121 
L 149.291283 -319.029953 
L 138.131283 -304.692754 
L 126.971283 -281.019787 
L 115.811283 -248.280942 
L 104.651283 -215.476267 
L 93.491283 -180.625379 
L 82.331283 -152.127942 
L 71.171283 -125.52564 
L 60.011283 -113.831257 
L 48.851283 -107.913363 
z
" style="stroke: #ff7f0e; stroke-opacity: 0.2"/>
    </defs>
    <g clip-path="url(#pa081b2a129)">
     <use xlink:href="#m9694301ba7" x="0" y="361.333136" style="fill: #ff7f0e; fill-opacity: 0.2; stroke: #ff7f0e; stroke-opacity: 0.2"/>
    </g>
   </g>
   <g id="matplotlib.axis_1">
    <g id="text_1">
     <text style="font: 10px 'Arial', sans-serif; text-anchor: middle" x="227.411283" y="296.533792" transform="rotate(-0 227.411283 296.533792)">Time</text>
    </g>
   </g>
   <g id="matplotlib.axis_2">
    <g id="ytick_1">
     <g id="line2d_1">
      <defs>
       <path id="m56df233cf8" d="M 0 0 
L -3.5 0 
" style="stroke: #000000; stroke-width: 0.8"/>
      </defs>
      <g>
       <use xlink:href="#m56df233cf8" x="48.851283" y="264.371348" style="stroke: #000000; stroke-width: 0.8"/>
      </g>
     </g>
     <g id="text_2">
      <text style="font: 10px 'Arial', sans-serif; text-anchor: end" x="41.851283" y="267.950254" transform="rotate(-0 41.851283 267.950254)">−0.4</text>
     </g>
    </g>
    <g id="ytick_2">
     <g id="line2d_2">
      <g>
       <use xlink:href="#m56df233cf8" x="48.851283" y="234.471392" style="stroke: #000000; stroke-width: 0.8"/>
      </g>
     </g>
     <g id="text_3">
      <text style="font: 10px 'Arial', sans-serif; text-anchor: end" x="41.851283" y="238.050298" transform="rotate(-0 41.851283 238.050298)">−0.2</text>
     </g>
    </g>
    <g id="ytick_3">
     <g id="line2d_3">
      <g>
       <use xlink:href="#m56df233cf8" x="48.851283" y="204.571436" style="stroke: #000000; stroke-width: 0.8"/>
      </g>
     </g>
     <g id="text_4">
      <text style="font: 10px 'Arial', sans-serif; text-anchor: end" x="41.851283" y="208.150342" transform="rotate(-0 41.851283 208.150342)">0.0</text>
     </g>
    </g>
    <g id="ytick_4">
     <g id="line2d_4">
      <g>
       <use xlink:href="#m56df233cf8" x="48.851283" y="174.67148" style="stroke: #000000; stroke-width: 0.8"/>
      </g>
     </g>
     <g id="text_5">
      <text style="font: 10px 'Arial', sans-serif; text-anchor: end" x="41.851283" y="178.250386" transform="rotate(-0 41.851283 178.250386)">0.2</text>
     </g>
    </g>
    <g id="ytick_5">
     <g id="line2d_5">
      <g>
       <use xlink:href="#m56df233cf8" x="48.851283" y="144.771524" style="stroke: #000000; stroke-width: 0.8"/>
      </g>
     </g>
     <g id="text_6">
      <text style="font: 10px 'Arial', sans-serif; text-anchor: end" x="41.851283" y="148.35043" transform="rotate(-0 41.851283 148.35043)">0.4</text>
     </g>
    </g>
    <g id="ytick_6">
     <g id="line2d_6">
      <g>
       <use xlink:href="#m56df233cf8" x="48.851283" y="114.871568" style="stroke: #000000; stroke-width: 0.8"/>
      </g>
     </g>
     <g id="text_7">
      <text style="font: 10px 'Arial', sans-serif; text-anchor: end" x="41.851283" y="118.450474" transform="rotate(-0 41.851283 118.450474)">0.6</text>
     </g>
    </g>
    <g id="ytick_7">
     <g id="line2d_7">
      <g>
       <use xlink:href="#m56df233cf8" x="48.851283" y="84.971612" style="stroke: #000000; stroke-width: 0.8"/>
      </g>
     </g>
     <g id="text_8">
      <text style="font: 10px 'Arial', sans-serif; text-anchor: end" x="41.851283" y="88.550519" transform="rotate(-0 41.851283 88.550519)">0.8</text>
     </g>
    </g>
    <g id="ytick_8">
     <g id="line2d_8">
      <g>
       <use xlink:href="#m56df233cf8" x="48.851283" y="55.071656" style="stroke: #000000; stroke-width: 0.8"/>
      </g>
     </g>
     <g id="text_9">
      <text style="font: 10px 'Arial', sans-serif; text-anchor: end" x="41.851283" y="58.650563" transform="rotate(-0 41.851283 58.650563)">1.0</text>
     </g>
    </g>
    <g id="ytick_9">
     <g id="line2d_9">
      <g>
       <use xlink:href="#m56df233cf8" x="48.851283" y="25.171701" style="stroke: #000000; stroke-width: 0.8"/>
      </g>
     </g>
     <g id="text_10">
      <text style="font: 10px 'Arial', sans-serif; text-anchor: end" x="41.851283" y="28.750607" transform="rotate(-0 41.851283 28.750607)">1.2</text>
     </g>
    </g>
    <g id="text_11">
     <text style="font: 10px 'Arial', sans-serif; text-anchor: middle" x="16.005971" y="152.31998" transform="rotate(-90 16.005971 152.31998)">Activity</text>
    </g>
   </g>
   <g id="line2d_10">
    <path d="M 48.851283 258.783397 
L 60.011283 251.81008 
L 71.171283 240.614759 
L 82.331283 223.712942 
L 93.491283 207.112427 
L 104.651283 186.092173 
L 115.811283 165.102657 
L 126.971283 143.990057 
L 138.131283 123.460015 
L 149.291283 108.498689 
L 160.451283 102.015605 
L 171.611283 102.242877 
L 182.771283 106.683534 
L 193.931283 113.722435 
L 205.091283 118.493749 
L 216.251283 122.06891 
L 227.411283 124.711254 
L 238.571283 123.683036 
L 249.731283 122.485218 
L 260.891283 122.754121 
L 272.051283 122.761232 
L 283.211283 121.168127 
L 294.371283 119.633566 
L 305.531283 120.464007 
L 316.691283 123.624509 
L 327.851283 125.841483 
L 339.011283 128.253284 
L 350.171283 131.962835 
L 361.331283 135.079349 
L 372.491283 138.328127 
L 383.651283 143.172368 
L 394.811283 148.997317 
L 405.971283 156.224884 
" clip-path="url(#pa081b2a129)" style="fill: none; stroke: #1f77b4; stroke-width: 1.5; stroke-linecap: square"/>
   </g>
   <g id="line2d_11">
    <path d="M 48.851283 263.349876 
L 60.011283 256.887772 
L 71.171283 245.100663 
L 82.331283 219.269903 
L 93.491283 192.510247 
L 104.651283 160.215992 
L 115.811283 129.612524 
L 126.971283 99.701351 
L 138.131283 78.287968 
L 149.291283 65.624956 
L 160.451283 59.532158 
L 171.611283 59.131953 
L 182.771283 62.876314 
L 193.931283 65.606118 
L 205.091283 67.584075 
L 216.251283 68.502609 
L 227.411283 67.937338 
L 238.571283 65.722022 
L 249.731283 61.104671 
L 260.891283 58.410377 
L 272.051283 58.350683 
L 283.211283 59.469461 
L 294.371283 59.09868 
L 305.531283 57.647864 
L 316.691283 57.388111 
L 327.851283 60.023264 
L 339.011283 64.164498 
L 350.171283 70.220074 
L 361.331283 77.358938 
L 372.491283 81.649759 
L 383.651283 88.320632 
L 394.811283 97.153053 
L 405.971283 110.510054 
" clip-path="url(#pa081b2a129)" style="fill: none; stroke: #ff7f0e; stroke-width: 1.5; stroke-linecap: square"/>
   </g>
   <g id="line2d_12">
    <path d="M 82.331283 285.37598 
L 82.331283 19.26398 
" clip-path="url(#pa081b2a129)" style="fill: none; stroke-dasharray: 5.55,2.4; stroke-dashoffset: 0; stroke: #000000; stroke-opacity: 0.5; stroke-width: 1.5"/>
   </g>
   <g id="line2d_13">
    <path d="M 383.651283 285.37598 
L 383.651283 19.26398 
" clip-path="url(#pa081b2a129)" style="fill: none; stroke-dasharray: 5.55,2.4; stroke-dashoffset: 0; stroke: #000000; stroke-opacity: 0.5; stroke-width: 1.5"/>
   </g>
   <g id="patch_3">
    <path d="M 48.851283 285.37598 
L 405.971283 285.37598 
" style="fill: none; stroke: #000000; stroke-width: 0.8; stroke-linejoin: miter; stroke-linecap: square"/>
   </g>
   <g id="text_12">
    <text style="font: 6.94px 'Arial', sans-serif" transform="translate(10.097767 321.385533) rotate(-35)">-0.1s Sampling</text>
   </g>
   <g id="text_13">
    <text style="font: 6.94px 'Arial', sans-serif" transform="translate(57.794497 311.430872) rotate(-35)">Sampling</text>
   </g>
   <g id="text_14">
    <text style="font: 6.94px 'Arial', sans-serif" transform="translate(319.037191 339.456682) rotate(-35)">Movement to Lateral Port</text>
   </g>
   <g id="text_15">
    <text style="font: 8.33px 'Arial', sans-serif; text-anchor: middle" x="227.411283" y="13.26398" transform="rotate(-0 227.411283 13.26398)">GP4_23_s3_L50_D250_M2 - Trace:108_GP4_23_s3_L50_D250_M2 (when: correct)</text>
   </g>
   <g id="legend_1">
    <g id="patch_4">
     <path d="M 131.766697 354.133136 
L 323.055869 354.133136 
Q 324.443869 354.133136 324.443869 352.745136 
L 324.443869 343.45638 
Q 324.443869 342.06838 323.055869 342.06838 
L 131.766697 342.06838 
Q 130.378697 342.06838 130.378697 343.45638 
L 130.378697 352.745136 
Q 130.378697 354.133136 131.766697 354.133136 
z
" style="fill: #ffffff; opacity: 0.8; stroke: #cccccc; stroke-linejoin: miter"/>
    </g>
    <g id="line2d_14">
     <path d="M 133.154697 347.467483 
L 140.094697 347.467483 
L 147.034697 347.467483 
" style="fill: none; stroke: #1f77b4; stroke-width: 1.5; stroke-linecap: square"/>
    </g>
    <g id="text_16">
     <text style="font: 6.94px 'Arial', sans-serif; text-anchor: start" x="152.586697" y="349.896483" transform="rotate(-0 152.586697 349.896483)">DecisionRight (102 pts)</text>
    </g>
    <g id="line2d_15">
     <path d="M 238.5939 347.467483 
L 245.5339 347.467483 
L 252.4739 347.467483 
" style="fill: none; stroke: #ff7f0e; stroke-width: 1.5; stroke-linecap: square"/>
    </g>
    <g id="text_17">
     <text style="font: 6.94px 'Arial', sans-serif; text-anchor: start" x="258.0259" y="349.896483" transform="rotate(-0 258.0259 349.896483)">DecisionLeft (90 pts)</text>
    </g>
   </g>
  </g>
 </g>
 <defs>
  <clipPath id="pa081b2a129">
   <rect x="48.851283" y="19.26398" width="357.12" height="266.112"/>
  </clipPath>
 </defs>
</svg>
