<?xml version="1.0" encoding="utf-8" standalone="no"?>
<!DOCTYPE svg PUBLIC "-//W3C//DTD SVG 1.1//EN"
  "http://www.w3.org/Graphics/SVG/1.1/DTD/svg11.dtd">
<svg xmlns:xlink="http://www.w3.org/1999/xlink" width="413.171283pt" height="361.333136pt" viewBox="0 0 413.171283 361.333136" xmlns="http://www.w3.org/2000/svg" version="1.1">
 <metadata>
  <rdf:RDF xmlns:dc="http://purl.org/dc/elements/1.1/" xmlns:cc="http://creativecommons.org/ns#" xmlns:rdf="http://www.w3.org/1999/02/22-rdf-syntax-ns#">
   <cc:Work>
    <dc:type rdf:resource="http://purl.org/dc/dcmitype/StillImage"/>
    <dc:date>2025-12-30T01:47:35.841164</dc:date>
    <dc:format>image/svg+xml</dc:format>
    <dc:creator>
     <cc:Agent>
      <dc:title>Matplotlib v3.8.0, https://matplotlib.org/</dc:title>
     </cc:Agent>
    </dc:creator>
   </cc:Work>
  </rdf:RDF>
 </metadata>
 <defs>
  <style type="text/css">*{stroke-linejoin: round; stroke-linecap: butt}</style>
 </defs>
 <g id="figure_1">
  <g id="patch_1">
   <path d="M 0 361.333136 
L 413.171283 361.333136 
L 413.171283 -0 
L 0 -0 
z
" style="fill: #ffffff"/>
  </g>
  <g id="axes_1">
   <g id="patch_2">
    <path d="M 48.851283 285.37598 
L 405.971283 285.37598 
L 405.971283 19.26398 
L 48.851283 19.26398 
z
" style="fill: #ffffff"/>
   </g>
   <g id="PolyCollection_1">
    <defs>
     <path id="mb41c339002" d="M 48.851283 -182.069925 
L 48.851283 -128.935608 
L 60.011283 -138.623192 
L 71.171283 -150.668582 
L 82.331283 -151.996169 
L 93.491283 -158.42493 
L 104.651283 -163.431227 
L 115.811283 -180.629657 
L 126.971283 -196.557883 
L 138.131283 -210.949001 
L 149.291283 -231.962437 
L 160.451283 -250.982204 
L 171.611283 -260.800514 
L 182.771283 -254.085338 
L 193.931283 -246.221471 
L 205.091283 -236.482763 
L 216.251283 -229.249236 
L 227.411283 -218.426929 
L 238.571283 -205.592647 
L 249.731283 -200.373463 
L 260.891283 -201.370573 
L 272.051283 -194.634254 
L 283.211283 -185.880539 
L 294.371283 -179.323812 
L 305.531283 -164.870728 
L 316.691283 -149.245866 
L 327.851283 -138.351657 
L 339.011283 -134.226675 
L 350.171283 -131.352086 
L 361.331283 -128.938747 
L 372.491283 -129.940282 
L 383.651283 -124.006258 
L 394.811283 -109.093499 
L 405.971283 -88.053156 
L 405.971283 -136.095496 
L 405.971283 -136.095496 
L 394.811283 -162.589164 
L 383.651283 -178.060852 
L 372.491283 -184.048436 
L 361.331283 -184.00079 
L 350.171283 -185.601987 
L 339.011283 -186.852118 
L 327.851283 -189.201853 
L 316.691283 -201.400465 
L 305.531283 -219.856165 
L 294.371283 -236.346222 
L 283.211283 -246.394186 
L 272.051283 -256.440404 
L 260.891283 -261.793375 
L 249.731283 -260.420736 
L 238.571283 -266.058641 
L 227.411283 -279.91808 
L 216.251283 -293.655279 
L 205.091283 -303.786352 
L 193.931283 -316.249334 
L 182.771283 -324.954838 
L 171.611283 -329.973156 
L 160.451283 -317.499461 
L 149.291283 -293.664653 
L 138.131283 -266.98212 
L 126.971283 -248.208436 
L 115.811283 -230.898321 
L 104.651283 -215.163838 
L 93.491283 -211.111401 
L 82.331283 -204.411332 
L 71.171283 -204.897392 
L 60.011283 -193.407789 
L 48.851283 -182.069925 
z
" style="stroke: #1f77b4; stroke-opacity: 0.2"/>
    </defs>
    <g clip-path="url(#pcc721e2472)">
     <use xlink:href="#mb41c339002" x="0" y="361.333136" style="fill: #1f77b4; fill-opacity: 0.2; stroke: #1f77b4; stroke-opacity: 0.2"/>
    </g>
   </g>
   <g id="PolyCollection_2">
    <defs>
     <path id="mec14eef0b1" d="M 48.851283 -131.612625 
L 48.851283 -91.194529 
L 60.011283 -96.907525 
L 71.171283 -99.732799 
L 82.331283 -105.397596 
L 93.491283 -113.980566 
L 104.651283 -118.282469 
L 115.811283 -134.003582 
L 126.971283 -150.057312 
L 138.131283 -166.167827 
L 149.291283 -169.907795 
L 160.451283 -172.987837 
L 171.611283 -176.036218 
L 182.771283 -178.569985 
L 193.931283 -182.080646 
L 205.091283 -188.814705 
L 216.251283 -193.547479 
L 227.411283 -186.197084 
L 238.571283 -175.30069 
L 249.731283 -168.264234 
L 260.891283 -163.216215 
L 272.051283 -158.548767 
L 283.211283 -146.27144 
L 294.371283 -136.652223 
L 305.531283 -129.02946 
L 316.691283 -125.464293 
L 327.851283 -120.381615 
L 339.011283 -112.987521 
L 350.171283 -101.399134 
L 361.331283 -97.995819 
L 372.491283 -97.378288 
L 383.651283 -93.867428 
L 394.811283 -92.183987 
L 405.971283 -89.095615 
L 405.971283 -121.546134 
L 405.971283 -121.546134 
L 394.811283 -128.421371 
L 383.651283 -132.974403 
L 372.491283 -136.393669 
L 361.331283 -136.888386 
L 350.171283 -140.222631 
L 339.011283 -154.395136 
L 327.851283 -169.422425 
L 316.691283 -181.042386 
L 305.531283 -184.863582 
L 294.371283 -191.049051 
L 283.211283 -200.921643 
L 272.051283 -214.076529 
L 260.891283 -219.654251 
L 249.731283 -223.935237 
L 238.571283 -232.920511 
L 227.411283 -245.041092 
L 216.251283 -251.463736 
L 205.091283 -247.770101 
L 193.931283 -240.679667 
L 182.771283 -236.805123 
L 171.611283 -234.004732 
L 160.451283 -230.997157 
L 149.291283 -228.83782 
L 138.131283 -221.36823 
L 126.971283 -199.231315 
L 115.811283 -179.924487 
L 104.651283 -160.590118 
L 93.491283 -152.167184 
L 82.331283 -142.665634 
L 71.171283 -141.53311 
L 60.011283 -139.072612 
L 48.851283 -131.612625 
z
" style="stroke: #ff7f0e; stroke-opacity: 0.2"/>
    </defs>
    <g clip-path="url(#pcc721e2472)">
     <use xlink:href="#mec14eef0b1" x="0" y="361.333136" style="fill: #ff7f0e; fill-opacity: 0.2; stroke: #ff7f0e; stroke-opacity: 0.2"/>
    </g>
   </g>
   <g id="matplotlib.axis_1">
    <g id="text_1">
     <text style="font: 10px 'Arial', sans-serif; text-anchor: middle" x="227.411283" y="296.533792" transform="rotate(-0 227.411283 296.533792)">Time</text>
    </g>
   </g>
   <g id="matplotlib.axis_2">
    <g id="ytick_1">
     <g id="line2d_1">
      <defs>
       <path id="mcf64dcc9ca" d="M 0 0 
L -3.5 0 
" style="stroke: #000000; stroke-width: 0.8"/>
      </defs>
      <g>
       <use xlink:href="#mcf64dcc9ca" x="48.851283" y="254.561612" style="stroke: #000000; stroke-width: 0.8"/>
      </g>
     </g>
     <g id="text_2">
      <text style="font: 10px 'Arial', sans-serif; text-anchor: end" x="41.851283" y="258.140519" transform="rotate(-0 41.851283 258.140519)">−0.2</text>
     </g>
    </g>
    <g id="ytick_2">
     <g id="line2d_2">
      <g>
       <use xlink:href="#mcf64dcc9ca" x="48.851283" y="201.066929" style="stroke: #000000; stroke-width: 0.8"/>
      </g>
     </g>
     <g id="text_3">
      <text style="font: 10px 'Arial', sans-serif; text-anchor: end" x="41.851283" y="204.645835" transform="rotate(-0 41.851283 204.645835)">0.0</text>
     </g>
    </g>
    <g id="ytick_3">
     <g id="line2d_3">
      <g>
       <use xlink:href="#mcf64dcc9ca" x="48.851283" y="147.572245" style="stroke: #000000; stroke-width: 0.8"/>
      </g>
     </g>
     <g id="text_4">
      <text style="font: 10px 'Arial', sans-serif; text-anchor: end" x="41.851283" y="151.151151" transform="rotate(-0 41.851283 151.151151)">0.2</text>
     </g>
    </g>
    <g id="ytick_4">
     <g id="line2d_4">
      <g>
       <use xlink:href="#mcf64dcc9ca" x="48.851283" y="94.077561" style="stroke: #000000; stroke-width: 0.8"/>
      </g>
     </g>
     <g id="text_5">
      <text style="font: 10px 'Arial', sans-serif; text-anchor: end" x="41.851283" y="97.656467" transform="rotate(-0 41.851283 97.656467)">0.4</text>
     </g>
    </g>
    <g id="ytick_5">
     <g id="line2d_5">
      <g>
       <use xlink:href="#mcf64dcc9ca" x="48.851283" y="40.582878" style="stroke: #000000; stroke-width: 0.8"/>
      </g>
     </g>
     <g id="text_6">
      <text style="font: 10px 'Arial', sans-serif; text-anchor: end" x="41.851283" y="44.161784" transform="rotate(-0 41.851283 44.161784)">0.6</text>
     </g>
    </g>
    <g id="text_7">
     <text style="font: 10px 'Arial', sans-serif; text-anchor: middle" x="16.005971" y="152.31998" transform="rotate(-90 16.005971 152.31998)">Activity</text>
    </g>
   </g>
   <g id="line2d_6">
    <path d="M 48.851283 205.830369 
L 60.011283 195.317645 
L 71.171283 183.550148 
L 82.331283 183.129386 
L 93.491283 176.56497 
L 104.651283 172.035603 
L 115.811283 155.569145 
L 126.971283 138.949976 
L 138.131283 122.367575 
L 149.291283 98.519591 
L 160.451283 77.092308 
L 171.611283 65.946301 
L 182.771283 71.813048 
L 193.931283 80.097738 
L 205.091283 91.198579 
L 216.251283 99.880879 
L 227.411283 112.160631 
L 238.571283 125.50749 
L 249.731283 130.936037 
L 260.891283 129.751162 
L 272.051283 135.795809 
L 283.211283 145.195772 
L 294.371283 153.498118 
L 305.531283 168.969689 
L 316.691283 186.00997 
L 327.851283 197.556382 
L 339.011283 200.793739 
L 350.171283 202.856099 
L 361.331283 204.863369 
L 372.491283 204.338776 
L 383.651283 210.29958 
L 394.811283 225.491804 
L 405.971283 249.25881 
" clip-path="url(#pcc721e2472)" style="fill: none; stroke: #1f77b4; stroke-width: 1.5; stroke-linecap: square"/>
   </g>
   <g id="line2d_7">
    <path d="M 48.851283 249.929558 
L 60.011283 243.343068 
L 71.171283 240.700181 
L 82.331283 237.301522 
L 93.491283 228.259262 
L 104.651283 221.896842 
L 115.811283 204.369102 
L 126.971283 186.688823 
L 138.131283 167.565107 
L 149.291283 161.96033 
L 160.451283 159.34064 
L 171.611283 156.312663 
L 182.771283 153.64558 
L 193.931283 149.952977 
L 205.091283 143.040731 
L 216.251283 138.827529 
L 227.411283 145.714048 
L 238.571283 157.222534 
L 249.731283 165.233401 
L 260.891283 169.897902 
L 272.051283 175.020487 
L 283.211283 187.736594 
L 294.371283 197.482499 
L 305.531283 204.386614 
L 316.691283 208.079796 
L 327.851283 216.431117 
L 339.011283 227.641807 
L 350.171283 240.522253 
L 361.331283 243.891033 
L 372.491283 244.447156 
L 383.651283 247.912221 
L 394.811283 251.030458 
L 405.971283 256.01226 
" clip-path="url(#pcc721e2472)" style="fill: none; stroke: #ff7f0e; stroke-width: 1.5; stroke-linecap: square"/>
   </g>
   <g id="line2d_8">
    <path d="M 82.331283 285.37598 
L 82.331283 19.26398 
" clip-path="url(#pcc721e2472)" style="fill: none; stroke-dasharray: 5.55,2.4; stroke-dashoffset: 0; stroke: #000000; stroke-opacity: 0.5; stroke-width: 1.5"/>
   </g>
   <g id="line2d_9">
    <path d="M 383.651283 285.37598 
L 383.651283 19.26398 
" clip-path="url(#pcc721e2472)" style="fill: none; stroke-dasharray: 5.55,2.4; stroke-dashoffset: 0; stroke: #000000; stroke-opacity: 0.5; stroke-width: 1.5"/>
   </g>
   <g id="patch_3">
    <path d="M 48.851283 285.37598 
L 405.971283 285.37598 
" style="fill: none; stroke: #000000; stroke-width: 0.8; stroke-linejoin: miter; stroke-linecap: square"/>
   </g>
   <g id="text_8">
    <text style="font: 6.94px 'Arial', sans-serif" transform="translate(10.097767 321.385533) rotate(-35)">-0.1s Sampling</text>
   </g>
   <g id="text_9">
    <text style="font: 6.94px 'Arial', sans-serif" transform="translate(57.794497 311.430872) rotate(-35)">Sampling</text>
   </g>
   <g id="text_10">
    <text style="font: 6.94px 'Arial', sans-serif" transform="translate(319.037191 339.456682) rotate(-35)">Movement to Lateral Port</text>
   </g>
   <g id="text_11">
    <text style="font: 8.33px 'Arial', sans-serif; text-anchor: middle" x="227.411283" y="13.26398" transform="rotate(-0 227.411283 13.26398)">GP4_23_s3_L50_D250_M2 - Trace:115_GP4_23_s3_L50_D250_M2 (when: correct)</text>
   </g>
   <g id="legend_1">
    <g id="patch_4">
     <path d="M 131.766697 354.133136 
L 323.055869 354.133136 
Q 324.443869 354.133136 324.443869 352.745136 
L 324.443869 343.45638 
Q 324.443869 342.06838 323.055869 342.06838 
L 131.766697 342.06838 
Q 130.378697 342.06838 130.378697 343.45638 
L 130.378697 352.745136 
Q 130.378697 354.133136 131.766697 354.133136 
z
" style="fill: #ffffff; opacity: 0.8; stroke: #cccccc; stroke-linejoin: miter"/>
    </g>
    <g id="line2d_10">
     <path d="M 133.154697 347.467483 
L 140.094697 347.467483 
L 147.034697 347.467483 
" style="fill: none; stroke: #1f77b4; stroke-width: 1.5; stroke-linecap: square"/>
    </g>
    <g id="text_12">
     <text style="font: 6.94px 'Arial', sans-serif; text-anchor: start" x="152.586697" y="349.896483" transform="rotate(-0 152.586697 349.896483)">DecisionRight (102 pts)</text>
    </g>
    <g id="line2d_11">
     <path d="M 238.5939 347.467483 
L 245.5339 347.467483 
L 252.4739 347.467483 
" style="fill: none; stroke: #ff7f0e; stroke-width: 1.5; stroke-linecap: square"/>
    </g>
    <g id="text_13">
     <text style="font: 6.94px 'Arial', sans-serif; text-anchor: start" x="258.0259" y="349.896483" transform="rotate(-0 258.0259 349.896483)">DecisionLeft (90 pts)</text>
    </g>
   </g>
  </g>
 </g>
 <defs>
  <clipPath id="pcc721e2472">
   <rect x="48.851283" y="19.26398" width="357.12" height="266.112"/>
  </clipPath>
 </defs>
</svg>
