<?xml version="1.0" encoding="utf-8" standalone="no"?>
<!DOCTYPE svg PUBLIC "-//W3C//DTD SVG 1.1//EN"
  "http://www.w3.org/Graphics/SVG/1.1/DTD/svg11.dtd">
<svg xmlns:xlink="http://www.w3.org/1999/xlink" width="413.171283pt" height="361.333136pt" viewBox="0 0 413.171283 361.333136" xmlns="http://www.w3.org/2000/svg" version="1.1">
 <metadata>
  <rdf:RDF xmlns:dc="http://purl.org/dc/elements/1.1/" xmlns:cc="http://creativecommons.org/ns#" xmlns:rdf="http://www.w3.org/1999/02/22-rdf-syntax-ns#">
   <cc:Work>
    <dc:type rdf:resource="http://purl.org/dc/dcmitype/StillImage"/>
    <dc:date>2025-12-29T04:06:59.617544</dc:date>
    <dc:format>image/svg+xml</dc:format>
    <dc:creator>
     <cc:Agent>
      <dc:title>Matplotlib v3.8.0, https://matplotlib.org/</dc:title>
     </cc:Agent>
    </dc:creator>
   </cc:Work>
  </rdf:RDF>
 </metadata>
 <defs>
  <style type="text/css">*{stroke-linejoin: round; stroke-linecap: butt}</style>
 </defs>
 <g id="figure_1">
  <g id="patch_1">
   <path d="M 0 361.333136 
L 413.171283 361.333136 
L 413.171283 -0 
L 0 -0 
z
" style="fill: #ffffff"/>
  </g>
  <g id="axes_1">
   <g id="patch_2">
    <path d="M 48.851283 285.37598 
L 405.971283 285.37598 
L 405.971283 19.26398 
L 48.851283 19.26398 
z
" style="fill: #ffffff"/>
   </g>
   <g id="PolyCollection_1">
    <defs>
     <path id="mb02e51aa74" d="M 48.851283 -158.137713 
L 48.851283 -114.314528 
L 60.011283 -113.666112 
L 71.171283 -115.617422 
L 82.331283 -118.810053 
L 93.491283 -121.020282 
L 104.651283 -129.061487 
L 115.811283 -141.151812 
L 126.971283 -152.950566 
L 138.131283 -169.038368 
L 149.291283 -184.307936 
L 160.451283 -195.36512 
L 171.611283 -205.023329 
L 182.771283 -213.69651 
L 193.931283 -221.414616 
L 205.091283 -230.663108 
L 216.251283 -241.354385 
L 227.411283 -251.406114 
L 238.571283 -253.456585 
L 249.731283 -255.746629 
L 260.891283 -255.463889 
L 272.051283 -255.533119 
L 283.211283 -258.553116 
L 294.371283 -261.530163 
L 305.531283 -262.199934 
L 316.691283 -258.459305 
L 327.851283 -253.365988 
L 339.011283 -250.823644 
L 350.171283 -243.435644 
L 361.331283 -238.550849 
L 372.491283 -238.732206 
L 383.651283 -239.484543 
L 394.811283 -245.56004 
L 405.971283 -250.407262 
L 405.971283 -317.908894 
L 405.971283 -317.908894 
L 394.811283 -312.634653 
L 383.651283 -304.933182 
L 372.491283 -302.643827 
L 361.331283 -302.334824 
L 350.171283 -308.379238 
L 339.011283 -316.418105 
L 327.851283 -317.532784 
L 316.691283 -322.322627 
L 305.531283 -325.67612 
L 294.371283 -323.761842 
L 283.211283 -320.273429 
L 272.051283 -315.844403 
L 260.891283 -313.87968 
L 249.731283 -313.295313 
L 238.571283 -309.972062 
L 227.411283 -307.559477 
L 216.251283 -295.998039 
L 205.091283 -284.115234 
L 193.931283 -273.421351 
L 182.771283 -264.783863 
L 171.611283 -255.401526 
L 160.451283 -244.624749 
L 149.291283 -232.591294 
L 138.131283 -215.097377 
L 126.971283 -195.865632 
L 115.811283 -182.053628 
L 104.651283 -168.816369 
L 93.491283 -161.112202 
L 82.331283 -159.890658 
L 71.171283 -157.958882 
L 60.011283 -156.535993 
L 48.851283 -158.137713 
z
" style="stroke: #1f77b4; stroke-opacity: 0.2"/>
    </defs>
    <g clip-path="url(#pcbe0946b19)">
     <use xlink:href="#mb02e51aa74" x="0" y="361.333136" style="fill: #1f77b4; fill-opacity: 0.2; stroke: #1f77b4; stroke-opacity: 0.2"/>
    </g>
   </g>
   <g id="PolyCollection_2">
    <defs>
     <path id="m4be6c2591f" d="M 48.851283 -134.311947 
L 48.851283 -88.053156 
L 60.011283 -89.167819 
L 71.171283 -93.094382 
L 82.331283 -97.176531 
L 93.491283 -98.709815 
L 104.651283 -100.967166 
L 115.811283 -108.505708 
L 126.971283 -118.602316 
L 138.131283 -129.310188 
L 149.291283 -143.600669 
L 160.451283 -159.793774 
L 171.611283 -171.724779 
L 182.771283 -178.603562 
L 193.931283 -188.797337 
L 205.091283 -201.337378 
L 216.251283 -212.163719 
L 227.411283 -220.798082 
L 238.571283 -228.019186 
L 249.731283 -231.739601 
L 260.891283 -230.63638 
L 272.051283 -233.046647 
L 283.211283 -235.861122 
L 294.371283 -236.540441 
L 305.531283 -236.121361 
L 316.691283 -238.401392 
L 327.851283 -239.6836 
L 339.011283 -238.878188 
L 350.171283 -235.698661 
L 361.331283 -236.432441 
L 372.491283 -238.041552 
L 383.651283 -243.824153 
L 394.811283 -247.571441 
L 405.971283 -245.328515 
L 405.971283 -328.093069 
L 405.971283 -328.093069 
L 394.811283 -329.973156 
L 383.651283 -324.581563 
L 372.491283 -317.050483 
L 361.331283 -314.835922 
L 350.171283 -314.310423 
L 339.011283 -318.297208 
L 327.851283 -318.317882 
L 316.691283 -314.664474 
L 305.531283 -311.044984 
L 294.371283 -311.277335 
L 283.211283 -309.663788 
L 272.051283 -305.250985 
L 260.891283 -300.821223 
L 249.731283 -299.113192 
L 238.571283 -292.389518 
L 227.411283 -282.587123 
L 216.251283 -272.622641 
L 205.091283 -260.340145 
L 193.931283 -245.133065 
L 182.771283 -232.150322 
L 171.611283 -222.924654 
L 160.451283 -208.785418 
L 149.291283 -190.591512 
L 138.131283 -176.0006 
L 126.971283 -166.29775 
L 115.811283 -156.612123 
L 104.651283 -147.816609 
L 93.491283 -144.649169 
L 82.331283 -142.922962 
L 71.171283 -138.164792 
L 60.011283 -134.177503 
L 48.851283 -134.311947 
z
" style="stroke: #ff7f0e; stroke-opacity: 0.2"/>
    </defs>
    <g clip-path="url(#pcbe0946b19)">
     <use xlink:href="#m4be6c2591f" x="0" y="361.333136" style="fill: #ff7f0e; fill-opacity: 0.2; stroke: #ff7f0e; stroke-opacity: 0.2"/>
    </g>
   </g>
   <g id="matplotlib.axis_1">
    <g id="text_1">
     <text style="font: 10px 'Arial', sans-serif; text-anchor: middle" x="227.411283" y="296.533792" transform="rotate(-0 227.411283 296.533792)">Time</text>
    </g>
   </g>
   <g id="matplotlib.axis_2">
    <g id="ytick_1">
     <g id="line2d_1">
      <defs>
       <path id="m2a7ad7f343" d="M 0 0 
L -3.5 0 
" style="stroke: #000000; stroke-width: 0.8"/>
      </defs>
      <g>
       <use xlink:href="#m2a7ad7f343" x="48.851283" y="278.855095" style="stroke: #000000; stroke-width: 0.8"/>
      </g>
     </g>
     <g id="text_2">
      <text style="font: 10px 'Arial', sans-serif; text-anchor: end" x="41.851283" y="282.434001" transform="rotate(-0 41.851283 282.434001)">−0.4</text>
     </g>
    </g>
    <g id="ytick_2">
     <g id="line2d_2">
      <g>
       <use xlink:href="#m2a7ad7f343" x="48.851283" y="225.12023" style="stroke: #000000; stroke-width: 0.8"/>
      </g>
     </g>
     <g id="text_3">
      <text style="font: 10px 'Arial', sans-serif; text-anchor: end" x="41.851283" y="228.699137" transform="rotate(-0 41.851283 228.699137)">−0.2</text>
     </g>
    </g>
    <g id="ytick_3">
     <g id="line2d_3">
      <g>
       <use xlink:href="#m2a7ad7f343" x="48.851283" y="171.385366" style="stroke: #000000; stroke-width: 0.8"/>
      </g>
     </g>
     <g id="text_4">
      <text style="font: 10px 'Arial', sans-serif; text-anchor: end" x="41.851283" y="174.964272" transform="rotate(-0 41.851283 174.964272)">0.0</text>
     </g>
    </g>
    <g id="ytick_4">
     <g id="line2d_4">
      <g>
       <use xlink:href="#m2a7ad7f343" x="48.851283" y="117.650501" style="stroke: #000000; stroke-width: 0.8"/>
      </g>
     </g>
     <g id="text_5">
      <text style="font: 10px 'Arial', sans-serif; text-anchor: end" x="41.851283" y="121.229408" transform="rotate(-0 41.851283 121.229408)">0.2</text>
     </g>
    </g>
    <g id="ytick_5">
     <g id="line2d_5">
      <g>
       <use xlink:href="#m2a7ad7f343" x="48.851283" y="63.915637" style="stroke: #000000; stroke-width: 0.8"/>
      </g>
     </g>
     <g id="text_6">
      <text style="font: 10px 'Arial', sans-serif; text-anchor: end" x="41.851283" y="67.494543" transform="rotate(-0 41.851283 67.494543)">0.4</text>
     </g>
    </g>
    <g id="text_7">
     <text style="font: 10px 'Arial', sans-serif; text-anchor: middle" x="16.005971" y="152.31998" transform="rotate(-90 16.005971 152.31998)">Activity</text>
    </g>
   </g>
   <g id="line2d_6">
    <path d="M 48.851283 225.107015 
L 60.011283 226.232084 
L 71.171283 224.544984 
L 82.331283 221.982782 
L 93.491283 220.266892 
L 104.651283 212.394209 
L 115.811283 199.730416 
L 126.971283 186.925036 
L 138.131283 169.265262 
L 149.291283 152.883521 
L 160.451283 141.3382 
L 171.611283 131.120708 
L 182.771283 122.09295 
L 193.931283 113.915152 
L 205.091283 103.943967 
L 216.251283 92.656924 
L 227.411283 81.85034 
L 238.571283 79.618812 
L 249.731283 76.812165 
L 260.891283 76.661351 
L 272.051283 75.644375 
L 283.211283 71.919864 
L 294.371283 68.687134 
L 305.531283 67.395105 
L 316.691283 70.94217 
L 327.851283 75.883748 
L 339.011283 77.712261 
L 350.171283 85.425695 
L 361.331283 90.890297 
L 372.491283 90.645119 
L 383.651283 89.124271 
L 394.811283 82.235787 
L 405.971283 77.175056 
" clip-path="url(#pcbe0946b19)" style="fill: none; stroke: #1f77b4; stroke-width: 1.5; stroke-linecap: square"/>
   </g>
   <g id="line2d_7">
    <path d="M 48.851283 250.150584 
L 60.011283 249.660477 
L 71.171283 245.703551 
L 82.331283 241.283389 
L 93.491283 239.653644 
L 104.651283 236.941249 
L 115.811283 228.77422 
L 126.971283 218.883102 
L 138.131283 208.677741 
L 149.291283 194.237044 
L 160.451283 177.043539 
L 171.611283 164.008419 
L 182.771283 155.956194 
L 193.931283 144.367936 
L 205.091283 130.494376 
L 216.251283 118.939955 
L 227.411283 109.640535 
L 238.571283 101.128784 
L 249.731283 95.906741 
L 260.891283 95.604336 
L 272.051283 92.18432 
L 283.211283 88.570683 
L 294.371283 87.424248 
L 305.531283 87.749961 
L 316.691283 84.800203 
L 327.851283 82.332393 
L 339.011283 82.74544 
L 350.171283 86.328594 
L 361.331283 85.698954 
L 372.491283 83.787118 
L 383.651283 77.13028 
L 394.811283 72.560841 
L 405.971283 74.622346 
" clip-path="url(#pcbe0946b19)" style="fill: none; stroke: #ff7f0e; stroke-width: 1.5; stroke-linecap: square"/>
   </g>
   <g id="line2d_8">
    <path d="M 82.331283 285.37598 
L 82.331283 19.26398 
" clip-path="url(#pcbe0946b19)" style="fill: none; stroke-dasharray: 5.55,2.4; stroke-dashoffset: 0; stroke: #000000; stroke-opacity: 0.5; stroke-width: 1.5"/>
   </g>
   <g id="line2d_9">
    <path d="M 383.651283 285.37598 
L 383.651283 19.26398 
" clip-path="url(#pcbe0946b19)" style="fill: none; stroke-dasharray: 5.55,2.4; stroke-dashoffset: 0; stroke: #000000; stroke-opacity: 0.5; stroke-width: 1.5"/>
   </g>
   <g id="patch_3">
    <path d="M 48.851283 285.37598 
L 405.971283 285.37598 
" style="fill: none; stroke: #000000; stroke-width: 0.8; stroke-linejoin: miter; stroke-linecap: square"/>
   </g>
   <g id="text_8">
    <text style="font: 6.94px 'Arial', sans-serif" transform="translate(10.097767 321.385533) rotate(-35)">-0.1s Sampling</text>
   </g>
   <g id="text_9">
    <text style="font: 6.94px 'Arial', sans-serif" transform="translate(57.794497 311.430872) rotate(-35)">Sampling</text>
   </g>
   <g id="text_10">
    <text style="font: 6.94px 'Arial', sans-serif" transform="translate(319.037191 339.456682) rotate(-35)">Movement to Lateral Port</text>
   </g>
   <g id="text_11">
    <text style="font: 8.33px 'Arial', sans-serif; text-anchor: middle" x="227.411283" y="13.26398" transform="rotate(-0 227.411283 13.26398)">GP4_23_s3_L50_D250_M2 - Trace:14_GP4_23_s3_L50_D250_M2 (when: correct)</text>
   </g>
   <g id="legend_1">
    <g id="patch_4">
     <path d="M 131.766697 354.133136 
L 323.055869 354.133136 
Q 324.443869 354.133136 324.443869 352.745136 
L 324.443869 343.45638 
Q 324.443869 342.06838 323.055869 342.06838 
L 131.766697 342.06838 
Q 130.378697 342.06838 130.378697 343.45638 
L 130.378697 352.745136 
Q 130.378697 354.133136 131.766697 354.133136 
z
" style="fill: #ffffff; opacity: 0.8; stroke: #cccccc; stroke-linejoin: miter"/>
    </g>
    <g id="line2d_10">
     <path d="M 133.154697 347.467483 
L 140.094697 347.467483 
L 147.034697 347.467483 
" style="fill: none; stroke: #1f77b4; stroke-width: 1.5; stroke-linecap: square"/>
    </g>
    <g id="text_12">
     <text style="font: 6.94px 'Arial', sans-serif; text-anchor: start" x="152.586697" y="349.896483" transform="rotate(-0 152.586697 349.896483)">DecisionRight (102 pts)</text>
    </g>
    <g id="line2d_11">
     <path d="M 238.5939 347.467483 
L 245.5339 347.467483 
L 252.4739 347.467483 
" style="fill: none; stroke: #ff7f0e; stroke-width: 1.5; stroke-linecap: square"/>
    </g>
    <g id="text_13">
     <text style="font: 6.94px 'Arial', sans-serif; text-anchor: start" x="258.0259" y="349.896483" transform="rotate(-0 258.0259 349.896483)">DecisionLeft (90 pts)</text>
    </g>
   </g>
  </g>
 </g>
 <defs>
  <clipPath id="pcbe0946b19">
   <rect x="48.851283" y="19.26398" width="357.12" height="266.112"/>
  </clipPath>
 </defs>
</svg>
