<?xml version="1.0" encoding="utf-8" standalone="no"?>
<!DOCTYPE svg PUBLIC "-//W3C//DTD SVG 1.1//EN"
  "http://www.w3.org/Graphics/SVG/1.1/DTD/svg11.dtd">
<svg xmlns:xlink="http://www.w3.org/1999/xlink" width="413.171283pt" height="361.333136pt" viewBox="0 0 413.171283 361.333136" xmlns="http://www.w3.org/2000/svg" version="1.1">
 <metadata>
  <rdf:RDF xmlns:dc="http://purl.org/dc/elements/1.1/" xmlns:cc="http://creativecommons.org/ns#" xmlns:rdf="http://www.w3.org/1999/02/22-rdf-syntax-ns#">
   <cc:Work>
    <dc:type rdf:resource="http://purl.org/dc/dcmitype/StillImage"/>
    <dc:date>2025-12-29T04:06:59.258780</dc:date>
    <dc:format>image/svg+xml</dc:format>
    <dc:creator>
     <cc:Agent>
      <dc:title>Matplotlib v3.8.0, https://matplotlib.org/</dc:title>
     </cc:Agent>
    </dc:creator>
   </cc:Work>
  </rdf:RDF>
 </metadata>
 <defs>
  <style type="text/css">*{stroke-linejoin: round; stroke-linecap: butt}</style>
 </defs>
 <g id="figure_1">
  <g id="patch_1">
   <path d="M 0 361.333136 
L 413.171283 361.333136 
L 413.171283 -0 
L 0 -0 
z
" style="fill: #ffffff"/>
  </g>
  <g id="axes_1">
   <g id="patch_2">
    <path d="M 48.851283 285.37598 
L 405.971283 285.37598 
L 405.971283 19.26398 
L 48.851283 19.26398 
z
" style="fill: #ffffff"/>
   </g>
   <g id="PolyCollection_1">
    <defs>
     <path id="m6a875ba5af" d="M 48.851283 -219.252543 
L 48.851283 -177.451872 
L 60.011283 -200.973918 
L 71.171283 -222.021371 
L 82.331283 -233.29118 
L 93.491283 -232.900832 
L 104.651283 -229.063898 
L 115.811283 -226.17342 
L 126.971283 -216.498747 
L 138.131283 -209.519304 
L 149.291283 -201.91803 
L 160.451283 -196.568274 
L 171.611283 -192.67343 
L 182.771283 -190.000695 
L 193.931283 -190.347398 
L 205.091283 -187.984738 
L 216.251283 -180.855495 
L 227.411283 -176.661211 
L 238.571283 -170.57403 
L 249.731283 -167.33082 
L 260.891283 -168.557213 
L 272.051283 -166.862346 
L 283.211283 -164.006783 
L 294.371283 -158.419946 
L 305.531283 -146.470282 
L 316.691283 -122.686768 
L 327.851283 -108.065749 
L 339.011283 -101.487101 
L 350.171283 -95.777381 
L 361.331283 -93.618021 
L 372.491283 -90.927637 
L 383.651283 -88.053156 
L 394.811283 -95.480311 
L 405.971283 -105.218795 
L 405.971283 -128.0563 
L 405.971283 -128.0563 
L 394.811283 -117.073858 
L 383.651283 -108.369917 
L 372.491283 -112.434637 
L 361.331283 -115.751783 
L 350.171283 -117.974753 
L 339.011283 -123.551572 
L 327.851283 -131.911554 
L 316.691283 -149.229555 
L 305.531283 -174.636574 
L 294.371283 -189.737424 
L 283.211283 -195.686512 
L 272.051283 -196.455734 
L 260.891283 -195.647498 
L 249.731283 -195.466837 
L 238.571283 -202.297928 
L 227.411283 -213.726472 
L 216.251283 -220.060209 
L 205.091283 -226.188261 
L 193.931283 -229.122252 
L 182.771283 -228.035587 
L 171.611283 -229.05165 
L 160.451283 -234.076268 
L 149.291283 -241.019472 
L 138.131283 -249.543792 
L 126.971283 -258.76191 
L 115.811283 -269.433868 
L 104.651283 -275.063047 
L 93.491283 -282.212284 
L 82.331283 -284.908688 
L 71.171283 -274.638737 
L 60.011283 -249.570071 
L 48.851283 -219.252543 
z
" style="stroke: #1f77b4; stroke-opacity: 0.2"/>
    </defs>
    <g clip-path="url(#pc9a1570344)">
     <use xlink:href="#m6a875ba5af" x="0" y="361.333136" style="fill: #1f77b4; fill-opacity: 0.2; stroke: #1f77b4; stroke-opacity: 0.2"/>
    </g>
   </g>
   <g id="PolyCollection_2">
    <defs>
     <path id="m1e6be2460d" d="M 48.851283 -225.468728 
L 48.851283 -182.199961 
L 60.011283 -210.628727 
L 71.171283 -235.624677 
L 82.331283 -253.758851 
L 93.491283 -254.057994 
L 104.651283 -239.897051 
L 115.811283 -221.29051 
L 126.971283 -207.577544 
L 138.131283 -208.263711 
L 149.291283 -214.008517 
L 160.451283 -217.380835 
L 171.611283 -211.192867 
L 182.771283 -201.555049 
L 193.931283 -195.015396 
L 205.091283 -191.211153 
L 216.251283 -183.813787 
L 227.411283 -181.238364 
L 238.571283 -173.004629 
L 249.731283 -155.878678 
L 260.891283 -140.789103 
L 272.051283 -139.067939 
L 283.211283 -147.620805 
L 294.371283 -148.948204 
L 305.531283 -144.318691 
L 316.691283 -138.068126 
L 327.851283 -135.208501 
L 339.011283 -128.2801 
L 350.171283 -118.246376 
L 361.331283 -111.154792 
L 372.491283 -118.054571 
L 383.651283 -127.429728 
L 394.811283 -128.575644 
L 405.971283 -135.12764 
L 405.971283 -168.558976 
L 405.971283 -168.558976 
L 394.811283 -159.979484 
L 383.651283 -155.055971 
L 372.491283 -142.519688 
L 361.331283 -135.07208 
L 350.171283 -142.966071 
L 339.011283 -153.629292 
L 327.851283 -162.343784 
L 316.691283 -167.909882 
L 305.531283 -178.221499 
L 294.371283 -187.05182 
L 283.211283 -185.117761 
L 272.051283 -171.869727 
L 260.891283 -176.006653 
L 249.731283 -197.44411 
L 238.571283 -215.138453 
L 227.411283 -220.717345 
L 216.251283 -224.87418 
L 205.091283 -236.691701 
L 193.931283 -242.338608 
L 182.771283 -248.57625 
L 171.611283 -259.850221 
L 160.451283 -270.538928 
L 149.291283 -270.01718 
L 138.131283 -267.646359 
L 126.971283 -269.619212 
L 115.811283 -288.859983 
L 104.651283 -313.762055 
L 93.491283 -329.973156 
L 82.331283 -328.489118 
L 71.171283 -303.468638 
L 60.011283 -265.806717 
L 48.851283 -225.468728 
z
" style="stroke: #ff7f0e; stroke-opacity: 0.2"/>
    </defs>
    <g clip-path="url(#pc9a1570344)">
     <use xlink:href="#m1e6be2460d" x="0" y="361.333136" style="fill: #ff7f0e; fill-opacity: 0.2; stroke: #ff7f0e; stroke-opacity: 0.2"/>
    </g>
   </g>
   <g id="matplotlib.axis_1">
    <g id="text_1">
     <text style="font: 10px 'Arial', sans-serif; text-anchor: middle" x="227.411283" y="296.533792" transform="rotate(-0 227.411283 296.533792)">Time</text>
    </g>
   </g>
   <g id="matplotlib.axis_2">
    <g id="ytick_1">
     <g id="line2d_1">
      <defs>
       <path id="mc4232c31eb" d="M 0 0 
L -3.5 0 
" style="stroke: #000000; stroke-width: 0.8"/>
      </defs>
      <g>
       <use xlink:href="#mc4232c31eb" x="48.851283" y="283.430112" style="stroke: #000000; stroke-width: 0.8"/>
      </g>
     </g>
     <g id="text_2">
      <text style="font: 10px 'Arial', sans-serif; text-anchor: end" x="41.851283" y="287.009018" transform="rotate(-0 41.851283 287.009018)">−0.4</text>
     </g>
    </g>
    <g id="ytick_2">
     <g id="line2d_2">
      <g>
       <use xlink:href="#mc4232c31eb" x="48.851283" y="236.125584" style="stroke: #000000; stroke-width: 0.8"/>
      </g>
     </g>
     <g id="text_3">
      <text style="font: 10px 'Arial', sans-serif; text-anchor: end" x="41.851283" y="239.70449" transform="rotate(-0 41.851283 239.70449)">−0.2</text>
     </g>
    </g>
    <g id="ytick_3">
     <g id="line2d_3">
      <g>
       <use xlink:href="#mc4232c31eb" x="48.851283" y="188.821056" style="stroke: #000000; stroke-width: 0.8"/>
      </g>
     </g>
     <g id="text_4">
      <text style="font: 10px 'Arial', sans-serif; text-anchor: end" x="41.851283" y="192.399962" transform="rotate(-0 41.851283 192.399962)">0.0</text>
     </g>
    </g>
    <g id="ytick_4">
     <g id="line2d_4">
      <g>
       <use xlink:href="#mc4232c31eb" x="48.851283" y="141.516528" style="stroke: #000000; stroke-width: 0.8"/>
      </g>
     </g>
     <g id="text_5">
      <text style="font: 10px 'Arial', sans-serif; text-anchor: end" x="41.851283" y="145.095434" transform="rotate(-0 41.851283 145.095434)">0.2</text>
     </g>
    </g>
    <g id="ytick_5">
     <g id="line2d_5">
      <g>
       <use xlink:href="#mc4232c31eb" x="48.851283" y="94.212" style="stroke: #000000; stroke-width: 0.8"/>
      </g>
     </g>
     <g id="text_6">
      <text style="font: 10px 'Arial', sans-serif; text-anchor: end" x="41.851283" y="97.790907" transform="rotate(-0 41.851283 97.790907)">0.4</text>
     </g>
    </g>
    <g id="ytick_6">
     <g id="line2d_6">
      <g>
       <use xlink:href="#mc4232c31eb" x="48.851283" y="46.907473" style="stroke: #000000; stroke-width: 0.8"/>
      </g>
     </g>
     <g id="text_7">
      <text style="font: 10px 'Arial', sans-serif; text-anchor: end" x="41.851283" y="50.486379" transform="rotate(-0 41.851283 50.486379)">0.6</text>
     </g>
    </g>
    <g id="text_8">
     <text style="font: 10px 'Arial', sans-serif; text-anchor: middle" x="16.005971" y="152.31998" transform="rotate(-90 16.005971 152.31998)">Activity</text>
    </g>
   </g>
   <g id="line2d_7">
    <path d="M 48.851283 162.980927 
L 60.011283 136.061143 
L 71.171283 113.003084 
L 82.331283 102.233202 
L 93.491283 103.776578 
L 104.651283 109.269664 
L 115.811283 113.52949 
L 126.971283 123.702808 
L 138.131283 131.801588 
L 149.291283 139.864387 
L 160.451283 146.010865 
L 171.611283 150.470596 
L 182.771283 152.314996 
L 193.931283 151.598311 
L 205.091283 154.246637 
L 216.251283 160.875285 
L 227.411283 166.139295 
L 238.571283 174.897157 
L 249.731283 179.934307 
L 260.891283 179.23078 
L 272.051283 179.674096 
L 283.211283 181.486488 
L 294.371283 187.254451 
L 305.531283 200.779708 
L 316.691283 225.374975 
L 327.851283 241.344484 
L 339.011283 248.813799 
L 350.171283 254.457069 
L 361.331283 256.648234 
L 372.491283 259.651999 
L 383.651283 263.121599 
L 394.811283 255.056051 
L 405.971283 244.695589 
" clip-path="url(#pc9a1570344)" style="fill: none; stroke: #1f77b4; stroke-width: 1.5; stroke-linecap: square"/>
   </g>
   <g id="line2d_8">
    <path d="M 48.851283 157.498792 
L 60.011283 123.115414 
L 71.171283 91.786478 
L 82.331283 70.209151 
L 93.491283 69.317561 
L 104.651283 84.503587 
L 115.811283 106.257891 
L 126.971283 122.734758 
L 138.131283 123.378099 
L 149.291283 119.320287 
L 160.451283 117.373255 
L 171.611283 125.811592 
L 182.771283 136.267486 
L 193.931283 142.656134 
L 205.091283 147.381708 
L 216.251283 156.989152 
L 227.411283 160.355281 
L 238.571283 167.261596 
L 249.731283 184.671742 
L 260.891283 202.935257 
L 272.051283 205.864302 
L 283.211283 194.963853 
L 294.371283 193.333124 
L 305.531283 200.063041 
L 316.691283 208.344131 
L 327.851283 212.556993 
L 339.011283 220.37844 
L 350.171283 230.726912 
L 361.331283 238.2197 
L 372.491283 231.046007 
L 383.651283 220.090287 
L 394.811283 217.055572 
L 405.971283 209.489828 
" clip-path="url(#pc9a1570344)" style="fill: none; stroke: #ff7f0e; stroke-width: 1.5; stroke-linecap: square"/>
   </g>
   <g id="line2d_9">
    <path d="M 82.331283 285.37598 
L 82.331283 19.26398 
" clip-path="url(#pc9a1570344)" style="fill: none; stroke-dasharray: 5.55,2.4; stroke-dashoffset: 0; stroke: #000000; stroke-opacity: 0.5; stroke-width: 1.5"/>
   </g>
   <g id="line2d_10">
    <path d="M 383.651283 285.37598 
L 383.651283 19.26398 
" clip-path="url(#pc9a1570344)" style="fill: none; stroke-dasharray: 5.55,2.4; stroke-dashoffset: 0; stroke: #000000; stroke-opacity: 0.5; stroke-width: 1.5"/>
   </g>
   <g id="patch_3">
    <path d="M 48.851283 285.37598 
L 405.971283 285.37598 
" style="fill: none; stroke: #000000; stroke-width: 0.8; stroke-linejoin: miter; stroke-linecap: square"/>
   </g>
   <g id="text_9">
    <text style="font: 6.94px 'Arial', sans-serif" transform="translate(10.097767 321.385533) rotate(-35)">-0.1s Sampling</text>
   </g>
   <g id="text_10">
    <text style="font: 6.94px 'Arial', sans-serif" transform="translate(57.794497 311.430872) rotate(-35)">Sampling</text>
   </g>
   <g id="text_11">
    <text style="font: 6.94px 'Arial', sans-serif" transform="translate(319.037191 339.456682) rotate(-35)">Movement to Lateral Port</text>
   </g>
   <g id="text_12">
    <text style="font: 8.33px 'Arial', sans-serif; text-anchor: middle" x="227.411283" y="13.26398" transform="rotate(-0 227.411283 13.26398)">GP4_23_s3_L50_D250_M2 - Trace:254_GP4_23_s3_L50_D250_M2 (when: correct)</text>
   </g>
   <g id="legend_1">
    <g id="patch_4">
     <path d="M 131.766697 354.133136 
L 323.055869 354.133136 
Q 324.443869 354.133136 324.443869 352.745136 
L 324.443869 343.45638 
Q 324.443869 342.06838 323.055869 342.06838 
L 131.766697 342.06838 
Q 130.378697 342.06838 130.378697 343.45638 
L 130.378697 352.745136 
Q 130.378697 354.133136 131.766697 354.133136 
z
" style="fill: #ffffff; opacity: 0.8; stroke: #cccccc; stroke-linejoin: miter"/>
    </g>
    <g id="line2d_11">
     <path d="M 133.154697 347.467483 
L 140.094697 347.467483 
L 147.034697 347.467483 
" style="fill: none; stroke: #1f77b4; stroke-width: 1.5; stroke-linecap: square"/>
    </g>
    <g id="text_13">
     <text style="font: 6.94px 'Arial', sans-serif; text-anchor: start" x="152.586697" y="349.896483" transform="rotate(-0 152.586697 349.896483)">DecisionRight (102 pts)</text>
    </g>
    <g id="line2d_12">
     <path d="M 238.5939 347.467483 
L 245.5339 347.467483 
L 252.4739 347.467483 
" style="fill: none; stroke: #ff7f0e; stroke-width: 1.5; stroke-linecap: square"/>
    </g>
    <g id="text_14">
     <text style="font: 6.94px 'Arial', sans-serif; text-anchor: start" x="258.0259" y="349.896483" transform="rotate(-0 258.0259 349.896483)">DecisionLeft (90 pts)</text>
    </g>
   </g>
  </g>
 </g>
 <defs>
  <clipPath id="pc9a1570344">
   <rect x="48.851283" y="19.26398" width="357.12" height="266.112"/>
  </clipPath>
 </defs>
</svg>
