<?xml version="1.0" encoding="utf-8" standalone="no"?>
<!DOCTYPE svg PUBLIC "-//W3C//DTD SVG 1.1//EN"
  "http://www.w3.org/Graphics/SVG/1.1/DTD/svg11.dtd">
<svg xmlns:xlink="http://www.w3.org/1999/xlink" width="413.171283pt" height="361.333136pt" viewBox="0 0 413.171283 361.333136" xmlns="http://www.w3.org/2000/svg" version="1.1">
 <metadata>
  <rdf:RDF xmlns:dc="http://purl.org/dc/elements/1.1/" xmlns:cc="http://creativecommons.org/ns#" xmlns:rdf="http://www.w3.org/1999/02/22-rdf-syntax-ns#">
   <cc:Work>
    <dc:type rdf:resource="http://purl.org/dc/dcmitype/StillImage"/>
    <dc:date>2025-12-29T04:06:59.570089</dc:date>
    <dc:format>image/svg+xml</dc:format>
    <dc:creator>
     <cc:Agent>
      <dc:title>Matplotlib v3.8.0, https://matplotlib.org/</dc:title>
     </cc:Agent>
    </dc:creator>
   </cc:Work>
  </rdf:RDF>
 </metadata>
 <defs>
  <style type="text/css">*{stroke-linejoin: round; stroke-linecap: butt}</style>
 </defs>
 <g id="figure_1">
  <g id="patch_1">
   <path d="M 0 361.333136 
L 413.171283 361.333136 
L 413.171283 -0 
L 0 -0 
z
" style="fill: #ffffff"/>
  </g>
  <g id="axes_1">
   <g id="patch_2">
    <path d="M 48.851283 285.37598 
L 405.971283 285.37598 
L 405.971283 19.26398 
L 48.851283 19.26398 
z
" style="fill: #ffffff"/>
   </g>
   <g id="PolyCollection_1">
    <defs>
     <path id="m0cf8e78100" d="M 48.851283 -176.848686 
L 48.851283 -99.308846 
L 60.011283 -117.238389 
L 71.171283 -131.580499 
L 82.331283 -132.645065 
L 93.491283 -131.179482 
L 104.651283 -129.597403 
L 115.811283 -123.755816 
L 126.971283 -121.282744 
L 138.131283 -132.557458 
L 149.291283 -145.1006 
L 160.451283 -148.798813 
L 171.611283 -143.64694 
L 182.771283 -143.196065 
L 193.931283 -146.704701 
L 205.091283 -158.683538 
L 216.251283 -166.938666 
L 227.411283 -181.310744 
L 238.571283 -202.79357 
L 249.731283 -211.695409 
L 260.891283 -209.915975 
L 272.051283 -215.752614 
L 283.211283 -229.300236 
L 294.371283 -243.238061 
L 305.531283 -237.519569 
L 316.691283 -228.295112 
L 327.851283 -215.64267 
L 339.011283 -190.353043 
L 350.171283 -167.275701 
L 361.331283 -156.248669 
L 372.491283 -163.050593 
L 383.651283 -175.857953 
L 394.811283 -176.925777 
L 405.971283 -189.047635 
L 405.971283 -279.966345 
L 405.971283 -279.966345 
L 394.811283 -265.771165 
L 383.651283 -260.281638 
L 372.491283 -236.237537 
L 361.331283 -226.109273 
L 350.171283 -237.071454 
L 339.011283 -262.596496 
L 327.851283 -292.396149 
L 316.691283 -308.918219 
L 305.531283 -322.824485 
L 294.371283 -329.973156 
L 283.211283 -315.185819 
L 272.051283 -301.298216 
L 260.891283 -297.696476 
L 249.731283 -297.692964 
L 238.571283 -283.931822 
L 227.411283 -259.614812 
L 216.251283 -247.118922 
L 205.091283 -237.848931 
L 193.931283 -218.495963 
L 182.771283 -209.685765 
L 171.611283 -212.303466 
L 160.451283 -218.799969 
L 149.291283 -213.540596 
L 138.131283 -198.49585 
L 126.971283 -189.635802 
L 115.811283 -199.563719 
L 104.651283 -212.261239 
L 93.491283 -218.822632 
L 82.331283 -222.048961 
L 71.171283 -219.730414 
L 60.011283 -201.643377 
L 48.851283 -176.848686 
z
" style="stroke: #1f77b4; stroke-opacity: 0.2"/>
    </defs>
    <g clip-path="url(#p54bf7fcd3b)">
     <use xlink:href="#m0cf8e78100" x="0" y="361.333136" style="fill: #1f77b4; fill-opacity: 0.2; stroke: #1f77b4; stroke-opacity: 0.2"/>
    </g>
   </g>
   <g id="PolyCollection_2">
    <defs>
     <path id="mc402d3f04d" d="M 48.851283 -256.63546 
L 48.851283 -146.535014 
L 60.011283 -150.118922 
L 71.171283 -141.634563 
L 82.331283 -133.056168 
L 93.491283 -126.929496 
L 104.651283 -113.926661 
L 115.811283 -101.555197 
L 126.971283 -96.169278 
L 138.131283 -96.929803 
L 149.291283 -101.395791 
L 160.451283 -107.334843 
L 171.611283 -120.91734 
L 182.771283 -131.207729 
L 193.931283 -137.078907 
L 205.091283 -142.30492 
L 216.251283 -142.631886 
L 227.411283 -148.358632 
L 238.571283 -156.523619 
L 249.731283 -157.109148 
L 260.891283 -145.169532 
L 272.051283 -127.028647 
L 283.211283 -124.70511 
L 294.371283 -124.992878 
L 305.531283 -118.35486 
L 316.691283 -98.449739 
L 327.851283 -88.854881 
L 339.011283 -92.697516 
L 350.171283 -89.029158 
L 361.331283 -88.053156 
L 372.491283 -93.669429 
L 383.651283 -107.649204 
L 394.811283 -126.648555 
L 405.971283 -131.541919 
L 405.971283 -198.772833 
L 405.971283 -198.772833 
L 394.811283 -193.46465 
L 383.651283 -171.5302 
L 372.491283 -154.47605 
L 361.331283 -146.376382 
L 350.171283 -144.758207 
L 339.011283 -150.396493 
L 327.851283 -146.986269 
L 316.691283 -157.763122 
L 305.531283 -186.689617 
L 294.371283 -197.124859 
L 283.211283 -194.54797 
L 272.051283 -199.721362 
L 260.891283 -225.779514 
L 249.731283 -240.278662 
L 238.571283 -241.400468 
L 227.411283 -230.619137 
L 216.251283 -222.549647 
L 205.091283 -220.642015 
L 193.931283 -214.758069 
L 182.771283 -206.474729 
L 171.611283 -193.722078 
L 160.451283 -177.206372 
L 149.291283 -168.711985 
L 138.131283 -159.634683 
L 126.971283 -157.378596 
L 115.811283 -166.020087 
L 104.651283 -181.572774 
L 93.491283 -209.947642 
L 82.331283 -228.57695 
L 71.171283 -246.90216 
L 60.011283 -261.382712 
L 48.851283 -256.63546 
z
" style="stroke: #ff7f0e; stroke-opacity: 0.2"/>
    </defs>
    <g clip-path="url(#p54bf7fcd3b)">
     <use xlink:href="#mc402d3f04d" x="0" y="361.333136" style="fill: #ff7f0e; fill-opacity: 0.2; stroke: #ff7f0e; stroke-opacity: 0.2"/>
    </g>
   </g>
   <g id="matplotlib.axis_1">
    <g id="text_1">
     <text style="font: 10px 'Arial', sans-serif; text-anchor: middle" x="227.411283" y="296.533792" transform="rotate(-0 227.411283 296.533792)">Time</text>
    </g>
   </g>
   <g id="matplotlib.axis_2">
    <g id="ytick_1">
     <g id="line2d_1">
      <defs>
       <path id="mcc029e597c" d="M 0 0 
L -3.5 0 
" style="stroke: #000000; stroke-width: 0.8"/>
      </defs>
      <g>
       <use xlink:href="#mcc029e597c" x="48.851283" y="255.572498" style="stroke: #000000; stroke-width: 0.8"/>
      </g>
     </g>
     <g id="text_2">
      <text style="font: 10px 'Arial', sans-serif; text-anchor: end" x="41.851283" y="259.151404" transform="rotate(-0 41.851283 259.151404)">−0.2</text>
     </g>
    </g>
    <g id="ytick_2">
     <g id="line2d_2">
      <g>
       <use xlink:href="#mcc029e597c" x="48.851283" y="213.030884" style="stroke: #000000; stroke-width: 0.8"/>
      </g>
     </g>
     <g id="text_3">
      <text style="font: 10px 'Arial', sans-serif; text-anchor: end" x="41.851283" y="216.60979" transform="rotate(-0 41.851283 216.60979)">−0.1</text>
     </g>
    </g>
    <g id="ytick_3">
     <g id="line2d_3">
      <g>
       <use xlink:href="#mcc029e597c" x="48.851283" y="170.489271" style="stroke: #000000; stroke-width: 0.8"/>
      </g>
     </g>
     <g id="text_4">
      <text style="font: 10px 'Arial', sans-serif; text-anchor: end" x="41.851283" y="174.068177" transform="rotate(-0 41.851283 174.068177)">0.0</text>
     </g>
    </g>
    <g id="ytick_4">
     <g id="line2d_4">
      <g>
       <use xlink:href="#mcc029e597c" x="48.851283" y="127.947657" style="stroke: #000000; stroke-width: 0.8"/>
      </g>
     </g>
     <g id="text_5">
      <text style="font: 10px 'Arial', sans-serif; text-anchor: end" x="41.851283" y="131.526564" transform="rotate(-0 41.851283 131.526564)">0.1</text>
     </g>
    </g>
    <g id="ytick_5">
     <g id="line2d_5">
      <g>
       <use xlink:href="#mcc029e597c" x="48.851283" y="85.406044" style="stroke: #000000; stroke-width: 0.8"/>
      </g>
     </g>
     <g id="text_6">
      <text style="font: 10px 'Arial', sans-serif; text-anchor: end" x="41.851283" y="88.98495" transform="rotate(-0 41.851283 88.98495)">0.2</text>
     </g>
    </g>
    <g id="ytick_6">
     <g id="line2d_6">
      <g>
       <use xlink:href="#mcc029e597c" x="48.851283" y="42.864431" style="stroke: #000000; stroke-width: 0.8"/>
      </g>
     </g>
     <g id="text_7">
      <text style="font: 10px 'Arial', sans-serif; text-anchor: end" x="41.851283" y="46.443337" transform="rotate(-0 41.851283 46.443337)">0.3</text>
     </g>
    </g>
    <g id="text_8">
     <text style="font: 10px 'Arial', sans-serif; text-anchor: middle" x="16.005971" y="152.31998" transform="rotate(-90 16.005971 152.31998)">Activity</text>
    </g>
   </g>
   <g id="line2d_7">
    <path d="M 48.851283 223.25437 
L 60.011283 201.892252 
L 71.171283 185.677678 
L 82.331283 183.986121 
L 93.491283 186.332078 
L 104.651283 190.403815 
L 115.811283 199.673369 
L 126.971283 205.873861 
L 138.131283 195.806482 
L 149.291283 182.012539 
L 160.451283 177.533745 
L 171.611283 183.357932 
L 182.771283 184.89222 
L 193.931283 178.732804 
L 205.091283 163.066901 
L 216.251283 154.304342 
L 227.411283 140.870358 
L 238.571283 117.97044 
L 249.731283 106.638953 
L 260.891283 107.526909 
L 272.051283 102.807721 
L 283.211283 89.09011 
L 294.371283 74.72753 
L 305.531283 81.161109 
L 316.691283 92.726468 
L 327.851283 107.313728 
L 339.011283 134.858368 
L 350.171283 159.159558 
L 361.331283 170.154164 
L 372.491283 161.689072 
L 383.651283 143.263341 
L 394.811283 139.984665 
L 405.971283 126.826146 
" clip-path="url(#p54bf7fcd3b)" style="fill: none; stroke: #1f77b4; stroke-width: 1.5; stroke-linecap: square"/>
   </g>
   <g id="line2d_8">
    <path d="M 48.851283 159.747899 
L 60.011283 155.582318 
L 71.171283 167.064776 
L 82.331283 180.516578 
L 93.491283 192.894567 
L 104.651283 213.583419 
L 115.811283 227.545494 
L 126.971283 234.559198 
L 138.131283 233.050894 
L 149.291283 226.279246 
L 160.451283 219.06253 
L 171.611283 204.013428 
L 182.771283 192.491906 
L 193.931283 185.414649 
L 205.091283 179.85967 
L 216.251283 178.74237 
L 227.411283 171.844251 
L 238.571283 162.371094 
L 249.731283 162.639232 
L 260.891283 175.858614 
L 272.051283 197.958132 
L 283.211283 201.706596 
L 294.371283 200.274267 
L 305.531283 208.810899 
L 316.691283 233.226706 
L 327.851283 243.412561 
L 339.011283 239.78613 
L 350.171283 244.439454 
L 361.331283 244.118367 
L 372.491283 237.260398 
L 383.651283 221.743432 
L 394.811283 201.276532 
L 405.971283 196.175761 
" clip-path="url(#p54bf7fcd3b)" style="fill: none; stroke: #ff7f0e; stroke-width: 1.5; stroke-linecap: square"/>
   </g>
   <g id="line2d_9">
    <path d="M 82.331283 285.37598 
L 82.331283 19.26398 
" clip-path="url(#p54bf7fcd3b)" style="fill: none; stroke-dasharray: 5.55,2.4; stroke-dashoffset: 0; stroke: #000000; stroke-opacity: 0.5; stroke-width: 1.5"/>
   </g>
   <g id="line2d_10">
    <path d="M 383.651283 285.37598 
L 383.651283 19.26398 
" clip-path="url(#p54bf7fcd3b)" style="fill: none; stroke-dasharray: 5.55,2.4; stroke-dashoffset: 0; stroke: #000000; stroke-opacity: 0.5; stroke-width: 1.5"/>
   </g>
   <g id="patch_3">
    <path d="M 48.851283 285.37598 
L 405.971283 285.37598 
" style="fill: none; stroke: #000000; stroke-width: 0.8; stroke-linejoin: miter; stroke-linecap: square"/>
   </g>
   <g id="text_9">
    <text style="font: 6.94px 'Arial', sans-serif" transform="translate(10.097767 321.385533) rotate(-35)">-0.1s Sampling</text>
   </g>
   <g id="text_10">
    <text style="font: 6.94px 'Arial', sans-serif" transform="translate(57.794497 311.430872) rotate(-35)">Sampling</text>
   </g>
   <g id="text_11">
    <text style="font: 6.94px 'Arial', sans-serif" transform="translate(319.037191 339.456682) rotate(-35)">Movement to Lateral Port</text>
   </g>
   <g id="text_12">
    <text style="font: 8.33px 'Arial', sans-serif; text-anchor: middle" x="227.411283" y="13.26398" transform="rotate(-0 227.411283 13.26398)">GP4_23_s3_L50_D250_M2 - Trace:26_GP4_23_s3_L50_D250_M2 (when: correct)</text>
   </g>
   <g id="legend_1">
    <g id="patch_4">
     <path d="M 131.766697 354.133136 
L 323.055869 354.133136 
Q 324.443869 354.133136 324.443869 352.745136 
L 324.443869 343.45638 
Q 324.443869 342.06838 323.055869 342.06838 
L 131.766697 342.06838 
Q 130.378697 342.06838 130.378697 343.45638 
L 130.378697 352.745136 
Q 130.378697 354.133136 131.766697 354.133136 
z
" style="fill: #ffffff; opacity: 0.8; stroke: #cccccc; stroke-linejoin: miter"/>
    </g>
    <g id="line2d_11">
     <path d="M 133.154697 347.467483 
L 140.094697 347.467483 
L 147.034697 347.467483 
" style="fill: none; stroke: #1f77b4; stroke-width: 1.5; stroke-linecap: square"/>
    </g>
    <g id="text_13">
     <text style="font: 6.94px 'Arial', sans-serif; text-anchor: start" x="152.586697" y="349.896483" transform="rotate(-0 152.586697 349.896483)">DecisionRight (102 pts)</text>
    </g>
    <g id="line2d_12">
     <path d="M 238.5939 347.467483 
L 245.5339 347.467483 
L 252.4739 347.467483 
" style="fill: none; stroke: #ff7f0e; stroke-width: 1.5; stroke-linecap: square"/>
    </g>
    <g id="text_14">
     <text style="font: 6.94px 'Arial', sans-serif; text-anchor: start" x="258.0259" y="349.896483" transform="rotate(-0 258.0259 349.896483)">DecisionLeft (90 pts)</text>
    </g>
   </g>
  </g>
 </g>
 <defs>
  <clipPath id="p54bf7fcd3b">
   <rect x="48.851283" y="19.26398" width="357.12" height="266.112"/>
  </clipPath>
 </defs>
</svg>
