<?xml version="1.0" encoding="utf-8" standalone="no"?>
<!DOCTYPE svg PUBLIC "-//W3C//DTD SVG 1.1//EN"
  "http://www.w3.org/Graphics/SVG/1.1/DTD/svg11.dtd">
<svg xmlns:xlink="http://www.w3.org/1999/xlink" width="413.171283pt" height="361.333136pt" viewBox="0 0 413.171283 361.333136" xmlns="http://www.w3.org/2000/svg" version="1.1">
 <metadata>
  <rdf:RDF xmlns:dc="http://purl.org/dc/elements/1.1/" xmlns:cc="http://creativecommons.org/ns#" xmlns:rdf="http://www.w3.org/1999/02/22-rdf-syntax-ns#">
   <cc:Work>
    <dc:type rdf:resource="http://purl.org/dc/dcmitype/StillImage"/>
    <dc:date>2025-12-30T01:47:36.812503</dc:date>
    <dc:format>image/svg+xml</dc:format>
    <dc:creator>
     <cc:Agent>
      <dc:title>Matplotlib v3.8.0, https://matplotlib.org/</dc:title>
     </cc:Agent>
    </dc:creator>
   </cc:Work>
  </rdf:RDF>
 </metadata>
 <defs>
  <style type="text/css">*{stroke-linejoin: round; stroke-linecap: butt}</style>
 </defs>
 <g id="figure_1">
  <g id="patch_1">
   <path d="M 0 361.333136 
L 413.171283 361.333136 
L 413.171283 -0 
L 0 -0 
z
" style="fill: #ffffff"/>
  </g>
  <g id="axes_1">
   <g id="patch_2">
    <path d="M 48.851283 285.37598 
L 405.971283 285.37598 
L 405.971283 19.26398 
L 48.851283 19.26398 
z
" style="fill: #ffffff"/>
   </g>
   <g id="PolyCollection_1">
    <defs>
     <path id="m17e0a62cbf" d="M 48.851283 -180.231565 
L 48.851283 -137.575382 
L 60.011283 -156.447554 
L 71.171283 -174.240675 
L 82.331283 -183.854093 
L 93.491283 -187.576996 
L 104.651283 -187.302302 
L 115.811283 -185.799034 
L 126.971283 -184.149387 
L 138.131283 -179.748369 
L 149.291283 -172.112585 
L 160.451283 -166.421145 
L 171.611283 -163.721256 
L 182.771283 -156.810039 
L 193.931283 -146.624114 
L 205.091283 -138.218782 
L 216.251283 -134.010367 
L 227.411283 -131.976188 
L 238.571283 -128.766214 
L 249.731283 -126.392564 
L 260.891283 -123.847428 
L 272.051283 -120.947634 
L 283.211283 -118.836294 
L 294.371283 -115.498974 
L 305.531283 -111.93276 
L 316.691283 -107.847554 
L 327.851283 -104.225249 
L 339.011283 -101.387607 
L 350.171283 -98.682484 
L 361.331283 -94.881804 
L 372.491283 -90.661534 
L 383.651283 -88.133047 
L 394.811283 -88.053156 
L 405.971283 -90.415006 
L 405.971283 -126.478237 
L 405.971283 -126.478237 
L 394.811283 -125.267136 
L 383.651283 -126.230076 
L 372.491283 -129.590926 
L 361.331283 -135.130078 
L 350.171283 -141.228156 
L 339.011283 -145.868805 
L 327.851283 -150.049968 
L 316.691283 -155.187269 
L 305.531283 -159.488785 
L 294.371283 -162.232909 
L 283.211283 -166.358588 
L 272.051283 -170.824295 
L 260.891283 -174.310062 
L 249.731283 -174.643087 
L 238.571283 -174.417299 
L 227.411283 -176.51338 
L 216.251283 -180.009443 
L 205.091283 -187.202535 
L 193.931283 -200.337259 
L 182.771283 -216.307456 
L 171.611283 -227.303958 
L 160.451283 -233.654375 
L 149.291283 -243.096175 
L 138.131283 -252.959991 
L 126.971283 -258.223633 
L 115.811283 -259.720295 
L 104.651283 -259.619144 
L 93.491283 -256.861633 
L 82.331283 -249.251495 
L 71.171283 -234.088899 
L 60.011283 -209.003395 
L 48.851283 -180.231565 
z
" style="stroke: #1f77b4; stroke-opacity: 0.2"/>
    </defs>
    <g clip-path="url(#p931742ad06)">
     <use xlink:href="#m17e0a62cbf" x="0" y="361.333136" style="fill: #1f77b4; fill-opacity: 0.2; stroke: #1f77b4; stroke-opacity: 0.2"/>
    </g>
   </g>
   <g id="PolyCollection_2">
    <defs>
     <path id="mb859267277" d="M 48.851283 -248.49487 
L 48.851283 -188.990559 
L 60.011283 -216.736729 
L 71.171283 -235.222799 
L 82.331283 -245.605301 
L 93.491283 -247.719488 
L 104.651283 -243.979315 
L 115.811283 -234.162928 
L 126.971283 -218.381418 
L 138.131283 -207.51372 
L 149.291283 -202.91321 
L 160.451283 -202.489004 
L 171.611283 -199.680071 
L 182.771283 -191.018008 
L 193.931283 -181.62119 
L 205.091283 -173.561471 
L 216.251283 -170.538075 
L 227.411283 -168.825117 
L 238.571283 -162.200613 
L 249.731283 -157.729379 
L 260.891283 -156.512987 
L 272.051283 -152.762656 
L 283.211283 -147.837675 
L 294.371283 -143.864428 
L 305.531283 -140.863114 
L 316.691283 -139.692244 
L 327.851283 -135.681451 
L 339.011283 -129.980598 
L 350.171283 -126.048699 
L 361.331283 -120.853793 
L 372.491283 -116.667283 
L 383.651283 -115.964977 
L 394.811283 -118.578235 
L 405.971283 -114.021081 
L 405.971283 -146.857429 
L 405.971283 -146.857429 
L 394.811283 -153.715803 
L 383.651283 -153.145055 
L 372.491283 -156.014544 
L 361.331283 -160.953173 
L 350.171283 -167.791466 
L 339.011283 -173.628422 
L 327.851283 -180.821557 
L 316.691283 -185.914157 
L 305.531283 -188.098958 
L 294.371283 -192.059095 
L 283.211283 -196.671049 
L 272.051283 -201.607568 
L 260.891283 -205.39503 
L 249.731283 -207.074065 
L 238.571283 -212.088052 
L 227.411283 -219.573434 
L 216.251283 -222.544236 
L 205.091283 -226.211812 
L 193.931283 -236.733119 
L 182.771283 -250.240493 
L 171.611283 -264.272887 
L 160.451283 -270.903531 
L 149.291283 -272.717032 
L 138.131283 -279.08983 
L 126.971283 -293.795924 
L 115.811283 -313.869946 
L 104.651283 -326.130877 
L 93.491283 -329.973156 
L 82.331283 -326.905889 
L 71.171283 -311.465758 
L 60.011283 -285.490682 
L 48.851283 -248.49487 
z
" style="stroke: #ff7f0e; stroke-opacity: 0.2"/>
    </defs>
    <g clip-path="url(#p931742ad06)">
     <use xlink:href="#mb859267277" x="0" y="361.333136" style="fill: #ff7f0e; fill-opacity: 0.2; stroke: #ff7f0e; stroke-opacity: 0.2"/>
    </g>
   </g>
   <g id="matplotlib.axis_1">
    <g id="text_1">
     <text style="font: 10px 'Arial', sans-serif; text-anchor: middle" x="227.411283" y="296.533792" transform="rotate(-0 227.411283 296.533792)">Time</text>
    </g>
   </g>
   <g id="matplotlib.axis_2">
    <g id="ytick_1">
     <g id="line2d_1">
      <defs>
       <path id="mf524d1b09b" d="M 0 0 
L -3.5 0 
" style="stroke: #000000; stroke-width: 0.8"/>
      </defs>
      <g>
       <use xlink:href="#mf524d1b09b" x="48.851283" y="250.988921" style="stroke: #000000; stroke-width: 0.8"/>
      </g>
     </g>
     <g id="text_2">
      <text style="font: 10px 'Arial', sans-serif; text-anchor: end" x="41.851283" y="254.567827" transform="rotate(-0 41.851283 254.567827)">0.0</text>
     </g>
    </g>
    <g id="ytick_2">
     <g id="line2d_2">
      <g>
       <use xlink:href="#mf524d1b09b" x="48.851283" y="214.587591" style="stroke: #000000; stroke-width: 0.8"/>
      </g>
     </g>
     <g id="text_3">
      <text style="font: 10px 'Arial', sans-serif; text-anchor: end" x="41.851283" y="218.166497" transform="rotate(-0 41.851283 218.166497)">0.2</text>
     </g>
    </g>
    <g id="ytick_3">
     <g id="line2d_3">
      <g>
       <use xlink:href="#mf524d1b09b" x="48.851283" y="178.18626" style="stroke: #000000; stroke-width: 0.8"/>
      </g>
     </g>
     <g id="text_4">
      <text style="font: 10px 'Arial', sans-serif; text-anchor: end" x="41.851283" y="181.765166" transform="rotate(-0 41.851283 181.765166)">0.4</text>
     </g>
    </g>
    <g id="ytick_4">
     <g id="line2d_4">
      <g>
       <use xlink:href="#mf524d1b09b" x="48.851283" y="141.784929" style="stroke: #000000; stroke-width: 0.8"/>
      </g>
     </g>
     <g id="text_5">
      <text style="font: 10px 'Arial', sans-serif; text-anchor: end" x="41.851283" y="145.363835" transform="rotate(-0 41.851283 145.363835)">0.6</text>
     </g>
    </g>
    <g id="ytick_5">
     <g id="line2d_5">
      <g>
       <use xlink:href="#mf524d1b09b" x="48.851283" y="105.383598" style="stroke: #000000; stroke-width: 0.8"/>
      </g>
     </g>
     <g id="text_6">
      <text style="font: 10px 'Arial', sans-serif; text-anchor: end" x="41.851283" y="108.962505" transform="rotate(-0 41.851283 108.962505)">0.8</text>
     </g>
    </g>
    <g id="ytick_6">
     <g id="line2d_6">
      <g>
       <use xlink:href="#mf524d1b09b" x="48.851283" y="68.982268" style="stroke: #000000; stroke-width: 0.8"/>
      </g>
     </g>
     <g id="text_7">
      <text style="font: 10px 'Arial', sans-serif; text-anchor: end" x="41.851283" y="72.561174" transform="rotate(-0 41.851283 72.561174)">1.0</text>
     </g>
    </g>
    <g id="ytick_7">
     <g id="line2d_7">
      <g>
       <use xlink:href="#mf524d1b09b" x="48.851283" y="32.580937" style="stroke: #000000; stroke-width: 0.8"/>
      </g>
     </g>
     <g id="text_8">
      <text style="font: 10px 'Arial', sans-serif; text-anchor: end" x="41.851283" y="36.159843" transform="rotate(-0 41.851283 36.159843)">1.2</text>
     </g>
    </g>
    <g id="text_9">
     <text style="font: 10px 'Arial', sans-serif; text-anchor: middle" x="21.846596" y="152.31998" transform="rotate(-90 21.846596 152.31998)">Activity</text>
    </g>
   </g>
   <g id="line2d_8">
    <path d="M 48.851283 202.429662 
L 60.011283 178.607661 
L 71.171283 157.168352 
L 82.331283 144.780342 
L 93.491283 139.113821 
L 104.651283 137.872413 
L 115.811283 138.573471 
L 126.971283 140.146626 
L 138.131283 144.978956 
L 149.291283 153.728756 
L 160.451283 161.295376 
L 171.611283 165.820527 
L 182.771283 174.774386 
L 193.931283 187.852448 
L 205.091283 198.622478 
L 216.251283 204.323231 
L 227.411283 207.088352 
L 238.571283 209.741379 
L 249.731283 210.81531 
L 260.891283 212.254391 
L 272.051283 215.447172 
L 283.211283 218.735695 
L 294.371283 222.467193 
L 305.531283 225.622362 
L 316.691283 229.815724 
L 327.851283 234.195528 
L 339.011283 237.70493 
L 350.171283 241.377817 
L 361.331283 246.327194 
L 372.491283 251.206905 
L 383.651283 254.151575 
L 394.811283 254.67299 
L 405.971283 252.886514 
" clip-path="url(#p931742ad06)" style="fill: none; stroke: #1f77b4; stroke-width: 1.5; stroke-linecap: square"/>
   </g>
   <g id="line2d_9">
    <path d="M 48.851283 142.590422 
L 60.011283 110.21943 
L 71.171283 87.988857 
L 82.331283 75.077541 
L 93.491283 72.486814 
L 104.651283 76.27804 
L 115.811283 87.316699 
L 126.971283 105.244465 
L 138.131283 118.031361 
L 149.291283 123.518015 
L 160.451283 124.636869 
L 171.611283 129.356657 
L 182.771283 140.703888 
L 193.931283 152.155981 
L 205.091283 161.446495 
L 216.251283 164.79198 
L 227.411283 167.133861 
L 238.571283 174.188803 
L 249.731283 178.931411 
L 260.891283 180.37913 
L 272.051283 184.148025 
L 283.211283 189.078773 
L 294.371283 193.371376 
L 305.531283 196.852099 
L 316.691283 198.529935 
L 327.851283 203.081632 
L 339.011283 209.528625 
L 350.171283 214.413055 
L 361.331283 220.429652 
L 372.491283 224.992222 
L 383.651283 226.77812 
L 394.811283 225.186116 
L 405.971283 230.89388 
" clip-path="url(#p931742ad06)" style="fill: none; stroke: #ff7f0e; stroke-width: 1.5; stroke-linecap: square"/>
   </g>
   <g id="line2d_10">
    <path d="M 82.331283 285.37598 
L 82.331283 19.26398 
" clip-path="url(#p931742ad06)" style="fill: none; stroke-dasharray: 5.55,2.4; stroke-dashoffset: 0; stroke: #000000; stroke-opacity: 0.5; stroke-width: 1.5"/>
   </g>
   <g id="line2d_11">
    <path d="M 383.651283 285.37598 
L 383.651283 19.26398 
" clip-path="url(#p931742ad06)" style="fill: none; stroke-dasharray: 5.55,2.4; stroke-dashoffset: 0; stroke: #000000; stroke-opacity: 0.5; stroke-width: 1.5"/>
   </g>
   <g id="patch_3">
    <path d="M 48.851283 285.37598 
L 405.971283 285.37598 
" style="fill: none; stroke: #000000; stroke-width: 0.8; stroke-linejoin: miter; stroke-linecap: square"/>
   </g>
   <g id="text_10">
    <text style="font: 6.94px 'Arial', sans-serif" transform="translate(10.097767 321.385533) rotate(-35)">-0.1s Sampling</text>
   </g>
   <g id="text_11">
    <text style="font: 6.94px 'Arial', sans-serif" transform="translate(57.794497 311.430872) rotate(-35)">Sampling</text>
   </g>
   <g id="text_12">
    <text style="font: 6.94px 'Arial', sans-serif" transform="translate(319.037191 339.456682) rotate(-35)">Movement to Lateral Port</text>
   </g>
   <g id="text_13">
    <text style="font: 8.33px 'Arial', sans-serif; text-anchor: middle" x="227.411283" y="13.26398" transform="rotate(-0 227.411283 13.26398)">GP4_23_s3_L50_D250_M2 - Trace:33_GP4_23_s3_L50_D250_M2 (when: correct)</text>
   </g>
   <g id="legend_1">
    <g id="patch_4">
     <path d="M 131.766697 354.133136 
L 323.055869 354.133136 
Q 324.443869 354.133136 324.443869 352.745136 
L 324.443869 343.45638 
Q 324.443869 342.06838 323.055869 342.06838 
L 131.766697 342.06838 
Q 130.378697 342.06838 130.378697 343.45638 
L 130.378697 352.745136 
Q 130.378697 354.133136 131.766697 354.133136 
z
" style="fill: #ffffff; opacity: 0.8; stroke: #cccccc; stroke-linejoin: miter"/>
    </g>
    <g id="line2d_12">
     <path d="M 133.154697 347.467483 
L 140.094697 347.467483 
L 147.034697 347.467483 
" style="fill: none; stroke: #1f77b4; stroke-width: 1.5; stroke-linecap: square"/>
    </g>
    <g id="text_14">
     <text style="font: 6.94px 'Arial', sans-serif; text-anchor: start" x="152.586697" y="349.896483" transform="rotate(-0 152.586697 349.896483)">DecisionRight (102 pts)</text>
    </g>
    <g id="line2d_13">
     <path d="M 238.5939 347.467483 
L 245.5339 347.467483 
L 252.4739 347.467483 
" style="fill: none; stroke: #ff7f0e; stroke-width: 1.5; stroke-linecap: square"/>
    </g>
    <g id="text_15">
     <text style="font: 6.94px 'Arial', sans-serif; text-anchor: start" x="258.0259" y="349.896483" transform="rotate(-0 258.0259 349.896483)">DecisionLeft (90 pts)</text>
    </g>
   </g>
  </g>
 </g>
 <defs>
  <clipPath id="p931742ad06">
   <rect x="48.851283" y="19.26398" width="357.12" height="266.112"/>
  </clipPath>
 </defs>
</svg>
