<?xml version="1.0" encoding="utf-8" standalone="no"?>
<!DOCTYPE svg PUBLIC "-//W3C//DTD SVG 1.1//EN"
  "http://www.w3.org/Graphics/SVG/1.1/DTD/svg11.dtd">
<svg xmlns:xlink="http://www.w3.org/1999/xlink" width="413.171283pt" height="361.333136pt" viewBox="0 0 413.171283 361.333136" xmlns="http://www.w3.org/2000/svg" version="1.1">
 <metadata>
  <rdf:RDF xmlns:dc="http://purl.org/dc/elements/1.1/" xmlns:cc="http://creativecommons.org/ns#" xmlns:rdf="http://www.w3.org/1999/02/22-rdf-syntax-ns#">
   <cc:Work>
    <dc:type rdf:resource="http://purl.org/dc/dcmitype/StillImage"/>
    <dc:date>2025-12-30T01:47:38.591876</dc:date>
    <dc:format>image/svg+xml</dc:format>
    <dc:creator>
     <cc:Agent>
      <dc:title>Matplotlib v3.8.0, https://matplotlib.org/</dc:title>
     </cc:Agent>
    </dc:creator>
   </cc:Work>
  </rdf:RDF>
 </metadata>
 <defs>
  <style type="text/css">*{stroke-linejoin: round; stroke-linecap: butt}</style>
 </defs>
 <g id="figure_1">
  <g id="patch_1">
   <path d="M 0 361.333136 
L 413.171283 361.333136 
L 413.171283 -0 
L 0 -0 
z
" style="fill: #ffffff"/>
  </g>
  <g id="axes_1">
   <g id="patch_2">
    <path d="M 48.851283 285.37598 
L 405.971283 285.37598 
L 405.971283 19.26398 
L 48.851283 19.26398 
z
" style="fill: #ffffff"/>
   </g>
   <g id="PolyCollection_1">
    <defs>
     <path id="mfdd7ea9d17" d="M 48.851283 -116.427206 
L 48.851283 -93.111372 
L 60.011283 -94.166135 
L 71.171283 -89.759515 
L 82.331283 -88.053156 
L 93.491283 -90.715965 
L 104.651283 -90.982411 
L 115.811283 -90.274694 
L 126.971283 -93.380723 
L 138.131283 -99.043496 
L 149.291283 -100.701949 
L 160.451283 -99.558683 
L 171.611283 -97.513276 
L 182.771283 -97.848018 
L 193.931283 -100.579028 
L 205.091283 -103.111814 
L 216.251283 -104.133745 
L 227.411283 -108.457762 
L 238.571283 -115.781278 
L 249.731283 -122.748732 
L 260.891283 -127.012303 
L 272.051283 -133.25237 
L 283.211283 -138.062863 
L 294.371283 -144.056575 
L 305.531283 -159.845147 
L 316.691283 -172.882699 
L 327.851283 -183.426342 
L 339.011283 -195.410295 
L 350.171283 -206.584596 
L 361.331283 -217.608421 
L 372.491283 -225.51566 
L 383.651283 -238.142623 
L 394.811283 -253.325999 
L 405.971283 -274.116882 
L 405.971283 -329.973156 
L 405.971283 -329.973156 
L 394.811283 -308.451787 
L 383.651283 -293.004241 
L 372.491283 -278.943788 
L 361.331283 -269.57414 
L 350.171283 -256.435924 
L 339.011283 -243.131599 
L 327.851283 -230.476852 
L 316.691283 -219.059757 
L 305.531283 -203.035529 
L 294.371283 -184.813706 
L 283.211283 -180.931737 
L 272.051283 -177.687179 
L 260.891283 -169.19555 
L 249.731283 -162.586411 
L 238.571283 -153.284906 
L 227.411283 -144.536875 
L 216.251283 -140.135682 
L 205.091283 -139.358944 
L 193.931283 -136.236619 
L 182.771283 -132.82114 
L 171.611283 -132.879101 
L 160.451283 -134.835588 
L 149.291283 -134.368037 
L 138.131283 -131.61277 
L 126.971283 -124.570642 
L 115.811283 -119.860485 
L 104.651283 -119.134858 
L 93.491283 -117.858533 
L 82.331283 -115.411448 
L 71.171283 -116.712365 
L 60.011283 -119.420683 
L 48.851283 -116.427206 
z
" style="stroke: #1f77b4; stroke-opacity: 0.2"/>
    </defs>
    <g clip-path="url(#pc0a92ba65c)">
     <use xlink:href="#mfdd7ea9d17" x="0" y="361.333136" style="fill: #1f77b4; fill-opacity: 0.2; stroke: #1f77b4; stroke-opacity: 0.2"/>
    </g>
   </g>
   <g id="PolyCollection_2">
    <defs>
     <path id="mcb4000b0c5" d="M 48.851283 -162.350491 
L 48.851283 -116.469588 
L 60.011283 -111.783294 
L 71.171283 -103.034815 
L 82.331283 -98.204218 
L 93.491283 -100.689843 
L 104.651283 -101.077624 
L 115.811283 -99.050776 
L 126.971283 -98.019781 
L 138.131283 -98.642666 
L 149.291283 -98.031696 
L 160.451283 -96.014391 
L 171.611283 -93.263024 
L 182.771283 -98.454941 
L 193.931283 -103.726256 
L 205.091283 -110.772847 
L 216.251283 -121.209003 
L 227.411283 -132.264556 
L 238.571283 -142.689282 
L 249.731283 -152.183641 
L 260.891283 -158.156669 
L 272.051283 -163.937532 
L 283.211283 -171.183678 
L 294.371283 -176.480534 
L 305.531283 -182.989451 
L 316.691283 -191.387712 
L 327.851283 -200.434061 
L 339.011283 -211.782641 
L 350.171283 -220.090564 
L 361.331283 -219.334306 
L 372.491283 -215.008672 
L 383.651283 -204.877199 
L 394.811283 -199.336412 
L 405.971283 -205.655181 
L 405.971283 -256.635953 
L 405.971283 -256.635953 
L 394.811283 -254.776179 
L 383.651283 -265.279469 
L 372.491283 -280.965174 
L 361.331283 -288.713863 
L 350.171283 -287.714101 
L 339.011283 -275.26885 
L 327.851283 -262.103086 
L 316.691283 -251.830847 
L 305.531283 -241.878898 
L 294.371283 -233.574876 
L 283.211283 -226.689014 
L 272.051283 -217.072847 
L 260.891283 -209.276369 
L 249.731283 -203.816926 
L 238.571283 -193.222337 
L 227.411283 -180.797757 
L 216.251283 -168.666645 
L 205.091283 -153.360399 
L 193.931283 -144.090822 
L 182.771283 -139.969633 
L 171.611283 -133.913289 
L 160.451283 -137.49906 
L 149.291283 -142.308186 
L 138.131283 -144.218935 
L 126.971283 -144.521733 
L 115.811283 -145.884102 
L 104.651283 -147.898981 
L 93.491283 -146.899189 
L 82.331283 -142.66252 
L 71.171283 -148.631798 
L 60.011283 -158.197379 
L 48.851283 -162.350491 
z
" style="stroke: #ff7f0e; stroke-opacity: 0.2"/>
    </defs>
    <g clip-path="url(#pc0a92ba65c)">
     <use xlink:href="#mcb4000b0c5" x="0" y="361.333136" style="fill: #ff7f0e; fill-opacity: 0.2; stroke: #ff7f0e; stroke-opacity: 0.2"/>
    </g>
   </g>
   <g id="matplotlib.axis_1">
    <g id="text_1">
     <text style="font: 10px 'Arial', sans-serif; text-anchor: middle" x="227.411283" y="296.533792" transform="rotate(-0 227.411283 296.533792)">Time</text>
    </g>
   </g>
   <g id="matplotlib.axis_2">
    <g id="ytick_1">
     <g id="line2d_1">
      <defs>
       <path id="me526108ee2" d="M 0 0 
L -3.5 0 
" style="stroke: #000000; stroke-width: 0.8"/>
      </defs>
      <g>
       <use xlink:href="#me526108ee2" x="48.851283" y="279.161996" style="stroke: #000000; stroke-width: 0.8"/>
      </g>
     </g>
     <g id="text_2">
      <text style="font: 10px 'Arial', sans-serif; text-anchor: end" x="41.851283" y="282.740903" transform="rotate(-0 41.851283 282.740903)">−0.4</text>
     </g>
    </g>
    <g id="ytick_2">
     <g id="line2d_2">
      <g>
       <use xlink:href="#me526108ee2" x="48.851283" y="233.287745" style="stroke: #000000; stroke-width: 0.8"/>
      </g>
     </g>
     <g id="text_3">
      <text style="font: 10px 'Arial', sans-serif; text-anchor: end" x="41.851283" y="236.866651" transform="rotate(-0 41.851283 236.866651)">−0.2</text>
     </g>
    </g>
    <g id="ytick_3">
     <g id="line2d_3">
      <g>
       <use xlink:href="#me526108ee2" x="48.851283" y="187.413494" style="stroke: #000000; stroke-width: 0.8"/>
      </g>
     </g>
     <g id="text_4">
      <text style="font: 10px 'Arial', sans-serif; text-anchor: end" x="41.851283" y="190.9924" transform="rotate(-0 41.851283 190.9924)">0.0</text>
     </g>
    </g>
    <g id="ytick_4">
     <g id="line2d_4">
      <g>
       <use xlink:href="#me526108ee2" x="48.851283" y="141.539243" style="stroke: #000000; stroke-width: 0.8"/>
      </g>
     </g>
     <g id="text_5">
      <text style="font: 10px 'Arial', sans-serif; text-anchor: end" x="41.851283" y="145.118149" transform="rotate(-0 41.851283 145.118149)">0.2</text>
     </g>
    </g>
    <g id="ytick_5">
     <g id="line2d_5">
      <g>
       <use xlink:href="#me526108ee2" x="48.851283" y="95.664992" style="stroke: #000000; stroke-width: 0.8"/>
      </g>
     </g>
     <g id="text_6">
      <text style="font: 10px 'Arial', sans-serif; text-anchor: end" x="41.851283" y="99.243898" transform="rotate(-0 41.851283 99.243898)">0.4</text>
     </g>
    </g>
    <g id="ytick_6">
     <g id="line2d_6">
      <g>
       <use xlink:href="#me526108ee2" x="48.851283" y="49.790741" style="stroke: #000000; stroke-width: 0.8"/>
      </g>
     </g>
     <g id="text_7">
      <text style="font: 10px 'Arial', sans-serif; text-anchor: end" x="41.851283" y="53.369647" transform="rotate(-0 41.851283 53.369647)">0.6</text>
     </g>
    </g>
    <g id="text_8">
     <text style="font: 10px 'Arial', sans-serif; text-anchor: middle" x="16.005971" y="152.31998" transform="rotate(-90 16.005971 152.31998)">Activity</text>
    </g>
   </g>
   <g id="line2d_7">
    <path d="M 48.851283 256.563847 
L 60.011283 254.539727 
L 71.171283 258.097198 
L 82.331283 259.600834 
L 93.491283 257.045887 
L 104.651283 256.274501 
L 115.811283 256.265546 
L 126.971283 252.357453 
L 138.131283 246.005003 
L 149.291283 243.798141 
L 160.451283 244.136 
L 171.611283 246.136947 
L 182.771283 245.998557 
L 193.931283 242.925313 
L 205.091283 240.097757 
L 216.251283 239.198423 
L 227.411283 234.835818 
L 238.571283 226.800042 
L 249.731283 218.665564 
L 260.891283 213.22921 
L 272.051283 205.863362 
L 283.211283 201.835836 
L 294.371283 196.897996 
L 305.531283 179.892798 
L 316.691283 165.361908 
L 327.851283 154.38154 
L 339.011283 142.062187 
L 350.171283 129.822876 
L 361.331283 117.741857 
L 372.491283 109.103414 
L 383.651283 95.759707 
L 394.811283 80.444243 
L 405.971283 59.288117 
" clip-path="url(#pc0a92ba65c)" style="fill: none; stroke: #1f77b4; stroke-width: 1.5; stroke-linecap: square"/>
   </g>
   <g id="line2d_8">
    <path d="M 48.851283 221.923098 
L 60.011283 226.342799 
L 71.171283 235.49983 
L 82.331283 240.899767 
L 93.491283 237.53862 
L 104.651283 236.844834 
L 115.811283 238.865697 
L 126.971283 240.062379 
L 138.131283 239.902336 
L 149.291283 241.163195 
L 160.451283 244.57641 
L 171.611283 247.74498 
L 182.771283 242.120849 
L 193.931283 237.424595 
L 205.091283 229.266514 
L 216.251283 216.395311 
L 227.411283 204.80198 
L 238.571283 193.377327 
L 249.731283 183.332853 
L 260.891283 177.616616 
L 272.051283 170.827947 
L 283.211283 162.396789 
L 294.371283 156.30543 
L 305.531283 148.898961 
L 316.691283 139.723856 
L 327.851283 130.064562 
L 339.011283 117.807392 
L 350.171283 107.430804 
L 361.331283 107.309051 
L 372.491283 113.346215 
L 383.651283 126.254802 
L 394.811283 134.276841 
L 405.971283 130.187569 
" clip-path="url(#pc0a92ba65c)" style="fill: none; stroke: #ff7f0e; stroke-width: 1.5; stroke-linecap: square"/>
   </g>
   <g id="line2d_9">
    <path d="M 82.331283 285.37598 
L 82.331283 19.26398 
" clip-path="url(#pc0a92ba65c)" style="fill: none; stroke-dasharray: 5.55,2.4; stroke-dashoffset: 0; stroke: #000000; stroke-opacity: 0.5; stroke-width: 1.5"/>
   </g>
   <g id="line2d_10">
    <path d="M 383.651283 285.37598 
L 383.651283 19.26398 
" clip-path="url(#pc0a92ba65c)" style="fill: none; stroke-dasharray: 5.55,2.4; stroke-dashoffset: 0; stroke: #000000; stroke-opacity: 0.5; stroke-width: 1.5"/>
   </g>
   <g id="patch_3">
    <path d="M 48.851283 285.37598 
L 405.971283 285.37598 
" style="fill: none; stroke: #000000; stroke-width: 0.8; stroke-linejoin: miter; stroke-linecap: square"/>
   </g>
   <g id="text_9">
    <text style="font: 6.94px 'Arial', sans-serif" transform="translate(10.097767 321.385533) rotate(-35)">-0.1s Sampling</text>
   </g>
   <g id="text_10">
    <text style="font: 6.94px 'Arial', sans-serif" transform="translate(57.794497 311.430872) rotate(-35)">Sampling</text>
   </g>
   <g id="text_11">
    <text style="font: 6.94px 'Arial', sans-serif" transform="translate(319.037191 339.456682) rotate(-35)">Movement to Lateral Port</text>
   </g>
   <g id="text_12">
    <text style="font: 8.33px 'Arial', sans-serif; text-anchor: middle" x="227.411283" y="13.26398" transform="rotate(-0 227.411283 13.26398)">GP4_23_s3_L50_D250_M2 - Trace:34_GP4_23_s3_L50_D250_M2 (when: correct)</text>
   </g>
   <g id="legend_1">
    <g id="patch_4">
     <path d="M 131.766697 354.133136 
L 323.055869 354.133136 
Q 324.443869 354.133136 324.443869 352.745136 
L 324.443869 343.45638 
Q 324.443869 342.06838 323.055869 342.06838 
L 131.766697 342.06838 
Q 130.378697 342.06838 130.378697 343.45638 
L 130.378697 352.745136 
Q 130.378697 354.133136 131.766697 354.133136 
z
" style="fill: #ffffff; opacity: 0.8; stroke: #cccccc; stroke-linejoin: miter"/>
    </g>
    <g id="line2d_11">
     <path d="M 133.154697 347.467483 
L 140.094697 347.467483 
L 147.034697 347.467483 
" style="fill: none; stroke: #1f77b4; stroke-width: 1.5; stroke-linecap: square"/>
    </g>
    <g id="text_13">
     <text style="font: 6.94px 'Arial', sans-serif; text-anchor: start" x="152.586697" y="349.896483" transform="rotate(-0 152.586697 349.896483)">DecisionRight (102 pts)</text>
    </g>
    <g id="line2d_12">
     <path d="M 238.5939 347.467483 
L 245.5339 347.467483 
L 252.4739 347.467483 
" style="fill: none; stroke: #ff7f0e; stroke-width: 1.5; stroke-linecap: square"/>
    </g>
    <g id="text_14">
     <text style="font: 6.94px 'Arial', sans-serif; text-anchor: start" x="258.0259" y="349.896483" transform="rotate(-0 258.0259 349.896483)">DecisionLeft (90 pts)</text>
    </g>
   </g>
  </g>
 </g>
 <defs>
  <clipPath id="pc0a92ba65c">
   <rect x="48.851283" y="19.26398" width="357.12" height="266.112"/>
  </clipPath>
 </defs>
</svg>
