<?xml version="1.0" encoding="utf-8" standalone="no"?>
<!DOCTYPE svg PUBLIC "-//W3C//DTD SVG 1.1//EN"
  "http://www.w3.org/Graphics/SVG/1.1/DTD/svg11.dtd">
<svg xmlns:xlink="http://www.w3.org/1999/xlink" width="413.171283pt" height="361.333136pt" viewBox="0 0 413.171283 361.333136" xmlns="http://www.w3.org/2000/svg" version="1.1">
 <metadata>
  <rdf:RDF xmlns:dc="http://purl.org/dc/elements/1.1/" xmlns:cc="http://creativecommons.org/ns#" xmlns:rdf="http://www.w3.org/1999/02/22-rdf-syntax-ns#">
   <cc:Work>
    <dc:type rdf:resource="http://purl.org/dc/dcmitype/StillImage"/>
    <dc:date>2025-12-30T01:47:35.566848</dc:date>
    <dc:format>image/svg+xml</dc:format>
    <dc:creator>
     <cc:Agent>
      <dc:title>Matplotlib v3.8.0, https://matplotlib.org/</dc:title>
     </cc:Agent>
    </dc:creator>
   </cc:Work>
  </rdf:RDF>
 </metadata>
 <defs>
  <style type="text/css">*{stroke-linejoin: round; stroke-linecap: butt}</style>
 </defs>
 <g id="figure_1">
  <g id="patch_1">
   <path d="M 0 361.333136 
L 413.171283 361.333136 
L 413.171283 -0 
L 0 -0 
z
" style="fill: #ffffff"/>
  </g>
  <g id="axes_1">
   <g id="patch_2">
    <path d="M 48.851283 285.37598 
L 405.971283 285.37598 
L 405.971283 19.26398 
L 48.851283 19.26398 
z
" style="fill: #ffffff"/>
   </g>
   <g id="PolyCollection_1">
    <defs>
     <path id="m3c0f4fc0da" d="M 48.851283 -124.506939 
L 48.851283 -93.119276 
L 60.011283 -95.242822 
L 71.171283 -88.053156 
L 82.331283 -92.652138 
L 93.491283 -106.710647 
L 104.651283 -125.050434 
L 115.811283 -131.159393 
L 126.971283 -134.446477 
L 138.131283 -141.69584 
L 149.291283 -138.898961 
L 160.451283 -138.447229 
L 171.611283 -152.821355 
L 182.771283 -181.982267 
L 193.931283 -196.304015 
L 205.091283 -198.376826 
L 216.251283 -211.661543 
L 227.411283 -224.308864 
L 238.571283 -233.44833 
L 249.731283 -228.915891 
L 260.891283 -229.262493 
L 272.051283 -230.658753 
L 283.211283 -239.661632 
L 294.371283 -239.606293 
L 305.531283 -227.648756 
L 316.691283 -218.774637 
L 327.851283 -216.598353 
L 339.011283 -220.333131 
L 350.171283 -228.768766 
L 361.331283 -228.110078 
L 372.491283 -225.19102 
L 383.651283 -208.168864 
L 394.811283 -198.528901 
L 405.971283 -211.685489 
L 405.971283 -287.585694 
L 405.971283 -287.585694 
L 394.811283 -266.697174 
L 383.651283 -275.091309 
L 372.491283 -294.84308 
L 361.331283 -297.623085 
L 350.171283 -297.996026 
L 339.011283 -291.958447 
L 327.851283 -291.174975 
L 316.691283 -297.343937 
L 305.531283 -312.364879 
L 294.371283 -329.973156 
L 283.211283 -325.820466 
L 272.051283 -308.165872 
L 260.891283 -300.312404 
L 249.731283 -299.214214 
L 238.571283 -300.471346 
L 227.411283 -286.196449 
L 216.251283 -269.471412 
L 205.091283 -251.934222 
L 193.931283 -244.202603 
L 182.771283 -222.448874 
L 171.611283 -189.178818 
L 160.451283 -171.538367 
L 149.291283 -169.288978 
L 138.131283 -170.607608 
L 126.971283 -160.495441 
L 115.811283 -158.379747 
L 104.651283 -154.359832 
L 93.491283 -136.601765 
L 82.331283 -123.506738 
L 71.171283 -121.936527 
L 60.011283 -128.861512 
L 48.851283 -124.506939 
z
" style="stroke: #1f77b4; stroke-opacity: 0.2"/>
    </defs>
    <g clip-path="url(#pb88bef29d2)">
     <use xlink:href="#m3c0f4fc0da" x="0" y="361.333136" style="fill: #1f77b4; fill-opacity: 0.2; stroke: #1f77b4; stroke-opacity: 0.2"/>
    </g>
   </g>
   <g id="PolyCollection_2">
    <defs>
     <path id="mf693cd0869" d="M 48.851283 -127.656723 
L 48.851283 -91.295643 
L 60.011283 -99.340404 
L 71.171283 -114.012325 
L 82.331283 -112.580692 
L 93.491283 -118.040027 
L 104.651283 -129.131252 
L 115.811283 -125.083507 
L 126.971283 -122.41677 
L 138.131283 -133.420544 
L 149.291283 -146.333846 
L 160.451283 -167.126804 
L 171.611283 -177.277527 
L 182.771283 -177.21726 
L 193.931283 -187.343439 
L 205.091283 -218.158467 
L 216.251283 -244.466649 
L 227.411283 -250.998013 
L 238.571283 -245.479504 
L 249.731283 -235.872302 
L 260.891283 -229.716435 
L 272.051283 -224.532569 
L 283.211283 -228.743765 
L 294.371283 -236.277498 
L 305.531283 -234.954332 
L 316.691283 -225.6586 
L 327.851283 -225.75043 
L 339.011283 -231.558834 
L 350.171283 -233.166782 
L 361.331283 -229.929951 
L 372.491283 -224.813746 
L 383.651283 -215.478468 
L 394.811283 -219.353014 
L 405.971283 -224.875365 
L 405.971283 -296.243755 
L 405.971283 -296.243755 
L 394.811283 -289.347105 
L 383.651283 -284.621166 
L 372.491283 -293.27563 
L 361.331283 -298.284702 
L 350.171283 -301.562283 
L 339.011283 -300.387572 
L 327.851283 -295.712111 
L 316.691283 -296.723465 
L 305.531283 -307.518302 
L 294.371283 -309.021539 
L 283.211283 -298.708611 
L 272.051283 -292.497108 
L 260.891283 -300.599475 
L 249.731283 -314.282958 
L 238.571283 -326.017356 
L 227.411283 -323.612521 
L 216.251283 -306.408309 
L 205.091283 -269.280304 
L 193.931283 -231.263009 
L 182.771283 -219.578213 
L 171.611283 -217.972844 
L 160.451283 -204.993213 
L 149.291283 -185.199358 
L 138.131283 -174.652889 
L 126.971283 -164.676832 
L 115.811283 -170.035167 
L 104.651283 -175.71655 
L 93.491283 -164.020041 
L 82.331283 -161.368785 
L 71.171283 -154.866406 
L 60.011283 -135.634238 
L 48.851283 -127.656723 
z
" style="stroke: #ff7f0e; stroke-opacity: 0.2"/>
    </defs>
    <g clip-path="url(#pb88bef29d2)">
     <use xlink:href="#mf693cd0869" x="0" y="361.333136" style="fill: #ff7f0e; fill-opacity: 0.2; stroke: #ff7f0e; stroke-opacity: 0.2"/>
    </g>
   </g>
   <g id="matplotlib.axis_1">
    <g id="text_1">
     <text style="font: 10px 'Arial', sans-serif; text-anchor: middle" x="227.411283" y="296.533792" transform="rotate(-0 227.411283 296.533792)">Time</text>
    </g>
   </g>
   <g id="matplotlib.axis_2">
    <g id="ytick_1">
     <g id="line2d_1">
      <defs>
       <path id="m953e148c31" d="M 0 0 
L -3.5 0 
" style="stroke: #000000; stroke-width: 0.8"/>
      </defs>
      <g>
       <use xlink:href="#m953e148c31" x="48.851283" y="271.695773" style="stroke: #000000; stroke-width: 0.8"/>
      </g>
     </g>
     <g id="text_2">
      <text style="font: 10px 'Arial', sans-serif; text-anchor: end" x="41.851283" y="275.274679" transform="rotate(-0 41.851283 275.274679)">−0.2</text>
     </g>
    </g>
    <g id="ytick_2">
     <g id="line2d_2">
      <g>
       <use xlink:href="#m953e148c31" x="48.851283" y="221.820096" style="stroke: #000000; stroke-width: 0.8"/>
      </g>
     </g>
     <g id="text_3">
      <text style="font: 10px 'Arial', sans-serif; text-anchor: end" x="41.851283" y="225.399002" transform="rotate(-0 41.851283 225.399002)">0.0</text>
     </g>
    </g>
    <g id="ytick_3">
     <g id="line2d_3">
      <g>
       <use xlink:href="#m953e148c31" x="48.851283" y="171.944418" style="stroke: #000000; stroke-width: 0.8"/>
      </g>
     </g>
     <g id="text_4">
      <text style="font: 10px 'Arial', sans-serif; text-anchor: end" x="41.851283" y="175.523325" transform="rotate(-0 41.851283 175.523325)">0.2</text>
     </g>
    </g>
    <g id="ytick_4">
     <g id="line2d_4">
      <g>
       <use xlink:href="#m953e148c31" x="48.851283" y="122.068741" style="stroke: #000000; stroke-width: 0.8"/>
      </g>
     </g>
     <g id="text_5">
      <text style="font: 10px 'Arial', sans-serif; text-anchor: end" x="41.851283" y="125.647647" transform="rotate(-0 41.851283 125.647647)">0.4</text>
     </g>
    </g>
    <g id="ytick_5">
     <g id="line2d_5">
      <g>
       <use xlink:href="#m953e148c31" x="48.851283" y="72.193064" style="stroke: #000000; stroke-width: 0.8"/>
      </g>
     </g>
     <g id="text_6">
      <text style="font: 10px 'Arial', sans-serif; text-anchor: end" x="41.851283" y="75.77197" transform="rotate(-0 41.851283 75.77197)">0.6</text>
     </g>
    </g>
    <g id="ytick_6">
     <g id="line2d_6">
      <g>
       <use xlink:href="#m953e148c31" x="48.851283" y="22.317386" style="stroke: #000000; stroke-width: 0.8"/>
      </g>
     </g>
     <g id="text_7">
      <text style="font: 10px 'Arial', sans-serif; text-anchor: end" x="41.851283" y="25.896293" transform="rotate(-0 41.851283 25.896293)">0.8</text>
     </g>
    </g>
    <g id="text_8">
     <text style="font: 10px 'Arial', sans-serif; text-anchor: middle" x="16.005971" y="152.31998" transform="rotate(-90 16.005971 152.31998)">Activity</text>
    </g>
   </g>
   <g id="line2d_7">
    <path d="M 48.851283 252.520028 
L 60.011283 249.280969 
L 71.171283 256.338294 
L 82.331283 253.253698 
L 93.491283 239.676931 
L 104.651283 221.628003 
L 115.811283 216.563566 
L 126.971283 213.862176 
L 138.131283 205.181412 
L 149.291283 207.239167 
L 160.451283 206.340338 
L 171.611283 190.33305 
L 182.771283 159.117564 
L 193.931283 141.079825 
L 205.091283 136.177612 
L 216.251283 120.766658 
L 227.411283 106.080479 
L 238.571283 94.373298 
L 249.731283 97.268083 
L 260.891283 96.545688 
L 272.051283 91.920824 
L 283.211283 78.592087 
L 294.371283 76.543411 
L 305.531283 91.326319 
L 316.691283 103.273845 
L 327.851283 107.446476 
L 339.011283 105.187347 
L 350.171283 97.95074 
L 361.331283 98.466554 
L 372.491283 101.316086 
L 383.651283 119.70305 
L 394.811283 128.720102 
L 405.971283 111.697545 
" clip-path="url(#pb88bef29d2)" style="fill: none; stroke: #1f77b4; stroke-width: 1.5; stroke-linecap: square"/>
   </g>
   <g id="line2d_8">
    <path d="M 48.851283 251.856953 
L 60.011283 243.845814 
L 71.171283 226.893771 
L 82.331283 224.358396 
L 93.491283 220.303102 
L 104.651283 208.909236 
L 115.811283 213.773799 
L 126.971283 217.786334 
L 138.131283 207.296418 
L 149.291283 195.566534 
L 160.451283 175.273127 
L 171.611283 163.70795 
L 182.771283 162.935399 
L 193.931283 152.02991 
L 205.091283 117.61375 
L 216.251283 85.895657 
L 227.411283 74.027869 
L 238.571283 75.584706 
L 249.731283 86.255502 
L 260.891283 96.175185 
L 272.051283 102.818297 
L 283.211283 97.606948 
L 294.371283 88.683614 
L 305.531283 90.096819 
L 316.691283 100.142104 
L 327.851283 100.601865 
L 339.011283 95.359933 
L 350.171283 93.968608 
L 361.331283 97.22581 
L 372.491283 102.288444 
L 383.651283 111.283319 
L 394.811283 106.98308 
L 405.971283 100.773576 
" clip-path="url(#pb88bef29d2)" style="fill: none; stroke: #ff7f0e; stroke-width: 1.5; stroke-linecap: square"/>
   </g>
   <g id="line2d_9">
    <path d="M 82.331283 285.37598 
L 82.331283 19.26398 
" clip-path="url(#pb88bef29d2)" style="fill: none; stroke-dasharray: 5.55,2.4; stroke-dashoffset: 0; stroke: #000000; stroke-opacity: 0.5; stroke-width: 1.5"/>
   </g>
   <g id="line2d_10">
    <path d="M 383.651283 285.37598 
L 383.651283 19.26398 
" clip-path="url(#pb88bef29d2)" style="fill: none; stroke-dasharray: 5.55,2.4; stroke-dashoffset: 0; stroke: #000000; stroke-opacity: 0.5; stroke-width: 1.5"/>
   </g>
   <g id="patch_3">
    <path d="M 48.851283 285.37598 
L 405.971283 285.37598 
" style="fill: none; stroke: #000000; stroke-width: 0.8; stroke-linejoin: miter; stroke-linecap: square"/>
   </g>
   <g id="text_9">
    <text style="font: 6.94px 'Arial', sans-serif" transform="translate(10.097767 321.385533) rotate(-35)">-0.1s Sampling</text>
   </g>
   <g id="text_10">
    <text style="font: 6.94px 'Arial', sans-serif" transform="translate(57.794497 311.430872) rotate(-35)">Sampling</text>
   </g>
   <g id="text_11">
    <text style="font: 6.94px 'Arial', sans-serif" transform="translate(319.037191 339.456682) rotate(-35)">Movement to Lateral Port</text>
   </g>
   <g id="text_12">
    <text style="font: 8.33px 'Arial', sans-serif; text-anchor: middle" x="227.411283" y="13.26398" transform="rotate(-0 227.411283 13.26398)">GP4_23_s3_L50_D250_M2 - Trace:411_GP4_23_s3_L50_D250_M2 (when: correct)</text>
   </g>
   <g id="legend_1">
    <g id="patch_4">
     <path d="M 131.766697 354.133136 
L 323.055869 354.133136 
Q 324.443869 354.133136 324.443869 352.745136 
L 324.443869 343.45638 
Q 324.443869 342.06838 323.055869 342.06838 
L 131.766697 342.06838 
Q 130.378697 342.06838 130.378697 343.45638 
L 130.378697 352.745136 
Q 130.378697 354.133136 131.766697 354.133136 
z
" style="fill: #ffffff; opacity: 0.8; stroke: #cccccc; stroke-linejoin: miter"/>
    </g>
    <g id="line2d_11">
     <path d="M 133.154697 347.467483 
L 140.094697 347.467483 
L 147.034697 347.467483 
" style="fill: none; stroke: #1f77b4; stroke-width: 1.5; stroke-linecap: square"/>
    </g>
    <g id="text_13">
     <text style="font: 6.94px 'Arial', sans-serif; text-anchor: start" x="152.586697" y="349.896483" transform="rotate(-0 152.586697 349.896483)">DecisionRight (102 pts)</text>
    </g>
    <g id="line2d_12">
     <path d="M 238.5939 347.467483 
L 245.5339 347.467483 
L 252.4739 347.467483 
" style="fill: none; stroke: #ff7f0e; stroke-width: 1.5; stroke-linecap: square"/>
    </g>
    <g id="text_14">
     <text style="font: 6.94px 'Arial', sans-serif; text-anchor: start" x="258.0259" y="349.896483" transform="rotate(-0 258.0259 349.896483)">DecisionLeft (90 pts)</text>
    </g>
   </g>
  </g>
 </g>
 <defs>
  <clipPath id="pb88bef29d2">
   <rect x="48.851283" y="19.26398" width="357.12" height="266.112"/>
  </clipPath>
 </defs>
</svg>
