<?xml version="1.0" encoding="utf-8" standalone="no"?>
<!DOCTYPE svg PUBLIC "-//W3C//DTD SVG 1.1//EN"
  "http://www.w3.org/Graphics/SVG/1.1/DTD/svg11.dtd">
<svg xmlns:xlink="http://www.w3.org/1999/xlink" width="413.171283pt" height="361.333136pt" viewBox="0 0 413.171283 361.333136" xmlns="http://www.w3.org/2000/svg" version="1.1">
 <metadata>
  <rdf:RDF xmlns:dc="http://purl.org/dc/elements/1.1/" xmlns:cc="http://creativecommons.org/ns#" xmlns:rdf="http://www.w3.org/1999/02/22-rdf-syntax-ns#">
   <cc:Work>
    <dc:type rdf:resource="http://purl.org/dc/dcmitype/StillImage"/>
    <dc:date>2025-12-30T01:47:39.208560</dc:date>
    <dc:format>image/svg+xml</dc:format>
    <dc:creator>
     <cc:Agent>
      <dc:title>Matplotlib v3.8.0, https://matplotlib.org/</dc:title>
     </cc:Agent>
    </dc:creator>
   </cc:Work>
  </rdf:RDF>
 </metadata>
 <defs>
  <style type="text/css">*{stroke-linejoin: round; stroke-linecap: butt}</style>
 </defs>
 <g id="figure_1">
  <g id="patch_1">
   <path d="M 0 361.333136 
L 413.171283 361.333136 
L 413.171283 -0 
L 0 -0 
z
" style="fill: #ffffff"/>
  </g>
  <g id="axes_1">
   <g id="patch_2">
    <path d="M 48.851283 285.37598 
L 405.971283 285.37598 
L 405.971283 19.26398 
L 48.851283 19.26398 
z
" style="fill: #ffffff"/>
   </g>
   <g id="PolyCollection_1">
    <defs>
     <path id="mba9b926813" d="M 48.851283 -265.122442 
L 48.851283 -181.679328 
L 60.011283 -186.20797 
L 71.171283 -188.969215 
L 82.331283 -208.343187 
L 93.491283 -221.095407 
L 104.651283 -218.367859 
L 115.811283 -217.042074 
L 126.971283 -210.64868 
L 138.131283 -207.363594 
L 149.291283 -210.308251 
L 160.451283 -207.528718 
L 171.611283 -201.868895 
L 182.771283 -186.713928 
L 193.931283 -173.39801 
L 205.091283 -163.183942 
L 216.251283 -163.214888 
L 227.411283 -167.141931 
L 238.571283 -170.148775 
L 249.731283 -171.358417 
L 260.891283 -168.576485 
L 272.051283 -161.225892 
L 283.211283 -152.998245 
L 294.371283 -146.626351 
L 305.531283 -138.025153 
L 316.691283 -132.371865 
L 327.851283 -125.956015 
L 339.011283 -123.698992 
L 350.171283 -122.790569 
L 361.331283 -124.325451 
L 372.491283 -119.43412 
L 383.651283 -112.140203 
L 394.811283 -108.624218 
L 405.971283 -109.352325 
L 405.971283 -210.987498 
L 405.971283 -210.987498 
L 394.811283 -209.474517 
L 383.651283 -212.072775 
L 372.491283 -216.999437 
L 361.331283 -221.079524 
L 350.171283 -221.098788 
L 339.011283 -222.349615 
L 327.851283 -225.283222 
L 316.691283 -231.258178 
L 305.531283 -235.182392 
L 294.371283 -241.841909 
L 283.211283 -246.545238 
L 272.051283 -251.93481 
L 260.891283 -256.595024 
L 249.731283 -256.737406 
L 238.571283 -253.76406 
L 227.411283 -252.639935 
L 216.251283 -256.362672 
L 205.091283 -267.552037 
L 193.931283 -287.135219 
L 182.771283 -306.513755 
L 171.611283 -323.921744 
L 160.451283 -329.595076 
L 149.291283 -329.973156 
L 138.131283 -322.012469 
L 126.971283 -319.864539 
L 115.811283 -320.229609 
L 104.651283 -314.29008 
L 93.491283 -309.828997 
L 82.331283 -293.588636 
L 71.171283 -275.048303 
L 60.011283 -270.439771 
L 48.851283 -265.122442 
z
" style="stroke: #1f77b4; stroke-opacity: 0.2"/>
    </defs>
    <g clip-path="url(#p7ae6ccc181)">
     <use xlink:href="#mba9b926813" x="0" y="361.333136" style="fill: #1f77b4; fill-opacity: 0.2; stroke: #1f77b4; stroke-opacity: 0.2"/>
    </g>
   </g>
   <g id="PolyCollection_2">
    <defs>
     <path id="m4725ecf915" d="M 48.851283 -142.066949 
L 48.851283 -88.053156 
L 60.011283 -95.577593 
L 71.171283 -112.659107 
L 82.331283 -136.774215 
L 93.491283 -142.585486 
L 104.651283 -155.54538 
L 115.811283 -168.922722 
L 126.971283 -173.000121 
L 138.131283 -172.57808 
L 149.291283 -159.108442 
L 160.451283 -151.663906 
L 171.611283 -156.668637 
L 182.771283 -150.689959 
L 193.931283 -136.920144 
L 205.091283 -130.859008 
L 216.251283 -133.746887 
L 227.411283 -141.761603 
L 238.571283 -142.514152 
L 249.731283 -139.379387 
L 260.891283 -133.37112 
L 272.051283 -117.865542 
L 283.211283 -113.704521 
L 294.371283 -115.743641 
L 305.531283 -111.22601 
L 316.691283 -103.066363 
L 327.851283 -111.878916 
L 339.011283 -120.274914 
L 350.171283 -108.21695 
L 361.331283 -104.184263 
L 372.491283 -105.123393 
L 383.651283 -103.402757 
L 394.811283 -104.301423 
L 405.971283 -98.846924 
L 405.971283 -210.707341 
L 405.971283 -210.707341 
L 394.811283 -221.314774 
L 383.651283 -226.400721 
L 372.491283 -237.472926 
L 361.331283 -240.172414 
L 350.171283 -248.519487 
L 339.011283 -262.524364 
L 327.851283 -252.024793 
L 316.691283 -238.621251 
L 305.531283 -242.480521 
L 294.371283 -246.410604 
L 283.211283 -245.859712 
L 272.051283 -249.796834 
L 260.891283 -263.898301 
L 249.731283 -264.039001 
L 238.571283 -262.351544 
L 227.411283 -258.049869 
L 216.251283 -246.807219 
L 205.091283 -247.659843 
L 193.931283 -259.58397 
L 182.771283 -279.467905 
L 171.611283 -291.765507 
L 160.451283 -289.152971 
L 149.291283 -295.501513 
L 138.131283 -304.949421 
L 126.971283 -297.666457 
L 115.811283 -282.334284 
L 104.651283 -257.35984 
L 93.491283 -232.601368 
L 82.331283 -217.907603 
L 71.171283 -179.722269 
L 60.011283 -154.67638 
L 48.851283 -142.066949 
z
" style="stroke: #ff7f0e; stroke-opacity: 0.2"/>
    </defs>
    <g clip-path="url(#p7ae6ccc181)">
     <use xlink:href="#m4725ecf915" x="0" y="361.333136" style="fill: #ff7f0e; fill-opacity: 0.2; stroke: #ff7f0e; stroke-opacity: 0.2"/>
    </g>
   </g>
   <g id="matplotlib.axis_1">
    <g id="text_1">
     <text style="font: 10px 'Arial', sans-serif; text-anchor: middle" x="227.411283" y="296.533792" transform="rotate(-0 227.411283 296.533792)">Time</text>
    </g>
   </g>
   <g id="matplotlib.axis_2">
    <g id="ytick_1">
     <g id="line2d_1">
      <defs>
       <path id="m0b68d8daaf" d="M 0 0 
L -3.5 0 
" style="stroke: #000000; stroke-width: 0.8"/>
      </defs>
      <g>
       <use xlink:href="#m0b68d8daaf" x="48.851283" y="256.057145" style="stroke: #000000; stroke-width: 0.8"/>
      </g>
     </g>
     <g id="text_2">
      <text style="font: 10px 'Arial', sans-serif; text-anchor: end" x="41.851283" y="259.636051" transform="rotate(-0 41.851283 259.636051)">−0.2</text>
     </g>
    </g>
    <g id="ytick_2">
     <g id="line2d_2">
      <g>
       <use xlink:href="#m0b68d8daaf" x="48.851283" y="198.767334" style="stroke: #000000; stroke-width: 0.8"/>
      </g>
     </g>
     <g id="text_3">
      <text style="font: 10px 'Arial', sans-serif; text-anchor: end" x="41.851283" y="202.34624" transform="rotate(-0 41.851283 202.34624)">−0.1</text>
     </g>
    </g>
    <g id="ytick_3">
     <g id="line2d_3">
      <g>
       <use xlink:href="#m0b68d8daaf" x="48.851283" y="141.477522" style="stroke: #000000; stroke-width: 0.8"/>
      </g>
     </g>
     <g id="text_4">
      <text style="font: 10px 'Arial', sans-serif; text-anchor: end" x="41.851283" y="145.056428" transform="rotate(-0 41.851283 145.056428)">0.0</text>
     </g>
    </g>
    <g id="ytick_4">
     <g id="line2d_4">
      <g>
       <use xlink:href="#m0b68d8daaf" x="48.851283" y="84.187711" style="stroke: #000000; stroke-width: 0.8"/>
      </g>
     </g>
     <g id="text_5">
      <text style="font: 10px 'Arial', sans-serif; text-anchor: end" x="41.851283" y="87.766617" transform="rotate(-0 41.851283 87.766617)">0.1</text>
     </g>
    </g>
    <g id="ytick_5">
     <g id="line2d_5">
      <g>
       <use xlink:href="#m0b68d8daaf" x="48.851283" y="26.897899" style="stroke: #000000; stroke-width: 0.8"/>
      </g>
     </g>
     <g id="text_6">
      <text style="font: 10px 'Arial', sans-serif; text-anchor: end" x="41.851283" y="30.476806" transform="rotate(-0 41.851283 30.476806)">0.2</text>
     </g>
    </g>
    <g id="text_7">
     <text style="font: 10px 'Arial', sans-serif; text-anchor: middle" x="16.005971" y="152.31998" transform="rotate(-90 16.005971 152.31998)">Activity</text>
    </g>
   </g>
   <g id="line2d_6">
    <path d="M 48.851283 137.932251 
L 60.011283 133.009267 
L 71.171283 129.324378 
L 82.331283 110.367226 
L 93.491283 95.870936 
L 104.651283 95.004168 
L 115.811283 92.697295 
L 126.971283 96.076525 
L 138.131283 96.645104 
L 149.291283 91.192432 
L 160.451283 92.771237 
L 171.611283 98.437816 
L 182.771283 114.719293 
L 193.931283 131.066521 
L 205.091283 145.965147 
L 216.251283 151.544358 
L 227.411283 151.442202 
L 238.571283 149.376719 
L 249.731283 147.285227 
L 260.891283 148.747381 
L 272.051283 154.752786 
L 283.211283 161.561394 
L 294.371283 167.099008 
L 305.531283 174.729366 
L 316.691283 179.518114 
L 327.851283 185.713518 
L 339.011283 188.30883 
L 350.171283 189.38846 
L 361.331283 188.630648 
L 372.491283 193.116356 
L 383.651283 199.226647 
L 394.811283 202.283768 
L 405.971283 201.163222 
" clip-path="url(#p7ae6ccc181)" style="fill: none; stroke: #1f77b4; stroke-width: 1.5; stroke-linecap: square"/>
   </g>
   <g id="line2d_7">
    <path d="M 48.851283 246.273083 
L 60.011283 236.206151 
L 71.171283 215.142446 
L 82.331283 183.992225 
L 93.491283 173.739708 
L 104.651283 154.880526 
L 115.811283 135.704634 
L 126.971283 125.999845 
L 138.131283 122.569388 
L 149.291283 134.028156 
L 160.451283 140.924696 
L 171.611283 137.116064 
L 182.771283 146.254206 
L 193.931283 163.081081 
L 205.091283 172.07371 
L 216.251283 171.056082 
L 227.411283 161.427402 
L 238.571283 158.900288 
L 249.731283 159.62394 
L 260.891283 162.698425 
L 272.051283 177.50195 
L 283.211283 181.551019 
L 294.371283 180.256014 
L 305.531283 184.479871 
L 316.691283 190.489329 
L 327.851283 179.381281 
L 339.011283 169.933497 
L 350.171283 182.964918 
L 361.331283 189.154798 
L 372.491283 190.034976 
L 383.651283 196.431397 
L 394.811283 198.525037 
L 405.971283 206.556004 
" clip-path="url(#p7ae6ccc181)" style="fill: none; stroke: #ff7f0e; stroke-width: 1.5; stroke-linecap: square"/>
   </g>
   <g id="line2d_8">
    <path d="M 82.331283 285.37598 
L 82.331283 19.26398 
" clip-path="url(#p7ae6ccc181)" style="fill: none; stroke-dasharray: 5.55,2.4; stroke-dashoffset: 0; stroke: #000000; stroke-opacity: 0.5; stroke-width: 1.5"/>
   </g>
   <g id="line2d_9">
    <path d="M 383.651283 285.37598 
L 383.651283 19.26398 
" clip-path="url(#p7ae6ccc181)" style="fill: none; stroke-dasharray: 5.55,2.4; stroke-dashoffset: 0; stroke: #000000; stroke-opacity: 0.5; stroke-width: 1.5"/>
   </g>
   <g id="patch_3">
    <path d="M 48.851283 285.37598 
L 405.971283 285.37598 
" style="fill: none; stroke: #000000; stroke-width: 0.8; stroke-linejoin: miter; stroke-linecap: square"/>
   </g>
   <g id="text_8">
    <text style="font: 6.94px 'Arial', sans-serif" transform="translate(10.097767 321.385533) rotate(-35)">-0.1s Sampling</text>
   </g>
   <g id="text_9">
    <text style="font: 6.94px 'Arial', sans-serif" transform="translate(57.794497 311.430872) rotate(-35)">Sampling</text>
   </g>
   <g id="text_10">
    <text style="font: 6.94px 'Arial', sans-serif" transform="translate(319.037191 339.456682) rotate(-35)">Movement to Lateral Port</text>
   </g>
   <g id="text_11">
    <text style="font: 8.33px 'Arial', sans-serif; text-anchor: middle" x="227.411283" y="13.26398" transform="rotate(-0 227.411283 13.26398)">GP4_23_s3_L50_D250_M2 - Trace:42_GP4_23_s3_L50_D250_M2 (when: correct)</text>
   </g>
   <g id="legend_1">
    <g id="patch_4">
     <path d="M 131.766697 354.133136 
L 323.055869 354.133136 
Q 324.443869 354.133136 324.443869 352.745136 
L 324.443869 343.45638 
Q 324.443869 342.06838 323.055869 342.06838 
L 131.766697 342.06838 
Q 130.378697 342.06838 130.378697 343.45638 
L 130.378697 352.745136 
Q 130.378697 354.133136 131.766697 354.133136 
z
" style="fill: #ffffff; opacity: 0.8; stroke: #cccccc; stroke-linejoin: miter"/>
    </g>
    <g id="line2d_10">
     <path d="M 133.154697 347.467483 
L 140.094697 347.467483 
L 147.034697 347.467483 
" style="fill: none; stroke: #1f77b4; stroke-width: 1.5; stroke-linecap: square"/>
    </g>
    <g id="text_12">
     <text style="font: 6.94px 'Arial', sans-serif; text-anchor: start" x="152.586697" y="349.896483" transform="rotate(-0 152.586697 349.896483)">DecisionRight (102 pts)</text>
    </g>
    <g id="line2d_11">
     <path d="M 238.5939 347.467483 
L 245.5339 347.467483 
L 252.4739 347.467483 
" style="fill: none; stroke: #ff7f0e; stroke-width: 1.5; stroke-linecap: square"/>
    </g>
    <g id="text_13">
     <text style="font: 6.94px 'Arial', sans-serif; text-anchor: start" x="258.0259" y="349.896483" transform="rotate(-0 258.0259 349.896483)">DecisionLeft (90 pts)</text>
    </g>
   </g>
  </g>
 </g>
 <defs>
  <clipPath id="p7ae6ccc181">
   <rect x="48.851283" y="19.26398" width="357.12" height="266.112"/>
  </clipPath>
 </defs>
</svg>
