<?xml version="1.0" encoding="utf-8" standalone="no"?>
<!DOCTYPE svg PUBLIC "-//W3C//DTD SVG 1.1//EN"
  "http://www.w3.org/Graphics/SVG/1.1/DTD/svg11.dtd">
<svg xmlns:xlink="http://www.w3.org/1999/xlink" width="413.171283pt" height="361.333136pt" viewBox="0 0 413.171283 361.333136" xmlns="http://www.w3.org/2000/svg" version="1.1">
 <metadata>
  <rdf:RDF xmlns:dc="http://purl.org/dc/elements/1.1/" xmlns:cc="http://creativecommons.org/ns#" xmlns:rdf="http://www.w3.org/1999/02/22-rdf-syntax-ns#">
   <cc:Work>
    <dc:type rdf:resource="http://purl.org/dc/dcmitype/StillImage"/>
    <dc:date>2025-12-30T01:47:37.801753</dc:date>
    <dc:format>image/svg+xml</dc:format>
    <dc:creator>
     <cc:Agent>
      <dc:title>Matplotlib v3.8.0, https://matplotlib.org/</dc:title>
     </cc:Agent>
    </dc:creator>
   </cc:Work>
  </rdf:RDF>
 </metadata>
 <defs>
  <style type="text/css">*{stroke-linejoin: round; stroke-linecap: butt}</style>
 </defs>
 <g id="figure_1">
  <g id="patch_1">
   <path d="M 0 361.333136 
L 413.171283 361.333136 
L 413.171283 -0 
L 0 -0 
z
" style="fill: #ffffff"/>
  </g>
  <g id="axes_1">
   <g id="patch_2">
    <path d="M 48.851283 285.37598 
L 405.971283 285.37598 
L 405.971283 19.26398 
L 48.851283 19.26398 
z
" style="fill: #ffffff"/>
   </g>
   <g id="PolyCollection_1">
    <defs>
     <path id="mf1f4eeb8e6" d="M 48.851283 -325.7597 
L 48.851283 -257.07554 
L 60.011283 -257.945869 
L 71.171283 -261.422612 
L 82.331283 -258.331325 
L 93.491283 -251.030939 
L 104.651283 -243.076929 
L 115.811283 -232.29473 
L 126.971283 -224.277518 
L 138.131283 -214.028493 
L 149.291283 -199.056341 
L 160.451283 -187.635573 
L 171.611283 -176.72481 
L 182.771283 -168.103547 
L 193.931283 -158.949175 
L 205.091283 -154.123289 
L 216.251283 -154.942381 
L 227.411283 -153.017972 
L 238.571283 -153.296504 
L 249.731283 -148.950417 
L 260.891283 -146.306741 
L 272.051283 -146.888147 
L 283.211283 -147.78109 
L 294.371283 -144.806051 
L 305.531283 -135.333899 
L 316.691283 -133.259017 
L 327.851283 -137.97389 
L 339.011283 -133.762761 
L 350.171283 -129.309136 
L 361.331283 -119.812639 
L 372.491283 -114.407537 
L 383.651283 -111.778728 
L 394.811283 -113.632275 
L 405.971283 -117.611492 
L 405.971283 -143.457941 
L 405.971283 -143.457941 
L 394.811283 -140.471371 
L 383.651283 -140.028896 
L 372.491283 -144.914156 
L 361.331283 -150.850467 
L 350.171283 -161.236775 
L 339.011283 -166.644183 
L 327.851283 -172.026647 
L 316.691283 -168.680277 
L 305.531283 -171.159737 
L 294.371283 -181.301509 
L 283.211283 -186.211063 
L 272.051283 -187.021756 
L 260.891283 -186.664189 
L 249.731283 -189.979644 
L 238.571283 -195.375043 
L 227.411283 -195.715066 
L 216.251283 -198.513161 
L 205.091283 -199.403158 
L 193.931283 -206.984027 
L 182.771283 -220.337448 
L 171.611283 -232.733373 
L 160.451283 -247.075026 
L 149.291283 -262.866402 
L 138.131283 -281.537857 
L 126.971283 -292.784414 
L 115.811283 -299.101533 
L 104.651283 -308.91769 
L 93.491283 -316.517246 
L 82.331283 -325.070303 
L 71.171283 -329.973156 
L 60.011283 -326.217834 
L 48.851283 -325.7597 
z
" style="stroke: #1f77b4; stroke-opacity: 0.2"/>
    </defs>
    <g clip-path="url(#p1e6043f13a)">
     <use xlink:href="#mf1f4eeb8e6" x="0" y="361.333136" style="fill: #1f77b4; fill-opacity: 0.2; stroke: #1f77b4; stroke-opacity: 0.2"/>
    </g>
   </g>
   <g id="PolyCollection_2">
    <defs>
     <path id="m1e6bd5ee2f" d="M 48.851283 -204.275615 
L 48.851283 -170.785845 
L 60.011283 -170.516708 
L 71.171283 -174.110133 
L 82.331283 -176.250338 
L 93.491283 -171.301714 
L 104.651283 -166.083546 
L 115.811283 -158.423025 
L 126.971283 -141.62696 
L 138.131283 -125.471446 
L 149.291283 -115.9417 
L 160.451283 -114.311378 
L 171.611283 -119.231222 
L 182.771283 -125.88303 
L 193.931283 -127.889212 
L 205.091283 -124.548024 
L 216.251283 -122.855148 
L 227.411283 -122.328661 
L 238.571283 -116.550865 
L 249.731283 -106.285354 
L 260.891283 -98.416408 
L 272.051283 -100.356068 
L 283.211283 -102.687712 
L 294.371283 -103.071213 
L 305.531283 -101.085447 
L 316.691283 -102.187505 
L 327.851283 -101.543035 
L 339.011283 -94.860081 
L 350.171283 -88.053156 
L 361.331283 -88.607586 
L 372.491283 -96.407484 
L 383.651283 -100.910448 
L 394.811283 -100.890646 
L 405.971283 -104.171397 
L 405.971283 -117.119778 
L 405.971283 -117.119778 
L 394.811283 -112.823907 
L 383.651283 -114.379948 
L 372.491283 -111.964053 
L 361.331283 -104.044899 
L 350.171283 -103.695931 
L 339.011283 -110.897583 
L 327.851283 -117.880718 
L 316.691283 -119.363764 
L 305.531283 -118.647686 
L 294.371283 -121.332738 
L 283.211283 -121.38105 
L 272.051283 -119.517342 
L 260.891283 -118.116263 
L 249.731283 -127.238189 
L 238.571283 -137.607994 
L 227.411283 -143.579319 
L 216.251283 -145.002334 
L 205.091283 -147.707618 
L 193.931283 -150.769568 
L 182.771283 -147.742508 
L 171.611283 -142.1782 
L 160.451283 -139.523598 
L 149.291283 -143.873462 
L 138.131283 -156.783863 
L 126.971283 -174.057353 
L 115.811283 -190.449915 
L 104.651283 -197.24437 
L 93.491283 -200.576433 
L 82.331283 -203.229189 
L 71.171283 -201.189982 
L 60.011283 -201.253935 
L 48.851283 -204.275615 
z
" style="stroke: #ff7f0e; stroke-opacity: 0.2"/>
    </defs>
    <g clip-path="url(#p1e6043f13a)">
     <use xlink:href="#m1e6bd5ee2f" x="0" y="361.333136" style="fill: #ff7f0e; fill-opacity: 0.2; stroke: #ff7f0e; stroke-opacity: 0.2"/>
    </g>
   </g>
   <g id="matplotlib.axis_1">
    <g id="text_1">
     <text style="font: 10px 'Arial', sans-serif; text-anchor: middle" x="227.411283" y="296.533792" transform="rotate(-0 227.411283 296.533792)">Time</text>
    </g>
   </g>
   <g id="matplotlib.axis_2">
    <g id="ytick_1">
     <g id="line2d_1">
      <defs>
       <path id="m135e460250" d="M 0 0 
L -3.5 0 
" style="stroke: #000000; stroke-width: 0.8"/>
      </defs>
      <g>
       <use xlink:href="#m135e460250" x="48.851283" y="278.0611" style="stroke: #000000; stroke-width: 0.8"/>
      </g>
     </g>
     <g id="text_2">
      <text style="font: 10px 'Arial', sans-serif; text-anchor: end" x="41.851283" y="281.640007" transform="rotate(-0 41.851283 281.640007)">−0.4</text>
     </g>
    </g>
    <g id="ytick_2">
     <g id="line2d_2">
      <g>
       <use xlink:href="#m135e460250" x="48.851283" y="236.417223" style="stroke: #000000; stroke-width: 0.8"/>
      </g>
     </g>
     <g id="text_3">
      <text style="font: 10px 'Arial', sans-serif; text-anchor: end" x="41.851283" y="239.996129" transform="rotate(-0 41.851283 239.996129)">−0.2</text>
     </g>
    </g>
    <g id="ytick_3">
     <g id="line2d_3">
      <g>
       <use xlink:href="#m135e460250" x="48.851283" y="194.773346" style="stroke: #000000; stroke-width: 0.8"/>
      </g>
     </g>
     <g id="text_4">
      <text style="font: 10px 'Arial', sans-serif; text-anchor: end" x="41.851283" y="198.352252" transform="rotate(-0 41.851283 198.352252)">0.0</text>
     </g>
    </g>
    <g id="ytick_4">
     <g id="line2d_4">
      <g>
       <use xlink:href="#m135e460250" x="48.851283" y="153.129468" style="stroke: #000000; stroke-width: 0.8"/>
      </g>
     </g>
     <g id="text_5">
      <text style="font: 10px 'Arial', sans-serif; text-anchor: end" x="41.851283" y="156.708374" transform="rotate(-0 41.851283 156.708374)">0.2</text>
     </g>
    </g>
    <g id="ytick_5">
     <g id="line2d_5">
      <g>
       <use xlink:href="#m135e460250" x="48.851283" y="111.485591" style="stroke: #000000; stroke-width: 0.8"/>
      </g>
     </g>
     <g id="text_6">
      <text style="font: 10px 'Arial', sans-serif; text-anchor: end" x="41.851283" y="115.064497" transform="rotate(-0 41.851283 115.064497)">0.4</text>
     </g>
    </g>
    <g id="ytick_6">
     <g id="line2d_6">
      <g>
       <use xlink:href="#m135e460250" x="48.851283" y="69.841713" style="stroke: #000000; stroke-width: 0.8"/>
      </g>
     </g>
     <g id="text_7">
      <text style="font: 10px 'Arial', sans-serif; text-anchor: end" x="41.851283" y="73.42062" transform="rotate(-0 41.851283 73.42062)">0.6</text>
     </g>
    </g>
    <g id="ytick_7">
     <g id="line2d_7">
      <g>
       <use xlink:href="#m135e460250" x="48.851283" y="28.197836" style="stroke: #000000; stroke-width: 0.8"/>
      </g>
     </g>
     <g id="text_8">
      <text style="font: 10px 'Arial', sans-serif; text-anchor: end" x="41.851283" y="31.776742" transform="rotate(-0 41.851283 31.776742)">0.8</text>
     </g>
    </g>
    <g id="text_9">
     <text style="font: 10px 'Arial', sans-serif; text-anchor: middle" x="16.005971" y="152.31998" transform="rotate(-90 16.005971 152.31998)">Activity</text>
    </g>
   </g>
   <g id="line2d_8">
    <path d="M 48.851283 69.915516 
L 60.011283 69.251287 
L 71.171283 65.635252 
L 82.331283 69.632325 
L 93.491283 77.559043 
L 104.651283 85.335826 
L 115.811283 95.635007 
L 126.971283 102.80217 
L 138.131283 113.549959 
L 149.291283 130.371764 
L 160.451283 143.977836 
L 171.611283 156.604044 
L 182.771283 167.112637 
L 193.931283 178.366534 
L 205.091283 184.569912 
L 216.251283 184.605364 
L 227.411283 186.966616 
L 238.571283 186.997363 
L 249.731283 191.868105 
L 260.891283 194.847671 
L 272.051283 194.378184 
L 283.211283 194.337059 
L 294.371283 198.279356 
L 305.531283 208.086318 
L 316.691283 210.363489 
L 327.851283 206.332866 
L 339.011283 211.129665 
L 350.171283 216.060179 
L 361.331283 226.001582 
L 372.491283 231.672289 
L 383.651283 235.429324 
L 394.811283 234.281311 
L 405.971283 230.798419 
" clip-path="url(#p1e6043f13a)" style="fill: none; stroke: #1f77b4; stroke-width: 1.5; stroke-linecap: square"/>
   </g>
   <g id="line2d_9">
    <path d="M 48.851283 173.802407 
L 60.011283 175.447814 
L 71.171283 173.68308 
L 82.331283 171.593373 
L 93.491283 175.394063 
L 104.651283 179.669178 
L 115.811283 186.896666 
L 126.971283 203.49098 
L 138.131283 220.205481 
L 149.291283 231.425555 
L 160.451283 234.415646 
L 171.611283 230.628425 
L 182.771283 224.520367 
L 193.931283 222.003746 
L 205.091283 225.205315 
L 216.251283 227.404395 
L 227.411283 228.379146 
L 238.571283 234.253707 
L 249.731283 244.571364 
L 260.891283 253.0668 
L 272.051283 251.396431 
L 283.211283 249.298757 
L 294.371283 249.131161 
L 305.531283 251.466571 
L 316.691283 250.557502 
L 327.851283 251.62126 
L 339.011283 258.454304 
L 350.171283 265.458592 
L 361.331283 265.006893 
L 372.491283 257.147367 
L 383.651283 253.687938 
L 394.811283 254.475859 
L 405.971283 250.687549 
" clip-path="url(#p1e6043f13a)" style="fill: none; stroke: #ff7f0e; stroke-width: 1.5; stroke-linecap: square"/>
   </g>
   <g id="line2d_10">
    <path d="M 82.331283 285.37598 
L 82.331283 19.26398 
" clip-path="url(#p1e6043f13a)" style="fill: none; stroke-dasharray: 5.55,2.4; stroke-dashoffset: 0; stroke: #000000; stroke-opacity: 0.5; stroke-width: 1.5"/>
   </g>
   <g id="line2d_11">
    <path d="M 383.651283 285.37598 
L 383.651283 19.26398 
" clip-path="url(#p1e6043f13a)" style="fill: none; stroke-dasharray: 5.55,2.4; stroke-dashoffset: 0; stroke: #000000; stroke-opacity: 0.5; stroke-width: 1.5"/>
   </g>
   <g id="patch_3">
    <path d="M 48.851283 285.37598 
L 405.971283 285.37598 
" style="fill: none; stroke: #000000; stroke-width: 0.8; stroke-linejoin: miter; stroke-linecap: square"/>
   </g>
   <g id="text_10">
    <text style="font: 6.94px 'Arial', sans-serif" transform="translate(10.097767 321.385533) rotate(-35)">-0.1s Sampling</text>
   </g>
   <g id="text_11">
    <text style="font: 6.94px 'Arial', sans-serif" transform="translate(57.794497 311.430872) rotate(-35)">Sampling</text>
   </g>
   <g id="text_12">
    <text style="font: 6.94px 'Arial', sans-serif" transform="translate(319.037191 339.456682) rotate(-35)">Movement to Lateral Port</text>
   </g>
   <g id="text_13">
    <text style="font: 8.33px 'Arial', sans-serif; text-anchor: middle" x="227.411283" y="13.26398" transform="rotate(-0 227.411283 13.26398)">GP4_23_s3_L50_D250_M2 - Trace:46_GP4_23_s3_L50_D250_M2 (when: correct)</text>
   </g>
   <g id="legend_1">
    <g id="patch_4">
     <path d="M 131.766697 354.133136 
L 323.055869 354.133136 
Q 324.443869 354.133136 324.443869 352.745136 
L 324.443869 343.45638 
Q 324.443869 342.06838 323.055869 342.06838 
L 131.766697 342.06838 
Q 130.378697 342.06838 130.378697 343.45638 
L 130.378697 352.745136 
Q 130.378697 354.133136 131.766697 354.133136 
z
" style="fill: #ffffff; opacity: 0.8; stroke: #cccccc; stroke-linejoin: miter"/>
    </g>
    <g id="line2d_12">
     <path d="M 133.154697 347.467483 
L 140.094697 347.467483 
L 147.034697 347.467483 
" style="fill: none; stroke: #1f77b4; stroke-width: 1.5; stroke-linecap: square"/>
    </g>
    <g id="text_14">
     <text style="font: 6.94px 'Arial', sans-serif; text-anchor: start" x="152.586697" y="349.896483" transform="rotate(-0 152.586697 349.896483)">DecisionRight (102 pts)</text>
    </g>
    <g id="line2d_13">
     <path d="M 238.5939 347.467483 
L 245.5339 347.467483 
L 252.4739 347.467483 
" style="fill: none; stroke: #ff7f0e; stroke-width: 1.5; stroke-linecap: square"/>
    </g>
    <g id="text_15">
     <text style="font: 6.94px 'Arial', sans-serif; text-anchor: start" x="258.0259" y="349.896483" transform="rotate(-0 258.0259 349.896483)">DecisionLeft (90 pts)</text>
    </g>
   </g>
  </g>
 </g>
 <defs>
  <clipPath id="p1e6043f13a">
   <rect x="48.851283" y="19.26398" width="357.12" height="266.112"/>
  </clipPath>
 </defs>
</svg>
