<?xml version="1.0" encoding="utf-8" standalone="no"?>
<!DOCTYPE svg PUBLIC "-//W3C//DTD SVG 1.1//EN"
  "http://www.w3.org/Graphics/SVG/1.1/DTD/svg11.dtd">
<svg xmlns:xlink="http://www.w3.org/1999/xlink" width="413.171283pt" height="361.333136pt" viewBox="0 0 413.171283 361.333136" xmlns="http://www.w3.org/2000/svg" version="1.1">
 <metadata>
  <rdf:RDF xmlns:dc="http://purl.org/dc/elements/1.1/" xmlns:cc="http://creativecommons.org/ns#" xmlns:rdf="http://www.w3.org/1999/02/22-rdf-syntax-ns#">
   <cc:Work>
    <dc:type rdf:resource="http://purl.org/dc/dcmitype/StillImage"/>
    <dc:date>2025-12-29T04:06:59.113622</dc:date>
    <dc:format>image/svg+xml</dc:format>
    <dc:creator>
     <cc:Agent>
      <dc:title>Matplotlib v3.8.0, https://matplotlib.org/</dc:title>
     </cc:Agent>
    </dc:creator>
   </cc:Work>
  </rdf:RDF>
 </metadata>
 <defs>
  <style type="text/css">*{stroke-linejoin: round; stroke-linecap: butt}</style>
 </defs>
 <g id="figure_1">
  <g id="patch_1">
   <path d="M 0 361.333136 
L 413.171283 361.333136 
L 413.171283 -0 
L 0 -0 
z
" style="fill: #ffffff"/>
  </g>
  <g id="axes_1">
   <g id="patch_2">
    <path d="M 48.851283 285.37598 
L 405.971283 285.37598 
L 405.971283 19.26398 
L 48.851283 19.26398 
z
" style="fill: #ffffff"/>
   </g>
   <g id="PolyCollection_1">
    <defs>
     <path id="me5a6907db8" d="M 48.851283 -329.973156 
L 48.851283 -242.537245 
L 60.011283 -241.159328 
L 71.171283 -240.460826 
L 82.331283 -232.368754 
L 93.491283 -218.167355 
L 104.651283 -205.056447 
L 115.811283 -189.666147 
L 126.971283 -177.298479 
L 138.131283 -168.590318 
L 149.291283 -161.706128 
L 160.451283 -156.981147 
L 171.611283 -153.143332 
L 182.771283 -153.118908 
L 193.931283 -152.166043 
L 205.091283 -148.476891 
L 216.251283 -143.556418 
L 227.411283 -140.770448 
L 238.571283 -141.99698 
L 249.731283 -141.696307 
L 260.891283 -142.470019 
L 272.051283 -143.849853 
L 283.211283 -142.134357 
L 294.371283 -133.242329 
L 305.531283 -127.411999 
L 316.691283 -120.829363 
L 327.851283 -120.224041 
L 339.011283 -117.555714 
L 350.171283 -116.122935 
L 361.331283 -115.586619 
L 372.491283 -117.519938 
L 383.651283 -120.501455 
L 394.811283 -120.778958 
L 405.971283 -117.326819 
L 405.971283 -140.304443 
L 405.971283 -140.304443 
L 394.811283 -145.889327 
L 383.651283 -146.855983 
L 372.491283 -144.512713 
L 361.331283 -142.872593 
L 350.171283 -144.150019 
L 339.011283 -147.043734 
L 327.851283 -151.655183 
L 316.691283 -154.034513 
L 305.531283 -161.180081 
L 294.371283 -167.620289 
L 283.211283 -177.119139 
L 272.051283 -178.988151 
L 260.891283 -178.033451 
L 249.731283 -176.910996 
L 238.571283 -177.651372 
L 227.411283 -177.044902 
L 216.251283 -180.950111 
L 205.091283 -188.526622 
L 193.931283 -193.61711 
L 182.771283 -194.508461 
L 171.611283 -193.801744 
L 160.451283 -199.313326 
L 149.291283 -207.90722 
L 138.131283 -219.518437 
L 126.971283 -233.996094 
L 115.811283 -253.318417 
L 104.651283 -276.566733 
L 93.491283 -295.855755 
L 82.331283 -314.855456 
L 71.171283 -327.04885 
L 60.011283 -327.462547 
L 48.851283 -329.973156 
z
" style="stroke: #1f77b4; stroke-opacity: 0.2"/>
    </defs>
    <g clip-path="url(#pd9cba9ae30)">
     <use xlink:href="#me5a6907db8" x="0" y="361.333136" style="fill: #1f77b4; fill-opacity: 0.2; stroke: #1f77b4; stroke-opacity: 0.2"/>
    </g>
   </g>
   <g id="PolyCollection_2">
    <defs>
     <path id="m8a4f4f7111" d="M 48.851283 -236.042953 
L 48.851283 -167.579855 
L 60.011283 -168.984742 
L 71.171283 -168.108673 
L 82.331283 -159.341254 
L 93.491283 -151.719033 
L 104.651283 -144.789389 
L 115.811283 -138.336116 
L 126.971283 -126.807115 
L 138.131283 -120.965593 
L 149.291283 -120.753773 
L 160.451283 -122.995532 
L 171.611283 -120.436719 
L 182.771283 -112.6989 
L 193.931283 -102.763589 
L 205.091283 -102.792463 
L 216.251283 -107.840571 
L 227.411283 -112.724907 
L 238.571283 -111.254691 
L 249.731283 -108.871021 
L 260.891283 -109.412579 
L 272.051283 -105.560961 
L 283.211283 -103.621287 
L 294.371283 -106.301441 
L 305.531283 -106.099054 
L 316.691283 -102.807199 
L 327.851283 -99.769664 
L 339.011283 -96.070787 
L 350.171283 -91.889194 
L 361.331283 -88.208746 
L 372.491283 -88.053156 
L 383.651283 -90.377311 
L 394.811283 -90.82331 
L 405.971283 -90.460474 
L 405.971283 -110.974831 
L 405.971283 -110.974831 
L 394.811283 -110.998084 
L 383.651283 -110.824561 
L 372.491283 -108.512316 
L 361.331283 -108.820715 
L 350.171283 -112.654748 
L 339.011283 -117.44361 
L 327.851283 -121.554145 
L 316.691283 -126.245127 
L 305.531283 -131.508153 
L 294.371283 -132.505918 
L 283.211283 -129.216233 
L 272.051283 -132.417335 
L 260.891283 -137.151794 
L 249.731283 -135.927907 
L 238.571283 -140.670401 
L 227.411283 -143.901591 
L 216.251283 -138.485507 
L 205.091283 -132.958893 
L 193.931283 -132.356934 
L 182.771283 -144.724617 
L 171.611283 -156.334554 
L 160.451283 -158.612864 
L 149.291283 -153.830708 
L 138.131283 -153.480932 
L 126.971283 -162.26834 
L 115.811283 -177.801322 
L 104.651283 -190.811847 
L 93.491283 -206.119098 
L 82.331283 -220.331428 
L 71.171283 -232.841965 
L 60.011283 -235.492345 
L 48.851283 -236.042953 
z
" style="stroke: #ff7f0e; stroke-opacity: 0.2"/>
    </defs>
    <g clip-path="url(#pd9cba9ae30)">
     <use xlink:href="#m8a4f4f7111" x="0" y="361.333136" style="fill: #ff7f0e; fill-opacity: 0.2; stroke: #ff7f0e; stroke-opacity: 0.2"/>
    </g>
   </g>
   <g id="matplotlib.axis_1">
    <g id="text_1">
     <text style="font: 10px 'Arial', sans-serif; text-anchor: middle" x="227.411283" y="296.533792" transform="rotate(-0 227.411283 296.533792)">Time</text>
    </g>
   </g>
   <g id="matplotlib.axis_2">
    <g id="ytick_1">
     <g id="line2d_1">
      <defs>
       <path id="m1821c6165f" d="M 0 0 
L -3.5 0 
" style="stroke: #000000; stroke-width: 0.8"/>
      </defs>
      <g>
       <use xlink:href="#m1821c6165f" x="48.851283" y="279.741598" style="stroke: #000000; stroke-width: 0.8"/>
      </g>
     </g>
     <g id="text_2">
      <text style="font: 10px 'Arial', sans-serif; text-anchor: end" x="41.851283" y="283.320505" transform="rotate(-0 41.851283 283.320505)">−0.2</text>
     </g>
    </g>
    <g id="ytick_2">
     <g id="line2d_2">
      <g>
       <use xlink:href="#m1821c6165f" x="48.851283" y="244.975645" style="stroke: #000000; stroke-width: 0.8"/>
      </g>
     </g>
     <g id="text_3">
      <text style="font: 10px 'Arial', sans-serif; text-anchor: end" x="41.851283" y="248.554551" transform="rotate(-0 41.851283 248.554551)">0.0</text>
     </g>
    </g>
    <g id="ytick_3">
     <g id="line2d_3">
      <g>
       <use xlink:href="#m1821c6165f" x="48.851283" y="210.209691" style="stroke: #000000; stroke-width: 0.8"/>
      </g>
     </g>
     <g id="text_4">
      <text style="font: 10px 'Arial', sans-serif; text-anchor: end" x="41.851283" y="213.788597" transform="rotate(-0 41.851283 213.788597)">0.2</text>
     </g>
    </g>
    <g id="ytick_4">
     <g id="line2d_4">
      <g>
       <use xlink:href="#m1821c6165f" x="48.851283" y="175.443737" style="stroke: #000000; stroke-width: 0.8"/>
      </g>
     </g>
     <g id="text_5">
      <text style="font: 10px 'Arial', sans-serif; text-anchor: end" x="41.851283" y="179.022643" transform="rotate(-0 41.851283 179.022643)">0.4</text>
     </g>
    </g>
    <g id="ytick_5">
     <g id="line2d_5">
      <g>
       <use xlink:href="#m1821c6165f" x="48.851283" y="140.677783" style="stroke: #000000; stroke-width: 0.8"/>
      </g>
     </g>
     <g id="text_6">
      <text style="font: 10px 'Arial', sans-serif; text-anchor: end" x="41.851283" y="144.25669" transform="rotate(-0 41.851283 144.25669)">0.6</text>
     </g>
    </g>
    <g id="ytick_6">
     <g id="line2d_6">
      <g>
       <use xlink:href="#m1821c6165f" x="48.851283" y="105.91183" style="stroke: #000000; stroke-width: 0.8"/>
      </g>
     </g>
     <g id="text_7">
      <text style="font: 10px 'Arial', sans-serif; text-anchor: end" x="41.851283" y="109.490736" transform="rotate(-0 41.851283 109.490736)">0.8</text>
     </g>
    </g>
    <g id="ytick_7">
     <g id="line2d_7">
      <g>
       <use xlink:href="#m1821c6165f" x="48.851283" y="71.145876" style="stroke: #000000; stroke-width: 0.8"/>
      </g>
     </g>
     <g id="text_8">
      <text style="font: 10px 'Arial', sans-serif; text-anchor: end" x="41.851283" y="74.724782" transform="rotate(-0 41.851283 74.724782)">1.0</text>
     </g>
    </g>
    <g id="ytick_8">
     <g id="line2d_8">
      <g>
       <use xlink:href="#m1821c6165f" x="48.851283" y="36.379922" style="stroke: #000000; stroke-width: 0.8"/>
      </g>
     </g>
     <g id="text_9">
      <text style="font: 10px 'Arial', sans-serif; text-anchor: end" x="41.851283" y="39.958829" transform="rotate(-0 41.851283 39.958829)">1.2</text>
     </g>
    </g>
    <g id="text_10">
     <text style="font: 10px 'Arial', sans-serif; text-anchor: middle" x="16.005971" y="152.31998" transform="rotate(-90 16.005971 152.31998)">Activity</text>
    </g>
   </g>
   <g id="line2d_9">
    <path d="M 48.851283 75.07794 
L 60.011283 77.022204 
L 71.171283 77.578292 
L 82.331283 87.721036 
L 93.491283 104.321581 
L 104.651283 120.521546 
L 115.811283 139.840854 
L 126.971283 155.68585 
L 138.131283 167.278758 
L 149.291283 176.526462 
L 160.451283 183.1859 
L 171.611283 187.860598 
L 182.771283 187.51945 
L 193.931283 188.441558 
L 205.091283 192.83138 
L 216.251283 199.079872 
L 227.411283 202.425461 
L 238.571283 201.50896 
L 249.731283 202.029485 
L 260.891283 201.081401 
L 272.051283 199.914134 
L 283.211283 201.706388 
L 294.371283 210.901827 
L 305.531283 217.037096 
L 316.691283 223.901199 
L 327.851283 225.393524 
L 339.011283 229.033412 
L 350.171283 231.196659 
L 361.331283 232.103529 
L 372.491283 230.316811 
L 383.651283 227.654417 
L 394.811283 227.998993 
L 405.971283 232.517505 
" clip-path="url(#pd9cba9ae30)" style="fill: none; stroke: #1f77b4; stroke-width: 1.5; stroke-linecap: square"/>
   </g>
   <g id="line2d_10">
    <path d="M 48.851283 159.521732 
L 60.011283 159.094592 
L 71.171283 160.857817 
L 82.331283 171.496793 
L 93.491283 182.414068 
L 104.651283 193.532518 
L 115.811283 203.264417 
L 126.971283 216.795409 
L 138.131283 224.109874 
L 149.291283 224.040896 
L 160.451283 220.528937 
L 171.611283 222.947499 
L 182.771283 232.621378 
L 193.931283 243.772874 
L 205.091283 243.457458 
L 216.251283 238.170097 
L 227.411283 233.019887 
L 238.571283 235.370589 
L 249.731283 238.933671 
L 260.891283 238.050949 
L 272.051283 242.343988 
L 283.211283 244.914375 
L 294.371283 241.929457 
L 305.531283 242.529533 
L 316.691283 246.806973 
L 327.851283 250.671231 
L 339.011283 254.575938 
L 350.171283 259.061165 
L 361.331283 262.818405 
L 372.491283 263.0504 
L 383.651283 260.7322 
L 394.811283 260.422438 
L 405.971283 260.615483 
" clip-path="url(#pd9cba9ae30)" style="fill: none; stroke: #ff7f0e; stroke-width: 1.5; stroke-linecap: square"/>
   </g>
   <g id="line2d_11">
    <path d="M 82.331283 285.37598 
L 82.331283 19.26398 
" clip-path="url(#pd9cba9ae30)" style="fill: none; stroke-dasharray: 5.55,2.4; stroke-dashoffset: 0; stroke: #000000; stroke-opacity: 0.5; stroke-width: 1.5"/>
   </g>
   <g id="line2d_12">
    <path d="M 383.651283 285.37598 
L 383.651283 19.26398 
" clip-path="url(#pd9cba9ae30)" style="fill: none; stroke-dasharray: 5.55,2.4; stroke-dashoffset: 0; stroke: #000000; stroke-opacity: 0.5; stroke-width: 1.5"/>
   </g>
   <g id="patch_3">
    <path d="M 48.851283 285.37598 
L 405.971283 285.37598 
" style="fill: none; stroke: #000000; stroke-width: 0.8; stroke-linejoin: miter; stroke-linecap: square"/>
   </g>
   <g id="text_11">
    <text style="font: 6.94px 'Arial', sans-serif" transform="translate(10.097767 321.385533) rotate(-35)">-0.1s Sampling</text>
   </g>
   <g id="text_12">
    <text style="font: 6.94px 'Arial', sans-serif" transform="translate(57.794497 311.430872) rotate(-35)">Sampling</text>
   </g>
   <g id="text_13">
    <text style="font: 6.94px 'Arial', sans-serif" transform="translate(319.037191 339.456682) rotate(-35)">Movement to Lateral Port</text>
   </g>
   <g id="text_14">
    <text style="font: 8.33px 'Arial', sans-serif; text-anchor: middle" x="227.411283" y="13.26398" transform="rotate(-0 227.411283 13.26398)">GP4_23_s3_L50_D250_M2 - Trace:7_GP4_23_s3_L50_D250_M2 (when: correct)</text>
   </g>
   <g id="legend_1">
    <g id="patch_4">
     <path d="M 131.766697 354.133136 
L 323.055869 354.133136 
Q 324.443869 354.133136 324.443869 352.745136 
L 324.443869 343.45638 
Q 324.443869 342.06838 323.055869 342.06838 
L 131.766697 342.06838 
Q 130.378697 342.06838 130.378697 343.45638 
L 130.378697 352.745136 
Q 130.378697 354.133136 131.766697 354.133136 
z
" style="fill: #ffffff; opacity: 0.8; stroke: #cccccc; stroke-linejoin: miter"/>
    </g>
    <g id="line2d_13">
     <path d="M 133.154697 347.467483 
L 140.094697 347.467483 
L 147.034697 347.467483 
" style="fill: none; stroke: #1f77b4; stroke-width: 1.5; stroke-linecap: square"/>
    </g>
    <g id="text_15">
     <text style="font: 6.94px 'Arial', sans-serif; text-anchor: start" x="152.586697" y="349.896483" transform="rotate(-0 152.586697 349.896483)">DecisionRight (102 pts)</text>
    </g>
    <g id="line2d_14">
     <path d="M 238.5939 347.467483 
L 245.5339 347.467483 
L 252.4739 347.467483 
" style="fill: none; stroke: #ff7f0e; stroke-width: 1.5; stroke-linecap: square"/>
    </g>
    <g id="text_16">
     <text style="font: 6.94px 'Arial', sans-serif; text-anchor: start" x="258.0259" y="349.896483" transform="rotate(-0 258.0259 349.896483)">DecisionLeft (90 pts)</text>
    </g>
   </g>
  </g>
 </g>
 <defs>
  <clipPath id="pd9cba9ae30">
   <rect x="48.851283" y="19.26398" width="357.12" height="266.112"/>
  </clipPath>
 </defs>
</svg>
