<?xml version="1.0" encoding="utf-8" standalone="no"?>
<!DOCTYPE svg PUBLIC "-//W3C//DTD SVG 1.1//EN"
  "http://www.w3.org/Graphics/SVG/1.1/DTD/svg11.dtd">
<svg xmlns:xlink="http://www.w3.org/1999/xlink" width="413.171283pt" height="361.333136pt" viewBox="0 0 413.171283 361.333136" xmlns="http://www.w3.org/2000/svg" version="1.1">
 <metadata>
  <rdf:RDF xmlns:dc="http://purl.org/dc/elements/1.1/" xmlns:cc="http://creativecommons.org/ns#" xmlns:rdf="http://www.w3.org/1999/02/22-rdf-syntax-ns#">
   <cc:Work>
    <dc:type rdf:resource="http://purl.org/dc/dcmitype/StillImage"/>
    <dc:date>2025-12-30T01:47:35.230961</dc:date>
    <dc:format>image/svg+xml</dc:format>
    <dc:creator>
     <cc:Agent>
      <dc:title>Matplotlib v3.8.0, https://matplotlib.org/</dc:title>
     </cc:Agent>
    </dc:creator>
   </cc:Work>
  </rdf:RDF>
 </metadata>
 <defs>
  <style type="text/css">*{stroke-linejoin: round; stroke-linecap: butt}</style>
 </defs>
 <g id="figure_1">
  <g id="patch_1">
   <path d="M 0 361.333136 
L 413.171283 361.333136 
L 413.171283 -0 
L 0 -0 
z
" style="fill: #ffffff"/>
  </g>
  <g id="axes_1">
   <g id="patch_2">
    <path d="M 48.851283 285.37598 
L 405.971283 285.37598 
L 405.971283 19.26398 
L 48.851283 19.26398 
z
" style="fill: #ffffff"/>
   </g>
   <g id="PolyCollection_1">
    <defs>
     <path id="m87b1b4bc4c" d="M 48.851283 -199.445395 
L 48.851283 -125.100873 
L 60.011283 -140.464545 
L 71.171283 -160.50349 
L 82.331283 -182.115131 
L 93.491283 -186.281898 
L 104.651283 -188.028954 
L 115.811283 -195.686926 
L 126.971283 -202.509547 
L 138.131283 -210.837777 
L 149.291283 -203.732768 
L 160.451283 -199.640324 
L 171.611283 -208.50701 
L 182.771283 -221.274878 
L 193.931283 -221.200285 
L 205.091283 -209.822869 
L 216.251283 -202.076496 
L 227.411283 -197.669782 
L 238.571283 -203.735126 
L 249.731283 -206.878521 
L 260.891283 -201.779367 
L 272.051283 -189.563175 
L 283.211283 -184.861278 
L 294.371283 -189.154434 
L 305.531283 -189.596798 
L 316.691283 -179.217205 
L 327.851283 -169.16884 
L 339.011283 -165.964597 
L 350.171283 -162.230373 
L 361.331283 -152.259743 
L 372.491283 -145.299832 
L 383.651283 -132.767022 
L 394.811283 -132.525199 
L 405.971283 -140.971602 
L 405.971283 -229.896988 
L 405.971283 -229.896988 
L 394.811283 -221.29648 
L 383.651283 -223.559839 
L 372.491283 -233.291118 
L 361.331283 -237.773283 
L 350.171283 -251.487575 
L 339.011283 -258.359016 
L 327.851283 -262.651267 
L 316.691283 -273.727513 
L 305.531283 -284.337821 
L 294.371283 -282.076685 
L 283.211283 -276.608816 
L 272.051283 -283.216985 
L 260.891283 -298.006242 
L 249.731283 -302.575002 
L 238.571283 -299.930874 
L 227.411283 -293.474131 
L 216.251283 -295.732534 
L 205.091283 -304.202979 
L 193.931283 -320.724347 
L 182.771283 -329.973156 
L 171.611283 -321.921262 
L 160.451283 -312.464496 
L 149.291283 -315.719419 
L 138.131283 -323.937193 
L 126.971283 -315.272202 
L 115.811283 -304.723758 
L 104.651283 -290.736667 
L 93.491283 -282.016403 
L 82.331283 -271.555734 
L 71.171283 -245.34239 
L 60.011283 -222.615805 
L 48.851283 -199.445395 
z
" style="stroke: #1f77b4; stroke-opacity: 0.2"/>
    </defs>
    <g clip-path="url(#p6e538913e5)">
     <use xlink:href="#m87b1b4bc4c" x="0" y="361.333136" style="fill: #1f77b4; fill-opacity: 0.2; stroke: #1f77b4; stroke-opacity: 0.2"/>
    </g>
   </g>
   <g id="PolyCollection_2">
    <defs>
     <path id="m7444a23a50" d="M 48.851283 -214.242052 
L 48.851283 -137.773816 
L 60.011283 -148.535709 
L 71.171283 -158.391047 
L 82.331283 -157.439355 
L 93.491283 -156.775744 
L 104.651283 -160.196951 
L 115.811283 -157.324797 
L 126.971283 -143.004654 
L 138.131283 -129.13509 
L 149.291283 -121.29165 
L 160.451283 -118.363807 
L 171.611283 -126.634408 
L 182.771283 -130.066887 
L 193.931283 -129.6061 
L 205.091283 -127.77531 
L 216.251283 -128.230225 
L 227.411283 -129.548568 
L 238.571283 -130.394106 
L 249.731283 -127.866231 
L 260.891283 -123.682675 
L 272.051283 -123.581761 
L 283.211283 -120.505819 
L 294.371283 -107.3434 
L 305.531283 -95.599732 
L 316.691283 -88.053156 
L 327.851283 -90.515106 
L 339.011283 -94.946786 
L 350.171283 -93.418245 
L 361.331283 -89.75572 
L 372.491283 -90.488033 
L 383.651283 -106.076633 
L 394.811283 -128.943866 
L 405.971283 -144.203876 
L 405.971283 -210.674133 
L 405.971283 -210.674133 
L 394.811283 -198.804018 
L 383.651283 -173.862789 
L 372.491283 -151.873973 
L 361.331283 -148.154847 
L 350.171283 -151.891417 
L 339.011283 -154.49898 
L 327.851283 -152.623697 
L 316.691283 -155.168913 
L 305.531283 -162.312144 
L 294.371283 -171.405066 
L 283.211283 -188.564258 
L 272.051283 -197.521053 
L 260.891283 -195.189145 
L 249.731283 -194.552325 
L 238.571283 -198.290861 
L 227.411283 -198.665847 
L 216.251283 -189.626181 
L 205.091283 -184.266854 
L 193.931283 -190.197338 
L 182.771283 -199.024124 
L 171.611283 -204.202178 
L 160.451283 -203.946888 
L 149.291283 -210.623899 
L 138.131283 -217.974143 
L 126.971283 -235.123463 
L 115.811283 -255.383316 
L 104.651283 -259.145937 
L 93.491283 -248.962904 
L 82.331283 -239.005049 
L 71.171283 -230.308611 
L 60.011283 -219.897906 
L 48.851283 -214.242052 
z
" style="stroke: #ff7f0e; stroke-opacity: 0.2"/>
    </defs>
    <g clip-path="url(#p6e538913e5)">
     <use xlink:href="#m7444a23a50" x="0" y="361.333136" style="fill: #ff7f0e; fill-opacity: 0.2; stroke: #ff7f0e; stroke-opacity: 0.2"/>
    </g>
   </g>
   <g id="matplotlib.axis_1">
    <g id="text_1">
     <text style="font: 10px 'Arial', sans-serif; text-anchor: middle" x="227.411283" y="296.533792" transform="rotate(-0 227.411283 296.533792)">Time</text>
    </g>
   </g>
   <g id="matplotlib.axis_2">
    <g id="ytick_1">
     <g id="line2d_1">
      <defs>
       <path id="md1e8429a66" d="M 0 0 
L -3.5 0 
" style="stroke: #000000; stroke-width: 0.8"/>
      </defs>
      <g>
       <use xlink:href="#md1e8429a66" x="48.851283" y="280.91219" style="stroke: #000000; stroke-width: 0.8"/>
      </g>
     </g>
     <g id="text_2">
      <text style="font: 10px 'Arial', sans-serif; text-anchor: end" x="41.851283" y="284.491096" transform="rotate(-0 41.851283 284.491096)">−0.2</text>
     </g>
    </g>
    <g id="ytick_2">
     <g id="line2d_2">
      <g>
       <use xlink:href="#md1e8429a66" x="48.851283" y="240.698521" style="stroke: #000000; stroke-width: 0.8"/>
      </g>
     </g>
     <g id="text_3">
      <text style="font: 10px 'Arial', sans-serif; text-anchor: end" x="41.851283" y="244.277427" transform="rotate(-0 41.851283 244.277427)">−0.1</text>
     </g>
    </g>
    <g id="ytick_3">
     <g id="line2d_3">
      <g>
       <use xlink:href="#md1e8429a66" x="48.851283" y="200.484852" style="stroke: #000000; stroke-width: 0.8"/>
      </g>
     </g>
     <g id="text_4">
      <text style="font: 10px 'Arial', sans-serif; text-anchor: end" x="41.851283" y="204.063758" transform="rotate(-0 41.851283 204.063758)">0.0</text>
     </g>
    </g>
    <g id="ytick_4">
     <g id="line2d_4">
      <g>
       <use xlink:href="#md1e8429a66" x="48.851283" y="160.271183" style="stroke: #000000; stroke-width: 0.8"/>
      </g>
     </g>
     <g id="text_5">
      <text style="font: 10px 'Arial', sans-serif; text-anchor: end" x="41.851283" y="163.850089" transform="rotate(-0 41.851283 163.850089)">0.1</text>
     </g>
    </g>
    <g id="ytick_5">
     <g id="line2d_5">
      <g>
       <use xlink:href="#md1e8429a66" x="48.851283" y="120.057514" style="stroke: #000000; stroke-width: 0.8"/>
      </g>
     </g>
     <g id="text_6">
      <text style="font: 10px 'Arial', sans-serif; text-anchor: end" x="41.851283" y="123.63642" transform="rotate(-0 41.851283 123.63642)">0.2</text>
     </g>
    </g>
    <g id="ytick_6">
     <g id="line2d_6">
      <g>
       <use xlink:href="#md1e8429a66" x="48.851283" y="79.843845" style="stroke: #000000; stroke-width: 0.8"/>
      </g>
     </g>
     <g id="text_7">
      <text style="font: 10px 'Arial', sans-serif; text-anchor: end" x="41.851283" y="83.422751" transform="rotate(-0 41.851283 83.422751)">0.3</text>
     </g>
    </g>
    <g id="ytick_7">
     <g id="line2d_7">
      <g>
       <use xlink:href="#md1e8429a66" x="48.851283" y="39.630176" style="stroke: #000000; stroke-width: 0.8"/>
      </g>
     </g>
     <g id="text_8">
      <text style="font: 10px 'Arial', sans-serif; text-anchor: end" x="41.851283" y="43.209082" transform="rotate(-0 41.851283 43.209082)">0.4</text>
     </g>
    </g>
    <g id="text_9">
     <text style="font: 10px 'Arial', sans-serif; text-anchor: middle" x="16.005971" y="152.31998" transform="rotate(-90 16.005971 152.31998)">Activity</text>
    </g>
   </g>
   <g id="line2d_8">
    <path d="M 48.851283 199.060003 
L 60.011283 179.792962 
L 71.171283 158.410195 
L 82.331283 134.497706 
L 93.491283 127.183986 
L 104.651283 121.950326 
L 115.811283 111.127794 
L 126.971283 102.442261 
L 138.131283 93.945648 
L 149.291283 101.607042 
L 160.451283 105.280726 
L 171.611283 96.118997 
L 182.771283 85.709119 
L 193.931283 90.37082 
L 205.091283 104.320213 
L 216.251283 112.428621 
L 227.411283 115.761181 
L 238.571283 109.500134 
L 249.731283 106.606373 
L 260.891283 111.440334 
L 272.051283 124.943056 
L 283.211283 130.598089 
L 294.371283 125.717573 
L 305.531283 124.365829 
L 316.691283 134.86078 
L 327.851283 145.423084 
L 339.011283 149.17133 
L 350.171283 154.474162 
L 361.331283 166.316623 
L 372.491283 172.037661 
L 383.651283 183.169707 
L 394.811283 184.422298 
L 405.971283 175.898842 
" clip-path="url(#p6e538913e5)" style="fill: none; stroke: #1f77b4; stroke-width: 1.5; stroke-linecap: square"/>
   </g>
   <g id="line2d_9">
    <path d="M 48.851283 185.325202 
L 60.011283 177.116327 
L 71.171283 166.983305 
L 82.331283 163.110932 
L 93.491283 158.463814 
L 104.651283 151.661692 
L 115.811283 154.979079 
L 126.971283 172.269078 
L 138.131283 187.778518 
L 149.291283 195.375363 
L 160.451283 200.17779 
L 171.611283 195.914842 
L 182.771283 196.787631 
L 193.931283 201.431416 
L 205.091283 205.312053 
L 216.251283 202.404932 
L 227.411283 197.225929 
L 238.571283 196.990652 
L 249.731283 200.123857 
L 260.891283 201.897226 
L 272.051283 200.78173 
L 283.211283 206.798099 
L 294.371283 221.958901 
L 305.531283 232.377198 
L 316.691283 239.722103 
L 327.851283 239.763734 
L 339.011283 236.610254 
L 350.171283 238.678303 
L 361.331283 242.377853 
L 372.491283 240.152134 
L 383.651283 221.363425 
L 394.811283 197.459193 
L 405.971283 183.894132 
" clip-path="url(#p6e538913e5)" style="fill: none; stroke: #ff7f0e; stroke-width: 1.5; stroke-linecap: square"/>
   </g>
   <g id="line2d_10">
    <path d="M 82.331283 285.37598 
L 82.331283 19.26398 
" clip-path="url(#p6e538913e5)" style="fill: none; stroke-dasharray: 5.55,2.4; stroke-dashoffset: 0; stroke: #000000; stroke-opacity: 0.5; stroke-width: 1.5"/>
   </g>
   <g id="line2d_11">
    <path d="M 383.651283 285.37598 
L 383.651283 19.26398 
" clip-path="url(#p6e538913e5)" style="fill: none; stroke-dasharray: 5.55,2.4; stroke-dashoffset: 0; stroke: #000000; stroke-opacity: 0.5; stroke-width: 1.5"/>
   </g>
   <g id="patch_3">
    <path d="M 48.851283 285.37598 
L 405.971283 285.37598 
" style="fill: none; stroke: #000000; stroke-width: 0.8; stroke-linejoin: miter; stroke-linecap: square"/>
   </g>
   <g id="text_10">
    <text style="font: 6.94px 'Arial', sans-serif" transform="translate(10.097767 321.385533) rotate(-35)">-0.1s Sampling</text>
   </g>
   <g id="text_11">
    <text style="font: 6.94px 'Arial', sans-serif" transform="translate(57.794497 311.430872) rotate(-35)">Sampling</text>
   </g>
   <g id="text_12">
    <text style="font: 6.94px 'Arial', sans-serif" transform="translate(319.037191 339.456682) rotate(-35)">Movement to Lateral Port</text>
   </g>
   <g id="text_13">
    <text style="font: 8.33px 'Arial', sans-serif; text-anchor: middle" x="227.411283" y="13.26398" transform="rotate(-0 227.411283 13.26398)">GP4_23_s3_L50_D250_M2 - Trace:8_GP4_23_s3_L50_D250_M2 (when: correct)</text>
   </g>
   <g id="legend_1">
    <g id="patch_4">
     <path d="M 131.766697 354.133136 
L 323.055869 354.133136 
Q 324.443869 354.133136 324.443869 352.745136 
L 324.443869 343.45638 
Q 324.443869 342.06838 323.055869 342.06838 
L 131.766697 342.06838 
Q 130.378697 342.06838 130.378697 343.45638 
L 130.378697 352.745136 
Q 130.378697 354.133136 131.766697 354.133136 
z
" style="fill: #ffffff; opacity: 0.8; stroke: #cccccc; stroke-linejoin: miter"/>
    </g>
    <g id="line2d_12">
     <path d="M 133.154697 347.467483 
L 140.094697 347.467483 
L 147.034697 347.467483 
" style="fill: none; stroke: #1f77b4; stroke-width: 1.5; stroke-linecap: square"/>
    </g>
    <g id="text_14">
     <text style="font: 6.94px 'Arial', sans-serif; text-anchor: start" x="152.586697" y="349.896483" transform="rotate(-0 152.586697 349.896483)">DecisionRight (102 pts)</text>
    </g>
    <g id="line2d_13">
     <path d="M 238.5939 347.467483 
L 245.5339 347.467483 
L 252.4739 347.467483 
" style="fill: none; stroke: #ff7f0e; stroke-width: 1.5; stroke-linecap: square"/>
    </g>
    <g id="text_15">
     <text style="font: 6.94px 'Arial', sans-serif; text-anchor: start" x="258.0259" y="349.896483" transform="rotate(-0 258.0259 349.896483)">DecisionLeft (90 pts)</text>
    </g>
   </g>
  </g>
 </g>
 <defs>
  <clipPath id="p6e538913e5">
   <rect x="48.851283" y="19.26398" width="357.12" height="266.112"/>
  </clipPath>
 </defs>
</svg>
