<?xml version="1.0" encoding="utf-8" standalone="no"?>
<!DOCTYPE svg PUBLIC "-//W3C//DTD SVG 1.1//EN"
  "http://www.w3.org/Graphics/SVG/1.1/DTD/svg11.dtd">
<svg xmlns:xlink="http://www.w3.org/1999/xlink" width="413.171283pt" height="361.333136pt" viewBox="0 0 413.171283 361.333136" xmlns="http://www.w3.org/2000/svg" version="1.1">
 <metadata>
  <rdf:RDF xmlns:dc="http://purl.org/dc/elements/1.1/" xmlns:cc="http://creativecommons.org/ns#" xmlns:rdf="http://www.w3.org/1999/02/22-rdf-syntax-ns#">
   <cc:Work>
    <dc:type rdf:resource="http://purl.org/dc/dcmitype/StillImage"/>
    <dc:date>2025-12-30T01:47:36.225435</dc:date>
    <dc:format>image/svg+xml</dc:format>
    <dc:creator>
     <cc:Agent>
      <dc:title>Matplotlib v3.8.0, https://matplotlib.org/</dc:title>
     </cc:Agent>
    </dc:creator>
   </cc:Work>
  </rdf:RDF>
 </metadata>
 <defs>
  <style type="text/css">*{stroke-linejoin: round; stroke-linecap: butt}</style>
 </defs>
 <g id="figure_1">
  <g id="patch_1">
   <path d="M 0 361.333136 
L 413.171283 361.333136 
L 413.171283 -0 
L 0 -0 
z
" style="fill: #ffffff"/>
  </g>
  <g id="axes_1">
   <g id="patch_2">
    <path d="M 48.851283 285.37598 
L 405.971283 285.37598 
L 405.971283 19.26398 
L 48.851283 19.26398 
z
" style="fill: #ffffff"/>
   </g>
   <g id="PolyCollection_1">
    <defs>
     <path id="m2d5970cbed" d="M 48.851283 -133.727047 
L 48.851283 -106.488434 
L 60.011283 -110.953632 
L 71.171283 -131.211712 
L 82.331283 -150.881261 
L 93.491283 -160.631215 
L 104.651283 -180.698271 
L 115.811283 -208.158685 
L 126.971283 -234.968541 
L 138.131283 -255.531502 
L 149.291283 -266.201603 
L 160.451283 -269.338671 
L 171.611283 -266.87386 
L 182.771283 -258.274366 
L 193.931283 -245.223108 
L 205.091283 -230.857375 
L 216.251283 -211.251418 
L 227.411283 -199.418055 
L 238.571283 -198.216597 
L 249.731283 -202.048529 
L 260.891283 -203.862265 
L 272.051283 -197.057786 
L 283.211283 -189.482695 
L 294.371283 -178.911059 
L 305.531283 -165.364342 
L 316.691283 -151.913656 
L 327.851283 -148.026803 
L 339.011283 -145.860876 
L 350.171283 -143.843865 
L 361.331283 -140.022802 
L 372.491283 -131.668971 
L 383.651283 -129.748039 
L 394.811283 -127.72228 
L 405.971283 -121.169182 
L 405.971283 -160.762426 
L 405.971283 -160.762426 
L 394.811283 -171.239448 
L 383.651283 -174.821753 
L 372.491283 -176.204476 
L 361.331283 -183.772176 
L 350.171283 -187.634992 
L 339.011283 -189.028668 
L 327.851283 -190.42252 
L 316.691283 -194.594702 
L 305.531283 -208.900622 
L 294.371283 -225.650641 
L 283.211283 -241.521883 
L 272.051283 -251.489545 
L 260.891283 -254.523096 
L 249.731283 -249.709306 
L 238.571283 -244.474441 
L 227.411283 -250.185051 
L 216.251283 -271.283775 
L 205.091283 -296.824793 
L 193.931283 -313.294438 
L 182.771283 -324.095213 
L 171.611283 -329.557034 
L 160.451283 -329.973156 
L 149.291283 -326.52232 
L 138.131283 -312.566788 
L 126.971283 -285.221112 
L 115.811283 -249.621938 
L 104.651283 -215.06069 
L 93.491283 -191.008213 
L 82.331283 -180.062246 
L 71.171283 -158.896236 
L 60.011283 -137.206877 
L 48.851283 -133.727047 
z
" style="stroke: #1f77b4; stroke-opacity: 0.2"/>
    </defs>
    <g clip-path="url(#p3cd02eb993)">
     <use xlink:href="#m2d5970cbed" x="0" y="361.333136" style="fill: #1f77b4; fill-opacity: 0.2; stroke: #1f77b4; stroke-opacity: 0.2"/>
    </g>
   </g>
   <g id="PolyCollection_2">
    <defs>
     <path id="m4b1d9528cf" d="M 48.851283 -122.753632 
L 48.851283 -102.285915 
L 60.011283 -112.342294 
L 71.171283 -119.581644 
L 82.331283 -133.942327 
L 93.491283 -146.104301 
L 104.651283 -172.807967 
L 115.811283 -203.960907 
L 126.971283 -224.932219 
L 138.131283 -234.592148 
L 149.291283 -235.608077 
L 160.451283 -231.3632 
L 171.611283 -218.955737 
L 182.771283 -203.63709 
L 193.931283 -193.913516 
L 205.091283 -183.159088 
L 216.251283 -176.991409 
L 227.411283 -175.570373 
L 238.571283 -168.88821 
L 249.731283 -166.635109 
L 260.891283 -166.383016 
L 272.051283 -158.203945 
L 283.211283 -149.974057 
L 294.371283 -145.060131 
L 305.531283 -139.705171 
L 316.691283 -134.437657 
L 327.851283 -127.746809 
L 339.011283 -120.711485 
L 350.171283 -119.075104 
L 361.331283 -115.090455 
L 372.491283 -111.85212 
L 383.651283 -102.939994 
L 394.811283 -90.738234 
L 405.971283 -88.053156 
L 405.971283 -113.409206 
L 405.971283 -113.409206 
L 394.811283 -119.079206 
L 383.651283 -135.272699 
L 372.491283 -146.212066 
L 361.331283 -149.480296 
L 350.171283 -152.983489 
L 339.011283 -156.041316 
L 327.851283 -163.121515 
L 316.691283 -170.549618 
L 305.531283 -178.65305 
L 294.371283 -186.932355 
L 283.211283 -192.943989 
L 272.051283 -202.419537 
L 260.891283 -213.181433 
L 249.731283 -214.154634 
L 238.571283 -214.405225 
L 227.411283 -220.873688 
L 216.251283 -222.79462 
L 205.091283 -228.850047 
L 193.931283 -242.649525 
L 182.771283 -257.818678 
L 171.611283 -277.669716 
L 160.451283 -291.212705 
L 149.291283 -295.531106 
L 138.131283 -292.738064 
L 126.971283 -276.971051 
L 115.811283 -246.296402 
L 104.651283 -207.22748 
L 93.491283 -173.786123 
L 82.331283 -157.856955 
L 71.171283 -143.034123 
L 60.011283 -134.806363 
L 48.851283 -122.753632 
z
" style="stroke: #ff7f0e; stroke-opacity: 0.2"/>
    </defs>
    <g clip-path="url(#p3cd02eb993)">
     <use xlink:href="#m4b1d9528cf" x="0" y="361.333136" style="fill: #ff7f0e; fill-opacity: 0.2; stroke: #ff7f0e; stroke-opacity: 0.2"/>
    </g>
   </g>
   <g id="matplotlib.axis_1">
    <g id="text_1">
     <text style="font: 10px 'Arial', sans-serif; text-anchor: middle" x="227.411283" y="296.533792" transform="rotate(-0 227.411283 296.533792)">Time</text>
    </g>
   </g>
   <g id="matplotlib.axis_2">
    <g id="ytick_1">
     <g id="line2d_1">
      <defs>
       <path id="m7cecb875f1" d="M 0 0 
L -3.5 0 
" style="stroke: #000000; stroke-width: 0.8"/>
      </defs>
      <g>
       <use xlink:href="#m7cecb875f1" x="48.851283" y="237.643956" style="stroke: #000000; stroke-width: 0.8"/>
      </g>
     </g>
     <g id="text_2">
      <text style="font: 10px 'Arial', sans-serif; text-anchor: end" x="41.851283" y="241.222862" transform="rotate(-0 41.851283 241.222862)">−0.2</text>
     </g>
    </g>
    <g id="ytick_2">
     <g id="line2d_2">
      <g>
       <use xlink:href="#m7cecb875f1" x="48.851283" y="181.114567" style="stroke: #000000; stroke-width: 0.8"/>
      </g>
     </g>
     <g id="text_3">
      <text style="font: 10px 'Arial', sans-serif; text-anchor: end" x="41.851283" y="184.693474" transform="rotate(-0 41.851283 184.693474)">0.0</text>
     </g>
    </g>
    <g id="ytick_3">
     <g id="line2d_3">
      <g>
       <use xlink:href="#m7cecb875f1" x="48.851283" y="124.585179" style="stroke: #000000; stroke-width: 0.8"/>
      </g>
     </g>
     <g id="text_4">
      <text style="font: 10px 'Arial', sans-serif; text-anchor: end" x="41.851283" y="128.164085" transform="rotate(-0 41.851283 128.164085)">0.2</text>
     </g>
    </g>
    <g id="ytick_4">
     <g id="line2d_4">
      <g>
       <use xlink:href="#m7cecb875f1" x="48.851283" y="68.05579" style="stroke: #000000; stroke-width: 0.8"/>
      </g>
     </g>
     <g id="text_5">
      <text style="font: 10px 'Arial', sans-serif; text-anchor: end" x="41.851283" y="71.634697" transform="rotate(-0 41.851283 71.634697)">0.4</text>
     </g>
    </g>
    <g id="text_6">
     <text style="font: 10px 'Arial', sans-serif; text-anchor: middle" x="16.005971" y="152.31998" transform="rotate(-90 16.005971 152.31998)">Activity</text>
    </g>
   </g>
   <g id="line2d_5">
    <path d="M 48.851283 241.225395 
L 60.011283 237.252881 
L 71.171283 216.279163 
L 82.331283 195.861383 
L 93.491283 185.513423 
L 104.651283 163.453655 
L 115.811283 132.442824 
L 126.971283 101.23831 
L 138.131283 77.283991 
L 149.291283 64.971174 
L 160.451283 61.677227 
L 171.611283 63.117685 
L 182.771283 70.148347 
L 193.931283 82.074363 
L 205.091283 97.492052 
L 216.251283 120.065539 
L 227.411283 136.531583 
L 238.571283 139.987617 
L 249.731283 135.454217 
L 260.891283 132.140453 
L 272.051283 137.059469 
L 283.211283 145.830848 
L 294.371283 159.052286 
L 305.531283 174.200653 
L 316.691283 188.078956 
L 327.851283 192.108474 
L 339.011283 193.888364 
L 350.171283 195.593706 
L 361.331283 199.435647 
L 372.491283 207.396412 
L 383.651283 209.04824 
L 394.811283 211.852273 
L 405.971283 220.367332 
" clip-path="url(#p3cd02eb993)" style="fill: none; stroke: #1f77b4; stroke-width: 1.5; stroke-linecap: square"/>
   </g>
   <g id="line2d_6">
    <path d="M 48.851283 248.813362 
L 60.011283 237.758807 
L 71.171283 230.025252 
L 82.331283 215.433495 
L 93.491283 201.387924 
L 104.651283 171.315412 
L 115.811283 136.20448 
L 126.971283 110.381501 
L 138.131283 97.668028 
L 149.291283 95.763542 
L 160.451283 100.045183 
L 171.611283 113.02041 
L 182.771283 130.605251 
L 193.931283 143.051614 
L 205.091283 155.32857 
L 216.251283 161.440122 
L 227.411283 163.111105 
L 238.571283 169.686418 
L 249.731283 170.938264 
L 260.891283 171.550912 
L 272.051283 181.021394 
L 283.211283 189.874113 
L 294.371283 195.336893 
L 305.531283 202.154025 
L 316.691283 208.839499 
L 327.851283 215.898973 
L 339.011283 222.956735 
L 350.171283 225.30384 
L 361.331283 229.04776 
L 372.491283 232.301043 
L 383.651283 242.226789 
L 394.811283 256.424418 
L 405.971283 260.601953 
" clip-path="url(#p3cd02eb993)" style="fill: none; stroke: #ff7f0e; stroke-width: 1.5; stroke-linecap: square"/>
   </g>
   <g id="line2d_7">
    <path d="M 82.331283 285.37598 
L 82.331283 19.26398 
" clip-path="url(#p3cd02eb993)" style="fill: none; stroke-dasharray: 5.55,2.4; stroke-dashoffset: 0; stroke: #000000; stroke-opacity: 0.5; stroke-width: 1.5"/>
   </g>
   <g id="line2d_8">
    <path d="M 383.651283 285.37598 
L 383.651283 19.26398 
" clip-path="url(#p3cd02eb993)" style="fill: none; stroke-dasharray: 5.55,2.4; stroke-dashoffset: 0; stroke: #000000; stroke-opacity: 0.5; stroke-width: 1.5"/>
   </g>
   <g id="patch_3">
    <path d="M 48.851283 285.37598 
L 405.971283 285.37598 
" style="fill: none; stroke: #000000; stroke-width: 0.8; stroke-linejoin: miter; stroke-linecap: square"/>
   </g>
   <g id="text_7">
    <text style="font: 6.94px 'Arial', sans-serif" transform="translate(10.097767 321.385533) rotate(-35)">-0.1s Sampling</text>
   </g>
   <g id="text_8">
    <text style="font: 6.94px 'Arial', sans-serif" transform="translate(57.794497 311.430872) rotate(-35)">Sampling</text>
   </g>
   <g id="text_9">
    <text style="font: 6.94px 'Arial', sans-serif" transform="translate(319.037191 339.456682) rotate(-35)">Movement to Lateral Port</text>
   </g>
   <g id="text_10">
    <text style="font: 8.33px 'Arial', sans-serif; text-anchor: middle" x="227.411283" y="13.26398" transform="rotate(-0 227.411283 13.26398)">GP4_23_s3_L50_D250_M2 - Trace:90_GP4_23_s3_L50_D250_M2 (when: correct)</text>
   </g>
   <g id="legend_1">
    <g id="patch_4">
     <path d="M 131.766697 354.133136 
L 323.055869 354.133136 
Q 324.443869 354.133136 324.443869 352.745136 
L 324.443869 343.45638 
Q 324.443869 342.06838 323.055869 342.06838 
L 131.766697 342.06838 
Q 130.378697 342.06838 130.378697 343.45638 
L 130.378697 352.745136 
Q 130.378697 354.133136 131.766697 354.133136 
z
" style="fill: #ffffff; opacity: 0.8; stroke: #cccccc; stroke-linejoin: miter"/>
    </g>
    <g id="line2d_9">
     <path d="M 133.154697 347.467483 
L 140.094697 347.467483 
L 147.034697 347.467483 
" style="fill: none; stroke: #1f77b4; stroke-width: 1.5; stroke-linecap: square"/>
    </g>
    <g id="text_11">
     <text style="font: 6.94px 'Arial', sans-serif; text-anchor: start" x="152.586697" y="349.896483" transform="rotate(-0 152.586697 349.896483)">DecisionRight (102 pts)</text>
    </g>
    <g id="line2d_10">
     <path d="M 238.5939 347.467483 
L 245.5339 347.467483 
L 252.4739 347.467483 
" style="fill: none; stroke: #ff7f0e; stroke-width: 1.5; stroke-linecap: square"/>
    </g>
    <g id="text_12">
     <text style="font: 6.94px 'Arial', sans-serif; text-anchor: start" x="258.0259" y="349.896483" transform="rotate(-0 258.0259 349.896483)">DecisionLeft (90 pts)</text>
    </g>
   </g>
  </g>
 </g>
 <defs>
  <clipPath id="p3cd02eb993">
   <rect x="48.851283" y="19.26398" width="357.12" height="266.112"/>
  </clipPath>
 </defs>
</svg>
