<?xml version="1.0" encoding="utf-8" standalone="no"?>
<!DOCTYPE svg PUBLIC "-//W3C//DTD SVG 1.1//EN"
  "http://www.w3.org/Graphics/SVG/1.1/DTD/svg11.dtd">
<svg xmlns:xlink="http://www.w3.org/1999/xlink" width="413.171283pt" height="361.333136pt" viewBox="0 0 413.171283 361.333136" xmlns="http://www.w3.org/2000/svg" version="1.1">
 <metadata>
  <rdf:RDF xmlns:dc="http://purl.org/dc/elements/1.1/" xmlns:cc="http://creativecommons.org/ns#" xmlns:rdf="http://www.w3.org/1999/02/22-rdf-syntax-ns#">
   <cc:Work>
    <dc:type rdf:resource="http://purl.org/dc/dcmitype/StillImage"/>
    <dc:date>2025-12-29T04:07:26.939932</dc:date>
    <dc:format>image/svg+xml</dc:format>
    <dc:creator>
     <cc:Agent>
      <dc:title>Matplotlib v3.8.0, https://matplotlib.org/</dc:title>
     </cc:Agent>
    </dc:creator>
   </cc:Work>
  </rdf:RDF>
 </metadata>
 <defs>
  <style type="text/css">*{stroke-linejoin: round; stroke-linecap: butt}</style>
 </defs>
 <g id="figure_1">
  <g id="patch_1">
   <path d="M 0 361.333136 
L 413.171283 361.333136 
L 413.171283 -0 
L 0 -0 
z
" style="fill: #ffffff"/>
  </g>
  <g id="axes_1">
   <g id="patch_2">
    <path d="M 48.851283 285.37598 
L 405.971283 285.37598 
L 405.971283 19.26398 
L 48.851283 19.26398 
z
" style="fill: #ffffff"/>
   </g>
   <g id="PolyCollection_1">
    <defs>
     <path id="mb782dff245" d="M 48.851283 -170.646926 
L 48.851283 -141.955205 
L 60.011283 -167.420407 
L 71.171283 -185.984467 
L 82.331283 -198.101626 
L 93.491283 -197.413556 
L 104.651283 -181.777926 
L 115.811283 -172.779423 
L 126.971283 -186.149882 
L 138.131283 -198.390671 
L 149.291283 -194.871029 
L 160.451283 -186.999808 
L 171.611283 -185.684934 
L 182.771283 -179.331498 
L 193.931283 -168.231772 
L 205.091283 -160.062716 
L 216.251283 -143.58584 
L 227.411283 -129.385421 
L 238.571283 -127.78374 
L 249.731283 -126.104723 
L 260.891283 -119.487939 
L 272.051283 -110.502614 
L 283.211283 -101.200202 
L 294.371283 -97.202163 
L 305.531283 -109.656593 
L 316.691283 -114.515127 
L 327.851283 -100.90531 
L 339.011283 -98.064668 
L 350.171283 -92.445513 
L 361.331283 -93.029787 
L 372.491283 -100.771663 
L 383.651283 -96.968015 
L 394.811283 -88.053156 
L 405.971283 -89.439675 
L 405.971283 -110.319114 
L 405.971283 -110.319114 
L 394.811283 -105.870316 
L 383.651283 -116.662539 
L 372.491283 -123.171864 
L 361.331283 -113.539344 
L 350.171283 -113.143744 
L 339.011283 -122.013361 
L 327.851283 -126.299339 
L 316.691283 -140.15196 
L 305.531283 -134.77782 
L 294.371283 -123.033233 
L 283.211283 -126.355189 
L 272.051283 -134.605789 
L 260.891283 -147.284954 
L 249.731283 -158.797345 
L 238.571283 -162.400919 
L 227.411283 -164.574979 
L 216.251283 -178.0096 
L 205.091283 -195.379142 
L 193.931283 -206.370442 
L 182.771283 -217.953664 
L 171.611283 -223.864671 
L 160.451283 -225.304333 
L 149.291283 -234.248953 
L 138.131283 -238.949005 
L 126.971283 -226.71065 
L 115.811283 -217.192404 
L 104.651283 -232.897985 
L 93.491283 -255.653046 
L 82.331283 -256.051963 
L 71.171283 -231.500401 
L 60.011283 -201.689244 
L 48.851283 -170.646926 
z
" style="stroke: #1f77b4; stroke-opacity: 0.2"/>
    </defs>
    <g clip-path="url(#p3063a7ba48)">
     <use xlink:href="#mb782dff245" x="0" y="361.333136" style="fill: #1f77b4; fill-opacity: 0.2; stroke: #1f77b4; stroke-opacity: 0.2"/>
    </g>
   </g>
   <g id="PolyCollection_2">
    <defs>
     <path id="md231a33411" d="M 48.851283 -268.256135 
L 48.851283 -211.67459 
L 60.011283 -229.343911 
L 71.171283 -243.24141 
L 82.331283 -257.002665 
L 93.491283 -260.957786 
L 104.651283 -248.52982 
L 115.811283 -239.249987 
L 126.971283 -236.229723 
L 138.131283 -230.266608 
L 149.291283 -220.386762 
L 160.451283 -213.144913 
L 171.611283 -211.231731 
L 182.771283 -206.081277 
L 193.931283 -195.230797 
L 205.091283 -186.164087 
L 216.251283 -180.967573 
L 227.411283 -170.168021 
L 238.571283 -159.916926 
L 249.731283 -161.53816 
L 260.891283 -161.403224 
L 272.051283 -161.388331 
L 283.211283 -158.97375 
L 294.371283 -149.836971 
L 305.531283 -146.398338 
L 316.691283 -150.760913 
L 327.851283 -151.330767 
L 339.011283 -152.779237 
L 350.171283 -145.751438 
L 361.331283 -140.578264 
L 372.491283 -143.404675 
L 383.651283 -134.719463 
L 394.811283 -121.574706 
L 405.971283 -110.531574 
L 405.971283 -134.780309 
L 405.971283 -134.780309 
L 394.811283 -146.46564 
L 383.651283 -162.587249 
L 372.491283 -174.538617 
L 361.331283 -173.968692 
L 350.171283 -179.90458 
L 339.011283 -186.510704 
L 327.851283 -184.674471 
L 316.691283 -186.350085 
L 305.531283 -186.268995 
L 294.371283 -195.124139 
L 283.211283 -205.876519 
L 272.051283 -206.879368 
L 260.891283 -206.531469 
L 249.731283 -206.228125 
L 238.571283 -203.074285 
L 227.411283 -211.98565 
L 216.251283 -223.591464 
L 205.091283 -231.935319 
L 193.931283 -244.639175 
L 182.771283 -259.681517 
L 171.611283 -264.730411 
L 160.451283 -265.684767 
L 149.291283 -274.937963 
L 138.131283 -290.229949 
L 126.971283 -301.114709 
L 115.811283 -308.367833 
L 104.651283 -319.27564 
L 93.491283 -329.973156 
L 82.331283 -322.129514 
L 71.171283 -305.083322 
L 60.011283 -289.863787 
L 48.851283 -268.256135 
z
" style="stroke: #ff7f0e; stroke-opacity: 0.2"/>
    </defs>
    <g clip-path="url(#p3063a7ba48)">
     <use xlink:href="#md231a33411" x="0" y="361.333136" style="fill: #ff7f0e; fill-opacity: 0.2; stroke: #ff7f0e; stroke-opacity: 0.2"/>
    </g>
   </g>
   <g id="matplotlib.axis_1">
    <g id="text_1">
     <text style="font: 10px 'Arial', sans-serif; text-anchor: middle" x="227.411283" y="296.533792" transform="rotate(-0 227.411283 296.533792)">Time</text>
    </g>
   </g>
   <g id="matplotlib.axis_2">
    <g id="ytick_1">
     <g id="line2d_1">
      <defs>
       <path id="mc89c2da29a" d="M 0 0 
L -3.5 0 
" style="stroke: #000000; stroke-width: 0.8"/>
      </defs>
      <g>
       <use xlink:href="#mc89c2da29a" x="48.851283" y="268.751572" style="stroke: #000000; stroke-width: 0.8"/>
      </g>
     </g>
     <g id="text_2">
      <text style="font: 10px 'Arial', sans-serif; text-anchor: end" x="41.851283" y="272.330478" transform="rotate(-0 41.851283 272.330478)">−0.6</text>
     </g>
    </g>
    <g id="ytick_2">
     <g id="line2d_2">
      <g>
       <use xlink:href="#mc89c2da29a" x="48.851283" y="229.073388" style="stroke: #000000; stroke-width: 0.8"/>
      </g>
     </g>
     <g id="text_3">
      <text style="font: 10px 'Arial', sans-serif; text-anchor: end" x="41.851283" y="232.652294" transform="rotate(-0 41.851283 232.652294)">−0.4</text>
     </g>
    </g>
    <g id="ytick_3">
     <g id="line2d_3">
      <g>
       <use xlink:href="#mc89c2da29a" x="48.851283" y="189.395204" style="stroke: #000000; stroke-width: 0.8"/>
      </g>
     </g>
     <g id="text_4">
      <text style="font: 10px 'Arial', sans-serif; text-anchor: end" x="41.851283" y="192.974111" transform="rotate(-0 41.851283 192.974111)">−0.2</text>
     </g>
    </g>
    <g id="ytick_4">
     <g id="line2d_4">
      <g>
       <use xlink:href="#mc89c2da29a" x="48.851283" y="149.717021" style="stroke: #000000; stroke-width: 0.8"/>
      </g>
     </g>
     <g id="text_5">
      <text style="font: 10px 'Arial', sans-serif; text-anchor: end" x="41.851283" y="153.295927" transform="rotate(-0 41.851283 153.295927)">0.0</text>
     </g>
    </g>
    <g id="ytick_5">
     <g id="line2d_5">
      <g>
       <use xlink:href="#mc89c2da29a" x="48.851283" y="110.038837" style="stroke: #000000; stroke-width: 0.8"/>
      </g>
     </g>
     <g id="text_6">
      <text style="font: 10px 'Arial', sans-serif; text-anchor: end" x="41.851283" y="113.617743" transform="rotate(-0 41.851283 113.617743)">0.2</text>
     </g>
    </g>
    <g id="ytick_6">
     <g id="line2d_6">
      <g>
       <use xlink:href="#mc89c2da29a" x="48.851283" y="70.360654" style="stroke: #000000; stroke-width: 0.8"/>
      </g>
     </g>
     <g id="text_7">
      <text style="font: 10px 'Arial', sans-serif; text-anchor: end" x="41.851283" y="73.93956" transform="rotate(-0 41.851283 73.93956)">0.4</text>
     </g>
    </g>
    <g id="ytick_7">
     <g id="line2d_7">
      <g>
       <use xlink:href="#mc89c2da29a" x="48.851283" y="30.68247" style="stroke: #000000; stroke-width: 0.8"/>
      </g>
     </g>
     <g id="text_8">
      <text style="font: 10px 'Arial', sans-serif; text-anchor: end" x="41.851283" y="34.261376" transform="rotate(-0 41.851283 34.261376)">0.6</text>
     </g>
    </g>
    <g id="text_9">
     <text style="font: 10px 'Arial', sans-serif; text-anchor: middle" x="16.005971" y="152.31998" transform="rotate(-90 16.005971 152.31998)">Activity</text>
    </g>
   </g>
   <g id="line2d_8">
    <path d="M 48.851283 205.032071 
L 60.011283 176.77831 
L 71.171283 152.590702 
L 82.331283 134.25634 
L 93.491283 134.799835 
L 104.651283 153.995181 
L 115.811283 166.347222 
L 126.971283 154.902869 
L 138.131283 142.663299 
L 149.291283 146.773145 
L 160.451283 155.181066 
L 171.611283 156.558333 
L 182.771283 162.690555 
L 193.931283 174.032029 
L 205.091283 183.612208 
L 216.251283 200.535418 
L 227.411283 214.352936 
L 238.571283 216.240806 
L 249.731283 218.882102 
L 260.891283 227.946689 
L 272.051283 238.778934 
L 283.211283 247.555441 
L 294.371283 251.215438 
L 305.531283 239.11593 
L 316.691283 233.999592 
L 327.851283 247.730811 
L 339.011283 251.294122 
L 350.171283 258.538507 
L 361.331283 258.048573 
L 372.491283 249.361369 
L 383.651283 254.517859 
L 394.811283 264.3714 
L 405.971283 261.453742 
" clip-path="url(#p3063a7ba48)" style="fill: none; stroke: #1f77b4; stroke-width: 1.5; stroke-linecap: square"/>
   </g>
   <g id="line2d_9">
    <path d="M 48.851283 121.367774 
L 60.011283 101.729285 
L 71.171283 87.17077 
L 82.331283 71.767043 
L 93.491283 65.867665 
L 104.651283 77.430406 
L 115.811283 87.524226 
L 126.971283 92.66092 
L 138.131283 101.084857 
L 149.291283 113.670773 
L 160.451283 121.918296 
L 171.611283 123.352065 
L 182.771283 128.45174 
L 193.931283 141.398149 
L 205.091283 152.283433 
L 216.251283 159.053618 
L 227.411283 170.2563 
L 238.571283 179.837529 
L 249.731283 177.449992 
L 260.891283 177.365789 
L 272.051283 177.199287 
L 283.211283 178.908 
L 294.371283 188.852581 
L 305.531283 194.999469 
L 316.691283 192.777637 
L 327.851283 193.330518 
L 339.011283 191.688165 
L 350.171283 198.505127 
L 361.331283 204.059658 
L 372.491283 202.36149 
L 383.651283 212.679778 
L 394.811283 227.312963 
L 405.971283 238.677192 
" clip-path="url(#p3063a7ba48)" style="fill: none; stroke: #ff7f0e; stroke-width: 1.5; stroke-linecap: square"/>
   </g>
   <g id="line2d_10">
    <path d="M 82.331283 285.37598 
L 82.331283 19.26398 
" clip-path="url(#p3063a7ba48)" style="fill: none; stroke-dasharray: 5.55,2.4; stroke-dashoffset: 0; stroke: #000000; stroke-opacity: 0.5; stroke-width: 1.5"/>
   </g>
   <g id="line2d_11">
    <path d="M 383.651283 285.37598 
L 383.651283 19.26398 
" clip-path="url(#p3063a7ba48)" style="fill: none; stroke-dasharray: 5.55,2.4; stroke-dashoffset: 0; stroke: #000000; stroke-opacity: 0.5; stroke-width: 1.5"/>
   </g>
   <g id="patch_3">
    <path d="M 48.851283 285.37598 
L 405.971283 285.37598 
" style="fill: none; stroke: #000000; stroke-width: 0.8; stroke-linejoin: miter; stroke-linecap: square"/>
   </g>
   <g id="text_10">
    <text style="font: 6.94px 'Arial', sans-serif" transform="translate(10.097767 321.385533) rotate(-35)">-0.1s Sampling</text>
   </g>
   <g id="text_11">
    <text style="font: 6.94px 'Arial', sans-serif" transform="translate(57.794497 311.430872) rotate(-35)">Sampling</text>
   </g>
   <g id="text_12">
    <text style="font: 6.94px 'Arial', sans-serif" transform="translate(319.037191 339.456682) rotate(-35)">Movement to Lateral Port</text>
   </g>
   <g id="text_13">
    <text style="font: 8.33px 'Arial', sans-serif; text-anchor: middle" x="227.411283" y="13.26398" transform="rotate(-0 227.411283 13.26398)">GP4_28_S4_L40_D250_M2L - Trace:20_GP4_28_S4_L40_D250_M2L (when: correct)</text>
   </g>
   <g id="legend_1">
    <g id="patch_4">
     <path d="M 133.696342 354.133136 
L 321.126224 354.133136 
Q 322.514224 354.133136 322.514224 352.745136 
L 322.514224 343.45638 
Q 322.514224 342.06838 321.126224 342.06838 
L 133.696342 342.06838 
Q 132.308342 342.06838 132.308342 343.45638 
L 132.308342 352.745136 
Q 132.308342 354.133136 133.696342 354.133136 
z
" style="fill: #ffffff; opacity: 0.8; stroke: #cccccc; stroke-linejoin: miter"/>
    </g>
    <g id="line2d_12">
     <path d="M 135.084342 347.467483 
L 142.024342 347.467483 
L 148.964342 347.467483 
" style="fill: none; stroke: #1f77b4; stroke-width: 1.5; stroke-linecap: square"/>
    </g>
    <g id="text_14">
     <text style="font: 6.94px 'Arial', sans-serif; text-anchor: start" x="154.516342" y="349.896483" transform="rotate(-0 154.516342 349.896483)">DecisionRight (45 pts)</text>
    </g>
    <g id="line2d_13">
     <path d="M 236.664255 347.467483 
L 243.604255 347.467483 
L 250.544255 347.467483 
" style="fill: none; stroke: #ff7f0e; stroke-width: 1.5; stroke-linecap: square"/>
    </g>
    <g id="text_15">
     <text style="font: 6.94px 'Arial', sans-serif; text-anchor: start" x="256.096255" y="349.896483" transform="rotate(-0 256.096255 349.896483)">DecisionLeft (47 pts)</text>
    </g>
   </g>
  </g>
 </g>
 <defs>
  <clipPath id="p3063a7ba48">
   <rect x="48.851283" y="19.26398" width="357.12" height="266.112"/>
  </clipPath>
 </defs>
</svg>
