<?xml version="1.0" encoding="utf-8" standalone="no"?>
<!DOCTYPE svg PUBLIC "-//W3C//DTD SVG 1.1//EN"
  "http://www.w3.org/Graphics/SVG/1.1/DTD/svg11.dtd">
<svg xmlns:xlink="http://www.w3.org/1999/xlink" width="413.171283pt" height="361.333136pt" viewBox="0 0 413.171283 361.333136" xmlns="http://www.w3.org/2000/svg" version="1.1">
 <metadata>
  <rdf:RDF xmlns:dc="http://purl.org/dc/elements/1.1/" xmlns:cc="http://creativecommons.org/ns#" xmlns:rdf="http://www.w3.org/1999/02/22-rdf-syntax-ns#">
   <cc:Work>
    <dc:type rdf:resource="http://purl.org/dc/dcmitype/StillImage"/>
    <dc:date>2025-12-29T04:07:27.168888</dc:date>
    <dc:format>image/svg+xml</dc:format>
    <dc:creator>
     <cc:Agent>
      <dc:title>Matplotlib v3.8.0, https://matplotlib.org/</dc:title>
     </cc:Agent>
    </dc:creator>
   </cc:Work>
  </rdf:RDF>
 </metadata>
 <defs>
  <style type="text/css">*{stroke-linejoin: round; stroke-linecap: butt}</style>
 </defs>
 <g id="figure_1">
  <g id="patch_1">
   <path d="M 0 361.333136 
L 413.171283 361.333136 
L 413.171283 -0 
L 0 -0 
z
" style="fill: #ffffff"/>
  </g>
  <g id="axes_1">
   <g id="patch_2">
    <path d="M 48.851283 285.37598 
L 405.971283 285.37598 
L 405.971283 19.26398 
L 48.851283 19.26398 
z
" style="fill: #ffffff"/>
   </g>
   <g id="PolyCollection_1">
    <defs>
     <path id="m631ffd7892" d="M 48.851283 -145.615247 
L 48.851283 -107.635623 
L 60.011283 -99.356658 
L 71.171283 -88.053156 
L 82.331283 -89.948192 
L 93.491283 -99.664707 
L 104.651283 -116.489194 
L 115.811283 -114.524121 
L 126.971283 -92.805818 
L 138.131283 -101.565104 
L 149.291283 -113.705781 
L 160.451283 -121.094213 
L 171.611283 -108.181272 
L 182.771283 -109.689577 
L 193.931283 -124.991092 
L 205.091283 -134.482371 
L 216.251283 -135.774406 
L 227.411283 -155.606679 
L 238.571283 -165.349974 
L 249.731283 -155.401193 
L 260.891283 -144.43874 
L 272.051283 -145.714601 
L 283.211283 -150.804966 
L 294.371283 -157.421358 
L 305.531283 -179.001426 
L 316.691283 -187.808465 
L 327.851283 -187.790345 
L 339.011283 -188.126315 
L 350.171283 -188.654381 
L 361.331283 -203.078463 
L 372.491283 -226.552685 
L 383.651283 -226.508075 
L 394.811283 -212.720437 
L 405.971283 -224.611957 
L 405.971283 -273.740845 
L 405.971283 -273.740845 
L 394.811283 -261.655899 
L 383.651283 -275.179784 
L 372.491283 -274.790826 
L 361.331283 -246.199136 
L 350.171283 -229.205019 
L 339.011283 -226.96131 
L 327.851283 -226.357941 
L 316.691283 -224.869742 
L 305.531283 -215.14321 
L 294.371283 -190.318489 
L 283.211283 -181.957525 
L 272.051283 -174.199943 
L 260.891283 -169.039347 
L 249.731283 -188.829276 
L 238.571283 -201.780205 
L 227.411283 -189.521466 
L 216.251283 -170.337591 
L 205.091283 -164.36515 
L 193.931283 -156.465281 
L 182.771283 -144.163757 
L 171.611283 -146.644174 
L 160.451283 -160.03878 
L 149.291283 -147.955535 
L 138.131283 -135.978032 
L 126.971283 -128.559784 
L 115.811283 -150.429683 
L 104.651283 -153.425719 
L 93.491283 -136.594097 
L 82.331283 -129.19294 
L 71.171283 -126.787357 
L 60.011283 -138.081383 
L 48.851283 -145.615247 
z
" style="stroke: #1f77b4; stroke-opacity: 0.2"/>
    </defs>
    <g clip-path="url(#p4e1842d5de)">
     <use xlink:href="#m631ffd7892" x="0" y="361.333136" style="fill: #1f77b4; fill-opacity: 0.2; stroke: #1f77b4; stroke-opacity: 0.2"/>
    </g>
   </g>
   <g id="PolyCollection_2">
    <defs>
     <path id="m2a1409ef59" d="M 48.851283 -145.134948 
L 48.851283 -107.396666 
L 60.011283 -108.558079 
L 71.171283 -108.095658 
L 82.331283 -103.073332 
L 93.491283 -99.874351 
L 104.651283 -105.456118 
L 115.811283 -103.935214 
L 126.971283 -106.986651 
L 138.131283 -110.125857 
L 149.291283 -116.744537 
L 160.451283 -136.150715 
L 171.611283 -148.943806 
L 182.771283 -142.34858 
L 193.931283 -147.940895 
L 205.091283 -162.018956 
L 216.251283 -166.889977 
L 227.411283 -169.225787 
L 238.571283 -176.176762 
L 249.731283 -177.598596 
L 260.891283 -175.099043 
L 272.051283 -189.110238 
L 283.211283 -206.599036 
L 294.371283 -209.098877 
L 305.531283 -211.887755 
L 316.691283 -219.422547 
L 327.851283 -222.025618 
L 339.011283 -238.524331 
L 350.171283 -256.219788 
L 361.331283 -263.529653 
L 372.491283 -254.468226 
L 383.651283 -223.564877 
L 394.811283 -202.606586 
L 405.971283 -198.451448 
L 405.971283 -253.75216 
L 405.971283 -253.75216 
L 394.811283 -256.31067 
L 383.651283 -281.492789 
L 372.491283 -323.808461 
L 361.331283 -329.973156 
L 350.171283 -323.091536 
L 339.011283 -306.248332 
L 327.851283 -286.445055 
L 316.691283 -281.19339 
L 305.531283 -270.723415 
L 294.371283 -263.58022 
L 283.211283 -261.144651 
L 272.051283 -244.394983 
L 260.891283 -234.685982 
L 249.731283 -234.482326 
L 238.571283 -225.536048 
L 227.411283 -214.362477 
L 216.251283 -207.322101 
L 205.091283 -201.573197 
L 193.931283 -185.0626 
L 182.771283 -173.922518 
L 171.611283 -182.845124 
L 160.451283 -172.477955 
L 149.291283 -154.455989 
L 138.131283 -146.149292 
L 126.971283 -138.157143 
L 115.811283 -131.175887 
L 104.651283 -135.414767 
L 93.491283 -135.121304 
L 82.331283 -140.616774 
L 71.171283 -147.501332 
L 60.011283 -148.178747 
L 48.851283 -145.134948 
z
" style="stroke: #ff7f0e; stroke-opacity: 0.2"/>
    </defs>
    <g clip-path="url(#p4e1842d5de)">
     <use xlink:href="#m2a1409ef59" x="0" y="361.333136" style="fill: #ff7f0e; fill-opacity: 0.2; stroke: #ff7f0e; stroke-opacity: 0.2"/>
    </g>
   </g>
   <g id="matplotlib.axis_1">
    <g id="text_1">
     <text style="font: 10px 'Arial', sans-serif; text-anchor: middle" x="227.411283" y="296.533792" transform="rotate(-0 227.411283 296.533792)">Time</text>
    </g>
   </g>
   <g id="matplotlib.axis_2">
    <g id="ytick_1">
     <g id="line2d_1">
      <defs>
       <path id="mee60f3c2d4" d="M 0 0 
L -3.5 0 
" style="stroke: #000000; stroke-width: 0.8"/>
      </defs>
      <g>
       <use xlink:href="#mee60f3c2d4" x="48.851283" y="280.292022" style="stroke: #000000; stroke-width: 0.8"/>
      </g>
     </g>
     <g id="text_2">
      <text style="font: 10px 'Arial', sans-serif; text-anchor: end" x="41.851283" y="283.870928" transform="rotate(-0 41.851283 283.870928)">−0.6</text>
     </g>
    </g>
    <g id="ytick_2">
     <g id="line2d_2">
      <g>
       <use xlink:href="#mee60f3c2d4" x="48.851283" y="243.57758" style="stroke: #000000; stroke-width: 0.8"/>
      </g>
     </g>
     <g id="text_3">
      <text style="font: 10px 'Arial', sans-serif; text-anchor: end" x="41.851283" y="247.156486" transform="rotate(-0 41.851283 247.156486)">−0.4</text>
     </g>
    </g>
    <g id="ytick_3">
     <g id="line2d_3">
      <g>
       <use xlink:href="#mee60f3c2d4" x="48.851283" y="206.863138" style="stroke: #000000; stroke-width: 0.8"/>
      </g>
     </g>
     <g id="text_4">
      <text style="font: 10px 'Arial', sans-serif; text-anchor: end" x="41.851283" y="210.442044" transform="rotate(-0 41.851283 210.442044)">−0.2</text>
     </g>
    </g>
    <g id="ytick_4">
     <g id="line2d_4">
      <g>
       <use xlink:href="#mee60f3c2d4" x="48.851283" y="170.148696" style="stroke: #000000; stroke-width: 0.8"/>
      </g>
     </g>
     <g id="text_5">
      <text style="font: 10px 'Arial', sans-serif; text-anchor: end" x="41.851283" y="173.727603" transform="rotate(-0 41.851283 173.727603)">0.0</text>
     </g>
    </g>
    <g id="ytick_5">
     <g id="line2d_5">
      <g>
       <use xlink:href="#mee60f3c2d4" x="48.851283" y="133.434254" style="stroke: #000000; stroke-width: 0.8"/>
      </g>
     </g>
     <g id="text_6">
      <text style="font: 10px 'Arial', sans-serif; text-anchor: end" x="41.851283" y="137.013161" transform="rotate(-0 41.851283 137.013161)">0.2</text>
     </g>
    </g>
    <g id="ytick_6">
     <g id="line2d_6">
      <g>
       <use xlink:href="#mee60f3c2d4" x="48.851283" y="96.719813" style="stroke: #000000; stroke-width: 0.8"/>
      </g>
     </g>
     <g id="text_7">
      <text style="font: 10px 'Arial', sans-serif; text-anchor: end" x="41.851283" y="100.298719" transform="rotate(-0 41.851283 100.298719)">0.4</text>
     </g>
    </g>
    <g id="ytick_7">
     <g id="line2d_7">
      <g>
       <use xlink:href="#mee60f3c2d4" x="48.851283" y="60.005371" style="stroke: #000000; stroke-width: 0.8"/>
      </g>
     </g>
     <g id="text_8">
      <text style="font: 10px 'Arial', sans-serif; text-anchor: end" x="41.851283" y="63.584277" transform="rotate(-0 41.851283 63.584277)">0.6</text>
     </g>
    </g>
    <g id="ytick_8">
     <g id="line2d_8">
      <g>
       <use xlink:href="#mee60f3c2d4" x="48.851283" y="23.290929" style="stroke: #000000; stroke-width: 0.8"/>
      </g>
     </g>
     <g id="text_9">
      <text style="font: 10px 'Arial', sans-serif; text-anchor: end" x="41.851283" y="26.869835" transform="rotate(-0 41.851283 26.869835)">0.8</text>
     </g>
    </g>
    <g id="text_10">
     <text style="font: 10px 'Arial', sans-serif; text-anchor: middle" x="16.005971" y="152.31998" transform="rotate(-90 16.005971 152.31998)">Activity</text>
    </g>
   </g>
   <g id="line2d_9">
    <path d="M 48.851283 234.707701 
L 60.011283 242.614116 
L 71.171283 253.91288 
L 82.331283 251.762567 
L 93.491283 243.203734 
L 104.651283 226.375679 
L 115.811283 228.856236 
L 126.971283 250.650332 
L 138.131283 242.561568 
L 149.291283 230.502478 
L 160.451283 220.76664 
L 171.611283 233.920414 
L 182.771283 234.406469 
L 193.931283 220.604948 
L 205.091283 211.909375 
L 216.251283 208.277136 
L 227.411283 188.769064 
L 238.571283 177.768046 
L 249.731283 189.217902 
L 260.891283 204.594092 
L 272.051283 201.375864 
L 283.211283 194.951891 
L 294.371283 187.463213 
L 305.531283 164.260818 
L 316.691283 154.994033 
L 327.851283 154.258993 
L 339.011283 153.789324 
L 350.171283 152.403435 
L 361.331283 136.694337 
L 372.491283 110.661382 
L 383.651283 110.489208 
L 394.811283 124.144968 
L 405.971283 112.156737 
" clip-path="url(#p4e1842d5de)" style="fill: none; stroke: #1f77b4; stroke-width: 1.5; stroke-linecap: square"/>
   </g>
   <g id="line2d_10">
    <path d="M 48.851283 235.067329 
L 60.011283 232.964723 
L 71.171283 233.534641 
L 82.331283 239.488083 
L 93.491283 243.835309 
L 104.651283 240.897693 
L 115.811283 243.777585 
L 126.971283 238.761239 
L 138.131283 233.195561 
L 149.291283 225.732873 
L 160.451283 207.018802 
L 171.611283 195.43867 
L 182.771283 203.197587 
L 193.931283 194.831389 
L 205.091283 179.53706 
L 216.251283 174.227098 
L 227.411283 169.539004 
L 238.571283 160.476731 
L 249.731283 155.292676 
L 260.891283 156.440623 
L 272.051283 144.580525 
L 283.211283 127.461294 
L 294.371283 124.993586 
L 305.531283 120.027552 
L 316.691283 111.025168 
L 327.851283 107.097799 
L 339.011283 88.946804 
L 350.171283 71.677474 
L 361.331283 64.581734 
L 372.491283 72.194789 
L 383.651283 108.804303 
L 394.811283 131.874507 
L 405.971283 135.231333 
" clip-path="url(#p4e1842d5de)" style="fill: none; stroke: #ff7f0e; stroke-width: 1.5; stroke-linecap: square"/>
   </g>
   <g id="line2d_11">
    <path d="M 82.331283 285.37598 
L 82.331283 19.26398 
" clip-path="url(#p4e1842d5de)" style="fill: none; stroke-dasharray: 5.55,2.4; stroke-dashoffset: 0; stroke: #000000; stroke-opacity: 0.5; stroke-width: 1.5"/>
   </g>
   <g id="line2d_12">
    <path d="M 383.651283 285.37598 
L 383.651283 19.26398 
" clip-path="url(#p4e1842d5de)" style="fill: none; stroke-dasharray: 5.55,2.4; stroke-dashoffset: 0; stroke: #000000; stroke-opacity: 0.5; stroke-width: 1.5"/>
   </g>
   <g id="patch_3">
    <path d="M 48.851283 285.37598 
L 405.971283 285.37598 
" style="fill: none; stroke: #000000; stroke-width: 0.8; stroke-linejoin: miter; stroke-linecap: square"/>
   </g>
   <g id="text_11">
    <text style="font: 6.94px 'Arial', sans-serif" transform="translate(10.097767 321.385533) rotate(-35)">-0.1s Sampling</text>
   </g>
   <g id="text_12">
    <text style="font: 6.94px 'Arial', sans-serif" transform="translate(57.794497 311.430872) rotate(-35)">Sampling</text>
   </g>
   <g id="text_13">
    <text style="font: 6.94px 'Arial', sans-serif" transform="translate(319.037191 339.456682) rotate(-35)">Movement to Lateral Port</text>
   </g>
   <g id="text_14">
    <text style="font: 8.33px 'Arial', sans-serif; text-anchor: middle" x="227.411283" y="13.26398" transform="rotate(-0 227.411283 13.26398)">GP4_28_S4_L40_D250_M2L - Trace:48_GP4_28_S4_L40_D250_M2L (when: correct)</text>
   </g>
   <g id="legend_1">
    <g id="patch_4">
     <path d="M 133.696342 354.133136 
L 321.126224 354.133136 
Q 322.514224 354.133136 322.514224 352.745136 
L 322.514224 343.45638 
Q 322.514224 342.06838 321.126224 342.06838 
L 133.696342 342.06838 
Q 132.308342 342.06838 132.308342 343.45638 
L 132.308342 352.745136 
Q 132.308342 354.133136 133.696342 354.133136 
z
" style="fill: #ffffff; opacity: 0.8; stroke: #cccccc; stroke-linejoin: miter"/>
    </g>
    <g id="line2d_13">
     <path d="M 135.084342 347.467483 
L 142.024342 347.467483 
L 148.964342 347.467483 
" style="fill: none; stroke: #1f77b4; stroke-width: 1.5; stroke-linecap: square"/>
    </g>
    <g id="text_15">
     <text style="font: 6.94px 'Arial', sans-serif; text-anchor: start" x="154.516342" y="349.896483" transform="rotate(-0 154.516342 349.896483)">DecisionRight (45 pts)</text>
    </g>
    <g id="line2d_14">
     <path d="M 236.664255 347.467483 
L 243.604255 347.467483 
L 250.544255 347.467483 
" style="fill: none; stroke: #ff7f0e; stroke-width: 1.5; stroke-linecap: square"/>
    </g>
    <g id="text_16">
     <text style="font: 6.94px 'Arial', sans-serif; text-anchor: start" x="256.096255" y="349.896483" transform="rotate(-0 256.096255 349.896483)">DecisionLeft (47 pts)</text>
    </g>
   </g>
  </g>
 </g>
 <defs>
  <clipPath id="p4e1842d5de">
   <rect x="48.851283" y="19.26398" width="357.12" height="266.112"/>
  </clipPath>
 </defs>
</svg>
