<?xml version="1.0" encoding="utf-8" standalone="no"?>
<!DOCTYPE svg PUBLIC "-//W3C//DTD SVG 1.1//EN"
  "http://www.w3.org/Graphics/SVG/1.1/DTD/svg11.dtd">
<svg xmlns:xlink="http://www.w3.org/1999/xlink" width="413.171283pt" height="361.333136pt" viewBox="0 0 413.171283 361.333136" xmlns="http://www.w3.org/2000/svg" version="1.1">
 <metadata>
  <rdf:RDF xmlns:dc="http://purl.org/dc/elements/1.1/" xmlns:cc="http://creativecommons.org/ns#" xmlns:rdf="http://www.w3.org/1999/02/22-rdf-syntax-ns#">
   <cc:Work>
    <dc:type rdf:resource="http://purl.org/dc/dcmitype/StillImage"/>
    <dc:date>2025-12-29T04:07:26.733502</dc:date>
    <dc:format>image/svg+xml</dc:format>
    <dc:creator>
     <cc:Agent>
      <dc:title>Matplotlib v3.8.0, https://matplotlib.org/</dc:title>
     </cc:Agent>
    </dc:creator>
   </cc:Work>
  </rdf:RDF>
 </metadata>
 <defs>
  <style type="text/css">*{stroke-linejoin: round; stroke-linecap: butt}</style>
 </defs>
 <g id="figure_1">
  <g id="patch_1">
   <path d="M 0 361.333136 
L 413.171283 361.333136 
L 413.171283 -0 
L 0 -0 
z
" style="fill: #ffffff"/>
  </g>
  <g id="axes_1">
   <g id="patch_2">
    <path d="M 48.851283 285.37598 
L 405.971283 285.37598 
L 405.971283 19.26398 
L 48.851283 19.26398 
z
" style="fill: #ffffff"/>
   </g>
   <g id="PolyCollection_1">
    <defs>
     <path id="m6c4629c217" d="M 48.851283 -270.495215 
L 48.851283 -206.866664 
L 60.011283 -223.564993 
L 71.171283 -241.871807 
L 82.331283 -251.857332 
L 93.491283 -241.841966 
L 104.651283 -225.913015 
L 115.811283 -214.647724 
L 126.971283 -216.005314 
L 138.131283 -215.891226 
L 149.291283 -213.689094 
L 160.451283 -210.159447 
L 171.611283 -204.878875 
L 182.771283 -190.777275 
L 193.931283 -184.450299 
L 205.091283 -179.691561 
L 216.251283 -166.178398 
L 227.411283 -153.45391 
L 238.571283 -143.001225 
L 249.731283 -136.903264 
L 260.891283 -130.981683 
L 272.051283 -129.376721 
L 283.211283 -123.496202 
L 294.371283 -117.654641 
L 305.531283 -115.501537 
L 316.691283 -112.664819 
L 327.851283 -102.569386 
L 339.011283 -95.746655 
L 350.171283 -97.289883 
L 361.331283 -104.671077 
L 372.491283 -112.749867 
L 383.651283 -104.576465 
L 394.811283 -94.804426 
L 405.971283 -93.631864 
L 405.971283 -113.98101 
L 405.971283 -113.98101 
L 394.811283 -115.698724 
L 383.651283 -127.020008 
L 372.491283 -137.683241 
L 361.331283 -131.114613 
L 350.171283 -124.730399 
L 339.011283 -124.831144 
L 327.851283 -132.312651 
L 316.691283 -144.063888 
L 305.531283 -149.789793 
L 294.371283 -155.144601 
L 283.211283 -160.874358 
L 272.051283 -164.868258 
L 260.891283 -168.12526 
L 249.731283 -177.743312 
L 238.571283 -187.207307 
L 227.411283 -199.237282 
L 216.251283 -213.987097 
L 205.091283 -229.213297 
L 193.931283 -234.493878 
L 182.771283 -240.031902 
L 171.611283 -254.857552 
L 160.451283 -263.120688 
L 149.291283 -271.904322 
L 138.131283 -276.5544 
L 126.971283 -275.46294 
L 115.811283 -273.542887 
L 104.651283 -291.688541 
L 93.491283 -315.415978 
L 82.331283 -329.973156 
L 71.171283 -318.344118 
L 60.011283 -294.204917 
L 48.851283 -270.495215 
z
" style="stroke: #1f77b4; stroke-opacity: 0.2"/>
    </defs>
    <g clip-path="url(#p0f14e10cea)">
     <use xlink:href="#m6c4629c217" x="0" y="361.333136" style="fill: #1f77b4; fill-opacity: 0.2; stroke: #1f77b4; stroke-opacity: 0.2"/>
    </g>
   </g>
   <g id="PolyCollection_2">
    <defs>
     <path id="m9de73b6281" d="M 48.851283 -277.478099 
L 48.851283 -207.223058 
L 60.011283 -218.402503 
L 71.171283 -230.823594 
L 82.331283 -250.307875 
L 93.491283 -246.692827 
L 104.651283 -218.357914 
L 115.811283 -200.125145 
L 126.971283 -196.838149 
L 138.131283 -190.593943 
L 149.291283 -185.837991 
L 160.451283 -184.2222 
L 171.611283 -178.190634 
L 182.771283 -179.444742 
L 193.931283 -180.208851 
L 205.091283 -179.527721 
L 216.251283 -177.828122 
L 227.411283 -170.893614 
L 238.571283 -162.282604 
L 249.731283 -158.711967 
L 260.891283 -147.380526 
L 272.051283 -141.933267 
L 283.211283 -136.786108 
L 294.371283 -131.396386 
L 305.531283 -127.6187 
L 316.691283 -124.987763 
L 327.851283 -124.272935 
L 339.011283 -122.747961 
L 350.171283 -127.105115 
L 361.331283 -130.46778 
L 372.491283 -132.887047 
L 383.651283 -121.63866 
L 394.811283 -103.917503 
L 405.971283 -88.053156 
L 405.971283 -113.988946 
L 405.971283 -113.988946 
L 394.811283 -133.298051 
L 383.651283 -155.341365 
L 372.491283 -171.315238 
L 361.331283 -170.336293 
L 350.171283 -167.671399 
L 339.011283 -163.384459 
L 327.851283 -165.010926 
L 316.691283 -166.857288 
L 305.531283 -170.686855 
L 294.371283 -174.592953 
L 283.211283 -179.616623 
L 272.051283 -184.005374 
L 260.891283 -190.221106 
L 249.731283 -202.840047 
L 238.571283 -207.690342 
L 227.411283 -218.818447 
L 216.251283 -229.535397 
L 205.091283 -232.044094 
L 193.931283 -233.85604 
L 182.771283 -232.917831 
L 171.611283 -231.832733 
L 160.451283 -239.144822 
L 149.291283 -241.720128 
L 138.131283 -246.905814 
L 126.971283 -250.883662 
L 115.811283 -254.051449 
L 104.651283 -280.620587 
L 93.491283 -317.863765 
L 82.331283 -324.032699 
L 71.171283 -304.318033 
L 60.011283 -290.513125 
L 48.851283 -277.478099 
z
" style="stroke: #ff7f0e; stroke-opacity: 0.2"/>
    </defs>
    <g clip-path="url(#p0f14e10cea)">
     <use xlink:href="#m9de73b6281" x="0" y="361.333136" style="fill: #ff7f0e; fill-opacity: 0.2; stroke: #ff7f0e; stroke-opacity: 0.2"/>
    </g>
   </g>
   <g id="matplotlib.axis_1">
    <g id="text_1">
     <text style="font: 10px 'Arial', sans-serif; text-anchor: middle" x="227.411283" y="296.533792" transform="rotate(-0 227.411283 296.533792)">Time</text>
    </g>
   </g>
   <g id="matplotlib.axis_2">
    <g id="ytick_1">
     <g id="line2d_1">
      <defs>
       <path id="m4a7d60bb03" d="M 0 0 
L -3.5 0 
" style="stroke: #000000; stroke-width: 0.8"/>
      </defs>
      <g>
       <use xlink:href="#m4a7d60bb03" x="48.851283" y="266.495683" style="stroke: #000000; stroke-width: 0.8"/>
      </g>
     </g>
     <g id="text_2">
      <text style="font: 10px 'Arial', sans-serif; text-anchor: end" x="41.851283" y="270.074589" transform="rotate(-0 41.851283 270.074589)">−0.4</text>
     </g>
    </g>
    <g id="ytick_2">
     <g id="line2d_2">
      <g>
       <use xlink:href="#m4a7d60bb03" x="48.851283" y="236.845239" style="stroke: #000000; stroke-width: 0.8"/>
      </g>
     </g>
     <g id="text_3">
      <text style="font: 10px 'Arial', sans-serif; text-anchor: end" x="41.851283" y="240.424145" transform="rotate(-0 41.851283 240.424145)">−0.2</text>
     </g>
    </g>
    <g id="ytick_3">
     <g id="line2d_3">
      <g>
       <use xlink:href="#m4a7d60bb03" x="48.851283" y="207.194796" style="stroke: #000000; stroke-width: 0.8"/>
      </g>
     </g>
     <g id="text_4">
      <text style="font: 10px 'Arial', sans-serif; text-anchor: end" x="41.851283" y="210.773702" transform="rotate(-0 41.851283 210.773702)">0.0</text>
     </g>
    </g>
    <g id="ytick_4">
     <g id="line2d_4">
      <g>
       <use xlink:href="#m4a7d60bb03" x="48.851283" y="177.544352" style="stroke: #000000; stroke-width: 0.8"/>
      </g>
     </g>
     <g id="text_5">
      <text style="font: 10px 'Arial', sans-serif; text-anchor: end" x="41.851283" y="181.123258" transform="rotate(-0 41.851283 181.123258)">0.2</text>
     </g>
    </g>
    <g id="ytick_5">
     <g id="line2d_5">
      <g>
       <use xlink:href="#m4a7d60bb03" x="48.851283" y="147.893909" style="stroke: #000000; stroke-width: 0.8"/>
      </g>
     </g>
     <g id="text_6">
      <text style="font: 10px 'Arial', sans-serif; text-anchor: end" x="41.851283" y="151.472815" transform="rotate(-0 41.851283 151.472815)">0.4</text>
     </g>
    </g>
    <g id="ytick_6">
     <g id="line2d_6">
      <g>
       <use xlink:href="#m4a7d60bb03" x="48.851283" y="118.243465" style="stroke: #000000; stroke-width: 0.8"/>
      </g>
     </g>
     <g id="text_7">
      <text style="font: 10px 'Arial', sans-serif; text-anchor: end" x="41.851283" y="121.822371" transform="rotate(-0 41.851283 121.822371)">0.6</text>
     </g>
    </g>
    <g id="ytick_7">
     <g id="line2d_7">
      <g>
       <use xlink:href="#m4a7d60bb03" x="48.851283" y="88.593022" style="stroke: #000000; stroke-width: 0.8"/>
      </g>
     </g>
     <g id="text_8">
      <text style="font: 10px 'Arial', sans-serif; text-anchor: end" x="41.851283" y="92.171928" transform="rotate(-0 41.851283 92.171928)">0.8</text>
     </g>
    </g>
    <g id="ytick_8">
     <g id="line2d_8">
      <g>
       <use xlink:href="#m4a7d60bb03" x="48.851283" y="58.942578" style="stroke: #000000; stroke-width: 0.8"/>
      </g>
     </g>
     <g id="text_9">
      <text style="font: 10px 'Arial', sans-serif; text-anchor: end" x="41.851283" y="62.521485" transform="rotate(-0 41.851283 62.521485)">1.0</text>
     </g>
    </g>
    <g id="ytick_9">
     <g id="line2d_9">
      <g>
       <use xlink:href="#m4a7d60bb03" x="48.851283" y="29.292135" style="stroke: #000000; stroke-width: 0.8"/>
      </g>
     </g>
     <g id="text_10">
      <text style="font: 10px 'Arial', sans-serif; text-anchor: end" x="41.851283" y="32.871041" transform="rotate(-0 41.851283 32.871041)">1.2</text>
     </g>
    </g>
    <g id="text_11">
     <text style="font: 10px 'Arial', sans-serif; text-anchor: middle" x="16.005971" y="152.31998" transform="rotate(-90 16.005971 152.31998)">Activity</text>
    </g>
   </g>
   <g id="line2d_10">
    <path d="M 48.851283 122.652196 
L 60.011283 102.448181 
L 71.171283 81.225173 
L 82.331283 70.417887 
L 93.491283 82.704168 
L 104.651283 102.532358 
L 115.811283 117.23783 
L 126.971283 115.599009 
L 138.131283 115.110323 
L 149.291283 118.536428 
L 160.451283 124.69307 
L 171.611283 131.46492 
L 182.771283 145.928546 
L 193.931283 151.861046 
L 205.091283 156.880707 
L 216.251283 171.25039 
L 227.411283 184.987539 
L 238.571283 196.22887 
L 249.731283 204.009847 
L 260.891283 211.779664 
L 272.051283 214.210646 
L 283.211283 219.147856 
L 294.371283 224.933515 
L 305.531283 228.68747 
L 316.691283 232.968782 
L 327.851283 243.892117 
L 339.011283 251.044236 
L 350.171283 250.322995 
L 361.331283 243.440291 
L 372.491283 236.116582 
L 383.651283 245.5349 
L 394.811283 256.081561 
L 405.971283 257.526699 
" clip-path="url(#p0f14e10cea)" style="fill: none; stroke: #1f77b4; stroke-width: 1.5; stroke-linecap: square"/>
   </g>
   <g id="line2d_11">
    <path d="M 48.851283 118.982557 
L 60.011283 106.875322 
L 71.171283 93.762323 
L 82.331283 74.162849 
L 93.491283 79.054844 
L 104.651283 111.843885 
L 115.811283 134.244837 
L 126.971283 137.47223 
L 138.131283 142.583256 
L 149.291283 147.554077 
L 160.451283 149.649623 
L 171.611283 156.321452 
L 182.771283 155.15185 
L 193.931283 154.30069 
L 205.091283 155.547227 
L 216.251283 157.651375 
L 227.411283 166.477107 
L 238.571283 176.346663 
L 249.731283 180.55713 
L 260.891283 192.53232 
L 272.051283 198.363816 
L 283.211283 203.131771 
L 294.371283 208.338467 
L 305.531283 212.180358 
L 316.691283 215.41061 
L 327.851283 216.691206 
L 339.011283 218.266926 
L 350.171283 213.944879 
L 361.331283 210.931099 
L 372.491283 209.231994 
L 383.651283 222.843123 
L 394.811283 242.725359 
L 405.971283 260.312085 
" clip-path="url(#p0f14e10cea)" style="fill: none; stroke: #ff7f0e; stroke-width: 1.5; stroke-linecap: square"/>
   </g>
   <g id="line2d_12">
    <path d="M 82.331283 285.37598 
L 82.331283 19.26398 
" clip-path="url(#p0f14e10cea)" style="fill: none; stroke-dasharray: 5.55,2.4; stroke-dashoffset: 0; stroke: #000000; stroke-opacity: 0.5; stroke-width: 1.5"/>
   </g>
   <g id="line2d_13">
    <path d="M 383.651283 285.37598 
L 383.651283 19.26398 
" clip-path="url(#p0f14e10cea)" style="fill: none; stroke-dasharray: 5.55,2.4; stroke-dashoffset: 0; stroke: #000000; stroke-opacity: 0.5; stroke-width: 1.5"/>
   </g>
   <g id="patch_3">
    <path d="M 48.851283 285.37598 
L 405.971283 285.37598 
" style="fill: none; stroke: #000000; stroke-width: 0.8; stroke-linejoin: miter; stroke-linecap: square"/>
   </g>
   <g id="text_12">
    <text style="font: 6.94px 'Arial', sans-serif" transform="translate(10.097767 321.385533) rotate(-35)">-0.1s Sampling</text>
   </g>
   <g id="text_13">
    <text style="font: 6.94px 'Arial', sans-serif" transform="translate(57.794497 311.430872) rotate(-35)">Sampling</text>
   </g>
   <g id="text_14">
    <text style="font: 6.94px 'Arial', sans-serif" transform="translate(319.037191 339.456682) rotate(-35)">Movement to Lateral Port</text>
   </g>
   <g id="text_15">
    <text style="font: 8.33px 'Arial', sans-serif; text-anchor: middle" x="227.411283" y="13.26398" transform="rotate(-0 227.411283 13.26398)">GP4_28_S4_L40_D250_M2L - Trace:4_GP4_28_S4_L40_D250_M2L (when: correct)</text>
   </g>
   <g id="legend_1">
    <g id="patch_4">
     <path d="M 133.696342 354.133136 
L 321.126224 354.133136 
Q 322.514224 354.133136 322.514224 352.745136 
L 322.514224 343.45638 
Q 322.514224 342.06838 321.126224 342.06838 
L 133.696342 342.06838 
Q 132.308342 342.06838 132.308342 343.45638 
L 132.308342 352.745136 
Q 132.308342 354.133136 133.696342 354.133136 
z
" style="fill: #ffffff; opacity: 0.8; stroke: #cccccc; stroke-linejoin: miter"/>
    </g>
    <g id="line2d_14">
     <path d="M 135.084342 347.467483 
L 142.024342 347.467483 
L 148.964342 347.467483 
" style="fill: none; stroke: #1f77b4; stroke-width: 1.5; stroke-linecap: square"/>
    </g>
    <g id="text_16">
     <text style="font: 6.94px 'Arial', sans-serif; text-anchor: start" x="154.516342" y="349.896483" transform="rotate(-0 154.516342 349.896483)">DecisionRight (45 pts)</text>
    </g>
    <g id="line2d_15">
     <path d="M 236.664255 347.467483 
L 243.604255 347.467483 
L 250.544255 347.467483 
" style="fill: none; stroke: #ff7f0e; stroke-width: 1.5; stroke-linecap: square"/>
    </g>
    <g id="text_17">
     <text style="font: 6.94px 'Arial', sans-serif; text-anchor: start" x="256.096255" y="349.896483" transform="rotate(-0 256.096255 349.896483)">DecisionLeft (47 pts)</text>
    </g>
   </g>
  </g>
 </g>
 <defs>
  <clipPath id="p0f14e10cea">
   <rect x="48.851283" y="19.26398" width="357.12" height="266.112"/>
  </clipPath>
 </defs>
</svg>
