<?xml version="1.0" encoding="utf-8" standalone="no"?>
<!DOCTYPE svg PUBLIC "-//W3C//DTD SVG 1.1//EN"
  "http://www.w3.org/Graphics/SVG/1.1/DTD/svg11.dtd">
<svg xmlns:xlink="http://www.w3.org/1999/xlink" width="413.171283pt" height="361.333136pt" viewBox="0 0 413.171283 361.333136" xmlns="http://www.w3.org/2000/svg" version="1.1">
 <metadata>
  <rdf:RDF xmlns:dc="http://purl.org/dc/elements/1.1/" xmlns:cc="http://creativecommons.org/ns#" xmlns:rdf="http://www.w3.org/1999/02/22-rdf-syntax-ns#">
   <cc:Work>
    <dc:type rdf:resource="http://purl.org/dc/dcmitype/StillImage"/>
    <dc:date>2025-12-29T04:07:25.220248</dc:date>
    <dc:format>image/svg+xml</dc:format>
    <dc:creator>
     <cc:Agent>
      <dc:title>Matplotlib v3.8.0, https://matplotlib.org/</dc:title>
     </cc:Agent>
    </dc:creator>
   </cc:Work>
  </rdf:RDF>
 </metadata>
 <defs>
  <style type="text/css">*{stroke-linejoin: round; stroke-linecap: butt}</style>
 </defs>
 <g id="figure_1">
  <g id="patch_1">
   <path d="M 0 361.333136 
L 413.171283 361.333136 
L 413.171283 -0 
L 0 -0 
z
" style="fill: #ffffff"/>
  </g>
  <g id="axes_1">
   <g id="patch_2">
    <path d="M 48.851283 285.37598 
L 405.971283 285.37598 
L 405.971283 19.26398 
L 48.851283 19.26398 
z
" style="fill: #ffffff"/>
   </g>
   <g id="PolyCollection_1">
    <defs>
     <path id="m8150e2e554" d="M 48.851283 -133.05025 
L 48.851283 -98.548641 
L 60.011283 -111.090143 
L 71.171283 -133.200976 
L 82.331283 -161.500537 
L 93.491283 -202.430619 
L 104.651283 -214.086871 
L 115.811283 -215.27077 
L 126.971283 -247.914989 
L 138.131283 -255.793916 
L 149.291283 -249.250045 
L 160.451283 -247.089359 
L 171.611283 -242.998275 
L 182.771283 -215.079991 
L 193.931283 -187.907644 
L 205.091283 -176.529608 
L 216.251283 -190.516307 
L 227.411283 -185.625627 
L 238.571283 -155.977446 
L 249.731283 -150.217247 
L 260.891283 -156.241539 
L 272.051283 -148.158686 
L 283.211283 -128.989287 
L 294.371283 -119.797719 
L 305.531283 -123.70621 
L 316.691283 -110.39542 
L 327.851283 -101.372153 
L 339.011283 -97.788197 
L 350.171283 -88.053156 
L 361.331283 -101.204766 
L 372.491283 -107.248413 
L 383.651283 -112.830604 
L 394.811283 -108.419645 
L 405.971283 -94.839137 
L 405.971283 -130.519056 
L 405.971283 -130.519056 
L 394.811283 -141.190431 
L 383.651283 -143.749209 
L 372.491283 -141.205982 
L 361.331283 -130.196481 
L 350.171283 -120.749244 
L 339.011283 -131.872153 
L 327.851283 -134.934471 
L 316.691283 -148.841961 
L 305.531283 -161.47571 
L 294.371283 -156.612012 
L 283.211283 -164.953068 
L 272.051283 -183.868395 
L 260.891283 -188.156328 
L 249.731283 -183.683773 
L 238.571283 -199.228006 
L 227.411283 -232.41516 
L 216.251283 -243.844211 
L 205.091283 -235.534261 
L 193.931283 -247.139265 
L 182.771283 -283.607376 
L 171.611283 -320.563653 
L 160.451283 -322.04363 
L 149.291283 -328.90236 
L 138.131283 -329.973156 
L 126.971283 -313.081494 
L 115.811283 -276.782648 
L 104.651283 -281.888165 
L 93.491283 -259.696683 
L 82.331283 -200.428709 
L 71.171283 -164.380841 
L 60.011283 -143.103977 
L 48.851283 -133.05025 
z
" style="stroke: #1f77b4; stroke-opacity: 0.2"/>
    </defs>
    <g clip-path="url(#pd07513028e)">
     <use xlink:href="#m8150e2e554" x="0" y="361.333136" style="fill: #1f77b4; fill-opacity: 0.2; stroke: #1f77b4; stroke-opacity: 0.2"/>
    </g>
   </g>
   <g id="PolyCollection_2">
    <defs>
     <path id="m8532071971" d="M 48.851283 -170.618809 
L 48.851283 -125.684601 
L 60.011283 -154.180722 
L 71.171283 -185.451186 
L 82.331283 -211.832634 
L 93.491283 -216.953739 
L 104.651283 -212.234573 
L 115.811283 -213.532325 
L 126.971283 -208.773726 
L 138.131283 -206.131527 
L 149.291283 -221.094099 
L 160.451283 -219.70544 
L 171.611283 -194.668729 
L 182.771283 -198.6114 
L 193.931283 -210.574469 
L 205.091283 -211.42159 
L 216.251283 -201.200529 
L 227.411283 -198.340195 
L 238.571283 -195.984828 
L 249.731283 -182.343436 
L 260.891283 -167.311659 
L 272.051283 -161.649813 
L 283.211283 -173.300784 
L 294.371283 -181.680368 
L 305.531283 -170.916455 
L 316.691283 -155.812609 
L 327.851283 -141.262134 
L 339.011283 -130.700846 
L 350.171283 -136.165115 
L 361.331283 -143.454994 
L 372.491283 -131.414561 
L 383.651283 -118.799591 
L 394.811283 -116.253451 
L 405.971283 -120.380886 
L 405.971283 -156.516305 
L 405.971283 -156.516305 
L 394.811283 -153.424013 
L 383.651283 -162.184457 
L 372.491283 -175.825381 
L 361.331283 -185.885122 
L 350.171283 -181.949812 
L 339.011283 -179.88682 
L 327.851283 -189.277611 
L 316.691283 -203.630987 
L 305.531283 -217.022472 
L 294.371283 -222.728906 
L 283.211283 -210.627777 
L 272.051283 -203.385716 
L 260.891283 -213.58776 
L 249.731283 -234.533536 
L 238.571283 -246.25261 
L 227.411283 -248.240224 
L 216.251283 -249.7304 
L 205.091283 -259.673385 
L 193.931283 -264.655874 
L 182.771283 -253.380789 
L 171.611283 -242.496289 
L 160.451283 -265.588236 
L 149.291283 -271.644339 
L 138.131283 -258.71144 
L 126.971283 -261.347538 
L 115.811283 -266.296436 
L 104.651283 -264.386016 
L 93.491283 -273.161716 
L 82.331283 -270.645171 
L 71.171283 -246.225127 
L 60.011283 -209.303567 
L 48.851283 -170.618809 
z
" style="stroke: #ff7f0e; stroke-opacity: 0.2"/>
    </defs>
    <g clip-path="url(#pd07513028e)">
     <use xlink:href="#m8532071971" x="0" y="361.333136" style="fill: #ff7f0e; fill-opacity: 0.2; stroke: #ff7f0e; stroke-opacity: 0.2"/>
    </g>
   </g>
   <g id="matplotlib.axis_1">
    <g id="text_1">
     <text style="font: 10px 'Arial', sans-serif; text-anchor: middle" x="227.411283" y="296.533792" transform="rotate(-0 227.411283 296.533792)">Time</text>
    </g>
   </g>
   <g id="matplotlib.axis_2">
    <g id="ytick_1">
     <g id="line2d_1">
      <defs>
       <path id="m3e81740a51" d="M 0 0 
L -3.5 0 
" style="stroke: #000000; stroke-width: 0.8"/>
      </defs>
      <g>
       <use xlink:href="#m3e81740a51" x="48.851283" y="253.242097" style="stroke: #000000; stroke-width: 0.8"/>
      </g>
     </g>
     <g id="text_2">
      <text style="font: 10px 'Arial', sans-serif; text-anchor: end" x="41.851283" y="256.821004" transform="rotate(-0 41.851283 256.821004)">−0.4</text>
     </g>
    </g>
    <g id="ytick_2">
     <g id="line2d_2">
      <g>
       <use xlink:href="#m3e81740a51" x="48.851283" y="210.939213" style="stroke: #000000; stroke-width: 0.8"/>
      </g>
     </g>
     <g id="text_3">
      <text style="font: 10px 'Arial', sans-serif; text-anchor: end" x="41.851283" y="214.518119" transform="rotate(-0 41.851283 214.518119)">−0.2</text>
     </g>
    </g>
    <g id="ytick_3">
     <g id="line2d_3">
      <g>
       <use xlink:href="#m3e81740a51" x="48.851283" y="168.636329" style="stroke: #000000; stroke-width: 0.8"/>
      </g>
     </g>
     <g id="text_4">
      <text style="font: 10px 'Arial', sans-serif; text-anchor: end" x="41.851283" y="172.215235" transform="rotate(-0 41.851283 172.215235)">0.0</text>
     </g>
    </g>
    <g id="ytick_4">
     <g id="line2d_4">
      <g>
       <use xlink:href="#m3e81740a51" x="48.851283" y="126.333445" style="stroke: #000000; stroke-width: 0.8"/>
      </g>
     </g>
     <g id="text_5">
      <text style="font: 10px 'Arial', sans-serif; text-anchor: end" x="41.851283" y="129.912351" transform="rotate(-0 41.851283 129.912351)">0.2</text>
     </g>
    </g>
    <g id="ytick_5">
     <g id="line2d_5">
      <g>
       <use xlink:href="#m3e81740a51" x="48.851283" y="84.03056" style="stroke: #000000; stroke-width: 0.8"/>
      </g>
     </g>
     <g id="text_6">
      <text style="font: 10px 'Arial', sans-serif; text-anchor: end" x="41.851283" y="87.609467" transform="rotate(-0 41.851283 87.609467)">0.4</text>
     </g>
    </g>
    <g id="ytick_6">
     <g id="line2d_6">
      <g>
       <use xlink:href="#m3e81740a51" x="48.851283" y="41.727676" style="stroke: #000000; stroke-width: 0.8"/>
      </g>
     </g>
     <g id="text_7">
      <text style="font: 10px 'Arial', sans-serif; text-anchor: end" x="41.851283" y="45.306582" transform="rotate(-0 41.851283 45.306582)">0.6</text>
     </g>
    </g>
    <g id="text_8">
     <text style="font: 10px 'Arial', sans-serif; text-anchor: middle" x="16.005971" y="152.31998" transform="rotate(-90 16.005971 152.31998)">Activity</text>
    </g>
   </g>
   <g id="line2d_7">
    <path d="M 48.851283 245.533691 
L 60.011283 234.236076 
L 71.171283 212.542228 
L 82.331283 180.368513 
L 93.491283 130.269485 
L 104.651283 113.345618 
L 115.811283 115.306429 
L 126.971283 80.834894 
L 138.131283 68.449603 
L 149.291283 72.256933 
L 160.451283 76.766638 
L 171.611283 79.552171 
L 182.771283 111.989451 
L 193.931283 143.809682 
L 205.091283 155.301202 
L 216.251283 144.152878 
L 227.411283 152.312742 
L 238.571283 183.730409 
L 249.731283 194.382626 
L 260.891283 189.134202 
L 272.051283 195.319594 
L 283.211283 214.36196 
L 294.371283 223.12827 
L 305.531283 218.742176 
L 316.691283 231.714445 
L 327.851283 243.179824 
L 339.011283 246.502961 
L 350.171283 256.931936 
L 361.331283 245.632512 
L 372.491283 237.105938 
L 383.651283 233.04323 
L 394.811283 236.528098 
L 405.971283 248.65404 
" clip-path="url(#pd07513028e)" style="fill: none; stroke: #1f77b4; stroke-width: 1.5; stroke-linecap: square"/>
   </g>
   <g id="line2d_8">
    <path d="M 48.851283 213.181431 
L 60.011283 179.590991 
L 71.171283 145.49498 
L 82.331283 120.094233 
L 93.491283 116.275409 
L 104.651283 123.022842 
L 115.811283 121.418757 
L 126.971283 126.272504 
L 138.131283 128.911653 
L 149.291283 114.963915 
L 160.451283 118.686298 
L 171.611283 142.750628 
L 182.771283 135.337041 
L 193.931283 123.717965 
L 205.091283 125.78565 
L 216.251283 135.867671 
L 227.411283 138.042927 
L 238.571283 140.214418 
L 249.731283 152.894649 
L 260.891283 170.883426 
L 272.051283 178.815371 
L 283.211283 169.368855 
L 294.371283 159.128499 
L 305.531283 167.363672 
L 316.691283 181.611338 
L 327.851283 196.063264 
L 339.011283 206.039302 
L 350.171283 202.275672 
L 361.331283 196.663079 
L 372.491283 207.713166 
L 383.651283 220.841112 
L 394.811283 226.494404 
L 405.971283 222.884541 
" clip-path="url(#pd07513028e)" style="fill: none; stroke: #ff7f0e; stroke-width: 1.5; stroke-linecap: square"/>
   </g>
   <g id="line2d_9">
    <path d="M 82.331283 285.37598 
L 82.331283 19.26398 
" clip-path="url(#pd07513028e)" style="fill: none; stroke-dasharray: 5.55,2.4; stroke-dashoffset: 0; stroke: #000000; stroke-opacity: 0.5; stroke-width: 1.5"/>
   </g>
   <g id="line2d_10">
    <path d="M 383.651283 285.37598 
L 383.651283 19.26398 
" clip-path="url(#pd07513028e)" style="fill: none; stroke-dasharray: 5.55,2.4; stroke-dashoffset: 0; stroke: #000000; stroke-opacity: 0.5; stroke-width: 1.5"/>
   </g>
   <g id="patch_3">
    <path d="M 48.851283 285.37598 
L 405.971283 285.37598 
" style="fill: none; stroke: #000000; stroke-width: 0.8; stroke-linejoin: miter; stroke-linecap: square"/>
   </g>
   <g id="text_9">
    <text style="font: 6.94px 'Arial', sans-serif" transform="translate(10.097767 321.385533) rotate(-35)">-0.1s Sampling</text>
   </g>
   <g id="text_10">
    <text style="font: 6.94px 'Arial', sans-serif" transform="translate(57.794497 311.430872) rotate(-35)">Sampling</text>
   </g>
   <g id="text_11">
    <text style="font: 6.94px 'Arial', sans-serif" transform="translate(319.037191 339.456682) rotate(-35)">Movement to Lateral Port</text>
   </g>
   <g id="text_12">
    <text style="font: 8.33px 'Arial', sans-serif; text-anchor: middle" x="227.411283" y="13.26398" transform="rotate(-0 227.411283 13.26398)">GP4_28_S4_L40_D250_M2L - Trace:52_GP4_28_S4_L40_D250_M2L (when: correct)</text>
   </g>
   <g id="legend_1">
    <g id="patch_4">
     <path d="M 133.696342 354.133136 
L 321.126224 354.133136 
Q 322.514224 354.133136 322.514224 352.745136 
L 322.514224 343.45638 
Q 322.514224 342.06838 321.126224 342.06838 
L 133.696342 342.06838 
Q 132.308342 342.06838 132.308342 343.45638 
L 132.308342 352.745136 
Q 132.308342 354.133136 133.696342 354.133136 
z
" style="fill: #ffffff; opacity: 0.8; stroke: #cccccc; stroke-linejoin: miter"/>
    </g>
    <g id="line2d_11">
     <path d="M 135.084342 347.467483 
L 142.024342 347.467483 
L 148.964342 347.467483 
" style="fill: none; stroke: #1f77b4; stroke-width: 1.5; stroke-linecap: square"/>
    </g>
    <g id="text_13">
     <text style="font: 6.94px 'Arial', sans-serif; text-anchor: start" x="154.516342" y="349.896483" transform="rotate(-0 154.516342 349.896483)">DecisionRight (45 pts)</text>
    </g>
    <g id="line2d_12">
     <path d="M 236.664255 347.467483 
L 243.604255 347.467483 
L 250.544255 347.467483 
" style="fill: none; stroke: #ff7f0e; stroke-width: 1.5; stroke-linecap: square"/>
    </g>
    <g id="text_14">
     <text style="font: 6.94px 'Arial', sans-serif; text-anchor: start" x="256.096255" y="349.896483" transform="rotate(-0 256.096255 349.896483)">DecisionLeft (47 pts)</text>
    </g>
   </g>
  </g>
 </g>
 <defs>
  <clipPath id="pd07513028e">
   <rect x="48.851283" y="19.26398" width="357.12" height="266.112"/>
  </clipPath>
 </defs>
</svg>
