<?xml version="1.0" encoding="utf-8" standalone="no"?>
<!DOCTYPE svg PUBLIC "-//W3C//DTD SVG 1.1//EN"
  "http://www.w3.org/Graphics/SVG/1.1/DTD/svg11.dtd">
<svg xmlns:xlink="http://www.w3.org/1999/xlink" width="413.171283pt" height="361.333136pt" viewBox="0 0 413.171283 361.333136" xmlns="http://www.w3.org/2000/svg" version="1.1">
 <metadata>
  <rdf:RDF xmlns:dc="http://purl.org/dc/elements/1.1/" xmlns:cc="http://creativecommons.org/ns#" xmlns:rdf="http://www.w3.org/1999/02/22-rdf-syntax-ns#">
   <cc:Work>
    <dc:type rdf:resource="http://purl.org/dc/dcmitype/StillImage"/>
    <dc:date>2025-12-29T04:07:26.401938</dc:date>
    <dc:format>image/svg+xml</dc:format>
    <dc:creator>
     <cc:Agent>
      <dc:title>Matplotlib v3.8.0, https://matplotlib.org/</dc:title>
     </cc:Agent>
    </dc:creator>
   </cc:Work>
  </rdf:RDF>
 </metadata>
 <defs>
  <style type="text/css">*{stroke-linejoin: round; stroke-linecap: butt}</style>
 </defs>
 <g id="figure_1">
  <g id="patch_1">
   <path d="M 0 361.333136 
L 413.171283 361.333136 
L 413.171283 -0 
L 0 -0 
z
" style="fill: #ffffff"/>
  </g>
  <g id="axes_1">
   <g id="patch_2">
    <path d="M 48.851283 285.37598 
L 405.971283 285.37598 
L 405.971283 19.26398 
L 48.851283 19.26398 
z
" style="fill: #ffffff"/>
   </g>
   <g id="PolyCollection_1">
    <defs>
     <path id="m3f2d42859d" d="M 48.851283 -329.973156 
L 48.851283 -244.397536 
L 60.011283 -214.087632 
L 71.171283 -198.992241 
L 82.331283 -193.249847 
L 93.491283 -188.863548 
L 104.651283 -186.603339 
L 115.811283 -193.535487 
L 126.971283 -199.429118 
L 138.131283 -201.69414 
L 149.291283 -199.289188 
L 160.451283 -202.859395 
L 171.611283 -204.025978 
L 182.771283 -195.85444 
L 193.931283 -184.59791 
L 205.091283 -177.046599 
L 216.251283 -173.634982 
L 227.411283 -165.185954 
L 238.571283 -160.814304 
L 249.731283 -154.705618 
L 260.891283 -148.787613 
L 272.051283 -142.594576 
L 283.211283 -132.875649 
L 294.371283 -121.9235 
L 305.531283 -117.452734 
L 316.691283 -113.007243 
L 327.851283 -109.861135 
L 339.011283 -108.197841 
L 350.171283 -99.474393 
L 361.331283 -89.512766 
L 372.491283 -88.053156 
L 383.651283 -91.844259 
L 394.811283 -94.088593 
L 405.971283 -96.88024 
L 405.971283 -130.353802 
L 405.971283 -130.353802 
L 394.811283 -126.529162 
L 383.651283 -122.430431 
L 372.491283 -118.368193 
L 361.331283 -121.908545 
L 350.171283 -134.909731 
L 339.011283 -145.76709 
L 327.851283 -148.774859 
L 316.691283 -152.696726 
L 305.531283 -157.687126 
L 294.371283 -164.265897 
L 283.211283 -175.53687 
L 272.051283 -185.173871 
L 260.891283 -191.999008 
L 249.731283 -199.187182 
L 238.571283 -207.526871 
L 227.411283 -212.202558 
L 216.251283 -222.745562 
L 205.091283 -228.304739 
L 193.931283 -234.538433 
L 182.771283 -246.029018 
L 171.611283 -257.397957 
L 160.451283 -256.354829 
L 149.291283 -248.930827 
L 138.131283 -249.484571 
L 126.971283 -246.362174 
L 115.811283 -236.898955 
L 104.651283 -228.604554 
L 93.491283 -233.210069 
L 82.331283 -242.029047 
L 71.171283 -252.017773 
L 60.011283 -278.985603 
L 48.851283 -329.973156 
z
" style="stroke: #1f77b4; stroke-opacity: 0.2"/>
    </defs>
    <g clip-path="url(#pc64c13dc03)">
     <use xlink:href="#m3f2d42859d" x="0" y="361.333136" style="fill: #1f77b4; fill-opacity: 0.2; stroke: #1f77b4; stroke-opacity: 0.2"/>
    </g>
   </g>
   <g id="PolyCollection_2">
    <defs>
     <path id="m45c6d72e32" d="M 48.851283 -309.359767 
L 48.851283 -229.073255 
L 60.011283 -211.006604 
L 71.171283 -202.091889 
L 82.331283 -194.187807 
L 93.491283 -187.717225 
L 104.651283 -179.109349 
L 115.811283 -182.128715 
L 126.971283 -185.459629 
L 138.131283 -185.442574 
L 149.291283 -186.544718 
L 160.451283 -199.232001 
L 171.611283 -206.717023 
L 182.771283 -198.913083 
L 193.931283 -191.881398 
L 205.091283 -189.828683 
L 216.251283 -185.087085 
L 227.411283 -174.593248 
L 238.571283 -171.354638 
L 249.731283 -163.096465 
L 260.891283 -154.330916 
L 272.051283 -152.778272 
L 283.211283 -152.078867 
L 294.371283 -147.966488 
L 305.531283 -137.518956 
L 316.691283 -132.764128 
L 327.851283 -130.694521 
L 339.011283 -118.413819 
L 350.171283 -105.610997 
L 361.331283 -102.171284 
L 372.491283 -99.46731 
L 383.651283 -91.108211 
L 394.811283 -88.648487 
L 405.971283 -89.376965 
L 405.971283 -115.900159 
L 405.971283 -115.900159 
L 394.811283 -111.846629 
L 383.651283 -113.56305 
L 372.491283 -122.215159 
L 361.331283 -127.912543 
L 350.171283 -135.402482 
L 339.011283 -150.358647 
L 327.851283 -162.987447 
L 316.691283 -166.551091 
L 305.531283 -172.852721 
L 294.371283 -181.430512 
L 283.211283 -184.554061 
L 272.051283 -186.308803 
L 260.891283 -190.620471 
L 249.731283 -201.11101 
L 238.571283 -211.137193 
L 227.411283 -218.4345 
L 216.251283 -231.522169 
L 205.091283 -236.189848 
L 193.931283 -237.924166 
L 182.771283 -243.338175 
L 171.611283 -251.480198 
L 160.451283 -244.720068 
L 149.291283 -230.611684 
L 138.131283 -228.141205 
L 126.971283 -229.733438 
L 115.811283 -225.938907 
L 104.651283 -221.990068 
L 93.491283 -230.893243 
L 82.331283 -239.642658 
L 71.171283 -258.874407 
L 60.011283 -279.605749 
L 48.851283 -309.359767 
z
" style="stroke: #ff7f0e; stroke-opacity: 0.2"/>
    </defs>
    <g clip-path="url(#pc64c13dc03)">
     <use xlink:href="#m45c6d72e32" x="0" y="361.333136" style="fill: #ff7f0e; fill-opacity: 0.2; stroke: #ff7f0e; stroke-opacity: 0.2"/>
    </g>
   </g>
   <g id="matplotlib.axis_1">
    <g id="text_1">
     <text style="font: 10px 'Arial', sans-serif; text-anchor: middle" x="227.411283" y="296.533792" transform="rotate(-0 227.411283 296.533792)">Time</text>
    </g>
   </g>
   <g id="matplotlib.axis_2">
    <g id="ytick_1">
     <g id="line2d_1">
      <defs>
       <path id="m43edb253fd" d="M 0 0 
L -3.5 0 
" style="stroke: #000000; stroke-width: 0.8"/>
      </defs>
      <g>
       <use xlink:href="#m43edb253fd" x="48.851283" y="259.42663" style="stroke: #000000; stroke-width: 0.8"/>
      </g>
     </g>
     <g id="text_2">
      <text style="font: 10px 'Arial', sans-serif; text-anchor: end" x="41.851283" y="263.005536" transform="rotate(-0 41.851283 263.005536)">−0.4</text>
     </g>
    </g>
    <g id="ytick_2">
     <g id="line2d_2">
      <g>
       <use xlink:href="#m43edb253fd" x="48.851283" y="213.410696" style="stroke: #000000; stroke-width: 0.8"/>
      </g>
     </g>
     <g id="text_3">
      <text style="font: 10px 'Arial', sans-serif; text-anchor: end" x="41.851283" y="216.989603" transform="rotate(-0 41.851283 216.989603)">−0.2</text>
     </g>
    </g>
    <g id="ytick_3">
     <g id="line2d_3">
      <g>
       <use xlink:href="#m43edb253fd" x="48.851283" y="167.394763" style="stroke: #000000; stroke-width: 0.8"/>
      </g>
     </g>
     <g id="text_4">
      <text style="font: 10px 'Arial', sans-serif; text-anchor: end" x="41.851283" y="170.973669" transform="rotate(-0 41.851283 170.973669)">0.0</text>
     </g>
    </g>
    <g id="ytick_4">
     <g id="line2d_4">
      <g>
       <use xlink:href="#m43edb253fd" x="48.851283" y="121.378829" style="stroke: #000000; stroke-width: 0.8"/>
      </g>
     </g>
     <g id="text_5">
      <text style="font: 10px 'Arial', sans-serif; text-anchor: end" x="41.851283" y="124.957735" transform="rotate(-0 41.851283 124.957735)">0.2</text>
     </g>
    </g>
    <g id="ytick_5">
     <g id="line2d_5">
      <g>
       <use xlink:href="#m43edb253fd" x="48.851283" y="75.362895" style="stroke: #000000; stroke-width: 0.8"/>
      </g>
     </g>
     <g id="text_6">
      <text style="font: 10px 'Arial', sans-serif; text-anchor: end" x="41.851283" y="78.941801" transform="rotate(-0 41.851283 78.941801)">0.4</text>
     </g>
    </g>
    <g id="ytick_6">
     <g id="line2d_6">
      <g>
       <use xlink:href="#m43edb253fd" x="48.851283" y="29.346961" style="stroke: #000000; stroke-width: 0.8"/>
      </g>
     </g>
     <g id="text_7">
      <text style="font: 10px 'Arial', sans-serif; text-anchor: end" x="41.851283" y="32.925868" transform="rotate(-0 41.851283 32.925868)">0.6</text>
     </g>
    </g>
    <g id="text_8">
     <text style="font: 10px 'Arial', sans-serif; text-anchor: middle" x="16.005971" y="152.31998" transform="rotate(-90 16.005971 152.31998)">Activity</text>
    </g>
   </g>
   <g id="line2d_7">
    <path d="M 48.851283 74.147788 
L 60.011283 114.796518 
L 71.171283 135.828131 
L 82.331283 143.693689 
L 93.491283 150.296328 
L 104.651283 153.729189 
L 115.811283 146.115914 
L 126.971283 138.43749 
L 138.131283 135.743781 
L 149.291283 137.223128 
L 160.451283 131.726023 
L 171.611283 130.621169 
L 182.771283 140.391407 
L 193.931283 151.764964 
L 205.091283 158.657468 
L 216.251283 163.142865 
L 227.411283 172.638879 
L 238.571283 177.162548 
L 249.731283 184.386736 
L 260.891283 190.939826 
L 272.051283 197.448911 
L 283.211283 207.126875 
L 294.371283 218.238437 
L 305.531283 223.763206 
L 316.691283 228.48115 
L 327.851283 232.015139 
L 339.011283 234.35067 
L 350.171283 244.141074 
L 361.331283 255.62248 
L 372.491283 258.122461 
L 383.651283 254.195791 
L 394.811283 251.024258 
L 405.971283 247.716115 
" clip-path="url(#pc64c13dc03)" style="fill: none; stroke: #1f77b4; stroke-width: 1.5; stroke-linecap: square"/>
   </g>
   <g id="line2d_8">
    <path d="M 48.851283 92.116625 
L 60.011283 116.02696 
L 71.171283 130.849988 
L 82.331283 144.417904 
L 93.491283 152.027901 
L 104.651283 160.783427 
L 115.811283 157.299324 
L 126.971283 153.736602 
L 138.131283 154.541247 
L 149.291283 152.754936 
L 160.451283 139.357101 
L 171.611283 132.234525 
L 182.771283 140.207506 
L 193.931283 146.430353 
L 205.091283 148.323869 
L 216.251283 153.028509 
L 227.411283 164.819261 
L 238.571283 170.087219 
L 249.731283 179.229399 
L 260.891283 188.857442 
L 272.051283 191.789598 
L 283.211283 193.016673 
L 294.371283 196.634636 
L 305.531283 206.147297 
L 316.691283 211.675526 
L 327.851283 214.492152 
L 339.011283 226.946903 
L 350.171283 240.826396 
L 361.331283 246.291222 
L 372.491283 250.491902 
L 383.651283 258.997506 
L 394.811283 261.085578 
L 405.971283 258.694574 
" clip-path="url(#pc64c13dc03)" style="fill: none; stroke: #ff7f0e; stroke-width: 1.5; stroke-linecap: square"/>
   </g>
   <g id="line2d_9">
    <path d="M 82.331283 285.37598 
L 82.331283 19.26398 
" clip-path="url(#pc64c13dc03)" style="fill: none; stroke-dasharray: 5.55,2.4; stroke-dashoffset: 0; stroke: #000000; stroke-opacity: 0.5; stroke-width: 1.5"/>
   </g>
   <g id="line2d_10">
    <path d="M 383.651283 285.37598 
L 383.651283 19.26398 
" clip-path="url(#pc64c13dc03)" style="fill: none; stroke-dasharray: 5.55,2.4; stroke-dashoffset: 0; stroke: #000000; stroke-opacity: 0.5; stroke-width: 1.5"/>
   </g>
   <g id="patch_3">
    <path d="M 48.851283 285.37598 
L 405.971283 285.37598 
" style="fill: none; stroke: #000000; stroke-width: 0.8; stroke-linejoin: miter; stroke-linecap: square"/>
   </g>
   <g id="text_9">
    <text style="font: 6.94px 'Arial', sans-serif" transform="translate(10.097767 321.385533) rotate(-35)">-0.1s Sampling</text>
   </g>
   <g id="text_10">
    <text style="font: 6.94px 'Arial', sans-serif" transform="translate(57.794497 311.430872) rotate(-35)">Sampling</text>
   </g>
   <g id="text_11">
    <text style="font: 6.94px 'Arial', sans-serif" transform="translate(319.037191 339.456682) rotate(-35)">Movement to Lateral Port</text>
   </g>
   <g id="text_12">
    <text style="font: 8.33px 'Arial', sans-serif; text-anchor: middle" x="227.411283" y="13.26398" transform="rotate(-0 227.411283 13.26398)">GP4_28_S4_L40_D250_M2L - Trace:64_GP4_28_S4_L40_D250_M2L (when: correct)</text>
   </g>
   <g id="legend_1">
    <g id="patch_4">
     <path d="M 133.696342 354.133136 
L 321.126224 354.133136 
Q 322.514224 354.133136 322.514224 352.745136 
L 322.514224 343.45638 
Q 322.514224 342.06838 321.126224 342.06838 
L 133.696342 342.06838 
Q 132.308342 342.06838 132.308342 343.45638 
L 132.308342 352.745136 
Q 132.308342 354.133136 133.696342 354.133136 
z
" style="fill: #ffffff; opacity: 0.8; stroke: #cccccc; stroke-linejoin: miter"/>
    </g>
    <g id="line2d_11">
     <path d="M 135.084342 347.467483 
L 142.024342 347.467483 
L 148.964342 347.467483 
" style="fill: none; stroke: #1f77b4; stroke-width: 1.5; stroke-linecap: square"/>
    </g>
    <g id="text_13">
     <text style="font: 6.94px 'Arial', sans-serif; text-anchor: start" x="154.516342" y="349.896483" transform="rotate(-0 154.516342 349.896483)">DecisionRight (45 pts)</text>
    </g>
    <g id="line2d_12">
     <path d="M 236.664255 347.467483 
L 243.604255 347.467483 
L 250.544255 347.467483 
" style="fill: none; stroke: #ff7f0e; stroke-width: 1.5; stroke-linecap: square"/>
    </g>
    <g id="text_14">
     <text style="font: 6.94px 'Arial', sans-serif; text-anchor: start" x="256.096255" y="349.896483" transform="rotate(-0 256.096255 349.896483)">DecisionLeft (47 pts)</text>
    </g>
   </g>
  </g>
 </g>
 <defs>
  <clipPath id="pc64c13dc03">
   <rect x="48.851283" y="19.26398" width="357.12" height="266.112"/>
  </clipPath>
 </defs>
</svg>
