<?xml version="1.0" encoding="utf-8" standalone="no"?>
<!DOCTYPE svg PUBLIC "-//W3C//DTD SVG 1.1//EN"
  "http://www.w3.org/Graphics/SVG/1.1/DTD/svg11.dtd">
<svg xmlns:xlink="http://www.w3.org/1999/xlink" width="413.171283pt" height="361.333136pt" viewBox="0 0 413.171283 361.333136" xmlns="http://www.w3.org/2000/svg" version="1.1">
 <metadata>
  <rdf:RDF xmlns:dc="http://purl.org/dc/elements/1.1/" xmlns:cc="http://creativecommons.org/ns#" xmlns:rdf="http://www.w3.org/1999/02/22-rdf-syntax-ns#">
   <cc:Work>
    <dc:type rdf:resource="http://purl.org/dc/dcmitype/StillImage"/>
    <dc:date>2025-12-29T04:07:27.049518</dc:date>
    <dc:format>image/svg+xml</dc:format>
    <dc:creator>
     <cc:Agent>
      <dc:title>Matplotlib v3.8.0, https://matplotlib.org/</dc:title>
     </cc:Agent>
    </dc:creator>
   </cc:Work>
  </rdf:RDF>
 </metadata>
 <defs>
  <style type="text/css">*{stroke-linejoin: round; stroke-linecap: butt}</style>
 </defs>
 <g id="figure_1">
  <g id="patch_1">
   <path d="M 0 361.333136 
L 413.171283 361.333136 
L 413.171283 -0 
L 0 -0 
z
" style="fill: #ffffff"/>
  </g>
  <g id="axes_1">
   <g id="patch_2">
    <path d="M 48.851283 285.37598 
L 405.971283 285.37598 
L 405.971283 19.26398 
L 48.851283 19.26398 
z
" style="fill: #ffffff"/>
   </g>
   <g id="PolyCollection_1">
    <defs>
     <path id="m671df4e7f7" d="M 48.851283 -329.973156 
L 48.851283 -255.612749 
L 60.011283 -205.051809 
L 71.171283 -188.036286 
L 82.331283 -184.412981 
L 93.491283 -186.962827 
L 104.651283 -215.088586 
L 115.811283 -229.958361 
L 126.971283 -234.497838 
L 138.131283 -218.061863 
L 149.291283 -214.453276 
L 160.451283 -212.492192 
L 171.611283 -196.865406 
L 182.771283 -184.435569 
L 193.931283 -180.833168 
L 205.091283 -167.629249 
L 216.251283 -174.374095 
L 227.411283 -184.000598 
L 238.571283 -179.242911 
L 249.731283 -171.574193 
L 260.891283 -165.877043 
L 272.051283 -157.54264 
L 283.211283 -152.885386 
L 294.371283 -164.424088 
L 305.531283 -165.015691 
L 316.691283 -161.447006 
L 327.851283 -170.497654 
L 339.011283 -160.92848 
L 350.171283 -135.773976 
L 361.331283 -116.033572 
L 372.491283 -106.884823 
L 383.651283 -109.92715 
L 394.811283 -120.397062 
L 405.971283 -124.645343 
L 405.971283 -162.005578 
L 405.971283 -162.005578 
L 394.811283 -153.015527 
L 383.651283 -140.50206 
L 372.491283 -142.33928 
L 361.331283 -157.34253 
L 350.171283 -179.613234 
L 339.011283 -201.221836 
L 327.851283 -207.25221 
L 316.691283 -198.052175 
L 305.531283 -201.031116 
L 294.371283 -200.529224 
L 283.211283 -188.73106 
L 272.051283 -198.214575 
L 260.891283 -210.052577 
L 249.731283 -212.973809 
L 238.571283 -220.976704 
L 227.411283 -225.743032 
L 216.251283 -215.518895 
L 205.091283 -208.291173 
L 193.931283 -220.602858 
L 182.771283 -226.796482 
L 171.611283 -245.056997 
L 160.451283 -259.607298 
L 149.291283 -258.863903 
L 138.131283 -266.352096 
L 126.971283 -291.694309 
L 115.811283 -297.206088 
L 104.651283 -276.815375 
L 93.491283 -241.490628 
L 82.331283 -236.205019 
L 71.171283 -243.781923 
L 60.011283 -265.436199 
L 48.851283 -329.973156 
z
" style="stroke: #1f77b4; stroke-opacity: 0.2"/>
    </defs>
    <g clip-path="url(#p0e25334924)">
     <use xlink:href="#m671df4e7f7" x="0" y="361.333136" style="fill: #1f77b4; fill-opacity: 0.2; stroke: #1f77b4; stroke-opacity: 0.2"/>
    </g>
   </g>
   <g id="PolyCollection_2">
    <defs>
     <path id="m65fc2e7907" d="M 48.851283 -286.847367 
L 48.851283 -213.357041 
L 60.011283 -186.887671 
L 71.171283 -173.821421 
L 82.331283 -163.050488 
L 93.491283 -154.915343 
L 104.651283 -156.225311 
L 115.811283 -157.827179 
L 126.971283 -162.331478 
L 138.131283 -164.633779 
L 149.291283 -164.237142 
L 160.451283 -154.879742 
L 171.611283 -160.928545 
L 182.771283 -159.832102 
L 193.931283 -161.348357 
L 205.091283 -162.92584 
L 216.251283 -151.881648 
L 227.411283 -144.483704 
L 238.571283 -144.936095 
L 249.731283 -137.217463 
L 260.891283 -138.004193 
L 272.051283 -138.243734 
L 283.211283 -141.139888 
L 294.371283 -139.660761 
L 305.531283 -129.666594 
L 316.691283 -119.386661 
L 327.851283 -109.069542 
L 339.011283 -110.050685 
L 350.171283 -108.574229 
L 361.331283 -98.719077 
L 372.491283 -93.59729 
L 383.651283 -89.093237 
L 394.811283 -88.053156 
L 405.971283 -99.084907 
L 405.971283 -132.828636 
L 405.971283 -132.828636 
L 394.811283 -118.752978 
L 383.651283 -114.773549 
L 372.491283 -116.258365 
L 361.331283 -124.561692 
L 350.171283 -140.924118 
L 339.011283 -148.632086 
L 327.851283 -145.40008 
L 316.691283 -150.378992 
L 305.531283 -160.804581 
L 294.371283 -173.61243 
L 283.211283 -176.448049 
L 272.051283 -173.809106 
L 260.891283 -175.152427 
L 249.731283 -177.645645 
L 238.571283 -185.033877 
L 227.411283 -183.348623 
L 216.251283 -190.228588 
L 205.091283 -201.190775 
L 193.931283 -200.15521 
L 182.771283 -199.627742 
L 171.611283 -201.898668 
L 160.451283 -199.614595 
L 149.291283 -215.785333 
L 138.131283 -220.990326 
L 126.971283 -216.542187 
L 115.811283 -208.168221 
L 104.651283 -199.13136 
L 93.491283 -193.399679 
L 82.331283 -207.284658 
L 71.171283 -229.323325 
L 60.011283 -249.736903 
L 48.851283 -286.847367 
z
" style="stroke: #ff7f0e; stroke-opacity: 0.2"/>
    </defs>
    <g clip-path="url(#p0e25334924)">
     <use xlink:href="#m65fc2e7907" x="0" y="361.333136" style="fill: #ff7f0e; fill-opacity: 0.2; stroke: #ff7f0e; stroke-opacity: 0.2"/>
    </g>
   </g>
   <g id="matplotlib.axis_1">
    <g id="text_1">
     <text style="font: 10px 'Arial', sans-serif; text-anchor: middle" x="227.411283" y="296.533792" transform="rotate(-0 227.411283 296.533792)">Time</text>
    </g>
   </g>
   <g id="matplotlib.axis_2">
    <g id="ytick_1">
     <g id="line2d_1">
      <defs>
       <path id="mbea101e6da" d="M 0 0 
L -3.5 0 
" style="stroke: #000000; stroke-width: 0.8"/>
      </defs>
      <g>
       <use xlink:href="#mbea101e6da" x="48.851283" y="276.802906" style="stroke: #000000; stroke-width: 0.8"/>
      </g>
     </g>
     <g id="text_2">
      <text style="font: 10px 'Arial', sans-serif; text-anchor: end" x="41.851283" y="280.381812" transform="rotate(-0 41.851283 280.381812)">−0.4</text>
     </g>
    </g>
    <g id="ytick_2">
     <g id="line2d_2">
      <g>
       <use xlink:href="#mbea101e6da" x="48.851283" y="217.927446" style="stroke: #000000; stroke-width: 0.8"/>
      </g>
     </g>
     <g id="text_3">
      <text style="font: 10px 'Arial', sans-serif; text-anchor: end" x="41.851283" y="221.506352" transform="rotate(-0 41.851283 221.506352)">−0.2</text>
     </g>
    </g>
    <g id="ytick_3">
     <g id="line2d_3">
      <g>
       <use xlink:href="#mbea101e6da" x="48.851283" y="159.051986" style="stroke: #000000; stroke-width: 0.8"/>
      </g>
     </g>
     <g id="text_4">
      <text style="font: 10px 'Arial', sans-serif; text-anchor: end" x="41.851283" y="162.630892" transform="rotate(-0 41.851283 162.630892)">0.0</text>
     </g>
    </g>
    <g id="ytick_4">
     <g id="line2d_4">
      <g>
       <use xlink:href="#mbea101e6da" x="48.851283" y="100.176526" style="stroke: #000000; stroke-width: 0.8"/>
      </g>
     </g>
     <g id="text_5">
      <text style="font: 10px 'Arial', sans-serif; text-anchor: end" x="41.851283" y="103.755432" transform="rotate(-0 41.851283 103.755432)">0.2</text>
     </g>
    </g>
    <g id="ytick_5">
     <g id="line2d_5">
      <g>
       <use xlink:href="#mbea101e6da" x="48.851283" y="41.301066" style="stroke: #000000; stroke-width: 0.8"/>
      </g>
     </g>
     <g id="text_6">
      <text style="font: 10px 'Arial', sans-serif; text-anchor: end" x="41.851283" y="44.879973" transform="rotate(-0 41.851283 44.879973)">0.4</text>
     </g>
    </g>
    <g id="text_7">
     <text style="font: 10px 'Arial', sans-serif; text-anchor: middle" x="16.005971" y="152.31998" transform="rotate(-90 16.005971 152.31998)">Activity</text>
    </g>
   </g>
   <g id="line2d_6">
    <path d="M 48.851283 68.540186 
L 60.011283 126.089132 
L 71.171283 145.424031 
L 82.331283 151.024137 
L 93.491283 147.106408 
L 104.651283 115.381158 
L 115.811283 97.750914 
L 126.971283 98.237063 
L 138.131283 119.126155 
L 149.291283 124.674547 
L 160.451283 125.283391 
L 171.611283 140.371935 
L 182.771283 155.71711 
L 193.931283 160.615123 
L 205.091283 173.372924 
L 216.251283 166.38664 
L 227.411283 156.461321 
L 238.571283 161.223329 
L 249.731283 169.059135 
L 260.891283 173.368326 
L 272.051283 183.454527 
L 283.211283 190.524913 
L 294.371283 178.856479 
L 305.531283 178.309733 
L 316.691283 181.583546 
L 327.851283 172.458204 
L 339.011283 180.257979 
L 350.171283 203.639532 
L 361.331283 224.645083 
L 372.491283 236.721087 
L 383.651283 236.118531 
L 394.811283 224.626839 
L 405.971283 218.007677 
" clip-path="url(#p0e25334924)" style="fill: none; stroke: #1f77b4; stroke-width: 1.5; stroke-linecap: square"/>
   </g>
   <g id="line2d_7">
    <path d="M 48.851283 111.230933 
L 60.011283 143.02085 
L 71.171283 159.760762 
L 82.331283 176.165562 
L 93.491283 187.175625 
L 104.651283 183.6548 
L 115.811283 178.335436 
L 126.971283 171.896304 
L 138.131283 168.521083 
L 149.291283 171.3219 
L 160.451283 184.085969 
L 171.611283 179.919529 
L 182.771283 181.603215 
L 193.931283 180.581352 
L 205.091283 179.274827 
L 216.251283 190.278018 
L 227.411283 197.416972 
L 238.571283 196.348151 
L 249.731283 203.901581 
L 260.891283 204.754825 
L 272.051283 205.306716 
L 283.211283 202.539167 
L 294.371283 204.69654 
L 305.531283 216.097548 
L 316.691283 226.450308 
L 327.851283 234.098325 
L 339.011283 231.991753 
L 350.171283 236.583963 
L 361.331283 249.692752 
L 372.491283 256.405308 
L 383.651283 259.399743 
L 394.811283 257.930069 
L 405.971283 245.376364 
" clip-path="url(#p0e25334924)" style="fill: none; stroke: #ff7f0e; stroke-width: 1.5; stroke-linecap: square"/>
   </g>
   <g id="line2d_8">
    <path d="M 82.331283 285.37598 
L 82.331283 19.26398 
" clip-path="url(#p0e25334924)" style="fill: none; stroke-dasharray: 5.55,2.4; stroke-dashoffset: 0; stroke: #000000; stroke-opacity: 0.5; stroke-width: 1.5"/>
   </g>
   <g id="line2d_9">
    <path d="M 383.651283 285.37598 
L 383.651283 19.26398 
" clip-path="url(#p0e25334924)" style="fill: none; stroke-dasharray: 5.55,2.4; stroke-dashoffset: 0; stroke: #000000; stroke-opacity: 0.5; stroke-width: 1.5"/>
   </g>
   <g id="patch_3">
    <path d="M 48.851283 285.37598 
L 405.971283 285.37598 
" style="fill: none; stroke: #000000; stroke-width: 0.8; stroke-linejoin: miter; stroke-linecap: square"/>
   </g>
   <g id="text_8">
    <text style="font: 6.94px 'Arial', sans-serif" transform="translate(10.097767 321.385533) rotate(-35)">-0.1s Sampling</text>
   </g>
   <g id="text_9">
    <text style="font: 6.94px 'Arial', sans-serif" transform="translate(57.794497 311.430872) rotate(-35)">Sampling</text>
   </g>
   <g id="text_10">
    <text style="font: 6.94px 'Arial', sans-serif" transform="translate(319.037191 339.456682) rotate(-35)">Movement to Lateral Port</text>
   </g>
   <g id="text_11">
    <text style="font: 8.33px 'Arial', sans-serif; text-anchor: middle" x="227.411283" y="13.26398" transform="rotate(-0 227.411283 13.26398)">GP4_28_S4_L40_D250_M2L - Trace:7_GP4_28_S4_L40_D250_M2L (when: correct)</text>
   </g>
   <g id="legend_1">
    <g id="patch_4">
     <path d="M 133.696342 354.133136 
L 321.126224 354.133136 
Q 322.514224 354.133136 322.514224 352.745136 
L 322.514224 343.45638 
Q 322.514224 342.06838 321.126224 342.06838 
L 133.696342 342.06838 
Q 132.308342 342.06838 132.308342 343.45638 
L 132.308342 352.745136 
Q 132.308342 354.133136 133.696342 354.133136 
z
" style="fill: #ffffff; opacity: 0.8; stroke: #cccccc; stroke-linejoin: miter"/>
    </g>
    <g id="line2d_10">
     <path d="M 135.084342 347.467483 
L 142.024342 347.467483 
L 148.964342 347.467483 
" style="fill: none; stroke: #1f77b4; stroke-width: 1.5; stroke-linecap: square"/>
    </g>
    <g id="text_12">
     <text style="font: 6.94px 'Arial', sans-serif; text-anchor: start" x="154.516342" y="349.896483" transform="rotate(-0 154.516342 349.896483)">DecisionRight (45 pts)</text>
    </g>
    <g id="line2d_11">
     <path d="M 236.664255 347.467483 
L 243.604255 347.467483 
L 250.544255 347.467483 
" style="fill: none; stroke: #ff7f0e; stroke-width: 1.5; stroke-linecap: square"/>
    </g>
    <g id="text_13">
     <text style="font: 6.94px 'Arial', sans-serif; text-anchor: start" x="256.096255" y="349.896483" transform="rotate(-0 256.096255 349.896483)">DecisionLeft (47 pts)</text>
    </g>
   </g>
  </g>
 </g>
 <defs>
  <clipPath id="p0e25334924">
   <rect x="48.851283" y="19.26398" width="357.12" height="266.112"/>
  </clipPath>
 </defs>
</svg>
