<?xml version="1.0" encoding="utf-8" standalone="no"?>
<!DOCTYPE svg PUBLIC "-//W3C//DTD SVG 1.1//EN"
  "http://www.w3.org/Graphics/SVG/1.1/DTD/svg11.dtd">
<svg xmlns:xlink="http://www.w3.org/1999/xlink" width="413.171283pt" height="361.333136pt" viewBox="0 0 413.171283 361.333136" xmlns="http://www.w3.org/2000/svg" version="1.1">
 <metadata>
  <rdf:RDF xmlns:dc="http://purl.org/dc/elements/1.1/" xmlns:cc="http://creativecommons.org/ns#" xmlns:rdf="http://www.w3.org/1999/02/22-rdf-syntax-ns#">
   <cc:Work>
    <dc:type rdf:resource="http://purl.org/dc/dcmitype/StillImage"/>
    <dc:date>2025-12-29T04:07:41.395922</dc:date>
    <dc:format>image/svg+xml</dc:format>
    <dc:creator>
     <cc:Agent>
      <dc:title>Matplotlib v3.8.0, https://matplotlib.org/</dc:title>
     </cc:Agent>
    </dc:creator>
   </cc:Work>
  </rdf:RDF>
 </metadata>
 <defs>
  <style type="text/css">*{stroke-linejoin: round; stroke-linecap: butt}</style>
 </defs>
 <g id="figure_1">
  <g id="patch_1">
   <path d="M 0 361.333136 
L 413.171283 361.333136 
L 413.171283 -0 
L 0 -0 
z
" style="fill: #ffffff"/>
  </g>
  <g id="axes_1">
   <g id="patch_2">
    <path d="M 48.851283 285.37598 
L 405.971283 285.37598 
L 405.971283 19.26398 
L 48.851283 19.26398 
z
" style="fill: #ffffff"/>
   </g>
   <g id="PolyCollection_1">
    <defs>
     <path id="m85a8c14122" d="M 48.851283 -164.314264 
L 48.851283 -102.275586 
L 60.011283 -107.997842 
L 71.171283 -104.083573 
L 82.331283 -98.29057 
L 93.491283 -92.082998 
L 104.651283 -88.053156 
L 115.811283 -101.15877 
L 126.971283 -98.612281 
L 138.131283 -108.660332 
L 149.291283 -105.827608 
L 160.451283 -105.535005 
L 171.611283 -113.393661 
L 182.771283 -124.115877 
L 193.931283 -129.534912 
L 205.091283 -143.022929 
L 216.251283 -167.149192 
L 227.411283 -171.948881 
L 238.571283 -166.496677 
L 249.731283 -173.203992 
L 260.891283 -188.079152 
L 272.051283 -189.460403 
L 283.211283 -211.860982 
L 294.371283 -217.295965 
L 305.531283 -217.972689 
L 316.691283 -212.889885 
L 327.851283 -210.219658 
L 339.011283 -217.453834 
L 350.171283 -226.236152 
L 361.331283 -243.50468 
L 372.491283 -244.36539 
L 383.651283 -238.63366 
L 394.811283 -246.385823 
L 405.971283 -255.130282 
L 405.971283 -324.1493 
L 405.971283 -324.1493 
L 394.811283 -313.725311 
L 383.651283 -308.693252 
L 372.491283 -322.187615 
L 361.331283 -329.973156 
L 350.171283 -308.899835 
L 339.011283 -294.722103 
L 327.851283 -287.203918 
L 316.691283 -293.253339 
L 305.531283 -298.946802 
L 294.371283 -296.857716 
L 283.211283 -289.163587 
L 272.051283 -260.693691 
L 260.891283 -259.462691 
L 249.731283 -245.670786 
L 238.571283 -239.081537 
L 227.411283 -237.69619 
L 216.251283 -223.362177 
L 205.091283 -197.535776 
L 193.931283 -181.505113 
L 182.771283 -171.755983 
L 171.611283 -155.931288 
L 160.451283 -148.53391 
L 149.291283 -149.752308 
L 138.131283 -151.332368 
L 126.971283 -136.791898 
L 115.811283 -134.074874 
L 104.651283 -120.412648 
L 93.491283 -123.273387 
L 82.331283 -128.205184 
L 71.171283 -140.494738 
L 60.011283 -159.466673 
L 48.851283 -164.314264 
z
" style="stroke: #1f77b4; stroke-opacity: 0.2"/>
    </defs>
    <g clip-path="url(#pf728f84836)">
     <use xlink:href="#m85a8c14122" x="0" y="361.333136" style="fill: #1f77b4; fill-opacity: 0.2; stroke: #1f77b4; stroke-opacity: 0.2"/>
    </g>
   </g>
   <g id="PolyCollection_2">
    <defs>
     <path id="m22cc76b91f" d="M 48.851283 -180.522739 
L 48.851283 -135.763725 
L 60.011283 -137.669039 
L 71.171283 -138.143184 
L 82.331283 -123.145559 
L 93.491283 -119.034086 
L 104.651283 -115.383917 
L 115.811283 -117.698543 
L 126.971283 -121.535698 
L 138.131283 -129.954005 
L 149.291283 -139.194372 
L 160.451283 -145.496312 
L 171.611283 -158.201626 
L 182.771283 -164.88721 
L 193.931283 -170.144214 
L 205.091283 -184.599808 
L 216.251283 -184.829855 
L 227.411283 -181.817358 
L 238.571283 -183.445461 
L 249.731283 -182.798549 
L 260.891283 -187.349797 
L 272.051283 -199.503508 
L 283.211283 -199.061733 
L 294.371283 -186.90346 
L 305.531283 -173.710983 
L 316.691283 -176.393532 
L 327.851283 -187.372932 
L 339.011283 -214.089601 
L 350.171283 -218.378529 
L 361.331283 -212.082633 
L 372.491283 -220.931415 
L 383.651283 -226.064864 
L 394.811283 -215.403872 
L 405.971283 -203.458039 
L 405.971283 -261.48004 
L 405.971283 -261.48004 
L 394.811283 -274.353448 
L 383.651283 -283.704465 
L 372.491283 -277.555462 
L 361.331283 -270.904153 
L 350.171283 -277.768267 
L 339.011283 -276.076997 
L 327.851283 -249.740544 
L 316.691283 -236.168353 
L 305.531283 -236.34428 
L 294.371283 -251.883015 
L 283.211283 -263.781187 
L 272.051283 -261.941997 
L 260.891283 -252.254035 
L 249.731283 -251.7547 
L 238.571283 -250.960057 
L 227.411283 -243.496945 
L 216.251283 -243.529481 
L 205.091283 -251.966317 
L 193.931283 -238.241539 
L 182.771283 -230.024324 
L 171.611283 -217.958207 
L 160.451283 -193.793234 
L 149.291283 -180.045825 
L 138.131283 -173.226764 
L 126.971283 -159.551487 
L 115.811283 -153.120019 
L 104.651283 -148.312542 
L 93.491283 -150.850955 
L 82.331283 -156.855502 
L 71.171283 -172.408666 
L 60.011283 -175.366652 
L 48.851283 -180.522739 
z
" style="stroke: #ff7f0e; stroke-opacity: 0.2"/>
    </defs>
    <g clip-path="url(#pf728f84836)">
     <use xlink:href="#m22cc76b91f" x="0" y="361.333136" style="fill: #ff7f0e; fill-opacity: 0.2; stroke: #ff7f0e; stroke-opacity: 0.2"/>
    </g>
   </g>
   <g id="matplotlib.axis_1">
    <g id="text_1">
     <text style="font: 10px 'Arial', sans-serif; text-anchor: middle" x="227.411283" y="296.533792" transform="rotate(-0 227.411283 296.533792)">Time</text>
    </g>
   </g>
   <g id="matplotlib.axis_2">
    <g id="ytick_1">
     <g id="line2d_1">
      <defs>
       <path id="m4e3797afb5" d="M 0 0 
L -3.5 0 
" style="stroke: #000000; stroke-width: 0.8"/>
      </defs>
      <g>
       <use xlink:href="#m4e3797afb5" x="48.851283" y="285.281382" style="stroke: #000000; stroke-width: 0.8"/>
      </g>
     </g>
     <g id="text_2">
      <text style="font: 10px 'Arial', sans-serif; text-anchor: end" x="41.851283" y="288.860288" transform="rotate(-0 41.851283 288.860288)">−0.4</text>
     </g>
    </g>
    <g id="ytick_2">
     <g id="line2d_2">
      <g>
       <use xlink:href="#m4e3797afb5" x="48.851283" y="227.927575" style="stroke: #000000; stroke-width: 0.8"/>
      </g>
     </g>
     <g id="text_3">
      <text style="font: 10px 'Arial', sans-serif; text-anchor: end" x="41.851283" y="231.506481" transform="rotate(-0 41.851283 231.506481)">−0.2</text>
     </g>
    </g>
    <g id="ytick_3">
     <g id="line2d_3">
      <g>
       <use xlink:href="#m4e3797afb5" x="48.851283" y="170.573768" style="stroke: #000000; stroke-width: 0.8"/>
      </g>
     </g>
     <g id="text_4">
      <text style="font: 10px 'Arial', sans-serif; text-anchor: end" x="41.851283" y="174.152674" transform="rotate(-0 41.851283 174.152674)">0.0</text>
     </g>
    </g>
    <g id="ytick_4">
     <g id="line2d_4">
      <g>
       <use xlink:href="#m4e3797afb5" x="48.851283" y="113.219961" style="stroke: #000000; stroke-width: 0.8"/>
      </g>
     </g>
     <g id="text_5">
      <text style="font: 10px 'Arial', sans-serif; text-anchor: end" x="41.851283" y="116.798867" transform="rotate(-0 41.851283 116.798867)">0.2</text>
     </g>
    </g>
    <g id="ytick_5">
     <g id="line2d_5">
      <g>
       <use xlink:href="#m4e3797afb5" x="48.851283" y="55.866154" style="stroke: #000000; stroke-width: 0.8"/>
      </g>
     </g>
     <g id="text_6">
      <text style="font: 10px 'Arial', sans-serif; text-anchor: end" x="41.851283" y="59.44506" transform="rotate(-0 41.851283 59.44506)">0.4</text>
     </g>
    </g>
    <g id="text_7">
     <text style="font: 10px 'Arial', sans-serif; text-anchor: middle" x="16.005971" y="152.31998" transform="rotate(-90 16.005971 152.31998)">Activity</text>
    </g>
   </g>
   <g id="line2d_6">
    <path d="M 48.851283 228.038213 
L 60.011283 227.600878 
L 71.171283 239.04398 
L 82.331283 248.085259 
L 93.491283 253.654946 
L 104.651283 257.100232 
L 115.811283 243.716314 
L 126.971283 243.631046 
L 138.131283 231.336784 
L 149.291283 233.543178 
L 160.451283 234.298678 
L 171.611283 226.670664 
L 182.771283 213.397207 
L 193.931283 205.813123 
L 205.091283 191.053782 
L 216.251283 166.077452 
L 227.411283 156.510601 
L 238.571283 158.544027 
L 249.731283 151.895748 
L 260.891283 137.562215 
L 272.051283 136.256089 
L 283.211283 110.820854 
L 294.371283 104.256296 
L 305.531283 102.873392 
L 316.691283 108.261524 
L 327.851283 112.621346 
L 339.011283 105.245168 
L 350.171283 93.76514 
L 361.331283 74.594218 
L 372.491283 78.056631 
L 383.651283 87.66968 
L 394.811283 81.277567 
L 405.971283 71.693345 
" clip-path="url(#pf728f84836)" style="fill: none; stroke: #1f77b4; stroke-width: 1.5; stroke-linecap: square"/>
   </g>
   <g id="line2d_7">
    <path d="M 48.851283 203.189905 
L 60.011283 204.81529 
L 71.171283 206.057212 
L 82.331283 221.332605 
L 93.491283 226.390616 
L 104.651283 229.484906 
L 115.811283 225.923855 
L 126.971283 220.789543 
L 138.131283 209.742753 
L 149.291283 201.713037 
L 160.451283 191.688364 
L 171.611283 173.25322 
L 182.771283 163.877369 
L 193.931283 157.140261 
L 205.091283 143.050072 
L 216.251283 147.153467 
L 227.411283 148.675986 
L 238.571283 144.130376 
L 249.731283 144.056512 
L 260.891283 141.53122 
L 272.051283 130.610384 
L 283.211283 129.911675 
L 294.371283 141.939899 
L 305.531283 156.305504 
L 316.691283 155.052192 
L 327.851283 142.776398 
L 339.011283 116.249837 
L 350.171283 113.259739 
L 361.331283 119.839741 
L 372.491283 112.089697 
L 383.651283 106.448473 
L 394.811283 116.454476 
L 405.971283 128.864098 
" clip-path="url(#pf728f84836)" style="fill: none; stroke: #ff7f0e; stroke-width: 1.5; stroke-linecap: square"/>
   </g>
   <g id="line2d_8">
    <path d="M 82.331283 285.37598 
L 82.331283 19.26398 
" clip-path="url(#pf728f84836)" style="fill: none; stroke-dasharray: 5.55,2.4; stroke-dashoffset: 0; stroke: #000000; stroke-opacity: 0.5; stroke-width: 1.5"/>
   </g>
   <g id="line2d_9">
    <path d="M 383.651283 285.37598 
L 383.651283 19.26398 
" clip-path="url(#pf728f84836)" style="fill: none; stroke-dasharray: 5.55,2.4; stroke-dashoffset: 0; stroke: #000000; stroke-opacity: 0.5; stroke-width: 1.5"/>
   </g>
   <g id="patch_3">
    <path d="M 48.851283 285.37598 
L 405.971283 285.37598 
" style="fill: none; stroke: #000000; stroke-width: 0.8; stroke-linejoin: miter; stroke-linecap: square"/>
   </g>
   <g id="text_8">
    <text style="font: 6.94px 'Arial', sans-serif" transform="translate(10.097767 321.385533) rotate(-35)">-0.1s Sampling</text>
   </g>
   <g id="text_9">
    <text style="font: 6.94px 'Arial', sans-serif" transform="translate(57.794497 311.430872) rotate(-35)">Sampling</text>
   </g>
   <g id="text_10">
    <text style="font: 6.94px 'Arial', sans-serif" transform="translate(319.037191 339.456682) rotate(-35)">Movement to Lateral Port</text>
   </g>
   <g id="text_11">
    <text style="font: 8.33px 'Arial', sans-serif; text-anchor: middle" x="227.411283" y="13.26398" transform="rotate(-0 227.411283 13.26398)">gp4_81_S5_L50_D250_ALM - Trace:10_gp4_81_S5_L50_D250_ALM (when: correct)</text>
   </g>
   <g id="legend_1">
    <g id="patch_4">
     <path d="M 133.696342 354.133136 
L 321.126224 354.133136 
Q 322.514224 354.133136 322.514224 352.745136 
L 322.514224 343.45638 
Q 322.514224 342.06838 321.126224 342.06838 
L 133.696342 342.06838 
Q 132.308342 342.06838 132.308342 343.45638 
L 132.308342 352.745136 
Q 132.308342 354.133136 133.696342 354.133136 
z
" style="fill: #ffffff; opacity: 0.8; stroke: #cccccc; stroke-linejoin: miter"/>
    </g>
    <g id="line2d_10">
     <path d="M 135.084342 347.467483 
L 142.024342 347.467483 
L 148.964342 347.467483 
" style="fill: none; stroke: #1f77b4; stroke-width: 1.5; stroke-linecap: square"/>
    </g>
    <g id="text_12">
     <text style="font: 6.94px 'Arial', sans-serif; text-anchor: start" x="154.516342" y="349.896483" transform="rotate(-0 154.516342 349.896483)">DecisionRight (72 pts)</text>
    </g>
    <g id="line2d_11">
     <path d="M 236.664255 347.467483 
L 243.604255 347.467483 
L 250.544255 347.467483 
" style="fill: none; stroke: #ff7f0e; stroke-width: 1.5; stroke-linecap: square"/>
    </g>
    <g id="text_13">
     <text style="font: 6.94px 'Arial', sans-serif; text-anchor: start" x="256.096255" y="349.896483" transform="rotate(-0 256.096255 349.896483)">DecisionLeft (74 pts)</text>
    </g>
   </g>
  </g>
 </g>
 <defs>
  <clipPath id="pf728f84836">
   <rect x="48.851283" y="19.26398" width="357.12" height="266.112"/>
  </clipPath>
 </defs>
</svg>
