<?xml version="1.0" encoding="utf-8" standalone="no"?>
<!DOCTYPE svg PUBLIC "-//W3C//DTD SVG 1.1//EN"
  "http://www.w3.org/Graphics/SVG/1.1/DTD/svg11.dtd">
<svg xmlns:xlink="http://www.w3.org/1999/xlink" width="413.171283pt" height="361.333136pt" viewBox="0 0 413.171283 361.333136" xmlns="http://www.w3.org/2000/svg" version="1.1">
 <metadata>
  <rdf:RDF xmlns:dc="http://purl.org/dc/elements/1.1/" xmlns:cc="http://creativecommons.org/ns#" xmlns:rdf="http://www.w3.org/1999/02/22-rdf-syntax-ns#">
   <cc:Work>
    <dc:type rdf:resource="http://purl.org/dc/dcmitype/StillImage"/>
    <dc:date>2025-12-29T04:07:39.451146</dc:date>
    <dc:format>image/svg+xml</dc:format>
    <dc:creator>
     <cc:Agent>
      <dc:title>Matplotlib v3.8.0, https://matplotlib.org/</dc:title>
     </cc:Agent>
    </dc:creator>
   </cc:Work>
  </rdf:RDF>
 </metadata>
 <defs>
  <style type="text/css">*{stroke-linejoin: round; stroke-linecap: butt}</style>
 </defs>
 <g id="figure_1">
  <g id="patch_1">
   <path d="M 0 361.333136 
L 413.171283 361.333136 
L 413.171283 -0 
L 0 -0 
z
" style="fill: #ffffff"/>
  </g>
  <g id="axes_1">
   <g id="patch_2">
    <path d="M 48.851283 285.37598 
L 405.971283 285.37598 
L 405.971283 19.26398 
L 48.851283 19.26398 
z
" style="fill: #ffffff"/>
   </g>
   <g id="PolyCollection_1">
    <defs>
     <path id="m1dea926c02" d="M 48.851283 -117.034679 
L 48.851283 -105.90679 
L 60.011283 -106.134735 
L 71.171283 -103.498467 
L 82.331283 -102.737943 
L 93.491283 -104.049975 
L 104.651283 -103.148421 
L 115.811283 -96.496752 
L 126.971283 -93.741353 
L 138.131283 -91.122561 
L 149.291283 -91.019829 
L 160.451283 -92.926681 
L 171.611283 -94.418338 
L 182.771283 -96.787165 
L 193.931283 -93.805676 
L 205.091283 -88.053156 
L 216.251283 -90.180982 
L 227.411283 -94.064782 
L 238.571283 -97.391474 
L 249.731283 -100.354342 
L 260.891283 -104.266973 
L 272.051283 -105.081589 
L 283.211283 -106.239431 
L 294.371283 -102.56862 
L 305.531283 -100.417968 
L 316.691283 -105.578803 
L 327.851283 -106.353502 
L 339.011283 -101.11052 
L 350.171283 -98.346787 
L 361.331283 -101.369598 
L 372.491283 -109.094338 
L 383.651283 -117.093905 
L 394.811283 -118.608561 
L 405.971283 -114.239072 
L 405.971283 -131.951897 
L 405.971283 -131.951897 
L 394.811283 -134.692141 
L 383.651283 -132.81147 
L 372.491283 -124.291411 
L 361.331283 -116.077959 
L 350.171283 -113.356946 
L 339.011283 -116.800315 
L 327.851283 -122.374811 
L 316.691283 -121.372386 
L 305.531283 -115.262667 
L 294.371283 -116.381111 
L 283.211283 -120.567066 
L 272.051283 -120.010867 
L 260.891283 -118.428252 
L 249.731283 -113.618565 
L 238.571283 -109.366848 
L 227.411283 -105.909411 
L 216.251283 -102.169601 
L 205.091283 -98.854819 
L 193.931283 -103.95613 
L 182.771283 -107.056034 
L 171.611283 -105.34282 
L 160.451283 -103.495869 
L 149.291283 -101.860178 
L 138.131283 -101.59119 
L 126.971283 -104.6599 
L 115.811283 -107.290733 
L 104.651283 -113.607585 
L 93.491283 -114.480839 
L 82.331283 -113.708317 
L 71.171283 -114.444277 
L 60.011283 -117.803711 
L 48.851283 -117.034679 
z
" style="stroke: #1f77b4; stroke-opacity: 0.2"/>
    </defs>
    <g clip-path="url(#p497f642140)">
     <use xlink:href="#m1dea926c02" x="0" y="361.333136" style="fill: #1f77b4; fill-opacity: 0.2; stroke: #1f77b4; stroke-opacity: 0.2"/>
    </g>
   </g>
   <g id="PolyCollection_2">
    <defs>
     <path id="m6773d20a54" d="M 48.851283 -123.243042 
L 48.851283 -110.352278 
L 60.011283 -104.300493 
L 71.171283 -101.490822 
L 82.331283 -101.343542 
L 93.491283 -102.622155 
L 104.651283 -103.530654 
L 115.811283 -100.969375 
L 126.971283 -97.554895 
L 138.131283 -96.617788 
L 149.291283 -94.651323 
L 160.451283 -91.719398 
L 171.611283 -93.940773 
L 182.771283 -101.881838 
L 193.931283 -107.825315 
L 205.091283 -110.419229 
L 216.251283 -107.250883 
L 227.411283 -111.696734 
L 238.571283 -129.392966 
L 249.731283 -131.042525 
L 260.891283 -129.887594 
L 272.051283 -135.917775 
L 283.211283 -144.063497 
L 294.371283 -149.839541 
L 305.531283 -154.345816 
L 316.691283 -154.774464 
L 327.851283 -159.996871 
L 339.011283 -162.173351 
L 350.171283 -172.667798 
L 361.331283 -185.296508 
L 372.491283 -206.918335 
L 383.651283 -237.670806 
L 394.811283 -265.204439 
L 405.971283 -288.268233 
L 405.971283 -329.973156 
L 405.971283 -329.973156 
L 394.811283 -304.190851 
L 383.651283 -272.804769 
L 372.491283 -239.6289 
L 361.331283 -215.65624 
L 350.171283 -201.856491 
L 339.011283 -191.094375 
L 327.851283 -190.408283 
L 316.691283 -184.097688 
L 305.531283 -182.797519 
L 294.371283 -177.417201 
L 283.211283 -171.555534 
L 272.051283 -162.117797 
L 260.891283 -153.698335 
L 249.731283 -154.638814 
L 238.571283 -155.031993 
L 227.411283 -136.97592 
L 216.251283 -135.511815 
L 205.091283 -135.802214 
L 193.931283 -131.295841 
L 182.771283 -123.075953 
L 171.611283 -113.87731 
L 160.451283 -106.760853 
L 149.291283 -106.021663 
L 138.131283 -108.345941 
L 126.971283 -110.774525 
L 115.811283 -113.731336 
L 104.651283 -115.459611 
L 93.491283 -114.546868 
L 82.331283 -111.540941 
L 71.171283 -112.911961 
L 60.011283 -117.11137 
L 48.851283 -123.243042 
z
" style="stroke: #ff7f0e; stroke-opacity: 0.2"/>
    </defs>
    <g clip-path="url(#p497f642140)">
     <use xlink:href="#m6773d20a54" x="0" y="361.333136" style="fill: #ff7f0e; fill-opacity: 0.2; stroke: #ff7f0e; stroke-opacity: 0.2"/>
    </g>
   </g>
   <g id="matplotlib.axis_1">
    <g id="text_1">
     <text style="font: 10px 'Arial', sans-serif; text-anchor: middle" x="227.411283" y="296.533792" transform="rotate(-0 227.411283 296.533792)">Time</text>
    </g>
   </g>
   <g id="matplotlib.axis_2">
    <g id="ytick_1">
     <g id="line2d_1">
      <defs>
       <path id="ma9f86eb0b1" d="M 0 0 
L -3.5 0 
" style="stroke: #000000; stroke-width: 0.8"/>
      </defs>
      <g>
       <use xlink:href="#ma9f86eb0b1" x="48.851283" y="237.370946" style="stroke: #000000; stroke-width: 0.8"/>
      </g>
     </g>
     <g id="text_2">
      <text style="font: 10px 'Arial', sans-serif; text-anchor: end" x="41.851283" y="240.949852" transform="rotate(-0 41.851283 240.949852)">0.0</text>
     </g>
    </g>
    <g id="ytick_2">
     <g id="line2d_2">
      <g>
       <use xlink:href="#ma9f86eb0b1" x="48.851283" y="186.097403" style="stroke: #000000; stroke-width: 0.8"/>
      </g>
     </g>
     <g id="text_3">
      <text style="font: 10px 'Arial', sans-serif; text-anchor: end" x="41.851283" y="189.676309" transform="rotate(-0 41.851283 189.676309)">0.5</text>
     </g>
    </g>
    <g id="ytick_3">
     <g id="line2d_3">
      <g>
       <use xlink:href="#ma9f86eb0b1" x="48.851283" y="134.823859" style="stroke: #000000; stroke-width: 0.8"/>
      </g>
     </g>
     <g id="text_4">
      <text style="font: 10px 'Arial', sans-serif; text-anchor: end" x="41.851283" y="138.402766" transform="rotate(-0 41.851283 138.402766)">1.0</text>
     </g>
    </g>
    <g id="ytick_4">
     <g id="line2d_4">
      <g>
       <use xlink:href="#ma9f86eb0b1" x="48.851283" y="83.550316" style="stroke: #000000; stroke-width: 0.8"/>
      </g>
     </g>
     <g id="text_5">
      <text style="font: 10px 'Arial', sans-serif; text-anchor: end" x="41.851283" y="87.129223" transform="rotate(-0 41.851283 87.129223)">1.5</text>
     </g>
    </g>
    <g id="ytick_5">
     <g id="line2d_5">
      <g>
       <use xlink:href="#ma9f86eb0b1" x="48.851283" y="32.276773" style="stroke: #000000; stroke-width: 0.8"/>
      </g>
     </g>
     <g id="text_6">
      <text style="font: 10px 'Arial', sans-serif; text-anchor: end" x="41.851283" y="35.855679" transform="rotate(-0 41.851283 35.855679)">2.0</text>
     </g>
    </g>
    <g id="text_7">
     <text style="font: 10px 'Arial', sans-serif; text-anchor: middle" x="21.846596" y="152.31998" transform="rotate(-90 21.846596 152.31998)">Activity</text>
    </g>
   </g>
   <g id="line2d_6">
    <path d="M 48.851283 249.862401 
L 60.011283 249.363913 
L 71.171283 252.361764 
L 82.331283 253.110006 
L 93.491283 252.067729 
L 104.651283 252.955133 
L 115.811283 259.439393 
L 126.971283 262.132509 
L 138.131283 264.97626 
L 149.291283 264.893133 
L 160.451283 263.121861 
L 171.611283 261.452557 
L 182.771283 259.411537 
L 193.931283 262.452233 
L 205.091283 267.879148 
L 216.251283 265.157844 
L 227.411283 261.34604 
L 238.571283 257.953975 
L 249.731283 254.346683 
L 260.891283 249.985523 
L 272.051283 248.786908 
L 283.211283 247.929888 
L 294.371283 251.85827 
L 305.531283 253.492818 
L 316.691283 247.857541 
L 327.851283 246.968979 
L 339.011283 252.377718 
L 350.171283 255.481269 
L 361.331283 252.609357 
L 372.491283 244.640262 
L 383.651283 236.380449 
L 394.811283 234.682786 
L 405.971283 238.237652 
" clip-path="url(#p497f642140)" style="fill: none; stroke: #1f77b4; stroke-width: 1.5; stroke-linecap: square"/>
   </g>
   <g id="line2d_7">
    <path d="M 48.851283 244.535476 
L 60.011283 250.627205 
L 71.171283 254.131745 
L 82.331283 254.890895 
L 93.491283 252.748625 
L 104.651283 251.838004 
L 115.811283 253.982781 
L 126.971283 257.168426 
L 138.131283 258.851272 
L 149.291283 260.996643 
L 160.451283 262.093011 
L 171.611283 257.424095 
L 182.771283 248.854241 
L 193.931283 241.772558 
L 205.091283 238.222415 
L 216.251283 239.951787 
L 227.411283 236.996809 
L 238.571283 219.120657 
L 249.731283 218.492467 
L 260.891283 219.54017 
L 272.051283 212.31535 
L 283.211283 203.523621 
L 294.371283 197.704765 
L 305.531283 192.761468 
L 316.691283 191.89706 
L 327.851283 186.130559 
L 339.011283 184.699273 
L 350.171283 174.070991 
L 361.331283 160.856762 
L 372.491283 138.059518 
L 383.651283 106.095349 
L 394.811283 76.635491 
L 405.971283 52.212435 
" clip-path="url(#p497f642140)" style="fill: none; stroke: #ff7f0e; stroke-width: 1.5; stroke-linecap: square"/>
   </g>
   <g id="line2d_8">
    <path d="M 82.331283 285.37598 
L 82.331283 19.26398 
" clip-path="url(#p497f642140)" style="fill: none; stroke-dasharray: 5.55,2.4; stroke-dashoffset: 0; stroke: #000000; stroke-opacity: 0.5; stroke-width: 1.5"/>
   </g>
   <g id="line2d_9">
    <path d="M 383.651283 285.37598 
L 383.651283 19.26398 
" clip-path="url(#p497f642140)" style="fill: none; stroke-dasharray: 5.55,2.4; stroke-dashoffset: 0; stroke: #000000; stroke-opacity: 0.5; stroke-width: 1.5"/>
   </g>
   <g id="patch_3">
    <path d="M 48.851283 285.37598 
L 405.971283 285.37598 
" style="fill: none; stroke: #000000; stroke-width: 0.8; stroke-linejoin: miter; stroke-linecap: square"/>
   </g>
   <g id="text_8">
    <text style="font: 6.94px 'Arial', sans-serif" transform="translate(10.097767 321.385533) rotate(-35)">-0.1s Sampling</text>
   </g>
   <g id="text_9">
    <text style="font: 6.94px 'Arial', sans-serif" transform="translate(57.794497 311.430872) rotate(-35)">Sampling</text>
   </g>
   <g id="text_10">
    <text style="font: 6.94px 'Arial', sans-serif" transform="translate(319.037191 339.456682) rotate(-35)">Movement to Lateral Port</text>
   </g>
   <g id="text_11">
    <text style="font: 8.33px 'Arial', sans-serif; text-anchor: middle" x="227.411283" y="13.26398" transform="rotate(-0 227.411283 13.26398)">gp4_81_S5_L50_D250_ALM - Trace:32_gp4_81_S5_L50_D250_ALM (when: correct)</text>
   </g>
   <g id="legend_1">
    <g id="patch_4">
     <path d="M 133.696342 354.133136 
L 321.126224 354.133136 
Q 322.514224 354.133136 322.514224 352.745136 
L 322.514224 343.45638 
Q 322.514224 342.06838 321.126224 342.06838 
L 133.696342 342.06838 
Q 132.308342 342.06838 132.308342 343.45638 
L 132.308342 352.745136 
Q 132.308342 354.133136 133.696342 354.133136 
z
" style="fill: #ffffff; opacity: 0.8; stroke: #cccccc; stroke-linejoin: miter"/>
    </g>
    <g id="line2d_10">
     <path d="M 135.084342 347.467483 
L 142.024342 347.467483 
L 148.964342 347.467483 
" style="fill: none; stroke: #1f77b4; stroke-width: 1.5; stroke-linecap: square"/>
    </g>
    <g id="text_12">
     <text style="font: 6.94px 'Arial', sans-serif; text-anchor: start" x="154.516342" y="349.896483" transform="rotate(-0 154.516342 349.896483)">DecisionRight (72 pts)</text>
    </g>
    <g id="line2d_11">
     <path d="M 236.664255 347.467483 
L 243.604255 347.467483 
L 250.544255 347.467483 
" style="fill: none; stroke: #ff7f0e; stroke-width: 1.5; stroke-linecap: square"/>
    </g>
    <g id="text_13">
     <text style="font: 6.94px 'Arial', sans-serif; text-anchor: start" x="256.096255" y="349.896483" transform="rotate(-0 256.096255 349.896483)">DecisionLeft (74 pts)</text>
    </g>
   </g>
  </g>
 </g>
 <defs>
  <clipPath id="p497f642140">
   <rect x="48.851283" y="19.26398" width="357.12" height="266.112"/>
  </clipPath>
 </defs>
</svg>
