<?xml version="1.0" encoding="utf-8" standalone="no"?>
<!DOCTYPE svg PUBLIC "-//W3C//DTD SVG 1.1//EN"
  "http://www.w3.org/Graphics/SVG/1.1/DTD/svg11.dtd">
<svg xmlns:xlink="http://www.w3.org/1999/xlink" width="413.171283pt" height="361.333136pt" viewBox="0 0 413.171283 361.333136" xmlns="http://www.w3.org/2000/svg" version="1.1">
 <metadata>
  <rdf:RDF xmlns:dc="http://purl.org/dc/elements/1.1/" xmlns:cc="http://creativecommons.org/ns#" xmlns:rdf="http://www.w3.org/1999/02/22-rdf-syntax-ns#">
   <cc:Work>
    <dc:type rdf:resource="http://purl.org/dc/dcmitype/StillImage"/>
    <dc:date>2025-12-30T01:47:30.884376</dc:date>
    <dc:format>image/svg+xml</dc:format>
    <dc:creator>
     <cc:Agent>
      <dc:title>Matplotlib v3.8.0, https://matplotlib.org/</dc:title>
     </cc:Agent>
    </dc:creator>
   </cc:Work>
  </rdf:RDF>
 </metadata>
 <defs>
  <style type="text/css">*{stroke-linejoin: round; stroke-linecap: butt}</style>
 </defs>
 <g id="figure_1">
  <g id="patch_1">
   <path d="M 0 361.333136 
L 413.171283 361.333136 
L 413.171283 -0 
L 0 -0 
z
" style="fill: #ffffff"/>
  </g>
  <g id="axes_1">
   <g id="patch_2">
    <path d="M 48.851283 285.37598 
L 405.971283 285.37598 
L 405.971283 19.26398 
L 48.851283 19.26398 
z
" style="fill: #ffffff"/>
   </g>
   <g id="PolyCollection_1">
    <defs>
     <path id="me60fb8efc9" d="M 48.851283 -135.021263 
L 48.851283 -107.070147 
L 60.011283 -108.972035 
L 71.171283 -114.493056 
L 82.331283 -118.93021 
L 93.491283 -123.705967 
L 104.651283 -127.263947 
L 115.811283 -125.802516 
L 126.971283 -124.731397 
L 138.131283 -129.096905 
L 149.291283 -136.366616 
L 160.451283 -151.038646 
L 171.611283 -170.789502 
L 182.771283 -185.475931 
L 193.931283 -192.480894 
L 205.091283 -196.402654 
L 216.251283 -200.455593 
L 227.411283 -202.435886 
L 238.571283 -206.660906 
L 249.731283 -217.801455 
L 260.891283 -223.620553 
L 272.051283 -220.622255 
L 283.211283 -222.414115 
L 294.371283 -230.76355 
L 305.531283 -237.023624 
L 316.691283 -236.594364 
L 327.851283 -231.313692 
L 339.011283 -225.740089 
L 350.171283 -218.457746 
L 361.331283 -206.186185 
L 372.491283 -197.555736 
L 383.651283 -198.909312 
L 394.811283 -198.480574 
L 405.971283 -194.883892 
L 405.971283 -291.225595 
L 405.971283 -291.225595 
L 394.811283 -295.88881 
L 383.651283 -295.623326 
L 372.491283 -293.994643 
L 361.331283 -303.860794 
L 350.171283 -316.961342 
L 339.011283 -322.481345 
L 327.851283 -324.695008 
L 316.691283 -329.027475 
L 305.531283 -329.973156 
L 294.371283 -320.708525 
L 283.211283 -309.775363 
L 272.051283 -309.039922 
L 260.891283 -312.227505 
L 249.731283 -300.306545 
L 238.571283 -281.516298 
L 227.411283 -277.861608 
L 216.251283 -279.207999 
L 205.091283 -271.579167 
L 193.931283 -264.557839 
L 182.771283 -255.815434 
L 171.611283 -238.758856 
L 160.451283 -217.150988 
L 149.291283 -202.036587 
L 138.131283 -193.102041 
L 126.971283 -184.78007 
L 115.811283 -179.604849 
L 104.651283 -175.564518 
L 93.491283 -168.618283 
L 82.331283 -159.676557 
L 71.171283 -150.539441 
L 60.011283 -141.399456 
L 48.851283 -135.021263 
z
" style="stroke: #1f77b4; stroke-opacity: 0.2"/>
    </defs>
    <g clip-path="url(#p4cc57f3a4f)">
     <use xlink:href="#me60fb8efc9" x="0" y="361.333136" style="fill: #1f77b4; fill-opacity: 0.2; stroke: #1f77b4; stroke-opacity: 0.2"/>
    </g>
   </g>
   <g id="PolyCollection_2">
    <defs>
     <path id="m0dac12d925" d="M 48.851283 -104.281854 
L 48.851283 -88.053156 
L 60.011283 -94.880256 
L 71.171283 -95.978564 
L 82.331283 -94.771416 
L 93.491283 -95.919899 
L 104.651283 -105.231563 
L 115.811283 -116.63386 
L 126.971283 -123.744873 
L 138.131283 -135.17618 
L 149.291283 -151.305404 
L 160.451283 -161.623882 
L 171.611283 -167.218571 
L 182.771283 -182.617719 
L 193.931283 -199.828765 
L 205.091283 -208.663386 
L 216.251283 -211.029121 
L 227.411283 -221.979122 
L 238.571283 -227.121259 
L 249.731283 -226.830211 
L 260.891283 -218.726793 
L 272.051283 -220.209092 
L 283.211283 -225.602136 
L 294.371283 -222.291692 
L 305.531283 -215.234249 
L 316.691283 -220.807562 
L 327.851283 -229.580135 
L 339.011283 -231.683105 
L 350.171283 -235.015441 
L 361.331283 -228.801922 
L 372.491283 -226.827037 
L 383.651283 -227.757501 
L 394.811283 -224.195893 
L 405.971283 -214.851186 
L 405.971283 -298.843219 
L 405.971283 -298.843219 
L 394.811283 -310.900493 
L 383.651283 -318.016796 
L 372.491283 -320.345627 
L 361.331283 -323.748308 
L 350.171283 -328.197996 
L 339.011283 -321.615894 
L 327.851283 -317.174905 
L 316.691283 -302.662961 
L 305.531283 -294.016523 
L 294.371283 -301.748635 
L 283.211283 -306.559988 
L 272.051283 -300.317208 
L 260.891283 -297.092564 
L 249.731283 -305.269645 
L 238.571283 -305.132259 
L 227.411283 -301.115073 
L 216.251283 -288.138212 
L 205.091283 -283.207065 
L 193.931283 -269.872138 
L 182.771283 -248.512135 
L 171.611283 -230.872666 
L 160.451283 -219.781266 
L 149.291283 -206.195678 
L 138.131283 -188.041409 
L 126.971283 -173.602222 
L 115.811283 -158.775231 
L 104.651283 -130.722366 
L 93.491283 -112.686863 
L 82.331283 -111.937642 
L 71.171283 -114.06911 
L 60.011283 -112.20957 
L 48.851283 -104.281854 
z
" style="stroke: #ff7f0e; stroke-opacity: 0.2"/>
    </defs>
    <g clip-path="url(#p4cc57f3a4f)">
     <use xlink:href="#m0dac12d925" x="0" y="361.333136" style="fill: #ff7f0e; fill-opacity: 0.2; stroke: #ff7f0e; stroke-opacity: 0.2"/>
    </g>
   </g>
   <g id="matplotlib.axis_1">
    <g id="text_1">
     <text style="font: 10px 'Arial', sans-serif; text-anchor: middle" x="227.411283" y="296.533792" transform="rotate(-0 227.411283 296.533792)">Time</text>
    </g>
   </g>
   <g id="matplotlib.axis_2">
    <g id="ytick_1">
     <g id="line2d_1">
      <defs>
       <path id="me410fab1c7" d="M 0 0 
L -3.5 0 
" style="stroke: #000000; stroke-width: 0.8"/>
      </defs>
      <g>
       <use xlink:href="#me410fab1c7" x="48.851283" y="262.274038" style="stroke: #000000; stroke-width: 0.8"/>
      </g>
     </g>
     <g id="text_2">
      <text style="font: 10px 'Arial', sans-serif; text-anchor: end" x="41.851283" y="265.852944" transform="rotate(-0 41.851283 265.852944)">−0.2</text>
     </g>
    </g>
    <g id="ytick_2">
     <g id="line2d_2">
      <g>
       <use xlink:href="#me410fab1c7" x="48.851283" y="232.308407" style="stroke: #000000; stroke-width: 0.8"/>
      </g>
     </g>
     <g id="text_3">
      <text style="font: 10px 'Arial', sans-serif; text-anchor: end" x="41.851283" y="235.887313" transform="rotate(-0 41.851283 235.887313)">−0.1</text>
     </g>
    </g>
    <g id="ytick_3">
     <g id="line2d_3">
      <g>
       <use xlink:href="#me410fab1c7" x="48.851283" y="202.342775" style="stroke: #000000; stroke-width: 0.8"/>
      </g>
     </g>
     <g id="text_4">
      <text style="font: 10px 'Arial', sans-serif; text-anchor: end" x="41.851283" y="205.921681" transform="rotate(-0 41.851283 205.921681)">0.0</text>
     </g>
    </g>
    <g id="ytick_4">
     <g id="line2d_4">
      <g>
       <use xlink:href="#me410fab1c7" x="48.851283" y="172.377144" style="stroke: #000000; stroke-width: 0.8"/>
      </g>
     </g>
     <g id="text_5">
      <text style="font: 10px 'Arial', sans-serif; text-anchor: end" x="41.851283" y="175.95605" transform="rotate(-0 41.851283 175.95605)">0.1</text>
     </g>
    </g>
    <g id="ytick_5">
     <g id="line2d_5">
      <g>
       <use xlink:href="#me410fab1c7" x="48.851283" y="142.411512" style="stroke: #000000; stroke-width: 0.8"/>
      </g>
     </g>
     <g id="text_6">
      <text style="font: 10px 'Arial', sans-serif; text-anchor: end" x="41.851283" y="145.990419" transform="rotate(-0 41.851283 145.990419)">0.2</text>
     </g>
    </g>
    <g id="ytick_6">
     <g id="line2d_6">
      <g>
       <use xlink:href="#me410fab1c7" x="48.851283" y="112.445881" style="stroke: #000000; stroke-width: 0.8"/>
      </g>
     </g>
     <g id="text_7">
      <text style="font: 10px 'Arial', sans-serif; text-anchor: end" x="41.851283" y="116.024787" transform="rotate(-0 41.851283 116.024787)">0.3</text>
     </g>
    </g>
    <g id="ytick_7">
     <g id="line2d_7">
      <g>
       <use xlink:href="#me410fab1c7" x="48.851283" y="82.480249" style="stroke: #000000; stroke-width: 0.8"/>
      </g>
     </g>
     <g id="text_8">
      <text style="font: 10px 'Arial', sans-serif; text-anchor: end" x="41.851283" y="86.059156" transform="rotate(-0 41.851283 86.059156)">0.4</text>
     </g>
    </g>
    <g id="ytick_8">
     <g id="line2d_8">
      <g>
       <use xlink:href="#me410fab1c7" x="48.851283" y="52.514618" style="stroke: #000000; stroke-width: 0.8"/>
      </g>
     </g>
     <g id="text_9">
      <text style="font: 10px 'Arial', sans-serif; text-anchor: end" x="41.851283" y="56.093524" transform="rotate(-0 41.851283 56.093524)">0.5</text>
     </g>
    </g>
    <g id="ytick_9">
     <g id="line2d_9">
      <g>
       <use xlink:href="#me410fab1c7" x="48.851283" y="22.548986" style="stroke: #000000; stroke-width: 0.8"/>
      </g>
     </g>
     <g id="text_10">
      <text style="font: 10px 'Arial', sans-serif; text-anchor: end" x="41.851283" y="26.127893" transform="rotate(-0 41.851283 26.127893)">0.6</text>
     </g>
    </g>
    <g id="text_11">
     <text style="font: 10px 'Arial', sans-serif; text-anchor: middle" x="16.005971" y="152.31998" transform="rotate(-90 16.005971 152.31998)">Activity</text>
    </g>
   </g>
   <g id="line2d_10">
    <path d="M 48.851283 240.287431 
L 60.011283 236.14739 
L 71.171283 228.816888 
L 82.331283 222.029754 
L 93.491283 215.171011 
L 104.651283 209.918903 
L 115.811283 208.629453 
L 126.971283 206.577403 
L 138.131283 200.233663 
L 149.291283 192.131533 
L 160.451283 177.23832 
L 171.611283 156.558958 
L 182.771283 140.687456 
L 193.931283 132.813769 
L 205.091283 127.342223 
L 216.251283 121.50134 
L 227.411283 121.184389 
L 238.571283 117.244532 
L 249.731283 102.279136 
L 260.891283 93.409105 
L 272.051283 96.502043 
L 283.211283 95.238401 
L 294.371283 85.597101 
L 305.531283 77.834741 
L 316.691283 78.522217 
L 327.851283 83.328784 
L 339.011283 87.222417 
L 350.171283 93.623597 
L 361.331283 106.309646 
L 372.491283 115.557944 
L 383.651283 114.066817 
L 394.811283 114.148442 
L 405.971283 118.278393 
" clip-path="url(#p4cc57f3a4f)" style="fill: none; stroke: #1f77b4; stroke-width: 1.5; stroke-linecap: square"/>
   </g>
   <g id="line2d_11">
    <path d="M 48.851283 265.165631 
L 60.011283 257.788223 
L 71.171283 256.309299 
L 82.331283 257.978607 
L 93.491283 257.029755 
L 104.651283 243.356171 
L 115.811283 223.628591 
L 126.971283 212.659588 
L 138.131283 199.72434 
L 149.291283 182.582596 
L 160.451283 170.630561 
L 171.611283 162.287518 
L 182.771283 145.76821 
L 193.931283 126.482685 
L 205.091283 115.39791 
L 216.251283 111.749472 
L 227.411283 99.786039 
L 238.571283 95.206377 
L 249.731283 95.283206 
L 260.891283 103.423457 
L 272.051283 101.069988 
L 283.211283 95.252074 
L 294.371283 99.312975 
L 305.531283 106.707748 
L 316.691283 99.597874 
L 327.851283 87.955616 
L 339.011283 84.683641 
L 350.171283 79.726417 
L 361.331283 85.058023 
L 372.491283 87.746804 
L 383.651283 88.445987 
L 394.811283 93.784943 
L 405.971283 104.485931 
" clip-path="url(#p4cc57f3a4f)" style="fill: none; stroke: #ff7f0e; stroke-width: 1.5; stroke-linecap: square"/>
   </g>
   <g id="line2d_12">
    <path d="M 82.331283 285.37598 
L 82.331283 19.26398 
" clip-path="url(#p4cc57f3a4f)" style="fill: none; stroke-dasharray: 5.55,2.4; stroke-dashoffset: 0; stroke: #000000; stroke-opacity: 0.5; stroke-width: 1.5"/>
   </g>
   <g id="line2d_13">
    <path d="M 383.651283 285.37598 
L 383.651283 19.26398 
" clip-path="url(#p4cc57f3a4f)" style="fill: none; stroke-dasharray: 5.55,2.4; stroke-dashoffset: 0; stroke: #000000; stroke-opacity: 0.5; stroke-width: 1.5"/>
   </g>
   <g id="patch_3">
    <path d="M 48.851283 285.37598 
L 405.971283 285.37598 
" style="fill: none; stroke: #000000; stroke-width: 0.8; stroke-linejoin: miter; stroke-linecap: square"/>
   </g>
   <g id="text_12">
    <text style="font: 6.94px 'Arial', sans-serif" transform="translate(10.097767 321.385533) rotate(-35)">-0.1s Sampling</text>
   </g>
   <g id="text_13">
    <text style="font: 6.94px 'Arial', sans-serif" transform="translate(57.794497 311.430872) rotate(-35)">Sampling</text>
   </g>
   <g id="text_14">
    <text style="font: 6.94px 'Arial', sans-serif" transform="translate(319.037191 339.456682) rotate(-35)">Movement to Lateral Port</text>
   </g>
   <g id="text_15">
    <text style="font: 8.33px 'Arial', sans-serif; text-anchor: middle" x="227.411283" y="13.26398" transform="rotate(-0 227.411283 13.26398)">GP4_23_S1_L50_D250_mm2 - Trace:10_GP4_23_S1_L50_D250_mm2 (when: correct)</text>
   </g>
   <g id="legend_1">
    <g id="patch_4">
     <path d="M 129.837052 354.133136 
L 324.985514 354.133136 
Q 326.373514 354.133136 326.373514 352.745136 
L 326.373514 343.45638 
Q 326.373514 342.06838 324.985514 342.06838 
L 129.837052 342.06838 
Q 128.449052 342.06838 128.449052 343.45638 
L 128.449052 352.745136 
Q 128.449052 354.133136 129.837052 354.133136 
z
" style="fill: #ffffff; opacity: 0.8; stroke: #cccccc; stroke-linejoin: miter"/>
    </g>
    <g id="line2d_14">
     <path d="M 131.225052 347.467483 
L 138.165052 347.467483 
L 145.105052 347.467483 
" style="fill: none; stroke: #1f77b4; stroke-width: 1.5; stroke-linecap: square"/>
    </g>
    <g id="text_16">
     <text style="font: 6.94px 'Arial', sans-serif; text-anchor: start" x="150.657052" y="349.896483" transform="rotate(-0 150.657052 349.896483)">DecisionRight (100 pts)</text>
    </g>
    <g id="line2d_15">
     <path d="M 236.664255 347.467483 
L 243.604255 347.467483 
L 250.544255 347.467483 
" style="fill: none; stroke: #ff7f0e; stroke-width: 1.5; stroke-linecap: square"/>
    </g>
    <g id="text_17">
     <text style="font: 6.94px 'Arial', sans-serif; text-anchor: start" x="256.096255" y="349.896483" transform="rotate(-0 256.096255 349.896483)">DecisionLeft (102 pts)</text>
    </g>
   </g>
  </g>
 </g>
 <defs>
  <clipPath id="p4cc57f3a4f">
   <rect x="48.851283" y="19.26398" width="357.12" height="266.112"/>
  </clipPath>
 </defs>
</svg>
