<?xml version="1.0" encoding="utf-8" standalone="no"?>
<!DOCTYPE svg PUBLIC "-//W3C//DTD SVG 1.1//EN"
  "http://www.w3.org/Graphics/SVG/1.1/DTD/svg11.dtd">
<svg xmlns:xlink="http://www.w3.org/1999/xlink" width="413.171283pt" height="361.333136pt" viewBox="0 0 413.171283 361.333136" xmlns="http://www.w3.org/2000/svg" version="1.1">
 <metadata>
  <rdf:RDF xmlns:dc="http://purl.org/dc/elements/1.1/" xmlns:cc="http://creativecommons.org/ns#" xmlns:rdf="http://www.w3.org/1999/02/22-rdf-syntax-ns#">
   <cc:Work>
    <dc:type rdf:resource="http://purl.org/dc/dcmitype/StillImage"/>
    <dc:date>2025-12-30T01:47:28.701618</dc:date>
    <dc:format>image/svg+xml</dc:format>
    <dc:creator>
     <cc:Agent>
      <dc:title>Matplotlib v3.8.0, https://matplotlib.org/</dc:title>
     </cc:Agent>
    </dc:creator>
   </cc:Work>
  </rdf:RDF>
 </metadata>
 <defs>
  <style type="text/css">*{stroke-linejoin: round; stroke-linecap: butt}</style>
 </defs>
 <g id="figure_1">
  <g id="patch_1">
   <path d="M 0 361.333136 
L 413.171283 361.333136 
L 413.171283 -0 
L 0 -0 
z
" style="fill: #ffffff"/>
  </g>
  <g id="axes_1">
   <g id="patch_2">
    <path d="M 48.851283 285.37598 
L 405.971283 285.37598 
L 405.971283 19.26398 
L 48.851283 19.26398 
z
" style="fill: #ffffff"/>
   </g>
   <g id="PolyCollection_1">
    <defs>
     <path id="m2deb7d189d" d="M 48.851283 -260.892317 
L 48.851283 -202.3926 
L 60.011283 -218.947278 
L 71.171283 -237.435783 
L 82.331283 -243.543266 
L 93.491283 -251.889972 
L 104.651283 -253.604537 
L 115.811283 -239.110901 
L 126.971283 -232.978077 
L 138.131283 -223.06378 
L 149.291283 -208.516576 
L 160.451283 -192.307532 
L 171.611283 -182.95036 
L 182.771283 -182.809589 
L 193.931283 -187.357939 
L 205.091283 -187.5073 
L 216.251283 -189.671573 
L 227.411283 -184.819394 
L 238.571283 -170.977768 
L 249.731283 -160.936694 
L 260.891283 -159.772301 
L 272.051283 -160.875815 
L 283.211283 -157.132671 
L 294.371283 -149.584109 
L 305.531283 -147.369773 
L 316.691283 -152.078017 
L 327.851283 -152.598673 
L 339.011283 -150.127749 
L 350.171283 -140.527202 
L 361.331283 -120.435257 
L 372.491283 -103.522677 
L 383.651283 -88.053156 
L 394.811283 -91.09862 
L 405.971283 -107.018578 
L 405.971283 -133.795791 
L 405.971283 -133.795791 
L 394.811283 -117.248024 
L 383.651283 -114.31387 
L 372.491283 -131.996814 
L 361.331283 -149.538851 
L 350.171283 -170.371217 
L 339.011283 -179.520793 
L 327.851283 -180.936066 
L 316.691283 -181.682093 
L 305.531283 -180.106402 
L 294.371283 -183.188166 
L 283.211283 -190.094636 
L 272.051283 -194.407637 
L 260.891283 -194.844672 
L 249.731283 -196.259132 
L 238.571283 -207.747349 
L 227.411283 -225.386066 
L 216.251283 -233.643594 
L 205.091283 -233.402337 
L 193.931283 -236.727602 
L 182.771283 -237.553202 
L 171.611283 -237.187372 
L 160.451283 -243.90385 
L 149.291283 -261.541245 
L 138.131283 -280.58652 
L 126.971283 -294.734711 
L 115.811283 -304.133189 
L 104.651283 -319.004369 
L 93.491283 -316.887608 
L 82.331283 -308.204984 
L 71.171283 -301.338969 
L 60.011283 -280.065003 
L 48.851283 -260.892317 
z
" style="stroke: #1f77b4; stroke-opacity: 0.2"/>
    </defs>
    <g clip-path="url(#pe6049da735)">
     <use xlink:href="#m2deb7d189d" x="0" y="361.333136" style="fill: #1f77b4; fill-opacity: 0.2; stroke: #1f77b4; stroke-opacity: 0.2"/>
    </g>
   </g>
   <g id="PolyCollection_2">
    <defs>
     <path id="m000de72dff" d="M 48.851283 -312.619156 
L 48.851283 -232.965353 
L 60.011283 -222.239441 
L 71.171283 -229.113278 
L 82.331283 -251.850612 
L 93.491283 -257.270636 
L 104.651283 -251.060117 
L 115.811283 -239.662876 
L 126.971283 -226.467367 
L 138.131283 -226.054618 
L 149.291283 -229.530478 
L 160.451283 -223.055236 
L 171.611283 -213.843368 
L 182.771283 -206.848289 
L 193.931283 -205.23945 
L 205.091283 -203.521396 
L 216.251283 -200.653702 
L 227.411283 -189.697589 
L 238.571283 -182.447894 
L 249.731283 -178.416247 
L 260.891283 -164.719744 
L 272.051283 -163.691593 
L 283.211283 -164.258063 
L 294.371283 -163.417969 
L 305.531283 -156.991487 
L 316.691283 -146.569703 
L 327.851283 -140.590792 
L 339.011283 -145.16475 
L 350.171283 -153.759452 
L 361.331283 -136.264394 
L 372.491283 -132.518045 
L 383.651283 -141.597721 
L 394.811283 -146.241108 
L 405.971283 -141.300185 
L 405.971283 -189.31045 
L 405.971283 -189.31045 
L 394.811283 -183.820292 
L 383.651283 -171.525456 
L 372.491283 -161.06688 
L 361.331283 -166.884309 
L 350.171283 -184.027748 
L 339.011283 -173.083302 
L 327.851283 -169.819548 
L 316.691283 -177.127075 
L 305.531283 -190.241755 
L 294.371283 -196.540231 
L 283.211283 -195.765549 
L 272.051283 -193.93687 
L 260.891283 -197.089874 
L 249.731283 -214.108341 
L 238.571283 -220.821549 
L 227.411283 -231.94617 
L 216.251283 -243.690186 
L 205.091283 -246.502653 
L 193.931283 -250.939907 
L 182.771283 -255.276479 
L 171.611283 -262.003328 
L 160.451283 -275.536778 
L 149.291283 -286.160153 
L 138.131283 -285.068663 
L 126.971283 -292.506377 
L 115.811283 -312.190371 
L 104.651283 -322.937295 
L 93.491283 -329.973156 
L 82.331283 -325.683045 
L 71.171283 -304.329942 
L 60.011283 -299.2233 
L 48.851283 -312.619156 
z
" style="stroke: #ff7f0e; stroke-opacity: 0.2"/>
    </defs>
    <g clip-path="url(#pe6049da735)">
     <use xlink:href="#m000de72dff" x="0" y="361.333136" style="fill: #ff7f0e; fill-opacity: 0.2; stroke: #ff7f0e; stroke-opacity: 0.2"/>
    </g>
   </g>
   <g id="matplotlib.axis_1">
    <g id="text_1">
     <text style="font: 10px 'Arial', sans-serif; text-anchor: middle" x="227.411283" y="296.533792" transform="rotate(-0 227.411283 296.533792)">Time</text>
    </g>
   </g>
   <g id="matplotlib.axis_2">
    <g id="ytick_1">
     <g id="line2d_1">
      <defs>
       <path id="m8f40140a99" d="M 0 0 
L -3.5 0 
" style="stroke: #000000; stroke-width: 0.8"/>
      </defs>
      <g>
       <use xlink:href="#m8f40140a99" x="48.851283" y="248.821353" style="stroke: #000000; stroke-width: 0.8"/>
      </g>
     </g>
     <g id="text_2">
      <text style="font: 10px 'Arial', sans-serif; text-anchor: end" x="41.851283" y="252.40026" transform="rotate(-0 41.851283 252.40026)">−0.2</text>
     </g>
    </g>
    <g id="ytick_2">
     <g id="line2d_2">
      <g>
       <use xlink:href="#m8f40140a99" x="48.851283" y="203.568721" style="stroke: #000000; stroke-width: 0.8"/>
      </g>
     </g>
     <g id="text_3">
      <text style="font: 10px 'Arial', sans-serif; text-anchor: end" x="41.851283" y="207.147628" transform="rotate(-0 41.851283 207.147628)">0.0</text>
     </g>
    </g>
    <g id="ytick_3">
     <g id="line2d_3">
      <g>
       <use xlink:href="#m8f40140a99" x="48.851283" y="158.316089" style="stroke: #000000; stroke-width: 0.8"/>
      </g>
     </g>
     <g id="text_4">
      <text style="font: 10px 'Arial', sans-serif; text-anchor: end" x="41.851283" y="161.894996" transform="rotate(-0 41.851283 161.894996)">0.2</text>
     </g>
    </g>
    <g id="ytick_4">
     <g id="line2d_4">
      <g>
       <use xlink:href="#m8f40140a99" x="48.851283" y="113.063457" style="stroke: #000000; stroke-width: 0.8"/>
      </g>
     </g>
     <g id="text_5">
      <text style="font: 10px 'Arial', sans-serif; text-anchor: end" x="41.851283" y="116.642363" transform="rotate(-0 41.851283 116.642363)">0.4</text>
     </g>
    </g>
    <g id="ytick_5">
     <g id="line2d_5">
      <g>
       <use xlink:href="#m8f40140a99" x="48.851283" y="67.810825" style="stroke: #000000; stroke-width: 0.8"/>
      </g>
     </g>
     <g id="text_6">
      <text style="font: 10px 'Arial', sans-serif; text-anchor: end" x="41.851283" y="71.389731" transform="rotate(-0 41.851283 71.389731)">0.6</text>
     </g>
    </g>
    <g id="ytick_6">
     <g id="line2d_6">
      <g>
       <use xlink:href="#m8f40140a99" x="48.851283" y="22.558193" style="stroke: #000000; stroke-width: 0.8"/>
      </g>
     </g>
     <g id="text_7">
      <text style="font: 10px 'Arial', sans-serif; text-anchor: end" x="41.851283" y="26.137099" transform="rotate(-0 41.851283 26.137099)">0.8</text>
     </g>
    </g>
    <g id="text_8">
     <text style="font: 10px 'Arial', sans-serif; text-anchor: middle" x="16.005971" y="152.31998" transform="rotate(-90 16.005971 152.31998)">Activity</text>
    </g>
   </g>
   <g id="line2d_7">
    <path d="M 48.851283 129.690678 
L 60.011283 111.826995 
L 71.171283 91.945763 
L 82.331283 85.459011 
L 93.491283 76.944346 
L 104.651283 75.028679 
L 115.811283 89.711091 
L 126.971283 97.476739 
L 138.131283 109.507986 
L 149.291283 126.304225 
L 160.451283 143.227445 
L 171.611283 151.264269 
L 182.771283 151.151739 
L 193.931283 149.290365 
L 205.091283 150.878317 
L 216.251283 149.675552 
L 227.411283 156.230407 
L 238.571283 171.970578 
L 249.731283 182.735223 
L 260.891283 184.02465 
L 272.051283 183.691411 
L 283.211283 187.719482 
L 294.371283 194.946998 
L 305.531283 197.595049 
L 316.691283 194.453081 
L 327.851283 194.565767 
L 339.011283 196.508865 
L 350.171283 205.883926 
L 361.331283 226.346083 
L 372.491283 243.57339 
L 383.651283 260.149623 
L 394.811283 257.159814 
L 405.971283 240.925951 
" clip-path="url(#pe6049da735)" style="fill: none; stroke: #1f77b4; stroke-width: 1.5; stroke-linecap: square"/>
   </g>
   <g id="line2d_8">
    <path d="M 48.851283 88.540882 
L 60.011283 100.601765 
L 71.171283 94.611526 
L 82.331283 72.566304 
L 93.491283 67.711237 
L 104.651283 74.33443 
L 115.811283 85.406509 
L 126.971283 101.846264 
L 138.131283 105.771496 
L 149.291283 103.487821 
L 160.451283 112.037126 
L 171.611283 123.409788 
L 182.771283 130.270752 
L 193.931283 133.243457 
L 205.091283 136.321113 
L 216.251283 139.161194 
L 227.411283 150.511256 
L 238.571283 159.698414 
L 249.731283 165.070841 
L 260.891283 180.428326 
L 272.051283 182.518904 
L 283.211283 181.321331 
L 294.371283 181.354037 
L 305.531283 187.716515 
L 316.691283 199.484747 
L 327.851283 206.127966 
L 339.011283 202.20911 
L 350.171283 192.439536 
L 361.331283 209.758784 
L 372.491283 214.540674 
L 383.651283 204.771547 
L 394.811283 196.302436 
L 405.971283 196.027818 
" clip-path="url(#pe6049da735)" style="fill: none; stroke: #ff7f0e; stroke-width: 1.5; stroke-linecap: square"/>
   </g>
   <g id="line2d_9">
    <path d="M 82.331283 285.37598 
L 82.331283 19.26398 
" clip-path="url(#pe6049da735)" style="fill: none; stroke-dasharray: 5.55,2.4; stroke-dashoffset: 0; stroke: #000000; stroke-opacity: 0.5; stroke-width: 1.5"/>
   </g>
   <g id="line2d_10">
    <path d="M 383.651283 285.37598 
L 383.651283 19.26398 
" clip-path="url(#pe6049da735)" style="fill: none; stroke-dasharray: 5.55,2.4; stroke-dashoffset: 0; stroke: #000000; stroke-opacity: 0.5; stroke-width: 1.5"/>
   </g>
   <g id="patch_3">
    <path d="M 48.851283 285.37598 
L 405.971283 285.37598 
" style="fill: none; stroke: #000000; stroke-width: 0.8; stroke-linejoin: miter; stroke-linecap: square"/>
   </g>
   <g id="text_9">
    <text style="font: 6.94px 'Arial', sans-serif" transform="translate(10.097767 321.385533) rotate(-35)">-0.1s Sampling</text>
   </g>
   <g id="text_10">
    <text style="font: 6.94px 'Arial', sans-serif" transform="translate(57.794497 311.430872) rotate(-35)">Sampling</text>
   </g>
   <g id="text_11">
    <text style="font: 6.94px 'Arial', sans-serif" transform="translate(319.037191 339.456682) rotate(-35)">Movement to Lateral Port</text>
   </g>
   <g id="text_12">
    <text style="font: 8.33px 'Arial', sans-serif; text-anchor: middle" x="227.411283" y="13.26398" transform="rotate(-0 227.411283 13.26398)">GP4_23_S1_L50_D250_mm2 - Trace:145_GP4_23_S1_L50_D250_mm2 (when: correct)</text>
   </g>
   <g id="legend_1">
    <g id="patch_4">
     <path d="M 129.837052 354.133136 
L 324.985514 354.133136 
Q 326.373514 354.133136 326.373514 352.745136 
L 326.373514 343.45638 
Q 326.373514 342.06838 324.985514 342.06838 
L 129.837052 342.06838 
Q 128.449052 342.06838 128.449052 343.45638 
L 128.449052 352.745136 
Q 128.449052 354.133136 129.837052 354.133136 
z
" style="fill: #ffffff; opacity: 0.8; stroke: #cccccc; stroke-linejoin: miter"/>
    </g>
    <g id="line2d_11">
     <path d="M 131.225052 347.467483 
L 138.165052 347.467483 
L 145.105052 347.467483 
" style="fill: none; stroke: #1f77b4; stroke-width: 1.5; stroke-linecap: square"/>
    </g>
    <g id="text_13">
     <text style="font: 6.94px 'Arial', sans-serif; text-anchor: start" x="150.657052" y="349.896483" transform="rotate(-0 150.657052 349.896483)">DecisionRight (100 pts)</text>
    </g>
    <g id="line2d_12">
     <path d="M 236.664255 347.467483 
L 243.604255 347.467483 
L 250.544255 347.467483 
" style="fill: none; stroke: #ff7f0e; stroke-width: 1.5; stroke-linecap: square"/>
    </g>
    <g id="text_14">
     <text style="font: 6.94px 'Arial', sans-serif; text-anchor: start" x="256.096255" y="349.896483" transform="rotate(-0 256.096255 349.896483)">DecisionLeft (102 pts)</text>
    </g>
   </g>
  </g>
 </g>
 <defs>
  <clipPath id="pe6049da735">
   <rect x="48.851283" y="19.26398" width="357.12" height="266.112"/>
  </clipPath>
 </defs>
</svg>
