<?xml version="1.0" encoding="utf-8" standalone="no"?>
<!DOCTYPE svg PUBLIC "-//W3C//DTD SVG 1.1//EN"
  "http://www.w3.org/Graphics/SVG/1.1/DTD/svg11.dtd">
<svg xmlns:xlink="http://www.w3.org/1999/xlink" width="413.171283pt" height="361.333136pt" viewBox="0 0 413.171283 361.333136" xmlns="http://www.w3.org/2000/svg" version="1.1">
 <metadata>
  <rdf:RDF xmlns:dc="http://purl.org/dc/elements/1.1/" xmlns:cc="http://creativecommons.org/ns#" xmlns:rdf="http://www.w3.org/1999/02/22-rdf-syntax-ns#">
   <cc:Work>
    <dc:type rdf:resource="http://purl.org/dc/dcmitype/StillImage"/>
    <dc:date>2025-12-30T01:47:19.271877</dc:date>
    <dc:format>image/svg+xml</dc:format>
    <dc:creator>
     <cc:Agent>
      <dc:title>Matplotlib v3.8.0, https://matplotlib.org/</dc:title>
     </cc:Agent>
    </dc:creator>
   </cc:Work>
  </rdf:RDF>
 </metadata>
 <defs>
  <style type="text/css">*{stroke-linejoin: round; stroke-linecap: butt}</style>
 </defs>
 <g id="figure_1">
  <g id="patch_1">
   <path d="M 0 361.333136 
L 413.171283 361.333136 
L 413.171283 -0 
L 0 -0 
z
" style="fill: #ffffff"/>
  </g>
  <g id="axes_1">
   <g id="patch_2">
    <path d="M 48.851283 285.37598 
L 405.971283 285.37598 
L 405.971283 19.26398 
L 48.851283 19.26398 
z
" style="fill: #ffffff"/>
   </g>
   <g id="PolyCollection_1">
    <defs>
     <path id="m61985cf07f" d="M 48.851283 -167.940527 
L 48.851283 -105.202478 
L 60.011283 -106.655125 
L 71.171283 -119.505031 
L 82.331283 -127.983493 
L 93.491283 -136.913239 
L 104.651283 -141.634369 
L 115.811283 -144.098702 
L 126.971283 -143.330557 
L 138.131283 -145.164946 
L 149.291283 -143.197251 
L 160.451283 -146.272006 
L 171.611283 -146.694238 
L 182.771283 -146.000926 
L 193.931283 -150.046213 
L 205.091283 -161.015677 
L 216.251283 -178.004632 
L 227.411283 -191.109198 
L 238.571283 -193.602369 
L 249.731283 -192.503282 
L 260.891283 -193.448396 
L 272.051283 -198.523642 
L 283.211283 -196.64891 
L 294.371283 -190.324564 
L 305.531283 -173.706006 
L 316.691283 -161.791535 
L 327.851283 -156.403775 
L 339.011283 -152.504727 
L 350.171283 -142.517371 
L 361.331283 -133.072912 
L 372.491283 -117.011529 
L 383.651283 -99.310537 
L 394.811283 -88.053156 
L 405.971283 -97.816596 
L 405.971283 -218.314996 
L 405.971283 -218.314996 
L 394.811283 -209.582349 
L 383.651283 -222.500703 
L 372.491283 -243.149018 
L 361.331283 -260.314984 
L 350.171283 -265.560055 
L 339.011283 -264.522098 
L 327.851283 -260.633172 
L 316.691283 -263.194405 
L 305.531283 -269.626904 
L 294.371283 -279.649366 
L 283.211283 -286.408577 
L 272.051283 -290.607797 
L 260.891283 -284.939068 
L 249.731283 -284.395724 
L 238.571283 -285.284965 
L 227.411283 -280.618849 
L 216.251283 -259.96457 
L 205.091283 -235.332917 
L 193.931283 -219.745857 
L 182.771283 -208.160463 
L 171.611283 -201.625002 
L 160.451283 -201.43113 
L 149.291283 -200.627099 
L 138.131283 -202.430582 
L 126.971283 -200.849105 
L 115.811283 -203.261234 
L 104.651283 -202.587224 
L 93.491283 -200.523636 
L 82.331283 -192.784025 
L 71.171283 -182.701741 
L 60.011283 -168.271132 
L 48.851283 -167.940527 
z
" style="stroke: #1f77b4; stroke-opacity: 0.2"/>
    </defs>
    <g clip-path="url(#p2be4e361af)">
     <use xlink:href="#m61985cf07f" x="0" y="361.333136" style="fill: #1f77b4; fill-opacity: 0.2; stroke: #1f77b4; stroke-opacity: 0.2"/>
    </g>
   </g>
   <g id="PolyCollection_2">
    <defs>
     <path id="mc515d76e08" d="M 48.851283 -143.521909 
L 48.851283 -93.585953 
L 60.011283 -112.951512 
L 71.171283 -124.646754 
L 82.331283 -127.196312 
L 93.491283 -134.413876 
L 104.651283 -140.57828 
L 115.811283 -141.826048 
L 126.971283 -139.748247 
L 138.131283 -137.592852 
L 149.291283 -131.867732 
L 160.451283 -149.9094 
L 171.611283 -165.981682 
L 182.771283 -153.730117 
L 193.931283 -157.952591 
L 205.091283 -178.910467 
L 216.251283 -192.301523 
L 227.411283 -193.643229 
L 238.571283 -188.102884 
L 249.731283 -195.410929 
L 260.891283 -203.598467 
L 272.051283 -199.414555 
L 283.211283 -180.338658 
L 294.371283 -174.181483 
L 305.531283 -189.606397 
L 316.691283 -191.687406 
L 327.851283 -191.674185 
L 339.011283 -188.276124 
L 350.171283 -197.842634 
L 361.331283 -191.046088 
L 372.491283 -177.519804 
L 383.651283 -178.39794 
L 394.811283 -181.982848 
L 405.971283 -193.262472 
L 405.971283 -321.205642 
L 405.971283 -321.205642 
L 394.811283 -322.788204 
L 383.651283 -328.163097 
L 372.491283 -320.961719 
L 361.331283 -328.027582 
L 350.171283 -329.973156 
L 339.011283 -312.660199 
L 327.851283 -313.261138 
L 316.691283 -316.700394 
L 305.531283 -309.725984 
L 294.371283 -282.465832 
L 283.211283 -287.085923 
L 272.051283 -299.581249 
L 260.891283 -304.142552 
L 249.731283 -293.466215 
L 238.571283 -289.374038 
L 227.411283 -296.403442 
L 216.251283 -293.607527 
L 205.091283 -271.212624 
L 193.931283 -246.521055 
L 182.771283 -243.688104 
L 171.611283 -254.908846 
L 160.451283 -230.188335 
L 149.291283 -201.189546 
L 138.131283 -195.50606 
L 126.971283 -189.764798 
L 115.811283 -188.926955 
L 104.651283 -185.643859 
L 93.491283 -179.1202 
L 82.331283 -171.308126 
L 71.171283 -169.211145 
L 60.011283 -160.102624 
L 48.851283 -143.521909 
z
" style="stroke: #ff7f0e; stroke-opacity: 0.2"/>
    </defs>
    <g clip-path="url(#p2be4e361af)">
     <use xlink:href="#mc515d76e08" x="0" y="361.333136" style="fill: #ff7f0e; fill-opacity: 0.2; stroke: #ff7f0e; stroke-opacity: 0.2"/>
    </g>
   </g>
   <g id="matplotlib.axis_1">
    <g id="text_1">
     <text style="font: 10px 'Arial', sans-serif; text-anchor: middle" x="227.411283" y="296.533792" transform="rotate(-0 227.411283 296.533792)">Time</text>
    </g>
   </g>
   <g id="matplotlib.axis_2">
    <g id="ytick_1">
     <g id="line2d_1">
      <defs>
       <path id="m614dc872d8" d="M 0 0 
L -3.5 0 
" style="stroke: #000000; stroke-width: 0.8"/>
      </defs>
      <g>
       <use xlink:href="#m614dc872d8" x="48.851283" y="244.901227" style="stroke: #000000; stroke-width: 0.8"/>
      </g>
     </g>
     <g id="text_2">
      <text style="font: 10px 'Arial', sans-serif; text-anchor: end" x="41.851283" y="248.480133" transform="rotate(-0 41.851283 248.480133)">−0.1</text>
     </g>
    </g>
    <g id="ytick_2">
     <g id="line2d_2">
      <g>
       <use xlink:href="#m614dc872d8" x="48.851283" y="200.382858" style="stroke: #000000; stroke-width: 0.8"/>
      </g>
     </g>
     <g id="text_3">
      <text style="font: 10px 'Arial', sans-serif; text-anchor: end" x="41.851283" y="203.961764" transform="rotate(-0 41.851283 203.961764)">0.0</text>
     </g>
    </g>
    <g id="ytick_3">
     <g id="line2d_3">
      <g>
       <use xlink:href="#m614dc872d8" x="48.851283" y="155.864488" style="stroke: #000000; stroke-width: 0.8"/>
      </g>
     </g>
     <g id="text_4">
      <text style="font: 10px 'Arial', sans-serif; text-anchor: end" x="41.851283" y="159.443394" transform="rotate(-0 41.851283 159.443394)">0.1</text>
     </g>
    </g>
    <g id="ytick_4">
     <g id="line2d_4">
      <g>
       <use xlink:href="#m614dc872d8" x="48.851283" y="111.346118" style="stroke: #000000; stroke-width: 0.8"/>
      </g>
     </g>
     <g id="text_5">
      <text style="font: 10px 'Arial', sans-serif; text-anchor: end" x="41.851283" y="114.925025" transform="rotate(-0 41.851283 114.925025)">0.2</text>
     </g>
    </g>
    <g id="ytick_5">
     <g id="line2d_5">
      <g>
       <use xlink:href="#m614dc872d8" x="48.851283" y="66.827749" style="stroke: #000000; stroke-width: 0.8"/>
      </g>
     </g>
     <g id="text_6">
      <text style="font: 10px 'Arial', sans-serif; text-anchor: end" x="41.851283" y="70.406655" transform="rotate(-0 41.851283 70.406655)">0.3</text>
     </g>
    </g>
    <g id="ytick_6">
     <g id="line2d_6">
      <g>
       <use xlink:href="#m614dc872d8" x="48.851283" y="22.309379" style="stroke: #000000; stroke-width: 0.8"/>
      </g>
     </g>
     <g id="text_7">
      <text style="font: 10px 'Arial', sans-serif; text-anchor: end" x="41.851283" y="25.888286" transform="rotate(-0 41.851283 25.888286)">0.4</text>
     </g>
    </g>
    <g id="text_8">
     <text style="font: 10px 'Arial', sans-serif; text-anchor: middle" x="16.005971" y="152.31998" transform="rotate(-90 16.005971 152.31998)">Activity</text>
    </g>
   </g>
   <g id="line2d_7">
    <path d="M 48.851283 224.761632 
L 60.011283 223.870007 
L 71.171283 210.229751 
L 82.331283 200.949376 
L 93.491283 192.614698 
L 104.651283 189.222338 
L 115.811283 187.653169 
L 126.971283 189.243306 
L 138.131283 187.535373 
L 149.291283 189.420961 
L 160.451283 187.481568 
L 171.611283 187.173517 
L 182.771283 184.252442 
L 193.931283 176.4371 
L 205.091283 163.158837 
L 216.251283 142.348535 
L 227.411283 125.469114 
L 238.571283 121.889467 
L 249.731283 122.883635 
L 260.891283 122.139401 
L 272.051283 116.767413 
L 283.211283 119.804392 
L 294.371283 126.346169 
L 305.531283 139.666681 
L 316.691283 148.840164 
L 327.851283 152.814662 
L 339.011283 152.819724 
L 350.171283 157.294423 
L 361.331283 164.639186 
L 372.491283 181.252861 
L 383.651283 200.427517 
L 394.811283 212.515383 
L 405.971283 203.267339 
" clip-path="url(#p2be4e361af)" style="fill: none; stroke: #1f77b4; stroke-width: 1.5; stroke-linecap: square"/>
   </g>
   <g id="line2d_8">
    <path d="M 48.851283 242.779206 
L 60.011283 224.806068 
L 71.171283 214.404187 
L 82.331283 212.080917 
L 93.491283 204.566098 
L 104.651283 198.222067 
L 115.811283 195.956635 
L 126.971283 196.576614 
L 138.131283 194.783679 
L 149.291283 194.804497 
L 160.451283 171.28427 
L 171.611283 150.887872 
L 182.771283 162.624024 
L 193.931283 159.096313 
L 205.091283 136.271592 
L 216.251283 118.378613 
L 227.411283 116.309804 
L 238.571283 122.594675 
L 249.731283 116.894562 
L 260.891283 107.462625 
L 272.051283 111.83523 
L 283.211283 127.620845 
L 294.371283 133.009477 
L 305.531283 111.666945 
L 316.691283 107.139236 
L 327.851283 108.865478 
L 339.011283 110.864971 
L 350.171283 97.425244 
L 361.331283 101.796297 
L 372.491283 112.092375 
L 383.651283 108.052617 
L 394.811283 108.94761 
L 405.971283 104.099079 
" clip-path="url(#p2be4e361af)" style="fill: none; stroke: #ff7f0e; stroke-width: 1.5; stroke-linecap: square"/>
   </g>
   <g id="line2d_9">
    <path d="M 82.331283 285.37598 
L 82.331283 19.26398 
" clip-path="url(#p2be4e361af)" style="fill: none; stroke-dasharray: 5.55,2.4; stroke-dashoffset: 0; stroke: #000000; stroke-opacity: 0.5; stroke-width: 1.5"/>
   </g>
   <g id="line2d_10">
    <path d="M 383.651283 285.37598 
L 383.651283 19.26398 
" clip-path="url(#p2be4e361af)" style="fill: none; stroke-dasharray: 5.55,2.4; stroke-dashoffset: 0; stroke: #000000; stroke-opacity: 0.5; stroke-width: 1.5"/>
   </g>
   <g id="patch_3">
    <path d="M 48.851283 285.37598 
L 405.971283 285.37598 
" style="fill: none; stroke: #000000; stroke-width: 0.8; stroke-linejoin: miter; stroke-linecap: square"/>
   </g>
   <g id="text_9">
    <text style="font: 6.94px 'Arial', sans-serif" transform="translate(10.097767 321.385533) rotate(-35)">-0.1s Sampling</text>
   </g>
   <g id="text_10">
    <text style="font: 6.94px 'Arial', sans-serif" transform="translate(57.794497 311.430872) rotate(-35)">Sampling</text>
   </g>
   <g id="text_11">
    <text style="font: 6.94px 'Arial', sans-serif" transform="translate(319.037191 339.456682) rotate(-35)">Movement to Lateral Port</text>
   </g>
   <g id="text_12">
    <text style="font: 8.33px 'Arial', sans-serif; text-anchor: middle" x="227.411283" y="13.26398" transform="rotate(-0 227.411283 13.26398)">GP4_23_S1_L50_D250_mm2 - Trace:15_GP4_23_S1_L50_D250_mm2 (when: correct)</text>
   </g>
   <g id="legend_1">
    <g id="patch_4">
     <path d="M 129.837052 354.133136 
L 324.985514 354.133136 
Q 326.373514 354.133136 326.373514 352.745136 
L 326.373514 343.45638 
Q 326.373514 342.06838 324.985514 342.06838 
L 129.837052 342.06838 
Q 128.449052 342.06838 128.449052 343.45638 
L 128.449052 352.745136 
Q 128.449052 354.133136 129.837052 354.133136 
z
" style="fill: #ffffff; opacity: 0.8; stroke: #cccccc; stroke-linejoin: miter"/>
    </g>
    <g id="line2d_11">
     <path d="M 131.225052 347.467483 
L 138.165052 347.467483 
L 145.105052 347.467483 
" style="fill: none; stroke: #1f77b4; stroke-width: 1.5; stroke-linecap: square"/>
    </g>
    <g id="text_13">
     <text style="font: 6.94px 'Arial', sans-serif; text-anchor: start" x="150.657052" y="349.896483" transform="rotate(-0 150.657052 349.896483)">DecisionRight (100 pts)</text>
    </g>
    <g id="line2d_12">
     <path d="M 236.664255 347.467483 
L 243.604255 347.467483 
L 250.544255 347.467483 
" style="fill: none; stroke: #ff7f0e; stroke-width: 1.5; stroke-linecap: square"/>
    </g>
    <g id="text_14">
     <text style="font: 6.94px 'Arial', sans-serif; text-anchor: start" x="256.096255" y="349.896483" transform="rotate(-0 256.096255 349.896483)">DecisionLeft (102 pts)</text>
    </g>
   </g>
  </g>
 </g>
 <defs>
  <clipPath id="p2be4e361af">
   <rect x="48.851283" y="19.26398" width="357.12" height="266.112"/>
  </clipPath>
 </defs>
</svg>
