<?xml version="1.0" encoding="utf-8" standalone="no"?>
<!DOCTYPE svg PUBLIC "-//W3C//DTD SVG 1.1//EN"
  "http://www.w3.org/Graphics/SVG/1.1/DTD/svg11.dtd">
<svg xmlns:xlink="http://www.w3.org/1999/xlink" width="413.171283pt" height="361.333136pt" viewBox="0 0 413.171283 361.333136" xmlns="http://www.w3.org/2000/svg" version="1.1">
 <metadata>
  <rdf:RDF xmlns:dc="http://purl.org/dc/elements/1.1/" xmlns:cc="http://creativecommons.org/ns#" xmlns:rdf="http://www.w3.org/1999/02/22-rdf-syntax-ns#">
   <cc:Work>
    <dc:type rdf:resource="http://purl.org/dc/dcmitype/StillImage"/>
    <dc:date>2025-12-30T01:47:20.677203</dc:date>
    <dc:format>image/svg+xml</dc:format>
    <dc:creator>
     <cc:Agent>
      <dc:title>Matplotlib v3.8.0, https://matplotlib.org/</dc:title>
     </cc:Agent>
    </dc:creator>
   </cc:Work>
  </rdf:RDF>
 </metadata>
 <defs>
  <style type="text/css">*{stroke-linejoin: round; stroke-linecap: butt}</style>
 </defs>
 <g id="figure_1">
  <g id="patch_1">
   <path d="M 0 361.333136 
L 413.171283 361.333136 
L 413.171283 -0 
L 0 -0 
z
" style="fill: #ffffff"/>
  </g>
  <g id="axes_1">
   <g id="patch_2">
    <path d="M 48.851283 285.37598 
L 405.971283 285.37598 
L 405.971283 19.26398 
L 48.851283 19.26398 
z
" style="fill: #ffffff"/>
   </g>
   <g id="PolyCollection_1">
    <defs>
     <path id="m7df29b5fd7" d="M 48.851283 -219.058196 
L 48.851283 -149.670982 
L 60.011283 -164.236509 
L 71.171283 -181.630745 
L 82.331283 -189.660513 
L 93.491283 -192.147994 
L 104.651283 -195.970319 
L 115.811283 -195.475284 
L 126.971283 -190.620058 
L 138.131283 -184.254389 
L 149.291283 -182.659535 
L 160.451283 -184.13475 
L 171.611283 -179.018264 
L 182.771283 -168.74268 
L 193.931283 -167.242258 
L 205.091283 -164.834195 
L 216.251283 -155.949779 
L 227.411283 -145.591929 
L 238.571283 -140.973508 
L 249.731283 -140.745939 
L 260.891283 -142.544186 
L 272.051283 -139.519736 
L 283.211283 -131.630865 
L 294.371283 -122.828246 
L 305.531283 -118.097845 
L 316.691283 -116.759356 
L 327.851283 -114.557846 
L 339.011283 -108.179941 
L 350.171283 -98.667285 
L 361.331283 -94.35966 
L 372.491283 -91.250851 
L 383.651283 -88.053156 
L 394.811283 -90.071981 
L 405.971283 -91.98445 
L 405.971283 -126.551042 
L 405.971283 -126.551042 
L 394.811283 -125.820191 
L 383.651283 -123.630713 
L 372.491283 -127.464806 
L 361.331283 -131.379868 
L 350.171283 -136.391272 
L 339.011283 -146.282701 
L 327.851283 -154.251745 
L 316.691283 -158.511268 
L 305.531283 -161.912712 
L 294.371283 -168.599519 
L 283.211283 -178.642317 
L 272.051283 -186.627221 
L 260.891283 -188.186765 
L 249.731283 -184.787799 
L 238.571283 -183.982164 
L 227.411283 -189.682154 
L 216.251283 -204.234283 
L 205.091283 -218.817404 
L 193.931283 -225.336438 
L 182.771283 -229.669325 
L 171.611283 -242.403281 
L 160.451283 -251.840647 
L 149.291283 -252.758547 
L 138.131283 -254.067806 
L 126.971283 -259.08506 
L 115.811283 -262.397697 
L 104.651283 -262.821813 
L 93.491283 -260.550286 
L 82.331283 -260.231163 
L 71.171283 -254.346132 
L 60.011283 -236.567854 
L 48.851283 -219.058196 
z
" style="stroke: #1f77b4; stroke-opacity: 0.2"/>
    </defs>
    <g clip-path="url(#p1fec1b7bc5)">
     <use xlink:href="#m7df29b5fd7" x="0" y="361.333136" style="fill: #1f77b4; fill-opacity: 0.2; stroke: #1f77b4; stroke-opacity: 0.2"/>
    </g>
   </g>
   <g id="PolyCollection_2">
    <defs>
     <path id="m3464f8401e" d="M 48.851283 -271.198226 
L 48.851283 -193.16817 
L 60.011283 -200.655149 
L 71.171283 -210.2412 
L 82.331283 -223.847717 
L 93.491283 -236.815374 
L 104.651283 -237.841854 
L 115.811283 -230.064502 
L 126.971283 -230.749693 
L 138.131283 -224.180788 
L 149.291283 -210.054554 
L 160.451283 -197.773428 
L 171.611283 -183.227051 
L 182.771283 -170.340538 
L 193.931283 -161.668179 
L 205.091283 -156.926359 
L 216.251283 -157.57975 
L 227.411283 -153.707223 
L 238.571283 -149.812733 
L 249.731283 -146.320844 
L 260.891283 -147.501487 
L 272.051283 -145.417994 
L 283.211283 -136.751779 
L 294.371283 -126.61813 
L 305.531283 -122.797051 
L 316.691283 -119.131974 
L 327.851283 -115.673928 
L 339.011283 -113.350458 
L 350.171283 -108.811954 
L 361.331283 -105.28383 
L 372.491283 -100.795356 
L 383.651283 -97.327529 
L 394.811283 -94.830046 
L 405.971283 -91.872228 
L 405.971283 -126.88842 
L 405.971283 -126.88842 
L 394.811283 -129.79034 
L 383.651283 -132.151938 
L 372.491283 -136.381598 
L 361.331283 -143.052744 
L 350.171283 -148.813828 
L 339.011283 -154.41256 
L 327.851283 -157.52171 
L 316.691283 -162.828383 
L 305.531283 -168.185095 
L 294.371283 -174.27359 
L 283.211283 -189.356494 
L 272.051283 -199.765194 
L 260.891283 -201.13307 
L 249.731283 -201.206573 
L 238.571283 -206.325574 
L 227.411283 -209.943556 
L 216.251283 -214.181538 
L 205.091283 -216.730327 
L 193.931283 -224.026905 
L 182.771283 -235.454385 
L 171.611283 -254.122244 
L 160.451283 -272.441773 
L 149.291283 -290.751424 
L 138.131283 -310.15286 
L 126.971283 -319.360394 
L 115.811283 -320.914756 
L 104.651283 -329.973156 
L 93.491283 -328.735186 
L 82.331283 -317.107415 
L 71.171283 -299.864814 
L 60.011283 -284.511756 
L 48.851283 -271.198226 
z
" style="stroke: #ff7f0e; stroke-opacity: 0.2"/>
    </defs>
    <g clip-path="url(#p1fec1b7bc5)">
     <use xlink:href="#m3464f8401e" x="0" y="361.333136" style="fill: #ff7f0e; fill-opacity: 0.2; stroke: #ff7f0e; stroke-opacity: 0.2"/>
    </g>
   </g>
   <g id="matplotlib.axis_1">
    <g id="text_1">
     <text style="font: 10px 'Arial', sans-serif; text-anchor: middle" x="227.411283" y="296.533792" transform="rotate(-0 227.411283 296.533792)">Time</text>
    </g>
   </g>
   <g id="matplotlib.axis_2">
    <g id="ytick_1">
     <g id="line2d_1">
      <defs>
       <path id="m23677c4a31" d="M 0 0 
L -3.5 0 
" style="stroke: #000000; stroke-width: 0.8"/>
      </defs>
      <g>
       <use xlink:href="#m23677c4a31" x="48.851283" y="253.441603" style="stroke: #000000; stroke-width: 0.8"/>
      </g>
     </g>
     <g id="text_2">
      <text style="font: 10px 'Arial', sans-serif; text-anchor: end" x="41.851283" y="257.020509" transform="rotate(-0 41.851283 257.020509)">−0.3</text>
     </g>
    </g>
    <g id="ytick_2">
     <g id="line2d_2">
      <g>
       <use xlink:href="#m23677c4a31" x="48.851283" y="205.667704" style="stroke: #000000; stroke-width: 0.8"/>
      </g>
     </g>
     <g id="text_3">
      <text style="font: 10px 'Arial', sans-serif; text-anchor: end" x="41.851283" y="209.24661" transform="rotate(-0 41.851283 209.24661)">−0.2</text>
     </g>
    </g>
    <g id="ytick_3">
     <g id="line2d_3">
      <g>
       <use xlink:href="#m23677c4a31" x="48.851283" y="157.893805" style="stroke: #000000; stroke-width: 0.8"/>
      </g>
     </g>
     <g id="text_4">
      <text style="font: 10px 'Arial', sans-serif; text-anchor: end" x="41.851283" y="161.472711" transform="rotate(-0 41.851283 161.472711)">−0.1</text>
     </g>
    </g>
    <g id="ytick_4">
     <g id="line2d_4">
      <g>
       <use xlink:href="#m23677c4a31" x="48.851283" y="110.119906" style="stroke: #000000; stroke-width: 0.8"/>
      </g>
     </g>
     <g id="text_5">
      <text style="font: 10px 'Arial', sans-serif; text-anchor: end" x="41.851283" y="113.698812" transform="rotate(-0 41.851283 113.698812)">0.0</text>
     </g>
    </g>
    <g id="ytick_5">
     <g id="line2d_5">
      <g>
       <use xlink:href="#m23677c4a31" x="48.851283" y="62.346007" style="stroke: #000000; stroke-width: 0.8"/>
      </g>
     </g>
     <g id="text_6">
      <text style="font: 10px 'Arial', sans-serif; text-anchor: end" x="41.851283" y="65.924914" transform="rotate(-0 41.851283 65.924914)">0.1</text>
     </g>
    </g>
    <g id="text_7">
     <text style="font: 10px 'Arial', sans-serif; text-anchor: middle" x="16.005971" y="152.31998" transform="rotate(-90 16.005971 152.31998)">Activity</text>
    </g>
   </g>
   <g id="line2d_6">
    <path d="M 48.851283 176.968547 
L 60.011283 160.930956 
L 71.171283 143.344695 
L 82.331283 136.3873 
L 93.491283 134.983995 
L 104.651283 131.937071 
L 115.811283 132.396645 
L 126.971283 136.480576 
L 138.131283 142.17204 
L 149.291283 143.624093 
L 160.451283 143.345439 
L 171.611283 150.622365 
L 182.771283 162.127132 
L 193.931283 165.043788 
L 205.091283 169.507335 
L 216.251283 181.241105 
L 227.411283 193.696094 
L 238.571283 198.8553 
L 249.731283 198.566267 
L 260.891283 195.96766 
L 272.051283 198.259657 
L 283.211283 206.196545 
L 294.371283 215.619253 
L 305.531283 221.327858 
L 316.691283 223.697828 
L 327.851283 226.92834 
L 339.011283 234.101815 
L 350.171283 243.803861 
L 361.331283 248.463372 
L 372.491283 251.975308 
L 383.651283 255.491201 
L 394.811283 253.38705 
L 405.971283 252.06539 
" clip-path="url(#p1fec1b7bc5)" style="fill: none; stroke: #1f77b4; stroke-width: 1.5; stroke-linecap: square"/>
   </g>
   <g id="line2d_7">
    <path d="M 48.851283 129.149939 
L 60.011283 118.749684 
L 71.171283 106.280128 
L 82.331283 90.85557 
L 93.491283 78.557856 
L 104.651283 77.425629 
L 115.811283 85.843508 
L 126.971283 86.278094 
L 138.131283 94.166313 
L 149.291283 110.930147 
L 160.451283 126.225535 
L 171.611283 142.658487 
L 182.771283 158.435673 
L 193.931283 168.485596 
L 205.091283 174.504793 
L 216.251283 175.452492 
L 227.411283 179.507746 
L 238.571283 183.26398 
L 249.731283 187.569428 
L 260.891283 187.015857 
L 272.051283 188.741542 
L 283.211283 198.278999 
L 294.371283 210.887272 
L 305.531283 215.842067 
L 316.691283 220.352957 
L 327.851283 224.735317 
L 339.011283 227.451627 
L 350.171283 232.520245 
L 361.331283 237.164849 
L 372.491283 242.744659 
L 383.651283 246.593402 
L 394.811283 249.022943 
L 405.971283 251.952812 
" clip-path="url(#p1fec1b7bc5)" style="fill: none; stroke: #ff7f0e; stroke-width: 1.5; stroke-linecap: square"/>
   </g>
   <g id="line2d_8">
    <path d="M 82.331283 285.37598 
L 82.331283 19.26398 
" clip-path="url(#p1fec1b7bc5)" style="fill: none; stroke-dasharray: 5.55,2.4; stroke-dashoffset: 0; stroke: #000000; stroke-opacity: 0.5; stroke-width: 1.5"/>
   </g>
   <g id="line2d_9">
    <path d="M 383.651283 285.37598 
L 383.651283 19.26398 
" clip-path="url(#p1fec1b7bc5)" style="fill: none; stroke-dasharray: 5.55,2.4; stroke-dashoffset: 0; stroke: #000000; stroke-opacity: 0.5; stroke-width: 1.5"/>
   </g>
   <g id="patch_3">
    <path d="M 48.851283 285.37598 
L 405.971283 285.37598 
" style="fill: none; stroke: #000000; stroke-width: 0.8; stroke-linejoin: miter; stroke-linecap: square"/>
   </g>
   <g id="text_8">
    <text style="font: 6.94px 'Arial', sans-serif" transform="translate(10.097767 321.385533) rotate(-35)">-0.1s Sampling</text>
   </g>
   <g id="text_9">
    <text style="font: 6.94px 'Arial', sans-serif" transform="translate(57.794497 311.430872) rotate(-35)">Sampling</text>
   </g>
   <g id="text_10">
    <text style="font: 6.94px 'Arial', sans-serif" transform="translate(319.037191 339.456682) rotate(-35)">Movement to Lateral Port</text>
   </g>
   <g id="text_11">
    <text style="font: 8.33px 'Arial', sans-serif; text-anchor: middle" x="227.411283" y="13.26398" transform="rotate(-0 227.411283 13.26398)">GP4_23_S1_L50_D250_mm2 - Trace:161_GP4_23_S1_L50_D250_mm2 (when: correct)</text>
   </g>
   <g id="legend_1">
    <g id="patch_4">
     <path d="M 129.837052 354.133136 
L 324.985514 354.133136 
Q 326.373514 354.133136 326.373514 352.745136 
L 326.373514 343.45638 
Q 326.373514 342.06838 324.985514 342.06838 
L 129.837052 342.06838 
Q 128.449052 342.06838 128.449052 343.45638 
L 128.449052 352.745136 
Q 128.449052 354.133136 129.837052 354.133136 
z
" style="fill: #ffffff; opacity: 0.8; stroke: #cccccc; stroke-linejoin: miter"/>
    </g>
    <g id="line2d_10">
     <path d="M 131.225052 347.467483 
L 138.165052 347.467483 
L 145.105052 347.467483 
" style="fill: none; stroke: #1f77b4; stroke-width: 1.5; stroke-linecap: square"/>
    </g>
    <g id="text_12">
     <text style="font: 6.94px 'Arial', sans-serif; text-anchor: start" x="150.657052" y="349.896483" transform="rotate(-0 150.657052 349.896483)">DecisionRight (100 pts)</text>
    </g>
    <g id="line2d_11">
     <path d="M 236.664255 347.467483 
L 243.604255 347.467483 
L 250.544255 347.467483 
" style="fill: none; stroke: #ff7f0e; stroke-width: 1.5; stroke-linecap: square"/>
    </g>
    <g id="text_13">
     <text style="font: 6.94px 'Arial', sans-serif; text-anchor: start" x="256.096255" y="349.896483" transform="rotate(-0 256.096255 349.896483)">DecisionLeft (102 pts)</text>
    </g>
   </g>
  </g>
 </g>
 <defs>
  <clipPath id="p1fec1b7bc5">
   <rect x="48.851283" y="19.26398" width="357.12" height="266.112"/>
  </clipPath>
 </defs>
</svg>
