<?xml version="1.0" encoding="utf-8" standalone="no"?>
<!DOCTYPE svg PUBLIC "-//W3C//DTD SVG 1.1//EN"
  "http://www.w3.org/Graphics/SVG/1.1/DTD/svg11.dtd">
<svg xmlns:xlink="http://www.w3.org/1999/xlink" width="413.171283pt" height="361.333136pt" viewBox="0 0 413.171283 361.333136" xmlns="http://www.w3.org/2000/svg" version="1.1">
 <metadata>
  <rdf:RDF xmlns:dc="http://purl.org/dc/elements/1.1/" xmlns:cc="http://creativecommons.org/ns#" xmlns:rdf="http://www.w3.org/1999/02/22-rdf-syntax-ns#">
   <cc:Work>
    <dc:type rdf:resource="http://purl.org/dc/dcmitype/StillImage"/>
    <dc:date>2025-12-30T01:47:31.617757</dc:date>
    <dc:format>image/svg+xml</dc:format>
    <dc:creator>
     <cc:Agent>
      <dc:title>Matplotlib v3.8.0, https://matplotlib.org/</dc:title>
     </cc:Agent>
    </dc:creator>
   </cc:Work>
  </rdf:RDF>
 </metadata>
 <defs>
  <style type="text/css">*{stroke-linejoin: round; stroke-linecap: butt}</style>
 </defs>
 <g id="figure_1">
  <g id="patch_1">
   <path d="M 0 361.333136 
L 413.171283 361.333136 
L 413.171283 -0 
L 0 -0 
z
" style="fill: #ffffff"/>
  </g>
  <g id="axes_1">
   <g id="patch_2">
    <path d="M 48.851283 285.37598 
L 405.971283 285.37598 
L 405.971283 19.26398 
L 48.851283 19.26398 
z
" style="fill: #ffffff"/>
   </g>
   <g id="PolyCollection_1">
    <defs>
     <path id="m8cac76d2e0" d="M 48.851283 -175.098439 
L 48.851283 -128.179084 
L 60.011283 -146.203847 
L 71.171283 -130.40845 
L 82.331283 -116.553796 
L 93.491283 -115.539584 
L 104.651283 -110.84862 
L 115.811283 -95.849326 
L 126.971283 -91.987133 
L 138.131283 -103.778709 
L 149.291283 -120.00886 
L 160.451283 -136.190066 
L 171.611283 -152.165916 
L 182.771283 -160.624337 
L 193.931283 -171.052295 
L 205.091283 -184.055519 
L 216.251283 -212.293715 
L 227.411283 -240.976489 
L 238.571283 -245.939859 
L 249.731283 -236.696656 
L 260.891283 -235.936901 
L 272.051283 -237.399095 
L 283.211283 -241.781577 
L 294.371283 -254.387538 
L 305.531283 -255.698641 
L 316.691283 -257.849257 
L 327.851283 -257.003618 
L 339.011283 -241.949597 
L 350.171283 -200.750174 
L 361.331283 -151.959706 
L 372.491283 -110.985561 
L 383.651283 -93.304141 
L 394.811283 -88.053156 
L 405.971283 -92.469224 
L 405.971283 -134.220704 
L 405.971283 -134.220704 
L 394.811283 -131.724924 
L 383.651283 -136.406039 
L 372.491283 -152.686198 
L 361.331283 -199.456302 
L 350.171283 -262.370295 
L 339.011283 -313.520046 
L 327.851283 -329.973156 
L 316.691283 -323.260822 
L 305.531283 -320.635514 
L 294.371283 -318.894993 
L 283.211283 -299.352206 
L 272.051283 -297.701436 
L 260.891283 -296.269214 
L 249.731283 -293.626091 
L 238.571283 -306.890812 
L 227.411283 -308.419903 
L 216.251283 -278.449063 
L 205.091283 -246.876766 
L 193.931283 -224.1836 
L 182.771283 -207.48776 
L 171.611283 -198.461562 
L 160.451283 -181.220749 
L 149.291283 -162.079209 
L 138.131283 -144.905258 
L 126.971283 -133.200916 
L 115.811283 -136.396203 
L 104.651283 -154.658801 
L 93.491283 -165.484374 
L 82.331283 -170.211748 
L 71.171283 -181.5416 
L 60.011283 -195.227513 
L 48.851283 -175.098439 
z
" style="stroke: #1f77b4; stroke-opacity: 0.2"/>
    </defs>
    <g clip-path="url(#p93fc5f6e15)">
     <use xlink:href="#m8cac76d2e0" x="0" y="361.333136" style="fill: #1f77b4; fill-opacity: 0.2; stroke: #1f77b4; stroke-opacity: 0.2"/>
    </g>
   </g>
   <g id="PolyCollection_2">
    <defs>
     <path id="ma1d148ee62" d="M 48.851283 -179.405716 
L 48.851283 -128.647311 
L 60.011283 -112.077884 
L 71.171283 -116.348708 
L 82.331283 -123.544839 
L 93.491283 -116.718493 
L 104.651283 -125.222387 
L 115.811283 -116.660561 
L 126.971283 -108.068156 
L 138.131283 -127.294686 
L 149.291283 -149.704043 
L 160.451283 -167.527005 
L 171.611283 -188.762061 
L 182.771283 -199.559174 
L 193.931283 -214.758136 
L 205.091283 -227.915462 
L 216.251283 -224.542185 
L 227.411283 -207.247149 
L 238.571283 -224.021352 
L 249.731283 -227.609825 
L 260.891283 -224.770166 
L 272.051283 -239.775806 
L 283.211283 -244.554305 
L 294.371283 -245.199359 
L 305.531283 -241.943583 
L 316.691283 -238.701135 
L 327.851283 -215.39224 
L 339.011283 -199.150423 
L 350.171283 -192.617541 
L 361.331283 -159.475818 
L 372.491283 -130.919381 
L 383.651283 -122.527715 
L 394.811283 -139.47705 
L 405.971283 -165.686135 
L 405.971283 -222.849469 
L 405.971283 -222.849469 
L 394.811283 -194.866335 
L 383.651283 -176.707413 
L 372.491283 -184.958482 
L 361.331283 -216.920021 
L 350.171283 -263.118445 
L 339.011283 -262.828755 
L 327.851283 -286.916099 
L 316.691283 -320.276024 
L 305.531283 -316.853375 
L 294.371283 -316.992353 
L 283.211283 -307.630124 
L 272.051283 -295.480969 
L 260.891283 -270.871499 
L 249.731283 -276.919008 
L 238.571283 -275.45646 
L 227.411283 -267.920007 
L 216.251283 -302.07202 
L 205.091283 -302.482994 
L 193.931283 -280.247995 
L 182.771283 -260.318907 
L 171.611283 -246.277941 
L 160.451283 -229.239393 
L 149.291283 -203.513754 
L 138.131283 -179.864176 
L 126.971283 -157.003851 
L 115.811283 -162.599938 
L 104.651283 -173.804873 
L 93.491283 -167.784286 
L 82.331283 -174.844127 
L 71.171283 -166.259779 
L 60.011283 -162.896581 
L 48.851283 -179.405716 
z
" style="stroke: #ff7f0e; stroke-opacity: 0.2"/>
    </defs>
    <g clip-path="url(#p93fc5f6e15)">
     <use xlink:href="#ma1d148ee62" x="0" y="361.333136" style="fill: #ff7f0e; fill-opacity: 0.2; stroke: #ff7f0e; stroke-opacity: 0.2"/>
    </g>
   </g>
   <g id="matplotlib.axis_1">
    <g id="text_1">
     <text style="font: 10px 'Arial', sans-serif; text-anchor: middle" x="227.411283" y="296.533792" transform="rotate(-0 227.411283 296.533792)">Time</text>
    </g>
   </g>
   <g id="matplotlib.axis_2">
    <g id="ytick_1">
     <g id="line2d_1">
      <defs>
       <path id="m19a437d1da" d="M 0 0 
L -3.5 0 
" style="stroke: #000000; stroke-width: 0.8"/>
      </defs>
      <g>
       <use xlink:href="#m19a437d1da" x="48.851283" y="245.597016" style="stroke: #000000; stroke-width: 0.8"/>
      </g>
     </g>
     <g id="text_2">
      <text style="font: 10px 'Arial', sans-serif; text-anchor: end" x="41.851283" y="249.175922" transform="rotate(-0 41.851283 249.175922)">0.0</text>
     </g>
    </g>
    <g id="ytick_2">
     <g id="line2d_2">
      <g>
       <use xlink:href="#m19a437d1da" x="48.851283" y="187.782207" style="stroke: #000000; stroke-width: 0.8"/>
      </g>
     </g>
     <g id="text_3">
      <text style="font: 10px 'Arial', sans-serif; text-anchor: end" x="41.851283" y="191.361113" transform="rotate(-0 41.851283 191.361113)">0.2</text>
     </g>
    </g>
    <g id="ytick_3">
     <g id="line2d_3">
      <g>
       <use xlink:href="#m19a437d1da" x="48.851283" y="129.967397" style="stroke: #000000; stroke-width: 0.8"/>
      </g>
     </g>
     <g id="text_4">
      <text style="font: 10px 'Arial', sans-serif; text-anchor: end" x="41.851283" y="133.546303" transform="rotate(-0 41.851283 133.546303)">0.4</text>
     </g>
    </g>
    <g id="ytick_4">
     <g id="line2d_4">
      <g>
       <use xlink:href="#m19a437d1da" x="48.851283" y="72.152588" style="stroke: #000000; stroke-width: 0.8"/>
      </g>
     </g>
     <g id="text_5">
      <text style="font: 10px 'Arial', sans-serif; text-anchor: end" x="41.851283" y="75.731494" transform="rotate(-0 41.851283 75.731494)">0.6</text>
     </g>
    </g>
    <g id="text_6">
     <text style="font: 10px 'Arial', sans-serif; text-anchor: middle" x="21.846596" y="152.31998" transform="rotate(-90 21.846596 152.31998)">Activity</text>
    </g>
   </g>
   <g id="line2d_5">
    <path d="M 48.851283 209.694374 
L 60.011283 190.617458 
L 71.171283 205.358111 
L 82.331283 217.950365 
L 93.491283 220.821157 
L 104.651283 228.579424 
L 115.811283 245.210371 
L 126.971283 248.739111 
L 138.131283 236.991153 
L 149.291283 220.2891 
L 160.451283 202.62773 
L 171.611283 186.019397 
L 182.771283 177.277087 
L 193.931283 163.715189 
L 205.091283 145.866996 
L 216.251283 115.961742 
L 227.411283 86.63494 
L 238.571283 84.9178 
L 249.731283 96.171763 
L 260.891283 95.230083 
L 272.051283 93.78287 
L 283.211283 90.766249 
L 294.371283 74.691875 
L 305.531283 73.166058 
L 316.691283 70.778097 
L 327.851283 67.844749 
L 339.011283 83.598315 
L 350.171283 129.772901 
L 361.331283 185.625132 
L 372.491283 229.497255 
L 383.651283 246.478046 
L 394.811283 251.444096 
L 405.971283 247.988171 
" clip-path="url(#p93fc5f6e15)" style="fill: none; stroke: #1f77b4; stroke-width: 1.5; stroke-linecap: square"/>
   </g>
   <g id="line2d_6">
    <path d="M 48.851283 207.306622 
L 60.011283 223.845902 
L 71.171283 220.028893 
L 82.331283 212.138653 
L 93.491283 219.081747 
L 104.651283 211.819507 
L 115.811283 221.702886 
L 126.971283 228.797132 
L 138.131283 207.753705 
L 149.291283 184.724236 
L 160.451283 162.949937 
L 171.611283 143.813135 
L 182.771283 131.394095 
L 193.931283 113.830071 
L 205.091283 96.133908 
L 216.251283 98.026037 
L 227.411283 123.749558 
L 238.571283 111.594234 
L 249.731283 109.068724 
L 260.891283 113.512303 
L 272.051283 93.704749 
L 283.211283 85.240917 
L 294.371283 80.23728 
L 305.531283 81.934657 
L 316.691283 81.844561 
L 327.851283 110.178966 
L 339.011283 130.343547 
L 350.171283 133.465143 
L 361.331283 173.135216 
L 372.491283 203.394204 
L 383.651283 211.715573 
L 394.811283 194.161443 
L 405.971283 167.065334 
" clip-path="url(#p93fc5f6e15)" style="fill: none; stroke: #ff7f0e; stroke-width: 1.5; stroke-linecap: square"/>
   </g>
   <g id="line2d_7">
    <path d="M 82.331283 285.37598 
L 82.331283 19.26398 
" clip-path="url(#p93fc5f6e15)" style="fill: none; stroke-dasharray: 5.55,2.4; stroke-dashoffset: 0; stroke: #000000; stroke-opacity: 0.5; stroke-width: 1.5"/>
   </g>
   <g id="line2d_8">
    <path d="M 383.651283 285.37598 
L 383.651283 19.26398 
" clip-path="url(#p93fc5f6e15)" style="fill: none; stroke-dasharray: 5.55,2.4; stroke-dashoffset: 0; stroke: #000000; stroke-opacity: 0.5; stroke-width: 1.5"/>
   </g>
   <g id="patch_3">
    <path d="M 48.851283 285.37598 
L 405.971283 285.37598 
" style="fill: none; stroke: #000000; stroke-width: 0.8; stroke-linejoin: miter; stroke-linecap: square"/>
   </g>
   <g id="text_7">
    <text style="font: 6.94px 'Arial', sans-serif" transform="translate(10.097767 321.385533) rotate(-35)">-0.1s Sampling</text>
   </g>
   <g id="text_8">
    <text style="font: 6.94px 'Arial', sans-serif" transform="translate(57.794497 311.430872) rotate(-35)">Sampling</text>
   </g>
   <g id="text_9">
    <text style="font: 6.94px 'Arial', sans-serif" transform="translate(319.037191 339.456682) rotate(-35)">Movement to Lateral Port</text>
   </g>
   <g id="text_10">
    <text style="font: 8.33px 'Arial', sans-serif; text-anchor: middle" x="227.411283" y="13.26398" transform="rotate(-0 227.411283 13.26398)">GP4_23_S1_L50_D250_mm2 - Trace:1701_GP4_23_S1_L50_D250_mm2 (when: correct)</text>
   </g>
   <g id="legend_1">
    <g id="patch_4">
     <path d="M 129.837052 354.133136 
L 324.985514 354.133136 
Q 326.373514 354.133136 326.373514 352.745136 
L 326.373514 343.45638 
Q 326.373514 342.06838 324.985514 342.06838 
L 129.837052 342.06838 
Q 128.449052 342.06838 128.449052 343.45638 
L 128.449052 352.745136 
Q 128.449052 354.133136 129.837052 354.133136 
z
" style="fill: #ffffff; opacity: 0.8; stroke: #cccccc; stroke-linejoin: miter"/>
    </g>
    <g id="line2d_9">
     <path d="M 131.225052 347.467483 
L 138.165052 347.467483 
L 145.105052 347.467483 
" style="fill: none; stroke: #1f77b4; stroke-width: 1.5; stroke-linecap: square"/>
    </g>
    <g id="text_11">
     <text style="font: 6.94px 'Arial', sans-serif; text-anchor: start" x="150.657052" y="349.896483" transform="rotate(-0 150.657052 349.896483)">DecisionRight (100 pts)</text>
    </g>
    <g id="line2d_10">
     <path d="M 236.664255 347.467483 
L 243.604255 347.467483 
L 250.544255 347.467483 
" style="fill: none; stroke: #ff7f0e; stroke-width: 1.5; stroke-linecap: square"/>
    </g>
    <g id="text_12">
     <text style="font: 6.94px 'Arial', sans-serif; text-anchor: start" x="256.096255" y="349.896483" transform="rotate(-0 256.096255 349.896483)">DecisionLeft (102 pts)</text>
    </g>
   </g>
  </g>
 </g>
 <defs>
  <clipPath id="p93fc5f6e15">
   <rect x="48.851283" y="19.26398" width="357.12" height="266.112"/>
  </clipPath>
 </defs>
</svg>
