<?xml version="1.0" encoding="utf-8" standalone="no"?>
<!DOCTYPE svg PUBLIC "-//W3C//DTD SVG 1.1//EN"
  "http://www.w3.org/Graphics/SVG/1.1/DTD/svg11.dtd">
<svg xmlns:xlink="http://www.w3.org/1999/xlink" width="413.171283pt" height="361.333136pt" viewBox="0 0 413.171283 361.333136" xmlns="http://www.w3.org/2000/svg" version="1.1">
 <metadata>
  <rdf:RDF xmlns:dc="http://purl.org/dc/elements/1.1/" xmlns:cc="http://creativecommons.org/ns#" xmlns:rdf="http://www.w3.org/1999/02/22-rdf-syntax-ns#">
   <cc:Work>
    <dc:type rdf:resource="http://purl.org/dc/dcmitype/StillImage"/>
    <dc:date>2025-12-30T01:47:20.947042</dc:date>
    <dc:format>image/svg+xml</dc:format>
    <dc:creator>
     <cc:Agent>
      <dc:title>Matplotlib v3.8.0, https://matplotlib.org/</dc:title>
     </cc:Agent>
    </dc:creator>
   </cc:Work>
  </rdf:RDF>
 </metadata>
 <defs>
  <style type="text/css">*{stroke-linejoin: round; stroke-linecap: butt}</style>
 </defs>
 <g id="figure_1">
  <g id="patch_1">
   <path d="M 0 361.333136 
L 413.171283 361.333136 
L 413.171283 -0 
L 0 -0 
z
" style="fill: #ffffff"/>
  </g>
  <g id="axes_1">
   <g id="patch_2">
    <path d="M 48.851283 285.37598 
L 405.971283 285.37598 
L 405.971283 19.26398 
L 48.851283 19.26398 
z
" style="fill: #ffffff"/>
   </g>
   <g id="PolyCollection_1">
    <defs>
     <path id="m8678c94065" d="M 48.851283 -209.398798 
L 48.851283 -142.706812 
L 60.011283 -130.966675 
L 71.171283 -117.100091 
L 82.331283 -112.883022 
L 93.491283 -121.660466 
L 104.651283 -135.894831 
L 115.811283 -137.893918 
L 126.971283 -137.12651 
L 138.131283 -138.200117 
L 149.291283 -148.788866 
L 160.451283 -159.085948 
L 171.611283 -168.974976 
L 182.771283 -184.953831 
L 193.931283 -195.23389 
L 205.091283 -201.547087 
L 216.251283 -198.847751 
L 227.411283 -191.867207 
L 238.571283 -194.501126 
L 249.731283 -194.049637 
L 260.891283 -194.404843 
L 272.051283 -184.928718 
L 283.211283 -175.384953 
L 294.371283 -187.649089 
L 305.531283 -197.801868 
L 316.691283 -199.347007 
L 327.851283 -195.852117 
L 339.011283 -218.029407 
L 350.171283 -245.572789 
L 361.331283 -257.573337 
L 372.491283 -261.430047 
L 383.651283 -265.143201 
L 394.811283 -259.437028 
L 405.971283 -250.572458 
L 405.971283 -299.174519 
L 405.971283 -299.174519 
L 394.811283 -306.243073 
L 383.651283 -309.596741 
L 372.491283 -311.574854 
L 361.331283 -320.059455 
L 350.171283 -317.503233 
L 339.011283 -291.360509 
L 327.851283 -263.356891 
L 316.691283 -259.837354 
L 305.531283 -253.685236 
L 294.371283 -239.655429 
L 283.211283 -228.101928 
L 272.051283 -238.954629 
L 260.891283 -247.603391 
L 249.731283 -246.183844 
L 238.571283 -241.260488 
L 227.411283 -234.199331 
L 216.251283 -240.481969 
L 205.091283 -242.267529 
L 193.931283 -234.853729 
L 182.771283 -225.434994 
L 171.611283 -211.13721 
L 160.451283 -200.057585 
L 149.291283 -189.768181 
L 138.131283 -180.604107 
L 126.971283 -182.247561 
L 115.811283 -185.623682 
L 104.651283 -190.373037 
L 93.491283 -179.437068 
L 82.331283 -171.768545 
L 71.171283 -178.149322 
L 60.011283 -193.555722 
L 48.851283 -209.398798 
z
" style="stroke: #1f77b4; stroke-opacity: 0.2"/>
    </defs>
    <g clip-path="url(#pd87fbb7c6b)">
     <use xlink:href="#m8678c94065" x="0" y="361.333136" style="fill: #1f77b4; fill-opacity: 0.2; stroke: #1f77b4; stroke-opacity: 0.2"/>
    </g>
   </g>
   <g id="PolyCollection_2">
    <defs>
     <path id="m470862164e" d="M 48.851283 -250.932096 
L 48.851283 -187.580372 
L 60.011283 -155.289938 
L 71.171283 -104.076805 
L 82.331283 -88.053156 
L 93.491283 -99.409313 
L 104.651283 -130.899708 
L 115.811283 -134.907301 
L 126.971283 -144.129877 
L 138.131283 -172.283279 
L 149.291283 -187.369838 
L 160.451283 -197.8156 
L 171.611283 -196.885368 
L 182.771283 -191.282833 
L 193.931283 -193.783419 
L 205.091283 -196.093957 
L 216.251283 -203.72417 
L 227.411283 -203.153869 
L 238.571283 -199.062072 
L 249.731283 -214.512403 
L 260.891283 -231.261862 
L 272.051283 -228.309951 
L 283.211283 -231.156862 
L 294.371283 -228.59368 
L 305.531283 -241.994589 
L 316.691283 -263.503286 
L 327.851283 -256.881006 
L 339.011283 -239.235634 
L 350.171283 -225.226043 
L 361.331283 -236.136489 
L 372.491283 -247.667372 
L 383.651283 -245.994836 
L 394.811283 -238.338202 
L 405.971283 -223.362082 
L 405.971283 -309.439128 
L 405.971283 -309.439128 
L 394.811283 -308.516893 
L 383.651283 -306.349805 
L 372.491283 -307.244709 
L 361.331283 -297.924015 
L 350.171283 -290.249668 
L 339.011283 -304.382868 
L 327.851283 -321.65283 
L 316.691283 -329.973156 
L 305.531283 -305.165599 
L 294.371283 -287.58757 
L 283.211283 -288.716018 
L 272.051283 -283.098394 
L 260.891283 -281.321358 
L 249.731283 -260.913844 
L 238.571283 -243.285184 
L 227.411283 -242.675989 
L 216.251283 -243.601883 
L 205.091283 -238.104232 
L 193.931283 -242.221558 
L 182.771283 -239.90814 
L 171.611283 -240.789465 
L 160.451283 -242.948748 
L 149.291283 -234.631123 
L 138.131283 -217.492776 
L 126.971283 -191.098965 
L 115.811283 -184.71229 
L 104.651283 -185.70533 
L 93.491283 -159.106201 
L 82.331283 -150.475443 
L 71.171283 -168.750781 
L 60.011283 -218.745043 
L 48.851283 -250.932096 
z
" style="stroke: #ff7f0e; stroke-opacity: 0.2"/>
    </defs>
    <g clip-path="url(#pd87fbb7c6b)">
     <use xlink:href="#m470862164e" x="0" y="361.333136" style="fill: #ff7f0e; fill-opacity: 0.2; stroke: #ff7f0e; stroke-opacity: 0.2"/>
    </g>
   </g>
   <g id="matplotlib.axis_1">
    <g id="text_1">
     <text style="font: 10px 'Arial', sans-serif; text-anchor: middle" x="227.411283" y="296.533792" transform="rotate(-0 227.411283 296.533792)">Time</text>
    </g>
   </g>
   <g id="matplotlib.axis_2">
    <g id="ytick_1">
     <g id="line2d_1">
      <defs>
       <path id="md0444cc16d" d="M 0 0 
L -3.5 0 
" style="stroke: #000000; stroke-width: 0.8"/>
      </defs>
      <g>
       <use xlink:href="#md0444cc16d" x="48.851283" y="276.455736" style="stroke: #000000; stroke-width: 0.8"/>
      </g>
     </g>
     <g id="text_2">
      <text style="font: 10px 'Arial', sans-serif; text-anchor: end" x="41.851283" y="280.034642" transform="rotate(-0 41.851283 280.034642)">−0.5</text>
     </g>
    </g>
    <g id="ytick_2">
     <g id="line2d_2">
      <g>
       <use xlink:href="#md0444cc16d" x="48.851283" y="245.037661" style="stroke: #000000; stroke-width: 0.8"/>
      </g>
     </g>
     <g id="text_3">
      <text style="font: 10px 'Arial', sans-serif; text-anchor: end" x="41.851283" y="248.616567" transform="rotate(-0 41.851283 248.616567)">−0.4</text>
     </g>
    </g>
    <g id="ytick_3">
     <g id="line2d_3">
      <g>
       <use xlink:href="#md0444cc16d" x="48.851283" y="213.619587" style="stroke: #000000; stroke-width: 0.8"/>
      </g>
     </g>
     <g id="text_4">
      <text style="font: 10px 'Arial', sans-serif; text-anchor: end" x="41.851283" y="217.198493" transform="rotate(-0 41.851283 217.198493)">−0.3</text>
     </g>
    </g>
    <g id="ytick_4">
     <g id="line2d_4">
      <g>
       <use xlink:href="#md0444cc16d" x="48.851283" y="182.201512" style="stroke: #000000; stroke-width: 0.8"/>
      </g>
     </g>
     <g id="text_5">
      <text style="font: 10px 'Arial', sans-serif; text-anchor: end" x="41.851283" y="185.780419" transform="rotate(-0 41.851283 185.780419)">−0.2</text>
     </g>
    </g>
    <g id="ytick_5">
     <g id="line2d_5">
      <g>
       <use xlink:href="#md0444cc16d" x="48.851283" y="150.783438" style="stroke: #000000; stroke-width: 0.8"/>
      </g>
     </g>
     <g id="text_6">
      <text style="font: 10px 'Arial', sans-serif; text-anchor: end" x="41.851283" y="154.362344" transform="rotate(-0 41.851283 154.362344)">−0.1</text>
     </g>
    </g>
    <g id="ytick_6">
     <g id="line2d_6">
      <g>
       <use xlink:href="#md0444cc16d" x="48.851283" y="119.365364" style="stroke: #000000; stroke-width: 0.8"/>
      </g>
     </g>
     <g id="text_7">
      <text style="font: 10px 'Arial', sans-serif; text-anchor: end" x="41.851283" y="122.94427" transform="rotate(-0 41.851283 122.94427)">0.0</text>
     </g>
    </g>
    <g id="ytick_7">
     <g id="line2d_7">
      <g>
       <use xlink:href="#md0444cc16d" x="48.851283" y="87.947289" style="stroke: #000000; stroke-width: 0.8"/>
      </g>
     </g>
     <g id="text_8">
      <text style="font: 10px 'Arial', sans-serif; text-anchor: end" x="41.851283" y="91.526196" transform="rotate(-0 41.851283 91.526196)">0.1</text>
     </g>
    </g>
    <g id="ytick_8">
     <g id="line2d_8">
      <g>
       <use xlink:href="#md0444cc16d" x="48.851283" y="56.529215" style="stroke: #000000; stroke-width: 0.8"/>
      </g>
     </g>
     <g id="text_9">
      <text style="font: 10px 'Arial', sans-serif; text-anchor: end" x="41.851283" y="60.108121" transform="rotate(-0 41.851283 60.108121)">0.2</text>
     </g>
    </g>
    <g id="ytick_9">
     <g id="line2d_9">
      <g>
       <use xlink:href="#md0444cc16d" x="48.851283" y="25.111141" style="stroke: #000000; stroke-width: 0.8"/>
      </g>
     </g>
     <g id="text_10">
      <text style="font: 10px 'Arial', sans-serif; text-anchor: end" x="41.851283" y="28.690047" transform="rotate(-0 41.851283 28.690047)">0.3</text>
     </g>
    </g>
    <g id="text_11">
     <text style="font: 10px 'Arial', sans-serif; text-anchor: middle" x="16.005971" y="152.31998" transform="rotate(-90 16.005971 152.31998)">Activity</text>
    </g>
   </g>
   <g id="line2d_10">
    <path d="M 48.851283 185.280331 
L 60.011283 199.071938 
L 71.171283 213.70843 
L 82.331283 219.007355 
L 93.491283 210.784369 
L 104.651283 198.199202 
L 115.811283 199.574336 
L 126.971283 201.646101 
L 138.131283 201.931026 
L 149.291283 192.054615 
L 160.451283 181.761372 
L 171.611283 171.277043 
L 182.771283 156.138724 
L 193.931283 146.289325 
L 205.091283 139.425828 
L 216.251283 141.668276 
L 227.411283 148.299868 
L 238.571283 143.452327 
L 249.731283 141.216396 
L 260.891283 140.32902 
L 272.051283 149.391462 
L 283.211283 159.589696 
L 294.371283 147.680876 
L 305.531283 135.589584 
L 316.691283 131.740954 
L 327.851283 131.728631 
L 339.011283 106.638177 
L 350.171283 79.795125 
L 361.331283 72.516739 
L 372.491283 74.830686 
L 383.651283 73.963165 
L 394.811283 78.493086 
L 405.971283 86.459648 
" clip-path="url(#pd87fbb7c6b)" style="fill: none; stroke: #1f77b4; stroke-width: 1.5; stroke-linecap: square"/>
   </g>
   <g id="line2d_11">
    <path d="M 48.851283 142.076903 
L 60.011283 174.315644 
L 71.171283 224.919343 
L 82.331283 242.068836 
L 93.491283 232.075379 
L 104.651283 203.030617 
L 115.811283 201.523338 
L 126.971283 193.718715 
L 138.131283 166.445108 
L 149.291283 150.332656 
L 160.451283 140.950962 
L 171.611283 142.49572 
L 182.771283 145.737651 
L 193.931283 143.330646 
L 205.091283 144.234043 
L 216.251283 137.670109 
L 227.411283 138.418207 
L 238.571283 140.159509 
L 249.731283 123.620013 
L 260.891283 105.041525 
L 272.051283 105.628963 
L 283.211283 101.396695 
L 294.371283 103.242511 
L 305.531283 87.753042 
L 316.691283 64.594915 
L 327.851283 72.066218 
L 339.011283 89.523886 
L 350.171283 103.59528 
L 361.331283 94.302885 
L 372.491283 83.877095 
L 383.651283 85.160815 
L 394.811283 87.905589 
L 405.971283 94.932531 
" clip-path="url(#pd87fbb7c6b)" style="fill: none; stroke: #ff7f0e; stroke-width: 1.5; stroke-linecap: square"/>
   </g>
   <g id="line2d_12">
    <path d="M 82.331283 285.37598 
L 82.331283 19.26398 
" clip-path="url(#pd87fbb7c6b)" style="fill: none; stroke-dasharray: 5.55,2.4; stroke-dashoffset: 0; stroke: #000000; stroke-opacity: 0.5; stroke-width: 1.5"/>
   </g>
   <g id="line2d_13">
    <path d="M 383.651283 285.37598 
L 383.651283 19.26398 
" clip-path="url(#pd87fbb7c6b)" style="fill: none; stroke-dasharray: 5.55,2.4; stroke-dashoffset: 0; stroke: #000000; stroke-opacity: 0.5; stroke-width: 1.5"/>
   </g>
   <g id="patch_3">
    <path d="M 48.851283 285.37598 
L 405.971283 285.37598 
" style="fill: none; stroke: #000000; stroke-width: 0.8; stroke-linejoin: miter; stroke-linecap: square"/>
   </g>
   <g id="text_12">
    <text style="font: 6.94px 'Arial', sans-serif" transform="translate(10.097767 321.385533) rotate(-35)">-0.1s Sampling</text>
   </g>
   <g id="text_13">
    <text style="font: 6.94px 'Arial', sans-serif" transform="translate(57.794497 311.430872) rotate(-35)">Sampling</text>
   </g>
   <g id="text_14">
    <text style="font: 6.94px 'Arial', sans-serif" transform="translate(319.037191 339.456682) rotate(-35)">Movement to Lateral Port</text>
   </g>
   <g id="text_15">
    <text style="font: 8.33px 'Arial', sans-serif; text-anchor: middle" x="227.411283" y="13.26398" transform="rotate(-0 227.411283 13.26398)">GP4_23_S1_L50_D250_mm2 - Trace:181_GP4_23_S1_L50_D250_mm2 (when: correct)</text>
   </g>
   <g id="legend_1">
    <g id="patch_4">
     <path d="M 129.837052 354.133136 
L 324.985514 354.133136 
Q 326.373514 354.133136 326.373514 352.745136 
L 326.373514 343.45638 
Q 326.373514 342.06838 324.985514 342.06838 
L 129.837052 342.06838 
Q 128.449052 342.06838 128.449052 343.45638 
L 128.449052 352.745136 
Q 128.449052 354.133136 129.837052 354.133136 
z
" style="fill: #ffffff; opacity: 0.8; stroke: #cccccc; stroke-linejoin: miter"/>
    </g>
    <g id="line2d_14">
     <path d="M 131.225052 347.467483 
L 138.165052 347.467483 
L 145.105052 347.467483 
" style="fill: none; stroke: #1f77b4; stroke-width: 1.5; stroke-linecap: square"/>
    </g>
    <g id="text_16">
     <text style="font: 6.94px 'Arial', sans-serif; text-anchor: start" x="150.657052" y="349.896483" transform="rotate(-0 150.657052 349.896483)">DecisionRight (100 pts)</text>
    </g>
    <g id="line2d_15">
     <path d="M 236.664255 347.467483 
L 243.604255 347.467483 
L 250.544255 347.467483 
" style="fill: none; stroke: #ff7f0e; stroke-width: 1.5; stroke-linecap: square"/>
    </g>
    <g id="text_17">
     <text style="font: 6.94px 'Arial', sans-serif; text-anchor: start" x="256.096255" y="349.896483" transform="rotate(-0 256.096255 349.896483)">DecisionLeft (102 pts)</text>
    </g>
   </g>
  </g>
 </g>
 <defs>
  <clipPath id="pd87fbb7c6b">
   <rect x="48.851283" y="19.26398" width="357.12" height="266.112"/>
  </clipPath>
 </defs>
</svg>
