<?xml version="1.0" encoding="utf-8" standalone="no"?>
<!DOCTYPE svg PUBLIC "-//W3C//DTD SVG 1.1//EN"
  "http://www.w3.org/Graphics/SVG/1.1/DTD/svg11.dtd">
<svg xmlns:xlink="http://www.w3.org/1999/xlink" width="413.171283pt" height="361.333136pt" viewBox="0 0 413.171283 361.333136" xmlns="http://www.w3.org/2000/svg" version="1.1">
 <metadata>
  <rdf:RDF xmlns:dc="http://purl.org/dc/elements/1.1/" xmlns:cc="http://creativecommons.org/ns#" xmlns:rdf="http://www.w3.org/1999/02/22-rdf-syntax-ns#">
   <cc:Work>
    <dc:type rdf:resource="http://purl.org/dc/dcmitype/StillImage"/>
    <dc:date>2025-12-30T01:47:28.962549</dc:date>
    <dc:format>image/svg+xml</dc:format>
    <dc:creator>
     <cc:Agent>
      <dc:title>Matplotlib v3.8.0, https://matplotlib.org/</dc:title>
     </cc:Agent>
    </dc:creator>
   </cc:Work>
  </rdf:RDF>
 </metadata>
 <defs>
  <style type="text/css">*{stroke-linejoin: round; stroke-linecap: butt}</style>
 </defs>
 <g id="figure_1">
  <g id="patch_1">
   <path d="M 0 361.333136 
L 413.171283 361.333136 
L 413.171283 -0 
L 0 -0 
z
" style="fill: #ffffff"/>
  </g>
  <g id="axes_1">
   <g id="patch_2">
    <path d="M 48.851283 285.37598 
L 405.971283 285.37598 
L 405.971283 19.26398 
L 48.851283 19.26398 
z
" style="fill: #ffffff"/>
   </g>
   <g id="PolyCollection_1">
    <defs>
     <path id="m4bdf7989c4" d="M 48.851283 -229.854233 
L 48.851283 -177.916504 
L 60.011283 -177.161238 
L 71.171283 -172.584275 
L 82.331283 -163.766999 
L 93.491283 -158.690735 
L 104.651283 -159.304859 
L 115.811283 -160.942494 
L 126.971283 -159.505397 
L 138.131283 -154.203534 
L 149.291283 -162.037373 
L 160.451283 -172.50589 
L 171.611283 -164.729629 
L 182.771283 -154.725022 
L 193.931283 -148.674747 
L 205.091283 -146.555502 
L 216.251283 -155.666242 
L 227.411283 -163.375446 
L 238.571283 -157.64069 
L 249.731283 -148.478928 
L 260.891283 -141.509472 
L 272.051283 -133.650149 
L 283.211283 -125.6602 
L 294.371283 -126.421135 
L 305.531283 -125.587061 
L 316.691283 -121.73429 
L 327.851283 -112.758271 
L 339.011283 -103.384951 
L 350.171283 -99.530098 
L 361.331283 -100.97975 
L 372.491283 -107.147738 
L 383.651283 -107.232385 
L 394.811283 -107.131136 
L 405.971283 -106.170229 
L 405.971283 -123.648391 
L 405.971283 -123.648391 
L 394.811283 -124.246806 
L 383.651283 -123.889439 
L 372.491283 -124.230479 
L 361.331283 -119.416124 
L 350.171283 -117.902538 
L 339.011283 -121.980369 
L 327.851283 -132.852903 
L 316.691283 -143.972843 
L 305.531283 -148.58609 
L 294.371283 -150.289143 
L 283.211283 -150.56292 
L 272.051283 -158.77124 
L 260.891283 -167.542182 
L 249.731283 -174.174245 
L 238.571283 -182.515278 
L 227.411283 -189.510567 
L 216.251283 -183.172159 
L 205.091283 -174.410659 
L 193.931283 -177.723132 
L 182.771283 -186.265527 
L 171.611283 -199.747816 
L 160.451283 -209.313678 
L 149.291283 -201.927604 
L 138.131283 -198.34127 
L 126.971283 -205.737747 
L 115.811283 -209.086041 
L 104.651283 -209.938863 
L 93.491283 -213.207498 
L 82.331283 -220.469309 
L 71.171283 -227.081396 
L 60.011283 -228.789585 
L 48.851283 -229.854233 
z
" style="stroke: #1f77b4; stroke-opacity: 0.2"/>
    </defs>
    <g clip-path="url(#pdb0aeb892e)">
     <use xlink:href="#m4bdf7989c4" x="0" y="361.333136" style="fill: #1f77b4; fill-opacity: 0.2; stroke: #1f77b4; stroke-opacity: 0.2"/>
    </g>
   </g>
   <g id="PolyCollection_2">
    <defs>
     <path id="m964ca3ec43" d="M 48.851283 -320.720222 
L 48.851283 -236.315419 
L 60.011283 -235.54391 
L 71.171283 -238.258955 
L 82.331283 -230.998513 
L 93.491283 -223.984482 
L 104.651283 -208.599696 
L 115.811283 -203.846613 
L 126.971283 -205.805523 
L 138.131283 -202.869701 
L 149.291283 -187.533119 
L 160.451283 -175.937069 
L 171.611283 -173.747411 
L 182.771283 -183.476482 
L 193.931283 -179.159304 
L 205.091283 -168.754938 
L 216.251283 -166.568985 
L 227.411283 -161.707022 
L 238.571283 -158.320169 
L 249.731283 -155.037809 
L 260.891283 -155.510691 
L 272.051283 -144.608071 
L 283.211283 -144.836818 
L 294.371283 -141.288449 
L 305.531283 -142.829273 
L 316.691283 -148.436547 
L 327.851283 -141.522333 
L 339.011283 -128.268247 
L 350.171283 -124.574626 
L 361.331283 -122.281526 
L 372.491283 -120.52072 
L 383.651283 -114.525376 
L 394.811283 -104.786763 
L 405.971283 -88.053156 
L 405.971283 -126.452891 
L 405.971283 -126.452891 
L 394.811283 -140.194136 
L 383.651283 -149.789219 
L 372.491283 -159.381718 
L 361.331283 -166.776671 
L 350.171283 -173.87127 
L 339.011283 -180.800019 
L 327.851283 -195.054136 
L 316.691283 -202.416036 
L 305.531283 -194.948113 
L 294.371283 -188.503223 
L 283.211283 -193.924373 
L 272.051283 -198.212986 
L 260.891283 -211.766303 
L 249.731283 -211.587237 
L 238.571283 -214.200293 
L 227.411283 -215.052468 
L 216.251283 -215.114973 
L 205.091283 -214.504019 
L 193.931283 -225.801957 
L 182.771283 -236.625227 
L 171.611283 -236.899554 
L 160.451283 -246.62223 
L 149.291283 -261.640465 
L 138.131283 -280.171594 
L 126.971283 -288.043588 
L 115.811283 -290.226524 
L 104.651283 -296.876002 
L 93.491283 -312.953055 
L 82.331283 -321.928667 
L 71.171283 -329.973156 
L 60.011283 -325.24403 
L 48.851283 -320.720222 
z
" style="stroke: #ff7f0e; stroke-opacity: 0.2"/>
    </defs>
    <g clip-path="url(#pdb0aeb892e)">
     <use xlink:href="#m964ca3ec43" x="0" y="361.333136" style="fill: #ff7f0e; fill-opacity: 0.2; stroke: #ff7f0e; stroke-opacity: 0.2"/>
    </g>
   </g>
   <g id="matplotlib.axis_1">
    <g id="text_1">
     <text style="font: 10px 'Arial', sans-serif; text-anchor: middle" x="227.411283" y="296.533792" transform="rotate(-0 227.411283 296.533792)">Time</text>
    </g>
   </g>
   <g id="matplotlib.axis_2">
    <g id="ytick_1">
     <g id="line2d_1">
      <defs>
       <path id="m99d49265a2" d="M 0 0 
L -3.5 0 
" style="stroke: #000000; stroke-width: 0.8"/>
      </defs>
      <g>
       <use xlink:href="#m99d49265a2" x="48.851283" y="276.650895" style="stroke: #000000; stroke-width: 0.8"/>
      </g>
     </g>
     <g id="text_2">
      <text style="font: 10px 'Arial', sans-serif; text-anchor: end" x="41.851283" y="280.229801" transform="rotate(-0 41.851283 280.229801)">−0.4</text>
     </g>
    </g>
    <g id="ytick_2">
     <g id="line2d_2">
      <g>
       <use xlink:href="#m99d49265a2" x="48.851283" y="241.191685" style="stroke: #000000; stroke-width: 0.8"/>
      </g>
     </g>
     <g id="text_3">
      <text style="font: 10px 'Arial', sans-serif; text-anchor: end" x="41.851283" y="244.770591" transform="rotate(-0 41.851283 244.770591)">−0.3</text>
     </g>
    </g>
    <g id="ytick_3">
     <g id="line2d_3">
      <g>
       <use xlink:href="#m99d49265a2" x="48.851283" y="205.732476" style="stroke: #000000; stroke-width: 0.8"/>
      </g>
     </g>
     <g id="text_4">
      <text style="font: 10px 'Arial', sans-serif; text-anchor: end" x="41.851283" y="209.311382" transform="rotate(-0 41.851283 209.311382)">−0.2</text>
     </g>
    </g>
    <g id="ytick_4">
     <g id="line2d_4">
      <g>
       <use xlink:href="#m99d49265a2" x="48.851283" y="170.273266" style="stroke: #000000; stroke-width: 0.8"/>
      </g>
     </g>
     <g id="text_5">
      <text style="font: 10px 'Arial', sans-serif; text-anchor: end" x="41.851283" y="173.852172" transform="rotate(-0 41.851283 173.852172)">−0.1</text>
     </g>
    </g>
    <g id="ytick_5">
     <g id="line2d_5">
      <g>
       <use xlink:href="#m99d49265a2" x="48.851283" y="134.814057" style="stroke: #000000; stroke-width: 0.8"/>
      </g>
     </g>
     <g id="text_6">
      <text style="font: 10px 'Arial', sans-serif; text-anchor: end" x="41.851283" y="138.392963" transform="rotate(-0 41.851283 138.392963)">0.0</text>
     </g>
    </g>
    <g id="ytick_6">
     <g id="line2d_6">
      <g>
       <use xlink:href="#m99d49265a2" x="48.851283" y="99.354847" style="stroke: #000000; stroke-width: 0.8"/>
      </g>
     </g>
     <g id="text_7">
      <text style="font: 10px 'Arial', sans-serif; text-anchor: end" x="41.851283" y="102.933753" transform="rotate(-0 41.851283 102.933753)">0.1</text>
     </g>
    </g>
    <g id="ytick_7">
     <g id="line2d_7">
      <g>
       <use xlink:href="#m99d49265a2" x="48.851283" y="63.895638" style="stroke: #000000; stroke-width: 0.8"/>
      </g>
     </g>
     <g id="text_8">
      <text style="font: 10px 'Arial', sans-serif; text-anchor: end" x="41.851283" y="67.474544" transform="rotate(-0 41.851283 67.474544)">0.2</text>
     </g>
    </g>
    <g id="ytick_8">
     <g id="line2d_8">
      <g>
       <use xlink:href="#m99d49265a2" x="48.851283" y="28.436428" style="stroke: #000000; stroke-width: 0.8"/>
      </g>
     </g>
     <g id="text_9">
      <text style="font: 10px 'Arial', sans-serif; text-anchor: end" x="41.851283" y="32.015334" transform="rotate(-0 41.851283 32.015334)">0.3</text>
     </g>
    </g>
    <g id="text_10">
     <text style="font: 10px 'Arial', sans-serif; text-anchor: middle" x="16.005971" y="152.31998" transform="rotate(-90 16.005971 152.31998)">Activity</text>
    </g>
   </g>
   <g id="line2d_9">
    <path d="M 48.851283 157.447769 
L 60.011283 158.357724 
L 71.171283 161.5003 
L 82.331283 169.214981 
L 93.491283 175.384021 
L 104.651283 176.711275 
L 115.811283 176.318868 
L 126.971283 178.711565 
L 138.131283 185.060734 
L 149.291283 179.350648 
L 160.451283 170.423351 
L 171.611283 179.094413 
L 182.771283 190.837861 
L 193.931283 198.134197 
L 205.091283 200.850056 
L 216.251283 191.913935 
L 227.411283 184.890129 
L 238.571283 191.255152 
L 249.731283 200.00655 
L 260.891283 206.807309 
L 272.051283 215.122441 
L 283.211283 223.221576 
L 294.371283 222.977997 
L 305.531283 224.246561 
L 316.691283 228.479567 
L 327.851283 238.527548 
L 339.011283 248.650476 
L 350.171283 252.616818 
L 361.331283 251.135199 
L 372.491283 245.644027 
L 383.651283 245.772224 
L 394.811283 245.644165 
L 405.971283 246.423826 
" clip-path="url(#pdb0aeb892e)" style="fill: none; stroke: #1f77b4; stroke-width: 1.5; stroke-linecap: square"/>
   </g>
   <g id="line2d_10">
    <path d="M 48.851283 82.815313 
L 60.011283 80.939166 
L 71.171283 77.21708 
L 82.331283 84.869546 
L 93.491283 92.864367 
L 104.651283 108.595287 
L 115.811283 114.296567 
L 126.971283 114.408579 
L 138.131283 119.812487 
L 149.291283 136.746345 
L 160.451283 150.053486 
L 171.611283 156.009652 
L 182.771283 151.282281 
L 193.931283 158.852505 
L 205.091283 169.703659 
L 216.251283 170.491159 
L 227.411283 172.953391 
L 238.571283 175.072906 
L 249.731283 178.020614 
L 260.891283 177.694639 
L 272.051283 189.922606 
L 283.211283 191.952539 
L 294.371283 196.437299 
L 305.531283 192.444443 
L 316.691283 185.906845 
L 327.851283 193.044903 
L 339.011283 206.799003 
L 350.171283 212.110186 
L 361.331283 216.804037 
L 372.491283 221.381919 
L 383.651283 229.175839 
L 394.811283 238.842687 
L 405.971283 254.080112 
" clip-path="url(#pdb0aeb892e)" style="fill: none; stroke: #ff7f0e; stroke-width: 1.5; stroke-linecap: square"/>
   </g>
   <g id="line2d_11">
    <path d="M 82.331283 285.37598 
L 82.331283 19.26398 
" clip-path="url(#pdb0aeb892e)" style="fill: none; stroke-dasharray: 5.55,2.4; stroke-dashoffset: 0; stroke: #000000; stroke-opacity: 0.5; stroke-width: 1.5"/>
   </g>
   <g id="line2d_12">
    <path d="M 383.651283 285.37598 
L 383.651283 19.26398 
" clip-path="url(#pdb0aeb892e)" style="fill: none; stroke-dasharray: 5.55,2.4; stroke-dashoffset: 0; stroke: #000000; stroke-opacity: 0.5; stroke-width: 1.5"/>
   </g>
   <g id="patch_3">
    <path d="M 48.851283 285.37598 
L 405.971283 285.37598 
" style="fill: none; stroke: #000000; stroke-width: 0.8; stroke-linejoin: miter; stroke-linecap: square"/>
   </g>
   <g id="text_11">
    <text style="font: 6.94px 'Arial', sans-serif" transform="translate(10.097767 321.385533) rotate(-35)">-0.1s Sampling</text>
   </g>
   <g id="text_12">
    <text style="font: 6.94px 'Arial', sans-serif" transform="translate(57.794497 311.430872) rotate(-35)">Sampling</text>
   </g>
   <g id="text_13">
    <text style="font: 6.94px 'Arial', sans-serif" transform="translate(319.037191 339.456682) rotate(-35)">Movement to Lateral Port</text>
   </g>
   <g id="text_14">
    <text style="font: 8.33px 'Arial', sans-serif; text-anchor: middle" x="227.411283" y="13.26398" transform="rotate(-0 227.411283 13.26398)">GP4_23_S1_L50_D250_mm2 - Trace:18_GP4_23_S1_L50_D250_mm2 (when: correct)</text>
   </g>
   <g id="legend_1">
    <g id="patch_4">
     <path d="M 129.837052 354.133136 
L 324.985514 354.133136 
Q 326.373514 354.133136 326.373514 352.745136 
L 326.373514 343.45638 
Q 326.373514 342.06838 324.985514 342.06838 
L 129.837052 342.06838 
Q 128.449052 342.06838 128.449052 343.45638 
L 128.449052 352.745136 
Q 128.449052 354.133136 129.837052 354.133136 
z
" style="fill: #ffffff; opacity: 0.8; stroke: #cccccc; stroke-linejoin: miter"/>
    </g>
    <g id="line2d_13">
     <path d="M 131.225052 347.467483 
L 138.165052 347.467483 
L 145.105052 347.467483 
" style="fill: none; stroke: #1f77b4; stroke-width: 1.5; stroke-linecap: square"/>
    </g>
    <g id="text_15">
     <text style="font: 6.94px 'Arial', sans-serif; text-anchor: start" x="150.657052" y="349.896483" transform="rotate(-0 150.657052 349.896483)">DecisionRight (100 pts)</text>
    </g>
    <g id="line2d_14">
     <path d="M 236.664255 347.467483 
L 243.604255 347.467483 
L 250.544255 347.467483 
" style="fill: none; stroke: #ff7f0e; stroke-width: 1.5; stroke-linecap: square"/>
    </g>
    <g id="text_16">
     <text style="font: 6.94px 'Arial', sans-serif; text-anchor: start" x="256.096255" y="349.896483" transform="rotate(-0 256.096255 349.896483)">DecisionLeft (102 pts)</text>
    </g>
   </g>
  </g>
 </g>
 <defs>
  <clipPath id="pdb0aeb892e">
   <rect x="48.851283" y="19.26398" width="357.12" height="266.112"/>
  </clipPath>
 </defs>
</svg>
