<?xml version="1.0" encoding="utf-8" standalone="no"?>
<!DOCTYPE svg PUBLIC "-//W3C//DTD SVG 1.1//EN"
  "http://www.w3.org/Graphics/SVG/1.1/DTD/svg11.dtd">
<svg xmlns:xlink="http://www.w3.org/1999/xlink" width="413.171283pt" height="361.333136pt" viewBox="0 0 413.171283 361.333136" xmlns="http://www.w3.org/2000/svg" version="1.1">
 <metadata>
  <rdf:RDF xmlns:dc="http://purl.org/dc/elements/1.1/" xmlns:cc="http://creativecommons.org/ns#" xmlns:rdf="http://www.w3.org/1999/02/22-rdf-syntax-ns#">
   <cc:Work>
    <dc:type rdf:resource="http://purl.org/dc/dcmitype/StillImage"/>
    <dc:date>2025-12-30T01:47:24.046981</dc:date>
    <dc:format>image/svg+xml</dc:format>
    <dc:creator>
     <cc:Agent>
      <dc:title>Matplotlib v3.8.0, https://matplotlib.org/</dc:title>
     </cc:Agent>
    </dc:creator>
   </cc:Work>
  </rdf:RDF>
 </metadata>
 <defs>
  <style type="text/css">*{stroke-linejoin: round; stroke-linecap: butt}</style>
 </defs>
 <g id="figure_1">
  <g id="patch_1">
   <path d="M 0 361.333136 
L 413.171283 361.333136 
L 413.171283 -0 
L 0 -0 
z
" style="fill: #ffffff"/>
  </g>
  <g id="axes_1">
   <g id="patch_2">
    <path d="M 48.851283 285.37598 
L 405.971283 285.37598 
L 405.971283 19.26398 
L 48.851283 19.26398 
z
" style="fill: #ffffff"/>
   </g>
   <g id="PolyCollection_1">
    <defs>
     <path id="m015362f887" d="M 48.851283 -131.317241 
L 48.851283 -88.053156 
L 60.011283 -104.417093 
L 71.171283 -118.349947 
L 82.331283 -133.504448 
L 93.491283 -139.277568 
L 104.651283 -145.040462 
L 115.811283 -149.930585 
L 126.971283 -149.922338 
L 138.131283 -154.903472 
L 149.291283 -174.579526 
L 160.451283 -188.93227 
L 171.611283 -198.537524 
L 182.771283 -211.626697 
L 193.931283 -209.125505 
L 205.091283 -199.429047 
L 216.251283 -201.638177 
L 227.411283 -214.409673 
L 238.571283 -221.103868 
L 249.731283 -217.276205 
L 260.891283 -205.595201 
L 272.051283 -197.929216 
L 283.211283 -194.056895 
L 294.371283 -187.594595 
L 305.531283 -179.017343 
L 316.691283 -170.364167 
L 327.851283 -171.776305 
L 339.011283 -172.713398 
L 350.171283 -170.431766 
L 361.331283 -181.884754 
L 372.491283 -197.293163 
L 383.651283 -197.1228 
L 394.811283 -190.610029 
L 405.971283 -188.318108 
L 405.971283 -302.806026 
L 405.971283 -302.806026 
L 394.811283 -312.45147 
L 383.651283 -326.907012 
L 372.491283 -329.973156 
L 361.331283 -308.757843 
L 350.171283 -286.003522 
L 339.011283 -288.218632 
L 327.851283 -289.126554 
L 316.691283 -283.039553 
L 305.531283 -289.487936 
L 294.371283 -292.893554 
L 283.211283 -302.451853 
L 272.051283 -309.040356 
L 260.891283 -312.099408 
L 249.731283 -315.469686 
L 238.571283 -313.139674 
L 227.411283 -303.698837 
L 216.251283 -293.457506 
L 205.091283 -298.04657 
L 193.931283 -312.944821 
L 182.771283 -318.87629 
L 171.611283 -307.160137 
L 160.451283 -296.590168 
L 149.291283 -280.12129 
L 138.131283 -257.451888 
L 126.971283 -249.034944 
L 115.811283 -244.28322 
L 104.651283 -231.822939 
L 93.491283 -213.219121 
L 82.331283 -193.613679 
L 71.171283 -166.491111 
L 60.011283 -147.907193 
L 48.851283 -131.317241 
z
" style="stroke: #1f77b4; stroke-opacity: 0.2"/>
    </defs>
    <g clip-path="url(#p94093941e5)">
     <use xlink:href="#m015362f887" x="0" y="361.333136" style="fill: #1f77b4; fill-opacity: 0.2; stroke: #1f77b4; stroke-opacity: 0.2"/>
    </g>
   </g>
   <g id="PolyCollection_2">
    <defs>
     <path id="m9eda82b4f0" d="M 48.851283 -181.823482 
L 48.851283 -119.221755 
L 60.011283 -135.692928 
L 71.171283 -136.938183 
L 82.331283 -137.583542 
L 93.491283 -139.904705 
L 104.651283 -143.56177 
L 115.811283 -158.054404 
L 126.971283 -185.167653 
L 138.131283 -197.172339 
L 149.291283 -220.049066 
L 160.451283 -227.988081 
L 171.611283 -234.760568 
L 182.771283 -232.022786 
L 193.931283 -217.061504 
L 205.091283 -210.004703 
L 216.251283 -217.836795 
L 227.411283 -208.471631 
L 238.571283 -204.542512 
L 249.731283 -199.045104 
L 260.891283 -204.582611 
L 272.051283 -207.125496 
L 283.211283 -197.293017 
L 294.371283 -193.524185 
L 305.531283 -169.917993 
L 316.691283 -146.899958 
L 327.851283 -142.932882 
L 339.011283 -137.771311 
L 350.171283 -131.413736 
L 361.331283 -139.788428 
L 372.491283 -142.149624 
L 383.651283 -143.990582 
L 394.811283 -137.617515 
L 405.971283 -115.003725 
L 405.971283 -185.284123 
L 405.971283 -185.284123 
L 394.811283 -211.888998 
L 383.651283 -219.900766 
L 372.491283 -218.750141 
L 361.331283 -216.069101 
L 350.171283 -202.866041 
L 339.011283 -201.562839 
L 327.851283 -207.012783 
L 316.691283 -220.799818 
L 305.531283 -253.106318 
L 294.371283 -282.494779 
L 283.211283 -287.191499 
L 272.051283 -293.099464 
L 260.891283 -288.378894 
L 249.731283 -281.450468 
L 238.571283 -281.772809 
L 227.411283 -279.788627 
L 216.251283 -285.175912 
L 205.091283 -278.401465 
L 193.931283 -284.160261 
L 182.771283 -296.758022 
L 171.611283 -301.495062 
L 160.451283 -298.039853 
L 149.291283 -289.968214 
L 138.131283 -266.532236 
L 126.971283 -255.341641 
L 115.811283 -227.617025 
L 104.651283 -212.054487 
L 93.491283 -205.128808 
L 82.331283 -201.315053 
L 71.171283 -203.331714 
L 60.011283 -200.315664 
L 48.851283 -181.823482 
z
" style="stroke: #ff7f0e; stroke-opacity: 0.2"/>
    </defs>
    <g clip-path="url(#p94093941e5)">
     <use xlink:href="#m9eda82b4f0" x="0" y="361.333136" style="fill: #ff7f0e; fill-opacity: 0.2; stroke: #ff7f0e; stroke-opacity: 0.2"/>
    </g>
   </g>
   <g id="matplotlib.axis_1">
    <g id="text_1">
     <text style="font: 10px 'Arial', sans-serif; text-anchor: middle" x="227.411283" y="296.533792" transform="rotate(-0 227.411283 296.533792)">Time</text>
    </g>
   </g>
   <g id="matplotlib.axis_2">
    <g id="ytick_1">
     <g id="line2d_1">
      <defs>
       <path id="m7043eb01c0" d="M 0 0 
L -3.5 0 
" style="stroke: #000000; stroke-width: 0.8"/>
      </defs>
      <g>
       <use xlink:href="#m7043eb01c0" x="48.851283" y="246.727817" style="stroke: #000000; stroke-width: 0.8"/>
      </g>
     </g>
     <g id="text_2">
      <text style="font: 10px 'Arial', sans-serif; text-anchor: end" x="41.851283" y="250.306723" transform="rotate(-0 41.851283 250.306723)">−0.2</text>
     </g>
    </g>
    <g id="ytick_2">
     <g id="line2d_2">
      <g>
       <use xlink:href="#m7043eb01c0" x="48.851283" y="197.358963" style="stroke: #000000; stroke-width: 0.8"/>
      </g>
     </g>
     <g id="text_3">
      <text style="font: 10px 'Arial', sans-serif; text-anchor: end" x="41.851283" y="200.937869" transform="rotate(-0 41.851283 200.937869)">−0.1</text>
     </g>
    </g>
    <g id="ytick_3">
     <g id="line2d_3">
      <g>
       <use xlink:href="#m7043eb01c0" x="48.851283" y="147.990109" style="stroke: #000000; stroke-width: 0.8"/>
      </g>
     </g>
     <g id="text_4">
      <text style="font: 10px 'Arial', sans-serif; text-anchor: end" x="41.851283" y="151.569015" transform="rotate(-0 41.851283 151.569015)">0.0</text>
     </g>
    </g>
    <g id="ytick_4">
     <g id="line2d_4">
      <g>
       <use xlink:href="#m7043eb01c0" x="48.851283" y="98.621254" style="stroke: #000000; stroke-width: 0.8"/>
      </g>
     </g>
     <g id="text_5">
      <text style="font: 10px 'Arial', sans-serif; text-anchor: end" x="41.851283" y="102.20016" transform="rotate(-0 41.851283 102.20016)">0.1</text>
     </g>
    </g>
    <g id="ytick_5">
     <g id="line2d_5">
      <g>
       <use xlink:href="#m7043eb01c0" x="48.851283" y="49.2524" style="stroke: #000000; stroke-width: 0.8"/>
      </g>
     </g>
     <g id="text_6">
      <text style="font: 10px 'Arial', sans-serif; text-anchor: end" x="41.851283" y="52.831306" transform="rotate(-0 41.851283 52.831306)">0.2</text>
     </g>
    </g>
    <g id="text_7">
     <text style="font: 10px 'Arial', sans-serif; text-anchor: middle" x="16.005971" y="152.31998" transform="rotate(-90 16.005971 152.31998)">Activity</text>
    </g>
   </g>
   <g id="line2d_6">
    <path d="M 48.851283 251.647941 
L 60.011283 235.170993 
L 71.171283 218.912607 
L 82.331283 197.774074 
L 93.491283 185.084791 
L 104.651283 172.901435 
L 115.811283 164.226232 
L 126.971283 161.854495 
L 138.131283 155.155455 
L 149.291283 133.982729 
L 160.451283 118.571918 
L 171.611283 108.484304 
L 182.771283 96.081642 
L 193.931283 100.297973 
L 205.091283 112.595329 
L 216.251283 113.785296 
L 227.411283 102.278881 
L 238.571283 94.211365 
L 249.731283 94.96019 
L 260.891283 102.485831 
L 272.051283 107.84835 
L 283.211283 113.078764 
L 294.371283 121.089062 
L 305.531283 127.080494 
L 316.691283 134.631277 
L 327.851283 130.881705 
L 339.011283 130.867121 
L 350.171283 133.115491 
L 361.331283 116.011839 
L 372.491283 97.699977 
L 383.651283 99.31823 
L 394.811283 109.802385 
L 405.971283 115.771071 
" clip-path="url(#p94093941e5)" style="fill: none; stroke: #1f77b4; stroke-width: 1.5; stroke-linecap: square"/>
   </g>
   <g id="line2d_7">
    <path d="M 48.851283 210.810519 
L 60.011283 193.328842 
L 71.171283 191.198188 
L 82.331283 191.883838 
L 93.491283 188.816378 
L 104.651283 183.525008 
L 115.811283 168.497421 
L 126.971283 141.078489 
L 138.131283 129.480848 
L 149.291283 106.324496 
L 160.451283 98.319168 
L 171.611283 93.205319 
L 182.771283 96.942732 
L 193.931283 110.722253 
L 205.091283 117.13005 
L 216.251283 109.826783 
L 227.411283 117.203005 
L 238.571283 118.175474 
L 249.731283 121.085351 
L 260.891283 114.852383 
L 272.051283 111.220654 
L 283.211283 119.090877 
L 294.371283 123.323653 
L 305.531283 149.820979 
L 316.691283 177.483249 
L 327.851283 186.360304 
L 339.011283 191.666059 
L 350.171283 194.193245 
L 361.331283 183.404372 
L 372.491283 180.883255 
L 383.651283 179.387462 
L 394.811283 186.579878 
L 405.971283 211.189212 
" clip-path="url(#p94093941e5)" style="fill: none; stroke: #ff7f0e; stroke-width: 1.5; stroke-linecap: square"/>
   </g>
   <g id="line2d_8">
    <path d="M 82.331283 285.37598 
L 82.331283 19.26398 
" clip-path="url(#p94093941e5)" style="fill: none; stroke-dasharray: 5.55,2.4; stroke-dashoffset: 0; stroke: #000000; stroke-opacity: 0.5; stroke-width: 1.5"/>
   </g>
   <g id="line2d_9">
    <path d="M 383.651283 285.37598 
L 383.651283 19.26398 
" clip-path="url(#p94093941e5)" style="fill: none; stroke-dasharray: 5.55,2.4; stroke-dashoffset: 0; stroke: #000000; stroke-opacity: 0.5; stroke-width: 1.5"/>
   </g>
   <g id="patch_3">
    <path d="M 48.851283 285.37598 
L 405.971283 285.37598 
" style="fill: none; stroke: #000000; stroke-width: 0.8; stroke-linejoin: miter; stroke-linecap: square"/>
   </g>
   <g id="text_8">
    <text style="font: 6.94px 'Arial', sans-serif" transform="translate(10.097767 321.385533) rotate(-35)">-0.1s Sampling</text>
   </g>
   <g id="text_9">
    <text style="font: 6.94px 'Arial', sans-serif" transform="translate(57.794497 311.430872) rotate(-35)">Sampling</text>
   </g>
   <g id="text_10">
    <text style="font: 6.94px 'Arial', sans-serif" transform="translate(319.037191 339.456682) rotate(-35)">Movement to Lateral Port</text>
   </g>
   <g id="text_11">
    <text style="font: 8.33px 'Arial', sans-serif; text-anchor: middle" x="227.411283" y="13.26398" transform="rotate(-0 227.411283 13.26398)">GP4_23_S1_L50_D250_mm2 - Trace:24_GP4_23_S1_L50_D250_mm2 (when: correct)</text>
   </g>
   <g id="legend_1">
    <g id="patch_4">
     <path d="M 129.837052 354.133136 
L 324.985514 354.133136 
Q 326.373514 354.133136 326.373514 352.745136 
L 326.373514 343.45638 
Q 326.373514 342.06838 324.985514 342.06838 
L 129.837052 342.06838 
Q 128.449052 342.06838 128.449052 343.45638 
L 128.449052 352.745136 
Q 128.449052 354.133136 129.837052 354.133136 
z
" style="fill: #ffffff; opacity: 0.8; stroke: #cccccc; stroke-linejoin: miter"/>
    </g>
    <g id="line2d_10">
     <path d="M 131.225052 347.467483 
L 138.165052 347.467483 
L 145.105052 347.467483 
" style="fill: none; stroke: #1f77b4; stroke-width: 1.5; stroke-linecap: square"/>
    </g>
    <g id="text_12">
     <text style="font: 6.94px 'Arial', sans-serif; text-anchor: start" x="150.657052" y="349.896483" transform="rotate(-0 150.657052 349.896483)">DecisionRight (100 pts)</text>
    </g>
    <g id="line2d_11">
     <path d="M 236.664255 347.467483 
L 243.604255 347.467483 
L 250.544255 347.467483 
" style="fill: none; stroke: #ff7f0e; stroke-width: 1.5; stroke-linecap: square"/>
    </g>
    <g id="text_13">
     <text style="font: 6.94px 'Arial', sans-serif; text-anchor: start" x="256.096255" y="349.896483" transform="rotate(-0 256.096255 349.896483)">DecisionLeft (102 pts)</text>
    </g>
   </g>
  </g>
 </g>
 <defs>
  <clipPath id="p94093941e5">
   <rect x="48.851283" y="19.26398" width="357.12" height="266.112"/>
  </clipPath>
 </defs>
</svg>
