<?xml version="1.0" encoding="utf-8" standalone="no"?>
<!DOCTYPE svg PUBLIC "-//W3C//DTD SVG 1.1//EN"
  "http://www.w3.org/Graphics/SVG/1.1/DTD/svg11.dtd">
<svg xmlns:xlink="http://www.w3.org/1999/xlink" width="413.171283pt" height="361.333136pt" viewBox="0 0 413.171283 361.333136" xmlns="http://www.w3.org/2000/svg" version="1.1">
 <metadata>
  <rdf:RDF xmlns:dc="http://purl.org/dc/elements/1.1/" xmlns:cc="http://creativecommons.org/ns#" xmlns:rdf="http://www.w3.org/1999/02/22-rdf-syntax-ns#">
   <cc:Work>
    <dc:type rdf:resource="http://purl.org/dc/dcmitype/StillImage"/>
    <dc:date>2025-12-30T01:47:30.721808</dc:date>
    <dc:format>image/svg+xml</dc:format>
    <dc:creator>
     <cc:Agent>
      <dc:title>Matplotlib v3.8.0, https://matplotlib.org/</dc:title>
     </cc:Agent>
    </dc:creator>
   </cc:Work>
  </rdf:RDF>
 </metadata>
 <defs>
  <style type="text/css">*{stroke-linejoin: round; stroke-linecap: butt}</style>
 </defs>
 <g id="figure_1">
  <g id="patch_1">
   <path d="M 0 361.333136 
L 413.171283 361.333136 
L 413.171283 -0 
L 0 -0 
z
" style="fill: #ffffff"/>
  </g>
  <g id="axes_1">
   <g id="patch_2">
    <path d="M 48.851283 285.37598 
L 405.971283 285.37598 
L 405.971283 19.26398 
L 48.851283 19.26398 
z
" style="fill: #ffffff"/>
   </g>
   <g id="PolyCollection_1">
    <defs>
     <path id="mda378f0dd2" d="M 48.851283 -169.35322 
L 48.851283 -144.535812 
L 60.011283 -153.153752 
L 71.171283 -171.523259 
L 82.331283 -204.529228 
L 93.491283 -230.238848 
L 104.651283 -243.280441 
L 115.811283 -245.583954 
L 126.971283 -241.248264 
L 138.131283 -235.529077 
L 149.291283 -235.204594 
L 160.451283 -240.489773 
L 171.611283 -244.696417 
L 182.771283 -248.696277 
L 193.931283 -252.860427 
L 205.091283 -253.088513 
L 216.251283 -240.745462 
L 227.411283 -221.830933 
L 238.571283 -210.945178 
L 249.731283 -208.898592 
L 260.891283 -207.305864 
L 272.051283 -192.262475 
L 283.211283 -170.111334 
L 294.371283 -157.544669 
L 305.531283 -153.033602 
L 316.691283 -149.756643 
L 327.851283 -140.028483 
L 339.011283 -128.199747 
L 350.171283 -120.466587 
L 361.331283 -114.288962 
L 372.491283 -103.803147 
L 383.651283 -92.519589 
L 394.811283 -88.053156 
L 405.971283 -88.520315 
L 405.971283 -109.698149 
L 405.971283 -109.698149 
L 394.811283 -109.626664 
L 383.651283 -114.589984 
L 372.491283 -128.303814 
L 361.331283 -141.35422 
L 350.171283 -149.269404 
L 339.011283 -155.927663 
L 327.851283 -167.148416 
L 316.691283 -181.441264 
L 305.531283 -192.753935 
L 294.371283 -202.510397 
L 283.211283 -216.986987 
L 272.051283 -243.398491 
L 260.891283 -260.475438 
L 249.731283 -258.484884 
L 238.571283 -256.140098 
L 227.411283 -268.535232 
L 216.251283 -290.78098 
L 205.091283 -310.309858 
L 193.931283 -310.215473 
L 182.771283 -302.685423 
L 171.611283 -297.636468 
L 160.451283 -292.21548 
L 149.291283 -284.805376 
L 138.131283 -283.223872 
L 126.971283 -288.252772 
L 115.811283 -289.441148 
L 104.651283 -283.373339 
L 93.491283 -266.833519 
L 82.331283 -237.173188 
L 71.171283 -200.158525 
L 60.011283 -178.963993 
L 48.851283 -169.35322 
z
" style="stroke: #1f77b4; stroke-opacity: 0.2"/>
    </defs>
    <g clip-path="url(#pb00c706758)">
     <use xlink:href="#mda378f0dd2" x="0" y="361.333136" style="fill: #1f77b4; fill-opacity: 0.2; stroke: #1f77b4; stroke-opacity: 0.2"/>
    </g>
   </g>
   <g id="PolyCollection_2">
    <defs>
     <path id="m299d4ac2b0" d="M 48.851283 -184.940527 
L 48.851283 -149.274736 
L 60.011283 -171.344753 
L 71.171283 -202.124404 
L 82.331283 -225.40212 
L 93.491283 -238.682878 
L 104.651283 -256.529491 
L 115.811283 -272.24458 
L 126.971283 -273.028374 
L 138.131283 -266.132177 
L 149.291283 -259.508006 
L 160.451283 -259.043209 
L 171.611283 -264.726059 
L 182.771283 -255.011807 
L 193.931283 -242.995282 
L 205.091283 -234.655656 
L 216.251283 -223.420234 
L 227.411283 -205.171023 
L 238.571283 -187.052116 
L 249.731283 -177.022651 
L 260.891283 -169.707409 
L 272.051283 -161.809497 
L 283.211283 -151.489196 
L 294.371283 -144.494688 
L 305.531283 -151.073808 
L 316.691283 -147.260701 
L 327.851283 -132.10961 
L 339.011283 -125.23123 
L 350.171283 -123.31415 
L 361.331283 -109.122747 
L 372.491283 -96.725983 
L 383.651283 -96.772631 
L 394.811283 -99.770402 
L 405.971283 -103.191063 
L 405.971283 -130.203447 
L 405.971283 -130.203447 
L 394.811283 -124.833053 
L 383.651283 -121.9524 
L 372.491283 -123.578432 
L 361.331283 -138.669316 
L 350.171283 -155.88349 
L 339.011283 -158.881174 
L 327.851283 -168.339556 
L 316.691283 -188.930927 
L 305.531283 -193.104966 
L 294.371283 -183.328563 
L 283.211283 -193.646326 
L 272.051283 -208.439782 
L 260.891283 -214.866708 
L 249.731283 -225.020864 
L 238.571283 -243.625558 
L 227.411283 -263.723262 
L 216.251283 -277.069072 
L 205.091283 -289.401746 
L 193.931283 -303.424882 
L 182.771283 -318.86159 
L 171.611283 -327.376316 
L 160.451283 -317.928861 
L 149.291283 -316.760823 
L 138.131283 -322.042991 
L 126.971283 -329.973156 
L 115.811283 -328.963893 
L 104.651283 -308.941362 
L 93.491283 -285.668883 
L 82.331283 -266.965618 
L 71.171283 -239.582789 
L 60.011283 -206.768764 
L 48.851283 -184.940527 
z
" style="stroke: #ff7f0e; stroke-opacity: 0.2"/>
    </defs>
    <g clip-path="url(#pb00c706758)">
     <use xlink:href="#m299d4ac2b0" x="0" y="361.333136" style="fill: #ff7f0e; fill-opacity: 0.2; stroke: #ff7f0e; stroke-opacity: 0.2"/>
    </g>
   </g>
   <g id="matplotlib.axis_1">
    <g id="text_1">
     <text style="font: 10px 'Arial', sans-serif; text-anchor: middle" x="227.411283" y="296.533792" transform="rotate(-0 227.411283 296.533792)">Time</text>
    </g>
   </g>
   <g id="matplotlib.axis_2">
    <g id="ytick_1">
     <g id="line2d_1">
      <defs>
       <path id="me539647ded" d="M 0 0 
L -3.5 0 
" style="stroke: #000000; stroke-width: 0.8"/>
      </defs>
      <g>
       <use xlink:href="#me539647ded" x="48.851283" y="273.568972" style="stroke: #000000; stroke-width: 0.8"/>
      </g>
     </g>
     <g id="text_2">
      <text style="font: 10px 'Arial', sans-serif; text-anchor: end" x="41.851283" y="277.147879" transform="rotate(-0 41.851283 277.147879)">−0.4</text>
     </g>
    </g>
    <g id="ytick_2">
     <g id="line2d_2">
      <g>
       <use xlink:href="#me539647ded" x="48.851283" y="217.747408" style="stroke: #000000; stroke-width: 0.8"/>
      </g>
     </g>
     <g id="text_3">
      <text style="font: 10px 'Arial', sans-serif; text-anchor: end" x="41.851283" y="221.326314" transform="rotate(-0 41.851283 221.326314)">−0.2</text>
     </g>
    </g>
    <g id="ytick_3">
     <g id="line2d_3">
      <g>
       <use xlink:href="#me539647ded" x="48.851283" y="161.925843" style="stroke: #000000; stroke-width: 0.8"/>
      </g>
     </g>
     <g id="text_4">
      <text style="font: 10px 'Arial', sans-serif; text-anchor: end" x="41.851283" y="165.50475" transform="rotate(-0 41.851283 165.50475)">0.0</text>
     </g>
    </g>
    <g id="ytick_4">
     <g id="line2d_4">
      <g>
       <use xlink:href="#me539647ded" x="48.851283" y="106.104279" style="stroke: #000000; stroke-width: 0.8"/>
      </g>
     </g>
     <g id="text_5">
      <text style="font: 10px 'Arial', sans-serif; text-anchor: end" x="41.851283" y="109.683185" transform="rotate(-0 41.851283 109.683185)">0.2</text>
     </g>
    </g>
    <g id="ytick_5">
     <g id="line2d_5">
      <g>
       <use xlink:href="#me539647ded" x="48.851283" y="50.282714" style="stroke: #000000; stroke-width: 0.8"/>
      </g>
     </g>
     <g id="text_6">
      <text style="font: 10px 'Arial', sans-serif; text-anchor: end" x="41.851283" y="53.86162" transform="rotate(-0 41.851283 53.86162)">0.4</text>
     </g>
    </g>
    <g id="text_7">
     <text style="font: 10px 'Arial', sans-serif; text-anchor: middle" x="16.005971" y="152.31998" transform="rotate(-90 16.005971 152.31998)">Activity</text>
    </g>
   </g>
   <g id="line2d_6">
    <path d="M 48.851283 204.388619 
L 60.011283 195.274263 
L 71.171283 175.492244 
L 82.331283 140.481927 
L 93.491283 112.796953 
L 104.651283 98.006246 
L 115.811283 93.820585 
L 126.971283 96.582618 
L 138.131283 101.956664 
L 149.291283 101.328151 
L 160.451283 94.980509 
L 171.611283 90.166694 
L 182.771283 85.642284 
L 193.931283 79.795186 
L 205.091283 79.633948 
L 216.251283 95.569915 
L 227.411283 116.150055 
L 238.571283 127.790497 
L 249.731283 127.641398 
L 260.891283 127.442486 
L 272.051283 143.502652 
L 283.211283 167.783974 
L 294.371283 181.305604 
L 305.531283 188.439366 
L 316.691283 195.734183 
L 327.851283 207.744686 
L 339.011283 219.269431 
L 350.171283 226.46514 
L 361.331283 233.511545 
L 372.491283 245.279655 
L 383.651283 257.778349 
L 394.811283 262.493226 
L 405.971283 262.223904 
" clip-path="url(#pb00c706758)" style="fill: none; stroke: #1f77b4; stroke-width: 1.5; stroke-linecap: square"/>
   </g>
   <g id="line2d_7">
    <path d="M 48.851283 194.225503 
L 60.011283 172.276377 
L 71.171283 140.47954 
L 82.331283 115.149267 
L 93.491283 99.157258 
L 104.651283 78.597709 
L 115.811283 60.7289 
L 126.971283 59.832371 
L 138.131283 67.245552 
L 149.291283 73.198722 
L 160.451283 72.847101 
L 171.611283 65.281949 
L 182.771283 74.396439 
L 193.931283 88.123054 
L 205.091283 99.304433 
L 216.251283 111.088481 
L 227.411283 126.885993 
L 238.571283 145.9943 
L 249.731283 160.311378 
L 260.891283 169.046078 
L 272.051283 176.208497 
L 283.211283 188.765374 
L 294.371283 197.42151 
L 305.531283 189.24375 
L 316.691283 193.237322 
L 327.851283 211.108552 
L 339.011283 219.276934 
L 350.171283 221.734318 
L 361.331283 237.437104 
L 372.491283 251.180929 
L 383.651283 251.97062 
L 394.811283 249.031409 
L 405.971283 244.635879 
" clip-path="url(#pb00c706758)" style="fill: none; stroke: #ff7f0e; stroke-width: 1.5; stroke-linecap: square"/>
   </g>
   <g id="line2d_8">
    <path d="M 82.331283 285.37598 
L 82.331283 19.26398 
" clip-path="url(#pb00c706758)" style="fill: none; stroke-dasharray: 5.55,2.4; stroke-dashoffset: 0; stroke: #000000; stroke-opacity: 0.5; stroke-width: 1.5"/>
   </g>
   <g id="line2d_9">
    <path d="M 383.651283 285.37598 
L 383.651283 19.26398 
" clip-path="url(#pb00c706758)" style="fill: none; stroke-dasharray: 5.55,2.4; stroke-dashoffset: 0; stroke: #000000; stroke-opacity: 0.5; stroke-width: 1.5"/>
   </g>
   <g id="patch_3">
    <path d="M 48.851283 285.37598 
L 405.971283 285.37598 
" style="fill: none; stroke: #000000; stroke-width: 0.8; stroke-linejoin: miter; stroke-linecap: square"/>
   </g>
   <g id="text_8">
    <text style="font: 6.94px 'Arial', sans-serif" transform="translate(10.097767 321.385533) rotate(-35)">-0.1s Sampling</text>
   </g>
   <g id="text_9">
    <text style="font: 6.94px 'Arial', sans-serif" transform="translate(57.794497 311.430872) rotate(-35)">Sampling</text>
   </g>
   <g id="text_10">
    <text style="font: 6.94px 'Arial', sans-serif" transform="translate(319.037191 339.456682) rotate(-35)">Movement to Lateral Port</text>
   </g>
   <g id="text_11">
    <text style="font: 8.33px 'Arial', sans-serif; text-anchor: middle" x="227.411283" y="13.26398" transform="rotate(-0 227.411283 13.26398)">GP4_23_S1_L50_D250_mm2 - Trace:413_GP4_23_S1_L50_D250_mm2 (when: correct)</text>
   </g>
   <g id="legend_1">
    <g id="patch_4">
     <path d="M 129.837052 354.133136 
L 324.985514 354.133136 
Q 326.373514 354.133136 326.373514 352.745136 
L 326.373514 343.45638 
Q 326.373514 342.06838 324.985514 342.06838 
L 129.837052 342.06838 
Q 128.449052 342.06838 128.449052 343.45638 
L 128.449052 352.745136 
Q 128.449052 354.133136 129.837052 354.133136 
z
" style="fill: #ffffff; opacity: 0.8; stroke: #cccccc; stroke-linejoin: miter"/>
    </g>
    <g id="line2d_10">
     <path d="M 131.225052 347.467483 
L 138.165052 347.467483 
L 145.105052 347.467483 
" style="fill: none; stroke: #1f77b4; stroke-width: 1.5; stroke-linecap: square"/>
    </g>
    <g id="text_12">
     <text style="font: 6.94px 'Arial', sans-serif; text-anchor: start" x="150.657052" y="349.896483" transform="rotate(-0 150.657052 349.896483)">DecisionRight (100 pts)</text>
    </g>
    <g id="line2d_11">
     <path d="M 236.664255 347.467483 
L 243.604255 347.467483 
L 250.544255 347.467483 
" style="fill: none; stroke: #ff7f0e; stroke-width: 1.5; stroke-linecap: square"/>
    </g>
    <g id="text_13">
     <text style="font: 6.94px 'Arial', sans-serif; text-anchor: start" x="256.096255" y="349.896483" transform="rotate(-0 256.096255 349.896483)">DecisionLeft (102 pts)</text>
    </g>
   </g>
  </g>
 </g>
 <defs>
  <clipPath id="pb00c706758">
   <rect x="48.851283" y="19.26398" width="357.12" height="266.112"/>
  </clipPath>
 </defs>
</svg>
