<?xml version="1.0" encoding="utf-8" standalone="no"?>
<!DOCTYPE svg PUBLIC "-//W3C//DTD SVG 1.1//EN"
  "http://www.w3.org/Graphics/SVG/1.1/DTD/svg11.dtd">
<svg xmlns:xlink="http://www.w3.org/1999/xlink" width="413.171283pt" height="361.333136pt" viewBox="0 0 413.171283 361.333136" xmlns="http://www.w3.org/2000/svg" version="1.1">
 <metadata>
  <rdf:RDF xmlns:dc="http://purl.org/dc/elements/1.1/" xmlns:cc="http://creativecommons.org/ns#" xmlns:rdf="http://www.w3.org/1999/02/22-rdf-syntax-ns#">
   <cc:Work>
    <dc:type rdf:resource="http://purl.org/dc/dcmitype/StillImage"/>
    <dc:date>2025-12-30T01:47:31.248062</dc:date>
    <dc:format>image/svg+xml</dc:format>
    <dc:creator>
     <cc:Agent>
      <dc:title>Matplotlib v3.8.0, https://matplotlib.org/</dc:title>
     </cc:Agent>
    </dc:creator>
   </cc:Work>
  </rdf:RDF>
 </metadata>
 <defs>
  <style type="text/css">*{stroke-linejoin: round; stroke-linecap: butt}</style>
 </defs>
 <g id="figure_1">
  <g id="patch_1">
   <path d="M 0 361.333136 
L 413.171283 361.333136 
L 413.171283 -0 
L 0 -0 
z
" style="fill: #ffffff"/>
  </g>
  <g id="axes_1">
   <g id="patch_2">
    <path d="M 48.851283 285.37598 
L 405.971283 285.37598 
L 405.971283 19.26398 
L 48.851283 19.26398 
z
" style="fill: #ffffff"/>
   </g>
   <g id="PolyCollection_1">
    <defs>
     <path id="m79cd8870ba" d="M 48.851283 -226.491935 
L 48.851283 -189.839164 
L 60.011283 -206.084822 
L 71.171283 -223.856704 
L 82.331283 -238.361164 
L 93.491283 -245.544677 
L 104.651283 -244.541136 
L 115.811283 -236.926315 
L 126.971283 -230.172524 
L 138.131283 -229.46157 
L 149.291283 -233.976522 
L 160.451283 -238.265722 
L 171.611283 -243.063673 
L 182.771283 -248.628301 
L 193.931283 -257.437417 
L 205.091283 -269.889824 
L 216.251283 -270.391314 
L 227.411283 -256.968136 
L 238.571283 -231.757057 
L 249.731283 -211.338027 
L 260.891283 -201.737117 
L 272.051283 -197.425912 
L 283.211283 -195.249775 
L 294.371283 -187.980674 
L 305.531283 -177.206868 
L 316.691283 -168.507056 
L 327.851283 -155.624732 
L 339.011283 -144.816496 
L 350.171283 -129.837645 
L 361.331283 -110.795956 
L 372.491283 -96.330714 
L 383.651283 -88.053156 
L 394.811283 -88.583891 
L 405.971283 -91.387783 
L 405.971283 -106.223294 
L 405.971283 -106.223294 
L 394.811283 -103.882209 
L 383.651283 -104.312492 
L 372.491283 -111.775411 
L 361.331283 -126.120057 
L 350.171283 -148.018557 
L 339.011283 -165.620049 
L 327.851283 -178.869245 
L 316.691283 -192.578963 
L 305.531283 -200.472029 
L 294.371283 -212.182875 
L 283.211283 -222.680541 
L 272.051283 -228.676771 
L 260.891283 -234.899529 
L 249.731283 -248.117951 
L 238.571283 -275.895648 
L 227.411283 -312.411456 
L 216.251283 -329.973156 
L 205.091283 -320.107796 
L 193.931283 -300.680201 
L 182.771283 -291.85026 
L 171.611283 -287.049663 
L 160.451283 -282.840708 
L 149.291283 -276.834546 
L 138.131283 -270.380885 
L 126.971283 -271.300528 
L 115.811283 -279.00276 
L 104.651283 -287.218698 
L 93.491283 -288.528562 
L 82.331283 -281.154528 
L 71.171283 -263.97581 
L 60.011283 -243.252178 
L 48.851283 -226.491935 
z
" style="stroke: #1f77b4; stroke-opacity: 0.2"/>
    </defs>
    <g clip-path="url(#p6d93a02fa8)">
     <use xlink:href="#m79cd8870ba" x="0" y="361.333136" style="fill: #1f77b4; fill-opacity: 0.2; stroke: #1f77b4; stroke-opacity: 0.2"/>
    </g>
   </g>
   <g id="PolyCollection_2">
    <defs>
     <path id="mae449edca6" d="M 48.851283 -229.018725 
L 48.851283 -196.279073 
L 60.011283 -200.559924 
L 71.171283 -209.940986 
L 82.331283 -236.249136 
L 93.491283 -253.211946 
L 104.651283 -251.86916 
L 115.811283 -236.301789 
L 126.971283 -236.188028 
L 138.131283 -225.358034 
L 149.291283 -212.216071 
L 160.451283 -222.834386 
L 171.611283 -236.471477 
L 182.771283 -241.967295 
L 193.931283 -236.651986 
L 205.091283 -232.327704 
L 216.251283 -239.876002 
L 227.411283 -242.551059 
L 238.571283 -225.495005 
L 249.731283 -209.624423 
L 260.891283 -194.318166 
L 272.051283 -183.078504 
L 283.211283 -173.759685 
L 294.371283 -162.808601 
L 305.531283 -145.495613 
L 316.691283 -140.751699 
L 327.851283 -142.552941 
L 339.011283 -134.93359 
L 350.171283 -123.355219 
L 361.331283 -104.550918 
L 372.491283 -98.55202 
L 383.651283 -99.078269 
L 394.811283 -100.345966 
L 405.971283 -111.392702 
L 405.971283 -129.118144 
L 405.971283 -129.118144 
L 394.811283 -115.786283 
L 383.651283 -113.742098 
L 372.491283 -114.175589 
L 361.331283 -120.837694 
L 350.171283 -141.529989 
L 339.011283 -153.919268 
L 327.851283 -163.220091 
L 316.691283 -164.562866 
L 305.531283 -171.141677 
L 294.371283 -186.329538 
L 283.211283 -198.936191 
L 272.051283 -211.704428 
L 260.891283 -224.216281 
L 249.731283 -242.101172 
L 238.571283 -266.550596 
L 227.411283 -287.550333 
L 216.251283 -283.690356 
L 205.091283 -275.631753 
L 193.931283 -280.40389 
L 182.771283 -286.416747 
L 171.611283 -277.718785 
L 160.451283 -264.418247 
L 149.291283 -249.459819 
L 138.131283 -258.747539 
L 126.971283 -270.007718 
L 115.811283 -271.198553 
L 104.651283 -288.9473 
L 93.491283 -288.987888 
L 82.331283 -269.447706 
L 71.171283 -242.987934 
L 60.011283 -234.800486 
L 48.851283 -229.018725 
z
" style="stroke: #ff7f0e; stroke-opacity: 0.2"/>
    </defs>
    <g clip-path="url(#p6d93a02fa8)">
     <use xlink:href="#mae449edca6" x="0" y="361.333136" style="fill: #ff7f0e; fill-opacity: 0.2; stroke: #ff7f0e; stroke-opacity: 0.2"/>
    </g>
   </g>
   <g id="matplotlib.axis_1">
    <g id="text_1">
     <text style="font: 10px 'Arial', sans-serif; text-anchor: middle" x="227.411283" y="296.533792" transform="rotate(-0 227.411283 296.533792)">Time</text>
    </g>
   </g>
   <g id="matplotlib.axis_2">
    <g id="ytick_1">
     <g id="line2d_1">
      <defs>
       <path id="m60a24e4f9f" d="M 0 0 
L -3.5 0 
" style="stroke: #000000; stroke-width: 0.8"/>
      </defs>
      <g>
       <use xlink:href="#m60a24e4f9f" x="48.851283" y="283.942915" style="stroke: #000000; stroke-width: 0.8"/>
      </g>
     </g>
     <g id="text_2">
      <text style="font: 10px 'Arial', sans-serif; text-anchor: end" x="41.851283" y="287.521822" transform="rotate(-0 41.851283 287.521822)">−0.5</text>
     </g>
    </g>
    <g id="ytick_2">
     <g id="line2d_2">
      <g>
       <use xlink:href="#m60a24e4f9f" x="48.851283" y="248.773941" style="stroke: #000000; stroke-width: 0.8"/>
      </g>
     </g>
     <g id="text_3">
      <text style="font: 10px 'Arial', sans-serif; text-anchor: end" x="41.851283" y="252.352847" transform="rotate(-0 41.851283 252.352847)">−0.4</text>
     </g>
    </g>
    <g id="ytick_3">
     <g id="line2d_3">
      <g>
       <use xlink:href="#m60a24e4f9f" x="48.851283" y="213.604966" style="stroke: #000000; stroke-width: 0.8"/>
      </g>
     </g>
     <g id="text_4">
      <text style="font: 10px 'Arial', sans-serif; text-anchor: end" x="41.851283" y="217.183872" transform="rotate(-0 41.851283 217.183872)">−0.3</text>
     </g>
    </g>
    <g id="ytick_4">
     <g id="line2d_4">
      <g>
       <use xlink:href="#m60a24e4f9f" x="48.851283" y="178.435992" style="stroke: #000000; stroke-width: 0.8"/>
      </g>
     </g>
     <g id="text_5">
      <text style="font: 10px 'Arial', sans-serif; text-anchor: end" x="41.851283" y="182.014898" transform="rotate(-0 41.851283 182.014898)">−0.2</text>
     </g>
    </g>
    <g id="ytick_5">
     <g id="line2d_5">
      <g>
       <use xlink:href="#m60a24e4f9f" x="48.851283" y="143.267017" style="stroke: #000000; stroke-width: 0.8"/>
      </g>
     </g>
     <g id="text_6">
      <text style="font: 10px 'Arial', sans-serif; text-anchor: end" x="41.851283" y="146.845923" transform="rotate(-0 41.851283 146.845923)">−0.1</text>
     </g>
    </g>
    <g id="ytick_6">
     <g id="line2d_6">
      <g>
       <use xlink:href="#m60a24e4f9f" x="48.851283" y="108.098042" style="stroke: #000000; stroke-width: 0.8"/>
      </g>
     </g>
     <g id="text_7">
      <text style="font: 10px 'Arial', sans-serif; text-anchor: end" x="41.851283" y="111.676949" transform="rotate(-0 41.851283 111.676949)">0.0</text>
     </g>
    </g>
    <g id="ytick_7">
     <g id="line2d_7">
      <g>
       <use xlink:href="#m60a24e4f9f" x="48.851283" y="72.929068" style="stroke: #000000; stroke-width: 0.8"/>
      </g>
     </g>
     <g id="text_8">
      <text style="font: 10px 'Arial', sans-serif; text-anchor: end" x="41.851283" y="76.507974" transform="rotate(-0 41.851283 76.507974)">0.1</text>
     </g>
    </g>
    <g id="ytick_8">
     <g id="line2d_8">
      <g>
       <use xlink:href="#m60a24e4f9f" x="48.851283" y="37.760093" style="stroke: #000000; stroke-width: 0.8"/>
      </g>
     </g>
     <g id="text_9">
      <text style="font: 10px 'Arial', sans-serif; text-anchor: end" x="41.851283" y="41.338999" transform="rotate(-0 41.851283 41.338999)">0.2</text>
     </g>
    </g>
    <g id="text_10">
     <text style="font: 10px 'Arial', sans-serif; text-anchor: middle" x="16.005971" y="152.31998" transform="rotate(-90 16.005971 152.31998)">Activity</text>
    </g>
   </g>
   <g id="line2d_9">
    <path d="M 48.851283 153.167587 
L 60.011283 136.664637 
L 71.171283 117.416879 
L 82.331283 101.575289 
L 93.491283 94.296516 
L 104.651283 95.453218 
L 115.811283 103.368599 
L 126.971283 110.596611 
L 138.131283 111.411909 
L 149.291283 105.927602 
L 160.451283 100.77992 
L 171.611283 96.276468 
L 182.771283 91.093855 
L 193.931283 82.274328 
L 205.091283 66.334325 
L 216.251283 61.150901 
L 227.411283 76.64334 
L 238.571283 107.506783 
L 249.731283 131.605148 
L 260.891283 143.014814 
L 272.051283 148.281794 
L 283.211283 152.367978 
L 294.371283 161.251363 
L 305.531283 172.493687 
L 316.691283 180.790126 
L 327.851283 194.086147 
L 339.011283 206.114863 
L 350.171283 222.405035 
L 361.331283 242.875129 
L 372.491283 257.280074 
L 383.651283 265.150312 
L 394.811283 265.100086 
L 405.971283 262.527598 
" clip-path="url(#p6d93a02fa8)" style="fill: none; stroke: #1f77b4; stroke-width: 1.5; stroke-linecap: square"/>
   </g>
   <g id="line2d_10">
    <path d="M 48.851283 148.684237 
L 60.011283 143.652932 
L 71.171283 134.868675 
L 82.331283 108.484715 
L 93.491283 90.233219 
L 104.651283 90.924907 
L 115.811283 107.582965 
L 126.971283 108.235262 
L 138.131283 119.28035 
L 149.291283 130.495192 
L 160.451283 117.706819 
L 171.611283 104.238004 
L 182.771283 97.141115 
L 193.931283 102.805197 
L 205.091283 107.353408 
L 216.251283 99.549957 
L 227.411283 96.28244 
L 238.571283 115.310336 
L 249.731283 135.470339 
L 260.891283 152.065911 
L 272.051283 163.94167 
L 283.211283 174.985198 
L 294.371283 186.764069 
L 305.531283 203.014491 
L 316.691283 208.675854 
L 327.851283 208.44662 
L 339.011283 216.906707 
L 350.171283 228.890532 
L 361.331283 248.63883 
L 372.491283 254.969332 
L 383.651283 254.922953 
L 394.811283 253.267011 
L 405.971283 241.077713 
" clip-path="url(#p6d93a02fa8)" style="fill: none; stroke: #ff7f0e; stroke-width: 1.5; stroke-linecap: square"/>
   </g>
   <g id="line2d_11">
    <path d="M 82.331283 285.37598 
L 82.331283 19.26398 
" clip-path="url(#p6d93a02fa8)" style="fill: none; stroke-dasharray: 5.55,2.4; stroke-dashoffset: 0; stroke: #000000; stroke-opacity: 0.5; stroke-width: 1.5"/>
   </g>
   <g id="line2d_12">
    <path d="M 383.651283 285.37598 
L 383.651283 19.26398 
" clip-path="url(#p6d93a02fa8)" style="fill: none; stroke-dasharray: 5.55,2.4; stroke-dashoffset: 0; stroke: #000000; stroke-opacity: 0.5; stroke-width: 1.5"/>
   </g>
   <g id="patch_3">
    <path d="M 48.851283 285.37598 
L 405.971283 285.37598 
" style="fill: none; stroke: #000000; stroke-width: 0.8; stroke-linejoin: miter; stroke-linecap: square"/>
   </g>
   <g id="text_11">
    <text style="font: 6.94px 'Arial', sans-serif" transform="translate(10.097767 321.385533) rotate(-35)">-0.1s Sampling</text>
   </g>
   <g id="text_12">
    <text style="font: 6.94px 'Arial', sans-serif" transform="translate(57.794497 311.430872) rotate(-35)">Sampling</text>
   </g>
   <g id="text_13">
    <text style="font: 6.94px 'Arial', sans-serif" transform="translate(319.037191 339.456682) rotate(-35)">Movement to Lateral Port</text>
   </g>
   <g id="text_14">
    <text style="font: 8.33px 'Arial', sans-serif; text-anchor: middle" x="227.411283" y="13.26398" transform="rotate(-0 227.411283 13.26398)">GP4_23_S1_L50_D250_mm2 - Trace:416_GP4_23_S1_L50_D250_mm2 (when: correct)</text>
   </g>
   <g id="legend_1">
    <g id="patch_4">
     <path d="M 129.837052 354.133136 
L 324.985514 354.133136 
Q 326.373514 354.133136 326.373514 352.745136 
L 326.373514 343.45638 
Q 326.373514 342.06838 324.985514 342.06838 
L 129.837052 342.06838 
Q 128.449052 342.06838 128.449052 343.45638 
L 128.449052 352.745136 
Q 128.449052 354.133136 129.837052 354.133136 
z
" style="fill: #ffffff; opacity: 0.8; stroke: #cccccc; stroke-linejoin: miter"/>
    </g>
    <g id="line2d_13">
     <path d="M 131.225052 347.467483 
L 138.165052 347.467483 
L 145.105052 347.467483 
" style="fill: none; stroke: #1f77b4; stroke-width: 1.5; stroke-linecap: square"/>
    </g>
    <g id="text_15">
     <text style="font: 6.94px 'Arial', sans-serif; text-anchor: start" x="150.657052" y="349.896483" transform="rotate(-0 150.657052 349.896483)">DecisionRight (100 pts)</text>
    </g>
    <g id="line2d_14">
     <path d="M 236.664255 347.467483 
L 243.604255 347.467483 
L 250.544255 347.467483 
" style="fill: none; stroke: #ff7f0e; stroke-width: 1.5; stroke-linecap: square"/>
    </g>
    <g id="text_16">
     <text style="font: 6.94px 'Arial', sans-serif; text-anchor: start" x="256.096255" y="349.896483" transform="rotate(-0 256.096255 349.896483)">DecisionLeft (102 pts)</text>
    </g>
   </g>
  </g>
 </g>
 <defs>
  <clipPath id="p6d93a02fa8">
   <rect x="48.851283" y="19.26398" width="357.12" height="266.112"/>
  </clipPath>
 </defs>
</svg>
