<?xml version="1.0" encoding="utf-8" standalone="no"?>
<!DOCTYPE svg PUBLIC "-//W3C//DTD SVG 1.1//EN"
  "http://www.w3.org/Graphics/SVG/1.1/DTD/svg11.dtd">
<svg xmlns:xlink="http://www.w3.org/1999/xlink" width="413.171283pt" height="361.333136pt" viewBox="0 0 413.171283 361.333136" xmlns="http://www.w3.org/2000/svg" version="1.1">
 <metadata>
  <rdf:RDF xmlns:dc="http://purl.org/dc/elements/1.1/" xmlns:cc="http://creativecommons.org/ns#" xmlns:rdf="http://www.w3.org/1999/02/22-rdf-syntax-ns#">
   <cc:Work>
    <dc:type rdf:resource="http://purl.org/dc/dcmitype/StillImage"/>
    <dc:date>2025-12-30T01:47:30.956146</dc:date>
    <dc:format>image/svg+xml</dc:format>
    <dc:creator>
     <cc:Agent>
      <dc:title>Matplotlib v3.8.0, https://matplotlib.org/</dc:title>
     </cc:Agent>
    </dc:creator>
   </cc:Work>
  </rdf:RDF>
 </metadata>
 <defs>
  <style type="text/css">*{stroke-linejoin: round; stroke-linecap: butt}</style>
 </defs>
 <g id="figure_1">
  <g id="patch_1">
   <path d="M 0 361.333136 
L 413.171283 361.333136 
L 413.171283 -0 
L 0 -0 
z
" style="fill: #ffffff"/>
  </g>
  <g id="axes_1">
   <g id="patch_2">
    <path d="M 48.851283 285.37598 
L 405.971283 285.37598 
L 405.971283 19.26398 
L 48.851283 19.26398 
z
" style="fill: #ffffff"/>
   </g>
   <g id="PolyCollection_1">
    <defs>
     <path id="m73ad7c872a" d="M 48.851283 -312.381084 
L 48.851283 -241.116444 
L 60.011283 -238.679834 
L 71.171283 -236.470771 
L 82.331283 -237.547139 
L 93.491283 -239.08561 
L 104.651283 -242.583068 
L 115.811283 -240.168202 
L 126.971283 -234.485731 
L 138.131283 -224.808535 
L 149.291283 -213.782345 
L 160.451283 -197.749336 
L 171.611283 -187.371634 
L 182.771283 -175.893985 
L 193.931283 -174.259523 
L 205.091283 -169.996131 
L 216.251283 -162.771687 
L 227.411283 -156.46319 
L 238.571283 -143.337317 
L 249.731283 -130.9708 
L 260.891283 -130.651429 
L 272.051283 -139.521134 
L 283.211283 -146.17471 
L 294.371283 -145.15037 
L 305.531283 -129.687226 
L 316.691283 -111.051936 
L 327.851283 -105.974342 
L 339.011283 -113.693693 
L 350.171283 -112.545685 
L 361.331283 -108.583241 
L 372.491283 -112.145529 
L 383.651283 -108.134416 
L 394.811283 -106.436155 
L 405.971283 -108.409952 
L 405.971283 -134.171014 
L 405.971283 -134.171014 
L 394.811283 -130.336883 
L 383.651283 -131.09713 
L 372.491283 -136.828446 
L 361.331283 -134.318029 
L 350.171283 -140.645616 
L 339.011283 -143.678963 
L 327.851283 -138.981691 
L 316.691283 -147.598237 
L 305.531283 -170.54993 
L 294.371283 -188.459951 
L 283.211283 -188.022548 
L 272.051283 -180.212905 
L 260.891283 -172.704124 
L 249.731283 -177.406158 
L 238.571283 -194.450437 
L 227.411283 -210.962804 
L 216.251283 -219.716362 
L 205.091283 -226.643647 
L 193.931283 -231.360202 
L 182.771283 -237.807069 
L 171.611283 -254.625867 
L 160.451283 -268.231062 
L 149.291283 -287.098754 
L 138.131283 -300.271035 
L 126.971283 -313.385567 
L 115.811283 -323.822133 
L 104.651283 -329.973156 
L 93.491283 -325.29865 
L 82.331283 -322.068092 
L 71.171283 -316.700334 
L 60.011283 -315.561608 
L 48.851283 -312.381084 
z
" style="stroke: #1f77b4; stroke-opacity: 0.2"/>
    </defs>
    <g clip-path="url(#p8f39f4117e)">
     <use xlink:href="#m73ad7c872a" x="0" y="361.333136" style="fill: #1f77b4; fill-opacity: 0.2; stroke: #1f77b4; stroke-opacity: 0.2"/>
    </g>
   </g>
   <g id="PolyCollection_2">
    <defs>
     <path id="m12ba037754" d="M 48.851283 -267.529539 
L 48.851283 -200.249167 
L 60.011283 -214.601341 
L 71.171283 -223.002503 
L 82.331283 -223.317112 
L 93.491283 -222.592819 
L 104.651283 -218.199012 
L 115.811283 -206.948139 
L 126.971283 -195.710853 
L 138.131283 -182.909508 
L 149.291283 -174.278975 
L 160.451283 -171.38537 
L 171.611283 -167.922197 
L 182.771283 -159.286369 
L 193.931283 -158.265159 
L 205.091283 -152.826449 
L 216.251283 -144.673726 
L 227.411283 -135.543549 
L 238.571283 -131.591077 
L 249.731283 -125.542079 
L 260.891283 -118.528656 
L 272.051283 -115.133505 
L 283.211283 -113.756469 
L 294.371283 -108.201735 
L 305.531283 -109.260178 
L 316.691283 -110.034502 
L 327.851283 -105.287578 
L 339.011283 -101.040136 
L 350.171283 -88.344565 
L 361.331283 -88.053156 
L 372.491283 -96.983399 
L 383.651283 -100.9941 
L 394.811283 -100.510226 
L 405.971283 -99.601767 
L 405.971283 -125.131276 
L 405.971283 -125.131276 
L 394.811283 -124.507109 
L 383.651283 -124.543354 
L 372.491283 -120.177122 
L 361.331283 -112.504592 
L 350.171283 -114.510116 
L 339.011283 -129.673664 
L 327.851283 -135.931034 
L 316.691283 -144.129566 
L 305.531283 -144.220723 
L 294.371283 -143.94077 
L 283.211283 -154.763648 
L 272.051283 -163.326809 
L 260.891283 -170.538074 
L 249.731283 -178.834176 
L 238.571283 -187.37855 
L 227.411283 -191.419187 
L 216.251283 -199.335345 
L 205.091283 -211.26597 
L 193.931283 -218.539286 
L 182.771283 -219.107426 
L 171.611283 -227.570829 
L 160.451283 -228.26507 
L 149.291283 -231.55806 
L 138.131283 -245.216638 
L 126.971283 -263.004742 
L 115.811283 -279.571479 
L 104.651283 -295.32602 
L 93.491283 -302.481514 
L 82.331283 -303.491246 
L 71.171283 -300.064984 
L 60.011283 -286.850599 
L 48.851283 -267.529539 
z
" style="stroke: #ff7f0e; stroke-opacity: 0.2"/>
    </defs>
    <g clip-path="url(#p8f39f4117e)">
     <use xlink:href="#m12ba037754" x="0" y="361.333136" style="fill: #ff7f0e; fill-opacity: 0.2; stroke: #ff7f0e; stroke-opacity: 0.2"/>
    </g>
   </g>
   <g id="matplotlib.axis_1">
    <g id="text_1">
     <text style="font: 10px 'Arial', sans-serif; text-anchor: middle" x="227.411283" y="296.533792" transform="rotate(-0 227.411283 296.533792)">Time</text>
    </g>
   </g>
   <g id="matplotlib.axis_2">
    <g id="ytick_1">
     <g id="line2d_1">
      <defs>
       <path id="m622192ed7b" d="M 0 0 
L -3.5 0 
" style="stroke: #000000; stroke-width: 0.8"/>
      </defs>
      <g>
       <use xlink:href="#m622192ed7b" x="48.851283" y="270.978751" style="stroke: #000000; stroke-width: 0.8"/>
      </g>
     </g>
     <g id="text_2">
      <text style="font: 10px 'Arial', sans-serif; text-anchor: end" x="41.851283" y="274.557658" transform="rotate(-0 41.851283 274.557658)">−0.3</text>
     </g>
    </g>
    <g id="ytick_2">
     <g id="line2d_2">
      <g>
       <use xlink:href="#m622192ed7b" x="48.851283" y="230.814255" style="stroke: #000000; stroke-width: 0.8"/>
      </g>
     </g>
     <g id="text_3">
      <text style="font: 10px 'Arial', sans-serif; text-anchor: end" x="41.851283" y="234.393161" transform="rotate(-0 41.851283 234.393161)">−0.2</text>
     </g>
    </g>
    <g id="ytick_3">
     <g id="line2d_3">
      <g>
       <use xlink:href="#m622192ed7b" x="48.851283" y="190.649758" style="stroke: #000000; stroke-width: 0.8"/>
      </g>
     </g>
     <g id="text_4">
      <text style="font: 10px 'Arial', sans-serif; text-anchor: end" x="41.851283" y="194.228664" transform="rotate(-0 41.851283 194.228664)">−0.1</text>
     </g>
    </g>
    <g id="ytick_4">
     <g id="line2d_4">
      <g>
       <use xlink:href="#m622192ed7b" x="48.851283" y="150.485261" style="stroke: #000000; stroke-width: 0.8"/>
      </g>
     </g>
     <g id="text_5">
      <text style="font: 10px 'Arial', sans-serif; text-anchor: end" x="41.851283" y="154.064167" transform="rotate(-0 41.851283 154.064167)">0.0</text>
     </g>
    </g>
    <g id="ytick_5">
     <g id="line2d_5">
      <g>
       <use xlink:href="#m622192ed7b" x="48.851283" y="110.320764" style="stroke: #000000; stroke-width: 0.8"/>
      </g>
     </g>
     <g id="text_6">
      <text style="font: 10px 'Arial', sans-serif; text-anchor: end" x="41.851283" y="113.899671" transform="rotate(-0 41.851283 113.899671)">0.1</text>
     </g>
    </g>
    <g id="ytick_6">
     <g id="line2d_6">
      <g>
       <use xlink:href="#m622192ed7b" x="48.851283" y="70.156268" style="stroke: #000000; stroke-width: 0.8"/>
      </g>
     </g>
     <g id="text_7">
      <text style="font: 10px 'Arial', sans-serif; text-anchor: end" x="41.851283" y="73.735174" transform="rotate(-0 41.851283 73.735174)">0.2</text>
     </g>
    </g>
    <g id="ytick_7">
     <g id="line2d_7">
      <g>
       <use xlink:href="#m622192ed7b" x="48.851283" y="29.991771" style="stroke: #000000; stroke-width: 0.8"/>
      </g>
     </g>
     <g id="text_8">
      <text style="font: 10px 'Arial', sans-serif; text-anchor: end" x="41.851283" y="33.570677" transform="rotate(-0 41.851283 33.570677)">0.3</text>
     </g>
    </g>
    <g id="text_9">
     <text style="font: 10px 'Arial', sans-serif; text-anchor: middle" x="16.005971" y="152.31998" transform="rotate(-90 16.005971 152.31998)">Activity</text>
    </g>
   </g>
   <g id="line2d_8">
    <path d="M 48.851283 84.584375 
L 60.011283 84.212415 
L 71.171283 84.747585 
L 82.331283 81.525519 
L 93.491283 79.141003 
L 104.651283 75.055024 
L 115.811283 79.337968 
L 126.971283 87.397487 
L 138.131283 98.793349 
L 149.291283 110.892586 
L 160.451283 128.342936 
L 171.611283 140.334384 
L 182.771283 154.482609 
L 193.931283 158.523274 
L 205.091283 163.013246 
L 216.251283 170.089111 
L 227.411283 177.620139 
L 238.571283 192.439261 
L 249.731283 207.144656 
L 260.891283 209.655359 
L 272.051283 201.466116 
L 283.211283 194.234508 
L 294.371283 194.527975 
L 305.531283 211.214559 
L 316.691283 232.008049 
L 327.851283 238.85512 
L 339.011283 232.646808 
L 350.171283 234.737486 
L 361.331283 239.882501 
L 372.491283 236.846149 
L 383.651283 241.717363 
L 394.811283 242.946617 
L 405.971283 240.042653 
" clip-path="url(#p8f39f4117e)" style="fill: none; stroke: #1f77b4; stroke-width: 1.5; stroke-linecap: square"/>
   </g>
   <g id="line2d_9">
    <path d="M 48.851283 127.443784 
L 60.011283 110.607166 
L 71.171283 99.799394 
L 82.331283 97.928957 
L 93.491283 98.795971 
L 104.651283 104.57062 
L 115.811283 118.073328 
L 126.971283 131.975338 
L 138.131283 147.270064 
L 149.291283 158.41462 
L 160.451283 161.507916 
L 171.611283 163.586623 
L 182.771283 172.136237 
L 193.931283 172.930914 
L 205.091283 179.286925 
L 216.251283 189.328602 
L 227.411283 197.851768 
L 238.571283 201.848323 
L 249.731283 209.145008 
L 260.891283 216.799769 
L 272.051283 222.102979 
L 283.211283 227.073077 
L 294.371283 235.261883 
L 305.531283 234.592685 
L 316.691283 234.251105 
L 327.851283 240.723827 
L 339.011283 245.976236 
L 350.171283 259.905796 
L 361.331283 261.054265 
L 372.491283 252.752875 
L 383.651283 248.564409 
L 394.811283 248.824468 
L 405.971283 248.966612 
" clip-path="url(#p8f39f4117e)" style="fill: none; stroke: #ff7f0e; stroke-width: 1.5; stroke-linecap: square"/>
   </g>
   <g id="line2d_10">
    <path d="M 82.331283 285.37598 
L 82.331283 19.26398 
" clip-path="url(#p8f39f4117e)" style="fill: none; stroke-dasharray: 5.55,2.4; stroke-dashoffset: 0; stroke: #000000; stroke-opacity: 0.5; stroke-width: 1.5"/>
   </g>
   <g id="line2d_11">
    <path d="M 383.651283 285.37598 
L 383.651283 19.26398 
" clip-path="url(#p8f39f4117e)" style="fill: none; stroke-dasharray: 5.55,2.4; stroke-dashoffset: 0; stroke: #000000; stroke-opacity: 0.5; stroke-width: 1.5"/>
   </g>
   <g id="patch_3">
    <path d="M 48.851283 285.37598 
L 405.971283 285.37598 
" style="fill: none; stroke: #000000; stroke-width: 0.8; stroke-linejoin: miter; stroke-linecap: square"/>
   </g>
   <g id="text_10">
    <text style="font: 6.94px 'Arial', sans-serif" transform="translate(10.097767 321.385533) rotate(-35)">-0.1s Sampling</text>
   </g>
   <g id="text_11">
    <text style="font: 6.94px 'Arial', sans-serif" transform="translate(57.794497 311.430872) rotate(-35)">Sampling</text>
   </g>
   <g id="text_12">
    <text style="font: 6.94px 'Arial', sans-serif" transform="translate(319.037191 339.456682) rotate(-35)">Movement to Lateral Port</text>
   </g>
   <g id="text_13">
    <text style="font: 8.33px 'Arial', sans-serif; text-anchor: middle" x="227.411283" y="13.26398" transform="rotate(-0 227.411283 13.26398)">GP4_23_S1_L50_D250_mm2 - Trace:46_GP4_23_S1_L50_D250_mm2 (when: correct)</text>
   </g>
   <g id="legend_1">
    <g id="patch_4">
     <path d="M 129.837052 354.133136 
L 324.985514 354.133136 
Q 326.373514 354.133136 326.373514 352.745136 
L 326.373514 343.45638 
Q 326.373514 342.06838 324.985514 342.06838 
L 129.837052 342.06838 
Q 128.449052 342.06838 128.449052 343.45638 
L 128.449052 352.745136 
Q 128.449052 354.133136 129.837052 354.133136 
z
" style="fill: #ffffff; opacity: 0.8; stroke: #cccccc; stroke-linejoin: miter"/>
    </g>
    <g id="line2d_12">
     <path d="M 131.225052 347.467483 
L 138.165052 347.467483 
L 145.105052 347.467483 
" style="fill: none; stroke: #1f77b4; stroke-width: 1.5; stroke-linecap: square"/>
    </g>
    <g id="text_14">
     <text style="font: 6.94px 'Arial', sans-serif; text-anchor: start" x="150.657052" y="349.896483" transform="rotate(-0 150.657052 349.896483)">DecisionRight (100 pts)</text>
    </g>
    <g id="line2d_13">
     <path d="M 236.664255 347.467483 
L 243.604255 347.467483 
L 250.544255 347.467483 
" style="fill: none; stroke: #ff7f0e; stroke-width: 1.5; stroke-linecap: square"/>
    </g>
    <g id="text_15">
     <text style="font: 6.94px 'Arial', sans-serif; text-anchor: start" x="256.096255" y="349.896483" transform="rotate(-0 256.096255 349.896483)">DecisionLeft (102 pts)</text>
    </g>
   </g>
  </g>
 </g>
 <defs>
  <clipPath id="p8f39f4117e">
   <rect x="48.851283" y="19.26398" width="357.12" height="266.112"/>
  </clipPath>
 </defs>
</svg>
