<?xml version="1.0" encoding="utf-8" standalone="no"?>
<!DOCTYPE svg PUBLIC "-//W3C//DTD SVG 1.1//EN"
  "http://www.w3.org/Graphics/SVG/1.1/DTD/svg11.dtd">
<svg xmlns:xlink="http://www.w3.org/1999/xlink" width="413.171283pt" height="361.333136pt" viewBox="0 0 413.171283 361.333136" xmlns="http://www.w3.org/2000/svg" version="1.1">
 <metadata>
  <rdf:RDF xmlns:dc="http://purl.org/dc/elements/1.1/" xmlns:cc="http://creativecommons.org/ns#" xmlns:rdf="http://www.w3.org/1999/02/22-rdf-syntax-ns#">
   <cc:Work>
    <dc:type rdf:resource="http://purl.org/dc/dcmitype/StillImage"/>
    <dc:date>2025-12-30T01:47:23.252817</dc:date>
    <dc:format>image/svg+xml</dc:format>
    <dc:creator>
     <cc:Agent>
      <dc:title>Matplotlib v3.8.0, https://matplotlib.org/</dc:title>
     </cc:Agent>
    </dc:creator>
   </cc:Work>
  </rdf:RDF>
 </metadata>
 <defs>
  <style type="text/css">*{stroke-linejoin: round; stroke-linecap: butt}</style>
 </defs>
 <g id="figure_1">
  <g id="patch_1">
   <path d="M 0 361.333136 
L 413.171283 361.333136 
L 413.171283 -0 
L 0 -0 
z
" style="fill: #ffffff"/>
  </g>
  <g id="axes_1">
   <g id="patch_2">
    <path d="M 48.851283 285.37598 
L 405.971283 285.37598 
L 405.971283 19.26398 
L 48.851283 19.26398 
z
" style="fill: #ffffff"/>
   </g>
   <g id="PolyCollection_1">
    <defs>
     <path id="m4b4b925adc" d="M 48.851283 -327.747981 
L 48.851283 -272.917783 
L 60.011283 -268.545887 
L 71.171283 -266.484214 
L 82.331283 -273.429036 
L 93.491283 -271.339027 
L 104.651283 -263.861803 
L 115.811283 -251.45416 
L 126.971283 -237.070181 
L 138.131283 -222.856661 
L 149.291283 -225.101912 
L 160.451283 -239.348185 
L 171.611283 -245.544003 
L 182.771283 -236.317333 
L 193.931283 -226.152982 
L 205.091283 -224.730169 
L 216.251283 -231.40441 
L 227.411283 -231.44508 
L 238.571283 -222.500885 
L 249.731283 -219.410485 
L 260.891283 -218.571344 
L 272.051283 -207.080004 
L 283.211283 -194.674444 
L 294.371283 -186.007163 
L 305.531283 -177.619153 
L 316.691283 -169.068647 
L 327.851283 -157.048063 
L 339.011283 -144.762724 
L 350.171283 -129.316805 
L 361.331283 -110.856583 
L 372.491283 -96.796871 
L 383.651283 -88.053156 
L 394.811283 -89.022607 
L 405.971283 -98.850409 
L 405.971283 -114.972498 
L 405.971283 -114.972498 
L 394.811283 -102.390817 
L 383.651283 -101.614981 
L 372.491283 -111.286253 
L 361.331283 -127.435372 
L 350.171283 -152.163687 
L 339.011283 -171.587899 
L 327.851283 -185.005118 
L 316.691283 -201.108222 
L 305.531283 -212.577093 
L 294.371283 -223.051049 
L 283.211283 -234.918567 
L 272.051283 -253.772519 
L 260.891283 -268.620169 
L 249.731283 -266.784045 
L 238.571283 -267.454234 
L 227.411283 -279.669925 
L 216.251283 -280.721122 
L 205.091283 -271.929472 
L 193.931283 -272.890907 
L 182.771283 -284.424745 
L 171.611283 -292.9987 
L 160.451283 -285.935087 
L 149.291283 -267.675013 
L 138.131283 -264.634494 
L 126.971283 -282.805657 
L 115.811283 -301.290958 
L 104.651283 -318.432395 
L 93.491283 -328.431812 
L 82.331283 -329.973156 
L 71.171283 -321.035635 
L 60.011283 -322.829669 
L 48.851283 -327.747981 
z
" style="stroke: #1f77b4; stroke-opacity: 0.2"/>
    </defs>
    <g clip-path="url(#p899d3547a6)">
     <use xlink:href="#m4b4b925adc" x="0" y="361.333136" style="fill: #1f77b4; fill-opacity: 0.2; stroke: #1f77b4; stroke-opacity: 0.2"/>
    </g>
   </g>
   <g id="PolyCollection_2">
    <defs>
     <path id="m399dca40f5" d="M 48.851283 -233.258121 
L 48.851283 -193.312816 
L 60.011283 -203.126187 
L 71.171283 -213.714319 
L 82.331283 -219.593872 
L 93.491283 -212.691589 
L 104.651283 -204.513224 
L 115.811283 -202.043954 
L 126.971283 -199.474113 
L 138.131283 -196.838682 
L 149.291283 -192.8314 
L 160.451283 -187.177769 
L 171.611283 -183.903177 
L 182.771283 -188.948443 
L 193.931283 -187.736762 
L 205.091283 -186.294017 
L 216.251283 -184.426449 
L 227.411283 -178.504519 
L 238.571283 -172.489334 
L 249.731283 -169.657121 
L 260.891283 -163.223589 
L 272.051283 -154.173314 
L 283.211283 -148.251065 
L 294.371283 -151.49529 
L 305.531283 -152.546965 
L 316.691283 -145.056529 
L 327.851283 -136.654054 
L 339.011283 -129.180782 
L 350.171283 -117.084998 
L 361.331283 -105.263809 
L 372.491283 -98.361946 
L 383.651283 -94.468434 
L 394.811283 -103.2828 
L 405.971283 -120.88725 
L 405.971283 -139.410225 
L 405.971283 -139.410225 
L 394.811283 -119.599847 
L 383.651283 -110.36621 
L 372.491283 -114.376056 
L 361.331283 -121.552276 
L 350.171283 -136.526198 
L 339.011283 -152.423681 
L 327.851283 -162.12985 
L 316.691283 -171.923419 
L 305.531283 -182.185716 
L 294.371283 -184.458848 
L 283.211283 -179.385457 
L 272.051283 -183.372302 
L 260.891283 -193.771069 
L 249.731283 -202.31634 
L 238.571283 -209.069006 
L 227.411283 -216.476676 
L 216.251283 -224.636231 
L 205.091283 -230.95571 
L 193.931283 -229.934806 
L 182.771283 -225.920639 
L 171.611283 -215.463484 
L 160.451283 -219.771469 
L 149.291283 -229.352202 
L 138.131283 -231.165119 
L 126.971283 -236.0982 
L 115.811283 -238.550157 
L 104.651283 -238.980442 
L 93.491283 -249.984641 
L 82.331283 -261.254026 
L 71.171283 -258.307383 
L 60.011283 -245.08745 
L 48.851283 -233.258121 
z
" style="stroke: #ff7f0e; stroke-opacity: 0.2"/>
    </defs>
    <g clip-path="url(#p899d3547a6)">
     <use xlink:href="#m399dca40f5" x="0" y="361.333136" style="fill: #ff7f0e; fill-opacity: 0.2; stroke: #ff7f0e; stroke-opacity: 0.2"/>
    </g>
   </g>
   <g id="matplotlib.axis_1">
    <g id="text_1">
     <text style="font: 10px 'Arial', sans-serif; text-anchor: middle" x="227.411283" y="296.533792" transform="rotate(-0 227.411283 296.533792)">Time</text>
    </g>
   </g>
   <g id="matplotlib.axis_2">
    <g id="ytick_1">
     <g id="line2d_1">
      <defs>
       <path id="me96501b916" d="M 0 0 
L -3.5 0 
" style="stroke: #000000; stroke-width: 0.8"/>
      </defs>
      <g>
       <use xlink:href="#me96501b916" x="48.851283" y="257.118888" style="stroke: #000000; stroke-width: 0.8"/>
      </g>
     </g>
     <g id="text_2">
      <text style="font: 10px 'Arial', sans-serif; text-anchor: end" x="41.851283" y="260.697794" transform="rotate(-0 41.851283 260.697794)">−0.4</text>
     </g>
    </g>
    <g id="ytick_2">
     <g id="line2d_2">
      <g>
       <use xlink:href="#me96501b916" x="48.851283" y="219.290523" style="stroke: #000000; stroke-width: 0.8"/>
      </g>
     </g>
     <g id="text_3">
      <text style="font: 10px 'Arial', sans-serif; text-anchor: end" x="41.851283" y="222.869429" transform="rotate(-0 41.851283 222.869429)">−0.2</text>
     </g>
    </g>
    <g id="ytick_3">
     <g id="line2d_3">
      <g>
       <use xlink:href="#me96501b916" x="48.851283" y="181.462158" style="stroke: #000000; stroke-width: 0.8"/>
      </g>
     </g>
     <g id="text_4">
      <text style="font: 10px 'Arial', sans-serif; text-anchor: end" x="41.851283" y="185.041064" transform="rotate(-0 41.851283 185.041064)">0.0</text>
     </g>
    </g>
    <g id="ytick_4">
     <g id="line2d_4">
      <g>
       <use xlink:href="#me96501b916" x="48.851283" y="143.633793" style="stroke: #000000; stroke-width: 0.8"/>
      </g>
     </g>
     <g id="text_5">
      <text style="font: 10px 'Arial', sans-serif; text-anchor: end" x="41.851283" y="147.212699" transform="rotate(-0 41.851283 147.212699)">0.2</text>
     </g>
    </g>
    <g id="ytick_5">
     <g id="line2d_5">
      <g>
       <use xlink:href="#me96501b916" x="48.851283" y="105.805428" style="stroke: #000000; stroke-width: 0.8"/>
      </g>
     </g>
     <g id="text_6">
      <text style="font: 10px 'Arial', sans-serif; text-anchor: end" x="41.851283" y="109.384334" transform="rotate(-0 41.851283 109.384334)">0.4</text>
     </g>
    </g>
    <g id="ytick_6">
     <g id="line2d_6">
      <g>
       <use xlink:href="#me96501b916" x="48.851283" y="67.977063" style="stroke: #000000; stroke-width: 0.8"/>
      </g>
     </g>
     <g id="text_7">
      <text style="font: 10px 'Arial', sans-serif; text-anchor: end" x="41.851283" y="71.55597" transform="rotate(-0 41.851283 71.55597)">0.6</text>
     </g>
    </g>
    <g id="ytick_7">
     <g id="line2d_7">
      <g>
       <use xlink:href="#me96501b916" x="48.851283" y="30.148698" style="stroke: #000000; stroke-width: 0.8"/>
      </g>
     </g>
     <g id="text_8">
      <text style="font: 10px 'Arial', sans-serif; text-anchor: end" x="41.851283" y="33.727605" transform="rotate(-0 41.851283 33.727605)">0.8</text>
     </g>
    </g>
    <g id="text_9">
     <text style="font: 10px 'Arial', sans-serif; text-anchor: middle" x="16.005971" y="152.31998" transform="rotate(-90 16.005971 152.31998)">Activity</text>
    </g>
   </g>
   <g id="line2d_8">
    <path d="M 48.851283 61.000254 
L 60.011283 65.645358 
L 71.171283 67.573211 
L 82.331283 59.63204 
L 93.491283 61.447719 
L 104.651283 70.186034 
L 115.811283 84.960574 
L 126.971283 101.395217 
L 138.131283 117.587558 
L 149.291283 114.944675 
L 160.451283 98.6915 
L 171.611283 92.061785 
L 182.771283 100.962097 
L 193.931283 111.811192 
L 205.091283 113.003315 
L 216.251283 105.27037 
L 227.411283 105.775636 
L 238.571283 116.355576 
L 249.731283 118.235871 
L 260.891283 117.737381 
L 272.051283 130.906874 
L 283.211283 146.536629 
L 294.371283 156.80403 
L 305.531283 166.235014 
L 316.691283 176.244702 
L 327.851283 190.306545 
L 339.011283 203.157824 
L 350.171283 220.59289 
L 361.331283 242.187159 
L 372.491283 257.291574 
L 383.651283 266.499067 
L 394.811283 265.626424 
L 405.971283 254.421682 
" clip-path="url(#p899d3547a6)" style="fill: none; stroke: #1f77b4; stroke-width: 1.5; stroke-linecap: square"/>
   </g>
   <g id="line2d_9">
    <path d="M 48.851283 148.047667 
L 60.011283 137.226317 
L 71.171283 125.322285 
L 82.331283 120.909189 
L 93.491283 129.995021 
L 104.651283 139.586303 
L 115.811283 141.03608 
L 126.971283 143.546979 
L 138.131283 147.331235 
L 149.291283 150.241335 
L 160.451283 157.858516 
L 171.611283 161.649805 
L 182.771283 153.898595 
L 193.931283 152.497352 
L 205.091283 152.708272 
L 216.251283 156.801795 
L 227.411283 163.842539 
L 238.571283 170.553965 
L 249.731283 175.346405 
L 260.891283 182.835807 
L 272.051283 192.560328 
L 283.211283 197.514876 
L 294.371283 193.356067 
L 305.531283 193.966795 
L 316.691283 202.843163 
L 327.851283 211.941183 
L 339.011283 220.530904 
L 350.171283 234.527538 
L 361.331283 247.925093 
L 372.491283 254.964135 
L 383.651283 258.915814 
L 394.811283 249.891813 
L 405.971283 231.184397 
" clip-path="url(#p899d3547a6)" style="fill: none; stroke: #ff7f0e; stroke-width: 1.5; stroke-linecap: square"/>
   </g>
   <g id="line2d_10">
    <path d="M 82.331283 285.37598 
L 82.331283 19.26398 
" clip-path="url(#p899d3547a6)" style="fill: none; stroke-dasharray: 5.55,2.4; stroke-dashoffset: 0; stroke: #000000; stroke-opacity: 0.5; stroke-width: 1.5"/>
   </g>
   <g id="line2d_11">
    <path d="M 383.651283 285.37598 
L 383.651283 19.26398 
" clip-path="url(#p899d3547a6)" style="fill: none; stroke-dasharray: 5.55,2.4; stroke-dashoffset: 0; stroke: #000000; stroke-opacity: 0.5; stroke-width: 1.5"/>
   </g>
   <g id="patch_3">
    <path d="M 48.851283 285.37598 
L 405.971283 285.37598 
" style="fill: none; stroke: #000000; stroke-width: 0.8; stroke-linejoin: miter; stroke-linecap: square"/>
   </g>
   <g id="text_10">
    <text style="font: 6.94px 'Arial', sans-serif" transform="translate(10.097767 321.385533) rotate(-35)">-0.1s Sampling</text>
   </g>
   <g id="text_11">
    <text style="font: 6.94px 'Arial', sans-serif" transform="translate(57.794497 311.430872) rotate(-35)">Sampling</text>
   </g>
   <g id="text_12">
    <text style="font: 6.94px 'Arial', sans-serif" transform="translate(319.037191 339.456682) rotate(-35)">Movement to Lateral Port</text>
   </g>
   <g id="text_13">
    <text style="font: 8.33px 'Arial', sans-serif; text-anchor: middle" x="227.411283" y="13.26398" transform="rotate(-0 227.411283 13.26398)">GP4_23_S1_L50_D250_mm2 - Trace:65_GP4_23_S1_L50_D250_mm2 (when: correct)</text>
   </g>
   <g id="legend_1">
    <g id="patch_4">
     <path d="M 129.837052 354.133136 
L 324.985514 354.133136 
Q 326.373514 354.133136 326.373514 352.745136 
L 326.373514 343.45638 
Q 326.373514 342.06838 324.985514 342.06838 
L 129.837052 342.06838 
Q 128.449052 342.06838 128.449052 343.45638 
L 128.449052 352.745136 
Q 128.449052 354.133136 129.837052 354.133136 
z
" style="fill: #ffffff; opacity: 0.8; stroke: #cccccc; stroke-linejoin: miter"/>
    </g>
    <g id="line2d_12">
     <path d="M 131.225052 347.467483 
L 138.165052 347.467483 
L 145.105052 347.467483 
" style="fill: none; stroke: #1f77b4; stroke-width: 1.5; stroke-linecap: square"/>
    </g>
    <g id="text_14">
     <text style="font: 6.94px 'Arial', sans-serif; text-anchor: start" x="150.657052" y="349.896483" transform="rotate(-0 150.657052 349.896483)">DecisionRight (100 pts)</text>
    </g>
    <g id="line2d_13">
     <path d="M 236.664255 347.467483 
L 243.604255 347.467483 
L 250.544255 347.467483 
" style="fill: none; stroke: #ff7f0e; stroke-width: 1.5; stroke-linecap: square"/>
    </g>
    <g id="text_15">
     <text style="font: 6.94px 'Arial', sans-serif; text-anchor: start" x="256.096255" y="349.896483" transform="rotate(-0 256.096255 349.896483)">DecisionLeft (102 pts)</text>
    </g>
   </g>
  </g>
 </g>
 <defs>
  <clipPath id="p899d3547a6">
   <rect x="48.851283" y="19.26398" width="357.12" height="266.112"/>
  </clipPath>
 </defs>
</svg>
