<?xml version="1.0" encoding="utf-8" standalone="no"?>
<!DOCTYPE svg PUBLIC "-//W3C//DTD SVG 1.1//EN"
  "http://www.w3.org/Graphics/SVG/1.1/DTD/svg11.dtd">
<svg xmlns:xlink="http://www.w3.org/1999/xlink" width="413.171283pt" height="361.333136pt" viewBox="0 0 413.171283 361.333136" xmlns="http://www.w3.org/2000/svg" version="1.1">
 <metadata>
  <rdf:RDF xmlns:dc="http://purl.org/dc/elements/1.1/" xmlns:cc="http://creativecommons.org/ns#" xmlns:rdf="http://www.w3.org/1999/02/22-rdf-syntax-ns#">
   <cc:Work>
    <dc:type rdf:resource="http://purl.org/dc/dcmitype/StillImage"/>
    <dc:date>2025-12-30T01:47:19.765471</dc:date>
    <dc:format>image/svg+xml</dc:format>
    <dc:creator>
     <cc:Agent>
      <dc:title>Matplotlib v3.8.0, https://matplotlib.org/</dc:title>
     </cc:Agent>
    </dc:creator>
   </cc:Work>
  </rdf:RDF>
 </metadata>
 <defs>
  <style type="text/css">*{stroke-linejoin: round; stroke-linecap: butt}</style>
 </defs>
 <g id="figure_1">
  <g id="patch_1">
   <path d="M 0 361.333136 
L 413.171283 361.333136 
L 413.171283 -0 
L 0 -0 
z
" style="fill: #ffffff"/>
  </g>
  <g id="axes_1">
   <g id="patch_2">
    <path d="M 48.851283 285.37598 
L 405.971283 285.37598 
L 405.971283 19.26398 
L 48.851283 19.26398 
z
" style="fill: #ffffff"/>
   </g>
   <g id="PolyCollection_1">
    <defs>
     <path id="mc7e19713ba" d="M 48.851283 -121.589977 
L 48.851283 -92.157543 
L 60.011283 -106.158759 
L 71.171283 -118.818471 
L 82.331283 -122.752502 
L 93.491283 -121.734135 
L 104.651283 -119.113925 
L 115.811283 -124.864795 
L 126.971283 -121.691449 
L 138.131283 -101.236058 
L 149.291283 -88.053156 
L 160.451283 -89.603966 
L 171.611283 -102.345462 
L 182.771283 -116.311146 
L 193.931283 -125.785612 
L 205.091283 -125.197402 
L 216.251283 -124.640767 
L 227.411283 -125.525384 
L 238.571283 -132.272157 
L 249.731283 -137.70682 
L 260.891283 -139.196745 
L 272.051283 -146.863619 
L 283.211283 -146.3366 
L 294.371283 -141.350357 
L 305.531283 -135.55273 
L 316.691283 -133.623396 
L 327.851283 -130.626383 
L 339.011283 -129.682073 
L 350.171283 -134.212866 
L 361.331283 -132.910294 
L 372.491283 -126.167964 
L 383.651283 -125.683857 
L 394.811283 -120.516958 
L 405.971283 -127.004126 
L 405.971283 -199.066032 
L 405.971283 -199.066032 
L 394.811283 -180.053987 
L 383.651283 -182.139833 
L 372.491283 -178.100224 
L 361.331283 -181.969416 
L 350.171283 -183.855722 
L 339.011283 -176.786898 
L 327.851283 -174.263857 
L 316.691283 -174.348607 
L 305.531283 -173.088796 
L 294.371283 -175.686677 
L 283.211283 -178.154722 
L 272.051283 -176.441277 
L 260.891283 -169.146583 
L 249.731283 -164.856183 
L 238.571283 -157.763466 
L 227.411283 -151.086615 
L 216.251283 -152.400775 
L 205.091283 -155.435216 
L 193.931283 -156.026335 
L 182.771283 -146.022548 
L 171.611283 -130.411011 
L 160.451283 -115.011957 
L 149.291283 -111.387326 
L 138.131283 -125.32935 
L 126.971283 -151.842735 
L 115.811283 -155.555877 
L 104.651283 -147.101507 
L 93.491283 -149.133702 
L 82.331283 -152.131894 
L 71.171283 -148.01492 
L 60.011283 -135.767918 
L 48.851283 -121.589977 
z
" style="stroke: #1f77b4; stroke-opacity: 0.2"/>
    </defs>
    <g clip-path="url(#p8d4c17165f)">
     <use xlink:href="#mc7e19713ba" x="0" y="361.333136" style="fill: #1f77b4; fill-opacity: 0.2; stroke: #1f77b4; stroke-opacity: 0.2"/>
    </g>
   </g>
   <g id="PolyCollection_2">
    <defs>
     <path id="m9fec17d6ef" d="M 48.851283 -140.984338 
L 48.851283 -110.422016 
L 60.011283 -110.15869 
L 71.171283 -116.913513 
L 82.331283 -112.628648 
L 93.491283 -98.436527 
L 104.651283 -102.561851 
L 115.811283 -101.375939 
L 126.971283 -98.556801 
L 138.131283 -98.72476 
L 149.291283 -103.418881 
L 160.451283 -107.147983 
L 171.611283 -117.278199 
L 182.771283 -129.621276 
L 193.931283 -135.148205 
L 205.091283 -130.890058 
L 216.251283 -145.256768 
L 227.411283 -175.829093 
L 238.571283 -178.640552 
L 249.731283 -171.697404 
L 260.891283 -179.999559 
L 272.051283 -189.772475 
L 283.211283 -180.284929 
L 294.371283 -181.013847 
L 305.531283 -200.812506 
L 316.691283 -205.110343 
L 327.851283 -194.78106 
L 339.011283 -188.057715 
L 350.171283 -182.75279 
L 361.331283 -174.439463 
L 372.491283 -182.599798 
L 383.651283 -183.653652 
L 394.811283 -193.879906 
L 405.971283 -225.575985 
L 405.971283 -329.973156 
L 405.971283 -329.973156 
L 394.811283 -284.473033 
L 383.651283 -268.286397 
L 372.491283 -272.060037 
L 361.331283 -266.159846 
L 350.171283 -273.148383 
L 339.011283 -278.618293 
L 327.851283 -281.03883 
L 316.691283 -283.719776 
L 305.531283 -274.887261 
L 294.371283 -254.475611 
L 283.211283 -257.232815 
L 272.051283 -265.501813 
L 260.891283 -259.829845 
L 249.731283 -246.155106 
L 238.571283 -249.437493 
L 227.411283 -241.119281 
L 216.251283 -205.536962 
L 205.091283 -202.407206 
L 193.931283 -210.706871 
L 182.771283 -207.248328 
L 171.611283 -199.310837 
L 160.451283 -186.404639 
L 149.291283 -179.992316 
L 138.131283 -172.059317 
L 126.971283 -158.02382 
L 115.811283 -153.867585 
L 104.651283 -137.35937 
L 93.491283 -130.61396 
L 82.331283 -144.98871 
L 71.171283 -148.505822 
L 60.011283 -142.013276 
L 48.851283 -140.984338 
z
" style="stroke: #ff7f0e; stroke-opacity: 0.2"/>
    </defs>
    <g clip-path="url(#p8d4c17165f)">
     <use xlink:href="#m9fec17d6ef" x="0" y="361.333136" style="fill: #ff7f0e; fill-opacity: 0.2; stroke: #ff7f0e; stroke-opacity: 0.2"/>
    </g>
   </g>
   <g id="matplotlib.axis_1">
    <g id="text_1">
     <text style="font: 10px 'Arial', sans-serif; text-anchor: middle" x="227.411283" y="296.533792" transform="rotate(-0 227.411283 296.533792)">Time</text>
    </g>
   </g>
   <g id="matplotlib.axis_2">
    <g id="ytick_1">
     <g id="line2d_1">
      <defs>
       <path id="me4c4a6727c" d="M 0 0 
L -3.5 0 
" style="stroke: #000000; stroke-width: 0.8"/>
      </defs>
      <g>
       <use xlink:href="#me4c4a6727c" x="48.851283" y="275.575976" style="stroke: #000000; stroke-width: 0.8"/>
      </g>
     </g>
     <g id="text_2">
      <text style="font: 10px 'Arial', sans-serif; text-anchor: end" x="41.851283" y="279.154883" transform="rotate(-0 41.851283 279.154883)">−0.2</text>
     </g>
    </g>
    <g id="ytick_2">
     <g id="line2d_2">
      <g>
       <use xlink:href="#me4c4a6727c" x="48.851283" y="220.429877" style="stroke: #000000; stroke-width: 0.8"/>
      </g>
     </g>
     <g id="text_3">
      <text style="font: 10px 'Arial', sans-serif; text-anchor: end" x="41.851283" y="224.008783" transform="rotate(-0 41.851283 224.008783)">0.0</text>
     </g>
    </g>
    <g id="ytick_3">
     <g id="line2d_3">
      <g>
       <use xlink:href="#me4c4a6727c" x="48.851283" y="165.283778" style="stroke: #000000; stroke-width: 0.8"/>
      </g>
     </g>
     <g id="text_4">
      <text style="font: 10px 'Arial', sans-serif; text-anchor: end" x="41.851283" y="168.862684" transform="rotate(-0 41.851283 168.862684)">0.2</text>
     </g>
    </g>
    <g id="ytick_4">
     <g id="line2d_4">
      <g>
       <use xlink:href="#me4c4a6727c" x="48.851283" y="110.137678" style="stroke: #000000; stroke-width: 0.8"/>
      </g>
     </g>
     <g id="text_5">
      <text style="font: 10px 'Arial', sans-serif; text-anchor: end" x="41.851283" y="113.716584" transform="rotate(-0 41.851283 113.716584)">0.4</text>
     </g>
    </g>
    <g id="ytick_5">
     <g id="line2d_5">
      <g>
       <use xlink:href="#me4c4a6727c" x="48.851283" y="54.991579" style="stroke: #000000; stroke-width: 0.8"/>
      </g>
     </g>
     <g id="text_6">
      <text style="font: 10px 'Arial', sans-serif; text-anchor: end" x="41.851283" y="58.570485" transform="rotate(-0 41.851283 58.570485)">0.6</text>
     </g>
    </g>
    <g id="text_7">
     <text style="font: 10px 'Arial', sans-serif; text-anchor: middle" x="16.005971" y="152.31998" transform="rotate(-90 16.005971 152.31998)">Activity</text>
    </g>
   </g>
   <g id="line2d_6">
    <path d="M 48.851283 254.459376 
L 60.011283 240.369798 
L 71.171283 227.916441 
L 82.331283 223.890938 
L 93.491283 225.899217 
L 104.651283 228.225419 
L 115.811283 221.122799 
L 126.971283 224.566043 
L 138.131283 248.050432 
L 149.291283 261.612894 
L 160.451283 259.025174 
L 171.611283 244.954899 
L 182.771283 230.16629 
L 193.931283 220.427162 
L 205.091283 221.016827 
L 216.251283 222.812365 
L 227.411283 223.027136 
L 238.571283 216.315325 
L 249.731283 210.051634 
L 260.891283 207.161472 
L 272.051283 199.680687 
L 283.211283 199.087474 
L 294.371283 202.81462 
L 305.531283 207.012373 
L 316.691283 207.347134 
L 327.851283 208.888015 
L 339.011283 208.098651 
L 350.171283 202.298842 
L 361.331283 203.89328 
L 372.491283 209.199042 
L 383.651283 207.421291 
L 394.811283 211.047664 
L 405.971283 198.298058 
" clip-path="url(#p8d4c17165f)" style="fill: none; stroke: #1f77b4; stroke-width: 1.5; stroke-linecap: square"/>
   </g>
   <g id="line2d_7">
    <path d="M 48.851283 235.629959 
L 60.011283 235.247154 
L 71.171283 228.623468 
L 82.331283 232.524457 
L 93.491283 246.807894 
L 104.651283 241.372526 
L 115.811283 233.711374 
L 126.971283 233.042826 
L 138.131283 225.941098 
L 149.291283 219.627538 
L 160.451283 214.556826 
L 171.611283 203.038618 
L 182.771283 192.898333 
L 193.931283 188.405598 
L 205.091283 194.684504 
L 216.251283 185.936271 
L 227.411283 152.858951 
L 238.571283 147.294114 
L 249.731283 152.406883 
L 260.891283 141.418436 
L 272.051283 133.695994 
L 283.211283 142.574264 
L 294.371283 143.588407 
L 305.531283 123.48325 
L 316.691283 116.918074 
L 327.851283 123.423189 
L 339.011283 127.995134 
L 350.171283 133.382549 
L 361.331283 141.033483 
L 372.491283 134.003219 
L 383.651283 135.363109 
L 394.811283 122.156665 
L 405.971283 83.558565 
" clip-path="url(#p8d4c17165f)" style="fill: none; stroke: #ff7f0e; stroke-width: 1.5; stroke-linecap: square"/>
   </g>
   <g id="line2d_8">
    <path d="M 82.331283 285.37598 
L 82.331283 19.26398 
" clip-path="url(#p8d4c17165f)" style="fill: none; stroke-dasharray: 5.55,2.4; stroke-dashoffset: 0; stroke: #000000; stroke-opacity: 0.5; stroke-width: 1.5"/>
   </g>
   <g id="line2d_9">
    <path d="M 383.651283 285.37598 
L 383.651283 19.26398 
" clip-path="url(#p8d4c17165f)" style="fill: none; stroke-dasharray: 5.55,2.4; stroke-dashoffset: 0; stroke: #000000; stroke-opacity: 0.5; stroke-width: 1.5"/>
   </g>
   <g id="patch_3">
    <path d="M 48.851283 285.37598 
L 405.971283 285.37598 
" style="fill: none; stroke: #000000; stroke-width: 0.8; stroke-linejoin: miter; stroke-linecap: square"/>
   </g>
   <g id="text_8">
    <text style="font: 6.94px 'Arial', sans-serif" transform="translate(10.097767 321.385533) rotate(-35)">-0.1s Sampling</text>
   </g>
   <g id="text_9">
    <text style="font: 6.94px 'Arial', sans-serif" transform="translate(57.794497 311.430872) rotate(-35)">Sampling</text>
   </g>
   <g id="text_10">
    <text style="font: 6.94px 'Arial', sans-serif" transform="translate(319.037191 339.456682) rotate(-35)">Movement to Lateral Port</text>
   </g>
   <g id="text_11">
    <text style="font: 8.33px 'Arial', sans-serif; text-anchor: middle" x="227.411283" y="13.26398" transform="rotate(-0 227.411283 13.26398)">GP4_23_S1_L50_D250_mm2 - Trace:76_GP4_23_S1_L50_D250_mm2 (when: correct)</text>
   </g>
   <g id="legend_1">
    <g id="patch_4">
     <path d="M 129.837052 354.133136 
L 324.985514 354.133136 
Q 326.373514 354.133136 326.373514 352.745136 
L 326.373514 343.45638 
Q 326.373514 342.06838 324.985514 342.06838 
L 129.837052 342.06838 
Q 128.449052 342.06838 128.449052 343.45638 
L 128.449052 352.745136 
Q 128.449052 354.133136 129.837052 354.133136 
z
" style="fill: #ffffff; opacity: 0.8; stroke: #cccccc; stroke-linejoin: miter"/>
    </g>
    <g id="line2d_10">
     <path d="M 131.225052 347.467483 
L 138.165052 347.467483 
L 145.105052 347.467483 
" style="fill: none; stroke: #1f77b4; stroke-width: 1.5; stroke-linecap: square"/>
    </g>
    <g id="text_12">
     <text style="font: 6.94px 'Arial', sans-serif; text-anchor: start" x="150.657052" y="349.896483" transform="rotate(-0 150.657052 349.896483)">DecisionRight (100 pts)</text>
    </g>
    <g id="line2d_11">
     <path d="M 236.664255 347.467483 
L 243.604255 347.467483 
L 250.544255 347.467483 
" style="fill: none; stroke: #ff7f0e; stroke-width: 1.5; stroke-linecap: square"/>
    </g>
    <g id="text_13">
     <text style="font: 6.94px 'Arial', sans-serif; text-anchor: start" x="256.096255" y="349.896483" transform="rotate(-0 256.096255 349.896483)">DecisionLeft (102 pts)</text>
    </g>
   </g>
  </g>
 </g>
 <defs>
  <clipPath id="p8d4c17165f">
   <rect x="48.851283" y="19.26398" width="357.12" height="266.112"/>
  </clipPath>
 </defs>
</svg>
