<?xml version="1.0" encoding="utf-8" standalone="no"?>
<!DOCTYPE svg PUBLIC "-//W3C//DTD SVG 1.1//EN"
  "http://www.w3.org/Graphics/SVG/1.1/DTD/svg11.dtd">
<svg xmlns:xlink="http://www.w3.org/1999/xlink" width="413.171283pt" height="361.333136pt" viewBox="0 0 413.171283 361.333136" xmlns="http://www.w3.org/2000/svg" version="1.1">
 <metadata>
  <rdf:RDF xmlns:dc="http://purl.org/dc/elements/1.1/" xmlns:cc="http://creativecommons.org/ns#" xmlns:rdf="http://www.w3.org/1999/02/22-rdf-syntax-ns#">
   <cc:Work>
    <dc:type rdf:resource="http://purl.org/dc/dcmitype/StillImage"/>
    <dc:date>2025-12-30T01:47:28.832862</dc:date>
    <dc:format>image/svg+xml</dc:format>
    <dc:creator>
     <cc:Agent>
      <dc:title>Matplotlib v3.8.0, https://matplotlib.org/</dc:title>
     </cc:Agent>
    </dc:creator>
   </cc:Work>
  </rdf:RDF>
 </metadata>
 <defs>
  <style type="text/css">*{stroke-linejoin: round; stroke-linecap: butt}</style>
 </defs>
 <g id="figure_1">
  <g id="patch_1">
   <path d="M 0 361.333136 
L 413.171283 361.333136 
L 413.171283 -0 
L 0 -0 
z
" style="fill: #ffffff"/>
  </g>
  <g id="axes_1">
   <g id="patch_2">
    <path d="M 48.851283 285.37598 
L 405.971283 285.37598 
L 405.971283 19.26398 
L 48.851283 19.26398 
z
" style="fill: #ffffff"/>
   </g>
   <g id="PolyCollection_1">
    <defs>
     <path id="m8e1de9896b" d="M 48.851283 -136.44636 
L 48.851283 -108.162488 
L 60.011283 -108.1664 
L 71.171283 -105.797631 
L 82.331283 -98.192071 
L 93.491283 -93.007025 
L 104.651283 -94.389543 
L 115.811283 -101.373028 
L 126.971283 -107.829692 
L 138.131283 -117.650556 
L 149.291283 -137.886208 
L 160.451283 -161.703296 
L 171.611283 -179.47215 
L 182.771283 -191.2494 
L 193.931283 -203.944667 
L 205.091283 -220.234707 
L 216.251283 -237.13695 
L 227.411283 -248.618437 
L 238.571283 -253.330392 
L 249.731283 -259.958737 
L 260.891283 -268.726888 
L 272.051283 -272.339055 
L 283.211283 -277.195549 
L 294.371283 -276.063087 
L 305.531283 -269.485638 
L 316.691283 -272.852712 
L 327.851283 -271.358708 
L 339.011283 -258.735121 
L 350.171283 -238.803918 
L 361.331283 -220.983295 
L 372.491283 -211.79929 
L 383.651283 -195.564655 
L 394.811283 -180.45094 
L 405.971283 -172.453864 
L 405.971283 -204.111184 
L 405.971283 -204.111184 
L 394.811283 -212.776499 
L 383.651283 -230.005588 
L 372.491283 -250.56123 
L 361.331283 -264.222948 
L 350.171283 -287.610476 
L 339.011283 -311.722047 
L 327.851283 -322.526165 
L 316.691283 -322.965916 
L 305.531283 -319.866808 
L 294.371283 -328.398877 
L 283.211283 -329.973156 
L 272.051283 -324.335726 
L 260.891283 -320.436873 
L 249.731283 -312.310989 
L 238.571283 -305.219397 
L 227.411283 -297.36848 
L 216.251283 -280.562804 
L 205.091283 -260.23839 
L 193.931283 -240.503155 
L 182.771283 -225.772522 
L 171.611283 -214.031208 
L 160.451283 -195.102019 
L 149.291283 -168.092714 
L 138.131283 -145.279459 
L 126.971283 -136.007202 
L 115.811283 -129.654524 
L 104.651283 -122.137927 
L 93.491283 -120.856752 
L 82.331283 -126.628847 
L 71.171283 -134.257729 
L 60.011283 -136.744379 
L 48.851283 -136.44636 
z
" style="stroke: #1f77b4; stroke-opacity: 0.2"/>
    </defs>
    <g clip-path="url(#pe39c8857b9)">
     <use xlink:href="#m8e1de9896b" x="0" y="361.333136" style="fill: #1f77b4; fill-opacity: 0.2; stroke: #1f77b4; stroke-opacity: 0.2"/>
    </g>
   </g>
   <g id="PolyCollection_2">
    <defs>
     <path id="mbafbb26223" d="M 48.851283 -111.386772 
L 48.851283 -88.053156 
L 60.011283 -89.417857 
L 71.171283 -91.468581 
L 82.331283 -91.866727 
L 93.491283 -92.900252 
L 104.651283 -97.830925 
L 115.811283 -105.784692 
L 126.971283 -116.400695 
L 138.131283 -130.55787 
L 149.291283 -140.178645 
L 160.451283 -145.680786 
L 171.611283 -157.897947 
L 182.771283 -170.29049 
L 193.931283 -182.180064 
L 205.091283 -189.991714 
L 216.251283 -196.967713 
L 227.411283 -210.645373 
L 238.571283 -216.217519 
L 249.731283 -215.3367 
L 260.891283 -219.087561 
L 272.051283 -215.757948 
L 283.211283 -211.860422 
L 294.371283 -214.909185 
L 305.531283 -219.820811 
L 316.691283 -212.555415 
L 327.851283 -205.869308 
L 339.011283 -204.363143 
L 350.171283 -196.004462 
L 361.331283 -180.657733 
L 372.491283 -162.860574 
L 383.651283 -162.445049 
L 394.811283 -178.431492 
L 405.971283 -191.611695 
L 405.971283 -229.293829 
L 405.971283 -229.293829 
L 394.811283 -211.954813 
L 383.651283 -193.8443 
L 372.491283 -194.258783 
L 361.331283 -215.650808 
L 350.171283 -235.982657 
L 339.011283 -247.600312 
L 327.851283 -248.838092 
L 316.691283 -257.226953 
L 305.531283 -265.061736 
L 294.371283 -257.369765 
L 283.211283 -252.224687 
L 272.051283 -256.344127 
L 260.891283 -258.95262 
L 249.731283 -254.550897 
L 238.571283 -255.57565 
L 227.411283 -250.376999 
L 216.251283 -235.179315 
L 205.091283 -226.133036 
L 193.931283 -216.285293 
L 182.771283 -201.616038 
L 171.611283 -187.94804 
L 160.451283 -173.454912 
L 149.291283 -163.552515 
L 138.131283 -152.100097 
L 126.971283 -137.073187 
L 115.811283 -127.677371 
L 104.651283 -121.595823 
L 93.491283 -118.572035 
L 82.331283 -118.621351 
L 71.171283 -118.611799 
L 60.011283 -114.683535 
L 48.851283 -111.386772 
z
" style="stroke: #ff7f0e; stroke-opacity: 0.2"/>
    </defs>
    <g clip-path="url(#pe39c8857b9)">
     <use xlink:href="#mbafbb26223" x="0" y="361.333136" style="fill: #ff7f0e; fill-opacity: 0.2; stroke: #ff7f0e; stroke-opacity: 0.2"/>
    </g>
   </g>
   <g id="matplotlib.axis_1">
    <g id="text_1">
     <text style="font: 10px 'Arial', sans-serif; text-anchor: middle" x="227.411283" y="296.533792" transform="rotate(-0 227.411283 296.533792)">Time</text>
    </g>
   </g>
   <g id="matplotlib.axis_2">
    <g id="ytick_1">
     <g id="line2d_1">
      <defs>
       <path id="m0ff6b262f2" d="M 0 0 
L -3.5 0 
" style="stroke: #000000; stroke-width: 0.8"/>
      </defs>
      <g>
       <use xlink:href="#m0ff6b262f2" x="48.851283" y="267.611206" style="stroke: #000000; stroke-width: 0.8"/>
      </g>
     </g>
     <g id="text_2">
      <text style="font: 10px 'Arial', sans-serif; text-anchor: end" x="41.851283" y="271.190112" transform="rotate(-0 41.851283 271.190112)">−0.4</text>
     </g>
    </g>
    <g id="ytick_2">
     <g id="line2d_2">
      <g>
       <use xlink:href="#m0ff6b262f2" x="48.851283" y="229.726845" style="stroke: #000000; stroke-width: 0.8"/>
      </g>
     </g>
     <g id="text_3">
      <text style="font: 10px 'Arial', sans-serif; text-anchor: end" x="41.851283" y="233.305752" transform="rotate(-0 41.851283 233.305752)">−0.2</text>
     </g>
    </g>
    <g id="ytick_3">
     <g id="line2d_3">
      <g>
       <use xlink:href="#m0ff6b262f2" x="48.851283" y="191.842485" style="stroke: #000000; stroke-width: 0.8"/>
      </g>
     </g>
     <g id="text_4">
      <text style="font: 10px 'Arial', sans-serif; text-anchor: end" x="41.851283" y="195.421391" transform="rotate(-0 41.851283 195.421391)">0.0</text>
     </g>
    </g>
    <g id="ytick_4">
     <g id="line2d_4">
      <g>
       <use xlink:href="#m0ff6b262f2" x="48.851283" y="153.958124" style="stroke: #000000; stroke-width: 0.8"/>
      </g>
     </g>
     <g id="text_5">
      <text style="font: 10px 'Arial', sans-serif; text-anchor: end" x="41.851283" y="157.53703" transform="rotate(-0 41.851283 157.53703)">0.2</text>
     </g>
    </g>
    <g id="ytick_5">
     <g id="line2d_5">
      <g>
       <use xlink:href="#m0ff6b262f2" x="48.851283" y="116.073764" style="stroke: #000000; stroke-width: 0.8"/>
      </g>
     </g>
     <g id="text_6">
      <text style="font: 10px 'Arial', sans-serif; text-anchor: end" x="41.851283" y="119.65267" transform="rotate(-0 41.851283 119.65267)">0.4</text>
     </g>
    </g>
    <g id="ytick_6">
     <g id="line2d_6">
      <g>
       <use xlink:href="#m0ff6b262f2" x="48.851283" y="78.189403" style="stroke: #000000; stroke-width: 0.8"/>
      </g>
     </g>
     <g id="text_7">
      <text style="font: 10px 'Arial', sans-serif; text-anchor: end" x="41.851283" y="81.768309" transform="rotate(-0 41.851283 81.768309)">0.6</text>
     </g>
    </g>
    <g id="ytick_7">
     <g id="line2d_7">
      <g>
       <use xlink:href="#m0ff6b262f2" x="48.851283" y="40.305042" style="stroke: #000000; stroke-width: 0.8"/>
      </g>
     </g>
     <g id="text_8">
      <text style="font: 10px 'Arial', sans-serif; text-anchor: end" x="41.851283" y="43.883949" transform="rotate(-0 41.851283 43.883949)">0.8</text>
     </g>
    </g>
    <g id="text_9">
     <text style="font: 10px 'Arial', sans-serif; text-anchor: middle" x="16.005971" y="152.31998" transform="rotate(-90 16.005971 152.31998)">Activity</text>
    </g>
   </g>
   <g id="line2d_8">
    <path d="M 48.851283 239.028712 
L 60.011283 238.877748 
L 71.171283 241.305456 
L 82.331283 248.922678 
L 93.491283 254.401247 
L 104.651283 253.069401 
L 115.811283 245.81936 
L 126.971283 239.414689 
L 138.131283 229.868128 
L 149.291283 208.343675 
L 160.451283 182.930478 
L 171.611283 164.581457 
L 182.771283 152.822175 
L 193.931283 139.109227 
L 205.091283 121.096588 
L 216.251283 102.483259 
L 227.411283 88.339677 
L 238.571283 82.058241 
L 249.731283 75.198273 
L 260.891283 66.751255 
L 272.051283 62.995746 
L 283.211283 57.748783 
L 294.371283 59.102154 
L 305.531283 66.656913 
L 316.691283 63.423822 
L 327.851283 64.3907 
L 339.011283 76.104555 
L 350.171283 98.125942 
L 361.331283 118.730014 
L 372.491283 130.152876 
L 383.651283 148.548014 
L 394.811283 164.719417 
L 405.971283 173.050612 
" clip-path="url(#pe39c8857b9)" style="fill: none; stroke: #1f77b4; stroke-width: 1.5; stroke-linecap: square"/>
   </g>
   <g id="line2d_9">
    <path d="M 48.851283 261.613172 
L 60.011283 259.28244 
L 71.171283 256.292946 
L 82.331283 256.089097 
L 93.491283 255.596993 
L 104.651283 251.619762 
L 115.811283 244.602106 
L 126.971283 234.596195 
L 138.131283 220.004152 
L 149.291283 209.467556 
L 160.451283 201.765288 
L 171.611283 188.410143 
L 182.771283 175.379872 
L 193.931283 162.100458 
L 205.091283 153.27076 
L 216.251283 145.259623 
L 227.411283 130.821952 
L 238.571283 125.436551 
L 249.731283 126.389339 
L 260.891283 122.313046 
L 272.051283 125.282099 
L 283.211283 129.290581 
L 294.371283 125.193661 
L 305.531283 118.891862 
L 316.691283 126.441952 
L 327.851283 133.979436 
L 339.011283 135.351408 
L 350.171283 145.339576 
L 361.331283 163.178865 
L 372.491283 182.773458 
L 383.651283 183.188461 
L 394.811283 166.139984 
L 405.971283 150.880375 
" clip-path="url(#pe39c8857b9)" style="fill: none; stroke: #ff7f0e; stroke-width: 1.5; stroke-linecap: square"/>
   </g>
   <g id="line2d_10">
    <path d="M 82.331283 285.37598 
L 82.331283 19.26398 
" clip-path="url(#pe39c8857b9)" style="fill: none; stroke-dasharray: 5.55,2.4; stroke-dashoffset: 0; stroke: #000000; stroke-opacity: 0.5; stroke-width: 1.5"/>
   </g>
   <g id="line2d_11">
    <path d="M 383.651283 285.37598 
L 383.651283 19.26398 
" clip-path="url(#pe39c8857b9)" style="fill: none; stroke-dasharray: 5.55,2.4; stroke-dashoffset: 0; stroke: #000000; stroke-opacity: 0.5; stroke-width: 1.5"/>
   </g>
   <g id="patch_3">
    <path d="M 48.851283 285.37598 
L 405.971283 285.37598 
" style="fill: none; stroke: #000000; stroke-width: 0.8; stroke-linejoin: miter; stroke-linecap: square"/>
   </g>
   <g id="text_10">
    <text style="font: 6.94px 'Arial', sans-serif" transform="translate(10.097767 321.385533) rotate(-35)">-0.1s Sampling</text>
   </g>
   <g id="text_11">
    <text style="font: 6.94px 'Arial', sans-serif" transform="translate(57.794497 311.430872) rotate(-35)">Sampling</text>
   </g>
   <g id="text_12">
    <text style="font: 6.94px 'Arial', sans-serif" transform="translate(319.037191 339.456682) rotate(-35)">Movement to Lateral Port</text>
   </g>
   <g id="text_13">
    <text style="font: 8.33px 'Arial', sans-serif; text-anchor: middle" x="227.411283" y="13.26398" transform="rotate(-0 227.411283 13.26398)">GP4_23_S1_L50_D250_mm2 - Trace:80_GP4_23_S1_L50_D250_mm2 (when: correct)</text>
   </g>
   <g id="legend_1">
    <g id="patch_4">
     <path d="M 129.837052 354.133136 
L 324.985514 354.133136 
Q 326.373514 354.133136 326.373514 352.745136 
L 326.373514 343.45638 
Q 326.373514 342.06838 324.985514 342.06838 
L 129.837052 342.06838 
Q 128.449052 342.06838 128.449052 343.45638 
L 128.449052 352.745136 
Q 128.449052 354.133136 129.837052 354.133136 
z
" style="fill: #ffffff; opacity: 0.8; stroke: #cccccc; stroke-linejoin: miter"/>
    </g>
    <g id="line2d_12">
     <path d="M 131.225052 347.467483 
L 138.165052 347.467483 
L 145.105052 347.467483 
" style="fill: none; stroke: #1f77b4; stroke-width: 1.5; stroke-linecap: square"/>
    </g>
    <g id="text_14">
     <text style="font: 6.94px 'Arial', sans-serif; text-anchor: start" x="150.657052" y="349.896483" transform="rotate(-0 150.657052 349.896483)">DecisionRight (100 pts)</text>
    </g>
    <g id="line2d_13">
     <path d="M 236.664255 347.467483 
L 243.604255 347.467483 
L 250.544255 347.467483 
" style="fill: none; stroke: #ff7f0e; stroke-width: 1.5; stroke-linecap: square"/>
    </g>
    <g id="text_15">
     <text style="font: 6.94px 'Arial', sans-serif; text-anchor: start" x="256.096255" y="349.896483" transform="rotate(-0 256.096255 349.896483)">DecisionLeft (102 pts)</text>
    </g>
   </g>
  </g>
 </g>
 <defs>
  <clipPath id="pe39c8857b9">
   <rect x="48.851283" y="19.26398" width="357.12" height="266.112"/>
  </clipPath>
 </defs>
</svg>
