<?xml version="1.0" encoding="utf-8" standalone="no"?>
<!DOCTYPE svg PUBLIC "-//W3C//DTD SVG 1.1//EN"
  "http://www.w3.org/Graphics/SVG/1.1/DTD/svg11.dtd">
<svg xmlns:xlink="http://www.w3.org/1999/xlink" width="417.084062pt" height="361.333136pt" viewBox="0 0 417.084062 361.333136" xmlns="http://www.w3.org/2000/svg" version="1.1">
 <metadata>
  <rdf:RDF xmlns:dc="http://purl.org/dc/elements/1.1/" xmlns:cc="http://creativecommons.org/ns#" xmlns:rdf="http://www.w3.org/1999/02/22-rdf-syntax-ns#">
   <cc:Work>
    <dc:type rdf:resource="http://purl.org/dc/dcmitype/StillImage"/>
    <dc:date>2025-12-29T04:08:00.930454</dc:date>
    <dc:format>image/svg+xml</dc:format>
    <dc:creator>
     <cc:Agent>
      <dc:title>Matplotlib v3.8.0, https://matplotlib.org/</dc:title>
     </cc:Agent>
    </dc:creator>
   </cc:Work>
  </rdf:RDF>
 </metadata>
 <defs>
  <style type="text/css">*{stroke-linejoin: round; stroke-linecap: butt}</style>
 </defs>
 <g id="figure_1">
  <g id="patch_1">
   <path d="M 0 361.333136 
L 417.084062 361.333136 
L 417.084062 -0 
L 0 -0 
z
" style="fill: #ffffff"/>
  </g>
  <g id="axes_1">
   <g id="patch_2">
    <path d="M 52.764063 285.37598 
L 409.884063 285.37598 
L 409.884063 19.26398 
L 52.764063 19.26398 
z
" style="fill: #ffffff"/>
   </g>
   <g id="PolyCollection_1">
    <defs>
     <path id="me2333156fe" d="M 52.764063 -329.973156 
L 52.764063 -269.451362 
L 63.924063 -255.472443 
L 75.084063 -247.136857 
L 86.244063 -229.472274 
L 97.404063 -214.40047 
L 108.564063 -197.82517 
L 119.724063 -181.686216 
L 130.884063 -164.675194 
L 142.044062 -154.148929 
L 153.204063 -148.882507 
L 164.364063 -142.936467 
L 175.524063 -138.858561 
L 186.684063 -132.382537 
L 197.844063 -130.66623 
L 209.004063 -131.275709 
L 220.164062 -130.177854 
L 231.324063 -123.156515 
L 242.484062 -120.763005 
L 253.644063 -124.70005 
L 264.804062 -123.424756 
L 275.964063 -118.772521 
L 287.124063 -119.271661 
L 298.284063 -117.005652 
L 309.444063 -114.20986 
L 320.604062 -109.782709 
L 331.764063 -105.230913 
L 342.924062 -96.600225 
L 354.084063 -96.914461 
L 365.244062 -103.864455 
L 376.404063 -107.306284 
L 387.564062 -111.432277 
L 398.724063 -112.537777 
L 409.884063 -109.85154 
L 409.884063 -126.201554 
L 409.884063 -126.201554 
L 398.724063 -129.151205 
L 387.564062 -128.230166 
L 376.404063 -124.719446 
L 365.244062 -122.154814 
L 354.084063 -116.2398 
L 342.924062 -117.303792 
L 331.764063 -126.499735 
L 320.604062 -132.158177 
L 309.444063 -137.129739 
L 298.284063 -140.022832 
L 287.124063 -142.702631 
L 275.964063 -143.419592 
L 264.804062 -149.095257 
L 253.644063 -152.872327 
L 242.484062 -151.774875 
L 231.324063 -156.147119 
L 220.164062 -164.596505 
L 209.004063 -166.910138 
L 197.844063 -168.086199 
L 186.684063 -173.945682 
L 175.524063 -183.797863 
L 164.364063 -189.180479 
L 153.204063 -196.909725 
L 142.044062 -206.165284 
L 130.884063 -221.132986 
L 119.724063 -241.479722 
L 108.564063 -260.139688 
L 97.404063 -277.163264 
L 86.244063 -288.53373 
L 75.084063 -304.189489 
L 63.924063 -312.305112 
L 52.764063 -329.973156 
z
" style="stroke: #1f77b4; stroke-opacity: 0.2"/>
    </defs>
    <g clip-path="url(#p609d773643)">
     <use xlink:href="#me2333156fe" x="0" y="361.333136" style="fill: #1f77b4; fill-opacity: 0.2; stroke: #1f77b4; stroke-opacity: 0.2"/>
    </g>
   </g>
   <g id="PolyCollection_2">
    <defs>
     <path id="mc65bdd5332" d="M 52.764063 -230.166056 
L 52.764063 -192.632529 
L 63.924063 -186.55104 
L 75.084063 -171.137255 
L 86.244063 -148.428798 
L 97.404063 -125.494372 
L 108.564063 -105.687579 
L 119.724063 -92.808145 
L 130.884063 -88.053156 
L 142.044062 -92.540225 
L 153.204063 -89.976117 
L 164.364063 -91.429192 
L 175.524063 -96.125994 
L 186.684063 -97.073068 
L 197.844063 -98.894905 
L 209.004063 -97.53573 
L 220.164062 -97.975516 
L 231.324063 -100.18887 
L 242.484062 -99.130129 
L 253.644063 -93.614882 
L 264.804062 -91.49418 
L 275.964063 -97.046771 
L 287.124063 -101.298515 
L 298.284063 -101.620196 
L 309.444063 -99.764698 
L 320.604062 -95.830208 
L 331.764063 -94.812411 
L 342.924062 -95.192279 
L 354.084063 -90.505276 
L 365.244062 -95.194291 
L 376.404063 -100.618656 
L 387.564062 -101.402838 
L 398.724063 -103.811096 
L 409.884063 -113.710257 
L 409.884063 -131.433913 
L 409.884063 -131.433913 
L 398.724063 -121.526181 
L 387.564062 -118.135296 
L 376.404063 -116.821674 
L 365.244062 -112.414783 
L 354.084063 -110.016565 
L 342.924062 -115.596378 
L 331.764063 -115.122066 
L 320.604062 -115.944778 
L 309.444063 -120.620292 
L 298.284063 -123.768589 
L 287.124063 -124.434766 
L 275.964063 -120.12741 
L 264.804062 -114.560051 
L 253.644063 -117.996447 
L 242.484062 -125.226895 
L 231.324063 -128.39161 
L 220.164062 -128.502452 
L 209.004063 -130.407747 
L 197.844063 -133.777686 
L 186.684063 -132.773008 
L 175.524063 -132.117233 
L 164.364063 -127.850499 
L 153.204063 -127.423047 
L 142.044062 -131.987156 
L 130.884063 -129.061791 
L 119.724063 -133.68783 
L 108.564063 -146.276106 
L 97.404063 -164.922169 
L 86.244063 -185.466767 
L 75.084063 -206.497688 
L 63.924063 -222.023221 
L 52.764063 -230.166056 
z
" style="stroke: #ff7f0e; stroke-opacity: 0.2"/>
    </defs>
    <g clip-path="url(#p609d773643)">
     <use xlink:href="#mc65bdd5332" x="0" y="361.333136" style="fill: #ff7f0e; fill-opacity: 0.2; stroke: #ff7f0e; stroke-opacity: 0.2"/>
    </g>
   </g>
   <g id="matplotlib.axis_1">
    <g id="text_1">
     <text style="font: 10px 'Arial', sans-serif; text-anchor: middle" x="231.324063" y="296.533792" transform="rotate(-0 231.324063 296.533792)">Time</text>
    </g>
   </g>
   <g id="matplotlib.axis_2">
    <g id="ytick_1">
     <g id="line2d_1">
      <defs>
       <path id="mb8dc3a3ffa" d="M 0 0 
L -3.5 0 
" style="stroke: #000000; stroke-width: 0.8"/>
      </defs>
      <g>
       <use xlink:href="#mb8dc3a3ffa" x="52.764063" y="267.198109" style="stroke: #000000; stroke-width: 0.8"/>
      </g>
     </g>
     <g id="text_2">
      <text style="font: 10px 'Arial', sans-serif; text-anchor: end" x="45.764063" y="270.777015" transform="rotate(-0 45.764063 270.777015)">−0.50</text>
     </g>
    </g>
    <g id="ytick_2">
     <g id="line2d_2">
      <g>
       <use xlink:href="#mb8dc3a3ffa" x="52.764063" y="233.442143" style="stroke: #000000; stroke-width: 0.8"/>
      </g>
     </g>
     <g id="text_3">
      <text style="font: 10px 'Arial', sans-serif; text-anchor: end" x="45.764063" y="237.021049" transform="rotate(-0 45.764063 237.021049)">−0.45</text>
     </g>
    </g>
    <g id="ytick_3">
     <g id="line2d_3">
      <g>
       <use xlink:href="#mb8dc3a3ffa" x="52.764063" y="199.686177" style="stroke: #000000; stroke-width: 0.8"/>
      </g>
     </g>
     <g id="text_4">
      <text style="font: 10px 'Arial', sans-serif; text-anchor: end" x="45.764063" y="203.265083" transform="rotate(-0 45.764063 203.265083)">−0.40</text>
     </g>
    </g>
    <g id="ytick_4">
     <g id="line2d_4">
      <g>
       <use xlink:href="#mb8dc3a3ffa" x="52.764063" y="165.930211" style="stroke: #000000; stroke-width: 0.8"/>
      </g>
     </g>
     <g id="text_5">
      <text style="font: 10px 'Arial', sans-serif; text-anchor: end" x="45.764063" y="169.509117" transform="rotate(-0 45.764063 169.509117)">−0.35</text>
     </g>
    </g>
    <g id="ytick_5">
     <g id="line2d_5">
      <g>
       <use xlink:href="#mb8dc3a3ffa" x="52.764063" y="132.174245" style="stroke: #000000; stroke-width: 0.8"/>
      </g>
     </g>
     <g id="text_6">
      <text style="font: 10px 'Arial', sans-serif; text-anchor: end" x="45.764063" y="135.753151" transform="rotate(-0 45.764063 135.753151)">−0.30</text>
     </g>
    </g>
    <g id="ytick_6">
     <g id="line2d_6">
      <g>
       <use xlink:href="#mb8dc3a3ffa" x="52.764063" y="98.418279" style="stroke: #000000; stroke-width: 0.8"/>
      </g>
     </g>
     <g id="text_7">
      <text style="font: 10px 'Arial', sans-serif; text-anchor: end" x="45.764063" y="101.997185" transform="rotate(-0 45.764063 101.997185)">−0.25</text>
     </g>
    </g>
    <g id="ytick_7">
     <g id="line2d_7">
      <g>
       <use xlink:href="#mb8dc3a3ffa" x="52.764063" y="64.662313" style="stroke: #000000; stroke-width: 0.8"/>
      </g>
     </g>
     <g id="text_8">
      <text style="font: 10px 'Arial', sans-serif; text-anchor: end" x="45.764063" y="68.24122" transform="rotate(-0 45.764063 68.24122)">−0.20</text>
     </g>
    </g>
    <g id="ytick_8">
     <g id="line2d_8">
      <g>
       <use xlink:href="#mb8dc3a3ffa" x="52.764063" y="30.906347" style="stroke: #000000; stroke-width: 0.8"/>
      </g>
     </g>
     <g id="text_9">
      <text style="font: 10px 'Arial', sans-serif; text-anchor: end" x="45.764063" y="34.485254" transform="rotate(-0 45.764063 34.485254)">−0.15</text>
     </g>
    </g>
    <g id="text_10">
     <text style="font: 10px 'Arial', sans-serif; text-anchor: middle" x="14.357813" y="152.31998" transform="rotate(-90 14.357813 152.31998)">Activity</text>
    </g>
   </g>
   <g id="line2d_9">
    <path d="M 52.764063 61.620877 
L 63.924063 77.444358 
L 75.084063 85.669968 
L 86.244063 102.330134 
L 97.404063 115.551269 
L 108.564063 132.350707 
L 119.724063 149.750167 
L 130.884063 168.429046 
L 142.044062 181.17603 
L 153.204063 188.43702 
L 164.364063 195.274663 
L 175.524063 200.004924 
L 186.684063 208.169026 
L 197.844063 211.956921 
L 209.004063 212.240213 
L 220.164062 213.945957 
L 231.324063 221.681319 
L 242.484062 225.064196 
L 253.644063 222.546947 
L 264.804062 225.073129 
L 275.964063 230.23708 
L 287.124063 230.34599 
L 298.284063 232.818894 
L 309.444063 235.663336 
L 320.604062 240.362693 
L 331.764063 245.467812 
L 342.924062 254.381127 
L 354.084063 254.756006 
L 365.244062 248.323502 
L 376.404063 245.320271 
L 387.564062 241.501914 
L 398.724063 240.488645 
L 409.884063 243.306589 
" clip-path="url(#p609d773643)" style="fill: none; stroke: #1f77b4; stroke-width: 1.5; stroke-linecap: square"/>
   </g>
   <g id="line2d_10">
    <path d="M 52.764063 149.933844 
L 63.924063 157.046006 
L 75.084063 172.515664 
L 86.244063 194.385353 
L 97.404063 216.124865 
L 108.564063 235.351293 
L 119.724063 248.085138 
L 130.884063 252.775662 
L 142.044062 249.069455 
L 153.204063 252.633554 
L 164.364063 251.6933 
L 175.524063 247.211523 
L 186.684063 246.410098 
L 197.844063 244.99684 
L 209.004063 247.361397 
L 220.164062 248.094152 
L 231.324063 247.042896 
L 242.484062 249.154624 
L 253.644063 255.527472 
L 264.804062 258.30602 
L 275.964063 252.746046 
L 287.124063 248.466495 
L 298.284063 248.638744 
L 309.444063 251.140641 
L 320.604062 255.445643 
L 331.764063 256.365897 
L 342.924062 255.938807 
L 354.084063 261.072215 
L 365.244062 257.528599 
L 376.404063 252.612971 
L 387.564062 251.564069 
L 398.724063 248.664497 
L 409.884063 238.761051 
" clip-path="url(#p609d773643)" style="fill: none; stroke: #ff7f0e; stroke-width: 1.5; stroke-linecap: square"/>
   </g>
   <g id="line2d_11">
    <path d="M 86.244063 285.37598 
L 86.244063 19.26398 
" clip-path="url(#p609d773643)" style="fill: none; stroke-dasharray: 5.55,2.4; stroke-dashoffset: 0; stroke: #000000; stroke-opacity: 0.5; stroke-width: 1.5"/>
   </g>
   <g id="line2d_12">
    <path d="M 387.564062 285.37598 
L 387.564062 19.26398 
" clip-path="url(#p609d773643)" style="fill: none; stroke-dasharray: 5.55,2.4; stroke-dashoffset: 0; stroke: #000000; stroke-opacity: 0.5; stroke-width: 1.5"/>
   </g>
   <g id="patch_3">
    <path d="M 52.764063 285.37598 
L 409.884063 285.37598 
" style="fill: none; stroke: #000000; stroke-width: 0.8; stroke-linejoin: miter; stroke-linecap: square"/>
   </g>
   <g id="text_11">
    <text style="font: 6.94px 'Arial', sans-serif" transform="translate(14.010547 321.385533) rotate(-35)">-0.1s Sampling</text>
   </g>
   <g id="text_12">
    <text style="font: 6.94px 'Arial', sans-serif" transform="translate(61.707276 311.430872) rotate(-35)">Sampling</text>
   </g>
   <g id="text_13">
    <text style="font: 6.94px 'Arial', sans-serif" transform="translate(322.94997 339.456682) rotate(-35)">Movement to Lateral Port</text>
   </g>
   <g id="text_14">
    <text style="font: 8.33px 'Arial', sans-serif; text-anchor: middle" x="231.324063" y="13.26398" transform="rotate(-0 231.324063 13.26398)">GP4_85_s7_L70_D250_ALM - Trace:0_GP4_85_s7_L70_D250_ALM (when: correct)</text>
   </g>
   <g id="legend_1">
    <g id="patch_4">
     <path d="M 133.749831 354.133136 
L 328.898294 354.133136 
Q 330.286294 354.133136 330.286294 352.745136 
L 330.286294 343.45638 
Q 330.286294 342.06838 328.898294 342.06838 
L 133.749831 342.06838 
Q 132.361831 342.06838 132.361831 343.45638 
L 132.361831 352.745136 
Q 132.361831 354.133136 133.749831 354.133136 
z
" style="fill: #ffffff; opacity: 0.8; stroke: #cccccc; stroke-linejoin: miter"/>
    </g>
    <g id="line2d_13">
     <path d="M 135.137831 347.467483 
L 142.077831 347.467483 
L 149.017831 347.467483 
" style="fill: none; stroke: #1f77b4; stroke-width: 1.5; stroke-linecap: square"/>
    </g>
    <g id="text_15">
     <text style="font: 6.94px 'Arial', sans-serif; text-anchor: start" x="154.569831" y="349.896483" transform="rotate(-0 154.569831 349.896483)">DecisionRight (109 pts)</text>
    </g>
    <g id="line2d_14">
     <path d="M 240.577034 347.467483 
L 247.517034 347.467483 
L 254.457034 347.467483 
" style="fill: none; stroke: #ff7f0e; stroke-width: 1.5; stroke-linecap: square"/>
    </g>
    <g id="text_16">
     <text style="font: 6.94px 'Arial', sans-serif; text-anchor: start" x="260.009034" y="349.896483" transform="rotate(-0 260.009034 349.896483)">DecisionLeft (103 pts)</text>
    </g>
   </g>
  </g>
 </g>
 <defs>
  <clipPath id="p609d773643">
   <rect x="52.764063" y="19.26398" width="357.12" height="266.112"/>
  </clipPath>
 </defs>
</svg>
