<?xml version="1.0" encoding="utf-8" standalone="no"?>
<!DOCTYPE svg PUBLIC "-//W3C//DTD SVG 1.1//EN"
  "http://www.w3.org/Graphics/SVG/1.1/DTD/svg11.dtd">
<svg xmlns:xlink="http://www.w3.org/1999/xlink" width="413.171283pt" height="361.333136pt" viewBox="0 0 413.171283 361.333136" xmlns="http://www.w3.org/2000/svg" version="1.1">
 <metadata>
  <rdf:RDF xmlns:dc="http://purl.org/dc/elements/1.1/" xmlns:cc="http://creativecommons.org/ns#" xmlns:rdf="http://www.w3.org/1999/02/22-rdf-syntax-ns#">
   <cc:Work>
    <dc:type rdf:resource="http://purl.org/dc/dcmitype/StillImage"/>
    <dc:date>2025-12-29T04:07:59.269320</dc:date>
    <dc:format>image/svg+xml</dc:format>
    <dc:creator>
     <cc:Agent>
      <dc:title>Matplotlib v3.8.0, https://matplotlib.org/</dc:title>
     </cc:Agent>
    </dc:creator>
   </cc:Work>
  </rdf:RDF>
 </metadata>
 <defs>
  <style type="text/css">*{stroke-linejoin: round; stroke-linecap: butt}</style>
 </defs>
 <g id="figure_1">
  <g id="patch_1">
   <path d="M 0 361.333136 
L 413.171283 361.333136 
L 413.171283 -0 
L 0 -0 
z
" style="fill: #ffffff"/>
  </g>
  <g id="axes_1">
   <g id="patch_2">
    <path d="M 48.851283 285.37598 
L 405.971283 285.37598 
L 405.971283 19.26398 
L 48.851283 19.26398 
z
" style="fill: #ffffff"/>
   </g>
   <g id="PolyCollection_1">
    <defs>
     <path id="mc698516082" d="M 48.851283 -270.20584 
L 48.851283 -227.504298 
L 60.011283 -224.065657 
L 71.171283 -215.160903 
L 82.331283 -230.54961 
L 93.491283 -255.760707 
L 104.651283 -264.097024 
L 115.811283 -246.993459 
L 126.971283 -229.114223 
L 138.131283 -215.452345 
L 149.291283 -214.864808 
L 160.451283 -218.480916 
L 171.611283 -201.313677 
L 182.771283 -174.655554 
L 193.931283 -165.457366 
L 205.091283 -157.719045 
L 216.251283 -148.577365 
L 227.411283 -142.511271 
L 238.571283 -142.516828 
L 249.731283 -146.833344 
L 260.891283 -132.678936 
L 272.051283 -128.907266 
L 283.211283 -126.278264 
L 294.371283 -132.600546 
L 305.531283 -113.388276 
L 316.691283 -107.935744 
L 327.851283 -121.918594 
L 339.011283 -99.328776 
L 350.171283 -98.439895 
L 361.331283 -98.694104 
L 372.491283 -108.738169 
L 383.651283 -102.704422 
L 394.811283 -94.841039 
L 405.971283 -88.053156 
L 405.971283 -110.804706 
L 405.971283 -110.804706 
L 394.811283 -115.17787 
L 383.651283 -122.904958 
L 372.491283 -127.782971 
L 361.331283 -119.13447 
L 350.171283 -121.144493 
L 339.011283 -122.889423 
L 327.851283 -145.075569 
L 316.691283 -131.506514 
L 305.531283 -137.314838 
L 294.371283 -157.532928 
L 283.211283 -154.097514 
L 272.051283 -156.577591 
L 260.891283 -161.662328 
L 249.731283 -176.622928 
L 238.571283 -172.54738 
L 227.411283 -174.766479 
L 216.251283 -181.115007 
L 205.091283 -190.680079 
L 193.931283 -200.756134 
L 182.771283 -214.828405 
L 171.611283 -241.542965 
L 160.451283 -260.41061 
L 149.291283 -261.025963 
L 138.131283 -263.583603 
L 126.971283 -279.699984 
L 115.811283 -299.616344 
L 104.651283 -316.918238 
L 93.491283 -303.718173 
L 82.331283 -272.747252 
L 71.171283 -256.104145 
L 60.011283 -267.520732 
L 48.851283 -270.20584 
z
" style="stroke: #1f77b4; stroke-opacity: 0.2"/>
    </defs>
    <g clip-path="url(#pbab0a0160d)">
     <use xlink:href="#mc698516082" x="0" y="361.333136" style="fill: #1f77b4; fill-opacity: 0.2; stroke: #1f77b4; stroke-opacity: 0.2"/>
    </g>
   </g>
   <g id="PolyCollection_2">
    <defs>
     <path id="md76ce8d60e" d="M 48.851283 -253.778342 
L 48.851283 -213.721939 
L 60.011283 -212.750354 
L 71.171283 -222.510237 
L 82.331283 -234.544756 
L 93.491283 -262.912093 
L 104.651283 -280.055127 
L 115.811283 -270.343003 
L 126.971283 -237.160291 
L 138.131283 -222.656849 
L 149.291283 -224.19781 
L 160.451283 -216.685163 
L 171.611283 -181.634202 
L 182.771283 -167.627803 
L 193.931283 -177.052997 
L 205.091283 -171.440333 
L 216.251283 -155.497536 
L 227.411283 -155.260313 
L 238.571283 -142.373241 
L 249.731283 -118.232443 
L 260.891283 -119.812423 
L 272.051283 -120.44171 
L 283.211283 -107.823364 
L 294.371283 -104.691402 
L 305.531283 -117.059152 
L 316.691283 -113.335463 
L 327.851283 -123.979726 
L 339.011283 -124.581831 
L 350.171283 -118.151016 
L 361.331283 -109.932189 
L 372.491283 -103.296067 
L 383.651283 -99.51023 
L 394.811283 -108.213076 
L 405.971283 -125.000355 
L 405.971283 -148.097935 
L 405.971283 -148.097935 
L 394.811283 -130.311784 
L 383.651283 -122.541659 
L 372.491283 -123.437089 
L 361.331283 -129.695508 
L 350.171283 -138.064121 
L 339.011283 -145.217367 
L 327.851283 -146.965498 
L 316.691283 -139.561872 
L 305.531283 -142.965259 
L 294.371283 -130.381607 
L 283.211283 -130.556135 
L 272.051283 -141.783683 
L 260.891283 -143.435527 
L 249.731283 -144.452489 
L 238.571283 -169.678935 
L 227.411283 -184.326938 
L 216.251283 -187.119118 
L 205.091283 -204.610786 
L 193.931283 -210.79331 
L 182.771283 -202.883955 
L 171.611283 -219.715264 
L 160.451283 -257.571632 
L 149.291283 -267.358974 
L 138.131283 -265.3462 
L 126.971283 -281.107542 
L 115.811283 -316.494773 
L 104.651283 -329.973156 
L 93.491283 -313.405138 
L 82.331283 -282.592948 
L 71.171283 -266.917415 
L 60.011283 -254.284905 
L 48.851283 -253.778342 
z
" style="stroke: #ff7f0e; stroke-opacity: 0.2"/>
    </defs>
    <g clip-path="url(#pbab0a0160d)">
     <use xlink:href="#md76ce8d60e" x="0" y="361.333136" style="fill: #ff7f0e; fill-opacity: 0.2; stroke: #ff7f0e; stroke-opacity: 0.2"/>
    </g>
   </g>
   <g id="matplotlib.axis_1">
    <g id="text_1">
     <text style="font: 10px 'Arial', sans-serif; text-anchor: middle" x="227.411283" y="296.533792" transform="rotate(-0 227.411283 296.533792)">Time</text>
    </g>
   </g>
   <g id="matplotlib.axis_2">
    <g id="ytick_1">
     <g id="line2d_1">
      <defs>
       <path id="me04f73e85f" d="M 0 0 
L -3.5 0 
" style="stroke: #000000; stroke-width: 0.8"/>
      </defs>
      <g>
       <use xlink:href="#me04f73e85f" x="48.851283" y="243.621051" style="stroke: #000000; stroke-width: 0.8"/>
      </g>
     </g>
     <g id="text_2">
      <text style="font: 10px 'Arial', sans-serif; text-anchor: end" x="41.851283" y="247.199957" transform="rotate(-0 41.851283 247.199957)">−0.2</text>
     </g>
    </g>
    <g id="ytick_2">
     <g id="line2d_2">
      <g>
       <use xlink:href="#me04f73e85f" x="48.851283" y="200.128163" style="stroke: #000000; stroke-width: 0.8"/>
      </g>
     </g>
     <g id="text_3">
      <text style="font: 10px 'Arial', sans-serif; text-anchor: end" x="41.851283" y="203.70707" transform="rotate(-0 41.851283 203.70707)">0.0</text>
     </g>
    </g>
    <g id="ytick_3">
     <g id="line2d_3">
      <g>
       <use xlink:href="#me04f73e85f" x="48.851283" y="156.635276" style="stroke: #000000; stroke-width: 0.8"/>
      </g>
     </g>
     <g id="text_4">
      <text style="font: 10px 'Arial', sans-serif; text-anchor: end" x="41.851283" y="160.214182" transform="rotate(-0 41.851283 160.214182)">0.2</text>
     </g>
    </g>
    <g id="ytick_4">
     <g id="line2d_4">
      <g>
       <use xlink:href="#me04f73e85f" x="48.851283" y="113.142388" style="stroke: #000000; stroke-width: 0.8"/>
      </g>
     </g>
     <g id="text_5">
      <text style="font: 10px 'Arial', sans-serif; text-anchor: end" x="41.851283" y="116.721294" transform="rotate(-0 41.851283 116.721294)">0.4</text>
     </g>
    </g>
    <g id="ytick_5">
     <g id="line2d_5">
      <g>
       <use xlink:href="#me04f73e85f" x="48.851283" y="69.6495" style="stroke: #000000; stroke-width: 0.8"/>
      </g>
     </g>
     <g id="text_6">
      <text style="font: 10px 'Arial', sans-serif; text-anchor: end" x="41.851283" y="73.228407" transform="rotate(-0 41.851283 73.228407)">0.6</text>
     </g>
    </g>
    <g id="ytick_6">
     <g id="line2d_6">
      <g>
       <use xlink:href="#me04f73e85f" x="48.851283" y="26.156613" style="stroke: #000000; stroke-width: 0.8"/>
      </g>
     </g>
     <g id="text_7">
      <text style="font: 10px 'Arial', sans-serif; text-anchor: end" x="41.851283" y="29.735519" transform="rotate(-0 41.851283 29.735519)">0.8</text>
     </g>
    </g>
    <g id="text_8">
     <text style="font: 10px 'Arial', sans-serif; text-anchor: middle" x="16.005971" y="152.31998" transform="rotate(-90 16.005971 152.31998)">Activity</text>
    </g>
   </g>
   <g id="line2d_7">
    <path d="M 48.851283 112.47807 
L 60.011283 115.539941 
L 71.171283 125.700612 
L 82.331283 109.684705 
L 93.491283 81.593696 
L 104.651283 70.825502 
L 115.811283 88.028238 
L 126.971283 106.926032 
L 138.131283 121.815162 
L 149.291283 123.38775 
L 160.451283 121.887372 
L 171.611283 139.904815 
L 182.771283 166.591157 
L 193.931283 178.226385 
L 205.091283 187.133574 
L 216.251283 196.48695 
L 227.411283 202.694261 
L 238.571283 203.801032 
L 249.731283 199.605 
L 260.891283 214.162504 
L 272.051283 218.590708 
L 283.211283 221.145247 
L 294.371283 216.266399 
L 305.531283 235.981579 
L 316.691283 241.612007 
L 327.851283 227.836055 
L 339.011283 250.224036 
L 350.171283 251.540942 
L 361.331283 252.418847 
L 372.491283 243.072566 
L 383.651283 248.528446 
L 394.811283 256.323682 
L 405.971283 261.904203 
" clip-path="url(#pbab0a0160d)" style="fill: none; stroke: #1f77b4; stroke-width: 1.5; stroke-linecap: square"/>
   </g>
   <g id="line2d_8">
    <path d="M 48.851283 127.582996 
L 60.011283 127.815506 
L 71.171283 116.61931 
L 82.331283 102.764281 
L 93.491283 73.17452 
L 104.651283 56.318994 
L 115.811283 67.914248 
L 126.971283 102.19922 
L 138.131283 117.331611 
L 149.291283 115.554744 
L 160.451283 124.204738 
L 171.611283 160.658403 
L 182.771283 176.077257 
L 193.931283 167.409983 
L 205.091283 173.307576 
L 216.251283 190.024809 
L 227.411283 191.539511 
L 238.571283 205.307048 
L 249.731283 229.990671 
L 260.891283 229.709161 
L 272.051283 230.22044 
L 283.211283 242.143386 
L 294.371283 243.796633 
L 305.531283 231.32093 
L 316.691283 234.884468 
L 327.851283 225.860523 
L 339.011283 226.433536 
L 350.171283 233.225567 
L 361.331283 241.519287 
L 372.491283 247.966558 
L 383.651283 250.30719 
L 394.811283 242.070706 
L 405.971283 224.783991 
" clip-path="url(#pbab0a0160d)" style="fill: none; stroke: #ff7f0e; stroke-width: 1.5; stroke-linecap: square"/>
   </g>
   <g id="line2d_9">
    <path d="M 82.331283 285.37598 
L 82.331283 19.26398 
" clip-path="url(#pbab0a0160d)" style="fill: none; stroke-dasharray: 5.55,2.4; stroke-dashoffset: 0; stroke: #000000; stroke-opacity: 0.5; stroke-width: 1.5"/>
   </g>
   <g id="line2d_10">
    <path d="M 383.651283 285.37598 
L 383.651283 19.26398 
" clip-path="url(#pbab0a0160d)" style="fill: none; stroke-dasharray: 5.55,2.4; stroke-dashoffset: 0; stroke: #000000; stroke-opacity: 0.5; stroke-width: 1.5"/>
   </g>
   <g id="patch_3">
    <path d="M 48.851283 285.37598 
L 405.971283 285.37598 
" style="fill: none; stroke: #000000; stroke-width: 0.8; stroke-linejoin: miter; stroke-linecap: square"/>
   </g>
   <g id="text_9">
    <text style="font: 6.94px 'Arial', sans-serif" transform="translate(10.097767 321.385533) rotate(-35)">-0.1s Sampling</text>
   </g>
   <g id="text_10">
    <text style="font: 6.94px 'Arial', sans-serif" transform="translate(57.794497 311.430872) rotate(-35)">Sampling</text>
   </g>
   <g id="text_11">
    <text style="font: 6.94px 'Arial', sans-serif" transform="translate(319.037191 339.456682) rotate(-35)">Movement to Lateral Port</text>
   </g>
   <g id="text_12">
    <text style="font: 8.33px 'Arial', sans-serif; text-anchor: middle" x="227.411283" y="13.26398" transform="rotate(-0 227.411283 13.26398)">GP4_85_s7_L70_D250_ALM - Trace:133_GP4_85_s7_L70_D250_ALM (when: correct)</text>
   </g>
   <g id="legend_1">
    <g id="patch_4">
     <path d="M 129.837052 354.133136 
L 324.985514 354.133136 
Q 326.373514 354.133136 326.373514 352.745136 
L 326.373514 343.45638 
Q 326.373514 342.06838 324.985514 342.06838 
L 129.837052 342.06838 
Q 128.449052 342.06838 128.449052 343.45638 
L 128.449052 352.745136 
Q 128.449052 354.133136 129.837052 354.133136 
z
" style="fill: #ffffff; opacity: 0.8; stroke: #cccccc; stroke-linejoin: miter"/>
    </g>
    <g id="line2d_11">
     <path d="M 131.225052 347.467483 
L 138.165052 347.467483 
L 145.105052 347.467483 
" style="fill: none; stroke: #1f77b4; stroke-width: 1.5; stroke-linecap: square"/>
    </g>
    <g id="text_13">
     <text style="font: 6.94px 'Arial', sans-serif; text-anchor: start" x="150.657052" y="349.896483" transform="rotate(-0 150.657052 349.896483)">DecisionRight (109 pts)</text>
    </g>
    <g id="line2d_12">
     <path d="M 236.664255 347.467483 
L 243.604255 347.467483 
L 250.544255 347.467483 
" style="fill: none; stroke: #ff7f0e; stroke-width: 1.5; stroke-linecap: square"/>
    </g>
    <g id="text_14">
     <text style="font: 6.94px 'Arial', sans-serif; text-anchor: start" x="256.096255" y="349.896483" transform="rotate(-0 256.096255 349.896483)">DecisionLeft (103 pts)</text>
    </g>
   </g>
  </g>
 </g>
 <defs>
  <clipPath id="pbab0a0160d">
   <rect x="48.851283" y="19.26398" width="357.12" height="266.112"/>
  </clipPath>
 </defs>
</svg>
