<?xml version="1.0" encoding="utf-8" standalone="no"?>
<!DOCTYPE svg PUBLIC "-//W3C//DTD SVG 1.1//EN"
  "http://www.w3.org/Graphics/SVG/1.1/DTD/svg11.dtd">
<svg xmlns:xlink="http://www.w3.org/1999/xlink" width="413.171283pt" height="361.333136pt" viewBox="0 0 413.171283 361.333136" xmlns="http://www.w3.org/2000/svg" version="1.1">
 <metadata>
  <rdf:RDF xmlns:dc="http://purl.org/dc/elements/1.1/" xmlns:cc="http://creativecommons.org/ns#" xmlns:rdf="http://www.w3.org/1999/02/22-rdf-syntax-ns#">
   <cc:Work>
    <dc:type rdf:resource="http://purl.org/dc/dcmitype/StillImage"/>
    <dc:date>2025-12-29T04:08:00.789151</dc:date>
    <dc:format>image/svg+xml</dc:format>
    <dc:creator>
     <cc:Agent>
      <dc:title>Matplotlib v3.8.0, https://matplotlib.org/</dc:title>
     </cc:Agent>
    </dc:creator>
   </cc:Work>
  </rdf:RDF>
 </metadata>
 <defs>
  <style type="text/css">*{stroke-linejoin: round; stroke-linecap: butt}</style>
 </defs>
 <g id="figure_1">
  <g id="patch_1">
   <path d="M 0 361.333136 
L 413.171283 361.333136 
L 413.171283 -0 
L 0 -0 
z
" style="fill: #ffffff"/>
  </g>
  <g id="axes_1">
   <g id="patch_2">
    <path d="M 48.851283 285.37598 
L 405.971283 285.37598 
L 405.971283 19.26398 
L 48.851283 19.26398 
z
" style="fill: #ffffff"/>
   </g>
   <g id="PolyCollection_1">
    <defs>
     <path id="mbc921bb50c" d="M 48.851283 -102.873903 
L 48.851283 -91.706768 
L 60.011283 -90.692266 
L 71.171283 -88.053156 
L 82.331283 -95.055946 
L 93.491283 -104.130034 
L 104.651283 -118.671922 
L 115.811283 -135.396192 
L 126.971283 -152.268209 
L 138.131283 -174.742191 
L 149.291283 -201.302976 
L 160.451283 -226.610321 
L 171.611283 -248.443715 
L 182.771283 -269.411618 
L 193.931283 -282.439173 
L 205.091283 -292.913358 
L 216.251283 -295.567639 
L 227.411283 -289.665207 
L 238.571283 -282.520532 
L 249.731283 -283.838215 
L 260.891283 -274.969985 
L 272.051283 -272.356357 
L 283.211283 -263.416341 
L 294.371283 -250.118138 
L 305.531283 -240.07575 
L 316.691283 -227.145597 
L 327.851283 -214.901142 
L 339.011283 -215.115069 
L 350.171283 -209.063444 
L 361.331283 -204.432564 
L 372.491283 -185.363466 
L 383.651283 -179.965872 
L 394.811283 -177.459269 
L 405.971283 -172.170223 
L 405.971283 -195.062776 
L 405.971283 -195.062776 
L 394.811283 -200.656022 
L 383.651283 -202.949699 
L 372.491283 -208.33636 
L 361.331283 -227.251688 
L 350.171283 -233.07164 
L 339.011283 -240.062478 
L 327.851283 -239.751849 
L 316.691283 -251.91986 
L 305.531283 -264.976662 
L 294.371283 -274.763859 
L 283.211283 -290.07374 
L 272.051283 -301.999188 
L 260.891283 -305.951517 
L 249.731283 -315.297093 
L 238.571283 -313.140891 
L 227.411283 -319.918474 
L 216.251283 -326.384606 
L 205.091283 -323.558213 
L 193.931283 -311.919992 
L 182.771283 -296.964481 
L 171.611283 -275.539986 
L 160.451283 -250.958061 
L 149.291283 -223.54015 
L 138.131283 -195.650616 
L 126.971283 -169.744876 
L 115.811283 -152.637827 
L 104.651283 -131.502862 
L 93.491283 -115.749782 
L 82.331283 -105.930619 
L 71.171283 -98.311738 
L 60.011283 -101.020856 
L 48.851283 -102.873903 
z
" style="stroke: #1f77b4; stroke-opacity: 0.2"/>
    </defs>
    <g clip-path="url(#p93df789b51)">
     <use xlink:href="#mbc921bb50c" x="0" y="361.333136" style="fill: #1f77b4; fill-opacity: 0.2; stroke: #1f77b4; stroke-opacity: 0.2"/>
    </g>
   </g>
   <g id="PolyCollection_2">
    <defs>
     <path id="m50d35f9160" d="M 48.851283 -116.497046 
L 48.851283 -102.761552 
L 60.011283 -102.775935 
L 71.171283 -100.300432 
L 82.331283 -102.049316 
L 93.491283 -117.599927 
L 104.651283 -132.457773 
L 115.811283 -149.617736 
L 126.971283 -173.573087 
L 138.131283 -208.059784 
L 149.291283 -231.75833 
L 160.451283 -254.834965 
L 171.611283 -272.716824 
L 182.771283 -290.248746 
L 193.931283 -296.029057 
L 205.091283 -293.9534 
L 216.251283 -289.329941 
L 227.411283 -283.673297 
L 238.571283 -279.78845 
L 249.731283 -275.983699 
L 260.891283 -262.342368 
L 272.051283 -258.45008 
L 283.211283 -251.768134 
L 294.371283 -241.777797 
L 305.531283 -230.991673 
L 316.691283 -220.517541 
L 327.851283 -214.521273 
L 339.011283 -203.545315 
L 350.171283 -198.02832 
L 361.331283 -192.512059 
L 372.491283 -185.847763 
L 383.651283 -186.050587 
L 394.811283 -187.78165 
L 405.971283 -185.58502 
L 405.971283 -209.271892 
L 405.971283 -209.271892 
L 394.811283 -211.675293 
L 383.651283 -210.368024 
L 372.491283 -210.962337 
L 361.331283 -218.495028 
L 350.171283 -223.466326 
L 339.011283 -230.135381 
L 327.851283 -243.160274 
L 316.691283 -249.557838 
L 305.531283 -260.828416 
L 294.371283 -271.340091 
L 283.211283 -281.910354 
L 272.051283 -289.536434 
L 260.891283 -295.830005 
L 249.731283 -311.082438 
L 238.571283 -316.576662 
L 227.411283 -321.086284 
L 216.251283 -324.431097 
L 205.091283 -328.492022 
L 193.931283 -329.973156 
L 182.771283 -324.96904 
L 171.611283 -305.778956 
L 160.451283 -287.539027 
L 149.291283 -263.495025 
L 138.131283 -237.638649 
L 126.971283 -199.888112 
L 115.811283 -171.136336 
L 104.651283 -148.98731 
L 93.491283 -131.026496 
L 82.331283 -115.411485 
L 71.171283 -114.14148 
L 60.011283 -116.416981 
L 48.851283 -116.497046 
z
" style="stroke: #ff7f0e; stroke-opacity: 0.2"/>
    </defs>
    <g clip-path="url(#p93df789b51)">
     <use xlink:href="#m50d35f9160" x="0" y="361.333136" style="fill: #ff7f0e; fill-opacity: 0.2; stroke: #ff7f0e; stroke-opacity: 0.2"/>
    </g>
   </g>
   <g id="matplotlib.axis_1">
    <g id="text_1">
     <text style="font: 10px 'Arial', sans-serif; text-anchor: middle" x="227.411283" y="296.533792" transform="rotate(-0 227.411283 296.533792)">Time</text>
    </g>
   </g>
   <g id="matplotlib.axis_2">
    <g id="ytick_1">
     <g id="line2d_1">
      <defs>
       <path id="m2d3205ef16" d="M 0 0 
L -3.5 0 
" style="stroke: #000000; stroke-width: 0.8"/>
      </defs>
      <g>
       <use xlink:href="#m2d3205ef16" x="48.851283" y="274.053049" style="stroke: #000000; stroke-width: 0.8"/>
      </g>
     </g>
     <g id="text_2">
      <text style="font: 10px 'Arial', sans-serif; text-anchor: end" x="41.851283" y="277.631955" transform="rotate(-0 41.851283 277.631955)">−0.5</text>
     </g>
    </g>
    <g id="ytick_2">
     <g id="line2d_2">
      <g>
       <use xlink:href="#m2d3205ef16" x="48.851283" y="217.103116" style="stroke: #000000; stroke-width: 0.8"/>
      </g>
     </g>
     <g id="text_3">
      <text style="font: 10px 'Arial', sans-serif; text-anchor: end" x="41.851283" y="220.682022" transform="rotate(-0 41.851283 220.682022)">0.0</text>
     </g>
    </g>
    <g id="ytick_3">
     <g id="line2d_3">
      <g>
       <use xlink:href="#m2d3205ef16" x="48.851283" y="160.153183" style="stroke: #000000; stroke-width: 0.8"/>
      </g>
     </g>
     <g id="text_4">
      <text style="font: 10px 'Arial', sans-serif; text-anchor: end" x="41.851283" y="163.732089" transform="rotate(-0 41.851283 163.732089)">0.5</text>
     </g>
    </g>
    <g id="ytick_4">
     <g id="line2d_4">
      <g>
       <use xlink:href="#m2d3205ef16" x="48.851283" y="103.20325" style="stroke: #000000; stroke-width: 0.8"/>
      </g>
     </g>
     <g id="text_5">
      <text style="font: 10px 'Arial', sans-serif; text-anchor: end" x="41.851283" y="106.782156" transform="rotate(-0 41.851283 106.782156)">1.0</text>
     </g>
    </g>
    <g id="ytick_5">
     <g id="line2d_5">
      <g>
       <use xlink:href="#m2d3205ef16" x="48.851283" y="46.253317" style="stroke: #000000; stroke-width: 0.8"/>
      </g>
     </g>
     <g id="text_6">
      <text style="font: 10px 'Arial', sans-serif; text-anchor: end" x="41.851283" y="49.832224" transform="rotate(-0 41.851283 49.832224)">1.5</text>
     </g>
    </g>
    <g id="text_7">
     <text style="font: 10px 'Arial', sans-serif; text-anchor: middle" x="16.005971" y="152.31998" transform="rotate(-90 16.005971 152.31998)">Activity</text>
    </g>
   </g>
   <g id="line2d_6">
    <path d="M 48.851283 264.0428 
L 60.011283 265.476575 
L 71.171283 268.150689 
L 82.331283 260.839854 
L 93.491283 251.393228 
L 104.651283 236.245744 
L 115.811283 217.316127 
L 126.971283 200.326594 
L 138.131283 176.136733 
L 149.291283 148.911573 
L 160.451283 122.548945 
L 171.611283 99.341282 
L 182.771283 78.145086 
L 193.931283 64.153554 
L 205.091283 53.09735 
L 216.251283 50.357013 
L 227.411283 56.541295 
L 238.571283 63.502424 
L 249.731283 61.765482 
L 260.891283 70.872385 
L 272.051283 74.155363 
L 283.211283 84.588096 
L 294.371283 98.892138 
L 305.531283 108.806933 
L 316.691283 121.800407 
L 327.851283 134.00664 
L 339.011283 133.744362 
L 350.171283 140.265594 
L 361.331283 145.49101 
L 372.491283 164.483223 
L 383.651283 169.875349 
L 394.811283 172.275491 
L 405.971283 177.716636 
" clip-path="url(#p93df789b51)" style="fill: none; stroke: #1f77b4; stroke-width: 1.5; stroke-linecap: square"/>
   </g>
   <g id="line2d_7">
    <path d="M 48.851283 251.703837 
L 60.011283 251.736678 
L 71.171283 254.11218 
L 82.331283 252.602736 
L 93.491283 237.019925 
L 104.651283 220.610595 
L 115.811283 200.9561 
L 126.971283 174.602536 
L 138.131283 138.483919 
L 149.291283 113.706459 
L 160.451283 90.146136 
L 171.611283 72.085246 
L 182.771283 53.724243 
L 193.931283 48.332029 
L 205.091283 50.110425 
L 216.251283 54.452617 
L 227.411283 58.953345 
L 238.571283 63.15058 
L 249.731283 67.800068 
L 260.891283 82.246949 
L 272.051283 87.339879 
L 283.211283 94.493896 
L 294.371283 104.774195 
L 305.531283 115.423095 
L 316.691283 126.295446 
L 327.851283 132.492362 
L 339.011283 144.492788 
L 350.171283 150.585813 
L 361.331283 155.829593 
L 372.491283 162.928086 
L 383.651283 163.123829 
L 394.811283 161.604663 
L 405.971283 163.904681 
" clip-path="url(#p93df789b51)" style="fill: none; stroke: #ff7f0e; stroke-width: 1.5; stroke-linecap: square"/>
   </g>
   <g id="line2d_8">
    <path d="M 82.331283 285.37598 
L 82.331283 19.26398 
" clip-path="url(#p93df789b51)" style="fill: none; stroke-dasharray: 5.55,2.4; stroke-dashoffset: 0; stroke: #000000; stroke-opacity: 0.5; stroke-width: 1.5"/>
   </g>
   <g id="line2d_9">
    <path d="M 383.651283 285.37598 
L 383.651283 19.26398 
" clip-path="url(#p93df789b51)" style="fill: none; stroke-dasharray: 5.55,2.4; stroke-dashoffset: 0; stroke: #000000; stroke-opacity: 0.5; stroke-width: 1.5"/>
   </g>
   <g id="patch_3">
    <path d="M 48.851283 285.37598 
L 405.971283 285.37598 
" style="fill: none; stroke: #000000; stroke-width: 0.8; stroke-linejoin: miter; stroke-linecap: square"/>
   </g>
   <g id="text_8">
    <text style="font: 6.94px 'Arial', sans-serif" transform="translate(10.097767 321.385533) rotate(-35)">-0.1s Sampling</text>
   </g>
   <g id="text_9">
    <text style="font: 6.94px 'Arial', sans-serif" transform="translate(57.794497 311.430872) rotate(-35)">Sampling</text>
   </g>
   <g id="text_10">
    <text style="font: 6.94px 'Arial', sans-serif" transform="translate(319.037191 339.456682) rotate(-35)">Movement to Lateral Port</text>
   </g>
   <g id="text_11">
    <text style="font: 8.33px 'Arial', sans-serif; text-anchor: middle" x="227.411283" y="13.26398" transform="rotate(-0 227.411283 13.26398)">GP4_85_s7_L70_D250_ALM - Trace:226_GP4_85_s7_L70_D250_ALM (when: correct)</text>
   </g>
   <g id="legend_1">
    <g id="patch_4">
     <path d="M 129.837052 354.133136 
L 324.985514 354.133136 
Q 326.373514 354.133136 326.373514 352.745136 
L 326.373514 343.45638 
Q 326.373514 342.06838 324.985514 342.06838 
L 129.837052 342.06838 
Q 128.449052 342.06838 128.449052 343.45638 
L 128.449052 352.745136 
Q 128.449052 354.133136 129.837052 354.133136 
z
" style="fill: #ffffff; opacity: 0.8; stroke: #cccccc; stroke-linejoin: miter"/>
    </g>
    <g id="line2d_10">
     <path d="M 131.225052 347.467483 
L 138.165052 347.467483 
L 145.105052 347.467483 
" style="fill: none; stroke: #1f77b4; stroke-width: 1.5; stroke-linecap: square"/>
    </g>
    <g id="text_12">
     <text style="font: 6.94px 'Arial', sans-serif; text-anchor: start" x="150.657052" y="349.896483" transform="rotate(-0 150.657052 349.896483)">DecisionRight (109 pts)</text>
    </g>
    <g id="line2d_11">
     <path d="M 236.664255 347.467483 
L 243.604255 347.467483 
L 250.544255 347.467483 
" style="fill: none; stroke: #ff7f0e; stroke-width: 1.5; stroke-linecap: square"/>
    </g>
    <g id="text_13">
     <text style="font: 6.94px 'Arial', sans-serif; text-anchor: start" x="256.096255" y="349.896483" transform="rotate(-0 256.096255 349.896483)">DecisionLeft (103 pts)</text>
    </g>
   </g>
  </g>
 </g>
 <defs>
  <clipPath id="p93df789b51">
   <rect x="48.851283" y="19.26398" width="357.12" height="266.112"/>
  </clipPath>
 </defs>
</svg>
