<?xml version="1.0" encoding="utf-8" standalone="no"?>
<!DOCTYPE svg PUBLIC "-//W3C//DTD SVG 1.1//EN"
  "http://www.w3.org/Graphics/SVG/1.1/DTD/svg11.dtd">
<svg xmlns:xlink="http://www.w3.org/1999/xlink" width="413.171283pt" height="361.333136pt" viewBox="0 0 413.171283 361.333136" xmlns="http://www.w3.org/2000/svg" version="1.1">
 <metadata>
  <rdf:RDF xmlns:dc="http://purl.org/dc/elements/1.1/" xmlns:cc="http://creativecommons.org/ns#" xmlns:rdf="http://www.w3.org/1999/02/22-rdf-syntax-ns#">
   <cc:Work>
    <dc:type rdf:resource="http://purl.org/dc/dcmitype/StillImage"/>
    <dc:date>2025-12-29T04:08:00.635877</dc:date>
    <dc:format>image/svg+xml</dc:format>
    <dc:creator>
     <cc:Agent>
      <dc:title>Matplotlib v3.8.0, https://matplotlib.org/</dc:title>
     </cc:Agent>
    </dc:creator>
   </cc:Work>
  </rdf:RDF>
 </metadata>
 <defs>
  <style type="text/css">*{stroke-linejoin: round; stroke-linecap: butt}</style>
 </defs>
 <g id="figure_1">
  <g id="patch_1">
   <path d="M 0 361.333136 
L 413.171283 361.333136 
L 413.171283 -0 
L 0 -0 
z
" style="fill: #ffffff"/>
  </g>
  <g id="axes_1">
   <g id="patch_2">
    <path d="M 48.851283 285.37598 
L 405.971283 285.37598 
L 405.971283 19.26398 
L 48.851283 19.26398 
z
" style="fill: #ffffff"/>
   </g>
   <g id="PolyCollection_1">
    <defs>
     <path id="ma92134581a" d="M 48.851283 -114.091634 
L 48.851283 -102.127714 
L 60.011283 -99.398603 
L 71.171283 -97.371316 
L 82.331283 -93.622165 
L 93.491283 -88.053156 
L 104.651283 -91.669738 
L 115.811283 -109.554959 
L 126.971283 -139.420979 
L 138.131283 -173.740205 
L 149.291283 -194.078216 
L 160.451283 -212.269525 
L 171.611283 -235.506451 
L 182.771283 -258.212244 
L 193.931283 -271.419847 
L 205.091283 -278.651643 
L 216.251283 -274.690787 
L 227.411283 -274.260786 
L 238.571283 -272.182053 
L 249.731283 -261.147453 
L 260.891283 -256.797346 
L 272.051283 -246.788869 
L 283.211283 -236.779242 
L 294.371283 -229.912836 
L 305.531283 -223.566 
L 316.691283 -212.585748 
L 327.851283 -206.046332 
L 339.011283 -200.170862 
L 350.171283 -195.189801 
L 361.331283 -185.227776 
L 372.491283 -173.419804 
L 383.651283 -168.980168 
L 394.811283 -169.87929 
L 405.971283 -170.440612 
L 405.971283 -194.46409 
L 405.971283 -194.46409 
L 394.811283 -193.01861 
L 383.651283 -191.913217 
L 372.491283 -197.886865 
L 361.331283 -212.434422 
L 350.171283 -225.819118 
L 339.011283 -233.487094 
L 327.851283 -241.745311 
L 316.691283 -250.016299 
L 305.531283 -262.940082 
L 294.371283 -271.276696 
L 283.211283 -278.18055 
L 272.051283 -288.854858 
L 260.891283 -299.479539 
L 249.731283 -305.643275 
L 238.571283 -318.738099 
L 227.411283 -321.99223 
L 216.251283 -323.496749 
L 205.091283 -329.973156 
L 193.931283 -323.540548 
L 182.771283 -309.096057 
L 171.611283 -282.971074 
L 160.451283 -258.122479 
L 149.291283 -240.237725 
L 138.131283 -219.445525 
L 126.971283 -181.633377 
L 115.811283 -148.088312 
L 104.651283 -120.478858 
L 93.491283 -104.067702 
L 82.331283 -105.173932 
L 71.171283 -108.488635 
L 60.011283 -111.066154 
L 48.851283 -114.091634 
z
" style="stroke: #1f77b4; stroke-opacity: 0.2"/>
    </defs>
    <g clip-path="url(#p1fc93da314)">
     <use xlink:href="#ma92134581a" x="0" y="361.333136" style="fill: #1f77b4; fill-opacity: 0.2; stroke: #1f77b4; stroke-opacity: 0.2"/>
    </g>
   </g>
   <g id="PolyCollection_2">
    <defs>
     <path id="me9bc560287" d="M 48.851283 -122.935446 
L 48.851283 -108.267258 
L 60.011283 -106.69595 
L 71.171283 -100.419949 
L 82.331283 -93.706799 
L 93.491283 -88.568017 
L 104.651283 -94.442155 
L 115.811283 -102.635703 
L 126.971283 -118.188276 
L 138.131283 -153.321819 
L 149.291283 -184.105421 
L 160.451283 -208.336306 
L 171.611283 -226.72845 
L 182.771283 -246.002992 
L 193.931283 -256.004327 
L 205.091283 -254.767781 
L 216.251283 -253.068542 
L 227.411283 -248.015963 
L 238.571283 -243.558085 
L 249.731283 -238.006533 
L 260.891283 -232.945689 
L 272.051283 -233.953007 
L 283.211283 -234.595662 
L 294.371283 -227.772147 
L 305.531283 -221.699066 
L 316.691283 -220.965792 
L 327.851283 -216.434823 
L 339.011283 -214.952267 
L 350.171283 -205.82464 
L 361.331283 -199.139892 
L 372.491283 -197.151949 
L 383.651283 -191.456711 
L 394.811283 -186.860085 
L 405.971283 -181.323584 
L 405.971283 -210.257228 
L 405.971283 -210.257228 
L 394.811283 -215.258786 
L 383.651283 -220.410807 
L 372.491283 -227.573479 
L 361.331283 -231.596481 
L 350.171283 -240.105888 
L 339.011283 -251.214298 
L 327.851283 -253.844724 
L 316.691283 -258.953171 
L 305.531283 -259.819802 
L 294.371283 -268.210512 
L 283.211283 -278.891682 
L 272.051283 -277.806759 
L 260.891283 -276.925513 
L 249.731283 -284.174928 
L 238.571283 -293.135643 
L 227.411283 -299.505944 
L 216.251283 -304.158668 
L 205.091283 -307.058668 
L 193.931283 -309.699976 
L 182.771283 -299.223383 
L 171.611283 -279.87594 
L 160.451283 -261.687554 
L 149.291283 -233.871525 
L 138.131283 -194.709781 
L 126.971283 -153.477476 
L 115.811283 -132.07286 
L 104.651283 -115.964558 
L 93.491283 -104.943017 
L 82.331283 -109.153396 
L 71.171283 -116.436039 
L 60.011283 -122.702496 
L 48.851283 -122.935446 
z
" style="stroke: #ff7f0e; stroke-opacity: 0.2"/>
    </defs>
    <g clip-path="url(#p1fc93da314)">
     <use xlink:href="#me9bc560287" x="0" y="361.333136" style="fill: #ff7f0e; fill-opacity: 0.2; stroke: #ff7f0e; stroke-opacity: 0.2"/>
    </g>
   </g>
   <g id="matplotlib.axis_1">
    <g id="text_1">
     <text style="font: 10px 'Arial', sans-serif; text-anchor: middle" x="227.411283" y="296.533792" transform="rotate(-0 227.411283 296.533792)">Time</text>
    </g>
   </g>
   <g id="matplotlib.axis_2">
    <g id="ytick_1">
     <g id="line2d_1">
      <defs>
       <path id="m423b5e7faa" d="M 0 0 
L -3.5 0 
" style="stroke: #000000; stroke-width: 0.8"/>
      </defs>
      <g>
       <use xlink:href="#m423b5e7faa" x="48.851283" y="256.320142" style="stroke: #000000; stroke-width: 0.8"/>
      </g>
     </g>
     <g id="text_2">
      <text style="font: 10px 'Arial', sans-serif; text-anchor: end" x="41.851283" y="259.899048" transform="rotate(-0 41.851283 259.899048)">−0.2</text>
     </g>
    </g>
    <g id="ytick_2">
     <g id="line2d_2">
      <g>
       <use xlink:href="#m423b5e7faa" x="48.851283" y="226.142674" style="stroke: #000000; stroke-width: 0.8"/>
      </g>
     </g>
     <g id="text_3">
      <text style="font: 10px 'Arial', sans-serif; text-anchor: end" x="41.851283" y="229.72158" transform="rotate(-0 41.851283 229.72158)">0.0</text>
     </g>
    </g>
    <g id="ytick_3">
     <g id="line2d_3">
      <g>
       <use xlink:href="#m423b5e7faa" x="48.851283" y="195.965206" style="stroke: #000000; stroke-width: 0.8"/>
      </g>
     </g>
     <g id="text_4">
      <text style="font: 10px 'Arial', sans-serif; text-anchor: end" x="41.851283" y="199.544113" transform="rotate(-0 41.851283 199.544113)">0.2</text>
     </g>
    </g>
    <g id="ytick_4">
     <g id="line2d_4">
      <g>
       <use xlink:href="#m423b5e7faa" x="48.851283" y="165.787739" style="stroke: #000000; stroke-width: 0.8"/>
      </g>
     </g>
     <g id="text_5">
      <text style="font: 10px 'Arial', sans-serif; text-anchor: end" x="41.851283" y="169.366645" transform="rotate(-0 41.851283 169.366645)">0.4</text>
     </g>
    </g>
    <g id="ytick_5">
     <g id="line2d_5">
      <g>
       <use xlink:href="#m423b5e7faa" x="48.851283" y="135.610271" style="stroke: #000000; stroke-width: 0.8"/>
      </g>
     </g>
     <g id="text_6">
      <text style="font: 10px 'Arial', sans-serif; text-anchor: end" x="41.851283" y="139.189177" transform="rotate(-0 41.851283 139.189177)">0.6</text>
     </g>
    </g>
    <g id="ytick_6">
     <g id="line2d_6">
      <g>
       <use xlink:href="#m423b5e7faa" x="48.851283" y="105.432803" style="stroke: #000000; stroke-width: 0.8"/>
      </g>
     </g>
     <g id="text_7">
      <text style="font: 10px 'Arial', sans-serif; text-anchor: end" x="41.851283" y="109.01171" transform="rotate(-0 41.851283 109.01171)">0.8</text>
     </g>
    </g>
    <g id="ytick_7">
     <g id="line2d_7">
      <g>
       <use xlink:href="#m423b5e7faa" x="48.851283" y="75.255336" style="stroke: #000000; stroke-width: 0.8"/>
      </g>
     </g>
     <g id="text_8">
      <text style="font: 10px 'Arial', sans-serif; text-anchor: end" x="41.851283" y="78.834242" transform="rotate(-0 41.851283 78.834242)">1.0</text>
     </g>
    </g>
    <g id="ytick_8">
     <g id="line2d_8">
      <g>
       <use xlink:href="#m423b5e7faa" x="48.851283" y="45.077868" style="stroke: #000000; stroke-width: 0.8"/>
      </g>
     </g>
     <g id="text_9">
      <text style="font: 10px 'Arial', sans-serif; text-anchor: end" x="41.851283" y="48.656774" transform="rotate(-0 41.851283 48.656774)">1.2</text>
     </g>
    </g>
    <g id="text_10">
     <text style="font: 10px 'Arial', sans-serif; text-anchor: middle" x="16.005971" y="152.31998" transform="rotate(-90 16.005971 152.31998)">Activity</text>
    </g>
   </g>
   <g id="line2d_9">
    <path d="M 48.851283 253.223462 
L 60.011283 256.100757 
L 71.171283 258.40316 
L 82.331283 261.935088 
L 93.491283 265.272707 
L 104.651283 255.258838 
L 115.811283 232.511501 
L 126.971283 200.805957 
L 138.131283 164.740268 
L 149.291283 144.175165 
L 160.451283 126.137134 
L 171.611283 102.094373 
L 182.771283 77.67899 
L 193.931283 63.852943 
L 205.091283 57.020732 
L 216.251283 62.239368 
L 227.411283 63.206628 
L 238.571283 65.873065 
L 249.731283 77.937772 
L 260.891283 83.194694 
L 272.051283 93.511272 
L 283.211283 103.85324 
L 294.371283 110.73837 
L 305.531283 118.080095 
L 316.691283 130.032113 
L 327.851283 137.437315 
L 339.011283 144.50416 
L 350.171283 150.828674 
L 361.331283 162.502035 
L 372.491283 175.679801 
L 383.651283 180.886445 
L 394.811283 179.884186 
L 405.971283 178.880785 
" clip-path="url(#p1fc93da314)" style="fill: none; stroke: #1f77b4; stroke-width: 1.5; stroke-linecap: square"/>
   </g>
   <g id="line2d_10">
    <path d="M 48.851283 245.731784 
L 60.011283 246.633913 
L 71.171283 252.905143 
L 82.331283 259.903039 
L 93.491283 264.577619 
L 104.651283 256.12978 
L 115.811283 243.978854 
L 126.971283 225.500261 
L 138.131283 187.317336 
L 149.291283 152.344665 
L 160.451283 126.321206 
L 171.611283 108.030941 
L 182.771283 88.719948 
L 193.931283 78.480984 
L 205.091283 80.419912 
L 216.251283 82.719536 
L 227.411283 87.572187 
L 238.571283 92.986272 
L 249.731283 100.242405 
L 260.891283 106.397535 
L 272.051283 105.453253 
L 283.211283 104.589464 
L 294.371283 113.341806 
L 305.531283 120.573702 
L 316.691283 121.373654 
L 327.851283 126.193362 
L 339.011283 128.249854 
L 350.171283 138.367872 
L 361.331283 145.964952 
L 372.491283 148.97042 
L 383.651283 155.399377 
L 394.811283 160.273703 
L 405.971283 165.54273 
" clip-path="url(#p1fc93da314)" style="fill: none; stroke: #ff7f0e; stroke-width: 1.5; stroke-linecap: square"/>
   </g>
   <g id="line2d_11">
    <path d="M 82.331283 285.37598 
L 82.331283 19.26398 
" clip-path="url(#p1fc93da314)" style="fill: none; stroke-dasharray: 5.55,2.4; stroke-dashoffset: 0; stroke: #000000; stroke-opacity: 0.5; stroke-width: 1.5"/>
   </g>
   <g id="line2d_12">
    <path d="M 383.651283 285.37598 
L 383.651283 19.26398 
" clip-path="url(#p1fc93da314)" style="fill: none; stroke-dasharray: 5.55,2.4; stroke-dashoffset: 0; stroke: #000000; stroke-opacity: 0.5; stroke-width: 1.5"/>
   </g>
   <g id="patch_3">
    <path d="M 48.851283 285.37598 
L 405.971283 285.37598 
" style="fill: none; stroke: #000000; stroke-width: 0.8; stroke-linejoin: miter; stroke-linecap: square"/>
   </g>
   <g id="text_11">
    <text style="font: 6.94px 'Arial', sans-serif" transform="translate(10.097767 321.385533) rotate(-35)">-0.1s Sampling</text>
   </g>
   <g id="text_12">
    <text style="font: 6.94px 'Arial', sans-serif" transform="translate(57.794497 311.430872) rotate(-35)">Sampling</text>
   </g>
   <g id="text_13">
    <text style="font: 6.94px 'Arial', sans-serif" transform="translate(319.037191 339.456682) rotate(-35)">Movement to Lateral Port</text>
   </g>
   <g id="text_14">
    <text style="font: 8.33px 'Arial', sans-serif; text-anchor: middle" x="227.411283" y="13.26398" transform="rotate(-0 227.411283 13.26398)">GP4_85_s7_L70_D250_ALM - Trace:29_GP4_85_s7_L70_D250_ALM (when: correct)</text>
   </g>
   <g id="legend_1">
    <g id="patch_4">
     <path d="M 129.837052 354.133136 
L 324.985514 354.133136 
Q 326.373514 354.133136 326.373514 352.745136 
L 326.373514 343.45638 
Q 326.373514 342.06838 324.985514 342.06838 
L 129.837052 342.06838 
Q 128.449052 342.06838 128.449052 343.45638 
L 128.449052 352.745136 
Q 128.449052 354.133136 129.837052 354.133136 
z
" style="fill: #ffffff; opacity: 0.8; stroke: #cccccc; stroke-linejoin: miter"/>
    </g>
    <g id="line2d_13">
     <path d="M 131.225052 347.467483 
L 138.165052 347.467483 
L 145.105052 347.467483 
" style="fill: none; stroke: #1f77b4; stroke-width: 1.5; stroke-linecap: square"/>
    </g>
    <g id="text_15">
     <text style="font: 6.94px 'Arial', sans-serif; text-anchor: start" x="150.657052" y="349.896483" transform="rotate(-0 150.657052 349.896483)">DecisionRight (109 pts)</text>
    </g>
    <g id="line2d_14">
     <path d="M 236.664255 347.467483 
L 243.604255 347.467483 
L 250.544255 347.467483 
" style="fill: none; stroke: #ff7f0e; stroke-width: 1.5; stroke-linecap: square"/>
    </g>
    <g id="text_16">
     <text style="font: 6.94px 'Arial', sans-serif; text-anchor: start" x="256.096255" y="349.896483" transform="rotate(-0 256.096255 349.896483)">DecisionLeft (103 pts)</text>
    </g>
   </g>
  </g>
 </g>
 <defs>
  <clipPath id="p1fc93da314">
   <rect x="48.851283" y="19.26398" width="357.12" height="266.112"/>
  </clipPath>
 </defs>
</svg>
