<?xml version="1.0" encoding="utf-8" standalone="no"?>
<!DOCTYPE svg PUBLIC "-//W3C//DTD SVG 1.1//EN"
  "http://www.w3.org/Graphics/SVG/1.1/DTD/svg11.dtd">
<svg xmlns:xlink="http://www.w3.org/1999/xlink" width="413.171283pt" height="361.333136pt" viewBox="0 0 413.171283 361.333136" xmlns="http://www.w3.org/2000/svg" version="1.1">
 <metadata>
  <rdf:RDF xmlns:dc="http://purl.org/dc/elements/1.1/" xmlns:cc="http://creativecommons.org/ns#" xmlns:rdf="http://www.w3.org/1999/02/22-rdf-syntax-ns#">
   <cc:Work>
    <dc:type rdf:resource="http://purl.org/dc/dcmitype/StillImage"/>
    <dc:date>2025-12-29T04:07:59.113037</dc:date>
    <dc:format>image/svg+xml</dc:format>
    <dc:creator>
     <cc:Agent>
      <dc:title>Matplotlib v3.8.0, https://matplotlib.org/</dc:title>
     </cc:Agent>
    </dc:creator>
   </cc:Work>
  </rdf:RDF>
 </metadata>
 <defs>
  <style type="text/css">*{stroke-linejoin: round; stroke-linecap: butt}</style>
 </defs>
 <g id="figure_1">
  <g id="patch_1">
   <path d="M 0 361.333136 
L 413.171283 361.333136 
L 413.171283 -0 
L 0 -0 
z
" style="fill: #ffffff"/>
  </g>
  <g id="axes_1">
   <g id="patch_2">
    <path d="M 48.851283 285.37598 
L 405.971283 285.37598 
L 405.971283 19.26398 
L 48.851283 19.26398 
z
" style="fill: #ffffff"/>
   </g>
   <g id="PolyCollection_1">
    <defs>
     <path id="m9dbe689ee3" d="M 48.851283 -164.55451 
L 48.851283 -128.742309 
L 60.011283 -121.583121 
L 71.171283 -124.97621 
L 82.331283 -140.726146 
L 93.491283 -149.422191 
L 104.651283 -189.45103 
L 115.811283 -215.379607 
L 126.971283 -228.85837 
L 138.131283 -238.526063 
L 149.291283 -243.048044 
L 160.451283 -248.449323 
L 171.611283 -246.144308 
L 182.771283 -225.55831 
L 193.931283 -222.161981 
L 205.091283 -227.70825 
L 216.251283 -218.321636 
L 227.411283 -193.087571 
L 238.571283 -189.11942 
L 249.731283 -175.968651 
L 260.891283 -156.466629 
L 272.051283 -145.444311 
L 283.211283 -136.241796 
L 294.371283 -131.35109 
L 305.531283 -119.215184 
L 316.691283 -114.591284 
L 327.851283 -117.933666 
L 339.011283 -113.194089 
L 350.171283 -99.742336 
L 361.331283 -93.65545 
L 372.491283 -105.454142 
L 383.651283 -92.206466 
L 394.811283 -88.053156 
L 405.971283 -97.451977 
L 405.971283 -125.652673 
L 405.971283 -125.652673 
L 394.811283 -115.454085 
L 383.651283 -118.820444 
L 372.491283 -132.284091 
L 361.331283 -120.787074 
L 350.171283 -129.609602 
L 339.011283 -147.380927 
L 327.851283 -152.051006 
L 316.691283 -149.187161 
L 305.531283 -154.73692 
L 294.371283 -169.460619 
L 283.211283 -178.943123 
L 272.051283 -192.477826 
L 260.891283 -206.21246 
L 249.731283 -230.312199 
L 238.571283 -247.1169 
L 227.411283 -255.28913 
L 216.251283 -285.555885 
L 205.091283 -298.735002 
L 193.931283 -296.930335 
L 182.771283 -301.403176 
L 171.611283 -326.235717 
L 160.451283 -329.973156 
L 149.291283 -319.696764 
L 138.131283 -311.513315 
L 126.971283 -299.06335 
L 115.811283 -284.973206 
L 104.651283 -248.590994 
L 93.491283 -192.334568 
L 82.331283 -177.442454 
L 71.171283 -163.728684 
L 60.011283 -157.955371 
L 48.851283 -164.55451 
z
" style="stroke: #1f77b4; stroke-opacity: 0.2"/>
    </defs>
    <g clip-path="url(#p16409f112c)">
     <use xlink:href="#m9dbe689ee3" x="0" y="361.333136" style="fill: #1f77b4; fill-opacity: 0.2; stroke: #1f77b4; stroke-opacity: 0.2"/>
    </g>
   </g>
   <g id="PolyCollection_2">
    <defs>
     <path id="mdb8afac2c0" d="M 48.851283 -166.597341 
L 48.851283 -136.9235 
L 60.011283 -133.928706 
L 71.171283 -126.648959 
L 82.331283 -124.024431 
L 93.491283 -154.421589 
L 104.651283 -179.175445 
L 115.811283 -200.435522 
L 126.971283 -212.960446 
L 138.131283 -227.000409 
L 149.291283 -239.479192 
L 160.451283 -234.340678 
L 171.611283 -220.4415 
L 182.771283 -217.938379 
L 193.931283 -210.080595 
L 205.091283 -203.125406 
L 216.251283 -180.337531 
L 227.411283 -170.463615 
L 238.571283 -170.957664 
L 249.731283 -170.728014 
L 260.891283 -156.264638 
L 272.051283 -145.104356 
L 283.211283 -136.342551 
L 294.371283 -141.280436 
L 305.531283 -128.387287 
L 316.691283 -133.556934 
L 327.851283 -130.062516 
L 339.011283 -125.639694 
L 350.171283 -122.830078 
L 361.331283 -117.800857 
L 372.491283 -110.380815 
L 383.651283 -109.755108 
L 394.811283 -115.20832 
L 405.971283 -113.022413 
L 405.971283 -142.103888 
L 405.971283 -142.103888 
L 394.811283 -147.916288 
L 383.651283 -144.919497 
L 372.491283 -146.786813 
L 361.331283 -153.356416 
L 350.171283 -159.233173 
L 339.011283 -164.964099 
L 327.851283 -171.891102 
L 316.691283 -176.668981 
L 305.531283 -171.264344 
L 294.371283 -183.954189 
L 283.211283 -180.898162 
L 272.051283 -193.594966 
L 260.891283 -209.15703 
L 249.731283 -225.507378 
L 238.571283 -229.507361 
L 227.411283 -234.048897 
L 216.251283 -244.394929 
L 205.091283 -268.830153 
L 193.931283 -278.982244 
L 182.771283 -289.609289 
L 171.611283 -289.958521 
L 160.451283 -304.51429 
L 149.291283 -309.95793 
L 138.131283 -298.278972 
L 126.971283 -280.962564 
L 115.811283 -269.369813 
L 104.651283 -243.689666 
L 93.491283 -204.352184 
L 82.331283 -166.933095 
L 71.171283 -160.789563 
L 60.011283 -165.205397 
L 48.851283 -166.597341 
z
" style="stroke: #ff7f0e; stroke-opacity: 0.2"/>
    </defs>
    <g clip-path="url(#p16409f112c)">
     <use xlink:href="#mdb8afac2c0" x="0" y="361.333136" style="fill: #ff7f0e; fill-opacity: 0.2; stroke: #ff7f0e; stroke-opacity: 0.2"/>
    </g>
   </g>
   <g id="matplotlib.axis_1">
    <g id="text_1">
     <text style="font: 10px 'Arial', sans-serif; text-anchor: middle" x="227.411283" y="296.533792" transform="rotate(-0 227.411283 296.533792)">Time</text>
    </g>
   </g>
   <g id="matplotlib.axis_2">
    <g id="ytick_1">
     <g id="line2d_1">
      <defs>
       <path id="mae86d46c45" d="M 0 0 
L -3.5 0 
" style="stroke: #000000; stroke-width: 0.8"/>
      </defs>
      <g>
       <use xlink:href="#mae86d46c45" x="48.851283" y="279.988324" style="stroke: #000000; stroke-width: 0.8"/>
      </g>
     </g>
     <g id="text_2">
      <text style="font: 10px 'Arial', sans-serif; text-anchor: end" x="41.851283" y="283.56723" transform="rotate(-0 41.851283 283.56723)">−0.3</text>
     </g>
    </g>
    <g id="ytick_2">
     <g id="line2d_2">
      <g>
       <use xlink:href="#mae86d46c45" x="48.851283" y="250.372068" style="stroke: #000000; stroke-width: 0.8"/>
      </g>
     </g>
     <g id="text_3">
      <text style="font: 10px 'Arial', sans-serif; text-anchor: end" x="41.851283" y="253.950974" transform="rotate(-0 41.851283 253.950974)">−0.2</text>
     </g>
    </g>
    <g id="ytick_3">
     <g id="line2d_3">
      <g>
       <use xlink:href="#mae86d46c45" x="48.851283" y="220.755812" style="stroke: #000000; stroke-width: 0.8"/>
      </g>
     </g>
     <g id="text_4">
      <text style="font: 10px 'Arial', sans-serif; text-anchor: end" x="41.851283" y="224.334718" transform="rotate(-0 41.851283 224.334718)">−0.1</text>
     </g>
    </g>
    <g id="ytick_4">
     <g id="line2d_4">
      <g>
       <use xlink:href="#mae86d46c45" x="48.851283" y="191.139556" style="stroke: #000000; stroke-width: 0.8"/>
      </g>
     </g>
     <g id="text_5">
      <text style="font: 10px 'Arial', sans-serif; text-anchor: end" x="41.851283" y="194.718462" transform="rotate(-0 41.851283 194.718462)">0.0</text>
     </g>
    </g>
    <g id="ytick_5">
     <g id="line2d_5">
      <g>
       <use xlink:href="#mae86d46c45" x="48.851283" y="161.5233" style="stroke: #000000; stroke-width: 0.8"/>
      </g>
     </g>
     <g id="text_6">
      <text style="font: 10px 'Arial', sans-serif; text-anchor: end" x="41.851283" y="165.102207" transform="rotate(-0 41.851283 165.102207)">0.1</text>
     </g>
    </g>
    <g id="ytick_6">
     <g id="line2d_6">
      <g>
       <use xlink:href="#mae86d46c45" x="48.851283" y="131.907044" style="stroke: #000000; stroke-width: 0.8"/>
      </g>
     </g>
     <g id="text_7">
      <text style="font: 10px 'Arial', sans-serif; text-anchor: end" x="41.851283" y="135.485951" transform="rotate(-0 41.851283 135.485951)">0.2</text>
     </g>
    </g>
    <g id="ytick_7">
     <g id="line2d_7">
      <g>
       <use xlink:href="#mae86d46c45" x="48.851283" y="102.290788" style="stroke: #000000; stroke-width: 0.8"/>
      </g>
     </g>
     <g id="text_8">
      <text style="font: 10px 'Arial', sans-serif; text-anchor: end" x="41.851283" y="105.869695" transform="rotate(-0 41.851283 105.869695)">0.3</text>
     </g>
    </g>
    <g id="ytick_8">
     <g id="line2d_8">
      <g>
       <use xlink:href="#mae86d46c45" x="48.851283" y="72.674533" style="stroke: #000000; stroke-width: 0.8"/>
      </g>
     </g>
     <g id="text_9">
      <text style="font: 10px 'Arial', sans-serif; text-anchor: end" x="41.851283" y="76.253439" transform="rotate(-0 41.851283 76.253439)">0.4</text>
     </g>
    </g>
    <g id="ytick_9">
     <g id="line2d_9">
      <g>
       <use xlink:href="#mae86d46c45" x="48.851283" y="43.058277" style="stroke: #000000; stroke-width: 0.8"/>
      </g>
     </g>
     <g id="text_10">
      <text style="font: 10px 'Arial', sans-serif; text-anchor: end" x="41.851283" y="46.637183" transform="rotate(-0 41.851283 46.637183)">0.5</text>
     </g>
    </g>
    <g id="text_11">
     <text style="font: 10px 'Arial', sans-serif; text-anchor: middle" x="16.005971" y="152.31998" transform="rotate(-90 16.005971 152.31998)">Activity</text>
    </g>
   </g>
   <g id="line2d_10">
    <path d="M 48.851283 214.684726 
L 60.011283 221.56389 
L 71.171283 216.980689 
L 82.331283 202.248836 
L 93.491283 190.454757 
L 104.651283 142.312124 
L 115.811283 111.15673 
L 126.971283 97.372276 
L 138.131283 86.313447 
L 149.291283 79.96073 
L 160.451283 72.121896 
L 171.611283 75.143123 
L 182.771283 97.852393 
L 193.931283 101.786978 
L 205.091283 98.111508 
L 216.251283 109.394376 
L 227.411283 137.144788 
L 238.571283 143.214978 
L 249.731283 158.192712 
L 260.891283 179.993592 
L 272.051283 192.372068 
L 283.211283 203.740677 
L 294.371283 210.927281 
L 305.531283 224.357084 
L 316.691283 229.443913 
L 327.851283 226.3408 
L 339.011283 231.045628 
L 350.171283 246.657167 
L 361.331283 254.111874 
L 372.491283 242.46402 
L 383.651283 255.819681 
L 394.811283 259.579518 
L 405.971283 249.780811 
" clip-path="url(#p16409f112c)" style="fill: none; stroke: #1f77b4; stroke-width: 1.5; stroke-linecap: square"/>
   </g>
   <g id="line2d_11">
    <path d="M 48.851283 209.572715 
L 60.011283 211.766085 
L 71.171283 217.613874 
L 82.331283 215.854372 
L 93.491283 181.946249 
L 104.651283 149.900581 
L 115.811283 126.430468 
L 126.971283 114.371633 
L 138.131283 98.693446 
L 149.291283 86.614575 
L 160.451283 91.905652 
L 171.611283 106.133126 
L 182.771283 107.559302 
L 193.931283 116.801716 
L 205.091283 125.355354 
L 216.251283 148.966905 
L 227.411283 159.076881 
L 238.571283 161.100622 
L 249.731283 163.21544 
L 260.891283 178.622303 
L 272.051283 191.983476 
L 283.211283 202.71278 
L 294.371283 198.715823 
L 305.531283 211.507321 
L 316.691283 206.220179 
L 327.851283 210.356328 
L 339.011283 216.031238 
L 350.171283 220.30151 
L 361.331283 225.7545 
L 372.491283 232.749322 
L 383.651283 233.995834 
L 394.811283 229.770832 
L 405.971283 233.769985 
" clip-path="url(#p16409f112c)" style="fill: none; stroke: #ff7f0e; stroke-width: 1.5; stroke-linecap: square"/>
   </g>
   <g id="line2d_12">
    <path d="M 82.331283 285.37598 
L 82.331283 19.26398 
" clip-path="url(#p16409f112c)" style="fill: none; stroke-dasharray: 5.55,2.4; stroke-dashoffset: 0; stroke: #000000; stroke-opacity: 0.5; stroke-width: 1.5"/>
   </g>
   <g id="line2d_13">
    <path d="M 383.651283 285.37598 
L 383.651283 19.26398 
" clip-path="url(#p16409f112c)" style="fill: none; stroke-dasharray: 5.55,2.4; stroke-dashoffset: 0; stroke: #000000; stroke-opacity: 0.5; stroke-width: 1.5"/>
   </g>
   <g id="patch_3">
    <path d="M 48.851283 285.37598 
L 405.971283 285.37598 
" style="fill: none; stroke: #000000; stroke-width: 0.8; stroke-linejoin: miter; stroke-linecap: square"/>
   </g>
   <g id="text_12">
    <text style="font: 6.94px 'Arial', sans-serif" transform="translate(10.097767 321.385533) rotate(-35)">-0.1s Sampling</text>
   </g>
   <g id="text_13">
    <text style="font: 6.94px 'Arial', sans-serif" transform="translate(57.794497 311.430872) rotate(-35)">Sampling</text>
   </g>
   <g id="text_14">
    <text style="font: 6.94px 'Arial', sans-serif" transform="translate(319.037191 339.456682) rotate(-35)">Movement to Lateral Port</text>
   </g>
   <g id="text_15">
    <text style="font: 8.33px 'Arial', sans-serif; text-anchor: middle" x="227.411283" y="13.26398" transform="rotate(-0 227.411283 13.26398)">GP4_85_s7_L70_D250_ALM - Trace:34_GP4_85_s7_L70_D250_ALM (when: correct)</text>
   </g>
   <g id="legend_1">
    <g id="patch_4">
     <path d="M 129.837052 354.133136 
L 324.985514 354.133136 
Q 326.373514 354.133136 326.373514 352.745136 
L 326.373514 343.45638 
Q 326.373514 342.06838 324.985514 342.06838 
L 129.837052 342.06838 
Q 128.449052 342.06838 128.449052 343.45638 
L 128.449052 352.745136 
Q 128.449052 354.133136 129.837052 354.133136 
z
" style="fill: #ffffff; opacity: 0.8; stroke: #cccccc; stroke-linejoin: miter"/>
    </g>
    <g id="line2d_14">
     <path d="M 131.225052 347.467483 
L 138.165052 347.467483 
L 145.105052 347.467483 
" style="fill: none; stroke: #1f77b4; stroke-width: 1.5; stroke-linecap: square"/>
    </g>
    <g id="text_16">
     <text style="font: 6.94px 'Arial', sans-serif; text-anchor: start" x="150.657052" y="349.896483" transform="rotate(-0 150.657052 349.896483)">DecisionRight (109 pts)</text>
    </g>
    <g id="line2d_15">
     <path d="M 236.664255 347.467483 
L 243.604255 347.467483 
L 250.544255 347.467483 
" style="fill: none; stroke: #ff7f0e; stroke-width: 1.5; stroke-linecap: square"/>
    </g>
    <g id="text_17">
     <text style="font: 6.94px 'Arial', sans-serif; text-anchor: start" x="256.096255" y="349.896483" transform="rotate(-0 256.096255 349.896483)">DecisionLeft (103 pts)</text>
    </g>
   </g>
  </g>
 </g>
 <defs>
  <clipPath id="p16409f112c">
   <rect x="48.851283" y="19.26398" width="357.12" height="266.112"/>
  </clipPath>
 </defs>
</svg>
