<?xml version="1.0" encoding="utf-8" standalone="no"?>
<!DOCTYPE svg PUBLIC "-//W3C//DTD SVG 1.1//EN"
  "http://www.w3.org/Graphics/SVG/1.1/DTD/svg11.dtd">
<svg xmlns:xlink="http://www.w3.org/1999/xlink" width="413.171283pt" height="361.333136pt" viewBox="0 0 413.171283 361.333136" xmlns="http://www.w3.org/2000/svg" version="1.1">
 <metadata>
  <rdf:RDF xmlns:dc="http://purl.org/dc/elements/1.1/" xmlns:cc="http://creativecommons.org/ns#" xmlns:rdf="http://www.w3.org/1999/02/22-rdf-syntax-ns#">
   <cc:Work>
    <dc:type rdf:resource="http://purl.org/dc/dcmitype/StillImage"/>
    <dc:date>2025-12-29T04:07:58.224711</dc:date>
    <dc:format>image/svg+xml</dc:format>
    <dc:creator>
     <cc:Agent>
      <dc:title>Matplotlib v3.8.0, https://matplotlib.org/</dc:title>
     </cc:Agent>
    </dc:creator>
   </cc:Work>
  </rdf:RDF>
 </metadata>
 <defs>
  <style type="text/css">*{stroke-linejoin: round; stroke-linecap: butt}</style>
 </defs>
 <g id="figure_1">
  <g id="patch_1">
   <path d="M 0 361.333136 
L 413.171283 361.333136 
L 413.171283 -0 
L 0 -0 
z
" style="fill: #ffffff"/>
  </g>
  <g id="axes_1">
   <g id="patch_2">
    <path d="M 48.851283 285.37598 
L 405.971283 285.37598 
L 405.971283 19.26398 
L 48.851283 19.26398 
z
" style="fill: #ffffff"/>
   </g>
   <g id="PolyCollection_1">
    <defs>
     <path id="m1f06b4514d" d="M 48.851283 -180.272984 
L 48.851283 -144.595673 
L 60.011283 -153.258429 
L 71.171283 -174.562935 
L 82.331283 -223.409533 
L 93.491283 -268.327288 
L 104.651283 -275.774691 
L 115.811283 -279.881919 
L 126.971283 -268.722989 
L 138.131283 -257.741788 
L 149.291283 -242.105985 
L 160.451283 -233.310093 
L 171.611283 -211.259349 
L 182.771283 -186.876521 
L 193.931283 -178.794567 
L 205.091283 -173.927394 
L 216.251283 -163.608876 
L 227.411283 -157.521201 
L 238.571283 -148.723751 
L 249.731283 -138.590137 
L 260.891283 -134.659428 
L 272.051283 -121.563906 
L 283.211283 -118.346199 
L 294.371283 -114.719474 
L 305.531283 -107.791002 
L 316.691283 -96.901618 
L 327.851283 -99.366666 
L 339.011283 -97.219969 
L 350.171283 -91.155127 
L 361.331283 -91.819179 
L 372.491283 -97.058701 
L 383.651283 -99.449941 
L 394.811283 -96.466939 
L 405.971283 -101.26044 
L 405.971283 -126.882519 
L 405.971283 -126.882519 
L 394.811283 -121.241704 
L 383.651283 -122.730051 
L 372.491283 -117.958483 
L 361.331283 -112.650065 
L 350.171283 -115.560629 
L 339.011283 -121.632086 
L 327.851283 -124.170732 
L 316.691283 -121.842316 
L 305.531283 -132.699066 
L 294.371283 -140.647918 
L 283.211283 -144.828156 
L 272.051283 -149.528569 
L 260.891283 -162.520581 
L 249.731283 -166.366911 
L 238.571283 -178.185809 
L 227.411283 -189.263897 
L 216.251283 -197.503071 
L 205.091283 -207.220446 
L 193.931283 -212.129855 
L 182.771283 -222.541799 
L 171.611283 -248.307157 
L 160.451283 -274.634106 
L 149.291283 -284.833796 
L 138.131283 -302.474552 
L 126.971283 -314.620021 
L 115.811283 -324.717577 
L 104.651283 -318.538548 
L 93.491283 -307.57511 
L 82.331283 -257.362362 
L 71.171283 -209.258143 
L 60.011283 -189.874333 
L 48.851283 -180.272984 
z
" style="stroke: #1f77b4; stroke-opacity: 0.2"/>
    </defs>
    <g clip-path="url(#p45f9066b0a)">
     <use xlink:href="#m1f06b4514d" x="0" y="361.333136" style="fill: #1f77b4; fill-opacity: 0.2; stroke: #1f77b4; stroke-opacity: 0.2"/>
    </g>
   </g>
   <g id="PolyCollection_2">
    <defs>
     <path id="m4187cf62bf" d="M 48.851283 -188.661231 
L 48.851283 -158.373545 
L 60.011283 -162.446433 
L 71.171283 -175.103204 
L 82.331283 -213.361428 
L 93.491283 -263.54895 
L 104.651283 -284.471429 
L 115.811283 -291.675818 
L 126.971283 -279.818053 
L 138.131283 -265.775093 
L 149.291283 -261.982653 
L 160.451283 -249.957252 
L 171.611283 -231.639612 
L 182.771283 -215.123514 
L 193.931283 -197.903474 
L 205.091283 -184.713359 
L 216.251283 -173.829789 
L 227.411283 -160.643988 
L 238.571283 -153.642509 
L 249.731283 -154.53093 
L 260.891283 -157.476521 
L 272.051283 -145.496022 
L 283.211283 -130.212024 
L 294.371283 -123.073939 
L 305.531283 -114.177316 
L 316.691283 -103.735287 
L 327.851283 -106.869003 
L 339.011283 -94.069282 
L 350.171283 -88.053156 
L 361.331283 -93.580716 
L 372.491283 -97.543824 
L 383.651283 -104.975846 
L 394.811283 -106.22381 
L 405.971283 -109.393677 
L 405.971283 -136.642697 
L 405.971283 -136.642697 
L 394.811283 -132.44734 
L 383.651283 -131.339685 
L 372.491283 -124.529282 
L 361.331283 -120.37405 
L 350.171283 -115.115681 
L 339.011283 -122.489162 
L 327.851283 -135.912749 
L 316.691283 -132.749608 
L 305.531283 -142.694505 
L 294.371283 -150.8605 
L 283.211283 -159.464432 
L 272.051283 -175.63292 
L 260.891283 -190.619945 
L 249.731283 -189.07597 
L 238.571283 -189.088825 
L 227.411283 -196.280415 
L 216.251283 -208.485341 
L 205.091283 -217.149254 
L 193.931283 -232.944509 
L 182.771283 -253.31769 
L 171.611283 -270.489978 
L 160.451283 -289.498336 
L 149.291283 -301.652584 
L 138.131283 -304.991815 
L 126.971283 -318.566356 
L 115.811283 -329.973156 
L 104.651283 -321.274693 
L 93.491283 -296.07334 
L 82.331283 -244.629936 
L 71.171283 -207.352372 
L 60.011283 -193.325301 
L 48.851283 -188.661231 
z
" style="stroke: #ff7f0e; stroke-opacity: 0.2"/>
    </defs>
    <g clip-path="url(#p45f9066b0a)">
     <use xlink:href="#m4187cf62bf" x="0" y="361.333136" style="fill: #ff7f0e; fill-opacity: 0.2; stroke: #ff7f0e; stroke-opacity: 0.2"/>
    </g>
   </g>
   <g id="matplotlib.axis_1">
    <g id="text_1">
     <text style="font: 10px 'Arial', sans-serif; text-anchor: middle" x="227.411283" y="296.533792" transform="rotate(-0 227.411283 296.533792)">Time</text>
    </g>
   </g>
   <g id="matplotlib.axis_2">
    <g id="ytick_1">
     <g id="line2d_1">
      <defs>
       <path id="m2731695e33" d="M 0 0 
L -3.5 0 
" style="stroke: #000000; stroke-width: 0.8"/>
      </defs>
      <g>
       <use xlink:href="#m2731695e33" x="48.851283" y="276.192095" style="stroke: #000000; stroke-width: 0.8"/>
      </g>
     </g>
     <g id="text_2">
      <text style="font: 10px 'Arial', sans-serif; text-anchor: end" x="41.851283" y="279.771002" transform="rotate(-0 41.851283 279.771002)">−0.4</text>
     </g>
    </g>
    <g id="ytick_2">
     <g id="line2d_2">
      <g>
       <use xlink:href="#m2731695e33" x="48.851283" y="234.777479" style="stroke: #000000; stroke-width: 0.8"/>
      </g>
     </g>
     <g id="text_3">
      <text style="font: 10px 'Arial', sans-serif; text-anchor: end" x="41.851283" y="238.356386" transform="rotate(-0 41.851283 238.356386)">−0.3</text>
     </g>
    </g>
    <g id="ytick_3">
     <g id="line2d_3">
      <g>
       <use xlink:href="#m2731695e33" x="48.851283" y="193.362863" style="stroke: #000000; stroke-width: 0.8"/>
      </g>
     </g>
     <g id="text_4">
      <text style="font: 10px 'Arial', sans-serif; text-anchor: end" x="41.851283" y="196.941769" transform="rotate(-0 41.851283 196.941769)">−0.2</text>
     </g>
    </g>
    <g id="ytick_4">
     <g id="line2d_4">
      <g>
       <use xlink:href="#m2731695e33" x="48.851283" y="151.948247" style="stroke: #000000; stroke-width: 0.8"/>
      </g>
     </g>
     <g id="text_5">
      <text style="font: 10px 'Arial', sans-serif; text-anchor: end" x="41.851283" y="155.527153" transform="rotate(-0 41.851283 155.527153)">−0.1</text>
     </g>
    </g>
    <g id="ytick_5">
     <g id="line2d_5">
      <g>
       <use xlink:href="#m2731695e33" x="48.851283" y="110.533631" style="stroke: #000000; stroke-width: 0.8"/>
      </g>
     </g>
     <g id="text_6">
      <text style="font: 10px 'Arial', sans-serif; text-anchor: end" x="41.851283" y="114.112537" transform="rotate(-0 41.851283 114.112537)">0.0</text>
     </g>
    </g>
    <g id="ytick_6">
     <g id="line2d_6">
      <g>
       <use xlink:href="#m2731695e33" x="48.851283" y="69.119015" style="stroke: #000000; stroke-width: 0.8"/>
      </g>
     </g>
     <g id="text_7">
      <text style="font: 10px 'Arial', sans-serif; text-anchor: end" x="41.851283" y="72.697921" transform="rotate(-0 41.851283 72.697921)">0.1</text>
     </g>
    </g>
    <g id="ytick_7">
     <g id="line2d_7">
      <g>
       <use xlink:href="#m2731695e33" x="48.851283" y="27.704399" style="stroke: #000000; stroke-width: 0.8"/>
      </g>
     </g>
     <g id="text_8">
      <text style="font: 10px 'Arial', sans-serif; text-anchor: end" x="41.851283" y="31.283305" transform="rotate(-0 41.851283 31.283305)">0.2</text>
     </g>
    </g>
    <g id="text_9">
     <text style="font: 10px 'Arial', sans-serif; text-anchor: middle" x="16.005971" y="152.31998" transform="rotate(-90 16.005971 152.31998)">Activity</text>
    </g>
   </g>
   <g id="line2d_8">
    <path d="M 48.851283 198.898804 
L 60.011283 189.766755 
L 71.171283 169.422596 
L 82.331283 120.947187 
L 93.491283 73.381938 
L 104.651283 64.176515 
L 115.811283 59.033388 
L 126.971283 69.661631 
L 138.131283 81.224966 
L 149.291283 97.863245 
L 160.451283 107.361036 
L 171.611283 131.549883 
L 182.771283 156.623976 
L 193.931283 165.870925 
L 205.091283 170.759216 
L 216.251283 180.777162 
L 227.411283 187.940587 
L 238.571283 197.878356 
L 249.731283 208.854612 
L 260.891283 212.743129 
L 272.051283 225.786898 
L 283.211283 229.745958 
L 294.371283 233.64944 
L 305.531283 241.088102 
L 316.691283 251.961169 
L 327.851283 249.564437 
L 339.011283 251.907109 
L 350.171283 257.975258 
L 361.331283 259.098514 
L 372.491283 253.824544 
L 383.651283 250.24314 
L 394.811283 252.478814 
L 405.971283 247.261657 
" clip-path="url(#p45f9066b0a)" style="fill: none; stroke: #1f77b4; stroke-width: 1.5; stroke-linecap: square"/>
   </g>
   <g id="line2d_9">
    <path d="M 48.851283 187.815748 
L 60.011283 183.447269 
L 71.171283 170.105347 
L 82.331283 132.337455 
L 93.491283 81.521992 
L 104.651283 58.460075 
L 115.811283 50.508649 
L 126.971283 62.140931 
L 138.131283 75.949681 
L 149.291283 79.515518 
L 160.451283 91.605342 
L 171.611283 110.26834 
L 182.771283 127.112534 
L 193.931283 145.909143 
L 205.091283 160.401829 
L 216.251283 170.175569 
L 227.411283 182.870935 
L 238.571283 189.967469 
L 249.731283 189.529686 
L 260.891283 187.284903 
L 272.051283 200.768665 
L 283.211283 216.494908 
L 294.371283 224.365917 
L 305.531283 232.897225 
L 316.691283 243.090688 
L 327.851283 239.94226 
L 339.011283 253.053914 
L 350.171283 259.748717 
L 361.331283 254.355753 
L 372.491283 250.296583 
L 383.651283 243.17537 
L 394.811283 241.997561 
L 405.971283 238.314949 
" clip-path="url(#p45f9066b0a)" style="fill: none; stroke: #ff7f0e; stroke-width: 1.5; stroke-linecap: square"/>
   </g>
   <g id="line2d_10">
    <path d="M 82.331283 285.37598 
L 82.331283 19.26398 
" clip-path="url(#p45f9066b0a)" style="fill: none; stroke-dasharray: 5.55,2.4; stroke-dashoffset: 0; stroke: #000000; stroke-opacity: 0.5; stroke-width: 1.5"/>
   </g>
   <g id="line2d_11">
    <path d="M 383.651283 285.37598 
L 383.651283 19.26398 
" clip-path="url(#p45f9066b0a)" style="fill: none; stroke-dasharray: 5.55,2.4; stroke-dashoffset: 0; stroke: #000000; stroke-opacity: 0.5; stroke-width: 1.5"/>
   </g>
   <g id="patch_3">
    <path d="M 48.851283 285.37598 
L 405.971283 285.37598 
" style="fill: none; stroke: #000000; stroke-width: 0.8; stroke-linejoin: miter; stroke-linecap: square"/>
   </g>
   <g id="text_10">
    <text style="font: 6.94px 'Arial', sans-serif" transform="translate(10.097767 321.385533) rotate(-35)">-0.1s Sampling</text>
   </g>
   <g id="text_11">
    <text style="font: 6.94px 'Arial', sans-serif" transform="translate(57.794497 311.430872) rotate(-35)">Sampling</text>
   </g>
   <g id="text_12">
    <text style="font: 6.94px 'Arial', sans-serif" transform="translate(319.037191 339.456682) rotate(-35)">Movement to Lateral Port</text>
   </g>
   <g id="text_13">
    <text style="font: 8.33px 'Arial', sans-serif; text-anchor: middle" x="227.411283" y="13.26398" transform="rotate(-0 227.411283 13.26398)">GP4_85_s7_L70_D250_ALM - Trace:64_GP4_85_s7_L70_D250_ALM (when: correct)</text>
   </g>
   <g id="legend_1">
    <g id="patch_4">
     <path d="M 129.837052 354.133136 
L 324.985514 354.133136 
Q 326.373514 354.133136 326.373514 352.745136 
L 326.373514 343.45638 
Q 326.373514 342.06838 324.985514 342.06838 
L 129.837052 342.06838 
Q 128.449052 342.06838 128.449052 343.45638 
L 128.449052 352.745136 
Q 128.449052 354.133136 129.837052 354.133136 
z
" style="fill: #ffffff; opacity: 0.8; stroke: #cccccc; stroke-linejoin: miter"/>
    </g>
    <g id="line2d_12">
     <path d="M 131.225052 347.467483 
L 138.165052 347.467483 
L 145.105052 347.467483 
" style="fill: none; stroke: #1f77b4; stroke-width: 1.5; stroke-linecap: square"/>
    </g>
    <g id="text_14">
     <text style="font: 6.94px 'Arial', sans-serif; text-anchor: start" x="150.657052" y="349.896483" transform="rotate(-0 150.657052 349.896483)">DecisionRight (109 pts)</text>
    </g>
    <g id="line2d_13">
     <path d="M 236.664255 347.467483 
L 243.604255 347.467483 
L 250.544255 347.467483 
" style="fill: none; stroke: #ff7f0e; stroke-width: 1.5; stroke-linecap: square"/>
    </g>
    <g id="text_15">
     <text style="font: 6.94px 'Arial', sans-serif; text-anchor: start" x="256.096255" y="349.896483" transform="rotate(-0 256.096255 349.896483)">DecisionLeft (103 pts)</text>
    </g>
   </g>
  </g>
 </g>
 <defs>
  <clipPath id="p45f9066b0a">
   <rect x="48.851283" y="19.26398" width="357.12" height="266.112"/>
  </clipPath>
 </defs>
</svg>
