<?xml version="1.0" encoding="utf-8" standalone="no"?>
<!DOCTYPE svg PUBLIC "-//W3C//DTD SVG 1.1//EN"
  "http://www.w3.org/Graphics/SVG/1.1/DTD/svg11.dtd">
<svg xmlns:xlink="http://www.w3.org/1999/xlink" width="413.171283pt" height="361.333136pt" viewBox="0 0 413.171283 361.333136" xmlns="http://www.w3.org/2000/svg" version="1.1">
 <metadata>
  <rdf:RDF xmlns:dc="http://purl.org/dc/elements/1.1/" xmlns:cc="http://creativecommons.org/ns#" xmlns:rdf="http://www.w3.org/1999/02/22-rdf-syntax-ns#">
   <cc:Work>
    <dc:type rdf:resource="http://purl.org/dc/dcmitype/StillImage"/>
    <dc:date>2025-12-29T04:08:00.359039</dc:date>
    <dc:format>image/svg+xml</dc:format>
    <dc:creator>
     <cc:Agent>
      <dc:title>Matplotlib v3.8.0, https://matplotlib.org/</dc:title>
     </cc:Agent>
    </dc:creator>
   </cc:Work>
  </rdf:RDF>
 </metadata>
 <defs>
  <style type="text/css">*{stroke-linejoin: round; stroke-linecap: butt}</style>
 </defs>
 <g id="figure_1">
  <g id="patch_1">
   <path d="M 0 361.333136 
L 413.171283 361.333136 
L 413.171283 -0 
L 0 -0 
z
" style="fill: #ffffff"/>
  </g>
  <g id="axes_1">
   <g id="patch_2">
    <path d="M 48.851283 285.37598 
L 405.971283 285.37598 
L 405.971283 19.26398 
L 48.851283 19.26398 
z
" style="fill: #ffffff"/>
   </g>
   <g id="PolyCollection_1">
    <defs>
     <path id="me17e41b92f" d="M 48.851283 -104.677961 
L 48.851283 -98.734777 
L 60.011283 -98.208113 
L 71.171283 -97.456364 
L 82.331283 -94.91364 
L 93.491283 -90.343946 
L 104.651283 -88.053156 
L 115.811283 -90.507475 
L 126.971283 -92.066724 
L 138.131283 -93.18802 
L 149.291283 -96.83471 
L 160.451283 -102.376054 
L 171.611283 -108.476392 
L 182.771283 -115.099589 
L 193.931283 -121.950514 
L 205.091283 -127.867257 
L 216.251283 -131.383877 
L 227.411283 -134.117614 
L 238.571283 -137.660637 
L 249.731283 -139.797358 
L 260.891283 -138.291135 
L 272.051283 -138.634706 
L 283.211283 -140.703167 
L 294.371283 -140.262007 
L 305.531283 -140.236648 
L 316.691283 -140.067119 
L 327.851283 -138.345436 
L 339.011283 -136.156276 
L 350.171283 -135.076907 
L 361.331283 -134.048191 
L 372.491283 -135.810789 
L 383.651283 -136.518272 
L 394.811283 -135.055449 
L 405.971283 -134.488829 
L 405.971283 -155.259746 
L 405.971283 -155.259746 
L 394.811283 -155.348872 
L 383.651283 -156.605875 
L 372.491283 -156.679825 
L 361.331283 -156.018986 
L 350.171283 -157.34144 
L 339.011283 -158.966029 
L 327.851283 -161.255638 
L 316.691283 -163.013225 
L 305.531283 -163.317102 
L 294.371283 -163.175695 
L 283.211283 -163.188911 
L 272.051283 -160.763521 
L 260.891283 -160.071846 
L 249.731283 -161.036007 
L 238.571283 -158.277121 
L 227.411283 -153.688719 
L 216.251283 -150.037213 
L 205.091283 -145.863377 
L 193.931283 -138.753567 
L 182.771283 -130.306068 
L 171.611283 -121.333883 
L 160.451283 -112.333221 
L 149.291283 -105.137973 
L 138.131283 -101.513255 
L 126.971283 -100.308783 
L 115.811283 -98.768707 
L 104.651283 -95.955559 
L 93.491283 -96.789603 
L 82.331283 -101.188549 
L 71.171283 -103.591536 
L 60.011283 -104.164151 
L 48.851283 -104.677961 
z
" style="stroke: #1f77b4; stroke-opacity: 0.2"/>
    </defs>
    <g clip-path="url(#p9502a4874a)">
     <use xlink:href="#me17e41b92f" x="0" y="361.333136" style="fill: #1f77b4; fill-opacity: 0.2; stroke: #1f77b4; stroke-opacity: 0.2"/>
    </g>
   </g>
   <g id="PolyCollection_2">
    <defs>
     <path id="m88e19b6ad2" d="M 48.851283 -113.609179 
L 48.851283 -103.055343 
L 60.011283 -104.073223 
L 71.171283 -104.184541 
L 82.331283 -100.747805 
L 93.491283 -96.238281 
L 104.651283 -93.998438 
L 115.811283 -93.655645 
L 126.971283 -97.72223 
L 138.131283 -103.033107 
L 149.291283 -108.245427 
L 160.451283 -114.27297 
L 171.611283 -120.805574 
L 182.771283 -128.161263 
L 193.931283 -137.332617 
L 205.091283 -146.949444 
L 216.251283 -156.840744 
L 227.411283 -166.668093 
L 238.571283 -176.648908 
L 249.731283 -186.577697 
L 260.891283 -196.140472 
L 272.051283 -206.620222 
L 283.211283 -216.596116 
L 294.371283 -227.197414 
L 305.531283 -234.317212 
L 316.691283 -239.740172 
L 327.851283 -244.275214 
L 339.011283 -249.497395 
L 350.171283 -254.365253 
L 361.331283 -258.201914 
L 372.491283 -263.802912 
L 383.651283 -269.827061 
L 394.811283 -279.620413 
L 405.971283 -289.653702 
L 405.971283 -329.973156 
L 405.971283 -329.973156 
L 394.811283 -320.057999 
L 383.651283 -310.407162 
L 372.491283 -304.542881 
L 361.331283 -298.973364 
L 350.171283 -295.0802 
L 339.011283 -290.289651 
L 327.851283 -284.663004 
L 316.691283 -279.58675 
L 305.531283 -273.353255 
L 294.371283 -265.191661 
L 283.211283 -253.371812 
L 272.051283 -242.261264 
L 260.891283 -229.953668 
L 249.731283 -218.883396 
L 238.571283 -207.40303 
L 227.411283 -196.015973 
L 216.251283 -184.657099 
L 205.091283 -172.443082 
L 193.931283 -159.93112 
L 182.771283 -148.485529 
L 171.611283 -139.564957 
L 160.451283 -132.277353 
L 149.291283 -125.414381 
L 138.131283 -119.362026 
L 126.971283 -112.840214 
L 115.811283 -106.485538 
L 104.651283 -105.250223 
L 93.491283 -107.39405 
L 82.331283 -111.68885 
L 71.171283 -115.076212 
L 60.011283 -114.672309 
L 48.851283 -113.609179 
z
" style="stroke: #ff7f0e; stroke-opacity: 0.2"/>
    </defs>
    <g clip-path="url(#p9502a4874a)">
     <use xlink:href="#m88e19b6ad2" x="0" y="361.333136" style="fill: #ff7f0e; fill-opacity: 0.2; stroke: #ff7f0e; stroke-opacity: 0.2"/>
    </g>
   </g>
   <g id="matplotlib.axis_1">
    <g id="text_1">
     <text style="font: 10px 'Arial', sans-serif; text-anchor: middle" x="227.411283" y="296.533792" transform="rotate(-0 227.411283 296.533792)">Time</text>
    </g>
   </g>
   <g id="matplotlib.axis_2">
    <g id="ytick_1">
     <g id="line2d_1">
      <defs>
       <path id="mebbc7b325a" d="M 0 0 
L -3.5 0 
" style="stroke: #000000; stroke-width: 0.8"/>
      </defs>
      <g>
       <use xlink:href="#mebbc7b325a" x="48.851283" y="234.533564" style="stroke: #000000; stroke-width: 0.8"/>
      </g>
     </g>
     <g id="text_2">
      <text style="font: 10px 'Arial', sans-serif; text-anchor: end" x="41.851283" y="238.112471" transform="rotate(-0 41.851283 238.112471)">0.0</text>
     </g>
    </g>
    <g id="ytick_2">
     <g id="line2d_2">
      <g>
       <use xlink:href="#mebbc7b325a" x="48.851283" y="182.834448" style="stroke: #000000; stroke-width: 0.8"/>
      </g>
     </g>
     <g id="text_3">
      <text style="font: 10px 'Arial', sans-serif; text-anchor: end" x="41.851283" y="186.413355" transform="rotate(-0 41.851283 186.413355)">0.5</text>
     </g>
    </g>
    <g id="ytick_3">
     <g id="line2d_3">
      <g>
       <use xlink:href="#mebbc7b325a" x="48.851283" y="131.135332" style="stroke: #000000; stroke-width: 0.8"/>
      </g>
     </g>
     <g id="text_4">
      <text style="font: 10px 'Arial', sans-serif; text-anchor: end" x="41.851283" y="134.714239" transform="rotate(-0 41.851283 134.714239)">1.0</text>
     </g>
    </g>
    <g id="ytick_4">
     <g id="line2d_4">
      <g>
       <use xlink:href="#mebbc7b325a" x="48.851283" y="79.436217" style="stroke: #000000; stroke-width: 0.8"/>
      </g>
     </g>
     <g id="text_5">
      <text style="font: 10px 'Arial', sans-serif; text-anchor: end" x="41.851283" y="83.015123" transform="rotate(-0 41.851283 83.015123)">1.5</text>
     </g>
    </g>
    <g id="ytick_5">
     <g id="line2d_5">
      <g>
       <use xlink:href="#mebbc7b325a" x="48.851283" y="27.737101" style="stroke: #000000; stroke-width: 0.8"/>
      </g>
     </g>
     <g id="text_6">
      <text style="font: 10px 'Arial', sans-serif; text-anchor: end" x="41.851283" y="31.316007" transform="rotate(-0 41.851283 31.316007)">2.0</text>
     </g>
    </g>
    <g id="text_7">
     <text style="font: 10px 'Arial', sans-serif; text-anchor: middle" x="21.846596" y="152.31998" transform="rotate(-90 21.846596 152.31998)">Activity</text>
    </g>
   </g>
   <g id="line2d_6">
    <path d="M 48.851283 259.626768 
L 60.011283 260.147003 
L 71.171283 260.809187 
L 82.331283 263.282041 
L 93.491283 267.766362 
L 104.651283 269.328778 
L 115.811283 266.695045 
L 126.971283 265.145382 
L 138.131283 263.982499 
L 149.291283 260.346794 
L 160.451283 253.978499 
L 171.611283 246.427998 
L 182.771283 238.630308 
L 193.931283 230.981095 
L 205.091283 224.467819 
L 216.251283 220.62259 
L 227.411283 217.429968 
L 238.571283 213.364257 
L 249.731283 210.916454 
L 260.891283 212.151645 
L 272.051283 211.634021 
L 283.211283 209.387097 
L 294.371283 209.614286 
L 305.531283 209.556261 
L 316.691283 209.792964 
L 327.851283 211.5326 
L 339.011283 213.771983 
L 350.171283 215.123962 
L 361.331283 216.299548 
L 372.491283 215.087829 
L 383.651283 214.771062 
L 394.811283 216.130976 
L 405.971283 216.458848 
" clip-path="url(#p9502a4874a)" style="fill: none; stroke: #1f77b4; stroke-width: 1.5; stroke-linecap: square"/>
   </g>
   <g id="line2d_7">
    <path d="M 48.851283 253.000875 
L 60.011283 251.96037 
L 71.171283 251.702759 
L 82.331283 255.114808 
L 93.491283 259.516971 
L 104.651283 261.708805 
L 115.811283 261.262544 
L 126.971283 256.051914 
L 138.131283 250.135569 
L 149.291283 244.503232 
L 160.451283 238.057975 
L 171.611283 231.14787 
L 182.771283 223.00974 
L 193.931283 212.701267 
L 205.091283 201.636873 
L 216.251283 190.584215 
L 227.411283 179.991105 
L 238.571283 169.307167 
L 249.731283 158.602589 
L 260.891283 148.286066 
L 272.051283 136.89239 
L 283.211283 126.349172 
L 294.371283 115.138599 
L 305.531283 107.497902 
L 316.691283 101.669675 
L 327.851283 96.864027 
L 339.011283 91.439613 
L 350.171283 86.61041 
L 361.331283 82.745497 
L 372.491283 77.16024 
L 383.651283 71.216024 
L 394.811283 61.49393 
L 405.971283 51.519707 
" clip-path="url(#p9502a4874a)" style="fill: none; stroke: #ff7f0e; stroke-width: 1.5; stroke-linecap: square"/>
   </g>
   <g id="line2d_8">
    <path d="M 82.331283 285.37598 
L 82.331283 19.26398 
" clip-path="url(#p9502a4874a)" style="fill: none; stroke-dasharray: 5.55,2.4; stroke-dashoffset: 0; stroke: #000000; stroke-opacity: 0.5; stroke-width: 1.5"/>
   </g>
   <g id="line2d_9">
    <path d="M 383.651283 285.37598 
L 383.651283 19.26398 
" clip-path="url(#p9502a4874a)" style="fill: none; stroke-dasharray: 5.55,2.4; stroke-dashoffset: 0; stroke: #000000; stroke-opacity: 0.5; stroke-width: 1.5"/>
   </g>
   <g id="patch_3">
    <path d="M 48.851283 285.37598 
L 405.971283 285.37598 
" style="fill: none; stroke: #000000; stroke-width: 0.8; stroke-linejoin: miter; stroke-linecap: square"/>
   </g>
   <g id="text_8">
    <text style="font: 6.94px 'Arial', sans-serif" transform="translate(10.097767 321.385533) rotate(-35)">-0.1s Sampling</text>
   </g>
   <g id="text_9">
    <text style="font: 6.94px 'Arial', sans-serif" transform="translate(57.794497 311.430872) rotate(-35)">Sampling</text>
   </g>
   <g id="text_10">
    <text style="font: 6.94px 'Arial', sans-serif" transform="translate(319.037191 339.456682) rotate(-35)">Movement to Lateral Port</text>
   </g>
   <g id="text_11">
    <text style="font: 8.33px 'Arial', sans-serif; text-anchor: middle" x="227.411283" y="13.26398" transform="rotate(-0 227.411283 13.26398)">GP4_85_s7_L70_D250_ALM - Trace:6_GP4_85_s7_L70_D250_ALM (when: correct)</text>
   </g>
   <g id="legend_1">
    <g id="patch_4">
     <path d="M 129.837052 354.133136 
L 324.985514 354.133136 
Q 326.373514 354.133136 326.373514 352.745136 
L 326.373514 343.45638 
Q 326.373514 342.06838 324.985514 342.06838 
L 129.837052 342.06838 
Q 128.449052 342.06838 128.449052 343.45638 
L 128.449052 352.745136 
Q 128.449052 354.133136 129.837052 354.133136 
z
" style="fill: #ffffff; opacity: 0.8; stroke: #cccccc; stroke-linejoin: miter"/>
    </g>
    <g id="line2d_10">
     <path d="M 131.225052 347.467483 
L 138.165052 347.467483 
L 145.105052 347.467483 
" style="fill: none; stroke: #1f77b4; stroke-width: 1.5; stroke-linecap: square"/>
    </g>
    <g id="text_12">
     <text style="font: 6.94px 'Arial', sans-serif; text-anchor: start" x="150.657052" y="349.896483" transform="rotate(-0 150.657052 349.896483)">DecisionRight (109 pts)</text>
    </g>
    <g id="line2d_11">
     <path d="M 236.664255 347.467483 
L 243.604255 347.467483 
L 250.544255 347.467483 
" style="fill: none; stroke: #ff7f0e; stroke-width: 1.5; stroke-linecap: square"/>
    </g>
    <g id="text_13">
     <text style="font: 6.94px 'Arial', sans-serif; text-anchor: start" x="256.096255" y="349.896483" transform="rotate(-0 256.096255 349.896483)">DecisionLeft (103 pts)</text>
    </g>
   </g>
  </g>
 </g>
 <defs>
  <clipPath id="p9502a4874a">
   <rect x="48.851283" y="19.26398" width="357.12" height="266.112"/>
  </clipPath>
 </defs>
</svg>
