<?xml version="1.0" encoding="utf-8" standalone="no"?>
<!DOCTYPE svg PUBLIC "-//W3C//DTD SVG 1.1//EN"
  "http://www.w3.org/Graphics/SVG/1.1/DTD/svg11.dtd">
<svg xmlns:xlink="http://www.w3.org/1999/xlink" width="413.171283pt" height="361.333136pt" viewBox="0 0 413.171283 361.333136" xmlns="http://www.w3.org/2000/svg" version="1.1">
 <metadata>
  <rdf:RDF xmlns:dc="http://purl.org/dc/elements/1.1/" xmlns:cc="http://creativecommons.org/ns#" xmlns:rdf="http://www.w3.org/1999/02/22-rdf-syntax-ns#">
   <cc:Work>
    <dc:type rdf:resource="http://purl.org/dc/dcmitype/StillImage"/>
    <dc:date>2025-12-29T04:07:58.742337</dc:date>
    <dc:format>image/svg+xml</dc:format>
    <dc:creator>
     <cc:Agent>
      <dc:title>Matplotlib v3.8.0, https://matplotlib.org/</dc:title>
     </cc:Agent>
    </dc:creator>
   </cc:Work>
  </rdf:RDF>
 </metadata>
 <defs>
  <style type="text/css">*{stroke-linejoin: round; stroke-linecap: butt}</style>
 </defs>
 <g id="figure_1">
  <g id="patch_1">
   <path d="M 0 361.333136 
L 413.171283 361.333136 
L 413.171283 -0 
L 0 -0 
z
" style="fill: #ffffff"/>
  </g>
  <g id="axes_1">
   <g id="patch_2">
    <path d="M 48.851283 285.37598 
L 405.971283 285.37598 
L 405.971283 19.26398 
L 48.851283 19.26398 
z
" style="fill: #ffffff"/>
   </g>
   <g id="PolyCollection_1">
    <defs>
     <path id="mf4faf09ebd" d="M 48.851283 -319.751859 
L 48.851283 -236.796233 
L 60.011283 -247.650268 
L 71.171283 -224.220719 
L 82.331283 -160.639237 
L 93.491283 -129.923231 
L 104.651283 -130.23998 
L 115.811283 -134.141326 
L 126.971283 -145.79028 
L 138.131283 -142.142193 
L 149.291283 -145.505951 
L 160.451283 -159.601597 
L 171.611283 -149.774102 
L 182.771283 -158.217726 
L 193.931283 -176.302644 
L 205.091283 -185.504017 
L 216.251283 -225.903584 
L 227.411283 -215.059691 
L 238.571283 -215.100514 
L 249.731283 -202.883878 
L 260.891283 -183.400047 
L 272.051283 -225.550171 
L 283.211283 -218.364855 
L 294.371283 -200.65774 
L 305.531283 -189.759693 
L 316.691283 -209.431554 
L 327.851283 -225.77354 
L 339.011283 -210.764651 
L 350.171283 -205.784506 
L 361.331283 -211.998849 
L 372.491283 -228.396194 
L 383.651283 -206.577739 
L 394.811283 -189.181179 
L 405.971283 -191.176546 
L 405.971283 -289.532306 
L 405.971283 -289.532306 
L 394.811283 -282.089046 
L 383.651283 -292.695372 
L 372.491283 -308.81624 
L 361.331283 -291.365821 
L 350.171283 -285.163486 
L 339.011283 -288.646183 
L 327.851283 -305.711254 
L 316.691283 -292.021013 
L 305.531283 -267.054789 
L 294.371283 -273.435773 
L 283.211283 -296.086141 
L 272.051283 -308.264177 
L 260.891283 -266.970751 
L 249.731283 -286.039693 
L 238.571283 -303.978466 
L 227.411283 -309.007028 
L 216.251283 -323.308809 
L 205.091283 -284.278142 
L 193.931283 -274.962659 
L 182.771283 -244.910394 
L 171.611283 -232.219349 
L 160.451283 -252.699084 
L 149.291283 -247.625979 
L 138.131283 -250.786681 
L 126.971283 -254.588484 
L 115.811283 -233.925654 
L 104.651283 -231.94056 
L 93.491283 -227.444083 
L 82.331283 -249.188055 
L 71.171283 -310.185398 
L 60.011283 -329.973156 
L 48.851283 -319.751859 
z
" style="stroke: #1f77b4; stroke-opacity: 0.2"/>
    </defs>
    <g clip-path="url(#p163c72b7dc)">
     <use xlink:href="#mf4faf09ebd" x="0" y="361.333136" style="fill: #1f77b4; fill-opacity: 0.2; stroke: #1f77b4; stroke-opacity: 0.2"/>
    </g>
   </g>
   <g id="PolyCollection_2">
    <defs>
     <path id="m3ac1f5a9e5" d="M 48.851283 -209.566974 
L 48.851283 -173.722348 
L 60.011283 -160.928865 
L 71.171283 -169.197439 
L 82.331283 -137.393711 
L 93.491283 -98.690778 
L 104.651283 -88.053156 
L 115.811283 -91.734597 
L 126.971283 -119.962273 
L 138.131283 -125.734995 
L 149.291283 -142.529274 
L 160.451283 -161.928842 
L 171.611283 -189.990553 
L 182.771283 -185.308538 
L 193.931283 -181.028939 
L 205.091283 -187.205907 
L 216.251283 -198.462387 
L 227.411283 -192.221122 
L 238.571283 -185.852854 
L 249.731283 -177.222354 
L 260.891283 -182.564508 
L 272.051283 -174.26333 
L 283.211283 -161.377944 
L 294.371283 -161.293945 
L 305.531283 -172.219174 
L 316.691283 -164.738177 
L 327.851283 -153.777021 
L 339.011283 -175.339573 
L 350.171283 -168.540927 
L 361.331283 -174.394814 
L 372.491283 -174.400645 
L 383.651283 -159.908986 
L 394.811283 -170.790575 
L 405.971283 -185.700891 
L 405.971283 -233.552624 
L 405.971283 -233.552624 
L 394.811283 -220.0535 
L 383.651283 -207.508926 
L 372.491283 -219.690189 
L 361.331283 -215.925039 
L 350.171283 -207.713049 
L 339.011283 -218.344625 
L 327.851283 -197.97817 
L 316.691283 -210.300734 
L 305.531283 -217.292039 
L 294.371283 -208.3111 
L 283.211283 -207.139573 
L 272.051283 -222.021069 
L 260.891283 -240.237567 
L 249.731283 -238.969676 
L 238.571283 -247.884998 
L 227.411283 -259.602129 
L 216.251283 -277.83465 
L 205.091283 -263.676769 
L 193.931283 -260.099133 
L 182.771283 -269.527483 
L 171.611283 -272.60848 
L 160.451283 -239.563486 
L 149.291283 -216.724309 
L 138.131283 -191.419288 
L 126.971283 -183.944342 
L 115.811283 -153.741096 
L 104.651283 -142.960149 
L 93.491283 -141.859111 
L 82.331283 -175.964707 
L 71.171283 -202.939885 
L 60.011283 -192.30682 
L 48.851283 -209.566974 
z
" style="stroke: #ff7f0e; stroke-opacity: 0.2"/>
    </defs>
    <g clip-path="url(#p163c72b7dc)">
     <use xlink:href="#m3ac1f5a9e5" x="0" y="361.333136" style="fill: #ff7f0e; fill-opacity: 0.2; stroke: #ff7f0e; stroke-opacity: 0.2"/>
    </g>
   </g>
   <g id="matplotlib.axis_1">
    <g id="text_1">
     <text style="font: 10px 'Arial', sans-serif; text-anchor: middle" x="227.411283" y="296.533792" transform="rotate(-0 227.411283 296.533792)">Time</text>
    </g>
   </g>
   <g id="matplotlib.axis_2">
    <g id="ytick_1">
     <g id="line2d_1">
      <defs>
       <path id="m1c6aacb9df" d="M 0 0 
L -3.5 0 
" style="stroke: #000000; stroke-width: 0.8"/>
      </defs>
      <g>
       <use xlink:href="#m1c6aacb9df" x="48.851283" y="258.942478" style="stroke: #000000; stroke-width: 0.8"/>
      </g>
     </g>
     <g id="text_2">
      <text style="font: 10px 'Arial', sans-serif; text-anchor: end" x="41.851283" y="262.521384" transform="rotate(-0 41.851283 262.521384)">−0.2</text>
     </g>
    </g>
    <g id="ytick_2">
     <g id="line2d_2">
      <g>
       <use xlink:href="#m1c6aacb9df" x="48.851283" y="227.463957" style="stroke: #000000; stroke-width: 0.8"/>
      </g>
     </g>
     <g id="text_3">
      <text style="font: 10px 'Arial', sans-serif; text-anchor: end" x="41.851283" y="231.042864" transform="rotate(-0 41.851283 231.042864)">−0.1</text>
     </g>
    </g>
    <g id="ytick_3">
     <g id="line2d_3">
      <g>
       <use xlink:href="#m1c6aacb9df" x="48.851283" y="195.985437" style="stroke: #000000; stroke-width: 0.8"/>
      </g>
     </g>
     <g id="text_4">
      <text style="font: 10px 'Arial', sans-serif; text-anchor: end" x="41.851283" y="199.564343" transform="rotate(-0 41.851283 199.564343)">0.0</text>
     </g>
    </g>
    <g id="ytick_4">
     <g id="line2d_4">
      <g>
       <use xlink:href="#m1c6aacb9df" x="48.851283" y="164.506917" style="stroke: #000000; stroke-width: 0.8"/>
      </g>
     </g>
     <g id="text_5">
      <text style="font: 10px 'Arial', sans-serif; text-anchor: end" x="41.851283" y="168.085823" transform="rotate(-0 41.851283 168.085823)">0.1</text>
     </g>
    </g>
    <g id="ytick_5">
     <g id="line2d_5">
      <g>
       <use xlink:href="#m1c6aacb9df" x="48.851283" y="133.028396" style="stroke: #000000; stroke-width: 0.8"/>
      </g>
     </g>
     <g id="text_6">
      <text style="font: 10px 'Arial', sans-serif; text-anchor: end" x="41.851283" y="136.607303" transform="rotate(-0 41.851283 136.607303)">0.2</text>
     </g>
    </g>
    <g id="ytick_6">
     <g id="line2d_6">
      <g>
       <use xlink:href="#m1c6aacb9df" x="48.851283" y="101.549876" style="stroke: #000000; stroke-width: 0.8"/>
      </g>
     </g>
     <g id="text_7">
      <text style="font: 10px 'Arial', sans-serif; text-anchor: end" x="41.851283" y="105.128782" transform="rotate(-0 41.851283 105.128782)">0.3</text>
     </g>
    </g>
    <g id="ytick_7">
     <g id="line2d_7">
      <g>
       <use xlink:href="#m1c6aacb9df" x="48.851283" y="70.071356" style="stroke: #000000; stroke-width: 0.8"/>
      </g>
     </g>
     <g id="text_8">
      <text style="font: 10px 'Arial', sans-serif; text-anchor: end" x="41.851283" y="73.650262" transform="rotate(-0 41.851283 73.650262)">0.4</text>
     </g>
    </g>
    <g id="ytick_8">
     <g id="line2d_8">
      <g>
       <use xlink:href="#m1c6aacb9df" x="48.851283" y="38.592835" style="stroke: #000000; stroke-width: 0.8"/>
      </g>
     </g>
     <g id="text_9">
      <text style="font: 10px 'Arial', sans-serif; text-anchor: end" x="41.851283" y="42.171741" transform="rotate(-0 41.851283 42.171741)">0.5</text>
     </g>
    </g>
    <g id="text_10">
     <text style="font: 10px 'Arial', sans-serif; text-anchor: middle" x="16.005971" y="152.31998" transform="rotate(-90 16.005971 152.31998)">Activity</text>
    </g>
   </g>
   <g id="line2d_9">
    <path d="M 48.851283 83.059092 
L 60.011283 72.521419 
L 71.171283 94.130075 
L 82.331283 156.41949 
L 93.491283 182.64948 
L 104.651283 180.242865 
L 115.811283 177.299645 
L 126.971283 161.143754 
L 138.131283 164.868698 
L 149.291283 164.767171 
L 160.451283 155.182796 
L 171.611283 170.336409 
L 182.771283 159.769077 
L 193.931283 135.700484 
L 205.091283 126.442054 
L 216.251283 86.726939 
L 227.411283 99.299779 
L 238.571283 101.793646 
L 249.731283 116.871348 
L 260.891283 136.147735 
L 272.051283 94.425962 
L 283.211283 104.107636 
L 294.371283 124.286379 
L 305.531283 132.925895 
L 316.691283 110.606852 
L 327.851283 95.590739 
L 339.011283 111.627719 
L 350.171283 115.85914 
L 361.331283 109.650801 
L 372.491283 92.726919 
L 383.651283 111.696578 
L 394.811283 125.698026 
L 405.971283 120.97871 
" clip-path="url(#p163c72b7dc)" style="fill: none; stroke: #1f77b4; stroke-width: 1.5; stroke-linecap: square"/>
   </g>
   <g id="line2d_10">
    <path d="M 48.851283 169.688476 
L 60.011283 184.715293 
L 71.171283 175.264473 
L 82.331283 204.653927 
L 93.491283 241.058192 
L 104.651283 245.826483 
L 115.811283 238.595288 
L 126.971283 209.379828 
L 138.131283 202.755996 
L 149.291283 181.706343 
L 160.451283 160.586972 
L 171.611283 130.033617 
L 182.771283 133.915123 
L 193.931283 140.7691 
L 205.091283 135.891798 
L 216.251283 123.184617 
L 227.411283 135.421512 
L 238.571283 144.464209 
L 249.731283 153.237122 
L 260.891283 149.932098 
L 272.051283 163.190936 
L 283.211283 177.074376 
L 294.371283 176.530614 
L 305.531283 166.577531 
L 316.691283 173.813679 
L 327.851283 185.45554 
L 339.011283 164.491038 
L 350.171283 173.206149 
L 361.331283 166.173209 
L 372.491283 164.287719 
L 383.651283 177.624179 
L 394.811283 165.9111 
L 405.971283 151.70638 
" clip-path="url(#p163c72b7dc)" style="fill: none; stroke: #ff7f0e; stroke-width: 1.5; stroke-linecap: square"/>
   </g>
   <g id="line2d_11">
    <path d="M 82.331283 285.37598 
L 82.331283 19.26398 
" clip-path="url(#p163c72b7dc)" style="fill: none; stroke-dasharray: 5.55,2.4; stroke-dashoffset: 0; stroke: #000000; stroke-opacity: 0.5; stroke-width: 1.5"/>
   </g>
   <g id="line2d_12">
    <path d="M 383.651283 285.37598 
L 383.651283 19.26398 
" clip-path="url(#p163c72b7dc)" style="fill: none; stroke-dasharray: 5.55,2.4; stroke-dashoffset: 0; stroke: #000000; stroke-opacity: 0.5; stroke-width: 1.5"/>
   </g>
   <g id="patch_3">
    <path d="M 48.851283 285.37598 
L 405.971283 285.37598 
" style="fill: none; stroke: #000000; stroke-width: 0.8; stroke-linejoin: miter; stroke-linecap: square"/>
   </g>
   <g id="text_11">
    <text style="font: 6.94px 'Arial', sans-serif" transform="translate(10.097767 321.385533) rotate(-35)">-0.1s Sampling</text>
   </g>
   <g id="text_12">
    <text style="font: 6.94px 'Arial', sans-serif" transform="translate(57.794497 311.430872) rotate(-35)">Sampling</text>
   </g>
   <g id="text_13">
    <text style="font: 6.94px 'Arial', sans-serif" transform="translate(319.037191 339.456682) rotate(-35)">Movement to Lateral Port</text>
   </g>
   <g id="text_14">
    <text style="font: 8.33px 'Arial', sans-serif; text-anchor: middle" x="227.411283" y="13.26398" transform="rotate(-0 227.411283 13.26398)">GP4_85_s7_L70_D250_ALM - Trace:71_GP4_85_s7_L70_D250_ALM (when: correct)</text>
   </g>
   <g id="legend_1">
    <g id="patch_4">
     <path d="M 129.837052 354.133136 
L 324.985514 354.133136 
Q 326.373514 354.133136 326.373514 352.745136 
L 326.373514 343.45638 
Q 326.373514 342.06838 324.985514 342.06838 
L 129.837052 342.06838 
Q 128.449052 342.06838 128.449052 343.45638 
L 128.449052 352.745136 
Q 128.449052 354.133136 129.837052 354.133136 
z
" style="fill: #ffffff; opacity: 0.8; stroke: #cccccc; stroke-linejoin: miter"/>
    </g>
    <g id="line2d_13">
     <path d="M 131.225052 347.467483 
L 138.165052 347.467483 
L 145.105052 347.467483 
" style="fill: none; stroke: #1f77b4; stroke-width: 1.5; stroke-linecap: square"/>
    </g>
    <g id="text_15">
     <text style="font: 6.94px 'Arial', sans-serif; text-anchor: start" x="150.657052" y="349.896483" transform="rotate(-0 150.657052 349.896483)">DecisionRight (109 pts)</text>
    </g>
    <g id="line2d_14">
     <path d="M 236.664255 347.467483 
L 243.604255 347.467483 
L 250.544255 347.467483 
" style="fill: none; stroke: #ff7f0e; stroke-width: 1.5; stroke-linecap: square"/>
    </g>
    <g id="text_16">
     <text style="font: 6.94px 'Arial', sans-serif; text-anchor: start" x="256.096255" y="349.896483" transform="rotate(-0 256.096255 349.896483)">DecisionLeft (103 pts)</text>
    </g>
   </g>
  </g>
 </g>
 <defs>
  <clipPath id="p163c72b7dc">
   <rect x="48.851283" y="19.26398" width="357.12" height="266.112"/>
  </clipPath>
 </defs>
</svg>
