<?xml version="1.0" encoding="utf-8" standalone="no"?>
<!DOCTYPE svg PUBLIC "-//W3C//DTD SVG 1.1//EN"
  "http://www.w3.org/Graphics/SVG/1.1/DTD/svg11.dtd">
<svg xmlns:xlink="http://www.w3.org/1999/xlink" width="413.171283pt" height="361.333136pt" viewBox="0 0 413.171283 361.333136" xmlns="http://www.w3.org/2000/svg" version="1.1">
 <metadata>
  <rdf:RDF xmlns:dc="http://purl.org/dc/elements/1.1/" xmlns:cc="http://creativecommons.org/ns#" xmlns:rdf="http://www.w3.org/1999/02/22-rdf-syntax-ns#">
   <cc:Work>
    <dc:type rdf:resource="http://purl.org/dc/dcmitype/StillImage"/>
    <dc:date>2025-12-29T04:08:00.842968</dc:date>
    <dc:format>image/svg+xml</dc:format>
    <dc:creator>
     <cc:Agent>
      <dc:title>Matplotlib v3.8.0, https://matplotlib.org/</dc:title>
     </cc:Agent>
    </dc:creator>
   </cc:Work>
  </rdf:RDF>
 </metadata>
 <defs>
  <style type="text/css">*{stroke-linejoin: round; stroke-linecap: butt}</style>
 </defs>
 <g id="figure_1">
  <g id="patch_1">
   <path d="M 0 361.333136 
L 413.171283 361.333136 
L 413.171283 -0 
L 0 -0 
z
" style="fill: #ffffff"/>
  </g>
  <g id="axes_1">
   <g id="patch_2">
    <path d="M 48.851283 285.37598 
L 405.971283 285.37598 
L 405.971283 19.26398 
L 48.851283 19.26398 
z
" style="fill: #ffffff"/>
   </g>
   <g id="PolyCollection_1">
    <defs>
     <path id="mef66e6a64e" d="M 48.851283 -203.257676 
L 48.851283 -171.483458 
L 60.011283 -182.107983 
L 71.171283 -197.257011 
L 82.331283 -211.88846 
L 93.491283 -194.151109 
L 104.651283 -179.633934 
L 115.811283 -162.388163 
L 126.971283 -145.179099 
L 138.131283 -137.181571 
L 149.291283 -125.429469 
L 160.451283 -119.236302 
L 171.611283 -120.958308 
L 182.771283 -116.495743 
L 193.931283 -112.607548 
L 205.091283 -115.035869 
L 216.251283 -114.805495 
L 227.411283 -117.643926 
L 238.571283 -115.641053 
L 249.731283 -115.777388 
L 260.891283 -108.904216 
L 272.051283 -106.659675 
L 283.211283 -100.770824 
L 294.371283 -93.907298 
L 305.531283 -92.457367 
L 316.691283 -92.512062 
L 327.851283 -95.40287 
L 339.011283 -99.487558 
L 350.171283 -90.947234 
L 361.331283 -90.960676 
L 372.491283 -98.417009 
L 383.651283 -101.519879 
L 394.811283 -93.967272 
L 405.971283 -88.053156 
L 405.971283 -101.569566 
L 405.971283 -101.569566 
L 394.811283 -109.058326 
L 383.651283 -117.467415 
L 372.491283 -114.080216 
L 361.331283 -107.758054 
L 350.171283 -107.597711 
L 339.011283 -115.845348 
L 327.851283 -112.877468 
L 316.691283 -111.906076 
L 305.531283 -113.379391 
L 294.371283 -114.697151 
L 283.211283 -121.636704 
L 272.051283 -128.967985 
L 260.891283 -130.217979 
L 249.731283 -138.932304 
L 238.571283 -140.666931 
L 227.411283 -143.346127 
L 216.251283 -141.899369 
L 205.091283 -143.326728 
L 193.931283 -141.516878 
L 182.771283 -142.035419 
L 171.611283 -145.667692 
L 160.451283 -142.739278 
L 149.291283 -151.350319 
L 138.131283 -170.224128 
L 126.971283 -182.220585 
L 115.811283 -206.876853 
L 104.651283 -231.84496 
L 93.491283 -250.854377 
L 82.331283 -266.283024 
L 71.171283 -245.198204 
L 60.011283 -222.28672 
L 48.851283 -203.257676 
z
" style="stroke: #1f77b4; stroke-opacity: 0.2"/>
    </defs>
    <g clip-path="url(#pebbc6dfeef)">
     <use xlink:href="#mef66e6a64e" x="0" y="361.333136" style="fill: #1f77b4; fill-opacity: 0.2; stroke: #1f77b4; stroke-opacity: 0.2"/>
    </g>
   </g>
   <g id="PolyCollection_2">
    <defs>
     <path id="mc3942c8700" d="M 48.851283 -231.864531 
L 48.851283 -194.831013 
L 60.011283 -229.141134 
L 71.171283 -255.458934 
L 82.331283 -258.843733 
L 93.491283 -242.665103 
L 104.651283 -217.689093 
L 115.811283 -207.23029 
L 126.971283 -190.992209 
L 138.131283 -177.697298 
L 149.291283 -167.658034 
L 160.451283 -162.0809 
L 171.611283 -155.993919 
L 182.771283 -156.210077 
L 193.931283 -148.532189 
L 205.091283 -143.903688 
L 216.251283 -143.490699 
L 227.411283 -134.440658 
L 238.571283 -129.686112 
L 249.731283 -129.585138 
L 260.891283 -128.693029 
L 272.051283 -124.057417 
L 283.211283 -126.019599 
L 294.371283 -129.187507 
L 305.531283 -123.347424 
L 316.691283 -120.692815 
L 327.851283 -116.480398 
L 339.011283 -108.925984 
L 350.171283 -115.229668 
L 361.331283 -111.142641 
L 372.491283 -108.868665 
L 383.651283 -109.887552 
L 394.811283 -106.871217 
L 405.971283 -106.124136 
L 405.971283 -133.384934 
L 405.971283 -133.384934 
L 394.811283 -135.800457 
L 383.651283 -139.662768 
L 372.491283 -137.752784 
L 361.331283 -138.210142 
L 350.171283 -140.658834 
L 339.011283 -133.080764 
L 327.851283 -139.509017 
L 316.691283 -144.843837 
L 305.531283 -150.064872 
L 294.371283 -159.118331 
L 283.211283 -158.161217 
L 272.051283 -158.439487 
L 260.891283 -164.321949 
L 249.731283 -165.80578 
L 238.571283 -167.532266 
L 227.411283 -173.413805 
L 216.251283 -184.919945 
L 205.091283 -189.03379 
L 193.931283 -196.635681 
L 182.771283 -205.363801 
L 171.611283 -202.231161 
L 160.451283 -207.776498 
L 149.291283 -214.197405 
L 138.131283 -225.977272 
L 126.971283 -241.828212 
L 115.811283 -265.260829 
L 104.651283 -279.864599 
L 93.491283 -313.01766 
L 82.331283 -329.973156 
L 71.171283 -319.690053 
L 60.011283 -279.520657 
L 48.851283 -231.864531 
z
" style="stroke: #ff7f0e; stroke-opacity: 0.2"/>
    </defs>
    <g clip-path="url(#pebbc6dfeef)">
     <use xlink:href="#mc3942c8700" x="0" y="361.333136" style="fill: #ff7f0e; fill-opacity: 0.2; stroke: #ff7f0e; stroke-opacity: 0.2"/>
    </g>
   </g>
   <g id="matplotlib.axis_1">
    <g id="text_1">
     <text style="font: 10px 'Arial', sans-serif; text-anchor: middle" x="227.411283" y="296.533792" transform="rotate(-0 227.411283 296.533792)">Time</text>
    </g>
   </g>
   <g id="matplotlib.axis_2">
    <g id="ytick_1">
     <g id="line2d_1">
      <defs>
       <path id="m4ce1c91fac" d="M 0 0 
L -3.5 0 
" style="stroke: #000000; stroke-width: 0.8"/>
      </defs>
      <g>
       <use xlink:href="#m4ce1c91fac" x="48.851283" y="261.165863" style="stroke: #000000; stroke-width: 0.8"/>
      </g>
     </g>
     <g id="text_2">
      <text style="font: 10px 'Arial', sans-serif; text-anchor: end" x="41.851283" y="264.744769" transform="rotate(-0 41.851283 264.744769)">−0.2</text>
     </g>
    </g>
    <g id="ytick_2">
     <g id="line2d_2">
      <g>
       <use xlink:href="#m4ce1c91fac" x="48.851283" y="230.649226" style="stroke: #000000; stroke-width: 0.8"/>
      </g>
     </g>
     <g id="text_3">
      <text style="font: 10px 'Arial', sans-serif; text-anchor: end" x="41.851283" y="234.228132" transform="rotate(-0 41.851283 234.228132)">0.0</text>
     </g>
    </g>
    <g id="ytick_3">
     <g id="line2d_3">
      <g>
       <use xlink:href="#m4ce1c91fac" x="48.851283" y="200.132589" style="stroke: #000000; stroke-width: 0.8"/>
      </g>
     </g>
     <g id="text_4">
      <text style="font: 10px 'Arial', sans-serif; text-anchor: end" x="41.851283" y="203.711495" transform="rotate(-0 41.851283 203.711495)">0.2</text>
     </g>
    </g>
    <g id="ytick_4">
     <g id="line2d_4">
      <g>
       <use xlink:href="#m4ce1c91fac" x="48.851283" y="169.615951" style="stroke: #000000; stroke-width: 0.8"/>
      </g>
     </g>
     <g id="text_5">
      <text style="font: 10px 'Arial', sans-serif; text-anchor: end" x="41.851283" y="173.194858" transform="rotate(-0 41.851283 173.194858)">0.4</text>
     </g>
    </g>
    <g id="ytick_5">
     <g id="line2d_5">
      <g>
       <use xlink:href="#m4ce1c91fac" x="48.851283" y="139.099314" style="stroke: #000000; stroke-width: 0.8"/>
      </g>
     </g>
     <g id="text_6">
      <text style="font: 10px 'Arial', sans-serif; text-anchor: end" x="41.851283" y="142.678221" transform="rotate(-0 41.851283 142.678221)">0.6</text>
     </g>
    </g>
    <g id="ytick_6">
     <g id="line2d_6">
      <g>
       <use xlink:href="#m4ce1c91fac" x="48.851283" y="108.582677" style="stroke: #000000; stroke-width: 0.8"/>
      </g>
     </g>
     <g id="text_7">
      <text style="font: 10px 'Arial', sans-serif; text-anchor: end" x="41.851283" y="112.161583" transform="rotate(-0 41.851283 112.161583)">0.8</text>
     </g>
    </g>
    <g id="ytick_7">
     <g id="line2d_7">
      <g>
       <use xlink:href="#m4ce1c91fac" x="48.851283" y="78.06604" style="stroke: #000000; stroke-width: 0.8"/>
      </g>
     </g>
     <g id="text_8">
      <text style="font: 10px 'Arial', sans-serif; text-anchor: end" x="41.851283" y="81.644946" transform="rotate(-0 41.851283 81.644946)">1.0</text>
     </g>
    </g>
    <g id="ytick_8">
     <g id="line2d_8">
      <g>
       <use xlink:href="#m4ce1c91fac" x="48.851283" y="47.549403" style="stroke: #000000; stroke-width: 0.8"/>
      </g>
     </g>
     <g id="text_9">
      <text style="font: 10px 'Arial', sans-serif; text-anchor: end" x="41.851283" y="51.128309" transform="rotate(-0 41.851283 51.128309)">1.2</text>
     </g>
    </g>
    <g id="text_10">
     <text style="font: 10px 'Arial', sans-serif; text-anchor: middle" x="16.005971" y="152.31998" transform="rotate(-90 16.005971 152.31998)">Activity</text>
    </g>
   </g>
   <g id="line2d_9">
    <path d="M 48.851283 173.962569 
L 60.011283 159.135784 
L 71.171283 140.105526 
L 82.331283 122.247394 
L 93.491283 138.830391 
L 104.651283 155.593689 
L 115.811283 176.700628 
L 126.971283 197.633294 
L 138.131283 207.630286 
L 149.291283 222.943241 
L 160.451283 230.345346 
L 171.611283 228.020136 
L 182.771283 232.067555 
L 193.931283 234.270923 
L 205.091283 232.151837 
L 216.251283 232.980704 
L 227.411283 230.83811 
L 238.571283 233.179144 
L 249.731283 233.97829 
L 260.891283 241.772038 
L 272.051283 243.519306 
L 283.211283 250.129372 
L 294.371283 257.030912 
L 305.531283 258.414756 
L 316.691283 259.124067 
L 327.851283 257.192967 
L 339.011283 253.666683 
L 350.171283 262.060665 
L 361.331283 261.973772 
L 372.491283 255.084524 
L 383.651283 251.83949 
L 394.811283 259.820337 
L 405.971283 266.521776 
" clip-path="url(#pebbc6dfeef)" style="fill: none; stroke: #1f77b4; stroke-width: 1.5; stroke-linecap: square"/>
   </g>
   <g id="line2d_10">
    <path d="M 48.851283 147.985364 
L 60.011283 107.002241 
L 71.171283 73.758642 
L 82.331283 66.924692 
L 93.491283 83.491754 
L 104.651283 112.55629 
L 115.811283 125.087576 
L 126.971283 144.922926 
L 138.131283 159.495851 
L 149.291283 170.405418 
L 160.451283 176.404437 
L 171.611283 182.220595 
L 182.771283 180.546198 
L 193.931283 188.749201 
L 205.091283 194.864398 
L 216.251283 197.127815 
L 227.411283 207.405905 
L 238.571283 212.723947 
L 249.731283 213.637677 
L 260.891283 214.825647 
L 272.051283 220.084685 
L 283.211283 219.242728 
L 294.371283 217.180218 
L 305.531283 224.626988 
L 316.691283 228.56481 
L 327.851283 233.338429 
L 339.011283 240.329762 
L 350.171283 233.388885 
L 361.331283 236.656744 
L 372.491283 238.022411 
L 383.651283 236.557975 
L 394.811283 239.997298 
L 405.971283 241.5786 
" clip-path="url(#pebbc6dfeef)" style="fill: none; stroke: #ff7f0e; stroke-width: 1.5; stroke-linecap: square"/>
   </g>
   <g id="line2d_11">
    <path d="M 82.331283 285.37598 
L 82.331283 19.26398 
" clip-path="url(#pebbc6dfeef)" style="fill: none; stroke-dasharray: 5.55,2.4; stroke-dashoffset: 0; stroke: #000000; stroke-opacity: 0.5; stroke-width: 1.5"/>
   </g>
   <g id="line2d_12">
    <path d="M 383.651283 285.37598 
L 383.651283 19.26398 
" clip-path="url(#pebbc6dfeef)" style="fill: none; stroke-dasharray: 5.55,2.4; stroke-dashoffset: 0; stroke: #000000; stroke-opacity: 0.5; stroke-width: 1.5"/>
   </g>
   <g id="patch_3">
    <path d="M 48.851283 285.37598 
L 405.971283 285.37598 
" style="fill: none; stroke: #000000; stroke-width: 0.8; stroke-linejoin: miter; stroke-linecap: square"/>
   </g>
   <g id="text_11">
    <text style="font: 6.94px 'Arial', sans-serif" transform="translate(10.097767 321.385533) rotate(-35)">-0.1s Sampling</text>
   </g>
   <g id="text_12">
    <text style="font: 6.94px 'Arial', sans-serif" transform="translate(57.794497 311.430872) rotate(-35)">Sampling</text>
   </g>
   <g id="text_13">
    <text style="font: 6.94px 'Arial', sans-serif" transform="translate(319.037191 339.456682) rotate(-35)">Movement to Lateral Port</text>
   </g>
   <g id="text_14">
    <text style="font: 8.33px 'Arial', sans-serif; text-anchor: middle" x="227.411283" y="13.26398" transform="rotate(-0 227.411283 13.26398)">GP4_85_s7_L70_D250_ALM - Trace:85_GP4_85_s7_L70_D250_ALM (when: correct)</text>
   </g>
   <g id="legend_1">
    <g id="patch_4">
     <path d="M 129.837052 354.133136 
L 324.985514 354.133136 
Q 326.373514 354.133136 326.373514 352.745136 
L 326.373514 343.45638 
Q 326.373514 342.06838 324.985514 342.06838 
L 129.837052 342.06838 
Q 128.449052 342.06838 128.449052 343.45638 
L 128.449052 352.745136 
Q 128.449052 354.133136 129.837052 354.133136 
z
" style="fill: #ffffff; opacity: 0.8; stroke: #cccccc; stroke-linejoin: miter"/>
    </g>
    <g id="line2d_13">
     <path d="M 131.225052 347.467483 
L 138.165052 347.467483 
L 145.105052 347.467483 
" style="fill: none; stroke: #1f77b4; stroke-width: 1.5; stroke-linecap: square"/>
    </g>
    <g id="text_15">
     <text style="font: 6.94px 'Arial', sans-serif; text-anchor: start" x="150.657052" y="349.896483" transform="rotate(-0 150.657052 349.896483)">DecisionRight (109 pts)</text>
    </g>
    <g id="line2d_14">
     <path d="M 236.664255 347.467483 
L 243.604255 347.467483 
L 250.544255 347.467483 
" style="fill: none; stroke: #ff7f0e; stroke-width: 1.5; stroke-linecap: square"/>
    </g>
    <g id="text_16">
     <text style="font: 6.94px 'Arial', sans-serif; text-anchor: start" x="256.096255" y="349.896483" transform="rotate(-0 256.096255 349.896483)">DecisionLeft (103 pts)</text>
    </g>
   </g>
  </g>
 </g>
 <defs>
  <clipPath id="pebbc6dfeef">
   <rect x="48.851283" y="19.26398" width="357.12" height="266.112"/>
  </clipPath>
 </defs>
</svg>
