<?xml version="1.0" encoding="utf-8" standalone="no"?>
<!DOCTYPE svg PUBLIC "-//W3C//DTD SVG 1.1//EN"
  "http://www.w3.org/Graphics/SVG/1.1/DTD/svg11.dtd">
<svg xmlns:xlink="http://www.w3.org/1999/xlink" width="413.171283pt" height="361.333136pt" viewBox="0 0 413.171283 361.333136" xmlns="http://www.w3.org/2000/svg" version="1.1">
 <metadata>
  <rdf:RDF xmlns:dc="http://purl.org/dc/elements/1.1/" xmlns:cc="http://creativecommons.org/ns#" xmlns:rdf="http://www.w3.org/1999/02/22-rdf-syntax-ns#">
   <cc:Work>
    <dc:type rdf:resource="http://purl.org/dc/dcmitype/StillImage"/>
    <dc:date>2025-12-29T04:07:51.333030</dc:date>
    <dc:format>image/svg+xml</dc:format>
    <dc:creator>
     <cc:Agent>
      <dc:title>Matplotlib v3.8.0, https://matplotlib.org/</dc:title>
     </cc:Agent>
    </dc:creator>
   </cc:Work>
  </rdf:RDF>
 </metadata>
 <defs>
  <style type="text/css">*{stroke-linejoin: round; stroke-linecap: butt}</style>
 </defs>
 <g id="figure_1">
  <g id="patch_1">
   <path d="M 0 361.333136 
L 413.171283 361.333136 
L 413.171283 -0 
L 0 -0 
z
" style="fill: #ffffff"/>
  </g>
  <g id="axes_1">
   <g id="patch_2">
    <path d="M 48.851283 285.37598 
L 405.971283 285.37598 
L 405.971283 19.26398 
L 48.851283 19.26398 
z
" style="fill: #ffffff"/>
   </g>
   <g id="PolyCollection_1">
    <defs>
     <path id="mebea4a0123" d="M 48.851283 -118.773278 
L 48.851283 -88.053156 
L 60.011283 -88.160173 
L 71.171283 -97.66489 
L 82.331283 -106.236506 
L 93.491283 -107.034407 
L 104.651283 -119.042237 
L 115.811283 -137.730328 
L 126.971283 -146.436496 
L 138.131283 -160.08894 
L 149.291283 -163.261345 
L 160.451283 -157.723774 
L 171.611283 -165.613073 
L 182.771283 -175.264805 
L 193.931283 -188.118061 
L 205.091283 -190.996078 
L 216.251283 -194.55475 
L 227.411283 -196.888054 
L 238.571283 -197.748458 
L 249.731283 -191.558674 
L 260.891283 -175.805806 
L 272.051283 -152.147698 
L 283.211283 -149.066701 
L 294.371283 -163.333689 
L 305.531283 -157.555797 
L 316.691283 -150.153664 
L 327.851283 -148.305124 
L 339.011283 -143.149995 
L 350.171283 -150.509452 
L 361.331283 -162.369812 
L 372.491283 -173.034956 
L 383.651283 -203.126334 
L 394.811283 -226.638097 
L 405.971283 -238.234326 
L 405.971283 -329.973156 
L 405.971283 -329.973156 
L 394.811283 -313.706483 
L 383.651283 -284.901733 
L 372.491283 -244.721338 
L 361.331283 -221.648361 
L 350.171283 -203.942795 
L 339.011283 -193.453122 
L 327.851283 -194.712445 
L 316.691283 -195.783552 
L 305.531283 -205.977245 
L 294.371283 -218.918932 
L 283.211283 -209.402223 
L 272.051283 -210.083347 
L 260.891283 -234.313734 
L 249.731283 -254.058844 
L 238.571283 -260.788606 
L 227.411283 -259.087301 
L 216.251283 -258.460289 
L 205.091283 -254.563311 
L 193.931283 -251.361872 
L 182.771283 -241.437241 
L 171.611283 -226.263844 
L 160.451283 -216.413272 
L 149.291283 -221.677933 
L 138.131283 -213.498294 
L 126.971283 -193.842711 
L 115.811283 -178.782961 
L 104.651283 -154.08484 
L 93.491283 -139.564243 
L 82.331283 -137.014617 
L 71.171283 -128.443438 
L 60.011283 -120.448318 
L 48.851283 -118.773278 
z
" style="stroke: #1f77b4; stroke-opacity: 0.2"/>
    </defs>
    <g clip-path="url(#p7ea0d7f0a0)">
     <use xlink:href="#mebea4a0123" x="0" y="361.333136" style="fill: #1f77b4; fill-opacity: 0.2; stroke: #1f77b4; stroke-opacity: 0.2"/>
    </g>
   </g>
   <g id="PolyCollection_2">
    <defs>
     <path id="ma810c0e99c" d="M 48.851283 -162.115244 
L 48.851283 -123.533834 
L 60.011283 -124.343852 
L 71.171283 -120.343283 
L 82.331283 -131.338073 
L 93.491283 -138.284058 
L 104.651283 -133.006404 
L 115.811283 -147.064061 
L 126.971283 -144.954326 
L 138.131283 -135.118526 
L 149.291283 -141.948039 
L 160.451283 -158.92843 
L 171.611283 -166.841097 
L 182.771283 -174.756272 
L 193.931283 -151.936187 
L 205.091283 -129.359124 
L 216.251283 -109.1111 
L 227.411283 -123.680558 
L 238.571283 -134.732892 
L 249.731283 -132.626129 
L 260.891283 -137.980011 
L 272.051283 -142.986517 
L 283.211283 -142.693852 
L 294.371283 -142.469801 
L 305.531283 -119.611801 
L 316.691283 -108.809962 
L 327.851283 -109.473012 
L 339.011283 -99.120628 
L 350.171283 -97.129908 
L 361.331283 -99.462436 
L 372.491283 -101.276242 
L 383.651283 -100.649055 
L 394.811283 -98.88352 
L 405.971283 -97.846236 
L 405.971283 -134.946118 
L 405.971283 -134.946118 
L 394.811283 -134.295507 
L 383.651283 -134.002317 
L 372.491283 -132.410133 
L 361.331283 -135.575792 
L 350.171283 -134.109501 
L 339.011283 -135.761771 
L 327.851283 -147.966346 
L 316.691283 -149.127363 
L 305.531283 -163.182281 
L 294.371283 -190.323486 
L 283.211283 -190.32669 
L 272.051283 -187.631455 
L 260.891283 -182.215044 
L 249.731283 -180.287163 
L 238.571283 -182.160996 
L 227.411283 -172.364311 
L 216.251283 -159.297956 
L 205.091283 -173.563654 
L 193.931283 -192.108379 
L 182.771283 -214.21015 
L 171.611283 -207.092808 
L 160.451283 -197.267074 
L 149.291283 -180.532836 
L 138.131283 -175.768249 
L 126.971283 -188.296127 
L 115.811283 -190.14396 
L 104.651283 -177.233271 
L 93.491283 -181.918678 
L 82.331283 -170.661764 
L 71.171283 -157.837855 
L 60.011283 -162.42019 
L 48.851283 -162.115244 
z
" style="stroke: #ff7f0e; stroke-opacity: 0.2"/>
    </defs>
    <g clip-path="url(#p7ea0d7f0a0)">
     <use xlink:href="#ma810c0e99c" x="0" y="361.333136" style="fill: #ff7f0e; fill-opacity: 0.2; stroke: #ff7f0e; stroke-opacity: 0.2"/>
    </g>
   </g>
   <g id="matplotlib.axis_1">
    <g id="text_1">
     <text style="font: 10px 'Arial', sans-serif; text-anchor: middle" x="227.411283" y="296.533792" transform="rotate(-0 227.411283 296.533792)">Time</text>
    </g>
   </g>
   <g id="matplotlib.axis_2">
    <g id="ytick_1">
     <g id="line2d_1">
      <defs>
       <path id="mcfeb29d284" d="M 0 0 
L -3.5 0 
" style="stroke: #000000; stroke-width: 0.8"/>
      </defs>
      <g>
       <use xlink:href="#mcfeb29d284" x="48.851283" y="236.074903" style="stroke: #000000; stroke-width: 0.8"/>
      </g>
     </g>
     <g id="text_2">
      <text style="font: 10px 'Arial', sans-serif; text-anchor: end" x="41.851283" y="239.653809" transform="rotate(-0 41.851283 239.653809)">−0.2</text>
     </g>
    </g>
    <g id="ytick_2">
     <g id="line2d_2">
      <g>
       <use xlink:href="#mcfeb29d284" x="48.851283" y="182.662783" style="stroke: #000000; stroke-width: 0.8"/>
      </g>
     </g>
     <g id="text_3">
      <text style="font: 10px 'Arial', sans-serif; text-anchor: end" x="41.851283" y="186.24169" transform="rotate(-0 41.851283 186.24169)">0.0</text>
     </g>
    </g>
    <g id="ytick_3">
     <g id="line2d_3">
      <g>
       <use xlink:href="#mcfeb29d284" x="48.851283" y="129.250664" style="stroke: #000000; stroke-width: 0.8"/>
      </g>
     </g>
     <g id="text_4">
      <text style="font: 10px 'Arial', sans-serif; text-anchor: end" x="41.851283" y="132.82957" transform="rotate(-0 41.851283 132.82957)">0.2</text>
     </g>
    </g>
    <g id="ytick_4">
     <g id="line2d_4">
      <g>
       <use xlink:href="#mcfeb29d284" x="48.851283" y="75.838545" style="stroke: #000000; stroke-width: 0.8"/>
      </g>
     </g>
     <g id="text_5">
      <text style="font: 10px 'Arial', sans-serif; text-anchor: end" x="41.851283" y="79.417451" transform="rotate(-0 41.851283 79.417451)">0.4</text>
     </g>
    </g>
    <g id="ytick_5">
     <g id="line2d_5">
      <g>
       <use xlink:href="#mcfeb29d284" x="48.851283" y="22.426425" style="stroke: #000000; stroke-width: 0.8"/>
      </g>
     </g>
     <g id="text_6">
      <text style="font: 10px 'Arial', sans-serif; text-anchor: end" x="41.851283" y="26.005331" transform="rotate(-0 41.851283 26.005331)">0.6</text>
     </g>
    </g>
    <g id="text_7">
     <text style="font: 10px 'Arial', sans-serif; text-anchor: middle" x="16.005971" y="152.31998" transform="rotate(-90 16.005971 152.31998)">Activity</text>
    </g>
   </g>
   <g id="line2d_6">
    <path d="M 48.851283 257.919919 
L 60.011283 257.02889 
L 71.171283 248.278972 
L 82.331283 239.707574 
L 93.491283 238.033811 
L 104.651283 224.769597 
L 115.811283 203.076491 
L 126.971283 191.193532 
L 138.131283 174.53952 
L 149.291283 168.863497 
L 160.451283 174.264614 
L 171.611283 165.394678 
L 182.771283 152.982113 
L 193.931283 141.593171 
L 205.091283 138.553439 
L 216.251283 134.825619 
L 227.411283 133.345459 
L 238.571283 132.064605 
L 249.731283 138.524377 
L 260.891283 156.273367 
L 272.051283 180.217612 
L 283.211283 182.098673 
L 294.371283 170.206826 
L 305.531283 179.566616 
L 316.691283 188.364527 
L 327.851283 189.824352 
L 339.011283 193.031577 
L 350.171283 184.107012 
L 361.331283 169.324051 
L 372.491283 152.454989 
L 383.651283 117.3191 
L 394.811283 91.160846 
L 405.971283 77.229391 
" clip-path="url(#p7ea0d7f0a0)" style="fill: none; stroke: #1f77b4; stroke-width: 1.5; stroke-linecap: square"/>
   </g>
   <g id="line2d_7">
    <path d="M 48.851283 218.508597 
L 60.011283 217.951115 
L 71.171283 222.242566 
L 82.331283 210.333219 
L 93.491283 201.231768 
L 104.651283 206.213299 
L 115.811283 192.729126 
L 126.971283 194.707909 
L 138.131283 205.889748 
L 149.291283 200.092698 
L 160.451283 183.235384 
L 171.611283 174.366183 
L 182.771283 166.849925 
L 193.931283 189.310853 
L 205.091283 209.871747 
L 216.251283 227.128608 
L 227.411283 213.310702 
L 238.571283 202.886193 
L 249.731283 204.876489 
L 260.891283 201.235608 
L 272.051283 196.024151 
L 283.211283 194.822864 
L 294.371283 194.936492 
L 305.531283 219.936096 
L 316.691283 232.364473 
L 327.851283 232.613456 
L 339.011283 243.891937 
L 350.171283 245.713431 
L 361.331283 243.814022 
L 372.491283 244.489946 
L 383.651283 244.00745 
L 394.811283 244.743624 
L 405.971283 244.936961 
" clip-path="url(#p7ea0d7f0a0)" style="fill: none; stroke: #ff7f0e; stroke-width: 1.5; stroke-linecap: square"/>
   </g>
   <g id="line2d_8">
    <path d="M 82.331283 285.37598 
L 82.331283 19.26398 
" clip-path="url(#p7ea0d7f0a0)" style="fill: none; stroke-dasharray: 5.55,2.4; stroke-dashoffset: 0; stroke: #000000; stroke-opacity: 0.5; stroke-width: 1.5"/>
   </g>
   <g id="line2d_9">
    <path d="M 383.651283 285.37598 
L 383.651283 19.26398 
" clip-path="url(#p7ea0d7f0a0)" style="fill: none; stroke-dasharray: 5.55,2.4; stroke-dashoffset: 0; stroke: #000000; stroke-opacity: 0.5; stroke-width: 1.5"/>
   </g>
   <g id="patch_3">
    <path d="M 48.851283 285.37598 
L 405.971283 285.37598 
" style="fill: none; stroke: #000000; stroke-width: 0.8; stroke-linejoin: miter; stroke-linecap: square"/>
   </g>
   <g id="text_8">
    <text style="font: 6.94px 'Arial', sans-serif" transform="translate(10.097767 321.385533) rotate(-35)">-0.1s Sampling</text>
   </g>
   <g id="text_9">
    <text style="font: 6.94px 'Arial', sans-serif" transform="translate(57.794497 311.430872) rotate(-35)">Sampling</text>
   </g>
   <g id="text_10">
    <text style="font: 6.94px 'Arial', sans-serif" transform="translate(319.037191 339.456682) rotate(-35)">Movement to Lateral Port</text>
   </g>
   <g id="text_11">
    <text style="font: 8.33px 'Arial', sans-serif; text-anchor: middle" x="227.411283" y="13.26398" transform="rotate(-0 227.411283 13.26398)">GP4_85_s3_L70_D250_mm2 - Trace:109_GP4_85_s3_L70_D250_mm2 (when: correct)</text>
   </g>
   <g id="legend_1">
    <g id="patch_4">
     <path d="M 131.766697 354.133136 
L 323.055869 354.133136 
Q 324.443869 354.133136 324.443869 352.745136 
L 324.443869 343.45638 
Q 324.443869 342.06838 323.055869 342.06838 
L 131.766697 342.06838 
Q 130.378697 342.06838 130.378697 343.45638 
L 130.378697 352.745136 
Q 130.378697 354.133136 131.766697 354.133136 
z
" style="fill: #ffffff; opacity: 0.8; stroke: #cccccc; stroke-linejoin: miter"/>
    </g>
    <g id="line2d_10">
     <path d="M 133.154697 347.467483 
L 140.094697 347.467483 
L 147.034697 347.467483 
" style="fill: none; stroke: #1f77b4; stroke-width: 1.5; stroke-linecap: square"/>
    </g>
    <g id="text_12">
     <text style="font: 6.94px 'Arial', sans-serif; text-anchor: start" x="152.586697" y="349.896483" transform="rotate(-0 152.586697 349.896483)">DecisionRight (100 pts)</text>
    </g>
    <g id="line2d_11">
     <path d="M 238.5939 347.467483 
L 245.5339 347.467483 
L 252.4739 347.467483 
" style="fill: none; stroke: #ff7f0e; stroke-width: 1.5; stroke-linecap: square"/>
    </g>
    <g id="text_13">
     <text style="font: 6.94px 'Arial', sans-serif; text-anchor: start" x="258.0259" y="349.896483" transform="rotate(-0 258.0259 349.896483)">DecisionLeft (95 pts)</text>
    </g>
   </g>
  </g>
 </g>
 <defs>
  <clipPath id="p7ea0d7f0a0">
   <rect x="48.851283" y="19.26398" width="357.12" height="266.112"/>
  </clipPath>
 </defs>
</svg>
