<?xml version="1.0" encoding="utf-8" standalone="no"?>
<!DOCTYPE svg PUBLIC "-//W3C//DTD SVG 1.1//EN"
  "http://www.w3.org/Graphics/SVG/1.1/DTD/svg11.dtd">
<svg xmlns:xlink="http://www.w3.org/1999/xlink" width="413.171283pt" height="361.333136pt" viewBox="0 0 413.171283 361.333136" xmlns="http://www.w3.org/2000/svg" version="1.1">
 <metadata>
  <rdf:RDF xmlns:dc="http://purl.org/dc/elements/1.1/" xmlns:cc="http://creativecommons.org/ns#" xmlns:rdf="http://www.w3.org/1999/02/22-rdf-syntax-ns#">
   <cc:Work>
    <dc:type rdf:resource="http://purl.org/dc/dcmitype/StillImage"/>
    <dc:date>2025-12-29T04:07:49.874094</dc:date>
    <dc:format>image/svg+xml</dc:format>
    <dc:creator>
     <cc:Agent>
      <dc:title>Matplotlib v3.8.0, https://matplotlib.org/</dc:title>
     </cc:Agent>
    </dc:creator>
   </cc:Work>
  </rdf:RDF>
 </metadata>
 <defs>
  <style type="text/css">*{stroke-linejoin: round; stroke-linecap: butt}</style>
 </defs>
 <g id="figure_1">
  <g id="patch_1">
   <path d="M 0 361.333136 
L 413.171283 361.333136 
L 413.171283 -0 
L 0 -0 
z
" style="fill: #ffffff"/>
  </g>
  <g id="axes_1">
   <g id="patch_2">
    <path d="M 48.851283 285.37598 
L 405.971283 285.37598 
L 405.971283 19.26398 
L 48.851283 19.26398 
z
" style="fill: #ffffff"/>
   </g>
   <g id="PolyCollection_1">
    <defs>
     <path id="me40f470e1f" d="M 48.851283 -244.047097 
L 48.851283 -186.711215 
L 60.011283 -198.244851 
L 71.171283 -210.259642 
L 82.331283 -199.221615 
L 93.491283 -187.058679 
L 104.651283 -217.092445 
L 115.811283 -209.545283 
L 126.971283 -214.437545 
L 138.131283 -246.128842 
L 149.291283 -256.535681 
L 160.451283 -254.680686 
L 171.611283 -216.2262 
L 182.771283 -211.435224 
L 193.931283 -235.035998 
L 205.091283 -253.233321 
L 216.251283 -236.871891 
L 227.411283 -195.39558 
L 238.571283 -171.999987 
L 249.731283 -190.085303 
L 260.891283 -199.432286 
L 272.051283 -192.944363 
L 283.211283 -177.046331 
L 294.371283 -152.836947 
L 305.531283 -142.895254 
L 316.691283 -165.571643 
L 327.851283 -148.069058 
L 339.011283 -155.439436 
L 350.171283 -177.323445 
L 361.331283 -148.987438 
L 372.491283 -115.051298 
L 383.651283 -116.850768 
L 394.811283 -138.543931 
L 405.971283 -138.57041 
L 405.971283 -219.425475 
L 405.971283 -219.425475 
L 394.811283 -218.38579 
L 383.651283 -184.903599 
L 372.491283 -175.330291 
L 361.331283 -210.067016 
L 350.171283 -240.104865 
L 339.011283 -221.317724 
L 327.851283 -215.909483 
L 316.691283 -236.044264 
L 305.531283 -214.563304 
L 294.371283 -223.003601 
L 283.211283 -246.531645 
L 272.051283 -267.857561 
L 260.891283 -274.828614 
L 249.731283 -264.02226 
L 238.571283 -240.163338 
L 227.411283 -260.794026 
L 216.251283 -305.006621 
L 205.091283 -319.209394 
L 193.931283 -292.869049 
L 182.771283 -275.408952 
L 171.611283 -290.405045 
L 160.451283 -329.973156 
L 149.291283 -326.42671 
L 138.131283 -318.675622 
L 126.971283 -284.686554 
L 115.811283 -269.718785 
L 104.651283 -265.725149 
L 93.491283 -233.326111 
L 82.331283 -246.142429 
L 71.171283 -260.113963 
L 60.011283 -253.90785 
L 48.851283 -244.047097 
z
" style="stroke: #1f77b4; stroke-opacity: 0.2"/>
    </defs>
    <g clip-path="url(#p5b50e5015a)">
     <use xlink:href="#me40f470e1f" x="0" y="361.333136" style="fill: #1f77b4; fill-opacity: 0.2; stroke: #1f77b4; stroke-opacity: 0.2"/>
    </g>
   </g>
   <g id="PolyCollection_2">
    <defs>
     <path id="m9838d23b25" d="M 48.851283 -273.17294 
L 48.851283 -199.116873 
L 60.011283 -187.534305 
L 71.171283 -204.12694 
L 82.331283 -200.022797 
L 93.491283 -186.187923 
L 104.651283 -180.41486 
L 115.811283 -193.941544 
L 126.971283 -208.705524 
L 138.131283 -233.171297 
L 149.291283 -239.069972 
L 160.451283 -248.988075 
L 171.611283 -248.921889 
L 182.771283 -248.074898 
L 193.931283 -220.070349 
L 205.091283 -191.572895 
L 216.251283 -196.669994 
L 227.411283 -198.623907 
L 238.571283 -192.08432 
L 249.731283 -194.760841 
L 260.891283 -199.229037 
L 272.051283 -202.776127 
L 283.211283 -173.758771 
L 294.371283 -118.298264 
L 305.531283 -123.865139 
L 316.691283 -154.215486 
L 327.851283 -140.262266 
L 339.011283 -117.655777 
L 350.171283 -123.167877 
L 361.331283 -119.979242 
L 372.491283 -118.23659 
L 383.651283 -113.381224 
L 394.811283 -103.719537 
L 405.971283 -88.053156 
L 405.971283 -155.403817 
L 405.971283 -155.403817 
L 394.811283 -164.224637 
L 383.651283 -171.182548 
L 372.491283 -175.359118 
L 361.331283 -179.77949 
L 350.171283 -187.488942 
L 339.011283 -185.098703 
L 327.851283 -212.737792 
L 316.691283 -218.54015 
L 305.531283 -190.982192 
L 294.371283 -188.033944 
L 283.211283 -240.862889 
L 272.051283 -268.826338 
L 260.891283 -277.511788 
L 249.731283 -271.682369 
L 238.571283 -266.042862 
L 227.411283 -277.440015 
L 216.251283 -270.539318 
L 205.091283 -270.450947 
L 193.931283 -298.867767 
L 182.771283 -326.285751 
L 171.611283 -322.04786 
L 160.451283 -314.244083 
L 149.291283 -301.907611 
L 138.131283 -296.243438 
L 126.971283 -265.168702 
L 115.811283 -246.15158 
L 104.651283 -234.07276 
L 93.491283 -244.605902 
L 82.331283 -256.446689 
L 71.171283 -261.912869 
L 60.011283 -251.303447 
L 48.851283 -273.17294 
z
" style="stroke: #ff7f0e; stroke-opacity: 0.2"/>
    </defs>
    <g clip-path="url(#p5b50e5015a)">
     <use xlink:href="#m9838d23b25" x="0" y="361.333136" style="fill: #ff7f0e; fill-opacity: 0.2; stroke: #ff7f0e; stroke-opacity: 0.2"/>
    </g>
   </g>
   <g id="matplotlib.axis_1">
    <g id="text_1">
     <text style="font: 10px 'Arial', sans-serif; text-anchor: middle" x="227.411283" y="296.533792" transform="rotate(-0 227.411283 296.533792)">Time</text>
    </g>
   </g>
   <g id="matplotlib.axis_2">
    <g id="ytick_1">
     <g id="line2d_1">
      <defs>
       <path id="m6fdbaba2c8" d="M 0 0 
L -3.5 0 
" style="stroke: #000000; stroke-width: 0.8"/>
      </defs>
      <g>
       <use xlink:href="#m6fdbaba2c8" x="48.851283" y="276.749242" style="stroke: #000000; stroke-width: 0.8"/>
      </g>
     </g>
     <g id="text_2">
      <text style="font: 10px 'Arial', sans-serif; text-anchor: end" x="41.851283" y="280.328148" transform="rotate(-0 41.851283 280.328148)">−0.4</text>
     </g>
    </g>
    <g id="ytick_2">
     <g id="line2d_2">
      <g>
       <use xlink:href="#m6fdbaba2c8" x="48.851283" y="232.235844" style="stroke: #000000; stroke-width: 0.8"/>
      </g>
     </g>
     <g id="text_3">
      <text style="font: 10px 'Arial', sans-serif; text-anchor: end" x="41.851283" y="235.81475" transform="rotate(-0 41.851283 235.81475)">−0.3</text>
     </g>
    </g>
    <g id="ytick_3">
     <g id="line2d_3">
      <g>
       <use xlink:href="#m6fdbaba2c8" x="48.851283" y="187.722446" style="stroke: #000000; stroke-width: 0.8"/>
      </g>
     </g>
     <g id="text_4">
      <text style="font: 10px 'Arial', sans-serif; text-anchor: end" x="41.851283" y="191.301352" transform="rotate(-0 41.851283 191.301352)">−0.2</text>
     </g>
    </g>
    <g id="ytick_4">
     <g id="line2d_4">
      <g>
       <use xlink:href="#m6fdbaba2c8" x="48.851283" y="143.209048" style="stroke: #000000; stroke-width: 0.8"/>
      </g>
     </g>
     <g id="text_5">
      <text style="font: 10px 'Arial', sans-serif; text-anchor: end" x="41.851283" y="146.787954" transform="rotate(-0 41.851283 146.787954)">−0.1</text>
     </g>
    </g>
    <g id="ytick_5">
     <g id="line2d_5">
      <g>
       <use xlink:href="#m6fdbaba2c8" x="48.851283" y="98.69565" style="stroke: #000000; stroke-width: 0.8"/>
      </g>
     </g>
     <g id="text_6">
      <text style="font: 10px 'Arial', sans-serif; text-anchor: end" x="41.851283" y="102.274556" transform="rotate(-0 41.851283 102.274556)">0.0</text>
     </g>
    </g>
    <g id="ytick_6">
     <g id="line2d_6">
      <g>
       <use xlink:href="#m6fdbaba2c8" x="48.851283" y="54.182252" style="stroke: #000000; stroke-width: 0.8"/>
      </g>
     </g>
     <g id="text_7">
      <text style="font: 10px 'Arial', sans-serif; text-anchor: end" x="41.851283" y="57.761158" transform="rotate(-0 41.851283 57.761158)">0.1</text>
     </g>
    </g>
    <g id="text_8">
     <text style="font: 10px 'Arial', sans-serif; text-anchor: middle" x="16.005971" y="152.31998" transform="rotate(-90 16.005971 152.31998)">Activity</text>
    </g>
   </g>
   <g id="line2d_7">
    <path d="M 48.851283 145.953978 
L 60.011283 135.256785 
L 71.171283 126.146333 
L 82.331283 138.651114 
L 93.491283 151.140743 
L 104.651283 119.924338 
L 115.811283 121.701102 
L 126.971283 111.771087 
L 138.131283 78.930902 
L 149.291283 69.851939 
L 160.451283 69.006216 
L 171.611283 108.017512 
L 182.771283 117.911048 
L 193.931283 97.380613 
L 205.091283 75.111777 
L 216.251283 90.39388 
L 227.411283 133.238333 
L 238.571283 155.251473 
L 249.731283 134.279355 
L 260.891283 124.202685 
L 272.051283 130.932174 
L 283.211283 149.544147 
L 294.371283 173.412862 
L 305.531283 182.603857 
L 316.691283 160.525183 
L 327.851283 179.343864 
L 339.011283 172.954554 
L 350.171283 152.618983 
L 361.331283 181.805906 
L 372.491283 216.142342 
L 383.651283 210.455952 
L 394.811283 182.868276 
L 405.971283 182.335194 
" clip-path="url(#p5b50e5015a)" style="fill: none; stroke: #1f77b4; stroke-width: 1.5; stroke-linecap: square"/>
   </g>
   <g id="line2d_8">
    <path d="M 48.851283 125.18823 
L 60.011283 141.914258 
L 71.171283 128.313231 
L 82.331283 133.098393 
L 93.491283 145.936225 
L 104.651283 154.089326 
L 115.811283 141.286572 
L 126.971283 124.396024 
L 138.131283 96.625769 
L 149.291283 90.844345 
L 160.451283 79.717057 
L 171.611283 75.848261 
L 182.771283 74.152811 
L 193.931283 101.864077 
L 205.091283 130.321217 
L 216.251283 127.728478 
L 227.411283 123.301175 
L 238.571283 132.269545 
L 249.731283 128.111531 
L 260.891283 122.962723 
L 272.051283 125.531904 
L 283.211283 154.022306 
L 294.371283 208.167032 
L 305.531283 203.909467 
L 316.691283 174.955316 
L 327.851283 184.833107 
L 339.011283 209.955896 
L 350.171283 206.004723 
L 361.331283 211.45377 
L 372.491283 214.535282 
L 383.651283 219.05125 
L 394.811283 227.361049 
L 405.971283 239.604649 
" clip-path="url(#p5b50e5015a)" style="fill: none; stroke: #ff7f0e; stroke-width: 1.5; stroke-linecap: square"/>
   </g>
   <g id="line2d_9">
    <path d="M 82.331283 285.37598 
L 82.331283 19.26398 
" clip-path="url(#p5b50e5015a)" style="fill: none; stroke-dasharray: 5.55,2.4; stroke-dashoffset: 0; stroke: #000000; stroke-opacity: 0.5; stroke-width: 1.5"/>
   </g>
   <g id="line2d_10">
    <path d="M 383.651283 285.37598 
L 383.651283 19.26398 
" clip-path="url(#p5b50e5015a)" style="fill: none; stroke-dasharray: 5.55,2.4; stroke-dashoffset: 0; stroke: #000000; stroke-opacity: 0.5; stroke-width: 1.5"/>
   </g>
   <g id="patch_3">
    <path d="M 48.851283 285.37598 
L 405.971283 285.37598 
" style="fill: none; stroke: #000000; stroke-width: 0.8; stroke-linejoin: miter; stroke-linecap: square"/>
   </g>
   <g id="text_9">
    <text style="font: 6.94px 'Arial', sans-serif" transform="translate(10.097767 321.385533) rotate(-35)">-0.1s Sampling</text>
   </g>
   <g id="text_10">
    <text style="font: 6.94px 'Arial', sans-serif" transform="translate(57.794497 311.430872) rotate(-35)">Sampling</text>
   </g>
   <g id="text_11">
    <text style="font: 6.94px 'Arial', sans-serif" transform="translate(319.037191 339.456682) rotate(-35)">Movement to Lateral Port</text>
   </g>
   <g id="text_12">
    <text style="font: 8.33px 'Arial', sans-serif; text-anchor: middle" x="227.411283" y="13.26398" transform="rotate(-0 227.411283 13.26398)">GP4_85_s3_L70_D250_mm2 - Trace:122_GP4_85_s3_L70_D250_mm2 (when: correct)</text>
   </g>
   <g id="legend_1">
    <g id="patch_4">
     <path d="M 131.766697 354.133136 
L 323.055869 354.133136 
Q 324.443869 354.133136 324.443869 352.745136 
L 324.443869 343.45638 
Q 324.443869 342.06838 323.055869 342.06838 
L 131.766697 342.06838 
Q 130.378697 342.06838 130.378697 343.45638 
L 130.378697 352.745136 
Q 130.378697 354.133136 131.766697 354.133136 
z
" style="fill: #ffffff; opacity: 0.8; stroke: #cccccc; stroke-linejoin: miter"/>
    </g>
    <g id="line2d_11">
     <path d="M 133.154697 347.467483 
L 140.094697 347.467483 
L 147.034697 347.467483 
" style="fill: none; stroke: #1f77b4; stroke-width: 1.5; stroke-linecap: square"/>
    </g>
    <g id="text_13">
     <text style="font: 6.94px 'Arial', sans-serif; text-anchor: start" x="152.586697" y="349.896483" transform="rotate(-0 152.586697 349.896483)">DecisionRight (100 pts)</text>
    </g>
    <g id="line2d_12">
     <path d="M 238.5939 347.467483 
L 245.5339 347.467483 
L 252.4739 347.467483 
" style="fill: none; stroke: #ff7f0e; stroke-width: 1.5; stroke-linecap: square"/>
    </g>
    <g id="text_14">
     <text style="font: 6.94px 'Arial', sans-serif; text-anchor: start" x="258.0259" y="349.896483" transform="rotate(-0 258.0259 349.896483)">DecisionLeft (95 pts)</text>
    </g>
   </g>
  </g>
 </g>
 <defs>
  <clipPath id="p5b50e5015a">
   <rect x="48.851283" y="19.26398" width="357.12" height="266.112"/>
  </clipPath>
 </defs>
</svg>
