<?xml version="1.0" encoding="utf-8" standalone="no"?>
<!DOCTYPE svg PUBLIC "-//W3C//DTD SVG 1.1//EN"
  "http://www.w3.org/Graphics/SVG/1.1/DTD/svg11.dtd">
<svg xmlns:xlink="http://www.w3.org/1999/xlink" width="413.171283pt" height="361.333136pt" viewBox="0 0 413.171283 361.333136" xmlns="http://www.w3.org/2000/svg" version="1.1">
 <metadata>
  <rdf:RDF xmlns:dc="http://purl.org/dc/elements/1.1/" xmlns:cc="http://creativecommons.org/ns#" xmlns:rdf="http://www.w3.org/1999/02/22-rdf-syntax-ns#">
   <cc:Work>
    <dc:type rdf:resource="http://purl.org/dc/dcmitype/StillImage"/>
    <dc:date>2025-12-29T04:07:50.610426</dc:date>
    <dc:format>image/svg+xml</dc:format>
    <dc:creator>
     <cc:Agent>
      <dc:title>Matplotlib v3.8.0, https://matplotlib.org/</dc:title>
     </cc:Agent>
    </dc:creator>
   </cc:Work>
  </rdf:RDF>
 </metadata>
 <defs>
  <style type="text/css">*{stroke-linejoin: round; stroke-linecap: butt}</style>
 </defs>
 <g id="figure_1">
  <g id="patch_1">
   <path d="M 0 361.333136 
L 413.171283 361.333136 
L 413.171283 -0 
L 0 -0 
z
" style="fill: #ffffff"/>
  </g>
  <g id="axes_1">
   <g id="patch_2">
    <path d="M 48.851283 285.37598 
L 405.971283 285.37598 
L 405.971283 19.26398 
L 48.851283 19.26398 
z
" style="fill: #ffffff"/>
   </g>
   <g id="PolyCollection_1">
    <defs>
     <path id="mb30638a5ba" d="M 48.851283 -142.893178 
L 48.851283 -110.664496 
L 60.011283 -137.00071 
L 71.171283 -148.369085 
L 82.331283 -159.057858 
L 93.491283 -161.566515 
L 104.651283 -175.23291 
L 115.811283 -203.53801 
L 126.971283 -221.935247 
L 138.131283 -230.645745 
L 149.291283 -230.500108 
L 160.451283 -237.259056 
L 171.611283 -242.692788 
L 182.771283 -239.638269 
L 193.931283 -258.3119 
L 205.091283 -267.700427 
L 216.251283 -245.93821 
L 227.411283 -231.516727 
L 238.571283 -227.844341 
L 249.731283 -231.899888 
L 260.891283 -229.622945 
L 272.051283 -225.689249 
L 283.211283 -218.68678 
L 294.371283 -213.400888 
L 305.531283 -198.741872 
L 316.691283 -176.987099 
L 327.851283 -154.605211 
L 339.011283 -133.746472 
L 350.171283 -134.867702 
L 361.331283 -131.278924 
L 372.491283 -125.44823 
L 383.651283 -117.509171 
L 394.811283 -106.950511 
L 405.971283 -88.053156 
L 405.971283 -153.827491 
L 405.971283 -153.827491 
L 394.811283 -171.490113 
L 383.651283 -177.853736 
L 372.491283 -180.733051 
L 361.331283 -183.48665 
L 350.171283 -182.308044 
L 339.011283 -182.12354 
L 327.851283 -202.863285 
L 316.691283 -226.68568 
L 305.531283 -249.680181 
L 294.371283 -264.978597 
L 283.211283 -269.700081 
L 272.051283 -279.013814 
L 260.891283 -283.990609 
L 249.731283 -286.817856 
L 238.571283 -286.155086 
L 227.411283 -290.189684 
L 216.251283 -307.591252 
L 205.091283 -329.973156 
L 193.931283 -315.206043 
L 182.771283 -292.553891 
L 171.611283 -289.699224 
L 160.451283 -278.883524 
L 149.291283 -263.698534 
L 138.131283 -260.756538 
L 126.971283 -251.782943 
L 115.811283 -235.389279 
L 104.651283 -206.511348 
L 93.491283 -190.423458 
L 82.331283 -187.934242 
L 71.171283 -178.344196 
L 60.011283 -168.744244 
L 48.851283 -142.893178 
z
" style="stroke: #1f77b4; stroke-opacity: 0.2"/>
    </defs>
    <g clip-path="url(#pbb152dce2c)">
     <use xlink:href="#mb30638a5ba" x="0" y="361.333136" style="fill: #1f77b4; fill-opacity: 0.2; stroke: #1f77b4; stroke-opacity: 0.2"/>
    </g>
   </g>
   <g id="PolyCollection_2">
    <defs>
     <path id="m343530598d" d="M 48.851283 -161.880751 
L 48.851283 -123.609907 
L 60.011283 -141.736641 
L 71.171283 -176.155634 
L 82.331283 -210.257166 
L 93.491283 -226.244582 
L 104.651283 -218.878158 
L 115.811283 -210.682496 
L 126.971283 -210.990297 
L 138.131283 -201.163727 
L 149.291283 -205.818614 
L 160.451283 -209.350002 
L 171.611283 -210.228213 
L 182.771283 -199.548016 
L 193.931283 -200.69665 
L 205.091283 -219.228477 
L 216.251283 -237.285626 
L 227.411283 -224.928544 
L 238.571283 -207.500333 
L 249.731283 -205.935359 
L 260.891283 -198.981491 
L 272.051283 -184.697642 
L 283.211283 -181.367798 
L 294.371283 -190.8347 
L 305.531283 -199.850041 
L 316.691283 -183.555423 
L 327.851283 -173.535188 
L 339.011283 -162.764811 
L 350.171283 -156.51913 
L 361.331283 -162.245763 
L 372.491283 -161.710718 
L 383.651283 -155.145112 
L 394.811283 -148.474069 
L 405.971283 -150.726293 
L 405.971283 -268.608152 
L 405.971283 -268.608152 
L 394.811283 -253.432485 
L 383.651283 -247.552126 
L 372.491283 -242.573565 
L 361.331283 -235.376104 
L 350.171283 -224.461683 
L 339.011283 -230.081187 
L 327.851283 -240.359633 
L 316.691283 -246.578609 
L 305.531283 -260.746602 
L 294.371283 -252.206541 
L 283.211283 -244.080151 
L 272.051283 -247.34178 
L 260.891283 -260.689339 
L 249.731283 -269.428143 
L 238.571283 -283.550047 
L 227.411283 -298.628343 
L 216.251283 -310.184696 
L 205.091283 -281.930647 
L 193.931283 -253.105693 
L 182.771283 -246.860911 
L 171.611283 -254.421016 
L 160.451283 -249.642612 
L 149.291283 -243.275197 
L 138.131283 -237.9345 
L 126.971283 -247.951372 
L 115.811283 -248.449319 
L 104.651283 -253.719284 
L 93.491283 -258.723024 
L 82.331283 -240.644689 
L 71.171283 -209.039482 
L 60.011283 -178.528444 
L 48.851283 -161.880751 
z
" style="stroke: #ff7f0e; stroke-opacity: 0.2"/>
    </defs>
    <g clip-path="url(#pbb152dce2c)">
     <use xlink:href="#m343530598d" x="0" y="361.333136" style="fill: #ff7f0e; fill-opacity: 0.2; stroke: #ff7f0e; stroke-opacity: 0.2"/>
    </g>
   </g>
   <g id="matplotlib.axis_1">
    <g id="text_1">
     <text style="font: 10px 'Arial', sans-serif; text-anchor: middle" x="227.411283" y="296.533792" transform="rotate(-0 227.411283 296.533792)">Time</text>
    </g>
   </g>
   <g id="matplotlib.axis_2">
    <g id="ytick_1">
     <g id="line2d_1">
      <defs>
       <path id="m204e2f23a9" d="M 0 0 
L -3.5 0 
" style="stroke: #000000; stroke-width: 0.8"/>
      </defs>
      <g>
       <use xlink:href="#m204e2f23a9" x="48.851283" y="239.950498" style="stroke: #000000; stroke-width: 0.8"/>
      </g>
     </g>
     <g id="text_2">
      <text style="font: 10px 'Arial', sans-serif; text-anchor: end" x="41.851283" y="243.529404" transform="rotate(-0 41.851283 243.529404)">−0.2</text>
     </g>
    </g>
    <g id="ytick_2">
     <g id="line2d_2">
      <g>
       <use xlink:href="#m204e2f23a9" x="48.851283" y="188.623075" style="stroke: #000000; stroke-width: 0.8"/>
      </g>
     </g>
     <g id="text_3">
      <text style="font: 10px 'Arial', sans-serif; text-anchor: end" x="41.851283" y="192.201981" transform="rotate(-0 41.851283 192.201981)">0.0</text>
     </g>
    </g>
    <g id="ytick_3">
     <g id="line2d_3">
      <g>
       <use xlink:href="#m204e2f23a9" x="48.851283" y="137.295652" style="stroke: #000000; stroke-width: 0.8"/>
      </g>
     </g>
     <g id="text_4">
      <text style="font: 10px 'Arial', sans-serif; text-anchor: end" x="41.851283" y="140.874558" transform="rotate(-0 41.851283 140.874558)">0.2</text>
     </g>
    </g>
    <g id="ytick_4">
     <g id="line2d_4">
      <g>
       <use xlink:href="#m204e2f23a9" x="48.851283" y="85.968228" style="stroke: #000000; stroke-width: 0.8"/>
      </g>
     </g>
     <g id="text_5">
      <text style="font: 10px 'Arial', sans-serif; text-anchor: end" x="41.851283" y="89.547135" transform="rotate(-0 41.851283 89.547135)">0.4</text>
     </g>
    </g>
    <g id="ytick_5">
     <g id="line2d_5">
      <g>
       <use xlink:href="#m204e2f23a9" x="48.851283" y="34.640805" style="stroke: #000000; stroke-width: 0.8"/>
      </g>
     </g>
     <g id="text_6">
      <text style="font: 10px 'Arial', sans-serif; text-anchor: end" x="41.851283" y="38.219711" transform="rotate(-0 41.851283 38.219711)">0.6</text>
     </g>
    </g>
    <g id="text_7">
     <text style="font: 10px 'Arial', sans-serif; text-anchor: middle" x="16.005971" y="152.31998" transform="rotate(-90 16.005971 152.31998)">Activity</text>
    </g>
   </g>
   <g id="line2d_6">
    <path d="M 48.851283 234.554298 
L 60.011283 208.460659 
L 71.171283 197.976496 
L 82.331283 187.837086 
L 93.491283 185.33815 
L 104.651283 170.461007 
L 115.811283 141.86949 
L 126.971283 124.474041 
L 138.131283 115.631995 
L 149.291283 114.233817 
L 160.451283 103.261846 
L 171.611283 95.13713 
L 182.771283 95.237056 
L 193.931283 74.574164 
L 205.091283 62.496344 
L 216.251283 84.568405 
L 227.411283 100.479931 
L 238.571283 104.333423 
L 249.731283 101.974264 
L 260.891283 104.526361 
L 272.051283 108.981604 
L 283.211283 117.139705 
L 294.371283 122.143391 
L 305.531283 137.122109 
L 316.691283 159.496745 
L 327.851283 182.598888 
L 339.011283 203.39813 
L 350.171283 202.745262 
L 361.331283 203.950349 
L 372.491283 208.242494 
L 383.651283 213.651682 
L 394.811283 222.112824 
L 405.971283 240.392813 
" clip-path="url(#pbb152dce2c)" style="fill: none; stroke: #1f77b4; stroke-width: 1.5; stroke-linecap: square"/>
   </g>
   <g id="line2d_7">
    <path d="M 48.851283 218.587807 
L 60.011283 201.200594 
L 71.171283 168.735578 
L 82.331283 135.882207 
L 93.491283 118.849333 
L 104.651283 125.034415 
L 115.811283 131.767228 
L 126.971283 131.862301 
L 138.131283 141.784024 
L 149.291283 136.78623 
L 160.451283 131.836829 
L 171.611283 129.008522 
L 182.771283 138.128671 
L 193.931283 134.431963 
L 205.091283 110.753574 
L 216.251283 87.597975 
L 227.411283 99.55469 
L 238.571283 115.807946 
L 249.731283 123.651385 
L 260.891283 131.497722 
L 272.051283 145.313427 
L 283.211283 148.609161 
L 294.371283 139.812515 
L 305.531283 131.034815 
L 316.691283 146.266121 
L 327.851283 154.385724 
L 339.011283 164.910136 
L 350.171283 170.84273 
L 361.331283 162.522202 
L 372.491283 159.190994 
L 383.651283 159.984519 
L 394.811283 160.379858 
L 405.971283 151.665913 
" clip-path="url(#pbb152dce2c)" style="fill: none; stroke: #ff7f0e; stroke-width: 1.5; stroke-linecap: square"/>
   </g>
   <g id="line2d_8">
    <path d="M 82.331283 285.37598 
L 82.331283 19.26398 
" clip-path="url(#pbb152dce2c)" style="fill: none; stroke-dasharray: 5.55,2.4; stroke-dashoffset: 0; stroke: #000000; stroke-opacity: 0.5; stroke-width: 1.5"/>
   </g>
   <g id="line2d_9">
    <path d="M 383.651283 285.37598 
L 383.651283 19.26398 
" clip-path="url(#pbb152dce2c)" style="fill: none; stroke-dasharray: 5.55,2.4; stroke-dashoffset: 0; stroke: #000000; stroke-opacity: 0.5; stroke-width: 1.5"/>
   </g>
   <g id="patch_3">
    <path d="M 48.851283 285.37598 
L 405.971283 285.37598 
" style="fill: none; stroke: #000000; stroke-width: 0.8; stroke-linejoin: miter; stroke-linecap: square"/>
   </g>
   <g id="text_8">
    <text style="font: 6.94px 'Arial', sans-serif" transform="translate(10.097767 321.385533) rotate(-35)">-0.1s Sampling</text>
   </g>
   <g id="text_9">
    <text style="font: 6.94px 'Arial', sans-serif" transform="translate(57.794497 311.430872) rotate(-35)">Sampling</text>
   </g>
   <g id="text_10">
    <text style="font: 6.94px 'Arial', sans-serif" transform="translate(319.037191 339.456682) rotate(-35)">Movement to Lateral Port</text>
   </g>
   <g id="text_11">
    <text style="font: 8.33px 'Arial', sans-serif; text-anchor: middle" x="227.411283" y="13.26398" transform="rotate(-0 227.411283 13.26398)">GP4_85_s3_L70_D250_mm2 - Trace:162_GP4_85_s3_L70_D250_mm2 (when: correct)</text>
   </g>
   <g id="legend_1">
    <g id="patch_4">
     <path d="M 131.766697 354.133136 
L 323.055869 354.133136 
Q 324.443869 354.133136 324.443869 352.745136 
L 324.443869 343.45638 
Q 324.443869 342.06838 323.055869 342.06838 
L 131.766697 342.06838 
Q 130.378697 342.06838 130.378697 343.45638 
L 130.378697 352.745136 
Q 130.378697 354.133136 131.766697 354.133136 
z
" style="fill: #ffffff; opacity: 0.8; stroke: #cccccc; stroke-linejoin: miter"/>
    </g>
    <g id="line2d_10">
     <path d="M 133.154697 347.467483 
L 140.094697 347.467483 
L 147.034697 347.467483 
" style="fill: none; stroke: #1f77b4; stroke-width: 1.5; stroke-linecap: square"/>
    </g>
    <g id="text_12">
     <text style="font: 6.94px 'Arial', sans-serif; text-anchor: start" x="152.586697" y="349.896483" transform="rotate(-0 152.586697 349.896483)">DecisionRight (100 pts)</text>
    </g>
    <g id="line2d_11">
     <path d="M 238.5939 347.467483 
L 245.5339 347.467483 
L 252.4739 347.467483 
" style="fill: none; stroke: #ff7f0e; stroke-width: 1.5; stroke-linecap: square"/>
    </g>
    <g id="text_13">
     <text style="font: 6.94px 'Arial', sans-serif; text-anchor: start" x="258.0259" y="349.896483" transform="rotate(-0 258.0259 349.896483)">DecisionLeft (95 pts)</text>
    </g>
   </g>
  </g>
 </g>
 <defs>
  <clipPath id="pbb152dce2c">
   <rect x="48.851283" y="19.26398" width="357.12" height="266.112"/>
  </clipPath>
 </defs>
</svg>
