<?xml version="1.0" encoding="utf-8" standalone="no"?>
<!DOCTYPE svg PUBLIC "-//W3C//DTD SVG 1.1//EN"
  "http://www.w3.org/Graphics/SVG/1.1/DTD/svg11.dtd">
<svg xmlns:xlink="http://www.w3.org/1999/xlink" width="413.171283pt" height="361.333136pt" viewBox="0 0 413.171283 361.333136" xmlns="http://www.w3.org/2000/svg" version="1.1">
 <metadata>
  <rdf:RDF xmlns:dc="http://purl.org/dc/elements/1.1/" xmlns:cc="http://creativecommons.org/ns#" xmlns:rdf="http://www.w3.org/1999/02/22-rdf-syntax-ns#">
   <cc:Work>
    <dc:type rdf:resource="http://purl.org/dc/dcmitype/StillImage"/>
    <dc:date>2025-12-29T04:07:49.545580</dc:date>
    <dc:format>image/svg+xml</dc:format>
    <dc:creator>
     <cc:Agent>
      <dc:title>Matplotlib v3.8.0, https://matplotlib.org/</dc:title>
     </cc:Agent>
    </dc:creator>
   </cc:Work>
  </rdf:RDF>
 </metadata>
 <defs>
  <style type="text/css">*{stroke-linejoin: round; stroke-linecap: butt}</style>
 </defs>
 <g id="figure_1">
  <g id="patch_1">
   <path d="M 0 361.333136 
L 413.171283 361.333136 
L 413.171283 -0 
L 0 -0 
z
" style="fill: #ffffff"/>
  </g>
  <g id="axes_1">
   <g id="patch_2">
    <path d="M 48.851283 285.37598 
L 405.971283 285.37598 
L 405.971283 19.26398 
L 48.851283 19.26398 
z
" style="fill: #ffffff"/>
   </g>
   <g id="PolyCollection_1">
    <defs>
     <path id="m43814a6cc2" d="M 48.851283 -134.885887 
L 48.851283 -110.699017 
L 60.011283 -128.281614 
L 71.171283 -159.545463 
L 82.331283 -200.863907 
L 93.491283 -233.539927 
L 104.651283 -259.208589 
L 115.811283 -274.382092 
L 126.971283 -279.898877 
L 138.131283 -279.755724 
L 149.291283 -273.194322 
L 160.451283 -262.102916 
L 171.611283 -252.848684 
L 182.771283 -243.333833 
L 193.931283 -235.296305 
L 205.091283 -222.822137 
L 216.251283 -212.747783 
L 227.411283 -199.700124 
L 238.571283 -189.537154 
L 249.731283 -186.266123 
L 260.891283 -184.706603 
L 272.051283 -177.671322 
L 283.211283 -163.919026 
L 294.371283 -156.182198 
L 305.531283 -150.173444 
L 316.691283 -145.203829 
L 327.851283 -138.743043 
L 339.011283 -128.56407 
L 350.171283 -123.64993 
L 361.331283 -123.625295 
L 372.491283 -119.218806 
L 383.651283 -117.150082 
L 394.811283 -111.944564 
L 405.971283 -104.558606 
L 405.971283 -130.897506 
L 405.971283 -130.897506 
L 394.811283 -138.85508 
L 383.651283 -144.244301 
L 372.491283 -147.242968 
L 361.331283 -151.588222 
L 350.171283 -152.383779 
L 339.011283 -157.801864 
L 327.851283 -168.664755 
L 316.691283 -176.183746 
L 305.531283 -182.043531 
L 294.371283 -189.73819 
L 283.211283 -199.038943 
L 272.051283 -214.810037 
L 260.891283 -224.497843 
L 249.731283 -226.291613 
L 238.571283 -229.294811 
L 227.411283 -241.193759 
L 216.251283 -255.164051 
L 205.091283 -266.551605 
L 193.931283 -281.253129 
L 182.771283 -291.026816 
L 171.611283 -301.994354 
L 160.451283 -312.386043 
L 149.291283 -323.004003 
L 138.131283 -329.246447 
L 126.971283 -329.973156 
L 115.811283 -324.003198 
L 104.651283 -304.713914 
L 93.491283 -273.296836 
L 82.331283 -233.639258 
L 71.171283 -185.979749 
L 60.011283 -152.787816 
L 48.851283 -134.885887 
z
" style="stroke: #1f77b4; stroke-opacity: 0.2"/>
    </defs>
    <g clip-path="url(#pc2a92cbae8)">
     <use xlink:href="#m43814a6cc2" x="0" y="361.333136" style="fill: #1f77b4; fill-opacity: 0.2; stroke: #1f77b4; stroke-opacity: 0.2"/>
    </g>
   </g>
   <g id="PolyCollection_2">
    <defs>
     <path id="mbca4105b03" d="M 48.851283 -163.584868 
L 48.851283 -132.738117 
L 60.011283 -134.964 
L 71.171283 -147.917743 
L 82.331283 -170.558033 
L 93.491283 -189.611416 
L 104.651283 -208.004806 
L 115.811283 -214.810465 
L 126.971283 -223.089917 
L 138.131283 -223.876307 
L 149.291283 -218.398742 
L 160.451283 -220.130522 
L 171.611283 -223.473297 
L 182.771283 -221.664041 
L 193.931283 -212.207495 
L 205.091283 -197.110232 
L 216.251283 -188.093999 
L 227.411283 -182.7846 
L 238.571283 -170.390998 
L 249.731283 -160.014707 
L 260.891283 -161.083842 
L 272.051283 -158.20266 
L 283.211283 -156.579976 
L 294.371283 -151.605978 
L 305.531283 -139.794034 
L 316.691283 -130.282468 
L 327.851283 -125.186956 
L 339.011283 -120.197577 
L 350.171283 -116.509509 
L 361.331283 -110.655316 
L 372.491283 -111.42607 
L 383.651283 -109.961998 
L 394.811283 -101.882156 
L 405.971283 -88.053156 
L 405.971283 -115.890686 
L 405.971283 -115.890686 
L 394.811283 -128.33973 
L 383.651283 -135.095679 
L 372.491283 -137.805387 
L 361.331283 -138.588392 
L 350.171283 -145.183677 
L 339.011283 -149.848385 
L 327.851283 -155.721121 
L 316.691283 -161.679283 
L 305.531283 -172.139902 
L 294.371283 -184.439772 
L 283.211283 -190.115283 
L 272.051283 -192.275742 
L 260.891283 -195.671672 
L 249.731283 -196.97741 
L 238.571283 -209.719741 
L 227.411283 -223.258261 
L 216.251283 -229.512385 
L 205.091283 -239.063124 
L 193.931283 -254.804704 
L 182.771283 -265.305417 
L 171.611283 -267.117463 
L 160.451283 -264.29947 
L 149.291283 -262.824242 
L 138.131283 -267.962505 
L 126.971283 -266.292981 
L 115.811283 -256.057593 
L 104.651283 -246.392178 
L 93.491283 -221.066203 
L 82.331283 -195.477987 
L 71.171283 -171.990867 
L 60.011283 -161.605365 
L 48.851283 -163.584868 
z
" style="stroke: #ff7f0e; stroke-opacity: 0.2"/>
    </defs>
    <g clip-path="url(#pc2a92cbae8)">
     <use xlink:href="#mbca4105b03" x="0" y="361.333136" style="fill: #ff7f0e; fill-opacity: 0.2; stroke: #ff7f0e; stroke-opacity: 0.2"/>
    </g>
   </g>
   <g id="matplotlib.axis_1">
    <g id="text_1">
     <text style="font: 10px 'Arial', sans-serif; text-anchor: middle" x="227.411283" y="296.533792" transform="rotate(-0 227.411283 296.533792)">Time</text>
    </g>
   </g>
   <g id="matplotlib.axis_2">
    <g id="ytick_1">
     <g id="line2d_1">
      <defs>
       <path id="m9d2275dae2" d="M 0 0 
L -3.5 0 
" style="stroke: #000000; stroke-width: 0.8"/>
      </defs>
      <g>
       <use xlink:href="#m9d2275dae2" x="48.851283" y="276.330072" style="stroke: #000000; stroke-width: 0.8"/>
      </g>
     </g>
     <g id="text_2">
      <text style="font: 10px 'Arial', sans-serif; text-anchor: end" x="41.851283" y="279.908978" transform="rotate(-0 41.851283 279.908978)">−0.5</text>
     </g>
    </g>
    <g id="ytick_2">
     <g id="line2d_2">
      <g>
       <use xlink:href="#m9d2275dae2" x="48.851283" y="239.094131" style="stroke: #000000; stroke-width: 0.8"/>
      </g>
     </g>
     <g id="text_3">
      <text style="font: 10px 'Arial', sans-serif; text-anchor: end" x="41.851283" y="242.673038" transform="rotate(-0 41.851283 242.673038)">−0.4</text>
     </g>
    </g>
    <g id="ytick_3">
     <g id="line2d_3">
      <g>
       <use xlink:href="#m9d2275dae2" x="48.851283" y="201.858191" style="stroke: #000000; stroke-width: 0.8"/>
      </g>
     </g>
     <g id="text_4">
      <text style="font: 10px 'Arial', sans-serif; text-anchor: end" x="41.851283" y="205.437098" transform="rotate(-0 41.851283 205.437098)">−0.3</text>
     </g>
    </g>
    <g id="ytick_4">
     <g id="line2d_4">
      <g>
       <use xlink:href="#m9d2275dae2" x="48.851283" y="164.622251" style="stroke: #000000; stroke-width: 0.8"/>
      </g>
     </g>
     <g id="text_5">
      <text style="font: 10px 'Arial', sans-serif; text-anchor: end" x="41.851283" y="168.201157" transform="rotate(-0 41.851283 168.201157)">−0.2</text>
     </g>
    </g>
    <g id="ytick_5">
     <g id="line2d_5">
      <g>
       <use xlink:href="#m9d2275dae2" x="48.851283" y="127.386311" style="stroke: #000000; stroke-width: 0.8"/>
      </g>
     </g>
     <g id="text_6">
      <text style="font: 10px 'Arial', sans-serif; text-anchor: end" x="41.851283" y="130.965217" transform="rotate(-0 41.851283 130.965217)">−0.1</text>
     </g>
    </g>
    <g id="ytick_6">
     <g id="line2d_6">
      <g>
       <use xlink:href="#m9d2275dae2" x="48.851283" y="90.150371" style="stroke: #000000; stroke-width: 0.8"/>
      </g>
     </g>
     <g id="text_7">
      <text style="font: 10px 'Arial', sans-serif; text-anchor: end" x="41.851283" y="93.729277" transform="rotate(-0 41.851283 93.729277)">0.0</text>
     </g>
    </g>
    <g id="ytick_7">
     <g id="line2d_7">
      <g>
       <use xlink:href="#m9d2275dae2" x="48.851283" y="52.914431" style="stroke: #000000; stroke-width: 0.8"/>
      </g>
     </g>
     <g id="text_8">
      <text style="font: 10px 'Arial', sans-serif; text-anchor: end" x="41.851283" y="56.493337" transform="rotate(-0 41.851283 56.493337)">0.1</text>
     </g>
    </g>
    <g id="text_9">
     <text style="font: 10px 'Arial', sans-serif; text-anchor: middle" x="16.005971" y="152.31998" transform="rotate(-90 16.005971 152.31998)">Activity</text>
    </g>
   </g>
   <g id="line2d_8">
    <path d="M 48.851283 238.540684 
L 60.011283 220.798421 
L 71.171283 188.570527 
L 82.331283 144.081554 
L 93.491283 107.914755 
L 104.651283 79.371885 
L 115.811283 62.140491 
L 126.971283 56.397118 
L 138.131283 56.832049 
L 149.291283 63.233973 
L 160.451283 74.088657 
L 171.611283 83.911618 
L 182.771283 94.152811 
L 193.931283 103.058419 
L 205.091283 116.646266 
L 216.251283 127.37722 
L 227.411283 140.886194 
L 238.571283 151.917152 
L 249.731283 155.054268 
L 260.891283 156.730913 
L 272.051283 165.092456 
L 283.211283 179.854151 
L 294.371283 188.372942 
L 305.531283 195.224649 
L 316.691283 200.639349 
L 327.851283 207.629237 
L 339.011283 218.150169 
L 350.171283 223.316281 
L 361.331283 223.726377 
L 372.491283 228.102249 
L 383.651283 230.635945 
L 394.811283 235.933314 
L 405.971283 243.60508 
" clip-path="url(#pc2a92cbae8)" style="fill: none; stroke: #1f77b4; stroke-width: 1.5; stroke-linecap: square"/>
   </g>
   <g id="line2d_9">
    <path d="M 48.851283 213.171643 
L 60.011283 213.048454 
L 71.171283 201.378831 
L 82.331283 178.315123 
L 93.491283 155.994326 
L 104.651283 134.134642 
L 115.811283 125.899107 
L 126.971283 116.641686 
L 138.131283 115.413731 
L 149.291283 120.721642 
L 160.451283 119.11814 
L 171.611283 116.037755 
L 182.771283 117.848406 
L 193.931283 127.827036 
L 205.091283 143.246458 
L 216.251283 152.529944 
L 227.411283 158.311705 
L 238.571283 171.277766 
L 249.731283 182.837078 
L 260.891283 182.955379 
L 272.051283 186.093937 
L 283.211283 187.985506 
L 294.371283 193.310264 
L 305.531283 205.366168 
L 316.691283 215.352261 
L 327.851283 220.879098 
L 339.011283 226.310155 
L 350.171283 230.486543 
L 361.331283 236.711282 
L 372.491283 236.717407 
L 383.651283 238.804298 
L 394.811283 246.222193 
L 405.971283 259.361215 
" clip-path="url(#pc2a92cbae8)" style="fill: none; stroke: #ff7f0e; stroke-width: 1.5; stroke-linecap: square"/>
   </g>
   <g id="line2d_10">
    <path d="M 82.331283 285.37598 
L 82.331283 19.26398 
" clip-path="url(#pc2a92cbae8)" style="fill: none; stroke-dasharray: 5.55,2.4; stroke-dashoffset: 0; stroke: #000000; stroke-opacity: 0.5; stroke-width: 1.5"/>
   </g>
   <g id="line2d_11">
    <path d="M 383.651283 285.37598 
L 383.651283 19.26398 
" clip-path="url(#pc2a92cbae8)" style="fill: none; stroke-dasharray: 5.55,2.4; stroke-dashoffset: 0; stroke: #000000; stroke-opacity: 0.5; stroke-width: 1.5"/>
   </g>
   <g id="patch_3">
    <path d="M 48.851283 285.37598 
L 405.971283 285.37598 
" style="fill: none; stroke: #000000; stroke-width: 0.8; stroke-linejoin: miter; stroke-linecap: square"/>
   </g>
   <g id="text_10">
    <text style="font: 6.94px 'Arial', sans-serif" transform="translate(10.097767 321.385533) rotate(-35)">-0.1s Sampling</text>
   </g>
   <g id="text_11">
    <text style="font: 6.94px 'Arial', sans-serif" transform="translate(57.794497 311.430872) rotate(-35)">Sampling</text>
   </g>
   <g id="text_12">
    <text style="font: 6.94px 'Arial', sans-serif" transform="translate(319.037191 339.456682) rotate(-35)">Movement to Lateral Port</text>
   </g>
   <g id="text_13">
    <text style="font: 8.33px 'Arial', sans-serif; text-anchor: middle" x="227.411283" y="13.26398" transform="rotate(-0 227.411283 13.26398)">GP4_85_s3_L70_D250_mm2 - Trace:20_GP4_85_s3_L70_D250_mm2 (when: correct)</text>
   </g>
   <g id="legend_1">
    <g id="patch_4">
     <path d="M 131.766697 354.133136 
L 323.055869 354.133136 
Q 324.443869 354.133136 324.443869 352.745136 
L 324.443869 343.45638 
Q 324.443869 342.06838 323.055869 342.06838 
L 131.766697 342.06838 
Q 130.378697 342.06838 130.378697 343.45638 
L 130.378697 352.745136 
Q 130.378697 354.133136 131.766697 354.133136 
z
" style="fill: #ffffff; opacity: 0.8; stroke: #cccccc; stroke-linejoin: miter"/>
    </g>
    <g id="line2d_12">
     <path d="M 133.154697 347.467483 
L 140.094697 347.467483 
L 147.034697 347.467483 
" style="fill: none; stroke: #1f77b4; stroke-width: 1.5; stroke-linecap: square"/>
    </g>
    <g id="text_14">
     <text style="font: 6.94px 'Arial', sans-serif; text-anchor: start" x="152.586697" y="349.896483" transform="rotate(-0 152.586697 349.896483)">DecisionRight (100 pts)</text>
    </g>
    <g id="line2d_13">
     <path d="M 238.5939 347.467483 
L 245.5339 347.467483 
L 252.4739 347.467483 
" style="fill: none; stroke: #ff7f0e; stroke-width: 1.5; stroke-linecap: square"/>
    </g>
    <g id="text_15">
     <text style="font: 6.94px 'Arial', sans-serif; text-anchor: start" x="258.0259" y="349.896483" transform="rotate(-0 258.0259 349.896483)">DecisionLeft (95 pts)</text>
    </g>
   </g>
  </g>
 </g>
 <defs>
  <clipPath id="pc2a92cbae8">
   <rect x="48.851283" y="19.26398" width="357.12" height="266.112"/>
  </clipPath>
 </defs>
</svg>
