<?xml version="1.0" encoding="utf-8" standalone="no"?>
<!DOCTYPE svg PUBLIC "-//W3C//DTD SVG 1.1//EN"
  "http://www.w3.org/Graphics/SVG/1.1/DTD/svg11.dtd">
<svg xmlns:xlink="http://www.w3.org/1999/xlink" width="413.171283pt" height="361.333136pt" viewBox="0 0 413.171283 361.333136" xmlns="http://www.w3.org/2000/svg" version="1.1">
 <metadata>
  <rdf:RDF xmlns:dc="http://purl.org/dc/elements/1.1/" xmlns:cc="http://creativecommons.org/ns#" xmlns:rdf="http://www.w3.org/1999/02/22-rdf-syntax-ns#">
   <cc:Work>
    <dc:type rdf:resource="http://purl.org/dc/dcmitype/StillImage"/>
    <dc:date>2025-12-29T04:07:54.542844</dc:date>
    <dc:format>image/svg+xml</dc:format>
    <dc:creator>
     <cc:Agent>
      <dc:title>Matplotlib v3.8.0, https://matplotlib.org/</dc:title>
     </cc:Agent>
    </dc:creator>
   </cc:Work>
  </rdf:RDF>
 </metadata>
 <defs>
  <style type="text/css">*{stroke-linejoin: round; stroke-linecap: butt}</style>
 </defs>
 <g id="figure_1">
  <g id="patch_1">
   <path d="M 0 361.333136 
L 413.171283 361.333136 
L 413.171283 -0 
L 0 -0 
z
" style="fill: #ffffff"/>
  </g>
  <g id="axes_1">
   <g id="patch_2">
    <path d="M 48.851283 285.37598 
L 405.971283 285.37598 
L 405.971283 19.26398 
L 48.851283 19.26398 
z
" style="fill: #ffffff"/>
   </g>
   <g id="PolyCollection_1">
    <defs>
     <path id="m3caf4197a6" d="M 48.851283 -326.336458 
L 48.851283 -266.884048 
L 60.011283 -272.922969 
L 71.171283 -279.307256 
L 82.331283 -268.699869 
L 93.491283 -249.678318 
L 104.651283 -256.819449 
L 115.811283 -261.083255 
L 126.971283 -251.973323 
L 138.131283 -245.110148 
L 149.291283 -228.973182 
L 160.451283 -219.624576 
L 171.611283 -198.125634 
L 182.771283 -196.679799 
L 193.931283 -199.751332 
L 205.091283 -197.763918 
L 216.251283 -185.619046 
L 227.411283 -169.188559 
L 238.571283 -155.612539 
L 249.731283 -141.542843 
L 260.891283 -138.593094 
L 272.051283 -140.286183 
L 283.211283 -131.915293 
L 294.371283 -126.576954 
L 305.531283 -118.744698 
L 316.691283 -110.998086 
L 327.851283 -107.541202 
L 339.011283 -103.824421 
L 350.171283 -99.198491 
L 361.331283 -95.288973 
L 372.491283 -88.053156 
L 383.651283 -104.967064 
L 394.811283 -144.606782 
L 405.971283 -190.542038 
L 405.971283 -213.978846 
L 405.971283 -213.978846 
L 394.811283 -165.530002 
L 383.651283 -125.076725 
L 372.491283 -107.178374 
L 361.331283 -113.286201 
L 350.171283 -119.029453 
L 339.011283 -123.355071 
L 327.851283 -129.096135 
L 316.691283 -132.203816 
L 305.531283 -140.973071 
L 294.371283 -149.983824 
L 283.211283 -153.116759 
L 272.051283 -162.58998 
L 260.891283 -162.275056 
L 249.731283 -164.020334 
L 238.571283 -179.780391 
L 227.411283 -196.282451 
L 216.251283 -214.355632 
L 205.091283 -226.534338 
L 193.931283 -227.193239 
L 182.771283 -225.23244 
L 171.611283 -226.901004 
L 160.451283 -249.351987 
L 149.291283 -260.734114 
L 138.131283 -275.872852 
L 126.971283 -282.952338 
L 115.811283 -293.202011 
L 104.651283 -290.413554 
L 93.491283 -288.760724 
L 82.331283 -312.687879 
L 71.171283 -329.973156 
L 60.011283 -329.744408 
L 48.851283 -326.336458 
z
" style="stroke: #1f77b4; stroke-opacity: 0.2"/>
    </defs>
    <g clip-path="url(#pde4890828a)">
     <use xlink:href="#m3caf4197a6" x="0" y="361.333136" style="fill: #1f77b4; fill-opacity: 0.2; stroke: #1f77b4; stroke-opacity: 0.2"/>
    </g>
   </g>
   <g id="PolyCollection_2">
    <defs>
     <path id="md658e8a555" d="M 48.851283 -256.267596 
L 48.851283 -207.791028 
L 60.011283 -221.233798 
L 71.171283 -231.085614 
L 82.331283 -240.957931 
L 93.491283 -247.105269 
L 104.651283 -241.429378 
L 115.811283 -234.26771 
L 126.971283 -237.835841 
L 138.131283 -233.142606 
L 149.291283 -227.801769 
L 160.451283 -230.48332 
L 171.611283 -217.912164 
L 182.771283 -207.406395 
L 193.931283 -190.117905 
L 205.091283 -174.724883 
L 216.251283 -162.941384 
L 227.411283 -154.317312 
L 238.571283 -149.380848 
L 249.731283 -151.076302 
L 260.891283 -149.349328 
L 272.051283 -147.205013 
L 283.211283 -140.793055 
L 294.371283 -136.135049 
L 305.531283 -129.018117 
L 316.691283 -122.441461 
L 327.851283 -107.068108 
L 339.011283 -98.282889 
L 350.171283 -88.063182 
L 361.331283 -94.579851 
L 372.491283 -101.304582 
L 383.651283 -115.769009 
L 394.811283 -110.122056 
L 405.971283 -93.858829 
L 405.971283 -116.630117 
L 405.971283 -116.630117 
L 394.811283 -131.819279 
L 383.651283 -137.161197 
L 372.491283 -124.815951 
L 361.331283 -118.900175 
L 350.171283 -113.281038 
L 339.011283 -122.338536 
L 327.851283 -130.463925 
L 316.691283 -145.341758 
L 305.531283 -152.022341 
L 294.371283 -158.634969 
L 283.211283 -163.621171 
L 272.051283 -170.576776 
L 260.891283 -173.066246 
L 249.731283 -173.873023 
L 238.571283 -174.163864 
L 227.411283 -183.146235 
L 216.251283 -190.832134 
L 205.091283 -201.578678 
L 193.931283 -217.414642 
L 182.771283 -234.609733 
L 171.611283 -246.884464 
L 160.451283 -260.144922 
L 149.291283 -256.582679 
L 138.131283 -263.335756 
L 126.971283 -270.780326 
L 115.811283 -268.556629 
L 104.651283 -277.124571 
L 93.491283 -287.684403 
L 82.331283 -284.188472 
L 71.171283 -277.754448 
L 60.011283 -269.00702 
L 48.851283 -256.267596 
z
" style="stroke: #ff7f0e; stroke-opacity: 0.2"/>
    </defs>
    <g clip-path="url(#pde4890828a)">
     <use xlink:href="#md658e8a555" x="0" y="361.333136" style="fill: #ff7f0e; fill-opacity: 0.2; stroke: #ff7f0e; stroke-opacity: 0.2"/>
    </g>
   </g>
   <g id="matplotlib.axis_1">
    <g id="text_1">
     <text style="font: 10px 'Arial', sans-serif; text-anchor: middle" x="227.411283" y="296.533792" transform="rotate(-0 227.411283 296.533792)">Time</text>
    </g>
   </g>
   <g id="matplotlib.axis_2">
    <g id="ytick_1">
     <g id="line2d_1">
      <defs>
       <path id="md84b882617" d="M 0 0 
L -3.5 0 
" style="stroke: #000000; stroke-width: 0.8"/>
      </defs>
      <g>
       <use xlink:href="#md84b882617" x="48.851283" y="283.091007" style="stroke: #000000; stroke-width: 0.8"/>
      </g>
     </g>
     <g id="text_2">
      <text style="font: 10px 'Arial', sans-serif; text-anchor: end" x="41.851283" y="286.669913" transform="rotate(-0 41.851283 286.669913)">−0.6</text>
     </g>
    </g>
    <g id="ytick_2">
     <g id="line2d_2">
      <g>
       <use xlink:href="#md84b882617" x="48.851283" y="245.629316" style="stroke: #000000; stroke-width: 0.8"/>
      </g>
     </g>
     <g id="text_3">
      <text style="font: 10px 'Arial', sans-serif; text-anchor: end" x="41.851283" y="249.208222" transform="rotate(-0 41.851283 249.208222)">−0.4</text>
     </g>
    </g>
    <g id="ytick_3">
     <g id="line2d_3">
      <g>
       <use xlink:href="#md84b882617" x="48.851283" y="208.167624" style="stroke: #000000; stroke-width: 0.8"/>
      </g>
     </g>
     <g id="text_4">
      <text style="font: 10px 'Arial', sans-serif; text-anchor: end" x="41.851283" y="211.74653" transform="rotate(-0 41.851283 211.74653)">−0.2</text>
     </g>
    </g>
    <g id="ytick_4">
     <g id="line2d_4">
      <g>
       <use xlink:href="#md84b882617" x="48.851283" y="170.705932" style="stroke: #000000; stroke-width: 0.8"/>
      </g>
     </g>
     <g id="text_5">
      <text style="font: 10px 'Arial', sans-serif; text-anchor: end" x="41.851283" y="174.284838" transform="rotate(-0 41.851283 174.284838)">0.0</text>
     </g>
    </g>
    <g id="ytick_5">
     <g id="line2d_5">
      <g>
       <use xlink:href="#md84b882617" x="48.851283" y="133.24424" style="stroke: #000000; stroke-width: 0.8"/>
      </g>
     </g>
     <g id="text_6">
      <text style="font: 10px 'Arial', sans-serif; text-anchor: end" x="41.851283" y="136.823147" transform="rotate(-0 41.851283 136.823147)">0.2</text>
     </g>
    </g>
    <g id="ytick_6">
     <g id="line2d_6">
      <g>
       <use xlink:href="#md84b882617" x="48.851283" y="95.782549" style="stroke: #000000; stroke-width: 0.8"/>
      </g>
     </g>
     <g id="text_7">
      <text style="font: 10px 'Arial', sans-serif; text-anchor: end" x="41.851283" y="99.361455" transform="rotate(-0 41.851283 99.361455)">0.4</text>
     </g>
    </g>
    <g id="ytick_7">
     <g id="line2d_7">
      <g>
       <use xlink:href="#md84b882617" x="48.851283" y="58.320857" style="stroke: #000000; stroke-width: 0.8"/>
      </g>
     </g>
     <g id="text_8">
      <text style="font: 10px 'Arial', sans-serif; text-anchor: end" x="41.851283" y="61.899763" transform="rotate(-0 41.851283 61.899763)">0.6</text>
     </g>
    </g>
    <g id="ytick_8">
     <g id="line2d_8">
      <g>
       <use xlink:href="#md84b882617" x="48.851283" y="20.859165" style="stroke: #000000; stroke-width: 0.8"/>
      </g>
     </g>
     <g id="text_9">
      <text style="font: 10px 'Arial', sans-serif; text-anchor: end" x="41.851283" y="24.438072" transform="rotate(-0 41.851283 24.438072)">0.8</text>
     </g>
    </g>
    <g id="text_10">
     <text style="font: 10px 'Arial', sans-serif; text-anchor: middle" x="16.005971" y="152.31998" transform="rotate(-90 16.005971 152.31998)">Activity</text>
    </g>
   </g>
   <g id="line2d_9">
    <path d="M 48.851283 64.722885 
L 60.011283 59.999451 
L 71.171283 56.69293 
L 82.331283 70.639265 
L 93.491283 92.113612 
L 104.651283 87.716637 
L 115.811283 84.190506 
L 126.971283 93.870305 
L 138.131283 100.841636 
L 149.291283 116.479486 
L 160.451283 126.844853 
L 171.611283 148.819817 
L 182.771283 150.377016 
L 193.931283 147.860851 
L 205.091283 149.184007 
L 216.251283 161.345796 
L 227.411283 178.597631 
L 238.571283 193.63667 
L 249.731283 208.551548 
L 260.891283 210.899061 
L 272.051283 209.895053 
L 283.211283 218.81711 
L 294.371283 223.052747 
L 305.531283 231.474251 
L 316.691283 239.732185 
L 327.851283 243.014468 
L 339.011283 247.74339 
L 350.171283 252.219164 
L 361.331283 257.045552 
L 372.491283 263.717374 
L 383.651283 246.311242 
L 394.811283 206.264744 
L 405.971283 159.072694 
" clip-path="url(#pde4890828a)" style="fill: none; stroke: #1f77b4; stroke-width: 1.5; stroke-linecap: square"/>
   </g>
   <g id="line2d_10">
    <path d="M 48.851283 129.303824 
L 60.011283 116.212728 
L 71.171283 106.913106 
L 82.331283 98.759934 
L 93.491283 93.938297 
L 104.651283 102.056161 
L 115.811283 109.920967 
L 126.971283 107.025052 
L 138.131283 113.093955 
L 149.291283 119.140913 
L 160.451283 116.019014 
L 171.611283 128.934822 
L 182.771283 140.325072 
L 193.931283 157.566863 
L 205.091283 173.181356 
L 216.251283 184.446377 
L 227.411283 192.601362 
L 238.571283 199.560779 
L 249.731283 198.858474 
L 260.891283 200.125349 
L 272.051283 202.442241 
L 283.211283 209.126023 
L 294.371283 213.948127 
L 305.531283 220.812907 
L 316.691283 227.441528 
L 327.851283 242.567119 
L 339.011283 251.022423 
L 350.171283 260.661026 
L 361.331283 254.593123 
L 372.491283 248.27287 
L 383.651283 234.868033 
L 394.811283 240.362469 
L 405.971283 256.088663 
" clip-path="url(#pde4890828a)" style="fill: none; stroke: #ff7f0e; stroke-width: 1.5; stroke-linecap: square"/>
   </g>
   <g id="line2d_11">
    <path d="M 82.331283 285.37598 
L 82.331283 19.26398 
" clip-path="url(#pde4890828a)" style="fill: none; stroke-dasharray: 5.55,2.4; stroke-dashoffset: 0; stroke: #000000; stroke-opacity: 0.5; stroke-width: 1.5"/>
   </g>
   <g id="line2d_12">
    <path d="M 383.651283 285.37598 
L 383.651283 19.26398 
" clip-path="url(#pde4890828a)" style="fill: none; stroke-dasharray: 5.55,2.4; stroke-dashoffset: 0; stroke: #000000; stroke-opacity: 0.5; stroke-width: 1.5"/>
   </g>
   <g id="patch_3">
    <path d="M 48.851283 285.37598 
L 405.971283 285.37598 
" style="fill: none; stroke: #000000; stroke-width: 0.8; stroke-linejoin: miter; stroke-linecap: square"/>
   </g>
   <g id="text_11">
    <text style="font: 6.94px 'Arial', sans-serif" transform="translate(10.097767 321.385533) rotate(-35)">-0.1s Sampling</text>
   </g>
   <g id="text_12">
    <text style="font: 6.94px 'Arial', sans-serif" transform="translate(57.794497 311.430872) rotate(-35)">Sampling</text>
   </g>
   <g id="text_13">
    <text style="font: 6.94px 'Arial', sans-serif" transform="translate(319.037191 339.456682) rotate(-35)">Movement to Lateral Port</text>
   </g>
   <g id="text_14">
    <text style="font: 8.33px 'Arial', sans-serif; text-anchor: middle" x="227.411283" y="13.26398" transform="rotate(-0 227.411283 13.26398)">GP4_85_s3_L70_D250_mm2 - Trace:223_GP4_85_s3_L70_D250_mm2 (when: correct)</text>
   </g>
   <g id="legend_1">
    <g id="patch_4">
     <path d="M 131.766697 354.133136 
L 323.055869 354.133136 
Q 324.443869 354.133136 324.443869 352.745136 
L 324.443869 343.45638 
Q 324.443869 342.06838 323.055869 342.06838 
L 131.766697 342.06838 
Q 130.378697 342.06838 130.378697 343.45638 
L 130.378697 352.745136 
Q 130.378697 354.133136 131.766697 354.133136 
z
" style="fill: #ffffff; opacity: 0.8; stroke: #cccccc; stroke-linejoin: miter"/>
    </g>
    <g id="line2d_13">
     <path d="M 133.154697 347.467483 
L 140.094697 347.467483 
L 147.034697 347.467483 
" style="fill: none; stroke: #1f77b4; stroke-width: 1.5; stroke-linecap: square"/>
    </g>
    <g id="text_15">
     <text style="font: 6.94px 'Arial', sans-serif; text-anchor: start" x="152.586697" y="349.896483" transform="rotate(-0 152.586697 349.896483)">DecisionRight (100 pts)</text>
    </g>
    <g id="line2d_14">
     <path d="M 238.5939 347.467483 
L 245.5339 347.467483 
L 252.4739 347.467483 
" style="fill: none; stroke: #ff7f0e; stroke-width: 1.5; stroke-linecap: square"/>
    </g>
    <g id="text_16">
     <text style="font: 6.94px 'Arial', sans-serif; text-anchor: start" x="258.0259" y="349.896483" transform="rotate(-0 258.0259 349.896483)">DecisionLeft (95 pts)</text>
    </g>
   </g>
  </g>
 </g>
 <defs>
  <clipPath id="pde4890828a">
   <rect x="48.851283" y="19.26398" width="357.12" height="266.112"/>
  </clipPath>
 </defs>
</svg>
