<?xml version="1.0" encoding="utf-8" standalone="no"?>
<!DOCTYPE svg PUBLIC "-//W3C//DTD SVG 1.1//EN"
  "http://www.w3.org/Graphics/SVG/1.1/DTD/svg11.dtd">
<svg xmlns:xlink="http://www.w3.org/1999/xlink" width="413.171283pt" height="361.333136pt" viewBox="0 0 413.171283 361.333136" xmlns="http://www.w3.org/2000/svg" version="1.1">
 <metadata>
  <rdf:RDF xmlns:dc="http://purl.org/dc/elements/1.1/" xmlns:cc="http://creativecommons.org/ns#" xmlns:rdf="http://www.w3.org/1999/02/22-rdf-syntax-ns#">
   <cc:Work>
    <dc:type rdf:resource="http://purl.org/dc/dcmitype/StillImage"/>
    <dc:date>2025-12-29T04:07:50.923017</dc:date>
    <dc:format>image/svg+xml</dc:format>
    <dc:creator>
     <cc:Agent>
      <dc:title>Matplotlib v3.8.0, https://matplotlib.org/</dc:title>
     </cc:Agent>
    </dc:creator>
   </cc:Work>
  </rdf:RDF>
 </metadata>
 <defs>
  <style type="text/css">*{stroke-linejoin: round; stroke-linecap: butt}</style>
 </defs>
 <g id="figure_1">
  <g id="patch_1">
   <path d="M 0 361.333136 
L 413.171283 361.333136 
L 413.171283 -0 
L 0 -0 
z
" style="fill: #ffffff"/>
  </g>
  <g id="axes_1">
   <g id="patch_2">
    <path d="M 48.851283 285.37598 
L 405.971283 285.37598 
L 405.971283 19.26398 
L 48.851283 19.26398 
z
" style="fill: #ffffff"/>
   </g>
   <g id="PolyCollection_1">
    <defs>
     <path id="m14a6c3d1c6" d="M 48.851283 -91.825322 
L 48.851283 -88.053156 
L 60.011283 -91.133357 
L 71.171283 -92.346086 
L 82.331283 -92.231386 
L 93.491283 -92.136536 
L 104.651283 -92.614994 
L 115.811283 -94.717715 
L 126.971283 -96.359279 
L 138.131283 -100.433913 
L 149.291283 -109.586228 
L 160.451283 -120.924501 
L 171.611283 -133.448414 
L 182.771283 -146.386878 
L 193.931283 -160.492465 
L 205.091283 -173.911521 
L 216.251283 -187.739054 
L 227.411283 -202.603244 
L 238.571283 -216.398655 
L 249.731283 -228.878009 
L 260.891283 -238.928492 
L 272.051283 -252.294635 
L 283.211283 -258.905044 
L 294.371283 -262.082152 
L 305.531283 -265.922906 
L 316.691283 -271.387523 
L 327.851283 -275.209868 
L 339.011283 -283.960208 
L 350.171283 -293.294232 
L 361.331283 -299.004796 
L 372.491283 -292.489205 
L 383.651283 -261.377092 
L 394.811283 -221.379665 
L 405.971283 -188.256153 
L 405.971283 -203.625909 
L 405.971283 -203.625909 
L 394.811283 -241.020234 
L 383.651283 -286.830144 
L 372.491283 -322.236844 
L 361.331283 -329.973156 
L 350.171283 -323.405472 
L 339.011283 -314.004105 
L 327.851283 -304.101724 
L 316.691283 -299.924425 
L 305.531283 -293.772906 
L 294.371283 -289.739084 
L 283.211283 -287.433246 
L 272.051283 -281.158217 
L 260.891283 -267.089713 
L 249.731283 -256.197426 
L 238.571283 -242.678313 
L 227.411283 -227.04094 
L 216.251283 -210.423716 
L 205.091283 -194.830028 
L 193.931283 -179.029858 
L 182.771283 -162.626976 
L 171.611283 -147.815221 
L 160.451283 -132.34257 
L 149.291283 -117.938155 
L 138.131283 -106.405321 
L 126.971283 -101.161521 
L 115.811283 -98.995191 
L 104.651283 -96.487021 
L 93.491283 -96.123558 
L 82.331283 -96.685501 
L 71.171283 -97.325163 
L 60.011283 -95.744234 
L 48.851283 -91.825322 
z
" style="stroke: #1f77b4; stroke-opacity: 0.2"/>
    </defs>
    <g clip-path="url(#pda55a2c39f)">
     <use xlink:href="#m14a6c3d1c6" x="0" y="361.333136" style="fill: #1f77b4; fill-opacity: 0.2; stroke: #1f77b4; stroke-opacity: 0.2"/>
    </g>
   </g>
   <g id="PolyCollection_2">
    <defs>
     <path id="m80ad7c96f1" d="M 48.851283 -104.582441 
L 48.851283 -96.918306 
L 60.011283 -98.843859 
L 71.171283 -99.878095 
L 82.331283 -99.261472 
L 93.491283 -99.574435 
L 104.651283 -102.950454 
L 115.811283 -106.513964 
L 126.971283 -109.286099 
L 138.131283 -114.276411 
L 149.291283 -122.459475 
L 160.451283 -128.144674 
L 171.611283 -133.999604 
L 182.771283 -142.691096 
L 193.931283 -153.861456 
L 205.091283 -165.313412 
L 216.251283 -177.968363 
L 227.411283 -187.89908 
L 238.571283 -193.838087 
L 249.731283 -202.171268 
L 260.891283 -212.8577 
L 272.051283 -227.937371 
L 283.211283 -242.371829 
L 294.371283 -248.198881 
L 305.531283 -253.73316 
L 316.691283 -261.713028 
L 327.851283 -270.685712 
L 339.011283 -275.39501 
L 350.171283 -281.188155 
L 361.331283 -287.525339 
L 372.491283 -287.041961 
L 383.651283 -272.101912 
L 394.811283 -240.914948 
L 405.971283 -198.812431 
L 405.971283 -216.800303 
L 405.971283 -216.800303 
L 394.811283 -262.645176 
L 383.651283 -295.472433 
L 372.491283 -310.621822 
L 361.331283 -311.396506 
L 350.171283 -305.094277 
L 339.011283 -299.128922 
L 327.851283 -295.317595 
L 316.691283 -285.942025 
L 305.531283 -278.534883 
L 294.371283 -272.704739 
L 283.211283 -267.551722 
L 272.051283 -251.553315 
L 260.891283 -234.748454 
L 249.731283 -223.592434 
L 238.571283 -215.031292 
L 227.411283 -209.917744 
L 216.251283 -199.643878 
L 205.091283 -185.895968 
L 193.931283 -173.07938 
L 182.771283 -160.61542 
L 171.611283 -151.44056 
L 160.451283 -145.823817 
L 149.291283 -139.499232 
L 138.131283 -130.605926 
L 126.971283 -122.568836 
L 115.811283 -118.38453 
L 104.651283 -114.277227 
L 93.491283 -109.759644 
L 82.331283 -108.636636 
L 71.171283 -108.59869 
L 60.011283 -106.748624 
L 48.851283 -104.582441 
z
" style="stroke: #ff7f0e; stroke-opacity: 0.2"/>
    </defs>
    <g clip-path="url(#pda55a2c39f)">
     <use xlink:href="#m80ad7c96f1" x="0" y="361.333136" style="fill: #ff7f0e; fill-opacity: 0.2; stroke: #ff7f0e; stroke-opacity: 0.2"/>
    </g>
   </g>
   <g id="matplotlib.axis_1">
    <g id="text_1">
     <text style="font: 10px 'Arial', sans-serif; text-anchor: middle" x="227.411283" y="296.533792" transform="rotate(-0 227.411283 296.533792)">Time</text>
    </g>
   </g>
   <g id="matplotlib.axis_2">
    <g id="ytick_1">
     <g id="line2d_1">
      <defs>
       <path id="m6c99867e19" d="M 0 0 
L -3.5 0 
" style="stroke: #000000; stroke-width: 0.8"/>
      </defs>
      <g>
       <use xlink:href="#m6c99867e19" x="48.851283" y="255.999634" style="stroke: #000000; stroke-width: 0.8"/>
      </g>
     </g>
     <g id="text_2">
      <text style="font: 10px 'Arial', sans-serif; text-anchor: end" x="41.851283" y="259.578541" transform="rotate(-0 41.851283 259.578541)">−0.5</text>
     </g>
    </g>
    <g id="ytick_2">
     <g id="line2d_2">
      <g>
       <use xlink:href="#m6c99867e19" x="48.851283" y="201.046698" style="stroke: #000000; stroke-width: 0.8"/>
      </g>
     </g>
     <g id="text_3">
      <text style="font: 10px 'Arial', sans-serif; text-anchor: end" x="41.851283" y="204.625604" transform="rotate(-0 41.851283 204.625604)">0.0</text>
     </g>
    </g>
    <g id="ytick_3">
     <g id="line2d_3">
      <g>
       <use xlink:href="#m6c99867e19" x="48.851283" y="146.093761" style="stroke: #000000; stroke-width: 0.8"/>
      </g>
     </g>
     <g id="text_4">
      <text style="font: 10px 'Arial', sans-serif; text-anchor: end" x="41.851283" y="149.672668" transform="rotate(-0 41.851283 149.672668)">0.5</text>
     </g>
    </g>
    <g id="ytick_4">
     <g id="line2d_4">
      <g>
       <use xlink:href="#m6c99867e19" x="48.851283" y="91.140825" style="stroke: #000000; stroke-width: 0.8"/>
      </g>
     </g>
     <g id="text_5">
      <text style="font: 10px 'Arial', sans-serif; text-anchor: end" x="41.851283" y="94.719731" transform="rotate(-0 41.851283 94.719731)">1.0</text>
     </g>
    </g>
    <g id="ytick_5">
     <g id="line2d_5">
      <g>
       <use xlink:href="#m6c99867e19" x="48.851283" y="36.187889" style="stroke: #000000; stroke-width: 0.8"/>
      </g>
     </g>
     <g id="text_6">
      <text style="font: 10px 'Arial', sans-serif; text-anchor: end" x="41.851283" y="39.766795" transform="rotate(-0 41.851283 39.766795)">1.5</text>
     </g>
    </g>
    <g id="text_7">
     <text style="font: 10px 'Arial', sans-serif; text-anchor: middle" x="16.005971" y="152.31998" transform="rotate(-90 16.005971 152.31998)">Activity</text>
    </g>
   </g>
   <g id="line2d_6">
    <path d="M 48.851283 271.393897 
L 60.011283 267.89434 
L 71.171283 266.497511 
L 82.331283 266.874693 
L 93.491283 267.203089 
L 104.651283 266.782128 
L 115.811283 264.476683 
L 126.971283 262.572736 
L 138.131283 257.913519 
L 149.291283 247.570944 
L 160.451283 234.699601 
L 171.611283 220.701319 
L 182.771283 206.826209 
L 193.931283 191.571974 
L 205.091283 176.962361 
L 216.251283 162.251751 
L 227.411283 146.511044 
L 238.571283 131.794652 
L 249.731283 118.795419 
L 260.891283 108.324034 
L 272.051283 94.60671 
L 283.211283 88.163991 
L 294.371283 85.422518 
L 305.531283 81.48523 
L 316.691283 75.677162 
L 327.851283 71.67734 
L 339.011283 62.35098 
L 350.171283 52.983284 
L 361.331283 46.84416 
L 372.491283 53.970111 
L 383.651283 87.229518 
L 394.811283 130.133187 
L 405.971283 165.392105 
" clip-path="url(#pda55a2c39f)" style="fill: none; stroke: #1f77b4; stroke-width: 1.5; stroke-linecap: square"/>
   </g>
   <g id="line2d_7">
    <path d="M 48.851283 260.582762 
L 60.011283 258.536896 
L 71.171283 257.094742 
L 82.331283 257.384082 
L 93.491283 256.666097 
L 104.651283 252.719297 
L 115.811283 248.883889 
L 126.971283 245.405669 
L 138.131283 238.891967 
L 149.291283 230.353783 
L 160.451283 224.34889 
L 171.611283 218.613054 
L 182.771283 209.679877 
L 193.931283 197.862718 
L 205.091283 185.728446 
L 216.251283 172.527015 
L 227.411283 162.424724 
L 238.571283 156.898447 
L 249.731283 148.451283 
L 260.891283 137.530057 
L 272.051283 121.587793 
L 283.211283 106.371361 
L 294.371283 100.881326 
L 305.531283 95.199114 
L 316.691283 87.505612 
L 327.851283 78.331482 
L 339.011283 74.07117 
L 350.171283 68.19192 
L 361.331283 61.872214 
L 372.491283 62.501244 
L 383.651283 77.545964 
L 394.811283 109.553074 
L 405.971283 153.52677 
" clip-path="url(#pda55a2c39f)" style="fill: none; stroke: #ff7f0e; stroke-width: 1.5; stroke-linecap: square"/>
   </g>
   <g id="line2d_8">
    <path d="M 82.331283 285.37598 
L 82.331283 19.26398 
" clip-path="url(#pda55a2c39f)" style="fill: none; stroke-dasharray: 5.55,2.4; stroke-dashoffset: 0; stroke: #000000; stroke-opacity: 0.5; stroke-width: 1.5"/>
   </g>
   <g id="line2d_9">
    <path d="M 383.651283 285.37598 
L 383.651283 19.26398 
" clip-path="url(#pda55a2c39f)" style="fill: none; stroke-dasharray: 5.55,2.4; stroke-dashoffset: 0; stroke: #000000; stroke-opacity: 0.5; stroke-width: 1.5"/>
   </g>
   <g id="patch_3">
    <path d="M 48.851283 285.37598 
L 405.971283 285.37598 
" style="fill: none; stroke: #000000; stroke-width: 0.8; stroke-linejoin: miter; stroke-linecap: square"/>
   </g>
   <g id="text_8">
    <text style="font: 6.94px 'Arial', sans-serif" transform="translate(10.097767 321.385533) rotate(-35)">-0.1s Sampling</text>
   </g>
   <g id="text_9">
    <text style="font: 6.94px 'Arial', sans-serif" transform="translate(57.794497 311.430872) rotate(-35)">Sampling</text>
   </g>
   <g id="text_10">
    <text style="font: 6.94px 'Arial', sans-serif" transform="translate(319.037191 339.456682) rotate(-35)">Movement to Lateral Port</text>
   </g>
   <g id="text_11">
    <text style="font: 8.33px 'Arial', sans-serif; text-anchor: middle" x="227.411283" y="13.26398" transform="rotate(-0 227.411283 13.26398)">GP4_85_s3_L70_D250_mm2 - Trace:235_GP4_85_s3_L70_D250_mm2 (when: correct)</text>
   </g>
   <g id="legend_1">
    <g id="patch_4">
     <path d="M 131.766697 354.133136 
L 323.055869 354.133136 
Q 324.443869 354.133136 324.443869 352.745136 
L 324.443869 343.45638 
Q 324.443869 342.06838 323.055869 342.06838 
L 131.766697 342.06838 
Q 130.378697 342.06838 130.378697 343.45638 
L 130.378697 352.745136 
Q 130.378697 354.133136 131.766697 354.133136 
z
" style="fill: #ffffff; opacity: 0.8; stroke: #cccccc; stroke-linejoin: miter"/>
    </g>
    <g id="line2d_10">
     <path d="M 133.154697 347.467483 
L 140.094697 347.467483 
L 147.034697 347.467483 
" style="fill: none; stroke: #1f77b4; stroke-width: 1.5; stroke-linecap: square"/>
    </g>
    <g id="text_12">
     <text style="font: 6.94px 'Arial', sans-serif; text-anchor: start" x="152.586697" y="349.896483" transform="rotate(-0 152.586697 349.896483)">DecisionRight (100 pts)</text>
    </g>
    <g id="line2d_11">
     <path d="M 238.5939 347.467483 
L 245.5339 347.467483 
L 252.4739 347.467483 
" style="fill: none; stroke: #ff7f0e; stroke-width: 1.5; stroke-linecap: square"/>
    </g>
    <g id="text_13">
     <text style="font: 6.94px 'Arial', sans-serif; text-anchor: start" x="258.0259" y="349.896483" transform="rotate(-0 258.0259 349.896483)">DecisionLeft (95 pts)</text>
    </g>
   </g>
  </g>
 </g>
 <defs>
  <clipPath id="pda55a2c39f">
   <rect x="48.851283" y="19.26398" width="357.12" height="266.112"/>
  </clipPath>
 </defs>
</svg>
