<?xml version="1.0" encoding="utf-8" standalone="no"?>
<!DOCTYPE svg PUBLIC "-//W3C//DTD SVG 1.1//EN"
  "http://www.w3.org/Graphics/SVG/1.1/DTD/svg11.dtd">
<svg xmlns:xlink="http://www.w3.org/1999/xlink" width="413.171283pt" height="361.333136pt" viewBox="0 0 413.171283 361.333136" xmlns="http://www.w3.org/2000/svg" version="1.1">
 <metadata>
  <rdf:RDF xmlns:dc="http://purl.org/dc/elements/1.1/" xmlns:cc="http://creativecommons.org/ns#" xmlns:rdf="http://www.w3.org/1999/02/22-rdf-syntax-ns#">
   <cc:Work>
    <dc:type rdf:resource="http://purl.org/dc/dcmitype/StillImage"/>
    <dc:date>2025-12-29T04:07:50.714477</dc:date>
    <dc:format>image/svg+xml</dc:format>
    <dc:creator>
     <cc:Agent>
      <dc:title>Matplotlib v3.8.0, https://matplotlib.org/</dc:title>
     </cc:Agent>
    </dc:creator>
   </cc:Work>
  </rdf:RDF>
 </metadata>
 <defs>
  <style type="text/css">*{stroke-linejoin: round; stroke-linecap: butt}</style>
 </defs>
 <g id="figure_1">
  <g id="patch_1">
   <path d="M 0 361.333136 
L 413.171283 361.333136 
L 413.171283 -0 
L 0 -0 
z
" style="fill: #ffffff"/>
  </g>
  <g id="axes_1">
   <g id="patch_2">
    <path d="M 48.851283 285.37598 
L 405.971283 285.37598 
L 405.971283 19.26398 
L 48.851283 19.26398 
z
" style="fill: #ffffff"/>
   </g>
   <g id="PolyCollection_1">
    <defs>
     <path id="mb7e467ede4" d="M 48.851283 -243.677542 
L 48.851283 -201.821812 
L 60.011283 -209.651156 
L 71.171283 -229.421659 
L 82.331283 -249.912288 
L 93.491283 -250.87851 
L 104.651283 -247.957585 
L 115.811283 -243.343436 
L 126.971283 -238.853254 
L 138.131283 -232.665867 
L 149.291283 -224.910035 
L 160.451283 -216.659427 
L 171.611283 -206.54452 
L 182.771283 -192.666237 
L 193.931283 -186.099235 
L 205.091283 -182.363084 
L 216.251283 -176.270898 
L 227.411283 -168.068474 
L 238.571283 -162.444085 
L 249.731283 -155.76026 
L 260.891283 -152.381186 
L 272.051283 -150.963046 
L 283.211283 -148.341676 
L 294.371283 -143.135761 
L 305.531283 -138.711412 
L 316.691283 -137.480756 
L 327.851283 -137.020766 
L 339.011283 -134.16586 
L 350.171283 -128.600742 
L 361.331283 -121.603139 
L 372.491283 -113.140508 
L 383.651283 -101.050295 
L 394.811283 -94.004649 
L 405.971283 -92.55211 
L 405.971283 -99.003109 
L 405.971283 -99.003109 
L 394.811283 -101.071512 
L 383.651283 -110.102565 
L 372.491283 -125.262848 
L 361.331283 -134.455866 
L 350.171283 -142.573966 
L 339.011283 -150.429551 
L 327.851283 -152.991596 
L 316.691283 -151.755331 
L 305.531283 -152.072281 
L 294.371283 -157.008353 
L 283.211283 -162.135471 
L 272.051283 -164.619248 
L 260.891283 -166.971129 
L 249.731283 -171.473665 
L 238.571283 -179.658408 
L 227.411283 -186.502799 
L 216.251283 -196.160648 
L 205.091283 -203.352279 
L 193.931283 -208.661017 
L 182.771283 -217.351025 
L 171.611283 -232.793734 
L 160.451283 -245.359268 
L 149.291283 -256.014794 
L 138.131283 -266.497197 
L 126.971283 -275.470639 
L 115.811283 -280.897999 
L 104.651283 -285.77453 
L 93.491283 -290.971941 
L 82.331283 -292.763358 
L 71.171283 -272.949709 
L 60.011283 -252.723244 
L 48.851283 -243.677542 
z
" style="stroke: #1f77b4; stroke-opacity: 0.2"/>
    </defs>
    <g clip-path="url(#p9f3d3e9135)">
     <use xlink:href="#mb7e467ede4" x="0" y="361.333136" style="fill: #1f77b4; fill-opacity: 0.2; stroke: #1f77b4; stroke-opacity: 0.2"/>
    </g>
   </g>
   <g id="PolyCollection_2">
    <defs>
     <path id="m106db7d3d1" d="M 48.851283 -271.347754 
L 48.851283 -222.576393 
L 60.011283 -238.787989 
L 71.171283 -255.236685 
L 82.331283 -269.631534 
L 93.491283 -274.953647 
L 104.651283 -269.342456 
L 115.811283 -261.79202 
L 126.971283 -252.2189 
L 138.131283 -239.50087 
L 149.291283 -231.703231 
L 160.451283 -223.365205 
L 171.611283 -214.666352 
L 182.771283 -210.285479 
L 193.931283 -206.722495 
L 205.091283 -200.497514 
L 216.251283 -194.269251 
L 227.411283 -184.331537 
L 238.571283 -179.71626 
L 249.731283 -175.816426 
L 260.891283 -171.159379 
L 272.051283 -166.519767 
L 283.211283 -162.911011 
L 294.371283 -155.58605 
L 305.531283 -149.786396 
L 316.691283 -144.532992 
L 327.851283 -141.989164 
L 339.011283 -140.779924 
L 350.171283 -133.787058 
L 361.331283 -125.528945 
L 372.491283 -118.59704 
L 383.651283 -106.042301 
L 394.811283 -95.886878 
L 405.971283 -88.053156 
L 405.971283 -96.517197 
L 405.971283 -96.517197 
L 394.811283 -106.130152 
L 383.651283 -118.492499 
L 372.491283 -132.783692 
L 361.331283 -140.527926 
L 350.171283 -149.286308 
L 339.011283 -157.143756 
L 327.851283 -159.353571 
L 316.691283 -162.769435 
L 305.531283 -168.926583 
L 294.371283 -175.599145 
L 283.211283 -183.870302 
L 272.051283 -189.19958 
L 260.891283 -195.630902 
L 249.731283 -201.517775 
L 238.571283 -206.172491 
L 227.411283 -211.220358 
L 216.251283 -222.065733 
L 205.091283 -230.339254 
L 193.931283 -238.209459 
L 182.771283 -243.698741 
L 171.611283 -249.774465 
L 160.451283 -260.33032 
L 149.291283 -271.613502 
L 138.131283 -281.736403 
L 126.971283 -298.244839 
L 115.811283 -312.0558 
L 104.651283 -322.16282 
L 93.491283 -329.973156 
L 82.331283 -327.570845 
L 71.171283 -311.044624 
L 60.011283 -290.989302 
L 48.851283 -271.347754 
z
" style="stroke: #ff7f0e; stroke-opacity: 0.2"/>
    </defs>
    <g clip-path="url(#p9f3d3e9135)">
     <use xlink:href="#m106db7d3d1" x="0" y="361.333136" style="fill: #ff7f0e; fill-opacity: 0.2; stroke: #ff7f0e; stroke-opacity: 0.2"/>
    </g>
   </g>
   <g id="matplotlib.axis_1">
    <g id="text_1">
     <text style="font: 10px 'Arial', sans-serif; text-anchor: middle" x="227.411283" y="296.533792" transform="rotate(-0 227.411283 296.533792)">Time</text>
    </g>
   </g>
   <g id="matplotlib.axis_2">
    <g id="ytick_1">
     <g id="line2d_1">
      <defs>
       <path id="mb7f73abc74" d="M 0 0 
L -3.5 0 
" style="stroke: #000000; stroke-width: 0.8"/>
      </defs>
      <g>
       <use xlink:href="#mb7f73abc74" x="48.851283" y="281.411172" style="stroke: #000000; stroke-width: 0.8"/>
      </g>
     </g>
     <g id="text_2">
      <text style="font: 10px 'Arial', sans-serif; text-anchor: end" x="41.851283" y="284.990079" transform="rotate(-0 41.851283 284.990079)">−0.6</text>
     </g>
    </g>
    <g id="ytick_2">
     <g id="line2d_2">
      <g>
       <use xlink:href="#mb7f73abc74" x="48.851283" y="250.90844" style="stroke: #000000; stroke-width: 0.8"/>
      </g>
     </g>
     <g id="text_3">
      <text style="font: 10px 'Arial', sans-serif; text-anchor: end" x="41.851283" y="254.487346" transform="rotate(-0 41.851283 254.487346)">−0.5</text>
     </g>
    </g>
    <g id="ytick_3">
     <g id="line2d_3">
      <g>
       <use xlink:href="#mb7f73abc74" x="48.851283" y="220.405707" style="stroke: #000000; stroke-width: 0.8"/>
      </g>
     </g>
     <g id="text_4">
      <text style="font: 10px 'Arial', sans-serif; text-anchor: end" x="41.851283" y="223.984613" transform="rotate(-0 41.851283 223.984613)">−0.4</text>
     </g>
    </g>
    <g id="ytick_4">
     <g id="line2d_4">
      <g>
       <use xlink:href="#mb7f73abc74" x="48.851283" y="189.902974" style="stroke: #000000; stroke-width: 0.8"/>
      </g>
     </g>
     <g id="text_5">
      <text style="font: 10px 'Arial', sans-serif; text-anchor: end" x="41.851283" y="193.48188" transform="rotate(-0 41.851283 193.48188)">−0.3</text>
     </g>
    </g>
    <g id="ytick_5">
     <g id="line2d_5">
      <g>
       <use xlink:href="#mb7f73abc74" x="48.851283" y="159.400241" style="stroke: #000000; stroke-width: 0.8"/>
      </g>
     </g>
     <g id="text_6">
      <text style="font: 10px 'Arial', sans-serif; text-anchor: end" x="41.851283" y="162.979148" transform="rotate(-0 41.851283 162.979148)">−0.2</text>
     </g>
    </g>
    <g id="ytick_6">
     <g id="line2d_6">
      <g>
       <use xlink:href="#mb7f73abc74" x="48.851283" y="128.897509" style="stroke: #000000; stroke-width: 0.8"/>
      </g>
     </g>
     <g id="text_7">
      <text style="font: 10px 'Arial', sans-serif; text-anchor: end" x="41.851283" y="132.476415" transform="rotate(-0 41.851283 132.476415)">−0.1</text>
     </g>
    </g>
    <g id="ytick_7">
     <g id="line2d_7">
      <g>
       <use xlink:href="#mb7f73abc74" x="48.851283" y="98.394776" style="stroke: #000000; stroke-width: 0.8"/>
      </g>
     </g>
     <g id="text_8">
      <text style="font: 10px 'Arial', sans-serif; text-anchor: end" x="41.851283" y="101.973682" transform="rotate(-0 41.851283 101.973682)">0.0</text>
     </g>
    </g>
    <g id="ytick_8">
     <g id="line2d_8">
      <g>
       <use xlink:href="#mb7f73abc74" x="48.851283" y="67.892043" style="stroke: #000000; stroke-width: 0.8"/>
      </g>
     </g>
     <g id="text_9">
      <text style="font: 10px 'Arial', sans-serif; text-anchor: end" x="41.851283" y="71.47095" transform="rotate(-0 41.851283 71.47095)">0.1</text>
     </g>
    </g>
    <g id="ytick_9">
     <g id="line2d_9">
      <g>
       <use xlink:href="#mb7f73abc74" x="48.851283" y="37.389311" style="stroke: #000000; stroke-width: 0.8"/>
      </g>
     </g>
     <g id="text_10">
      <text style="font: 10px 'Arial', sans-serif; text-anchor: end" x="41.851283" y="40.968217" transform="rotate(-0 41.851283 40.968217)">0.2</text>
     </g>
    </g>
    <g id="text_11">
     <text style="font: 10px 'Arial', sans-serif; text-anchor: middle" x="16.005971" y="152.31998" transform="rotate(-90 16.005971 152.31998)">Activity</text>
    </g>
   </g>
   <g id="line2d_10">
    <path d="M 48.851283 138.583459 
L 60.011283 130.145936 
L 71.171283 110.147452 
L 82.331283 89.995312 
L 93.491283 90.40791 
L 104.651283 94.467078 
L 115.811283 99.212418 
L 126.971283 104.17119 
L 138.131283 111.751604 
L 149.291283 120.870721 
L 160.451283 130.32379 
L 171.611283 141.66401 
L 182.771283 156.324505 
L 193.931283 163.953008 
L 205.091283 168.475457 
L 216.251283 175.117361 
L 227.411283 184.047499 
L 238.571283 190.281889 
L 249.731283 197.716173 
L 260.891283 201.656978 
L 272.051283 203.541989 
L 283.211283 206.094562 
L 294.371283 211.261079 
L 305.531283 215.941289 
L 316.691283 216.715093 
L 327.851283 216.326955 
L 339.011283 219.035431 
L 350.171283 225.745782 
L 361.331283 233.303633 
L 372.491283 242.131458 
L 383.651283 255.756706 
L 394.811283 263.795056 
L 405.971283 265.555526 
" clip-path="url(#p9f3d3e9135)" style="fill: none; stroke: #1f77b4; stroke-width: 1.5; stroke-linecap: square"/>
   </g>
   <g id="line2d_11">
    <path d="M 48.851283 114.371062 
L 60.011283 96.44449 
L 71.171283 78.19248 
L 82.331283 62.731946 
L 93.491283 58.869733 
L 104.651283 65.580498 
L 115.811283 74.409225 
L 126.971283 86.101267 
L 138.131283 100.714499 
L 149.291283 109.674769 
L 160.451283 119.485373 
L 171.611283 129.112727 
L 182.771283 134.341026 
L 193.931283 138.867161 
L 205.091283 145.914752 
L 216.251283 153.165644 
L 227.411283 163.557188 
L 238.571283 168.38876 
L 249.731283 172.666033 
L 260.891283 177.937995 
L 272.051283 183.47346 
L 283.211283 187.942479 
L 294.371283 195.740539 
L 305.531283 201.976647 
L 316.691283 207.681922 
L 327.851283 210.661768 
L 339.011283 212.371296 
L 350.171283 219.796453 
L 361.331283 228.3047 
L 372.491283 235.64277 
L 383.651283 249.065736 
L 394.811283 260.324621 
L 405.971283 269.04796 
" clip-path="url(#p9f3d3e9135)" style="fill: none; stroke: #ff7f0e; stroke-width: 1.5; stroke-linecap: square"/>
   </g>
   <g id="line2d_12">
    <path d="M 82.331283 285.37598 
L 82.331283 19.26398 
" clip-path="url(#p9f3d3e9135)" style="fill: none; stroke-dasharray: 5.55,2.4; stroke-dashoffset: 0; stroke: #000000; stroke-opacity: 0.5; stroke-width: 1.5"/>
   </g>
   <g id="line2d_13">
    <path d="M 383.651283 285.37598 
L 383.651283 19.26398 
" clip-path="url(#p9f3d3e9135)" style="fill: none; stroke-dasharray: 5.55,2.4; stroke-dashoffset: 0; stroke: #000000; stroke-opacity: 0.5; stroke-width: 1.5"/>
   </g>
   <g id="patch_3">
    <path d="M 48.851283 285.37598 
L 405.971283 285.37598 
" style="fill: none; stroke: #000000; stroke-width: 0.8; stroke-linejoin: miter; stroke-linecap: square"/>
   </g>
   <g id="text_12">
    <text style="font: 6.94px 'Arial', sans-serif" transform="translate(10.097767 321.385533) rotate(-35)">-0.1s Sampling</text>
   </g>
   <g id="text_13">
    <text style="font: 6.94px 'Arial', sans-serif" transform="translate(57.794497 311.430872) rotate(-35)">Sampling</text>
   </g>
   <g id="text_14">
    <text style="font: 6.94px 'Arial', sans-serif" transform="translate(319.037191 339.456682) rotate(-35)">Movement to Lateral Port</text>
   </g>
   <g id="text_15">
    <text style="font: 8.33px 'Arial', sans-serif; text-anchor: middle" x="227.411283" y="13.26398" transform="rotate(-0 227.411283 13.26398)">GP4_85_s3_L70_D250_mm2 - Trace:2_GP4_85_s3_L70_D250_mm2 (when: correct)</text>
   </g>
   <g id="legend_1">
    <g id="patch_4">
     <path d="M 131.766697 354.133136 
L 323.055869 354.133136 
Q 324.443869 354.133136 324.443869 352.745136 
L 324.443869 343.45638 
Q 324.443869 342.06838 323.055869 342.06838 
L 131.766697 342.06838 
Q 130.378697 342.06838 130.378697 343.45638 
L 130.378697 352.745136 
Q 130.378697 354.133136 131.766697 354.133136 
z
" style="fill: #ffffff; opacity: 0.8; stroke: #cccccc; stroke-linejoin: miter"/>
    </g>
    <g id="line2d_14">
     <path d="M 133.154697 347.467483 
L 140.094697 347.467483 
L 147.034697 347.467483 
" style="fill: none; stroke: #1f77b4; stroke-width: 1.5; stroke-linecap: square"/>
    </g>
    <g id="text_16">
     <text style="font: 6.94px 'Arial', sans-serif; text-anchor: start" x="152.586697" y="349.896483" transform="rotate(-0 152.586697 349.896483)">DecisionRight (100 pts)</text>
    </g>
    <g id="line2d_15">
     <path d="M 238.5939 347.467483 
L 245.5339 347.467483 
L 252.4739 347.467483 
" style="fill: none; stroke: #ff7f0e; stroke-width: 1.5; stroke-linecap: square"/>
    </g>
    <g id="text_17">
     <text style="font: 6.94px 'Arial', sans-serif; text-anchor: start" x="258.0259" y="349.896483" transform="rotate(-0 258.0259 349.896483)">DecisionLeft (95 pts)</text>
    </g>
   </g>
  </g>
 </g>
 <defs>
  <clipPath id="p9f3d3e9135">
   <rect x="48.851283" y="19.26398" width="357.12" height="266.112"/>
  </clipPath>
 </defs>
</svg>
