<?xml version="1.0" encoding="utf-8" standalone="no"?>
<!DOCTYPE svg PUBLIC "-//W3C//DTD SVG 1.1//EN"
  "http://www.w3.org/Graphics/SVG/1.1/DTD/svg11.dtd">
<svg xmlns:xlink="http://www.w3.org/1999/xlink" width="413.171283pt" height="361.333136pt" viewBox="0 0 413.171283 361.333136" xmlns="http://www.w3.org/2000/svg" version="1.1">
 <metadata>
  <rdf:RDF xmlns:dc="http://purl.org/dc/elements/1.1/" xmlns:cc="http://creativecommons.org/ns#" xmlns:rdf="http://www.w3.org/1999/02/22-rdf-syntax-ns#">
   <cc:Work>
    <dc:type rdf:resource="http://purl.org/dc/dcmitype/StillImage"/>
    <dc:date>2025-12-29T04:07:51.994132</dc:date>
    <dc:format>image/svg+xml</dc:format>
    <dc:creator>
     <cc:Agent>
      <dc:title>Matplotlib v3.8.0, https://matplotlib.org/</dc:title>
     </cc:Agent>
    </dc:creator>
   </cc:Work>
  </rdf:RDF>
 </metadata>
 <defs>
  <style type="text/css">*{stroke-linejoin: round; stroke-linecap: butt}</style>
 </defs>
 <g id="figure_1">
  <g id="patch_1">
   <path d="M 0 361.333136 
L 413.171283 361.333136 
L 413.171283 -0 
L 0 -0 
z
" style="fill: #ffffff"/>
  </g>
  <g id="axes_1">
   <g id="patch_2">
    <path d="M 48.851283 285.37598 
L 405.971283 285.37598 
L 405.971283 19.26398 
L 48.851283 19.26398 
z
" style="fill: #ffffff"/>
   </g>
   <g id="PolyCollection_1">
    <defs>
     <path id="mc933f7c7f0" d="M 48.851283 -218.386449 
L 48.851283 -156.957537 
L 60.011283 -141.206249 
L 71.171283 -118.959506 
L 82.331283 -121.963601 
L 93.491283 -139.082766 
L 104.651283 -158.775729 
L 115.811283 -191.692369 
L 126.971283 -221.618812 
L 138.131283 -236.103305 
L 149.291283 -247.985734 
L 160.451283 -252.206661 
L 171.611283 -243.764373 
L 182.771283 -241.959873 
L 193.931283 -238.655763 
L 205.091283 -220.31529 
L 216.251283 -199.546271 
L 227.411283 -177.99986 
L 238.571283 -176.015509 
L 249.731283 -165.629098 
L 260.891283 -168.587149 
L 272.051283 -163.127353 
L 283.211283 -147.241151 
L 294.371283 -139.533925 
L 305.531283 -130.032801 
L 316.691283 -132.831 
L 327.851283 -135.52743 
L 339.011283 -128.396583 
L 350.171283 -108.143928 
L 361.331283 -88.053156 
L 372.491283 -90.2403 
L 383.651283 -94.256576 
L 394.811283 -92.015995 
L 405.971283 -88.862557 
L 405.971283 -118.443842 
L 405.971283 -118.443842 
L 394.811283 -125.350862 
L 383.651283 -132.838908 
L 372.491283 -130.775324 
L 361.331283 -130.065847 
L 350.171283 -154.139991 
L 339.011283 -178.098611 
L 327.851283 -183.855204 
L 316.691283 -180.458878 
L 305.531283 -180.577205 
L 294.371283 -192.134148 
L 283.211283 -201.687021 
L 272.051283 -218.731564 
L 260.891283 -226.354066 
L 249.731283 -227.805723 
L 238.571283 -241.058434 
L 227.411283 -245.163751 
L 216.251283 -270.407333 
L 205.091283 -291.904182 
L 193.931283 -308.566318 
L 182.771283 -311.922106 
L 171.611283 -316.879758 
L 160.451283 -329.973156 
L 149.291283 -326.157358 
L 138.131283 -307.569227 
L 126.971283 -286.845273 
L 115.811283 -254.99509 
L 104.651283 -223.258706 
L 93.491283 -204.70465 
L 82.331283 -187.046428 
L 71.171283 -185.985723 
L 60.011283 -207.134018 
L 48.851283 -218.386449 
z
" style="stroke: #1f77b4; stroke-opacity: 0.2"/>
    </defs>
    <g clip-path="url(#pff64f23826)">
     <use xlink:href="#mc933f7c7f0" x="0" y="361.333136" style="fill: #1f77b4; fill-opacity: 0.2; stroke: #1f77b4; stroke-opacity: 0.2"/>
    </g>
   </g>
   <g id="PolyCollection_2">
    <defs>
     <path id="mf698d8cb65" d="M 48.851283 -215.820407 
L 48.851283 -149.884717 
L 60.011283 -141.142388 
L 71.171283 -137.435079 
L 82.331283 -139.308753 
L 93.491283 -151.178837 
L 104.651283 -172.144115 
L 115.811283 -194.548316 
L 126.971283 -212.553597 
L 138.131283 -226.001537 
L 149.291283 -234.888532 
L 160.451283 -229.427292 
L 171.611283 -222.433368 
L 182.771283 -209.620391 
L 193.931283 -202.676436 
L 205.091283 -205.754831 
L 216.251283 -186.815508 
L 227.411283 -166.956679 
L 238.571283 -158.212335 
L 249.731283 -156.823166 
L 260.891283 -151.143718 
L 272.051283 -137.724684 
L 283.211283 -137.997459 
L 294.371283 -136.708114 
L 305.531283 -127.059964 
L 316.691283 -117.770071 
L 327.851283 -126.445979 
L 339.011283 -124.753521 
L 350.171283 -117.443559 
L 361.331283 -114.980037 
L 372.491283 -111.129877 
L 383.651283 -109.699727 
L 394.811283 -110.974601 
L 405.971283 -110.782503 
L 405.971283 -141.638462 
L 405.971283 -141.638462 
L 394.811283 -147.830456 
L 383.651283 -152.253649 
L 372.491283 -152.762005 
L 361.331283 -156.7243 
L 350.171283 -157.822463 
L 339.011283 -165.277591 
L 327.851283 -167.325588 
L 316.691283 -162.401546 
L 305.531283 -176.948228 
L 294.371283 -187.052477 
L 283.211283 -187.998079 
L 272.051283 -187.110432 
L 260.891283 -199.928156 
L 249.731283 -208.262367 
L 238.571283 -211.575971 
L 227.411283 -221.70473 
L 216.251283 -246.738032 
L 205.091283 -273.526685 
L 193.931283 -269.728407 
L 182.771283 -276.796255 
L 171.611283 -290.297778 
L 160.451283 -299.762771 
L 149.291283 -307.777919 
L 138.131283 -300.822203 
L 126.971283 -289.687667 
L 115.811283 -273.503931 
L 104.651283 -249.149848 
L 93.491283 -223.875194 
L 82.331283 -210.878942 
L 71.171283 -209.02897 
L 60.011283 -210.270697 
L 48.851283 -215.820407 
z
" style="stroke: #ff7f0e; stroke-opacity: 0.2"/>
    </defs>
    <g clip-path="url(#pff64f23826)">
     <use xlink:href="#mf698d8cb65" x="0" y="361.333136" style="fill: #ff7f0e; fill-opacity: 0.2; stroke: #ff7f0e; stroke-opacity: 0.2"/>
    </g>
   </g>
   <g id="matplotlib.axis_1">
    <g id="text_1">
     <text style="font: 10px 'Arial', sans-serif; text-anchor: middle" x="227.411283" y="296.533792" transform="rotate(-0 227.411283 296.533792)">Time</text>
    </g>
   </g>
   <g id="matplotlib.axis_2">
    <g id="ytick_1">
     <g id="line2d_1">
      <defs>
       <path id="m75610ab1e3" d="M 0 0 
L -3.5 0 
" style="stroke: #000000; stroke-width: 0.8"/>
      </defs>
      <g>
       <use xlink:href="#m75610ab1e3" x="48.851283" y="246.765947" style="stroke: #000000; stroke-width: 0.8"/>
      </g>
     </g>
     <g id="text_2">
      <text style="font: 10px 'Arial', sans-serif; text-anchor: end" x="41.851283" y="250.344853" transform="rotate(-0 41.851283 250.344853)">−0.4</text>
     </g>
    </g>
    <g id="ytick_2">
     <g id="line2d_2">
      <g>
       <use xlink:href="#m75610ab1e3" x="48.851283" y="198.785258" style="stroke: #000000; stroke-width: 0.8"/>
      </g>
     </g>
     <g id="text_3">
      <text style="font: 10px 'Arial', sans-serif; text-anchor: end" x="41.851283" y="202.364165" transform="rotate(-0 41.851283 202.364165)">−0.3</text>
     </g>
    </g>
    <g id="ytick_3">
     <g id="line2d_3">
      <g>
       <use xlink:href="#m75610ab1e3" x="48.851283" y="150.80457" style="stroke: #000000; stroke-width: 0.8"/>
      </g>
     </g>
     <g id="text_4">
      <text style="font: 10px 'Arial', sans-serif; text-anchor: end" x="41.851283" y="154.383476" transform="rotate(-0 41.851283 154.383476)">−0.2</text>
     </g>
    </g>
    <g id="ytick_4">
     <g id="line2d_4">
      <g>
       <use xlink:href="#m75610ab1e3" x="48.851283" y="102.823881" style="stroke: #000000; stroke-width: 0.8"/>
      </g>
     </g>
     <g id="text_5">
      <text style="font: 10px 'Arial', sans-serif; text-anchor: end" x="41.851283" y="106.402787" transform="rotate(-0 41.851283 106.402787)">−0.1</text>
     </g>
    </g>
    <g id="ytick_5">
     <g id="line2d_5">
      <g>
       <use xlink:href="#m75610ab1e3" x="48.851283" y="54.843192" style="stroke: #000000; stroke-width: 0.8"/>
      </g>
     </g>
     <g id="text_6">
      <text style="font: 10px 'Arial', sans-serif; text-anchor: end" x="41.851283" y="58.422099" transform="rotate(-0 41.851283 58.422099)">0.0</text>
     </g>
    </g>
    <g id="text_7">
     <text style="font: 10px 'Arial', sans-serif; text-anchor: middle" x="16.005971" y="152.31998" transform="rotate(-90 16.005971 152.31998)">Activity</text>
    </g>
   </g>
   <g id="line2d_6">
    <path d="M 48.851283 173.661139 
L 60.011283 187.163002 
L 71.171283 208.860521 
L 82.331283 206.828125 
L 93.491283 189.439431 
L 104.651283 170.315918 
L 115.811283 137.989406 
L 126.971283 107.101095 
L 138.131283 89.496871 
L 149.291283 74.26159 
L 160.451283 70.243227 
L 171.611283 81.01107 
L 182.771283 84.392147 
L 193.931283 87.722096 
L 205.091283 105.2234 
L 216.251283 126.356334 
L 227.411283 149.75133 
L 238.571283 152.796164 
L 249.731283 164.615722 
L 260.891283 163.862525 
L 272.051283 170.403681 
L 283.211283 186.86905 
L 294.371283 195.4991 
L 305.531283 206.028133 
L 316.691283 204.688197 
L 327.851283 201.641819 
L 339.011283 208.085539 
L 350.171283 230.191176 
L 361.331283 252.273634 
L 372.491283 250.825324 
L 383.651283 247.785394 
L 394.811283 252.649707 
L 405.971283 257.679936 
" clip-path="url(#pff64f23826)" style="fill: none; stroke: #1f77b4; stroke-width: 1.5; stroke-linecap: square"/>
   </g>
   <g id="line2d_7">
    <path d="M 48.851283 178.480574 
L 60.011283 185.626593 
L 71.171283 188.101112 
L 82.331283 186.239292 
L 93.491283 173.80612 
L 104.651283 150.686158 
L 115.811283 127.307013 
L 126.971283 110.212504 
L 138.131283 97.921268 
L 149.291283 89.999912 
L 160.451283 96.738103 
L 171.611283 104.967563 
L 182.771283 118.124815 
L 193.931283 125.130715 
L 205.091283 121.692376 
L 216.251283 144.556366 
L 227.411283 167.002428 
L 238.571283 176.438983 
L 249.731283 178.79037 
L 260.891283 185.797199 
L 272.051283 198.915574 
L 283.211283 198.335363 
L 294.371283 199.452844 
L 305.531283 209.32904 
L 316.691283 221.247327 
L 327.851283 214.447353 
L 339.011283 216.31758 
L 350.171283 223.700125 
L 361.331283 225.480967 
L 372.491283 229.387195 
L 383.651283 230.356448 
L 394.811283 231.930608 
L 405.971283 235.122654 
" clip-path="url(#pff64f23826)" style="fill: none; stroke: #ff7f0e; stroke-width: 1.5; stroke-linecap: square"/>
   </g>
   <g id="line2d_8">
    <path d="M 82.331283 285.37598 
L 82.331283 19.26398 
" clip-path="url(#pff64f23826)" style="fill: none; stroke-dasharray: 5.55,2.4; stroke-dashoffset: 0; stroke: #000000; stroke-opacity: 0.5; stroke-width: 1.5"/>
   </g>
   <g id="line2d_9">
    <path d="M 383.651283 285.37598 
L 383.651283 19.26398 
" clip-path="url(#pff64f23826)" style="fill: none; stroke-dasharray: 5.55,2.4; stroke-dashoffset: 0; stroke: #000000; stroke-opacity: 0.5; stroke-width: 1.5"/>
   </g>
   <g id="patch_3">
    <path d="M 48.851283 285.37598 
L 405.971283 285.37598 
" style="fill: none; stroke: #000000; stroke-width: 0.8; stroke-linejoin: miter; stroke-linecap: square"/>
   </g>
   <g id="text_8">
    <text style="font: 6.94px 'Arial', sans-serif" transform="translate(10.097767 321.385533) rotate(-35)">-0.1s Sampling</text>
   </g>
   <g id="text_9">
    <text style="font: 6.94px 'Arial', sans-serif" transform="translate(57.794497 311.430872) rotate(-35)">Sampling</text>
   </g>
   <g id="text_10">
    <text style="font: 6.94px 'Arial', sans-serif" transform="translate(319.037191 339.456682) rotate(-35)">Movement to Lateral Port</text>
   </g>
   <g id="text_11">
    <text style="font: 8.33px 'Arial', sans-serif; text-anchor: middle" x="227.411283" y="13.26398" transform="rotate(-0 227.411283 13.26398)">GP4_85_s3_L70_D250_mm2 - Trace:34_GP4_85_s3_L70_D250_mm2 (when: correct)</text>
   </g>
   <g id="legend_1">
    <g id="patch_4">
     <path d="M 131.766697 354.133136 
L 323.055869 354.133136 
Q 324.443869 354.133136 324.443869 352.745136 
L 324.443869 343.45638 
Q 324.443869 342.06838 323.055869 342.06838 
L 131.766697 342.06838 
Q 130.378697 342.06838 130.378697 343.45638 
L 130.378697 352.745136 
Q 130.378697 354.133136 131.766697 354.133136 
z
" style="fill: #ffffff; opacity: 0.8; stroke: #cccccc; stroke-linejoin: miter"/>
    </g>
    <g id="line2d_10">
     <path d="M 133.154697 347.467483 
L 140.094697 347.467483 
L 147.034697 347.467483 
" style="fill: none; stroke: #1f77b4; stroke-width: 1.5; stroke-linecap: square"/>
    </g>
    <g id="text_12">
     <text style="font: 6.94px 'Arial', sans-serif; text-anchor: start" x="152.586697" y="349.896483" transform="rotate(-0 152.586697 349.896483)">DecisionRight (100 pts)</text>
    </g>
    <g id="line2d_11">
     <path d="M 238.5939 347.467483 
L 245.5339 347.467483 
L 252.4739 347.467483 
" style="fill: none; stroke: #ff7f0e; stroke-width: 1.5; stroke-linecap: square"/>
    </g>
    <g id="text_13">
     <text style="font: 6.94px 'Arial', sans-serif; text-anchor: start" x="258.0259" y="349.896483" transform="rotate(-0 258.0259 349.896483)">DecisionLeft (95 pts)</text>
    </g>
   </g>
  </g>
 </g>
 <defs>
  <clipPath id="pff64f23826">
   <rect x="48.851283" y="19.26398" width="357.12" height="266.112"/>
  </clipPath>
 </defs>
</svg>
