<?xml version="1.0" encoding="utf-8" standalone="no"?>
<!DOCTYPE svg PUBLIC "-//W3C//DTD SVG 1.1//EN"
  "http://www.w3.org/Graphics/SVG/1.1/DTD/svg11.dtd">
<svg xmlns:xlink="http://www.w3.org/1999/xlink" width="417.084062pt" height="361.333136pt" viewBox="0 0 417.084062 361.333136" xmlns="http://www.w3.org/2000/svg" version="1.1">
 <metadata>
  <rdf:RDF xmlns:dc="http://purl.org/dc/elements/1.1/" xmlns:cc="http://creativecommons.org/ns#" xmlns:rdf="http://www.w3.org/1999/02/22-rdf-syntax-ns#">
   <cc:Work>
    <dc:type rdf:resource="http://purl.org/dc/dcmitype/StillImage"/>
    <dc:date>2025-12-29T04:07:52.094512</dc:date>
    <dc:format>image/svg+xml</dc:format>
    <dc:creator>
     <cc:Agent>
      <dc:title>Matplotlib v3.8.0, https://matplotlib.org/</dc:title>
     </cc:Agent>
    </dc:creator>
   </cc:Work>
  </rdf:RDF>
 </metadata>
 <defs>
  <style type="text/css">*{stroke-linejoin: round; stroke-linecap: butt}</style>
 </defs>
 <g id="figure_1">
  <g id="patch_1">
   <path d="M 0 361.333136 
L 417.084062 361.333136 
L 417.084062 -0 
L 0 -0 
z
" style="fill: #ffffff"/>
  </g>
  <g id="axes_1">
   <g id="patch_2">
    <path d="M 52.764063 285.37598 
L 409.884063 285.37598 
L 409.884063 19.26398 
L 52.764063 19.26398 
z
" style="fill: #ffffff"/>
   </g>
   <g id="PolyCollection_1">
    <defs>
     <path id="m6f7dca4795" d="M 52.764063 -104.137023 
L 52.764063 -88.053156 
L 63.924063 -100.253377 
L 75.084063 -115.243386 
L 86.244063 -147.967303 
L 97.404063 -189.768421 
L 108.564063 -231.426211 
L 119.724063 -257.194364 
L 130.884063 -271.093438 
L 142.044062 -284.518307 
L 153.204063 -290.539746 
L 164.364063 -298.729651 
L 175.524063 -290.367447 
L 186.684063 -273.67344 
L 197.844063 -263.308656 
L 209.004063 -261.650795 
L 220.164062 -258.320904 
L 231.324063 -255.73354 
L 242.484062 -251.066524 
L 253.644063 -246.689142 
L 264.804062 -234.103985 
L 275.964063 -219.066025 
L 287.124063 -219.182627 
L 298.284063 -218.449341 
L 309.444063 -209.553735 
L 320.604062 -197.551064 
L 331.764063 -184.445859 
L 342.924062 -177.65778 
L 354.084063 -175.960066 
L 365.244062 -169.80889 
L 376.404063 -142.616828 
L 387.564062 -115.016883 
L 398.724063 -96.764654 
L 409.884063 -94.385356 
L 409.884063 -107.954139 
L 409.884063 -107.954139 
L 398.724063 -111.584635 
L 387.564062 -130.820492 
L 376.404063 -160.581574 
L 365.244062 -188.863673 
L 354.084063 -196.192179 
L 342.924062 -198.741098 
L 331.764063 -205.932307 
L 320.604062 -219.735761 
L 309.444063 -234.238239 
L 298.284063 -243.949656 
L 287.124063 -245.405504 
L 275.964063 -245.444484 
L 264.804062 -261.404923 
L 253.644063 -275.678987 
L 242.484062 -281.355941 
L 231.324063 -286.725585 
L 220.164062 -289.223022 
L 209.004063 -292.574556 
L 197.844063 -293.518685 
L 186.684063 -303.615857 
L 175.524063 -321.436291 
L 164.364063 -329.973156 
L 153.204063 -323.635893 
L 142.044062 -316.78537 
L 130.884063 -302.158622 
L 119.724063 -288.91726 
L 108.564063 -259.775502 
L 97.404063 -213.143271 
L 86.244063 -168.034086 
L 75.084063 -133.155796 
L 63.924063 -117.1952 
L 52.764063 -104.137023 
z
" style="stroke: #1f77b4; stroke-opacity: 0.2"/>
    </defs>
    <g clip-path="url(#p1e75a586bc)">
     <use xlink:href="#m6f7dca4795" x="0" y="361.333136" style="fill: #1f77b4; fill-opacity: 0.2; stroke: #1f77b4; stroke-opacity: 0.2"/>
    </g>
   </g>
   <g id="PolyCollection_2">
    <defs>
     <path id="m837fcb45b6" d="M 52.764063 -137.331528 
L 52.764063 -115.353114 
L 63.924063 -122.334241 
L 75.084063 -133.29365 
L 86.244063 -151.703408 
L 97.404063 -182.988751 
L 108.564063 -212.862632 
L 119.724063 -229.495496 
L 130.884063 -243.377507 
L 142.044062 -253.779586 
L 153.204063 -261.423228 
L 164.364063 -261.455418 
L 175.524063 -265.7149 
L 186.684063 -261.141334 
L 197.844063 -255.765658 
L 209.004063 -247.158485 
L 220.164062 -244.375285 
L 231.324063 -235.291947 
L 242.484062 -222.207538 
L 253.644063 -214.942414 
L 264.804062 -209.677042 
L 275.964063 -209.196663 
L 287.124063 -207.093646 
L 298.284063 -205.815414 
L 309.444063 -201.405281 
L 320.604062 -195.124936 
L 331.764063 -177.565634 
L 342.924062 -177.005243 
L 354.084063 -176.107407 
L 365.244062 -169.860258 
L 376.404063 -146.033176 
L 387.564062 -122.923412 
L 398.724063 -112.87755 
L 409.884063 -104.135624 
L 409.884063 -117.997073 
L 409.884063 -117.997073 
L 398.724063 -128.373492 
L 387.564062 -142.038431 
L 376.404063 -169.707139 
L 365.244062 -194.054987 
L 354.084063 -200.402242 
L 342.924062 -201.169057 
L 331.764063 -201.508538 
L 320.604062 -219.442184 
L 309.444063 -226.5853 
L 298.284063 -231.3677 
L 287.124063 -233.060204 
L 275.964063 -236.713452 
L 264.804062 -239.324531 
L 253.644063 -245.003856 
L 242.484062 -253.037856 
L 231.324063 -268.252018 
L 220.164062 -278.962188 
L 209.004063 -283.361754 
L 197.844063 -292.831862 
L 186.684063 -298.725071 
L 175.524063 -304.222494 
L 164.364063 -299.039042 
L 153.204063 -296.570869 
L 142.044062 -287.274397 
L 130.884063 -274.739018 
L 119.724063 -257.046297 
L 108.564063 -238.114184 
L 97.404063 -205.310534 
L 86.244063 -170.688716 
L 75.084063 -151.88217 
L 63.924063 -142.705762 
L 52.764063 -137.331528 
z
" style="stroke: #ff7f0e; stroke-opacity: 0.2"/>
    </defs>
    <g clip-path="url(#p1e75a586bc)">
     <use xlink:href="#m837fcb45b6" x="0" y="361.333136" style="fill: #ff7f0e; fill-opacity: 0.2; stroke: #ff7f0e; stroke-opacity: 0.2"/>
    </g>
   </g>
   <g id="matplotlib.axis_1">
    <g id="text_1">
     <text style="font: 10px 'Arial', sans-serif; text-anchor: middle" x="231.324063" y="296.533792" transform="rotate(-0 231.324063 296.533792)">Time</text>
    </g>
   </g>
   <g id="matplotlib.axis_2">
    <g id="ytick_1">
     <g id="line2d_1">
      <defs>
       <path id="ma8f66ba4b4" d="M 0 0 
L -3.5 0 
" style="stroke: #000000; stroke-width: 0.8"/>
      </defs>
      <g>
       <use xlink:href="#ma8f66ba4b4" x="52.764063" y="270.994193" style="stroke: #000000; stroke-width: 0.8"/>
      </g>
     </g>
     <g id="text_2">
      <text style="font: 10px 'Arial', sans-serif; text-anchor: end" x="45.764063" y="274.573099" transform="rotate(-0 45.764063 274.573099)">−0.50</text>
     </g>
    </g>
    <g id="ytick_2">
     <g id="line2d_2">
      <g>
       <use xlink:href="#ma8f66ba4b4" x="52.764063" y="237.172315" style="stroke: #000000; stroke-width: 0.8"/>
      </g>
     </g>
     <g id="text_3">
      <text style="font: 10px 'Arial', sans-serif; text-anchor: end" x="45.764063" y="240.751222" transform="rotate(-0 45.764063 240.751222)">−0.25</text>
     </g>
    </g>
    <g id="ytick_3">
     <g id="line2d_3">
      <g>
       <use xlink:href="#ma8f66ba4b4" x="52.764063" y="203.350438" style="stroke: #000000; stroke-width: 0.8"/>
      </g>
     </g>
     <g id="text_4">
      <text style="font: 10px 'Arial', sans-serif; text-anchor: end" x="45.764063" y="206.929344" transform="rotate(-0 45.764063 206.929344)">0.00</text>
     </g>
    </g>
    <g id="ytick_4">
     <g id="line2d_4">
      <g>
       <use xlink:href="#ma8f66ba4b4" x="52.764063" y="169.52856" style="stroke: #000000; stroke-width: 0.8"/>
      </g>
     </g>
     <g id="text_5">
      <text style="font: 10px 'Arial', sans-serif; text-anchor: end" x="45.764063" y="173.107466" transform="rotate(-0 45.764063 173.107466)">0.25</text>
     </g>
    </g>
    <g id="ytick_5">
     <g id="line2d_5">
      <g>
       <use xlink:href="#ma8f66ba4b4" x="52.764063" y="135.706682" style="stroke: #000000; stroke-width: 0.8"/>
      </g>
     </g>
     <g id="text_6">
      <text style="font: 10px 'Arial', sans-serif; text-anchor: end" x="45.764063" y="139.285589" transform="rotate(-0 45.764063 139.285589)">0.50</text>
     </g>
    </g>
    <g id="ytick_6">
     <g id="line2d_6">
      <g>
       <use xlink:href="#ma8f66ba4b4" x="52.764063" y="101.884805" style="stroke: #000000; stroke-width: 0.8"/>
      </g>
     </g>
     <g id="text_7">
      <text style="font: 10px 'Arial', sans-serif; text-anchor: end" x="45.764063" y="105.463711" transform="rotate(-0 45.764063 105.463711)">0.75</text>
     </g>
    </g>
    <g id="ytick_7">
     <g id="line2d_7">
      <g>
       <use xlink:href="#ma8f66ba4b4" x="52.764063" y="68.062927" style="stroke: #000000; stroke-width: 0.8"/>
      </g>
     </g>
     <g id="text_8">
      <text style="font: 10px 'Arial', sans-serif; text-anchor: end" x="45.764063" y="71.641834" transform="rotate(-0 45.764063 71.641834)">1.00</text>
     </g>
    </g>
    <g id="ytick_8">
     <g id="line2d_8">
      <g>
       <use xlink:href="#ma8f66ba4b4" x="52.764063" y="34.24105" style="stroke: #000000; stroke-width: 0.8"/>
      </g>
     </g>
     <g id="text_9">
      <text style="font: 10px 'Arial', sans-serif; text-anchor: end" x="45.764063" y="37.819956" transform="rotate(-0 45.764063 37.819956)">1.25</text>
     </g>
    </g>
    <g id="text_10">
     <text style="font: 10px 'Arial', sans-serif; text-anchor: middle" x="14.357813" y="152.31998" transform="rotate(-90 14.357813 152.31998)">Activity</text>
    </g>
   </g>
   <g id="line2d_9">
    <path d="M 52.764063 265.238048 
L 63.924063 252.608847 
L 75.084063 237.133545 
L 86.244063 203.332441 
L 97.404063 159.877291 
L 108.564063 115.732279 
L 119.724063 88.277324 
L 130.884063 74.707106 
L 142.044062 60.681293 
L 153.204063 54.245313 
L 164.364063 46.981732 
L 175.524063 55.431267 
L 186.684063 72.688488 
L 197.844063 82.919461 
L 209.004063 84.220461 
L 220.164062 87.561173 
L 231.324063 90.103573 
L 242.484062 95.121903 
L 253.644063 100.149072 
L 264.804062 113.578682 
L 275.964063 129.077881 
L 287.124063 129.039071 
L 298.284063 130.133638 
L 309.444063 139.437149 
L 320.604062 152.689723 
L 331.764063 166.144053 
L 342.924062 173.133696 
L 354.084063 175.257014 
L 365.244062 181.996855 
L 376.404063 209.733935 
L 387.564062 238.414449 
L 398.724063 257.158491 
L 409.884063 260.163389 
" clip-path="url(#p1e75a586bc)" style="fill: none; stroke: #1f77b4; stroke-width: 1.5; stroke-linecap: square"/>
   </g>
   <g id="line2d_10">
    <path d="M 52.764063 234.990815 
L 63.924063 228.813133 
L 75.084063 218.745226 
L 86.244063 200.137074 
L 97.404063 167.183493 
L 108.564063 135.84473 
L 119.724063 118.06224 
L 130.884063 102.274873 
L 142.044062 90.806145 
L 153.204063 82.336088 
L 164.364063 81.085906 
L 175.524063 76.364443 
L 186.684063 81.399933 
L 197.844063 87.034375 
L 209.004063 96.073016 
L 220.164062 99.664399 
L 231.324063 109.561153 
L 242.484062 123.710438 
L 253.644063 131.359999 
L 264.804062 136.832352 
L 275.964063 138.378078 
L 287.124063 141.256209 
L 298.284063 142.741579 
L 309.444063 147.337844 
L 320.604062 154.049576 
L 331.764063 171.79605 
L 342.924062 172.245986 
L 354.084063 173.078312 
L 365.244062 179.375515 
L 376.404063 203.462979 
L 387.564062 228.852214 
L 398.724063 240.707615 
L 409.884063 250.266787 
" clip-path="url(#p1e75a586bc)" style="fill: none; stroke: #ff7f0e; stroke-width: 1.5; stroke-linecap: square"/>
   </g>
   <g id="line2d_11">
    <path d="M 86.244063 285.37598 
L 86.244063 19.26398 
" clip-path="url(#p1e75a586bc)" style="fill: none; stroke-dasharray: 5.55,2.4; stroke-dashoffset: 0; stroke: #000000; stroke-opacity: 0.5; stroke-width: 1.5"/>
   </g>
   <g id="line2d_12">
    <path d="M 387.564062 285.37598 
L 387.564062 19.26398 
" clip-path="url(#p1e75a586bc)" style="fill: none; stroke-dasharray: 5.55,2.4; stroke-dashoffset: 0; stroke: #000000; stroke-opacity: 0.5; stroke-width: 1.5"/>
   </g>
   <g id="patch_3">
    <path d="M 52.764063 285.37598 
L 409.884063 285.37598 
" style="fill: none; stroke: #000000; stroke-width: 0.8; stroke-linejoin: miter; stroke-linecap: square"/>
   </g>
   <g id="text_11">
    <text style="font: 6.94px 'Arial', sans-serif" transform="translate(14.010547 321.385533) rotate(-35)">-0.1s Sampling</text>
   </g>
   <g id="text_12">
    <text style="font: 6.94px 'Arial', sans-serif" transform="translate(61.707276 311.430872) rotate(-35)">Sampling</text>
   </g>
   <g id="text_13">
    <text style="font: 6.94px 'Arial', sans-serif" transform="translate(322.94997 339.456682) rotate(-35)">Movement to Lateral Port</text>
   </g>
   <g id="text_14">
    <text style="font: 8.33px 'Arial', sans-serif; text-anchor: middle" x="231.324063" y="13.26398" transform="rotate(-0 231.324063 13.26398)">GP4_85_s3_L70_D250_mm2 - Trace:379_GP4_85_s3_L70_D250_mm2 (when: correct)</text>
   </g>
   <g id="legend_1">
    <g id="patch_4">
     <path d="M 135.679477 354.133136 
L 326.968648 354.133136 
Q 328.356648 354.133136 328.356648 352.745136 
L 328.356648 343.45638 
Q 328.356648 342.06838 326.968648 342.06838 
L 135.679477 342.06838 
Q 134.291477 342.06838 134.291477 343.45638 
L 134.291477 352.745136 
Q 134.291477 354.133136 135.679477 354.133136 
z
" style="fill: #ffffff; opacity: 0.8; stroke: #cccccc; stroke-linejoin: miter"/>
    </g>
    <g id="line2d_13">
     <path d="M 137.067477 347.467483 
L 144.007477 347.467483 
L 150.947477 347.467483 
" style="fill: none; stroke: #1f77b4; stroke-width: 1.5; stroke-linecap: square"/>
    </g>
    <g id="text_15">
     <text style="font: 6.94px 'Arial', sans-serif; text-anchor: start" x="156.499477" y="349.896483" transform="rotate(-0 156.499477 349.896483)">DecisionRight (100 pts)</text>
    </g>
    <g id="line2d_14">
     <path d="M 242.50668 347.467483 
L 249.44668 347.467483 
L 256.38668 347.467483 
" style="fill: none; stroke: #ff7f0e; stroke-width: 1.5; stroke-linecap: square"/>
    </g>
    <g id="text_16">
     <text style="font: 6.94px 'Arial', sans-serif; text-anchor: start" x="261.93868" y="349.896483" transform="rotate(-0 261.93868 349.896483)">DecisionLeft (95 pts)</text>
    </g>
   </g>
  </g>
 </g>
 <defs>
  <clipPath id="p1e75a586bc">
   <rect x="52.764063" y="19.26398" width="357.12" height="266.112"/>
  </clipPath>
 </defs>
</svg>
