<?xml version="1.0" encoding="utf-8" standalone="no"?>
<!DOCTYPE svg PUBLIC "-//W3C//DTD SVG 1.1//EN"
  "http://www.w3.org/Graphics/SVG/1.1/DTD/svg11.dtd">
<svg xmlns:xlink="http://www.w3.org/1999/xlink" width="413.171283pt" height="361.333136pt" viewBox="0 0 413.171283 361.333136" xmlns="http://www.w3.org/2000/svg" version="1.1">
 <metadata>
  <rdf:RDF xmlns:dc="http://purl.org/dc/elements/1.1/" xmlns:cc="http://creativecommons.org/ns#" xmlns:rdf="http://www.w3.org/1999/02/22-rdf-syntax-ns#">
   <cc:Work>
    <dc:type rdf:resource="http://purl.org/dc/dcmitype/StillImage"/>
    <dc:date>2025-12-29T04:07:50.343162</dc:date>
    <dc:format>image/svg+xml</dc:format>
    <dc:creator>
     <cc:Agent>
      <dc:title>Matplotlib v3.8.0, https://matplotlib.org/</dc:title>
     </cc:Agent>
    </dc:creator>
   </cc:Work>
  </rdf:RDF>
 </metadata>
 <defs>
  <style type="text/css">*{stroke-linejoin: round; stroke-linecap: butt}</style>
 </defs>
 <g id="figure_1">
  <g id="patch_1">
   <path d="M 0 361.333136 
L 413.171283 361.333136 
L 413.171283 -0 
L 0 -0 
z
" style="fill: #ffffff"/>
  </g>
  <g id="axes_1">
   <g id="patch_2">
    <path d="M 48.851283 285.37598 
L 405.971283 285.37598 
L 405.971283 19.26398 
L 48.851283 19.26398 
z
" style="fill: #ffffff"/>
   </g>
   <g id="PolyCollection_1">
    <defs>
     <path id="m68f15b19c2" d="M 48.851283 -104.089384 
L 48.851283 -88.053156 
L 60.011283 -92.987945 
L 71.171283 -109.425056 
L 82.331283 -123.099175 
L 93.491283 -129.485988 
L 104.651283 -135.54567 
L 115.811283 -152.371041 
L 126.971283 -171.213849 
L 138.131283 -178.143268 
L 149.291283 -191.943073 
L 160.451283 -212.945638 
L 171.611283 -232.70509 
L 182.771283 -244.124301 
L 193.931283 -255.079147 
L 205.091283 -268.979889 
L 216.251283 -279.054357 
L 227.411283 -272.686131 
L 238.571283 -274.2487 
L 249.731283 -272.036877 
L 260.891283 -273.801852 
L 272.051283 -274.360346 
L 283.211283 -262.244436 
L 294.371283 -263.269074 
L 305.531283 -256.676977 
L 316.691283 -250.440654 
L 327.851283 -249.285893 
L 339.011283 -246.349222 
L 350.171283 -231.413371 
L 361.331283 -215.53078 
L 372.491283 -202.541491 
L 383.651283 -185.126638 
L 394.811283 -164.175328 
L 405.971283 -145.235221 
L 405.971283 -169.111246 
L 405.971283 -169.111246 
L 394.811283 -189.694753 
L 383.651283 -212.091738 
L 372.491283 -233.698675 
L 361.331283 -250.631655 
L 350.171283 -270.004536 
L 339.011283 -289.064986 
L 327.851283 -293.515572 
L 316.691283 -298.927501 
L 305.531283 -308.604079 
L 294.371283 -315.280158 
L 283.211283 -312.41893 
L 272.051283 -323.24353 
L 260.891283 -321.047747 
L 249.731283 -320.176431 
L 238.571283 -325.953007 
L 227.411283 -325.138865 
L 216.251283 -329.973156 
L 205.091283 -320.235881 
L 193.931283 -306.434181 
L 182.771283 -294.378359 
L 171.611283 -281.941126 
L 160.451283 -257.377988 
L 149.291283 -235.251449 
L 138.131283 -217.839697 
L 126.971283 -207.061782 
L 115.811283 -182.181459 
L 104.651283 -158.282695 
L 93.491283 -147.692885 
L 82.331283 -137.444356 
L 71.171283 -121.698657 
L 60.011283 -108.623275 
L 48.851283 -104.089384 
z
" style="stroke: #1f77b4; stroke-opacity: 0.2"/>
    </defs>
    <g clip-path="url(#p1fe14d9c2f)">
     <use xlink:href="#m68f15b19c2" x="0" y="361.333136" style="fill: #1f77b4; fill-opacity: 0.2; stroke: #1f77b4; stroke-opacity: 0.2"/>
    </g>
   </g>
   <g id="PolyCollection_2">
    <defs>
     <path id="mcc4705b245" d="M 48.851283 -127.115569 
L 48.851283 -107.861958 
L 60.011283 -115.939202 
L 71.171283 -124.361964 
L 82.331283 -127.009007 
L 93.491283 -121.415654 
L 104.651283 -122.517039 
L 115.811283 -138.080644 
L 126.971283 -153.617358 
L 138.131283 -170.542124 
L 149.291283 -178.91571 
L 160.451283 -191.869283 
L 171.611283 -202.248555 
L 182.771283 -216.211305 
L 193.931283 -227.584203 
L 205.091283 -224.683087 
L 216.251283 -217.712045 
L 227.411283 -219.381914 
L 238.571283 -213.501076 
L 249.731283 -210.728779 
L 260.891283 -215.27626 
L 272.051283 -223.32952 
L 283.211283 -230.61645 
L 294.371283 -230.143651 
L 305.531283 -214.101313 
L 316.691283 -198.806669 
L 327.851283 -180.332412 
L 339.011283 -178.377262 
L 350.171283 -185.164249 
L 361.331283 -186.399892 
L 372.491283 -177.938905 
L 383.651283 -168.348869 
L 394.811283 -151.72501 
L 405.971283 -136.443984 
L 405.971283 -154.593559 
L 405.971283 -154.593559 
L 394.811283 -171.673474 
L 383.651283 -192.863863 
L 372.491283 -206.054169 
L 361.331283 -215.164467 
L 350.171283 -214.400927 
L 339.011283 -209.074784 
L 327.851283 -212.710581 
L 316.691283 -231.471592 
L 305.531283 -246.980445 
L 294.371283 -263.72033 
L 283.211283 -265.606175 
L 272.051283 -259.949479 
L 260.891283 -252.716801 
L 249.731283 -247.651089 
L 238.571283 -248.978716 
L 227.411283 -254.500272 
L 216.251283 -253.952193 
L 205.091283 -262.037081 
L 193.931283 -264.605421 
L 182.771283 -253.770302 
L 171.611283 -238.999872 
L 160.451283 -225.580711 
L 149.291283 -210.515584 
L 138.131283 -197.875565 
L 126.971283 -177.021682 
L 115.811283 -159.335016 
L 104.651283 -141.165823 
L 93.491283 -139.328716 
L 82.331283 -144.544313 
L 71.171283 -141.348493 
L 60.011283 -133.062002 
L 48.851283 -127.115569 
z
" style="stroke: #ff7f0e; stroke-opacity: 0.2"/>
    </defs>
    <g clip-path="url(#p1fe14d9c2f)">
     <use xlink:href="#mcc4705b245" x="0" y="361.333136" style="fill: #ff7f0e; fill-opacity: 0.2; stroke: #ff7f0e; stroke-opacity: 0.2"/>
    </g>
   </g>
   <g id="matplotlib.axis_1">
    <g id="text_1">
     <text style="font: 10px 'Arial', sans-serif; text-anchor: middle" x="227.411283" y="296.533792" transform="rotate(-0 227.411283 296.533792)">Time</text>
    </g>
   </g>
   <g id="matplotlib.axis_2">
    <g id="ytick_1">
     <g id="line2d_1">
      <defs>
       <path id="m35e35d3495" d="M 0 0 
L -3.5 0 
" style="stroke: #000000; stroke-width: 0.8"/>
      </defs>
      <g>
       <use xlink:href="#m35e35d3495" x="48.851283" y="258.56381" style="stroke: #000000; stroke-width: 0.8"/>
      </g>
     </g>
     <g id="text_2">
      <text style="font: 10px 'Arial', sans-serif; text-anchor: end" x="41.851283" y="262.142716" transform="rotate(-0 41.851283 262.142716)">−0.4</text>
     </g>
    </g>
    <g id="ytick_2">
     <g id="line2d_2">
      <g>
       <use xlink:href="#m35e35d3495" x="48.851283" y="226.621458" style="stroke: #000000; stroke-width: 0.8"/>
      </g>
     </g>
     <g id="text_3">
      <text style="font: 10px 'Arial', sans-serif; text-anchor: end" x="41.851283" y="230.200364" transform="rotate(-0 41.851283 230.200364)">−0.2</text>
     </g>
    </g>
    <g id="ytick_3">
     <g id="line2d_3">
      <g>
       <use xlink:href="#m35e35d3495" x="48.851283" y="194.679105" style="stroke: #000000; stroke-width: 0.8"/>
      </g>
     </g>
     <g id="text_4">
      <text style="font: 10px 'Arial', sans-serif; text-anchor: end" x="41.851283" y="198.258011" transform="rotate(-0 41.851283 198.258011)">0.0</text>
     </g>
    </g>
    <g id="ytick_4">
     <g id="line2d_4">
      <g>
       <use xlink:href="#m35e35d3495" x="48.851283" y="162.736752" style="stroke: #000000; stroke-width: 0.8"/>
      </g>
     </g>
     <g id="text_5">
      <text style="font: 10px 'Arial', sans-serif; text-anchor: end" x="41.851283" y="166.315659" transform="rotate(-0 41.851283 166.315659)">0.2</text>
     </g>
    </g>
    <g id="ytick_5">
     <g id="line2d_5">
      <g>
       <use xlink:href="#m35e35d3495" x="48.851283" y="130.7944" style="stroke: #000000; stroke-width: 0.8"/>
      </g>
     </g>
     <g id="text_6">
      <text style="font: 10px 'Arial', sans-serif; text-anchor: end" x="41.851283" y="134.373306" transform="rotate(-0 41.851283 134.373306)">0.4</text>
     </g>
    </g>
    <g id="ytick_6">
     <g id="line2d_6">
      <g>
       <use xlink:href="#m35e35d3495" x="48.851283" y="98.852047" style="stroke: #000000; stroke-width: 0.8"/>
      </g>
     </g>
     <g id="text_7">
      <text style="font: 10px 'Arial', sans-serif; text-anchor: end" x="41.851283" y="102.430953" transform="rotate(-0 41.851283 102.430953)">0.6</text>
     </g>
    </g>
    <g id="ytick_7">
     <g id="line2d_7">
      <g>
       <use xlink:href="#m35e35d3495" x="48.851283" y="66.909695" style="stroke: #000000; stroke-width: 0.8"/>
      </g>
     </g>
     <g id="text_8">
      <text style="font: 10px 'Arial', sans-serif; text-anchor: end" x="41.851283" y="70.488601" transform="rotate(-0 41.851283 70.488601)">0.8</text>
     </g>
    </g>
    <g id="ytick_8">
     <g id="line2d_8">
      <g>
       <use xlink:href="#m35e35d3495" x="48.851283" y="34.967342" style="stroke: #000000; stroke-width: 0.8"/>
      </g>
     </g>
     <g id="text_9">
      <text style="font: 10px 'Arial', sans-serif; text-anchor: end" x="41.851283" y="38.546248" transform="rotate(-0 41.851283 38.546248)">1.0</text>
     </g>
    </g>
    <g id="text_10">
     <text style="font: 10px 'Arial', sans-serif; text-anchor: middle" x="16.005971" y="152.31998" transform="rotate(-90 16.005971 152.31998)">Activity</text>
    </g>
   </g>
   <g id="line2d_9">
    <path d="M 48.851283 265.261866 
L 60.011283 260.527526 
L 71.171283 245.77128 
L 82.331283 231.06137 
L 93.491283 222.7437 
L 104.651283 214.418953 
L 115.811283 194.056886 
L 126.971283 172.195321 
L 138.131283 163.341653 
L 149.291283 147.735875 
L 160.451283 126.171323 
L 171.611283 104.010028 
L 182.771283 92.081806 
L 193.931283 80.576472 
L 205.091283 66.725251 
L 216.251283 56.819375 
L 227.411283 62.420638 
L 238.571283 61.232282 
L 249.731283 65.226482 
L 260.891283 63.908336 
L 272.051283 62.531198 
L 283.211283 74.001453 
L 294.371283 72.05852 
L 305.531283 78.692608 
L 316.691283 86.649058 
L 327.851283 89.932403 
L 339.011283 93.626032 
L 350.171283 110.624182 
L 361.331283 128.251919 
L 372.491283 143.213054 
L 383.651283 162.723948 
L 394.811283 184.398095 
L 405.971283 204.159902 
" clip-path="url(#p1fe14d9c2f)" style="fill: none; stroke: #1f77b4; stroke-width: 1.5; stroke-linecap: square"/>
   </g>
   <g id="line2d_10">
    <path d="M 48.851283 243.844373 
L 60.011283 236.832534 
L 71.171283 228.477906 
L 82.331283 225.556476 
L 93.491283 230.960951 
L 104.651283 229.491704 
L 115.811283 212.625306 
L 126.971283 196.013616 
L 138.131283 177.124292 
L 149.291283 166.61749 
L 160.451283 152.608139 
L 171.611283 140.708924 
L 182.771283 126.342332 
L 193.931283 115.238324 
L 205.091283 117.973052 
L 216.251283 125.501017 
L 227.411283 124.392041 
L 238.571283 130.09324 
L 249.731283 132.143202 
L 260.891283 127.336608 
L 272.051283 119.693636 
L 283.211283 113.221824 
L 294.371283 114.401145 
L 305.531283 130.792257 
L 316.691283 146.194005 
L 327.851283 164.811641 
L 339.011283 167.607113 
L 350.171283 161.550548 
L 361.331283 160.550958 
L 372.491283 169.336598 
L 383.651283 180.726771 
L 394.811283 199.633894 
L 405.971283 215.814365 
" clip-path="url(#p1fe14d9c2f)" style="fill: none; stroke: #ff7f0e; stroke-width: 1.5; stroke-linecap: square"/>
   </g>
   <g id="line2d_11">
    <path d="M 82.331283 285.37598 
L 82.331283 19.26398 
" clip-path="url(#p1fe14d9c2f)" style="fill: none; stroke-dasharray: 5.55,2.4; stroke-dashoffset: 0; stroke: #000000; stroke-opacity: 0.5; stroke-width: 1.5"/>
   </g>
   <g id="line2d_12">
    <path d="M 383.651283 285.37598 
L 383.651283 19.26398 
" clip-path="url(#p1fe14d9c2f)" style="fill: none; stroke-dasharray: 5.55,2.4; stroke-dashoffset: 0; stroke: #000000; stroke-opacity: 0.5; stroke-width: 1.5"/>
   </g>
   <g id="patch_3">
    <path d="M 48.851283 285.37598 
L 405.971283 285.37598 
" style="fill: none; stroke: #000000; stroke-width: 0.8; stroke-linejoin: miter; stroke-linecap: square"/>
   </g>
   <g id="text_11">
    <text style="font: 6.94px 'Arial', sans-serif" transform="translate(10.097767 321.385533) rotate(-35)">-0.1s Sampling</text>
   </g>
   <g id="text_12">
    <text style="font: 6.94px 'Arial', sans-serif" transform="translate(57.794497 311.430872) rotate(-35)">Sampling</text>
   </g>
   <g id="text_13">
    <text style="font: 6.94px 'Arial', sans-serif" transform="translate(319.037191 339.456682) rotate(-35)">Movement to Lateral Port</text>
   </g>
   <g id="text_14">
    <text style="font: 8.33px 'Arial', sans-serif; text-anchor: middle" x="227.411283" y="13.26398" transform="rotate(-0 227.411283 13.26398)">GP4_85_s3_L70_D250_mm2 - Trace:77_GP4_85_s3_L70_D250_mm2 (when: correct)</text>
   </g>
   <g id="legend_1">
    <g id="patch_4">
     <path d="M 131.766697 354.133136 
L 323.055869 354.133136 
Q 324.443869 354.133136 324.443869 352.745136 
L 324.443869 343.45638 
Q 324.443869 342.06838 323.055869 342.06838 
L 131.766697 342.06838 
Q 130.378697 342.06838 130.378697 343.45638 
L 130.378697 352.745136 
Q 130.378697 354.133136 131.766697 354.133136 
z
" style="fill: #ffffff; opacity: 0.8; stroke: #cccccc; stroke-linejoin: miter"/>
    </g>
    <g id="line2d_13">
     <path d="M 133.154697 347.467483 
L 140.094697 347.467483 
L 147.034697 347.467483 
" style="fill: none; stroke: #1f77b4; stroke-width: 1.5; stroke-linecap: square"/>
    </g>
    <g id="text_15">
     <text style="font: 6.94px 'Arial', sans-serif; text-anchor: start" x="152.586697" y="349.896483" transform="rotate(-0 152.586697 349.896483)">DecisionRight (100 pts)</text>
    </g>
    <g id="line2d_14">
     <path d="M 238.5939 347.467483 
L 245.5339 347.467483 
L 252.4739 347.467483 
" style="fill: none; stroke: #ff7f0e; stroke-width: 1.5; stroke-linecap: square"/>
    </g>
    <g id="text_16">
     <text style="font: 6.94px 'Arial', sans-serif; text-anchor: start" x="258.0259" y="349.896483" transform="rotate(-0 258.0259 349.896483)">DecisionLeft (95 pts)</text>
    </g>
   </g>
  </g>
 </g>
 <defs>
  <clipPath id="p1fe14d9c2f">
   <rect x="48.851283" y="19.26398" width="357.12" height="266.112"/>
  </clipPath>
 </defs>
</svg>
