<?xml version="1.0" encoding="utf-8" standalone="no"?>
<!DOCTYPE svg PUBLIC "-//W3C//DTD SVG 1.1//EN"
  "http://www.w3.org/Graphics/SVG/1.1/DTD/svg11.dtd">
<svg xmlns:xlink="http://www.w3.org/1999/xlink" width="413.171283pt" height="361.333136pt" viewBox="0 0 413.171283 361.333136" xmlns="http://www.w3.org/2000/svg" version="1.1">
 <metadata>
  <rdf:RDF xmlns:dc="http://purl.org/dc/elements/1.1/" xmlns:cc="http://creativecommons.org/ns#" xmlns:rdf="http://www.w3.org/1999/02/22-rdf-syntax-ns#">
   <cc:Work>
    <dc:type rdf:resource="http://purl.org/dc/dcmitype/StillImage"/>
    <dc:date>2025-12-29T04:07:50.077603</dc:date>
    <dc:format>image/svg+xml</dc:format>
    <dc:creator>
     <cc:Agent>
      <dc:title>Matplotlib v3.8.0, https://matplotlib.org/</dc:title>
     </cc:Agent>
    </dc:creator>
   </cc:Work>
  </rdf:RDF>
 </metadata>
 <defs>
  <style type="text/css">*{stroke-linejoin: round; stroke-linecap: butt}</style>
 </defs>
 <g id="figure_1">
  <g id="patch_1">
   <path d="M 0 361.333136 
L 413.171283 361.333136 
L 413.171283 -0 
L 0 -0 
z
" style="fill: #ffffff"/>
  </g>
  <g id="axes_1">
   <g id="patch_2">
    <path d="M 48.851283 285.37598 
L 405.971283 285.37598 
L 405.971283 19.26398 
L 48.851283 19.26398 
z
" style="fill: #ffffff"/>
   </g>
   <g id="PolyCollection_1">
    <defs>
     <path id="m14374a9d30" d="M 48.851283 -115.979475 
L 48.851283 -105.535733 
L 60.011283 -113.845929 
L 71.171283 -134.060751 
L 82.331283 -170.096809 
L 93.491283 -212.784123 
L 104.651283 -259.489988 
L 115.811283 -288.337859 
L 126.971283 -301.107941 
L 138.131283 -304.037806 
L 149.291283 -296.165997 
L 160.451283 -285.155037 
L 171.611283 -275.166291 
L 182.771283 -263.252071 
L 193.931283 -254.538961 
L 205.091283 -246.631932 
L 216.251283 -238.099201 
L 227.411283 -227.723063 
L 238.571283 -218.303183 
L 249.731283 -209.108818 
L 260.891283 -206.791192 
L 272.051283 -202.349378 
L 283.211283 -189.957363 
L 294.371283 -180.246704 
L 305.531283 -173.462193 
L 316.691283 -170.953092 
L 327.851283 -166.809813 
L 339.011283 -163.777648 
L 350.171283 -156.220984 
L 361.331283 -145.003301 
L 372.491283 -126.033854 
L 383.651283 -104.530597 
L 394.811283 -92.096278 
L 405.971283 -89.293677 
L 405.971283 -95.149385 
L 405.971283 -95.149385 
L 394.811283 -98.756357 
L 383.651283 -113.303067 
L 372.491283 -136.636401 
L 361.331283 -158.047814 
L 350.171283 -170.575466 
L 339.011283 -177.373565 
L 327.851283 -180.623864 
L 316.691283 -185.856549 
L 305.531283 -189.704911 
L 294.371283 -197.514075 
L 283.211283 -208.491058 
L 272.051283 -221.966494 
L 260.891283 -226.96596 
L 249.731283 -229.261291 
L 238.571283 -239.100712 
L 227.411283 -248.924775 
L 216.251283 -260.080329 
L 205.091283 -269.251345 
L 193.931283 -278.510119 
L 182.771283 -288.618113 
L 171.611283 -300.848904 
L 160.451283 -311.597211 
L 149.291283 -322.247082 
L 138.131283 -329.973156 
L 126.971283 -326.41064 
L 115.811283 -312.226259 
L 104.651283 -283.557167 
L 93.491283 -232.102661 
L 82.331283 -184.778913 
L 71.171283 -145.570627 
L 60.011283 -124.495831 
L 48.851283 -115.979475 
z
" style="stroke: #1f77b4; stroke-opacity: 0.2"/>
    </defs>
    <g clip-path="url(#p7b4a20a610)">
     <use xlink:href="#m14374a9d30" x="0" y="361.333136" style="fill: #1f77b4; fill-opacity: 0.2; stroke: #1f77b4; stroke-opacity: 0.2"/>
    </g>
   </g>
   <g id="PolyCollection_2">
    <defs>
     <path id="mc35365c3c2" d="M 48.851283 -143.683757 
L 48.851283 -127.947263 
L 60.011283 -143.094584 
L 71.171283 -162.802283 
L 82.331283 -190.471451 
L 93.491283 -226.213037 
L 104.651283 -254.900184 
L 115.811283 -270.242548 
L 126.971283 -274.636057 
L 138.131283 -273.639792 
L 149.291283 -275.051443 
L 160.451283 -271.844009 
L 171.611283 -260.847623 
L 182.771283 -251.995091 
L 193.931283 -244.079586 
L 205.091283 -232.138157 
L 216.251283 -221.834861 
L 227.411283 -214.047815 
L 238.571283 -203.361764 
L 249.731283 -195.841137 
L 260.891283 -189.322281 
L 272.051283 -183.508936 
L 283.211283 -180.25939 
L 294.371283 -175.184936 
L 305.531283 -172.58288 
L 316.691283 -166.569836 
L 327.851283 -158.458506 
L 339.011283 -155.686519 
L 350.171283 -152.183963 
L 361.331283 -143.385547 
L 372.491283 -129.906785 
L 383.651283 -115.164706 
L 394.811283 -100.079894 
L 405.971283 -88.053156 
L 405.971283 -95.476387 
L 405.971283 -95.476387 
L 394.811283 -108.739873 
L 383.651283 -125.363984 
L 372.491283 -141.855422 
L 361.331283 -155.897121 
L 350.171283 -164.991616 
L 339.011283 -169.188886 
L 327.851283 -172.216909 
L 316.691283 -180.265797 
L 305.531283 -186.387903 
L 294.371283 -189.356803 
L 283.211283 -195.353398 
L 272.051283 -200.283959 
L 260.891283 -207.296758 
L 249.731283 -214.47107 
L 238.571283 -223.356083 
L 227.411283 -236.099531 
L 216.251283 -245.528585 
L 205.091283 -257.007096 
L 193.931283 -270.13351 
L 182.771283 -279.579485 
L 171.611283 -290.207796 
L 160.451283 -301.698503 
L 149.291283 -304.268799 
L 138.131283 -302.565115 
L 126.971283 -302.613554 
L 115.811283 -297.712952 
L 104.651283 -280.49619 
L 93.491283 -249.482366 
L 82.331283 -210.51159 
L 71.171283 -178.395248 
L 60.011283 -157.309707 
L 48.851283 -143.683757 
z
" style="stroke: #ff7f0e; stroke-opacity: 0.2"/>
    </defs>
    <g clip-path="url(#p7b4a20a610)">
     <use xlink:href="#mc35365c3c2" x="0" y="361.333136" style="fill: #ff7f0e; fill-opacity: 0.2; stroke: #ff7f0e; stroke-opacity: 0.2"/>
    </g>
   </g>
   <g id="matplotlib.axis_1">
    <g id="text_1">
     <text style="font: 10px 'Arial', sans-serif; text-anchor: middle" x="227.411283" y="296.533792" transform="rotate(-0 227.411283 296.533792)">Time</text>
    </g>
   </g>
   <g id="matplotlib.axis_2">
    <g id="ytick_1">
     <g id="line2d_1">
      <defs>
       <path id="m61745c175a" d="M 0 0 
L -3.5 0 
" style="stroke: #000000; stroke-width: 0.8"/>
      </defs>
      <g>
       <use xlink:href="#m61745c175a" x="48.851283" y="259.57485" style="stroke: #000000; stroke-width: 0.8"/>
      </g>
     </g>
     <g id="text_2">
      <text style="font: 10px 'Arial', sans-serif; text-anchor: end" x="41.851283" y="263.153756" transform="rotate(-0 41.851283 263.153756)">−0.5</text>
     </g>
    </g>
    <g id="ytick_2">
     <g id="line2d_2">
      <g>
       <use xlink:href="#m61745c175a" x="48.851283" y="208.165694" style="stroke: #000000; stroke-width: 0.8"/>
      </g>
     </g>
     <g id="text_3">
      <text style="font: 10px 'Arial', sans-serif; text-anchor: end" x="41.851283" y="211.7446" transform="rotate(-0 41.851283 211.7446)">0.0</text>
     </g>
    </g>
    <g id="ytick_3">
     <g id="line2d_3">
      <g>
       <use xlink:href="#m61745c175a" x="48.851283" y="156.756539" style="stroke: #000000; stroke-width: 0.8"/>
      </g>
     </g>
     <g id="text_4">
      <text style="font: 10px 'Arial', sans-serif; text-anchor: end" x="41.851283" y="160.335445" transform="rotate(-0 41.851283 160.335445)">0.5</text>
     </g>
    </g>
    <g id="ytick_4">
     <g id="line2d_4">
      <g>
       <use xlink:href="#m61745c175a" x="48.851283" y="105.347383" style="stroke: #000000; stroke-width: 0.8"/>
      </g>
     </g>
     <g id="text_5">
      <text style="font: 10px 'Arial', sans-serif; text-anchor: end" x="41.851283" y="108.926289" transform="rotate(-0 41.851283 108.926289)">1.0</text>
     </g>
    </g>
    <g id="ytick_5">
     <g id="line2d_5">
      <g>
       <use xlink:href="#m61745c175a" x="48.851283" y="53.938227" style="stroke: #000000; stroke-width: 0.8"/>
      </g>
     </g>
     <g id="text_6">
      <text style="font: 10px 'Arial', sans-serif; text-anchor: end" x="41.851283" y="57.517134" transform="rotate(-0 41.851283 57.517134)">1.5</text>
     </g>
    </g>
    <g id="text_7">
     <text style="font: 10px 'Arial', sans-serif; text-anchor: middle" x="16.005971" y="152.31998" transform="rotate(-90 16.005971 152.31998)">Activity</text>
    </g>
   </g>
   <g id="line2d_6">
    <path d="M 48.851283 250.575532 
L 60.011283 242.162256 
L 71.171283 221.517447 
L 82.331283 183.895276 
L 93.491283 138.889744 
L 104.651283 89.809559 
L 115.811283 61.051077 
L 126.971283 47.573845 
L 138.131283 44.327655 
L 149.291283 52.126597 
L 160.451283 62.957012 
L 171.611283 73.325539 
L 182.771283 85.398044 
L 193.931283 94.808596 
L 205.091283 103.391501 
L 216.251283 112.243371 
L 227.411283 123.009217 
L 238.571283 132.631188 
L 249.731283 142.148081 
L 260.891283 144.45456 
L 272.051283 149.1752 
L 283.211283 162.108924 
L 294.371283 172.452746 
L 305.531283 179.749584 
L 316.691283 182.928316 
L 327.851283 187.616297 
L 339.011283 190.75753 
L 350.171283 197.934911 
L 361.331283 209.807579 
L 372.491283 229.998008 
L 383.651283 252.416304 
L 394.811283 265.906818 
L 405.971283 269.111605 
" clip-path="url(#p7b4a20a610)" style="fill: none; stroke: #1f77b4; stroke-width: 1.5; stroke-linecap: square"/>
   </g>
   <g id="line2d_7">
    <path d="M 48.851283 225.517627 
L 60.011283 211.13099 
L 71.171283 190.734371 
L 82.331283 160.841615 
L 93.491283 123.485434 
L 104.651283 93.634949 
L 115.811283 77.355386 
L 126.971283 72.70833 
L 138.131283 73.230683 
L 149.291283 71.673015 
L 160.451283 74.56188 
L 171.611283 85.805426 
L 182.771283 95.545848 
L 193.931283 104.226588 
L 205.091283 116.76051 
L 216.251283 127.651413 
L 227.411283 136.259463 
L 238.571283 147.974214 
L 249.731283 156.177032 
L 260.891283 163.023616 
L 272.051283 169.436688 
L 283.211283 173.526742 
L 294.371283 179.062266 
L 305.531283 181.847744 
L 316.691283 187.915319 
L 327.851283 195.995429 
L 339.011283 198.895433 
L 350.171283 202.745346 
L 361.331283 211.691802 
L 372.491283 225.452032 
L 383.651283 241.068791 
L 394.811283 256.923251 
L 405.971283 269.568364 
" clip-path="url(#p7b4a20a610)" style="fill: none; stroke: #ff7f0e; stroke-width: 1.5; stroke-linecap: square"/>
   </g>
   <g id="line2d_8">
    <path d="M 82.331283 285.37598 
L 82.331283 19.26398 
" clip-path="url(#p7b4a20a610)" style="fill: none; stroke-dasharray: 5.55,2.4; stroke-dashoffset: 0; stroke: #000000; stroke-opacity: 0.5; stroke-width: 1.5"/>
   </g>
   <g id="line2d_9">
    <path d="M 383.651283 285.37598 
L 383.651283 19.26398 
" clip-path="url(#p7b4a20a610)" style="fill: none; stroke-dasharray: 5.55,2.4; stroke-dashoffset: 0; stroke: #000000; stroke-opacity: 0.5; stroke-width: 1.5"/>
   </g>
   <g id="patch_3">
    <path d="M 48.851283 285.37598 
L 405.971283 285.37598 
" style="fill: none; stroke: #000000; stroke-width: 0.8; stroke-linejoin: miter; stroke-linecap: square"/>
   </g>
   <g id="text_8">
    <text style="font: 6.94px 'Arial', sans-serif" transform="translate(10.097767 321.385533) rotate(-35)">-0.1s Sampling</text>
   </g>
   <g id="text_9">
    <text style="font: 6.94px 'Arial', sans-serif" transform="translate(57.794497 311.430872) rotate(-35)">Sampling</text>
   </g>
   <g id="text_10">
    <text style="font: 6.94px 'Arial', sans-serif" transform="translate(319.037191 339.456682) rotate(-35)">Movement to Lateral Port</text>
   </g>
   <g id="text_11">
    <text style="font: 8.33px 'Arial', sans-serif; text-anchor: middle" x="227.411283" y="13.26398" transform="rotate(-0 227.411283 13.26398)">GP4_85_s3_L70_D250_mm2 - Trace:95_GP4_85_s3_L70_D250_mm2 (when: correct)</text>
   </g>
   <g id="legend_1">
    <g id="patch_4">
     <path d="M 131.766697 354.133136 
L 323.055869 354.133136 
Q 324.443869 354.133136 324.443869 352.745136 
L 324.443869 343.45638 
Q 324.443869 342.06838 323.055869 342.06838 
L 131.766697 342.06838 
Q 130.378697 342.06838 130.378697 343.45638 
L 130.378697 352.745136 
Q 130.378697 354.133136 131.766697 354.133136 
z
" style="fill: #ffffff; opacity: 0.8; stroke: #cccccc; stroke-linejoin: miter"/>
    </g>
    <g id="line2d_10">
     <path d="M 133.154697 347.467483 
L 140.094697 347.467483 
L 147.034697 347.467483 
" style="fill: none; stroke: #1f77b4; stroke-width: 1.5; stroke-linecap: square"/>
    </g>
    <g id="text_12">
     <text style="font: 6.94px 'Arial', sans-serif; text-anchor: start" x="152.586697" y="349.896483" transform="rotate(-0 152.586697 349.896483)">DecisionRight (100 pts)</text>
    </g>
    <g id="line2d_11">
     <path d="M 238.5939 347.467483 
L 245.5339 347.467483 
L 252.4739 347.467483 
" style="fill: none; stroke: #ff7f0e; stroke-width: 1.5; stroke-linecap: square"/>
    </g>
    <g id="text_13">
     <text style="font: 6.94px 'Arial', sans-serif; text-anchor: start" x="258.0259" y="349.896483" transform="rotate(-0 258.0259 349.896483)">DecisionLeft (95 pts)</text>
    </g>
   </g>
  </g>
 </g>
 <defs>
  <clipPath id="p7b4a20a610">
   <rect x="48.851283" y="19.26398" width="357.12" height="266.112"/>
  </clipPath>
 </defs>
</svg>
