<?xml version="1.0" encoding="utf-8" standalone="no"?>
<!DOCTYPE svg PUBLIC "-//W3C//DTD SVG 1.1//EN"
  "http://www.w3.org/Graphics/SVG/1.1/DTD/svg11.dtd">
<svg xmlns:xlink="http://www.w3.org/1999/xlink" width="413.171283pt" height="361.333136pt" viewBox="0 0 413.171283 361.333136" xmlns="http://www.w3.org/2000/svg" version="1.1">
 <metadata>
  <rdf:RDF xmlns:dc="http://purl.org/dc/elements/1.1/" xmlns:cc="http://creativecommons.org/ns#" xmlns:rdf="http://www.w3.org/1999/02/22-rdf-syntax-ns#">
   <cc:Work>
    <dc:type rdf:resource="http://purl.org/dc/dcmitype/StillImage"/>
    <dc:date>2025-12-29T04:07:13.222882</dc:date>
    <dc:format>image/svg+xml</dc:format>
    <dc:creator>
     <cc:Agent>
      <dc:title>Matplotlib v3.8.0, https://matplotlib.org/</dc:title>
     </cc:Agent>
    </dc:creator>
   </cc:Work>
  </rdf:RDF>
 </metadata>
 <defs>
  <style type="text/css">*{stroke-linejoin: round; stroke-linecap: butt}</style>
 </defs>
 <g id="figure_1">
  <g id="patch_1">
   <path d="M 0 361.333136 
L 413.171283 361.333136 
L 413.171283 -0 
L 0 -0 
z
" style="fill: #ffffff"/>
  </g>
  <g id="axes_1">
   <g id="patch_2">
    <path d="M 48.851283 285.37598 
L 405.971283 285.37598 
L 405.971283 19.26398 
L 48.851283 19.26398 
z
" style="fill: #ffffff"/>
   </g>
   <g id="PolyCollection_1">
    <defs>
     <path id="m7f5e8b49e1" d="M 48.851283 -304.596367 
L 48.851283 -248.267567 
L 60.011283 -252.722455 
L 71.171283 -261.016059 
L 82.331283 -269.819244 
L 93.491283 -264.29654 
L 104.651283 -243.515576 
L 115.811283 -216.416895 
L 126.971283 -195.784144 
L 138.131283 -182.681423 
L 149.291283 -175.492276 
L 160.451283 -167.966262 
L 171.611283 -155.124456 
L 182.771283 -146.734608 
L 193.931283 -141.739247 
L 205.091283 -133.937209 
L 216.251283 -124.089304 
L 227.411283 -119.468691 
L 238.571283 -118.959531 
L 249.731283 -118.655916 
L 260.891283 -116.50237 
L 272.051283 -110.939347 
L 283.211283 -108.563144 
L 294.371283 -106.165286 
L 305.531283 -106.710015 
L 316.691283 -110.965123 
L 327.851283 -117.454817 
L 339.011283 -124.058086 
L 350.171283 -125.503496 
L 361.331283 -128.235209 
L 372.491283 -142.27659 
L 383.651283 -163.578332 
L 394.811283 -175.666537 
L 405.971283 -186.891778 
L 405.971283 -213.948388 
L 405.971283 -213.948388 
L 394.811283 -200.011544 
L 383.651283 -186.043288 
L 372.491283 -164.491489 
L 361.331283 -151.962664 
L 350.171283 -149.171715 
L 339.011283 -146.72992 
L 327.851283 -139.155737 
L 316.691283 -131.683286 
L 305.531283 -125.613707 
L 294.371283 -125.092337 
L 283.211283 -129.547626 
L 272.051283 -133.686551 
L 260.891283 -140.558218 
L 249.731283 -140.332759 
L 238.571283 -143.261873 
L 227.411283 -148.537598 
L 216.251283 -156.948175 
L 205.091283 -169.985622 
L 193.931283 -177.532436 
L 182.771283 -179.595367 
L 171.611283 -188.158711 
L 160.451283 -203.818469 
L 149.291283 -216.645657 
L 138.131283 -229.986406 
L 126.971283 -249.405724 
L 115.811283 -274.925845 
L 104.651283 -304.37029 
L 93.491283 -326.032339 
L 82.331283 -329.973156 
L 71.171283 -314.5422 
L 60.011283 -305.18269 
L 48.851283 -304.596367 
z
" style="stroke: #1f77b4; stroke-opacity: 0.2"/>
    </defs>
    <g clip-path="url(#p371220acbc)">
     <use xlink:href="#m7f5e8b49e1" x="0" y="361.333136" style="fill: #1f77b4; fill-opacity: 0.2; stroke: #1f77b4; stroke-opacity: 0.2"/>
    </g>
   </g>
   <g id="PolyCollection_2">
    <defs>
     <path id="m9ed505aa81" d="M 48.851283 -244.491866 
L 48.851283 -211.22916 
L 60.011283 -221.391013 
L 71.171283 -228.429657 
L 82.331283 -218.021832 
L 93.491283 -202.332063 
L 104.651283 -183.249652 
L 115.811283 -161.1452 
L 126.971283 -144.827443 
L 138.131283 -137.182365 
L 149.291283 -134.800143 
L 160.451283 -132.913223 
L 171.611283 -127.30752 
L 182.771283 -120.136828 
L 193.931283 -108.204988 
L 205.091283 -104.531982 
L 216.251283 -102.235374 
L 227.411283 -96.615886 
L 238.571283 -90.819799 
L 249.731283 -88.053156 
L 260.891283 -89.660741 
L 272.051283 -93.845163 
L 283.211283 -100.480933 
L 294.371283 -104.964328 
L 305.531283 -110.988862 
L 316.691283 -117.038476 
L 327.851283 -124.796229 
L 339.011283 -136.76861 
L 350.171283 -147.973803 
L 361.331283 -151.729226 
L 372.491283 -158.308012 
L 383.651283 -169.818296 
L 394.811283 -181.317006 
L 405.971283 -193.708637 
L 405.971283 -217.236778 
L 405.971283 -217.236778 
L 394.811283 -202.275325 
L 383.651283 -188.88005 
L 372.491283 -175.967905 
L 361.331283 -171.421056 
L 350.171283 -169.839159 
L 339.011283 -158.589486 
L 327.851283 -145.4374 
L 316.691283 -135.650337 
L 305.531283 -127.710435 
L 294.371283 -121.273967 
L 283.211283 -117.914545 
L 272.051283 -111.543264 
L 260.891283 -108.196136 
L 249.731283 -107.97627 
L 238.571283 -112.482306 
L 227.411283 -120.077323 
L 216.251283 -126.253028 
L 205.091283 -128.293275 
L 193.931283 -133.287222 
L 182.771283 -146.312139 
L 171.611283 -153.658226 
L 160.451283 -160.133814 
L 149.291283 -164.679966 
L 138.131283 -170.816777 
L 126.971283 -183.090736 
L 115.811283 -203.215565 
L 104.651283 -226.104326 
L 93.491283 -245.040182 
L 82.331283 -260.085412 
L 71.171283 -267.256587 
L 60.011283 -256.060623 
L 48.851283 -244.491866 
z
" style="stroke: #ff7f0e; stroke-opacity: 0.2"/>
    </defs>
    <g clip-path="url(#p371220acbc)">
     <use xlink:href="#m9ed505aa81" x="0" y="361.333136" style="fill: #ff7f0e; fill-opacity: 0.2; stroke: #ff7f0e; stroke-opacity: 0.2"/>
    </g>
   </g>
   <g id="matplotlib.axis_1">
    <g id="text_1">
     <text style="font: 10px 'Arial', sans-serif; text-anchor: middle" x="227.411283" y="296.533792" transform="rotate(-0 227.411283 296.533792)">Time</text>
    </g>
   </g>
   <g id="matplotlib.axis_2">
    <g id="ytick_1">
     <g id="line2d_1">
      <defs>
       <path id="mc9e924a226" d="M 0 0 
L -3.5 0 
" style="stroke: #000000; stroke-width: 0.8"/>
      </defs>
      <g>
       <use xlink:href="#mc9e924a226" x="48.851283" y="251.903102" style="stroke: #000000; stroke-width: 0.8"/>
      </g>
     </g>
     <g id="text_2">
      <text style="font: 10px 'Arial', sans-serif; text-anchor: end" x="41.851283" y="255.482008" transform="rotate(-0 41.851283 255.482008)">−0.4</text>
     </g>
    </g>
    <g id="ytick_2">
     <g id="line2d_2">
      <g>
       <use xlink:href="#mc9e924a226" x="48.851283" y="217.020604" style="stroke: #000000; stroke-width: 0.8"/>
      </g>
     </g>
     <g id="text_3">
      <text style="font: 10px 'Arial', sans-serif; text-anchor: end" x="41.851283" y="220.59951" transform="rotate(-0 41.851283 220.59951)">−0.2</text>
     </g>
    </g>
    <g id="ytick_3">
     <g id="line2d_3">
      <g>
       <use xlink:href="#mc9e924a226" x="48.851283" y="182.138107" style="stroke: #000000; stroke-width: 0.8"/>
      </g>
     </g>
     <g id="text_4">
      <text style="font: 10px 'Arial', sans-serif; text-anchor: end" x="41.851283" y="185.717013" transform="rotate(-0 41.851283 185.717013)">0.0</text>
     </g>
    </g>
    <g id="ytick_4">
     <g id="line2d_4">
      <g>
       <use xlink:href="#mc9e924a226" x="48.851283" y="147.255609" style="stroke: #000000; stroke-width: 0.8"/>
      </g>
     </g>
     <g id="text_5">
      <text style="font: 10px 'Arial', sans-serif; text-anchor: end" x="41.851283" y="150.834515" transform="rotate(-0 41.851283 150.834515)">0.2</text>
     </g>
    </g>
    <g id="ytick_5">
     <g id="line2d_5">
      <g>
       <use xlink:href="#mc9e924a226" x="48.851283" y="112.373112" style="stroke: #000000; stroke-width: 0.8"/>
      </g>
     </g>
     <g id="text_6">
      <text style="font: 10px 'Arial', sans-serif; text-anchor: end" x="41.851283" y="115.952018" transform="rotate(-0 41.851283 115.952018)">0.4</text>
     </g>
    </g>
    <g id="ytick_6">
     <g id="line2d_6">
      <g>
       <use xlink:href="#mc9e924a226" x="48.851283" y="77.490614" style="stroke: #000000; stroke-width: 0.8"/>
      </g>
     </g>
     <g id="text_7">
      <text style="font: 10px 'Arial', sans-serif; text-anchor: end" x="41.851283" y="81.069521" transform="rotate(-0 41.851283 81.069521)">0.6</text>
     </g>
    </g>
    <g id="ytick_7">
     <g id="line2d_7">
      <g>
       <use xlink:href="#mc9e924a226" x="48.851283" y="42.608117" style="stroke: #000000; stroke-width: 0.8"/>
      </g>
     </g>
     <g id="text_8">
      <text style="font: 10px 'Arial', sans-serif; text-anchor: end" x="41.851283" y="46.187023" transform="rotate(-0 41.851283 46.187023)">0.8</text>
     </g>
    </g>
    <g id="text_9">
     <text style="font: 10px 'Arial', sans-serif; text-anchor: middle" x="16.005971" y="152.31998" transform="rotate(-90 16.005971 152.31998)">Activity</text>
    </g>
   </g>
   <g id="line2d_8">
    <path d="M 48.851283 84.901169 
L 60.011283 82.380563 
L 71.171283 73.554004 
L 82.331283 61.436936 
L 93.491283 66.168696 
L 104.651283 87.390203 
L 115.811283 115.661768 
L 126.971283 138.738202 
L 138.131283 154.999223 
L 149.291283 165.264169 
L 160.451283 175.440771 
L 171.611283 189.691552 
L 182.771283 198.168149 
L 193.931283 201.697295 
L 205.091283 209.37172 
L 216.251283 220.814396 
L 227.411283 227.329992 
L 238.571283 230.222434 
L 249.731283 231.838798 
L 260.891283 232.802842 
L 272.051283 239.020187 
L 283.211283 242.277751 
L 294.371283 245.704324 
L 305.531283 245.171275 
L 316.691283 240.008931 
L 327.851283 233.027859 
L 339.011283 225.939133 
L 350.171283 223.99553 
L 361.331283 221.234199 
L 372.491283 207.949097 
L 383.651283 186.522326 
L 394.811283 173.494095 
L 405.971283 160.913052 
" clip-path="url(#p371220acbc)" style="fill: none; stroke: #1f77b4; stroke-width: 1.5; stroke-linecap: square"/>
   </g>
   <g id="line2d_9">
    <path d="M 48.851283 133.472623 
L 60.011283 122.607318 
L 71.171283 113.490014 
L 82.331283 122.279513 
L 93.491283 137.647012 
L 104.651283 156.656146 
L 115.811283 179.152753 
L 126.971283 197.374046 
L 138.131283 207.333564 
L 149.291283 211.593083 
L 160.451283 214.809617 
L 171.611283 220.850265 
L 182.771283 228.108652 
L 193.931283 240.587031 
L 205.091283 244.920507 
L 216.251283 247.088935 
L 227.411283 252.986531 
L 238.571283 259.682083 
L 249.731283 263.318423 
L 260.891283 262.4047 
L 272.051283 258.638922 
L 283.211283 252.135397 
L 294.371283 248.213989 
L 305.531283 241.983488 
L 316.691283 234.988729 
L 327.851283 226.216321 
L 339.011283 213.654088 
L 350.171283 202.426655 
L 361.331283 199.757994 
L 372.491283 194.195178 
L 383.651283 181.983963 
L 394.811283 169.536971 
L 405.971283 155.860429 
" clip-path="url(#p371220acbc)" style="fill: none; stroke: #ff7f0e; stroke-width: 1.5; stroke-linecap: square"/>
   </g>
   <g id="line2d_10">
    <path d="M 82.331283 285.37598 
L 82.331283 19.26398 
" clip-path="url(#p371220acbc)" style="fill: none; stroke-dasharray: 5.55,2.4; stroke-dashoffset: 0; stroke: #000000; stroke-opacity: 0.5; stroke-width: 1.5"/>
   </g>
   <g id="line2d_11">
    <path d="M 383.651283 285.37598 
L 383.651283 19.26398 
" clip-path="url(#p371220acbc)" style="fill: none; stroke-dasharray: 5.55,2.4; stroke-dashoffset: 0; stroke: #000000; stroke-opacity: 0.5; stroke-width: 1.5"/>
   </g>
   <g id="patch_3">
    <path d="M 48.851283 285.37598 
L 405.971283 285.37598 
" style="fill: none; stroke: #000000; stroke-width: 0.8; stroke-linejoin: miter; stroke-linecap: square"/>
   </g>
   <g id="text_10">
    <text style="font: 6.94px 'Arial', sans-serif" transform="translate(10.097767 321.385533) rotate(-35)">-0.1s Sampling</text>
   </g>
   <g id="text_11">
    <text style="font: 6.94px 'Arial', sans-serif" transform="translate(57.794497 311.430872) rotate(-35)">Sampling</text>
   </g>
   <g id="text_12">
    <text style="font: 6.94px 'Arial', sans-serif" transform="translate(319.037191 339.456682) rotate(-35)">Movement to Lateral Port</text>
   </g>
   <g id="text_13">
    <text style="font: 8.33px 'Arial', sans-serif; text-anchor: middle" x="227.411283" y="13.26398" transform="rotate(-0 227.411283 13.26398)">GP4_23_s8_L50_D250_ALM - Trace:111_GP4_23_s8_L50_D250_ALM (when: correct)</text>
   </g>
   <g id="legend_1">
    <g id="patch_4">
     <path d="M 132.02261 354.133136 
L 322.799956 354.133136 
Q 324.187956 354.133136 324.187956 352.745136 
L 324.187956 343.45638 
Q 324.187956 342.06838 322.799956 342.06838 
L 132.02261 342.06838 
Q 130.63461 342.06838 130.63461 343.45638 
L 130.63461 352.745136 
Q 130.63461 354.133136 132.02261 354.133136 
z
" style="fill: #ffffff; opacity: 0.8; stroke: #cccccc; stroke-linejoin: miter"/>
    </g>
    <g id="line2d_12">
     <path d="M 133.41061 347.467483 
L 140.35061 347.467483 
L 147.29061 347.467483 
" style="fill: none; stroke: #1f77b4; stroke-width: 1.5; stroke-linecap: square"/>
    </g>
    <g id="text_14">
     <text style="font: 6.94px 'Arial', sans-serif; text-anchor: start" x="152.84261" y="349.896483" transform="rotate(-0 152.84261 349.896483)">DecisionRight (112 pts)</text>
    </g>
    <g id="line2d_13">
     <path d="M 238.337988 347.467483 
L 245.277988 347.467483 
L 252.217988 347.467483 
" style="fill: none; stroke: #ff7f0e; stroke-width: 1.5; stroke-linecap: square"/>
    </g>
    <g id="text_15">
     <text style="font: 6.94px 'Arial', sans-serif; text-anchor: start" x="257.769988" y="349.896483" transform="rotate(-0 257.769988 349.896483)">DecisionLeft (96 pts)</text>
    </g>
   </g>
  </g>
 </g>
 <defs>
  <clipPath id="p371220acbc">
   <rect x="48.851283" y="19.26398" width="357.12" height="266.112"/>
  </clipPath>
 </defs>
</svg>
