<?xml version="1.0" encoding="utf-8" standalone="no"?>
<!DOCTYPE svg PUBLIC "-//W3C//DTD SVG 1.1//EN"
  "http://www.w3.org/Graphics/SVG/1.1/DTD/svg11.dtd">
<svg xmlns:xlink="http://www.w3.org/1999/xlink" width="413.171283pt" height="361.333136pt" viewBox="0 0 413.171283 361.333136" xmlns="http://www.w3.org/2000/svg" version="1.1">
 <metadata>
  <rdf:RDF xmlns:dc="http://purl.org/dc/elements/1.1/" xmlns:cc="http://creativecommons.org/ns#" xmlns:rdf="http://www.w3.org/1999/02/22-rdf-syntax-ns#">
   <cc:Work>
    <dc:type rdf:resource="http://purl.org/dc/dcmitype/StillImage"/>
    <dc:date>2025-12-29T04:07:16.345527</dc:date>
    <dc:format>image/svg+xml</dc:format>
    <dc:creator>
     <cc:Agent>
      <dc:title>Matplotlib v3.8.0, https://matplotlib.org/</dc:title>
     </cc:Agent>
    </dc:creator>
   </cc:Work>
  </rdf:RDF>
 </metadata>
 <defs>
  <style type="text/css">*{stroke-linejoin: round; stroke-linecap: butt}</style>
 </defs>
 <g id="figure_1">
  <g id="patch_1">
   <path d="M 0 361.333136 
L 413.171283 361.333136 
L 413.171283 -0 
L 0 -0 
z
" style="fill: #ffffff"/>
  </g>
  <g id="axes_1">
   <g id="patch_2">
    <path d="M 48.851283 285.37598 
L 405.971283 285.37598 
L 405.971283 19.26398 
L 48.851283 19.26398 
z
" style="fill: #ffffff"/>
   </g>
   <g id="PolyCollection_1">
    <defs>
     <path id="mf5b2c9043e" d="M 48.851283 -134.773321 
L 48.851283 -121.014344 
L 60.011283 -119.191808 
L 71.171283 -117.427215 
L 82.331283 -113.429683 
L 93.491283 -110.061453 
L 104.651283 -108.710893 
L 115.811283 -109.062139 
L 126.971283 -106.934363 
L 138.131283 -105.938214 
L 149.291283 -107.515975 
L 160.451283 -109.815425 
L 171.611283 -111.665876 
L 182.771283 -113.925557 
L 193.931283 -117.206757 
L 205.091283 -120.033071 
L 216.251283 -120.049291 
L 227.411283 -119.855547 
L 238.571283 -122.129038 
L 249.731283 -123.725679 
L 260.891283 -125.515815 
L 272.051283 -124.912086 
L 283.211283 -122.676675 
L 294.371283 -122.585419 
L 305.531283 -126.509082 
L 316.691283 -129.391839 
L 327.851283 -130.59965 
L 339.011283 -135.51817 
L 350.171283 -150.81083 
L 361.331283 -174.110347 
L 372.491283 -202.074166 
L 383.651283 -249.366667 
L 394.811283 -285.80918 
L 405.971283 -305.830224 
L 405.971283 -329.973156 
L 405.971283 -329.973156 
L 394.811283 -309.547168 
L 383.651283 -271.546961 
L 372.491283 -221.822713 
L 361.331283 -191.729053 
L 350.171283 -166.601867 
L 339.011283 -149.814487 
L 327.851283 -144.113183 
L 316.691283 -143.219518 
L 305.531283 -140.503372 
L 294.371283 -136.118328 
L 283.211283 -135.98616 
L 272.051283 -138.978547 
L 260.891283 -140.547214 
L 249.731283 -138.604114 
L 238.571283 -137.096814 
L 227.411283 -135.215964 
L 216.251283 -135.155594 
L 205.091283 -135.221237 
L 193.931283 -132.567636 
L 182.771283 -129.095596 
L 171.611283 -126.406907 
L 160.451283 -124.584932 
L 149.291283 -122.532518 
L 138.131283 -120.982631 
L 126.971283 -122.508903 
L 115.811283 -125.25839 
L 104.651283 -125.408687 
L 93.491283 -127.045466 
L 82.331283 -129.375497 
L 71.171283 -131.588859 
L 60.011283 -132.808586 
L 48.851283 -134.773321 
z
" style="stroke: #1f77b4; stroke-opacity: 0.2"/>
    </defs>
    <g clip-path="url(#p2d2e84ff3e)">
     <use xlink:href="#mf5b2c9043e" x="0" y="361.333136" style="fill: #1f77b4; fill-opacity: 0.2; stroke: #1f77b4; stroke-opacity: 0.2"/>
    </g>
   </g>
   <g id="PolyCollection_2">
    <defs>
     <path id="m89d02b2419" d="M 48.851283 -123.324065 
L 48.851283 -110.041077 
L 60.011283 -107.627519 
L 71.171283 -104.085351 
L 82.331283 -100.488329 
L 93.491283 -96.686115 
L 104.651283 -91.547941 
L 115.811283 -88.053156 
L 126.971283 -88.261147 
L 138.131283 -89.497469 
L 149.291283 -89.982273 
L 160.451283 -89.678726 
L 171.611283 -90.304561 
L 182.771283 -92.469457 
L 193.931283 -93.910252 
L 205.091283 -95.165503 
L 216.251283 -94.700159 
L 227.411283 -94.594002 
L 238.571283 -94.567041 
L 249.731283 -93.670759 
L 260.891283 -93.102432 
L 272.051283 -94.930813 
L 283.211283 -95.919733 
L 294.371283 -97.556942 
L 305.531283 -98.748271 
L 316.691283 -100.404092 
L 327.851283 -105.938006 
L 339.011283 -113.36106 
L 350.171283 -118.794237 
L 361.331283 -124.626038 
L 372.491283 -130.918356 
L 383.651283 -137.558876 
L 394.811283 -140.681288 
L 405.971283 -142.901865 
L 405.971283 -159.926153 
L 405.971283 -159.926153 
L 394.811283 -157.850842 
L 383.651283 -154.424187 
L 372.491283 -146.485775 
L 361.331283 -138.766257 
L 350.171283 -131.513691 
L 339.011283 -124.996225 
L 327.851283 -117.177863 
L 316.691283 -111.289837 
L 305.531283 -109.655536 
L 294.371283 -108.856876 
L 283.211283 -107.839796 
L 272.051283 -107.655383 
L 260.891283 -106.307212 
L 249.731283 -106.678068 
L 238.571283 -107.914617 
L 227.411283 -108.293954 
L 216.251283 -108.304672 
L 205.091283 -108.491418 
L 193.931283 -106.842277 
L 182.771283 -105.828152 
L 171.611283 -103.831682 
L 160.451283 -103.354652 
L 149.291283 -103.749721 
L 138.131283 -102.795243 
L 126.971283 -101.420197 
L 115.811283 -100.915101 
L 104.651283 -103.738426 
L 93.491283 -108.320292 
L 82.331283 -112.473919 
L 71.171283 -117.157269 
L 60.011283 -121.256237 
L 48.851283 -123.324065 
z
" style="stroke: #ff7f0e; stroke-opacity: 0.2"/>
    </defs>
    <g clip-path="url(#p2d2e84ff3e)">
     <use xlink:href="#m89d02b2419" x="0" y="361.333136" style="fill: #ff7f0e; fill-opacity: 0.2; stroke: #ff7f0e; stroke-opacity: 0.2"/>
    </g>
   </g>
   <g id="matplotlib.axis_1">
    <g id="text_1">
     <text style="font: 10px 'Arial', sans-serif; text-anchor: middle" x="227.411283" y="296.533792" transform="rotate(-0 227.411283 296.533792)">Time</text>
    </g>
   </g>
   <g id="matplotlib.axis_2">
    <g id="ytick_1">
     <g id="line2d_1">
      <defs>
       <path id="m94e33ecf65" d="M 0 0 
L -3.5 0 
" style="stroke: #000000; stroke-width: 0.8"/>
      </defs>
      <g>
       <use xlink:href="#m94e33ecf65" x="48.851283" y="247.22548" style="stroke: #000000; stroke-width: 0.8"/>
      </g>
     </g>
     <g id="text_2">
      <text style="font: 10px 'Arial', sans-serif; text-anchor: end" x="41.851283" y="250.804387" transform="rotate(-0 41.851283 250.804387)">0.0</text>
     </g>
    </g>
    <g id="ytick_2">
     <g id="line2d_2">
      <g>
       <use xlink:href="#m94e33ecf65" x="48.851283" y="207.449003" style="stroke: #000000; stroke-width: 0.8"/>
      </g>
     </g>
     <g id="text_3">
      <text style="font: 10px 'Arial', sans-serif; text-anchor: end" x="41.851283" y="211.02791" transform="rotate(-0 41.851283 211.02791)">0.5</text>
     </g>
    </g>
    <g id="ytick_3">
     <g id="line2d_3">
      <g>
       <use xlink:href="#m94e33ecf65" x="48.851283" y="167.672527" style="stroke: #000000; stroke-width: 0.8"/>
      </g>
     </g>
     <g id="text_4">
      <text style="font: 10px 'Arial', sans-serif; text-anchor: end" x="41.851283" y="171.251433" transform="rotate(-0 41.851283 171.251433)">1.0</text>
     </g>
    </g>
    <g id="ytick_4">
     <g id="line2d_4">
      <g>
       <use xlink:href="#m94e33ecf65" x="48.851283" y="127.89605" style="stroke: #000000; stroke-width: 0.8"/>
      </g>
     </g>
     <g id="text_5">
      <text style="font: 10px 'Arial', sans-serif; text-anchor: end" x="41.851283" y="131.474956" transform="rotate(-0 41.851283 131.474956)">1.5</text>
     </g>
    </g>
    <g id="ytick_5">
     <g id="line2d_5">
      <g>
       <use xlink:href="#m94e33ecf65" x="48.851283" y="88.119573" style="stroke: #000000; stroke-width: 0.8"/>
      </g>
     </g>
     <g id="text_6">
      <text style="font: 10px 'Arial', sans-serif; text-anchor: end" x="41.851283" y="91.698479" transform="rotate(-0 41.851283 91.698479)">2.0</text>
     </g>
    </g>
    <g id="ytick_6">
     <g id="line2d_6">
      <g>
       <use xlink:href="#m94e33ecf65" x="48.851283" y="48.343096" style="stroke: #000000; stroke-width: 0.8"/>
      </g>
     </g>
     <g id="text_7">
      <text style="font: 10px 'Arial', sans-serif; text-anchor: end" x="41.851283" y="51.922002" transform="rotate(-0 41.851283 51.922002)">2.5</text>
     </g>
    </g>
    <g id="text_8">
     <text style="font: 10px 'Arial', sans-serif; text-anchor: middle" x="21.846596" y="152.31998" transform="rotate(-90 21.846596 152.31998)">Activity</text>
    </g>
   </g>
   <g id="line2d_7">
    <path d="M 48.851283 233.439303 
L 60.011283 235.332939 
L 71.171283 236.825099 
L 82.331283 239.930545 
L 93.491283 242.779676 
L 104.651283 244.273346 
L 115.811283 244.172872 
L 126.971283 246.611503 
L 138.131283 247.872714 
L 149.291283 246.308889 
L 160.451283 244.132958 
L 171.611283 242.296744 
L 182.771283 239.82256 
L 193.931283 236.445939 
L 205.091283 233.705983 
L 216.251283 233.730693 
L 227.411283 233.797381 
L 238.571283 231.72021 
L 249.731283 230.168239 
L 260.891283 228.301621 
L 272.051283 229.38782 
L 283.211283 232.001719 
L 294.371283 231.981262 
L 305.531283 227.826909 
L 316.691283 225.027457 
L 327.851283 223.976719 
L 339.011283 218.666807 
L 350.171283 202.626787 
L 361.331283 178.413436 
L 372.491283 149.384696 
L 383.651283 100.876322 
L 394.811283 63.654962 
L 405.971283 43.431446 
" clip-path="url(#p2d2e84ff3e)" style="fill: none; stroke: #1f77b4; stroke-width: 1.5; stroke-linecap: square"/>
   </g>
   <g id="line2d_8">
    <path d="M 48.851283 244.650565 
L 60.011283 246.891258 
L 71.171283 250.711826 
L 82.331283 254.852012 
L 93.491283 258.829933 
L 104.651283 263.689952 
L 115.811283 266.849007 
L 126.971283 266.492464 
L 138.131283 265.18678 
L 149.291283 264.467139 
L 160.451283 264.816446 
L 171.611283 264.265015 
L 182.771283 262.184331 
L 193.931283 260.956872 
L 205.091283 259.504675 
L 216.251283 259.83072 
L 227.411283 259.889158 
L 238.571283 260.092307 
L 249.731283 261.158722 
L 260.891283 261.628314 
L 272.051283 260.040038 
L 283.211283 259.453371 
L 294.371283 258.126227 
L 305.531283 257.131233 
L 316.691283 255.486171 
L 327.851283 249.775201 
L 339.011283 242.154494 
L 350.171283 236.179172 
L 361.331283 229.636988 
L 372.491283 222.63107 
L 383.651283 215.341603 
L 394.811283 212.067072 
L 405.971283 209.919127 
" clip-path="url(#p2d2e84ff3e)" style="fill: none; stroke: #ff7f0e; stroke-width: 1.5; stroke-linecap: square"/>
   </g>
   <g id="line2d_9">
    <path d="M 82.331283 285.37598 
L 82.331283 19.26398 
" clip-path="url(#p2d2e84ff3e)" style="fill: none; stroke-dasharray: 5.55,2.4; stroke-dashoffset: 0; stroke: #000000; stroke-opacity: 0.5; stroke-width: 1.5"/>
   </g>
   <g id="line2d_10">
    <path d="M 383.651283 285.37598 
L 383.651283 19.26398 
" clip-path="url(#p2d2e84ff3e)" style="fill: none; stroke-dasharray: 5.55,2.4; stroke-dashoffset: 0; stroke: #000000; stroke-opacity: 0.5; stroke-width: 1.5"/>
   </g>
   <g id="patch_3">
    <path d="M 48.851283 285.37598 
L 405.971283 285.37598 
" style="fill: none; stroke: #000000; stroke-width: 0.8; stroke-linejoin: miter; stroke-linecap: square"/>
   </g>
   <g id="text_9">
    <text style="font: 6.94px 'Arial', sans-serif" transform="translate(10.097767 321.385533) rotate(-35)">-0.1s Sampling</text>
   </g>
   <g id="text_10">
    <text style="font: 6.94px 'Arial', sans-serif" transform="translate(57.794497 311.430872) rotate(-35)">Sampling</text>
   </g>
   <g id="text_11">
    <text style="font: 6.94px 'Arial', sans-serif" transform="translate(319.037191 339.456682) rotate(-35)">Movement to Lateral Port</text>
   </g>
   <g id="text_12">
    <text style="font: 8.33px 'Arial', sans-serif; text-anchor: middle" x="227.411283" y="13.26398" transform="rotate(-0 227.411283 13.26398)">GP4_23_s8_L50_D250_ALM - Trace:114_GP4_23_s8_L50_D250_ALM (when: correct)</text>
   </g>
   <g id="legend_1">
    <g id="patch_4">
     <path d="M 132.02261 354.133136 
L 322.799956 354.133136 
Q 324.187956 354.133136 324.187956 352.745136 
L 324.187956 343.45638 
Q 324.187956 342.06838 322.799956 342.06838 
L 132.02261 342.06838 
Q 130.63461 342.06838 130.63461 343.45638 
L 130.63461 352.745136 
Q 130.63461 354.133136 132.02261 354.133136 
z
" style="fill: #ffffff; opacity: 0.8; stroke: #cccccc; stroke-linejoin: miter"/>
    </g>
    <g id="line2d_11">
     <path d="M 133.41061 347.467483 
L 140.35061 347.467483 
L 147.29061 347.467483 
" style="fill: none; stroke: #1f77b4; stroke-width: 1.5; stroke-linecap: square"/>
    </g>
    <g id="text_13">
     <text style="font: 6.94px 'Arial', sans-serif; text-anchor: start" x="152.84261" y="349.896483" transform="rotate(-0 152.84261 349.896483)">DecisionRight (112 pts)</text>
    </g>
    <g id="line2d_12">
     <path d="M 238.337988 347.467483 
L 245.277988 347.467483 
L 252.217988 347.467483 
" style="fill: none; stroke: #ff7f0e; stroke-width: 1.5; stroke-linecap: square"/>
    </g>
    <g id="text_14">
     <text style="font: 6.94px 'Arial', sans-serif; text-anchor: start" x="257.769988" y="349.896483" transform="rotate(-0 257.769988 349.896483)">DecisionLeft (96 pts)</text>
    </g>
   </g>
  </g>
 </g>
 <defs>
  <clipPath id="p2d2e84ff3e">
   <rect x="48.851283" y="19.26398" width="357.12" height="266.112"/>
  </clipPath>
 </defs>
</svg>
