<?xml version="1.0" encoding="utf-8" standalone="no"?>
<!DOCTYPE svg PUBLIC "-//W3C//DTD SVG 1.1//EN"
  "http://www.w3.org/Graphics/SVG/1.1/DTD/svg11.dtd">
<svg xmlns:xlink="http://www.w3.org/1999/xlink" width="413.171283pt" height="361.333136pt" viewBox="0 0 413.171283 361.333136" xmlns="http://www.w3.org/2000/svg" version="1.1">
 <metadata>
  <rdf:RDF xmlns:dc="http://purl.org/dc/elements/1.1/" xmlns:cc="http://creativecommons.org/ns#" xmlns:rdf="http://www.w3.org/1999/02/22-rdf-syntax-ns#">
   <cc:Work>
    <dc:type rdf:resource="http://purl.org/dc/dcmitype/StillImage"/>
    <dc:date>2025-12-29T04:07:13.573989</dc:date>
    <dc:format>image/svg+xml</dc:format>
    <dc:creator>
     <cc:Agent>
      <dc:title>Matplotlib v3.8.0, https://matplotlib.org/</dc:title>
     </cc:Agent>
    </dc:creator>
   </cc:Work>
  </rdf:RDF>
 </metadata>
 <defs>
  <style type="text/css">*{stroke-linejoin: round; stroke-linecap: butt}</style>
 </defs>
 <g id="figure_1">
  <g id="patch_1">
   <path d="M 0 361.333136 
L 413.171283 361.333136 
L 413.171283 -0 
L 0 -0 
z
" style="fill: #ffffff"/>
  </g>
  <g id="axes_1">
   <g id="patch_2">
    <path d="M 48.851283 285.37598 
L 405.971283 285.37598 
L 405.971283 19.26398 
L 48.851283 19.26398 
z
" style="fill: #ffffff"/>
   </g>
   <g id="PolyCollection_1">
    <defs>
     <path id="mb43e942d99" d="M 48.851283 -114.823547 
L 48.851283 -101.407515 
L 60.011283 -100.892111 
L 71.171283 -96.524471 
L 82.331283 -93.41371 
L 93.491283 -93.903646 
L 104.651283 -96.874336 
L 115.811283 -100.795468 
L 126.971283 -102.842747 
L 138.131283 -101.783555 
L 149.291283 -103.688956 
L 160.451283 -107.797844 
L 171.611283 -109.293768 
L 182.771283 -112.374883 
L 193.931283 -116.242967 
L 205.091283 -121.950171 
L 216.251283 -128.840481 
L 227.411283 -135.521963 
L 238.571283 -139.256948 
L 249.731283 -147.177037 
L 260.891283 -160.445423 
L 272.051283 -177.025081 
L 283.211283 -193.150413 
L 294.371283 -206.177168 
L 305.531283 -220.758382 
L 316.691283 -239.492261 
L 327.851283 -258.260136 
L 339.011283 -277.54499 
L 350.171283 -293.424386 
L 361.331283 -303.946448 
L 372.491283 -304.573001 
L 383.651283 -290.738799 
L 394.811283 -274.516792 
L 405.971283 -261.020779 
L 405.971283 -280.46128 
L 405.971283 -280.46128 
L 394.811283 -295.620289 
L 383.651283 -314.852866 
L 372.491283 -329.973156 
L 361.331283 -328.979243 
L 350.171283 -317.847917 
L 339.011283 -302.498285 
L 327.851283 -284.238356 
L 316.691283 -265.143398 
L 305.531283 -245.759761 
L 294.371283 -231.399238 
L 283.211283 -218.517081 
L 272.051283 -201.215972 
L 260.891283 -182.580983 
L 249.731283 -167.096258 
L 238.571283 -158.312345 
L 227.411283 -153.668327 
L 216.251283 -145.969721 
L 205.091283 -138.139594 
L 193.931283 -131.825726 
L 182.771283 -127.467287 
L 171.611283 -123.319056 
L 160.451283 -121.696611 
L 149.291283 -118.429495 
L 138.131283 -116.065355 
L 126.971283 -116.483758 
L 115.811283 -115.1022 
L 104.651283 -111.900248 
L 93.491283 -109.110628 
L 82.331283 -108.702532 
L 71.171283 -110.937863 
L 60.011283 -114.594946 
L 48.851283 -114.823547 
z
" style="stroke: #1f77b4; stroke-opacity: 0.2"/>
    </defs>
    <g clip-path="url(#pb78957e175)">
     <use xlink:href="#mb43e942d99" x="0" y="361.333136" style="fill: #1f77b4; fill-opacity: 0.2; stroke: #1f77b4; stroke-opacity: 0.2"/>
    </g>
   </g>
   <g id="PolyCollection_2">
    <defs>
     <path id="m300fbf0a7e" d="M 48.851283 -112.234574 
L 48.851283 -95.35493 
L 60.011283 -92.740322 
L 71.171283 -88.85649 
L 82.331283 -88.053156 
L 93.491283 -89.793586 
L 104.651283 -88.982204 
L 115.811283 -90.473082 
L 126.971283 -94.977943 
L 138.131283 -96.889362 
L 149.291283 -95.860044 
L 160.451283 -94.175413 
L 171.611283 -92.84188 
L 182.771283 -94.956827 
L 193.931283 -99.039441 
L 205.091283 -103.536148 
L 216.251283 -110.406777 
L 227.411283 -119.217598 
L 238.571283 -128.739159 
L 249.731283 -141.797391 
L 260.891283 -155.44456 
L 272.051283 -165.372203 
L 283.211283 -172.982845 
L 294.371283 -185.470612 
L 305.531283 -201.863491 
L 316.691283 -212.627849 
L 327.851283 -218.15972 
L 339.011283 -225.102198 
L 350.171283 -233.72618 
L 361.331283 -241.067651 
L 372.491283 -244.391919 
L 383.651283 -239.350513 
L 394.811283 -221.751545 
L 405.971283 -201.639157 
L 405.971283 -221.164801 
L 405.971283 -221.164801 
L 394.811283 -241.945374 
L 383.651283 -260.760401 
L 372.491283 -268.222303 
L 361.331283 -265.888264 
L 350.171283 -259.225829 
L 339.011283 -251.669976 
L 327.851283 -245.579295 
L 316.691283 -240.118814 
L 305.531283 -227.605823 
L 294.371283 -210.108131 
L 283.211283 -198.096021 
L 272.051283 -190.433954 
L 260.891283 -179.399864 
L 249.731283 -163.490166 
L 238.571283 -147.327247 
L 227.411283 -135.36958 
L 216.251283 -125.369126 
L 205.091283 -117.387791 
L 193.931283 -112.211645 
L 182.771283 -108.067816 
L 171.611283 -106.405078 
L 160.451283 -107.369626 
L 149.291283 -110.661745 
L 138.131283 -113.702482 
L 126.971283 -110.86111 
L 115.811283 -107.0105 
L 104.651283 -104.778046 
L 93.491283 -104.519557 
L 82.331283 -101.26657 
L 71.171283 -104.729716 
L 60.011283 -109.263425 
L 48.851283 -112.234574 
z
" style="stroke: #ff7f0e; stroke-opacity: 0.2"/>
    </defs>
    <g clip-path="url(#pb78957e175)">
     <use xlink:href="#m300fbf0a7e" x="0" y="361.333136" style="fill: #ff7f0e; fill-opacity: 0.2; stroke: #ff7f0e; stroke-opacity: 0.2"/>
    </g>
   </g>
   <g id="matplotlib.axis_1">
    <g id="text_1">
     <text style="font: 10px 'Arial', sans-serif; text-anchor: middle" x="227.411283" y="296.533792" transform="rotate(-0 227.411283 296.533792)">Time</text>
    </g>
   </g>
   <g id="matplotlib.axis_2">
    <g id="ytick_1">
     <g id="line2d_1">
      <defs>
       <path id="mf6817a7b6d" d="M 0 0 
L -3.5 0 
" style="stroke: #000000; stroke-width: 0.8"/>
      </defs>
      <g>
       <use xlink:href="#mf6817a7b6d" x="48.851283" y="273.937433" style="stroke: #000000; stroke-width: 0.8"/>
      </g>
     </g>
     <g id="text_2">
      <text style="font: 10px 'Arial', sans-serif; text-anchor: end" x="41.851283" y="277.51634" transform="rotate(-0 41.851283 277.51634)">−0.5</text>
     </g>
    </g>
    <g id="ytick_2">
     <g id="line2d_2">
      <g>
       <use xlink:href="#mf6817a7b6d" x="48.851283" y="224.741402" style="stroke: #000000; stroke-width: 0.8"/>
      </g>
     </g>
     <g id="text_3">
      <text style="font: 10px 'Arial', sans-serif; text-anchor: end" x="41.851283" y="228.320309" transform="rotate(-0 41.851283 228.320309)">0.0</text>
     </g>
    </g>
    <g id="ytick_3">
     <g id="line2d_3">
      <g>
       <use xlink:href="#mf6817a7b6d" x="48.851283" y="175.545371" style="stroke: #000000; stroke-width: 0.8"/>
      </g>
     </g>
     <g id="text_4">
      <text style="font: 10px 'Arial', sans-serif; text-anchor: end" x="41.851283" y="179.124277" transform="rotate(-0 41.851283 179.124277)">0.5</text>
     </g>
    </g>
    <g id="ytick_4">
     <g id="line2d_4">
      <g>
       <use xlink:href="#mf6817a7b6d" x="48.851283" y="126.34934" style="stroke: #000000; stroke-width: 0.8"/>
      </g>
     </g>
     <g id="text_5">
      <text style="font: 10px 'Arial', sans-serif; text-anchor: end" x="41.851283" y="129.928246" transform="rotate(-0 41.851283 129.928246)">1.0</text>
     </g>
    </g>
    <g id="ytick_5">
     <g id="line2d_5">
      <g>
       <use xlink:href="#mf6817a7b6d" x="48.851283" y="77.153309" style="stroke: #000000; stroke-width: 0.8"/>
      </g>
     </g>
     <g id="text_6">
      <text style="font: 10px 'Arial', sans-serif; text-anchor: end" x="41.851283" y="80.732215" transform="rotate(-0 41.851283 80.732215)">1.5</text>
     </g>
    </g>
    <g id="ytick_6">
     <g id="line2d_6">
      <g>
       <use xlink:href="#mf6817a7b6d" x="48.851283" y="27.957278" style="stroke: #000000; stroke-width: 0.8"/>
      </g>
     </g>
     <g id="text_7">
      <text style="font: 10px 'Arial', sans-serif; text-anchor: end" x="41.851283" y="31.536184" transform="rotate(-0 41.851283 31.536184)">2.0</text>
     </g>
    </g>
    <g id="text_8">
     <text style="font: 10px 'Arial', sans-serif; text-anchor: middle" x="16.005971" y="152.31998" transform="rotate(-90 16.005971 152.31998)">Activity</text>
    </g>
   </g>
   <g id="line2d_7">
    <path d="M 48.851283 253.217606 
L 60.011283 253.589608 
L 71.171283 257.601969 
L 82.331283 260.275015 
L 93.491283 259.825999 
L 104.651283 256.945844 
L 115.811283 253.384302 
L 126.971283 251.669884 
L 138.131283 252.40868 
L 149.291283 250.27391 
L 160.451283 246.585909 
L 171.611283 245.026724 
L 182.771283 241.41205 
L 193.931283 237.298789 
L 205.091283 231.288253 
L 216.251283 223.928035 
L 227.411283 216.737991 
L 238.571283 212.54849 
L 249.731283 204.196488 
L 260.891283 189.819933 
L 272.051283 172.212611 
L 283.211283 155.499389 
L 294.371283 142.544933 
L 305.531283 128.074062 
L 316.691283 109.015306 
L 327.851283 90.08389 
L 339.011283 71.311499 
L 350.171283 55.696984 
L 361.331283 44.87029 
L 372.491283 44.060057 
L 383.651283 58.537304 
L 394.811283 76.264596 
L 405.971283 90.592106 
" clip-path="url(#pb78957e175)" style="fill: none; stroke: #1f77b4; stroke-width: 1.5; stroke-linecap: square"/>
   </g>
   <g id="line2d_8">
    <path d="M 48.851283 257.538385 
L 60.011283 260.331262 
L 71.171283 264.540033 
L 82.331283 266.673273 
L 93.491283 264.176564 
L 104.651283 264.453011 
L 115.811283 262.591345 
L 126.971283 258.41361 
L 138.131283 256.037214 
L 149.291283 258.072242 
L 160.451283 260.560616 
L 171.611283 261.709657 
L 182.771283 259.820814 
L 193.931283 255.707593 
L 205.091283 250.871167 
L 216.251283 243.445185 
L 227.411283 234.039547 
L 238.571283 223.299933 
L 249.731283 208.689358 
L 260.891283 193.910925 
L 272.051283 183.430056 
L 283.211283 175.793703 
L 294.371283 163.543764 
L 305.531283 146.598479 
L 316.691283 134.959804 
L 327.851283 129.463625 
L 339.011283 122.947049 
L 350.171283 114.857129 
L 361.331283 107.855178 
L 372.491283 105.026025 
L 383.651283 111.277679 
L 394.811283 129.484679 
L 405.971283 149.931157 
" clip-path="url(#pb78957e175)" style="fill: none; stroke: #ff7f0e; stroke-width: 1.5; stroke-linecap: square"/>
   </g>
   <g id="line2d_9">
    <path d="M 82.331283 285.37598 
L 82.331283 19.26398 
" clip-path="url(#pb78957e175)" style="fill: none; stroke-dasharray: 5.55,2.4; stroke-dashoffset: 0; stroke: #000000; stroke-opacity: 0.5; stroke-width: 1.5"/>
   </g>
   <g id="line2d_10">
    <path d="M 383.651283 285.37598 
L 383.651283 19.26398 
" clip-path="url(#pb78957e175)" style="fill: none; stroke-dasharray: 5.55,2.4; stroke-dashoffset: 0; stroke: #000000; stroke-opacity: 0.5; stroke-width: 1.5"/>
   </g>
   <g id="patch_3">
    <path d="M 48.851283 285.37598 
L 405.971283 285.37598 
" style="fill: none; stroke: #000000; stroke-width: 0.8; stroke-linejoin: miter; stroke-linecap: square"/>
   </g>
   <g id="text_9">
    <text style="font: 6.94px 'Arial', sans-serif" transform="translate(10.097767 321.385533) rotate(-35)">-0.1s Sampling</text>
   </g>
   <g id="text_10">
    <text style="font: 6.94px 'Arial', sans-serif" transform="translate(57.794497 311.430872) rotate(-35)">Sampling</text>
   </g>
   <g id="text_11">
    <text style="font: 6.94px 'Arial', sans-serif" transform="translate(319.037191 339.456682) rotate(-35)">Movement to Lateral Port</text>
   </g>
   <g id="text_12">
    <text style="font: 8.33px 'Arial', sans-serif; text-anchor: middle" x="227.411283" y="13.26398" transform="rotate(-0 227.411283 13.26398)">GP4_23_s8_L50_D250_ALM - Trace:117_GP4_23_s8_L50_D250_ALM (when: correct)</text>
   </g>
   <g id="legend_1">
    <g id="patch_4">
     <path d="M 132.02261 354.133136 
L 322.799956 354.133136 
Q 324.187956 354.133136 324.187956 352.745136 
L 324.187956 343.45638 
Q 324.187956 342.06838 322.799956 342.06838 
L 132.02261 342.06838 
Q 130.63461 342.06838 130.63461 343.45638 
L 130.63461 352.745136 
Q 130.63461 354.133136 132.02261 354.133136 
z
" style="fill: #ffffff; opacity: 0.8; stroke: #cccccc; stroke-linejoin: miter"/>
    </g>
    <g id="line2d_11">
     <path d="M 133.41061 347.467483 
L 140.35061 347.467483 
L 147.29061 347.467483 
" style="fill: none; stroke: #1f77b4; stroke-width: 1.5; stroke-linecap: square"/>
    </g>
    <g id="text_13">
     <text style="font: 6.94px 'Arial', sans-serif; text-anchor: start" x="152.84261" y="349.896483" transform="rotate(-0 152.84261 349.896483)">DecisionRight (112 pts)</text>
    </g>
    <g id="line2d_12">
     <path d="M 238.337988 347.467483 
L 245.277988 347.467483 
L 252.217988 347.467483 
" style="fill: none; stroke: #ff7f0e; stroke-width: 1.5; stroke-linecap: square"/>
    </g>
    <g id="text_14">
     <text style="font: 6.94px 'Arial', sans-serif; text-anchor: start" x="257.769988" y="349.896483" transform="rotate(-0 257.769988 349.896483)">DecisionLeft (96 pts)</text>
    </g>
   </g>
  </g>
 </g>
 <defs>
  <clipPath id="pb78957e175">
   <rect x="48.851283" y="19.26398" width="357.12" height="266.112"/>
  </clipPath>
 </defs>
</svg>
