<?xml version="1.0" encoding="utf-8" standalone="no"?>
<!DOCTYPE svg PUBLIC "-//W3C//DTD SVG 1.1//EN"
  "http://www.w3.org/Graphics/SVG/1.1/DTD/svg11.dtd">
<svg xmlns:xlink="http://www.w3.org/1999/xlink" width="413.171283pt" height="361.333136pt" viewBox="0 0 413.171283 361.333136" xmlns="http://www.w3.org/2000/svg" version="1.1">
 <metadata>
  <rdf:RDF xmlns:dc="http://purl.org/dc/elements/1.1/" xmlns:cc="http://creativecommons.org/ns#" xmlns:rdf="http://www.w3.org/1999/02/22-rdf-syntax-ns#">
   <cc:Work>
    <dc:type rdf:resource="http://purl.org/dc/dcmitype/StillImage"/>
    <dc:date>2025-12-29T04:07:15.536884</dc:date>
    <dc:format>image/svg+xml</dc:format>
    <dc:creator>
     <cc:Agent>
      <dc:title>Matplotlib v3.8.0, https://matplotlib.org/</dc:title>
     </cc:Agent>
    </dc:creator>
   </cc:Work>
  </rdf:RDF>
 </metadata>
 <defs>
  <style type="text/css">*{stroke-linejoin: round; stroke-linecap: butt}</style>
 </defs>
 <g id="figure_1">
  <g id="patch_1">
   <path d="M 0 361.333136 
L 413.171283 361.333136 
L 413.171283 -0 
L 0 -0 
z
" style="fill: #ffffff"/>
  </g>
  <g id="axes_1">
   <g id="patch_2">
    <path d="M 48.851283 285.37598 
L 405.971283 285.37598 
L 405.971283 19.26398 
L 48.851283 19.26398 
z
" style="fill: #ffffff"/>
   </g>
   <g id="PolyCollection_1">
    <defs>
     <path id="m2a71d139ec" d="M 48.851283 -122.182951 
L 48.851283 -92.474095 
L 60.011283 -100.693456 
L 71.171283 -110.839363 
L 82.331283 -119.800642 
L 93.491283 -125.593607 
L 104.651283 -123.385605 
L 115.811283 -124.761928 
L 126.971283 -134.108291 
L 138.131283 -147.259866 
L 149.291283 -160.899238 
L 160.451283 -166.324364 
L 171.611283 -170.353529 
L 182.771283 -185.748672 
L 193.931283 -205.231648 
L 205.091283 -217.065199 
L 216.251283 -219.445205 
L 227.411283 -221.694348 
L 238.571283 -229.325941 
L 249.731283 -245.472771 
L 260.891283 -258.139251 
L 272.051283 -260.381523 
L 283.211283 -249.514193 
L 294.371283 -233.997423 
L 305.531283 -224.912233 
L 316.691283 -217.190671 
L 327.851283 -208.227382 
L 339.011283 -196.747704 
L 350.171283 -193.228301 
L 361.331283 -198.70686 
L 372.491283 -190.950445 
L 383.651283 -179.414102 
L 394.811283 -189.31229 
L 405.971283 -193.701481 
L 405.971283 -235.300757 
L 405.971283 -235.300757 
L 394.811283 -233.250733 
L 383.651283 -224.082114 
L 372.491283 -237.930136 
L 361.331283 -250.584475 
L 350.171283 -248.593126 
L 339.011283 -256.416757 
L 327.851283 -272.043208 
L 316.691283 -283.741976 
L 305.531283 -295.174759 
L 294.371283 -305.755122 
L 283.211283 -320.51392 
L 272.051283 -329.973156 
L 260.891283 -324.679455 
L 249.731283 -308.157969 
L 238.571283 -287.608022 
L 227.411283 -276.294141 
L 216.251283 -272.498071 
L 205.091283 -269.818237 
L 193.931283 -256.13073 
L 182.771283 -231.038313 
L 171.611283 -212.293657 
L 160.451283 -208.443762 
L 149.291283 -202.377418 
L 138.131283 -186.518225 
L 126.971283 -172.381791 
L 115.811283 -160.691568 
L 104.651283 -158.936957 
L 93.491283 -160.526603 
L 82.331283 -154.692812 
L 71.171283 -144.025989 
L 60.011283 -133.046791 
L 48.851283 -122.182951 
z
" style="stroke: #1f77b4; stroke-opacity: 0.2"/>
    </defs>
    <g clip-path="url(#p11870aed01)">
     <use xlink:href="#m2a71d139ec" x="0" y="361.333136" style="fill: #1f77b4; fill-opacity: 0.2; stroke: #1f77b4; stroke-opacity: 0.2"/>
    </g>
   </g>
   <g id="PolyCollection_2">
    <defs>
     <path id="m72f95d44c7" d="M 48.851283 -113.822701 
L 48.851283 -88.053156 
L 60.011283 -102.330139 
L 71.171283 -116.91018 
L 82.331283 -131.471357 
L 93.491283 -133.672048 
L 104.651283 -121.181671 
L 115.811283 -108.04337 
L 126.971283 -103.849488 
L 138.131283 -112.05691 
L 149.291283 -127.413478 
L 160.451283 -141.861927 
L 171.611283 -162.991694 
L 182.771283 -181.537668 
L 193.931283 -191.112485 
L 205.091283 -188.519805 
L 216.251283 -169.627965 
L 227.411283 -161.594686 
L 238.571283 -173.90057 
L 249.731283 -191.395947 
L 260.891283 -198.551935 
L 272.051283 -194.536325 
L 283.211283 -195.100298 
L 294.371283 -191.26451 
L 305.531283 -181.351541 
L 316.691283 -170.617174 
L 327.851283 -163.962691 
L 339.011283 -165.158939 
L 350.171283 -167.207556 
L 361.331283 -162.90563 
L 372.491283 -156.49137 
L 383.651283 -158.393573 
L 394.811283 -160.165256 
L 405.971283 -153.213332 
L 405.971283 -180.853828 
L 405.971283 -180.853828 
L 394.811283 -189.504608 
L 383.651283 -190.826433 
L 372.491283 -191.597906 
L 361.331283 -201.781761 
L 350.171283 -209.357759 
L 339.011283 -207.338128 
L 327.851283 -206.356625 
L 316.691283 -216.86178 
L 305.531283 -232.946784 
L 294.371283 -245.591242 
L 283.211283 -249.89605 
L 272.051283 -252.974321 
L 260.891283 -264.164031 
L 249.731283 -257.455106 
L 238.571283 -232.072771 
L 227.411283 -213.740294 
L 216.251283 -220.277213 
L 205.091283 -238.567306 
L 193.931283 -240.723221 
L 182.771283 -230.255809 
L 171.611283 -211.26991 
L 160.451283 -190.540056 
L 149.291283 -175.622423 
L 138.131283 -154.992478 
L 126.971283 -138.696986 
L 115.811283 -135.533524 
L 104.651283 -144.926405 
L 93.491283 -158.349986 
L 82.331283 -156.974856 
L 71.171283 -141.566309 
L 60.011283 -126.729549 
L 48.851283 -113.822701 
z
" style="stroke: #ff7f0e; stroke-opacity: 0.2"/>
    </defs>
    <g clip-path="url(#p11870aed01)">
     <use xlink:href="#m72f95d44c7" x="0" y="361.333136" style="fill: #ff7f0e; fill-opacity: 0.2; stroke: #ff7f0e; stroke-opacity: 0.2"/>
    </g>
   </g>
   <g id="matplotlib.axis_1">
    <g id="text_1">
     <text style="font: 10px 'Arial', sans-serif; text-anchor: middle" x="227.411283" y="296.533792" transform="rotate(-0 227.411283 296.533792)">Time</text>
    </g>
   </g>
   <g id="matplotlib.axis_2">
    <g id="ytick_1">
     <g id="line2d_1">
      <defs>
       <path id="m5cbbb229bb" d="M 0 0 
L -3.5 0 
" style="stroke: #000000; stroke-width: 0.8"/>
      </defs>
      <g>
       <use xlink:href="#m5cbbb229bb" x="48.851283" y="269.758778" style="stroke: #000000; stroke-width: 0.8"/>
      </g>
     </g>
     <g id="text_2">
      <text style="font: 10px 'Arial', sans-serif; text-anchor: end" x="41.851283" y="273.337684" transform="rotate(-0 41.851283 273.337684)">−0.2</text>
     </g>
    </g>
    <g id="ytick_2">
     <g id="line2d_2">
      <g>
       <use xlink:href="#m5cbbb229bb" x="48.851283" y="236.201167" style="stroke: #000000; stroke-width: 0.8"/>
      </g>
     </g>
     <g id="text_3">
      <text style="font: 10px 'Arial', sans-serif; text-anchor: end" x="41.851283" y="239.780073" transform="rotate(-0 41.851283 239.780073)">0.0</text>
     </g>
    </g>
    <g id="ytick_3">
     <g id="line2d_3">
      <g>
       <use xlink:href="#m5cbbb229bb" x="48.851283" y="202.643555" style="stroke: #000000; stroke-width: 0.8"/>
      </g>
     </g>
     <g id="text_4">
      <text style="font: 10px 'Arial', sans-serif; text-anchor: end" x="41.851283" y="206.222462" transform="rotate(-0 41.851283 206.222462)">0.2</text>
     </g>
    </g>
    <g id="ytick_4">
     <g id="line2d_4">
      <g>
       <use xlink:href="#m5cbbb229bb" x="48.851283" y="169.085944" style="stroke: #000000; stroke-width: 0.8"/>
      </g>
     </g>
     <g id="text_5">
      <text style="font: 10px 'Arial', sans-serif; text-anchor: end" x="41.851283" y="172.66485" transform="rotate(-0 41.851283 172.66485)">0.4</text>
     </g>
    </g>
    <g id="ytick_5">
     <g id="line2d_5">
      <g>
       <use xlink:href="#m5cbbb229bb" x="48.851283" y="135.528333" style="stroke: #000000; stroke-width: 0.8"/>
      </g>
     </g>
     <g id="text_6">
      <text style="font: 10px 'Arial', sans-serif; text-anchor: end" x="41.851283" y="139.107239" transform="rotate(-0 41.851283 139.107239)">0.6</text>
     </g>
    </g>
    <g id="ytick_6">
     <g id="line2d_6">
      <g>
       <use xlink:href="#m5cbbb229bb" x="48.851283" y="101.970721" style="stroke: #000000; stroke-width: 0.8"/>
      </g>
     </g>
     <g id="text_7">
      <text style="font: 10px 'Arial', sans-serif; text-anchor: end" x="41.851283" y="105.549628" transform="rotate(-0 41.851283 105.549628)">0.8</text>
     </g>
    </g>
    <g id="ytick_7">
     <g id="line2d_7">
      <g>
       <use xlink:href="#m5cbbb229bb" x="48.851283" y="68.41311" style="stroke: #000000; stroke-width: 0.8"/>
      </g>
     </g>
     <g id="text_8">
      <text style="font: 10px 'Arial', sans-serif; text-anchor: end" x="41.851283" y="71.992016" transform="rotate(-0 41.851283 71.992016)">1.0</text>
     </g>
    </g>
    <g id="ytick_8">
     <g id="line2d_8">
      <g>
       <use xlink:href="#m5cbbb229bb" x="48.851283" y="34.855499" style="stroke: #000000; stroke-width: 0.8"/>
      </g>
     </g>
     <g id="text_9">
      <text style="font: 10px 'Arial', sans-serif; text-anchor: end" x="41.851283" y="38.434405" transform="rotate(-0 41.851283 38.434405)">1.2</text>
     </g>
    </g>
    <g id="text_10">
     <text style="font: 10px 'Arial', sans-serif; text-anchor: middle" x="16.005971" y="152.31998" transform="rotate(-90 16.005971 152.31998)">Activity</text>
    </g>
   </g>
   <g id="line2d_9">
    <path d="M 48.851283 254.004613 
L 60.011283 244.463013 
L 71.171283 233.90046 
L 82.331283 224.086409 
L 93.491283 218.273032 
L 104.651283 220.171856 
L 115.811283 218.606389 
L 126.971283 208.088096 
L 138.131283 194.444091 
L 149.291283 179.694808 
L 160.451283 173.949074 
L 171.611283 170.009546 
L 182.771283 152.939643 
L 193.931283 130.651947 
L 205.091283 117.891418 
L 216.251283 115.361498 
L 227.411283 112.338892 
L 238.571283 102.866154 
L 249.731283 84.517766 
L 260.891283 69.923783 
L 272.051283 66.155796 
L 283.211283 76.319079 
L 294.371283 91.456863 
L 305.531283 101.289635 
L 316.691283 110.866812 
L 327.851283 121.197841 
L 339.011283 134.750905 
L 350.171283 140.422422 
L 361.331283 136.687469 
L 372.491283 146.892846 
L 383.651283 159.585028 
L 394.811283 150.051625 
L 405.971283 146.83202 
" clip-path="url(#p11870aed01)" style="fill: none; stroke: #1f77b4; stroke-width: 1.5; stroke-linecap: square"/>
   </g>
   <g id="line2d_10">
    <path d="M 48.851283 260.395206 
L 60.011283 246.803291 
L 71.171283 232.094892 
L 82.331283 217.110029 
L 93.491283 215.322119 
L 104.651283 228.279098 
L 115.811283 239.544689 
L 126.971283 240.0599 
L 138.131283 227.808442 
L 149.291283 209.815187 
L 160.451283 195.132146 
L 171.611283 174.202333 
L 182.771283 155.4364 
L 193.931283 145.415286 
L 205.091283 147.78958 
L 216.251283 166.380547 
L 227.411283 173.665647 
L 238.571283 158.346466 
L 249.731283 136.907609 
L 260.891283 129.975153 
L 272.051283 137.577813 
L 283.211283 138.834962 
L 294.371283 142.905258 
L 305.531283 154.183976 
L 316.691283 167.593662 
L 327.851283 176.17348 
L 339.011283 175.084601 
L 350.171283 173.050479 
L 361.331283 178.989441 
L 372.491283 187.288498 
L 383.651283 186.723134 
L 394.811283 186.498203 
L 405.971283 194.299554 
" clip-path="url(#p11870aed01)" style="fill: none; stroke: #ff7f0e; stroke-width: 1.5; stroke-linecap: square"/>
   </g>
   <g id="line2d_11">
    <path d="M 82.331283 285.37598 
L 82.331283 19.26398 
" clip-path="url(#p11870aed01)" style="fill: none; stroke-dasharray: 5.55,2.4; stroke-dashoffset: 0; stroke: #000000; stroke-opacity: 0.5; stroke-width: 1.5"/>
   </g>
   <g id="line2d_12">
    <path d="M 383.651283 285.37598 
L 383.651283 19.26398 
" clip-path="url(#p11870aed01)" style="fill: none; stroke-dasharray: 5.55,2.4; stroke-dashoffset: 0; stroke: #000000; stroke-opacity: 0.5; stroke-width: 1.5"/>
   </g>
   <g id="patch_3">
    <path d="M 48.851283 285.37598 
L 405.971283 285.37598 
" style="fill: none; stroke: #000000; stroke-width: 0.8; stroke-linejoin: miter; stroke-linecap: square"/>
   </g>
   <g id="text_11">
    <text style="font: 6.94px 'Arial', sans-serif" transform="translate(10.097767 321.385533) rotate(-35)">-0.1s Sampling</text>
   </g>
   <g id="text_12">
    <text style="font: 6.94px 'Arial', sans-serif" transform="translate(57.794497 311.430872) rotate(-35)">Sampling</text>
   </g>
   <g id="text_13">
    <text style="font: 6.94px 'Arial', sans-serif" transform="translate(319.037191 339.456682) rotate(-35)">Movement to Lateral Port</text>
   </g>
   <g id="text_14">
    <text style="font: 8.33px 'Arial', sans-serif; text-anchor: middle" x="227.411283" y="13.26398" transform="rotate(-0 227.411283 13.26398)">GP4_23_s8_L50_D250_ALM - Trace:152_GP4_23_s8_L50_D250_ALM (when: correct)</text>
   </g>
   <g id="legend_1">
    <g id="patch_4">
     <path d="M 132.02261 354.133136 
L 322.799956 354.133136 
Q 324.187956 354.133136 324.187956 352.745136 
L 324.187956 343.45638 
Q 324.187956 342.06838 322.799956 342.06838 
L 132.02261 342.06838 
Q 130.63461 342.06838 130.63461 343.45638 
L 130.63461 352.745136 
Q 130.63461 354.133136 132.02261 354.133136 
z
" style="fill: #ffffff; opacity: 0.8; stroke: #cccccc; stroke-linejoin: miter"/>
    </g>
    <g id="line2d_13">
     <path d="M 133.41061 347.467483 
L 140.35061 347.467483 
L 147.29061 347.467483 
" style="fill: none; stroke: #1f77b4; stroke-width: 1.5; stroke-linecap: square"/>
    </g>
    <g id="text_15">
     <text style="font: 6.94px 'Arial', sans-serif; text-anchor: start" x="152.84261" y="349.896483" transform="rotate(-0 152.84261 349.896483)">DecisionRight (112 pts)</text>
    </g>
    <g id="line2d_14">
     <path d="M 238.337988 347.467483 
L 245.277988 347.467483 
L 252.217988 347.467483 
" style="fill: none; stroke: #ff7f0e; stroke-width: 1.5; stroke-linecap: square"/>
    </g>
    <g id="text_16">
     <text style="font: 6.94px 'Arial', sans-serif; text-anchor: start" x="257.769988" y="349.896483" transform="rotate(-0 257.769988 349.896483)">DecisionLeft (96 pts)</text>
    </g>
   </g>
  </g>
 </g>
 <defs>
  <clipPath id="p11870aed01">
   <rect x="48.851283" y="19.26398" width="357.12" height="266.112"/>
  </clipPath>
 </defs>
</svg>
