<?xml version="1.0" encoding="utf-8" standalone="no"?>
<!DOCTYPE svg PUBLIC "-//W3C//DTD SVG 1.1//EN"
  "http://www.w3.org/Graphics/SVG/1.1/DTD/svg11.dtd">
<svg xmlns:xlink="http://www.w3.org/1999/xlink" width="417.084062pt" height="361.333136pt" viewBox="0 0 417.084062 361.333136" xmlns="http://www.w3.org/2000/svg" version="1.1">
 <metadata>
  <rdf:RDF xmlns:dc="http://purl.org/dc/elements/1.1/" xmlns:cc="http://creativecommons.org/ns#" xmlns:rdf="http://www.w3.org/1999/02/22-rdf-syntax-ns#">
   <cc:Work>
    <dc:type rdf:resource="http://purl.org/dc/dcmitype/StillImage"/>
    <dc:date>2025-12-29T04:07:14.727060</dc:date>
    <dc:format>image/svg+xml</dc:format>
    <dc:creator>
     <cc:Agent>
      <dc:title>Matplotlib v3.8.0, https://matplotlib.org/</dc:title>
     </cc:Agent>
    </dc:creator>
   </cc:Work>
  </rdf:RDF>
 </metadata>
 <defs>
  <style type="text/css">*{stroke-linejoin: round; stroke-linecap: butt}</style>
 </defs>
 <g id="figure_1">
  <g id="patch_1">
   <path d="M 0 361.333136 
L 417.084062 361.333136 
L 417.084062 -0 
L 0 -0 
z
" style="fill: #ffffff"/>
  </g>
  <g id="axes_1">
   <g id="patch_2">
    <path d="M 52.764063 285.37598 
L 409.884063 285.37598 
L 409.884063 19.26398 
L 52.764063 19.26398 
z
" style="fill: #ffffff"/>
   </g>
   <g id="PolyCollection_1">
    <defs>
     <path id="mae28875ae4" d="M 52.764063 -149.414997 
L 52.764063 -126.846876 
L 63.924063 -126.120154 
L 75.084063 -123.3202 
L 86.244063 -124.003496 
L 97.404063 -119.508202 
L 108.564063 -108.473849 
L 119.724063 -101.085075 
L 130.884063 -99.94663 
L 142.044062 -98.837385 
L 153.204063 -101.12218 
L 164.364063 -102.392445 
L 175.524063 -95.180933 
L 186.684063 -89.996731 
L 197.844063 -91.374673 
L 209.004063 -93.488227 
L 220.164062 -99.479002 
L 231.324063 -108.4143 
L 242.484062 -118.011912 
L 253.644063 -131.297028 
L 264.804062 -146.267929 
L 275.964063 -159.677606 
L 287.124063 -178.32232 
L 298.284063 -199.469574 
L 309.444063 -213.584697 
L 320.604062 -222.789477 
L 331.764063 -230.134596 
L 342.924062 -245.207088 
L 354.084063 -264.825202 
L 365.244062 -276.539546 
L 376.404063 -276.541149 
L 387.564062 -270.749409 
L 398.724063 -257.292792 
L 409.884063 -244.519487 
L 409.884063 -289.103002 
L 409.884063 -289.103002 
L 398.724063 -304.310336 
L 387.564062 -320.957422 
L 376.404063 -329.973156 
L 365.244062 -329.80379 
L 354.084063 -317.276403 
L 342.924062 -295.882103 
L 331.764063 -278.090811 
L 320.604062 -269.381802 
L 309.444063 -259.9352 
L 298.284063 -243.959561 
L 287.124063 -219.743018 
L 275.964063 -198.651952 
L 264.804062 -182.659147 
L 253.644063 -165.368022 
L 242.484062 -150.078224 
L 231.324063 -137.419828 
L 220.164062 -126.823498 
L 209.004063 -119.49614 
L 197.844063 -115.224946 
L 186.684063 -112.733572 
L 175.524063 -116.8405 
L 164.364063 -123.095762 
L 153.204063 -122.869696 
L 142.044062 -121.898271 
L 130.884063 -122.21411 
L 119.724063 -122.866503 
L 108.564063 -129.410468 
L 97.404063 -139.165741 
L 86.244063 -143.651306 
L 75.084063 -141.43728 
L 63.924063 -145.888784 
L 52.764063 -149.414997 
z
" style="stroke: #1f77b4; stroke-opacity: 0.2"/>
    </defs>
    <g clip-path="url(#pda1db971e0)">
     <use xlink:href="#mae28875ae4" x="0" y="361.333136" style="fill: #1f77b4; fill-opacity: 0.2; stroke: #1f77b4; stroke-opacity: 0.2"/>
    </g>
   </g>
   <g id="PolyCollection_2">
    <defs>
     <path id="m3d7ed5be99" d="M 52.764063 -158.825196 
L 52.764063 -132.111347 
L 63.924063 -126.977434 
L 75.084063 -119.938613 
L 86.244063 -114.310104 
L 97.404063 -111.11262 
L 108.564063 -108.596355 
L 119.724063 -107.624909 
L 130.884063 -107.188621 
L 142.044062 -102.25465 
L 153.204063 -94.923637 
L 164.364063 -88.053156 
L 175.524063 -88.813952 
L 186.684063 -92.308187 
L 197.844063 -96.070939 
L 209.004063 -99.246026 
L 220.164062 -105.086548 
L 231.324063 -108.207045 
L 242.484062 -110.388644 
L 253.644063 -111.863694 
L 264.804062 -112.829068 
L 275.964063 -119.791091 
L 287.124063 -134.193798 
L 298.284063 -151.592151 
L 309.444063 -170.066879 
L 320.604062 -184.010069 
L 331.764063 -192.031085 
L 342.924062 -195.394696 
L 354.084063 -198.224346 
L 365.244062 -195.284737 
L 376.404063 -193.672513 
L 387.564062 -191.241048 
L 398.724063 -191.769828 
L 409.884063 -186.347156 
L 409.884063 -218.728522 
L 409.884063 -218.728522 
L 398.724063 -227.641917 
L 387.564062 -229.912999 
L 376.404063 -232.832534 
L 365.244062 -234.265339 
L 354.084063 -234.02971 
L 342.924062 -229.306103 
L 331.764063 -227.333572 
L 320.604062 -220.050595 
L 309.444063 -205.404505 
L 298.284063 -185.737497 
L 287.124063 -166.369501 
L 275.964063 -149.634679 
L 264.804062 -142.754203 
L 253.644063 -143.712673 
L 242.484062 -142.679914 
L 231.324063 -140.244639 
L 220.164062 -135.770818 
L 209.004063 -128.077261 
L 197.844063 -121.929869 
L 186.684063 -116.406937 
L 175.524063 -111.965286 
L 164.364063 -107.154101 
L 153.204063 -115.779586 
L 142.044062 -128.203476 
L 130.884063 -135.095371 
L 119.724063 -134.543508 
L 108.564063 -131.801276 
L 97.404063 -133.817668 
L 86.244063 -135.216955 
L 75.084063 -145.200573 
L 63.924063 -155.609266 
L 52.764063 -158.825196 
z
" style="stroke: #ff7f0e; stroke-opacity: 0.2"/>
    </defs>
    <g clip-path="url(#pda1db971e0)">
     <use xlink:href="#m3d7ed5be99" x="0" y="361.333136" style="fill: #ff7f0e; fill-opacity: 0.2; stroke: #ff7f0e; stroke-opacity: 0.2"/>
    </g>
   </g>
   <g id="matplotlib.axis_1">
    <g id="text_1">
     <text style="font: 10px 'Arial', sans-serif; text-anchor: middle" x="231.324063" y="296.533792" transform="rotate(-0 231.324063 296.533792)">Time</text>
    </g>
   </g>
   <g id="matplotlib.axis_2">
    <g id="ytick_1">
     <g id="line2d_1">
      <defs>
       <path id="mc0500aca1c" d="M 0 0 
L -3.5 0 
" style="stroke: #000000; stroke-width: 0.8"/>
      </defs>
      <g>
       <use xlink:href="#mc0500aca1c" x="52.764063" y="279.925741" style="stroke: #000000; stroke-width: 0.8"/>
      </g>
     </g>
     <g id="text_2">
      <text style="font: 10px 'Arial', sans-serif; text-anchor: end" x="45.764063" y="283.504647" transform="rotate(-0 45.764063 283.504647)">−0.50</text>
     </g>
    </g>
    <g id="ytick_2">
     <g id="line2d_2">
      <g>
       <use xlink:href="#mc0500aca1c" x="52.764063" y="244.72744" style="stroke: #000000; stroke-width: 0.8"/>
      </g>
     </g>
     <g id="text_3">
      <text style="font: 10px 'Arial', sans-serif; text-anchor: end" x="45.764063" y="248.306347" transform="rotate(-0 45.764063 248.306347)">−0.25</text>
     </g>
    </g>
    <g id="ytick_3">
     <g id="line2d_3">
      <g>
       <use xlink:href="#mc0500aca1c" x="52.764063" y="209.529139" style="stroke: #000000; stroke-width: 0.8"/>
      </g>
     </g>
     <g id="text_4">
      <text style="font: 10px 'Arial', sans-serif; text-anchor: end" x="45.764063" y="213.108046" transform="rotate(-0 45.764063 213.108046)">0.00</text>
     </g>
    </g>
    <g id="ytick_4">
     <g id="line2d_4">
      <g>
       <use xlink:href="#mc0500aca1c" x="52.764063" y="174.330838" style="stroke: #000000; stroke-width: 0.8"/>
      </g>
     </g>
     <g id="text_5">
      <text style="font: 10px 'Arial', sans-serif; text-anchor: end" x="45.764063" y="177.909745" transform="rotate(-0 45.764063 177.909745)">0.25</text>
     </g>
    </g>
    <g id="ytick_5">
     <g id="line2d_5">
      <g>
       <use xlink:href="#mc0500aca1c" x="52.764063" y="139.132538" style="stroke: #000000; stroke-width: 0.8"/>
      </g>
     </g>
     <g id="text_6">
      <text style="font: 10px 'Arial', sans-serif; text-anchor: end" x="45.764063" y="142.711444" transform="rotate(-0 45.764063 142.711444)">0.50</text>
     </g>
    </g>
    <g id="ytick_6">
     <g id="line2d_6">
      <g>
       <use xlink:href="#mc0500aca1c" x="52.764063" y="103.934237" style="stroke: #000000; stroke-width: 0.8"/>
      </g>
     </g>
     <g id="text_7">
      <text style="font: 10px 'Arial', sans-serif; text-anchor: end" x="45.764063" y="107.513143" transform="rotate(-0 45.764063 107.513143)">0.75</text>
     </g>
    </g>
    <g id="ytick_7">
     <g id="line2d_7">
      <g>
       <use xlink:href="#mc0500aca1c" x="52.764063" y="68.735936" style="stroke: #000000; stroke-width: 0.8"/>
      </g>
     </g>
     <g id="text_8">
      <text style="font: 10px 'Arial', sans-serif; text-anchor: end" x="45.764063" y="72.314842" transform="rotate(-0 45.764063 72.314842)">1.00</text>
     </g>
    </g>
    <g id="ytick_8">
     <g id="line2d_8">
      <g>
       <use xlink:href="#mc0500aca1c" x="52.764063" y="33.537635" style="stroke: #000000; stroke-width: 0.8"/>
      </g>
     </g>
     <g id="text_9">
      <text style="font: 10px 'Arial', sans-serif; text-anchor: end" x="45.764063" y="37.116541" transform="rotate(-0 45.764063 37.116541)">1.25</text>
     </g>
    </g>
    <g id="text_10">
     <text style="font: 10px 'Arial', sans-serif; text-anchor: middle" x="14.357813" y="152.31998" transform="rotate(-90 14.357813 152.31998)">Activity</text>
    </g>
   </g>
   <g id="line2d_9">
    <path d="M 52.764063 223.202199 
L 63.924063 225.328667 
L 75.084063 228.954397 
L 86.244063 227.505736 
L 97.404063 231.996165 
L 108.564063 242.390976 
L 119.724063 249.357347 
L 130.884063 250.252766 
L 142.044062 250.965308 
L 153.204063 249.337198 
L 164.364063 248.589033 
L 175.524063 255.322418 
L 186.684063 259.967985 
L 197.844063 258.033326 
L 209.004063 254.840952 
L 220.164062 248.181886 
L 231.324063 238.416072 
L 242.484062 227.288068 
L 253.644063 213.000611 
L 264.804062 196.869598 
L 275.964063 182.168357 
L 287.124063 162.300467 
L 298.284063 139.618569 
L 309.444063 124.573187 
L 320.604062 115.247497 
L 331.764063 107.220432 
L 342.924062 90.78854 
L 354.084063 70.282333 
L 365.244062 58.161468 
L 376.404063 58.075987 
L 387.564062 65.479716 
L 398.724063 80.531572 
L 409.884063 94.521891 
" clip-path="url(#pda1db971e0)" style="fill: none; stroke: #1f77b4; stroke-width: 1.5; stroke-linecap: square"/>
   </g>
   <g id="line2d_10">
    <path d="M 52.764063 215.864865 
L 63.924063 220.039786 
L 75.084063 228.763543 
L 86.244063 236.569606 
L 97.404063 238.867992 
L 108.564063 241.134321 
L 119.724063 240.248928 
L 130.884063 240.191139 
L 142.044062 246.104073 
L 153.204063 255.981525 
L 164.364063 263.729507 
L 175.524063 260.943517 
L 186.684063 256.975574 
L 197.844063 252.332731 
L 209.004063 247.671493 
L 220.164062 240.904453 
L 231.324063 237.107294 
L 242.484062 234.798857 
L 253.644063 233.544954 
L 264.804062 233.5415 
L 275.964063 226.620251 
L 287.124063 211.051487 
L 298.284063 192.668312 
L 309.444063 173.597443 
L 320.604062 159.302803 
L 331.764063 151.650807 
L 342.924062 148.982736 
L 354.084063 145.206108 
L 365.244062 146.558098 
L 376.404063 148.080612 
L 387.564062 150.75611 
L 398.724063 151.627264 
L 409.884063 158.795297 
" clip-path="url(#pda1db971e0)" style="fill: none; stroke: #ff7f0e; stroke-width: 1.5; stroke-linecap: square"/>
   </g>
   <g id="line2d_11">
    <path d="M 86.244063 285.37598 
L 86.244063 19.26398 
" clip-path="url(#pda1db971e0)" style="fill: none; stroke-dasharray: 5.55,2.4; stroke-dashoffset: 0; stroke: #000000; stroke-opacity: 0.5; stroke-width: 1.5"/>
   </g>
   <g id="line2d_12">
    <path d="M 387.564062 285.37598 
L 387.564062 19.26398 
" clip-path="url(#pda1db971e0)" style="fill: none; stroke-dasharray: 5.55,2.4; stroke-dashoffset: 0; stroke: #000000; stroke-opacity: 0.5; stroke-width: 1.5"/>
   </g>
   <g id="patch_3">
    <path d="M 52.764063 285.37598 
L 409.884063 285.37598 
" style="fill: none; stroke: #000000; stroke-width: 0.8; stroke-linejoin: miter; stroke-linecap: square"/>
   </g>
   <g id="text_11">
    <text style="font: 6.94px 'Arial', sans-serif" transform="translate(14.010547 321.385533) rotate(-35)">-0.1s Sampling</text>
   </g>
   <g id="text_12">
    <text style="font: 6.94px 'Arial', sans-serif" transform="translate(61.707276 311.430872) rotate(-35)">Sampling</text>
   </g>
   <g id="text_13">
    <text style="font: 6.94px 'Arial', sans-serif" transform="translate(322.94997 339.456682) rotate(-35)">Movement to Lateral Port</text>
   </g>
   <g id="text_14">
    <text style="font: 8.33px 'Arial', sans-serif; text-anchor: middle" x="231.324063" y="13.26398" transform="rotate(-0 231.324063 13.26398)">GP4_23_s8_L50_D250_ALM - Trace:162_GP4_23_s8_L50_D250_ALM (when: correct)</text>
   </g>
   <g id="legend_1">
    <g id="patch_4">
     <path d="M 135.935389 354.133136 
L 326.712736 354.133136 
Q 328.100736 354.133136 328.100736 352.745136 
L 328.100736 343.45638 
Q 328.100736 342.06838 326.712736 342.06838 
L 135.935389 342.06838 
Q 134.547389 342.06838 134.547389 343.45638 
L 134.547389 352.745136 
Q 134.547389 354.133136 135.935389 354.133136 
z
" style="fill: #ffffff; opacity: 0.8; stroke: #cccccc; stroke-linejoin: miter"/>
    </g>
    <g id="line2d_13">
     <path d="M 137.323389 347.467483 
L 144.263389 347.467483 
L 151.203389 347.467483 
" style="fill: none; stroke: #1f77b4; stroke-width: 1.5; stroke-linecap: square"/>
    </g>
    <g id="text_15">
     <text style="font: 6.94px 'Arial', sans-serif; text-anchor: start" x="156.755389" y="349.896483" transform="rotate(-0 156.755389 349.896483)">DecisionRight (112 pts)</text>
    </g>
    <g id="line2d_14">
     <path d="M 242.250767 347.467483 
L 249.190767 347.467483 
L 256.130767 347.467483 
" style="fill: none; stroke: #ff7f0e; stroke-width: 1.5; stroke-linecap: square"/>
    </g>
    <g id="text_16">
     <text style="font: 6.94px 'Arial', sans-serif; text-anchor: start" x="261.682767" y="349.896483" transform="rotate(-0 261.682767 349.896483)">DecisionLeft (96 pts)</text>
    </g>
   </g>
  </g>
 </g>
 <defs>
  <clipPath id="pda1db971e0">
   <rect x="52.764063" y="19.26398" width="357.12" height="266.112"/>
  </clipPath>
 </defs>
</svg>
