<?xml version="1.0" encoding="utf-8" standalone="no"?>
<!DOCTYPE svg PUBLIC "-//W3C//DTD SVG 1.1//EN"
  "http://www.w3.org/Graphics/SVG/1.1/DTD/svg11.dtd">
<svg xmlns:xlink="http://www.w3.org/1999/xlink" width="413.171283pt" height="361.333136pt" viewBox="0 0 413.171283 361.333136" xmlns="http://www.w3.org/2000/svg" version="1.1">
 <metadata>
  <rdf:RDF xmlns:dc="http://purl.org/dc/elements/1.1/" xmlns:cc="http://creativecommons.org/ns#" xmlns:rdf="http://www.w3.org/1999/02/22-rdf-syntax-ns#">
   <cc:Work>
    <dc:type rdf:resource="http://purl.org/dc/dcmitype/StillImage"/>
    <dc:date>2025-12-29T04:07:12.881840</dc:date>
    <dc:format>image/svg+xml</dc:format>
    <dc:creator>
     <cc:Agent>
      <dc:title>Matplotlib v3.8.0, https://matplotlib.org/</dc:title>
     </cc:Agent>
    </dc:creator>
   </cc:Work>
  </rdf:RDF>
 </metadata>
 <defs>
  <style type="text/css">*{stroke-linejoin: round; stroke-linecap: butt}</style>
 </defs>
 <g id="figure_1">
  <g id="patch_1">
   <path d="M 0 361.333136 
L 413.171283 361.333136 
L 413.171283 -0 
L 0 -0 
z
" style="fill: #ffffff"/>
  </g>
  <g id="axes_1">
   <g id="patch_2">
    <path d="M 48.851283 285.37598 
L 405.971283 285.37598 
L 405.971283 19.26398 
L 48.851283 19.26398 
z
" style="fill: #ffffff"/>
   </g>
   <g id="PolyCollection_1">
    <defs>
     <path id="md46bb707a2" d="M 48.851283 -171.601846 
L 48.851283 -134.812889 
L 60.011283 -157.144659 
L 71.171283 -182.271116 
L 82.331283 -215.354498 
L 93.491283 -244.110084 
L 104.651283 -266.425559 
L 115.811283 -273.69628 
L 126.971283 -267.899139 
L 138.131283 -264.351956 
L 149.291283 -256.157142 
L 160.451283 -244.40079 
L 171.611283 -240.050425 
L 182.771283 -238.345221 
L 193.931283 -228.548422 
L 205.091283 -217.747665 
L 216.251283 -201.920426 
L 227.411283 -189.923537 
L 238.571283 -182.022166 
L 249.731283 -180.082644 
L 260.891283 -170.933631 
L 272.051283 -159.380732 
L 283.211283 -156.750065 
L 294.371283 -159.989095 
L 305.531283 -155.245609 
L 316.691283 -140.673033 
L 327.851283 -130.252308 
L 339.011283 -130.63421 
L 350.171283 -131.479727 
L 361.331283 -135.504257 
L 372.491283 -142.312277 
L 383.651283 -150.798882 
L 394.811283 -148.101564 
L 405.971283 -166.13456 
L 405.971283 -210.507249 
L 405.971283 -210.507249 
L 394.811283 -189.06097 
L 383.651283 -191.288416 
L 372.491283 -183.067769 
L 361.331283 -175.516983 
L 350.171283 -171.366594 
L 339.011283 -171.680729 
L 327.851283 -172.859084 
L 316.691283 -183.867874 
L 305.531283 -198.297009 
L 294.371283 -200.988186 
L 283.211283 -194.914605 
L 272.051283 -198.174878 
L 260.891283 -215.744727 
L 249.731283 -225.897986 
L 238.571283 -227.554706 
L 227.411283 -239.553967 
L 216.251283 -254.915507 
L 205.091283 -272.93205 
L 193.931283 -285.726578 
L 182.771283 -299.009805 
L 171.611283 -303.287908 
L 160.451283 -309.802015 
L 149.291283 -323.932762 
L 138.131283 -329.973156 
L 126.971283 -328.029931 
L 115.811283 -327.799171 
L 104.651283 -314.446787 
L 93.491283 -287.288658 
L 82.331283 -254.316959 
L 71.171283 -216.112604 
L 60.011283 -188.760527 
L 48.851283 -171.601846 
z
" style="stroke: #1f77b4; stroke-opacity: 0.2"/>
    </defs>
    <g clip-path="url(#p7d0f17f249)">
     <use xlink:href="#md46bb707a2" x="0" y="361.333136" style="fill: #1f77b4; fill-opacity: 0.2; stroke: #1f77b4; stroke-opacity: 0.2"/>
    </g>
   </g>
   <g id="PolyCollection_2">
    <defs>
     <path id="mfda891e8fc" d="M 48.851283 -152.094175 
L 48.851283 -119.752915 
L 60.011283 -126.334602 
L 71.171283 -145.346088 
L 82.331283 -173.223342 
L 93.491283 -191.292324 
L 104.651283 -196.803648 
L 115.811283 -195.453894 
L 126.971283 -188.499483 
L 138.131283 -187.485954 
L 149.291283 -193.196475 
L 160.451283 -193.202339 
L 171.611283 -193.492069 
L 182.771283 -193.377277 
L 193.931283 -185.441189 
L 205.091283 -178.609407 
L 216.251283 -175.233992 
L 227.411283 -169.235481 
L 238.571283 -147.893534 
L 249.731283 -126.82792 
L 260.891283 -108.806204 
L 272.051283 -98.13904 
L 283.211283 -91.446553 
L 294.371283 -88.053156 
L 305.531283 -94.957767 
L 316.691283 -101.979209 
L 327.851283 -106.206046 
L 339.011283 -103.040468 
L 350.171283 -99.633589 
L 361.331283 -105.648478 
L 372.491283 -122.42097 
L 383.651283 -143.758828 
L 394.811283 -149.174293 
L 405.971283 -156.820331 
L 405.971283 -195.269291 
L 405.971283 -195.269291 
L 394.811283 -190.457324 
L 383.651283 -188.752246 
L 372.491283 -165.64876 
L 361.331283 -145.143037 
L 350.171283 -137.286986 
L 339.011283 -140.623398 
L 327.851283 -144.00207 
L 316.691283 -138.152648 
L 305.531283 -128.718918 
L 294.371283 -122.787097 
L 283.211283 -127.616529 
L 272.051283 -138.62279 
L 260.891283 -153.982332 
L 249.731283 -176.655934 
L 238.571283 -206.098624 
L 227.411283 -235.942649 
L 216.251283 -244.276187 
L 205.091283 -247.401954 
L 193.931283 -253.469639 
L 182.771283 -263.874685 
L 171.611283 -268.065563 
L 160.451283 -266.978582 
L 149.291283 -260.808575 
L 138.131283 -247.364832 
L 126.971283 -243.307313 
L 115.811283 -249.025399 
L 104.651283 -251.273961 
L 93.491283 -243.324394 
L 82.331283 -219.669452 
L 71.171283 -187.012485 
L 60.011283 -164.641953 
L 48.851283 -152.094175 
z
" style="stroke: #ff7f0e; stroke-opacity: 0.2"/>
    </defs>
    <g clip-path="url(#p7d0f17f249)">
     <use xlink:href="#mfda891e8fc" x="0" y="361.333136" style="fill: #ff7f0e; fill-opacity: 0.2; stroke: #ff7f0e; stroke-opacity: 0.2"/>
    </g>
   </g>
   <g id="matplotlib.axis_1">
    <g id="text_1">
     <text style="font: 10px 'Arial', sans-serif; text-anchor: middle" x="227.411283" y="296.533792" transform="rotate(-0 227.411283 296.533792)">Time</text>
    </g>
   </g>
   <g id="matplotlib.axis_2">
    <g id="ytick_1">
     <g id="line2d_1">
      <defs>
       <path id="m18f9c62505" d="M 0 0 
L -3.5 0 
" style="stroke: #000000; stroke-width: 0.8"/>
      </defs>
      <g>
       <use xlink:href="#m18f9c62505" x="48.851283" y="268.923521" style="stroke: #000000; stroke-width: 0.8"/>
      </g>
     </g>
     <g id="text_2">
      <text style="font: 10px 'Arial', sans-serif; text-anchor: end" x="41.851283" y="272.502427" transform="rotate(-0 41.851283 272.502427)">−0.2</text>
     </g>
    </g>
    <g id="ytick_2">
     <g id="line2d_2">
      <g>
       <use xlink:href="#m18f9c62505" x="48.851283" y="231.729661" style="stroke: #000000; stroke-width: 0.8"/>
      </g>
     </g>
     <g id="text_3">
      <text style="font: 10px 'Arial', sans-serif; text-anchor: end" x="41.851283" y="235.308567" transform="rotate(-0 41.851283 235.308567)">0.0</text>
     </g>
    </g>
    <g id="ytick_3">
     <g id="line2d_3">
      <g>
       <use xlink:href="#m18f9c62505" x="48.851283" y="194.535801" style="stroke: #000000; stroke-width: 0.8"/>
      </g>
     </g>
     <g id="text_4">
      <text style="font: 10px 'Arial', sans-serif; text-anchor: end" x="41.851283" y="198.114707" transform="rotate(-0 41.851283 198.114707)">0.2</text>
     </g>
    </g>
    <g id="ytick_4">
     <g id="line2d_4">
      <g>
       <use xlink:href="#m18f9c62505" x="48.851283" y="157.341941" style="stroke: #000000; stroke-width: 0.8"/>
      </g>
     </g>
     <g id="text_5">
      <text style="font: 10px 'Arial', sans-serif; text-anchor: end" x="41.851283" y="160.920847" transform="rotate(-0 41.851283 160.920847)">0.4</text>
     </g>
    </g>
    <g id="ytick_5">
     <g id="line2d_5">
      <g>
       <use xlink:href="#m18f9c62505" x="48.851283" y="120.148081" style="stroke: #000000; stroke-width: 0.8"/>
      </g>
     </g>
     <g id="text_6">
      <text style="font: 10px 'Arial', sans-serif; text-anchor: end" x="41.851283" y="123.726987" transform="rotate(-0 41.851283 123.726987)">0.6</text>
     </g>
    </g>
    <g id="ytick_6">
     <g id="line2d_6">
      <g>
       <use xlink:href="#m18f9c62505" x="48.851283" y="82.954221" style="stroke: #000000; stroke-width: 0.8"/>
      </g>
     </g>
     <g id="text_7">
      <text style="font: 10px 'Arial', sans-serif; text-anchor: end" x="41.851283" y="86.533127" transform="rotate(-0 41.851283 86.533127)">0.8</text>
     </g>
    </g>
    <g id="ytick_7">
     <g id="line2d_7">
      <g>
       <use xlink:href="#m18f9c62505" x="48.851283" y="45.76036" style="stroke: #000000; stroke-width: 0.8"/>
      </g>
     </g>
     <g id="text_8">
      <text style="font: 10px 'Arial', sans-serif; text-anchor: end" x="41.851283" y="49.339267" transform="rotate(-0 41.851283 49.339267)">1.0</text>
     </g>
    </g>
    <g id="text_9">
     <text style="font: 10px 'Arial', sans-serif; text-anchor: middle" x="16.005971" y="152.31998" transform="rotate(-90 16.005971 152.31998)">Activity</text>
    </g>
   </g>
   <g id="line2d_8">
    <path d="M 48.851283 208.12577 
L 60.011283 188.380542 
L 71.171283 162.141276 
L 82.331283 126.49741 
L 93.491283 95.633765 
L 104.651283 70.896963 
L 115.811283 60.585416 
L 126.971283 63.368601 
L 138.131283 64.170585 
L 149.291283 71.288184 
L 160.451283 84.231733 
L 171.611283 89.663969 
L 182.771283 92.655623 
L 193.931283 104.195636 
L 205.091283 115.993278 
L 216.251283 132.915169 
L 227.411283 146.594384 
L 238.571283 156.5447 
L 249.731283 158.342821 
L 260.891283 167.993957 
L 272.051283 182.555331 
L 283.211283 185.500801 
L 294.371283 180.844495 
L 305.531283 184.561827 
L 316.691283 199.062682 
L 327.851283 209.77744 
L 339.011283 210.175666 
L 350.171283 209.909976 
L 361.331283 205.822516 
L 372.491283 198.643112 
L 383.651283 190.289488 
L 394.811283 192.75187 
L 405.971283 173.012231 
" clip-path="url(#p7d0f17f249)" style="fill: none; stroke: #1f77b4; stroke-width: 1.5; stroke-linecap: square"/>
   </g>
   <g id="line2d_9">
    <path d="M 48.851283 225.409591 
L 60.011283 215.844858 
L 71.171283 195.153849 
L 82.331283 164.88674 
L 93.491283 144.024777 
L 104.651283 137.294331 
L 115.811283 139.093489 
L 126.971283 145.429738 
L 138.131283 143.907746 
L 149.291283 134.330611 
L 160.451283 131.242675 
L 171.611283 130.55432 
L 182.771283 132.707155 
L 193.931283 141.877722 
L 205.091283 148.327455 
L 216.251283 151.578046 
L 227.411283 158.744068 
L 238.571283 184.337059 
L 249.731283 209.59121 
L 260.891283 229.938868 
L 272.051283 242.952221 
L 283.211283 251.801595 
L 294.371283 255.91301 
L 305.531283 249.494794 
L 316.691283 241.267208 
L 327.851283 236.229078 
L 339.011283 239.501203 
L 350.171283 242.872848 
L 361.331283 235.937379 
L 372.491283 217.298271 
L 383.651283 195.077598 
L 394.811283 191.517327 
L 405.971283 185.288325 
" clip-path="url(#p7d0f17f249)" style="fill: none; stroke: #ff7f0e; stroke-width: 1.5; stroke-linecap: square"/>
   </g>
   <g id="line2d_10">
    <path d="M 82.331283 285.37598 
L 82.331283 19.26398 
" clip-path="url(#p7d0f17f249)" style="fill: none; stroke-dasharray: 5.55,2.4; stroke-dashoffset: 0; stroke: #000000; stroke-opacity: 0.5; stroke-width: 1.5"/>
   </g>
   <g id="line2d_11">
    <path d="M 383.651283 285.37598 
L 383.651283 19.26398 
" clip-path="url(#p7d0f17f249)" style="fill: none; stroke-dasharray: 5.55,2.4; stroke-dashoffset: 0; stroke: #000000; stroke-opacity: 0.5; stroke-width: 1.5"/>
   </g>
   <g id="patch_3">
    <path d="M 48.851283 285.37598 
L 405.971283 285.37598 
" style="fill: none; stroke: #000000; stroke-width: 0.8; stroke-linejoin: miter; stroke-linecap: square"/>
   </g>
   <g id="text_10">
    <text style="font: 6.94px 'Arial', sans-serif" transform="translate(10.097767 321.385533) rotate(-35)">-0.1s Sampling</text>
   </g>
   <g id="text_11">
    <text style="font: 6.94px 'Arial', sans-serif" transform="translate(57.794497 311.430872) rotate(-35)">Sampling</text>
   </g>
   <g id="text_12">
    <text style="font: 6.94px 'Arial', sans-serif" transform="translate(319.037191 339.456682) rotate(-35)">Movement to Lateral Port</text>
   </g>
   <g id="text_13">
    <text style="font: 8.33px 'Arial', sans-serif; text-anchor: middle" x="227.411283" y="13.26398" transform="rotate(-0 227.411283 13.26398)">GP4_23_s8_L50_D250_ALM - Trace:206_GP4_23_s8_L50_D250_ALM (when: correct)</text>
   </g>
   <g id="legend_1">
    <g id="patch_4">
     <path d="M 132.02261 354.133136 
L 322.799956 354.133136 
Q 324.187956 354.133136 324.187956 352.745136 
L 324.187956 343.45638 
Q 324.187956 342.06838 322.799956 342.06838 
L 132.02261 342.06838 
Q 130.63461 342.06838 130.63461 343.45638 
L 130.63461 352.745136 
Q 130.63461 354.133136 132.02261 354.133136 
z
" style="fill: #ffffff; opacity: 0.8; stroke: #cccccc; stroke-linejoin: miter"/>
    </g>
    <g id="line2d_12">
     <path d="M 133.41061 347.467483 
L 140.35061 347.467483 
L 147.29061 347.467483 
" style="fill: none; stroke: #1f77b4; stroke-width: 1.5; stroke-linecap: square"/>
    </g>
    <g id="text_14">
     <text style="font: 6.94px 'Arial', sans-serif; text-anchor: start" x="152.84261" y="349.896483" transform="rotate(-0 152.84261 349.896483)">DecisionRight (112 pts)</text>
    </g>
    <g id="line2d_13">
     <path d="M 238.337988 347.467483 
L 245.277988 347.467483 
L 252.217988 347.467483 
" style="fill: none; stroke: #ff7f0e; stroke-width: 1.5; stroke-linecap: square"/>
    </g>
    <g id="text_15">
     <text style="font: 6.94px 'Arial', sans-serif; text-anchor: start" x="257.769988" y="349.896483" transform="rotate(-0 257.769988 349.896483)">DecisionLeft (96 pts)</text>
    </g>
   </g>
  </g>
 </g>
 <defs>
  <clipPath id="p7d0f17f249">
   <rect x="48.851283" y="19.26398" width="357.12" height="266.112"/>
  </clipPath>
 </defs>
</svg>
