<?xml version="1.0" encoding="utf-8" standalone="no"?>
<!DOCTYPE svg PUBLIC "-//W3C//DTD SVG 1.1//EN"
  "http://www.w3.org/Graphics/SVG/1.1/DTD/svg11.dtd">
<svg xmlns:xlink="http://www.w3.org/1999/xlink" width="413.171283pt" height="361.333136pt" viewBox="0 0 413.171283 361.333136" xmlns="http://www.w3.org/2000/svg" version="1.1">
 <metadata>
  <rdf:RDF xmlns:dc="http://purl.org/dc/elements/1.1/" xmlns:cc="http://creativecommons.org/ns#" xmlns:rdf="http://www.w3.org/1999/02/22-rdf-syntax-ns#">
   <cc:Work>
    <dc:type rdf:resource="http://purl.org/dc/dcmitype/StillImage"/>
    <dc:date>2025-12-29T04:07:15.039127</dc:date>
    <dc:format>image/svg+xml</dc:format>
    <dc:creator>
     <cc:Agent>
      <dc:title>Matplotlib v3.8.0, https://matplotlib.org/</dc:title>
     </cc:Agent>
    </dc:creator>
   </cc:Work>
  </rdf:RDF>
 </metadata>
 <defs>
  <style type="text/css">*{stroke-linejoin: round; stroke-linecap: butt}</style>
 </defs>
 <g id="figure_1">
  <g id="patch_1">
   <path d="M 0 361.333136 
L 413.171283 361.333136 
L 413.171283 -0 
L 0 -0 
z
" style="fill: #ffffff"/>
  </g>
  <g id="axes_1">
   <g id="patch_2">
    <path d="M 48.851283 285.37598 
L 405.971283 285.37598 
L 405.971283 19.26398 
L 48.851283 19.26398 
z
" style="fill: #ffffff"/>
   </g>
   <g id="PolyCollection_1">
    <defs>
     <path id="m614221e835" d="M 48.851283 -147.052467 
L 48.851283 -123.442708 
L 60.011283 -121.828273 
L 71.171283 -117.169122 
L 82.331283 -120.463664 
L 93.491283 -128.845947 
L 104.651283 -129.333844 
L 115.811283 -118.635473 
L 126.971283 -109.13187 
L 138.131283 -111.074142 
L 149.291283 -114.928497 
L 160.451283 -119.180728 
L 171.611283 -121.250837 
L 182.771283 -122.402772 
L 193.931283 -116.063045 
L 205.091283 -113.717856 
L 216.251283 -127.208575 
L 227.411283 -148.892117 
L 238.571283 -167.784001 
L 249.731283 -184.336294 
L 260.891283 -190.781578 
L 272.051283 -190.533996 
L 283.211283 -189.645288 
L 294.371283 -200.264299 
L 305.531283 -217.848523 
L 316.691283 -235.253683 
L 327.851283 -242.109731 
L 339.011283 -247.367507 
L 350.171283 -252.049593 
L 361.331283 -254.685135 
L 372.491283 -259.688271 
L 383.651283 -269.849473 
L 394.811283 -279.248115 
L 405.971283 -280.476506 
L 405.971283 -329.973156 
L 405.971283 -329.973156 
L 394.811283 -327.966791 
L 383.651283 -317.282097 
L 372.491283 -301.477135 
L 361.331283 -293.225757 
L 350.171283 -289.2906 
L 339.011283 -284.201269 
L 327.851283 -277.717464 
L 316.691283 -268.243857 
L 305.531283 -249.80228 
L 294.371283 -233.233892 
L 283.211283 -223.574695 
L 272.051283 -224.116081 
L 260.891283 -223.348295 
L 249.731283 -217.922573 
L 238.571283 -202.749804 
L 227.411283 -182.170162 
L 216.251283 -158.260632 
L 205.091283 -141.88573 
L 193.931283 -139.966809 
L 182.771283 -146.211155 
L 171.611283 -146.141981 
L 160.451283 -143.773259 
L 149.291283 -137.764068 
L 138.131283 -131.232039 
L 126.971283 -129.704793 
L 115.811283 -140.372853 
L 104.651283 -151.986543 
L 93.491283 -151.375947 
L 82.331283 -143.903166 
L 71.171283 -142.347628 
L 60.011283 -145.713486 
L 48.851283 -147.052467 
z
" style="stroke: #1f77b4; stroke-opacity: 0.2"/>
    </defs>
    <g clip-path="url(#p3f900e7a46)">
     <use xlink:href="#m614221e835" x="0" y="361.333136" style="fill: #1f77b4; fill-opacity: 0.2; stroke: #1f77b4; stroke-opacity: 0.2"/>
    </g>
   </g>
   <g id="PolyCollection_2">
    <defs>
     <path id="m6f3cda0679" d="M 48.851283 -164.150561 
L 48.851283 -136.875543 
L 60.011283 -128.759542 
L 71.171283 -122.896184 
L 82.331283 -115.919693 
L 93.491283 -114.626429 
L 104.651283 -110.634606 
L 115.811283 -99.273725 
L 126.971283 -91.241468 
L 138.131283 -88.053156 
L 149.291283 -91.226748 
L 160.451283 -98.310756 
L 171.611283 -114.839263 
L 182.771283 -129.659053 
L 193.931283 -135.343281 
L 205.091283 -134.485846 
L 216.251283 -142.70799 
L 227.411283 -152.122098 
L 238.571283 -149.887317 
L 249.731283 -152.617962 
L 260.891283 -165.24925 
L 272.051283 -170.044091 
L 283.211283 -173.53201 
L 294.371283 -188.585129 
L 305.531283 -206.799603 
L 316.691283 -216.350581 
L 327.851283 -221.375313 
L 339.011283 -221.505511 
L 350.171283 -220.64679 
L 361.331283 -227.657635 
L 372.491283 -242.419295 
L 383.651283 -250.107995 
L 394.811283 -255.273994 
L 405.971283 -264.628668 
L 405.971283 -317.7309 
L 405.971283 -317.7309 
L 394.811283 -308.850681 
L 383.651283 -306.529851 
L 372.491283 -302.035196 
L 361.331283 -284.472936 
L 350.171283 -270.441827 
L 339.011283 -264.041737 
L 327.851283 -260.53551 
L 316.691283 -252.91701 
L 305.531283 -239.270488 
L 294.371283 -219.768516 
L 283.211283 -205.566605 
L 272.051283 -200.529205 
L 260.891283 -195.220536 
L 249.731283 -184.216952 
L 238.571283 -182.800968 
L 227.411283 -183.496388 
L 216.251283 -169.338882 
L 205.091283 -160.827241 
L 193.931283 -163.356636 
L 182.771283 -158.5206 
L 171.611283 -143.528316 
L 160.451283 -126.955766 
L 149.291283 -119.162248 
L 138.131283 -114.39812 
L 126.971283 -116.547256 
L 115.811283 -125.617773 
L 104.651283 -138.773085 
L 93.491283 -141.32157 
L 82.331283 -141.883604 
L 71.171283 -149.669499 
L 60.011283 -154.648278 
L 48.851283 -164.150561 
z
" style="stroke: #ff7f0e; stroke-opacity: 0.2"/>
    </defs>
    <g clip-path="url(#p3f900e7a46)">
     <use xlink:href="#m6f3cda0679" x="0" y="361.333136" style="fill: #ff7f0e; fill-opacity: 0.2; stroke: #ff7f0e; stroke-opacity: 0.2"/>
    </g>
   </g>
   <g id="matplotlib.axis_1">
    <g id="text_1">
     <text style="font: 10px 'Arial', sans-serif; text-anchor: middle" x="227.411283" y="296.533792" transform="rotate(-0 227.411283 296.533792)">Time</text>
    </g>
   </g>
   <g id="matplotlib.axis_2">
    <g id="ytick_1">
     <g id="line2d_1">
      <defs>
       <path id="md4a6691349" d="M 0 0 
L -3.5 0 
" style="stroke: #000000; stroke-width: 0.8"/>
      </defs>
      <g>
       <use xlink:href="#md4a6691349" x="48.851283" y="273.771806" style="stroke: #000000; stroke-width: 0.8"/>
      </g>
     </g>
     <g id="text_2">
      <text style="font: 10px 'Arial', sans-serif; text-anchor: end" x="41.851283" y="277.350712" transform="rotate(-0 41.851283 277.350712)">−0.4</text>
     </g>
    </g>
    <g id="ytick_2">
     <g id="line2d_2">
      <g>
       <use xlink:href="#md4a6691349" x="48.851283" y="240.744059" style="stroke: #000000; stroke-width: 0.8"/>
      </g>
     </g>
     <g id="text_3">
      <text style="font: 10px 'Arial', sans-serif; text-anchor: end" x="41.851283" y="244.322965" transform="rotate(-0 41.851283 244.322965)">−0.2</text>
     </g>
    </g>
    <g id="ytick_3">
     <g id="line2d_3">
      <g>
       <use xlink:href="#md4a6691349" x="48.851283" y="207.716311" style="stroke: #000000; stroke-width: 0.8"/>
      </g>
     </g>
     <g id="text_4">
      <text style="font: 10px 'Arial', sans-serif; text-anchor: end" x="41.851283" y="211.295218" transform="rotate(-0 41.851283 211.295218)">0.0</text>
     </g>
    </g>
    <g id="ytick_4">
     <g id="line2d_4">
      <g>
       <use xlink:href="#md4a6691349" x="48.851283" y="174.688564" style="stroke: #000000; stroke-width: 0.8"/>
      </g>
     </g>
     <g id="text_5">
      <text style="font: 10px 'Arial', sans-serif; text-anchor: end" x="41.851283" y="178.26747" transform="rotate(-0 41.851283 178.26747)">0.2</text>
     </g>
    </g>
    <g id="ytick_5">
     <g id="line2d_5">
      <g>
       <use xlink:href="#md4a6691349" x="48.851283" y="141.660817" style="stroke: #000000; stroke-width: 0.8"/>
      </g>
     </g>
     <g id="text_6">
      <text style="font: 10px 'Arial', sans-serif; text-anchor: end" x="41.851283" y="145.239723" transform="rotate(-0 41.851283 145.239723)">0.4</text>
     </g>
    </g>
    <g id="ytick_6">
     <g id="line2d_6">
      <g>
       <use xlink:href="#md4a6691349" x="48.851283" y="108.63307" style="stroke: #000000; stroke-width: 0.8"/>
      </g>
     </g>
     <g id="text_7">
      <text style="font: 10px 'Arial', sans-serif; text-anchor: end" x="41.851283" y="112.211976" transform="rotate(-0 41.851283 112.211976)">0.6</text>
     </g>
    </g>
    <g id="ytick_7">
     <g id="line2d_7">
      <g>
       <use xlink:href="#md4a6691349" x="48.851283" y="75.605323" style="stroke: #000000; stroke-width: 0.8"/>
      </g>
     </g>
     <g id="text_8">
      <text style="font: 10px 'Arial', sans-serif; text-anchor: end" x="41.851283" y="79.184229" transform="rotate(-0 41.851283 79.184229)">0.8</text>
     </g>
    </g>
    <g id="ytick_8">
     <g id="line2d_8">
      <g>
       <use xlink:href="#md4a6691349" x="48.851283" y="42.577576" style="stroke: #000000; stroke-width: 0.8"/>
      </g>
     </g>
     <g id="text_9">
      <text style="font: 10px 'Arial', sans-serif; text-anchor: end" x="41.851283" y="46.156482" transform="rotate(-0 41.851283 46.156482)">1.0</text>
     </g>
    </g>
    <g id="text_10">
     <text style="font: 10px 'Arial', sans-serif; text-anchor: middle" x="16.005971" y="152.31998" transform="rotate(-90 16.005971 152.31998)">Activity</text>
    </g>
   </g>
   <g id="line2d_9">
    <path d="M 48.851283 226.085548 
L 60.011283 227.562256 
L 71.171283 231.574762 
L 82.331283 229.149721 
L 93.491283 221.222189 
L 104.651283 220.672942 
L 115.811283 231.828973 
L 126.971283 241.914804 
L 138.131283 240.180046 
L 149.291283 234.986853 
L 160.451283 229.856143 
L 171.611283 227.636727 
L 182.771283 227.026173 
L 193.931283 233.31821 
L 205.091283 233.531343 
L 216.251283 218.598533 
L 227.411283 195.801996 
L 238.571283 176.066234 
L 249.731283 160.203703 
L 260.891283 154.268199 
L 272.051283 154.008097 
L 283.211283 154.723145 
L 294.371283 144.58404 
L 305.531283 127.507737 
L 316.691283 109.584366 
L 327.851283 101.419538 
L 339.011283 95.548748 
L 350.171283 90.663039 
L 361.331283 87.37769 
L 372.491283 80.750433 
L 383.651283 67.767351 
L 394.811283 57.725683 
L 405.971283 56.108305 
" clip-path="url(#p3f900e7a46)" style="fill: none; stroke: #1f77b4; stroke-width: 1.5; stroke-linecap: square"/>
   </g>
   <g id="line2d_10">
    <path d="M 48.851283 210.820084 
L 60.011283 219.629227 
L 71.171283 225.050295 
L 82.331283 232.431487 
L 93.491283 233.359137 
L 104.651283 236.629291 
L 115.811283 248.887387 
L 126.971283 257.438775 
L 138.131283 260.107498 
L 149.291283 256.138638 
L 160.451283 248.699875 
L 171.611283 232.149347 
L 182.771283 217.24331 
L 193.931283 211.983178 
L 205.091283 213.676592 
L 216.251283 205.3097 
L 227.411283 193.523893 
L 238.571283 194.988994 
L 249.731283 192.915679 
L 260.891283 181.098243 
L 272.051283 176.046489 
L 283.211283 171.783827 
L 294.371283 157.156313 
L 305.531283 138.298091 
L 316.691283 126.699343 
L 327.851283 120.377727 
L 339.011283 118.559512 
L 350.171283 115.788825 
L 361.331283 105.26785 
L 372.491283 89.105891 
L 383.651283 83.014213 
L 394.811283 79.270798 
L 405.971283 70.153352 
" clip-path="url(#p3f900e7a46)" style="fill: none; stroke: #ff7f0e; stroke-width: 1.5; stroke-linecap: square"/>
   </g>
   <g id="line2d_11">
    <path d="M 82.331283 285.37598 
L 82.331283 19.26398 
" clip-path="url(#p3f900e7a46)" style="fill: none; stroke-dasharray: 5.55,2.4; stroke-dashoffset: 0; stroke: #000000; stroke-opacity: 0.5; stroke-width: 1.5"/>
   </g>
   <g id="line2d_12">
    <path d="M 383.651283 285.37598 
L 383.651283 19.26398 
" clip-path="url(#p3f900e7a46)" style="fill: none; stroke-dasharray: 5.55,2.4; stroke-dashoffset: 0; stroke: #000000; stroke-opacity: 0.5; stroke-width: 1.5"/>
   </g>
   <g id="patch_3">
    <path d="M 48.851283 285.37598 
L 405.971283 285.37598 
" style="fill: none; stroke: #000000; stroke-width: 0.8; stroke-linejoin: miter; stroke-linecap: square"/>
   </g>
   <g id="text_11">
    <text style="font: 6.94px 'Arial', sans-serif" transform="translate(10.097767 321.385533) rotate(-35)">-0.1s Sampling</text>
   </g>
   <g id="text_12">
    <text style="font: 6.94px 'Arial', sans-serif" transform="translate(57.794497 311.430872) rotate(-35)">Sampling</text>
   </g>
   <g id="text_13">
    <text style="font: 6.94px 'Arial', sans-serif" transform="translate(319.037191 339.456682) rotate(-35)">Movement to Lateral Port</text>
   </g>
   <g id="text_14">
    <text style="font: 8.33px 'Arial', sans-serif; text-anchor: middle" x="227.411283" y="13.26398" transform="rotate(-0 227.411283 13.26398)">GP4_23_s8_L50_D250_ALM - Trace:250_GP4_23_s8_L50_D250_ALM (when: correct)</text>
   </g>
   <g id="legend_1">
    <g id="patch_4">
     <path d="M 132.02261 354.133136 
L 322.799956 354.133136 
Q 324.187956 354.133136 324.187956 352.745136 
L 324.187956 343.45638 
Q 324.187956 342.06838 322.799956 342.06838 
L 132.02261 342.06838 
Q 130.63461 342.06838 130.63461 343.45638 
L 130.63461 352.745136 
Q 130.63461 354.133136 132.02261 354.133136 
z
" style="fill: #ffffff; opacity: 0.8; stroke: #cccccc; stroke-linejoin: miter"/>
    </g>
    <g id="line2d_13">
     <path d="M 133.41061 347.467483 
L 140.35061 347.467483 
L 147.29061 347.467483 
" style="fill: none; stroke: #1f77b4; stroke-width: 1.5; stroke-linecap: square"/>
    </g>
    <g id="text_15">
     <text style="font: 6.94px 'Arial', sans-serif; text-anchor: start" x="152.84261" y="349.896483" transform="rotate(-0 152.84261 349.896483)">DecisionRight (112 pts)</text>
    </g>
    <g id="line2d_14">
     <path d="M 238.337988 347.467483 
L 245.277988 347.467483 
L 252.217988 347.467483 
" style="fill: none; stroke: #ff7f0e; stroke-width: 1.5; stroke-linecap: square"/>
    </g>
    <g id="text_16">
     <text style="font: 6.94px 'Arial', sans-serif; text-anchor: start" x="257.769988" y="349.896483" transform="rotate(-0 257.769988 349.896483)">DecisionLeft (96 pts)</text>
    </g>
   </g>
  </g>
 </g>
 <defs>
  <clipPath id="p3f900e7a46">
   <rect x="48.851283" y="19.26398" width="357.12" height="266.112"/>
  </clipPath>
 </defs>
</svg>
