<?xml version="1.0" encoding="utf-8" standalone="no"?>
<!DOCTYPE svg PUBLIC "-//W3C//DTD SVG 1.1//EN"
  "http://www.w3.org/Graphics/SVG/1.1/DTD/svg11.dtd">
<svg xmlns:xlink="http://www.w3.org/1999/xlink" width="413.171283pt" height="361.333136pt" viewBox="0 0 413.171283 361.333136" xmlns="http://www.w3.org/2000/svg" version="1.1">
 <metadata>
  <rdf:RDF xmlns:dc="http://purl.org/dc/elements/1.1/" xmlns:cc="http://creativecommons.org/ns#" xmlns:rdf="http://www.w3.org/1999/02/22-rdf-syntax-ns#">
   <cc:Work>
    <dc:type rdf:resource="http://purl.org/dc/dcmitype/StillImage"/>
    <dc:date>2025-12-29T04:07:12.407187</dc:date>
    <dc:format>image/svg+xml</dc:format>
    <dc:creator>
     <cc:Agent>
      <dc:title>Matplotlib v3.8.0, https://matplotlib.org/</dc:title>
     </cc:Agent>
    </dc:creator>
   </cc:Work>
  </rdf:RDF>
 </metadata>
 <defs>
  <style type="text/css">*{stroke-linejoin: round; stroke-linecap: butt}</style>
 </defs>
 <g id="figure_1">
  <g id="patch_1">
   <path d="M 0 361.333136 
L 413.171283 361.333136 
L 413.171283 -0 
L 0 -0 
z
" style="fill: #ffffff"/>
  </g>
  <g id="axes_1">
   <g id="patch_2">
    <path d="M 48.851283 285.37598 
L 405.971283 285.37598 
L 405.971283 19.26398 
L 48.851283 19.26398 
z
" style="fill: #ffffff"/>
   </g>
   <g id="PolyCollection_1">
    <defs>
     <path id="m7c4f54c7a8" d="M 48.851283 -329.973156 
L 48.851283 -257.287149 
L 60.011283 -252.512998 
L 71.171283 -246.609566 
L 82.331283 -234.812003 
L 93.491283 -222.805911 
L 104.651283 -206.177783 
L 115.811283 -185.899277 
L 126.971283 -170.050797 
L 138.131283 -157.522649 
L 149.291283 -146.753435 
L 160.451283 -138.071447 
L 171.611283 -133.687364 
L 182.771283 -133.767411 
L 193.931283 -136.459527 
L 205.091283 -135.771666 
L 216.251283 -133.093303 
L 227.411283 -127.580833 
L 238.571283 -122.849847 
L 249.731283 -123.135412 
L 260.891283 -127.068862 
L 272.051283 -127.770426 
L 283.211283 -125.385576 
L 294.371283 -124.136059 
L 305.531283 -128.603782 
L 316.691283 -128.548732 
L 327.851283 -128.086126 
L 339.011283 -130.315504 
L 350.171283 -129.013404 
L 361.331283 -127.28164 
L 372.491283 -130.862933 
L 383.651283 -138.582993 
L 394.811283 -143.364831 
L 405.971283 -140.167578 
L 405.971283 -163.650315 
L 405.971283 -163.650315 
L 394.811283 -166.641708 
L 383.651283 -161.340511 
L 372.491283 -153.731437 
L 361.331283 -150.392317 
L 350.171283 -151.904296 
L 339.011283 -152.866131 
L 327.851283 -150.498914 
L 316.691283 -151.619217 
L 305.531283 -150.464554 
L 294.371283 -144.211889 
L 283.211283 -145.651722 
L 272.051283 -149.752944 
L 260.891283 -150.21701 
L 249.731283 -144.397191 
L 238.571283 -142.399989 
L 227.411283 -149.021108 
L 216.251283 -157.482972 
L 205.091283 -161.481891 
L 193.931283 -162.649652 
L 182.771283 -160.092676 
L 171.611283 -160.441995 
L 160.451283 -167.553342 
L 149.291283 -179.840711 
L 138.131283 -194.690218 
L 126.971283 -210.785474 
L 115.811283 -231.490852 
L 104.651283 -258.538716 
L 93.491283 -281.396344 
L 82.331283 -297.511498 
L 71.171283 -314.52947 
L 60.011283 -323.866019 
L 48.851283 -329.973156 
z
" style="stroke: #1f77b4; stroke-opacity: 0.2"/>
    </defs>
    <g clip-path="url(#pc1582f9be0)">
     <use xlink:href="#m7c4f54c7a8" x="0" y="361.333136" style="fill: #1f77b4; fill-opacity: 0.2; stroke: #1f77b4; stroke-opacity: 0.2"/>
    </g>
   </g>
   <g id="PolyCollection_2">
    <defs>
     <path id="mc4d0234c93" d="M 48.851283 -209.911125 
L 48.851283 -153.030081 
L 60.011283 -146.451794 
L 71.171283 -145.347629 
L 82.331283 -141.889951 
L 93.491283 -135.253701 
L 104.651283 -121.69527 
L 115.811283 -105.720963 
L 126.971283 -96.215168 
L 138.131283 -96.018899 
L 149.291283 -99.508376 
L 160.451283 -100.195357 
L 171.611283 -96.681989 
L 182.771283 -92.360317 
L 193.931283 -88.053156 
L 205.091283 -90.643982 
L 216.251283 -95.903482 
L 227.411283 -97.590776 
L 238.571283 -96.590006 
L 249.731283 -98.339252 
L 260.891283 -102.38911 
L 272.051283 -106.71813 
L 283.211283 -107.818335 
L 294.371283 -106.263126 
L 305.531283 -104.284848 
L 316.691283 -102.221385 
L 327.851283 -103.654997 
L 339.011283 -106.081135 
L 350.171283 -106.272852 
L 361.331283 -104.912845 
L 372.491283 -105.258468 
L 383.651283 -107.5802 
L 394.811283 -115.998589 
L 405.971283 -119.579826 
L 405.971283 -144.511817 
L 405.971283 -144.511817 
L 394.811283 -141.479397 
L 383.651283 -133.967915 
L 372.491283 -129.662996 
L 361.331283 -127.926618 
L 350.171283 -129.824762 
L 339.011283 -129.725509 
L 327.851283 -126.602488 
L 316.691283 -124.321974 
L 305.531283 -124.457064 
L 294.371283 -125.454709 
L 283.211283 -128.205264 
L 272.051283 -127.570976 
L 260.891283 -122.283732 
L 249.731283 -117.623167 
L 238.571283 -117.108226 
L 227.411283 -119.461667 
L 216.251283 -115.667902 
L 205.091283 -109.737759 
L 193.931283 -109.099926 
L 182.771283 -113.988511 
L 171.611283 -118.340522 
L 160.451283 -125.221971 
L 149.291283 -127.841364 
L 138.131283 -125.597948 
L 126.971283 -127.913801 
L 115.811283 -142.269533 
L 104.651283 -165.060489 
L 93.491283 -185.066561 
L 82.331283 -197.136649 
L 71.171283 -203.630261 
L 60.011283 -204.300274 
L 48.851283 -209.911125 
z
" style="stroke: #ff7f0e; stroke-opacity: 0.2"/>
    </defs>
    <g clip-path="url(#pc1582f9be0)">
     <use xlink:href="#mc4d0234c93" x="0" y="361.333136" style="fill: #ff7f0e; fill-opacity: 0.2; stroke: #ff7f0e; stroke-opacity: 0.2"/>
    </g>
   </g>
   <g id="matplotlib.axis_1">
    <g id="text_1">
     <text style="font: 10px 'Arial', sans-serif; text-anchor: middle" x="227.411283" y="296.533792" transform="rotate(-0 227.411283 296.533792)">Time</text>
    </g>
   </g>
   <g id="matplotlib.axis_2">
    <g id="ytick_1">
     <g id="line2d_1">
      <defs>
       <path id="mf992c2da3c" d="M 0 0 
L -3.5 0 
" style="stroke: #000000; stroke-width: 0.8"/>
      </defs>
      <g>
       <use xlink:href="#mf992c2da3c" x="48.851283" y="259.697646" style="stroke: #000000; stroke-width: 0.8"/>
      </g>
     </g>
     <g id="text_2">
      <text style="font: 10px 'Arial', sans-serif; text-anchor: end" x="41.851283" y="263.276552" transform="rotate(-0 41.851283 263.276552)">−0.2</text>
     </g>
    </g>
    <g id="ytick_2">
     <g id="line2d_2">
      <g>
       <use xlink:href="#mf992c2da3c" x="48.851283" y="217.439597" style="stroke: #000000; stroke-width: 0.8"/>
      </g>
     </g>
     <g id="text_3">
      <text style="font: 10px 'Arial', sans-serif; text-anchor: end" x="41.851283" y="221.018503" transform="rotate(-0 41.851283 221.018503)">0.0</text>
     </g>
    </g>
    <g id="ytick_3">
     <g id="line2d_3">
      <g>
       <use xlink:href="#mf992c2da3c" x="48.851283" y="175.181547" style="stroke: #000000; stroke-width: 0.8"/>
      </g>
     </g>
     <g id="text_4">
      <text style="font: 10px 'Arial', sans-serif; text-anchor: end" x="41.851283" y="178.760453" transform="rotate(-0 41.851283 178.760453)">0.2</text>
     </g>
    </g>
    <g id="ytick_4">
     <g id="line2d_4">
      <g>
       <use xlink:href="#mf992c2da3c" x="48.851283" y="132.923498" style="stroke: #000000; stroke-width: 0.8"/>
      </g>
     </g>
     <g id="text_5">
      <text style="font: 10px 'Arial', sans-serif; text-anchor: end" x="41.851283" y="136.502404" transform="rotate(-0 41.851283 136.502404)">0.4</text>
     </g>
    </g>
    <g id="ytick_5">
     <g id="line2d_5">
      <g>
       <use xlink:href="#mf992c2da3c" x="48.851283" y="90.665448" style="stroke: #000000; stroke-width: 0.8"/>
      </g>
     </g>
     <g id="text_6">
      <text style="font: 10px 'Arial', sans-serif; text-anchor: end" x="41.851283" y="94.244354" transform="rotate(-0 41.851283 94.244354)">0.6</text>
     </g>
    </g>
    <g id="ytick_6">
     <g id="line2d_6">
      <g>
       <use xlink:href="#mf992c2da3c" x="48.851283" y="48.407398" style="stroke: #000000; stroke-width: 0.8"/>
      </g>
     </g>
     <g id="text_7">
      <text style="font: 10px 'Arial', sans-serif; text-anchor: end" x="41.851283" y="51.986305" transform="rotate(-0 41.851283 51.986305)">0.8</text>
     </g>
    </g>
    <g id="text_8">
     <text style="font: 10px 'Arial', sans-serif; text-anchor: middle" x="16.005971" y="152.31998" transform="rotate(-90 16.005971 152.31998)">Activity</text>
    </g>
   </g>
   <g id="line2d_7">
    <path d="M 48.851283 67.702983 
L 60.011283 73.143628 
L 71.171283 80.763618 
L 82.331283 95.171382 
L 93.491283 109.232009 
L 104.651283 128.974887 
L 115.811283 152.63807 
L 126.971283 170.915001 
L 138.131283 185.226702 
L 149.291283 198.036062 
L 160.451283 208.520741 
L 171.611283 214.268456 
L 182.771283 214.403092 
L 193.931283 211.778547 
L 205.091283 212.706357 
L 216.251283 216.044998 
L 227.411283 223.032165 
L 238.571283 228.708218 
L 249.731283 227.566835 
L 260.891283 222.6902 
L 272.051283 222.571451 
L 283.211283 225.814487 
L 294.371283 227.159162 
L 305.531283 221.798968 
L 316.691283 221.249161 
L 327.851283 222.040616 
L 339.011283 219.742319 
L 350.171283 220.874286 
L 361.331283 222.496157 
L 372.491283 219.035951 
L 383.651283 211.371384 
L 394.811283 206.329867 
L 405.971283 209.42419 
" clip-path="url(#pc1582f9be0)" style="fill: none; stroke: #1f77b4; stroke-width: 1.5; stroke-linecap: square"/>
   </g>
   <g id="line2d_8">
    <path d="M 48.851283 179.862531 
L 60.011283 185.9571 
L 71.171283 186.844191 
L 82.331283 191.819835 
L 93.491283 201.173006 
L 104.651283 217.955256 
L 115.811283 237.337888 
L 126.971283 249.268651 
L 138.131283 250.524712 
L 149.291283 247.658266 
L 160.451283 248.624471 
L 171.611283 253.821881 
L 182.771283 258.158722 
L 193.931283 262.756593 
L 205.091283 261.142266 
L 216.251283 255.547444 
L 227.411283 252.806915 
L 238.571283 254.48402 
L 249.731283 253.351927 
L 260.891283 248.996715 
L 272.051283 244.188582 
L 283.211283 243.321336 
L 294.371283 245.474219 
L 305.531283 246.96218 
L 316.691283 248.061456 
L 327.851283 246.204394 
L 339.011283 243.429814 
L 350.171283 243.284329 
L 361.331283 244.913404 
L 372.491283 243.872404 
L 383.651283 240.559078 
L 394.811283 232.594143 
L 405.971283 229.287315 
" clip-path="url(#pc1582f9be0)" style="fill: none; stroke: #ff7f0e; stroke-width: 1.5; stroke-linecap: square"/>
   </g>
   <g id="line2d_9">
    <path d="M 82.331283 285.37598 
L 82.331283 19.26398 
" clip-path="url(#pc1582f9be0)" style="fill: none; stroke-dasharray: 5.55,2.4; stroke-dashoffset: 0; stroke: #000000; stroke-opacity: 0.5; stroke-width: 1.5"/>
   </g>
   <g id="line2d_10">
    <path d="M 383.651283 285.37598 
L 383.651283 19.26398 
" clip-path="url(#pc1582f9be0)" style="fill: none; stroke-dasharray: 5.55,2.4; stroke-dashoffset: 0; stroke: #000000; stroke-opacity: 0.5; stroke-width: 1.5"/>
   </g>
   <g id="patch_3">
    <path d="M 48.851283 285.37598 
L 405.971283 285.37598 
" style="fill: none; stroke: #000000; stroke-width: 0.8; stroke-linejoin: miter; stroke-linecap: square"/>
   </g>
   <g id="text_9">
    <text style="font: 6.94px 'Arial', sans-serif" transform="translate(10.097767 321.385533) rotate(-35)">-0.1s Sampling</text>
   </g>
   <g id="text_10">
    <text style="font: 6.94px 'Arial', sans-serif" transform="translate(57.794497 311.430872) rotate(-35)">Sampling</text>
   </g>
   <g id="text_11">
    <text style="font: 6.94px 'Arial', sans-serif" transform="translate(319.037191 339.456682) rotate(-35)">Movement to Lateral Port</text>
   </g>
   <g id="text_12">
    <text style="font: 8.33px 'Arial', sans-serif; text-anchor: middle" x="227.411283" y="13.26398" transform="rotate(-0 227.411283 13.26398)">GP4_23_s8_L50_D250_ALM - Trace:2_GP4_23_s8_L50_D250_ALM (when: correct)</text>
   </g>
   <g id="legend_1">
    <g id="patch_4">
     <path d="M 132.02261 354.133136 
L 322.799956 354.133136 
Q 324.187956 354.133136 324.187956 352.745136 
L 324.187956 343.45638 
Q 324.187956 342.06838 322.799956 342.06838 
L 132.02261 342.06838 
Q 130.63461 342.06838 130.63461 343.45638 
L 130.63461 352.745136 
Q 130.63461 354.133136 132.02261 354.133136 
z
" style="fill: #ffffff; opacity: 0.8; stroke: #cccccc; stroke-linejoin: miter"/>
    </g>
    <g id="line2d_11">
     <path d="M 133.41061 347.467483 
L 140.35061 347.467483 
L 147.29061 347.467483 
" style="fill: none; stroke: #1f77b4; stroke-width: 1.5; stroke-linecap: square"/>
    </g>
    <g id="text_13">
     <text style="font: 6.94px 'Arial', sans-serif; text-anchor: start" x="152.84261" y="349.896483" transform="rotate(-0 152.84261 349.896483)">DecisionRight (112 pts)</text>
    </g>
    <g id="line2d_12">
     <path d="M 238.337988 347.467483 
L 245.277988 347.467483 
L 252.217988 347.467483 
" style="fill: none; stroke: #ff7f0e; stroke-width: 1.5; stroke-linecap: square"/>
    </g>
    <g id="text_14">
     <text style="font: 6.94px 'Arial', sans-serif; text-anchor: start" x="257.769988" y="349.896483" transform="rotate(-0 257.769988 349.896483)">DecisionLeft (96 pts)</text>
    </g>
   </g>
  </g>
 </g>
 <defs>
  <clipPath id="pc1582f9be0">
   <rect x="48.851283" y="19.26398" width="357.12" height="266.112"/>
  </clipPath>
 </defs>
</svg>
