<?xml version="1.0" encoding="utf-8" standalone="no"?>
<!DOCTYPE svg PUBLIC "-//W3C//DTD SVG 1.1//EN"
  "http://www.w3.org/Graphics/SVG/1.1/DTD/svg11.dtd">
<svg xmlns:xlink="http://www.w3.org/1999/xlink" width="413.171283pt" height="361.333136pt" viewBox="0 0 413.171283 361.333136" xmlns="http://www.w3.org/2000/svg" version="1.1">
 <metadata>
  <rdf:RDF xmlns:dc="http://purl.org/dc/elements/1.1/" xmlns:cc="http://creativecommons.org/ns#" xmlns:rdf="http://www.w3.org/1999/02/22-rdf-syntax-ns#">
   <cc:Work>
    <dc:type rdf:resource="http://purl.org/dc/dcmitype/StillImage"/>
    <dc:date>2025-12-29T04:07:13.864189</dc:date>
    <dc:format>image/svg+xml</dc:format>
    <dc:creator>
     <cc:Agent>
      <dc:title>Matplotlib v3.8.0, https://matplotlib.org/</dc:title>
     </cc:Agent>
    </dc:creator>
   </cc:Work>
  </rdf:RDF>
 </metadata>
 <defs>
  <style type="text/css">*{stroke-linejoin: round; stroke-linecap: butt}</style>
 </defs>
 <g id="figure_1">
  <g id="patch_1">
   <path d="M 0 361.333136 
L 413.171283 361.333136 
L 413.171283 -0 
L 0 -0 
z
" style="fill: #ffffff"/>
  </g>
  <g id="axes_1">
   <g id="patch_2">
    <path d="M 48.851283 285.37598 
L 405.971283 285.37598 
L 405.971283 19.26398 
L 48.851283 19.26398 
z
" style="fill: #ffffff"/>
   </g>
   <g id="PolyCollection_1">
    <defs>
     <path id="m0ca0b9d186" d="M 48.851283 -214.619556 
L 48.851283 -145.2192 
L 60.011283 -140.787937 
L 71.171283 -132.231929 
L 82.331283 -126.055057 
L 93.491283 -118.941224 
L 104.651283 -120.60617 
L 115.811283 -119.184108 
L 126.971283 -114.920651 
L 138.131283 -112.396272 
L 149.291283 -103.835809 
L 160.451283 -93.241699 
L 171.611283 -88.053156 
L 182.771283 -95.213483 
L 193.931283 -102.046471 
L 205.091283 -106.41808 
L 216.251283 -112.269699 
L 227.411283 -114.56159 
L 238.571283 -112.145366 
L 249.731283 -112.896313 
L 260.891283 -111.099664 
L 272.051283 -105.033759 
L 283.211283 -99.683032 
L 294.371283 -99.679058 
L 305.531283 -108.016588 
L 316.691283 -119.625512 
L 327.851283 -129.085326 
L 339.011283 -129.654801 
L 350.171283 -133.520485 
L 361.331283 -156.233984 
L 372.491283 -176.921345 
L 383.651283 -196.248081 
L 394.811283 -200.608214 
L 405.971283 -205.596282 
L 405.971283 -288.968469 
L 405.971283 -288.968469 
L 394.811283 -287.1793 
L 383.651283 -284.229893 
L 372.491283 -261.336946 
L 361.331283 -237.18389 
L 350.171283 -220.440531 
L 339.011283 -224.707766 
L 327.851283 -225.952584 
L 316.691283 -213.218136 
L 305.531283 -197.769041 
L 294.371283 -190.021144 
L 283.211283 -187.734092 
L 272.051283 -191.832626 
L 260.891283 -199.243251 
L 249.731283 -203.055517 
L 238.571283 -206.353201 
L 227.411283 -213.709336 
L 216.251283 -210.163062 
L 205.091283 -197.295791 
L 193.931283 -182.280097 
L 182.771283 -169.143218 
L 171.611283 -161.08867 
L 160.451283 -165.842145 
L 149.291283 -176.660993 
L 138.131283 -187.660181 
L 126.971283 -193.602715 
L 115.811283 -199.502319 
L 104.651283 -197.517924 
L 93.491283 -191.031533 
L 82.331283 -195.972217 
L 71.171283 -200.823904 
L 60.011283 -209.591125 
L 48.851283 -214.619556 
z
" style="stroke: #1f77b4; stroke-opacity: 0.2"/>
    </defs>
    <g clip-path="url(#pca5f16dee1)">
     <use xlink:href="#m0ca0b9d186" x="0" y="361.333136" style="fill: #1f77b4; fill-opacity: 0.2; stroke: #1f77b4; stroke-opacity: 0.2"/>
    </g>
   </g>
   <g id="PolyCollection_2">
    <defs>
     <path id="mbc8f1563c3" d="M 48.851283 -305.452946 
L 48.851283 -201.253162 
L 60.011283 -207.167294 
L 71.171283 -210.249759 
L 82.331283 -210.90161 
L 93.491283 -203.747951 
L 104.651283 -197.875137 
L 115.811283 -195.726962 
L 126.971283 -196.303474 
L 138.131283 -188.189173 
L 149.291283 -174.157536 
L 160.451283 -157.820755 
L 171.611283 -140.646285 
L 182.771283 -125.621672 
L 193.931283 -128.201437 
L 205.091283 -135.925268 
L 216.251283 -140.964525 
L 227.411283 -129.631864 
L 238.571283 -114.960727 
L 249.731283 -118.846661 
L 260.891283 -126.911537 
L 272.051283 -127.285167 
L 283.211283 -128.715143 
L 294.371283 -127.229206 
L 305.531283 -114.692383 
L 316.691283 -104.243434 
L 327.851283 -104.020296 
L 339.011283 -119.864922 
L 350.171283 -139.716082 
L 361.331283 -158.201873 
L 372.491283 -186.289419 
L 383.651283 -224.813426 
L 394.811283 -232.584097 
L 405.971283 -218.702726 
L 405.971283 -319.013528 
L 405.971283 -319.013528 
L 394.811283 -329.973156 
L 383.651283 -320.364876 
L 372.491283 -274.554548 
L 361.331283 -246.282151 
L 350.171283 -226.402251 
L 339.011283 -205.600064 
L 327.851283 -191.947046 
L 316.691283 -195.906858 
L 305.531283 -209.711861 
L 294.371283 -223.200875 
L 283.211283 -222.623947 
L 272.051283 -222.713341 
L 260.891283 -227.993337 
L 249.731283 -220.99849 
L 238.571283 -212.77214 
L 227.411283 -228.821656 
L 216.251283 -240.4355 
L 205.091283 -230.403878 
L 193.931283 -218.992536 
L 182.771283 -215.323823 
L 171.611283 -232.458513 
L 160.451283 -252.760155 
L 149.291283 -273.744971 
L 138.131283 -294.174863 
L 126.971283 -308.349585 
L 115.811283 -310.679264 
L 104.651283 -309.943108 
L 93.491283 -310.694886 
L 82.331283 -316.552487 
L 71.171283 -314.480294 
L 60.011283 -309.485272 
L 48.851283 -305.452946 
z
" style="stroke: #ff7f0e; stroke-opacity: 0.2"/>
    </defs>
    <g clip-path="url(#pca5f16dee1)">
     <use xlink:href="#mbc8f1563c3" x="0" y="361.333136" style="fill: #ff7f0e; fill-opacity: 0.2; stroke: #ff7f0e; stroke-opacity: 0.2"/>
    </g>
   </g>
   <g id="matplotlib.axis_1">
    <g id="text_1">
     <text style="font: 10px 'Arial', sans-serif; text-anchor: middle" x="227.411283" y="296.533792" transform="rotate(-0 227.411283 296.533792)">Time</text>
    </g>
   </g>
   <g id="matplotlib.axis_2">
    <g id="ytick_1">
     <g id="line2d_1">
      <defs>
       <path id="mcee63a9b6f" d="M 0 0 
L -3.5 0 
" style="stroke: #000000; stroke-width: 0.8"/>
      </defs>
      <g>
       <use xlink:href="#mcee63a9b6f" x="48.851283" y="256.692126" style="stroke: #000000; stroke-width: 0.8"/>
      </g>
     </g>
     <g id="text_2">
      <text style="font: 10px 'Arial', sans-serif; text-anchor: end" x="41.851283" y="260.271033" transform="rotate(-0 41.851283 260.271033)">−0.1</text>
     </g>
    </g>
    <g id="ytick_2">
     <g id="line2d_2">
      <g>
       <use xlink:href="#mcee63a9b6f" x="48.851283" y="213.081075" style="stroke: #000000; stroke-width: 0.8"/>
      </g>
     </g>
     <g id="text_3">
      <text style="font: 10px 'Arial', sans-serif; text-anchor: end" x="41.851283" y="216.659981" transform="rotate(-0 41.851283 216.659981)">0.0</text>
     </g>
    </g>
    <g id="ytick_3">
     <g id="line2d_3">
      <g>
       <use xlink:href="#mcee63a9b6f" x="48.851283" y="169.470023" style="stroke: #000000; stroke-width: 0.8"/>
      </g>
     </g>
     <g id="text_4">
      <text style="font: 10px 'Arial', sans-serif; text-anchor: end" x="41.851283" y="173.048929" transform="rotate(-0 41.851283 173.048929)">0.1</text>
     </g>
    </g>
    <g id="ytick_4">
     <g id="line2d_4">
      <g>
       <use xlink:href="#mcee63a9b6f" x="48.851283" y="125.858971" style="stroke: #000000; stroke-width: 0.8"/>
      </g>
     </g>
     <g id="text_5">
      <text style="font: 10px 'Arial', sans-serif; text-anchor: end" x="41.851283" y="129.437877" transform="rotate(-0 41.851283 129.437877)">0.2</text>
     </g>
    </g>
    <g id="ytick_5">
     <g id="line2d_5">
      <g>
       <use xlink:href="#mcee63a9b6f" x="48.851283" y="82.247919" style="stroke: #000000; stroke-width: 0.8"/>
      </g>
     </g>
     <g id="text_6">
      <text style="font: 10px 'Arial', sans-serif; text-anchor: end" x="41.851283" y="85.826825" transform="rotate(-0 41.851283 85.826825)">0.3</text>
     </g>
    </g>
    <g id="ytick_6">
     <g id="line2d_6">
      <g>
       <use xlink:href="#mcee63a9b6f" x="48.851283" y="38.636867" style="stroke: #000000; stroke-width: 0.8"/>
      </g>
     </g>
     <g id="text_7">
      <text style="font: 10px 'Arial', sans-serif; text-anchor: end" x="41.851283" y="42.215773" transform="rotate(-0 41.851283 42.215773)">0.4</text>
     </g>
    </g>
    <g id="text_8">
     <text style="font: 10px 'Arial', sans-serif; text-anchor: middle" x="16.005971" y="152.31998" transform="rotate(-90 16.005971 152.31998)">Activity</text>
    </g>
   </g>
   <g id="line2d_7">
    <path d="M 48.851283 181.413758 
L 60.011283 186.143607 
L 71.171283 194.80522 
L 82.331283 200.319498 
L 93.491283 206.346758 
L 104.651283 202.27109 
L 115.811283 201.989922 
L 126.971283 207.071454 
L 138.131283 211.30491 
L 149.291283 221.084736 
L 160.451283 231.791213 
L 171.611283 236.762221 
L 182.771283 229.154786 
L 193.931283 219.169851 
L 205.091283 209.476199 
L 216.251283 200.116754 
L 227.411283 197.197675 
L 238.571283 202.083852 
L 249.731283 203.35722 
L 260.891283 206.161677 
L 272.051283 212.899942 
L 283.211283 217.624575 
L 294.371283 216.483035 
L 305.531283 208.440321 
L 316.691283 194.911313 
L 327.851283 183.814181 
L 339.011283 184.151852 
L 350.171283 184.352628 
L 361.331283 164.6242 
L 372.491283 142.203987 
L 383.651283 121.094152 
L 394.811283 117.439379 
L 405.971283 114.050761 
" clip-path="url(#pca5f16dee1)" style="fill: none; stroke: #1f77b4; stroke-width: 1.5; stroke-linecap: square"/>
   </g>
   <g id="line2d_8">
    <path d="M 48.851283 107.980085 
L 60.011283 103.006853 
L 71.171283 98.968106 
L 82.331283 97.606087 
L 93.491283 104.111717 
L 104.651283 107.42401 
L 115.811283 108.13002 
L 126.971283 109.00661 
L 138.131283 120.151121 
L 149.291283 137.381879 
L 160.451283 156.042682 
L 171.611283 174.780737 
L 182.771283 190.86039 
L 193.931283 187.73615 
L 205.091283 178.168563 
L 216.251283 170.633123 
L 227.411283 182.106374 
L 238.571283 197.4667 
L 249.731283 191.410562 
L 260.891283 183.880697 
L 272.051283 186.333883 
L 283.211283 185.663591 
L 294.371283 186.118097 
L 305.531283 199.131012 
L 316.691283 211.25799 
L 327.851283 213.349465 
L 339.011283 198.600644 
L 350.171283 178.273969 
L 361.331283 159.091124 
L 372.491283 130.911153 
L 383.651283 88.743984 
L 394.811283 80.054509 
L 405.971283 92.475012 
" clip-path="url(#pca5f16dee1)" style="fill: none; stroke: #ff7f0e; stroke-width: 1.5; stroke-linecap: square"/>
   </g>
   <g id="line2d_9">
    <path d="M 82.331283 285.37598 
L 82.331283 19.26398 
" clip-path="url(#pca5f16dee1)" style="fill: none; stroke-dasharray: 5.55,2.4; stroke-dashoffset: 0; stroke: #000000; stroke-opacity: 0.5; stroke-width: 1.5"/>
   </g>
   <g id="line2d_10">
    <path d="M 383.651283 285.37598 
L 383.651283 19.26398 
" clip-path="url(#pca5f16dee1)" style="fill: none; stroke-dasharray: 5.55,2.4; stroke-dashoffset: 0; stroke: #000000; stroke-opacity: 0.5; stroke-width: 1.5"/>
   </g>
   <g id="patch_3">
    <path d="M 48.851283 285.37598 
L 405.971283 285.37598 
" style="fill: none; stroke: #000000; stroke-width: 0.8; stroke-linejoin: miter; stroke-linecap: square"/>
   </g>
   <g id="text_9">
    <text style="font: 6.94px 'Arial', sans-serif" transform="translate(10.097767 321.385533) rotate(-35)">-0.1s Sampling</text>
   </g>
   <g id="text_10">
    <text style="font: 6.94px 'Arial', sans-serif" transform="translate(57.794497 311.430872) rotate(-35)">Sampling</text>
   </g>
   <g id="text_11">
    <text style="font: 6.94px 'Arial', sans-serif" transform="translate(319.037191 339.456682) rotate(-35)">Movement to Lateral Port</text>
   </g>
   <g id="text_12">
    <text style="font: 8.33px 'Arial', sans-serif; text-anchor: middle" x="227.411283" y="13.26398" transform="rotate(-0 227.411283 13.26398)">GP4_23_s8_L50_D250_ALM - Trace:32_GP4_23_s8_L50_D250_ALM (when: correct)</text>
   </g>
   <g id="legend_1">
    <g id="patch_4">
     <path d="M 132.02261 354.133136 
L 322.799956 354.133136 
Q 324.187956 354.133136 324.187956 352.745136 
L 324.187956 343.45638 
Q 324.187956 342.06838 322.799956 342.06838 
L 132.02261 342.06838 
Q 130.63461 342.06838 130.63461 343.45638 
L 130.63461 352.745136 
Q 130.63461 354.133136 132.02261 354.133136 
z
" style="fill: #ffffff; opacity: 0.8; stroke: #cccccc; stroke-linejoin: miter"/>
    </g>
    <g id="line2d_11">
     <path d="M 133.41061 347.467483 
L 140.35061 347.467483 
L 147.29061 347.467483 
" style="fill: none; stroke: #1f77b4; stroke-width: 1.5; stroke-linecap: square"/>
    </g>
    <g id="text_13">
     <text style="font: 6.94px 'Arial', sans-serif; text-anchor: start" x="152.84261" y="349.896483" transform="rotate(-0 152.84261 349.896483)">DecisionRight (112 pts)</text>
    </g>
    <g id="line2d_12">
     <path d="M 238.337988 347.467483 
L 245.277988 347.467483 
L 252.217988 347.467483 
" style="fill: none; stroke: #ff7f0e; stroke-width: 1.5; stroke-linecap: square"/>
    </g>
    <g id="text_14">
     <text style="font: 6.94px 'Arial', sans-serif; text-anchor: start" x="257.769988" y="349.896483" transform="rotate(-0 257.769988 349.896483)">DecisionLeft (96 pts)</text>
    </g>
   </g>
  </g>
 </g>
 <defs>
  <clipPath id="pca5f16dee1">
   <rect x="48.851283" y="19.26398" width="357.12" height="266.112"/>
  </clipPath>
 </defs>
</svg>
