<?xml version="1.0" encoding="utf-8" standalone="no"?>
<!DOCTYPE svg PUBLIC "-//W3C//DTD SVG 1.1//EN"
  "http://www.w3.org/Graphics/SVG/1.1/DTD/svg11.dtd">
<svg xmlns:xlink="http://www.w3.org/1999/xlink" width="413.171283pt" height="361.333136pt" viewBox="0 0 413.171283 361.333136" xmlns="http://www.w3.org/2000/svg" version="1.1">
 <metadata>
  <rdf:RDF xmlns:dc="http://purl.org/dc/elements/1.1/" xmlns:cc="http://creativecommons.org/ns#" xmlns:rdf="http://www.w3.org/1999/02/22-rdf-syntax-ns#">
   <cc:Work>
    <dc:type rdf:resource="http://purl.org/dc/dcmitype/StillImage"/>
    <dc:date>2025-12-29T04:07:14.968146</dc:date>
    <dc:format>image/svg+xml</dc:format>
    <dc:creator>
     <cc:Agent>
      <dc:title>Matplotlib v3.8.0, https://matplotlib.org/</dc:title>
     </cc:Agent>
    </dc:creator>
   </cc:Work>
  </rdf:RDF>
 </metadata>
 <defs>
  <style type="text/css">*{stroke-linejoin: round; stroke-linecap: butt}</style>
 </defs>
 <g id="figure_1">
  <g id="patch_1">
   <path d="M 0 361.333136 
L 413.171283 361.333136 
L 413.171283 -0 
L 0 -0 
z
" style="fill: #ffffff"/>
  </g>
  <g id="axes_1">
   <g id="patch_2">
    <path d="M 48.851283 285.37598 
L 405.971283 285.37598 
L 405.971283 19.26398 
L 48.851283 19.26398 
z
" style="fill: #ffffff"/>
   </g>
   <g id="PolyCollection_1">
    <defs>
     <path id="m9e7d9f1b5f" d="M 48.851283 -125.910545 
L 48.851283 -111.400474 
L 60.011283 -106.478351 
L 71.171283 -102.698051 
L 82.331283 -103.948389 
L 93.491283 -104.505505 
L 104.651283 -102.212375 
L 115.811283 -98.600292 
L 126.971283 -94.694327 
L 138.131283 -90.694401 
L 149.291283 -88.053156 
L 160.451283 -88.535112 
L 171.611283 -92.022717 
L 182.771283 -92.703803 
L 193.931283 -91.057154 
L 205.091283 -89.538694 
L 216.251283 -90.540204 
L 227.411283 -94.498625 
L 238.571283 -100.666851 
L 249.731283 -106.798738 
L 260.891283 -114.457447 
L 272.051283 -122.865403 
L 283.211283 -130.839192 
L 294.371283 -138.507722 
L 305.531283 -147.45289 
L 316.691283 -158.396085 
L 327.851283 -170.152528 
L 339.011283 -180.881192 
L 350.171283 -188.144928 
L 361.331283 -193.647301 
L 372.491283 -196.889328 
L 383.651283 -199.72672 
L 394.811283 -198.724852 
L 405.971283 -191.783317 
L 405.971283 -218.953229 
L 405.971283 -218.953229 
L 394.811283 -227.254679 
L 383.651283 -229.322479 
L 372.491283 -226.232853 
L 361.331283 -222.17803 
L 350.171283 -215.588764 
L 339.011283 -206.856663 
L 327.851283 -194.548739 
L 316.691283 -181.238359 
L 305.531283 -168.822692 
L 294.371283 -158.889035 
L 283.211283 -150.462774 
L 272.051283 -141.192883 
L 260.891283 -131.280033 
L 249.731283 -121.749354 
L 238.571283 -113.916175 
L 227.411283 -106.726179 
L 216.251283 -102.534166 
L 205.091283 -101.283543 
L 193.931283 -101.552534 
L 182.771283 -102.394042 
L 171.611283 -102.16952 
L 160.451283 -99.545874 
L 149.291283 -99.611754 
L 138.131283 -103.06024 
L 126.971283 -107.864548 
L 115.811283 -112.145512 
L 104.651283 -115.59803 
L 93.491283 -117.940836 
L 82.331283 -117.442062 
L 71.171283 -116.089935 
L 60.011283 -120.296567 
L 48.851283 -125.910545 
z
" style="stroke: #1f77b4; stroke-opacity: 0.2"/>
    </defs>
    <g clip-path="url(#p43104f4743)">
     <use xlink:href="#m9e7d9f1b5f" x="0" y="361.333136" style="fill: #1f77b4; fill-opacity: 0.2; stroke: #1f77b4; stroke-opacity: 0.2"/>
    </g>
   </g>
   <g id="PolyCollection_2">
    <defs>
     <path id="m5b6593353e" d="M 48.851283 -110.700679 
L 48.851283 -101.997194 
L 60.011283 -102.226279 
L 71.171283 -102.297769 
L 82.331283 -98.765968 
L 93.491283 -94.601712 
L 104.651283 -91.680607 
L 115.811283 -89.470332 
L 126.971283 -88.634503 
L 138.131283 -89.33494 
L 149.291283 -91.391275 
L 160.451283 -93.11026 
L 171.611283 -93.555209 
L 182.771283 -95.334949 
L 193.931283 -99.99513 
L 205.091283 -106.711805 
L 216.251283 -112.967713 
L 227.411283 -120.441659 
L 238.571283 -130.102493 
L 249.731283 -141.843029 
L 260.891283 -157.551944 
L 272.051283 -173.459125 
L 283.211283 -187.360047 
L 294.371283 -203.141697 
L 305.531283 -220.481443 
L 316.691283 -238.637857 
L 327.851283 -257.231354 
L 339.011283 -275.004772 
L 350.171283 -288.499529 
L 361.331283 -291.95465 
L 372.491283 -289.661571 
L 383.651283 -281.857406 
L 394.811283 -270.585219 
L 405.971283 -262.821887 
L 405.971283 -297.641619 
L 405.971283 -297.641619 
L 394.811283 -306.249878 
L 383.651283 -318.818154 
L 372.491283 -327.527049 
L 361.331283 -329.973156 
L 350.171283 -326.473578 
L 339.011283 -312.217942 
L 327.851283 -292.564456 
L 316.691283 -271.54357 
L 305.531283 -251.898584 
L 294.371283 -233.34809 
L 283.211283 -216.82972 
L 272.051283 -202.149947 
L 260.891283 -184.152933 
L 249.731283 -164.710327 
L 238.571283 -149.937694 
L 227.411283 -137.40418 
L 216.251283 -127.839684 
L 205.091283 -120.039581 
L 193.931283 -111.98409 
L 182.771283 -107.321495 
L 171.611283 -105.016738 
L 160.451283 -103.710889 
L 149.291283 -101.491246 
L 138.131283 -100.008234 
L 126.971283 -99.211907 
L 115.811283 -99.856168 
L 104.651283 -102.674983 
L 93.491283 -105.758037 
L 82.331283 -109.969808 
L 71.171283 -112.763078 
L 60.011283 -111.990481 
L 48.851283 -110.700679 
z
" style="stroke: #ff7f0e; stroke-opacity: 0.2"/>
    </defs>
    <g clip-path="url(#p43104f4743)">
     <use xlink:href="#m5b6593353e" x="0" y="361.333136" style="fill: #ff7f0e; fill-opacity: 0.2; stroke: #ff7f0e; stroke-opacity: 0.2"/>
    </g>
   </g>
   <g id="matplotlib.axis_1">
    <g id="text_1">
     <text style="font: 10px 'Arial', sans-serif; text-anchor: middle" x="227.411283" y="296.533792" transform="rotate(-0 227.411283 296.533792)">Time</text>
    </g>
   </g>
   <g id="matplotlib.axis_2">
    <g id="ytick_1">
     <g id="line2d_1">
      <defs>
       <path id="mc0b14f33ed" d="M 0 0 
L -3.5 0 
" style="stroke: #000000; stroke-width: 0.8"/>
      </defs>
      <g>
       <use xlink:href="#mc0b14f33ed" x="48.851283" y="273.77645" style="stroke: #000000; stroke-width: 0.8"/>
      </g>
     </g>
     <g id="text_2">
      <text style="font: 10px 'Arial', sans-serif; text-anchor: end" x="41.851283" y="277.355356" transform="rotate(-0 41.851283 277.355356)">−0.5</text>
     </g>
    </g>
    <g id="ytick_2">
     <g id="line2d_2">
      <g>
       <use xlink:href="#mc0b14f33ed" x="48.851283" y="221.191901" style="stroke: #000000; stroke-width: 0.8"/>
      </g>
     </g>
     <g id="text_3">
      <text style="font: 10px 'Arial', sans-serif; text-anchor: end" x="41.851283" y="224.770807" transform="rotate(-0 41.851283 224.770807)">0.0</text>
     </g>
    </g>
    <g id="ytick_3">
     <g id="line2d_3">
      <g>
       <use xlink:href="#mc0b14f33ed" x="48.851283" y="168.607352" style="stroke: #000000; stroke-width: 0.8"/>
      </g>
     </g>
     <g id="text_4">
      <text style="font: 10px 'Arial', sans-serif; text-anchor: end" x="41.851283" y="172.186258" transform="rotate(-0 41.851283 172.186258)">0.5</text>
     </g>
    </g>
    <g id="ytick_4">
     <g id="line2d_4">
      <g>
       <use xlink:href="#mc0b14f33ed" x="48.851283" y="116.022803" style="stroke: #000000; stroke-width: 0.8"/>
      </g>
     </g>
     <g id="text_5">
      <text style="font: 10px 'Arial', sans-serif; text-anchor: end" x="41.851283" y="119.601709" transform="rotate(-0 41.851283 119.601709)">1.0</text>
     </g>
    </g>
    <g id="ytick_5">
     <g id="line2d_5">
      <g>
       <use xlink:href="#mc0b14f33ed" x="48.851283" y="63.438254" style="stroke: #000000; stroke-width: 0.8"/>
      </g>
     </g>
     <g id="text_6">
      <text style="font: 10px 'Arial', sans-serif; text-anchor: end" x="41.851283" y="67.01716" transform="rotate(-0 41.851283 67.01716)">1.5</text>
     </g>
    </g>
    <g id="text_7">
     <text style="font: 10px 'Arial', sans-serif; text-anchor: middle" x="16.005971" y="152.31998" transform="rotate(-90 16.005971 152.31998)">Activity</text>
    </g>
   </g>
   <g id="line2d_6">
    <path d="M 48.851283 242.677627 
L 60.011283 247.945677 
L 71.171283 251.939143 
L 82.331283 250.63791 
L 93.491283 250.109965 
L 104.651283 252.427934 
L 115.811283 255.960234 
L 126.971283 260.053699 
L 138.131283 264.455815 
L 149.291283 267.500681 
L 160.451283 267.292643 
L 171.611283 264.237017 
L 182.771283 263.784214 
L 193.931283 265.028292 
L 205.091283 265.922018 
L 216.251283 264.795951 
L 227.411283 260.720734 
L 238.571283 254.041623 
L 249.731283 247.05909 
L 260.891283 238.464396 
L 272.051283 229.303993 
L 283.211283 220.682153 
L 294.371283 212.634757 
L 305.531283 203.195344 
L 316.691283 191.515914 
L 327.851283 178.982504 
L 339.011283 167.46421 
L 350.171283 159.46629 
L 361.331283 153.42047 
L 372.491283 149.772046 
L 383.651283 146.808537 
L 394.811283 148.34337 
L 405.971283 155.964863 
" clip-path="url(#p43104f4743)" style="fill: none; stroke: #1f77b4; stroke-width: 1.5; stroke-linecap: square"/>
   </g>
   <g id="line2d_7">
    <path d="M 48.851283 254.984199 
L 60.011283 254.224756 
L 71.171283 253.802712 
L 82.331283 256.965248 
L 93.491283 261.153262 
L 104.651283 264.155341 
L 115.811283 266.669886 
L 126.971283 267.409931 
L 138.131283 266.661549 
L 149.291283 264.891876 
L 160.451283 262.922562 
L 171.611283 262.047163 
L 182.771283 260.004914 
L 193.931283 255.343526 
L 205.091283 247.957443 
L 216.251283 240.929438 
L 227.411283 232.410217 
L 238.571283 221.313042 
L 249.731283 208.056458 
L 260.891283 190.480698 
L 272.051283 173.5286 
L 283.211283 159.238252 
L 294.371283 143.088243 
L 305.531283 125.143123 
L 316.691283 106.242422 
L 327.851283 86.435231 
L 339.011283 67.721779 
L 350.171283 53.846582 
L 361.331283 50.369233 
L 372.491283 52.738826 
L 383.651283 60.995356 
L 394.811283 72.915587 
L 405.971283 81.101383 
" clip-path="url(#p43104f4743)" style="fill: none; stroke: #ff7f0e; stroke-width: 1.5; stroke-linecap: square"/>
   </g>
   <g id="line2d_8">
    <path d="M 82.331283 285.37598 
L 82.331283 19.26398 
" clip-path="url(#p43104f4743)" style="fill: none; stroke-dasharray: 5.55,2.4; stroke-dashoffset: 0; stroke: #000000; stroke-opacity: 0.5; stroke-width: 1.5"/>
   </g>
   <g id="line2d_9">
    <path d="M 383.651283 285.37598 
L 383.651283 19.26398 
" clip-path="url(#p43104f4743)" style="fill: none; stroke-dasharray: 5.55,2.4; stroke-dashoffset: 0; stroke: #000000; stroke-opacity: 0.5; stroke-width: 1.5"/>
   </g>
   <g id="patch_3">
    <path d="M 48.851283 285.37598 
L 405.971283 285.37598 
" style="fill: none; stroke: #000000; stroke-width: 0.8; stroke-linejoin: miter; stroke-linecap: square"/>
   </g>
   <g id="text_8">
    <text style="font: 6.94px 'Arial', sans-serif" transform="translate(10.097767 321.385533) rotate(-35)">-0.1s Sampling</text>
   </g>
   <g id="text_9">
    <text style="font: 6.94px 'Arial', sans-serif" transform="translate(57.794497 311.430872) rotate(-35)">Sampling</text>
   </g>
   <g id="text_10">
    <text style="font: 6.94px 'Arial', sans-serif" transform="translate(319.037191 339.456682) rotate(-35)">Movement to Lateral Port</text>
   </g>
   <g id="text_11">
    <text style="font: 8.33px 'Arial', sans-serif; text-anchor: middle" x="227.411283" y="13.26398" transform="rotate(-0 227.411283 13.26398)">GP4_23_s8_L50_D250_ALM - Trace:41_GP4_23_s8_L50_D250_ALM (when: correct)</text>
   </g>
   <g id="legend_1">
    <g id="patch_4">
     <path d="M 132.02261 354.133136 
L 322.799956 354.133136 
Q 324.187956 354.133136 324.187956 352.745136 
L 324.187956 343.45638 
Q 324.187956 342.06838 322.799956 342.06838 
L 132.02261 342.06838 
Q 130.63461 342.06838 130.63461 343.45638 
L 130.63461 352.745136 
Q 130.63461 354.133136 132.02261 354.133136 
z
" style="fill: #ffffff; opacity: 0.8; stroke: #cccccc; stroke-linejoin: miter"/>
    </g>
    <g id="line2d_10">
     <path d="M 133.41061 347.467483 
L 140.35061 347.467483 
L 147.29061 347.467483 
" style="fill: none; stroke: #1f77b4; stroke-width: 1.5; stroke-linecap: square"/>
    </g>
    <g id="text_12">
     <text style="font: 6.94px 'Arial', sans-serif; text-anchor: start" x="152.84261" y="349.896483" transform="rotate(-0 152.84261 349.896483)">DecisionRight (112 pts)</text>
    </g>
    <g id="line2d_11">
     <path d="M 238.337988 347.467483 
L 245.277988 347.467483 
L 252.217988 347.467483 
" style="fill: none; stroke: #ff7f0e; stroke-width: 1.5; stroke-linecap: square"/>
    </g>
    <g id="text_13">
     <text style="font: 6.94px 'Arial', sans-serif; text-anchor: start" x="257.769988" y="349.896483" transform="rotate(-0 257.769988 349.896483)">DecisionLeft (96 pts)</text>
    </g>
   </g>
  </g>
 </g>
 <defs>
  <clipPath id="p43104f4743">
   <rect x="48.851283" y="19.26398" width="357.12" height="266.112"/>
  </clipPath>
 </defs>
</svg>
