<?xml version="1.0" encoding="utf-8" standalone="no"?>
<!DOCTYPE svg PUBLIC "-//W3C//DTD SVG 1.1//EN"
  "http://www.w3.org/Graphics/SVG/1.1/DTD/svg11.dtd">
<svg xmlns:xlink="http://www.w3.org/1999/xlink" width="413.171283pt" height="361.333136pt" viewBox="0 0 413.171283 361.333136" xmlns="http://www.w3.org/2000/svg" version="1.1">
 <metadata>
  <rdf:RDF xmlns:dc="http://purl.org/dc/elements/1.1/" xmlns:cc="http://creativecommons.org/ns#" xmlns:rdf="http://www.w3.org/1999/02/22-rdf-syntax-ns#">
   <cc:Work>
    <dc:type rdf:resource="http://purl.org/dc/dcmitype/StillImage"/>
    <dc:date>2025-12-29T04:07:12.168272</dc:date>
    <dc:format>image/svg+xml</dc:format>
    <dc:creator>
     <cc:Agent>
      <dc:title>Matplotlib v3.8.0, https://matplotlib.org/</dc:title>
     </cc:Agent>
    </dc:creator>
   </cc:Work>
  </rdf:RDF>
 </metadata>
 <defs>
  <style type="text/css">*{stroke-linejoin: round; stroke-linecap: butt}</style>
 </defs>
 <g id="figure_1">
  <g id="patch_1">
   <path d="M 0 361.333136 
L 413.171283 361.333136 
L 413.171283 -0 
L 0 -0 
z
" style="fill: #ffffff"/>
  </g>
  <g id="axes_1">
   <g id="patch_2">
    <path d="M 48.851283 285.37598 
L 405.971283 285.37598 
L 405.971283 19.26398 
L 48.851283 19.26398 
z
" style="fill: #ffffff"/>
   </g>
   <g id="PolyCollection_1">
    <defs>
     <path id="m6aecf4e872" d="M 48.851283 -329.172065 
L 48.851283 -262.838105 
L 60.011283 -256.008177 
L 71.171283 -260.716165 
L 82.331283 -264.702484 
L 93.491283 -258.68658 
L 104.651283 -245.844078 
L 115.811283 -232.539876 
L 126.971283 -226.584269 
L 138.131283 -230.084326 
L 149.291283 -236.471334 
L 160.451283 -237.052403 
L 171.611283 -219.473146 
L 182.771283 -202.935868 
L 193.931283 -204.39686 
L 205.091283 -206.021572 
L 216.251283 -197.987473 
L 227.411283 -190.369085 
L 238.571283 -189.635932 
L 249.731283 -189.614439 
L 260.891283 -192.467477 
L 272.051283 -187.022182 
L 283.211283 -175.993614 
L 294.371283 -164.396159 
L 305.531283 -162.220126 
L 316.691283 -167.402825 
L 327.851283 -168.720382 
L 339.011283 -165.558647 
L 350.171283 -158.540811 
L 361.331283 -157.114088 
L 372.491283 -162.131711 
L 383.651283 -190.491227 
L 394.811283 -227.710537 
L 405.971283 -246.550419 
L 405.971283 -289.256084 
L 405.971283 -289.256084 
L 394.811283 -266.425383 
L 383.651283 -223.809044 
L 372.491283 -191.534575 
L 361.331283 -185.431172 
L 350.171283 -188.006748 
L 339.011283 -197.254654 
L 327.851283 -201.394249 
L 316.691283 -200.987371 
L 305.531283 -195.505093 
L 294.371283 -199.142297 
L 283.211283 -216.001717 
L 272.051283 -230.262108 
L 260.891283 -236.375325 
L 249.731283 -235.5827 
L 238.571283 -236.603524 
L 227.411283 -236.12458 
L 216.251283 -241.704783 
L 205.091283 -249.556349 
L 193.931283 -249.873796 
L 182.771283 -251.517606 
L 171.611283 -271.065588 
L 160.451283 -293.848546 
L 149.291283 -296.531683 
L 138.131283 -288.506979 
L 126.971283 -283.40191 
L 115.811283 -289.717338 
L 104.651283 -305.395629 
L 93.491283 -321.919602 
L 82.331283 -329.973156 
L 71.171283 -322.89333 
L 60.011283 -317.703079 
L 48.851283 -329.172065 
z
" style="stroke: #1f77b4; stroke-opacity: 0.2"/>
    </defs>
    <g clip-path="url(#p9debb2ed99)">
     <use xlink:href="#m6aecf4e872" x="0" y="361.333136" style="fill: #1f77b4; fill-opacity: 0.2; stroke: #1f77b4; stroke-opacity: 0.2"/>
    </g>
   </g>
   <g id="PolyCollection_2">
    <defs>
     <path id="mbc63cf5d95" d="M 48.851283 -195.327288 
L 48.851283 -145.059884 
L 60.011283 -153.01854 
L 71.171283 -159.30915 
L 82.331283 -159.797637 
L 93.491283 -160.820219 
L 104.651283 -157.643426 
L 115.811283 -145.6246 
L 126.971283 -137.793101 
L 138.131283 -138.750409 
L 149.291283 -138.912133 
L 160.451283 -133.422079 
L 171.611283 -115.140668 
L 182.771283 -102.556185 
L 193.931283 -104.587781 
L 205.091283 -103.114126 
L 216.251283 -96.745876 
L 227.411283 -88.053156 
L 238.571283 -92.819867 
L 249.731283 -109.152839 
L 260.891283 -125.033518 
L 272.051283 -127.258075 
L 283.211283 -120.15835 
L 294.371283 -113.583632 
L 305.531283 -111.974842 
L 316.691283 -112.138531 
L 327.851283 -108.834545 
L 339.011283 -110.283548 
L 350.171283 -110.714471 
L 361.331283 -110.417075 
L 372.491283 -111.496485 
L 383.651283 -124.15149 
L 394.811283 -136.122763 
L 405.971283 -145.511435 
L 405.971283 -180.31517 
L 405.971283 -180.31517 
L 394.811283 -171.143144 
L 383.651283 -156.05886 
L 372.491283 -142.359517 
L 361.331283 -141.922817 
L 350.171283 -141.979157 
L 339.011283 -140.527697 
L 327.851283 -138.376276 
L 316.691283 -142.578352 
L 305.531283 -142.815715 
L 294.371283 -143.639123 
L 283.211283 -152.763256 
L 272.051283 -157.84146 
L 260.891283 -153.492015 
L 249.731283 -140.443201 
L 238.571283 -126.698224 
L 227.411283 -122.899163 
L 216.251283 -132.516021 
L 205.091283 -139.328023 
L 193.931283 -140.382326 
L 182.771283 -138.578694 
L 171.611283 -155.157705 
L 160.451283 -178.722656 
L 149.291283 -183.017917 
L 138.131283 -181.469092 
L 126.971283 -179.337265 
L 115.811283 -185.147199 
L 104.651283 -202.293561 
L 93.491283 -210.674025 
L 82.331283 -210.766096 
L 71.171283 -209.227123 
L 60.011283 -202.668158 
L 48.851283 -195.327288 
z
" style="stroke: #ff7f0e; stroke-opacity: 0.2"/>
    </defs>
    <g clip-path="url(#p9debb2ed99)">
     <use xlink:href="#mbc63cf5d95" x="0" y="361.333136" style="fill: #ff7f0e; fill-opacity: 0.2; stroke: #ff7f0e; stroke-opacity: 0.2"/>
    </g>
   </g>
   <g id="matplotlib.axis_1">
    <g id="text_1">
     <text style="font: 10px 'Arial', sans-serif; text-anchor: middle" x="227.411283" y="296.533792" transform="rotate(-0 227.411283 296.533792)">Time</text>
    </g>
   </g>
   <g id="matplotlib.axis_2">
    <g id="ytick_1">
     <g id="line2d_1">
      <defs>
       <path id="m9fbe3e5657" d="M 0 0 
L -3.5 0 
" style="stroke: #000000; stroke-width: 0.8"/>
      </defs>
      <g>
       <use xlink:href="#m9fbe3e5657" x="48.851283" y="272.532384" style="stroke: #000000; stroke-width: 0.8"/>
      </g>
     </g>
     <g id="text_2">
      <text style="font: 10px 'Arial', sans-serif; text-anchor: end" x="41.851283" y="276.11129" transform="rotate(-0 41.851283 276.11129)">−0.2</text>
     </g>
    </g>
    <g id="ytick_2">
     <g id="line2d_2">
      <g>
       <use xlink:href="#m9fbe3e5657" x="48.851283" y="235.155217" style="stroke: #000000; stroke-width: 0.8"/>
      </g>
     </g>
     <g id="text_3">
      <text style="font: 10px 'Arial', sans-serif; text-anchor: end" x="41.851283" y="238.734123" transform="rotate(-0 41.851283 238.734123)">0.0</text>
     </g>
    </g>
    <g id="ytick_3">
     <g id="line2d_3">
      <g>
       <use xlink:href="#m9fbe3e5657" x="48.851283" y="197.77805" style="stroke: #000000; stroke-width: 0.8"/>
      </g>
     </g>
     <g id="text_4">
      <text style="font: 10px 'Arial', sans-serif; text-anchor: end" x="41.851283" y="201.356956" transform="rotate(-0 41.851283 201.356956)">0.2</text>
     </g>
    </g>
    <g id="ytick_4">
     <g id="line2d_4">
      <g>
       <use xlink:href="#m9fbe3e5657" x="48.851283" y="160.400883" style="stroke: #000000; stroke-width: 0.8"/>
      </g>
     </g>
     <g id="text_5">
      <text style="font: 10px 'Arial', sans-serif; text-anchor: end" x="41.851283" y="163.979789" transform="rotate(-0 41.851283 163.979789)">0.4</text>
     </g>
    </g>
    <g id="ytick_5">
     <g id="line2d_5">
      <g>
       <use xlink:href="#m9fbe3e5657" x="48.851283" y="123.023716" style="stroke: #000000; stroke-width: 0.8"/>
      </g>
     </g>
     <g id="text_6">
      <text style="font: 10px 'Arial', sans-serif; text-anchor: end" x="41.851283" y="126.602622" transform="rotate(-0 41.851283 126.602622)">0.6</text>
     </g>
    </g>
    <g id="ytick_6">
     <g id="line2d_6">
      <g>
       <use xlink:href="#m9fbe3e5657" x="48.851283" y="85.646549" style="stroke: #000000; stroke-width: 0.8"/>
      </g>
     </g>
     <g id="text_7">
      <text style="font: 10px 'Arial', sans-serif; text-anchor: end" x="41.851283" y="89.225455" transform="rotate(-0 41.851283 89.225455)">0.8</text>
     </g>
    </g>
    <g id="ytick_7">
     <g id="line2d_7">
      <g>
       <use xlink:href="#m9fbe3e5657" x="48.851283" y="48.269382" style="stroke: #000000; stroke-width: 0.8"/>
      </g>
     </g>
     <g id="text_8">
      <text style="font: 10px 'Arial', sans-serif; text-anchor: end" x="41.851283" y="51.848288" transform="rotate(-0 41.851283 51.848288)">1.0</text>
     </g>
    </g>
    <g id="text_9">
     <text style="font: 10px 'Arial', sans-serif; text-anchor: middle" x="16.005971" y="152.31998" transform="rotate(-90 16.005971 152.31998)">Activity</text>
    </g>
   </g>
   <g id="line2d_8">
    <path d="M 48.851283 65.328051 
L 60.011283 74.477508 
L 71.171283 69.528389 
L 82.331283 63.995316 
L 93.491283 71.030051 
L 104.651283 85.713282 
L 115.811283 100.204529 
L 126.971283 106.340046 
L 138.131283 102.037483 
L 149.291283 94.831627 
L 160.451283 95.882661 
L 171.611283 116.063766 
L 182.771283 134.106399 
L 193.931283 134.197808 
L 205.091283 133.544178 
L 216.251283 141.487008 
L 227.411283 148.086303 
L 238.571283 148.213408 
L 249.731283 148.734564 
L 260.891283 146.911735 
L 272.051283 152.690991 
L 283.211283 165.33547 
L 294.371283 179.563908 
L 305.531283 182.470526 
L 316.691283 177.138038 
L 327.851283 176.27582 
L 339.011283 179.926485 
L 350.171283 188.059357 
L 361.331283 190.060506 
L 372.491283 184.499994 
L 383.651283 154.183001 
L 394.811283 114.265176 
L 405.971283 93.429885 
" clip-path="url(#p9debb2ed99)" style="fill: none; stroke: #1f77b4; stroke-width: 1.5; stroke-linecap: square"/>
   </g>
   <g id="line2d_9">
    <path d="M 48.851283 191.13955 
L 60.011283 183.489786 
L 71.171283 177.064998 
L 82.331283 176.051269 
L 93.491283 175.586016 
L 104.651283 181.364642 
L 115.811283 195.947236 
L 126.971283 202.767952 
L 138.131283 201.223385 
L 149.291283 200.368109 
L 160.451283 205.260769 
L 171.611283 226.18395 
L 182.771283 240.765695 
L 193.931283 238.848082 
L 205.091283 240.112061 
L 216.251283 246.702187 
L 227.411283 255.856976 
L 238.571283 251.574091 
L 249.731283 236.535116 
L 260.891283 222.07037 
L 272.051283 218.783368 
L 283.211283 224.872332 
L 294.371283 232.721759 
L 305.531283 233.937857 
L 316.691283 233.974694 
L 327.851283 237.727726 
L 339.011283 235.927513 
L 350.171283 234.986322 
L 361.331283 235.163191 
L 372.491283 234.405136 
L 383.651283 221.22796 
L 394.811283 207.700182 
L 405.971283 198.419833 
" clip-path="url(#p9debb2ed99)" style="fill: none; stroke: #ff7f0e; stroke-width: 1.5; stroke-linecap: square"/>
   </g>
   <g id="line2d_10">
    <path d="M 82.331283 285.37598 
L 82.331283 19.26398 
" clip-path="url(#p9debb2ed99)" style="fill: none; stroke-dasharray: 5.55,2.4; stroke-dashoffset: 0; stroke: #000000; stroke-opacity: 0.5; stroke-width: 1.5"/>
   </g>
   <g id="line2d_11">
    <path d="M 383.651283 285.37598 
L 383.651283 19.26398 
" clip-path="url(#p9debb2ed99)" style="fill: none; stroke-dasharray: 5.55,2.4; stroke-dashoffset: 0; stroke: #000000; stroke-opacity: 0.5; stroke-width: 1.5"/>
   </g>
   <g id="patch_3">
    <path d="M 48.851283 285.37598 
L 405.971283 285.37598 
" style="fill: none; stroke: #000000; stroke-width: 0.8; stroke-linejoin: miter; stroke-linecap: square"/>
   </g>
   <g id="text_10">
    <text style="font: 6.94px 'Arial', sans-serif" transform="translate(10.097767 321.385533) rotate(-35)">-0.1s Sampling</text>
   </g>
   <g id="text_11">
    <text style="font: 6.94px 'Arial', sans-serif" transform="translate(57.794497 311.430872) rotate(-35)">Sampling</text>
   </g>
   <g id="text_12">
    <text style="font: 6.94px 'Arial', sans-serif" transform="translate(319.037191 339.456682) rotate(-35)">Movement to Lateral Port</text>
   </g>
   <g id="text_13">
    <text style="font: 8.33px 'Arial', sans-serif; text-anchor: middle" x="227.411283" y="13.26398" transform="rotate(-0 227.411283 13.26398)">GP4_23_s8_L50_D250_ALM - Trace:466_GP4_23_s8_L50_D250_ALM (when: correct)</text>
   </g>
   <g id="legend_1">
    <g id="patch_4">
     <path d="M 132.02261 354.133136 
L 322.799956 354.133136 
Q 324.187956 354.133136 324.187956 352.745136 
L 324.187956 343.45638 
Q 324.187956 342.06838 322.799956 342.06838 
L 132.02261 342.06838 
Q 130.63461 342.06838 130.63461 343.45638 
L 130.63461 352.745136 
Q 130.63461 354.133136 132.02261 354.133136 
z
" style="fill: #ffffff; opacity: 0.8; stroke: #cccccc; stroke-linejoin: miter"/>
    </g>
    <g id="line2d_12">
     <path d="M 133.41061 347.467483 
L 140.35061 347.467483 
L 147.29061 347.467483 
" style="fill: none; stroke: #1f77b4; stroke-width: 1.5; stroke-linecap: square"/>
    </g>
    <g id="text_14">
     <text style="font: 6.94px 'Arial', sans-serif; text-anchor: start" x="152.84261" y="349.896483" transform="rotate(-0 152.84261 349.896483)">DecisionRight (112 pts)</text>
    </g>
    <g id="line2d_13">
     <path d="M 238.337988 347.467483 
L 245.277988 347.467483 
L 252.217988 347.467483 
" style="fill: none; stroke: #ff7f0e; stroke-width: 1.5; stroke-linecap: square"/>
    </g>
    <g id="text_15">
     <text style="font: 6.94px 'Arial', sans-serif; text-anchor: start" x="257.769988" y="349.896483" transform="rotate(-0 257.769988 349.896483)">DecisionLeft (96 pts)</text>
    </g>
   </g>
  </g>
 </g>
 <defs>
  <clipPath id="p9debb2ed99">
   <rect x="48.851283" y="19.26398" width="357.12" height="266.112"/>
  </clipPath>
 </defs>
</svg>
