<?xml version="1.0" encoding="utf-8" standalone="no"?>
<!DOCTYPE svg PUBLIC "-//W3C//DTD SVG 1.1//EN"
  "http://www.w3.org/Graphics/SVG/1.1/DTD/svg11.dtd">
<svg xmlns:xlink="http://www.w3.org/1999/xlink" width="413.171283pt" height="361.333136pt" viewBox="0 0 413.171283 361.333136" xmlns="http://www.w3.org/2000/svg" version="1.1">
 <metadata>
  <rdf:RDF xmlns:dc="http://purl.org/dc/elements/1.1/" xmlns:cc="http://creativecommons.org/ns#" xmlns:rdf="http://www.w3.org/1999/02/22-rdf-syntax-ns#">
   <cc:Work>
    <dc:type rdf:resource="http://purl.org/dc/dcmitype/StillImage"/>
    <dc:date>2025-12-29T04:07:14.924956</dc:date>
    <dc:format>image/svg+xml</dc:format>
    <dc:creator>
     <cc:Agent>
      <dc:title>Matplotlib v3.8.0, https://matplotlib.org/</dc:title>
     </cc:Agent>
    </dc:creator>
   </cc:Work>
  </rdf:RDF>
 </metadata>
 <defs>
  <style type="text/css">*{stroke-linejoin: round; stroke-linecap: butt}</style>
 </defs>
 <g id="figure_1">
  <g id="patch_1">
   <path d="M 0 361.333136 
L 413.171283 361.333136 
L 413.171283 -0 
L 0 -0 
z
" style="fill: #ffffff"/>
  </g>
  <g id="axes_1">
   <g id="patch_2">
    <path d="M 48.851283 285.37598 
L 405.971283 285.37598 
L 405.971283 19.26398 
L 48.851283 19.26398 
z
" style="fill: #ffffff"/>
   </g>
   <g id="PolyCollection_1">
    <defs>
     <path id="mbbd31dd0e2" d="M 48.851283 -167.219776 
L 48.851283 -128.180428 
L 60.011283 -119.149115 
L 71.171283 -111.465491 
L 82.331283 -105.661644 
L 93.491283 -101.084959 
L 104.651283 -96.380543 
L 115.811283 -89.34939 
L 126.971283 -88.053156 
L 138.131283 -92.632915 
L 149.291283 -98.59678 
L 160.451283 -98.26394 
L 171.611283 -100.778239 
L 182.771283 -108.678638 
L 193.931283 -114.682379 
L 205.091283 -115.371588 
L 216.251283 -112.904116 
L 227.411283 -111.677467 
L 238.571283 -114.980377 
L 249.731283 -120.680964 
L 260.891283 -123.877197 
L 272.051283 -128.741236 
L 283.211283 -137.394209 
L 294.371283 -144.560403 
L 305.531283 -148.057644 
L 316.691283 -149.662746 
L 327.851283 -152.943669 
L 339.011283 -156.311442 
L 350.171283 -160.575278 
L 361.331283 -162.509179 
L 372.491283 -167.436253 
L 383.651283 -187.541554 
L 394.811283 -207.226734 
L 405.971283 -213.946191 
L 405.971283 -257.759916 
L 405.971283 -257.759916 
L 394.811283 -250.165131 
L 383.651283 -228.383916 
L 372.491283 -204.513803 
L 361.331283 -198.090839 
L 350.171283 -195.083076 
L 339.011283 -189.739091 
L 327.851283 -183.195711 
L 316.691283 -175.373065 
L 305.531283 -171.995706 
L 294.371283 -169.518441 
L 283.211283 -163.295164 
L 272.051283 -154.12265 
L 260.891283 -149.397813 
L 249.731283 -144.740251 
L 238.571283 -137.332603 
L 227.411283 -134.759105 
L 216.251283 -136.590678 
L 205.091283 -138.968559 
L 193.931283 -138.213386 
L 182.771283 -130.150826 
L 171.611283 -121.398249 
L 160.451283 -118.701964 
L 149.291283 -118.905218 
L 138.131283 -113.353481 
L 126.971283 -108.94145 
L 115.811283 -111.609949 
L 104.651283 -122.393372 
L 93.491283 -131.186486 
L 82.331283 -137.761761 
L 71.171283 -145.902484 
L 60.011283 -155.351545 
L 48.851283 -167.219776 
z
" style="stroke: #1f77b4; stroke-opacity: 0.2"/>
    </defs>
    <g clip-path="url(#p0a0ad58ce4)">
     <use xlink:href="#mbbd31dd0e2" x="0" y="361.333136" style="fill: #1f77b4; fill-opacity: 0.2; stroke: #1f77b4; stroke-opacity: 0.2"/>
    </g>
   </g>
   <g id="PolyCollection_2">
    <defs>
     <path id="mab189ccfc0" d="M 48.851283 -329.973156 
L 48.851283 -229.875722 
L 60.011283 -219.575097 
L 71.171283 -207.957147 
L 82.331283 -191.61064 
L 93.491283 -179.963904 
L 104.651283 -165.663743 
L 115.811283 -152.296119 
L 126.971283 -136.887534 
L 138.131283 -123.470464 
L 149.291283 -120.351667 
L 160.451283 -123.731195 
L 171.611283 -131.448283 
L 182.771283 -141.430151 
L 193.931283 -144.728628 
L 205.091283 -148.867769 
L 216.251283 -154.458961 
L 227.411283 -151.803061 
L 238.571283 -154.528574 
L 249.731283 -156.006099 
L 260.891283 -154.494465 
L 272.051283 -149.829719 
L 283.211283 -153.048501 
L 294.371283 -163.332362 
L 305.531283 -168.293307 
L 316.691283 -171.131481 
L 327.851283 -174.489555 
L 339.011283 -178.468563 
L 350.171283 -179.623667 
L 361.331283 -177.627703 
L 372.491283 -180.530144 
L 383.651283 -189.085253 
L 394.811283 -196.198972 
L 405.971283 -199.27426 
L 405.971283 -248.088991 
L 405.971283 -248.088991 
L 394.811283 -242.596683 
L 383.651283 -231.690464 
L 372.491283 -219.819797 
L 361.331283 -215.357787 
L 350.171283 -217.698119 
L 339.011283 -217.709461 
L 327.851283 -213.407162 
L 316.691283 -206.480503 
L 305.531283 -200.115636 
L 294.371283 -193.736813 
L 283.211283 -184.692091 
L 272.051283 -183.8414 
L 260.891283 -189.167005 
L 249.731283 -192.528518 
L 238.571283 -191.675483 
L 227.411283 -188.402786 
L 216.251283 -190.300247 
L 205.091283 -184.561326 
L 193.931283 -180.224149 
L 182.771283 -177.708717 
L 171.611283 -169.20763 
L 160.451283 -161.347865 
L 149.291283 -157.489821 
L 138.131283 -160.980934 
L 126.971283 -179.692906 
L 115.811283 -207.378261 
L 104.651283 -236.873831 
L 93.491283 -264.615965 
L 82.331283 -281.401014 
L 71.171283 -300.650003 
L 60.011283 -313.905485 
L 48.851283 -329.973156 
z
" style="stroke: #ff7f0e; stroke-opacity: 0.2"/>
    </defs>
    <g clip-path="url(#p0a0ad58ce4)">
     <use xlink:href="#mab189ccfc0" x="0" y="361.333136" style="fill: #ff7f0e; fill-opacity: 0.2; stroke: #ff7f0e; stroke-opacity: 0.2"/>
    </g>
   </g>
   <g id="matplotlib.axis_1">
    <g id="text_1">
     <text style="font: 10px 'Arial', sans-serif; text-anchor: middle" x="227.411283" y="296.533792" transform="rotate(-0 227.411283 296.533792)">Time</text>
    </g>
   </g>
   <g id="matplotlib.axis_2">
    <g id="ytick_1">
     <g id="line2d_1">
      <defs>
       <path id="m57d9effbe9" d="M 0 0 
L -3.5 0 
" style="stroke: #000000; stroke-width: 0.8"/>
      </defs>
      <g>
       <use xlink:href="#m57d9effbe9" x="48.851283" y="281.848133" style="stroke: #000000; stroke-width: 0.8"/>
      </g>
     </g>
     <g id="text_2">
      <text style="font: 10px 'Arial', sans-serif; text-anchor: end" x="41.851283" y="285.42704" transform="rotate(-0 41.851283 285.42704)">−0.2</text>
     </g>
    </g>
    <g id="ytick_2">
     <g id="line2d_2">
      <g>
       <use xlink:href="#m57d9effbe9" x="48.851283" y="237.417477" style="stroke: #000000; stroke-width: 0.8"/>
      </g>
     </g>
     <g id="text_3">
      <text style="font: 10px 'Arial', sans-serif; text-anchor: end" x="41.851283" y="240.996384" transform="rotate(-0 41.851283 240.996384)">0.0</text>
     </g>
    </g>
    <g id="ytick_3">
     <g id="line2d_3">
      <g>
       <use xlink:href="#m57d9effbe9" x="48.851283" y="192.986821" style="stroke: #000000; stroke-width: 0.8"/>
      </g>
     </g>
     <g id="text_4">
      <text style="font: 10px 'Arial', sans-serif; text-anchor: end" x="41.851283" y="196.565728" transform="rotate(-0 41.851283 196.565728)">0.2</text>
     </g>
    </g>
    <g id="ytick_4">
     <g id="line2d_4">
      <g>
       <use xlink:href="#m57d9effbe9" x="48.851283" y="148.556165" style="stroke: #000000; stroke-width: 0.8"/>
      </g>
     </g>
     <g id="text_5">
      <text style="font: 10px 'Arial', sans-serif; text-anchor: end" x="41.851283" y="152.135072" transform="rotate(-0 41.851283 152.135072)">0.4</text>
     </g>
    </g>
    <g id="ytick_5">
     <g id="line2d_5">
      <g>
       <use xlink:href="#m57d9effbe9" x="48.851283" y="104.125509" style="stroke: #000000; stroke-width: 0.8"/>
      </g>
     </g>
     <g id="text_6">
      <text style="font: 10px 'Arial', sans-serif; text-anchor: end" x="41.851283" y="107.704416" transform="rotate(-0 41.851283 107.704416)">0.6</text>
     </g>
    </g>
    <g id="ytick_6">
     <g id="line2d_6">
      <g>
       <use xlink:href="#m57d9effbe9" x="48.851283" y="59.694853" style="stroke: #000000; stroke-width: 0.8"/>
      </g>
     </g>
     <g id="text_7">
      <text style="font: 10px 'Arial', sans-serif; text-anchor: end" x="41.851283" y="63.27376" transform="rotate(-0 41.851283 63.27376)">0.8</text>
     </g>
    </g>
    <g id="text_8">
     <text style="font: 10px 'Arial', sans-serif; text-anchor: middle" x="16.005971" y="152.31998" transform="rotate(-90 16.005971 152.31998)">Activity</text>
    </g>
   </g>
   <g id="line2d_7">
    <path d="M 48.851283 213.633034 
L 60.011283 224.082805 
L 71.171283 232.649149 
L 82.331283 239.621433 
L 93.491283 245.197414 
L 104.651283 251.946179 
L 115.811283 260.853466 
L 126.971283 262.835833 
L 138.131283 258.339939 
L 149.291283 252.582137 
L 160.451283 252.850184 
L 171.611283 250.244892 
L 182.771283 241.918404 
L 193.931283 234.885254 
L 205.091283 234.163062 
L 216.251283 236.585739 
L 227.411283 238.11485 
L 238.571283 235.176646 
L 249.731283 228.622529 
L 260.891283 224.695631 
L 272.051283 219.901193 
L 283.211283 210.98845 
L 294.371283 204.293714 
L 305.531283 201.306461 
L 316.691283 198.81523 
L 327.851283 193.263446 
L 339.011283 188.307868 
L 350.171283 183.503959 
L 361.331283 181.033127 
L 372.491283 175.358108 
L 383.651283 153.370401 
L 394.811283 132.637207 
L 405.971283 125.480082 
" clip-path="url(#p0a0ad58ce4)" style="fill: none; stroke: #1f77b4; stroke-width: 1.5; stroke-linecap: square"/>
   </g>
   <g id="line2d_8">
    <path d="M 48.851283 81.408694 
L 60.011283 94.592845 
L 71.171283 107.029561 
L 82.331283 124.827309 
L 93.491283 139.043202 
L 104.651283 160.064349 
L 115.811283 181.495946 
L 126.971283 203.042918 
L 138.131283 219.107437 
L 149.291283 222.412391 
L 160.451283 218.793605 
L 171.611283 211.005179 
L 182.771283 201.763702 
L 193.931283 198.856749 
L 205.091283 194.618588 
L 216.251283 188.953533 
L 227.411283 191.230214 
L 238.571283 188.231108 
L 249.731283 187.065827 
L 260.891283 189.502401 
L 272.051283 194.497575 
L 283.211283 192.46284 
L 294.371283 182.798549 
L 305.531283 177.128665 
L 316.691283 172.527144 
L 327.851283 167.384779 
L 339.011283 163.244124 
L 350.171283 162.672243 
L 361.331283 164.840391 
L 372.491283 161.158165 
L 383.651283 150.945277 
L 394.811283 141.935308 
L 405.971283 137.651507 
" clip-path="url(#p0a0ad58ce4)" style="fill: none; stroke: #ff7f0e; stroke-width: 1.5; stroke-linecap: square"/>
   </g>
   <g id="line2d_9">
    <path d="M 82.331283 285.37598 
L 82.331283 19.26398 
" clip-path="url(#p0a0ad58ce4)" style="fill: none; stroke-dasharray: 5.55,2.4; stroke-dashoffset: 0; stroke: #000000; stroke-opacity: 0.5; stroke-width: 1.5"/>
   </g>
   <g id="line2d_10">
    <path d="M 383.651283 285.37598 
L 383.651283 19.26398 
" clip-path="url(#p0a0ad58ce4)" style="fill: none; stroke-dasharray: 5.55,2.4; stroke-dashoffset: 0; stroke: #000000; stroke-opacity: 0.5; stroke-width: 1.5"/>
   </g>
   <g id="patch_3">
    <path d="M 48.851283 285.37598 
L 405.971283 285.37598 
" style="fill: none; stroke: #000000; stroke-width: 0.8; stroke-linejoin: miter; stroke-linecap: square"/>
   </g>
   <g id="text_9">
    <text style="font: 6.94px 'Arial', sans-serif" transform="translate(10.097767 321.385533) rotate(-35)">-0.1s Sampling</text>
   </g>
   <g id="text_10">
    <text style="font: 6.94px 'Arial', sans-serif" transform="translate(57.794497 311.430872) rotate(-35)">Sampling</text>
   </g>
   <g id="text_11">
    <text style="font: 6.94px 'Arial', sans-serif" transform="translate(319.037191 339.456682) rotate(-35)">Movement to Lateral Port</text>
   </g>
   <g id="text_12">
    <text style="font: 8.33px 'Arial', sans-serif; text-anchor: middle" x="227.411283" y="13.26398" transform="rotate(-0 227.411283 13.26398)">GP4_23_s8_L50_D250_ALM - Trace:56_GP4_23_s8_L50_D250_ALM (when: correct)</text>
   </g>
   <g id="legend_1">
    <g id="patch_4">
     <path d="M 132.02261 354.133136 
L 322.799956 354.133136 
Q 324.187956 354.133136 324.187956 352.745136 
L 324.187956 343.45638 
Q 324.187956 342.06838 322.799956 342.06838 
L 132.02261 342.06838 
Q 130.63461 342.06838 130.63461 343.45638 
L 130.63461 352.745136 
Q 130.63461 354.133136 132.02261 354.133136 
z
" style="fill: #ffffff; opacity: 0.8; stroke: #cccccc; stroke-linejoin: miter"/>
    </g>
    <g id="line2d_11">
     <path d="M 133.41061 347.467483 
L 140.35061 347.467483 
L 147.29061 347.467483 
" style="fill: none; stroke: #1f77b4; stroke-width: 1.5; stroke-linecap: square"/>
    </g>
    <g id="text_13">
     <text style="font: 6.94px 'Arial', sans-serif; text-anchor: start" x="152.84261" y="349.896483" transform="rotate(-0 152.84261 349.896483)">DecisionRight (112 pts)</text>
    </g>
    <g id="line2d_12">
     <path d="M 238.337988 347.467483 
L 245.277988 347.467483 
L 252.217988 347.467483 
" style="fill: none; stroke: #ff7f0e; stroke-width: 1.5; stroke-linecap: square"/>
    </g>
    <g id="text_14">
     <text style="font: 6.94px 'Arial', sans-serif; text-anchor: start" x="257.769988" y="349.896483" transform="rotate(-0 257.769988 349.896483)">DecisionLeft (96 pts)</text>
    </g>
   </g>
  </g>
 </g>
 <defs>
  <clipPath id="p0a0ad58ce4">
   <rect x="48.851283" y="19.26398" width="357.12" height="266.112"/>
  </clipPath>
 </defs>
</svg>
