<?xml version="1.0" encoding="utf-8" standalone="no"?>
<!DOCTYPE svg PUBLIC "-//W3C//DTD SVG 1.1//EN"
  "http://www.w3.org/Graphics/SVG/1.1/DTD/svg11.dtd">
<svg xmlns:xlink="http://www.w3.org/1999/xlink" width="413.171283pt" height="361.333136pt" viewBox="0 0 413.171283 361.333136" xmlns="http://www.w3.org/2000/svg" version="1.1">
 <metadata>
  <rdf:RDF xmlns:dc="http://purl.org/dc/elements/1.1/" xmlns:cc="http://creativecommons.org/ns#" xmlns:rdf="http://www.w3.org/1999/02/22-rdf-syntax-ns#">
   <cc:Work>
    <dc:type rdf:resource="http://purl.org/dc/dcmitype/StillImage"/>
    <dc:date>2025-12-29T04:07:10.965595</dc:date>
    <dc:format>image/svg+xml</dc:format>
    <dc:creator>
     <cc:Agent>
      <dc:title>Matplotlib v3.8.0, https://matplotlib.org/</dc:title>
     </cc:Agent>
    </dc:creator>
   </cc:Work>
  </rdf:RDF>
 </metadata>
 <defs>
  <style type="text/css">*{stroke-linejoin: round; stroke-linecap: butt}</style>
 </defs>
 <g id="figure_1">
  <g id="patch_1">
   <path d="M 0 361.333136 
L 413.171283 361.333136 
L 413.171283 -0 
L 0 -0 
z
" style="fill: #ffffff"/>
  </g>
  <g id="axes_1">
   <g id="patch_2">
    <path d="M 48.851283 285.37598 
L 405.971283 285.37598 
L 405.971283 19.26398 
L 48.851283 19.26398 
z
" style="fill: #ffffff"/>
   </g>
   <g id="PolyCollection_1">
    <defs>
     <path id="mb5028483e3" d="M 48.851283 -303.399963 
L 48.851283 -234.383108 
L 60.011283 -213.28187 
L 71.171283 -210.578822 
L 82.331283 -204.722246 
L 93.491283 -199.863878 
L 104.651283 -198.62813 
L 115.811283 -195.196559 
L 126.971283 -182.62494 
L 138.131283 -162.340905 
L 149.291283 -157.485768 
L 160.451283 -157.200075 
L 171.611283 -161.898229 
L 182.771283 -164.422726 
L 193.931283 -161.277987 
L 205.091283 -174.340176 
L 216.251283 -183.943115 
L 227.411283 -187.657827 
L 238.571283 -186.84242 
L 249.731283 -197.12313 
L 260.891283 -211.613228 
L 272.051283 -223.695798 
L 283.211283 -225.350178 
L 294.371283 -230.071487 
L 305.531283 -221.420225 
L 316.691283 -211.366522 
L 327.851283 -213.518653 
L 339.011283 -217.555057 
L 350.171283 -214.639116 
L 361.331283 -210.111823 
L 372.491283 -220.817515 
L 383.651283 -240.422355 
L 394.811283 -244.414148 
L 405.971283 -254.076029 
L 405.971283 -329.973156 
L 405.971283 -329.973156 
L 394.811283 -324.561528 
L 383.651283 -327.545978 
L 372.491283 -306.407686 
L 361.331283 -292.060648 
L 350.171283 -305.484785 
L 339.011283 -307.319917 
L 327.851283 -300.156722 
L 316.691283 -299.373734 
L 305.531283 -304.57307 
L 294.371283 -322.251951 
L 283.211283 -320.370416 
L 272.051283 -322.568388 
L 260.891283 -311.610512 
L 249.731283 -293.24426 
L 238.571283 -290.041279 
L 227.411283 -286.201143 
L 216.251283 -265.782512 
L 205.091283 -248.909399 
L 193.931283 -228.197032 
L 182.771283 -230.580351 
L 171.611283 -226.506948 
L 160.451283 -225.049805 
L 149.291283 -228.608381 
L 138.131283 -232.743453 
L 126.971283 -258.826264 
L 115.811283 -266.788311 
L 104.651283 -263.34111 
L 93.491283 -266.288392 
L 82.331283 -273.890539 
L 71.171283 -281.540306 
L 60.011283 -283.189913 
L 48.851283 -303.399963 
z
" style="stroke: #1f77b4; stroke-opacity: 0.2"/>
    </defs>
    <g clip-path="url(#p20264fe6f6)">
     <use xlink:href="#mb5028483e3" x="0" y="361.333136" style="fill: #1f77b4; fill-opacity: 0.2; stroke: #1f77b4; stroke-opacity: 0.2"/>
    </g>
   </g>
   <g id="PolyCollection_2">
    <defs>
     <path id="m1b940e2a15" d="M 48.851283 -208.353015 
L 48.851283 -160.308463 
L 60.011283 -163.745065 
L 71.171283 -169.365947 
L 82.331283 -165.280191 
L 93.491283 -150.945797 
L 104.651283 -133.747152 
L 115.811283 -116.033205 
L 126.971283 -101.857187 
L 138.131283 -88.902095 
L 149.291283 -88.053156 
L 160.451283 -93.684925 
L 171.611283 -94.385812 
L 182.771283 -96.949096 
L 193.931283 -115.636271 
L 205.091283 -135.320454 
L 216.251283 -143.84607 
L 227.411283 -160.499147 
L 238.571283 -177.930016 
L 249.731283 -182.162542 
L 260.891283 -186.831159 
L 272.051283 -193.598946 
L 283.211283 -202.494466 
L 294.371283 -199.641562 
L 305.531283 -185.839251 
L 316.691283 -183.300257 
L 327.851283 -189.893687 
L 339.011283 -197.573717 
L 350.171283 -200.789485 
L 361.331283 -202.925676 
L 372.491283 -222.691206 
L 383.651283 -245.693237 
L 394.811283 -256.697053 
L 405.971283 -247.766674 
L 405.971283 -309.024881 
L 405.971283 -309.024881 
L 394.811283 -324.533641 
L 383.651283 -320.170853 
L 372.491283 -299.069606 
L 361.331283 -277.564556 
L 350.171283 -273.303054 
L 339.011283 -268.037798 
L 327.851283 -259.633619 
L 316.691283 -252.598408 
L 305.531283 -253.12807 
L 294.371283 -262.814757 
L 283.211283 -260.782101 
L 272.051283 -248.740745 
L 260.891283 -240.100451 
L 249.731283 -237.713613 
L 238.571283 -231.286423 
L 227.411283 -209.144635 
L 216.251283 -189.522141 
L 205.091283 -177.611714 
L 193.931283 -155.368123 
L 182.771283 -137.615327 
L 171.611283 -133.332966 
L 160.451283 -129.265756 
L 149.291283 -124.141401 
L 138.131283 -128.005834 
L 126.971283 -149.163949 
L 115.811283 -169.789641 
L 104.651283 -189.307132 
L 93.491283 -208.007152 
L 82.331283 -223.180344 
L 71.171283 -223.968268 
L 60.011283 -212.958629 
L 48.851283 -208.353015 
z
" style="stroke: #ff7f0e; stroke-opacity: 0.2"/>
    </defs>
    <g clip-path="url(#p20264fe6f6)">
     <use xlink:href="#m1b940e2a15" x="0" y="361.333136" style="fill: #ff7f0e; fill-opacity: 0.2; stroke: #ff7f0e; stroke-opacity: 0.2"/>
    </g>
   </g>
   <g id="matplotlib.axis_1">
    <g id="text_1">
     <text style="font: 10px 'Arial', sans-serif; text-anchor: middle" x="227.411283" y="296.533792" transform="rotate(-0 227.411283 296.533792)">Time</text>
    </g>
   </g>
   <g id="matplotlib.axis_2">
    <g id="ytick_1">
     <g id="line2d_1">
      <defs>
       <path id="mfc3afe2d27" d="M 0 0 
L -3.5 0 
" style="stroke: #000000; stroke-width: 0.8"/>
      </defs>
      <g>
       <use xlink:href="#mfc3afe2d27" x="48.851283" y="274.727706" style="stroke: #000000; stroke-width: 0.8"/>
      </g>
     </g>
     <g id="text_2">
      <text style="font: 10px 'Arial', sans-serif; text-anchor: end" x="41.851283" y="278.306612" transform="rotate(-0 41.851283 278.306612)">−0.3</text>
     </g>
    </g>
    <g id="ytick_2">
     <g id="line2d_2">
      <g>
       <use xlink:href="#mfc3afe2d27" x="48.851283" y="235.428461" style="stroke: #000000; stroke-width: 0.8"/>
      </g>
     </g>
     <g id="text_3">
      <text style="font: 10px 'Arial', sans-serif; text-anchor: end" x="41.851283" y="239.007367" transform="rotate(-0 41.851283 239.007367)">−0.2</text>
     </g>
    </g>
    <g id="ytick_3">
     <g id="line2d_3">
      <g>
       <use xlink:href="#mfc3afe2d27" x="48.851283" y="196.129216" style="stroke: #000000; stroke-width: 0.8"/>
      </g>
     </g>
     <g id="text_4">
      <text style="font: 10px 'Arial', sans-serif; text-anchor: end" x="41.851283" y="199.708122" transform="rotate(-0 41.851283 199.708122)">−0.1</text>
     </g>
    </g>
    <g id="ytick_4">
     <g id="line2d_4">
      <g>
       <use xlink:href="#mfc3afe2d27" x="48.851283" y="156.829971" style="stroke: #000000; stroke-width: 0.8"/>
      </g>
     </g>
     <g id="text_5">
      <text style="font: 10px 'Arial', sans-serif; text-anchor: end" x="41.851283" y="160.408877" transform="rotate(-0 41.851283 160.408877)">0.0</text>
     </g>
    </g>
    <g id="ytick_5">
     <g id="line2d_5">
      <g>
       <use xlink:href="#mfc3afe2d27" x="48.851283" y="117.530726" style="stroke: #000000; stroke-width: 0.8"/>
      </g>
     </g>
     <g id="text_6">
      <text style="font: 10px 'Arial', sans-serif; text-anchor: end" x="41.851283" y="121.109632" transform="rotate(-0 41.851283 121.109632)">0.1</text>
     </g>
    </g>
    <g id="ytick_6">
     <g id="line2d_6">
      <g>
       <use xlink:href="#mfc3afe2d27" x="48.851283" y="78.231481" style="stroke: #000000; stroke-width: 0.8"/>
      </g>
     </g>
     <g id="text_7">
      <text style="font: 10px 'Arial', sans-serif; text-anchor: end" x="41.851283" y="81.810387" transform="rotate(-0 41.851283 81.810387)">0.2</text>
     </g>
    </g>
    <g id="ytick_7">
     <g id="line2d_7">
      <g>
       <use xlink:href="#mfc3afe2d27" x="48.851283" y="38.932236" style="stroke: #000000; stroke-width: 0.8"/>
      </g>
     </g>
     <g id="text_8">
      <text style="font: 10px 'Arial', sans-serif; text-anchor: end" x="41.851283" y="42.511142" transform="rotate(-0 41.851283 42.511142)">0.3</text>
     </g>
    </g>
    <g id="text_9">
     <text style="font: 10px 'Arial', sans-serif; text-anchor: middle" x="16.005971" y="152.31998" transform="rotate(-90 16.005971 152.31998)">Activity</text>
    </g>
   </g>
   <g id="line2d_8">
    <path d="M 48.851283 92.441597 
L 60.011283 113.097243 
L 71.171283 115.273572 
L 82.331283 122.026744 
L 93.491283 128.257001 
L 104.651283 130.348516 
L 115.811283 130.340701 
L 126.971283 140.607533 
L 138.131283 163.790956 
L 149.291283 168.286061 
L 160.451283 170.208195 
L 171.611283 167.130548 
L 182.771283 163.831597 
L 193.931283 166.595626 
L 205.091283 149.708349 
L 216.251283 136.470323 
L 227.411283 124.403651 
L 238.571283 122.891286 
L 249.731283 116.149443 
L 260.891283 99.721263 
L 272.051283 88.201043 
L 283.211283 88.472839 
L 294.371283 85.171419 
L 305.531283 98.33649 
L 316.691283 105.963009 
L 327.851283 104.49545 
L 339.011283 98.895649 
L 350.171283 101.271188 
L 361.331283 110.246899 
L 372.491283 97.720534 
L 383.651283 77.348968 
L 394.811283 76.845301 
L 405.971283 69.308543 
" clip-path="url(#p20264fe6f6)" style="fill: none; stroke: #1f77b4; stroke-width: 1.5; stroke-linecap: square"/>
   </g>
   <g id="line2d_9">
    <path d="M 48.851283 177.002396 
L 60.011283 172.98129 
L 71.171283 164.666029 
L 82.331283 167.102868 
L 93.491283 181.856661 
L 104.651283 199.805992 
L 115.811283 218.421714 
L 126.971283 235.822568 
L 138.131283 252.879168 
L 149.291283 255.235857 
L 160.451283 249.857795 
L 171.611283 247.473747 
L 182.771283 244.050925 
L 193.931283 225.830939 
L 205.091283 204.867052 
L 216.251283 194.649031 
L 227.411283 176.511244 
L 238.571283 156.724916 
L 249.731283 151.395059 
L 260.891283 147.86733 
L 272.051283 140.163291 
L 283.211283 129.694853 
L 294.371283 130.104978 
L 305.531283 141.849476 
L 316.691283 143.383803 
L 327.851283 136.569484 
L 339.011283 128.52738 
L 350.171283 124.286866 
L 361.331283 121.08802 
L 372.491283 100.45273 
L 383.651283 78.401094 
L 394.811283 70.717789 
L 405.971283 82.937355 
" clip-path="url(#p20264fe6f6)" style="fill: none; stroke: #ff7f0e; stroke-width: 1.5; stroke-linecap: square"/>
   </g>
   <g id="line2d_10">
    <path d="M 82.331283 285.37598 
L 82.331283 19.26398 
" clip-path="url(#p20264fe6f6)" style="fill: none; stroke-dasharray: 5.55,2.4; stroke-dashoffset: 0; stroke: #000000; stroke-opacity: 0.5; stroke-width: 1.5"/>
   </g>
   <g id="line2d_11">
    <path d="M 383.651283 285.37598 
L 383.651283 19.26398 
" clip-path="url(#p20264fe6f6)" style="fill: none; stroke-dasharray: 5.55,2.4; stroke-dashoffset: 0; stroke: #000000; stroke-opacity: 0.5; stroke-width: 1.5"/>
   </g>
   <g id="patch_3">
    <path d="M 48.851283 285.37598 
L 405.971283 285.37598 
" style="fill: none; stroke: #000000; stroke-width: 0.8; stroke-linejoin: miter; stroke-linecap: square"/>
   </g>
   <g id="text_10">
    <text style="font: 6.94px 'Arial', sans-serif" transform="translate(10.097767 321.385533) rotate(-35)">-0.1s Sampling</text>
   </g>
   <g id="text_11">
    <text style="font: 6.94px 'Arial', sans-serif" transform="translate(57.794497 311.430872) rotate(-35)">Sampling</text>
   </g>
   <g id="text_12">
    <text style="font: 6.94px 'Arial', sans-serif" transform="translate(319.037191 339.456682) rotate(-35)">Movement to Lateral Port</text>
   </g>
   <g id="text_13">
    <text style="font: 8.33px 'Arial', sans-serif; text-anchor: middle" x="227.411283" y="13.26398" transform="rotate(-0 227.411283 13.26398)">GP4_23_s8_L50_D250_ALM - Trace:88_GP4_23_s8_L50_D250_ALM (when: correct)</text>
   </g>
   <g id="legend_1">
    <g id="patch_4">
     <path d="M 132.02261 354.133136 
L 322.799956 354.133136 
Q 324.187956 354.133136 324.187956 352.745136 
L 324.187956 343.45638 
Q 324.187956 342.06838 322.799956 342.06838 
L 132.02261 342.06838 
Q 130.63461 342.06838 130.63461 343.45638 
L 130.63461 352.745136 
Q 130.63461 354.133136 132.02261 354.133136 
z
" style="fill: #ffffff; opacity: 0.8; stroke: #cccccc; stroke-linejoin: miter"/>
    </g>
    <g id="line2d_12">
     <path d="M 133.41061 347.467483 
L 140.35061 347.467483 
L 147.29061 347.467483 
" style="fill: none; stroke: #1f77b4; stroke-width: 1.5; stroke-linecap: square"/>
    </g>
    <g id="text_14">
     <text style="font: 6.94px 'Arial', sans-serif; text-anchor: start" x="152.84261" y="349.896483" transform="rotate(-0 152.84261 349.896483)">DecisionRight (112 pts)</text>
    </g>
    <g id="line2d_13">
     <path d="M 238.337988 347.467483 
L 245.277988 347.467483 
L 252.217988 347.467483 
" style="fill: none; stroke: #ff7f0e; stroke-width: 1.5; stroke-linecap: square"/>
    </g>
    <g id="text_15">
     <text style="font: 6.94px 'Arial', sans-serif; text-anchor: start" x="257.769988" y="349.896483" transform="rotate(-0 257.769988 349.896483)">DecisionLeft (96 pts)</text>
    </g>
   </g>
  </g>
 </g>
 <defs>
  <clipPath id="p20264fe6f6">
   <rect x="48.851283" y="19.26398" width="357.12" height="266.112"/>
  </clipPath>
 </defs>
</svg>
