<?xml version="1.0" encoding="utf-8" standalone="no"?>
<!DOCTYPE svg PUBLIC "-//W3C//DTD SVG 1.1//EN"
  "http://www.w3.org/Graphics/SVG/1.1/DTD/svg11.dtd">
<svg xmlns:xlink="http://www.w3.org/1999/xlink" width="413.171283pt" height="361.333136pt" viewBox="0 0 413.171283 361.333136" xmlns="http://www.w3.org/2000/svg" version="1.1">
 <metadata>
  <rdf:RDF xmlns:dc="http://purl.org/dc/elements/1.1/" xmlns:cc="http://creativecommons.org/ns#" xmlns:rdf="http://www.w3.org/1999/02/22-rdf-syntax-ns#">
   <cc:Work>
    <dc:type rdf:resource="http://purl.org/dc/dcmitype/StillImage"/>
    <dc:date>2025-12-29T04:07:12.567218</dc:date>
    <dc:format>image/svg+xml</dc:format>
    <dc:creator>
     <cc:Agent>
      <dc:title>Matplotlib v3.8.0, https://matplotlib.org/</dc:title>
     </cc:Agent>
    </dc:creator>
   </cc:Work>
  </rdf:RDF>
 </metadata>
 <defs>
  <style type="text/css">*{stroke-linejoin: round; stroke-linecap: butt}</style>
 </defs>
 <g id="figure_1">
  <g id="patch_1">
   <path d="M 0 361.333136 
L 413.171283 361.333136 
L 413.171283 -0 
L 0 -0 
z
" style="fill: #ffffff"/>
  </g>
  <g id="axes_1">
   <g id="patch_2">
    <path d="M 48.851283 285.37598 
L 405.971283 285.37598 
L 405.971283 19.26398 
L 48.851283 19.26398 
z
" style="fill: #ffffff"/>
   </g>
   <g id="PolyCollection_1">
    <defs>
     <path id="md7e379869b" d="M 48.851283 -329.973156 
L 48.851283 -275.787954 
L 60.011283 -270.189392 
L 71.171283 -268.398693 
L 82.331283 -257.381857 
L 93.491283 -243.12318 
L 104.651283 -228.987707 
L 115.811283 -218.938613 
L 126.971283 -209.663789 
L 138.131283 -196.521628 
L 149.291283 -184.97699 
L 160.451283 -178.485724 
L 171.611283 -173.664121 
L 182.771283 -175.099546 
L 193.931283 -170.928846 
L 205.091283 -166.482257 
L 216.251283 -169.491245 
L 227.411283 -170.302612 
L 238.571283 -168.380087 
L 249.731283 -166.394174 
L 260.891283 -161.967524 
L 272.051283 -158.855212 
L 283.211283 -157.803688 
L 294.371283 -155.687333 
L 305.531283 -152.849263 
L 316.691283 -146.972691 
L 327.851283 -141.12115 
L 339.011283 -136.85931 
L 350.171283 -131.986992 
L 361.331283 -132.773301 
L 372.491283 -134.876486 
L 383.651283 -132.970807 
L 394.811283 -131.686691 
L 405.971283 -127.694061 
L 405.971283 -144.190816 
L 405.971283 -144.190816 
L 394.811283 -148.769199 
L 383.651283 -151.795998 
L 372.491283 -154.643286 
L 361.331283 -151.879604 
L 350.171283 -150.914548 
L 339.011283 -155.264219 
L 327.851283 -159.380282 
L 316.691283 -165.1006 
L 305.531283 -170.686119 
L 294.371283 -174.668542 
L 283.211283 -176.757564 
L 272.051283 -178.443533 
L 260.891283 -182.488185 
L 249.731283 -186.963281 
L 238.571283 -189.301322 
L 227.411283 -190.194668 
L 216.251283 -189.180669 
L 205.091283 -186.500451 
L 193.931283 -190.797435 
L 182.771283 -196.191976 
L 171.611283 -196.428359 
L 160.451283 -202.808509 
L 149.291283 -210.898736 
L 138.131283 -225.380409 
L 126.971283 -243.558855 
L 115.811283 -258.021253 
L 104.651283 -272.359319 
L 93.491283 -290.707539 
L 82.331283 -306.853781 
L 71.171283 -319.577432 
L 60.011283 -323.12411 
L 48.851283 -329.973156 
z
" style="stroke: #1f77b4; stroke-opacity: 0.2"/>
    </defs>
    <g clip-path="url(#pea8f2046b0)">
     <use xlink:href="#md7e379869b" x="0" y="361.333136" style="fill: #1f77b4; fill-opacity: 0.2; stroke: #1f77b4; stroke-opacity: 0.2"/>
    </g>
   </g>
   <g id="PolyCollection_2">
    <defs>
     <path id="m96a2d8764b" d="M 48.851283 -244.974904 
L 48.851283 -191.974923 
L 60.011283 -189.200592 
L 71.171283 -183.422878 
L 82.331283 -182.708362 
L 93.491283 -179.266917 
L 104.651283 -171.931605 
L 115.811283 -164.156464 
L 126.971283 -156.760028 
L 138.131283 -150.070145 
L 149.291283 -148.284501 
L 160.451283 -147.587522 
L 171.611283 -143.741582 
L 182.771283 -139.696416 
L 193.931283 -137.502674 
L 205.091283 -137.867411 
L 216.251283 -134.396495 
L 227.411283 -131.898877 
L 238.571283 -129.937769 
L 249.731283 -132.547557 
L 260.891283 -139.179536 
L 272.051283 -146.891707 
L 283.211283 -146.071077 
L 294.371283 -136.627285 
L 305.531283 -129.511289 
L 316.691283 -125.471765 
L 327.851283 -119.218659 
L 339.011283 -107.683427 
L 350.171283 -93.842033 
L 361.331283 -88.126485 
L 372.491283 -88.053156 
L 383.651283 -90.186813 
L 394.811283 -93.529348 
L 405.971283 -94.005144 
L 405.971283 -111.202328 
L 405.971283 -111.202328 
L 394.811283 -109.78874 
L 383.651283 -105.898202 
L 372.491283 -104.731237 
L 361.331283 -105.688271 
L 350.171283 -111.8983 
L 339.011283 -124.788879 
L 327.851283 -135.180498 
L 316.691283 -141.852272 
L 305.531283 -147.029851 
L 294.371283 -153.734918 
L 283.211283 -161.663659 
L 272.051283 -162.288032 
L 260.891283 -155.886999 
L 249.731283 -149.251811 
L 238.571283 -147.238535 
L 227.411283 -150.286547 
L 216.251283 -153.325897 
L 205.091283 -157.99854 
L 193.931283 -157.241728 
L 182.771283 -159.345415 
L 171.611283 -164.499422 
L 160.451283 -169.163445 
L 149.291283 -171.10959 
L 138.131283 -173.874283 
L 126.971283 -183.139576 
L 115.811283 -194.617448 
L 104.651283 -208.961106 
L 93.491283 -224.847443 
L 82.331283 -233.795974 
L 71.171283 -236.386066 
L 60.011283 -242.207615 
L 48.851283 -244.974904 
z
" style="stroke: #ff7f0e; stroke-opacity: 0.2"/>
    </defs>
    <g clip-path="url(#pea8f2046b0)">
     <use xlink:href="#m96a2d8764b" x="0" y="361.333136" style="fill: #ff7f0e; fill-opacity: 0.2; stroke: #ff7f0e; stroke-opacity: 0.2"/>
    </g>
   </g>
   <g id="matplotlib.axis_1">
    <g id="text_1">
     <text style="font: 10px 'Arial', sans-serif; text-anchor: middle" x="227.411283" y="296.533792" transform="rotate(-0 227.411283 296.533792)">Time</text>
    </g>
   </g>
   <g id="matplotlib.axis_2">
    <g id="ytick_1">
     <g id="line2d_1">
      <defs>
       <path id="mf585057198" d="M 0 0 
L -3.5 0 
" style="stroke: #000000; stroke-width: 0.8"/>
      </defs>
      <g>
       <use xlink:href="#mf585057198" x="48.851283" y="281.454714" style="stroke: #000000; stroke-width: 0.8"/>
      </g>
     </g>
     <g id="text_2">
      <text style="font: 10px 'Arial', sans-serif; text-anchor: end" x="41.851283" y="285.03362" transform="rotate(-0 41.851283 285.03362)">−0.5</text>
     </g>
    </g>
    <g id="ytick_2">
     <g id="line2d_2">
      <g>
       <use xlink:href="#mf585057198" x="48.851283" y="246.269241" style="stroke: #000000; stroke-width: 0.8"/>
      </g>
     </g>
     <g id="text_3">
      <text style="font: 10px 'Arial', sans-serif; text-anchor: end" x="41.851283" y="249.848147" transform="rotate(-0 41.851283 249.848147)">−0.4</text>
     </g>
    </g>
    <g id="ytick_3">
     <g id="line2d_3">
      <g>
       <use xlink:href="#mf585057198" x="48.851283" y="211.083769" style="stroke: #000000; stroke-width: 0.8"/>
      </g>
     </g>
     <g id="text_4">
      <text style="font: 10px 'Arial', sans-serif; text-anchor: end" x="41.851283" y="214.662675" transform="rotate(-0 41.851283 214.662675)">−0.3</text>
     </g>
    </g>
    <g id="ytick_4">
     <g id="line2d_4">
      <g>
       <use xlink:href="#mf585057198" x="48.851283" y="175.898296" style="stroke: #000000; stroke-width: 0.8"/>
      </g>
     </g>
     <g id="text_5">
      <text style="font: 10px 'Arial', sans-serif; text-anchor: end" x="41.851283" y="179.477202" transform="rotate(-0 41.851283 179.477202)">−0.2</text>
     </g>
    </g>
    <g id="ytick_5">
     <g id="line2d_5">
      <g>
       <use xlink:href="#mf585057198" x="48.851283" y="140.712824" style="stroke: #000000; stroke-width: 0.8"/>
      </g>
     </g>
     <g id="text_6">
      <text style="font: 10px 'Arial', sans-serif; text-anchor: end" x="41.851283" y="144.29173" transform="rotate(-0 41.851283 144.29173)">−0.1</text>
     </g>
    </g>
    <g id="ytick_6">
     <g id="line2d_6">
      <g>
       <use xlink:href="#mf585057198" x="48.851283" y="105.527351" style="stroke: #000000; stroke-width: 0.8"/>
      </g>
     </g>
     <g id="text_7">
      <text style="font: 10px 'Arial', sans-serif; text-anchor: end" x="41.851283" y="109.106257" transform="rotate(-0 41.851283 109.106257)">0.0</text>
     </g>
    </g>
    <g id="ytick_7">
     <g id="line2d_7">
      <g>
       <use xlink:href="#mf585057198" x="48.851283" y="70.341878" style="stroke: #000000; stroke-width: 0.8"/>
      </g>
     </g>
     <g id="text_8">
      <text style="font: 10px 'Arial', sans-serif; text-anchor: end" x="41.851283" y="73.920785" transform="rotate(-0 41.851283 73.920785)">0.1</text>
     </g>
    </g>
    <g id="ytick_8">
     <g id="line2d_8">
      <g>
       <use xlink:href="#mf585057198" x="48.851283" y="35.156406" style="stroke: #000000; stroke-width: 0.8"/>
      </g>
     </g>
     <g id="text_9">
      <text style="font: 10px 'Arial', sans-serif; text-anchor: end" x="41.851283" y="38.735312" transform="rotate(-0 41.851283 38.735312)">0.2</text>
     </g>
    </g>
    <g id="text_10">
     <text style="font: 10px 'Arial', sans-serif; text-anchor: middle" x="16.005971" y="152.31998" transform="rotate(-90 16.005971 152.31998)">Activity</text>
    </g>
   </g>
   <g id="line2d_9">
    <path d="M 48.851283 58.452581 
L 60.011283 64.676386 
L 71.171283 67.345072 
L 82.331283 79.215318 
L 93.491283 94.417777 
L 104.651283 110.659624 
L 115.811283 122.853203 
L 126.971283 134.721813 
L 138.131283 150.382117 
L 149.291283 163.395273 
L 160.451283 170.686019 
L 171.611283 176.286896 
L 182.771283 175.687375 
L 193.931283 180.469996 
L 205.091283 184.841782 
L 216.251283 181.997179 
L 227.411283 181.084496 
L 238.571283 182.492432 
L 249.731283 184.654406 
L 260.891283 189.105278 
L 272.051283 192.683761 
L 283.211283 194.05251 
L 294.371283 196.155201 
L 305.531283 199.565445 
L 316.691283 205.29649 
L 327.851283 211.08242 
L 339.011283 215.271371 
L 350.171283 219.882366 
L 361.331283 219.006683 
L 372.491283 216.57325 
L 383.651283 218.949733 
L 394.811283 221.105191 
L 405.971283 225.390698 
" clip-path="url(#pea8f2046b0)" style="fill: none; stroke: #1f77b4; stroke-width: 1.5; stroke-linecap: square"/>
   </g>
   <g id="line2d_10">
    <path d="M 48.851283 142.858223 
L 60.011283 145.629032 
L 71.171283 151.428665 
L 82.331283 153.080968 
L 93.491283 159.275955 
L 104.651283 170.886781 
L 115.811283 181.94618 
L 126.971283 191.383334 
L 138.131283 199.360924 
L 149.291283 201.636091 
L 160.451283 202.957652 
L 171.611283 207.212634 
L 182.771283 211.81222 
L 193.931283 213.960935 
L 205.091283 213.40016 
L 216.251283 217.47194 
L 227.411283 220.240424 
L 238.571283 222.744984 
L 249.731283 220.433452 
L 260.891283 213.799869 
L 272.051283 206.743266 
L 283.211283 207.465768 
L 294.371283 216.152035 
L 305.531283 223.062566 
L 316.691283 227.671118 
L 327.851283 234.133557 
L 339.011283 245.096982 
L 350.171283 258.46297 
L 361.331283 264.425758 
L 372.491283 264.940939 
L 383.651283 263.290628 
L 394.811283 259.674092 
L 405.971283 258.7294 
" clip-path="url(#pea8f2046b0)" style="fill: none; stroke: #ff7f0e; stroke-width: 1.5; stroke-linecap: square"/>
   </g>
   <g id="line2d_11">
    <path d="M 82.331283 285.37598 
L 82.331283 19.26398 
" clip-path="url(#pea8f2046b0)" style="fill: none; stroke-dasharray: 5.55,2.4; stroke-dashoffset: 0; stroke: #000000; stroke-opacity: 0.5; stroke-width: 1.5"/>
   </g>
   <g id="line2d_12">
    <path d="M 383.651283 285.37598 
L 383.651283 19.26398 
" clip-path="url(#pea8f2046b0)" style="fill: none; stroke-dasharray: 5.55,2.4; stroke-dashoffset: 0; stroke: #000000; stroke-opacity: 0.5; stroke-width: 1.5"/>
   </g>
   <g id="patch_3">
    <path d="M 48.851283 285.37598 
L 405.971283 285.37598 
" style="fill: none; stroke: #000000; stroke-width: 0.8; stroke-linejoin: miter; stroke-linecap: square"/>
   </g>
   <g id="text_11">
    <text style="font: 6.94px 'Arial', sans-serif" transform="translate(10.097767 321.385533) rotate(-35)">-0.1s Sampling</text>
   </g>
   <g id="text_12">
    <text style="font: 6.94px 'Arial', sans-serif" transform="translate(57.794497 311.430872) rotate(-35)">Sampling</text>
   </g>
   <g id="text_13">
    <text style="font: 6.94px 'Arial', sans-serif" transform="translate(319.037191 339.456682) rotate(-35)">Movement to Lateral Port</text>
   </g>
   <g id="text_14">
    <text style="font: 8.33px 'Arial', sans-serif; text-anchor: middle" x="227.411283" y="13.26398" transform="rotate(-0 227.411283 13.26398)">GP4_23_s8_L50_D250_ALM - Trace:8_GP4_23_s8_L50_D250_ALM (when: correct)</text>
   </g>
   <g id="legend_1">
    <g id="patch_4">
     <path d="M 132.02261 354.133136 
L 322.799956 354.133136 
Q 324.187956 354.133136 324.187956 352.745136 
L 324.187956 343.45638 
Q 324.187956 342.06838 322.799956 342.06838 
L 132.02261 342.06838 
Q 130.63461 342.06838 130.63461 343.45638 
L 130.63461 352.745136 
Q 130.63461 354.133136 132.02261 354.133136 
z
" style="fill: #ffffff; opacity: 0.8; stroke: #cccccc; stroke-linejoin: miter"/>
    </g>
    <g id="line2d_13">
     <path d="M 133.41061 347.467483 
L 140.35061 347.467483 
L 147.29061 347.467483 
" style="fill: none; stroke: #1f77b4; stroke-width: 1.5; stroke-linecap: square"/>
    </g>
    <g id="text_15">
     <text style="font: 6.94px 'Arial', sans-serif; text-anchor: start" x="152.84261" y="349.896483" transform="rotate(-0 152.84261 349.896483)">DecisionRight (112 pts)</text>
    </g>
    <g id="line2d_14">
     <path d="M 238.337988 347.467483 
L 245.277988 347.467483 
L 252.217988 347.467483 
" style="fill: none; stroke: #ff7f0e; stroke-width: 1.5; stroke-linecap: square"/>
    </g>
    <g id="text_16">
     <text style="font: 6.94px 'Arial', sans-serif; text-anchor: start" x="257.769988" y="349.896483" transform="rotate(-0 257.769988 349.896483)">DecisionLeft (96 pts)</text>
    </g>
   </g>
  </g>
 </g>
 <defs>
  <clipPath id="pea8f2046b0">
   <rect x="48.851283" y="19.26398" width="357.12" height="266.112"/>
  </clipPath>
 </defs>
</svg>
