<?xml version="1.0" encoding="utf-8" standalone="no"?>
<!DOCTYPE svg PUBLIC "-//W3C//DTD SVG 1.1//EN"
  "http://www.w3.org/Graphics/SVG/1.1/DTD/svg11.dtd">
<svg xmlns:xlink="http://www.w3.org/1999/xlink" width="413.171283pt" height="361.333136pt" viewBox="0 0 413.171283 361.333136" xmlns="http://www.w3.org/2000/svg" version="1.1">
 <metadata>
  <rdf:RDF xmlns:dc="http://purl.org/dc/elements/1.1/" xmlns:cc="http://creativecommons.org/ns#" xmlns:rdf="http://www.w3.org/1999/02/22-rdf-syntax-ns#">
   <cc:Work>
    <dc:type rdf:resource="http://purl.org/dc/dcmitype/StillImage"/>
    <dc:date>2025-12-29T04:07:13.010013</dc:date>
    <dc:format>image/svg+xml</dc:format>
    <dc:creator>
     <cc:Agent>
      <dc:title>Matplotlib v3.8.0, https://matplotlib.org/</dc:title>
     </cc:Agent>
    </dc:creator>
   </cc:Work>
  </rdf:RDF>
 </metadata>
 <defs>
  <style type="text/css">*{stroke-linejoin: round; stroke-linecap: butt}</style>
 </defs>
 <g id="figure_1">
  <g id="patch_1">
   <path d="M 0 361.333136 
L 413.171283 361.333136 
L 413.171283 -0 
L 0 -0 
z
" style="fill: #ffffff"/>
  </g>
  <g id="axes_1">
   <g id="patch_2">
    <path d="M 48.851283 285.37598 
L 405.971283 285.37598 
L 405.971283 19.26398 
L 48.851283 19.26398 
z
" style="fill: #ffffff"/>
   </g>
   <g id="PolyCollection_1">
    <defs>
     <path id="m1e451b5f50" d="M 48.851283 -157.226706 
L 48.851283 -121.293799 
L 60.011283 -124.901175 
L 71.171283 -122.110512 
L 82.331283 -99.7314 
L 93.491283 -92.555094 
L 104.651283 -91.863638 
L 115.811283 -89.748901 
L 126.971283 -106.613569 
L 138.131283 -127.625729 
L 149.291283 -140.893305 
L 160.451283 -143.199732 
L 171.611283 -134.559266 
L 182.771283 -135.030618 
L 193.931283 -140.613169 
L 205.091283 -145.903155 
L 216.251283 -157.81997 
L 227.411283 -172.403365 
L 238.571283 -178.50181 
L 249.731283 -180.87202 
L 260.891283 -184.677834 
L 272.051283 -189.959341 
L 283.211283 -187.990441 
L 294.371283 -176.655636 
L 305.531283 -163.914532 
L 316.691283 -160.737684 
L 327.851283 -150.161905 
L 339.011283 -137.308139 
L 350.171283 -130.261533 
L 361.331283 -129.523528 
L 372.491283 -136.597421 
L 383.651283 -164.304155 
L 394.811283 -203.763467 
L 405.971283 -263.197591 
L 405.971283 -329.973156 
L 405.971283 -329.973156 
L 394.811283 -268.51875 
L 383.651283 -231.709818 
L 372.491283 -204.517608 
L 361.331283 -197.046037 
L 350.171283 -199.877866 
L 339.011283 -211.505906 
L 327.851283 -228.982591 
L 316.691283 -242.55337 
L 305.531283 -244.34903 
L 294.371283 -259.78531 
L 283.211283 -273.508141 
L 272.051283 -271.132892 
L 260.891283 -261.087937 
L 249.731283 -255.40386 
L 238.571283 -248.504971 
L 227.411283 -229.924744 
L 216.251283 -204.737695 
L 205.091283 -190.174063 
L 193.931283 -181.448689 
L 182.771283 -173.889991 
L 171.611283 -175.318055 
L 160.451283 -184.508773 
L 149.291283 -178.22307 
L 138.131283 -163.129995 
L 126.971283 -140.795755 
L 115.811283 -121.837168 
L 104.651283 -123.019032 
L 93.491283 -123.294893 
L 82.331283 -132.424958 
L 71.171283 -159.418305 
L 60.011283 -163.895017 
L 48.851283 -157.226706 
z
" style="stroke: #1f77b4; stroke-opacity: 0.2"/>
    </defs>
    <g clip-path="url(#p2be3e7287d)">
     <use xlink:href="#m1e451b5f50" x="0" y="361.333136" style="fill: #1f77b4; fill-opacity: 0.2; stroke: #1f77b4; stroke-opacity: 0.2"/>
    </g>
   </g>
   <g id="PolyCollection_2">
    <defs>
     <path id="mf1b071a3dd" d="M 48.851283 -138.571782 
L 48.851283 -98.390774 
L 60.011283 -96.017683 
L 71.171283 -91.853161 
L 82.331283 -89.230227 
L 93.491283 -91.13626 
L 104.651283 -88.053156 
L 115.811283 -90.658015 
L 126.971283 -94.617303 
L 138.131283 -99.486254 
L 149.291283 -109.490227 
L 160.451283 -115.288857 
L 171.611283 -122.850894 
L 182.771283 -136.736706 
L 193.931283 -137.73546 
L 205.091283 -129.08754 
L 216.251283 -127.296165 
L 227.411283 -133.565499 
L 238.571283 -136.510094 
L 249.731283 -140.070403 
L 260.891283 -127.669847 
L 272.051283 -105.305715 
L 283.211283 -94.659621 
L 294.371283 -104.775457 
L 305.531283 -123.704895 
L 316.691283 -136.020514 
L 327.851283 -135.555929 
L 339.011283 -128.049654 
L 350.171283 -121.778013 
L 361.331283 -124.209574 
L 372.491283 -128.827288 
L 383.651283 -155.110215 
L 394.811283 -194.424115 
L 405.971283 -238.892344 
L 405.971283 -321.006903 
L 405.971283 -321.006903 
L 394.811283 -268.060542 
L 383.651283 -220.55189 
L 372.491283 -186.291224 
L 361.331283 -178.106208 
L 350.171283 -176.477993 
L 339.011283 -186.33548 
L 327.851283 -196.772801 
L 316.691283 -198.712709 
L 305.531283 -186.430016 
L 294.371283 -167.010427 
L 283.211283 -157.510009 
L 272.051283 -166.113088 
L 260.891283 -182.874778 
L 249.731283 -191.99198 
L 238.571283 -185.552498 
L 227.411283 -179.186008 
L 216.251283 -168.993275 
L 205.091283 -169.719528 
L 193.931283 -178.591792 
L 182.771283 -184.680309 
L 171.611283 -175.154046 
L 160.451283 -169.434899 
L 149.291283 -148.751601 
L 138.131283 -130.398898 
L 126.971283 -126.840919 
L 115.811283 -124.213049 
L 104.651283 -123.184525 
L 93.491283 -131.596315 
L 82.331283 -132.871791 
L 71.171283 -133.3112 
L 60.011283 -137.395517 
L 48.851283 -138.571782 
z
" style="stroke: #ff7f0e; stroke-opacity: 0.2"/>
    </defs>
    <g clip-path="url(#p2be3e7287d)">
     <use xlink:href="#mf1b071a3dd" x="0" y="361.333136" style="fill: #ff7f0e; fill-opacity: 0.2; stroke: #ff7f0e; stroke-opacity: 0.2"/>
    </g>
   </g>
   <g id="matplotlib.axis_1">
    <g id="text_1">
     <text style="font: 10px 'Arial', sans-serif; text-anchor: middle" x="227.411283" y="296.533792" transform="rotate(-0 227.411283 296.533792)">Time</text>
    </g>
   </g>
   <g id="matplotlib.axis_2">
    <g id="ytick_1">
     <g id="line2d_1">
      <defs>
       <path id="m01f7c249e3" d="M 0 0 
L -3.5 0 
" style="stroke: #000000; stroke-width: 0.8"/>
      </defs>
      <g>
       <use xlink:href="#m01f7c249e3" x="48.851283" y="276.902868" style="stroke: #000000; stroke-width: 0.8"/>
      </g>
     </g>
     <g id="text_2">
      <text style="font: 10px 'Arial', sans-serif; text-anchor: end" x="41.851283" y="280.481775" transform="rotate(-0 41.851283 280.481775)">−0.2</text>
     </g>
    </g>
    <g id="ytick_2">
     <g id="line2d_2">
      <g>
       <use xlink:href="#m01f7c249e3" x="48.851283" y="244.871122" style="stroke: #000000; stroke-width: 0.8"/>
      </g>
     </g>
     <g id="text_3">
      <text style="font: 10px 'Arial', sans-serif; text-anchor: end" x="41.851283" y="248.450028" transform="rotate(-0 41.851283 248.450028)">−0.1</text>
     </g>
    </g>
    <g id="ytick_3">
     <g id="line2d_3">
      <g>
       <use xlink:href="#m01f7c249e3" x="48.851283" y="212.839376" style="stroke: #000000; stroke-width: 0.8"/>
      </g>
     </g>
     <g id="text_4">
      <text style="font: 10px 'Arial', sans-serif; text-anchor: end" x="41.851283" y="216.418282" transform="rotate(-0 41.851283 216.418282)">0.0</text>
     </g>
    </g>
    <g id="ytick_4">
     <g id="line2d_4">
      <g>
       <use xlink:href="#m01f7c249e3" x="48.851283" y="180.807629" style="stroke: #000000; stroke-width: 0.8"/>
      </g>
     </g>
     <g id="text_5">
      <text style="font: 10px 'Arial', sans-serif; text-anchor: end" x="41.851283" y="184.386536" transform="rotate(-0 41.851283 184.386536)">0.1</text>
     </g>
    </g>
    <g id="ytick_5">
     <g id="line2d_5">
      <g>
       <use xlink:href="#m01f7c249e3" x="48.851283" y="148.775883" style="stroke: #000000; stroke-width: 0.8"/>
      </g>
     </g>
     <g id="text_6">
      <text style="font: 10px 'Arial', sans-serif; text-anchor: end" x="41.851283" y="152.354789" transform="rotate(-0 41.851283 152.354789)">0.2</text>
     </g>
    </g>
    <g id="ytick_6">
     <g id="line2d_6">
      <g>
       <use xlink:href="#m01f7c249e3" x="48.851283" y="116.744137" style="stroke: #000000; stroke-width: 0.8"/>
      </g>
     </g>
     <g id="text_7">
      <text style="font: 10px 'Arial', sans-serif; text-anchor: end" x="41.851283" y="120.323043" transform="rotate(-0 41.851283 120.323043)">0.3</text>
     </g>
    </g>
    <g id="ytick_7">
     <g id="line2d_7">
      <g>
       <use xlink:href="#m01f7c249e3" x="48.851283" y="84.71239" style="stroke: #000000; stroke-width: 0.8"/>
      </g>
     </g>
     <g id="text_8">
      <text style="font: 10px 'Arial', sans-serif; text-anchor: end" x="41.851283" y="88.291297" transform="rotate(-0 41.851283 88.291297)">0.4</text>
     </g>
    </g>
    <g id="ytick_8">
     <g id="line2d_8">
      <g>
       <use xlink:href="#m01f7c249e3" x="48.851283" y="52.680644" style="stroke: #000000; stroke-width: 0.8"/>
      </g>
     </g>
     <g id="text_9">
      <text style="font: 10px 'Arial', sans-serif; text-anchor: end" x="41.851283" y="56.25955" transform="rotate(-0 41.851283 56.25955)">0.5</text>
     </g>
    </g>
    <g id="ytick_9">
     <g id="line2d_9">
      <g>
       <use xlink:href="#m01f7c249e3" x="48.851283" y="20.648898" style="stroke: #000000; stroke-width: 0.8"/>
      </g>
     </g>
     <g id="text_10">
      <text style="font: 10px 'Arial', sans-serif; text-anchor: end" x="41.851283" y="24.227804" transform="rotate(-0 41.851283 24.227804)">0.6</text>
     </g>
    </g>
    <g id="text_11">
     <text style="font: 10px 'Arial', sans-serif; text-anchor: middle" x="16.005971" y="152.31998" transform="rotate(-90 16.005971 152.31998)">Activity</text>
    </g>
   </g>
   <g id="line2d_10">
    <path d="M 48.851283 222.072883 
L 60.011283 216.93504 
L 71.171283 220.568727 
L 82.331283 245.254956 
L 93.491283 253.408143 
L 104.651283 253.891801 
L 115.811283 255.540101 
L 126.971283 237.628475 
L 138.131283 215.955274 
L 149.291283 201.774949 
L 160.451283 197.478883 
L 171.611283 206.394475 
L 182.771283 206.872832 
L 193.931283 200.302206 
L 205.091283 193.294526 
L 216.251283 180.054305 
L 227.411283 160.169081 
L 238.571283 147.829748 
L 249.731283 143.195195 
L 260.891283 138.450249 
L 272.051283 130.78702 
L 283.211283 130.583848 
L 294.371283 143.112663 
L 305.531283 157.201357 
L 316.691283 159.687609 
L 327.851283 171.760889 
L 339.011283 186.926113 
L 350.171283 196.263436 
L 361.331283 198.048354 
L 372.491283 190.775623 
L 383.651283 163.326149 
L 394.811283 125.192027 
L 405.971283 64.747762 
" clip-path="url(#p2be3e7287d)" style="fill: none; stroke: #1f77b4; stroke-width: 1.5; stroke-linecap: square"/>
   </g>
   <g id="line2d_11">
    <path d="M 48.851283 242.851859 
L 60.011283 244.626537 
L 71.171283 248.750955 
L 82.331283 250.282126 
L 93.491283 249.966848 
L 104.651283 255.714296 
L 115.811283 253.897605 
L 126.971283 250.604026 
L 138.131283 246.390561 
L 149.291283 232.212222 
L 160.451283 218.971259 
L 171.611283 212.330665 
L 182.771283 200.624629 
L 193.931283 203.16951 
L 205.091283 211.929602 
L 216.251283 213.188416 
L 227.411283 204.957383 
L 238.571283 200.301841 
L 249.731283 195.301945 
L 260.891283 206.060824 
L 272.051283 225.623735 
L 283.211283 235.248322 
L 294.371283 225.440195 
L 305.531283 206.26568 
L 316.691283 193.966524 
L 327.851283 195.16877 
L 339.011283 204.140568 
L 350.171283 212.205133 
L 361.331283 210.175246 
L 372.491283 203.77388 
L 383.651283 173.502083 
L 394.811283 130.090805 
L 405.971283 81.383513 
" clip-path="url(#p2be3e7287d)" style="fill: none; stroke: #ff7f0e; stroke-width: 1.5; stroke-linecap: square"/>
   </g>
   <g id="line2d_12">
    <path d="M 82.331283 285.37598 
L 82.331283 19.26398 
" clip-path="url(#p2be3e7287d)" style="fill: none; stroke-dasharray: 5.55,2.4; stroke-dashoffset: 0; stroke: #000000; stroke-opacity: 0.5; stroke-width: 1.5"/>
   </g>
   <g id="line2d_13">
    <path d="M 383.651283 285.37598 
L 383.651283 19.26398 
" clip-path="url(#p2be3e7287d)" style="fill: none; stroke-dasharray: 5.55,2.4; stroke-dashoffset: 0; stroke: #000000; stroke-opacity: 0.5; stroke-width: 1.5"/>
   </g>
   <g id="patch_3">
    <path d="M 48.851283 285.37598 
L 405.971283 285.37598 
" style="fill: none; stroke: #000000; stroke-width: 0.8; stroke-linejoin: miter; stroke-linecap: square"/>
   </g>
   <g id="text_12">
    <text style="font: 6.94px 'Arial', sans-serif" transform="translate(10.097767 321.385533) rotate(-35)">-0.1s Sampling</text>
   </g>
   <g id="text_13">
    <text style="font: 6.94px 'Arial', sans-serif" transform="translate(57.794497 311.430872) rotate(-35)">Sampling</text>
   </g>
   <g id="text_14">
    <text style="font: 6.94px 'Arial', sans-serif" transform="translate(319.037191 339.456682) rotate(-35)">Movement to Lateral Port</text>
   </g>
   <g id="text_15">
    <text style="font: 8.33px 'Arial', sans-serif; text-anchor: middle" x="227.411283" y="13.26398" transform="rotate(-0 227.411283 13.26398)">GP4_23_s8_L50_D250_ALM - Trace:97_GP4_23_s8_L50_D250_ALM (when: correct)</text>
   </g>
   <g id="legend_1">
    <g id="patch_4">
     <path d="M 132.02261 354.133136 
L 322.799956 354.133136 
Q 324.187956 354.133136 324.187956 352.745136 
L 324.187956 343.45638 
Q 324.187956 342.06838 322.799956 342.06838 
L 132.02261 342.06838 
Q 130.63461 342.06838 130.63461 343.45638 
L 130.63461 352.745136 
Q 130.63461 354.133136 132.02261 354.133136 
z
" style="fill: #ffffff; opacity: 0.8; stroke: #cccccc; stroke-linejoin: miter"/>
    </g>
    <g id="line2d_14">
     <path d="M 133.41061 347.467483 
L 140.35061 347.467483 
L 147.29061 347.467483 
" style="fill: none; stroke: #1f77b4; stroke-width: 1.5; stroke-linecap: square"/>
    </g>
    <g id="text_16">
     <text style="font: 6.94px 'Arial', sans-serif; text-anchor: start" x="152.84261" y="349.896483" transform="rotate(-0 152.84261 349.896483)">DecisionRight (112 pts)</text>
    </g>
    <g id="line2d_15">
     <path d="M 238.337988 347.467483 
L 245.277988 347.467483 
L 252.217988 347.467483 
" style="fill: none; stroke: #ff7f0e; stroke-width: 1.5; stroke-linecap: square"/>
    </g>
    <g id="text_17">
     <text style="font: 6.94px 'Arial', sans-serif; text-anchor: start" x="257.769988" y="349.896483" transform="rotate(-0 257.769988 349.896483)">DecisionLeft (96 pts)</text>
    </g>
   </g>
  </g>
 </g>
 <defs>
  <clipPath id="p2be3e7287d">
   <rect x="48.851283" y="19.26398" width="357.12" height="266.112"/>
  </clipPath>
 </defs>
</svg>
