<?xml version="1.0" encoding="utf-8" standalone="no"?>
<!DOCTYPE svg PUBLIC "-//W3C//DTD SVG 1.1//EN"
  "http://www.w3.org/Graphics/SVG/1.1/DTD/svg11.dtd">
<svg xmlns:xlink="http://www.w3.org/1999/xlink" width="413.171283pt" height="361.333136pt" viewBox="0 0 413.171283 361.333136" xmlns="http://www.w3.org/2000/svg" version="1.1">
 <metadata>
  <rdf:RDF xmlns:dc="http://purl.org/dc/elements/1.1/" xmlns:cc="http://creativecommons.org/ns#" xmlns:rdf="http://www.w3.org/1999/02/22-rdf-syntax-ns#">
   <cc:Work>
    <dc:type rdf:resource="http://purl.org/dc/dcmitype/StillImage"/>
    <dc:date>2025-12-29T04:07:14.775560</dc:date>
    <dc:format>image/svg+xml</dc:format>
    <dc:creator>
     <cc:Agent>
      <dc:title>Matplotlib v3.8.0, https://matplotlib.org/</dc:title>
     </cc:Agent>
    </dc:creator>
   </cc:Work>
  </rdf:RDF>
 </metadata>
 <defs>
  <style type="text/css">*{stroke-linejoin: round; stroke-linecap: butt}</style>
 </defs>
 <g id="figure_1">
  <g id="patch_1">
   <path d="M 0 361.333136 
L 413.171283 361.333136 
L 413.171283 -0 
L 0 -0 
z
" style="fill: #ffffff"/>
  </g>
  <g id="axes_1">
   <g id="patch_2">
    <path d="M 48.851283 285.37598 
L 405.971283 285.37598 
L 405.971283 19.26398 
L 48.851283 19.26398 
z
" style="fill: #ffffff"/>
   </g>
   <g id="PolyCollection_1">
    <defs>
     <path id="m75e71f6e9c" d="M 48.851283 -219.83857 
L 48.851283 -179.370877 
L 60.011283 -180.508633 
L 71.171283 -184.689681 
L 82.331283 -176.819649 
L 93.491283 -163.002032 
L 104.651283 -146.843452 
L 115.811283 -141.316091 
L 126.971283 -143.261555 
L 138.131283 -150.322797 
L 149.291283 -171.835323 
L 160.451283 -191.920895 
L 171.611283 -205.909478 
L 182.771283 -217.210159 
L 193.931283 -216.795024 
L 205.091283 -211.735255 
L 216.251283 -204.826497 
L 227.411283 -197.029625 
L 238.571283 -204.094468 
L 249.731283 -221.084653 
L 260.891283 -228.363977 
L 272.051283 -224.442202 
L 283.211283 -221.942042 
L 294.371283 -217.481904 
L 305.531283 -215.146826 
L 316.691283 -210.414551 
L 327.851283 -212.566817 
L 339.011283 -207.338855 
L 350.171283 -204.010854 
L 361.331283 -206.049326 
L 372.491283 -216.483416 
L 383.651283 -230.267938 
L 394.811283 -233.647082 
L 405.971283 -228.07048 
L 405.971283 -284.173448 
L 405.971283 -284.173448 
L 394.811283 -292.651347 
L 383.651283 -293.434219 
L 372.491283 -286.873354 
L 361.331283 -281.819221 
L 350.171283 -283.715287 
L 339.011283 -293.365167 
L 327.851283 -303.306136 
L 316.691283 -302.033288 
L 305.531283 -310.657963 
L 294.371283 -315.492629 
L 283.211283 -320.993494 
L 272.051283 -324.658726 
L 260.891283 -329.973156 
L 249.731283 -319.627152 
L 238.571283 -298.601895 
L 227.411283 -290.677348 
L 216.251283 -302.155466 
L 205.091283 -310.297688 
L 193.931283 -312.708791 
L 182.771283 -308.12755 
L 171.611283 -292.692708 
L 160.451283 -276.976279 
L 149.291283 -247.588018 
L 138.131283 -207.584126 
L 126.971283 -185.022235 
L 115.811283 -177.494649 
L 104.651283 -182.319408 
L 93.491283 -198.105403 
L 82.331283 -210.999589 
L 71.171283 -220.291812 
L 60.011283 -219.527966 
L 48.851283 -219.83857 
z
" style="stroke: #1f77b4; stroke-opacity: 0.2"/>
    </defs>
    <g clip-path="url(#p10e6c4e249)">
     <use xlink:href="#m75e71f6e9c" x="0" y="361.333136" style="fill: #1f77b4; fill-opacity: 0.2; stroke: #1f77b4; stroke-opacity: 0.2"/>
    </g>
   </g>
   <g id="PolyCollection_2">
    <defs>
     <path id="md7512fc7e7" d="M 48.851283 -227.788056 
L 48.851283 -175.096257 
L 60.011283 -165.259987 
L 71.171283 -151.429516 
L 82.331283 -151.103319 
L 93.491283 -141.560216 
L 104.651283 -125.299881 
L 115.811283 -112.248216 
L 126.971283 -98.075129 
L 138.131283 -88.053156 
L 149.291283 -95.843335 
L 160.451283 -109.729348 
L 171.611283 -120.545021 
L 182.771283 -123.009743 
L 193.931283 -133.203397 
L 205.091283 -148.637958 
L 216.251283 -157.003557 
L 227.411283 -157.926556 
L 238.571283 -156.165627 
L 249.731283 -154.468443 
L 260.891283 -155.015422 
L 272.051283 -155.660002 
L 283.211283 -158.940696 
L 294.371283 -163.718545 
L 305.531283 -166.213071 
L 316.691283 -171.707052 
L 327.851283 -179.313267 
L 339.011283 -177.20174 
L 350.171283 -180.785721 
L 361.331283 -189.564188 
L 372.491283 -196.903704 
L 383.651283 -215.220895 
L 394.811283 -241.103474 
L 405.971283 -254.16717 
L 405.971283 -289.807114 
L 405.971283 -289.807114 
L 394.811283 -277.154265 
L 383.651283 -256.342163 
L 372.491283 -243.34303 
L 361.331283 -239.841016 
L 350.171283 -234.20998 
L 339.011283 -233.527705 
L 327.851283 -238.698257 
L 316.691283 -234.459655 
L 305.531283 -230.332961 
L 294.371283 -229.956192 
L 283.211283 -230.875084 
L 272.051283 -234.771144 
L 260.891283 -237.446527 
L 249.731283 -233.063837 
L 238.571283 -230.210401 
L 227.411283 -233.587315 
L 216.251283 -235.428111 
L 205.091283 -225.379687 
L 193.931283 -204.676242 
L 182.771283 -185.104806 
L 171.611283 -174.132096 
L 160.451283 -159.926737 
L 149.291283 -142.444799 
L 138.131283 -130.294154 
L 126.971283 -135.824122 
L 115.811283 -148.77502 
L 104.651283 -161.71199 
L 93.491283 -176.567027 
L 82.331283 -184.47311 
L 71.171283 -190.924152 
L 60.011283 -214.088026 
L 48.851283 -227.788056 
z
" style="stroke: #ff7f0e; stroke-opacity: 0.2"/>
    </defs>
    <g clip-path="url(#p10e6c4e249)">
     <use xlink:href="#md7512fc7e7" x="0" y="361.333136" style="fill: #ff7f0e; fill-opacity: 0.2; stroke: #ff7f0e; stroke-opacity: 0.2"/>
    </g>
   </g>
   <g id="matplotlib.axis_1">
    <g id="text_1">
     <text style="font: 10px 'Arial', sans-serif; text-anchor: middle" x="227.411283" y="296.533792" transform="rotate(-0 227.411283 296.533792)">Time</text>
    </g>
   </g>
   <g id="matplotlib.axis_2">
    <g id="ytick_1">
     <g id="line2d_1">
      <defs>
       <path id="mfd7e751a38" d="M 0 0 
L -3.5 0 
" style="stroke: #000000; stroke-width: 0.8"/>
      </defs>
      <g>
       <use xlink:href="#mfd7e751a38" x="48.851283" y="242.878619" style="stroke: #000000; stroke-width: 0.8"/>
      </g>
     </g>
     <g id="text_2">
      <text style="font: 10px 'Arial', sans-serif; text-anchor: end" x="41.851283" y="246.457525" transform="rotate(-0 41.851283 246.457525)">−0.2</text>
     </g>
    </g>
    <g id="ytick_2">
     <g id="line2d_2">
      <g>
       <use xlink:href="#mfd7e751a38" x="48.851283" y="192.748687" style="stroke: #000000; stroke-width: 0.8"/>
      </g>
     </g>
     <g id="text_3">
      <text style="font: 10px 'Arial', sans-serif; text-anchor: end" x="41.851283" y="196.327594" transform="rotate(-0 41.851283 196.327594)">0.0</text>
     </g>
    </g>
    <g id="ytick_3">
     <g id="line2d_3">
      <g>
       <use xlink:href="#mfd7e751a38" x="48.851283" y="142.618756" style="stroke: #000000; stroke-width: 0.8"/>
      </g>
     </g>
     <g id="text_4">
      <text style="font: 10px 'Arial', sans-serif; text-anchor: end" x="41.851283" y="146.197662" transform="rotate(-0 41.851283 146.197662)">0.2</text>
     </g>
    </g>
    <g id="ytick_4">
     <g id="line2d_4">
      <g>
       <use xlink:href="#mfd7e751a38" x="48.851283" y="92.488824" style="stroke: #000000; stroke-width: 0.8"/>
      </g>
     </g>
     <g id="text_5">
      <text style="font: 10px 'Arial', sans-serif; text-anchor: end" x="41.851283" y="96.06773" transform="rotate(-0 41.851283 96.06773)">0.4</text>
     </g>
    </g>
    <g id="ytick_5">
     <g id="line2d_5">
      <g>
       <use xlink:href="#mfd7e751a38" x="48.851283" y="42.358892" style="stroke: #000000; stroke-width: 0.8"/>
      </g>
     </g>
     <g id="text_6">
      <text style="font: 10px 'Arial', sans-serif; text-anchor: end" x="41.851283" y="45.937799" transform="rotate(-0 41.851283 45.937799)">0.6</text>
     </g>
    </g>
    <g id="text_7">
     <text style="font: 10px 'Arial', sans-serif; text-anchor: middle" x="16.005971" y="152.31998" transform="rotate(-90 16.005971 152.31998)">Activity</text>
    </g>
   </g>
   <g id="line2d_6">
    <path d="M 48.851283 161.728413 
L 60.011283 161.314836 
L 71.171283 158.842389 
L 82.331283 167.423517 
L 93.491283 180.779418 
L 104.651283 196.751707 
L 115.811283 201.927766 
L 126.971283 197.19124 
L 138.131283 182.379674 
L 149.291283 151.621465 
L 160.451283 126.884551 
L 171.611283 112.032043 
L 182.771283 98.664283 
L 193.931283 96.58123 
L 205.091283 100.316664 
L 216.251283 107.842153 
L 227.411283 117.479648 
L 238.571283 109.98495 
L 249.731283 90.977235 
L 260.891283 82.164571 
L 272.051283 86.782676 
L 283.211283 89.865364 
L 294.371283 94.845873 
L 305.531283 98.430743 
L 316.691283 105.109215 
L 327.851283 103.396656 
L 339.011283 110.981127 
L 350.171283 117.470064 
L 361.331283 117.39886 
L 372.491283 109.654749 
L 383.651283 99.482055 
L 394.811283 98.183921 
L 405.971283 105.211172 
" clip-path="url(#p10e6c4e249)" style="fill: none; stroke: #1f77b4; stroke-width: 1.5; stroke-linecap: square"/>
   </g>
   <g id="line2d_7">
    <path d="M 48.851283 159.890979 
L 60.011283 171.659131 
L 71.171283 190.156303 
L 82.331283 193.544922 
L 93.491283 202.269515 
L 104.651283 217.8272 
L 115.811283 230.821517 
L 126.971283 244.38351 
L 138.131283 252.159481 
L 149.291283 242.189069 
L 160.451283 226.505093 
L 171.611283 213.994578 
L 182.771283 207.275861 
L 193.931283 192.393318 
L 205.091283 174.324313 
L 216.251283 165.117303 
L 227.411283 165.576198 
L 238.571283 168.145121 
L 249.731283 167.566998 
L 260.891283 165.102163 
L 272.051283 166.117562 
L 283.211283 166.425245 
L 294.371283 164.495767 
L 305.531283 163.06012 
L 316.691283 158.24978 
L 327.851283 152.327375 
L 339.011283 155.968411 
L 350.171283 153.835284 
L 361.331283 146.630532 
L 372.491283 141.209767 
L 383.651283 125.551607 
L 394.811283 102.204266 
L 405.971283 89.345994 
" clip-path="url(#p10e6c4e249)" style="fill: none; stroke: #ff7f0e; stroke-width: 1.5; stroke-linecap: square"/>
   </g>
   <g id="line2d_8">
    <path d="M 82.331283 285.37598 
L 82.331283 19.26398 
" clip-path="url(#p10e6c4e249)" style="fill: none; stroke-dasharray: 5.55,2.4; stroke-dashoffset: 0; stroke: #000000; stroke-opacity: 0.5; stroke-width: 1.5"/>
   </g>
   <g id="line2d_9">
    <path d="M 383.651283 285.37598 
L 383.651283 19.26398 
" clip-path="url(#p10e6c4e249)" style="fill: none; stroke-dasharray: 5.55,2.4; stroke-dashoffset: 0; stroke: #000000; stroke-opacity: 0.5; stroke-width: 1.5"/>
   </g>
   <g id="patch_3">
    <path d="M 48.851283 285.37598 
L 405.971283 285.37598 
" style="fill: none; stroke: #000000; stroke-width: 0.8; stroke-linejoin: miter; stroke-linecap: square"/>
   </g>
   <g id="text_8">
    <text style="font: 6.94px 'Arial', sans-serif" transform="translate(10.097767 321.385533) rotate(-35)">-0.1s Sampling</text>
   </g>
   <g id="text_9">
    <text style="font: 6.94px 'Arial', sans-serif" transform="translate(57.794497 311.430872) rotate(-35)">Sampling</text>
   </g>
   <g id="text_10">
    <text style="font: 6.94px 'Arial', sans-serif" transform="translate(319.037191 339.456682) rotate(-35)">Movement to Lateral Port</text>
   </g>
   <g id="text_11">
    <text style="font: 8.33px 'Arial', sans-serif; text-anchor: middle" x="227.411283" y="13.26398" transform="rotate(-0 227.411283 13.26398)">GP4_23_s8_L50_D250_ALM - Trace:99_GP4_23_s8_L50_D250_ALM (when: correct)</text>
   </g>
   <g id="legend_1">
    <g id="patch_4">
     <path d="M 132.02261 354.133136 
L 322.799956 354.133136 
Q 324.187956 354.133136 324.187956 352.745136 
L 324.187956 343.45638 
Q 324.187956 342.06838 322.799956 342.06838 
L 132.02261 342.06838 
Q 130.63461 342.06838 130.63461 343.45638 
L 130.63461 352.745136 
Q 130.63461 354.133136 132.02261 354.133136 
z
" style="fill: #ffffff; opacity: 0.8; stroke: #cccccc; stroke-linejoin: miter"/>
    </g>
    <g id="line2d_10">
     <path d="M 133.41061 347.467483 
L 140.35061 347.467483 
L 147.29061 347.467483 
" style="fill: none; stroke: #1f77b4; stroke-width: 1.5; stroke-linecap: square"/>
    </g>
    <g id="text_12">
     <text style="font: 6.94px 'Arial', sans-serif; text-anchor: start" x="152.84261" y="349.896483" transform="rotate(-0 152.84261 349.896483)">DecisionRight (112 pts)</text>
    </g>
    <g id="line2d_11">
     <path d="M 238.337988 347.467483 
L 245.277988 347.467483 
L 252.217988 347.467483 
" style="fill: none; stroke: #ff7f0e; stroke-width: 1.5; stroke-linecap: square"/>
    </g>
    <g id="text_13">
     <text style="font: 6.94px 'Arial', sans-serif; text-anchor: start" x="257.769988" y="349.896483" transform="rotate(-0 257.769988 349.896483)">DecisionLeft (96 pts)</text>
    </g>
   </g>
  </g>
 </g>
 <defs>
  <clipPath id="p10e6c4e249">
   <rect x="48.851283" y="19.26398" width="357.12" height="266.112"/>
  </clipPath>
 </defs>
</svg>
