<?xml version="1.0" encoding="utf-8" standalone="no"?>
<!DOCTYPE svg PUBLIC "-//W3C//DTD SVG 1.1//EN"
  "http://www.w3.org/Graphics/SVG/1.1/DTD/svg11.dtd">
<svg xmlns:xlink="http://www.w3.org/1999/xlink" width="413.171283pt" height="361.333136pt" viewBox="0 0 413.171283 361.333136" xmlns="http://www.w3.org/2000/svg" version="1.1">
 <metadata>
  <rdf:RDF xmlns:dc="http://purl.org/dc/elements/1.1/" xmlns:cc="http://creativecommons.org/ns#" xmlns:rdf="http://www.w3.org/1999/02/22-rdf-syntax-ns#">
   <cc:Work>
    <dc:type rdf:resource="http://purl.org/dc/dcmitype/StillImage"/>
    <dc:date>2025-12-29T04:07:28.320155</dc:date>
    <dc:format>image/svg+xml</dc:format>
    <dc:creator>
     <cc:Agent>
      <dc:title>Matplotlib v3.8.0, https://matplotlib.org/</dc:title>
     </cc:Agent>
    </dc:creator>
   </cc:Work>
  </rdf:RDF>
 </metadata>
 <defs>
  <style type="text/css">*{stroke-linejoin: round; stroke-linecap: butt}</style>
 </defs>
 <g id="figure_1">
  <g id="patch_1">
   <path d="M 0 361.333136 
L 413.171283 361.333136 
L 413.171283 -0 
L 0 -0 
z
" style="fill: #ffffff"/>
  </g>
  <g id="axes_1">
   <g id="patch_2">
    <path d="M 48.851283 285.37598 
L 405.971283 285.37598 
L 405.971283 19.26398 
L 48.851283 19.26398 
z
" style="fill: #ffffff"/>
   </g>
   <g id="PolyCollection_1">
    <defs>
     <path id="m8d3b62c647" d="M 48.851283 -155.547522 
L 48.851283 -100.733698 
L 60.011283 -98.142581 
L 71.171283 -92.387882 
L 82.331283 -88.053156 
L 93.491283 -107.509714 
L 104.651283 -127.866179 
L 115.811283 -139.774674 
L 126.971283 -138.180164 
L 138.131283 -138.769464 
L 149.291283 -144.062678 
L 160.451283 -143.714081 
L 171.611283 -153.845039 
L 182.771283 -156.385304 
L 193.931283 -161.120072 
L 205.091283 -166.968953 
L 216.251283 -169.478791 
L 227.411283 -187.289494 
L 238.571283 -208.934211 
L 249.731283 -220.026982 
L 260.891283 -223.296067 
L 272.051283 -218.581656 
L 283.211283 -226.798615 
L 294.371283 -224.960047 
L 305.531283 -222.525574 
L 316.691283 -221.227185 
L 327.851283 -227.566519 
L 339.011283 -232.593467 
L 350.171283 -232.445026 
L 361.331283 -220.024161 
L 372.491283 -215.4499 
L 383.651283 -225.10496 
L 394.811283 -229.753686 
L 405.971283 -218.530198 
L 405.971283 -290.692929 
L 405.971283 -290.692929 
L 394.811283 -305.088075 
L 383.651283 -300.183416 
L 372.491283 -289.255044 
L 361.331283 -294.668377 
L 350.171283 -308.708014 
L 339.011283 -309.879207 
L 327.851283 -302.082781 
L 316.691283 -293.543432 
L 305.531283 -295.137473 
L 294.371283 -298.836432 
L 283.211283 -301.059641 
L 272.051283 -290.069153 
L 260.891283 -290.527369 
L 249.731283 -289.164078 
L 238.571283 -279.158856 
L 227.411283 -257.386734 
L 216.251283 -238.313264 
L 205.091283 -231.060635 
L 193.931283 -220.791656 
L 182.771283 -213.640386 
L 171.611283 -211.202758 
L 160.451283 -200.569223 
L 149.291283 -201.201291 
L 138.131283 -193.465698 
L 126.971283 -189.656539 
L 115.811283 -191.634742 
L 104.651283 -181.180813 
L 93.491283 -160.863337 
L 82.331283 -138.35144 
L 71.171283 -139.991355 
L 60.011283 -148.471803 
L 48.851283 -155.547522 
z
" style="stroke: #1f77b4; stroke-opacity: 0.2"/>
    </defs>
    <g clip-path="url(#p44344c8534)">
     <use xlink:href="#m8d3b62c647" x="0" y="361.333136" style="fill: #1f77b4; fill-opacity: 0.2; stroke: #1f77b4; stroke-opacity: 0.2"/>
    </g>
   </g>
   <g id="PolyCollection_2">
    <defs>
     <path id="mf3e33eae65" d="M 48.851283 -173.344 
L 48.851283 -106.046174 
L 60.011283 -109.914146 
L 71.171283 -108.228458 
L 82.331283 -115.563254 
L 93.491283 -122.162721 
L 104.651283 -114.79012 
L 115.811283 -134.829877 
L 126.971283 -147.42205 
L 138.131283 -156.892832 
L 149.291283 -164.4382 
L 160.451283 -165.4265 
L 171.611283 -173.407827 
L 182.771283 -183.739626 
L 193.931283 -197.693919 
L 205.091283 -202.676757 
L 216.251283 -203.86251 
L 227.411283 -227.020405 
L 238.571283 -236.458856 
L 249.731283 -223.899709 
L 260.891283 -224.381537 
L 272.051283 -222.457139 
L 283.211283 -232.846534 
L 294.371283 -226.285118 
L 305.531283 -224.815017 
L 316.691283 -230.19602 
L 327.851283 -236.988898 
L 339.011283 -252.719987 
L 350.171283 -254.904926 
L 361.331283 -241.458609 
L 372.491283 -236.926817 
L 383.651283 -228.985934 
L 394.811283 -213.608999 
L 405.971283 -205.726106 
L 405.971283 -281.486925 
L 405.971283 -281.486925 
L 394.811283 -292.229419 
L 383.651283 -306.50445 
L 372.491283 -310.839624 
L 361.331283 -314.933682 
L 350.171283 -329.973156 
L 339.011283 -325.112204 
L 327.851283 -310.344894 
L 316.691283 -303.201637 
L 305.531283 -297.324182 
L 294.371283 -302.286869 
L 283.211283 -311.030894 
L 272.051283 -299.140471 
L 260.891283 -296.257175 
L 249.731283 -293.564353 
L 238.571283 -308.108379 
L 227.411283 -296.484766 
L 216.251283 -272.771087 
L 205.091283 -276.469871 
L 193.931283 -271.054031 
L 182.771283 -253.102008 
L 171.611283 -240.019286 
L 160.451283 -232.069595 
L 149.291283 -232.071307 
L 138.131283 -220.144707 
L 126.971283 -206.565414 
L 115.811283 -191.450185 
L 104.651283 -172.445147 
L 93.491283 -183.817679 
L 82.331283 -180.976077 
L 71.171283 -176.773309 
L 60.011283 -177.197066 
L 48.851283 -173.344 
z
" style="stroke: #ff7f0e; stroke-opacity: 0.2"/>
    </defs>
    <g clip-path="url(#p44344c8534)">
     <use xlink:href="#mf3e33eae65" x="0" y="361.333136" style="fill: #ff7f0e; fill-opacity: 0.2; stroke: #ff7f0e; stroke-opacity: 0.2"/>
    </g>
   </g>
   <g id="matplotlib.axis_1">
    <g id="text_1">
     <text style="font: 10px 'Arial', sans-serif; text-anchor: middle" x="227.411283" y="296.533792" transform="rotate(-0 227.411283 296.533792)">Time</text>
    </g>
   </g>
   <g id="matplotlib.axis_2">
    <g id="ytick_1">
     <g id="line2d_1">
      <defs>
       <path id="mdd6dcaa5ed" d="M 0 0 
L -3.5 0 
" style="stroke: #000000; stroke-width: 0.8"/>
      </defs>
      <g>
       <use xlink:href="#mdd6dcaa5ed" x="48.851283" y="253.374406" style="stroke: #000000; stroke-width: 0.8"/>
      </g>
     </g>
     <g id="text_2">
      <text style="font: 10px 'Arial', sans-serif; text-anchor: end" x="41.851283" y="256.953312" transform="rotate(-0 41.851283 256.953312)">−0.3</text>
     </g>
    </g>
    <g id="ytick_2">
     <g id="line2d_2">
      <g>
       <use xlink:href="#mdd6dcaa5ed" x="48.851283" y="219.930109" style="stroke: #000000; stroke-width: 0.8"/>
      </g>
     </g>
     <g id="text_3">
      <text style="font: 10px 'Arial', sans-serif; text-anchor: end" x="41.851283" y="223.509015" transform="rotate(-0 41.851283 223.509015)">−0.2</text>
     </g>
    </g>
    <g id="ytick_3">
     <g id="line2d_3">
      <g>
       <use xlink:href="#mdd6dcaa5ed" x="48.851283" y="186.485811" style="stroke: #000000; stroke-width: 0.8"/>
      </g>
     </g>
     <g id="text_4">
      <text style="font: 10px 'Arial', sans-serif; text-anchor: end" x="41.851283" y="190.064717" transform="rotate(-0 41.851283 190.064717)">−0.1</text>
     </g>
    </g>
    <g id="ytick_4">
     <g id="line2d_4">
      <g>
       <use xlink:href="#mdd6dcaa5ed" x="48.851283" y="153.041514" style="stroke: #000000; stroke-width: 0.8"/>
      </g>
     </g>
     <g id="text_5">
      <text style="font: 10px 'Arial', sans-serif; text-anchor: end" x="41.851283" y="156.62042" transform="rotate(-0 41.851283 156.62042)">0.0</text>
     </g>
    </g>
    <g id="ytick_5">
     <g id="line2d_5">
      <g>
       <use xlink:href="#mdd6dcaa5ed" x="48.851283" y="119.597216" style="stroke: #000000; stroke-width: 0.8"/>
      </g>
     </g>
     <g id="text_6">
      <text style="font: 10px 'Arial', sans-serif; text-anchor: end" x="41.851283" y="123.176122" transform="rotate(-0 41.851283 123.176122)">0.1</text>
     </g>
    </g>
    <g id="ytick_6">
     <g id="line2d_6">
      <g>
       <use xlink:href="#mdd6dcaa5ed" x="48.851283" y="86.152919" style="stroke: #000000; stroke-width: 0.8"/>
      </g>
     </g>
     <g id="text_7">
      <text style="font: 10px 'Arial', sans-serif; text-anchor: end" x="41.851283" y="89.731825" transform="rotate(-0 41.851283 89.731825)">0.2</text>
     </g>
    </g>
    <g id="ytick_7">
     <g id="line2d_7">
      <g>
       <use xlink:href="#mdd6dcaa5ed" x="48.851283" y="52.708621" style="stroke: #000000; stroke-width: 0.8"/>
      </g>
     </g>
     <g id="text_8">
      <text style="font: 10px 'Arial', sans-serif; text-anchor: end" x="41.851283" y="56.287527" transform="rotate(-0 41.851283 56.287527)">0.3</text>
     </g>
    </g>
    <g id="ytick_8">
     <g id="line2d_8">
      <g>
       <use xlink:href="#mdd6dcaa5ed" x="48.851283" y="19.264324" style="stroke: #000000; stroke-width: 0.8"/>
      </g>
     </g>
     <g id="text_9">
      <text style="font: 10px 'Arial', sans-serif; text-anchor: end" x="41.851283" y="22.84323" transform="rotate(-0 41.851283 22.84323)">0.4</text>
     </g>
    </g>
    <g id="text_10">
     <text style="font: 10px 'Arial', sans-serif; text-anchor: middle" x="16.005971" y="152.31998" transform="rotate(-90 16.005971 152.31998)">Activity</text>
    </g>
   </g>
   <g id="line2d_9">
    <path d="M 48.851283 233.192526 
L 60.011283 238.025944 
L 71.171283 245.143515 
L 82.331283 248.130838 
L 93.491283 227.14661 
L 104.651283 206.809641 
L 115.811283 195.628427 
L 126.971283 197.414784 
L 138.131283 195.215556 
L 149.291283 188.701151 
L 160.451283 189.191484 
L 171.611283 178.809239 
L 182.771283 176.32029 
L 193.931283 170.377271 
L 205.091283 162.318342 
L 216.251283 157.437107 
L 227.411283 138.995023 
L 238.571283 117.286602 
L 249.731283 106.737606 
L 260.891283 104.421418 
L 272.051283 107.007731 
L 283.211283 97.404007 
L 294.371283 99.434899 
L 305.531283 102.50161 
L 316.691283 103.947828 
L 327.851283 96.508486 
L 339.011283 90.0968 
L 350.171283 90.756617 
L 361.331283 103.986869 
L 372.491283 108.980664 
L 383.651283 98.688951 
L 394.811283 93.912256 
L 405.971283 106.721574 
" clip-path="url(#p44344c8534)" style="fill: none; stroke: #1f77b4; stroke-width: 1.5; stroke-linecap: square"/>
   </g>
   <g id="line2d_10">
    <path d="M 48.851283 221.63805 
L 60.011283 217.777528 
L 71.171283 218.83225 
L 82.331283 213.063472 
L 93.491283 208.342937 
L 104.651283 217.715503 
L 115.811283 198.193106 
L 126.971283 184.339405 
L 138.131283 172.814368 
L 149.291283 163.078383 
L 160.451283 162.58509 
L 171.611283 154.619581 
L 182.771283 142.912319 
L 193.931283 126.959162 
L 205.091283 121.759821 
L 216.251283 123.016339 
L 227.411283 99.580549 
L 238.571283 89.049519 
L 249.731283 102.601103 
L 260.891283 101.01378 
L 272.051283 100.534334 
L 283.211283 89.394423 
L 294.371283 97.047142 
L 305.531283 100.263535 
L 316.691283 94.634308 
L 327.851283 87.666239 
L 339.011283 72.417041 
L 350.171283 68.894097 
L 361.331283 83.136989 
L 372.491283 87.449916 
L 383.651283 93.587944 
L 394.811283 108.413925 
L 405.971283 117.726621 
" clip-path="url(#p44344c8534)" style="fill: none; stroke: #ff7f0e; stroke-width: 1.5; stroke-linecap: square"/>
   </g>
   <g id="line2d_11">
    <path d="M 82.331283 285.37598 
L 82.331283 19.26398 
" clip-path="url(#p44344c8534)" style="fill: none; stroke-dasharray: 5.55,2.4; stroke-dashoffset: 0; stroke: #000000; stroke-opacity: 0.5; stroke-width: 1.5"/>
   </g>
   <g id="line2d_12">
    <path d="M 383.651283 285.37598 
L 383.651283 19.26398 
" clip-path="url(#p44344c8534)" style="fill: none; stroke-dasharray: 5.55,2.4; stroke-dashoffset: 0; stroke: #000000; stroke-opacity: 0.5; stroke-width: 1.5"/>
   </g>
   <g id="patch_3">
    <path d="M 48.851283 285.37598 
L 405.971283 285.37598 
" style="fill: none; stroke: #000000; stroke-width: 0.8; stroke-linejoin: miter; stroke-linecap: square"/>
   </g>
   <g id="text_11">
    <text style="font: 6.94px 'Arial', sans-serif" transform="translate(10.097767 321.385533) rotate(-35)">-0.1s Sampling</text>
   </g>
   <g id="text_12">
    <text style="font: 6.94px 'Arial', sans-serif" transform="translate(57.794497 311.430872) rotate(-35)">Sampling</text>
   </g>
   <g id="text_13">
    <text style="font: 6.94px 'Arial', sans-serif" transform="translate(319.037191 339.456682) rotate(-35)">Movement to Lateral Port</text>
   </g>
   <g id="text_14">
    <text style="font: 8.33px 'Arial', sans-serif; text-anchor: middle" x="227.411283" y="13.26398" transform="rotate(-0 227.411283 13.26398)">GP4_28_S5_L40_D250_M2L - Trace:20_GP4_28_S5_L40_D250_M2L (when: correct)</text>
   </g>
   <g id="legend_1">
    <g id="patch_4">
     <path d="M 133.696342 354.133136 
L 321.126224 354.133136 
Q 322.514224 354.133136 322.514224 352.745136 
L 322.514224 343.45638 
Q 322.514224 342.06838 321.126224 342.06838 
L 133.696342 342.06838 
Q 132.308342 342.06838 132.308342 343.45638 
L 132.308342 352.745136 
Q 132.308342 354.133136 133.696342 354.133136 
z
" style="fill: #ffffff; opacity: 0.8; stroke: #cccccc; stroke-linejoin: miter"/>
    </g>
    <g id="line2d_13">
     <path d="M 135.084342 347.467483 
L 142.024342 347.467483 
L 148.964342 347.467483 
" style="fill: none; stroke: #1f77b4; stroke-width: 1.5; stroke-linecap: square"/>
    </g>
    <g id="text_15">
     <text style="font: 6.94px 'Arial', sans-serif; text-anchor: start" x="154.516342" y="349.896483" transform="rotate(-0 154.516342 349.896483)">DecisionRight (89 pts)</text>
    </g>
    <g id="line2d_14">
     <path d="M 236.664255 347.467483 
L 243.604255 347.467483 
L 250.544255 347.467483 
" style="fill: none; stroke: #ff7f0e; stroke-width: 1.5; stroke-linecap: square"/>
    </g>
    <g id="text_16">
     <text style="font: 6.94px 'Arial', sans-serif; text-anchor: start" x="256.096255" y="349.896483" transform="rotate(-0 256.096255 349.896483)">DecisionLeft (75 pts)</text>
    </g>
   </g>
  </g>
 </g>
 <defs>
  <clipPath id="p44344c8534">
   <rect x="48.851283" y="19.26398" width="357.12" height="266.112"/>
  </clipPath>
 </defs>
</svg>
