<?xml version="1.0" encoding="utf-8" standalone="no"?>
<!DOCTYPE svg PUBLIC "-//W3C//DTD SVG 1.1//EN"
  "http://www.w3.org/Graphics/SVG/1.1/DTD/svg11.dtd">
<svg xmlns:xlink="http://www.w3.org/1999/xlink" width="413.171283pt" height="361.333136pt" viewBox="0 0 413.171283 361.333136" xmlns="http://www.w3.org/2000/svg" version="1.1">
 <metadata>
  <rdf:RDF xmlns:dc="http://purl.org/dc/elements/1.1/" xmlns:cc="http://creativecommons.org/ns#" xmlns:rdf="http://www.w3.org/1999/02/22-rdf-syntax-ns#">
   <cc:Work>
    <dc:type rdf:resource="http://purl.org/dc/dcmitype/StillImage"/>
    <dc:date>2025-12-29T04:07:30.493623</dc:date>
    <dc:format>image/svg+xml</dc:format>
    <dc:creator>
     <cc:Agent>
      <dc:title>Matplotlib v3.8.0, https://matplotlib.org/</dc:title>
     </cc:Agent>
    </dc:creator>
   </cc:Work>
  </rdf:RDF>
 </metadata>
 <defs>
  <style type="text/css">*{stroke-linejoin: round; stroke-linecap: butt}</style>
 </defs>
 <g id="figure_1">
  <g id="patch_1">
   <path d="M 0 361.333136 
L 413.171283 361.333136 
L 413.171283 -0 
L 0 -0 
z
" style="fill: #ffffff"/>
  </g>
  <g id="axes_1">
   <g id="patch_2">
    <path d="M 48.851283 285.37598 
L 405.971283 285.37598 
L 405.971283 19.26398 
L 48.851283 19.26398 
z
" style="fill: #ffffff"/>
   </g>
   <g id="PolyCollection_1">
    <defs>
     <path id="mf489cb2d9d" d="M 48.851283 -329.973156 
L 48.851283 -263.083525 
L 60.011283 -253.731232 
L 71.171283 -254.105116 
L 82.331283 -255.625704 
L 93.491283 -243.224743 
L 104.651283 -228.96332 
L 115.811283 -227.173996 
L 126.971283 -237.250938 
L 138.131283 -236.210858 
L 149.291283 -227.883873 
L 160.451283 -220.66993 
L 171.611283 -227.196305 
L 182.771283 -232.572636 
L 193.931283 -225.092502 
L 205.091283 -217.903166 
L 216.251283 -208.254286 
L 227.411283 -196.378152 
L 238.571283 -200.433718 
L 249.731283 -210.290091 
L 260.891283 -200.91638 
L 272.051283 -191.138344 
L 283.211283 -180.756013 
L 294.371283 -168.551598 
L 305.531283 -161.047987 
L 316.691283 -151.663176 
L 327.851283 -146.41122 
L 339.011283 -155.332047 
L 350.171283 -154.979816 
L 361.331283 -166.710987 
L 372.491283 -177.266228 
L 383.651283 -175.796382 
L 394.811283 -166.101825 
L 405.971283 -165.862229 
L 405.971283 -218.30738 
L 405.971283 -218.30738 
L 394.811283 -218.574454 
L 383.651283 -226.007199 
L 372.491283 -225.611501 
L 361.331283 -215.361653 
L 350.171283 -203.320131 
L 339.011283 -202.770767 
L 327.851283 -194.92691 
L 316.691283 -200.272943 
L 305.531283 -211.581985 
L 294.371283 -220.198283 
L 283.211283 -234.676704 
L 272.051283 -247.279167 
L 260.891283 -258.837451 
L 249.731283 -266.696515 
L 238.571283 -255.82236 
L 227.411283 -253.047515 
L 216.251283 -263.257644 
L 205.091283 -271.909217 
L 193.931283 -279.955049 
L 182.771283 -286.562602 
L 171.611283 -281.468435 
L 160.451283 -274.803107 
L 149.291283 -282.331957 
L 138.131283 -290.586941 
L 126.971283 -290.301416 
L 115.811283 -277.589406 
L 104.651283 -276.631736 
L 93.491283 -292.859127 
L 82.331283 -310.811802 
L 71.171283 -318.339021 
L 60.011283 -319.791726 
L 48.851283 -329.973156 
z
" style="stroke: #1f77b4; stroke-opacity: 0.2"/>
    </defs>
    <g clip-path="url(#p5d486af4b4)">
     <use xlink:href="#mf489cb2d9d" x="0" y="361.333136" style="fill: #1f77b4; fill-opacity: 0.2; stroke: #1f77b4; stroke-opacity: 0.2"/>
    </g>
   </g>
   <g id="PolyCollection_2">
    <defs>
     <path id="ma9d914a370" d="M 48.851283 -236.520144 
L 48.851283 -187.408089 
L 60.011283 -179.911206 
L 71.171283 -180.853389 
L 82.331283 -186.613046 
L 93.491283 -165.653364 
L 104.651283 -149.539101 
L 115.811283 -150.615165 
L 126.971283 -170.841129 
L 138.131283 -180.886865 
L 149.291283 -178.027963 
L 160.451283 -180.100858 
L 171.611283 -169.438406 
L 182.771283 -158.06927 
L 193.931283 -160.275329 
L 205.091283 -149.421862 
L 216.251283 -147.821745 
L 227.411283 -148.517123 
L 238.571283 -138.045179 
L 249.731283 -129.703424 
L 260.891283 -123.975902 
L 272.051283 -127.172663 
L 283.211283 -126.581551 
L 294.371283 -116.263482 
L 305.531283 -111.843091 
L 316.691283 -98.000996 
L 327.851283 -88.053156 
L 339.011283 -94.541015 
L 350.171283 -107.003181 
L 361.331283 -117.401439 
L 372.491283 -127.194895 
L 383.651283 -134.614231 
L 394.811283 -133.156261 
L 405.971283 -120.605176 
L 405.971283 -171.727193 
L 405.971283 -171.727193 
L 394.811283 -183.7806 
L 383.651283 -181.957411 
L 372.491283 -167.076406 
L 361.331283 -159.154524 
L 350.171283 -150.743775 
L 339.011283 -138.073138 
L 327.851283 -133.316668 
L 316.691283 -143.491385 
L 305.531283 -157.626513 
L 294.371283 -161.194391 
L 283.211283 -167.827683 
L 272.051283 -167.246611 
L 260.891283 -166.611792 
L 249.731283 -174.008131 
L 238.571283 -181.87031 
L 227.411283 -191.714373 
L 216.251283 -189.118153 
L 205.091283 -196.66711 
L 193.931283 -211.645839 
L 182.771283 -210.870461 
L 171.611283 -220.151553 
L 160.451283 -231.668346 
L 149.291283 -232.598516 
L 138.131283 -234.641736 
L 126.971283 -221.512493 
L 115.811283 -200.601687 
L 104.651283 -198.046304 
L 93.491283 -213.696625 
L 82.331283 -235.543252 
L 71.171283 -232.058439 
L 60.011283 -230.475573 
L 48.851283 -236.520144 
z
" style="stroke: #ff7f0e; stroke-opacity: 0.2"/>
    </defs>
    <g clip-path="url(#p5d486af4b4)">
     <use xlink:href="#ma9d914a370" x="0" y="361.333136" style="fill: #ff7f0e; fill-opacity: 0.2; stroke: #ff7f0e; stroke-opacity: 0.2"/>
    </g>
   </g>
   <g id="matplotlib.axis_1">
    <g id="text_1">
     <text style="font: 10px 'Arial', sans-serif; text-anchor: middle" x="227.411283" y="296.533792" transform="rotate(-0 227.411283 296.533792)">Time</text>
    </g>
   </g>
   <g id="matplotlib.axis_2">
    <g id="ytick_1">
     <g id="line2d_1">
      <defs>
       <path id="m67ac735648" d="M 0 0 
L -3.5 0 
" style="stroke: #000000; stroke-width: 0.8"/>
      </defs>
      <g>
       <use xlink:href="#m67ac735648" x="48.851283" y="267.2619" style="stroke: #000000; stroke-width: 0.8"/>
      </g>
     </g>
     <g id="text_2">
      <text style="font: 10px 'Arial', sans-serif; text-anchor: end" x="41.851283" y="270.840806" transform="rotate(-0 41.851283 270.840806)">−0.4</text>
     </g>
    </g>
    <g id="ytick_2">
     <g id="line2d_2">
      <g>
       <use xlink:href="#m67ac735648" x="48.851283" y="218.393573" style="stroke: #000000; stroke-width: 0.8"/>
      </g>
     </g>
     <g id="text_3">
      <text style="font: 10px 'Arial', sans-serif; text-anchor: end" x="41.851283" y="221.972479" transform="rotate(-0 41.851283 221.972479)">−0.2</text>
     </g>
    </g>
    <g id="ytick_3">
     <g id="line2d_3">
      <g>
       <use xlink:href="#m67ac735648" x="48.851283" y="169.525246" style="stroke: #000000; stroke-width: 0.8"/>
      </g>
     </g>
     <g id="text_4">
      <text style="font: 10px 'Arial', sans-serif; text-anchor: end" x="41.851283" y="173.104152" transform="rotate(-0 41.851283 173.104152)">0.0</text>
     </g>
    </g>
    <g id="ytick_4">
     <g id="line2d_4">
      <g>
       <use xlink:href="#m67ac735648" x="48.851283" y="120.656919" style="stroke: #000000; stroke-width: 0.8"/>
      </g>
     </g>
     <g id="text_5">
      <text style="font: 10px 'Arial', sans-serif; text-anchor: end" x="41.851283" y="124.235826" transform="rotate(-0 41.851283 124.235826)">0.2</text>
     </g>
    </g>
    <g id="ytick_5">
     <g id="line2d_5">
      <g>
       <use xlink:href="#m67ac735648" x="48.851283" y="71.788593" style="stroke: #000000; stroke-width: 0.8"/>
      </g>
     </g>
     <g id="text_6">
      <text style="font: 10px 'Arial', sans-serif; text-anchor: end" x="41.851283" y="75.367499" transform="rotate(-0 41.851283 75.367499)">0.4</text>
     </g>
    </g>
    <g id="ytick_6">
     <g id="line2d_6">
      <g>
       <use xlink:href="#m67ac735648" x="48.851283" y="22.920266" style="stroke: #000000; stroke-width: 0.8"/>
      </g>
     </g>
     <g id="text_7">
      <text style="font: 10px 'Arial', sans-serif; text-anchor: end" x="41.851283" y="26.499172" transform="rotate(-0 41.851283 26.499172)">0.6</text>
     </g>
    </g>
    <g id="text_8">
     <text style="font: 10px 'Arial', sans-serif; text-anchor: middle" x="16.005971" y="152.31998" transform="rotate(-90 16.005971 152.31998)">Activity</text>
    </g>
   </g>
   <g id="line2d_7">
    <path d="M 48.851283 64.804795 
L 60.011283 74.571657 
L 71.171283 75.111067 
L 82.331283 78.114383 
L 93.491283 93.291201 
L 104.651283 108.535606 
L 115.811283 108.951435 
L 126.971283 97.556959 
L 138.131283 97.934237 
L 149.291283 106.225222 
L 160.451283 113.596618 
L 171.611283 107.000765 
L 182.771283 101.765517 
L 193.931283 108.80936 
L 205.091283 116.426944 
L 216.251283 125.577171 
L 227.411283 136.620303 
L 238.571283 133.205099 
L 249.731283 122.839832 
L 260.891283 131.456219 
L 272.051283 142.12438 
L 283.211283 153.616776 
L 294.371283 166.958196 
L 305.531283 175.018149 
L 316.691283 185.365076 
L 327.851283 190.66407 
L 339.011283 182.281729 
L 350.171283 182.183163 
L 361.331283 170.296816 
L 372.491283 159.894272 
L 383.651283 160.431345 
L 394.811283 168.994996 
L 405.971283 169.248331 
" clip-path="url(#p5d486af4b4)" style="fill: none; stroke: #1f77b4; stroke-width: 1.5; stroke-linecap: square"/>
   </g>
   <g id="line2d_8">
    <path d="M 48.851283 149.369019 
L 60.011283 156.139747 
L 71.171283 154.877222 
L 82.331283 150.254987 
L 93.491283 171.658141 
L 104.651283 187.540434 
L 115.811283 185.72471 
L 126.971283 165.156324 
L 138.131283 153.568836 
L 149.291283 156.019896 
L 160.451283 155.448534 
L 171.611283 166.538156 
L 182.771283 176.86327 
L 193.931283 175.372552 
L 205.091283 188.288649 
L 216.251283 192.863187 
L 227.411283 191.217389 
L 238.571283 201.375391 
L 249.731283 209.47736 
L 260.891283 216.039287 
L 272.051283 214.123497 
L 283.211283 214.128518 
L 294.371283 222.6042 
L 305.531283 226.598334 
L 316.691283 240.586945 
L 327.851283 250.648224 
L 339.011283 245.026057 
L 350.171283 232.459658 
L 361.331283 223.055156 
L 372.491283 214.197486 
L 383.651283 203.047316 
L 394.811283 202.864706 
L 405.971283 215.16695 
" clip-path="url(#p5d486af4b4)" style="fill: none; stroke: #ff7f0e; stroke-width: 1.5; stroke-linecap: square"/>
   </g>
   <g id="line2d_9">
    <path d="M 82.331283 285.37598 
L 82.331283 19.26398 
" clip-path="url(#p5d486af4b4)" style="fill: none; stroke-dasharray: 5.55,2.4; stroke-dashoffset: 0; stroke: #000000; stroke-opacity: 0.5; stroke-width: 1.5"/>
   </g>
   <g id="line2d_10">
    <path d="M 383.651283 285.37598 
L 383.651283 19.26398 
" clip-path="url(#p5d486af4b4)" style="fill: none; stroke-dasharray: 5.55,2.4; stroke-dashoffset: 0; stroke: #000000; stroke-opacity: 0.5; stroke-width: 1.5"/>
   </g>
   <g id="patch_3">
    <path d="M 48.851283 285.37598 
L 405.971283 285.37598 
" style="fill: none; stroke: #000000; stroke-width: 0.8; stroke-linejoin: miter; stroke-linecap: square"/>
   </g>
   <g id="text_9">
    <text style="font: 6.94px 'Arial', sans-serif" transform="translate(10.097767 321.385533) rotate(-35)">-0.1s Sampling</text>
   </g>
   <g id="text_10">
    <text style="font: 6.94px 'Arial', sans-serif" transform="translate(57.794497 311.430872) rotate(-35)">Sampling</text>
   </g>
   <g id="text_11">
    <text style="font: 6.94px 'Arial', sans-serif" transform="translate(319.037191 339.456682) rotate(-35)">Movement to Lateral Port</text>
   </g>
   <g id="text_12">
    <text style="font: 8.33px 'Arial', sans-serif; text-anchor: middle" x="227.411283" y="13.26398" transform="rotate(-0 227.411283 13.26398)">GP4_28_S5_L40_D250_M2L - Trace:25_GP4_28_S5_L40_D250_M2L (when: correct)</text>
   </g>
   <g id="legend_1">
    <g id="patch_4">
     <path d="M 133.696342 354.133136 
L 321.126224 354.133136 
Q 322.514224 354.133136 322.514224 352.745136 
L 322.514224 343.45638 
Q 322.514224 342.06838 321.126224 342.06838 
L 133.696342 342.06838 
Q 132.308342 342.06838 132.308342 343.45638 
L 132.308342 352.745136 
Q 132.308342 354.133136 133.696342 354.133136 
z
" style="fill: #ffffff; opacity: 0.8; stroke: #cccccc; stroke-linejoin: miter"/>
    </g>
    <g id="line2d_11">
     <path d="M 135.084342 347.467483 
L 142.024342 347.467483 
L 148.964342 347.467483 
" style="fill: none; stroke: #1f77b4; stroke-width: 1.5; stroke-linecap: square"/>
    </g>
    <g id="text_13">
     <text style="font: 6.94px 'Arial', sans-serif; text-anchor: start" x="154.516342" y="349.896483" transform="rotate(-0 154.516342 349.896483)">DecisionRight (89 pts)</text>
    </g>
    <g id="line2d_12">
     <path d="M 236.664255 347.467483 
L 243.604255 347.467483 
L 250.544255 347.467483 
" style="fill: none; stroke: #ff7f0e; stroke-width: 1.5; stroke-linecap: square"/>
    </g>
    <g id="text_14">
     <text style="font: 6.94px 'Arial', sans-serif; text-anchor: start" x="256.096255" y="349.896483" transform="rotate(-0 256.096255 349.896483)">DecisionLeft (75 pts)</text>
    </g>
   </g>
  </g>
 </g>
 <defs>
  <clipPath id="p5d486af4b4">
   <rect x="48.851283" y="19.26398" width="357.12" height="266.112"/>
  </clipPath>
 </defs>
</svg>
