<?xml version="1.0" encoding="utf-8" standalone="no"?>
<!DOCTYPE svg PUBLIC "-//W3C//DTD SVG 1.1//EN"
  "http://www.w3.org/Graphics/SVG/1.1/DTD/svg11.dtd">
<svg xmlns:xlink="http://www.w3.org/1999/xlink" width="413.171283pt" height="361.333136pt" viewBox="0 0 413.171283 361.333136" xmlns="http://www.w3.org/2000/svg" version="1.1">
 <metadata>
  <rdf:RDF xmlns:dc="http://purl.org/dc/elements/1.1/" xmlns:cc="http://creativecommons.org/ns#" xmlns:rdf="http://www.w3.org/1999/02/22-rdf-syntax-ns#">
   <cc:Work>
    <dc:type rdf:resource="http://purl.org/dc/dcmitype/StillImage"/>
    <dc:date>2025-12-29T04:07:28.054973</dc:date>
    <dc:format>image/svg+xml</dc:format>
    <dc:creator>
     <cc:Agent>
      <dc:title>Matplotlib v3.8.0, https://matplotlib.org/</dc:title>
     </cc:Agent>
    </dc:creator>
   </cc:Work>
  </rdf:RDF>
 </metadata>
 <defs>
  <style type="text/css">*{stroke-linejoin: round; stroke-linecap: butt}</style>
 </defs>
 <g id="figure_1">
  <g id="patch_1">
   <path d="M 0 361.333136 
L 413.171283 361.333136 
L 413.171283 -0 
L 0 -0 
z
" style="fill: #ffffff"/>
  </g>
  <g id="axes_1">
   <g id="patch_2">
    <path d="M 48.851283 285.37598 
L 405.971283 285.37598 
L 405.971283 19.26398 
L 48.851283 19.26398 
z
" style="fill: #ffffff"/>
   </g>
   <g id="PolyCollection_1">
    <defs>
     <path id="m0e6574d45d" d="M 48.851283 -166.086136 
L 48.851283 -136.789199 
L 60.011283 -152.110596 
L 71.171283 -176.399664 
L 82.331283 -223.959778 
L 93.491283 -247.688031 
L 104.651283 -255.460427 
L 115.811283 -258.22453 
L 126.971283 -255.211929 
L 138.131283 -249.518129 
L 149.291283 -239.150338 
L 160.451283 -222.778726 
L 171.611283 -209.979723 
L 182.771283 -203.350713 
L 193.931283 -190.049656 
L 205.091283 -177.932777 
L 216.251283 -174.788903 
L 227.411283 -162.359539 
L 238.571283 -151.472756 
L 249.731283 -150.251038 
L 260.891283 -150.41946 
L 272.051283 -143.230525 
L 283.211283 -121.927531 
L 294.371283 -112.633051 
L 305.531283 -112.158627 
L 316.691283 -108.536138 
L 327.851283 -106.151679 
L 339.011283 -107.805094 
L 350.171283 -110.170696 
L 361.331283 -108.16809 
L 372.491283 -107.972719 
L 383.651283 -104.346031 
L 394.811283 -96.049854 
L 405.971283 -93.963688 
L 405.971283 -111.560306 
L 405.971283 -111.560306 
L 394.811283 -116.298182 
L 383.651283 -128.939731 
L 372.491283 -132.457634 
L 361.331283 -131.490645 
L 350.171283 -132.692879 
L 339.011283 -131.654667 
L 327.851283 -131.812164 
L 316.691283 -135.575282 
L 305.531283 -139.727537 
L 294.371283 -141.417523 
L 283.211283 -151.885582 
L 272.051283 -174.141299 
L 260.891283 -183.303419 
L 249.731283 -185.472399 
L 238.571283 -190.073408 
L 227.411283 -204.430069 
L 216.251283 -220.215157 
L 205.091283 -226.561229 
L 193.931283 -243.55293 
L 182.771283 -260.360026 
L 171.611283 -267.608622 
L 160.451283 -282.947174 
L 149.291283 -302.892113 
L 138.131283 -311.882324 
L 126.971283 -315.62672 
L 115.811283 -317.037343 
L 104.651283 -313.535333 
L 93.491283 -303.156972 
L 82.331283 -270.147668 
L 71.171283 -212.360237 
L 60.011283 -182.640698 
L 48.851283 -166.086136 
z
" style="stroke: #1f77b4; stroke-opacity: 0.2"/>
    </defs>
    <g clip-path="url(#p76c9a6ab2b)">
     <use xlink:href="#m0e6574d45d" x="0" y="361.333136" style="fill: #1f77b4; fill-opacity: 0.2; stroke: #1f77b4; stroke-opacity: 0.2"/>
    </g>
   </g>
   <g id="PolyCollection_2">
    <defs>
     <path id="m92a5c882c9" d="M 48.851283 -151.112393 
L 48.851283 -114.713266 
L 60.011283 -134.308885 
L 71.171283 -164.999815 
L 82.331283 -207.097832 
L 93.491283 -234.713603 
L 104.651283 -252.090834 
L 115.811283 -252.514793 
L 126.971283 -238.378101 
L 138.131283 -228.079444 
L 149.291283 -214.251713 
L 160.451283 -202.386352 
L 171.611283 -192.591573 
L 182.771283 -179.729516 
L 193.931283 -164.185405 
L 205.091283 -162.328636 
L 216.251283 -164.917714 
L 227.411283 -153.792887 
L 238.571283 -137.708632 
L 249.731283 -127.294191 
L 260.891283 -116.548945 
L 272.051283 -117.961138 
L 283.211283 -123.774465 
L 294.371283 -117.231128 
L 305.531283 -115.301534 
L 316.691283 -119.527891 
L 327.851283 -106.202891 
L 339.011283 -99.509594 
L 350.171283 -103.758773 
L 361.331283 -109.909405 
L 372.491283 -111.931295 
L 383.651283 -112.892661 
L 394.811283 -102.723184 
L 405.971283 -88.053156 
L 405.971283 -107.087252 
L 405.971283 -107.087252 
L 394.811283 -124.946144 
L 383.651283 -138.940541 
L 372.491283 -140.068657 
L 361.331283 -138.683955 
L 350.171283 -131.04245 
L 339.011283 -127.228944 
L 327.851283 -135.819316 
L 316.691283 -148.421928 
L 305.531283 -143.582258 
L 294.371283 -147.26432 
L 283.211283 -156.5045 
L 272.051283 -152.815629 
L 260.891283 -155.322735 
L 249.731283 -169.146212 
L 238.571283 -183.023195 
L 227.411283 -204.238819 
L 216.251283 -218.895578 
L 205.091283 -216.09246 
L 193.931283 -220.301536 
L 182.771283 -240.0703 
L 171.611283 -256.187853 
L 160.451283 -266.967647 
L 149.291283 -280.472434 
L 138.131283 -295.208165 
L 126.971283 -307.552956 
L 115.811283 -328.229158 
L 104.651283 -329.973156 
L 93.491283 -303.728414 
L 82.331283 -261.8973 
L 71.171283 -207.114665 
L 60.011283 -172.822302 
L 48.851283 -151.112393 
z
" style="stroke: #ff7f0e; stroke-opacity: 0.2"/>
    </defs>
    <g clip-path="url(#p76c9a6ab2b)">
     <use xlink:href="#m92a5c882c9" x="0" y="361.333136" style="fill: #ff7f0e; fill-opacity: 0.2; stroke: #ff7f0e; stroke-opacity: 0.2"/>
    </g>
   </g>
   <g id="matplotlib.axis_1">
    <g id="text_1">
     <text style="font: 10px 'Arial', sans-serif; text-anchor: middle" x="227.411283" y="296.533792" transform="rotate(-0 227.411283 296.533792)">Time</text>
    </g>
   </g>
   <g id="matplotlib.axis_2">
    <g id="ytick_1">
     <g id="line2d_1">
      <defs>
       <path id="m3877a39774" d="M 0 0 
L -3.5 0 
" style="stroke: #000000; stroke-width: 0.8"/>
      </defs>
      <g>
       <use xlink:href="#m3877a39774" x="48.851283" y="285.268741" style="stroke: #000000; stroke-width: 0.8"/>
      </g>
     </g>
     <g id="text_2">
      <text style="font: 10px 'Arial', sans-serif; text-anchor: end" x="41.851283" y="288.847647" transform="rotate(-0 41.851283 288.847647)">−0.4</text>
     </g>
    </g>
    <g id="ytick_2">
     <g id="line2d_2">
      <g>
       <use xlink:href="#m3877a39774" x="48.851283" y="244.66391" style="stroke: #000000; stroke-width: 0.8"/>
      </g>
     </g>
     <g id="text_3">
      <text style="font: 10px 'Arial', sans-serif; text-anchor: end" x="41.851283" y="248.242816" transform="rotate(-0 41.851283 248.242816)">−0.2</text>
     </g>
    </g>
    <g id="ytick_3">
     <g id="line2d_3">
      <g>
       <use xlink:href="#m3877a39774" x="48.851283" y="204.059079" style="stroke: #000000; stroke-width: 0.8"/>
      </g>
     </g>
     <g id="text_4">
      <text style="font: 10px 'Arial', sans-serif; text-anchor: end" x="41.851283" y="207.637985" transform="rotate(-0 41.851283 207.637985)">0.0</text>
     </g>
    </g>
    <g id="ytick_4">
     <g id="line2d_4">
      <g>
       <use xlink:href="#m3877a39774" x="48.851283" y="163.454248" style="stroke: #000000; stroke-width: 0.8"/>
      </g>
     </g>
     <g id="text_5">
      <text style="font: 10px 'Arial', sans-serif; text-anchor: end" x="41.851283" y="167.033154" transform="rotate(-0 41.851283 167.033154)">0.2</text>
     </g>
    </g>
    <g id="ytick_5">
     <g id="line2d_5">
      <g>
       <use xlink:href="#m3877a39774" x="48.851283" y="122.849417" style="stroke: #000000; stroke-width: 0.8"/>
      </g>
     </g>
     <g id="text_6">
      <text style="font: 10px 'Arial', sans-serif; text-anchor: end" x="41.851283" y="126.428323" transform="rotate(-0 41.851283 126.428323)">0.4</text>
     </g>
    </g>
    <g id="ytick_6">
     <g id="line2d_6">
      <g>
       <use xlink:href="#m3877a39774" x="48.851283" y="82.244586" style="stroke: #000000; stroke-width: 0.8"/>
      </g>
     </g>
     <g id="text_7">
      <text style="font: 10px 'Arial', sans-serif; text-anchor: end" x="41.851283" y="85.823492" transform="rotate(-0 41.851283 85.823492)">0.6</text>
     </g>
    </g>
    <g id="ytick_7">
     <g id="line2d_7">
      <g>
       <use xlink:href="#m3877a39774" x="48.851283" y="41.639755" style="stroke: #000000; stroke-width: 0.8"/>
      </g>
     </g>
     <g id="text_8">
      <text style="font: 10px 'Arial', sans-serif; text-anchor: end" x="41.851283" y="45.218661" transform="rotate(-0 41.851283 45.218661)">0.8</text>
     </g>
    </g>
    <g id="text_9">
     <text style="font: 10px 'Arial', sans-serif; text-anchor: middle" x="16.005971" y="152.31998" transform="rotate(-90 16.005971 152.31998)">Activity</text>
    </g>
   </g>
   <g id="line2d_8">
    <path d="M 48.851283 209.895468 
L 60.011283 193.957489 
L 71.171283 166.953184 
L 82.331283 114.279413 
L 93.491283 85.910635 
L 104.651283 76.835256 
L 115.811283 73.702199 
L 126.971283 75.913811 
L 138.131283 80.63291 
L 149.291283 90.311907 
L 160.451283 108.470186 
L 171.611283 122.538966 
L 182.771283 129.477766 
L 193.931283 144.531843 
L 205.091283 159.086132 
L 216.251283 163.831106 
L 227.411283 177.938332 
L 238.571283 190.560054 
L 249.731283 193.471418 
L 260.891283 194.471696 
L 272.051283 202.647224 
L 283.211283 224.42658 
L 294.371283 234.307849 
L 305.531283 235.390054 
L 316.691283 239.277426 
L 327.851283 242.351214 
L 339.011283 241.603255 
L 350.171283 239.901348 
L 361.331283 241.503769 
L 372.491283 241.117959 
L 383.651283 244.690255 
L 394.811283 255.159118 
L 405.971283 258.571137 
" clip-path="url(#p76c9a6ab2b)" style="fill: none; stroke: #1f77b4; stroke-width: 1.5; stroke-linecap: square"/>
   </g>
   <g id="line2d_9">
    <path d="M 48.851283 228.420307 
L 60.011283 207.767543 
L 71.171283 175.275896 
L 82.331283 126.83557 
L 93.491283 92.112128 
L 104.651283 70.301138 
L 115.811283 70.96116 
L 126.971283 88.36761 
L 138.131283 99.689332 
L 149.291283 113.971063 
L 160.451283 126.656133 
L 171.611283 136.943421 
L 182.771283 151.433226 
L 193.931283 169.089665 
L 205.091283 172.122588 
L 216.251283 169.42649 
L 227.411283 182.317282 
L 238.571283 200.967222 
L 249.731283 213.112934 
L 260.891283 225.397296 
L 272.051283 225.944753 
L 283.211283 221.193653 
L 294.371283 229.085412 
L 305.531283 231.89124 
L 316.691283 227.358227 
L 327.851283 240.322034 
L 339.011283 247.963867 
L 350.171283 243.932524 
L 361.331283 237.036457 
L 372.491283 235.333161 
L 383.651283 235.416535 
L 394.811283 247.498471 
L 405.971283 263.762932 
" clip-path="url(#p76c9a6ab2b)" style="fill: none; stroke: #ff7f0e; stroke-width: 1.5; stroke-linecap: square"/>
   </g>
   <g id="line2d_10">
    <path d="M 82.331283 285.37598 
L 82.331283 19.26398 
" clip-path="url(#p76c9a6ab2b)" style="fill: none; stroke-dasharray: 5.55,2.4; stroke-dashoffset: 0; stroke: #000000; stroke-opacity: 0.5; stroke-width: 1.5"/>
   </g>
   <g id="line2d_11">
    <path d="M 383.651283 285.37598 
L 383.651283 19.26398 
" clip-path="url(#p76c9a6ab2b)" style="fill: none; stroke-dasharray: 5.55,2.4; stroke-dashoffset: 0; stroke: #000000; stroke-opacity: 0.5; stroke-width: 1.5"/>
   </g>
   <g id="patch_3">
    <path d="M 48.851283 285.37598 
L 405.971283 285.37598 
" style="fill: none; stroke: #000000; stroke-width: 0.8; stroke-linejoin: miter; stroke-linecap: square"/>
   </g>
   <g id="text_10">
    <text style="font: 6.94px 'Arial', sans-serif" transform="translate(10.097767 321.385533) rotate(-35)">-0.1s Sampling</text>
   </g>
   <g id="text_11">
    <text style="font: 6.94px 'Arial', sans-serif" transform="translate(57.794497 311.430872) rotate(-35)">Sampling</text>
   </g>
   <g id="text_12">
    <text style="font: 6.94px 'Arial', sans-serif" transform="translate(319.037191 339.456682) rotate(-35)">Movement to Lateral Port</text>
   </g>
   <g id="text_13">
    <text style="font: 8.33px 'Arial', sans-serif; text-anchor: middle" x="227.411283" y="13.26398" transform="rotate(-0 227.411283 13.26398)">GP4_28_S5_L40_D250_M2L - Trace:30_GP4_28_S5_L40_D250_M2L (when: correct)</text>
   </g>
   <g id="legend_1">
    <g id="patch_4">
     <path d="M 133.696342 354.133136 
L 321.126224 354.133136 
Q 322.514224 354.133136 322.514224 352.745136 
L 322.514224 343.45638 
Q 322.514224 342.06838 321.126224 342.06838 
L 133.696342 342.06838 
Q 132.308342 342.06838 132.308342 343.45638 
L 132.308342 352.745136 
Q 132.308342 354.133136 133.696342 354.133136 
z
" style="fill: #ffffff; opacity: 0.8; stroke: #cccccc; stroke-linejoin: miter"/>
    </g>
    <g id="line2d_12">
     <path d="M 135.084342 347.467483 
L 142.024342 347.467483 
L 148.964342 347.467483 
" style="fill: none; stroke: #1f77b4; stroke-width: 1.5; stroke-linecap: square"/>
    </g>
    <g id="text_14">
     <text style="font: 6.94px 'Arial', sans-serif; text-anchor: start" x="154.516342" y="349.896483" transform="rotate(-0 154.516342 349.896483)">DecisionRight (89 pts)</text>
    </g>
    <g id="line2d_13">
     <path d="M 236.664255 347.467483 
L 243.604255 347.467483 
L 250.544255 347.467483 
" style="fill: none; stroke: #ff7f0e; stroke-width: 1.5; stroke-linecap: square"/>
    </g>
    <g id="text_15">
     <text style="font: 6.94px 'Arial', sans-serif; text-anchor: start" x="256.096255" y="349.896483" transform="rotate(-0 256.096255 349.896483)">DecisionLeft (75 pts)</text>
    </g>
   </g>
  </g>
 </g>
 <defs>
  <clipPath id="p76c9a6ab2b">
   <rect x="48.851283" y="19.26398" width="357.12" height="266.112"/>
  </clipPath>
 </defs>
</svg>
