<?xml version="1.0" encoding="utf-8" standalone="no"?>
<!DOCTYPE svg PUBLIC "-//W3C//DTD SVG 1.1//EN"
  "http://www.w3.org/Graphics/SVG/1.1/DTD/svg11.dtd">
<svg xmlns:xlink="http://www.w3.org/1999/xlink" width="413.171283pt" height="361.333136pt" viewBox="0 0 413.171283 361.333136" xmlns="http://www.w3.org/2000/svg" version="1.1">
 <metadata>
  <rdf:RDF xmlns:dc="http://purl.org/dc/elements/1.1/" xmlns:cc="http://creativecommons.org/ns#" xmlns:rdf="http://www.w3.org/1999/02/22-rdf-syntax-ns#">
   <cc:Work>
    <dc:type rdf:resource="http://purl.org/dc/dcmitype/StillImage"/>
    <dc:date>2025-12-29T04:07:29.092813</dc:date>
    <dc:format>image/svg+xml</dc:format>
    <dc:creator>
     <cc:Agent>
      <dc:title>Matplotlib v3.8.0, https://matplotlib.org/</dc:title>
     </cc:Agent>
    </dc:creator>
   </cc:Work>
  </rdf:RDF>
 </metadata>
 <defs>
  <style type="text/css">*{stroke-linejoin: round; stroke-linecap: butt}</style>
 </defs>
 <g id="figure_1">
  <g id="patch_1">
   <path d="M 0 361.333136 
L 413.171283 361.333136 
L 413.171283 -0 
L 0 -0 
z
" style="fill: #ffffff"/>
  </g>
  <g id="axes_1">
   <g id="patch_2">
    <path d="M 48.851283 285.37598 
L 405.971283 285.37598 
L 405.971283 19.26398 
L 48.851283 19.26398 
z
" style="fill: #ffffff"/>
   </g>
   <g id="PolyCollection_1">
    <defs>
     <path id="m2e85aa404f" d="M 48.851283 -240.863431 
L 48.851283 -149.468328 
L 60.011283 -153.602811 
L 71.171283 -170.896713 
L 82.331283 -211.115294 
L 93.491283 -226.406433 
L 104.651283 -229.006402 
L 115.811283 -212.428295 
L 126.971283 -200.135758 
L 138.131283 -199.657451 
L 149.291283 -195.467864 
L 160.451283 -184.519831 
L 171.611283 -187.282619 
L 182.771283 -167.472892 
L 193.931283 -159.963759 
L 205.091283 -143.130802 
L 216.251283 -121.97034 
L 227.411283 -116.630771 
L 238.571283 -125.55304 
L 249.731283 -124.172234 
L 260.891283 -126.748717 
L 272.051283 -115.73555 
L 283.211283 -107.770857 
L 294.371283 -115.473735 
L 305.531283 -111.844624 
L 316.691283 -108.318306 
L 327.851283 -109.092534 
L 339.011283 -105.791265 
L 350.171283 -103.823015 
L 361.331283 -105.562587 
L 372.491283 -106.348907 
L 383.651283 -103.686022 
L 394.811283 -104.328068 
L 405.971283 -88.053156 
L 405.971283 -122.997395 
L 405.971283 -122.997395 
L 394.811283 -139.902603 
L 383.651283 -140.96226 
L 372.491283 -146.013714 
L 361.331283 -143.244748 
L 350.171283 -142.881756 
L 339.011283 -144.497872 
L 327.851283 -145.925521 
L 316.691283 -145.154103 
L 305.531283 -151.326482 
L 294.371283 -156.498907 
L 283.211283 -147.761681 
L 272.051283 -155.302154 
L 260.891283 -164.242509 
L 249.731283 -163.988754 
L 238.571283 -166.958159 
L 227.411283 -166.916656 
L 216.251283 -177.468204 
L 205.091283 -197.396982 
L 193.931283 -213.578966 
L 182.771283 -222.256298 
L 171.611283 -249.328889 
L 160.451283 -255.607274 
L 149.291283 -268.504919 
L 138.131283 -272.740995 
L 126.971283 -271.299547 
L 115.811283 -287.216136 
L 104.651283 -319.53727 
L 93.491283 -329.973156 
L 82.331283 -311.046621 
L 71.171283 -269.185237 
L 60.011283 -251.936333 
L 48.851283 -240.863431 
z
" style="stroke: #1f77b4; stroke-opacity: 0.2"/>
    </defs>
    <g clip-path="url(#pc5b8b1e65f)">
     <use xlink:href="#m2e85aa404f" x="0" y="361.333136" style="fill: #1f77b4; fill-opacity: 0.2; stroke: #1f77b4; stroke-opacity: 0.2"/>
    </g>
   </g>
   <g id="PolyCollection_2">
    <defs>
     <path id="m222b2fd5e0" d="M 48.851283 -172.931228 
L 48.851283 -118.39728 
L 60.011283 -123.949692 
L 71.171283 -136.410376 
L 82.331283 -162.189922 
L 93.491283 -161.650743 
L 104.651283 -161.964065 
L 115.811283 -169.733634 
L 126.971283 -163.2342 
L 138.131283 -137.362048 
L 149.291283 -136.291174 
L 160.451283 -165.479343 
L 171.611283 -170.326758 
L 182.771283 -142.591981 
L 193.931283 -134.814964 
L 205.091283 -145.190408 
L 216.251283 -129.260925 
L 227.411283 -111.95054 
L 238.571283 -108.724405 
L 249.731283 -107.619053 
L 260.891283 -115.105965 
L 272.051283 -120.113289 
L 283.211283 -112.775501 
L 294.371283 -111.028854 
L 305.531283 -125.448426 
L 316.691283 -117.333022 
L 327.851283 -106.355982 
L 339.011283 -92.584189 
L 350.171283 -100.677042 
L 361.331283 -118.6703 
L 372.491283 -104.361966 
L 383.651283 -102.942996 
L 394.811283 -103.531397 
L 405.971283 -91.565744 
L 405.971283 -137.177153 
L 405.971283 -137.177153 
L 394.811283 -146.76423 
L 383.651283 -149.037493 
L 372.491283 -148.48604 
L 361.331283 -158.235528 
L 350.171283 -141.723412 
L 339.011283 -138.262246 
L 327.851283 -152.057541 
L 316.691283 -159.157526 
L 305.531283 -162.492858 
L 294.371283 -149.635767 
L 283.211283 -150.208219 
L 272.051283 -154.062095 
L 260.891283 -148.069151 
L 249.731283 -142.221953 
L 238.571283 -144.707496 
L 227.411283 -150.160329 
L 216.251283 -167.668997 
L 205.091283 -185.41359 
L 193.931283 -178.859094 
L 182.771283 -186.90123 
L 171.611283 -218.440365 
L 160.451283 -214.462455 
L 149.291283 -187.900337 
L 138.131283 -193.386513 
L 126.971283 -222.588476 
L 115.811283 -232.613129 
L 104.651283 -239.466546 
L 93.491283 -246.274448 
L 82.331283 -241.14863 
L 71.171283 -210.224438 
L 60.011283 -191.038247 
L 48.851283 -172.931228 
z
" style="stroke: #ff7f0e; stroke-opacity: 0.2"/>
    </defs>
    <g clip-path="url(#pc5b8b1e65f)">
     <use xlink:href="#m222b2fd5e0" x="0" y="361.333136" style="fill: #ff7f0e; fill-opacity: 0.2; stroke: #ff7f0e; stroke-opacity: 0.2"/>
    </g>
   </g>
   <g id="matplotlib.axis_1">
    <g id="text_1">
     <text style="font: 10px 'Arial', sans-serif; text-anchor: middle" x="227.411283" y="296.533792" transform="rotate(-0 227.411283 296.533792)">Time</text>
    </g>
   </g>
   <g id="matplotlib.axis_2">
    <g id="ytick_1">
     <g id="line2d_1">
      <defs>
       <path id="m19920d61de" d="M 0 0 
L -3.5 0 
" style="stroke: #000000; stroke-width: 0.8"/>
      </defs>
      <g>
       <use xlink:href="#m19920d61de" x="48.851283" y="265.213342" style="stroke: #000000; stroke-width: 0.8"/>
      </g>
     </g>
     <g id="text_2">
      <text style="font: 10px 'Arial', sans-serif; text-anchor: end" x="41.851283" y="268.792248" transform="rotate(-0 41.851283 268.792248)">−0.3</text>
     </g>
    </g>
    <g id="ytick_2">
     <g id="line2d_2">
      <g>
       <use xlink:href="#m19920d61de" x="48.851283" y="227.04407" style="stroke: #000000; stroke-width: 0.8"/>
      </g>
     </g>
     <g id="text_3">
      <text style="font: 10px 'Arial', sans-serif; text-anchor: end" x="41.851283" y="230.622976" transform="rotate(-0 41.851283 230.622976)">−0.2</text>
     </g>
    </g>
    <g id="ytick_3">
     <g id="line2d_3">
      <g>
       <use xlink:href="#m19920d61de" x="48.851283" y="188.874797" style="stroke: #000000; stroke-width: 0.8"/>
      </g>
     </g>
     <g id="text_4">
      <text style="font: 10px 'Arial', sans-serif; text-anchor: end" x="41.851283" y="192.453703" transform="rotate(-0 41.851283 192.453703)">−0.1</text>
     </g>
    </g>
    <g id="ytick_4">
     <g id="line2d_4">
      <g>
       <use xlink:href="#m19920d61de" x="48.851283" y="150.705525" style="stroke: #000000; stroke-width: 0.8"/>
      </g>
     </g>
     <g id="text_5">
      <text style="font: 10px 'Arial', sans-serif; text-anchor: end" x="41.851283" y="154.284431" transform="rotate(-0 41.851283 154.284431)">0.0</text>
     </g>
    </g>
    <g id="ytick_5">
     <g id="line2d_5">
      <g>
       <use xlink:href="#m19920d61de" x="48.851283" y="112.536252" style="stroke: #000000; stroke-width: 0.8"/>
      </g>
     </g>
     <g id="text_6">
      <text style="font: 10px 'Arial', sans-serif; text-anchor: end" x="41.851283" y="116.115158" transform="rotate(-0 41.851283 116.115158)">0.1</text>
     </g>
    </g>
    <g id="ytick_6">
     <g id="line2d_6">
      <g>
       <use xlink:href="#m19920d61de" x="48.851283" y="74.36698" style="stroke: #000000; stroke-width: 0.8"/>
      </g>
     </g>
     <g id="text_7">
      <text style="font: 10px 'Arial', sans-serif; text-anchor: end" x="41.851283" y="77.945886" transform="rotate(-0 41.851283 77.945886)">0.2</text>
     </g>
    </g>
    <g id="ytick_7">
     <g id="line2d_7">
      <g>
       <use xlink:href="#m19920d61de" x="48.851283" y="36.197707" style="stroke: #000000; stroke-width: 0.8"/>
      </g>
     </g>
     <g id="text_8">
      <text style="font: 10px 'Arial', sans-serif; text-anchor: end" x="41.851283" y="39.776613" transform="rotate(-0 41.851283 39.776613)">0.3</text>
     </g>
    </g>
    <g id="text_9">
     <text style="font: 10px 'Arial', sans-serif; text-anchor: middle" x="16.005971" y="152.31998" transform="rotate(-90 16.005971 152.31998)">Activity</text>
    </g>
   </g>
   <g id="line2d_8">
    <path d="M 48.851283 166.167257 
L 60.011283 158.563565 
L 71.171283 141.292161 
L 82.331283 100.252178 
L 93.491283 83.143341 
L 104.651283 87.0613 
L 115.811283 111.510922 
L 126.971283 125.615483 
L 138.131283 125.133912 
L 149.291283 129.346744 
L 160.451283 141.269582 
L 171.611283 143.027382 
L 182.771283 166.468541 
L 193.931283 174.561775 
L 205.091283 191.069244 
L 216.251283 211.613863 
L 227.411283 219.559422 
L 238.571283 215.077537 
L 249.731283 217.252642 
L 260.891283 215.837523 
L 272.051283 225.814284 
L 283.211283 233.566867 
L 294.371283 225.346815 
L 305.531283 229.747583 
L 316.691283 234.596931 
L 327.851283 233.824108 
L 339.011283 236.188567 
L 350.171283 237.980751 
L 361.331283 236.929465 
L 372.491283 235.151826 
L 383.651283 239.008995 
L 394.811283 239.217801 
L 405.971283 255.80786 
" clip-path="url(#pc5b8b1e65f)" style="fill: none; stroke: #1f77b4; stroke-width: 1.5; stroke-linecap: square"/>
   </g>
   <g id="line2d_9">
    <path d="M 48.851283 215.668883 
L 60.011283 203.839166 
L 71.171283 188.01573 
L 82.331283 159.663858 
L 93.491283 157.370541 
L 104.651283 160.617829 
L 115.811283 160.159755 
L 126.971283 168.421797 
L 138.131283 195.958855 
L 149.291283 199.237379 
L 160.451283 171.362237 
L 171.611283 166.949574 
L 182.771283 196.586532 
L 193.931283 204.496108 
L 205.091283 196.031137 
L 216.251283 212.868175 
L 227.411283 230.277702 
L 238.571283 234.617185 
L 249.731283 236.412633 
L 260.891283 229.745575 
L 272.051283 224.245444 
L 283.211283 229.841276 
L 294.371283 231.000826 
L 305.531283 217.362494 
L 316.691283 223.087862 
L 327.851283 232.126375 
L 339.011283 245.909918 
L 350.171283 240.132906 
L 361.331283 222.880222 
L 372.491283 234.909133 
L 383.651283 235.342891 
L 394.811283 236.185325 
L 405.971283 246.961687 
" clip-path="url(#pc5b8b1e65f)" style="fill: none; stroke: #ff7f0e; stroke-width: 1.5; stroke-linecap: square"/>
   </g>
   <g id="line2d_10">
    <path d="M 82.331283 285.37598 
L 82.331283 19.26398 
" clip-path="url(#pc5b8b1e65f)" style="fill: none; stroke-dasharray: 5.55,2.4; stroke-dashoffset: 0; stroke: #000000; stroke-opacity: 0.5; stroke-width: 1.5"/>
   </g>
   <g id="line2d_11">
    <path d="M 383.651283 285.37598 
L 383.651283 19.26398 
" clip-path="url(#pc5b8b1e65f)" style="fill: none; stroke-dasharray: 5.55,2.4; stroke-dashoffset: 0; stroke: #000000; stroke-opacity: 0.5; stroke-width: 1.5"/>
   </g>
   <g id="patch_3">
    <path d="M 48.851283 285.37598 
L 405.971283 285.37598 
" style="fill: none; stroke: #000000; stroke-width: 0.8; stroke-linejoin: miter; stroke-linecap: square"/>
   </g>
   <g id="text_10">
    <text style="font: 6.94px 'Arial', sans-serif" transform="translate(10.097767 321.385533) rotate(-35)">-0.1s Sampling</text>
   </g>
   <g id="text_11">
    <text style="font: 6.94px 'Arial', sans-serif" transform="translate(57.794497 311.430872) rotate(-35)">Sampling</text>
   </g>
   <g id="text_12">
    <text style="font: 6.94px 'Arial', sans-serif" transform="translate(319.037191 339.456682) rotate(-35)">Movement to Lateral Port</text>
   </g>
   <g id="text_13">
    <text style="font: 8.33px 'Arial', sans-serif; text-anchor: middle" x="227.411283" y="13.26398" transform="rotate(-0 227.411283 13.26398)">GP4_28_S5_L40_D250_M2L - Trace:33_GP4_28_S5_L40_D250_M2L (when: correct)</text>
   </g>
   <g id="legend_1">
    <g id="patch_4">
     <path d="M 133.696342 354.133136 
L 321.126224 354.133136 
Q 322.514224 354.133136 322.514224 352.745136 
L 322.514224 343.45638 
Q 322.514224 342.06838 321.126224 342.06838 
L 133.696342 342.06838 
Q 132.308342 342.06838 132.308342 343.45638 
L 132.308342 352.745136 
Q 132.308342 354.133136 133.696342 354.133136 
z
" style="fill: #ffffff; opacity: 0.8; stroke: #cccccc; stroke-linejoin: miter"/>
    </g>
    <g id="line2d_12">
     <path d="M 135.084342 347.467483 
L 142.024342 347.467483 
L 148.964342 347.467483 
" style="fill: none; stroke: #1f77b4; stroke-width: 1.5; stroke-linecap: square"/>
    </g>
    <g id="text_14">
     <text style="font: 6.94px 'Arial', sans-serif; text-anchor: start" x="154.516342" y="349.896483" transform="rotate(-0 154.516342 349.896483)">DecisionRight (89 pts)</text>
    </g>
    <g id="line2d_13">
     <path d="M 236.664255 347.467483 
L 243.604255 347.467483 
L 250.544255 347.467483 
" style="fill: none; stroke: #ff7f0e; stroke-width: 1.5; stroke-linecap: square"/>
    </g>
    <g id="text_15">
     <text style="font: 6.94px 'Arial', sans-serif; text-anchor: start" x="256.096255" y="349.896483" transform="rotate(-0 256.096255 349.896483)">DecisionLeft (75 pts)</text>
    </g>
   </g>
  </g>
 </g>
 <defs>
  <clipPath id="pc5b8b1e65f">
   <rect x="48.851283" y="19.26398" width="357.12" height="266.112"/>
  </clipPath>
 </defs>
</svg>
