<?xml version="1.0" encoding="utf-8" standalone="no"?>
<!DOCTYPE svg PUBLIC "-//W3C//DTD SVG 1.1//EN"
  "http://www.w3.org/Graphics/SVG/1.1/DTD/svg11.dtd">
<svg xmlns:xlink="http://www.w3.org/1999/xlink" width="413.171283pt" height="361.333136pt" viewBox="0 0 413.171283 361.333136" xmlns="http://www.w3.org/2000/svg" version="1.1">
 <metadata>
  <rdf:RDF xmlns:dc="http://purl.org/dc/elements/1.1/" xmlns:cc="http://creativecommons.org/ns#" xmlns:rdf="http://www.w3.org/1999/02/22-rdf-syntax-ns#">
   <cc:Work>
    <dc:type rdf:resource="http://purl.org/dc/dcmitype/StillImage"/>
    <dc:date>2025-12-29T04:07:29.043200</dc:date>
    <dc:format>image/svg+xml</dc:format>
    <dc:creator>
     <cc:Agent>
      <dc:title>Matplotlib v3.8.0, https://matplotlib.org/</dc:title>
     </cc:Agent>
    </dc:creator>
   </cc:Work>
  </rdf:RDF>
 </metadata>
 <defs>
  <style type="text/css">*{stroke-linejoin: round; stroke-linecap: butt}</style>
 </defs>
 <g id="figure_1">
  <g id="patch_1">
   <path d="M 0 361.333136 
L 413.171283 361.333136 
L 413.171283 -0 
L 0 -0 
z
" style="fill: #ffffff"/>
  </g>
  <g id="axes_1">
   <g id="patch_2">
    <path d="M 48.851283 285.37598 
L 405.971283 285.37598 
L 405.971283 19.26398 
L 48.851283 19.26398 
z
" style="fill: #ffffff"/>
   </g>
   <g id="PolyCollection_1">
    <defs>
     <path id="mcbcda6baa2" d="M 48.851283 -329.973156 
L 48.851283 -249.468096 
L 60.011283 -241.226551 
L 71.171283 -233.685786 
L 82.331283 -219.894071 
L 93.491283 -213.599451 
L 104.651283 -206.147009 
L 115.811283 -191.959667 
L 126.971283 -179.828894 
L 138.131283 -184.218207 
L 149.291283 -184.517721 
L 160.451283 -191.381766 
L 171.611283 -199.368698 
L 182.771283 -207.045197 
L 193.931283 -209.724653 
L 205.091283 -208.344092 
L 216.251283 -205.460713 
L 227.411283 -210.150554 
L 238.571283 -210.980974 
L 249.731283 -199.035842 
L 260.891283 -197.285019 
L 272.051283 -206.823752 
L 283.211283 -194.586325 
L 294.371283 -178.549066 
L 305.531283 -169.35457 
L 316.691283 -162.875345 
L 327.851283 -167.67115 
L 339.011283 -163.812172 
L 350.171283 -148.826137 
L 361.331283 -148.522027 
L 372.491283 -159.161441 
L 383.651283 -174.357614 
L 394.811283 -180.766235 
L 405.971283 -182.577175 
L 405.971283 -227.36919 
L 405.971283 -227.36919 
L 394.811283 -226.185628 
L 383.651283 -220.727161 
L 372.491283 -204.362996 
L 361.331283 -192.269276 
L 350.171283 -193.889168 
L 339.011283 -213.060087 
L 327.851283 -220.161118 
L 316.691283 -214.724707 
L 305.531283 -221.641997 
L 294.371283 -229.36718 
L 283.211283 -245.044566 
L 272.051283 -256.937252 
L 260.891283 -247.412807 
L 249.731283 -251.203058 
L 238.571283 -264.616699 
L 227.411283 -262.410007 
L 216.251283 -258.662774 
L 205.091283 -262.702988 
L 193.931283 -263.991473 
L 182.771283 -261.400546 
L 171.611283 -255.52899 
L 160.451283 -248.936514 
L 149.291283 -241.723884 
L 138.131283 -241.597359 
L 126.971283 -234.543883 
L 115.811283 -247.075026 
L 104.651283 -259.804806 
L 93.491283 -268.443068 
L 82.331283 -279.335148 
L 71.171283 -302.282178 
L 60.011283 -317.422948 
L 48.851283 -329.973156 
z
" style="stroke: #1f77b4; stroke-opacity: 0.2"/>
    </defs>
    <g clip-path="url(#p822947c149)">
     <use xlink:href="#mcbcda6baa2" x="0" y="361.333136" style="fill: #1f77b4; fill-opacity: 0.2; stroke: #1f77b4; stroke-opacity: 0.2"/>
    </g>
   </g>
   <g id="PolyCollection_2">
    <defs>
     <path id="m1f874f013c" d="M 48.851283 -283.809611 
L 48.851283 -195.24339 
L 60.011283 -185.403528 
L 71.171283 -173.6287 
L 82.331283 -164.409015 
L 93.491283 -144.947233 
L 104.651283 -145.785584 
L 115.811283 -149.554749 
L 126.971283 -149.064816 
L 138.131283 -154.040482 
L 149.291283 -154.260058 
L 160.451283 -148.782356 
L 171.611283 -147.547604 
L 182.771283 -163.406329 
L 193.931283 -182.269038 
L 205.091283 -184.945096 
L 216.251283 -182.482297 
L 227.411283 -179.400591 
L 238.571283 -168.084364 
L 249.731283 -161.864991 
L 260.891283 -164.835233 
L 272.051283 -165.233742 
L 283.211283 -163.19881 
L 294.371283 -157.147247 
L 305.531283 -147.021713 
L 316.691283 -135.518126 
L 327.851283 -119.798443 
L 339.011283 -115.386861 
L 350.171283 -110.769929 
L 361.331283 -100.947075 
L 372.491283 -96.333113 
L 383.651283 -101.020598 
L 394.811283 -97.026501 
L 405.971283 -88.053156 
L 405.971283 -133.391632 
L 405.971283 -133.391632 
L 394.811283 -142.982336 
L 383.651283 -146.620828 
L 372.491283 -142.054917 
L 361.331283 -146.263443 
L 350.171283 -156.650048 
L 339.011283 -167.07088 
L 327.851283 -174.290383 
L 316.691283 -190.635789 
L 305.531283 -200.924134 
L 294.371283 -212.048915 
L 283.211283 -217.81145 
L 272.051283 -222.492901 
L 260.891283 -223.994471 
L 249.731283 -220.150144 
L 238.571283 -227.891515 
L 227.411283 -239.929406 
L 216.251283 -245.623801 
L 205.091283 -248.158512 
L 193.931283 -249.558103 
L 182.771283 -232.936444 
L 171.611283 -218.467296 
L 160.451283 -217.321057 
L 149.291283 -220.937428 
L 138.131283 -218.94535 
L 126.971283 -208.0864 
L 115.811283 -204.475123 
L 104.651283 -198.929016 
L 93.491283 -198.812525 
L 82.331283 -226.693415 
L 71.171283 -247.97524 
L 60.011283 -268.205524 
L 48.851283 -283.809611 
z
" style="stroke: #ff7f0e; stroke-opacity: 0.2"/>
    </defs>
    <g clip-path="url(#p822947c149)">
     <use xlink:href="#m1f874f013c" x="0" y="361.333136" style="fill: #ff7f0e; fill-opacity: 0.2; stroke: #ff7f0e; stroke-opacity: 0.2"/>
    </g>
   </g>
   <g id="matplotlib.axis_1">
    <g id="text_1">
     <text style="font: 10px 'Arial', sans-serif; text-anchor: middle" x="227.411283" y="296.533792" transform="rotate(-0 227.411283 296.533792)">Time</text>
    </g>
   </g>
   <g id="matplotlib.axis_2">
    <g id="ytick_1">
     <g id="line2d_1">
      <defs>
       <path id="m77b478bba3" d="M 0 0 
L -3.5 0 
" style="stroke: #000000; stroke-width: 0.8"/>
      </defs>
      <g>
       <use xlink:href="#m77b478bba3" x="48.851283" y="263.257916" style="stroke: #000000; stroke-width: 0.8"/>
      </g>
     </g>
     <g id="text_2">
      <text style="font: 10px 'Arial', sans-serif; text-anchor: end" x="41.851283" y="266.836822" transform="rotate(-0 41.851283 266.836822)">−0.3</text>
     </g>
    </g>
    <g id="ytick_2">
     <g id="line2d_2">
      <g>
       <use xlink:href="#m77b478bba3" x="48.851283" y="230.586537" style="stroke: #000000; stroke-width: 0.8"/>
      </g>
     </g>
     <g id="text_3">
      <text style="font: 10px 'Arial', sans-serif; text-anchor: end" x="41.851283" y="234.165444" transform="rotate(-0 41.851283 234.165444)">−0.2</text>
     </g>
    </g>
    <g id="ytick_3">
     <g id="line2d_3">
      <g>
       <use xlink:href="#m77b478bba3" x="48.851283" y="197.915159" style="stroke: #000000; stroke-width: 0.8"/>
      </g>
     </g>
     <g id="text_4">
      <text style="font: 10px 'Arial', sans-serif; text-anchor: end" x="41.851283" y="201.494065" transform="rotate(-0 41.851283 201.494065)">−0.1</text>
     </g>
    </g>
    <g id="ytick_4">
     <g id="line2d_4">
      <g>
       <use xlink:href="#m77b478bba3" x="48.851283" y="165.243781" style="stroke: #000000; stroke-width: 0.8"/>
      </g>
     </g>
     <g id="text_5">
      <text style="font: 10px 'Arial', sans-serif; text-anchor: end" x="41.851283" y="168.822687" transform="rotate(-0 41.851283 168.822687)">0.0</text>
     </g>
    </g>
    <g id="ytick_5">
     <g id="line2d_5">
      <g>
       <use xlink:href="#m77b478bba3" x="48.851283" y="132.572402" style="stroke: #000000; stroke-width: 0.8"/>
      </g>
     </g>
     <g id="text_6">
      <text style="font: 10px 'Arial', sans-serif; text-anchor: end" x="41.851283" y="136.151309" transform="rotate(-0 41.851283 136.151309)">0.1</text>
     </g>
    </g>
    <g id="ytick_6">
     <g id="line2d_6">
      <g>
       <use xlink:href="#m77b478bba3" x="48.851283" y="99.901024" style="stroke: #000000; stroke-width: 0.8"/>
      </g>
     </g>
     <g id="text_7">
      <text style="font: 10px 'Arial', sans-serif; text-anchor: end" x="41.851283" y="103.47993" transform="rotate(-0 41.851283 103.47993)">0.2</text>
     </g>
    </g>
    <g id="ytick_7">
     <g id="line2d_7">
      <g>
       <use xlink:href="#m77b478bba3" x="48.851283" y="67.229646" style="stroke: #000000; stroke-width: 0.8"/>
      </g>
     </g>
     <g id="text_8">
      <text style="font: 10px 'Arial', sans-serif; text-anchor: end" x="41.851283" y="70.808552" transform="rotate(-0 41.851283 70.808552)">0.3</text>
     </g>
    </g>
    <g id="ytick_8">
     <g id="line2d_8">
      <g>
       <use xlink:href="#m77b478bba3" x="48.851283" y="34.558267" style="stroke: #000000; stroke-width: 0.8"/>
      </g>
     </g>
     <g id="text_9">
      <text style="font: 10px 'Arial', sans-serif; text-anchor: end" x="41.851283" y="38.137173" transform="rotate(-0 41.851283 38.137173)">0.4</text>
     </g>
    </g>
    <g id="text_10">
     <text style="font: 10px 'Arial', sans-serif; text-anchor: middle" x="16.005971" y="152.31998" transform="rotate(-90 16.005971 152.31998)">Activity</text>
    </g>
   </g>
   <g id="line2d_9">
    <path d="M 48.851283 71.61251 
L 60.011283 82.008386 
L 71.171283 93.349154 
L 82.331283 111.718525 
L 93.491283 120.311876 
L 104.651283 128.357228 
L 115.811283 141.815788 
L 126.971283 154.146748 
L 138.131283 148.425354 
L 149.291283 148.212334 
L 160.451283 141.173995 
L 171.611283 133.884293 
L 182.771283 127.110264 
L 193.931283 124.475072 
L 205.091283 125.809594 
L 216.251283 129.271393 
L 227.411283 125.052855 
L 238.571283 123.534299 
L 249.731283 136.213686 
L 260.891283 138.984223 
L 272.051283 129.452634 
L 283.211283 141.51769 
L 294.371283 157.375012 
L 305.531283 165.834851 
L 316.691283 172.533109 
L 327.851283 167.417002 
L 339.011283 172.897006 
L 350.171283 189.975483 
L 361.331283 190.937485 
L 372.491283 179.570918 
L 383.651283 163.790748 
L 394.811283 157.857204 
L 405.971283 156.359953 
" clip-path="url(#p822947c149)" style="fill: none; stroke: #1f77b4; stroke-width: 1.5; stroke-linecap: square"/>
   </g>
   <g id="line2d_10">
    <path d="M 48.851283 121.806635 
L 60.011283 134.528609 
L 71.171283 150.531165 
L 82.331283 165.781921 
L 93.491283 189.453256 
L 104.651283 188.975835 
L 115.811283 184.318199 
L 126.971283 182.757528 
L 138.131283 174.840219 
L 149.291283 173.734393 
L 160.451283 178.281428 
L 171.611283 178.325686 
L 182.771283 163.16175 
L 193.931283 145.419564 
L 205.091283 144.781332 
L 216.251283 147.280087 
L 227.411283 151.668137 
L 238.571283 163.345195 
L 249.731283 170.325568 
L 260.891283 166.918284 
L 272.051283 167.469815 
L 283.211283 170.828006 
L 294.371283 176.735055 
L 305.531283 187.360212 
L 316.691283 198.256177 
L 327.851283 214.288721 
L 339.011283 220.104267 
L 350.171283 227.623149 
L 361.331283 237.727875 
L 372.491283 242.139121 
L 383.651283 237.512423 
L 394.811283 241.32872 
L 405.971283 250.610742 
" clip-path="url(#p822947c149)" style="fill: none; stroke: #ff7f0e; stroke-width: 1.5; stroke-linecap: square"/>
   </g>
   <g id="line2d_11">
    <path d="M 82.331283 285.37598 
L 82.331283 19.26398 
" clip-path="url(#p822947c149)" style="fill: none; stroke-dasharray: 5.55,2.4; stroke-dashoffset: 0; stroke: #000000; stroke-opacity: 0.5; stroke-width: 1.5"/>
   </g>
   <g id="line2d_12">
    <path d="M 383.651283 285.37598 
L 383.651283 19.26398 
" clip-path="url(#p822947c149)" style="fill: none; stroke-dasharray: 5.55,2.4; stroke-dashoffset: 0; stroke: #000000; stroke-opacity: 0.5; stroke-width: 1.5"/>
   </g>
   <g id="patch_3">
    <path d="M 48.851283 285.37598 
L 405.971283 285.37598 
" style="fill: none; stroke: #000000; stroke-width: 0.8; stroke-linejoin: miter; stroke-linecap: square"/>
   </g>
   <g id="text_11">
    <text style="font: 6.94px 'Arial', sans-serif" transform="translate(10.097767 321.385533) rotate(-35)">-0.1s Sampling</text>
   </g>
   <g id="text_12">
    <text style="font: 6.94px 'Arial', sans-serif" transform="translate(57.794497 311.430872) rotate(-35)">Sampling</text>
   </g>
   <g id="text_13">
    <text style="font: 6.94px 'Arial', sans-serif" transform="translate(319.037191 339.456682) rotate(-35)">Movement to Lateral Port</text>
   </g>
   <g id="text_14">
    <text style="font: 8.33px 'Arial', sans-serif; text-anchor: middle" x="227.411283" y="13.26398" transform="rotate(-0 227.411283 13.26398)">GP4_28_S5_L40_D250_M2L - Trace:44_GP4_28_S5_L40_D250_M2L (when: correct)</text>
   </g>
   <g id="legend_1">
    <g id="patch_4">
     <path d="M 133.696342 354.133136 
L 321.126224 354.133136 
Q 322.514224 354.133136 322.514224 352.745136 
L 322.514224 343.45638 
Q 322.514224 342.06838 321.126224 342.06838 
L 133.696342 342.06838 
Q 132.308342 342.06838 132.308342 343.45638 
L 132.308342 352.745136 
Q 132.308342 354.133136 133.696342 354.133136 
z
" style="fill: #ffffff; opacity: 0.8; stroke: #cccccc; stroke-linejoin: miter"/>
    </g>
    <g id="line2d_13">
     <path d="M 135.084342 347.467483 
L 142.024342 347.467483 
L 148.964342 347.467483 
" style="fill: none; stroke: #1f77b4; stroke-width: 1.5; stroke-linecap: square"/>
    </g>
    <g id="text_15">
     <text style="font: 6.94px 'Arial', sans-serif; text-anchor: start" x="154.516342" y="349.896483" transform="rotate(-0 154.516342 349.896483)">DecisionRight (89 pts)</text>
    </g>
    <g id="line2d_14">
     <path d="M 236.664255 347.467483 
L 243.604255 347.467483 
L 250.544255 347.467483 
" style="fill: none; stroke: #ff7f0e; stroke-width: 1.5; stroke-linecap: square"/>
    </g>
    <g id="text_16">
     <text style="font: 6.94px 'Arial', sans-serif; text-anchor: start" x="256.096255" y="349.896483" transform="rotate(-0 256.096255 349.896483)">DecisionLeft (75 pts)</text>
    </g>
   </g>
  </g>
 </g>
 <defs>
  <clipPath id="p822947c149">
   <rect x="48.851283" y="19.26398" width="357.12" height="266.112"/>
  </clipPath>
 </defs>
</svg>
