<?xml version="1.0" encoding="utf-8" standalone="no"?>
<!DOCTYPE svg PUBLIC "-//W3C//DTD SVG 1.1//EN"
  "http://www.w3.org/Graphics/SVG/1.1/DTD/svg11.dtd">
<svg xmlns:xlink="http://www.w3.org/1999/xlink" width="413.171283pt" height="361.333136pt" viewBox="0 0 413.171283 361.333136" xmlns="http://www.w3.org/2000/svg" version="1.1">
 <metadata>
  <rdf:RDF xmlns:dc="http://purl.org/dc/elements/1.1/" xmlns:cc="http://creativecommons.org/ns#" xmlns:rdf="http://www.w3.org/1999/02/22-rdf-syntax-ns#">
   <cc:Work>
    <dc:type rdf:resource="http://purl.org/dc/dcmitype/StillImage"/>
    <dc:date>2025-12-29T04:07:28.945331</dc:date>
    <dc:format>image/svg+xml</dc:format>
    <dc:creator>
     <cc:Agent>
      <dc:title>Matplotlib v3.8.0, https://matplotlib.org/</dc:title>
     </cc:Agent>
    </dc:creator>
   </cc:Work>
  </rdf:RDF>
 </metadata>
 <defs>
  <style type="text/css">*{stroke-linejoin: round; stroke-linecap: butt}</style>
 </defs>
 <g id="figure_1">
  <g id="patch_1">
   <path d="M 0 361.333136 
L 413.171283 361.333136 
L 413.171283 -0 
L 0 -0 
z
" style="fill: #ffffff"/>
  </g>
  <g id="axes_1">
   <g id="patch_2">
    <path d="M 48.851283 285.37598 
L 405.971283 285.37598 
L 405.971283 19.26398 
L 48.851283 19.26398 
z
" style="fill: #ffffff"/>
   </g>
   <g id="PolyCollection_1">
    <defs>
     <path id="ma572e9240f" d="M 48.851283 -228.394454 
L 48.851283 -192.196297 
L 60.011283 -202.395136 
L 71.171283 -222.126565 
L 82.331283 -257.313047 
L 93.491283 -268.913089 
L 104.651283 -260.078631 
L 115.811283 -242.421965 
L 126.971283 -225.522772 
L 138.131283 -220.414843 
L 149.291283 -220.033311 
L 160.451283 -208.915885 
L 171.611283 -197.643983 
L 182.771283 -181.525771 
L 193.931283 -167.651664 
L 205.091283 -160.893512 
L 216.251283 -155.894366 
L 227.411283 -152.415322 
L 238.571283 -150.08447 
L 249.731283 -140.598414 
L 260.891283 -141.543539 
L 272.051283 -136.036295 
L 283.211283 -134.186025 
L 294.371283 -130.127835 
L 305.531283 -125.198567 
L 316.691283 -121.907463 
L 327.851283 -115.319661 
L 339.011283 -103.36736 
L 350.171283 -107.340063 
L 361.331283 -116.068622 
L 372.491283 -124.649189 
L 383.651283 -129.159657 
L 394.811283 -121.627669 
L 405.971283 -107.961856 
L 405.971283 -127.504325 
L 405.971283 -127.504325 
L 394.811283 -143.303682 
L 383.651283 -152.163893 
L 372.491283 -147.157097 
L 361.331283 -138.286222 
L 350.171283 -128.043025 
L 339.011283 -123.641842 
L 327.851283 -134.95936 
L 316.691283 -142.854212 
L 305.531283 -146.902409 
L 294.371283 -152.983671 
L 283.211283 -157.493877 
L 272.051283 -160.022124 
L 260.891283 -164.998566 
L 249.731283 -166.1569 
L 238.571283 -178.269688 
L 227.411283 -182.640348 
L 216.251283 -184.42953 
L 205.091283 -188.341065 
L 193.931283 -196.029402 
L 182.771283 -209.677222 
L 171.611283 -225.362449 
L 160.451283 -240.080724 
L 149.291283 -254.764664 
L 138.131283 -261.052597 
L 126.971283 -273.051872 
L 115.811283 -298.171754 
L 104.651283 -320.582633 
L 93.491283 -329.973156 
L 82.331283 -317.282619 
L 71.171283 -277.330832 
L 60.011283 -249.028947 
L 48.851283 -228.394454 
z
" style="stroke: #1f77b4; stroke-opacity: 0.2"/>
    </defs>
    <g clip-path="url(#p0ecb6ef733)">
     <use xlink:href="#ma572e9240f" x="0" y="361.333136" style="fill: #1f77b4; fill-opacity: 0.2; stroke: #1f77b4; stroke-opacity: 0.2"/>
    </g>
   </g>
   <g id="PolyCollection_2">
    <defs>
     <path id="ma065385a98" d="M 48.851283 -245.284112 
L 48.851283 -199.319759 
L 60.011283 -221.835003 
L 71.171283 -233.645489 
L 82.331283 -242.919214 
L 93.491283 -245.374042 
L 104.651283 -245.954589 
L 115.811283 -236.393897 
L 126.971283 -215.472433 
L 138.131283 -204.280252 
L 149.291283 -191.260518 
L 160.451283 -184.448923 
L 171.611283 -187.188905 
L 182.771283 -179.985971 
L 193.931283 -166.227712 
L 205.091283 -156.814366 
L 216.251283 -149.650546 
L 227.411283 -139.957304 
L 238.571283 -138.337695 
L 249.731283 -135.868824 
L 260.891283 -140.553772 
L 272.051283 -135.091527 
L 283.211283 -121.702271 
L 294.371283 -113.085854 
L 305.531283 -119.784004 
L 316.691283 -118.389133 
L 327.851283 -107.417551 
L 339.011283 -101.342709 
L 350.171283 -108.56168 
L 361.331283 -116.029952 
L 372.491283 -112.149369 
L 383.651283 -99.515777 
L 394.811283 -88.053156 
L 405.971283 -92.413942 
L 405.971283 -113.556916 
L 405.971283 -113.556916 
L 394.811283 -107.365581 
L 383.651283 -117.519743 
L 372.491283 -131.54647 
L 361.331283 -137.018245 
L 350.171283 -129.796648 
L 339.011283 -123.108257 
L 327.851283 -130.424556 
L 316.691283 -142.233832 
L 305.531283 -142.311527 
L 294.371283 -136.267148 
L 283.211283 -144.244868 
L 272.051283 -157.919617 
L 260.891283 -163.942249 
L 249.731283 -161.235351 
L 238.571283 -165.304988 
L 227.411283 -166.416422 
L 216.251283 -176.661637 
L 205.091283 -183.618161 
L 193.931283 -194.254897 
L 182.771283 -210.14657 
L 171.611283 -217.972961 
L 160.451283 -216.917043 
L 149.291283 -223.521221 
L 138.131283 -238.862652 
L 126.971283 -253.269237 
L 115.811283 -282.146383 
L 104.651283 -296.186329 
L 93.491283 -297.572468 
L 82.331283 -300.420346 
L 71.171283 -292.487216 
L 60.011283 -275.708528 
L 48.851283 -245.284112 
z
" style="stroke: #ff7f0e; stroke-opacity: 0.2"/>
    </defs>
    <g clip-path="url(#p0ecb6ef733)">
     <use xlink:href="#ma065385a98" x="0" y="361.333136" style="fill: #ff7f0e; fill-opacity: 0.2; stroke: #ff7f0e; stroke-opacity: 0.2"/>
    </g>
   </g>
   <g id="matplotlib.axis_1">
    <g id="text_1">
     <text style="font: 10px 'Arial', sans-serif; text-anchor: middle" x="227.411283" y="296.533792" transform="rotate(-0 227.411283 296.533792)">Time</text>
    </g>
   </g>
   <g id="matplotlib.axis_2">
    <g id="ytick_1">
     <g id="line2d_1">
      <defs>
       <path id="mcd1f336096" d="M 0 0 
L -3.5 0 
" style="stroke: #000000; stroke-width: 0.8"/>
      </defs>
      <g>
       <use xlink:href="#mcd1f336096" x="48.851283" y="263.640588" style="stroke: #000000; stroke-width: 0.8"/>
      </g>
     </g>
     <g id="text_2">
      <text style="font: 10px 'Arial', sans-serif; text-anchor: end" x="41.851283" y="267.219495" transform="rotate(-0 41.851283 267.219495)">−0.4</text>
     </g>
    </g>
    <g id="ytick_2">
     <g id="line2d_2">
      <g>
       <use xlink:href="#mcd1f336096" x="48.851283" y="233.528309" style="stroke: #000000; stroke-width: 0.8"/>
      </g>
     </g>
     <g id="text_3">
      <text style="font: 10px 'Arial', sans-serif; text-anchor: end" x="41.851283" y="237.107215" transform="rotate(-0 41.851283 237.107215)">−0.2</text>
     </g>
    </g>
    <g id="ytick_3">
     <g id="line2d_3">
      <g>
       <use xlink:href="#mcd1f336096" x="48.851283" y="203.41603" style="stroke: #000000; stroke-width: 0.8"/>
      </g>
     </g>
     <g id="text_4">
      <text style="font: 10px 'Arial', sans-serif; text-anchor: end" x="41.851283" y="206.994936" transform="rotate(-0 41.851283 206.994936)">0.0</text>
     </g>
    </g>
    <g id="ytick_4">
     <g id="line2d_4">
      <g>
       <use xlink:href="#mcd1f336096" x="48.851283" y="173.30375" style="stroke: #000000; stroke-width: 0.8"/>
      </g>
     </g>
     <g id="text_5">
      <text style="font: 10px 'Arial', sans-serif; text-anchor: end" x="41.851283" y="176.882657" transform="rotate(-0 41.851283 176.882657)">0.2</text>
     </g>
    </g>
    <g id="ytick_5">
     <g id="line2d_5">
      <g>
       <use xlink:href="#mcd1f336096" x="48.851283" y="143.191471" style="stroke: #000000; stroke-width: 0.8"/>
      </g>
     </g>
     <g id="text_6">
      <text style="font: 10px 'Arial', sans-serif; text-anchor: end" x="41.851283" y="146.770377" transform="rotate(-0 41.851283 146.770377)">0.4</text>
     </g>
    </g>
    <g id="ytick_6">
     <g id="line2d_6">
      <g>
       <use xlink:href="#mcd1f336096" x="48.851283" y="113.079192" style="stroke: #000000; stroke-width: 0.8"/>
      </g>
     </g>
     <g id="text_7">
      <text style="font: 10px 'Arial', sans-serif; text-anchor: end" x="41.851283" y="116.658098" transform="rotate(-0 41.851283 116.658098)">0.6</text>
     </g>
    </g>
    <g id="ytick_7">
     <g id="line2d_7">
      <g>
       <use xlink:href="#mcd1f336096" x="48.851283" y="82.966912" style="stroke: #000000; stroke-width: 0.8"/>
      </g>
     </g>
     <g id="text_8">
      <text style="font: 10px 'Arial', sans-serif; text-anchor: end" x="41.851283" y="86.545819" transform="rotate(-0 41.851283 86.545819)">0.8</text>
     </g>
    </g>
    <g id="ytick_8">
     <g id="line2d_8">
      <g>
       <use xlink:href="#mcd1f336096" x="48.851283" y="52.854633" style="stroke: #000000; stroke-width: 0.8"/>
      </g>
     </g>
     <g id="text_9">
      <text style="font: 10px 'Arial', sans-serif; text-anchor: end" x="41.851283" y="56.433539" transform="rotate(-0 41.851283 56.433539)">1.0</text>
     </g>
    </g>
    <g id="ytick_9">
     <g id="line2d_9">
      <g>
       <use xlink:href="#mcd1f336096" x="48.851283" y="22.742354" style="stroke: #000000; stroke-width: 0.8"/>
      </g>
     </g>
     <g id="text_10">
      <text style="font: 10px 'Arial', sans-serif; text-anchor: end" x="41.851283" y="26.32126" transform="rotate(-0 41.851283 26.32126)">1.2</text>
     </g>
    </g>
    <g id="text_11">
     <text style="font: 10px 'Arial', sans-serif; text-anchor: middle" x="16.005971" y="152.31998" transform="rotate(-90 16.005971 152.31998)">Activity</text>
    </g>
   </g>
   <g id="line2d_10">
    <path d="M 48.851283 151.037761 
L 60.011283 135.621094 
L 71.171283 111.604438 
L 82.331283 74.035307 
L 93.491283 61.890013 
L 104.651283 71.002508 
L 115.811283 91.036276 
L 126.971283 112.045814 
L 138.131283 120.599416 
L 149.291283 123.934151 
L 160.451283 136.834831 
L 171.611283 149.82992 
L 182.771283 165.73164 
L 193.931283 179.492603 
L 205.091283 186.715847 
L 216.251283 191.171187 
L 227.411283 193.805301 
L 238.571283 197.156057 
L 249.731283 207.955479 
L 260.891283 208.062083 
L 272.051283 213.303926 
L 283.211283 215.493184 
L 294.371283 219.777383 
L 305.531283 225.282648 
L 316.691283 228.952298 
L 327.851283 236.193626 
L 339.011283 247.828535 
L 350.171283 243.641592 
L 361.331283 234.155715 
L 372.491283 225.429993 
L 383.651283 220.671361 
L 394.811283 228.867461 
L 405.971283 243.600046 
" clip-path="url(#p0ecb6ef733)" style="fill: none; stroke: #1f77b4; stroke-width: 1.5; stroke-linecap: square"/>
   </g>
   <g id="line2d_11">
    <path d="M 48.851283 139.031198 
L 60.011283 112.56137 
L 71.171283 98.266783 
L 82.331283 89.663356 
L 93.491283 89.859881 
L 104.651283 90.262677 
L 115.811283 102.062996 
L 126.971283 126.962301 
L 138.131283 139.761686 
L 149.291283 153.942265 
L 160.451283 160.650153 
L 171.611283 158.752203 
L 182.771283 166.266865 
L 193.931283 181.091832 
L 205.091283 191.116872 
L 216.251283 198.177045 
L 227.411283 208.146273 
L 238.571283 209.511794 
L 249.731283 212.781048 
L 260.891283 209.085126 
L 272.051283 214.827564 
L 283.211283 228.359567 
L 294.371283 236.656634 
L 305.531283 230.285372 
L 316.691283 231.021654 
L 327.851283 242.412082 
L 339.011283 249.107653 
L 350.171283 242.153972 
L 361.331283 234.809039 
L 372.491283 239.485217 
L 383.651283 252.815376 
L 394.811283 263.623767 
L 405.971283 258.347707 
" clip-path="url(#p0ecb6ef733)" style="fill: none; stroke: #ff7f0e; stroke-width: 1.5; stroke-linecap: square"/>
   </g>
   <g id="line2d_12">
    <path d="M 82.331283 285.37598 
L 82.331283 19.26398 
" clip-path="url(#p0ecb6ef733)" style="fill: none; stroke-dasharray: 5.55,2.4; stroke-dashoffset: 0; stroke: #000000; stroke-opacity: 0.5; stroke-width: 1.5"/>
   </g>
   <g id="line2d_13">
    <path d="M 383.651283 285.37598 
L 383.651283 19.26398 
" clip-path="url(#p0ecb6ef733)" style="fill: none; stroke-dasharray: 5.55,2.4; stroke-dashoffset: 0; stroke: #000000; stroke-opacity: 0.5; stroke-width: 1.5"/>
   </g>
   <g id="patch_3">
    <path d="M 48.851283 285.37598 
L 405.971283 285.37598 
" style="fill: none; stroke: #000000; stroke-width: 0.8; stroke-linejoin: miter; stroke-linecap: square"/>
   </g>
   <g id="text_12">
    <text style="font: 6.94px 'Arial', sans-serif" transform="translate(10.097767 321.385533) rotate(-35)">-0.1s Sampling</text>
   </g>
   <g id="text_13">
    <text style="font: 6.94px 'Arial', sans-serif" transform="translate(57.794497 311.430872) rotate(-35)">Sampling</text>
   </g>
   <g id="text_14">
    <text style="font: 6.94px 'Arial', sans-serif" transform="translate(319.037191 339.456682) rotate(-35)">Movement to Lateral Port</text>
   </g>
   <g id="text_15">
    <text style="font: 8.33px 'Arial', sans-serif; text-anchor: middle" x="227.411283" y="13.26398" transform="rotate(-0 227.411283 13.26398)">GP4_28_S5_L40_D250_M2L - Trace:89_GP4_28_S5_L40_D250_M2L (when: correct)</text>
   </g>
   <g id="legend_1">
    <g id="patch_4">
     <path d="M 133.696342 354.133136 
L 321.126224 354.133136 
Q 322.514224 354.133136 322.514224 352.745136 
L 322.514224 343.45638 
Q 322.514224 342.06838 321.126224 342.06838 
L 133.696342 342.06838 
Q 132.308342 342.06838 132.308342 343.45638 
L 132.308342 352.745136 
Q 132.308342 354.133136 133.696342 354.133136 
z
" style="fill: #ffffff; opacity: 0.8; stroke: #cccccc; stroke-linejoin: miter"/>
    </g>
    <g id="line2d_14">
     <path d="M 135.084342 347.467483 
L 142.024342 347.467483 
L 148.964342 347.467483 
" style="fill: none; stroke: #1f77b4; stroke-width: 1.5; stroke-linecap: square"/>
    </g>
    <g id="text_16">
     <text style="font: 6.94px 'Arial', sans-serif; text-anchor: start" x="154.516342" y="349.896483" transform="rotate(-0 154.516342 349.896483)">DecisionRight (89 pts)</text>
    </g>
    <g id="line2d_15">
     <path d="M 236.664255 347.467483 
L 243.604255 347.467483 
L 250.544255 347.467483 
" style="fill: none; stroke: #ff7f0e; stroke-width: 1.5; stroke-linecap: square"/>
    </g>
    <g id="text_17">
     <text style="font: 6.94px 'Arial', sans-serif; text-anchor: start" x="256.096255" y="349.896483" transform="rotate(-0 256.096255 349.896483)">DecisionLeft (75 pts)</text>
    </g>
   </g>
  </g>
 </g>
 <defs>
  <clipPath id="p0ecb6ef733">
   <rect x="48.851283" y="19.26398" width="357.12" height="266.112"/>
  </clipPath>
 </defs>
</svg>
