<?xml version="1.0" encoding="utf-8" standalone="no"?>
<!DOCTYPE svg PUBLIC "-//W3C//DTD SVG 1.1//EN"
  "http://www.w3.org/Graphics/SVG/1.1/DTD/svg11.dtd">
<svg xmlns:xlink="http://www.w3.org/1999/xlink" width="576pt" height="576pt" viewBox="0 0 576 576" xmlns="http://www.w3.org/2000/svg" version="1.1">
 <metadata>
  <rdf:RDF xmlns:dc="http://purl.org/dc/elements/1.1/" xmlns:cc="http://creativecommons.org/ns#" xmlns:rdf="http://www.w3.org/1999/02/22-rdf-syntax-ns#">
   <cc:Work>
    <dc:type rdf:resource="http://purl.org/dc/dcmitype/StillImage"/>
    <dc:date>2026-01-28T00:01:45.031867</dc:date>
    <dc:format>image/svg+xml</dc:format>
    <dc:creator>
     <cc:Agent>
      <dc:title>Matplotlib v3.8.0, https://matplotlib.org/</dc:title>
     </cc:Agent>
    </dc:creator>
   </cc:Work>
  </rdf:RDF>
 </metadata>
 <defs>
  <style type="text/css">*{stroke-linejoin: round; stroke-linecap: butt}</style>
 </defs>
 <g id="figure_1">
  <g id="patch_1">
   <path d="M 0 576 
L 576 576 
L 576 0 
L 0 0 
z
" style="fill: #ffffff"/>
  </g>
  <g id="axes_1">
   <g id="patch_2">
    <path d="M 552.435572 339.636364 
C 532.686603 285.376517 496.707692 238.487887 449.408114 205.368366 
C 402.108535 172.248845 345.742123 154.476583 288 154.476583 
C 230.257877 154.476583 173.891465 172.248845 126.591886 205.368366 
C 79.292308 238.487887 43.313397 285.376517 23.564428 339.636364 
L 288 435.883042 
C 288 435.883042 288 435.883042 288 435.883042 
C 288 435.883042 288 435.883042 288 435.883042 
C 288 435.883042 288 435.883042 288 435.883042 
C 288 435.883042 288 435.883042 288 435.883042 
z
" style="fill: #ffffff"/>
   </g>
   <g id="patch_3">
    <path d="M 288 435.883042 
C 288 435.883042 288 435.883042 288 435.883042 
C 288 435.883042 288 435.883042 288 435.883042 
L 288 435.883042 
C 288 435.883042 288 435.883042 288 435.883042 
C 288 435.883042 288 435.883042 288 435.883042 
z
" clip-path="url(#p7c8c82e4bd)" style="fill: #ff0000"/>
   </g>
   <g id="patch_4">
    <path d="M 288 435.883042 
C 288 435.883042 288 435.883042 288 435.883042 
C 288 435.883042 288 435.883042 288 435.883042 
L 288 435.883042 
C 288 435.883042 288 435.883042 288 435.883042 
C 288 435.883042 288 435.883042 288 435.883042 
z
" clip-path="url(#p7c8c82e4bd)" style="fill: #ff0000"/>
   </g>
   <g id="patch_5">
    <path d="M 288 435.883042 
C 288 435.883042 288 435.883042 288 435.883042 
C 288 435.883042 288 435.883042 288 435.883042 
L 288 435.883042 
C 288 435.883042 288 435.883042 288 435.883042 
C 288 435.883042 288 435.883042 288 435.883042 
z
" clip-path="url(#p7c8c82e4bd)" style="fill: #ff0000"/>
   </g>
   <g id="patch_6">
    <path d="M 288 435.883042 
C 288 435.883042 288 435.883042 288 435.883042 
C 288 435.883042 288 435.883042 288 435.883042 
L 288 435.883042 
C 288 435.883042 288 435.883042 288 435.883042 
C 288 435.883042 288 435.883042 288 435.883042 
z
" clip-path="url(#p7c8c82e4bd)" style="fill: #ff0000"/>
   </g>
   <g id="patch_7">
    <path d="M 288 435.883042 
C 288 435.883042 288 435.883042 288 435.883042 
C 288 435.883042 288 435.883042 288 435.883042 
L 278.975763 426.858805 
C 278.844506 426.990063 278.716128 427.124168 278.590721 427.261026 
C 278.465314 427.397884 278.342907 427.537461 278.223589 427.679659 
z
" clip-path="url(#p7c8c82e4bd)" style="fill: #ff0000"/>
   </g>
   <g id="patch_8">
    <path d="M 288 435.883042 
C 288 435.883042 288 435.883042 288 435.883042 
C 288 435.883042 288 435.883042 288 435.883042 
L 283.898309 430.994836 
C 283.82721 431.054495 283.757421 431.115699 283.688992 431.178402 
C 283.620563 431.241106 283.55351 431.305295 283.487882 431.370923 
z
" clip-path="url(#p7c8c82e4bd)" style="fill: #ff0000"/>
   </g>
   <g id="patch_9">
    <path d="M 288 435.883042 
C 288 435.883042 288 435.883042 288 435.883042 
C 288 435.883042 288 435.883042 288 435.883042 
L 284.339952 430.655952 
C 284.263924 430.709187 284.189067 430.764075 284.115433 430.820576 
C 284.0418 430.877077 283.969408 430.935177 283.898309 430.994836 
z
" clip-path="url(#p7c8c82e4bd)" style="fill: #ff0000"/>
   </g>
   <g id="patch_10">
    <path d="M 288 435.883042 
C 288 435.883042 288 435.883042 288 435.883042 
C 288 435.883042 288 435.883042 288 435.883042 
L 265.666154 397.199686 
C 265.103505 397.524531 264.548011 397.861614 264.000067 398.210693 
C 263.452123 398.559771 262.91186 398.920763 262.379665 399.293411 
z
" clip-path="url(#p7c8c82e4bd)" style="fill: #ff0000"/>
   </g>
   <g id="patch_11">
    <path d="M 288 435.883042 
C 288 435.883042 288 435.883042 288 435.883042 
C 288 435.883042 288 435.883042 288 435.883042 
L 277.212924 412.750084 
C 276.876456 412.906981 276.54345 413.071201 276.214146 413.242627 
C 275.884841 413.414052 275.559316 413.592641 275.237802 413.778267 
z
" clip-path="url(#p7c8c82e4bd)" style="fill: #ff0000"/>
   </g>
   <g id="patch_12">
    <path d="M 288 435.883042 
C 288 435.883042 288 435.883042 288 435.883042 
C 288 435.883042 288 435.883042 288 435.883042 
L 246.533178 321.953884 
C 244.876079 322.557018 243.232337 323.196234 241.603125 323.871076 
C 239.973912 324.545918 238.359617 325.256225 236.761391 326.00149 
z
" clip-path="url(#p7c8c82e4bd)" style="fill: #ff0000"/>
   </g>
   <g id="patch_13">
    <path d="M 288 435.883042 
C 288 435.883042 288 435.883042 288 435.883042 
C 288 435.883042 288 435.883042 288 435.883042 
L 273.136051 380.410028 
C 272.329197 380.626224 271.527155 380.859998 270.730499 381.111183 
C 269.933843 381.362367 269.142762 381.630903 268.357821 381.916598 
z
" clip-path="url(#p7c8c82e4bd)" style="fill: #ff0000"/>
   </g>
   <g id="patch_14">
    <path d="M 288 435.883042 
C 288 435.883042 288 435.883042 288 435.883042 
C 288 435.883042 288 435.883042 288 435.883042 
L 282.459669 404.462264 
C 282.002654 404.542848 281.547452 404.633393 281.094387 404.733835 
C 280.641322 404.834277 280.190503 404.944592 279.74225 405.064701 
z
" clip-path="url(#p7c8c82e4bd)" style="fill: #ff0000"/>
   </g>
   <g id="patch_15">
    <path d="M 288 435.883042 
C 288 435.883042 288 435.883042 288 435.883042 
C 288 435.883042 288 435.883042 288 435.883042 
L 283.550805 385.028507 
C 282.811126 385.093221 282.072948 385.174064 281.336796 385.270981 
C 280.600644 385.367897 279.866694 385.480862 279.135471 385.609797 
z
" clip-path="url(#p7c8c82e4bd)" style="fill: #ff0000"/>
   </g>
   <g id="patch_16">
    <path d="M 288 435.883042 
C 288 435.883042 288 435.883042 288 435.883042 
C 288 435.883042 288 435.883042 288 435.883042 
L 288 423.120844 
C 287.814374 423.120844 287.62877 423.124894 287.443321 423.132991 
C 287.257871 423.141088 287.072621 423.15323 286.887701 423.169408 
z
" clip-path="url(#p7c8c82e4bd)" style="fill: #ff0000"/>
   </g>
   <g id="patch_17">
    <path d="M 288 435.883042 
C 288 435.883042 288 435.883042 288 435.883042 
C 288 435.883042 288 435.883042 288 435.883042 
L 291.336896 397.742141 
C 290.782138 397.693606 290.226386 397.65718 289.670038 397.632889 
C 289.11369 397.608598 288.556878 397.596449 288 397.596449 
z
" clip-path="url(#p7c8c82e4bd)" style="fill: #ff0000"/>
   </g>
   <g id="patch_18">
    <path d="M 288 435.883042 
C 288 435.883042 288 435.883042 288 435.883042 
C 288 435.883042 288 435.883042 288 435.883042 
L 291.324199 417.030575 
C 291.04999 416.982225 290.774759 416.939862 290.498702 416.903519 
C 290.222645 416.867175 289.945828 416.836859 289.668448 416.812591 
z
" clip-path="url(#p7c8c82e4bd)" style="fill: #ff0000"/>
   </g>
   <g id="patch_19">
    <path d="M 288 435.883042 
C 288 435.883042 288 435.883042 288 435.883042 
C 288 435.883042 288 435.883042 288 435.883042 
L 296.25775 405.064701 
C 295.809497 404.944592 295.358678 404.834277 294.905613 404.733835 
C 294.452548 404.633393 293.997346 404.542848 293.540331 404.462264 
z
" clip-path="url(#p7c8c82e4bd)" style="fill: #ff0000"/>
   </g>
   <g id="patch_20">
    <path d="M 288 435.883042 
C 288 435.883042 288 435.883042 288 435.883042 
C 288 435.883042 288 435.883042 288 435.883042 
L 292.364929 423.890499 
C 292.190497 423.827011 292.014702 423.767336 291.837667 423.711518 
C 291.660632 423.655699 291.482401 423.603749 291.3031 423.555705 
z
" clip-path="url(#p7c8c82e4bd)" style="fill: #ff0000"/>
   </g>
   <g id="patch_21">
    <path d="M 288 435.883042 
C 288 435.883042 288 435.883042 288 435.883042 
C 288 435.883042 288 435.883042 288 435.883042 
L 290.696769 430.099802 
C 290.612652 430.060578 290.527689 430.023193 290.441941 429.987675 
C 290.356193 429.952157 290.26968 429.918514 290.182464 429.88677 
z
" clip-path="url(#p7c8c82e4bd)" style="fill: #ff0000"/>
   </g>
   <g id="patch_22">
    <path d="M 288 435.883042 
C 288 435.883042 288 435.883042 288 435.883042 
C 288 435.883042 288 435.883042 288 435.883042 
L 291.190549 430.356848 
C 291.110171 430.310442 291.02879 430.265794 290.946464 430.222938 
C 290.864137 430.180082 290.780886 430.139027 290.696769 430.099802 
z
" clip-path="url(#p7c8c82e4bd)" style="fill: #ff0000"/>
   </g>
   <g id="patch_23">
    <path d="M 288 435.883042 
C 288 435.883042 288 435.883042 288 435.883042 
C 288 435.883042 288 435.883042 288 435.883042 
L 288 435.883042 
C 288 435.883042 288 435.883042 288 435.883042 
C 288 435.883042 288 435.883042 288 435.883042 
z
" clip-path="url(#p7c8c82e4bd)" style="fill: #ff0000"/>
   </g>
   <g id="patch_24">
    <path d="M 288 435.883042 
C 288 435.883042 288 435.883042 288 435.883042 
C 288 435.883042 288 435.883042 288 435.883042 
L 288 435.883042 
C 288 435.883042 288 435.883042 288 435.883042 
C 288 435.883042 288 435.883042 288 435.883042 
z
" clip-path="url(#p7c8c82e4bd)" style="fill: #ff0000"/>
   </g>
   <g id="patch_25">
    <path d="M 288 435.883042 
C 288 435.883042 288 435.883042 288 435.883042 
C 288 435.883042 288 435.883042 288 435.883042 
L 288 435.883042 
C 288 435.883042 288 435.883042 288 435.883042 
C 288 435.883042 288 435.883042 288 435.883042 
z
" clip-path="url(#p7c8c82e4bd)" style="fill: #ff0000"/>
   </g>
   <g id="patch_26">
    <path d="M 288 435.883042 
C 288 435.883042 288 435.883042 288 435.883042 
C 288 435.883042 288 435.883042 288 435.883042 
L 288 435.883042 
C 288 435.883042 288 435.883042 288 435.883042 
C 288 435.883042 288 435.883042 288 435.883042 
z
" clip-path="url(#p7c8c82e4bd)" style="fill: #ff0000"/>
   </g>
   <g id="patch_27">
    <path d="M 288 435.883042 
C 288 435.883042 288 435.883042 288 435.883042 
C 288 435.883042 288 435.883042 288 435.883042 
L 288 435.883042 
C 288 435.883042 288 435.883042 288 435.883042 
C 288 435.883042 288 435.883042 288 435.883042 
z
" clip-path="url(#p7c8c82e4bd)" style="fill: #ff0000"/>
   </g>
   <g id="patch_28">
    <path d="M 288 435.883042 
C 288 435.883042 288 435.883042 288 435.883042 
C 288 435.883042 288 435.883042 288 435.883042 
L 288 435.883042 
C 288 435.883042 288 435.883042 288 435.883042 
C 288 435.883042 288 435.883042 288 435.883042 
z
" clip-path="url(#p7c8c82e4bd)" style="fill: #ff0000"/>
   </g>
   <g id="patch_29">
    <path d="M 288 435.883042 
C 288 435.883042 288 435.883042 288 435.883042 
C 288 435.883042 288 435.883042 288 435.883042 
L 288 435.883042 
C 288 435.883042 288 435.883042 288 435.883042 
C 288 435.883042 288 435.883042 288 435.883042 
z
" clip-path="url(#p7c8c82e4bd)" style="fill: #ff0000"/>
   </g>
   <g id="patch_30">
    <path d="M 288 435.883042 
C 288 435.883042 288 435.883042 288 435.883042 
C 288 435.883042 288 435.883042 288 435.883042 
L 288 435.883042 
C 288 435.883042 288 435.883042 288 435.883042 
C 288 435.883042 288 435.883042 288 435.883042 
z
" clip-path="url(#p7c8c82e4bd)" style="fill: #ff0000"/>
   </g>
   <g id="patch_31">
    <path d="M 288 435.883042 
C 288 435.883042 288 435.883042 288 435.883042 
C 288 435.883042 288 435.883042 288 435.883042 
L 288 435.883042 
C 288 435.883042 288 435.883042 288 435.883042 
C 288 435.883042 288 435.883042 288 435.883042 
z
" clip-path="url(#p7c8c82e4bd)" style="fill: #ffff00"/>
   </g>
   <g id="patch_32">
    <path d="M 288 435.883042 
C 288 435.883042 288 435.883042 288 435.883042 
C 288 435.883042 288 435.883042 288 435.883042 
L 288 435.883042 
C 288 435.883042 288 435.883042 288 435.883042 
C 288 435.883042 288 435.883042 288 435.883042 
z
" clip-path="url(#p7c8c82e4bd)" style="fill: #ffff00"/>
   </g>
   <g id="patch_33">
    <path d="M 288 435.883042 
C 288 435.883042 288 435.883042 288 435.883042 
C 288 435.883042 288 435.883042 288 435.883042 
L 288 435.883042 
C 288 435.883042 288 435.883042 288 435.883042 
C 288 435.883042 288 435.883042 288 435.883042 
z
" clip-path="url(#p7c8c82e4bd)" style="fill: #ffff00"/>
   </g>
   <g id="patch_34">
    <path d="M 288 435.883042 
C 288 435.883042 288 435.883042 288 435.883042 
C 288 435.883042 288 435.883042 288 435.883042 
L 283.111795 431.78135 
C 283.052136 431.852449 282.994035 431.924841 282.937534 431.998475 
C 282.881033 432.072108 282.826145 432.146966 282.77291 432.222994 
z
" clip-path="url(#p7c8c82e4bd)" style="fill: #ffff00"/>
   </g>
   <g id="patch_35">
    <path d="M 278.223589 427.679659 
C 278.342907 427.537461 278.465314 427.397884 278.590721 427.261026 
C 278.716128 427.124168 278.844506 426.990063 278.975763 426.858805 
L 278.975763 426.858805 
C 278.844506 426.990063 278.716128 427.124168 278.590721 427.261026 
C 278.465314 427.397884 278.342907 427.537461 278.223589 427.679659 
z
" clip-path="url(#p7c8c82e4bd)" style="fill: #ffff00"/>
   </g>
   <g id="patch_36">
    <path d="M 283.487882 431.370923 
C 283.55351 431.305295 283.620563 431.241106 283.688992 431.178402 
C 283.757421 431.115699 283.82721 431.054495 283.898309 430.994836 
L 283.898309 430.994836 
C 283.82721 431.054495 283.757421 431.115699 283.688992 431.178402 
C 283.620563 431.241106 283.55351 431.305295 283.487882 431.370923 
z
" clip-path="url(#p7c8c82e4bd)" style="fill: #ffff00"/>
   </g>
   <g id="patch_37">
    <path d="M 283.898309 430.994836 
C 283.969408 430.935177 284.0418 430.877077 284.115433 430.820576 
C 284.189067 430.764075 284.263924 430.709187 284.339952 430.655952 
L 273.359808 414.974681 
C 273.055696 415.187623 272.756267 415.407174 272.461733 415.633177 
C 272.167199 415.859181 271.87763 416.091584 271.593235 416.330221 
z
" clip-path="url(#p7c8c82e4bd)" style="fill: #ffff00"/>
   </g>
   <g id="patch_38">
    <path d="M 262.379665 399.293411 
C 262.91186 398.920763 263.452123 398.559771 264.000067 398.210693 
C 264.548011 397.861614 265.103505 397.524531 265.666154 397.199686 
L 265.666154 397.199686 
C 265.103505 397.524531 264.548011 397.861614 264.000067 398.210693 
C 263.452123 398.559771 262.91186 398.920763 262.379665 399.293411 
z
" clip-path="url(#p7c8c82e4bd)" style="fill: #ffff00"/>
   </g>
   <g id="patch_39">
    <path d="M 275.237802 413.778267 
C 275.559316 413.592641 275.884841 413.414052 276.214146 413.242627 
C 276.54345 413.071201 276.876456 412.906981 277.212924 412.750084 
L 266.425849 389.617125 
C 265.752912 389.930921 265.086901 390.259361 264.428292 390.602211 
C 263.769683 390.945062 263.118632 391.30224 262.475605 391.673492 
z
" clip-path="url(#p7c8c82e4bd)" style="fill: #ffff00"/>
   </g>
   <g id="patch_40">
    <path d="M 236.761391 326.00149 
C 238.359617 325.256225 239.973912 324.545918 241.603125 323.871076 
C 243.232337 323.196234 244.876079 322.557018 246.533178 321.953884 
L 229.073463 273.983712 
C 226.718639 274.840797 224.382795 275.749157 222.067598 276.708143 
C 219.752401 277.667129 217.458403 278.676513 215.18724 279.735574 
z
" clip-path="url(#p7c8c82e4bd)" style="fill: #ffff00"/>
   </g>
   <g id="patch_41">
    <path d="M 268.357821 381.916598 
C 269.142762 381.630903 269.933843 381.362367 270.730499 381.111183 
C 271.527155 380.859998 272.329197 380.626224 273.136051 380.410028 
L 256.620552 318.773347 
C 254.917193 319.22976 253.223994 319.723283 251.542165 320.253561 
C 249.860336 320.78384 248.190276 321.350749 246.533178 321.953884 
z
" clip-path="url(#p7c8c82e4bd)" style="fill: #ffff00"/>
   </g>
   <g id="patch_42">
    <path d="M 279.74225 405.064701 
C 280.190503 404.944592 280.641322 404.834277 281.094387 404.733835 
C 281.547452 404.633393 282.002654 404.542848 282.459669 404.462264 
L 272.487073 347.904863 
C 271.207432 348.130499 269.932866 348.384026 268.664284 348.665263 
C 267.395703 348.946501 266.133408 349.255383 264.878301 349.591687 
z
" clip-path="url(#p7c8c82e4bd)" style="fill: #ffff00"/>
   </g>
   <g id="patch_43">
    <path d="M 279.135471 385.609797 
C 279.866694 385.480862 280.600644 385.367897 281.336796 385.270981 
C 282.072948 385.174064 282.811126 385.093221 283.550805 385.028507 
L 275.208564 289.676255 
C 273.081988 289.862306 270.959724 290.094732 268.843288 290.373366 
C 266.726851 290.652 264.616746 290.976776 262.514478 291.347463 
z
" clip-path="url(#p7c8c82e4bd)" style="fill: #ffff00"/>
   </g>
   <g id="patch_44">
    <path d="M 286.887701 423.169408 
C 287.072621 423.15323 287.257871 423.141088 287.443321 423.132991 
C 287.62877 423.124894 287.814374 423.120844 288 423.120844 
L 288 391.21535 
C 287.350309 391.21535 286.700695 391.229525 286.051623 391.257864 
C 285.40255 391.286203 284.754173 391.3287 284.106954 391.385324 
z
" clip-path="url(#p7c8c82e4bd)" style="fill: #ffff00"/>
   </g>
   <g id="patch_45">
    <path d="M 288 397.596449 
C 288.556878 397.596449 289.11369 397.608598 289.670038 397.632889 
C 290.226386 397.65718 290.782138 397.693606 291.336896 397.742141 
L 295.786092 346.887606 
C 294.491654 346.774358 293.1949 346.689364 291.896755 346.632686 
C 290.598609 346.576007 289.299382 346.547658 288 346.547658 
z
" clip-path="url(#p7c8c82e4bd)" style="fill: #ffff00"/>
   </g>
   <g id="patch_46">
    <path d="M 289.668448 416.812591 
C 289.945828 416.836859 290.222645 416.867175 290.498702 416.903519 
C 290.774759 416.939862 291.04999 416.982225 291.324199 417.030575 
L 297.972596 379.325641 
C 297.149969 379.18059 296.324276 379.053504 295.496105 378.944473 
C 294.667934 378.835442 293.837483 378.744493 293.005345 378.67169 
z
" clip-path="url(#p7c8c82e4bd)" style="fill: #ffff00"/>
   </g>
   <g id="patch_47">
    <path d="M 293.540331 404.462264 
C 293.997346 404.542848 294.452548 404.633393 294.905613 404.733835 
C 295.358678 404.834277 295.809497 404.944592 296.25775 405.064701 
L 306.167049 368.082692 
C 305.180894 367.818452 304.189091 367.57576 303.192348 367.354787 
C 302.195606 367.133815 301.194161 366.934615 300.188728 366.75733 
z
" clip-path="url(#p7c8c82e4bd)" style="fill: #ffff00"/>
   </g>
   <g id="patch_48">
    <path d="M 291.3031 423.555705 
C 291.482401 423.603749 291.660632 423.655699 291.837667 423.711518 
C 292.014702 423.767336 292.190497 423.827011 292.364929 423.890499 
L 296.729857 411.897956 
C 296.380995 411.77098 296.029403 411.651631 295.675334 411.539993 
C 295.321264 411.428356 294.964802 411.324456 294.6062 411.228369 
z
" clip-path="url(#p7c8c82e4bd)" style="fill: #ffff00"/>
   </g>
   <g id="patch_49">
    <path d="M 290.182464 429.88677 
C 290.26968 429.918514 290.356193 429.952157 290.441941 429.987675 
C 290.527689 430.023193 290.612652 430.060578 290.696769 430.099802 
L 301.483844 406.966844 
C 301.063259 406.770722 300.638444 406.583799 300.209704 406.406209 
C 299.780964 406.228619 299.3484 406.060404 298.912322 405.901684 
z
" clip-path="url(#p7c8c82e4bd)" style="fill: #ffff00"/>
   </g>
   <g id="patch_50">
    <path d="M 290.696769 430.099802 
C 290.780886 430.139027 290.864137 430.180082 290.946464 430.222938 
C 291.02879 430.265794 291.110171 430.310442 291.190549 430.356848 
L 303.952747 408.252073 
C 303.550855 408.020041 303.143948 407.796804 302.732318 407.582523 
C 302.320687 407.368241 301.90443 407.162966 301.483844 406.966844 
z
" clip-path="url(#p7c8c82e4bd)" style="fill: #ffff00"/>
   </g>
   <g id="patch_51">
    <path d="M 288 435.883042 
C 288 435.883042 288 435.883042 288 435.883042 
C 288 435.883042 288 435.883042 288 435.883042 
L 291.660048 430.655952 
C 291.58402 430.602716 291.50684 430.551146 291.428562 430.501278 
C 291.350284 430.451409 291.270928 430.403255 291.190549 430.356848 
z
" clip-path="url(#p7c8c82e4bd)" style="fill: #ffff00"/>
   </g>
   <g id="patch_52">
    <path d="M 288 435.883042 
C 288 435.883042 288 435.883042 288 435.883042 
C 288 435.883042 288 435.883042 288 435.883042 
L 288 435.883042 
C 288 435.883042 288 435.883042 288 435.883042 
C 288 435.883042 288 435.883042 288 435.883042 
z
" clip-path="url(#p7c8c82e4bd)" style="fill: #ffff00"/>
   </g>
   <g id="patch_53">
    <path d="M 288 435.883042 
C 288 435.883042 288 435.883042 288 435.883042 
C 288 435.883042 288 435.883042 288 435.883042 
L 288 435.883042 
C 288 435.883042 288 435.883042 288 435.883042 
C 288 435.883042 288 435.883042 288 435.883042 
z
" clip-path="url(#p7c8c82e4bd)" style="fill: #ffff00"/>
   </g>
   <g id="patch_54">
    <path d="M 288 435.883042 
C 288 435.883042 288 435.883042 288 435.883042 
C 288 435.883042 288 435.883042 288 435.883042 
L 288 435.883042 
C 288 435.883042 288 435.883042 288 435.883042 
C 288 435.883042 288 435.883042 288 435.883042 
z
" clip-path="url(#p7c8c82e4bd)" style="fill: #ffff00"/>
   </g>
   <g id="patch_55">
    <path d="M 288 435.883042 
C 288 435.883042 288 435.883042 288 435.883042 
C 288 435.883042 288 435.883042 288 435.883042 
L 288 435.883042 
C 288 435.883042 288 435.883042 288 435.883042 
C 288 435.883042 288 435.883042 288 435.883042 
z
" clip-path="url(#p7c8c82e4bd)" style="fill: #ffff00"/>
   </g>
   <g id="patch_56">
    <path d="M 288 435.883042 
C 288 435.883042 288 435.883042 288 435.883042 
C 288 435.883042 288 435.883042 288 435.883042 
L 288 435.883042 
C 288 435.883042 288 435.883042 288 435.883042 
C 288 435.883042 288 435.883042 288 435.883042 
z
" clip-path="url(#p7c8c82e4bd)" style="fill: #ffff00"/>
   </g>
   <g id="patch_57">
    <path d="M 288 435.883042 
C 288 435.883042 288 435.883042 288 435.883042 
C 288 435.883042 288 435.883042 288 435.883042 
L 288 435.883042 
C 288 435.883042 288 435.883042 288 435.883042 
C 288 435.883042 288 435.883042 288 435.883042 
z
" clip-path="url(#p7c8c82e4bd)" style="fill: #ffff00"/>
   </g>
   <g id="patch_58">
    <path d="M 288 435.883042 
C 288 435.883042 288 435.883042 288 435.883042 
C 288 435.883042 288 435.883042 288 435.883042 
L 288 435.883042 
C 288 435.883042 288 435.883042 288 435.883042 
C 288 435.883042 288 435.883042 288 435.883042 
z
" clip-path="url(#p7c8c82e4bd)" style="fill: #ffff00"/>
   </g>
   <g id="patch_59">
    <path d="M 288 435.883042 
C 288 435.883042 288 435.883042 288 435.883042 
C 288 435.883042 288 435.883042 288 435.883042 
L 288 435.883042 
C 288 435.883042 288 435.883042 288 435.883042 
C 288 435.883042 288 435.883042 288 435.883042 
z
" clip-path="url(#p7c8c82e4bd)" style="fill: #ffa500"/>
   </g>
   <g id="patch_60">
    <path d="M 288 435.883042 
C 288 435.883042 288 435.883042 288 435.883042 
C 288 435.883042 288 435.883042 288 435.883042 
L 288 435.883042 
C 288 435.883042 288 435.883042 288 435.883042 
C 288 435.883042 288 435.883042 288 435.883042 
z
" clip-path="url(#p7c8c82e4bd)" style="fill: #ffa500"/>
   </g>
   <g id="patch_61">
    <path d="M 288 435.883042 
C 288 435.883042 288 435.883042 288 435.883042 
C 288 435.883042 288 435.883042 288 435.883042 
L 288 435.883042 
C 288 435.883042 288 435.883042 288 435.883042 
C 288 435.883042 288 435.883042 288 435.883042 
z
" clip-path="url(#p7c8c82e4bd)" style="fill: #ffa500"/>
   </g>
   <g id="patch_62">
    <path d="M 282.77291 432.222994 
C 282.826145 432.146966 282.881033 432.072108 282.937534 431.998475 
C 282.994035 431.924841 283.052136 431.852449 283.111795 431.78135 
L 283.111795 431.78135 
C 283.052136 431.852449 282.994035 431.924841 282.937534 431.998475 
C 282.881033 432.072108 282.826145 432.146966 282.77291 432.222994 
z
" clip-path="url(#p7c8c82e4bd)" style="fill: #ffa500"/>
   </g>
   <g id="patch_63">
    <path d="M 278.223589 427.679659 
C 278.342907 427.537461 278.465314 427.397884 278.590721 427.261026 
C 278.716128 427.124168 278.844506 426.990063 278.975763 426.858805 
L 278.975763 426.858805 
C 278.844506 426.990063 278.716128 427.124168 278.590721 427.261026 
C 278.465314 427.397884 278.342907 427.537461 278.223589 427.679659 
z
" clip-path="url(#p7c8c82e4bd)" style="fill: #ffa500"/>
   </g>
   <g id="patch_64">
    <path d="M 283.487882 431.370923 
C 283.55351 431.305295 283.620563 431.241106 283.688992 431.178402 
C 283.757421 431.115699 283.82721 431.054495 283.898309 430.994836 
L 271.593235 416.330221 
C 271.308839 416.568857 271.029684 416.813669 270.755968 417.064484 
C 270.482253 417.315298 270.214042 417.572054 269.951527 417.834569 
z
" clip-path="url(#p7c8c82e4bd)" style="fill: #ffa500"/>
   </g>
   <g id="patch_65">
    <path d="M 271.593235 416.330221 
C 271.87763 416.091584 272.167199 415.859181 272.461733 415.633177 
C 272.756267 415.407174 273.055696 415.187623 273.359808 414.974681 
L 269.69976 409.747591 
C 269.319621 410.013768 268.945333 410.288207 268.577166 410.570711 
C 268.208998 410.853216 267.847038 411.14372 267.491544 411.442015 
z
" clip-path="url(#p7c8c82e4bd)" style="fill: #ffa500"/>
   </g>
   <g id="patch_66">
    <path d="M 262.379665 399.293411 
C 262.91186 398.920763 263.452123 398.559771 264.000067 398.210693 
C 264.548011 397.861614 265.103505 397.524531 265.666154 397.199686 
L 262.475605 391.673492 
C 261.832577 392.044744 261.197726 392.429981 260.571505 392.828928 
C 259.945283 393.227876 259.32784 393.640438 258.719617 394.066321 
z
" clip-path="url(#p7c8c82e4bd)" style="fill: #ffa500"/>
   </g>
   <g id="patch_67">
    <path d="M 262.475605 391.673492 
C 263.118632 391.30224 263.769683 390.945062 264.428292 390.602211 
C 265.086901 390.259361 265.752912 389.930921 266.425849 389.617125 
L 242.154929 337.567969 
C 240.724937 338.234785 239.309664 338.932721 237.91012 339.661277 
C 236.510576 340.389834 235.127093 341.148838 233.76066 341.937749 
z
" clip-path="url(#p7c8c82e4bd)" style="fill: #ffa500"/>
   </g>
   <g id="patch_68">
    <path d="M 215.18724 279.735574 
C 217.458403 278.676513 219.752401 277.667129 222.067598 276.708143 
C 224.382795 275.749157 226.718639 274.840797 229.073463 273.983712 
L 196.336498 184.039639 
C 192.673439 185.372884 189.039904 186.785888 185.438486 188.277644 
C 181.837069 189.7694 178.268626 191.339552 174.735706 192.98698 
z
" clip-path="url(#p7c8c82e4bd)" style="fill: #ffa500"/>
   </g>
   <g id="patch_69">
    <path d="M 246.533178 321.953884 
C 248.190276 321.350749 249.860336 320.78384 251.542165 320.253561 
C 253.223994 319.723283 254.917193 319.22976 256.620552 318.773347 
L 236.801953 244.809329 
C 234.022788 245.554004 231.260201 246.359224 228.516164 247.224416 
C 225.772126 248.089608 223.047292 249.014564 220.343606 249.998626 
z
" clip-path="url(#p7c8c82e4bd)" style="fill: #ffa500"/>
   </g>
   <g id="patch_70">
    <path d="M 264.878301 349.591687 
C 266.133408 349.255383 267.395703 348.946501 268.664284 348.665263 
C 269.932866 348.384026 271.207432 348.130499 272.487073 347.904863 
L 264.73061 303.915774 
C 262.811148 304.254227 260.899298 304.634518 258.996426 305.056374 
C 257.093554 305.478231 255.200112 305.941553 253.317452 306.44601 
z
" clip-path="url(#p7c8c82e4bd)" style="fill: #ffa500"/>
   </g>
   <g id="patch_71">
    <path d="M 262.514478 291.347463 
C 264.616746 290.976776 266.726851 290.652 268.843288 290.373366 
C 270.959724 290.094732 273.081988 289.862306 275.208564 289.676255 
L 271.315518 245.178537 
C 268.541723 245.421213 265.773553 245.724377 263.012984 246.087812 
C 260.252415 246.451248 257.500103 246.874869 254.758014 247.358374 
z
" clip-path="url(#p7c8c82e4bd)" style="fill: #ffa500"/>
   </g>
   <g id="patch_72">
    <path d="M 284.106954 391.385324 
C 284.754173 391.3287 285.40255 391.286203 286.051623 391.257864 
C 286.700695 391.229525 287.350309 391.21535 288 391.21535 
L 288 359.309856 
C 286.886244 359.309856 285.772621 359.334155 284.659925 359.382736 
C 283.547229 359.431318 282.435725 359.50417 281.326207 359.60124 
z
" clip-path="url(#p7c8c82e4bd)" style="fill: #ffa500"/>
   </g>
   <g id="patch_73">
    <path d="M 288 346.547658 
C 289.299382 346.547658 290.598609 346.576007 291.896755 346.632686 
C 293.1949 346.689364 294.491654 346.774358 295.786092 346.887606 
L 299.679138 302.389888 
C 297.737481 302.220016 295.79235 302.092525 293.845132 302.007508 
C 291.897914 301.92249 289.949073 301.879966 288 301.879966 
z
" clip-path="url(#p7c8c82e4bd)" style="fill: #ffa500"/>
   </g>
   <g id="patch_74">
    <path d="M 293.005345 378.67169 
C 293.837483 378.744493 294.667934 378.835442 295.496105 378.944473 
C 296.324276 379.053504 297.149969 379.18059 297.972596 379.325641 
L 305.729059 335.336552 
C 304.266612 335.078683 302.798712 334.852752 301.326409 334.658919 
C 299.854105 334.465087 298.377748 334.3034 296.898391 334.173973 
z
" clip-path="url(#p7c8c82e4bd)" style="fill: #ffa500"/>
   </g>
   <g id="patch_75">
    <path d="M 300.188728 366.75733 
C 301.194161 366.934615 302.195606 367.133815 303.192348 367.354787 
C 304.189091 367.57576 305.180894 367.818452 306.167049 368.082692 
L 317.727898 324.937015 
C 316.11419 324.504623 314.49124 324.10749 312.860206 323.745898 
C 311.229173 323.384307 309.590445 323.058343 307.945191 322.768241 
z
" clip-path="url(#p7c8c82e4bd)" style="fill: #ffa500"/>
   </g>
   <g id="patch_76">
    <path d="M 294.6062 411.228369 
C 294.964802 411.324456 295.321264 411.428356 295.675334 411.539993 
C 296.029403 411.651631 296.380995 411.77098 296.729857 411.897956 
L 307.642179 381.916598 
C 306.857238 381.630903 306.066157 381.362367 305.269501 381.111183 
C 304.472845 380.859998 303.670803 380.626224 302.863949 380.410028 
z
" clip-path="url(#p7c8c82e4bd)" style="fill: #ffa500"/>
   </g>
   <g id="patch_77">
    <path d="M 298.912322 405.901684 
C 299.3484 406.060404 299.780964 406.228619 300.209704 406.406209 
C 300.638444 406.583799 301.063259 406.770722 301.483844 406.966844 
L 304.180613 401.183604 
C 303.675911 400.948258 303.166133 400.72395 302.651645 400.510842 
C 302.137157 400.297734 301.61808 400.095876 301.094786 399.905413 
z
" clip-path="url(#p7c8c82e4bd)" style="fill: #ffa500"/>
   </g>
   <g id="patch_78">
    <path d="M 301.483844 406.966844 
C 301.90443 407.162966 302.320687 407.368241 302.732318 407.582523 
C 303.143948 407.796804 303.550855 408.020041 303.952747 408.252073 
L 303.952747 408.252073 
C 303.550855 408.020041 303.143948 407.796804 302.732318 407.582523 
C 302.320687 407.368241 301.90443 407.162966 301.483844 406.966844 
z
" clip-path="url(#p7c8c82e4bd)" style="fill: #ffa500"/>
   </g>
   <g id="patch_79">
    <path d="M 291.190549 430.356848 
C 291.270928 430.403255 291.350284 430.451409 291.428562 430.501278 
C 291.50684 430.551146 291.58402 430.602716 291.660048 430.655952 
L 291.660048 430.655952 
C 291.58402 430.602716 291.50684 430.551146 291.428562 430.501278 
C 291.350284 430.451409 291.270928 430.403255 291.190549 430.356848 
z
" clip-path="url(#p7c8c82e4bd)" style="fill: #ffa500"/>
   </g>
   <g id="patch_80">
    <path d="M 288 435.883042 
C 288 435.883042 288 435.883042 288 435.883042 
C 288 435.883042 288 435.883042 288 435.883042 
L 288 435.883042 
C 288 435.883042 288 435.883042 288 435.883042 
C 288 435.883042 288 435.883042 288 435.883042 
z
" clip-path="url(#p7c8c82e4bd)" style="fill: #ffa500"/>
   </g>
   <g id="patch_81">
    <path d="M 288 435.883042 
C 288 435.883042 288 435.883042 288 435.883042 
C 288 435.883042 288 435.883042 288 435.883042 
L 288 435.883042 
C 288 435.883042 288 435.883042 288 435.883042 
C 288 435.883042 288 435.883042 288 435.883042 
z
" clip-path="url(#p7c8c82e4bd)" style="fill: #ffa500"/>
   </g>
   <g id="patch_82">
    <path d="M 288 435.883042 
C 288 435.883042 288 435.883042 288 435.883042 
C 288 435.883042 288 435.883042 288 435.883042 
L 288 435.883042 
C 288 435.883042 288 435.883042 288 435.883042 
C 288 435.883042 288 435.883042 288 435.883042 
z
" clip-path="url(#p7c8c82e4bd)" style="fill: #ffa500"/>
   </g>
   <g id="patch_83">
    <path d="M 288 435.883042 
C 288 435.883042 288 435.883042 288 435.883042 
C 288 435.883042 288 435.883042 288 435.883042 
L 288 435.883042 
C 288 435.883042 288 435.883042 288 435.883042 
C 288 435.883042 288 435.883042 288 435.883042 
z
" clip-path="url(#p7c8c82e4bd)" style="fill: #ffa500"/>
   </g>
   <g id="patch_84">
    <path d="M 288 435.883042 
C 288 435.883042 288 435.883042 288 435.883042 
C 288 435.883042 288 435.883042 288 435.883042 
L 288 435.883042 
C 288 435.883042 288 435.883042 288 435.883042 
C 288 435.883042 288 435.883042 288 435.883042 
z
" clip-path="url(#p7c8c82e4bd)" style="fill: #ffa500"/>
   </g>
   <g id="patch_85">
    <path d="M 288 435.883042 
C 288 435.883042 288 435.883042 288 435.883042 
C 288 435.883042 288 435.883042 288 435.883042 
L 288 435.883042 
C 288 435.883042 288 435.883042 288 435.883042 
C 288 435.883042 288 435.883042 288 435.883042 
z
" clip-path="url(#p7c8c82e4bd)" style="fill: #ffa500"/>
   </g>
   <g id="patch_86">
    <path d="M 288 435.883042 
C 288 435.883042 288 435.883042 288 435.883042 
C 288 435.883042 288 435.883042 288 435.883042 
L 288 435.883042 
C 288 435.883042 288 435.883042 288 435.883042 
C 288 435.883042 288 435.883042 288 435.883042 
z
" clip-path="url(#p7c8c82e4bd)" style="fill: #ffa500"/>
   </g>
   <g id="matplotlib.axis_1">
    <g id="xtick_1">
     <g id="line2d_1">
      <path d="M 288 435.883042 
L 44.294858 295.179812 
" clip-path="url(#p7c8c82e4bd)" style="fill: none; stroke: #b0b0b0; stroke-width: 0.8; stroke-linecap: square"/>
     </g>
     <g id="text_1">
      <text style="font: 10px 'Arial', sans-serif; text-anchor: middle" x="32.170502" y="290.764969" transform="rotate(-0 32.170502 290.764969)">-60°</text>
     </g>
    </g>
    <g id="xtick_2">
     <g id="line2d_2">
      <path d="M 288 435.883042 
L 147.296771 192.1779 
" clip-path="url(#p7c8c82e4bd)" style="fill: none; stroke: #b0b0b0; stroke-width: 0.8; stroke-linecap: square"/>
     </g>
     <g id="text_2">
      <text style="font: 10px 'Arial', sans-serif; text-anchor: middle" x="140.296771" y="182.6387" transform="rotate(-0 140.296771 182.6387)">-30°</text>
     </g>
    </g>
    <g id="xtick_3">
     <g id="line2d_3">
      <path d="M 288 435.883042 
L 288 154.476583 
" clip-path="url(#p7c8c82e4bd)" style="fill: none; stroke: #b0b0b0; stroke-width: 0.8; stroke-linecap: square"/>
     </g>
     <g id="text_3">
      <text style="font: 10px 'Arial', sans-serif; text-anchor: middle" x="288" y="143.061739" transform="rotate(-0 288 143.061739)">0°</text>
     </g>
    </g>
    <g id="xtick_4">
     <g id="line2d_4">
      <path d="M 288 435.883042 
L 428.703229 192.1779 
" clip-path="url(#p7c8c82e4bd)" style="fill: none; stroke: #b0b0b0; stroke-width: 0.8; stroke-linecap: square"/>
     </g>
     <g id="text_4">
      <text style="font: 10px 'Arial', sans-serif; text-anchor: middle" x="435.703229" y="182.6387" transform="rotate(-0 435.703229 182.6387)">30°</text>
     </g>
    </g>
    <g id="xtick_5">
     <g id="line2d_5">
      <path d="M 288 435.883042 
L 531.705142 295.179813 
" clip-path="url(#p7c8c82e4bd)" style="fill: none; stroke: #b0b0b0; stroke-width: 0.8; stroke-linecap: square"/>
     </g>
     <g id="text_5">
      <text style="font: 10px 'Arial', sans-serif; text-anchor: middle" x="543.829498" y="290.764969" transform="rotate(-0 543.829498 290.764969)">60°</text>
     </g>
    </g>
    <g id="text_6">
     <text style="font: 10px 'Arial', sans-serif; text-anchor: middle" x="288" y="570.895072" transform="rotate(-0 288 570.895072)">Mean Trial Angle (deg) - Bin-Size=5 deg</text>
    </g>
   </g>
   <g id="matplotlib.axis_2">
    <g id="ytick_1">
     <g id="line2d_6">
      <path d="M 288 435.883042 
C 288 435.883042 288 435.883042 288 435.883042 
C 288 435.883042 288 435.883042 288 435.883042 
C 288 435.883042 288 435.883042 288 435.883042 
C 288 435.883042 288 435.883042 288 435.883042 
" clip-path="url(#p7c8c82e4bd)" style="fill: none; stroke: #b0b0b0; stroke-width: 0.8; stroke-linecap: square"/>
     </g>
     <g id="text_7">
      <text style="font: 10px 'Arial', sans-serif; text-anchor: middle" x="285.605859" y="449.618703" transform="rotate(-0 285.605859 449.618703)">0</text>
     </g>
    </g>
    <g id="ytick_2">
     <g id="line2d_7">
      <path d="M 317.981357 424.97072 
C 315.742245 418.81881 311.663004 413.502639 306.30024 409.747591 
C 300.937476 405.992543 294.546726 403.977548 288 403.977548 
C 281.453274 403.977548 275.062524 405.992543 269.69976 409.747591 
C 264.336996 413.502639 260.257755 418.81881 258.018643 424.97072 
" clip-path="url(#p7c8c82e4bd)" style="fill: none; stroke: #b0b0b0; stroke-width: 0.8; stroke-linecap: square"/>
     </g>
     <g id="text_8">
      <text style="font: 10px 'Arial', sans-serif; text-anchor: middle" x="315.587216" y="438.706381" transform="rotate(-0 315.587216 438.706381)">5</text>
     </g>
    </g>
    <g id="ytick_3">
     <g id="line2d_8">
      <path d="M 347.962715 414.058398 
C 343.484491 401.754578 335.326007 391.122236 324.600479 383.61214 
C 313.874951 376.102045 301.093452 372.072053 288 372.072053 
C 274.906548 372.072053 262.125049 376.102045 251.399521 383.61214 
C 240.673993 391.122236 232.515509 401.754578 228.037285 414.058398 
" clip-path="url(#p7c8c82e4bd)" style="fill: none; stroke: #b0b0b0; stroke-width: 0.8; stroke-linecap: square"/>
     </g>
     <g id="text_9">
      <text style="font: 10px 'Arial', sans-serif; text-anchor: middle" x="345.568574" y="427.794059" transform="rotate(-0 345.568574 427.794059)">10</text>
     </g>
    </g>
    <g id="ytick_4">
     <g id="line2d_9">
      <path d="M 377.944072 403.146077 
C 371.226736 384.690346 358.989011 368.741833 342.900719 357.476689 
C 326.812427 346.211546 307.640178 340.166559 288 340.166559 
C 268.359822 340.166559 249.187573 346.211546 233.099281 357.476689 
C 217.010989 368.741833 204.773264 384.690346 198.055928 403.146077 
" clip-path="url(#p7c8c82e4bd)" style="fill: none; stroke: #b0b0b0; stroke-width: 0.8; stroke-linecap: square"/>
     </g>
     <g id="text_10">
      <text style="font: 10px 'Arial', sans-serif; text-anchor: middle" x="375.549931" y="416.881738" transform="rotate(-0 375.549931 416.881738)">15</text>
     </g>
    </g>
    <g id="ytick_5">
     <g id="line2d_10">
      <path d="M 407.92543 392.233755 
C 398.968981 367.626115 382.652014 346.36143 361.200959 331.341239 
C 339.749903 316.321048 314.186904 308.261065 288 308.261065 
C 261.813096 308.261065 236.250097 316.321048 214.799041 331.341239 
C 193.347986 346.36143 177.031019 367.626115 168.07457 392.233755 
" clip-path="url(#p7c8c82e4bd)" style="fill: none; stroke: #b0b0b0; stroke-width: 0.8; stroke-linecap: square"/>
     </g>
     <g id="text_11">
      <text style="font: 10px 'Arial', sans-serif; text-anchor: middle" x="405.531289" y="405.969416" transform="rotate(-0 405.531289 405.969416)">20</text>
     </g>
    </g>
    <g id="ytick_6">
     <g id="line2d_11">
      <path d="M 437.906787 381.321433 
C 426.711226 350.561883 406.315018 323.981027 379.501198 305.205788 
C 352.687378 286.430549 320.73363 276.355571 288 276.355571 
C 255.26637 276.355571 223.312622 286.430549 196.498802 305.205788 
C 169.684982 323.981027 149.288774 350.561883 138.093213 381.321433 
" clip-path="url(#p7c8c82e4bd)" style="fill: none; stroke: #b0b0b0; stroke-width: 0.8; stroke-linecap: square"/>
     </g>
     <g id="text_12">
      <text style="font: 10px 'Arial', sans-serif; text-anchor: middle" x="435.512646" y="395.057094" transform="rotate(-0 435.512646 395.057094)">25</text>
     </g>
    </g>
    <g id="ytick_7">
     <g id="line2d_12">
      <path d="M 467.888145 370.409112 
C 454.453472 333.497651 429.978022 301.600624 397.801438 279.070337 
C 365.624854 256.540051 327.280356 244.450077 288 244.450077 
C 248.719644 244.450077 210.375146 256.540051 178.198562 279.070337 
C 146.021978 301.600624 121.546528 333.497651 108.111855 370.409112 
" clip-path="url(#p7c8c82e4bd)" style="fill: none; stroke: #b0b0b0; stroke-width: 0.8; stroke-linecap: square"/>
     </g>
     <g id="text_13">
      <text style="font: 10px 'Arial', sans-serif; text-anchor: middle" x="465.494004" y="384.144772" transform="rotate(-0 465.494004 384.144772)">30</text>
     </g>
    </g>
    <g id="ytick_8">
     <g id="line2d_13">
      <path d="M 497.869502 359.49679 
C 482.195717 316.433419 453.641025 279.220221 416.101677 252.934886 
C 378.56233 226.649552 333.827082 212.544583 288 212.544583 
C 242.172918 212.544583 197.43767 226.649552 159.898323 252.934886 
C 122.358975 279.220221 93.804283 316.433419 78.130498 359.49679 
" clip-path="url(#p7c8c82e4bd)" style="fill: none; stroke: #b0b0b0; stroke-width: 0.8; stroke-linecap: square"/>
     </g>
     <g id="text_14">
      <text style="font: 10px 'Arial', sans-serif; text-anchor: middle" x="495.475361" y="373.232451" transform="rotate(-0 495.475361 373.232451)">35</text>
     </g>
    </g>
    <g id="ytick_9">
     <g id="line2d_14">
      <path d="M 527.850859 348.584468 
C 509.937962 299.369188 477.304029 256.839818 434.401917 226.799436 
C 391.499805 196.759054 340.373808 180.639088 288 180.639088 
C 235.626192 180.639088 184.500195 196.759054 141.598083 226.799436 
C 98.695971 256.839818 66.062038 299.369188 48.149141 348.584468 
" clip-path="url(#p7c8c82e4bd)" style="fill: none; stroke: #b0b0b0; stroke-width: 0.8; stroke-linecap: square"/>
     </g>
     <g id="text_15">
      <text style="font: 10px 'Arial', sans-serif; text-anchor: middle" x="525.456718" y="362.320129" transform="rotate(-0 525.456718 362.320129)">40</text>
     </g>
    </g>
    <g id="text_16">
     <text style="font: 10px 'Arial', sans-serif; text-anchor: middle" x="17.45974" y="295.179813" transform="rotate(-90 17.45974 295.179813)">Trial Count (deg)</text>
    </g>
   </g>
   <g id="patch_87">
    <path d="M 552.435573 339.636364 
C 532.686603 285.376517 496.707692 238.487887 449.408114 205.368366 
C 402.108535 172.248845 345.742123 154.476583 288 154.476583 
C 230.257877 154.476583 173.891465 172.248845 126.591886 205.368366 
C 79.292308 238.487887 43.313397 285.376517 23.564428 339.636364 
" style="fill: none; stroke: #000000; stroke-width: 0.8; stroke-linejoin: miter; stroke-linecap: square"/>
   </g>
   <g id="patch_88">
    <path d="M 288 435.883042 
L 552.435573 339.636364 
" style="fill: none; stroke: #000000; stroke-width: 0.8; stroke-linejoin: miter; stroke-linecap: square"/>
   </g>
   <g id="patch_89">
    <path d="M 288 435.883042 
L 23.564427 339.636364 
" style="fill: none; stroke: #000000; stroke-width: 0.8; stroke-linejoin: miter; stroke-linecap: square"/>
   </g>
   <g id="text_17">
    <text style="font: 12px 'Arial', sans-serif" transform="translate(192.950625 11.735865)">Centroid Rotation Angle Distribution</text>
    <text style="font: 12px 'Arial', sans-serif" transform="translate(225.9675 24.74424)">Session: day3_MLA-75</text>
   </g>
  </g>
 </g>
 <defs>
  <clipPath id="p7c8c82e4bd">
   <path d="M 552.435572 339.636364 
C 532.686603 285.376517 496.707692 238.487887 449.408114 205.368366 
C 402.108535 172.248845 345.742123 154.476583 288 154.476583 
C 230.257877 154.476583 173.891465 172.248845 126.591886 205.368366 
C 79.292308 238.487887 43.313397 285.376517 23.564428 339.636364 
L 288 435.883042 
C 288 435.883042 288 435.883042 288 435.883042 
C 288 435.883042 288 435.883042 288 435.883042 
C 288 435.883042 288 435.883042 288 435.883042 
C 288 435.883042 288 435.883042 288 435.883042 
z
"/>
  </clipPath>
 </defs>
</svg>
