<?xml version="1.0" encoding="utf-8" standalone="no"?>
<!DOCTYPE svg PUBLIC "-//W3C//DTD SVG 1.1//EN"
  "http://www.w3.org/Graphics/SVG/1.1/DTD/svg11.dtd">
<svg xmlns:xlink="http://www.w3.org/1999/xlink" width="576pt" height="576pt" viewBox="0 0 576 576" xmlns="http://www.w3.org/2000/svg" version="1.1">
 <metadata>
  <rdf:RDF xmlns:dc="http://purl.org/dc/elements/1.1/" xmlns:cc="http://creativecommons.org/ns#" xmlns:rdf="http://www.w3.org/1999/02/22-rdf-syntax-ns#">
   <cc:Work>
    <dc:type rdf:resource="http://purl.org/dc/dcmitype/StillImage"/>
    <dc:date>2026-01-28T00:01:45.807737</dc:date>
    <dc:format>image/svg+xml</dc:format>
    <dc:creator>
     <cc:Agent>
      <dc:title>Matplotlib v3.8.0, https://matplotlib.org/</dc:title>
     </cc:Agent>
    </dc:creator>
   </cc:Work>
  </rdf:RDF>
 </metadata>
 <defs>
  <style type="text/css">*{stroke-linejoin: round; stroke-linecap: butt}</style>
 </defs>
 <g id="figure_1">
  <g id="patch_1">
   <path d="M 0 576 
L 576 576 
L 576 0 
L 0 0 
z
" style="fill: #ffffff"/>
  </g>
  <g id="axes_1">
   <g id="patch_2">
    <path d="M 552.435572 339.636364 
C 532.686603 285.376517 496.707692 238.487887 449.408114 205.368366 
C 402.108535 172.248845 345.742123 154.476583 288 154.476583 
C 230.257877 154.476583 173.891465 172.248845 126.591886 205.368366 
C 79.292308 238.487887 43.313397 285.376517 23.564428 339.636364 
L 288 435.883042 
C 288 435.883042 288 435.883042 288 435.883042 
C 288 435.883042 288 435.883042 288 435.883042 
C 288 435.883042 288 435.883042 288 435.883042 
C 288 435.883042 288 435.883042 288 435.883042 
z
" style="fill: #ffffff"/>
   </g>
   <g id="patch_3">
    <path d="M 288 435.883042 
C 288 435.883042 288 435.883042 288 435.883042 
C 288 435.883042 288 435.883042 288 435.883042 
L 288 435.883042 
C 288 435.883042 288 435.883042 288 435.883042 
C 288 435.883042 288 435.883042 288 435.883042 
z
" clip-path="url(#p55dace3bef)" style="fill: #ff0000"/>
   </g>
   <g id="patch_4">
    <path d="M 288 435.883042 
C 288 435.883042 288 435.883042 288 435.883042 
C 288 435.883042 288 435.883042 288 435.883042 
L 288 435.883042 
C 288 435.883042 288 435.883042 288 435.883042 
C 288 435.883042 288 435.883042 288 435.883042 
z
" clip-path="url(#p55dace3bef)" style="fill: #ff0000"/>
   </g>
   <g id="patch_5">
    <path d="M 288 435.883042 
C 288 435.883042 288 435.883042 288 435.883042 
C 288 435.883042 288 435.883042 288 435.883042 
L 288 435.883042 
C 288 435.883042 288 435.883042 288 435.883042 
C 288 435.883042 288 435.883042 288 435.883042 
z
" clip-path="url(#p55dace3bef)" style="fill: #ff0000"/>
   </g>
   <g id="patch_6">
    <path d="M 288 435.883042 
C 288 435.883042 288 435.883042 288 435.883042 
C 288 435.883042 288 435.883042 288 435.883042 
L 288 435.883042 
C 288 435.883042 288 435.883042 288 435.883042 
C 288 435.883042 288 435.883042 288 435.883042 
z
" clip-path="url(#p55dace3bef)" style="fill: #ff0000"/>
   </g>
   <g id="patch_7">
    <path d="M 288 435.883042 
C 288 435.883042 288 435.883042 288 435.883042 
C 288 435.883042 288 435.883042 288 435.883042 
L 282.257304 430.140346 
C 282.173777 430.223873 282.092081 430.309213 282.012277 430.396304 
C 281.932472 430.483396 281.854577 430.572218 281.778648 430.662707 
z
" clip-path="url(#p55dace3bef)" style="fill: #ff0000"/>
   </g>
   <g id="patch_8">
    <path d="M 288 435.883042 
C 288 435.883042 288 435.883042 288 435.883042 
C 288 435.883042 288 435.883042 288 435.883042 
L 261.898328 404.776281 
C 261.445881 405.155929 261.00177 405.545404 260.566313 405.944426 
C 260.130857 406.343449 259.704157 406.751925 259.28652 407.169562 
z
" clip-path="url(#p55dace3bef)" style="fill: #ff0000"/>
   </g>
   <g id="patch_9">
    <path d="M 288 435.883042 
C 288 435.883042 288 435.883042 288 435.883042 
C 288 435.883042 288 435.883042 288 435.883042 
L 246.075815 376.0091 
C 245.204949 376.618887 244.347491 377.247601 243.504053 377.894794 
C 242.660614 378.541987 241.831396 379.207505 241.016991 379.890872 
z
" clip-path="url(#p55dace3bef)" style="fill: #ff0000"/>
   </g>
   <g id="patch_10">
    <path d="M 288 435.883042 
C 288 435.883042 288 435.883042 288 435.883042 
C 288 435.883042 288 435.883042 288 435.883042 
L 243.332308 358.51633 
C 242.20701 359.166021 241.096021 359.840186 240.000133 360.538343 
C 238.904246 361.236501 237.82372 361.958485 236.759329 362.70378 
z
" clip-path="url(#p55dace3bef)" style="fill: #ff0000"/>
   </g>
   <g id="patch_11">
    <path d="M 288 435.883042 
C 288 435.883042 288 435.883042 288 435.883042 
C 288 435.883042 288 435.883042 288 435.883042 
L 277.703246 413.801582 
C 277.382071 413.951348 277.064203 414.108103 276.749866 414.271736 
C 276.43553 414.435369 276.124802 414.605841 275.817902 414.783029 
z
" clip-path="url(#p55dace3bef)" style="fill: #ff0000"/>
   </g>
   <g id="patch_12">
    <path d="M 288 435.883042 
C 288 435.883042 288 435.883042 288 435.883042 
C 288 435.883042 288 435.883042 288 435.883042 
L 276.889272 405.356569 
C 276.445265 405.518174 276.004837 405.689447 275.568301 405.870266 
C 275.131766 406.051085 274.699227 406.241407 274.270995 406.441095 
z
" clip-path="url(#p55dace3bef)" style="fill: #ff0000"/>
   </g>
   <g id="patch_13">
    <path d="M 288 435.883042 
C 288 435.883042 288 435.883042 288 435.883042 
C 288 435.883042 288 435.883042 288 435.883042 
L 285.898027 428.038373 
C 285.783927 428.068946 285.670507 428.102005 285.557848 428.137526 
C 285.44519 428.173047 285.33332 428.211022 285.222318 428.251423 
z
" clip-path="url(#p55dace3bef)" style="fill: #ff0000"/>
   </g>
   <g id="patch_14">
    <path d="M 288 435.883042 
C 288 435.883042 288 435.883042 288 435.883042 
C 288 435.883042 288 435.883042 288 435.883042 
L 288 435.883042 
C 288 435.883042 288 435.883042 288 435.883042 
C 288 435.883042 288 435.883042 288 435.883042 
z
" clip-path="url(#p55dace3bef)" style="fill: #ff0000"/>
   </g>
   <g id="patch_15">
    <path d="M 288 435.883042 
C 288 435.883042 288 435.883042 288 435.883042 
C 288 435.883042 288 435.883042 288 435.883042 
L 287.292173 427.792548 
C 287.174497 427.802843 287.05706 427.815704 286.939945 427.831123 
C 286.82283 427.846541 286.706065 427.864513 286.589734 427.885026 
z
" clip-path="url(#p55dace3bef)" style="fill: #ff0000"/>
   </g>
   <g id="patch_16">
    <path d="M 288 435.883042 
C 288 435.883042 288 435.883042 288 435.883042 
C 288 435.883042 288 435.883042 288 435.883042 
L 288 427.761643 
C 287.881874 427.761643 287.763763 427.76422 287.64575 427.769373 
C 287.527736 427.774526 287.40985 427.782252 287.292173 427.792548 
z
" clip-path="url(#p55dace3bef)" style="fill: #ff0000"/>
   </g>
   <g id="patch_17">
    <path d="M 288 435.883042 
C 288 435.883042 288 435.883042 288 435.883042 
C 288 435.883042 288 435.883042 288 435.883042 
L 288 435.883042 
C 288 435.883042 288 435.883042 288 435.883042 
C 288 435.883042 288 435.883042 288 435.883042 
z
" clip-path="url(#p55dace3bef)" style="fill: #ff0000"/>
   </g>
   <g id="patch_18">
    <path d="M 288 435.883042 
C 288 435.883042 288 435.883042 288 435.883042 
C 288 435.883042 288 435.883042 288 435.883042 
L 297.871862 379.896928 
C 297.057545 379.753342 296.240192 379.627539 295.420387 379.51961 
C 294.600581 379.411681 293.778519 379.32165 292.954786 379.249583 
z
" clip-path="url(#p55dace3bef)" style="fill: #ff0000"/>
   </g>
   <g id="patch_19">
    <path d="M 288 435.883042 
C 288 435.883042 288 435.883042 288 435.883042 
C 288 435.883042 288 435.883042 288 435.883042 
L 304.815781 373.125693 
C 303.902976 372.881108 302.984944 372.656467 302.062339 372.45193 
C 301.139734 372.247394 300.212777 372.06301 299.282128 371.898912 
z
" clip-path="url(#p55dace3bef)" style="fill: #ff0000"/>
   </g>
   <g id="patch_20">
    <path d="M 288 435.883042 
C 288 435.883042 288 435.883042 288 435.883042 
C 288 435.883042 288 435.883042 288 435.883042 
L 312.999137 367.198477 
C 312.000121 366.834865 310.993291 366.493092 309.979365 366.173403 
C 308.965439 365.853713 307.944659 365.556183 306.917753 365.281025 
z
" clip-path="url(#p55dace3bef)" style="fill: #ff0000"/>
   </g>
   <g id="patch_21">
    <path d="M 288 435.883042 
C 288 435.883042 288 435.883042 288 435.883042 
C 288 435.883042 288 435.883042 288 435.883042 
L 318.890262 369.638661 
C 317.926738 369.189363 316.953527 368.76114 315.971322 368.354297 
C 314.989117 367.947454 313.998153 367.56209 312.999137 367.198477 
z
" clip-path="url(#p55dace3bef)" style="fill: #ff0000"/>
   </g>
   <g id="patch_22">
    <path d="M 288 435.883042 
C 288 435.883042 288 435.883042 288 435.883042 
C 288 435.883042 288 435.883042 288 435.883042 
L 292.060699 428.849704 
C 291.958399 428.790642 291.854823 428.733818 291.750045 428.679273 
C 291.645266 428.624729 291.53931 428.572477 291.432251 428.522555 
z
" clip-path="url(#p55dace3bef)" style="fill: #ff0000"/>
   </g>
   <g id="patch_23">
    <path d="M 288 435.883042 
C 288 435.883042 288 435.883042 288 435.883042 
C 288 435.883042 288 435.883042 288 435.883042 
L 288 435.883042 
C 288 435.883042 288 435.883042 288 435.883042 
C 288 435.883042 288 435.883042 288 435.883042 
z
" clip-path="url(#p55dace3bef)" style="fill: #ff0000"/>
   </g>
   <g id="patch_24">
    <path d="M 288 435.883042 
C 288 435.883042 288 435.883042 288 435.883042 
C 288 435.883042 288 435.883042 288 435.883042 
L 288 435.883042 
C 288 435.883042 288 435.883042 288 435.883042 
C 288 435.883042 288 435.883042 288 435.883042 
z
" clip-path="url(#p55dace3bef)" style="fill: #ff0000"/>
   </g>
   <g id="patch_25">
    <path d="M 288 435.883042 
C 288 435.883042 288 435.883042 288 435.883042 
C 288 435.883042 288 435.883042 288 435.883042 
L 288 435.883042 
C 288 435.883042 288 435.883042 288 435.883042 
C 288 435.883042 288 435.883042 288 435.883042 
z
" clip-path="url(#p55dace3bef)" style="fill: #ff0000"/>
   </g>
   <g id="patch_26">
    <path d="M 288 435.883042 
C 288 435.883042 288 435.883042 288 435.883042 
C 288 435.883042 288 435.883042 288 435.883042 
L 288 435.883042 
C 288 435.883042 288 435.883042 288 435.883042 
C 288 435.883042 288 435.883042 288 435.883042 
z
" clip-path="url(#p55dace3bef)" style="fill: #ff0000"/>
   </g>
   <g id="patch_27">
    <path d="M 288 435.883042 
C 288 435.883042 288 435.883042 288 435.883042 
C 288 435.883042 288 435.883042 288 435.883042 
L 288 435.883042 
C 288 435.883042 288 435.883042 288 435.883042 
C 288 435.883042 288 435.883042 288 435.883042 
z
" clip-path="url(#p55dace3bef)" style="fill: #ff0000"/>
   </g>
   <g id="patch_28">
    <path d="M 288 435.883042 
C 288 435.883042 288 435.883042 288 435.883042 
C 288 435.883042 288 435.883042 288 435.883042 
L 288 435.883042 
C 288 435.883042 288 435.883042 288 435.883042 
C 288 435.883042 288 435.883042 288 435.883042 
z
" clip-path="url(#p55dace3bef)" style="fill: #ff0000"/>
   </g>
   <g id="patch_29">
    <path d="M 288 435.883042 
C 288 435.883042 288 435.883042 288 435.883042 
C 288 435.883042 288 435.883042 288 435.883042 
L 288 435.883042 
C 288 435.883042 288 435.883042 288 435.883042 
C 288 435.883042 288 435.883042 288 435.883042 
z
" clip-path="url(#p55dace3bef)" style="fill: #ff0000"/>
   </g>
   <g id="patch_30">
    <path d="M 288 435.883042 
C 288 435.883042 288 435.883042 288 435.883042 
C 288 435.883042 288 435.883042 288 435.883042 
L 288 435.883042 
C 288 435.883042 288 435.883042 288 435.883042 
C 288 435.883042 288 435.883042 288 435.883042 
z
" clip-path="url(#p55dace3bef)" style="fill: #ff0000"/>
   </g>
   <g id="patch_31">
    <path d="M 288 435.883042 
C 288 435.883042 288 435.883042 288 435.883042 
C 288 435.883042 288 435.883042 288 435.883042 
L 288 435.883042 
C 288 435.883042 288 435.883042 288 435.883042 
C 288 435.883042 288 435.883042 288 435.883042 
z
" clip-path="url(#p55dace3bef)" style="fill: #ffff00"/>
   </g>
   <g id="patch_32">
    <path d="M 288 435.883042 
C 288 435.883042 288 435.883042 288 435.883042 
C 288 435.883042 288 435.883042 288 435.883042 
L 288 435.883042 
C 288 435.883042 288 435.883042 288 435.883042 
C 288 435.883042 288 435.883042 288 435.883042 
z
" clip-path="url(#p55dace3bef)" style="fill: #ffff00"/>
   </g>
   <g id="patch_33">
    <path d="M 288 435.883042 
C 288 435.883042 288 435.883042 288 435.883042 
C 288 435.883042 288 435.883042 288 435.883042 
L 288 435.883042 
C 288 435.883042 288 435.883042 288 435.883042 
C 288 435.883042 288 435.883042 288 435.883042 
z
" clip-path="url(#p55dace3bef)" style="fill: #ffff00"/>
   </g>
   <g id="patch_34">
    <path d="M 288 435.883042 
C 288 435.883042 288 435.883042 288 435.883042 
C 288 435.883042 288 435.883042 288 435.883042 
L 288 435.883042 
C 288 435.883042 288 435.883042 288 435.883042 
C 288 435.883042 288 435.883042 288 435.883042 
z
" clip-path="url(#p55dace3bef)" style="fill: #ffff00"/>
   </g>
   <g id="patch_35">
    <path d="M 281.778648 430.662707 
C 281.854577 430.572218 281.932472 430.483396 282.012277 430.396304 
C 282.092081 430.309213 282.173777 430.223873 282.257304 430.140346 
L 282.257304 430.140346 
C 282.173777 430.223873 282.092081 430.309213 282.012277 430.396304 
C 281.932472 430.483396 281.854577 430.572218 281.778648 430.662707 
z
" clip-path="url(#p55dace3bef)" style="fill: #ffff00"/>
   </g>
   <g id="patch_36">
    <path d="M 259.28652 407.169562 
C 259.704157 406.751925 260.130857 406.343449 260.566313 405.944426 
C 261.00177 405.545404 261.445881 405.155929 261.898328 404.776281 
L 251.45766 392.333576 
C 250.824233 392.865084 250.202478 393.410349 249.592839 393.96898 
C 248.983199 394.527612 248.38582 395.099478 247.801128 395.68417 
z
" clip-path="url(#p55dace3bef)" style="fill: #ffff00"/>
   </g>
   <g id="patch_37">
    <path d="M 241.016991 379.890872 
C 241.831396 379.207505 242.660614 378.541987 243.504053 377.894794 
C 244.347491 377.247601 245.204949 376.618887 246.075815 376.0091 
L 208.809872 322.787818 
C 207.164904 323.939638 205.54526 325.127209 203.952099 326.349685 
C 202.358938 327.572161 200.792638 328.829249 199.254316 330.120054 
z
" clip-path="url(#p55dace3bef)" style="fill: #ffff00"/>
   </g>
   <g id="patch_38">
    <path d="M 236.759329 362.70378 
C 237.82372 361.958485 238.904246 361.236501 240.000133 360.538343 
C 241.096021 359.840186 242.20701 359.166021 243.332308 358.51633 
L 210.846714 302.249631 
C 208.903018 303.371824 206.984036 304.536291 205.091139 305.742199 
C 203.198243 306.948107 201.331881 308.19517 199.493386 309.482498 
z
" clip-path="url(#p55dace3bef)" style="fill: #ffff00"/>
   </g>
   <g id="patch_39">
    <path d="M 275.817902 414.783029 
C 276.124802 414.605841 276.43553 414.435369 276.749866 414.271736 
C 277.064203 414.108103 277.382071 413.951348 277.703246 413.801582 
L 250.245235 354.917688 
C 249.067595 355.46683 247.902076 356.041601 246.74951 356.641589 
C 245.596945 357.241577 244.457606 357.866639 243.332308 358.51633 
z
" clip-path="url(#p55dace3bef)" style="fill: #ffff00"/>
   </g>
   <g id="patch_40">
    <path d="M 274.270995 406.441095 
C 274.699227 406.241407 275.131766 406.051085 275.568301 405.870266 
C 276.004837 405.689447 276.445265 405.518174 276.889272 405.356569 
L 260.223181 359.566859 
C 259.113163 359.970873 258.012092 360.399056 256.920753 360.851103 
C 255.829415 361.30315 254.748069 361.778954 253.677487 362.278175 
z
" clip-path="url(#p55dace3bef)" style="fill: #ffff00"/>
   </g>
   <g id="patch_41">
    <path d="M 285.222318 428.251423 
C 285.33332 428.211022 285.44519 428.173047 285.557848 428.137526 
C 285.670507 428.102005 285.783927 428.068946 285.898027 428.038373 
L 277.490137 396.659699 
C 276.919634 396.812565 276.352534 396.977859 275.789242 397.155465 
C 275.22595 397.33307 274.6666 397.522944 274.111591 397.72495 
z
" clip-path="url(#p55dace3bef)" style="fill: #ffff00"/>
   </g>
   <g id="patch_42">
    <path d="M 288 435.883042 
C 288 435.883042 288 435.883042 288 435.883042 
C 288 435.883042 288 435.883042 288 435.883042 
L 285.179468 419.887009 
C 284.946806 419.928034 284.715066 419.97413 284.484415 420.025264 
C 284.253764 420.076398 284.024256 420.132558 283.796055 420.193705 
z
" clip-path="url(#p55dace3bef)" style="fill: #ffff00"/>
   </g>
   <g id="patch_43">
    <path d="M 286.589734 427.885026 
C 286.706065 427.864513 286.82283 427.846541 286.939945 427.831123 
C 287.05706 427.815704 287.174497 427.802843 287.292173 427.792548 
L 286.584347 419.702053 
C 286.348995 419.722644 286.11412 419.748367 285.87989 419.779204 
C 285.645659 419.810041 285.41213 419.845985 285.179468 419.887009 
z
" clip-path="url(#p55dace3bef)" style="fill: #ffff00"/>
   </g>
   <g id="patch_44">
    <path d="M 287.292173 427.792548 
C 287.40985 427.782252 287.527736 427.774526 287.64575 427.769373 
C 287.763763 427.76422 287.881874 427.761643 288 427.761643 
L 288 403.397448 
C 287.527497 403.397448 287.055051 403.407757 286.582998 403.428367 
C 286.110945 403.448977 285.639398 403.479884 285.168694 403.521065 
z
" clip-path="url(#p55dace3bef)" style="fill: #ffff00"/>
   </g>
   <g id="patch_45">
    <path d="M 288 435.883042 
C 288 435.883042 288 435.883042 288 435.883042 
C 288 435.883042 288 435.883042 288 435.883042 
L 289.415653 419.702053 
C 289.180301 419.681463 288.944527 419.666009 288.708501 419.655704 
C 288.472474 419.645399 288.236251 419.640245 288 419.640245 
z
" clip-path="url(#p55dace3bef)" style="fill: #ffff00"/>
   </g>
   <g id="patch_46">
    <path d="M 292.954786 379.249583 
C 293.778519 379.32165 294.600581 379.411681 295.420387 379.51961 
C 296.240192 379.627539 297.057545 379.753342 297.871862 379.896928 
L 310.564257 307.914782 
C 308.70296 307.586585 306.834724 307.299036 304.960884 307.052341 
C 303.087043 306.805645 301.208042 306.599861 299.325224 306.435136 
z
" clip-path="url(#p55dace3bef)" style="fill: #ffff00"/>
   </g>
   <g id="patch_47">
    <path d="M 299.282128 371.898912 
C 300.212777 372.06301 301.139734 372.247394 302.062339 372.45193 
C 302.984944 372.656467 303.902976 372.881108 304.815781 373.125693 
L 313.223671 341.747019 
C 311.854464 341.380141 310.477415 341.043179 309.093508 340.736374 
C 307.709601 340.42957 306.319165 340.152995 304.923193 339.906847 
z
" clip-path="url(#p55dace3bef)" style="fill: #ffff00"/>
   </g>
   <g id="patch_48">
    <path d="M 306.917753 365.281025 
C 307.944659 365.556183 308.965439 365.853713 309.979365 366.173403 
C 310.993291 366.493092 312.000121 366.834865 312.999137 367.198477 
L 340.775956 290.882295 
C 338.666922 290.114669 336.541391 289.393149 334.400881 288.718249 
C 332.260371 288.043348 330.105391 287.415229 327.93748 286.834339 
z
" clip-path="url(#p55dace3bef)" style="fill: #ffff00"/>
   </g>
   <g id="patch_49">
    <path d="M 312.999137 367.198477 
C 313.998153 367.56209 314.989117 367.947454 315.971322 368.354297 
C 316.953527 368.76114 317.926738 369.189363 318.890262 369.638661 
L 356.645026 288.673307 
C 354.503863 287.674866 352.34117 286.723259 350.158493 285.819165 
C 347.975816 284.91507 345.773673 284.058704 343.553638 283.250677 
z
" clip-path="url(#p55dace3bef)" style="fill: #ffff00"/>
   </g>
   <g id="patch_50">
    <path d="M 291.432251 428.522555 
C 291.53931 428.572477 291.645266 428.624729 291.750045 428.679273 
C 291.854823 428.733818 291.958399 428.790642 292.060699 428.849704 
L 296.121399 421.816367 
C 295.916799 421.698241 295.709646 421.584594 295.500089 421.475505 
C 295.290532 421.366416 295.078619 421.261912 294.864503 421.162068 
z
" clip-path="url(#p55dace3bef)" style="fill: #ffff00"/>
   </g>
   <g id="patch_51">
    <path d="M 288 435.883042 
C 288 435.883042 288 435.883042 288 435.883042 
C 288 435.883042 288 435.883042 288 435.883042 
L 292.658243 429.230382 
C 292.56148 429.162627 292.46325 429.096993 292.363624 429.033524 
C 292.263998 428.970055 292.162999 428.908767 292.060699 428.849704 
z
" clip-path="url(#p55dace3bef)" style="fill: #ffff00"/>
   </g>
   <g id="patch_52">
    <path d="M 288 435.883042 
C 288 435.883042 288 435.883042 288 435.883042 
C 288 435.883042 288 435.883042 288 435.883042 
L 288 435.883042 
C 288 435.883042 288 435.883042 288 435.883042 
C 288 435.883042 288 435.883042 288 435.883042 
z
" clip-path="url(#p55dace3bef)" style="fill: #ffff00"/>
   </g>
   <g id="patch_53">
    <path d="M 288 435.883042 
C 288 435.883042 288 435.883042 288 435.883042 
C 288 435.883042 288 435.883042 288 435.883042 
L 288 435.883042 
C 288 435.883042 288 435.883042 288 435.883042 
C 288 435.883042 288 435.883042 288 435.883042 
z
" clip-path="url(#p55dace3bef)" style="fill: #ffff00"/>
   </g>
   <g id="patch_54">
    <path d="M 288 435.883042 
C 288 435.883042 288 435.883042 288 435.883042 
C 288 435.883042 288 435.883042 288 435.883042 
L 288 435.883042 
C 288 435.883042 288 435.883042 288 435.883042 
C 288 435.883042 288 435.883042 288 435.883042 
z
" clip-path="url(#p55dace3bef)" style="fill: #ffff00"/>
   </g>
   <g id="patch_55">
    <path d="M 288 435.883042 
C 288 435.883042 288 435.883042 288 435.883042 
C 288 435.883042 288 435.883042 288 435.883042 
L 288 435.883042 
C 288 435.883042 288 435.883042 288 435.883042 
C 288 435.883042 288 435.883042 288 435.883042 
z
" clip-path="url(#p55dace3bef)" style="fill: #ffff00"/>
   </g>
   <g id="patch_56">
    <path d="M 288 435.883042 
C 288 435.883042 288 435.883042 288 435.883042 
C 288 435.883042 288 435.883042 288 435.883042 
L 288 435.883042 
C 288 435.883042 288 435.883042 288 435.883042 
C 288 435.883042 288 435.883042 288 435.883042 
z
" clip-path="url(#p55dace3bef)" style="fill: #ffff00"/>
   </g>
   <g id="patch_57">
    <path d="M 288 435.883042 
C 288 435.883042 288 435.883042 288 435.883042 
C 288 435.883042 288 435.883042 288 435.883042 
L 288 435.883042 
C 288 435.883042 288 435.883042 288 435.883042 
C 288 435.883042 288 435.883042 288 435.883042 
z
" clip-path="url(#p55dace3bef)" style="fill: #ffff00"/>
   </g>
   <g id="patch_58">
    <path d="M 288 435.883042 
C 288 435.883042 288 435.883042 288 435.883042 
C 288 435.883042 288 435.883042 288 435.883042 
L 288 435.883042 
C 288 435.883042 288 435.883042 288 435.883042 
C 288 435.883042 288 435.883042 288 435.883042 
z
" clip-path="url(#p55dace3bef)" style="fill: #ffff00"/>
   </g>
   <g id="patch_59">
    <path d="M 288 435.883042 
C 288 435.883042 288 435.883042 288 435.883042 
C 288 435.883042 288 435.883042 288 435.883042 
L 288 435.883042 
C 288 435.883042 288 435.883042 288 435.883042 
C 288 435.883042 288 435.883042 288 435.883042 
z
" clip-path="url(#p55dace3bef)" style="fill: #ffa500"/>
   </g>
   <g id="patch_60">
    <path d="M 288 435.883042 
C 288 435.883042 288 435.883042 288 435.883042 
C 288 435.883042 288 435.883042 288 435.883042 
L 288 435.883042 
C 288 435.883042 288 435.883042 288 435.883042 
C 288 435.883042 288 435.883042 288 435.883042 
z
" clip-path="url(#p55dace3bef)" style="fill: #ffa500"/>
   </g>
   <g id="patch_61">
    <path d="M 288 435.883042 
C 288 435.883042 288 435.883042 288 435.883042 
C 288 435.883042 288 435.883042 288 435.883042 
L 288 435.883042 
C 288 435.883042 288 435.883042 288 435.883042 
C 288 435.883042 288 435.883042 288 435.883042 
z
" clip-path="url(#p55dace3bef)" style="fill: #ffa500"/>
   </g>
   <g id="patch_62">
    <path d="M 288 435.883042 
C 288 435.883042 288 435.883042 288 435.883042 
C 288 435.883042 288 435.883042 288 435.883042 
L 288 435.883042 
C 288 435.883042 288 435.883042 288 435.883042 
C 288 435.883042 288 435.883042 288 435.883042 
z
" clip-path="url(#p55dace3bef)" style="fill: #ffa500"/>
   </g>
   <g id="patch_63">
    <path d="M 281.778648 430.662707 
C 281.854577 430.572218 281.932472 430.483396 282.012277 430.396304 
C 282.092081 430.309213 282.173777 430.223873 282.257304 430.140346 
L 282.257304 430.140346 
C 282.173777 430.223873 282.092081 430.309213 282.012277 430.396304 
C 281.932472 430.483396 281.854577 430.572218 281.778648 430.662707 
z
" clip-path="url(#p55dace3bef)" style="fill: #ffa500"/>
   </g>
   <g id="patch_64">
    <path d="M 247.801128 395.68417 
C 248.38582 395.099478 248.983199 394.527612 249.592839 393.96898 
C 250.202478 393.410349 250.824233 392.865084 251.45766 392.333576 
L 235.796657 373.66952 
C 234.891762 374.428817 234.00354 375.207766 233.132627 376.005811 
C 232.261713 376.803856 231.408315 377.620808 230.57304 378.456082 
z
" clip-path="url(#p55dace3bef)" style="fill: #ffa500"/>
   </g>
   <g id="patch_65">
    <path d="M 199.254316 330.120054 
C 200.792638 328.829249 202.358938 327.572161 203.952099 326.349685 
C 205.54526 325.127209 207.164904 323.939638 208.809872 322.787818 
L 199.493386 309.482498 
C 197.654892 310.769826 195.844703 312.097111 194.064111 313.463408 
C 192.283519 314.829704 190.532948 316.234686 188.813648 317.67735 
z
" clip-path="url(#p55dace3bef)" style="fill: #ffa500"/>
   </g>
   <g id="patch_66">
    <path d="M 199.493386 309.482498 
C 201.331881 308.19517 203.198243 306.948107 205.091139 305.742199 
C 206.984036 304.536291 208.903018 303.371824 210.846714 302.249631 
L 182.421819 253.016269 
C 179.762024 254.551902 177.13605 256.145383 174.54577 257.795573 
C 171.95549 259.445763 169.401521 261.152271 166.885687 262.913877 
z
" clip-path="url(#p55dace3bef)" style="fill: #ffa500"/>
   </g>
   <g id="patch_67">
    <path d="M 243.332308 358.51633 
C 244.457606 357.866639 245.596945 357.241577 246.74951 356.641589 
C 247.902076 356.041601 249.067595 355.46683 250.245235 354.917688 
L 236.51623 325.475741 
C 234.910357 326.224572 233.321013 327.00835 231.749332 327.826515 
C 230.177652 328.64468 228.624008 329.497038 227.089511 330.38298 
z
" clip-path="url(#p55dace3bef)" style="fill: #ffa500"/>
   </g>
   <g id="patch_68">
    <path d="M 253.677487 362.278175 
C 254.748069 361.778954 255.829415 361.30315 256.920753 360.851103 
C 258.012092 360.399056 259.113163 359.970873 260.223181 359.566859 
L 232.446362 283.250677 
C 230.226327 284.058704 228.024184 284.91507 225.841507 285.819165 
C 223.65883 286.723259 221.496137 287.674866 219.354974 288.673307 
z
" clip-path="url(#p55dace3bef)" style="fill: #ffa500"/>
   </g>
   <g id="patch_69">
    <path d="M 274.111591 397.72495 
C 274.6666 397.522944 275.22595 397.33307 275.789242 397.155465 
C 276.352534 396.977859 276.919634 396.812565 277.490137 396.659699 
L 275.388164 388.81503 
C 274.703561 388.998469 274.023041 389.196823 273.34709 389.409949 
C 272.67114 389.623076 271.999919 389.850924 271.333909 390.093332 
z
" clip-path="url(#p55dace3bef)" style="fill: #ffa500"/>
   </g>
   <g id="patch_70">
    <path d="M 283.796055 420.193705 
C 284.024256 420.132558 284.253764 420.076398 284.484415 420.025264 
C 284.715066 419.97413 284.946806 419.928034 285.179468 419.887009 
L 280.94867 395.892961 
C 280.367015 395.995522 279.787666 396.110762 279.211038 396.238597 
C 278.63441 396.366432 278.06064 396.506833 277.490137 396.659699 
z
" clip-path="url(#p55dace3bef)" style="fill: #ffa500"/>
   </g>
   <g id="patch_71">
    <path d="M 285.179468 419.887009 
C 285.41213 419.845985 285.645659 419.810041 285.87989 419.779204 
C 286.11412 419.748367 286.348995 419.722644 286.584347 419.702053 
L 283.753041 387.340077 
C 283.046984 387.401849 282.342359 387.479018 281.639669 387.571529 
C 280.936978 387.66404 280.23639 387.771871 279.538404 387.894944 
z
" clip-path="url(#p55dace3bef)" style="fill: #ffa500"/>
   </g>
   <g id="patch_72">
    <path d="M 285.168694 403.521065 
C 285.639398 403.479884 286.110945 403.448977 286.582998 403.428367 
C 287.055051 403.407757 287.527497 403.397448 288 403.397448 
L 288 379.033252 
C 287.173121 379.033252 286.346339 379.051293 285.520247 379.087361 
C 284.694155 379.123429 283.868947 379.177515 283.045214 379.249583 
z
" clip-path="url(#p55dace3bef)" style="fill: #ffa500"/>
   </g>
   <g id="patch_73">
    <path d="M 288 419.640245 
C 288.236251 419.640245 288.472474 419.645399 288.708501 419.655704 
C 288.944527 419.666009 289.180301 419.681463 289.415653 419.702053 
L 292.246959 387.340077 
C 291.540902 387.278305 290.833582 387.231945 290.125503 387.201029 
C 289.417423 387.170114 288.708754 387.154651 288 387.154651 
z
" clip-path="url(#p55dace3bef)" style="fill: #ffa500"/>
   </g>
   <g id="patch_74">
    <path d="M 299.325224 306.435136 
C 301.208042 306.599861 303.087043 306.805645 304.960884 307.052341 
C 306.834724 307.299036 308.70296 307.586585 310.564257 307.914782 
L 319.025853 259.926685 
C 316.46657 259.475414 313.897746 259.080034 311.321215 258.740828 
C 308.744684 258.401621 306.161058 258.118668 303.572183 257.892171 
z
" clip-path="url(#p55dace3bef)" style="fill: #ffa500"/>
   </g>
   <g id="patch_75">
    <path d="M 304.923193 339.906847 
C 306.319165 340.152995 307.709601 340.42957 309.093508 340.736374 
C 310.477415 341.043179 311.854464 341.380141 313.223671 341.747019 
L 332.141425 271.145002 
C 329.745312 270.502965 327.335477 269.913282 324.91364 269.376374 
C 322.491802 268.839466 320.058539 268.355459 317.615587 267.924701 
z
" clip-path="url(#p55dace3bef)" style="fill: #ffa500"/>
   </g>
   <g id="patch_76">
    <path d="M 327.93748 286.834339 
C 330.105391 287.415229 332.260371 288.043348 334.400881 288.718249 
C 336.541391 289.393149 338.666922 290.114669 340.775956 290.882295 
L 379.663502 184.039639 
C 376.000443 182.706395 372.308732 181.453228 368.591004 180.281033 
C 364.873276 179.108838 361.130416 178.017893 357.365096 177.008979 
z
" clip-path="url(#p55dace3bef)" style="fill: #ffa500"/>
   </g>
   <g id="patch_77">
    <path d="M 343.553638 283.250677 
C 345.773673 284.058704 347.975816 284.91507 350.158493 285.819165 
C 352.34117 286.723259 354.503863 287.674866 356.645026 288.673307 
L 377.238534 244.510387 
C 374.455022 243.212414 371.643521 241.975324 368.806041 240.800001 
C 365.968561 239.624678 363.105776 238.511402 360.219729 237.460967 
z
" clip-path="url(#p55dace3bef)" style="fill: #ffa500"/>
   </g>
   <g id="patch_78">
    <path d="M 294.864503 421.162068 
C 295.078619 421.261912 295.290532 421.366416 295.500089 421.475505 
C 295.709646 421.584594 295.916799 421.698241 296.121399 421.816367 
L 308.303496 400.716355 
C 307.791997 400.421041 307.274116 400.136921 306.750223 399.864199 
C 306.226329 399.591478 305.696548 399.330218 305.161257 399.080608 
z
" clip-path="url(#p55dace3bef)" style="fill: #ffa500"/>
   </g>
   <g id="patch_79">
    <path d="M 292.060699 428.849704 
C 292.162999 428.908767 292.263998 428.970055 292.363624 429.033524 
C 292.46325 429.096993 292.56148 429.162627 292.658243 429.230382 
L 297.316486 422.577721 
C 297.12296 422.442213 296.926501 422.310943 296.727248 422.184006 
C 296.527996 422.057068 296.325998 421.934493 296.121399 421.816367 
z
" clip-path="url(#p55dace3bef)" style="fill: #ffa500"/>
   </g>
   <g id="patch_80">
    <path d="M 288 435.883042 
C 288 435.883042 288 435.883042 288 435.883042 
C 288 435.883042 288 435.883042 288 435.883042 
L 288 435.883042 
C 288 435.883042 288 435.883042 288 435.883042 
C 288 435.883042 288 435.883042 288 435.883042 
z
" clip-path="url(#p55dace3bef)" style="fill: #ffa500"/>
   </g>
   <g id="patch_81">
    <path d="M 288 435.883042 
C 288 435.883042 288 435.883042 288 435.883042 
C 288 435.883042 288 435.883042 288 435.883042 
L 288 435.883042 
C 288 435.883042 288 435.883042 288 435.883042 
C 288 435.883042 288 435.883042 288 435.883042 
z
" clip-path="url(#p55dace3bef)" style="fill: #ffa500"/>
   </g>
   <g id="patch_82">
    <path d="M 288 435.883042 
C 288 435.883042 288 435.883042 288 435.883042 
C 288 435.883042 288 435.883042 288 435.883042 
L 288 435.883042 
C 288 435.883042 288 435.883042 288 435.883042 
C 288 435.883042 288 435.883042 288 435.883042 
z
" clip-path="url(#p55dace3bef)" style="fill: #ffa500"/>
   </g>
   <g id="patch_83">
    <path d="M 288 435.883042 
C 288 435.883042 288 435.883042 288 435.883042 
C 288 435.883042 288 435.883042 288 435.883042 
L 288 435.883042 
C 288 435.883042 288 435.883042 288 435.883042 
C 288 435.883042 288 435.883042 288 435.883042 
z
" clip-path="url(#p55dace3bef)" style="fill: #ffa500"/>
   </g>
   <g id="patch_84">
    <path d="M 288 435.883042 
C 288 435.883042 288 435.883042 288 435.883042 
C 288 435.883042 288 435.883042 288 435.883042 
L 288 435.883042 
C 288 435.883042 288 435.883042 288 435.883042 
C 288 435.883042 288 435.883042 288 435.883042 
z
" clip-path="url(#p55dace3bef)" style="fill: #ffa500"/>
   </g>
   <g id="patch_85">
    <path d="M 288 435.883042 
C 288 435.883042 288 435.883042 288 435.883042 
C 288 435.883042 288 435.883042 288 435.883042 
L 288 435.883042 
C 288 435.883042 288 435.883042 288 435.883042 
C 288 435.883042 288 435.883042 288 435.883042 
z
" clip-path="url(#p55dace3bef)" style="fill: #ffa500"/>
   </g>
   <g id="patch_86">
    <path d="M 288 435.883042 
C 288 435.883042 288 435.883042 288 435.883042 
C 288 435.883042 288 435.883042 288 435.883042 
L 288 435.883042 
C 288 435.883042 288 435.883042 288 435.883042 
C 288 435.883042 288 435.883042 288 435.883042 
z
" clip-path="url(#p55dace3bef)" style="fill: #ffa500"/>
   </g>
   <g id="matplotlib.axis_1">
    <g id="xtick_1">
     <g id="line2d_1">
      <path d="M 288 435.883042 
L 44.294858 295.179812 
" clip-path="url(#p55dace3bef)" style="fill: none; stroke: #b0b0b0; stroke-width: 0.8; stroke-linecap: square"/>
     </g>
     <g id="text_1">
      <text style="font: 10px 'Arial', sans-serif; text-anchor: middle" x="32.170502" y="290.764969" transform="rotate(-0 32.170502 290.764969)">-60°</text>
     </g>
    </g>
    <g id="xtick_2">
     <g id="line2d_2">
      <path d="M 288 435.883042 
L 147.296771 192.1779 
" clip-path="url(#p55dace3bef)" style="fill: none; stroke: #b0b0b0; stroke-width: 0.8; stroke-linecap: square"/>
     </g>
     <g id="text_2">
      <text style="font: 10px 'Arial', sans-serif; text-anchor: middle" x="140.296771" y="182.6387" transform="rotate(-0 140.296771 182.6387)">-30°</text>
     </g>
    </g>
    <g id="xtick_3">
     <g id="line2d_3">
      <path d="M 288 435.883042 
L 288 154.476583 
" clip-path="url(#p55dace3bef)" style="fill: none; stroke: #b0b0b0; stroke-width: 0.8; stroke-linecap: square"/>
     </g>
     <g id="text_3">
      <text style="font: 10px 'Arial', sans-serif; text-anchor: middle" x="288" y="143.061739" transform="rotate(-0 288 143.061739)">0°</text>
     </g>
    </g>
    <g id="xtick_4">
     <g id="line2d_4">
      <path d="M 288 435.883042 
L 428.703229 192.1779 
" clip-path="url(#p55dace3bef)" style="fill: none; stroke: #b0b0b0; stroke-width: 0.8; stroke-linecap: square"/>
     </g>
     <g id="text_4">
      <text style="font: 10px 'Arial', sans-serif; text-anchor: middle" x="435.703229" y="182.6387" transform="rotate(-0 435.703229 182.6387)">30°</text>
     </g>
    </g>
    <g id="xtick_5">
     <g id="line2d_5">
      <path d="M 288 435.883042 
L 531.705142 295.179813 
" clip-path="url(#p55dace3bef)" style="fill: none; stroke: #b0b0b0; stroke-width: 0.8; stroke-linecap: square"/>
     </g>
     <g id="text_5">
      <text style="font: 10px 'Arial', sans-serif; text-anchor: middle" x="543.829498" y="290.764969" transform="rotate(-0 543.829498 290.764969)">60°</text>
     </g>
    </g>
    <g id="text_6">
     <text style="font: 10px 'Arial', sans-serif; text-anchor: middle" x="288" y="570.895072" transform="rotate(-0 288 570.895072)">Mean Trial Angle (deg) - Bin-Size=5 deg</text>
    </g>
   </g>
   <g id="matplotlib.axis_2">
    <g id="ytick_1">
     <g id="line2d_6">
      <path d="M 288 435.883042 
C 288 435.883042 288 435.883042 288 435.883042 
C 288 435.883042 288 435.883042 288 435.883042 
C 288 435.883042 288 435.883042 288 435.883042 
C 288 435.883042 288 435.883042 288 435.883042 
" clip-path="url(#p55dace3bef)" style="fill: none; stroke: #b0b0b0; stroke-width: 0.8; stroke-linecap: square"/>
     </g>
     <g id="text_7">
      <text style="font: 10px 'Arial', sans-serif; text-anchor: middle" x="285.605859" y="449.618703" transform="rotate(-0 285.605859 449.618703)">0</text>
     </g>
    </g>
    <g id="ytick_2">
     <g id="line2d_7">
      <path d="M 326.158091 421.994632 
C 323.308312 414.164929 318.11655 407.398892 311.291214 402.619741 
C 304.465878 397.840589 296.332197 395.276049 288 395.276049 
C 279.667803 395.276049 271.534122 397.840589 264.708786 402.619741 
C 257.88345 407.398892 252.691688 414.164929 249.841909 421.994632 
" clip-path="url(#p55dace3bef)" style="fill: none; stroke: #b0b0b0; stroke-width: 0.8; stroke-linecap: square"/>
     </g>
     <g id="text_8">
      <text style="font: 10px 'Arial', sans-serif; text-anchor: middle" x="323.76395" y="435.730293" transform="rotate(-0 323.76395 435.730293)">5</text>
     </g>
    </g>
    <g id="ytick_3">
     <g id="line2d_8">
      <path d="M 364.316183 408.106223 
C 358.616624 392.446815 348.2331 378.914743 334.582428 369.35644 
C 320.931756 359.798136 304.664393 354.669057 288 354.669057 
C 271.335607 354.669057 255.068244 359.798136 241.417572 369.35644 
C 227.7669 378.914743 217.383376 392.446815 211.683817 408.106223 
" clip-path="url(#p55dace3bef)" style="fill: none; stroke: #b0b0b0; stroke-width: 0.8; stroke-linecap: square"/>
     </g>
     <g id="text_9">
      <text style="font: 10px 'Arial', sans-serif; text-anchor: middle" x="361.922042" y="421.841884" transform="rotate(-0 361.922042 421.841884)">10</text>
     </g>
    </g>
    <g id="ytick_4">
     <g id="line2d_9">
      <path d="M 402.474274 394.217813 
C 393.924936 370.728702 378.34965 350.430594 357.873642 336.093139 
C 337.397634 321.755684 312.99659 314.062064 288 314.062064 
C 263.00341 314.062064 238.602366 321.755684 218.126358 336.093139 
C 197.65035 350.430594 182.075064 370.728702 173.525726 394.217813 
" clip-path="url(#p55dace3bef)" style="fill: none; stroke: #b0b0b0; stroke-width: 0.8; stroke-linecap: square"/>
     </g>
     <g id="text_10">
      <text style="font: 10px 'Arial', sans-serif; text-anchor: middle" x="400.080133" y="407.953474" transform="rotate(-0 400.080133 407.953474)">15</text>
     </g>
    </g>
    <g id="ytick_5">
     <g id="line2d_10">
      <path d="M 440.632365 380.329404 
C 429.233249 349.010589 408.4662 321.946445 381.164856 302.829838 
C 353.863513 283.713231 321.328787 273.455071 288 273.455071 
C 254.671213 273.455071 222.136487 283.713231 194.835144 302.829838 
C 167.5338 321.946445 146.766751 349.010589 135.367635 380.329404 
" clip-path="url(#p55dace3bef)" style="fill: none; stroke: #b0b0b0; stroke-width: 0.8; stroke-linecap: square"/>
     </g>
     <g id="text_11">
      <text style="font: 10px 'Arial', sans-serif; text-anchor: middle" x="438.238224" y="394.065065" transform="rotate(-0 438.238224 394.065065)">20</text>
     </g>
    </g>
    <g id="ytick_6">
     <g id="line2d_11">
      <path d="M 478.790456 366.440995 
C 464.541561 327.292476 438.58275 293.462295 404.45607 269.566537 
C 370.329391 245.670778 329.660984 232.848079 288 232.848079 
C 246.339016 232.848079 205.670609 245.670778 171.54393 269.566537 
C 137.41725 293.462295 111.458439 327.292476 97.209544 366.440995 
" clip-path="url(#p55dace3bef)" style="fill: none; stroke: #b0b0b0; stroke-width: 0.8; stroke-linecap: square"/>
     </g>
     <g id="text_12">
      <text style="font: 10px 'Arial', sans-serif; text-anchor: middle" x="476.396315" y="380.176656" transform="rotate(-0 476.396315 380.176656)">25</text>
     </g>
    </g>
    <g id="ytick_7">
     <g id="line2d_12">
      <path d="M 516.948548 352.552585 
C 499.849873 305.574363 468.6993 264.978146 427.747285 236.303236 
C 386.795269 207.628326 337.99318 192.241086 288 192.241086 
C 238.00682 192.241086 189.204731 207.628326 148.252715 236.303236 
C 107.3007 264.978146 76.150127 305.574363 59.051452 352.552585 
" clip-path="url(#p55dace3bef)" style="fill: none; stroke: #b0b0b0; stroke-width: 0.8; stroke-linecap: square"/>
     </g>
     <g id="text_13">
      <text style="font: 10px 'Arial', sans-serif; text-anchor: middle" x="514.554407" y="366.288246" transform="rotate(-0 514.554407 366.288246)">30</text>
     </g>
    </g>
    <g id="text_14">
     <text style="font: 10px 'Arial', sans-serif; text-anchor: middle" x="17.45974" y="295.179813" transform="rotate(-90 17.45974 295.179813)">Trial Count (deg)</text>
    </g>
   </g>
   <g id="patch_87">
    <path d="M 552.435573 339.636364 
C 532.686603 285.376517 496.707692 238.487887 449.408114 205.368366 
C 402.108535 172.248845 345.742123 154.476583 288 154.476583 
C 230.257877 154.476583 173.891465 172.248845 126.591886 205.368366 
C 79.292308 238.487887 43.313397 285.376517 23.564428 339.636364 
" style="fill: none; stroke: #000000; stroke-width: 0.8; stroke-linejoin: miter; stroke-linecap: square"/>
   </g>
   <g id="patch_88">
    <path d="M 288 435.883042 
L 552.435573 339.636364 
" style="fill: none; stroke: #000000; stroke-width: 0.8; stroke-linejoin: miter; stroke-linecap: square"/>
   </g>
   <g id="patch_89">
    <path d="M 288 435.883042 
L 23.564428 339.636364 
" style="fill: none; stroke: #000000; stroke-width: 0.8; stroke-linejoin: miter; stroke-linecap: square"/>
   </g>
   <g id="text_15">
    <text style="font: 12px 'Arial', sans-serif" transform="translate(192.950625 11.735865)">Centroid Rotation Angle Distribution</text>
    <text style="font: 12px 'Arial', sans-serif" transform="translate(225.9675 24.74424)">Session: day3_MLA-76</text>
   </g>
  </g>
 </g>
 <defs>
  <clipPath id="p55dace3bef">
   <path d="M 552.435572 339.636364 
C 532.686603 285.376517 496.707692 238.487887 449.408114 205.368366 
C 402.108535 172.248845 345.742123 154.476583 288 154.476583 
C 230.257877 154.476583 173.891465 172.248845 126.591886 205.368366 
C 79.292308 238.487887 43.313397 285.376517 23.564428 339.636364 
L 288 435.883042 
C 288 435.883042 288 435.883042 288 435.883042 
C 288 435.883042 288 435.883042 288 435.883042 
C 288 435.883042 288 435.883042 288 435.883042 
C 288 435.883042 288 435.883042 288 435.883042 
z
"/>
  </clipPath>
 </defs>
</svg>
