<?xml version="1.0" encoding="utf-8" standalone="no"?>
<!DOCTYPE svg PUBLIC "-//W3C//DTD SVG 1.1//EN"
  "http://www.w3.org/Graphics/SVG/1.1/DTD/svg11.dtd">
<svg xmlns:xlink="http://www.w3.org/1999/xlink" width="413.171283pt" height="361.333136pt" viewBox="0 0 413.171283 361.333136" xmlns="http://www.w3.org/2000/svg" version="1.1">
 <metadata>
  <rdf:RDF xmlns:dc="http://purl.org/dc/elements/1.1/" xmlns:cc="http://creativecommons.org/ns#" xmlns:rdf="http://www.w3.org/1999/02/22-rdf-syntax-ns#">
   <cc:Work>
    <dc:type rdf:resource="http://purl.org/dc/dcmitype/StillImage"/>
    <dc:date>2025-12-29T04:08:05.513978</dc:date>
    <dc:format>image/svg+xml</dc:format>
    <dc:creator>
     <cc:Agent>
      <dc:title>Matplotlib v3.8.0, https://matplotlib.org/</dc:title>
     </cc:Agent>
    </dc:creator>
   </cc:Work>
  </rdf:RDF>
 </metadata>
 <defs>
  <style type="text/css">*{stroke-linejoin: round; stroke-linecap: butt}</style>
 </defs>
 <g id="figure_1">
  <g id="patch_1">
   <path d="M 0 361.333136 
L 413.171283 361.333136 
L 413.171283 -0 
L 0 -0 
z
" style="fill: #ffffff"/>
  </g>
  <g id="axes_1">
   <g id="patch_2">
    <path d="M 48.851283 285.37598 
L 405.971283 285.37598 
L 405.971283 19.26398 
L 48.851283 19.26398 
z
" style="fill: #ffffff"/>
   </g>
   <g id="PolyCollection_1">
    <defs>
     <path id="ma5b3e8acd4" d="M 48.851283 -329.973156 
L 48.851283 -258.111644 
L 60.011283 -250.647421 
L 71.171283 -235.851736 
L 82.331283 -220.154602 
L 93.491283 -206.679221 
L 104.651283 -203.555265 
L 115.811283 -203.520799 
L 126.971283 -200.503865 
L 138.131283 -191.548343 
L 149.291283 -181.713791 
L 160.451283 -174.794496 
L 171.611283 -167.556819 
L 182.771283 -160.782865 
L 193.931283 -154.358828 
L 205.091283 -154.387051 
L 216.251283 -149.825168 
L 227.411283 -144.25166 
L 238.571283 -137.188434 
L 249.731283 -130.217708 
L 260.891283 -126.254341 
L 272.051283 -119.418539 
L 283.211283 -116.150783 
L 294.371283 -117.012287 
L 305.531283 -118.807057 
L 316.691283 -114.464166 
L 327.851283 -112.087396 
L 339.011283 -111.754325 
L 350.171283 -102.830756 
L 361.331283 -108.28666 
L 372.491283 -116.621596 
L 383.651283 -121.418352 
L 394.811283 -117.179212 
L 405.971283 -115.999163 
L 405.971283 -145.973516 
L 405.971283 -145.973516 
L 394.811283 -146.089963 
L 383.651283 -149.402236 
L 372.491283 -145.565781 
L 361.331283 -139.897392 
L 350.171283 -137.569877 
L 339.011283 -148.395841 
L 327.851283 -152.327003 
L 316.691283 -158.580588 
L 305.531283 -164.643638 
L 294.371283 -162.945297 
L 283.211283 -162.045003 
L 272.051283 -165.973011 
L 260.891283 -175.798553 
L 249.731283 -184.287013 
L 238.571283 -194.7347 
L 227.411283 -206.022163 
L 216.251283 -215.836319 
L 205.091283 -223.829246 
L 193.931283 -227.882804 
L 182.771283 -236.582913 
L 171.611283 -245.838224 
L 160.451283 -253.704245 
L 149.291283 -260.897831 
L 138.131283 -274.139019 
L 126.971283 -282.405509 
L 115.811283 -280.862197 
L 104.651283 -279.004289 
L 93.491283 -282.432134 
L 82.331283 -293.86982 
L 71.171283 -307.680402 
L 60.011283 -321.798578 
L 48.851283 -329.973156 
z
" style="stroke: #1f77b4; stroke-opacity: 0.2"/>
    </defs>
    <g clip-path="url(#p482bf881db)">
     <use xlink:href="#ma5b3e8acd4" x="0" y="361.333136" style="fill: #1f77b4; fill-opacity: 0.2; stroke: #1f77b4; stroke-opacity: 0.2"/>
    </g>
   </g>
   <g id="PolyCollection_2">
    <defs>
     <path id="m3d8d08929d" d="M 48.851283 -319.569338 
L 48.851283 -252.362962 
L 60.011283 -242.767321 
L 71.171283 -223.891724 
L 82.331283 -201.244325 
L 93.491283 -177.629497 
L 104.651283 -158.694642 
L 115.811283 -154.301369 
L 126.971283 -159.317783 
L 138.131283 -154.84025 
L 149.291283 -146.032366 
L 160.451283 -140.147228 
L 171.611283 -133.12579 
L 182.771283 -122.771635 
L 193.931283 -122.374407 
L 205.091283 -113.558535 
L 216.251283 -110.647334 
L 227.411283 -106.301636 
L 238.571283 -102.736325 
L 249.731283 -109.665611 
L 260.891283 -104.090855 
L 272.051283 -98.954636 
L 283.211283 -103.377733 
L 294.371283 -100.640186 
L 305.531283 -95.672091 
L 316.691283 -93.006882 
L 327.851283 -91.270284 
L 339.011283 -91.984282 
L 350.171283 -91.164255 
L 361.331283 -88.053156 
L 372.491283 -90.930845 
L 383.651283 -96.79693 
L 394.811283 -105.167849 
L 405.971283 -112.403578 
L 405.971283 -140.358514 
L 405.971283 -140.358514 
L 394.811283 -132.719225 
L 383.651283 -124.068484 
L 372.491283 -120.306322 
L 361.331283 -117.932923 
L 350.171283 -122.83283 
L 339.011283 -126.29072 
L 327.851283 -127.578454 
L 316.691283 -129.98052 
L 305.531283 -133.468804 
L 294.371283 -138.3319 
L 283.211283 -141.285921 
L 272.051283 -137.494421 
L 260.891283 -144.023756 
L 249.731283 -151.79301 
L 238.571283 -147.308898 
L 227.411283 -152.221771 
L 216.251283 -158.323682 
L 205.091283 -164.059107 
L 193.931283 -175.38223 
L 182.771283 -180.636305 
L 171.611283 -194.472012 
L 160.451283 -205.021078 
L 149.291283 -212.945575 
L 138.131283 -222.342403 
L 126.971283 -228.471041 
L 115.811283 -227.269316 
L 104.651283 -232.741573 
L 93.491283 -250.008347 
L 82.331283 -270.550322 
L 71.171283 -290.99086 
L 60.011283 -308.841896 
L 48.851283 -319.569338 
z
" style="stroke: #ff7f0e; stroke-opacity: 0.2"/>
    </defs>
    <g clip-path="url(#p482bf881db)">
     <use xlink:href="#m3d8d08929d" x="0" y="361.333136" style="fill: #ff7f0e; fill-opacity: 0.2; stroke: #ff7f0e; stroke-opacity: 0.2"/>
    </g>
   </g>
   <g id="matplotlib.axis_1">
    <g id="text_1">
     <text style="font: 10px 'Arial', sans-serif; text-anchor: middle" x="227.411283" y="296.533792" transform="rotate(-0 227.411283 296.533792)">Time</text>
    </g>
   </g>
   <g id="matplotlib.axis_2">
    <g id="ytick_1">
     <g id="line2d_1">
      <defs>
       <path id="mb2ee487b46" d="M 0 0 
L -3.5 0 
" style="stroke: #000000; stroke-width: 0.8"/>
      </defs>
      <g>
       <use xlink:href="#mb2ee487b46" x="48.851283" y="249.26561" style="stroke: #000000; stroke-width: 0.8"/>
      </g>
     </g>
     <g id="text_2">
      <text style="font: 10px 'Arial', sans-serif; text-anchor: end" x="41.851283" y="252.844516" transform="rotate(-0 41.851283 252.844516)">−0.3</text>
     </g>
    </g>
    <g id="ytick_2">
     <g id="line2d_2">
      <g>
       <use xlink:href="#mb2ee487b46" x="48.851283" y="209.019356" style="stroke: #000000; stroke-width: 0.8"/>
      </g>
     </g>
     <g id="text_3">
      <text style="font: 10px 'Arial', sans-serif; text-anchor: end" x="41.851283" y="212.598262" transform="rotate(-0 41.851283 212.598262)">−0.2</text>
     </g>
    </g>
    <g id="ytick_3">
     <g id="line2d_3">
      <g>
       <use xlink:href="#mb2ee487b46" x="48.851283" y="168.773101" style="stroke: #000000; stroke-width: 0.8"/>
      </g>
     </g>
     <g id="text_4">
      <text style="font: 10px 'Arial', sans-serif; text-anchor: end" x="41.851283" y="172.352008" transform="rotate(-0 41.851283 172.352008)">−0.1</text>
     </g>
    </g>
    <g id="ytick_4">
     <g id="line2d_4">
      <g>
       <use xlink:href="#mb2ee487b46" x="48.851283" y="128.526847" style="stroke: #000000; stroke-width: 0.8"/>
      </g>
     </g>
     <g id="text_5">
      <text style="font: 10px 'Arial', sans-serif; text-anchor: end" x="41.851283" y="132.105753" transform="rotate(-0 41.851283 132.105753)">0.0</text>
     </g>
    </g>
    <g id="ytick_5">
     <g id="line2d_5">
      <g>
       <use xlink:href="#mb2ee487b46" x="48.851283" y="88.280593" style="stroke: #000000; stroke-width: 0.8"/>
      </g>
     </g>
     <g id="text_6">
      <text style="font: 10px 'Arial', sans-serif; text-anchor: end" x="41.851283" y="91.859499" transform="rotate(-0 41.851283 91.859499)">0.1</text>
     </g>
    </g>
    <g id="ytick_6">
     <g id="line2d_6">
      <g>
       <use xlink:href="#mb2ee487b46" x="48.851283" y="48.034338" style="stroke: #000000; stroke-width: 0.8"/>
      </g>
     </g>
     <g id="text_7">
      <text style="font: 10px 'Arial', sans-serif; text-anchor: end" x="41.851283" y="51.613245" transform="rotate(-0 41.851283 51.613245)">0.2</text>
     </g>
    </g>
    <g id="text_8">
     <text style="font: 10px 'Arial', sans-serif; text-anchor: middle" x="16.005971" y="152.31998" transform="rotate(-90 16.005971 152.31998)">Activity</text>
    </g>
   </g>
   <g id="line2d_7">
    <path d="M 48.851283 67.290736 
L 60.011283 75.110138 
L 71.171283 89.567067 
L 82.331283 104.320926 
L 93.491283 116.777459 
L 104.651283 120.053359 
L 115.811283 119.141639 
L 126.971283 119.87845 
L 138.131283 128.489455 
L 149.291283 140.027324 
L 160.451283 147.083764 
L 171.611283 154.635615 
L 182.771283 162.650245 
L 193.931283 170.212321 
L 205.091283 172.224989 
L 216.251283 178.502392 
L 227.411283 186.196226 
L 238.571283 195.371568 
L 249.731283 204.080774 
L 260.891283 210.306689 
L 272.051283 218.637361 
L 283.211283 222.235243 
L 294.371283 221.354344 
L 305.531283 219.607791 
L 316.691283 224.810759 
L 327.851283 229.125937 
L 339.011283 231.258053 
L 350.171283 241.132819 
L 361.331283 237.241107 
L 372.491283 230.239447 
L 383.651283 225.922842 
L 394.811283 229.698552 
L 405.971283 230.346797 
" clip-path="url(#p482bf881db)" style="fill: none; stroke: #1f77b4; stroke-width: 1.5; stroke-linecap: square"/>
   </g>
   <g id="line2d_8">
    <path d="M 48.851283 75.366984 
L 60.011283 85.528529 
L 71.171283 103.891842 
L 82.331283 125.435812 
L 93.491283 147.514215 
L 104.651283 165.615028 
L 115.811283 170.547793 
L 126.971283 167.438722 
L 138.131283 172.741809 
L 149.291283 181.844166 
L 160.451283 188.748983 
L 171.611283 197.534233 
L 182.771283 209.629166 
L 193.931283 212.454818 
L 205.091283 222.524312 
L 216.251283 226.847628 
L 227.411283 232.071436 
L 238.571283 236.310528 
L 249.731283 230.603823 
L 260.891283 237.27583 
L 272.051283 243.108607 
L 283.211283 239.001309 
L 294.371283 241.847093 
L 305.531283 246.762689 
L 316.691283 249.839435 
L 327.851283 251.908767 
L 339.011283 252.195635 
L 350.171283 254.334594 
L 361.331283 258.340096 
L 372.491283 255.714552 
L 383.651283 250.900429 
L 394.811283 242.389596 
L 405.971283 234.952087 
" clip-path="url(#p482bf881db)" style="fill: none; stroke: #ff7f0e; stroke-width: 1.5; stroke-linecap: square"/>
   </g>
   <g id="line2d_9">
    <path d="M 82.331283 285.37598 
L 82.331283 19.26398 
" clip-path="url(#p482bf881db)" style="fill: none; stroke-dasharray: 5.55,2.4; stroke-dashoffset: 0; stroke: #000000; stroke-opacity: 0.5; stroke-width: 1.5"/>
   </g>
   <g id="line2d_10">
    <path d="M 383.651283 285.37598 
L 383.651283 19.26398 
" clip-path="url(#p482bf881db)" style="fill: none; stroke-dasharray: 5.55,2.4; stroke-dashoffset: 0; stroke: #000000; stroke-opacity: 0.5; stroke-width: 1.5"/>
   </g>
   <g id="patch_3">
    <path d="M 48.851283 285.37598 
L 405.971283 285.37598 
" style="fill: none; stroke: #000000; stroke-width: 0.8; stroke-linejoin: miter; stroke-linecap: square"/>
   </g>
   <g id="text_9">
    <text style="font: 6.94px 'Arial', sans-serif" transform="translate(10.097767 321.385533) rotate(-35)">-0.1s Sampling</text>
   </g>
   <g id="text_10">
    <text style="font: 6.94px 'Arial', sans-serif" transform="translate(57.794497 311.430872) rotate(-35)">Sampling</text>
   </g>
   <g id="text_11">
    <text style="font: 6.94px 'Arial', sans-serif" transform="translate(319.037191 339.456682) rotate(-35)">Movement to Lateral Port</text>
   </g>
   <g id="text_12">
    <text style="font: 8.33px 'Arial', sans-serif; text-anchor: middle" x="227.411283" y="13.26398" transform="rotate(-0 227.411283 13.26398)">GP4_85_s9_L70_D250_ALM - Trace:0_GP4_85_s9_L70_D250_ALM (when: correct)</text>
   </g>
   <g id="legend_1">
    <g id="patch_4">
     <path d="M 133.696342 354.133136 
L 321.126224 354.133136 
Q 322.514224 354.133136 322.514224 352.745136 
L 322.514224 343.45638 
Q 322.514224 342.06838 321.126224 342.06838 
L 133.696342 342.06838 
Q 132.308342 342.06838 132.308342 343.45638 
L 132.308342 352.745136 
Q 132.308342 354.133136 133.696342 354.133136 
z
" style="fill: #ffffff; opacity: 0.8; stroke: #cccccc; stroke-linejoin: miter"/>
    </g>
    <g id="line2d_11">
     <path d="M 135.084342 347.467483 
L 142.024342 347.467483 
L 148.964342 347.467483 
" style="fill: none; stroke: #1f77b4; stroke-width: 1.5; stroke-linecap: square"/>
    </g>
    <g id="text_13">
     <text style="font: 6.94px 'Arial', sans-serif; text-anchor: start" x="154.516342" y="349.896483" transform="rotate(-0 154.516342 349.896483)">DecisionRight (94 pts)</text>
    </g>
    <g id="line2d_12">
     <path d="M 236.664255 347.467483 
L 243.604255 347.467483 
L 250.544255 347.467483 
" style="fill: none; stroke: #ff7f0e; stroke-width: 1.5; stroke-linecap: square"/>
    </g>
    <g id="text_14">
     <text style="font: 6.94px 'Arial', sans-serif; text-anchor: start" x="256.096255" y="349.896483" transform="rotate(-0 256.096255 349.896483)">DecisionLeft (95 pts)</text>
    </g>
   </g>
  </g>
 </g>
 <defs>
  <clipPath id="p482bf881db">
   <rect x="48.851283" y="19.26398" width="357.12" height="266.112"/>
  </clipPath>
 </defs>
</svg>
