<?xml version="1.0" encoding="utf-8" standalone="no"?>
<!DOCTYPE svg PUBLIC "-//W3C//DTD SVG 1.1//EN"
  "http://www.w3.org/Graphics/SVG/1.1/DTD/svg11.dtd">
<svg xmlns:xlink="http://www.w3.org/1999/xlink" width="417.084062pt" height="361.333136pt" viewBox="0 0 417.084062 361.333136" xmlns="http://www.w3.org/2000/svg" version="1.1">
 <metadata>
  <rdf:RDF xmlns:dc="http://purl.org/dc/elements/1.1/" xmlns:cc="http://creativecommons.org/ns#" xmlns:rdf="http://www.w3.org/1999/02/22-rdf-syntax-ns#">
   <cc:Work>
    <dc:type rdf:resource="http://purl.org/dc/dcmitype/StillImage"/>
    <dc:date>2025-12-29T04:08:04.998869</dc:date>
    <dc:format>image/svg+xml</dc:format>
    <dc:creator>
     <cc:Agent>
      <dc:title>Matplotlib v3.8.0, https://matplotlib.org/</dc:title>
     </cc:Agent>
    </dc:creator>
   </cc:Work>
  </rdf:RDF>
 </metadata>
 <defs>
  <style type="text/css">*{stroke-linejoin: round; stroke-linecap: butt}</style>
 </defs>
 <g id="figure_1">
  <g id="patch_1">
   <path d="M 0 361.333136 
L 417.084062 361.333136 
L 417.084062 -0 
L 0 -0 
z
" style="fill: #ffffff"/>
  </g>
  <g id="axes_1">
   <g id="patch_2">
    <path d="M 52.764063 285.37598 
L 409.884063 285.37598 
L 409.884063 19.26398 
L 52.764063 19.26398 
z
" style="fill: #ffffff"/>
   </g>
   <g id="PolyCollection_1">
    <defs>
     <path id="m6a75276a8b" d="M 52.764063 -142.660004 
L 52.764063 -119.440521 
L 63.924063 -119.565263 
L 75.084063 -120.117211 
L 86.244063 -123.137312 
L 97.404063 -115.120112 
L 108.564063 -108.160856 
L 119.724063 -110.805633 
L 130.884063 -109.159175 
L 142.044062 -112.983894 
L 153.204063 -114.745696 
L 164.364063 -114.348556 
L 175.524063 -108.952133 
L 186.684063 -109.429391 
L 197.844063 -109.739822 
L 209.004063 -112.27109 
L 220.164062 -108.371426 
L 231.324063 -118.909448 
L 242.484062 -124.090946 
L 253.644063 -128.246666 
L 264.804062 -134.447849 
L 275.964063 -144.222936 
L 287.124063 -154.718491 
L 298.284063 -158.13291 
L 309.444063 -154.716222 
L 320.604062 -148.785671 
L 331.764063 -155.292854 
L 342.924062 -163.319038 
L 354.084063 -164.490847 
L 365.244062 -162.449332 
L 376.404063 -168.811827 
L 387.564062 -172.408591 
L 398.724063 -179.156776 
L 409.884063 -180.892168 
L 409.884063 -214.934826 
L 409.884063 -214.934826 
L 398.724063 -212.646191 
L 387.564062 -205.214281 
L 376.404063 -202.259438 
L 365.244062 -197.186236 
L 354.084063 -199.407139 
L 342.924062 -198.873013 
L 331.764063 -191.405923 
L 320.604062 -183.576932 
L 309.444063 -189.123908 
L 298.284063 -191.937709 
L 287.124063 -186.703094 
L 275.964063 -173.18255 
L 264.804062 -160.903461 
L 253.644063 -152.784572 
L 242.484062 -147.340089 
L 231.324063 -142.442617 
L 220.164062 -131.323261 
L 209.004063 -134.286304 
L 197.844063 -130.60132 
L 186.684063 -130.144039 
L 175.524063 -130.372084 
L 164.364063 -137.580893 
L 153.204063 -138.537096 
L 142.044062 -138.366125 
L 130.884063 -134.156908 
L 119.724063 -134.975425 
L 108.564063 -127.840338 
L 97.404063 -134.261645 
L 86.244063 -142.831836 
L 75.084063 -141.948138 
L 63.924063 -142.464348 
L 52.764063 -142.660004 
z
" style="stroke: #1f77b4; stroke-opacity: 0.2"/>
    </defs>
    <g clip-path="url(#p83f0bb856e)">
     <use xlink:href="#m6a75276a8b" x="0" y="361.333136" style="fill: #1f77b4; fill-opacity: 0.2; stroke: #1f77b4; stroke-opacity: 0.2"/>
    </g>
   </g>
   <g id="PolyCollection_2">
    <defs>
     <path id="mec647cd976" d="M 52.764063 -127.60757 
L 52.764063 -113.466006 
L 63.924063 -118.455296 
L 75.084063 -115.105577 
L 86.244063 -105.783266 
L 97.404063 -95.561088 
L 108.564063 -92.080073 
L 119.724063 -91.138388 
L 130.884063 -88.540994 
L 142.044062 -88.053156 
L 153.204063 -92.677455 
L 164.364063 -93.868092 
L 175.524063 -94.45853 
L 186.684063 -92.984891 
L 197.844063 -92.205761 
L 209.004063 -92.223752 
L 220.164062 -103.10031 
L 231.324063 -113.43319 
L 242.484062 -124.677991 
L 253.644063 -132.221488 
L 264.804062 -143.895407 
L 275.964063 -158.173752 
L 287.124063 -181.883772 
L 298.284063 -199.251159 
L 309.444063 -205.844275 
L 320.604062 -212.680097 
L 331.764063 -221.164149 
L 342.924062 -231.105337 
L 354.084063 -234.463441 
L 365.244062 -241.006407 
L 376.404063 -236.174107 
L 387.564062 -235.350965 
L 398.724063 -253.654292 
L 409.884063 -280.352053 
L 409.884063 -329.973156 
L 409.884063 -329.973156 
L 398.724063 -302.243927 
L 387.564062 -285.828932 
L 376.404063 -287.304667 
L 365.244062 -291.846212 
L 354.084063 -284.384804 
L 342.924062 -279.213153 
L 331.764063 -267.615168 
L 320.604062 -258.879387 
L 309.444063 -249.282967 
L 298.284063 -241.380305 
L 287.124063 -221.67578 
L 275.964063 -195.052763 
L 264.804062 -177.43923 
L 253.644063 -162.625675 
L 242.484062 -150.891344 
L 231.324063 -136.880962 
L 220.164062 -121.99826 
L 209.004063 -108.866706 
L 197.844063 -107.450522 
L 186.684063 -107.26279 
L 175.524063 -108.508183 
L 164.364063 -105.494518 
L 153.204063 -103.748247 
L 142.044062 -100.709383 
L 130.884063 -101.438123 
L 119.724063 -104.026741 
L 108.564063 -105.987128 
L 97.404063 -110.849188 
L 86.244063 -120.710756 
L 75.084063 -131.579281 
L 63.924063 -134.210419 
L 52.764063 -127.60757 
z
" style="stroke: #ff7f0e; stroke-opacity: 0.2"/>
    </defs>
    <g clip-path="url(#p83f0bb856e)">
     <use xlink:href="#mec647cd976" x="0" y="361.333136" style="fill: #ff7f0e; fill-opacity: 0.2; stroke: #ff7f0e; stroke-opacity: 0.2"/>
    </g>
   </g>
   <g id="matplotlib.axis_1">
    <g id="text_1">
     <text style="font: 10px 'Arial', sans-serif; text-anchor: middle" x="231.324063" y="296.533792" transform="rotate(-0 231.324063 296.533792)">Time</text>
    </g>
   </g>
   <g id="matplotlib.axis_2">
    <g id="ytick_1">
     <g id="line2d_1">
      <defs>
       <path id="m738ebf6178" d="M 0 0 
L -3.5 0 
" style="stroke: #000000; stroke-width: 0.8"/>
      </defs>
      <g>
       <use xlink:href="#m738ebf6178" x="52.764063" y="254.623611" style="stroke: #000000; stroke-width: 0.8"/>
      </g>
     </g>
     <g id="text_2">
      <text style="font: 10px 'Arial', sans-serif; text-anchor: end" x="45.764063" y="258.202517" transform="rotate(-0 45.764063 258.202517)">−0.25</text>
     </g>
    </g>
    <g id="ytick_2">
     <g id="line2d_2">
      <g>
       <use xlink:href="#m738ebf6178" x="52.764063" y="221.011445" style="stroke: #000000; stroke-width: 0.8"/>
      </g>
     </g>
     <g id="text_3">
      <text style="font: 10px 'Arial', sans-serif; text-anchor: end" x="45.764063" y="224.590351" transform="rotate(-0 45.764063 224.590351)">0.00</text>
     </g>
    </g>
    <g id="ytick_3">
     <g id="line2d_3">
      <g>
       <use xlink:href="#m738ebf6178" x="52.764063" y="187.399279" style="stroke: #000000; stroke-width: 0.8"/>
      </g>
     </g>
     <g id="text_4">
      <text style="font: 10px 'Arial', sans-serif; text-anchor: end" x="45.764063" y="190.978186" transform="rotate(-0 45.764063 190.978186)">0.25</text>
     </g>
    </g>
    <g id="ytick_4">
     <g id="line2d_4">
      <g>
       <use xlink:href="#m738ebf6178" x="52.764063" y="153.787114" style="stroke: #000000; stroke-width: 0.8"/>
      </g>
     </g>
     <g id="text_5">
      <text style="font: 10px 'Arial', sans-serif; text-anchor: end" x="45.764063" y="157.36602" transform="rotate(-0 45.764063 157.36602)">0.50</text>
     </g>
    </g>
    <g id="ytick_5">
     <g id="line2d_5">
      <g>
       <use xlink:href="#m738ebf6178" x="52.764063" y="120.174948" style="stroke: #000000; stroke-width: 0.8"/>
      </g>
     </g>
     <g id="text_6">
      <text style="font: 10px 'Arial', sans-serif; text-anchor: end" x="45.764063" y="123.753854" transform="rotate(-0 45.764063 123.753854)">0.75</text>
     </g>
    </g>
    <g id="ytick_6">
     <g id="line2d_6">
      <g>
       <use xlink:href="#m738ebf6178" x="52.764063" y="86.562782" style="stroke: #000000; stroke-width: 0.8"/>
      </g>
     </g>
     <g id="text_7">
      <text style="font: 10px 'Arial', sans-serif; text-anchor: end" x="45.764063" y="90.141689" transform="rotate(-0 45.764063 90.141689)">1.00</text>
     </g>
    </g>
    <g id="ytick_7">
     <g id="line2d_7">
      <g>
       <use xlink:href="#m738ebf6178" x="52.764063" y="52.950617" style="stroke: #000000; stroke-width: 0.8"/>
      </g>
     </g>
     <g id="text_8">
      <text style="font: 10px 'Arial', sans-serif; text-anchor: end" x="45.764063" y="56.529523" transform="rotate(-0 45.764063 56.529523)">1.25</text>
     </g>
    </g>
    <g id="ytick_8">
     <g id="line2d_8">
      <g>
       <use xlink:href="#m738ebf6178" x="52.764063" y="19.338451" style="stroke: #000000; stroke-width: 0.8"/>
      </g>
     </g>
     <g id="text_9">
      <text style="font: 10px 'Arial', sans-serif; text-anchor: end" x="45.764063" y="22.917357" transform="rotate(-0 45.764063 22.917357)">1.50</text>
     </g>
    </g>
    <g id="text_10">
     <text style="font: 10px 'Arial', sans-serif; text-anchor: middle" x="14.357813" y="152.31998" transform="rotate(-90 14.357813 152.31998)">Activity</text>
    </g>
   </g>
   <g id="line2d_9">
    <path d="M 52.764063 230.282874 
L 63.924063 230.318331 
L 75.084063 230.300461 
L 86.244063 228.348562 
L 97.404063 236.642258 
L 108.564063 243.332539 
L 119.724063 238.442608 
L 130.884063 239.675095 
L 142.044062 235.658126 
L 153.204063 234.69174 
L 164.364063 235.368411 
L 175.524063 241.671027 
L 186.684063 241.546421 
L 197.844063 241.162565 
L 209.004063 238.054439 
L 220.164062 241.485793 
L 231.324063 230.657104 
L 242.484062 225.617618 
L 253.644063 220.817517 
L 264.804062 213.657481 
L 275.964063 202.630393 
L 287.124063 190.622343 
L 298.284063 186.297827 
L 309.444063 189.41307 
L 320.604062 195.151835 
L 331.764063 187.983747 
L 342.924062 180.237109 
L 354.084063 179.384144 
L 365.244062 181.515353 
L 376.404063 175.797504 
L 387.564062 172.521701 
L 398.724063 165.431655 
L 409.884063 163.419639 
" clip-path="url(#p83f0bb856e)" style="fill: none; stroke: #1f77b4; stroke-width: 1.5; stroke-linecap: square"/>
   </g>
   <g id="line2d_10">
    <path d="M 52.764063 240.796348 
L 63.924063 235.000278 
L 75.084063 237.990707 
L 86.244063 248.086126 
L 97.404063 258.127998 
L 108.564063 262.299535 
L 119.724063 263.750572 
L 130.884063 266.343577 
L 142.044062 266.951866 
L 153.204063 263.120285 
L 164.364063 261.651831 
L 175.524063 259.849779 
L 186.684063 261.209295 
L 197.844063 261.504994 
L 209.004063 260.787907 
L 220.164062 248.78385 
L 231.324063 236.176059 
L 242.484062 223.548468 
L 253.644063 213.909554 
L 264.804062 200.665817 
L 275.964063 184.719877 
L 287.124063 159.553358 
L 298.284063 141.017404 
L 309.444063 133.769515 
L 320.604062 125.553394 
L 331.764063 116.943478 
L 342.924062 106.173891 
L 354.084063 101.909014 
L 365.244062 94.906826 
L 376.404063 99.593749 
L 387.564062 100.743187 
L 398.724063 83.384026 
L 409.884063 56.170531 
" clip-path="url(#p83f0bb856e)" style="fill: none; stroke: #ff7f0e; stroke-width: 1.5; stroke-linecap: square"/>
   </g>
   <g id="line2d_11">
    <path d="M 86.244063 285.37598 
L 86.244063 19.26398 
" clip-path="url(#p83f0bb856e)" style="fill: none; stroke-dasharray: 5.55,2.4; stroke-dashoffset: 0; stroke: #000000; stroke-opacity: 0.5; stroke-width: 1.5"/>
   </g>
   <g id="line2d_12">
    <path d="M 387.564062 285.37598 
L 387.564062 19.26398 
" clip-path="url(#p83f0bb856e)" style="fill: none; stroke-dasharray: 5.55,2.4; stroke-dashoffset: 0; stroke: #000000; stroke-opacity: 0.5; stroke-width: 1.5"/>
   </g>
   <g id="patch_3">
    <path d="M 52.764063 285.37598 
L 409.884063 285.37598 
" style="fill: none; stroke: #000000; stroke-width: 0.8; stroke-linejoin: miter; stroke-linecap: square"/>
   </g>
   <g id="text_11">
    <text style="font: 6.94px 'Arial', sans-serif" transform="translate(14.010547 321.385533) rotate(-35)">-0.1s Sampling</text>
   </g>
   <g id="text_12">
    <text style="font: 6.94px 'Arial', sans-serif" transform="translate(61.707276 311.430872) rotate(-35)">Sampling</text>
   </g>
   <g id="text_13">
    <text style="font: 6.94px 'Arial', sans-serif" transform="translate(322.94997 339.456682) rotate(-35)">Movement to Lateral Port</text>
   </g>
   <g id="text_14">
    <text style="font: 8.33px 'Arial', sans-serif; text-anchor: middle" x="231.324063" y="13.26398" transform="rotate(-0 231.324063 13.26398)">GP4_85_s9_L70_D250_ALM - Trace:17_GP4_85_s9_L70_D250_ALM (when: correct)</text>
   </g>
   <g id="legend_1">
    <g id="patch_4">
     <path d="M 137.609122 354.133136 
L 325.039003 354.133136 
Q 326.427003 354.133136 326.427003 352.745136 
L 326.427003 343.45638 
Q 326.427003 342.06838 325.039003 342.06838 
L 137.609122 342.06838 
Q 136.221122 342.06838 136.221122 343.45638 
L 136.221122 352.745136 
Q 136.221122 354.133136 137.609122 354.133136 
z
" style="fill: #ffffff; opacity: 0.8; stroke: #cccccc; stroke-linejoin: miter"/>
    </g>
    <g id="line2d_13">
     <path d="M 138.997122 347.467483 
L 145.937122 347.467483 
L 152.877122 347.467483 
" style="fill: none; stroke: #1f77b4; stroke-width: 1.5; stroke-linecap: square"/>
    </g>
    <g id="text_15">
     <text style="font: 6.94px 'Arial', sans-serif; text-anchor: start" x="158.429122" y="349.896483" transform="rotate(-0 158.429122 349.896483)">DecisionRight (94 pts)</text>
    </g>
    <g id="line2d_14">
     <path d="M 240.577034 347.467483 
L 247.517034 347.467483 
L 254.457034 347.467483 
" style="fill: none; stroke: #ff7f0e; stroke-width: 1.5; stroke-linecap: square"/>
    </g>
    <g id="text_16">
     <text style="font: 6.94px 'Arial', sans-serif; text-anchor: start" x="260.009034" y="349.896483" transform="rotate(-0 260.009034 349.896483)">DecisionLeft (95 pts)</text>
    </g>
   </g>
  </g>
 </g>
 <defs>
  <clipPath id="p83f0bb856e">
   <rect x="52.764063" y="19.26398" width="357.12" height="266.112"/>
  </clipPath>
 </defs>
</svg>
