<?xml version="1.0" encoding="utf-8" standalone="no"?>
<!DOCTYPE svg PUBLIC "-//W3C//DTD SVG 1.1//EN"
  "http://www.w3.org/Graphics/SVG/1.1/DTD/svg11.dtd">
<svg xmlns:xlink="http://www.w3.org/1999/xlink" width="413.171283pt" height="361.333136pt" viewBox="0 0 413.171283 361.333136" xmlns="http://www.w3.org/2000/svg" version="1.1">
 <metadata>
  <rdf:RDF xmlns:dc="http://purl.org/dc/elements/1.1/" xmlns:cc="http://creativecommons.org/ns#" xmlns:rdf="http://www.w3.org/1999/02/22-rdf-syntax-ns#">
   <cc:Work>
    <dc:type rdf:resource="http://purl.org/dc/dcmitype/StillImage"/>
    <dc:date>2025-12-29T04:08:06.537234</dc:date>
    <dc:format>image/svg+xml</dc:format>
    <dc:creator>
     <cc:Agent>
      <dc:title>Matplotlib v3.8.0, https://matplotlib.org/</dc:title>
     </cc:Agent>
    </dc:creator>
   </cc:Work>
  </rdf:RDF>
 </metadata>
 <defs>
  <style type="text/css">*{stroke-linejoin: round; stroke-linecap: butt}</style>
 </defs>
 <g id="figure_1">
  <g id="patch_1">
   <path d="M 0 361.333136 
L 413.171283 361.333136 
L 413.171283 -0 
L 0 -0 
z
" style="fill: #ffffff"/>
  </g>
  <g id="axes_1">
   <g id="patch_2">
    <path d="M 48.851283 285.37598 
L 405.971283 285.37598 
L 405.971283 19.26398 
L 48.851283 19.26398 
z
" style="fill: #ffffff"/>
   </g>
   <g id="PolyCollection_1">
    <defs>
     <path id="m3b216f831a" d="M 48.851283 -99.742538 
L 48.851283 -88.053156 
L 60.011283 -95.026863 
L 71.171283 -108.289702 
L 82.331283 -140.883971 
L 93.491283 -200.969795 
L 104.651283 -233.699923 
L 115.811283 -249.665964 
L 126.971283 -261.827574 
L 138.131283 -272.497001 
L 149.291283 -275.6061 
L 160.451283 -277.087099 
L 171.611283 -264.58623 
L 182.771283 -247.490363 
L 193.931283 -236.983911 
L 205.091283 -220.760174 
L 216.251283 -203.612132 
L 227.411283 -185.780761 
L 238.571283 -174.809672 
L 249.731283 -166.258574 
L 260.891283 -158.868468 
L 272.051283 -150.981319 
L 283.211283 -142.242238 
L 294.371283 -138.813022 
L 305.531283 -144.117276 
L 316.691283 -141.885584 
L 327.851283 -137.01471 
L 339.011283 -129.466734 
L 350.171283 -114.041344 
L 361.331283 -113.097761 
L 372.491283 -110.417064 
L 383.651283 -106.109711 
L 394.811283 -111.869786 
L 405.971283 -117.865038 
L 405.971283 -131.567773 
L 405.971283 -131.567773 
L 394.811283 -125.184186 
L 383.651283 -119.070773 
L 372.491283 -123.700445 
L 361.331283 -127.690695 
L 350.171283 -129.386127 
L 339.011283 -144.966251 
L 327.851283 -153.037608 
L 316.691283 -158.297317 
L 305.531283 -162.128212 
L 294.371283 -160.373466 
L 283.211283 -165.195493 
L 272.051283 -173.305291 
L 260.891283 -182.069844 
L 249.731283 -192.05601 
L 238.571283 -201.502139 
L 227.411283 -214.359395 
L 216.251283 -233.365635 
L 205.091283 -253.092505 
L 193.931283 -271.52012 
L 182.771283 -283.929259 
L 171.611283 -303.406256 
L 160.451283 -317.435352 
L 149.291283 -315.792434 
L 138.131283 -312.803756 
L 126.971283 -300.566364 
L 115.811283 -286.80351 
L 104.651283 -269.350513 
L 93.491283 -236.621579 
L 82.331283 -160.696663 
L 71.171283 -122.019191 
L 60.011283 -107.725179 
L 48.851283 -99.742538 
z
" style="stroke: #1f77b4; stroke-opacity: 0.2"/>
    </defs>
    <g clip-path="url(#pc350f4c756)">
     <use xlink:href="#m3b216f831a" x="0" y="361.333136" style="fill: #1f77b4; fill-opacity: 0.2; stroke: #1f77b4; stroke-opacity: 0.2"/>
    </g>
   </g>
   <g id="PolyCollection_2">
    <defs>
     <path id="m55b8831ee6" d="M 48.851283 -105.475995 
L 48.851283 -94.62057 
L 60.011283 -103.828926 
L 71.171283 -113.448394 
L 82.331283 -142.524773 
L 93.491283 -197.520865 
L 104.651283 -247.104969 
L 115.811283 -269.880935 
L 126.971283 -281.03319 
L 138.131283 -290.969645 
L 149.291283 -274.008551 
L 160.451283 -259.902982 
L 171.611283 -252.603141 
L 182.771283 -251.164193 
L 193.931283 -236.110938 
L 205.091283 -225.041678 
L 216.251283 -218.287239 
L 227.411283 -206.743589 
L 238.571283 -197.333145 
L 249.731283 -186.868493 
L 260.891283 -175.094042 
L 272.051283 -169.019555 
L 283.211283 -163.058155 
L 294.371283 -157.851678 
L 305.531283 -158.035251 
L 316.691283 -148.994663 
L 327.851283 -138.636945 
L 339.011283 -137.377103 
L 350.171283 -132.6238 
L 361.331283 -124.491773 
L 372.491283 -125.179321 
L 383.651283 -126.119124 
L 394.811283 -125.553265 
L 405.971283 -123.22897 
L 405.971283 -138.759308 
L 405.971283 -138.759308 
L 394.811283 -140.176437 
L 383.651283 -140.403353 
L 372.491283 -141.199666 
L 361.331283 -142.669613 
L 350.171283 -152.783284 
L 339.011283 -160.076401 
L 327.851283 -163.827008 
L 316.691283 -174.938476 
L 305.531283 -184.829414 
L 294.371283 -185.345987 
L 283.211283 -190.034045 
L 272.051283 -195.948558 
L 260.891283 -203.927048 
L 249.731283 -218.70833 
L 238.571283 -231.854663 
L 227.411283 -242.677224 
L 216.251283 -254.793132 
L 205.091283 -261.632213 
L 193.931283 -272.643261 
L 182.771283 -288.189939 
L 171.611283 -288.985459 
L 160.451283 -297.819233 
L 149.291283 -312.969684 
L 138.131283 -329.973156 
L 126.971283 -320.764181 
L 115.811283 -308.393235 
L 104.651283 -284.645051 
L 93.491283 -227.011092 
L 82.331283 -164.212229 
L 71.171283 -127.438619 
L 60.011283 -115.557173 
L 48.851283 -105.475995 
z
" style="stroke: #ff7f0e; stroke-opacity: 0.2"/>
    </defs>
    <g clip-path="url(#pc350f4c756)">
     <use xlink:href="#m55b8831ee6" x="0" y="361.333136" style="fill: #ff7f0e; fill-opacity: 0.2; stroke: #ff7f0e; stroke-opacity: 0.2"/>
    </g>
   </g>
   <g id="matplotlib.axis_1">
    <g id="text_1">
     <text style="font: 10px 'Arial', sans-serif; text-anchor: middle" x="227.411283" y="296.533792" transform="rotate(-0 227.411283 296.533792)">Time</text>
    </g>
   </g>
   <g id="matplotlib.axis_2">
    <g id="ytick_1">
     <g id="line2d_1">
      <defs>
       <path id="m8fce999b37" d="M 0 0 
L -3.5 0 
" style="stroke: #000000; stroke-width: 0.8"/>
      </defs>
      <g>
       <use xlink:href="#m8fce999b37" x="48.851283" y="275.746188" style="stroke: #000000; stroke-width: 0.8"/>
      </g>
     </g>
     <g id="text_2">
      <text style="font: 10px 'Arial', sans-serif; text-anchor: end" x="41.851283" y="279.325094" transform="rotate(-0 41.851283 279.325094)">−0.5</text>
     </g>
    </g>
    <g id="ytick_2">
     <g id="line2d_2">
      <g>
       <use xlink:href="#m8fce999b37" x="48.851283" y="223.034479" style="stroke: #000000; stroke-width: 0.8"/>
      </g>
     </g>
     <g id="text_3">
      <text style="font: 10px 'Arial', sans-serif; text-anchor: end" x="41.851283" y="226.613385" transform="rotate(-0 41.851283 226.613385)">0.0</text>
     </g>
    </g>
    <g id="ytick_3">
     <g id="line2d_3">
      <g>
       <use xlink:href="#m8fce999b37" x="48.851283" y="170.32277" style="stroke: #000000; stroke-width: 0.8"/>
      </g>
     </g>
     <g id="text_4">
      <text style="font: 10px 'Arial', sans-serif; text-anchor: end" x="41.851283" y="173.901676" transform="rotate(-0 41.851283 173.901676)">0.5</text>
     </g>
    </g>
    <g id="ytick_4">
     <g id="line2d_4">
      <g>
       <use xlink:href="#m8fce999b37" x="48.851283" y="117.611061" style="stroke: #000000; stroke-width: 0.8"/>
      </g>
     </g>
     <g id="text_5">
      <text style="font: 10px 'Arial', sans-serif; text-anchor: end" x="41.851283" y="121.189967" transform="rotate(-0 41.851283 121.189967)">1.0</text>
     </g>
    </g>
    <g id="ytick_5">
     <g id="line2d_5">
      <g>
       <use xlink:href="#m8fce999b37" x="48.851283" y="64.899351" style="stroke: #000000; stroke-width: 0.8"/>
      </g>
     </g>
     <g id="text_6">
      <text style="font: 10px 'Arial', sans-serif; text-anchor: end" x="41.851283" y="68.478258" transform="rotate(-0 41.851283 68.478258)">1.5</text>
     </g>
    </g>
    <g id="text_7">
     <text style="font: 10px 'Arial', sans-serif; text-anchor: middle" x="16.005971" y="152.31998" transform="rotate(-90 16.005971 152.31998)">Activity</text>
    </g>
   </g>
   <g id="line2d_6">
    <path d="M 48.851283 267.435289 
L 60.011283 259.957115 
L 71.171283 246.17869 
L 82.331283 210.542819 
L 93.491283 142.537449 
L 104.651283 109.807918 
L 115.811283 93.098399 
L 126.971283 80.136166 
L 138.131283 68.682757 
L 149.291283 65.633869 
L 160.451283 64.07191 
L 171.611283 77.336892 
L 182.771283 95.623325 
L 193.931283 107.08112 
L 205.091283 124.406796 
L 216.251283 142.844252 
L 227.411283 161.263058 
L 238.571283 173.17723 
L 249.731283 182.175846 
L 260.891283 190.863979 
L 272.051283 199.18983 
L 283.211283 207.61427 
L 294.371283 211.739892 
L 305.531283 208.210391 
L 316.691283 211.241686 
L 327.851283 216.306977 
L 339.011283 224.116643 
L 350.171283 239.619401 
L 361.331283 240.938908 
L 372.491283 244.274382 
L 383.651283 248.742894 
L 394.811283 242.80615 
L 405.971283 236.616731 
" clip-path="url(#pc350f4c756)" style="fill: none; stroke: #1f77b4; stroke-width: 1.5; stroke-linecap: square"/>
   </g>
   <g id="line2d_7">
    <path d="M 48.851283 261.284854 
L 60.011283 251.640086 
L 71.171283 240.88963 
L 82.331283 207.964635 
L 93.491283 149.067157 
L 104.651283 95.458126 
L 115.811283 72.196051 
L 126.971283 60.43445 
L 138.131283 50.861735 
L 149.291283 67.844018 
L 160.451283 82.472028 
L 171.611283 90.538836 
L 182.771283 91.65607 
L 193.931283 106.956036 
L 205.091283 117.99619 
L 216.251283 124.79295 
L 227.411283 136.622729 
L 238.571283 146.739232 
L 249.731283 158.544724 
L 260.891283 171.822591 
L 272.051283 178.849078 
L 283.211283 184.787035 
L 294.371283 189.734303 
L 305.531283 189.900803 
L 316.691283 199.366566 
L 327.851283 210.101159 
L 339.011283 212.606384 
L 350.171283 218.629594 
L 361.331283 227.752444 
L 372.491283 228.143643 
L 383.651283 228.071897 
L 394.811283 228.468285 
L 405.971283 230.338997 
" clip-path="url(#pc350f4c756)" style="fill: none; stroke: #ff7f0e; stroke-width: 1.5; stroke-linecap: square"/>
   </g>
   <g id="line2d_8">
    <path d="M 82.331283 285.37598 
L 82.331283 19.26398 
" clip-path="url(#pc350f4c756)" style="fill: none; stroke-dasharray: 5.55,2.4; stroke-dashoffset: 0; stroke: #000000; stroke-opacity: 0.5; stroke-width: 1.5"/>
   </g>
   <g id="line2d_9">
    <path d="M 383.651283 285.37598 
L 383.651283 19.26398 
" clip-path="url(#pc350f4c756)" style="fill: none; stroke-dasharray: 5.55,2.4; stroke-dashoffset: 0; stroke: #000000; stroke-opacity: 0.5; stroke-width: 1.5"/>
   </g>
   <g id="patch_3">
    <path d="M 48.851283 285.37598 
L 405.971283 285.37598 
" style="fill: none; stroke: #000000; stroke-width: 0.8; stroke-linejoin: miter; stroke-linecap: square"/>
   </g>
   <g id="text_8">
    <text style="font: 6.94px 'Arial', sans-serif" transform="translate(10.097767 321.385533) rotate(-35)">-0.1s Sampling</text>
   </g>
   <g id="text_9">
    <text style="font: 6.94px 'Arial', sans-serif" transform="translate(57.794497 311.430872) rotate(-35)">Sampling</text>
   </g>
   <g id="text_10">
    <text style="font: 6.94px 'Arial', sans-serif" transform="translate(319.037191 339.456682) rotate(-35)">Movement to Lateral Port</text>
   </g>
   <g id="text_11">
    <text style="font: 8.33px 'Arial', sans-serif; text-anchor: middle" x="227.411283" y="13.26398" transform="rotate(-0 227.411283 13.26398)">GP4_85_s9_L70_D250_ALM - Trace:195_GP4_85_s9_L70_D250_ALM (when: correct)</text>
   </g>
   <g id="legend_1">
    <g id="patch_4">
     <path d="M 133.696342 354.133136 
L 321.126224 354.133136 
Q 322.514224 354.133136 322.514224 352.745136 
L 322.514224 343.45638 
Q 322.514224 342.06838 321.126224 342.06838 
L 133.696342 342.06838 
Q 132.308342 342.06838 132.308342 343.45638 
L 132.308342 352.745136 
Q 132.308342 354.133136 133.696342 354.133136 
z
" style="fill: #ffffff; opacity: 0.8; stroke: #cccccc; stroke-linejoin: miter"/>
    </g>
    <g id="line2d_10">
     <path d="M 135.084342 347.467483 
L 142.024342 347.467483 
L 148.964342 347.467483 
" style="fill: none; stroke: #1f77b4; stroke-width: 1.5; stroke-linecap: square"/>
    </g>
    <g id="text_12">
     <text style="font: 6.94px 'Arial', sans-serif; text-anchor: start" x="154.516342" y="349.896483" transform="rotate(-0 154.516342 349.896483)">DecisionRight (94 pts)</text>
    </g>
    <g id="line2d_11">
     <path d="M 236.664255 347.467483 
L 243.604255 347.467483 
L 250.544255 347.467483 
" style="fill: none; stroke: #ff7f0e; stroke-width: 1.5; stroke-linecap: square"/>
    </g>
    <g id="text_13">
     <text style="font: 6.94px 'Arial', sans-serif; text-anchor: start" x="256.096255" y="349.896483" transform="rotate(-0 256.096255 349.896483)">DecisionLeft (95 pts)</text>
    </g>
   </g>
  </g>
 </g>
 <defs>
  <clipPath id="pc350f4c756">
   <rect x="48.851283" y="19.26398" width="357.12" height="266.112"/>
  </clipPath>
 </defs>
</svg>
