<?xml version="1.0" encoding="utf-8" standalone="no"?>
<!DOCTYPE svg PUBLIC "-//W3C//DTD SVG 1.1//EN"
  "http://www.w3.org/Graphics/SVG/1.1/DTD/svg11.dtd">
<svg xmlns:xlink="http://www.w3.org/1999/xlink" width="413.171283pt" height="361.333136pt" viewBox="0 0 413.171283 361.333136" xmlns="http://www.w3.org/2000/svg" version="1.1">
 <metadata>
  <rdf:RDF xmlns:dc="http://purl.org/dc/elements/1.1/" xmlns:cc="http://creativecommons.org/ns#" xmlns:rdf="http://www.w3.org/1999/02/22-rdf-syntax-ns#">
   <cc:Work>
    <dc:type rdf:resource="http://purl.org/dc/dcmitype/StillImage"/>
    <dc:date>2025-12-29T04:08:05.719441</dc:date>
    <dc:format>image/svg+xml</dc:format>
    <dc:creator>
     <cc:Agent>
      <dc:title>Matplotlib v3.8.0, https://matplotlib.org/</dc:title>
     </cc:Agent>
    </dc:creator>
   </cc:Work>
  </rdf:RDF>
 </metadata>
 <defs>
  <style type="text/css">*{stroke-linejoin: round; stroke-linecap: butt}</style>
 </defs>
 <g id="figure_1">
  <g id="patch_1">
   <path d="M 0 361.333136 
L 413.171283 361.333136 
L 413.171283 -0 
L 0 -0 
z
" style="fill: #ffffff"/>
  </g>
  <g id="axes_1">
   <g id="patch_2">
    <path d="M 48.851283 285.37598 
L 405.971283 285.37598 
L 405.971283 19.26398 
L 48.851283 19.26398 
z
" style="fill: #ffffff"/>
   </g>
   <g id="PolyCollection_1">
    <defs>
     <path id="me518646726" d="M 48.851283 -329.973156 
L 48.851283 -250.738425 
L 60.011283 -239.570414 
L 71.171283 -230.480358 
L 82.331283 -230.209432 
L 93.491283 -205.980294 
L 104.651283 -198.66499 
L 115.811283 -195.509606 
L 126.971283 -200.198188 
L 138.131283 -194.760634 
L 149.291283 -179.882732 
L 160.451283 -187.212325 
L 171.611283 -192.593031 
L 182.771283 -196.084143 
L 193.931283 -198.405493 
L 205.091283 -189.025396 
L 216.251283 -180.383934 
L 227.411283 -182.236829 
L 238.571283 -182.105798 
L 249.731283 -166.696451 
L 260.891283 -158.414736 
L 272.051283 -168.901433 
L 283.211283 -166.74474 
L 294.371283 -141.781789 
L 305.531283 -135.572051 
L 316.691283 -129.388197 
L 327.851283 -118.228401 
L 339.011283 -92.78453 
L 350.171283 -95.010601 
L 361.331283 -102.986314 
L 372.491283 -113.005761 
L 383.651283 -124.197495 
L 394.811283 -106.153781 
L 405.971283 -88.053156 
L 405.971283 -132.472433 
L 405.971283 -132.472433 
L 394.811283 -151.446615 
L 383.651283 -168.858668 
L 372.491283 -157.997366 
L 361.331283 -149.218976 
L 350.171283 -142.617688 
L 339.011283 -143.252207 
L 327.851283 -170.080729 
L 316.691283 -186.356721 
L 305.531283 -196.476555 
L 294.371283 -202.683353 
L 283.211283 -227.330046 
L 272.051283 -229.740461 
L 260.891283 -221.439876 
L 249.731283 -230.044986 
L 238.571283 -245.32627 
L 227.411283 -241.928386 
L 216.251283 -238.402006 
L 205.091283 -248.782277 
L 193.931283 -260.153433 
L 182.771283 -256.936751 
L 171.611283 -254.061973 
L 160.451283 -246.357607 
L 149.291283 -238.403795 
L 138.131283 -257.861322 
L 126.971283 -269.443085 
L 115.811283 -264.614818 
L 104.651283 -266.938621 
L 93.491283 -279.869832 
L 82.331283 -307.964952 
L 71.171283 -311.169819 
L 60.011283 -319.654296 
L 48.851283 -329.973156 
z
" style="stroke: #1f77b4; stroke-opacity: 0.2"/>
    </defs>
    <g clip-path="url(#p45253a0437)">
     <use xlink:href="#me518646726" x="0" y="361.333136" style="fill: #1f77b4; fill-opacity: 0.2; stroke: #1f77b4; stroke-opacity: 0.2"/>
    </g>
   </g>
   <g id="PolyCollection_2">
    <defs>
     <path id="mb7c3c67b6a" d="M 48.851283 -255.513809 
L 48.851283 -196.829542 
L 60.011283 -194.370163 
L 71.171283 -181.24458 
L 82.331283 -158.933311 
L 93.491283 -155.815338 
L 104.651283 -154.575909 
L 115.811283 -154.320093 
L 126.971283 -143.693313 
L 138.131283 -122.563027 
L 149.291283 -110.167523 
L 160.451283 -127.825553 
L 171.611283 -136.320572 
L 182.771283 -136.480676 
L 193.931283 -137.861063 
L 205.091283 -129.61142 
L 216.251283 -127.345597 
L 227.411283 -123.838336 
L 238.571283 -136.493694 
L 249.731283 -151.628609 
L 260.891283 -150.538741 
L 272.051283 -164.326584 
L 283.211283 -176.10932 
L 294.371283 -178.953658 
L 305.531283 -181.188792 
L 316.691283 -196.552407 
L 327.851283 -201.564268 
L 339.011283 -203.783868 
L 350.171283 -210.953914 
L 361.331283 -219.287844 
L 372.491283 -229.495071 
L 383.651283 -226.255519 
L 394.811283 -233.508497 
L 405.971283 -242.631992 
L 405.971283 -316.825962 
L 405.971283 -316.825962 
L 394.811283 -308.913556 
L 383.651283 -301.007186 
L 372.491283 -302.611467 
L 361.331283 -291.956782 
L 350.171283 -284.439318 
L 339.011283 -276.324226 
L 327.851283 -273.084591 
L 316.691283 -264.139313 
L 305.531283 -246.523849 
L 294.371283 -243.53847 
L 283.211283 -240.353817 
L 272.051283 -227.831034 
L 260.891283 -215.565677 
L 249.731283 -215.932023 
L 238.571283 -197.021958 
L 227.411283 -182.290609 
L 216.251283 -184.622043 
L 205.091283 -183.235856 
L 193.931283 -190.356843 
L 182.771283 -189.557291 
L 171.611283 -188.933447 
L 160.451283 -182.504863 
L 149.291283 -162.348552 
L 138.131283 -172.313043 
L 126.971283 -197.460493 
L 115.811283 -212.769914 
L 104.651283 -215.417413 
L 93.491283 -214.689418 
L 82.331283 -215.21456 
L 71.171283 -240.475031 
L 60.011283 -253.996309 
L 48.851283 -255.513809 
z
" style="stroke: #ff7f0e; stroke-opacity: 0.2"/>
    </defs>
    <g clip-path="url(#p45253a0437)">
     <use xlink:href="#mb7c3c67b6a" x="0" y="361.333136" style="fill: #ff7f0e; fill-opacity: 0.2; stroke: #ff7f0e; stroke-opacity: 0.2"/>
    </g>
   </g>
   <g id="matplotlib.axis_1">
    <g id="text_1">
     <text style="font: 10px 'Arial', sans-serif; text-anchor: middle" x="227.411283" y="296.533792" transform="rotate(-0 227.411283 296.533792)">Time</text>
    </g>
   </g>
   <g id="matplotlib.axis_2">
    <g id="ytick_1">
     <g id="line2d_1">
      <defs>
       <path id="m83bccb6754" d="M 0 0 
L -3.5 0 
" style="stroke: #000000; stroke-width: 0.8"/>
      </defs>
      <g>
       <use xlink:href="#m83bccb6754" x="48.851283" y="264.650389" style="stroke: #000000; stroke-width: 0.8"/>
      </g>
     </g>
     <g id="text_2">
      <text style="font: 10px 'Arial', sans-serif; text-anchor: end" x="41.851283" y="268.229295" transform="rotate(-0 41.851283 268.229295)">−0.3</text>
     </g>
    </g>
    <g id="ytick_2">
     <g id="line2d_2">
      <g>
       <use xlink:href="#m83bccb6754" x="48.851283" y="228.609939" style="stroke: #000000; stroke-width: 0.8"/>
      </g>
     </g>
     <g id="text_3">
      <text style="font: 10px 'Arial', sans-serif; text-anchor: end" x="41.851283" y="232.188845" transform="rotate(-0 41.851283 232.188845)">−0.2</text>
     </g>
    </g>
    <g id="ytick_3">
     <g id="line2d_3">
      <g>
       <use xlink:href="#m83bccb6754" x="48.851283" y="192.569489" style="stroke: #000000; stroke-width: 0.8"/>
      </g>
     </g>
     <g id="text_4">
      <text style="font: 10px 'Arial', sans-serif; text-anchor: end" x="41.851283" y="196.148396" transform="rotate(-0 41.851283 196.148396)">−0.1</text>
     </g>
    </g>
    <g id="ytick_4">
     <g id="line2d_4">
      <g>
       <use xlink:href="#m83bccb6754" x="48.851283" y="156.52904" style="stroke: #000000; stroke-width: 0.8"/>
      </g>
     </g>
     <g id="text_5">
      <text style="font: 10px 'Arial', sans-serif; text-anchor: end" x="41.851283" y="160.107946" transform="rotate(-0 41.851283 160.107946)">0.0</text>
     </g>
    </g>
    <g id="ytick_5">
     <g id="line2d_5">
      <g>
       <use xlink:href="#m83bccb6754" x="48.851283" y="120.48859" style="stroke: #000000; stroke-width: 0.8"/>
      </g>
     </g>
     <g id="text_6">
      <text style="font: 10px 'Arial', sans-serif; text-anchor: end" x="41.851283" y="124.067496" transform="rotate(-0 41.851283 124.067496)">0.1</text>
     </g>
    </g>
    <g id="ytick_6">
     <g id="line2d_6">
      <g>
       <use xlink:href="#m83bccb6754" x="48.851283" y="84.44814" style="stroke: #000000; stroke-width: 0.8"/>
      </g>
     </g>
     <g id="text_7">
      <text style="font: 10px 'Arial', sans-serif; text-anchor: end" x="41.851283" y="88.027046" transform="rotate(-0 41.851283 88.027046)">0.2</text>
     </g>
    </g>
    <g id="ytick_7">
     <g id="line2d_7">
      <g>
       <use xlink:href="#m83bccb6754" x="48.851283" y="48.40769" style="stroke: #000000; stroke-width: 0.8"/>
      </g>
     </g>
     <g id="text_8">
      <text style="font: 10px 'Arial', sans-serif; text-anchor: end" x="41.851283" y="51.986596" transform="rotate(-0 41.851283 51.986596)">0.3</text>
     </g>
    </g>
    <g id="text_9">
     <text style="font: 10px 'Arial', sans-serif; text-anchor: middle" x="16.005971" y="152.31998" transform="rotate(-90 16.005971 152.31998)">Activity</text>
    </g>
   </g>
   <g id="line2d_8">
    <path d="M 48.851283 70.977343 
L 60.011283 81.720779 
L 71.171283 90.508047 
L 82.331283 92.245945 
L 93.491283 118.408073 
L 104.651283 128.531331 
L 115.811283 131.270924 
L 126.971283 126.5125 
L 138.131283 135.022157 
L 149.291283 152.189872 
L 160.451283 144.54817 
L 171.611283 138.005633 
L 182.771283 134.822688 
L 193.931283 132.053674 
L 205.091283 142.429299 
L 216.251283 151.940166 
L 227.411283 149.250529 
L 238.571283 147.617102 
L 249.731283 162.962416 
L 260.891283 171.405832 
L 272.051283 162.012189 
L 283.211283 164.295742 
L 294.371283 189.100563 
L 305.531283 195.308833 
L 316.691283 203.460676 
L 327.851283 217.178571 
L 339.011283 243.314768 
L 350.171283 242.518991 
L 361.331283 235.230491 
L 372.491283 225.831573 
L 383.651283 214.805054 
L 394.811283 232.532938 
L 405.971283 251.070341 
" clip-path="url(#p45253a0437)" style="fill: none; stroke: #1f77b4; stroke-width: 1.5; stroke-linecap: square"/>
   </g>
   <g id="line2d_9">
    <path d="M 48.851283 135.161461 
L 60.011283 137.149901 
L 71.171283 150.47333 
L 82.331283 174.2592 
L 93.491283 176.080757 
L 104.651283 176.336475 
L 115.811283 177.788133 
L 126.971283 190.756234 
L 138.131283 213.895102 
L 149.291283 225.075097 
L 160.451283 206.167928 
L 171.611283 198.706126 
L 182.771283 198.314153 
L 193.931283 197.224181 
L 205.091283 204.909498 
L 216.251283 205.349316 
L 227.411283 208.268664 
L 238.571283 194.575311 
L 249.731283 177.552821 
L 260.891283 178.280928 
L 272.051283 165.254328 
L 283.211283 153.101568 
L 294.371283 150.087073 
L 305.531283 147.476815 
L 316.691283 130.987276 
L 327.851283 124.008707 
L 339.011283 121.279089 
L 350.171283 113.636518 
L 361.331283 105.710823 
L 372.491283 95.279866 
L 383.651283 97.701781 
L 394.811283 90.122111 
L 405.971283 81.60416 
" clip-path="url(#p45253a0437)" style="fill: none; stroke: #ff7f0e; stroke-width: 1.5; stroke-linecap: square"/>
   </g>
   <g id="line2d_10">
    <path d="M 82.331283 285.37598 
L 82.331283 19.26398 
" clip-path="url(#p45253a0437)" style="fill: none; stroke-dasharray: 5.55,2.4; stroke-dashoffset: 0; stroke: #000000; stroke-opacity: 0.5; stroke-width: 1.5"/>
   </g>
   <g id="line2d_11">
    <path d="M 383.651283 285.37598 
L 383.651283 19.26398 
" clip-path="url(#p45253a0437)" style="fill: none; stroke-dasharray: 5.55,2.4; stroke-dashoffset: 0; stroke: #000000; stroke-opacity: 0.5; stroke-width: 1.5"/>
   </g>
   <g id="patch_3">
    <path d="M 48.851283 285.37598 
L 405.971283 285.37598 
" style="fill: none; stroke: #000000; stroke-width: 0.8; stroke-linejoin: miter; stroke-linecap: square"/>
   </g>
   <g id="text_10">
    <text style="font: 6.94px 'Arial', sans-serif" transform="translate(10.097767 321.385533) rotate(-35)">-0.1s Sampling</text>
   </g>
   <g id="text_11">
    <text style="font: 6.94px 'Arial', sans-serif" transform="translate(57.794497 311.430872) rotate(-35)">Sampling</text>
   </g>
   <g id="text_12">
    <text style="font: 6.94px 'Arial', sans-serif" transform="translate(319.037191 339.456682) rotate(-35)">Movement to Lateral Port</text>
   </g>
   <g id="text_13">
    <text style="font: 8.33px 'Arial', sans-serif; text-anchor: middle" x="227.411283" y="13.26398" transform="rotate(-0 227.411283 13.26398)">GP4_85_s9_L70_D250_ALM - Trace:40_GP4_85_s9_L70_D250_ALM (when: correct)</text>
   </g>
   <g id="legend_1">
    <g id="patch_4">
     <path d="M 133.696342 354.133136 
L 321.126224 354.133136 
Q 322.514224 354.133136 322.514224 352.745136 
L 322.514224 343.45638 
Q 322.514224 342.06838 321.126224 342.06838 
L 133.696342 342.06838 
Q 132.308342 342.06838 132.308342 343.45638 
L 132.308342 352.745136 
Q 132.308342 354.133136 133.696342 354.133136 
z
" style="fill: #ffffff; opacity: 0.8; stroke: #cccccc; stroke-linejoin: miter"/>
    </g>
    <g id="line2d_12">
     <path d="M 135.084342 347.467483 
L 142.024342 347.467483 
L 148.964342 347.467483 
" style="fill: none; stroke: #1f77b4; stroke-width: 1.5; stroke-linecap: square"/>
    </g>
    <g id="text_14">
     <text style="font: 6.94px 'Arial', sans-serif; text-anchor: start" x="154.516342" y="349.896483" transform="rotate(-0 154.516342 349.896483)">DecisionRight (94 pts)</text>
    </g>
    <g id="line2d_13">
     <path d="M 236.664255 347.467483 
L 243.604255 347.467483 
L 250.544255 347.467483 
" style="fill: none; stroke: #ff7f0e; stroke-width: 1.5; stroke-linecap: square"/>
    </g>
    <g id="text_15">
     <text style="font: 6.94px 'Arial', sans-serif; text-anchor: start" x="256.096255" y="349.896483" transform="rotate(-0 256.096255 349.896483)">DecisionLeft (95 pts)</text>
    </g>
   </g>
  </g>
 </g>
 <defs>
  <clipPath id="p45253a0437">
   <rect x="48.851283" y="19.26398" width="357.12" height="266.112"/>
  </clipPath>
 </defs>
</svg>
