<?xml version="1.0" encoding="utf-8" standalone="no"?>
<!DOCTYPE svg PUBLIC "-//W3C//DTD SVG 1.1//EN"
  "http://www.w3.org/Graphics/SVG/1.1/DTD/svg11.dtd">
<svg xmlns:xlink="http://www.w3.org/1999/xlink" width="413.171283pt" height="361.333136pt" viewBox="0 0 413.171283 361.333136" xmlns="http://www.w3.org/2000/svg" version="1.1">
 <metadata>
  <rdf:RDF xmlns:dc="http://purl.org/dc/elements/1.1/" xmlns:cc="http://creativecommons.org/ns#" xmlns:rdf="http://www.w3.org/1999/02/22-rdf-syntax-ns#">
   <cc:Work>
    <dc:type rdf:resource="http://purl.org/dc/dcmitype/StillImage"/>
    <dc:date>2025-12-29T04:08:04.893616</dc:date>
    <dc:format>image/svg+xml</dc:format>
    <dc:creator>
     <cc:Agent>
      <dc:title>Matplotlib v3.8.0, https://matplotlib.org/</dc:title>
     </cc:Agent>
    </dc:creator>
   </cc:Work>
  </rdf:RDF>
 </metadata>
 <defs>
  <style type="text/css">*{stroke-linejoin: round; stroke-linecap: butt}</style>
 </defs>
 <g id="figure_1">
  <g id="patch_1">
   <path d="M 0 361.333136 
L 413.171283 361.333136 
L 413.171283 -0 
L 0 -0 
z
" style="fill: #ffffff"/>
  </g>
  <g id="axes_1">
   <g id="patch_2">
    <path d="M 48.851283 285.37598 
L 405.971283 285.37598 
L 405.971283 19.26398 
L 48.851283 19.26398 
z
" style="fill: #ffffff"/>
   </g>
   <g id="PolyCollection_1">
    <defs>
     <path id="m047414504d" d="M 48.851283 -282.001229 
L 48.851283 -203.490263 
L 60.011283 -189.139486 
L 71.171283 -196.219408 
L 82.331283 -161.447256 
L 93.491283 -110.776209 
L 104.651283 -101.790154 
L 115.811283 -115.064081 
L 126.971283 -127.827009 
L 138.131283 -121.279658 
L 149.291283 -126.346074 
L 160.451283 -152.127077 
L 171.611283 -142.142058 
L 182.771283 -139.612229 
L 193.931283 -136.291921 
L 205.091283 -144.636495 
L 216.251283 -160.002491 
L 227.411283 -140.821786 
L 238.571283 -128.173995 
L 249.731283 -160.595461 
L 260.891283 -181.027469 
L 272.051283 -180.560889 
L 283.211283 -186.741147 
L 294.371283 -181.471042 
L 305.531283 -180.505076 
L 316.691283 -197.042276 
L 327.851283 -205.360577 
L 339.011283 -194.662857 
L 350.171283 -192.425136 
L 361.331283 -198.532343 
L 372.491283 -220.586573 
L 383.651283 -242.74757 
L 394.811283 -232.437472 
L 405.971283 -233.175969 
L 405.971283 -309.021724 
L 405.971283 -309.021724 
L 394.811283 -313.68582 
L 383.651283 -329.973156 
L 372.491283 -302.583622 
L 361.331283 -273.294064 
L 350.171283 -266.515339 
L 339.011283 -267.066311 
L 327.851283 -276.8959 
L 316.691283 -266.955361 
L 305.531283 -252.332961 
L 294.371283 -255.206921 
L 283.211283 -259.198138 
L 272.051283 -258.181095 
L 260.891283 -264.712017 
L 249.731283 -236.730799 
L 238.571283 -194.651092 
L 227.411283 -201.254688 
L 216.251283 -218.742769 
L 205.091283 -204.321829 
L 193.931283 -193.557646 
L 182.771283 -197.359467 
L 171.611283 -199.002926 
L 160.451283 -209.568207 
L 149.291283 -181.059075 
L 138.131283 -174.39099 
L 126.971283 -181.113539 
L 115.811283 -174.800709 
L 104.651283 -170.67446 
L 93.491283 -184.429937 
L 82.331283 -241.565844 
L 71.171283 -281.281537 
L 60.011283 -272.805146 
L 48.851283 -282.001229 
z
" style="stroke: #1f77b4; stroke-opacity: 0.2"/>
    </defs>
    <g clip-path="url(#pd12f1d4ddc)">
     <use xlink:href="#m047414504d" x="0" y="361.333136" style="fill: #1f77b4; fill-opacity: 0.2; stroke: #1f77b4; stroke-opacity: 0.2"/>
    </g>
   </g>
   <g id="PolyCollection_2">
    <defs>
     <path id="m91b1e35190" d="M 48.851283 -270.790861 
L 48.851283 -202.7129 
L 60.011283 -184.314752 
L 71.171283 -158.744365 
L 82.331283 -110.52412 
L 93.491283 -88.053156 
L 104.651283 -93.545839 
L 115.811283 -106.083091 
L 126.971283 -118.286738 
L 138.131283 -133.439373 
L 149.291283 -147.647085 
L 160.451283 -154.804778 
L 171.611283 -151.539266 
L 182.771283 -173.556831 
L 193.931283 -190.094035 
L 205.091283 -172.592111 
L 216.251283 -159.041899 
L 227.411283 -143.205311 
L 238.571283 -131.849969 
L 249.731283 -134.903115 
L 260.891283 -144.720063 
L 272.051283 -145.814279 
L 283.211283 -151.647159 
L 294.371283 -152.297183 
L 305.531283 -130.844845 
L 316.691283 -127.768744 
L 327.851283 -114.440108 
L 339.011283 -100.702147 
L 350.171283 -104.335253 
L 361.331283 -117.470565 
L 372.491283 -124.385309 
L 383.651283 -110.662818 
L 394.811283 -99.622628 
L 405.971283 -110.316799 
L 405.971283 -158.539943 
L 405.971283 -158.539943 
L 394.811283 -150.927208 
L 383.651283 -162.369238 
L 372.491283 -176.328903 
L 361.331283 -167.683781 
L 350.171283 -155.375597 
L 339.011283 -151.866087 
L 327.851283 -167.228401 
L 316.691283 -181.214917 
L 305.531283 -185.509367 
L 294.371283 -210.515961 
L 283.211283 -212.879862 
L 272.051283 -214.8407 
L 260.891283 -219.195769 
L 249.731283 -207.139543 
L 238.571283 -194.322417 
L 227.411283 -204.308706 
L 216.251283 -213.412658 
L 205.091283 -229.096583 
L 193.931283 -248.717252 
L 182.771283 -226.94761 
L 171.611283 -206.205091 
L 160.451283 -211.506836 
L 149.291283 -205.803116 
L 138.131283 -190.812406 
L 126.971283 -173.153211 
L 115.811283 -157.687722 
L 104.651283 -145.803099 
L 93.491283 -140.55145 
L 82.331283 -170.129881 
L 71.171283 -225.313861 
L 60.011283 -253.494739 
L 48.851283 -270.790861 
z
" style="stroke: #ff7f0e; stroke-opacity: 0.2"/>
    </defs>
    <g clip-path="url(#pd12f1d4ddc)">
     <use xlink:href="#m91b1e35190" x="0" y="361.333136" style="fill: #ff7f0e; fill-opacity: 0.2; stroke: #ff7f0e; stroke-opacity: 0.2"/>
    </g>
   </g>
   <g id="matplotlib.axis_1">
    <g id="text_1">
     <text style="font: 10px 'Arial', sans-serif; text-anchor: middle" x="227.411283" y="296.533792" transform="rotate(-0 227.411283 296.533792)">Time</text>
    </g>
   </g>
   <g id="matplotlib.axis_2">
    <g id="ytick_1">
     <g id="line2d_1">
      <defs>
       <path id="mf0fa87c4e6" d="M 0 0 
L -3.5 0 
" style="stroke: #000000; stroke-width: 0.8"/>
      </defs>
      <g>
       <use xlink:href="#mf0fa87c4e6" x="48.851283" y="283.675503" style="stroke: #000000; stroke-width: 0.8"/>
      </g>
     </g>
     <g id="text_2">
      <text style="font: 10px 'Arial', sans-serif; text-anchor: end" x="41.851283" y="287.254409" transform="rotate(-0 41.851283 287.254409)">−0.3</text>
     </g>
    </g>
    <g id="ytick_2">
     <g id="line2d_2">
      <g>
       <use xlink:href="#mf0fa87c4e6" x="48.851283" y="252.887534" style="stroke: #000000; stroke-width: 0.8"/>
      </g>
     </g>
     <g id="text_3">
      <text style="font: 10px 'Arial', sans-serif; text-anchor: end" x="41.851283" y="256.46644" transform="rotate(-0 41.851283 256.46644)">−0.2</text>
     </g>
    </g>
    <g id="ytick_3">
     <g id="line2d_3">
      <g>
       <use xlink:href="#mf0fa87c4e6" x="48.851283" y="222.099564" style="stroke: #000000; stroke-width: 0.8"/>
      </g>
     </g>
     <g id="text_4">
      <text style="font: 10px 'Arial', sans-serif; text-anchor: end" x="41.851283" y="225.678471" transform="rotate(-0 41.851283 225.678471)">−0.1</text>
     </g>
    </g>
    <g id="ytick_4">
     <g id="line2d_4">
      <g>
       <use xlink:href="#mf0fa87c4e6" x="48.851283" y="191.311595" style="stroke: #000000; stroke-width: 0.8"/>
      </g>
     </g>
     <g id="text_5">
      <text style="font: 10px 'Arial', sans-serif; text-anchor: end" x="41.851283" y="194.890502" transform="rotate(-0 41.851283 194.890502)">0.0</text>
     </g>
    </g>
    <g id="ytick_5">
     <g id="line2d_5">
      <g>
       <use xlink:href="#mf0fa87c4e6" x="48.851283" y="160.523626" style="stroke: #000000; stroke-width: 0.8"/>
      </g>
     </g>
     <g id="text_6">
      <text style="font: 10px 'Arial', sans-serif; text-anchor: end" x="41.851283" y="164.102533" transform="rotate(-0 41.851283 164.102533)">0.1</text>
     </g>
    </g>
    <g id="ytick_6">
     <g id="line2d_6">
      <g>
       <use xlink:href="#mf0fa87c4e6" x="48.851283" y="129.735657" style="stroke: #000000; stroke-width: 0.8"/>
      </g>
     </g>
     <g id="text_7">
      <text style="font: 10px 'Arial', sans-serif; text-anchor: end" x="41.851283" y="133.314564" transform="rotate(-0 41.851283 133.314564)">0.2</text>
     </g>
    </g>
    <g id="ytick_7">
     <g id="line2d_7">
      <g>
       <use xlink:href="#mf0fa87c4e6" x="48.851283" y="98.947688" style="stroke: #000000; stroke-width: 0.8"/>
      </g>
     </g>
     <g id="text_8">
      <text style="font: 10px 'Arial', sans-serif; text-anchor: end" x="41.851283" y="102.526594" transform="rotate(-0 41.851283 102.526594)">0.3</text>
     </g>
    </g>
    <g id="ytick_8">
     <g id="line2d_8">
      <g>
       <use xlink:href="#mf0fa87c4e6" x="48.851283" y="68.159719" style="stroke: #000000; stroke-width: 0.8"/>
      </g>
     </g>
     <g id="text_9">
      <text style="font: 10px 'Arial', sans-serif; text-anchor: end" x="41.851283" y="71.738625" transform="rotate(-0 41.851283 71.738625)">0.4</text>
     </g>
    </g>
    <g id="ytick_9">
     <g id="line2d_9">
      <g>
       <use xlink:href="#mf0fa87c4e6" x="48.851283" y="37.37175" style="stroke: #000000; stroke-width: 0.8"/>
      </g>
     </g>
     <g id="text_10">
      <text style="font: 10px 'Arial', sans-serif; text-anchor: end" x="41.851283" y="40.950656" transform="rotate(-0 41.851283 40.950656)">0.5</text>
     </g>
    </g>
    <g id="text_11">
     <text style="font: 10px 'Arial', sans-serif; text-anchor: middle" x="16.005971" y="152.31998" transform="rotate(-90 16.005971 152.31998)">Activity</text>
    </g>
   </g>
   <g id="line2d_10">
    <path d="M 48.851283 118.587388 
L 60.011283 130.360822 
L 71.171283 122.582666 
L 82.331283 159.826586 
L 93.491283 213.730062 
L 104.651283 225.10083 
L 115.811283 216.40074 
L 126.971283 206.862863 
L 138.131283 213.497813 
L 149.291283 207.630561 
L 160.451283 180.485494 
L 171.611283 190.760644 
L 182.771283 192.847287 
L 193.931283 196.408352 
L 205.091283 186.853973 
L 216.251283 171.960506 
L 227.411283 190.294899 
L 238.571283 199.920591 
L 249.731283 162.670007 
L 260.891283 138.463393 
L 272.051283 141.962146 
L 283.211283 138.363494 
L 294.371283 142.994155 
L 305.531283 144.914116 
L 316.691283 129.334319 
L 327.851283 120.204896 
L 339.011283 130.468552 
L 350.171283 131.862897 
L 361.331283 125.419932 
L 372.491283 99.748039 
L 383.651283 74.972778 
L 394.811283 88.271488 
L 405.971283 90.234289 
" clip-path="url(#pd12f1d4ddc)" style="fill: none; stroke: #1f77b4; stroke-width: 1.5; stroke-linecap: square"/>
   </g>
   <g id="line2d_11">
    <path d="M 48.851283 124.581257 
L 60.011283 142.428392 
L 71.171283 169.304023 
L 82.331283 221.006135 
L 93.491283 247.030835 
L 104.651283 241.658668 
L 115.811283 229.447731 
L 126.971283 215.61316 
L 138.131283 199.207246 
L 149.291283 184.608035 
L 160.451283 178.177329 
L 171.611283 182.460957 
L 182.771283 161.080915 
L 193.931283 141.92749 
L 205.091283 160.488789 
L 216.251283 175.105858 
L 227.411283 187.576127 
L 238.571283 198.246941 
L 249.731283 190.311806 
L 260.891283 179.375221 
L 272.051283 181.005647 
L 283.211283 179.069624 
L 294.371283 179.926564 
L 305.531283 203.15603 
L 316.691283 206.841305 
L 327.851283 220.498882 
L 339.011283 235.04902 
L 350.171283 231.477711 
L 361.331283 218.755963 
L 372.491283 210.976029 
L 383.651283 224.817109 
L 394.811283 236.058218 
L 405.971283 226.904765 
" clip-path="url(#pd12f1d4ddc)" style="fill: none; stroke: #ff7f0e; stroke-width: 1.5; stroke-linecap: square"/>
   </g>
   <g id="line2d_12">
    <path d="M 82.331283 285.37598 
L 82.331283 19.26398 
" clip-path="url(#pd12f1d4ddc)" style="fill: none; stroke-dasharray: 5.55,2.4; stroke-dashoffset: 0; stroke: #000000; stroke-opacity: 0.5; stroke-width: 1.5"/>
   </g>
   <g id="line2d_13">
    <path d="M 383.651283 285.37598 
L 383.651283 19.26398 
" clip-path="url(#pd12f1d4ddc)" style="fill: none; stroke-dasharray: 5.55,2.4; stroke-dashoffset: 0; stroke: #000000; stroke-opacity: 0.5; stroke-width: 1.5"/>
   </g>
   <g id="patch_3">
    <path d="M 48.851283 285.37598 
L 405.971283 285.37598 
" style="fill: none; stroke: #000000; stroke-width: 0.8; stroke-linejoin: miter; stroke-linecap: square"/>
   </g>
   <g id="text_12">
    <text style="font: 6.94px 'Arial', sans-serif" transform="translate(10.097767 321.385533) rotate(-35)">-0.1s Sampling</text>
   </g>
   <g id="text_13">
    <text style="font: 6.94px 'Arial', sans-serif" transform="translate(57.794497 311.430872) rotate(-35)">Sampling</text>
   </g>
   <g id="text_14">
    <text style="font: 6.94px 'Arial', sans-serif" transform="translate(319.037191 339.456682) rotate(-35)">Movement to Lateral Port</text>
   </g>
   <g id="text_15">
    <text style="font: 8.33px 'Arial', sans-serif; text-anchor: middle" x="227.411283" y="13.26398" transform="rotate(-0 227.411283 13.26398)">GP4_85_s9_L70_D250_ALM - Trace:42_GP4_85_s9_L70_D250_ALM (when: correct)</text>
   </g>
   <g id="legend_1">
    <g id="patch_4">
     <path d="M 133.696342 354.133136 
L 321.126224 354.133136 
Q 322.514224 354.133136 322.514224 352.745136 
L 322.514224 343.45638 
Q 322.514224 342.06838 321.126224 342.06838 
L 133.696342 342.06838 
Q 132.308342 342.06838 132.308342 343.45638 
L 132.308342 352.745136 
Q 132.308342 354.133136 133.696342 354.133136 
z
" style="fill: #ffffff; opacity: 0.8; stroke: #cccccc; stroke-linejoin: miter"/>
    </g>
    <g id="line2d_14">
     <path d="M 135.084342 347.467483 
L 142.024342 347.467483 
L 148.964342 347.467483 
" style="fill: none; stroke: #1f77b4; stroke-width: 1.5; stroke-linecap: square"/>
    </g>
    <g id="text_16">
     <text style="font: 6.94px 'Arial', sans-serif; text-anchor: start" x="154.516342" y="349.896483" transform="rotate(-0 154.516342 349.896483)">DecisionRight (94 pts)</text>
    </g>
    <g id="line2d_15">
     <path d="M 236.664255 347.467483 
L 243.604255 347.467483 
L 250.544255 347.467483 
" style="fill: none; stroke: #ff7f0e; stroke-width: 1.5; stroke-linecap: square"/>
    </g>
    <g id="text_17">
     <text style="font: 6.94px 'Arial', sans-serif; text-anchor: start" x="256.096255" y="349.896483" transform="rotate(-0 256.096255 349.896483)">DecisionLeft (95 pts)</text>
    </g>
   </g>
  </g>
 </g>
 <defs>
  <clipPath id="pd12f1d4ddc">
   <rect x="48.851283" y="19.26398" width="357.12" height="266.112"/>
  </clipPath>
 </defs>
</svg>
