<?xml version="1.0" encoding="utf-8" standalone="no"?>
<!DOCTYPE svg PUBLIC "-//W3C//DTD SVG 1.1//EN"
  "http://www.w3.org/Graphics/SVG/1.1/DTD/svg11.dtd">
<svg xmlns:xlink="http://www.w3.org/1999/xlink" width="413.171283pt" height="361.333136pt" viewBox="0 0 413.171283 361.333136" xmlns="http://www.w3.org/2000/svg" version="1.1">
 <metadata>
  <rdf:RDF xmlns:dc="http://purl.org/dc/elements/1.1/" xmlns:cc="http://creativecommons.org/ns#" xmlns:rdf="http://www.w3.org/1999/02/22-rdf-syntax-ns#">
   <cc:Work>
    <dc:type rdf:resource="http://purl.org/dc/dcmitype/StillImage"/>
    <dc:date>2025-12-29T04:08:04.097847</dc:date>
    <dc:format>image/svg+xml</dc:format>
    <dc:creator>
     <cc:Agent>
      <dc:title>Matplotlib v3.8.0, https://matplotlib.org/</dc:title>
     </cc:Agent>
    </dc:creator>
   </cc:Work>
  </rdf:RDF>
 </metadata>
 <defs>
  <style type="text/css">*{stroke-linejoin: round; stroke-linecap: butt}</style>
 </defs>
 <g id="figure_1">
  <g id="patch_1">
   <path d="M 0 361.333136 
L 413.171283 361.333136 
L 413.171283 -0 
L 0 -0 
z
" style="fill: #ffffff"/>
  </g>
  <g id="axes_1">
   <g id="patch_2">
    <path d="M 48.851283 285.37598 
L 405.971283 285.37598 
L 405.971283 19.26398 
L 48.851283 19.26398 
z
" style="fill: #ffffff"/>
   </g>
   <g id="PolyCollection_1">
    <defs>
     <path id="m38ecedee67" d="M 48.851283 -324.553667 
L 48.851283 -233.571715 
L 60.011283 -233.979905 
L 71.171283 -236.579869 
L 82.331283 -218.27485 
L 93.491283 -174.835485 
L 104.651283 -159.943353 
L 115.811283 -153.910086 
L 126.971283 -133.496832 
L 138.131283 -122.125179 
L 149.291283 -117.038671 
L 160.451283 -110.807121 
L 171.611283 -100.608975 
L 182.771283 -104.412676 
L 193.931283 -126.290971 
L 205.091283 -133.859906 
L 216.251283 -140.621428 
L 227.411283 -129.922554 
L 238.571283 -137.884792 
L 249.731283 -134.075463 
L 260.891283 -124.43671 
L 272.051283 -129.644712 
L 283.211283 -118.77377 
L 294.371283 -119.45791 
L 305.531283 -120.067031 
L 316.691283 -126.991587 
L 327.851283 -126.5861 
L 339.011283 -104.463737 
L 350.171283 -90.748341 
L 361.331283 -96.489201 
L 372.491283 -104.758202 
L 383.651283 -111.692488 
L 394.811283 -104.365621 
L 405.971283 -94.358129 
L 405.971283 -119.714686 
L 405.971283 -119.714686 
L 394.811283 -134.317802 
L 383.651283 -144.352239 
L 372.491283 -135.219784 
L 361.331283 -121.921121 
L 350.171283 -115.725722 
L 339.011283 -129.91241 
L 327.851283 -154.055415 
L 316.691283 -155.382182 
L 305.531283 -149.54565 
L 294.371283 -151.716876 
L 283.211283 -153.833353 
L 272.051283 -161.724779 
L 260.891283 -158.439087 
L 249.731283 -167.380137 
L 238.571283 -171.366407 
L 227.411283 -165.334582 
L 216.251283 -174.70305 
L 205.091283 -164.783671 
L 193.931283 -156.28671 
L 182.771283 -136.198557 
L 171.611283 -133.169912 
L 160.451283 -140.317653 
L 149.291283 -145.490594 
L 138.131283 -152.149411 
L 126.971283 -164.516408 
L 115.811283 -192.416814 
L 104.651283 -209.593953 
L 93.491283 -242.721684 
L 82.331283 -304.393194 
L 71.171283 -329.973156 
L 60.011283 -326.52967 
L 48.851283 -324.553667 
z
" style="stroke: #1f77b4; stroke-opacity: 0.2"/>
    </defs>
    <g clip-path="url(#p2099dc436d)">
     <use xlink:href="#m38ecedee67" x="0" y="361.333136" style="fill: #1f77b4; fill-opacity: 0.2; stroke: #1f77b4; stroke-opacity: 0.2"/>
    </g>
   </g>
   <g id="PolyCollection_2">
    <defs>
     <path id="m5a53f3262f" d="M 48.851283 -305.967253 
L 48.851283 -239.074484 
L 60.011283 -245.863365 
L 71.171283 -230.929238 
L 82.331283 -196.965735 
L 93.491283 -156.903654 
L 104.651283 -122.762117 
L 115.811283 -107.809247 
L 126.971283 -112.854078 
L 138.131283 -113.343509 
L 149.291283 -109.549604 
L 160.451283 -117.343232 
L 171.611283 -108.938996 
L 182.771283 -100.61902 
L 193.931283 -94.848604 
L 205.091283 -97.776192 
L 216.251283 -106.962826 
L 227.411283 -112.023659 
L 238.571283 -98.479621 
L 249.731283 -88.053156 
L 260.891283 -100.176432 
L 272.051283 -120.431342 
L 283.211283 -120.516429 
L 294.371283 -100.283355 
L 305.531283 -97.347393 
L 316.691283 -106.421181 
L 327.851283 -122.137222 
L 339.011283 -127.710128 
L 350.171283 -129.743217 
L 361.331283 -121.340853 
L 372.491283 -127.275968 
L 383.651283 -142.77842 
L 394.811283 -155.093185 
L 405.971283 -167.169711 
L 405.971283 -200.593451 
L 405.971283 -200.593451 
L 394.811283 -186.381416 
L 383.651283 -171.421648 
L 372.491283 -154.163826 
L 361.331283 -147.421347 
L 350.171283 -155.711328 
L 339.011283 -153.90172 
L 327.851283 -149.406816 
L 316.691283 -134.183014 
L 305.531283 -123.69337 
L 294.371283 -126.703737 
L 283.211283 -146.63263 
L 272.051283 -145.878607 
L 260.891283 -126.697102 
L 249.731283 -113.952365 
L 238.571283 -124.513536 
L 227.411283 -136.163196 
L 216.251283 -133.816045 
L 205.091283 -127.882011 
L 193.931283 -123.403737 
L 182.771283 -128.402389 
L 171.611283 -135.770215 
L 160.451283 -140.007301 
L 149.291283 -134.165222 
L 138.131283 -139.15565 
L 126.971283 -136.936216 
L 115.811283 -135.286494 
L 104.651283 -157.607001 
L 93.491283 -199.735409 
L 82.331283 -256.881622 
L 71.171283 -301.296359 
L 60.011283 -315.270826 
L 48.851283 -305.967253 
z
" style="stroke: #ff7f0e; stroke-opacity: 0.2"/>
    </defs>
    <g clip-path="url(#p2099dc436d)">
     <use xlink:href="#m5a53f3262f" x="0" y="361.333136" style="fill: #ff7f0e; fill-opacity: 0.2; stroke: #ff7f0e; stroke-opacity: 0.2"/>
    </g>
   </g>
   <g id="matplotlib.axis_1">
    <g id="text_1">
     <text style="font: 10px 'Arial', sans-serif; text-anchor: middle" x="227.411283" y="296.533792" transform="rotate(-0 227.411283 296.533792)">Time</text>
    </g>
   </g>
   <g id="matplotlib.axis_2">
    <g id="ytick_1">
     <g id="line2d_1">
      <defs>
       <path id="ma159e338e7" d="M 0 0 
L -3.5 0 
" style="stroke: #000000; stroke-width: 0.8"/>
      </defs>
      <g>
       <use xlink:href="#ma159e338e7" x="48.851283" y="246.987119" style="stroke: #000000; stroke-width: 0.8"/>
      </g>
     </g>
     <g id="text_2">
      <text style="font: 10px 'Arial', sans-serif; text-anchor: end" x="41.851283" y="250.566025" transform="rotate(-0 41.851283 250.566025)">−0.2</text>
     </g>
    </g>
    <g id="ytick_2">
     <g id="line2d_2">
      <g>
       <use xlink:href="#ma159e338e7" x="48.851283" y="201.221954" style="stroke: #000000; stroke-width: 0.8"/>
      </g>
     </g>
     <g id="text_3">
      <text style="font: 10px 'Arial', sans-serif; text-anchor: end" x="41.851283" y="204.80086" transform="rotate(-0 41.851283 204.80086)">0.0</text>
     </g>
    </g>
    <g id="ytick_3">
     <g id="line2d_3">
      <g>
       <use xlink:href="#ma159e338e7" x="48.851283" y="155.456789" style="stroke: #000000; stroke-width: 0.8"/>
      </g>
     </g>
     <g id="text_4">
      <text style="font: 10px 'Arial', sans-serif; text-anchor: end" x="41.851283" y="159.035695" transform="rotate(-0 41.851283 159.035695)">0.2</text>
     </g>
    </g>
    <g id="ytick_4">
     <g id="line2d_4">
      <g>
       <use xlink:href="#ma159e338e7" x="48.851283" y="109.691623" style="stroke: #000000; stroke-width: 0.8"/>
      </g>
     </g>
     <g id="text_5">
      <text style="font: 10px 'Arial', sans-serif; text-anchor: end" x="41.851283" y="113.270529" transform="rotate(-0 41.851283 113.270529)">0.4</text>
     </g>
    </g>
    <g id="ytick_5">
     <g id="line2d_5">
      <g>
       <use xlink:href="#ma159e338e7" x="48.851283" y="63.926458" style="stroke: #000000; stroke-width: 0.8"/>
      </g>
     </g>
     <g id="text_6">
      <text style="font: 10px 'Arial', sans-serif; text-anchor: end" x="41.851283" y="67.505364" transform="rotate(-0 41.851283 67.505364)">0.6</text>
     </g>
    </g>
    <g id="text_7">
     <text style="font: 10px 'Arial', sans-serif; text-anchor: middle" x="16.005971" y="152.31998" transform="rotate(-90 16.005971 152.31998)">Activity</text>
    </g>
   </g>
   <g id="line2d_6">
    <path d="M 48.851283 82.270445 
L 60.011283 81.078348 
L 71.171283 78.056623 
L 82.331283 99.999117 
L 93.491283 152.554551 
L 104.651283 176.564483 
L 115.811283 188.169686 
L 126.971283 212.326516 
L 138.131283 224.19584 
L 149.291283 230.068503 
L 160.451283 235.770748 
L 171.611283 244.443694 
L 182.771283 241.027519 
L 193.931283 220.044295 
L 205.091283 212.011348 
L 216.251283 203.670897 
L 227.411283 213.704568 
L 238.571283 206.707537 
L 249.731283 210.605336 
L 260.891283 219.895236 
L 272.051283 215.648389 
L 283.211283 225.029573 
L 294.371283 225.745743 
L 305.531283 226.526795 
L 316.691283 220.146252 
L 327.851283 221.012378 
L 339.011283 244.145062 
L 350.171283 258.096104 
L 361.331283 252.127973 
L 372.491283 241.344144 
L 383.651283 233.310772 
L 394.811283 241.991424 
L 405.971283 254.296727 
" clip-path="url(#p2099dc436d)" style="fill: none; stroke: #1f77b4; stroke-width: 1.5; stroke-linecap: square"/>
   </g>
   <g id="line2d_7">
    <path d="M 48.851283 88.812267 
L 60.011283 80.766041 
L 71.171283 95.220338 
L 82.331283 134.409458 
L 93.491283 183.013605 
L 104.651283 221.148576 
L 115.811283 239.785265 
L 126.971283 236.437989 
L 138.131283 235.083556 
L 149.291283 239.475723 
L 160.451283 232.657869 
L 171.611283 238.97853 
L 182.771283 246.822431 
L 193.931283 252.206967 
L 205.091283 248.504035 
L 216.251283 240.943701 
L 227.411283 237.239708 
L 238.571283 249.836559 
L 249.731283 260.330374 
L 260.891283 247.896369 
L 272.051283 228.178162 
L 283.211283 227.758607 
L 294.371283 247.83959 
L 305.531283 250.812753 
L 316.691283 241.031038 
L 327.851283 225.561117 
L 339.011283 220.527212 
L 350.171283 218.605864 
L 361.331283 226.952036 
L 372.491283 220.613239 
L 383.651283 204.233101 
L 394.811283 190.595835 
L 405.971283 177.451555 
" clip-path="url(#p2099dc436d)" style="fill: none; stroke: #ff7f0e; stroke-width: 1.5; stroke-linecap: square"/>
   </g>
   <g id="line2d_8">
    <path d="M 82.331283 285.37598 
L 82.331283 19.26398 
" clip-path="url(#p2099dc436d)" style="fill: none; stroke-dasharray: 5.55,2.4; stroke-dashoffset: 0; stroke: #000000; stroke-opacity: 0.5; stroke-width: 1.5"/>
   </g>
   <g id="line2d_9">
    <path d="M 383.651283 285.37598 
L 383.651283 19.26398 
" clip-path="url(#p2099dc436d)" style="fill: none; stroke-dasharray: 5.55,2.4; stroke-dashoffset: 0; stroke: #000000; stroke-opacity: 0.5; stroke-width: 1.5"/>
   </g>
   <g id="patch_3">
    <path d="M 48.851283 285.37598 
L 405.971283 285.37598 
" style="fill: none; stroke: #000000; stroke-width: 0.8; stroke-linejoin: miter; stroke-linecap: square"/>
   </g>
   <g id="text_8">
    <text style="font: 6.94px 'Arial', sans-serif" transform="translate(10.097767 321.385533) rotate(-35)">-0.1s Sampling</text>
   </g>
   <g id="text_9">
    <text style="font: 6.94px 'Arial', sans-serif" transform="translate(57.794497 311.430872) rotate(-35)">Sampling</text>
   </g>
   <g id="text_10">
    <text style="font: 6.94px 'Arial', sans-serif" transform="translate(319.037191 339.456682) rotate(-35)">Movement to Lateral Port</text>
   </g>
   <g id="text_11">
    <text style="font: 8.33px 'Arial', sans-serif; text-anchor: middle" x="227.411283" y="13.26398" transform="rotate(-0 227.411283 13.26398)">GP4_85_s9_L70_D250_ALM - Trace:43_GP4_85_s9_L70_D250_ALM (when: correct)</text>
   </g>
   <g id="legend_1">
    <g id="patch_4">
     <path d="M 133.696342 354.133136 
L 321.126224 354.133136 
Q 322.514224 354.133136 322.514224 352.745136 
L 322.514224 343.45638 
Q 322.514224 342.06838 321.126224 342.06838 
L 133.696342 342.06838 
Q 132.308342 342.06838 132.308342 343.45638 
L 132.308342 352.745136 
Q 132.308342 354.133136 133.696342 354.133136 
z
" style="fill: #ffffff; opacity: 0.8; stroke: #cccccc; stroke-linejoin: miter"/>
    </g>
    <g id="line2d_10">
     <path d="M 135.084342 347.467483 
L 142.024342 347.467483 
L 148.964342 347.467483 
" style="fill: none; stroke: #1f77b4; stroke-width: 1.5; stroke-linecap: square"/>
    </g>
    <g id="text_12">
     <text style="font: 6.94px 'Arial', sans-serif; text-anchor: start" x="154.516342" y="349.896483" transform="rotate(-0 154.516342 349.896483)">DecisionRight (94 pts)</text>
    </g>
    <g id="line2d_11">
     <path d="M 236.664255 347.467483 
L 243.604255 347.467483 
L 250.544255 347.467483 
" style="fill: none; stroke: #ff7f0e; stroke-width: 1.5; stroke-linecap: square"/>
    </g>
    <g id="text_13">
     <text style="font: 6.94px 'Arial', sans-serif; text-anchor: start" x="256.096255" y="349.896483" transform="rotate(-0 256.096255 349.896483)">DecisionLeft (95 pts)</text>
    </g>
   </g>
  </g>
 </g>
 <defs>
  <clipPath id="p2099dc436d">
   <rect x="48.851283" y="19.26398" width="357.12" height="266.112"/>
  </clipPath>
 </defs>
</svg>
