<?xml version="1.0" encoding="utf-8" standalone="no"?>
<!DOCTYPE svg PUBLIC "-//W3C//DTD SVG 1.1//EN"
  "http://www.w3.org/Graphics/SVG/1.1/DTD/svg11.dtd">
<svg xmlns:xlink="http://www.w3.org/1999/xlink" width="413.171283pt" height="361.333136pt" viewBox="0 0 413.171283 361.333136" xmlns="http://www.w3.org/2000/svg" version="1.1">
 <metadata>
  <rdf:RDF xmlns:dc="http://purl.org/dc/elements/1.1/" xmlns:cc="http://creativecommons.org/ns#" xmlns:rdf="http://www.w3.org/1999/02/22-rdf-syntax-ns#">
   <cc:Work>
    <dc:type rdf:resource="http://purl.org/dc/dcmitype/StillImage"/>
    <dc:date>2025-12-29T04:08:06.291840</dc:date>
    <dc:format>image/svg+xml</dc:format>
    <dc:creator>
     <cc:Agent>
      <dc:title>Matplotlib v3.8.0, https://matplotlib.org/</dc:title>
     </cc:Agent>
    </dc:creator>
   </cc:Work>
  </rdf:RDF>
 </metadata>
 <defs>
  <style type="text/css">*{stroke-linejoin: round; stroke-linecap: butt}</style>
 </defs>
 <g id="figure_1">
  <g id="patch_1">
   <path d="M 0 361.333136 
L 413.171283 361.333136 
L 413.171283 -0 
L 0 -0 
z
" style="fill: #ffffff"/>
  </g>
  <g id="axes_1">
   <g id="patch_2">
    <path d="M 48.851283 285.37598 
L 405.971283 285.37598 
L 405.971283 19.26398 
L 48.851283 19.26398 
z
" style="fill: #ffffff"/>
   </g>
   <g id="PolyCollection_1">
    <defs>
     <path id="me85a3e9208" d="M 48.851283 -225.568148 
L 48.851283 -178.248201 
L 60.011283 -189.613476 
L 71.171283 -181.12065 
L 82.331283 -153.450149 
L 93.491283 -123.425028 
L 104.651283 -108.241694 
L 115.811283 -106.058987 
L 126.971283 -103.458179 
L 138.131283 -99.378223 
L 149.291283 -95.690084 
L 160.451283 -90.981473 
L 171.611283 -92.562147 
L 182.771283 -96.925407 
L 193.931283 -103.068607 
L 205.091283 -101.139855 
L 216.251283 -94.034804 
L 227.411283 -93.939612 
L 238.571283 -105.143259 
L 249.731283 -101.270916 
L 260.891283 -97.228572 
L 272.051283 -101.136109 
L 283.211283 -104.514407 
L 294.371283 -95.228988 
L 305.531283 -88.053156 
L 316.691283 -91.713122 
L 327.851283 -92.004492 
L 339.011283 -95.422596 
L 350.171283 -91.069477 
L 361.331283 -88.093221 
L 372.491283 -92.761064 
L 383.651283 -109.40463 
L 394.811283 -114.752836 
L 405.971283 -110.489741 
L 405.971283 -135.127822 
L 405.971283 -135.127822 
L 394.811283 -139.705619 
L 383.651283 -132.500111 
L 372.491283 -115.204356 
L 361.331283 -109.363089 
L 350.171283 -111.105737 
L 339.011283 -113.235438 
L 327.851283 -111.512237 
L 316.691283 -113.531803 
L 305.531283 -109.090165 
L 294.371283 -116.233349 
L 283.211283 -127.270727 
L 272.051283 -125.504373 
L 260.891283 -120.211987 
L 249.731283 -123.922268 
L 238.571283 -127.981314 
L 227.411283 -116.346185 
L 216.251283 -115.231734 
L 205.091283 -120.969054 
L 193.931283 -125.936237 
L 182.771283 -122.331636 
L 171.611283 -117.618342 
L 160.451283 -116.446972 
L 149.291283 -123.138548 
L 138.131283 -125.476621 
L 126.971283 -127.995786 
L 115.811283 -129.303412 
L 104.651283 -134.982188 
L 93.491283 -154.357779 
L 82.331283 -187.858847 
L 71.171283 -227.288663 
L 60.011283 -239.909181 
L 48.851283 -225.568148 
z
" style="stroke: #1f77b4; stroke-opacity: 0.2"/>
    </defs>
    <g clip-path="url(#pd10a1216ac)">
     <use xlink:href="#me85a3e9208" x="0" y="361.333136" style="fill: #1f77b4; fill-opacity: 0.2; stroke: #1f77b4; stroke-opacity: 0.2"/>
    </g>
   </g>
   <g id="PolyCollection_2">
    <defs>
     <path id="mb36fd9cb90" d="M 48.851283 -323.371487 
L 48.851283 -246.657036 
L 60.011283 -248.366009 
L 71.171283 -235.911666 
L 82.331283 -201.907219 
L 93.491283 -159.53347 
L 104.651283 -128.610638 
L 115.811283 -113.140937 
L 126.971283 -103.254711 
L 138.131283 -89.859105 
L 149.291283 -88.854889 
L 160.451283 -91.935893 
L 171.611283 -99.112181 
L 182.771283 -108.541254 
L 193.931283 -111.635308 
L 205.091283 -117.512696 
L 216.251283 -107.123719 
L 227.411283 -99.875823 
L 238.571283 -110.92566 
L 249.731283 -123.609074 
L 260.891283 -118.975336 
L 272.051283 -123.856946 
L 283.211283 -134.133204 
L 294.371283 -129.777773 
L 305.531283 -124.822823 
L 316.691283 -131.139455 
L 327.851283 -131.048718 
L 339.011283 -121.613283 
L 350.171283 -121.584575 
L 361.331283 -131.200143 
L 372.491283 -143.873539 
L 383.651283 -157.84104 
L 394.811283 -168.222951 
L 405.971283 -169.93846 
L 405.971283 -206.495932 
L 405.971283 -206.495932 
L 394.811283 -206.389057 
L 383.651283 -194.288243 
L 372.491283 -175.64705 
L 361.331283 -158.491252 
L 350.171283 -147.01012 
L 339.011283 -151.148812 
L 327.851283 -159.150027 
L 316.691283 -158.328533 
L 305.531283 -150.974173 
L 294.371283 -154.603181 
L 283.211283 -158.077904 
L 272.051283 -148.852308 
L 260.891283 -144.455882 
L 249.731283 -149.624209 
L 238.571283 -137.163353 
L 227.411283 -125.108212 
L 216.251283 -131.803839 
L 205.091283 -142.374414 
L 193.931283 -137.451138 
L 182.771283 -136.002845 
L 171.611283 -124.33102 
L 160.451283 -113.427588 
L 149.291283 -110.951002 
L 138.131283 -111.863142 
L 126.971283 -123.296886 
L 115.811283 -136.268045 
L 104.651283 -156.358252 
L 93.491283 -197.119489 
L 82.331283 -256.083865 
L 71.171283 -313.779608 
L 60.011283 -329.973156 
L 48.851283 -323.371487 
z
" style="stroke: #ff7f0e; stroke-opacity: 0.2"/>
    </defs>
    <g clip-path="url(#pd10a1216ac)">
     <use xlink:href="#mb36fd9cb90" x="0" y="361.333136" style="fill: #ff7f0e; fill-opacity: 0.2; stroke: #ff7f0e; stroke-opacity: 0.2"/>
    </g>
   </g>
   <g id="matplotlib.axis_1">
    <g id="text_1">
     <text style="font: 10px 'Arial', sans-serif; text-anchor: middle" x="227.411283" y="296.533792" transform="rotate(-0 227.411283 296.533792)">Time</text>
    </g>
   </g>
   <g id="matplotlib.axis_2">
    <g id="ytick_1">
     <g id="line2d_1">
      <defs>
       <path id="m38dc981590" d="M 0 0 
L -3.5 0 
" style="stroke: #000000; stroke-width: 0.8"/>
      </defs>
      <g>
       <use xlink:href="#m38dc981590" x="48.851283" y="281.071006" style="stroke: #000000; stroke-width: 0.8"/>
      </g>
     </g>
     <g id="text_2">
      <text style="font: 10px 'Arial', sans-serif; text-anchor: end" x="41.851283" y="284.649912" transform="rotate(-0 41.851283 284.649912)">−0.4</text>
     </g>
    </g>
    <g id="ytick_2">
     <g id="line2d_2">
      <g>
       <use xlink:href="#m38dc981590" x="48.851283" y="243.324327" style="stroke: #000000; stroke-width: 0.8"/>
      </g>
     </g>
     <g id="text_3">
      <text style="font: 10px 'Arial', sans-serif; text-anchor: end" x="41.851283" y="246.903233" transform="rotate(-0 41.851283 246.903233)">−0.2</text>
     </g>
    </g>
    <g id="ytick_3">
     <g id="line2d_3">
      <g>
       <use xlink:href="#m38dc981590" x="48.851283" y="205.577648" style="stroke: #000000; stroke-width: 0.8"/>
      </g>
     </g>
     <g id="text_4">
      <text style="font: 10px 'Arial', sans-serif; text-anchor: end" x="41.851283" y="209.156555" transform="rotate(-0 41.851283 209.156555)">0.0</text>
     </g>
    </g>
    <g id="ytick_4">
     <g id="line2d_4">
      <g>
       <use xlink:href="#m38dc981590" x="48.851283" y="167.83097" style="stroke: #000000; stroke-width: 0.8"/>
      </g>
     </g>
     <g id="text_5">
      <text style="font: 10px 'Arial', sans-serif; text-anchor: end" x="41.851283" y="171.409876" transform="rotate(-0 41.851283 171.409876)">0.2</text>
     </g>
    </g>
    <g id="ytick_5">
     <g id="line2d_5">
      <g>
       <use xlink:href="#m38dc981590" x="48.851283" y="130.084291" style="stroke: #000000; stroke-width: 0.8"/>
      </g>
     </g>
     <g id="text_6">
      <text style="font: 10px 'Arial', sans-serif; text-anchor: end" x="41.851283" y="133.663197" transform="rotate(-0 41.851283 133.663197)">0.4</text>
     </g>
    </g>
    <g id="ytick_6">
     <g id="line2d_6">
      <g>
       <use xlink:href="#m38dc981590" x="48.851283" y="92.337612" style="stroke: #000000; stroke-width: 0.8"/>
      </g>
     </g>
     <g id="text_7">
      <text style="font: 10px 'Arial', sans-serif; text-anchor: end" x="41.851283" y="95.916518" transform="rotate(-0 41.851283 95.916518)">0.6</text>
     </g>
    </g>
    <g id="ytick_7">
     <g id="line2d_7">
      <g>
       <use xlink:href="#m38dc981590" x="48.851283" y="54.590933" style="stroke: #000000; stroke-width: 0.8"/>
      </g>
     </g>
     <g id="text_8">
      <text style="font: 10px 'Arial', sans-serif; text-anchor: end" x="41.851283" y="58.16984" transform="rotate(-0 41.851283 58.16984)">0.8</text>
     </g>
    </g>
    <g id="text_9">
     <text style="font: 10px 'Arial', sans-serif; text-anchor: middle" x="16.005971" y="152.31998" transform="rotate(-90 16.005971 152.31998)">Activity</text>
    </g>
   </g>
   <g id="line2d_8">
    <path d="M 48.851283 159.424963 
L 60.011283 146.571807 
L 71.171283 157.128479 
L 82.331283 190.678637 
L 93.491283 222.441732 
L 104.651283 239.721194 
L 115.811283 243.651938 
L 126.971283 245.606153 
L 138.131283 248.905714 
L 149.291283 251.91882 
L 160.451283 257.618915 
L 171.611283 256.24289 
L 182.771283 251.704615 
L 193.931283 246.830714 
L 205.091283 250.278682 
L 216.251283 256.699868 
L 227.411283 256.190237 
L 238.571283 244.77085 
L 249.731283 248.736543 
L 260.891283 252.612856 
L 272.051283 248.012895 
L 283.211283 245.440571 
L 294.371283 255.601968 
L 305.531283 262.761477 
L 316.691283 258.710674 
L 327.851283 259.574773 
L 339.011283 257.004119 
L 350.171283 260.245529 
L 361.331283 262.604981 
L 372.491283 257.350426 
L 383.651283 240.380765 
L 394.811283 234.103908 
L 405.971283 238.524355 
" clip-path="url(#pd10a1216ac)" style="fill: none; stroke: #1f77b4; stroke-width: 1.5; stroke-linecap: square"/>
   </g>
   <g id="line2d_9">
    <path d="M 48.851283 76.318874 
L 60.011283 72.163553 
L 71.171283 86.487499 
L 82.331283 132.337593 
L 93.491283 183.006656 
L 104.651283 218.848691 
L 115.811283 236.628645 
L 126.971283 248.057338 
L 138.131283 260.472013 
L 149.291283 261.430191 
L 160.451283 258.651395 
L 171.611283 249.611537 
L 182.771283 239.061086 
L 193.931283 236.789913 
L 205.091283 231.38958 
L 216.251283 241.869357 
L 227.411283 248.84112 
L 238.571283 237.288629 
L 249.731283 224.716495 
L 260.891283 229.617526 
L 272.051283 224.978508 
L 283.211283 215.227582 
L 294.371283 219.14266 
L 305.531283 223.434638 
L 316.691283 216.599142 
L 327.851283 216.233764 
L 339.011283 224.952088 
L 350.171283 227.035789 
L 361.331283 216.487438 
L 372.491283 201.572842 
L 383.651283 185.268495 
L 394.811283 174.027131 
L 405.971283 173.115939 
" clip-path="url(#pd10a1216ac)" style="fill: none; stroke: #ff7f0e; stroke-width: 1.5; stroke-linecap: square"/>
   </g>
   <g id="line2d_10">
    <path d="M 82.331283 285.37598 
L 82.331283 19.26398 
" clip-path="url(#pd10a1216ac)" style="fill: none; stroke-dasharray: 5.55,2.4; stroke-dashoffset: 0; stroke: #000000; stroke-opacity: 0.5; stroke-width: 1.5"/>
   </g>
   <g id="line2d_11">
    <path d="M 383.651283 285.37598 
L 383.651283 19.26398 
" clip-path="url(#pd10a1216ac)" style="fill: none; stroke-dasharray: 5.55,2.4; stroke-dashoffset: 0; stroke: #000000; stroke-opacity: 0.5; stroke-width: 1.5"/>
   </g>
   <g id="patch_3">
    <path d="M 48.851283 285.37598 
L 405.971283 285.37598 
" style="fill: none; stroke: #000000; stroke-width: 0.8; stroke-linejoin: miter; stroke-linecap: square"/>
   </g>
   <g id="text_10">
    <text style="font: 6.94px 'Arial', sans-serif" transform="translate(10.097767 321.385533) rotate(-35)">-0.1s Sampling</text>
   </g>
   <g id="text_11">
    <text style="font: 6.94px 'Arial', sans-serif" transform="translate(57.794497 311.430872) rotate(-35)">Sampling</text>
   </g>
   <g id="text_12">
    <text style="font: 6.94px 'Arial', sans-serif" transform="translate(319.037191 339.456682) rotate(-35)">Movement to Lateral Port</text>
   </g>
   <g id="text_13">
    <text style="font: 8.33px 'Arial', sans-serif; text-anchor: middle" x="227.411283" y="13.26398" transform="rotate(-0 227.411283 13.26398)">GP4_85_s9_L70_D250_ALM - Trace:56_GP4_85_s9_L70_D250_ALM (when: correct)</text>
   </g>
   <g id="legend_1">
    <g id="patch_4">
     <path d="M 133.696342 354.133136 
L 321.126224 354.133136 
Q 322.514224 354.133136 322.514224 352.745136 
L 322.514224 343.45638 
Q 322.514224 342.06838 321.126224 342.06838 
L 133.696342 342.06838 
Q 132.308342 342.06838 132.308342 343.45638 
L 132.308342 352.745136 
Q 132.308342 354.133136 133.696342 354.133136 
z
" style="fill: #ffffff; opacity: 0.8; stroke: #cccccc; stroke-linejoin: miter"/>
    </g>
    <g id="line2d_12">
     <path d="M 135.084342 347.467483 
L 142.024342 347.467483 
L 148.964342 347.467483 
" style="fill: none; stroke: #1f77b4; stroke-width: 1.5; stroke-linecap: square"/>
    </g>
    <g id="text_14">
     <text style="font: 6.94px 'Arial', sans-serif; text-anchor: start" x="154.516342" y="349.896483" transform="rotate(-0 154.516342 349.896483)">DecisionRight (94 pts)</text>
    </g>
    <g id="line2d_13">
     <path d="M 236.664255 347.467483 
L 243.604255 347.467483 
L 250.544255 347.467483 
" style="fill: none; stroke: #ff7f0e; stroke-width: 1.5; stroke-linecap: square"/>
    </g>
    <g id="text_15">
     <text style="font: 6.94px 'Arial', sans-serif; text-anchor: start" x="256.096255" y="349.896483" transform="rotate(-0 256.096255 349.896483)">DecisionLeft (95 pts)</text>
    </g>
   </g>
  </g>
 </g>
 <defs>
  <clipPath id="pd10a1216ac">
   <rect x="48.851283" y="19.26398" width="357.12" height="266.112"/>
  </clipPath>
 </defs>
</svg>
