<?xml version="1.0" encoding="utf-8" standalone="no"?>
<!DOCTYPE svg PUBLIC "-//W3C//DTD SVG 1.1//EN"
  "http://www.w3.org/Graphics/SVG/1.1/DTD/svg11.dtd">
<svg xmlns:xlink="http://www.w3.org/1999/xlink" width="413.171283pt" height="361.333136pt" viewBox="0 0 413.171283 361.333136" xmlns="http://www.w3.org/2000/svg" version="1.1">
 <metadata>
  <rdf:RDF xmlns:dc="http://purl.org/dc/elements/1.1/" xmlns:cc="http://creativecommons.org/ns#" xmlns:rdf="http://www.w3.org/1999/02/22-rdf-syntax-ns#">
   <cc:Work>
    <dc:type rdf:resource="http://purl.org/dc/dcmitype/StillImage"/>
    <dc:date>2025-12-29T04:08:03.503828</dc:date>
    <dc:format>image/svg+xml</dc:format>
    <dc:creator>
     <cc:Agent>
      <dc:title>Matplotlib v3.8.0, https://matplotlib.org/</dc:title>
     </cc:Agent>
    </dc:creator>
   </cc:Work>
  </rdf:RDF>
 </metadata>
 <defs>
  <style type="text/css">*{stroke-linejoin: round; stroke-linecap: butt}</style>
 </defs>
 <g id="figure_1">
  <g id="patch_1">
   <path d="M 0 361.333136 
L 413.171283 361.333136 
L 413.171283 -0 
L 0 -0 
z
" style="fill: #ffffff"/>
  </g>
  <g id="axes_1">
   <g id="patch_2">
    <path d="M 48.851283 285.37598 
L 405.971283 285.37598 
L 405.971283 19.26398 
L 48.851283 19.26398 
z
" style="fill: #ffffff"/>
   </g>
   <g id="PolyCollection_1">
    <defs>
     <path id="m41436b5a09" d="M 48.851283 -187.251053 
L 48.851283 -166.484526 
L 60.011283 -161.34079 
L 71.171283 -148.635963 
L 82.331283 -118.033108 
L 93.491283 -98.933005 
L 104.651283 -99.996407 
L 115.811283 -100.379842 
L 126.971283 -109.753127 
L 138.131283 -115.446598 
L 149.291283 -134.499855 
L 160.451283 -167.93791 
L 171.611283 -188.092709 
L 182.771283 -201.748947 
L 193.931283 -229.655765 
L 205.091283 -247.474414 
L 216.251283 -255.037517 
L 227.411283 -243.21306 
L 238.571283 -233.842377 
L 249.731283 -237.133996 
L 260.891283 -228.103077 
L 272.051283 -235.155128 
L 283.211283 -242.299696 
L 294.371283 -245.682013 
L 305.531283 -245.207046 
L 316.691283 -258.68983 
L 327.851283 -244.44384 
L 339.011283 -229.461942 
L 350.171283 -213.535213 
L 361.331283 -206.866393 
L 372.491283 -193.355061 
L 383.651283 -201.628865 
L 394.811283 -221.544817 
L 405.971283 -237.97919 
L 405.971283 -283.734163 
L 405.971283 -283.734163 
L 394.811283 -259.514779 
L 383.651283 -235.008183 
L 372.491283 -227.728912 
L 361.331283 -246.104049 
L 350.171283 -258.794833 
L 339.011283 -284.323698 
L 327.851283 -302.708116 
L 316.691283 -319.061928 
L 305.531283 -300.19983 
L 294.371283 -303.82381 
L 283.211283 -301.64678 
L 272.051283 -293.211684 
L 260.891283 -286.440013 
L 249.731283 -297.963436 
L 238.571283 -291.873458 
L 227.411283 -299.2323 
L 216.251283 -316.709993 
L 205.091283 -309.653691 
L 193.931283 -298.837489 
L 182.771283 -261.200232 
L 171.611283 -246.10281 
L 160.451283 -227.316225 
L 149.291283 -192.14266 
L 138.131283 -161.184047 
L 126.971283 -147.697455 
L 115.811283 -136.327925 
L 104.651283 -121.750367 
L 93.491283 -119.278815 
L 82.331283 -139.416657 
L 71.171283 -173.017234 
L 60.011283 -184.412662 
L 48.851283 -187.251053 
z
" style="stroke: #1f77b4; stroke-opacity: 0.2"/>
    </defs>
    <g clip-path="url(#pd18eacceb0)">
     <use xlink:href="#m41436b5a09" x="0" y="361.333136" style="fill: #1f77b4; fill-opacity: 0.2; stroke: #1f77b4; stroke-opacity: 0.2"/>
    </g>
   </g>
   <g id="PolyCollection_2">
    <defs>
     <path id="m934b3292a9" d="M 48.851283 -195.138192 
L 48.851283 -174.58005 
L 60.011283 -162.260843 
L 71.171283 -140.835814 
L 82.331283 -112.787245 
L 93.491283 -88.867006 
L 104.651283 -88.053156 
L 115.811283 -93.145013 
L 126.971283 -102.069051 
L 138.131283 -112.31009 
L 149.291283 -136.723993 
L 160.451283 -153.605135 
L 171.611283 -179.95181 
L 182.771283 -197.029907 
L 193.931283 -216.723691 
L 205.091283 -230.720274 
L 216.251283 -244.799549 
L 227.411283 -254.514327 
L 238.571283 -271.061657 
L 249.731283 -264.646451 
L 260.891283 -246.962075 
L 272.051283 -237.697627 
L 283.211283 -231.375455 
L 294.371283 -225.470313 
L 305.531283 -235.375275 
L 316.691283 -238.157937 
L 327.851283 -229.827244 
L 339.011283 -208.060428 
L 350.171283 -197.240813 
L 361.331283 -192.336059 
L 372.491283 -185.935066 
L 383.651283 -186.954787 
L 394.811283 -200.780649 
L 405.971283 -228.360322 
L 405.971283 -264.545048 
L 405.971283 -264.545048 
L 394.811283 -237.722736 
L 383.651283 -225.4835 
L 372.491283 -225.936926 
L 361.331283 -235.104952 
L 350.171283 -241.294278 
L 339.011283 -250.010231 
L 327.851283 -274.605678 
L 316.691283 -286.234154 
L 305.531283 -284.658356 
L 294.371283 -272.999338 
L 283.211283 -279.503975 
L 272.051283 -286.567385 
L 260.891283 -298.229782 
L 249.731283 -319.278609 
L 238.571283 -329.973156 
L 227.411283 -313.760364 
L 216.251283 -296.632077 
L 205.091283 -285.055261 
L 193.931283 -271.73578 
L 182.771283 -244.593963 
L 171.611283 -219.323378 
L 160.451283 -187.866372 
L 149.291283 -168.082343 
L 138.131283 -141.966498 
L 126.971283 -135.301115 
L 115.811283 -123.829409 
L 104.651283 -108.604087 
L 93.491283 -105.107422 
L 82.331283 -131.35352 
L 71.171283 -160.330324 
L 60.011283 -181.822367 
L 48.851283 -195.138192 
z
" style="stroke: #ff7f0e; stroke-opacity: 0.2"/>
    </defs>
    <g clip-path="url(#pd18eacceb0)">
     <use xlink:href="#m934b3292a9" x="0" y="361.333136" style="fill: #ff7f0e; fill-opacity: 0.2; stroke: #ff7f0e; stroke-opacity: 0.2"/>
    </g>
   </g>
   <g id="matplotlib.axis_1">
    <g id="text_1">
     <text style="font: 10px 'Arial', sans-serif; text-anchor: middle" x="227.411283" y="296.533792" transform="rotate(-0 227.411283 296.533792)">Time</text>
    </g>
   </g>
   <g id="matplotlib.axis_2">
    <g id="ytick_1">
     <g id="line2d_1">
      <defs>
       <path id="m9e16805d6e" d="M 0 0 
L -3.5 0 
" style="stroke: #000000; stroke-width: 0.8"/>
      </defs>
      <g>
       <use xlink:href="#m9e16805d6e" x="48.851283" y="269.488649" style="stroke: #000000; stroke-width: 0.8"/>
      </g>
     </g>
     <g id="text_2">
      <text style="font: 10px 'Arial', sans-serif; text-anchor: end" x="41.851283" y="273.067555" transform="rotate(-0 41.851283 273.067555)">−0.4</text>
     </g>
    </g>
    <g id="ytick_2">
     <g id="line2d_2">
      <g>
       <use xlink:href="#m9e16805d6e" x="48.851283" y="221.834387" style="stroke: #000000; stroke-width: 0.8"/>
      </g>
     </g>
     <g id="text_3">
      <text style="font: 10px 'Arial', sans-serif; text-anchor: end" x="41.851283" y="225.413293" transform="rotate(-0 41.851283 225.413293)">−0.2</text>
     </g>
    </g>
    <g id="ytick_3">
     <g id="line2d_3">
      <g>
       <use xlink:href="#m9e16805d6e" x="48.851283" y="174.180125" style="stroke: #000000; stroke-width: 0.8"/>
      </g>
     </g>
     <g id="text_4">
      <text style="font: 10px 'Arial', sans-serif; text-anchor: end" x="41.851283" y="177.759031" transform="rotate(-0 41.851283 177.759031)">0.0</text>
     </g>
    </g>
    <g id="ytick_4">
     <g id="line2d_4">
      <g>
       <use xlink:href="#m9e16805d6e" x="48.851283" y="126.525863" style="stroke: #000000; stroke-width: 0.8"/>
      </g>
     </g>
     <g id="text_5">
      <text style="font: 10px 'Arial', sans-serif; text-anchor: end" x="41.851283" y="130.10477" transform="rotate(-0 41.851283 130.10477)">0.2</text>
     </g>
    </g>
    <g id="ytick_5">
     <g id="line2d_5">
      <g>
       <use xlink:href="#m9e16805d6e" x="48.851283" y="78.871602" style="stroke: #000000; stroke-width: 0.8"/>
      </g>
     </g>
     <g id="text_6">
      <text style="font: 10px 'Arial', sans-serif; text-anchor: end" x="41.851283" y="82.450508" transform="rotate(-0 41.851283 82.450508)">0.4</text>
     </g>
    </g>
    <g id="ytick_6">
     <g id="line2d_6">
      <g>
       <use xlink:href="#m9e16805d6e" x="48.851283" y="31.21734" style="stroke: #000000; stroke-width: 0.8"/>
      </g>
     </g>
     <g id="text_7">
      <text style="font: 10px 'Arial', sans-serif; text-anchor: end" x="41.851283" y="34.796246" transform="rotate(-0 41.851283 34.796246)">0.6</text>
     </g>
    </g>
    <g id="text_8">
     <text style="font: 10px 'Arial', sans-serif; text-anchor: middle" x="16.005971" y="152.31998" transform="rotate(-90 16.005971 152.31998)">Activity</text>
    </g>
   </g>
   <g id="line2d_7">
    <path d="M 48.851283 184.465346 
L 60.011283 188.45641 
L 71.171283 200.506538 
L 82.331283 232.608253 
L 93.491283 252.227226 
L 104.651283 250.459749 
L 115.811283 242.979252 
L 126.971283 232.607845 
L 138.131283 223.017815 
L 149.291283 198.011877 
L 160.451283 163.706068 
L 171.611283 144.235376 
L 182.771283 129.858547 
L 193.931283 97.086509 
L 205.091283 82.769083 
L 216.251283 75.459381 
L 227.411283 90.110456 
L 238.571283 98.475217 
L 249.731283 93.78442 
L 260.891283 104.061589 
L 272.051283 97.14973 
L 283.211283 89.359898 
L 294.371283 86.580225 
L 305.531283 88.629698 
L 316.691283 72.457253 
L 327.851283 87.757158 
L 339.011283 104.440316 
L 350.171283 125.168112 
L 361.331283 134.847914 
L 372.491283 150.791149 
L 383.651283 143.014612 
L 394.811283 120.803338 
L 405.971283 100.47646 
" clip-path="url(#pd18eacceb0)" style="fill: none; stroke: #1f77b4; stroke-width: 1.5; stroke-linecap: square"/>
   </g>
   <g id="line2d_8">
    <path d="M 48.851283 176.474015 
L 60.011283 189.291531 
L 71.171283 210.750068 
L 82.331283 239.262754 
L 93.491283 264.345922 
L 104.651283 263.004514 
L 115.811283 252.845925 
L 126.971283 242.648053 
L 138.131283 234.194842 
L 149.291283 208.929969 
L 160.451283 190.597381 
L 171.611283 161.695542 
L 182.771283 140.5212 
L 193.931283 117.103402 
L 205.091283 103.445368 
L 216.251283 90.617321 
L 227.411283 77.195791 
L 238.571283 60.815726 
L 249.731283 69.37061 
L 260.891283 88.737208 
L 272.051283 99.20063 
L 283.211283 105.893423 
L 294.371283 112.09831 
L 305.531283 101.316321 
L 316.691283 99.13709 
L 327.851283 109.116676 
L 339.011283 132.297807 
L 350.171283 142.06559 
L 361.331283 147.61263 
L 372.491283 155.39714 
L 383.651283 155.113992 
L 394.811283 142.081443 
L 405.971283 114.880451 
" clip-path="url(#pd18eacceb0)" style="fill: none; stroke: #ff7f0e; stroke-width: 1.5; stroke-linecap: square"/>
   </g>
   <g id="line2d_9">
    <path d="M 82.331283 285.37598 
L 82.331283 19.26398 
" clip-path="url(#pd18eacceb0)" style="fill: none; stroke-dasharray: 5.55,2.4; stroke-dashoffset: 0; stroke: #000000; stroke-opacity: 0.5; stroke-width: 1.5"/>
   </g>
   <g id="line2d_10">
    <path d="M 383.651283 285.37598 
L 383.651283 19.26398 
" clip-path="url(#pd18eacceb0)" style="fill: none; stroke-dasharray: 5.55,2.4; stroke-dashoffset: 0; stroke: #000000; stroke-opacity: 0.5; stroke-width: 1.5"/>
   </g>
   <g id="patch_3">
    <path d="M 48.851283 285.37598 
L 405.971283 285.37598 
" style="fill: none; stroke: #000000; stroke-width: 0.8; stroke-linejoin: miter; stroke-linecap: square"/>
   </g>
   <g id="text_9">
    <text style="font: 6.94px 'Arial', sans-serif" transform="translate(10.097767 321.385533) rotate(-35)">-0.1s Sampling</text>
   </g>
   <g id="text_10">
    <text style="font: 6.94px 'Arial', sans-serif" transform="translate(57.794497 311.430872) rotate(-35)">Sampling</text>
   </g>
   <g id="text_11">
    <text style="font: 6.94px 'Arial', sans-serif" transform="translate(319.037191 339.456682) rotate(-35)">Movement to Lateral Port</text>
   </g>
   <g id="text_12">
    <text style="font: 8.33px 'Arial', sans-serif; text-anchor: middle" x="227.411283" y="13.26398" transform="rotate(-0 227.411283 13.26398)">GP4_85_s9_L70_D250_ALM - Trace:5_GP4_85_s9_L70_D250_ALM (when: correct)</text>
   </g>
   <g id="legend_1">
    <g id="patch_4">
     <path d="M 133.696342 354.133136 
L 321.126224 354.133136 
Q 322.514224 354.133136 322.514224 352.745136 
L 322.514224 343.45638 
Q 322.514224 342.06838 321.126224 342.06838 
L 133.696342 342.06838 
Q 132.308342 342.06838 132.308342 343.45638 
L 132.308342 352.745136 
Q 132.308342 354.133136 133.696342 354.133136 
z
" style="fill: #ffffff; opacity: 0.8; stroke: #cccccc; stroke-linejoin: miter"/>
    </g>
    <g id="line2d_11">
     <path d="M 135.084342 347.467483 
L 142.024342 347.467483 
L 148.964342 347.467483 
" style="fill: none; stroke: #1f77b4; stroke-width: 1.5; stroke-linecap: square"/>
    </g>
    <g id="text_13">
     <text style="font: 6.94px 'Arial', sans-serif; text-anchor: start" x="154.516342" y="349.896483" transform="rotate(-0 154.516342 349.896483)">DecisionRight (94 pts)</text>
    </g>
    <g id="line2d_12">
     <path d="M 236.664255 347.467483 
L 243.604255 347.467483 
L 250.544255 347.467483 
" style="fill: none; stroke: #ff7f0e; stroke-width: 1.5; stroke-linecap: square"/>
    </g>
    <g id="text_14">
     <text style="font: 6.94px 'Arial', sans-serif; text-anchor: start" x="256.096255" y="349.896483" transform="rotate(-0 256.096255 349.896483)">DecisionLeft (95 pts)</text>
    </g>
   </g>
  </g>
 </g>
 <defs>
  <clipPath id="pd18eacceb0">
   <rect x="48.851283" y="19.26398" width="357.12" height="266.112"/>
  </clipPath>
 </defs>
</svg>
