<?xml version="1.0" encoding="utf-8" standalone="no"?>
<!DOCTYPE svg PUBLIC "-//W3C//DTD SVG 1.1//EN"
  "http://www.w3.org/Graphics/SVG/1.1/DTD/svg11.dtd">
<svg xmlns:xlink="http://www.w3.org/1999/xlink" width="413.171283pt" height="361.333136pt" viewBox="0 0 413.171283 361.333136" xmlns="http://www.w3.org/2000/svg" version="1.1">
 <metadata>
  <rdf:RDF xmlns:dc="http://purl.org/dc/elements/1.1/" xmlns:cc="http://creativecommons.org/ns#" xmlns:rdf="http://www.w3.org/1999/02/22-rdf-syntax-ns#">
   <cc:Work>
    <dc:type rdf:resource="http://purl.org/dc/dcmitype/StillImage"/>
    <dc:date>2025-12-29T04:08:05.921760</dc:date>
    <dc:format>image/svg+xml</dc:format>
    <dc:creator>
     <cc:Agent>
      <dc:title>Matplotlib v3.8.0, https://matplotlib.org/</dc:title>
     </cc:Agent>
    </dc:creator>
   </cc:Work>
  </rdf:RDF>
 </metadata>
 <defs>
  <style type="text/css">*{stroke-linejoin: round; stroke-linecap: butt}</style>
 </defs>
 <g id="figure_1">
  <g id="patch_1">
   <path d="M 0 361.333136 
L 413.171283 361.333136 
L 413.171283 -0 
L 0 -0 
z
" style="fill: #ffffff"/>
  </g>
  <g id="axes_1">
   <g id="patch_2">
    <path d="M 48.851283 285.37598 
L 405.971283 285.37598 
L 405.971283 19.26398 
L 48.851283 19.26398 
z
" style="fill: #ffffff"/>
   </g>
   <g id="PolyCollection_1">
    <defs>
     <path id="m094356576d" d="M 48.851283 -156.247665 
L 48.851283 -127.996353 
L 60.011283 -124.184603 
L 71.171283 -121.048948 
L 82.331283 -124.899898 
L 93.491283 -134.246677 
L 104.651283 -133.967321 
L 115.811283 -135.02648 
L 126.971283 -146.392037 
L 138.131283 -168.277693 
L 149.291283 -176.088683 
L 160.451283 -173.357385 
L 171.611283 -171.342202 
L 182.771283 -175.17522 
L 193.931283 -174.19843 
L 205.091283 -176.550716 
L 216.251283 -179.159541 
L 227.411283 -181.904998 
L 238.571283 -186.845172 
L 249.731283 -192.030368 
L 260.891283 -194.519541 
L 272.051283 -203.525485 
L 283.211283 -213.975253 
L 294.371283 -227.79966 
L 305.531283 -238.39806 
L 316.691283 -241.321436 
L 327.851283 -239.242576 
L 339.011283 -241.946144 
L 350.171283 -253.572656 
L 361.331283 -258.809739 
L 372.491283 -256.796514 
L 383.651283 -263.179194 
L 394.811283 -277.139714 
L 405.971283 -279.220723 
L 405.971283 -329.973156 
L 405.971283 -329.973156 
L 394.811283 -326.442694 
L 383.651283 -310.099662 
L 372.491283 -305.034117 
L 361.331283 -309.667735 
L 350.171283 -302.233236 
L 339.011283 -289.406529 
L 327.851283 -286.741451 
L 316.691283 -291.122465 
L 305.531283 -287.064608 
L 294.371283 -272.329724 
L 283.211283 -255.993631 
L 272.051283 -244.822626 
L 260.891283 -234.95926 
L 249.731283 -230.660866 
L 238.571283 -224.699244 
L 227.411283 -217.588651 
L 216.251283 -214.73301 
L 205.091283 -213.407267 
L 193.931283 -212.305357 
L 182.771283 -216.766259 
L 171.611283 -215.05506 
L 160.451283 -216.97902 
L 149.291283 -217.529764 
L 138.131283 -209.980282 
L 126.971283 -185.64187 
L 115.811283 -174.461738 
L 104.651283 -172.334227 
L 93.491283 -169.666716 
L 82.331283 -156.083648 
L 71.171283 -151.794798 
L 60.011283 -153.98415 
L 48.851283 -156.247665 
z
" style="stroke: #1f77b4; stroke-opacity: 0.2"/>
    </defs>
    <g clip-path="url(#p450226c8cb)">
     <use xlink:href="#m094356576d" x="0" y="361.333136" style="fill: #1f77b4; fill-opacity: 0.2; stroke: #1f77b4; stroke-opacity: 0.2"/>
    </g>
   </g>
   <g id="PolyCollection_2">
    <defs>
     <path id="m545bbcce8d" d="M 48.851283 -131.46013 
L 48.851283 -110.227842 
L 60.011283 -108.902708 
L 71.171283 -99.284797 
L 82.331283 -88.053156 
L 93.491283 -89.707954 
L 104.651283 -96.943582 
L 115.811283 -108.835047 
L 126.971283 -114.063592 
L 138.131283 -116.312834 
L 149.291283 -113.827665 
L 160.451283 -118.910022 
L 171.611283 -122.401135 
L 182.771283 -127.52152 
L 193.931283 -132.257361 
L 205.091283 -137.027366 
L 216.251283 -132.168354 
L 227.411283 -126.433845 
L 238.571283 -121.679917 
L 249.731283 -132.131227 
L 260.891283 -141.506416 
L 272.051283 -150.553356 
L 283.211283 -155.072734 
L 294.371283 -158.341855 
L 305.531283 -161.789338 
L 316.691283 -160.148329 
L 327.851283 -164.221432 
L 339.011283 -156.945691 
L 350.171283 -157.934302 
L 361.331283 -152.632461 
L 372.491283 -146.793604 
L 383.651283 -128.337169 
L 394.811283 -120.089834 
L 405.971283 -121.373024 
L 405.971283 -149.891035 
L 405.971283 -149.891035 
L 394.811283 -149.631134 
L 383.651283 -160.096394 
L 372.491283 -182.340006 
L 361.331283 -190.449299 
L 350.171283 -194.616138 
L 339.011283 -193.851665 
L 327.851283 -200.41677 
L 316.691283 -194.184387 
L 305.531283 -193.763062 
L 294.371283 -192.474223 
L 283.211283 -189.77614 
L 272.051283 -182.161701 
L 260.891283 -172.735346 
L 249.731283 -159.694577 
L 238.571283 -147.119454 
L 227.411283 -153.414457 
L 216.251283 -159.721327 
L 205.091283 -164.232255 
L 193.931283 -158.367697 
L 182.771283 -151.723475 
L 171.611283 -146.487915 
L 160.451283 -140.706112 
L 149.291283 -135.265715 
L 138.131283 -138.402247 
L 126.971283 -136.255379 
L 115.811283 -132.038029 
L 104.651283 -118.706072 
L 93.491283 -109.42473 
L 82.331283 -107.243863 
L 71.171283 -118.39244 
L 60.011283 -128.676836 
L 48.851283 -131.46013 
z
" style="stroke: #ff7f0e; stroke-opacity: 0.2"/>
    </defs>
    <g clip-path="url(#p450226c8cb)">
     <use xlink:href="#m545bbcce8d" x="0" y="361.333136" style="fill: #ff7f0e; fill-opacity: 0.2; stroke: #ff7f0e; stroke-opacity: 0.2"/>
    </g>
   </g>
   <g id="matplotlib.axis_1">
    <g id="text_1">
     <text style="font: 10px 'Arial', sans-serif; text-anchor: middle" x="227.411283" y="296.533792" transform="rotate(-0 227.411283 296.533792)">Time</text>
    </g>
   </g>
   <g id="matplotlib.axis_2">
    <g id="ytick_1">
     <g id="line2d_1">
      <defs>
       <path id="mb588a2ec7b" d="M 0 0 
L -3.5 0 
" style="stroke: #000000; stroke-width: 0.8"/>
      </defs>
      <g>
       <use xlink:href="#mb588a2ec7b" x="48.851283" y="272.921107" style="stroke: #000000; stroke-width: 0.8"/>
      </g>
     </g>
     <g id="text_2">
      <text style="font: 10px 'Arial', sans-serif; text-anchor: end" x="41.851283" y="276.500013" transform="rotate(-0 41.851283 276.500013)">−0.4</text>
     </g>
    </g>
    <g id="ytick_2">
     <g id="line2d_2">
      <g>
       <use xlink:href="#mb588a2ec7b" x="48.851283" y="237.040951" style="stroke: #000000; stroke-width: 0.8"/>
      </g>
     </g>
     <g id="text_3">
      <text style="font: 10px 'Arial', sans-serif; text-anchor: end" x="41.851283" y="240.619857" transform="rotate(-0 41.851283 240.619857)">−0.2</text>
     </g>
    </g>
    <g id="ytick_3">
     <g id="line2d_3">
      <g>
       <use xlink:href="#mb588a2ec7b" x="48.851283" y="201.160796" style="stroke: #000000; stroke-width: 0.8"/>
      </g>
     </g>
     <g id="text_4">
      <text style="font: 10px 'Arial', sans-serif; text-anchor: end" x="41.851283" y="204.739702" transform="rotate(-0 41.851283 204.739702)">0.0</text>
     </g>
    </g>
    <g id="ytick_4">
     <g id="line2d_4">
      <g>
       <use xlink:href="#mb588a2ec7b" x="48.851283" y="165.28064" style="stroke: #000000; stroke-width: 0.8"/>
      </g>
     </g>
     <g id="text_5">
      <text style="font: 10px 'Arial', sans-serif; text-anchor: end" x="41.851283" y="168.859546" transform="rotate(-0 41.851283 168.859546)">0.2</text>
     </g>
    </g>
    <g id="ytick_5">
     <g id="line2d_5">
      <g>
       <use xlink:href="#mb588a2ec7b" x="48.851283" y="129.400484" style="stroke: #000000; stroke-width: 0.8"/>
      </g>
     </g>
     <g id="text_6">
      <text style="font: 10px 'Arial', sans-serif; text-anchor: end" x="41.851283" y="132.979391" transform="rotate(-0 41.851283 132.979391)">0.4</text>
     </g>
    </g>
    <g id="ytick_6">
     <g id="line2d_6">
      <g>
       <use xlink:href="#mb588a2ec7b" x="48.851283" y="93.520329" style="stroke: #000000; stroke-width: 0.8"/>
      </g>
     </g>
     <g id="text_7">
      <text style="font: 10px 'Arial', sans-serif; text-anchor: end" x="41.851283" y="97.099235" transform="rotate(-0 41.851283 97.099235)">0.6</text>
     </g>
    </g>
    <g id="ytick_7">
     <g id="line2d_7">
      <g>
       <use xlink:href="#mb588a2ec7b" x="48.851283" y="57.640173" style="stroke: #000000; stroke-width: 0.8"/>
      </g>
     </g>
     <g id="text_8">
      <text style="font: 10px 'Arial', sans-serif; text-anchor: end" x="41.851283" y="61.21908" transform="rotate(-0 41.851283 61.21908)">0.8</text>
     </g>
    </g>
    <g id="ytick_8">
     <g id="line2d_8">
      <g>
       <use xlink:href="#mb588a2ec7b" x="48.851283" y="21.760018" style="stroke: #000000; stroke-width: 0.8"/>
      </g>
     </g>
     <g id="text_9">
      <text style="font: 10px 'Arial', sans-serif; text-anchor: end" x="41.851283" y="25.338924" transform="rotate(-0 41.851283 25.338924)">1.0</text>
     </g>
    </g>
    <g id="text_10">
     <text style="font: 10px 'Arial', sans-serif; text-anchor: middle" x="16.005971" y="152.31998" transform="rotate(-90 16.005971 152.31998)">Activity</text>
    </g>
   </g>
   <g id="line2d_9">
    <path d="M 48.851283 219.211128 
L 60.011283 222.248758 
L 71.171283 224.911262 
L 82.331283 220.841363 
L 93.491283 209.37644 
L 104.651283 208.182362 
L 115.811283 206.589027 
L 126.971283 195.316183 
L 138.131283 172.204148 
L 149.291283 164.523914 
L 160.451283 166.164934 
L 171.611283 168.134505 
L 182.771283 165.362396 
L 193.931283 168.081242 
L 205.091283 166.354146 
L 216.251283 164.38686 
L 227.411283 161.586311 
L 238.571283 155.560928 
L 249.731283 149.987519 
L 260.891283 146.593737 
L 272.051283 137.15908 
L 283.211283 126.348694 
L 294.371283 111.268444 
L 305.531283 98.601802 
L 316.691283 95.111183 
L 327.851283 98.341125 
L 339.011283 95.656799 
L 350.171283 83.43019 
L 361.331283 77.094399 
L 372.491283 80.417821 
L 383.651283 74.693708 
L 394.811283 59.541932 
L 405.971283 56.736196 
" clip-path="url(#p450226c8cb)" style="fill: none; stroke: #1f77b4; stroke-width: 1.5; stroke-linecap: square"/>
   </g>
   <g id="line2d_10">
    <path d="M 48.851283 240.489151 
L 60.011283 242.543364 
L 71.171283 252.494517 
L 82.331283 263.684626 
L 93.491283 261.766794 
L 104.651283 253.508311 
L 115.811283 240.896597 
L 126.971283 236.173649 
L 138.131283 233.975595 
L 149.291283 236.786445 
L 160.451283 231.525069 
L 171.611283 226.88861 
L 182.771283 221.710639 
L 193.931283 216.020607 
L 205.091283 210.703325 
L 216.251283 215.388296 
L 227.411283 221.408985 
L 238.571283 226.933452 
L 249.731283 215.420234 
L 260.891283 204.212255 
L 272.051283 194.975607 
L 283.211283 188.908699 
L 294.371283 185.925097 
L 305.531283 183.556936 
L 316.691283 184.166778 
L 327.851283 179.014035 
L 339.011283 185.934458 
L 350.171283 185.057916 
L 361.331283 189.792256 
L 372.491283 196.766332 
L 383.651283 217.116355 
L 394.811283 226.472653 
L 405.971283 225.701107 
" clip-path="url(#p450226c8cb)" style="fill: none; stroke: #ff7f0e; stroke-width: 1.5; stroke-linecap: square"/>
   </g>
   <g id="line2d_11">
    <path d="M 82.331283 285.37598 
L 82.331283 19.26398 
" clip-path="url(#p450226c8cb)" style="fill: none; stroke-dasharray: 5.55,2.4; stroke-dashoffset: 0; stroke: #000000; stroke-opacity: 0.5; stroke-width: 1.5"/>
   </g>
   <g id="line2d_12">
    <path d="M 383.651283 285.37598 
L 383.651283 19.26398 
" clip-path="url(#p450226c8cb)" style="fill: none; stroke-dasharray: 5.55,2.4; stroke-dashoffset: 0; stroke: #000000; stroke-opacity: 0.5; stroke-width: 1.5"/>
   </g>
   <g id="patch_3">
    <path d="M 48.851283 285.37598 
L 405.971283 285.37598 
" style="fill: none; stroke: #000000; stroke-width: 0.8; stroke-linejoin: miter; stroke-linecap: square"/>
   </g>
   <g id="text_11">
    <text style="font: 6.94px 'Arial', sans-serif" transform="translate(10.097767 321.385533) rotate(-35)">-0.1s Sampling</text>
   </g>
   <g id="text_12">
    <text style="font: 6.94px 'Arial', sans-serif" transform="translate(57.794497 311.430872) rotate(-35)">Sampling</text>
   </g>
   <g id="text_13">
    <text style="font: 6.94px 'Arial', sans-serif" transform="translate(319.037191 339.456682) rotate(-35)">Movement to Lateral Port</text>
   </g>
   <g id="text_14">
    <text style="font: 8.33px 'Arial', sans-serif; text-anchor: middle" x="227.411283" y="13.26398" transform="rotate(-0 227.411283 13.26398)">GP4_85_s9_L70_D250_ALM - Trace:64_GP4_85_s9_L70_D250_ALM (when: correct)</text>
   </g>
   <g id="legend_1">
    <g id="patch_4">
     <path d="M 133.696342 354.133136 
L 321.126224 354.133136 
Q 322.514224 354.133136 322.514224 352.745136 
L 322.514224 343.45638 
Q 322.514224 342.06838 321.126224 342.06838 
L 133.696342 342.06838 
Q 132.308342 342.06838 132.308342 343.45638 
L 132.308342 352.745136 
Q 132.308342 354.133136 133.696342 354.133136 
z
" style="fill: #ffffff; opacity: 0.8; stroke: #cccccc; stroke-linejoin: miter"/>
    </g>
    <g id="line2d_13">
     <path d="M 135.084342 347.467483 
L 142.024342 347.467483 
L 148.964342 347.467483 
" style="fill: none; stroke: #1f77b4; stroke-width: 1.5; stroke-linecap: square"/>
    </g>
    <g id="text_15">
     <text style="font: 6.94px 'Arial', sans-serif; text-anchor: start" x="154.516342" y="349.896483" transform="rotate(-0 154.516342 349.896483)">DecisionRight (94 pts)</text>
    </g>
    <g id="line2d_14">
     <path d="M 236.664255 347.467483 
L 243.604255 347.467483 
L 250.544255 347.467483 
" style="fill: none; stroke: #ff7f0e; stroke-width: 1.5; stroke-linecap: square"/>
    </g>
    <g id="text_16">
     <text style="font: 6.94px 'Arial', sans-serif; text-anchor: start" x="256.096255" y="349.896483" transform="rotate(-0 256.096255 349.896483)">DecisionLeft (95 pts)</text>
    </g>
   </g>
  </g>
 </g>
 <defs>
  <clipPath id="p450226c8cb">
   <rect x="48.851283" y="19.26398" width="357.12" height="266.112"/>
  </clipPath>
 </defs>
</svg>
