<?xml version="1.0" encoding="utf-8" standalone="no"?>
<!DOCTYPE svg PUBLIC "-//W3C//DTD SVG 1.1//EN"
  "http://www.w3.org/Graphics/SVG/1.1/DTD/svg11.dtd">
<svg xmlns:xlink="http://www.w3.org/1999/xlink" width="413.171283pt" height="361.333136pt" viewBox="0 0 413.171283 361.333136" xmlns="http://www.w3.org/2000/svg" version="1.1">
 <metadata>
  <rdf:RDF xmlns:dc="http://purl.org/dc/elements/1.1/" xmlns:cc="http://creativecommons.org/ns#" xmlns:rdf="http://www.w3.org/1999/02/22-rdf-syntax-ns#">
   <cc:Work>
    <dc:type rdf:resource="http://purl.org/dc/dcmitype/StillImage"/>
    <dc:date>2025-12-29T04:08:03.757220</dc:date>
    <dc:format>image/svg+xml</dc:format>
    <dc:creator>
     <cc:Agent>
      <dc:title>Matplotlib v3.8.0, https://matplotlib.org/</dc:title>
     </cc:Agent>
    </dc:creator>
   </cc:Work>
  </rdf:RDF>
 </metadata>
 <defs>
  <style type="text/css">*{stroke-linejoin: round; stroke-linecap: butt}</style>
 </defs>
 <g id="figure_1">
  <g id="patch_1">
   <path d="M 0 361.333136 
L 413.171283 361.333136 
L 413.171283 -0 
L 0 -0 
z
" style="fill: #ffffff"/>
  </g>
  <g id="axes_1">
   <g id="patch_2">
    <path d="M 48.851283 285.37598 
L 405.971283 285.37598 
L 405.971283 19.26398 
L 48.851283 19.26398 
z
" style="fill: #ffffff"/>
   </g>
   <g id="PolyCollection_1">
    <defs>
     <path id="m55c3bb9d51" d="M 48.851283 -124.020467 
L 48.851283 -102.610327 
L 60.011283 -96.559282 
L 71.171283 -88.053156 
L 82.331283 -88.91249 
L 93.491283 -115.151066 
L 104.651283 -145.001005 
L 115.811283 -164.604373 
L 126.971283 -169.734809 
L 138.131283 -195.18197 
L 149.291283 -218.378447 
L 160.451283 -233.828578 
L 171.611283 -248.236074 
L 182.771283 -268.801519 
L 193.931283 -273.66406 
L 205.091283 -262.88806 
L 216.251283 -242.992583 
L 227.411283 -240.816645 
L 238.571283 -245.569107 
L 249.731283 -233.169685 
L 260.891283 -229.990594 
L 272.051283 -224.591803 
L 283.211283 -224.04331 
L 294.371283 -225.508423 
L 305.531283 -206.907583 
L 316.691283 -206.036851 
L 327.851283 -205.584715 
L 339.011283 -194.233128 
L 350.171283 -177.687139 
L 361.331283 -165.656024 
L 372.491283 -166.111935 
L 383.651283 -183.767769 
L 394.811283 -189.91634 
L 405.971283 -188.710608 
L 405.971283 -230.023489 
L 405.971283 -230.023489 
L 394.811283 -231.188715 
L 383.651283 -224.778633 
L 372.491283 -206.6445 
L 361.331283 -205.16977 
L 350.171283 -217.482582 
L 339.011283 -234.382127 
L 327.851283 -247.387125 
L 316.691283 -249.839134 
L 305.531283 -252.12116 
L 294.371283 -273.510694 
L 283.211283 -273.740852 
L 272.051283 -274.674896 
L 260.891283 -281.222026 
L 249.731283 -284.271049 
L 238.571283 -296.721224 
L 227.411283 -290.496835 
L 216.251283 -294.45288 
L 205.091283 -316.961913 
L 193.931283 -329.973156 
L 182.771283 -324.763377 
L 171.611283 -304.655031 
L 160.451283 -286.935461 
L 149.291283 -267.283853 
L 138.131283 -236.981867 
L 126.971283 -209.070507 
L 115.811283 -199.442127 
L 104.651283 -175.655044 
L 93.491283 -136.353886 
L 82.331283 -106.638658 
L 71.171283 -107.782708 
L 60.011283 -116.925118 
L 48.851283 -124.020467 
z
" style="stroke: #1f77b4; stroke-opacity: 0.2"/>
    </defs>
    <g clip-path="url(#p455d81839d)">
     <use xlink:href="#m55c3bb9d51" x="0" y="361.333136" style="fill: #1f77b4; fill-opacity: 0.2; stroke: #1f77b4; stroke-opacity: 0.2"/>
    </g>
   </g>
   <g id="PolyCollection_2">
    <defs>
     <path id="mc1df8e2fb1" d="M 48.851283 -120.115765 
L 48.851283 -101.231289 
L 60.011283 -105.6421 
L 71.171283 -105.629321 
L 82.331283 -100.990907 
L 93.491283 -122.939428 
L 104.651283 -146.255982 
L 115.811283 -177.170538 
L 126.971283 -194.193533 
L 138.131283 -197.28653 
L 149.291283 -206.160027 
L 160.451283 -234.519465 
L 171.611283 -231.269653 
L 182.771283 -226.903942 
L 193.931283 -212.734013 
L 205.091283 -199.543825 
L 216.251283 -200.986932 
L 227.411283 -213.722342 
L 238.571283 -210.941977 
L 249.731283 -194.299755 
L 260.891283 -177.897132 
L 272.051283 -168.338849 
L 283.211283 -180.164422 
L 294.371283 -182.549427 
L 305.531283 -178.922735 
L 316.691283 -176.849876 
L 327.851283 -164.374217 
L 339.011283 -150.591337 
L 350.171283 -135.759774 
L 361.331283 -127.884755 
L 372.491283 -128.688905 
L 383.651283 -119.181415 
L 394.811283 -119.536741 
L 405.971283 -123.974667 
L 405.971283 -153.730842 
L 405.971283 -153.730842 
L 394.811283 -150.11302 
L 383.651283 -151.140826 
L 372.491283 -160.805197 
L 361.331283 -160.873093 
L 350.171283 -169.973977 
L 339.011283 -184.61024 
L 327.851283 -199.306646 
L 316.691283 -214.431688 
L 305.531283 -219.322874 
L 294.371283 -223.814031 
L 283.211283 -222.913151 
L 272.051283 -212.327682 
L 260.891283 -222.746403 
L 249.731283 -243.562771 
L 238.571283 -264.016989 
L 227.411283 -263.57477 
L 216.251283 -249.025645 
L 205.091283 -248.00939 
L 193.931283 -259.459702 
L 182.771283 -269.700404 
L 171.611283 -273.67316 
L 160.451283 -278.034994 
L 149.291283 -246.744467 
L 138.131283 -239.460205 
L 126.971283 -237.912654 
L 115.811283 -219.775538 
L 104.651283 -182.296592 
L 93.491283 -155.374522 
L 82.331283 -125.776814 
L 71.171283 -128.693618 
L 60.011283 -126.279635 
L 48.851283 -120.115765 
z
" style="stroke: #ff7f0e; stroke-opacity: 0.2"/>
    </defs>
    <g clip-path="url(#p455d81839d)">
     <use xlink:href="#mc1df8e2fb1" x="0" y="361.333136" style="fill: #ff7f0e; fill-opacity: 0.2; stroke: #ff7f0e; stroke-opacity: 0.2"/>
    </g>
   </g>
   <g id="matplotlib.axis_1">
    <g id="text_1">
     <text style="font: 10px 'Arial', sans-serif; text-anchor: middle" x="227.411283" y="296.533792" transform="rotate(-0 227.411283 296.533792)">Time</text>
    </g>
   </g>
   <g id="matplotlib.axis_2">
    <g id="ytick_1">
     <g id="line2d_1">
      <defs>
       <path id="mee9f93f315" d="M 0 0 
L -3.5 0 
" style="stroke: #000000; stroke-width: 0.8"/>
      </defs>
      <g>
       <use xlink:href="#mee9f93f315" x="48.851283" y="264.31383" style="stroke: #000000; stroke-width: 0.8"/>
      </g>
     </g>
     <g id="text_2">
      <text style="font: 10px 'Arial', sans-serif; text-anchor: end" x="41.851283" y="267.892736" transform="rotate(-0 41.851283 267.892736)">−0.2</text>
     </g>
    </g>
    <g id="ytick_2">
     <g id="line2d_2">
      <g>
       <use xlink:href="#mee9f93f315" x="48.851283" y="229.615438" style="stroke: #000000; stroke-width: 0.8"/>
      </g>
     </g>
     <g id="text_3">
      <text style="font: 10px 'Arial', sans-serif; text-anchor: end" x="41.851283" y="233.194344" transform="rotate(-0 41.851283 233.194344)">0.0</text>
     </g>
    </g>
    <g id="ytick_3">
     <g id="line2d_3">
      <g>
       <use xlink:href="#mee9f93f315" x="48.851283" y="194.917046" style="stroke: #000000; stroke-width: 0.8"/>
      </g>
     </g>
     <g id="text_4">
      <text style="font: 10px 'Arial', sans-serif; text-anchor: end" x="41.851283" y="198.495952" transform="rotate(-0 41.851283 198.495952)">0.2</text>
     </g>
    </g>
    <g id="ytick_4">
     <g id="line2d_4">
      <g>
       <use xlink:href="#mee9f93f315" x="48.851283" y="160.218654" style="stroke: #000000; stroke-width: 0.8"/>
      </g>
     </g>
     <g id="text_5">
      <text style="font: 10px 'Arial', sans-serif; text-anchor: end" x="41.851283" y="163.797561" transform="rotate(-0 41.851283 163.797561)">0.4</text>
     </g>
    </g>
    <g id="ytick_5">
     <g id="line2d_5">
      <g>
       <use xlink:href="#mee9f93f315" x="48.851283" y="125.520263" style="stroke: #000000; stroke-width: 0.8"/>
      </g>
     </g>
     <g id="text_6">
      <text style="font: 10px 'Arial', sans-serif; text-anchor: end" x="41.851283" y="129.099169" transform="rotate(-0 41.851283 129.099169)">0.6</text>
     </g>
    </g>
    <g id="ytick_6">
     <g id="line2d_6">
      <g>
       <use xlink:href="#mee9f93f315" x="48.851283" y="90.821871" style="stroke: #000000; stroke-width: 0.8"/>
      </g>
     </g>
     <g id="text_7">
      <text style="font: 10px 'Arial', sans-serif; text-anchor: end" x="41.851283" y="94.400777" transform="rotate(-0 41.851283 94.400777)">0.8</text>
     </g>
    </g>
    <g id="ytick_7">
     <g id="line2d_7">
      <g>
       <use xlink:href="#mee9f93f315" x="48.851283" y="56.123479" style="stroke: #000000; stroke-width: 0.8"/>
      </g>
     </g>
     <g id="text_8">
      <text style="font: 10px 'Arial', sans-serif; text-anchor: end" x="41.851283" y="59.702386" transform="rotate(-0 41.851283 59.702386)">1.0</text>
     </g>
    </g>
    <g id="ytick_8">
     <g id="line2d_8">
      <g>
       <use xlink:href="#mee9f93f315" x="48.851283" y="21.425088" style="stroke: #000000; stroke-width: 0.8"/>
      </g>
     </g>
     <g id="text_9">
      <text style="font: 10px 'Arial', sans-serif; text-anchor: end" x="41.851283" y="25.003994" transform="rotate(-0 41.851283 25.003994)">1.2</text>
     </g>
    </g>
    <g id="text_10">
     <text style="font: 10px 'Arial', sans-serif; text-anchor: middle" x="16.005971" y="152.31998" transform="rotate(-90 16.005971 152.31998)">Activity</text>
    </g>
   </g>
   <g id="line2d_9">
    <path d="M 48.851283 248.017739 
L 60.011283 254.590937 
L 71.171283 263.415204 
L 82.331283 263.557562 
L 93.491283 235.58066 
L 104.651283 201.005111 
L 115.811283 179.309886 
L 126.971283 171.930477 
L 138.131283 145.251217 
L 149.291283 118.501985 
L 160.451283 100.951117 
L 171.611283 84.887583 
L 182.771283 64.550683 
L 193.931283 59.514528 
L 205.091283 71.408155 
L 216.251283 92.610405 
L 227.411283 95.676396 
L 238.571283 90.18797 
L 249.731283 102.612769 
L 260.891283 105.726825 
L 272.051283 111.699786 
L 283.211283 112.441055 
L 294.371283 111.823577 
L 305.531283 131.818762 
L 316.691283 133.395143 
L 327.851283 134.847216 
L 339.011283 147.025508 
L 350.171283 163.748275 
L 361.331283 175.920239 
L 372.491283 174.954918 
L 383.651283 157.059935 
L 394.811283 150.780609 
L 405.971283 151.966087 
" clip-path="url(#p455d81839d)" style="fill: none; stroke: #1f77b4; stroke-width: 1.5; stroke-linecap: square"/>
   </g>
   <g id="line2d_10">
    <path d="M 48.851283 250.659609 
L 60.011283 245.372268 
L 71.171283 244.171666 
L 82.331283 247.949276 
L 93.491283 222.176161 
L 104.651283 197.05685 
L 115.811283 162.860098 
L 126.971283 145.280042 
L 138.131283 142.959766 
L 149.291283 134.880886 
L 160.451283 105.055906 
L 171.611283 108.861729 
L 182.771283 113.030963 
L 193.931283 125.236276 
L 205.091283 137.556528 
L 216.251283 136.326847 
L 227.411283 122.68458 
L 238.571283 123.853653 
L 249.731283 142.401873 
L 260.891283 161.011368 
L 272.051283 170.999871 
L 283.211283 159.79435 
L 294.371283 158.151404 
L 305.531283 162.210331 
L 316.691283 165.692354 
L 327.851283 179.492703 
L 339.011283 193.732348 
L 350.171283 208.46626 
L 361.331283 216.954213 
L 372.491283 216.586085 
L 383.651283 226.172015 
L 394.811283 226.508255 
L 405.971283 222.480381 
" clip-path="url(#p455d81839d)" style="fill: none; stroke: #ff7f0e; stroke-width: 1.5; stroke-linecap: square"/>
   </g>
   <g id="line2d_11">
    <path d="M 82.331283 285.37598 
L 82.331283 19.26398 
" clip-path="url(#p455d81839d)" style="fill: none; stroke-dasharray: 5.55,2.4; stroke-dashoffset: 0; stroke: #000000; stroke-opacity: 0.5; stroke-width: 1.5"/>
   </g>
   <g id="line2d_12">
    <path d="M 383.651283 285.37598 
L 383.651283 19.26398 
" clip-path="url(#p455d81839d)" style="fill: none; stroke-dasharray: 5.55,2.4; stroke-dashoffset: 0; stroke: #000000; stroke-opacity: 0.5; stroke-width: 1.5"/>
   </g>
   <g id="patch_3">
    <path d="M 48.851283 285.37598 
L 405.971283 285.37598 
" style="fill: none; stroke: #000000; stroke-width: 0.8; stroke-linejoin: miter; stroke-linecap: square"/>
   </g>
   <g id="text_11">
    <text style="font: 6.94px 'Arial', sans-serif" transform="translate(10.097767 321.385533) rotate(-35)">-0.1s Sampling</text>
   </g>
   <g id="text_12">
    <text style="font: 6.94px 'Arial', sans-serif" transform="translate(57.794497 311.430872) rotate(-35)">Sampling</text>
   </g>
   <g id="text_13">
    <text style="font: 6.94px 'Arial', sans-serif" transform="translate(319.037191 339.456682) rotate(-35)">Movement to Lateral Port</text>
   </g>
   <g id="text_14">
    <text style="font: 8.33px 'Arial', sans-serif; text-anchor: middle" x="227.411283" y="13.26398" transform="rotate(-0 227.411283 13.26398)">GP4_85_s9_L70_D250_ALM - Trace:70_GP4_85_s9_L70_D250_ALM (when: correct)</text>
   </g>
   <g id="legend_1">
    <g id="patch_4">
     <path d="M 133.696342 354.133136 
L 321.126224 354.133136 
Q 322.514224 354.133136 322.514224 352.745136 
L 322.514224 343.45638 
Q 322.514224 342.06838 321.126224 342.06838 
L 133.696342 342.06838 
Q 132.308342 342.06838 132.308342 343.45638 
L 132.308342 352.745136 
Q 132.308342 354.133136 133.696342 354.133136 
z
" style="fill: #ffffff; opacity: 0.8; stroke: #cccccc; stroke-linejoin: miter"/>
    </g>
    <g id="line2d_13">
     <path d="M 135.084342 347.467483 
L 142.024342 347.467483 
L 148.964342 347.467483 
" style="fill: none; stroke: #1f77b4; stroke-width: 1.5; stroke-linecap: square"/>
    </g>
    <g id="text_15">
     <text style="font: 6.94px 'Arial', sans-serif; text-anchor: start" x="154.516342" y="349.896483" transform="rotate(-0 154.516342 349.896483)">DecisionRight (94 pts)</text>
    </g>
    <g id="line2d_14">
     <path d="M 236.664255 347.467483 
L 243.604255 347.467483 
L 250.544255 347.467483 
" style="fill: none; stroke: #ff7f0e; stroke-width: 1.5; stroke-linecap: square"/>
    </g>
    <g id="text_16">
     <text style="font: 6.94px 'Arial', sans-serif; text-anchor: start" x="256.096255" y="349.896483" transform="rotate(-0 256.096255 349.896483)">DecisionLeft (95 pts)</text>
    </g>
   </g>
  </g>
 </g>
 <defs>
  <clipPath id="p455d81839d">
   <rect x="48.851283" y="19.26398" width="357.12" height="266.112"/>
  </clipPath>
 </defs>
</svg>
