<?xml version="1.0" encoding="utf-8" standalone="no"?>
<!DOCTYPE svg PUBLIC "-//W3C//DTD SVG 1.1//EN"
  "http://www.w3.org/Graphics/SVG/1.1/DTD/svg11.dtd">
<svg xmlns:xlink="http://www.w3.org/1999/xlink" width="413.171283pt" height="361.333136pt" viewBox="0 0 413.171283 361.333136" xmlns="http://www.w3.org/2000/svg" version="1.1">
 <metadata>
  <rdf:RDF xmlns:dc="http://purl.org/dc/elements/1.1/" xmlns:cc="http://creativecommons.org/ns#" xmlns:rdf="http://www.w3.org/1999/02/22-rdf-syntax-ns#">
   <cc:Work>
    <dc:type rdf:resource="http://purl.org/dc/dcmitype/StillImage"/>
    <dc:date>2025-12-29T04:08:03.271858</dc:date>
    <dc:format>image/svg+xml</dc:format>
    <dc:creator>
     <cc:Agent>
      <dc:title>Matplotlib v3.8.0, https://matplotlib.org/</dc:title>
     </cc:Agent>
    </dc:creator>
   </cc:Work>
  </rdf:RDF>
 </metadata>
 <defs>
  <style type="text/css">*{stroke-linejoin: round; stroke-linecap: butt}</style>
 </defs>
 <g id="figure_1">
  <g id="patch_1">
   <path d="M 0 361.333136 
L 413.171283 361.333136 
L 413.171283 -0 
L 0 -0 
z
" style="fill: #ffffff"/>
  </g>
  <g id="axes_1">
   <g id="patch_2">
    <path d="M 48.851283 285.37598 
L 405.971283 285.37598 
L 405.971283 19.26398 
L 48.851283 19.26398 
z
" style="fill: #ffffff"/>
   </g>
   <g id="PolyCollection_1">
    <defs>
     <path id="m8cc992434b" d="M 48.851283 -249.636205 
L 48.851283 -200.959845 
L 60.011283 -205.677072 
L 71.171283 -192.599897 
L 82.331283 -163.7994 
L 93.491283 -111.846375 
L 104.651283 -88.053156 
L 115.811283 -109.906336 
L 126.971283 -128.568266 
L 138.131283 -136.661834 
L 149.291283 -123.971158 
L 160.451283 -124.326397 
L 171.611283 -134.533671 
L 182.771283 -134.521419 
L 193.931283 -137.369373 
L 205.091283 -136.881442 
L 216.251283 -147.957316 
L 227.411283 -127.374846 
L 238.571283 -107.711008 
L 249.731283 -115.618951 
L 260.891283 -134.623179 
L 272.051283 -129.875448 
L 283.211283 -136.231454 
L 294.371283 -128.022131 
L 305.531283 -135.806998 
L 316.691283 -137.467821 
L 327.851283 -140.261439 
L 339.011283 -118.734651 
L 350.171283 -127.772781 
L 361.331283 -142.83009 
L 372.491283 -175.561515 
L 383.651283 -205.966977 
L 394.811283 -205.828584 
L 405.971283 -199.612639 
L 405.971283 -238.134884 
L 405.971283 -238.134884 
L 394.811283 -250.017397 
L 383.651283 -253.12466 
L 372.491283 -221.591665 
L 361.331283 -184.288575 
L 350.171283 -168.392667 
L 339.011283 -168.498907 
L 327.851283 -191.73694 
L 316.691283 -184.904641 
L 305.531283 -184.596719 
L 294.371283 -175.528064 
L 283.211283 -181.579405 
L 272.051283 -176.057253 
L 260.891283 -182.483656 
L 249.731283 -164.047728 
L 238.571283 -155.881327 
L 227.411283 -173.481828 
L 216.251283 -189.280805 
L 205.091283 -174.605797 
L 193.931283 -171.878716 
L 182.771283 -169.869049 
L 171.611283 -173.404283 
L 160.451283 -161.340754 
L 149.291283 -159.760081 
L 138.131283 -171.215785 
L 126.971283 -162.097614 
L 115.811283 -140.753418 
L 104.651283 -116.41655 
L 93.491283 -141.350983 
L 82.331283 -202.296175 
L 71.171283 -238.843514 
L 60.011283 -252.551828 
L 48.851283 -249.636205 
z
" style="stroke: #1f77b4; stroke-opacity: 0.2"/>
    </defs>
    <g clip-path="url(#p2a93879e61)">
     <use xlink:href="#m8cc992434b" x="0" y="361.333136" style="fill: #1f77b4; fill-opacity: 0.2; stroke: #1f77b4; stroke-opacity: 0.2"/>
    </g>
   </g>
   <g id="PolyCollection_2">
    <defs>
     <path id="m49a044a939" d="M 48.851283 -324.499456 
L 48.851283 -247.841406 
L 60.011283 -237.602907 
L 71.171283 -236.997861 
L 82.331283 -202.591028 
L 93.491283 -153.887238 
L 104.651283 -134.094693 
L 115.811283 -132.607103 
L 126.971283 -142.24265 
L 138.131283 -131.168338 
L 149.291283 -128.820783 
L 160.451283 -129.639872 
L 171.611283 -124.529186 
L 182.771283 -129.861139 
L 193.931283 -130.527436 
L 205.091283 -133.65416 
L 216.251283 -150.696453 
L 227.411283 -163.861492 
L 238.571283 -190.97842 
L 249.731283 -183.793628 
L 260.891283 -190.255561 
L 272.051283 -178.871442 
L 283.211283 -174.468842 
L 294.371283 -172.95139 
L 305.531283 -165.492641 
L 316.691283 -162.362972 
L 327.851283 -147.502203 
L 339.011283 -166.622284 
L 350.171283 -184.162656 
L 361.331283 -168.512906 
L 372.491283 -182.248708 
L 383.651283 -208.34711 
L 394.811283 -230.081905 
L 405.971283 -265.99086 
L 405.971283 -329.973156 
L 405.971283 -329.973156 
L 394.811283 -288.761232 
L 383.651283 -263.023573 
L 372.491283 -237.616254 
L 361.331283 -221.567381 
L 350.171283 -235.563531 
L 339.011283 -217.609501 
L 327.851283 -199.730759 
L 316.691283 -209.697297 
L 305.531283 -211.539673 
L 294.371283 -224.80295 
L 283.211283 -226.322986 
L 272.051283 -227.734842 
L 260.891283 -236.216098 
L 249.731283 -230.331598 
L 238.571283 -235.630973 
L 227.411283 -205.098819 
L 216.251283 -185.745385 
L 205.091283 -169.492433 
L 193.931283 -167.99313 
L 182.771283 -170.797273 
L 171.611283 -167.27975 
L 160.451283 -173.140874 
L 149.291283 -174.555227 
L 138.131283 -176.603092 
L 126.971283 -178.766138 
L 115.811283 -165.602635 
L 104.651283 -171.681916 
L 93.491283 -196.822158 
L 82.331283 -258.290851 
L 71.171283 -307.746497 
L 60.011283 -314.208298 
L 48.851283 -324.499456 
z
" style="stroke: #ff7f0e; stroke-opacity: 0.2"/>
    </defs>
    <g clip-path="url(#p2a93879e61)">
     <use xlink:href="#m49a044a939" x="0" y="361.333136" style="fill: #ff7f0e; fill-opacity: 0.2; stroke: #ff7f0e; stroke-opacity: 0.2"/>
    </g>
   </g>
   <g id="matplotlib.axis_1">
    <g id="text_1">
     <text style="font: 10px 'Arial', sans-serif; text-anchor: middle" x="227.411283" y="296.533792" transform="rotate(-0 227.411283 296.533792)">Time</text>
    </g>
   </g>
   <g id="matplotlib.axis_2">
    <g id="ytick_1">
     <g id="line2d_1">
      <defs>
       <path id="m1fa14076f9" d="M 0 0 
L -3.5 0 
" style="stroke: #000000; stroke-width: 0.8"/>
      </defs>
      <g>
       <use xlink:href="#m1fa14076f9" x="48.851283" y="280.315831" style="stroke: #000000; stroke-width: 0.8"/>
      </g>
     </g>
     <g id="text_2">
      <text style="font: 10px 'Arial', sans-serif; text-anchor: end" x="41.851283" y="283.894737" transform="rotate(-0 41.851283 283.894737)">−0.4</text>
     </g>
    </g>
    <g id="ytick_2">
     <g id="line2d_2">
      <g>
       <use xlink:href="#m1fa14076f9" x="48.851283" y="233.520881" style="stroke: #000000; stroke-width: 0.8"/>
      </g>
     </g>
     <g id="text_3">
      <text style="font: 10px 'Arial', sans-serif; text-anchor: end" x="41.851283" y="237.099787" transform="rotate(-0 41.851283 237.099787)">−0.2</text>
     </g>
    </g>
    <g id="ytick_3">
     <g id="line2d_3">
      <g>
       <use xlink:href="#m1fa14076f9" x="48.851283" y="186.72593" style="stroke: #000000; stroke-width: 0.8"/>
      </g>
     </g>
     <g id="text_4">
      <text style="font: 10px 'Arial', sans-serif; text-anchor: end" x="41.851283" y="190.304837" transform="rotate(-0 41.851283 190.304837)">0.0</text>
     </g>
    </g>
    <g id="ytick_4">
     <g id="line2d_4">
      <g>
       <use xlink:href="#m1fa14076f9" x="48.851283" y="139.93098" style="stroke: #000000; stroke-width: 0.8"/>
      </g>
     </g>
     <g id="text_5">
      <text style="font: 10px 'Arial', sans-serif; text-anchor: end" x="41.851283" y="143.509886" transform="rotate(-0 41.851283 143.509886)">0.2</text>
     </g>
    </g>
    <g id="ytick_5">
     <g id="line2d_5">
      <g>
       <use xlink:href="#m1fa14076f9" x="48.851283" y="93.13603" style="stroke: #000000; stroke-width: 0.8"/>
      </g>
     </g>
     <g id="text_6">
      <text style="font: 10px 'Arial', sans-serif; text-anchor: end" x="41.851283" y="96.714936" transform="rotate(-0 41.851283 96.714936)">0.4</text>
     </g>
    </g>
    <g id="ytick_6">
     <g id="line2d_6">
      <g>
       <use xlink:href="#m1fa14076f9" x="48.851283" y="46.34108" style="stroke: #000000; stroke-width: 0.8"/>
      </g>
     </g>
     <g id="text_7">
      <text style="font: 10px 'Arial', sans-serif; text-anchor: end" x="41.851283" y="49.919986" transform="rotate(-0 41.851283 49.919986)">0.6</text>
     </g>
    </g>
    <g id="text_8">
     <text style="font: 10px 'Arial', sans-serif; text-anchor: middle" x="16.005971" y="152.31998" transform="rotate(-90 16.005971 152.31998)">Activity</text>
    </g>
   </g>
   <g id="line2d_7">
    <path d="M 48.851283 136.03511 
L 60.011283 132.218684 
L 71.171283 145.611429 
L 82.331283 178.285349 
L 93.491283 234.734457 
L 104.651283 259.098283 
L 115.811283 236.003259 
L 126.971283 216.000196 
L 138.131283 207.394327 
L 149.291283 219.467515 
L 160.451283 218.49956 
L 171.611283 207.364158 
L 182.771283 209.137903 
L 193.931283 206.709091 
L 205.091283 205.589517 
L 216.251283 192.714075 
L 227.411283 210.904799 
L 238.571283 229.536967 
L 249.731283 221.499797 
L 260.891283 202.779718 
L 272.051283 208.366786 
L 283.211283 202.427706 
L 294.371283 209.558037 
L 305.531283 201.131277 
L 316.691283 200.146904 
L 327.851283 195.333946 
L 339.011283 217.716357 
L 350.171283 213.250412 
L 361.331283 197.773804 
L 372.491283 162.756546 
L 383.651283 131.787317 
L 394.811283 133.410145 
L 405.971283 142.459376 
" clip-path="url(#p2a93879e61)" style="fill: none; stroke: #1f77b4; stroke-width: 1.5; stroke-linecap: square"/>
   </g>
   <g id="line2d_8">
    <path d="M 48.851283 75.162705 
L 60.011283 85.427534 
L 71.171283 88.960957 
L 82.331283 130.892198 
L 93.491283 185.978438 
L 104.651283 208.444831 
L 115.811283 212.228268 
L 126.971283 200.828742 
L 138.131283 207.447421 
L 149.291283 209.645132 
L 160.451283 209.942764 
L 171.611283 215.428668 
L 182.771283 211.003929 
L 193.931283 212.072854 
L 205.091283 209.759839 
L 216.251283 193.112216 
L 227.411283 176.852981 
L 238.571283 148.028438 
L 249.731283 154.270524 
L 260.891283 148.097307 
L 272.051283 158.029993 
L 283.211283 160.937221 
L 294.371283 162.455966 
L 305.531283 172.816979 
L 316.691283 175.303001 
L 327.851283 187.716655 
L 339.011283 169.217243 
L 350.171283 151.470042 
L 361.331283 166.292992 
L 372.491283 151.400657 
L 383.651283 125.647794 
L 394.811283 101.911566 
L 405.971283 63.351128 
" clip-path="url(#p2a93879e61)" style="fill: none; stroke: #ff7f0e; stroke-width: 1.5; stroke-linecap: square"/>
   </g>
   <g id="line2d_9">
    <path d="M 82.331283 285.37598 
L 82.331283 19.26398 
" clip-path="url(#p2a93879e61)" style="fill: none; stroke-dasharray: 5.55,2.4; stroke-dashoffset: 0; stroke: #000000; stroke-opacity: 0.5; stroke-width: 1.5"/>
   </g>
   <g id="line2d_10">
    <path d="M 383.651283 285.37598 
L 383.651283 19.26398 
" clip-path="url(#p2a93879e61)" style="fill: none; stroke-dasharray: 5.55,2.4; stroke-dashoffset: 0; stroke: #000000; stroke-opacity: 0.5; stroke-width: 1.5"/>
   </g>
   <g id="patch_3">
    <path d="M 48.851283 285.37598 
L 405.971283 285.37598 
" style="fill: none; stroke: #000000; stroke-width: 0.8; stroke-linejoin: miter; stroke-linecap: square"/>
   </g>
   <g id="text_9">
    <text style="font: 6.94px 'Arial', sans-serif" transform="translate(10.097767 321.385533) rotate(-35)">-0.1s Sampling</text>
   </g>
   <g id="text_10">
    <text style="font: 6.94px 'Arial', sans-serif" transform="translate(57.794497 311.430872) rotate(-35)">Sampling</text>
   </g>
   <g id="text_11">
    <text style="font: 6.94px 'Arial', sans-serif" transform="translate(319.037191 339.456682) rotate(-35)">Movement to Lateral Port</text>
   </g>
   <g id="text_12">
    <text style="font: 8.33px 'Arial', sans-serif; text-anchor: middle" x="227.411283" y="13.26398" transform="rotate(-0 227.411283 13.26398)">GP4_85_s9_L70_D250_ALM - Trace:73_GP4_85_s9_L70_D250_ALM (when: correct)</text>
   </g>
   <g id="legend_1">
    <g id="patch_4">
     <path d="M 133.696342 354.133136 
L 321.126224 354.133136 
Q 322.514224 354.133136 322.514224 352.745136 
L 322.514224 343.45638 
Q 322.514224 342.06838 321.126224 342.06838 
L 133.696342 342.06838 
Q 132.308342 342.06838 132.308342 343.45638 
L 132.308342 352.745136 
Q 132.308342 354.133136 133.696342 354.133136 
z
" style="fill: #ffffff; opacity: 0.8; stroke: #cccccc; stroke-linejoin: miter"/>
    </g>
    <g id="line2d_11">
     <path d="M 135.084342 347.467483 
L 142.024342 347.467483 
L 148.964342 347.467483 
" style="fill: none; stroke: #1f77b4; stroke-width: 1.5; stroke-linecap: square"/>
    </g>
    <g id="text_13">
     <text style="font: 6.94px 'Arial', sans-serif; text-anchor: start" x="154.516342" y="349.896483" transform="rotate(-0 154.516342 349.896483)">DecisionRight (94 pts)</text>
    </g>
    <g id="line2d_12">
     <path d="M 236.664255 347.467483 
L 243.604255 347.467483 
L 250.544255 347.467483 
" style="fill: none; stroke: #ff7f0e; stroke-width: 1.5; stroke-linecap: square"/>
    </g>
    <g id="text_14">
     <text style="font: 6.94px 'Arial', sans-serif; text-anchor: start" x="256.096255" y="349.896483" transform="rotate(-0 256.096255 349.896483)">DecisionLeft (95 pts)</text>
    </g>
   </g>
  </g>
 </g>
 <defs>
  <clipPath id="p2a93879e61">
   <rect x="48.851283" y="19.26398" width="357.12" height="266.112"/>
  </clipPath>
 </defs>
</svg>
