<?xml version="1.0" encoding="utf-8" standalone="no"?>
<!DOCTYPE svg PUBLIC "-//W3C//DTD SVG 1.1//EN"
  "http://www.w3.org/Graphics/SVG/1.1/DTD/svg11.dtd">
<svg xmlns:xlink="http://www.w3.org/1999/xlink" width="413.171283pt" height="361.333136pt" viewBox="0 0 413.171283 361.333136" xmlns="http://www.w3.org/2000/svg" version="1.1">
 <metadata>
  <rdf:RDF xmlns:dc="http://purl.org/dc/elements/1.1/" xmlns:cc="http://creativecommons.org/ns#" xmlns:rdf="http://www.w3.org/1999/02/22-rdf-syntax-ns#">
   <cc:Work>
    <dc:type rdf:resource="http://purl.org/dc/dcmitype/StillImage"/>
    <dc:date>2025-12-29T04:08:03.401971</dc:date>
    <dc:format>image/svg+xml</dc:format>
    <dc:creator>
     <cc:Agent>
      <dc:title>Matplotlib v3.8.0, https://matplotlib.org/</dc:title>
     </cc:Agent>
    </dc:creator>
   </cc:Work>
  </rdf:RDF>
 </metadata>
 <defs>
  <style type="text/css">*{stroke-linejoin: round; stroke-linecap: butt}</style>
 </defs>
 <g id="figure_1">
  <g id="patch_1">
   <path d="M 0 361.333136 
L 413.171283 361.333136 
L 413.171283 -0 
L 0 -0 
z
" style="fill: #ffffff"/>
  </g>
  <g id="axes_1">
   <g id="patch_2">
    <path d="M 48.851283 285.37598 
L 405.971283 285.37598 
L 405.971283 19.26398 
L 48.851283 19.26398 
z
" style="fill: #ffffff"/>
   </g>
   <g id="PolyCollection_1">
    <defs>
     <path id="m991fd7f45a" d="M 48.851283 -272.329055 
L 48.851283 -217.098515 
L 60.011283 -214.995218 
L 71.171283 -200.907969 
L 82.331283 -171.571697 
L 93.491283 -142.383194 
L 104.651283 -126.326005 
L 115.811283 -118.418837 
L 126.971283 -110.097381 
L 138.131283 -118.030143 
L 149.291283 -131.224469 
L 160.451283 -128.728199 
L 171.611283 -121.825634 
L 182.771283 -128.90948 
L 193.931283 -153.274785 
L 205.091283 -151.303353 
L 216.251283 -143.51254 
L 227.411283 -136.731974 
L 238.571283 -136.797842 
L 249.731283 -134.138684 
L 260.891283 -142.898169 
L 272.051283 -134.616544 
L 283.211283 -119.382372 
L 294.371283 -102.010554 
L 305.531283 -101.617672 
L 316.691283 -118.297957 
L 327.851283 -144.407002 
L 339.011283 -131.577531 
L 350.171283 -111.436258 
L 361.331283 -112.098961 
L 372.491283 -111.150113 
L 383.651283 -101.317958 
L 394.811283 -104.813669 
L 405.971283 -119.89196 
L 405.971283 -151.208345 
L 405.971283 -151.208345 
L 394.811283 -135.812348 
L 383.651283 -131.172855 
L 372.491283 -137.247378 
L 361.331283 -142.051144 
L 350.171283 -143.076514 
L 339.011283 -159.954462 
L 327.851283 -175.078213 
L 316.691283 -149.029898 
L 305.531283 -132.090216 
L 294.371283 -134.429782 
L 283.211283 -152.558206 
L 272.051283 -167.015676 
L 260.891283 -174.490381 
L 249.731283 -164.431357 
L 238.571283 -168.987646 
L 227.411283 -170.770931 
L 216.251283 -175.629222 
L 205.091283 -180.751303 
L 193.931283 -181.950163 
L 182.771283 -158.081044 
L 171.611283 -149.89274 
L 160.451283 -159.594528 
L 149.291283 -161.519549 
L 138.131283 -146.469459 
L 126.971283 -139.56586 
L 115.811283 -149.687868 
L 104.651283 -164.318357 
L 93.491283 -188.657926 
L 82.331283 -219.660738 
L 71.171283 -254.299861 
L 60.011283 -270.060101 
L 48.851283 -272.329055 
z
" style="stroke: #1f77b4; stroke-opacity: 0.2"/>
    </defs>
    <g clip-path="url(#p7fb8b7b3d6)">
     <use xlink:href="#m991fd7f45a" x="0" y="361.333136" style="fill: #1f77b4; fill-opacity: 0.2; stroke: #1f77b4; stroke-opacity: 0.2"/>
    </g>
   </g>
   <g id="PolyCollection_2">
    <defs>
     <path id="m90b351d366" d="M 48.851283 -241.808379 
L 48.851283 -195.495336 
L 60.011283 -198.738751 
L 71.171283 -181.190872 
L 82.331283 -157.204206 
L 93.491283 -141.696684 
L 104.651283 -122.043146 
L 115.811283 -112.836397 
L 126.971283 -120.014287 
L 138.131283 -107.062252 
L 149.291283 -88.053156 
L 160.451283 -94.222238 
L 171.611283 -94.779847 
L 182.771283 -99.719145 
L 193.931283 -107.740041 
L 205.091283 -105.654249 
L 216.251283 -124.415212 
L 227.411283 -123.513871 
L 238.571283 -128.494758 
L 249.731283 -115.129351 
L 260.891283 -132.679668 
L 272.051283 -142.696481 
L 283.211283 -132.503794 
L 294.371283 -142.298887 
L 305.531283 -152.219768 
L 316.691283 -174.818518 
L 327.851283 -176.802972 
L 339.011283 -191.533898 
L 350.171283 -187.80159 
L 361.331283 -195.236447 
L 372.491283 -202.890765 
L 383.651283 -242.441112 
L 394.811283 -257.849759 
L 405.971283 -270.702335 
L 405.971283 -329.973156 
L 405.971283 -329.973156 
L 394.811283 -317.032991 
L 383.651283 -299.867859 
L 372.491283 -255.202827 
L 361.331283 -245.137581 
L 350.171283 -239.756612 
L 339.011283 -241.121299 
L 327.851283 -223.672301 
L 316.691283 -217.079899 
L 305.531283 -191.9824 
L 294.371283 -179.520302 
L 283.211283 -168.141834 
L 272.051283 -176.952101 
L 260.891283 -166.731015 
L 249.731283 -148.584756 
L 238.571283 -159.654795 
L 227.411283 -153.334959 
L 216.251283 -153.190001 
L 205.091283 -135.540437 
L 193.931283 -135.516318 
L 182.771283 -127.23311 
L 171.611283 -121.533729 
L 160.451283 -118.708163 
L 149.291283 -112.027836 
L 138.131283 -132.886036 
L 126.971283 -147.818102 
L 115.811283 -140.079971 
L 104.651283 -150.693161 
L 93.491283 -171.485424 
L 82.331283 -193.244719 
L 71.171283 -224.88258 
L 60.011283 -243.582755 
L 48.851283 -241.808379 
z
" style="stroke: #ff7f0e; stroke-opacity: 0.2"/>
    </defs>
    <g clip-path="url(#p7fb8b7b3d6)">
     <use xlink:href="#m90b351d366" x="0" y="361.333136" style="fill: #ff7f0e; fill-opacity: 0.2; stroke: #ff7f0e; stroke-opacity: 0.2"/>
    </g>
   </g>
   <g id="matplotlib.axis_1">
    <g id="text_1">
     <text style="font: 10px 'Arial', sans-serif; text-anchor: middle" x="227.411283" y="296.533792" transform="rotate(-0 227.411283 296.533792)">Time</text>
    </g>
   </g>
   <g id="matplotlib.axis_2">
    <g id="ytick_1">
     <g id="line2d_1">
      <defs>
       <path id="m4fcf7bd72f" d="M 0 0 
L -3.5 0 
" style="stroke: #000000; stroke-width: 0.8"/>
      </defs>
      <g>
       <use xlink:href="#m4fcf7bd72f" x="48.851283" y="275.484455" style="stroke: #000000; stroke-width: 0.8"/>
      </g>
     </g>
     <g id="text_2">
      <text style="font: 10px 'Arial', sans-serif; text-anchor: end" x="41.851283" y="279.063362" transform="rotate(-0 41.851283 279.063362)">−0.4</text>
     </g>
    </g>
    <g id="ytick_2">
     <g id="line2d_2">
      <g>
       <use xlink:href="#m4fcf7bd72f" x="48.851283" y="228.569286" style="stroke: #000000; stroke-width: 0.8"/>
      </g>
     </g>
     <g id="text_3">
      <text style="font: 10px 'Arial', sans-serif; text-anchor: end" x="41.851283" y="232.148193" transform="rotate(-0 41.851283 232.148193)">−0.2</text>
     </g>
    </g>
    <g id="ytick_3">
     <g id="line2d_3">
      <g>
       <use xlink:href="#m4fcf7bd72f" x="48.851283" y="181.654117" style="stroke: #000000; stroke-width: 0.8"/>
      </g>
     </g>
     <g id="text_4">
      <text style="font: 10px 'Arial', sans-serif; text-anchor: end" x="41.851283" y="185.233024" transform="rotate(-0 41.851283 185.233024)">0.0</text>
     </g>
    </g>
    <g id="ytick_4">
     <g id="line2d_4">
      <g>
       <use xlink:href="#m4fcf7bd72f" x="48.851283" y="134.738949" style="stroke: #000000; stroke-width: 0.8"/>
      </g>
     </g>
     <g id="text_5">
      <text style="font: 10px 'Arial', sans-serif; text-anchor: end" x="41.851283" y="138.317855" transform="rotate(-0 41.851283 138.317855)">0.2</text>
     </g>
    </g>
    <g id="ytick_5">
     <g id="line2d_5">
      <g>
       <use xlink:href="#m4fcf7bd72f" x="48.851283" y="87.82378" style="stroke: #000000; stroke-width: 0.8"/>
      </g>
     </g>
     <g id="text_6">
      <text style="font: 10px 'Arial', sans-serif; text-anchor: end" x="41.851283" y="91.402686" transform="rotate(-0 41.851283 91.402686)">0.4</text>
     </g>
    </g>
    <g id="ytick_6">
     <g id="line2d_6">
      <g>
       <use xlink:href="#m4fcf7bd72f" x="48.851283" y="40.908611" style="stroke: #000000; stroke-width: 0.8"/>
      </g>
     </g>
     <g id="text_7">
      <text style="font: 10px 'Arial', sans-serif; text-anchor: end" x="41.851283" y="44.487517" transform="rotate(-0 41.851283 44.487517)">0.6</text>
     </g>
    </g>
    <g id="text_8">
     <text style="font: 10px 'Arial', sans-serif; text-anchor: middle" x="16.005971" y="152.31998" transform="rotate(-90 16.005971 152.31998)">Activity</text>
    </g>
   </g>
   <g id="line2d_7">
    <path d="M 48.851283 116.619351 
L 60.011283 118.805477 
L 71.171283 133.72922 
L 82.331283 165.716918 
L 93.491283 195.812576 
L 104.651283 216.010955 
L 115.811283 227.279783 
L 126.971283 236.501514 
L 138.131283 229.083335 
L 149.291283 214.961127 
L 160.451283 217.171774 
L 171.611283 225.473949 
L 182.771283 217.837874 
L 193.931283 193.720662 
L 205.091283 195.305808 
L 216.251283 201.762255 
L 227.411283 207.581683 
L 238.571283 208.440392 
L 249.731283 212.048115 
L 260.891283 202.638862 
L 272.051283 210.517026 
L 283.211283 225.362846 
L 294.371283 243.112966 
L 305.531283 244.479192 
L 316.691283 227.669208 
L 327.851283 201.590529 
L 339.011283 215.567141 
L 350.171283 234.07675 
L 361.331283 234.258084 
L 372.491283 237.13439 
L 383.651283 245.087729 
L 394.811283 241.020127 
L 405.971283 225.782985 
" clip-path="url(#p7fb8b7b3d6)" style="fill: none; stroke: #1f77b4; stroke-width: 1.5; stroke-linecap: square"/>
   </g>
   <g id="line2d_8">
    <path d="M 48.851283 142.681276 
L 60.011283 140.172384 
L 71.171283 158.29641 
L 82.331283 186.108674 
L 93.491283 204.742083 
L 104.651283 224.964983 
L 115.811283 234.874951 
L 126.971283 227.416941 
L 138.131283 241.35899 
L 149.291283 261.29264 
L 160.451283 254.867935 
L 171.611283 253.176346 
L 182.771283 247.857009 
L 193.931283 239.704956 
L 205.091283 240.735793 
L 216.251283 222.530529 
L 227.411283 222.90872 
L 238.571283 217.258359 
L 249.731283 229.476084 
L 260.891283 211.627794 
L 272.051283 201.508845 
L 283.211283 211.010322 
L 294.371283 200.423542 
L 305.531283 189.232051 
L 316.691283 165.383927 
L 327.851283 161.0955 
L 339.011283 145.005539 
L 350.171283 147.554035 
L 361.331283 141.146123 
L 372.491283 132.286339 
L 383.651283 90.178651 
L 394.811283 73.891758 
L 405.971283 60.99539 
" clip-path="url(#p7fb8b7b3d6)" style="fill: none; stroke: #ff7f0e; stroke-width: 1.5; stroke-linecap: square"/>
   </g>
   <g id="line2d_9">
    <path d="M 82.331283 285.37598 
L 82.331283 19.26398 
" clip-path="url(#p7fb8b7b3d6)" style="fill: none; stroke-dasharray: 5.55,2.4; stroke-dashoffset: 0; stroke: #000000; stroke-opacity: 0.5; stroke-width: 1.5"/>
   </g>
   <g id="line2d_10">
    <path d="M 383.651283 285.37598 
L 383.651283 19.26398 
" clip-path="url(#p7fb8b7b3d6)" style="fill: none; stroke-dasharray: 5.55,2.4; stroke-dashoffset: 0; stroke: #000000; stroke-opacity: 0.5; stroke-width: 1.5"/>
   </g>
   <g id="patch_3">
    <path d="M 48.851283 285.37598 
L 405.971283 285.37598 
" style="fill: none; stroke: #000000; stroke-width: 0.8; stroke-linejoin: miter; stroke-linecap: square"/>
   </g>
   <g id="text_9">
    <text style="font: 6.94px 'Arial', sans-serif" transform="translate(10.097767 321.385533) rotate(-35)">-0.1s Sampling</text>
   </g>
   <g id="text_10">
    <text style="font: 6.94px 'Arial', sans-serif" transform="translate(57.794497 311.430872) rotate(-35)">Sampling</text>
   </g>
   <g id="text_11">
    <text style="font: 6.94px 'Arial', sans-serif" transform="translate(319.037191 339.456682) rotate(-35)">Movement to Lateral Port</text>
   </g>
   <g id="text_12">
    <text style="font: 8.33px 'Arial', sans-serif; text-anchor: middle" x="227.411283" y="13.26398" transform="rotate(-0 227.411283 13.26398)">GP4_85_s9_L70_D250_ALM - Trace:79_GP4_85_s9_L70_D250_ALM (when: correct)</text>
   </g>
   <g id="legend_1">
    <g id="patch_4">
     <path d="M 133.696342 354.133136 
L 321.126224 354.133136 
Q 322.514224 354.133136 322.514224 352.745136 
L 322.514224 343.45638 
Q 322.514224 342.06838 321.126224 342.06838 
L 133.696342 342.06838 
Q 132.308342 342.06838 132.308342 343.45638 
L 132.308342 352.745136 
Q 132.308342 354.133136 133.696342 354.133136 
z
" style="fill: #ffffff; opacity: 0.8; stroke: #cccccc; stroke-linejoin: miter"/>
    </g>
    <g id="line2d_11">
     <path d="M 135.084342 347.467483 
L 142.024342 347.467483 
L 148.964342 347.467483 
" style="fill: none; stroke: #1f77b4; stroke-width: 1.5; stroke-linecap: square"/>
    </g>
    <g id="text_13">
     <text style="font: 6.94px 'Arial', sans-serif; text-anchor: start" x="154.516342" y="349.896483" transform="rotate(-0 154.516342 349.896483)">DecisionRight (94 pts)</text>
    </g>
    <g id="line2d_12">
     <path d="M 236.664255 347.467483 
L 243.604255 347.467483 
L 250.544255 347.467483 
" style="fill: none; stroke: #ff7f0e; stroke-width: 1.5; stroke-linecap: square"/>
    </g>
    <g id="text_14">
     <text style="font: 6.94px 'Arial', sans-serif; text-anchor: start" x="256.096255" y="349.896483" transform="rotate(-0 256.096255 349.896483)">DecisionLeft (95 pts)</text>
    </g>
   </g>
  </g>
 </g>
 <defs>
  <clipPath id="p7fb8b7b3d6">
   <rect x="48.851283" y="19.26398" width="357.12" height="266.112"/>
  </clipPath>
 </defs>
</svg>
