<?xml version="1.0" encoding="utf-8" standalone="no"?>
<!DOCTYPE svg PUBLIC "-//W3C//DTD SVG 1.1//EN"
  "http://www.w3.org/Graphics/SVG/1.1/DTD/svg11.dtd">
<svg xmlns:xlink="http://www.w3.org/1999/xlink" width="413.171283pt" height="361.333136pt" viewBox="0 0 413.171283 361.333136" xmlns="http://www.w3.org/2000/svg" version="1.1">
 <metadata>
  <rdf:RDF xmlns:dc="http://purl.org/dc/elements/1.1/" xmlns:cc="http://creativecommons.org/ns#" xmlns:rdf="http://www.w3.org/1999/02/22-rdf-syntax-ns#">
   <cc:Work>
    <dc:type rdf:resource="http://purl.org/dc/dcmitype/StillImage"/>
    <dc:date>2025-12-29T04:08:04.424504</dc:date>
    <dc:format>image/svg+xml</dc:format>
    <dc:creator>
     <cc:Agent>
      <dc:title>Matplotlib v3.8.0, https://matplotlib.org/</dc:title>
     </cc:Agent>
    </dc:creator>
   </cc:Work>
  </rdf:RDF>
 </metadata>
 <defs>
  <style type="text/css">*{stroke-linejoin: round; stroke-linecap: butt}</style>
 </defs>
 <g id="figure_1">
  <g id="patch_1">
   <path d="M 0 361.333136 
L 413.171283 361.333136 
L 413.171283 -0 
L 0 -0 
z
" style="fill: #ffffff"/>
  </g>
  <g id="axes_1">
   <g id="patch_2">
    <path d="M 48.851283 285.37598 
L 405.971283 285.37598 
L 405.971283 19.26398 
L 48.851283 19.26398 
z
" style="fill: #ffffff"/>
   </g>
   <g id="PolyCollection_1">
    <defs>
     <path id="m719fea5f2b" d="M 48.851283 -243.538894 
L 48.851283 -203.530977 
L 60.011283 -190.478556 
L 71.171283 -183.942993 
L 82.331283 -184.149869 
L 93.491283 -193.152903 
L 104.651283 -198.276571 
L 115.811283 -198.749357 
L 126.971283 -198.014672 
L 138.131283 -191.487216 
L 149.291283 -191.543041 
L 160.451283 -180.60745 
L 171.611283 -173.759222 
L 182.771283 -161.511845 
L 193.931283 -150.485189 
L 205.091283 -140.797583 
L 216.251283 -143.704121 
L 227.411283 -137.807631 
L 238.571283 -136.589567 
L 249.731283 -123.161343 
L 260.891283 -116.049636 
L 272.051283 -115.571689 
L 283.211283 -121.780414 
L 294.371283 -115.492464 
L 305.531283 -110.441174 
L 316.691283 -108.023345 
L 327.851283 -107.881184 
L 339.011283 -107.697241 
L 350.171283 -108.003187 
L 361.331283 -93.990777 
L 372.491283 -88.053156 
L 383.651283 -92.996327 
L 394.811283 -99.635548 
L 405.971283 -106.231892 
L 405.971283 -124.08801 
L 405.971283 -124.08801 
L 394.811283 -117.342377 
L 383.651283 -109.875519 
L 372.491283 -101.87066 
L 361.331283 -108.124102 
L 350.171283 -123.136857 
L 339.011283 -124.993813 
L 327.851283 -125.188306 
L 316.691283 -125.886545 
L 305.531283 -128.131947 
L 294.371283 -133.819881 
L 283.211283 -141.304287 
L 272.051283 -134.536605 
L 260.891283 -134.37584 
L 249.731283 -143.422731 
L 238.571283 -157.617288 
L 227.411283 -158.507573 
L 216.251283 -164.824444 
L 205.091283 -165.45194 
L 193.931283 -178.119509 
L 182.771283 -190.72954 
L 171.611283 -204.600662 
L 160.451283 -213.134011 
L 149.291283 -226.327696 
L 138.131283 -227.879065 
L 126.971283 -235.337761 
L 115.811283 -236.564647 
L 104.651283 -236.321789 
L 93.491283 -229.90065 
L 82.331283 -219.714765 
L 71.171283 -219.72455 
L 60.011283 -227.407286 
L 48.851283 -243.538894 
z
" style="stroke: #1f77b4; stroke-opacity: 0.2"/>
    </defs>
    <g clip-path="url(#p640ba4fd88)">
     <use xlink:href="#m719fea5f2b" x="0" y="361.333136" style="fill: #1f77b4; fill-opacity: 0.2; stroke: #1f77b4; stroke-opacity: 0.2"/>
    </g>
   </g>
   <g id="PolyCollection_2">
    <defs>
     <path id="md9eec6940b" d="M 48.851283 -296.030327 
L 48.851283 -256.914146 
L 60.011283 -253.256522 
L 71.171283 -254.461255 
L 82.331283 -260.592368 
L 93.491283 -263.613781 
L 104.651283 -272.182955 
L 115.811283 -284.249308 
L 126.971283 -276.613824 
L 138.131283 -258.551529 
L 149.291283 -247.239529 
L 160.451283 -247.619193 
L 171.611283 -248.547967 
L 182.771283 -234.332602 
L 193.931283 -213.432879 
L 205.091283 -194.916596 
L 216.251283 -176.359987 
L 227.411283 -159.139899 
L 238.571283 -159.449652 
L 249.731283 -148.714368 
L 260.891283 -135.428697 
L 272.051283 -130.188193 
L 283.211283 -131.335609 
L 294.371283 -121.337069 
L 305.531283 -115.710816 
L 316.691283 -113.263539 
L 327.851283 -108.985481 
L 339.011283 -102.562505 
L 350.171283 -102.31956 
L 361.331283 -98.424426 
L 372.491283 -96.771559 
L 383.651283 -95.760785 
L 394.811283 -94.477759 
L 405.971283 -97.823716 
L 405.971283 -116.485253 
L 405.971283 -116.485253 
L 394.811283 -112.015282 
L 383.651283 -112.615372 
L 372.491283 -113.1832 
L 361.331283 -115.053679 
L 350.171283 -119.128189 
L 339.011283 -118.90669 
L 327.851283 -127.372259 
L 316.691283 -130.323135 
L 305.531283 -134.462977 
L 294.371283 -142.14479 
L 283.211283 -153.896002 
L 272.051283 -153.983052 
L 260.891283 -159.104669 
L 249.731283 -173.237399 
L 238.571283 -186.587211 
L 227.411283 -188.588374 
L 216.251283 -208.44235 
L 205.091283 -227.189038 
L 193.931283 -246.741697 
L 182.771283 -270.43772 
L 171.611283 -286.410396 
L 160.451283 -285.856711 
L 149.291283 -285.951574 
L 138.131283 -299.789956 
L 126.971283 -319.991459 
L 115.811283 -329.973156 
L 104.651283 -318.786626 
L 93.491283 -308.41885 
L 82.331283 -304.225265 
L 71.171283 -294.097093 
L 60.011283 -291.545986 
L 48.851283 -296.030327 
z
" style="stroke: #ff7f0e; stroke-opacity: 0.2"/>
    </defs>
    <g clip-path="url(#p640ba4fd88)">
     <use xlink:href="#md9eec6940b" x="0" y="361.333136" style="fill: #ff7f0e; fill-opacity: 0.2; stroke: #ff7f0e; stroke-opacity: 0.2"/>
    </g>
   </g>
   <g id="matplotlib.axis_1">
    <g id="text_1">
     <text style="font: 10px 'Arial', sans-serif; text-anchor: middle" x="227.411283" y="296.533792" transform="rotate(-0 227.411283 296.533792)">Time</text>
    </g>
   </g>
   <g id="matplotlib.axis_2">
    <g id="ytick_1">
     <g id="line2d_1">
      <defs>
       <path id="mdf9af663f2" d="M 0 0 
L -3.5 0 
" style="stroke: #000000; stroke-width: 0.8"/>
      </defs>
      <g>
       <use xlink:href="#mdf9af663f2" x="48.851283" y="265.363026" style="stroke: #000000; stroke-width: 0.8"/>
      </g>
     </g>
     <g id="text_2">
      <text style="font: 10px 'Arial', sans-serif; text-anchor: end" x="41.851283" y="268.941933" transform="rotate(-0 41.851283 268.941933)">−0.4</text>
     </g>
    </g>
    <g id="ytick_2">
     <g id="line2d_2">
      <g>
       <use xlink:href="#mdf9af663f2" x="48.851283" y="220.613128" style="stroke: #000000; stroke-width: 0.8"/>
      </g>
     </g>
     <g id="text_3">
      <text style="font: 10px 'Arial', sans-serif; text-anchor: end" x="41.851283" y="224.192034" transform="rotate(-0 41.851283 224.192034)">−0.2</text>
     </g>
    </g>
    <g id="ytick_3">
     <g id="line2d_3">
      <g>
       <use xlink:href="#mdf9af663f2" x="48.851283" y="175.863229" style="stroke: #000000; stroke-width: 0.8"/>
      </g>
     </g>
     <g id="text_4">
      <text style="font: 10px 'Arial', sans-serif; text-anchor: end" x="41.851283" y="179.442135" transform="rotate(-0 41.851283 179.442135)">0.0</text>
     </g>
    </g>
    <g id="ytick_4">
     <g id="line2d_4">
      <g>
       <use xlink:href="#mdf9af663f2" x="48.851283" y="131.113331" style="stroke: #000000; stroke-width: 0.8"/>
      </g>
     </g>
     <g id="text_5">
      <text style="font: 10px 'Arial', sans-serif; text-anchor: end" x="41.851283" y="134.692237" transform="rotate(-0 41.851283 134.692237)">0.2</text>
     </g>
    </g>
    <g id="ytick_5">
     <g id="line2d_5">
      <g>
       <use xlink:href="#mdf9af663f2" x="48.851283" y="86.363432" style="stroke: #000000; stroke-width: 0.8"/>
      </g>
     </g>
     <g id="text_6">
      <text style="font: 10px 'Arial', sans-serif; text-anchor: end" x="41.851283" y="89.942338" transform="rotate(-0 41.851283 89.942338)">0.4</text>
     </g>
    </g>
    <g id="ytick_6">
     <g id="line2d_6">
      <g>
       <use xlink:href="#mdf9af663f2" x="48.851283" y="41.613533" style="stroke: #000000; stroke-width: 0.8"/>
      </g>
     </g>
     <g id="text_7">
      <text style="font: 10px 'Arial', sans-serif; text-anchor: end" x="41.851283" y="45.19244" transform="rotate(-0 41.851283 45.19244)">0.6</text>
     </g>
    </g>
    <g id="text_8">
     <text style="font: 10px 'Arial', sans-serif; text-anchor: middle" x="16.005971" y="152.31998" transform="rotate(-90 16.005971 152.31998)">Activity</text>
    </g>
   </g>
   <g id="line2d_7">
    <path d="M 48.851283 137.798198 
L 60.011283 152.390215 
L 71.171283 159.499364 
L 82.331283 159.400819 
L 93.491283 149.806359 
L 104.651283 144.033957 
L 115.811283 143.676135 
L 126.971283 144.656918 
L 138.131283 151.649995 
L 149.291283 152.397768 
L 160.451283 164.462405 
L 171.611283 172.153193 
L 182.771283 185.212443 
L 193.931283 197.030786 
L 205.091283 208.208375 
L 216.251283 207.068853 
L 227.411283 213.175534 
L 238.571283 214.229708 
L 249.731283 228.041101 
L 260.891283 236.120398 
L 272.051283 236.278989 
L 283.211283 229.790784 
L 294.371283 236.676964 
L 305.531283 242.046576 
L 316.691283 244.378191 
L 327.851283 244.798391 
L 339.011283 244.987609 
L 350.171283 245.763114 
L 361.331283 260.275696 
L 372.491283 266.371228 
L 383.651283 259.897213 
L 394.811283 252.844173 
L 405.971283 246.173185 
" clip-path="url(#p640ba4fd88)" style="fill: none; stroke: #1f77b4; stroke-width: 1.5; stroke-linecap: square"/>
   </g>
   <g id="line2d_8">
    <path d="M 48.851283 84.860899 
L 60.011283 88.931882 
L 71.171283 87.053962 
L 82.331283 78.924319 
L 93.491283 75.31682 
L 104.651283 65.848345 
L 115.811283 54.221904 
L 126.971283 63.030494 
L 138.131283 82.162397 
L 149.291283 94.737585 
L 160.451283 94.595184 
L 171.611283 93.853954 
L 182.771283 108.947975 
L 193.931283 131.245848 
L 205.091283 150.280319 
L 216.251283 168.931967 
L 227.411283 187.468999 
L 238.571283 188.314704 
L 249.731283 200.357253 
L 260.891283 214.066453 
L 272.051283 219.247513 
L 283.211283 218.71733 
L 294.371283 229.592207 
L 305.531283 236.246241 
L 316.691283 239.539799 
L 327.851283 243.154266 
L 339.011283 250.598539 
L 350.171283 250.609261 
L 361.331283 254.594083 
L 372.491283 256.355756 
L 383.651283 257.145058 
L 394.811283 258.086615 
L 405.971283 254.178651 
" clip-path="url(#p640ba4fd88)" style="fill: none; stroke: #ff7f0e; stroke-width: 1.5; stroke-linecap: square"/>
   </g>
   <g id="line2d_9">
    <path d="M 82.331283 285.37598 
L 82.331283 19.26398 
" clip-path="url(#p640ba4fd88)" style="fill: none; stroke-dasharray: 5.55,2.4; stroke-dashoffset: 0; stroke: #000000; stroke-opacity: 0.5; stroke-width: 1.5"/>
   </g>
   <g id="line2d_10">
    <path d="M 383.651283 285.37598 
L 383.651283 19.26398 
" clip-path="url(#p640ba4fd88)" style="fill: none; stroke-dasharray: 5.55,2.4; stroke-dashoffset: 0; stroke: #000000; stroke-opacity: 0.5; stroke-width: 1.5"/>
   </g>
   <g id="patch_3">
    <path d="M 48.851283 285.37598 
L 405.971283 285.37598 
" style="fill: none; stroke: #000000; stroke-width: 0.8; stroke-linejoin: miter; stroke-linecap: square"/>
   </g>
   <g id="text_9">
    <text style="font: 6.94px 'Arial', sans-serif" transform="translate(10.097767 321.385533) rotate(-35)">-0.1s Sampling</text>
   </g>
   <g id="text_10">
    <text style="font: 6.94px 'Arial', sans-serif" transform="translate(57.794497 311.430872) rotate(-35)">Sampling</text>
   </g>
   <g id="text_11">
    <text style="font: 6.94px 'Arial', sans-serif" transform="translate(319.037191 339.456682) rotate(-35)">Movement to Lateral Port</text>
   </g>
   <g id="text_12">
    <text style="font: 8.33px 'Arial', sans-serif; text-anchor: middle" x="227.411283" y="13.26398" transform="rotate(-0 227.411283 13.26398)">GP4_85_s9_L70_D250_ALM - Trace:7_GP4_85_s9_L70_D250_ALM (when: correct)</text>
   </g>
   <g id="legend_1">
    <g id="patch_4">
     <path d="M 133.696342 354.133136 
L 321.126224 354.133136 
Q 322.514224 354.133136 322.514224 352.745136 
L 322.514224 343.45638 
Q 322.514224 342.06838 321.126224 342.06838 
L 133.696342 342.06838 
Q 132.308342 342.06838 132.308342 343.45638 
L 132.308342 352.745136 
Q 132.308342 354.133136 133.696342 354.133136 
z
" style="fill: #ffffff; opacity: 0.8; stroke: #cccccc; stroke-linejoin: miter"/>
    </g>
    <g id="line2d_11">
     <path d="M 135.084342 347.467483 
L 142.024342 347.467483 
L 148.964342 347.467483 
" style="fill: none; stroke: #1f77b4; stroke-width: 1.5; stroke-linecap: square"/>
    </g>
    <g id="text_13">
     <text style="font: 6.94px 'Arial', sans-serif; text-anchor: start" x="154.516342" y="349.896483" transform="rotate(-0 154.516342 349.896483)">DecisionRight (94 pts)</text>
    </g>
    <g id="line2d_12">
     <path d="M 236.664255 347.467483 
L 243.604255 347.467483 
L 250.544255 347.467483 
" style="fill: none; stroke: #ff7f0e; stroke-width: 1.5; stroke-linecap: square"/>
    </g>
    <g id="text_14">
     <text style="font: 6.94px 'Arial', sans-serif; text-anchor: start" x="256.096255" y="349.896483" transform="rotate(-0 256.096255 349.896483)">DecisionLeft (95 pts)</text>
    </g>
   </g>
  </g>
 </g>
 <defs>
  <clipPath id="p640ba4fd88">
   <rect x="48.851283" y="19.26398" width="357.12" height="266.112"/>
  </clipPath>
 </defs>
</svg>
