<?xml version="1.0" encoding="utf-8" standalone="no"?>
<!DOCTYPE svg PUBLIC "-//W3C//DTD SVG 1.1//EN"
  "http://www.w3.org/Graphics/SVG/1.1/DTD/svg11.dtd">
<svg xmlns:xlink="http://www.w3.org/1999/xlink" width="413.171283pt" height="361.333136pt" viewBox="0 0 413.171283 361.333136" xmlns="http://www.w3.org/2000/svg" version="1.1">
 <metadata>
  <rdf:RDF xmlns:dc="http://purl.org/dc/elements/1.1/" xmlns:cc="http://creativecommons.org/ns#" xmlns:rdf="http://www.w3.org/1999/02/22-rdf-syntax-ns#">
   <cc:Work>
    <dc:type rdf:resource="http://purl.org/dc/dcmitype/StillImage"/>
    <dc:date>2025-12-29T04:08:03.557433</dc:date>
    <dc:format>image/svg+xml</dc:format>
    <dc:creator>
     <cc:Agent>
      <dc:title>Matplotlib v3.8.0, https://matplotlib.org/</dc:title>
     </cc:Agent>
    </dc:creator>
   </cc:Work>
  </rdf:RDF>
 </metadata>
 <defs>
  <style type="text/css">*{stroke-linejoin: round; stroke-linecap: butt}</style>
 </defs>
 <g id="figure_1">
  <g id="patch_1">
   <path d="M 0 361.333136 
L 413.171283 361.333136 
L 413.171283 -0 
L 0 -0 
z
" style="fill: #ffffff"/>
  </g>
  <g id="axes_1">
   <g id="patch_2">
    <path d="M 48.851283 285.37598 
L 405.971283 285.37598 
L 405.971283 19.26398 
L 48.851283 19.26398 
z
" style="fill: #ffffff"/>
   </g>
   <g id="PolyCollection_1">
    <defs>
     <path id="m1551336c2f" d="M 48.851283 -318.680295 
L 48.851283 -251.714972 
L 60.011283 -237.738628 
L 71.171283 -213.135391 
L 82.331283 -201.38526 
L 93.491283 -191.312819 
L 104.651283 -184.420824 
L 115.811283 -177.747212 
L 126.971283 -165.881948 
L 138.131283 -142.288167 
L 149.291283 -123.017599 
L 160.451283 -121.905369 
L 171.611283 -123.950344 
L 182.771283 -125.780016 
L 193.931283 -126.863026 
L 205.091283 -139.517821 
L 216.251283 -136.92027 
L 227.411283 -116.785296 
L 238.571283 -113.010838 
L 249.731283 -115.078885 
L 260.891283 -120.395186 
L 272.051283 -113.069512 
L 283.211283 -106.503761 
L 294.371283 -102.13336 
L 305.531283 -97.134631 
L 316.691283 -99.488842 
L 327.851283 -104.565945 
L 339.011283 -100.224166 
L 350.171283 -88.053156 
L 361.331283 -88.118801 
L 372.491283 -91.373889 
L 383.651283 -95.182874 
L 394.811283 -93.569799 
L 405.971283 -94.043603 
L 405.971283 -123.234051 
L 405.971283 -123.234051 
L 394.811283 -125.897454 
L 383.651283 -128.611395 
L 372.491283 -123.90053 
L 361.331283 -119.224228 
L 350.171283 -116.591102 
L 339.011283 -127.66696 
L 327.851283 -129.921661 
L 316.691283 -122.920683 
L 305.531283 -120.40043 
L 294.371283 -126.790863 
L 283.211283 -130.82148 
L 272.051283 -138.275641 
L 260.891283 -146.407197 
L 249.731283 -141.199646 
L 238.571283 -142.2716 
L 227.411283 -147.231038 
L 216.251283 -167.53666 
L 205.091283 -168.951916 
L 193.931283 -157.688717 
L 182.771283 -157.5617 
L 171.611283 -153.433222 
L 160.451283 -151.962122 
L 149.291283 -153.811484 
L 138.131283 -175.931404 
L 126.971283 -199.448734 
L 115.811283 -217.247456 
L 104.651283 -223.052534 
L 93.491283 -238.975886 
L 82.331283 -252.949139 
L 71.171283 -265.860956 
L 60.011283 -296.653648 
L 48.851283 -318.680295 
z
" style="stroke: #1f77b4; stroke-opacity: 0.2"/>
    </defs>
    <g clip-path="url(#pb2f7f0a7ac)">
     <use xlink:href="#m1551336c2f" x="0" y="361.333136" style="fill: #1f77b4; fill-opacity: 0.2; stroke: #1f77b4; stroke-opacity: 0.2"/>
    </g>
   </g>
   <g id="PolyCollection_2">
    <defs>
     <path id="m7b5c3ebb16" d="M 48.851283 -329.973156 
L 48.851283 -272.891208 
L 60.011283 -263.299531 
L 71.171283 -253.437403 
L 82.331283 -229.223817 
L 93.491283 -193.865736 
L 104.651283 -168.700259 
L 115.811283 -165.147022 
L 126.971283 -155.529747 
L 138.131283 -150.930436 
L 149.291283 -150.078324 
L 160.451283 -138.450795 
L 171.611283 -128.229878 
L 182.771283 -116.878333 
L 193.931283 -117.41102 
L 205.091283 -118.937412 
L 216.251283 -123.776402 
L 227.411283 -124.992464 
L 238.571283 -125.730057 
L 249.731283 -130.00818 
L 260.891283 -128.019058 
L 272.051283 -123.492063 
L 283.211283 -121.086419 
L 294.371283 -113.650376 
L 305.531283 -115.118691 
L 316.691283 -119.16276 
L 327.851283 -111.393613 
L 339.011283 -113.96736 
L 350.171283 -117.188004 
L 361.331283 -123.581521 
L 372.491283 -125.186323 
L 383.651283 -132.598625 
L 394.811283 -138.944506 
L 405.971283 -143.178353 
L 405.971283 -169.634663 
L 405.971283 -169.634663 
L 394.811283 -165.888797 
L 383.651283 -158.449011 
L 372.491283 -147.104753 
L 361.331283 -146.242846 
L 350.171283 -141.820013 
L 339.011283 -137.696458 
L 327.851283 -135.119638 
L 316.691283 -142.611416 
L 305.531283 -136.913517 
L 294.371283 -134.961814 
L 283.211283 -141.902243 
L 272.051283 -145.563914 
L 260.891283 -150.714612 
L 249.731283 -152.159037 
L 238.571283 -148.802535 
L 227.411283 -148.210374 
L 216.251283 -148.540328 
L 205.091283 -142.414262 
L 193.931283 -141.463986 
L 182.771283 -142.237213 
L 171.611283 -155.441641 
L 160.451283 -167.054032 
L 149.291283 -181.639504 
L 138.131283 -180.058973 
L 126.971283 -187.645977 
L 115.811283 -199.119869 
L 104.651283 -203.033904 
L 93.491283 -235.074778 
L 82.331283 -275.212231 
L 71.171283 -301.024501 
L 60.011283 -313.243554 
L 48.851283 -329.973156 
z
" style="stroke: #ff7f0e; stroke-opacity: 0.2"/>
    </defs>
    <g clip-path="url(#pb2f7f0a7ac)">
     <use xlink:href="#m7b5c3ebb16" x="0" y="361.333136" style="fill: #ff7f0e; fill-opacity: 0.2; stroke: #ff7f0e; stroke-opacity: 0.2"/>
    </g>
   </g>
   <g id="matplotlib.axis_1">
    <g id="text_1">
     <text style="font: 10px 'Arial', sans-serif; text-anchor: middle" x="227.411283" y="296.533792" transform="rotate(-0 227.411283 296.533792)">Time</text>
    </g>
   </g>
   <g id="matplotlib.axis_2">
    <g id="ytick_1">
     <g id="line2d_1">
      <defs>
       <path id="m423b3ce3f7" d="M 0 0 
L -3.5 0 
" style="stroke: #000000; stroke-width: 0.8"/>
      </defs>
      <g>
       <use xlink:href="#m423b3ce3f7" x="48.851283" y="271.022763" style="stroke: #000000; stroke-width: 0.8"/>
      </g>
     </g>
     <g id="text_2">
      <text style="font: 10px 'Arial', sans-serif; text-anchor: end" x="41.851283" y="274.60167" transform="rotate(-0 41.851283 274.60167)">−0.4</text>
     </g>
    </g>
    <g id="ytick_2">
     <g id="line2d_2">
      <g>
       <use xlink:href="#m423b3ce3f7" x="48.851283" y="240.687266" style="stroke: #000000; stroke-width: 0.8"/>
      </g>
     </g>
     <g id="text_3">
      <text style="font: 10px 'Arial', sans-serif; text-anchor: end" x="41.851283" y="244.266172" transform="rotate(-0 41.851283 244.266172)">−0.3</text>
     </g>
    </g>
    <g id="ytick_3">
     <g id="line2d_3">
      <g>
       <use xlink:href="#m423b3ce3f7" x="48.851283" y="210.351769" style="stroke: #000000; stroke-width: 0.8"/>
      </g>
     </g>
     <g id="text_4">
      <text style="font: 10px 'Arial', sans-serif; text-anchor: end" x="41.851283" y="213.930675" transform="rotate(-0 41.851283 213.930675)">−0.2</text>
     </g>
    </g>
    <g id="ytick_4">
     <g id="line2d_4">
      <g>
       <use xlink:href="#m423b3ce3f7" x="48.851283" y="180.016271" style="stroke: #000000; stroke-width: 0.8"/>
      </g>
     </g>
     <g id="text_5">
      <text style="font: 10px 'Arial', sans-serif; text-anchor: end" x="41.851283" y="183.595178" transform="rotate(-0 41.851283 183.595178)">−0.1</text>
     </g>
    </g>
    <g id="ytick_5">
     <g id="line2d_5">
      <g>
       <use xlink:href="#m423b3ce3f7" x="48.851283" y="149.680774" style="stroke: #000000; stroke-width: 0.8"/>
      </g>
     </g>
     <g id="text_6">
      <text style="font: 10px 'Arial', sans-serif; text-anchor: end" x="41.851283" y="153.25968" transform="rotate(-0 41.851283 153.25968)">0.0</text>
     </g>
    </g>
    <g id="ytick_6">
     <g id="line2d_6">
      <g>
       <use xlink:href="#m423b3ce3f7" x="48.851283" y="119.345276" style="stroke: #000000; stroke-width: 0.8"/>
      </g>
     </g>
     <g id="text_7">
      <text style="font: 10px 'Arial', sans-serif; text-anchor: end" x="41.851283" y="122.924183" transform="rotate(-0 41.851283 122.924183)">0.1</text>
     </g>
    </g>
    <g id="ytick_7">
     <g id="line2d_7">
      <g>
       <use xlink:href="#m423b3ce3f7" x="48.851283" y="89.009779" style="stroke: #000000; stroke-width: 0.8"/>
      </g>
     </g>
     <g id="text_8">
      <text style="font: 10px 'Arial', sans-serif; text-anchor: end" x="41.851283" y="92.588685" transform="rotate(-0 41.851283 92.588685)">0.2</text>
     </g>
    </g>
    <g id="ytick_8">
     <g id="line2d_8">
      <g>
       <use xlink:href="#m423b3ce3f7" x="48.851283" y="58.674282" style="stroke: #000000; stroke-width: 0.8"/>
      </g>
     </g>
     <g id="text_9">
      <text style="font: 10px 'Arial', sans-serif; text-anchor: end" x="41.851283" y="62.253188" transform="rotate(-0 41.851283 62.253188)">0.3</text>
     </g>
    </g>
    <g id="ytick_9">
     <g id="line2d_9">
      <g>
       <use xlink:href="#m423b3ce3f7" x="48.851283" y="28.338784" style="stroke: #000000; stroke-width: 0.8"/>
      </g>
     </g>
     <g id="text_10">
      <text style="font: 10px 'Arial', sans-serif; text-anchor: end" x="41.851283" y="31.91769" transform="rotate(-0 41.851283 31.91769)">0.4</text>
     </g>
    </g>
    <g id="text_11">
     <text style="font: 10px 'Arial', sans-serif; text-anchor: middle" x="16.005971" y="152.31998" transform="rotate(-90 16.005971 152.31998)">Activity</text>
    </g>
   </g>
   <g id="line2d_10">
    <path d="M 48.851283 76.135502 
L 60.011283 94.136998 
L 71.171283 121.834962 
L 82.331283 134.165937 
L 93.491283 146.188783 
L 104.651283 157.596457 
L 115.811283 163.835801 
L 126.971283 178.667795 
L 138.131283 202.22335 
L 149.291283 222.918594 
L 160.451283 224.39939 
L 171.611283 222.641353 
L 182.771283 219.662281 
L 193.931283 219.057264 
L 205.091283 207.098267 
L 216.251283 209.104671 
L 227.411283 229.324967 
L 238.571283 233.691915 
L 249.731283 233.193873 
L 260.891283 227.931942 
L 272.051283 235.66056 
L 283.211283 242.670515 
L 294.371283 246.871024 
L 305.531283 252.565606 
L 316.691283 250.128373 
L 327.851283 244.089333 
L 339.011283 247.387573 
L 350.171283 259.011007 
L 361.331283 257.661622 
L 372.491283 253.695926 
L 383.651283 249.436002 
L 394.811283 251.599509 
L 405.971283 252.694309 
" clip-path="url(#pb2f7f0a7ac)" style="fill: none; stroke: #1f77b4; stroke-width: 1.5; stroke-linecap: square"/>
   </g>
   <g id="line2d_11">
    <path d="M 48.851283 59.900954 
L 60.011283 73.061593 
L 71.171283 84.102184 
L 82.331283 109.115113 
L 93.491283 146.862879 
L 104.651283 175.466053 
L 115.811283 179.19969 
L 126.971283 189.745274 
L 138.131283 195.838432 
L 149.291283 195.474223 
L 160.451283 208.580722 
L 171.611283 219.497378 
L 182.771283 231.775362 
L 193.931283 231.895631 
L 205.091283 230.657301 
L 216.251283 225.174774 
L 227.411283 224.731717 
L 238.571283 224.066842 
L 249.731283 220.249527 
L 260.891283 221.966299 
L 272.051283 226.805148 
L 283.211283 229.838803 
L 294.371283 237.027041 
L 305.531283 235.317032 
L 316.691283 230.446048 
L 327.851283 238.07651 
L 339.011283 235.501227 
L 350.171283 231.829127 
L 361.331283 226.420955 
L 372.491283 225.187598 
L 383.651283 215.809318 
L 394.811283 208.916484 
L 405.971283 204.926628 
" clip-path="url(#pb2f7f0a7ac)" style="fill: none; stroke: #ff7f0e; stroke-width: 1.5; stroke-linecap: square"/>
   </g>
   <g id="line2d_12">
    <path d="M 82.331283 285.37598 
L 82.331283 19.26398 
" clip-path="url(#pb2f7f0a7ac)" style="fill: none; stroke-dasharray: 5.55,2.4; stroke-dashoffset: 0; stroke: #000000; stroke-opacity: 0.5; stroke-width: 1.5"/>
   </g>
   <g id="line2d_13">
    <path d="M 383.651283 285.37598 
L 383.651283 19.26398 
" clip-path="url(#pb2f7f0a7ac)" style="fill: none; stroke-dasharray: 5.55,2.4; stroke-dashoffset: 0; stroke: #000000; stroke-opacity: 0.5; stroke-width: 1.5"/>
   </g>
   <g id="patch_3">
    <path d="M 48.851283 285.37598 
L 405.971283 285.37598 
" style="fill: none; stroke: #000000; stroke-width: 0.8; stroke-linejoin: miter; stroke-linecap: square"/>
   </g>
   <g id="text_12">
    <text style="font: 6.94px 'Arial', sans-serif" transform="translate(10.097767 321.385533) rotate(-35)">-0.1s Sampling</text>
   </g>
   <g id="text_13">
    <text style="font: 6.94px 'Arial', sans-serif" transform="translate(57.794497 311.430872) rotate(-35)">Sampling</text>
   </g>
   <g id="text_14">
    <text style="font: 6.94px 'Arial', sans-serif" transform="translate(319.037191 339.456682) rotate(-35)">Movement to Lateral Port</text>
   </g>
   <g id="text_15">
    <text style="font: 8.33px 'Arial', sans-serif; text-anchor: middle" x="227.411283" y="13.26398" transform="rotate(-0 227.411283 13.26398)">GP4_85_s9_L70_D250_ALM - Trace:8_GP4_85_s9_L70_D250_ALM (when: correct)</text>
   </g>
   <g id="legend_1">
    <g id="patch_4">
     <path d="M 133.696342 354.133136 
L 321.126224 354.133136 
Q 322.514224 354.133136 322.514224 352.745136 
L 322.514224 343.45638 
Q 322.514224 342.06838 321.126224 342.06838 
L 133.696342 342.06838 
Q 132.308342 342.06838 132.308342 343.45638 
L 132.308342 352.745136 
Q 132.308342 354.133136 133.696342 354.133136 
z
" style="fill: #ffffff; opacity: 0.8; stroke: #cccccc; stroke-linejoin: miter"/>
    </g>
    <g id="line2d_14">
     <path d="M 135.084342 347.467483 
L 142.024342 347.467483 
L 148.964342 347.467483 
" style="fill: none; stroke: #1f77b4; stroke-width: 1.5; stroke-linecap: square"/>
    </g>
    <g id="text_16">
     <text style="font: 6.94px 'Arial', sans-serif; text-anchor: start" x="154.516342" y="349.896483" transform="rotate(-0 154.516342 349.896483)">DecisionRight (94 pts)</text>
    </g>
    <g id="line2d_15">
     <path d="M 236.664255 347.467483 
L 243.604255 347.467483 
L 250.544255 347.467483 
" style="fill: none; stroke: #ff7f0e; stroke-width: 1.5; stroke-linecap: square"/>
    </g>
    <g id="text_17">
     <text style="font: 6.94px 'Arial', sans-serif; text-anchor: start" x="256.096255" y="349.896483" transform="rotate(-0 256.096255 349.896483)">DecisionLeft (95 pts)</text>
    </g>
   </g>
  </g>
 </g>
 <defs>
  <clipPath id="pb2f7f0a7ac">
   <rect x="48.851283" y="19.26398" width="357.12" height="266.112"/>
  </clipPath>
 </defs>
</svg>
