<?xml version="1.0" encoding="utf-8" standalone="no"?>
<!DOCTYPE svg PUBLIC "-//W3C//DTD SVG 1.1//EN"
  "http://www.w3.org/Graphics/SVG/1.1/DTD/svg11.dtd">
<svg xmlns:xlink="http://www.w3.org/1999/xlink" width="413.171283pt" height="361.333136pt" viewBox="0 0 413.171283 361.333136" xmlns="http://www.w3.org/2000/svg" version="1.1">
 <metadata>
  <rdf:RDF xmlns:dc="http://purl.org/dc/elements/1.1/" xmlns:cc="http://creativecommons.org/ns#" xmlns:rdf="http://www.w3.org/1999/02/22-rdf-syntax-ns#">
   <cc:Work>
    <dc:type rdf:resource="http://purl.org/dc/dcmitype/StillImage"/>
    <dc:date>2025-12-29T04:08:04.220574</dc:date>
    <dc:format>image/svg+xml</dc:format>
    <dc:creator>
     <cc:Agent>
      <dc:title>Matplotlib v3.8.0, https://matplotlib.org/</dc:title>
     </cc:Agent>
    </dc:creator>
   </cc:Work>
  </rdf:RDF>
 </metadata>
 <defs>
  <style type="text/css">*{stroke-linejoin: round; stroke-linecap: butt}</style>
 </defs>
 <g id="figure_1">
  <g id="patch_1">
   <path d="M 0 361.333136 
L 413.171283 361.333136 
L 413.171283 -0 
L 0 -0 
z
" style="fill: #ffffff"/>
  </g>
  <g id="axes_1">
   <g id="patch_2">
    <path d="M 48.851283 285.37598 
L 405.971283 285.37598 
L 405.971283 19.26398 
L 48.851283 19.26398 
z
" style="fill: #ffffff"/>
   </g>
   <g id="PolyCollection_1">
    <defs>
     <path id="md562c25aa0" d="M 48.851283 -307.114828 
L 48.851283 -252.649611 
L 60.011283 -240.184361 
L 71.171283 -222.932797 
L 82.331283 -191.681115 
L 93.491283 -153.615546 
L 104.651283 -129.605394 
L 115.811283 -113.922955 
L 126.971283 -108.319151 
L 138.131283 -112.662406 
L 149.291283 -117.196619 
L 160.451283 -116.730927 
L 171.611283 -118.568323 
L 182.771283 -125.39276 
L 193.931283 -117.900026 
L 205.091283 -111.072989 
L 216.251283 -110.117451 
L 227.411283 -112.17888 
L 238.571283 -105.915497 
L 249.731283 -107.961151 
L 260.891283 -111.590563 
L 272.051283 -107.685682 
L 283.211283 -101.381135 
L 294.371283 -92.546776 
L 305.531283 -89.033443 
L 316.691283 -90.424139 
L 327.851283 -93.734817 
L 339.011283 -97.348229 
L 350.171283 -94.845216 
L 361.331283 -91.81348 
L 372.491283 -99.278068 
L 383.651283 -112.248229 
L 394.811283 -118.815548 
L 405.971283 -129.202097 
L 405.971283 -156.738087 
L 405.971283 -156.738087 
L 394.811283 -146.451413 
L 383.651283 -138.668783 
L 372.491283 -123.607227 
L 361.331283 -113.962642 
L 350.171283 -116.780101 
L 339.011283 -121.618079 
L 327.851283 -118.849037 
L 316.691283 -113.854913 
L 305.531283 -110.909103 
L 294.371283 -116.627912 
L 283.211283 -126.60825 
L 272.051283 -135.034158 
L 260.891283 -141.218074 
L 249.731283 -137.131416 
L 238.571283 -134.844384 
L 227.411283 -139.872081 
L 216.251283 -136.990762 
L 205.091283 -137.440131 
L 193.931283 -144.435393 
L 182.771283 -154.550974 
L 171.611283 -147.783109 
L 160.451283 -144.6187 
L 149.291283 -145.762553 
L 138.131283 -141.748312 
L 126.971283 -139.327161 
L 115.811283 -145.734703 
L 104.651283 -164.397162 
L 93.491283 -193.034753 
L 82.331283 -235.387181 
L 71.171283 -275.436933 
L 60.011283 -294.448455 
L 48.851283 -307.114828 
z
" style="stroke: #1f77b4; stroke-opacity: 0.2"/>
    </defs>
    <g clip-path="url(#pc539b197c4)">
     <use xlink:href="#md562c25aa0" x="0" y="361.333136" style="fill: #1f77b4; fill-opacity: 0.2; stroke: #1f77b4; stroke-opacity: 0.2"/>
    </g>
   </g>
   <g id="PolyCollection_2">
    <defs>
     <path id="mbcff422d78" d="M 48.851283 -329.973156 
L 48.851283 -264.05458 
L 60.011283 -245.74028 
L 71.171283 -228.891669 
L 82.331283 -202.182747 
L 93.491283 -167.48257 
L 104.651283 -131.034034 
L 115.811283 -115.656331 
L 126.971283 -110.889427 
L 138.131283 -103.603622 
L 149.291283 -97.120784 
L 160.451283 -96.309799 
L 171.611283 -100.0369 
L 182.771283 -99.093453 
L 193.931283 -103.591659 
L 205.091283 -103.733089 
L 216.251283 -96.927806 
L 227.411283 -94.168195 
L 238.571283 -94.357542 
L 249.731283 -89.552084 
L 260.891283 -88.053156 
L 272.051283 -92.884973 
L 283.211283 -94.769865 
L 294.371283 -103.283204 
L 305.531283 -100.288705 
L 316.691283 -91.809913 
L 327.851283 -91.678604 
L 339.011283 -97.9358 
L 350.171283 -90.652453 
L 361.331283 -90.420645 
L 372.491283 -98.142954 
L 383.651283 -105.044588 
L 394.811283 -114.259449 
L 405.971283 -123.394101 
L 405.971283 -144.183486 
L 405.971283 -144.183486 
L 394.811283 -135.085855 
L 383.651283 -125.70206 
L 372.491283 -118.536441 
L 361.331283 -110.513618 
L 350.171283 -109.565681 
L 339.011283 -117.686062 
L 327.851283 -112.011381 
L 316.691283 -114.646554 
L 305.531283 -124.711336 
L 294.371283 -129.287965 
L 283.211283 -120.731272 
L 272.051283 -122.107327 
L 260.891283 -116.771113 
L 249.731283 -116.719403 
L 238.571283 -121.764204 
L 227.411283 -123.375523 
L 216.251283 -126.107274 
L 205.091283 -133.159012 
L 193.931283 -132.440682 
L 182.771283 -129.710438 
L 171.611283 -132.830153 
L 160.451283 -128.257976 
L 149.291283 -126.605982 
L 138.131283 -130.972407 
L 126.971283 -139.873324 
L 115.811283 -149.615937 
L 104.651283 -168.196157 
L 93.491283 -209.046285 
L 82.331283 -252.049905 
L 71.171283 -284.278146 
L 60.011283 -305.916706 
L 48.851283 -329.973156 
z
" style="stroke: #ff7f0e; stroke-opacity: 0.2"/>
    </defs>
    <g clip-path="url(#pc539b197c4)">
     <use xlink:href="#mbcff422d78" x="0" y="361.333136" style="fill: #ff7f0e; fill-opacity: 0.2; stroke: #ff7f0e; stroke-opacity: 0.2"/>
    </g>
   </g>
   <g id="matplotlib.axis_1">
    <g id="text_1">
     <text style="font: 10px 'Arial', sans-serif; text-anchor: middle" x="227.411283" y="296.533792" transform="rotate(-0 227.411283 296.533792)">Time</text>
    </g>
   </g>
   <g id="matplotlib.axis_2">
    <g id="ytick_1">
     <g id="line2d_1">
      <defs>
       <path id="m26fff1a9c0" d="M 0 0 
L -3.5 0 
" style="stroke: #000000; stroke-width: 0.8"/>
      </defs>
      <g>
       <use xlink:href="#m26fff1a9c0" x="48.851283" y="266.161239" style="stroke: #000000; stroke-width: 0.8"/>
      </g>
     </g>
     <g id="text_2">
      <text style="font: 10px 'Arial', sans-serif; text-anchor: end" x="41.851283" y="269.740146" transform="rotate(-0 41.851283 269.740146)">−0.2</text>
     </g>
    </g>
    <g id="ytick_2">
     <g id="line2d_2">
      <g>
       <use xlink:href="#m26fff1a9c0" x="48.851283" y="230.061327" style="stroke: #000000; stroke-width: 0.8"/>
      </g>
     </g>
     <g id="text_3">
      <text style="font: 10px 'Arial', sans-serif; text-anchor: end" x="41.851283" y="233.640233" transform="rotate(-0 41.851283 233.640233)">0.0</text>
     </g>
    </g>
    <g id="ytick_3">
     <g id="line2d_3">
      <g>
       <use xlink:href="#m26fff1a9c0" x="48.851283" y="193.961415" style="stroke: #000000; stroke-width: 0.8"/>
      </g>
     </g>
     <g id="text_4">
      <text style="font: 10px 'Arial', sans-serif; text-anchor: end" x="41.851283" y="197.540321" transform="rotate(-0 41.851283 197.540321)">0.2</text>
     </g>
    </g>
    <g id="ytick_4">
     <g id="line2d_4">
      <g>
       <use xlink:href="#m26fff1a9c0" x="48.851283" y="157.861503" style="stroke: #000000; stroke-width: 0.8"/>
      </g>
     </g>
     <g id="text_5">
      <text style="font: 10px 'Arial', sans-serif; text-anchor: end" x="41.851283" y="161.440409" transform="rotate(-0 41.851283 161.440409)">0.4</text>
     </g>
    </g>
    <g id="ytick_5">
     <g id="line2d_5">
      <g>
       <use xlink:href="#m26fff1a9c0" x="48.851283" y="121.76159" style="stroke: #000000; stroke-width: 0.8"/>
      </g>
     </g>
     <g id="text_6">
      <text style="font: 10px 'Arial', sans-serif; text-anchor: end" x="41.851283" y="125.340497" transform="rotate(-0 41.851283 125.340497)">0.6</text>
     </g>
    </g>
    <g id="ytick_6">
     <g id="line2d_6">
      <g>
       <use xlink:href="#m26fff1a9c0" x="48.851283" y="85.661678" style="stroke: #000000; stroke-width: 0.8"/>
      </g>
     </g>
     <g id="text_7">
      <text style="font: 10px 'Arial', sans-serif; text-anchor: end" x="41.851283" y="89.240584" transform="rotate(-0 41.851283 89.240584)">0.8</text>
     </g>
    </g>
    <g id="ytick_7">
     <g id="line2d_7">
      <g>
       <use xlink:href="#m26fff1a9c0" x="48.851283" y="49.561766" style="stroke: #000000; stroke-width: 0.8"/>
      </g>
     </g>
     <g id="text_8">
      <text style="font: 10px 'Arial', sans-serif; text-anchor: end" x="41.851283" y="53.140672" transform="rotate(-0 41.851283 53.140672)">1.0</text>
     </g>
    </g>
    <g id="text_9">
     <text style="font: 10px 'Arial', sans-serif; text-anchor: middle" x="16.005971" y="152.31998" transform="rotate(-90 16.005971 152.31998)">Activity</text>
    </g>
   </g>
   <g id="line2d_8">
    <path d="M 48.851283 81.450916 
L 60.011283 94.016728 
L 71.171283 112.148271 
L 82.331283 147.798988 
L 93.491283 188.007986 
L 104.651283 214.331858 
L 115.811283 231.504307 
L 126.971283 237.50998 
L 138.131283 234.127777 
L 149.291283 229.85355 
L 160.451283 230.658323 
L 171.611283 228.15742 
L 182.771283 221.361268 
L 193.931283 230.165427 
L 205.091283 237.076576 
L 216.251283 237.779029 
L 227.411283 235.307656 
L 238.571283 240.953195 
L 249.731283 238.786853 
L 260.891283 234.928817 
L 272.051283 239.973216 
L 283.211283 247.338443 
L 294.371283 256.745792 
L 305.531283 261.361863 
L 316.691283 259.19361 
L 327.851283 255.041208 
L 339.011283 251.849982 
L 350.171283 255.520478 
L 361.331283 258.445075 
L 372.491283 249.890488 
L 383.651283 235.87463 
L 394.811283 228.699655 
L 405.971283 218.363044 
" clip-path="url(#pc539b197c4)" style="fill: none; stroke: #1f77b4; stroke-width: 1.5; stroke-linecap: square"/>
   </g>
   <g id="line2d_9">
    <path d="M 48.851283 64.319268 
L 60.011283 85.504643 
L 71.171283 104.748229 
L 82.331283 134.21681 
L 93.491283 173.068708 
L 104.651283 211.718041 
L 115.811283 228.697002 
L 126.971283 235.951761 
L 138.131283 244.045121 
L 149.291283 249.469753 
L 160.451283 249.049248 
L 171.611283 244.899609 
L 182.771283 246.93119 
L 193.931283 243.316965 
L 205.091283 242.887086 
L 216.251283 249.815596 
L 227.411283 252.561277 
L 238.571283 253.272264 
L 249.731283 258.197392 
L 260.891283 258.921001 
L 272.051283 253.836986 
L 283.211283 253.582566 
L 294.371283 245.047551 
L 305.531283 248.833115 
L 316.691283 258.104903 
L 327.851283 259.488143 
L 339.011283 253.522205 
L 350.171283 261.22407 
L 361.331283 260.866004 
L 372.491283 252.993438 
L 383.651283 245.959811 
L 394.811283 236.660484 
L 405.971283 227.544342 
" clip-path="url(#pc539b197c4)" style="fill: none; stroke: #ff7f0e; stroke-width: 1.5; stroke-linecap: square"/>
   </g>
   <g id="line2d_10">
    <path d="M 82.331283 285.37598 
L 82.331283 19.26398 
" clip-path="url(#pc539b197c4)" style="fill: none; stroke-dasharray: 5.55,2.4; stroke-dashoffset: 0; stroke: #000000; stroke-opacity: 0.5; stroke-width: 1.5"/>
   </g>
   <g id="line2d_11">
    <path d="M 383.651283 285.37598 
L 383.651283 19.26398 
" clip-path="url(#pc539b197c4)" style="fill: none; stroke-dasharray: 5.55,2.4; stroke-dashoffset: 0; stroke: #000000; stroke-opacity: 0.5; stroke-width: 1.5"/>
   </g>
   <g id="patch_3">
    <path d="M 48.851283 285.37598 
L 405.971283 285.37598 
" style="fill: none; stroke: #000000; stroke-width: 0.8; stroke-linejoin: miter; stroke-linecap: square"/>
   </g>
   <g id="text_10">
    <text style="font: 6.94px 'Arial', sans-serif" transform="translate(10.097767 321.385533) rotate(-35)">-0.1s Sampling</text>
   </g>
   <g id="text_11">
    <text style="font: 6.94px 'Arial', sans-serif" transform="translate(57.794497 311.430872) rotate(-35)">Sampling</text>
   </g>
   <g id="text_12">
    <text style="font: 6.94px 'Arial', sans-serif" transform="translate(319.037191 339.456682) rotate(-35)">Movement to Lateral Port</text>
   </g>
   <g id="text_13">
    <text style="font: 8.33px 'Arial', sans-serif; text-anchor: middle" x="227.411283" y="13.26398" transform="rotate(-0 227.411283 13.26398)">GP4_85_s9_L70_D250_ALM - Trace:98_GP4_85_s9_L70_D250_ALM (when: correct)</text>
   </g>
   <g id="legend_1">
    <g id="patch_4">
     <path d="M 133.696342 354.133136 
L 321.126224 354.133136 
Q 322.514224 354.133136 322.514224 352.745136 
L 322.514224 343.45638 
Q 322.514224 342.06838 321.126224 342.06838 
L 133.696342 342.06838 
Q 132.308342 342.06838 132.308342 343.45638 
L 132.308342 352.745136 
Q 132.308342 354.133136 133.696342 354.133136 
z
" style="fill: #ffffff; opacity: 0.8; stroke: #cccccc; stroke-linejoin: miter"/>
    </g>
    <g id="line2d_12">
     <path d="M 135.084342 347.467483 
L 142.024342 347.467483 
L 148.964342 347.467483 
" style="fill: none; stroke: #1f77b4; stroke-width: 1.5; stroke-linecap: square"/>
    </g>
    <g id="text_14">
     <text style="font: 6.94px 'Arial', sans-serif; text-anchor: start" x="154.516342" y="349.896483" transform="rotate(-0 154.516342 349.896483)">DecisionRight (94 pts)</text>
    </g>
    <g id="line2d_13">
     <path d="M 236.664255 347.467483 
L 243.604255 347.467483 
L 250.544255 347.467483 
" style="fill: none; stroke: #ff7f0e; stroke-width: 1.5; stroke-linecap: square"/>
    </g>
    <g id="text_15">
     <text style="font: 6.94px 'Arial', sans-serif; text-anchor: start" x="256.096255" y="349.896483" transform="rotate(-0 256.096255 349.896483)">DecisionLeft (95 pts)</text>
    </g>
   </g>
  </g>
 </g>
 <defs>
  <clipPath id="pc539b197c4">
   <rect x="48.851283" y="19.26398" width="357.12" height="266.112"/>
  </clipPath>
 </defs>
</svg>
