<?xml version="1.0" encoding="utf-8" standalone="no"?>
<!DOCTYPE svg PUBLIC "-//W3C//DTD SVG 1.1//EN"
  "http://www.w3.org/Graphics/SVG/1.1/DTD/svg11.dtd">
<svg xmlns:xlink="http://www.w3.org/1999/xlink" width="413.171283pt" height="361.333136pt" viewBox="0 0 413.171283 361.333136" xmlns="http://www.w3.org/2000/svg" version="1.1">
 <metadata>
  <rdf:RDF xmlns:dc="http://purl.org/dc/elements/1.1/" xmlns:cc="http://creativecommons.org/ns#" xmlns:rdf="http://www.w3.org/1999/02/22-rdf-syntax-ns#">
   <cc:Work>
    <dc:type rdf:resource="http://purl.org/dc/dcmitype/StillImage"/>
    <dc:date>2025-12-29T04:07:19.924188</dc:date>
    <dc:format>image/svg+xml</dc:format>
    <dc:creator>
     <cc:Agent>
      <dc:title>Matplotlib v3.8.0, https://matplotlib.org/</dc:title>
     </cc:Agent>
    </dc:creator>
   </cc:Work>
  </rdf:RDF>
 </metadata>
 <defs>
  <style type="text/css">*{stroke-linejoin: round; stroke-linecap: butt}</style>
 </defs>
 <g id="figure_1">
  <g id="patch_1">
   <path d="M 0 361.333136 
L 413.171283 361.333136 
L 413.171283 -0 
L 0 -0 
z
" style="fill: #ffffff"/>
  </g>
  <g id="axes_1">
   <g id="patch_2">
    <path d="M 48.851283 285.37598 
L 405.971283 285.37598 
L 405.971283 19.26398 
L 48.851283 19.26398 
z
" style="fill: #ffffff"/>
   </g>
   <g id="PolyCollection_1">
    <defs>
     <path id="me7339c9fb2" d="M 48.851283 -181.859945 
L 48.851283 -128.303477 
L 60.011283 -123.263919 
L 71.171283 -126.00302 
L 82.331283 -135.622823 
L 93.491283 -152.738909 
L 104.651283 -168.548917 
L 115.811283 -173.397728 
L 126.971283 -186.44708 
L 138.131283 -188.822837 
L 149.291283 -189.875407 
L 160.451283 -189.83422 
L 171.611283 -188.354265 
L 182.771283 -204.528611 
L 193.931283 -204.201502 
L 205.091283 -201.973181 
L 216.251283 -210.147004 
L 227.411283 -220.763176 
L 238.571283 -224.105008 
L 249.731283 -213.646154 
L 260.891283 -208.933793 
L 272.051283 -216.698138 
L 283.211283 -218.748475 
L 294.371283 -206.438434 
L 305.531283 -198.784142 
L 316.691283 -208.524371 
L 327.851283 -214.090451 
L 339.011283 -215.809961 
L 350.171283 -203.843241 
L 361.331283 -189.24571 
L 372.491283 -183.13523 
L 383.651283 -158.676515 
L 394.811283 -140.366604 
L 405.971283 -130.180837 
L 405.971283 -183.260326 
L 405.971283 -183.260326 
L 394.811283 -196.036296 
L 383.651283 -220.059153 
L 372.491283 -248.893838 
L 361.331283 -258.997817 
L 350.171283 -276.247581 
L 339.011283 -290.097903 
L 327.851283 -288.968665 
L 316.691283 -283.433215 
L 305.531283 -274.488497 
L 294.371283 -282.013105 
L 283.211283 -296.308442 
L 272.051283 -292.630441 
L 260.891283 -281.522727 
L 249.731283 -284.60312 
L 238.571283 -296.330576 
L 227.411283 -293.610846 
L 216.251283 -281.035191 
L 205.091283 -274.491028 
L 193.931283 -274.326669 
L 182.771283 -271.263877 
L 171.611283 -252.278414 
L 160.451283 -252.373502 
L 149.291283 -251.053947 
L 138.131283 -246.221339 
L 126.971283 -242.163752 
L 115.811283 -227.132605 
L 104.651283 -222.956708 
L 93.491283 -210.008594 
L 82.331283 -192.577916 
L 71.171283 -181.733942 
L 60.011283 -177.034007 
L 48.851283 -181.859945 
z
" style="stroke: #1f77b4; stroke-opacity: 0.2"/>
    </defs>
    <g clip-path="url(#p973e0d0fc0)">
     <use xlink:href="#me7339c9fb2" x="0" y="361.333136" style="fill: #1f77b4; fill-opacity: 0.2; stroke: #1f77b4; stroke-opacity: 0.2"/>
    </g>
   </g>
   <g id="PolyCollection_2">
    <defs>
     <path id="m30cd351745" d="M 48.851283 -143.054412 
L 48.851283 -88.053156 
L 60.011283 -92.08545 
L 71.171283 -109.666171 
L 82.331283 -126.958022 
L 93.491283 -131.690381 
L 104.651283 -128.966484 
L 115.811283 -150.179975 
L 126.971283 -176.196289 
L 138.131283 -193.451663 
L 149.291283 -204.583763 
L 160.451283 -210.9434 
L 171.611283 -219.120278 
L 182.771283 -224.074803 
L 193.931283 -216.937883 
L 205.091283 -212.27799 
L 216.251283 -213.147776 
L 227.411283 -233.640987 
L 238.571283 -243.643821 
L 249.731283 -239.843774 
L 260.891283 -241.79395 
L 272.051283 -241.19945 
L 283.211283 -238.338321 
L 294.371283 -250.410959 
L 305.531283 -247.092822 
L 316.691283 -244.492716 
L 327.851283 -235.521437 
L 339.011283 -240.975189 
L 350.171283 -250.029104 
L 361.331283 -242.593452 
L 372.491283 -240.751201 
L 383.651283 -224.068774 
L 394.811283 -195.401142 
L 405.971283 -170.748245 
L 405.971283 -237.584578 
L 405.971283 -237.584578 
L 394.811283 -268.891212 
L 383.651283 -301.83539 
L 372.491283 -320.316009 
L 361.331283 -321.974103 
L 350.171283 -329.973156 
L 339.011283 -321.892952 
L 327.851283 -315.556324 
L 316.691283 -324.414332 
L 305.531283 -325.023116 
L 294.371283 -327.199777 
L 283.211283 -315.311642 
L 272.051283 -318.494993 
L 260.891283 -318.561823 
L 249.731283 -315.334081 
L 238.571283 -314.974106 
L 227.411283 -301.624242 
L 216.251283 -276.401314 
L 205.091283 -280.05788 
L 193.931283 -288.441731 
L 182.771283 -293.135911 
L 171.611283 -283.286215 
L 160.451283 -272.49096 
L 149.291283 -259.760304 
L 138.131283 -247.488947 
L 126.971283 -230.079728 
L 115.811283 -203.649074 
L 104.651283 -182.288002 
L 93.491283 -186.265564 
L 82.331283 -182.842642 
L 71.171283 -170.789134 
L 60.011283 -153.273859 
L 48.851283 -143.054412 
z
" style="stroke: #ff7f0e; stroke-opacity: 0.2"/>
    </defs>
    <g clip-path="url(#p973e0d0fc0)">
     <use xlink:href="#m30cd351745" x="0" y="361.333136" style="fill: #ff7f0e; fill-opacity: 0.2; stroke: #ff7f0e; stroke-opacity: 0.2"/>
    </g>
   </g>
   <g id="matplotlib.axis_1">
    <g id="text_1">
     <text style="font: 10px 'Arial', sans-serif; text-anchor: middle" x="227.411283" y="296.533792" transform="rotate(-0 227.411283 296.533792)">Time</text>
    </g>
   </g>
   <g id="matplotlib.axis_2">
    <g id="ytick_1">
     <g id="line2d_1">
      <defs>
       <path id="mca0ed33a9e" d="M 0 0 
L -3.5 0 
" style="stroke: #000000; stroke-width: 0.8"/>
      </defs>
      <g>
       <use xlink:href="#mca0ed33a9e" x="48.851283" y="272.006752" style="stroke: #000000; stroke-width: 0.8"/>
      </g>
     </g>
     <g id="text_2">
      <text style="font: 10px 'Arial', sans-serif; text-anchor: end" x="41.851283" y="275.585659" transform="rotate(-0 41.851283 275.585659)">−0.3</text>
     </g>
    </g>
    <g id="ytick_2">
     <g id="line2d_2">
      <g>
       <use xlink:href="#mca0ed33a9e" x="48.851283" y="234.171977" style="stroke: #000000; stroke-width: 0.8"/>
      </g>
     </g>
     <g id="text_3">
      <text style="font: 10px 'Arial', sans-serif; text-anchor: end" x="41.851283" y="237.750883" transform="rotate(-0 41.851283 237.750883)">−0.2</text>
     </g>
    </g>
    <g id="ytick_3">
     <g id="line2d_3">
      <g>
       <use xlink:href="#mca0ed33a9e" x="48.851283" y="196.337201" style="stroke: #000000; stroke-width: 0.8"/>
      </g>
     </g>
     <g id="text_4">
      <text style="font: 10px 'Arial', sans-serif; text-anchor: end" x="41.851283" y="199.916107" transform="rotate(-0 41.851283 199.916107)">−0.1</text>
     </g>
    </g>
    <g id="ytick_4">
     <g id="line2d_4">
      <g>
       <use xlink:href="#mca0ed33a9e" x="48.851283" y="158.502425" style="stroke: #000000; stroke-width: 0.8"/>
      </g>
     </g>
     <g id="text_5">
      <text style="font: 10px 'Arial', sans-serif; text-anchor: end" x="41.851283" y="162.081332" transform="rotate(-0 41.851283 162.081332)">0.0</text>
     </g>
    </g>
    <g id="ytick_5">
     <g id="line2d_5">
      <g>
       <use xlink:href="#mca0ed33a9e" x="48.851283" y="120.66765" style="stroke: #000000; stroke-width: 0.8"/>
      </g>
     </g>
     <g id="text_6">
      <text style="font: 10px 'Arial', sans-serif; text-anchor: end" x="41.851283" y="124.246556" transform="rotate(-0 41.851283 124.246556)">0.1</text>
     </g>
    </g>
    <g id="ytick_6">
     <g id="line2d_6">
      <g>
       <use xlink:href="#mca0ed33a9e" x="48.851283" y="82.832874" style="stroke: #000000; stroke-width: 0.8"/>
      </g>
     </g>
     <g id="text_7">
      <text style="font: 10px 'Arial', sans-serif; text-anchor: end" x="41.851283" y="86.41178" transform="rotate(-0 41.851283 86.41178)">0.2</text>
     </g>
    </g>
    <g id="ytick_7">
     <g id="line2d_7">
      <g>
       <use xlink:href="#mca0ed33a9e" x="48.851283" y="44.998098" style="stroke: #000000; stroke-width: 0.8"/>
      </g>
     </g>
     <g id="text_8">
      <text style="font: 10px 'Arial', sans-serif; text-anchor: end" x="41.851283" y="48.577005" transform="rotate(-0 41.851283 48.577005)">0.3</text>
     </g>
    </g>
    <g id="text_9">
     <text style="font: 10px 'Arial', sans-serif; text-anchor: middle" x="16.005971" y="152.31998" transform="rotate(-90 16.005971 152.31998)">Activity</text>
    </g>
   </g>
   <g id="line2d_8">
    <path d="M 48.851283 206.251425 
L 60.011283 211.184175 
L 71.171283 207.464656 
L 82.331283 197.232767 
L 93.491283 179.959384 
L 104.651283 165.580323 
L 115.811283 161.067971 
L 126.971283 147.027719 
L 138.131283 143.811048 
L 149.291283 140.868458 
L 160.451283 140.229275 
L 171.611283 141.016796 
L 182.771283 123.43689 
L 193.931283 122.069051 
L 205.091283 123.101031 
L 216.251283 115.742037 
L 227.411283 104.146125 
L 238.571283 101.115345 
L 249.731283 112.208499 
L 260.891283 116.104876 
L 272.051283 106.668847 
L 283.211283 103.804676 
L 294.371283 117.107368 
L 305.531283 124.696817 
L 316.691283 115.354341 
L 327.851283 109.803577 
L 339.011283 108.379204 
L 350.171283 121.287725 
L 361.331283 137.211372 
L 372.491283 145.318602 
L 383.651283 171.965302 
L 394.811283 193.131686 
L 405.971283 204.612556 
" clip-path="url(#p973e0d0fc0)" style="fill: none; stroke: #1f77b4; stroke-width: 1.5; stroke-linecap: square"/>
   </g>
   <g id="line2d_9">
    <path d="M 48.851283 245.779355 
L 60.011283 238.653482 
L 71.171283 221.105482 
L 82.331283 206.432805 
L 93.491283 202.355164 
L 104.651283 205.705893 
L 115.811283 184.418611 
L 126.971283 158.195128 
L 138.131283 140.862831 
L 149.291283 129.161102 
L 160.451283 119.615956 
L 171.611283 110.129888 
L 182.771283 102.727779 
L 193.931283 108.64333 
L 205.091283 115.165201 
L 216.251283 116.558591 
L 227.411283 93.700523 
L 238.571283 82.024173 
L 249.731283 83.74421 
L 260.891283 81.155249 
L 272.051283 81.485913 
L 283.211283 84.508157 
L 294.371283 72.527771 
L 305.531283 75.275165 
L 316.691283 76.87961 
L 327.851283 85.794257 
L 339.011283 79.899064 
L 350.171283 71.332006 
L 361.331283 79.04936 
L 372.491283 80.799531 
L 383.651283 98.381053 
L 394.811283 129.186958 
L 405.971283 157.166725 
" clip-path="url(#p973e0d0fc0)" style="fill: none; stroke: #ff7f0e; stroke-width: 1.5; stroke-linecap: square"/>
   </g>
   <g id="line2d_10">
    <path d="M 82.331283 285.37598 
L 82.331283 19.26398 
" clip-path="url(#p973e0d0fc0)" style="fill: none; stroke-dasharray: 5.55,2.4; stroke-dashoffset: 0; stroke: #000000; stroke-opacity: 0.5; stroke-width: 1.5"/>
   </g>
   <g id="line2d_11">
    <path d="M 383.651283 285.37598 
L 383.651283 19.26398 
" clip-path="url(#p973e0d0fc0)" style="fill: none; stroke-dasharray: 5.55,2.4; stroke-dashoffset: 0; stroke: #000000; stroke-opacity: 0.5; stroke-width: 1.5"/>
   </g>
   <g id="patch_3">
    <path d="M 48.851283 285.37598 
L 405.971283 285.37598 
" style="fill: none; stroke: #000000; stroke-width: 0.8; stroke-linejoin: miter; stroke-linecap: square"/>
   </g>
   <g id="text_10">
    <text style="font: 6.94px 'Arial', sans-serif" transform="translate(10.097767 321.385533) rotate(-35)">-0.1s Sampling</text>
   </g>
   <g id="text_11">
    <text style="font: 6.94px 'Arial', sans-serif" transform="translate(57.794497 311.430872) rotate(-35)">Sampling</text>
   </g>
   <g id="text_12">
    <text style="font: 6.94px 'Arial', sans-serif" transform="translate(319.037191 339.456682) rotate(-35)">Movement to Lateral Port</text>
   </g>
   <g id="text_13">
    <text style="font: 8.33px 'Arial', sans-serif; text-anchor: middle" x="227.411283" y="13.26398" transform="rotate(-0 227.411283 13.26398)">GP4_28_S1_L41_D250_M2L - Trace:10_GP4_28_S1_L41_D250_M2L (when: correct)</text>
   </g>
   <g id="legend_1">
    <g id="patch_4">
     <path d="M 130.092964 354.133136 
L 324.729602 354.133136 
Q 326.117602 354.133136 326.117602 352.745136 
L 326.117602 343.45638 
Q 326.117602 342.06838 324.729602 342.06838 
L 130.092964 342.06838 
Q 128.704964 342.06838 128.704964 343.45638 
L 128.704964 352.745136 
Q 128.704964 354.133136 130.092964 354.133136 
z
" style="fill: #ffffff; opacity: 0.8; stroke: #cccccc; stroke-linejoin: miter"/>
    </g>
    <g id="line2d_12">
     <path d="M 131.480964 347.467483 
L 138.420964 347.467483 
L 145.360964 347.467483 
" style="fill: none; stroke: #1f77b4; stroke-width: 1.5; stroke-linecap: square"/>
    </g>
    <g id="text_14">
     <text style="font: 6.94px 'Arial', sans-serif; text-anchor: start" x="150.912964" y="349.896483" transform="rotate(-0 150.912964 349.896483)">DecisionRight (133 pts)</text>
    </g>
    <g id="line2d_13">
     <path d="M 236.920167 347.467483 
L 243.860167 347.467483 
L 250.800167 347.467483 
" style="fill: none; stroke: #ff7f0e; stroke-width: 1.5; stroke-linecap: square"/>
    </g>
    <g id="text_15">
     <text style="font: 6.94px 'Arial', sans-serif; text-anchor: start" x="256.352167" y="349.896483" transform="rotate(-0 256.352167 349.896483)">DecisionLeft (117 pts)</text>
    </g>
   </g>
  </g>
 </g>
 <defs>
  <clipPath id="p973e0d0fc0">
   <rect x="48.851283" y="19.26398" width="357.12" height="266.112"/>
  </clipPath>
 </defs>
</svg>
