<?xml version="1.0" encoding="utf-8" standalone="no"?>
<!DOCTYPE svg PUBLIC "-//W3C//DTD SVG 1.1//EN"
  "http://www.w3.org/Graphics/SVG/1.1/DTD/svg11.dtd">
<svg xmlns:xlink="http://www.w3.org/1999/xlink" width="413.171283pt" height="361.333136pt" viewBox="0 0 413.171283 361.333136" xmlns="http://www.w3.org/2000/svg" version="1.1">
 <metadata>
  <rdf:RDF xmlns:dc="http://purl.org/dc/elements/1.1/" xmlns:cc="http://creativecommons.org/ns#" xmlns:rdf="http://www.w3.org/1999/02/22-rdf-syntax-ns#">
   <cc:Work>
    <dc:type rdf:resource="http://purl.org/dc/dcmitype/StillImage"/>
    <dc:date>2025-12-29T04:07:18.962538</dc:date>
    <dc:format>image/svg+xml</dc:format>
    <dc:creator>
     <cc:Agent>
      <dc:title>Matplotlib v3.8.0, https://matplotlib.org/</dc:title>
     </cc:Agent>
    </dc:creator>
   </cc:Work>
  </rdf:RDF>
 </metadata>
 <defs>
  <style type="text/css">*{stroke-linejoin: round; stroke-linecap: butt}</style>
 </defs>
 <g id="figure_1">
  <g id="patch_1">
   <path d="M 0 361.333136 
L 413.171283 361.333136 
L 413.171283 -0 
L 0 -0 
z
" style="fill: #ffffff"/>
  </g>
  <g id="axes_1">
   <g id="patch_2">
    <path d="M 48.851283 285.37598 
L 405.971283 285.37598 
L 405.971283 19.26398 
L 48.851283 19.26398 
z
" style="fill: #ffffff"/>
   </g>
   <g id="PolyCollection_1">
    <defs>
     <path id="mb0cf60e64b" d="M 48.851283 -280.528761 
L 48.851283 -230.705867 
L 60.011283 -217.305355 
L 71.171283 -196.314388 
L 82.331283 -178.230715 
L 93.491283 -179.063813 
L 104.651283 -185.958643 
L 115.811283 -189.97646 
L 126.971283 -188.196064 
L 138.131283 -183.084832 
L 149.291283 -182.88557 
L 160.451283 -183.01214 
L 171.611283 -182.17936 
L 182.771283 -175.559768 
L 193.931283 -168.531448 
L 205.091283 -164.811962 
L 216.251283 -161.612872 
L 227.411283 -161.393449 
L 238.571283 -156.928045 
L 249.731283 -149.257124 
L 260.891283 -142.813371 
L 272.051283 -139.298468 
L 283.211283 -132.22754 
L 294.371283 -127.46493 
L 305.531283 -127.576252 
L 316.691283 -127.119374 
L 327.851283 -124.638152 
L 339.011283 -119.67125 
L 350.171283 -115.208924 
L 361.331283 -111.247155 
L 372.491283 -106.688745 
L 383.651283 -97.157184 
L 394.811283 -90.774396 
L 405.971283 -88.053156 
L 405.971283 -111.825212 
L 405.971283 -111.825212 
L 394.811283 -115.141583 
L 383.651283 -121.81266 
L 372.491283 -131.34594 
L 361.331283 -135.592072 
L 350.171283 -139.807194 
L 339.011283 -144.676267 
L 327.851283 -150.309965 
L 316.691283 -153.894137 
L 305.531283 -154.856203 
L 294.371283 -155.349582 
L 283.211283 -159.899939 
L 272.051283 -166.367494 
L 260.891283 -170.42604 
L 249.731283 -177.63085 
L 238.571283 -185.707058 
L 227.411283 -191.449788 
L 216.251283 -192.79453 
L 205.091283 -197.401588 
L 193.931283 -202.283209 
L 182.771283 -209.785101 
L 171.611283 -216.70279 
L 160.451283 -217.630368 
L 149.291283 -217.441485 
L 138.131283 -217.482619 
L 126.971283 -223.235192 
L 115.811283 -225.015243 
L 104.651283 -218.277766 
L 93.491283 -207.760061 
L 82.331283 -206.810226 
L 71.171283 -233.072359 
L 60.011283 -262.625409 
L 48.851283 -280.528761 
z
" style="stroke: #1f77b4; stroke-opacity: 0.2"/>
    </defs>
    <g clip-path="url(#p441e903ccc)">
     <use xlink:href="#mb0cf60e64b" x="0" y="361.333136" style="fill: #1f77b4; fill-opacity: 0.2; stroke: #1f77b4; stroke-opacity: 0.2"/>
    </g>
   </g>
   <g id="PolyCollection_2">
    <defs>
     <path id="m4fc71d8667" d="M 48.851283 -329.973156 
L 48.851283 -276.159421 
L 60.011283 -253.74922 
L 71.171283 -222.751848 
L 82.331283 -203.037411 
L 93.491283 -207.746456 
L 104.651283 -223.032735 
L 115.811283 -230.236141 
L 126.971283 -226.989515 
L 138.131283 -223.980335 
L 149.291283 -223.324067 
L 160.451283 -219.698177 
L 171.611283 -209.199127 
L 182.771283 -198.123183 
L 193.931283 -193.908613 
L 205.091283 -189.18383 
L 216.251283 -181.177729 
L 227.411283 -175.891513 
L 238.571283 -171.607989 
L 249.731283 -170.227698 
L 260.891283 -159.474192 
L 272.051283 -146.013905 
L 283.211283 -139.616684 
L 294.371283 -136.329621 
L 305.531283 -131.602227 
L 316.691283 -131.490936 
L 327.851283 -129.350912 
L 339.011283 -126.994285 
L 350.171283 -120.573269 
L 361.331283 -109.414499 
L 372.491283 -104.549836 
L 383.651283 -100.052744 
L 394.811283 -94.304049 
L 405.971283 -91.820141 
L 405.971283 -113.56451 
L 405.971283 -113.56451 
L 394.811283 -115.915346 
L 383.651283 -120.746489 
L 372.491283 -123.861153 
L 361.331283 -128.624088 
L 350.171283 -140.794146 
L 339.011283 -149.245761 
L 327.851283 -153.207104 
L 316.691283 -155.677322 
L 305.531283 -155.454272 
L 294.371283 -160.38206 
L 283.211283 -164.556732 
L 272.051283 -171.769358 
L 260.891283 -186.175334 
L 249.731283 -198.416477 
L 238.571283 -201.396586 
L 227.411283 -207.078371 
L 216.251283 -213.043086 
L 205.091283 -221.804737 
L 193.931283 -227.144187 
L 182.771283 -232.572344 
L 171.611283 -245.127801 
L 160.451283 -256.093761 
L 149.291283 -259.882737 
L 138.131283 -260.690135 
L 126.971283 -263.576705 
L 115.811283 -265.675164 
L 104.651283 -255.938571 
L 93.491283 -239.624685 
L 82.331283 -235.509197 
L 71.171283 -263.382834 
L 60.011283 -302.604679 
L 48.851283 -329.973156 
z
" style="stroke: #ff7f0e; stroke-opacity: 0.2"/>
    </defs>
    <g clip-path="url(#p441e903ccc)">
     <use xlink:href="#m4fc71d8667" x="0" y="361.333136" style="fill: #ff7f0e; fill-opacity: 0.2; stroke: #ff7f0e; stroke-opacity: 0.2"/>
    </g>
   </g>
   <g id="matplotlib.axis_1">
    <g id="text_1">
     <text style="font: 10px 'Arial', sans-serif; text-anchor: middle" x="227.411283" y="296.533792" transform="rotate(-0 227.411283 296.533792)">Time</text>
    </g>
   </g>
   <g id="matplotlib.axis_2">
    <g id="ytick_1">
     <g id="line2d_1">
      <defs>
       <path id="m7eb541e552" d="M 0 0 
L -3.5 0 
" style="stroke: #000000; stroke-width: 0.8"/>
      </defs>
      <g>
       <use xlink:href="#m7eb541e552" x="48.851283" y="257.869384" style="stroke: #000000; stroke-width: 0.8"/>
      </g>
     </g>
     <g id="text_2">
      <text style="font: 10px 'Arial', sans-serif; text-anchor: end" x="41.851283" y="261.448291" transform="rotate(-0 41.851283 261.448291)">−0.4</text>
     </g>
    </g>
    <g id="ytick_2">
     <g id="line2d_2">
      <g>
       <use xlink:href="#m7eb541e552" x="48.851283" y="205.906668" style="stroke: #000000; stroke-width: 0.8"/>
      </g>
     </g>
     <g id="text_3">
      <text style="font: 10px 'Arial', sans-serif; text-anchor: end" x="41.851283" y="209.485575" transform="rotate(-0 41.851283 209.485575)">−0.2</text>
     </g>
    </g>
    <g id="ytick_3">
     <g id="line2d_3">
      <g>
       <use xlink:href="#m7eb541e552" x="48.851283" y="153.943952" style="stroke: #000000; stroke-width: 0.8"/>
      </g>
     </g>
     <g id="text_4">
      <text style="font: 10px 'Arial', sans-serif; text-anchor: end" x="41.851283" y="157.522859" transform="rotate(-0 41.851283 157.522859)">0.0</text>
     </g>
    </g>
    <g id="ytick_4">
     <g id="line2d_4">
      <g>
       <use xlink:href="#m7eb541e552" x="48.851283" y="101.981236" style="stroke: #000000; stroke-width: 0.8"/>
      </g>
     </g>
     <g id="text_5">
      <text style="font: 10px 'Arial', sans-serif; text-anchor: end" x="41.851283" y="105.560143" transform="rotate(-0 41.851283 105.560143)">0.2</text>
     </g>
    </g>
    <g id="ytick_5">
     <g id="line2d_5">
      <g>
       <use xlink:href="#m7eb541e552" x="48.851283" y="50.01852" style="stroke: #000000; stroke-width: 0.8"/>
      </g>
     </g>
     <g id="text_6">
      <text style="font: 10px 'Arial', sans-serif; text-anchor: end" x="41.851283" y="53.597427" transform="rotate(-0 41.851283 53.597427)">0.4</text>
     </g>
    </g>
    <g id="text_7">
     <text style="font: 10px 'Arial', sans-serif; text-anchor: middle" x="16.005971" y="152.31998" transform="rotate(-90 16.005971 152.31998)">Activity</text>
    </g>
   </g>
   <g id="line2d_6">
    <path d="M 48.851283 105.715824 
L 60.011283 121.367753 
L 71.171283 146.639762 
L 82.331283 168.812665 
L 93.491283 167.921199 
L 104.651283 159.214932 
L 115.811283 153.837284 
L 126.971283 155.617508 
L 138.131283 161.04941 
L 149.291283 161.169608 
L 160.451283 161.011881 
L 171.611283 161.892061 
L 182.771283 168.660701 
L 193.931283 175.925808 
L 205.091283 180.226361 
L 216.251283 184.129436 
L 227.411283 184.911518 
L 238.571283 190.015585 
L 249.731283 197.889149 
L 260.891283 204.713431 
L 272.051283 208.500153 
L 283.211283 215.269396 
L 294.371283 219.92588 
L 305.531283 220.116908 
L 316.691283 220.826381 
L 327.851283 223.859077 
L 339.011283 229.159379 
L 350.171283 233.825077 
L 361.331283 237.913522 
L 372.491283 242.315794 
L 383.651283 251.848214 
L 394.811283 258.375146 
L 405.971283 261.393952 
" clip-path="url(#p441e903ccc)" style="fill: none; stroke: #1f77b4; stroke-width: 1.5; stroke-linecap: square"/>
   </g>
   <g id="line2d_7">
    <path d="M 48.851283 58.266847 
L 60.011283 83.156186 
L 71.171283 118.265795 
L 82.331283 142.059832 
L 93.491283 137.647566 
L 104.651283 121.847483 
L 115.811283 113.377485 
L 126.971283 116.050025 
L 138.131283 118.9979 
L 149.291283 119.729734 
L 160.451283 123.437168 
L 171.611283 134.169673 
L 182.771283 145.985372 
L 193.931283 150.806736 
L 205.091283 155.838853 
L 216.251283 164.222729 
L 227.411283 169.848193 
L 238.571283 174.830848 
L 249.731283 177.011048 
L 260.891283 188.508373 
L 272.051283 202.441504 
L 283.211283 209.246428 
L 294.371283 212.977295 
L 305.531283 217.804889 
L 316.691283 217.749007 
L 327.851283 220.054128 
L 339.011283 223.213113 
L 350.171283 230.649428 
L 361.331283 242.313842 
L 372.491283 247.127641 
L 383.651283 250.93352 
L 394.811283 256.223439 
L 405.971283 258.64081 
" clip-path="url(#p441e903ccc)" style="fill: none; stroke: #ff7f0e; stroke-width: 1.5; stroke-linecap: square"/>
   </g>
   <g id="line2d_8">
    <path d="M 82.331283 285.37598 
L 82.331283 19.26398 
" clip-path="url(#p441e903ccc)" style="fill: none; stroke-dasharray: 5.55,2.4; stroke-dashoffset: 0; stroke: #000000; stroke-opacity: 0.5; stroke-width: 1.5"/>
   </g>
   <g id="line2d_9">
    <path d="M 383.651283 285.37598 
L 383.651283 19.26398 
" clip-path="url(#p441e903ccc)" style="fill: none; stroke-dasharray: 5.55,2.4; stroke-dashoffset: 0; stroke: #000000; stroke-opacity: 0.5; stroke-width: 1.5"/>
   </g>
   <g id="patch_3">
    <path d="M 48.851283 285.37598 
L 405.971283 285.37598 
" style="fill: none; stroke: #000000; stroke-width: 0.8; stroke-linejoin: miter; stroke-linecap: square"/>
   </g>
   <g id="text_8">
    <text style="font: 6.94px 'Arial', sans-serif" transform="translate(10.097767 321.385533) rotate(-35)">-0.1s Sampling</text>
   </g>
   <g id="text_9">
    <text style="font: 6.94px 'Arial', sans-serif" transform="translate(57.794497 311.430872) rotate(-35)">Sampling</text>
   </g>
   <g id="text_10">
    <text style="font: 6.94px 'Arial', sans-serif" transform="translate(319.037191 339.456682) rotate(-35)">Movement to Lateral Port</text>
   </g>
   <g id="text_11">
    <text style="font: 8.33px 'Arial', sans-serif; text-anchor: middle" x="227.411283" y="13.26398" transform="rotate(-0 227.411283 13.26398)">GP4_28_S1_L41_D250_M2L - Trace:1_GP4_28_S1_L41_D250_M2L (when: correct)</text>
   </g>
   <g id="legend_1">
    <g id="patch_4">
     <path d="M 130.092964 354.133136 
L 324.729602 354.133136 
Q 326.117602 354.133136 326.117602 352.745136 
L 326.117602 343.45638 
Q 326.117602 342.06838 324.729602 342.06838 
L 130.092964 342.06838 
Q 128.704964 342.06838 128.704964 343.45638 
L 128.704964 352.745136 
Q 128.704964 354.133136 130.092964 354.133136 
z
" style="fill: #ffffff; opacity: 0.8; stroke: #cccccc; stroke-linejoin: miter"/>
    </g>
    <g id="line2d_10">
     <path d="M 131.480964 347.467483 
L 138.420964 347.467483 
L 145.360964 347.467483 
" style="fill: none; stroke: #1f77b4; stroke-width: 1.5; stroke-linecap: square"/>
    </g>
    <g id="text_12">
     <text style="font: 6.94px 'Arial', sans-serif; text-anchor: start" x="150.912964" y="349.896483" transform="rotate(-0 150.912964 349.896483)">DecisionRight (133 pts)</text>
    </g>
    <g id="line2d_11">
     <path d="M 236.920167 347.467483 
L 243.860167 347.467483 
L 250.800167 347.467483 
" style="fill: none; stroke: #ff7f0e; stroke-width: 1.5; stroke-linecap: square"/>
    </g>
    <g id="text_13">
     <text style="font: 6.94px 'Arial', sans-serif; text-anchor: start" x="256.352167" y="349.896483" transform="rotate(-0 256.352167 349.896483)">DecisionLeft (117 pts)</text>
    </g>
   </g>
  </g>
 </g>
 <defs>
  <clipPath id="p441e903ccc">
   <rect x="48.851283" y="19.26398" width="357.12" height="266.112"/>
  </clipPath>
 </defs>
</svg>
