<?xml version="1.0" encoding="utf-8" standalone="no"?>
<!DOCTYPE svg PUBLIC "-//W3C//DTD SVG 1.1//EN"
  "http://www.w3.org/Graphics/SVG/1.1/DTD/svg11.dtd">
<svg xmlns:xlink="http://www.w3.org/1999/xlink" width="413.171283pt" height="361.333136pt" viewBox="0 0 413.171283 361.333136" xmlns="http://www.w3.org/2000/svg" version="1.1">
 <metadata>
  <rdf:RDF xmlns:dc="http://purl.org/dc/elements/1.1/" xmlns:cc="http://creativecommons.org/ns#" xmlns:rdf="http://www.w3.org/1999/02/22-rdf-syntax-ns#">
   <cc:Work>
    <dc:type rdf:resource="http://purl.org/dc/dcmitype/StillImage"/>
    <dc:date>2025-12-29T04:07:19.447296</dc:date>
    <dc:format>image/svg+xml</dc:format>
    <dc:creator>
     <cc:Agent>
      <dc:title>Matplotlib v3.8.0, https://matplotlib.org/</dc:title>
     </cc:Agent>
    </dc:creator>
   </cc:Work>
  </rdf:RDF>
 </metadata>
 <defs>
  <style type="text/css">*{stroke-linejoin: round; stroke-linecap: butt}</style>
 </defs>
 <g id="figure_1">
  <g id="patch_1">
   <path d="M 0 361.333136 
L 413.171283 361.333136 
L 413.171283 -0 
L 0 -0 
z
" style="fill: #ffffff"/>
  </g>
  <g id="axes_1">
   <g id="patch_2">
    <path d="M 48.851283 285.37598 
L 405.971283 285.37598 
L 405.971283 19.26398 
L 48.851283 19.26398 
z
" style="fill: #ffffff"/>
   </g>
   <g id="PolyCollection_1">
    <defs>
     <path id="m918780c57f" d="M 48.851283 -119.921274 
L 48.851283 -90.448414 
L 60.011283 -98.476117 
L 71.171283 -115.190141 
L 82.331283 -147.570418 
L 93.491283 -174.908525 
L 104.651283 -207.685153 
L 115.811283 -236.583319 
L 126.971283 -255.206129 
L 138.131283 -265.84229 
L 149.291283 -272.112798 
L 160.451283 -271.211181 
L 171.611283 -266.555401 
L 182.771283 -263.257554 
L 193.931283 -259.287805 
L 205.091283 -255.372321 
L 216.251283 -249.35595 
L 227.411283 -245.264904 
L 238.571283 -238.265545 
L 249.731283 -234.392527 
L 260.891283 -224.59849 
L 272.051283 -215.766156 
L 283.211283 -208.194205 
L 294.371283 -204.615829 
L 305.531283 -205.070095 
L 316.691283 -198.384859 
L 327.851283 -184.429343 
L 339.011283 -169.440752 
L 350.171283 -163.786241 
L 361.331283 -164.913867 
L 372.491283 -158.458318 
L 383.651283 -137.084902 
L 394.811283 -121.668259 
L 405.971283 -115.741621 
L 405.971283 -144.285176 
L 405.971283 -144.285176 
L 394.811283 -151.932284 
L 383.651283 -171.883347 
L 372.491283 -197.575505 
L 361.331283 -205.441695 
L 350.171283 -204.633435 
L 339.011283 -211.233172 
L 327.851283 -228.536702 
L 316.691283 -244.669875 
L 305.531283 -253.622864 
L 294.371283 -254.825085 
L 283.211283 -259.271905 
L 272.051283 -268.452017 
L 260.891283 -279.922408 
L 249.731283 -291.422579 
L 238.571283 -295.875798 
L 227.411283 -302.166861 
L 216.251283 -305.139488 
L 205.091283 -310.937254 
L 193.931283 -314.843852 
L 182.771283 -319.309837 
L 171.611283 -323.954801 
L 160.451283 -329.572522 
L 149.291283 -329.973156 
L 138.131283 -322.303734 
L 126.971283 -309.097569 
L 115.811283 -287.139696 
L 104.651283 -252.141622 
L 93.491283 -211.378729 
L 82.331283 -180.402853 
L 71.171283 -143.568146 
L 60.011283 -126.904511 
L 48.851283 -119.921274 
z
" style="stroke: #1f77b4; stroke-opacity: 0.2"/>
    </defs>
    <g clip-path="url(#pe9fd62ec23)">
     <use xlink:href="#m918780c57f" x="0" y="361.333136" style="fill: #1f77b4; fill-opacity: 0.2; stroke: #1f77b4; stroke-opacity: 0.2"/>
    </g>
   </g>
   <g id="PolyCollection_2">
    <defs>
     <path id="m22593307c2" d="M 48.851283 -115.14166 
L 48.851283 -94.389838 
L 60.011283 -106.97026 
L 71.171283 -125.696231 
L 82.331283 -161.577624 
L 93.491283 -189.28514 
L 104.651283 -217.699115 
L 115.811283 -233.960707 
L 126.971283 -239.842125 
L 138.131283 -241.576145 
L 149.291283 -242.837977 
L 160.451283 -239.185173 
L 171.611283 -239.856934 
L 182.771283 -233.626499 
L 193.931283 -216.911725 
L 205.091283 -207.413061 
L 216.251283 -205.25582 
L 227.411283 -197.231296 
L 238.571283 -192.18848 
L 249.731283 -186.83294 
L 260.891283 -177.304248 
L 272.051283 -175.665356 
L 283.211283 -173.014393 
L 294.371283 -164.625229 
L 305.531283 -157.015009 
L 316.691283 -153.346807 
L 327.851283 -149.495724 
L 339.011283 -147.432339 
L 350.171283 -145.940536 
L 361.331283 -141.152922 
L 372.491283 -136.012759 
L 383.651283 -114.606412 
L 394.811283 -99.407017 
L 405.971283 -88.053156 
L 405.971283 -106.977951 
L 405.971283 -106.977951 
L 394.811283 -125.217605 
L 383.651283 -146.831101 
L 372.491283 -171.488035 
L 361.331283 -176.228039 
L 350.171283 -181.854577 
L 339.011283 -184.137059 
L 327.851283 -187.43187 
L 316.691283 -192.088966 
L 305.531283 -197.179741 
L 294.371283 -205.367484 
L 283.211283 -213.257075 
L 272.051283 -214.375677 
L 260.891283 -217.250874 
L 249.731283 -228.124208 
L 238.571283 -234.974971 
L 227.411283 -240.909415 
L 216.251283 -251.287523 
L 205.091283 -256.018261 
L 193.931283 -266.5618 
L 182.771283 -283.087445 
L 171.611283 -288.401494 
L 160.451283 -288.091795 
L 149.291283 -291.097476 
L 138.131283 -288.299649 
L 126.971283 -284.358388 
L 115.811283 -275.002053 
L 104.651283 -253.101219 
L 93.491283 -218.999549 
L 82.331283 -190.15932 
L 71.171283 -151.405153 
L 60.011283 -129.305077 
L 48.851283 -115.14166 
z
" style="stroke: #ff7f0e; stroke-opacity: 0.2"/>
    </defs>
    <g clip-path="url(#pe9fd62ec23)">
     <use xlink:href="#m22593307c2" x="0" y="361.333136" style="fill: #ff7f0e; fill-opacity: 0.2; stroke: #ff7f0e; stroke-opacity: 0.2"/>
    </g>
   </g>
   <g id="matplotlib.axis_1">
    <g id="text_1">
     <text style="font: 10px 'Arial', sans-serif; text-anchor: middle" x="227.411283" y="296.533792" transform="rotate(-0 227.411283 296.533792)">Time</text>
    </g>
   </g>
   <g id="matplotlib.axis_2">
    <g id="ytick_1">
     <g id="line2d_1">
      <defs>
       <path id="mef894efa72" d="M 0 0 
L -3.5 0 
" style="stroke: #000000; stroke-width: 0.8"/>
      </defs>
      <g>
       <use xlink:href="#mef894efa72" x="48.851283" y="256.993221" style="stroke: #000000; stroke-width: 0.8"/>
      </g>
     </g>
     <g id="text_2">
      <text style="font: 10px 'Arial', sans-serif; text-anchor: end" x="41.851283" y="260.572127" transform="rotate(-0 41.851283 260.572127)">−0.4</text>
     </g>
    </g>
    <g id="ytick_2">
     <g id="line2d_2">
      <g>
       <use xlink:href="#mef894efa72" x="48.851283" y="205.069436" style="stroke: #000000; stroke-width: 0.8"/>
      </g>
     </g>
     <g id="text_3">
      <text style="font: 10px 'Arial', sans-serif; text-anchor: end" x="41.851283" y="208.648343" transform="rotate(-0 41.851283 208.648343)">−0.2</text>
     </g>
    </g>
    <g id="ytick_3">
     <g id="line2d_3">
      <g>
       <use xlink:href="#mef894efa72" x="48.851283" y="153.145652" style="stroke: #000000; stroke-width: 0.8"/>
      </g>
     </g>
     <g id="text_4">
      <text style="font: 10px 'Arial', sans-serif; text-anchor: end" x="41.851283" y="156.724558" transform="rotate(-0 41.851283 156.724558)">0.0</text>
     </g>
    </g>
    <g id="ytick_4">
     <g id="line2d_4">
      <g>
       <use xlink:href="#mef894efa72" x="48.851283" y="101.221868" style="stroke: #000000; stroke-width: 0.8"/>
      </g>
     </g>
     <g id="text_5">
      <text style="font: 10px 'Arial', sans-serif; text-anchor: end" x="41.851283" y="104.800774" transform="rotate(-0 41.851283 104.800774)">0.2</text>
     </g>
    </g>
    <g id="ytick_5">
     <g id="line2d_5">
      <g>
       <use xlink:href="#mef894efa72" x="48.851283" y="49.298084" style="stroke: #000000; stroke-width: 0.8"/>
      </g>
     </g>
     <g id="text_6">
      <text style="font: 10px 'Arial', sans-serif; text-anchor: end" x="41.851283" y="52.87699" transform="rotate(-0 41.851283 52.87699)">0.4</text>
     </g>
    </g>
    <g id="text_7">
     <text style="font: 10px 'Arial', sans-serif; text-anchor: middle" x="16.005971" y="152.31998" transform="rotate(-90 16.005971 152.31998)">Activity</text>
    </g>
   </g>
   <g id="line2d_6">
    <path d="M 48.851283 256.148292 
L 60.011283 248.642822 
L 71.171283 231.953991 
L 82.331283 197.3465 
L 93.491283 168.189508 
L 104.651283 131.41975 
L 115.811283 99.471629 
L 126.971283 79.181287 
L 138.131283 67.260124 
L 149.291283 60.290157 
L 160.451283 60.941285 
L 171.611283 66.078035 
L 182.771283 70.04944 
L 193.931283 74.267307 
L 205.091283 78.178346 
L 216.251283 84.085417 
L 227.411283 87.617253 
L 238.571283 94.262465 
L 249.731283 98.425584 
L 260.891283 109.072685 
L 272.051283 119.22405 
L 283.211283 127.600082 
L 294.371283 131.612678 
L 305.531283 131.986656 
L 316.691283 139.805769 
L 327.851283 154.850114 
L 339.011283 170.996175 
L 350.171283 177.123299 
L 361.331283 176.155356 
L 372.491283 183.316224 
L 383.651283 206.849012 
L 394.811283 224.532865 
L 405.971283 231.319738 
" clip-path="url(#pe9fd62ec23)" style="fill: none; stroke: #1f77b4; stroke-width: 1.5; stroke-linecap: square"/>
   </g>
   <g id="line2d_7">
    <path d="M 48.851283 256.567387 
L 60.011283 243.195467 
L 71.171283 222.782444 
L 82.331283 185.464664 
L 93.491283 157.190792 
L 104.651283 125.932968 
L 115.811283 106.851755 
L 126.971283 99.23288 
L 138.131283 96.395237 
L 149.291283 94.365409 
L 160.451283 97.694654 
L 171.611283 97.203923 
L 182.771283 102.976164 
L 193.931283 119.596374 
L 205.091283 129.617476 
L 216.251283 133.061466 
L 227.411283 142.26278 
L 238.571283 147.75141 
L 249.731283 153.854562 
L 260.891283 164.055575 
L 272.051283 166.312619 
L 283.211283 168.197402 
L 294.371283 176.336781 
L 305.531283 184.235761 
L 316.691283 188.61525 
L 327.851283 192.869339 
L 339.011283 195.548438 
L 350.171283 197.435579 
L 361.331283 202.642658 
L 372.491283 207.582739 
L 383.651283 230.614379 
L 394.811283 249.020825 
L 405.971283 263.817582 
" clip-path="url(#pe9fd62ec23)" style="fill: none; stroke: #ff7f0e; stroke-width: 1.5; stroke-linecap: square"/>
   </g>
   <g id="line2d_8">
    <path d="M 82.331283 285.37598 
L 82.331283 19.26398 
" clip-path="url(#pe9fd62ec23)" style="fill: none; stroke-dasharray: 5.55,2.4; stroke-dashoffset: 0; stroke: #000000; stroke-opacity: 0.5; stroke-width: 1.5"/>
   </g>
   <g id="line2d_9">
    <path d="M 383.651283 285.37598 
L 383.651283 19.26398 
" clip-path="url(#pe9fd62ec23)" style="fill: none; stroke-dasharray: 5.55,2.4; stroke-dashoffset: 0; stroke: #000000; stroke-opacity: 0.5; stroke-width: 1.5"/>
   </g>
   <g id="patch_3">
    <path d="M 48.851283 285.37598 
L 405.971283 285.37598 
" style="fill: none; stroke: #000000; stroke-width: 0.8; stroke-linejoin: miter; stroke-linecap: square"/>
   </g>
   <g id="text_8">
    <text style="font: 6.94px 'Arial', sans-serif" transform="translate(10.097767 321.385533) rotate(-35)">-0.1s Sampling</text>
   </g>
   <g id="text_9">
    <text style="font: 6.94px 'Arial', sans-serif" transform="translate(57.794497 311.430872) rotate(-35)">Sampling</text>
   </g>
   <g id="text_10">
    <text style="font: 6.94px 'Arial', sans-serif" transform="translate(319.037191 339.456682) rotate(-35)">Movement to Lateral Port</text>
   </g>
   <g id="text_11">
    <text style="font: 8.33px 'Arial', sans-serif; text-anchor: middle" x="227.411283" y="13.26398" transform="rotate(-0 227.411283 13.26398)">GP4_28_S1_L41_D250_M2L - Trace:24_GP4_28_S1_L41_D250_M2L (when: correct)</text>
   </g>
   <g id="legend_1">
    <g id="patch_4">
     <path d="M 130.092964 354.133136 
L 324.729602 354.133136 
Q 326.117602 354.133136 326.117602 352.745136 
L 326.117602 343.45638 
Q 326.117602 342.06838 324.729602 342.06838 
L 130.092964 342.06838 
Q 128.704964 342.06838 128.704964 343.45638 
L 128.704964 352.745136 
Q 128.704964 354.133136 130.092964 354.133136 
z
" style="fill: #ffffff; opacity: 0.8; stroke: #cccccc; stroke-linejoin: miter"/>
    </g>
    <g id="line2d_10">
     <path d="M 131.480964 347.467483 
L 138.420964 347.467483 
L 145.360964 347.467483 
" style="fill: none; stroke: #1f77b4; stroke-width: 1.5; stroke-linecap: square"/>
    </g>
    <g id="text_12">
     <text style="font: 6.94px 'Arial', sans-serif; text-anchor: start" x="150.912964" y="349.896483" transform="rotate(-0 150.912964 349.896483)">DecisionRight (133 pts)</text>
    </g>
    <g id="line2d_11">
     <path d="M 236.920167 347.467483 
L 243.860167 347.467483 
L 250.800167 347.467483 
" style="fill: none; stroke: #ff7f0e; stroke-width: 1.5; stroke-linecap: square"/>
    </g>
    <g id="text_13">
     <text style="font: 6.94px 'Arial', sans-serif; text-anchor: start" x="256.352167" y="349.896483" transform="rotate(-0 256.352167 349.896483)">DecisionLeft (117 pts)</text>
    </g>
   </g>
  </g>
 </g>
 <defs>
  <clipPath id="pe9fd62ec23">
   <rect x="48.851283" y="19.26398" width="357.12" height="266.112"/>
  </clipPath>
 </defs>
</svg>
