<?xml version="1.0" encoding="utf-8" standalone="no"?>
<!DOCTYPE svg PUBLIC "-//W3C//DTD SVG 1.1//EN"
  "http://www.w3.org/Graphics/SVG/1.1/DTD/svg11.dtd">
<svg xmlns:xlink="http://www.w3.org/1999/xlink" width="413.171283pt" height="361.333136pt" viewBox="0 0 413.171283 361.333136" xmlns="http://www.w3.org/2000/svg" version="1.1">
 <metadata>
  <rdf:RDF xmlns:dc="http://purl.org/dc/elements/1.1/" xmlns:cc="http://creativecommons.org/ns#" xmlns:rdf="http://www.w3.org/1999/02/22-rdf-syntax-ns#">
   <cc:Work>
    <dc:type rdf:resource="http://purl.org/dc/dcmitype/StillImage"/>
    <dc:date>2025-12-29T04:07:20.348473</dc:date>
    <dc:format>image/svg+xml</dc:format>
    <dc:creator>
     <cc:Agent>
      <dc:title>Matplotlib v3.8.0, https://matplotlib.org/</dc:title>
     </cc:Agent>
    </dc:creator>
   </cc:Work>
  </rdf:RDF>
 </metadata>
 <defs>
  <style type="text/css">*{stroke-linejoin: round; stroke-linecap: butt}</style>
 </defs>
 <g id="figure_1">
  <g id="patch_1">
   <path d="M 0 361.333136 
L 413.171283 361.333136 
L 413.171283 -0 
L 0 -0 
z
" style="fill: #ffffff"/>
  </g>
  <g id="axes_1">
   <g id="patch_2">
    <path d="M 48.851283 285.37598 
L 405.971283 285.37598 
L 405.971283 19.26398 
L 48.851283 19.26398 
z
" style="fill: #ffffff"/>
   </g>
   <g id="PolyCollection_1">
    <defs>
     <path id="m758b7f1395" d="M 48.851283 -105.742953 
L 48.851283 -99.00059 
L 60.011283 -98.369875 
L 71.171283 -98.455155 
L 82.331283 -102.830569 
L 93.491283 -110.90263 
L 104.651283 -127.236162 
L 115.811283 -145.996565 
L 126.971283 -159.235132 
L 138.131283 -173.030254 
L 149.291283 -188.345689 
L 160.451283 -202.975731 
L 171.611283 -215.93319 
L 182.771283 -226.737469 
L 193.931283 -232.85635 
L 205.091283 -235.645682 
L 216.251283 -238.809486 
L 227.411283 -238.891339 
L 238.571283 -237.080372 
L 249.731283 -237.860416 
L 260.891283 -238.050848 
L 272.051283 -238.353079 
L 283.211283 -238.962904 
L 294.371283 -236.442699 
L 305.531283 -234.634101 
L 316.691283 -231.068141 
L 327.851283 -226.447342 
L 339.011283 -226.192501 
L 350.171283 -227.054662 
L 361.331283 -233.748524 
L 372.491283 -245.837073 
L 383.651283 -278.437524 
L 394.811283 -298.684219 
L 405.971283 -292.798697 
L 405.971283 -323.119863 
L 405.971283 -323.119863 
L 394.811283 -329.973156 
L 383.651283 -307.095602 
L 372.491283 -269.498105 
L 361.331283 -256.271089 
L 350.171283 -248.02012 
L 339.011283 -246.420501 
L 327.851283 -246.419984 
L 316.691283 -252.027372 
L 305.531283 -256.456923 
L 294.371283 -258.590833 
L 283.211283 -261.355814 
L 272.051283 -260.706789 
L 260.891283 -259.877056 
L 249.731283 -259.98631 
L 238.571283 -260.367878 
L 227.411283 -262.665976 
L 216.251283 -262.982899 
L 205.091283 -259.717536 
L 193.931283 -256.450997 
L 182.771283 -250.22734 
L 171.611283 -238.936884 
L 160.451283 -224.876284 
L 149.291283 -208.745061 
L 138.131283 -191.386675 
L 126.971283 -175.994379 
L 115.811283 -161.220287 
L 104.651283 -138.607993 
L 93.491283 -119.041093 
L 82.331283 -108.863388 
L 71.171283 -104.389678 
L 60.011283 -104.537217 
L 48.851283 -105.742953 
z
" style="stroke: #1f77b4; stroke-opacity: 0.2"/>
    </defs>
    <g clip-path="url(#pa356d5eb7e)">
     <use xlink:href="#m758b7f1395" x="0" y="361.333136" style="fill: #1f77b4; fill-opacity: 0.2; stroke: #1f77b4; stroke-opacity: 0.2"/>
    </g>
   </g>
   <g id="PolyCollection_2">
    <defs>
     <path id="mbb95ade787" d="M 48.851283 -94.281922 
L 48.851283 -89.934053 
L 60.011283 -89.378768 
L 71.171283 -88.053156 
L 82.331283 -91.868243 
L 93.491283 -101.770339 
L 104.651283 -120.030046 
L 115.811283 -143.165141 
L 126.971283 -164.163202 
L 138.131283 -182.294262 
L 149.291283 -199.448471 
L 160.451283 -214.058178 
L 171.611283 -223.423634 
L 182.771283 -232.292029 
L 193.931283 -237.234419 
L 205.091283 -242.521598 
L 216.251283 -247.131468 
L 227.411283 -249.340499 
L 238.571283 -250.624229 
L 249.731283 -246.663514 
L 260.891283 -239.132859 
L 272.051283 -235.747194 
L 283.211283 -235.638204 
L 294.371283 -232.125572 
L 305.531283 -226.786735 
L 316.691283 -219.235556 
L 327.851283 -212.315666 
L 339.011283 -208.591538 
L 350.171283 -205.469474 
L 361.331283 -202.423008 
L 372.491283 -204.227802 
L 383.651283 -228.342743 
L 394.811283 -251.453268 
L 405.971283 -257.407668 
L 405.971283 -289.896172 
L 405.971283 -289.896172 
L 394.811283 -282.335569 
L 383.651283 -254.71347 
L 372.491283 -225.40863 
L 361.331283 -222.578533 
L 350.171283 -225.818875 
L 339.011283 -230.440638 
L 327.851283 -235.258794 
L 316.691283 -243.015954 
L 305.531283 -250.420547 
L 294.371283 -255.661194 
L 283.211283 -258.434864 
L 272.051283 -258.23565 
L 260.891283 -261.730504 
L 249.731283 -270.031562 
L 238.571283 -274.69279 
L 227.411283 -273.776966 
L 216.251283 -271.961025 
L 205.091283 -267.625491 
L 193.931283 -261.364221 
L 182.771283 -255.806228 
L 171.611283 -245.769265 
L 160.451283 -237.435467 
L 149.291283 -221.699211 
L 138.131283 -202.171935 
L 126.971283 -182.142335 
L 115.811283 -157.968682 
L 104.651283 -131.673408 
L 93.491283 -108.88052 
L 82.331283 -96.907145 
L 71.171283 -92.867226 
L 60.011283 -93.793292 
L 48.851283 -94.281922 
z
" style="stroke: #ff7f0e; stroke-opacity: 0.2"/>
    </defs>
    <g clip-path="url(#pa356d5eb7e)">
     <use xlink:href="#mbb95ade787" x="0" y="361.333136" style="fill: #ff7f0e; fill-opacity: 0.2; stroke: #ff7f0e; stroke-opacity: 0.2"/>
    </g>
   </g>
   <g id="matplotlib.axis_1">
    <g id="text_1">
     <text style="font: 10px 'Arial', sans-serif; text-anchor: middle" x="227.411283" y="296.533792" transform="rotate(-0 227.411283 296.533792)">Time</text>
    </g>
   </g>
   <g id="matplotlib.axis_2">
    <g id="ytick_1">
     <g id="line2d_1">
      <defs>
       <path id="m52b353e713" d="M 0 0 
L -3.5 0 
" style="stroke: #000000; stroke-width: 0.8"/>
      </defs>
      <g>
       <use xlink:href="#m52b353e713" x="48.851283" y="265.385458" style="stroke: #000000; stroke-width: 0.8"/>
      </g>
     </g>
     <g id="text_2">
      <text style="font: 10px 'Arial', sans-serif; text-anchor: end" x="41.851283" y="268.964364" transform="rotate(-0 41.851283 268.964364)">−0.5</text>
     </g>
    </g>
    <g id="ytick_2">
     <g id="line2d_2">
      <g>
       <use xlink:href="#m52b353e713" x="48.851283" y="216.069157" style="stroke: #000000; stroke-width: 0.8"/>
      </g>
     </g>
     <g id="text_3">
      <text style="font: 10px 'Arial', sans-serif; text-anchor: end" x="41.851283" y="219.648063" transform="rotate(-0 41.851283 219.648063)">0.0</text>
     </g>
    </g>
    <g id="ytick_3">
     <g id="line2d_3">
      <g>
       <use xlink:href="#m52b353e713" x="48.851283" y="166.752856" style="stroke: #000000; stroke-width: 0.8"/>
      </g>
     </g>
     <g id="text_4">
      <text style="font: 10px 'Arial', sans-serif; text-anchor: end" x="41.851283" y="170.331762" transform="rotate(-0 41.851283 170.331762)">0.5</text>
     </g>
    </g>
    <g id="ytick_4">
     <g id="line2d_4">
      <g>
       <use xlink:href="#m52b353e713" x="48.851283" y="117.436555" style="stroke: #000000; stroke-width: 0.8"/>
      </g>
     </g>
     <g id="text_5">
      <text style="font: 10px 'Arial', sans-serif; text-anchor: end" x="41.851283" y="121.015461" transform="rotate(-0 41.851283 121.015461)">1.0</text>
     </g>
    </g>
    <g id="ytick_5">
     <g id="line2d_5">
      <g>
       <use xlink:href="#m52b353e713" x="48.851283" y="68.120254" style="stroke: #000000; stroke-width: 0.8"/>
      </g>
     </g>
     <g id="text_6">
      <text style="font: 10px 'Arial', sans-serif; text-anchor: end" x="41.851283" y="71.69916" transform="rotate(-0 41.851283 71.69916)">1.5</text>
     </g>
    </g>
    <g id="text_7">
     <text style="font: 10px 'Arial', sans-serif; text-anchor: middle" x="16.005971" y="152.31998" transform="rotate(-90 16.005971 152.31998)">Activity</text>
    </g>
   </g>
   <g id="line2d_6">
    <path d="M 48.851283 258.961364 
L 60.011283 259.87959 
L 71.171283 259.910719 
L 82.331283 255.486157 
L 93.491283 246.361275 
L 104.651283 228.411059 
L 115.811283 207.72471 
L 126.971283 193.718381 
L 138.131283 179.124671 
L 149.291283 162.787761 
L 160.451283 147.407129 
L 171.611283 133.898099 
L 182.771283 122.850731 
L 193.931283 116.679462 
L 205.091283 113.651527 
L 216.251283 110.436946 
L 227.411283 110.554478 
L 238.571283 112.609011 
L 249.731283 112.409773 
L 260.891283 112.369184 
L 272.051283 111.803205 
L 283.211283 111.17378 
L 294.371283 113.816373 
L 305.531283 115.787624 
L 316.691283 119.785382 
L 327.851283 124.899473 
L 339.011283 125.026635 
L 350.171283 123.795745 
L 361.331283 116.323327 
L 372.491283 103.665547 
L 383.651283 68.566573 
L 394.811283 47.004448 
L 405.971283 53.373856 
" clip-path="url(#pa356d5eb7e)" style="fill: none; stroke: #1f77b4; stroke-width: 1.5; stroke-linecap: square"/>
   </g>
   <g id="line2d_7">
    <path d="M 48.851283 269.225148 
L 60.011283 269.747106 
L 71.171283 270.872945 
L 82.331283 266.94544 
L 93.491283 256.007706 
L 104.651283 235.481409 
L 115.811283 210.766224 
L 126.971283 188.180367 
L 138.131283 169.100037 
L 149.291283 150.759295 
L 160.451283 135.586313 
L 171.611283 126.736684 
L 182.771283 117.284008 
L 193.931283 112.033813 
L 205.091283 106.259591 
L 216.251283 101.78689 
L 227.411283 99.774404 
L 238.571283 98.674626 
L 249.731283 102.985598 
L 260.891283 110.901455 
L 272.051283 114.341717 
L 283.211283 114.296602 
L 294.371283 117.439753 
L 305.531283 122.729495 
L 316.691283 130.207381 
L 327.851283 137.545906 
L 339.011283 141.817048 
L 350.171283 145.688961 
L 361.331283 148.832365 
L 372.491283 146.51492 
L 383.651283 119.80503 
L 394.811283 94.438717 
L 405.971283 87.681216 
" clip-path="url(#pa356d5eb7e)" style="fill: none; stroke: #ff7f0e; stroke-width: 1.5; stroke-linecap: square"/>
   </g>
   <g id="line2d_8">
    <path d="M 82.331283 285.37598 
L 82.331283 19.26398 
" clip-path="url(#pa356d5eb7e)" style="fill: none; stroke-dasharray: 5.55,2.4; stroke-dashoffset: 0; stroke: #000000; stroke-opacity: 0.5; stroke-width: 1.5"/>
   </g>
   <g id="line2d_9">
    <path d="M 383.651283 285.37598 
L 383.651283 19.26398 
" clip-path="url(#pa356d5eb7e)" style="fill: none; stroke-dasharray: 5.55,2.4; stroke-dashoffset: 0; stroke: #000000; stroke-opacity: 0.5; stroke-width: 1.5"/>
   </g>
   <g id="patch_3">
    <path d="M 48.851283 285.37598 
L 405.971283 285.37598 
" style="fill: none; stroke: #000000; stroke-width: 0.8; stroke-linejoin: miter; stroke-linecap: square"/>
   </g>
   <g id="text_8">
    <text style="font: 6.94px 'Arial', sans-serif" transform="translate(10.097767 321.385533) rotate(-35)">-0.1s Sampling</text>
   </g>
   <g id="text_9">
    <text style="font: 6.94px 'Arial', sans-serif" transform="translate(57.794497 311.430872) rotate(-35)">Sampling</text>
   </g>
   <g id="text_10">
    <text style="font: 6.94px 'Arial', sans-serif" transform="translate(319.037191 339.456682) rotate(-35)">Movement to Lateral Port</text>
   </g>
   <g id="text_11">
    <text style="font: 8.33px 'Arial', sans-serif; text-anchor: middle" x="227.411283" y="13.26398" transform="rotate(-0 227.411283 13.26398)">GP4_28_S1_L41_D250_M2L - Trace:28_GP4_28_S1_L41_D250_M2L (when: correct)</text>
   </g>
   <g id="legend_1">
    <g id="patch_4">
     <path d="M 130.092964 354.133136 
L 324.729602 354.133136 
Q 326.117602 354.133136 326.117602 352.745136 
L 326.117602 343.45638 
Q 326.117602 342.06838 324.729602 342.06838 
L 130.092964 342.06838 
Q 128.704964 342.06838 128.704964 343.45638 
L 128.704964 352.745136 
Q 128.704964 354.133136 130.092964 354.133136 
z
" style="fill: #ffffff; opacity: 0.8; stroke: #cccccc; stroke-linejoin: miter"/>
    </g>
    <g id="line2d_10">
     <path d="M 131.480964 347.467483 
L 138.420964 347.467483 
L 145.360964 347.467483 
" style="fill: none; stroke: #1f77b4; stroke-width: 1.5; stroke-linecap: square"/>
    </g>
    <g id="text_12">
     <text style="font: 6.94px 'Arial', sans-serif; text-anchor: start" x="150.912964" y="349.896483" transform="rotate(-0 150.912964 349.896483)">DecisionRight (133 pts)</text>
    </g>
    <g id="line2d_11">
     <path d="M 236.920167 347.467483 
L 243.860167 347.467483 
L 250.800167 347.467483 
" style="fill: none; stroke: #ff7f0e; stroke-width: 1.5; stroke-linecap: square"/>
    </g>
    <g id="text_13">
     <text style="font: 6.94px 'Arial', sans-serif; text-anchor: start" x="256.352167" y="349.896483" transform="rotate(-0 256.352167 349.896483)">DecisionLeft (117 pts)</text>
    </g>
   </g>
  </g>
 </g>
 <defs>
  <clipPath id="pa356d5eb7e">
   <rect x="48.851283" y="19.26398" width="357.12" height="266.112"/>
  </clipPath>
 </defs>
</svg>
