<?xml version="1.0" encoding="utf-8" standalone="no"?>
<!DOCTYPE svg PUBLIC "-//W3C//DTD SVG 1.1//EN"
  "http://www.w3.org/Graphics/SVG/1.1/DTD/svg11.dtd">
<svg xmlns:xlink="http://www.w3.org/1999/xlink" width="413.171283pt" height="361.333136pt" viewBox="0 0 413.171283 361.333136" xmlns="http://www.w3.org/2000/svg" version="1.1">
 <metadata>
  <rdf:RDF xmlns:dc="http://purl.org/dc/elements/1.1/" xmlns:cc="http://creativecommons.org/ns#" xmlns:rdf="http://www.w3.org/1999/02/22-rdf-syntax-ns#">
   <cc:Work>
    <dc:type rdf:resource="http://purl.org/dc/dcmitype/StillImage"/>
    <dc:date>2025-12-29T04:07:18.412920</dc:date>
    <dc:format>image/svg+xml</dc:format>
    <dc:creator>
     <cc:Agent>
      <dc:title>Matplotlib v3.8.0, https://matplotlib.org/</dc:title>
     </cc:Agent>
    </dc:creator>
   </cc:Work>
  </rdf:RDF>
 </metadata>
 <defs>
  <style type="text/css">*{stroke-linejoin: round; stroke-linecap: butt}</style>
 </defs>
 <g id="figure_1">
  <g id="patch_1">
   <path d="M 0 361.333136 
L 413.171283 361.333136 
L 413.171283 -0 
L 0 -0 
z
" style="fill: #ffffff"/>
  </g>
  <g id="axes_1">
   <g id="patch_2">
    <path d="M 48.851283 285.37598 
L 405.971283 285.37598 
L 405.971283 19.26398 
L 48.851283 19.26398 
z
" style="fill: #ffffff"/>
   </g>
   <g id="PolyCollection_1">
    <defs>
     <path id="m8204f5fe1c" d="M 48.851283 -192.505164 
L 48.851283 -161.500899 
L 60.011283 -196.739724 
L 71.171283 -233.565878 
L 82.331283 -271.614641 
L 93.491283 -279.179967 
L 104.651283 -281.789346 
L 115.811283 -264.450321 
L 126.971283 -236.643264 
L 138.131283 -203.143242 
L 149.291283 -187.497834 
L 160.451283 -183.654533 
L 171.611283 -170.094178 
L 182.771283 -151.983854 
L 193.931283 -149.501162 
L 205.091283 -154.438732 
L 216.251283 -159.261277 
L 227.411283 -153.11514 
L 238.571283 -142.21658 
L 249.731283 -140.414119 
L 260.891283 -145.418348 
L 272.051283 -139.517984 
L 283.211283 -126.038341 
L 294.371283 -123.401189 
L 305.531283 -139.67975 
L 316.691283 -142.631131 
L 327.851283 -137.681154 
L 339.011283 -133.064901 
L 350.171283 -129.117551 
L 361.331283 -128.9207 
L 372.491283 -119.427991 
L 383.651283 -100.645821 
L 394.811283 -92.093489 
L 405.971283 -111.570206 
L 405.971283 -143.206335 
L 405.971283 -143.206335 
L 394.811283 -125.380209 
L 383.651283 -136.742311 
L 372.491283 -156.522597 
L 361.331283 -165.323612 
L 350.171283 -164.799638 
L 339.011283 -166.973464 
L 327.851283 -170.372185 
L 316.691283 -175.597522 
L 305.531283 -173.889828 
L 294.371283 -157.942161 
L 283.211283 -160.433227 
L 272.051283 -174.321569 
L 260.891283 -181.757725 
L 249.731283 -177.277312 
L 238.571283 -178.758513 
L 227.411283 -189.877754 
L 216.251283 -194.615377 
L 205.091283 -187.192706 
L 193.931283 -179.992428 
L 182.771283 -181.010524 
L 171.611283 -198.829509 
L 160.451283 -215.486162 
L 149.291283 -224.233799 
L 138.131283 -243.17272 
L 126.971283 -280.317345 
L 115.811283 -310.591846 
L 104.651283 -329.973156 
L 93.491283 -327.9008 
L 82.331283 -321.448592 
L 71.171283 -276.180209 
L 60.011283 -233.152907 
L 48.851283 -192.505164 
z
" style="stroke: #1f77b4; stroke-opacity: 0.2"/>
    </defs>
    <g clip-path="url(#pdc5eead3e8)">
     <use xlink:href="#m8204f5fe1c" x="0" y="361.333136" style="fill: #1f77b4; fill-opacity: 0.2; stroke: #1f77b4; stroke-opacity: 0.2"/>
    </g>
   </g>
   <g id="PolyCollection_2">
    <defs>
     <path id="mc639f3fd9e" d="M 48.851283 -209.655604 
L 48.851283 -162.36955 
L 60.011283 -194.952447 
L 71.171283 -235.611566 
L 82.331283 -266.918112 
L 93.491283 -270.719255 
L 104.651283 -236.548821 
L 115.811283 -208.332897 
L 126.971283 -187.942726 
L 138.131283 -169.181364 
L 149.291283 -162.69297 
L 160.451283 -157.931766 
L 171.611283 -141.98978 
L 182.771283 -139.463596 
L 193.931283 -129.160089 
L 205.091283 -131.016711 
L 216.251283 -131.808819 
L 227.411283 -122.9199 
L 238.571283 -118.683613 
L 249.731283 -120.026202 
L 260.891283 -119.606562 
L 272.051283 -125.92159 
L 283.211283 -123.190795 
L 294.371283 -113.745532 
L 305.531283 -111.886683 
L 316.691283 -118.65989 
L 327.851283 -117.871122 
L 339.011283 -119.36682 
L 350.171283 -120.757742 
L 361.331283 -127.053251 
L 372.491283 -120.789816 
L 383.651283 -99.460568 
L 394.811283 -88.053156 
L 405.971283 -107.201079 
L 405.971283 -134.857148 
L 405.971283 -134.857148 
L 394.811283 -114.878056 
L 383.651283 -126.191462 
L 372.491283 -146.71165 
L 361.331283 -154.752153 
L 350.171283 -150.349873 
L 339.011283 -148.622944 
L 327.851283 -146.587729 
L 316.691283 -144.385055 
L 305.531283 -136.572602 
L 294.371283 -139.665253 
L 283.211283 -150.858339 
L 272.051283 -157.269975 
L 260.891283 -151.641029 
L 249.731283 -152.801173 
L 238.571283 -152.638714 
L 227.411283 -155.752065 
L 216.251283 -164.148277 
L 205.091283 -163.861306 
L 193.931283 -161.460349 
L 182.771283 -173.024994 
L 171.611283 -174.643545 
L 160.451283 -188.605613 
L 149.291283 -194.062919 
L 138.131283 -203.126409 
L 126.971283 -227.269875 
L 115.811283 -254.20836 
L 104.651283 -287.712367 
L 93.491283 -326.982908 
L 82.331283 -326.719762 
L 71.171283 -298.087728 
L 60.011283 -251.749252 
L 48.851283 -209.655604 
z
" style="stroke: #ff7f0e; stroke-opacity: 0.2"/>
    </defs>
    <g clip-path="url(#pdc5eead3e8)">
     <use xlink:href="#mc639f3fd9e" x="0" y="361.333136" style="fill: #ff7f0e; fill-opacity: 0.2; stroke: #ff7f0e; stroke-opacity: 0.2"/>
    </g>
   </g>
   <g id="matplotlib.axis_1">
    <g id="text_1">
     <text style="font: 10px 'Arial', sans-serif; text-anchor: middle" x="227.411283" y="296.533792" transform="rotate(-0 227.411283 296.533792)">Time</text>
    </g>
   </g>
   <g id="matplotlib.axis_2">
    <g id="ytick_1">
     <g id="line2d_1">
      <defs>
       <path id="mc350e24e34" d="M 0 0 
L -3.5 0 
" style="stroke: #000000; stroke-width: 0.8"/>
      </defs>
      <g>
       <use xlink:href="#mc350e24e34" x="48.851283" y="276.12672" style="stroke: #000000; stroke-width: 0.8"/>
      </g>
     </g>
     <g id="text_2">
      <text style="font: 10px 'Arial', sans-serif; text-anchor: end" x="41.851283" y="279.705626" transform="rotate(-0 41.851283 279.705626)">−0.5</text>
     </g>
    </g>
    <g id="ytick_2">
     <g id="line2d_2">
      <g>
       <use xlink:href="#mc350e24e34" x="48.851283" y="238.003512" style="stroke: #000000; stroke-width: 0.8"/>
      </g>
     </g>
     <g id="text_3">
      <text style="font: 10px 'Arial', sans-serif; text-anchor: end" x="41.851283" y="241.582418" transform="rotate(-0 41.851283 241.582418)">−0.4</text>
     </g>
    </g>
    <g id="ytick_3">
     <g id="line2d_3">
      <g>
       <use xlink:href="#mc350e24e34" x="48.851283" y="199.880303" style="stroke: #000000; stroke-width: 0.8"/>
      </g>
     </g>
     <g id="text_4">
      <text style="font: 10px 'Arial', sans-serif; text-anchor: end" x="41.851283" y="203.45921" transform="rotate(-0 41.851283 203.45921)">−0.3</text>
     </g>
    </g>
    <g id="ytick_4">
     <g id="line2d_4">
      <g>
       <use xlink:href="#mc350e24e34" x="48.851283" y="161.757095" style="stroke: #000000; stroke-width: 0.8"/>
      </g>
     </g>
     <g id="text_5">
      <text style="font: 10px 'Arial', sans-serif; text-anchor: end" x="41.851283" y="165.336001" transform="rotate(-0 41.851283 165.336001)">−0.2</text>
     </g>
    </g>
    <g id="ytick_5">
     <g id="line2d_5">
      <g>
       <use xlink:href="#mc350e24e34" x="48.851283" y="123.633887" style="stroke: #000000; stroke-width: 0.8"/>
      </g>
     </g>
     <g id="text_6">
      <text style="font: 10px 'Arial', sans-serif; text-anchor: end" x="41.851283" y="127.212793" transform="rotate(-0 41.851283 127.212793)">−0.1</text>
     </g>
    </g>
    <g id="ytick_6">
     <g id="line2d_6">
      <g>
       <use xlink:href="#mc350e24e34" x="48.851283" y="85.510679" style="stroke: #000000; stroke-width: 0.8"/>
      </g>
     </g>
     <g id="text_7">
      <text style="font: 10px 'Arial', sans-serif; text-anchor: end" x="41.851283" y="89.089585" transform="rotate(-0 41.851283 89.089585)">0.0</text>
     </g>
    </g>
    <g id="ytick_7">
     <g id="line2d_7">
      <g>
       <use xlink:href="#mc350e24e34" x="48.851283" y="47.38747" style="stroke: #000000; stroke-width: 0.8"/>
      </g>
     </g>
     <g id="text_8">
      <text style="font: 10px 'Arial', sans-serif; text-anchor: end" x="41.851283" y="50.966377" transform="rotate(-0 41.851283 50.966377)">0.1</text>
     </g>
    </g>
    <g id="text_9">
     <text style="font: 10px 'Arial', sans-serif; text-anchor: middle" x="16.005971" y="152.31998" transform="rotate(-90 16.005971 152.31998)">Activity</text>
    </g>
   </g>
   <g id="line2d_8">
    <path d="M 48.851283 184.330104 
L 60.011283 146.386821 
L 71.171283 106.460093 
L 82.331283 64.80152 
L 93.491283 57.792754 
L 104.651283 55.451883 
L 115.811283 73.812052 
L 126.971283 102.852831 
L 138.131283 138.175155 
L 149.291283 155.467319 
L 160.451283 161.762788 
L 171.611283 176.871293 
L 182.771283 194.83595 
L 193.931283 196.586341 
L 205.091283 190.517417 
L 216.251283 184.394809 
L 227.411283 189.836686 
L 238.571283 200.84559 
L 249.731283 202.48742 
L 260.891283 197.745099 
L 272.051283 204.41336 
L 283.211283 218.097352 
L 294.371283 220.661461 
L 305.531283 204.548347 
L 316.691283 202.21881 
L 327.851283 207.306466 
L 339.011283 211.313953 
L 350.171283 214.374541 
L 361.331283 214.21098 
L 372.491283 223.357842 
L 383.651283 242.63907 
L 394.811283 252.596287 
L 405.971283 233.944866 
" clip-path="url(#pdc5eead3e8)" style="fill: none; stroke: #1f77b4; stroke-width: 1.5; stroke-linecap: square"/>
   </g>
   <g id="line2d_9">
    <path d="M 48.851283 175.320559 
L 60.011283 137.982286 
L 71.171283 94.48349 
L 82.331283 64.514201 
L 93.491283 62.482053 
L 104.651283 99.202542 
L 115.811283 130.062509 
L 126.971283 153.726836 
L 138.131283 175.179249 
L 149.291283 182.955192 
L 160.451283 188.064447 
L 171.611283 203.016473 
L 182.771283 205.088841 
L 193.931283 216.022917 
L 205.091283 213.894127 
L 216.251283 213.354588 
L 227.411283 221.997153 
L 238.571283 225.671973 
L 249.731283 224.919448 
L 260.891283 225.709341 
L 272.051283 219.737354 
L 283.211283 224.308569 
L 294.371283 234.627743 
L 305.531283 237.103493 
L 316.691283 229.810663 
L 327.851283 229.10371 
L 339.011283 227.338254 
L 350.171283 225.779328 
L 361.331283 220.430434 
L 372.491283 227.582403 
L 383.651283 248.507121 
L 394.811283 259.86753 
L 405.971283 240.304022 
" clip-path="url(#pdc5eead3e8)" style="fill: none; stroke: #ff7f0e; stroke-width: 1.5; stroke-linecap: square"/>
   </g>
   <g id="line2d_10">
    <path d="M 82.331283 285.37598 
L 82.331283 19.26398 
" clip-path="url(#pdc5eead3e8)" style="fill: none; stroke-dasharray: 5.55,2.4; stroke-dashoffset: 0; stroke: #000000; stroke-opacity: 0.5; stroke-width: 1.5"/>
   </g>
   <g id="line2d_11">
    <path d="M 383.651283 285.37598 
L 383.651283 19.26398 
" clip-path="url(#pdc5eead3e8)" style="fill: none; stroke-dasharray: 5.55,2.4; stroke-dashoffset: 0; stroke: #000000; stroke-opacity: 0.5; stroke-width: 1.5"/>
   </g>
   <g id="patch_3">
    <path d="M 48.851283 285.37598 
L 405.971283 285.37598 
" style="fill: none; stroke: #000000; stroke-width: 0.8; stroke-linejoin: miter; stroke-linecap: square"/>
   </g>
   <g id="text_10">
    <text style="font: 6.94px 'Arial', sans-serif" transform="translate(10.097767 321.385533) rotate(-35)">-0.1s Sampling</text>
   </g>
   <g id="text_11">
    <text style="font: 6.94px 'Arial', sans-serif" transform="translate(57.794497 311.430872) rotate(-35)">Sampling</text>
   </g>
   <g id="text_12">
    <text style="font: 6.94px 'Arial', sans-serif" transform="translate(319.037191 339.456682) rotate(-35)">Movement to Lateral Port</text>
   </g>
   <g id="text_13">
    <text style="font: 8.33px 'Arial', sans-serif; text-anchor: middle" x="227.411283" y="13.26398" transform="rotate(-0 227.411283 13.26398)">GP4_28_S1_L41_D250_M2L - Trace:34_GP4_28_S1_L41_D250_M2L (when: correct)</text>
   </g>
   <g id="legend_1">
    <g id="patch_4">
     <path d="M 130.092964 354.133136 
L 324.729602 354.133136 
Q 326.117602 354.133136 326.117602 352.745136 
L 326.117602 343.45638 
Q 326.117602 342.06838 324.729602 342.06838 
L 130.092964 342.06838 
Q 128.704964 342.06838 128.704964 343.45638 
L 128.704964 352.745136 
Q 128.704964 354.133136 130.092964 354.133136 
z
" style="fill: #ffffff; opacity: 0.8; stroke: #cccccc; stroke-linejoin: miter"/>
    </g>
    <g id="line2d_12">
     <path d="M 131.480964 347.467483 
L 138.420964 347.467483 
L 145.360964 347.467483 
" style="fill: none; stroke: #1f77b4; stroke-width: 1.5; stroke-linecap: square"/>
    </g>
    <g id="text_14">
     <text style="font: 6.94px 'Arial', sans-serif; text-anchor: start" x="150.912964" y="349.896483" transform="rotate(-0 150.912964 349.896483)">DecisionRight (133 pts)</text>
    </g>
    <g id="line2d_13">
     <path d="M 236.920167 347.467483 
L 243.860167 347.467483 
L 250.800167 347.467483 
" style="fill: none; stroke: #ff7f0e; stroke-width: 1.5; stroke-linecap: square"/>
    </g>
    <g id="text_15">
     <text style="font: 6.94px 'Arial', sans-serif; text-anchor: start" x="256.352167" y="349.896483" transform="rotate(-0 256.352167 349.896483)">DecisionLeft (117 pts)</text>
    </g>
   </g>
  </g>
 </g>
 <defs>
  <clipPath id="pdc5eead3e8">
   <rect x="48.851283" y="19.26398" width="357.12" height="266.112"/>
  </clipPath>
 </defs>
</svg>
