<?xml version="1.0" encoding="utf-8" standalone="no"?>
<!DOCTYPE svg PUBLIC "-//W3C//DTD SVG 1.1//EN"
  "http://www.w3.org/Graphics/SVG/1.1/DTD/svg11.dtd">
<svg xmlns:xlink="http://www.w3.org/1999/xlink" width="417.084062pt" height="361.333136pt" viewBox="0 0 417.084062 361.333136" xmlns="http://www.w3.org/2000/svg" version="1.1">
 <metadata>
  <rdf:RDF xmlns:dc="http://purl.org/dc/elements/1.1/" xmlns:cc="http://creativecommons.org/ns#" xmlns:rdf="http://www.w3.org/1999/02/22-rdf-syntax-ns#">
   <cc:Work>
    <dc:type rdf:resource="http://purl.org/dc/dcmitype/StillImage"/>
    <dc:date>2025-12-29T04:07:19.402184</dc:date>
    <dc:format>image/svg+xml</dc:format>
    <dc:creator>
     <cc:Agent>
      <dc:title>Matplotlib v3.8.0, https://matplotlib.org/</dc:title>
     </cc:Agent>
    </dc:creator>
   </cc:Work>
  </rdf:RDF>
 </metadata>
 <defs>
  <style type="text/css">*{stroke-linejoin: round; stroke-linecap: butt}</style>
 </defs>
 <g id="figure_1">
  <g id="patch_1">
   <path d="M 0 361.333136 
L 417.084062 361.333136 
L 417.084062 -0 
L 0 -0 
z
" style="fill: #ffffff"/>
  </g>
  <g id="axes_1">
   <g id="patch_2">
    <path d="M 52.764063 285.37598 
L 409.884063 285.37598 
L 409.884063 19.26398 
L 52.764063 19.26398 
z
" style="fill: #ffffff"/>
   </g>
   <g id="PolyCollection_1">
    <defs>
     <path id="mb6c411eb6f" d="M 52.764063 -127.10116 
L 52.764063 -117.695162 
L 63.924063 -140.087281 
L 75.084063 -179.163269 
L 86.244063 -240.257164 
L 97.404063 -263.298785 
L 108.564063 -256.095752 
L 119.724063 -236.690107 
L 130.884063 -229.553676 
L 142.044062 -227.105569 
L 153.204063 -217.915592 
L 164.364063 -205.883901 
L 175.524063 -194.195584 
L 186.684063 -183.61465 
L 197.844063 -177.370681 
L 209.004063 -170.298879 
L 220.164062 -164.486674 
L 231.324063 -160.491606 
L 242.484062 -159.633459 
L 253.644063 -154.970038 
L 264.804062 -151.304772 
L 275.964063 -147.622391 
L 287.124063 -141.397313 
L 298.284063 -138.048729 
L 309.444063 -134.42968 
L 320.604062 -130.95476 
L 331.764063 -127.716402 
L 342.924062 -124.820389 
L 354.084063 -123.449879 
L 365.244062 -120.765891 
L 376.404063 -117.766883 
L 387.564062 -105.559293 
L 398.724063 -93.97812 
L 409.884063 -88.173252 
L 409.884063 -95.429763 
L 409.884063 -95.429763 
L 398.724063 -103.015954 
L 387.564062 -117.347179 
L 376.404063 -133.081506 
L 365.244062 -136.630258 
L 354.084063 -140.109742 
L 342.924062 -141.327653 
L 331.764063 -144.328592 
L 320.604062 -147.881375 
L 309.444063 -152.330069 
L 298.284063 -156.884618 
L 287.124063 -161.464027 
L 275.964063 -168.599203 
L 264.804062 -172.902905 
L 253.644063 -177.138131 
L 242.484062 -182.181533 
L 231.324063 -183.438296 
L 220.164062 -188.038074 
L 209.004063 -194.85742 
L 197.844063 -203.536831 
L 186.684063 -211.746807 
L 175.524063 -224.448687 
L 164.364063 -238.828466 
L 153.204063 -253.288092 
L 142.044062 -263.509358 
L 130.884063 -265.970823 
L 119.724063 -272.542673 
L 108.564063 -291.217711 
L 97.404063 -298.114264 
L 86.244063 -270.284127 
L 75.084063 -197.952099 
L 63.924063 -152.311826 
L 52.764063 -127.10116 
z
" style="stroke: #1f77b4; stroke-opacity: 0.2"/>
    </defs>
    <g clip-path="url(#pbedaeee7ae)">
     <use xlink:href="#mb6c411eb6f" x="0" y="361.333136" style="fill: #1f77b4; fill-opacity: 0.2; stroke: #1f77b4; stroke-opacity: 0.2"/>
    </g>
   </g>
   <g id="PolyCollection_2">
    <defs>
     <path id="m3f54c932a7" d="M 52.764063 -134.548225 
L 52.764063 -121.151188 
L 63.924063 -158.970278 
L 75.084063 -210.292988 
L 86.244063 -269.246735 
L 97.404063 -292.58891 
L 108.564063 -289.352564 
L 119.724063 -272.776162 
L 130.884063 -253.951931 
L 142.044062 -241.539863 
L 153.204063 -226.950988 
L 164.364063 -210.037171 
L 175.524063 -203.412171 
L 186.684063 -197.478066 
L 197.844063 -189.802796 
L 209.004063 -181.621467 
L 220.164062 -175.213552 
L 231.324063 -170.835246 
L 242.484062 -165.217389 
L 253.644063 -159.064584 
L 264.804062 -156.707636 
L 275.964063 -152.982988 
L 287.124063 -145.927671 
L 298.284063 -140.849327 
L 309.444063 -138.177272 
L 320.604062 -137.178444 
L 331.764063 -135.030432 
L 342.924062 -133.768778 
L 354.084063 -133.365779 
L 365.244062 -131.819647 
L 376.404063 -128.480425 
L 387.564062 -112.754005 
L 398.724063 -97.298212 
L 409.884063 -88.053156 
L 409.884063 -95.429262 
L 409.884063 -95.429262 
L 398.724063 -107.413699 
L 387.564062 -126.753266 
L 376.404063 -145.378137 
L 365.244062 -149.158356 
L 354.084063 -151.218722 
L 342.924062 -151.728901 
L 331.764063 -153.190304 
L 320.604062 -155.976759 
L 309.444063 -157.616183 
L 298.284063 -161.210885 
L 287.124063 -167.494126 
L 275.964063 -175.586356 
L 264.804062 -180.071404 
L 253.644063 -182.788733 
L 242.484062 -189.67152 
L 231.324063 -195.207889 
L 220.164062 -200.137012 
L 209.004063 -208.311287 
L 197.844063 -217.60785 
L 186.684063 -225.688949 
L 175.524063 -231.864177 
L 164.364063 -239.008031 
L 153.204063 -257.55617 
L 142.044062 -274.735883 
L 130.884063 -289.621374 
L 119.724063 -311.40307 
L 108.564063 -328.76963 
L 97.404063 -329.973156 
L 86.244063 -302.116115 
L 75.084063 -233.94382 
L 63.924063 -177.291216 
L 52.764063 -134.548225 
z
" style="stroke: #ff7f0e; stroke-opacity: 0.2"/>
    </defs>
    <g clip-path="url(#pbedaeee7ae)">
     <use xlink:href="#m3f54c932a7" x="0" y="361.333136" style="fill: #ff7f0e; fill-opacity: 0.2; stroke: #ff7f0e; stroke-opacity: 0.2"/>
    </g>
   </g>
   <g id="matplotlib.axis_1">
    <g id="text_1">
     <text style="font: 10px 'Arial', sans-serif; text-anchor: middle" x="231.324063" y="296.533792" transform="rotate(-0 231.324063 296.533792)">Time</text>
    </g>
   </g>
   <g id="matplotlib.axis_2">
    <g id="ytick_1">
     <g id="line2d_1">
      <defs>
       <path id="m39adf6816b" d="M 0 0 
L -3.5 0 
" style="stroke: #000000; stroke-width: 0.8"/>
      </defs>
      <g>
       <use xlink:href="#m39adf6816b" x="52.764063" y="272.453169" style="stroke: #000000; stroke-width: 0.8"/>
      </g>
     </g>
     <g id="text_2">
      <text style="font: 10px 'Arial', sans-serif; text-anchor: end" x="45.764063" y="276.032075" transform="rotate(-0 45.764063 276.032075)">−0.50</text>
     </g>
    </g>
    <g id="ytick_2">
     <g id="line2d_2">
      <g>
       <use xlink:href="#m39adf6816b" x="52.764063" y="237.742624" style="stroke: #000000; stroke-width: 0.8"/>
      </g>
     </g>
     <g id="text_3">
      <text style="font: 10px 'Arial', sans-serif; text-anchor: end" x="45.764063" y="241.321531" transform="rotate(-0 45.764063 241.321531)">−0.25</text>
     </g>
    </g>
    <g id="ytick_3">
     <g id="line2d_3">
      <g>
       <use xlink:href="#m39adf6816b" x="52.764063" y="203.03208" style="stroke: #000000; stroke-width: 0.8"/>
      </g>
     </g>
     <g id="text_4">
      <text style="font: 10px 'Arial', sans-serif; text-anchor: end" x="45.764063" y="206.610986" transform="rotate(-0 45.764063 206.610986)">0.00</text>
     </g>
    </g>
    <g id="ytick_4">
     <g id="line2d_4">
      <g>
       <use xlink:href="#m39adf6816b" x="52.764063" y="168.321535" style="stroke: #000000; stroke-width: 0.8"/>
      </g>
     </g>
     <g id="text_5">
      <text style="font: 10px 'Arial', sans-serif; text-anchor: end" x="45.764063" y="171.900442" transform="rotate(-0 45.764063 171.900442)">0.25</text>
     </g>
    </g>
    <g id="ytick_5">
     <g id="line2d_5">
      <g>
       <use xlink:href="#m39adf6816b" x="52.764063" y="133.610991" style="stroke: #000000; stroke-width: 0.8"/>
      </g>
     </g>
     <g id="text_6">
      <text style="font: 10px 'Arial', sans-serif; text-anchor: end" x="45.764063" y="137.189897" transform="rotate(-0 45.764063 137.189897)">0.50</text>
     </g>
    </g>
    <g id="ytick_6">
     <g id="line2d_6">
      <g>
       <use xlink:href="#m39adf6816b" x="52.764063" y="98.900446" style="stroke: #000000; stroke-width: 0.8"/>
      </g>
     </g>
     <g id="text_7">
      <text style="font: 10px 'Arial', sans-serif; text-anchor: end" x="45.764063" y="102.479353" transform="rotate(-0 45.764063 102.479353)">0.75</text>
     </g>
    </g>
    <g id="ytick_7">
     <g id="line2d_7">
      <g>
       <use xlink:href="#m39adf6816b" x="52.764063" y="64.189902" style="stroke: #000000; stroke-width: 0.8"/>
      </g>
     </g>
     <g id="text_8">
      <text style="font: 10px 'Arial', sans-serif; text-anchor: end" x="45.764063" y="67.768808" transform="rotate(-0 45.764063 67.768808)">1.00</text>
     </g>
    </g>
    <g id="ytick_8">
     <g id="line2d_8">
      <g>
       <use xlink:href="#m39adf6816b" x="52.764063" y="29.479357" style="stroke: #000000; stroke-width: 0.8"/>
      </g>
     </g>
     <g id="text_9">
      <text style="font: 10px 'Arial', sans-serif; text-anchor: end" x="45.764063" y="33.058264" transform="rotate(-0 45.764063 33.058264)">1.25</text>
     </g>
    </g>
    <g id="text_10">
     <text style="font: 10px 'Arial', sans-serif; text-anchor: middle" x="14.357813" y="152.31998" transform="rotate(-90 14.357813 152.31998)">Activity</text>
    </g>
   </g>
   <g id="line2d_9">
    <path d="M 52.764063 238.934974 
L 63.924063 215.133583 
L 75.084063 172.775451 
L 86.244063 106.06249 
L 97.404063 80.626611 
L 108.564063 87.676404 
L 119.724063 106.716746 
L 130.884063 113.570886 
L 142.044062 116.025672 
L 153.204063 125.731292 
L 164.364063 138.976952 
L 175.524063 152.011 
L 186.684063 163.652408 
L 197.844063 170.87938 
L 209.004063 178.754987 
L 220.164062 185.070762 
L 231.324063 189.368184 
L 242.484062 190.42564 
L 253.644063 195.279051 
L 264.804062 199.229297 
L 275.964063 203.222339 
L 287.124063 209.902466 
L 298.284063 213.866462 
L 309.444063 217.953261 
L 320.604062 221.915068 
L 331.764063 225.310639 
L 342.924062 228.259115 
L 354.084063 229.553325 
L 365.244062 232.635062 
L 376.404063 235.908941 
L 387.564062 249.8799 
L 398.724063 262.836099 
L 409.884063 269.531628 
" clip-path="url(#pbedaeee7ae)" style="fill: none; stroke: #1f77b4; stroke-width: 1.5; stroke-linecap: square"/>
   </g>
   <g id="line2d_10">
    <path d="M 52.764063 233.48343 
L 63.924063 193.202389 
L 75.084063 139.214732 
L 86.244063 75.651711 
L 97.404063 50.052099 
L 108.564063 52.272039 
L 119.724063 69.24352 
L 130.884063 89.546484 
L 142.044062 103.195263 
L 153.204063 119.079557 
L 164.364063 136.810535 
L 175.524063 143.694964 
L 186.684063 149.749628 
L 197.844063 157.627813 
L 209.004063 166.366759 
L 220.164062 173.657853 
L 231.324063 178.311568 
L 242.484062 183.888682 
L 253.644063 190.406478 
L 264.804062 192.943616 
L 275.964063 197.048464 
L 287.124063 204.622238 
L 298.284063 210.30303 
L 309.444063 213.436408 
L 320.604062 214.755535 
L 331.764063 217.222769 
L 342.924062 218.584297 
L 354.084063 219.040885 
L 365.244062 220.844134 
L 376.404063 224.403855 
L 387.564062 241.5795 
L 398.724063 258.977181 
L 409.884063 269.591925 
" clip-path="url(#pbedaeee7ae)" style="fill: none; stroke: #ff7f0e; stroke-width: 1.5; stroke-linecap: square"/>
   </g>
   <g id="line2d_11">
    <path d="M 86.244063 285.37598 
L 86.244063 19.26398 
" clip-path="url(#pbedaeee7ae)" style="fill: none; stroke-dasharray: 5.55,2.4; stroke-dashoffset: 0; stroke: #000000; stroke-opacity: 0.5; stroke-width: 1.5"/>
   </g>
   <g id="line2d_12">
    <path d="M 387.564062 285.37598 
L 387.564062 19.26398 
" clip-path="url(#pbedaeee7ae)" style="fill: none; stroke-dasharray: 5.55,2.4; stroke-dashoffset: 0; stroke: #000000; stroke-opacity: 0.5; stroke-width: 1.5"/>
   </g>
   <g id="patch_3">
    <path d="M 52.764063 285.37598 
L 409.884063 285.37598 
" style="fill: none; stroke: #000000; stroke-width: 0.8; stroke-linejoin: miter; stroke-linecap: square"/>
   </g>
   <g id="text_11">
    <text style="font: 6.94px 'Arial', sans-serif" transform="translate(14.010547 321.385533) rotate(-35)">-0.1s Sampling</text>
   </g>
   <g id="text_12">
    <text style="font: 6.94px 'Arial', sans-serif" transform="translate(61.707276 311.430872) rotate(-35)">Sampling</text>
   </g>
   <g id="text_13">
    <text style="font: 6.94px 'Arial', sans-serif" transform="translate(322.94997 339.456682) rotate(-35)">Movement to Lateral Port</text>
   </g>
   <g id="text_14">
    <text style="font: 8.33px 'Arial', sans-serif; text-anchor: middle" x="231.324063" y="13.26398" transform="rotate(-0 231.324063 13.26398)">GP4_28_S1_L41_D250_M2L - Trace:62_GP4_28_S1_L41_D250_M2L (when: correct)</text>
   </g>
   <g id="legend_1">
    <g id="patch_4">
     <path d="M 134.005744 354.133136 
L 328.642381 354.133136 
Q 330.030381 354.133136 330.030381 352.745136 
L 330.030381 343.45638 
Q 330.030381 342.06838 328.642381 342.06838 
L 134.005744 342.06838 
Q 132.617744 342.06838 132.617744 343.45638 
L 132.617744 352.745136 
Q 132.617744 354.133136 134.005744 354.133136 
z
" style="fill: #ffffff; opacity: 0.8; stroke: #cccccc; stroke-linejoin: miter"/>
    </g>
    <g id="line2d_13">
     <path d="M 135.393744 347.467483 
L 142.333744 347.467483 
L 149.273744 347.467483 
" style="fill: none; stroke: #1f77b4; stroke-width: 1.5; stroke-linecap: square"/>
    </g>
    <g id="text_15">
     <text style="font: 6.94px 'Arial', sans-serif; text-anchor: start" x="154.825744" y="349.896483" transform="rotate(-0 154.825744 349.896483)">DecisionRight (133 pts)</text>
    </g>
    <g id="line2d_14">
     <path d="M 240.832947 347.467483 
L 247.772947 347.467483 
L 254.712947 347.467483 
" style="fill: none; stroke: #ff7f0e; stroke-width: 1.5; stroke-linecap: square"/>
    </g>
    <g id="text_16">
     <text style="font: 6.94px 'Arial', sans-serif; text-anchor: start" x="260.264947" y="349.896483" transform="rotate(-0 260.264947 349.896483)">DecisionLeft (117 pts)</text>
    </g>
   </g>
  </g>
 </g>
 <defs>
  <clipPath id="pbedaeee7ae">
   <rect x="52.764063" y="19.26398" width="357.12" height="266.112"/>
  </clipPath>
 </defs>
</svg>
