<?xml version="1.0" encoding="utf-8" standalone="no"?>
<!DOCTYPE svg PUBLIC "-//W3C//DTD SVG 1.1//EN"
  "http://www.w3.org/Graphics/SVG/1.1/DTD/svg11.dtd">
<svg xmlns:xlink="http://www.w3.org/1999/xlink" width="417.084062pt" height="361.333136pt" viewBox="0 0 417.084062 361.333136" xmlns="http://www.w3.org/2000/svg" version="1.1">
 <metadata>
  <rdf:RDF xmlns:dc="http://purl.org/dc/elements/1.1/" xmlns:cc="http://creativecommons.org/ns#" xmlns:rdf="http://www.w3.org/1999/02/22-rdf-syntax-ns#">
   <cc:Work>
    <dc:type rdf:resource="http://purl.org/dc/dcmitype/StillImage"/>
    <dc:date>2025-12-29T04:07:18.209358</dc:date>
    <dc:format>image/svg+xml</dc:format>
    <dc:creator>
     <cc:Agent>
      <dc:title>Matplotlib v3.8.0, https://matplotlib.org/</dc:title>
     </cc:Agent>
    </dc:creator>
   </cc:Work>
  </rdf:RDF>
 </metadata>
 <defs>
  <style type="text/css">*{stroke-linejoin: round; stroke-linecap: butt}</style>
 </defs>
 <g id="figure_1">
  <g id="patch_1">
   <path d="M 0 361.333136 
L 417.084062 361.333136 
L 417.084062 -0 
L 0 -0 
z
" style="fill: #ffffff"/>
  </g>
  <g id="axes_1">
   <g id="patch_2">
    <path d="M 52.764063 285.37598 
L 409.884063 285.37598 
L 409.884063 19.26398 
L 52.764063 19.26398 
z
" style="fill: #ffffff"/>
   </g>
   <g id="PolyCollection_1">
    <defs>
     <path id="mf03ee700da" d="M 52.764063 -112.172953 
L 52.764063 -95.231208 
L 63.924063 -100.495372 
L 75.084063 -105.017549 
L 86.244063 -103.379047 
L 97.404063 -102.478387 
L 108.564063 -103.707242 
L 119.724063 -108.085296 
L 130.884063 -117.429164 
L 142.044062 -122.077675 
L 153.204063 -131.687548 
L 164.364063 -141.801796 
L 175.524063 -148.217616 
L 186.684063 -156.024385 
L 197.844063 -165.847591 
L 209.004063 -178.106691 
L 220.164062 -187.75533 
L 231.324063 -192.681951 
L 242.484062 -201.777082 
L 253.644063 -212.963792 
L 264.804062 -227.933468 
L 275.964063 -244.282711 
L 287.124063 -249.583176 
L 298.284063 -256.477572 
L 309.444063 -264.983035 
L 320.604062 -275.504827 
L 331.764063 -288.488568 
L 342.924062 -300.09389 
L 354.084063 -304.125664 
L 365.244062 -299.944366 
L 376.404063 -285.970611 
L 387.564062 -257.169072 
L 398.724063 -233.776202 
L 409.884063 -224.721582 
L 409.884063 -243.072357 
L 409.884063 -243.072357 
L 398.724063 -252.069673 
L 387.564062 -276.524499 
L 376.404063 -308.114249 
L 365.244062 -324.770552 
L 354.084063 -329.973156 
L 342.924062 -326.071772 
L 331.764063 -314.172631 
L 320.604062 -301.085524 
L 309.444063 -290.037593 
L 298.284063 -280.750284 
L 287.124063 -273.765846 
L 275.964063 -269.005768 
L 264.804062 -251.765104 
L 253.644063 -236.811085 
L 242.484062 -226.223212 
L 231.324063 -217.431788 
L 220.164062 -212.405732 
L 209.004063 -202.588659 
L 197.844063 -188.682467 
L 186.684063 -178.657763 
L 175.524063 -170.224383 
L 164.364063 -162.727136 
L 153.204063 -150.055811 
L 142.044062 -139.784575 
L 130.884063 -133.762151 
L 119.724063 -123.936822 
L 108.564063 -119.890666 
L 97.404063 -118.941343 
L 86.244063 -120.324029 
L 75.084063 -122.619105 
L 63.924063 -118.017477 
L 52.764063 -112.172953 
z
" style="stroke: #1f77b4; stroke-opacity: 0.2"/>
    </defs>
    <g clip-path="url(#p47d1c42115)">
     <use xlink:href="#mf03ee700da" x="0" y="361.333136" style="fill: #1f77b4; fill-opacity: 0.2; stroke: #1f77b4; stroke-opacity: 0.2"/>
    </g>
   </g>
   <g id="PolyCollection_2">
    <defs>
     <path id="mbab5a5cd99" d="M 52.764063 -98.563548 
L 52.764063 -88.133645 
L 63.924063 -88.053156 
L 75.084063 -91.624001 
L 86.244063 -96.494669 
L 97.404063 -97.838489 
L 108.564063 -98.229664 
L 119.724063 -99.957864 
L 130.884063 -105.815064 
L 142.044062 -115.119295 
L 153.204063 -124.354428 
L 164.364063 -137.850414 
L 175.524063 -151.079101 
L 186.684063 -159.00205 
L 197.844063 -163.883195 
L 209.004063 -175.567553 
L 220.164062 -185.820268 
L 231.324063 -191.789417 
L 242.484062 -199.133888 
L 253.644063 -206.371125 
L 264.804062 -211.757531 
L 275.964063 -218.75251 
L 287.124063 -225.105767 
L 298.284063 -233.691032 
L 309.444063 -241.350694 
L 320.604062 -248.77817 
L 331.764063 -257.091454 
L 342.924062 -259.642291 
L 354.084063 -262.419797 
L 365.244062 -265.436862 
L 376.404063 -265.412794 
L 387.564062 -234.009579 
L 398.724063 -194.333989 
L 409.884063 -170.830544 
L 409.884063 -188.143254 
L 409.884063 -188.143254 
L 398.724063 -213.840872 
L 387.564062 -257.182717 
L 376.404063 -290.003018 
L 365.244062 -289.947765 
L 354.084063 -286.447307 
L 342.924062 -283.369958 
L 331.764063 -281.62134 
L 320.604062 -272.357869 
L 309.444063 -264.01182 
L 298.284063 -256.169246 
L 287.124063 -246.631443 
L 275.964063 -239.752807 
L 264.804062 -232.181339 
L 253.644063 -226.49483 
L 242.484062 -219.563965 
L 231.324063 -211.845625 
L 220.164062 -205.881837 
L 209.004063 -194.401333 
L 197.844063 -181.089263 
L 186.684063 -176.7336 
L 175.524063 -167.986023 
L 164.364063 -153.89471 
L 153.204063 -139.113963 
L 142.044062 -128.118964 
L 130.884063 -118.085566 
L 119.724063 -112.321156 
L 108.564063 -109.662975 
L 97.404063 -108.606414 
L 86.244063 -108.506271 
L 75.084063 -105.500835 
L 63.924063 -100.616324 
L 52.764063 -98.563548 
z
" style="stroke: #ff7f0e; stroke-opacity: 0.2"/>
    </defs>
    <g clip-path="url(#p47d1c42115)">
     <use xlink:href="#mbab5a5cd99" x="0" y="361.333136" style="fill: #ff7f0e; fill-opacity: 0.2; stroke: #ff7f0e; stroke-opacity: 0.2"/>
    </g>
   </g>
   <g id="matplotlib.axis_1">
    <g id="text_1">
     <text style="font: 10px 'Arial', sans-serif; text-anchor: middle" x="231.324063" y="296.533792" transform="rotate(-0 231.324063 296.533792)">Time</text>
    </g>
   </g>
   <g id="matplotlib.axis_2">
    <g id="ytick_1">
     <g id="line2d_1">
      <defs>
       <path id="mff1d813a7b" d="M 0 0 
L -3.5 0 
" style="stroke: #000000; stroke-width: 0.8"/>
      </defs>
      <g>
       <use xlink:href="#mff1d813a7b" x="52.764063" y="254.026346" style="stroke: #000000; stroke-width: 0.8"/>
      </g>
     </g>
     <g id="text_2">
      <text style="font: 10px 'Arial', sans-serif; text-anchor: end" x="45.764063" y="257.605252" transform="rotate(-0 45.764063 257.605252)">−0.50</text>
     </g>
    </g>
    <g id="ytick_2">
     <g id="line2d_2">
      <g>
       <use xlink:href="#mff1d813a7b" x="52.764063" y="221.999399" style="stroke: #000000; stroke-width: 0.8"/>
      </g>
     </g>
     <g id="text_3">
      <text style="font: 10px 'Arial', sans-serif; text-anchor: end" x="45.764063" y="225.578305" transform="rotate(-0 45.764063 225.578305)">−0.25</text>
     </g>
    </g>
    <g id="ytick_3">
     <g id="line2d_3">
      <g>
       <use xlink:href="#mff1d813a7b" x="52.764063" y="189.972452" style="stroke: #000000; stroke-width: 0.8"/>
      </g>
     </g>
     <g id="text_4">
      <text style="font: 10px 'Arial', sans-serif; text-anchor: end" x="45.764063" y="193.551358" transform="rotate(-0 45.764063 193.551358)">0.00</text>
     </g>
    </g>
    <g id="ytick_4">
     <g id="line2d_4">
      <g>
       <use xlink:href="#mff1d813a7b" x="52.764063" y="157.945505" style="stroke: #000000; stroke-width: 0.8"/>
      </g>
     </g>
     <g id="text_5">
      <text style="font: 10px 'Arial', sans-serif; text-anchor: end" x="45.764063" y="161.524412" transform="rotate(-0 45.764063 161.524412)">0.25</text>
     </g>
    </g>
    <g id="ytick_5">
     <g id="line2d_5">
      <g>
       <use xlink:href="#mff1d813a7b" x="52.764063" y="125.918558" style="stroke: #000000; stroke-width: 0.8"/>
      </g>
     </g>
     <g id="text_6">
      <text style="font: 10px 'Arial', sans-serif; text-anchor: end" x="45.764063" y="129.497465" transform="rotate(-0 45.764063 129.497465)">0.50</text>
     </g>
    </g>
    <g id="ytick_6">
     <g id="line2d_6">
      <g>
       <use xlink:href="#mff1d813a7b" x="52.764063" y="93.891612" style="stroke: #000000; stroke-width: 0.8"/>
      </g>
     </g>
     <g id="text_7">
      <text style="font: 10px 'Arial', sans-serif; text-anchor: end" x="45.764063" y="97.470518" transform="rotate(-0 45.764063 97.470518)">0.75</text>
     </g>
    </g>
    <g id="ytick_7">
     <g id="line2d_7">
      <g>
       <use xlink:href="#mff1d813a7b" x="52.764063" y="61.864665" style="stroke: #000000; stroke-width: 0.8"/>
      </g>
     </g>
     <g id="text_8">
      <text style="font: 10px 'Arial', sans-serif; text-anchor: end" x="45.764063" y="65.443571" transform="rotate(-0 45.764063 65.443571)">1.00</text>
     </g>
    </g>
    <g id="ytick_8">
     <g id="line2d_8">
      <g>
       <use xlink:href="#mff1d813a7b" x="52.764063" y="29.837718" style="stroke: #000000; stroke-width: 0.8"/>
      </g>
     </g>
     <g id="text_9">
      <text style="font: 10px 'Arial', sans-serif; text-anchor: end" x="45.764063" y="33.416624" transform="rotate(-0 45.764063 33.416624)">1.25</text>
     </g>
    </g>
    <g id="text_10">
     <text style="font: 10px 'Arial', sans-serif; text-anchor: middle" x="14.357813" y="152.31998" transform="rotate(-90 14.357813 152.31998)">Activity</text>
    </g>
   </g>
   <g id="line2d_9">
    <path d="M 52.764063 257.631056 
L 63.924063 252.076711 
L 75.084063 247.514809 
L 86.244063 249.481598 
L 97.404063 250.623271 
L 108.564063 249.534182 
L 119.724063 245.322077 
L 130.884063 235.737478 
L 142.044062 230.402011 
L 153.204063 220.461455 
L 164.364063 209.06867 
L 175.524063 202.112137 
L 186.684063 193.992062 
L 197.844063 184.068107 
L 209.004063 170.985461 
L 220.164062 161.252605 
L 231.324063 156.276266 
L 242.484062 147.332988 
L 253.644063 136.4457 
L 264.804062 121.48385 
L 275.964063 104.688897 
L 287.124063 99.658625 
L 298.284063 92.719208 
L 309.444063 83.822822 
L 320.604062 73.03796 
L 331.764063 60.002533 
L 342.924062 48.250305 
L 354.084063 44.283726 
L 365.244062 48.975677 
L 376.404063 64.29071 
L 387.564062 94.48635 
L 398.724063 118.410196 
L 409.884063 127.436166 
" clip-path="url(#p47d1c42115)" style="fill: none; stroke: #1f77b4; stroke-width: 1.5; stroke-linecap: square"/>
   </g>
   <g id="line2d_10">
    <path d="M 52.764063 267.984539 
L 63.924063 266.998396 
L 75.084063 262.770718 
L 86.244063 258.832666 
L 97.404063 258.110684 
L 108.564063 257.386816 
L 119.724063 255.193626 
L 130.884063 249.382821 
L 142.044062 239.714007 
L 153.204063 229.59894 
L 164.364063 215.460574 
L 175.524063 201.800575 
L 186.684063 193.465311 
L 197.844063 188.846907 
L 209.004063 176.348693 
L 220.164062 165.482084 
L 231.324063 159.515615 
L 242.484062 151.98421 
L 253.644063 144.900159 
L 264.804062 139.363701 
L 275.964063 132.080477 
L 287.124063 125.464533 
L 298.284063 116.402999 
L 309.444063 108.651879 
L 320.604062 100.765116 
L 331.764063 91.976739 
L 342.924062 89.827012 
L 354.084063 86.899584 
L 365.244062 83.640822 
L 376.404063 83.62523 
L 387.564062 115.736988 
L 398.724063 157.245705 
L 409.884063 181.846237 
" clip-path="url(#p47d1c42115)" style="fill: none; stroke: #ff7f0e; stroke-width: 1.5; stroke-linecap: square"/>
   </g>
   <g id="line2d_11">
    <path d="M 86.244063 285.37598 
L 86.244063 19.26398 
" clip-path="url(#p47d1c42115)" style="fill: none; stroke-dasharray: 5.55,2.4; stroke-dashoffset: 0; stroke: #000000; stroke-opacity: 0.5; stroke-width: 1.5"/>
   </g>
   <g id="line2d_12">
    <path d="M 387.564062 285.37598 
L 387.564062 19.26398 
" clip-path="url(#p47d1c42115)" style="fill: none; stroke-dasharray: 5.55,2.4; stroke-dashoffset: 0; stroke: #000000; stroke-opacity: 0.5; stroke-width: 1.5"/>
   </g>
   <g id="patch_3">
    <path d="M 52.764063 285.37598 
L 409.884063 285.37598 
" style="fill: none; stroke: #000000; stroke-width: 0.8; stroke-linejoin: miter; stroke-linecap: square"/>
   </g>
   <g id="text_11">
    <text style="font: 6.94px 'Arial', sans-serif" transform="translate(14.010547 321.385533) rotate(-35)">-0.1s Sampling</text>
   </g>
   <g id="text_12">
    <text style="font: 6.94px 'Arial', sans-serif" transform="translate(61.707276 311.430872) rotate(-35)">Sampling</text>
   </g>
   <g id="text_13">
    <text style="font: 6.94px 'Arial', sans-serif" transform="translate(322.94997 339.456682) rotate(-35)">Movement to Lateral Port</text>
   </g>
   <g id="text_14">
    <text style="font: 8.33px 'Arial', sans-serif; text-anchor: middle" x="231.324063" y="13.26398" transform="rotate(-0 231.324063 13.26398)">GP4_28_S1_L41_D250_M2L - Trace:95_GP4_28_S1_L41_D250_M2L (when: correct)</text>
   </g>
   <g id="legend_1">
    <g id="patch_4">
     <path d="M 134.005744 354.133136 
L 328.642381 354.133136 
Q 330.030381 354.133136 330.030381 352.745136 
L 330.030381 343.45638 
Q 330.030381 342.06838 328.642381 342.06838 
L 134.005744 342.06838 
Q 132.617744 342.06838 132.617744 343.45638 
L 132.617744 352.745136 
Q 132.617744 354.133136 134.005744 354.133136 
z
" style="fill: #ffffff; opacity: 0.8; stroke: #cccccc; stroke-linejoin: miter"/>
    </g>
    <g id="line2d_13">
     <path d="M 135.393744 347.467483 
L 142.333744 347.467483 
L 149.273744 347.467483 
" style="fill: none; stroke: #1f77b4; stroke-width: 1.5; stroke-linecap: square"/>
    </g>
    <g id="text_15">
     <text style="font: 6.94px 'Arial', sans-serif; text-anchor: start" x="154.825744" y="349.896483" transform="rotate(-0 154.825744 349.896483)">DecisionRight (133 pts)</text>
    </g>
    <g id="line2d_14">
     <path d="M 240.832947 347.467483 
L 247.772947 347.467483 
L 254.712947 347.467483 
" style="fill: none; stroke: #ff7f0e; stroke-width: 1.5; stroke-linecap: square"/>
    </g>
    <g id="text_16">
     <text style="font: 6.94px 'Arial', sans-serif; text-anchor: start" x="260.264947" y="349.896483" transform="rotate(-0 260.264947 349.896483)">DecisionLeft (117 pts)</text>
    </g>
   </g>
  </g>
 </g>
 <defs>
  <clipPath id="p47d1c42115">
   <rect x="52.764063" y="19.26398" width="357.12" height="266.112"/>
  </clipPath>
 </defs>
</svg>
